<svg xmlns="http://www.w3.org/2000/svg" version="1.1"><polyline points="184.0,50.5,186.0,59.0,187.5,67.0,189.5,75.0,197.0,80.5,192.5,83.5,191.5,86.5,190.5,95.5,191.5,103.5,186.5,106.0,188.5,107.0,201.5,106.0,209.0,107.5,218.0,106.0,221.0,99.0" stroke="black" stroke-width="2" fill="none" />
<polyline points="219.5,94.0,227.5,93.0,236.0,92.5" stroke="black" stroke-width="2" fill="none" />
<polyline points="236.5,88.5,228.0,97.0" stroke="black" stroke-width="2" fill="none" />
<polyline points="229.0,98.0,236.5,97.5" stroke="black" stroke-width="2" fill="none" />
<polyline points="236.5,99.0,228.5,106.5,221.0,114.0,213.0,122.0" stroke="black" stroke-width="2" fill="none" />
<polyline points="218.5,125.5,218.5,127.5,218.0,135.5" stroke="black" stroke-width="2" fill="none" />
<polyline points="220.0,140.5,212.0,147.5,204.0,154.5,196.0,162.0" stroke="black" stroke-width="2" fill="none" />
<polyline points="187.0,161.0,195.5,160.5,203.0,159.5,211.0,159.5,219.0,160.0,227.0,159.5" stroke="black" stroke-width="2" fill="none" />
<polyline points="224.5,156.0,216.5,163.5,209.5,171.0" stroke="black" stroke-width="2" fill="none" />
<polyline points="212.0,176.5,220.5,176.5,228.5,176.5,236.5,176.0,245.0,176.0,252.0,175.5" stroke="black" stroke-width="2" fill="none" />
<polyline points="253.0,179.0,245.0,187.0,237.0,194.5,229.0,202.0,220.5,210.0,211.5,218.0,203.5,225.5,195.0,233.0" stroke="black" stroke-width="2" fill="none" />
<polyline points="195.5,228.5,203.0,227.5,211.5,227.5,219.5,227.0,227.0,227.0,235.0,226.5,243.0,226.0,250.5,225.0,258.5,224.0,266.5,223.5" stroke="black" stroke-width="2" fill="none" />
<polyline points="263.5,224.5,271.5,218.0,264.0,226.0,264.0,234.0,261.0,242.5,257.0,241.5,264.5,239.5,272.0,244.5,279.5,240.5,288.0,240.5,295.5,241.5,305.0,239.5,315.0,238.5,323.5,237.5,331.5,237.0" stroke="black" stroke-width="2" fill="none" />
<polyline points="339.5,235.5,347.5,228.0" stroke="black" stroke-width="2" fill="none" />
<polyline points="347.5,235.5,339.0,243.0" stroke="black" stroke-width="2" fill="none" />
<polyline points="337.0,247.5,332.0,255.5,328.0,263.0,315.5,271.0,308.0,272.0,315.5,271.0,323.5,265.0,329.5,264.0,333.5,247.0" stroke="black" stroke-width="2" fill="none" />
<polyline points="332.5,246.5,340.5,245.5,348.5,245.0" stroke="black" stroke-width="2" fill="none" />
<polyline points="348.0,244.0,340.0,251.5,332.0,258.5,324.0,265.5,316.0,273.0,307.5,281.0,300.0,288.0" stroke="black" stroke-width="2" fill="none" />
<polyline points="307.0,291.0,314.5,283.5,322.5,276.0,331.0,268.5" stroke="black" stroke-width="2" fill="none" />
<polyline points="332.5,265.5,324.5,266.0" stroke="black" stroke-width="2" fill="none" />
<polyline points="315.0,265.0,307.0,272.5,299.0,280.5,291.5,288.0" stroke="black" stroke-width="2" fill="none" />
<polyline points="284.0,290.0,292.0,282.5,300.0,275.0,307.5,267.5" stroke="black" stroke-width="2" fill="none" />
<polyline points="309.0,264.5,310.5,262.5,307.5,262.5,297.5,270.0,278.5,278.0" stroke="black" stroke-width="2" fill="none" />
<polyline points="276.5,276.5,268.0,284.0,260.0,291.0,252.5,298.5,244.0,306.5,236.0,314.0" stroke="black" stroke-width="2" fill="none" />
<polyline points="242.5,313.5,250.0,305.5,258.0,297.0,266.0,289.0,274.0,281.5,282.5,273.5" stroke="black" stroke-width="2" fill="none" />
<polyline points="290.0,274.5,282.0,281.5,274.5,289.0" stroke="black" stroke-width="2" fill="none" />
<polyline points="270.5,279.0,278.0,278.5,285.5,278.5,293.5,278.0,302.0,277.5,309.5,277.0,317.5,276.5,325.5,276.0,333.5,276.0,341.5,275.5,349.5,274.5" stroke="black" stroke-width="2" fill="none" />
<polyline points="346.5,275.0,339.0,282.5" stroke="black" stroke-width="2" fill="none" />
<polyline points="341.0,290.0,349.0,289.0,356.5,288.5" stroke="black" stroke-width="2" fill="none" />
<polyline points="354.5,288.5,362.5,289.5,370.5,294.5,378.5,294.5,387.0,295.0,395.0,294.5,403.0,294.0,411.0,292.0,419.5,287.5" stroke="black" stroke-width="2" fill="none" />
<polyline points="421.0,298.5,412.5,306.0,404.5,314.0" stroke="black" stroke-width="2" fill="none" />
<polyline points="410.5,314.5,419.0,307.0" stroke="black" stroke-width="2" fill="none" />
<polyline points="418.0,314.5,426.0,307.5,434.0,300.0" stroke="black" stroke-width="2" fill="none" />
<polyline points="428.0,304.5,436.5,304.0,444.5,303.5" stroke="black" stroke-width="2" fill="none" />
<polyline points="444.5,299.5,436.0,307.0,427.5,313.5" stroke="black" stroke-width="2" fill="none" />
<polyline points="443.0,312.0,451.0,304.0,459.5,297.0,467.5,289.5" stroke="black" stroke-width="2" fill="none" />
<polyline points="468.0,295.5,460.0,296.0" stroke="black" stroke-width="2" fill="none" />
<polyline points="451.5,298.5,443.0,305.5,435.5,313.5" stroke="black" stroke-width="2" fill="none" />
<polyline points="452.0,314.5,459.5,307.0" stroke="black" stroke-width="2" fill="none" />
<polyline points="467.0,315.5,475.0,308.5,483.0,301.0" stroke="black" stroke-width="2" fill="none" />
<polyline points="477.0,299.5,468.5,307.5,460.0,315.0" stroke="black" stroke-width="2" fill="none" />
<polyline points="475.5,315.0,483.5,307.5" stroke="black" stroke-width="2" fill="none" />
<polyline points="484.0,304.0,476.0,305.0" stroke="black" stroke-width="2" fill="none" />
<polyline points="484.5,315.5,492.5,308.0" stroke="black" stroke-width="2" fill="none" />
<polyline points="492.5,311.5,500.5,313.0" stroke="black" stroke-width="2" fill="none" />
<polyline points="507.0,313.0,515.0,305.5" stroke="black" stroke-width="2" fill="none" />
<polyline points="505.5,305.5,498.0,313.0" stroke="black" stroke-width="2" fill="none" />
<polyline points="491.5,314.0,499.5,306.5" stroke="black" stroke-width="2" fill="none" />
<polyline points="502.5,300.5,494.5,299.5" stroke="black" stroke-width="2" fill="none" />
<polyline points="491.5,293.5,499.5,293.0,507.5,292.5,515.5,291.5" stroke="black" stroke-width="2" fill="none" />
<polyline points="469.5,290.5,461.0,290.5,453.0,290.5,445.0,291.0" stroke="black" stroke-width="2" fill="none" />
<polyline points="412.0,299.5,404.0,307.0,396.0,315.0" stroke="black" stroke-width="2" fill="none" />
<polyline points="389.5,315.5,397.0,308.5,404.5,301.5" stroke="black" stroke-width="2" fill="none" />
<polyline points="410.0,304.0,418.0,303.5" stroke="black" stroke-width="2" fill="none" />
<polyline points="396.5,301.0,388.5,308.0,380.5,315.0" stroke="black" stroke-width="2" fill="none" />
<polyline points="373.0,316.0,381.0,309.0,388.5,302.0" stroke="black" stroke-width="2" fill="none" />
<polyline points="386.0,305.0,394.0,304.5,402.5,303.5" stroke="black" stroke-width="2" fill="none" />
<polyline points="411.0,288.0,403.0,288.5,395.0,289.0,387.5,290.5,379.0,291.0,371.0,291.5,363.0,292.0,355.0,292.5,347.5,294.0,340.0,294.5,332.5,294.5,324.0,294.5" stroke="black" stroke-width="2" fill="none" />
<polyline points="322.5,299.5,314.5,306.5,307.0,314.0" stroke="black" stroke-width="2" fill="none" />
<polyline points="307.5,306.5,299.0,314.0" stroke="black" stroke-width="2" fill="none" />
<polyline points="301.0,308.5,293.0,316.5" stroke="black" stroke-width="2" fill="none" />
<polyline points="283.5,316.0,291.5,308.5,300.0,300.5" stroke="black" stroke-width="2" fill="none" />
<polyline points="291.0,299.5,283.0,307.0,274.5,314.5" stroke="black" stroke-width="2" fill="none" />
<polyline points="266.0,313.5,274.0,306.0,282.0,298.0" stroke="black" stroke-width="2" fill="none" />
<polyline points="275.0,302.0,267.0,309.5,259.0,316.5" stroke="black" stroke-width="2" fill="none" />
<polyline points="250.5,314.0,258.5,306.5,267.0,298.5" stroke="black" stroke-width="2" fill="none" />
<polyline points="258.0,306.0,266.5,305.5,275.0,305.0,283.0,304.5,291.0,304.5" stroke="black" stroke-width="2" fill="none" />
<polyline points="309.5,305.5,317.5,305.5,325.5,305.0,333.5,306.0,341.0,305.0,349.0,305.0,357.0,305.0,365.5,304.5,374.0,305.0" stroke="black" stroke-width="2" fill="none" />
<polyline points="372.0,308.5,364.0,315.5" stroke="black" stroke-width="2" fill="none" />
<polyline points="355.5,313.0,363.5,305.5,372.0,298.0,380.0,290.5" stroke="black" stroke-width="2" fill="none" />
<polyline points="373.0,293.0,364.5,300.5,356.0,308.0,348.0,315.5" stroke="black" stroke-width="2" fill="none" />
<polyline points="348.5,308.0,340.5,315.0" stroke="black" stroke-width="2" fill="none" />
<polyline points="333.0,314.0,341.5,307.0,349.5,300.0,357.5,293.0,365.5,285.5" stroke="black" stroke-width="2" fill="none" />
<polyline points="363.0,292.0,355.0,299.5" stroke="black" stroke-width="2" fill="none" />
<polyline points="361.5,296.5,369.5,296.0" stroke="black" stroke-width="2" fill="none" />
<polyline points="380.0,299.0,388.0,298.0,395.5,298.5,403.5,298.5,411.5,297.0,419.5,297.5,427.5,298.0,435.5,297.0,443.5,297.5,451.5,298.0,459.5,299.0,472.5,296.0,479.5,295.0,487.5,296.5,495.5,296.5,503.5,296.5,511.5,297.5" stroke="black" stroke-width="2" fill="none" />
<polyline points="396.5,267.0,388.5,274.5" stroke="black" stroke-width="2" fill="none" />
<polyline points="386.5,268.5,394.5,268.0" stroke="black" stroke-width="2" fill="none" />
<polyline points="398.0,241.5,406.0,234.0" stroke="black" stroke-width="2" fill="none" />
<polyline points="397.0,235.0,389.0,242.5,381.0,249.5" stroke="black" stroke-width="2" fill="none" />
<polyline points="379.0,243.5,370.5,251.0" stroke="black" stroke-width="2" fill="none" />
<polyline points="370.5,244.0,362.5,251.0" stroke="black" stroke-width="2" fill="none" />
<polyline points="362.5,248.5,370.5,248.0,379.0,247.0,387.0,246.5" stroke="black" stroke-width="2" fill="none" />
<polyline points="387.0,240.5,395.5,240.0,403.0,239.5" stroke="black" stroke-width="2" fill="none" />
<polyline points="403.0,236.5,395.0,237.0,387.0,237.5" stroke="black" stroke-width="2" fill="none" />
<polyline points="386.0,236.5,387.0,239.5,378.5,243.5,383.5,251.0,382.0,259.0" stroke="black" stroke-width="2" fill="none" />
<polyline points="388.0,245.0,380.0,245.5,372.0,246.5,364.0,247.0" stroke="black" stroke-width="2" fill="none" />
<polyline points="357.5,256.0,365.5,262.0,374.0,265.0" stroke="black" stroke-width="2" fill="none" />
<polyline points="389.0,266.0,380.5,266.5,372.0,267.5,364.0,267.5,356.0,268.0,348.0,268.0,340.0,268.5,332.0,268.5,325.0,269.0,316.0,269.0,308.0,269.5,299.5,270.0,291.5,270.5,284.0,272.0,276.0,272.0,268.0,272.5,260.5,273.0,252.5,274.5,245.0,275.5,237.0,275.5,229.5,275.5,221.5,275.5,213.5,276.0,205.0,276.5,196.5,277.0,188.5,278.0,180.0,279.0,171.5,280.0,163.5,280.0,155.5,280.5,147.0,280.5,139.0,281.0,130.5,281.5,123.0,282.0,115.0,283.0,107.0,284.5,98.5,285.0,90.5,285.5,82.5,286.5" stroke="black" stroke-width="2" fill="none" />
<polyline points="83.5,290.0,91.5,282.5,99.0,274.5,106.5,266.5,114.0,259.0,122.5,251.5" stroke="black" stroke-width="2" fill="none" />
<polyline points="124.5,250.0,130.5,258.0,130.0,260.5,133.0,259.0" stroke="black" stroke-width="2" fill="none" />
<polyline points="132.5,259.5,124.5,267.0,116.0,275.0,108.0,282.5,100.5,290.0" stroke="black" stroke-width="2" fill="none" />
<polyline points="106.5,293.0,114.5,292.5,122.5,292.5,130.5,292.0,138.5,291.0,146.5,290.5,155.0,290.5,163.0,290.0,171.5,289.5" stroke="black" stroke-width="2" fill="none" />
<polyline points="172.0,290.0,181.0,283.0,189.5,275.5" stroke="black" stroke-width="2" fill="none" />
<polyline points="188.0,271.5,196.0,273.5" stroke="black" stroke-width="2" fill="none" />
<polyline points="195.5,273.0,204.0,273.0,211.5,272.5,219.5,272.0,227.5,271.5" stroke="black" stroke-width="2" fill="none" />
<polyline points="227.0,275.0,219.0,283.0" stroke="black" stroke-width="2" fill="none" />
<polyline points="211.5,280.0,219.5,272.0,227.0,264.5,234.5,257.5,243.0,250.5,251.0,243.0,259.0,236.0,267.0,228.5" stroke="black" stroke-width="2" fill="none" />
<polyline points="265.5,218.5,258.0,226.0,250.5,234.0,243.0,242.0,235.0,249.5" stroke="black" stroke-width="2" fill="none" />
<polyline points="234.0,241.5,242.5,240.5,251.0,240.0,259.0,240.0" stroke="black" stroke-width="2" fill="none" />
<polyline points="260.5,242.5,252.5,250.0,245.0,257.5" stroke="black" stroke-width="2" fill="none" />
<polyline points="245.5,259.0,238.0,259.5" stroke="black" stroke-width="2" fill="none" />
<polyline points="235.0,266.0,227.0,266.5" stroke="black" stroke-width="2" fill="none" />
<polyline points="227.0,263.5,235.0,263.0,243.0,262.5" stroke="black" stroke-width="2" fill="none" />
<polyline points="234.5,265.5,227.0,266.0,219.0,267.0,211.0,267.0,203.0,267.0,195.0,267.5" stroke="black" stroke-width="2" fill="none" />
<polyline points="203.0,262.0,210.5,262.0,219.0,262.0" stroke="black" stroke-width="2" fill="none" />
<polyline points="219.0,258.5,211.0,266.0,203.5,273.5,196.0,281.5,188.5,289.5" stroke="black" stroke-width="2" fill="none" />
<polyline points="189.0,293.5,196.5,292.5,204.5,291.0,212.0,290.5,220.0,290.0,228.0,290.0,235.5,288.5,243.5,288.0,252.0,287.5,260.0,287.0,269.0,287.0,276.0,286.5,284.0,286.5,292.0,286.0,300.0,286.0,308.0,285.5,316.0,285.5" stroke="black" stroke-width="2" fill="none" />
<polyline points="314.5,289.5,322.5,282.0,330.5,274.5,338.5,267.5,347.0,260.0" stroke="black" stroke-width="2" fill="none" />
<polyline points="349.5,263.0,341.5,263.0" stroke="black" stroke-width="2" fill="none" />
<polyline points="345.5,267.0,337.5,274.5,330.5,282.5" stroke="black" stroke-width="2" fill="none" />
<polyline points="324.0,285.0,315.5,285.5,308.0,286.0,300.0,286.0,291.5,286.5,284.0,286.5,276.5,287.0,268.5,287.5,259.5,288.0,251.5,288.5,243.5,289.5,235.5,290.5" stroke="black" stroke-width="2" fill="none" />
<polyline points="235.0,292.0,243.0,284.5" stroke="black" stroke-width="2" fill="none" />
<polyline points="244.0,290.0,252.5,282.5" stroke="black" stroke-width="2" fill="none" />
<polyline points="260.0,283.0,252.0,290.5" stroke="black" stroke-width="2" fill="none" />
<polyline points="251.5,298.0,260.0,298.0,268.5,297.0" stroke="black" stroke-width="2" fill="none" />
<polyline points="269.5,277.0,277.5,276.5,285.0,276.0,292.5,276.0,300.0,275.5,308.0,275.5,315.5,275.0,323.5,274.0,331.5,273.0,339.5,272.0,347.0,271.0" stroke="black" stroke-width="2" fill="none" />
<polyline points="347.0,283.5,339.0,291.0" stroke="black" stroke-width="2" fill="none" />
<polyline points="340.0,298.0,347.5,290.5,355.0,283.0" stroke="black" stroke-width="2" fill="none" />
<polyline points="349.5,298.5,341.5,299.0" stroke="black" stroke-width="2" fill="none" />
<polyline points="330.0,300.5,322.5,308.0,315.0,315.5" stroke="black" stroke-width="2" fill="none" />
<polyline points="323.5,316.0,331.0,308.5" stroke="black" stroke-width="2" fill="none" />
<polyline points="323.5,287.0,331.5,286.0,339.0,286.0,347.0,293.0,355.5,295.0,363.5,294.5" stroke="black" stroke-width="2" fill="none" />
<polyline points="366.0,306.5,358.0,307.0" stroke="black" stroke-width="2" fill="none" />
<polyline points="382.0,301.5,390.0,301.5,398.0,301.5" stroke="black" stroke-width="2" fill="none" />
<polyline points="390.5,282.0,388.5,280.0,383.5,275.5,377.5,279.5,368.0,272.5,372.0,267.5,375.0,254.5,374.0,252.5,373.5,247.5,365.5,245.5,357.5,239.0,357.0,235.0,358.0,223.0,363.0,222.0,367.0,221.0,365.5,222.5,364.5,229.0" stroke="black" stroke-width="2" fill="none" />
<polyline points="357.5,227.5,365.5,220.0" stroke="black" stroke-width="2" fill="none" />
<polyline points="363.5,225.5,355.0,226.0" stroke="black" stroke-width="2" fill="none" />
<polyline points="353.5,222.5,354.5,221.5,352.5,229.0,355.5,236.5,360.0,244.5,374.0,249.5,379.0,257.0,381.0,265.0,381.0,265.0,382.5,264.5,390.5,260.5,390.5,253.5" stroke="black" stroke-width="2" fill="none" />
<polyline points="393.0,243.5,387.0,248.0,385.5,242.5,378.0,243.5" stroke="black" stroke-width="2" fill="none" />
<polyline points="393.5,231.5,385.5,224.0,377.5,221.0" stroke="black" stroke-width="2" fill="none" />
<polyline points="375.5,219.5,383.5,220.5,391.5,227.0" stroke="black" stroke-width="2" fill="none" />
<polyline points="380.5,221.5,391.5,229.5,395.5,236.5,396.5,244.5,389.5,252.5,386.0,255.5" stroke="black" stroke-width="2" fill="none" />
<polyline points="366.5,265.5,359.0,259.5" stroke="black" stroke-width="2" fill="none" />
<polyline points="358.0,256.5,370.0,264.5" stroke="black" stroke-width="2" fill="none" />
<polyline points="369.5,250.5,362.5,248.5,368.5,245.0,369.5,237.0,363.0,242.0,354.5,237.0" stroke="black" stroke-width="2" fill="none" />
<polyline points="349.5,236.5,341.5,237.0" stroke="black" stroke-width="2" fill="none" />
<polyline points="340.0,230.0,348.0,229.0" stroke="black" stroke-width="2" fill="none" />
<polyline points="355.0,221.5,363.0,220.5" stroke="black" stroke-width="2" fill="none" />
<polyline points="357.0,210.0,365.0,202.5" stroke="black" stroke-width="2" fill="none" />
<polyline points="365.0,203.5,372.5,202.5,380.0,204.0,388.0,203.0,396.0,203.5,403.5,203.0" stroke="black" stroke-width="2" fill="none" />
<polyline points="408.5,219.0,407.5,227.0,407.0,235.0,408.5,243.0,408.0,251.0,408.0,258.5,408.5,266.5,409.0,274.5,410.0,282.0" stroke="black" stroke-width="2" fill="none" />
<polyline points="404.5,296.5,396.5,296.5,388.5,296.5,380.5,296.5,373.0,297.5,365.0,301.5,357.0,301.5,349.0,301.5,341.0,300.5,333.0,297.0,331.5,290.0,323.0,291.0,315.0,290.5,307.5,291.5,299.5,293.5,291.5,294.5,283.0,295.5,273.5,301.0,265.5,298.0,257.5,297.5,249.5,297.5,241.5,298.0,234.0,298.0,226.0,297.5,218.0,296.5" stroke="black" stroke-width="2" fill="none" />
<polyline points="219.0,297.0,211.0,297.5" stroke="black" stroke-width="2" fill="none" />
<polyline points="216.5,296.0,225.5,304.0,231.0,303.0,234.5,305.0,241.5,305.0,249.5,306.0,257.5,305.5,265.5,304.0,273.5,303.0,281.0,302.0,283.0,305.0,291.0,305.0,299.0,307.0,300.5,308.5,308.0,308.5,316.0,310.0,324.0,309.0" stroke="black" stroke-width="2" fill="none" />
<polyline points="301.0,272.0,308.5,271.5,316.5,271.5,324.5,271.0,332.0,271.0,340.0,270.5,348.0,270.0" stroke="black" stroke-width="2" fill="none" />
<polyline points="340.5,261.0,348.5,253.5" stroke="black" stroke-width="2" fill="none" />
<polyline points="342.0,256.0,334.0,256.5" stroke="black" stroke-width="2" fill="none" />
<polyline points="332.0,253.0,340.0,252.5,348.5,251.5" stroke="black" stroke-width="2" fill="none" />
<polyline points="347.5,258.0,339.5,258.0,331.5,259.0,323.5,259.5,315.5,260.0,307.0,260.5" stroke="black" stroke-width="2" fill="none" />
<polyline points="292.0,268.0,300.0,267.5,308.0,267.5,316.0,267.5,324.0,268.0,332.5,268.0,340.5,267.5,348.5,267.5" stroke="black" stroke-width="2" fill="none" />
<polyline points="356.5,255.5,363.5,263.5,371.5,267.5,374.5,275.5,382.5,271.0" stroke="black" stroke-width="2" fill="none" />
<polyline points="335.5,274.5,335.5,265.5,322.5,261.5,329.5,265.0,334.5,257.0,337.0,249.0" stroke="black" stroke-width="2" fill="none" />
<polyline points="339.5,222.5,348.0,222.0" stroke="black" stroke-width="2" fill="none" />
<polyline points="347.0,213.5,339.0,214.0" stroke="black" stroke-width="2" fill="none" />
<polyline points="339.0,206.0,347.0,206.0" stroke="black" stroke-width="2" fill="none" />
<polyline points="346.5,202.5,354.5,199.5,356.5,202.0,364.5,203.0,372.5,199.0,379.0,197.0,386.5,199.0" stroke="black" stroke-width="2" fill="none" />
<polyline points="386.5,179.0,394.5,171.5,403.0,163.5,411.0,156.0" stroke="black" stroke-width="2" fill="none" />
<polyline points="412.0,149.5,404.0,157.0,395.5,164.5,387.5,171.5,379.0,178.5" stroke="black" stroke-width="2" fill="none" />
<polyline points="371.5,176.5,380.0,169.0,389.0,162.0,397.5,155.0,405.5,148.0" stroke="black" stroke-width="2" fill="none" />
<polyline points="397.0,147.5,389.0,155.0,381.0,162.5,373.5,170.0,365.0,178.0" stroke="black" stroke-width="2" fill="none" />
<polyline points="364.5,179.0,372.5,179.0" stroke="black" stroke-width="2" fill="none" />
<polyline points="366.0,175.0,374.5,174.5,382.0,174.0,389.5,173.5,397.5,173.0,405.5,172.0,413.0,172.0" stroke="black" stroke-width="2" fill="none" />
<polyline points="411.5,165.5,403.0,173.5" stroke="black" stroke-width="2" fill="none" />
<polyline points="401.0,173.0,398.5,175.0,389.0,173.0,380.0,172.5,372.5,172.5,364.5,172.5" stroke="black" stroke-width="2" fill="none" />
<polyline points="364.5,170.5,372.5,163.0,380.5,155.0,388.5,147.0" stroke="black" stroke-width="2" fill="none" />
<polyline points="381.0,149.5,372.5,157.0,364.5,164.5,356.0,171.5" stroke="black" stroke-width="2" fill="none" />
<polyline points="356.0,169.5,364.0,169.0,371.5,169.0,379.0,168.5,386.5,168.5,394.0,168.5,402.0,168.0,410.0,167.0" stroke="black" stroke-width="2" fill="none" />
<polyline points="410.5,163.5,402.0,163.5,393.5,164.0,386.0,164.0,378.0,164.5,370.0,164.5,362.0,164.5,354.0,165.0" stroke="black" stroke-width="2" fill="none" />
<polyline points="354.0,161.5,362.5,153.5,370.5,146.0" stroke="black" stroke-width="2" fill="none" />
<polyline points="363.5,147.0,356.0,154.5" stroke="black" stroke-width="2" fill="none" />
<polyline points="356.5,156.0,364.5,156.0,373.0,155.5,381.5,155.0,389.5,154.0,397.5,153.5,405.5,153.0,414.0,153.0" stroke="black" stroke-width="2" fill="none" />
<polyline points="412.0,157.5,404.0,157.5,396.0,158.0,388.0,158.5,380.0,159.0,372.0,159.5,364.5,160.0,357.0,161.0" stroke="black" stroke-width="2" fill="none" />
<polyline points="356.0,152.0,364.0,151.5,371.5,151.0,379.0,150.5,387.0,150.0,395.0,150.0,403.0,149.5,411.5,149.5" stroke="black" stroke-width="2" fill="none" />
<polyline points="410.5,146.0,402.5,147.0,394.5,147.5,387.0,147.0,379.5,147.0,372.0,147.5,364.0,148.5,356.0,149.0" stroke="black" stroke-width="2" fill="none" />
<polyline points="356.0,149.5,364.5,147.5,372.5,146.5,380.5,146.5,389.0,147.0,397.0,146.5,405.0,147.5,410.0,149.0,411.5,157.0,410.5,164.5,409.0,177.5" stroke="black" stroke-width="2" fill="none" />
<polyline points="410.0,169.5,402.5,171.5,394.5,171.0,387.0,171.0,379.0,170.0,371.0,169.5,363.5,169.5" stroke="black" stroke-width="2" fill="none" />
<polyline points="356.5,183.0,364.5,183.0,371.5,182.5,379.0,181.5" stroke="black" stroke-width="2" fill="none" />
<polyline points="372.5,188.5,365.0,186.5" stroke="black" stroke-width="2" fill="none" />
<polyline points="366.0,188.0,358.5,186.0" stroke="black" stroke-width="2" fill="none" />
<polyline points="355.0,196.0,363.5,196.0,371.5,196.0,379.5,196.0,387.5,196.0" stroke="black" stroke-width="2" fill="none" />
<polyline points="397.5,182.5,389.5,181.0,381.5,181.5,373.5,182.0,365.5,181.0,357.5,179.5,348.5,188.5,340.0,201.5" stroke="black" stroke-width="2" fill="none" />
<polyline points="340.0,197.0,348.0,196.5" stroke="black" stroke-width="2" fill="none" />
<polyline points="346.0,202.0,343.0,210.0,343.0,217.5,342.0,225.5,343.0,233.5,343.0,241.5,342.0,250.0,343.0,258.0,343.0,266.0,343.5,274.0,344.0,282.0,349.0,285.0,357.0,285.5,365.5,286.5,373.5,283.5,372.5,285.5,380.5,286.5,388.5,286.0,397.0,287.5,405.0,287.5" stroke="black" stroke-width="2" fill="none" />
<polyline points="388.5,251.5,388.0,259.0,386.0,261.0,396.0,253.5,398.0,245.5,397.0,237.5,392.5,229.5,380.5,221.0" stroke="black" stroke-width="2" fill="none" />
<polyline points="363.0,207.5,355.0,208.5" stroke="black" stroke-width="2" fill="none" />
<polyline points="357.5,203.5,365.0,203.5" stroke="black" stroke-width="2" fill="none" />
<polyline points="356.0,189.0,348.0,189.5" stroke="black" stroke-width="2" fill="none" />
<polyline points="390.5,180.0,394.5,177.0" stroke="black" stroke-width="2" fill="none" />
<polyline points="360.5,147.5,356.5,155.5,356.5,163.0,361.0,171.0,358.0,179.0,351.0,187.0,343.0,195.0,340.5,203.0,339.5,211.5,340.5,219.5,340.0,227.5,340.5,236.0,340.5,244.0,340.0,252.0,339.0,260.0" stroke="black" stroke-width="2" fill="none" />
<polyline points="308.5,236.0,300.5,237.0" stroke="black" stroke-width="2" fill="none" />
<polyline points="291.0,236.0,282.5,236.0" stroke="black" stroke-width="2" fill="none" />
<polyline points="283.5,238.5,266.0,241.5" stroke="black" stroke-width="2" fill="none" />
<polyline points="267.0,243.5,259.0,251.0" stroke="black" stroke-width="2" fill="none" />
<polyline points="259.5,247.0,251.5,248.0,243.5,248.5,235.5,249.5,227.5,250.0,219.5,251.0" stroke="black" stroke-width="2" fill="none" />
<polyline points="219.0,251.5,226.5,244.5" stroke="black" stroke-width="2" fill="none" />
<polyline points="226.0,248.5,234.0,241.0,241.5,233.5,249.0,225.5,257.0,217.5,264.5,210.0" stroke="black" stroke-width="2" fill="none" />
<polyline points="263.0,209.5,269.0,199.5,277.0,192.0" stroke="black" stroke-width="2" fill="none" />
<polyline points="277.5,194.0,270.0,201.0,261.5,208.5,253.0,216.5,244.5,224.5,235.5,232.5" stroke="black" stroke-width="2" fill="none" />
<polyline points="229.0,236.0,236.0,235.5,244.0,235.5,252.0,235.0,260.0,235.0,268.0,234.5" stroke="black" stroke-width="2" fill="none" />
<polyline points="267.0,229.0,259.5,229.5,251.5,230.5,243.5,231.0,235.5,232.0,227.5,232.5,219.0,233.0,211.0,234.0,203.0,234.5" stroke="black" stroke-width="2" fill="none" />
<polyline points="212.5,233.0,220.0,225.0,228.0,217.0,236.0,209.0,243.0,201.0,251.0,193.5,259.0,185.5,267.5,178.0,275.5,170.5" stroke="black" stroke-width="2" fill="none" />
<polyline points="268.0,167.0,276.0,166.5,284.5,166.0" stroke="black" stroke-width="2" fill="none" />
<polyline points="284.0,156.0,276.5,157.0" stroke="black" stroke-width="2" fill="none" />
<polyline points="277.5,150.0,281.5,156.5,275.0,165.0,267.5,173.0,262.0,181.0" stroke="black" stroke-width="2" fill="none" />
<polyline points="258.5,178.5,267.0,171.0" stroke="black" stroke-width="2" fill="none" />
<polyline points="268.5,179.5,276.0,179.0" stroke="black" stroke-width="2" fill="none" />
<polyline points="275.5,179.0,268.0,186.5,259.5,193.5,251.5,201.5,243.5,209.0,235.0,216.5,227.0,224.0,219.5,232.0" stroke="black" stroke-width="2" fill="none" />
<polyline points="225.0,237.0,228.0,245.5,222.0,255.5,226.0,260.5,226.0,269.0,230.5,280.0,235.0,271.0" stroke="black" stroke-width="2" fill="none" />
<polyline points="236.0,270.0,237.0,278.0" stroke="black" stroke-width="2" fill="none" />
<polyline points="235.5,275.5,227.5,282.5" stroke="black" stroke-width="2" fill="none" />
<polyline points="235.5,284.5,228.0,291.5" stroke="black" stroke-width="2" fill="none" />
<polyline points="221.5,291.0,213.5,298.5,205.5,306.0,197.0,313.5" stroke="black" stroke-width="2" fill="none" />
<polyline points="203.0,313.5,211.0,306.5,219.5,299.5" stroke="black" stroke-width="2" fill="none" />
<polyline points="227.5,299.5,219.5,307.0,211.0,314.0" stroke="black" stroke-width="2" fill="none" />
<polyline points="219.5,315.0,227.5,307.5,236.0,300.0" stroke="black" stroke-width="2" fill="none" />
<polyline points="242.0,300.5,234.0,308.0,226.5,315.0" stroke="black" stroke-width="2" fill="none" />
<polyline points="234.5,303.0,226.5,304.0,219.0,305.0,211.0,306.0,202.5,307.0" stroke="black" stroke-width="2" fill="none" />
<polyline points="190.5,307.0,182.5,314.5" stroke="black" stroke-width="2" fill="none" />
<polyline points="181.5,308.5,173.5,316.0" stroke="black" stroke-width="2" fill="none" />
<polyline points="166.5,315.0,174.5,315.0,182.5,315.0,190.5,315.0,198.0,315.0,206.5,316.0,214.5,315.5,222.5,315.5,231.0,315.5,239.0,315.5,247.0,315.5,255.0,315.5,263.0,316.5,270.5,316.5,278.5,316.5,286.5,316.5,294.0,316.5,302.0,316.5,310.0,316.0,318.5,316.0,326.5,316.0,334.5,316.5,343.0,317.0,351.0,317.0,359.0,318.0,367.0,318.0,375.5,318.0,383.5,318.5,391.5,317.5,399.0,318.5,407.0,318.5,415.0,319.5,423.0,318.5,431.5,318.5,439.5,318.5,447.5,320.0,455.5,320.0,463.0,319.0,471.0,319.0,479.0,319.0,487.0,319.0,495.0,318.5,503.0,318.5,511.0,318.0" stroke="black" stroke-width="2" fill="none" />
<polyline points="290.5,252.5,282.5,252.5" stroke="black" stroke-width="2" fill="none" />
<polyline points="284.5,243.0,276.5,243.0,268.5,243.5,260.5,244.0,252.5,244.5,245.0,245.0,237.5,245.5,229.0,246.0,221.0,247.0" stroke="black" stroke-width="2" fill="none" />
<polyline points="226.0,253.0,234.0,253.0,242.5,252.5,251.0,252.0,259.5,251.5,267.5,251.0" stroke="black" stroke-width="2" fill="none" />
<polyline points="255.0,255.0,240.0,262.0,231.5,270.0,229.5,277.5,237.5,282.0,246.0,283.0,254.5,282.0,262.5,283.0,270.0,280.5,278.0,280.0,286.0,277.0,294.0,273.0,301.5,268.5,309.5,260.0" stroke="black" stroke-width="2" fill="none" />
<polyline points="285.0,239.0,268.0,247.0,260.5,254.5" stroke="black" stroke-width="2" fill="none" />
<polyline points="256.0,243.0,264.0,243.0,267.0,232.0" stroke="black" stroke-width="2" fill="none" />
<polyline points="260.0,219.0,252.0,220.0,244.5,221.0,236.5,222.0,228.5,223.0,220.5,223.0,212.0,223.5,204.0,224.0,195.5,224.5,187.0,224.5" stroke="black" stroke-width="2" fill="none" />
<polyline points="188.0,223.5,196.0,215.5,204.0,208.0,212.0,200.0,220.5,192.5,228.0,185.0,236.0,177.0,244.0,169.5,252.0,161.5,259.5,153.5" stroke="black" stroke-width="2" fill="none" />
<polyline points="259.5,151.0,251.5,151.0,243.0,151.5,235.0,152.0" stroke="black" stroke-width="2" fill="none" />
<polyline points="236.5,145.5,245.0,138.5,252.5,130.5,260.5,123.0" stroke="black" stroke-width="2" fill="none" />
<polyline points="260.0,118.5,268.0,117.5" stroke="black" stroke-width="2" fill="none" />
<polyline points="268.0,119.5,260.5,120.5,252.5,121.0,244.5,121.5,236.5,122.5,228.0,123.0,219.5,123.5,210.5,124.5,202.5,125.0,195.0,125.5,187.0,126.0" stroke="black" stroke-width="2" fill="none" />
<polyline points="185.5,123.5,193.5,122.5" stroke="black" stroke-width="2" fill="none" />
<polyline points="196.0,122.0,204.5,114.0,212.0,107.0" stroke="black" stroke-width="2" fill="none" />
<polyline points="209.5,114.0,218.0,113.5,225.5,112.5,233.5,112.0" stroke="black" stroke-width="2" fill="none" />
<polyline points="237.0,110.0,228.5,117.5,220.5,124.5,212.5,131.5,205.0,138.0,197.0,145.0,189.0,152.0" stroke="black" stroke-width="2" fill="none" />
<polyline points="189.0,151.0,197.0,151.0,204.5,151.0,212.5,151.0" stroke="black" stroke-width="2" fill="none" />
<polyline points="211.0,138.5,218.5,138.0" stroke="black" stroke-width="2" fill="none" />
<polyline points="217.5,131.0,209.5,131.5" stroke="black" stroke-width="2" fill="none" />
<polyline points="202.5,130.0,194.5,137.5,186.5,145.0" stroke="black" stroke-width="2" fill="none" />
<polyline points="186.5,144.5,194.5,144.0,203.0,143.5,211.0,143.0,219.5,142.5,228.0,142.0,236.0,141.5,244.0,141.0" stroke="black" stroke-width="2" fill="none" />
<polyline points="240.0,143.0,248.0,131.0,256.0,120.0,264.0,115.5,271.5,106.5,279.5,97.0,277.0,100.5,270.5,108.5,261.5,117.0,260.5,122.5,260.5,132.5,252.5,140.5,246.5,141.5,252.0,149.5,251.0,150.0,259.0,141.5,266.5,131.0,274.0,127.0,280.0,118.5,278.0,119.5,279.0,124.5,272.0,132.5,268.0,140.5,260.0,148.5,257.0,156.5" stroke="black" stroke-width="2" fill="none" />
<polyline points="255.5,153.5,263.5,144.5,271.5,131.0" stroke="black" stroke-width="2" fill="none" />
<polyline points="273.5,130.5,265.5,138.5,257.5,146.0,250.0,153.5,242.5,161.0,235.0,169.0,227.5,176.0" stroke="black" stroke-width="2" fill="none" />
<polyline points="223.0,181.5,230.5,190.5,234.5,191.0,230.0,197.0,233.5,205.0,236.5,204.5" stroke="black" stroke-width="2" fill="none" />
<polyline points="233.5,208.0,241.5,207.5,249.5,207.0,258.0,207.0,266.5,207.0" stroke="black" stroke-width="2" fill="none" />
<polyline points="269.5,213.0,261.0,213.0,252.0,213.5,243.0,214.0,234.5,214.0,226.5,215.0,218.5,215.5,210.0,216.0,202.0,217.0,194.0,217.5" stroke="black" stroke-width="2" fill="none" />
<polyline points="195.5,225.0,204.5,217.5,213.0,210.0,221.5,202.5,229.5,194.5,237.5,187.0,246.0,179.0,253.5,171.5" stroke="black" stroke-width="2" fill="none" />
<polyline points="252.5,185.5,244.5,193.0,236.0,201.0,228.0,208.5,220.5,216.0,212.0,224.5,204.0,231.5" stroke="black" stroke-width="2" fill="none" />
<polyline points="195.5,228.0,187.5,226.0" stroke="black" stroke-width="2" fill="none" />
<polyline points="188.0,226.0,195.5,224.5" stroke="black" stroke-width="2" fill="none" />
<polyline points="196.0,210.0,203.5,202.5,211.0,194.5,218.0,187.0" stroke="black" stroke-width="2" fill="none" />
<polyline points="218.5,188.0,216.5,196.0,221.5,191.0,231.0,198.5" stroke="black" stroke-width="2" fill="none" />
<polyline points="234.5,192.5,242.5,191.5,250.5,191.0,258.5,190.5,266.5,190.5" stroke="black" stroke-width="2" fill="none" />
<polyline points="258.5,186.0,266.5,185.5,274.5,185.0,283.0,184.5" stroke="black" stroke-width="2" fill="none" />
<polyline points="282.5,179.5,274.5,186.5,266.5,194.5,258.5,202.0,251.0,210.0,243.0,218.0,235.5,226.0,228.0,233.0" stroke="black" stroke-width="2" fill="none" />
<polyline points="212.5,251.5,204.0,258.5" stroke="black" stroke-width="2" fill="none" />
<polyline points="211.0,257.5,203.0,265.5,195.5,273.0,188.0,280.5,180.0,287.5" stroke="black" stroke-width="2" fill="none" />
<polyline points="184.0,280.0,192.5,280.0" stroke="black" stroke-width="2" fill="none" />
<polyline points="196.5,288.5,204.5,281.0,212.5,274.0,220.5,266.5" stroke="black" stroke-width="2" fill="none" />
<polyline points="223.0,268.0,213.0,268.0" stroke="black" stroke-width="2" fill="none" />
<polyline points="212.0,256.0,204.5,256.5,196.5,257.0" stroke="black" stroke-width="2" fill="none" />
<polyline points="195.5,256.5,204.0,249.5" stroke="black" stroke-width="2" fill="none" />
<polyline points="195.0,251.5,203.0,251.0,211.5,250.5,220.0,250.5" stroke="black" stroke-width="2" fill="none" />
<polyline points="188.0,252.0,180.0,259.5" stroke="black" stroke-width="2" fill="none" />
<polyline points="178.5,253.5,170.5,261.0" stroke="black" stroke-width="2" fill="none" />
<polyline points="171.5,269.5,163.5,276.5" stroke="black" stroke-width="2" fill="none" />
<polyline points="166.0,279.5,174.0,279.0,181.0,278.5,189.0,278.5,196.5,278.5,203.5,278.0,211.5,278.0,219.0,278.0,226.5,278.0,234.0,277.5" stroke="black" stroke-width="2" fill="none" />
<polyline points="212.0,290.0,204.5,298.0,196.5,305.5,188.5,313.0" stroke="black" stroke-width="2" fill="none" />
<polyline points="170.5,308.0,162.5,315.5" stroke="black" stroke-width="2" fill="none" />
<polyline points="163.5,309.0,155.5,316.5" stroke="black" stroke-width="2" fill="none" />
<polyline points="154.5,308.0,146.5,315.5" stroke="black" stroke-width="2" fill="none" />
<polyline points="139.0,315.5,147.0,307.5" stroke="black" stroke-width="2" fill="none" />
<polyline points="147.5,299.5,139.5,307.0,131.5,314.5" stroke="black" stroke-width="2" fill="none" />
<polyline points="130.5,308.5,122.5,316.5" stroke="black" stroke-width="2" fill="none" />
<polyline points="121.5,310.5,129.5,311.5" stroke="black" stroke-width="2" fill="none" />
<polyline points="123.0,307.5,115.0,315.0" stroke="black" stroke-width="2" fill="none" />
<polyline points="115.0,315.0,123.0,314.5,131.5,313.5,140.0,313.0,148.0,312.5,156.5,312.5,164.5,311.5,172.0,310.5,179.5,309.5,187.5,309.0,195.0,308.5,203.0,308.0,211.0,308.0,219.5,307.5,227.5,307.5,235.5,307.0,243.5,306.5,251.0,306.0,259.0,306.0,266.5,305.0,275.0,304.5,283.0,304.0,291.0,303.0,299.5,302.5,307.5,302.0,315.5,301.0,323.5,300.5,331.5,299.5,339.0,299.0,347.0,298.5,355.0,298.0,362.5,297.5,370.5,296.5,379.0,295.5,388.0,295.0,396.0,294.0,404.5,294.0,413.0,294.0,421.5,293.5,429.5,293.0,437.5,293.0,445.5,292.5,453.5,292.5,461.0,292.0,468.0,291.5,475.5,291.0,483.5,290.5,491.5,290.0,499.5,289.5,507.5,289.0,515.5,288.5" stroke="black" stroke-width="2" fill="none" />
<polyline points="291.0,221.5,283.0,222.0" stroke="black" stroke-width="2" fill="none" />
<polyline points="267.0,217.0,258.5,218.0,250.5,218.0,242.5,218.5,234.5,219.0,226.0,219.0,218.0,219.0,210.5,219.5,203.0,219.5,195.0,220.0,186.5,220.5,178.5,221.0" stroke="black" stroke-width="2" fill="none" />
<polyline points="170.0,218.5,162.0,219.0,153.5,219.5,145.0,220.0" stroke="black" stroke-width="2" fill="none" />
<polyline points="152.5,215.0,161.0,214.5,170.0,214.0,178.5,213.5,187.0,213.0,195.5,212.0,204.5,211.0,213.0,210.5,221.5,209.5,229.5,209.0,237.5,208.5,245.0,207.5,252.5,206.5,260.0,206.0,267.5,205.5,274.5,204.5" stroke="black" stroke-width="2" fill="none" />
<polyline points="275.0,201.0,266.5,201.0,259.0,201.0,250.5,201.5,242.0,202.5,234.0,203.0,226.5,203.5,218.5,203.5,210.5,203.5,203.0,203.5,195.0,203.5,187.5,203.5,180.0,204.0" stroke="black" stroke-width="2" fill="none" />
<polyline points="182.0,207.0,189.5,209.5,203.5,213.0,211.0,213.0,212.0,209.5" stroke="black" stroke-width="2" fill="none" />
<polyline points="226.0,201.0,218.0,200.5,209.5,201.0,201.5,202.0,193.5,202.5" stroke="black" stroke-width="2" fill="none" />
<polyline points="194.0,194.0,202.0,186.5" stroke="black" stroke-width="2" fill="none" />
<polyline points="196.5,188.0,188.5,195.5" stroke="black" stroke-width="2" fill="none" />
<polyline points="186.5,197.5,194.0,197.0,202.5,196.5,210.0,196.0,218.0,195.0,226.5,194.5,234.5,194.0,243.0,193.0,251.0,193.0,259.0,192.5,267.0,191.5,275.5,191.5" stroke="black" stroke-width="2" fill="none" />
<polyline points="276.0,199.0,267.5,200.0,259.5,200.5,252.0,201.0,244.0,201.5" stroke="black" stroke-width="2" fill="none" />
<polyline points="247.5,203.0,245.0,211.5,248.0,203.5" stroke="black" stroke-width="2" fill="none" />
<polyline points="251.0,204.5,247.5,213.0" stroke="black" stroke-width="2" fill="none" />
<polyline points="260.0,216.0,268.5,213.0" stroke="black" stroke-width="2" fill="none" />
<polyline points="276.0,200.0,270.0,208.5,260.0,216.5,266.0,211.0,273.5,206.0,274.0,200.5,278.0,196.5" stroke="black" stroke-width="2" fill="none" />
<polyline points="250.0,161.5,242.0,162.0" stroke="black" stroke-width="2" fill="none" />
<polyline points="236.0,163.5,228.0,170.5,219.5,177.5,211.0,184.5,202.5,192.0,194.0,199.5,186.0,207.0" stroke="black" stroke-width="2" fill="none" />
<polyline points="185.5,209.0,193.5,209.0,202.0,208.0,210.0,207.5,219.0,206.5,227.5,206.0" stroke="black" stroke-width="2" fill="none" />
<polyline points="217.5,192.0,209.5,193.0,201.5,193.5,193.5,194.0,185.5,194.5" stroke="black" stroke-width="2" fill="none" />
<polyline points="180.5,196.0,188.0,188.5" stroke="black" stroke-width="2" fill="none" />
<polyline points="179.0,189.5,187.0,189.0,195.0,189.0,203.5,188.5,211.5,188.5,219.5,188.0,227.5,187.5,235.0,187.0,243.0,187.0,250.5,186.0,259.0,185.5,267.0,185.0,275.0,184.0" stroke="black" stroke-width="2" fill="none" />
<polyline points="267.5,146.5,259.0,147.0" stroke="black" stroke-width="2" fill="none" />
<polyline points="253.0,147.5,244.5,155.5" stroke="black" stroke-width="2" fill="none" />
<polyline points="254.0,141.5,246.0,149.0,237.5,156.0,229.0,163.0,221.0,169.5,212.5,176.5" stroke="black" stroke-width="2" fill="none" />
<polyline points="220.0,180.5,221.0,179.5,225.0,187.5,226.5,192.5,227.5,200.5,228.5,208.5,233.0,207.5,237.0,204.5" stroke="black" stroke-width="2" fill="none" />
<polyline points="234.5,184.5,242.5,184.0,251.0,183.5" stroke="black" stroke-width="2" fill="none" />
<polyline points="249.5,168.5,241.5,169.0,233.5,170.0,225.5,170.0,217.5,170.0,209.5,170.5,201.5,171.0,193.5,172.0" stroke="black" stroke-width="2" fill="none" />
<polyline points="195.0,177.5,202.5,170.0,210.5,162.0,218.5,155.0,226.5,148.0,234.5,141.0,242.0,134.0" stroke="black" stroke-width="2" fill="none" />
<polyline points="237.5,137.0,245.5,136.5,253.5,136.5" stroke="black" stroke-width="2" fill="none" />
<polyline points="259.5,132.0,267.5,124.5" stroke="black" stroke-width="2" fill="none" />
<polyline points="268.5,131.0,260.0,131.5" stroke="black" stroke-width="2" fill="none" />
<polyline points="269.5,139.0,277.0,138.5" stroke="black" stroke-width="2" fill="none" />
<polyline points="277.5,136.0,269.5,136.5,261.5,136.5,253.5,137.5,245.0,138.0,237.0,138.5,229.0,139.0,221.0,139.5,212.5,139.5,204.0,140.5,196.0,140.5,188.0,140.5,180.0,141.5" stroke="black" stroke-width="2" fill="none" />
<polyline points="181.5,140.5,189.5,133.0" stroke="black" stroke-width="2" fill="none" />
<polyline points="186.0,137.0,193.5,129.0" stroke="black" stroke-width="2" fill="none" />
<polyline points="188.0,123.0,196.0,115.5,204.0,108.0" stroke="black" stroke-width="2" fill="none" />
<polyline points="195.5,107.0,187.5,114.5,179.5,121.5" stroke="black" stroke-width="2" fill="none" />
<polyline points="181.5,116.0,189.0,115.5,197.0,115.0,205.0,114.5,213.0,114.0,221.0,113.0,228.5,113.0,236.0,112.5" stroke="black" stroke-width="2" fill="none" />
<polyline points="236.5,116.0,228.5,124.0,220.5,131.0,212.5,138.5,204.5,146.0,196.5,154.0,188.0,161.0,179.5,168.0" stroke="black" stroke-width="2" fill="none" />
<polyline points="179.5,165.5,183.5,174.0,191.0,181.5,198.0,189.5" stroke="black" stroke-width="2" fill="none" />
<polyline points="211.5,185.0,219.5,185.0" stroke="black" stroke-width="2" fill="none" />
<polyline points="225.5,183.0,233.5,185.0" stroke="black" stroke-width="2" fill="none" />
<polyline points="226.0,187.0,233.5,195.0" stroke="black" stroke-width="2" fill="none" />
<polyline points="252.0,161.5,244.0,162.0,235.5,163.0,227.0,163.0,219.0,163.5,211.0,164.5,202.5,164.5,194.5,164.5,186.5,165.0,178.5,165.5,170.5,166.0" stroke="black" stroke-width="2" fill="none" />
<polyline points="170.0,171.5,178.0,170.5,186.0,177.0,194.0,178.5,199.0,174.5,195.0,183.0,200.0,177.0,207.0,187.5,210.5,185.5" stroke="black" stroke-width="2" fill="none" />
<polyline points="206.5,182.0,209.5,180.0,208.0,176.0,200.0,173.5" stroke="black" stroke-width="2" fill="none" />
<polyline points="195.0,177.5,187.0,178.0" stroke="black" stroke-width="2" fill="none" />
<polyline points="186.0,175.5,194.0,167.5,202.0,160.0,210.0,153.0,218.5,146.0,227.5,138.0,235.0,130.5" stroke="black" stroke-width="2" fill="none" />
<polyline points="239.0,125.5,237.0,129.5,228.5,130.5" stroke="black" stroke-width="2" fill="none" />
<polyline points="226.5,130.0,234.5,122.5" stroke="black" stroke-width="2" fill="none" />
<polyline points="227.5,120.5,219.5,121.5,211.5,122.5,203.5,123.0" stroke="black" stroke-width="2" fill="none" />
<polyline points="204.5,122.0,213.0,114.5,221.5,106.5" stroke="black" stroke-width="2" fill="none" />
<polyline points="228.0,103.5,236.0,103.5" stroke="black" stroke-width="2" fill="none" />
<polyline points="235.5,104.5,227.5,105.0,219.0,105.5,210.5,106.0,202.5,107.0,194.5,107.5,186.5,108.0,179.0,109.0,171.5,109.5" stroke="black" stroke-width="2" fill="none" />
<polyline points="178.5,113.5,186.0,106.0" stroke="black" stroke-width="2" fill="none" />
<polyline points="180.0,101.5,188.0,101.0,196.0,100.0,204.0,99.0,212.5,98.0,220.5,97.0,228.0,96.0,236.0,96.0" stroke="black" stroke-width="2" fill="none" />
<polyline points="240.5,98.0,240.5,100.0,242.5,108.0,244.0,116.0" stroke="black" stroke-width="2" fill="none" />
<polyline points="244.5,99.0,252.0,92.0" stroke="black" stroke-width="2" fill="none" />
<polyline points="250.5,96.5,243.0,97.0" stroke="black" stroke-width="2" fill="none" />
<polyline points="241.5,99.0,243.5,107.0,245.5,115.0" stroke="black" stroke-width="2" fill="none" />
<polyline points="242.5,91.5,251.0,91.0" stroke="black" stroke-width="2" fill="none" />
<polyline points="238.5,82.5,230.0,90.0" stroke="black" stroke-width="2" fill="none" />
<polyline points="227.0,88.5,235.5,88.5" stroke="black" stroke-width="2" fill="none" />
<polyline points="229.0,83.5,236.5,76.0" stroke="black" stroke-width="2" fill="none" />
<polyline points="235.0,80.0,227.0,80.0" stroke="black" stroke-width="2" fill="none" />
<polyline points="228.0,79.0,236.5,85.0,243.5,91.0,250.5,99.0,254.0,107.0,253.0,115.0,251.5,117.5" stroke="black" stroke-width="2" fill="none" />
<polyline points="249.5,101.0,240.5,86.0,232.0,77.0,229.0,84.0,224.0,74.0,215.5,71.0" stroke="black" stroke-width="2" fill="none" />
<polyline points="214.0,70.0,222.0,72.0,230.0,81.5,234.0,81.5,240.0,90.5,245.0,98.0,250.5,106.0,252.0,114.0,254.0,120.0,251.0,127.5,248.5,128.5,246.0,135.5,241.0,144.0,245.0,148.0,250.5,151.0,252.5,156.5,250.0,164.5,250.0,169.0,253.0,177.0,250.0,184.5,249.0,185.5,259.0,172.5,267.0,166.0,275.0,160.0,278.0,162.5,279.0,157.5,268.0,165.5,266.0,170.5,261.0,178.5,256.0,186.5,261.0,182.0,265.0,177.0,273.0,168.0,281.5,164.0,273.5,173.5,271.0,181.5,275.0,187.0,270.0,195.0,262.0,203.0,263.5,199.5,271.0,193.5,273.0,187.5,273.5,180.5" stroke="black" stroke-width="2" fill="none" />
<polyline points="277.0,167.5,268.5,168.0,260.5,169.0,252.0,170.0,243.5,170.5,235.0,171.0,226.5,171.5,218.0,172.0,210.0,173.0,202.5,174.0,194.5,174.5,186.5,175.0" stroke="black" stroke-width="2" fill="none" />
<polyline points="188.0,170.0,179.5,170.5" stroke="black" stroke-width="2" fill="none" />
<polyline points="179.5,164.0,171.0,171.5" stroke="black" stroke-width="2" fill="none" />
<polyline points="162.5,172.5,154.0,172.5" stroke="black" stroke-width="2" fill="none" />
<polyline points="166.5,183.5,174.0,181.0,182.0,183.0,190.0,186.5,197.5,190.5" stroke="black" stroke-width="2" fill="none" />
<polyline points="180.0,195.0,171.5,195.5,163.0,196.0" stroke="black" stroke-width="2" fill="none" />
<polyline points="164.0,188.5,171.5,187.5" stroke="black" stroke-width="2" fill="none" />
<polyline points="169.5,182.0,177.5,181.5,186.0,180.5,194.0,180.5,202.0,180.5,209.5,180.0,217.5,180.0,225.5,179.5,233.5,179.0,241.5,179.0,249.5,179.0,257.5,178.0,265.5,177.5,273.5,177.0,281.5,177.0" stroke="black" stroke-width="2" fill="none" />
<polyline points="269.0,154.0,261.0,154.0,253.0,155.0,245.0,155.0,236.5,154.5,228.5,154.5,220.5,154.5,212.5,155.0,205.0,155.0,197.0,155.0,189.5,155.0" stroke="black" stroke-width="2" fill="none" />
<polyline points="189.5,149.5,197.0,148.5,204.5,147.5,212.0,147.0,219.5,146.5,226.5,145.5,234.5,145.5,242.5,145.0,250.5,145.0,258.5,145.0,267.0,144.5" stroke="black" stroke-width="2" fill="none" />
<polyline points="277.0,135.0,272.0,142.5,269.0,151.0,264.0,159.0,258.0,167.0,257.5,175.0,255.5,183.0,252.5,191.0,263.0,175.0,277.0,169.0" stroke="black" stroke-width="2" fill="none" />
<polyline points="275.5,127.5,268.0,128.0,259.5,128.0,252.0,128.5,244.0,128.0,236.0,128.5,228.5,129.5,220.0,130.0,212.5,130.5,204.0,131.5,196.0,132.5,187.5,133.0,179.0,133.5" stroke="black" stroke-width="2" fill="none" />
<polyline points="179.0,136.5,187.0,136.5,195.0,136.5,204.0,136.5" stroke="black" stroke-width="2" fill="none" />
<polyline points="196.0,149.0,188.0,141.0" stroke="black" stroke-width="2" fill="none" />
<polyline points="179.5,149.0,171.5,149.0" stroke="black" stroke-width="2" fill="none" />
<polyline points="170.5,149.5,178.5,156.0,186.5,163.0" stroke="black" stroke-width="2" fill="none" />
<polyline points="186.5,168.5,178.0,163.5,170.0,169.0,177.0,164.0" stroke="black" stroke-width="2" fill="none" />
<polyline points="178.0,151.5,169.0,143.5,166.0,141.5" stroke="black" stroke-width="2" fill="none" />
<polyline points="166.0,139.5,174.0,146.5,182.0,151.0" stroke="black" stroke-width="2" fill="none" />
<polyline points="185.5,150.5,177.5,139.5,169.5,131.5,161.5,123.5" stroke="black" stroke-width="2" fill="none" />
<polyline points="160.0,123.0,168.0,128.0,176.0,131.5,184.5,137.5,192.5,141.5" stroke="black" stroke-width="2" fill="none" />
<polyline points="186.5,124.0,178.0,117.0,175.0,105.5,172.5,98.5,166.5,90.5,166.0,83.0,172.0,75.0,167.0,85.0" stroke="black" stroke-width="2" fill="none" />
<polyline points="167.0,83.5,175.0,75.5,182.5,76.5,185.5,79.5,184.0,87.5,183.0,95.0,182.0,103.0,185.0,115.0,189.0,122.5,194.0,125.5,197.0,133.5" stroke="black" stroke-width="2" fill="none" />
<polyline points="201.5,113.5,194.0,114.5,186.0,115.0" stroke="black" stroke-width="2" fill="none" />
<polyline points="190.0,114.0,197.5,115.5,205.5,125.5,206.5,130.5,213.5,137.5,221.5,145.5,215.5,149.5" stroke="black" stroke-width="2" fill="none" />
<polyline points="228.5,137.5,236.5,131.5,238.0,134.5,251.0,136.5,259.0,133.5,267.0,117.5,271.5,112.5,280.0,103.5" stroke="black" stroke-width="2" fill="none" />
<polyline points="284.5,97.5,278.5,105.5,269.0,115.5,264.0,124.0,264.5,128.5" stroke="black" stroke-width="2" fill="none" />
<polyline points="275.0,136.0,273.0,142.0,266.0,154.5,261.0,164.5,254.0,163.5,260.5,154.5,254.5,147.5,259.5,140.0,264.0,132.0,267.0,125.0,271.5,117.0" stroke="black" stroke-width="2" fill="none" />
<polyline points="250.5,99.5,243.0,89.5,236.5,94.5,231.5,90.5,225.0,93.5,217.0,80.0,212.5,76.0,204.5,67.0,196.5,58.5" stroke="black" stroke-width="2" fill="none" />
<polyline points="197.5,60.0,203.5,68.0,210.5,76.5,217.0,84.5,223.5,84.5,227.5,92.5,223.5,100.5,219.5,108.0" stroke="black" stroke-width="2" fill="none" />
<polyline points="213.5,93.5,205.5,93.5" stroke="black" stroke-width="2" fill="none" />
<polyline points="205.0,85.0,213.5,85.0" stroke="black" stroke-width="2" fill="none" />
<polyline points="209.0,77.5,217.0,76.5" stroke="black" stroke-width="2" fill="none" />
<polyline points="225.5,83.5,230.5,91.5,233.5,99.5,230.5,107.5,235.0,114.5,229.5,121.5,229.5,129.5,234.0,132.5,231.0,144.5,228.0,152.5,233.0,161.0,235.0,162.0,235.5,162.0,247.5,168.5,250.5,162.0" stroke="black" stroke-width="2" fill="none" />
<polyline points="237.5,163.0,233.5,158.0,231.5,150.0,232.5,141.5" stroke="black" stroke-width="2" fill="none" />
<polyline points="219.5,142.5,211.5,139.5,210.0,133.5,202.0,130.5,196.5,122.0,198.5,125.0,201.0,120.0,192.5,116.0,195.0,105.0,194.0,97.0,188.5,96.5" stroke="black" stroke-width="2" fill="none" />
<polyline points="186.5,90.0,178.0,97.5" stroke="black" stroke-width="2" fill="none" />
<polyline points="180.0,97.0,188.5,97.0" stroke="black" stroke-width="2" fill="none" />
<polyline points="188.5,91.5,181.0,92.0" stroke="black" stroke-width="2" fill="none" />
<polyline points="179.5,92.0,187.5,84.5" stroke="black" stroke-width="2" fill="none" />
<polyline points="189.0,87.5,180.5,88.0" stroke="black" stroke-width="2" fill="none" />
<polyline points="178.5,86.5,187.0,86.0,194.5,85.5" stroke="black" stroke-width="2" fill="none" />
<polyline points="188.5,81.0,192.5,70.0,200.5,77.5,208.5,91.0,216.5,97.0" stroke="black" stroke-width="2" fill="none" />
<polyline points="226.5,84.5,234.5,84.0" stroke="black" stroke-width="2" fill="none" />
<polyline points="237.0,76.5,228.5,77.0" stroke="black" stroke-width="2" fill="none" />
<polyline points="206.0,61.5,197.5,69.0" stroke="black" stroke-width="2" fill="none" />
<polyline points="196.0,66.5,204.5,66.5" stroke="black" stroke-width="2" fill="none" />
<polyline points="204.0,61.0,196.0,61.5,188.0,62.0" stroke="black" stroke-width="2" fill="none" />
<polyline points="188.5,57.5,195.5,60.5,199.5,69.0,207.0,77.0,212.0,85.0,220.0,88.0,222.0,96.0,219.0,100.5,211.5,105.5,219.5,103.5" stroke="black" stroke-width="2" fill="none" />
<polyline points="205.5,95.0,198.0,99.0" stroke="black" stroke-width="2" fill="none" />
<polyline points="205.0,102.5,207.5,98.5,209.5,92.0,202.5,88.0,202.5,79.5,195.0,75.0,192.0,67.0,190.5,59.5,194.5,57.5,186.5,51.0" stroke="black" stroke-width="2" fill="none" />
<polyline points="197.0,63.0,205.0,74.0,212.5,80.0,219.5,90.5" stroke="black" stroke-width="2" fill="none" />
<polyline points="194.5,71.5,186.5,72.0" stroke="black" stroke-width="2" fill="none" />
<polyline points="188.5,76.5,181.0,84.0" stroke="black" stroke-width="2" fill="none" />
<polyline points="187.5,81.0,180.0,82.5,172.0,83.0" stroke="black" stroke-width="2" fill="none" />
<polyline points="169.5,81.0,177.5,73.5" stroke="black" stroke-width="2" fill="none" />
<polyline points="173.0,78.5,181.0,77.5,189.0,76.5" stroke="black" stroke-width="2" fill="none" />
<polyline points="171.0,90.0,173.0,89.0,175.5,96.5,177.5,96.0" stroke="black" stroke-width="2" fill="none" />
<polyline points="171.5,99.5,163.5,107.5" stroke="black" stroke-width="2" fill="none" />
<polyline points="163.5,104.0,171.5,103.5" stroke="black" stroke-width="2" fill="none" />
<polyline points="172.0,98.5,164.0,99.0" stroke="black" stroke-width="2" fill="none" />
<polyline points="162.5,100.5,170.5,103.5,178.5,106.5,186.0,114.5" stroke="black" stroke-width="2" fill="none" />
<polyline points="195.0,113.0,204.0,123.0,202.0,130.5,211.0,138.5,213.0,146.5,214.0,154.0,219.0,151.0,224.0,149.0,235.0,157.5,243.0,160.0" stroke="black" stroke-width="2" fill="none" />
<polyline points="223.0,149.0,221.5,135.0,221.5,127.0" stroke="black" stroke-width="2" fill="none" />
<polyline points="193.0,144.5,184.5,137.0,172.0,129.5" stroke="black" stroke-width="2" fill="none" />
<polyline points="166.0,138.5,167.5,146.5,176.0,154.5,186.0,162.5,189.0,174.0,193.5,183.0" stroke="black" stroke-width="2" fill="none" />
<polyline points="187.0,197.0,179.0,194.5" stroke="black" stroke-width="2" fill="none" />
<polyline points="185.5,201.0,177.5,205.0,175.5,207.0,175.5,212.0" stroke="black" stroke-width="2" fill="none" />
<polyline points="180.0,211.0,188.0,214.0,196.0,218.0" stroke="black" stroke-width="2" fill="none" />
<polyline points="172.5,251.5,164.5,259.0,156.0,266.5,148.0,274.0" stroke="black" stroke-width="2" fill="none" />
<polyline points="140.0,278.5,131.5,279.0,123.0,279.5,115.0,280.0,107.0,280.5,99.0,281.0" stroke="black" stroke-width="2" fill="none" />
<polyline points="102.5,280.0,94.0,279.5" stroke="black" stroke-width="2" fill="none" />
<polyline points="93.0,278.5,101.0,278.0,109.0,277.5,117.0,276.5,125.0,276.0,132.5,275.0,141.0,274.5,149.0,273.5,157.0,272.5,165.0,271.5,172.5,271.0,181.0,270.5,188.5,270.0,196.5,270.0,204.5,270.0,212.5,270.0,220.0,269.5,227.0,269.0,234.5,268.5" stroke="black" stroke-width="2" fill="none" />
<polyline points="248.5,300.5,256.5,301.5,265.0,301.5" stroke="black" stroke-width="2" fill="none" />
<polyline points="203.5,286.5,195.5,287.0,187.0,288.0,179.0,288.5,171.0,289.0,163.0,289.5,154.5,289.5" stroke="black" stroke-width="2" fill="none" />
<polyline points="164.0,289.0,173.0,281.5,181.0,274.0" stroke="black" stroke-width="2" fill="none" />
<polyline points="182.0,275.0,190.5,275.0" stroke="black" stroke-width="2" fill="none" />
<polyline points="181.0,271.5,193.5,275.0,190.0,278.5,194.0,285.5,198.5,290.0" stroke="black" stroke-width="2" fill="none" />
<polyline points="224.5,296.0,216.0,298.0,208.5,296.0,200.0,296.0,192.0,299.5,184.0,298.5,176.0,299.5,173.0,301.5" stroke="black" stroke-width="2" fill="none" />
<polyline points="165.5,291.5,169.0,289.5" stroke="black" stroke-width="2" fill="none" />
<polyline points="155.0,291.0,163.5,283.5,171.5,276.0,179.5,268.5" stroke="black" stroke-width="2" fill="none" />
<polyline points="164.0,270.0,155.5,277.5,148.0,284.5,140.0,292.0" stroke="black" stroke-width="2" fill="none" />
<polyline points="141.0,284.0,149.0,284.0,154.0,279.0,140.0,283.0,142.0,291.0,146.0,290.0,149.0,296.0,157.0,296.0,165.0,296.0,173.0,295.0,180.5,295.5,189.0,296.0,197.0,293.0,205.5,291.0,214.0,289.0,222.5,289.0,227.5,293.0,236.0,294.5,244.0,296.5,251.5,296.5,259.5,295.5,267.5,296.5,275.5,296.0,283.5,293.5,287.0,299.5,295.0,299.5,308.0,299.0,316.0,296.0,324.0,295.0,332.5,294.5,340.5,295.5,348.5,295.5,356.5,298.5,366.0,297.5,379.0,305.0,386.5,306.5,394.5,305.5,402.5,304.0,409.5,304.0,418.5,302.0,418.5,305.0,426.0,304.0,434.5,304.0,438.5,300.5,450.0,302.5,458.0,307.0,466.5,307.5,474.5,305.0,483.0,304.5,491.5,307.5,500.0,307.5,508.0,309.0" stroke="black" stroke-width="2" fill="none" />
<polyline points="163.0,253.0,155.5,260.0,147.5,267.0,139.0,274.0,130.5,281.0,122.5,288.0" stroke="black" stroke-width="2" fill="none" />
<polyline points="117.0,292.0,114.0,296.0,111.5,304.0,114.0,312.0,119.0,315.0,126.5,314.0,134.5,314.5,142.5,314.0,147.5,314.0,156.0,311.0,157.0,314.5,164.0,311.0,167.0,311.5,175.0,311.5,183.0,311.5,190.0,304.0,198.5,299.0,202.5,297.5,207.5,298.5,202.5,300.0,200.0,308.0,206.0,300.0" stroke="black" stroke-width="2" fill="none" />
<polyline points="146.0,306.0,138.0,307.0" stroke="black" stroke-width="2" fill="none" />
<polyline points="133.5,298.0,125.5,306.0,120.5,308.0,118.5,304.5,123.5,296.0,131.5,293.5,139.5,293.5" stroke="black" stroke-width="2" fill="none" />
<polyline points="130.5,291.5,138.0,284.0" stroke="black" stroke-width="2" fill="none" />
<polyline points="139.5,283.0,147.5,279.5,148.5,287.5,154.5,279.5" stroke="black" stroke-width="2" fill="none" />
<polyline points="139.5,259.0,147.5,259.0,155.5,258.5,163.0,257.5,170.5,256.5,178.0,256.0,186.0,255.0" stroke="black" stroke-width="2" fill="none" />
<polyline points="154.5,253.0,146.5,260.5,138.5,268.0,130.5,275.0,123.0,282.5,114.5,290.0" stroke="black" stroke-width="2" fill="none" />
<polyline points="107.5,288.5,115.5,281.0,123.5,273.5,131.5,266.5,139.0,259.0,146.5,251.0" stroke="black" stroke-width="2" fill="none" />
<polyline points="138.0,255.0,146.5,254.5,155.0,253.5,163.0,253.0,171.0,252.5,179.0,252.0,186.5,252.0" stroke="black" stroke-width="2" fill="none" />
<polyline points="133.5,250.0,125.5,257.0,117.0,264.5,108.5,272.0,100.0,279.5,91.0,287.0" stroke="black" stroke-width="2" fill="none" />
<polyline points="84.0,290.0,92.0,289.5,99.5,289.5,107.5,289.0,115.0,288.5,122.0,288.0,130.5,287.5,138.5,286.5,146.5,286.0" stroke="black" stroke-width="2" fill="none" />
<polyline points="124.0,303.5,132.0,302.5,139.5,301.5,147.5,301.0,155.5,300.5,163.5,300.0,171.5,298.5,179.0,297.5,187.0,296.0,195.5,295.5,204.0,295.0,211.5,294.5,219.0,294.5,227.0,294.5,234.5,294.5,242.5,294.5,250.5,294.5,258.0,294.0,266.0,293.5,274.5,292.5,283.0,292.0,290.5,292.0,299.0,292.0,307.0,291.5,315.0,291.5,323.5,290.5,331.5,290.0,339.5,289.0,347.0,288.5,354.5,287.5,362.0,287.0,370.0,286.5,378.5,285.5,387.0,285.0,395.0,284.5,403.0,284.0,411.5,283.0,420.0,282.0,428.5,281.0,437.0,280.0,445.5,279.0,453.5,279.0,461.5,278.5,469.0,278.5,477.0,278.0,485.0,278.5,492.0,278.5,499.5,278.0,506.5,278.0,514.5,278.0" stroke="black" stroke-width="2" fill="none" />
<polyline points="516.0,283.0,508.0,284.0,500.0,284.0,492.0,285.0,484.0,285.5,476.5,287.0,469.0,288.0,461.0,288.5,452.5,288.5,444.5,288.5,436.0,289.0,428.0,290.0,420.0,290.5,412.5,290.0,404.5,290.5,397.5,291.0,389.5,291.0,381.0,291.0,372.5,291.0,363.5,291.5,355.0,292.0,346.5,292.5,338.5,293.0,331.0,293.5,323.5,294.5,316.0,296.0,308.0,296.5,300.0,297.5,291.5,298.5,283.5,299.5,275.5,300.5,267.5,301.0,259.0,301.5,251.0,302.0,243.0,303.0,235.0,303.0,227.0,303.5,219.5,304.0,211.5,304.5,204.0,305.0,196.0,305.0,187.5,305.5,180.0,306.0,172.0,306.0,164.5,306.0,157.0,306.5,149.0,307.0,141.0,307.5,132.5,308.0,124.0,308.5,116.0,309.5,108.0,310.0" stroke="black" stroke-width="2" fill="none" />
<polyline points="116.0,299.5,107.5,300.5,99.5,301.0,92.0,301.0" stroke="black" stroke-width="2" fill="none" />
<polyline points="89.5,305.5,102.0,312.0" stroke="black" stroke-width="2" fill="none" />
<polyline points="88.5,306.0,96.5,310.0,104.5,314.0,112.5,315.5,121.0,313.0,126.0,306.5,134.0,308.5,142.0,307.5,150.0,305.5,156.5,297.5,169.5,299.0,176.5,291.5" stroke="black" stroke-width="2" fill="none" />
<polyline points="179.0,269.0,170.5,269.5,163.0,269.5,155.0,270.0,147.0,271.0,139.5,271.5,131.5,272.5,124.0,273.0,116.5,272.5,108.5,273.0,101.5,273.0,94.0,274.0" stroke="black" stroke-width="2" fill="none" />
<polyline points="92.0,273.5,99.5,266.0,107.0,258.5,115.0,251.0,123.0,243.5" stroke="black" stroke-width="2" fill="none" />
<polyline points="115.0,242.5,107.0,250.5" stroke="black" stroke-width="2" fill="none" />
<polyline points="107.5,257.0,116.0,256.5,123.5,255.5,131.5,255.0" stroke="black" stroke-width="2" fill="none" />
<polyline points="107.0,243.0,99.0,251.0" stroke="black" stroke-width="2" fill="none" />
<polyline points="98.5,249.0,106.5,249.0,115.5,248.5,124.0,248.5" stroke="black" stroke-width="2" fill="none" />
<polyline points="132.5,251.5,125.0,252.0,117.0,253.0,109.5,254.5,101.5,255.5" stroke="black" stroke-width="2" fill="none" />
<polyline points="98.5,260.5,90.5,268.0" stroke="black" stroke-width="2" fill="none" />
<polyline points="92.0,265.5,100.0,264.5,108.0,264.0,116.0,264.0,124.0,263.5,131.5,263.0,139.5,263.5,147.0,263.0" stroke="black" stroke-width="2" fill="none" />
<polyline points="130.0,243.0,122.5,243.5,114.5,244.0,106.5,243.5,98.5,244.0" stroke="black" stroke-width="2" fill="none" />
<polyline points="98.5,244.0,99.5,252.0,99.0,260.0,91.0,265.0,86.5,276.5,86.0,284.5,82.0,293.0,93.0,294.0,83.5,292.5,89.0,292.5,96.5,294.5,105.0,295.5,116.0,296.5,121.0,293.5,129.0,299.5,134.0,305.0,142.0,303.0" stroke="black" stroke-width="2" fill="none" />
<polyline points="151.5,302.0,143.5,300.0,135.5,302.0,127.5,303.0,119.5,300.5" stroke="black" stroke-width="2" fill="none" />
<polyline points="82.5,269.5,90.5,269.0,98.0,269.0,106.0,269.0,114.5,268.5,122.5,268.0,131.0,267.0,138.5,266.0,146.5,265.5,155.0,265.0,163.5,264.5,171.0,264.0,178.5,263.0,186.5,262.5" stroke="black" stroke-width="2" fill="none" />
<polyline points="139.0,214.0,131.0,214.5" stroke="black" stroke-width="2" fill="none" />
<polyline points="139.0,196.0,146.5,195.5,155.0,195.5" stroke="black" stroke-width="2" fill="none" />
<polyline points="165.5,188.0,173.5,186.0,181.5,190.0,195.5,192.0" stroke="black" stroke-width="2" fill="none" />
<polyline points="169.5,181.0,167.5,189.0,176.0,193.5,179.0,197.0,192.0,202.5,187.5,212.5,193.0,219.0,189.5,225.0,194.5,227.0,198.5,234.5,206.5,235.5,214.5,235.5,222.5,237.5,230.0,241.5" stroke="black" stroke-width="2" fill="none" />
<polyline points="172.0,257.5,164.0,258.0,156.5,258.0,148.0,258.0,140.0,258.5,132.0,259.0,124.0,260.0,115.0,260.0,107.0,260.0,98.5,260.0,90.0,260.5,82.0,261.0" stroke="black" stroke-width="2" fill="none" />
<polyline points="83.5,266.5,91.5,264.0,94.0,266.0,97.5,265.5,105.5,266.5,114.0,267.0,122.0,267.0,130.5,267.5,138.0,267.0,146.0,266.0,154.0,266.0,162.5,266.0,170.5,265.5,178.5,264.5,186.5,264.0,194.5,263.0,192.5,258.5,200.5,257.5,202.5,256.0,210.5,258.5,218.5,256.5,226.5,253.0,228.0,257.0" stroke="black" stroke-width="2" fill="none" />
<polyline points="192.5,234.5,184.5,233.5,176.5,233.5,168.0,234.5,160.0,233.5,152.5,234.5,144.5,236.5,136.5,236.0,128.5,237.0,121.0,236.5,113.0,239.0,105.5,241.0" stroke="black" stroke-width="2" fill="none" />
<polyline points="96.0,246.0,104.0,246.0,112.0,246.5,120.0,248.5,128.0,250.5,136.0,250.5,144.0,251.5,152.0,252.0,159.5,249.0,160.5,251.5,169.0,249.0,170.5,252.5,179.0,251.5,187.0,251.5,195.0,251.5,203.0,250.0,211.0,248.0,215.0,248.0,223.0,247.5,223.0,241.5" stroke="black" stroke-width="2" fill="none" />
<polyline points="279.5,244.5,271.0,247.5,263.0,251.5,255.0,255.5,247.0,259.5,238.5,263.5,230.5,269.5,218.5,266.5,216.5,263.5,208.5,265.0,200.0,267.0,194.5,268.0,186.0,270.0,178.0,270.5,170.0,270.5,162.0,270.5,154.0,270.5,146.0,271.5,138.0,270.5,130.0,271.5,122.0,272.0,114.0,272.0,106.5,270.5,98.5,271.0,90.5,270.5,84.5,274.5,84.5,266.5" stroke="black" stroke-width="2" fill="none" />
<polyline points="82.5,276.0,74.5,276.0,66.0,275.0,58.0,275.0" stroke="black" stroke-width="2" fill="none" />
<polyline points="185.0,151.5,181.5,144.0,173.5,135.5,164.5,127.5,161.5,119.0" stroke="black" stroke-width="2" fill="none" />
<polyline points="173.0,109.0,165.0,104.0" stroke="black" stroke-width="2" fill="none" />
<polyline points="166.5,100.5,171.0,108.0,176.0,116.5,183.5,124.5,187.5,133.0,192.0,141.0,199.0,149.0" stroke="black" stroke-width="2" fill="none" />
<polyline points="176.0,99.5,168.0,92.5" stroke="black" stroke-width="2" fill="none" />
</svg>