<svg xmlns="http://www.w3.org/2000/svg" version="1.1"><polyline points="60.5,9.0,60.0,17.0" stroke="black" stroke-width="2" fill="none" />
<polyline points="62.5,13.0,54.0,20.5,45.0,27.5,36.5,34.5,28.0,41.5,19.0,49.0,11.0,56.0" stroke="black" stroke-width="2" fill="none" />
<polyline points="3.5,56.5,11.0,48.0,19.0,40.0,27.0,33.0,35.5,25.5,43.5,18.0,51.0,10.5,59.0,3.0" stroke="black" stroke-width="2" fill="none" />
<polyline points="51.5,2.5,43.0,10.0,34.5,17.5,27.0,25.0,19.5,32.5,11.5,40.5,3.5,48.0" stroke="black" stroke-width="2" fill="none" />
<polyline points="5.0,45.0,12.5,44.5,20.0,44.0,27.5,44.0,35.0,44.0,43.0,43.5,51.0,42.5,58.5,41.5" stroke="black" stroke-width="2" fill="none" />
<polyline points="65.0,25.0,73.0,17.5" stroke="black" stroke-width="2" fill="none" />
<polyline points="70.5,16.5,71.5,24.5,60.0,34.5,54.0,42.0,53.0,42.5,61.0,31.5,63.5,28.0" stroke="black" stroke-width="2" fill="none" />
<polyline points="50.0,33.0,57.5,25.0,65.5,17.0,73.5,9.5" stroke="black" stroke-width="2" fill="none" />
<polyline points="73.5,3.5,65.5,11.0,58.5,17.5,51.0,25.0,44.0,33.0,36.0,41.0,28.5,48.0" stroke="black" stroke-width="2" fill="none" />
<polyline points="27.0,40.0,18.5,40.5" stroke="black" stroke-width="2" fill="none" />
<polyline points="4.0,40.5,12.0,33.0,20.5,25.5,28.0,18.0,36.0,10.5,44.0,3.0" stroke="black" stroke-width="2" fill="none" />
<polyline points="35.5,1.0,27.5,8.5,19.5,16.5,12.0,24.5,4.0,32.5" stroke="black" stroke-width="2" fill="none" />
<polyline points="3.5,34.5,11.0,33.5,18.5,33.0,26.0,32.5,34.0,32.0,41.5,32.0" stroke="black" stroke-width="2" fill="none" />
<polyline points="35.5,58.0,27.5,65.5" stroke="black" stroke-width="2" fill="none" />
<polyline points="29.0,63.5,44.0,71.5,60.0,79.5" stroke="black" stroke-width="2" fill="none" />
<polyline points="58.0,77.5,65.5,77.5" stroke="black" stroke-width="2" fill="none" />
<polyline points="68.0,75.0,60.0,83.0" stroke="black" stroke-width="2" fill="none" />
<polyline points="50.5,110.5,43.5,110.5" stroke="black" stroke-width="2" fill="none" />
<polyline points="52.5,116.0,44.5,117.5,36.5,119.0,29.0,119.5" stroke="black" stroke-width="2" fill="none" />
<polyline points="28.0,126.5,36.5,126.0,45.0,126.0,53.0,125.0,61.0,124.0" stroke="black" stroke-width="2" fill="none" />
<polyline points="59.0,155.0,51.5,162.5,44.0,170.0,36.0,177.5,28.5,185.0,21.0,192.5,13.0,200.0,4.5,207.5" stroke="black" stroke-width="2" fill="none" />
<polyline points="4.5,205.0,12.0,204.5,20.0,204.0,27.5,204.0,35.5,203.5,44.0,203.5,52.0,203.0,60.0,202.5,68.5,202.0,77.0,202.0,84.5,201.0,93.0,200.5,101.0,200.5,109.0,200.0" stroke="black" stroke-width="2" fill="none" />
<polyline points="91.0,204.5,83.0,212.0,74.5,219.5,66.5,227.0,59.0,234.5,51.0,242.0,43.0,249.5,35.0,257.5,27.5,265.0,20.0,272.5,12.0,280.0" stroke="black" stroke-width="2" fill="none" />
<polyline points="8.5,278.0,8.5,276.0,8.5,281.0,16.5,281.0,24.5,278.0,29.5,280.0,30.5,283.5,38.5,288.5,41.5,282.5,43.5,281.0,50.0,274.0,52.0,273.0,58.5,280.0,66.5,280.0,74.5,281.5" stroke="black" stroke-width="2" fill="none" />
<polyline points="75.0,281.5,82.5,273.5,90.5,265.5,98.5,258.0,106.5,250.0,114.5,242.5" stroke="black" stroke-width="2" fill="none" />
<polyline points="107.0,243.0,99.0,250.5,91.5,258.5,83.5,266.0,76.0,274.0" stroke="black" stroke-width="2" fill="none" />
<polyline points="79.0,281.0,78.0,288.5,88.0,295.0,93.5,292.5" stroke="black" stroke-width="2" fill="none" />
<polyline points="99.0,289.5,108.0,282.5,117.0,275.5,125.5,268.5,133.0,261.0" stroke="black" stroke-width="2" fill="none" />
<polyline points="130.0,253.0,138.0,253.0,146.5,252.5,155.0,252.0" stroke="black" stroke-width="2" fill="none" />
<polyline points="150.0,251.5,147.0,259.5,152.0,268.0,154.0,267.5" stroke="black" stroke-width="2" fill="none" />
<polyline points="156.0,273.0,148.5,281.0,141.0,289.0" stroke="black" stroke-width="2" fill="none" />
<polyline points="140.5,282.5,148.5,275.0" stroke="black" stroke-width="2" fill="none" />
<polyline points="144.5,277.0,153.0,277.0,156.0,280.5,162.0,285.5,169.5,287.5,177.5,293.0" stroke="black" stroke-width="2" fill="none" />
<polyline points="181.0,296.5,189.0,288.5,197.5,281.0,205.5,273.5,213.5,266.0,221.5,258.5,229.5,251.0" stroke="black" stroke-width="2" fill="none" />
<polyline points="235.0,251.5,227.0,259.0,218.5,267.0,210.5,275.0,203.0,283.0,195.5,291.5" stroke="black" stroke-width="2" fill="none" />
<polyline points="194.0,294.5,202.0,294.0" stroke="black" stroke-width="2" fill="none" />
<polyline points="204.0,290.0,212.0,282.5,220.0,275.0,227.5,267.0,235.0,259.5,242.5,252.0" stroke="black" stroke-width="2" fill="none" />
<polyline points="239.0,249.0,241.0,246.5,242.0,241.5,251.0,247.0,259.0,246.0,259.0,247.5" stroke="black" stroke-width="2" fill="none" />
<polyline points="258.5,253.0,250.5,260.5,243.0,268.0,235.5,275.0,228.0,282.5,220.0,289.5,212.5,297.0" stroke="black" stroke-width="2" fill="none" />
<polyline points="209.5,293.5,217.5,293.5,226.0,293.5,234.5,293.0,243.0,292.5,251.0,292.0,258.5,291.5,266.5,291.0,274.0,290.5,282.0,289.5,290.0,289.0,298.0,288.5,305.5,288.0" stroke="black" stroke-width="2" fill="none" />
<polyline points="308.0,288.0,316.0,287.5" stroke="black" stroke-width="2" fill="none" />
<polyline points="314.0,282.0,306.0,289.5,298.5,297.5" stroke="black" stroke-width="2" fill="none" />
<polyline points="298.0,296.0,290.0,296.5" stroke="black" stroke-width="2" fill="none" />
<polyline points="291.5,298.5,300.0,291.5,308.0,284.0" stroke="black" stroke-width="2" fill="none" />
<polyline points="300.5,286.5,308.5,286.5,316.5,286.0" stroke="black" stroke-width="2" fill="none" />
<polyline points="323.5,285.0,331.5,284.0,339.5,283.5,348.0,283.0,356.0,282.5,364.0,281.5,372.0,282.0,379.5,281.5,387.5,281.5,395.5,281.0,404.0,281.0,411.5,280.0,419.0,280.0,427.0,279.0,435.5,278.5,443.5,278.0,451.0,277.5,459.0,276.5,466.5,276.0,474.5,275.0,482.5,274.5,490.0,274.0" stroke="black" stroke-width="2" fill="none" />
<polyline points="490.5,276.0,482.5,283.0" stroke="black" stroke-width="2" fill="none" />
<polyline points="485.0,292.0,493.0,284.5,501.0,277.5" stroke="black" stroke-width="2" fill="none" />
<polyline points="495.5,282.0,501.5,280.0,507.5,281.0,508.0,289.0,506.0,295.0,507.5,303.5,506.5,311.5,502.5,316.0,495.0,327.0,494.0,335.0,483.0,340.0,484.0,337.0,488.5,341.0,493.5,340.0,501.0,338.0" stroke="black" stroke-width="2" fill="none" />
<polyline points="509.5,341.0,518.0,333.5" stroke="black" stroke-width="2" fill="none" />
<polyline points="515.0,323.5,507.0,331.0" stroke="black" stroke-width="2" fill="none" />
<polyline points="508.0,329.5,500.0,328.5" stroke="black" stroke-width="2" fill="none" />
<polyline points="506.5,322.5,515.0,315.0" stroke="black" stroke-width="2" fill="none" />
<polyline points="516.5,312.0,508.5,313.0" stroke="black" stroke-width="2" fill="none" />
<polyline points="514.5,307.5,507.0,314.5,498.5,322.0,490.5,329.5,482.0,337.5" stroke="black" stroke-width="2" fill="none" />
<polyline points="483.5,337.0,475.0,338.0" stroke="black" stroke-width="2" fill="none" />
<polyline points="474.5,338.0,483.0,331.0,491.0,324.0,499.0,316.5" stroke="black" stroke-width="2" fill="none" />
<polyline points="493.0,321.5,501.0,321.0,509.0,320.5,516.0,319.5" stroke="black" stroke-width="2" fill="none" />
<polyline points="509.5,308.0,517.0,300.5" stroke="black" stroke-width="2" fill="none" />
<polyline points="506.5,298.5,499.0,306.0,491.5,313.5" stroke="black" stroke-width="2" fill="none" />
<polyline points="484.5,312.0,492.5,312.0,500.5,311.0,508.5,310.0,516.0,309.0" stroke="black" stroke-width="2" fill="none" />
<polyline points="507.5,303.5,499.5,304.5,491.5,305.5" stroke="black" stroke-width="2" fill="none" />
<polyline points="484.0,302.0,491.5,301.5,499.5,301.0,507.5,300.5,516.0,299.5" stroke="black" stroke-width="2" fill="none" />
<polyline points="509.5,289.5,501.0,290.5,493.0,291.0,484.5,291.0,476.0,291.5,468.0,292.0,460.5,292.5,452.5,293.0" stroke="black" stroke-width="2" fill="none" />
<polyline points="461.0,291.5,452.5,299.0,444.5,306.0,436.0,313.5,427.5,321.5" stroke="black" stroke-width="2" fill="none" />
<polyline points="427.0,328.0,435.0,327.5" stroke="black" stroke-width="2" fill="none" />
<polyline points="436.5,320.5,444.5,319.5,452.5,319.0,460.5,319.0,468.5,319.5,476.5,320.0" stroke="black" stroke-width="2" fill="none" />
<polyline points="476.0,315.0,468.0,322.5,460.0,330.5,452.0,338.0" stroke="black" stroke-width="2" fill="none" />
<polyline points="459.5,335.5,467.5,327.5,475.5,320.0,483.0,312.5,490.5,305.0,498.5,297.5,506.0,289.5" stroke="black" stroke-width="2" fill="none" />
<polyline points="504.0,298.0,512.0,299.5,513.0,307.5" stroke="black" stroke-width="2" fill="none" />
<polyline points="500.0,312.5,491.5,312.5,484.0,313.0" stroke="black" stroke-width="2" fill="none" />
<polyline points="483.0,321.5,475.0,329.5,466.5,337.0" stroke="black" stroke-width="2" fill="none" />
<polyline points="466.5,328.5,474.0,328.0,482.0,327.5,490.0,326.5" stroke="black" stroke-width="2" fill="none" />
<polyline points="485.0,332.0,493.0,327.0,501.0,328.5,508.5,327.0" stroke="black" stroke-width="2" fill="none" />
<polyline points="514.5,309.5,506.5,310.0,499.0,310.5,491.5,310.5,483.5,311.5,475.0,312.5,466.5,313.0,458.5,313.0,450.5,313.0,442.0,313.5,434.5,315.0,426.5,316.0,418.5,316.5,410.5,316.5" stroke="black" stroke-width="2" fill="none" />
<polyline points="410.5,309.5,405.5,317.5,415.5,320.0,421.5,326.5" stroke="black" stroke-width="2" fill="none" />
<polyline points="425.5,328.5,418.5,336.5" stroke="black" stroke-width="2" fill="none" />
<polyline points="418.0,337.5,426.0,330.5,434.0,323.5,442.0,315.5" stroke="black" stroke-width="2" fill="none" />
<polyline points="449.5,317.5,441.5,325.0,433.5,332.0,425.5,339.0" stroke="black" stroke-width="2" fill="none" />
<polyline points="427.5,338.5,436.0,337.5,444.0,336.5,452.0,335.5,459.5,335.0" stroke="black" stroke-width="2" fill="none" />
<polyline points="442.5,339.0,451.0,331.5,459.0,324.5,466.5,317.0" stroke="black" stroke-width="2" fill="none" />
<polyline points="465.5,309.5,457.5,317.0,450.0,325.0,442.5,332.5,434.5,339.5" stroke="black" stroke-width="2" fill="none" />
<polyline points="441.5,331.0,450.0,330.0,458.0,329.0" stroke="black" stroke-width="2" fill="none" />
<polyline points="459.5,313.0,468.0,312.5" stroke="black" stroke-width="2" fill="none" />
<polyline points="475.5,306.0,467.5,306.5,459.5,307.5,451.5,308.0" stroke="black" stroke-width="2" fill="none" />
<polyline points="448.5,302.5,456.0,301.0,464.0,296.0,472.0,293.0,480.0,290.0,493.0,291.0" stroke="black" stroke-width="2" fill="none" />
<polyline points="496.5,294.5,503.5,286.5,499.5,283.5,491.5,288.5,483.5,294.0,475.5,294.0" stroke="black" stroke-width="2" fill="none" />
<polyline points="474.0,297.5,471.0,305.5,475.0,311.5,478.0,322.0,474.0,325.0,479.0,324.0,487.5,321.0,499.0,320.0" stroke="black" stroke-width="2" fill="none" />
<polyline points="516.5,324.0,508.0,324.5,499.5,325.0,492.0,325.5,484.0,326.5,476.5,327.0,468.5,327.5,461.0,328.0,453.5,328.5,445.5,329.0,437.0,329.0,429.0,329.5,421.5,330.0,413.5,330.5,405.0,331.0,397.0,331.5,388.0,331.5,379.5,331.5,371.0,331.5,363.0,331.5" stroke="black" stroke-width="2" fill="none" />
<polyline points="364.5,330.0,372.0,323.0,380.0,315.0,388.0,307.5,396.0,299.5,403.5,291.5,411.5,284.0" stroke="black" stroke-width="2" fill="none" />
<polyline points="411.5,290.5,419.5,283.0" stroke="black" stroke-width="2" fill="none" />
<polyline points="427.5,277.0,435.5,269.5" stroke="black" stroke-width="2" fill="none" />
<polyline points="434.5,275.5,426.5,283.5,418.5,291.0,411.0,298.5,403.0,306.0" stroke="black" stroke-width="2" fill="none" />
<polyline points="403.5,306.0,411.5,306.0,420.0,306.0,428.0,305.5,435.5,305.0" stroke="black" stroke-width="2" fill="none" />
<polyline points="435.0,306.5,427.0,313.5" stroke="black" stroke-width="2" fill="none" />
<polyline points="426.0,307.0,433.5,300.0,441.0,292.5" stroke="black" stroke-width="2" fill="none" />
<polyline points="438.0,298.5,445.5,298.0" stroke="black" stroke-width="2" fill="none" />
<polyline points="442.5,285.5,450.5,278.0" stroke="black" stroke-width="2" fill="none" />
<polyline points="458.5,278.0,466.5,277.0,475.0,276.0,483.5,275.0,491.5,274.0,499.5,272.5,507.5,272.5,515.5,272.0" stroke="black" stroke-width="2" fill="none" />
<polyline points="508.0,258.0,515.5,250.5" stroke="black" stroke-width="2" fill="none" />
<polyline points="507.5,249.5,499.0,257.0" stroke="black" stroke-width="2" fill="none" />
<polyline points="498.0,259.5,506.5,259.0" stroke="black" stroke-width="2" fill="none" />
<polyline points="503.5,251.5,511.5,249.5" stroke="black" stroke-width="2" fill="none" />
<polyline points="499.0,245.5,491.0,253.0" stroke="black" stroke-width="2" fill="none" />
<polyline points="492.5,259.0,500.0,259.0,508.0,259.0,515.5,258.5" stroke="black" stroke-width="2" fill="none" />
<polyline points="513.5,269.5,505.5,269.5,498.0,270.0" stroke="black" stroke-width="2" fill="none" />
<polyline points="497.0,266.5,505.0,265.5" stroke="black" stroke-width="2" fill="none" />
<polyline points="491.0,267.0,483.0,274.5,475.0,282.0" stroke="black" stroke-width="2" fill="none" />
<polyline points="474.0,275.5,466.5,283.0" stroke="black" stroke-width="2" fill="none" />
<polyline points="464.0,283.0,472.0,283.0,480.0,281.5,483.0,275.5,486.5,280.5" stroke="black" stroke-width="2" fill="none" />
<polyline points="468.5,277.5,460.5,285.0" stroke="black" stroke-width="2" fill="none" />
<polyline points="459.0,280.5,466.5,280.0,475.0,279.5" stroke="black" stroke-width="2" fill="none" />
<polyline points="466.0,268.5,474.0,268.0,482.5,267.5,491.0,266.5" stroke="black" stroke-width="2" fill="none" />
<polyline points="476.0,257.0,484.5,249.5" stroke="black" stroke-width="2" fill="none" />
<polyline points="493.5,244.0,501.5,243.0,509.5,243.0,516.5,242.5" stroke="black" stroke-width="2" fill="none" />
<polyline points="517.5,237.5,509.5,238.5,501.5,238.5" stroke="black" stroke-width="2" fill="none" />
<polyline points="500.5,239.5,494.0,242.5,488.0,244.5,484.0,246.0,479.5,248.0,469.5,254.0,472.0,262.0,481.5,261.0,488.5,263.5,486.0,264.5,474.0,275.5,477.0,276.5,487.5,277.5,481.5,285.5,488.5,289.0,489.0,298.0,492.0,304.0,490.5,302.0,495.5,302.5,499.0,315.0,506.5,320.0,508.0,320.0,507.0,332.5,502.0,339.5,510.5,332.5,512.5,337.0" stroke="black" stroke-width="2" fill="none" />
<polyline points="517.0,311.5,508.5,312.0,500.0,312.5,491.5,314.0,483.5,314.5,475.0,315.0,467.5,316.0,460.0,317.0,452.0,317.5,444.0,318.0,436.0,318.0,428.0,318.0,420.0,317.5,412.0,317.5,404.5,318.0,396.5,318.0,389.0,318.0,381.0,319.0,373.0,320.0,365.0,320.0,356.0,321.0,347.0,321.5,338.5,321.5,330.5,322.0,322.5,323.0,314.5,323.5,306.5,324.0,299.0,325.0,291.0,325.5" stroke="black" stroke-width="2" fill="none" />
<polyline points="290.0,321.0,298.0,313.5,305.5,306.5" stroke="black" stroke-width="2" fill="none" />
<polyline points="309.0,301.5,300.5,302.0" stroke="black" stroke-width="2" fill="none" />
<polyline points="304.0,296.5,312.0,296.5,320.5,294.0,328.5,294.0" stroke="black" stroke-width="2" fill="none" />
<polyline points="325.0,293.0,332.5,292.5,340.5,291.5,348.5,291.0,356.5,290.0,364.5,290.0,373.0,290.0,381.5,290.0,389.5,290.0,397.0,289.5,405.5,288.5" stroke="black" stroke-width="2" fill="none" />
<polyline points="411.5,293.5,419.5,293.5,427.5,293.0,435.5,293.0,443.5,293.0" stroke="black" stroke-width="2" fill="none" />
<polyline points="438.0,284.0,446.0,283.5,453.0,282.5" stroke="black" stroke-width="2" fill="none" />
<polyline points="442.0,274.0,434.0,282.0,426.0,289.5,418.5,297.0,411.0,304.5" stroke="black" stroke-width="2" fill="none" />
<polyline points="404.5,301.5,396.0,309.0" stroke="black" stroke-width="2" fill="none" />
<polyline points="396.5,306.5,388.0,306.5,380.0,306.5" stroke="black" stroke-width="2" fill="none" />
<polyline points="380.0,297.5,388.0,297.0,396.5,296.5,404.5,296.5" stroke="black" stroke-width="2" fill="none" />
<polyline points="412.0,297.0,420.0,296.5" stroke="black" stroke-width="2" fill="none" />
<polyline points="427.0,300.5,419.0,308.0" stroke="black" stroke-width="2" fill="none" />
<polyline points="411.5,323.5,403.5,330.5" stroke="black" stroke-width="2" fill="none" />
<polyline points="402.5,325.0,394.5,332.5,387.0,339.5" stroke="black" stroke-width="2" fill="none" />
<polyline points="388.5,334.5,381.0,341.5" stroke="black" stroke-width="2" fill="none" />
<polyline points="372.5,339.0,381.0,331.5,388.5,324.5" stroke="black" stroke-width="2" fill="none" />
<polyline points="395.0,325.0,403.5,317.5" stroke="black" stroke-width="2" fill="none" />
<polyline points="403.0,315.0,394.5,315.5,386.5,316.0,378.5,316.0,371.0,316.0,363.5,316.5,356.0,317.5,348.0,318.5" stroke="black" stroke-width="2" fill="none" />
<polyline points="340.5,323.5,332.5,331.5,324.5,340.0" stroke="black" stroke-width="2" fill="none" />
<polyline points="322.5,332.5,330.5,332.0,339.0,332.0,347.0,332.0,355.0,332.0" stroke="black" stroke-width="2" fill="none" />
<polyline points="347.0,337.0,354.5,330.0,362.5,322.5,370.5,315.0,378.5,307.5,386.5,300.0,395.0,292.5" stroke="black" stroke-width="2" fill="none" />
<polyline points="389.0,289.5,381.5,297.5,373.5,305.5,365.5,314.0,357.0,322.0,348.5,330.0,340.0,337.5" stroke="black" stroke-width="2" fill="none" />
<polyline points="339.5,336.5,347.5,336.0,356.0,336.5" stroke="black" stroke-width="2" fill="none" />
<polyline points="364.5,336.5,372.5,336.5,380.0,336.0,388.0,335.5,396.0,335.0" stroke="black" stroke-width="2" fill="none" />
<polyline points="384.5,328.5,376.5,330.5" stroke="black" stroke-width="2" fill="none" />
<polyline points="381.5,323.0,373.0,330.5,365.0,338.5" stroke="black" stroke-width="2" fill="none" />
<polyline points="358.0,320.5,365.5,320.0,373.0,319.5" stroke="black" stroke-width="2" fill="none" />
<polyline points="378.5,315.5,387.0,314.5" stroke="black" stroke-width="2" fill="none" />
<polyline points="389.0,305.5,397.5,305.5" stroke="black" stroke-width="2" fill="none" />
<polyline points="399.0,290.5,391.0,291.5,383.0,290.5" stroke="black" stroke-width="2" fill="none" />
<polyline points="386.5,289.0,378.5,289.5" stroke="black" stroke-width="2" fill="none" />
<polyline points="371.0,285.0,362.5,293.0,355.0,300.0,347.0,307.5" stroke="black" stroke-width="2" fill="none" />
<polyline points="346.0,310.5,337.5,310.5" stroke="black" stroke-width="2" fill="none" />
<polyline points="338.5,307.5,346.5,300.5,354.5,293.5" stroke="black" stroke-width="2" fill="none" />
<polyline points="351.0,295.5,358.5,295.5,366.0,295.5" stroke="black" stroke-width="2" fill="none" />
<polyline points="364.5,307.0,356.5,306.0" stroke="black" stroke-width="2" fill="none" />
<polyline points="355.0,305.5,363.0,298.5,371.0,291.5,379.0,284.0,387.0,277.0,394.5,270.0" stroke="black" stroke-width="2" fill="none" />
<polyline points="394.0,272.5,385.0,280.5,377.0,284.5,379.5,288.5,384.5,292.0,379.5,295.0" stroke="black" stroke-width="2" fill="none" />
<polyline points="392.0,284.5,404.0,281.5,411.5,283.0,415.5,281.5,423.0,282.5,431.0,291.0,439.0,290.0,448.0,293.5" stroke="black" stroke-width="2" fill="none" />
<polyline points="444.0,303.5,436.0,304.5,428.5,304.5,420.5,305.0,413.0,305.5,405.0,305.5,397.0,306.0,388.5,307.0,381.0,308.0,372.5,308.5,364.5,309.0,356.0,309.5" stroke="black" stroke-width="2" fill="none" />
<polyline points="356.5,314.5,364.0,313.5,372.0,312.5" stroke="black" stroke-width="2" fill="none" />
<polyline points="365.0,317.5,362.0,325.5" stroke="black" stroke-width="2" fill="none" />
<polyline points="339.5,326.5,347.5,319.5,355.0,312.0,362.5,305.0,370.5,298.0,378.0,290.5,386.0,283.0,393.5,275.5" stroke="black" stroke-width="2" fill="none" />
<polyline points="397.5,274.5,389.0,274.0,381.0,274.5,372.5,274.5,364.0,274.5,355.0,274.5,346.5,275.0" stroke="black" stroke-width="2" fill="none" />
<polyline points="351.0,271.5,359.0,269.5,367.0,266.0,375.0,265.0,383.0,269.0" stroke="black" stroke-width="2" fill="none" />
<polyline points="379.0,271.5,387.0,271.0,394.5,269.5,403.0,269.0,411.0,268.5,419.5,268.0,428.0,267.0,435.5,266.5,443.5,266.0" stroke="black" stroke-width="2" fill="none" />
<polyline points="443.0,262.0,451.5,262.0,459.5,261.0,468.0,260.0" stroke="black" stroke-width="2" fill="none" />
<polyline points="469.0,260.0,461.0,267.5" stroke="black" stroke-width="2" fill="none" />
<polyline points="459.5,265.5,467.5,265.0" stroke="black" stroke-width="2" fill="none" />
<polyline points="460.0,260.0,453.0,268.5,455.0,272.5,458.5,274.5,458.5,280.5,465.5,283.5,472.0,287.5,470.0,295.0,457.0,295.5,448.0,302.5,443.5,310.0,453.5,312.5,447.5,316.5,436.5,323.0" stroke="black" stroke-width="2" fill="none" />
<polyline points="419.0,332.5,411.0,340.0" stroke="black" stroke-width="2" fill="none" />
<polyline points="431.0,332.5,425.0,338.5,416.0,339.0,415.0,338.0,418.5,323.5,418.5,310.5,429.5,308.5,427.0,308.5,423.0,299.5,424.5,289.5,415.0,283.5,412.0,277.0,407.0,275.0,416.5,267.0,414.5,263.0,412.5,257.0,405.0,254.0,396.5,256.0" stroke="black" stroke-width="2" fill="none" />
<polyline points="396.0,261.0,388.0,261.5,379.5,262.0" stroke="black" stroke-width="2" fill="none" />
<polyline points="394.0,245.0,402.0,244.5" stroke="black" stroke-width="2" fill="none" />
<polyline points="402.5,237.5,394.0,238.0,385.5,238.5" stroke="black" stroke-width="2" fill="none" />
<polyline points="370.5,237.0,362.5,237.5" stroke="black" stroke-width="2" fill="none" />
<polyline points="365.0,229.0,373.0,228.0" stroke="black" stroke-width="2" fill="none" />
<polyline points="388.0,242.0,379.5,242.0,371.0,242.0,363.0,242.0,354.5,242.5,346.5,242.5" stroke="black" stroke-width="2" fill="none" />
<polyline points="347.5,235.0,355.0,235.0" stroke="black" stroke-width="2" fill="none" />
<polyline points="338.5,243.0,331.0,243.5" stroke="black" stroke-width="2" fill="none" />
<polyline points="322.5,253.0,330.5,252.0,338.0,251.5,346.5,250.5,355.5,250.0,363.5,249.5,371.5,249.0,379.0,248.5,386.5,248.5,394.0,248.5" stroke="black" stroke-width="2" fill="none" />
<polyline points="403.0,257.5,410.5,260.5,419.0,269.0" stroke="black" stroke-width="2" fill="none" />
<polyline points="418.5,268.0,427.0,260.5" stroke="black" stroke-width="2" fill="none" />
<polyline points="427.0,260.0,419.0,261.0,411.5,261.0,404.0,262.0" stroke="black" stroke-width="2" fill="none" />
<polyline points="411.5,269.0,403.5,276.0" stroke="black" stroke-width="2" fill="none" />
<polyline points="405.5,277.5,413.5,277.5,421.0,277.5,428.5,277.0,436.0,277.0,443.5,276.0,452.0,275.5" stroke="black" stroke-width="2" fill="none" />
<polyline points="452.0,258.0,460.0,250.5" stroke="black" stroke-width="2" fill="none" />
<polyline points="459.5,244.5,451.0,251.5" stroke="black" stroke-width="2" fill="none" />
<polyline points="453.0,249.0,461.0,245.0,465.0,243.0,473.0,239.0,478.0,246.0,486.0,240.5,494.0,239.0,499.0,240.0,507.0,237.0" stroke="black" stroke-width="2" fill="none" />
<polyline points="514.5,250.0,506.0,251.0,498.5,251.5,491.0,252.0,483.5,252.5,476.0,253.0,468.0,253.0" stroke="black" stroke-width="2" fill="none" />
<polyline points="468.5,246.5,476.5,245.5,485.0,244.0" stroke="black" stroke-width="2" fill="none" />
<polyline points="461.5,245.5,453.5,246.0" stroke="black" stroke-width="2" fill="none" />
<polyline points="451.0,238.5,459.0,238.0,467.0,238.0" stroke="black" stroke-width="2" fill="none" />
<polyline points="467.5,230.0,460.0,231.0,452.0,231.5" stroke="black" stroke-width="2" fill="none" />
<polyline points="445.0,228.0,453.5,220.5" stroke="black" stroke-width="2" fill="none" />
<polyline points="450.5,214.0,443.0,221.5" stroke="black" stroke-width="2" fill="none" />
<polyline points="442.0,222.0,450.0,222.0,458.5,221.5" stroke="black" stroke-width="2" fill="none" />
<polyline points="451.0,225.0,443.0,225.5" stroke="black" stroke-width="2" fill="none" />
<polyline points="443.0,217.5,451.0,216.5" stroke="black" stroke-width="2" fill="none" />
<polyline points="451.0,213.0,443.5,214.0,436.0,214.5" stroke="black" stroke-width="2" fill="none" />
<polyline points="436.0,211.0,444.5,210.0" stroke="black" stroke-width="2" fill="none" />
<polyline points="442.0,203.0,434.0,210.5" stroke="black" stroke-width="2" fill="none" />
<polyline points="429.0,209.0,432.5,214.5,438.5,222.5,438.0,227.0,446.5,227.0,453.5,231.0" stroke="black" stroke-width="2" fill="none" />
<polyline points="460.0,251.5,452.0,252.5,444.0,253.5" stroke="black" stroke-width="2" fill="none" />
<polyline points="439.0,262.0,447.5,257.0,447.5,260.0,455.5,261.5,463.5,264.5,471.5,257.5,472.5,254.5,480.5,258.0,488.0,247.0,496.0,247.0,502.5,242.5,510.0,242.5" stroke="black" stroke-width="2" fill="none" />
<polyline points="483.0,202.5,474.5,203.0" stroke="black" stroke-width="2" fill="none" />
<polyline points="476.5,201.0,484.5,193.0" stroke="black" stroke-width="2" fill="none" />
<polyline points="484.5,197.0,476.5,197.5" stroke="black" stroke-width="2" fill="none" />
<polyline points="475.5,189.0,484.0,189.0,492.0,189.0" stroke="black" stroke-width="2" fill="none" />
<polyline points="491.0,179.5,483.5,179.5" stroke="black" stroke-width="2" fill="none" />
<polyline points="479.5,178.0,487.5,182.0,482.5,179.0,476.5,182.5,472.5,191.0,472.5,196.0,471.5,204.0,473.0,207.0,467.0,219.5,463.0,230.5,460.0,238.5,456.0,246.5,452.0,248.5,458.0,250.5,448.0,261.5,445.0,266.5,441.0,274.5,452.5,281.0,457.5,287.0,450.5,290.5,442.5,291.5,449.0,296.5,438.0,305.0,433.0,314.0,430.0,315.0,432.0,326.0,434.0,331.0,440.5,328.0" stroke="black" stroke-width="2" fill="none" />
<polyline points="479.5,326.5,487.5,324.5" stroke="black" stroke-width="2" fill="none" />
<polyline points="486.0,334.0,494.5,334.0,503.0,334.5" stroke="black" stroke-width="2" fill="none" />
<polyline points="507.5,315.0,508.5,315.0,505.5,312.0,504.5,308.5,490.5,308.5,482.0,311.5,474.0,314.0,466.0,309.0,456.0,312.5,447.5,311.5,440.5,313.5,426.5,312.5,418.0,319.5,413.0,317.5,412.0,314.0,404.0,319.0,395.0,321.5,394.0,318.5,386.0,319.0,378.5,318.0,372.0,322.0,368.0,333.5,363.0,329.5,356.5,331.5,348.5,332.0,354.5,337.0,365.0,336.5,375.0,328.5,375.0,325.0,376.0,317.0,374.0,312.0,370.0,308.0,363.0,302.0,363.5,300.5,363.5,289.5,360.0,291.5,364.5,284.0,373.5,283.0,371.5,281.0,363.5,280.5" stroke="black" stroke-width="2" fill="none" />
<polyline points="362.0,277.0,354.0,284.5" stroke="black" stroke-width="2" fill="none" />
<polyline points="356.0,281.5,363.5,281.5" stroke="black" stroke-width="2" fill="none" />
<polyline points="348.5,284.5,340.0,291.5" stroke="black" stroke-width="2" fill="none" />
<polyline points="340.5,299.5,348.5,292.0" stroke="black" stroke-width="2" fill="none" />
<polyline points="346.5,288.0,338.5,287.5,330.5,288.0" stroke="black" stroke-width="2" fill="none" />
<polyline points="333.5,290.5,341.0,282.5" stroke="black" stroke-width="2" fill="none" />
<polyline points="346.5,286.0,354.5,285.0,361.5,287.0,370.0,284.0,376.0,286.0,382.0,278.5,387.0,284.0,391.0,276.0,402.0,273.0,409.0,275.0,417.0,274.5,425.0,269.5,433.0,265.5,433.5,263.5,438.0,266.5" stroke="black" stroke-width="2" fill="none" />
<polyline points="428.5,272.0,436.0,273.0,444.0,270.0,457.5,264.5,466.0,267.0,472.0,262.5,475.0,268.0,483.5,263.0,489.5,272.0,496.5,275.5,504.5,274.5,513.0,270.5" stroke="black" stroke-width="2" fill="none" />
<polyline points="479.0,288.0,468.0,286.0,462.5,285.0,449.5,290.0,441.0,292.5,433.0,296.0,425.0,296.5,417.0,296.5,421.0,291.0,422.5,283.0,429.0,275.0" stroke="black" stroke-width="2" fill="none" />
<polyline points="413.0,271.0,425.0,276.0,427.5,276.0,432.5,279.5,427.0,287.5,434.0,292.5,433.5,299.5,436.5,308.0,430.5,309.0,440.5,307.0,447.5,309.0,450.5,308.0,452.5,305.0,462.5,305.0,469.5,303.5,470.0,301.0,465.0,305.0,459.0,304.5,465.5,308.0,470.5,319.0,475.5,321.5,460.5,333.5,451.5,338.5" stroke="black" stroke-width="2" fill="none" />
<polyline points="436.0,325.5,429.0,330.5,421.0,336.5,413.5,334.5,411.0,337.0,403.0,339.0,409.0,340.0,414.5,332.0,402.0,332.0,415.0,322.0,404.5,320.5,400.0,312.5,398.0,307.0,401.0,312.0,395.0,311.0,388.0,314.5,380.0,312.0,372.0,320.0,364.0,320.5,356.0,320.5,351.5,316.5,351.5,315.0,343.5,314.0,342.5,311.0,338.5,311.0,330.0,321.0,325.0,328.5,317.0,323.0,316.0,316.0,312.0,326.0,303.5,341.0,297.5,339.0,293.0,331.0,290.0,336.0,305.0,339.0,301.0,333.0,303.5,325.0,312.5,321.5,316.5,314.5,323.0,313.0,319.0,310.0,329.5,306.0,340.5,300.0,332.5,296.0,335.5,296.0,337.5,288.0,329.5,284.0,339.5,280.5,342.5,277.5,345.5,269.5,348.5,266.0,345.5,258.0,352.5,258.0,344.5,261.0" stroke="black" stroke-width="2" fill="none" />
<polyline points="345.5,261.0,352.5,261.5,354.5,269.0,350.5,267.5,347.0,279.5,352.5,271.0,354.0,261.0" stroke="black" stroke-width="2" fill="none" />
<polyline points="355.5,262.0,363.5,262.0,370.5,261.5" stroke="black" stroke-width="2" fill="none" />
<polyline points="348.0,266.0,340.0,266.5,331.5,267.0,324.0,268.0,315.5,268.0,307.5,268.5,300.0,269.5,292.0,270.0,284.0,270.5" stroke="black" stroke-width="2" fill="none" />
<polyline points="285.0,278.0,293.0,278.0,302.0,277.5,310.0,277.5,318.0,277.0,325.0,276.0,333.0,275.5,340.5,275.0" stroke="black" stroke-width="2" fill="none" />
<polyline points="331.0,273.5,323.0,281.0" stroke="black" stroke-width="2" fill="none" />
<polyline points="331.0,281.5,323.5,289.5" stroke="black" stroke-width="2" fill="none" />
<polyline points="331.5,299.0,324.0,300.0,316.0,300.5" stroke="black" stroke-width="2" fill="none" />
<polyline points="317.0,309.0,324.5,308.0,332.5,307.5" stroke="black" stroke-width="2" fill="none" />
<polyline points="339.0,306.5,347.0,305.5,354.5,304.5" stroke="black" stroke-width="2" fill="none" />
<polyline points="349.5,303.0,348.0,311.0" stroke="black" stroke-width="2" fill="none" />
<polyline points="341.0,312.5,344.0,320.5,345.0,317.5" stroke="black" stroke-width="2" fill="none" />
<polyline points="338.5,329.0,346.5,328.5,355.0,328.0,363.5,328.0,372.0,328.0,380.0,327.5" stroke="black" stroke-width="2" fill="none" />
<polyline points="395.0,321.0,381.0,329.0,383.5,331.0,380.5,334.0,388.5,333.0,395.0,334.0,403.0,328.0,405.0,330.5,413.0,327.0,421.0,323.5,429.0,322.5,437.0,321.5,439.0,315.5,451.5,320.5" stroke="black" stroke-width="2" fill="none" />
<polyline points="462.5,301.5,463.0,293.5" stroke="black" stroke-width="2" fill="none" />
<polyline points="458.5,292.0,450.0,292.5,442.5,294.0,434.5,295.0,426.5,295.5,418.5,295.5,410.5,296.0,402.5,296.5,394.5,297.5,386.5,298.5,379.0,299.0,371.5,299.5,364.0,299.5,356.0,300.0,348.0,301.0,339.5,301.5" stroke="black" stroke-width="2" fill="none" />
<polyline points="347.0,302.5,345.5,310.5,346.5,316.0,347.0,325.0,338.0,331.0,337.0,339.0,333.5,340.0,344.5,339.0,352.5,334.5,360.5,337.5" stroke="black" stroke-width="2" fill="none" />
<polyline points="345.5,322.5,337.5,325.5,332.5,321.0,337.5,326.0,340.0,322.5,336.0,322.0,337.0,314.5,328.0,314.5" stroke="black" stroke-width="2" fill="none" />
<polyline points="324.5,314.5,316.0,322.0,307.5,330.0" stroke="black" stroke-width="2" fill="none" />
<polyline points="309.5,332.0,301.5,332.5" stroke="black" stroke-width="2" fill="none" />
<polyline points="308.0,334.0,316.5,337.0,324.5,333.0,332.5,334.5" stroke="black" stroke-width="2" fill="none" />
<polyline points="323.5,323.0,315.5,330.0" stroke="black" stroke-width="2" fill="none" />
<polyline points="315.5,328.5,323.0,328.0" stroke="black" stroke-width="2" fill="none" />
<polyline points="319.5,331.5,316.0,323.0" stroke="black" stroke-width="2" fill="none" />
<polyline points="316.5,320.0,310.5,328.5,310.5,334.5,312.5,338.0,315.0,339.5" stroke="black" stroke-width="2" fill="none" />
<polyline points="307.5,321.0,315.5,313.5" stroke="black" stroke-width="2" fill="none" />
<polyline points="321.5,318.0,324.5,326.0,328.5,333.0,325.5,341.0" stroke="black" stroke-width="2" fill="none" />
<polyline points="309.0,321.0,301.0,322.0" stroke="black" stroke-width="2" fill="none" />
<polyline points="297.5,322.0,305.5,314.5" stroke="black" stroke-width="2" fill="none" />
<polyline points="299.0,309.0,291.0,317.0" stroke="black" stroke-width="2" fill="none" />
<polyline points="284.0,314.5,292.0,307.0" stroke="black" stroke-width="2" fill="none" />
<polyline points="285.0,300.0,293.0,293.0" stroke="black" stroke-width="2" fill="none" />
<polyline points="288.0,293.5,296.0,299.5,302.0,298.0,300.0,306.0,311.0,308.0,317.5,308.0,324.5,306.0,332.5,308.0,329.5,321.0,325.0,329.0,326.5,331.0,325.5,339.0,320.5,338.5,321.5,338.5,330.5,338.5,338.5,331.5,346.5,326.5,350.0,324.5,355.0,329.5,363.0,326.0,360.0,325.0,375.5,328.0,383.5,325.0,390.5,325.5,399.0,325.5,406.0,325.0" stroke="black" stroke-width="2" fill="none" />
<polyline points="395.0,321.0,397.5,329.0,396.5,334.0,398.5,338.5" stroke="black" stroke-width="2" fill="none" />
<polyline points="406.5,287.5,398.5,284.5" stroke="black" stroke-width="2" fill="none" />
<polyline points="399.0,280.5,407.0,283.5,416.5,279.0" stroke="black" stroke-width="2" fill="none" />
<polyline points="398.5,275.5,399.0,276.5,397.0,284.5,408.0,286.5,413.0,292.0,422.0,300.0" stroke="black" stroke-width="2" fill="none" />
<polyline points="417.5,287.0,409.5,289.0,401.5,282.5,393.5,278.0,388.5,284.0,380.5,282.0,371.5,292.0,362.0,293.5,359.0,289.5,355.0,291.5,348.0,294.0,341.0,287.0,333.0,286.0,319.5,284.0,312.0,289.5,304.0,292.0" stroke="black" stroke-width="2" fill="none" />
<polyline points="302.0,295.0,310.5,294.0,318.0,290.5,318.0,290.5,313.0,298.0,306.0,307.0,310.5,309.0,309.5,314.0,300.0,322.0,298.5,322.0,298.5,330.5,304.5,332.5" stroke="black" stroke-width="2" fill="none" />
<polyline points="292.0,332.0,284.0,339.5" stroke="black" stroke-width="2" fill="none" />
<polyline points="282.5,333.0,275.0,340.5" stroke="black" stroke-width="2" fill="none" />
<polyline points="274.0,338.0,282.0,337.5" stroke="black" stroke-width="2" fill="none" />
<polyline points="281.5,329.5,273.5,330.0" stroke="black" stroke-width="2" fill="none" />
<polyline points="271.5,325.0,279.5,318.0,287.5,319.0,295.5,315.5,303.5,315.5" stroke="black" stroke-width="2" fill="none" />
<polyline points="291.0,330.0,283.5,331.0,275.5,332.0,267.5,332.0,259.5,332.5" stroke="black" stroke-width="2" fill="none" />
<polyline points="263.5,334.0,255.5,330.5" stroke="black" stroke-width="2" fill="none" />
<polyline points="251.5,332.0,243.5,339.5" stroke="black" stroke-width="2" fill="none" />
<polyline points="243.0,333.0,251.0,332.5" stroke="black" stroke-width="2" fill="none" />
<polyline points="259.0,323.0,267.0,316.0,275.0,308.5" stroke="black" stroke-width="2" fill="none" />
<polyline points="281.5,306.5,271.5,314.5,261.0,316.5,267.0,320.5,266.0,327.0,271.0,331.0,272.0,338.0,257.0,340.0,258.5,340.0,265.0,341.0,269.0,342.0,278.0,337.0,282.5,339.5,291.5,340.0,300.0,342.0" stroke="black" stroke-width="2" fill="none" />
<polyline points="286.5,337.0,293.0,333.5,285.5,325.5" stroke="black" stroke-width="2" fill="none" />
<polyline points="282.5,324.0,274.0,332.0,265.5,339.5" stroke="black" stroke-width="2" fill="none" />
<polyline points="267.0,324.0,275.0,316.5" stroke="black" stroke-width="2" fill="none" />
<polyline points="276.5,320.0,269.0,321.0,261.0,322.0" stroke="black" stroke-width="2" fill="none" />
<polyline points="261.5,319.0,269.5,318.5,277.5,317.5,285.0,317.0,293.0,317.0,301.0,316.0,308.5,315.0,316.0,313.5,323.5,313.0" stroke="black" stroke-width="2" fill="none" />
<polyline points="294.0,285.0,286.0,292.5" stroke="black" stroke-width="2" fill="none" />
<polyline points="285.5,290.5,293.5,283.0" stroke="black" stroke-width="2" fill="none" />
<polyline points="291.5,284.0,283.0,284.5" stroke="black" stroke-width="2" fill="none" />
<polyline points="277.0,284.5,268.5,291.5,260.0,299.0,251.5,306.5,243.5,314.0,235.5,321.5,226.5,329.5" stroke="black" stroke-width="2" fill="none" />
<polyline points="224.5,328.5,232.5,328.0,241.0,327.5" stroke="black" stroke-width="2" fill="none" />
<polyline points="237.0,314.5,229.0,322.5,220.5,330.5" stroke="black" stroke-width="2" fill="none" />
<polyline points="216.0,331.0,224.0,332.0,231.5,333.0,244.0,340.0,248.0,334.0,253.0,335.0,254.5,341.0,257.5,328.0,266.0,328.0,270.5,332.0,278.5,329.0,282.0,321.0,281.5,328.0,289.5,327.0" stroke="black" stroke-width="2" fill="none" />
<polyline points="284.5,323.5,276.0,323.5,267.5,324.0" stroke="black" stroke-width="2" fill="none" />
<polyline points="266.0,319.0,269.0,315.5,276.5,321.5,281.5,329.5,285.0,337.5,281.5,341.5" stroke="black" stroke-width="2" fill="none" />
<polyline points="273.5,341.5,277.0,337.5,272.0,326.5,273.0,318.5,283.0,318.5" stroke="black" stroke-width="2" fill="none" />
<polyline points="268.0,309.0,260.0,316.5" stroke="black" stroke-width="2" fill="none" />
<polyline points="261.5,315.0,269.5,314.5" stroke="black" stroke-width="2" fill="none" />
<polyline points="260.5,311.5,268.5,310.5,276.5,309.5,284.5,309.0,291.5,308.0,299.0,307.0,307.0,307.0" stroke="black" stroke-width="2" fill="none" />
<polyline points="275.5,291.5,267.5,299.5,259.5,307.0" stroke="black" stroke-width="2" fill="none" />
<polyline points="259.5,304.5,267.5,304.5" stroke="black" stroke-width="2" fill="none" />
<polyline points="258.5,292.5,266.5,285.0" stroke="black" stroke-width="2" fill="none" />
<polyline points="251.5,290.5,259.5,283.0,267.5,275.5,275.0,268.0" stroke="black" stroke-width="2" fill="none" />
<polyline points="268.5,261.5,260.5,269.0,252.5,277.0,244.5,284.5,236.5,291.0" stroke="black" stroke-width="2" fill="none" />
<polyline points="242.5,291.5,250.0,284.0,258.0,276.5,265.5,269.0" stroke="black" stroke-width="2" fill="none" />
<polyline points="269.0,268.5,260.5,268.5,252.5,268.5,244.5,268.5,237.0,269.5,229.0,270.0,221.0,270.5,212.5,271.0,204.0,270.5,196.0,271.0,187.5,271.5,180.0,272.0,172.0,272.0,163.5,272.0" stroke="black" stroke-width="2" fill="none" />
<polyline points="163.5,280.0,171.5,272.0,179.0,264.5,187.0,257.0,194.5,250.5" stroke="black" stroke-width="2" fill="none" />
<polyline points="185.5,253.5,178.0,260.5,170.5,267.0,162.5,274.0" stroke="black" stroke-width="2" fill="none" />
<polyline points="163.0,280.0,171.0,279.5,179.0,279.0,187.0,279.0,195.0,279.0,203.5,278.5,211.5,279.0,220.0,279.0,228.0,279.0,235.5,278.5,243.5,278.0,251.5,277.5,260.5,277.0,268.5,276.5" stroke="black" stroke-width="2" fill="none" />
<polyline points="274.5,281.5,266.5,282.5,258.0,283.5,249.5,284.0,242.0,284.0,234.0,284.0,226.0,284.0,218.0,285.0,210.0,286.0,202.0,286.0,193.5,286.5,185.5,286.5,178.0,287.5,170.0,288.0" stroke="black" stroke-width="2" fill="none" />
<polyline points="172.0,282.5,180.0,275.0,188.0,267.5,196.5,260.0,204.5,253.0" stroke="black" stroke-width="2" fill="none" />
<polyline points="212.5,249.5,204.5,257.0,196.5,265.0,188.0,272.5,180.5,280.5,172.5,288.0,164.0,296.0" stroke="black" stroke-width="2" fill="none" />
<polyline points="163.5,297.5,172.0,297.0" stroke="black" stroke-width="2" fill="none" />
<polyline points="179.5,300.0,187.5,299.5" stroke="black" stroke-width="2" fill="none" />
<polyline points="186.5,299.5,178.0,307.0,170.0,314.5" stroke="black" stroke-width="2" fill="none" />
<polyline points="171.5,317.0,179.5,317.0" stroke="black" stroke-width="2" fill="none" />
<polyline points="181.0,316.0,173.0,323.5" stroke="black" stroke-width="2" fill="none" />
<polyline points="167.5,321.0,169.5,324.0,168.5,331.5,162.0,339.0,168.0,335.5" stroke="black" stroke-width="2" fill="none" />
<polyline points="165.5,333.0,157.0,340.5" stroke="black" stroke-width="2" fill="none" />
<polyline points="163.0,339.5,170.5,332.0" stroke="black" stroke-width="2" fill="none" />
<polyline points="173.0,333.0,171.0,341.0" stroke="black" stroke-width="2" fill="none" />
<polyline points="171.5,339.5,179.5,332.0" stroke="black" stroke-width="2" fill="none" />
<polyline points="179.5,336.5,171.5,337.0,164.0,338.0" stroke="black" stroke-width="2" fill="none" />
<polyline points="154.0,324.0,147.0,332.0" stroke="black" stroke-width="2" fill="none" />
<polyline points="147.5,331.0,155.5,331.0" stroke="black" stroke-width="2" fill="none" />
<polyline points="147.5,324.0,155.5,317.0,164.0,309.5" stroke="black" stroke-width="2" fill="none" />
<polyline points="164.0,316.5,172.0,309.0" stroke="black" stroke-width="2" fill="none" />
<polyline points="178.0,304.0,186.5,303.5" stroke="black" stroke-width="2" fill="none" />
<polyline points="185.0,298.0,186.5,306.0,191.5,304.0,192.5,302.0" stroke="black" stroke-width="2" fill="none" />
<polyline points="194.0,302.0,202.0,301.5" stroke="black" stroke-width="2" fill="none" />
<polyline points="207.0,305.0,206.0,299.0,196.5,300.0,201.5,308.0,197.5,316.5,199.5,321.5,202.5,334.5" stroke="black" stroke-width="2" fill="none" />
<polyline points="203.5,330.5,195.0,338.5" stroke="black" stroke-width="2" fill="none" />
<polyline points="187.5,337.5,195.5,330.5,203.0,323.0" stroke="black" stroke-width="2" fill="none" />
<polyline points="202.5,318.0,195.0,319.0" stroke="black" stroke-width="2" fill="none" />
<polyline points="200.0,316.0,207.5,316.0,204.0,324.0,204.5,320.0,209.5,322.0,217.5,324.0,225.5,323.0,232.5,319.0,239.5,324.0" stroke="black" stroke-width="2" fill="none" />
<polyline points="242.0,319.5,234.0,320.5,226.0,321.0" stroke="black" stroke-width="2" fill="none" />
<polyline points="226.5,317.5,234.5,316.5,243.0,316.0,251.0,315.5" stroke="black" stroke-width="2" fill="none" />
<polyline points="250.5,314.0,242.5,322.0,234.0,330.0,225.5,337.5" stroke="black" stroke-width="2" fill="none" />
<polyline points="233.5,333.5,225.0,334.5,216.5,335.0" stroke="black" stroke-width="2" fill="none" />
<polyline points="218.0,326.5,226.0,326.0,234.0,325.5,241.5,325.0,249.5,324.0,258.0,323.5" stroke="black" stroke-width="2" fill="none" />
<polyline points="250.0,309.5,242.5,310.0" stroke="black" stroke-width="2" fill="none" />
<polyline points="243.0,308.0,251.0,300.5" stroke="black" stroke-width="2" fill="none" />
<polyline points="251.0,303.5,243.0,305.0,235.0,305.5,227.0,306.0,219.0,306.5" stroke="black" stroke-width="2" fill="none" />
<polyline points="219.5,306.5,227.5,299.0" stroke="black" stroke-width="2" fill="none" />
<polyline points="227.5,305.5,235.5,298.0" stroke="black" stroke-width="2" fill="none" />
<polyline points="243.5,301.0,235.5,308.5" stroke="black" stroke-width="2" fill="none" />
<polyline points="218.0,303.0,226.5,302.5,234.5,302.0,243.0,301.0,251.0,300.0,259.5,299.0,267.5,299.0" stroke="black" stroke-width="2" fill="none" />
<polyline points="269.5,299.5,261.0,304.5,252.5,307.5,244.5,307.0,236.5,308.0,228.5,312.0,223.5,311.0,215.5,306.5" stroke="black" stroke-width="2" fill="none" />
<polyline points="213.0,306.0,225.0,306.5,220.5,309.5,222.5,311.5,223.0,317.5,216.0,322.5,214.5,327.0,214.0,329.0,214.0,331.5,212.0,339.5" stroke="black" stroke-width="2" fill="none" />
<polyline points="212.0,331.0,204.0,331.5,195.5,332.5,187.0,333.0" stroke="black" stroke-width="2" fill="none" />
<polyline points="185.5,331.5,194.0,331.5,202.0,333.0" stroke="black" stroke-width="2" fill="none" />
<polyline points="211.0,324.0,202.5,324.5,194.0,325.0,186.5,325.5" stroke="black" stroke-width="2" fill="none" />
<polyline points="179.0,311.5,171.0,311.5,163.0,311.5,155.5,311.5,147.5,311.5" stroke="black" stroke-width="2" fill="none" />
<polyline points="149.0,316.0,157.0,309.0" stroke="black" stroke-width="2" fill="none" />
<polyline points="157.0,301.5,149.0,308.5,140.5,316.0,132.5,323.5" stroke="black" stroke-width="2" fill="none" />
<polyline points="131.5,316.0,139.0,315.0" stroke="black" stroke-width="2" fill="none" />
<polyline points="140.0,309.5,148.0,309.0,155.5,309.5,163.0,309.0,170.0,308.5,178.0,308.0" stroke="black" stroke-width="2" fill="none" />
<polyline points="179.0,289.5,186.5,282.0,194.5,274.5,202.0,267.5,210.0,260.0,217.5,252.5" stroke="black" stroke-width="2" fill="none" />
<polyline points="235.5,242.0,243.5,242.0" stroke="black" stroke-width="2" fill="none" />
<polyline points="250.0,252.0,242.0,260.0,234.5,267.0,226.5,274.5,219.0,282.5,211.5,289.5" stroke="black" stroke-width="2" fill="none" />
<polyline points="219.5,298.0,228.0,290.5,236.5,283.0,245.0,275.5,253.5,268.0,261.5,260.0,269.5,252.5" stroke="black" stroke-width="2" fill="none" />
<polyline points="275.5,252.5,283.5,251.5" stroke="black" stroke-width="2" fill="none" />
<polyline points="298.5,254.0,307.0,253.5,314.5,253.5" stroke="black" stroke-width="2" fill="none" />
<polyline points="314.5,244.5,323.0,244.0" stroke="black" stroke-width="2" fill="none" />
<polyline points="269.0,260.0,260.5,261.0,252.5,262.0,244.5,263.0,236.5,263.0,228.0,263.0,220.0,263.0,211.5,263.5,203.0,263.5,195.0,263.5,187.0,263.0,179.0,263.0,171.5,263.5,164.0,263.5" stroke="black" stroke-width="2" fill="none" />
<polyline points="163.0,266.5,171.0,259.5,178.0,252.0,186.0,244.5" stroke="black" stroke-width="2" fill="none" />
<polyline points="188.0,236.5,180.0,244.0,172.0,252.0,164.5,259.5" stroke="black" stroke-width="2" fill="none" />
<polyline points="162.5,258.0,170.0,257.5,178.0,256.5,186.5,256.5,194.5,257.0,203.0,257.0,211.0,256.5,220.0,256.0,228.5,256.0,237.0,255.5,245.0,255.5,253.0,254.5,261.5,253.0,269.0,251.5" stroke="black" stroke-width="2" fill="none" />
<polyline points="269.5,248.5,261.5,249.0,254.0,249.5,246.0,250.0,238.0,250.5,230.0,251.5,221.5,251.5,212.5,251.5,203.5,251.5,195.0,252.0,186.5,252.5,178.5,252.5,170.0,253.0,162.0,253.0" stroke="black" stroke-width="2" fill="none" />
<polyline points="161.5,250.0,169.0,249.5,178.0,248.5,186.5,248.0" stroke="black" stroke-width="2" fill="none" />
<polyline points="189.0,229.0,181.0,236.0,173.0,243.0,164.5,250.0" stroke="black" stroke-width="2" fill="none" />
<polyline points="163.5,248.0,171.0,247.0,178.5,246.0,186.0,244.5" stroke="black" stroke-width="2" fill="none" />
<polyline points="164.0,242.0,172.0,234.5,179.0,227.0,187.0,219.5" stroke="black" stroke-width="2" fill="none" />
<polyline points="187.5,211.0,179.0,218.5,170.5,226.0,162.0,233.5" stroke="black" stroke-width="2" fill="none" />
<polyline points="164.5,232.5,172.5,232.0,181.0,231.5,189.0,231.0" stroke="black" stroke-width="2" fill="none" />
<polyline points="187.0,239.0,180.0,239.5,172.5,240.0,164.0,240.5" stroke="black" stroke-width="2" fill="none" />
<polyline points="164.5,229.5,172.5,229.0,180.0,228.0,188.0,227.5" stroke="black" stroke-width="2" fill="none" />
<polyline points="189.5,224.5,181.5,224.5,173.5,225.5,165.0,226.0" stroke="black" stroke-width="2" fill="none" />
<polyline points="162.5,226.0,170.5,218.5,179.0,211.0,186.5,203.5" stroke="black" stroke-width="2" fill="none" />
<polyline points="185.5,197.0,178.0,204.5,170.0,211.5,162.5,219.0" stroke="black" stroke-width="2" fill="none" />
<polyline points="162.0,218.5,169.5,218.0,177.5,217.0,185.5,216.0" stroke="black" stroke-width="2" fill="none" />
<polyline points="188.0,220.5,180.0,221.0,172.0,221.5,163.5,222.0" stroke="black" stroke-width="2" fill="none" />
<polyline points="164.0,214.0,172.0,214.0,180.0,213.5,187.5,213.5" stroke="black" stroke-width="2" fill="none" />
<polyline points="204.0,202.0,212.0,194.5" stroke="black" stroke-width="2" fill="none" />
<polyline points="210.5,188.0,219.0,181.0" stroke="black" stroke-width="2" fill="none" />
<polyline points="219.5,183.5,212.0,184.5" stroke="black" stroke-width="2" fill="none" />
<polyline points="213.5,181.0,221.0,180.5,228.5,180.0,236.5,180.0,244.5,180.0,252.5,180.0,260.5,179.5" stroke="black" stroke-width="2" fill="none" />
<polyline points="260.0,179.0,252.0,186.5" stroke="black" stroke-width="2" fill="none" />
<polyline points="250.5,179.5,242.5,187.0" stroke="black" stroke-width="2" fill="none" />
<polyline points="236.0,187.5,243.5,180.0" stroke="black" stroke-width="2" fill="none" />
<polyline points="234.5,181.0,227.0,188.5" stroke="black" stroke-width="2" fill="none" />
<polyline points="228.5,187.5,236.5,186.5,244.5,185.5,253.0,185.0,261.0,184.0" stroke="black" stroke-width="2" fill="none" />
<polyline points="248.5,194.0,240.5,195.0" stroke="black" stroke-width="2" fill="none" />
<polyline points="243.5,196.5,235.5,204.0" stroke="black" stroke-width="2" fill="none" />
<polyline points="234.5,200.5,242.5,200.0" stroke="black" stroke-width="2" fill="none" />
<polyline points="243.5,197.5,235.0,198.5,227.5,199.5" stroke="black" stroke-width="2" fill="none" />
<polyline points="229.0,204.5,221.0,212.0" stroke="black" stroke-width="2" fill="none" />
<polyline points="218.0,204.5,210.0,212.0" stroke="black" stroke-width="2" fill="none" />
<polyline points="211.0,208.0,219.0,208.0" stroke="black" stroke-width="2" fill="none" />
<polyline points="226.5,203.5,218.0,204.5,209.5,205.0" stroke="black" stroke-width="2" fill="none" />
<polyline points="212.5,201.5,204.5,201.5" stroke="black" stroke-width="2" fill="none" />
<polyline points="204.5,200.0,212.5,199.0" stroke="black" stroke-width="2" fill="none" />
<polyline points="201.0,196.0,201.0,204.0" stroke="black" stroke-width="2" fill="none" />
<polyline points="188.0,209.0,180.5,210.0,172.0,211.0,164.0,211.5" stroke="black" stroke-width="2" fill="none" />
<polyline points="162.5,211.0,171.0,203.5,179.0,195.5,187.0,188.0" stroke="black" stroke-width="2" fill="none" />
<polyline points="188.5,195.5,180.0,196.0,172.0,196.5,164.0,197.5" stroke="black" stroke-width="2" fill="none" />
<polyline points="163.0,200.5,170.5,192.5,179.0,185.0,187.0,177.0" stroke="black" stroke-width="2" fill="none" />
<polyline points="186.5,180.5,178.5,181.5,170.5,182.5,162.0,183.0" stroke="black" stroke-width="2" fill="none" />
<polyline points="164.5,179.5,172.5,171.5,181.0,163.5,189.0,156.5" stroke="black" stroke-width="2" fill="none" />
<polyline points="187.0,161.5,178.0,162.0,169.5,163.0,161.0,164.0" stroke="black" stroke-width="2" fill="none" />
<polyline points="162.0,167.5,169.5,167.0,178.0,166.0,186.0,165.5" stroke="black" stroke-width="2" fill="none" />
<polyline points="190.0,164.5,182.0,172.0,174.0,179.5,166.0,187.0" stroke="black" stroke-width="2" fill="none" />
<polyline points="163.5,187.5,171.5,187.0,179.5,186.0,187.5,185.0" stroke="black" stroke-width="2" fill="none" />
<polyline points="186.5,189.0,178.5,189.5,171.0,190.5,163.0,191.0" stroke="black" stroke-width="2" fill="none" />
<polyline points="164.0,193.0,172.5,185.5,180.5,178.5,188.5,171.0" stroke="black" stroke-width="2" fill="none" />
<polyline points="187.0,177.0,178.5,177.5,169.5,178.0,161.5,178.5" stroke="black" stroke-width="2" fill="none" />
<polyline points="161.5,173.5,170.0,173.5,178.5,172.5,187.0,172.0" stroke="black" stroke-width="2" fill="none" />
<polyline points="186.0,169.0,178.0,169.0,170.5,169.0,162.0,169.0" stroke="black" stroke-width="2" fill="none" />
<polyline points="164.0,161.0,172.0,153.5,180.0,146.0,188.0,138.0,196.0,131.0,204.0,123.5,212.0,115.5,220.5,108.0,228.5,100.0,236.5,92.5" stroke="black" stroke-width="2" fill="none" />
<polyline points="236.0,85.5,227.5,93.0,219.0,100.0,211.0,107.5,203.0,115.5,195.0,123.0,187.0,130.0,179.0,137.5,171.0,145.0,162.5,152.5" stroke="black" stroke-width="2" fill="none" />
<polyline points="162.5,153.0,170.5,153.0,178.5,152.5,186.5,152.5" stroke="black" stroke-width="2" fill="none" />
<polyline points="183.5,151.0,191.5,148.0,199.5,148.5,207.5,149.5,215.5,149.0,223.5,148.5,231.5,148.5,235.5,157.5,232.5,165.5,229.0,167.5,237.0,164.0,247.0,164.5,238.5,167.0,235.0,167.0" stroke="black" stroke-width="2" fill="none" />
<polyline points="227.0,180.0,219.5,188.0" stroke="black" stroke-width="2" fill="none" />
<polyline points="225.0,181.0,221.5,181.0,221.5,182.0,221.0,190.0,220.0,200.0,227.5,199.0,222.5,210.5,224.0,213.5,230.0,209.5,232.0,211.0,237.0,212.5" stroke="black" stroke-width="2" fill="none" />
<polyline points="252.5,219.0,252.5,217.0,260.5,217.5" stroke="black" stroke-width="2" fill="none" />
<polyline points="244.5,207.0,237.0,213.0,234.0,207.0,223.0,207.5,215.0,207.5,217.0,210.5,212.5,209.5,217.0,197.5,226.0,188.0,231.0,183.0,236.0,181.5,238.5,179.5,225.5,172.5,222.0,168.5,217.0,167.0,218.0,159.0,218.0,157.0" stroke="black" stroke-width="2" fill="none" />
<polyline points="221.0,155.5,229.0,153.5,237.0,157.5" stroke="black" stroke-width="2" fill="none" />
<polyline points="250.0,147.5,257.5,139.5,266.0,132.0" stroke="black" stroke-width="2" fill="none" />
<polyline points="267.0,124.0,259.0,131.5,250.5,139.5" stroke="black" stroke-width="2" fill="none" />
<polyline points="251.0,141.0,259.0,140.5,267.0,140.0" stroke="black" stroke-width="2" fill="none" />
<polyline points="268.5,140.5,260.5,148.0" stroke="black" stroke-width="2" fill="none" />
<polyline points="268.0,143.5,260.0,144.0,252.0,144.0" stroke="black" stroke-width="2" fill="none" />
<polyline points="253.0,146.0,253.0,138.0" stroke="black" stroke-width="2" fill="none" />
<polyline points="245.5,138.0,254.0,131.0,262.5,124.0" stroke="black" stroke-width="2" fill="none" />
<polyline points="259.5,128.0,252.0,128.5,244.0,129.0" stroke="black" stroke-width="2" fill="none" />
<polyline points="243.5,130.5,251.5,123.5" stroke="black" stroke-width="2" fill="none" />
<polyline points="251.5,121.0,244.0,122.0" stroke="black" stroke-width="2" fill="none" />
<polyline points="243.5,123.5,251.0,116.0" stroke="black" stroke-width="2" fill="none" />
<polyline points="250.5,116.5,242.0,117.0" stroke="black" stroke-width="2" fill="none" />
<polyline points="234.0,115.0,226.0,122.0" stroke="black" stroke-width="2" fill="none" />
<polyline points="219.5,120.5,227.5,113.0,235.5,106.0" stroke="black" stroke-width="2" fill="none" />
<polyline points="237.0,100.0,228.5,107.5,220.5,114.5,212.0,122.0,203.5,129.5" stroke="black" stroke-width="2" fill="none" />
<polyline points="205.0,136.5,213.0,135.5,221.5,134.0" stroke="black" stroke-width="2" fill="none" />
<polyline points="217.5,130.5,209.5,138.5,201.5,146.0" stroke="black" stroke-width="2" fill="none" />
<polyline points="196.5,146.0,204.5,138.5,212.0,131.0" stroke="black" stroke-width="2" fill="none" />
<polyline points="210.5,129.0,202.5,129.0,194.5,128.5,186.5,129.0,178.5,129.5" stroke="black" stroke-width="2" fill="none" />
<polyline points="178.5,130.5,186.5,122.5,194.5,115.5,202.5,107.5,211.0,100.0,219.0,92.0,226.5,84.0,234.5,76.5" stroke="black" stroke-width="2" fill="none" />
<polyline points="226.5,75.5,218.5,83.0,211.0,90.5,203.0,98.0" stroke="black" stroke-width="2" fill="none" />
<polyline points="202.0,96.5,210.0,96.0,218.0,95.5" stroke="black" stroke-width="2" fill="none" />
<polyline points="215.0,87.5,216.0,90.0,217.0,98.0,226.0,96.0,224.0,104.0,226.0,108.0,215.0,109.5,219.0,109.0" stroke="black" stroke-width="2" fill="none" />
<polyline points="228.5,106.5,236.0,106.0" stroke="black" stroke-width="2" fill="none" />
<polyline points="235.5,97.5,227.5,98.0" stroke="black" stroke-width="2" fill="none" />
<polyline points="227.5,92.5,227.5,100.5,227.5,108.5" stroke="black" stroke-width="2" fill="none" />
<polyline points="234.5,122.5,227.0,130.0" stroke="black" stroke-width="2" fill="none" />
<polyline points="229.0,129.0,237.0,129.0" stroke="black" stroke-width="2" fill="none" />
<polyline points="236.5,131.0,228.5,139.0,220.0,146.5" stroke="black" stroke-width="2" fill="none" />
<polyline points="219.5,140.0,211.0,148.0" stroke="black" stroke-width="2" fill="none" />
<polyline points="212.5,146.0,220.5,145.0,228.5,145.0,236.5,144.5" stroke="black" stroke-width="2" fill="none" />
<polyline points="237.0,140.5,228.5,147.5" stroke="black" stroke-width="2" fill="none" />
<polyline points="229.5,133.5,237.5,133.0,245.5,132.5,253.0,132.5,260.5,132.5,268.5,132.5" stroke="black" stroke-width="2" fill="none" />
<polyline points="267.5,136.5,259.5,136.5,251.5,136.5,243.5,137.0" stroke="black" stroke-width="2" fill="none" />
<polyline points="244.0,136.5,236.0,137.0,228.0,137.0,220.0,137.0,212.0,137.5,204.5,137.5,196.0,138.5,187.0,139.0,178.5,139.5,170.0,141.0,162.0,142.0" stroke="black" stroke-width="2" fill="none" />
<polyline points="166.0,141.0,174.0,133.5" stroke="black" stroke-width="2" fill="none" />
<polyline points="179.5,136.0,187.5,136.0" stroke="black" stroke-width="2" fill="none" />
<polyline points="185.0,142.5,180.5,144.5,184.0,149.0,183.0,157.0,183.0,165.0,183.0,173.0,183.0,180.5,183.0,188.5,183.0,196.5,183.5,204.5,184.5,212.5,184.5,220.5,184.5,229.0,183.5,237.5,185.0,245.5,186.0,253.5,192.5,253.5,200.5,253.0,208.5,253.0,216.5,253.0,224.5,253.0,232.5,252.5,240.5,251.5,248.5,252.0,256.5,252.5" stroke="black" stroke-width="2" fill="none" />
<polyline points="260.0,266.5,267.5,271.5,268.0,285.5,273.0,277.0,273.5,283.0,277.0,291.5,280.0,286.0,288.5,284.0,295.5,291.5,295.5,285.0,303.0,285.0,308.5,280.0,316.5,282.0,324.5,280.5,332.5,277.5,333.5,282.5,341.5,279.5,343.5,277.0,352.0,277.0,360.0,274.0,368.5,274.5,376.0,271.5,383.5,273.0,391.5,272.0,399.5,264.5,402.0,269.5,410.0,266.5,414.5,262.5,422.5,259.0,430.0,258.5,438.0,256.5,446.0,250.5,450.0,254.5,454.0,258.5,458.0,256.5,466.0,250.0,474.0,245.0,475.5,249.5,483.5,254.5,491.5,255.5,498.5,259.5,506.5,258.5,510.5,253.5" stroke="black" stroke-width="2" fill="none" />
<polyline points="504.5,197.0,497.0,198.0,489.5,199.0,481.5,203.5,476.5,200.5,478.0,199.0,482.0,190.0,474.0,188.0" stroke="black" stroke-width="2" fill="none" />
<polyline points="480.0,183.0,488.0,184.5,484.0,192.5,480.0,201.5,471.5,203.0,476.0,190.0,485.0,195.5,493.0,187.5,488.0,192.5,492.5,195.0,500.0,194.0,508.5,193.0" stroke="black" stroke-width="2" fill="none" />
<polyline points="506.0,189.0,514.0,188.5" stroke="black" stroke-width="2" fill="none" />
<polyline points="444.5,203.5,436.5,204.0,428.5,204.5" stroke="black" stroke-width="2" fill="none" />
<polyline points="423.5,203.5,431.0,205.5,435.0,203.0,440.5,204.5,445.5,213.0,447.0,221.0,451.0,223.5,452.5,231.5,456.5,239.5,452.0,247.5,442.0,256.0,435.0,265.0,444.0,267.0,447.0,277.5,455.5,270.5,459.5,270.0,461.0,279.0,469.0,276.0,474.5,271.0,482.5,271.5,482.0,264.5,492.0,262.0,490.0,270.5,492.5,274.5,489.5,274.5,494.5,284.5,491.5,288.5,494.5,284.5,495.0,277.5,502.5,280.5" stroke="black" stroke-width="2" fill="none" />
<polyline points="510.0,296.0,511.5,284.0,509.5,289.0,501.5,289.0,498.5,296.0,490.5,296.0,489.0,301.0,483.0,296.5,475.0,296.5,464.0,291.5,457.5,284.5,451.5,286.5,444.0,285.0,436.0,288.0,433.0,280.5,428.5,289.5,426.5,291.5,421.5,288.5,413.5,291.5,409.5,295.5,401.0,293.5,393.0,295.5,387.0,293.5,380.0,295.5,370.0,293.5,360.5,297.5,356.5,295.5,348.5,298.0,340.5,298.0,337.5,294.0,333.0,299.0,328.0,296.5,324.0,300.5,316.0,305.5,315.0,299.0,307.0,301.0,302.0,308.0,293.5,306.0,285.5,306.0,277.5,312.0,269.5,309.0,263.5,310.5,256.0,310.0,251.0,310.0,244.5,321.0,240.5,330.0,238.5,339.0,230.0,339.5,221.0,337.5,213.0,338.5,205.0,339.5,199.5,337.5,194.5,340.5,189.0,337.0,193.0,337.0,198.0,335.5,195.0,327.0,190.5,325.0,191.5,315.5,184.5,314.5,178.0,310.0,172.0,305.0,175.5,304.0,173.5,296.0,167.0,296.0,165.0,287.5,159.5,285.5,161.5,277.5,163.5,269.5,163.5,262.0,163.0,254.0,163.5,246.0,162.5,238.0,163.0,230.0,163.0,222.0,163.0,213.5,163.0,205.5,163.5,197.0,163.0,189.0,163.0,181.0,163.0,173.0,163.0,165.0,163.5,157.0,163.5,149.0,163.5,141.0,165.5,132.5,168.5,124.0,176.5,116.0,177.0,119.0" stroke="black" stroke-width="2" fill="none" />
<polyline points="181.0,119.0,189.0,118.5,197.0,118.5,204.5,118.0,212.5,117.5,220.0,116.5,227.5,116.0,235.0,115.5" stroke="black" stroke-width="2" fill="none" />
<polyline points="237.5,112.0,229.5,113.5,221.5,114.0,214.0,114.5,206.0,115.0" stroke="black" stroke-width="2" fill="none" />
<polyline points="203.0,106.5,211.5,105.5,219.5,105.0" stroke="black" stroke-width="2" fill="none" />
<polyline points="233.5,99.0,226.0,99.5,218.0,99.5,209.5,100.0,201.5,100.0" stroke="black" stroke-width="2" fill="none" />
<polyline points="202.5,92.0,210.5,91.5,218.5,91.0,226.5,90.5,235.0,90.0" stroke="black" stroke-width="2" fill="none" />
<polyline points="220.5,74.0,212.0,82.0,203.0,90.0" stroke="black" stroke-width="2" fill="none" />
<polyline points="203.0,88.5,211.0,87.5,218.5,87.0,227.0,87.0,235.0,87.5" stroke="black" stroke-width="2" fill="none" />
<polyline points="211.5,75.5,203.5,83.0" stroke="black" stroke-width="2" fill="none" />
<polyline points="205.0,86.0,212.5,85.5,220.0,85.5,227.5,85.0,235.5,83.5" stroke="black" stroke-width="2" fill="none" />
<polyline points="204.5,76.5,196.5,84.0" stroke="black" stroke-width="2" fill="none" />
<polyline points="197.0,81.5,205.0,81.5,213.0,81.0,220.5,80.5,228.0,80.0,235.5,79.5" stroke="black" stroke-width="2" fill="none" />
<polyline points="235.5,107.0,227.5,107.5,219.5,108.0,211.0,108.5,202.5,109.5,194.0,110.0" stroke="black" stroke-width="2" fill="none" />
<polyline points="187.5,116.0,180.0,123.5" stroke="black" stroke-width="2" fill="none" />
<polyline points="178.5,123.0,187.0,122.5,195.0,121.5,202.5,120.5,211.0,120.0,218.5,119.5,226.5,119.0,234.0,118.5" stroke="black" stroke-width="2" fill="none" />
<polyline points="242.5,127.0,234.5,126.5,226.5,127.0,218.5,126.0,214.5,124.0,206.5,126.5,200.5,120.0,195.0,128.0,185.5,124.0,184.5,121.5,174.5,128.0,166.5,135.5" stroke="black" stroke-width="2" fill="none" />
<polyline points="164.0,134.5,172.0,134.0" stroke="black" stroke-width="2" fill="none" />
<polyline points="169.5,127.0,177.5,124.0" stroke="black" stroke-width="2" fill="none" />
<polyline points="180.5,126.5,188.0,126.0,196.0,125.0,203.5,125.0,211.0,125.0,218.5,124.5,226.5,124.0,234.0,123.0,242.0,122.5,250.5,122.0,259.0,121.5,267.0,121.0" stroke="black" stroke-width="2" fill="none" />
<polyline points="260.5,125.0,253.0,120.5,245.0,118.0,237.0,116.5,233.0,112.5,234.0,104.0,234.0,95.5,234.0,87.0,240.0,80.5,232.5,77.0,224.5,77.0,216.5,76.5,208.5,76.5,200.5,77.0,192.5,79.5" stroke="black" stroke-width="2" fill="none" />
<polyline points="195.0,77.0,197.0,85.5,198.0,94.0,198.0,102.5" stroke="black" stroke-width="2" fill="none" />
<polyline points="197.0,76.5,205.0,76.5,213.5,76.0,221.5,75.0,229.0,74.5,236.5,73.5" stroke="black" stroke-width="2" fill="none" />
<polyline points="234.0,87.0,222.0,96.5,219.0,106.0,200.0,110.0,192.0,112.5,184.0,113.5,175.5,116.5,167.5,123.0" stroke="black" stroke-width="2" fill="none" />
<polyline points="164.0,133.0,172.0,133.0,180.0,132.0,187.5,131.5,195.5,131.0" stroke="black" stroke-width="2" fill="none" />
<polyline points="193.0,129.5,192.0,137.5,199.5,132.5,207.5,132.5,218.0,129.5,219.0,133.5,227.0,133.5,227.0,130.5" stroke="black" stroke-width="2" fill="none" />
<polyline points="240.5,136.0,237.5,137.0,237.5,144.5,240.5,145.5,241.5,141.5,246.0,147.5,254.5,147.5,262.0,148.5,262.0,155.5,262.0,164.0,262.0,172.0,262.5,179.5,262.5,187.5,262.5,196.0,262.5,204.5,263.0,212.5,260.0,220.5,263.5,227.0,263.5,235.0,263.5,243.0,263.0,251.5" stroke="black" stroke-width="2" fill="none" />
<polyline points="275.0,253.0,266.5,253.5,258.5,253.5,250.0,254.0,242.0,254.0,234.0,254.5,226.5,255.5,218.5,256.5,210.5,257.0,203.0,257.5,195.0,257.5,187.0,257.5,179.0,257.5,171.5,257.5,163.5,257.5,155.5,258.5,147.5,259.5,139.5,260.5,131.0,260.5,122.5,261.0,114.5,261.0,106.5,261.0,98.5,261.0,90.5,261.5,82.0,262.5,74.0,263.0,66.5,263.5,58.5,264.5,51.0,266.0,43.0,266.0,35.0,266.5,27.0,266.5,18.5,267.0,10.5,266.5,2.0,267.0" stroke="black" stroke-width="2" fill="none" />
<polyline points="2.0,264.5,10.0,264.0,18.0,263.0,26.5,262.5,34.0,262.0,42.0,261.5,50.5,261.5,58.5,262.0,66.5,262.0" stroke="black" stroke-width="2" fill="none" />
<polyline points="68.5,255.5,76.5,255.5,84.5,255.5" stroke="black" stroke-width="2" fill="none" />
<polyline points="92.0,256.0,100.5,255.5,108.5,255.5" stroke="black" stroke-width="2" fill="none" />
<polyline points="123.5,260.0,115.5,267.5,108.0,275.0,100.5,282.5" stroke="black" stroke-width="2" fill="none" />
<polyline points="97.5,283.5,95.5,291.0,90.0,297.0" stroke="black" stroke-width="2" fill="none" />
<polyline points="90.5,293.0,82.5,293.5" stroke="black" stroke-width="2" fill="none" />
<polyline points="84.0,289.0,92.5,281.5,101.0,274.0,109.0,266.5,117.5,258.5,125.5,250.5,133.5,243.0" stroke="black" stroke-width="2" fill="none" />
<polyline points="124.5,245.5,116.0,253.0,108.0,260.5,100.0,267.5,92.5,275.0,84.5,282.0" stroke="black" stroke-width="2" fill="none" />
<polyline points="77.5,288.0,85.5,287.5,88.5,291.5" stroke="black" stroke-width="2" fill="none" />
<polyline points="101.0,290.5,109.0,290.5,116.5,290.0" stroke="black" stroke-width="2" fill="none" />
<polyline points="121.0,285.5,122.5,293.5,116.0,293.0,122.0,294.5,129.0,298.5,138.5,300.5,141.5,303.5,139.0,304.0,142.0,311.5,145.5,315.5,141.5,316.5,151.5,324.5,151.5,332.5,151.0,334.5,148.5,339.0,160.0,337.5,172.0,336.5" stroke="black" stroke-width="2" fill="none" />
<polyline points="156.0,317.0,148.0,317.5" stroke="black" stroke-width="2" fill="none" />
<polyline points="147.0,306.5,155.0,305.5" stroke="black" stroke-width="2" fill="none" />
<polyline points="148.5,301.0,156.5,293.5" stroke="black" stroke-width="2" fill="none" />
<polyline points="155.0,291.5,147.0,292.0,139.0,292.0,130.5,292.5,122.5,293.0" stroke="black" stroke-width="2" fill="none" />
<polyline points="123.5,291.0,132.5,283.5,140.5,276.5" stroke="black" stroke-width="2" fill="none" />
<polyline points="139.0,269.0,131.0,276.5,123.5,284.0" stroke="black" stroke-width="2" fill="none" />
<polyline points="127.0,286.5,129.0,290.5,137.0,292.5,145.5,293.5,143.0,296.5,142.0,299.5,145.0,297.5,156.5,299.5,157.5,304.5,156.5,312.0" stroke="black" stroke-width="2" fill="none" />
<polyline points="171.0,299.0,163.5,300.0,156.0,300.5,148.0,300.5,140.0,301.0" stroke="black" stroke-width="2" fill="none" />
<polyline points="141.0,299.0,148.5,291.5,156.5,284.0" stroke="black" stroke-width="2" fill="none" />
<polyline points="157.0,277.5,149.0,278.5,141.0,279.0,132.5,280.0,124.5,281.0,115.5,281.5,107.5,281.5" stroke="black" stroke-width="2" fill="none" />
<polyline points="110.0,285.5,108.0,288.5,106.5,296.5,98.5,297.5,106.0,309.0,114.0,305.0,122.0,305.5,130.0,304.5,131.0,302.5,132.0,296.0,136.0,289.0,144.0,293.0,149.5,296.0,151.0,309.0,158.5,304.0,164.0,307.0,164.5,313.0,172.0,310.5,179.0,304.5,186.0,311.5,193.5,307.5,196.0,311.5,198.0,305.0,201.5,307.0,204.0,303.0,212.0,302.0,220.0,300.5,232.0,303.0,240.0,302.0,248.0,299.0,254.0,296.5,255.0,298.5" stroke="black" stroke-width="2" fill="none" />
<polyline points="252.5,294.5,248.5,302.5,237.0,307.5,237.0,316.5,232.0,319.0,223.0,324.5,231.0,326.5,222.0,339.5,215.5,341.0" stroke="black" stroke-width="2" fill="none" />
<polyline points="203.5,311.0,211.5,310.5,220.5,310.0,228.5,309.5" stroke="black" stroke-width="2" fill="none" />
<polyline points="247.0,304.0,242.0,312.0,237.5,311.5,229.5,313.5,225.0,318.0,217.0,317.0,216.5,311.0,208.5,309.0" stroke="black" stroke-width="2" fill="none" />
<polyline points="200.5,309.5,203.0,305.5,204.5,313.5,213.5,311.0,207.0,323.5,207.0,329.0,208.0,333.0" stroke="black" stroke-width="2" fill="none" />
<polyline points="187.0,292.0,179.0,293.0,171.5,293.0,164.0,293.5" stroke="black" stroke-width="2" fill="none" />
<polyline points="161.5,290.0,158.5,298.0,163.5,300.0,162.0,305.0,168.0,307.5,162.0,310.5" stroke="black" stroke-width="2" fill="none" />
<polyline points="155.0,322.5,147.5,322.5,140.0,323.0,132.5,323.0,124.5,324.0,116.5,325.0" stroke="black" stroke-width="2" fill="none" />
<polyline points="115.5,327.0,123.5,327.0" stroke="black" stroke-width="2" fill="none" />
<polyline points="124.5,323.0,116.5,331.0" stroke="black" stroke-width="2" fill="none" />
<polyline points="108.0,332.0,116.0,331.5,123.5,330.5,131.5,330.0,140.0,330.0,148.0,330.5,155.5,330.0,163.5,330.0,172.0,330.5,180.0,330.5" stroke="black" stroke-width="2" fill="none" />
<polyline points="139.5,331.0,132.0,339.0" stroke="black" stroke-width="2" fill="none" />
<polyline points="118.0,341.0,120.5,331.0,112.5,326.0,115.0,318.0,109.0,308.0" stroke="black" stroke-width="2" fill="none" />
<polyline points="115.0,308.5,106.5,316.0,98.5,323.5,90.5,330.5,82.0,337.5" stroke="black" stroke-width="2" fill="none" />
<polyline points="81.5,336.5,89.5,336.5" stroke="black" stroke-width="2" fill="none" />
<polyline points="83.5,332.5,75.5,340.0" stroke="black" stroke-width="2" fill="none" />
<polyline points="73.0,332.0,81.0,331.5,89.5,331.5,98.0,331.5" stroke="black" stroke-width="2" fill="none" />
<polyline points="100.5,317.0,108.5,317.0" stroke="black" stroke-width="2" fill="none" />
<polyline points="116.0,315.0,124.0,314.5" stroke="black" stroke-width="2" fill="none" />
<polyline points="126.0,310.0,131.5,317.5" stroke="black" stroke-width="2" fill="none" />
<polyline points="131.5,306.5,124.0,306.5,116.5,306.5,109.5,306.5,101.5,307.0" stroke="black" stroke-width="2" fill="none" />
<polyline points="109.0,301.5,116.5,300.5" stroke="black" stroke-width="2" fill="none" />
<polyline points="124.5,296.5,116.5,297.5,108.5,294.5,108.5,297.5,100.0,302.0,92.0,305.5,84.0,304.5,76.0,306.0" stroke="black" stroke-width="2" fill="none" />
<polyline points="75.5,309.0,67.0,317.0" stroke="black" stroke-width="2" fill="none" />
<polyline points="66.0,317.0,58.0,317.5" stroke="black" stroke-width="2" fill="none" />
<polyline points="52.0,315.5,60.0,308.0" stroke="black" stroke-width="2" fill="none" />
<polyline points="59.0,308.5,50.5,309.5,42.0,310.5" stroke="black" stroke-width="2" fill="none" />
<polyline points="40.0,305.0,37.0,313.5,37.0,320.0,33.0,324.0,29.0,328.0,30.0,336.5,33.0,341.5" stroke="black" stroke-width="2" fill="none" />
<polyline points="33.5,335.0,41.5,334.5,49.5,333.5" stroke="black" stroke-width="2" fill="none" />
<polyline points="59.5,330.5,67.0,330.5" stroke="black" stroke-width="2" fill="none" />
<polyline points="67.5,326.5,69.0,334.5" stroke="black" stroke-width="2" fill="none" />
<polyline points="72.5,339.0,62.5,333.0,68.5,325.5,67.5,318.5,76.5,313.5,74.5,305.5,62.0,296.5,61.5,290.0,57.5,289.5,52.0,291.5" stroke="black" stroke-width="2" fill="none" />
<polyline points="51.5,290.0,59.5,289.0" stroke="black" stroke-width="2" fill="none" />
<polyline points="52.5,287.0,48.5,295.0,49.5,302.5,54.0,308.5,55.0,313.5,53.5,319.5,62.5,316.0,68.5,306.0,72.5,304.0,81.0,299.5,88.5,299.5,96.5,298.5" stroke="black" stroke-width="2" fill="none" />
<polyline points="100.5,299.5,92.5,300.0,85.5,300.0,77.0,300.5" stroke="black" stroke-width="2" fill="none" />
<polyline points="77.5,309.5,69.5,310.0" stroke="black" stroke-width="2" fill="none" />
<polyline points="66.0,310.5,70.0,312.5,61.5,315.0,66.5,322.0,73.5,317.0,81.5,317.5,85.5,311.5,89.5,316.0,86.5,322.5,97.5,327.0,99.0,331.0" stroke="black" stroke-width="2" fill="none" />
<polyline points="107.0,321.5,99.0,322.0,90.5,322.5,82.5,323.0,74.5,324.5" stroke="black" stroke-width="2" fill="none" />
<polyline points="73.5,326.5,73.5,334.5" stroke="black" stroke-width="2" fill="none" />
<polyline points="78.0,322.0,86.0,318.0" stroke="black" stroke-width="2" fill="none" />
<polyline points="67.0,292.0,58.5,293.0,49.5,294.5,41.5,295.0" stroke="black" stroke-width="2" fill="none" />
<polyline points="43.0,294.0,51.5,287.0,59.5,280.0,67.5,273.0,75.5,265.5,84.0,258.0,92.5,251.0,100.5,243.5,108.0,236.5" stroke="black" stroke-width="2" fill="none" />
<polyline points="100.0,238.0,92.0,245.0,84.0,251.5,76.5,258.5,68.5,265.5,60.0,272.5" stroke="black" stroke-width="2" fill="none" />
<polyline points="58.0,273.5,66.0,273.0,74.5,272.5,82.5,271.5,91.0,270.5,99.0,269.5,107.5,269.5" stroke="black" stroke-width="2" fill="none" />
<polyline points="123.5,274.0,115.5,281.5,107.0,289.0" stroke="black" stroke-width="2" fill="none" />
<polyline points="104.0,289.0,103.0,297.0,106.0,307.0,113.5,308.5,124.5,316.5,127.5,325.5,133.5,327.5,136.5,335.0,140.5,342.0,137.0,339.5,124.0,339.5,129.0,341.5,137.0,334.5,148.0,339.0" stroke="black" stroke-width="2" fill="none" />
<polyline points="178.0,341.5,186.5,335.0,181.0,333.0,180.0,328.5,172.5,327.5,176.0,321.5,176.0,316.5,169.0,314.5,158.0,313.5,144.5,310.5,147.0,307.5,149.5,300.5,154.5,299.5,160.0,291.5,156.5,288.5,148.0,289.5" stroke="black" stroke-width="2" fill="none" />
<polyline points="162.0,289.5,170.0,295.5,172.0,298.5" stroke="black" stroke-width="2" fill="none" />
<polyline points="158.0,259.5,158.0,259.0,150.0,255.5" stroke="black" stroke-width="2" fill="none" />
<polyline points="123.0,261.5,115.5,262.0,108.0,262.0,101.0,263.0,93.5,264.0,85.0,265.0,77.5,266.0" stroke="black" stroke-width="2" fill="none" />
<polyline points="65.0,276.5,75.0,283.0,74.0,291.0,75.0,297.0,81.0,300.0,87.0,310.0,82.5,318.0,69.5,318.0,80.0,322.0,83.5,327.0,85.5,333.0,89.5,333.0,94.0,339.5,98.5,339.0,102.5,333.0,106.0,338.0,109.0,334.0,113.0,341.5,117.5,338.5,122.5,332.5,129.0,329.5,135.0,329.5,137.5,333.0,139.0,329.5,147.0,332.0,154.0,328.5,155.0,333.0,167.0,337.0,181.0,340.0" stroke="black" stroke-width="2" fill="none" />
<polyline points="194.0,327.0,186.0,329.0,181.0,330.5,176.0,329.5,172.5,333.5,174.5,324.5,172.0,330.5,165.0,327.5,161.0,323.5,153.0,324.5,149.0,331.0,142.5,319.0,135.0,307.0,137.0,305.0,131.5,310.5,127.5,307.0,120.5,314.5,119.0,309.0,111.0,311.5,104.5,320.5,101.0,325.5,93.0,322.5,90.0,327.5,88.0,330.0,80.0,331.0,78.0,330.0,77.0,322.0,77.0,324.5,69.0,330.0,66.0,331.0,64.5,328.0,60.5,326.0,52.5,327.0,46.5,332.0,42.5,337.0,34.5,334.0,29.5,339.0,21.5,339.0,13.5,340.0,11.5,341.0,9.0,335.0,10.5,327.0,11.0,319.0,9.0,311.0,7.5,307.0,8.5,296.0,16.5,290.0,13.0,284.5,13.0,277.5,23.5,272.5,20.5,270.5,13.0,275.0,5.5,275.0" stroke="black" stroke-width="2" fill="none" />
<polyline points="5.5,272.0,13.5,264.5,21.0,257.0,28.5,250.0,35.5,242.0,43.5,234.5,51.5,227.0,59.0,219.5,66.5,211.5,74.5,203.5,82.0,195.5" stroke="black" stroke-width="2" fill="none" />
<polyline points="81.5,188.5,73.5,196.0,66.0,203.5,58.5,211.5,50.5,219.0,42.5,226.5,34.5,234.0,27.0,241.5,19.0,249.0,11.5,257.0,4.0,264.5" stroke="black" stroke-width="2" fill="none" />
<polyline points="2.0,261.0,10.5,260.5,18.5,260.0,26.5,259.5,34.5,260.0,43.0,260.0,51.5,259.0,60.0,258.0,68.0,257.0,76.0,257.0,83.5,257.0,91.5,256.0,99.5,255.5,107.5,254.5,115.5,254.0,123.5,253.5,132.0,253.0,140.5,253.0,148.5,252.5,156.5,252.0,164.0,251.5,172.0,251.0,179.5,251.5,187.0,251.0,194.0,250.5,202.0,250.0,209.5,250.0,218.0,250.0,226.0,250.0,235.0,249.5,243.5,249.0,251.0,248.0,258.5,247.0,266.0,245.5,274.0,244.5,282.0,243.0,290.0,242.0,298.0,241.5,306.0,241.0,313.5,240.5,321.5,240.0,329.5,240.0,338.0,239.5,346.0,239.5" stroke="black" stroke-width="2" fill="none" />
<polyline points="276.0,265.0,267.5,265.5,259.0,265.5,251.0,265.5,243.0,265.0,235.0,265.0,227.5,265.5,220.0,265.5,212.0,266.0,203.5,267.5,195.0,269.0,187.0,270.0,179.5,270.5,171.5,272.0,163.0,272.5,155.5,273.5,147.5,274.0,139.5,274.0,131.5,274.5,123.5,274.5,115.5,274.5,107.5,275.0,99.5,275.0,91.0,276.0,82.5,276.5,74.0,277.5,65.0,279.0,57.0,279.5" stroke="black" stroke-width="2" fill="none" />
<polyline points="51.0,282.5,43.0,290.0" stroke="black" stroke-width="2" fill="none" />
<polyline points="39.0,290.0,41.0,297.5,40.0,299.5,37.0,307.5,41.0,312.5,48.5,317.5,46.5,325.5,40.5,333.5,44.5,339.5" stroke="black" stroke-width="2" fill="none" />
<polyline points="28.0,329.0,36.0,321.0,43.0,313.0,50.5,305.5,57.5,298.5" stroke="black" stroke-width="2" fill="none" />
<polyline points="60.0,298.0,52.0,299.5,44.0,300.5,36.0,301.0,28.5,301.5" stroke="black" stroke-width="2" fill="none" />
<polyline points="18.5,300.0,10.5,308.0" stroke="black" stroke-width="2" fill="none" />
<polyline points="10.5,305.0,19.0,304.0" stroke="black" stroke-width="2" fill="none" />
<polyline points="20.0,298.5,11.5,298.5" stroke="black" stroke-width="2" fill="none" />
<polyline points="8.5,296.5,16.5,292.5,24.5,292.0,32.5,294.0,28.5,295.5,30.5,303.5,25.5,310.0,21.5,318.5,23.5,320.5,17.5,327.0,25.5,332.0,25.5,340.0" stroke="black" stroke-width="2" fill="none" />
<polyline points="20.5,323.0,13.0,330.5,5.0,338.5" stroke="black" stroke-width="2" fill="none" />
<polyline points="4.0,333.5,12.0,333.0" stroke="black" stroke-width="2" fill="none" />
<polyline points="12.5,323.0,20.5,315.5" stroke="black" stroke-width="2" fill="none" />
<polyline points="20.5,316.0,12.5,317.0" stroke="black" stroke-width="2" fill="none" />
<polyline points="5.5,321.5,6.5,319.5,5.5,326.5,4.0,339.5,14.0,335.5,20.5,326.0,29.0,322.0,36.5,316.0,44.5,316.0,46.0,310.5,53.0,309.0,53.0,303.5,59.5,306.5,62.0,299.0,64.0,305.5,74.0,309.5,82.0,308.5,90.0,307.5,98.0,315.0,102.0,316.5,106.0,316.5" stroke="black" stroke-width="2" fill="none" />
<polyline points="120.0,319.5,117.0,327.5,114.5,335.5,116.5,338.5,119.5,333.0" stroke="black" stroke-width="2" fill="none" />
<polyline points="140.5,336.0,143.0,328.0,135.5,316.0,127.5,315.0,127.5,310.0,122.5,309.0" stroke="black" stroke-width="2" fill="none" />
<polyline points="127.0,299.0,135.0,307.0,135.5,314.5,132.5,322.5,132.5,318.0,140.5,320.5,145.5,322.0,153.5,319.0,161.5,319.5,169.5,315.5,172.0,322.0,176.5,319.5,180.5,321.5,182.5,325.5,188.0,321.5,191.5,315.5,193.5,320.5,199.0,327.0,210.0,322.5,212.5,326.5,217.5,327.5,221.5,320.5,229.5,327.5,234.0,322.0,238.0,317.0,246.0,319.5,247.0,312.5,255.0,314.5" stroke="black" stroke-width="2" fill="none" />
<polyline points="292.5,300.0,284.0,298.5,276.5,299.5,270.0,294.0,267.0,294.0,259.0,291.5,251.0,295.0,243.0,295.5,235.0,296.5,227.0,300.5,219.0,303.0,214.0,297.0,208.0,294.0,200.0,297.0,191.5,297.0,183.5,298.0,181.0,309.0,178.0,307.5,170.0,302.0,162.0,295.0,154.0,294.5,151.0,290.5,148.5,286.0,140.5,286.0,132.5,286.0,124.5,284.5,119.0,290.5,116.5,288.0,108.5,288.0,104.5,286.0,100.5,297.0,98.0,290.5,97.0,285.0,89.5,283.0,85.5,292.0,80.0,296.0,76.0,289.0,69.0,294.5,61.0,296.5,53.0,294.5,53.5,298.5,52.0,296.5,44.0,301.0,39.0,297.0,35.0,302.5,32.5,310.5,24.5,311.5,14.0,321.5,14.0,326.0,10.0,332.0,4.0,328.0,2.0,322.5,14.5,325.0,15.5,317.0,20.0,308.5,25.0,297.5,29.0,288.0,36.5,286.0,47.5,280.5,55.0,272.0,47.0,269.0" stroke="black" stroke-width="2" fill="none" />
<polyline points="60.5,266.0,67.5,258.5,75.5,251.0,84.0,243.5,92.0,236.5,100.5,229.5" stroke="black" stroke-width="2" fill="none" />
<polyline points="89.0,229.0,81.5,236.0,74.5,243.0,67.0,250.5,59.5,258.0,52.0,266.0,44.0,273.0,35.5,280.5" stroke="black" stroke-width="2" fill="none" />
<polyline points="36.5,281.5,28.5,282.5" stroke="black" stroke-width="2" fill="none" />
<polyline points="28.5,280.5,36.0,273.0,43.0,265.5,50.5,257.5,58.0,250.0,66.5,242.0,74.5,234.0,82.5,226.0,91.0,218.5" stroke="black" stroke-width="2" fill="none" />
<polyline points="91.0,212.5,82.5,220.0,75.0,227.5,67.0,235.5,59.5,243.5,51.5,251.0,44.0,258.5,36.0,265.5,27.5,272.5" stroke="black" stroke-width="2" fill="none" />
<polyline points="29.5,275.0,37.0,274.5,44.5,273.5,52.0,272.5" stroke="black" stroke-width="2" fill="none" />
<polyline points="50.0,274.5,42.0,274.5,34.0,275.0,26.0,275.5,18.0,276.0,9.5,276.5,1.5,277.0" stroke="black" stroke-width="2" fill="none" />
<polyline points="6.0,280.5,14.0,273.0,21.0,265.0,29.0,257.0,37.5,249.5,45.0,242.0,52.5,234.5,60.0,227.5,67.5,219.5,75.0,211.5,82.5,204.5" stroke="black" stroke-width="2" fill="none" />
<polyline points="73.5,189.0,65.0,196.5,57.5,204.0,50.0,211.5,43.0,218.5,35.5,226.0,27.5,233.5,20.0,241.0,12.0,248.5,4.5,256.0" stroke="black" stroke-width="2" fill="none" />
<polyline points="4.0,254.5,12.0,254.0,19.5,253.5,27.0,253.0,35.5,253.0,43.5,252.5,51.5,252.0,59.0,251.5,66.5,251.0,74.0,250.0,81.5,250.0,89.5,249.5,98.5,248.0,107.0,247.0,115.0,246.0,123.5,245.0" stroke="black" stroke-width="2" fill="none" />
<polyline points="82.5,238.0,74.5,238.0,66.5,238.5,58.0,239.5" stroke="black" stroke-width="2" fill="none" />
<polyline points="68.0,199.5,60.0,200.0,53.0,201.0,45.0,201.5,37.0,201.5,28.5,202.0" stroke="black" stroke-width="2" fill="none" />
<polyline points="35.0,193.5,43.0,192.0,50.5,191.5,58.5,191.0" stroke="black" stroke-width="2" fill="none" />
<polyline points="52.5,178.5,44.5,186.0,36.5,193.5,28.5,201.5,20.5,209.0,12.5,217.0,4.0,225.0" stroke="black" stroke-width="2" fill="none" />
<polyline points="3.5,226.0,11.5,225.5,19.5,225.0,27.5,224.0,35.5,223.0,43.5,222.5,52.0,222.5,59.5,222.0,67.5,221.5,76.0,221.0" stroke="black" stroke-width="2" fill="none" />
<polyline points="74.0,179.5,66.0,187.0,57.5,195.0,49.5,202.5,42.0,209.5,34.5,217.0,27.5,225.0,20.0,233.0,12.5,241.0,5.0,249.0" stroke="black" stroke-width="2" fill="none" />
<polyline points="1.5,249.5,9.5,249.5,18.0,249.5,26.0,249.5,34.0,249.0,41.5,249.0,49.5,248.5,58.5,247.5,66.5,246.5,74.0,245.5,82.0,245.0,90.0,244.5" stroke="black" stroke-width="2" fill="none" />
<polyline points="77.0,213.5,69.0,214.5,60.5,214.5,52.5,215.0,44.5,215.5,36.5,216.0,28.0,216.5,19.5,217.0,11.5,217.5" stroke="black" stroke-width="2" fill="none" />
<polyline points="5.0,215.0,13.0,207.5,20.5,200.0,28.0,192.0,35.0,185.0,42.0,178.0,50.0,170.5,58.0,163.0" stroke="black" stroke-width="2" fill="none" />
<polyline points="52.0,155.0,44.0,162.0,35.5,169.5,27.0,177.0,18.5,184.5,10.5,191.5,2.0,199.5" stroke="black" stroke-width="2" fill="none" />
<polyline points="4.0,197.5,12.0,197.0,20.0,196.5,27.5,196.0,35.5,196.0,43.5,195.5,51.5,195.5,60.0,195.0,68.0,194.5,76.0,194.0,84.0,193.5,92.5,193.0,101.0,193.0,109.0,192.0,117.0,191.0" stroke="black" stroke-width="2" fill="none" />
<polyline points="162.5,193.5,170.5,193.5,178.5,192.5,187.0,191.5" stroke="black" stroke-width="2" fill="none" />
<polyline points="189.0,200.0,181.0,200.5,173.0,201.5,165.0,202.0" stroke="black" stroke-width="2" fill="none" />
<polyline points="166.0,205.0,173.5,204.5,181.0,204.5,189.0,204.5" stroke="black" stroke-width="2" fill="none" />
<polyline points="188.0,225.0,180.5,225.0,172.5,226.0,164.5,227.0,156.5,227.0,148.0,227.5,140.0,228.0,132.0,228.5,123.5,229.0,115.0,229.5,106.5,230.5,98.0,231.5,90.0,232.0,82.0,232.0,74.0,233.0,66.0,233.5,58.0,233.5,50.0,234.0,42.5,234.5,35.0,235.0,27.5,235.0,20.0,235.5,12.5,236.0,4.0,236.5" stroke="black" stroke-width="2" fill="none" />
<polyline points="3.0,233.5,11.0,233.0,19.0,232.0,26.5,231.0,34.5,229.5,42.5,228.5,50.5,228.5,58.5,228.5,66.5,228.0,75.0,228.5" stroke="black" stroke-width="2" fill="none" />
<polyline points="50.0,185.5,42.0,186.0" stroke="black" stroke-width="2" fill="none" />
<polyline points="35.0,162.0,43.0,154.5" stroke="black" stroke-width="2" fill="none" />
<polyline points="67.5,171.0,59.0,178.5,51.0,186.0,43.0,193.5,35.0,201.0,27.5,208.5,19.5,216.5,11.5,224.0,4.0,231.5" stroke="black" stroke-width="2" fill="none" />
<polyline points="2.0,229.5,10.5,229.0,18.5,228.5,26.5,228.0,35.0,227.0,42.5,226.0,50.5,225.5,59.0,225.0,67.5,224.0,76.0,222.5,84.5,221.5,92.5,221.5,100.0,222.0,108.0,221.5,116.0,221.0,124.0,220.5" stroke="black" stroke-width="2" fill="none" />
<polyline points="163.0,168.0,171.0,161.0,179.0,154.0,187.0,146.5,195.0,139.0" stroke="black" stroke-width="2" fill="none" />
<polyline points="195.0,135.0,203.0,133.5" stroke="black" stroke-width="2" fill="none" />
<polyline points="201.5,145.0,193.5,145.5" stroke="black" stroke-width="2" fill="none" />
<polyline points="173.0,142.0,165.0,149.0" stroke="black" stroke-width="2" fill="none" />
<polyline points="162.0,151.0,170.0,150.0,178.5,149.5,187.0,148.5" stroke="black" stroke-width="2" fill="none" />
<polyline points="186.5,156.5,178.0,156.5,170.0,156.5,162.5,157.0" stroke="black" stroke-width="2" fill="none" />
<polyline points="161.5,146.5,169.5,146.0,177.5,145.5" stroke="black" stroke-width="2" fill="none" />
<polyline points="190.5,181.0,190.5,184.0,195.0,183.5,204.0,182.0,212.5,182.5,214.5,185.0,225.5,182.0,232.5,177.0,248.5,183.0,256.5,182.0" stroke="black" stroke-width="2" fill="none" />
<polyline points="244.0,195.0,242.0,203.0" stroke="black" stroke-width="2" fill="none" />
<polyline points="231.5,201.0,228.0,196.5,227.0,189.5,228.0,181.0,228.0,181.0" stroke="black" stroke-width="2" fill="none" />
<polyline points="220.5,174.0,216.5,163.0,224.0,163.5,220.5,157.0,222.5,160.0,221.0,165.0,229.0,170.0,244.0,168.5" stroke="black" stroke-width="2" fill="none" />
<polyline points="235.5,174.0,227.5,172.0,219.5,173.0" stroke="black" stroke-width="2" fill="none" />
<polyline points="205.0,185.0,207.0,190.5,205.5,187.5,197.0,187.0,204.0,185.5,207.0,196.5,209.0,197.5,212.0,194.5,216.0,187.0,219.0,192.5,224.0,195.5,237.0,194.5,243.0,189.0,249.0,187.0,255.0,185.0,260.0,185.0,250.0,197.0,247.0,197.0,253.0,202.0" stroke="black" stroke-width="2" fill="none" />
<polyline points="245.5,146.0,250.5,137.5,246.5,138.5,237.5,137.5,233.0,130.5,227.0,140.5,227.0,135.5,221.0,140.5,213.0,139.0,213.0,140.0,203.5,132.5,214.5,127.5,212.5,124.5" stroke="black" stroke-width="2" fill="none" />
<polyline points="254.0,121.5,263.0,129.5,266.0,137.5,266.5,145.5,267.0,153.5,267.0,162.0,267.0,169.5,267.0,177.5,267.0,185.0,267.5,193.5,267.5,201.5,267.5,209.5,267.0,217.5,267.0,225.5,267.0,234.0,267.0,242.0,267.0,250.0,267.0,258.0,266.5,266.0,265.0,274.0,268.0,277.0,268.0,281.0,276.5,282.5,275.5,290.0,285.0,289.0,297.0,288.5,295.0,296.5,303.5,302.0,299.5,307.0,298.0,312.5,291.0,320.0,286.0,321.0,288.0,321.0,296.0,320.5,298.5,324.5,306.5,317.5,315.0,310.5,318.0,317.0,326.0,314.0,328.0,309.5,335.5,302.5,344.0,301.5,345.0,304.5,352.0,304.5,360.0,302.0,365.0,309.0,373.5,306.0,385.5,310.0,393.0,308.0,401.0,310.5,409.5,311.0,417.5,311.0,426.5,317.0,428.5,309.0,432.0,302.5,440.5,299.5,448.5,300.0,449.5,295.0,457.5,293.0,462.0,300.5" stroke="black" stroke-width="2" fill="none" />
<polyline points="475.5,300.5,477.5,301.5,480.5,301.5,486.0,303.5,479.5,313.5,484.5,312.0,486.5,316.0,487.0,323.0,484.0,335.0,477.0,339.0" stroke="black" stroke-width="2" fill="none" />
<polyline points="443.0,220.5,440.0,206.0,432.5,199.0" stroke="black" stroke-width="2" fill="none" />
<polyline points="433.0,199.0,432.0,207.0,427.0,209.0,433.5,207.5,441.0,215.5,446.0,223.0,447.0,229.0,452.0,237.0,458.5,234.0,463.0,225.5,466.0,226.5" stroke="black" stroke-width="2" fill="none" />
<polyline points="275.0,268.5,267.0,268.0,259.0,268.0,251.5,268.5,244.0,268.5,236.0,269.0,227.5,270.5,219.0,272.0,211.0,273.0,203.5,273.5,195.5,275.0,187.0,275.5,179.5,276.5,171.5,277.0,163.5,277.0,155.5,277.5,147.5,277.5,139.5,277.5,131.5,278.0,123.5,278.0,115.0,279.0,106.5,279.5,98.0,280.5,89.0,282.0,81.0,282.5,73.0,283.0,66.0,283.0,58.0,283.0,50.0,283.0,42.0,283.5,34.0,284.0,26.0,284.5,17.5,285.0,9.5,285.5,1.5,286.5" stroke="black" stroke-width="2" fill="none" />
<polyline points="2.5,288.5,6.5,291.0,4.0,301.0,11.0,288.0,12.0,284.5,14.0,291.0,23.0,296.5,31.0,294.5,38.0,291.0,48.0,289.5,54.0,284.0,59.0,287.5,65.5,287.5,69.5,281.5" stroke="black" stroke-width="2" fill="none" />
<polyline points="47.0,283.5,44.5,291.5,54.5,295.0,56.5,303.0,61.5,306.5,58.5,309.5,58.5,317.5,62.5,321.5,54.0,324.5,51.0,333.5,52.5,337.5,56.0,340.5,47.0,337.0,58.0,336.5,61.0,337.5,68.5,335.5,76.5,331.5,78.5,335.0,86.5,337.0,94.5,332.0,107.5,326.0,110.5,319.0,117.5,315.0,121.0,323.5,117.5,328.0,127.5,324.5" stroke="black" stroke-width="2" fill="none" />
<polyline points="125.0,296.5,124.0,304.5,116.0,311.0,107.0,321.0,103.5,325.0,104.5,332.5,99.5,335.0,103.0,340.0" stroke="black" stroke-width="2" fill="none" />
<polyline points="50.0,316.5,42.0,317.0,34.0,317.0" stroke="black" stroke-width="2" fill="none" />
<polyline points="28.5,322.5,36.5,322.5,44.0,323.0,52.0,322.5" stroke="black" stroke-width="2" fill="none" />
<polyline points="60.5,334.5,56.5,322.5,49.0,323.5,46.0,321.0,42.0,327.5,42.5,319.5,37.5,320.5,32.5,324.5,27.0,326.5,26.0,331.5,25.5,329.0,24.0,321.0,25.0,315.0,24.0,318.5" stroke="black" stroke-width="2" fill="none" />
<polyline points="20.5,324.0,13.0,324.5,5.0,324.5" stroke="black" stroke-width="2" fill="none" />
<polyline points="3.0,317.5,11.0,312.5,14.0,307.5,17.0,301.5,24.5,302.5,27.5,306.5,33.5,301.0,40.0,309.0,48.0,304.5" stroke="black" stroke-width="2" fill="none" />
<polyline points="35.5,291.0,43.5,283.5" stroke="black" stroke-width="2" fill="none" />
<polyline points="40.0,277.5,32.0,282.5" stroke="black" stroke-width="2" fill="none" />
<polyline points="30.0,275.0,37.5,275.0" stroke="black" stroke-width="2" fill="none" />
<polyline points="18.5,271.5,11.0,272.0" stroke="black" stroke-width="2" fill="none" />
<polyline points="14.0,274.0,21.5,273.5" stroke="black" stroke-width="2" fill="none" />
<polyline points="10.5,292.5,2.5,293.0" stroke="black" stroke-width="2" fill="none" />
<polyline points="3.0,306.5,11.5,306.5" stroke="black" stroke-width="2" fill="none" />
<polyline points="1.0,257.5,9.0,257.0,17.0,256.5,25.5,256.0,33.5,255.5,41.0,254.5,49.5,254.5,58.5,254.0" stroke="black" stroke-width="2" fill="none" />
<polyline points="4.0,240.5,12.0,232.5,20.0,225.0,27.5,217.0,34.5,209.5,42.5,201.5,50.5,193.5,58.5,186.0,66.5,178.0,74.5,171.0" stroke="black" stroke-width="2" fill="none" />
<polyline points="14.0,186.0,6.0,193.5" stroke="black" stroke-width="2" fill="none" />
<polyline points="3.5,189.5,11.5,189.0,19.5,188.5,28.0,188.5,36.0,188.0,44.0,187.5,52.0,187.0,60.0,187.0,68.5,187.0,76.5,187.0,85.0,186.5,92.5,186.0,100.5,184.5,108.5,183.0" stroke="black" stroke-width="2" fill="none" />
<polyline points="66.5,131.0,59.0,131.5,51.5,132.5,44.0,133.5,36.5,134.0,28.5,133.5,20.0,134.0" stroke="black" stroke-width="2" fill="none" />
<polyline points="3.5,141.0,11.0,140.0,19.5,138.5,28.0,137.5,35.5,136.5,43.5,136.0,51.5,135.5,59.5,135.0,67.5,134.5" stroke="black" stroke-width="2" fill="none" />
<polyline points="29.0,110.0,21.5,111.5" stroke="black" stroke-width="2" fill="none" />
<polyline points="11.0,124.5,3.5,124.5" stroke="black" stroke-width="2" fill="none" />
<polyline points="2.0,119.0,10.0,119.0" stroke="black" stroke-width="2" fill="none" />
<polyline points="9.5,109.5,1.5,109.5" stroke="black" stroke-width="2" fill="none" />
<polyline points="2.0,100.5,10.0,100.5,18.0,100.5" stroke="black" stroke-width="2" fill="none" />
<polyline points="19.5,91.5,11.5,92.0,3.0,92.0" stroke="black" stroke-width="2" fill="none" />
<polyline points="4.5,85.5,13.0,84.5,21.0,84.0" stroke="black" stroke-width="2" fill="none" />
<polyline points="28.5,75.0,20.5,76.0,12.5,76.5,4.5,77.0" stroke="black" stroke-width="2" fill="none" />
<polyline points="3.5,71.0,11.5,70.5,20.0,70.0,28.0,69.5,35.5,68.5,43.5,67.5,51.0,67.0" stroke="black" stroke-width="2" fill="none" />
<polyline points="50.5,58.0,42.5,58.5,35.0,59.5,27.5,59.5,20.0,60.0,12.5,60.5,5.0,61.0" stroke="black" stroke-width="2" fill="none" />
<polyline points="3.0,58.5,11.0,60.5" stroke="black" stroke-width="2" fill="none" />
<polyline points="3.0,52.5,10.5,52.0,18.0,51.0,26.0,50.5,34.0,50.0,41.5,49.0,49.5,48.5" stroke="black" stroke-width="2" fill="none" />
<polyline points="58.0,33.0,51.0,34.0,43.0,34.5,36.0,35.0,28.0,35.0,20.5,35.5,12.5,36.5,4.0,37.0" stroke="black" stroke-width="2" fill="none" />
<polyline points="3.0,30.5,11.0,30.0,19.0,29.0,27.0,29.0,35.0,28.5,43.5,28.0,51.0,27.5,59.0,26.5,67.5,25.5,76.0,25.5" stroke="black" stroke-width="2" fill="none" />
<polyline points="83.0,28.0,91.0,27.5,98.5,27.0" stroke="black" stroke-width="2" fill="none" />
<polyline points="106.0,35.5,98.0,35.5,90.5,36.0" stroke="black" stroke-width="2" fill="none" />
<polyline points="100.0,12.0,108.0,4.5" stroke="black" stroke-width="2" fill="none" />
<polyline points="99.0,4.5,90.5,12.0" stroke="black" stroke-width="2" fill="none" />
<polyline points="82.5,3.5,91.0,3.5,98.0,3.0,105.5,3.0,113.0,3.5" stroke="black" stroke-width="2" fill="none" />
<polyline points="27.5,2.0,19.5,9.5,12.0,17.5,4.5,25.0" stroke="black" stroke-width="2" fill="none" />
<polyline points="3.0,26.0,10.5,25.5,18.0,25.0,26.0,24.5,34.0,23.5,42.0,22.5,50.0,22.5,58.5,22.0" stroke="black" stroke-width="2" fill="none" />
<polyline points="21.5,3.0,13.0,10.5,4.0,18.5" stroke="black" stroke-width="2" fill="none" />
<polyline points="3.5,20.0,11.5,20.0,19.5,20.0,27.0,20.5,35.0,20.5,43.0,20.5,50.5,19.5,58.5,18.5,66.5,17.5,74.0,16.5,82.0,16.0,90.0,15.5,98.0,15.5,106.0,15.0" stroke="black" stroke-width="2" fill="none" />
<polyline points="60.0,13.0,52.0,13.5,44.0,14.0,36.0,14.5,28.5,15.0,21.0,16.0,13.0,16.5,5.0,16.5" stroke="black" stroke-width="2" fill="none" />
<polyline points="4.5,11.5,13.0,11.0,21.5,11.0,29.5,11.0,36.5,10.5,44.0,10.0,52.0,10.0,60.0,9.5,68.0,9.0,76.0,8.0,84.0,7.5,92.5,7.0,100.0,6.5,107.5,6.0" stroke="black" stroke-width="2" fill="none" />
<polyline points="59.0,6.0,51.0,6.0,43.0,6.5,35.0,7.0,27.0,8.0,19.0,9.0,10.5,10.0,2.0,10.5" stroke="black" stroke-width="2" fill="none" />
<polyline points="4.0,9.0,12.5,1.5" stroke="black" stroke-width="2" fill="none" />
<polyline points="2.0,7.0,10.0,6.5,18.0,6.0,26.0,5.0,34.5,4.0,42.5,3.0,51.0,2.5,58.5,2.5,66.5,2.0,74.5,1.0" stroke="black" stroke-width="2" fill="none" />
<polyline points="27.5,56.5,40.0,65.0,53.5,72.0,72.5,80.5" stroke="black" stroke-width="2" fill="none" />
<polyline points="74.5,81.5,66.0,79.0,58.0,75.0,49.5,72.5,41.5,67.5,33.5,64.0,25.5,59.0" stroke="black" stroke-width="2" fill="none" />
<polyline points="2.5,51.5,10.5,55.5,19.5,58.0,23.5,64.0,31.0,65.5,38.5,69.5,46.5,73.5,53.5,77.5,61.5,81.0,69.0,83.5,77.5,86.0" stroke="black" stroke-width="2" fill="none" />
<polyline points="108.0,176.5,100.5,177.0,92.5,176.5,84.0,177.0,76.0,177.5,68.5,178.0,60.5,178.5,52.0,179.0,44.0,180.0,36.5,180.0,29.0,180.5,21.0,181.0,13.0,182.0,5.0,182.5" stroke="black" stroke-width="2" fill="none" />
<polyline points="4.5,172.5,13.0,172.0,20.5,171.5,28.5,171.5,37.0,171.5,45.0,171.0,53.0,171.0,61.0,170.5,69.5,170.0,77.0,170.5,85.5,170.5,93.0,169.0,101.5,167.5" stroke="black" stroke-width="2" fill="none" />
<polyline points="68.5,206.0,61.0,207.0,53.0,208.0,45.0,208.0,36.5,207.5,28.0,207.5,20.0,207.5,12.0,208.0" stroke="black" stroke-width="2" fill="none" />
<polyline points="4.5,212.5,12.0,212.0,19.5,211.5,27.0,211.0,35.0,211.5,43.0,211.5,51.5,211.0,59.5,211.0,68.0,211.0,77.0,210.5,85.5,210.0,93.0,209.5,100.5,208.5,108.0,207.5" stroke="black" stroke-width="2" fill="none" />
<polyline points="147.0,236.5,138.5,237.0,130.0,238.0,121.5,239.0,113.5,240.0,105.5,241.0,98.0,241.5,90.5,241.5,83.5,241.5,75.0,242.0,66.5,242.0,58.5,242.5,50.0,243.0,42.0,243.0,34.0,243.5,26.0,244.0,18.0,244.5,10.0,244.5,2.0,245.0" stroke="black" stroke-width="2" fill="none" />
<polyline points="3.5,240.5,11.0,240.5,18.5,240.0,26.0,240.0,33.5,239.5,41.5,239.0,49.0,238.5" stroke="black" stroke-width="2" fill="none" />
<polyline points="3.5,220.5,11.5,220.0,19.5,220.0,27.0,219.5,34.5,219.0,42.5,218.0,51.0,218.0,59.5,218.0,68.0,218.0,76.5,217.5,84.5,217.5,92.5,216.5,100.0,216.5,107.5,216.0,115.5,215.0" stroke="black" stroke-width="2" fill="none" />
<polyline points="91.0,159.0,82.5,159.5,75.0,160.5,67.0,161.0,59.0,162.0,50.5,162.5,42.5,163.5,35.0,164.0,27.0,164.5,19.0,165.5,10.5,166.0,2.5,166.5" stroke="black" stroke-width="2" fill="none" />
<polyline points="3.0,160.0,11.0,159.0,19.0,158.0,27.5,157.0,35.5,156.5,44.0,156.0,52.0,155.0,59.5,153.5,67.5,153.0,76.0,152.5,84.5,152.0,92.5,151.0" stroke="black" stroke-width="2" fill="none" />
<polyline points="75.0,144.0,67.0,145.0,59.0,145.5,50.5,145.5,42.5,145.5,34.5,146.5,27.0,147.5,18.5,148.0,10.5,148.5,2.0,149.0" stroke="black" stroke-width="2" fill="none" />
<polyline points="260.0,267.0,263.0,275.0,265.5,283.0,272.5,287.0,269.0,294.5,263.0,302.0,248.5,306.0,253.5,314.5,247.5,322.5,244.5,324.0,234.0,328.0,239.0,332.0,235.5,335.0,243.5,340.0,245.5,331.0,251.0,319.0,253.0,324.0,256.0,322.5,264.0,322.0,272.0,326.5,274.0,318.5,284.0,315.5,296.0,316.5,305.5,323.5,309.5,325.0" stroke="black" stroke-width="2" fill="none" />
</svg>