<svg xmlns="http://www.w3.org/2000/svg" version="1.1"><polyline points="319.0,139.5,315.5,147.0,303.5,155.0,287.5,161.0,279.5,171.0,276.5,179.0,273.5,184.0,267.0,192.0,267.0,200.0,266.0,208.5,263.0,217.0,262.0,224.5,258.0,232.5,261.5,240.0,267.5,240.0,276.0,245.0,281.0,254.0,285.0,263.0,295.0,263.0,298.5,266.0,300.5,269.0,308.5,272.0,316.5,276.0,324.5,279.0,332.5,280.0,340.5,281.0,349.5,281.5,357.0,282.5,365.0,280.5,373.0,277.0,381.5,271.5,389.5,265.0,396.5,256.0,404.5,242.0,410.0,231.5" stroke="black" stroke-width="2" fill="none" />
<polyline points="411.0,232.0,407.0,240.5,407.5,249.0,399.0,257.0,399.0,262.5,391.0,270.5,393.5,266.0,401.0,257.5,408.0,252.5,416.5,257.0,419.5,240.0,426.0,235.5,435.0,229.5,439.5,229.0,447.5,230.5,450.5,233.0,453.5,225.0,461.5,226.0,470.0,233.0,468.0,234.0,473.0,236.5,477.0,227.0,482.0,234.0,487.5,228.5" stroke="black" stroke-width="2" fill="none" />
<polyline points="492.0,228.0,484.0,235.5,475.5,243.5,467.5,251.0" stroke="black" stroke-width="2" fill="none" />
<polyline points="466.5,250.0,474.0,249.5,482.5,248.5" stroke="black" stroke-width="2" fill="none" />
<polyline points="484.0,251.5,476.0,259.0,468.0,267.0" stroke="black" stroke-width="2" fill="none" />
<polyline points="469.5,259.0,477.5,258.5,485.0,258.0" stroke="black" stroke-width="2" fill="none" />
<polyline points="485.0,260.5,477.0,268.0" stroke="black" stroke-width="2" fill="none" />
<polyline points="477.0,273.5,485.0,273.0" stroke="black" stroke-width="2" fill="none" />
<polyline points="485.5,268.5,477.0,276.5" stroke="black" stroke-width="2" fill="none" />
<polyline points="477.0,279.5,484.5,278.5,492.0,277.5,500.0,276.5,508.0,275.0,516.0,274.0" stroke="black" stroke-width="2" fill="none" />
<polyline points="517.0,277.0,509.0,284.5,500.5,292.5,492.0,300.0,483.5,307.0,475.5,314.0,467.0,321.0,459.0,327.5,451.0,334.5" stroke="black" stroke-width="2" fill="none" />
<polyline points="468.0,336.0,476.0,328.5,483.5,321.5,491.5,314.5,500.0,307.5,508.0,300.5,516.0,293.5" stroke="black" stroke-width="2" fill="none" />
<polyline points="513.5,300.5,505.5,308.5,497.5,316.0,490.0,323.5,482.0,331.0,474.5,338.0" stroke="black" stroke-width="2" fill="none" />
<polyline points="507.0,337.5,515.0,329.5" stroke="black" stroke-width="2" fill="none" />
<polyline points="515.5,322.0,507.5,329.0,499.0,336.5" stroke="black" stroke-width="2" fill="none" />
<polyline points="490.5,337.0,498.5,329.5,507.0,321.5,515.0,314.0" stroke="black" stroke-width="2" fill="none" />
<polyline points="514.5,308.0,506.5,315.5,498.5,322.5,491.0,330.0,483.0,338.0" stroke="black" stroke-width="2" fill="none" />
<polyline points="460.0,336.5,468.5,330.0,477.0,322.5,485.0,315.5,493.0,307.5,501.0,300.0,509.0,292.0,517.0,284.5" stroke="black" stroke-width="2" fill="none" />
<polyline points="515.5,269.0,507.5,276.0,499.5,283.0,491.0,290.5,482.5,298.0,474.5,305.5,466.5,312.5,458.5,319.0,450.5,326.0,443.0,333.5" stroke="black" stroke-width="2" fill="none" />
<polyline points="435.5,333.5,443.5,326.0,451.0,319.0,459.0,312.0,467.5,305.0,475.5,297.5,483.5,290.5,492.0,283.0,499.5,275.5,507.0,268.0,515.0,260.0" stroke="black" stroke-width="2" fill="none" />
<polyline points="514.0,253.0,506.0,260.0,498.0,267.5,490.0,274.5,482.0,282.0,474.5,290.0,467.0,297.0,459.5,304.5,451.5,312.0,444.0,319.5,436.0,327.0,428.0,334.5" stroke="black" stroke-width="2" fill="none" />
<polyline points="426.0,335.5,434.0,335.0,442.0,334.5,450.5,333.5,458.5,333.0,467.0,333.0,475.0,332.0,483.5,331.0,491.5,330.0,499.5,330.0,508.0,329.5,515.5,329.5" stroke="black" stroke-width="2" fill="none" />
<polyline points="483.5,283.0,475.5,284.0" stroke="black" stroke-width="2" fill="none" />
<polyline points="468.5,284.0,460.5,291.5,452.5,298.0,444.5,305.5,436.5,312.5,428.0,320.0" stroke="black" stroke-width="2" fill="none" />
<polyline points="427.0,321.5,435.0,321.0,443.5,320.0,451.5,319.5,459.5,319.0,468.0,318.5,476.0,318.5,484.0,318.0,492.0,317.5,500.5,317.0,508.5,316.0,516.0,316.0" stroke="black" stroke-width="2" fill="none" />
<polyline points="499.5,262.0,491.5,269.5,483.5,277.0,476.0,284.0,468.0,291.0,460.0,298.0,452.0,305.5,443.5,313.0,435.0,320.0,426.5,326.5" stroke="black" stroke-width="2" fill="none" />
<polyline points="428.5,332.0,436.0,331.0,444.0,330.0,452.0,329.5,459.5,329.0,467.5,328.5,475.5,328.0,484.0,328.0,492.5,327.5,501.0,326.5,509.5,326.0,517.5,325.5" stroke="black" stroke-width="2" fill="none" />
<polyline points="484.0,293.0,475.0,293.0,467.0,294.0,458.0,294.5,449.5,295.0,441.5,295.5,433.5,296.0" stroke="black" stroke-width="2" fill="none" />
<polyline points="435.5,289.0,443.5,288.0,451.5,287.5,459.5,287.0,466.5,287.0,474.5,287.0,482.5,286.0" stroke="black" stroke-width="2" fill="none" />
<polyline points="481.5,282.0,481.0,274.0,476.5,271.0,475.5,267.5,473.0,273.5,471.5,282.0,463.5,286.5,464.0,293.5,461.0,274.5,453.0,267.0,451.0,263.5,450.5,258.5,451.5,251.5,455.5,244.0,447.5,241.0,445.5,243.5" stroke="black" stroke-width="2" fill="none" />
<polyline points="447.5,245.0,455.5,245.0,455.5,259.0,460.0,266.0,459.0,274.0,459.5,281.5,457.5,289.5,466.5,291.5" stroke="black" stroke-width="2" fill="none" />
<polyline points="457.5,281.5,450.0,289.0,442.5,297.0,434.5,304.5,426.5,312.0,418.5,319.5" stroke="black" stroke-width="2" fill="none" />
<polyline points="421.5,320.0,429.5,320.0,437.0,319.0,445.0,317.5,452.5,315.5,460.5,314.0,468.5,313.5,476.0,312.0,484.0,311.5,491.5,310.5,500.0,310.5,507.5,310.0,515.5,310.0" stroke="black" stroke-width="2" fill="none" />
<polyline points="514.5,257.0,506.5,257.5,499.0,258.5,491.0,259.0,483.5,259.0,475.5,259.0,467.5,259.0,460.0,259.5" stroke="black" stroke-width="2" fill="none" />
<polyline points="458.0,265.0,466.0,264.5,474.0,264.5,482.5,264.0" stroke="black" stroke-width="2" fill="none" />
<polyline points="478.5,264.5,478.0,262.5,477.0,258.0,468.5,247.0,465.5,241.5,462.5,236.5,465.0,228.0,456.0,223.5,454.5,215.5,448.5,212.0" stroke="black" stroke-width="2" fill="none" />
<polyline points="450.5,212.5,443.0,220.5,436.0,227.0,428.5,234.0,420.5,241.0" stroke="black" stroke-width="2" fill="none" />
<polyline points="420.0,241.5,427.5,241.0,435.0,240.5" stroke="black" stroke-width="2" fill="none" />
<polyline points="436.0,246.0,428.0,253.0,420.0,260.5" stroke="black" stroke-width="2" fill="none" />
<polyline points="420.0,261.5,427.5,260.5,436.0,260.0,444.0,259.0,452.0,259.0" stroke="black" stroke-width="2" fill="none" />
<polyline points="451.5,257.0,459.5,249.5,467.0,242.0,474.0,235.0,482.0,227.5,490.0,220.0" stroke="black" stroke-width="2" fill="none" />
<polyline points="484.0,218.5,492.0,211.5" stroke="black" stroke-width="2" fill="none" />
<polyline points="491.5,215.0,483.0,215.0,475.0,215.0,467.0,216.0,458.5,216.0" stroke="black" stroke-width="2" fill="none" />
<polyline points="459.0,216.0,468.0,215.0,475.5,223.0,476.5,227.0,476.5,236.5,473.0,241.5,481.0,239.0,489.5,238.5" stroke="black" stroke-width="2" fill="none" />
<polyline points="491.5,238.0,483.5,245.0,476.0,252.0,468.5,259.5,460.5,266.5,452.5,273.5,444.0,280.5,435.0,287.5" stroke="black" stroke-width="2" fill="none" />
<polyline points="435.5,282.5,443.0,274.5,451.5,266.5" stroke="black" stroke-width="2" fill="none" />
<polyline points="452.0,270.5,460.0,269.5,461.0,271.0,466.0,273.0" stroke="black" stroke-width="2" fill="none" />
<polyline points="460.5,279.5,452.5,280.0,444.5,281.0,436.0,281.5" stroke="black" stroke-width="2" fill="none" />
<polyline points="436.5,273.0,444.0,272.0,452.0,272.5,459.5,272.0" stroke="black" stroke-width="2" fill="none" />
<polyline points="457.5,275.5,449.5,282.5,441.5,290.0,434.0,297.5,426.0,304.5" stroke="black" stroke-width="2" fill="none" />
<polyline points="427.0,300.5,419.0,308.0" stroke="black" stroke-width="2" fill="none" />
<polyline points="421.0,310.5,429.0,310.0,437.0,309.5,445.0,309.0,453.5,308.0,461.0,307.5,468.5,307.0,476.0,305.5,483.5,304.5,491.0,304.0,498.5,303.0,507.0,303.0,515.0,302.0" stroke="black" stroke-width="2" fill="none" />
<polyline points="514.5,332.0,506.5,332.5,499.0,333.0,491.0,333.5,483.0,334.0,474.5,334.5,467.0,335.0,458.5,336.5,449.5,337.5,441.5,339.0,433.5,340.0,426.0,340.0" stroke="black" stroke-width="2" fill="none" />
<polyline points="420.5,327.5,428.5,327.0,436.5,326.0,444.5,325.0,452.5,324.0,460.0,323.5,467.5,323.0,475.5,322.5,482.5,322.0,490.0,321.0,498.0,320.0,506.0,319.5,514.0,319.5" stroke="black" stroke-width="2" fill="none" />
<polyline points="514.0,308.5,506.5,309.0,498.0,309.0,489.5,309.5,481.5,310.0,473.5,310.5,465.0,311.0,457.0,311.0,449.0,311.5,441.5,311.5,434.0,312.0,426.0,312.5" stroke="black" stroke-width="2" fill="none" />
<polyline points="419.0,315.0,419.0,307.5,411.0,310.5" stroke="black" stroke-width="2" fill="none" />
<polyline points="413.5,312.5,405.5,313.0,397.5,313.5,389.0,313.5,380.5,314.0,372.5,314.5" stroke="black" stroke-width="2" fill="none" />
<polyline points="363.5,306.0,371.5,306.0,380.0,305.0,388.0,304.5,396.0,304.0,404.0,304.0,412.0,303.0,419.5,302.5,427.0,302.0,435.0,301.0,443.0,300.5,451.0,300.0,459.5,299.0,467.5,298.5,475.5,298.0,484.0,297.5,492.0,297.5,500.0,297.0,508.0,296.5" stroke="black" stroke-width="2" fill="none" />
<polyline points="516.5,279.0,508.5,280.0,500.5,281.0,492.5,281.5,484.5,282.5,476.5,283.0,468.5,283.5,460.5,284.0,452.5,284.5,444.5,285.0,436.0,286.0,428.0,287.0,420.5,287.5,412.0,288.0,404.5,288.0,396.5,288.0,389.0,288.0,381.0,288.5,373.0,289.5,364.5,290.0,356.0,290.0,348.0,290.0,340.0,291.0,331.5,291.5,323.5,292.0,315.5,292.5,307.5,292.5" stroke="black" stroke-width="2" fill="none" />
<polyline points="306.0,292.5,298.0,297.5,290.0,301.5,282.5,305.5,277.5,308.5,291.0,300.0,306.0,291.5" stroke="black" stroke-width="2" fill="none" />
<polyline points="310.5,292.5,301.5,301.0,289.0,307.0,285.5,308.5,293.5,303.0,301.5,299.0" stroke="black" stroke-width="2" fill="none" />
<polyline points="299.5,301.0,292.0,308.5,284.0,316.0,276.0,323.5" stroke="black" stroke-width="2" fill="none" />
<polyline points="276.5,325.0,284.5,324.5,292.5,324.5,300.5,324.5,308.5,324.5,316.5,324.5,324.0,324.5,332.0,324.0,339.5,323.5,347.5,323.5,355.5,323.0,363.5,322.0,371.0,321.5,379.0,320.5,386.5,319.5,394.5,319.0,402.5,318.0,411.0,317.0" stroke="black" stroke-width="2" fill="none" />
<polyline points="415.0,311.0,419.0,319.5,419.5,327.5,420.0,336.0" stroke="black" stroke-width="2" fill="none" />
<polyline points="402.5,331.5,394.5,339.0" stroke="black" stroke-width="2" fill="none" />
<polyline points="387.0,338.5,394.0,331.0,402.0,323.5" stroke="black" stroke-width="2" fill="none" />
<polyline points="403.0,321.0,394.5,321.5,387.0,322.0" stroke="black" stroke-width="2" fill="none" />
<polyline points="386.0,330.5,394.0,330.0,402.5,329.0" stroke="black" stroke-width="2" fill="none" />
<polyline points="406.0,335.5,398.0,335.5,390.0,336.0,382.0,336.0" stroke="black" stroke-width="2" fill="none" />
<polyline points="379.5,338.0,387.0,330.5,394.0,323.0,401.5,315.5,409.5,308.0,417.5,301.0" stroke="black" stroke-width="2" fill="none" />
<polyline points="418.0,293.5,410.5,300.5,402.5,308.0,395.0,315.5,387.5,324.0,379.0,331.5,372.0,339.0" stroke="black" stroke-width="2" fill="none" />
<polyline points="356.0,332.0,363.5,324.0,371.5,317.0,379.5,310.0,387.5,303.0,395.5,295.5,403.5,288.0,411.5,280.0,420.0,272.0,427.5,264.0,436.0,256.5,444.0,249.0,452.0,241.5,459.5,233.5,467.5,226.0" stroke="black" stroke-width="2" fill="none" />
<polyline points="474.0,229.5,482.0,229.5,490.0,229.0,498.5,228.5,507.0,228.0,515.5,227.0" stroke="black" stroke-width="2" fill="none" />
<polyline points="490.5,225.5,482.5,225.5" stroke="black" stroke-width="2" fill="none" />
<polyline points="484.0,224.0,476.0,223.5" stroke="black" stroke-width="2" fill="none" />
<polyline points="475.0,222.5,483.0,219.0,490.0,221.5" stroke="black" stroke-width="2" fill="none" />
<polyline points="492.0,215.0,484.5,215.5" stroke="black" stroke-width="2" fill="none" />
<polyline points="483.0,209.5,475.0,218.0" stroke="black" stroke-width="2" fill="none" />
<polyline points="475.0,210.0,467.0,217.5,458.5,225.5,450.5,233.5" stroke="black" stroke-width="2" fill="none" />
<polyline points="453.0,236.5,460.5,236.5" stroke="black" stroke-width="2" fill="none" />
<polyline points="459.5,239.0,452.0,239.5" stroke="black" stroke-width="2" fill="none" />
<polyline points="456.5,238.0,464.5,237.0" stroke="black" stroke-width="2" fill="none" />
<polyline points="467.0,235.5,474.5,235.5,482.0,235.5,490.0,235.5,498.0,235.5,506.0,235.0,514.5,235.5" stroke="black" stroke-width="2" fill="none" />
<polyline points="483.5,239.5,475.0,240.0" stroke="black" stroke-width="2" fill="none" />
<polyline points="473.0,232.0,481.0,232.0,489.0,231.5" stroke="black" stroke-width="2" fill="none" />
<polyline points="468.5,253.0,476.0,253.0,484.0,253.0,492.0,253.0,499.5,252.5,507.5,252.0,515.0,251.0" stroke="black" stroke-width="2" fill="none" />
<polyline points="516.0,209.0,508.0,209.5,499.5,210.0,491.5,211.0,484.0,212.0,476.0,212.5,467.5,213.0,459.0,214.0" stroke="black" stroke-width="2" fill="none" />
<polyline points="456.0,210.0,456.5,216.5,458.5,224.5,459.5,229.0,464.5,225.5,470.0,224.5,472.0,230.5,480.5,229.5,481.0,225.5,489.0,225.5" stroke="black" stroke-width="2" fill="none" />
<polyline points="477.0,202.0,468.5,209.5,460.5,217.5,452.0,225.5,444.0,233.5" stroke="black" stroke-width="2" fill="none" />
<polyline points="441.0,237.5,440.5,243.5,436.5,249.0,430.5,257.0,435.0,262.0,443.0,259.0,451.0,255.5,459.0,246.5,464.0,248.0,464.0,242.5,467.0,239.0,477.0,247.0,482.0,249.0" stroke="black" stroke-width="2" fill="none" />
<polyline points="488.5,234.0,487.5,241.5,485.0,245.5,477.0,246.5,474.0,250.0,470.0,256.0,462.5,257.5,454.5,256.5,453.0,251.0,449.5,258.0,446.5,250.5,445.5,245.5,441.5,243.5,433.5,235.5,431.5,252.5,429.5,260.5,424.5,265.5,415.5,268.5,417.0,262.5,418.0,254.0,420.5,246.5,422.0,238.0,424.0,230.0,426.0,222.0,426.5,214.0,428.0,206.0,429.0,198.0,427.5,197.5,420.5,195.5,412.0,194.5,411.0,187.0" stroke="black" stroke-width="2" fill="none" />
<polyline points="406.0,187.5,398.0,195.5,390.0,203.0,381.5,210.5,373.0,217.5,365.0,225.0,357.0,232.5,349.0,239.5,341.0,247.0" stroke="black" stroke-width="2" fill="none" />
<polyline points="339.5,250.0,348.0,250.0,356.0,250.0,364.0,249.5,371.5,249.0,379.0,248.5,387.0,247.0,395.0,245.5,403.0,244.0,411.0,243.0" stroke="black" stroke-width="2" fill="none" />
<polyline points="410.0,244.5,402.0,252.0,394.5,259.5,386.5,267.0,378.0,275.0,370.0,282.0,362.5,290.0,355.0,298.0,347.5,305.5" stroke="black" stroke-width="2" fill="none" />
<polyline points="342.0,307.0,350.0,299.0,357.5,290.5,365.5,282.5,373.0,274.5,381.0,267.0" stroke="black" stroke-width="2" fill="none" />
<polyline points="379.0,272.0,364.0,279.5,375.5,280.5,383.5,278.5,391.5,278.0" stroke="black" stroke-width="2" fill="none" />
<polyline points="386.5,275.5,394.5,268.5,403.0,261.5,411.5,254.0" stroke="black" stroke-width="2" fill="none" />
<polyline points="411.5,260.0,419.5,252.5" stroke="black" stroke-width="2" fill="none" />
<polyline points="421.5,257.5,419.5,265.5,419.5,275.0,429.5,270.0,434.5,265.5,440.5,261.5,447.5,262.5,454.5,262.5" stroke="black" stroke-width="2" fill="none" />
<polyline points="460.0,254.5,452.0,255.0,444.5,255.0,436.5,255.5" stroke="black" stroke-width="2" fill="none" />
<polyline points="436.5,252.5,444.0,252.5,452.0,251.5,459.5,251.0" stroke="black" stroke-width="2" fill="none" />
<polyline points="460.0,250.5,452.0,251.0,444.0,252.0" stroke="black" stroke-width="2" fill="none" />
<polyline points="442.5,245.0,451.0,244.5,459.0,244.0,467.5,243.0,476.5,242.5,484.5,242.0,492.0,241.5,499.5,241.5,507.5,241.5,515.5,241.0" stroke="black" stroke-width="2" fill="none" />
<polyline points="514.5,203.0,505.5,203.0,497.5,203.5,489.5,204.0,481.0,205.0,472.5,205.5,464.5,206.5" stroke="black" stroke-width="2" fill="none" />
<polyline points="464.5,207.5,472.0,211.5" stroke="black" stroke-width="2" fill="none" />
<polyline points="474.0,207.5,465.5,208.0" stroke="black" stroke-width="2" fill="none" />
<polyline points="451.5,204.0,443.5,212.0,435.0,219.5" stroke="black" stroke-width="2" fill="none" />
<polyline points="436.5,221.5,444.5,221.0,452.5,220.5,460.5,219.5,468.5,219.0,476.5,218.0,484.5,217.0,492.5,216.5,500.5,215.5,507.5,215.5,515.0,215.0" stroke="black" stroke-width="2" fill="none" />
<polyline points="514.0,170.5,506.0,171.5,498.5,172.0,490.5,172.5,482.5,173.0,474.5,173.5" stroke="black" stroke-width="2" fill="none" />
<polyline points="476.0,166.5,483.5,166.5,492.0,166.0,500.0,165.0,508.0,163.5,516.5,162.5" stroke="black" stroke-width="2" fill="none" />
<polyline points="516.5,148.0,508.5,148.0,501.0,148.5,492.5,149.0" stroke="black" stroke-width="2" fill="none" />
<polyline points="491.5,141.0,500.0,140.5,508.5,140.5,516.0,140.0" stroke="black" stroke-width="2" fill="none" />
<polyline points="516.0,133.5,507.5,133.0" stroke="black" stroke-width="2" fill="none" />
<polyline points="517.0,155.5,509.0,156.0,500.5,157.0,492.0,157.5,484.5,159.0" stroke="black" stroke-width="2" fill="none" />
<polyline points="466.5,171.5,458.5,172.0" stroke="black" stroke-width="2" fill="none" />
<polyline points="460.0,166.0,452.0,166.5" stroke="black" stroke-width="2" fill="none" />
<polyline points="456.5,182.5,448.5,183.0" stroke="black" stroke-width="2" fill="none" />
<polyline points="459.5,188.0,468.0,187.5,476.0,186.5,483.5,186.0,491.0,185.5,498.5,185.5,507.0,184.5,515.0,184.0" stroke="black" stroke-width="2" fill="none" />
<polyline points="512.5,179.5,504.5,179.5,497.0,180.5,489.0,180.5,481.5,181.5,474.0,182.0,466.0,182.5" stroke="black" stroke-width="2" fill="none" />
<polyline points="451.0,199.0,458.5,198.0,467.0,197.0,475.0,196.5,483.0,196.0,491.0,195.5,499.0,195.5,507.5,195.0,516.0,194.0" stroke="black" stroke-width="2" fill="none" />
<polyline points="451.5,219.5,443.5,227.0,436.0,235.0,428.0,243.0" stroke="black" stroke-width="2" fill="none" />
<polyline points="427.0,249.5,435.0,249.0" stroke="black" stroke-width="2" fill="none" />
<polyline points="426.0,262.0,418.0,269.0,410.0,275.5,401.5,282.5,393.5,289.5,385.5,296.5,377.5,304.5,370.0,312.0,362.0,319.5,354.0,327.5,346.5,335.0" stroke="black" stroke-width="2" fill="none" />
<polyline points="339.0,338.0,347.0,330.5,355.0,323.5,362.5,316.0,370.0,308.5,377.5,301.0,385.5,293.5" stroke="black" stroke-width="2" fill="none" />
<polyline points="380.0,293.5,372.5,301.0,364.5,309.0,356.5,316.5,348.5,324.0,341.0,331.0,332.5,338.5" stroke="black" stroke-width="2" fill="none" />
<polyline points="332.5,331.0,324.5,338.5" stroke="black" stroke-width="2" fill="none" />
<polyline points="317.0,339.0,325.5,331.0,333.5,323.5" stroke="black" stroke-width="2" fill="none" />
<polyline points="340.5,321.5,348.5,314.5,356.5,307.5,365.0,300.5,373.0,293.0,381.0,286.0" stroke="black" stroke-width="2" fill="none" />
<polyline points="394.5,284.0,403.0,277.0,411.0,269.5" stroke="black" stroke-width="2" fill="none" />
<polyline points="404.5,268.5,396.5,276.5" stroke="black" stroke-width="2" fill="none" />
<polyline points="396.0,282.5,404.0,282.5,412.0,282.0" stroke="black" stroke-width="2" fill="none" />
<polyline points="412.0,285.0,410.0,293.5,416.5,296.5,421.5,305.0,424.5,318.5,425.5,321.5,426.5,329.5" stroke="black" stroke-width="2" fill="none" />
<polyline points="411.0,324.5,403.0,326.0,395.0,327.5,387.5,328.0,380.0,328.5,372.0,329.0,364.0,329.0,355.5,329.0,347.5,329.5,340.0,330.5,333.0,331.0,326.0,331.5,318.5,332.0,310.0,332.0,301.5,332.5,293.0,332.5,284.5,332.5,276.5,332.5" stroke="black" stroke-width="2" fill="none" />
<polyline points="283.5,332.5,291.0,325.0,299.5,316.5,307.0,308.5,315.0,301.0,323.0,292.5,330.5,285.5,339.0,278.5,347.0,271.5,355.0,265.0,363.5,258.5,372.0,251.0,380.5,243.5,388.5,236.5,396.5,229.0,404.0,222.0" stroke="black" stroke-width="2" fill="none" />
<polyline points="410.5,220.0,402.5,227.5,394.0,235.5,386.0,243.0,378.5,250.5,370.5,258.0,362.5,266.0,354.0,273.5,346.0,281.0,338.0,288.0,330.0,295.0,322.0,302.5,314.0,310.0,307.0,317.0,299.5,324.5,291.5,332.0" stroke="black" stroke-width="2" fill="none" />
<polyline points="285.0,331.0,293.0,330.5,300.5,330.0,308.5,329.0" stroke="black" stroke-width="2" fill="none" />
<polyline points="298.5,338.0,306.5,330.5,314.5,323.0,322.5,315.5,331.0,307.5,339.5,300.0,348.0,292.0,356.0,284.0" stroke="black" stroke-width="2" fill="none" />
<polyline points="362.0,281.0,370.0,280.5" stroke="black" stroke-width="2" fill="none" />
<polyline points="364.0,272.5,372.5,265.5,380.5,258.5,389.0,251.5,397.5,244.5,405.5,237.5" stroke="black" stroke-width="2" fill="none" />
<polyline points="411.5,238.5,403.0,245.5,394.5,253.0" stroke="black" stroke-width="2" fill="none" />
<polyline points="395.5,258.0,404.0,257.5,412.5,257.0,420.5,256.0,428.0,255.5" stroke="black" stroke-width="2" fill="none" />
<polyline points="420.5,266.0,429.0,265.0,437.0,265.0,445.0,264.5" stroke="black" stroke-width="2" fill="none" />
<polyline points="443.5,269.5,436.0,276.5,427.5,283.0" stroke="black" stroke-width="2" fill="none" />
<polyline points="418.0,280.5,426.0,273.0,434.5,265.5,443.0,258.5,451.0,251.0,459.5,244.0" stroke="black" stroke-width="2" fill="none" />
<polyline points="461.5,253.0,467.0,266.0,465.0,270.0,473.0,271.0,474.0,266.0,482.0,263.0" stroke="black" stroke-width="2" fill="none" />
<polyline points="474.5,274.0,468.5,282.0" stroke="black" stroke-width="2" fill="none" />
<polyline points="467.5,223.0,459.5,223.5,451.0,224.0,443.0,224.0,435.0,224.5" stroke="black" stroke-width="2" fill="none" />
<polyline points="428.0,223.5,436.0,223.5,441.0,223.0,445.5,229.0,450.5,236.0,454.5,234.5,462.5,233.5" stroke="black" stroke-width="2" fill="none" />
<polyline points="453.5,210.5,445.5,211.0,437.0,212.0" stroke="black" stroke-width="2" fill="none" />
<polyline points="435.0,206.5,443.0,206.0,451.0,206.0,459.0,205.0" stroke="black" stroke-width="2" fill="none" />
<polyline points="443.5,206.0,435.5,213.0,427.0,220.0" stroke="black" stroke-width="2" fill="none" />
<polyline points="429.0,217.5,437.0,217.5,445.0,217.0" stroke="black" stroke-width="2" fill="none" />
<polyline points="427.5,229.0,435.5,228.5,443.5,228.0,451.5,227.5,459.5,228.0,467.0,228.0" stroke="black" stroke-width="2" fill="none" />
<polyline points="465.5,230.5,458.0,231.0,450.0,231.5,442.5,232.0,435.0,233.0,427.0,234.0" stroke="black" stroke-width="2" fill="none" />
<polyline points="427.5,220.0,420.0,220.0" stroke="black" stroke-width="2" fill="none" />
<polyline points="419.0,211.5,427.0,211.0,435.0,211.0,443.0,211.0,451.0,211.5" stroke="black" stroke-width="2" fill="none" />
<polyline points="427.5,204.5,420.0,204.5" stroke="black" stroke-width="2" fill="none" />
<polyline points="425.5,202.5,424.5,210.5,422.5,218.5,421.0,226.5,419.5,235.0,418.0,243.5,415.0,251.5,414.5,259.5" stroke="black" stroke-width="2" fill="none" />
<polyline points="404.5,265.0,396.5,265.0,389.0,265.0" stroke="black" stroke-width="2" fill="none" />
<polyline points="392.5,271.5,400.0,267.0,407.5,268.0" stroke="black" stroke-width="2" fill="none" />
<polyline points="405.5,277.0,413.5,276.0,421.5,273.0" stroke="black" stroke-width="2" fill="none" />
<polyline points="410.0,292.0,402.0,299.5,394.5,307.0,386.5,315.0,378.5,322.5,371.0,330.5,363.0,338.0" stroke="black" stroke-width="2" fill="none" />
<polyline points="332.5,316.0,324.5,323.0,316.5,330.0,308.5,337.5" stroke="black" stroke-width="2" fill="none" />
<polyline points="316.0,335.5,308.5,336.0,300.5,337.0,292.5,337.5,284.5,338.0" stroke="black" stroke-width="2" fill="none" />
<polyline points="275.0,337.0,283.5,329.5,292.0,322.0,300.5,314.0,309.0,306.5,317.0,299.5,324.5,292.0,332.5,284.5,340.5,276.5" stroke="black" stroke-width="2" fill="none" />
<polyline points="345.0,271.5,353.5,271.0,361.5,271.0,370.0,271.0,378.5,271.0,387.0,271.0,395.5,271.0,404.0,271.5,413.0,271.5,421.5,271.5,429.5,271.0" stroke="black" stroke-width="2" fill="none" />
<polyline points="410.5,292.0,402.5,292.0" stroke="black" stroke-width="2" fill="none" />
<polyline points="410.5,293.5,412.5,292.5,420.5,296.5,428.5,301.5" stroke="black" stroke-width="2" fill="none" />
<polyline points="419.5,291.5,412.0,291.5,403.5,292.0,395.5,292.5,387.0,294.0,378.5,295.0,370.5,296.0,362.5,296.5,355.0,297.5,347.0,298.5,339.5,299.0,331.5,300.0" stroke="black" stroke-width="2" fill="none" />
<polyline points="325.5,294.5,318.0,295.0,310.5,295.5" stroke="black" stroke-width="2" fill="none" />
<polyline points="308.5,284.5,316.5,276.5,325.0,269.0,332.5,262.0,340.0,254.5,347.5,247.0,355.5,240.0,364.0,233.0,372.0,225.5,380.5,218.5,388.5,211.0,396.5,203.5,404.0,195.5" stroke="black" stroke-width="2" fill="none" />
<polyline points="404.5,193.5,396.5,194.0,388.0,194.5,380.0,195.0" stroke="black" stroke-width="2" fill="none" />
<polyline points="380.5,202.0,388.5,195.0,396.0,188.0,404.0,180.5" stroke="black" stroke-width="2" fill="none" />
<polyline points="401.5,170.5,415.0,178.5,425.5,184.5,436.5,192.5,434.0,201.5,432.0,209.5,433.0,218.0,429.5,220.5,429.0,228.5,434.0,234.0,427.0,239.0,422.0,244.0,428.5,244.0,428.5,249.0,431.5,252.5,429.5,266.5,431.5,279.5,432.5,287.5,432.5,295.5,431.5,294.5" stroke="black" stroke-width="2" fill="none" />
<polyline points="410.0,300.5,402.5,301.0,394.5,301.0,386.5,302.0,378.5,303.0,370.5,304.5,362.0,305.5,353.5,306.5,345.0,307.5,337.5,308.0,329.5,308.0,322.0,308.5,315.0,308.5,307.0,308.0,299.5,308.0,291.0,308.0,282.5,308.0,274.0,308.0,265.5,308.0" stroke="black" stroke-width="2" fill="none" />
<polyline points="266.5,306.0,275.0,305.5,282.5,304.5" stroke="black" stroke-width="2" fill="none" />
<polyline points="283.0,305.0,275.0,312.5,267.0,320.5" stroke="black" stroke-width="2" fill="none" />
<polyline points="266.5,322.0,277.0,334.0" stroke="black" stroke-width="2" fill="none" />
<polyline points="274.5,321.0,282.5,314.0,290.5,307.5,298.5,300.5,306.5,293.0,315.0,285.5,323.5,278.0,331.5,271.0,339.5,264.0,348.0,256.5,356.5,248.5,365.0,241.0,373.0,233.0,380.5,225.5,388.5,217.5,396.0,210.5,404.0,202.5,412.0,194.5,420.0,187.0" stroke="black" stroke-width="2" fill="none" />
<polyline points="427.0,187.5,418.5,195.5" stroke="black" stroke-width="2" fill="none" />
<polyline points="421.0,196.0,429.0,195.5" stroke="black" stroke-width="2" fill="none" />
<polyline points="424.5,197.5,432.5,196.5,432.5,199.0,432.0,210.5,440.5,208.0,442.5,214.0,446.0,208.5,444.5,217.5,452.0,216.5,457.0,212.0,459.0,217.0,467.0,221.0,469.0,214.5,470.5,218.5,473.0,215.5,479.0,214.5,483.5,217.5,491.0,217.5,491.0,219.5" stroke="black" stroke-width="2" fill="none" />
<polyline points="421.5,229.0,413.5,230.0" stroke="black" stroke-width="2" fill="none" />
<polyline points="403.0,214.0,395.5,221.0,388.0,227.5,380.5,234.5,373.0,241.5,365.0,248.0,356.5,255.5,347.5,262.5" stroke="black" stroke-width="2" fill="none" />
<polyline points="338.5,257.5,346.5,257.0,355.0,256.5,363.0,256.0,371.5,255.5,380.0,254.5,388.0,254.0" stroke="black" stroke-width="2" fill="none" />
<polyline points="381.5,260.0,373.0,260.5,364.5,261.0,355.5,262.0,347.0,263.0,339.0,264.0,330.5,265.5,322.0,266.0,314.0,266.5,306.5,267.0" stroke="black" stroke-width="2" fill="none" />
<polyline points="306.0,262.5,314.5,262.0,323.0,261.5,331.0,260.5,339.5,259.5,348.0,259.0,356.0,258.5,364.5,258.0,373.0,257.5,381.0,257.0,389.0,257.0,397.0,256.0,404.5,255.0,413.0,255.0" stroke="black" stroke-width="2" fill="none" />
<polyline points="427.5,247.0,420.0,247.0,412.0,248.0,403.0,248.0,395.0,249.0,387.0,250.0,379.5,251.5,372.0,252.0,364.0,253.0,356.0,253.5,348.0,254.0,340.5,254.5" stroke="black" stroke-width="2" fill="none" />
<polyline points="330.5,251.0,322.5,258.5,314.5,265.5,306.5,273.0,298.5,280.5,290.5,288.0,282.5,296.5,274.5,304.5,267.0,313.0" stroke="black" stroke-width="2" fill="none" />
<polyline points="266.5,317.0,275.0,316.5,283.5,316.5,291.5,316.0,299.5,315.5,307.5,315.0,316.0,315.0,324.0,314.0,331.5,314.0,338.5,313.5,346.0,313.0,354.5,313.0,363.0,312.5,371.5,312.5,379.5,312.5,386.5,312.0,395.0,311.0,403.0,310.5,411.0,309.5" stroke="black" stroke-width="2" fill="none" />
<polyline points="414.5,309.5,411.5,317.5,410.5,325.0,413.5,333.0,416.0,340.5" stroke="black" stroke-width="2" fill="none" />
<polyline points="406.5,337.0,402.5,329.0,399.0,320.5,406.0,314.5,398.5,320.0" stroke="black" stroke-width="2" fill="none" />
<polyline points="372.5,284.0,364.5,285.0,357.0,285.5,349.0,286.0,341.0,286.5,332.5,286.5,324.0,286.5,315.0,286.5,306.5,286.0,298.5,286.5,290.5,287.0,282.5,287.0,274.0,287.5,266.5,288.0" stroke="black" stroke-width="2" fill="none" />
<polyline points="266.5,290.0,274.0,282.5,281.5,275.0,289.5,267.5" stroke="black" stroke-width="2" fill="none" />
<polyline points="292.5,265.5,284.0,266.0" stroke="black" stroke-width="2" fill="none" />
<polyline points="284.0,257.5,291.5,257.0" stroke="black" stroke-width="2" fill="none" />
<polyline points="291.5,258.5,283.5,266.0,276.0,274.0" stroke="black" stroke-width="2" fill="none" />
<polyline points="273.5,273.5,282.0,272.5,290.5,271.5,299.0,271.0,307.0,271.0,315.5,270.5" stroke="black" stroke-width="2" fill="none" />
<polyline points="316.5,274.5,308.0,282.0,300.0,289.0,291.5,296.5" stroke="black" stroke-width="2" fill="none" />
<polyline points="290.5,305.0,298.5,304.5,306.5,304.0" stroke="black" stroke-width="2" fill="none" />
<polyline points="302.5,308.5,305.5,312.5,304.0,313.5" stroke="black" stroke-width="2" fill="none" />
<polyline points="292.5,320.0,284.5,320.0,276.5,320.0" stroke="black" stroke-width="2" fill="none" />
<polyline points="276.5,313.0,285.0,312.5,293.0,312.0,300.0,311.5" stroke="black" stroke-width="2" fill="none" />
<polyline points="299.5,297.0,291.5,297.5,283.5,297.5,276.0,298.0,268.5,299.0" stroke="black" stroke-width="2" fill="none" />
<polyline points="266.5,298.0,274.5,290.5,282.0,283.5,290.0,276.5,297.5,269.0,305.5,261.5,313.5,254.5,321.5,246.5,329.0,239.0,337.0,231.5,344.5,224.0,352.5,216.5,361.0,210.0,369.0,202.5,377.0,195.5,385.0,188.5,393.0,181.0" stroke="black" stroke-width="2" fill="none" />
<polyline points="381.5,185.5,373.5,193.0,365.5,200.0,357.5,208.0,349.0,216.0,340.5,224.0,332.0,231.5,323.5,240.0,315.0,248.0,307.0,255.5" stroke="black" stroke-width="2" fill="none" />
<polyline points="300.5,257.5,308.5,257.0,316.5,257.0,324.0,256.5,332.0,256.0" stroke="black" stroke-width="2" fill="none" />
<polyline points="330.0,259.0,322.0,266.5" stroke="black" stroke-width="2" fill="none" />
<polyline points="324.0,272.5,332.0,272.5,340.0,271.5" stroke="black" stroke-width="2" fill="none" />
<polyline points="329.0,283.5,337.0,283.0,345.5,282.0,354.0,281.0" stroke="black" stroke-width="2" fill="none" />
<polyline points="365.0,290.5,373.0,292.5,381.0,295.0,389.0,297.0,397.5,295.5" stroke="black" stroke-width="2" fill="none" />
<polyline points="397.0,264.0,405.0,258.0,405.0,258.0,406.0,265.0" stroke="black" stroke-width="2" fill="none" />
<polyline points="405.0,208.0,396.5,208.0,389.0,209.0,381.0,210.0" stroke="black" stroke-width="2" fill="none" />
<polyline points="380.0,207.0,388.5,206.0,396.5,205.0,404.0,204.0" stroke="black" stroke-width="2" fill="none" />
<polyline points="403.5,202.0,403.5,210.0" stroke="black" stroke-width="2" fill="none" />
<polyline points="409.0,199.5,400.5,200.0,392.5,200.5,385.0,200.0,377.5,200.5,370.0,201.0,362.5,202.0" stroke="black" stroke-width="2" fill="none" />
<polyline points="356.0,194.0,347.5,202.0,339.0,210.5,330.5,218.5,322.0,226.5,313.5,234.5,305.5,242.0,298.0,249.0" stroke="black" stroke-width="2" fill="none" />
<polyline points="297.0,244.5,305.5,243.5,314.0,242.5,322.5,241.5,330.5,240.0,338.5,239.0,346.5,238.0,354.5,238.0,362.0,237.5,370.0,236.5,378.0,236.0,386.0,235.5,393.5,235.0,401.0,234.5" stroke="black" stroke-width="2" fill="none" />
<polyline points="404.0,215.0,395.5,215.5,387.0,215.5,378.5,216.0,370.0,215.5,362.5,215.5,354.0,216.0,346.0,216.0" stroke="black" stroke-width="2" fill="none" />
<polyline points="347.5,212.5,355.0,212.0,363.0,211.0,371.0,210.5,379.0,210.5,387.0,210.5,395.0,210.0,403.5,209.5,412.0,209.5" stroke="black" stroke-width="2" fill="none" />
<polyline points="412.0,213.5,405.0,214.0,398.0,214.5,390.5,215.0,382.0,215.0,373.5,215.5,365.0,215.5,356.5,215.5,348.5,215.5,340.5,216.5,333.5,217.0,325.5,217.5,317.5,218.0,309.5,218.5,301.0,219.5,293.0,220.5,285.0,221.0,276.5,221.0,268.5,221.5" stroke="black" stroke-width="2" fill="none" />
<polyline points="267.5,219.5,276.0,212.0,284.0,204.5" stroke="black" stroke-width="2" fill="none" />
<polyline points="284.5,208.0,276.5,209.0" stroke="black" stroke-width="2" fill="none" />
<polyline points="278.5,210.0,278.5,218.0,279.0,228.0,281.0,236.0,284.0,244.0,284.0,254.0,292.0,265.0,300.0,271.5,307.5,276.5,315.5,278.5,323.5,282.0,331.5,283.0,340.0,284.5,348.0,284.0" stroke="black" stroke-width="2" fill="none" />
<polyline points="322.5,278.0,314.5,279.0,307.0,279.5,299.0,280.0,292.0,281.0,284.5,281.5,277.0,281.5" stroke="black" stroke-width="2" fill="none" />
<polyline points="267.0,277.5,275.5,277.0,283.5,276.0,291.5,276.0,300.0,276.0,307.5,276.0,315.0,275.5,323.0,275.0,331.5,274.0,340.0,273.0,348.0,272.5,355.5,272.0,363.5,271.0,371.5,270.5,380.0,269.5,388.0,268.5,396.0,268.0,402.5,268.0,410.0,267.0,418.0,266.5,426.0,266.0,434.0,266.0,442.5,265.5,450.0,265.5,458.5,266.0" stroke="black" stroke-width="2" fill="none" />
<polyline points="402.0,219.5,393.5,220.5,385.5,220.5,377.5,221.0,369.5,221.5,361.5,222.0,353.5,223.0,345.5,224.0,338.0,224.5,331.0,225.5,323.5,226.5,316.0,227.5" stroke="black" stroke-width="2" fill="none" />
<polyline points="314.0,219.5,306.0,227.0,298.5,234.5,290.5,242.0,283.0,250.0" stroke="black" stroke-width="2" fill="none" />
<polyline points="283.0,254.0,291.0,253.5" stroke="black" stroke-width="2" fill="none" />
<polyline points="298.0,254.0,306.5,254.0,315.0,253.5,323.5,253.5,331.5,253.5" stroke="black" stroke-width="2" fill="none" />
<polyline points="332.5,246.5,324.0,247.5,315.5,248.0,307.0,249.0,299.0,249.5,291.0,250.5,283.0,251.5,275.5,252.5" stroke="black" stroke-width="2" fill="none" />
<polyline points="276.5,249.5,284.5,241.5" stroke="black" stroke-width="2" fill="none" />
<polyline points="283.5,237.5,291.0,237.0,299.0,236.5,307.0,236.0,314.5,235.0,322.5,234.0,330.5,233.5,338.5,233.0,346.5,232.5,354.5,232.0,363.0,231.0,371.0,231.0,379.0,231.0,387.5,230.5,396.0,230.0,404.0,229.0,412.0,229.0,419.5,229.0,427.5,229.0,436.0,228.5,444.0,227.5" stroke="black" stroke-width="2" fill="none" />
<polyline points="404.0,221.5,395.5,222.5,387.0,223.0,379.0,223.5,370.5,224.0,362.5,224.5,355.0,225.0,347.0,226.0,339.0,226.5,331.5,227.0,324.0,227.5,316.0,227.5,308.5,228.0,301.0,228.5,293.0,229.0,285.0,229.5" stroke="black" stroke-width="2" fill="none" />
<polyline points="283.5,224.5,275.0,224.5,267.0,225.0" stroke="black" stroke-width="2" fill="none" />
<polyline points="265.0,226.0,273.0,218.5,281.0,211.0" stroke="black" stroke-width="2" fill="none" />
<polyline points="276.5,206.0,284.0,205.5,292.0,204.5,300.0,203.5,308.5,202.5,317.0,202.0,324.5,201.5,332.0,201.0,340.5,200.5,349.0,200.0,357.5,199.5,365.0,199.5,372.0,199.5" stroke="black" stroke-width="2" fill="none" />
<polyline points="372.5,210.0,364.5,217.5,356.0,225.0,348.0,232.5,339.5,240.0" stroke="black" stroke-width="2" fill="none" />
<polyline points="337.5,239.0,339.5,236.0,340.5,234.5,334.5,239.5,338.5,247.5,332.5,253.5,331.0,262.0,333.5,256.0" stroke="black" stroke-width="2" fill="none" />
<polyline points="300.5,258.0,308.0,250.5,316.0,242.5,324.0,234.5,331.5,226.0,340.0,218.0" stroke="black" stroke-width="2" fill="none" />
<polyline points="347.0,208.0,355.0,208.0,363.0,208.0,371.5,207.5" stroke="black" stroke-width="2" fill="none" />
<polyline points="368.0,219.5,375.5,224.0" stroke="black" stroke-width="2" fill="none" />
<polyline points="375.5,225.0,371.5,220.0,363.5,220.0" stroke="black" stroke-width="2" fill="none" />
<polyline points="364.5,218.5,373.5,226.5" stroke="black" stroke-width="2" fill="none" />
<polyline points="347.0,208.0,355.0,200.0,363.5,192.0,371.5,184.0" stroke="black" stroke-width="2" fill="none" />
<polyline points="355.0,174.0,363.0,173.0,371.0,173.0,379.0,172.5,386.5,171.5,394.5,170.5,403.5,170.5,412.0,169.5" stroke="black" stroke-width="2" fill="none" />
<polyline points="406.0,166.5,397.5,167.0" stroke="black" stroke-width="2" fill="none" />
<polyline points="398.0,167.0,406.0,173.0,414.5,178.0,423.0,183.0,431.5,184.5,439.5,191.0" stroke="black" stroke-width="2" fill="none" />
<polyline points="436.5,183.5,429.0,184.0,421.5,184.0,413.5,185.0,405.5,185.0,397.0,185.5,389.0,186.0,380.0,186.5,371.5,186.5,363.5,187.5,354.5,188.5,346.0,189.0,338.0,190.0,329.5,191.0" stroke="black" stroke-width="2" fill="none" />
<polyline points="339.0,194.5,331.5,202.0" stroke="black" stroke-width="2" fill="none" />
<polyline points="339.5,212.0,331.5,212.5,324.0,213.0" stroke="black" stroke-width="2" fill="none" />
<polyline points="322.5,217.5,330.5,217.0,338.5,216.0" stroke="black" stroke-width="2" fill="none" />
<polyline points="334.0,207.0,326.5,196.0,318.5,183.5,310.5,172.5" stroke="black" stroke-width="2" fill="none" />
<polyline points="309.5,171.0,317.5,177.0,325.0,188.5,333.0,200.0,341.0,211.0,349.0,212.0,356.5,210.0,364.5,209.0,373.0,207.0,381.0,206.5" stroke="black" stroke-width="2" fill="none" />
<polyline points="396.5,229.0,388.0,230.0,380.0,230.0,372.0,230.0,363.5,230.0,355.0,229.5,346.0,229.5,337.5,230.5,329.5,231.0,322.0,231.5,315.0,232.5,307.0,233.5" stroke="black" stroke-width="2" fill="none" />
<polyline points="315.0,226.5,306.5,221.5" stroke="black" stroke-width="2" fill="none" />
<polyline points="308.0,223.0,301.5,219.0" stroke="black" stroke-width="2" fill="none" />
<polyline points="298.5,213.5,306.5,206.0" stroke="black" stroke-width="2" fill="none" />
<polyline points="304.0,204.0,312.0,195.0,320.0,193.0" stroke="black" stroke-width="2" fill="none" />
<polyline points="324.5,188.0,317.0,188.0,309.0,188.0,301.5,189.0,293.5,189.5,285.0,190.0" stroke="black" stroke-width="2" fill="none" />
<polyline points="284.0,189.5,291.5,175.5,299.5,168.0,307.5,161.5,315.5,156.5,323.5,154.0,316.5,156.0,304.5,164.5,295.0,172.5,289.0,180.5,286.0,188.5,281.0,196.5,286.0,202.0,284.5,210.0,284.5,218.0,285.5,225.5,287.5,236.5,287.0,244.0,287.0,244.5,290.0,249.5,293.5,254.5,301.0,261.5,306.0,269.5,319.5,275.0" stroke="black" stroke-width="2" fill="none" />
<polyline points="298.0,268.5,291.0,276.5,283.0,284.0,275.5,291.5,268.5,298.5" stroke="black" stroke-width="2" fill="none" />
<polyline points="268.0,302.0,275.5,302.0,283.0,301.0,290.5,300.5,298.5,300.5,306.5,300.5,314.0,299.0,322.0,298.0,330.0,297.0,338.5,296.5,346.5,296.0,354.5,295.5,362.5,295.0,370.0,295.0,377.0,295.5,385.0,295.0,393.0,294.5,401.0,293.5,409.0,293.5,417.5,293.0,425.5,292.5,433.5,292.0,442.0,291.5,450.5,291.0,459.0,290.0,467.0,289.0,475.5,288.5,483.5,288.5,491.5,287.5,499.0,287.5,507.0,287.0,515.0,286.0" stroke="black" stroke-width="2" fill="none" />
<polyline points="419.5,194.0,412.0,194.5" stroke="black" stroke-width="2" fill="none" />
<polyline points="412.5,189.0,404.0,189.0,396.0,189.0,388.0,190.0,379.5,190.5,371.5,191.0,363.5,191.5,355.5,191.5,347.5,192.5,339.5,193.5,331.5,194.0,323.5,194.5,316.0,194.5,308.0,195.5,300.5,196.5,292.5,196.5,285.5,196.5,278.0,197.0" stroke="black" stroke-width="2" fill="none" />
<polyline points="277.5,201.0,285.5,200.5" stroke="black" stroke-width="2" fill="none" />
<polyline points="284.5,196.0,277.0,203.5" stroke="black" stroke-width="2" fill="none" />
<polyline points="280.0,201.0,280.0,191.5,287.5,175.5,295.5,166.0,303.0,160.5,311.0,156.0,318.5,152.0,326.5,150.5,334.0,148.5,341.5,148.5,349.5,149.5,357.5,151.5,365.5,154.0,374.0,157.5,382.5,162.0,390.5,170.0,399.0,180.5,410.5,188.5,419.0,187.5,427.0,188.0,432.0,186.0,440.0,199.0,448.0,201.5,451.5,205.5,452.0,204.5,460.0,205.5,467.5,208.5,475.0,210.5,483.0,214.5,490.5,214.0" stroke="black" stroke-width="2" fill="none" />
<polyline points="513.5,253.0,505.5,253.5,498.0,254.0,490.5,255.0,483.0,256.5,475.0,258.0,467.0,258.5,460.0,259.0,452.0,260.0,444.0,260.5,436.0,260.5,427.5,261.0,419.5,261.5,411.0,261.5,403.0,262.0,395.0,262.0,386.5,262.5,378.5,262.5,370.5,263.0,362.5,264.0,354.5,264.5,346.5,265.0,339.0,265.5,331.5,265.5,323.5,266.0,315.0,266.5,306.5,267.5,298.0,268.0,289.5,269.0,281.5,270.0,274.0,270.5" stroke="black" stroke-width="2" fill="none" />
<polyline points="274.0,264.0,282.0,263.5,290.5,262.5" stroke="black" stroke-width="2" fill="none" />
<polyline points="282.0,256.5,290.5,249.0,298.5,241.0,306.5,233.0,315.0,225.5,324.0,218.0,332.5,210.5,341.5,203.0,349.5,195.5" stroke="black" stroke-width="2" fill="none" />
<polyline points="347.0,170.0,339.0,170.5,331.5,171.0,323.0,171.5,315.0,172.0,307.5,173.0,300.0,173.0,292.0,173.5" stroke="black" stroke-width="2" fill="none" />
<polyline points="291.0,178.0,283.0,185.5" stroke="black" stroke-width="2" fill="none" />
<polyline points="284.5,179.5,276.5,187.0" stroke="black" stroke-width="2" fill="none" />
<polyline points="275.5,185.0,283.5,185.0" stroke="black" stroke-width="2" fill="none" />
<polyline points="291.0,187.5,301.5,174.5,294.0,182.5,291.0,190.0,288.0,198.5" stroke="black" stroke-width="2" fill="none" />
<polyline points="283.5,218.0,275.5,225.5,266.5,233.5" stroke="black" stroke-width="2" fill="none" />
<polyline points="267.0,232.0,275.5,232.0" stroke="black" stroke-width="2" fill="none" />
<polyline points="275.5,237.0,267.5,244.0" stroke="black" stroke-width="2" fill="none" />
<polyline points="274.0,245.5,282.0,245.5,291.0,245.0,299.5,245.0,307.5,245.0,315.5,244.5,323.5,244.0,331.5,243.5,339.5,243.0,347.5,242.5,355.0,241.5,363.0,241.0,371.5,241.0,379.5,240.5,387.5,239.5,395.5,239.0,403.5,238.5,411.0,238.0,419.0,237.5,427.0,237.0,435.0,236.5" stroke="black" stroke-width="2" fill="none" />
<polyline points="397.5,227.5,398.5,242.5,394.0,250.0,386.0,260.0,377.5,267.0,369.5,272.0,361.5,275.0,353.5,278.0,345.5,279.5,338.0,278.5,330.0,277.5,322.5,275.5,314.5,271.0,306.5,266.0,299.0,259.0,291.0,249.0,291.0,242.0" stroke="black" stroke-width="2" fill="none" />
<polyline points="293.0,244.0,301.0,252.0" stroke="black" stroke-width="2" fill="none" />
<polyline points="277.0,236.0,269.0,236.0" stroke="black" stroke-width="2" fill="none" />
<polyline points="266.5,228.5,274.5,228.0" stroke="black" stroke-width="2" fill="none" />
<polyline points="286.5,221.5,294.5,217.5,296.0,220.0,306.5,217.5,315.0,216.5,317.0,218.5" stroke="black" stroke-width="2" fill="none" />
<polyline points="316.5,210.0,308.5,211.5,300.0,212.0,291.5,213.0,283.5,214.0,275.0,214.5,267.0,215.0" stroke="black" stroke-width="2" fill="none" />
<polyline points="258.0,236.0,266.0,245.5,271.5,238.5,282.0,245.0,286.0,252.0" stroke="black" stroke-width="2" fill="none" />
<polyline points="266.0,285.0,274.5,284.0,283.0,283.5,291.5,283.5,300.0,283.0,308.0,283.0,317.0,282.5,324.5,282.0,332.5,281.5,340.5,281.0,348.0,281.0,356.5,280.5,364.5,280.5,373.0,280.0,381.0,279.5,388.5,278.5,395.5,277.5,402.5,276.0,409.5,275.0,417.0,274.0,425.0,273.5,433.5,273.0,441.5,273.0,450.0,273.0,458.5,273.0,467.0,273.0,475.5,273.0,484.0,273.5,493.0,273.5,501.5,273.5,509.5,273.0,517.5,273.0" stroke="black" stroke-width="2" fill="none" />
<polyline points="413.0,200.0,415.5,207.5,415.5,215.5,413.0,223.5,414.5,231.0,406.5,235.0,404.0,243.0,400.0,251.0,393.5,259.0,386.5,267.0,371.5,274.5,357.5,279.5,366.0,277.5,374.0,273.5" stroke="black" stroke-width="2" fill="none" />
<polyline points="335.0,272.0,327.5,271.0,310.0,270.5,300.0,269.5,290.5,262.0,284.0,254.0,280.0,245.5,277.5,237.0,276.0,230.0,275.0,222.0,274.5,214.5,275.5,206.5,276.5,198.0,279.5,190.5,282.5,182.5,288.0,174.5,294.5,166.5,304.5,158.5,321.5,150.5,322.5,140.5,316.5,138.5" stroke="black" stroke-width="2" fill="none" />
<polyline points="320.5,139.0,328.0,152.5,337.0,151.5,348.5,151.0,360.5,153.5,368.5,157.0,376.5,161.0,378.5,171.0,389.0,173.0,401.0,174.0,409.0,183.5,417.0,185.0" stroke="black" stroke-width="2" fill="none" />
<polyline points="427.0,181.0,439.0,189.5,439.0,201.5,436.5,211.5,437.5,218.0,448.5,224.0,452.0,229.0,452.0,237.0,445.0,243.0,437.0,256.5,443.5,269.5,442.0,267.5,450.0,268.0,458.0,263.0,461.0,264.5,469.0,261.0,472.0,257.0,478.0,255.0,480.0,253.0,485.0,246.5" stroke="black" stroke-width="2" fill="none" />
<polyline points="402.0,156.5,393.5,164.0" stroke="black" stroke-width="2" fill="none" />
<polyline points="395.0,162.5,403.0,162.0" stroke="black" stroke-width="2" fill="none" />
<polyline points="402.0,156.5,393.5,157.5" stroke="black" stroke-width="2" fill="none" />
<polyline points="399.0,155.0,392.0,157.0,386.0,159.0,390.0,158.5,393.0,151.5,394.0,155.0,402.5,154.0" stroke="black" stroke-width="2" fill="none" />
<polyline points="401.0,155.5,397.0,163.5,393.0,164.5,401.5,157.5" stroke="black" stroke-width="2" fill="none" />
<polyline points="397.0,150.5,384.5,158.5,397.5,168.0,402.5,176.0,408.0,184.0,409.0,192.0,414.0,198.0,402.5,202.0,406.5,207.0,404.0,215.0,402.5,221.0,402.0,229.0,400.5,236.5,396.5,244.5,392.0,253.0,385.0,260.5,374.0,268.5,358.0,268.5,353.5,272.5" stroke="black" stroke-width="2" fill="none" />
<polyline points="313.0,278.0,303.0,275.0,293.5,267.5,282.5,257.5,273.0,249.5,267.0,242.0,270.5,232.0,272.5,223.5,272.5,215.5,272.5,207.0,273.0,199.0,276.5,191.0,280.5,182.5,285.0,174.5,285.0,165.0,277.0,168.5" stroke="black" stroke-width="2" fill="none" />
<polyline points="278.0,166.0,277.0,174.0,271.0,182.5,272.0,185.5,273.0,195.0,272.5,203.0,270.5,211.0,269.5,219.0,268.0,227.0,274.0,232.5,277.5,240.5,279.5,245.5,285.0,254.0,287.5,262.5,279.0,270.5,287.0,273.5,289.0,270.5,292.0,274.5" stroke="black" stroke-width="2" fill="none" />
<polyline points="300.0,291.5,291.0,291.5,282.5,291.5,274.0,292.0,266.5,292.5" stroke="black" stroke-width="2" fill="none" />
<polyline points="265.0,292.0,273.0,275.5,273.0,275.5,268.5,283.0,265.5,291.0,266.0,299.0,266.0,307.0,267.0,315.0,268.0,323.0,267.5,331.0,270.5,339.0" stroke="black" stroke-width="2" fill="none" />
<polyline points="260.5,313.0,252.5,314.0,244.0,314.5,235.0,315.0,227.0,316.0,219.0,317.0,211.0,318.0,203.0,318.5,195.0,319.5" stroke="black" stroke-width="2" fill="none" />
<polyline points="156.0,325.5,164.0,324.5,171.5,323.5,179.5,323.0,187.5,323.0,195.0,322.5,203.5,322.0,212.0,322.0,220.5,321.5,229.0,321.0,237.0,320.5,244.5,320.5,252.0,320.0,259.0,319.0" stroke="black" stroke-width="2" fill="none" />
<polyline points="258.5,324.0,251.0,324.5,243.5,324.5,235.5,325.0,227.0,325.5,218.5,326.5,210.0,327.0,201.5,328.0,193.5,329.0,186.0,329.5,177.5,330.0,169.5,329.5,162.0,330.0,154.5,330.5,147.0,330.5,138.5,331.5,130.5,331.5,122.5,332.5,114.5,333.0,107.0,334.0" stroke="black" stroke-width="2" fill="none" />
<polyline points="123.5,326.5,131.0,326.0,139.0,324.5,147.0,324.0" stroke="black" stroke-width="2" fill="none" />
<polyline points="233.5,310.0,241.5,309.5,249.5,309.0" stroke="black" stroke-width="2" fill="none" />
<polyline points="261.0,308.0,260.5,315.5,260.5,323.5,260.5,331.5,260.5,340.0" stroke="black" stroke-width="2" fill="none" />
<polyline points="329.0,312.5,337.5,324.5" stroke="black" stroke-width="2" fill="none" />
<polyline points="333.0,314.0,336.0,321.5,337.5,329.5,338.5,337.0" stroke="black" stroke-width="2" fill="none" />
<polyline points="335.0,334.5,332.5,326.5,331.5,318.5,331.5,310.5" stroke="black" stroke-width="2" fill="none" />
<polyline points="320.5,209.5,320.0,217.5,319.5,225.5,323.5,215.5,324.5,218.0,332.5,216.0,337.0,217.5,345.0,214.0,353.5,214.0,361.5,211.5,369.5,209.5,377.5,207.5" stroke="black" stroke-width="2" fill="none" />
<polyline points="354.5,154.5,362.0,146.5,370.0,139.0" stroke="black" stroke-width="2" fill="none" />
<polyline points="371.0,140.5,363.0,140.5,355.0,141.0" stroke="black" stroke-width="2" fill="none" />
<polyline points="356.0,136.0,364.0,131.0,371.0,131.5,356.0,132.5,358.0,140.5,361.5,142.5,363.5,141.5,366.0,146.0" stroke="black" stroke-width="2" fill="none" />
<polyline points="373.0,145.5,365.0,145.5,357.5,146.0" stroke="black" stroke-width="2" fill="none" />
<polyline points="354.0,148.5,361.5,141.0,369.5,133.5" stroke="black" stroke-width="2" fill="none" />
<polyline points="369.5,134.0,361.5,134.5" stroke="black" stroke-width="2" fill="none" />
<polyline points="356.5,136.0,367.5,135.5,365.5,143.5" stroke="black" stroke-width="2" fill="none" />
<polyline points="366.0,148.0,357.5,148.5,349.0,148.0,340.0,148.5,331.5,149.0,323.5,149.5" stroke="black" stroke-width="2" fill="none" />
<polyline points="323.0,142.5,331.0,142.0" stroke="black" stroke-width="2" fill="none" />
<polyline points="331.5,155.0,339.5,154.5,347.5,154.5,355.5,154.5,363.5,154.5,372.0,154.5,380.0,154.5" stroke="black" stroke-width="2" fill="none" />
<polyline points="386.0,162.5,378.5,162.5,371.0,162.5,363.0,163.0,355.0,163.0,347.5,163.5,339.5,164.0,332.0,164.5,325.0,164.5,317.5,164.5" stroke="black" stroke-width="2" fill="none" />
<polyline points="315.0,157.0,307.0,164.5" stroke="black" stroke-width="2" fill="none" />
<polyline points="306.5,166.0,298.5,166.5" stroke="black" stroke-width="2" fill="none" />
<polyline points="293.5,163.5,302.0,156.5" stroke="black" stroke-width="2" fill="none" />
<polyline points="307.0,158.0,315.5,157.0,323.5,156.5" stroke="black" stroke-width="2" fill="none" />
<polyline points="314.0,148.5,306.0,153.0,298.0,155.5,290.5,161.5,288.5,166.0,293.5,163.0,296.0,154.0,288.5,156.5,281.0,157.5,273.0,164.0" stroke="black" stroke-width="2" fill="none" />
<polyline points="276.0,165.0,284.0,164.5" stroke="black" stroke-width="2" fill="none" />
<polyline points="282.5,164.5,274.5,171.5" stroke="black" stroke-width="2" fill="none" />
<polyline points="275.5,173.0,283.0,172.5" stroke="black" stroke-width="2" fill="none" />
<polyline points="281.5,172.0,273.0,179.5" stroke="black" stroke-width="2" fill="none" />
<polyline points="275.5,180.0,283.0,180.0,291.0,180.0,298.5,180.0,306.5,180.0,315.0,179.5,323.0,179.0,330.5,178.5,338.5,178.0,346.5,177.5,354.0,177.5,362.5,177.0,371.0,176.5,379.0,175.5,387.5,174.5,396.0,174.0,404.0,173.5,412.5,173.0,421.0,172.5,429.0,172.0" stroke="black" stroke-width="2" fill="none" />
<polyline points="372.0,139.5,369.0,134.5" stroke="black" stroke-width="2" fill="none" />
<polyline points="353.0,131.5,353.0,131.0,351.0,139.0,356.0,145.5,374.5,157.5,386.5,165.5,389.5,173.5,388.5,181.5,390.5,180.0" stroke="black" stroke-width="2" fill="none" />
<polyline points="399.5,202.0,396.0,195.5,402.0,190.5,397.0,184.5,395.0,176.5,389.0,168.5,374.5,160.0,357.5,152.0" stroke="black" stroke-width="2" fill="none" />
<polyline points="311.5,170.5,317.5,178.5,323.5,186.5,328.5,194.5,334.5,202.5,339.5,210.5,347.0,220.0" stroke="black" stroke-width="2" fill="none" />
<polyline points="312.0,193.0,304.0,201.0,302.0,209.0" stroke="black" stroke-width="2" fill="none" />
<polyline points="283.0,175.5,274.5,176.0" stroke="black" stroke-width="2" fill="none" />
<polyline points="271.0,173.0,272.0,165.0,281.5,157.0" stroke="black" stroke-width="2" fill="none" />
<polyline points="310.5,169.0,313.0,177.0,319.0,185.0,325.5,193.0,330.5,200.5,336.5,208.5,336.0,216.5,344.0,219.0,349.0,221.0" stroke="black" stroke-width="2" fill="none" />
</svg>