<svg xmlns="http://www.w3.org/2000/svg" version="1.1"><polyline points="281.0,109.5,272.0,117.5,262.0,120.5,257.0,123.0,250.5,127.0,256.0,120.0,267.5,121.0,275.5,114.0" stroke="black" stroke-width="2" fill="none" />
<polyline points="282.0,124.0,274.0,131.5,266.0,138.5,258.0,145.5" stroke="black" stroke-width="2" fill="none" />
<polyline points="250.0,147.5,258.0,147.0,266.0,146.5,274.0,145.5,282.5,144.0" stroke="black" stroke-width="2" fill="none" />
<polyline points="281.5,141.5,290.0,143.5,291.0,135.0,299.5,137.0,307.5,142.0,315.5,145.0" stroke="black" stroke-width="2" fill="none" />
<polyline points="316.0,147.5,308.0,155.0,299.5,162.0,291.0,169.5,282.5,177.0,274.0,184.5" stroke="black" stroke-width="2" fill="none" />
<polyline points="273.0,181.5,281.0,178.5" stroke="black" stroke-width="2" fill="none" />
<polyline points="284.0,184.0,292.0,177.0,300.5,170.0,308.5,163.0,316.0,155.5" stroke="black" stroke-width="2" fill="none" />
<polyline points="324.0,156.0,316.5,163.5,308.5,171.5,301.0,178.5,293.0,185.5" stroke="black" stroke-width="2" fill="none" />
<polyline points="291.5,184.5,299.5,184.0,307.5,183.5,315.5,183.0,323.0,182.5" stroke="black" stroke-width="2" fill="none" />
<polyline points="324.0,188.0,315.5,195.0,307.5,202.5,299.5,210.5,291.5,218.0,283.0,225.0,275.5,232.5,267.5,239.5,259.5,246.5,251.5,253.0,243.0,260.5,235.0,268.0" stroke="black" stroke-width="2" fill="none" />
<polyline points="236.0,267.0,244.0,266.5,252.0,266.0" stroke="black" stroke-width="2" fill="none" />
<polyline points="259.5,272.0,251.5,272.5,244.0,273.5" stroke="black" stroke-width="2" fill="none" />
<polyline points="239.0,272.0,246.5,271.5,254.0,270.5,261.5,269.5,270.0,268.5,278.0,267.5,285.5,266.5,293.0,266.0,300.5,265.0,308.0,264.5,316.0,264.0,324.0,264.0,332.5,264.0,340.5,263.5,348.5,262.5,356.5,262.0,364.0,261.5,372.0,261.0,379.5,260.5,387.5,260.5,395.5,259.5,403.5,259.5,412.0,258.5,420.5,257.5,428.5,257.0,437.0,256.5,445.0,256.0,453.0,255.5,461.0,254.5,468.5,254.0,476.5,253.0,485.0,253.0,493.0,252.5,500.5,252.0,508.0,251.5,515.0,252.0" stroke="black" stroke-width="2" fill="none" />
<polyline points="516.0,251.5,508.0,258.5,499.5,266.0,491.0,274.0,482.0,282.0,474.0,289.0,466.5,296.5,459.0,303.0,451.5,310.0,443.5,317.0,435.5,325.0,427.5,332.5" stroke="black" stroke-width="2" fill="none" />
<polyline points="422.0,330.0,429.5,329.0,437.5,328.5,445.0,328.0,452.5,327.5,460.5,326.5,468.0,326.5,475.5,327.0,483.5,326.5,491.5,326.0,500.0,325.5,508.0,325.0,515.5,324.5" stroke="black" stroke-width="2" fill="none" />
<polyline points="517.0,322.5,509.0,330.5,501.0,338.5" stroke="black" stroke-width="2" fill="none" />
<polyline points="507.5,340.5,515.5,332.5" stroke="black" stroke-width="2" fill="none" />
<polyline points="518.0,315.5,509.5,323.0,501.0,331.0,493.0,338.5" stroke="black" stroke-width="2" fill="none" />
<polyline points="483.5,337.5,491.5,330.0,499.5,322.0,507.5,314.0,515.5,306.0" stroke="black" stroke-width="2" fill="none" />
<polyline points="515.5,299.0,507.0,306.5,499.0,314.5,491.0,322.5,482.5,329.5,475.0,337.5" stroke="black" stroke-width="2" fill="none" />
<polyline points="468.0,337.0,476.0,329.0,483.5,321.5,491.0,314.0,498.5,306.5,506.5,299.5,514.5,292.5" stroke="black" stroke-width="2" fill="none" />
<polyline points="516.0,284.5,508.0,292.5,499.5,300.5,491.5,307.5,484.0,314.0,475.5,321.0,467.5,328.5,458.5,335.5" stroke="black" stroke-width="2" fill="none" />
<polyline points="451.5,335.0,459.5,328.0,467.5,321.0,475.5,314.0,484.0,306.5,492.0,298.5,500.0,291.0,507.5,283.0,515.5,275.5" stroke="black" stroke-width="2" fill="none" />
<polyline points="516.0,266.5,508.5,274.0,500.5,281.5,492.5,289.5,485.0,298.0,476.5,305.0,468.5,312.5,460.0,320.0,452.0,327.0,444.0,334.0" stroke="black" stroke-width="2" fill="none" />
<polyline points="437.0,332.0,444.5,325.0,452.0,318.0,460.0,311.0,468.0,303.5,476.0,296.5,484.0,289.0,491.5,281.0,499.5,274.0,507.5,267.0,515.0,259.5" stroke="black" stroke-width="2" fill="none" />
<polyline points="515.5,242.0,508.0,249.5,500.5,256.5,492.5,264.0,484.0,272.5,476.0,280.5,468.0,288.0,460.0,296.0,452.5,303.5,444.0,311.0,436.5,318.5,428.5,326.0,420.0,333.0" stroke="black" stroke-width="2" fill="none" />
<polyline points="413.0,334.0,421.5,326.0,430.0,318.0,438.0,310.0,445.5,303.0,453.0,295.5,460.5,288.0,468.0,280.5,476.0,273.5,484.5,265.0,493.0,256.5,501.5,248.5,509.0,241.0,517.5,233.0" stroke="black" stroke-width="2" fill="none" />
<polyline points="515.0,226.0,507.0,233.5,499.5,241.5,491.5,249.0,483.0,256.5,475.5,264.5,467.5,272.0,460.0,279.5,452.0,287.0,444.0,294.5,436.0,302.0,428.5,309.5,421.0,317.0,413.0,324.5,404.5,332.5" stroke="black" stroke-width="2" fill="none" />
<polyline points="386.5,331.0,394.5,324.0,402.5,316.5,410.0,309.5,418.0,301.5,426.0,294.5,434.0,287.5,442.0,280.0,450.5,273.0,459.0,265.5,467.0,257.5,475.0,249.5,482.5,242.0,491.0,234.5,499.0,227.0" stroke="black" stroke-width="2" fill="none" />
<polyline points="490.5,228.5,483.0,236.0,474.5,243.0,466.5,250.5,459.0,257.5,450.5,264.5,442.5,272.5,434.5,280.5,426.5,287.5,418.0,295.0,409.5,302.5,402.0,309.5,394.5,317.0,387.0,324.5,379.5,332.5" stroke="black" stroke-width="2" fill="none" />
<polyline points="394.5,332.5,402.0,325.0,409.5,317.5,417.5,310.0,426.0,302.5,433.5,295.5,442.0,288.5,450.0,281.0,458.0,273.5,466.0,266.5,474.0,259.0,482.5,251.5,490.5,244.0" stroke="black" stroke-width="2" fill="none" />
<polyline points="499.5,236.0,507.5,228.5" stroke="black" stroke-width="2" fill="none" />
<polyline points="484.0,229.5,476.0,237.5,467.5,245.0,459.5,252.0,451.0,259.0,443.0,267.0,434.5,274.5,426.0,282.0,418.0,289.5,410.0,296.5,402.0,304.0,394.0,311.0,385.5,318.5,378.0,325.5,370.0,333.0" stroke="black" stroke-width="2" fill="none" />
<polyline points="363.5,332.5,371.5,325.0,379.0,317.0,387.0,309.0,395.0,302.0,403.0,294.5,411.0,287.5,419.0,280.0,427.0,272.0,435.0,264.5,443.0,257.0,450.5,250.0,459.0,243.0,467.5,235.5,475.5,228.0" stroke="black" stroke-width="2" fill="none" />
<polyline points="466.5,226.0,458.5,233.5,451.0,241.0,443.5,248.5,436.0,256.0,429.0,263.5,421.0,271.0,413.0,279.0,405.0,286.5,397.0,293.5,389.0,301.0,381.5,308.5,374.0,316.0,366.5,324.0,358.5,332.0" stroke="black" stroke-width="2" fill="none" />
<polyline points="362.5,329.5,370.0,329.5,377.5,328.5,385.5,327.5,393.5,326.5,402.0,325.5,410.5,325.0" stroke="black" stroke-width="2" fill="none" />
<polyline points="412.5,304.5,405.0,305.5,397.0,306.0" stroke="black" stroke-width="2" fill="none" />
<polyline points="413.0,296.5,421.0,296.0" stroke="black" stroke-width="2" fill="none" />
<polyline points="422.0,304.0,429.5,303.5,437.5,303.0" stroke="black" stroke-width="2" fill="none" />
<polyline points="438.0,298.0,445.5,298.0,453.0,298.0,461.0,298.0,469.5,297.5" stroke="black" stroke-width="2" fill="none" />
<polyline points="476.0,290.5,484.0,290.0" stroke="black" stroke-width="2" fill="none" />
<polyline points="492.5,289.0,500.5,288.5" stroke="black" stroke-width="2" fill="none" />
<polyline points="506.5,289.0,514.5,288.0" stroke="black" stroke-width="2" fill="none" />
<polyline points="509.0,295.5,500.5,296.0,492.5,296.5" stroke="black" stroke-width="2" fill="none" />
<polyline points="485.5,306.5,493.5,306.0,501.0,305.0,508.5,304.0" stroke="black" stroke-width="2" fill="none" />
<polyline points="516.0,318.5,508.5,319.0,501.0,319.5,493.0,320.0,484.5,320.0" stroke="black" stroke-width="2" fill="none" />
<polyline points="474.0,304.0,466.5,304.5,459.0,305.0,451.5,306.0" stroke="black" stroke-width="2" fill="none" />
<polyline points="435.5,314.5,443.0,314.0,451.0,314.0,459.0,313.5,467.5,313.0,475.0,313.0,483.0,312.0,491.0,311.5,498.5,311.0,506.0,310.5,514.0,310.0" stroke="black" stroke-width="2" fill="none" />
<polyline points="468.5,273.0,461.0,273.0" stroke="black" stroke-width="2" fill="none" />
<polyline points="450.5,227.5,442.5,235.0,434.5,243.0,426.5,251.0,418.5,259.0,410.5,266.5,402.0,274.5,394.0,283.0,386.0,290.0,378.5,297.0,370.5,304.5,362.5,312.5,354.5,319.5,346.0,326.5,338.0,333.5" stroke="black" stroke-width="2" fill="none" />
<polyline points="349.5,332.0,357.0,324.5,364.5,317.0,372.5,309.5,380.5,302.0,388.5,294.0,396.0,287.0,403.5,279.5,411.0,272.0,418.5,265.0,426.5,257.5,434.0,250.0,441.5,242.5,449.5,235.5,457.5,228.0,465.5,220.5" stroke="black" stroke-width="2" fill="none" />
<polyline points="443.0,218.5,434.5,226.0,426.5,234.0,418.0,242.0,409.5,249.5,401.5,257.0,394.0,265.0,386.5,273.5,378.5,281.5,370.5,289.5,362.5,297.0,354.5,304.5,346.5,311.5,339.0,318.5,331.5,325.5,323.5,332.5" stroke="black" stroke-width="2" fill="none" />
<polyline points="330.0,334.0,338.5,327.0,347.0,320.0,355.0,312.5,363.5,305.0,371.0,296.5,379.0,288.0,387.0,280.5,394.5,272.5,402.5,264.5,410.0,257.0,418.0,250.0,425.5,242.5,433.5,235.0" stroke="black" stroke-width="2" fill="none" />
<polyline points="420.0,230.0,412.5,237.0,405.0,244.5,397.5,252.0,389.0,259.5,381.0,266.5,373.0,273.0,364.5,280.0" stroke="black" stroke-width="2" fill="none" />
<polyline points="363.5,287.5,371.5,279.5,379.5,272.0,387.5,265.0,395.0,258.0,403.5,250.5,411.5,242.5,420.0,235.0,428.0,227.0,436.5,219.5" stroke="black" stroke-width="2" fill="none" />
<polyline points="421.0,220.5,413.0,228.0,405.0,235.0,396.5,242.0,388.0,249.5,379.5,257.0,372.0,264.5,364.0,271.5" stroke="black" stroke-width="2" fill="none" />
<polyline points="364.0,265.0,372.0,257.0,380.5,248.5,389.0,240.5,397.0,232.5,405.0,224.5,413.0,217.0,421.0,209.5" stroke="black" stroke-width="2" fill="none" />
<polyline points="412.5,210.0,404.5,217.5,395.5,225.5,387.5,233.0,379.0,240.5,371.0,248.0" stroke="black" stroke-width="2" fill="none" />
<polyline points="370.5,249.5,379.0,249.5" stroke="black" stroke-width="2" fill="none" />
<polyline points="378.0,259.5,370.0,260.0" stroke="black" stroke-width="2" fill="none" />
<polyline points="372.0,266.5,380.0,265.5" stroke="black" stroke-width="2" fill="none" />
<polyline points="370.5,272.0,378.5,271.5,386.5,271.5,394.5,271.5" stroke="black" stroke-width="2" fill="none" />
<polyline points="396.0,289.0,388.0,289.5,380.0,290.0,371.5,290.5" stroke="black" stroke-width="2" fill="none" />
<polyline points="373.0,296.5,381.0,296.5,388.5,296.0" stroke="black" stroke-width="2" fill="none" />
<polyline points="387.0,304.0,379.0,304.5,371.5,305.0" stroke="black" stroke-width="2" fill="none" />
<polyline points="371.0,312.0,379.0,311.5,387.0,311.5,394.5,311.5,402.5,311.5,410.5,311.5,418.5,311.0,426.5,310.0" stroke="black" stroke-width="2" fill="none" />
<polyline points="473.5,314.5,466.0,314.5,458.0,314.5,450.0,314.5,442.0,315.5,434.5,316.5,426.5,317.5,418.0,318.0,410.0,319.0,402.0,319.5,394.5,319.5,386.0,320.0,377.5,320.0,369.5,321.0" stroke="black" stroke-width="2" fill="none" />
<polyline points="347.0,307.5,339.5,314.5,331.5,322.0,323.5,330.0,315.5,337.5" stroke="black" stroke-width="2" fill="none" />
<polyline points="308.0,337.5,316.5,330.5,324.5,323.0,332.5,315.0,340.0,307.5,348.0,300.0" stroke="black" stroke-width="2" fill="none" />
<polyline points="338.5,299.5,331.0,307.0,323.0,314.5,315.0,322.0,307.0,329.0,298.5,336.5" stroke="black" stroke-width="2" fill="none" />
<polyline points="291.0,336.5,299.0,329.5,306.5,322.0,314.5,314.0,322.5,306.5,330.5,299.0" stroke="black" stroke-width="2" fill="none" />
<polyline points="331.5,291.5,323.5,299.0,315.0,306.5,307.0,314.0,299.5,321.5,291.5,329.0,284.0,336.5" stroke="black" stroke-width="2" fill="none" />
<polyline points="260.0,336.5,267.5,329.0,275.0,321.5,282.5,314.0,291.0,306.5,298.5,298.5,306.5,290.5,314.5,283.5,322.5,275.5,330.0,267.5,338.0,259.5" stroke="black" stroke-width="2" fill="none" />
<polyline points="339.5,252.5,332.0,260.5,324.0,267.5,315.5,274.5,307.5,281.5,299.5,289.0,291.5,296.5,283.0,304.5,275.0,312.0,267.5,319.5,259.5,327.0,251.5,334.5" stroke="black" stroke-width="2" fill="none" />
<polyline points="236.5,332.0,245.0,323.5,253.5,315.5,261.0,308.0,269.5,300.0,277.5,293.0,285.5,285.5,293.5,278.0,301.0,271.5,308.5,264.5,316.5,257.5,324.5,250.5,332.5,244.0,340.5,237.0,348.5,230.0" stroke="black" stroke-width="2" fill="none" />
<polyline points="346.0,227.0,347.0,235.0,347.0,243.0" stroke="black" stroke-width="2" fill="none" />
<polyline points="339.0,242.5,331.0,250.5,323.0,258.5,315.0,266.0,306.5,274.0,298.5,281.5,290.0,288.5,282.0,296.0,274.0,303.0,266.0,310.0,258.5,317.0,250.5,324.5,243.0,332.0" stroke="black" stroke-width="2" fill="none" />
<polyline points="245.0,320.0,252.5,319.5,260.0,319.0,267.5,318.5,275.5,318.0,283.5,318.0,291.5,318.0" stroke="black" stroke-width="2" fill="none" />
<polyline points="277.0,336.5,285.0,329.5,293.0,322.5,301.0,315.0,309.0,308.0,316.5,300.5,325.0,293.5" stroke="black" stroke-width="2" fill="none" />
<polyline points="316.5,290.0,308.5,290.5" stroke="black" stroke-width="2" fill="none" />
<polyline points="307.0,282.0,315.5,281.5,323.5,281.0" stroke="black" stroke-width="2" fill="none" />
<polyline points="332.0,275.5,323.5,283.0,315.5,290.0,307.5,297.5,300.0,305.5,292.0,314.0,284.5,321.5,276.5,329.5,268.5,337.5" stroke="black" stroke-width="2" fill="none" />
<polyline points="283.5,311.5,276.0,312.0,268.0,312.5,260.5,313.0,252.5,313.0,244.0,313.5" stroke="black" stroke-width="2" fill="none" />
<polyline points="243.5,306.0,251.5,306.0,259.5,305.5,267.5,305.0" stroke="black" stroke-width="2" fill="none" />
<polyline points="275.0,283.0,267.0,291.0,259.0,299.0,251.0,306.5,243.0,314.0,235.0,321.5,227.0,329.0,219.0,337.0" stroke="black" stroke-width="2" fill="none" />
<polyline points="228.5,334.0,236.0,327.0,244.0,319.0,252.0,312.0,259.5,305.0,267.5,298.0,275.5,291.0,284.0,283.5" stroke="black" stroke-width="2" fill="none" />
<polyline points="276.0,276.5,268.0,284.0,259.0,291.5,251.0,299.0,243.0,307.0,234.5,314.5,226.5,322.0,219.0,330.0,211.5,337.5" stroke="black" stroke-width="2" fill="none" />
<polyline points="203.5,334.5,211.5,327.5,219.5,320.5,227.5,313.5,235.0,306.5,243.5,299.0,252.0,292.0,260.0,284.5,268.0,276.5,276.0,268.5" stroke="black" stroke-width="2" fill="none" />
<polyline points="268.0,268.0,260.0,275.5,252.0,283.5,244.0,291.0" stroke="black" stroke-width="2" fill="none" />
<polyline points="241.0,289.0,249.0,288.5,257.0,288.0" stroke="black" stroke-width="2" fill="none" />
<polyline points="267.5,296.0,259.0,296.5,250.5,297.0,242.0,297.5" stroke="black" stroke-width="2" fill="none" />
<polyline points="236.0,290.0,244.5,282.5,253.5,275.0,262.0,267.0,269.5,259.5" stroke="black" stroke-width="2" fill="none" />
<polyline points="268.5,252.5,260.0,260.0,252.5,267.5,244.5,275.0,236.5,282.0" stroke="black" stroke-width="2" fill="none" />
<polyline points="235.0,278.0,243.5,277.5,251.5,277.0,259.5,277.0,267.0,276.5,275.0,275.5,283.5,275.0,292.0,274.0,300.5,273.5,308.5,273.0,316.5,272.5,324.5,272.0,332.5,271.0,340.0,270.5,347.0,270.0,354.5,270.0,362.5,269.0,370.0,268.0,378.0,267.5,386.0,266.5,394.0,266.0,402.0,265.0,410.5,264.5,419.0,264.5,428.0,263.5,436.0,263.0,444.5,262.5,452.5,262.5,460.5,262.5,468.5,262.0,476.5,262.0,484.5,261.5,493.0,261.0,501.0,261.0,508.0,261.0,516.0,261.0" stroke="black" stroke-width="2" fill="none" />
<polyline points="412.5,205.5,404.5,206.0" stroke="black" stroke-width="2" fill="none" />
<polyline points="402.5,209.5,394.5,217.5,387.0,225.0,380.0,233.0,372.5,241.0" stroke="black" stroke-width="2" fill="none" />
<polyline points="372.0,241.5,380.0,241.5" stroke="black" stroke-width="2" fill="none" />
<polyline points="381.0,232.5,372.5,232.5" stroke="black" stroke-width="2" fill="none" />
<polyline points="371.5,232.5,380.0,224.5,388.0,216.5,396.5,208.5" stroke="black" stroke-width="2" fill="none" />
<polyline points="388.0,211.0,379.5,218.5,371.5,226.0" stroke="black" stroke-width="2" fill="none" />
<polyline points="373.0,224.5,381.0,224.0" stroke="black" stroke-width="2" fill="none" />
<polyline points="379.0,209.5,371.0,217.0,363.5,225.5" stroke="black" stroke-width="2" fill="none" />
<polyline points="362.0,228.0,370.0,227.0,378.5,226.5,387.0,226.5,396.0,225.5,404.0,225.0,412.5,224.5,420.5,224.5,428.5,224.5,436.5,224.0,444.5,224.0,452.5,223.5,461.0,223.0,469.0,223.0,476.0,223.0,484.0,223.0,491.5,222.0,499.5,221.5,507.5,221.0,515.0,220.0" stroke="black" stroke-width="2" fill="none" />
<polyline points="404.0,190.5,395.5,191.0,387.5,191.5" stroke="black" stroke-width="2" fill="none" />
<polyline points="379.0,198.5,387.0,198.0,395.5,197.5,403.0,196.5,410.5,196.0,418.5,195.0" stroke="black" stroke-width="2" fill="none" />
<polyline points="379.5,203.5,372.0,211.5,363.5,219.0" stroke="black" stroke-width="2" fill="none" />
<polyline points="363.5,217.5,371.5,217.5,380.0,216.5" stroke="black" stroke-width="2" fill="none" />
<polyline points="364.0,212.5,372.5,212.0,380.5,211.5,389.0,211.0,397.5,211.0,405.5,210.5,413.5,210.0,421.5,209.5,430.0,209.5" stroke="black" stroke-width="2" fill="none" />
<polyline points="369.5,203.0,361.5,210.5" stroke="black" stroke-width="2" fill="none" />
<polyline points="357.5,210.5,365.5,203.0" stroke="black" stroke-width="2" fill="none" />
<polyline points="356.5,203.0,349.0,210.5" stroke="black" stroke-width="2" fill="none" />
<polyline points="347.5,202.0,339.5,210.0" stroke="black" stroke-width="2" fill="none" />
<polyline points="338.0,204.0,330.0,211.5,322.5,219.0,314.5,227.0,306.5,234.5,299.0,241.5,290.0,249.5" stroke="black" stroke-width="2" fill="none" />
<polyline points="293.0,257.0,300.5,249.0,308.5,241.0,316.5,233.5,325.0,226.5,333.5,219.0" stroke="black" stroke-width="2" fill="none" />
<polyline points="337.5,220.0,329.5,227.5,322.0,234.5,314.0,242.0,306.5,249.0,299.0,256.0,290.5,264.0" stroke="black" stroke-width="2" fill="none" />
<polyline points="291.5,271.5,300.0,264.0,308.0,256.5,315.5,249.5,323.5,242.0,331.5,235.0,339.0,228.0,347.5,221.0" stroke="black" stroke-width="2" fill="none" />
<polyline points="338.5,230.0,330.5,231.0,322.5,231.5,314.0,232.0,306.5,232.5,298.5,233.0,290.5,233.5" stroke="black" stroke-width="2" fill="none" />
<polyline points="283.0,239.5,290.5,233.0,298.0,225.5,306.5,218.0,315.0,210.5,323.0,202.5,331.0,194.5,339.0,187.0" stroke="black" stroke-width="2" fill="none" />
<polyline points="332.0,187.0,324.0,195.0,315.5,203.0,307.5,210.5,299.5,218.0,292.0,225.0,283.5,232.0" stroke="black" stroke-width="2" fill="none" />
<polyline points="293.0,241.0,301.0,233.0,309.0,225.5,317.0,218.5,326.0,211.0,333.5,204.0" stroke="black" stroke-width="2" fill="none" />
<polyline points="330.5,210.5,338.5,210.0,346.0,209.5,354.0,209.0,363.0,208.0,371.5,207.5,380.0,207.0" stroke="black" stroke-width="2" fill="none" />
<polyline points="371.5,170.0,379.5,162.5" stroke="black" stroke-width="2" fill="none" />
<polyline points="371.5,161.0,363.0,169.0" stroke="black" stroke-width="2" fill="none" />
<polyline points="363.5,166.5,371.5,166.0,380.0,165.5" stroke="black" stroke-width="2" fill="none" />
<polyline points="379.0,167.0,371.0,167.5" stroke="black" stroke-width="2" fill="none" />
<polyline points="370.5,166.0,362.5,163.0" stroke="black" stroke-width="2" fill="none" />
<polyline points="359.0,158.5,367.5,157.0" stroke="black" stroke-width="2" fill="none" />
<polyline points="364.0,154.0,372.5,146.5" stroke="black" stroke-width="2" fill="none" />
<polyline points="370.0,141.0,378.5,140.0" stroke="black" stroke-width="2" fill="none" />
<polyline points="377.5,131.5,369.5,131.5" stroke="black" stroke-width="2" fill="none" />
<polyline points="371.5,131.5,363.5,132.5" stroke="black" stroke-width="2" fill="none" />
<polyline points="364.5,130.5,372.5,123.5" stroke="black" stroke-width="2" fill="none" />
<polyline points="371.0,124.5,363.5,125.0" stroke="black" stroke-width="2" fill="none" />
<polyline points="363.5,117.0,371.0,116.5" stroke="black" stroke-width="2" fill="none" />
<polyline points="374.0,131.5,375.0,139.5,367.0,150.5,363.0,155.5,361.5,163.5,362.0,168.0,370.5,172.0" stroke="black" stroke-width="2" fill="none" />
<polyline points="372.0,150.5,364.0,151.0" stroke="black" stroke-width="2" fill="none" />
<polyline points="348.5,130.0,340.5,130.5" stroke="black" stroke-width="2" fill="none" />
<polyline points="340.5,129.0,348.5,121.5" stroke="black" stroke-width="2" fill="none" />
<polyline points="347.0,118.5,339.0,119.0" stroke="black" stroke-width="2" fill="none" />
<polyline points="343.0,120.5,339.0,122.0,340.0,119.0,348.5,120.0,356.5,119.0,364.5,119.0,367.5,124.5,367.5,129.5,366.0,137.5,365.5,147.5,361.5,153.5,360.0,161.5,363.0,169.0,372.0,177.5,371.0,184.5,371.0,184.5" stroke="black" stroke-width="2" fill="none" />
<polyline points="339.0,193.5,331.5,194.0" stroke="black" stroke-width="2" fill="none" />
<polyline points="331.5,193.0,340.0,191.0" stroke="black" stroke-width="2" fill="none" />
<polyline points="333.5,194.0,325.5,195.0,317.5,195.5,309.5,195.0,301.5,195.5,294.0,196.0,286.0,196.5,278.0,196.5,269.5,196.0,261.5,195.5,253.0,196.0,245.0,196.0" stroke="black" stroke-width="2" fill="none" />
<polyline points="252.5,199.0,260.0,191.5,267.5,184.0,275.0,177.0,282.5,170.0,289.5,163.0,297.0,156.0,305.0,148.0" stroke="black" stroke-width="2" fill="none" />
<polyline points="304.5,143.0,296.5,140.0" stroke="black" stroke-width="2" fill="none" />
<polyline points="297.0,141.0,289.0,148.5,281.0,155.5" stroke="black" stroke-width="2" fill="none" />
<polyline points="284.0,158.5,292.0,158.0,299.5,157.0,307.0,157.0,315.0,156.5,323.0,156.5,331.5,156.0,339.5,155.5" stroke="black" stroke-width="2" fill="none" />
<polyline points="332.5,155.0,324.5,162.5,316.5,169.5,308.5,177.0,300.5,184.0,292.5,191.5,284.5,198.5,275.5,206.0,267.5,213.0,260.0,220.5,252.5,227.5,244.0,235.5,236.0,243.5" stroke="black" stroke-width="2" fill="none" />
<polyline points="237.0,243.5,245.0,236.5,253.0,229.0,261.0,221.5" stroke="black" stroke-width="2" fill="none" />
<polyline points="266.0,213.5,274.0,213.0,283.0,212.0,291.5,211.0,300.0,210.5,308.0,210.0,315.5,209.5,323.0,209.5,331.0,209.0,339.0,208.5" stroke="black" stroke-width="2" fill="none" />
<polyline points="331.5,214.0,324.0,215.0,316.0,215.0,308.0,216.0,300.0,216.5,292.0,217.5,284.0,217.5,276.0,218.0" stroke="black" stroke-width="2" fill="none" />
<polyline points="267.0,210.5,275.5,203.0,283.5,195.5" stroke="black" stroke-width="2" fill="none" />
<polyline points="280.0,191.5,288.0,191.5" stroke="black" stroke-width="2" fill="none" />
<polyline points="290.5,193.5,298.5,193.0,307.0,192.5,315.0,192.0,323.0,191.5" stroke="black" stroke-width="2" fill="none" />
<polyline points="327.5,187.0,324.5,195.0,317.5,206.0,314.5,210.0,328.5,204.0,336.5,204.0,345.0,203.5,353.5,203.0,361.5,203.5,369.0,203.5" stroke="black" stroke-width="2" fill="none" />
<polyline points="347.5,185.5,340.0,186.0,332.0,186.5,324.5,187.0,316.5,187.5,308.5,188.5,300.5,189.0,292.0,189.0,284.0,189.0" stroke="black" stroke-width="2" fill="none" />
<polyline points="275.0,196.5,267.0,203.5,259.0,210.5" stroke="black" stroke-width="2" fill="none" />
<polyline points="258.5,208.5,266.5,208.0,274.5,207.5,282.5,207.5,290.5,208.0,298.5,208.0,306.5,208.0,315.0,207.5,324.0,206.5" stroke="black" stroke-width="2" fill="none" />
<polyline points="324.0,210.0,332.0,213.0,339.5,213.5,347.0,214.0,354.5,214.0,362.5,214.5" stroke="black" stroke-width="2" fill="none" />
<polyline points="339.5,220.0,331.5,221.0,323.5,222.0,316.0,222.5,308.0,222.0,300.5,222.0,293.5,222.5,285.5,222.5,277.5,222.5,268.5,223.0,260.0,223.5,252.0,224.0,244.0,224.5" stroke="black" stroke-width="2" fill="none" />
<polyline points="245.5,220.0,253.0,223.0,261.0,221.0" stroke="black" stroke-width="2" fill="none" />
<polyline points="251.5,219.0,243.5,226.5,235.5,234.0" stroke="black" stroke-width="2" fill="none" />
<polyline points="236.5,238.0,244.5,238.0,253.0,238.0,261.0,237.5,268.5,236.5,276.0,236.0,283.5,235.0,291.0,234.5,298.5,234.0,306.0,233.5,314.0,232.5,322.0,232.0,331.0,231.0,339.5,230.0,348.0,229.5,356.0,229.0,363.5,228.5,371.0,228.5,379.0,228.0,387.0,227.5,395.5,227.0,403.0,226.5,411.5,226.5,419.5,226.5,427.0,226.5,435.0,226.5,443.5,226.0,452.0,225.5,460.5,224.5,469.5,224.0,478.0,223.0,485.5,223.0,493.0,223.0,501.0,223.0,509.5,222.5,517.5,222.5" stroke="black" stroke-width="2" fill="none" />
<polyline points="380.0,281.0,372.0,281.5" stroke="black" stroke-width="2" fill="none" />
<polyline points="354.5,263.0,362.5,262.5,371.0,261.5,379.0,260.5,387.0,259.5,395.0,259.0,404.0,258.5,412.5,258.0,421.0,257.5,429.5,257.0,438.0,257.0,445.5,256.0,453.5,255.5,461.0,255.0,468.5,254.5,476.5,253.5,484.0,253.5,491.5,254.0,499.5,253.5,507.5,253.0,516.0,252.5" stroke="black" stroke-width="2" fill="none" />
<polyline points="341.5,327.0,333.5,327.0,325.0,327.0,317.0,327.5" stroke="black" stroke-width="2" fill="none" />
<polyline points="316.0,321.0,324.0,320.5" stroke="black" stroke-width="2" fill="none" />
<polyline points="322.5,271.0,314.5,271.5,306.5,272.0" stroke="black" stroke-width="2" fill="none" />
<polyline points="306.5,265.0,314.5,264.5,323.0,264.0" stroke="black" stroke-width="2" fill="none" />
<polyline points="331.0,257.0,323.5,257.5,316.0,258.0,308.0,257.5,300.5,257.5" stroke="black" stroke-width="2" fill="none" />
<polyline points="299.5,251.0,307.5,250.5,315.5,249.0,324.0,248.0,332.5,247.0" stroke="black" stroke-width="2" fill="none" />
<polyline points="332.5,239.5,323.5,240.0,315.5,241.0,307.5,242.0,299.5,243.0" stroke="black" stroke-width="2" fill="none" />
<polyline points="327.5,219.0,335.5,220.0,344.0,221.0,352.5,221.0,360.5,221.0,362.5,223.5" stroke="black" stroke-width="2" fill="none" />
<polyline points="355.5,221.5,347.5,221.5,339.0,221.5,331.0,222.0,323.5,222.0,315.5,222.0,307.5,223.0,299.0,224.5,291.0,226.0,283.0,227.0,275.5,228.0,267.5,228.0,259.0,228.5,251.5,229.0,244.5,228.5,237.0,228.5" stroke="black" stroke-width="2" fill="none" />
<polyline points="238.0,225.0,246.0,218.0" stroke="black" stroke-width="2" fill="none" />
<polyline points="253.0,211.5,261.0,204.0,269.0,196.5" stroke="black" stroke-width="2" fill="none" />
<polyline points="260.0,200.0,268.0,199.5,275.5,199.5,283.0,199.5,291.0,200.0" stroke="black" stroke-width="2" fill="none" />
<polyline points="292.0,199.5,286.5,201.5" stroke="black" stroke-width="2" fill="none" />
<polyline points="293.0,203.5,284.5,211.5,276.5,219.0,269.0,227.0,261.5,235.0,253.5,243.0,245.5,250.0,237.0,257.5" stroke="black" stroke-width="2" fill="none" />
<polyline points="235.0,260.0,242.5,252.5,250.5,244.5,258.5,237.0,267.5,229.0,275.5,222.0,284.0,215.0,292.0,207.5,299.5,200.0,306.5,192.5,314.0,185.0,322.0,177.5,330.0,170.0" stroke="black" stroke-width="2" fill="none" />
<polyline points="325.0,171.0,317.0,178.5,309.0,186.5,300.5,194.0" stroke="black" stroke-width="2" fill="none" />
<polyline points="301.5,204.0,309.5,203.0,317.5,202.5" stroke="black" stroke-width="2" fill="none" />
<polyline points="328.0,217.0,336.0,217.0,344.0,217.0,352.5,218.0,360.5,217.5" stroke="black" stroke-width="2" fill="none" />
<polyline points="347.0,255.0,338.5,256.0,330.0,257.0,322.0,257.5,313.5,257.5,306.0,258.0,298.0,258.5,290.5,259.0,282.5,258.5,274.5,258.5,266.5,259.0,258.5,259.5,250.5,260.0,242.0,260.5,234.0,261.0" stroke="black" stroke-width="2" fill="none" />
<polyline points="233.5,257.0,241.5,256.5,250.0,256.0" stroke="black" stroke-width="2" fill="none" />
<polyline points="251.5,250.0,244.0,250.5" stroke="black" stroke-width="2" fill="none" />
<polyline points="234.0,251.5,242.0,251.5,249.5,251.5,257.5,251.0,266.0,251.0,274.5,251.0,282.5,251.0,290.5,250.5,299.0,250.0,307.5,249.5,316.0,248.5,324.0,248.5,332.0,248.5,340.0,248.5,348.0,248.5,356.0,248.0,364.0,247.5,372.0,247.5,379.5,247.0,387.5,246.5,395.5,246.5,403.5,245.5,411.5,244.5,419.0,243.0,427.0,241.5,434.5,240.0,442.5,240.0,450.0,239.5,458.5,239.5,467.0,239.5,475.5,239.0,483.0,238.0,490.5,237.5,498.0,237.0,506.0,237.0,514.0,236.5" stroke="black" stroke-width="2" fill="none" />
<polyline points="395.5,197.0,387.5,197.0,379.0,197.0,371.5,197.0,363.5,197.5,356.0,197.5,348.0,198.0,340.5,199.0,332.5,199.5,324.5,200.5,316.5,201.0,308.0,201.5,300.0,202.5,291.5,203.5,283.5,204.0,275.0,204.5,267.0,205.5,259.0,206.5,251.0,207.0" stroke="black" stroke-width="2" fill="none" />
<polyline points="240.5,201.5,248.5,194.0,256.5,186.5,264.5,178.5,272.5,171.0" stroke="black" stroke-width="2" fill="none" />
<polyline points="269.0,172.5,261.0,179.5,253.0,186.5,245.0,193.5" stroke="black" stroke-width="2" fill="none" />
<polyline points="236.5,195.0,244.5,194.0,252.5,193.0,260.5,192.5,268.5,192.0" stroke="black" stroke-width="2" fill="none" />
<polyline points="268.5,188.5,260.5,189.0,252.0,189.5,243.5,189.5,235.5,190.5" stroke="black" stroke-width="2" fill="none" />
<polyline points="236.0,191.5,244.0,184.0,252.5,177.0,260.5,170.0,268.0,162.0,275.5,154.0,283.0,146.5,291.0,138.5,298.5,131.0" stroke="black" stroke-width="2" fill="none" />
<polyline points="292.5,131.5,284.5,138.5,277.0,146.0,268.5,154.0,260.5,161.5,252.0,169.0,244.0,177.5,235.5,185.5" stroke="black" stroke-width="2" fill="none" />
<polyline points="233.5,187.5,242.0,187.0,250.5,186.5,259.0,186.0,267.5,185.5" stroke="black" stroke-width="2" fill="none" />
<polyline points="265.5,186.0,274.0,187.0,283.0,180.5" stroke="black" stroke-width="2" fill="none" />
<polyline points="283.5,170.5,292.0,170.5,300.0,170.0,308.0,169.5,315.5,168.5,323.5,168.0" stroke="black" stroke-width="2" fill="none" />
<polyline points="331.5,176.5,324.0,177.0,316.0,177.0,308.0,177.5" stroke="black" stroke-width="2" fill="none" />
<polyline points="298.5,175.5,290.5,176.0,283.0,176.5,275.5,177.0,267.5,177.0,259.5,177.0,251.5,177.0,243.0,177.5,235.0,177.5" stroke="black" stroke-width="2" fill="none" />
<polyline points="234.0,174.5,242.0,167.0,250.5,159.0,258.5,151.5,267.0,144.0,275.5,137.0,284.0,129.5,292.0,122.0" stroke="black" stroke-width="2" fill="none" />
<polyline points="292.0,129.5,284.0,129.5" stroke="black" stroke-width="2" fill="none" />
<polyline points="291.0,122.5,283.0,123.0,275.5,123.0,267.5,123.0" stroke="black" stroke-width="2" fill="none" />
<polyline points="267.5,124.0,275.5,124.5,276.5,126.5,285.0,124.5,293.5,124.0,296.5,127.0,304.5,122.0" stroke="black" stroke-width="2" fill="none" />
<polyline points="305.5,124.0,313.0,117.0" stroke="black" stroke-width="2" fill="none" />
<polyline points="316.5,117.0,308.5,117.0" stroke="black" stroke-width="2" fill="none" />
<polyline points="306.0,116.5,314.0,109.0" stroke="black" stroke-width="2" fill="none" />
<polyline points="316.5,113.0,309.0,113.5" stroke="black" stroke-width="2" fill="none" />
<polyline points="309.0,108.5,311.0,104.5,308.0,106.0,307.0,114.0,313.5,116.0,316.5,126.0,317.0,134.5,320.0,143.0,322.0,151.5,323.5,159.5,326.5,167.5,325.5,176.0,325.0,183.5,322.0,191.5,317.0,199.5,312.0,207.5,316.0,201.5,321.0,196.0,325.5,182.0,332.5,171.0,335.5,180.0,330.5,185.0,328.0,193.0,325.0,201.0,326.0,209.0,334.0,209.0,341.5,208.5,349.5,208.0,357.0,209.0,365.0,209.0,376.0,204.0,383.0,210.0,391.0,211.5,399.0,212.5,407.5,213.5,415.5,216.0,423.5,217.0,431.5,218.0,439.5,220.0,447.5,221.5,455.5,222.5,463.5,223.5,472.0,224.5,480.0,225.5,488.5,227.0,496.5,228.5,504.5,230.5,512.0,232.0" stroke="black" stroke-width="2" fill="none" />
<polyline points="515.0,230.0,507.5,230.0,499.0,230.5,491.0,231.0,483.0,231.0,475.5,231.5,467.5,231.5,460.0,232.0,452.5,232.5,444.5,233.0,436.5,233.5,428.5,234.0,420.0,234.0,411.5,234.5,403.0,234.5,395.5,235.0,387.0,235.5,379.5,236.5,371.5,237.0,364.0,238.0,356.0,238.0,348.0,239.0,340.0,239.5,332.0,240.5,324.0,240.5,316.0,241.0,308.0,241.5,299.5,242.0,291.0,242.5,282.5,242.5,274.5,243.0,267.0,243.5,258.5,243.5,251.0,243.5,243.0,244.0,235.0,245.0" stroke="black" stroke-width="2" fill="none" />
<polyline points="244.5,233.5,253.0,233.0" stroke="black" stroke-width="2" fill="none" />
<polyline points="234.5,223.0,234.5,225.0,234.0,233.0,235.0,240.5,235.0,248.5,235.5,256.0,234.5,264.5,235.0,273.0,235.5,281.0,236.0,289.5" stroke="black" stroke-width="2" fill="none" />
<polyline points="242.0,281.0,250.0,280.0,258.5,280.0" stroke="black" stroke-width="2" fill="none" />
<polyline points="228.0,308.5,220.5,316.0,212.5,323.5,204.5,331.0,196.5,338.5" stroke="black" stroke-width="2" fill="none" />
<polyline points="185.5,338.0,194.5,331.0,203.0,323.5,211.0,316.5,219.0,309.0" stroke="black" stroke-width="2" fill="none" />
<polyline points="219.0,301.5,211.0,309.0,203.0,316.0,195.0,323.5,187.0,331.0,178.5,338.0" stroke="black" stroke-width="2" fill="none" />
<polyline points="170.5,337.5,179.0,330.5,187.0,323.0,195.0,316.0,203.0,308.5,211.0,301.0" stroke="black" stroke-width="2" fill="none" />
<polyline points="210.5,292.5,202.5,300.0,194.5,307.0,186.0,314.0,177.5,322.0,169.5,330.0,161.0,337.5" stroke="black" stroke-width="2" fill="none" />
<polyline points="154.0,337.0,162.0,329.5,170.0,322.0,178.5,314.0,186.5,306.0,194.5,298.0,202.5,290.5,211.0,283.0" stroke="black" stroke-width="2" fill="none" />
<polyline points="211.0,276.0,203.5,283.0,196.0,290.5,188.0,298.0,180.0,305.5,172.0,313.0,164.0,320.5,156.0,328.0,148.0,335.5" stroke="black" stroke-width="2" fill="none" />
<polyline points="141.0,335.0,149.0,327.5,157.0,320.0,165.0,313.0,173.0,305.5,181.0,297.5,188.5,290.5,196.0,283.0,204.0,275.0,212.0,267.5" stroke="black" stroke-width="2" fill="none" />
<polyline points="213.0,259.5,205.0,267.0,197.0,274.5,189.0,282.0,181.0,290.0,173.0,298.0,165.0,305.5,157.0,313.0,149.0,320.0,141.0,327.0,132.5,334.5" stroke="black" stroke-width="2" fill="none" />
<polyline points="124.0,332.5,132.0,325.0,140.0,317.5,148.0,310.0,156.0,303.0,164.5,296.0,172.5,289.0,180.5,282.0,188.5,275.0,196.5,267.5,204.5,260.0,212.0,252.5" stroke="black" stroke-width="2" fill="none" />
<polyline points="211.5,243.5,203.5,251.0,195.0,258.5,187.0,265.5,179.0,272.5,171.0,280.0,163.0,287.5,155.0,295.0,147.0,303.0,140.0,311.0,132.0,318.5,123.5,326.0,115.5,333.0" stroke="black" stroke-width="2" fill="none" />
<polyline points="107.0,333.0,115.0,325.5,123.5,318.0,131.5,310.5,139.5,303.0,146.5,295.5,154.5,288.0,162.0,280.5,169.5,272.5,177.5,265.0,185.5,257.0,194.0,249.0,202.5,241.5,210.5,234.0" stroke="black" stroke-width="2" fill="none" />
<polyline points="211.0,227.5,203.0,234.5,195.0,242.0,187.5,249.0,179.0,256.0,171.0,263.5,163.0,271.5,154.5,279.5,146.0,288.0,137.5,295.5,130.0,303.0,122.0,310.5,114.0,317.5,106.0,324.5,98.0,332.0" stroke="black" stroke-width="2" fill="none" />
<polyline points="91.0,332.5,99.0,325.0,107.0,317.5,115.0,310.0,123.0,302.0,131.0,294.0,139.0,287.0,147.0,279.5,156.0,272.5,164.5,265.0,172.5,258.0,181.0,250.5,189.0,243.0,197.0,235.5,205.0,228.0,213.0,220.0" stroke="black" stroke-width="2" fill="none" />
<polyline points="211.0,217.0,203.5,218.0,195.5,218.0,187.0,218.5,179.5,219.0,172.5,218.5,165.0,218.5,157.0,219.5,149.0,220.5,140.5,221.0,132.0,221.5,123.5,222.0,116.0,222.5,107.5,223.5,99.5,224.0,91.0,224.0,83.0,224.5,74.5,225.0,67.0,226.0,59.0,227.0,51.5,227.0,44.0,228.0,35.5,228.5,27.5,228.5,20.0,228.5,12.0,228.0,3.5,228.0" stroke="black" stroke-width="2" fill="none" />
<polyline points="3.0,227.0,11.0,219.0,18.5,211.5" stroke="black" stroke-width="2" fill="none" />
<polyline points="9.5,211.0,1.5,218.5" stroke="black" stroke-width="2" fill="none" />
<polyline points="2.0,222.0,9.5,221.5,17.5,221.0,26.0,220.5,34.5,220.5,43.5,220.0,52.0,219.5,60.0,219.5,68.0,219.0,76.5,218.5,84.5,218.0,93.0,217.5,101.0,216.5,108.5,215.5,116.0,214.5,124.0,214.0,131.5,212.5,139.0,211.5,147.0,210.5,155.0,210.0,163.0,209.5,171.0,209.0,179.5,209.0,187.5,208.5,195.5,208.5,203.0,208.0,211.0,207.0" stroke="black" stroke-width="2" fill="none" />
<polyline points="212.0,205.0,219.5,205.0,228.0,205.0,236.0,205.0,244.5,206.5,252.5,210.5,260.0,214.0,268.0,216.5" stroke="black" stroke-width="2" fill="none" />
<polyline points="244.5,213.5,236.0,214.0" stroke="black" stroke-width="2" fill="none" />
<polyline points="235.0,219.5,243.0,219.0,251.5,219.0,259.5,218.5,267.5,218.5,275.0,218.0,283.0,217.0,291.5,217.0,299.0,216.5,306.5,216.0,314.5,215.5,322.5,215.0,330.5,214.5,338.5,214.5,346.5,215.0,354.5,215.0,362.5,215.0,371.0,214.5,380.0,213.5,388.0,213.0,396.5,212.5,404.5,212.0,412.0,212.0,420.0,211.5,427.5,211.0,436.0,210.0,444.5,209.0,453.0,208.0,461.5,207.0,470.0,206.0,478.0,205.0" stroke="black" stroke-width="2" fill="none" />
<polyline points="514.5,306.0,506.5,306.0,498.5,306.0,490.5,306.5,483.0,307.0,475.0,307.5,466.5,307.5,458.5,308.0,450.0,308.5,442.5,309.0,434.5,309.5,426.5,310.0,418.5,310.5,410.0,311.0,402.0,311.5,394.5,312.0,387.0,312.5,379.0,313.0,371.0,314.0,362.5,314.0,354.5,315.0,347.0,315.5,339.0,316.0,331.0,316.5,323.5,317.0,315.5,318.0,307.5,318.5,299.5,319.5,291.0,320.5,283.5,321.0,275.5,322.0,268.0,322.0,260.5,322.5,252.5,323.0,244.5,323.5,236.5,324.0,228.5,324.5,220.0,324.5,211.5,324.0,203.5,324.0,195.5,324.0,187.5,324.5,180.0,325.0,172.5,325.5,165.0,326.0,157.0,326.5,148.5,327.5,140.5,328.5,133.0,329.5,126.0,330.5,117.5,330.5,109.5,330.5,101.5,330.5,93.0,330.5,85.0,331.0,77.0,331.5,69.0,333.0,60.5,334.0,52.0,335.0,44.0,336.0,35.5,337.0,27.0,337.0,19.5,337.5,11.5,338.0,3.5,338.5" stroke="black" stroke-width="2" fill="none" />
<polyline points="3.0,335.5,11.0,335.0,18.5,334.0,26.5,333.0,35.0,331.5,43.5,330.5,52.0,329.5,60.5,329.5,68.5,329.0,77.0,328.5,85.0,327.5,92.5,327.5,100.0,327.5,108.0,327.5,116.0,327.5,124.0,327.0,132.0,326.0,140.0,326.0,148.0,325.0,156.0,324.5,164.0,323.5,172.5,323.0,180.5,323.0,188.0,322.5,196.0,322.0,203.5,321.5,212.0,321.0,220.0,321.0,227.5,320.5,235.5,319.5,243.0,319.0,251.5,318.5,259.5,318.0,267.5,317.0,275.5,316.0,283.5,315.0,292.0,314.5,300.5,314.0,308.5,313.5,317.0,313.0,325.0,312.5,333.0,312.5,340.5,312.0,348.5,311.5,357.0,311.5,364.5,312.0,372.5,311.5,380.0,310.5,388.0,310.0,396.0,309.0,404.0,308.5,412.0,308.0,419.0,307.5,427.0,307.0,435.5,306.5,444.0,305.5,451.5,305.0,459.5,304.5,467.5,304.5,475.5,304.5,483.0,304.0,491.5,303.0,500.0,302.5,508.0,302.0,516.0,301.5" stroke="black" stroke-width="2" fill="none" />
<polyline points="517.0,294.0,509.0,294.0,501.0,294.5,493.0,295.0,485.0,295.5,477.0,296.5,469.0,297.0,460.5,297.5,452.0,298.0,443.5,298.5,435.5,298.5,427.5,298.5,419.5,298.5,411.5,299.0,403.0,299.5,395.5,300.0,387.5,300.5,380.0,301.5,372.5,302.0,364.5,302.0,357.0,303.0,348.5,304.0,340.5,304.5,332.0,305.0,324.0,305.5,316.0,306.0,308.0,306.5,300.0,307.0,291.5,307.5,283.5,308.0,275.0,308.5,267.0,309.0,259.0,309.0,250.5,309.5,242.5,310.0,234.5,310.0,227.0,310.5,219.0,311.0,211.5,312.0,203.5,312.5,195.5,313.0,187.5,314.0,179.0,314.5,170.5,315.0,162.0,315.5,154.5,316.0,146.5,316.5,138.5,317.5,130.0,318.0,122.5,318.0,115.0,318.5,107.0,319.0,99.5,319.5,91.5,319.5,83.5,320.0,75.5,320.5,67.5,321.5,59.5,322.0,52.0,323.0,44.0,323.5,35.5,324.0,27.5,325.0,19.0,325.5,10.5,325.5,2.0,326.0" stroke="black" stroke-width="2" fill="none" />
<polyline points="3.0,326.0,11.0,318.5,19.0,311.0,27.0,304.0,35.0,296.5,43.0,289.0,51.5,281.5,59.5,273.5,67.5,266.0,75.0,258.5,83.5,250.5,91.5,242.5,99.5,234.0,108.0,225.5,116.0,218.0" stroke="black" stroke-width="2" fill="none" />
<polyline points="123.5,212.0,131.5,204.5" stroke="black" stroke-width="2" fill="none" />
<polyline points="138.0,205.0,130.5,213.0,123.5,220.0,116.0,227.5,108.0,234.5,100.5,241.5,93.0,249.0,85.0,256.5,77.5,264.0,69.5,271.0,62.0,278.5,53.5,286.0,45.5,294.0,37.0,301.5,29.0,308.5,21.5,316.0,13.0,323.5,4.5,331.0" stroke="black" stroke-width="2" fill="none" />
<polyline points="2.5,329.5,11.0,329.0,18.5,329.0,26.5,329.0,34.0,328.5,42.5,328.5,51.0,328.0,60.0,327.5,68.5,327.0,76.5,326.5,85.0,326.0,93.0,325.5,100.5,325.0,108.0,324.0,115.5,323.0,123.0,322.0,131.0,322.0,139.5,321.5,147.5,321.0,155.5,321.0,163.5,320.0,171.5,320.0,179.5,319.5,187.5,319.0,195.0,318.0,202.5,317.0,210.5,316.5" stroke="black" stroke-width="2" fill="none" />
<polyline points="211.0,314.5,203.0,314.5" stroke="black" stroke-width="2" fill="none" />
<polyline points="226.5,327.5,235.0,327.0,242.5,326.5,250.5,326.5,258.5,326.5,266.5,325.5,274.5,325.5,281.5,325.5,289.0,325.0,297.0,324.5" stroke="black" stroke-width="2" fill="none" />
<polyline points="203.0,282.5,195.0,283.0" stroke="black" stroke-width="2" fill="none" />
<polyline points="195.0,290.5,187.0,290.5" stroke="black" stroke-width="2" fill="none" />
<polyline points="179.0,298.5,187.0,298.0,195.0,297.0,203.0,296.0" stroke="black" stroke-width="2" fill="none" />
<polyline points="180.5,303.5,172.5,303.5" stroke="black" stroke-width="2" fill="none" />
<polyline points="171.5,294.5,163.0,294.5" stroke="black" stroke-width="2" fill="none" />
<polyline points="165.0,280.5,173.0,280.0" stroke="black" stroke-width="2" fill="none" />
<polyline points="156.5,288.5,148.5,289.5" stroke="black" stroke-width="2" fill="none" />
<polyline points="149.0,298.0,141.0,298.5" stroke="black" stroke-width="2" fill="none" />
<polyline points="140.5,280.0,132.5,280.5,124.0,281.0" stroke="black" stroke-width="2" fill="none" />
<polyline points="115.0,291.0,107.0,291.5" stroke="black" stroke-width="2" fill="none" />
<polyline points="100.5,289.5,93.0,290.0" stroke="black" stroke-width="2" fill="none" />
<polyline points="85.0,282.0,93.0,281.0,100.5,280.0" stroke="black" stroke-width="2" fill="none" />
<polyline points="84.5,288.0,77.0,288.5" stroke="black" stroke-width="2" fill="none" />
<polyline points="67.0,281.0,59.0,281.5" stroke="black" stroke-width="2" fill="none" />
<polyline points="67.5,289.0,59.5,289.5,51.5,290.5,44.0,291.0" stroke="black" stroke-width="2" fill="none" />
<polyline points="45.0,282.0,53.0,281.5" stroke="black" stroke-width="2" fill="none" />
<polyline points="43.0,306.0,51.0,305.5,59.0,304.5,67.0,304.5,75.0,304.0,83.0,303.5,91.0,303.0,100.0,302.5,108.5,302.0,116.0,301.5,124.0,301.0,132.5,300.5,140.5,299.5,148.0,298.5,155.0,297.5,162.5,297.5" stroke="black" stroke-width="2" fill="none" />
<polyline points="155.0,253.0,147.0,261.0,139.0,268.5,131.5,275.5,123.5,282.5,115.5,290.5,108.5,297.5,101.0,305.0,93.0,312.5,85.5,320.0,77.5,327.5,69.5,335.0" stroke="black" stroke-width="2" fill="none" />
<polyline points="84.5,333.5,93.5,326.0,102.0,318.0,109.5,310.5,117.5,303.5,125.0,296.0,132.5,288.5,140.0,281.0,148.0,273.0,156.0,265.5,163.5,257.5,171.0,250.0,178.5,243.0,187.0,235.0" stroke="black" stroke-width="2" fill="none" />
<polyline points="187.0,227.5,179.0,235.0,171.5,243.0,163.5,251.0,155.5,258.5,148.0,266.5,140.0,273.5,132.5,280.5,124.5,288.0,116.5,295.5,108.5,303.5,100.0,311.0,92.5,318.5,84.5,326.0,76.5,333.0" stroke="black" stroke-width="2" fill="none" />
<polyline points="52.5,332.5,60.0,325.0,68.0,318.0,75.5,311.5,83.5,304.0,91.5,296.5,99.0,289.0,106.5,281.5,114.0,273.5,122.5,266.0,130.5,257.5,138.5,249.5,147.0,241.0,156.0,233.0,164.0,225.5" stroke="black" stroke-width="2" fill="none" />
<polyline points="171.0,227.5,179.5,219.5" stroke="black" stroke-width="2" fill="none" />
<polyline points="187.0,220.5,195.0,213.0,203.0,205.5" stroke="black" stroke-width="2" fill="none" />
<polyline points="195.5,204.5,188.0,212.0" stroke="black" stroke-width="2" fill="none" />
<polyline points="197.0,227.5,205.5,219.5,213.5,212.0" stroke="black" stroke-width="2" fill="none" />
<polyline points="212.5,212.0,220.5,212.0,228.5,212.5,236.5,212.5,244.0,214.0" stroke="black" stroke-width="2" fill="none" />
<polyline points="262.5,206.5,250.5,198.5,246.5,189.5,243.0,181.5,243.0,173.5,249.0,160.5,251.0,155.5,257.0,147.0,258.0,147.5,249.5,153.5" stroke="black" stroke-width="2" fill="none" />
<polyline points="249.0,155.0,241.5,162.5,234.0,170.0" stroke="black" stroke-width="2" fill="none" />
<polyline points="237.0,168.0,245.0,167.5,253.5,167.5,261.5,167.5,269.5,167.5" stroke="black" stroke-width="2" fill="none" />
<polyline points="267.0,169.0,275.0,172.0" stroke="black" stroke-width="2" fill="none" />
<polyline points="281.5,166.5,290.0,166.5,298.0,166.0,306.5,165.0,315.0,164.0,323.5,163.5,332.0,163.0" stroke="black" stroke-width="2" fill="none" />
<polyline points="330.5,159.0,323.0,159.0,316.0,159.5,308.5,160.0,300.5,161.0,292.5,161.5" stroke="black" stroke-width="2" fill="none" />
<polyline points="296.5,157.5,298.5,165.5,300.5,175.0,300.0,185.0,297.0,193.0,298.0,189.0" stroke="black" stroke-width="2" fill="none" />
<polyline points="300.0,165.5,298.0,158.5" stroke="black" stroke-width="2" fill="none" />
<polyline points="299.0,159.5,302.0,167.5" stroke="black" stroke-width="2" fill="none" />
<polyline points="284.0,160.5,282.0,160.5,281.5,168.0" stroke="black" stroke-width="2" fill="none" />
<polyline points="282.5,163.0,290.0,155.5,298.0,148.0,306.0,140.5" stroke="black" stroke-width="2" fill="none" />
<polyline points="302.5,138.5,312.0,146.0,318.0,154.0,322.0,162.5,324.0,170.5,324.0,178.5" stroke="black" stroke-width="2" fill="none" />
<polyline points="331.0,176.5,323.0,177.5,315.0,178.0,307.0,178.5,299.0,179.0,291.5,179.5,283.5,180.0,275.0,180.5,267.5,181.0,260.0,181.5,252.0,181.5,243.5,181.0,236.0,181.0" stroke="black" stroke-width="2" fill="none" />
<polyline points="236.5,174.5,244.5,174.0,252.5,172.5,260.5,171.5,267.5,171.0,275.0,171.0,283.0,170.0,291.0,170.0,299.0,170.0,306.5,169.5,314.0,169.0,322.5,168.5,331.0,167.5" stroke="black" stroke-width="2" fill="none" />
<polyline points="331.5,152.0,339.5,150.5,347.0,150.5,355.0,150.0,363.5,148.0,371.5,149.0,374.5,159.5,370.5,168.0,379.0,170.0,379.0,178.0,378.5,186.0,379.0,194.0,379.0,202.5,372.0,210.5,366.5,223.5,369.5,227.0" stroke="black" stroke-width="2" fill="none" />
<polyline points="370.0,197.0,375.0,197.0,375.0,189.5,375.5,182.0,375.5,174.0,378.5,166.0,378.5,158.0,378.0,150.0,377.5,142.0,370.5,139.5,370.5,131.5,368.5,129.5,360.5,128.5,352.0,127.5" stroke="black" stroke-width="2" fill="none" />
<polyline points="349.5,114.5,341.5,122.5,333.0,129.5" stroke="black" stroke-width="2" fill="none" />
<polyline points="331.0,126.0,339.0,125.5,347.0,125.0" stroke="black" stroke-width="2" fill="none" />
<polyline points="332.5,140.0,324.5,140.5" stroke="black" stroke-width="2" fill="none" />
<polyline points="314.5,145.0,306.5,145.0,298.5,145.5,290.0,146.5,281.5,147.0,274.0,148.0,266.5,149.0,258.5,150.0,250.5,151.0,242.5,151.5" stroke="black" stroke-width="2" fill="none" />
<polyline points="245.0,153.5,253.0,153.5" stroke="black" stroke-width="2" fill="none" />
<polyline points="261.5,155.0,269.5,154.0,277.0,153.0,284.5,152.5,292.5,153.0,300.0,152.5,307.5,152.0,315.5,151.5" stroke="black" stroke-width="2" fill="none" />
<polyline points="326.0,152.5,328.5,146.5,337.0,146.5,345.0,146.0,353.0,146.0,361.0,145.0,368.5,149.5" stroke="black" stroke-width="2" fill="none" />
<polyline points="332.5,173.5,331.0,165.5,331.5,157.0,329.5,148.5,324.5,147.0,324.5,139.0,320.5,142.5,313.5,128.0,309.5,120.0,301.0,112.0,301.0,110.0" stroke="black" stroke-width="2" fill="none" />
<polyline points="300.5,109.5,308.0,109.0,316.0,108.5" stroke="black" stroke-width="2" fill="none" />
<polyline points="310.0,118.5,302.0,111.5" stroke="black" stroke-width="2" fill="none" />
<polyline points="293.0,135.5,285.5,136.0,277.5,137.0,269.5,137.5,261.5,138.0" stroke="black" stroke-width="2" fill="none" />
<polyline points="258.0,135.5,244.0,140.5,248.0,143.5,241.0,152.5,237.0,160.5,235.0,168.5,234.5,176.5,233.5,184.5,236.5,193.0,241.0,201.0,249.5,209.0,263.5,217.5,265.5,207.5,274.0,208.5,284.5,206.0,291.5,202.0" stroke="black" stroke-width="2" fill="none" />
<polyline points="298.0,194.5,286.0,202.0,278.0,205.0,270.0,205.0,262.0,203.0,258.5,200.0,253.0,192.5,249.0,187.5,246.0,179.5,244.0,170.5" stroke="black" stroke-width="2" fill="none" />
<polyline points="237.0,164.5,244.5,164.5,252.0,164.5,260.0,164.5,268.0,164.5" stroke="black" stroke-width="2" fill="none" />
<polyline points="267.5,160.0,260.0,161.0,252.5,162.0,245.0,162.5,237.0,163.0" stroke="black" stroke-width="2" fill="none" />
<polyline points="236.5,161.5,244.0,154.0,252.0,147.0,259.5,140.5,267.5,133.0" stroke="black" stroke-width="2" fill="none" />
<polyline points="260.5,133.5,269.0,133.0,277.5,131.5,285.5,131.5,293.0,131.0,301.0,130.5" stroke="black" stroke-width="2" fill="none" />
<polyline points="309.0,137.5,300.5,138.5,292.5,139.5,284.0,140.0,275.5,140.0,267.0,140.5,258.5,141.5,250.0,142.0" stroke="black" stroke-width="2" fill="none" />
<polyline points="253.5,132.0,261.5,124.5" stroke="black" stroke-width="2" fill="none" />
<polyline points="251.5,120.5,243.5,128.5" stroke="black" stroke-width="2" fill="none" />
<polyline points="242.5,126.5,250.5,126.0,258.5,125.0" stroke="black" stroke-width="2" fill="none" />
<polyline points="258.0,129.5,250.0,130.0,242.0,130.5" stroke="black" stroke-width="2" fill="none" />
<polyline points="238.0,123.5,229.5,131.0" stroke="black" stroke-width="2" fill="none" />
<polyline points="228.0,124.5,220.5,132.0" stroke="black" stroke-width="2" fill="none" />
<polyline points="218.0,130.0,226.0,130.0,234.5,132.0,242.5,131.5,250.5,130.5,259.0,126.5,262.0,127.5,261.0,133.0,270.0,138.5,273.5,134.5,277.5,139.5,285.5,138.5,289.5,133.0,297.5,131.5,305.0,132.0,312.5,132.0,320.0,128.0,328.0,126.0,327.5,128.5,340.5,128.5,348.5,127.5,356.5,124.5" stroke="black" stroke-width="2" fill="none" />
<polyline points="304.5,129.5,300.5,125.0,298.5,130.0,290.0,130.5,282.5,130.0,274.5,130.0,266.5,130.5,259.0,131.5,251.5,139.5,243.0,147.5,235.5,151.0,227.5,151.5,219.5,151.5,212.0,149.5" stroke="black" stroke-width="2" fill="none" />
<polyline points="209.5,148.0,217.5,146.0,225.5,146.0,233.5,146.5,239.0,139.0" stroke="black" stroke-width="2" fill="none" />
<polyline points="234.5,128.0,226.5,129.0,218.0,130.0" stroke="black" stroke-width="2" fill="none" />
<polyline points="218.0,126.0,226.5,125.5,234.0,125.0" stroke="black" stroke-width="2" fill="none" />
<polyline points="234.0,126.0,242.0,126.5,242.5,128.5" stroke="black" stroke-width="2" fill="none" />
<polyline points="250.0,122.0,242.0,123.0,234.0,122.5,226.0,126.0,218.0,125.5" stroke="black" stroke-width="2" fill="none" />
<polyline points="210.0,133.5,211.5,141.5,209.5,153.0,204.0,160.5,211.0,165.5,206.5,166.5,207.0,169.5" stroke="black" stroke-width="2" fill="none" />
<polyline points="203.5,171.5,211.5,164.0" stroke="black" stroke-width="2" fill="none" />
<polyline points="212.0,165.5,204.0,166.5" stroke="black" stroke-width="2" fill="none" />
<polyline points="210.0,163.0,213.5,161.5,206.0,153.5,205.0,158.5" stroke="black" stroke-width="2" fill="none" />
<polyline points="208.0,133.0,208.0,134.0,207.5,142.0,206.5,150.0,200.5,158.0,201.5,166.0,208.5,174.0,208.5,182.5,208.5,191.0,209.0,199.0,207.5,207.0,213.0,215.0,209.5,223.0,209.5,230.5,209.5,238.0,210.0,245.5,210.5,254.0,210.0,262.0,211.0,270.5" stroke="black" stroke-width="2" fill="none" />
<polyline points="178.5,229.0,170.5,236.5,163.0,243.5" stroke="black" stroke-width="2" fill="none" />
<polyline points="154.0,245.0,146.0,252.5,138.0,260.0,130.5,267.5,123.5,275.0,116.0,282.5,107.5,289.5,99.5,296.5,91.5,303.5,83.5,310.5,75.5,318.0,67.5,325.5,59.5,333.0" stroke="black" stroke-width="2" fill="none" />
<polyline points="43.5,332.5,50.5,324.5,58.0,317.0,65.5,309.5,73.0,302.0,81.5,294.5,89.5,287.0,98.0,280.0,107.0,273.0,115.0,265.5,123.5,258.5,131.5,251.0,139.5,243.5,146.5,236.0,154.5,228.5" stroke="black" stroke-width="2" fill="none" />
<polyline points="148.0,220.5,140.0,228.0,131.5,235.5,123.5,242.5,115.5,250.0,107.5,257.5,99.0,264.0,91.5,271.0,83.5,278.0,75.5,284.5,67.5,291.5,59.5,299.5,51.0,308.0,43.0,316.0,35.0,324.0,27.0,332.0" stroke="black" stroke-width="2" fill="none" />
<polyline points="36.5,331.5,44.5,324.5,53.0,317.0,61.0,310.5,69.0,303.5,77.0,296.0,85.0,288.5,93.0,280.5,100.5,272.5,108.5,265.0,116.5,257.0,124.0,249.5,132.0,242.5,139.5,235.0,147.5,227.5,155.0,220.0,162.5,212.5" stroke="black" stroke-width="2" fill="none" />
<polyline points="147.5,205.5,139.5,213.0,131.5,220.5" stroke="black" stroke-width="2" fill="none" />
<polyline points="129.5,229.5,121.5,237.0,114.5,244.0,107.0,251.5,99.5,259.0,91.5,266.5,84.0,274.0,76.5,281.5,68.5,288.5,60.0,296.0,52.0,303.5,44.5,311.0,36.5,318.5,28.5,326.0,20.5,333.5" stroke="black" stroke-width="2" fill="none" />
<polyline points="9.5,333.0,18.5,326.0,27.0,318.5,35.0,311.5,43.0,304.0,51.0,296.5,58.5,289.5,66.5,282.0,74.5,274.5,82.5,267.0,91.5,259.0,100.0,251.0,108.5,243.5,117.5,236.5,125.5,229.0" stroke="black" stroke-width="2" fill="none" />
<polyline points="106.0,217.5,98.0,225.5,90.0,233.5,81.5,241.5,74.0,249.5,66.5,257.5,58.5,265.5,50.5,273.5,43.0,281.0,35.5,288.5,27.0,296.0,19.0,303.5,11.0,311.0,3.0,318.0" stroke="black" stroke-width="2" fill="none" />
<polyline points="3.0,318.0,11.0,317.5,18.5,317.0,26.5,316.0,35.5,314.5,44.0,314.0,51.5,313.5,59.0,313.5,66.5,313.0,74.5,313.0,82.0,313.0,90.5,312.0,98.5,311.0,106.5,310.0,114.5,309.5,122.5,309.0,130.5,308.5,138.5,307.5,146.0,307.5,154.0,307.0,162.0,307.0,170.0,306.0,178.5,306.0,187.0,305.5,195.5,305.0,204.0,305.0,212.0,304.5,220.5,304.5,228.5,303.5,236.5,303.0,244.5,302.0,252.5,302.0,260.0,301.0,268.0,300.5,275.5,299.5,283.5,299.0,291.0,299.0,299.0,299.0,307.5,298.5,316.0,298.5,324.0,298.5,332.0,297.5,339.5,297.0,347.0,296.5,354.5,296.0,362.5,295.5,370.0,295.0,377.5,294.5,386.0,294.0,394.0,293.0,402.0,293.0,410.5,292.0,418.5,291.5,426.0,290.5,433.5,290.0,441.5,290.0,450.0,289.5,458.0,289.0,466.5,288.5,475.5,288.0,483.5,287.5,491.5,287.0,499.0,286.5,507.0,285.5,515.0,284.5" stroke="black" stroke-width="2" fill="none" />
<polyline points="515.0,276.0,507.5,277.0,499.0,278.0,491.0,278.5,483.0,279.5,475.0,279.5,467.0,280.0,459.5,280.5,451.5,281.5,443.5,282.0,435.5,282.5,427.0,283.5,419.0,284.0,411.5,284.5,404.0,284.5,396.0,285.5,388.0,286.0,380.0,287.0,372.0,287.5,364.5,288.0,356.0,288.5,348.0,288.5,339.5,289.0,331.0,289.5,322.5,289.5,314.5,290.0,306.5,291.0,299.0,292.0,291.0,293.0,283.0,293.5,275.0,294.0,267.5,294.5,260.0,295.0,252.0,294.5,244.5,294.5,236.5,295.0,228.5,295.5,220.5,295.5,213.0,295.5,204.5,295.5,197.0,296.5,188.5,298.0,180.0,299.0,171.5,300.0,164.0,300.5,155.5,300.5,147.5,301.0,139.5,301.0,132.5,301.0,124.5,301.0,116.5,302.5,108.0,304.0,100.0,304.5,91.0,305.5,83.0,305.5,75.0,306.0,67.0,307.0,58.5,307.0,50.5,306.5,42.0,307.0,34.0,307.5,26.5,308.0,18.5,308.5,11.0,309.0,3.5,309.5" stroke="black" stroke-width="2" fill="none" />
<polyline points="2.0,309.0,10.5,302.0,18.5,295.0,26.5,287.5,34.5,280.0,42.5,272.0,51.0,264.0,59.0,256.0,66.5,248.0,74.5,241.0,83.0,233.5,91.0,226.0,98.5,219.0,106.5,212.0" stroke="black" stroke-width="2" fill="none" />
<polyline points="98.0,210.5,90.0,218.0" stroke="black" stroke-width="2" fill="none" />
<polyline points="92.0,211.5,84.0,219.0,75.0,226.5,67.0,234.0,59.5,241.5,52.0,248.5,43.5,256.0,35.5,263.5,27.5,271.5,19.5,279.5,11.0,287.0,3.5,294.0" stroke="black" stroke-width="2" fill="none" />
<polyline points="3.5,294.0,12.0,293.5,19.5,292.5,27.5,292.0,36.0,291.5,44.0,291.0,52.0,290.5,60.0,290.0,68.0,290.0,75.5,290.0,83.0,289.5,91.0,289.0,99.0,288.0,107.0,287.0,115.5,286.0,123.5,286.0,132.0,285.0,140.5,284.5,148.5,284.5,156.5,284.0,165.0,283.5,173.0,283.5,180.0,283.0,188.0,282.5,196.0,282.0,204.5,282.0,212.0,281.5,220.0,281.0,228.5,280.5,236.5,279.5,244.5,278.5,252.0,278.0,260.0,277.5,268.0,277.0,276.0,276.5,284.0,276.0,292.0,275.0,300.0,273.5,307.5,272.5,315.5,272.0,323.0,271.5,331.0,271.0,339.0,271.0,347.5,271.0,356.0,270.5,364.5,270.0,372.5,270.0,380.0,269.0,387.5,268.5,395.0,268.5,402.5,268.5,411.0,268.0,419.0,268.0,427.0,268.0,436.0,267.5,444.0,266.5,452.0,266.5,460.0,266.0,467.5,265.0,475.5,264.5,483.5,264.0,491.5,263.5,499.5,262.5,508.0,262.0,516.0,261.5" stroke="black" stroke-width="2" fill="none" />
<polyline points="517.0,270.5,509.0,271.0,501.0,271.5,493.5,271.5,485.5,272.0,477.5,272.5,469.5,273.0,461.5,273.5,453.0,274.5,444.5,274.5,437.0,275.5,429.5,276.0,421.5,276.5,413.5,277.0,405.5,277.5,397.5,278.0,389.5,278.5,381.0,278.5,373.0,278.5,364.5,278.5,357.0,279.0,349.0,279.5,341.0,280.0,333.0,280.5,324.5,280.5,316.5,281.0,308.5,281.5,300.5,282.5,292.5,283.5,284.0,284.0,276.5,284.5,267.5,285.0,259.5,286.0,251.5,287.0,243.5,288.0,236.0,288.5,228.0,288.0,220.5,288.0,213.5,288.5,205.5,288.5,197.5,288.5,188.5,289.0,180.0,289.5,172.0,290.0,164.0,290.5,156.0,291.0,148.5,291.5,141.0,293.0,132.5,294.0,124.5,295.0,116.5,295.5,108.0,296.0,99.5,297.0,91.0,297.5,83.0,298.0,74.5,298.5,66.5,298.5,59.0,298.5,51.0,299.5,43.0,300.0,35.5,300.5,28.0,301.0,20.5,301.5,13.0,301.5,5.5,302.0" stroke="black" stroke-width="2" fill="none" />
<polyline points="4.0,302.5,12.0,294.5,20.0,286.5,28.5,279.0,37.0,271.5,45.0,264.0,53.0,257.0,61.0,250.0,69.0,242.5,76.5,235.0,85.0,227.5" stroke="black" stroke-width="2" fill="none" />
<polyline points="83.0,210.5,75.5,218.0,67.5,225.5,59.5,233.5,51.5,241.5,43.5,249.5,36.0,257.0,28.5,264.5,21.0,272.0,13.0,279.5,5.0,286.5" stroke="black" stroke-width="2" fill="none" />
<polyline points="2.5,285.0,10.5,284.5,18.5,284.5,26.5,284.0,34.5,283.0,42.5,282.5,51.0,281.5,60.0,280.0,68.0,279.5,75.5,278.5,83.0,277.5,91.5,277.5,99.5,277.5,107.5,277.0,116.0,277.0,124.0,276.5,131.5,276.5,139.5,277.0,147.0,277.5,154.5,277.0,162.0,276.5,170.0,276.0,178.0,275.5,186.0,274.5,194.0,274.0,202.0,273.5,210.0,273.0,218.0,272.0,226.0,271.5,234.5,271.0,242.5,270.5,250.5,270.0,259.0,269.5,267.0,269.0,275.0,268.5,283.0,267.5,290.5,266.5,298.5,265.5,306.0,265.0,313.5,264.0,321.5,263.5,329.5,263.5,338.0,263.0,346.0,263.0,354.5,262.5,362.5,262.5,370.5,262.0,379.0,261.5,387.0,261.0,394.5,260.5,402.5,260.0,410.5,259.0,419.0,258.5,427.5,258.0,436.0,257.0,444.0,256.5,452.0,256.5,459.5,257.0,468.0,257.0,475.5,257.0,483.5,256.5,492.0,256.0,500.0,255.5,508.0,255.0,515.5,254.5" stroke="black" stroke-width="2" fill="none" />
<polyline points="343.5,198.5,335.5,197.5,332.5,197.5,332.0,189.0" stroke="black" stroke-width="2" fill="none" />
<polyline points="288.5,183.0,286.5,185.5,280.0,195.0,272.0,195.5,272.0,189.5,267.5,193.0,265.0,185.5" stroke="black" stroke-width="2" fill="none" />
<polyline points="241.5,199.5,233.5,190.0" stroke="black" stroke-width="2" fill="none" />
<polyline points="212.5,203.5,205.0,211.0,197.0,219.0" stroke="black" stroke-width="2" fill="none" />
<polyline points="210.5,224.5,202.5,225.0,195.0,225.5,186.5,225.5,179.0,225.5,171.0,226.0,163.0,227.0,155.0,227.0,147.0,227.5,139.5,228.5,131.5,229.5,123.0,230.0,115.5,230.5,107.5,230.5,100.0,230.5,92.5,231.0,85.0,231.5,76.5,232.5,68.0,233.5,60.0,234.5,52.5,235.5,45.0,236.0,37.0,236.0,28.5,236.5,21.0,236.5,13.0,237.0,5.5,238.0" stroke="black" stroke-width="2" fill="none" />
<polyline points="5.0,242.5,13.5,235.0,21.5,227.5,29.5,220.0,37.5,212.5" stroke="black" stroke-width="2" fill="none" />
<polyline points="30.5,212.0,22.0,220.0,14.0,227.5,5.5,235.0" stroke="black" stroke-width="2" fill="none" />
<polyline points="5.0,233.0,13.0,232.5" stroke="black" stroke-width="2" fill="none" />
<polyline points="11.5,225.5,19.0,225.5" stroke="black" stroke-width="2" fill="none" />
<polyline points="18.0,218.5,10.0,219.0" stroke="black" stroke-width="2" fill="none" />
<polyline points="3.5,214.0,11.5,213.0,19.5,212.5,28.0,212.0,36.5,211.5,44.0,211.0,52.0,211.0,60.0,211.0,67.5,210.5,75.0,210.0,83.0,209.0,91.0,208.5,99.0,207.5,107.0,207.5,115.0,207.0,123.0,206.5,131.0,206.0,140.0,205.5,148.5,205.0,156.0,204.5,164.0,204.0,172.5,203.5,180.5,202.5,188.0,201.5,195.0,200.5,202.5,200.5,210.5,199.5,219.0,198.5" stroke="black" stroke-width="2" fill="none" />
<polyline points="210.5,195.0,203.0,195.5,195.5,196.0,187.0,196.0,179.0,197.0,171.5,197.5,163.5,197.5,155.5,198.0,147.0,198.0,139.0,198.5,131.0,199.0,123.0,199.5,115.0,200.5,107.5,201.5,100.0,203.0,92.0,203.5,84.5,204.5,77.0,205.5,69.0,206.5,60.5,207.0" stroke="black" stroke-width="2" fill="none" />
<polyline points="59.5,213.5,51.0,220.0,42.5,227.0,34.0,234.0,25.5,241.0,17.0,248.5,9.0,255.5,1.5,262.5" stroke="black" stroke-width="2" fill="none" />
<polyline points="2.5,260.5,10.5,260.5,18.5,260.0,27.0,259.5,35.0,259.0,43.0,259.0,51.5,258.5,59.5,259.0,67.0,259.0,74.5,259.0,83.0,258.5,91.0,258.0,99.5,257.0,108.0,256.5,116.0,256.0,124.0,255.5,132.0,255.0,139.0,254.0,146.5,253.0,154.0,251.5,162.0,251.0,170.0,250.5,178.5,250.0,186.5,249.5,194.5,249.0,202.5,248.5,210.5,248.5" stroke="black" stroke-width="2" fill="none" />
<polyline points="220.0,264.0,211.5,265.0,203.0,265.5,195.0,266.5,187.5,267.0,179.5,267.0,171.5,267.5,163.0,268.0,155.5,268.5,148.0,268.5,140.0,269.5,132.0,271.0,124.5,271.5,116.0,271.5,108.0,271.0,100.0,271.0,92.5,271.5,84.5,272.5,76.5,272.5,68.0,273.0,60.0,273.5,51.5,274.5,43.0,275.0,35.0,275.0,27.5,275.0,19.5,275.5,11.0,276.0,3.5,276.5" stroke="black" stroke-width="2" fill="none" />
<polyline points="3.0,274.0,11.5,273.5,20.0,272.5,29.0,272.0,37.0,271.0,45.0,270.5" stroke="black" stroke-width="2" fill="none" />
<polyline points="36.5,266.5,28.5,267.0" stroke="black" stroke-width="2" fill="none" />
<polyline points="19.0,265.5,10.5,266.5" stroke="black" stroke-width="2" fill="none" />
<polyline points="3.5,268.5,11.5,268.0,19.5,268.0,28.0,267.5,36.0,268.0,44.0,268.0,52.0,268.0,60.0,267.0,68.0,266.5,76.0,265.0,84.0,264.0,92.5,263.5,100.5,263.0,108.5,263.0,116.5,262.5,125.0,261.5,132.5,261.5,139.5,261.5,147.5,261.5,156.0,261.5,164.0,261.0,172.0,260.5,180.0,260.0,188.0,259.5,196.0,258.5,204.0,257.5,212.0,257.0" stroke="black" stroke-width="2" fill="none" />
<polyline points="210.5,240.5,202.0,240.5,194.5,241.0,186.0,241.5,178.0,242.0,169.5,242.5,161.5,243.0,153.5,243.5,146.0,244.0,138.5,244.5,131.0,245.0,123.0,245.5,115.0,246.5,107.5,247.5,100.0,248.0,92.5,248.5,85.0,249.0,76.5,250.0,68.5,250.5,60.0,251.0,51.5,251.0,43.0,251.5,35.0,252.0,27.5,252.5,20.0,253.0,11.5,253.5,3.5,254.0" stroke="black" stroke-width="2" fill="none" />
<polyline points="3.5,256.5,11.5,249.0,19.5,241.5,27.0,234.5,35.0,227.0,43.5,219.5,52.0,211.5" stroke="black" stroke-width="2" fill="none" />
<polyline points="46.0,212.5,38.0,220.0,29.0,228.0,20.5,236.0,12.5,243.0,4.5,250.5" stroke="black" stroke-width="2" fill="none" />
<polyline points="4.0,245.0,12.5,245.0,20.0,245.0,28.0,244.5,36.0,244.0,44.0,243.0,52.0,242.0,60.0,241.5,68.5,241.0,77.0,241.0,85.0,241.0,93.0,240.0,100.5,239.0,108.0,238.0,115.5,237.5,122.5,236.5,130.5,235.5,138.0,235.0,145.5,234.5,154.0,234.5,162.0,233.5,170.0,233.5,177.5,233.5,185.5,233.0,194.0,233.0,202.5,233.0,210.5,233.0" stroke="black" stroke-width="2" fill="none" />
<polyline points="213.0,215.5,220.5,216.0,228.5,216.0,236.5,217.5,245.0,217.0,253.0,215.5" stroke="black" stroke-width="2" fill="none" />
<polyline points="244.0,211.5,236.0,210.5,228.0,210.5,219.5,210.5,211.0,212.5" stroke="black" stroke-width="2" fill="none" />
<polyline points="235.5,157.0,243.5,156.5,251.5,156.5,259.0,156.0,267.0,155.5,274.5,155.0" stroke="black" stroke-width="2" fill="none" />
<polyline points="270.0,158.5,265.0,166.5,269.0,160.5,277.5,159.0,286.5,160.5,290.5,168.0" stroke="black" stroke-width="2" fill="none" />
<polyline points="287.5,148.0,280.0,145.0,279.0,148.5" stroke="black" stroke-width="2" fill="none" />
<polyline points="282.5,140.0,297.5,141.0,306.5,149.5,307.5,150.5,318.5,154.5" stroke="black" stroke-width="2" fill="none" />
<polyline points="309.0,150.5,302.0,142.5" stroke="black" stroke-width="2" fill="none" />
<polyline points="73.5,210.0,66.0,218.0,58.5,226.0,51.0,233.5,43.5,241.0,35.5,248.5,28.0,256.5,20.0,265.0,12.5,272.5,4.5,280.0" stroke="black" stroke-width="2" fill="none" />
<polyline points="2.0,280.0,10.5,279.5,19.0,279.5,27.5,278.5" stroke="black" stroke-width="2" fill="none" />
<polyline points="2.5,271.5,10.0,264.0,18.0,256.5,25.5,249.0,33.5,241.0,42.0,233.5,50.5,226.5,58.5,219.0,66.0,212.0" stroke="black" stroke-width="2" fill="none" />
<polyline points="29.0,205.0,21.0,205.5,12.5,205.5,4.5,206.0" stroke="black" stroke-width="2" fill="none" />
<polyline points="3.0,210.5,11.0,210.5,19.0,210.5,26.5,210.5,34.0,209.5,41.5,209.5,49.5,209.5,57.5,209.5,65.5,209.5,73.5,210.0,81.5,210.0,89.5,209.0,98.0,209.0,106.5,209.0,114.5,209.0,122.5,208.5,131.0,208.5,139.0,207.0,147.0,206.5,154.5,206.5,162.5,206.5,170.5,206.5,178.5,206.5,187.0,205.5,195.0,205.5,203.5,206.0,212.0,201.0,220.0,201.0,227.5,201.5,235.5,202.0,245.0,200.0,254.0,199.0" stroke="black" stroke-width="2" fill="none" />
<polyline points="195.0,305.5,187.5,306.0,180.0,307.0,172.5,307.5,165.0,308.5,157.0,309.0,148.5,309.0,140.5,309.0,132.5,310.0,124.0,310.0,116.5,310.5,108.5,310.5,100.0,310.5,92.0,311.5,83.0,312.5,74.5,313.0,66.5,313.5,58.5,313.5" stroke="black" stroke-width="2" fill="none" />
<polyline points="49.5,311.5,41.0,311.0,34.0,311.0,26.5,310.5,18.5,310.5,10.5,311.0,2.5,311.5" stroke="black" stroke-width="2" fill="none" />
<polyline points="5.0,306.5,13.0,305.5,20.5,305.5,28.5,305.5,37.0,305.0" stroke="black" stroke-width="2" fill="none" />
<polyline points="5.5,299.5,13.0,299.0,20.5,298.0,28.5,297.0,36.5,297.0,44.0,297.0,51.5,296.5,59.0,296.0,67.0,295.5,75.0,294.5,83.0,293.5,91.0,293.5,99.5,293.0,108.0,292.0,116.0,291.5,124.5,290.5,132.5,289.5" stroke="black" stroke-width="2" fill="none" />
<polyline points="211.0,307.5,202.5,307.5,194.0,308.5,185.5,309.5,177.0,310.0,169.0,310.5,161.0,311.0,153.0,311.5,145.0,312.0,137.5,312.5,130.5,312.5,122.5,312.5,114.5,313.5,106.5,313.5,98.5,313.5,91.0,314.0,82.5,314.5,75.0,315.5,67.0,316.5,59.5,317.0,51.5,318.0,44.0,319.5,36.0,320.0,27.5,320.0,19.0,320.5,11.0,321.0,3.0,321.5" stroke="black" stroke-width="2" fill="none" />
<polyline points="2.0,289.5,10.0,289.5,18.5,289.0,26.5,289.0" stroke="black" stroke-width="2" fill="none" />
</svg>