<svg xmlns="http://www.w3.org/2000/svg" version="1.1"><polyline points="6.0,133.0,7.0,140.5,6.0,148.5,5.0,156.5,6.0,164.0,3.0,172.0,3.5,180.0,5.0,187.5,5.0,195.5,4.5,203.0,4.5,211.0,5.5,219.0" stroke="black" stroke-width="2" fill="none" />
<polyline points="1.0,466.0,9.5,466.5,17.5,466.5,25.5,466.0,34.0,467.0,42.0,466.5,50.0,466.5,58.0,466.5,66.0,466.5,74.5,466.5,82.5,466.5,90.5,466.5,98.5,466.5" stroke="black" stroke-width="2" fill="none" />
<polyline points="176.5,471.5,184.5,471.0,192.5,471.0,200.5,471.0,208.5,470.5,216.5,470.5,224.0,470.5" stroke="black" stroke-width="2" fill="none" />
<polyline points="226.5,478.5,235.0,471.0,242.5,463.5,250.5,456.5,258.5,449.5,266.0,442.0,274.0,434.5,281.5,426.5,289.5,419.5" stroke="black" stroke-width="2" fill="none" />
<polyline points="290.5,412.5,282.5,420.5,274.0,427.5,266.0,434.0,258.0,441.0,250.5,448.0,242.5,455.5,235.0,462.5" stroke="black" stroke-width="2" fill="none" />
<polyline points="237.0,462.0,245.0,461.5,252.5,461.0,260.0,461.0,267.5,460.5,275.5,460.5,283.5,459.5,292.0,459.0,299.5,458.0,307.0,457.5,315.0,457.0,323.0,456.0,332.0,455.0,340.0,454.5,348.0,453.5,356.0,453.0,364.0,452.0,372.0,451.5,380.0,451.0,388.0,450.5,396.0,450.5,404.0,450.0,412.0,449.5,420.0,448.5,428.0,448.5,436.0,447.5,444.0,447.5,452.0,447.0,460.0,447.0,468.5,447.5,476.0,447.0,484.5,446.5,492.5,445.5,500.0,444.5,508.0,444.0,516.0,443.5" stroke="black" stroke-width="2" fill="none" />
<polyline points="517.0,446.5,508.5,453.5,500.0,461.0,491.5,468.0,482.5,475.0,474.0,482.0,466.5,488.5,458.5,495.5,450.0,502.5,441.5,510.0" stroke="black" stroke-width="2" fill="none" />
<polyline points="457.0,510.0,465.5,503.0,473.5,496.0,481.5,489.0,490.0,482.5,498.5,475.0,507.0,467.5,514.5,459.5" stroke="black" stroke-width="2" fill="none" />
<polyline points="514.5,466.0,506.5,473.5,498.0,481.0,490.0,488.0,482.5,495.5,475.0,503.5,466.5,511.0" stroke="black" stroke-width="2" fill="none" />
<polyline points="467.5,504.5,460.0,505.0" stroke="black" stroke-width="2" fill="none" />
<polyline points="467.5,498.5,475.5,498.0,483.5,497.0" stroke="black" stroke-width="2" fill="none" />
<polyline points="490.5,498.0,498.5,497.5,507.0,497.0,515.0,496.0" stroke="black" stroke-width="2" fill="none" />
<polyline points="515.5,499.5,507.5,507.0,499.5,514.5" stroke="black" stroke-width="2" fill="none" />
<polyline points="492.5,515.0,500.5,514.5,508.5,514.0,516.5,513.5" stroke="black" stroke-width="2" fill="none" />
<polyline points="515.5,507.5,507.5,515.5" stroke="black" stroke-width="2" fill="none" />
<polyline points="513.5,506.0,505.0,506.5,496.5,507.5" stroke="black" stroke-width="2" fill="none" />
<polyline points="489.5,514.0,497.5,507.0,505.5,500.5,513.0,493.0" stroke="black" stroke-width="2" fill="none" />
<polyline points="514.0,483.0,506.0,490.5,498.0,498.0,490.5,506.0,483.0,514.0" stroke="black" stroke-width="2" fill="none" />
<polyline points="475.5,512.5,483.0,504.5,491.0,496.5,499.0,489.0,507.0,481.0,515.0,474.0" stroke="black" stroke-width="2" fill="none" />
<polyline points="514.0,453.0,506.5,460.0,498.5,467.0,490.5,474.0,482.5,481.5,474.5,488.5,466.0,495.5,457.5,502.5,449.5,510.0" stroke="black" stroke-width="2" fill="none" />
<polyline points="435.0,511.0,443.0,504.0,450.5,496.0,459.0,489.0,468.0,481.5,476.5,474.0,484.0,466.5,492.5,459.0,501.0,451.0,509.0,443.0,516.5,435.0" stroke="black" stroke-width="2" fill="none" />
<polyline points="517.0,427.5,508.5,434.5,500.5,442.0,492.5,449.0,484.5,456.5,476.5,464.0,468.5,471.5,461.0,479.5,453.0,487.5,445.0,495.5,437.0,503.0,429.0,511.0" stroke="black" stroke-width="2" fill="none" />
<polyline points="421.5,510.0,429.5,503.0,437.5,496.0,445.0,488.5,453.5,480.5,461.0,472.5,469.0,464.5,476.5,456.5,485.0,449.0,493.5,441.5,502.0,433.5,510.0,426.0,518.0,418.5" stroke="black" stroke-width="2" fill="none" />
<polyline points="517.0,410.0,509.0,417.5,501.0,425.5,493.0,433.5,485.0,440.5,477.0,448.5,469.0,456.5,461.0,464.5,453.5,472.5,445.5,480.0,437.5,487.5,430.0,495.0,421.5,503.0,413.5,509.5" stroke="black" stroke-width="2" fill="none" />
<polyline points="412.5,501.0,420.5,493.5,429.0,485.5,437.0,478.5,445.0,470.5,453.5,463.0,461.5,455.0,469.0,447.5,476.5,440.0,484.5,433.0,492.5,426.0,500.5,418.5,508.0,411.0,516.0,404.0" stroke="black" stroke-width="2" fill="none" />
<polyline points="517.0,396.5,508.5,404.0,499.5,410.5,491.5,417.5,483.5,425.0,475.5,432.0,468.0,439.0,460.0,446.0,452.5,454.0,444.5,461.5,436.5,468.5,428.5,476.5,420.5,484.5,412.5,492.5,404.5,500.0" stroke="black" stroke-width="2" fill="none" />
<polyline points="386.5,507.0,394.5,499.0,403.0,491.0,411.5,483.0,419.5,475.5,427.5,468.0,435.5,461.0,444.0,453.5,452.0,446.0,460.0,439.0,468.0,431.5,476.0,424.0,483.5,417.5,491.0,410.5,499.0,403.5,506.5,395.5,514.5,388.0" stroke="black" stroke-width="2" fill="none" />
<polyline points="516.0,379.0,508.0,386.0,500.5,394.0,492.0,401.5,484.0,409.0,476.0,416.0,468.0,424.0,460.0,431.0,453.0,438.0,446.0,445.0,438.0,452.5,429.5,460.0,421.0,468.0,412.5,475.5,404.0,483.5,396.0,491.5" stroke="black" stroke-width="2" fill="none" />
<polyline points="387.0,491.0,395.5,483.5,404.5,475.5,412.5,468.0,420.5,460.0,428.5,452.5,436.5,444.5,444.5,437.0,453.0,429.5,461.0,422.5,468.5,415.0,476.5,408.0,484.5,400.5,491.5,392.5,499.5,385.0,507.5,378.5,516.0,371.5" stroke="black" stroke-width="2" fill="none" />
<polyline points="506.0,371.5,498.0,379.0,490.5,387.0,483.0,394.5,475.5,402.0,468.0,409.0,460.5,416.5,452.5,424.0,445.0,431.0,437.0,438.5,429.0,446.5,420.5,453.5,412.5,461.0,404.5,468.0,396.5,475.5,388.5,483.0,380.5,490.5" stroke="black" stroke-width="2" fill="none" />
<polyline points="372.0,490.0,380.0,482.5,388.5,475.5,396.0,467.5,404.0,460.0,411.5,452.0,419.5,444.0,428.0,436.0,436.5,428.5,444.0,421.0,452.0,414.0,460.0,407.0,467.0,400.0,474.5,393.0,482.0,385.5,490.0,378.0,498.5,370.0,506.5,361.5,514.5,354.0" stroke="black" stroke-width="2" fill="none" />
<polyline points="516.0,348.5,508.5,356.0,500.0,363.5,491.5,370.5,483.5,377.5,475.5,384.5,467.5,391.5,460.0,399.0,452.0,406.5,444.5,414.5,437.0,422.5,428.5,430.0,420.5,437.0,412.5,444.0,404.5,451.5,396.0,459.0,388.0,467.0,380.0,475.0,372.0,483.0,364.5,491.0,356.5,498.5" stroke="black" stroke-width="2" fill="none" />
<polyline points="347.5,489.0,356.0,481.5,364.0,474.0,372.5,466.5,380.5,460.0,389.0,452.5,397.0,445.0,405.0,437.5,413.0,430.5,421.0,423.0,429.0,415.5,437.0,408.5,445.0,401.5,452.5,393.5,460.0,385.5,468.0,377.5,475.5,370.0,483.0,362.5,490.5,355.0,498.0,347.5" stroke="black" stroke-width="2" fill="none" />
<polyline points="491.5,346.0,500.0,339.0,508.0,332.0,516.0,324.5" stroke="black" stroke-width="2" fill="none" />
<polyline points="517.0,332.0,509.0,339.5" stroke="black" stroke-width="2" fill="none" />
<polyline points="505.5,349.5,498.0,356.5,490.0,364.0,482.0,371.0" stroke="black" stroke-width="2" fill="none" />
<polyline points="482.0,368.0,490.5,367.5" stroke="black" stroke-width="2" fill="none" />
<polyline points="490.5,362.0,498.5,362.0" stroke="black" stroke-width="2" fill="none" />
<polyline points="484.0,356.0,475.5,364.0,467.0,371.0,458.5,378.5,451.0,386.0,443.5,393.5,435.0,400.5,427.0,408.0,419.0,416.0,411.0,424.5,402.5,432.0,395.0,439.5,386.5,446.5,379.0,454.0,371.5,461.0,363.5,469.0,355.5,475.5,347.0,482.5,339.0,490.0" stroke="black" stroke-width="2" fill="none" />
<polyline points="338.0,484.0,330.5,491.5,322.5,499.0" stroke="black" stroke-width="2" fill="none" />
<polyline points="331.0,498.0,339.5,490.5,347.5,482.5" stroke="black" stroke-width="2" fill="none" />
<polyline points="356.0,492.0,363.5,485.0,371.0,477.5,378.5,470.0,386.0,462.0,394.0,454.5,402.0,447.5,410.0,440.0,418.5,432.0,426.5,424.5,434.0,416.5,443.0,409.0,451.0,401.0,459.0,393.5,467.0,386.5,475.0,379.0" stroke="black" stroke-width="2" fill="none" />
<polyline points="475.5,385.5,468.0,386.0" stroke="black" stroke-width="2" fill="none" />
<polyline points="461.0,399.5,469.0,399.5,477.0,399.0,484.5,399.0,491.5,399.0,498.5,399.0,506.0,398.5,514.0,398.0" stroke="black" stroke-width="2" fill="none" />
<polyline points="514.5,408.5,506.5,409.0,498.5,410.0" stroke="black" stroke-width="2" fill="none" />
<polyline points="514.5,415.5,507.0,416.0,499.0,416.5,491.0,417.0,483.0,417.5" stroke="black" stroke-width="2" fill="none" />
<polyline points="475.5,408.5,483.5,408.0,491.0,407.5" stroke="black" stroke-width="2" fill="none" />
<polyline points="490.5,392.5,498.5,392.5,506.0,392.0" stroke="black" stroke-width="2" fill="none" />
<polyline points="498.5,383.0,490.0,383.0" stroke="black" stroke-width="2" fill="none" />
<polyline points="475.0,355.0,467.0,362.5,459.0,370.0,451.0,377.5,442.5,384.5,434.0,392.0,425.5,400.0,417.5,408.0,409.5,416.0,401.5,424.5,393.5,432.5,386.0,439.5,378.0,447.0,370.0,454.0,362.5,460.5,355.5,468.0" stroke="black" stroke-width="2" fill="none" />
<polyline points="364.0,465.0,372.0,464.5,380.0,464.5,388.0,464.0,396.0,464.0,404.0,463.5,412.0,463.0,420.0,462.5,427.5,462.0,435.0,461.5,442.5,461.0,450.5,460.5,459.0,460.5,467.0,460.0,475.0,460.0,483.0,459.5,491.0,458.5,500.0,457.0,508.5,456.0,516.0,455.5" stroke="black" stroke-width="2" fill="none" />
<polyline points="475.0,417.0,467.0,417.5" stroke="black" stroke-width="2" fill="none" />
<polyline points="444.5,385.5,436.5,385.5" stroke="black" stroke-width="2" fill="none" />
<polyline points="443.5,377.0,436.0,377.0,428.0,377.5" stroke="black" stroke-width="2" fill="none" />
<polyline points="428.5,370.0,436.0,369.0" stroke="black" stroke-width="2" fill="none" />
<polyline points="445.5,365.0,437.5,372.0,429.0,378.5,420.5,386.0,412.0,394.0,403.0,401.5,395.0,409.0,388.0,416.5,380.0,424.0,371.5,431.5,363.0,438.5" stroke="black" stroke-width="2" fill="none" />
<polyline points="365.0,435.0,357.0,442.5" stroke="black" stroke-width="2" fill="none" />
<polyline points="358.5,437.0,359.0,445.0,351.5,452.5,350.5,461.0,338.5,467.5,345.5,467.5,353.5,458.0" stroke="black" stroke-width="2" fill="none" />
<polyline points="355.0,453.5,362.5,445.0,370.0,437.5,378.0,430.0,386.5,422.5,394.5,415.5,403.0,408.5,411.5,401.5,420.0,394.0,428.0,386.5,436.5,379.0,444.5,371.0,452.5,363.5" stroke="black" stroke-width="2" fill="none" />
<polyline points="460.5,363.5,452.5,371.5,444.0,379.0,435.0,386.0,427.0,393.5,419.0,400.5,410.0,408.0,401.0,415.0,393.0,422.0,385.0,429.5,377.5,437.0,369.5,444.5,361.5,452.0,354.0,460.0,346.0,468.5" stroke="black" stroke-width="2" fill="none" />
<polyline points="346.5,467.5,339.0,475.5" stroke="black" stroke-width="2" fill="none" />
<polyline points="339.0,468.0,331.0,475.0" stroke="black" stroke-width="2" fill="none" />
<polyline points="330.5,482.0,322.5,489.5,314.5,497.0" stroke="black" stroke-width="2" fill="none" />
<polyline points="307.5,496.5,315.0,489.0,323.0,481.5" stroke="black" stroke-width="2" fill="none" />
<polyline points="322.0,473.0,330.0,465.5" stroke="black" stroke-width="2" fill="none" />
<polyline points="322.0,466.0,314.5,473.5" stroke="black" stroke-width="2" fill="none" />
<polyline points="316.0,467.5,308.0,475.0" stroke="black" stroke-width="2" fill="none" />
<polyline points="308.0,482.5,300.0,490.0,292.0,498.0,284.0,506.0,276.0,514.0" stroke="black" stroke-width="2" fill="none" />
<polyline points="268.5,513.5,276.0,506.5,284.0,499.5,291.5,492.5,299.5,485.5" stroke="black" stroke-width="2" fill="none" />
<polyline points="291.5,484.5,283.5,492.0,275.5,499.0,267.5,506.0,259.5,513.0" stroke="black" stroke-width="2" fill="none" />
<polyline points="251.5,513.0,259.5,506.5,267.0,499.0,275.0,492.0,283.5,484.5,292.0,477.0,300.5,469.0" stroke="black" stroke-width="2" fill="none" />
<polyline points="300.5,475.0,308.5,467.5" stroke="black" stroke-width="2" fill="none" />
<polyline points="299.5,475.0,307.0,474.5,315.0,473.5,323.0,473.0,330.5,472.5,339.0,472.5,347.0,471.5,355.5,470.5,364.0,470.0,372.5,469.0,381.0,468.5,389.0,468.0,397.0,466.5,405.5,466.0,413.5,465.5,421.5,465.0,429.0,464.5,437.0,463.5,445.0,463.0,453.5,463.0,461.5,462.0,469.5,462.0,477.0,462.0,484.5,462.0,492.0,462.0,500.0,462.0,508.0,461.0,516.0,460.5" stroke="black" stroke-width="2" fill="none" />
<polyline points="468.5,355.0,477.0,346.5,485.0,339.0" stroke="black" stroke-width="2" fill="none" />
<polyline points="491.5,338.0,499.0,330.5,506.5,322.5,514.0,315.5" stroke="black" stroke-width="2" fill="none" />
<polyline points="514.5,308.0,506.0,315.5,498.0,323.0" stroke="black" stroke-width="2" fill="none" />
<polyline points="498.0,320.0,506.0,319.5" stroke="black" stroke-width="2" fill="none" />
<polyline points="514.0,322.0,506.5,322.5,498.5,323.0,490.5,323.5,482.5,324.0,474.5,324.5,466.5,324.5,458.5,325.5,450.5,326.5,443.0,327.0,435.0,327.5,427.5,327.5,419.5,328.0,411.5,329.0,403.0,330.0,394.5,331.0,386.0,331.0,378.0,331.5,370.0,332.5,362.0,333.5,354.0,334.5,346.0,335.0" stroke="black" stroke-width="2" fill="none" />
<polyline points="346.0,339.5,338.0,340.5" stroke="black" stroke-width="2" fill="none" />
<polyline points="332.0,348.5,340.0,348.0,348.0,347.5,356.0,346.5" stroke="black" stroke-width="2" fill="none" />
<polyline points="356.5,342.0,364.0,341.5,372.0,340.5,380.0,339.5,388.0,338.0,396.5,337.0,405.0,337.0,412.5,336.5,420.0,336.0,428.5,335.5,436.5,335.0,444.0,334.5,452.0,334.0,460.0,334.0,467.5,333.0,475.0,332.0,483.0,332.0,491.5,332.5,499.0,332.5,506.5,332.0,514.0,331.5" stroke="black" stroke-width="2" fill="none" />
<polyline points="514.0,329.0,505.5,330.0,497.0,330.5" stroke="black" stroke-width="2" fill="none" />
<polyline points="500.5,335.0,499.5,331.0,494.0,330.5,491.0,331.5,498.5,328.5,502.5,327.5" stroke="black" stroke-width="2" fill="none" />
<polyline points="491.5,324.0,499.5,316.5,508.0,309.5" stroke="black" stroke-width="2" fill="none" />
<polyline points="499.5,307.5,491.5,315.0,483.5,322.5" stroke="black" stroke-width="2" fill="none" />
<polyline points="483.0,315.0,491.0,307.5" stroke="black" stroke-width="2" fill="none" />
<polyline points="490.5,301.0,482.5,308.5,475.0,316.0" stroke="black" stroke-width="2" fill="none" />
<polyline points="481.5,304.5,490.0,303.5" stroke="black" stroke-width="2" fill="none" />
<polyline points="483.0,298.5,491.0,291.5" stroke="black" stroke-width="2" fill="none" />
<polyline points="506.5,294.0,514.5,286.5" stroke="black" stroke-width="2" fill="none" />
<polyline points="506.5,276.5,498.5,284.5" stroke="black" stroke-width="2" fill="none" />
<polyline points="490.0,281.5,497.5,273.5" stroke="black" stroke-width="2" fill="none" />
<polyline points="507.5,267.5,515.0,260.0" stroke="black" stroke-width="2" fill="none" />
<polyline points="513.5,249.0,505.0,249.5,496.5,250.5,489.0,250.5,481.5,251.0,474.0,251.0,466.5,251.5,458.5,252.0,451.0,252.0,442.5,252.5,434.5,252.5,426.0,252.5,418.0,253.5" stroke="black" stroke-width="2" fill="none" />
<polyline points="411.5,248.5,419.5,247.5,428.5,246.0,436.5,245.0,444.5,244.5,452.0,244.0,460.0,243.5,468.0,243.0,476.0,243.0,484.5,242.0,492.5,242.0,500.5,241.5,508.5,241.0,516.5,240.5" stroke="black" stroke-width="2" fill="none" />
<polyline points="515.5,231.0,507.0,232.0,499.0,232.5,490.5,233.0,482.5,233.0,474.0,233.5,466.0,234.0,458.0,234.0,450.5,234.0,442.5,234.5,434.5,235.0,426.5,235.5,418.5,236.0,411.5,236.5,404.0,237.0" stroke="black" stroke-width="2" fill="none" />
<polyline points="388.5,221.0,396.0,220.0,404.0,219.0,412.0,219.0,420.5,219.0,429.0,218.5,436.5,218.5,444.0,218.0,452.0,217.5,460.0,217.0,468.0,216.5,476.0,216.0,483.5,216.0,491.5,216.0,499.0,215.5,507.0,215.0,515.0,214.5" stroke="black" stroke-width="2" fill="none" />
<polyline points="516.0,210.0,508.0,217.5" stroke="black" stroke-width="2" fill="none" />
<polyline points="507.0,217.0,499.5,217.5" stroke="black" stroke-width="2" fill="none" />
<polyline points="491.5,224.5,499.0,217.0,506.5,209.0,514.0,201.5" stroke="black" stroke-width="2" fill="none" />
<polyline points="509.0,179.5,501.0,187.0,492.0,195.0" stroke="black" stroke-width="2" fill="none" />
<polyline points="491.5,187.0,499.0,179.5" stroke="black" stroke-width="2" fill="none" />
<polyline points="505.5,161.5,513.5,154.0" stroke="black" stroke-width="2" fill="none" />
<polyline points="505.5,147.0,513.5,139.5" stroke="black" stroke-width="2" fill="none" />
<polyline points="505.5,132.0,513.5,125.0" stroke="black" stroke-width="2" fill="none" />
<polyline points="506.5,124.5,498.0,132.0" stroke="black" stroke-width="2" fill="none" />
<polyline points="490.5,134.0,482.5,141.5" stroke="black" stroke-width="2" fill="none" />
<polyline points="484.0,148.0,492.0,140.0" stroke="black" stroke-width="2" fill="none" />
<polyline points="496.5,122.5,504.5,115.0" stroke="black" stroke-width="2" fill="none" />
<polyline points="505.5,106.0,497.5,113.5,489.5,121.0" stroke="black" stroke-width="2" fill="none" />
<polyline points="485.0,112.5,477.0,113.0" stroke="black" stroke-width="2" fill="none" />
<polyline points="484.5,107.0,477.0,114.0,469.5,121.0" stroke="black" stroke-width="2" fill="none" />
<polyline points="506.0,98.5,514.0,91.0" stroke="black" stroke-width="2" fill="none" />
<polyline points="506.5,90.5,498.5,98.0" stroke="black" stroke-width="2" fill="none" />
<polyline points="505.5,82.5,513.0,75.0" stroke="black" stroke-width="2" fill="none" />
<polyline points="514.5,69.0,507.0,76.5" stroke="black" stroke-width="2" fill="none" />
<polyline points="507.0,72.5,515.5,72.5" stroke="black" stroke-width="2" fill="none" />
<polyline points="516.5,61.0,508.5,68.5,500.5,75.5" stroke="black" stroke-width="2" fill="none" />
<polyline points="492.0,75.5,500.0,68.0,508.0,61.0,516.5,53.5" stroke="black" stroke-width="2" fill="none" />
<polyline points="516.5,45.5,508.5,53.0,500.5,60.0" stroke="black" stroke-width="2" fill="none" />
<polyline points="500.5,58.0,492.5,59.0" stroke="black" stroke-width="2" fill="none" />
<polyline points="483.5,66.5,492.0,59.5,500.5,52.0,509.0,44.5,517.0,37.0" stroke="black" stroke-width="2" fill="none" />
<polyline points="516.5,27.0,508.5,34.5,500.0,42.0,491.5,49.5,482.5,57.5" stroke="black" stroke-width="2" fill="none" />
<polyline points="491.0,42.0,499.0,34.0,507.0,26.5,515.0,19.0" stroke="black" stroke-width="2" fill="none" />
<polyline points="513.0,11.5,505.5,19.0,497.5,27.5,490.0,35.5,482.5,43.5,475.0,51.0,467.0,59.0,459.5,66.5" stroke="black" stroke-width="2" fill="none" />
<polyline points="460.5,57.0,468.0,49.5,475.0,42.0,483.0,34.0,490.0,26.5,497.5,19.0,505.5,11.0,513.5,3.5" stroke="black" stroke-width="2" fill="none" />
<polyline points="506.0,2.5,498.5,10.0,491.0,18.5" stroke="black" stroke-width="2" fill="none" />
<polyline points="485.0,26.5,477.5,34.0" stroke="black" stroke-width="2" fill="none" />
<polyline points="468.5,34.5,477.0,27.5,485.0,20.0,493.0,12.0,501.0,5.0" stroke="black" stroke-width="2" fill="none" />
<polyline points="505.0,19.5,513.0,18.5" stroke="black" stroke-width="2" fill="none" />
<polyline points="515.0,34.0,507.0,35.0" stroke="black" stroke-width="2" fill="none" />
<polyline points="500.0,27.5,507.5,27.0,516.0,26.0" stroke="black" stroke-width="2" fill="none" />
<polyline points="517.0,49.0,509.5,49.0" stroke="black" stroke-width="2" fill="none" />
<polyline points="475.5,75.0,467.0,82.5" stroke="black" stroke-width="2" fill="none" />
<polyline points="442.5,40.0,450.5,33.0,459.0,25.0,467.0,17.5,474.5,10.0,482.0,2.5" stroke="black" stroke-width="2" fill="none" />
<polyline points="483.5,9.5,475.0,17.0" stroke="black" stroke-width="2" fill="none" />
<polyline points="478.0,18.0,485.5,17.5" stroke="black" stroke-width="2" fill="none" />
<polyline points="473.0,4.0,465.0,11.0,457.5,18.5" stroke="black" stroke-width="2" fill="none" />
<polyline points="452.5,16.5,460.5,16.0,468.0,16.0" stroke="black" stroke-width="2" fill="none" />
<polyline points="467.5,12.0,475.0,11.5" stroke="black" stroke-width="2" fill="none" />
<polyline points="467.0,3.5,459.0,11.0,451.5,19.0" stroke="black" stroke-width="2" fill="none" />
<polyline points="445.0,18.0,453.0,11.0" stroke="black" stroke-width="2" fill="none" />
<polyline points="435.0,3.0,427.0,10.5" stroke="black" stroke-width="2" fill="none" />
<polyline points="401.5,60.0,409.5,59.5,417.5,59.5,425.5,59.5,434.5,58.5,443.0,58.0,450.5,57.5,458.0,57.0,466.0,56.5,473.5,56.0,481.5,55.5,490.0,54.5,499.0,54.5,507.0,54.0,515.0,53.5" stroke="black" stroke-width="2" fill="none" />
<polyline points="514.0,166.5,506.0,166.5,498.0,167.0,490.0,167.5,482.0,168.5,474.5,169.0,466.5,169.5,458.5,170.0,451.0,170.0,443.0,170.5,435.0,171.5,426.5,172.0,419.0,172.5" stroke="black" stroke-width="2" fill="none" />
<polyline points="427.0,182.0,435.0,181.5,442.0,181.0,450.0,180.5,457.5,180.0,465.5,179.5,474.0,179.0,482.5,179.0,491.0,178.5,499.0,178.0,507.0,178.0,515.0,177.0" stroke="black" stroke-width="2" fill="none" />
<polyline points="482.5,202.5,475.0,210.5" stroke="black" stroke-width="2" fill="none" />
<polyline points="477.0,218.5,469.0,226.5" stroke="black" stroke-width="2" fill="none" />
<polyline points="481.5,243.5,473.5,251.0" stroke="black" stroke-width="2" fill="none" />
<polyline points="490.5,259.5,499.0,252.5" stroke="black" stroke-width="2" fill="none" />
<polyline points="494.0,249.0,485.5,257.0" stroke="black" stroke-width="2" fill="none" />
<polyline points="499.0,259.5,491.0,267.0,483.0,274.5" stroke="black" stroke-width="2" fill="none" />
<polyline points="514.0,284.0,506.0,284.5,498.0,285.0,489.5,285.5,481.5,286.0,474.0,286.5,466.5,287.0,459.0,287.5,451.0,288.0,443.0,288.0,435.0,288.5,427.5,288.5,419.5,288.5,411.5,289.0,404.5,289.5,396.5,290.5,389.0,291.5,380.5,291.5,372.0,292.0" stroke="black" stroke-width="2" fill="none" />
<polyline points="372.5,300.5,380.5,300.0,388.0,300.0,396.0,299.5,403.5,299.0,411.0,298.5,418.5,298.0,426.5,298.0,434.0,297.5,442.0,297.5,449.5,297.0,458.0,296.5,465.5,296.0,473.0,295.5,481.0,295.0,489.0,294.5,497.5,294.5,506.5,293.5,514.5,292.5" stroke="black" stroke-width="2" fill="none" />
<polyline points="514.0,267.5,506.0,268.0,498.5,268.5,491.0,269.0,482.5,269.5,473.5,270.5,465.5,270.5,457.5,270.5,449.5,271.0,442.0,271.0,434.0,272.0,426.5,272.5,419.0,273.5,411.0,273.5,403.5,274.5,395.5,275.0,387.5,275.5,379.5,276.0,372.0,276.0" stroke="black" stroke-width="2" fill="none" />
<polyline points="355.0,270.5,363.0,270.0,371.0,269.5,379.0,268.5,387.0,268.5,395.0,267.5,403.5,266.5,412.0,265.5,420.5,264.5,429.0,264.0,437.5,264.0,445.5,263.0,453.5,262.5,461.5,262.0,470.5,261.5,478.5,261.5,486.5,261.5,494.5,261.5,502.5,262.0,510.5,262.0,518.5,261.5" stroke="black" stroke-width="2" fill="none" />
<polyline points="515.5,254.5,507.5,254.5,499.5,255.0,491.5,255.0,483.5,254.5,475.5,255.0,467.5,255.5,460.0,256.0,452.5,256.5,444.5,257.5,436.5,257.5,428.0,258.0,420.5,258.5,412.5,258.5,404.0,258.5,395.5,259.0,387.5,259.5,379.5,260.0,371.0,261.0,363.5,261.5,355.0,262.0" stroke="black" stroke-width="2" fill="none" />
<polyline points="347.5,253.5,355.5,252.5,363.0,251.5" stroke="black" stroke-width="2" fill="none" />
<polyline points="370.5,251.5,379.0,251.5,387.5,251.0,395.5,250.5,404.0,250.0" stroke="black" stroke-width="2" fill="none" />
<polyline points="404.0,243.0,396.0,243.0,388.0,243.5,380.5,244.0" stroke="black" stroke-width="2" fill="none" />
<polyline points="372.0,228.5,380.0,228.0,387.5,228.0,395.5,227.5,403.5,227.0,411.5,226.5,419.5,225.5,427.5,225.5,435.5,225.0,444.0,225.5,451.5,225.0,459.0,224.0,467.0,223.5,474.5,222.5,482.5,222.0,491.0,221.5,499.5,220.5,508.0,220.0,516.5,219.5" stroke="black" stroke-width="2" fill="none" />
<polyline points="517.0,192.0,509.5,192.0,501.0,193.0,493.5,193.0,485.0,193.5,476.0,194.0,467.0,194.5,459.0,195.0,450.5,196.0,442.5,197.0,434.5,197.5,426.0,198.0" stroke="black" stroke-width="2" fill="none" />
<polyline points="418.0,189.5,426.0,189.0,434.5,188.5,442.5,188.0,450.5,187.5,458.0,187.5,465.5,187.0,473.5,186.5,481.0,186.0,489.0,186.0,497.0,185.5,505.5,185.0,514.0,184.0" stroke="black" stroke-width="2" fill="none" />
<polyline points="514.5,199.5,506.5,200.0,498.5,201.0,490.5,201.5,482.5,201.5,474.5,202.0,466.0,203.0,458.5,203.5,450.5,204.0,442.0,204.0,434.0,204.0,425.5,205.5,417.5,206.0" stroke="black" stroke-width="2" fill="none" />
<polyline points="411.5,214.5,420.0,214.0,428.0,213.5,436.0,213.0,444.0,212.5,451.5,211.5,459.5,211.0,468.0,210.5,475.5,210.0,483.0,209.5,490.5,209.0,498.5,208.5,507.0,208.0,515.0,207.0" stroke="black" stroke-width="2" fill="none" />
<polyline points="508.5,249.5,508.0,257.5,509.0,258.5" stroke="black" stroke-width="2" fill="none" />
<polyline points="453.0,306.5,445.5,314.0,437.0,322.0" stroke="black" stroke-width="2" fill="none" />
<polyline points="437.5,316.0,429.0,323.5" stroke="black" stroke-width="2" fill="none" />
<polyline points="426.0,322.5,434.5,322.5" stroke="black" stroke-width="2" fill="none" />
<polyline points="443.5,321.5,451.5,314.0" stroke="black" stroke-width="2" fill="none" />
<polyline points="445.0,313.0,444.5,321.0,450.5,326.0,452.0,328.0" stroke="black" stroke-width="2" fill="none" />
<polyline points="452.5,323.5,460.5,316.0" stroke="black" stroke-width="2" fill="none" />
<polyline points="443.5,313.5,451.5,318.0,447.0,320.0,438.0,325.0,440.0,329.5" stroke="black" stroke-width="2" fill="none" />
<polyline points="453.0,339.5,444.5,347.0,436.0,354.5,427.5,361.5,419.0,368.0,410.5,375.5,402.5,383.5,394.5,391.5,387.0,399.5,379.0,407.0,371.5,414.5" stroke="black" stroke-width="2" fill="none" />
<polyline points="372.5,408.5,381.0,407.5" stroke="black" stroke-width="2" fill="none" />
<polyline points="386.0,410.5,394.5,410.0,402.5,409.5,411.0,408.5,420.0,407.5,428.5,406.0,437.0,405.0,445.5,404.0,454.0,403.5,462.0,403.0,469.0,402.5" stroke="black" stroke-width="2" fill="none" />
<polyline points="459.0,355.5,467.0,348.0" stroke="black" stroke-width="2" fill="none" />
<polyline points="475.5,339.5,483.5,332.0" stroke="black" stroke-width="2" fill="none" />
<polyline points="452.0,348.5,444.0,355.5,436.0,362.5,428.0,370.0,420.0,377.5,411.5,385.0,403.5,392.0,395.0,399.5,386.5,407.0,378.0,415.0,370.0,422.5" stroke="black" stroke-width="2" fill="none" />
<polyline points="363.0,426.0,355.0,434.0" stroke="black" stroke-width="2" fill="none" />
<polyline points="355.5,418.0,363.0,411.0,371.0,404.0" stroke="black" stroke-width="2" fill="none" />
<polyline points="363.5,399.0,371.5,391.5,379.5,384.0,387.5,376.5,395.0,369.0,403.0,361.0,411.0,353.5,419.0,346.5,426.5,339.0" stroke="black" stroke-width="2" fill="none" />
<polyline points="437.0,347.5,429.5,355.5,421.5,363.0,414.0,370.5,406.0,378.5,397.5,386.0,389.5,393.5,381.5,400.5,373.5,408.0,365.5,416.0" stroke="black" stroke-width="2" fill="none" />
<polyline points="363.0,417.0,371.5,416.5" stroke="black" stroke-width="2" fill="none" />
<polyline points="379.5,425.0,388.0,424.5,396.0,424.0,404.0,424.0,412.0,424.0,420.0,423.5,427.0,423.0,434.5,422.0,442.0,421.5,450.0,421.0,458.0,420.5,466.0,419.5,474.5,419.5,482.5,419.5,491.0,419.0,498.5,419.0,506.5,418.5,514.0,418.0" stroke="black" stroke-width="2" fill="none" />
<polyline points="427.5,384.5,419.5,384.5" stroke="black" stroke-width="2" fill="none" />
<polyline points="420.5,377.5,413.0,378.0" stroke="black" stroke-width="2" fill="none" />
<polyline points="414.5,363.5,422.5,363.0,430.0,362.5" stroke="black" stroke-width="2" fill="none" />
<polyline points="418.5,355.0,410.5,362.5,402.5,370.0,395.0,378.0,387.5,385.5,379.5,393.0" stroke="black" stroke-width="2" fill="none" />
<polyline points="380.5,392.0,372.5,393.0" stroke="black" stroke-width="2" fill="none" />
<polyline points="371.5,386.5,379.5,379.0" stroke="black" stroke-width="2" fill="none" />
<polyline points="382.0,377.0,374.5,384.5,367.5,389.5,370.0,381.0" stroke="black" stroke-width="2" fill="none" />
<polyline points="387.5,370.5,395.5,370.5,404.0,370.0,412.0,369.5" stroke="black" stroke-width="2" fill="none" />
<polyline points="404.5,355.0,396.0,362.5,388.0,370.5" stroke="black" stroke-width="2" fill="none" />
<polyline points="394.5,360.0,403.0,360.0" stroke="black" stroke-width="2" fill="none" />
<polyline points="397.0,353.5,405.0,346.0" stroke="black" stroke-width="2" fill="none" />
<polyline points="402.0,352.0,394.5,352.5" stroke="black" stroke-width="2" fill="none" />
<polyline points="396.0,352.0,390.0,360.0,379.5,362.5,383.0,363.5,382.0,371.5,382.5,379.5,373.5,387.5,368.5,384.5" stroke="black" stroke-width="2" fill="none" />
<polyline points="380.5,401.0,388.5,400.5,396.0,400.0,404.0,399.5,411.5,400.0,419.5,399.5,427.0,399.5,434.5,399.0,442.5,398.0,449.5,397.5" stroke="black" stroke-width="2" fill="none" />
<polyline points="459.0,412.0,451.0,412.0,443.5,412.0,435.5,412.0,427.0,412.5,418.0,413.5,410.0,414.0,401.5,415.0,393.0,415.5" stroke="black" stroke-width="2" fill="none" />
<polyline points="388.0,395.0,396.0,395.0,404.0,394.5,412.0,394.0,420.0,393.0,428.5,392.0,436.5,391.5,445.0,390.5,453.0,389.0,460.5,388.0,468.5,387.5" stroke="black" stroke-width="2" fill="none" />
<polyline points="411.0,384.5,403.0,385.0,395.5,386.0" stroke="black" stroke-width="2" fill="none" />
<polyline points="396.0,380.0,404.0,379.5" stroke="black" stroke-width="2" fill="none" />
<polyline points="380.5,355.0,388.5,347.0" stroke="black" stroke-width="2" fill="none" />
<polyline points="394.0,346.0,402.0,338.5,410.5,330.5" stroke="black" stroke-width="2" fill="none" />
<polyline points="404.5,322.5,396.5,330.5" stroke="black" stroke-width="2" fill="none" />
<polyline points="417.5,322.5,425.5,315.0" stroke="black" stroke-width="2" fill="none" />
<polyline points="362.5,325.0,370.5,324.5,379.0,323.5,387.0,323.0,395.5,323.0,403.0,322.5,412.0,322.0,420.0,321.5,428.5,320.5,436.0,320.0,444.5,320.0,452.0,319.0,460.0,318.0,468.0,318.0,476.5,318.0,485.0,317.5,492.5,317.5,500.0,317.0,508.0,316.5,516.0,316.0" stroke="black" stroke-width="2" fill="none" />
<polyline points="515.5,449.0,508.0,449.5,499.5,450.0,491.5,450.5,484.0,451.5,476.0,452.0,468.0,452.5,460.0,453.0,451.5,453.5,443.5,454.5,435.0,455.0,426.0,455.5,418.0,456.0,410.0,456.5,402.0,457.0,394.5,457.5,387.0,458.0,379.5,458.5,371.5,459.0" stroke="black" stroke-width="2" fill="none" />
<polyline points="365.0,449.0,373.0,448.5,380.5,448.0,388.5,447.5,397.0,447.0,404.5,447.0,412.5,446.5,419.5,446.5,427.0,446.0,434.0,445.5,442.0,445.5,450.5,445.0,458.5,444.5,467.0,443.5,476.0,442.5,484.5,441.0,493.0,440.0,501.5,439.0,510.0,438.5,518.0,438.0" stroke="black" stroke-width="2" fill="none" />
<polyline points="516.0,474.0,508.0,474.0,500.0,474.5,492.0,475.0,484.5,475.5,476.5,476.0,468.5,477.0,459.5,478.5,451.5,479.5,443.5,479.5,435.5,480.0,427.5,480.0,419.5,479.5,411.5,480.0,403.5,480.5,396.0,481.0,388.5,481.5,380.5,482.5,372.5,482.5" stroke="black" stroke-width="2" fill="none" />
<polyline points="387.0,509.5,379.0,517.0" stroke="black" stroke-width="2" fill="none" />
<polyline points="313.5,485.0,306.0,492.0,298.5,499.0" stroke="black" stroke-width="2" fill="none" />
<polyline points="292.0,499.5,291.5,507.5" stroke="black" stroke-width="2" fill="none" />
<polyline points="290.5,509.5,282.5,517.5" stroke="black" stroke-width="2" fill="none" />
<polyline points="290.5,501.0,282.5,502.0,275.0,502.5,267.0,503.0,259.0,503.5,251.0,504.5,243.0,505.0" stroke="black" stroke-width="2" fill="none" />
<polyline points="245.0,512.5,253.0,504.5,261.0,497.0,268.5,490.0,276.0,482.5,283.5,475.0,292.0,467.0" stroke="black" stroke-width="2" fill="none" />
<polyline points="291.5,468.0,299.5,469.0,308.0,468.5,316.0,468.0,324.0,468.5,332.5,467.5" stroke="black" stroke-width="2" fill="none" />
<polyline points="293.0,460.0,285.0,467.5,277.0,475.0,269.0,482.5,260.5,489.5,252.5,496.5,245.0,504.5,237.5,512.0" stroke="black" stroke-width="2" fill="none" />
<polyline points="235.0,514.0,243.0,513.5,251.0,513.0,259.0,512.5,267.5,512.0,275.5,511.5,283.0,511.0,290.5,511.0" stroke="black" stroke-width="2" fill="none" />
<polyline points="291.0,500.5,299.0,499.5,307.0,499.5,315.5,498.5,324.0,498.5,332.5,497.5,340.5,497.5,348.5,497.0,356.5,495.5,364.5,496.0" stroke="black" stroke-width="2" fill="none" />
<polyline points="370.5,442.5,379.0,441.5,387.0,441.5,395.5,441.0,404.0,440.5,412.5,440.0,420.5,440.0,428.0,439.5,436.0,439.5,443.5,438.5,452.0,438.5,459.5,438.0,468.0,437.0,475.5,435.5,483.0,434.5,490.5,434.0,498.5,433.0,506.5,432.5,514.5,432.0" stroke="black" stroke-width="2" fill="none" />
<polyline points="514.0,422.5,506.0,424.0,498.5,424.5,491.0,425.0,483.5,426.0,475.5,427.0,468.0,427.5,460.5,428.5,452.5,428.5,444.5,429.0,436.5,429.5,428.0,430.5,420.0,430.5,412.0,430.5,404.0,431.5,396.5,432.0,389.5,432.0,381.5,432.0,373.5,432.0" stroke="black" stroke-width="2" fill="none" />
<polyline points="359.5,421.5,358.5,417.5" stroke="black" stroke-width="2" fill="none" />
<polyline points="337.0,406.5,345.0,406.0,354.0,405.5,362.5,405.0,370.5,404.5,378.5,403.5,387.0,403.0,395.5,402.5,403.5,401.0,411.5,400.0,419.5,399.0,427.5,399.0,435.5,399.0,444.0,399.0,452.5,398.5,460.5,398.0,469.0,397.0,477.0,396.5,485.0,396.0,492.5,395.5,500.5,395.0,508.5,394.5,516.0,394.0" stroke="black" stroke-width="2" fill="none" />
<polyline points="516.5,340.5,508.5,341.0,500.5,341.5,492.5,342.5,484.5,342.5,476.5,343.5,468.0,344.5,460.0,345.0,451.5,345.5,443.5,345.5,435.5,346.5,428.0,347.0,420.5,346.5,412.5,346.5,404.0,346.0,395.5,346.0,386.5,346.5,378.0,346.5,369.5,347.0,361.5,348.0" stroke="black" stroke-width="2" fill="none" />
<polyline points="375.5,360.0,374.5,367.5,384.0,363.0,392.0,367.5,397.0,357.0" stroke="black" stroke-width="2" fill="none" />
<polyline points="383.0,359.0,375.0,361.0" stroke="black" stroke-width="2" fill="none" />
<polyline points="347.5,372.0,355.5,372.0,363.5,371.5,371.5,372.0,380.0,372.0,388.0,371.5,396.0,371.0,403.5,370.5,411.5,369.5,420.0,368.5,428.0,367.5,436.0,367.5,443.5,367.0,451.0,366.5,459.0,366.0,467.0,365.5,474.5,364.5,482.5,364.5,490.5,364.0,498.5,363.0,506.5,362.0,515.0,362.0" stroke="black" stroke-width="2" fill="none" />
<polyline points="363.0,301.5,355.0,301.5" stroke="black" stroke-width="2" fill="none" />
<polyline points="355.5,294.0,363.5,293.5" stroke="black" stroke-width="2" fill="none" />
<polyline points="347.5,286.0,355.5,286.0,363.5,286.0,371.5,285.0,379.5,284.0,387.5,283.5,395.5,283.0,403.5,282.0,411.5,281.5,419.5,280.5,428.0,280.0,436.0,279.5,444.0,279.5,452.0,279.0,460.0,279.0,468.0,278.5,476.0,278.0,484.0,277.5,491.5,277.0,499.0,276.5,506.5,276.0,514.5,275.5" stroke="black" stroke-width="2" fill="none" />
<polyline points="419.5,183.0,412.0,183.5" stroke="black" stroke-width="2" fill="none" />
<polyline points="400.5,165.0,408.5,164.0,417.5,163.5,426.0,163.0,434.0,163.0,443.0,163.0,451.0,162.5,459.5,162.5,468.0,162.5,476.5,162.0,484.5,162.0,492.5,161.0,500.0,160.5,507.5,160.0,515.0,160.0" stroke="black" stroke-width="2" fill="none" />
<polyline points="514.5,150.5,506.5,150.5,498.5,150.0,490.0,150.0,482.0,150.5,474.0,151.5,466.0,153.0,458.5,153.5,451.0,154.0,443.5,155.0,435.5,156.0,428.0,156.5,420.5,157.5,412.5,157.5" stroke="black" stroke-width="2" fill="none" />
<polyline points="401.5,150.0,410.0,149.5,417.5,149.0,425.0,148.5,433.0,148.0,441.0,147.5,449.5,147.5,458.5,146.5,466.5,145.5,474.5,145.0,483.0,144.5,491.0,144.0,499.0,143.5,507.0,143.0,514.5,142.5" stroke="black" stroke-width="2" fill="none" />
<polyline points="515.0,69.0,507.5,69.5,499.0,70.0,490.5,70.5,482.0,71.0,474.0,72.0,466.0,73.0,458.0,73.5,450.0,74.0,441.5,74.5,433.5,75.0,426.0,75.5,418.5,76.0,411.0,76.5,403.0,77.0" stroke="black" stroke-width="2" fill="none" />
<polyline points="387.5,71.5,395.0,70.5,403.0,70.0,410.5,69.0,418.5,68.5,426.0,67.0,434.5,66.5,442.5,65.5,451.0,64.5,459.5,64.0,467.5,63.5,475.5,63.5,483.0,63.5,490.5,64.0,498.5,64.0,506.5,64.0,514.0,63.5" stroke="black" stroke-width="2" fill="none" />
<polyline points="515.0,133.5,507.5,134.0,499.0,135.0,491.5,136.0,483.5,136.5,476.0,137.0,467.5,138.0,459.5,138.5,451.5,138.5,443.5,139.0,435.5,139.5,427.5,139.5,419.5,139.5,411.0,139.5,403.0,139.5,395.0,139.5" stroke="black" stroke-width="2" fill="none" />
<polyline points="397.0,132.0,405.0,132.0,413.0,132.0,421.0,132.0,428.5,132.5,436.5,132.5,444.0,132.0,452.0,131.5,459.5,131.0,467.5,131.0,475.5,131.0,483.0,130.5,490.5,129.5,498.5,129.0,506.5,128.0,515.0,127.0" stroke="black" stroke-width="2" fill="none" />
<polyline points="515.5,94.5,508.0,95.0,499.5,95.5,491.5,95.5,483.5,95.5,476.0,96.0,468.0,96.5,460.5,97.0,452.0,98.0,443.0,99.5,435.0,100.5,427.0,101.0,419.0,101.0,411.0,101.5,402.5,101.5,394.5,102.0" stroke="black" stroke-width="2" fill="none" />
<polyline points="388.5,99.0,380.0,99.5,372.0,99.5,364.0,100.0,356.0,101.0" stroke="black" stroke-width="2" fill="none" />
<polyline points="362.5,111.0,370.5,110.0,378.5,109.5,386.5,109.0,394.0,108.5,402.0,108.5,410.5,108.0,419.0,108.0,427.5,107.5,435.5,106.5,443.5,106.5,451.0,105.5,459.0,105.0,466.5,104.0,474.5,103.5,482.0,102.0,490.5,101.5,498.5,100.5,507.0,99.5,515.5,99.0" stroke="black" stroke-width="2" fill="none" />
<polyline points="516.0,77.5,508.5,78.0,501.0,78.0,493.0,79.0,484.5,79.5,476.5,80.0,468.5,80.5,461.0,81.0,453.0,81.5,445.0,81.5,436.5,82.0,428.5,82.0,420.5,82.0,412.5,82.5,404.5,83.0,396.0,84.0,388.0,85.0,380.0,85.5" stroke="black" stroke-width="2" fill="none" />
<polyline points="370.0,94.0,377.5,93.5,386.0,92.0,394.0,91.5,403.0,91.0,411.5,90.5,419.5,90.0,427.5,89.0,436.0,88.0,445.0,87.5,453.0,87.0,461.0,87.0,469.0,87.0,477.0,87.0,484.5,87.5,492.5,87.5,500.0,87.0,508.0,86.5,515.5,86.0" stroke="black" stroke-width="2" fill="none" />
<polyline points="516.5,47.5,509.0,48.0,501.5,48.5,494.0,48.5,486.0,49.0,478.0,49.5,470.5,50.0,462.5,50.5,454.5,51.0,446.5,51.0,438.5,50.5,430.5,50.5,422.5,50.5,414.5,50.5,405.5,51.0,397.5,51.5,389.5,52.0,381.5,53.0" stroke="black" stroke-width="2" fill="none" />
<polyline points="378.5,68.5,370.5,69.5,362.5,70.0" stroke="black" stroke-width="2" fill="none" />
<polyline points="356.0,75.5,364.0,75.0,372.0,74.0,380.5,73.5,388.5,73.0,396.5,72.5" stroke="black" stroke-width="2" fill="none" />
<polyline points="371.0,83.5,362.5,83.5,354.5,84.5" stroke="black" stroke-width="2" fill="none" />
<polyline points="362.0,91.5,355.0,91.5,347.0,92.0" stroke="black" stroke-width="2" fill="none" />
<polyline points="347.5,78.0,340.0,78.5" stroke="black" stroke-width="2" fill="none" />
<polyline points="337.5,84.5,330.0,84.5" stroke="black" stroke-width="2" fill="none" />
<polyline points="332.5,92.5,340.5,92.0" stroke="black" stroke-width="2" fill="none" />
<polyline points="334.0,100.0,341.5,99.5,349.0,99.0" stroke="black" stroke-width="2" fill="none" />
<polyline points="347.0,115.5,354.5,115.5,362.5,115.0,370.0,115.0,378.0,115.5,386.5,115.5,394.5,115.0,402.5,114.5,410.5,114.5,418.5,114.0,426.0,113.5,434.0,113.0,442.0,112.0,450.0,111.5,458.0,111.0,466.0,111.0,474.0,110.5,482.0,110.0,490.0,109.5,498.0,109.0,506.0,108.0,514.5,107.5" stroke="black" stroke-width="2" fill="none" />
<polyline points="515.5,117.5,507.5,117.5,499.5,118.0,491.5,118.5,483.5,118.5,475.5,118.5,467.0,118.5,459.0,118.5,451.0,118.5,442.5,119.0,434.5,120.0,426.5,120.5,418.0,122.0,410.0,122.5,401.5,123.5,393.5,123.5,385.5,124.0,377.5,125.0,370.0,125.0" stroke="black" stroke-width="2" fill="none" />
<polyline points="371.5,132.5,379.0,132.5,387.0,132.0" stroke="black" stroke-width="2" fill="none" />
<polyline points="388.5,141.0,380.5,141.0" stroke="black" stroke-width="2" fill="none" />
<polyline points="386.0,150.0,394.5,149.5" stroke="black" stroke-width="2" fill="none" />
<polyline points="394.0,155.5,385.5,156.5" stroke="black" stroke-width="2" fill="none" />
<polyline points="387.5,164.0,380.0,164.5,372.0,164.5" stroke="black" stroke-width="2" fill="none" />
<polyline points="373.0,176.0,381.0,175.0,389.0,174.5,396.5,174.0,404.5,173.5" stroke="black" stroke-width="2" fill="none" />
<polyline points="411.0,196.0,402.5,196.0,394.0,196.5,386.5,197.0" stroke="black" stroke-width="2" fill="none" />
<polyline points="388.0,212.5,396.0,212.5" stroke="black" stroke-width="2" fill="none" />
<polyline points="381.5,221.5,374.0,221.5,366.0,222.5" stroke="black" stroke-width="2" fill="none" />
<polyline points="364.5,227.5,357.0,227.5" stroke="black" stroke-width="2" fill="none" />
<polyline points="345.5,237.0,354.0,236.5,363.0,236.5,371.5,236.5,380.0,236.0,388.5,235.5" stroke="black" stroke-width="2" fill="none" />
<polyline points="380.5,212.0,373.0,212.0,365.5,212.0,357.5,212.0" stroke="black" stroke-width="2" fill="none" />
<polyline points="356.0,206.0,364.5,205.5,372.5,204.5,380.0,203.5,388.0,203.0,396.0,202.5,404.0,201.5,412.5,201.0" stroke="black" stroke-width="2" fill="none" />
<polyline points="403.0,179.0,395.0,180.0,387.5,181.0,379.5,181.5,371.5,181.5,363.5,182.0" stroke="black" stroke-width="2" fill="none" />
<polyline points="357.0,190.0,365.0,189.5,372.5,188.5,380.0,188.0,387.5,187.0,395.0,186.5,403.5,185.5,412.0,184.5" stroke="black" stroke-width="2" fill="none" />
<polyline points="370.5,156.5,362.5,156.5" stroke="black" stroke-width="2" fill="none" />
<polyline points="362.0,150.5,370.0,150.0,378.0,149.0" stroke="black" stroke-width="2" fill="none" />
<polyline points="371.5,141.0,363.0,141.5,354.5,142.0,346.5,142.5" stroke="black" stroke-width="2" fill="none" />
<polyline points="345.5,133.5,353.5,133.0" stroke="black" stroke-width="2" fill="none" />
<polyline points="354.0,124.5,346.0,125.0" stroke="black" stroke-width="2" fill="none" />
<polyline points="340.5,139.5,333.0,139.5" stroke="black" stroke-width="2" fill="none" />
<polyline points="332.5,133.0,340.5,132.5" stroke="black" stroke-width="2" fill="none" />
<polyline points="338.0,150.5,346.5,150.0" stroke="black" stroke-width="2" fill="none" />
<polyline points="337.0,155.5,329.0,156.0" stroke="black" stroke-width="2" fill="none" />
<polyline points="324.0,171.5,331.5,171.5,339.5,171.0" stroke="black" stroke-width="2" fill="none" />
<polyline points="338.5,190.0,346.5,189.5" stroke="black" stroke-width="2" fill="none" />
<polyline points="346.0,204.0,338.0,204.0" stroke="black" stroke-width="2" fill="none" />
<polyline points="332.0,213.0,324.0,213.0" stroke="black" stroke-width="2" fill="none" />
<polyline points="324.0,197.5,316.0,198.5" stroke="black" stroke-width="2" fill="none" />
<polyline points="330.0,229.5,338.5,229.0" stroke="black" stroke-width="2" fill="none" />
<polyline points="333.5,236.5,325.5,237.0" stroke="black" stroke-width="2" fill="none" />
<polyline points="330.5,254.5,338.5,254.0" stroke="black" stroke-width="2" fill="none" />
<polyline points="348.0,245.0,355.5,244.5" stroke="black" stroke-width="2" fill="none" />
<polyline points="353.5,277.0,345.0,277.5" stroke="black" stroke-width="2" fill="none" />
<polyline points="349.5,311.0,357.5,310.0,365.5,309.0,373.0,308.5,380.5,308.0,388.5,307.5,396.0,306.5,403.5,306.0,411.0,305.5,418.0,305.5,426.0,305.0,433.5,304.5,442.0,303.0,450.0,302.5,459.0,302.0,467.5,301.5,475.5,301.0,483.5,300.0,492.0,299.0,501.0,298.5,509.0,298.0,517.0,298.0" stroke="black" stroke-width="2" fill="none" />
<polyline points="515.0,305.5,507.0,305.5,498.5,306.0,490.5,307.0,482.5,307.5,474.0,309.0,466.0,309.5,457.5,310.5,449.5,310.5,441.5,311.0,433.5,312.0,426.0,312.0,418.0,312.5,410.5,312.5,403.0,313.5,395.5,314.5,388.0,315.0,380.0,315.5,372.0,317.0,364.0,318.0,355.5,319.0,347.5,320.0" stroke="black" stroke-width="2" fill="none" />
<polyline points="347.0,324.5,339.0,325.0,331.0,326.0" stroke="black" stroke-width="2" fill="none" />
<polyline points="331.5,334.0,323.5,334.5" stroke="black" stroke-width="2" fill="none" />
<polyline points="314.0,334.5,306.0,335.0" stroke="black" stroke-width="2" fill="none" />
<polyline points="306.0,327.0,314.0,326.0" stroke="black" stroke-width="2" fill="none" />
<polyline points="317.0,315.5,324.5,315.5" stroke="black" stroke-width="2" fill="none" />
<polyline points="315.5,311.0,307.0,311.5" stroke="black" stroke-width="2" fill="none" />
<polyline points="307.0,317.0,299.0,318.0" stroke="black" stroke-width="2" fill="none" />
<polyline points="302.0,307.0,294.0,307.5" stroke="black" stroke-width="2" fill="none" />
<polyline points="292.0,292.5,300.0,292.0" stroke="black" stroke-width="2" fill="none" />
<polyline points="276.0,282.0,267.5,289.5" stroke="black" stroke-width="2" fill="none" />
<polyline points="267.0,284.0,259.0,291.0" stroke="black" stroke-width="2" fill="none" />
<polyline points="256.0,290.5,264.0,293.5,272.0,298.0" stroke="black" stroke-width="2" fill="none" />
<polyline points="274.5,299.5,266.5,300.0,258.0,300.5" stroke="black" stroke-width="2" fill="none" />
<polyline points="257.5,300.5,265.5,301.5" stroke="black" stroke-width="2" fill="none" />
<polyline points="267.5,298.5,263.5,298.5,255.5,298.0" stroke="black" stroke-width="2" fill="none" />
<polyline points="257.0,294.0,265.5,294.0,274.0,293.5" stroke="black" stroke-width="2" fill="none" />
<polyline points="275.0,286.5,267.0,287.0,259.0,287.0,251.0,287.5" stroke="black" stroke-width="2" fill="none" />
<polyline points="251.0,289.0,249.0,297.0,250.0,305.0,250.0,313.0,249.0,321.0,247.0,329.0,246.0,337.5,252.0,338.0,260.0,337.5,268.0,338.5" stroke="black" stroke-width="2" fill="none" />
<polyline points="267.0,338.5,259.0,347.0,251.5,355.0,243.0,362.5,234.5,369.5" stroke="black" stroke-width="2" fill="none" />
<polyline points="234.0,369.5,242.0,369.5,250.5,369.0,258.5,368.0,267.0,367.0,275.5,366.0,283.5,365.5,291.5,365.0" stroke="black" stroke-width="2" fill="none" />
<polyline points="291.0,361.5,283.0,369.5,275.5,377.5,267.5,385.0,260.0,392.0,252.5,400.0,244.0,408.0,235.5,416.0" stroke="black" stroke-width="2" fill="none" />
<polyline points="235.5,416.5,243.5,416.0,251.0,415.0,258.5,414.5,265.5,414.0,273.5,413.5,281.5,413.0,289.5,412.0" stroke="black" stroke-width="2" fill="none" />
<polyline points="290.0,406.0,282.0,414.0,274.5,421.0,266.5,428.0,258.0,435.5,250.5,443.0,243.5,449.5,236.0,455.5" stroke="black" stroke-width="2" fill="none" />
<polyline points="236.0,458.0,244.0,457.0,251.5,456.5,259.5,455.5,267.0,455.0,275.5,454.5,283.0,454.0,291.0,454.0" stroke="black" stroke-width="2" fill="none" />
<polyline points="292.0,451.5,284.5,459.0,277.0,466.5,269.0,473.5,260.5,481.0,252.5,488.5,244.5,496.0,236.0,503.0,227.5,510.5" stroke="black" stroke-width="2" fill="none" />
<polyline points="226.5,510.0,234.5,509.5,242.5,508.5,250.5,508.0,259.5,507.5,267.5,507.0,276.5,507.0,284.5,507.5,292.5,507.0,300.5,507.0,308.5,506.5,316.0,506.0,324.0,505.5,332.0,505.0,340.0,504.0,348.5,503.5,356.0,503.0,364.0,502.5,372.0,502.0,380.0,501.0,388.0,500.5,396.0,499.5,403.5,499.5,412.0,498.5,419.5,497.5,427.5,497.0,435.0,496.5,442.5,496.5,449.5,496.0,457.0,496.0,465.0,495.5,473.0,495.0,482.0,494.5,490.5,494.0,498.5,493.5,506.5,492.5,515.0,492.0" stroke="black" stroke-width="2" fill="none" />
<polyline points="339.5,373.0,331.0,373.5,323.5,374.0" stroke="black" stroke-width="2" fill="none" />
<polyline points="322.5,365.5,331.0,364.5,339.0,364.0,346.5,363.0,354.5,362.5,362.0,362.5,369.5,361.5,377.5,361.5,385.5,361.0,393.5,361.0,401.0,360.5,409.5,360.0,418.0,359.5,426.5,359.0,435.0,358.0,443.5,357.0,452.0,356.5,460.5,356.0,468.5,356.0,477.0,355.5,485.0,355.0,493.0,354.5,500.5,354.0,508.5,353.5,517.0,353.0" stroke="black" stroke-width="2" fill="none" />
<polyline points="293.0,347.5,285.5,355.0,277.5,362.0,269.0,370.0,260.5,378.0,252.0,385.0,243.5,392.5,235.5,399.5,227.0,407.0" stroke="black" stroke-width="2" fill="none" />
<polyline points="229.0,405.5,237.0,404.5,244.5,404.5,252.5,404.0,261.0,403.5,269.0,403.0,277.0,403.0,285.0,402.0,293.0,402.0,300.5,401.5,308.5,401.0,317.0,401.0,325.0,400.5,333.0,400.0" stroke="black" stroke-width="2" fill="none" />
<polyline points="291.0,398.0,283.0,406.0,275.0,413.0,267.5,420.5,260.0,427.5,252.5,434.5,244.5,441.5,236.0,448.0" stroke="black" stroke-width="2" fill="none" />
<polyline points="235.5,448.5,243.0,448.0,251.0,448.0,259.5,447.5,268.0,446.5,275.5,445.5,283.5,445.0" stroke="black" stroke-width="2" fill="none" />
<polyline points="292.0,444.0,284.0,451.0,276.0,459.0,268.0,466.5,260.5,474.5,252.5,482.0,244.5,489.0,236.0,496.0,227.5,503.5" stroke="black" stroke-width="2" fill="none" />
<polyline points="227.5,500.5,235.0,499.5,243.0,499.0,251.0,498.5,259.0,499.0,267.0,498.5,275.0,498.5,283.0,498.5,291.5,499.0,299.5,499.0,308.0,498.5,316.0,498.0,324.0,496.5,332.0,495.5,340.0,495.0,347.5,494.5,355.0,494.0,363.5,494.0,371.0,493.5,378.0,493.5,386.0,493.0,394.0,492.5,402.5,491.5,410.5,491.0,419.0,490.0,427.0,489.5,435.0,488.5,442.5,487.5,450.5,487.0,458.0,486.0,466.0,485.5,474.0,484.5,482.0,484.5,490.0,484.0,499.0,483.5,507.0,483.0,515.5,482.5" stroke="black" stroke-width="2" fill="none" />
<polyline points="442.5,486.5,434.5,487.0,426.0,487.5,418.0,487.5,410.0,488.0,402.5,487.5,394.5,488.0,386.5,488.0,378.5,488.5,370.5,488.5,362.0,489.0,354.0,489.5,346.5,490.5,339.0,491.5,331.5,492.5,323.5,494.0,315.0,494.5,307.0,495.0,299.0,495.5,291.5,495.5,283.5,495.5,275.5,495.5,268.0,495.5,260.0,496.0,252.0,496.5,243.5,497.5,235.0,498.0" stroke="black" stroke-width="2" fill="none" />
<polyline points="236.0,495.0,244.0,495.0,252.5,494.5,260.5,494.0,268.5,493.5,276.0,492.5,284.5,492.5,293.0,491.5,301.5,491.0,310.0,490.0,317.5,489.5,325.5,489.0,333.5,489.0,341.5,489.0,349.0,489.5,356.5,488.5,364.0,488.0,371.5,486.5,378.5,486.0,386.0,485.0,394.0,484.5,402.5,484.0,411.0,483.5,419.0,483.0,427.0,482.5,435.0,482.5,443.0,481.5,451.0,481.0,459.0,480.5,467.0,480.0,475.0,479.5,483.0,479.0,491.0,478.5,499.0,477.5,507.0,477.5,515.0,476.5" stroke="black" stroke-width="2" fill="none" />
<polyline points="292.0,470.5,284.0,471.0,276.5,471.0,268.5,472.0,260.0,472.5,252.5,473.5,245.0,473.5,237.0,474.0" stroke="black" stroke-width="2" fill="none" />
<polyline points="236.5,470.0,244.0,469.5,252.0,469.5,259.5,469.0,266.5,468.5,274.0,468.0,282.5,468.0,290.5,468.0,298.0,467.5,305.5,467.0,314.0,467.0,322.0,466.5,330.0,465.5,338.0,464.5,347.0,464.0,355.0,463.5,364.0,462.0,372.0,461.0,380.5,460.0,388.5,459.5,396.5,459.5,404.5,458.5,412.0,458.0,420.5,458.0,428.5,457.5,436.0,457.0,444.5,456.0,452.5,455.0,460.5,454.5,469.0,453.5,477.0,452.5,484.5,452.5,492.5,452.5,500.0,452.5,507.5,452.5,515.5,452.5" stroke="black" stroke-width="2" fill="none" />
<polyline points="292.5,437.0,284.5,444.5,276.0,452.0,267.5,459.5,259.0,466.5,251.0,473.5,242.5,480.5,234.5,488.0" stroke="black" stroke-width="2" fill="none" />
<polyline points="228.0,487.5,236.0,486.5,243.5,487.0,251.5,487.0,259.5,487.5,267.5,488.0,275.5,487.5,284.0,487.0,292.0,486.0,299.5,485.5,307.0,485.0,315.0,484.5,323.0,484.0,331.0,483.5,339.5,483.0,347.5,482.5,355.0,482.0,362.5,482.0,370.0,481.5,378.0,481.5,386.0,481.0,394.0,480.0,402.0,479.0,410.0,478.0,417.0,477.5,425.5,476.5,433.5,476.0,441.5,475.0,449.5,474.5,458.0,474.0,466.0,473.0,474.0,473.0,482.0,473.5,490.0,473.0,498.0,473.0,506.5,472.5,514.5,472.0" stroke="black" stroke-width="2" fill="none" />
<polyline points="291.5,464.0,283.5,464.0,276.0,464.0,268.0,465.0,261.0,465.0,253.0,465.5,245.0,466.0,236.5,466.0" stroke="black" stroke-width="2" fill="none" />
<polyline points="236.5,451.5,244.5,451.0,252.0,451.0,260.0,450.5,268.5,450.5,276.5,450.0,284.5,450.0,292.5,449.5,300.0,449.5,308.0,449.5,315.5,449.0,323.5,448.5,331.5,448.0,339.0,447.0,347.0,446.0,355.0,445.5,362.5,446.0,371.0,445.5,379.0,445.0,387.0,445.0,394.5,444.5,402.5,444.0,410.5,443.5,419.0,443.0,427.5,443.0,435.5,442.0,443.0,441.5,451.5,440.5,459.5,439.5,467.5,438.5,476.0,438.0,484.0,437.0,492.0,436.5,500.0,436.5,508.5,436.0,516.5,435.5" stroke="black" stroke-width="2" fill="none" />
<polyline points="291.0,428.5,283.0,435.5,275.0,442.5,266.5,450.0,258.0,457.5,250.0,465.0,241.5,472.0,234.0,479.5,226.0,487.5" stroke="black" stroke-width="2" fill="none" />
<polyline points="227.5,485.0,235.5,485.0,244.5,485.0,253.0,484.5,260.5,484.0,268.5,483.5,276.5,483.0,284.0,482.5,291.5,482.0,299.0,481.5,307.0,481.0,315.5,480.5,324.0,479.5,332.0,479.0,340.0,478.5,347.5,478.5,355.5,478.5,363.5,478.5,371.0,478.5,379.0,478.0,387.0,477.5,395.5,477.0,403.5,475.5,411.0,474.5,418.5,473.5,426.0,472.5,434.0,472.0,442.5,471.5,450.5,471.5,458.5,471.0,466.5,471.0,474.5,470.5,482.0,471.0,490.0,470.5,498.0,470.5,506.5,470.0,514.5,469.5" stroke="black" stroke-width="2" fill="none" />
<polyline points="516.5,425.5,508.5,426.0,500.5,426.5,492.0,427.0,484.0,428.0,476.0,428.5,468.0,429.0,459.5,430.0,451.5,430.5,443.0,430.5,434.5,431.0,426.0,431.5,417.5,432.5,409.0,433.0,401.0,433.5,393.0,434.0,385.5,435.0,377.5,435.5,370.0,435.5,362.0,436.0,354.5,435.5,347.0,436.0,340.0,436.5,333.0,437.0,326.0,438.0,318.0,438.5,309.5,439.0,301.0,439.5,292.5,440.0,284.5,440.5,276.5,441.0,268.5,442.0,260.0,442.5,252.0,444.0,243.5,445.0,235.5,445.5" stroke="black" stroke-width="2" fill="none" />
<polyline points="235.0,441.5,243.0,434.0,251.0,427.0,259.0,419.5,266.5,412.0,274.5,404.5,282.0,397.5,290.5,389.5" stroke="black" stroke-width="2" fill="none" />
<polyline points="291.0,379.5,283.0,387.0,275.5,395.0,267.0,402.0,259.0,409.5,251.0,417.0,243.5,424.5,236.0,432.0" stroke="black" stroke-width="2" fill="none" />
<polyline points="234.0,434.0,241.5,433.5,249.5,433.0,258.0,432.5,267.5,432.0,276.0,431.5,284.0,431.0,292.0,430.0" stroke="black" stroke-width="2" fill="none" />
<polyline points="291.5,437.5,283.0,438.5,274.5,439.5,267.0,439.5,259.5,439.5,252.0,440.0,244.0,440.0,236.0,440.5" stroke="black" stroke-width="2" fill="none" />
<polyline points="233.0,439.5,241.0,438.5,249.5,437.5,257.5,436.0,266.0,435.0,274.5,434.0,282.5,433.0,291.0,432.0,299.5,431.0,308.0,431.0,316.5,430.5,324.0,430.0,332.0,430.0,340.0,429.5,348.0,429.5,356.0,429.0,364.0,428.5,372.0,428.5,380.0,428.0,388.5,427.5,396.5,427.0,404.5,426.5,412.5,426.5,420.5,426.0,428.5,425.0,436.5,425.0,444.0,425.0,451.5,425.0,459.0,425.5,467.0,425.5,475.0,425.5,483.0,424.5,491.5,423.5,499.5,422.5,507.5,421.5,515.5,420.5" stroke="black" stroke-width="2" fill="none" />
<polyline points="291.5,370.0,283.0,377.0,275.0,384.5,267.0,392.0,258.5,400.0,250.5,408.0,242.5,415.5,235.0,423.0" stroke="black" stroke-width="2" fill="none" />
<polyline points="233.5,424.0,241.0,423.5,249.0,423.5,257.5,423.5,265.5,423.5,274.0,423.5,282.0,423.0,290.5,422.0" stroke="black" stroke-width="2" fill="none" />
<polyline points="291.5,373.5,283.5,374.0,275.5,374.5,268.0,375.0,259.5,376.0,251.5,376.5" stroke="black" stroke-width="2" fill="none" />
<polyline points="247.5,372.5,241.5,380.5,240.5,388.0,243.5,387.0,244.0,376.0" stroke="black" stroke-width="2" fill="none" />
<polyline points="245.5,378.5,245.0,386.5,239.0,380.5,247.5,371.5" stroke="black" stroke-width="2" fill="none" />
<polyline points="245.0,370.5,240.0,378.5,237.5,386.0,237.5,399.0,237.0,407.5,240.0,398.0" stroke="black" stroke-width="2" fill="none" />
<polyline points="243.0,399.0,239.5,407.0" stroke="black" stroke-width="2" fill="none" />
<polyline points="236.0,408.0,244.0,400.5,252.0,392.5,260.5,384.5,268.5,377.0,276.5,369.5,284.0,362.5,292.0,355.0" stroke="black" stroke-width="2" fill="none" />
<polyline points="283.5,347.0,275.5,354.5,267.5,362.0,259.5,370.0,251.5,378.0,243.5,385.0,235.0,393.0" stroke="black" stroke-width="2" fill="none" />
<polyline points="235.5,397.0,243.5,396.5,251.5,396.0,259.5,395.5,267.5,394.5,275.0,394.5,282.5,394.0,290.0,394.5,297.5,394.0,305.0,393.5,313.0,393.0,321.5,393.0,330.0,392.5,338.0,392.0,346.0,391.5,354.5,391.0,362.5,390.5,370.5,389.5,378.5,388.5,387.0,388.0,394.5,387.5,403.0,386.5,411.0,386.0,418.5,385.0,426.5,384.5,434.0,384.5,441.5,383.5,449.5,383.5,457.5,383.0,465.5,383.0,473.0,382.5,481.5,382.0,490.0,381.5,498.5,381.0,507.0,380.0,515.5,379.0" stroke="black" stroke-width="2" fill="none" />
<polyline points="283.5,338.5,275.5,346.0,267.5,353.5,259.5,361.5,251.5,369.5" stroke="black" stroke-width="2" fill="none" />
<polyline points="242.0,369.0,250.5,361.0,258.5,353.0,267.0,345.0,275.0,337.5" stroke="black" stroke-width="2" fill="none" />
<polyline points="282.5,332.5,275.0,332.5,266.5,333.0,258.5,333.0" stroke="black" stroke-width="2" fill="none" />
<polyline points="258.0,338.5,250.0,346.5,242.0,354.0,234.0,361.5" stroke="black" stroke-width="2" fill="none" />
<polyline points="236.0,360.0,243.5,359.5,251.0,359.5,258.5,359.5,266.0,360.0,274.5,360.0,283.0,359.5,291.5,359.0" stroke="black" stroke-width="2" fill="none" />
<polyline points="285.0,342.0,276.5,343.5,268.0,344.0,260.0,344.5,252.0,345.5,244.0,346.0" stroke="black" stroke-width="2" fill="none" />
<polyline points="243.0,342.5,251.0,342.0,259.5,341.0,267.5,340.0,275.5,339.5,283.5,338.5,291.5,337.5,299.5,337.0,308.0,336.0,317.0,335.0,325.5,334.5" stroke="black" stroke-width="2" fill="none" />
<polyline points="281.5,323.0,274.0,323.0,266.0,323.5,258.0,324.0" stroke="black" stroke-width="2" fill="none" />
<polyline points="251.5,323.0,243.0,331.0" stroke="black" stroke-width="2" fill="none" />
<polyline points="243.0,332.0,251.0,331.0" stroke="black" stroke-width="2" fill="none" />
<polyline points="252.5,329.5,245.0,330.5" stroke="black" stroke-width="2" fill="none" />
<polyline points="244.5,327.5,252.0,327.0" stroke="black" stroke-width="2" fill="none" />
<polyline points="257.5,316.0,266.0,316.0,273.5,316.0" stroke="black" stroke-width="2" fill="none" />
<polyline points="274.5,308.5,265.5,309.0,257.0,309.5" stroke="black" stroke-width="2" fill="none" />
<polyline points="254.0,304.0,256.0,296.0,258.0,306.5,256.5,314.5,256.5,322.5,255.0,330.5" stroke="black" stroke-width="2" fill="none" />
<polyline points="251.5,340.5,243.0,347.5,235.0,355.5" stroke="black" stroke-width="2" fill="none" />
<polyline points="235.5,357.5,244.0,357.0,252.5,356.5,260.5,355.5,269.0,354.5,277.0,353.5,285.0,353.5,292.5,353.5,300.0,353.5,307.5,353.5,315.0,353.5,323.0,353.0,331.5,352.0,339.5,351.0,347.5,350.5,355.5,349.5,363.5,348.5,371.5,348.0,380.0,347.0,389.0,346.0,397.5,345.5,405.5,345.0,413.0,344.5,421.0,344.0,429.0,343.5,437.0,343.0,444.5,343.0,451.5,342.5,459.0,342.0,467.0,341.5,475.0,340.5,482.5,340.5,490.5,340.0,498.0,340.0,506.0,340.5,514.5,340.5" stroke="black" stroke-width="2" fill="none" />
<polyline points="307.5,237.0,300.0,237.0" stroke="black" stroke-width="2" fill="none" />
<polyline points="276.0,283.0,268.5,283.5,260.0,284.0,252.0,284.5" stroke="black" stroke-width="2" fill="none" />
<polyline points="257.5,283.0,249.5,290.5" stroke="black" stroke-width="2" fill="none" />
<polyline points="247.0,288.0,255.0,289.0,263.0,288.0,271.0,289.5,274.0,294.5,273.0,302.5,269.5,309.0,275.0,317.5,276.0,325.5,278.5,333.5,280.5,341.5,285.0,349.5,287.0,358.0,288.0,366.0,290.0,373.5,290.5,382.0,291.5,389.5,291.5,397.5,291.5,405.0,291.5,413.0,290.5,421.0,289.0,429.0,287.5,437.0,286.5,444.5,286.5,452.5,287.0,460.5,289.0,468.5,291.0,477.5,291.0,486.0,298.0,484.0,305.5,484.0,314.0,483.0,322.0,483.0,330.5,482.0,339.0,481.0,347.0,479.5,355.5,479.5,363.5,477.5" stroke="black" stroke-width="2" fill="none" />
<polyline points="292.0,479.0,284.0,479.0,275.5,479.0,268.0,479.0,260.0,479.5,252.5,480.5,245.0,481.0,236.5,481.5,228.0,482.5" stroke="black" stroke-width="2" fill="none" />
<polyline points="228.5,479.0,236.5,478.5,244.0,478.0,252.5,478.0,261.0,477.5,269.5,477.0,277.5,476.0,285.5,475.0,293.0,474.0,301.0,473.5,309.0,473.0,317.0,472.5,324.5,472.5,332.0,471.5,340.5,471.0,348.5,470.0,356.0,470.0,364.0,469.5,371.5,469.0,379.5,468.5,386.5,468.5,395.0,467.5,403.5,467.0,411.5,467.0,419.0,466.5,427.5,466.0,435.5,465.5,443.5,464.5,452.0,464.5,460.0,464.0,468.0,463.5,475.5,463.0,484.0,462.0,492.0,462.0,499.5,461.5,507.5,460.5,515.5,460.0" stroke="black" stroke-width="2" fill="none" />
<polyline points="515.5,411.0,507.0,411.0,499.0,412.0,491.0,412.5,483.5,413.0,475.0,413.5,467.5,414.0,459.5,415.0,451.5,415.0,443.5,415.5,435.5,416.0,427.5,416.5,420.5,417.0,413.0,417.0,405.5,417.5,398.0,418.0,389.5,418.5,381.0,420.0,372.5,421.0,364.5,421.5,356.5,422.5,348.0,423.5,339.5,425.0,331.5,425.5,323.5,426.0,315.5,427.0,307.5,427.0,299.0,427.5,291.0,428.0,283.0,428.0,275.0,428.0,266.5,428.0,258.5,428.0,250.5,428.5,242.5,428.5,234.0,429.0" stroke="black" stroke-width="2" fill="none" />
<polyline points="233.5,421.0,241.5,420.0,249.5,419.5,257.5,418.5,265.0,417.5,273.0,417.0,281.0,417.0,289.0,416.5,297.5,416.0,305.5,415.5,314.0,415.0,322.0,414.5,330.0,414.0,337.5,414.0,346.0,414.0,354.5,413.5,362.5,413.0,370.5,412.0,378.0,411.5,385.5,411.5,394.0,410.5,401.5,410.5,410.0,409.5,418.0,409.0,426.5,408.5,434.5,408.0,442.5,408.0,450.5,408.5,458.0,408.5,466.0,408.5,474.0,408.0,482.0,407.5,490.0,406.5,498.0,405.5,506.0,404.5,514.0,404.0" stroke="black" stroke-width="2" fill="none" />
<polyline points="516.5,396.5,508.5,397.0,501.0,397.5,493.5,398.0,485.5,399.0,477.5,400.0,469.5,400.5,461.5,400.5,453.0,401.5,444.5,401.5,436.0,402.5,428.0,403.0,420.0,403.5,412.5,404.0,405.0,405.5,397.0,406.0,389.0,406.5,380.5,406.0,372.0,406.0,364.0,406.0,355.5,405.5,347.5,406.0,339.0,407.0,330.5,407.5,321.5,408.0,313.0,408.5,305.5,409.0,298.0,410.0,290.0,410.0,282.5,410.5,275.0,411.0,267.5,411.5,259.5,411.5,252.0,411.5,244.0,411.5,236.5,412.0" stroke="black" stroke-width="2" fill="none" />
<polyline points="227.0,411.5,235.0,411.0,244.0,410.5,252.5,410.0,260.5,410.0,268.0,409.5,276.5,408.5,284.5,408.0,292.5,406.5" stroke="black" stroke-width="2" fill="none" />
<polyline points="290.5,397.5,283.0,398.0,275.5,398.0,268.0,398.5,260.5,399.0,253.0,399.5,245.0,400.5,237.5,401.5" stroke="black" stroke-width="2" fill="none" />
<polyline points="230.0,392.5,238.0,392.5,246.0,392.0,254.0,391.5,261.5,391.5,268.5,391.0,276.5,390.5,284.5,390.0,292.5,389.5" stroke="black" stroke-width="2" fill="none" />
<polyline points="242.0,378.5,234.5,386.0,227.0,394.0" stroke="black" stroke-width="2" fill="none" />
<polyline points="227.0,388.5,235.0,388.0,243.5,388.0,251.5,388.0,259.5,387.5,268.0,387.0,276.0,387.0,284.5,386.5,292.5,386.0,300.5,385.0,308.0,385.0,316.0,384.0,323.5,383.5,331.5,382.5,339.0,382.0,347.5,381.5,355.0,381.0,363.0,381.0,371.0,380.5,379.5,379.5,388.0,379.0,395.5,379.0,403.5,378.5,411.5,378.5,419.0,378.0,427.0,377.5,435.0,377.0,443.0,376.5,451.0,375.5,459.5,375.0,467.0,375.0,475.0,374.0,483.0,373.5,490.5,372.5,498.5,371.5,506.0,371.0,514.5,370.5" stroke="black" stroke-width="2" fill="none" />
<polyline points="292.5,382.0,284.0,382.0,276.0,382.5,268.5,383.0,261.0,383.0,253.0,383.5,245.5,384.0,237.5,384.5" stroke="black" stroke-width="2" fill="none" />
<polyline points="237.5,382.0,246.0,381.0,253.5,380.5,262.0,379.5,270.0,379.0,278.0,378.5,285.5,377.5,293.0,377.0,300.5,376.5,307.5,376.0,315.5,375.5,323.5,375.0,332.0,374.0,339.5,373.5,347.5,373.0,355.5,372.5,364.0,372.0,372.5,371.5,381.5,371.5,389.5,371.0,397.5,371.0,405.5,370.5,413.5,370.0,421.5,370.0,429.0,369.5,437.0,369.5,444.5,369.0,452.5,368.5,460.0,367.5,468.0,367.0,476.0,366.0,483.5,365.5,491.0,365.0,499.0,364.5,507.0,364.5,514.5,364.5" stroke="black" stroke-width="2" fill="none" />
<polyline points="315.0,366.5,307.0,367.5,299.0,368.5,291.5,369.5,283.5,370.0,276.0,371.0,268.5,372.0,261.0,372.5,253.0,373.5,244.5,373.5,236.5,373.5" stroke="black" stroke-width="2" fill="none" />
<polyline points="235.0,365.0,243.0,364.0,250.5,364.0,258.0,364.0,266.5,363.5,274.5,363.0,282.5,362.5,290.5,362.5,299.0,362.0,307.5,361.0,315.0,360.0" stroke="black" stroke-width="2" fill="none" />
<polyline points="291.5,349.5,283.5,350.5,275.5,351.5,267.5,352.0,259.5,351.5,252.0,351.5,244.5,352.0,236.5,352.0" stroke="black" stroke-width="2" fill="none" />
<polyline points="235.0,350.5,243.5,349.5,251.5,349.0,260.0,348.5,268.0,348.0,276.0,347.0,284.0,347.0,291.5,346.5,300.0,346.0,308.5,346.0,317.0,345.5,324.5,344.5" stroke="black" stroke-width="2" fill="none" />
<polyline points="284.5,348.0,277.0,326.0" stroke="black" stroke-width="2" fill="none" />
<polyline points="276.0,332.5,272.0,330.5,271.0,322.0,262.0,319.0,267.0,312.0,266.5,304.0,270.5,296.0,271.5,292.0,272.5,289.0,274.5,281.0,271.0,278.5,263.0,279.5,255.0,279.5,247.0,281.5" stroke="black" stroke-width="2" fill="none" />
<polyline points="254.0,278.5,247.5,286.5,248.0,295.0,248.5,303.0,247.0,311.0,246.0,319.0,245.0,327.0,243.0,335.0,239.0,343.0,236.0,351.5,235.0,359.5,233.0,367.5,232.0,375.5,229.5,383.5,229.0,392.0,230.0,400.0,229.0,408.0,230.5,415.5,231.0,423.5,233.0,431.5,234.0,439.5,234.0,447.0,234.5,455.0,231.5,462.5,229.5,470.5,229.5,478.5,229.5,486.0,230.5,494.0,229.5,502.0,232.5,510.0,236.5,509.5,244.5,510.5" stroke="black" stroke-width="2" fill="none" />
<polyline points="226.5,466.0,218.0,467.0,210.0,467.5,202.0,468.5,194.0,469.0,186.0,470.0,178.0,470.5" stroke="black" stroke-width="2" fill="none" />
<polyline points="290.0,472.5,298.5,471.5,306.5,472.0,314.5,472.0,322.5,472.5,330.5,473.0,338.5,473.0,346.5,473.0,355.0,473.5,363.0,473.5,371.0,474.5" stroke="black" stroke-width="2" fill="none" />
<polyline points="225.5,468.0,218.0,468.0,210.0,468.0,202.0,469.0,194.5,468.0,186.5,468.0,178.5,468.0,170.5,471.0,162.5,471.0,154.5,471.0,146.5,470.5,138.5,470.5,130.5,470.5,122.5,470.0,114.0,470.0,106.0,470.0,98.0,469.0,90.0,469.0,82.0,469.0,73.5,469.0,66.0,469.5,58.0,469.5,50.0,470.0,42.5,470.0,34.5,470.5,27.0,469.5,19.0,469.5,11.0,469.5,2.5,469.0" stroke="black" stroke-width="2" fill="none" />
<polyline points="268.5,323.0,275.0,312.5,274.5,304.5" stroke="black" stroke-width="2" fill="none" />
<polyline points="323.0,123.0,331.0,122.5" stroke="black" stroke-width="2" fill="none" />
<polyline points="332.5,108.5,341.0,108.0" stroke="black" stroke-width="2" fill="none" />
<polyline points="330.5,67.0,322.5,67.0" stroke="black" stroke-width="2" fill="none" />
<polyline points="340.5,61.5,348.5,60.5" stroke="black" stroke-width="2" fill="none" />
<polyline points="356.0,62.0,364.0,61.5,372.0,61.0,380.5,60.0,388.5,59.5" stroke="black" stroke-width="2" fill="none" />
<polyline points="355.0,40.5,363.0,39.5,371.5,38.5,379.5,37.5,387.5,36.5,395.5,35.5,403.5,34.0,411.5,32.5,419.0,31.5,427.0,31.0,434.5,30.5,443.0,30.5,451.5,30.0,459.5,29.5,468.0,29.0,475.5,28.5,483.0,28.0,490.5,27.5,498.5,27.0,505.5,26.5,513.0,25.5" stroke="black" stroke-width="2" fill="none" />
<polyline points="513.5,20.5,506.5,21.0,498.5,22.0,491.0,22.5,483.5,22.5,475.5,23.0,468.0,22.5,460.0,23.0,452.5,23.5,444.5,24.0,436.5,24.5,429.0,25.0,421.0,25.5,413.0,26.0,404.5,27.0,396.5,27.5,388.0,28.0,379.5,28.0,371.5,28.0,363.5,28.0" stroke="black" stroke-width="2" fill="none" />
<polyline points="355.5,22.0,364.0,22.0,371.5,21.0,379.5,20.0,387.5,19.5,395.0,19.0,403.0,18.5,411.0,17.5,419.0,17.0,428.0,16.0,436.0,15.5,444.0,15.0,451.5,15.0,459.5,14.5,467.5,14.0,475.5,13.5,483.5,12.5,491.5,12.5,499.5,12.0,508.0,12.5,515.5,12.0" stroke="black" stroke-width="2" fill="none" />
<polyline points="516.0,6.0,508.0,6.5,500.0,6.5,492.0,7.0,484.0,7.5,476.0,8.0,468.5,8.5,460.5,9.0,453.0,9.5,445.0,10.0,437.0,11.0,429.0,11.0,420.5,11.0,412.0,11.0,403.5,10.5,395.5,10.0,387.0,10.0,379.0,11.0,371.0,11.5,363.5,12.0,355.0,12.5" stroke="black" stroke-width="2" fill="none" />
<polyline points="349.0,13.0,341.0,13.5" stroke="black" stroke-width="2" fill="none" />
<polyline points="347.0,20.0,338.5,20.5,330.5,20.5" stroke="black" stroke-width="2" fill="none" />
<polyline points="333.0,11.5,325.0,12.0" stroke="black" stroke-width="2" fill="none" />
<polyline points="333.0,8.0,341.0,7.5,348.5,6.0,356.0,5.5,364.0,5.0,372.0,4.5,380.5,3.5,389.0,3.5,397.5,2.5,405.5,2.5,413.5,2.0,421.5,1.0,429.5,0.0,437.0,-0.5,444.5,-1.0,452.5,-1.5,460.0,-2.5,467.5,-3.0,475.0,-3.5,482.0,-3.5,490.0,-4.0,497.5,-4.5,506.0,-6.0,514.0,-6.5" stroke="black" stroke-width="2" fill="none" />
<polyline points="514.0,34.0,506.0,34.5,498.0,35.0,490.0,36.0,482.0,36.5,474.5,37.0,466.5,37.5,458.5,37.5,450.5,38.0,442.5,38.5,434.0,38.5,426.0,38.0,418.5,38.0,410.5,38.5,403.0,38.5,395.0,39.5,387.0,40.0,379.5,40.5,372.5,41.0,365.0,41.0,357.0,41.5,349.0,42.0,341.0,42.5,333.5,43.0,325.5,43.5" stroke="black" stroke-width="2" fill="none" />
<polyline points="325.5,22.0,317.5,22.0,309.5,22.5" stroke="black" stroke-width="2" fill="none" />
<polyline points="306.5,14.5,315.0,13.5" stroke="black" stroke-width="2" fill="none" />
<polyline points="314.0,7.5,306.0,8.0" stroke="black" stroke-width="2" fill="none" />
<polyline points="284.0,20.5,276.5,21.5" stroke="black" stroke-width="2" fill="none" />
<polyline points="275.5,8.0,283.5,7.0,291.5,6.5" stroke="black" stroke-width="2" fill="none" />
<polyline points="267.0,5.0,259.0,5.5" stroke="black" stroke-width="2" fill="none" />
<polyline points="252.0,15.0,244.0,15.5" stroke="black" stroke-width="2" fill="none" />
<polyline points="276.5,43.5,284.0,43.0" stroke="black" stroke-width="2" fill="none" />
<polyline points="299.0,44.0,307.0,43.5,315.0,43.0" stroke="black" stroke-width="2" fill="none" />
<polyline points="307.5,53.5,299.5,54.0" stroke="black" stroke-width="2" fill="none" />
<polyline points="347.5,28.0,355.5,28.0" stroke="black" stroke-width="2" fill="none" />
<polyline points="402.0,108.5,410.0,107.5" stroke="black" stroke-width="2" fill="none" />
<polyline points="411.5,110.0,403.5,110.0" stroke="black" stroke-width="2" fill="none" />
</svg>