<svg xmlns="http://www.w3.org/2000/svg" version="1.1"><polyline points="407.0,130.5,399.0,138.5,394.0,146.5,385.0,157.0,384.0,158.5,393.5,146.5,401.5,134.5" stroke="black" stroke-width="2" fill="none" />
<polyline points="404.0,140.5,412.5,140.5,420.5,140.5,428.5,140.5" stroke="black" stroke-width="2" fill="none" />
<polyline points="427.0,140.0,419.0,148.0,410.5,156.0,402.5,163.5,395.0,171.0,387.0,178.0,379.0,185.5,370.5,193.0,362.5,200.5,354.5,208.5,346.5,216.5,338.5,224.0,330.5,231.0" stroke="black" stroke-width="2" fill="none" />
<polyline points="345.0,223.5,353.5,216.0,362.0,208.0,370.0,200.0,377.5,192.5,385.0,185.0,393.0,177.5,401.0,170.5,409.0,163.5,417.5,156.0,425.5,149.0" stroke="black" stroke-width="2" fill="none" />
<polyline points="435.0,147.5,427.0,155.0,418.5,162.0,410.5,169.0,403.0,177.0,395.0,184.5,387.0,192.0,378.5,200.0,371.0,208.0,364.0,216.0,356.0,224.0" stroke="black" stroke-width="2" fill="none" />
<polyline points="355.5,232.0,363.5,231.0" stroke="black" stroke-width="2" fill="none" />
<polyline points="363.5,243.0,355.5,250.5,346.5,258.5,338.5,266.0,330.5,273.0,322.5,281.0,314.5,288.0,306.0,295.0,298.0,302.5,290.5,310.5" stroke="black" stroke-width="2" fill="none" />
<polyline points="291.0,313.0,299.0,312.5,307.0,311.5" stroke="black" stroke-width="2" fill="none" />
<polyline points="307.0,315.5,299.5,323.0" stroke="black" stroke-width="2" fill="none" />
<polyline points="302.0,320.0,310.0,319.0" stroke="black" stroke-width="2" fill="none" />
<polyline points="315.0,314.0,322.5,313.0" stroke="black" stroke-width="2" fill="none" />
<polyline points="317.0,314.0,325.0,306.5" stroke="black" stroke-width="2" fill="none" />
<polyline points="331.5,308.5,339.5,301.5" stroke="black" stroke-width="2" fill="none" />
<polyline points="341.0,305.5,332.5,306.0" stroke="black" stroke-width="2" fill="none" />
<polyline points="333.5,303.5,341.0,303.0" stroke="black" stroke-width="2" fill="none" />
<polyline points="346.5,299.0,354.0,292.0" stroke="black" stroke-width="2" fill="none" />
<polyline points="357.0,291.0,349.5,291.5" stroke="black" stroke-width="2" fill="none" />
<polyline points="346.5,297.5,355.0,297.0" stroke="black" stroke-width="2" fill="none" />
<polyline points="363.0,291.0,371.0,283.0,379.0,275.5" stroke="black" stroke-width="2" fill="none" />
<polyline points="371.5,276.0,379.5,276.0,387.0,276.0" stroke="black" stroke-width="2" fill="none" />
<polyline points="387.5,272.0,396.0,272.0,403.5,272.0" stroke="black" stroke-width="2" fill="none" />
<polyline points="396.5,276.0,404.5,268.0,412.5,261.0" stroke="black" stroke-width="2" fill="none" />
<polyline points="410.5,266.0,418.5,258.5,426.5,251.0" stroke="black" stroke-width="2" fill="none" />
<polyline points="420.5,256.0,428.5,255.5,436.5,254.5" stroke="black" stroke-width="2" fill="none" />
<polyline points="436.5,251.0,444.5,250.5,452.0,250.5" stroke="black" stroke-width="2" fill="none" />
<polyline points="453.0,242.0,460.5,241.5" stroke="black" stroke-width="2" fill="none" />
<polyline points="463.5,243.5,471.5,238.5,465.5,242.0,454.5,242.0,439.5,250.0,422.5,258.0,406.5,266.5,391.0,274.5,376.0,282.5,361.5,290.5,346.5,298.0,331.5,306.0,316.5,314.0,299.5,322.5,282.0,330.5,265.0,338.5,250.0,346.5,234.5,354.5,214.5,362.5,191.5,370.5,192.5,367.0,200.5,363.5,208.5,360.5,216.0,357.5,224.0,354.0,232.0,351.0,240.0,347.0,248.0,343.0,256.0,339.0,264.0,334.5,272.0,330.5,279.5,326.5,287.5,323.5,295.5,319.5,303.5,316.0,312.0,312.0,320.0,308.0,328.0,304.0,336.0,299.5,344.5,294.5,352.5,290.0,360.5,285.5,368.5,282.0,376.0,277.0,384.5,272.5,392.0,268.5,400.0,264.5,407.5,260.0,415.5,256.0,423.5,253.5,431.5,248.5,439.5,244.5,448.0,240.0,456.0,235.0,464.0,231.0,472.5,227.5,480.5,223.0" stroke="black" stroke-width="2" fill="none" />
<polyline points="478.0,222.0,466.0,230.5,452.0,238.5,437.0,246.5,422.0,254.0,403.5,262.0,388.0,270.0,372.5,277.5,358.5,285.5,343.5,294.0,328.0,302.0,313.0,310.0,297.0,318.0,279.5,326.0,263.0,334.0,247.0,341.5,231.5,349.5,212.5,357.5,191.0,363.0,199.0,358.0,207.0,355.5,214.5,352.5,222.5,349.0,230.5,344.0,238.0,339.5,245.5,335.5,254.0,331.0,262.0,327.5,270.0,323.5,277.5,320.0,285.5,317.0,293.5,312.5" stroke="black" stroke-width="2" fill="none" />
<polyline points="298.0,310.0,306.0,302.5,314.0,295.0,322.0,288.0,330.5,280.5,339.0,273.5,347.5,266.0,355.5,259.0,364.0,251.5,372.0,244.0" stroke="black" stroke-width="2" fill="none" />
<polyline points="379.5,242.0,387.5,241.5,395.5,241.5,403.5,241.0,411.5,241.0,419.5,240.0,427.0,239.5,434.5,239.5,442.5,239.0" stroke="black" stroke-width="2" fill="none" />
<polyline points="442.5,245.0,435.0,252.0,427.0,259.0" stroke="black" stroke-width="2" fill="none" />
<polyline points="434.5,257.5,426.0,258.0,418.0,258.5" stroke="black" stroke-width="2" fill="none" />
<polyline points="419.0,247.5,427.5,240.0,436.0,233.5,444.0,226.0,452.5,219.0,460.5,212.0,468.5,205.0" stroke="black" stroke-width="2" fill="none" />
<polyline points="468.5,211.5,460.0,219.0,451.5,226.5,443.5,234.0,436.0,242.0" stroke="black" stroke-width="2" fill="none" />
<polyline points="437.5,246.0,445.5,245.5,453.0,245.0" stroke="black" stroke-width="2" fill="none" />
<polyline points="451.0,237.0,459.0,236.5,467.0,236.0" stroke="black" stroke-width="2" fill="none" />
<polyline points="466.5,237.0,475.0,235.5,481.0,224.5,471.0,232.5,477.0,236.5,479.5,244.5,488.0,252.5,489.5,260.0,484.5,268.5,477.0,276.5,465.0,284.5,451.0,292.5,436.5,300.5,421.5,308.5,406.5,316.5,391.5,325.0,376.5,333.0,361.0,341.0,347.0,349.5,331.0,357.5,316.0,365.5,299.0,373.5,283.5,381.5,266.5,389.5,249.5,397.0,231.0,405.0,214.0,413.5,193.5,421.5,173.5,429.5,154.0,437.0,131.0,445.0" stroke="black" stroke-width="2" fill="none" />
<polyline points="103.0,458.0,111.0,454.5,118.5,451.5,126.5,449.5,134.0,446.5,142.0,443.5,150.0,441.5,158.0,438.0,166.0,434.5,174.0,430.5,182.5,427.5,190.5,424.5,198.0,421.5,206.5,418.5,215.0,414.5,223.0,412.0,231.5,407.5,240.0,404.5,248.0,400.5,256.0,397.5,264.0,393.5,272.0,389.5,280.0,385.5,288.0,382.0,296.0,378.0,304.0,374.0,311.5,370.0,312.5,369.0,297.5,377.0" stroke="black" stroke-width="2" fill="none" />
<polyline points="282.5,383.5,266.5,391.5,249.5,399.5,231.5,407.5,212.5,415.5,193.5,424.0,172.5,431.5,152.5,440.0" stroke="black" stroke-width="2" fill="none" />
<polyline points="170.5,432.5,178.0,432.0" stroke="black" stroke-width="2" fill="none" />
<polyline points="172.0,433.0,179.5,425.0" stroke="black" stroke-width="2" fill="none" />
<polyline points="179.5,427.5,171.0,428.0" stroke="black" stroke-width="2" fill="none" />
<polyline points="211.5,421.0,219.5,413.5" stroke="black" stroke-width="2" fill="none" />
<polyline points="219.0,416.5,211.0,417.0" stroke="black" stroke-width="2" fill="none" />
<polyline points="213.0,415.0,221.5,414.5" stroke="black" stroke-width="2" fill="none" />
<polyline points="227.5,444.5,235.5,444.0,243.5,444.0,252.0,443.0,260.0,442.5,268.0,441.5,275.5,441.0,283.5,441.5,291.5,441.0,299.5,440.0,307.5,440.0,315.0,439.5,322.5,438.5,330.5,438.0,338.5,437.5,346.5,437.5,354.5,437.0,362.5,437.0,371.0,436.5,379.5,436.0,387.5,436.0,395.5,435.5,403.5,434.5,411.5,433.5,420.0,432.5,428.5,432.0,437.0,431.0,445.0,431.0,453.5,431.0,461.5,431.0,470.0,430.5,478.0,430.0,485.5,429.5,493.0,429.0,500.0,428.5,507.5,428.5,515.5,428.0" stroke="black" stroke-width="2" fill="none" />
<polyline points="515.0,427.0,507.0,434.5,499.5,442.5,492.0,450.5,484.0,458.0,476.5,466.0,468.5,473.5,461.0,481.0,453.0,488.5,445.0,496.0" stroke="black" stroke-width="2" fill="none" />
<polyline points="468.5,497.5,476.0,489.5,483.5,482.0,491.5,474.0,499.5,466.5,507.0,459.0,515.0,451.5" stroke="black" stroke-width="2" fill="none" />
<polyline points="515.5,459.5,507.5,467.0,500.0,475.0,492.0,482.5,484.0,489.5,476.0,497.0" stroke="black" stroke-width="2" fill="none" />
<polyline points="492.5,499.5,501.0,491.5,509.5,484.0,517.5,476.0" stroke="black" stroke-width="2" fill="none" />
<polyline points="516.5,469.0,508.5,476.5,501.0,483.5,493.0,490.5,484.5,497.5" stroke="black" stroke-width="2" fill="none" />
<polyline points="493.0,488.0,501.0,488.0" stroke="black" stroke-width="2" fill="none" />
<polyline points="499.0,483.0,506.5,482.5,514.5,481.5" stroke="black" stroke-width="2" fill="none" />
<polyline points="517.0,484.0,509.5,491.5" stroke="black" stroke-width="2" fill="none" />
<polyline points="516.0,492.5,508.5,500.5" stroke="black" stroke-width="2" fill="none" />
<polyline points="508.5,507.5,516.5,500.0" stroke="black" stroke-width="2" fill="none" />
<polyline points="508.0,475.0,499.5,475.5" stroke="black" stroke-width="2" fill="none" />
<polyline points="508.0,457.5,516.0,457.5" stroke="black" stroke-width="2" fill="none" />
<polyline points="515.0,443.0,507.0,450.0,498.5,457.5,490.5,465.5,483.0,473.5,475.0,481.5,468.0,489.0,460.5,497.0" stroke="black" stroke-width="2" fill="none" />
<polyline points="460.5,488.0,467.5,480.0,475.0,472.0,483.0,464.5,491.0,457.0,499.0,449.5,507.5,442.0,515.5,435.0" stroke="black" stroke-width="2" fill="none" />
<polyline points="515.5,432.5,507.0,432.5" stroke="black" stroke-width="2" fill="none" />
<polyline points="514.5,419.5,507.0,426.5,499.0,434.0,491.0,441.5,483.0,449.0,474.5,457.0,467.0,464.5,459.5,472.5,451.5,480.5,443.5,488.0" stroke="black" stroke-width="2" fill="none" />
<polyline points="436.0,487.5,443.5,480.5,451.0,473.0,459.0,465.0,466.5,457.5,474.5,450.0,483.0,442.5,491.0,434.5,499.0,426.5,507.0,419.5,515.0,412.0" stroke="black" stroke-width="2" fill="none" />
<polyline points="516.0,405.0,507.5,412.5,499.5,420.0,492.0,427.0,484.0,434.5,476.5,442.0,468.0,449.5,460.0,457.0,452.0,464.5,444.5,472.0,436.5,479.5,428.5,487.0" stroke="black" stroke-width="2" fill="none" />
<polyline points="419.5,483.0,411.0,490.5" stroke="black" stroke-width="2" fill="none" />
<polyline points="419.5,492.5,412.0,499.5" stroke="black" stroke-width="2" fill="none" />
<polyline points="396.0,483.0,404.0,476.0,411.5,469.0,419.5,461.5,427.5,454.0,436.0,446.5,443.5,439.0,451.5,431.0,460.0,423.5,468.0,416.0,475.5,408.5,484.0,401.0,492.5,394.0,500.5,386.0,508.5,378.0,516.5,370.5" stroke="black" stroke-width="2" fill="none" />
<polyline points="518.0,364.0,510.0,372.0,501.5,379.0,492.5,386.0,484.0,393.5,476.0,401.0,468.0,408.5,459.5,416.0,452.0,423.5,444.0,431.0,436.0,438.0,428.0,445.5,419.5,453.0,411.0,460.5" stroke="black" stroke-width="2" fill="none" />
<polyline points="410.5,450.0,418.5,442.0" stroke="black" stroke-width="2" fill="none" />
<polyline points="418.5,445.0,426.5,438.0,434.5,430.5,442.5,422.5,450.5,415.0,459.0,407.0,468.0,399.0,476.0,391.5,484.0,384.0,492.0,376.5,500.0,369.0,508.5,361.0,517.0,354.0" stroke="black" stroke-width="2" fill="none" />
<polyline points="514.0,345.0,506.5,353.0,499.0,361.0,491.0,368.5,483.0,375.5,475.0,382.5,467.0,391.0,459.0,399.0,450.5,407.0,442.0,415.0,434.0,422.5,426.0,430.0" stroke="black" stroke-width="2" fill="none" />
<polyline points="430.0,443.0,437.5,442.5" stroke="black" stroke-width="2" fill="none" />
<polyline points="450.5,447.5,459.0,447.5,467.5,447.0,475.5,446.5,484.0,446.5,492.0,446.5,500.0,446.0,508.0,446.0,516.0,446.0" stroke="black" stroke-width="2" fill="none" />
<polyline points="500.0,455.5,491.5,456.5" stroke="black" stroke-width="2" fill="none" />
<polyline points="484.5,441.5,492.5,441.0,500.5,440.5,508.5,440.0,516.5,439.5" stroke="black" stroke-width="2" fill="none" />
<polyline points="516.0,414.5,507.5,415.0,499.0,416.0,491.0,417.0" stroke="black" stroke-width="2" fill="none" />
<polyline points="482.5,426.0,490.5,425.5,498.0,425.0,506.5,424.5,515.0,424.0" stroke="black" stroke-width="2" fill="none" />
<polyline points="517.5,398.0,509.5,405.5,501.5,412.0,493.5,419.0,485.5,426.5,478.0,434.0,470.0,441.0,461.5,448.5,453.5,456.0,445.5,464.0,438.0,472.0" stroke="black" stroke-width="2" fill="none" />
<polyline points="427.0,459.5,435.0,452.5,443.5,445.0,451.0,438.0,458.5,430.5,466.0,423.5,474.5,416.0,482.5,408.5,491.0,402.0,499.0,394.5,507.5,387.0,515.5,379.5" stroke="black" stroke-width="2" fill="none" />
<polyline points="515.5,387.5,507.5,395.0,499.5,403.0,491.5,410.5,483.5,417.5,476.0,424.5,468.0,432.5,460.0,439.5,452.5,447.0,445.0,454.5" stroke="black" stroke-width="2" fill="none" />
<polyline points="443.0,455.5,451.5,455.5" stroke="black" stroke-width="2" fill="none" />
<polyline points="470.0,460.0,478.0,458.5,486.0,458.0" stroke="black" stroke-width="2" fill="none" />
<polyline points="484.5,431.0,476.5,431.5,469.0,432.5,460.5,433.5" stroke="black" stroke-width="2" fill="none" />
<polyline points="461.5,425.0,469.0,424.5" stroke="black" stroke-width="2" fill="none" />
<polyline points="467.0,416.5,459.0,417.0,450.5,417.5" stroke="black" stroke-width="2" fill="none" />
<polyline points="441.5,407.5,450.0,407.5,458.0,407.0,466.5,407.0" stroke="black" stroke-width="2" fill="none" />
<polyline points="466.5,402.5,475.5,402.0" stroke="black" stroke-width="2" fill="none" />
<polyline points="482.5,400.5,490.5,400.0,498.5,399.5,507.0,399.5,516.0,398.5" stroke="black" stroke-width="2" fill="none" />
<polyline points="514.5,406.5,506.5,406.5,498.5,407.0,490.0,407.0,482.0,407.5" stroke="black" stroke-width="2" fill="none" />
<polyline points="461.5,393.5,469.0,393.0,476.5,392.5,484.5,392.5,492.0,392.0,500.0,391.5,508.0,391.0,516.5,391.0" stroke="black" stroke-width="2" fill="none" />
<polyline points="516.5,340.0,508.5,347.5,500.5,354.5,492.5,362.0,484.0,370.0,476.0,377.0,468.0,384.5,460.5,392.0,452.5,399.0,444.0,406.5,436.0,413.5,428.5,421.5,420.5,429.0,412.0,437.0,403.5,445.0" stroke="black" stroke-width="2" fill="none" />
<polyline points="395.0,437.0,387.0,444.5,379.0,452.0" stroke="black" stroke-width="2" fill="none" />
<polyline points="380.5,444.0,388.0,436.5" stroke="black" stroke-width="2" fill="none" />
<polyline points="396.0,435.5,404.0,428.0,412.5,421.0,420.5,414.0,428.5,407.0,436.5,399.5,444.0,392.0,453.0,384.0,461.0,376.5,468.5,369.0,477.0,362.0,484.5,354.0,492.5,346.5,501.0,339.0,509.5,332.0,517.5,324.0" stroke="black" stroke-width="2" fill="none" />
<polyline points="515.5,330.5,507.5,338.5,500.0,346.5,492.5,354.5,484.5,361.5,477.0,369.0,469.0,376.5,461.5,385.0,453.0,392.5,445.0,399.5,436.5,407.0,428.5,414.5,420.5,422.0,412.0,429.5" stroke="black" stroke-width="2" fill="none" />
<polyline points="412.0,413.0,420.0,406.0,428.0,398.5,435.5,391.0,443.5,383.5,452.0,375.5,460.5,368.0,469.0,360.5,477.5,354.0,485.5,346.5,493.5,338.5,501.0,331.0,508.0,323.0,515.5,315.5" stroke="black" stroke-width="2" fill="none" />
<polyline points="516.0,309.0,508.0,316.0,500.0,323.0,492.0,330.5,484.5,338.0,476.0,346.0,468.5,353.0,459.5,360.5,451.0,368.0,443.0,375.0,434.5,382.0,426.5,389.5,419.5,397.0,411.5,404.5,403.5,412.5" stroke="black" stroke-width="2" fill="none" />
<polyline points="403.5,404.5,411.5,397.5,419.0,390.5,427.0,383.5,434.5,376.5,442.5,369.0,450.5,361.5,458.5,354.0,466.5,346.5,474.5,339.0,482.5,331.0,490.5,323.0,498.0,315.0,506.0,307.5,514.0,300.0" stroke="black" stroke-width="2" fill="none" />
<polyline points="514.5,292.0,506.5,299.5,498.5,307.0,490.5,315.0,482.0,322.5,474.0,330.5,466.5,337.5,458.5,344.5,450.5,352.0,442.0,359.5,433.5,367.0,426.0,374.5,418.5,382.0,410.5,389.5,402.5,396.5,395.0,404.0,387.0,411.5,379.5,418.5,372.0,425.5,364.0,433.0" stroke="black" stroke-width="2" fill="none" />
<polyline points="364.0,423.0,371.5,416.0,379.5,409.0,387.5,402.5,395.5,395.5,404.0,388.0,411.5,380.5" stroke="black" stroke-width="2" fill="none" />
<polyline points="396.5,379.0,388.5,386.5,380.5,394.5" stroke="black" stroke-width="2" fill="none" />
<polyline points="388.0,388.5,396.5,381.0,404.5,373.0,412.5,364.5,420.5,356.5,429.0,349.0,437.5,342.0,445.0,334.0,452.5,326.5,460.5,319.5,468.5,313.0,477.0,306.0,485.0,298.0,492.5,290.0,500.5,282.5,508.0,275.5,516.0,268.5" stroke="black" stroke-width="2" fill="none" />
<polyline points="514.5,277.5,506.5,285.0,498.5,292.0,490.5,299.5,483.0,306.5,475.0,313.5,467.0,321.5,459.0,328.5,451.5,336.0,443.5,343.0,436.0,350.5,427.5,358.5,419.5,366.0" stroke="black" stroke-width="2" fill="none" />
<polyline points="419.5,362.0,427.5,361.5" stroke="black" stroke-width="2" fill="none" />
<polyline points="429.0,353.5,437.0,353.0,445.0,352.5,453.0,352.0" stroke="black" stroke-width="2" fill="none" />
<polyline points="460.5,353.5,468.5,353.5,477.0,353.0,485.0,352.5,492.5,352.0,500.5,351.5,508.5,351.5,516.5,351.5" stroke="black" stroke-width="2" fill="none" />
<polyline points="516.5,311.0,509.0,312.0,501.0,313.0,493.0,314.0,485.0,314.5" stroke="black" stroke-width="2" fill="none" />
<polyline points="467.5,298.5,475.5,297.5,484.0,296.5,492.0,296.0,500.0,295.0,508.0,294.5,516.0,294.5" stroke="black" stroke-width="2" fill="none" />
<polyline points="513.0,284.5,505.0,292.0,497.0,299.5,489.5,307.0,482.0,314.5,474.5,322.0,466.5,329.5,459.0,336.5,451.0,344.5,443.0,352.5,434.5,360.0,426.5,367.5,418.5,375.0,410.5,382.5,403.0,390.0,395.5,397.0" stroke="black" stroke-width="2" fill="none" />
<polyline points="395.5,420.0,387.5,427.5,379.5,434.5" stroke="black" stroke-width="2" fill="none" />
<polyline points="372.0,426.5,380.0,419.5" stroke="black" stroke-width="2" fill="none" />
<polyline points="369.5,403.0,361.5,410.5,354.0,417.5" stroke="black" stroke-width="2" fill="none" />
<polyline points="354.5,401.5,362.0,394.0,369.5,386.0" stroke="black" stroke-width="2" fill="none" />
<polyline points="363.0,393.5,371.5,386.0,379.5,378.0,387.5,370.5,395.5,363.0,403.5,355.5,411.5,348.0,419.5,340.5,427.0,333.0,435.5,326.0,443.5,318.5,452.0,311.5,460.5,304.0,468.5,296.5,476.5,288.5,483.5,280.5,491.0,273.0,499.0,265.5,507.5,258.0,515.5,250.0" stroke="black" stroke-width="2" fill="none" />
<polyline points="514.5,242.0,507.0,250.0,500.0,257.5" stroke="black" stroke-width="2" fill="none" />
<polyline points="500.0,256.0,508.0,254.5,516.0,253.5" stroke="black" stroke-width="2" fill="none" />
<polyline points="517.0,258.5,509.0,266.0,500.5,273.5,492.5,281.0,484.0,288.5,475.5,295.5,468.0,303.5,460.0,311.0,452.0,319.0,444.0,326.0,436.5,333.5,428.0,341.0,420.0,349.0,412.0,356.5,404.5,364.5" stroke="black" stroke-width="2" fill="none" />
<polyline points="404.5,354.5,412.5,354.0" stroke="black" stroke-width="2" fill="none" />
<polyline points="395.0,351.5,403.0,344.0,411.0,337.0,419.5,329.0,427.5,321.5,436.5,313.5,444.5,305.5,452.0,298.0,459.5,290.5" stroke="black" stroke-width="2" fill="none" />
<polyline points="466.0,286.0,474.0,285.5,483.0,285.5,491.0,285.0,499.0,284.0,506.5,284.0,514.5,283.5" stroke="black" stroke-width="2" fill="none" />
<polyline points="507.0,266.0,499.0,266.5" stroke="black" stroke-width="2" fill="none" />
<polyline points="500.0,261.0,507.5,261.0,515.5,260.5" stroke="black" stroke-width="2" fill="none" />
<polyline points="501.0,249.5,509.0,241.5" stroke="black" stroke-width="2" fill="none" />
<polyline points="516.0,243.5,508.0,243.5,499.5,244.0,491.5,244.5" stroke="black" stroke-width="2" fill="none" />
<polyline points="483.0,242.5,491.0,235.5" stroke="black" stroke-width="2" fill="none" />
<polyline points="491.0,240.0,483.5,240.5" stroke="black" stroke-width="2" fill="none" />
<polyline points="483.0,237.0,491.5,236.5,499.5,236.5,507.0,236.0,515.0,235.5" stroke="black" stroke-width="2" fill="none" />
<polyline points="517.0,213.5,509.0,214.0,501.0,215.0" stroke="black" stroke-width="2" fill="none" />
<polyline points="500.5,206.5,508.5,206.0,516.5,206.0" stroke="black" stroke-width="2" fill="none" />
<polyline points="516.0,187.5,508.0,188.0,500.0,188.5" stroke="black" stroke-width="2" fill="none" />
<polyline points="492.0,181.5,500.0,181.5,508.5,181.0,516.5,181.0" stroke="black" stroke-width="2" fill="none" />
<polyline points="515.5,172.0,507.5,172.5" stroke="black" stroke-width="2" fill="none" />
<polyline points="501.0,173.5,493.0,174.0" stroke="black" stroke-width="2" fill="none" />
<polyline points="491.0,166.0,499.5,165.5,508.0,165.0,516.0,164.5" stroke="black" stroke-width="2" fill="none" />
<polyline points="518.0,156.0,510.0,156.0" stroke="black" stroke-width="2" fill="none" />
<polyline points="509.0,149.5,517.0,149.0" stroke="black" stroke-width="2" fill="none" />
<polyline points="514.5,140.0,507.0,140.5,499.5,140.5" stroke="black" stroke-width="2" fill="none" />
<polyline points="501.0,133.5,509.0,133.0,516.0,133.0" stroke="black" stroke-width="2" fill="none" />
<polyline points="516.5,124.5,509.0,125.0,501.0,126.0" stroke="black" stroke-width="2" fill="none" />
<polyline points="491.0,117.5,499.0,117.0,507.5,117.0,515.5,117.0" stroke="black" stroke-width="2" fill="none" />
<polyline points="493.5,126.0,485.5,126.5" stroke="black" stroke-width="2" fill="none" />
<polyline points="485.0,112.0,493.0,111.5,501.0,110.5,509.0,109.5,516.5,108.0" stroke="black" stroke-width="2" fill="none" />
<polyline points="516.5,99.5,508.0,101.0,500.0,101.5,492.5,102.0,484.5,102.0" stroke="black" stroke-width="2" fill="none" />
<polyline points="474.5,117.0,466.5,117.0" stroke="black" stroke-width="2" fill="none" />
<polyline points="468.5,126.5,476.5,126.0" stroke="black" stroke-width="2" fill="none" />
<polyline points="475.5,132.5,467.5,133.0" stroke="black" stroke-width="2" fill="none" />
<polyline points="484.0,142.5,492.0,142.0" stroke="black" stroke-width="2" fill="none" />
<polyline points="489.0,150.0,497.0,149.0" stroke="black" stroke-width="2" fill="none" />
<polyline points="483.0,171.5,474.5,172.0,466.0,173.0" stroke="black" stroke-width="2" fill="none" />
<polyline points="460.0,179.5,452.0,187.5,444.0,195.0,436.0,202.5,428.0,210.0,419.5,217.0,411.5,224.5,403.0,232.0,394.5,239.5,387.0,246.5,379.5,254.5,371.5,262.0,363.0,269.5,355.0,277.0" stroke="black" stroke-width="2" fill="none" />
<polyline points="355.0,282.5,363.5,282.0" stroke="black" stroke-width="2" fill="none" />
<polyline points="365.0,284.5,373.0,284.0" stroke="black" stroke-width="2" fill="none" />
<polyline points="372.0,280.0,380.0,279.5,388.0,279.0" stroke="black" stroke-width="2" fill="none" />
<polyline points="380.5,283.0,388.0,275.5,395.5,268.0" stroke="black" stroke-width="2" fill="none" />
<polyline points="389.5,265.0,397.0,257.0,404.0,249.5,411.5,242.0,419.0,235.0,426.5,227.0,434.0,218.5,442.0,211.0,450.0,203.5,458.0,196.0" stroke="black" stroke-width="2" fill="none" />
<polyline points="459.0,187.5,451.0,195.5,443.0,203.0,435.5,210.5,428.0,217.5,420.5,225.0,412.5,233.0,404.5,240.0,396.0,247.5,388.0,255.0,379.5,262.5,371.5,270.0" stroke="black" stroke-width="2" fill="none" />
<polyline points="386.5,268.0,394.5,267.5,402.5,267.5" stroke="black" stroke-width="2" fill="none" />
<polyline points="404.5,263.0,412.5,263.0,420.0,262.5" stroke="black" stroke-width="2" fill="none" />
<polyline points="420.5,260.0,412.5,260.5,404.5,260.5" stroke="black" stroke-width="2" fill="none" />
<polyline points="403.5,255.0,412.0,247.5,420.0,239.5,428.0,232.5,436.0,225.0,444.0,217.5,452.0,210.0,460.5,202.0,468.5,194.0" stroke="black" stroke-width="2" fill="none" />
<polyline points="484.5,198.0,492.0,197.0,500.0,196.0,507.5,195.5,515.5,194.5" stroke="black" stroke-width="2" fill="none" />
<polyline points="516.5,220.0,508.0,220.5,499.5,221.5,491.5,222.0" stroke="black" stroke-width="2" fill="none" />
<polyline points="484.5,217.5,476.5,218.0,468.5,218.5,460.0,218.5,452.0,219.5,444.5,220.5,436.5,221.5,428.5,222.0,420.5,222.5,412.5,223.5" stroke="black" stroke-width="2" fill="none" />
<polyline points="413.0,227.5,421.5,227.0,429.5,227.0,437.5,226.5,445.0,225.5,452.5,224.5,460.5,224.5,468.5,224.0,476.5,224.0" stroke="black" stroke-width="2" fill="none" />
<polyline points="477.0,227.0,468.5,235.0" stroke="black" stroke-width="2" fill="none" />
<polyline points="464.5,234.5,473.0,234.5" stroke="black" stroke-width="2" fill="none" />
<polyline points="477.0,240.5,485.0,249.5" stroke="black" stroke-width="2" fill="none" />
<polyline points="483.0,251.0,475.5,252.0" stroke="black" stroke-width="2" fill="none" />
<polyline points="492.5,253.5,485.0,236.5" stroke="black" stroke-width="2" fill="none" />
<polyline points="484.0,233.5,488.0,236.5,492.0,244.5,495.0,252.5" stroke="black" stroke-width="2" fill="none" />
<polyline points="491.5,267.0,483.5,274.5" stroke="black" stroke-width="2" fill="none" />
<polyline points="483.0,269.5,491.0,268.5,499.5,268.0,507.0,267.0,514.5,267.0" stroke="black" stroke-width="2" fill="none" />
<polyline points="515.5,270.5,507.0,271.5,499.0,272.5,491.0,273.0" stroke="black" stroke-width="2" fill="none" />
<polyline points="483.5,281.0,491.5,280.5,499.5,280.0,507.5,279.5,515.0,279.0" stroke="black" stroke-width="2" fill="none" />
<polyline points="515.5,287.0,508.0,287.5,500.5,288.5,493.0,289.0,485.5,290.0" stroke="black" stroke-width="2" fill="none" />
<polyline points="474.5,283.0,466.5,291.0,459.5,299.0,452.0,307.0,444.5,315.0,436.5,322.5,428.5,330.0,421.0,337.5,413.0,345.0,404.5,353.0,396.5,360.0,388.5,367.5,381.0,374.5" stroke="black" stroke-width="2" fill="none" />
<polyline points="379.5,371.5,372.0,378.5" stroke="black" stroke-width="2" fill="none" />
<polyline points="362.0,372.0,370.0,365.0,378.5,358.0,386.5,351.0,394.5,344.0,402.5,337.0,410.5,329.5,418.0,322.5,426.0,315.0,434.5,308.0,442.5,300.5" stroke="black" stroke-width="2" fill="none" />
<polyline points="444.0,307.0,452.0,306.5,460.0,306.0,467.5,305.5,476.0,305.5,483.5,304.5,491.5,304.0,499.0,303.5,507.0,302.0,515.0,301.0" stroke="black" stroke-width="2" fill="none" />
<polyline points="516.5,273.0,508.0,274.0,500.0,275.0,491.5,276.0,483.0,277.0,475.0,277.0" stroke="black" stroke-width="2" fill="none" />
<polyline points="475.5,288.5,467.5,288.5" stroke="black" stroke-width="2" fill="none" />
<polyline points="460.0,297.0,451.5,297.5" stroke="black" stroke-width="2" fill="none" />
<polyline points="452.5,295.5,460.5,295.0,468.5,294.5,476.5,293.5,484.0,292.0,491.5,291.0,498.5,289.5,505.5,288.5,513.0,288.0" stroke="black" stroke-width="2" fill="none" />
<polyline points="459.5,236.0,451.0,243.5,443.0,251.0" stroke="black" stroke-width="2" fill="none" />
<polyline points="451.5,234.0,460.0,227.0,468.5,219.5,477.0,212.5" stroke="black" stroke-width="2" fill="none" />
<polyline points="476.0,220.0,468.0,227.5" stroke="black" stroke-width="2" fill="none" />
<polyline points="466.0,229.5,474.0,229.0,482.5,228.5,490.5,228.5,498.5,228.5,507.0,228.5,515.0,228.0" stroke="black" stroke-width="2" fill="none" />
<polyline points="451.5,179.0,444.0,187.0,436.0,194.5,428.0,202.0,419.0,210.0,410.5,217.0" stroke="black" stroke-width="2" fill="none" />
<polyline points="410.5,218.5,418.5,218.0,426.5,217.0,435.0,216.0,443.5,215.5,451.0,215.0,459.5,214.0,467.0,213.0,475.0,212.0" stroke="black" stroke-width="2" fill="none" />
<polyline points="452.0,171.5,444.5,179.0,436.0,186.5,428.5,193.5,420.5,200.5,413.0,208.5" stroke="black" stroke-width="2" fill="none" />
<polyline points="411.5,206.0,419.5,205.5,427.5,204.5,436.0,204.0,444.0,203.0,452.5,202.0,460.0,201.5,467.5,200.5" stroke="black" stroke-width="2" fill="none" />
<polyline points="451.0,162.5,443.5,170.0,435.5,177.5,427.5,185.5,419.5,193.5,411.5,201.0" stroke="black" stroke-width="2" fill="none" />
<polyline points="411.0,201.0,408.5,209.5,398.5,210.5,405.0,211.5" stroke="black" stroke-width="2" fill="none" />
<polyline points="409.5,212.0,418.0,211.5,426.5,210.0,435.0,209.0,443.5,208.5,452.0,207.5,460.5,206.5,469.0,206.0" stroke="black" stroke-width="2" fill="none" />
<polyline points="445.0,165.5,437.0,173.5,428.5,180.5,421.0,187.5,413.0,194.0,405.0,201.0,397.0,208.5" stroke="black" stroke-width="2" fill="none" />
<polyline points="401.5,201.5,393.5,202.0,385.5,202.5,377.5,202.5,369.5,202.5,361.5,202.0,353.5,202.0,345.5,202.5,337.0,202.5,329.0,202.5,321.0,203.0,313.0,203.0,305.5,204.0,297.5,204.5,289.5,205.5,281.0,207.0,273.5,208.0,265.5,208.5,258.0,208.5,250.5,209.0,243.5,209.5,235.5,210.0" stroke="black" stroke-width="2" fill="none" />
<polyline points="234.5,206.5,242.5,205.5,251.0,205.5,259.0,205.0,267.5,204.5,276.0,204.0,283.5,203.5,291.0,203.0,299.0,202.5,306.5,202.0,314.5,201.5,322.5,200.5,330.0,199.5,338.0,199.0,346.5,198.5,354.5,198.5,363.0,198.5,371.0,198.5,379.0,198.5,387.0,198.5,395.5,198.0,403.5,197.0" stroke="black" stroke-width="2" fill="none" />
<polyline points="410.0,214.5,418.5,214.5,426.5,214.0,435.0,213.5,443.0,213.0,451.0,212.0,459.5,211.5,467.5,210.5,476.0,209.5" stroke="black" stroke-width="2" fill="none" />
<polyline points="443.5,157.5,435.5,165.0,427.5,172.0,419.5,179.0,412.0,186.5,404.0,193.5,396.5,201.0,389.0,208.5,381.5,216.0" stroke="black" stroke-width="2" fill="none" />
<polyline points="372.5,215.5,380.5,208.0,388.5,201.0,396.5,194.0,404.5,186.5,412.5,179.0,420.5,172.0,428.0,165.0,436.0,158.0" stroke="black" stroke-width="2" fill="none" />
<polyline points="420.0,139.5,411.5,147.5,403.5,155.0,395.5,162.0,387.5,169.0,379.5,175.5,371.5,183.0,364.0,190.5,356.0,198.0,347.0,206.0,338.5,213.0,331.0,221.0,324.0,228.5" stroke="black" stroke-width="2" fill="none" />
<polyline points="314.5,232.0,322.5,224.0,330.5,216.5,338.5,209.0,346.5,201.5,354.0,194.5,362.5,187.5,371.0,181.0,379.0,173.5" stroke="black" stroke-width="2" fill="none" />
<polyline points="370.5,172.5,378.5,172.0,386.5,172.5,394.5,172.5,402.5,173.0,410.5,172.5,418.5,172.0,426.5,171.5,434.5,171.0,442.5,170.0,450.0,169.5" stroke="black" stroke-width="2" fill="none" />
<polyline points="419.0,137.0,411.0,137.5" stroke="black" stroke-width="2" fill="none" />
<polyline points="412.5,134.5,420.5,133.5" stroke="black" stroke-width="2" fill="none" />
<polyline points="419.5,133.5,426.5,141.5,435.5,149.5,439.5,157.5,444.0,162.0,449.0,170.0,453.0,178.5,457.0,186.5,460.5,194.5,465.0,202.5,469.0,210.5,472.0,218.5,464.0,226.5,448.5,234.0,434.5,241.5,417.5,249.5,411.5,252.5,395.5,260.0,381.5,268.5,365.5,276.5,350.0,284.5,335.0,292.5,320.5,300.0,304.5,308.0,289.0,316.0,272.5,323.5,254.5,331.5,238.5,339.0,224.5,347.0,203.5,354.5,190.5,363.0,187.5,374.5,187.5,383.0,187.5,391.0,186.0,399.0" stroke="black" stroke-width="2" fill="none" />
<polyline points="182.0,396.5,182.0,388.5,183.5,380.5,186.0,372.0,189.0,364.0,191.0,355.5,191.0,347.5,192.0,340.0,192.5,332.0,193.0,324.0,194.5,316.5,198.0,308.5,199.0,300.5,211.5,298.0,218.5,290.0,225.5,282.5,233.0,274.5,241.0,266.5,248.5,258.5,257.0,250.5,268.5,242.5,269.5,241.5,261.5,246.5,253.5,254.5,245.5,262.5,237.5,271.0,229.5,280.5,221.5,289.0,213.0,298.0,205.0,304.5,192.0,312.0,184.5,316.5,176.5,320.5,168.5,326.5,180.5,318.5,194.0,310.5,196.0,302.5,198.0,294.5,200.5,286.5,201.5,278.5,203.5,270.5,211.5,265.5,215.5,258.0,218.5,250.0,219.0,242.5,219.0,240.5" stroke="black" stroke-width="2" fill="none" />
<polyline points="220.0,241.0,220.0,248.5" stroke="black" stroke-width="2" fill="none" />
<polyline points="220.0,242.5,228.0,242.0,236.0,241.0,243.5,240.5,251.0,241.0,259.0,240.5,267.0,240.5,275.5,239.5" stroke="black" stroke-width="2" fill="none" />
<polyline points="282.5,233.5,290.0,225.5,297.5,217.5,305.5,209.5,314.0,202.5,322.0,195.0" stroke="black" stroke-width="2" fill="none" />
<polyline points="318.0,197.0,309.5,205.0,301.0,212.5,293.0,219.5,285.0,226.0,277.0,233.0,268.5,240.0" stroke="black" stroke-width="2" fill="none" />
<polyline points="260.5,247.0,252.5,247.5,244.5,248.5,236.5,249.5,228.0,250.0" stroke="black" stroke-width="2" fill="none" />
<polyline points="227.5,246.0,235.5,245.5,243.5,245.0,251.5,245.0,259.5,244.5" stroke="black" stroke-width="2" fill="none" />
<polyline points="252.0,251.5,244.0,252.5,236.5,253.5,228.5,254.0,221.0,254.5" stroke="black" stroke-width="2" fill="none" />
<polyline points="220.0,258.0,228.0,257.5,235.5,257.0,243.5,256.0,252.0,255.0" stroke="black" stroke-width="2" fill="none" />
<polyline points="267.5,262.0,276.0,261.0,284.5,260.0,292.5,259.5,300.5,259.0,309.0,258.5,317.0,258.0,325.0,258.0,332.5,258.0,340.5,257.5,348.5,257.0,357.0,256.5,364.5,256.0,372.5,255.5,380.5,254.5,388.0,253.5,395.5,253.0" stroke="black" stroke-width="2" fill="none" />
<polyline points="388.0,234.0,379.5,241.5,371.5,249.5,364.0,257.5,356.5,265.5,348.5,273.0,340.0,280.5,332.0,288.5,324.0,296.0" stroke="black" stroke-width="2" fill="none" />
<polyline points="323.0,310.5,315.0,311.0" stroke="black" stroke-width="2" fill="none" />
<polyline points="308.5,316.0,300.5,316.0" stroke="black" stroke-width="2" fill="none" />
<polyline points="292.5,323.5,285.0,330.5" stroke="black" stroke-width="2" fill="none" />
<polyline points="282.5,330.5,290.5,329.5" stroke="black" stroke-width="2" fill="none" />
<polyline points="292.0,327.0,284.0,327.0" stroke="black" stroke-width="2" fill="none" />
<polyline points="276.5,330.5,268.0,337.5" stroke="black" stroke-width="2" fill="none" />
<polyline points="266.0,337.0,274.0,336.5" stroke="black" stroke-width="2" fill="none" />
<polyline points="273.0,332.0,265.0,332.5" stroke="black" stroke-width="2" fill="none" />
<polyline points="262.0,325.5,269.5,318.0,277.0,311.0,284.0,304.5,291.0,297.5,298.5,290.0,306.5,283.0,314.0,276.0,322.0,268.5,330.5,261.5,338.0,254.0" stroke="black" stroke-width="2" fill="none" />
<polyline points="331.0,252.0,323.0,259.5,315.0,267.0,307.0,274.5,299.5,281.5,292.0,289.5,284.0,297.0,276.5,304.5,269.0,312.0,260.5,319.5,252.5,327.0,245.0,334.5" stroke="black" stroke-width="2" fill="none" />
<polyline points="252.0,344.0,259.5,343.5" stroke="black" stroke-width="2" fill="none" />
<polyline points="261.0,340.0,253.0,347.5" stroke="black" stroke-width="2" fill="none" />
<polyline points="257.0,347.5,249.0,348.0" stroke="black" stroke-width="2" fill="none" />
<polyline points="243.0,346.5,235.0,354.0" stroke="black" stroke-width="2" fill="none" />
<polyline points="233.0,355.5,241.0,355.0" stroke="black" stroke-width="2" fill="none" />
<polyline points="243.0,349.5,235.0,350.0" stroke="black" stroke-width="2" fill="none" />
<polyline points="229.0,346.5,238.0,339.5,246.5,332.0,254.5,324.5,262.0,317.0" stroke="black" stroke-width="2" fill="none" />
<polyline points="266.0,314.0,274.0,313.0" stroke="black" stroke-width="2" fill="none" />
<polyline points="266.5,313.5,274.5,313.5,282.0,313.0" stroke="black" stroke-width="2" fill="none" />
<polyline points="275.0,320.5,283.0,313.0,290.5,305.5,298.5,297.5,306.0,290.0,314.0,282.5,322.0,275.0,330.0,267.5,338.5,259.5,346.5,252.5" stroke="black" stroke-width="2" fill="none" />
<polyline points="353.5,248.0,361.5,247.5,369.5,247.0,378.0,246.5,386.5,245.0,395.0,243.5,403.5,242.5,412.0,241.5,420.5,240.0,428.5,238.5" stroke="black" stroke-width="2" fill="none" />
<polyline points="406.0,226.5,397.5,234.0,389.0,241.5,381.0,249.5,372.5,258.0,364.5,266.0,356.5,273.5,349.0,280.5,341.0,288.0" stroke="black" stroke-width="2" fill="none" />
<polyline points="364.5,289.0,372.0,288.0" stroke="black" stroke-width="2" fill="none" />
<polyline points="387.5,325.5,395.5,325.0,404.0,324.5,412.0,324.5,420.0,324.5,427.5,324.5,436.0,324.0,444.5,323.5,452.5,323.0,460.5,322.5,468.5,322.0,476.5,321.5,484.0,321.5,492.0,320.5,499.0,319.5,507.0,318.5,515.0,317.0" stroke="black" stroke-width="2" fill="none" />
<polyline points="516.0,358.0,508.5,358.5,500.0,359.5,492.0,360.0,483.5,361.0,475.0,361.5,467.0,362.5" stroke="black" stroke-width="2" fill="none" />
<polyline points="461.0,370.5,469.0,370.0,477.0,369.5,484.5,369.0,492.0,368.0,500.0,367.5,508.5,367.5,516.5,367.0" stroke="black" stroke-width="2" fill="none" />
<polyline points="515.0,373.5,507.5,374.0,499.5,374.5,491.5,375.0,483.5,376.0,475.5,376.0,467.0,376.0,458.5,376.5,450.5,376.5" stroke="black" stroke-width="2" fill="none" />
<polyline points="444.5,376.0,436.5,377.0" stroke="black" stroke-width="2" fill="none" />
<polyline points="436.0,385.0,444.0,385.0,452.5,385.5,460.5,385.0,468.5,384.5,476.0,384.5,484.0,384.0,492.5,384.0,500.5,383.5,508.5,383.0,516.5,382.5" stroke="black" stroke-width="2" fill="none" />
<polyline points="450.0,400.0,442.0,400.5" stroke="black" stroke-width="2" fill="none" />
<polyline points="442.5,394.0,450.5,393.5" stroke="black" stroke-width="2" fill="none" />
<polyline points="436.5,401.5,428.0,402.0" stroke="black" stroke-width="2" fill="none" />
<polyline points="429.0,370.5,437.0,370.0,444.5,368.5" stroke="black" stroke-width="2" fill="none" />
<polyline points="442.0,361.5,450.0,360.5,458.0,360.0" stroke="black" stroke-width="2" fill="none" />
<polyline points="441.5,342.5,449.5,342.0,457.5,342.5,466.0,342.5,474.0,342.0,482.0,342.0,490.0,341.0,498.0,341.0,506.0,340.5,514.0,340.0" stroke="black" stroke-width="2" fill="none" />
<polyline points="515.5,332.5,507.5,333.0,499.5,333.5,492.0,334.5,484.0,334.5,475.5,335.5,467.5,336.5,459.0,337.0,450.5,338.0,442.0,339.0" stroke="black" stroke-width="2" fill="none" />
<polyline points="444.5,331.5,452.5,331.0,460.0,330.0,468.5,329.5,476.5,328.5,484.5,328.0,492.5,327.5,500.5,327.0,508.5,326.5,517.0,326.0" stroke="black" stroke-width="2" fill="none" />
<polyline points="516.0,316.5,508.0,317.0,500.5,317.5,492.5,318.0,484.5,318.5,476.5,319.0,468.0,319.0,460.0,319.0,452.5,319.5,444.5,320.0,436.0,321.0" stroke="black" stroke-width="2" fill="none" />
<polyline points="428.5,313.5,436.0,312.5,443.5,312.0,451.5,312.0,459.0,312.0,466.5,311.5,475.0,310.5" stroke="black" stroke-width="2" fill="none" />
<polyline points="436.0,303.0,444.0,302.5,452.0,302.0,460.0,301.5,468.5,300.0,476.5,299.0,484.5,298.0,492.5,297.0,500.5,296.0,508.5,295.5,516.5,294.5" stroke="black" stroke-width="2" fill="none" />
<polyline points="426.5,306.0,418.5,313.5,410.5,321.5" stroke="black" stroke-width="2" fill="none" />
<polyline points="405.0,323.0,397.0,331.0,389.0,339.0,381.0,347.0,372.0,354.5" stroke="black" stroke-width="2" fill="none" />
<polyline points="363.0,353.5,371.5,346.0,379.0,338.0,387.0,330.5" stroke="black" stroke-width="2" fill="none" />
<polyline points="380.0,334.5,388.0,334.0,395.5,333.5,403.5,332.5,411.5,332.0,419.5,331.5,428.0,331.0,436.0,330.0,444.0,329.5,452.5,329.0,460.5,328.5,468.0,327.5,475.5,327.0,483.5,327.0,491.0,327.0,498.5,326.5,507.0,325.5,515.5,324.5" stroke="black" stroke-width="2" fill="none" />
<polyline points="436.5,336.0,428.0,336.5" stroke="black" stroke-width="2" fill="none" />
<polyline points="403.5,334.0,396.0,341.5" stroke="black" stroke-width="2" fill="none" />
<polyline points="388.0,347.0,380.0,354.5,371.5,362.0,363.5,369.5" stroke="black" stroke-width="2" fill="none" />
<polyline points="356.0,370.5,348.0,378.0,339.5,386.0" stroke="black" stroke-width="2" fill="none" />
<polyline points="348.0,395.0,356.0,387.0" stroke="black" stroke-width="2" fill="none" />
<polyline points="348.0,370.0,356.0,362.5" stroke="black" stroke-width="2" fill="none" />
<polyline points="347.5,350.0,355.5,349.5,363.5,348.5,371.5,347.5,380.0,346.5,388.5,346.0,397.0,345.0,405.0,345.0,413.5,345.0,421.5,345.0,430.0,344.5,438.0,344.0,445.5,343.5,453.0,343.0,460.0,342.5,467.5,342.5,475.5,342.0,484.0,341.5,492.0,341.5,500.0,341.0,508.0,341.0,516.0,340.0" stroke="black" stroke-width="2" fill="none" />
<polyline points="515.0,303.5,507.0,304.0,498.5,304.5,491.0,305.0,482.5,305.0,474.5,305.5,466.5,306.0,458.5,307.0,451.0,307.5,443.5,308.5,435.5,309.0,428.0,309.5,420.0,310.0" stroke="black" stroke-width="2" fill="none" />
<polyline points="405.0,317.5,413.0,316.5,420.5,316.0,428.5,315.5,436.5,315.0,444.0,315.0,451.5,314.5,459.0,314.0,466.5,313.5,474.0,312.5,482.0,312.5,490.0,311.5,498.0,311.0,506.0,310.5,513.5,310.0" stroke="black" stroke-width="2" fill="none" />
<polyline points="460.5,230.0,452.5,230.0,444.5,229.5,436.0,230.0,428.0,230.0,420.0,230.5,412.0,230.5,403.5,231.0,395.5,231.5" stroke="black" stroke-width="2" fill="none" />
<polyline points="395.0,229.0,403.0,228.5,411.5,228.5,420.0,228.5,428.5,228.0,436.5,227.5,444.5,226.5,452.5,226.0,460.5,225.0" stroke="black" stroke-width="2" fill="none" />
<polyline points="443.5,234.5,435.5,235.5,427.0,236.0,418.5,236.5,411.0,237.0,403.0,236.5,394.5,236.5,386.5,236.5,378.0,236.5" stroke="black" stroke-width="2" fill="none" />
<polyline points="368.5,240.0,388.0,232.0,383.0,220.5,379.0,214.5,396.0,206.5,411.5,199.5,404.0,203.5,396.5,206.5,389.0,210.5,381.5,215.0,373.5,219.0,365.0,222.0,356.5,224.5,348.5,228.0,340.5,230.0,332.0,232.0,324.5,234.0,316.5,234.0,309.0,235.5,300.5,235.5,292.5,235.5,284.5,237.5,276.5,236.5,268.0,234.5,260.0,232.5,251.5,231.5" stroke="black" stroke-width="2" fill="none" />
<polyline points="255.5,234.0,263.5,236.0" stroke="black" stroke-width="2" fill="none" />
<polyline points="283.5,232.5,292.0,232.0,300.0,232.0,308.0,231.5,315.5,231.0,323.5,230.5,331.0,230.5,338.5,230.5" stroke="black" stroke-width="2" fill="none" />
<polyline points="341.0,224.0,332.5,224.5,324.0,225.5,316.0,226.0,308.0,226.0,300.5,226.0,292.0,227.0,284.0,228.0,276.0,228.5,268.0,229.0,260.0,229.5,252.5,230.0,245.0,230.0,237.5,230.0,229.5,230.0,222.0,230.5" stroke="black" stroke-width="2" fill="none" />
<polyline points="220.5,234.5,228.0,234.0,236.0,234.0,243.5,234.0,251.0,234.0,259.0,233.5,267.0,233.0,275.0,232.5" stroke="black" stroke-width="2" fill="none" />
<polyline points="299.0,233.0,306.5,225.5,314.5,218.0,322.5,210.0,330.0,202.0,337.5,194.5,345.0,186.5" stroke="black" stroke-width="2" fill="none" />
<polyline points="340.5,189.5,348.0,189.0,355.5,188.5,363.5,187.5,371.0,187.0,379.5,186.5,387.0,186.5,395.5,186.5,403.5,187.0,411.5,187.0,419.5,186.5,427.0,185.5,435.5,185.0,443.5,184.0,451.5,183.0,459.5,182.0" stroke="black" stroke-width="2" fill="none" />
<polyline points="436.0,152.5,427.0,153.5,419.0,153.5,411.0,153.5,403.0,153.5" stroke="black" stroke-width="2" fill="none" />
<polyline points="403.5,150.5,412.0,150.0,420.5,149.0,429.0,148.5,437.0,148.0" stroke="black" stroke-width="2" fill="none" />
<polyline points="419.0,133.0,411.0,140.5,403.5,147.5" stroke="black" stroke-width="2" fill="none" />
<polyline points="406.0,145.5,414.0,145.0,421.5,144.5,429.0,144.0" stroke="black" stroke-width="2" fill="none" />
<polyline points="443.0,158.5,435.0,159.5,426.5,160.5,419.0,160.5,411.5,161.0,403.5,162.0,396.0,162.5" stroke="black" stroke-width="2" fill="none" />
<polyline points="387.5,166.0,395.5,165.5,403.5,165.5,411.5,165.0,419.5,164.0,427.5,163.5,435.5,163.0,444.0,162.5,452.5,162.0" stroke="black" stroke-width="2" fill="none" />
<polyline points="452.5,166.0,444.5,166.5,436.5,167.5,428.0,168.0,420.0,168.0,411.5,168.0,403.5,168.0,396.0,168.0,388.0,169.0" stroke="black" stroke-width="2" fill="none" />
<polyline points="386.5,158.0,394.5,157.5,403.5,156.5,411.5,156.0,419.5,155.5,428.0,155.5,436.0,154.5,444.0,153.5" stroke="black" stroke-width="2" fill="none" />
<polyline points="450.5,173.5,442.5,174.0,435.0,174.0,427.5,174.0,420.0,174.5,412.0,175.0,403.5,175.0,395.0,175.0,387.0,175.5,378.5,176.5,370.0,177.5" stroke="black" stroke-width="2" fill="none" />
<polyline points="364.0,178.5,355.5,186.0,347.0,193.5,339.0,201.0,330.5,208.5,322.5,216.0,314.5,224.5,306.5,232.5" stroke="black" stroke-width="2" fill="none" />
<polyline points="291.0,233.5,299.0,225.5,307.5,218.0,315.5,210.5,323.0,202.5,330.5,195.0" stroke="black" stroke-width="2" fill="none" />
<polyline points="338.0,194.5,346.0,194.0,354.0,193.5,361.5,193.0,369.5,192.5,377.0,192.5,385.5,192.0,394.5,191.0,403.0,190.0,411.5,190.0,420.0,189.5,427.5,189.0,435.5,188.0,443.0,187.5,450.5,187.5,459.0,186.5" stroke="black" stroke-width="2" fill="none" />
<polyline points="428.5,244.5,421.0,244.5,412.5,245.5,403.5,246.0,395.5,247.0,387.0,247.5,379.0,248.0,370.5,248.5,363.0,249.5,355.0,250.0" stroke="black" stroke-width="2" fill="none" />
<polyline points="348.0,243.5,340.0,245.5" stroke="black" stroke-width="2" fill="none" />
<polyline points="323.0,250.0,315.0,257.5,307.5,265.0,300.0,273.0,292.5,280.5,285.0,288.0,277.5,296.0,269.0,304.5" stroke="black" stroke-width="2" fill="none" />
<polyline points="273.0,308.5,265.0,309.5" stroke="black" stroke-width="2" fill="none" />
<polyline points="260.5,306.0,268.5,305.5,276.5,305.0,284.0,304.0,292.0,303.5,300.0,303.0,308.5,303.0,316.5,303.0" stroke="black" stroke-width="2" fill="none" />
<polyline points="307.0,260.5,315.5,259.5,324.0,258.5,332.0,257.5,340.0,257.0,348.0,256.0,355.5,255.5,363.5,254.5,371.0,253.5,378.5,252.5,386.0,252.5,394.5,251.5,403.0,250.5,411.0,250.0" stroke="black" stroke-width="2" fill="none" />
<polyline points="410.5,247.5,402.5,247.5,394.5,247.0,386.5,247.5,378.5,248.0,371.0,249.0,363.0,250.0,355.5,251.0,348.5,251.5,340.5,252.0,332.5,252.0,324.5,252.0,316.0,252.5,307.5,253.0" stroke="black" stroke-width="2" fill="none" />
<polyline points="315.0,252.0,307.0,259.5,299.5,266.5,291.5,274.0,283.5,281.0,275.5,289.0,267.5,296.5,259.5,304.5,252.0,312.0,244.0,319.0,236.0,326.0,228.0,333.5,219.5,341.0,211.5,348.5" stroke="black" stroke-width="2" fill="none" />
<polyline points="210.0,357.0,218.5,356.0,226.5,355.5" stroke="black" stroke-width="2" fill="none" />
<polyline points="227.0,355.0,218.5,363.0" stroke="black" stroke-width="2" fill="none" />
<polyline points="218.5,358.0,210.0,365.5" stroke="black" stroke-width="2" fill="none" />
<polyline points="212.0,361.5,220.0,361.0,228.0,360.5" stroke="black" stroke-width="2" fill="none" />
<polyline points="202.0,364.5,194.5,372.0" stroke="black" stroke-width="2" fill="none" />
<polyline points="189.0,371.0,197.0,369.0,205.0,366.0,213.0,363.5,221.5,360.5,230.0,357.5,237.5,354.0,245.0,350.0,253.0,346.0,261.0,342.0,269.0,337.5,277.0,333.5,285.0,329.5,293.0,326.5,300.5,322.0,308.5,317.5,316.0,313.5,323.5,309.0,331.0,305.0,338.5,299.5,347.0,295.5,354.5,291.5,363.0,287.0,371.5,283.0,380.0,278.0,388.0,274.0,396.0,271.0,404.0,267.5,412.0,263.5,420.5,259.5,428.0,256.5,436.0,252.5,443.5,248.5,451.0,243.5,459.0,239.5,466.5,234.0,474.5,228.5,482.5,232.0,484.0,239.5,487.5,247.5,492.5,255.0,494.5,263.5,487.5,270.5,485.5,273.0,489.0,267.0,494.0,265.0" stroke="black" stroke-width="2" fill="none" />
<polyline points="516.5,331.0,509.0,332.0,501.0,333.0,492.5,333.5,484.0,334.5,475.5,335.5,467.0,336.0,458.5,337.0,450.0,338.5,441.5,339.0,434.0,339.0,426.0,339.0,418.5,339.0,410.0,339.5,401.5,339.5,393.5,340.0,386.0,340.0,378.5,340.5,370.5,341.0,363.0,342.0" stroke="black" stroke-width="2" fill="none" />
<polyline points="364.0,346.0,372.0,338.5" stroke="black" stroke-width="2" fill="none" />
<polyline points="387.5,355.5,395.0,354.5" stroke="black" stroke-width="2" fill="none" />
<polyline points="333.5,357.5,341.0,357.0,349.0,356.5,357.0,356.0,365.5,355.0,373.0,354.5,380.5,353.5,388.0,353.0,395.5,352.0,404.0,351.5,411.5,351.0,420.0,351.0,427.5,351.0,435.5,351.0,444.0,351.0,452.5,350.5,460.5,350.0,469.0,349.5,477.5,349.0,485.5,349.0,493.5,348.0,501.5,347.5,509.0,347.0,516.5,346.0" stroke="black" stroke-width="2" fill="none" />
<polyline points="396.5,460.0,389.0,467.5" stroke="black" stroke-width="2" fill="none" />
<polyline points="404.0,476.0,396.0,483.5" stroke="black" stroke-width="2" fill="none" />
<polyline points="357.0,473.5,349.0,481.5" stroke="black" stroke-width="2" fill="none" />
<polyline points="353.0,459.5,361.0,452.5,369.5,445.0" stroke="black" stroke-width="2" fill="none" />
<polyline points="338.0,444.5,330.0,451.5" stroke="black" stroke-width="2" fill="none" />
<polyline points="330.0,444.0,338.0,436.5" stroke="black" stroke-width="2" fill="none" />
<polyline points="330.5,411.0,338.5,403.0" stroke="black" stroke-width="2" fill="none" />
<polyline points="323.5,394.5,315.5,402.0" stroke="black" stroke-width="2" fill="none" />
<polyline points="315.0,390.0,323.0,389.5,331.5,389.0,339.5,388.5,348.0,388.0,355.5,387.5,363.5,387.0,371.0,386.0,379.0,385.0,387.0,384.0,395.5,383.0,403.5,382.5,411.0,382.5,419.0,382.5,427.5,382.5,435.5,382.5,443.5,382.5,451.0,382.0,459.0,381.5,466.0,380.5,474.0,380.5,482.0,380.0,490.5,379.5,499.0,378.5,507.0,378.0,515.5,377.5" stroke="black" stroke-width="2" fill="none" />
<polyline points="476.0,522.5,468.0,523.0,460.0,523.5" stroke="black" stroke-width="2" fill="none" />
<polyline points="444.5,533.0,437.0,533.5" stroke="black" stroke-width="2" fill="none" />
<polyline points="386.0,550.5,378.0,551.0" stroke="black" stroke-width="2" fill="none" />
<polyline points="379.5,555.5,371.5,556.0" stroke="black" stroke-width="2" fill="none" />
<polyline points="364.5,550.0,356.0,550.5" stroke="black" stroke-width="2" fill="none" />
<polyline points="370.5,539.5,379.0,539.5,387.0,539.0,395.5,539.0,403.5,539.0,411.5,539.0" stroke="black" stroke-width="2" fill="none" />
<polyline points="363.5,540.0,355.0,540.5,347.0,541.5,338.0,542.5" stroke="black" stroke-width="2" fill="none" />
<polyline points="333.0,532.5,341.0,532.0,349.0,531.5,357.0,531.0,365.5,530.5,373.5,530.5,381.0,530.0,388.5,529.5,396.0,529.5,403.5,529.0,411.5,528.5,419.5,528.0,428.0,527.5" stroke="black" stroke-width="2" fill="none" />
<polyline points="333.5,543.5,325.0,544.0" stroke="black" stroke-width="2" fill="none" />
<polyline points="324.5,533.0,317.0,533.5" stroke="black" stroke-width="2" fill="none" />
<polyline points="318.0,558.5,325.5,558.0,333.0,557.0" stroke="black" stroke-width="2" fill="none" />
<polyline points="289.0,564.0,281.0,564.0" stroke="black" stroke-width="2" fill="none" />
<polyline points="260.5,565.5,252.5,565.5" stroke="black" stroke-width="2" fill="none" />
<polyline points="211.0,517.0,218.5,510.0" stroke="black" stroke-width="2" fill="none" />
<polyline points="236.0,498.5,243.5,491.0" stroke="black" stroke-width="2" fill="none" />
<polyline points="266.0,489.5,274.0,482.5" stroke="black" stroke-width="2" fill="none" />
<polyline points="266.0,484.5,258.0,491.5" stroke="black" stroke-width="2" fill="none" />
<polyline points="266.5,474.5,274.5,466.5" stroke="black" stroke-width="2" fill="none" />
<polyline points="260.0,459.0,267.5,451.5" stroke="black" stroke-width="2" fill="none" />
<polyline points="252.0,466.5,244.0,474.0" stroke="black" stroke-width="2" fill="none" />
<polyline points="221.0,456.0,229.0,455.5,236.5,455.0,243.5,454.5,250.5,454.0,258.0,453.0,265.5,452.5,273.5,451.5,281.5,450.5,289.5,450.5,297.5,450.0,306.0,449.0,315.0,448.5,323.5,447.5,331.5,446.5,340.5,445.5,349.0,445.0,357.5,444.5,365.5,444.0,373.0,443.5,381.0,442.5,389.0,442.0,397.0,441.5,405.0,441.0,413.5,440.5,421.5,440.5,429.0,440.0,436.5,439.5,444.0,439.5,451.5,439.0,459.5,438.5,467.5,438.0,476.0,437.5,484.0,437.5,492.0,437.5,499.5,437.5,508.0,437.0,516.5,436.5" stroke="black" stroke-width="2" fill="none" />
<polyline points="517.0,361.5,509.0,362.0,501.0,362.5,493.0,363.0,485.0,363.5,477.0,363.5,468.5,364.0,460.0,364.5,452.0,365.5,444.0,366.5,435.5,366.5,427.5,367.0,419.5,367.5,410.5,368.5,402.5,369.0,394.5,369.5,386.5,369.5,379.0,370.0,371.5,371.0,363.5,371.5,356.0,372.5,347.5,373.5,340.0,373.5,332.0,373.5,324.0,373.5" stroke="black" stroke-width="2" fill="none" />
<polyline points="321.5,366.5,329.0,366.0,337.0,366.0,345.5,366.0,353.5,365.5,361.5,365.0,369.5,364.5,377.5,364.0,385.5,364.0,394.0,363.0,402.0,362.0,410.0,361.5,418.5,360.5,427.0,359.5,435.0,358.0,443.0,357.0,451.5,356.5,460.0,355.5,468.0,355.5,476.0,355.0,484.0,354.5,492.5,354.0,500.0,353.5,508.0,352.5,516.0,351.5" stroke="black" stroke-width="2" fill="none" />
<polyline points="468.0,192.5,460.0,193.0,452.0,194.0,443.5,194.5,435.5,195.0,427.5,195.5,419.5,196.5,412.0,197.0,404.0,197.5,396.0,197.5,388.0,198.5,380.0,199.0,372.0,200.0,364.0,201.0,356.0,201.0,348.0,201.5,340.0,201.5,331.5,201.5,323.5,202.0" stroke="black" stroke-width="2" fill="none" />
<polyline points="308.5,195.0,300.5,203.0,293.0,211.0,285.0,219.0,276.5,226.5,268.5,234.0,260.5,241.5,252.5,248.5,244.0,255.5,235.0,263.0,227.0,270.5,219.0,278.0,211.0,286.0,203.5,294.0" stroke="black" stroke-width="2" fill="none" />
<polyline points="204.0,295.5,212.0,295.0,220.5,294.5" stroke="black" stroke-width="2" fill="none" />
<polyline points="228.5,290.5,220.0,291.0,212.0,291.5" stroke="black" stroke-width="2" fill="none" />
<polyline points="211.5,287.5,220.0,286.5,228.5,285.5" stroke="black" stroke-width="2" fill="none" />
<polyline points="235.0,292.5,243.0,292.0,251.5,292.5,260.0,292.5,268.5,292.5,276.5,292.0,285.0,291.0,293.0,290.0,300.5,289.0,308.5,288.0,316.5,287.0,324.5,287.0,332.5,286.5" stroke="black" stroke-width="2" fill="none" />
<polyline points="299.0,260.5,291.0,268.0,283.5,276.0,275.5,283.5,267.5,291.0,259.5,298.0,251.0,305.0,242.5,311.5,234.5,319.0,226.0,326.5,217.5,334.0,209.5,341.5,202.0,348.5" stroke="black" stroke-width="2" fill="none" />
<polyline points="197.5,347.0,205.0,346.5,212.5,346.0,220.0,345.5,227.5,344.5,235.5,344.0" stroke="black" stroke-width="2" fill="none" />
<polyline points="226.5,329.0,235.0,328.5,243.5,327.5,251.0,327.5,259.0,327.5,267.0,327.0" stroke="black" stroke-width="2" fill="none" />
<polyline points="251.0,305.5,243.0,306.0" stroke="black" stroke-width="2" fill="none" />
<polyline points="235.0,308.0,226.5,315.0,218.0,322.5,210.5,330.0,202.5,337.5,195.0,344.5" stroke="black" stroke-width="2" fill="none" />
<polyline points="197.5,342.0,205.0,341.5,212.5,341.5,220.5,341.5,228.0,341.0,236.0,341.0" stroke="black" stroke-width="2" fill="none" />
<polyline points="220.0,328.0,212.0,328.0,204.0,328.0" stroke="black" stroke-width="2" fill="none" />
<polyline points="197.0,325.0,205.0,324.0,213.0,323.0,221.0,322.5,229.0,322.5,236.5,321.5,244.5,321.5,252.0,321.5,260.0,321.5,268.0,321.0" stroke="black" stroke-width="2" fill="none" />
<polyline points="259.5,311.0,251.5,311.5,243.5,312.5,236.0,313.0,229.0,313.5,221.0,314.0" stroke="black" stroke-width="2" fill="none" />
<polyline points="221.5,312.0,229.0,311.5,237.0,310.5,245.0,309.0,253.0,308.0,260.5,307.0,268.5,306.0,276.0,305.5,283.5,305.0,291.5,305.0,299.5,305.0,308.0,304.0" stroke="black" stroke-width="2" fill="none" />
<polyline points="292.5,261.0,284.5,269.0,277.0,276.0,269.0,283.5,260.5,290.0,252.5,297.5,244.5,304.5,236.5,312.5,228.5,320.0,220.5,327.0,212.0,335.0,204.0,342.5,195.5,350.0,187.5,357.0" stroke="black" stroke-width="2" fill="none" />
<polyline points="187.0,353.5,179.0,361.5" stroke="black" stroke-width="2" fill="none" />
<polyline points="178.5,354.0,170.5,362.0,162.5,369.5" stroke="black" stroke-width="2" fill="none" />
<polyline points="165.0,376.5,153.5,383.5,165.0,376.5,174.0,375.0,176.5,377.0,182.0,370.0" stroke="black" stroke-width="2" fill="none" />
<polyline points="196.0,365.0,204.5,365.0" stroke="black" stroke-width="2" fill="none" />
<polyline points="205.5,367.0,198.0,367.0" stroke="black" stroke-width="2" fill="none" />
<polyline points="195.5,352.0,203.5,352.0,212.0,351.5,220.0,351.0" stroke="black" stroke-width="2" fill="none" />
<polyline points="220.0,348.5,212.5,348.5,204.5,349.0,196.5,349.5" stroke="black" stroke-width="2" fill="none" />
<polyline points="194.0,337.0,202.5,336.0,211.0,335.5,219.5,335.5,227.5,335.5,236.0,335.5,244.0,335.0,252.5,334.5" stroke="black" stroke-width="2" fill="none" />
<polyline points="251.5,330.0,243.5,330.5,235.5,331.0,227.5,331.5,219.0,332.0,211.0,332.5,203.0,333.0,195.0,333.5" stroke="black" stroke-width="2" fill="none" />
<polyline points="194.5,335.0,202.5,328.0,211.0,320.5,218.5,313.0,227.5,305.0,236.0,297.5,243.5,289.5,251.0,282.0,259.0,274.5" stroke="black" stroke-width="2" fill="none" />
<polyline points="266.0,275.5,273.5,275.0,282.0,274.0,290.0,272.5,298.5,271.0,306.5,270.0,315.0,269.0,324.0,269.0,332.0,268.5,340.5,268.5,348.5,268.5,356.0,268.0,363.5,267.5,371.5,266.5,379.0,266.0" stroke="black" stroke-width="2" fill="none" />
<polyline points="381.5,261.5,373.0,262.0,365.0,262.5,357.0,263.0,349.0,263.5,341.0,264.5,333.5,265.0,325.5,265.5,317.0,266.0,308.5,266.5,299.5,267.5,291.5,268.5,283.0,269.5,274.0,270.0,265.5,271.0" stroke="black" stroke-width="2" fill="none" />
<polyline points="266.5,266.5,274.5,259.0" stroke="black" stroke-width="2" fill="none" />
<polyline points="279.5,256.5,266.0,264.5,258.0,272.0,250.0,280.0,242.0,288.5,235.5,296.5,226.0,304.0,218.0,312.0,208.0,319.0,216.0,313.0,224.0,307.0,231.5,299.0,239.5,290.0,247.5,281.5,256.0,274.0,264.0,266.0,272.0,260.0,279.5,256.5,288.0,256.0,296.0,255.0,304.0,255.0,312.0,255.0,320.5,254.0,328.0,252.5,336.0,250.5,344.0,249.0,351.5,246.5,359.5,243.5,367.5,240.5,375.0,236.5,382.5,233.5,391.0,229.5,399.5,225.5" stroke="black" stroke-width="2" fill="none" />
<polyline points="401.5,221.0,389.5,229.0,381.0,230.5,389.0,227.5" stroke="black" stroke-width="2" fill="none" />
<polyline points="388.5,207.0,381.0,207.5,372.5,208.0,365.0,208.5,357.0,209.0,348.5,209.5,340.0,210.0,331.5,210.5,323.5,211.5,315.5,212.5,307.0,213.0,299.0,213.5,291.0,214.0,283.0,214.5,275.0,214.5,267.0,214.5,259.0,215.0,251.5,215.0,244.0,215.5,236.0,216.0,228.0,216.5,220.0,217.0" stroke="black" stroke-width="2" fill="none" />
<polyline points="220.0,213.5,228.0,213.0,236.0,212.0,244.0,211.5,251.0,210.5,259.5,210.0,267.0,210.0,275.0,209.5,283.5,209.0,291.5,208.5,299.0,208.0,307.0,208.0,315.0,208.0,323.0,208.0,331.0,207.5,339.5,207.5,347.0,206.5,355.0,206.0,363.0,205.0,371.0,204.5,379.0,204.0,387.0,203.5" stroke="black" stroke-width="2" fill="none" />
<polyline points="369.5,218.5,358.5,227.5,358.5,233.0,359.5,228.0,364.5,225.5" stroke="black" stroke-width="2" fill="none" />
<polyline points="354.0,187.5,362.0,187.0,371.0,186.5,379.0,185.5,387.0,184.0,395.0,183.0,403.0,182.0,411.0,182.0,419.0,181.5,427.5,181.0,435.0,180.5,443.0,180.5,451.0,180.5,459.0,180.5" stroke="black" stroke-width="2" fill="none" />
<polyline points="461.0,175.5,452.5,176.0,444.0,177.0,435.5,177.5,428.0,177.5,419.5,177.5,411.0,177.5,403.0,177.5,394.5,178.0,386.5,179.0,378.5,180.5,370.5,181.5,362.0,182.5,353.5,183.0" stroke="black" stroke-width="2" fill="none" />
<polyline points="302.0,195.0,294.0,202.5,286.5,210.0,278.0,217.5,269.0,225.0,260.5,232.5,252.0,239.5,243.5,247.0,234.5,254.5,226.0,261.5,217.5,269.0,210.0,277.0" stroke="black" stroke-width="2" fill="none" />
<polyline points="212.0,277.5,220.0,277.0,227.0,276.5,234.5,276.5" stroke="black" stroke-width="2" fill="none" />
<polyline points="234.5,273.5,226.5,281.0,219.0,289.0,211.5,297.0,204.5,305.0" stroke="black" stroke-width="2" fill="none" />
<polyline points="203.0,304.0,211.0,303.5" stroke="black" stroke-width="2" fill="none" />
<polyline points="209.0,304.0,212.0,307.5,209.5,316.0" stroke="black" stroke-width="2" fill="none" />
<polyline points="210.0,316.0,202.5,323.5,195.5,331.0" stroke="black" stroke-width="2" fill="none" />
<polyline points="189.5,329.5,188.5,338.0,182.5,346.5,186.5,348.5,184.5,356.5,180.5,364.5,160.5,372.0" stroke="black" stroke-width="2" fill="none" />
<polyline points="157.0,381.5,149.0,388.5" stroke="black" stroke-width="2" fill="none" />
<polyline points="139.0,386.5,147.5,379.0,155.5,371.5,163.5,364.0,171.5,356.5" stroke="black" stroke-width="2" fill="none" />
<polyline points="172.0,352.5,163.5,353.0,155.0,353.5,147.0,354.5" stroke="black" stroke-width="2" fill="none" />
<polyline points="143.0,351.5,155.0,351.0,141.0,355.0,149.0,356.5,158.0,353.5,166.5,355.5,172.5,350.5,180.5,350.5" stroke="black" stroke-width="2" fill="none" />
<polyline points="180.5,349.5,189.0,349.0" stroke="black" stroke-width="2" fill="none" />
<polyline points="181.0,345.0,188.5,337.5" stroke="black" stroke-width="2" fill="none" />
<polyline points="189.0,331.5,181.0,339.0,173.0,346.0,165.0,353.5,156.5,361.0,148.5,368.5,141.0,376.0" stroke="black" stroke-width="2" fill="none" />
<polyline points="139.5,381.0,147.5,380.5,155.0,380.5" stroke="black" stroke-width="2" fill="none" />
<polyline points="155.5,385.0,147.0,385.0,139.0,385.5" stroke="black" stroke-width="2" fill="none" />
<polyline points="132.5,387.0,125.0,394.0" stroke="black" stroke-width="2" fill="none" />
<polyline points="132.5,391.5,124.5,392.0,116.5,392.5" stroke="black" stroke-width="2" fill="none" />
<polyline points="116.5,390.0,124.5,389.5,132.5,389.5" stroke="black" stroke-width="2" fill="none" />
<polyline points="114.5,386.5,122.5,379.0,130.0,371.5,138.0,363.5,146.0,355.5,154.5,348.5,163.0,341.0" stroke="black" stroke-width="2" fill="none" />
<polyline points="157.0,340.5,149.0,347.5" stroke="black" stroke-width="2" fill="none" />
<polyline points="146.0,349.5,154.0,348.5,162.0,348.5,170.0,348.0" stroke="black" stroke-width="2" fill="none" />
<polyline points="168.5,347.5,176.5,347.5" stroke="black" stroke-width="2" fill="none" />
<polyline points="171.0,341.0,163.0,348.0,155.0,355.0" stroke="black" stroke-width="2" fill="none" />
<polyline points="155.5,359.5,163.0,359.5,172.0,359.5,180.0,359.0,188.0,358.5,195.5,358.5" stroke="black" stroke-width="2" fill="none" />
<polyline points="188.5,337.5,180.5,338.0" stroke="black" stroke-width="2" fill="none" />
<polyline points="179.5,334.5,187.5,334.0" stroke="black" stroke-width="2" fill="none" />
<polyline points="180.0,322.0,172.5,322.0" stroke="black" stroke-width="2" fill="none" />
<polyline points="171.0,321.5,179.0,313.5,187.5,306.0,195.5,298.0" stroke="black" stroke-width="2" fill="none" />
<polyline points="195.5,298.5,187.5,299.0" stroke="black" stroke-width="2" fill="none" />
<polyline points="187.0,293.0,195.0,293.0" stroke="black" stroke-width="2" fill="none" />
<polyline points="187.5,291.0,195.0,290.5,203.0,290.0" stroke="black" stroke-width="2" fill="none" />
<polyline points="205.0,292.5,213.0,292.0,221.0,292.0" stroke="black" stroke-width="2" fill="none" />
<polyline points="229.0,300.0,236.5,300.0,244.5,300.0,252.0,299.5,259.5,299.0,267.5,299.0,275.0,298.0,282.5,297.5,290.0,297.0,297.5,296.0,305.0,295.5,313.0,295.0" stroke="black" stroke-width="2" fill="none" />
<polyline points="282.0,259.0,274.5,267.0,266.5,274.0,258.0,281.5,250.0,288.5,241.5,296.0" stroke="black" stroke-width="2" fill="none" />
<polyline points="237.0,298.5,245.0,297.5,253.0,297.0,261.0,296.5,269.0,296.5,277.0,296.0,285.5,294.5,294.0,293.5,302.5,292.5,310.0,291.5,318.0,291.0,326.0,290.0,333.5,289.5" stroke="black" stroke-width="2" fill="none" />
<polyline points="267.0,265.5,274.5,265.0,282.5,264.5,290.5,264.0,299.5,263.5,308.0,263.5,316.0,262.5,324.5,262.0,333.0,261.5,341.0,261.0,349.5,260.5,357.0,260.0,365.0,259.5,373.0,259.0,381.5,258.0,389.0,257.5,396.5,256.5" stroke="black" stroke-width="2" fill="none" />
<polyline points="291.5,196.0,283.5,203.0,275.5,210.0,267.5,217.5,259.5,225.0,251.0,232.5,243.0,239.5,235.0,247.0,227.0,254.5,219.5,262.5,211.5,270.0" stroke="black" stroke-width="2" fill="none" />
<polyline points="209.5,268.5,217.5,268.0,226.5,268.0,234.5,267.5" stroke="black" stroke-width="2" fill="none" />
<polyline points="251.0,278.5,259.0,278.0,267.5,277.5,275.5,276.5,283.5,275.5,292.0,275.0,300.5,274.5,309.0,274.0,317.0,273.5,324.5,273.0,333.0,272.5,340.5,272.0,348.0,272.0,355.0,272.0,362.5,272.0" stroke="black" stroke-width="2" fill="none" />
<polyline points="349.0,276.0,341.5,277.0,334.0,277.5,325.5,278.0,317.5,278.5,309.0,279.5,301.0,280.5,293.0,281.0,284.5,281.5,276.0,282.5,268.0,283.0,260.0,283.0,252.5,283.0" stroke="black" stroke-width="2" fill="none" />
<polyline points="244.5,285.0,252.5,284.5,260.5,284.0,268.0,283.5,275.5,283.0,283.0,282.5,291.0,282.5,299.0,282.5,307.0,282.5,315.0,282.5,323.0,282.0,331.0,281.5,339.0,280.5,346.5,280.0" stroke="black" stroke-width="2" fill="none" />
<polyline points="346.5,282.5,338.5,283.0,330.5,284.0,323.0,285.0,315.0,285.0,307.0,285.5,299.5,286.5,291.5,287.0,284.0,287.0,276.0,287.0,269.0,287.0,261.0,287.0,253.5,287.0,245.5,288.0" stroke="black" stroke-width="2" fill="none" />
<polyline points="237.5,304.0,230.0,304.5" stroke="black" stroke-width="2" fill="none" />
<polyline points="241.0,315.5,249.5,312.5,257.5,310.5,265.5,308.5,273.0,307.5,283.0,313.5,287.5,306.5,295.5,305.5,303.5,305.5,311.5,304.5,319.5,300.5,327.5,295.5,335.5,291.0,343.5,287.0,351.0,283.0,359.0,278.5,367.5,274.5,375.5,270.5,383.5,266.5,391.0,262.5,399.5,257.5,407.5,253.5,415.5,249.5,424.0,247.0,432.0,243.5,440.0,238.5,448.5,234.5,457.0,229.5,465.0,225.5,473.0,223.0" stroke="black" stroke-width="2" fill="none" />
<polyline points="364.0,218.5,356.0,219.0,348.5,219.0,341.0,219.5,333.0,220.0,325.0,220.0,317.0,220.0,309.0,220.5,300.5,221.0,292.0,221.5,283.5,222.0,275.5,222.5,267.0,223.0,258.0,224.0,249.5,224.5,241.0,225.0,233.0,225.0" stroke="black" stroke-width="2" fill="none" />
<polyline points="234.0,222.5,242.0,222.0,250.5,221.5,258.5,220.5,266.5,219.5,274.5,218.5,282.5,218.0,290.0,217.0,298.5,216.5,306.5,216.5,315.0,216.0,323.0,215.5,331.0,214.5,339.0,214.0,347.5,213.0,355.5,212.5,363.5,213.0" stroke="black" stroke-width="2" fill="none" />
<polyline points="282.0,195.0,273.5,202.0,265.5,209.5,257.5,216.5,249.5,224.0,242.5,232.0,234.5,239.5,227.5,247.0,220.0,254.0,212.5,261.5" stroke="black" stroke-width="2" fill="none" />
<polyline points="214.0,259.5,212.0,267.5,210.0,275.5,208.0,284.0,206.0,292.0,203.5,299.5,201.5,307.5,200.5,315.0,199.0,322.5,196.0,331.5,203.0,334.5,208.0,328.5,212.0,331.0,221.0,322.0,229.0,319.0,231.5,316.5,236.0,321.5,244.0,319.0,251.5,317.0,260.0,315.0,262.0,315.0,270.0,313.0,280.5,312.0,288.5,312.0,297.0,313.0,305.0,309.0" stroke="black" stroke-width="2" fill="none" />
<polyline points="316.0,381.5,324.0,381.0,332.0,381.0,339.5,380.5,347.0,380.0,354.0,379.5,362.5,378.5,371.0,377.5,378.5,376.5,386.5,375.5,394.5,374.5,403.0,374.5,411.0,374.0,419.5,374.0,427.5,374.0,435.5,374.0,444.0,374.5,452.0,375.0,460.0,375.0,468.5,374.5,476.5,374.0,484.5,373.5,492.5,372.5,500.5,371.5,508.5,370.5,516.5,369.5" stroke="black" stroke-width="2" fill="none" />
<polyline points="307.5,420.0,299.0,427.0" stroke="black" stroke-width="2" fill="none" />
<polyline points="298.0,437.0,290.0,444.5" stroke="black" stroke-width="2" fill="none" />
<polyline points="299.5,452.0,307.0,444.0" stroke="black" stroke-width="2" fill="none" />
<polyline points="299.0,469.0,290.5,476.0" stroke="black" stroke-width="2" fill="none" />
<polyline points="301.0,500.5,309.0,500.5,317.0,500.5,324.5,500.5,331.5,500.0,339.5,499.5,347.0,498.5,354.5,498.0,362.5,497.5,371.0,497.0,379.0,497.0,386.5,496.0,394.5,495.5,402.0,495.0,409.5,495.0,417.5,494.5,426.0,494.5,434.5,494.0,442.0,494.0,450.0,494.0,457.5,494.0,466.0,493.5,474.5,492.0,483.0,491.0,491.5,490.5,500.0,489.5,508.5,488.5,517.0,488.0" stroke="black" stroke-width="2" fill="none" />
<polyline points="515.5,382.5,508.0,383.5,500.5,384.0,492.0,385.0,484.0,386.0,475.5,386.5,467.5,387.5,459.5,388.0,451.0,388.5,443.0,389.0,435.0,389.0,427.5,389.0,419.5,389.0,412.0,389.5,403.5,390.0,396.0,390.5,388.0,391.0,380.5,392.0,372.5,392.5,364.0,393.0,356.0,394.0,348.0,394.5,340.5,394.5,332.5,395.0,325.0,395.5,317.0,396.0,308.5,396.5,300.5,397.0" stroke="black" stroke-width="2" fill="none" />
<polyline points="293.0,405.0,301.0,405.0,309.0,405.0,317.0,404.5,324.5,404.0,332.0,404.0,340.0,403.5,348.0,403.0,355.5,402.5,363.5,402.0,371.0,401.5,379.5,401.0,387.5,400.5,395.5,400.0,404.0,399.0,412.0,398.5,420.5,398.0,428.5,398.0,436.5,397.5,444.5,397.0,452.5,396.5,460.5,396.0,468.5,395.5,476.5,395.0,484.5,394.5,492.0,394.5,499.5,393.5,506.5,392.0,514.0,391.5" stroke="black" stroke-width="2" fill="none" />
<polyline points="516.0,400.0,508.0,400.0,500.0,400.5,492.0,400.5,483.5,401.0,475.5,401.5,468.0,401.5,461.0,402.0,453.5,402.5,446.0,403.0,438.0,403.5,429.5,404.0,421.5,404.0,413.0,404.0,405.0,404.0,396.5,405.0,388.0,405.5,379.5,406.5,371.5,407.5,363.5,408.5,355.5,409.0,347.5,409.0,339.0,409.5,330.5,410.0,322.5,410.0,314.5,410.5,306.5,410.5,298.5,411.0,290.5,411.5,283.0,412.5,275.5,413.0" stroke="black" stroke-width="2" fill="none" />
<polyline points="267.0,420.5,275.0,419.5,283.0,419.0,291.0,418.5,299.5,418.5,308.0,418.0,316.5,417.5,324.5,417.0,332.0,417.0,339.5,416.5,346.5,416.5,355.0,416.0,363.5,415.0,371.0,414.0,379.0,413.0,387.0,412.5,395.5,412.0,404.0,411.5,412.5,411.5,420.5,411.0,428.0,410.5,436.5,410.5,444.5,410.5,452.5,410.5,461.0,410.0,469.0,410.0,477.0,409.5,484.5,409.0,492.5,408.0,500.5,407.0,509.0,406.5,516.5,406.0" stroke="black" stroke-width="2" fill="none" />
<polyline points="517.0,413.0,509.0,413.5,501.0,414.0,493.0,414.5,485.0,414.5,476.5,415.0,468.0,415.5,460.0,416.5,452.0,417.5,443.5,417.5,435.5,418.0,427.5,418.5,418.5,419.5,410.5,420.0,402.5,420.5,394.5,420.5,387.0,421.0,379.5,422.0,371.5,422.5,364.0,423.5,355.5,424.5,348.0,424.5,340.0,424.5,332.0,424.5,324.0,425.5,315.5,426.0,307.5,427.0,299.0,428.0,291.0,428.5,283.0,428.5,274.5,429.0,266.5,429.0,259.0,429.5,251.0,430.0" stroke="black" stroke-width="2" fill="none" />
<polyline points="243.0,437.0,251.0,437.0,259.0,437.0,267.0,437.0,275.0,436.5,283.5,436.5,291.0,435.5,299.0,435.0,307.0,434.0,315.0,433.5,323.0,433.0,331.0,432.5,339.5,432.0,347.5,431.5,356.0,431.0,363.5,430.5,371.5,430.0,379.0,429.0,387.0,428.0,395.0,427.0,403.5,426.0,411.5,425.5,419.0,425.5,427.0,425.5,435.5,425.5,443.5,425.5,451.5,425.5,459.0,425.0,467.0,424.5,474.0,423.5,482.0,423.5,490.0,423.0,498.5,422.5,507.0,421.5,515.0,421.0" stroke="black" stroke-width="2" fill="none" />
<polyline points="316.0,198.0,308.0,198.5,299.5,199.0,291.5,199.5,283.5,199.0,276.0,198.5,267.5,199.5,259.0,200.0,250.5,200.0,242.5,201.0,234.5,201.5" stroke="black" stroke-width="2" fill="none" />
<polyline points="236.5,202.0,244.5,194.0,252.0,186.5" stroke="black" stroke-width="2" fill="none" />
<polyline points="247.0,189.5,255.0,190.0,263.5,190.5,275.5,189.5" stroke="black" stroke-width="2" fill="none" />
<polyline points="274.0,188.5,266.0,196.0,258.0,204.0,250.0,211.5,242.0,218.5,234.0,225.5,226.0,233.0,217.5,240.0" stroke="black" stroke-width="2" fill="none" />
<polyline points="220.0,238.5,228.0,238.5,236.0,238.5,243.5,238.0,251.5,237.0,259.5,236.5,267.0,236.0,274.0,235.5" stroke="black" stroke-width="2" fill="none" />
<polyline points="253.0,219.5,245.5,228.5,237.5,239.5,231.5,248.5,218.5,250.0,214.0,244.0,216.0,236.0,221.0,228.0,223.0,220.0,226.5,212.0,231.5,204.0,236.0,196.0,243.0,188.0,247.0,191.0" stroke="black" stroke-width="2" fill="none" />
<polyline points="245.0,193.5,253.0,193.0,261.0,193.0,268.5,193.0,276.5,192.5" stroke="black" stroke-width="2" fill="none" />
<polyline points="274.0,197.5,266.5,205.0,258.5,212.0,250.5,219.5,243.0,227.0,235.5,234.0,227.0,241.5" stroke="black" stroke-width="2" fill="none" />
<polyline points="218.5,235.0,226.0,228.0" stroke="black" stroke-width="2" fill="none" />
<polyline points="227.0,222.0,235.0,223.0" stroke="black" stroke-width="2" fill="none" />
<polyline points="236.0,216.5,244.0,209.0,252.0,201.5,259.5,193.5,267.5,186.0" stroke="black" stroke-width="2" fill="none" />
<polyline points="258.0,185.5,250.0,193.5,242.0,201.0,234.0,209.0,226.0,217.0" stroke="black" stroke-width="2" fill="none" />
<polyline points="225.0,220.0,225.5,228.5,232.5,227.5" stroke="black" stroke-width="2" fill="none" />
<polyline points="240.5,237.0,234.5,244.5,228.5,253.5" stroke="black" stroke-width="2" fill="none" />
<polyline points="210.5,252.0,202.5,259.5" stroke="black" stroke-width="2" fill="none" />
<polyline points="195.0,257.5,203.0,257.5,211.0,257.0" stroke="black" stroke-width="2" fill="none" />
<polyline points="210.5,260.0,218.0,259.5,226.5,259.0,234.5,258.5,243.0,257.5" stroke="black" stroke-width="2" fill="none" />
<polyline points="236.5,282.0,229.0,282.0,221.0,282.5,212.5,283.0" stroke="black" stroke-width="2" fill="none" />
<polyline points="210.5,274.0,218.5,273.0,226.5,273.0,234.5,272.5" stroke="black" stroke-width="2" fill="none" />
<polyline points="243.0,262.0,234.5,262.5,225.5,262.5,217.5,262.5,209.5,263.0" stroke="black" stroke-width="2" fill="none" />
<polyline points="203.0,268.0,194.5,275.5,186.0,282.5" stroke="black" stroke-width="2" fill="none" />
<polyline points="187.0,283.0,195.5,282.5,204.0,281.5" stroke="black" stroke-width="2" fill="none" />
<polyline points="202.5,283.5,194.5,291.0,186.5,299.0,178.5,306.5" stroke="black" stroke-width="2" fill="none" />
<polyline points="180.0,305.0,187.5,304.5,195.5,304.5" stroke="black" stroke-width="2" fill="none" />
<polyline points="194.5,308.5,186.5,316.0" stroke="black" stroke-width="2" fill="none" />
<polyline points="178.5,316.0,186.5,315.0,194.5,314.0" stroke="black" stroke-width="2" fill="none" />
<polyline points="195.5,309.5,187.5,310.0,179.5,310.5" stroke="black" stroke-width="2" fill="none" />
<polyline points="178.5,302.0,187.0,301.0,194.5,300.5" stroke="black" stroke-width="2" fill="none" />
<polyline points="203.5,300.5,211.5,300.0" stroke="black" stroke-width="2" fill="none" />
<polyline points="204.0,317.0,212.0,316.0,219.5,315.5,227.0,314.5,234.5,314.0,242.0,313.5,250.5,313.0,259.0,312.5,267.5,312.5,275.5,312.5,282.5,312.0" stroke="black" stroke-width="2" fill="none" />
<polyline points="283.0,318.5,275.0,318.5,267.0,319.0,258.5,319.0,251.0,319.5,243.0,320.0,235.5,320.5,228.0,321.0,220.0,321.5,212.0,322.0" stroke="black" stroke-width="2" fill="none" />
<polyline points="199.0,321.5,207.0,311.5,209.0,308.0,205.0,316.0,206.0,328.0,204.5,334.5,204.0,337.5,205.0,333.0,217.5,331.0,225.0,329.0,229.0,327.0,238.0,324.0,245.5,321.0,254.5,318.0" stroke="black" stroke-width="2" fill="none" />
<polyline points="202.5,275.0,195.0,282.5,187.5,290.0" stroke="black" stroke-width="2" fill="none" />
<polyline points="186.5,288.0,195.0,287.5,202.5,286.0" stroke="black" stroke-width="2" fill="none" />
<polyline points="204.0,273.0,195.5,273.5" stroke="black" stroke-width="2" fill="none" />
<polyline points="192.0,275.5,191.5,283.5" stroke="black" stroke-width="2" fill="none" />
<polyline points="188.5,278.5,196.5,278.0,205.0,277.5" stroke="black" stroke-width="2" fill="none" />
<polyline points="204.0,268.5,196.5,268.5" stroke="black" stroke-width="2" fill="none" />
<polyline points="193.0,268.0,190.0,276.0,188.5,283.5,184.0,291.5,181.5,299.0,178.5,306.5,174.5,314.5,169.5,322.5,162.5,331.0,155.0,336.0,150.5,337.0,157.0,342.0,165.0,341.5,173.0,338.5,181.0,333.5" stroke="black" stroke-width="2" fill="none" />
<polyline points="181.5,318.0,173.0,318.5" stroke="black" stroke-width="2" fill="none" />
<polyline points="162.0,308.0,154.0,315.5,146.5,323.0" stroke="black" stroke-width="2" fill="none" />
<polyline points="148.5,323.5,157.5,323.0" stroke="black" stroke-width="2" fill="none" />
<polyline points="156.0,323.0,148.0,330.5" stroke="black" stroke-width="2" fill="none" />
<polyline points="147.5,330.0,156.0,330.0" stroke="black" stroke-width="2" fill="none" />
<polyline points="155.5,334.0,147.0,334.5" stroke="black" stroke-width="2" fill="none" />
<polyline points="146.0,340.0,138.5,347.5" stroke="black" stroke-width="2" fill="none" />
<polyline points="141.0,340.5,133.0,348.0,124.5,355.5,116.0,363.0,108.0,369.5,99.5,377.0,91.0,384.5,83.0,392.5,75.0,400.0,67.0,407.5" stroke="black" stroke-width="2" fill="none" />
<polyline points="65.5,406.5,73.5,406.0,82.0,405.5" stroke="black" stroke-width="2" fill="none" />
<polyline points="85.0,402.5,77.0,410.0" stroke="black" stroke-width="2" fill="none" />
<polyline points="83.5,408.5,75.0,409.5,66.5,410.5" stroke="black" stroke-width="2" fill="none" />
<polyline points="66.5,400.0,74.5,392.5,83.0,385.0,92.0,377.5,100.0,370.0,108.0,362.0,116.0,354.0,124.0,346.0,131.5,338.5" stroke="black" stroke-width="2" fill="none" />
<polyline points="132.5,338.0,124.5,338.5" stroke="black" stroke-width="2" fill="none" />
<polyline points="124.5,339.0,133.5,331.0,142.0,323.0" stroke="black" stroke-width="2" fill="none" />
<polyline points="147.0,318.5,155.5,318.0" stroke="black" stroke-width="2" fill="none" />
<polyline points="155.5,312.5,163.5,312.0" stroke="black" stroke-width="2" fill="none" />
<polyline points="165.0,309.0,156.5,310.0" stroke="black" stroke-width="2" fill="none" />
<polyline points="163.0,300.5,171.5,293.0" stroke="black" stroke-width="2" fill="none" />
<polyline points="173.0,297.5,164.5,297.5" stroke="black" stroke-width="2" fill="none" />
<polyline points="167.0,296.0,163.0,304.0,158.5,312.0,153.5,320.5,151.0,325.5,151.5,335.0,154.5,336.0,161.5,331.0,169.5,323.0,177.5,309.5,185.0,288.0" stroke="black" stroke-width="2" fill="none" />
<polyline points="181.5,278.0,173.0,278.5" stroke="black" stroke-width="2" fill="none" />
<polyline points="172.0,292.0,164.5,292.5" stroke="black" stroke-width="2" fill="none" />
<polyline points="164.0,293.0,159.5,300.5,154.5,308.5,148.5,317.0,145.0,325.0,143.0,333.0,150.5,326.5,158.5,314.0,167.0,298.0" stroke="black" stroke-width="2" fill="none" />
<polyline points="149.0,292.5,141.0,293.0" stroke="black" stroke-width="2" fill="none" />
<polyline points="141.0,296.5,148.5,293.5,149.0,288.5" stroke="black" stroke-width="2" fill="none" />
<polyline points="165.5,292.0,157.5,304.5,149.5,316.0,136.5,328.5,137.5,321.0,141.5,320.0,140.5,312.5,141.5,304.5,149.0,294.0,142.5,299.0,136.5,303.0,128.0,313.5,122.0,322.5,123.5,314.5,126.5,306.5,131.5,298.0,138.5,295.5,138.5,290.5,148.5,282.5,147.5,285.0,140.0,291.5,132.0,299.5,124.0,310.5" stroke="black" stroke-width="2" fill="none" />
<polyline points="124.0,310.0,131.5,309.5" stroke="black" stroke-width="2" fill="none" />
<polyline points="132.5,308.0,124.5,315.5" stroke="black" stroke-width="2" fill="none" />
<polyline points="121.0,317.5,129.0,317.5" stroke="black" stroke-width="2" fill="none" />
<polyline points="132.5,317.0,124.5,324.5" stroke="black" stroke-width="2" fill="none" />
<polyline points="123.0,323.5,131.0,323.0" stroke="black" stroke-width="2" fill="none" />
<polyline points="133.5,325.5,141.0,325.0" stroke="black" stroke-width="2" fill="none" />
<polyline points="147.5,327.0,155.5,327.0" stroke="black" stroke-width="2" fill="none" />
<polyline points="142.0,331.0,134.5,331.5" stroke="black" stroke-width="2" fill="none" />
<polyline points="133.0,333.0,125.0,333.5" stroke="black" stroke-width="2" fill="none" />
<polyline points="126.5,332.0,119.5,340.0,114.5,348.0,110.5,356.0,95.5,364.0,78.5,372.5,62.0,380.5,47.0,388.5,36.5,396.5,28.0,404.0,25.0,407.0,33.0,399.0,41.0,392.0,49.5,387.0,57.5,382.0,66.0,378.0,74.0,374.0,82.0,370.0,90.0,366.0,98.5,363.0,106.5,359.5,114.5,347.5,122.5,334.5,131.0,335.5,139.0,336.5,147.0,334.5,155.0,330.0" stroke="black" stroke-width="2" fill="none" />
<polyline points="165.0,352.0,173.0,352.0" stroke="black" stroke-width="2" fill="none" />
<polyline points="145.5,363.5,137.5,371.5,129.5,378.0,121.5,385.0,114.0,392.0" stroke="black" stroke-width="2" fill="none" />
<polyline points="111.0,390.5,85.5,398.5" stroke="black" stroke-width="2" fill="none" />
<polyline points="90.0,397.0,98.0,396.5,106.5,396.0" stroke="black" stroke-width="2" fill="none" />
<polyline points="109.5,397.0,101.5,404.0" stroke="black" stroke-width="2" fill="none" />
<polyline points="107.0,400.5,99.0,401.0,91.5,401.5" stroke="black" stroke-width="2" fill="none" />
<polyline points="91.5,400.5,99.5,393.0,108.0,385.0,116.5,377.0,125.0,369.0,133.0,361.5" stroke="black" stroke-width="2" fill="none" />
<polyline points="137.5,361.0,145.0,360.5" stroke="black" stroke-width="2" fill="none" />
<polyline points="139.0,357.5,147.0,357.0,155.0,356.0,163.0,355.5,171.5,355.0,179.5,354.5,187.5,354.5,195.0,355.0" stroke="black" stroke-width="2" fill="none" />
<polyline points="188.0,342.5,180.0,343.0,172.0,344.0,163.5,344.0,155.5,344.5,147.5,344.5,139.5,345.0,131.0,346.0" stroke="black" stroke-width="2" fill="none" />
<polyline points="132.0,348.0,124.5,349.0,116.0,349.5" stroke="black" stroke-width="2" fill="none" />
<polyline points="116.5,355.0,125.0,354.5,133.0,353.5" stroke="black" stroke-width="2" fill="none" />
<polyline points="133.0,355.5,125.0,363.5,116.5,371.0,108.5,378.5,100.0,386.5,91.5,394.0" stroke="black" stroke-width="2" fill="none" />
<polyline points="75.5,378.0,83.5,377.5,91.5,377.5,99.5,377.0,107.0,376.5,115.0,376.0,123.0,375.0,131.0,373.5,139.0,373.0,147.5,372.5,155.5,372.0" stroke="black" stroke-width="2" fill="none" />
<polyline points="171.0,365.5,163.5,366.0,155.5,367.0,148.0,367.5,140.5,367.5,132.5,368.0,124.5,368.5,116.5,368.5,108.5,368.5,100.0,368.0,91.5,368.5" stroke="black" stroke-width="2" fill="none" />
<polyline points="92.5,367.0,101.0,366.0,109.5,365.5,117.0,364.5,124.5,363.0,132.0,362.0,140.0,361.5,148.0,361.5,156.0,361.0,163.5,361.0,171.0,360.5,179.0,360.0" stroke="black" stroke-width="2" fill="none" />
<polyline points="187.0,336.5,178.5,337.5,170.5,338.0,161.5,338.5,154.5,339.0,146.5,339.5,138.5,340.0,130.5,340.0,122.0,340.0" stroke="black" stroke-width="2" fill="none" />
<polyline points="126.5,335.0,126.0,343.0,126.0,351.0,130.0,354.5,130.0,362.5,134.0,370.0,138.0,378.5,115.5,386.5,92.0,394.5,67.0,402.5" stroke="black" stroke-width="2" fill="none" />
<polyline points="60.0,400.5,68.5,393.0,77.0,385.0,85.5,378.0,93.5,371.0,101.0,363.5" stroke="black" stroke-width="2" fill="none" />
<polyline points="105.5,359.0,113.5,358.5,121.5,358.0,130.0,357.5" stroke="black" stroke-width="2" fill="none" />
<polyline points="130.0,353.5,138.0,348.0,137.5,348.5,137.5,354.5,132.0,359.5,131.5,367.0,139.0,366.5" stroke="black" stroke-width="2" fill="none" />
<polyline points="132.5,361.0,124.5,361.0,116.0,360.5,108.0,360.5" stroke="black" stroke-width="2" fill="none" />
<polyline points="85.0,372.0,77.0,379.5,68.5,387.0,60.5,394.5,52.0,402.5,44.0,410.0,36.0,417.5" stroke="black" stroke-width="2" fill="none" />
<polyline points="28.0,418.5,36.5,411.5,45.0,404.0,53.0,396.5,61.0,389.0,69.5,381.5" stroke="black" stroke-width="2" fill="none" />
<polyline points="74.5,375.0,82.5,374.0,90.5,373.0,98.5,372.0,106.5,371.0,114.0,369.5,122.0,369.0,130.0,369.0,138.0,369.0,145.5,368.5,153.5,368.0" stroke="black" stroke-width="2" fill="none" />
<polyline points="139.0,356.0,142.0,350.0,145.0,349.0,152.5,348.0,157.0,351.0,157.5,347.5,165.5,347.5,173.5,346.5,182.0,343.5" stroke="black" stroke-width="2" fill="none" />
<polyline points="201.0,292.0,201.5,283.5,204.5,276.0,196.5,268.0,189.0,274.0" stroke="black" stroke-width="2" fill="none" />
<polyline points="193.5,259.5,202.0,251.5" stroke="black" stroke-width="2" fill="none" />
<polyline points="195.0,252.0,202.5,252.0,210.5,251.0" stroke="black" stroke-width="2" fill="none" />
<polyline points="201.5,243.5,209.5,236.0" stroke="black" stroke-width="2" fill="none" />
<polyline points="211.5,240.5,203.5,240.5" stroke="black" stroke-width="2" fill="none" />
<polyline points="204.5,236.5,212.5,236.0" stroke="black" stroke-width="2" fill="none" />
<polyline points="199.5,239.0,207.0,237.0,197.0,243.5,195.0,252.5,186.0,257.5,181.0,265.5,175.0,273.5,163.0,281.5,164.0,283.5,165.0,280.0,172.5,275.0,181.0,264.0,189.0,256.5,200.5,248.5,209.0,249.0" stroke="black" stroke-width="2" fill="none" />
<polyline points="207.0,232.5,198.5,233.5,192.5,245.0" stroke="black" stroke-width="2" fill="none" />
<polyline points="188.5,258.0,183.5,266.0,177.5,273.5,167.5,281.0,173.5,277.5,181.5,266.0,194.0,256.0,202.0,254.5,212.0,258.0" stroke="black" stroke-width="2" fill="none" />
<polyline points="219.5,220.5,227.5,213.0" stroke="black" stroke-width="2" fill="none" />
<polyline points="222.0,211.5,216.0,214.5,217.0,217.5,225.0,214.5,231.5,213.5,233.5,200.0,242.0,190.0,250.5,184.5,258.5,185.5,266.5,185.5,275.0,188.0,283.0,191.0,290.5,194.0,298.0,194.5,306.0,193.5,314.0,193.5,321.5,193.5,329.5,191.5,337.5,188.5,346.0,187.0,354.5,183.0,362.0,180.0,370.0,175.0,378.0,168.0,386.5,161.0,394.0,152.5,402.0,144.5,410.0,133.5,417.5,131.5,425.5,138.0,434.0,147.0,441.5,156.0,449.5,170.5,457.5,186.0,466.0,201.0" stroke="black" stroke-width="2" fill="none" />
<polyline points="468.0,183.5,459.5,183.5,451.0,183.5,443.0,183.5,434.5,184.0,426.5,185.0,418.5,186.5,410.5,187.5,402.0,188.5,393.5,189.0,385.5,189.5,378.0,189.5,370.5,189.5,363.0,189.5,355.5,189.5,347.5,190.0,340.0,190.5,332.0,191.0,324.0,191.0,315.5,191.5,307.5,192.0,299.5,193.0,291.5,193.5,283.0,194.0,275.0,194.5,267.0,195.0,259.0,195.5,251.0,195.5,242.5,195.5,234.0,196.0" stroke="black" stroke-width="2" fill="none" />
<polyline points="243.0,191.5,251.5,191.0,259.5,190.5,267.5,190.0,275.0,189.5" stroke="black" stroke-width="2" fill="none" />
<polyline points="267.0,197.0,267.0,197.0,267.0,194.0,259.0,192.5" stroke="black" stroke-width="2" fill="none" />
<polyline points="340.5,188.0,360.5,180.0,375.0,172.0,384.0,164.0,392.0,156.0,400.0,148.0,406.5,140.0,412.5,132.0" stroke="black" stroke-width="2" fill="none" />
<polyline points="466.5,94.0,474.5,93.5,482.0,93.0,490.0,92.5,497.5,92.0,505.5,91.0,513.5,90.5" stroke="black" stroke-width="2" fill="none" />
<polyline points="516.5,69.0,508.5,69.5,500.5,70.0,492.5,70.5" stroke="black" stroke-width="2" fill="none" />
<polyline points="482.5,77.0,490.5,77.0,498.5,76.5,507.0,76.0,515.5,75.0" stroke="black" stroke-width="2" fill="none" />
<polyline points="515.0,53.0,507.0,53.0" stroke="black" stroke-width="2" fill="none" />
<polyline points="515.0,36.0,507.5,37.0,500.0,37.0,492.5,37.5" stroke="black" stroke-width="2" fill="none" />
<polyline points="484.0,29.5,492.0,29.0,500.0,28.0,508.5,27.5,516.5,27.0" stroke="black" stroke-width="2" fill="none" />
<polyline points="516.5,11.5,508.5,12.0,500.5,12.5" stroke="black" stroke-width="2" fill="none" />
<polyline points="515.5,20.0,507.5,20.0,499.5,20.0,492.0,20.5,483.5,21.0" stroke="black" stroke-width="2" fill="none" />
<polyline points="476.0,37.0,468.0,37.5" stroke="black" stroke-width="2" fill="none" />
<polyline points="475.0,46.0,483.5,45.5,491.5,45.0,500.0,44.5,508.5,44.0,517.0,43.5" stroke="black" stroke-width="2" fill="none" />
<polyline points="514.5,58.5,506.0,58.5,498.0,59.0,489.5,59.0,481.5,59.5,473.0,60.0" stroke="black" stroke-width="2" fill="none" />
<polyline points="469.0,54.0,476.5,53.5" stroke="black" stroke-width="2" fill="none" />
<polyline points="476.0,70.5,468.5,71.5" stroke="black" stroke-width="2" fill="none" />
<polyline points="476.5,76.5,468.5,77.0,460.5,77.5" stroke="black" stroke-width="2" fill="none" />
<polyline points="467.5,87.0,475.5,86.5,483.5,85.0,491.5,84.0,499.5,83.5,508.0,83.0,516.0,82.0" stroke="black" stroke-width="2" fill="none" />
<polyline points="491.5,10.5,484.0,11.0,476.5,11.0,468.5,11.5" stroke="black" stroke-width="2" fill="none" />
<polyline points="476.0,19.5,468.5,20.5,460.5,20.5" stroke="black" stroke-width="2" fill="none" />
<polyline points="460.5,12.0,452.5,12.5" stroke="black" stroke-width="2" fill="none" />
<polyline points="444.0,7.0,452.0,6.0,459.5,5.0,467.0,4.0,474.5,3.5,482.5,3.0,490.5,2.5,498.5,2.0,506.5,2.0,514.5,1.5" stroke="black" stroke-width="2" fill="none" />
<polyline points="460.5,36.0,452.5,36.5" stroke="black" stroke-width="2" fill="none" />
<polyline points="516.0,442.5,507.5,442.5,499.0,442.5,491.0,442.5,482.5,443.0,474.5,444.0,466.5,445.5,458.5,446.5,450.0,447.5,441.5,448.0,433.5,448.5,426.0,448.5,418.5,448.5,411.0,448.5,403.5,448.5,395.5,449.0,388.0,449.5,380.0,450.0,372.0,450.0,363.5,450.5,355.5,451.0,347.5,452.0,339.5,452.5,331.0,453.0,323.0,453.5,315.0,454.0,307.0,454.5,299.0,454.5,290.5,454.5,282.0,455.0,274.5,455.5,267.0,456.0,259.0,456.5,251.0,456.5,243.0,457.0,235.0,458.0,226.5,458.5,218.5,459.5,210.5,460.0,202.5,460.0" stroke="black" stroke-width="2" fill="none" />
<polyline points="203.0,467.5,211.0,467.0,219.0,466.0,227.5,465.0,235.5,465.0,244.0,465.0,251.5,464.5,259.5,464.5,267.0,464.5,274.5,465.0,282.5,464.5,290.5,464.0,298.5,463.0,307.0,463.0,315.5,462.5,324.0,461.5,331.5,462.0,339.5,462.5,347.5,462.0,356.0,461.5,364.0,461.0,372.0,461.0,380.0,460.0,388.0,459.5,396.0,459.5,404.0,459.0,411.5,458.5,419.0,457.5,426.5,457.0,434.0,457.0,442.0,456.5,450.0,456.0,459.0,455.5,467.0,454.5,475.0,453.0,483.0,452.0,491.0,451.0,499.0,451.0,507.0,450.5,515.5,450.0" stroke="black" stroke-width="2" fill="none" />
<polyline points="210.5,476.0,202.5,483.5,195.5,491.5,188.0,499.0" stroke="black" stroke-width="2" fill="none" />
<polyline points="195.0,507.5,187.0,515.0" stroke="black" stroke-width="2" fill="none" />
<polyline points="181.0,515.0,173.0,522.5" stroke="black" stroke-width="2" fill="none" />
<polyline points="169.0,516.0,161.5,523.0" stroke="black" stroke-width="2" fill="none" />
<polyline points="155.5,521.0,163.0,513.5,171.0,506.0" stroke="black" stroke-width="2" fill="none" />
<polyline points="164.0,505.5,172.0,497.5" stroke="black" stroke-width="2" fill="none" />
<polyline points="163.5,501.5,155.5,509.0,148.0,515.5,140.0,522.5" stroke="black" stroke-width="2" fill="none" />
<polyline points="146.5,531.0,138.5,538.5" stroke="black" stroke-width="2" fill="none" />
<polyline points="140.5,533.5,132.0,540.5" stroke="black" stroke-width="2" fill="none" />
<polyline points="138.5,546.5,130.5,554.5" stroke="black" stroke-width="2" fill="none" />
<polyline points="125.0,557.5,132.5,557.0,140.0,556.0,147.5,555.5,155.0,554.5,163.0,554.0,171.0,553.0,178.5,553.0,187.0,553.0,195.5,553.0,204.0,552.0,211.5,551.5,219.5,551.5,227.5,551.0,236.0,550.0,243.5,549.5,251.0,549.0,259.0,548.0,267.0,547.0" stroke="black" stroke-width="2" fill="none" />
<polyline points="194.5,522.0,186.5,529.5" stroke="black" stroke-width="2" fill="none" />
<polyline points="181.5,533.0,173.5,540.5" stroke="black" stroke-width="2" fill="none" />
<polyline points="148.0,546.0,140.0,554.0,132.0,562.0" stroke="black" stroke-width="2" fill="none" />
<polyline points="131.0,564.5,139.0,564.5,147.0,564.0,155.0,563.5,163.5,563.0,171.5,562.0,180.0,562.0,188.5,562.0,197.0,561.5,204.5,561.0,212.5,560.5,221.0,560.0,229.0,559.5,237.0,559.0,245.0,558.0" stroke="black" stroke-width="2" fill="none" />
<polyline points="195.5,581.0,187.5,581.5" stroke="black" stroke-width="2" fill="none" />
<polyline points="149.5,575.5,157.5,574.5,165.5,573.5,173.5,573.0,181.5,572.5,189.0,572.0,197.0,571.0,205.0,569.5,213.0,568.5,221.0,568.0,229.0,568.0,237.0,567.0" stroke="black" stroke-width="2" fill="none" />
<polyline points="188.5,492.0,196.5,485.0" stroke="black" stroke-width="2" fill="none" />
<polyline points="189.0,478.5,196.5,477.5,204.0,477.5,212.0,477.0,220.0,476.0,227.5,475.0,235.5,475.0,243.5,475.0,252.0,475.0,260.0,475.0,268.0,474.5,276.0,474.0,284.5,473.5,292.5,473.0,300.0,473.0,308.0,472.5,315.5,472.0,323.0,471.5,330.0,471.0,337.5,470.0,345.0,469.5,353.0,469.0,361.0,467.5,369.5,466.5,378.0,466.5,386.5,466.0,395.5,464.5,404.5,463.5,413.0,463.0,421.0,462.5,429.0,461.5,437.0,461.5,445.0,461.5,452.5,461.5,459.5,461.0,467.5,460.5,475.0,459.5,482.5,459.0,490.5,458.5,499.0,458.0,507.0,458.0,514.5,457.0" stroke="black" stroke-width="2" fill="none" />
<polyline points="513.5,465.0,506.0,465.5,498.0,466.0,490.0,466.5,482.0,467.0,474.5,467.0,466.0,467.5,457.5,469.0,449.0,469.5,441.5,470.0,433.5,470.0,426.0,470.0,418.5,470.5,410.5,470.5,402.5,471.5,395.0,471.5,387.0,472.0,379.5,472.0,372.0,472.0,364.5,473.0,356.5,473.5,348.5,474.5,340.5,475.5,332.0,476.0,324.0,476.0,315.5,475.5,307.5,475.5,299.5,476.0,291.5,476.5,283.5,477.0,276.0,477.0,268.5,477.5,260.0,478.0,252.0,478.5,244.0,479.0,236.0,479.5,228.0,480.5,220.0,481.5,212.0,482.0,203.0,483.0,195.0,483.5,186.5,484.5,178.0,485.5,170.0,486.0" stroke="black" stroke-width="2" fill="none" />
<polyline points="157.5,492.5,165.0,492.5,172.5,492.0,180.0,492.0,188.0,491.5,196.0,491.0,204.5,491.0,213.0,491.0,221.5,491.0,229.5,491.0,237.5,490.0,245.0,489.5,252.5,489.0,260.0,488.5,267.5,487.5,275.5,487.0,283.0,486.5,291.0,486.5,299.0,486.0,307.5,485.0,316.0,484.5,324.0,484.5,332.0,484.5,339.5,484.0,347.5,483.0,355.5,482.5,363.0,482.0,370.0,481.5,377.5,481.0,385.0,481.0,393.0,481.0,401.0,480.5,409.0,479.0,417.5,478.0,425.5,477.5,433.0,476.5,441.0,476.5,449.0,476.0,457.0,476.0,465.5,475.0,473.5,474.5,481.0,474.0,489.0,474.0,497.5,474.0,505.5,473.5,513.5,473.0" stroke="black" stroke-width="2" fill="none" />
<polyline points="291.0,489.5,283.0,490.0,275.0,490.0,267.5,490.5,259.5,491.5,251.0,493.0,243.0,493.5,236.0,494.5,228.0,495.5,220.5,496.5,212.5,497.0,205.0,497.0,197.0,497.0,188.5,497.5,180.0,497.5,171.5,498.0,163.5,499.0,154.5,499.5,146.0,500.0,138.0,500.5,130.0,501.0" stroke="black" stroke-width="2" fill="none" />
<polyline points="123.5,511.0,131.0,510.0,139.0,509.0,146.5,508.5,154.0,508.0,161.5,507.5,169.5,507.0,177.5,505.5,185.5,504.5,194.0,504.0,202.5,503.5,210.0,503.0,218.0,502.5,226.5,502.0,235.0,502.0,243.5,501.5,252.0,501.0,260.5,500.0,269.0,499.5,276.5,499.0,285.0,498.5,293.0,498.0,301.0,498.0,309.0,497.5,316.5,497.5,325.0,497.0,332.5,496.5,340.5,496.0,348.0,495.5,355.5,495.5,363.5,495.0,371.5,494.5,379.5,494.0,387.5,494.0,395.5,493.5,403.0,493.5,411.0,493.0,418.5,493.0,426.5,492.5,434.0,491.5,442.0,491.5,449.5,491.0,458.0,490.0,466.0,488.5,474.5,487.0,482.5,486.0,491.0,485.0,500.0,485.0,508.0,484.5,516.5,484.5" stroke="black" stroke-width="2" fill="none" />
<polyline points="340.0,535.0,332.0,535.5,324.0,536.0,315.5,536.0,307.0,536.5,299.0,537.0,291.5,538.0,283.5,538.5,275.5,539.0,267.0,540.5,259.0,541.5,251.0,542.0,243.0,542.5,235.0,543.0,226.5,543.0,218.5,543.5,211.0,544.0,202.5,545.0,195.0,545.0,187.5,545.5,179.5,546.5,171.0,547.0,163.0,547.0,155.0,548.0,148.0,549.0,140.5,549.5,132.5,550.0,125.0,550.5" stroke="black" stroke-width="2" fill="none" />
<polyline points="116.5,540.0,125.0,539.5,133.0,539.0,140.5,539.0,148.5,538.5,156.5,538.0,164.0,537.5,172.0,537.0,180.5,536.5,189.0,536.0,197.5,535.5,205.0,535.5,212.5,535.0,220.0,535.0,228.0,534.5,236.0,534.0,244.5,534.0,253.0,534.0,261.5,534.0,269.5,534.0,277.5,533.0,285.0,532.5,292.5,532.0,300.0,531.5,307.5,530.5,315.5,530.0" stroke="black" stroke-width="2" fill="none" />
<polyline points="450.5,505.5,442.5,505.5,434.5,506.5,427.0,506.5,419.0,507.0,411.5,507.0,404.0,507.0,396.5,508.0,388.5,508.5,380.5,509.5,372.5,510.5,364.0,511.0,356.0,511.0,347.5,510.5,339.5,510.5,331.5,511.0,323.5,511.5,315.5,512.0,308.0,512.0,300.5,512.5,292.0,513.0,284.0,513.5,276.0,514.0,268.0,514.5,260.0,515.5,252.0,516.5,244.0,517.0,235.0,518.0,227.0,518.5,218.5,519.5,210.0,520.5,202.0,521.0,194.0,521.5,186.5,522.0,179.0,522.0,170.5,523.0,162.0,523.5,154.5,524.0,147.0,525.0,139.0,526.5,131.5,527.5,123.5,528.0" stroke="black" stroke-width="2" fill="none" />
<polyline points="116.5,532.5,124.5,532.0,132.5,531.5,140.0,531.0,147.5,530.0,155.5,529.5,163.0,529.5,171.0,529.0,179.0,528.5,187.0,527.5,195.5,526.5,203.0,526.5,212.0,526.5,220.0,526.0,228.0,525.5,235.5,525.5,244.0,525.0,252.5,525.0,260.5,525.0,269.0,524.5,277.5,524.0,285.0,523.5,292.5,523.5,300.5,523.5,308.0,523.0" stroke="black" stroke-width="2" fill="none" />
<polyline points="116.5,515.0,124.5,514.5,132.0,514.0,139.5,514.0,147.5,514.0,155.5,514.0,163.5,513.5,171.0,513.5,179.0,513.0,187.5,512.5,195.5,511.5,203.5,511.0,212.0,510.5,220.0,510.0,228.0,510.0,235.5,510.0,243.0,509.5,251.0,509.0,259.0,508.0,266.5,507.0,274.0,507.0,282.5,506.0,291.0,505.5,299.5,505.5,307.5,505.5,316.0,505.5,324.0,505.0,332.5,504.5,341.0,504.0,349.5,503.5,358.0,503.5,365.5,503.0,373.5,503.0,381.0,503.0,388.5,503.0,396.0,502.5,404.0,502.0,412.0,501.5,420.0,501.0,428.0,500.0,436.5,499.0,444.0,499.0,452.0,499.0,460.0,498.5,468.5,497.5,477.0,497.0,485.0,496.5,493.0,495.5,501.5,494.5,509.5,494.0" stroke="black" stroke-width="2" fill="none" />
<polyline points="131.0,380.5,123.5,381.5,116.0,382.5,108.0,383.0,100.0,383.5,92.0,384.0,84.5,384.5,76.0,385.0,68.0,386.0,60.0,386.5" stroke="black" stroke-width="2" fill="none" />
<polyline points="61.0,381.5,69.0,381.5,77.0,381.5,85.0,381.0,92.5,379.5,100.5,379.0,107.5,378.0,115.0,377.5,122.5,377.0,130.0,376.5" stroke="black" stroke-width="2" fill="none" />
<polyline points="107.5,389.5,99.5,390.0,92.0,390.5,83.5,390.5,75.5,390.5,67.5,391.5,59.5,392.0,52.0,392.5,44.5,393.5" stroke="black" stroke-width="2" fill="none" />
<polyline points="43.0,388.0,51.0,387.5,58.5,387.0,66.5,386.5,75.0,386.5,83.5,386.5,91.5,386.5,100.5,386.5,109.0,387.0" stroke="black" stroke-width="2" fill="none" />
<polyline points="51.5,387.0,43.0,394.5,34.5,401.5,26.5,409.0,18.5,416.0" stroke="black" stroke-width="2" fill="none" />
<polyline points="20.5,417.0,28.5,417.0,36.5,416.5,44.5,416.0,53.0,415.5" stroke="black" stroke-width="2" fill="none" />
<polyline points="51.5,411.5,43.0,419.0" stroke="black" stroke-width="2" fill="none" />
<polyline points="51.0,408.5,42.5,409.0,34.0,409.5,26.0,409.5" stroke="black" stroke-width="2" fill="none" />
<polyline points="27.0,410.0,35.0,410.0,43.0,408.5,51.0,407.5,59.0,406.0,66.5,404.0,74.5,401.0,83.0,398.0,91.0,396.0,99.0,393.0,107.0,389.5,115.0,387.5,123.0,384.5,131.0,381.5" stroke="black" stroke-width="2" fill="none" />
<polyline points="84.0,399.5,75.5,400.0,66.5,400.0,58.5,400.0,50.5,400.0,42.5,400.5,34.5,401.0" stroke="black" stroke-width="2" fill="none" />
<polyline points="33.5,398.0,42.0,397.5,50.0,397.0,58.0,396.5,66.5,396.0,75.0,395.0,83.5,394.5" stroke="black" stroke-width="2" fill="none" />
<polyline points="52.0,405.0,44.0,405.0,36.5,406.0,28.5,406.0" stroke="black" stroke-width="2" fill="none" />
<polyline points="19.5,412.5,27.5,412.0,35.5,411.0,43.5,410.5,51.0,410.5" stroke="black" stroke-width="2" fill="none" />
<polyline points="17.0,411.5,13.5,419.5,14.5,427.5,19.5,439.5,24.0,447.0,29.0,455.0,36.0,450.5,34.5,458.5,33.0,462.5,44.0,462.0,49.0,466.0,63.0,465.0,71.5,461.5,79.5,460.5,87.5,458.5,95.0,456.5,103.5,454.0,111.5,452.0,120.0,449.5,128.0,447.5,136.5,444.5,144.0,441.5,152.0,438.5,159.5,436.0,167.5,433.0,175.5,430.0,183.0,427.5,191.0,423.0,199.5,420.0,207.5,417.0,215.5,413.5,223.5,410.0,231.5,406.0,239.0,403.5,247.0,399.5,255.0,396.5,263.0,392.5,271.0,388.5,279.0,385.0,287.5,381.0,295.5,377.0,303.0,372.5,311.0,368.5,319.0,364.5,326.5,360.5,334.5,356.5,342.5,351.0,350.5,347.0,358.5,342.5,367.0,338.5,375.0,334.5,383.0,329.5,391.5,325.5,399.5,322.0,407.5,317.0,415.5,313.5,423.5,309.0,431.5,305.0,439.5,300.5,447.5,295.5,455.5,291.5,463.5,286.5,471.0,281.5,479.0,276.5" stroke="black" stroke-width="2" fill="none" />
<polyline points="175.5,365.5,168.0,367.5,160.0,370.5,152.0,373.5,144.5,376.0,136.0,375.0,137.0,368.0,137.0,364.0,134.5,358.0,132.0,350.0,133.5,341.5,135.5,329.5,133.5,321.5,132.0,321.5,127.0,315.5,130.0,308.5,133.5,306.0,136.0,298.0,133.0,303.0" stroke="black" stroke-width="2" fill="none" />
<polyline points="138.0,305.0,133.0,313.0,130.0,315.0,133.0,316.0,138.5,324.0" stroke="black" stroke-width="2" fill="none" />
<polyline points="101.5,455.5,93.5,458.5,85.0,460.5" stroke="black" stroke-width="2" fill="none" />
<polyline points="55.5,465.0,48.0,465.0,40.5,466.5,32.5,460.5" stroke="black" stroke-width="2" fill="none" />
<polyline points="33.0,445.5,24.5,445.5" stroke="black" stroke-width="2" fill="none" />
<polyline points="19.5,443.0,27.5,453.5,31.0,451.0" stroke="black" stroke-width="2" fill="none" />
<polyline points="16.5,417.5,24.0,418.5,32.0,417.5,40.0,416.5,48.0,415.5,56.0,413.5,64.0,411.5,72.0,408.0,80.0,406.0,88.5,402.5,96.5,400.5,104.5,398.5,112.5,396.0,120.5,394.0,128.5,391.0,136.5,389.0,137.5,388.5" stroke="black" stroke-width="2" fill="none" />
<polyline points="130.5,387.0,154.0,379.0,176.0,371.0,179.5,375.0,168.5,374.0,160.5,377.0,152.0,380.0,143.5,381.5,135.5,385.0,127.5,387.0,119.5,390.0,111.5,392.0,104.0,394.5,96.0,396.5,88.0,399.5,79.5,401.5,71.5,404.5,63.5,406.5,55.5,408.5,48.0,410.5,40.0,411.5,32.0,413.0,24.0,413.0,16.0,413.5" stroke="black" stroke-width="2" fill="none" />
</svg>