<svg xmlns="http://www.w3.org/2000/svg" version="1.1"><polyline points="381.5,33.5,391.0,42.0,402.0,50.0,406.0,58.0,401.5,65.5,392.5,74.0,379.0,80.5,384.5,81.5,392.5,74.5,401.0,67.5" stroke="black" stroke-width="2" fill="none" />
<polyline points="401.0,71.5,409.0,71.0" stroke="black" stroke-width="2" fill="none" />
<polyline points="411.0,75.5,403.5,82.5,395.5,89.5,387.0,96.5,379.0,104.0,371.0,111.5,363.0,119.5" stroke="black" stroke-width="2" fill="none" />
<polyline points="357.5,107.0,365.0,106.5,372.5,106.0,380.0,105.5,387.5,105.0" stroke="black" stroke-width="2" fill="none" />
<polyline points="396.5,99.5,388.5,107.0,380.5,114.5" stroke="black" stroke-width="2" fill="none" />
<polyline points="372.0,90.5,380.5,89.5,388.5,89.0,396.0,88.5" stroke="black" stroke-width="2" fill="none" />
<polyline points="397.5,78.5,389.0,85.5,381.0,92.5,373.5,99.0,366.0,106.0,358.0,112.5,350.0,120.5,341.5,127.5,333.5,134.5,325.0,142.0,317.0,149.0,308.5,157.0,300.0,164.5,291.5,172.5,282.5,180.0,274.0,187.0,266.0,194.5,258.5,202.0,250.5,209.0,242.5,216.5,235.0,224.0,226.5,231.5,218.0,239.0,209.5,246.0,201.5,253.0,193.5,260.5,185.0,267.5,177.5,275.0,169.5,283.0,162.5,291.0" stroke="black" stroke-width="2" fill="none" />
<polyline points="156.5,290.0,164.0,290.0,172.0,290.0,180.5,290.0,189.0,290.0" stroke="black" stroke-width="2" fill="none" />
<polyline points="196.0,285.0,203.5,277.5" stroke="black" stroke-width="2" fill="none" />
<polyline points="212.5,265.0,204.5,265.5,196.5,265.5,188.5,266.0,181.0,266.5" stroke="black" stroke-width="2" fill="none" />
<polyline points="179.5,261.0,187.5,260.5,195.5,260.0,204.0,259.5,212.0,258.5,220.0,258.0" stroke="black" stroke-width="2" fill="none" />
<polyline points="235.5,242.0,243.5,234.5" stroke="black" stroke-width="2" fill="none" />
<polyline points="243.5,231.0,236.0,231.5,228.5,232.0,221.0,232.5,213.0,233.0" stroke="black" stroke-width="2" fill="none" />
<polyline points="213.5,230.0,221.0,229.5,228.0,228.5,235.5,228.0,243.0,227.5,250.0,227.0" stroke="black" stroke-width="2" fill="none" />
<polyline points="249.0,227.0,240.0,235.0,233.0,243.0,225.0,251.0,217.0,259.0,209.0,267.5,200.0,275.5,192.0,283.0,183.0,290.5,173.5,298.5,164.0,306.5,154.5,314.5,142.5,321.0,129.5,329.0,115.5,337.5" stroke="black" stroke-width="2" fill="none" />
<polyline points="108.0,332.5,116.5,325.5,124.5,319.0,132.5,312.0,141.0,304.5,149.0,297.0,157.5,289.0,165.5,281.5,173.0,273.5,180.5,266.0,188.5,258.0,196.0,251.0,203.5,244.0,211.0,237.0,219.5,229.5" stroke="black" stroke-width="2" fill="none" />
<polyline points="228.5,226.5,236.5,225.5,244.0,226.0,251.5,226.0,259.0,225.5,266.5,225.0" stroke="black" stroke-width="2" fill="none" />
<polyline points="259.0,220.0,267.5,212.5,275.5,205.5,284.0,197.5,291.5,190.5,299.5,183.0,307.0,176.0,315.5,169.5,323.5,162.0,331.5,154.5,339.5,147.5,347.0,140.5,355.0,132.5" stroke="black" stroke-width="2" fill="none" />
<polyline points="349.5,146.5,341.5,154.0,333.5,162.5,325.5,170.0,317.5,177.0,309.0,184.5,300.5,192.0,291.5,199.5,282.5,206.5,274.5,214.5,267.0,222.0" stroke="black" stroke-width="2" fill="none" />
<polyline points="251.0,227.5,242.0,235.5,235.0,243.5,228.0,252.0,220.0,260.0,211.5,268.0,204.0,276.0,195.0,284.5,186.0,292.5,177.0,300.0,168.5,308.5,158.0,316.0,146.0,325.0,131.0,333.5,137.0,330.5,145.0,325.5,156.5,316.5,164.5,310.5,172.5,305.0,180.5,297.0,188.0,290.0,196.0,282.0,204.5,275.5,212.0,267.5,219.5,259.5,227.5,251.0,235.5,242.0,243.5,233.5,251.5,227.5,265.5,226.5,273.5,224.0,281.5,223.0,290.5,221.5,298.5,219.5,306.5,218.0,314.5,214.0,322.0,209.0,330.5,202.0,338.5,189.0" stroke="black" stroke-width="2" fill="none" />
<polyline points="334.0,193.5,325.5,201.0" stroke="black" stroke-width="2" fill="none" />
<polyline points="307.0,208.0,315.0,200.5,323.0,193.0,332.0,185.5,340.0,178.5" stroke="black" stroke-width="2" fill="none" />
<polyline points="349.5,165.0,341.5,172.5,333.5,180.5,325.0,188.0,317.0,195.5,309.0,203.0,300.5,210.5,292.5,217.0" stroke="black" stroke-width="2" fill="none" />
<polyline points="284.0,215.5,291.5,208.0,299.0,201.0,306.5,193.5,315.5,186.0,324.5,178.5,333.0,171.0,341.5,163.5,349.5,156.0" stroke="black" stroke-width="2" fill="none" />
<polyline points="355.5,156.0,348.0,156.5,340.0,158.0,332.0,159.0,324.0,160.0,316.0,161.0,308.0,162.0,300.0,162.5,292.0,163.0,284.5,164.0,277.0,164.0,269.0,164.5,260.5,165.0,252.5,166.0,244.0,166.5,235.5,166.5,227.0,167.0" stroke="black" stroke-width="2" fill="none" />
<polyline points="225.5,170.0,233.5,170.0,242.0,169.5,250.5,169.0,258.5,168.5,267.5,168.0,276.0,167.5,283.5,167.5,291.5,166.5,300.0,166.0,308.0,165.5,316.0,165.0,324.0,164.5,332.0,164.0,339.5,163.5" stroke="black" stroke-width="2" fill="none" />
<polyline points="332.5,178.0,324.5,178.5,316.5,178.5,308.0,179.0,299.5,179.5,291.0,180.5,283.0,182.0,275.0,182.5,266.5,183.0,259.0,183.5,251.0,184.0,243.0,184.5,235.0,185.0" stroke="black" stroke-width="2" fill="none" />
<polyline points="235.5,180.5,243.5,180.0,251.5,179.5,259.5,179.0,267.5,179.5,275.5,179.0,283.0,178.5,291.5,177.5,300.0,176.5,308.5,175.5,316.5,175.0,324.5,175.0,332.5,175.0,340.5,175.0,348.0,174.5" stroke="black" stroke-width="2" fill="none" />
<polyline points="339.0,193.5,330.5,194.5,322.5,195.0,315.0,195.0,306.5,195.5,298.5,196.0,290.0,197.0,282.0,198.0,274.0,198.5,265.5,198.5" stroke="black" stroke-width="2" fill="none" />
<polyline points="268.0,202.5,276.0,202.0,283.5,201.0,291.0,200.5,299.5,200.0,307.5,199.5,315.0,199.5,322.5,198.5" stroke="black" stroke-width="2" fill="none" />
<polyline points="314.5,206.5,307.0,207.5,299.0,208.5,291.0,209.0,283.0,209.5,275.5,209.0,267.0,209.5,259.0,210.0,251.0,210.0" stroke="black" stroke-width="2" fill="none" />
<polyline points="251.5,205.0,259.0,204.5,266.5,204.0,274.0,203.5,281.5,202.5,289.5,201.5,297.5,201.5,306.0,201.0,314.5,200.5,322.5,200.5,331.0,200.0" stroke="black" stroke-width="2" fill="none" />
<polyline points="331.5,188.0,323.5,188.0,315.5,188.0,307.5,188.5,299.0,189.0,291.0,189.5,283.0,190.5,275.5,191.5,267.5,192.0,259.0,192.5,251.0,192.5" stroke="black" stroke-width="2" fill="none" />
<polyline points="251.0,188.0,259.0,187.5,267.0,187.0,275.0,186.0,283.5,185.0,292.0,184.0,299.5,184.0,307.5,184.0,315.5,184.0,323.5,183.5,331.0,183.0,339.0,182.0,346.5,182.0" stroke="black" stroke-width="2" fill="none" />
<polyline points="339.5,154.0,332.5,155.0,325.5,156.5,318.0,158.0,310.0,159.0,302.0,159.0,294.0,159.0,286.0,159.5,277.5,160.0,269.5,160.0,261.5,161.0,253.0,161.0,245.0,161.5,237.0,162.0,229.0,162.5" stroke="black" stroke-width="2" fill="none" />
<polyline points="227.5,161.5,235.5,153.5,243.0,145.5,250.5,138.0,258.5,131.0" stroke="black" stroke-width="2" fill="none" />
<polyline points="263.0,125.5,271.0,127.5,279.0,131.0,287.5,136.0,295.5,146.0" stroke="black" stroke-width="2" fill="none" />
<polyline points="292.0,138.5,300.0,138.0,308.0,137.5,316.0,137.0,323.5,136.5,331.5,135.5,339.0,135.0,347.0,134.5" stroke="black" stroke-width="2" fill="none" />
<polyline points="354.5,128.0,347.0,128.5,339.5,129.0,332.0,129.5,324.0,131.0,316.0,132.0,308.0,133.0,300.0,134.0,292.0,135.0" stroke="black" stroke-width="2" fill="none" />
<polyline points="292.5,129.0,300.5,122.0,308.0,114.5" stroke="black" stroke-width="2" fill="none" />
<polyline points="300.5,114.0,292.5,121.5,284.5,128.5,276.5,136.0,268.5,143.5,260.5,151.0,253.0,158.5,245.0,166.5,237.5,174.5" stroke="black" stroke-width="2" fill="none" />
<polyline points="227.5,170.5,235.5,182.5,243.5,189.5,252.0,193.0,260.5,195.0,268.5,194.5,276.0,192.5,284.0,188.5,291.5,181.5" stroke="black" stroke-width="2" fill="none" />
<polyline points="266.5,189.0,274.0,181.5,282.0,173.5,290.0,166.0,297.5,158.5,305.5,151.0,313.5,144.0,322.0,136.0,330.5,128.0,338.5,120.5,347.0,112.5,355.5,105.5,364.0,98.0,372.0,90.0,380.5,82.0" stroke="black" stroke-width="2" fill="none" />
<polyline points="387.5,80.5,395.5,80.0,402.5,80.0" stroke="black" stroke-width="2" fill="none" />
<polyline points="403.0,74.0,410.5,74.0" stroke="black" stroke-width="2" fill="none" />
<polyline points="412.5,67.5,404.5,74.5,396.5,82.0,389.0,89.5,381.0,97.0,372.5,104.5,364.5,112.0,356.0,119.0,347.5,126.5,339.5,133.5,331.0,141.0,323.5,148.5,315.5,156.0,307.5,163.5,300.0,171.0,291.5,179.0,283.0,187.0,274.5,194.5,265.5,202.5,257.0,209.5,248.0,217.0" stroke="black" stroke-width="2" fill="none" />
<polyline points="245.0,210.5,237.0,218.0,228.5,225.0,219.5,232.5,211.0,240.0,202.5,247.5,194.5,255.0,186.5,262.0,178.5,269.5,171.0,277.0,163.0,285.0,155.0,292.5,148.0,299.5,140.0,307.0,132.0,315.0,124.5,323.0" stroke="black" stroke-width="2" fill="none" />
<polyline points="122.0,315.5,130.0,315.0,138.0,314.0,146.0,313.0,154.0,312.5" stroke="black" stroke-width="2" fill="none" />
<polyline points="141.0,316.0,148.5,308.5,156.0,301.0,164.0,294.0,172.0,286.5,180.0,279.0,188.0,271.5,196.5,263.5,204.5,255.5,213.0,247.5,221.0,240.0,228.5,232.5,235.5,225.0,243.5,217.5,251.5,210.0,259.0,202.5" stroke="black" stroke-width="2" fill="none" />
<polyline points="260.0,191.5,268.5,184.0,277.0,176.5,285.0,169.5,293.0,161.5,301.0,154.0,309.0,146.5,317.0,139.0,325.5,131.5,333.5,124.0" stroke="black" stroke-width="2" fill="none" />
<polyline points="339.0,121.0,347.0,120.5,354.5,120.5,362.5,120.0,370.0,120.0" stroke="black" stroke-width="2" fill="none" />
<polyline points="379.5,112.0,371.0,112.0,363.0,113.0,355.0,113.5,347.5,114.0" stroke="black" stroke-width="2" fill="none" />
<polyline points="348.5,109.5,356.0,109.5,364.5,109.0,372.5,109.0,380.5,108.5,388.5,109.0,396.5,108.5" stroke="black" stroke-width="2" fill="none" />
<polyline points="395.5,98.5,387.0,99.0,378.5,99.0,370.5,99.5,362.5,100.0,354.5,101.0" stroke="black" stroke-width="2" fill="none" />
<polyline points="355.0,97.5,363.0,90.0" stroke="black" stroke-width="2" fill="none" />
<polyline points="357.0,85.5,348.5,93.0" stroke="black" stroke-width="2" fill="none" />
<polyline points="347.5,89.0,356.0,89.0" stroke="black" stroke-width="2" fill="none" />
<polyline points="355.5,93.0,363.5,93.0,371.0,92.0,379.0,91.5,387.0,91.0,395.0,90.0" stroke="black" stroke-width="2" fill="none" />
<polyline points="396.0,93.0,387.0,93.5,378.5,94.0,370.0,94.5,361.5,95.5,353.0,96.5" stroke="black" stroke-width="2" fill="none" />
<polyline points="353.5,86.0,345.0,86.5" stroke="black" stroke-width="2" fill="none" />
<polyline points="341.0,82.5,348.5,75.0" stroke="black" stroke-width="2" fill="none" />
<polyline points="347.5,80.5,339.5,81.0" stroke="black" stroke-width="2" fill="none" />
<polyline points="339.0,76.0,347.0,75.0" stroke="black" stroke-width="2" fill="none" />
<polyline points="347.5,68.5,355.5,74.5,363.0,81.0,371.0,87.0" stroke="black" stroke-width="2" fill="none" />
<polyline points="370.5,86.0,378.5,85.0,386.5,84.5,394.5,83.5,403.0,83.5" stroke="black" stroke-width="2" fill="none" />
<polyline points="410.5,74.0,402.5,74.5,394.5,74.5,386.5,74.5,378.5,74.5,370.5,75.0,362.5,75.5" stroke="black" stroke-width="2" fill="none" />
<polyline points="362.5,74.0,370.0,67.0" stroke="black" stroke-width="2" fill="none" />
<polyline points="365.5,66.0,357.5,73.5" stroke="black" stroke-width="2" fill="none" />
<polyline points="356.5,75.5,365.0,75.0,373.0,74.0" stroke="black" stroke-width="2" fill="none" />
<polyline points="371.5,74.0,363.5,81.5" stroke="black" stroke-width="2" fill="none" />
<polyline points="361.5,79.0,369.5,79.0,378.5,79.0" stroke="black" stroke-width="2" fill="none" />
<polyline points="372.0,81.5,381.0,74.0,390.0,66.0,398.0,58.5" stroke="black" stroke-width="2" fill="none" />
<polyline points="395.5,68.0,387.5,75.5" stroke="black" stroke-width="2" fill="none" />
<polyline points="394.0,71.5,386.0,72.0,378.0,72.0" stroke="black" stroke-width="2" fill="none" />
<polyline points="374.5,69.0,382.5,75.0" stroke="black" stroke-width="2" fill="none" />
<polyline points="380.0,66.0,388.0,58.5" stroke="black" stroke-width="2" fill="none" />
<polyline points="380.0,52.0,372.0,59.5" stroke="black" stroke-width="2" fill="none" />
<polyline points="377.5,61.0,385.5,60.5,393.0,60.5" stroke="black" stroke-width="2" fill="none" />
<polyline points="395.0,64.0,386.5,64.5,379.0,65.0" stroke="black" stroke-width="2" fill="none" />
<polyline points="365.5,59.5,374.0,52.0,382.0,44.5" stroke="black" stroke-width="2" fill="none" />
<polyline points="378.5,49.0,370.5,49.5" stroke="black" stroke-width="2" fill="none" />
<polyline points="369.5,44.0,378.0,43.5" stroke="black" stroke-width="2" fill="none" />
<polyline points="375.5,46.0,380.5,54.0,372.5,62.0,380.5,73.5,385.5,81.0,390.0,73.0" stroke="black" stroke-width="2" fill="none" />
<polyline points="413.0,62.5,421.0,62.0" stroke="black" stroke-width="2" fill="none" />
<polyline points="396.0,66.0,388.0,67.0,379.5,68.0,371.5,69.5,363.5,70.5,355.0,71.0" stroke="black" stroke-width="2" fill="none" />
<polyline points="361.0,65.5,371.0,73.5" stroke="black" stroke-width="2" fill="none" />
<polyline points="364.5,56.0,372.0,56.0,379.5,55.0" stroke="black" stroke-width="2" fill="none" />
<polyline points="379.0,51.0,371.0,51.0,362.5,51.5" stroke="black" stroke-width="2" fill="none" />
<polyline points="361.5,56.0,369.5,62.5,377.0,57.5" stroke="black" stroke-width="2" fill="none" />
<polyline points="362.5,61.0,355.0,61.5" stroke="black" stroke-width="2" fill="none" />
<polyline points="348.0,58.5,356.0,54.5,364.0,47.5,372.0,44.5,380.0,48.5,382.5,58.5,373.5,66.0,376.0,64.5,384.0,57.5,390.5,46.0,394.5,58.0,392.5,61.5,393.5,69.5" stroke="black" stroke-width="2" fill="none" />
<polyline points="399.5,46.0,391.0,40.5,383.0,35.5" stroke="black" stroke-width="2" fill="none" />
<polyline points="382.0,34.5,390.0,37.0,398.0,43.0,406.0,49.0" stroke="black" stroke-width="2" fill="none" />
<polyline points="412.5,70.0,404.5,80.0,396.5,90.5,388.5,99.5,402.5,96.5" stroke="black" stroke-width="2" fill="none" />
<polyline points="421.5,139.0,429.5,139.0,437.5,138.5" stroke="black" stroke-width="2" fill="none" />
<polyline points="436.0,137.5,428.0,145.0,420.0,152.5" stroke="black" stroke-width="2" fill="none" />
<polyline points="417.5,151.5,425.5,152.5,434.0,160.5,442.5,167.5,450.0,176.5" stroke="black" stroke-width="2" fill="none" />
<polyline points="452.0,177.5,460.0,177.0,468.0,177.0,475.5,177.0" stroke="black" stroke-width="2" fill="none" />
<polyline points="473.5,175.5,466.5,183.5" stroke="black" stroke-width="2" fill="none" />
<polyline points="459.5,186.0,467.0,178.5,475.0,171.0" stroke="black" stroke-width="2" fill="none" />
<polyline points="467.5,169.0,459.0,177.0,450.5,184.5" stroke="black" stroke-width="2" fill="none" />
<polyline points="449.0,187.0,435.5,195.0,424.5,203.0,412.5,211.0,402.5,219.5,394.0,227.5,386.0,235.5,376.5,243.5,367.5,251.5,360.5,259.5,353.0,267.5,347.0,275.5,341.0,283.5,335.0,291.5,328.0,300.0,318.0,308.0" stroke="black" stroke-width="2" fill="none" />
<polyline points="308.0,313.0,315.5,306.0,323.5,298.0,332.5,289.5,341.0,281.5,349.0,274.0,356.5,266.5" stroke="black" stroke-width="2" fill="none" />
<polyline points="354.5,260.0,362.5,259.5" stroke="black" stroke-width="2" fill="none" />
<polyline points="339.0,275.0,331.0,282.0,323.0,289.0,315.0,296.0,307.0,304.0,298.5,311.5" stroke="black" stroke-width="2" fill="none" />
<polyline points="300.0,311.0,308.0,310.0,315.5,309.5" stroke="black" stroke-width="2" fill="none" />
<polyline points="316.5,312.0,308.5,312.0,300.5,312.0" stroke="black" stroke-width="2" fill="none" />
<polyline points="300.0,303.5,307.5,296.0,315.5,289.0,323.5,282.5,331.5,276.0" stroke="black" stroke-width="2" fill="none" />
<polyline points="333.0,280.5,341.5,280.0,349.5,279.5" stroke="black" stroke-width="2" fill="none" />
<polyline points="324.0,275.0,316.0,282.5,307.5,290.5,299.5,298.0,291.5,305.0" stroke="black" stroke-width="2" fill="none" />
<polyline points="285.5,307.0,293.5,306.5,301.5,305.5,309.5,305.0,317.0,304.5,325.0,304.0" stroke="black" stroke-width="2" fill="none" />
<polyline points="321.5,290.0,329.5,289.5,338.0,289.0" stroke="black" stroke-width="2" fill="none" />
<polyline points="321.0,268.0,313.5,276.0,306.0,283.5,298.0,291.0,291.0,298.0,283.0,305.5" stroke="black" stroke-width="2" fill="none" />
<polyline points="284.0,301.0,292.0,301.0,300.0,301.0,307.5,300.5,315.0,299.5,323.0,298.5,330.5,297.5" stroke="black" stroke-width="2" fill="none" />
<polyline points="322.5,272.5,315.0,273.0" stroke="black" stroke-width="2" fill="none" />
<polyline points="316.0,266.0,308.0,273.5,300.0,281.0,292.5,288.5,284.5,295.5" stroke="black" stroke-width="2" fill="none" />
<polyline points="276.5,299.0,284.5,291.0,292.5,283.0,300.0,275.5,308.0,268.0" stroke="black" stroke-width="2" fill="none" />
<polyline points="311.0,265.5,319.0,269.5,319.0,274.5" stroke="black" stroke-width="2" fill="none" />
<polyline points="309.0,261.0,300.5,269.0,293.0,276.5,285.0,284.0,277.0,291.0" stroke="black" stroke-width="2" fill="none" />
<polyline points="275.5,291.0,283.0,290.5,290.5,290.0,298.5,289.0,306.0,288.0,314.0,286.5" stroke="black" stroke-width="2" fill="none" />
<polyline points="292.5,268.0,284.0,275.5,276.0,283.0" stroke="black" stroke-width="2" fill="none" />
<polyline points="276.0,283.0,283.5,282.5,292.0,281.5,300.5,280.5" stroke="black" stroke-width="2" fill="none" />
<polyline points="291.0,273.5,282.5,274.5" stroke="black" stroke-width="2" fill="none" />
<polyline points="282.0,268.5,290.5,267.5,298.5,267.5,307.0,267.0,315.0,267.0,323.0,266.5,331.5,266.0,340.0,265.0,348.0,264.5,355.5,264.0" stroke="black" stroke-width="2" fill="none" />
<polyline points="339.5,252.5,331.5,253.5" stroke="black" stroke-width="2" fill="none" />
<polyline points="332.5,256.5,324.0,253.0" stroke="black" stroke-width="2" fill="none" />
<polyline points="324.5,251.0,316.5,251.5,308.5,251.5" stroke="black" stroke-width="2" fill="none" />
<polyline points="316.0,243.5,323.5,243.0" stroke="black" stroke-width="2" fill="none" />
<polyline points="327.5,252.5,331.5,260.5,328.5,256.5" stroke="black" stroke-width="2" fill="none" />
<polyline points="339.0,259.5,331.5,260.5,323.0,261.0,314.5,262.0,306.5,262.5,299.0,262.5,291.0,263.0" stroke="black" stroke-width="2" fill="none" />
<polyline points="277.0,278.5,285.0,277.5,293.0,277.0,301.0,277.0,308.5,277.5,316.5,276.5,324.5,276.0,332.0,275.0,339.5,274.5,347.0,274.0" stroke="black" stroke-width="2" fill="none" />
<polyline points="332.0,293.5,323.0,293.5,314.5,293.5,306.5,294.0,298.0,294.5,290.0,295.0,282.0,296.0,273.5,296.5" stroke="black" stroke-width="2" fill="none" />
<polyline points="274.0,294.0,282.0,293.0,290.0,292.5,298.0,292.0,306.0,291.0,314.0,290.5,322.0,290.0,330.5,289.0,338.5,288.5" stroke="black" stroke-width="2" fill="none" />
<polyline points="339.5,281.0,331.5,281.5,323.5,282.0,315.5,282.5,307.0,283.5,299.0,284.0,290.5,285.0,282.5,286.5,274.5,287.0" stroke="black" stroke-width="2" fill="none" />
<polyline points="272.5,285.5,280.5,274.5,288.5,269.0,296.0,262.5,303.5,255.5,311.5,246.0,322.5,240.5,330.5,229.5,338.5,223.0,347.0,218.0,352.0,212.0,361.0,204.0,368.5,197.5,376.5,189.5,380.0,188.0" stroke="black" stroke-width="2" fill="none" />
<polyline points="383.5,184.5,378.0,187.5,370.0,195.5,361.0,203.0,353.0,210.0,346.5,217.5,335.5,226.0,326.5,235.5,317.5,241.5,311.0,250.0,302.5,258.0,292.5,266.0,283.0,273.5,275.0,281.5,274.0,289.5,277.0,297.5,283.5,305.5,298.0,313.0" stroke="black" stroke-width="2" fill="none" />
<polyline points="273.5,293.5,281.5,303.5,289.5,310.5,297.5,313.0,305.5,315.0,313.5,313.5,321.0,307.0,328.5,300.0,336.5,290.0,344.5,279.0,353.0,269.0,360.5,259.5,368.5,251.0,376.5,244.0,385.0,236.0,394.0,227.5,402.0,220.5,410.0,214.5,418.0,208.5,426.5,202.5,434.5,197.5,442.5,192.5,450.5,188.5,458.5,188.5,466.5,183.5,474.0,175.5,482.5,174.5,491.0,170.5,499.0,166.5,507.5,159.5" stroke="black" stroke-width="2" fill="none" />
<polyline points="500.0,153.0,507.5,152.0,515.5,151.5" stroke="black" stroke-width="2" fill="none" />
<polyline points="515.5,149.5,507.0,150.0,499.0,150.5,491.0,151.5" stroke="black" stroke-width="2" fill="none" />
<polyline points="490.5,157.0,498.0,156.5,506.5,156.0" stroke="black" stroke-width="2" fill="none" />
<polyline points="506.0,159.0,498.0,159.0,489.5,159.5" stroke="black" stroke-width="2" fill="none" />
<polyline points="483.0,165.5,491.0,165.5,499.0,165.5,507.0,165.0" stroke="black" stroke-width="2" fill="none" />
<polyline points="498.0,167.5,490.5,167.5,482.5,168.5" stroke="black" stroke-width="2" fill="none" />
<polyline points="491.0,169.5,498.5,162.5,506.5,155.0,515.0,147.5" stroke="black" stroke-width="2" fill="none" />
<polyline points="515.0,144.0,507.5,144.5" stroke="black" stroke-width="2" fill="none" />
<polyline points="509.5,140.5,518.0,133.5" stroke="black" stroke-width="2" fill="none" />
<polyline points="516.5,138.5,508.5,146.0,500.0,154.5,491.5,162.5,483.5,170.5" stroke="black" stroke-width="2" fill="none" />
<polyline points="460.0,170.5,452.0,178.0,444.0,186.5,436.0,194.0,427.5,201.0" stroke="black" stroke-width="2" fill="none" />
<polyline points="426.5,202.0,418.5,203.0" stroke="black" stroke-width="2" fill="none" />
<polyline points="419.5,197.5,427.5,196.5,435.0,196.5" stroke="black" stroke-width="2" fill="none" />
<polyline points="428.5,191.5,436.5,191.0,444.5,191.0" stroke="black" stroke-width="2" fill="none" />
<polyline points="444.5,179.5,436.5,186.5,428.0,194.0,419.0,201.5,410.5,209.0,402.0,217.0,394.0,224.5" stroke="black" stroke-width="2" fill="none" />
<polyline points="394.0,223.5,402.0,223.0" stroke="black" stroke-width="2" fill="none" />
<polyline points="404.5,219.0,412.5,219.0" stroke="black" stroke-width="2" fill="none" />
<polyline points="412.0,214.0,404.5,214.0" stroke="black" stroke-width="2" fill="none" />
<polyline points="413.5,208.5,421.5,208.0" stroke="black" stroke-width="2" fill="none" />
<polyline points="420.5,206.0,412.0,206.0" stroke="black" stroke-width="2" fill="none" />
<polyline points="390.0,203.0,382.0,210.5" stroke="black" stroke-width="2" fill="none" />
<polyline points="378.5,208.0,386.5,207.5" stroke="black" stroke-width="2" fill="none" />
<polyline points="385.5,204.0,378.0,204.5" stroke="black" stroke-width="2" fill="none" />
<polyline points="380.0,205.0,388.0,210.0" stroke="black" stroke-width="2" fill="none" />
<polyline points="381.0,206.0,383.5,204.0,379.5,203.0" stroke="black" stroke-width="2" fill="none" />
<polyline points="379.5,218.5,371.0,226.5" stroke="black" stroke-width="2" fill="none" />
<polyline points="370.5,225.5,378.5,225.0" stroke="black" stroke-width="2" fill="none" />
<polyline points="379.0,220.0,371.0,220.5" stroke="black" stroke-width="2" fill="none" />
<polyline points="375.0,222.0,367.5,217.0" stroke="black" stroke-width="2" fill="none" />
<polyline points="367.0,216.0,372.0,224.0" stroke="black" stroke-width="2" fill="none" />
<polyline points="363.5,227.5,355.0,228.0" stroke="black" stroke-width="2" fill="none" />
<polyline points="353.5,227.5,358.0,235.5,361.0,235.5" stroke="black" stroke-width="2" fill="none" />
<polyline points="347.0,247.5,348.0,245.5,340.0,240.5" stroke="black" stroke-width="2" fill="none" />
<polyline points="341.0,241.0,344.0,249.0,347.0,249.0" stroke="black" stroke-width="2" fill="none" />
<polyline points="393.0,227.0,401.0,226.0" stroke="black" stroke-width="2" fill="none" />
<polyline points="429.0,189.0,437.0,188.5,445.0,187.5,453.0,187.0" stroke="black" stroke-width="2" fill="none" />
<polyline points="453.5,173.5,461.5,173.0,469.0,173.0,476.5,172.5,484.0,172.5" stroke="black" stroke-width="2" fill="none" />
<polyline points="459.0,163.5,451.0,170.5" stroke="black" stroke-width="2" fill="none" />
<polyline points="443.5,170.5,451.5,170.0,459.5,169.0" stroke="black" stroke-width="2" fill="none" />
<polyline points="450.5,162.0,442.5,169.5" stroke="black" stroke-width="2" fill="none" />
<polyline points="443.0,165.0,450.5,164.5,458.5,164.0,466.5,163.5" stroke="black" stroke-width="2" fill="none" />
<polyline points="443.5,155.5,435.5,163.5" stroke="black" stroke-width="2" fill="none" />
<polyline points="435.0,161.0,443.5,160.5" stroke="black" stroke-width="2" fill="none" />
<polyline points="437.0,155.5,445.5,147.5" stroke="black" stroke-width="2" fill="none" />
<polyline points="435.5,146.0,428.0,154.0" stroke="black" stroke-width="2" fill="none" />
<polyline points="427.5,154.0,435.0,153.5" stroke="black" stroke-width="2" fill="none" />
<polyline points="435.0,155.0,443.0,155.0,450.5,154.0" stroke="black" stroke-width="2" fill="none" />
<polyline points="445.0,147.0,437.5,148.5,429.5,149.0,421.5,149.0" stroke="black" stroke-width="2" fill="none" />
<polyline points="423.5,150.0,431.5,158.0,440.5,166.5,444.5,174.5,437.5,182.5,430.0,190.5,422.0,199.0,413.5,207.0,405.5,215.0,396.0,223.0,388.0,230.5,379.0,239.0,370.0,247.0,362.0,255.0,353.0,263.0,344.5,271.0,335.5,279.0,326.5,287.0,322.0,292.0,330.0,285.5,338.0,278.5,345.5,270.5,353.5,262.5,361.0,255.0,368.0,247.0,375.5,239.5,383.5,231.5,391.0,224.0,399.0,217.0,407.0,208.5,415.0,201.5,423.0,193.5,431.5,186.0,440.0,178.5,444.0,176.5" stroke="black" stroke-width="2" fill="none" />
<polyline points="436.0,183.0,443.5,182.0,451.0,181.0,459.0,180.5,467.5,179.5" stroke="black" stroke-width="2" fill="none" />
<polyline points="466.5,183.5,458.0,184.0,449.5,185.0,441.5,186.0,433.5,186.5" stroke="black" stroke-width="2" fill="none" />
<polyline points="433.5,149.0,431.0,149.0" stroke="black" stroke-width="2" fill="none" />
<polyline points="433.5,143.0,439.5,151.0,447.0,159.0,456.0,165.0" stroke="black" stroke-width="2" fill="none" />
<polyline points="436.0,144.0,428.0,144.5,420.0,145.0" stroke="black" stroke-width="2" fill="none" />
<polyline points="418.0,145.5,426.0,138.0" stroke="black" stroke-width="2" fill="none" />
<polyline points="426.5,137.0,415.5,140.5,414.0,147.5,411.0,156.0,412.5,153.0,415.5,141.0,423.5,137.0,431.0,139.0,439.0,148.0,447.0,157.0,456.5,164.0,461.0,168.0,469.0,169.5,477.5,167.5,485.5,164.5,493.5,159.0,502.0,149.0" stroke="black" stroke-width="2" fill="none" />
<polyline points="512.0,150.5,507.0,158.5,498.0,166.0" stroke="black" stroke-width="2" fill="none" />
<polyline points="499.5,138.0,507.5,130.0,515.5,122.0" stroke="black" stroke-width="2" fill="none" />
<polyline points="507.5,122.5,499.5,129.5,491.0,137.0" stroke="black" stroke-width="2" fill="none" />
<polyline points="490.5,133.0,498.5,132.5,507.0,132.0,515.5,132.0" stroke="black" stroke-width="2" fill="none" />
<polyline points="515.5,135.5,507.5,136.5" stroke="black" stroke-width="2" fill="none" />
<polyline points="506.5,129.0,515.0,128.0" stroke="black" stroke-width="2" fill="none" />
<polyline points="508.0,115.5,500.0,123.0,492.5,130.5" stroke="black" stroke-width="2" fill="none" />
<polyline points="494.0,123.5,502.0,115.5" stroke="black" stroke-width="2" fill="none" />
<polyline points="498.0,119.0,506.0,119.0" stroke="black" stroke-width="2" fill="none" />
<polyline points="514.0,122.0,506.0,122.0,497.0,122.5,489.0,123.0" stroke="black" stroke-width="2" fill="none" />
<polyline points="482.5,118.0,490.0,117.5,498.0,117.0,506.0,116.0" stroke="black" stroke-width="2" fill="none" />
<polyline points="499.5,109.0,491.0,109.5,483.0,110.0" stroke="black" stroke-width="2" fill="none" />
<polyline points="484.5,101.0,493.0,100.5" stroke="black" stroke-width="2" fill="none" />
<polyline points="485.0,91.0,493.0,84.0" stroke="black" stroke-width="2" fill="none" />
<polyline points="492.0,90.0,484.0,90.5" stroke="black" stroke-width="2" fill="none" />
<polyline points="482.5,85.5,490.5,85.0" stroke="black" stroke-width="2" fill="none" />
<polyline points="481.5,84.0,482.0,92.0,479.0,99.5,493.0,107.5,500.0,115.5,502.5,123.5" stroke="black" stroke-width="2" fill="none" />
<polyline points="515.5,139.5,507.0,139.5,499.0,140.0,491.0,140.5,483.0,141.0" stroke="black" stroke-width="2" fill="none" />
<polyline points="482.5,119.5,474.5,114.0" stroke="black" stroke-width="2" fill="none" />
<polyline points="472.5,107.5,478.0,115.5,484.5,123.5,487.5,131.5,484.5,139.5,478.0,147.5,480.0,145.5" stroke="black" stroke-width="2" fill="none" />
<polyline points="495.5,111.0,487.5,103.0,479.5,100.0" stroke="black" stroke-width="2" fill="none" />
<polyline points="458.0,98.5,465.5,98.5,473.5,97.5,476.0,96.0,483.0,90.0,485.5,91.5,487.5,97.5,495.0,105.0,503.0,112.0" stroke="black" stroke-width="2" fill="none" />
<polyline points="505.5,71.5,496.0,79.5,490.0,87.5,483.0,95.5,491.5,103.0,500.5,111.0,505.5,119.0,503.5,127.5,503.5,135.5,502.5,144.0,499.0,152.5,492.0,160.0,475.5,168.0" stroke="black" stroke-width="2" fill="none" />
<polyline points="434.5,155.5,429.5,147.0,428.5,143.0" stroke="black" stroke-width="2" fill="none" />
<polyline points="396.5,167.0,393.0,173.5" stroke="black" stroke-width="2" fill="none" />
<polyline points="356.5,148.5,348.5,149.5,340.5,150.5,332.5,151.0,324.5,151.5,316.0,152.5,308.0,152.5,300.0,153.5,292.5,154.5,285.0,155.0,277.5,155.5,269.5,156.0,261.5,156.5,253.0,157.0,244.5,157.5,236.0,158.0,228.0,158.0" stroke="black" stroke-width="2" fill="none" />
<polyline points="228.0,153.5,235.5,153.0,243.5,153.0,252.0,153.0,260.5,152.5,268.5,152.0,276.5,152.0,285.0,152.0,293.0,151.5,301.0,151.0,309.5,150.0,317.5,149.5,325.5,148.5,333.5,148.0,341.0,147.5" stroke="black" stroke-width="2" fill="none" />
<polyline points="342.0,146.0,350.0,132.5,357.5,124.5,365.0,119.5,373.0,115.5,380.5,109.0,389.0,100.5,397.0,91.5,400.5,92.5,396.5,93.0,389.5,101.0,383.0,109.0,371.5,117.0,356.5,125.0,349.5,133.5,343.0,141.5,341.0,149.5,339.0,157.5,337.0,166.0,335.5,174.0,333.5,182.5,330.5,190.0,324.5,198.0,316.0,205.5,302.0,213.5" stroke="black" stroke-width="2" fill="none" />
<polyline points="298.0,214.0,291.0,215.0,283.0,216.0,275.0,217.0,268.0,217.5,260.0,217.5,252.5,217.5,244.5,217.5,236.5,218.0" stroke="black" stroke-width="2" fill="none" />
<polyline points="236.0,209.5,243.5,209.0" stroke="black" stroke-width="2" fill="none" />
<polyline points="251.0,199.5,242.5,200.0,234.0,200.0" stroke="black" stroke-width="2" fill="none" />
<polyline points="236.5,196.0,228.5,203.0,220.5,210.0" stroke="black" stroke-width="2" fill="none" />
<polyline points="228.0,211.5,236.0,204.0,244.0,196.5,252.0,189.0,260.0,181.5,268.0,174.0,275.5,167.0,283.0,159.5,291.5,152.0,299.0,144.5,306.5,137.5,315.0,130.0,322.5,122.5" stroke="black" stroke-width="2" fill="none" />
<polyline points="315.5,116.0,307.0,124.0,299.0,132.0,291.0,139.5,283.0,146.0,275.0,153.0,267.5,160.5,260.0,168.0,252.5,175.5,244.5,183.0" stroke="black" stroke-width="2" fill="none" />
<polyline points="250.0,181.5,258.0,174.0,267.0,166.5,276.0,158.5,284.5,151.0,292.5,143.5,300.5,136.0,308.5,128.5,317.0,120.5,324.5,113.0" stroke="black" stroke-width="2" fill="none" />
<polyline points="314.5,110.0,307.0,111.0,299.0,111.0" stroke="black" stroke-width="2" fill="none" />
<polyline points="298.5,115.0,306.5,116.0,310.0,119.5,316.0,115.5,324.0,123.5" stroke="black" stroke-width="2" fill="none" />
<polyline points="316.5,120.0,309.5,121.5,302.0,123.0,294.0,124.0" stroke="black" stroke-width="2" fill="none" />
<polyline points="292.0,117.5,300.0,117.5,308.5,116.5,316.5,116.0,324.5,115.5,332.5,114.5,340.5,113.5,347.5,112.5,355.0,112.0,362.5,111.5,370.5,110.5,378.5,110.0" stroke="black" stroke-width="2" fill="none" />
<polyline points="356.0,124.5,348.5,124.5,340.0,125.0,331.5,126.0,323.5,126.5,315.0,126.5,306.5,127.5,298.0,128.0,289.5,128.5,281.5,129.0,274.0,129.5,266.0,130.0" stroke="black" stroke-width="2" fill="none" />
<polyline points="267.0,126.5,274.5,126.0,282.0,125.5,289.5,125.0,297.5,124.0,305.5,124.0,314.0,123.0,322.5,122.5,331.0,121.5,339.5,121.0,347.5,120.0,356.0,120.0,363.5,119.5" stroke="black" stroke-width="2" fill="none" />
<polyline points="347.0,139.0,339.5,139.5,331.5,140.5,324.0,141.0,316.0,142.0,308.0,142.5,300.5,142.0,292.5,142.0,284.5,143.0,276.5,143.5,269.0,144.0,261.0,144.5,253.5,145.5,245.5,146.0,237.5,146.5" stroke="black" stroke-width="2" fill="none" />
<polyline points="236.5,143.5,244.0,143.0,252.0,142.5,260.0,141.5,268.0,141.0,276.0,141.0,283.5,140.0,291.0,139.5,298.5,139.0,307.0,138.5,315.0,138.0,323.0,138.0,330.5,137.0,338.5,136.5,347.0,135.5,355.5,135.0" stroke="black" stroke-width="2" fill="none" />
<polyline points="347.0,141.5,339.0,142.5,331.5,143.5,324.0,144.0,316.0,144.0,308.0,144.0,300.0,145.0,291.5,146.0,283.0,147.0,275.0,147.5,267.0,147.5,259.0,148.0,251.5,148.5,243.5,149.0,235.5,149.5,227.5,150.5" stroke="black" stroke-width="2" fill="none" />
<polyline points="226.5,152.0,234.0,138.0,242.0,133.5,250.5,129.5,258.5,124.5,266.5,123.0,275.0,119.0,283.0,120.5,291.0,116.5,299.0,107.0,307.0,109.0,315.5,112.0,317.5,115.5,325.0,123.5" stroke="black" stroke-width="2" fill="none" />
<polyline points="342.0,100.0,334.0,93.0,326.5,85.0" stroke="black" stroke-width="2" fill="none" />
<polyline points="324.5,83.5,330.5,91.5,339.5,100.0,348.5,108.0,341.0,115.5,333.0,123.5,331.5,124.5,339.5,116.5,347.5,109.0" stroke="black" stroke-width="2" fill="none" />
<polyline points="370.5,86.0,360.0,78.0,350.0,70.0,354.0,57.5,357.0,54.5,367.0,46.5,363.0,43.5" stroke="black" stroke-width="2" fill="none" />
<polyline points="386.5,35.0,398.5,43.0,407.5,51.5,411.5,59.5,411.5,67.5,407.5,75.5,401.0,83.0,394.5,90.5,388.0,98.0,389.0,110.0,378.5,118.0,363.5,126.0,356.0,134.0,352.0,142.5,348.5,151.0,347.0,159.0,345.0,167.5,343.0,175.5,341.0,183.5,337.5,191.5,333.5,199.5,324.5,207.5,313.0,216.0" stroke="black" stroke-width="2" fill="none" />
<polyline points="339.0,169.5,331.0,170.0,323.0,170.0,314.5,170.5,306.5,170.5,298.0,171.5,290.0,172.0,282.0,172.5,274.0,173.5,266.5,174.5,258.5,175.5,251.0,175.5,243.0,176.5,235.0,177.0,227.0,177.0,218.5,177.0" stroke="black" stroke-width="2" fill="none" />
<polyline points="221.5,173.5,229.5,173.0,237.0,172.0,244.5,170.5,252.0,170.0,259.5,169.0,267.0,168.5,274.5,168.5,282.5,168.5,290.0,168.0,297.5,167.5,306.0,167.0,314.0,166.0,322.0,165.5,330.5,165.0,338.5,164.5,347.0,164.5" stroke="black" stroke-width="2" fill="none" />
<polyline points="348.0,148.0,356.0,133.0,364.0,126.0,372.0,121.5,380.5,117.5,388.5,110.5,394.5,102.5" stroke="black" stroke-width="2" fill="none" />
<polyline points="451.5,98.0,448.5,100.5,441.5,104.0,449.0,98.0,457.0,95.0,464.5,94.0,472.5,90.5,478.0,83.0,486.0,83.0,493.5,78.0,501.5,71.0,504.5,71.0" stroke="black" stroke-width="2" fill="none" />
<polyline points="379.0,79.0,371.0,73.0,363.0,65.5,354.5,63.5,346.5,65.5" stroke="black" stroke-width="2" fill="none" />
<polyline points="336.0,68.0,344.0,63.0,336.0,69.0,337.5,72.5,339.5,80.0,348.5,88.5,357.5,96.5,355.5,104.5,355.5,102.5" stroke="black" stroke-width="2" fill="none" />
<polyline points="351.5,91.0,343.5,84.0,335.5,77.0" stroke="black" stroke-width="2" fill="none" />
<polyline points="335.5,76.5,343.0,76.0,351.0,82.0,359.0,87.5,367.0,91.5" stroke="black" stroke-width="2" fill="none" />
<polyline points="364.5,93.0,353.5,85.0,343.5,76.5,328.0,78.5" stroke="black" stroke-width="2" fill="none" />
<polyline points="328.5,82.5,337.0,90.5,346.0,98.5,353.0,106.5" stroke="black" stroke-width="2" fill="none" />
<polyline points="348.5,101.0,340.5,95.0,333.0,87.0,325.0,81.5" stroke="black" stroke-width="2" fill="none" />
<polyline points="298.0,106.0,292.5,114.0" stroke="black" stroke-width="2" fill="none" />
<polyline points="284.5,125.0,276.5,132.5,268.5,140.0,260.5,147.0,252.5,154.5,244.0,161.5,236.0,168.5,227.5,175.5,219.5,182.5,211.5,190.0" stroke="black" stroke-width="2" fill="none" />
<polyline points="212.5,185.0,220.5,184.5,228.5,183.5" stroke="black" stroke-width="2" fill="none" />
<polyline points="228.0,188.5,220.0,196.0,212.5,203.5" stroke="black" stroke-width="2" fill="none" />
<polyline points="220.5,198.5,228.5,191.5,236.0,185.0,243.5,178.0,251.5,171.0,259.5,163.5,267.5,156.0,275.5,148.0,283.5,140.5" stroke="black" stroke-width="2" fill="none" />
<polyline points="284.0,133.5,276.0,134.0,268.0,134.5,259.5,135.0,251.0,135.0,243.0,135.5" stroke="black" stroke-width="2" fill="none" />
<polyline points="244.0,134.0,251.5,133.0,259.5,132.0,267.5,131.5,275.5,130.5,283.5,130.5" stroke="black" stroke-width="2" fill="none" />
<polyline points="276.0,129.5,288.0,137.5,294.5,145.0,298.5,153.0,299.5,162.5,298.5,170.5,294.5,178.5,287.0,187.5,271.0,195.5" stroke="black" stroke-width="2" fill="none" />
<polyline points="259.5,192.0,252.0,193.0,243.5,194.0,236.0,195.0,228.0,195.5,220.5,195.5,213.0,196.0,204.5,196.5,196.5,197.0" stroke="black" stroke-width="2" fill="none" />
<polyline points="203.5,190.0,211.0,182.5,219.0,176.0,227.0,169.5,235.0,163.0,243.0,155.0,251.0,147.0,259.5,139.0,268.0,131.5,276.0,124.0" stroke="black" stroke-width="2" fill="none" />
<polyline points="271.0,131.5,285.0,139.5,292.0,147.0,296.0,155.0,297.0,163.0,296.0,171.0,292.0,178.5,284.0,186.5" stroke="black" stroke-width="2" fill="none" />
<polyline points="298.5,217.5,290.5,218.0,282.0,218.5,274.5,219.0,266.5,219.0,259.0,219.5,251.0,219.5,243.5,219.5,236.0,220.0,228.5,220.5,221.0,221.0,213.0,221.5" stroke="black" stroke-width="2" fill="none" />
<polyline points="206.0,212.0,214.0,211.5,221.5,211.5,229.0,211.0,236.5,210.5,243.5,210.0,250.5,210.0,258.5,210.0,266.0,209.5,273.5,209.5,282.0,209.0,290.0,208.5,297.5,208.0,305.5,207.5,314.0,207.0" stroke="black" stroke-width="2" fill="none" />
<polyline points="300.0,158.0,292.0,143.0,284.0,136.0,275.5,132.0,267.5,130.5,259.0,129.0,251.0,130.0" stroke="black" stroke-width="2" fill="none" />
<polyline points="251.0,130.5,243.0,137.5,235.5,145.0,228.0,152.5" stroke="black" stroke-width="2" fill="none" />
<polyline points="226.5,141.5,225.0,143.0,231.0,135.0" stroke="black" stroke-width="2" fill="none" />
<polyline points="240.0,128.5,246.0,132.0,234.0,140.0,229.0,148.0,227.0,156.0,226.5,164.0,228.5,172.0,232.5,180.0,241.0,188.0,253.0,201.5,256.0,203.5,248.5,211.5,239.5,212.5,241.0,208.0" stroke="black" stroke-width="2" fill="none" />
<polyline points="243.0,201.5,235.5,202.5,227.5,203.5,219.5,204.5,211.5,205.5,203.5,206.5,195.5,207.0" stroke="black" stroke-width="2" fill="none" />
<polyline points="205.5,187.5,213.5,187.0,221.0,186.5,228.5,187.0,236.0,187.0" stroke="black" stroke-width="2" fill="none" />
<polyline points="243.5,195.0,236.0,202.5,227.5,209.0" stroke="black" stroke-width="2" fill="none" />
<polyline points="234.0,192.0,225.5,192.5,217.0,193.0" stroke="black" stroke-width="2" fill="none" />
<polyline points="211.0,180.5,218.5,180.5,226.5,180.5" stroke="black" stroke-width="2" fill="none" />
<polyline points="222.0,173.0,225.0,181.0,229.0,189.0" stroke="black" stroke-width="2" fill="none" />
<polyline points="244.0,196.5,242.0,204.5,233.5,212.5,224.5,220.5,215.5,228.5,206.5,236.5,197.5,244.5,188.5,252.5,179.5,260.5,170.0,268.5,162.0,276.5,153.0,285.0,143.5,293.0,135.5,301.0,126.5,309.0,118.5,317.0,109.5,325.0,102.0,332.5,94.0,340.0,89.5,345.0,97.5,342.5,105.5,341.0,113.5,337.0,121.5,332.5,129.5,327.5,137.0,322.5,145.0,317.5,152.5,311.5,158.0,308.0,167.0,302.0,175.0,294.5,182.5,288.0,190.5,281.0,198.5,273.0,207.0,266.5,215.0,258.5,223.0,250.5,231.5,242.5,239.5,233.5,248.0,226.5,256.5,225.5,264.5,224.5,272.5,222.5,280.5,221.0,288.5,220.0,296.5,217.0,304.5,214.0,312.5,210.0,320.5,205.0,329.0,195.0" stroke="black" stroke-width="2" fill="none" />
<polyline points="234.5,240.5,226.5,241.0,218.5,241.5,211.0,242.5,203.0,243.5" stroke="black" stroke-width="2" fill="none" />
<polyline points="197.5,248.5,205.5,248.5,213.5,248.0,221.5,247.5,228.5,247.0" stroke="black" stroke-width="2" fill="none" />
<polyline points="244.5,234.5,236.5,234.5,228.0,234.5,220.0,234.5,212.5,235.0,204.5,235.5" stroke="black" stroke-width="2" fill="none" />
<polyline points="196.0,246.5,204.5,245.5,212.0,244.5,219.5,243.5,227.5,243.0,235.5,242.5" stroke="black" stroke-width="2" fill="none" />
<polyline points="219.0,253.5,211.0,254.5,203.0,255.5,195.0,256.0,186.5,256.5" stroke="black" stroke-width="2" fill="none" />
<polyline points="187.0,252.5,195.0,252.5,203.5,252.0,211.5,251.5,219.5,251.5,227.0,250.5" stroke="black" stroke-width="2" fill="none" />
<polyline points="203.5,270.0,195.0,270.0,187.0,270.5,179.0,271.5,171.0,271.5" stroke="black" stroke-width="2" fill="none" />
<polyline points="171.0,268.5,179.5,268.0,188.0,268.0,196.0,267.0,204.5,266.5,212.5,266.0,220.0,265.5" stroke="black" stroke-width="2" fill="none" />
<polyline points="196.5,278.5,188.0,278.5,180.0,278.5,172.0,279.5,163.5,280.0" stroke="black" stroke-width="2" fill="none" />
<polyline points="164.0,278.0,171.5,277.5,179.5,277.0,187.5,276.0,195.5,275.0,204.0,274.5" stroke="black" stroke-width="2" fill="none" />
<polyline points="196.5,282.5,188.0,283.5,179.5,284.0,171.5,284.0,163.5,284.5,155.5,285.5" stroke="black" stroke-width="2" fill="none" />
<polyline points="147.5,294.5,155.5,293.5,163.5,292.5,171.5,292.0,180.0,291.5,188.0,291.0" stroke="black" stroke-width="2" fill="none" />
<polyline points="172.0,296.5,164.0,296.5,156.0,296.5,148.5,297.0" stroke="black" stroke-width="2" fill="none" />
<polyline points="138.0,301.0,130.5,308.5,122.5,316.0,115.5,323.0,108.0,330.0,100.5,337.5" stroke="black" stroke-width="2" fill="none" />
<polyline points="99.0,339.0,106.5,338.0,114.5,338.0" stroke="black" stroke-width="2" fill="none" />
<polyline points="109.5,328.5,117.0,328.0,125.0,327.5,133.0,327.0" stroke="black" stroke-width="2" fill="none" />
<polyline points="140.0,319.0,132.0,319.5,123.0,320.0,114.5,321.0" stroke="black" stroke-width="2" fill="none" />
<polyline points="115.5,317.0,124.0,316.5,132.5,316.5,140.5,316.0,149.0,315.0,156.5,314.5" stroke="black" stroke-width="2" fill="none" />
<polyline points="162.5,303.0,154.0,303.5,146.0,304.0,138.5,304.0,130.5,304.0" stroke="black" stroke-width="2" fill="none" />
<polyline points="131.5,303.0,139.5,302.0,148.0,301.0,156.0,300.0,163.5,299.0,171.5,298.5,179.5,298.0" stroke="black" stroke-width="2" fill="none" />
<polyline points="148.0,268.5,155.5,261.0" stroke="black" stroke-width="2" fill="none" />
<polyline points="156.0,265.0,148.0,265.5" stroke="black" stroke-width="2" fill="none" />
<polyline points="148.5,261.0,156.0,261.0" stroke="black" stroke-width="2" fill="none" />
<polyline points="152.0,264.0,143.5,260.0" stroke="black" stroke-width="2" fill="none" />
<polyline points="145.5,259.0,150.5,267.0" stroke="black" stroke-width="2" fill="none" />
<polyline points="139.5,277.0,131.5,273.0" stroke="black" stroke-width="2" fill="none" />
<polyline points="132.5,271.5,136.5,279.5" stroke="black" stroke-width="2" fill="none" />
<polyline points="121.5,283.5,114.0,291.5" stroke="black" stroke-width="2" fill="none" />
<polyline points="117.5,290.0,125.5,289.5" stroke="black" stroke-width="2" fill="none" />
<polyline points="124.5,285.0,116.5,285.0" stroke="black" stroke-width="2" fill="none" />
<polyline points="117.0,284.5,125.0,289.5" stroke="black" stroke-width="2" fill="none" />
<polyline points="119.5,292.5,115.5,284.5" stroke="black" stroke-width="2" fill="none" />
<polyline points="106.0,277.5,97.0,285.0,103.5,279.0" stroke="black" stroke-width="2" fill="none" />
<polyline points="104.5,274.0,96.5,281.0,105.0,274.0" stroke="black" stroke-width="2" fill="none" />
<polyline points="103.0,297.5,107.0,305.5,109.5,306.5" stroke="black" stroke-width="2" fill="none" />
<polyline points="106.0,306.5,114.0,305.5" stroke="black" stroke-width="2" fill="none" />
<polyline points="113.5,299.5,105.5,306.5" stroke="black" stroke-width="2" fill="none" />
<polyline points="105.5,302.5,114.0,301.5" stroke="black" stroke-width="2" fill="none" />
<polyline points="110.5,306.0,111.0,304.5,103.5,298.5" stroke="black" stroke-width="2" fill="none" />
<polyline points="122.0,310.0,130.0,309.5,138.0,308.5,146.5,307.5,154.5,306.5,162.5,306.0" stroke="black" stroke-width="2" fill="none" />
<polyline points="139.0,324.5,130.5,325.0,122.5,325.5,114.5,326.0,107.0,326.0" stroke="black" stroke-width="2" fill="none" />
<polyline points="98.5,333.5,106.5,333.0,114.5,333.0,122.5,332.5" stroke="black" stroke-width="2" fill="none" />
<polyline points="97.5,340.5,89.0,340.5" stroke="black" stroke-width="2" fill="none" />
<polyline points="84.0,344.0,92.0,343.0,100.0,336.0,107.5,328.0,115.0,321.0,123.0,313.5,131.0,305.5,138.5,299.0,146.5,291.0,154.5,284.0,162.5,277.0,170.5,269.0,178.5,261.5,186.5,254.0,195.0,247.0,203.0,238.5,211.0,232.0,219.0,225.0,227.0,218.0,235.5,211.0,246.0,211.0,254.0,202.0" stroke="black" stroke-width="2" fill="none" />
<polyline points="292.0,183.5,285.0,190.5,277.5,195.0,269.5,198.0,261.5,200.0,253.5,199.0,245.5,198.0,237.0,196.0,229.0,188.0,221.5,173.0,213.0,182.0,204.5,185.0,205.5,190.0,197.0,196.0,190.0,199.5,182.0,206.5,171.0,217.0,161.5,225.0,155.5,230.0,169.5,219.0,183.0,208.5,193.0,200.5,201.5,193.5,206.5,185.0,214.5,180.0,221.0,171.5" stroke="black" stroke-width="2" fill="none" />
<polyline points="172.5,234.5,177.5,242.5" stroke="black" stroke-width="2" fill="none" />
<polyline points="180.0,240.5,172.0,235.5" stroke="black" stroke-width="2" fill="none" />
<polyline points="165.0,251.5,156.5,247.5" stroke="black" stroke-width="2" fill="none" />
<polyline points="159.5,248.0,163.5,255.5" stroke="black" stroke-width="2" fill="none" />
</svg>