<svg xmlns="http://www.w3.org/2000/svg" version="1.1"><polyline points="331.0,183.5,326.0,187.5,334.5,184.0,342.5,183.0,350.5,183.5,358.5,184.5,366.5,183.5,374.0,182.0,379.0,183.0,387.0,180.0,389.5,180.0,397.5,179.0,405.5,179.0,413.5,177.5,421.5,177.5,429.0,176.5,435.0,177.5,439.0,177.5,447.0,175.0,451.5,177.0,459.5,176.0,467.5,175.0,475.5,175.0,483.5,172.5,491.5,171.5,499.5,172.5,507.5,174.5" stroke="black" stroke-width="2" fill="none" />
<polyline points="507.5,170.5,515.5,163.0" stroke="black" stroke-width="2" fill="none" />
<polyline points="515.5,154.5,507.5,162.0,500.0,170.0" stroke="black" stroke-width="2" fill="none" />
<polyline points="492.0,170.0,499.5,163.0,507.5,155.5,515.5,148.5" stroke="black" stroke-width="2" fill="none" />
<polyline points="516.5,141.0,508.5,148.5,500.0,155.0,492.0,162.5,483.5,169.5" stroke="black" stroke-width="2" fill="none" />
<polyline points="476.5,169.0,484.0,162.0,492.0,154.0,499.5,146.5,507.5,138.5,515.5,131.0" stroke="black" stroke-width="2" fill="none" />
<polyline points="515.5,123.0,507.0,130.5,498.5,138.5,490.5,146.5,483.0,153.5,475.0,161.0,467.0,168.5" stroke="black" stroke-width="2" fill="none" />
<polyline points="457.5,166.5,465.5,158.5,474.0,150.5,482.0,143.5,491.0,136.5,499.0,129.0,507.0,122.5,515.0,115.0" stroke="black" stroke-width="2" fill="none" />
<polyline points="515.0,106.0,507.5,114.0,499.0,122.5,490.5,130.5,482.5,137.5,474.0,145.0,465.5,153.0,457.0,161.0,449.5,168.5" stroke="black" stroke-width="2" fill="none" />
<polyline points="441.0,168.5,449.0,161.0,457.5,153.5,465.5,146.5,473.5,139.0,482.0,131.0,490.0,123.5,498.5,116.0,507.0,108.0,515.0,101.0" stroke="black" stroke-width="2" fill="none" />
<polyline points="514.0,91.0,506.5,98.5,498.5,106.0,491.0,113.5,483.0,122.0,475.0,129.5,467.0,137.0,459.0,144.0,451.0,151.5,442.5,158.5,434.5,166.0" stroke="black" stroke-width="2" fill="none" />
<polyline points="429.0,155.5,436.5,154.5,444.5,153.5,452.0,152.5,460.0,151.5,467.5,150.5" stroke="black" stroke-width="2" fill="none" />
<polyline points="475.5,152.0,484.0,151.5" stroke="black" stroke-width="2" fill="none" />
<polyline points="491.5,145.0,499.5,144.5" stroke="black" stroke-width="2" fill="none" />
<polyline points="507.5,144.5,515.5,144.0" stroke="black" stroke-width="2" fill="none" />
<polyline points="514.0,151.5,506.0,152.0,498.0,153.0" stroke="black" stroke-width="2" fill="none" />
<polyline points="517.5,115.0,509.0,116.0,501.0,116.5,493.0,116.5,485.5,117.0,477.5,118.0,469.5,119.0,461.5,119.5,453.0,120.0,444.5,120.0,436.5,121.0" stroke="black" stroke-width="2" fill="none" />
<polyline points="421.5,160.0,429.5,160.0,437.0,159.5,444.5,159.0,452.5,158.5,460.5,158.0,468.0,157.5,475.5,156.5" stroke="black" stroke-width="2" fill="none" />
<polyline points="475.5,164.5,467.5,165.5,459.5,166.5,452.5,167.0,445.5,167.5,438.0,168.0,430.5,169.5,423.0,170.0" stroke="black" stroke-width="2" fill="none" />
<polyline points="419.0,172.0,427.0,164.0,435.0,157.0,443.0,149.5,451.5,142.5,460.0,135.0,467.5,128.0,475.0,120.5,483.0,112.5,491.0,105.0,498.5,97.5,506.5,89.5,514.0,82.5" stroke="black" stroke-width="2" fill="none" />
<polyline points="514.0,75.0,506.0,83.0,498.0,90.5,490.0,98.0,482.0,105.0,474.0,112.0,466.5,119.5,458.5,127.0,451.0,134.5,443.5,142.5,436.0,150.0,428.0,157.0,420.0,164.5,411.5,172.5" stroke="black" stroke-width="2" fill="none" />
<polyline points="402.5,174.5,411.0,167.0,419.0,159.5,427.0,151.5,435.5,144.0,443.5,136.5,451.5,129.0,459.5,122.0,467.5,114.5,475.0,107.0,483.0,99.5,490.5,91.5,498.5,84.0,506.0,77.0,514.0,69.5" stroke="black" stroke-width="2" fill="none" />
<polyline points="514.5,61.0,506.5,68.0,499.0,75.0,490.5,82.5,482.0,90.0,474.0,98.0,466.5,105.0,459.0,112.5,451.5,120.0,443.5,127.5,436.0,135.5,428.0,143.0,420.0,151.0,412.0,158.5,404.0,165.5,396.0,173.0" stroke="black" stroke-width="2" fill="none" />
<polyline points="388.0,172.5,395.5,165.5,404.0,158.0,411.5,150.0,419.5,142.5,427.5,135.0,435.0,127.5,443.0,120.0,451.5,112.0,459.5,105.0,468.0,97.5,476.5,90.0,484.0,83.0,491.5,75.5,499.0,68.0,506.5,60.5,514.5,53.0" stroke="black" stroke-width="2" fill="none" />
<polyline points="516.0,43.5,508.0,50.5,499.5,58.5,491.5,66.5,484.0,74.5,475.5,82.5,467.5,89.5,459.5,97.0,451.5,104.5,443.0,112.5,434.5,121.0,427.0,128.0,419.0,134.5,411.0,141.5,403.5,148.5,395.5,155.5,388.0,163.0,380.0,171.0" stroke="black" stroke-width="2" fill="none" />
<polyline points="371.5,172.0,379.0,164.5,386.5,157.0,394.0,149.5,402.0,142.0,410.0,134.5,418.0,127.0,426.5,119.5,434.5,111.5,442.5,104.0,450.5,96.5,458.5,89.0,467.0,81.5,475.0,74.0,484.0,66.5,492.5,59.0,500.5,51.5,508.5,43.5,516.5,36.5" stroke="black" stroke-width="2" fill="none" />
<polyline points="516.5,28.5,508.5,36.5,500.0,44.0,492.0,51.0,483.5,58.0,475.5,65.5,467.5,73.0,459.5,81.0,452.0,88.5,444.0,96.0,436.5,103.5,428.0,111.0,420.0,118.5,411.0,125.5,402.5,133.5,394.5,141.0,386.5,148.5,378.5,155.5,370.5,163.0,362.5,171.0" stroke="black" stroke-width="2" fill="none" />
<polyline points="354.5,172.0,362.5,171.0,370.5,170.0,378.5,169.0,387.5,168.0,396.0,166.5,404.0,166.0,412.0,165.5" stroke="black" stroke-width="2" fill="none" />
<polyline points="420.5,149.5,412.0,150.0,404.0,150.0,395.5,150.5,387.5,151.0,379.5,151.5,371.0,152.0,362.5,153.0,354.0,154.0" stroke="black" stroke-width="2" fill="none" />
<polyline points="355.5,143.5,364.0,143.5,372.5,143.5,381.0,143.5,389.0,143.0,397.5,143.5,405.5,143.0,413.0,143.0,420.5,143.0,429.0,143.0,437.0,142.5,444.5,141.5,452.5,140.5,460.0,139.5,468.0,138.5,475.5,137.5,483.5,137.0" stroke="black" stroke-width="2" fill="none" />
<polyline points="429.5,205.0,422.0,205.5" stroke="black" stroke-width="2" fill="none" />
<polyline points="421.5,203.5,420.5,211.5,419.0,219.0,415.5,227.0,412.5,235.0,409.5,242.5,405.5,250.5,400.5,258.0,395.0,266.0,390.0,274.0,385.5,282.0,379.0,290.0,375.0,298.5,375.0,307.0,371.5,315.0,363.5,323.5,361.5,331.5,358.0,339.5,355.0,347.5,349.5,356.0,342.5,364.5,331.5,372.0,321.5,379.0,326.5,391.0,327.0,399.0,327.5,406.5,335.0,406.0" stroke="black" stroke-width="2" fill="none" />
<polyline points="349.0,396.5,357.0,396.0,365.0,395.0,373.5,394.5,382.0,394.0,390.0,394.5" stroke="black" stroke-width="2" fill="none" />
<polyline points="391.5,396.0,385.5,403.0" stroke="black" stroke-width="2" fill="none" />
<polyline points="386.5,387.5,378.5,387.5" stroke="black" stroke-width="2" fill="none" />
<polyline points="369.0,381.5,377.0,377.0,389.0,382.0,397.0,384.5,404.5,384.5,412.5,384.0,421.0,382.0,429.0,379.0,437.0,372.0" stroke="black" stroke-width="2" fill="none" />
<polyline points="436.0,368.0,428.0,368.0,420.0,374.0,411.5,376.0,403.0,374.0" stroke="black" stroke-width="2" fill="none" />
<polyline points="403.5,366.0,411.5,364.0,419.0,361.5" stroke="black" stroke-width="2" fill="none" />
<polyline points="402.5,363.0,410.5,357.0,418.5,356.0,423.5,359.0,405.5,360.0,403.0,372.0,406.0,370.0,413.5,369.0,421.5,367.0,429.5,364.0,437.5,362.0" stroke="black" stroke-width="2" fill="none" />
<polyline points="433.5,348.5,425.5,347.5,417.0,348.5,409.0,350.5,401.5,353.5,393.5,356.0,386.5,364.0,375.5,367.0,367.5,363.0,359.0,365.0,350.5,368.0,344.0,375.0,336.5,373.5" stroke="black" stroke-width="2" fill="none" />
<polyline points="330.5,371.5,338.5,364.0,346.5,356.5,354.5,349.0" stroke="black" stroke-width="2" fill="none" />
<polyline points="355.0,343.5,346.5,344.0" stroke="black" stroke-width="2" fill="none" />
<polyline points="346.5,337.5,354.5,330.0,363.0,323.0" stroke="black" stroke-width="2" fill="none" />
<polyline points="363.0,329.5,355.5,337.5,347.5,345.0,340.0,353.0,332.0,361.0,324.5,369.0,316.0,377.0" stroke="black" stroke-width="2" fill="none" />
<polyline points="316.5,383.0,324.5,382.5,332.0,382.0" stroke="black" stroke-width="2" fill="none" />
<polyline points="333.0,387.0,325.5,387.5,318.0,388.0" stroke="black" stroke-width="2" fill="none" />
<polyline points="314.5,387.0,310.0,394.5,310.0,402.0" stroke="black" stroke-width="2" fill="none" />
<polyline points="310.5,394.5,318.5,387.0,326.0,387.0" stroke="black" stroke-width="2" fill="none" />
<polyline points="322.5,386.0,314.5,393.5" stroke="black" stroke-width="2" fill="none" />
<polyline points="307.5,387.5,299.5,388.5,291.0,389.5,283.0,390.5,275.0,391.0" stroke="black" stroke-width="2" fill="none" />
<polyline points="282.5,386.5,290.5,380.0,298.5,372.5,307.0,365.0,315.5,357.5" stroke="black" stroke-width="2" fill="none" />
<polyline points="322.5,355.5,314.0,363.0,306.0,370.0,298.0,377.5" stroke="black" stroke-width="2" fill="none" />
<polyline points="299.5,378.5,291.0,379.0,282.5,379.0,274.5,379.0,267.0,379.5,259.5,380.0" stroke="black" stroke-width="2" fill="none" />
<polyline points="258.0,371.5,266.0,364.0" stroke="black" stroke-width="2" fill="none" />
<polyline points="260.0,365.5,268.5,365.0,276.5,364.5,285.0,364.5,292.5,364.0,300.5,363.5,308.5,362.5,316.5,362.0,324.5,361.5,332.5,360.5,340.0,359.5" stroke="black" stroke-width="2" fill="none" />
<polyline points="339.5,355.0,347.5,354.0,356.0,353.0" stroke="black" stroke-width="2" fill="none" />
<polyline points="347.5,362.0,339.5,362.0,331.5,362.0" stroke="black" stroke-width="2" fill="none" />
<polyline points="331.0,357.0,323.0,364.5,315.5,371.0,307.5,378.5" stroke="black" stroke-width="2" fill="none" />
<polyline points="308.5,370.0,316.0,369.0,324.5,368.0,332.5,367.5,340.0,366.5" stroke="black" stroke-width="2" fill="none" />
<polyline points="348.0,372.5,355.5,372.0" stroke="black" stroke-width="2" fill="none" />
<polyline points="348.5,378.5,356.0,378.0,364.0,377.0" stroke="black" stroke-width="2" fill="none" />
<polyline points="364.5,386.5,356.0,387.0,348.0,387.5" stroke="black" stroke-width="2" fill="none" />
<polyline points="347.5,380.5,355.5,384.5" stroke="black" stroke-width="2" fill="none" />
<polyline points="361.5,386.5,360.0,376.5,352.0,375.5,344.5,378.5,336.5,377.5,328.0,376.5" stroke="black" stroke-width="2" fill="none" />
<polyline points="324.5,376.0,316.5,376.0,308.5,376.0,300.0,376.5,292.0,377.0,284.0,377.5" stroke="black" stroke-width="2" fill="none" />
<polyline points="283.0,372.5,290.5,372.5,299.0,372.0,307.5,371.5,316.0,371.0,324.5,371.0,333.0,371.0,340.5,370.5" stroke="black" stroke-width="2" fill="none" />
<polyline points="321.5,382.0,330.0,382.0,338.0,382.5,349.0,381.0,361.5,389.0,361.5,397.0,365.5,391.0,373.5,393.5,374.5,385.5" stroke="black" stroke-width="2" fill="none" />
<polyline points="364.0,388.5,373.0,396.5,383.0,404.0,388.5,406.0,385.0,408.0,393.0,407.0,398.5,411.5,406.5,409.5,414.5,408.5,422.5,406.5,430.5,404.5,438.5,402.5,446.0,401.5,454.0,399.5,461.5,398.0,469.0,395.0,477.0,392.0" stroke="black" stroke-width="2" fill="none" />
<polyline points="465.0,350.5,457.0,337.5,449.0,326.0,441.0,321.0,433.0,324.5,425.0,327.5,417.0,329.5,408.5,332.5,400.0,335.5,392.0,337.0,383.5,340.0,375.5,343.0" stroke="black" stroke-width="2" fill="none" />
<polyline points="365.0,336.0,357.0,336.5" stroke="black" stroke-width="2" fill="none" />
<polyline points="355.5,330.5,363.5,330.0" stroke="black" stroke-width="2" fill="none" />
<polyline points="356.0,323.0,364.0,315.5,371.5,307.5,379.5,300.0" stroke="black" stroke-width="2" fill="none" />
<polyline points="379.5,303.5,371.5,303.5" stroke="black" stroke-width="2" fill="none" />
<polyline points="372.0,300.0,380.0,299.5" stroke="black" stroke-width="2" fill="none" />
<polyline points="380.0,293.5,372.0,293.5,363.5,294.5,355.5,295.5,347.0,296.5,339.0,297.0,331.5,297.5" stroke="black" stroke-width="2" fill="none" />
<polyline points="332.0,298.0,339.5,290.0,347.0,282.5" stroke="black" stroke-width="2" fill="none" />
<polyline points="355.0,283.0,346.5,290.0,338.5,297.5" stroke="black" stroke-width="2" fill="none" />
<polyline points="340.0,299.0,332.0,299.0" stroke="black" stroke-width="2" fill="none" />
<polyline points="330.5,291.0,338.5,282.5" stroke="black" stroke-width="2" fill="none" />
<polyline points="329.5,283.5,321.5,291.5" stroke="black" stroke-width="2" fill="none" />
<polyline points="322.0,292.5,330.0,291.5,338.5,290.5,347.0,290.0,355.5,289.0,364.0,289.0,372.5,288.0,380.5,288.0" stroke="black" stroke-width="2" fill="none" />
<polyline points="380.5,291.5,372.0,299.5" stroke="black" stroke-width="2" fill="none" />
<polyline points="373.5,298.5,382.0,285.5,390.0,273.5,398.0,262.5,406.0,249.0,414.5,230.0" stroke="black" stroke-width="2" fill="none" />
<polyline points="412.0,232.0,419.5,231.0" stroke="black" stroke-width="2" fill="none" />
<polyline points="411.5,235.0,403.5,243.0" stroke="black" stroke-width="2" fill="none" />
<polyline points="403.5,245.5,411.5,245.0" stroke="black" stroke-width="2" fill="none" />
<polyline points="412.0,243.5,404.0,251.0,396.0,258.5" stroke="black" stroke-width="2" fill="none" />
<polyline points="395.5,256.0,403.5,256.0" stroke="black" stroke-width="2" fill="none" />
<polyline points="405.0,257.0,397.0,264.5,388.5,273.0,380.0,281.0,371.5,289.0,363.0,296.5,355.0,304.5,346.5,312.5" stroke="black" stroke-width="2" fill="none" />
<polyline points="346.0,313.0,354.0,312.0,362.0,311.5,370.0,311.0,378.5,310.0" stroke="black" stroke-width="2" fill="none" />
<polyline points="382.0,309.5,373.5,317.0" stroke="black" stroke-width="2" fill="none" />
<polyline points="362.0,306.0,354.0,314.0" stroke="black" stroke-width="2" fill="none" />
<polyline points="354.0,307.0,362.0,306.0" stroke="black" stroke-width="2" fill="none" />
<polyline points="355.5,294.0,347.0,301.0" stroke="black" stroke-width="2" fill="none" />
<polyline points="348.0,302.0,356.5,301.0,364.0,300.5" stroke="black" stroke-width="2" fill="none" />
<polyline points="362.0,292.0,354.5,299.5,347.0,307.0" stroke="black" stroke-width="2" fill="none" />
<polyline points="347.0,305.0,355.5,304.5" stroke="black" stroke-width="2" fill="none" />
<polyline points="355.5,322.5,364.0,322.0" stroke="black" stroke-width="2" fill="none" />
<polyline points="364.0,332.0,356.0,332.0,347.5,332.0,339.5,332.5" stroke="black" stroke-width="2" fill="none" />
<polyline points="331.0,342.5,339.0,341.5,346.5,341.0,354.5,340.5" stroke="black" stroke-width="2" fill="none" />
<polyline points="362.5,320.5,355.0,320.5,347.5,321.0,340.0,322.0,332.5,322.5,324.5,323.0,317.0,323.5,309.0,324.0,301.0,324.5,293.0,325.0" stroke="black" stroke-width="2" fill="none" />
<polyline points="276.0,339.5,284.0,339.0,292.0,339.0,300.0,338.5,307.5,338.5,315.5,338.0,323.5,337.5" stroke="black" stroke-width="2" fill="none" />
<polyline points="323.0,310.0,315.5,310.0" stroke="black" stroke-width="2" fill="none" />
<polyline points="331.0,308.5,339.0,308.0,346.5,308.5,355.0,308.0,363.5,307.5,371.5,307.0,379.5,306.5" stroke="black" stroke-width="2" fill="none" />
<polyline points="379.5,287.5,371.5,288.0" stroke="black" stroke-width="2" fill="none" />
<polyline points="374.0,283.0,381.5,282.5,390.0,282.5" stroke="black" stroke-width="2" fill="none" />
<polyline points="388.0,281.5,380.0,281.5" stroke="black" stroke-width="2" fill="none" />
<polyline points="380.5,277.5,388.5,277.0" stroke="black" stroke-width="2" fill="none" />
<polyline points="390.5,272.5,398.0,272.0" stroke="black" stroke-width="2" fill="none" />
<polyline points="397.0,269.0,389.0,285.5,387.0,291.5,390.0,283.5,394.5,275.0,398.5,267.0" stroke="black" stroke-width="2" fill="none" />
<polyline points="397.0,261.0,405.0,261.0" stroke="black" stroke-width="2" fill="none" />
<polyline points="403.0,249.0,411.0,249.0" stroke="black" stroke-width="2" fill="none" />
<polyline points="412.0,237.5,404.0,238.5" stroke="black" stroke-width="2" fill="none" />
<polyline points="410.0,228.0,417.5,220.5" stroke="black" stroke-width="2" fill="none" />
<polyline points="418.5,224.5,410.0,225.5" stroke="black" stroke-width="2" fill="none" />
<polyline points="411.5,221.0,419.5,220.5" stroke="black" stroke-width="2" fill="none" />
<polyline points="414.0,217.5,405.5,236.5,397.5,251.5,389.5,263.5,381.5,274.5,373.5,286.0,366.0,291.0,375.0,284.5,380.5,276.5,386.0,268.5,393.0,260.5,398.0,252.5,402.0,245.0,406.0,237.0,410.0,229.5,412.5,222.0,415.5,214.0,417.0,206.0,418.0,202.0" stroke="black" stroke-width="2" fill="none" />
<polyline points="403.5,251.5,395.5,252.5" stroke="black" stroke-width="2" fill="none" />
<polyline points="395.5,267.5,388.0,268.0" stroke="black" stroke-width="2" fill="none" />
<polyline points="387.5,286.5,385.5,294.5,382.5,303.0,381.0,304.0" stroke="black" stroke-width="2" fill="none" />
<polyline points="355.0,287.5,347.0,288.0,339.5,288.5,332.0,289.5,324.0,290.0,316.5,290.5" stroke="black" stroke-width="2" fill="none" />
<polyline points="314.5,290.5,322.0,283.5" stroke="black" stroke-width="2" fill="none" />
<polyline points="325.5,283.5,317.0,284.0" stroke="black" stroke-width="2" fill="none" />
<polyline points="314.5,276.0,306.5,284.0" stroke="black" stroke-width="2" fill="none" />
<polyline points="308.0,284.5,316.5,284.0,324.5,283.5,332.0,283.0,340.0,282.5,348.0,281.5,356.5,281.5" stroke="black" stroke-width="2" fill="none" />
<polyline points="322.5,275.0,315.0,282.5,306.5,290.0" stroke="black" stroke-width="2" fill="none" />
<polyline points="300.0,284.0,308.0,277.0" stroke="black" stroke-width="2" fill="none" />
<polyline points="300.0,274.0,291.5,281.5" stroke="black" stroke-width="2" fill="none" />
<polyline points="285.0,281.5,293.0,274.5" stroke="black" stroke-width="2" fill="none" />
<polyline points="285.0,276.5,277.0,284.0" stroke="black" stroke-width="2" fill="none" />
<polyline points="275.5,285.0,283.5,284.5,291.5,284.0,299.5,284.0" stroke="black" stroke-width="2" fill="none" />
<polyline points="307.0,278.5,299.0,279.0,290.5,279.5,282.5,280.0,274.5,280.5,267.0,280.5" stroke="black" stroke-width="2" fill="none" />
<polyline points="268.0,278.0,276.5,277.5,284.5,276.5,292.5,276.0,300.0,275.5,308.0,275.0,316.0,274.0,324.5,273.5,332.5,273.0" stroke="black" stroke-width="2" fill="none" />
<polyline points="320.0,293.0,336.5,300.5,344.5,308.5,348.5,316.0,350.5,324.0,348.5,331.5,346.5,340.5,342.5,348.0,336.5,356.0,325.5,364.0" stroke="black" stroke-width="2" fill="none" />
<polyline points="299.0,363.0,291.0,370.5,282.5,378.0,274.5,385.5" stroke="black" stroke-width="2" fill="none" />
<polyline points="268.0,388.5,260.5,389.0" stroke="black" stroke-width="2" fill="none" />
<polyline points="265.5,390.0,273.5,389.5,281.5,392.5" stroke="black" stroke-width="2" fill="none" />
<polyline points="281.5,396.0,289.0,389.0" stroke="black" stroke-width="2" fill="none" />
<polyline points="290.5,395.0,282.5,402.5" stroke="black" stroke-width="2" fill="none" />
<polyline points="274.0,407.5,282.5,406.5,291.0,406.0,299.0,405.5,307.0,404.0,315.5,403.5,323.5,402.5,332.0,402.5,340.0,402.5,348.0,402.0,356.0,401.0,364.0,400.5,371.5,399.5,379.5,398.5,388.0,397.5" stroke="black" stroke-width="2" fill="none" />
<polyline points="372.0,405.5,363.5,405.5,355.5,406.0,347.5,406.5,339.5,407.5,331.0,408.5,323.0,409.5,315.0,410.0,306.5,410.5,299.0,411.0,291.5,411.5,284.0,412.5,276.5,413.5,268.5,413.5,260.0,414.0,252.0,414.0,243.5,415.0,235.5,415.5" stroke="black" stroke-width="2" fill="none" />
<polyline points="234.0,405.5,226.0,405.5" stroke="black" stroke-width="2" fill="none" />
<polyline points="226.0,405.0,234.0,411.5,242.0,413.5,250.0,413.5,258.0,413.5,265.5,412.5,274.0,409.5" stroke="black" stroke-width="2" fill="none" />
<polyline points="275.5,422.5,283.5,422.0,291.0,422.0" stroke="black" stroke-width="2" fill="none" />
<polyline points="300.0,419.5,308.5,419.0,316.5,419.0,324.5,418.5,332.5,418.0,340.5,417.0" stroke="black" stroke-width="2" fill="none" />
<polyline points="329.0,392.5,321.5,393.0,314.0,394.0,306.5,394.5,298.5,395.0,290.5,395.0,282.0,395.5,273.0,396.0,265.0,396.0" stroke="black" stroke-width="2" fill="none" />
<polyline points="279.0,400.0,271.5,401.0,263.5,397.0,255.5,399.0,247.5,400.5" stroke="black" stroke-width="2" fill="none" />
<polyline points="246.5,397.0,254.5,394.5,262.0,393.5,274.0,389.5,285.0,397.5" stroke="black" stroke-width="2" fill="none" />
<polyline points="278.5,403.0,271.0,403.0,263.0,405.5,255.0,406.5,247.0,405.5" stroke="black" stroke-width="2" fill="none" />
<polyline points="240.5,391.5,229.0,399.0,228.0,407.0" stroke="black" stroke-width="2" fill="none" />
<polyline points="228.0,413.5,219.5,413.5" stroke="black" stroke-width="2" fill="none" />
<polyline points="218.0,404.5,210.5,405.0" stroke="black" stroke-width="2" fill="none" />
<polyline points="211.5,399.0,204.0,407.0,202.0,415.0" stroke="black" stroke-width="2" fill="none" />
<polyline points="201.5,414.0,209.5,413.5" stroke="black" stroke-width="2" fill="none" />
<polyline points="202.5,400.0,210.5,399.0,219.0,397.5,227.5,396.5" stroke="black" stroke-width="2" fill="none" />
<polyline points="201.5,384.5,193.5,385.0,186.0,385.5,178.0,386.0,170.5,387.0,162.5,388.0,154.5,388.5,147.0,388.5,139.0,389.5,131.0,390.5,123.0,391.0,115.0,391.0" stroke="black" stroke-width="2" fill="none" />
<polyline points="124.5,386.5,133.0,379.5" stroke="black" stroke-width="2" fill="none" />
<polyline points="139.0,377.0,147.0,378.0" stroke="black" stroke-width="2" fill="none" />
<polyline points="145.0,379.5,137.0,387.0" stroke="black" stroke-width="2" fill="none" />
<polyline points="137.5,395.0,145.5,387.5" stroke="black" stroke-width="2" fill="none" />
<polyline points="147.0,396.0,155.0,388.5" stroke="black" stroke-width="2" fill="none" />
<polyline points="156.5,395.0,165.0,388.0" stroke="black" stroke-width="2" fill="none" />
<polyline points="181.0,399.0,188.5,398.0" stroke="black" stroke-width="2" fill="none" />
<polyline points="189.5,400.0,197.5,395.0,205.5,395.0,213.0,394.0,220.5,392.0" stroke="black" stroke-width="2" fill="none" />
<polyline points="196.0,382.5,188.0,379.5" stroke="black" stroke-width="2" fill="none" />
<polyline points="193.5,377.0,185.5,377.5,177.5,378.0,169.5,379.0,161.5,379.5,154.0,380.0,146.5,380.0,138.0,380.5,130.0,381.0,122.5,381.5,114.5,382.5,106.5,383.5" stroke="black" stroke-width="2" fill="none" />
<polyline points="115.5,377.5,123.5,370.0,131.5,362.5" stroke="black" stroke-width="2" fill="none" />
<polyline points="137.5,363.0,130.0,370.0" stroke="black" stroke-width="2" fill="none" />
<polyline points="139.5,371.0,147.0,363.5,155.0,356.0" stroke="black" stroke-width="2" fill="none" />
<polyline points="154.0,363.0,162.5,362.5,171.0,362.0" stroke="black" stroke-width="2" fill="none" />
<polyline points="171.5,354.5,179.5,354.0" stroke="black" stroke-width="2" fill="none" />
<polyline points="178.5,346.5,170.5,354.0,162.0,362.0" stroke="black" stroke-width="2" fill="none" />
<polyline points="164.0,352.5,155.5,360.0,147.5,368.0" stroke="black" stroke-width="2" fill="none" />
<polyline points="140.0,379.0,132.0,386.5" stroke="black" stroke-width="2" fill="none" />
<polyline points="124.0,381.5,116.0,389.0" stroke="black" stroke-width="2" fill="none" />
<polyline points="116.0,399.5,108.0,400.0" stroke="black" stroke-width="2" fill="none" />
<polyline points="100.5,407.0,108.5,406.5,116.5,406.5" stroke="black" stroke-width="2" fill="none" />
<polyline points="108.0,416.5,116.0,399.5,124.0,394.5,132.5,396.0,140.5,398.0,148.5,397.0,156.5,397.5,164.5,398.0,172.5,400.0,175.5,402.0,177.0,410.0,165.0,418.0" stroke="black" stroke-width="2" fill="none" />
<polyline points="162.0,406.5,154.0,407.0" stroke="black" stroke-width="2" fill="none" />
<polyline points="158.0,411.0,149.5,414.0,141.5,413.0,133.5,409.0" stroke="black" stroke-width="2" fill="none" />
<polyline points="133.0,405.0,140.5,403.0,148.0,403.0,156.0,404.0,158.5,408.0" stroke="black" stroke-width="2" fill="none" />
<polyline points="180.5,407.0,188.0,406.5" stroke="black" stroke-width="2" fill="none" />
<polyline points="190.0,394.5,187.5,402.5,185.5,411.0,185.0,415.0,193.5,417.0,201.5,416.0,209.5,400.0,217.5,398.0,225.0,397.0,234.0,394.0,242.0,391.0,250.0,388.5,257.5,387.0,266.0,385.0,273.5,381.0,281.5,380.0,284.5,383.5,292.5,383.5,301.0,383.5,309.5,382.5,317.5,380.5,325.5,374.5,333.0,371.0,340.5,366.5,348.0,358.5,356.0,344.5,364.0,320.5,372.5,314.5" stroke="black" stroke-width="2" fill="none" />
<polyline points="348.0,349.0,339.5,349.5,331.5,350.0,323.5,350.5,316.0,351.0,308.0,351.5,299.5,352.0,291.5,352.5,283.0,353.0,274.5,354.0,266.0,355.5,258.0,356.0,250.0,356.5" stroke="black" stroke-width="2" fill="none" />
<polyline points="251.5,361.5,259.0,361.0,267.0,360.0" stroke="black" stroke-width="2" fill="none" />
<polyline points="266.0,355.5,258.5,363.0" stroke="black" stroke-width="2" fill="none" />
<polyline points="259.5,369.0,267.0,368.5,275.0,368.0,283.5,368.0,292.5,367.5" stroke="black" stroke-width="2" fill="none" />
<polyline points="292.5,362.0,284.5,369.5" stroke="black" stroke-width="2" fill="none" />
<polyline points="281.5,369.5,289.5,370.5,297.0,371.5,305.0,371.0,313.0,369.5,320.5,368.5,328.5,363.5,336.5,357.5,344.5,345.5" stroke="black" stroke-width="2" fill="none" />
<polyline points="333.0,328.0,325.0,328.5,317.0,328.5,309.0,328.5,300.5,329.5,292.5,330.0,284.0,331.0,275.5,331.5,267.0,332.0,258.0,332.5,249.5,333.0" stroke="black" stroke-width="2" fill="none" />
<polyline points="243.0,332.5,235.0,340.0" stroke="black" stroke-width="2" fill="none" />
<polyline points="235.5,343.0,243.5,342.0,251.0,341.0,258.5,340.0" stroke="black" stroke-width="2" fill="none" />
<polyline points="251.5,341.0,243.5,348.0" stroke="black" stroke-width="2" fill="none" />
<polyline points="242.5,349.0,250.5,348.5,259.5,348.0,268.5,348.0,277.0,348.0,285.0,347.5,293.5,347.0,301.5,346.5,309.0,346.0,317.0,345.5,324.5,345.5,332.5,344.5,340.5,344.0,348.5,343.5,356.5,343.0" stroke="black" stroke-width="2" fill="none" />
<polyline points="338.0,351.0,330.0,354.0,322.5,357.0,314.5,359.0,306.5,362.0,298.5,363.0,290.5,364.0,283.0,365.5,274.5,366.5,266.5,363.5,258.0,359.5,250.0,352.5,242.0,342.5,234.0,325.0" stroke="black" stroke-width="2" fill="none" />
<polyline points="236.5,324.0,228.5,331.5" stroke="black" stroke-width="2" fill="none" />
<polyline points="226.5,332.5,234.5,332.0,242.5,331.5" stroke="black" stroke-width="2" fill="none" />
<polyline points="234.0,332.0,225.5,339.5" stroke="black" stroke-width="2" fill="none" />
<polyline points="225.0,336.0,233.0,335.5,241.5,335.0" stroke="black" stroke-width="2" fill="none" />
<polyline points="243.0,340.0,235.0,347.5" stroke="black" stroke-width="2" fill="none" />
<polyline points="236.0,348.0,244.0,347.5" stroke="black" stroke-width="2" fill="none" />
<polyline points="242.5,354.0,250.5,353.5" stroke="black" stroke-width="2" fill="none" />
<polyline points="251.0,349.0,243.0,356.5" stroke="black" stroke-width="2" fill="none" />
<polyline points="249.5,364.0,257.0,356.5" stroke="black" stroke-width="2" fill="none" />
<polyline points="269.0,371.0,277.0,363.5" stroke="black" stroke-width="2" fill="none" />
<polyline points="284.5,364.5,276.5,372.0" stroke="black" stroke-width="2" fill="none" />
<polyline points="283.5,378.0,275.5,376.0,268.0,374.0,260.0,370.5,252.5,365.5,244.5,360.0,237.0,351.0,229.0,340.5,221.5,321.5" stroke="black" stroke-width="2" fill="none" />
<polyline points="220.0,323.5,227.5,316.5,235.5,309.5" stroke="black" stroke-width="2" fill="none" />
<polyline points="234.5,305.5,227.0,306.0,219.0,306.5" stroke="black" stroke-width="2" fill="none" />
<polyline points="218.5,307.0,226.5,299.0,235.0,291.0,243.0,284.0" stroke="black" stroke-width="2" fill="none" />
<polyline points="243.5,284.0,251.5,282.0,237.5,284.0,225.5,291.5,228.5,293.5,236.5,290.5,244.5,287.5,252.5,284.5,260.0,282.0,267.5,281.0,275.5,281.0,283.5,281.0,292.0,281.0,300.0,282.0" stroke="black" stroke-width="2" fill="none" />
<polyline points="276.0,277.0,267.5,284.5" stroke="black" stroke-width="2" fill="none" />
<polyline points="258.5,283.5,250.5,290.5" stroke="black" stroke-width="2" fill="none" />
<polyline points="255.5,290.0,238.5,298.0,233.5,306.0,232.5,314.0,233.5,322.0,236.5,330.0,239.5,338.0,245.0,346.0,251.0,354.0,261.5,362.0" stroke="black" stroke-width="2" fill="none" />
<polyline points="251.0,325.5,259.0,325.0,267.0,324.5,275.0,323.5,283.0,322.5" stroke="black" stroke-width="2" fill="none" />
<polyline points="282.0,300.0,273.5,300.5,265.0,301.0" stroke="black" stroke-width="2" fill="none" />
<polyline points="253.0,284.0,244.5,292.0,236.0,299.0,227.5,306.5,219.0,314.0" stroke="black" stroke-width="2" fill="none" />
<polyline points="218.0,315.0,226.0,314.5,234.0,314.0" stroke="black" stroke-width="2" fill="none" />
<polyline points="235.5,317.0,228.0,324.5" stroke="black" stroke-width="2" fill="none" />
<polyline points="227.0,324.5,235.0,324.5,243.0,324.0" stroke="black" stroke-width="2" fill="none" />
<polyline points="235.0,328.0,227.0,328.5" stroke="black" stroke-width="2" fill="none" />
<polyline points="218.5,323.5,227.0,322.5,235.5,321.5" stroke="black" stroke-width="2" fill="none" />
<polyline points="233.0,306.0,240.5,296.0,248.5,292.5,256.5,290.5,264.0,288.5,272.5,287.5,280.5,288.0,289.0,288.0,297.0,288.0,305.5,289.0,314.0,291.0,322.0,293.0,330.0,296.0,338.0,299.5,345.5,307.5,359.5,311.0,367.5,310.0" stroke="black" stroke-width="2" fill="none" />
<polyline points="365.0,307.0,356.5,307.5,347.5,308.0,339.0,308.5,331.0,309.0,322.5,309.5,314.5,309.5,306.5,309.5,298.5,310.0,290.5,311.0,282.0,312.0,274.0,313.0,266.5,314.5,258.5,315.0,250.5,316.0,243.0,316.5,235.5,317.0,227.0,318.0,219.5,318.0" stroke="black" stroke-width="2" fill="none" />
<polyline points="217.5,311.5,225.5,310.5,233.5,310.0,241.5,309.5,249.5,309.0,257.5,308.0,265.5,307.0,273.5,306.0,281.5,305.0,290.0,304.0,298.0,303.5,306.0,303.0" stroke="black" stroke-width="2" fill="none" />
<polyline points="260.5,298.5,252.0,299.5,244.0,299.5" stroke="black" stroke-width="2" fill="none" />
<polyline points="234.5,288.5,242.5,287.5,250.5,287.5,258.5,287.0" stroke="black" stroke-width="2" fill="none" />
<polyline points="251.5,276.5,243.5,277.0" stroke="black" stroke-width="2" fill="none" />
<polyline points="241.0,284.5,229.0,292.5" stroke="black" stroke-width="2" fill="none" />
<polyline points="227.0,291.0,218.5,298.5" stroke="black" stroke-width="2" fill="none" />
<polyline points="219.5,300.5,227.5,299.5,234.5,299.5" stroke="black" stroke-width="2" fill="none" />
<polyline points="228.0,284.0,220.0,291.5,212.0,298.5" stroke="black" stroke-width="2" fill="none" />
<polyline points="205.5,298.0,213.5,290.5,222.0,282.5" stroke="black" stroke-width="2" fill="none" />
<polyline points="226.0,289.5,218.0,290.0" stroke="black" stroke-width="2" fill="none" />
<polyline points="212.5,282.5,204.5,290.0,197.0,297.5" stroke="black" stroke-width="2" fill="none" />
<polyline points="189.0,299.5,197.5,292.0,205.5,284.5" stroke="black" stroke-width="2" fill="none" />
<polyline points="194.5,285.0,186.5,292.5,178.5,299.5,170.0,307.0" stroke="black" stroke-width="2" fill="none" />
<polyline points="171.0,304.5,178.5,304.0" stroke="black" stroke-width="2" fill="none" />
<polyline points="181.5,304.0,189.5,304.0,197.5,305.0,205.0,305.0,213.0,305.0,220.5,307.0,221.5,311.5,219.0,319.5,222.0,327.5,226.0,335.5,230.0,343.5,236.0,351.5,243.5,359.5,253.5,368.0,270.0,376.0,264.0,387.5,245.5,399.5,246.0,404.0,254.0,402.5,262.0,401.5" stroke="black" stroke-width="2" fill="none" />
<polyline points="248.0,370.5,240.0,371.5,232.0,372.0,223.5,373.0,215.5,373.5,207.5,374.5,199.5,374.5,191.5,376.0,183.5,378.0,175.5,378.5,167.5,377.5,159.5,374.5,151.5,373.5,166.0,365.0,176.0,357.0,181.0,349.0,184.0,341.0,186.0,333.0,187.0,325.0,187.0,317.0,188.0,309.0,183.0,305.5" stroke="black" stroke-width="2" fill="none" />
<polyline points="186.5,308.5,178.5,315.5" stroke="black" stroke-width="2" fill="none" />
<polyline points="181.5,312.5,189.5,312.0" stroke="black" stroke-width="2" fill="none" />
<polyline points="185.5,316.5,178.0,324.5" stroke="black" stroke-width="2" fill="none" />
<polyline points="179.0,321.5,187.0,321.0" stroke="black" stroke-width="2" fill="none" />
<polyline points="187.0,324.0,179.0,331.5" stroke="black" stroke-width="2" fill="none" />
<polyline points="177.5,330.0,185.5,329.0" stroke="black" stroke-width="2" fill="none" />
<polyline points="189.0,333.0,181.0,340.5,173.5,348.0" stroke="black" stroke-width="2" fill="none" />
<polyline points="171.5,346.0,179.5,345.5" stroke="black" stroke-width="2" fill="none" />
<polyline points="179.5,337.5,187.0,337.5" stroke="black" stroke-width="2" fill="none" />
<polyline points="187.0,306.0,179.0,306.5,171.0,306.5,163.0,307.0" stroke="black" stroke-width="2" fill="none" />
<polyline points="162.5,301.0,171.0,293.5" stroke="black" stroke-width="2" fill="none" />
<polyline points="171.5,298.0,179.0,290.0" stroke="black" stroke-width="2" fill="none" />
<polyline points="183.5,287.5,191.5,286.5,199.0,287.5,207.0,287.5,214.5,287.0,222.0,287.0,230.0,287.0,238.5,284.0,246.5,281.0,254.0,278.5,262.0,276.5,270.0,275.5,278.0,275.5,286.0,276.0,294.0,276.0,301.5,276.0,309.5,277.5,317.5,279.5,325.5,281.5,333.5,283.5,342.0,286.0,350.0,289.0,358.0,291.0,366.0,289.0" stroke="black" stroke-width="2" fill="none" />
<polyline points="398.5,353.5,387.5,361.5,384.0,369.5,385.5,377.5" stroke="black" stroke-width="2" fill="none" />
<polyline points="370.0,364.5,378.0,372.5,379.0,388.5,379.0,402.0,387.0,400.0" stroke="black" stroke-width="2" fill="none" />
<polyline points="386.0,415.5,378.0,417.0,369.5,419.0,361.0,421.0,353.0,423.5,344.5,425.5,337.0,426.5,328.5,427.5,320.5,429.0,312.5,429.0,304.5,429.5,297.0,430.5,289.0,431.0,281.5,432.0,273.5,431.5,265.5,431.5,257.5,432.5,249.5,432.5,241.0,432.5,233.0,433.5,224.5,433.5,216.0,433.5,208.0,433.5,200.0,433.0,192.0,433.0,184.5,433.5,176.5,433.5,168.5,434.5,161.0,435.0,153.0,435.0,145.0,435.0,137.5,434.0,129.5,432.5,121.5,431.0,113.5,428.5,105.5,426.5,97.5,424.0,89.5,420.5,81.5,417.5,73.5,413.0,65.0,410.0,56.5,406.5,49.0,402.0,41.0,401.0,32.5,399.0,24.5,397.0,16.5,396.0" stroke="black" stroke-width="2" fill="none" />
<polyline points="2.0,383.5,10.5,384.5,18.5,385.5,26.5,385.5,35.0,384.0,43.0,380.0" stroke="black" stroke-width="2" fill="none" />
<polyline points="49.5,382.0,57.5,376.0,65.5,379.0,70.5,381.0,68.5,389.5,72.5,392.5,80.0,395.5,88.0,391.5,96.0,389.5,104.5,392.0,106.5,395.5" stroke="black" stroke-width="2" fill="none" />
<polyline points="101.5,383.0,93.5,384.0" stroke="black" stroke-width="2" fill="none" />
<polyline points="95.5,373.5,103.5,382.5,111.5,387.5" stroke="black" stroke-width="2" fill="none" />
<polyline points="107.5,377.5,115.5,370.5,123.5,363.0,131.0,355.5" stroke="black" stroke-width="2" fill="none" />
<polyline points="123.0,355.0,115.5,363.0,107.5,370.5" stroke="black" stroke-width="2" fill="none" />
<polyline points="116.0,372.0,124.0,371.0,131.5,370.0,139.0,369.5,147.0,369.0,154.5,368.0" stroke="black" stroke-width="2" fill="none" />
<polyline points="123.5,360.5,115.5,361.0,107.5,361.5,99.5,361.5" stroke="black" stroke-width="2" fill="none" />
<polyline points="98.5,362.0,107.0,355.0" stroke="black" stroke-width="2" fill="none" />
<polyline points="108.0,361.5,116.0,354.5" stroke="black" stroke-width="2" fill="none" />
<polyline points="106.5,346.5,98.5,354.0" stroke="black" stroke-width="2" fill="none" />
<polyline points="99.0,357.5,107.0,357.0,114.5,357.0,122.5,356.5,130.0,356.0,138.5,356.0,147.0,355.5,155.5,355.5,163.5,355.0,172.5,354.5" stroke="black" stroke-width="2" fill="none" />
<polyline points="154.0,309.0,145.5,309.5,137.5,310.0" stroke="black" stroke-width="2" fill="none" />
<polyline points="145.0,295.0,153.0,294.5,161.5,294.5,169.5,294.0,178.5,293.5,187.0,293.0,195.0,292.5,203.0,292.0,211.5,291.5,219.5,290.5,227.5,289.0,235.0,289.0,243.5,288.0,251.0,287.5,258.5,287.0,266.5,286.0" stroke="black" stroke-width="2" fill="none" />
<polyline points="194.5,288.5,186.5,289.0" stroke="black" stroke-width="2" fill="none" />
<polyline points="184.0,288.0,192.0,288.5,199.5,290.0" stroke="black" stroke-width="2" fill="none" />
<polyline points="185.5,286.5,193.5,286.0,202.0,285.5,210.5,285.0,218.5,285.0,226.5,284.5,235.0,284.0,243.5,283.5,251.5,283.0,259.5,281.5,267.5,281.0" stroke="black" stroke-width="2" fill="none" />
<polyline points="269.5,184.5,277.0,184.0" stroke="black" stroke-width="2" fill="none" />
<polyline points="283.0,178.0,291.0,177.5" stroke="black" stroke-width="2" fill="none" />
<polyline points="290.5,175.5,298.5,168.0,306.0,160.5,314.5,152.5,322.5,145.5,330.0,138.5,338.0,130.5,346.0,123.0,354.5,115.0,363.0,108.0,371.0,101.5,379.5,94.5,387.5,87.5,395.5,80.0,404.0,72.5,412.0,64.5,420.0,56.5,428.0,48.5,435.5,41.0,443.5,33.0,451.5,25.5,459.5,18.0,467.5,10.5,475.5,3.0" stroke="black" stroke-width="2" fill="none" />
<polyline points="468.5,3.0,460.5,10.5,452.0,18.0,444.0,25.5,436.5,33.0,428.5,41.0,421.0,48.5,413.0,56.5,405.0,64.5,396.5,72.0,388.5,80.0,380.5,87.5,372.5,95.0,363.5,101.5,355.0,108.5,346.5,115.5,338.5,122.5,330.5,130.0,322.5,137.5,314.5,145.5,307.0,153.0,299.0,160.5,291.0,167.5,283.0,175.5" stroke="black" stroke-width="2" fill="none" />
<polyline points="276.0,175.0,284.0,167.5,292.0,160.5,300.0,152.5,308.0,145.5,316.0,137.5,324.0,130.0,332.0,123.0,340.5,116.0,348.0,108.5,355.5,101.0,363.5,93.5,371.5,86.5,380.0,79.0,388.0,72.0,396.0,64.5,404.0,57.0,412.0,49.0,420.0,41.5,428.0,33.5,435.5,26.0,444.0,18.5,452.0,11.0,460.0,3.0" stroke="black" stroke-width="2" fill="none" />
<polyline points="452.0,4.0,443.5,12.0,435.5,19.5,428.0,27.0,420.0,35.0,412.0,42.5,404.5,50.5,396.5,58.0,389.0,65.5,381.0,73.5,373.0,81.0,365.0,88.5,357.0,95.5,348.5,102.5,340.5,109.5,332.0,117.0,323.5,124.5,315.5,132.5,307.5,140.0,299.5,147.0,291.5,154.5,283.5,162.0,275.0,169.5,267.0,176.5" stroke="black" stroke-width="2" fill="none" />
<polyline points="259.5,177.0,267.5,169.5,276.0,162.0,284.0,154.5,291.5,147.0,300.0,140.0,308.0,132.0,316.0,124.0,324.5,116.5,332.5,108.5,340.5,101.0,348.5,93.5,356.0,86.0,364.0,79.0,372.0,71.0,380.5,63.5,389.0,56.0,396.5,49.0,404.0,41.5,412.0,34.0,419.5,26.5,427.0,19.0,435.0,12.0,443.0,4.5" stroke="black" stroke-width="2" fill="none" />
<polyline points="435.0,3.5,426.5,11.0,418.5,18.5,410.5,26.0,403.0,34.0,395.5,41.5,388.0,48.5,380.5,56.0,373.0,63.5,366.0,71.0,358.0,78.0,349.5,85.5,341.0,92.5,332.5,100.5,323.5,108.5,315.0,116.5,307.0,124.5,299.0,132.0,290.5,140.0,282.5,149.0,274.5,156.5,266.5,163.5,259.0,170.5,251.0,178.0" stroke="black" stroke-width="2" fill="none" />
<polyline points="244.0,176.0,252.0,168.5,259.5,160.5,268.0,153.0,275.5,145.5,283.5,138.5,291.5,131.5,299.5,124.5,308.0,117.5,316.0,109.0,325.0,100.5,333.0,93.0,341.0,85.5,349.0,78.5,357.0,70.0,364.5,62.0,372.0,54.5,380.0,47.0,388.0,40.0,395.5,32.5,402.5,25.5,410.0,18.5,418.0,11.5,426.0,4.0" stroke="black" stroke-width="2" fill="none" />
<polyline points="418.5,4.5,410.5,12.0,403.0,19.5,395.5,26.5,387.5,33.5,379.5,40.5,371.5,48.0,363.5,55.5,355.0,63.0,347.5,70.0,339.5,77.5,331.5,85.0,324.0,93.0,316.5,100.5,309.0,108.5,301.5,115.5,293.5,123.0,285.0,130.0,276.5,137.5,268.0,145.5,260.0,153.0,252.0,160.5,244.0,167.5,236.0,175.5,227.5,184.0" stroke="black" stroke-width="2" fill="none" />
<polyline points="219.0,183.5,227.5,176.0,236.0,168.5,244.5,161.5,252.5,154.0,260.5,146.5,268.5,138.5,277.0,131.0,285.0,123.5,292.5,116.0,300.0,109.0,308.0,101.0,315.5,93.5,323.5,85.5,331.5,78.0,339.5,71.0,347.0,63.5,355.0,56.5,363.5,49.0,372.0,41.5,380.5,33.5,389.0,25.5,396.5,17.5,404.0,9.5,412.0,2.0" stroke="black" stroke-width="2" fill="none" />
<polyline points="404.5,1.5,396.5,9.0,388.5,16.5,380.5,24.0,372.5,31.5,364.5,38.5,356.5,46.5,348.5,54.5,340.0,62.0,331.5,70.0,323.0,78.0,315.0,85.5,307.0,92.0,299.0,99.5,290.0,106.5,282.0,113.5,273.5,121.5,265.5,129.5,258.0,137.0,250.5,144.5,242.0,151.5,234.5,159.5,226.5,168.0,218.5,175.5,211.0,183.0" stroke="black" stroke-width="2" fill="none" />
<polyline points="218.5,186.0,210.0,186.5,201.5,186.5,193.5,187.0,185.5,188.0,177.5,188.0,170.0,188.5,163.0,189.0,155.5,189.5,147.5,190.5,140.0,191.5,132.5,192.0,124.5,193.0,117.5,194.0,109.5,195.0,101.0,195.5,92.5,195.5,84.5,195.5,77.0,195.5,68.5,195.5,60.5,196.5,52.5,197.0,44.5,197.5,36.5,198.0,28.0,198.5" stroke="black" stroke-width="2" fill="none" />
<polyline points="27.5,205.5,19.5,206.0" stroke="black" stroke-width="2" fill="none" />
<polyline points="18.5,190.5,27.0,189.5,35.5,188.5,43.5,188.0,51.5,188.0,60.0,187.5,68.5,187.0,77.0,187.0,85.5,186.5,93.5,186.0,102.0,186.0,109.5,185.5,117.5,185.0,125.0,184.5,132.5,184.0,140.5,183.5,148.0,182.5,155.5,181.5,163.5,181.0,171.5,180.5,179.5,180.0,187.5,179.5,196.0,179.0,204.0,179.0,211.5,179.0,219.0,179.0,227.0,178.5,235.0,177.5,243.0,176.5,251.5,176.0,260.0,175.5,267.5,175.0,275.5,174.5" stroke="black" stroke-width="2" fill="none" />
<polyline points="282.0,161.0,290.0,161.0,298.0,161.0,306.0,161.0" stroke="black" stroke-width="2" fill="none" />
<polyline points="306.5,174.5,314.0,167.0,322.0,159.5,330.0,152.5,338.5,144.5,347.0,137.0,355.0,130.0,363.0,123.0,371.0,115.5,378.5,109.0,386.0,102.5,393.5,95.0,401.5,87.5,410.0,79.5,418.0,72.0,426.0,65.0,434.5,56.5,443.0,48.0,451.0,40.0,459.5,32.5,468.0,25.5,476.5,18.5,484.5,11.0,492.0,3.5" stroke="black" stroke-width="2" fill="none" />
<polyline points="499.5,1.5,491.5,9.5,483.5,17.5,475.0,25.5,466.5,33.5,458.0,41.5,450.0,49.0,442.0,56.0,433.5,63.5,425.0,70.5,417.0,78.0,409.5,85.5,401.5,93.5,394.0,101.0,386.5,108.0,378.5,115.0,371.0,123.0,362.5,131.0,354.5,138.0,346.5,145.0,338.5,152.5,330.5,160.0,322.5,168.0,315.0,176.0" stroke="black" stroke-width="2" fill="none" />
<polyline points="324.0,174.5,332.0,167.0,340.5,159.5,348.5,152.0,356.0,144.5,364.0,137.5,372.0,130.5,380.0,123.5,388.0,117.0,396.0,109.5,404.0,102.5,411.5,95.0,419.0,87.0,427.0,79.5,434.5,72.0,442.5,65.0,450.5,57.5,459.0,49.0,467.0,41.5,475.0,34.0,482.5,27.0,490.5,19.5,498.5,11.5,506.0,4.0" stroke="black" stroke-width="2" fill="none" />
<polyline points="515.5,5.0,507.5,12.5,499.0,19.5,491.5,26.5,484.0,33.5,476.5,41.0,468.0,49.0,460.5,57.0,452.5,64.5,445.0,72.5,437.0,79.5,429.0,87.0,421.0,94.0,412.5,101.0,404.5,108.5,397.0,115.5,388.5,122.5,380.5,129.5,372.5,136.5,364.0,143.5,355.5,151.0,347.5,159.0,340.0,167.0" stroke="black" stroke-width="2" fill="none" />
<polyline points="347.5,168.5,355.0,161.0,363.5,154.0,371.5,146.5,380.0,139.0,388.0,132.0,396.0,124.5,404.5,117.5,412.5,110.5,420.5,103.0,428.0,95.5,435.5,87.5,444.0,80.0,452.5,73.0,461.0,65.5,469.0,59.0,477.5,51.0,485.5,43.5,493.5,35.5,501.5,28.0,509.0,20.5,517.0,12.5" stroke="black" stroke-width="2" fill="none" />
<polyline points="516.5,22.0,508.5,29.5,501.0,37.5,492.5,44.5,484.5,51.5,476.5,59.0,468.5,66.0,460.0,73.5,452.0,80.5,445.0,88.0,437.0,95.5,428.5,103.0,420.5,110.0,412.0,117.5,403.5,124.0,395.5,131.5,387.0,139.0,379.0,147.0,370.5,155.0,362.0,162.5,353.5,170.0" stroke="black" stroke-width="2" fill="none" />
<polyline points="349.5,153.5,341.5,154.0" stroke="black" stroke-width="2" fill="none" />
<polyline points="332.0,162.0,340.0,161.5,348.0,161.0,356.0,160.5,363.5,160.5,372.0,160.0,379.5,159.5,388.0,159.0,396.0,158.5,404.5,157.5,412.0,156.5" stroke="black" stroke-width="2" fill="none" />
<polyline points="356.0,136.5,364.0,136.5,372.0,135.5,380.5,135.0,389.0,134.5,397.5,134.5,405.5,134.5,413.0,134.5,420.5,134.0,428.5,133.5,437.0,133.0,444.5,132.5,453.0,131.5,461.0,130.5,468.5,130.5,476.5,130.0,484.0,129.0,491.0,128.5,499.0,128.0,506.5,127.5,515.0,127.0" stroke="black" stroke-width="2" fill="none" />
<polyline points="514.5,35.0,507.0,36.0,498.5,36.5,491.0,37.0,483.0,37.5,476.0,38.0,468.5,39.0,460.5,39.5,453.0,39.5,445.0,40.5,436.5,41.5,429.0,42.0" stroke="black" stroke-width="2" fill="none" />
<polyline points="419.0,50.0,428.0,49.5,436.5,49.5,445.0,48.5,453.0,48.0,460.5,47.5,468.5,46.5,476.0,45.5,484.0,45.0,491.5,44.5,499.5,44.0,507.5,43.5,515.0,43.0" stroke="black" stroke-width="2" fill="none" />
<polyline points="484.0,3.0,476.0,11.0,467.5,19.0,459.5,26.5,451.5,34.0,443.5,42.0,435.5,50.0,427.0,57.5,418.5,65.5,410.0,73.0,402.0,81.0,394.0,88.0,386.0,95.0,378.0,102.0,369.5,109.0,361.0,116.0,353.5,123.0,345.5,131.0,337.5,138.5,329.5,146.5,321.5,154.0,313.5,161.0,305.5,168.0,297.5,175.0" stroke="black" stroke-width="2" fill="none" />
<polyline points="299.5,175.0,307.5,174.5,316.0,174.0,324.5,174.5" stroke="black" stroke-width="2" fill="none" />
<polyline points="332.0,178.0,340.0,177.5,347.5,176.5,355.5,175.5,364.0,174.5,372.0,174.0,379.5,173.0,387.0,172.5,395.0,171.5" stroke="black" stroke-width="2" fill="none" />
<polyline points="347.5,130.5,356.5,130.0,364.5,129.5,372.5,128.5,380.5,127.5,388.5,126.0,395.5,125.0,403.5,124.5,411.0,123.5,419.0,123.0,426.5,122.5,435.0,122.0,443.0,121.5,450.5,121.5,458.5,121.0,467.0,121.0,475.0,121.0,482.5,121.0,490.5,121.0,498.5,121.0,507.0,120.5,514.5,120.0" stroke="black" stroke-width="2" fill="none" />
<polyline points="417.5,39.0,409.5,40.0" stroke="black" stroke-width="2" fill="none" />
<polyline points="410.5,31.5,419.0,31.0,427.0,30.5,434.5,30.5,442.5,30.0,451.0,30.0,459.0,30.0,466.5,30.0,474.5,30.0,482.5,30.0,491.0,29.5,498.5,29.0,506.5,29.0,514.5,28.5" stroke="black" stroke-width="2" fill="none" />
<polyline points="404.5,31.5,396.5,32.0" stroke="black" stroke-width="2" fill="none" />
<polyline points="388.5,4.0,380.5,11.5,372.5,19.5,364.5,27.0,356.0,34.5,347.5,42.5,339.5,50.0,331.0,57.5,322.5,65.0,314.5,72.0,307.0,80.0,299.0,87.0,290.5,95.0,282.0,102.5,274.0,110.0,265.5,118.0,257.5,125.5,249.5,132.5,241.0,140.0,233.0,147.5,224.5,155.0,217.0,162.5,209.5,170.5,201.5,178.0,194.0,186.0,186.0,193.5,178.0,200.0" stroke="black" stroke-width="2" fill="none" />
<polyline points="187.5,198.5,195.0,191.0,203.0,183.0,211.0,175.5,218.5,168.0,226.5,161.0,234.0,153.0,242.0,146.0,249.5,139.5,257.0,132.0,265.5,124.0,274.0,116.0,282.5,108.5,290.5,101.5,299.0,93.5,307.5,85.0,315.0,77.0,323.5,70.0,332.0,63.0,340.5,56.0,348.5,49.0,356.0,41.5,364.5,34.0,373.0,26.0,381.0,18.0,389.0,10.0,397.0,2.5" stroke="black" stroke-width="2" fill="none" />
<polyline points="378.5,1.5,370.0,9.5,362.0,17.5,354.0,25.5,346.0,33.5,338.5,41.5,330.0,49.5,322.0,57.5,314.0,65.0,306.0,73.0,298.0,80.5,290.0,88.0,282.5,95.0,274.5,102.5,267.0,110.5,259.0,118.0,251.5,125.5,243.5,133.0,235.5,140.0,227.5,147.5,219.5,155.0,211.0,162.5,203.0,170.5,195.0,178.0,186.5,185.5,178.5,192.5,170.5,200.0" stroke="black" stroke-width="2" fill="none" />
<polyline points="164.0,199.0,172.0,192.0,180.0,184.5,188.0,177.5,196.0,170.0,204.0,162.0,212.0,154.5,219.5,146.5,227.5,139.0,235.0,131.5,242.5,124.0,250.0,117.0,258.0,109.0,266.5,101.5,275.0,94.0,282.5,87.0,290.5,80.0,298.5,72.0,306.5,64.5,314.5,57.0,323.0,49.5,331.0,42.0,339.5,33.5,348.0,25.5,355.5,17.0,363.0,8.5,371.0,1.0" stroke="black" stroke-width="2" fill="none" />
<polyline points="364.0,5.0,356.0,12.5,348.0,20.0,340.0,28.0,332.5,35.5,324.5,43.0,317.0,50.5,309.0,58.0,300.5,65.5,292.5,73.5,284.5,81.0,276.5,88.5,269.0,96.5,260.5,103.5,252.5,110.5,244.5,118.0,236.5,125.0,228.0,132.5,220.0,139.5,213.0,147.0,205.0,154.5,196.5,162.0,188.5,169.0,180.0,176.5,171.5,183.0,163.5,190.5,155.0,198.0" stroke="black" stroke-width="2" fill="none" />
<polyline points="147.0,198.0,154.5,190.0,162.5,183.0,170.0,176.0,177.5,168.5,185.5,160.5,193.0,153.0,201.0,145.5,209.5,138.5,218.0,131.0,226.0,124.0,234.0,116.5,242.5,108.5,251.0,100.5,259.5,92.5,267.5,84.5,275.5,76.5,283.5,69.5,292.0,62.0,300.0,54.5,307.5,47.0,316.0,39.5,323.5,32.5,331.0,25.0,338.5,17.5,346.0,10.0,354.0,2.5" stroke="black" stroke-width="2" fill="none" />
<polyline points="346.5,4.0,338.5,11.5,330.5,19.0,323.0,26.0,315.0,33.0,307.0,40.0,299.5,47.5,291.5,55.5,284.0,63.0,276.0,70.5,268.0,78.0,260.0,86.0,251.5,94.0,243.5,101.5,235.5,109.0,227.5,117.0,219.5,125.0,211.0,132.5,202.5,140.5,194.0,148.0,186.0,156.0,178.0,163.0,170.0,170.0,162.0,177.0,153.5,184.0,145.0,191.0,137.5,198.0" stroke="black" stroke-width="2" fill="none" />
<polyline points="130.5,197.5,138.5,190.5,147.0,183.5,155.5,176.5,164.5,170.0,172.5,162.5,180.5,155.0,188.5,147.0,197.0,139.5,205.0,131.5,213.0,123.5,220.5,116.0,228.5,108.0,236.0,100.5,244.0,93.0,252.5,85.5,260.5,78.0,268.5,70.5,276.5,63.0,284.0,55.0,291.5,47.5,299.0,40.0,307.0,32.0,315.0,24.5,323.5,17.5,332.0,10.5,340.0,3.0" stroke="black" stroke-width="2" fill="none" />
<polyline points="330.5,3.0,323.0,10.0,315.0,17.5,306.5,25.0,298.0,32.0,290.0,39.5,282.5,47.0,275.0,55.5,267.5,63.5,259.5,71.5,251.0,79.5,243.0,87.0,235.0,94.0,227.5,101.5,220.0,109.0,212.0,116.5,204.5,124.0" stroke="black" stroke-width="2" fill="none" />
<polyline points="194.5,139.0,186.5,146.5,178.0,154.5,170.0,162.5,162.0,170.0,154.0,177.5,145.5,185.0,137.5,192.0,130.0,199.5,122.0,207.0" stroke="black" stroke-width="2" fill="none" />
<polyline points="123.5,210.5,132.0,210.0" stroke="black" stroke-width="2" fill="none" />
<polyline points="124.5,210.5,115.0,218.5,108.0,226.0,101.5,234.0,95.5,242.0,89.0,250.0,81.0,258.0,70.5,266.0,61.5,274.0,57.5,281.0,56.5,282.0,64.5,279.0,72.5,276.0,81.0,271.0,89.0,269.0,96.5,268.5,105.0,269.0,113.5,269.0,121.5,269.5,129.5,271.5,137.5,274.0,145.5,274.5,153.5,277.5,161.5,280.0,169.5,282.5,177.5,286.0,180.0,290.0,188.0,292.0,196.0,292.0,203.5,291.5,211.5,290.5" stroke="black" stroke-width="2" fill="none" />
<polyline points="169.5,284.5,161.5,292.0" stroke="black" stroke-width="2" fill="none" />
<polyline points="162.0,297.5,169.5,297.5,177.5,297.0,185.5,296.5,194.0,295.5,202.0,294.0,210.0,293.5,218.5,293.0,227.0,292.5,234.5,292.0,242.5,291.5" stroke="black" stroke-width="2" fill="none" />
<polyline points="163.0,281.5,155.5,288.5" stroke="black" stroke-width="2" fill="none" />
<polyline points="154.5,292.5,162.5,292.0,170.0,291.0" stroke="black" stroke-width="2" fill="none" />
<polyline points="153.5,280.5,161.0,272.5" stroke="black" stroke-width="2" fill="none" />
<polyline points="154.0,276.0,145.5,283.0" stroke="black" stroke-width="2" fill="none" />
<polyline points="145.5,277.5,137.5,284.5" stroke="black" stroke-width="2" fill="none" />
<polyline points="139.5,285.0,157.5,293.0,166.5,301.5,171.5,309.5,174.5,317.5,176.0,325.5,176.5,333.0,174.5,340.5,171.0,348.5,163.0,356.0" stroke="black" stroke-width="2" fill="none" />
<polyline points="156.0,361.0,148.0,362.0,140.0,363.0,132.0,363.5,124.5,364.5,117.0,365.5,109.5,366.5,101.5,366.5,94.0,367.0" stroke="black" stroke-width="2" fill="none" />
<polyline points="90.5,369.5,98.5,373.0,106.5,375.0,114.5,377.5,122.0,379.0,129.5,381.0,137.0,381.5,145.0,381.5,152.5,381.5,160.5,381.0" stroke="black" stroke-width="2" fill="none" />
<polyline points="170.5,367.0,163.0,367.5,154.5,368.0,147.0,368.5,139.0,369.5,131.5,370.5,123.5,371.5,115.5,372.5,107.0,373.0,99.0,374.0,91.0,374.0,83.0,374.5" stroke="black" stroke-width="2" fill="none" />
<polyline points="86.0,364.5,78.0,365.0" stroke="black" stroke-width="2" fill="none" />
<polyline points="91.0,354.5,99.0,347.0" stroke="black" stroke-width="2" fill="none" />
<polyline points="93.0,349.0,100.5,348.5,108.5,348.0,116.5,347.5,124.5,347.0,132.5,346.5,140.0,346.0,148.5,345.0,157.0,344.5,166.0,344.5,174.0,344.0,182.0,343.5" stroke="black" stroke-width="2" fill="none" />
<polyline points="161.5,280.5,154.0,280.5,146.0,281.5,137.5,282.0,129.5,282.5" stroke="black" stroke-width="2" fill="none" />
<polyline points="131.5,282.0,139.5,274.0" stroke="black" stroke-width="2" fill="none" />
<polyline points="140.0,266.5,131.5,274.0" stroke="black" stroke-width="2" fill="none" />
<polyline points="130.5,276.0,138.5,275.5" stroke="black" stroke-width="2" fill="none" />
<polyline points="130.0,270.0,138.0,269.0,146.5,268.5" stroke="black" stroke-width="2" fill="none" />
<polyline points="121.5,267.0,113.5,275.0" stroke="black" stroke-width="2" fill="none" />
<polyline points="109.0,273.5,117.5,266.0" stroke="black" stroke-width="2" fill="none" />
<polyline points="107.5,265.5,100.0,273.0" stroke="black" stroke-width="2" fill="none" />
<polyline points="98.0,268.0,90.5,275.5,83.0,283.0" stroke="black" stroke-width="2" fill="none" />
<polyline points="84.0,281.5,73.0,289.5,69.5,297.0,68.5,305.0,70.5,313.0,72.5,320.5,75.5,328.5,81.5,336.0,89.0,344.0,100.5,351.5,117.5,359.5" stroke="black" stroke-width="2" fill="none" />
<polyline points="108.5,353.0,100.5,353.5,92.5,354.5" stroke="black" stroke-width="2" fill="none" />
<polyline points="83.0,347.0,91.0,340.0" stroke="black" stroke-width="2" fill="none" />
<polyline points="90.5,345.0,82.5,345.5" stroke="black" stroke-width="2" fill="none" />
<polyline points="83.5,341.5,91.0,340.5,98.0,340.0,105.5,339.5,113.5,339.5,121.5,340.0,129.5,339.0,137.5,338.5,145.0,338.0,153.5,337.5,162.0,336.5,169.5,336.5,177.5,336.0" stroke="black" stroke-width="2" fill="none" />
<polyline points="186.5,328.5,177.5,329.0,169.5,329.5,161.0,329.5,153.0,330.0,145.5,330.0,138.0,330.5,131.0,331.0,124.0,330.5,116.5,330.5,109.0,330.5,101.0,330.5,93.0,331.0,85.0,331.5,77.0,332.5" stroke="black" stroke-width="2" fill="none" />
<polyline points="74.5,331.5,82.5,323.5" stroke="black" stroke-width="2" fill="none" />
<polyline points="76.0,322.0,67.5,329.5" stroke="black" stroke-width="2" fill="none" />
<polyline points="66.5,331.0,74.5,330.5" stroke="black" stroke-width="2" fill="none" />
<polyline points="68.5,326.5,76.5,326.0,84.0,325.0,91.5,324.5,99.0,324.0,107.0,323.0,114.5,322.5,122.5,322.0,130.5,321.5,138.5,321.5,146.0,321.0,154.0,320.0,162.5,319.5,171.0,318.5,180.0,318.5,188.0,317.5" stroke="black" stroke-width="2" fill="none" />
<polyline points="125.0,273.5,117.0,274.0,109.0,274.0,101.0,274.0,93.5,274.5" stroke="black" stroke-width="2" fill="none" />
<polyline points="93.5,270.0,101.5,269.5,109.0,269.0,117.0,269.0,124.0,269.0" stroke="black" stroke-width="2" fill="none" />
<polyline points="101.5,238.5,94.0,239.0" stroke="black" stroke-width="2" fill="none" />
<polyline points="91.5,240.5,99.5,233.0,107.5,225.5" stroke="black" stroke-width="2" fill="none" />
<polyline points="107.5,220.5,115.5,220.5" stroke="black" stroke-width="2" fill="none" />
<polyline points="108.0,213.5,116.0,213.5,123.5,213.0" stroke="black" stroke-width="2" fill="none" />
<polyline points="116.5,208.0,124.0,207.5,131.5,206.5,139.5,205.5,147.0,204.5,155.0,204.0,162.5,203.5,171.0,203.0,179.0,202.5,186.5,202.0,194.5,201.5" stroke="black" stroke-width="2" fill="none" />
<polyline points="187.0,213.0,178.5,213.5,170.5,214.0,163.0,214.5,154.5,215.0" stroke="black" stroke-width="2" fill="none" />
<polyline points="133.5,202.0,125.5,203.5,117.5,208.5,110.0,218.0,102.0,228.0,94.0,237.5,86.0,247.0,77.5,256.0,69.5,262.5,61.0,268.0,53.0,276.0,44.5,286.0" stroke="black" stroke-width="2" fill="none" />
<polyline points="51.5,285.0,60.0,284.5,68.0,284.5,76.0,284.0,84.0,284.0,92.0,284.0,100.0,283.5,107.0,283.0,115.0,282.0,123.5,281.5,131.5,280.5,139.5,280.5,147.5,280.0,155.5,279.5,164.0,279.0,172.5,279.0,180.5,278.5" stroke="black" stroke-width="2" fill="none" />
<polyline points="187.0,310.5,179.5,311.0,171.5,312.0,164.0,312.5,156.0,313.0,147.5,313.5,139.5,314.0,131.5,314.5,123.5,315.0,116.0,315.0,108.0,315.5,100.0,316.0,92.5,316.0,84.5,316.5,77.0,316.5,69.5,317.5" stroke="black" stroke-width="2" fill="none" />
<polyline points="73.0,315.5,81.0,331.5,89.0,340.0,97.0,347.0,105.0,352.5,113.0,357.5,120.5,360.0,127.5,362.5,135.0,364.0,142.5,365.0,150.5,362.0,158.5,359.0,167.0,352.0" stroke="black" stroke-width="2" fill="none" />
<polyline points="132.5,307.5,124.5,307.5,116.0,307.5,107.5,308.0,99.0,308.0,91.0,307.5,83.0,307.5,75.0,308.0,67.0,308.5,58.5,309.0" stroke="black" stroke-width="2" fill="none" />
<polyline points="65.0,313.5,73.0,305.5" stroke="black" stroke-width="2" fill="none" />
<polyline points="70.0,307.0,61.5,314.5" stroke="black" stroke-width="2" fill="none" />
<polyline points="67.5,322.0,76.0,314.5" stroke="black" stroke-width="2" fill="none" />
<polyline points="85.0,331.5,77.5,338.5" stroke="black" stroke-width="2" fill="none" />
<polyline points="78.0,337.5,85.5,337.0" stroke="black" stroke-width="2" fill="none" />
<polyline points="104.5,367.5,96.5,368.5,88.0,371.5,80.0,369.5,72.0,367.0,63.5,364.5,55.5,363.5,47.5,361.5,40.0,359.0,32.0,357.0,24.5,356.0" stroke="black" stroke-width="2" fill="none" />
<polyline points="14.0,360.0,21.5,360.0,29.0,362.0,37.0,364.5,45.0,365.5" stroke="black" stroke-width="2" fill="none" />
<polyline points="37.0,371.0,29.0,367.5,21.0,365.0,13.5,362.0" stroke="black" stroke-width="2" fill="none" />
<polyline points="14.0,363.5,35.0,371.5,44.0,380.0" stroke="black" stroke-width="2" fill="none" />
<polyline points="50.5,387.0,58.5,392.5,67.0,395.5,75.0,398.5,83.0,400.5,90.5,403.0,98.5,403.0,106.5,395.0" stroke="black" stroke-width="2" fill="none" />
<polyline points="95.5,372.5,98.5,380.5,109.0,388.5,119.0,396.0,116.5,404.0,112.5,411.5,109.0,419.5,113.0,422.5,120.5,426.0,129.0,420.0,137.0,417.0,144.5,420.0,152.0,420.0,160.0,419.0,167.5,416.0,176.0,410.5" stroke="black" stroke-width="2" fill="none" />
<polyline points="138.0,420.5,129.5,421.0" stroke="black" stroke-width="2" fill="none" />
<polyline points="128.0,421.5,131.0,413.5" stroke="black" stroke-width="2" fill="none" />
<polyline points="135.0,411.5,136.0,403.5" stroke="black" stroke-width="2" fill="none" />
<polyline points="182.5,339.5,174.5,356.0,166.5,364.0,158.5,369.0,151.0,371.0,143.0,373.5,135.0,375.0,126.5,374.0,119.0,372.0,111.5,369.5,103.5,363.0,95.5,359.0,87.5,353.0,80.0,345.0,72.0,335.0,64.0,321.0,55.5,304.5,47.5,295.5" stroke="black" stroke-width="2" fill="none" />
<polyline points="51.0,295.5,58.5,298.5" stroke="black" stroke-width="2" fill="none" />
<polyline points="59.0,297.5,67.0,290.0,75.0,283.0,82.5,275.5" stroke="black" stroke-width="2" fill="none" />
<polyline points="82.5,274.0,90.5,273.0,98.0,272.0,105.5,272.0,113.5,272.0,121.5,273.0,129.0,274.5,136.5,276.5,144.5,279.0,160.5,280.0,177.5,286.0" stroke="black" stroke-width="2" fill="none" />
<polyline points="107.0,230.0,99.0,230.5" stroke="black" stroke-width="2" fill="none" />
<polyline points="89.5,244.0,81.5,244.0" stroke="black" stroke-width="2" fill="none" />
<polyline points="82.5,252.0,75.0,252.5" stroke="black" stroke-width="2" fill="none" />
<polyline points="76.5,260.5,68.5,268.0,60.5,275.0" stroke="black" stroke-width="2" fill="none" />
<polyline points="60.5,280.0,68.5,279.5,75.5,279.0,83.5,279.0" stroke="black" stroke-width="2" fill="none" />
<polyline points="76.0,278.0,68.0,285.0,59.5,292.0" stroke="black" stroke-width="2" fill="none" />
<polyline points="53.5,294.5,61.5,294.0,69.5,293.5,77.5,293.0,85.5,292.0,93.0,291.5,101.0,291.0,109.0,291.0,117.0,290.5,124.5,290.5,132.5,290.0,140.5,289.5" stroke="black" stroke-width="2" fill="none" />
<polyline points="74.5,292.0,66.5,299.0,59.5,306.0" stroke="black" stroke-width="2" fill="none" />
<polyline points="60.0,299.5,67.5,299.5,75.5,299.5,83.5,299.5,92.0,299.5,100.5,299.5,108.0,299.0,115.5,298.5,123.0,298.5,130.5,298.5,138.5,298.5,146.5,297.5,154.5,296.5,162.0,296.0,170.0,295.5,178.5,295.0,186.0,295.0" stroke="black" stroke-width="2" fill="none" />
<polyline points="170.5,271.0,162.0,271.0,154.5,271.5,146.5,272.0,139.0,272.0,131.0,272.5,123.0,272.5,115.0,273.0,106.5,273.5,98.0,274.5,90.5,275.0,82.5,275.0,74.5,275.0,67.0,275.0,59.0,274.5,51.5,274.5" stroke="black" stroke-width="2" fill="none" />
<polyline points="53.0,278.5,61.0,273.0,68.5,266.5,76.5,262.0,85.0,254.0,93.0,244.0,101.0,234.0,109.0,224.0,117.0,215.0,125.0,209.5,133.0,209.5,141.0,211.0,149.0,215.0,157.0,217.5,164.5,219.5,172.5,221.0,181.0,218.0,189.0,211.0,197.0,206.0,202.0,206.5,210.0,200.5,213.0,200.0,221.0,198.0,229.0,194.0,237.0,193.0,245.0,193.0,253.0,193.5,261.0,190.0,270.0,191.0,278.0,190.5,286.0,187.5,294.0,186.5,302.5,185.5,310.5,186.0,319.0,183.5,327.0,182.5" stroke="black" stroke-width="2" fill="none" />
<polyline points="301.5,183.5,293.5,184.0" stroke="black" stroke-width="2" fill="none" />
<polyline points="293.5,170.5,301.0,170.0,308.5,170.0,316.0,169.0,323.5,168.5,331.5,168.0,339.0,167.0,347.0,166.5" stroke="black" stroke-width="2" fill="none" />
<polyline points="348.5,145.0,340.0,145.5,331.5,146.5" stroke="black" stroke-width="2" fill="none" />
<polyline points="342.5,122.5,350.0,122.0,358.0,121.5,365.5,121.0,373.5,120.5,381.5,120.5,389.5,119.5,397.0,119.0,405.0,118.0,413.5,117.0,421.0,116.0,429.0,116.0" stroke="black" stroke-width="2" fill="none" />
<polyline points="516.5,102.0,509.0,102.0,501.5,102.5,494.0,103.0,485.5,103.0,477.0,103.0,468.5,103.5,460.0,104.0,451.5,104.5,443.5,105.0,435.0,105.5,427.0,106.0,419.5,106.5,411.5,106.5,403.5,107.5,394.5,108.0,386.5,109.0,378.5,110.0,370.0,110.5,362.5,111.0,354.5,111.5,347.0,112.0,339.0,113.0,331.0,113.5" stroke="black" stroke-width="2" fill="none" />
<polyline points="325.5,104.0,333.0,103.0,341.0,102.5,349.0,102.0,356.5,101.5,364.0,101.0,372.5,100.5,381.0,100.0,389.5,99.5,397.5,99.0,406.0,98.0,413.5,97.5,422.0,97.5,430.0,97.0,437.5,97.0,445.5,96.5,453.5,96.0,461.5,95.5,469.5,95.0,477.0,94.5,485.5,94.0,493.0,94.0,500.0,93.5,507.5,93.0,515.5,92.5" stroke="black" stroke-width="2" fill="none" />
<polyline points="516.5,77.5,509.0,77.5,501.0,77.5,493.0,77.5,485.0,78.5,478.0,79.0,470.0,80.0,461.5,80.5,453.0,80.5,445.0,81.0,437.0,82.0,428.5,82.0,420.0,82.5,412.0,83.0,404.0,83.5,396.0,83.5,387.5,84.0,379.5,84.5,371.0,84.5,362.5,85.5,354.5,86.5,345.5,87.5,337.0,88.5,329.0,89.5" stroke="black" stroke-width="2" fill="none" />
<polyline points="324.5,97.0,332.5,96.5,340.5,96.0,348.5,95.5,356.0,95.0,364.0,95.0,372.0,94.0,380.0,93.0,388.5,92.5,396.5,92.0,405.0,91.5,413.0,91.0,420.5,90.0,428.5,90.0,436.0,89.5,444.0,89.5,452.0,89.0,460.0,89.0,468.0,88.5,475.5,87.5,483.5,86.5,491.5,86.0,499.0,85.5,506.5,85.0,514.5,84.5" stroke="black" stroke-width="2" fill="none" />
<polyline points="316.5,104.0,308.5,105.0" stroke="black" stroke-width="2" fill="none" />
<polyline points="292.5,83.5,300.5,82.5,308.5,81.5,317.0,81.0,325.0,81.0,333.5,81.0,341.0,80.0,348.5,79.5,356.5,79.0,364.0,78.5,371.5,77.5,380.5,77.0,388.5,76.5,396.5,75.5,404.5,74.5,412.5,73.0,419.5,72.0,427.5,71.5,435.0,70.5,443.0,70.0,450.5,69.5,459.0,69.0,467.0,68.5,474.5,68.5,482.5,68.0,491.0,68.0,499.0,68.0,506.5,68.0,514.5,68.0" stroke="black" stroke-width="2" fill="none" />
<polyline points="322.5,4.5,314.5,12.0,306.5,19.5,298.5,27.0,291.0,34.5,283.0,41.5,275.5,48.5,267.5,56.0,259.5,63.5,252.0,71.0,244.0,78.5,236.0,86.0,228.0,93.5,219.5,101.0,211.0,108.5,203.0,116.5,195.5,124.0,187.5,132.0,179.5,139.5,171.5,146.5,163.5,154.5,155.5,161.5,147.5,169.0,140.0,176.0,132.5,183.0,125.0,190.5,117.0,198.0" stroke="black" stroke-width="2" fill="none" />
<polyline points="124.0,202.5,115.0,210.5,108.5,218.0,102.5,226.0,95.5,234.0,89.5,242.0,82.0,249.5,75.0,257.5,65.5,265.0,56.5,273.0,49.0,281.0,45.5,289.0,47.0,297.0,55.0,305.5,59.0,313.5,62.5,321.5,67.0,330.0,72.0,338.0,79.0,346.0,88.0,353.5,99.0,361.5,113.0,369.5" stroke="black" stroke-width="2" fill="none" />
<polyline points="109.0,426.5,87.0,418.5,66.5,410.5,46.5,402.5" stroke="black" stroke-width="2" fill="none" />
<polyline points="54.5,376.0,49.5,384.0,54.5,392.0,77.5,400.0" stroke="black" stroke-width="2" fill="none" />
<polyline points="19.5,378.0,11.5,378.0,3.5,377.0" stroke="black" stroke-width="2" fill="none" />
<polyline points="2.0,366.5,10.5,370.0,18.5,373.0" stroke="black" stroke-width="2" fill="none" />
<polyline points="50.5,291.0,58.0,292.0" stroke="black" stroke-width="2" fill="none" />
<polyline points="53.0,289.5,61.0,281.5,69.0,273.5" stroke="black" stroke-width="2" fill="none" />
<polyline points="67.0,264.0,75.0,263.5" stroke="black" stroke-width="2" fill="none" />
<polyline points="77.0,266.5,74.0,270.0,80.0,262.0" stroke="black" stroke-width="2" fill="none" />
<polyline points="83.0,260.5,75.5,261.0,68.0,261.5" stroke="black" stroke-width="2" fill="none" />
<polyline points="59.5,270.0,68.0,269.5,76.0,269.0,84.5,268.5" stroke="black" stroke-width="2" fill="none" />
<polyline points="76.5,288.5,68.5,288.5" stroke="black" stroke-width="2" fill="none" />
<polyline points="69.5,293.5,77.5,283.5,85.5,280.5,93.5,278.5,101.5,279.0,109.0,279.0,117.0,280.0,125.0,281.0,133.0,282.5,141.0,285.5,148.5,288.5,157.0,292.5,165.0,299.5,173.0,314.5" stroke="black" stroke-width="2" fill="none" />
<polyline points="181.5,217.0,194.0,209.5,204.0,201.5,212.0,200.0" stroke="black" stroke-width="2" fill="none" />
<polyline points="190.0,184.5,182.0,185.0" stroke="black" stroke-width="2" fill="none" />
<polyline points="180.0,178.0,188.0,178.0" stroke="black" stroke-width="2" fill="none" />
<polyline points="162.5,148.0,155.0,155.5" stroke="black" stroke-width="2" fill="none" />
<polyline points="148.0,165.5,140.0,173.0" stroke="black" stroke-width="2" fill="none" />
<polyline points="138.5,168.5,147.0,160.5,155.5,153.0,163.0,146.0,170.5,139.0,178.5,131.5,187.0,123.5,195.0,115.5,203.5,108.0,212.0,100.0,220.5,92.0,229.0,83.5,237.0,76.0,244.5,68.0,252.0,61.0,260.0,54.0,268.0,47.0,276.0,40.5,283.5,33.0,291.5,26.5,299.5,19.5,307.5,12.5,316.0,5.0" stroke="black" stroke-width="2" fill="none" />
<polyline points="306.5,3.0,298.5,11.0,291.0,18.5,283.0,26.0,275.5,33.0,268.0,40.5,260.5,48.0,253.0,55.5,245.5,63.0,237.0,70.0,229.0,77.5,221.0,85.0,213.0,93.0,205.0,101.0,196.5,109.0,188.0,116.5,180.5,124.0,172.5,131.0" stroke="black" stroke-width="2" fill="none" />
<polyline points="162.0,130.5,170.5,123.5,179.5,116.5,188.0,109.0,196.0,102.0,204.0,94.5,211.5,86.5,219.5,79.0,227.5,71.0,235.5,63.0,244.0,55.5,252.5,47.5,260.0,39.5,268.0,31.5,276.0,24.0,283.5,16.0,291.0,8.5,298.5,1.0" stroke="black" stroke-width="2" fill="none" />
<polyline points="293.0,3.0,285.0,10.5,276.5,18.0,268.5,25.5,260.5,33.5,252.5,41.0,243.5,48.0,235.5,55.0,227.0,62.5,219.0,70.0,211.0,78.0,202.5,85.0,194.5,92.5,186.5,100.5,179.0,108.5,171.0,116.5,163.5,124.0" stroke="black" stroke-width="2" fill="none" />
<polyline points="156.0,124.0,148.0,132.0" stroke="black" stroke-width="2" fill="none" />
<polyline points="154.0,130.0,161.5,123.0,169.5,115.5,178.0,108.0" stroke="black" stroke-width="2" fill="none" />
<polyline points="188.0,95.0,196.0,87.5,204.0,80.0,212.0,72.5,220.0,64.5,228.0,56.5,236.0,49.0,244.5,41.5,252.0,34.0,259.5,27.0,267.5,19.5,275.5,12.0,283.5,4.5" stroke="black" stroke-width="2" fill="none" />
<polyline points="276.5,4.0,268.0,11.5,260.0,18.5,252.0,26.0,244.0,34.0,236.0,41.5,227.5,48.5,219.5,56.0,211.0,63.0,203.0,70.5" stroke="black" stroke-width="2" fill="none" />
<polyline points="196.0,82.5,187.5,90.0,179.5,97.5,172.0,105.0,164.0,112.5" stroke="black" stroke-width="2" fill="none" />
<polyline points="157.0,114.5,149.0,122.0" stroke="black" stroke-width="2" fill="none" />
<polyline points="166.0,103.5,173.5,95.5,181.0,88.0,189.0,81.5,196.5,74.0,204.0,67.0,211.5,59.0" stroke="black" stroke-width="2" fill="none" />
<polyline points="213.0,53.0,205.0,60.5,197.5,68.0,189.5,75.5,181.0,83.0,173.0,90.5" stroke="black" stroke-width="2" fill="none" />
<polyline points="171.5,85.0,163.0,92.5,155.0,100.0" stroke="black" stroke-width="2" fill="none" />
<polyline points="163.0,101.0,155.5,108.5" stroke="black" stroke-width="2" fill="none" />
<polyline points="163.0,70.5,170.5,63.0,179.0,55.5,187.5,47.5,195.5,40.0,204.0,33.0,212.5,26.0,221.0,19.0,229.5,12.0,237.5,4.5" stroke="black" stroke-width="2" fill="none" />
<polyline points="241.5,3.5,233.5,11.5,226.0,19.0,218.5,26.0,211.0,33.5" stroke="black" stroke-width="2" fill="none" />
<polyline points="219.0,33.5,227.5,26.0,235.5,18.0,244.0,10.0,252.0,2.5" stroke="black" stroke-width="2" fill="none" />
<polyline points="258.0,5.0,249.5,12.0,242.0,19.5,234.0,27.0,226.0,34.5" stroke="black" stroke-width="2" fill="none" />
<polyline points="226.0,42.0,233.5,34.5,241.0,27.0,249.0,19.0,257.5,10.5,265.0,3.0" stroke="black" stroke-width="2" fill="none" />
<polyline points="267.5,25.0,259.5,25.5,251.0,26.0,243.0,26.5" stroke="black" stroke-width="2" fill="none" />
<polyline points="245.0,19.0,252.5,18.5,260.0,18.0,267.5,17.0,275.0,16.5" stroke="black" stroke-width="2" fill="none" />
<polyline points="284.5,26.5,293.0,26.0,301.0,25.0,309.0,24.5,317.0,23.5,324.5,22.5,333.0,21.5,341.0,21.0,348.5,20.0,356.0,19.0,364.0,18.0,372.0,18.0,380.0,17.5,388.0,17.0,396.5,17.0,405.0,16.5,413.0,16.5,421.5,15.5,430.0,15.0,438.0,14.5,446.5,14.5,454.0,14.0,461.5,13.5,469.0,13.0,477.0,12.5,484.0,11.5,491.5,10.5,499.0,10.0,506.5,9.5,513.5,9.0" stroke="black" stroke-width="2" fill="none" />
<polyline points="516.0,3.5,508.5,4.0,500.5,4.5,492.5,5.0,485.0,5.5,477.5,6.0,469.5,6.0,461.0,6.0,453.0,6.0,444.5,6.0,436.5,6.5,428.5,6.5,420.0,7.0,412.0,7.5,404.0,8.0,396.0,9.0,388.5,9.5,380.0,10.0,372.0,10.5,364.0,11.5,356.0,12.5,348.5,13.0,340.5,14.0,333.0,14.5,325.0,14.5,317.0,14.5,309.0,15.0" stroke="black" stroke-width="2" fill="none" />
<polyline points="302.0,16.0,294.0,17.0" stroke="black" stroke-width="2" fill="none" />
<polyline points="292.5,34.5,300.5,33.5,308.5,33.0,316.5,32.5,324.5,32.0,332.0,32.0,340.0,31.5,348.0,31.5,355.5,30.5,363.5,30.0,371.5,30.0,379.5,29.0,388.0,28.0" stroke="black" stroke-width="2" fill="none" />
<polyline points="404.0,37.5,396.0,38.5,388.0,39.5,380.5,40.0,372.5,41.0,365.0,41.5,357.0,41.5,349.0,41.5,341.0,42.0,333.0,42.5,325.0,44.0,316.5,44.5,307.5,45.0,299.0,45.5,291.0,46.0,282.5,46.5,274.5,46.5,266.5,46.5,258.5,47.0" stroke="black" stroke-width="2" fill="none" />
<polyline points="258.5,33.5,250.5,34.5,242.5,35.0" stroke="black" stroke-width="2" fill="none" />
<polyline points="236.0,42.5,243.5,42.0,251.5,41.5,259.5,40.5,268.0,40.0,276.0,39.0,284.5,38.5,293.0,37.5,301.5,37.0,309.5,36.0,317.5,35.5,325.0,35.0,333.0,34.5,341.0,34.5,349.5,34.5,358.0,34.5,366.0,33.5,374.0,32.5,382.0,31.5,390.0,30.5,398.0,30.0" stroke="black" stroke-width="2" fill="none" />
<polyline points="518.0,57.0,510.5,58.5,503.0,59.0,494.0,59.5,485.5,59.5,477.0,59.0,468.5,59.0,460.5,59.0,452.5,59.5,444.5,60.0,436.5,60.5,428.0,61.0,420.0,61.5,412.0,62.0,403.5,63.5,395.5,64.0,387.5,64.5,379.5,65.5,371.5,66.0,364.0,66.0,356.0,66.5,348.5,67.0,340.5,68.0,332.0,68.5,323.5,69.0,315.5,69.5,308.0,70.0,300.0,70.5,292.0,71.0,283.0,71.5,275.0,72.0,267.5,72.0,259.5,72.5" stroke="black" stroke-width="2" fill="none" />
<polyline points="237.0,66.5,244.5,65.5,252.0,64.5,259.0,63.5,266.5,63.0,274.0,62.0,282.5,62.0,290.5,61.5,298.0,61.5,305.5,60.5,313.0,60.0,321.5,59.5,330.0,59.0,338.0,59.0,346.5,58.5,355.0,58.0,363.0,57.5,370.5,57.0,378.0,56.5,386.0,55.5,394.0,54.5,402.0,53.5,410.5,52.5,419.0,52.0,427.5,51.0,436.0,51.0,444.5,50.0,452.5,50.0,460.0,49.5,467.5,49.5,475.5,49.0,483.5,48.5,492.0,48.0,500.0,47.5,508.0,47.0,515.5,46.0" stroke="black" stroke-width="2" fill="none" />
<polyline points="300.0,152.5,292.0,153.5,284.0,154.0" stroke="black" stroke-width="2" fill="none" />
<polyline points="276.5,138.0,268.5,138.0" stroke="black" stroke-width="2" fill="none" />
<polyline points="268.5,122.0,276.5,121.5" stroke="black" stroke-width="2" fill="none" />
<polyline points="259.0,121.0,250.5,121.5" stroke="black" stroke-width="2" fill="none" />
<polyline points="250.5,154.0,243.0,154.5" stroke="black" stroke-width="2" fill="none" />
<polyline points="243.5,170.0,251.5,169.5" stroke="black" stroke-width="2" fill="none" />
<polyline points="252.5,185.5,244.5,186.0" stroke="black" stroke-width="2" fill="none" />
<polyline points="237.0,58.0,244.5,57.5,252.5,56.5,260.0,56.0,267.5,55.0,275.0,54.5,282.5,54.0,290.0,53.0,298.5,52.5,306.5,52.0,315.0,51.5,322.5,51.5,330.5,51.0,338.5,50.5,347.0,50.0,355.0,49.5,364.0,48.5,372.5,47.0,381.0,46.5,389.5,46.0,397.5,46.0,405.0,45.0,413.0,44.5,421.0,44.0,428.5,43.5,436.0,43.0,444.5,42.5,453.0,42.0,461.5,41.5,469.5,41.0,478.0,40.0,485.5,39.5,494.0,39.5,502.0,39.0,509.5,39.0,517.5,38.5" stroke="black" stroke-width="2" fill="none" />
<polyline points="515.0,-7.5,507.0,-8.0,498.5,-8.0,490.5,-7.5,482.5,-7.5,474.5,-7.0,467.0,-6.5,459.0,-5.5,451.5,-5.0,444.0,-4.0,436.0,-3.5,427.5,-2.5,419.5,-1.5,412.0,-0.5,404.0,0.0,396.0,1.0,388.0,1.5,380.0,1.5,371.5,1.5,363.5,2.5,355.0,3.0,347.0,4.5,339.0,5.0,330.5,5.5,322.0,6.5,314.0,6.5,306.5,7.0,298.5,7.0,291.0,7.5,283.0,7.5,275.5,8.5,267.0,9.0,259.0,9.5,251.5,10.0,243.5,10.5" stroke="black" stroke-width="2" fill="none" />
<polyline points="227.5,3.5,219.5,10.5,211.0,17.5,203.0,25.0,194.5,33.5,186.5,41.0,178.0,48.0,170.0,55.5,162.0,63.0,154.0,70.5" stroke="black" stroke-width="2" fill="none" />
<polyline points="132.5,84.5,140.5,77.0,148.5,69.5,156.5,62.5,164.5,55.5,172.0,48.0,180.0,41.0,188.5,33.5,197.0,26.0,205.5,18.0,213.5,10.5,222.0,2.5" stroke="black" stroke-width="2" fill="none" />
<polyline points="213.0,3.0,205.0,10.5,197.0,19.0,189.0,27.0,181.0,35.0,173.0,42.5,165.0,50.0,157.5,57.5,149.5,65.0,141.5,72.0,133.0,79.5" stroke="black" stroke-width="2" fill="none" />
<polyline points="121.5,82.0,114.0,89.5,106.0,97.0,98.0,104.5,89.5,112.5" stroke="black" stroke-width="2" fill="none" />
<polyline points="82.0,113.5,90.0,105.0,98.0,97.0,106.5,89.0,115.0,80.5,123.0,72.5" stroke="black" stroke-width="2" fill="none" />
<polyline points="116.0,73.5,107.5,81.5,100.0,89.5,91.5,97.5,83.0,105.0,74.5,112.5" stroke="black" stroke-width="2" fill="none" />
<polyline points="76.5,104.5,84.0,97.0,92.0,89.0,99.5,81.0,107.0,73.0,114.5,65.0,122.0,57.5" stroke="black" stroke-width="2" fill="none" />
<polyline points="137.0,56.0,145.5,48.0,154.0,40.0,163.0,32.5,171.5,25.0,180.0,18.0,188.5,11.0,196.5,3.5" stroke="black" stroke-width="2" fill="none" />
<polyline points="202.0,5.0,194.0,12.0,186.5,19.0,179.0,26.5,171.5,34.0,164.0,41.5,156.0,49.0,148.0,56.5,140.0,64.0" stroke="black" stroke-width="2" fill="none" />
<polyline points="146.5,40.5,154.5,33.0,162.5,26.0,170.5,18.5,178.5,11.0,186.0,3.5" stroke="black" stroke-width="2" fill="none" />
<polyline points="186.5,11.0,195.0,10.5,203.0,10.0,211.0,9.5" stroke="black" stroke-width="2" fill="none" />
<polyline points="210.5,25.5,202.5,26.5" stroke="black" stroke-width="2" fill="none" />
<polyline points="194.5,35.0,186.5,35.0" stroke="black" stroke-width="2" fill="none" />
<polyline points="187.5,20.0,195.0,19.0,203.0,18.0" stroke="black" stroke-width="2" fill="none" />
<polyline points="201.5,45.0,193.5,52.0,186.0,59.0,178.0,66.5,170.0,74.5,163.0,82.0" stroke="black" stroke-width="2" fill="none" />
<polyline points="179.0,75.5,187.5,68.0,195.5,60.0,204.0,52.5" stroke="black" stroke-width="2" fill="none" />
<polyline points="235.0,49.5,243.5,49.0,251.5,48.5" stroke="black" stroke-width="2" fill="none" />
<polyline points="178.0,3.5,169.5,11.0,161.5,18.5,154.0,26.5,147.0,34.5,139.5,41.5" stroke="black" stroke-width="2" fill="none" />
<polyline points="132.0,37.0,124.0,44.5" stroke="black" stroke-width="2" fill="none" />
<polyline points="140.5,27.5,148.5,20.5,156.5,12.5,164.0,5.0" stroke="black" stroke-width="2" fill="none" />
<polyline points="171.5,5.0,163.5,12.5,155.5,20.0,147.0,27.5" stroke="black" stroke-width="2" fill="none" />
<polyline points="141.0,18.5,133.0,26.0,124.5,33.5" stroke="black" stroke-width="2" fill="none" />
<polyline points="133.0,19.5,141.5,12.5,149.5,4.5" stroke="black" stroke-width="2" fill="none" />
<polyline points="156.5,4.0,148.5,11.5" stroke="black" stroke-width="2" fill="none" />
<polyline points="98.0,26.0,90.0,33.5,82.0,41.0,74.0,48.5" stroke="black" stroke-width="2" fill="none" />
<polyline points="82.5,52.0,91.0,44.5" stroke="black" stroke-width="2" fill="none" />
<polyline points="92.0,27.5,84.0,35.0,76.0,43.0,67.5,50.5" stroke="black" stroke-width="2" fill="none" />
<polyline points="60.5,49.5,68.5,41.5,76.5,34.0,84.5,26.5" stroke="black" stroke-width="2" fill="none" />
<polyline points="107.5,67.0,99.5,74.5,91.0,82.0,83.0,89.0,75.0,97.0,67.0,104.5,59.0,112.0" stroke="black" stroke-width="2" fill="none" />
<polyline points="52.0,113.5,60.0,105.5,68.5,98.0,76.5,90.5" stroke="black" stroke-width="2" fill="none" />
<polyline points="69.5,89.5,61.0,97.5,53.0,106.0" stroke="black" stroke-width="2" fill="none" />
<polyline points="44.0,105.5,53.0,98.0,61.5,90.0" stroke="black" stroke-width="2" fill="none" />
<polyline points="75.0,125.5,83.0,125.5,91.5,125.0,99.5,125.0,107.0,124.5,115.0,124.0,122.5,123.5,130.5,123.5,138.0,123.5,146.0,122.5,153.5,121.5,161.5,121.0,170.0,120.5,178.0,119.5,185.5,119.5,193.5,119.0,201.5,118.0,210.0,117.5,218.0,117.0,227.0,116.5,235.0,116.5,243.0,116.0,250.5,115.5,258.5,115.0,266.0,114.0,274.5,114.0,282.0,113.0,290.0,111.5,298.0,110.5,306.0,110.5,313.5,110.0,322.0,109.5,331.0,109.0,339.5,108.5,348.0,108.0,356.5,107.0,364.5,106.5,373.0,105.5,381.0,105.5,389.0,105.5,397.0,105.0,405.0,104.5,413.0,104.0,421.0,103.5,428.5,103.0,436.5,102.5,444.0,102.0,451.5,101.0,459.0,100.5,466.5,100.5,474.0,100.0,482.0,99.0,490.0,98.5,498.0,98.0,506.5,97.0,515.0,96.5" stroke="black" stroke-width="2" fill="none" />
<polyline points="517.0,105.5,508.5,106.0,500.0,106.5,492.0,107.5,484.0,107.5,476.0,108.5,467.5,109.0,459.5,109.5,451.5,109.5,444.0,110.0,436.0,110.5,428.5,111.5,420.5,112.0,412.0,113.0,404.5,114.0,396.5,114.5,389.0,115.0,381.0,115.5,373.0,116.0,365.0,116.5,356.5,116.5,347.5,117.0,339.0,117.0,331.0,117.5,323.5,118.0,315.0,118.5,306.5,118.5,298.5,119.5,290.5,120.0,283.0,121.0,275.0,121.5,267.0,122.0,259.0,122.0,251.0,122.5,243.0,122.5,235.0,123.5,227.5,124.0,219.5,125.0,211.5,126.0,203.5,127.0,195.5,128.0,187.5,128.5,179.0,129.0,170.5,129.5,162.0,130.0,154.0,130.5,146.0,131.0,138.5,131.5,131.0,131.5,123.5,131.5,115.5,131.5,108.0,131.5,100.5,131.5,92.5,132.0,84.5,132.5" stroke="black" stroke-width="2" fill="none" />
<polyline points="74.0,139.5,82.0,139.0,89.5,139.5,97.0,139.5,105.5,139.5,114.0,139.0,122.0,138.5,129.5,137.5,137.5,137.0,145.5,136.5,153.5,136.0,162.0,135.5,169.5,135.5,177.5,135.5,185.0,135.5,193.5,135.5,201.5,135.0,209.5,134.5,217.5,134.0,225.5,134.0,233.5,133.5,241.5,132.5,249.5,132.0,257.5,131.5,265.5,131.0,273.5,130.0,281.5,129.0,289.5,128.0,297.5,127.0,306.0,126.0,314.0,125.5,322.0,125.0,330.0,124.5,338.5,123.0,347.0,122.0,355.5,121.5,363.5,121.0,372.0,120.5,380.0,120.0,387.5,119.5,395.5,119.0,403.5,118.5,412.0,118.0,420.5,118.5,428.0,118.5,435.5,118.0,444.0,117.5,452.5,117.0,459.5,116.0,466.5,115.5,474.5,115.0,483.0,114.5,491.5,114.0,499.5,114.0,507.5,113.5,515.5,113.5" stroke="black" stroke-width="2" fill="none" />
<polyline points="516.0,-24.5,508.5,-23.5,500.0,-22.5,492.0,-22.0,483.5,-21.5,476.0,-21.0,467.5,-20.5,460.0,-20.5,452.0,-20.0,444.0,-19.5,436.0,-19.0,428.5,-18.5,420.5,-18.0,412.0,-17.5,403.5,-17.5,395.5,-17.0,387.5,-16.5,379.5,-15.5,371.0,-14.5,363.0,-13.5,355.0,-13.0,346.5,-12.5,339.0,-12.0,331.5,-11.5,324.0,-10.5,316.5,-9.5,308.5,-9.5,300.0,-9.0,292.0,-9.0,283.5,-8.0,275.5,-7.5,267.5,-7.0,259.5,-7.0,251.5,-6.5,243.0,-6.5,235.0,-6.0,227.0,-6.0,218.5,-5.5,210.5,-5.0,203.0,-4.5,195.5,-4.5,187.0,-3.5,179.0,-3.0,171.0,-2.5,163.0,-2.0,155.0,-1.0,147.0,-0.5,139.0,0.0,131.0,0.5,123.0,1.0,115.0,1.5,107.0,2.0,99.0,2.5,91.0,3.0,83.0,3.5,75.0,3.5,67.0,4.0,59.5,4.5,51.5,5.5,43.5,6.0,35.5,6.0" stroke="black" stroke-width="2" fill="none" />
<polyline points="4.5,12.5,13.0,12.0,21.5,12.0,29.5,12.0,37.5,12.0,45.5,12.0,53.5,11.5,61.0,11.5,69.0,11.0,77.5,10.5,85.5,9.5,93.5,9.0,101.5,8.5,109.5,8.0,117.5,7.0,125.0,6.5,133.0,6.0,141.0,6.0,149.0,5.5,156.5,5.5,164.5,5.0,172.5,4.5,180.5,4.5,188.0,4.0,196.0,3.5,204.5,3.0,212.0,2.5,220.0,2.0,227.5,1.5,235.0,1.0,242.5,0.0,251.0,-0.5,259.0,-1.0,267.0,-1.5,275.0,-2.0,283.5,-2.5,291.5,-3.0,299.0,-3.5,307.0,-4.5,315.0,-5.0,323.0,-5.5,331.0,-6.0,339.5,-6.5,347.5,-7.0,355.5,-7.5,363.5,-8.5,372.0,-9.0,380.5,-9.5,388.5,-10.0,396.5,-10.0,404.5,-10.5,413.0,-11.0,421.0,-12.0,429.0,-12.5,437.0,-13.5,444.5,-14.5,453.0,-15.5,461.0,-16.0,468.5,-17.0,476.0,-18.0,484.0,-19.0,492.0,-19.0,500.0,-19.5,508.0,-20.0,516.5,-20.0" stroke="black" stroke-width="2" fill="none" />
<polyline points="379.5,160.0,371.5,160.0,363.5,160.0,355.5,160.5,347.5,161.0,339.5,161.5,331.0,162.0,323.0,162.5,314.5,163.0,306.0,163.5,298.5,164.5,290.5,165.0,283.0,166.0,275.5,167.0,267.5,168.0,259.5,168.5,251.5,168.5,243.5,169.0,236.0,169.5,228.5,169.5,220.0,170.0,211.5,170.0,203.5,170.5,195.0,171.0,187.0,171.5,179.5,172.0,172.0,172.0,164.0,173.0,156.0,174.0,148.0,174.5,140.5,175.5,133.0,176.5,125.5,177.5,117.5,177.5,110.0,178.0,102.0,178.5,94.0,179.0,85.5,179.0,77.0,179.5,68.5,179.5,60.5,179.5,52.5,180.0,44.5,180.5,36.5,181.0,28.5,181.5" stroke="black" stroke-width="2" fill="none" />
<polyline points="19.5,173.5,27.5,173.0,36.0,173.5,44.5,173.0,52.5,173.0,60.5,172.5,68.5,172.0,75.5,171.5,83.5,171.0,91.0,170.5,99.0,169.5,107.0,169.0,115.0,169.0,123.0,168.0,131.5,167.5,139.5,166.5,147.5,165.5,155.0,164.5,163.0,163.5,170.5,163.0,179.0,162.5,186.5,162.0,195.0,162.0,203.5,161.5,211.0,161.5,218.5,161.0,227.0,160.5,234.5,159.5,242.5,159.0,250.0,159.0,258.0,158.5,266.0,158.5,274.0,158.0,282.5,157.5,291.0,156.5,299.0,155.5,307.0,155.5,316.0,155.5,324.5,155.0,332.5,154.5,340.5,154.0,348.5,154.0,356.5,153.5,364.5,153.0,373.0,152.5,381.0,152.0,389.0,151.5,396.5,151.0,404.5,150.5,412.5,150.5,420.5,150.0,428.5,149.5,436.0,149.0,444.0,148.5,452.0,147.5,460.0,147.0,468.0,147.0" stroke="black" stroke-width="2" fill="none" />
<polyline points="516.0,37.5,508.0,38.0,500.0,38.5,492.0,38.5,483.5,39.0,475.5,39.5,467.0,39.5,458.5,40.5,450.5,41.5,441.5,42.5,433.0,43.5,425.0,44.5,417.5,44.5,409.0,44.5,401.5,45.0,394.0,46.0,386.5,46.5,378.5,47.0,370.5,47.0,362.0,47.5,353.0,48.0,345.0,48.0,337.5,49.0,329.5,50.0,321.5,50.5,314.0,51.0,306.0,51.5,298.0,51.5,290.5,52.0,282.5,52.5,274.5,52.5,266.5,53.5,259.0,53.5,251.0,54.5,243.5,55.0,237.0,55.5,229.5,56.5,221.5,56.5,213.5,57.0,205.5,57.5,197.5,58.0,189.5,58.5,181.5,59.0,173.0,60.0,165.0,61.0,157.5,62.0,149.5,62.5,141.0,63.5,132.5,63.5,124.5,64.0,116.5,64.5,108.5,65.5,100.5,65.5,92.0,65.5,84.0,66.0,76.0,66.0,67.5,66.5,59.5,66.5,52.0,67.0,44.0,67.5,36.0,67.5,28.0,68.0" stroke="black" stroke-width="2" fill="none" />
<polyline points="21.0,62.5,28.5,62.0,36.5,61.0,45.0,60.0,53.0,59.5,60.5,58.5,68.0,57.0,74.5,56.5,82.0,56.0,89.5,56.0,97.5,55.0,105.5,55.0,114.0,55.0,122.5,54.5,130.5,54.0,138.5,54.0,146.5,54.5,155.0,54.0,162.5,54.0,170.0,53.5,178.0,53.0,186.0,52.5,194.5,52.0,202.5,51.5,211.0,50.5,219.5,49.0,227.5,48.0,235.5,47.5,243.5,46.5,251.5,46.0,259.0,45.5,267.0,45.0,275.0,44.0,283.0,43.5,291.0,43.0,299.0,43.0,306.5,42.5,315.0,42.0,323.0,41.5,331.0,40.5,339.5,40.0,347.0,39.5,354.5,39.0,362.5,39.0,371.0,39.0,379.5,38.5,388.0,39.0,396.5,39.5,405.0,40.0,413.0,39.5,421.0,39.0,429.5,38.5,437.5,38.0,445.5,36.5,453.0,35.0,461.0,33.5,468.5,32.5,476.0,31.5,483.5,30.5,491.5,30.5,499.5,29.5,508.0,29.5,516.5,29.5" stroke="black" stroke-width="2" fill="none" />
<polyline points="514.5,56.0,506.5,57.0,498.5,58.0,490.5,58.0,482.5,58.5,474.5,59.0,467.0,59.5,459.5,60.0,451.0,60.0,442.5,60.5,434.5,61.0,427.0,61.0,419.5,61.0,411.0,61.5,403.5,62.0,395.5,62.5,387.5,63.0,380.0,63.0,372.0,63.5,364.0,64.0,356.0,64.5,348.5,65.5,340.5,66.0,332.5,66.5,324.5,66.5,316.5,66.5,308.0,66.5,299.5,66.5,291.0,66.5,282.5,67.5,273.5,68.0,265.0,68.5,257.0,69.0,249.0,69.5,241.5,70.0,234.0,70.5,226.5,70.5,219.0,71.0,211.0,71.0,203.0,72.0,195.0,72.5,187.0,72.5,179.0,73.0,171.0,73.5,163.0,74.5,154.5,75.5,146.5,76.5,138.5,77.5,131.0,78.5,123.0,79.0,115.0,79.5,106.5,80.0,98.5,80.5,90.5,81.0,83.0,81.5,75.0,82.0,67.0,83.5,59.0,84.0,51.0,85.0,42.5,85.5,34.5,86.0,26.0,86.5,18.0,87.0" stroke="black" stroke-width="2" fill="none" />
<polyline points="19.0,78.0,27.0,77.5,35.0,77.0,43.5,76.0,52.0,75.0,60.0,74.5,67.5,73.5,75.0,73.5,83.0,73.0,91.0,72.5,99.5,72.5,107.0,71.5,114.0,71.0,121.5,70.5,129.5,70.5,137.5,71.0,145.5,70.0,153.5,69.5,161.0,69.0,169.5,68.5,178.0,67.5,185.5,67.5,193.5,67.0,201.5,66.5,210.0,65.5,218.0,64.0,226.0,63.5,234.5,63.0,243.0,62.5,250.5,62.0,258.5,61.5,266.5,61.0,274.5,60.5,282.5,60.0,290.5,59.0,299.0,58.0,307.0,58.5,315.0,58.5,323.5,58.0,332.0,57.5,340.5,57.0,348.0,56.5,356.5,56.5,364.5,56.5,372.5,56.5,380.5,56.0,388.5,56.0,396.5,55.5,404.5,55.0,412.5,54.5,420.5,53.5,428.0,53.0,436.0,52.5,443.5,51.5,451.0,51.0,459.0,50.5,467.0,50.0,474.5,50.0,482.5,49.0,490.0,48.5,498.0,48.0,506.5,47.0,515.0,46.0" stroke="black" stroke-width="2" fill="none" />
<polyline points="516.0,21.5,508.0,22.5,500.0,22.5,492.0,23.5,483.5,24.0,475.5,24.5,467.5,24.5,460.0,25.0,452.0,25.5,444.5,26.5,436.5,27.0,428.0,28.0,420.5,29.0,412.5,29.5,405.0,30.0,397.0,30.5,389.0,31.0,381.0,31.5,372.5,31.5,363.5,32.0,355.0,32.0,347.0,32.5,339.5,33.0,331.0,33.5,322.5,33.5,314.5,34.5,306.5,35.0,299.0,36.0,291.0,36.5,283.0,37.0,275.0,37.0,267.0,37.5,259.0,37.5,251.0,38.5,243.5,39.0,235.5,40.0,227.5,41.0,219.5,42.0,211.5,43.0,203.5,43.5,195.0,44.0,186.5,44.5,178.0,45.0,170.0,45.5,162.0,46.0,154.5,46.5,147.0,46.5,139.5,46.5,131.5,46.5,124.0,46.5,116.5,46.5,108.5,47.0,100.5,47.5,92.5,48.0,84.0,49.0,75.5,50.0,67.5,51.0,59.5,52.0,52.0,52.0,44.0,52.0,36.0,52.5,27.5,53.0,19.5,53.5" stroke="black" stroke-width="2" fill="none" />
<polyline points="10.5,46.5,19.0,45.5,27.5,45.0,36.0,44.5,44.0,43.5,52.5,43.0,61.0,42.0,69.0,41.5,77.5,41.0,86.0,41.0,94.0,40.5,101.5,40.0,109.0,39.0,116.5,39.0,124.5,38.5,132.0,38.0,139.5,38.0,147.0,38.0,154.5,37.5,163.0,37.5,170.5,37.0,179.0,36.5,186.5,36.0,194.5,35.5,203.0,35.0,211.0,34.5,219.0,34.0,227.0,33.5,235.0,33.0,242.5,32.5,250.5,32.5,259.0,31.5,267.5,30.5,276.5,30.0,284.5,29.5,292.5,28.5,300.5,27.5,307.5,27.0,315.0,26.0,323.0,25.0,331.5,24.5,339.5,24.0,347.0,24.0,355.0,23.5,364.0,23.0,372.0,22.5,380.0,22.0,387.5,21.5,395.5,21.0,404.0,20.5,412.5,20.0,420.5,19.0,428.0,18.5,436.0,18.0,443.5,18.0,451.5,17.5,459.5,16.5,467.5,16.0,475.5,15.5,484.0,14.0,492.0,13.5,500.0,13.0,508.5,12.5,516.5,12.0" stroke="black" stroke-width="2" fill="none" />
<polyline points="517.5,132.5,509.0,133.0,501.0,134.0,493.0,134.5,484.5,135.0,476.5,135.5,468.0,136.0,460.5,136.5,452.0,136.5,444.0,137.5,436.0,138.0,428.5,138.5,420.5,139.0,412.0,139.5,404.5,140.5,396.5,141.5,388.5,142.0,380.5,142.5,372.5,143.5,364.5,144.0,357.0,144.5,348.5,144.5,340.5,145.0,332.0,145.5,324.0,146.5,316.5,146.5,308.0,147.0,300.0,147.0,291.5,147.5,283.5,148.0,275.5,149.0,267.5,149.5,260.0,150.5,251.5,150.5,243.5,151.5,235.5,152.0,227.0,152.5,218.5,153.5,210.0,154.0,201.5,155.0,194.0,156.0,186.0,157.0,178.5,158.0,170.5,158.5,162.5,159.0,154.5,159.0,147.0,159.5,139.5,159.5,132.0,159.5,124.5,159.5,117.5,159.5,109.5,159.5,102.0,159.5,94.0,160.0,86.0,160.5,78.0,161.5,70.0,162.0,61.5,163.0,53.5,163.5,45.0,164.5,36.5,165.0,28.5,165.5,20.5,166.0,12.5,166.5" stroke="black" stroke-width="2" fill="none" />
<polyline points="3.0,158.5,10.5,158.0,18.0,157.0,26.5,156.0,34.5,155.5,42.5,154.5,50.5,153.5,58.5,152.5,66.5,152.0,74.0,151.0,82.0,150.5,90.0,150.0,97.5,150.5,105.0,150.5,113.5,150.5,122.0,150.0,130.0,149.5,137.5,148.5,145.5,148.0,153.5,147.5,161.5,147.0,170.0,146.5,177.5,146.5,185.5,146.5,193.0,146.5,201.5,146.5,209.5,146.0,217.5,145.5,225.5,145.0,233.5,145.0,241.5,144.5,249.5,143.5,257.5,143.0,265.5,142.5,273.5,142.0,281.5,141.0,289.5,140.0,297.5,139.0,305.5,138.0,314.0,137.0,322.0,136.5,330.0,136.0,338.0,135.5,346.5,134.0,355.0,133.0,363.5,132.5,371.5,132.0,380.0,131.5,388.0,131.0,395.5,130.5,403.5,130.0,411.5,129.5,420.0,129.0,428.5,129.5,436.0,129.5,443.5,129.0,452.0,128.5,460.5,128.0,467.5,127.0,474.5,126.5,482.5,126.0,491.0,125.5,499.5,125.0,507.5,125.0,515.5,124.5" stroke="black" stroke-width="2" fill="none" />
<polyline points="514.5,116.0,506.0,117.0,498.0,117.5,490.0,118.0,482.0,119.0,474.5,119.5,467.0,119.5,459.5,120.0,452.0,121.0,444.5,121.5,436.5,122.0,429.0,122.5,421.0,123.0,413.0,123.5,405.0,124.0,397.0,124.5,389.0,124.5,381.0,124.5,372.5,125.5,364.5,126.0,356.0,127.0,347.5,127.5,339.0,128.0,330.0,128.5,321.5,129.0,314.0,129.5,306.0,129.5,298.0,130.5,290.0,132.0,282.5,133.0,274.0,133.0,266.5,134.0,258.5,134.5,251.0,135.0,243.0,135.5,235.0,135.5,226.0,136.0,218.0,136.5,209.5,137.0,201.5,138.0,193.5,138.5,186.0,138.5,178.0,139.5,169.5,140.0,161.5,140.5,154.0,141.5,146.0,142.5,138.5,142.5,130.5,142.5,123.0,143.0,115.0,143.5,107.5,144.0,99.5,144.0,91.0,144.5,83.0,144.5,75.0,145.0,67.0,145.0,59.5,146.0,52.0,146.5,44.0,146.5,36.0,147.5,28.0,148.0,20.0,148.5,12.0,149.0,4.5,149.5" stroke="black" stroke-width="2" fill="none" />
<polyline points="5.5,140.5,14.0,140.5,21.5,140.0,29.0,139.5,36.5,139.5,44.5,139.0,52.0,139.0,59.5,139.0,67.5,139.0" stroke="black" stroke-width="2" fill="none" />
<polyline points="60.0,131.5,52.0,131.5,43.5,131.5,35.5,132.0,27.5,132.5,20.5,133.0,13.0,134.0,5.0,134.0" stroke="black" stroke-width="2" fill="none" />
<polyline points="4.5,127.0,12.5,126.5,20.5,126.5,28.0,126.5,36.0,126.0,43.5,125.5,52.0,124.5,60.5,123.0" stroke="black" stroke-width="2" fill="none" />
<polyline points="3.5,118.0,11.5,117.5,18.5,116.5,26.5,116.0,34.5,115.5,42.5,115.5,50.5,115.0,59.0,114.0,67.5,113.0,76.0,112.5,84.5,111.5,92.5,111.5,100.5,111.0,108.5,111.0,116.5,110.5,124.5,110.0,132.5,109.5,140.5,109.0,148.0,109.0,155.5,109.5,163.0,109.0,171.0,109.0,179.0,108.5,187.0,107.5,195.0,106.5,202.5,106.5,210.5,106.0,218.5,105.0,226.0,104.0,234.0,103.5,241.5,103.0,249.5,102.5,257.5,102.0,265.5,101.5,274.0,100.5,282.5,99.5,291.0,99.0,299.0,98.0,307.0,97.5,315.0,97.0,322.5,97.0,330.5,96.5,339.5,96.0,348.5,96.0,357.0,96.0,365.0,95.5,373.5,95.0,381.5,94.5,389.0,94.0,397.0,93.5,404.5,93.5,412.5,92.5,420.5,92.0,428.5,91.5,436.5,91.0,444.0,91.0,452.0,90.5,460.0,90.5,467.5,89.5,475.5,89.0,483.5,89.0,491.5,88.0,500.0,87.0,508.0,86.0,516.0,85.0" stroke="black" stroke-width="2" fill="none" />
<polyline points="516.0,77.5,508.0,78.0,500.0,78.0,491.5,78.0,483.5,78.5,475.5,79.0,468.0,79.5,460.5,80.0,452.5,80.0,445.0,80.5,437.0,80.5,429.5,81.0,421.5,82.0,414.0,83.0,406.0,84.0,397.5,83.5,389.0,83.5,380.5,84.0,372.5,84.0,365.0,85.0,356.5,85.5,348.5,86.0,340.5,86.5,332.0,87.5,324.0,87.5,316.5,88.0,308.5,88.5,300.5,89.5,292.5,90.5,285.0,91.0,276.0,92.5,267.5,93.5,259.0,94.5,250.5,96.0,242.5,97.0,234.5,97.0,227.0,97.5,219.0,97.5,210.5,98.0,202.5,98.0,195.0,99.0,187.0,99.5,179.5,100.0,172.0,101.0,164.0,102.0,156.5,102.0,149.0,102.5,141.0,102.5,133.0,102.5,125.0,102.0,116.5,102.0,108.0,102.0,99.5,102.0,91.0,102.5,83.0,103.0,75.0,103.5,67.0,104.0,58.5,104.5,50.0,105.5,41.5,107.0,33.5,107.0,25.5,107.0,18.0,107.5,10.0,107.5,2.5,108.0" stroke="black" stroke-width="2" fill="none" />
<polyline points="1.5,101.5,10.0,100.5,18.0,100.0,26.5,99.0,35.0,98.0,43.0,97.5,51.0,97.0,59.5,97.0,68.0,97.0,76.0,97.0,84.0,96.5,91.5,96.0,99.0,95.5,106.5,95.5,114.5,95.0,123.0,95.0,131.0,95.0,139.5,95.0,147.5,95.0,156.0,94.5,164.5,94.0,172.0,93.5,179.5,92.5,187.5,91.5,195.0,90.5,203.0,90.0,210.5,89.5,219.0,89.0,227.0,88.5,234.5,88.0,242.5,87.5,250.5,86.5,259.0,86.0,267.0,85.5,275.0,84.5,283.0,84.5,291.0,84.0,299.5,83.5,307.5,83.0,315.5,82.0,323.5,81.0,331.5,80.5,339.5,81.0,348.0,80.5,355.5,80.0,363.5,79.0,371.5,78.5,379.5,78.5,387.5,77.5,396.0,77.5,404.0,76.5,412.0,76.0,420.0,75.5,428.5,75.0,436.5,75.0,444.5,75.0,453.0,75.0,461.0,74.0,469.0,73.5,477.5,73.0,485.5,72.0,493.5,71.5,501.5,71.0,509.5,70.0,517.5,69.5" stroke="black" stroke-width="2" fill="none" />
<polyline points="517.5,62.5,509.5,63.0,502.0,63.5,494.0,64.0,486.5,64.5,478.0,65.0,469.0,65.5,460.5,65.5,453.0,66.0,444.5,66.0,436.0,66.0,427.5,66.5,419.0,67.0,410.5,67.5,403.0,67.5,394.5,68.0,386.5,69.0,378.5,70.0,371.0,71.0,363.0,72.0,355.5,72.5,348.0,73.0,340.5,73.5,332.5,73.5,324.5,74.0,316.0,74.5,307.5,75.5,299.0,76.0,290.5,76.5,282.0,76.5,273.5,77.0,266.0,77.0,258.0,77.5,250.5,77.5,242.5,78.0,234.5,78.5,227.0,79.5,219.0,80.0,211.0,80.5,204.0,81.0,196.0,82.0,188.0,83.5,180.0,84.5,172.0,85.5,164.0,86.0,156.5,86.5,148.5,86.5,140.0,86.5,131.5,87.0,123.0,87.0,115.0,86.5,107.0,86.5,99.0,87.0,91.0,87.5,82.5,88.0,74.5,88.5,66.5,89.0,58.5,90.0,50.0,90.5,42.0,90.5,34.0,91.5,27.0,92.0,19.0,92.5,11.0,93.5,2.5,94.0" stroke="black" stroke-width="2" fill="none" />
<polyline points="2.5,38.0,11.0,37.5,19.0,36.5,27.0,35.5,34.5,35.0,42.5,34.0,50.0,33.5,58.5,32.5,67.5,32.0,75.5,31.5,84.0,30.5,91.5,30.5,99.5,30.5,107.5,30.5,116.0,30.5,124.5,30.5,132.0,30.0,139.5,29.5,147.0,29.5,154.5,29.5,162.5,29.5,170.5,28.5,178.5,27.5,186.0,27.0,194.0,26.5,202.5,26.0,210.0,26.0,217.5,25.5,225.5,25.0,233.5,24.0,241.5,23.5,249.5,23.0,258.0,22.5,266.5,22.0,274.5,22.0,282.5,21.5,291.0,21.0,299.5,20.5,307.5,20.0,315.5,18.5,323.5,18.0,331.5,17.5,339.0,17.5,347.5,17.0,356.0,16.0,364.0,15.5,371.5,14.5,379.5,14.5,387.0,14.0,395.0,13.5,403.0,13.0,411.0,12.5,419.0,12.0,427.0,11.5,435.5,11.0,443.5,10.0,451.5,9.5,459.5,9.0,467.5,9.0,475.5,8.5,483.5,8.0,491.5,8.0,499.5,8.0,507.5,7.5,515.0,6.5" stroke="black" stroke-width="2" fill="none" />
<polyline points="514.5,-2.0,506.5,-1.5,498.5,-1.0,491.0,-0.5,483.0,0.5,475.0,1.0,467.0,2.0,459.0,3.0,450.5,3.0,442.0,3.0,434.0,4.0,426.0,4.0,418.0,4.0,410.0,4.0,402.0,4.0,393.5,4.5,385.5,5.0,378.5,5.5,371.0,6.0,363.5,7.0,355.0,8.0,347.0,8.5,339.0,9.5,330.5,10.0,323.0,10.5,315.0,11.0,307.0,11.5,299.0,12.5,291.0,13.0,282.5,14.0,274.5,14.5,266.5,15.0,258.5,15.5,250.5,16.0,242.5,16.0,234.5,17.0,226.0,17.5,218.0,17.5,210.0,17.0,202.0,17.5,194.5,17.5,187.0,17.5,179.5,18.0,171.5,18.5,163.5,18.5,155.5,19.0,147.5,20.0,139.5,20.5,131.0,21.0,123.0,21.5,115.0,22.0,107.5,22.0,99.5,22.0,92.5,22.5,84.5,23.0,76.5,23.5,68.0,24.0,59.5,25.0,51.5,26.0,44.0,26.5,36.0,27.0,28.5,27.5,20.5,28.0,13.0,29.5,5.0,30.0" stroke="black" stroke-width="2" fill="none" />
<polyline points="5.0,23.0,13.0,22.0,20.5,21.0,28.5,20.0,36.0,19.5,43.5,18.0,51.5,18.0,60.0,17.0,68.0,17.0,76.0,17.0,83.5,17.0,92.0,16.5,100.0,16.0,108.5,15.5,116.5,14.5,124.5,14.0,132.5,13.5,140.5,13.0,148.5,12.5,156.0,12.0,164.0,11.5,172.0,11.5,179.5,11.0,187.5,10.5,195.0,10.0,203.0,9.5,211.5,9.5,219.5,9.5,227.5,9.0,235.5,9.0,243.5,9.0,251.0,8.0,259.0,7.0,267.0,6.5,274.5,6.0,282.5,5.0,290.5,5.0,298.5,4.5,307.0,4.5,314.5,3.5,322.5,3.0,330.5,2.5,338.5,1.5,346.5,0.5,355.0,0.0,363.0,-0.5,371.0,-1.5,378.5,-2.0,387.0,-2.5,396.0,-3.0,404.0,-3.0,412.0,-3.5,420.0,-4.5,428.0,-5.0,435.5,-5.5,443.0,-6.0,451.0,-7.0,459.0,-7.5,467.0,-8.5,475.0,-9.5,483.0,-9.5,491.0,-10.0,498.5,-9.5,507.0,-10.0,515.5,-10.5" stroke="black" stroke-width="2" fill="none" />
<polyline points="445.5,321.5,449.5,329.5,455.5,337.5,461.5,345.5,466.0,353.5,471.0,361.5" stroke="black" stroke-width="2" fill="none" />
<polyline points="432.5,348.5,440.5,356.5,441.5,368.5,432.5,376.5" stroke="black" stroke-width="2" fill="none" />
<polyline points="364.0,363.0,345.0,371.0,343.5,384.0,344.5,392.0,344.5,400.5" stroke="black" stroke-width="2" fill="none" />
<polyline points="307.0,410.0,298.5,410.0,293.5,409.0,293.5,400.5,293.0,392.0,296.0,384.0" stroke="black" stroke-width="2" fill="none" />
<polyline points="28.0,500.0,19.5,500.5" stroke="black" stroke-width="2" fill="none" />
<polyline points="20.5,494.0,28.5,493.0" stroke="black" stroke-width="2" fill="none" />
<polyline points="12.0,502.0,4.0,502.5" stroke="black" stroke-width="2" fill="none" />
<polyline points="2.5,494.5,10.5,493.5" stroke="black" stroke-width="2" fill="none" />
</svg>