<svg xmlns="http://www.w3.org/2000/svg" version="1.1"><polyline points="127.0,107.5,117.0,115.5,108.0,124.0,100.0,132.0,95.5,140.0,102.5,148.0" stroke="black" stroke-width="2" fill="none" />
<polyline points="100.5,146.5,108.5,138.5,116.5,130.5,124.5,122.5,132.0,115.0" stroke="black" stroke-width="2" fill="none" />
<polyline points="128.5,112.5,121.0,113.0" stroke="black" stroke-width="2" fill="none" />
<polyline points="121.5,108.5,129.5,108.5" stroke="black" stroke-width="2" fill="none" />
<polyline points="128.0,109.0,137.0,117.0,141.5,125.0,133.5,133.0,125.5,141.5,117.0,149.0" stroke="black" stroke-width="2" fill="none" />
<polyline points="109.0,147.0,116.0,139.0,123.5,131.5,132.0,123.5,140.0,116.0" stroke="black" stroke-width="2" fill="none" />
<polyline points="141.0,124.5,132.5,132.0,124.5,139.5,117.0,147.0,109.5,154.5" stroke="black" stroke-width="2" fill="none" />
<polyline points="113.5,154.0,105.0,154.0" stroke="black" stroke-width="2" fill="none" />
<polyline points="105.5,150.0,113.5,149.5" stroke="black" stroke-width="2" fill="none" />
<polyline points="120.5,157.5,129.0,157.0,137.0,156.0,145.5,155.0,154.5,154.0,164.0,153.0,172.0,153.0,180.5,153.0" stroke="black" stroke-width="2" fill="none" />
<polyline points="180.0,151.5,188.0,150.5,196.5,149.5" stroke="black" stroke-width="2" fill="none" />
<polyline points="197.0,152.0,189.0,152.0" stroke="black" stroke-width="2" fill="none" />
<polyline points="187.0,154.5,195.5,146.0,204.5,138.5" stroke="black" stroke-width="2" fill="none" />
<polyline points="203.0,131.0,195.0,138.5,186.0,145.5" stroke="black" stroke-width="2" fill="none" />
<polyline points="180.0,145.5,188.0,145.5,196.0,145.0,204.0,144.5" stroke="black" stroke-width="2" fill="none" />
<polyline points="213.0,150.5,221.0,150.0,228.0,149.0" stroke="black" stroke-width="2" fill="none" />
<polyline points="235.0,142.0,227.5,142.0,219.5,142.5" stroke="black" stroke-width="2" fill="none" />
<polyline points="219.5,140.5,228.0,140.0,235.5,139.5" stroke="black" stroke-width="2" fill="none" />
<polyline points="242.0,137.0,234.5,137.5,226.0,138.0" stroke="black" stroke-width="2" fill="none" />
<polyline points="225.5,134.5,233.5,133.5,241.5,133.0" stroke="black" stroke-width="2" fill="none" />
<polyline points="244.0,124.5,236.0,131.5,228.5,139.0,221.0,146.0,213.0,154.0,205.0,161.5" stroke="black" stroke-width="2" fill="none" />
<polyline points="203.0,160.0,211.0,159.0,219.0,159.0" stroke="black" stroke-width="2" fill="none" />
<polyline points="212.0,162.5,220.5,155.5,229.0,148.0,237.5,140.5,245.5,133.0,253.5,125.0" stroke="black" stroke-width="2" fill="none" />
<polyline points="250.0,128.0,242.0,128.5,233.5,128.5" stroke="black" stroke-width="2" fill="none" />
<polyline points="235.0,123.5,242.5,123.0,250.5,123.0" stroke="black" stroke-width="2" fill="none" />
<polyline points="242.0,122.5,234.0,130.5,226.0,138.5,218.0,146.5,209.5,154.0,201.5,162.5" stroke="black" stroke-width="2" fill="none" />
<polyline points="200.0,161.0,208.0,155.0,216.5,148.0,224.0,139.0,232.0,132.0,240.0,122.5,247.5,127.5,243.0,130.5,235.0,138.5,228.5,146.0,219.5,154.0,211.5,162.0" stroke="black" stroke-width="2" fill="none" />
<polyline points="219.0,156.0,211.0,156.5,203.0,156.5" stroke="black" stroke-width="2" fill="none" />
<polyline points="199.5,161.5,208.0,166.0,216.0,158.0,224.0,151.0,232.0,142.0,240.0,134.0" stroke="black" stroke-width="2" fill="none" />
<polyline points="244.5,148.0,252.5,147.5,259.5,146.5,267.0,146.0,275.0,146.0" stroke="black" stroke-width="2" fill="none" />
<polyline points="277.0,147.5,268.5,154.5,260.5,162.5,252.5,170.0,244.5,178.0,236.5,185.0,228.0,193.0" stroke="black" stroke-width="2" fill="none" />
<polyline points="227.0,193.0,234.5,192.0,243.0,192.0,251.5,191.5,260.0,190.5,268.5,190.5" stroke="black" stroke-width="2" fill="none" />
<polyline points="276.0,196.5,284.0,195.5,291.5,195.5,299.0,195.5" stroke="black" stroke-width="2" fill="none" />
<polyline points="300.0,197.5,292.0,205.0,284.0,212.5" stroke="black" stroke-width="2" fill="none" />
<polyline points="284.5,212.5,292.0,212.0,299.5,211.5,307.0,211.0,315.0,210.5" stroke="black" stroke-width="2" fill="none" />
<polyline points="316.5,212.5,308.5,220.0,301.0,228.0" stroke="black" stroke-width="2" fill="none" />
<polyline points="299.5,229.0,307.0,228.0" stroke="black" stroke-width="2" fill="none" />
<polyline points="309.0,232.5,300.5,233.0" stroke="black" stroke-width="2" fill="none" />
<polyline points="300.5,234.5,309.0,227.0,317.5,219.0" stroke="black" stroke-width="2" fill="none" />
<polyline points="325.0,212.0,333.0,204.5" stroke="black" stroke-width="2" fill="none" />
<polyline points="331.0,212.5,339.0,212.5" stroke="black" stroke-width="2" fill="none" />
<polyline points="341.5,213.5,333.0,220.5" stroke="black" stroke-width="2" fill="none" />
<polyline points="332.0,217.5,340.0,217.0" stroke="black" stroke-width="2" fill="none" />
<polyline points="354.5,210.5,362.5,203.0" stroke="black" stroke-width="2" fill="none" />
<polyline points="362.5,208.5,354.0,209.0" stroke="black" stroke-width="2" fill="none" />
<polyline points="356.0,204.5,363.5,204.0" stroke="black" stroke-width="2" fill="none" />
<polyline points="369.0,195.5,377.0,188.0,385.0,180.5" stroke="black" stroke-width="2" fill="none" />
<polyline points="379.0,181.0,371.0,188.5,363.0,196.0,355.0,203.5" stroke="black" stroke-width="2" fill="none" />
<polyline points="349.5,202.5,356.5,195.0,364.0,187.5,371.5,179.5,379.5,172.0" stroke="black" stroke-width="2" fill="none" />
<polyline points="371.0,172.0,363.0,179.5,355.5,186.5,347.5,194.5" stroke="black" stroke-width="2" fill="none" />
<polyline points="348.0,199.5,355.5,198.5,363.5,198.5" stroke="black" stroke-width="2" fill="none" />
<polyline points="358.0,186.0,366.0,186.0,373.5,185.0,381.5,184.5" stroke="black" stroke-width="2" fill="none" />
<polyline points="380.0,187.0,372.0,187.0,363.5,187.5,356.0,187.5,348.0,188.0,339.5,188.0,331.5,188.0" stroke="black" stroke-width="2" fill="none" />
<polyline points="332.5,185.0,341.0,177.5,349.5,170.0,357.5,163.0,365.5,155.0" stroke="black" stroke-width="2" fill="none" />
<polyline points="364.5,162.5,356.0,169.5,348.0,176.5,340.0,184.0,332.0,192.0" stroke="black" stroke-width="2" fill="none" />
<polyline points="330.0,185.0,338.0,184.5,345.5,184.0" stroke="black" stroke-width="2" fill="none" />
<polyline points="340.0,193.5,347.5,185.5,355.5,178.0,363.0,171.0,371.0,164.0" stroke="black" stroke-width="2" fill="none" />
<polyline points="378.5,156.5,386.5,149.0" stroke="black" stroke-width="2" fill="none" />
<polyline points="387.5,154.0,379.5,155.0" stroke="black" stroke-width="2" fill="none" />
<polyline points="379.5,150.0,387.0,149.0" stroke="black" stroke-width="2" fill="none" />
<polyline points="396.0,146.5,404.0,145.5,412.0,144.5,420.0,144.0" stroke="black" stroke-width="2" fill="none" />
<polyline points="420.5,141.5,412.5,149.0,404.0,157.0" stroke="black" stroke-width="2" fill="none" />
<polyline points="401.5,152.5,410.0,152.0" stroke="black" stroke-width="2" fill="none" />
<polyline points="412.0,149.5,404.0,150.0" stroke="black" stroke-width="2" fill="none" />
<polyline points="402.5,146.5,410.5,140.0,418.5,132.5" stroke="black" stroke-width="2" fill="none" />
<polyline points="413.0,133.5,405.0,141.5,396.5,149.5" stroke="black" stroke-width="2" fill="none" />
<polyline points="394.0,155.5,386.0,163.5" stroke="black" stroke-width="2" fill="none" />
<polyline points="388.0,162.5,396.0,162.0" stroke="black" stroke-width="2" fill="none" />
<polyline points="395.0,158.5,387.5,159.0" stroke="black" stroke-width="2" fill="none" />
<polyline points="371.5,148.5,379.0,141.0" stroke="black" stroke-width="2" fill="none" />
<polyline points="377.0,146.0,369.5,146.0" stroke="black" stroke-width="2" fill="none" />
<polyline points="371.5,142.0,380.5,141.0" stroke="black" stroke-width="2" fill="none" />
<polyline points="388.5,138.5,396.5,138.0,404.0,137.5,412.0,137.0,420.0,137.0" stroke="black" stroke-width="2" fill="none" />
<polyline points="412.0,123.5,404.0,130.5,396.0,138.0" stroke="black" stroke-width="2" fill="none" />
<polyline points="396.5,140.5,404.5,140.0,412.5,140.0,420.0,139.0" stroke="black" stroke-width="2" fill="none" />
<polyline points="404.0,123.5,396.5,130.5,388.5,138.5" stroke="black" stroke-width="2" fill="none" />
<polyline points="388.0,133.5,395.5,133.0,403.0,132.5,411.0,131.5,419.0,131.0" stroke="black" stroke-width="2" fill="none" />
<polyline points="404.0,118.0,396.0,125.0,388.5,132.0" stroke="black" stroke-width="2" fill="none" />
<polyline points="379.5,129.5,387.5,129.0,396.0,128.0,403.5,127.0,411.0,126.0" stroke="black" stroke-width="2" fill="none" />
<polyline points="395.0,115.0,387.0,122.5,379.0,130.5" stroke="black" stroke-width="2" fill="none" />
<polyline points="379.0,124.5,387.5,133.0,395.5,141.0,403.0,149.0,411.0,152.0,419.0,143.0" stroke="black" stroke-width="2" fill="none" />
<polyline points="419.0,172.0,411.5,172.0" stroke="black" stroke-width="2" fill="none" />
<polyline points="412.5,172.0,403.5,180.0,408.0,188.5" stroke="black" stroke-width="2" fill="none" />
<polyline points="412.0,188.5,420.0,181.0" stroke="black" stroke-width="2" fill="none" />
<polyline points="419.5,188.0,427.5,181.0" stroke="black" stroke-width="2" fill="none" />
<polyline points="427.0,188.5,418.5,196.0" stroke="black" stroke-width="2" fill="none" />
<polyline points="420.5,194.0,428.5,193.0" stroke="black" stroke-width="2" fill="none" />
<polyline points="428.5,189.5,420.5,190.0" stroke="black" stroke-width="2" fill="none" />
<polyline points="413.0,184.0,421.0,183.0,428.5,182.5" stroke="black" stroke-width="2" fill="none" />
<polyline points="420.0,173.5,411.0,180.5" stroke="black" stroke-width="2" fill="none" />
<polyline points="412.0,180.5,419.5,180.0,427.5,180.0" stroke="black" stroke-width="2" fill="none" />
<polyline points="420.0,177.5,412.5,178.5" stroke="black" stroke-width="2" fill="none" />
<polyline points="416.0,173.0,424.0,181.0,426.0,189.0" stroke="black" stroke-width="2" fill="none" />
<polyline points="412.0,196.0,404.0,204.0,395.0,211.0,387.0,218.5,379.5,226.0" stroke="black" stroke-width="2" fill="none" />
<polyline points="378.0,227.5,386.5,228.0" stroke="black" stroke-width="2" fill="none" />
<polyline points="386.5,223.5,379.0,224.5,371.0,225.0" stroke="black" stroke-width="2" fill="none" />
<polyline points="371.0,225.0,378.5,217.0,386.5,209.0,394.5,201.5,402.0,193.5" stroke="black" stroke-width="2" fill="none" />
<polyline points="397.0,191.5,404.5,199.5,407.5,207.5,399.5,215.5,391.5,223.5,384.0,231.5" stroke="black" stroke-width="2" fill="none" />
<polyline points="387.5,220.0,379.0,220.0,371.0,220.0" stroke="black" stroke-width="2" fill="none" />
<polyline points="372.5,219.5,380.5,219.0,388.5,218.5,396.5,217.5" stroke="black" stroke-width="2" fill="none" />
<polyline points="403.0,211.0,411.0,203.5" stroke="black" stroke-width="2" fill="none" />
<polyline points="403.5,186.5,395.5,194.0,387.5,201.5,379.5,209.0,371.0,216.5" stroke="black" stroke-width="2" fill="none" />
<polyline points="372.0,215.0,380.5,214.5,388.5,214.0,396.5,213.0,404.5,212.0" stroke="black" stroke-width="2" fill="none" />
<polyline points="413.5,199.5,405.5,199.5,397.0,200.0,388.5,200.5" stroke="black" stroke-width="2" fill="none" />
<polyline points="388.0,196.5,396.0,196.5,404.5,196.0,412.5,195.5" stroke="black" stroke-width="2" fill="none" />
<polyline points="405.0,189.0,397.0,189.5" stroke="black" stroke-width="2" fill="none" />
<polyline points="391.5,191.0,384.5,199.0,375.5,207.0,366.5,215.0,365.0,222.5,372.0,230.5,380.5,233.5,389.5,226.5,398.0,218.5,406.0,212.0" stroke="black" stroke-width="2" fill="none" />
<polyline points="402.0,207.0,394.5,207.5,386.5,207.5,378.5,208.0" stroke="black" stroke-width="2" fill="none" />
<polyline points="378.5,204.5,386.5,204.0,394.5,204.0,402.5,203.0,411.0,202.5" stroke="black" stroke-width="2" fill="none" />
<polyline points="422.5,194.0,414.5,192.0,406.0,184.5" stroke="black" stroke-width="2" fill="none" />
<polyline points="406.0,179.0,414.0,172.5,422.0,175.5" stroke="black" stroke-width="2" fill="none" />
<polyline points="410.0,123.5,402.0,123.5,395.0,123.5,387.5,123.5,379.5,124.0" stroke="black" stroke-width="2" fill="none" />
<polyline points="378.5,123.0,386.5,113.0,394.0,109.0,401.5,116.5,409.0,124.0,417.0,132.0" stroke="black" stroke-width="2" fill="none" />
<polyline points="395.5,113.0,388.0,113.5" stroke="black" stroke-width="2" fill="none" />
<polyline points="389.0,110.5,381.0,118.0,378.0,126.0,385.0,134.0,393.0,142.5,401.0,150.5" stroke="black" stroke-width="2" fill="none" />
<polyline points="371.0,131.0,363.0,138.5" stroke="black" stroke-width="2" fill="none" />
<polyline points="365.0,137.0,373.0,136.0" stroke="black" stroke-width="2" fill="none" />
<polyline points="372.5,132.0,364.0,133.0" stroke="black" stroke-width="2" fill="none" />
<polyline points="357.5,132.0,365.5,125.0" stroke="black" stroke-width="2" fill="none" />
<polyline points="364.0,129.0,356.0,129.5" stroke="black" stroke-width="2" fill="none" />
<polyline points="353.5,131.0,361.5,138.0,369.5,145.5,377.5,153.5,385.5,161.5,393.5,170.5" stroke="black" stroke-width="2" fill="none" />
<polyline points="366.0,177.5,358.5,178.5" stroke="black" stroke-width="2" fill="none" />
<polyline points="355.0,157.0,347.0,164.0,339.0,172.0,331.5,179.5" stroke="black" stroke-width="2" fill="none" />
<polyline points="332.5,181.0,341.0,180.0,349.0,179.5,356.5,179.5,363.5,179.5,371.5,179.0,380.0,178.5,388.0,177.5" stroke="black" stroke-width="2" fill="none" />
<polyline points="354.5,149.5,347.0,157.0,339.0,163.5,331.0,170.5,322.5,177.0" stroke="black" stroke-width="2" fill="none" />
<polyline points="324.5,175.0,332.5,174.5,341.0,173.5,349.0,173.0,357.0,173.0,365.0,172.0,372.5,171.0,379.5,170.5" stroke="black" stroke-width="2" fill="none" />
<polyline points="348.5,150.0,340.5,157.0,332.5,164.5,325.0,171.5" stroke="black" stroke-width="2" fill="none" />
<polyline points="325.5,178.0,333.5,178.0" stroke="black" stroke-width="2" fill="none" />
<polyline points="340.5,194.5,348.0,193.5,356.0,193.0,364.5,193.0,372.5,192.5" stroke="black" stroke-width="2" fill="none" />
<polyline points="372.0,195.0,364.0,195.5,356.0,196.0,348.5,196.5,340.5,197.0" stroke="black" stroke-width="2" fill="none" />
<polyline points="323.0,196.0,315.5,204.0" stroke="black" stroke-width="2" fill="none" />
<polyline points="315.5,203.5,324.0,203.0" stroke="black" stroke-width="2" fill="none" />
<polyline points="324.5,206.5,332.0,206.0" stroke="black" stroke-width="2" fill="none" />
<polyline points="333.0,209.5,325.0,210.5" stroke="black" stroke-width="2" fill="none" />
<polyline points="322.5,198.0,315.0,198.5" stroke="black" stroke-width="2" fill="none" />
<polyline points="317.0,191.5,309.5,192.0" stroke="black" stroke-width="2" fill="none" />
<polyline points="309.0,190.0,317.5,189.5" stroke="black" stroke-width="2" fill="none" />
<polyline points="314.5,186.5,307.0,194.5" stroke="black" stroke-width="2" fill="none" />
<polyline points="307.0,202.5,298.5,210.0,291.0,217.5" stroke="black" stroke-width="2" fill="none" />
<polyline points="290.0,221.5,298.0,221.0,306.0,220.5,313.5,220.0" stroke="black" stroke-width="2" fill="none" />
<polyline points="309.0,211.0,301.0,218.0,293.0,225.5" stroke="black" stroke-width="2" fill="none" />
<polyline points="289.5,224.5,297.5,224.5,306.0,224.5,314.5,224.0" stroke="black" stroke-width="2" fill="none" />
<polyline points="299.0,203.5,291.5,211.0,284.0,218.5" stroke="black" stroke-width="2" fill="none" />
<polyline points="283.5,216.0,292.0,215.0,300.0,214.5,308.0,213.5,316.0,213.0" stroke="black" stroke-width="2" fill="none" />
<polyline points="291.0,196.5,283.0,203.5,274.5,210.5" stroke="black" stroke-width="2" fill="none" />
<polyline points="276.5,209.5,284.0,209.0,292.0,209.0,299.5,208.5,307.5,208.0" stroke="black" stroke-width="2" fill="none" />
<polyline points="298.5,187.0,306.5,179.5" stroke="black" stroke-width="2" fill="none" />
<polyline points="306.0,181.5,298.0,182.0" stroke="black" stroke-width="2" fill="none" />
<polyline points="297.0,183.0,305.0,179.0,312.5,187.5,320.5,195.5,328.0,203.5,335.5,212.0" stroke="black" stroke-width="2" fill="none" />
<polyline points="308.5,204.0,300.0,204.5,292.0,205.5,283.5,206.0,275.5,206.0" stroke="black" stroke-width="2" fill="none" />
<polyline points="271.5,207.0,279.0,217.0,287.0,224.5,295.0,232.5,302.5,234.5,310.5,226.5" stroke="black" stroke-width="2" fill="none" />
<polyline points="290.5,191.5,282.0,192.0" stroke="black" stroke-width="2" fill="none" />
<polyline points="280.5,192.0,272.5,200.0,269.5,208.0,276.0,215.5,284.5,223.5,293.5,231.0" stroke="black" stroke-width="2" fill="none" />
<polyline points="301.0,200.5,292.5,200.5,284.0,201.0,276.0,201.5" stroke="black" stroke-width="2" fill="none" />
<polyline points="274.5,201.0,282.0,193.5,290.0,186.0" stroke="black" stroke-width="2" fill="none" />
<polyline points="290.0,189.5,282.0,190.0" stroke="black" stroke-width="2" fill="none" />
<polyline points="286.5,194.0,294.5,201.5,304.0,209.5,311.0,217.0,313.0,224.5,305.5,233.0" stroke="black" stroke-width="2" fill="none" />
<polyline points="337.5,225.5,330.0,218.0,322.0,209.0,314.0,201.0,306.0,192.5,298.0,184.0" stroke="black" stroke-width="2" fill="none" />
<polyline points="298.5,185.5,306.5,185.0" stroke="black" stroke-width="2" fill="none" />
<polyline points="302.5,180.5,309.5,188.5,317.5,196.5,325.5,204.0,334.0,212.0,343.5,219.5" stroke="black" stroke-width="2" fill="none" />
<polyline points="365.0,219.0,373.0,210.0,381.0,202.5,389.0,194.5,397.0,190.0,405.0,198.0" stroke="black" stroke-width="2" fill="none" />
<polyline points="381.0,230.0,390.0,223.0,382.5,229.0,375.0,230.5,367.0,221.5" stroke="black" stroke-width="2" fill="none" />
<polyline points="340.0,159.5,331.5,160.0" stroke="black" stroke-width="2" fill="none" />
<polyline points="325.5,154.5,317.5,162.0" stroke="black" stroke-width="2" fill="none" />
<polyline points="316.5,165.5,324.0,164.5,331.5,164.0,339.5,163.0,347.5,162.0,355.5,161.5,363.0,161.0,370.5,160.5" stroke="black" stroke-width="2" fill="none" />
<polyline points="349.5,141.5,341.0,149.0,332.5,156.0,324.5,163.5,316.0,171.0" stroke="black" stroke-width="2" fill="none" />
<polyline points="312.0,167.0,320.0,177.0,328.0,185.0,336.0,194.5,344.0,203.0,352.0,210.0,360.5,208.5,368.5,200.0,377.0,192.5,385.0,183.5" stroke="black" stroke-width="2" fill="none" />
<polyline points="348.5,141.0,340.5,141.0,332.5,141.5" stroke="black" stroke-width="2" fill="none" />
<polyline points="337.0,138.5,330.0,147.0,322.0,155.0,314.0,163.5,313.0,171.5,319.0,180.0,327.5,187.5,335.0,195.0,343.0,203.0,352.0,210.5" stroke="black" stroke-width="2" fill="none" />
<polyline points="362.5,152.5,355.0,153.0,347.0,153.5,339.0,154.5,332.0,155.0,324.5,155.5,317.0,156.0" stroke="black" stroke-width="2" fill="none" />
<polyline points="324.5,151.0,332.0,151.0,340.5,150.5,348.0,149.5,355.0,148.0" stroke="black" stroke-width="2" fill="none" />
<polyline points="342.0,140.0,350.0,148.0,358.0,156.0,366.5,163.5,375.0,171.0,382.0,179.0,381.0,187.0,374.5,195.0,365.5,203.0,357.0,211.0" stroke="black" stroke-width="2" fill="none" />
<polyline points="383.5,179.0,375.5,170.0,367.5,162.0,359.5,154.0,351.5,145.5,343.5,137.5,335.0,139.5,327.0,148.0,319.0,157.0,311.5,167.0" stroke="black" stroke-width="2" fill="none" />
<polyline points="300.5,156.0,308.5,148.5,316.5,141.0,324.5,133.5,332.5,125.5" stroke="black" stroke-width="2" fill="none" />
<polyline points="325.0,123.0,317.0,130.5,308.5,138.0,300.0,145.0" stroke="black" stroke-width="2" fill="none" />
<polyline points="300.0,149.0,308.0,148.5" stroke="black" stroke-width="2" fill="none" />
<polyline points="308.0,154.5,300.0,155.0" stroke="black" stroke-width="2" fill="none" />
<polyline points="293.0,155.0,285.0,163.0,276.5,170.5,268.0,178.0,259.5,185.0,251.0,192.5,243.5,201.0" stroke="black" stroke-width="2" fill="none" />
<polyline points="240.5,204.5,248.5,204.5" stroke="black" stroke-width="2" fill="none" />
<polyline points="252.0,209.0,244.0,209.5" stroke="black" stroke-width="2" fill="none" />
<polyline points="243.5,209.5,251.5,201.5,259.5,193.5,267.5,186.0,276.0,178.0,284.5,170.0,293.0,162.0" stroke="black" stroke-width="2" fill="none" />
<polyline points="284.5,156.0,276.5,164.0,269.0,171.0,261.0,178.0,252.5,185.0,245.0,192.5,237.0,200.5" stroke="black" stroke-width="2" fill="none" />
<polyline points="235.0,200.0,243.0,200.0,251.0,200.0,259.5,200.0" stroke="black" stroke-width="2" fill="none" />
<polyline points="258.5,196.5,250.0,197.0,241.5,197.5,233.5,198.0" stroke="black" stroke-width="2" fill="none" />
<polyline points="236.0,195.0,244.5,187.0,253.0,179.5,261.5,171.5,269.5,164.0,277.0,155.5" stroke="black" stroke-width="2" fill="none" />
<polyline points="268.5,146.5,260.0,154.0,252.0,161.5,244.0,169.5,236.0,177.5,228.0,185.0" stroke="black" stroke-width="2" fill="none" />
<polyline points="229.0,188.5,236.5,188.0,244.5,188.5,252.0,188.0,259.0,187.0,266.0,186.5" stroke="black" stroke-width="2" fill="none" />
<polyline points="274.0,183.0,265.5,183.5,258.0,183.5,250.5,183.0,243.5,182.5,236.0,182.5,228.5,182.5,221.0,182.5" stroke="black" stroke-width="2" fill="none" />
<polyline points="219.5,184.0,227.5,176.0,236.0,169.0,244.5,162.5,253.0,155.5,260.5,148.0,269.0,141.0" stroke="black" stroke-width="2" fill="none" />
<polyline points="268.0,144.5,260.0,145.0,251.5,145.0" stroke="black" stroke-width="2" fill="none" />
<polyline points="253.5,142.5,261.0,142.0,269.5,141.0" stroke="black" stroke-width="2" fill="none" />
<polyline points="261.0,138.0,270.0,146.0,277.5,153.5,285.5,161.5,286.5,169.5,278.5,177.5,272.0,185.0,264.0,193.0,257.0,200.5,248.0,209.0" stroke="black" stroke-width="2" fill="none" />
<polyline points="237.0,221.0,228.5,215.0,220.5,219.5,212.5,226.5" stroke="black" stroke-width="2" fill="none" />
<polyline points="214.5,229.5,222.5,238.5,228.5,229.0" stroke="black" stroke-width="2" fill="none" />
<polyline points="235.5,228.5,228.0,229.0,220.0,229.5" stroke="black" stroke-width="2" fill="none" />
<polyline points="205.0,222.5,197.5,223.0,189.5,223.5,181.0,224.0" stroke="black" stroke-width="2" fill="none" />
<polyline points="180.0,224.5,188.5,217.0,196.5,209.5,204.5,202.0,212.5,195.0" stroke="black" stroke-width="2" fill="none" />
<polyline points="211.0,187.0,203.0,194.5,195.5,202.0,187.5,210.0,179.5,218.0" stroke="black" stroke-width="2" fill="none" />
<polyline points="181.0,216.5,189.0,216.0,196.5,216.5,203.5,216.0,211.0,215.5" stroke="black" stroke-width="2" fill="none" />
<polyline points="219.0,204.0,211.5,211.5,203.5,219.0,195.5,226.0,187.5,233.5" stroke="black" stroke-width="2" fill="none" />
<polyline points="188.5,233.5,196.5,232.5" stroke="black" stroke-width="2" fill="none" />
<polyline points="195.5,229.5,187.5,229.5" stroke="black" stroke-width="2" fill="none" />
<polyline points="188.0,225.5,196.0,217.0,204.0,208.5,212.0,200.5,220.5,193.5" stroke="black" stroke-width="2" fill="none" />
<polyline points="211.5,193.5,203.0,194.5" stroke="black" stroke-width="2" fill="none" />
<polyline points="203.0,195.5,210.0,196.5,218.0,205.0,212.0,213.0,204.0,221.0,196.0,229.0" stroke="black" stroke-width="2" fill="none" />
<polyline points="204.0,219.0,197.0,219.0,190.0,219.5,182.0,220.0" stroke="black" stroke-width="2" fill="none" />
<polyline points="179.5,213.5,187.5,212.5,195.0,211.5,203.0,211.0,211.5,210.0" stroke="black" stroke-width="2" fill="none" />
<polyline points="219.0,200.0,211.0,201.0,202.0,202.0,194.0,203.0" stroke="black" stroke-width="2" fill="none" />
<polyline points="194.0,198.5,202.0,197.5,210.5,196.5,219.0,196.0" stroke="black" stroke-width="2" fill="none" />
<polyline points="210.5,187.5,202.5,188.0" stroke="black" stroke-width="2" fill="none" />
<polyline points="199.0,189.5,191.0,197.5,183.0,205.5,175.0,213.5,172.0,221.5,179.5,229.5" stroke="black" stroke-width="2" fill="none" />
<polyline points="174.0,223.0,182.0,231.0,190.0,235.5,198.0,227.0,206.0,218.5,213.5,210.5" stroke="black" stroke-width="2" fill="none" />
<polyline points="219.0,206.5,211.0,208.0,203.0,208.5,195.5,209.0,188.0,209.5" stroke="black" stroke-width="2" fill="none" />
<polyline points="187.5,206.0,196.0,205.0,204.0,204.5,212.0,203.5,220.0,202.5" stroke="black" stroke-width="2" fill="none" />
<polyline points="211.5,197.0,204.0,190.5,196.0,194.5,188.0,202.0,180.0,209.5,172.0,218.5" stroke="black" stroke-width="2" fill="none" />
<polyline points="165.0,209.5,172.5,201.5,180.0,194.0,187.5,187.0,195.5,179.5" stroke="black" stroke-width="2" fill="none" />
<polyline points="198.0,171.0,189.5,179.0,181.0,187.0,172.5,194.5,164.5,202.0" stroke="black" stroke-width="2" fill="none" />
<polyline points="165.0,205.5,173.0,204.5" stroke="black" stroke-width="2" fill="none" />
<polyline points="181.0,199.5,173.0,200.5,164.5,201.5,156.5,202.0" stroke="black" stroke-width="2" fill="none" />
<polyline points="157.0,200.5,165.0,193.5,173.0,186.5,181.0,178.5,189.0,171.0" stroke="black" stroke-width="2" fill="none" />
<polyline points="189.5,162.0,181.5,169.5,173.0,177.0,165.0,184.5,157.0,192.0" stroke="black" stroke-width="2" fill="none" />
<polyline points="158.0,198.5,165.5,197.5,173.5,196.5,181.5,195.5" stroke="black" stroke-width="2" fill="none" />
<polyline points="155.5,211.0,147.5,218.5" stroke="black" stroke-width="2" fill="none" />
<polyline points="148.0,218.5,156.0,218.0" stroke="black" stroke-width="2" fill="none" />
<polyline points="154.5,215.0,146.5,216.0" stroke="black" stroke-width="2" fill="none" />
<polyline points="141.5,210.5,150.0,203.0" stroke="black" stroke-width="2" fill="none" />
<polyline points="148.5,194.0,156.5,187.0,164.5,179.5,172.0,172.0,180.0,164.0" stroke="black" stroke-width="2" fill="none" />
<polyline points="177.0,158.0,169.0,164.5,162.0,171.5,154.5,178.5,147.0,185.5" stroke="black" stroke-width="2" fill="none" />
<polyline points="147.0,187.0,155.5,187.0,163.5,187.0,171.5,186.5,179.5,185.5,187.5,185.0" stroke="black" stroke-width="2" fill="none" />
<polyline points="187.5,192.5,179.5,193.0,171.5,193.5,163.5,193.5,155.5,194.0,147.5,194.0" stroke="black" stroke-width="2" fill="none" />
<polyline points="140.5,195.0,132.5,203.5" stroke="black" stroke-width="2" fill="none" />
<polyline points="133.0,202.0,140.5,201.5" stroke="black" stroke-width="2" fill="none" />
<polyline points="138.5,202.5,146.0,202.5" stroke="black" stroke-width="2" fill="none" />
<polyline points="147.5,208.5,139.5,208.5" stroke="black" stroke-width="2" fill="none" />
<polyline points="139.5,195.5,131.0,196.5" stroke="black" stroke-width="2" fill="none" />
<polyline points="124.5,192.5,132.5,185.5" stroke="black" stroke-width="2" fill="none" />
<polyline points="137.5,184.0,146.0,184.0,154.5,183.5,163.5,183.5,171.5,183.5,179.0,184.0,187.0,183.5,195.0,182.5" stroke="black" stroke-width="2" fill="none" />
<polyline points="196.0,178.5,188.0,179.0,180.0,179.0,171.5,179.5,163.5,180.0,155.0,180.5,147.0,180.5,139.0,181.0" stroke="black" stroke-width="2" fill="none" />
<polyline points="139.5,185.5,147.0,177.5,155.0,170.0,162.5,162.5,170.5,155.5" stroke="black" stroke-width="2" fill="none" />
<polyline points="171.5,147.0,164.0,155.0,156.5,162.5,148.5,170.0,140.0,178.0" stroke="black" stroke-width="2" fill="none" />
<polyline points="133.5,177.5,141.0,177.5,149.0,177.0,156.5,176.0,164.5,175.5,172.0,175.0,180.5,174.0,188.5,173.0,197.0,172.0" stroke="black" stroke-width="2" fill="none" />
<polyline points="217.0,176.0,225.5,175.0,234.0,174.5,242.5,174.0,251.0,174.0,259.5,174.0,268.0,173.5,275.5,173.0,283.0,172.5" stroke="black" stroke-width="2" fill="none" />
<polyline points="292.5,158.5,284.0,159.0,275.5,160.0,267.5,160.5,258.5,160.0,250.5,160.5,242.0,161.0,234.0,161.5" stroke="black" stroke-width="2" fill="none" />
<polyline points="236.0,157.5,244.0,157.5,252.5,157.5,260.5,157.0,268.5,156.5,276.5,156.5,284.5,156.0,292.0,155.0" stroke="black" stroke-width="2" fill="none" />
<polyline points="291.5,146.5,299.0,146.0,307.5,145.0,315.5,144.5" stroke="black" stroke-width="2" fill="none" />
<polyline points="315.5,122.0,307.0,129.5,299.0,136.5,291.0,143.5" stroke="black" stroke-width="2" fill="none" />
<polyline points="291.0,141.5,299.5,140.5,308.0,140.5,317.0,140.0" stroke="black" stroke-width="2" fill="none" />
<polyline points="317.0,121.0,308.5,121.5" stroke="black" stroke-width="2" fill="none" />
<polyline points="307.5,119.0,316.0,118.0,323.0,118.0" stroke="black" stroke-width="2" fill="none" />
<polyline points="317.5,120.0,317.5,121.0,325.0,121.0,328.5,128.5,321.5,136.5,314.0,144.5,306.0,152.0" stroke="black" stroke-width="2" fill="none" />
<polyline points="291.5,161.0,284.0,161.5,276.5,162.0,268.5,162.5,260.5,163.0,252.0,163.5,243.5,164.0,235.5,164.5,227.5,165.5" stroke="black" stroke-width="2" fill="none" />
<polyline points="227.5,169.0,235.5,168.0,243.5,167.5,251.5,167.0,259.5,167.0,267.5,167.0,275.5,166.5,283.5,166.0,291.5,166.0" stroke="black" stroke-width="2" fill="none" />
<polyline points="284.0,168.5,275.5,168.5,267.0,168.0,259.5,168.5,251.0,169.0,243.0,169.5,234.5,170.0,227.0,171.0,219.5,171.5" stroke="black" stroke-width="2" fill="none" />
<polyline points="221.0,176.5,229.5,169.5,237.5,162.5,245.0,155.5,252.5,148.0,260.0,140.5" stroke="black" stroke-width="2" fill="none" />
<polyline points="257.0,136.5,247.5,144.5,239.5,153.0,231.5,161.0,224.5,169.0,217.0,176.5,215.0,184.0,221.5,192.0,229.5,199.5,238.0,207.0" stroke="black" stroke-width="2" fill="none" />
<polyline points="228.5,213.5,237.5,221.5,233.0,229.5,227.0,230.5,235.5,226.5" stroke="black" stroke-width="2" fill="none" />
<polyline points="227.5,212.0,216.5,220.5,213.5,228.5,220.0,236.5" stroke="black" stroke-width="2" fill="none" />
<polyline points="217.0,183.5,225.0,192.5,233.0,200.0,241.0,208.0,249.0,209.0,256.5,202.0,264.5,192.5,272.5,184.5,280.0,175.0,288.0,166.0" stroke="black" stroke-width="2" fill="none" />
<polyline points="275.5,178.0,267.0,178.0,259.0,179.0,251.0,179.0,243.0,179.0,235.0,179.5,227.0,179.5,219.5,180.0" stroke="black" stroke-width="2" fill="none" />
<polyline points="216.5,179.5,224.5,170.5,232.5,161.0,240.0,153.0,248.5,145.0,256.5,138.0,264.0,137.5,271.5,144.5,279.0,152.0,287.0,159.5" stroke="black" stroke-width="2" fill="none" />
<polyline points="275.5,151.0,268.0,151.0,259.5,151.0,251.0,151.5,242.5,152.5" stroke="black" stroke-width="2" fill="none" />
<polyline points="229.0,151.5,220.5,151.5,213.0,151.5" stroke="black" stroke-width="2" fill="none" />
<polyline points="197.0,132.0,188.5,139.0,180.0,147.0" stroke="black" stroke-width="2" fill="none" />
<polyline points="181.0,140.0,188.0,133.0,195.5,125.5" stroke="black" stroke-width="2" fill="none" />
<polyline points="189.5,123.0,181.5,131.0,173.5,138.0" stroke="black" stroke-width="2" fill="none" />
<polyline points="171.0,136.0,179.0,135.5,187.0,135.0,195.0,135.0,203.5,135.0" stroke="black" stroke-width="2" fill="none" />
<polyline points="189.0,114.5,181.0,122.0,173.0,129.5" stroke="black" stroke-width="2" fill="none" />
<polyline points="164.5,131.5,172.5,131.5,180.5,131.0,188.5,130.5,196.0,129.5,203.5,129.5" stroke="black" stroke-width="2" fill="none" />
<polyline points="178.0,115.5,169.5,123.0,162.0,130.5" stroke="black" stroke-width="2" fill="none" />
<polyline points="162.0,128.5,170.0,128.0,178.0,127.5,186.0,127.0,194.5,126.0" stroke="black" stroke-width="2" fill="none" />
<polyline points="203.0,138.5,194.0,139.5,186.0,140.0,178.5,141.0,170.5,141.5" stroke="black" stroke-width="2" fill="none" />
<polyline points="163.5,140.5,156.0,148.0,147.5,155.5,139.5,162.5,131.5,169.0" stroke="black" stroke-width="2" fill="none" />
<polyline points="133.5,174.0,141.5,173.5,150.0,172.0,158.0,171.5,165.5,171.0,174.0,170.5,181.5,169.0,189.0,168.0,197.5,167.5" stroke="black" stroke-width="2" fill="none" />
<polyline points="162.5,149.5,155.5,156.5,148.0,163.5,140.5,170.5,133.0,177.5" stroke="black" stroke-width="2" fill="none" />
<polyline points="124.5,179.5,116.0,187.0" stroke="black" stroke-width="2" fill="none" />
<polyline points="115.0,186.5,123.0,185.5" stroke="black" stroke-width="2" fill="none" />
<polyline points="124.0,189.0,132.0,188.0" stroke="black" stroke-width="2" fill="none" />
<polyline points="131.0,192.5,123.0,193.0" stroke="black" stroke-width="2" fill="none" />
<polyline points="124.5,182.5,117.0,183.0" stroke="black" stroke-width="2" fill="none" />
<polyline points="111.5,176.5,120.0,185.0,129.0,192.5,135.5,200.5,144.5,208.5,153.5,216.0" stroke="black" stroke-width="2" fill="none" />
<polyline points="123.0,220.0,115.5,227.5" stroke="black" stroke-width="2" fill="none" />
<polyline points="107.0,227.5,114.5,220.0,122.5,212.5" stroke="black" stroke-width="2" fill="none" />
<polyline points="115.0,211.5,107.0,218.5,99.0,226.0" stroke="black" stroke-width="2" fill="none" />
<polyline points="98.0,225.5,105.5,225.0,113.5,225.0,121.5,224.5" stroke="black" stroke-width="2" fill="none" />
<polyline points="115.0,203.0,107.0,211.0,99.0,218.5" stroke="black" stroke-width="2" fill="none" />
<polyline points="98.5,222.5,106.5,222.0,114.5,221.5,122.5,221.0" stroke="black" stroke-width="2" fill="none" />
<polyline points="107.5,201.5,99.5,209.0,91.5,217.0" stroke="black" stroke-width="2" fill="none" />
<polyline points="90.5,216.0,99.0,215.5,106.5,214.5,114.5,213.5,122.5,212.0" stroke="black" stroke-width="2" fill="none" />
<polyline points="106.0,195.0,98.0,202.0,90.5,209.5" stroke="black" stroke-width="2" fill="none" />
<polyline points="83.0,210.5,91.0,210.0,99.0,209.0,107.0,208.5,114.5,207.5" stroke="black" stroke-width="2" fill="none" />
<polyline points="98.5,194.0,90.5,201.0,82.0,209.0" stroke="black" stroke-width="2" fill="none" />
<polyline points="83.0,206.5,91.5,215.5,99.5,222.0,107.5,228.5,115.5,231.5,123.5,222.5" stroke="black" stroke-width="2" fill="none" />
<polyline points="122.0,216.5,114.5,217.0,107.0,218.0,99.0,218.5,91.5,219.0" stroke="black" stroke-width="2" fill="none" />
<polyline points="84.5,204.5,92.5,204.0,101.0,203.5,109.0,202.5,116.5,202.0" stroke="black" stroke-width="2" fill="none" />
<polyline points="100.0,188.5,91.5,196.0,83.0,203.0" stroke="black" stroke-width="2" fill="none" />
<polyline points="81.5,201.0,89.5,192.5,97.5,189.0,105.0,196.0,113.0,203.0,121.5,211.0" stroke="black" stroke-width="2" fill="none" />
<polyline points="98.0,193.5,90.0,194.5" stroke="black" stroke-width="2" fill="none" />
<polyline points="89.5,190.5,98.0,190.0" stroke="black" stroke-width="2" fill="none" />
<polyline points="97.0,191.0,105.5,198.5,114.5,206.5,122.5,214.0,122.0,222.0,115.0,230.0" stroke="black" stroke-width="2" fill="none" />
<polyline points="108.0,200.0,100.0,200.0,92.0,200.0,83.5,200.5" stroke="black" stroke-width="2" fill="none" />
<polyline points="84.0,198.5,92.0,197.5,99.5,197.0,107.5,196.5" stroke="black" stroke-width="2" fill="none" />
<polyline points="108.5,182.0,116.5,189.0,124.5,197.0,132.5,206.0,140.5,214.5,148.5,222.5" stroke="black" stroke-width="2" fill="none" />
<polyline points="185.5,189.5,177.5,197.5,169.5,206.5,161.5,209.0,153.0,202.0,145.0,193.0,137.0,184.0,128.5,175.0,121.0,165.5" stroke="black" stroke-width="2" fill="none" />
<polyline points="123.0,167.0,131.0,165.5,139.5,165.0,147.5,164.0,155.0,163.0,163.0,162.5,171.0,162.0,179.0,161.5,187.0,160.5" stroke="black" stroke-width="2" fill="none" />
<polyline points="154.5,137.5,146.5,145.5,139.0,153.5,132.0,161.0,124.5,168.0" stroke="black" stroke-width="2" fill="none" />
<polyline points="124.0,168.0,132.0,167.5,140.0,167.5,147.5,167.0,155.0,167.0,162.5,167.0,171.0,166.5,179.0,166.0,187.0,165.5" stroke="black" stroke-width="2" fill="none" />
<polyline points="194.5,121.5,186.0,121.5,177.5,122.5,169.0,123.5,161.0,124.0" stroke="black" stroke-width="2" fill="none" />
<polyline points="158.5,124.5,166.0,134.5,174.5,144.0,182.0,152.0,190.0,153.0,198.0,145.0" stroke="black" stroke-width="2" fill="none" />
<polyline points="179.5,113.0,172.0,113.5" stroke="black" stroke-width="2" fill="none" />
<polyline points="175.0,111.0,182.5,119.0,191.0,127.0,199.0,134.5,203.0,142.0,194.0,150.0" stroke="black" stroke-width="2" fill="none" />
<polyline points="187.5,119.0,179.5,120.0,171.5,120.5,164.0,121.0" stroke="black" stroke-width="2" fill="none" />
<polyline points="161.5,120.0,169.5,112.5,177.5,105.0" stroke="black" stroke-width="2" fill="none" />
<polyline points="180.5,108.0,172.5,108.0" stroke="black" stroke-width="2" fill="none" />
<polyline points="170.5,109.5,161.5,117.5,158.0,125.5,163.0,133.0,170.5,141.0,178.5,148.5" stroke="black" stroke-width="2" fill="none" />
<polyline points="155.5,137.0,147.0,137.5" stroke="black" stroke-width="2" fill="none" />
<polyline points="146.5,136.5,138.5,144.5,130.5,152.5,121.5,160.0,120.5,167.5,127.5,175.0,134.5,183.0,142.0,190.5,150.0,198.5,158.0,206.5" stroke="black" stroke-width="2" fill="none" />
<polyline points="124.5,160.5,132.5,153.0,140.0,145.5,147.5,137.5,155.5,130.0" stroke="black" stroke-width="2" fill="none" />
<polyline points="157.0,134.0,149.0,134.5" stroke="black" stroke-width="2" fill="none" />
<polyline points="152.0,137.0,160.0,145.0,167.5,153.0,175.5,161.0,182.0,168.5,190.5,176.5,189.0,184.0,182.0,192.0,173.0,200.0,165.0,207.5" stroke="black" stroke-width="2" fill="none" />
<polyline points="172.0,150.5,163.5,151.5,155.5,152.0,148.0,152.5,140.0,154.0,132.5,154.5" stroke="black" stroke-width="2" fill="none" />
<polyline points="130.5,151.0,138.5,150.5,146.0,150.0,154.5,149.5,162.5,149.0,171.0,148.5" stroke="black" stroke-width="2" fill="none" />
<polyline points="163.0,144.0,155.0,144.5,147.0,145.0,139.0,145.5" stroke="black" stroke-width="2" fill="none" />
<polyline points="140.0,141.5,148.5,140.5,156.0,140.0,164.0,139.5" stroke="black" stroke-width="2" fill="none" />
<polyline points="157.0,120.0,165.0,112.5,173.5,108.5,182.0,116.0,190.0,124.0,197.5,132.5" stroke="black" stroke-width="2" fill="none" />
<polyline points="188.5,115.0,181.0,115.5,173.5,116.0,165.5,117.0" stroke="black" stroke-width="2" fill="none" />
<polyline points="131.5,107.0,123.5,114.5,115.5,122.5,107.5,131.0,99.5,139.0" stroke="black" stroke-width="2" fill="none" />
<polyline points="99.0,139.0,107.0,138.5,114.5,137.5,122.5,136.5,131.0,136.5" stroke="black" stroke-width="2" fill="none" />
<polyline points="139.0,121.5,130.5,122.5,122.5,123.0,114.5,123.5" stroke="black" stroke-width="2" fill="none" />
<polyline points="115.5,118.5,123.5,118.0,131.0,117.5,138.5,117.0" stroke="black" stroke-width="2" fill="none" />
<polyline points="138.5,127.5,130.5,128.0,122.0,128.5,113.5,129.0,105.5,129.5" stroke="black" stroke-width="2" fill="none" />
<polyline points="105.0,125.5,113.0,125.0,121.5,125.0,129.5,124.5,137.5,124.5" stroke="black" stroke-width="2" fill="none" />
<polyline points="122.0,160.5,130.5,160.0,139.0,159.5,147.0,159.0,155.0,158.5,163.0,158.0,171.5,157.5,179.5,157.5" stroke="black" stroke-width="2" fill="none" />
<polyline points="122.5,145.0,114.0,146.0,106.0,146.5,98.0,147.0" stroke="black" stroke-width="2" fill="none" />
<polyline points="99.5,142.5,107.0,142.0,115.0,142.0,123.0,142.0" stroke="black" stroke-width="2" fill="none" />
<polyline points="130.0,133.0,122.5,133.5,115.0,133.5,107.0,133.5,99.0,134.0" stroke="black" stroke-width="2" fill="none" />
<polyline points="96.0,137.0,104.0,129.5,112.0,122.5,119.5,114.0,127.5,108.0,135.5,114.0" stroke="black" stroke-width="2" fill="none" />
<polyline points="137.0,131.0,129.0,139.0,120.5,145.5,112.0,153.5,104.0,148.5,96.0,140.5" stroke="black" stroke-width="2" fill="none" />
<polyline points="92.5,148.0,84.5,155.5,76.0,163.0" stroke="black" stroke-width="2" fill="none" />
<polyline points="76.5,163.0,84.5,171.0,92.5,172.0" stroke="black" stroke-width="2" fill="none" />
<polyline points="92.0,172.5,99.5,165.0" stroke="black" stroke-width="2" fill="none" />
<polyline points="100.5,155.5,92.5,163.0,84.0,170.5" stroke="black" stroke-width="2" fill="none" />
<polyline points="83.5,170.0,91.5,169.0,99.5,168.0" stroke="black" stroke-width="2" fill="none" />
<polyline points="98.0,165.5,90.5,166.0,82.5,166.5" stroke="black" stroke-width="2" fill="none" />
<polyline points="84.0,160.5,92.0,152.5" stroke="black" stroke-width="2" fill="none" />
<polyline points="90.5,154.5,83.0,154.5" stroke="black" stroke-width="2" fill="none" />
<polyline points="82.5,150.5,75.5,158.5,79.5,166.5" stroke="black" stroke-width="2" fill="none" />
<polyline points="75.0,161.0,83.0,161.0,91.0,160.5,98.5,160.0" stroke="black" stroke-width="2" fill="none" />
<polyline points="90.5,149.5,83.0,150.0" stroke="black" stroke-width="2" fill="none" />
<polyline points="87.0,151.0,95.0,159.0,96.0,167.5" stroke="black" stroke-width="2" fill="none" />
<polyline points="99.5,156.0,91.5,156.0,83.5,156.5,75.5,157.0" stroke="black" stroke-width="2" fill="none" />
<polyline points="75.5,157.0,83.5,150.0,91.5,154.5" stroke="black" stroke-width="2" fill="none" />
<polyline points="110.0,175.5,108.0,183.5,116.0,191.0,124.5,199.0,133.0,207.0,140.0,215.0" stroke="black" stroke-width="2" fill="none" />
<polyline points="147.0,209.5,138.5,201.5,130.5,191.5,122.5,184.5,114.5,176.5,107.0,180.5" stroke="black" stroke-width="2" fill="none" />
<polyline points="93.0,190.0,84.5,198.0,81.5,205.5,88.0,213.0,96.5,221.0,104.0,229.0" stroke="black" stroke-width="2" fill="none" />
<polyline points="120.0,161.0,128.0,153.0,136.0,146.0,144.0,138.0,152.0,135.5,159.5,143.5,167.5,152.0,176.0,160.0,184.0,169.0,192.0,176.5" stroke="black" stroke-width="2" fill="none" />
<polyline points="272.5,203.0,272.5,199.0,281.0,190.5,289.0,193.5,297.5,201.5,306.0,208.5,314.0,217.5" stroke="black" stroke-width="2" fill="none" />
<polyline points="336.5,225.5,328.0,218.0,320.5,210.5,312.5,202.5,305.0,195.0,297.0,186.5,301.0,178.5" stroke="black" stroke-width="2" fill="none" />
<polyline points="288.5,144.0,296.5,152.0,304.5,153.0,312.5,146.0,320.5,138.0,328.0,129.0" stroke="black" stroke-width="2" fill="none" />
<polyline points="315.5,116.0,307.5,123.0,300.0,130.0,292.0,137.5" stroke="black" stroke-width="2" fill="none" />
<polyline points="292.0,137.0,299.5,136.0,308.0,136.0,316.5,135.0,324.5,134.5" stroke="black" stroke-width="2" fill="none" />
<polyline points="332.5,127.5,323.5,128.0,315.0,128.5,307.5,128.5,299.0,129.0" stroke="black" stroke-width="2" fill="none" />
<polyline points="298.0,124.5,306.5,124.0,315.0,123.5,323.5,123.5,331.5,123.5" stroke="black" stroke-width="2" fill="none" />
<polyline points="324.0,129.5,316.0,130.0,308.0,130.0,299.5,130.5,291.5,131.0" stroke="black" stroke-width="2" fill="none" />
<polyline points="286.0,138.5,294.0,130.5,302.0,122.5,310.5,114.5,318.5,112.5,326.5,120.0" stroke="black" stroke-width="2" fill="none" />
<polyline points="313.5,112.5,305.5,120.5,298.0,128.5,290.0,136.0,288.0,144.0,295.5,152.0" stroke="black" stroke-width="2" fill="none" />
<polyline points="281.0,114.5,273.5,109.5,265.5,117.0" stroke="black" stroke-width="2" fill="none" />
<polyline points="269.5,110.5,263.5,118.5,268.0,124.5,272.0,132.5,274.5,133.0,282.5,130.0" stroke="black" stroke-width="2" fill="none" />
<polyline points="284.0,127.5,283.5,119.5,275.5,112.0" stroke="black" stroke-width="2" fill="none" />
<polyline points="351.5,128.0,359.5,124.5,367.5,133.5,375.5,141.5,383.5,149.5,391.0,157.5" stroke="black" stroke-width="2" fill="none" />
<polyline points="377.0,121.5,385.0,114.5,393.0,107.0" stroke="black" stroke-width="2" fill="none" />
<polyline points="393.0,110.5,402.5,118.5,410.5,127.0,418.5,135.0,419.0,143.0,411.5,151.0" stroke="black" stroke-width="2" fill="none" />
<polyline points="396.0,109.5,388.0,110.0" stroke="black" stroke-width="2" fill="none" />
<polyline points="378.5,115.5,386.0,115.0,394.0,114.5,402.5,114.5" stroke="black" stroke-width="2" fill="none" />
<polyline points="402.0,119.0,394.0,119.5,386.0,119.5,378.0,120.0" stroke="black" stroke-width="2" fill="none" />
<polyline points="364.0,124.0,356.5,124.0" stroke="black" stroke-width="2" fill="none" />
<polyline points="357.0,124.5,364.0,132.5,373.0,140.5,380.5,148.5,388.5,157.0,399.0,165.0" stroke="black" stroke-width="2" fill="none" />
<polyline points="386.5,164.0,378.0,156.0,369.5,148.0,361.5,140.0,353.0,132.0,355.0,123.5" stroke="black" stroke-width="2" fill="none" />
</svg>