<svg xmlns="http://www.w3.org/2000/svg" version="1.1"><polyline points="4.0,28.5,12.0,28.0,20.5,28.0,28.5,28.0,36.5,27.5,44.5,27.0,52.5,26.5,60.5,26.5,68.5,26.0,76.5,25.0,85.0,24.5,93.0,23.5,100.5,22.5,109.0,22.0,117.0,21.5,125.0,21.0,133.0,20.5,140.5,20.0,148.0,20.0,156.0,20.0,164.5,20.0,172.0,19.0,179.5,18.0,187.0,17.5,194.5,17.0,202.0,16.5,210.0,16.5,218.0,16.0,226.0,16.0,234.5,16.0,242.5,15.5,250.0,15.5,257.5,14.5,265.0,14.0,273.0,13.0,281.0,12.5,289.0,11.5,297.0,11.0,305.5,11.0,313.5,10.5,322.0,10.0,329.5,9.5,338.0,8.5,346.0,7.5,353.5,7.0,361.5,6.5,369.5,5.5,377.5,4.5,385.5,4.0,393.5,3.0,402.0,2.5,410.0,2.5,418.0,2.5,426.0,2.0,434.0,1.5,442.0,1.5,449.5,1.5,457.5,1.5,465.5,1.5,474.0,1.0,482.0,0.5,490.0,0.0,497.5,-1.0,505.5,-2.0,514.0,-3.0" stroke="black" stroke-width="2" fill="none" />
<polyline points="515.0,3.0,507.5,10.5,500.0,18.5,492.5,26.0,484.5,33.5,476.5,41.0,468.5,48.5,460.0,56.0,452.0,63.5,444.5,71.5,436.5,79.0" stroke="black" stroke-width="2" fill="none" />
<polyline points="435.5,71.5,443.5,64.0,451.0,57.0,459.5,50.0,467.0,42.5,475.0,34.5,483.0,27.0,491.0,19.5,499.5,12.0,508.0,4.5" stroke="black" stroke-width="2" fill="none" />
<polyline points="497.5,4.5,489.5,11.5,482.0,19.0,474.5,26.5,467.0,34.5,459.0,42.0,451.0,50.0,442.5,58.0,434.5,65.5" stroke="black" stroke-width="2" fill="none" />
<polyline points="435.0,57.0,442.5,49.5,450.0,42.0,458.0,34.5,466.0,27.0,474.0,19.5,482.5,12.5,490.5,5.0" stroke="black" stroke-width="2" fill="none" />
<polyline points="482.0,3.5,474.0,10.5,466.0,18.0,458.0,26.0,450.0,33.5,442.0,41.0,434.0,48.5,426.5,55.5" stroke="black" stroke-width="2" fill="none" />
<polyline points="419.5,55.5,427.5,48.5,435.0,40.5,443.5,33.5,452.0,26.0,460.0,19.0,468.5,11.5,476.5,3.5" stroke="black" stroke-width="2" fill="none" />
<polyline points="469.5,6.0,461.0,13.5,453.0,20.5,444.5,27.5,436.5,35.0,428.5,42.5,419.5,49.5" stroke="black" stroke-width="2" fill="none" />
<polyline points="419.5,42.5,427.0,34.5,435.0,26.5,443.5,18.5,451.5,11.0,460.0,3.0" stroke="black" stroke-width="2" fill="none" />
<polyline points="449.0,4.0,441.5,11.5,433.5,19.5,425.5,27.0,418.0,34.5,410.0,41.5" stroke="black" stroke-width="2" fill="none" />
<polyline points="403.5,34.5,395.5,42.5,387.5,50.5" stroke="black" stroke-width="2" fill="none" />
<polyline points="387.5,48.5,395.5,47.5" stroke="black" stroke-width="2" fill="none" />
<polyline points="396.5,40.0,388.5,40.5" stroke="black" stroke-width="2" fill="none" />
<polyline points="379.0,36.5,371.0,44.0,363.0,51.0" stroke="black" stroke-width="2" fill="none" />
<polyline points="371.5,51.0,380.0,44.0,388.0,36.5,396.5,28.5,405.0,20.5,413.0,13.0,421.5,5.5" stroke="black" stroke-width="2" fill="none" />
<polyline points="428.0,3.5,420.0,11.0,412.5,18.0,404.5,25.5,396.5,33.0,388.0,40.5,380.5,48.0" stroke="black" stroke-width="2" fill="none" />
<polyline points="386.0,57.0,394.5,49.0,402.5,41.0,410.5,34.0,418.5,27.0,426.5,19.5,435.0,12.5,443.0,5.5" stroke="black" stroke-width="2" fill="none" />
<polyline points="433.0,3.5,425.5,11.0,417.5,19.5,409.5,27.5" stroke="black" stroke-width="2" fill="none" />
<polyline points="419.5,27.5,427.5,27.0,435.5,26.5,444.0,25.5,452.5,24.5,460.5,23.5,469.0,22.5,477.0,22.0,485.0,21.0,493.0,20.0,501.5,19.0,509.0,18.5,516.5,18.0" stroke="black" stroke-width="2" fill="none" />
<polyline points="516.0,21.0,508.0,28.5,500.5,36.5,492.0,44.0,483.5,51.5,476.0,59.5,467.5,66.5,459.5,73.5,451.5,81.0,444.0,88.5,436.0,96.5" stroke="black" stroke-width="2" fill="none" />
<polyline points="436.0,103.5,444.0,95.5,451.5,87.5,459.0,79.5,467.5,72.0,476.0,64.5,484.0,57.5,491.5,50.0,499.5,43.0,508.0,36.0,516.0,28.5" stroke="black" stroke-width="2" fill="none" />
<polyline points="517.0,34.5,509.5,42.0,501.5,49.5,493.0,57.0,485.0,64.5,477.0,72.5,468.0,80.0,460.0,88.0,451.0,95.5,442.5,103.5,433.5,111.0" stroke="black" stroke-width="2" fill="none" />
<polyline points="427.0,107.5,419.0,115.0,411.0,123.0,403.5,130.5,395.5,138.5" stroke="black" stroke-width="2" fill="none" />
<polyline points="389.0,140.0,397.0,139.5,404.5,139.0,412.5,138.5,420.0,138.5,427.5,138.5,435.5,138.0,444.0,138.0,452.5,138.0,461.5,137.5,469.5,137.0,477.5,136.5,485.0,136.0,493.0,135.5,501.5,135.0,509.5,134.0,517.5,134.0" stroke="black" stroke-width="2" fill="none" />
<polyline points="516.5,132.0,508.5,140.0,500.0,147.0,491.5,154.5,483.0,162.5,474.5,170.0,466.5,177.5,458.0,184.5,450.0,192.0,442.0,199.5,434.0,206.5,425.5,214.0" stroke="black" stroke-width="2" fill="none" />
<polyline points="417.5,218.5,426.0,218.0,434.5,217.5,443.0,216.5,451.5,215.5" stroke="black" stroke-width="2" fill="none" />
<polyline points="452.5,225.5,444.5,226.0" stroke="black" stroke-width="2" fill="none" />
<polyline points="460.5,226.0,468.5,225.5,476.0,224.5" stroke="black" stroke-width="2" fill="none" />
<polyline points="476.5,217.0,484.5,216.5,492.5,216.5,500.0,216.0,508.0,215.0,516.5,214.0" stroke="black" stroke-width="2" fill="none" />
<polyline points="514.0,213.0,506.0,220.5,498.5,228.0,491.0,236.0,483.0,243.0,475.5,250.5,468.0,258.0,460.5,265.5,452.5,273.0,444.0,280.0,436.0,288.0,427.5,295.0,420.0,302.5,411.5,310.0,403.5,318.0,394.5,325.5,386.5,333.0" stroke="black" stroke-width="2" fill="none" />
<polyline points="411.5,333.0,418.5,325.5,426.5,317.5,435.0,310.5,442.5,302.5,450.5,294.5,459.0,287.0,467.0,280.0,475.0,272.5,483.0,265.5,491.5,258.5,499.5,251.5,507.0,244.5,515.0,237.0" stroke="black" stroke-width="2" fill="none" />
<polyline points="514.0,245.0,506.0,252.5,498.0,260.5,490.0,268.5,482.5,276.5,474.5,283.5,467.5,290.5,460.0,297.0,452.5,304.0,444.5,311.5,436.5,319.0,428.5,326.0,420.0,334.0" stroke="black" stroke-width="2" fill="none" />
<polyline points="453.0,335.0,461.5,327.5,470.0,320.0,478.5,313.0,486.0,306.0,493.0,298.5,500.5,291.5,508.0,284.5,516.0,277.5" stroke="black" stroke-width="2" fill="none" />
<polyline points="516.0,284.5,508.0,291.5,499.5,299.5,491.5,307.0,484.0,314.0,476.5,321.5,468.5,328.5,460.0,336.0" stroke="black" stroke-width="2" fill="none" />
<polyline points="482.5,338.5,489.5,330.5,497.0,322.5,504.5,314.5,512.5,307.0" stroke="black" stroke-width="2" fill="none" />
<polyline points="515.0,303.5,506.5,304.0" stroke="black" stroke-width="2" fill="none" />
<polyline points="515.0,300.0,507.0,307.5,498.5,314.5,490.5,321.5,483.0,328.5,475.0,335.5" stroke="black" stroke-width="2" fill="none" />
<polyline points="465.5,335.5,474.0,328.5,482.0,321.5,490.0,314.5,498.0,307.0,506.0,299.5,513.5,292.0" stroke="black" stroke-width="2" fill="none" />
<polyline points="515.5,295.0,507.5,296.0,499.0,296.5" stroke="black" stroke-width="2" fill="none" />
<polyline points="501.5,305.0,493.5,305.0" stroke="black" stroke-width="2" fill="none" />
<polyline points="492.0,312.0,499.5,311.5,507.5,311.0,515.5,311.0" stroke="black" stroke-width="2" fill="none" />
<polyline points="514.0,316.0,506.0,323.5,498.0,331.5,490.5,339.0" stroke="black" stroke-width="2" fill="none" />
<polyline points="500.0,341.0,508.0,333.5,516.0,326.0" stroke="black" stroke-width="2" fill="none" />
<polyline points="516.5,328.0,508.5,329.0" stroke="black" stroke-width="2" fill="none" />
<polyline points="508.0,322.0,515.5,321.5" stroke="black" stroke-width="2" fill="none" />
<polyline points="514.5,334.5,506.5,341.5" stroke="black" stroke-width="2" fill="none" />
<polyline points="498.5,328.5,490.5,329.0" stroke="black" stroke-width="2" fill="none" />
<polyline points="485.5,324.0,493.5,323.5,502.0,323.0" stroke="black" stroke-width="2" fill="none" />
<polyline points="492.5,298.0,484.5,298.5" stroke="black" stroke-width="2" fill="none" />
<polyline points="476.0,312.5,468.5,312.5" stroke="black" stroke-width="2" fill="none" />
<polyline points="444.5,335.0,452.5,327.0,460.5,319.0,468.5,312.0,476.5,304.5,484.5,297.5,492.5,290.5,501.0,283.5,509.5,276.5,517.5,269.0" stroke="black" stroke-width="2" fill="none" />
<polyline points="516.5,260.0,508.5,267.5,500.5,274.5,492.0,281.5,484.0,289.0,475.5,296.0,467.0,303.5,458.0,311.0,449.5,318.5,441.5,326.5,433.5,334.0" stroke="black" stroke-width="2" fill="none" />
<polyline points="426.0,334.0,434.0,327.0,442.0,319.5,450.5,312.0,459.0,304.5,467.0,297.0,474.5,289.5,483.0,282.0,491.0,274.5,499.5,267.0,507.5,259.5,516.0,252.0" stroke="black" stroke-width="2" fill="none" />
<polyline points="514.0,273.0,505.5,273.5" stroke="black" stroke-width="2" fill="none" />
<polyline points="498.0,265.5,505.5,265.0,514.0,264.5" stroke="black" stroke-width="2" fill="none" />
<polyline points="516.5,240.0,508.0,240.5,500.5,241.0,492.5,241.5" stroke="black" stroke-width="2" fill="none" />
<polyline points="483.5,227.5,491.5,226.5,499.0,226.5,507.5,226.5,516.0,225.5" stroke="black" stroke-width="2" fill="none" />
<polyline points="515.0,227.0,507.0,234.5,498.0,242.0,489.5,249.0,482.0,256.5,474.0,263.5,466.0,271.0,457.5,278.0,449.0,285.5,441.0,293.5,433.0,301.5,425.0,308.5,417.0,316.5,409.5,324.0,402.0,330.5" stroke="black" stroke-width="2" fill="none" />
<polyline points="395.5,331.0,403.5,323.5,411.5,316.5,420.0,309.5,428.0,302.5,436.0,295.5,444.0,288.0,451.5,280.5,459.0,273.0,466.0,265.5,473.5,258.5,482.0,250.5,490.5,243.0,498.5,235.0,506.5,227.0,514.0,219.0" stroke="black" stroke-width="2" fill="none" />
<polyline points="515.0,204.5,507.0,212.5,499.5,220.0,492.0,228.0,484.0,235.5,476.0,243.5,468.5,250.5,461.0,258.0,453.0,265.5,445.5,272.5,437.5,279.5,429.5,287.0" stroke="black" stroke-width="2" fill="none" />
<polyline points="428.5,278.5,436.5,270.5,445.0,263.5,453.0,256.0,461.5,249.0,469.5,241.5,477.0,234.5,485.0,227.0,493.0,219.5,501.0,211.5,508.5,203.5,516.5,195.5" stroke="black" stroke-width="2" fill="none" />
<polyline points="516.0,187.5,508.0,195.0,500.0,203.0,491.5,210.5,483.5,218.0,475.5,225.0,467.5,232.5,460.0,240.0,453.0,247.5,446.0,255.0,438.0,262.5,429.5,270.0" stroke="black" stroke-width="2" fill="none" />
<polyline points="412.5,276.5,421.0,269.5,429.5,262.5,438.0,254.5,445.5,247.5,452.5,240.0,460.0,232.5,467.0,224.5,474.5,217.0,482.5,209.5,490.5,202.5,498.0,195.0,505.5,188.0,513.5,180.0" stroke="black" stroke-width="2" fill="none" />
<polyline points="514.0,173.5,506.0,181.0,498.0,188.0,491.0,195.5,483.5,202.5,476.0,209.5,468.5,217.0,460.5,224.0,452.5,231.0,444.5,238.0,437.0,245.0,429.0,252.5,420.5,260.5,412.0,268.0,403.0,276.0" stroke="black" stroke-width="2" fill="none" />
<polyline points="394.0,276.5,402.0,268.0,410.0,260.5,418.0,253.0,426.5,245.5,434.5,237.5,442.5,230.5,450.5,223.0,458.5,216.0,466.0,208.5,474.0,201.5,482.0,194.5,491.0,187.5,499.0,180.0,507.0,172.5,515.5,165.5" stroke="black" stroke-width="2" fill="none" />
<polyline points="515.0,155.0,507.0,162.5,498.5,170.0,490.5,177.5,483.5,185.5,475.5,193.0,467.5,200.0,459.0,207.5,451.0,215.0,443.5,222.5,436.0,230.0,427.5,237.5,419.5,245.5,411.5,253.5,403.5,260.5,395.5,268.0" stroke="black" stroke-width="2" fill="none" />
<polyline points="395.0,258.5,403.0,251.0,411.0,244.0,419.0,236.5,427.5,228.5,436.0,221.5,443.5,213.5,451.0,206.0,458.5,198.5,466.5,191.5,474.5,184.5,482.5,177.0,490.5,169.0,498.5,161.5,507.0,154.5,515.5,147.0" stroke="black" stroke-width="2" fill="none" />
<polyline points="515.5,140.5,508.0,147.5,500.0,155.0,492.0,162.5,484.0,170.0,476.0,177.5,467.5,185.0,459.0,192.5,450.5,199.5,442.0,206.5,434.5,214.0,426.5,221.5,418.5,229.0,411.0,237.0,403.0,245.0,395.0,253.0,387.5,260.5" stroke="black" stroke-width="2" fill="none" />
<polyline points="395.5,258.0,403.5,258.0,410.5,257.0,418.5,256.0" stroke="black" stroke-width="2" fill="none" />
<polyline points="420.0,248.5,412.0,249.0,404.0,249.5,396.0,250.0" stroke="black" stroke-width="2" fill="none" />
<polyline points="395.5,242.5,403.5,242.5,411.5,242.0,419.0,241.0" stroke="black" stroke-width="2" fill="none" />
<polyline points="420.5,225.5,412.5,233.5,403.5,241.0,395.0,248.5,386.0,256.0,377.5,263.5" stroke="black" stroke-width="2" fill="none" />
<polyline points="380.5,271.5,388.5,270.5,397.0,269.0,405.0,268.0,413.0,267.5,421.0,267.0,429.0,266.5,436.5,266.5,444.0,266.5,451.5,266.5,459.5,266.5,467.5,266.0,475.5,265.5,484.0,264.5,492.5,263.5,500.5,262.5,509.0,261.5,517.0,261.0" stroke="black" stroke-width="2" fill="none" />
<polyline points="514.5,255.5,506.0,255.5,498.5,255.0,491.0,255.0,483.0,255.5,474.5,255.5,466.0,256.0" stroke="black" stroke-width="2" fill="none" />
<polyline points="460.5,263.0,452.5,264.0" stroke="black" stroke-width="2" fill="none" />
<polyline points="453.5,247.5,461.5,247.5,469.5,247.0,477.5,247.0,485.0,246.5,492.5,246.5,500.5,246.0,509.0,245.5,517.0,245.0" stroke="black" stroke-width="2" fill="none" />
<polyline points="517.5,206.5,509.5,207.0,502.0,207.5,493.5,208.0,485.0,208.5,477.0,209.5" stroke="black" stroke-width="2" fill="none" />
<polyline points="477.5,200.0,485.0,199.5,492.5,199.0,500.0,198.5,508.0,199.0,516.5,198.5" stroke="black" stroke-width="2" fill="none" />
<polyline points="514.5,184.0,506.5,184.5" stroke="black" stroke-width="2" fill="none" />
<polyline points="492.0,179.0,484.0,179.5" stroke="black" stroke-width="2" fill="none" />
<polyline points="491.5,185.0,484.0,185.5,476.0,185.5" stroke="black" stroke-width="2" fill="none" />
<polyline points="476.5,191.5,484.0,191.0,492.5,191.0,500.5,190.5,508.5,190.0,516.0,190.0" stroke="black" stroke-width="2" fill="none" />
<polyline points="468.0,161.0,476.5,153.5,484.5,146.5,492.5,139.5,501.5,132.0,510.0,124.5,518.0,116.5" stroke="black" stroke-width="2" fill="none" />
<polyline points="516.0,109.5,508.0,117.0,500.5,124.5,492.5,132.0,484.5,139.5,476.0,147.0,468.5,154.0,460.5,161.0" stroke="black" stroke-width="2" fill="none" />
<polyline points="462.0,160.0,454.0,160.5" stroke="black" stroke-width="2" fill="none" />
<polyline points="453.0,152.5,461.0,152.0,468.5,151.5,476.5,151.0,484.0,150.5,492.0,150.0,499.5,149.5,507.5,149.0,515.5,148.5" stroke="black" stroke-width="2" fill="none" />
<polyline points="516.5,125.5,508.5,133.0,500.5,139.5,492.0,146.5,484.0,153.5,476.0,161.0,467.5,169.0,459.0,176.0,451.0,183.5,442.5,191.0,434.5,198.5,426.5,206.5,418.5,214.0,410.0,221.5,401.5,229.0,393.5,236.5,385.5,243.5,378.0,251.0,370.0,258.5" stroke="black" stroke-width="2" fill="none" />
<polyline points="371.0,251.5,363.0,258.5,355.0,266.0" stroke="black" stroke-width="2" fill="none" />
<polyline points="363.5,265.0,372.0,257.5,380.0,250.5,388.0,243.0" stroke="black" stroke-width="2" fill="none" />
<polyline points="387.0,238.5,395.0,237.5,403.0,237.5,411.5,237.0,419.5,236.0,428.5,235.0,436.5,235.0,445.0,235.0,453.0,234.5,461.0,233.5,468.5,232.5,476.5,232.0,484.5,232.0,492.5,232.0,500.0,231.0,508.0,230.5,515.5,229.5" stroke="black" stroke-width="2" fill="none" />
<polyline points="513.5,231.5,505.5,231.5,497.5,232.0,490.0,233.0,482.0,233.5,474.0,233.5,466.0,234.0" stroke="black" stroke-width="2" fill="none" />
<polyline points="461.5,241.5,469.5,241.0,477.5,240.5,485.5,240.0" stroke="black" stroke-width="2" fill="none" />
<polyline points="461.0,172.5,453.0,180.0,445.0,187.0,437.0,194.0,428.5,201.5,420.0,209.0,412.0,217.0,404.0,224.5" stroke="black" stroke-width="2" fill="none" />
<polyline points="404.0,230.5,412.0,230.0,420.5,229.5,429.0,229.0,437.0,227.5,445.0,227.0,452.5,226.0,461.0,225.5,469.0,225.0,477.5,224.5,485.5,224.5,493.5,224.0,501.5,223.5,509.5,223.0,517.0,222.0" stroke="black" stroke-width="2" fill="none" />
<polyline points="450.5,172.0,443.0,179.0,435.5,186.5,428.0,194.0,419.5,202.0,412.0,209.5,404.0,217.0" stroke="black" stroke-width="2" fill="none" />
<polyline points="395.5,215.5,403.5,215.0,410.5,214.5,418.5,213.5,426.5,212.5,434.5,212.0,442.5,211.5,451.0,210.5,459.0,210.0,467.0,209.0,475.0,208.0,483.0,207.5,491.0,207.0,499.5,206.5,508.5,206.0,516.5,205.5" stroke="black" stroke-width="2" fill="none" />
<polyline points="514.5,141.5,506.0,143.0,498.0,143.5,490.0,144.5,482.0,145.5,474.0,146.0,466.5,147.0" stroke="black" stroke-width="2" fill="none" />
<polyline points="467.5,137.0,475.0,136.5,482.5,135.5,490.5,134.5,499.0,134.0,507.0,133.0,515.0,132.5" stroke="black" stroke-width="2" fill="none" />
<polyline points="515.0,101.0,506.5,108.5,499.0,116.0,491.0,123.0,483.5,130.5,475.5,138.0,467.5,145.5,458.5,153.0,450.5,160.0,442.5,167.5,434.5,175.0,426.5,182.0,418.5,189.5,410.0,197.0,401.5,205.0,393.5,213.0" stroke="black" stroke-width="2" fill="none" />
<polyline points="388.0,209.5,396.5,209.0,404.5,208.5,413.0,208.0,420.5,208.5,428.0,208.0,436.0,207.5,444.5,207.0,452.5,206.5" stroke="black" stroke-width="2" fill="none" />
<polyline points="444.0,178.0,435.5,178.5" stroke="black" stroke-width="2" fill="none" />
<polyline points="426.0,155.5,418.0,163.0,410.0,170.5,402.0,178.5,394.0,186.5,386.0,194.5,378.0,202.0" stroke="black" stroke-width="2" fill="none" />
<polyline points="380.0,203.0,388.5,202.5,396.0,201.5,404.0,200.5,412.0,199.5,419.5,199.0,427.5,198.5,435.5,198.0,443.0,197.0,451.0,196.0" stroke="black" stroke-width="2" fill="none" />
<polyline points="451.0,147.0,459.0,146.5" stroke="black" stroke-width="2" fill="none" />
<polyline points="459.0,136.5,451.0,137.0" stroke="black" stroke-width="2" fill="none" />
<polyline points="461.5,130.0,469.5,130.0,477.5,129.5,485.5,129.5,493.0,129.5,500.5,128.5,508.5,128.5,516.0,128.0" stroke="black" stroke-width="2" fill="none" />
<polyline points="515.0,91.0,507.5,99.0,500.0,106.5,491.5,114.0,483.0,121.5,474.5,129.0,466.5,137.0,458.5,145.0,450.0,153.0,441.5,160.5,433.0,168.5,425.5,175.5,418.5,183.0,411.0,190.5,403.0,198.0,395.0,205.5" stroke="black" stroke-width="2" fill="none" />
<polyline points="389.0,206.0,397.0,205.5,405.0,205.0,413.0,205.0,421.0,204.5,428.5,204.0,436.5,204.0,445.0,204.0,453.5,203.0,461.5,202.5,469.5,202.0,477.5,201.0,485.5,200.5,494.0,200.0,502.5,199.5,510.5,199.0,518.5,198.5" stroke="black" stroke-width="2" fill="none" />
<polyline points="516.0,118.0,508.0,119.0,500.0,119.5,492.0,120.0,484.0,120.5,476.0,121.0,468.0,121.5,459.5,122.0" stroke="black" stroke-width="2" fill="none" />
<polyline points="458.5,112.0,466.5,112.0,474.5,112.0,482.5,112.5,491.5,112.5,499.5,112.5,508.0,112.0,516.0,112.5" stroke="black" stroke-width="2" fill="none" />
<polyline points="516.0,83.5,507.5,90.5,499.0,98.5,491.0,106.5,482.0,114.0,474.0,121.5,466.0,129.5,458.0,137.0,450.0,145.0,441.5,152.0,433.5,159.5,425.5,167.0,418.0,174.5,409.5,181.5,401.5,188.5,393.0,196.0,385.0,203.0" stroke="black" stroke-width="2" fill="none" />
<polyline points="387.5,196.0,395.5,189.0,403.0,182.0,411.0,175.0,419.0,168.0,426.5,160.5,434.5,153.5,443.0,145.5,451.0,137.5,459.0,129.5,466.5,121.5,474.5,113.5,482.5,105.5,491.0,97.5,499.5,89.5,507.5,81.5,515.5,74.0" stroke="black" stroke-width="2" fill="none" />
<polyline points="515.0,67.5,507.0,74.5,499.0,81.5,491.5,89.0,484.0,96.5,475.5,104.5,468.0,112.5,460.0,121.5,452.0,129.5,444.0,137.5,436.0,145.0" stroke="black" stroke-width="2" fill="none" />
<polyline points="426.5,148.5,418.5,155.5,411.0,162.5" stroke="black" stroke-width="2" fill="none" />
<polyline points="411.5,160.5,420.0,159.5" stroke="black" stroke-width="2" fill="none" />
<polyline points="420.5,152.0,412.5,153.0,404.5,154.0" stroke="black" stroke-width="2" fill="none" />
<polyline points="403.5,161.0,411.0,153.5,419.0,146.0,427.0,139.0" stroke="black" stroke-width="2" fill="none" />
<polyline points="428.5,129.5,420.0,137.0,411.5,145.0,403.5,152.5" stroke="black" stroke-width="2" fill="none" />
<polyline points="397.5,154.0,404.0,146.5,411.5,138.5,419.0,131.0,427.0,123.5" stroke="black" stroke-width="2" fill="none" />
<polyline points="432.5,126.0,440.5,118.0,449.0,110.5,457.0,103.0,465.0,95.5,473.0,88.0,481.0,80.5,489.0,72.0,497.5,64.5,505.5,57.5,513.5,50.0" stroke="black" stroke-width="2" fill="none" />
<polyline points="515.0,58.5,507.5,65.5,499.5,73.5,492.0,81.0,483.5,88.5,475.0,96.0,467.0,104.0,459.0,112.0,450.5,119.5,442.0,127.5" stroke="black" stroke-width="2" fill="none" />
<polyline points="435.0,119.0,443.0,111.0,450.5,103.5,458.0,96.0,466.0,88.5,474.5,80.5,482.5,73.0,491.0,65.0,499.0,57.0,507.5,49.0,515.5,41.0" stroke="black" stroke-width="2" fill="none" />
<polyline points="516.0,11.5,508.0,19.0,499.5,27.0,491.5,35.0,484.0,43.0,476.0,51.0,468.5,58.0,460.5,65.5,453.0,73.0,445.5,80.5,437.5,88.0" stroke="black" stroke-width="2" fill="none" />
<polyline points="429.5,82.0,421.0,90.0,413.0,98.0,405.0,106.0,396.5,113.5" stroke="black" stroke-width="2" fill="none" />
<polyline points="395.5,120.5,403.5,113.0,411.0,106.0,418.5,99.0,426.5,91.5" stroke="black" stroke-width="2" fill="none" />
<polyline points="426.5,98.0,418.5,105.0,410.5,112.5,402.5,120.0,394.5,128.5" stroke="black" stroke-width="2" fill="none" />
<polyline points="387.5,132.0,396.0,131.5,404.5,131.5,412.5,131.0,420.0,131.0,428.0,131.0,436.0,130.5,444.0,130.0,452.0,130.0,460.0,129.5,468.5,129.0,476.5,128.5,485.0,127.5,493.0,127.0,500.5,127.0,508.5,127.0,517.0,126.5" stroke="black" stroke-width="2" fill="none" />
<polyline points="516.0,63.5,508.0,63.5,499.5,64.0,491.5,64.0,484.0,63.5,476.0,63.5,468.5,64.0,460.0,64.5" stroke="black" stroke-width="2" fill="none" />
<polyline points="453.5,75.0,461.5,74.0,469.5,73.5,478.0,73.0,486.5,72.5,494.5,72.0,502.5,71.5,510.5,70.5,518.5,70.0" stroke="black" stroke-width="2" fill="none" />
<polyline points="516.0,100.0,508.0,100.5,499.5,101.0,491.0,101.5,483.0,102.0,475.0,102.0,467.0,102.0,459.0,103.0,451.0,103.5" stroke="black" stroke-width="2" fill="none" />
<polyline points="451.0,97.5,459.0,96.5,467.0,96.5,475.5,96.0,483.5,95.5,491.5,95.0,499.5,94.5,507.0,94.0,514.5,93.5" stroke="black" stroke-width="2" fill="none" />
<polyline points="515.0,85.0,507.0,86.0,499.5,86.5,492.0,87.5,484.0,88.0,476.5,89.0,468.5,89.0,460.5,89.0,452.5,89.5" stroke="black" stroke-width="2" fill="none" />
<polyline points="452.0,82.5,460.5,81.5,468.5,81.0,476.5,80.0,484.5,79.5,492.5,78.5,500.5,78.0,508.0,77.0,515.5,76.0" stroke="black" stroke-width="2" fill="none" />
<polyline points="518.0,55.5,510.0,55.0,502.0,55.0,493.5,55.0,485.5,55.0,477.5,56.0,469.0,56.5,461.0,57.0,453.5,57.5,445.5,58.0" stroke="black" stroke-width="2" fill="none" />
<polyline points="444.5,50.0,452.5,49.5,461.0,48.5,469.0,48.0,476.5,48.0,484.5,48.0,493.0,47.5,501.0,47.0,509.0,46.5,516.5,46.5" stroke="black" stroke-width="2" fill="none" />
<polyline points="516.0,38.5,507.5,39.0,500.0,39.0,492.0,38.5,484.5,39.0,476.5,40.0,468.5,41.0,461.0,42.0,453.0,42.5,445.0,43.5" stroke="black" stroke-width="2" fill="none" />
<polyline points="426.5,34.0,434.0,33.5,442.0,32.5,450.0,32.0,458.5,31.5,467.0,31.5,475.5,31.0,484.0,30.0,492.5,29.5,500.0,28.5,508.5,28.0,516.5,27.5" stroke="black" stroke-width="2" fill="none" />
<polyline points="516.5,10.0,508.0,10.0,500.5,10.5,492.5,11.0,484.5,11.5,476.5,12.0,468.5,13.0,461.0,13.5,452.5,14.0,444.0,14.5,435.5,15.5,427.0,15.5,419.0,16.5" stroke="black" stroke-width="2" fill="none" />
<polyline points="412.5,10.0,420.5,9.5,428.5,9.0,436.5,8.0,444.0,7.5,451.5,7.0,459.5,6.0,467.5,5.5,475.0,5.0,483.0,4.5,491.5,4.0,499.0,3.5,506.5,2.5,514.5,1.5" stroke="black" stroke-width="2" fill="none" />
<polyline points="410.5,2.0,403.0,9.5,395.0,17.0,387.0,25.0" stroke="black" stroke-width="2" fill="none" />
<polyline points="389.5,21.5,397.0,21.0,405.0,20.5,412.5,20.5,420.5,20.0,428.0,19.5,435.5,19.5,442.5,19.5,450.0,18.5,457.5,18.0,465.5,17.5,474.0,17.0,482.5,16.5,491.0,15.5,499.5,14.5,508.0,14.0,516.5,13.5" stroke="black" stroke-width="2" fill="none" />
<polyline points="412.5,51.0,404.0,58.0,395.5,65.5" stroke="black" stroke-width="2" fill="none" />
<polyline points="404.5,76.0,412.5,68.0" stroke="black" stroke-width="2" fill="none" />
<polyline points="420.0,68.0,412.0,75.5,403.5,83.5,395.5,90.5" stroke="black" stroke-width="2" fill="none" />
<polyline points="394.5,97.5,402.5,90.5,410.5,83.0,418.0,75.5" stroke="black" stroke-width="2" fill="none" />
<polyline points="421.5,80.5,414.0,80.5" stroke="black" stroke-width="2" fill="none" />
<polyline points="418.5,82.5,410.5,90.0,403.0,97.5,396.0,105.5" stroke="black" stroke-width="2" fill="none" />
<polyline points="403.5,111.5,411.0,111.0,419.5,110.5" stroke="black" stroke-width="2" fill="none" />
<polyline points="427.5,116.5,419.5,124.0,411.5,131.0,403.5,138.0,396.0,145.5" stroke="black" stroke-width="2" fill="none" />
<polyline points="403.0,145.0,411.5,144.5,420.0,144.5" stroke="black" stroke-width="2" fill="none" />
<polyline points="420.0,136.0,412.0,136.5,404.5,137.5" stroke="black" stroke-width="2" fill="none" />
<polyline points="405.5,128.5,413.0,128.0,420.5,128.0" stroke="black" stroke-width="2" fill="none" />
<polyline points="419.5,119.5,411.5,119.5,403.5,120.0" stroke="black" stroke-width="2" fill="none" />
<polyline points="410.0,105.5,418.0,105.0" stroke="black" stroke-width="2" fill="none" />
<polyline points="417.0,97.0,408.5,97.5" stroke="black" stroke-width="2" fill="none" />
<polyline points="411.0,89.0,419.0,88.5" stroke="black" stroke-width="2" fill="none" />
<polyline points="405.0,66.5,413.0,59.0" stroke="black" stroke-width="2" fill="none" />
<polyline points="406.0,52.0,398.0,59.5" stroke="black" stroke-width="2" fill="none" />
<polyline points="379.0,76.0,387.0,76.0,394.5,76.0,403.0,75.5,411.0,75.0,420.0,75.0,428.0,74.0,436.5,74.0,445.0,73.5,453.0,72.5,462.0,71.5,469.5,71.5,478.0,71.5,485.5,71.0,492.5,70.5,500.0,69.5,507.5,69.5,515.0,69.5" stroke="black" stroke-width="2" fill="none" />
<polyline points="403.5,1.5,395.5,8.5,388.0,17.0" stroke="black" stroke-width="2" fill="none" />
<polyline points="386.5,11.0,394.5,3.0" stroke="black" stroke-width="2" fill="none" />
<polyline points="380.5,6.0,388.0,5.0,395.5,5.0,403.5,4.5,412.0,3.5,420.0,3.5,428.5,3.0,436.0,3.0,444.0,2.5,452.0,2.0,460.0,1.5,468.0,1.0,476.5,0.5,485.0,0.0,493.0,-1.5,501.0,-2.0,508.5,-3.0,517.0,-3.5" stroke="black" stroke-width="2" fill="none" />
<polyline points="516.0,117.5,508.5,118.0,500.5,119.0,492.5,120.0,485.0,121.0,477.0,121.5,469.0,122.5,461.0,122.5,453.0,122.5,444.5,122.0,436.0,122.0,428.0,122.0,419.5,122.0,410.5,122.5,402.0,122.5,393.0,123.5,385.0,124.0" stroke="black" stroke-width="2" fill="none" />
<polyline points="379.5,119.5,387.5,119.0,395.5,118.0,403.5,116.5,412.0,115.0,420.0,113.5,428.0,113.0,435.5,112.5,443.5,112.0,452.0,111.5,459.5,111.5,468.0,110.5,476.5,110.5,484.5,110.0,492.0,109.0,499.5,108.5,508.0,108.5,516.0,108.0" stroke="black" stroke-width="2" fill="none" />
<polyline points="405.0,172.0,397.0,179.0,388.5,187.0,380.0,194.5" stroke="black" stroke-width="2" fill="none" />
<polyline points="371.5,194.5,379.5,187.5,387.5,181.0,395.5,173.5" stroke="black" stroke-width="2" fill="none" />
<polyline points="388.0,171.0,380.0,178.0,372.0,186.0,364.0,193.5" stroke="black" stroke-width="2" fill="none" />
<polyline points="363.0,191.5,371.0,191.0,379.5,190.5,387.5,190.5,396.0,190.5,404.5,190.5,412.0,189.5,419.5,189.0,427.5,188.0,435.0,187.5,443.5,187.0,451.5,186.5" stroke="black" stroke-width="2" fill="none" />
<polyline points="394.0,158.5,402.0,157.5,410.0,157.0,418.0,156.0,425.5,155.0,433.5,154.0,442.5,153.5,450.5,152.5,459.0,152.0,467.0,151.0,475.0,150.5,483.0,150.0,491.0,149.0,499.0,149.0,507.0,149.0,515.0,148.5" stroke="black" stroke-width="2" fill="none" />
<polyline points="515.0,215.0,507.5,216.0,499.5,216.0,491.0,216.5,483.0,217.5,475.0,218.0,467.0,218.5,459.5,219.5,451.5,220.0,443.5,220.5,435.5,221.0,428.0,221.0,420.0,221.0,412.0,221.5,404.5,221.5,396.5,221.5" stroke="black" stroke-width="2" fill="none" />
<polyline points="381.5,218.5,373.5,218.5,365.5,219.0" stroke="black" stroke-width="2" fill="none" />
<polyline points="371.5,198.5,379.5,197.5,388.0,197.0,396.0,197.0,404.0,196.5,412.0,195.5,420.0,194.5,428.0,193.5,436.0,192.5,443.5,192.5,451.0,192.0,459.5,191.5,468.0,191.5,476.5,191.0,485.5,190.5,494.0,191.0,501.5,190.5,509.5,190.0,517.5,189.5" stroke="black" stroke-width="2" fill="none" />
<polyline points="515.5,269.5,507.5,270.0,499.5,270.5,491.5,271.0,483.0,271.5,475.0,271.5,467.0,272.5,459.0,273.0,451.0,273.0,443.0,273.5,435.0,274.0,427.0,274.5,419.0,275.5,411.0,277.0,402.5,278.0,394.0,278.5,386.0,279.0" stroke="black" stroke-width="2" fill="none" />
<polyline points="396.0,292.0,388.0,299.5,380.0,307.5" stroke="black" stroke-width="2" fill="none" />
<polyline points="388.0,314.0,396.0,306.5" stroke="black" stroke-width="2" fill="none" />
<polyline points="390.0,307.0,398.0,299.5" stroke="black" stroke-width="2" fill="none" />
<polyline points="396.0,320.5,404.0,313.0,412.0,305.5,420.0,297.5" stroke="black" stroke-width="2" fill="none" />
<polyline points="419.5,289.0,411.5,297.0" stroke="black" stroke-width="2" fill="none" />
<polyline points="371.5,245.0,379.5,244.5,387.0,244.0,395.0,244.0,403.5,243.5,411.5,243.0,420.0,242.0,428.0,241.5,436.5,241.5,445.0,241.0,452.5,241.0,460.5,240.0,468.5,239.0,476.5,238.5,484.0,238.0,492.5,237.5,500.0,237.0,508.5,237.0,516.5,236.5" stroke="black" stroke-width="2" fill="none" />
<polyline points="378.5,172.0,370.5,179.5,363.5,186.5,355.5,194.0" stroke="black" stroke-width="2" fill="none" />
<polyline points="355.0,189.0,363.0,181.5,371.5,174.0" stroke="black" stroke-width="2" fill="none" />
<polyline points="363.5,172.0,355.5,179.5,347.5,186.5" stroke="black" stroke-width="2" fill="none" />
<polyline points="354.0,189.0,362.0,188.5,370.5,188.5,378.5,188.0,387.0,188.5,395.5,188.0,403.5,187.0,411.5,186.5,419.5,186.0,427.5,185.5,435.5,185.0,443.5,185.0,450.5,184.0,458.5,183.0,467.0,182.0,475.0,181.5,483.5,180.5,492.0,180.0,500.5,179.0,509.5,178.0,517.5,177.5" stroke="black" stroke-width="2" fill="none" />
<polyline points="517.0,142.0,509.0,142.5,500.5,143.5,492.5,143.5,485.0,144.0,476.5,144.5,468.5,145.0,460.5,145.0,452.5,145.5,445.0,146.0,437.0,147.0,429.0,147.5,421.5,147.5,413.0,147.5,405.0,147.5,396.5,148.0,388.5,148.5" stroke="black" stroke-width="2" fill="none" />
<polyline points="380.0,110.5,388.0,110.0,395.5,109.5,403.5,109.0,411.5,108.5,420.0,107.5,427.5,107.0,434.5,106.5,442.0,106.0,450.0,105.0,458.0,104.5,466.0,104.0,474.5,103.5,482.5,102.5,490.5,101.5,499.0,100.5,506.5,100.0,514.5,100.0" stroke="black" stroke-width="2" fill="none" />
<polyline points="513.5,91.5,505.0,92.5,497.0,93.5,489.5,94.5,481.0,95.0,473.0,96.0,465.0,96.0,456.5,96.5,449.0,97.0,441.5,97.5,434.0,98.0,426.5,98.5,419.0,98.5,411.5,99.5,403.5,100.0,396.0,101.0,388.0,101.5,380.0,102.0" stroke="black" stroke-width="2" fill="none" />
<polyline points="379.0,93.0,387.0,93.0,395.5,92.5,403.5,92.5,411.0,92.0,419.0,91.5,427.0,91.5,435.5,90.5,443.5,90.0,451.5,89.0,459.0,88.0,467.0,87.5,474.5,87.5,482.0,87.0,490.5,87.0,498.0,86.0,506.0,85.5,513.5,85.0" stroke="black" stroke-width="2" fill="none" />
<polyline points="515.5,4.5,507.5,5.0,499.5,6.0,492.0,6.5,484.5,7.0,476.5,8.0,468.5,8.5,460.5,9.0,453.0,9.5,445.0,9.5,437.0,9.5,428.5,10.0,420.0,10.5,411.5,11.0,403.5,11.5,395.0,11.5,386.5,12.0,378.5,12.0" stroke="black" stroke-width="2" fill="none" />
<polyline points="372.0,11.0,364.0,19.0,355.5,26.0" stroke="black" stroke-width="2" fill="none" />
<polyline points="370.0,26.5,362.0,34.5,354.5,42.0" stroke="black" stroke-width="2" fill="none" />
<polyline points="355.5,50.0,363.0,43.0,371.0,36.5,379.0,29.0" stroke="black" stroke-width="2" fill="none" />
<polyline points="370.5,19.0,362.5,26.5,354.5,34.5" stroke="black" stroke-width="2" fill="none" />
<polyline points="348.0,25.5,356.0,18.0,364.0,10.5,371.5,3.0" stroke="black" stroke-width="2" fill="none" />
<polyline points="364.0,5.0,355.5,12.0,347.5,19.0" stroke="black" stroke-width="2" fill="none" />
<polyline points="338.5,18.0,346.5,10.5,354.5,3.0" stroke="black" stroke-width="2" fill="none" />
<polyline points="346.5,3.0,338.5,10.5" stroke="black" stroke-width="2" fill="none" />
<polyline points="317.5,20.0,325.0,19.5,332.5,19.5,340.0,19.0,348.0,18.0,355.5,18.0,363.0,17.5,371.0,17.0" stroke="black" stroke-width="2" fill="none" />
<polyline points="338.5,45.5,346.0,45.0,354.0,44.5,362.5,44.5,370.5,44.0,378.5,43.5,386.5,43.5,394.5,43.5,402.5,43.0,410.0,42.5,418.0,42.0,426.0,41.5,434.5,41.0,443.0,40.0,451.0,38.5,459.0,37.5,467.0,37.0,475.0,36.5,483.0,36.0,491.0,36.0,499.0,35.5,507.0,34.5,515.0,34.5" stroke="black" stroke-width="2" fill="none" />
<polyline points="516.0,76.5,508.0,77.0,500.0,77.5,492.0,78.0,483.5,78.0,476.0,78.5,468.0,79.0,460.0,79.5,452.5,80.5,444.5,80.5,437.5,81.0,429.5,81.5,421.0,82.0,412.5,82.5,405.0,83.0,397.0,83.5,388.5,84.5,381.0,85.5,373.0,86.5" stroke="black" stroke-width="2" fill="none" />
<polyline points="370.5,76.5,362.5,76.5" stroke="black" stroke-width="2" fill="none" />
<polyline points="355.0,71.0,363.0,70.5,371.0,70.5,379.5,70.0,387.0,69.5,395.0,69.0,403.5,68.5,412.0,67.0,420.0,66.5,428.0,65.5,436.0,65.0,444.0,64.5,452.0,64.0,460.0,63.5,468.0,63.0,476.5,62.5,485.0,61.5,493.0,61.0,501.5,60.0,510.0,59.0,518.0,58.5" stroke="black" stroke-width="2" fill="none" />
<polyline points="517.0,50.5,508.5,51.0,500.0,51.5,491.5,52.5,483.0,53.0,475.0,53.5,467.0,54.5,459.0,56.0,451.5,57.0,443.5,57.5,435.5,57.5,427.5,58.0,419.5,58.5,412.0,59.5,403.5,60.0,395.5,60.5,387.0,60.5,379.0,61.0,370.5,61.0,361.5,61.0,353.0,61.5" stroke="black" stroke-width="2" fill="none" />
<polyline points="347.5,54.0,355.0,53.5,363.5,53.5,371.5,53.5,379.0,52.5,387.0,52.5,395.5,52.0,403.0,52.0,411.0,51.5,419.5,51.0,427.5,50.5,435.5,50.0,442.5,49.5,450.5,48.5,458.5,47.5,466.5,47.0,474.5,46.5,483.0,45.5,491.0,45.0,499.0,44.0,507.0,43.0,515.0,42.5" stroke="black" stroke-width="2" fill="none" />
<polyline points="452.5,179.0,445.0,179.5,437.0,180.0,429.0,180.0,421.0,180.5,413.0,181.0,405.0,181.5,396.5,182.5,389.0,183.0,381.5,183.0,373.5,183.5,365.0,183.5,357.0,183.0,349.0,182.5,341.0,183.0,333.5,183.5" stroke="black" stroke-width="2" fill="none" />
<polyline points="338.0,185.5,346.5,178.0,355.0,171.0" stroke="black" stroke-width="2" fill="none" />
<polyline points="347.5,171.5,339.0,178.5,330.5,186.5" stroke="black" stroke-width="2" fill="none" />
<polyline points="324.0,186.5,332.0,179.5,339.5,172.0" stroke="black" stroke-width="2" fill="none" />
<polyline points="330.5,171.0,322.5,178.5" stroke="black" stroke-width="2" fill="none" />
<polyline points="324.0,182.5,332.0,181.5,340.0,180.5,347.0,179.5,354.0,178.0,362.0,177.0,370.0,176.5,378.5,175.5,387.0,175.5,395.5,175.5,403.5,175.5,411.5,174.5,419.0,174.0,427.0,173.5,434.5,173.0,443.0,173.0,451.0,173.0,459.0,173.0,467.5,173.0,475.5,173.0,483.5,172.5,492.0,172.0,500.0,171.5,508.5,170.5,516.5,170.0" stroke="black" stroke-width="2" fill="none" />
<polyline points="364.0,250.5,356.0,258.0,348.0,266.0" stroke="black" stroke-width="2" fill="none" />
<polyline points="340.0,267.0,347.5,259.5,356.0,252.0" stroke="black" stroke-width="2" fill="none" />
<polyline points="345.5,251.5,338.0,259.0" stroke="black" stroke-width="2" fill="none" />
<polyline points="333.5,255.0,341.5,254.5,348.5,254.5,356.0,254.0,363.5,254.0,371.0,254.0,379.0,254.0" stroke="black" stroke-width="2" fill="none" />
<polyline points="339.5,252.0,331.5,259.5" stroke="black" stroke-width="2" fill="none" />
<polyline points="324.0,261.5,332.0,261.0,340.0,260.0,348.0,259.5,356.5,258.5,365.0,258.0,372.5,257.0,380.5,256.5,388.5,256.5,396.5,256.0,404.5,255.5,412.5,255.0,421.0,254.5,429.0,254.5,437.5,254.5,445.0,254.5,453.0,254.0,461.0,253.0,468.5,252.5,476.5,252.0,484.5,252.0,492.5,251.5,501.0,251.0,508.5,250.5,516.5,250.5" stroke="black" stroke-width="2" fill="none" />
<polyline points="515.0,276.5,507.0,277.0,499.0,277.5,491.5,278.5,483.5,279.0,475.5,279.5,467.5,280.0,460.0,280.0,452.0,280.0,444.0,280.5,436.5,280.5,428.5,280.5,420.5,281.5,412.5,282.5,404.0,283.5,396.0,284.0,387.0,284.0,378.5,283.5,370.0,284.0,361.5,283.5,354.0,283.5,346.0,284.0" stroke="black" stroke-width="2" fill="none" />
<polyline points="333.0,292.0,341.0,291.5,349.0,291.5,356.5,291.5,364.5,291.0,372.0,290.0,379.0,290.0,386.5,290.5,394.5,290.0,402.5,289.5,411.0,289.5,419.0,288.5,427.0,288.5,435.5,288.0,443.5,287.0,452.5,286.0,460.5,286.0,469.0,286.0,477.0,285.5,485.0,284.5,492.5,283.5,500.5,283.0,508.5,283.0,516.5,283.0" stroke="black" stroke-width="2" fill="none" />
<polyline points="515.0,288.0,507.0,289.0,499.0,289.5,491.0,290.0,483.0,291.0,474.5,291.5,466.5,292.5,457.5,293.0,449.5,294.0,442.0,295.0,434.0,296.0,426.0,296.5,418.0,297.5,410.0,298.0,402.0,299.0,394.0,300.0,386.0,300.5,378.0,301.0,370.0,301.5,362.0,302.0,354.0,302.0,346.0,302.5,337.5,302.5" stroke="black" stroke-width="2" fill="none" />
<polyline points="314.5,309.0,322.5,308.0,331.0,307.5,339.5,307.0,347.0,306.5,355.0,306.0,363.5,305.5,372.0,305.5,380.5,305.0,389.0,305.0,397.5,304.5,405.0,304.0,413.0,303.5,420.5,303.5,428.5,303.0,436.0,302.5,443.5,302.5,450.5,302.5,458.0,301.5,465.5,301.0,473.5,300.5,482.0,300.0,490.5,299.5,499.0,298.5,507.5,297.5,516.0,297.0" stroke="black" stroke-width="2" fill="none" />
<polyline points="517.5,242.0,509.0,242.5,501.0,243.0,493.5,243.5,485.5,244.0,477.5,244.5,468.5,245.0,460.0,245.0,451.5,245.0,443.5,245.5,436.0,245.5,428.5,245.5,420.5,246.0,413.0,246.5,405.0,247.0,397.0,247.5,389.0,248.0,381.0,248.0,373.0,249.0,365.0,250.0,357.0,251.0,349.0,252.0,340.5,253.0,332.0,254.0,323.5,254.5" stroke="black" stroke-width="2" fill="none" />
<polyline points="309.0,251.5,301.0,252.0" stroke="black" stroke-width="2" fill="none" />
<polyline points="293.0,254.0,285.0,261.0" stroke="black" stroke-width="2" fill="none" />
<polyline points="281.5,252.5,274.0,260.0" stroke="black" stroke-width="2" fill="none" />
<polyline points="274.0,252.5,266.5,260.0" stroke="black" stroke-width="2" fill="none" />
<polyline points="259.5,258.5,267.5,251.0" stroke="black" stroke-width="2" fill="none" />
<polyline points="258.0,252.0,250.0,259.5" stroke="black" stroke-width="2" fill="none" />
<polyline points="243.0,259.0,251.0,252.0" stroke="black" stroke-width="2" fill="none" />
<polyline points="241.5,250.0,234.0,257.5" stroke="black" stroke-width="2" fill="none" />
<polyline points="235.0,250.5,226.5,258.5" stroke="black" stroke-width="2" fill="none" />
<polyline points="226.5,253.0,218.0,260.5" stroke="black" stroke-width="2" fill="none" />
<polyline points="211.5,257.0,219.5,249.5" stroke="black" stroke-width="2" fill="none" />
<polyline points="213.5,254.0,205.5,261.5" stroke="black" stroke-width="2" fill="none" />
<polyline points="202.0,251.0,194.5,259.0" stroke="black" stroke-width="2" fill="none" />
<polyline points="188.0,258.0,195.5,257.5,203.5,257.0,211.5,256.5,219.5,256.0,227.5,255.5,235.5,255.0,243.0,254.0,250.5,253.0,258.5,252.0,266.5,251.0,274.5,251.0,283.0,251.0,291.5,251.0" stroke="black" stroke-width="2" fill="none" />
<polyline points="284.5,235.5,293.0,228.0" stroke="black" stroke-width="2" fill="none" />
<polyline points="283.0,229.0,291.0,228.0,299.0,228.0,307.0,227.5,315.0,227.5,322.5,227.0" stroke="black" stroke-width="2" fill="none" />
<polyline points="323.5,221.5,331.5,221.0" stroke="black" stroke-width="2" fill="none" />
<polyline points="324.0,212.5,316.5,213.0" stroke="black" stroke-width="2" fill="none" />
<polyline points="316.5,220.0,308.5,221.0" stroke="black" stroke-width="2" fill="none" />
<polyline points="309.0,212.5,301.0,212.5" stroke="black" stroke-width="2" fill="none" />
<polyline points="300.5,206.0,292.5,206.0" stroke="black" stroke-width="2" fill="none" />
<polyline points="300.0,195.5,308.0,195.0" stroke="black" stroke-width="2" fill="none" />
<polyline points="309.0,187.0,301.0,188.0" stroke="black" stroke-width="2" fill="none" />
<polyline points="301.0,180.5,309.0,180.5" stroke="black" stroke-width="2" fill="none" />
<polyline points="315.0,178.0,322.5,170.0" stroke="black" stroke-width="2" fill="none" />
<polyline points="317.0,171.0,325.0,170.5,332.5,170.5,340.0,170.0,348.0,170.0,356.0,170.0,363.5,170.5,371.5,170.5,379.0,171.0,387.5,170.5,395.5,170.5,403.5,170.0,411.5,169.0,419.5,167.5,428.0,166.0,436.0,164.5,444.0,164.0,451.5,163.5,459.5,163.0,468.0,162.5,475.5,162.5,484.0,161.5,492.5,161.5,500.5,161.0,508.0,160.0,515.5,159.5" stroke="black" stroke-width="2" fill="none" />
<polyline points="333.0,195.5,325.0,203.0" stroke="black" stroke-width="2" fill="none" />
<polyline points="325.0,196.5,333.0,195.5" stroke="black" stroke-width="2" fill="none" />
<polyline points="324.5,188.0,316.5,188.0" stroke="black" stroke-width="2" fill="none" />
<polyline points="308.0,163.5,316.0,163.5,324.0,163.0,332.0,162.5,340.5,161.5,348.5,161.0,356.5,160.5,363.5,160.0,371.0,159.5,378.5,159.5,386.5,159.0,394.5,159.0,403.0,158.5,411.5,158.5,419.5,158.0,428.0,157.5,436.5,157.0,445.0,156.5,453.0,156.5,461.0,156.5,468.5,156.0,476.5,155.5,484.5,155.0,492.5,154.0,500.0,153.5,507.5,153.0,515.5,152.0" stroke="black" stroke-width="2" fill="none" />
<polyline points="349.5,155.0,341.0,155.5,333.0,155.5,325.5,156.5,318.0,157.0" stroke="black" stroke-width="2" fill="none" />
<polyline points="307.0,146.5,315.0,138.5" stroke="black" stroke-width="2" fill="none" />
<polyline points="315.5,131.5,307.5,139.0,300.0,146.5,292.0,154.0" stroke="black" stroke-width="2" fill="none" />
<polyline points="290.0,147.0,298.0,139.5,306.0,132.0" stroke="black" stroke-width="2" fill="none" />
<polyline points="305.0,124.5,297.5,131.5,290.0,140.0,282.5,148.0" stroke="black" stroke-width="2" fill="none" />
<polyline points="281.0,149.5,289.5,149.5,297.5,149.0,306.0,148.5,314.5,148.0,322.5,147.5,330.5,147.5,338.0,147.5" stroke="black" stroke-width="2" fill="none" />
<polyline points="309.0,155.5,301.5,156.0" stroke="black" stroke-width="2" fill="none" />
<polyline points="291.0,172.5,283.0,172.5" stroke="black" stroke-width="2" fill="none" />
<polyline points="276.5,173.5,268.5,174.5" stroke="black" stroke-width="2" fill="none" />
<polyline points="258.5,181.5,266.5,181.0,274.5,180.0,282.5,179.0" stroke="black" stroke-width="2" fill="none" />
<polyline points="281.5,196.5,289.5,195.5" stroke="black" stroke-width="2" fill="none" />
<polyline points="284.5,187.5,276.0,188.0,267.5,188.5" stroke="black" stroke-width="2" fill="none" />
<polyline points="268.5,209.5,260.0,217.0" stroke="black" stroke-width="2" fill="none" />
<polyline points="259.0,216.0,266.5,215.5" stroke="black" stroke-width="2" fill="none" />
<polyline points="276.0,221.0,284.0,220.5" stroke="black" stroke-width="2" fill="none" />
<polyline points="269.0,212.5,260.5,213.0,252.5,213.5,244.5,213.5" stroke="black" stroke-width="2" fill="none" />
<polyline points="245.5,207.5,253.5,206.5" stroke="black" stroke-width="2" fill="none" />
<polyline points="252.5,189.5,244.5,190.5" stroke="black" stroke-width="2" fill="none" />
<polyline points="225.5,181.0,218.0,188.0,210.0,196.0" stroke="black" stroke-width="2" fill="none" />
<polyline points="210.5,189.5,218.5,189.5" stroke="black" stroke-width="2" fill="none" />
<polyline points="214.0,186.5,222.0,179.5" stroke="black" stroke-width="2" fill="none" />
<polyline points="226.5,181.0,218.5,181.0,211.0,182.0" stroke="black" stroke-width="2" fill="none" />
<polyline points="210.0,174.0,217.5,173.5,226.0,172.5" stroke="black" stroke-width="2" fill="none" />
<polyline points="228.0,164.0,220.5,164.5,212.5,165.0" stroke="black" stroke-width="2" fill="none" />
<polyline points="218.5,157.0,226.5,157.0" stroke="black" stroke-width="2" fill="none" />
<polyline points="242.5,143.0,251.0,142.0,259.0,141.5,267.0,140.5,276.0,139.5,284.5,139.0,293.0,138.5,301.5,137.5,309.5,137.0,317.5,136.0,325.5,135.0,333.0,134.5" stroke="black" stroke-width="2" fill="none" />
<polyline points="308.0,116.0,300.0,123.5,292.5,131.5,284.5,139.5,277.0,147.5" stroke="black" stroke-width="2" fill="none" />
<polyline points="277.0,148.5,269.0,149.0" stroke="black" stroke-width="2" fill="none" />
<polyline points="273.5,155.0,266.0,162.5" stroke="black" stroke-width="2" fill="none" />
<polyline points="268.0,157.0,276.0,156.5" stroke="black" stroke-width="2" fill="none" />
<polyline points="277.5,137.5,285.5,129.5,293.5,121.5,302.0,113.5,310.0,106.5" stroke="black" stroke-width="2" fill="none" />
<polyline points="308.5,99.5,300.0,107.0,292.0,114.0,284.0,121.5,276.0,128.5,268.0,136.0" stroke="black" stroke-width="2" fill="none" />
<polyline points="260.0,135.5,267.5,128.5,275.0,121.5,282.0,114.0,289.5,107.0,297.5,100.0,305.0,93.0" stroke="black" stroke-width="2" fill="none" />
<polyline points="299.0,92.5,291.0,100.0,283.0,107.5,274.5,114.5,266.5,121.5" stroke="black" stroke-width="2" fill="none" />
<polyline points="269.5,124.0,277.5,123.5,285.5,123.0,293.0,122.5,300.5,122.0,308.5,121.5,316.0,121.5,324.5,121.5,332.0,121.5" stroke="black" stroke-width="2" fill="none" />
<polyline points="330.0,78.0,322.0,78.5" stroke="black" stroke-width="2" fill="none" />
<polyline points="307.0,75.0,298.5,83.0,290.0,90.5,282.0,98.0,274.5,105.5,266.5,113.0,259.0,120.5" stroke="black" stroke-width="2" fill="none" />
<polyline points="259.5,123.0,267.5,122.0" stroke="black" stroke-width="2" fill="none" />
<polyline points="269.0,113.5,277.0,112.5" stroke="black" stroke-width="2" fill="none" />
<polyline points="267.5,107.5,275.5,107.0,284.0,107.5,292.0,107.5,299.5,107.5,307.0,107.0,315.5,106.5,324.0,106.0" stroke="black" stroke-width="2" fill="none" />
<polyline points="299.0,77.0,291.0,85.0,283.0,92.0,275.0,99.0,267.5,106.5" stroke="black" stroke-width="2" fill="none" />
<polyline points="260.0,107.0,267.5,99.5,275.0,92.0,283.0,84.5,291.5,76.5,299.5,69.0" stroke="black" stroke-width="2" fill="none" />
<polyline points="292.0,68.0,284.0,76.0,276.5,83.0,268.0,90.0,259.5,97.5,251.0,104.5,243.0,112.0" stroke="black" stroke-width="2" fill="none" />
<polyline points="242.5,118.0,250.5,117.5,259.0,117.0,267.5,117.0,276.0,116.0,284.0,115.5,292.0,115.0,299.5,114.5,307.5,113.5,316.0,112.5,324.0,112.0,332.0,111.5" stroke="black" stroke-width="2" fill="none" />
<polyline points="289.5,59.0,282.0,67.0,274.0,74.0,266.5,81.5" stroke="black" stroke-width="2" fill="none" />
<polyline points="266.0,83.5,274.0,83.5,282.0,83.5,290.0,83.0,298.0,82.5,306.0,82.5,313.5,82.5,321.5,82.5" stroke="black" stroke-width="2" fill="none" />
<polyline points="282.5,60.5,274.5,68.0,267.0,75.5" stroke="black" stroke-width="2" fill="none" />
<polyline points="266.0,76.0,273.5,76.0,281.0,75.5,289.0,74.5,297.5,74.0,306.0,74.0,314.0,73.0" stroke="black" stroke-width="2" fill="none" />
<polyline points="283.5,52.0,275.5,59.5,267.5,67.0,260.0,75.0" stroke="black" stroke-width="2" fill="none" />
<polyline points="251.5,73.5,259.5,66.5,268.0,59.0,276.5,51.5" stroke="black" stroke-width="2" fill="none" />
<polyline points="267.0,51.5,259.0,59.0,251.5,66.0,243.5,73.5" stroke="black" stroke-width="2" fill="none" />
<polyline points="242.5,76.0,250.5,76.0" stroke="black" stroke-width="2" fill="none" />
<polyline points="252.5,86.0,260.0,85.5" stroke="black" stroke-width="2" fill="none" />
<polyline points="243.5,92.5,252.0,92.5,260.0,92.0,268.5,92.0,277.0,92.0,285.0,92.0,292.5,91.5,300.5,91.5,308.5,90.5,316.5,89.5,324.5,89.0" stroke="black" stroke-width="2" fill="none" />
<polyline points="317.5,35.5,325.5,35.5,333.0,35.5,341.0,35.5,348.5,34.5,356.0,34.0,364.0,34.0,372.0,33.5,380.0,33.5,388.0,33.5,396.0,33.0,404.0,32.5,412.0,32.0,419.5,31.0,427.5,30.5,435.0,29.5,442.5,29.5,450.0,29.0,457.5,28.5,465.0,28.0,472.5,27.5,481.0,27.0,489.0,27.0,497.0,26.0,505.5,25.5,513.0,24.5" stroke="black" stroke-width="2" fill="none" />
<polyline points="307.5,3.0,299.5,11.0" stroke="black" stroke-width="2" fill="none" />
<polyline points="299.5,4.5,291.5,12.0" stroke="black" stroke-width="2" fill="none" />
<polyline points="290.0,3.5,282.5,11.5,274.5,18.5" stroke="black" stroke-width="2" fill="none" />
<polyline points="268.5,19.5,260.5,27.0,252.5,34.5,244.0,41.5,236.0,48.5,228.5,56.0,219.5,63.0,211.0,71.0" stroke="black" stroke-width="2" fill="none" />
<polyline points="203.0,71.0,211.0,63.0,219.5,55.0,227.5,48.0,235.5,40.0,243.5,32.5,251.5,25.0,259.5,18.0,268.0,11.0,276.0,4.0" stroke="black" stroke-width="2" fill="none" />
<polyline points="267.0,2.5,259.5,10.5,251.5,18.0,244.0,26.0,236.0,33.5,228.0,41.5,220.0,48.5,212.0,56.0,204.0,63.0,195.0,70.5" stroke="black" stroke-width="2" fill="none" />
<polyline points="195.5,73.5,203.0,73.0" stroke="black" stroke-width="2" fill="none" />
<polyline points="204.0,66.5,211.5,66.0" stroke="black" stroke-width="2" fill="none" />
<polyline points="228.0,74.0,236.0,66.0,244.0,58.5,251.5,51.0,259.5,44.0,267.0,36.5" stroke="black" stroke-width="2" fill="none" />
<polyline points="260.0,37.0,252.0,44.0,243.5,51.5,234.5,59.0,226.0,66.0,217.5,74.0" stroke="black" stroke-width="2" fill="none" />
<polyline points="221.5,85.0,213.5,85.5" stroke="black" stroke-width="2" fill="none" />
<polyline points="230.0,85.5,237.5,85.0" stroke="black" stroke-width="2" fill="none" />
<polyline points="234.5,73.0,242.5,66.0,251.0,59.0,259.0,52.0,266.5,45.0" stroke="black" stroke-width="2" fill="none" />
<polyline points="259.5,5.0,251.0,12.0,243.0,19.0,235.0,26.5,226.5,34.0,219.0,41.5,211.0,49.0,203.5,56.5,196.0,64.0,188.0,71.5,180.0,79.0" stroke="black" stroke-width="2" fill="none" />
<polyline points="180.5,71.0,172.5,71.0" stroke="black" stroke-width="2" fill="none" />
<polyline points="169.0,80.0,177.0,72.0,185.5,64.0,193.5,56.0,201.0,48.0,209.5,40.0,218.0,32.0,226.0,24.0,234.5,16.5,242.5,9.0,250.5,1.0" stroke="black" stroke-width="2" fill="none" />
<polyline points="242.5,2.5,234.0,10.0,225.5,18.0,217.5,26.0,209.5,33.5,202.0,41.0,194.5,48.5,186.5,56.0,179.0,63.0,171.5,71.0,163.5,78.0,155.5,86.0,148.0,93.0,140.0,101.0,132.0,108.5,124.5,116.5,116.0,123.5,107.0,131.0,98.5,139.0,90.5,146.5,82.5,154.0,74.5,161.5,67.5,168.5,59.5,176.0,51.5,184.0,44.0,191.5,35.5,199.0,27.0,206.5,19.0,214.0,10.5,222.0,2.5,229.5" stroke="black" stroke-width="2" fill="none" />
<polyline points="3.5,229.0,11.5,228.5,20.0,228.5,28.0,228.0,36.0,227.0,44.0,226.5,52.0,226.0,59.5,225.5,67.0,224.5,74.0,224.0,82.0,224.0,90.0,223.0,98.5,222.5,106.5,223.0,114.0,223.0,122.5,222.5" stroke="black" stroke-width="2" fill="none" />
<polyline points="124.0,220.0,132.0,213.0" stroke="black" stroke-width="2" fill="none" />
<polyline points="132.0,205.0,123.5,212.5,115.5,220.0" stroke="black" stroke-width="2" fill="none" />
<polyline points="106.5,219.0,114.0,212.5,122.0,205.5,130.0,198.0" stroke="black" stroke-width="2" fill="none" />
<polyline points="130.5,190.0,122.0,197.0,114.0,204.0,106.0,211.0,98.5,218.5" stroke="black" stroke-width="2" fill="none" />
<polyline points="101.0,229.5,93.0,237.0" stroke="black" stroke-width="2" fill="none" />
<polyline points="90.5,242.5,98.0,235.0,106.0,227.5" stroke="black" stroke-width="2" fill="none" />
<polyline points="93.5,229.0,86.0,236.5" stroke="black" stroke-width="2" fill="none" />
<polyline points="84.5,243.0,76.5,250.5,68.5,258.5" stroke="black" stroke-width="2" fill="none" />
<polyline points="58.5,252.0,51.0,259.5,43.5,267.0,36.0,274.5,28.5,282.5" stroke="black" stroke-width="2" fill="none" />
<polyline points="35.5,291.0,44.0,283.5,52.0,276.0,60.0,268.5" stroke="black" stroke-width="2" fill="none" />
<polyline points="83.5,281.5,91.5,274.0,99.5,266.5" stroke="black" stroke-width="2" fill="none" />
<polyline points="90.5,266.0,82.5,273.5,74.0,281.5,65.5,289.0,57.5,296.5" stroke="black" stroke-width="2" fill="none" />
<polyline points="52.5,295.5,60.5,288.5,68.5,280.5,76.0,273.5,84.0,266.0,92.0,258.5,100.0,250.5" stroke="black" stroke-width="2" fill="none" />
<polyline points="90.5,252.5,83.0,259.5,75.5,267.0,67.5,274.0,60.0,281.5,51.5,288.5,43.0,297.0,34.5,305.5,26.0,313.5,18.0,321.5,10.0,329.0,2.0,336.5" stroke="black" stroke-width="2" fill="none" />
<polyline points="5.0,333.5,13.5,326.0" stroke="black" stroke-width="2" fill="none" />
<polyline points="4.0,324.5,12.0,324.0,20.0,324.0,28.0,323.5,36.0,323.0,44.0,323.0,52.0,322.5,60.5,321.5,68.5,320.5,76.5,320.0,84.0,319.0,92.0,318.5,100.0,318.0,108.0,317.5,116.0,317.0,123.5,316.5,131.5,316.5,139.5,316.5" stroke="black" stroke-width="2" fill="none" />
<polyline points="132.0,330.0,123.5,337.5" stroke="black" stroke-width="2" fill="none" />
<polyline points="132.5,339.5,140.5,332.0" stroke="black" stroke-width="2" fill="none" />
<polyline points="114.0,331.0,106.5,339.0" stroke="black" stroke-width="2" fill="none" />
<polyline points="97.5,341.0,105.5,333.5,113.5,326.0" stroke="black" stroke-width="2" fill="none" />
<polyline points="107.0,324.0,114.5,316.5" stroke="black" stroke-width="2" fill="none" />
<polyline points="108.5,316.0,116.0,309.0" stroke="black" stroke-width="2" fill="none" />
<polyline points="106.5,298.5,98.5,305.5,90.5,313.0" stroke="black" stroke-width="2" fill="none" />
<polyline points="100.0,316.0,92.0,323.0,84.0,330.0,76.0,337.0" stroke="black" stroke-width="2" fill="none" />
<polyline points="84.0,338.5,92.5,330.5,101.0,323.0" stroke="black" stroke-width="2" fill="none" />
<polyline points="99.5,331.0,92.0,339.0" stroke="black" stroke-width="2" fill="none" />
<polyline points="83.5,323.5,75.5,331.0,68.5,338.5" stroke="black" stroke-width="2" fill="none" />
<polyline points="58.5,338.0,66.0,329.5,74.0,322.0" stroke="black" stroke-width="2" fill="none" />
<polyline points="73.5,314.0,65.5,322.0" stroke="black" stroke-width="2" fill="none" />
<polyline points="65.0,316.0,73.5,308.5" stroke="black" stroke-width="2" fill="none" />
<polyline points="68.0,307.5,59.0,315.0" stroke="black" stroke-width="2" fill="none" />
<polyline points="52.5,316.0,44.5,323.0,37.0,330.0,28.5,337.0" stroke="black" stroke-width="2" fill="none" />
<polyline points="44.5,340.0,52.5,332.5" stroke="black" stroke-width="2" fill="none" />
<polyline points="53.0,339.0,61.0,331.5" stroke="black" stroke-width="2" fill="none" />
<polyline points="53.0,323.0,45.0,330.5,37.0,338.5" stroke="black" stroke-width="2" fill="none" />
<polyline points="20.0,340.0,28.0,332.5,36.0,325.5,43.5,318.5" stroke="black" stroke-width="2" fill="none" />
<polyline points="44.0,310.0,36.0,317.5,27.5,325.0,19.5,332.0,11.5,340.0" stroke="black" stroke-width="2" fill="none" />
<polyline points="4.0,331.5,12.0,331.0,21.0,331.0,29.0,330.0,37.0,329.5,45.5,328.5,53.0,328.0,61.0,328.0,68.5,327.5,76.5,327.5,84.0,327.0,92.0,326.5,100.0,326.0,108.0,326.0,115.5,326.0,123.0,325.5,130.5,325.0,138.5,324.0" stroke="black" stroke-width="2" fill="none" />
<polyline points="171.0,324.0,179.0,324.0,187.5,324.0,195.5,323.5" stroke="black" stroke-width="2" fill="none" />
<polyline points="205.0,324.0,213.5,324.0,221.5,324.0,229.5,323.5,237.0,324.0,244.0,323.5,252.0,323.0,260.0,323.0,267.5,323.0,275.5,322.5,283.5,322.0,291.5,321.0,299.0,320.0,307.0,319.0,315.0,318.0,323.0,316.5,331.5,316.5,340.5,316.0,349.0,315.5,357.5,314.5,365.5,313.5,373.5,313.5,381.0,313.5,389.0,313.5,396.5,312.5,404.0,312.0,412.0,312.0,420.0,311.5,428.0,311.5,436.0,311.5,444.0,311.0,452.0,310.5,460.0,310.0,467.5,309.0,475.5,308.5,483.0,307.5,490.5,307.5,498.0,307.0,505.5,306.5,513.0,306.0" stroke="black" stroke-width="2" fill="none" />
<polyline points="324.0,290.5,316.0,291.0,308.0,291.5,299.5,291.5" stroke="black" stroke-width="2" fill="none" />
<polyline points="292.0,301.0,300.0,300.5,307.0,299.5,315.0,299.0,323.0,299.0,330.5,298.5" stroke="black" stroke-width="2" fill="none" />
<polyline points="308.5,306.5,300.5,307.0,293.0,307.5,284.5,308.0,276.0,308.5,268.0,309.5" stroke="black" stroke-width="2" fill="none" />
<polyline points="252.5,316.5,260.5,316.0,268.0,315.5,276.0,314.5,284.5,314.5,293.0,313.5,301.0,313.5,309.0,312.5,317.0,312.0,325.5,311.5,333.5,311.0,341.0,310.5,348.5,310.5,356.0,310.0,364.0,309.0,371.5,309.0,379.0,308.5,387.0,308.0,395.0,308.0,403.0,307.5,411.0,307.0,419.0,307.0,427.5,306.5,435.5,306.5,443.0,306.0,451.0,305.5,459.0,305.5,467.5,304.5,475.5,304.0,483.5,303.0,491.0,302.0,499.0,301.5,506.5,301.5,514.0,301.0" stroke="black" stroke-width="2" fill="none" />
<polyline points="340.5,279.0,332.5,280.0,324.5,280.0,316.5,280.5,308.5,281.5,300.0,282.0,292.0,283.0,284.0,283.0,276.0,283.0,268.0,283.0,259.5,283.0,251.5,283.5" stroke="black" stroke-width="2" fill="none" />
<polyline points="243.0,315.0,235.5,315.0,228.0,315.5,220.0,315.5,211.5,316.0,203.5,317.0" stroke="black" stroke-width="2" fill="none" />
<polyline points="201.5,308.0,209.0,307.5,217.5,307.0,226.0,307.0,234.0,306.5,242.5,306.0,250.5,305.5" stroke="black" stroke-width="2" fill="none" />
<polyline points="211.0,335.0,219.0,334.5,227.0,334.0,235.5,333.0,243.5,331.5,251.5,330.5,260.0,330.0,269.0,329.5,277.5,329.0,285.5,328.0,293.5,327.0,301.5,326.5,309.5,326.0,317.0,325.5,324.5,325.0,332.5,324.5,340.0,324.5,348.5,324.5,356.0,324.5,363.5,324.0,371.5,323.5,379.5,323.0,388.0,322.5,396.5,322.0,404.5,321.5,412.5,321.0,420.0,320.0,428.0,319.0,436.0,318.0,444.0,317.0,451.5,317.0,460.0,316.5,468.5,316.5,476.5,316.0,484.0,316.0,492.0,316.0,500.0,315.5,508.0,315.0,516.0,315.0" stroke="black" stroke-width="2" fill="none" />
<polyline points="273.5,164.5,265.5,165.0,257.0,165.0" stroke="black" stroke-width="2" fill="none" />
<polyline points="257.5,137.5,265.5,136.5" stroke="black" stroke-width="2" fill="none" />
<polyline points="252.0,132.5,260.0,132.0,268.0,131.0,275.5,130.5,283.0,130.0,291.0,129.0,299.5,128.5,308.0,128.0,316.5,128.0,324.5,127.0,332.0,126.5" stroke="black" stroke-width="2" fill="none" />
<polyline points="258.0,117.0,250.0,124.0" stroke="black" stroke-width="2" fill="none" />
<polyline points="243.5,122.0,251.5,114.5" stroke="black" stroke-width="2" fill="none" />
<polyline points="251.0,104.5,259.0,104.0" stroke="black" stroke-width="2" fill="none" />
<polyline points="251.5,102.0,259.0,101.5,267.0,101.0,275.0,100.0,283.0,99.5,291.0,98.5,299.5,97.5,308.0,97.0,316.5,96.5,325.0,95.5" stroke="black" stroke-width="2" fill="none" />
<polyline points="243.0,101.0,235.5,101.5" stroke="black" stroke-width="2" fill="none" />
<polyline points="236.5,93.5,228.5,94.0" stroke="black" stroke-width="2" fill="none" />
<polyline points="220.0,103.0,212.0,103.5" stroke="black" stroke-width="2" fill="none" />
<polyline points="218.0,110.5,226.5,109.5,235.0,109.0,243.0,108.5,251.0,107.5,259.5,106.5" stroke="black" stroke-width="2" fill="none" />
<polyline points="235.0,126.0,226.5,127.0" stroke="black" stroke-width="2" fill="none" />
<polyline points="227.5,118.5,235.5,118.5" stroke="black" stroke-width="2" fill="none" />
<polyline points="220.5,125.5,212.5,126.0" stroke="black" stroke-width="2" fill="none" />
<polyline points="212.5,140.0,220.5,139.5" stroke="black" stroke-width="2" fill="none" />
<polyline points="195.0,115.5,187.0,122.5" stroke="black" stroke-width="2" fill="none" />
<polyline points="180.5,116.5,188.5,116.5,196.0,116.0" stroke="black" stroke-width="2" fill="none" />
<polyline points="193.5,94.0,201.5,93.5" stroke="black" stroke-width="2" fill="none" />
<polyline points="202.5,76.0,194.5,76.5" stroke="black" stroke-width="2" fill="none" />
<polyline points="171.0,92.5,163.0,93.0" stroke="black" stroke-width="2" fill="none" />
<polyline points="154.5,98.5,146.0,106.0,138.0,114.0,130.0,121.5,123.0,128.5,115.0,136.5,107.5,144.0,99.5,151.5" stroke="black" stroke-width="2" fill="none" />
<polyline points="108.5,153.0,116.5,146.0,124.5,138.5,132.5,131.0,140.5,124.0,148.0,116.5" stroke="black" stroke-width="2" fill="none" />
<polyline points="148.0,124.0,139.5,131.5,131.5,139.0,123.0,146.5,114.5,154.0" stroke="black" stroke-width="2" fill="none" />
<polyline points="123.0,153.5,130.5,146.0,138.0,138.5,146.0,131.0" stroke="black" stroke-width="2" fill="none" />
<polyline points="145.5,137.0,137.5,145.0,129.5,153.0" stroke="black" stroke-width="2" fill="none" />
<polyline points="138.0,152.5,146.0,144.5" stroke="black" stroke-width="2" fill="none" />
<polyline points="139.0,163.5,131.0,170.5,123.0,177.5,114.5,185.5,106.5,193.5,98.5,201.5,90.5,208.0,82.5,215.5,74.5,223.0,67.0,230.0,59.0,237.5,50.5,245.5,42.0,253.0,34.0,261.0,25.5,268.0,17.5,276.0,9.5,284.0,2.0,292.0" stroke="black" stroke-width="2" fill="none" />
<polyline points="2.5,293.0,10.5,292.5,18.5,291.5,26.5,291.0,34.5,291.0,42.5,290.5,50.5,290.0,58.5,289.5,66.5,288.5,75.0,287.0,83.5,286.5,91.0,286.0,98.5,286.0,106.5,286.0,114.0,286.0,122.0,285.5,130.5,285.5" stroke="black" stroke-width="2" fill="none" />
<polyline points="118.0,277.5,110.0,285.0" stroke="black" stroke-width="2" fill="none" />
<polyline points="101.0,299.0,93.5,306.5,85.0,314.0" stroke="black" stroke-width="2" fill="none" />
<polyline points="82.0,306.5,90.0,299.0" stroke="black" stroke-width="2" fill="none" />
<polyline points="92.5,291.5,101.0,284.5,109.5,277.0,118.0,270.0" stroke="black" stroke-width="2" fill="none" />
<polyline points="124.0,267.0,132.0,259.5" stroke="black" stroke-width="2" fill="none" />
<polyline points="124.0,258.5,132.5,250.5" stroke="black" stroke-width="2" fill="none" />
<polyline points="124.5,243.0,133.0,235.5" stroke="black" stroke-width="2" fill="none" />
<polyline points="122.5,238.0,114.5,245.5" stroke="black" stroke-width="2" fill="none" />
<polyline points="114.5,252.5,106.5,260.0" stroke="black" stroke-width="2" fill="none" />
<polyline points="117.0,262.0,109.0,270.0,101.0,277.0,92.5,284.0,84.0,290.5,75.5,297.0" stroke="black" stroke-width="2" fill="none" />
<polyline points="74.0,293.0,65.5,300.5" stroke="black" stroke-width="2" fill="none" />
<polyline points="28.5,298.0,20.5,305.5,12.5,313.0,4.5,321.0" stroke="black" stroke-width="2" fill="none" />
<polyline points="5.5,318.0,13.5,317.5,21.5,317.0,29.0,316.0,36.5,315.0,44.0,314.5,51.5,314.0,59.0,313.5,67.0,313.5,74.5,313.0,82.5,313.0,90.0,312.5,98.0,312.0,106.0,312.0,113.5,312.0,121.5,312.0,129.5,311.5,138.0,311.5" stroke="black" stroke-width="2" fill="none" />
<polyline points="180.0,303.0,188.0,302.5" stroke="black" stroke-width="2" fill="none" />
<polyline points="197.5,300.5,205.5,300.5,213.5,300.0,221.5,299.5,229.5,299.0,237.0,299.0,245.0,298.5,253.0,298.5,261.0,298.0,268.5,297.5,276.5,297.0,284.0,296.5" stroke="black" stroke-width="2" fill="none" />
<polyline points="242.0,219.5,234.0,220.5,226.5,221.5" stroke="black" stroke-width="2" fill="none" />
<polyline points="226.0,207.0,234.0,206.0" stroke="black" stroke-width="2" fill="none" />
<polyline points="221.0,202.5,213.0,210.0" stroke="black" stroke-width="2" fill="none" />
<polyline points="218.5,205.5,210.0,206.0,202.0,206.5" stroke="black" stroke-width="2" fill="none" />
<polyline points="202.0,200.0,210.0,199.0,218.5,198.5,227.0,198.0,235.0,197.0" stroke="black" stroke-width="2" fill="none" />
<polyline points="235.5,211.5,227.0,212.0,218.0,212.5,209.5,213.0,201.0,214.5,193.0,215.0" stroke="black" stroke-width="2" fill="none" />
<polyline points="195.0,250.5,187.0,258.0" stroke="black" stroke-width="2" fill="none" />
<polyline points="187.5,260.5,195.5,260.0,202.5,259.5,210.0,259.0,218.0,258.5" stroke="black" stroke-width="2" fill="none" />
<polyline points="187.5,254.5,180.0,261.5" stroke="black" stroke-width="2" fill="none" />
<polyline points="172.5,253.0,164.0,260.0" stroke="black" stroke-width="2" fill="none" />
<polyline points="161.5,261.5,170.0,261.0" stroke="black" stroke-width="2" fill="none" />
<polyline points="171.5,245.0,163.5,245.5" stroke="black" stroke-width="2" fill="none" />
<polyline points="154.0,253.5,162.0,253.0,169.5,252.0,177.0,252.0,185.0,252.0,193.0,252.0,201.0,251.5,209.5,250.5,218.0,249.5,226.5,249.0,234.5,248.5,242.5,248.5,250.5,248.5,259.0,248.0,268.0,247.5,277.0,247.5,285.5,246.5,293.5,246.0" stroke="black" stroke-width="2" fill="none" />
<polyline points="284.5,288.5,276.5,288.5,268.5,289.5,261.0,290.5,253.0,291.5,244.5,291.5,236.5,292.0,228.5,292.5,220.5,293.0,212.0,293.5,204.0,293.5,195.5,294.5" stroke="black" stroke-width="2" fill="none" />
<polyline points="84.5,253.0,76.0,260.0,68.0,267.5,59.0,275.0,50.0,282.0,41.5,289.5,33.5,297.5,25.5,305.0,17.5,313.0" stroke="black" stroke-width="2" fill="none" />
<polyline points="5.5,313.0,13.0,305.5,21.0,297.5,28.5,290.0,36.5,282.0,43.5,274.5,51.0,267.0,58.5,259.5,66.5,252.0,74.5,244.5" stroke="black" stroke-width="2" fill="none" />
<polyline points="67.5,241.5,75.0,234.0" stroke="black" stroke-width="2" fill="none" />
<polyline points="82.0,222.5,90.0,215.0,97.5,207.5,106.5,200.5,115.0,193.0,123.5,186.0,132.0,179.0,139.5,172.0" stroke="black" stroke-width="2" fill="none" />
<polyline points="130.0,164.0,121.5,172.0,113.5,179.5,106.0,187.0,98.0,194.5,90.5,202.0,83.0,209.5,75.5,216.5,68.0,224.0,60.0,231.5,52.5,238.5,44.5,246.5,36.5,254.5,28.0,262.0,19.5,270.0,11.5,277.5,3.0,285.0" stroke="black" stroke-width="2" fill="none" />
<polyline points="2.5,283.5,10.5,283.5,19.0,283.0,27.0,282.5,35.5,282.0,43.5,281.5,51.5,280.5,59.5,280.0,67.0,279.5,75.0,278.5,83.5,278.0,91.5,278.0,99.5,278.0,107.5,278.0,115.5,278.0,123.5,278.0,131.0,277.5" stroke="black" stroke-width="2" fill="none" />
<polyline points="67.0,209.5,59.0,210.0,51.5,210.0" stroke="black" stroke-width="2" fill="none" />
<polyline points="44.0,200.0,51.5,199.5,59.0,200.0" stroke="black" stroke-width="2" fill="none" />
<polyline points="58.0,192.0,66.0,191.5" stroke="black" stroke-width="2" fill="none" />
<polyline points="60.0,165.0,52.5,172.0,44.5,179.5,37.0,187.0,29.5,194.0,21.5,201.5,13.5,208.5" stroke="black" stroke-width="2" fill="none" />
<polyline points="11.5,206.0,19.5,205.5,27.0,204.5,35.0,203.5,42.5,203.0,50.5,202.0,59.0,201.0,67.5,200.5,75.5,200.0,83.0,200.0,91.0,199.5,99.0,199.0,107.5,198.0,115.5,197.5,124.0,196.5,132.5,196.0" stroke="black" stroke-width="2" fill="none" />
<polyline points="122.0,165.5,114.5,172.5,106.5,179.5,98.5,186.5,90.0,193.5,82.5,201.0,75.0,208.0,67.0,215.5,59.5,222.5,51.5,230.0,43.0,237.5,35.0,245.0,27.0,251.5,19.0,259.0,11.0,266.5,3.0,275.0" stroke="black" stroke-width="2" fill="none" />
<polyline points="3.0,278.0,10.5,277.5,19.5,276.5,27.5,276.0,35.0,276.0,43.5,276.0,51.5,275.5,60.0,274.5,68.0,274.0,76.0,274.0,83.5,273.0,91.0,273.0,99.0,272.5,106.5,271.5,114.5,271.0,122.5,270.5" stroke="black" stroke-width="2" fill="none" />
<polyline points="19.5,293.5,11.5,301.0,3.5,308.0" stroke="black" stroke-width="2" fill="none" />
<polyline points="3.0,308.0,11.0,307.5,19.0,307.0,27.5,307.0,35.5,307.5,43.5,307.0,51.5,306.5,59.5,306.0,67.5,305.5,75.0,305.5,82.5,305.0,91.0,304.5,99.0,304.0,107.0,303.0,115.5,303.0,123.5,302.5,132.0,302.0" stroke="black" stroke-width="2" fill="none" />
<polyline points="41.5,210.0,34.0,210.0,25.5,210.5" stroke="black" stroke-width="2" fill="none" />
<polyline points="19.5,208.0,27.5,201.0,35.5,193.5,43.5,186.0,51.5,178.5,59.5,171.0,68.0,163.5" stroke="black" stroke-width="2" fill="none" />
<polyline points="74.5,162.0,66.5,169.5,58.5,177.5,50.5,185.5,42.5,193.5,35.0,201.5,27.0,209.5,19.0,217.0,11.0,224.5,2.5,232.0" stroke="black" stroke-width="2" fill="none" />
<polyline points="2.0,236.0,10.0,235.5,18.5,235.0,26.0,234.5,34.0,234.5,41.5,234.0,49.5,234.5,58.0,234.5,66.0,234.5,74.0,234.0,81.5,233.5,89.5,233.0,98.0,232.0,106.5,231.5,114.5,231.0,123.0,231.0,131.0,230.5" stroke="black" stroke-width="2" fill="none" />
<polyline points="113.0,164.0,105.0,171.5,97.0,179.0,89.5,186.5,82.5,193.5,75.0,200.5,67.0,208.0,58.5,215.0,50.5,222.5,43.0,229.5,35.0,237.0,27.0,244.5,18.5,252.5,10.5,260.5,3.0,269.0" stroke="black" stroke-width="2" fill="none" />
<polyline points="3.5,270.0,11.5,269.5,19.5,269.5,27.5,269.5,35.5,270.0,44.0,270.0,51.5,269.0,59.5,268.0,67.0,267.0,74.5,266.5,82.5,266.0,91.0,265.0,99.0,264.5,107.5,264.0,116.0,264.0,124.0,262.5" stroke="black" stroke-width="2" fill="none" />
<polyline points="106.0,163.5,98.5,171.5,90.5,179.5,83.0,187.0,75.5,194.0,67.5,201.5,59.5,209.0,51.5,217.0,43.5,224.5,36.0,231.5,28.0,239.0,19.5,246.5,11.5,254.0,3.0,261.5" stroke="black" stroke-width="2" fill="none" />
<polyline points="3.0,263.5,11.0,263.0,19.0,262.0,27.0,261.0,35.0,260.5,43.0,260.0,51.0,259.5,59.0,259.0,67.0,258.5,75.0,258.0,83.5,257.0,91.5,256.5,99.0,256.0,107.0,255.5,115.0,254.5,123.0,254.5,131.0,253.5" stroke="black" stroke-width="2" fill="none" />
<polyline points="100.5,164.5,92.5,172.0,84.5,179.5,76.5,186.5,68.5,194.5,61.0,202.0,52.5,209.0,44.5,216.5,36.5,223.5,28.5,230.5,20.5,237.5,12.0,245.5,4.0,253.0" stroke="black" stroke-width="2" fill="none" />
<polyline points="3.5,254.5,11.5,254.0,20.0,253.5,28.5,252.5,37.5,252.0,45.5,251.0,53.0,250.0,60.5,248.5,68.5,247.5,76.5,247.0,84.0,246.5,92.5,246.0,100.0,245.5,107.0,245.5,114.5,244.5,122.0,244.5,130.0,244.0,138.5,243.5" stroke="black" stroke-width="2" fill="none" />
<polyline points="93.0,164.5,85.5,172.0,77.0,179.5,68.5,187.0,60.0,194.5,51.0,202.0,42.5,209.5,34.5,217.5,26.0,225.0,18.0,232.0,10.0,239.0,1.5,247.0" stroke="black" stroke-width="2" fill="none" />
<polyline points="3.0,246.0,11.0,245.0,18.5,244.5,26.5,243.5,35.0,243.0,42.5,242.0,51.0,242.0,59.5,241.5,67.5,240.5,76.0,239.5,84.0,239.0,91.5,238.5,99.0,239.0,107.0,239.0,114.5,239.0,122.5,238.5,131.0,238.5,139.0,238.0" stroke="black" stroke-width="2" fill="none" />
<polyline points="83.0,147.5,91.5,139.5,100.0,132.0,108.0,124.5,116.0,117.0,123.5,109.5,131.0,102.0,139.0,95.0,147.0,88.0,155.0,80.0,163.0,72.5,170.0,64.5,177.5,56.5,185.5,48.5,193.5,41.0,201.5,32.5,210.0,25.0,218.5,17.5,226.5,9.5,234.5,2.0" stroke="black" stroke-width="2" fill="none" />
<polyline points="227.5,3.0,219.0,11.0,211.0,19.0,202.5,26.5,194.5,34.5,186.5,42.5,179.0,50.5,172.0,57.5,164.0,65.5,156.5,73.0,149.0,81.0,141.0,88.0,132.5,95.5,124.0,103.0,115.5,110.0,106.5,117.5,99.0,125.0,90.5,132.0,82.5,138.5,74.0,145.5" stroke="black" stroke-width="2" fill="none" />
<polyline points="68.0,145.5,75.5,138.5,83.0,131.0,90.5,123.0,98.0,115.5,106.5,108.5,114.5,100.5,122.5,93.5,130.5,86.5,138.0,78.5,146.5,71.0,154.5,63.5,162.5,56.0,170.5,49.0,179.0,42.0,188.0,34.5,197.0,26.0,205.5,18.5,214.5,10.5,222.5,3.0" stroke="black" stroke-width="2" fill="none" />
<polyline points="212.5,3.5,204.5,11.5,196.5,19.5,188.0,27.0,179.5,35.0,171.5,42.5,163.0,50.0,154.5,57.0,146.5,64.5,138.5,72.0,130.5,79.5,122.5,87.0,115.0,94.5,107.5,102.0,99.5,109.5,91.5,117.0,83.5,124.5,76.0,132.0,68.0,139.5,60.0,147.5" stroke="black" stroke-width="2" fill="none" />
<polyline points="51.0,145.5,59.0,138.0,67.0,131.0,75.5,124.0,84.0,117.0,92.0,109.5,99.5,102.0,107.0,94.5,114.5,87.0,122.0,79.5,130.0,72.0,138.5,64.5,147.0,56.0,155.5,48.0,163.5,40.5,171.5,32.5,180.0,25.0,188.0,17.5,196.0,10.0,204.5,2.5" stroke="black" stroke-width="2" fill="none" />
<polyline points="194.0,4.5,186.5,12.0,179.0,19.5,171.5,27.5,163.5,35.0,156.5,42.0,148.0,49.5,139.5,57.0,131.5,64.5,123.5,72.0,116.0,79.0,108.0,86.0,99.5,93.0,91.5,100.0,83.5,107.5,75.5,115.0,67.5,123.0,59.5,130.0,51.0,138.0,43.0,146.0,35.5,153.5,27.0,160.5,18.5,168.5,10.5,176.0" stroke="black" stroke-width="2" fill="none" />
<polyline points="10.0,177.5,1.5,178.0" stroke="black" stroke-width="2" fill="none" />
<polyline points="4.0,182.5,12.0,182.0,20.0,182.0,27.5,181.5,35.5,181.0,43.5,180.5,51.0,180.5,59.0,180.0,66.5,179.0,74.0,178.5,81.5,177.5,90.0,177.0,97.5,177.0,105.5,176.5,113.5,176.0,121.5,175.5,129.0,174.0" stroke="black" stroke-width="2" fill="none" />
<polyline points="150.0,116.5,142.0,117.0,134.0,117.5,125.0,118.0,116.5,118.5,108.0,119.0,100.0,119.5" stroke="black" stroke-width="2" fill="none" />
<polyline points="92.5,119.5,84.5,120.0" stroke="black" stroke-width="2" fill="none" />
<polyline points="84.0,112.5,92.0,112.0,100.0,112.0,107.5,111.5,115.0,110.5,123.0,109.5,131.0,109.5,139.0,109.5,147.0,109.0" stroke="black" stroke-width="2" fill="none" />
<polyline points="172.5,108.5,180.5,108.0" stroke="black" stroke-width="2" fill="none" />
<polyline points="169.5,81.0,161.5,81.5" stroke="black" stroke-width="2" fill="none" />
<polyline points="160.5,40.5,152.5,41.5,145.0,42.5" stroke="black" stroke-width="2" fill="none" />
<polyline points="148.5,5.5,140.5,12.5,132.5,20.0,124.5,27.5,116.0,34.5,107.5,41.5,99.0,48.0,91.0,54.5,82.5,61.0,74.5,68.5,66.5,76.0,58.5,84.0,50.5,91.5,42.0,99.0,34.0,107.0,25.5,115.0,17.0,123.0,9.5,131.0,1.5,139.0" stroke="black" stroke-width="2" fill="none" />
<polyline points="4.0,138.0,12.0,137.5,19.5,137.5,27.0,137.0,35.0,136.5,43.0,135.5,51.0,135.5,59.0,135.0,67.5,134.5,75.5,133.5,83.5,133.0,91.5,132.5,99.0,131.5,107.0,130.5,114.5,130.0,122.5,129.0,131.0,128.0,139.5,127.5,147.5,127.0" stroke="black" stroke-width="2" fill="none" />
<polyline points="163.5,86.0,155.5,87.0,148.5,87.0,140.5,87.5,132.0,88.0,123.5,88.5,115.5,89.0,107.0,90.0" stroke="black" stroke-width="2" fill="none" />
<polyline points="99.5,96.5,107.5,96.0,116.0,95.5,124.0,95.0,132.5,94.5,140.5,94.5,148.5,94.0,156.5,94.0" stroke="black" stroke-width="2" fill="none" />
<polyline points="161.0,70.5,153.0,71.5,145.0,72.0,137.0,73.0,129.5,73.5,122.0,74.5,114.5,74.5" stroke="black" stroke-width="2" fill="none" />
<polyline points="99.0,55.5,106.5,55.0,114.5,54.5,123.0,54.5,131.0,54.5,139.0,54.5,147.5,54.5,156.0,55.0,164.0,55.0,172.0,55.0" stroke="black" stroke-width="2" fill="none" />
<polyline points="180.0,23.5,188.0,23.5" stroke="black" stroke-width="2" fill="none" />
<polyline points="190.0,6.0,181.5,13.5,173.5,20.5,165.5,27.5,157.5,34.0,149.0,40.5,141.5,47.5,133.0,55.0,125.0,62.0,116.5,69.0,108.5,76.5,100.0,84.0,92.0,92.0,84.0,99.5,76.5,108.0,68.0,115.5,59.5,123.5,51.0,131.0,43.0,138.5,35.0,146.0,27.5,154.0,19.5,161.5" stroke="black" stroke-width="2" fill="none" />
<polyline points="26.0,148.0,34.5,147.0,42.5,146.5" stroke="black" stroke-width="2" fill="none" />
<polyline points="50.5,147.0,59.0,146.0,67.0,145.5,75.5,145.0,84.0,145.0,92.0,143.5,99.5,143.0,107.0,142.5,114.5,141.5,122.5,140.5,130.5,139.5,138.5,139.0,146.5,139.0" stroke="black" stroke-width="2" fill="none" />
<polyline points="153.5,99.0,145.5,99.5,138.0,100.5,130.5,101.0,122.5,102.0,115.0,102.5,107.5,103.0,100.0,103.0,92.0,103.0,84.0,103.5,76.0,104.0" stroke="black" stroke-width="2" fill="none" />
<polyline points="75.0,120.0,66.5,120.0,58.5,120.5,50.0,121.0,41.5,122.0,33.5,122.5" stroke="black" stroke-width="2" fill="none" />
<polyline points="34.0,113.0,42.0,112.0,50.5,111.5,58.5,112.0,66.0,112.0,74.5,111.5" stroke="black" stroke-width="2" fill="none" />
<polyline points="59.0,102.0,51.0,102.0,42.5,102.5,35.0,103.0" stroke="black" stroke-width="2" fill="none" />
<polyline points="27.5,99.0,35.0,98.5,43.0,97.5,51.0,96.5,59.5,95.0,67.5,94.5,75.0,94.0,82.5,93.5,90.0,93.5" stroke="black" stroke-width="2" fill="none" />
<polyline points="90.0,55.0,82.5,55.0,74.5,55.0,67.0,55.0,59.5,55.5" stroke="black" stroke-width="2" fill="none" />
<polyline points="51.5,66.0,59.5,65.5,67.0,65.0,75.0,64.5,83.0,63.5,91.0,63.5,99.0,62.5,107.0,62.0,115.5,61.0,123.5,61.0,131.5,60.5,139.0,60.0,146.5,59.5,155.0,58.5,163.5,58.5,172.0,58.0" stroke="black" stroke-width="2" fill="none" />
<polyline points="179.5,5.0,171.5,12.5,163.5,20.0,156.0,27.5,148.5,35.0,141.0,42.5,132.5,49.5,124.0,57.0,115.5,64.5,107.0,71.5,99.0,78.5,91.0,86.0,83.5,93.0,75.5,100.5,67.5,108.0,59.5,115.5,51.5,123.0,43.0,131.0,35.0,139.0,27.5,146.5,19.5,154.0,12.0,161.5,4.0,168.5" stroke="black" stroke-width="2" fill="none" />
<polyline points="3.5,168.0,11.5,167.5" stroke="black" stroke-width="2" fill="none" />
<polyline points="4.0,165.5,11.5,164.5,19.5,164.0,27.5,163.5,35.5,162.0,44.0,161.5,52.5,161.0,61.0,161.0,69.5,160.5,77.5,160.0,86.0,159.5,93.5,159.0,101.0,158.0,108.0,157.5,115.5,157.0,123.0,156.5,130.5,156.5,138.5,156.5" stroke="black" stroke-width="2" fill="none" />
<polyline points="53.0,163.5,44.5,171.5,36.5,179.5,28.0,187.5,20.0,195.0,12.0,202.0" stroke="black" stroke-width="2" fill="none" />
<polyline points="10.0,196.5,18.0,196.0,26.5,195.5,35.0,194.5,43.5,193.5,52.0,193.0,60.0,192.0,68.5,191.5,76.5,191.5,85.0,191.5,92.5,191.0,100.5,190.5,109.0,190.0,117.5,189.5,125.5,188.5,133.5,188.0" stroke="black" stroke-width="2" fill="none" />
<polyline points="43.0,165.5,34.5,172.5,26.0,180.0,18.0,187.5,10.5,194.5" stroke="black" stroke-width="2" fill="none" />
<polyline points="1.5,189.0,9.5,188.5,17.5,188.5,25.5,188.5,33.5,188.0,41.5,187.5,49.5,187.5,57.5,187.5,65.0,187.0,73.5,187.0,81.5,186.5,89.5,186.0,98.0,185.0,106.5,184.0,115.0,182.5,123.0,181.5,131.5,180.5" stroke="black" stroke-width="2" fill="none" />
<polyline points="147.0,122.5,139.0,122.5,131.0,123.0,123.0,123.5,115.0,123.5,107.0,124.0,99.0,124.5,91.0,125.0,83.0,126.0,74.5,126.5,66.5,127.0,58.0,128.0,49.5,129.0,42.0,130.0,34.5,131.0,26.5,132.0" stroke="black" stroke-width="2" fill="none" />
<polyline points="19.0,145.5,11.5,146.0,3.5,146.5" stroke="black" stroke-width="2" fill="none" />
<polyline points="3.5,146.0,11.0,138.5,18.5,131.5,26.5,124.0,34.0,116.5,42.5,109.0,50.5,101.5,58.5,94.0,66.0,86.5,74.0,79.0,82.5,72.0,91.0,64.0,99.0,57.0,107.0,49.5,115.5,41.5,123.0,34.0,130.5,25.5,138.5,17.5,147.0,9.5,155.0,2.0" stroke="black" stroke-width="2" fill="none" />
<polyline points="161.5,2.5,153.5,10.0,145.5,17.5,138.0,25.0,130.5,32.0,123.0,39.0,115.5,47.0,108.0,55.0,100.5,63.0,92.5,71.0,84.5,78.5,76.5,86.0,68.5,93.5,60.0,100.5,52.0,107.5,44.5,115.0,35.5,122.0,27.0,130.0,18.5,137.5,10.5,145.0,2.5,152.0" stroke="black" stroke-width="2" fill="none" />
<polyline points="4.0,153.5,12.0,153.5,19.5,153.0,27.5,152.5,35.5,152.0,43.0,151.5,50.5,150.5" stroke="black" stroke-width="2" fill="none" />
<polyline points="27.5,159.0,19.5,159.5,11.5,160.5,3.5,161.0" stroke="black" stroke-width="2" fill="none" />
<polyline points="2.5,160.5,10.5,153.0,18.5,145.5,27.0,138.0,35.5,131.0,44.0,124.0,52.0,117.0,60.0,109.0,68.0,101.5,75.5,94.0,83.5,87.0,91.0,79.5,99.0,72.0,107.5,64.0,115.5,56.0,124.0,48.0,132.0,40.5,139.5,33.0,147.5,25.5,155.5,18.0,163.5,10.5,171.0,2.5" stroke="black" stroke-width="2" fill="none" />
<polyline points="140.0,1.5,132.5,9.5,124.5,17.5,116.5,25.5,108.5,33.0,99.5,41.0,91.5,48.0,83.0,55.5,74.5,63.0,66.5,69.5,58.5,77.0,50.5,84.5,42.5,92.5,34.0,100.0,25.5,107.5,17.5,116.0,9.5,123.5,1.5,131.5" stroke="black" stroke-width="2" fill="none" />
<polyline points="2.5,133.0,11.0,132.0,19.5,132.0,27.5,131.5,35.0,131.5,42.5,131.0,50.0,130.5,58.0,129.0,66.0,128.5,74.0,128.0,82.0,127.5,90.0,127.0,98.5,126.5,107.0,125.5,115.5,124.5,124.0,124.0,132.0,123.0,140.5,122.5,148.5,122.5" stroke="black" stroke-width="2" fill="none" />
<polyline points="140.5,37.0,132.0,37.5,123.5,38.5,115.5,39.0,107.0,40.0,99.0,40.5" stroke="black" stroke-width="2" fill="none" />
<polyline points="66.5,26.0,74.0,25.5,82.0,25.0,90.0,25.0,97.5,25.0,105.5,25.0,113.5,24.5,122.0,24.5,130.5,24.0,138.5,23.0,146.0,23.0,154.0,22.0,162.5,21.5" stroke="black" stroke-width="2" fill="none" />
<polyline points="131.0,4.5,123.0,12.0,115.0,19.5,107.0,27.0,99.5,34.0,92.0,41.0,83.5,48.5,75.5,56.0,67.0,63.0,58.5,70.5,50.0,78.0,42.5,86.0,34.5,93.5,26.5,101.0,19.0,108.0,10.5,116.0,2.5,123.5" stroke="black" stroke-width="2" fill="none" />
<polyline points="4.0,121.5,12.0,121.0,20.0,120.5" stroke="black" stroke-width="2" fill="none" />
<polyline points="19.5,129.0,11.5,129.0,3.5,129.0" stroke="black" stroke-width="2" fill="none" />
<polyline points="4.5,126.0,12.5,125.0,21.5,124.0,29.5,123.5,37.0,122.0,45.0,121.5,53.0,121.0,61.0,120.5,69.0,120.0,76.5,119.0,84.0,118.5,92.0,118.0,101.0,118.0,109.0,117.0,117.0,116.5,125.5,115.5,133.0,115.0,141.0,115.0,148.5,114.5" stroke="black" stroke-width="2" fill="none" />
<polyline points="122.0,3.5,114.0,11.5,106.0,19.5,98.5,27.0,91.0,34.0,83.0,41.5,75.5,49.0,68.0,56.0,60.0,63.0,51.5,70.5,43.0,78.5,35.0,85.5,27.0,93.0,19.0,101.0,10.5,108.5,2.5,116.0" stroke="black" stroke-width="2" fill="none" />
<polyline points="2.5,117.0,10.5,116.5,19.0,116.0,27.5,116.0,36.0,116.0,44.5,115.0,53.0,115.0,61.0,114.5,69.5,114.0,77.5,113.5,85.5,113.0,93.5,112.5,101.5,112.0,109.0,111.0,116.5,110.0,124.0,109.5,131.5,109.0,139.0,108.5,147.0,108.5" stroke="black" stroke-width="2" fill="none" />
<polyline points="114.5,2.5,106.5,10.5,98.0,18.5,90.0,26.5,81.5,34.0,74.0,41.5,66.0,48.5,58.0,55.5,50.0,62.0,42.0,68.5,34.0,75.5,26.0,83.5,18.5,91.5,11.0,99.5,3.5,107.0" stroke="black" stroke-width="2" fill="none" />
<polyline points="3.0,105.5,11.5,105.0,19.5,104.0" stroke="black" stroke-width="2" fill="none" />
<polyline points="4.5,101.5,12.5,94.0,20.5,87.0,28.0,79.5,36.0,72.5,44.5,65.0,52.5,57.5,60.5,50.5,68.0,43.5,76.0,35.0,84.5,27.0,93.0,19.0,100.5,11.0,109.0,3.5" stroke="black" stroke-width="2" fill="none" />
<polyline points="99.5,3.5,91.0,11.0,83.0,18.5,75.0,26.0,67.5,34.0,60.0,41.5,52.0,49.5,44.5,57.0,37.0,64.5,29.0,71.5,21.0,78.5,12.5,86.0,4.5,93.5" stroke="black" stroke-width="2" fill="none" />
<polyline points="3.5,94.0,11.0,93.5,19.0,93.5,27.0,92.5,35.0,91.5,43.5,91.5,51.0,90.5,59.0,90.0,67.0,89.5,75.5,89.5,83.5,89.0,91.5,88.5,99.5,88.5,107.5,88.5,115.5,89.0,124.0,89.0,131.5,88.0,139.5,87.0,147.0,86.0,154.5,85.5" stroke="black" stroke-width="2" fill="none" />
<polyline points="93.0,2.0,84.5,9.5,77.0,17.5,68.5,25.0,60.0,33.0,51.5,40.5,43.0,48.5,35.0,57.0,27.0,64.5,19.0,71.5,11.0,79.5,3.0,87.0" stroke="black" stroke-width="2" fill="none" />
<polyline points="5.5,85.0,13.0,85.0,20.5,85.0,28.5,85.0,36.5,84.5,44.5,84.0,53.0,83.5,60.5,82.5,68.5,82.0,76.0,82.0,83.5,81.5,91.5,81.0,100.0,80.5,108.5,79.5,117.5,79.0,125.5,78.0,133.0,77.0,140.5,75.5,148.5,74.5,156.5,74.0,164.0,73.5,172.5,73.0" stroke="black" stroke-width="2" fill="none" />
<polyline points="83.0,2.5,75.5,10.0,67.0,17.5,59.0,25.5,50.5,33.0,42.0,41.5,34.0,49.0,26.0,56.5,18.0,64.0,10.0,71.0,2.0,78.0" stroke="black" stroke-width="2" fill="none" />
<polyline points="4.5,75.5,12.0,75.0,19.5,75.0,27.0,75.0,35.0,75.0,42.5,74.5,50.5,74.0,58.0,73.0,65.5,72.5,74.0,71.5,82.0,71.0,90.0,70.5,98.5,70.0,106.0,69.5,114.0,69.5,121.5,69.0,129.5,69.5,138.0,69.5,146.0,69.5,154.0,69.0,161.5,68.5,169.5,68.0,178.0,67.0,186.5,66.5" stroke="black" stroke-width="2" fill="none" />
<polyline points="228.0,-1.0,219.5,-0.5,211.0,0.5,203.0,1.0,194.5,1.5,186.5,2.5,178.5,3.5,170.5,4.5,162.0,5.0,154.0,5.5,146.5,6.0,139.0,6.0,131.5,5.5,123.5,5.5,115.5,5.5,108.0,6.0,100.0,6.5,92.0,7.0,84.0,7.5,76.0,8.0" stroke="black" stroke-width="2" fill="none" />
<polyline points="74.0,2.0,66.5,9.5,58.0,17.0,50.0,25.0,42.5,32.5,34.5,40.5,26.0,48.5,18.0,56.5,9.5,64.0,1.0,71.5" stroke="black" stroke-width="2" fill="none" />
<polyline points="3.5,72.5,12.0,72.0,20.0,71.0,28.0,70.5,36.0,70.0,44.0,69.5,51.5,69.5,59.0,69.5,67.0,69.0,75.0,68.5,83.5,68.0,91.5,67.5,100.0,67.5,108.0,67.0" stroke="black" stroke-width="2" fill="none" />
<polyline points="145.0,29.5,137.0,30.0,129.0,30.0,121.0,30.0,114.0,30.0,107.0,30.5,99.5,31.0,91.5,31.0,83.5,31.0,75.5,31.0,67.5,31.0,59.5,31.0" stroke="black" stroke-width="2" fill="none" />
<polyline points="66.5,18.0,75.0,17.5,83.0,17.0,91.0,16.0,99.5,16.0,107.5,15.5,116.0,15.0,124.5,14.5,132.5,14.5,140.0,14.0,148.0,13.5,155.5,13.0,163.5,12.0,171.0,11.5,179.0,11.0,186.5,10.0,194.5,9.5,203.0,8.5,211.0,8.0" stroke="black" stroke-width="2" fill="none" />
<polyline points="68.0,3.5,60.0,11.0" stroke="black" stroke-width="2" fill="none" />
<polyline points="52.0,3.5,60.5,3.0,68.0,2.5,75.0,2.5,82.5,1.5,90.0,1.5,98.0,1.0,106.5,0.5,114.5,0.0,123.0,-0.5,131.5,-0.5,139.5,-1.0,146.5,-1.5,154.0,-2.0,162.0,-2.5,170.5,-3.0,178.5,-3.5,186.5,-4.0,195.0,-4.0,203.0,-4.5,211.5,-5.5,220.0,-5.5,228.0,-6.0,236.5,-6.0,245.0,-6.0,253.0,-6.0,260.5,-6.5,268.5,-6.5,276.5,-7.5,284.5,-8.5,292.5,-9.0,300.5,-9.0,308.0,-9.5,316.0,-10.0,323.5,-10.0,331.0,-10.5,338.5,-11.0,346.5,-11.0,354.5,-11.5,362.5,-12.5,371.0,-13.0" stroke="black" stroke-width="2" fill="none" />
<polyline points="44.0,10.0,36.5,17.0,28.5,25.0,20.5,32.5,12.5,40.5,4.5,48.5" stroke="black" stroke-width="2" fill="none" />
<polyline points="1.5,48.5,9.5,48.5" stroke="black" stroke-width="2" fill="none" />
<polyline points="3.0,43.0,10.5,43.0,18.5,42.5" stroke="black" stroke-width="2" fill="none" />
<polyline points="26.5,42.5,34.5,35.5,42.5,28.0" stroke="black" stroke-width="2" fill="none" />
<polyline points="42.0,25.0,34.5,26.0" stroke="black" stroke-width="2" fill="none" />
<polyline points="33.5,19.5,41.5,19.0" stroke="black" stroke-width="2" fill="none" />
<polyline points="43.5,17.5,35.0,25.0,27.0,33.0,18.5,41.0,10.5,48.5,2.5,56.0" stroke="black" stroke-width="2" fill="none" />
<polyline points="2.0,54.0,10.5,53.0,18.5,52.5,27.0,51.5,34.5,51.0,42.5,51.0,50.5,50.5,59.0,50.5,67.5,50.5,76.0,50.5,84.0,49.5,92.0,49.0,100.0,49.0,107.5,48.5,115.5,48.0,123.5,47.5,131.0,47.5,139.0,47.0,146.5,46.0,154.0,45.5,161.5,44.5,170.0,44.0,177.5,44.0,185.5,43.5,193.5,43.0,201.5,42.5,209.0,41.0,217.0,40.5,225.5,39.5,233.5,39.5,241.5,38.5,250.0,38.0,258.5,37.5,267.5,37.0,276.0,36.0,284.0,36.0,292.5,35.0,301.5,35.0,310.0,34.5" stroke="black" stroke-width="2" fill="none" />
<polyline points="91.0,37.5,82.5,38.0,74.5,39.0,66.0,39.5,58.5,40.0,50.5,41.0,43.0,41.5,35.0,42.0" stroke="black" stroke-width="2" fill="none" />
<polyline points="28.5,46.0,36.0,45.0,43.5,44.0,51.0,43.5,58.5,43.0,66.0,42.5,74.0,42.5,82.0,42.0,90.0,42.0,98.5,42.0,106.5,41.5,114.0,41.5,121.5,40.5,129.0,40.0,137.0,39.0,145.0,38.5,153.0,37.5,161.0,37.0,169.5,37.0,177.5,36.5,186.0,36.0,193.5,35.5,202.0,34.5,210.0,33.5,217.5,33.0,225.5,32.5,233.5,31.5,241.5,30.5,249.5,30.0,257.5,29.0,266.0,28.5,274.0,28.5,282.0,28.5,290.0,28.0,298.0,27.5,306.0,27.5" stroke="black" stroke-width="2" fill="none" />
<polyline points="37.5,56.0,30.0,56.5" stroke="black" stroke-width="2" fill="none" />
<polyline points="28.5,50.0,37.0,49.0,45.0,48.5,52.5,48.0,60.0,47.5,67.0,47.0,74.5,47.0,81.5,47.0,89.0,46.0,97.0,45.5,105.0,45.5,112.5,44.5,120.5,43.5,129.0,43.0,137.0,43.0,145.0,43.0,153.0,42.5,161.0,42.0,169.5,41.5" stroke="black" stroke-width="2" fill="none" />
<polyline points="27.5,19.5,20.0,27.0,12.0,34.0,4.5,41.5" stroke="black" stroke-width="2" fill="none" />
<polyline points="3.0,41.0,11.0,40.5,18.5,39.5" stroke="black" stroke-width="2" fill="none" />
<polyline points="19.5,51.5,11.5,59.5,3.5,67.5" stroke="black" stroke-width="2" fill="none" />
<polyline points="3.0,68.0,10.5,67.5,18.5,67.0,26.5,66.5,34.5,66.0,42.5,65.5,50.5,65.0,59.0,65.0,67.5,64.5,75.0,64.5,83.0,64.0,91.0,63.5,99.0,62.0,107.0,61.0,115.0,61.0,123.0,60.5,130.5,60.0,138.5,59.0,147.0,58.0,155.0,57.5,163.0,57.0,170.5,56.5,179.0,56.0,187.0,56.0,195.0,56.0,203.0,55.5,211.0,55.5,219.5,55.0,228.0,55.0,236.0,53.5,244.0,52.5,252.0,52.5,260.0,52.5,267.0,52.0,274.5,51.5,282.0,51.0,290.5,51.5,298.5,51.5,306.5,51.0,314.5,51.0" stroke="black" stroke-width="2" fill="none" />
<polyline points="372.5,-8.0,364.5,-7.5,356.0,-7.5,348.0,-7.5,340.5,-7.0,332.5,-7.0,324.5,-6.5,316.5,-6.5,308.5,-6.0,300.0,-6.0,291.5,-5.5,283.0,-4.5,274.5,-4.0,266.5,-3.5,259.0,-3.0,251.0,-2.5,243.0,-2.0,235.0,-1.5,227.0,-1.0,219.5,-1.0,211.5,0.0,204.0,0.5,196.0,1.0,188.5,1.5,180.5,2.0,172.5,2.0,164.5,2.5,157.0,3.0,150.0,3.5,142.0,4.0,134.0,4.5,125.0,5.0,116.5,5.5,108.0,6.0,100.0,6.5,92.0,7.0,84.0,7.5,76.5,8.0,68.5,8.5,59.5,9.0,51.5,9.5,43.0,10.0,35.0,10.5,27.0,11.0,19.5,12.0" stroke="black" stroke-width="2" fill="none" />
<polyline points="17.5,4.5,26.0,4.0,34.5,3.5" stroke="black" stroke-width="2" fill="none" />
<polyline points="12.0,19.0,20.0,19.0,27.5,19.5,36.0,19.5,44.5,19.0,53.0,18.5,61.0,18.0,68.5,17.0,76.5,16.5,83.5,16.0,92.0,15.5,100.0,15.0,108.0,15.0,115.5,14.5,123.0,13.5,131.0,12.5,139.0,12.5,147.0,12.5,155.0,12.0,163.0,11.0,171.5,11.0,179.5,10.0,188.0,9.5,196.0,9.5,203.5,9.0,211.0,9.0,219.5,8.5,228.0,8.0,236.5,7.0,245.0,6.0,252.5,5.5,260.5,5.0,268.0,4.5,276.0,3.5,284.5,3.5,293.0,2.5,301.0,2.5,309.0,1.5" stroke="black" stroke-width="2" fill="none" />
<polyline points="11.5,25.0,3.5,32.5" stroke="black" stroke-width="2" fill="none" />
<polyline points="3.0,32.0,11.0,31.5,19.5,31.0,27.5,30.5,35.5,30.0,44.0,29.5" stroke="black" stroke-width="2" fill="none" />
<polyline points="28.5,64.5,21.0,65.0,13.0,66.0,5.0,66.5" stroke="black" stroke-width="2" fill="none" />
<polyline points="5.0,63.5,13.0,62.5,20.5,62.0,28.0,61.0,35.5,60.5,43.5,60.0,51.0,58.5,59.5,58.0,67.0,57.0,74.5,55.5,82.5,55.0,90.5,54.5,98.5,54.5,106.0,54.5,113.5,54.0,121.5,54.0,129.5,54.0,138.0,54.0,146.0,53.5,154.0,52.5,162.5,52.0,170.0,51.0,178.0,51.0,186.0,50.0,194.5,49.5,202.5,48.0,211.5,47.5,220.0,46.5,228.5,46.0,236.5,46.0,244.5,45.5,252.5,45.0,261.0,44.5,268.5,44.0,276.0,43.5,284.0,43.5,291.5,43.5,300.0,43.5,307.5,43.5,315.5,43.5,323.5,42.5" stroke="black" stroke-width="2" fill="none" />
<polyline points="131.5,292.5,123.0,293.0,114.5,293.0,106.5,293.5,98.0,294.0,90.0,294.5,82.0,295.0,73.5,295.5,65.5,296.0,58.0,296.5,51.0,297.5,43.0,298.5,35.0,298.5,26.5,298.0,18.0,298.0,10.0,298.0,2.0,298.5" stroke="black" stroke-width="2" fill="none" />
<polyline points="9.5,234.0,17.5,233.5,25.5,233.5" stroke="black" stroke-width="2" fill="none" />
<polyline points="13.0,221.0,5.0,228.0" stroke="black" stroke-width="2" fill="none" />
<polyline points="3.0,225.0,11.0,224.5,19.0,223.0,27.0,222.0,35.0,222.0,43.0,221.5,50.5,221.0,58.5,220.0" stroke="black" stroke-width="2" fill="none" />
<polyline points="42.5,215.5,34.5,215.5,26.0,216.0,18.5,216.5" stroke="black" stroke-width="2" fill="none" />
<polyline points="2.5,212.0,10.5,211.5,18.5,211.5,26.0,211.5,33.5,211.0,41.5,211.0,49.5,211.0,58.0,211.0,66.0,210.5,74.0,209.5,82.5,209.0,90.0,208.0,98.0,208.0,106.0,207.0,114.5,206.5,122.5,205.0,131.5,204.5" stroke="black" stroke-width="2" fill="none" />
<polyline points="122.5,214.0,114.0,214.5,106.5,215.0,98.5,216.0,91.0,216.5,83.0,217.0,75.0,217.5,66.5,217.5,58.5,217.5,50.5,217.0,43.0,217.0,34.5,218.0,26.5,219.0,18.5,219.5,10.0,220.0,1.5,220.0" stroke="black" stroke-width="2" fill="none" />
<polyline points="2.5,171.5,11.0,171.0,18.5,171.0,26.0,171.0,33.5,170.5,41.5,170.0,49.5,170.0,57.5,170.5,66.0,170.5,74.5,171.0,82.5,171.0,90.5,170.0,98.0,169.0,105.5,168.0,114.0,167.0,122.5,166.0,130.5,165.5,139.0,165.0" stroke="black" stroke-width="2" fill="none" />
<polyline points="138.0,149.0,130.0,149.5,122.0,149.5,114.5,150.0,107.0,150.5,99.5,151.0,92.0,152.0,84.5,153.0,76.0,153.0,68.0,153.0,60.5,153.0,53.0,153.5,45.0,154.0,37.0,154.5,29.0,155.0,20.5,155.5,13.0,156.5,5.0,157.5" stroke="black" stroke-width="2" fill="none" />
<polyline points="5.0,150.5,13.0,150.0,21.0,149.0,28.0,148.0,35.5,147.0,42.5,146.0,50.5,145.5,58.5,144.5,66.5,144.0,75.0,143.5,83.5,143.0,91.0,142.0,99.0,141.5,107.0,141.0,115.5,140.5,123.5,140.0,132.5,139.5,140.5,139.0,148.0,138.5" stroke="black" stroke-width="2" fill="none" />
<polyline points="147.0,131.0,138.5,132.0,130.0,133.0,121.5,134.0,114.0,135.0,106.0,136.0,97.5,136.5,89.5,136.5,81.5,137.0,73.5,137.0,66.0,137.5,58.0,138.0,50.0,139.0,42.0,140.0,34.0,140.5,26.0,141.0,18.0,142.5,10.5,143.5,2.0,144.0" stroke="black" stroke-width="2" fill="none" />
<polyline points="3.0,113.0,10.5,113.0,18.0,112.5" stroke="black" stroke-width="2" fill="none" />
<polyline points="2.0,107.5,10.5,107.0,18.5,106.5,27.0,105.5,35.0,105.0,43.0,104.5,51.0,104.0,58.5,103.5,66.0,103.0,73.5,102.0,82.0,101.5,90.0,101.0,98.0,101.0,106.5,101.0,115.0,101.5,123.0,101.5,131.0,100.5,138.0,99.5,145.5,99.0" stroke="black" stroke-width="2" fill="none" />
<polyline points="155.0,89.5,147.0,90.5,139.5,91.0,131.5,91.5,123.5,92.5,115.5,93.0,107.0,93.5,99.0,94.0,90.5,94.5,82.5,94.5,74.5,96.0,66.5,97.0,59.0,98.5,51.5,99.0,43.5,100.5,35.0,101.0,26.0,101.5,18.0,102.5,9.5,103.0,1.5,103.0" stroke="black" stroke-width="2" fill="none" />
<polyline points="3.0,98.0,10.5,97.5,18.0,96.5" stroke="black" stroke-width="2" fill="none" />
<polyline points="4.5,90.0,12.0,89.5,19.5,88.5,27.0,88.0,35.0,88.0,43.0,87.5,51.0,87.5,58.5,87.0,67.0,87.0,75.0,87.0,83.0,86.5,91.0,86.0" stroke="black" stroke-width="2" fill="none" />
<polyline points="156.0,70.5,147.5,71.5,139.5,72.5,131.0,73.0,122.5,73.0,115.0,74.0,106.5,74.5,98.5,75.5,91.0,76.0,83.0,77.0,74.5,77.0,66.5,77.5,59.0,77.5,51.5,78.5,43.5,78.5,35.5,79.0,28.0,79.5,20.0,80.0,12.0,81.0,4.0,82.0" stroke="black" stroke-width="2" fill="none" />
<polyline points="3.5,59.0,12.0,58.5,20.0,58.0" stroke="black" stroke-width="2" fill="none" />
<polyline points="2.5,35.0,10.5,35.0,19.0,34.5,27.0,34.0,34.5,34.0,42.5,33.5,50.5,33.5,58.5,33.5,67.0,33.0,75.5,32.5,84.0,32.5,91.5,31.5,99.5,31.0,107.5,30.5,115.5,29.0,124.0,28.5,132.5,28.0,141.0,28.0,149.5,27.5,157.5,27.0,166.0,26.5,173.5,26.0,181.0,25.0,188.0,24.5,195.5,24.0,203.0,23.5,210.5,23.5,218.5,23.5,226.5,23.0,234.5,23.0,242.0,22.5,250.0,22.0,257.5,21.0,265.0,21.0,273.0,21.0,281.0,21.0,289.0,20.5,297.5,19.5,306.0,18.5" stroke="black" stroke-width="2" fill="none" />
</svg>