<svg xmlns="http://www.w3.org/2000/svg" version="1.1"><polyline points="90.5,246.5,98.0,246.0,106.5,245.5,114.5,245.0,122.0,244.5" stroke="black" stroke-width="2" fill="none" />
<polyline points="123.5,245.5,115.0,253.0" stroke="black" stroke-width="2" fill="none" />
<polyline points="108.5,252.5,116.5,252.5,124.0,253.0,131.5,253.0" stroke="black" stroke-width="2" fill="none" />
<polyline points="130.0,249.0,138.0,248.5" stroke="black" stroke-width="2" fill="none" />
<polyline points="138.0,248.5,146.0,240.5,153.5,233.0,162.0,225.5,170.5,218.0,178.5,210.5" stroke="black" stroke-width="2" fill="none" />
<polyline points="178.0,217.0,170.0,218.0" stroke="black" stroke-width="2" fill="none" />
<polyline points="172.5,213.5,180.0,213.0,187.5,212.0" stroke="black" stroke-width="2" fill="none" />
<polyline points="186.0,217.5,178.5,225.0" stroke="black" stroke-width="2" fill="none" />
<polyline points="178.0,218.0,170.0,225.5,162.0,233.0,154.5,240.5,146.0,248.5,138.0,256.0,130.0,264.0,122.0,272.0" stroke="black" stroke-width="2" fill="none" />
<polyline points="124.0,268.5,132.0,268.0,140.5,267.5,149.0,267.0,156.5,266.5,164.0,266.0,172.0,265.5,180.0,265.0,188.0,264.5" stroke="black" stroke-width="2" fill="none" />
<polyline points="187.0,268.0,195.0,260.5" stroke="black" stroke-width="2" fill="none" />
<polyline points="202.5,259.5,211.0,252.0,219.5,244.5" stroke="black" stroke-width="2" fill="none" />
<polyline points="211.5,242.0,203.5,249.0" stroke="black" stroke-width="2" fill="none" />
<polyline points="203.5,250.5,212.0,250.0" stroke="black" stroke-width="2" fill="none" />
<polyline points="219.0,259.0,227.0,252.0" stroke="black" stroke-width="2" fill="none" />
<polyline points="236.5,258.5,229.0,266.0" stroke="black" stroke-width="2" fill="none" />
<polyline points="228.5,267.5,236.5,267.0" stroke="black" stroke-width="2" fill="none" />
<polyline points="236.5,276.5,228.5,284.0,220.0,291.0" stroke="black" stroke-width="2" fill="none" />
<polyline points="220.0,296.0,228.5,295.0,237.0,294.5" stroke="black" stroke-width="2" fill="none" />
<polyline points="235.5,291.5,227.5,299.0" stroke="black" stroke-width="2" fill="none" />
<polyline points="229.5,302.5,237.5,301.5,245.0,301.5,252.5,301.5,260.0,301.5,268.0,301.0,276.0,300.0,283.5,299.5" stroke="black" stroke-width="2" fill="none" />
<polyline points="284.5,301.5,276.5,308.5,269.0,315.5" stroke="black" stroke-width="2" fill="none" />
<polyline points="267.0,314.0,275.5,314.0" stroke="black" stroke-width="2" fill="none" />
<polyline points="273.5,316.0,282.0,316.0,290.5,316.5,298.5,316.5,306.5,316.5,315.0,316.5" stroke="black" stroke-width="2" fill="none" />
<polyline points="315.0,316.5,307.0,323.5" stroke="black" stroke-width="2" fill="none" />
<polyline points="298.5,322.5,290.5,330.0" stroke="black" stroke-width="2" fill="none" />
<polyline points="291.0,331.0,299.5,330.5" stroke="black" stroke-width="2" fill="none" />
<polyline points="299.0,340.0,307.5,339.5" stroke="black" stroke-width="2" fill="none" />
<polyline points="314.0,342.0,322.0,341.5" stroke="black" stroke-width="2" fill="none" />
<polyline points="331.0,339.0,339.0,331.0" stroke="black" stroke-width="2" fill="none" />
<polyline points="346.5,333.0,338.5,341.0" stroke="black" stroke-width="2" fill="none" />
<polyline points="333.0,341.0,341.0,341.0,348.5,340.5,356.5,340.0,364.0,339.0,372.0,338.5,379.5,338.0" stroke="black" stroke-width="2" fill="none" />
<polyline points="378.5,341.0,370.5,348.5,362.5,355.5,355.0,363.0" stroke="black" stroke-width="2" fill="none" />
<polyline points="356.0,361.5,364.0,361.0,372.0,361.0,380.0,360.0,387.5,359.5,395.5,358.0" stroke="black" stroke-width="2" fill="none" />
<polyline points="394.0,357.0,386.5,364.5,378.5,371.5" stroke="black" stroke-width="2" fill="none" />
<polyline points="372.5,371.0,380.5,363.5,389.0,356.0" stroke="black" stroke-width="2" fill="none" />
<polyline points="388.5,350.5,380.5,358.0,372.0,364.5,363.5,371.5" stroke="black" stroke-width="2" fill="none" />
<polyline points="365.0,369.5,373.5,369.0,381.5,368.5,389.0,368.0,397.0,367.0,405.0,366.5" stroke="black" stroke-width="2" fill="none" />
<polyline points="402.5,363.0,394.5,370.5,386.5,378.5" stroke="black" stroke-width="2" fill="none" />
<polyline points="387.5,385.0,396.0,385.0,404.5,384.5" stroke="black" stroke-width="2" fill="none" />
<polyline points="401.5,381.0,394.0,388.0,386.0,395.0,378.5,402.0,370.5,409.5,362.5,417.0,355.0,424.5,347.0,432.0,339.0,439.5" stroke="black" stroke-width="2" fill="none" />
<polyline points="341.0,436.0,333.0,443.0,324.5,450.5" stroke="black" stroke-width="2" fill="none" />
<polyline points="322.5,455.0,330.5,454.5,339.0,453.5,347.0,452.5,354.5,451.5,362.5,450.5,371.0,450.0,379.0,449.0,387.5,448.5,395.0,448.5,403.0,448.0,411.5,447.5,420.5,446.5,428.5,446.0,436.5,445.0,445.0,444.5,452.5,443.5,460.5,443.0" stroke="black" stroke-width="2" fill="none" />
<polyline points="460.0,445.5,468.0,445.5" stroke="black" stroke-width="2" fill="none" />
<polyline points="476.5,445.5,484.0,445.0,492.0,445.0" stroke="black" stroke-width="2" fill="none" />
<polyline points="501.0,453.0,508.5,452.5,516.0,451.5" stroke="black" stroke-width="2" fill="none" />
<polyline points="509.5,463.0,501.5,463.5" stroke="black" stroke-width="2" fill="none" />
<polyline points="493.0,472.5,501.0,471.5,509.0,470.5,517.0,469.5" stroke="black" stroke-width="2" fill="none" />
<polyline points="500.5,500.5,492.5,508.0" stroke="black" stroke-width="2" fill="none" />
<polyline points="502.0,507.0,493.5,515.0,485.5,522.5" stroke="black" stroke-width="2" fill="none" />
<polyline points="483.5,529.5,475.5,537.0,467.0,545.0,459.0,553.0,452.0,561.5,444.5,569.5,437.0,577.0" stroke="black" stroke-width="2" fill="none" />
<polyline points="435.5,578.0,443.5,577.5" stroke="black" stroke-width="2" fill="none" />
<polyline points="442.0,580.5,434.0,587.5" stroke="black" stroke-width="2" fill="none" />
<polyline points="437.0,585.5,445.0,585.0,453.0,584.0" stroke="black" stroke-width="2" fill="none" />
<polyline points="450.0,587.5,458.0,580.0,466.5,572.5,474.5,564.5" stroke="black" stroke-width="2" fill="none" />
<polyline points="467.5,561.5,475.5,554.0,483.5,546.5,492.0,539.0,500.0,531.5" stroke="black" stroke-width="2" fill="none" />
<polyline points="498.5,540.0,507.0,539.0" stroke="black" stroke-width="2" fill="none" />
<polyline points="506.0,540.5,498.0,548.0" stroke="black" stroke-width="2" fill="none" />
<polyline points="499.0,553.5,507.0,553.0" stroke="black" stroke-width="2" fill="none" />
<polyline points="506.5,548.5,498.5,556.0,491.0,563.0,483.5,570.0" stroke="black" stroke-width="2" fill="none" />
<polyline points="485.0,569.5,493.0,569.5" stroke="black" stroke-width="2" fill="none" />
<polyline points="500.5,564.0,492.0,571.5,484.0,579.5,475.5,587.5,467.0,595.5,458.5,603.0,450.5,610.5,443.0,617.5" stroke="black" stroke-width="2" fill="none" />
<polyline points="443.0,612.5,435.0,620.0,426.5,627.5" stroke="black" stroke-width="2" fill="none" />
<polyline points="426.0,636.0,433.5,636.0,441.5,635.5,450.5,635.0,459.0,634.5,468.0,634.5,476.5,634.5,484.5,635.0,492.5,635.5,501.0,635.5,509.0,635.5,517.0,634.5" stroke="black" stroke-width="2" fill="none" />
<polyline points="515.0,634.5,507.0,642.5" stroke="black" stroke-width="2" fill="none" />
<polyline points="515.0,644.0,507.0,651.0,499.5,658.5" stroke="black" stroke-width="2" fill="none" />
<polyline points="508.5,667.0,516.5,667.0" stroke="black" stroke-width="2" fill="none" />
<polyline points="515.5,660.5,507.5,668.0" stroke="black" stroke-width="2" fill="none" />
<polyline points="506.5,691.0,514.5,690.5" stroke="black" stroke-width="2" fill="none" />
<polyline points="498.0,692.5,490.0,693.0" stroke="black" stroke-width="2" fill="none" />
<polyline points="491.0,684.5,499.0,684.0,507.0,683.0,515.0,682.5" stroke="black" stroke-width="2" fill="none" />
<polyline points="516.5,708.0,508.5,708.5,500.5,709.0,493.0,709.0,485.0,709.5" stroke="black" stroke-width="2" fill="none" />
<polyline points="484.5,675.0,492.5,674.5,500.5,674.0,508.0,673.5,515.0,673.5" stroke="black" stroke-width="2" fill="none" />
<polyline points="490.0,649.0,498.0,641.5,506.0,634.0,514.0,626.0" stroke="black" stroke-width="2" fill="none" />
<polyline points="509.5,628.5,502.0,636.0" stroke="black" stroke-width="2" fill="none" />
<polyline points="509.5,633.0,517.5,632.0" stroke="black" stroke-width="2" fill="none" />
<polyline points="510.0,617.0,502.0,625.0" stroke="black" stroke-width="2" fill="none" />
<polyline points="498.0,624.0,490.0,624.5" stroke="black" stroke-width="2" fill="none" />
<polyline points="482.0,627.0,490.0,620.0,498.5,613.0,506.5,605.5,514.5,598.0" stroke="black" stroke-width="2" fill="none" />
<polyline points="514.5,603.0,506.5,611.0,498.0,618.5,490.5,626.5,483.0,634.0,475.5,641.5" stroke="black" stroke-width="2" fill="none" />
<polyline points="483.0,654.0,475.5,661.5" stroke="black" stroke-width="2" fill="none" />
<polyline points="468.0,663.0,476.0,663.0,483.5,662.5,491.0,662.5,498.5,662.5,506.5,662.0,514.5,661.5" stroke="black" stroke-width="2" fill="none" />
<polyline points="499.0,668.5,490.5,668.5,482.5,668.5,474.0,669.0" stroke="black" stroke-width="2" fill="none" />
<polyline points="459.0,647.0,467.0,646.5,475.0,646.0,483.0,645.0,491.0,645.0,499.0,644.5,507.0,644.0,515.0,643.0" stroke="black" stroke-width="2" fill="none" />
<polyline points="515.5,609.5,507.5,609.5" stroke="black" stroke-width="2" fill="none" />
<polyline points="505.5,604.0,513.5,603.5" stroke="black" stroke-width="2" fill="none" />
<polyline points="507.0,594.0,499.5,601.5,492.0,609.0,484.0,617.0,476.0,625.0" stroke="black" stroke-width="2" fill="none" />
<polyline points="475.5,620.5,468.0,628.5" stroke="black" stroke-width="2" fill="none" />
<polyline points="459.0,619.5,467.0,611.5" stroke="black" stroke-width="2" fill="none" />
<polyline points="460.0,612.0,467.5,605.0,476.0,598.0" stroke="black" stroke-width="2" fill="none" />
<polyline points="475.5,602.0,484.0,602.0,491.5,601.0" stroke="black" stroke-width="2" fill="none" />
<polyline points="491.5,609.0,499.5,608.5" stroke="black" stroke-width="2" fill="none" />
<polyline points="483.0,608.5,491.5,600.5,500.5,593.5,508.5,586.0" stroke="black" stroke-width="2" fill="none" />
<polyline points="498.0,588.0,490.0,595.5,482.5,603.0,475.0,610.0,467.5,616.5,460.0,623.5,451.5,631.0" stroke="black" stroke-width="2" fill="none" />
<polyline points="443.0,628.0,435.0,636.0" stroke="black" stroke-width="2" fill="none" />
<polyline points="425.0,646.0,433.5,645.5,442.0,645.5,450.0,645.0" stroke="black" stroke-width="2" fill="none" />
<polyline points="451.0,653.0,459.0,652.5,468.0,652.0,476.5,651.5,485.0,651.0,493.0,650.5,501.0,650.0,509.5,649.5,517.5,649.0" stroke="black" stroke-width="2" fill="none" />
<polyline points="492.0,616.5,484.0,617.0" stroke="black" stroke-width="2" fill="none" />
<polyline points="482.5,608.0,475.0,608.5" stroke="black" stroke-width="2" fill="none" />
<polyline points="474.0,603.5,482.0,595.5,490.0,588.0,498.0,580.5" stroke="black" stroke-width="2" fill="none" />
<polyline points="483.0,585.5,491.5,579.0,499.5,571.5,507.5,564.5,516.0,557.0" stroke="black" stroke-width="2" fill="none" />
<polyline points="518.0,525.5,510.0,532.5,502.0,539.5,493.5,547.0,484.5,554.0" stroke="black" stroke-width="2" fill="none" />
<polyline points="485.0,554.0,477.0,555.0" stroke="black" stroke-width="2" fill="none" />
<polyline points="475.5,545.5,483.0,545.0" stroke="black" stroke-width="2" fill="none" />
<polyline points="475.5,530.5,467.5,538.0,459.5,546.0,451.0,554.5,442.5,562.5" stroke="black" stroke-width="2" fill="none" />
<polyline points="436.0,560.5,444.5,553.0,452.5,545.5,460.5,538.0,468.5,530.5,476.5,523.0" stroke="black" stroke-width="2" fill="none" />
<polyline points="475.0,514.5,467.0,522.0,458.5,530.0,450.5,538.0,442.5,546.0,434.5,553.5,426.0,561.5,418.5,568.5,410.5,575.5,402.5,583.0,394.5,590.5,386.5,598.0,378.0,605.0" stroke="black" stroke-width="2" fill="none" />
<polyline points="372.0,603.0,380.5,596.5,389.0,589.5" stroke="black" stroke-width="2" fill="none" />
<polyline points="386.5,594.5,393.5,587.0,401.0,579.0,409.0,571.0" stroke="black" stroke-width="2" fill="none" />
<polyline points="402.5,565.5,394.5,573.0" stroke="black" stroke-width="2" fill="none" />
<polyline points="394.5,577.5,402.5,570.0,410.0,562.5,418.0,555.0,426.0,548.0,433.5,540.5,441.5,533.5" stroke="black" stroke-width="2" fill="none" />
<polyline points="444.0,538.5,451.5,537.5" stroke="black" stroke-width="2" fill="none" />
<polyline points="450.5,530.5,443.0,538.0,435.5,546.5,428.0,554.5,421.0,562.0" stroke="black" stroke-width="2" fill="none" />
<polyline points="426.0,560.5,434.0,560.0" stroke="black" stroke-width="2" fill="none" />
<polyline points="434.5,570.5,426.0,578.0,418.5,585.5" stroke="black" stroke-width="2" fill="none" />
<polyline points="427.0,586.5,419.0,594.0,410.5,602.0,402.5,610.0,394.0,617.0" stroke="black" stroke-width="2" fill="none" />
<polyline points="389.0,619.5,396.5,612.0,404.0,605.0" stroke="black" stroke-width="2" fill="none" />
<polyline points="411.5,616.5,420.0,608.5,428.5,601.0,436.5,593.5" stroke="black" stroke-width="2" fill="none" />
<polyline points="441.5,596.5,433.5,604.0,426.0,611.5,418.0,619.5" stroke="black" stroke-width="2" fill="none" />
<polyline points="413.0,611.5,421.5,603.5" stroke="black" stroke-width="2" fill="none" />
<polyline points="436.5,609.0,444.5,601.5,451.5,594.5,459.0,586.5,467.0,579.0,474.5,571.5,482.5,564.0" stroke="black" stroke-width="2" fill="none" />
<polyline points="474.0,581.0,466.0,588.5" stroke="black" stroke-width="2" fill="none" />
<polyline points="460.5,586.0,468.5,585.0,476.5,585.0" stroke="black" stroke-width="2" fill="none" />
<polyline points="461.0,594.5,452.5,602.0" stroke="black" stroke-width="2" fill="none" />
<polyline points="457.5,611.5,466.0,611.0" stroke="black" stroke-width="2" fill="none" />
<polyline points="466.5,618.0,458.5,618.5" stroke="black" stroke-width="2" fill="none" />
<polyline points="445.0,608.5,437.0,609.0" stroke="black" stroke-width="2" fill="none" />
<polyline points="445.0,587.5,453.5,580.0,461.0,572.5" stroke="black" stroke-width="2" fill="none" />
<polyline points="460.0,564.5,452.0,572.0" stroke="black" stroke-width="2" fill="none" />
<polyline points="452.5,555.0,444.5,555.5" stroke="black" stroke-width="2" fill="none" />
<polyline points="429.5,570.5,421.5,578.0,413.0,586.0,405.0,594.0,396.5,602.0" stroke="black" stroke-width="2" fill="none" />
<polyline points="396.5,593.5,388.0,595.0,379.5,595.5" stroke="black" stroke-width="2" fill="none" />
<polyline points="386.5,586.0,378.5,586.5,370.5,587.0" stroke="black" stroke-width="2" fill="none" />
<polyline points="363.5,588.5,371.0,581.0,379.5,573.5,388.0,566.5,396.0,559.0,404.0,551.5,412.0,544.5,420.5,537.5,429.0,530.5,437.0,523.5,445.5,516.0,453.5,509.0" stroke="black" stroke-width="2" fill="none" />
<polyline points="453.5,516.0,445.5,523.5,437.5,530.5,429.5,538.0,421.5,545.0,413.5,552.5" stroke="black" stroke-width="2" fill="none" />
<polyline points="413.5,559.5,421.0,559.0" stroke="black" stroke-width="2" fill="none" />
<polyline points="420.5,569.0,428.5,568.5" stroke="black" stroke-width="2" fill="none" />
<polyline points="428.0,575.5,420.0,576.0" stroke="black" stroke-width="2" fill="none" />
<polyline points="404.0,582.5,396.0,583.0" stroke="black" stroke-width="2" fill="none" />
<polyline points="389.5,579.5,381.0,586.5,372.5,594.5,364.0,602.0" stroke="black" stroke-width="2" fill="none" />
<polyline points="364.0,605.0,372.0,604.5,379.5,604.0,387.5,603.5,395.0,603.5,403.0,603.5,411.0,603.0,420.0,601.5,428.0,601.0,436.5,600.5,444.5,600.0,452.5,599.5,460.0,599.0,468.0,598.5,476.0,598.5,484.0,598.0,492.0,597.5,499.5,597.5,507.5,597.0,515.5,597.0" stroke="black" stroke-width="2" fill="none" />
<polyline points="467.0,552.5,474.5,545.5,482.0,538.5,489.5,531.5,497.0,525.0,505.0,517.5" stroke="black" stroke-width="2" fill="none" />
<polyline points="505.5,510.0,514.0,509.5" stroke="black" stroke-width="2" fill="none" />
<polyline points="474.5,507.0,467.0,514.5,459.0,522.0" stroke="black" stroke-width="2" fill="none" />
<polyline points="452.0,522.0,460.0,521.5,467.5,521.0,475.0,520.5" stroke="black" stroke-width="2" fill="none" />
<polyline points="476.0,529.0,467.5,529.5,459.0,530.0" stroke="black" stroke-width="2" fill="none" />
<polyline points="450.5,521.5,459.0,514.0,467.0,507.0,475.5,500.0" stroke="black" stroke-width="2" fill="none" />
<polyline points="474.0,493.0,466.0,500.5" stroke="black" stroke-width="2" fill="none" />
<polyline points="468.0,497.5,460.5,498.0" stroke="black" stroke-width="2" fill="none" />
<polyline points="460.0,498.5,468.0,491.5" stroke="black" stroke-width="2" fill="none" />
<polyline points="451.0,491.5,443.0,499.5,435.0,507.0,427.5,514.0,419.5,521.5,411.0,528.0,403.0,535.5,395.0,543.5,386.5,551.5,378.5,559.5,370.5,567.5,362.5,575.0,355.0,582.0,347.5,589.0" stroke="black" stroke-width="2" fill="none" />
<polyline points="341.0,591.5,348.0,590.5,355.5,589.5,363.0,588.5,370.5,587.5,379.0,587.5,387.0,586.5,395.0,586.0,403.5,586.0,411.5,586.0,419.5,586.0,428.0,585.0,435.5,584.5,443.5,583.5,451.0,583.0,458.5,582.0,467.0,581.5,475.5,581.0,484.0,580.5,492.5,580.5,500.0,580.0,508.0,579.5,515.5,579.0" stroke="black" stroke-width="2" fill="none" />
<polyline points="441.5,524.0,434.0,524.0" stroke="black" stroke-width="2" fill="none" />
<polyline points="427.0,514.0,435.0,513.0,444.0,512.5" stroke="black" stroke-width="2" fill="none" />
<polyline points="452.5,501.0,445.0,508.5,437.0,515.5,429.0,523.0,421.0,530.0,412.5,537.0,404.5,544.0,396.0,551.5,388.0,558.5,380.5,566.0,372.5,573.0" stroke="black" stroke-width="2" fill="none" />
<polyline points="370.0,570.0,378.0,570.0,386.0,570.0" stroke="black" stroke-width="2" fill="none" />
<polyline points="396.5,568.0,404.0,568.0,411.5,568.0" stroke="black" stroke-width="2" fill="none" />
<polyline points="403.0,545.0,411.0,544.5,419.0,544.0,427.5,544.0,435.5,544.5,443.5,544.5" stroke="black" stroke-width="2" fill="none" />
<polyline points="434.0,536.5,426.0,537.0" stroke="black" stroke-width="2" fill="none" />
<polyline points="419.5,512.5,411.5,512.5" stroke="black" stroke-width="2" fill="none" />
<polyline points="419.5,492.5,411.5,500.0,403.5,508.0,395.5,515.5,387.5,523.0,379.0,530.0,371.0,538.0,363.0,545.5,354.5,553.0" stroke="black" stroke-width="2" fill="none" />
<polyline points="362.5,551.5,370.5,544.0,378.5,537.0,386.5,529.5,394.5,522.0,402.5,514.5,410.5,506.5,418.5,498.5,426.5,490.5,434.5,483.0" stroke="black" stroke-width="2" fill="none" />
<polyline points="433.5,476.5,425.0,483.5" stroke="black" stroke-width="2" fill="none" />
<polyline points="419.0,483.5,411.0,491.0,403.0,498.5,394.5,506.0,386.5,513.5,378.5,521.0,371.0,528.5,363.5,536.0,355.5,543.0,347.5,550.5,339.5,557.5,331.5,565.0,323.5,573.0" stroke="black" stroke-width="2" fill="none" />
<polyline points="322.0,574.5,330.0,573.5,338.5,573.0,346.5,572.5,354.5,571.5,362.5,571.0,371.0,570.0,379.0,569.5,387.0,569.0,395.5,568.5,403.0,568.5,411.0,568.0,419.0,567.0,427.5,567.0,435.5,566.5,443.5,566.0,452.5,566.0,461.0,565.5,469.5,564.5,477.5,564.0,485.5,563.5,493.5,562.5,501.0,562.5,508.5,561.5,516.5,561.0" stroke="black" stroke-width="2" fill="none" />
<polyline points="451.5,496.5,443.5,497.0" stroke="black" stroke-width="2" fill="none" />
<polyline points="443.5,490.5,435.0,498.0,427.5,505.5,419.0,513.0,411.0,520.5,403.0,528.5,395.5,536.0,387.5,543.5,380.0,551.0,372.0,559.0,364.0,566.5,356.0,574.0" stroke="black" stroke-width="2" fill="none" />
<polyline points="355.0,569.0,363.5,561.5,371.0,553.5,379.0,546.0,387.0,538.5,394.0,531.0,402.5,523.0,411.0,514.5,419.0,506.0,426.5,498.0,434.5,490.5" stroke="black" stroke-width="2" fill="none" />
<polyline points="450.0,475.0,458.5,467.5" stroke="black" stroke-width="2" fill="none" />
<polyline points="475.5,453.0,483.5,452.0" stroke="black" stroke-width="2" fill="none" />
<polyline points="452.0,445.0,444.5,445.5" stroke="black" stroke-width="2" fill="none" />
<polyline points="443.5,437.5,452.0,436.5" stroke="black" stroke-width="2" fill="none" />
<polyline points="437.5,420.5,429.5,421.5" stroke="black" stroke-width="2" fill="none" />
<polyline points="436.5,438.0,427.5,439.0,419.5,440.0" stroke="black" stroke-width="2" fill="none" />
<polyline points="411.5,452.0,403.5,459.5,396.0,466.5,388.0,474.0,380.0,481.5,372.0,489.0,364.0,496.5,356.0,504.0,347.5,511.5,339.0,519.0,331.0,526.5,323.0,534.5,315.0,541.5,307.0,549.0,299.0,556.0" stroke="black" stroke-width="2" fill="none" />
<polyline points="300.5,551.5,308.5,551.0,317.0,550.5,325.0,550.0" stroke="black" stroke-width="2" fill="none" />
<polyline points="323.0,550.0,331.5,543.0,339.0,535.0,346.5,527.0,354.5,519.5,363.0,512.0,371.0,504.5,379.5,496.5,387.5,488.5,396.0,480.5,404.5,473.0,413.0,465.5" stroke="black" stroke-width="2" fill="none" />
<polyline points="409.5,459.5,401.5,467.0,394.0,475.0,386.0,483.0,378.0,491.0,370.0,498.5,362.0,506.0,354.0,514.0,346.0,521.0,338.0,528.5,330.0,536.0,322.0,543.5,315.0,550.5,307.0,557.5" stroke="black" stroke-width="2" fill="none" />
<polyline points="307.0,562.5,315.0,562.0" stroke="black" stroke-width="2" fill="none" />
<polyline points="315.0,565.0,323.0,557.5,330.5,550.0,338.5,542.5,346.5,535.0,355.0,527.0,363.0,519.0,371.5,511.5,379.5,504.0,388.0,497.0,396.5,490.0,405.0,482.5,413.0,475.0" stroke="black" stroke-width="2" fill="none" />
<polyline points="411.0,483.5,403.5,491.0,395.5,498.5,388.0,505.5,380.5,512.5,372.5,520.0,364.0,528.0,356.0,535.0,347.5,542.5,339.0,550.0" stroke="black" stroke-width="2" fill="none" />
<polyline points="334.5,551.5,342.0,551.0,350.0,551.0,357.5,551.5" stroke="black" stroke-width="2" fill="none" />
<polyline points="363.5,562.0,371.5,562.0,380.5,562.0,389.0,561.5,397.0,561.5,405.5,561.5" stroke="black" stroke-width="2" fill="none" />
<polyline points="389.5,579.0,382.0,580.0" stroke="black" stroke-width="2" fill="none" />
<polyline points="361.0,586.5,353.0,594.5" stroke="black" stroke-width="2" fill="none" />
<polyline points="354.0,592.5,362.5,592.0" stroke="black" stroke-width="2" fill="none" />
<polyline points="355.5,597.0,363.5,596.5,371.0,596.0,379.0,595.5,387.5,594.5,395.5,594.0,403.5,594.0,411.5,593.5,419.5,593.0,428.0,592.0,435.5,591.5,443.5,591.5,451.5,591.0,460.0,590.5,468.0,590.0,476.5,590.0,484.0,589.5,492.0,589.0,500.0,588.5,508.0,588.0,516.5,587.5" stroke="black" stroke-width="2" fill="none" />
<polyline points="421.5,636.5,413.5,637.5" stroke="black" stroke-width="2" fill="none" />
<polyline points="394.5,629.5,402.5,629.0,410.0,628.0,418.5,627.0,427.0,627.0,435.0,627.0,443.0,627.0,450.5,627.0,458.5,627.0,467.0,627.0,475.0,626.0,483.0,625.5,491.0,625.0,499.0,624.0,507.0,624.0,515.0,623.5" stroke="black" stroke-width="2" fill="none" />
<polyline points="427.0,707.0,418.5,707.5" stroke="black" stroke-width="2" fill="none" />
<polyline points="395.5,708.0,387.0,708.5" stroke="black" stroke-width="2" fill="none" />
<polyline points="379.5,623.0,388.0,622.0,395.5,621.5,403.5,620.5,411.0,620.0,418.5,619.0,427.0,618.5,435.5,618.0,444.0,617.5,452.5,617.5,460.0,617.0,468.0,616.5,475.5,616.0,483.0,615.5,491.0,615.0,498.5,614.5,506.5,614.0,514.5,613.5" stroke="black" stroke-width="2" fill="none" />
<polyline points="514.0,607.0,506.5,607.5,499.0,607.5,491.5,608.0,484.0,608.5,476.5,609.0,468.5,610.0,460.5,610.5,452.5,611.0,444.5,611.5,436.5,612.0,429.0,612.5,421.0,613.0,413.0,613.5,405.5,613.5,397.5,614.0,389.5,614.0,381.5,615.0" stroke="black" stroke-width="2" fill="none" />
<polyline points="371.5,612.5,363.0,613.0" stroke="black" stroke-width="2" fill="none" />
<polyline points="348.5,571.5,356.0,564.5" stroke="black" stroke-width="2" fill="none" />
<polyline points="348.0,565.5,340.0,572.5,333.0,580.0" stroke="black" stroke-width="2" fill="none" />
<polyline points="333.0,579.0,340.5,578.0" stroke="black" stroke-width="2" fill="none" />
<polyline points="332.0,581.5,340.0,581.0,347.5,580.0,355.5,579.5,363.0,579.0,370.5,578.0,378.5,577.5,385.5,577.0,393.5,576.5,401.5,576.0,409.5,576.0,417.5,576.0,425.5,575.5,434.0,575.0,442.5,574.0,450.5,573.5,459.5,573.5,467.5,572.5,476.0,572.0,485.0,571.5,493.0,571.0,501.0,570.5,509.0,570.0,517.0,569.0" stroke="black" stroke-width="2" fill="none" />
<polyline points="412.0,552.0,404.0,552.5,396.0,553.5,388.0,554.5,379.5,555.0" stroke="black" stroke-width="2" fill="none" />
<polyline points="346.0,561.0,337.5,561.0" stroke="black" stroke-width="2" fill="none" />
<polyline points="330.0,564.0,322.5,571.0" stroke="black" stroke-width="2" fill="none" />
<polyline points="322.5,561.5,331.0,561.0" stroke="black" stroke-width="2" fill="none" />
<polyline points="333.5,570.0,341.0,569.5,349.0,569.0" stroke="black" stroke-width="2" fill="none" />
<polyline points="314.5,574.0,306.5,575.0" stroke="black" stroke-width="2" fill="none" />
<polyline points="307.0,568.0,315.0,567.0,323.0,566.5,331.0,565.5,339.5,565.0,347.5,564.0,356.0,563.0,364.5,562.0,372.5,561.5,380.0,560.5,388.0,560.5,396.0,560.0,404.0,560.0,412.0,559.0,419.5,558.5,427.5,557.0,435.5,556.5,443.0,556.0,451.5,555.5,460.0,555.0,468.5,554.0,476.0,554.0,483.5,554.0,491.0,554.0,498.5,553.5,506.5,553.0,514.5,553.5" stroke="black" stroke-width="2" fill="none" />
<polyline points="411.0,464.0,403.0,464.5,394.5,465.0" stroke="black" stroke-width="2" fill="none" />
<polyline points="395.0,461.0,403.0,453.5" stroke="black" stroke-width="2" fill="none" />
<polyline points="403.0,444.0,395.0,451.0,386.5,458.5,379.0,466.0,371.5,473.5,363.5,481.0,356.0,488.5,348.0,496.0,340.0,504.0,332.0,512.0,324.0,519.5,316.0,527.0,307.5,534.0,299.5,541.5,291.0,549.0" stroke="black" stroke-width="2" fill="none" />
<polyline points="290.5,554.5,299.0,554.5,307.0,555.0,315.0,555.5,322.5,555.5,330.5,555.0,338.5,554.5,346.5,554.0,354.5,553.5,362.0,553.0,369.5,552.0,378.0,552.0,386.0,551.5,394.5,551.5,402.5,551.5,411.0,551.5,419.5,551.0,428.5,550.5,437.0,550.0,445.5,549.5,453.5,549.0,461.5,548.0,469.5,548.0,477.5,547.5,485.0,547.5,493.0,547.0,501.0,546.5,508.5,546.0,516.5,545.5" stroke="black" stroke-width="2" fill="none" />
<polyline points="388.5,466.0,380.5,473.5,372.5,481.5" stroke="black" stroke-width="2" fill="none" />
<polyline points="377.0,482.0,385.5,481.5,393.5,481.0,402.0,480.5,411.0,479.5" stroke="black" stroke-width="2" fill="none" />
<polyline points="409.0,487.0,401.0,487.5,393.5,488.5,386.0,489.5,378.5,490.5,370.5,491.0" stroke="black" stroke-width="2" fill="none" />
<polyline points="364.5,491.0,356.0,498.5,347.5,505.5,339.0,513.0,331.0,520.0,323.5,528.0,315.0,535.5,307.5,543.5,299.5,551.0" stroke="black" stroke-width="2" fill="none" />
<polyline points="293.0,542.5,301.0,535.0,309.5,527.5,317.0,519.5,324.5,512.0,332.5,505.0,340.5,497.5,348.5,490.0,356.0,482.5,364.5,475.0" stroke="black" stroke-width="2" fill="none" />
<polyline points="371.5,473.0,379.5,472.5,387.0,472.5,394.5,472.0,402.0,472.0" stroke="black" stroke-width="2" fill="none" />
<polyline points="371.5,470.0,380.0,469.5,388.0,469.0,396.0,468.5,404.0,468.0,411.5,467.5,419.5,466.5,427.5,465.5,434.5,465.0,442.0,464.5,450.0,464.0,458.0,463.5,466.5,463.5,475.5,463.0,484.0,461.5" stroke="black" stroke-width="2" fill="none" />
<polyline points="402.0,436.0,393.5,443.5,385.5,451.0,378.0,458.5,369.5,466.0" stroke="black" stroke-width="2" fill="none" />
<polyline points="364.5,474.0,356.5,475.0,349.0,475.5" stroke="black" stroke-width="2" fill="none" />
<polyline points="349.5,467.0,357.5,466.5,365.5,465.5,373.0,464.5" stroke="black" stroke-width="2" fill="none" />
<polyline points="355.5,450.0,363.0,449.5,371.0,449.5,379.0,448.5,386.5,447.5,394.5,446.5,402.5,446.0" stroke="black" stroke-width="2" fill="none" />
<polyline points="404.0,430.0,396.0,437.0,388.0,443.5,380.0,450.5,371.5,457.5,363.5,464.5,355.5,472.0,347.0,480.0,339.0,487.5,331.0,494.5,322.5,501.5,315.0,509.0,307.5,517.5,300.0,525.5,293.0,533.0,285.0,540.5" stroke="black" stroke-width="2" fill="none" />
<polyline points="290.0,543.5,298.5,543.5,306.5,543.5,314.5,543.5,322.5,543.0,330.5,543.0,339.0,543.0,347.5,542.0,356.0,541.0,365.0,540.5,373.0,540.0,380.5,539.5,388.5,539.0,396.5,538.5" stroke="black" stroke-width="2" fill="none" />
<polyline points="340.5,477.5,332.5,484.5,324.5,491.5,316.5,499.0,309.5,506.5,301.0,514.0,292.5,521.5,283.5,529.5,275.0,537.0" stroke="black" stroke-width="2" fill="none" />
<polyline points="267.5,535.5,275.5,535.0,283.5,534.0,291.5,533.5" stroke="black" stroke-width="2" fill="none" />
<polyline points="285.5,531.5,293.5,524.0,301.5,517.0,309.5,509.5,317.5,502.5,325.5,495.0,333.5,487.5,341.5,479.5,350.0,472.0,358.0,464.5,366.0,457.0,374.0,449.5,381.5,442.5,389.0,435.5,396.5,428.0,404.0,421.0" stroke="black" stroke-width="2" fill="none" />
<polyline points="394.5,419.5,386.5,427.5,379.0,435.5,370.5,443.0,362.5,451.0,354.5,458.5,346.0,466.5" stroke="black" stroke-width="2" fill="none" />
<polyline points="340.5,468.5,332.5,476.0,324.0,483.5,316.0,491.5,308.0,499.0,299.5,506.5,291.5,514.5,282.5,522.5,274.0,529.5,265.0,536.5" stroke="black" stroke-width="2" fill="none" />
<polyline points="267.0,540.0,275.0,540.0,283.0,540.0,291.0,539.5,299.5,539.5,307.5,539.5,316.0,539.0,325.0,538.0,333.5,537.5,342.0,537.0,350.5,537.0,358.0,536.0,365.5,535.5,373.0,535.0,380.5,534.5,388.5,534.0,396.5,534.0,404.5,533.5,412.5,533.0,421.0,532.5,429.0,531.5,437.5,531.5,445.5,531.0,453.5,530.5,461.5,530.5,469.0,530.0,477.5,529.5,485.5,528.5,493.5,527.5,501.5,527.0,509.5,526.5,517.5,525.5" stroke="black" stroke-width="2" fill="none" />
<polyline points="395.0,412.0,386.5,419.5,378.5,427.0,371.0,434.5,363.0,441.5,355.5,448.5,347.0,456.5" stroke="black" stroke-width="2" fill="none" />
<polyline points="341.0,457.0,348.5,456.5,356.5,456.0,364.5,455.5,372.5,455.5,380.5,455.0,388.5,455.0,396.5,454.5,404.0,454.5,412.0,454.5" stroke="black" stroke-width="2" fill="none" />
<polyline points="393.5,424.5,385.5,425.0,377.5,425.0" stroke="black" stroke-width="2" fill="none" />
<polyline points="371.0,419.0,378.0,411.5,385.5,404.0,393.0,396.5,400.5,388.5" stroke="black" stroke-width="2" fill="none" />
<polyline points="402.5,392.5,394.5,393.0" stroke="black" stroke-width="2" fill="none" />
<polyline points="402.5,397.0,395.0,404.5,388.0,412.0,380.5,419.5,373.0,426.5,365.5,434.0,357.5,441.5,349.0,449.0,341.0,456.5,333.5,464.0,325.5,472.0,317.5,479.0,309.0,486.5,301.0,493.5,292.5,500.5,284.0,507.5,276.0,514.5,268.0,522.0" stroke="black" stroke-width="2" fill="none" />
<polyline points="268.0,529.0,275.5,528.5,283.0,528.5,291.0,528.0,299.0,528.0,307.5,527.5,315.5,526.5,323.5,526.5,332.0,526.0,340.0,525.5,348.0,525.0,356.0,524.5,363.0,524.0,371.0,523.5,379.0,523.0,387.5,522.0,395.0,521.5,403.0,520.5,411.5,520.0,419.5,519.5,427.5,519.0" stroke="black" stroke-width="2" fill="none" />
<polyline points="403.5,439.0,395.5,439.0,387.5,439.0,379.5,439.5,371.5,440.0" stroke="black" stroke-width="2" fill="none" />
<polyline points="371.0,433.5,379.0,433.0,387.0,432.0,395.5,432.0,403.5,431.5" stroke="black" stroke-width="2" fill="none" />
<polyline points="395.5,407.5,387.0,408.0" stroke="black" stroke-width="2" fill="none" />
<polyline points="379.0,399.5,386.5,399.5,394.5,399.0,402.5,398.5" stroke="black" stroke-width="2" fill="none" />
<polyline points="379.0,393.0,387.0,385.5,395.0,378.5,403.5,371.5" stroke="black" stroke-width="2" fill="none" />
<polyline points="394.0,363.5,386.0,371.5,377.5,379.5" stroke="black" stroke-width="2" fill="none" />
<polyline points="378.0,378.0,386.0,377.5,394.0,377.5,402.0,377.0" stroke="black" stroke-width="2" fill="none" />
<polyline points="372.0,387.5,363.5,395.0,354.5,402.5" stroke="black" stroke-width="2" fill="none" />
<polyline points="356.5,402.5,364.0,401.5" stroke="black" stroke-width="2" fill="none" />
<polyline points="370.0,408.5,378.0,408.0" stroke="black" stroke-width="2" fill="none" />
<polyline points="365.0,417.5,373.5,417.5,381.5,417.0,389.5,416.5,397.5,416.5" stroke="black" stroke-width="2" fill="none" />
<polyline points="364.0,427.5,355.5,435.0,347.5,442.5" stroke="black" stroke-width="2" fill="none" />
<polyline points="349.5,433.5,357.0,433.5,365.0,433.0" stroke="black" stroke-width="2" fill="none" />
<polyline points="345.0,426.0,352.5,419.0,360.5,411.5" stroke="black" stroke-width="2" fill="none" />
<polyline points="348.5,404.5,340.0,412.5" stroke="black" stroke-width="2" fill="none" />
<polyline points="342.0,407.0,349.5,406.5,357.5,406.0,365.0,405.0,372.5,404.5,380.5,403.5,388.5,403.5,397.5,403.5" stroke="black" stroke-width="2" fill="none" />
<polyline points="357.5,387.0,349.5,395.0" stroke="black" stroke-width="2" fill="none" />
<polyline points="349.5,394.0,357.5,394.0" stroke="black" stroke-width="2" fill="none" />
<polyline points="347.5,379.5,339.5,387.5,331.5,395.0" stroke="black" stroke-width="2" fill="none" />
<polyline points="333.0,393.0,341.0,393.0" stroke="black" stroke-width="2" fill="none" />
<polyline points="331.5,387.0,339.5,379.5" stroke="black" stroke-width="2" fill="none" />
<polyline points="333.5,379.0,325.0,386.5,317.5,394.0" stroke="black" stroke-width="2" fill="none" />
<polyline points="317.0,386.0,326.0,378.5,334.5,371.0" stroke="black" stroke-width="2" fill="none" />
<polyline points="331.5,378.0,323.5,378.5" stroke="black" stroke-width="2" fill="none" />
<polyline points="316.0,386.0,324.0,385.5,331.0,385.0,339.0,384.5,347.0,384.0" stroke="black" stroke-width="2" fill="none" />
<polyline points="364.0,365.0,371.5,358.0,379.5,350.0" stroke="black" stroke-width="2" fill="none" />
<polyline points="371.0,339.0,363.5,346.5,355.0,354.5" stroke="black" stroke-width="2" fill="none" />
<polyline points="349.5,355.0,357.5,354.0,365.5,353.5,373.5,352.5,381.5,352.0,389.5,351.0" stroke="black" stroke-width="2" fill="none" />
<polyline points="369.5,331.0,361.5,338.5,353.5,346.5,346.0,354.0" stroke="black" stroke-width="2" fill="none" />
<polyline points="346.5,347.0,354.5,339.5,362.0,331.5" stroke="black" stroke-width="2" fill="none" />
<polyline points="357.0,334.0,349.0,341.0,340.5,348.0" stroke="black" stroke-width="2" fill="none" />
<polyline points="339.5,347.0,347.5,346.5,355.5,345.5,363.5,345.0,371.0,344.0,378.5,343.5" stroke="black" stroke-width="2" fill="none" />
<polyline points="388.5,347.0,380.0,347.5,372.5,348.0,364.0,348.5,356.0,349.0,348.5,349.5,340.0,350.0" stroke="black" stroke-width="2" fill="none" />
<polyline points="333.0,357.5,341.0,357.0,349.0,357.0,357.0,356.5,365.0,356.5,372.0,356.0,380.0,355.5,388.0,354.5,395.5,354.0" stroke="black" stroke-width="2" fill="none" />
<polyline points="363.5,335.5,356.0,336.0,347.5,336.5,339.0,337.0,330.5,337.5" stroke="black" stroke-width="2" fill="none" />
<polyline points="328.5,330.0,336.5,321.5" stroke="black" stroke-width="2" fill="none" />
<polyline points="332.5,323.0,324.0,330.5,316.0,337.5" stroke="black" stroke-width="2" fill="none" />
<polyline points="313.5,332.0,321.0,325.0" stroke="black" stroke-width="2" fill="none" />
<polyline points="324.0,329.5,332.5,329.0,341.0,328.5" stroke="black" stroke-width="2" fill="none" />
<polyline points="316.0,348.5,308.0,349.0" stroke="black" stroke-width="2" fill="none" />
<polyline points="308.5,356.0,300.0,363.5" stroke="black" stroke-width="2" fill="none" />
<polyline points="297.5,355.0,289.5,362.5" stroke="black" stroke-width="2" fill="none" />
<polyline points="290.0,362.5,298.5,362.0,307.0,361.0" stroke="black" stroke-width="2" fill="none" />
<polyline points="313.5,365.5,322.0,365.5,330.0,365.0,338.0,364.5,346.0,364.0,354.0,364.0,362.0,363.0,370.0,362.0,378.0,361.0,386.0,360.0,394.0,359.5,402.5,359.0" stroke="black" stroke-width="2" fill="none" />
<polyline points="322.0,409.5,314.5,417.0,306.0,425.0,297.5,433.5,288.5,441.5,281.0,449.5,273.0,458.0,265.5,465.5,258.0,473.0,250.0,480.5" stroke="black" stroke-width="2" fill="none" />
<polyline points="251.5,485.0,259.0,484.0" stroke="black" stroke-width="2" fill="none" />
<polyline points="267.5,481.5,276.0,481.0,284.0,480.5,292.0,479.5,300.0,479.0,307.0,478.0,315.0,478.0,322.5,477.5,330.0,477.0,338.0,477.0,345.5,476.5,354.0,476.5,362.0,476.0,370.0,475.5" stroke="black" stroke-width="2" fill="none" />
<polyline points="331.5,459.0,323.0,466.5,314.5,474.5,306.0,482.0,298.0,489.5,290.0,497.0,282.0,504.5,274.0,512.0,266.0,520.0,258.0,527.5" stroke="black" stroke-width="2" fill="none" />
<polyline points="260.5,533.5,269.0,533.5,277.0,533.0,285.5,532.5,293.5,531.5,301.5,530.0,309.0,529.0,317.0,528.5,324.5,528.0,332.5,527.0,340.5,526.5,348.5,526.0,357.0,525.5,365.0,525.0,373.0,524.5,380.5,524.5,389.0,524.5,397.0,524.5,405.0,524.5,413.5,524.0,421.5,523.5,429.0,523.5,437.0,523.0,444.5,522.5,452.5,522.0,460.5,521.5,468.0,520.5,476.0,520.0,483.5,519.0,491.5,518.5,499.0,517.5,507.5,517.0,515.5,516.0" stroke="black" stroke-width="2" fill="none" />
<polyline points="332.0,450.5,324.0,458.5,315.5,466.5,307.5,474.5,299.0,482.0,290.5,489.5,283.0,497.5,275.0,505.0,267.0,512.5,258.5,520.5" stroke="black" stroke-width="2" fill="none" />
<polyline points="251.5,521.5,259.5,520.5,267.5,520.0,275.5,519.5,283.5,518.5,291.5,517.5,299.5,517.0,307.0,516.0,315.0,515.0,322.5,515.0,330.0,514.5,338.5,514.5,346.5,514.5,354.5,514.5,362.5,514.0,370.5,514.0,379.0,514.0,387.5,513.0,396.0,512.0,405.0,511.5,413.0,511.0,420.5,510.5" stroke="black" stroke-width="2" fill="none" />
<polyline points="332.0,435.5,324.0,443.0,316.5,451.0,309.0,459.0,301.0,467.0,292.5,474.5,284.5,482.0,276.5,489.5,268.5,497.0,261.0,505.0,253.0,512.5" stroke="black" stroke-width="2" fill="none" />
<polyline points="250.5,519.0,258.0,512.0,265.5,505.0,273.5,498.0,281.0,490.5,289.0,483.5,297.0,477.0,305.5,470.0,313.5,462.5" stroke="black" stroke-width="2" fill="none" />
<polyline points="318.5,450.0,326.0,449.0,333.5,448.5" stroke="black" stroke-width="2" fill="none" />
<polyline points="325.5,435.0,317.5,442.5,309.0,449.5,300.5,457.5,292.5,465.5,285.0,473.5,276.5,481.5,269.0,490.0,261.0,498.0" stroke="black" stroke-width="2" fill="none" />
<polyline points="260.0,505.0,268.0,504.0" stroke="black" stroke-width="2" fill="none" />
<polyline points="273.5,504.5,281.5,504.0,290.5,504.0,298.5,503.5,306.5,503.0,315.0,503.0,323.0,502.5,331.5,502.0,339.5,501.0,347.0,500.5,354.5,500.5,363.0,500.0,371.5,499.5,380.0,499.0,387.5,498.5,395.5,498.0,403.5,497.5,411.5,496.5,420.0,495.5" stroke="black" stroke-width="2" fill="none" />
<polyline points="434.0,424.5,426.0,425.0,418.0,425.0,410.0,425.0,402.0,426.0,394.5,426.5,387.0,426.5,379.0,426.0,371.5,426.0,364.0,426.0,356.5,426.5,349.5,427.0,341.5,428.0,333.0,428.5" stroke="black" stroke-width="2" fill="none" />
<polyline points="323.0,426.0,315.5,434.0,306.5,442.0,298.5,449.5,291.0,457.0,283.0,464.5,275.0,472.5,267.0,480.5,259.5,489.0,251.5,497.0,243.5,505.0" stroke="black" stroke-width="2" fill="none" />
<polyline points="242.0,498.5,234.5,506.0" stroke="black" stroke-width="2" fill="none" />
<polyline points="227.5,505.5,235.5,505.5,243.5,505.5,251.0,505.0" stroke="black" stroke-width="2" fill="none" />
<polyline points="252.0,499.0,260.0,498.5" stroke="black" stroke-width="2" fill="none" />
<polyline points="267.0,489.0,259.0,489.5,250.5,490.5" stroke="black" stroke-width="2" fill="none" />
<polyline points="250.0,487.0,258.5,479.5,267.0,472.0,275.0,465.0,282.5,457.5,290.5,450.0,298.0,442.5,305.5,435.5,313.5,428.0" stroke="black" stroke-width="2" fill="none" />
<polyline points="307.0,421.0,298.5,428.5,291.0,435.5,283.5,443.0,275.5,450.0,267.5,457.0,259.5,464.5,251.5,472.5" stroke="black" stroke-width="2" fill="none" />
<polyline points="251.5,474.5,259.0,474.0,267.5,473.5,275.5,473.5,283.0,473.0,291.5,472.5,299.0,472.0,307.0,471.5,314.5,471.0,323.0,470.5,331.0,470.0" stroke="black" stroke-width="2" fill="none" />
<polyline points="306.5,416.0,298.5,416.5,291.0,417.5,283.0,417.5" stroke="black" stroke-width="2" fill="none" />
<polyline points="282.0,410.5,290.5,410.0" stroke="black" stroke-width="2" fill="none" />
<polyline points="284.0,410.5,292.0,403.0" stroke="black" stroke-width="2" fill="none" />
<polyline points="291.0,396.5,283.5,403.5" stroke="black" stroke-width="2" fill="none" />
<polyline points="273.5,405.0,265.5,412.5,258.0,420.0,250.0,427.5,242.0,435.0" stroke="black" stroke-width="2" fill="none" />
<polyline points="243.5,438.5,251.0,437.5,259.0,437.0,267.0,436.0,274.5,435.5,282.0,434.5,290.0,433.5,298.0,433.0,306.5,432.5,315.0,432.0,323.0,431.0,331.0,431.0,339.0,431.0,347.0,430.5,355.5,430.5,363.5,430.5,372.0,430.0,381.0,429.0,389.5,428.5,398.0,428.0,406.5,428.0,414.0,427.0" stroke="black" stroke-width="2" fill="none" />
<polyline points="332.5,405.5,325.0,406.0,317.0,406.5" stroke="black" stroke-width="2" fill="none" />
<polyline points="308.0,413.5,300.0,421.0,291.5,428.0,283.0,435.0,274.5,442.0,266.5,448.5,259.0,456.0,252.0,463.5,244.0,471.0,236.0,479.0,228.5,486.0,220.0,493.5" stroke="black" stroke-width="2" fill="none" />
<polyline points="213.0,496.0,220.5,495.5,228.0,495.5,235.5,495.5,243.5,495.5" stroke="black" stroke-width="2" fill="none" />
<polyline points="244.0,490.5,235.5,498.0,227.0,505.5" stroke="black" stroke-width="2" fill="none" />
<polyline points="229.0,511.0,237.0,510.5,244.5,510.0,252.0,509.5,259.0,509.0,266.5,509.0,274.0,508.5,282.0,507.5,290.0,506.5,298.5,505.5,307.0,504.5,314.5,504.5,322.5,504.0,330.5,503.5,339.0,502.5,347.0,502.0,355.5,501.5,364.0,501.0,372.5,500.0,380.5,499.5,388.5,499.0,396.5,498.5,404.5,498.5,412.5,498.0,420.5,498.0,428.5,498.0,436.5,497.5,445.0,497.0,453.0,497.0,461.0,496.5,469.0,496.0,476.5,495.0,484.5,494.0,492.0,492.5,500.0,491.5" stroke="black" stroke-width="2" fill="none" />
<polyline points="420.5,529.0,413.5,529.5,406.0,531.0,398.0,532.0,389.5,533.0,381.5,533.0,373.5,533.5,365.5,534.0,357.0,534.0,348.5,534.5,339.5,534.5,331.5,534.0,324.0,534.5,316.0,535.0,308.0,535.5,299.5,536.5" stroke="black" stroke-width="2" fill="none" />
<polyline points="283.0,550.0,290.5,549.5,298.5,549.0,306.5,548.5,315.0,548.0,323.5,547.5,332.0,546.5,340.0,546.0,348.5,545.5,357.5,545.5,365.5,545.0,373.0,544.5,381.0,544.0,389.0,543.5,396.5,542.5,404.0,542.0,411.5,542.0,419.0,542.0,426.5,541.5,434.0,540.5,442.0,540.0,450.0,539.5,458.0,539.5,466.0,539.0,474.0,538.5,482.0,538.5,490.0,538.0,498.0,536.5,506.5,536.0,515.0,535.5" stroke="black" stroke-width="2" fill="none" />
<polyline points="299.0,564.5,290.5,565.0" stroke="black" stroke-width="2" fill="none" />
<polyline points="260.0,513.0,268.0,512.5,276.0,511.5,284.0,511.0,292.0,510.5,299.5,510.0,307.5,509.5,316.0,509.0,324.0,508.5,331.5,507.5,339.5,507.5,348.0,506.5,356.0,506.0,364.0,505.5,371.5,505.0,379.5,505.5,388.5,505.5,397.0,505.0,405.5,505.0" stroke="black" stroke-width="2" fill="none" />
<polyline points="404.5,375.5,397.0,376.0,389.5,377.0,381.5,377.5,374.0,378.0,366.0,378.5,357.5,378.5,348.5,378.5,339.5,378.5,330.5,379.0,322.0,379.0,314.0,379.5,306.0,380.0,297.5,381.0,290.0,381.5" stroke="black" stroke-width="2" fill="none" />
<polyline points="283.5,376.5,291.5,375.5,300.0,374.5,308.5,373.5,316.5,372.5,325.0,371.0,332.5,370.5,340.0,370.0,348.0,369.5,356.5,369.0,365.0,368.0,373.0,368.0,380.5,367.5,388.5,367.5,396.0,368.0,404.0,367.5" stroke="black" stroke-width="2" fill="none" />
<polyline points="300.5,404.0,292.0,411.5,283.5,419.0,275.0,426.5,267.0,433.0,259.0,440.5,251.0,448.0,242.5,456.5" stroke="black" stroke-width="2" fill="none" />
<polyline points="243.5,459.5,235.5,460.5" stroke="black" stroke-width="2" fill="none" />
<polyline points="236.5,466.0,228.5,473.0,220.0,480.5,211.5,488.5" stroke="black" stroke-width="2" fill="none" />
<polyline points="212.0,493.5,220.5,493.0,229.0,491.5,237.5,491.0,246.0,491.0,254.0,491.0,261.5,490.0,269.5,489.5,277.5,488.5,286.0,488.0,294.0,487.0,302.0,487.0,309.0,486.5,316.0,487.0,323.5,487.0,331.0,487.0,339.0,486.5,346.5,487.0,354.5,487.0,363.0,487.0,371.5,487.0,379.0,486.0,387.0,484.5,394.5,483.5,403.0,483.0,411.0,482.5,419.0,482.0,426.5,481.0,434.0,480.0,441.5,479.5,449.5,479.5,457.5,479.0,465.5,479.0,474.0,479.0,483.0,478.5,491.5,477.5,499.5,477.0,507.5,476.0,515.5,475.5" stroke="black" stroke-width="2" fill="none" />
<polyline points="301.0,411.5,293.0,419.5,284.5,427.0,276.5,434.5,268.0,442.0,259.0,449.5,250.5,457.0,241.5,464.5,233.0,472.0,224.5,479.5,216.5,486.5,208.5,494.0" stroke="black" stroke-width="2" fill="none" />
<polyline points="206.0,489.0,213.5,488.5,221.5,488.0,229.0,487.5,236.5,486.5,243.5,486.5" stroke="black" stroke-width="2" fill="none" />
<polyline points="244.5,483.0,237.0,490.5,229.0,498.5" stroke="black" stroke-width="2" fill="none" />
<polyline points="220.0,501.5,228.0,501.5,236.0,501.5,243.5,501.5,252.0,501.5,260.0,501.0,268.0,500.5,276.0,500.5,284.0,500.0,292.5,499.5,300.5,499.0,309.0,498.5,317.0,497.5,325.0,496.5,333.0,495.5,341.0,494.0,349.0,493.5,356.5,492.5,364.0,491.5,372.0,491.0,380.0,490.5,388.0,490.0,396.0,490.0,404.5,489.5,412.5,488.5,421.0,488.0,428.5,488.0,436.0,487.5,443.0,487.5,451.0,488.0,458.5,488.0,466.5,487.0,474.5,486.5,483.0,485.5,491.5,484.5,500.0,484.0,508.0,483.5,516.0,483.0" stroke="black" stroke-width="2" fill="none" />
<polyline points="323.0,357.5,314.0,358.0,305.5,358.0,297.5,358.0,289.5,358.5" stroke="black" stroke-width="2" fill="none" />
<polyline points="283.5,348.5,275.5,355.5" stroke="black" stroke-width="2" fill="none" />
<polyline points="274.5,353.5,282.5,353.0" stroke="black" stroke-width="2" fill="none" />
<polyline points="292.5,347.5,284.0,348.0,276.0,348.0,268.0,348.5" stroke="black" stroke-width="2" fill="none" />
<polyline points="259.0,342.0,266.5,341.5,274.5,341.0,282.5,340.0,290.5,338.5" stroke="black" stroke-width="2" fill="none" />
<polyline points="291.5,322.0,283.0,323.0" stroke="black" stroke-width="2" fill="none" />
<polyline points="276.0,324.0,268.0,331.0,259.5,338.5" stroke="black" stroke-width="2" fill="none" />
<polyline points="249.5,335.0,257.5,334.0,266.0,333.5,273.5,332.5,281.5,331.5,289.0,330.5,297.5,330.5,306.0,330.0,314.0,329.5,322.5,329.0,330.5,328.0,339.0,327.5,347.0,327.5,355.0,327.0,363.5,326.5,372.0,326.0" stroke="black" stroke-width="2" fill="none" />
<polyline points="298.0,306.5,290.0,314.0,282.5,321.5,275.0,329.0" stroke="black" stroke-width="2" fill="none" />
<polyline points="282.5,329.0,274.5,330.0,266.5,330.0" stroke="black" stroke-width="2" fill="none" />
<polyline points="266.5,328.0,274.0,327.0,282.0,326.0,289.5,325.5,298.0,325.5,306.0,325.5,314.0,324.5,322.5,324.0,331.0,323.0,339.0,322.5" stroke="black" stroke-width="2" fill="none" />
<polyline points="300.5,312.5,292.5,313.0" stroke="black" stroke-width="2" fill="none" />
<polyline points="299.0,308.5,291.0,308.5,282.5,309.0" stroke="black" stroke-width="2" fill="none" />
<polyline points="283.5,293.5,275.0,301.0,267.0,308.5,259.5,316.0" stroke="black" stroke-width="2" fill="none" />
<polyline points="251.5,314.0,243.5,321.5" stroke="black" stroke-width="2" fill="none" />
<polyline points="244.5,324.0,253.0,323.5" stroke="black" stroke-width="2" fill="none" />
<polyline points="252.0,314.0,244.0,315.0" stroke="black" stroke-width="2" fill="none" />
<polyline points="244.0,313.0,251.5,305.0,260.0,298.0,268.0,290.5" stroke="black" stroke-width="2" fill="none" />
<polyline points="277.0,291.0,268.5,298.5,260.0,306.0" stroke="black" stroke-width="2" fill="none" />
<polyline points="251.0,306.0,259.0,305.0,267.0,304.5,275.0,303.5,282.5,303.0" stroke="black" stroke-width="2" fill="none" />
<polyline points="282.5,297.0,274.0,297.0,265.5,297.5,257.0,297.5" stroke="black" stroke-width="2" fill="none" />
<polyline points="259.5,289.5,251.5,290.0" stroke="black" stroke-width="2" fill="none" />
<polyline points="251.5,286.0,259.0,285.5,267.0,285.5" stroke="black" stroke-width="2" fill="none" />
<polyline points="260.5,283.0,252.5,290.0,245.0,298.0,236.5,305.5,228.0,313.5" stroke="black" stroke-width="2" fill="none" />
<polyline points="229.5,311.5,237.5,310.0,245.0,309.0,253.0,308.5,261.5,307.5,269.5,306.5,277.0,306.0" stroke="black" stroke-width="2" fill="none" />
<polyline points="250.0,295.5,242.0,296.0" stroke="black" stroke-width="2" fill="none" />
<polyline points="244.0,295.5,252.5,295.0,261.0,294.5,269.0,293.5,277.0,292.5,285.0,292.0" stroke="black" stroke-width="2" fill="none" />
<polyline points="253.0,271.0,245.0,271.5" stroke="black" stroke-width="2" fill="none" />
<polyline points="237.0,286.0,228.5,293.5,220.0,301.0,212.0,308.0,203.5,314.5" stroke="black" stroke-width="2" fill="none" />
<polyline points="204.0,317.5,212.0,317.0,220.0,316.0" stroke="black" stroke-width="2" fill="none" />
<polyline points="226.5,315.5,234.5,314.5" stroke="black" stroke-width="2" fill="none" />
<polyline points="236.5,307.0,244.5,306.0" stroke="black" stroke-width="2" fill="none" />
<polyline points="236.0,300.0,228.0,307.0" stroke="black" stroke-width="2" fill="none" />
<polyline points="226.0,320.0,234.0,319.5,242.0,319.5,250.0,319.0,258.0,318.0" stroke="black" stroke-width="2" fill="none" />
<polyline points="246.0,332.0,238.0,332.0" stroke="black" stroke-width="2" fill="none" />
<polyline points="244.0,341.5,236.5,342.0,228.5,342.5" stroke="black" stroke-width="2" fill="none" />
<polyline points="235.0,351.0,243.0,350.5,250.5,349.5,258.5,349.0" stroke="black" stroke-width="2" fill="none" />
<polyline points="261.5,358.5,253.0,359.5,245.0,360.5" stroke="black" stroke-width="2" fill="none" />
<polyline points="236.0,356.0,227.5,363.0" stroke="black" stroke-width="2" fill="none" />
<polyline points="228.0,361.5,236.0,361.0" stroke="black" stroke-width="2" fill="none" />
<polyline points="233.5,367.0,241.5,366.5,250.0,365.5,259.0,364.5,267.5,364.0,276.0,363.5,284.5,362.5,292.5,362.5,300.5,362.5,308.5,362.0" stroke="black" stroke-width="2" fill="none" />
<polyline points="283.5,384.0,275.5,385.0" stroke="black" stroke-width="2" fill="none" />
<polyline points="275.5,387.5,267.0,395.5,259.0,403.0,251.5,410.5,244.0,417.5" stroke="black" stroke-width="2" fill="none" />
<polyline points="245.5,418.5,253.0,418.5,260.5,417.5,268.5,416.5,276.5,415.5" stroke="black" stroke-width="2" fill="none" />
<polyline points="274.0,412.0,266.0,420.0,258.0,428.0,250.0,435.5,242.5,442.5,234.5,449.5" stroke="black" stroke-width="2" fill="none" />
<polyline points="235.5,442.5,228.0,450.0,220.5,458.0" stroke="black" stroke-width="2" fill="none" />
<polyline points="221.0,460.0,229.0,459.0,236.5,459.0,244.0,458.5,251.5,458.5,258.5,458.5,266.0,458.0,274.0,457.0,281.5,456.0,289.5,455.5,298.0,455.0,306.0,454.5,314.0,454.5,322.5,454.0,330.5,453.5,338.5,453.5,347.0,453.0,354.5,453.5,362.5,453.5,370.5,454.0,378.5,454.0,386.0,453.0,394.0,452.0,401.5,451.5,410.0,451.5,418.0,451.5,426.0,450.5,434.5,450.0,443.0,449.0,451.0,448.5,459.0,447.5,467.0,447.0,475.0,446.5,483.0,446.0,491.5,445.5" stroke="black" stroke-width="2" fill="none" />
<polyline points="276.0,421.5,268.0,429.0,260.0,436.5,252.0,444.0,244.0,451.5,236.0,459.0,228.0,466.5,220.0,473.5,212.0,480.5,204.0,487.5" stroke="black" stroke-width="2" fill="none" />
<polyline points="205.0,486.0,213.0,485.5,221.0,484.5,228.5,483.5,236.0,482.5,243.0,482.0,251.0,481.0,258.5,480.5,266.0,480.0,274.0,479.0,282.0,478.5,290.5,478.5,299.0,479.0,307.5,479.5,315.5,479.5,323.5,479.0,332.0,479.0,340.0,478.5,348.5,477.5,356.0,477.0,364.0,476.5,372.0,476.0,379.5,475.5,386.5,475.0,394.5,474.0,402.0,473.5,410.5,473.0,418.5,473.0,427.0,472.5,435.0,472.5,443.0,472.0,451.5,471.0,459.5,471.0,467.5,470.0,476.0,469.0,484.5,468.0,493.0,467.5,501.0,467.5,509.0,467.0,517.0,466.0" stroke="black" stroke-width="2" fill="none" />
<polyline points="419.0,488.0,411.0,488.5,403.0,489.0,394.5,490.0,386.5,490.5,378.5,491.5,370.5,492.0,362.0,492.5,354.0,493.5,346.0,494.0,337.5,494.0,330.0,494.0,322.0,493.5,314.0,494.0,306.0,494.0,298.0,493.5,290.0,494.0,282.5,494.5,274.5,495.0" stroke="black" stroke-width="2" fill="none" />
<polyline points="274.0,489.5,282.0,489.0,290.0,488.5,298.0,488.5,306.0,488.5,313.5,488.0,322.0,488.0,330.5,487.0,339.0,486.0,346.5,485.0,354.5,484.5,363.0,484.0" stroke="black" stroke-width="2" fill="none" />
<polyline points="316.5,453.0,308.0,454.0,299.5,454.5,291.0,455.0,283.0,455.5,274.5,456.5,266.5,457.0,258.5,457.5,251.0,457.5" stroke="black" stroke-width="2" fill="none" />
<polyline points="250.0,451.5,258.0,450.5,266.5,450.0,274.0,449.0,281.5,449.0,290.0,448.5,298.0,447.5,306.0,447.0" stroke="black" stroke-width="2" fill="none" />
<polyline points="275.5,396.0,267.5,404.0,259.0,411.5,250.5,419.0,242.5,426.5,234.5,433.5,226.0,441.5,218.5,448.5" stroke="black" stroke-width="2" fill="none" />
<polyline points="221.0,447.5,229.0,447.5,236.5,448.0,244.0,447.5" stroke="black" stroke-width="2" fill="none" />
<polyline points="244.5,442.5,252.5,442.0,260.0,442.0,267.5,441.5,275.0,441.0,282.5,440.5,290.5,440.0,298.0,439.0,306.0,438.0,313.5,436.5,321.5,435.0,330.0,435.0,338.5,435.5,346.5,435.5,354.5,435.5,363.0,435.5" stroke="black" stroke-width="2" fill="none" />
<polyline points="268.0,386.0,260.0,393.5,252.5,402.0,245.0,409.5,237.0,417.5,229.0,425.5,221.0,432.5,212.0,440.5" stroke="black" stroke-width="2" fill="none" />
<polyline points="212.0,439.5,220.0,439.5" stroke="black" stroke-width="2" fill="none" />
<polyline points="225.5,443.0,233.0,442.5" stroke="black" stroke-width="2" fill="none" />
<polyline points="236.5,428.0,228.0,435.5,219.5,443.0,211.0,450.5" stroke="black" stroke-width="2" fill="none" />
<polyline points="212.0,453.0,220.0,452.5,228.5,452.0,237.0,451.0,245.0,450.5,253.0,450.0,261.5,449.5,269.0,449.5,276.5,449.5,284.5,450.0,292.5,450.0,300.5,449.0,308.5,448.5,316.5,448.0" stroke="black" stroke-width="2" fill="none" />
<polyline points="273.5,409.5,265.5,410.0,258.0,410.5,250.0,411.0" stroke="black" stroke-width="2" fill="none" />
<polyline points="243.5,402.0,251.5,394.0,260.0,386.0,268.0,378.0" stroke="black" stroke-width="2" fill="none" />
<polyline points="267.5,373.5,275.0,373.0" stroke="black" stroke-width="2" fill="none" />
<polyline points="259.5,370.0,252.0,377.5" stroke="black" stroke-width="2" fill="none" />
<polyline points="252.0,374.5,260.0,374.0" stroke="black" stroke-width="2" fill="none" />
<polyline points="259.0,379.0,251.0,386.5,243.0,394.5,235.5,402.0" stroke="black" stroke-width="2" fill="none" />
<polyline points="238.0,401.0,245.5,400.5,253.5,400.0,261.0,400.0,269.0,399.5,276.5,399.0" stroke="black" stroke-width="2" fill="none" />
<polyline points="266.0,386.0,258.0,386.5,249.5,387.0" stroke="black" stroke-width="2" fill="none" />
<polyline points="252.0,381.0,260.0,380.5,268.0,380.5" stroke="black" stroke-width="2" fill="none" />
<polyline points="243.5,380.0,235.5,387.5,227.5,394.5" stroke="black" stroke-width="2" fill="none" />
<polyline points="226.0,391.5,234.5,391.5" stroke="black" stroke-width="2" fill="none" />
<polyline points="235.0,386.5,243.0,386.0" stroke="black" stroke-width="2" fill="none" />
<polyline points="243.5,396.5,251.5,396.0,259.5,395.0,268.0,394.0,276.5,393.0" stroke="black" stroke-width="2" fill="none" />
<polyline points="306.5,402.0,298.0,402.5,290.0,403.5,282.5,403.5,275.0,404.0,267.5,404.5,259.5,405.5,251.5,406.0,243.5,406.5,235.5,407.0" stroke="black" stroke-width="2" fill="none" />
<polyline points="236.0,412.5,228.0,420.0" stroke="black" stroke-width="2" fill="none" />
<polyline points="227.0,420.5,234.5,420.0,242.5,420.0,250.5,420.0,258.5,420.5,267.0,420.0,275.0,419.5,282.5,419.0,290.0,419.0,298.0,418.5,305.5,418.0,314.0,417.5,322.0,417.0,330.0,417.0,338.0,416.5,346.0,416.0,354.0,415.5,362.0,415.0,370.0,414.0,378.5,413.5,386.0,412.5,394.5,412.0,402.5,412.0,411.0,411.5,419.5,411.5" stroke="black" stroke-width="2" fill="none" />
<polyline points="516.5,507.0,508.5,508.0,500.5,508.5,491.5,509.5,483.0,510.0,475.0,510.5,467.5,510.5,459.0,511.0,451.0,512.0,442.5,512.5,434.5,513.5,427.0,514.5,419.0,515.5,410.5,516.5,402.5,517.0,395.0,517.5,387.0,518.0,379.0,518.0,370.5,518.0,362.5,518.0,354.5,519.0,347.0,520.5,339.5,521.5,331.5,523.0,323.5,524.0,315.0,524.0,307.0,523.5,298.5,523.5,290.0,523.0,282.0,523.0,274.5,523.5,267.0,523.5,259.0,524.0,251.5,525.0,244.0,525.0" stroke="black" stroke-width="2" fill="none" />
<polyline points="236.0,520.5,244.0,520.0,252.5,518.5,260.5,517.5,267.5,516.5,275.5,516.0,284.0,515.0,292.5,514.5,300.5,513.5,308.0,513.0,316.0,512.0,324.0,511.5,332.0,510.5,340.0,510.0,348.0,509.5,355.5,509.0,363.5,508.5,372.0,508.0,380.0,507.5,387.5,506.5,395.5,506.5,404.0,505.5,412.0,505.0,420.0,504.5,427.5,504.0,435.5,504.5,444.5,504.5,453.0,504.0,461.5,504.0,469.5,503.5,477.5,503.0,485.5,503.0,494.0,502.0,502.0,501.0,509.5,499.5,516.5,499.0" stroke="black" stroke-width="2" fill="none" />
<polyline points="322.5,460.5,314.5,461.0,306.5,461.5,298.5,462.0,291.0,462.5,283.0,463.0,275.5,463.5,267.5,464.0,259.5,464.5,251.5,465.5,243.5,465.5" stroke="black" stroke-width="2" fill="none" />
<polyline points="227.5,459.0,220.0,466.0,212.0,473.5,204.0,480.5" stroke="black" stroke-width="2" fill="none" />
<polyline points="195.5,484.0,203.0,476.5,210.5,469.0" stroke="black" stroke-width="2" fill="none" />
<polyline points="211.0,460.0,203.0,467.5,194.5,475.0" stroke="black" stroke-width="2" fill="none" />
<polyline points="188.0,473.5,196.0,466.0,204.0,459.0" stroke="black" stroke-width="2" fill="none" />
<polyline points="205.0,451.5,197.0,459.0,188.5,466.5" stroke="black" stroke-width="2" fill="none" />
<polyline points="187.5,471.0,195.0,470.0,202.0,470.0,210.5,469.5,219.5,469.0,228.0,468.0,236.0,467.5,243.5,466.5,251.5,465.5,260.0,465.0,268.0,464.5,276.0,464.5,284.0,464.5,291.5,464.5,300.0,464.5,308.0,464.0,316.0,463.5,324.0,463.5,332.0,463.0,340.5,462.5,348.5,462.0,357.0,461.5,365.0,460.5" stroke="black" stroke-width="2" fill="none" />
<polyline points="315.5,419.0,307.0,420.0,299.0,421.0,291.5,422.5,284.0,423.5,275.5,424.0,267.0,424.5,259.0,424.5,251.0,425.0,242.5,425.5" stroke="black" stroke-width="2" fill="none" />
<polyline points="221.5,432.0,229.0,431.5,236.5,431.5,244.0,431.5,252.0,431.0,259.5,431.0,268.0,431.5,276.0,432.0,284.5,432.0,292.5,431.5,300.0,431.5,308.0,431.0,316.5,429.5,324.5,428.5" stroke="black" stroke-width="2" fill="none" />
<polyline points="412.5,403.5,404.0,404.5,395.5,405.5,387.5,406.5,379.0,406.5,371.0,406.5,363.0,407.0,355.5,408.0,347.5,408.5,339.5,408.5,331.5,408.0,324.0,407.5,316.0,407.5,308.0,408.0,300.0,408.5,291.5,409.0,283.0,409.0,274.5,409.0,266.5,409.0,257.5,409.5,249.0,410.0,241.0,411.0,232.5,412.0,224.5,412.5" stroke="black" stroke-width="2" fill="none" />
<polyline points="220.0,396.0,228.0,396.0,236.0,395.5,244.0,395.0,251.5,395.0,259.0,394.5,266.5,395.0,274.5,395.5,283.0,396.0,291.5,396.0,299.5,395.5,307.5,394.5,315.0,394.0,322.0,393.0,330.0,392.5,338.0,391.0,346.5,390.5,355.5,388.5,364.0,387.5,372.0,387.5,380.0,387.0,388.0,386.0,396.0,385.0,404.0,384.5" stroke="black" stroke-width="2" fill="none" />
<polyline points="234.0,380.5,226.0,388.5" stroke="black" stroke-width="2" fill="none" />
<polyline points="226.0,389.5,234.5,389.0,243.5,388.5,252.0,388.0,260.0,388.0,267.5,387.5,275.0,387.5,282.5,387.0,290.5,386.5,298.0,386.0,305.5,386.0,313.5,385.0,322.0,384.5,329.5,383.5,337.5,382.5,345.0,381.5,353.5,381.5,362.0,381.0,370.0,380.5,378.5,380.0,386.5,379.0,395.0,378.5,403.0,378.5,411.0,378.0" stroke="black" stroke-width="2" fill="none" />
<polyline points="243.5,381.5,235.0,381.5,227.0,381.5" stroke="black" stroke-width="2" fill="none" />
<polyline points="227.0,373.0,234.5,372.5" stroke="black" stroke-width="2" fill="none" />
<polyline points="229.5,357.0,238.0,356.5" stroke="black" stroke-width="2" fill="none" />
<polyline points="219.0,348.0,211.0,355.5,203.5,363.5" stroke="black" stroke-width="2" fill="none" />
<polyline points="197.5,365.0,205.0,357.0" stroke="black" stroke-width="2" fill="none" />
<polyline points="203.5,348.5,195.5,356.5,188.0,364.0" stroke="black" stroke-width="2" fill="none" />
<polyline points="188.5,366.0,180.5,366.5" stroke="black" stroke-width="2" fill="none" />
<polyline points="179.5,363.5,187.5,356.5,195.5,348.5" stroke="black" stroke-width="2" fill="none" />
<polyline points="197.0,335.5,204.5,335.0" stroke="black" stroke-width="2" fill="none" />
<polyline points="204.0,331.5,196.0,339.5,188.0,347.0,180.0,354.5,171.5,362.5" stroke="black" stroke-width="2" fill="none" />
<polyline points="181.0,362.0,189.0,361.5,196.0,361.5,203.5,361.0,212.0,361.0" stroke="black" stroke-width="2" fill="none" />
<polyline points="213.5,340.0,221.0,339.5" stroke="black" stroke-width="2" fill="none" />
<polyline points="221.0,332.5,228.5,332.0" stroke="black" stroke-width="2" fill="none" />
<polyline points="213.0,324.0,221.0,323.5,229.0,323.0,237.0,323.0,244.5,323.0,252.0,323.5,259.5,322.5" stroke="black" stroke-width="2" fill="none" />
<polyline points="237.0,291.0,229.0,291.0" stroke="black" stroke-width="2" fill="none" />
<polyline points="220.0,282.0,228.5,274.5" stroke="black" stroke-width="2" fill="none" />
<polyline points="229.0,280.0,220.5,280.0" stroke="black" stroke-width="2" fill="none" />
<polyline points="220.5,270.5,228.0,270.0,236.0,269.5" stroke="black" stroke-width="2" fill="none" />
<polyline points="211.0,292.0,203.0,299.5,195.5,306.5,187.5,314.0" stroke="black" stroke-width="2" fill="none" />
<polyline points="188.5,313.5,196.5,313.0,204.5,312.5,212.0,312.0" stroke="black" stroke-width="2" fill="none" />
<polyline points="211.0,299.5,203.0,307.0,195.0,315.0" stroke="black" stroke-width="2" fill="none" />
<polyline points="195.0,317.5,187.5,318.0" stroke="black" stroke-width="2" fill="none" />
<polyline points="182.0,321.5,173.5,329.5,165.0,337.5,156.5,345.5,148.0,353.5,140.0,361.0,131.5,369.0" stroke="black" stroke-width="2" fill="none" />
<polyline points="131.5,366.0,140.0,365.5,148.0,364.5,156.0,364.0,164.0,363.0" stroke="black" stroke-width="2" fill="none" />
<polyline points="163.5,370.5,155.5,378.0" stroke="black" stroke-width="2" fill="none" />
<polyline points="156.0,376.5,164.0,376.0,172.0,376.0" stroke="black" stroke-width="2" fill="none" />
<polyline points="169.5,373.0,162.0,380.0,154.5,388.0" stroke="black" stroke-width="2" fill="none" />
<polyline points="155.5,381.0,163.5,381.0" stroke="black" stroke-width="2" fill="none" />
<polyline points="164.0,396.5,172.0,396.0" stroke="black" stroke-width="2" fill="none" />
<polyline points="170.5,411.0,162.0,418.5,154.0,426.0" stroke="black" stroke-width="2" fill="none" />
<polyline points="156.0,426.0,164.0,425.5,172.5,424.5,180.0,424.0" stroke="black" stroke-width="2" fill="none" />
<polyline points="180.0,418.0,172.0,425.5,163.5,433.5" stroke="black" stroke-width="2" fill="none" />
<polyline points="165.0,432.5,173.0,432.0,180.5,431.0,188.0,431.0,195.5,431.0" stroke="black" stroke-width="2" fill="none" />
<polyline points="196.5,429.0,188.5,436.0,180.0,444.0,171.5,451.0" stroke="black" stroke-width="2" fill="none" />
<polyline points="171.5,452.5,179.0,452.0,187.0,451.5,194.5,451.0,202.0,450.5" stroke="black" stroke-width="2" fill="none" />
<polyline points="210.5,443.0,219.0,443.0,227.0,443.0,235.0,443.0,243.5,443.0,252.0,442.5,260.5,442.5,269.0,442.5,277.0,442.0,285.0,442.0,293.0,442.0,301.0,441.5,308.5,441.0,316.0,440.5,323.0,440.0,330.5,440.0,338.0,439.5,346.0,438.5,354.0,437.5,362.5,436.5,371.0,435.5,378.5,435.5,386.5,435.0,394.5,434.5,403.0,433.5,411.0,433.0,419.5,432.5,428.0,432.0,436.5,431.0" stroke="black" stroke-width="2" fill="none" />
<polyline points="237.5,464.5,229.0,465.5,221.0,466.0" stroke="black" stroke-width="2" fill="none" />
<polyline points="220.0,455.0,228.5,454.5" stroke="black" stroke-width="2" fill="none" />
<polyline points="210.5,434.5,203.0,442.0,194.5,449.5,186.5,457.5,179.0,465.5" stroke="black" stroke-width="2" fill="none" />
<polyline points="178.0,462.5,186.0,462.5,194.0,462.5,201.5,462.5,209.5,461.5" stroke="black" stroke-width="2" fill="none" />
<polyline points="206.5,437.0,198.0,444.5,189.0,452.0,180.5,459.5" stroke="black" stroke-width="2" fill="none" />
<polyline points="178.5,461.5,186.5,461.0,194.0,460.5,202.0,460.0,210.5,459.5" stroke="black" stroke-width="2" fill="none" />
<polyline points="196.5,435.0,188.0,442.5,179.5,450.5,171.5,458.5" stroke="black" stroke-width="2" fill="none" />
<polyline points="173.5,454.5,181.5,454.0,188.5,453.5,196.5,453.5,204.0,453.5" stroke="black" stroke-width="2" fill="none" />
<polyline points="205.0,430.5,212.5,429.5,220.0,429.5,228.0,429.0,236.5,428.5,244.0,427.0,252.0,427.0,259.5,427.0,267.0,426.0,274.5,425.0,282.0,424.5,290.5,424.0,299.5,423.5,308.0,423.0,316.0,423.0,323.5,422.5" stroke="black" stroke-width="2" fill="none" />
<polyline points="221.0,421.0,213.0,422.0,205.0,422.5" stroke="black" stroke-width="2" fill="none" />
<polyline points="194.5,416.0,202.5,415.5,211.0,415.0,218.5,414.5" stroke="black" stroke-width="2" fill="none" />
<polyline points="203.0,406.0,195.0,407.0" stroke="black" stroke-width="2" fill="none" />
<polyline points="187.5,420.0,179.5,427.5,171.0,435.0,163.0,442.5" stroke="black" stroke-width="2" fill="none" />
<polyline points="162.5,441.0,170.5,440.5,179.0,440.0,187.0,439.5,196.0,439.5" stroke="black" stroke-width="2" fill="none" />
<polyline points="186.0,428.5,178.5,436.0,170.5,443.0" stroke="black" stroke-width="2" fill="none" />
<polyline points="165.0,445.0,172.5,444.5,180.0,444.5,187.5,444.0,195.5,443.5,203.5,443.5" stroke="black" stroke-width="2" fill="none" />
<polyline points="194.5,447.0,186.0,448.0,177.5,449.0,169.5,449.5" stroke="black" stroke-width="2" fill="none" />
<polyline points="163.5,436.0,171.5,435.5,179.5,435.0,188.0,434.5,196.0,434.0,204.0,434.0,212.5,433.5,220.5,434.0,228.0,433.5,236.0,433.0" stroke="black" stroke-width="2" fill="none" />
<polyline points="180.0,411.5,172.0,418.5,164.0,426.0,156.0,433.0" stroke="black" stroke-width="2" fill="none" />
<polyline points="157.0,430.5,165.0,429.5,173.5,429.0,182.0,428.0,190.0,427.0,198.0,426.0" stroke="black" stroke-width="2" fill="none" />
<polyline points="162.5,412.0,154.5,419.5" stroke="black" stroke-width="2" fill="none" />
<polyline points="156.0,418.5,164.0,418.0,172.5,417.0,180.5,416.5" stroke="black" stroke-width="2" fill="none" />
<polyline points="189.0,419.5,180.5,421.5,172.5,422.5,164.5,423.0,156.0,424.0" stroke="black" stroke-width="2" fill="none" />
<polyline points="148.0,412.5,156.0,412.0,164.0,411.0,172.0,410.5,180.5,410.5" stroke="black" stroke-width="2" fill="none" />
<polyline points="163.5,404.5,155.5,405.0,147.5,405.5" stroke="black" stroke-width="2" fill="none" />
<polyline points="147.5,376.0,155.5,368.0,163.0,360.5,170.5,353.0,178.5,345.5,186.5,338.5" stroke="black" stroke-width="2" fill="none" />
<polyline points="188.5,330.5,181.0,338.0,173.5,345.0,165.5,352.5,157.0,360.5,149.0,368.5" stroke="black" stroke-width="2" fill="none" />
<polyline points="140.0,369.5,147.5,368.5,156.0,368.0,164.5,367.0" stroke="black" stroke-width="2" fill="none" />
<polyline points="163.5,347.0,155.5,354.5,148.0,362.5,140.0,370.0" stroke="black" stroke-width="2" fill="none" />
<polyline points="138.5,372.5,147.0,372.5,155.5,372.0,163.5,371.5,171.5,371.0" stroke="black" stroke-width="2" fill="none" />
<polyline points="186.5,373.5,195.0,373.0" stroke="black" stroke-width="2" fill="none" />
<polyline points="187.0,343.0,178.5,344.0,170.5,344.5" stroke="black" stroke-width="2" fill="none" />
<polyline points="172.5,338.5,180.0,331.0" stroke="black" stroke-width="2" fill="none" />
<polyline points="188.0,336.0,180.5,336.5,173.0,337.0,165.0,338.0" stroke="black" stroke-width="2" fill="none" />
<polyline points="163.5,336.0,171.5,335.5,180.0,335.0,188.0,334.0,196.5,332.5,204.5,332.0,211.5,331.5" stroke="black" stroke-width="2" fill="none" />
<polyline points="187.0,308.5,194.5,301.5" stroke="black" stroke-width="2" fill="none" />
<polyline points="196.5,297.0,188.0,297.5" stroke="black" stroke-width="2" fill="none" />
<polyline points="194.5,292.5,186.5,299.5,179.0,307.0" stroke="black" stroke-width="2" fill="none" />
<polyline points="182.5,305.5,190.0,305.5,197.5,305.5,205.5,305.0,213.0,304.5,220.5,304.0" stroke="black" stroke-width="2" fill="none" />
<polyline points="195.0,284.0,186.5,291.5" stroke="black" stroke-width="2" fill="none" />
<polyline points="188.5,288.5,196.0,288.0" stroke="black" stroke-width="2" fill="none" />
<polyline points="179.0,285.0,187.0,284.5,195.0,284.0,203.5,283.5,211.5,283.0,220.0,282.0,228.0,281.5,237.0,281.5" stroke="black" stroke-width="2" fill="none" />
<polyline points="204.5,268.5,197.0,268.5" stroke="black" stroke-width="2" fill="none" />
<polyline points="179.0,265.5,171.0,273.5" stroke="black" stroke-width="2" fill="none" />
<polyline points="179.0,277.0,187.5,277.0,196.5,276.5,205.0,275.5,212.5,275.0,221.0,274.5,229.0,274.0,236.5,273.5,244.0,273.0" stroke="black" stroke-width="2" fill="none" />
<polyline points="211.5,238.5,203.0,238.5" stroke="black" stroke-width="2" fill="none" />
<polyline points="189.5,235.5,181.5,243.0,173.5,250.5,165.5,258.0" stroke="black" stroke-width="2" fill="none" />
<polyline points="166.0,260.0,173.5,259.5,181.0,259.5,188.5,259.5,196.5,259.5,204.5,259.5,212.5,258.5,221.0,258.0,228.5,257.5,235.5,257.5,243.5,257.0" stroke="black" stroke-width="2" fill="none" />
<polyline points="187.5,249.5,179.5,257.5,172.0,265.5,164.5,273.0,157.0,280.5,149.0,288.5,141.0,296.5,133.0,304.5,124.5,312.0,116.0,319.0" stroke="black" stroke-width="2" fill="none" />
<polyline points="116.5,323.0,124.5,322.5,132.5,321.5,140.5,320.5,149.0,319.5,157.0,319.0" stroke="black" stroke-width="2" fill="none" />
<polyline points="155.0,317.0,147.5,324.5,139.5,331.5,131.5,338.5,123.5,346.0" stroke="black" stroke-width="2" fill="none" />
<polyline points="124.0,352.5,132.0,351.5,139.5,351.5,147.0,351.0,154.5,351.0,162.5,351.0,171.5,350.5,179.5,350.0,188.0,350.0,196.0,349.5,204.0,349.5" stroke="black" stroke-width="2" fill="none" />
<polyline points="179.0,314.0,171.0,321.5,162.5,329.0" stroke="black" stroke-width="2" fill="none" />
<polyline points="163.5,328.0,171.5,327.5,179.5,326.0,188.0,324.5,196.5,323.5,204.5,322.5" stroke="black" stroke-width="2" fill="none" />
<polyline points="219.5,300.0,211.5,300.5,203.5,301.0,195.5,301.0,188.0,301.5,179.5,302.0" stroke="black" stroke-width="2" fill="none" />
<polyline points="173.5,308.0,165.5,315.5" stroke="black" stroke-width="2" fill="none" />
<polyline points="164.0,318.5,172.0,318.0,180.0,316.5" stroke="black" stroke-width="2" fill="none" />
<polyline points="171.5,316.0,163.0,323.5" stroke="black" stroke-width="2" fill="none" />
<polyline points="163.0,321.0,170.5,321.0,178.5,321.0" stroke="black" stroke-width="2" fill="none" />
<polyline points="180.0,331.0,172.0,331.5,164.0,331.5" stroke="black" stroke-width="2" fill="none" />
<polyline points="155.5,332.5,148.0,340.0,140.5,347.0,132.5,354.5,124.5,362.0" stroke="black" stroke-width="2" fill="none" />
<polyline points="122.5,361.5,131.0,360.5,139.5,360.5,147.5,359.5,156.0,359.0,164.5,358.5,172.5,358.5" stroke="black" stroke-width="2" fill="none" />
<polyline points="155.5,338.5,148.0,346.0,140.0,353.0,132.0,361.0" stroke="black" stroke-width="2" fill="none" />
<polyline points="123.0,358.5,130.5,358.0,138.5,357.0,146.5,356.0,155.5,355.5,163.5,355.0,172.0,355.5,180.0,355.5,188.0,355.5,196.5,355.0,204.0,355.0,212.5,354.0" stroke="black" stroke-width="2" fill="none" />
<polyline points="171.5,312.0,163.0,312.5" stroke="black" stroke-width="2" fill="none" />
<polyline points="156.5,309.5,148.5,316.5,140.0,323.5,132.0,331.0,124.0,339.0,115.5,346.5" stroke="black" stroke-width="2" fill="none" />
<polyline points="114.0,347.5,122.0,347.0,130.0,346.0,137.5,345.5,145.5,344.5,154.0,344.0,161.5,343.0" stroke="black" stroke-width="2" fill="none" />
<polyline points="147.0,333.0,139.5,340.5,131.5,347.5,123.5,354.5" stroke="black" stroke-width="2" fill="none" />
<polyline points="115.0,349.0,122.5,348.5,130.5,347.5,138.5,347.0,145.5,346.0,153.5,345.5,161.0,345.0,169.5,345.5,177.5,345.0,185.0,345.0,193.0,344.5,201.5,344.5,210.0,344.0,218.5,343.5" stroke="black" stroke-width="2" fill="none" />
<polyline points="234.5,290.5,226.0,290.5,218.0,291.0,210.0,291.5,202.0,292.0,194.0,292.0,186.5,291.5,178.5,291.5,170.5,291.5,162.5,292.0" stroke="black" stroke-width="2" fill="none" />
<polyline points="156.0,291.5,164.0,284.0" stroke="black" stroke-width="2" fill="none" />
<polyline points="170.0,272.0,162.0,273.0,154.0,273.5" stroke="black" stroke-width="2" fill="none" />
<polyline points="155.0,268.5,147.0,276.0,138.5,283.0" stroke="black" stroke-width="2" fill="none" />
<polyline points="138.5,289.0,130.5,296.5,123.0,304.5,115.0,312.5" stroke="black" stroke-width="2" fill="none" />
<polyline points="109.5,308.5,117.0,308.0,125.0,307.5,133.0,307.0,141.5,307.0,149.5,307.0,157.0,306.5,164.0,306.5,171.5,306.5,179.0,306.5,186.5,306.0,195.0,305.0,203.0,304.5,211.0,303.5,219.0,303.0" stroke="black" stroke-width="2" fill="none" />
<polyline points="171.5,259.0,163.5,266.5,155.0,274.0,147.0,281.5" stroke="black" stroke-width="2" fill="none" />
<polyline points="148.0,290.5,156.0,290.0" stroke="black" stroke-width="2" fill="none" />
<polyline points="147.5,299.5,139.5,307.0,131.5,315.0,123.5,323.0,116.0,330.0" stroke="black" stroke-width="2" fill="none" />
<polyline points="117.5,333.0,125.5,332.5,133.5,332.0,141.0,331.0,148.5,330.5,155.5,330.0" stroke="black" stroke-width="2" fill="none" />
<polyline points="146.5,307.5,139.0,315.0,132.0,322.5,124.5,330.0,117.0,337.5" stroke="black" stroke-width="2" fill="none" />
<polyline points="116.5,337.5,125.0,337.0,133.5,336.5,141.5,336.0,149.0,335.5,156.0,334.5" stroke="black" stroke-width="2" fill="none" />
<polyline points="148.0,327.5,140.5,327.0,133.5,326.5,125.5,326.5,118.0,327.0" stroke="black" stroke-width="2" fill="none" />
<polyline points="115.5,325.0,123.5,325.0,132.5,324.5,140.5,324.5,148.5,324.5,157.0,324.0" stroke="black" stroke-width="2" fill="none" />
<polyline points="139.0,295.5,131.0,296.5" stroke="black" stroke-width="2" fill="none" />
<polyline points="123.0,301.0,114.5,308.5,106.0,316.0" stroke="black" stroke-width="2" fill="none" />
<polyline points="106.5,317.5,114.5,317.0,123.0,317.0,131.0,316.5,139.5,316.0,147.5,315.5,156.0,315.0" stroke="black" stroke-width="2" fill="none" />
<polyline points="162.5,281.0,155.0,280.5,147.0,280.5,138.5,280.5,130.5,280.5" stroke="black" stroke-width="2" fill="none" />
<polyline points="132.5,275.5,140.5,275.0" stroke="black" stroke-width="2" fill="none" />
<polyline points="132.0,267.5,139.5,267.0,148.0,266.0,156.0,265.5" stroke="black" stroke-width="2" fill="none" />
<polyline points="165.0,263.0,173.5,262.5" stroke="black" stroke-width="2" fill="none" />
<polyline points="165.0,249.5,157.0,257.0,149.5,265.0,141.5,273.0,133.5,280.5,125.5,288.0,117.0,296.5,108.0,304.5" stroke="black" stroke-width="2" fill="none" />
<polyline points="108.5,305.0,117.0,304.5,124.5,303.5,132.5,303.5,140.5,303.5,148.0,303.5" stroke="black" stroke-width="2" fill="none" />
<polyline points="132.0,288.0,124.0,288.5" stroke="black" stroke-width="2" fill="none" />
<polyline points="124.0,282.5,132.0,275.0,140.0,268.0,148.0,260.0" stroke="black" stroke-width="2" fill="none" />
<polyline points="150.0,255.5,142.0,256.0" stroke="black" stroke-width="2" fill="none" />
<polyline points="141.5,253.0,149.5,252.5" stroke="black" stroke-width="2" fill="none" />
<polyline points="153.0,253.5,161.5,253.5,170.0,253.0,178.5,252.5,187.0,252.0,195.5,251.0,204.0,251.5,212.0,251.0,220.5,250.5,228.0,249.5" stroke="black" stroke-width="2" fill="none" />
<polyline points="188.0,226.0,180.0,233.5,172.0,241.5" stroke="black" stroke-width="2" fill="none" />
<polyline points="171.0,233.5,163.0,241.5" stroke="black" stroke-width="2" fill="none" />
<polyline points="169.0,233.0,161.0,233.0,153.0,234.0" stroke="black" stroke-width="2" fill="none" />
<polyline points="154.5,229.5,146.5,236.5,138.5,243.0,130.5,250.0,122.0,257.5" stroke="black" stroke-width="2" fill="none" />
<polyline points="125.0,255.5,133.0,254.5" stroke="black" stroke-width="2" fill="none" />
<polyline points="131.0,262.5,139.0,262.5,147.5,262.0,155.5,261.5" stroke="black" stroke-width="2" fill="none" />
<polyline points="140.5,242.0,148.5,241.5,156.0,241.5,163.5,241.0,171.5,240.0,178.5,239.5" stroke="black" stroke-width="2" fill="none" />
<polyline points="147.5,226.5,139.0,234.5" stroke="black" stroke-width="2" fill="none" />
<polyline points="138.5,235.0,147.0,234.0" stroke="black" stroke-width="2" fill="none" />
<polyline points="132.5,237.0,140.5,236.5,148.0,235.5,156.0,234.5,164.5,233.5,172.5,233.0,180.5,232.0,189.0,231.5,197.0,231.0" stroke="black" stroke-width="2" fill="none" />
<polyline points="182.0,203.0,174.0,203.5,166.0,204.0" stroke="black" stroke-width="2" fill="none" />
<polyline points="162.5,203.0,170.0,195.5" stroke="black" stroke-width="2" fill="none" />
<polyline points="162.5,211.5,154.5,212.0" stroke="black" stroke-width="2" fill="none" />
<polyline points="156.5,204.5,148.5,205.0" stroke="black" stroke-width="2" fill="none" />
<polyline points="140.0,212.0,132.0,219.5" stroke="black" stroke-width="2" fill="none" />
<polyline points="132.0,220.0,139.5,219.5,147.5,219.0,155.0,219.0,163.0,219.0,171.5,219.0,179.5,218.0,188.0,217.5,197.0,216.5" stroke="black" stroke-width="2" fill="none" />
<polyline points="140.0,218.5,132.0,226.0" stroke="black" stroke-width="2" fill="none" />
<polyline points="133.0,227.5,140.0,227.0,147.5,227.0,155.5,226.5,163.0,226.0,171.5,225.5,180.0,225.5,189.0,225.0,197.5,224.5,205.5,224.0" stroke="black" stroke-width="2" fill="none" />
<polyline points="155.5,190.0,148.0,191.0,140.0,191.0" stroke="black" stroke-width="2" fill="none" />
<polyline points="131.0,195.5,139.5,195.0,148.0,195.0,157.0,194.5,165.0,194.0,173.0,194.0" stroke="black" stroke-width="2" fill="none" />
<polyline points="138.0,202.5,129.5,203.0,121.5,203.0,114.0,203.5" stroke="black" stroke-width="2" fill="none" />
<polyline points="108.5,211.5,117.0,211.5,125.0,211.0,133.0,211.0,140.0,210.5,148.0,210.0" stroke="black" stroke-width="2" fill="none" />
<polyline points="122.0,236.5,113.5,243.5,105.5,250.5" stroke="black" stroke-width="2" fill="none" />
<polyline points="107.0,246.5,115.0,246.5,123.0,246.5" stroke="black" stroke-width="2" fill="none" />
<polyline points="130.0,245.0,138.0,244.5,146.0,243.5,154.5,242.5,163.0,242.0,171.5,241.0,179.5,240.5,187.5,240.0,195.0,239.5,203.0,239.0,210.5,239.0,218.5,238.5" stroke="black" stroke-width="2" fill="none" />
<polyline points="202.5,334.5,194.5,335.0,187.0,336.0,179.0,337.0,171.0,338.0,163.0,339.0,155.5,339.5,147.5,340.0,139.0,340.5,131.0,341.5,123.5,342.5,115.0,343.5" stroke="black" stroke-width="2" fill="none" />
<polyline points="108.0,314.0,116.0,314.0,124.0,314.0,132.5,313.5,141.0,313.5,149.0,312.5,157.0,312.5" stroke="black" stroke-width="2" fill="none" />
<polyline points="113.0,290.5,105.0,298.0" stroke="black" stroke-width="2" fill="none" />
<polyline points="108.0,296.0,116.0,295.0,123.5,294.5" stroke="black" stroke-width="2" fill="none" />
<polyline points="116.5,283.0,108.0,290.5" stroke="black" stroke-width="2" fill="none" />
<polyline points="106.5,290.0,114.5,290.0" stroke="black" stroke-width="2" fill="none" />
<polyline points="107.5,294.0,115.5,293.5,123.5,293.0,131.0,292.5,139.0,291.5,147.0,291.0,155.0,290.5" stroke="black" stroke-width="2" fill="none" />
<polyline points="171.5,273.0,164.0,274.0,156.0,274.5,147.5,275.5,139.5,276.0,131.5,277.0,123.5,278.0,115.5,279.0" stroke="black" stroke-width="2" fill="none" />
<polyline points="109.0,274.5,101.0,282.5" stroke="black" stroke-width="2" fill="none" />
<polyline points="99.0,280.5,107.0,280.0" stroke="black" stroke-width="2" fill="none" />
<polyline points="108.0,276.0,99.5,276.5" stroke="black" stroke-width="2" fill="none" />
<polyline points="98.0,269.0,106.5,268.0,115.0,267.5" stroke="black" stroke-width="2" fill="none" />
<polyline points="108.0,259.5,100.0,260.0" stroke="black" stroke-width="2" fill="none" />
<polyline points="98.5,236.0,107.0,236.0,114.5,235.5,122.5,235.5" stroke="black" stroke-width="2" fill="none" />
<polyline points="108.0,227.0,99.5,234.5" stroke="black" stroke-width="2" fill="none" />
<polyline points="97.5,231.0,105.5,230.0,113.5,229.0,121.5,228.5" stroke="black" stroke-width="2" fill="none" />
<polyline points="122.5,220.5,114.5,221.5,106.5,222.5,99.0,223.5" stroke="black" stroke-width="2" fill="none" />
<polyline points="100.5,285.5,108.5,284.5,116.5,284.0,125.0,283.5,133.0,282.0,140.5,281.0,148.0,280.5,155.5,280.0,163.0,280.0,170.5,280.0" stroke="black" stroke-width="2" fill="none" />
<polyline points="155.5,299.0,147.5,299.0,139.5,299.5,131.0,299.5,123.0,299.5,115.0,300.5,107.0,301.0" stroke="black" stroke-width="2" fill="none" />
<polyline points="184.5,474.0,192.5,473.0,201.5,472.5,210.0,472.0,219.0,471.5,227.5,471.5,236.0,471.0,244.0,471.0" stroke="black" stroke-width="2" fill="none" />
<polyline points="244.0,479.5,236.0,480.0,227.5,480.5,219.0,481.5,211.0,482.5,203.0,483.0,195.0,484.0" stroke="black" stroke-width="2" fill="none" />
<polyline points="186.0,476.0,194.0,475.5,202.5,475.0,210.5,474.5,219.0,474.5,227.0,474.0,236.0,474.5,244.0,475.0,252.0,475.0,260.5,475.0,269.0,474.0,277.0,474.0,285.0,473.5,293.0,473.0,300.5,473.0,308.5,473.0,316.5,472.5,324.0,472.0,332.0,471.5,339.5,471.0,347.5,470.5,355.5,470.0,363.5,469.0,372.0,468.0,380.5,467.0,389.0,465.5,396.5,465.0,403.5,464.5,411.5,464.0,419.5,463.0,427.5,462.5,436.0,462.0,444.0,461.5,452.0,460.5,460.0,460.0,467.0,459.0,475.0,459.0,482.5,458.5,490.0,458.0,498.0,458.0,505.5,457.5,514.0,457.5" stroke="black" stroke-width="2" fill="none" />
</svg>