<svg xmlns="http://www.w3.org/2000/svg" version="1.1"><polyline points="4.0,4.5,12.5,4.0,21.0,4.0,29.5,4.5,37.5,4.5,45.5,4.0,53.0,4.0,61.5,4.0,69.0,3.0,76.5,2.0,84.5,1.5,92.0,1.0,100.0,0.5,108.0,0.0,115.5,-1.0,123.5,-1.5,131.0,-2.5,138.5,-3.5,146.5,-4.5,154.0,-5.0,162.0,-5.0,170.0,-6.0,179.0,-7.0,187.5,-7.5,196.0,-7.5,204.5,-8.0,213.0,-9.0,221.0,-9.5" stroke="black" stroke-width="2" fill="none" />
<polyline points="173.5,4.0,165.5,11.5,156.5,18.5" stroke="black" stroke-width="2" fill="none" />
<polyline points="155.5,27.0,164.0,20.0,172.5,12.5" stroke="black" stroke-width="2" fill="none" />
<polyline points="171.0,20.0,162.5,27.5,154.5,35.5" stroke="black" stroke-width="2" fill="none" />
<polyline points="163.5,34.5,171.0,27.0" stroke="black" stroke-width="2" fill="none" />
<polyline points="154.0,11.0,162.0,3.5" stroke="black" stroke-width="2" fill="none" />
<polyline points="155.0,4.5,147.0,12.0" stroke="black" stroke-width="2" fill="none" />
<polyline points="132.0,1.0,124.0,8.5" stroke="black" stroke-width="2" fill="none" />
<polyline points="124.5,3.0,116.5,10.5" stroke="black" stroke-width="2" fill="none" />
<polyline points="116.0,2.5,107.5,10.0" stroke="black" stroke-width="2" fill="none" />
<polyline points="108.5,3.5,100.0,10.5" stroke="black" stroke-width="2" fill="none" />
<polyline points="100.0,4.0,92.0,11.5" stroke="black" stroke-width="2" fill="none" />
<polyline points="84.0,10.5,92.0,3.0" stroke="black" stroke-width="2" fill="none" />
<polyline points="75.0,3.0,67.0,11.0,59.5,19.0,51.5,26.5,44.0,34.0" stroke="black" stroke-width="2" fill="none" />
<polyline points="44.0,26.5,51.5,19.5,59.0,12.0,67.0,4.5" stroke="black" stroke-width="2" fill="none" />
<polyline points="59.5,4.0,51.0,11.5,43.0,18.5" stroke="black" stroke-width="2" fill="none" />
<polyline points="42.5,11.0,50.5,3.5" stroke="black" stroke-width="2" fill="none" />
<polyline points="43.0,5.0,35.5,12.0" stroke="black" stroke-width="2" fill="none" />
<polyline points="18.5,13.0,11.0,20.5,3.0,27.5" stroke="black" stroke-width="2" fill="none" />
<polyline points="5.5,28.0,13.0,28.0,21.0,28.5,29.0,28.0,36.0,28.0,44.0,27.5,52.0,27.0,59.5,27.0,66.5,26.5,74.5,25.5,83.0,24.5,91.0,24.5,98.5,24.0,106.5,23.5" stroke="black" stroke-width="2" fill="none" />
<polyline points="123.0,22.0,131.0,22.0,139.5,21.5,148.0,20.5,156.5,20.0,164.5,19.5,173.0,19.0,180.5,18.5,188.5,17.5,196.5,16.5" stroke="black" stroke-width="2" fill="none" />
<polyline points="178.5,67.5,171.0,68.0,163.5,69.0,155.5,70.0" stroke="black" stroke-width="2" fill="none" />
<polyline points="155.0,62.0,162.5,61.0,170.5,60.5,179.0,59.5" stroke="black" stroke-width="2" fill="none" />
<polyline points="180.5,76.0,173.5,76.5,166.0,77.0" stroke="black" stroke-width="2" fill="none" />
<polyline points="156.0,86.0,164.5,86.0,173.0,85.0,181.0,83.5,189.0,82.5" stroke="black" stroke-width="2" fill="none" />
<polyline points="177.5,90.0,170.0,98.0" stroke="black" stroke-width="2" fill="none" />
<polyline points="156.5,94.5,164.5,94.0,173.0,93.0,181.0,92.5,189.0,92.5" stroke="black" stroke-width="2" fill="none" />
<polyline points="187.5,96.0,179.5,96.5,172.0,96.5,164.0,97.5,155.0,98.5,147.0,99.5,139.0,100.5,130.5,101.0" stroke="black" stroke-width="2" fill="none" />
<polyline points="125.5,111.5,133.0,111.0,140.5,111.0,148.0,110.5,156.0,110.0,164.0,109.0,171.5,108.0,178.5,107.5,186.0,107.0" stroke="black" stroke-width="2" fill="none" />
<polyline points="238.0,146.5,245.5,146.0,252.5,146.5" stroke="black" stroke-width="2" fill="none" />
<polyline points="268.5,150.5,276.5,150.0,284.5,150.0,292.5,149.5,300.5,148.5,308.0,148.0" stroke="black" stroke-width="2" fill="none" />
<polyline points="309.0,147.5,316.5,140.5,324.5,133.0" stroke="black" stroke-width="2" fill="none" />
<polyline points="323.5,141.5,331.5,141.0" stroke="black" stroke-width="2" fill="none" />
<polyline points="339.5,141.5,347.5,141.0" stroke="black" stroke-width="2" fill="none" />
<polyline points="357.0,122.0,364.5,114.5,372.0,107.0,380.0,100.0,387.5,93.0,395.0,86.0,402.5,78.5" stroke="black" stroke-width="2" fill="none" />
<polyline points="402.5,85.0,394.5,92.5,386.5,100.0,378.5,107.0,371.0,114.0,363.5,121.0" stroke="black" stroke-width="2" fill="none" />
<polyline points="356.5,118.5,364.5,118.0,373.0,117.5,381.0,117.0,388.5,117.0" stroke="black" stroke-width="2" fill="none" />
<polyline points="397.0,116.0,404.5,115.5,412.0,115.0,420.0,115.0,428.5,114.5,436.5,113.5,444.0,113.5,452.0,113.5,460.0,113.0,468.0,112.0,476.0,111.5,483.5,111.0,492.0,110.5,500.0,110.5,508.0,111.0,515.5,111.0" stroke="black" stroke-width="2" fill="none" />
<polyline points="514.5,107.5,506.0,114.5,498.5,122.5,491.0,130.0" stroke="black" stroke-width="2" fill="none" />
<polyline points="499.5,137.0,508.0,129.5,515.5,123.0" stroke="black" stroke-width="2" fill="none" />
<polyline points="516.0,129.5,508.5,137.0" stroke="black" stroke-width="2" fill="none" />
<polyline points="509.5,138.0,517.0,137.5" stroke="black" stroke-width="2" fill="none" />
<polyline points="516.5,140.0,508.5,147.0" stroke="black" stroke-width="2" fill="none" />
<polyline points="516.5,141.0,508.0,141.0,500.0,141.5" stroke="black" stroke-width="2" fill="none" />
<polyline points="498.5,129.5,506.5,122.0,514.5,114.5" stroke="black" stroke-width="2" fill="none" />
<polyline points="515.5,99.0,507.5,106.5,499.0,114.0,491.0,121.5,483.5,129.0" stroke="black" stroke-width="2" fill="none" />
<polyline points="477.0,130.5,484.0,123.0,492.0,115.5" stroke="black" stroke-width="2" fill="none" />
<polyline points="499.5,107.0,507.0,100.0,515.0,92.5" stroke="black" stroke-width="2" fill="none" />
<polyline points="515.5,85.0,508.0,92.5,500.0,100.0,492.0,107.5" stroke="black" stroke-width="2" fill="none" />
<polyline points="491.0,98.5,499.5,90.5,507.5,83.0" stroke="black" stroke-width="2" fill="none" />
<polyline points="500.0,82.5,508.0,75.0" stroke="black" stroke-width="2" fill="none" />
<polyline points="499.0,73.5,490.5,81.0,482.5,88.5,474.0,96.5" stroke="black" stroke-width="2" fill="none" />
<polyline points="474.5,105.5,482.0,98.0,490.0,90.0" stroke="black" stroke-width="2" fill="none" />
<polyline points="486.0,84.0,478.0,91.5,470.0,99.0" stroke="black" stroke-width="2" fill="none" />
<polyline points="468.5,91.5,476.5,84.5" stroke="black" stroke-width="2" fill="none" />
<polyline points="468.5,54.0,476.5,53.5,484.5,53.0" stroke="black" stroke-width="2" fill="none" />
<polyline points="501.5,30.5,509.5,30.0,517.0,29.5" stroke="black" stroke-width="2" fill="none" />
<polyline points="508.0,27.5,516.0,19.5" stroke="black" stroke-width="2" fill="none" />
<polyline points="505.5,11.0,513.5,3.5" stroke="black" stroke-width="2" fill="none" />
<polyline points="516.5,21.5,509.0,21.5,501.0,22.5" stroke="black" stroke-width="2" fill="none" />
<polyline points="493.5,11.5,501.5,11.0,509.0,11.5,517.0,11.5" stroke="black" stroke-width="2" fill="none" />
<polyline points="516.5,4.5,508.5,5.0,501.0,6.0,493.0,6.5" stroke="black" stroke-width="2" fill="none" />
<polyline points="509.0,37.0,516.5,37.0" stroke="black" stroke-width="2" fill="none" />
<polyline points="481.5,3.0,473.0,4.0,464.5,4.5,456.5,5.0" stroke="black" stroke-width="2" fill="none" />
<polyline points="429.0,30.0,420.5,37.5" stroke="black" stroke-width="2" fill="none" />
<polyline points="420.5,45.5,428.5,38.0" stroke="black" stroke-width="2" fill="none" />
<polyline points="443.0,35.0,434.5,35.5,426.5,36.0,418.5,36.5,410.5,37.0" stroke="black" stroke-width="2" fill="none" />
<polyline points="404.5,42.5,396.5,50.5,388.5,58.0,380.5,66.0,372.0,73.5,364.0,82.0,355.5,90.0,347.5,97.5,339.5,105.0" stroke="black" stroke-width="2" fill="none" />
<polyline points="338.0,108.5,345.5,108.0,353.5,107.5,361.5,107.0,369.5,107.0,378.0,106.5,386.5,106.5,395.5,106.5,403.5,106.5,411.5,106.0,419.5,105.5,428.0,105.0,436.0,104.5,444.0,103.5,451.5,102.5,459.5,101.5,467.5,101.0,476.0,100.5,484.0,100.5,492.0,100.5,500.0,100.0,508.0,99.5,516.0,98.5" stroke="black" stroke-width="2" fill="none" />
<polyline points="516.5,131.5,508.5,131.5,500.0,132.5,492.0,132.5,483.5,132.5,475.5,133.0" stroke="black" stroke-width="2" fill="none" />
<polyline points="458.0,124.5,450.5,132.0,443.5,139.5" stroke="black" stroke-width="2" fill="none" />
<polyline points="443.5,141.0,451.5,141.0,460.0,140.5,468.0,140.5,476.0,140.0,484.0,139.5,492.5,139.5" stroke="black" stroke-width="2" fill="none" />
<polyline points="477.0,163.5,469.0,171.5" stroke="black" stroke-width="2" fill="none" />
<polyline points="468.0,163.5,460.0,171.5" stroke="black" stroke-width="2" fill="none" />
<polyline points="459.5,164.0,467.5,156.5" stroke="black" stroke-width="2" fill="none" />
<polyline points="452.0,148.5,459.5,148.0,468.0,147.5,476.0,147.5,484.0,148.0,491.5,148.0" stroke="black" stroke-width="2" fill="none" />
<polyline points="475.0,188.0,467.5,188.5" stroke="black" stroke-width="2" fill="none" />
<polyline points="452.0,181.5,444.0,182.0" stroke="black" stroke-width="2" fill="none" />
<polyline points="434.5,176.5,442.5,169.0" stroke="black" stroke-width="2" fill="none" />
<polyline points="435.5,170.5,427.5,178.0" stroke="black" stroke-width="2" fill="none" />
<polyline points="421.0,174.0,429.0,173.5,436.5,173.5,444.0,173.5,451.5,173.0,459.5,173.0,467.0,172.0,475.0,171.5,483.0,171.0,491.5,170.5,499.5,170.0" stroke="black" stroke-width="2" fill="none" />
<polyline points="500.0,205.0,508.0,205.0" stroke="black" stroke-width="2" fill="none" />
<polyline points="507.0,213.0,515.0,212.5" stroke="black" stroke-width="2" fill="none" />
<polyline points="507.5,228.0,499.0,236.0" stroke="black" stroke-width="2" fill="none" />
<polyline points="505.5,237.5,514.0,237.0" stroke="black" stroke-width="2" fill="none" />
<polyline points="517.5,236.0,509.5,243.5" stroke="black" stroke-width="2" fill="none" />
<polyline points="506.5,242.0,514.5,241.5" stroke="black" stroke-width="2" fill="none" />
<polyline points="515.5,250.5,507.5,258.5" stroke="black" stroke-width="2" fill="none" />
<polyline points="506.0,254.0,514.5,253.5" stroke="black" stroke-width="2" fill="none" />
<polyline points="514.5,259.5,506.5,267.0" stroke="black" stroke-width="2" fill="none" />
<polyline points="507.0,265.0,515.0,265.0" stroke="black" stroke-width="2" fill="none" />
<polyline points="509.0,274.5,500.5,282.0" stroke="black" stroke-width="2" fill="none" />
<polyline points="499.0,279.5,507.0,279.0" stroke="black" stroke-width="2" fill="none" />
<polyline points="501.0,276.5,509.0,276.0,516.5,275.5" stroke="black" stroke-width="2" fill="none" />
<polyline points="508.0,268.5,500.0,269.5" stroke="black" stroke-width="2" fill="none" />
<polyline points="500.5,260.0,508.5,260.0,516.0,260.0" stroke="black" stroke-width="2" fill="none" />
<polyline points="501.5,243.0,493.0,250.5" stroke="black" stroke-width="2" fill="none" />
<polyline points="492.5,234.5,500.5,227.0" stroke="black" stroke-width="2" fill="none" />
<polyline points="493.5,220.5,485.5,228.0" stroke="black" stroke-width="2" fill="none" />
<polyline points="483.0,231.0,491.0,230.5,499.0,229.0,507.0,228.0" stroke="black" stroke-width="2" fill="none" />
<polyline points="500.5,219.5,492.0,220.0,484.0,220.5" stroke="black" stroke-width="2" fill="none" />
<polyline points="478.0,215.5,486.0,214.5,493.5,214.0" stroke="black" stroke-width="2" fill="none" />
<polyline points="493.0,206.0,485.5,206.5" stroke="black" stroke-width="2" fill="none" />
<polyline points="469.5,226.5,461.5,234.0" stroke="black" stroke-width="2" fill="none" />
<polyline points="465.5,236.5,473.5,236.5,482.0,236.0" stroke="black" stroke-width="2" fill="none" />
<polyline points="476.5,236.0,468.0,243.0" stroke="black" stroke-width="2" fill="none" />
<polyline points="465.5,246.0,474.0,245.0,482.0,244.0,490.0,243.5,497.5,243.0" stroke="black" stroke-width="2" fill="none" />
<polyline points="475.5,262.0,467.5,262.5" stroke="black" stroke-width="2" fill="none" />
<polyline points="451.5,252.0,444.0,259.5" stroke="black" stroke-width="2" fill="none" />
<polyline points="442.5,258.5,451.0,258.0" stroke="black" stroke-width="2" fill="none" />
<polyline points="444.5,252.0,452.5,244.0" stroke="black" stroke-width="2" fill="none" />
<polyline points="452.5,247.5,444.5,248.0" stroke="black" stroke-width="2" fill="none" />
<polyline points="445.0,243.5,453.0,243.0,461.0,243.0" stroke="black" stroke-width="2" fill="none" />
<polyline points="459.0,229.5,467.0,229.0" stroke="black" stroke-width="2" fill="none" />
<polyline points="457.5,252.0,450.0,252.5,442.0,253.5" stroke="black" stroke-width="2" fill="none" />
<polyline points="442.0,259.5,434.0,259.5" stroke="black" stroke-width="2" fill="none" />
<polyline points="435.0,281.5,427.0,289.5,419.0,297.0,411.0,304.5,403.0,312.5,395.5,320.5" stroke="black" stroke-width="2" fill="none" />
<polyline points="397.0,321.0,405.0,321.0,413.0,321.0,421.0,320.5,428.5,319.5,436.0,319.0" stroke="black" stroke-width="2" fill="none" />
<polyline points="444.0,322.5,452.0,321.5,460.0,321.0" stroke="black" stroke-width="2" fill="none" />
<polyline points="459.5,325.0,451.5,332.5,443.5,340.0" stroke="black" stroke-width="2" fill="none" />
<polyline points="451.5,337.5,460.0,330.0,467.5,323.0,475.0,315.5,482.5,308.0" stroke="black" stroke-width="2" fill="none" />
<polyline points="483.5,303.0,491.0,302.5,498.5,301.5,506.0,301.0" stroke="black" stroke-width="2" fill="none" />
<polyline points="508.5,306.0,500.5,313.0,492.5,321.0,484.5,328.5,476.0,335.5" stroke="black" stroke-width="2" fill="none" />
<polyline points="491.0,336.5,498.5,328.5,506.5,320.5,514.5,313.0" stroke="black" stroke-width="2" fill="none" />
<polyline points="508.0,315.5,499.5,323.0,491.5,330.0,483.5,337.0" stroke="black" stroke-width="2" fill="none" />
<polyline points="498.0,338.5,505.5,330.5" stroke="black" stroke-width="2" fill="none" />
<polyline points="501.0,335.0,509.0,335.5,516.5,335.5" stroke="black" stroke-width="2" fill="none" />
<polyline points="514.0,330.5,506.0,338.5" stroke="black" stroke-width="2" fill="none" />
<polyline points="501.0,311.5,508.5,311.0" stroke="black" stroke-width="2" fill="none" />
<polyline points="501.0,306.5,493.0,314.0,484.0,321.5,475.5,329.0,467.5,336.0" stroke="black" stroke-width="2" fill="none" />
<polyline points="460.5,337.0,468.5,329.0,476.0,322.0,483.5,315.0,490.5,307.5" stroke="black" stroke-width="2" fill="none" />
<polyline points="475.5,308.5,468.0,316.5" stroke="black" stroke-width="2" fill="none" />
<polyline points="465.5,322.0,473.5,321.5,482.0,320.5,490.5,320.0,499.0,319.0,507.5,318.5,515.5,317.5" stroke="black" stroke-width="2" fill="none" />
<polyline points="468.5,308.5,460.5,316.0,453.5,323.5,445.5,331.0,438.0,338.5" stroke="black" stroke-width="2" fill="none" />
<polyline points="425.5,335.0,433.5,327.5,442.0,320.5,450.5,313.0,459.5,305.5,467.5,297.5,475.5,290.0" stroke="black" stroke-width="2" fill="none" />
<polyline points="469.0,291.5,461.0,299.0,452.5,306.0,444.5,313.0,437.5,320.5,430.0,328.5,421.5,335.5" stroke="black" stroke-width="2" fill="none" />
<polyline points="412.0,336.0,420.0,328.5,428.0,321.5,436.0,314.0,444.5,306.5,452.5,299.5,460.5,292.0" stroke="black" stroke-width="2" fill="none" />
<polyline points="450.5,293.5,442.5,300.5,434.5,307.5,426.5,315.0,418.5,322.0,410.5,329.5,403.0,337.0" stroke="black" stroke-width="2" fill="none" />
<polyline points="402.5,337.5,410.5,336.5,419.0,336.0,427.0,336.0,434.5,336.5,442.5,336.0" stroke="black" stroke-width="2" fill="none" />
<polyline points="451.0,335.0,459.5,335.0,468.0,335.0,476.0,335.5,484.0,335.5,492.0,335.5" stroke="black" stroke-width="2" fill="none" />
<polyline points="509.5,326.0,501.5,326.5,493.5,327.5,485.0,328.5,476.5,330.0,468.0,331.0,460.0,331.5" stroke="black" stroke-width="2" fill="none" />
<polyline points="453.5,313.0,461.0,312.0,469.0,311.5,477.5,311.5,485.5,311.0" stroke="black" stroke-width="2" fill="none" />
<polyline points="468.5,305.0,460.0,306.0,452.0,306.5,443.5,307.0" stroke="black" stroke-width="2" fill="none" />
<polyline points="427.0,298.5,435.0,297.5,443.5,297.0,451.5,296.5,460.0,296.0,468.0,295.5" stroke="black" stroke-width="2" fill="none" />
<polyline points="452.0,284.5,444.0,292.0,436.0,299.5,427.5,307.0,418.5,314.0,409.5,321.0,402.0,328.5" stroke="black" stroke-width="2" fill="none" />
<polyline points="403.0,333.0,411.0,332.5,418.5,332.0,426.0,331.5,434.0,330.5,442.0,330.0,450.0,330.0,458.5,329.5,467.0,329.0,475.0,328.5,483.5,327.5,491.0,327.0,499.0,326.5,507.0,326.5,515.5,326.5" stroke="black" stroke-width="2" fill="none" />
<polyline points="444.0,283.5,435.5,291.0,428.0,298.0,420.0,305.5,411.5,313.0,403.5,320.5,395.5,328.5" stroke="black" stroke-width="2" fill="none" />
<polyline points="394.0,328.5,402.5,327.5,410.5,327.0,418.5,326.0,426.0,325.5,434.0,325.0,441.5,324.5,449.5,324.5" stroke="black" stroke-width="2" fill="none" />
<polyline points="436.0,305.5,428.0,307.0,420.0,308.0" stroke="black" stroke-width="2" fill="none" />
<polyline points="418.5,291.0,410.5,292.0" stroke="black" stroke-width="2" fill="none" />
<polyline points="405.5,291.0,397.5,298.5,389.0,306.0" stroke="black" stroke-width="2" fill="none" />
<polyline points="387.5,307.5,395.0,306.5,403.0,306.0,411.0,305.0" stroke="black" stroke-width="2" fill="none" />
<polyline points="393.5,290.5,386.0,298.0" stroke="black" stroke-width="2" fill="none" />
<polyline points="380.5,296.5,388.5,296.0,396.5,295.5,404.0,295.5,411.5,295.5,419.5,295.5" stroke="black" stroke-width="2" fill="none" />
<polyline points="420.5,283.5,413.0,291.0,404.5,299.0,396.5,307.0,388.0,314.5" stroke="black" stroke-width="2" fill="none" />
<polyline points="387.5,315.5,395.5,315.5,404.0,315.5,412.0,315.0,420.0,314.5,428.0,313.5,436.0,314.0,443.5,314.0,451.5,314.0,459.5,314.0,468.0,313.5,476.0,312.5,484.0,312.0,492.5,311.5,500.5,311.5,509.0,310.5,517.0,310.0" stroke="black" stroke-width="2" fill="none" />
<polyline points="428.5,283.0,420.0,290.5,412.0,298.0,404.0,305.0,396.0,312.0,388.0,319.0" stroke="black" stroke-width="2" fill="none" />
<polyline points="389.0,324.0,397.0,324.0,405.5,323.5,413.5,323.0,421.5,322.5,429.0,322.0,436.5,321.5,444.0,321.0,451.5,320.5,459.5,320.5,467.5,320.0,475.5,319.5,483.5,318.5,492.0,318.0,500.0,317.0,508.0,317.0,516.5,317.0" stroke="black" stroke-width="2" fill="none" />
<polyline points="428.5,259.5,420.5,260.0,412.5,261.0,404.5,262.0" stroke="black" stroke-width="2" fill="none" />
<polyline points="387.0,276.0,379.0,282.5,370.5,289.5" stroke="black" stroke-width="2" fill="none" />
<polyline points="372.0,289.5,379.5,289.5" stroke="black" stroke-width="2" fill="none" />
<polyline points="378.5,292.0,386.5,285.0" stroke="black" stroke-width="2" fill="none" />
<polyline points="388.0,292.0,396.0,291.5" stroke="black" stroke-width="2" fill="none" />
<polyline points="395.0,283.0,386.5,291.0,378.5,298.5" stroke="black" stroke-width="2" fill="none" />
<polyline points="379.5,294.5,387.5,293.5,395.5,293.0,403.5,292.5,412.0,292.5,419.5,292.0,427.5,291.5,435.5,290.0,443.5,289.5,451.5,288.5,459.5,288.0,467.5,288.0,476.0,287.5,484.0,287.5,492.0,287.0" stroke="black" stroke-width="2" fill="none" />
<polyline points="413.5,235.5,405.5,236.0" stroke="black" stroke-width="2" fill="none" />
<polyline points="377.0,243.0,369.5,243.0,361.0,244.0" stroke="black" stroke-width="2" fill="none" />
<polyline points="363.5,238.5,371.5,238.0,379.5,237.0,387.0,236.0,394.5,234.5" stroke="black" stroke-width="2" fill="none" />
<polyline points="380.0,276.5,372.0,283.5,364.0,291.0,356.0,298.5" stroke="black" stroke-width="2" fill="none" />
<polyline points="357.0,305.5,365.0,298.0" stroke="black" stroke-width="2" fill="none" />
<polyline points="357.0,291.5,365.0,284.0" stroke="black" stroke-width="2" fill="none" />
<polyline points="364.0,275.5,356.0,283.0,348.5,291.0" stroke="black" stroke-width="2" fill="none" />
<polyline points="348.5,293.5,356.5,293.0,364.5,293.0" stroke="black" stroke-width="2" fill="none" />
<polyline points="370.0,309.0,378.0,308.5" stroke="black" stroke-width="2" fill="none" />
<polyline points="382.5,306.5,374.0,315.0" stroke="black" stroke-width="2" fill="none" />
<polyline points="370.5,314.0,378.0,313.5" stroke="black" stroke-width="2" fill="none" />
<polyline points="381.0,315.5,373.0,323.0" stroke="black" stroke-width="2" fill="none" />
<polyline points="380.5,323.0,372.5,331.0,364.5,338.5" stroke="black" stroke-width="2" fill="none" />
<polyline points="365.0,337.5,372.5,337.0,379.5,336.0,387.5,335.5" stroke="black" stroke-width="2" fill="none" />
<polyline points="386.5,332.0,378.5,339.5" stroke="black" stroke-width="2" fill="none" />
<polyline points="372.5,338.0,380.5,330.5" stroke="black" stroke-width="2" fill="none" />
<polyline points="362.5,330.0,354.5,337.5" stroke="black" stroke-width="2" fill="none" />
<polyline points="346.5,333.5,354.5,333.5,363.0,333.0,371.5,332.5,379.0,332.5,387.0,331.5,395.0,331.5" stroke="black" stroke-width="2" fill="none" />
<polyline points="386.5,313.0,395.0,312.5,403.5,312.0,411.5,311.0,420.0,310.5" stroke="black" stroke-width="2" fill="none" />
<polyline points="387.0,309.0,395.0,308.5,403.5,308.0,411.5,308.0,419.5,308.0,427.5,308.0,435.5,307.0,442.5,307.0,450.5,306.5,458.5,306.0,466.5,305.5,475.0,305.0,482.5,304.5,490.5,303.0,499.0,301.5,507.5,300.5,515.5,299.5" stroke="black" stroke-width="2" fill="none" />
<polyline points="476.0,295.5,468.0,296.5,460.0,297.0,452.0,297.5,444.0,297.5,436.0,297.5,427.5,298.0,419.5,298.5,411.5,299.5,404.0,300.5,396.0,301.5,388.0,302.0,379.5,302.5" stroke="black" stroke-width="2" fill="none" />
<polyline points="377.5,316.0,370.0,316.0,362.0,316.5" stroke="black" stroke-width="2" fill="none" />
<polyline points="356.5,316.0,348.5,323.5" stroke="black" stroke-width="2" fill="none" />
<polyline points="345.5,323.0,354.0,322.0" stroke="black" stroke-width="2" fill="none" />
<polyline points="355.0,318.0,347.0,318.5" stroke="black" stroke-width="2" fill="none" />
<polyline points="349.0,309.5,341.5,310.0" stroke="black" stroke-width="2" fill="none" />
<polyline points="340.5,307.0,348.5,299.5" stroke="black" stroke-width="2" fill="none" />
<polyline points="348.0,288.5,356.0,288.0,364.5,288.0" stroke="black" stroke-width="2" fill="none" />
<polyline points="347.5,282.0,355.5,275.5,363.5,268.0" stroke="black" stroke-width="2" fill="none" />
<polyline points="348.5,267.5,340.5,274.5,332.0,282.0,324.0,289.5,316.0,297.0" stroke="black" stroke-width="2" fill="none" />
<polyline points="308.5,298.0,316.5,297.5,324.0,297.0,332.0,296.5" stroke="black" stroke-width="2" fill="none" />
<polyline points="332.0,298.5,340.5,290.5" stroke="black" stroke-width="2" fill="none" />
<polyline points="345.5,284.5,354.0,284.5,362.5,284.0,370.5,283.5,379.0,282.5,387.0,282.0,395.0,281.5,403.0,281.0,411.0,280.5,418.5,279.5,426.0,279.5,434.5,278.5,442.5,278.0,450.5,277.0,458.0,276.5" stroke="black" stroke-width="2" fill="none" />
<polyline points="378.0,325.5,370.5,325.5,362.5,325.5" stroke="black" stroke-width="2" fill="none" />
<polyline points="363.5,298.5,355.5,299.5,347.5,300.0,339.0,300.5,330.5,300.5" stroke="black" stroke-width="2" fill="none" />
<polyline points="315.5,305.5,323.5,298.5,331.5,291.5,339.5,285.0,347.0,277.5" stroke="black" stroke-width="2" fill="none" />
<polyline points="348.0,273.0,340.0,273.5" stroke="black" stroke-width="2" fill="none" />
<polyline points="339.0,271.0,346.5,270.0,354.5,269.0,362.5,268.0,370.5,267.5" stroke="black" stroke-width="2" fill="none" />
<polyline points="348.0,262.5,340.0,263.5" stroke="black" stroke-width="2" fill="none" />
<polyline points="340.0,247.5,348.0,247.0,356.5,246.0" stroke="black" stroke-width="2" fill="none" />
<polyline points="355.5,227.5,347.5,227.5" stroke="black" stroke-width="2" fill="none" />
<polyline points="340.5,228.5,332.5,229.5" stroke="black" stroke-width="2" fill="none" />
<polyline points="323.5,270.5,315.0,271.0" stroke="black" stroke-width="2" fill="none" />
<polyline points="314.0,278.0,322.0,278.0,330.0,277.0,338.5,276.5,346.5,275.5,355.5,275.5,363.0,274.5,370.5,274.0,378.5,273.5,386.5,273.0,394.5,272.5" stroke="black" stroke-width="2" fill="none" />
<polyline points="355.5,280.0,347.5,280.5,340.0,280.0,332.0,280.5" stroke="black" stroke-width="2" fill="none" />
<polyline points="323.0,283.0,315.0,290.5,307.0,297.5" stroke="black" stroke-width="2" fill="none" />
<polyline points="308.5,291.5,316.0,290.5,324.0,290.0,331.5,288.5,339.0,287.0" stroke="black" stroke-width="2" fill="none" />
<polyline points="321.0,276.5,313.5,284.0,305.0,291.5" stroke="black" stroke-width="2" fill="none" />
<polyline points="299.5,282.5,291.5,290.0,284.0,297.0" stroke="black" stroke-width="2" fill="none" />
<polyline points="283.0,290.5,291.0,282.5,299.5,274.5" stroke="black" stroke-width="2" fill="none" />
<polyline points="290.0,275.0,282.5,282.5,274.5,289.5,267.0,297.0,260.0,304.5" stroke="black" stroke-width="2" fill="none" />
<polyline points="258.5,304.0,266.5,303.0,274.5,302.5" stroke="black" stroke-width="2" fill="none" />
<polyline points="275.5,299.5,267.5,307.5" stroke="black" stroke-width="2" fill="none" />
<polyline points="268.0,307.0,260.0,307.5" stroke="black" stroke-width="2" fill="none" />
<polyline points="259.0,306.5,267.0,305.5,275.5,305.0" stroke="black" stroke-width="2" fill="none" />
<polyline points="277.0,316.0,284.5,315.5" stroke="black" stroke-width="2" fill="none" />
<polyline points="276.0,322.0,268.0,330.0" stroke="black" stroke-width="2" fill="none" />
<polyline points="260.5,324.5,268.5,324.0,277.0,324.0,285.0,324.0,293.0,323.5,301.0,323.5,308.0,323.0" stroke="black" stroke-width="2" fill="none" />
<polyline points="315.0,325.5,322.5,324.5" stroke="black" stroke-width="2" fill="none" />
<polyline points="323.0,304.5,314.5,305.5" stroke="black" stroke-width="2" fill="none" />
<polyline points="323.0,300.5,315.0,300.5,307.5,301.0,299.5,301.5" stroke="black" stroke-width="2" fill="none" />
<polyline points="299.0,289.5,290.5,290.0" stroke="black" stroke-width="2" fill="none" />
<polyline points="282.5,286.5,274.5,287.0" stroke="black" stroke-width="2" fill="none" />
<polyline points="274.5,285.0,282.5,284.0,290.5,283.5,299.0,283.0,307.5,282.5,315.5,282.0,324.0,281.5,332.0,281.0,340.5,281.0" stroke="black" stroke-width="2" fill="none" />
<polyline points="322.0,279.0,313.5,279.5" stroke="black" stroke-width="2" fill="none" />
<polyline points="282.0,268.0,274.0,275.0" stroke="black" stroke-width="2" fill="none" />
<polyline points="274.5,279.5,282.0,279.0,290.5,277.5,299.0,276.5" stroke="black" stroke-width="2" fill="none" />
<polyline points="283.5,268.0,275.0,269.0,266.0,269.5" stroke="black" stroke-width="2" fill="none" />
<polyline points="267.0,291.5,259.0,299.0" stroke="black" stroke-width="2" fill="none" />
<polyline points="258.0,297.5,266.0,297.0" stroke="black" stroke-width="2" fill="none" />
<polyline points="250.5,297.5,242.5,305.5,234.5,313.5" stroke="black" stroke-width="2" fill="none" />
<polyline points="234.5,313.0,243.0,313.0" stroke="black" stroke-width="2" fill="none" />
<polyline points="243.0,309.0,235.0,309.0" stroke="black" stroke-width="2" fill="none" />
<polyline points="236.5,307.5,245.0,300.5" stroke="black" stroke-width="2" fill="none" />
<polyline points="253.0,301.0,244.5,301.5,236.5,302.5" stroke="black" stroke-width="2" fill="none" />
<polyline points="238.0,306.5,245.5,305.5,253.0,304.5" stroke="black" stroke-width="2" fill="none" />
<polyline points="261.5,316.0,269.5,315.5" stroke="black" stroke-width="2" fill="none" />
<polyline points="267.5,316.0,259.5,323.5" stroke="black" stroke-width="2" fill="none" />
<polyline points="260.5,319.5,268.5,319.5" stroke="black" stroke-width="2" fill="none" />
<polyline points="292.5,329.5,300.5,322.0" stroke="black" stroke-width="2" fill="none" />
<polyline points="235.5,291.5,227.5,299.0" stroke="black" stroke-width="2" fill="none" />
<polyline points="227.0,292.0,219.0,299.0" stroke="black" stroke-width="2" fill="none" />
<polyline points="210.0,291.5,202.0,299.0,193.5,306.5" stroke="black" stroke-width="2" fill="none" />
<polyline points="194.5,308.5,203.0,308.0,211.5,308.0" stroke="black" stroke-width="2" fill="none" />
<polyline points="209.5,308.0,202.0,315.5" stroke="black" stroke-width="2" fill="none" />
<polyline points="202.5,314.0,211.0,313.5" stroke="black" stroke-width="2" fill="none" />
<polyline points="204.0,304.0,196.5,304.5,188.5,304.5" stroke="black" stroke-width="2" fill="none" />
<polyline points="185.5,305.5,193.5,298.0,201.5,290.5" stroke="black" stroke-width="2" fill="none" />
<polyline points="195.5,290.5,187.5,298.0" stroke="black" stroke-width="2" fill="none" />
<polyline points="189.5,300.5,197.0,300.0,205.5,299.5" stroke="black" stroke-width="2" fill="none" />
<polyline points="188.0,288.5,180.0,296.5,171.5,305.0,163.5,313.5" stroke="black" stroke-width="2" fill="none" />
<polyline points="157.5,308.5,164.5,308.5,172.5,308.0" stroke="black" stroke-width="2" fill="none" />
<polyline points="171.0,305.0,179.0,304.5" stroke="black" stroke-width="2" fill="none" />
<polyline points="172.0,291.5,164.5,299.5" stroke="black" stroke-width="2" fill="none" />
<polyline points="163.0,304.5,171.0,297.0,179.0,289.5,187.0,282.0" stroke="black" stroke-width="2" fill="none" />
<polyline points="193.5,282.0,201.5,274.5" stroke="black" stroke-width="2" fill="none" />
<polyline points="204.0,275.0,195.5,275.0" stroke="black" stroke-width="2" fill="none" />
<polyline points="194.5,269.5,203.0,269.0,211.5,268.0,219.5,267.5,227.5,267.0,235.5,266.5,243.5,266.5" stroke="black" stroke-width="2" fill="none" />
<polyline points="235.5,267.0,227.5,274.0" stroke="black" stroke-width="2" fill="none" />
<polyline points="226.5,268.0,218.5,275.5" stroke="black" stroke-width="2" fill="none" />
<polyline points="219.5,260.5,211.5,261.5,203.5,262.0" stroke="black" stroke-width="2" fill="none" />
<polyline points="187.0,260.5,179.0,261.0" stroke="black" stroke-width="2" fill="none" />
<polyline points="162.5,268.5,154.5,275.5" stroke="black" stroke-width="2" fill="none" />
<polyline points="157.5,282.0,149.5,289.5,141.0,297.0" stroke="black" stroke-width="2" fill="none" />
<polyline points="138.5,303.5,146.5,303.0,153.5,302.5,161.5,302.0,169.5,301.5,178.0,300.5" stroke="black" stroke-width="2" fill="none" />
<polyline points="173.5,282.5,165.5,290.0,157.5,297.5,149.0,306.0" stroke="black" stroke-width="2" fill="none" />
<polyline points="138.5,308.0,147.0,300.5,155.0,292.5,163.5,285.0" stroke="black" stroke-width="2" fill="none" />
<polyline points="156.5,289.5,164.5,289.0,173.0,288.0" stroke="black" stroke-width="2" fill="none" />
<polyline points="146.0,283.5,138.0,291.0,130.5,299.0" stroke="black" stroke-width="2" fill="none" />
<polyline points="125.0,296.5,133.5,289.0" stroke="black" stroke-width="2" fill="none" />
<polyline points="131.5,284.0,139.5,277.0" stroke="black" stroke-width="2" fill="none" />
<polyline points="138.0,282.0,146.0,274.5" stroke="black" stroke-width="2" fill="none" />
<polyline points="147.0,270.0,155.0,269.0,163.5,268.0" stroke="black" stroke-width="2" fill="none" />
<polyline points="155.5,258.0,147.5,265.5" stroke="black" stroke-width="2" fill="none" />
<polyline points="140.0,268.5,132.5,276.0,124.5,283.5" stroke="black" stroke-width="2" fill="none" />
<polyline points="123.0,281.0,131.0,280.5,138.5,280.0,146.5,279.5" stroke="black" stroke-width="2" fill="none" />
<polyline points="140.0,286.0,148.0,286.0,156.0,285.5,163.5,284.5,172.0,283.5,180.0,282.5,188.0,282.5,195.5,282.0,203.0,281.5,211.0,281.0" stroke="black" stroke-width="2" fill="none" />
<polyline points="228.5,227.0,236.5,219.5" stroke="black" stroke-width="2" fill="none" />
<polyline points="243.0,220.5,251.0,220.0" stroke="black" stroke-width="2" fill="none" />
<polyline points="252.0,210.0,259.5,202.5" stroke="black" stroke-width="2" fill="none" />
<polyline points="261.0,195.0,269.0,187.5" stroke="black" stroke-width="2" fill="none" />
<polyline points="268.0,179.0,260.0,186.5" stroke="black" stroke-width="2" fill="none" />
<polyline points="257.5,189.0,265.5,188.5" stroke="black" stroke-width="2" fill="none" />
<polyline points="267.5,184.5,260.5,185.0,252.5,185.5" stroke="black" stroke-width="2" fill="none" />
<polyline points="251.0,181.0,259.5,180.5,267.5,179.5,275.5,179.0" stroke="black" stroke-width="2" fill="none" />
<polyline points="283.0,171.5,291.0,171.0" stroke="black" stroke-width="2" fill="none" />
<polyline points="283.5,171.0,291.5,163.5" stroke="black" stroke-width="2" fill="none" />
<polyline points="299.0,165.0,307.0,165.0,315.0,165.0,323.0,164.5,330.5,164.5,339.0,165.0,347.0,164.0" stroke="black" stroke-width="2" fill="none" />
<polyline points="356.0,180.0,364.0,173.0" stroke="black" stroke-width="2" fill="none" />
<polyline points="380.0,179.5,372.0,180.0,364.0,181.0,356.0,182.0,348.0,182.5" stroke="black" stroke-width="2" fill="none" />
<polyline points="324.5,163.0,316.0,171.0" stroke="black" stroke-width="2" fill="none" />
<polyline points="315.0,173.5,323.0,173.0,331.0,173.0,339.5,172.5,347.5,172.0,355.5,171.5,363.5,171.0" stroke="black" stroke-width="2" fill="none" />
<polyline points="372.0,149.0,380.5,148.5" stroke="black" stroke-width="2" fill="none" />
<polyline points="377.5,123.0,385.5,122.5" stroke="black" stroke-width="2" fill="none" />
<polyline points="396.0,123.0,403.5,115.5" stroke="black" stroke-width="2" fill="none" />
<polyline points="406.5,120.0,398.5,120.5" stroke="black" stroke-width="2" fill="none" />
<polyline points="403.5,125.0,411.5,125.0,420.0,124.5,428.5,124.0,436.5,123.5,443.5,123.0,451.5,122.5,459.5,122.0,467.5,121.5,475.5,121.0,483.0,120.5,491.0,120.0,499.5,119.0,507.0,118.5,515.0,118.5" stroke="black" stroke-width="2" fill="none" />
<polyline points="450.5,124.5,442.5,131.5,435.0,138.5" stroke="black" stroke-width="2" fill="none" />
<polyline points="434.5,130.5,442.5,123.0,450.0,115.5" stroke="black" stroke-width="2" fill="none" />
<polyline points="434.5,97.5,443.0,89.5" stroke="black" stroke-width="2" fill="none" />
<polyline points="436.5,90.5,428.0,98.0" stroke="black" stroke-width="2" fill="none" />
<polyline points="405.0,105.0,397.0,112.5" stroke="black" stroke-width="2" fill="none" />
<polyline points="403.0,106.5,395.0,106.5,387.0,107.0" stroke="black" stroke-width="2" fill="none" />
<polyline points="379.0,121.5,387.5,114.0,395.5,106.5,404.0,99.5" stroke="black" stroke-width="2" fill="none" />
<polyline points="402.0,92.5,394.5,100.0,386.5,107.5,379.0,115.5,371.5,123.5" stroke="black" stroke-width="2" fill="none" />
<polyline points="356.5,112.0,364.5,104.5,372.5,96.5,380.0,89.0,388.0,82.5,396.0,76.0,404.0,68.5" stroke="black" stroke-width="2" fill="none" />
<polyline points="411.5,69.0,419.0,68.0,426.5,68.0,434.0,68.0,442.5,67.5,450.5,67.5,459.0,67.0,466.5,67.0,475.0,66.0,483.5,65.0,491.5,64.0,499.5,63.5,508.0,63.5,516.0,63.5" stroke="black" stroke-width="2" fill="none" />
<polyline points="509.0,57.5,500.5,58.0,492.0,58.0,484.0,58.0,476.0,59.0,467.5,59.5,459.5,60.5,451.5,61.0" stroke="black" stroke-width="2" fill="none" />
<polyline points="427.5,60.5,419.5,68.5" stroke="black" stroke-width="2" fill="none" />
<polyline points="411.5,76.0,419.5,75.0,427.5,75.0,435.5,74.5,443.5,75.0,452.0,75.5,460.5,75.5,469.0,75.0,477.5,75.0,486.0,75.0,494.0,74.5,502.0,73.5,509.5,73.0,517.0,72.0" stroke="black" stroke-width="2" fill="none" />
<polyline points="500.0,153.5,492.0,154.0,484.0,155.0,475.5,156.5,467.0,157.5,458.5,158.0,450.0,158.5,441.5,158.5" stroke="black" stroke-width="2" fill="none" />
<polyline points="427.5,162.5,419.0,170.5" stroke="black" stroke-width="2" fill="none" />
<polyline points="419.0,166.5,426.5,166.5,434.5,166.0,442.5,165.5,450.5,165.0,459.0,164.0,466.5,163.0,474.5,163.0,483.0,162.5,491.0,162.5,499.0,162.0" stroke="black" stroke-width="2" fill="none" />
<polyline points="459.0,132.5,451.0,133.5,442.5,133.5,434.5,134.0,426.5,134.0" stroke="black" stroke-width="2" fill="none" />
<polyline points="418.5,141.0,411.0,141.5" stroke="black" stroke-width="2" fill="none" />
<polyline points="396.0,96.5,388.5,97.5,381.0,98.5,373.0,99.5,365.5,100.0" stroke="black" stroke-width="2" fill="none" />
<polyline points="349.0,110.5,357.0,102.5,365.0,95.0,373.0,87.5,381.0,80.5,389.0,73.5,397.0,66.0,405.0,59.0" stroke="black" stroke-width="2" fill="none" />
<polyline points="403.0,51.0,395.0,58.5,387.5,66.0,380.0,73.5,372.5,81.0,364.5,88.5,356.0,96.0,348.5,103.5,340.0,111.5" stroke="black" stroke-width="2" fill="none" />
<polyline points="338.0,110.5,345.5,111.0,353.5,111.0,361.0,110.5,369.5,110.0,377.5,109.5,386.0,110.0,394.0,110.0,402.5,110.0" stroke="black" stroke-width="2" fill="none" />
<polyline points="411.5,51.0,419.0,51.0,426.5,51.0,434.0,50.5,442.0,50.5,449.5,50.5" stroke="black" stroke-width="2" fill="none" />
<polyline points="433.5,20.5,425.5,21.5,417.5,22.5,409.5,23.0" stroke="black" stroke-width="2" fill="none" />
<polyline points="401.5,26.0,393.5,33.5,385.0,41.5,377.5,49.5,369.5,57.0,361.5,65.0,354.5,72.5,347.5,80.0,340.0,88.0,332.0,95.5,324.5,103.0" stroke="black" stroke-width="2" fill="none" />
<polyline points="325.0,103.5,333.0,102.5,340.5,101.5,348.0,100.5,355.5,99.5,363.0,98.5,370.0,97.5,377.5,96.5,385.0,95.5,393.0,95.0,401.0,95.0,409.5,94.0,417.0,94.0,425.5,94.0,433.5,94.0,441.5,93.5,450.0,93.5,458.5,92.5,467.0,91.5,475.5,90.5,483.5,90.0,491.5,89.0,499.5,89.0,507.5,88.5,515.5,89.0" stroke="black" stroke-width="2" fill="none" />
<polyline points="403.0,33.5,395.0,41.5,387.0,49.5,379.0,57.5,370.5,64.5,362.5,72.0,354.0,80.0,346.5,88.5,339.0,97.0,331.5,104.5" stroke="black" stroke-width="2" fill="none" />
<polyline points="332.5,105.5,340.5,105.0,348.5,105.0,356.5,104.5,364.0,104.0,371.5,103.5,380.0,103.5" stroke="black" stroke-width="2" fill="none" />
<polyline points="404.5,85.0,396.0,86.0,387.5,87.0,379.0,88.0,370.5,88.0,362.5,88.5,354.0,88.5,346.5,88.5,338.5,89.5" stroke="black" stroke-width="2" fill="none" />
<polyline points="323.0,82.5,331.0,81.5,338.5,81.0,346.5,80.5,355.5,80.0,363.5,79.5,371.0,79.0,379.0,78.0,387.0,78.0,395.5,77.5,403.5,77.5" stroke="black" stroke-width="2" fill="none" />
<polyline points="401.5,18.5,394.0,26.5,387.0,34.0,379.5,42.0,371.5,50.0,363.5,58.0,356.0,65.5,347.5,73.0,339.0,80.5,330.5,88.0,322.0,95.5" stroke="black" stroke-width="2" fill="none" />
<polyline points="314.5,95.5,322.5,88.5,331.0,80.5,339.5,73.0,348.0,65.0,356.5,57.5,364.5,49.5,372.5,42.0,380.0,34.0,388.0,26.5,395.5,18.0,403.5,10.0" stroke="black" stroke-width="2" fill="none" />
<polyline points="403.0,3.0,395.0,10.0,387.5,18.0,379.5,25.5,372.0,33.0,363.5,40.5,356.5,48.0,348.0,56.5,340.0,64.5,332.0,72.0,324.0,79.5,316.0,87.0,308.0,94.5" stroke="black" stroke-width="2" fill="none" />
<polyline points="301.0,94.5,308.5,93.5,316.0,92.5,324.0,92.0,331.5,91.5,339.0,91.0,347.0,90.5,354.5,90.0,362.5,89.0,370.5,88.5,378.5,88.5,386.5,87.5,394.0,87.5,402.5,87.5,410.5,87.0,419.0,87.0,427.5,86.0,436.0,85.0,444.5,84.0,452.5,83.5,460.5,82.5,468.5,82.0,476.5,81.5,484.0,81.5,491.5,81.5,499.5,81.5,507.0,81.0,514.5,80.5" stroke="black" stroke-width="2" fill="none" />
<polyline points="397.0,3.0,389.0,10.5,380.5,17.5,372.0,25.0,364.0,32.0,355.5,39.5,347.5,47.5,339.0,55.5,331.0,63.5,322.5,71.5,314.5,79.5,306.5,86.5,299.0,93.5" stroke="black" stroke-width="2" fill="none" />
<polyline points="301.0,89.5,309.0,89.0,316.0,88.5,323.5,87.5,331.5,87.0" stroke="black" stroke-width="2" fill="none" />
<polyline points="314.5,72.5,322.5,72.0,331.0,71.5,339.0,70.5,347.5,70.0,355.5,69.5,364.0,69.5,372.5,69.5,380.5,69.5,388.5,69.0,396.5,68.5,404.5,68.0" stroke="black" stroke-width="2" fill="none" />
<polyline points="405.0,44.0,397.5,45.0,390.0,45.5,381.5,47.0,373.0,48.0,365.0,49.0,356.5,50.0,348.0,50.5" stroke="black" stroke-width="2" fill="none" />
<polyline points="338.5,41.0,347.0,40.5,355.0,40.0,362.5,39.5,370.5,39.5,378.5,39.5,386.5,39.0,395.0,38.5" stroke="black" stroke-width="2" fill="none" />
<polyline points="387.0,4.0,379.0,10.5,371.5,18.0,363.5,25.5,355.5,33.5,347.5,41.0,339.5,48.5,331.5,55.5,323.5,62.5,315.0,69.5,307.0,76.5,298.5,84.5" stroke="black" stroke-width="2" fill="none" />
<polyline points="301.0,84.5,309.0,84.0,316.5,83.5,324.5,83.0,332.0,82.5,339.5,82.0,347.0,81.0,355.0,80.5,363.0,79.5,371.0,78.5,379.0,78.0,387.0,77.5,395.0,77.5,402.5,78.0,410.0,78.0,418.0,77.5,425.5,77.5,433.5,78.0,441.5,78.0,449.5,77.0,457.5,77.0,465.5,76.5,474.0,75.5,482.5,74.5,491.5,73.5,499.5,72.5,507.5,71.5,515.5,70.5" stroke="black" stroke-width="2" fill="none" />
<polyline points="381.0,4.0,373.0,11.5,365.0,19.5,356.5,26.5,348.0,34.0,340.0,41.5,332.0,49.0,323.5,57.0,315.5,64.5,307.5,72.0" stroke="black" stroke-width="2" fill="none" />
<polyline points="307.5,66.5,316.0,65.5,324.0,64.5,332.0,64.5,340.5,64.5,348.5,63.5,356.5,63.5,364.5,63.0,372.5,62.5,380.0,62.0,388.0,61.5,396.5,61.0,405.0,60.0" stroke="black" stroke-width="2" fill="none" />
<polyline points="372.0,4.0,363.5,11.5,355.0,19.5,347.0,27.5,339.0,34.5" stroke="black" stroke-width="2" fill="none" />
<polyline points="331.0,42.5,322.5,50.0,314.5,58.0,306.5,66.0" stroke="black" stroke-width="2" fill="none" />
<polyline points="300.0,68.5,308.5,68.5,316.5,68.0,324.0,67.5,332.0,67.0,340.0,67.0,348.0,66.5,356.0,66.0,364.0,65.0,372.0,64.0,380.0,63.5,388.0,63.0,395.5,63.5,403.5,63.0" stroke="black" stroke-width="2" fill="none" />
<polyline points="365.0,4.0,357.0,11.5,349.0,19.0,340.5,26.5,332.5,34.0,323.5,41.5,315.5,49.0,307.0,57.0" stroke="black" stroke-width="2" fill="none" />
<polyline points="298.5,66.5,291.0,67.5" stroke="black" stroke-width="2" fill="none" />
<polyline points="290.5,65.5,298.5,57.5,306.5,49.5,315.0,42.5,324.0,34.0,332.5,26.0,341.0,17.5,349.0,9.5,357.0,2.0" stroke="black" stroke-width="2" fill="none" />
<polyline points="356.0,8.5,364.0,8.0,372.0,7.5,379.5,7.5,388.0,7.5,395.5,7.5,403.0,7.0" stroke="black" stroke-width="2" fill="none" />
<polyline points="349.0,3.0,341.0,10.5,333.5,18.0,326.0,25.0,318.0,32.0,310.0,39.0,301.5,47.0,293.0,55.0" stroke="black" stroke-width="2" fill="none" />
<polyline points="293.0,53.5,301.0,52.5,309.5,52.0,317.5,51.5,325.0,51.5,332.5,52.0,340.0,51.5,347.5,50.5,355.5,50.5,363.5,50.5,371.0,50.0,379.5,49.5,387.0,48.5,395.0,48.0,403.0,47.5" stroke="black" stroke-width="2" fill="none" />
<polyline points="401.5,23.0,393.5,23.0,385.5,22.5,378.0,22.5,370.0,23.0,362.5,23.0,355.0,22.5,347.0,22.5,339.0,23.0" stroke="black" stroke-width="2" fill="none" />
<polyline points="339.0,3.5,331.0,10.5,323.0,17.5,315.0,24.5,307.0,32.0,299.0,39.5,291.0,47.0" stroke="black" stroke-width="2" fill="none" />
<polyline points="293.0,49.0,301.0,48.5,308.5,48.0,316.5,47.5,324.5,47.5,332.5,47.0" stroke="black" stroke-width="2" fill="none" />
<polyline points="308.0,33.0,316.5,33.0,324.5,32.5,332.5,32.5,341.0,32.5,349.0,31.5,357.0,31.5,365.5,31.0,373.5,30.5,381.5,29.5,389.5,29.0,397.0,28.5,405.0,28.0" stroke="black" stroke-width="2" fill="none" />
<polyline points="330.5,2.5,322.5,10.0,314.5,18.0,306.0,25.0" stroke="black" stroke-width="2" fill="none" />
<polyline points="300.0,27.0,308.5,19.5,317.0,12.0,325.0,4.0" stroke="black" stroke-width="2" fill="none" />
<polyline points="315.0,4.0,307.5,11.0,299.5,18.5" stroke="black" stroke-width="2" fill="none" />
<polyline points="298.5,23.0,306.0,22.5,314.0,22.0,322.0,21.0,330.5,19.5,338.5,18.0,347.0,18.0,355.5,17.5,364.0,17.0,372.5,17.0,380.0,16.0,388.5,16.0,396.5,15.5,404.5,15.5" stroke="black" stroke-width="2" fill="none" />
<polyline points="307.5,1.0,300.0,8.5,292.5,16.5" stroke="black" stroke-width="2" fill="none" />
<polyline points="291.0,14.0,299.0,13.0,307.5,13.0,316.0,12.5,323.5,11.5,332.0,11.0,340.5,11.0,349.0,10.5,357.0,10.5,364.5,10.0,373.0,9.0,380.5,9.0,388.5,8.5,396.0,8.0,403.5,7.0,411.0,6.0,419.0,5.5,427.5,4.5,436.0,3.5" stroke="black" stroke-width="2" fill="none" />
<polyline points="347.0,7.5,338.5,7.5,330.5,8.0,322.5,8.0,314.0,8.5,306.0,9.0" stroke="black" stroke-width="2" fill="none" />
<polyline points="301.0,1.5,293.0,9.0" stroke="black" stroke-width="2" fill="none" />
<polyline points="291.0,7.0,299.0,7.0" stroke="black" stroke-width="2" fill="none" />
<polyline points="291.5,3.0,299.5,3.0,307.5,3.0,315.5,3.5,323.0,3.5,331.5,3.0,339.0,3.0,347.0,3.0,355.5,2.5,363.5,2.0,371.5,1.5,380.0,0.5,388.0,-0.5,396.0,-0.5,404.5,-0.5,412.5,-1.5,420.5,-1.5,428.5,-2.0,436.5,-2.5,444.0,-3.0" stroke="black" stroke-width="2" fill="none" />
<polyline points="337.5,95.0,330.5,96.0,323.0,97.0,315.0,98.0,307.0,98.5,299.0,99.0" stroke="black" stroke-width="2" fill="none" />
<polyline points="299.5,110.5,307.5,109.5,315.0,109.0" stroke="black" stroke-width="2" fill="none" />
<polyline points="315.5,122.5,307.5,130.5" stroke="black" stroke-width="2" fill="none" />
<polyline points="300.0,127.0,307.5,126.0,315.5,125.5,323.5,125.0" stroke="black" stroke-width="2" fill="none" />
<polyline points="333.5,124.5,342.0,124.0,350.0,123.5" stroke="black" stroke-width="2" fill="none" />
<polyline points="309.0,121.5,301.0,129.0,292.5,137.0,284.5,144.5,276.5,152.0" stroke="black" stroke-width="2" fill="none" />
<polyline points="268.5,153.5,277.0,145.5,284.0,137.5,292.0,130.0" stroke="black" stroke-width="2" fill="none" />
<polyline points="291.0,124.0,283.5,132.0" stroke="black" stroke-width="2" fill="none" />
<polyline points="284.5,133.5,292.5,133.0,300.5,132.5,308.5,132.5,316.5,133.0,324.5,133.0,332.0,132.0" stroke="black" stroke-width="2" fill="none" />
<polyline points="332.5,157.0,324.0,157.0" stroke="black" stroke-width="2" fill="none" />
<polyline points="316.5,142.0,309.0,142.0" stroke="black" stroke-width="2" fill="none" />
<polyline points="298.0,137.0,290.0,145.0" stroke="black" stroke-width="2" fill="none" />
<polyline points="296.5,146.0,288.5,153.5,281.0,161.0" stroke="black" stroke-width="2" fill="none" />
<polyline points="284.0,160.5,291.5,160.0" stroke="black" stroke-width="2" fill="none" />
<polyline points="288.5,154.5,297.0,154.0" stroke="black" stroke-width="2" fill="none" />
<polyline points="300.5,157.5,308.5,157.0" stroke="black" stroke-width="2" fill="none" />
<polyline points="299.5,178.0,291.0,185.0" stroke="black" stroke-width="2" fill="none" />
<polyline points="292.0,183.0,299.5,182.0" stroke="black" stroke-width="2" fill="none" />
<polyline points="300.0,187.0,292.0,188.0" stroke="black" stroke-width="2" fill="none" />
<polyline points="290.0,195.5,282.5,203.5" stroke="black" stroke-width="2" fill="none" />
<polyline points="281.5,199.0,290.0,198.5" stroke="black" stroke-width="2" fill="none" />
<polyline points="284.0,194.5,275.5,202.0" stroke="black" stroke-width="2" fill="none" />
<polyline points="276.0,198.5,284.0,198.0,292.0,196.5" stroke="black" stroke-width="2" fill="none" />
<polyline points="290.0,163.5,282.0,164.0" stroke="black" stroke-width="2" fill="none" />
<polyline points="284.0,158.0,291.5,157.5" stroke="black" stroke-width="2" fill="none" />
<polyline points="284.5,138.0,292.0,137.5,300.0,137.0" stroke="black" stroke-width="2" fill="none" />
<polyline points="282.5,122.0,274.5,129.5" stroke="black" stroke-width="2" fill="none" />
<polyline points="275.0,129.0,283.0,128.5,291.0,127.5" stroke="black" stroke-width="2" fill="none" />
<polyline points="282.5,114.0,274.0,122.0" stroke="black" stroke-width="2" fill="none" />
<polyline points="275.5,123.5,284.0,123.0,291.5,122.5" stroke="black" stroke-width="2" fill="none" />
<polyline points="276.0,117.5,267.5,125.0" stroke="black" stroke-width="2" fill="none" />
<polyline points="270.0,117.0,278.0,116.5,285.5,116.0" stroke="black" stroke-width="2" fill="none" />
<polyline points="276.5,140.0,284.5,139.5,292.5,139.0,300.0,138.5" stroke="black" stroke-width="2" fill="none" />
<polyline points="283.5,155.0,275.5,155.5,267.5,156.5" stroke="black" stroke-width="2" fill="none" />
<polyline points="270.0,163.5,262.0,171.0" stroke="black" stroke-width="2" fill="none" />
<polyline points="259.0,172.5,267.0,172.0" stroke="black" stroke-width="2" fill="none" />
<polyline points="268.0,169.5,260.0,177.5,252.0,185.0,243.0,192.5,234.5,200.5" stroke="black" stroke-width="2" fill="none" />
<polyline points="235.5,200.5,243.5,200.0,251.5,200.0" stroke="black" stroke-width="2" fill="none" />
<polyline points="251.5,204.5,259.5,204.0" stroke="black" stroke-width="2" fill="none" />
<polyline points="261.0,208.0,253.0,208.0" stroke="black" stroke-width="2" fill="none" />
<polyline points="251.5,195.5,243.5,203.0,235.0,210.5" stroke="black" stroke-width="2" fill="none" />
<polyline points="237.5,206.5,245.5,206.0" stroke="black" stroke-width="2" fill="none" />
<polyline points="249.5,196.5,241.5,196.5,233.0,197.0" stroke="black" stroke-width="2" fill="none" />
<polyline points="236.5,193.5,244.5,186.0" stroke="black" stroke-width="2" fill="none" />
<polyline points="251.5,187.5,244.0,187.5,236.0,187.5" stroke="black" stroke-width="2" fill="none" />
<polyline points="221.0,196.5,213.5,197.0" stroke="black" stroke-width="2" fill="none" />
<polyline points="202.5,214.5,194.0,215.0" stroke="black" stroke-width="2" fill="none" />
<polyline points="229.5,222.0,237.0,221.5" stroke="black" stroke-width="2" fill="none" />
<polyline points="261.5,165.5,269.0,165.0" stroke="black" stroke-width="2" fill="none" />
<polyline points="307.5,82.0,315.0,81.5" stroke="black" stroke-width="2" fill="none" />
<polyline points="299.0,76.0,307.5,75.5,316.0,75.0,324.5,74.5,333.0,74.5,341.0,74.0,348.5,74.0,356.5,73.5,364.0,73.0,371.0,72.0,378.5,71.5,387.0,71.5,395.5,71.0,403.5,70.5" stroke="black" stroke-width="2" fill="none" />
<polyline points="332.5,39.0,325.0,39.5,317.0,39.5,308.5,40.0,300.0,40.0" stroke="black" stroke-width="2" fill="none" />
<polyline points="292.5,44.5,301.0,44.5,309.0,44.0,316.5,43.5,324.0,43.0,332.0,43.0,340.0,42.0,347.5,41.5,355.5,41.0,363.0,40.0,370.5,39.5,378.5,39.0,387.0,38.5,395.0,37.5,403.5,37.0,411.5,36.5,420.0,36.5,428.5,36.5,436.5,36.5,444.5,36.0" stroke="black" stroke-width="2" fill="none" />
<polyline points="444.0,20.5,436.0,21.0,428.5,22.0,420.0,22.5,413.0,23.0,405.5,22.5,398.0,22.5,390.0,23.0,381.5,23.5,373.5,24.0,365.0,24.5,356.5,25.5,348.0,26.5,340.0,27.0,332.0,27.5,323.5,27.5,315.5,27.5,307.5,27.5,299.0,27.5" stroke="black" stroke-width="2" fill="none" />
<polyline points="298.5,26.0,306.0,26.0,314.0,25.5,322.5,25.0,331.0,24.0" stroke="black" stroke-width="2" fill="none" />
<polyline points="289.5,18.0,297.5,18.0,306.0,18.0,314.5,17.5,323.5,17.5,332.0,17.0,340.0,16.5,348.5,16.0,356.5,15.5,364.5,14.5,372.5,14.5,380.0,13.5,388.0,13.0,395.5,11.5,403.0,10.0" stroke="black" stroke-width="2" fill="none" />
<polyline points="444.0,51.0,436.0,52.0,428.0,52.5,420.0,53.0,412.0,52.5,403.0,53.5,394.5,53.5,386.0,54.0,378.0,54.0,369.5,54.5,362.0,55.5,355.0,56.5,347.5,57.5,340.0,58.5,332.0,59.5,324.5,60.5,316.5,61.0,308.5,62.0,301.0,63.5,293.0,64.5" stroke="black" stroke-width="2" fill="none" />
<polyline points="293.0,59.0,300.5,59.0,308.5,57.5,316.5,57.0,323.5,57.0,331.5,56.5,339.0,56.0,347.0,55.5,354.5,54.5,362.5,53.5,370.0,53.0,378.0,53.0,386.0,52.0,394.5,51.5,402.5,50.5" stroke="black" stroke-width="2" fill="none" />
<polyline points="403.0,30.5,396.0,31.5,388.0,32.0,380.5,32.5,372.5,33.0,364.5,33.5,356.0,33.5,347.5,34.0,339.0,34.5,330.5,35.5,323.0,36.0,315.0,36.5,307.0,37.0,299.0,37.0,290.5,37.5" stroke="black" stroke-width="2" fill="none" />
<polyline points="181.0,32.5,172.5,33.0,165.0,33.5,156.5,34.0,148.0,35.0,139.0,35.5,131.0,36.5" stroke="black" stroke-width="2" fill="none" />
<polyline points="130.0,28.0,138.0,27.5,146.5,27.0,155.5,27.0,163.5,27.0,172.0,27.0,180.5,26.0,189.0,25.5" stroke="black" stroke-width="2" fill="none" />
<polyline points="93.0,74.0,85.0,81.5" stroke="black" stroke-width="2" fill="none" />
<polyline points="92.0,82.5,84.0,90.0" stroke="black" stroke-width="2" fill="none" />
<polyline points="75.0,80.5,83.0,73.0" stroke="black" stroke-width="2" fill="none" />
<polyline points="83.5,68.0,76.0,75.5" stroke="black" stroke-width="2" fill="none" />
<polyline points="66.5,77.0,74.5,69.5,82.5,62.0" stroke="black" stroke-width="2" fill="none" />
<polyline points="83.0,52.0,75.0,60.0,67.5,67.5" stroke="black" stroke-width="2" fill="none" />
<polyline points="68.0,60.0,75.5,52.5" stroke="black" stroke-width="2" fill="none" />
<polyline points="60.0,34.0,52.0,42.0" stroke="black" stroke-width="2" fill="none" />
<polyline points="52.0,34.5,60.0,27.5" stroke="black" stroke-width="2" fill="none" />
<polyline points="19.0,20.0,11.5,27.5,3.0,35.0" stroke="black" stroke-width="2" fill="none" />
<polyline points="5.0,38.5,13.5,38.0,22.0,37.5,29.5,36.5,37.5,36.0,45.0,35.5,52.5,35.0,60.5,34.5,68.5,33.5,76.0,32.5,84.0,32.0,92.0,31.5,99.5,31.5,107.5,32.0" stroke="black" stroke-width="2" fill="none" />
<polyline points="44.5,68.0,36.5,75.5,28.5,83.0,20.0,91.0,12.0,98.5,4.0,105.5" stroke="black" stroke-width="2" fill="none" />
<polyline points="5.5,103.0,13.0,102.5,20.5,102.0,27.5,101.5,35.0,101.0,43.0,100.5,50.5,99.5,58.5,98.5,66.0,97.5,73.5,97.0,81.5,96.5,89.5,96.0,98.5,96.0,107.0,95.5" stroke="black" stroke-width="2" fill="none" />
<polyline points="117.5,117.5,125.0,117.0,132.5,116.5,140.0,116.0,147.5,116.5,155.0,116.0,162.5,115.5,171.0,114.5,179.0,113.5,187.0,113.0" stroke="black" stroke-width="2" fill="none" />
<polyline points="171.0,154.0,162.5,154.5,155.0,155.5,147.0,156.0,139.5,157.0,131.5,157.5,124.0,158.0,116.5,158.5,108.5,158.5,100.0,159.0" stroke="black" stroke-width="2" fill="none" />
<polyline points="101.0,151.0,108.5,150.0,116.0,150.0,123.5,149.5,131.0,149.5,138.5,149.0,146.5,148.5,154.0,148.0,162.0,147.5,170.0,147.0,177.5,146.5,186.0,146.0,194.5,144.5" stroke="black" stroke-width="2" fill="none" />
<polyline points="139.0,213.5,131.0,214.0,123.0,215.0" stroke="black" stroke-width="2" fill="none" />
<polyline points="132.5,253.0,140.5,252.5" stroke="black" stroke-width="2" fill="none" />
<polyline points="140.0,259.5,132.5,267.0" stroke="black" stroke-width="2" fill="none" />
<polyline points="133.5,271.0,141.0,270.5" stroke="black" stroke-width="2" fill="none" />
<polyline points="141.5,273.0,134.0,273.5" stroke="black" stroke-width="2" fill="none" />
<polyline points="124.5,274.0,116.5,281.5" stroke="black" stroke-width="2" fill="none" />
<polyline points="115.0,280.5,107.0,281.0" stroke="black" stroke-width="2" fill="none" />
<polyline points="99.5,283.5,91.5,291.0" stroke="black" stroke-width="2" fill="none" />
<polyline points="92.5,288.0,100.5,287.5" stroke="black" stroke-width="2" fill="none" />
<polyline points="100.0,290.0,107.5,282.5,115.5,274.5,123.5,267.0" stroke="black" stroke-width="2" fill="none" />
<polyline points="122.5,268.0,114.5,268.5" stroke="black" stroke-width="2" fill="none" />
<polyline points="107.0,269.5,99.5,269.5" stroke="black" stroke-width="2" fill="none" />
<polyline points="99.0,261.5,107.0,261.0" stroke="black" stroke-width="2" fill="none" />
<polyline points="101.0,260.5,108.5,253.5" stroke="black" stroke-width="2" fill="none" />
<polyline points="114.0,254.0,106.0,255.0,98.0,255.5" stroke="black" stroke-width="2" fill="none" />
<polyline points="92.0,260.0,84.0,267.5" stroke="black" stroke-width="2" fill="none" />
<polyline points="83.5,275.0,75.5,282.5" stroke="black" stroke-width="2" fill="none" />
<polyline points="69.5,280.5,77.5,280.0,85.0,279.5" stroke="black" stroke-width="2" fill="none" />
<polyline points="81.5,285.5,89.5,285.0,98.5,285.0,107.0,284.5" stroke="black" stroke-width="2" fill="none" />
<polyline points="109.0,291.0,101.0,298.5" stroke="black" stroke-width="2" fill="none" />
<polyline points="98.0,298.0,106.0,297.5" stroke="black" stroke-width="2" fill="none" />
<polyline points="106.0,293.0,98.5,293.5" stroke="black" stroke-width="2" fill="none" />
<polyline points="99.0,278.0,107.0,277.5,114.5,277.0,122.5,276.5,130.5,276.0,139.0,275.5,147.0,275.0,155.5,274.0,164.5,274.0,172.5,274.0" stroke="black" stroke-width="2" fill="none" />
<polyline points="146.0,307.0,137.5,307.5" stroke="black" stroke-width="2" fill="none" />
<polyline points="139.0,315.5,131.0,322.5" stroke="black" stroke-width="2" fill="none" />
<polyline points="132.5,321.5,140.5,320.0" stroke="black" stroke-width="2" fill="none" />
<polyline points="146.5,325.0,154.5,324.5" stroke="black" stroke-width="2" fill="none" />
<polyline points="171.0,325.0,179.0,324.5" stroke="black" stroke-width="2" fill="none" />
<polyline points="132.5,315.5,124.5,322.5" stroke="black" stroke-width="2" fill="none" />
<polyline points="122.0,325.0,129.5,325.0,138.0,325.0" stroke="black" stroke-width="2" fill="none" />
<polyline points="139.5,316.5,130.5,316.5,122.5,316.5" stroke="black" stroke-width="2" fill="none" />
<polyline points="125.0,305.0,117.0,313.0,108.5,320.5" stroke="black" stroke-width="2" fill="none" />
<polyline points="109.0,314.0,101.0,321.5" stroke="black" stroke-width="2" fill="none" />
<polyline points="100.5,313.5,108.5,306.5" stroke="black" stroke-width="2" fill="none" />
<polyline points="106.5,313.0,98.0,313.0" stroke="black" stroke-width="2" fill="none" />
<polyline points="93.5,317.0,85.5,324.5" stroke="black" stroke-width="2" fill="none" />
<polyline points="82.5,320.5,90.5,320.0" stroke="black" stroke-width="2" fill="none" />
<polyline points="85.5,308.0,77.0,315.0" stroke="black" stroke-width="2" fill="none" />
<polyline points="77.5,307.5,69.0,315.0,61.0,322.5" stroke="black" stroke-width="2" fill="none" />
<polyline points="61.5,321.5,69.5,321.0" stroke="black" stroke-width="2" fill="none" />
<polyline points="60.0,317.0,68.0,316.5,75.5,316.5,83.5,317.0,91.5,317.0,99.5,317.0,108.0,316.5,115.5,315.5" stroke="black" stroke-width="2" fill="none" />
<polyline points="114.0,333.0,122.0,332.0" stroke="black" stroke-width="2" fill="none" />
<polyline points="100.0,333.0,92.0,333.5" stroke="black" stroke-width="2" fill="none" />
<polyline points="67.0,307.5,75.0,300.0" stroke="black" stroke-width="2" fill="none" />
<polyline points="74.5,293.5,66.5,301.0,58.5,308.5" stroke="black" stroke-width="2" fill="none" />
<polyline points="60.0,299.5,52.5,306.5,44.5,313.5" stroke="black" stroke-width="2" fill="none" />
<polyline points="42.5,315.5,50.5,315.5" stroke="black" stroke-width="2" fill="none" />
<polyline points="45.0,310.0,53.0,309.0,61.0,308.5,68.5,308.0,76.5,307.0,84.5,306.5,92.0,306.0,99.5,305.5,107.0,305.5,115.0,305.5,123.0,305.0,131.0,305.0,139.5,304.5" stroke="black" stroke-width="2" fill="none" />
<polyline points="124.5,294.5,132.0,293.5,139.5,293.0,147.0,292.0,155.0,291.0,163.0,290.0,171.5,290.0,179.0,289.0,187.0,288.5,195.0,288.0,202.5,287.5,211.0,287.0,219.5,287.0,228.0,287.0,236.0,286.5,244.0,286.5,252.0,286.5,259.0,286.0,266.5,285.0,274.5,284.0,282.0,283.5,291.0,283.0,299.5,282.0,308.0,281.5,315.5,281.0,323.5,280.5,331.5,280.5,339.5,280.5" stroke="black" stroke-width="2" fill="none" />
<polyline points="156.0,259.0,148.5,259.5,140.5,260.5,132.0,261.0" stroke="black" stroke-width="2" fill="none" />
<polyline points="122.5,298.5,130.5,298.0,139.0,298.0,147.5,298.0,155.5,297.0,164.0,296.5,171.5,295.5,179.5,294.5,187.5,294.0,195.5,293.5,203.5,293.0" stroke="black" stroke-width="2" fill="none" />
<polyline points="90.0,292.0,82.0,292.5" stroke="black" stroke-width="2" fill="none" />
<polyline points="75.5,297.5,68.0,297.5" stroke="black" stroke-width="2" fill="none" />
<polyline points="74.5,293.0,67.0,293.5,59.0,293.5" stroke="black" stroke-width="2" fill="none" />
<polyline points="50.0,300.0,42.0,307.5" stroke="black" stroke-width="2" fill="none" />
<polyline points="44.5,306.5,52.0,306.0,60.0,305.5" stroke="black" stroke-width="2" fill="none" />
<polyline points="60.0,323.0,51.5,323.5" stroke="black" stroke-width="2" fill="none" />
<polyline points="33.5,301.5,42.0,300.5,50.0,299.5,58.5,299.0,67.0,299.0,75.0,298.5,83.5,298.0" stroke="black" stroke-width="2" fill="none" />
<polyline points="66.5,283.0,74.5,275.5" stroke="black" stroke-width="2" fill="none" />
<polyline points="69.0,276.5,76.5,275.5,84.5,275.5" stroke="black" stroke-width="2" fill="none" />
<polyline points="75.5,266.5,83.0,259.0" stroke="black" stroke-width="2" fill="none" />
<polyline points="75.0,262.0,82.5,262.0,91.0,262.0" stroke="black" stroke-width="2" fill="none" />
<polyline points="89.5,265.0,82.0,266.0,74.0,266.5" stroke="black" stroke-width="2" fill="none" />
<polyline points="83.5,251.5,75.5,252.5,67.5,253.5,59.0,254.0" stroke="black" stroke-width="2" fill="none" />
<polyline points="28.0,251.0,20.0,258.5" stroke="black" stroke-width="2" fill="none" />
<polyline points="21.0,262.0,29.0,261.5,37.0,261.0,44.5,260.0,52.5,259.5" stroke="black" stroke-width="2" fill="none" />
<polyline points="43.5,277.0,35.5,277.5" stroke="black" stroke-width="2" fill="none" />
<polyline points="21.0,286.5,13.5,287.0" stroke="black" stroke-width="2" fill="none" />
<polyline points="12.5,278.5,4.5,279.5" stroke="black" stroke-width="2" fill="none" />
<polyline points="4.0,270.5,12.0,270.0,20.0,269.0" stroke="black" stroke-width="2" fill="none" />
<polyline points="11.5,253.0,3.5,260.5" stroke="black" stroke-width="2" fill="none" />
<polyline points="4.0,253.0,12.0,252.0,20.0,251.5,28.0,250.5,35.5,250.0" stroke="black" stroke-width="2" fill="none" />
<polyline points="27.0,221.0,19.0,221.0,11.0,221.0,3.0,220.5" stroke="black" stroke-width="2" fill="none" />
<polyline points="2.5,191.5,10.5,191.0" stroke="black" stroke-width="2" fill="none" />
<polyline points="18.0,158.0,10.5,157.5,2.5,158.0" stroke="black" stroke-width="2" fill="none" />
<polyline points="2.0,157.5,9.5,150.0" stroke="black" stroke-width="2" fill="none" />
<polyline points="4.0,147.5,12.0,140.5" stroke="black" stroke-width="2" fill="none" />
<polyline points="3.5,136.5,11.5,128.5" stroke="black" stroke-width="2" fill="none" />
<polyline points="2.0,125.5,10.5,125.5,19.0,125.0,27.5,124.5,36.0,124.0,44.5,123.0,53.0,122.0,61.0,121.5,68.5,120.5,76.5,119.5,84.5,119.0,92.5,118.5,99.5,118.5,107.5,118.5,115.5,118.5,123.0,118.5,131.0,118.5,139.5,118.0,147.5,117.5,155.5,117.0,164.0,116.0,172.0,116.0,180.0,115.5,187.5,114.5" stroke="black" stroke-width="2" fill="none" />
<polyline points="106.5,167.0,97.5,167.5" stroke="black" stroke-width="2" fill="none" />
<polyline points="81.5,143.5,89.5,143.0,97.0,142.0,105.0,141.0,114.0,140.0,123.0,139.0,131.5,138.5,140.0,138.0,148.5,137.0,156.5,136.5,164.0,136.0,172.5,135.5,180.5,134.5,188.0,134.0,196.0,134.0" stroke="black" stroke-width="2" fill="none" />
<polyline points="50.5,132.0,42.5,139.5" stroke="black" stroke-width="2" fill="none" />
<polyline points="35.0,138.0,42.5,131.0,50.0,124.0" stroke="black" stroke-width="2" fill="none" />
<polyline points="51.5,115.5,43.5,123.5,35.5,131.0" stroke="black" stroke-width="2" fill="none" />
<polyline points="34.5,125.0,26.0,132.5" stroke="black" stroke-width="2" fill="none" />
<polyline points="26.5,124.5,35.0,117.0" stroke="black" stroke-width="2" fill="none" />
<polyline points="26.0,114.5,34.5,107.0" stroke="black" stroke-width="2" fill="none" />
<polyline points="35.0,100.0,27.0,107.5,19.0,114.5" stroke="black" stroke-width="2" fill="none" />
<polyline points="20.0,105.0,28.0,97.0,36.0,89.0,44.0,81.5" stroke="black" stroke-width="2" fill="none" />
<polyline points="44.5,76.0,36.5,84.0,28.0,91.5,19.5,98.5,11.0,105.5,3.0,113.0" stroke="black" stroke-width="2" fill="none" />
<polyline points="4.0,110.5,12.0,109.5,19.5,108.5,27.5,108.0,35.5,108.0,43.0,107.5,51.0,106.5,59.0,105.5,66.5,105.0,74.5,104.0,82.0,103.5,90.0,103.0,98.5,103.0" stroke="black" stroke-width="2" fill="none" />
<polyline points="35.5,67.5,28.0,75.0,19.5,81.5,11.0,88.5,3.0,96.0" stroke="black" stroke-width="2" fill="none" />
<polyline points="4.5,94.5,12.0,94.0,20.0,93.0,27.5,92.5,35.5,92.5,43.0,92.5,50.5,91.5,58.5,91.0,66.5,90.5,74.0,91.0,81.5,90.5,89.5,90.0,97.0,89.0,105.0,88.0" stroke="black" stroke-width="2" fill="none" />
<polyline points="28.5,68.0,21.0,75.5,13.0,83.0,4.5,90.0" stroke="black" stroke-width="2" fill="none" />
<polyline points="2.5,86.5,10.5,86.0,18.0,86.5,26.0,86.0,34.5,86.0,42.5,85.0,50.5,84.5,58.0,84.0,66.0,83.0,74.5,82.5,82.0,81.5,90.0,81.0,97.5,80.0,105.5,79.5,114.5,79.0,122.5,78.5,131.0,77.5" stroke="black" stroke-width="2" fill="none" />
<polyline points="18.5,67.5,10.5,75.0,2.5,82.5" stroke="black" stroke-width="2" fill="none" />
<polyline points="3.5,79.0,11.5,78.5,19.0,77.5,27.0,77.0,35.0,77.5,43.5,77.5,51.5,76.5,58.5,75.0,66.5,74.5,75.0,73.5,83.0,73.0,90.5,73.0,99.0,73.0,107.0,72.0,115.0,70.5,123.0,70.0,131.0,69.0" stroke="black" stroke-width="2" fill="none" />
<polyline points="12.0,65.0,4.0,73.0" stroke="black" stroke-width="2" fill="none" />
<polyline points="1.5,71.5,10.0,71.0,19.0,70.0,27.5,69.5,36.0,69.5,44.0,69.0,52.0,68.0,60.5,66.5,68.5,65.5,76.0,65.0,84.0,64.5,91.5,64.5,99.0,63.5,107.0,62.5,115.5,61.5,123.5,60.5,131.5,59.0" stroke="black" stroke-width="2" fill="none" />
<polyline points="18.0,28.0,10.0,35.0,2.5,43.0" stroke="black" stroke-width="2" fill="none" />
<polyline points="4.5,45.5,12.5,45.0,20.5,44.5,28.5,43.5,36.0,42.5,44.0,41.5,52.5,42.0,60.5,42.0,68.5,42.0,77.0,41.5,85.5,40.5,93.5,40.0,100.5,39.0,108.5,38.5,116.5,38.5,124.5,37.5,132.0,37.5,139.0,36.5,147.0,36.0,154.5,35.5,162.5,34.5,170.5,34.5,179.5,34.5" stroke="black" stroke-width="2" fill="none" />
<polyline points="13.5,44.0,5.0,51.5" stroke="black" stroke-width="2" fill="none" />
<polyline points="2.5,53.5,10.5,53.0,18.5,52.0,26.5,51.5,35.0,51.0,43.5,50.5,52.0,50.0,60.5,49.0,68.5,48.5,76.5,47.5,85.0,47.5,92.5,46.5,100.5,46.5,108.5,46.5,116.0,46.0,124.0,45.5,131.0,45.0,138.0,45.0,146.0,44.5,154.0,44.0,162.0,43.0,169.5,43.0,178.0,43.0" stroke="black" stroke-width="2" fill="none" />
<polyline points="11.5,51.5,3.5,59.5" stroke="black" stroke-width="2" fill="none" />
<polyline points="3.5,62.0,11.5,61.5,19.5,60.5,27.0,60.5,35.0,60.5,43.5,60.0,51.5,59.5,60.5,58.5,69.0,57.0,77.5,56.5,85.5,55.5,93.5,55.0,101.0,54.5,109.0,54.5,116.0,54.0,123.5,53.5,131.5,52.5,139.0,52.0" stroke="black" stroke-width="2" fill="none" />
<polyline points="11.0,59.5,3.0,66.5" stroke="black" stroke-width="2" fill="none" />
<polyline points="4.0,24.5,11.5,24.0" stroke="black" stroke-width="2" fill="none" />
<polyline points="6.0,19.5,14.0,12.0" stroke="black" stroke-width="2" fill="none" />
<polyline points="14.0,4.0,5.5,11.0" stroke="black" stroke-width="2" fill="none" />
<polyline points="4.0,14.5,12.5,14.0,20.0,13.0,28.0,12.5,35.5,11.0,43.0,10.5,51.0,10.5,59.5,10.5,68.5,10.0,77.0,9.5,85.0,9.0,93.0,8.0,101.0,7.5,108.5,7.0,116.5,6.0,124.5,5.5,132.0,5.0,139.5,4.5,147.0,4.5,155.0,4.5,163.0,4.0,171.0,4.0,179.5,3.5,188.0,2.5,196.5,2.0,204.5,1.5,213.0,1.0,220.5,0.5" stroke="black" stroke-width="2" fill="none" />
<polyline points="185.5,124.0,177.5,124.5,170.5,125.0,162.5,125.5,154.5,126.5,146.5,127.0,139.0,127.0,132.0,127.0,124.5,127.0,117.0,127.0,109.0,127.0,101.0,127.5,92.0,128.0,84.0,128.5,75.5,129.0,68.0,129.5,60.0,130.0,51.5,131.0,43.5,131.5,35.0,132.5,26.0,134.0,18.0,135.0,10.5,135.5,2.5,136.0" stroke="black" stroke-width="2" fill="none" />
<polyline points="2.0,140.5,10.5,140.5,19.5,140.5,28.0,140.5,36.0,139.5,44.0,139.0" stroke="black" stroke-width="2" fill="none" />
<polyline points="43.5,159.0,51.5,158.0,60.0,157.0" stroke="black" stroke-width="2" fill="none" />
<polyline points="43.5,148.5,35.0,148.0,27.0,148.0,18.5,147.5,10.5,147.5,2.0,148.0" stroke="black" stroke-width="2" fill="none" />
<polyline points="4.5,117.5,12.0,117.0,20.0,116.5,27.5,115.0,35.0,114.0,43.0,113.0,50.5,112.5,58.0,112.5,66.0,112.0,74.0,112.0,82.5,111.5,90.5,111.0,98.5,110.5,106.5,110.5" stroke="black" stroke-width="2" fill="none" />
<polyline points="115.5,14.0,107.5,13.5,100.0,13.5,92.0,14.0,83.5,14.5,76.0,15.5,68.0,16.5,60.0,17.0,51.0,17.0,43.0,17.0,35.5,18.5,27.5,20.0,20.0,21.0,12.0,21.5,4.0,22.0" stroke="black" stroke-width="2" fill="none" />
<polyline points="3.0,17.5,11.0,17.5" stroke="black" stroke-width="2" fill="none" />
</svg>