<svg xmlns="http://www.w3.org/2000/svg" version="1.1"><polyline points="4.0,70.0,12.0,69.5" stroke="black" stroke-width="2" fill="none" />
<polyline points="18.0,69.5,26.5,69.0" stroke="black" stroke-width="2" fill="none" />
<polyline points="34.5,72.0,42.0,71.0,50.0,71.0,57.5,70.5,65.5,70.0,73.5,69.5" stroke="black" stroke-width="2" fill="none" />
<polyline points="83.0,85.5,91.0,85.0" stroke="black" stroke-width="2" fill="none" />
<polyline points="90.0,102.5,98.5,101.5" stroke="black" stroke-width="2" fill="none" />
<polyline points="83.0,116.5,75.5,117.0" stroke="black" stroke-width="2" fill="none" />
<polyline points="67.0,122.0,59.0,129.5" stroke="black" stroke-width="2" fill="none" />
<polyline points="57.0,122.5,64.5,114.5" stroke="black" stroke-width="2" fill="none" />
<polyline points="66.0,117.5,58.0,118.0" stroke="black" stroke-width="2" fill="none" />
<polyline points="53.0,109.0,61.0,109.0,68.0,108.0" stroke="black" stroke-width="2" fill="none" />
<polyline points="59.5,103.5,67.5,102.5,75.5,101.5" stroke="black" stroke-width="2" fill="none" />
<polyline points="65.5,92.5,57.5,100.0" stroke="black" stroke-width="2" fill="none" />
<polyline points="60.5,94.0,68.5,93.5" stroke="black" stroke-width="2" fill="none" />
<polyline points="60.5,86.5,52.5,87.0,44.5,87.5" stroke="black" stroke-width="2" fill="none" />
<polyline points="50.0,92.0,40.5,92.0,32.0,92.0" stroke="black" stroke-width="2" fill="none" />
<polyline points="35.0,101.0,43.0,101.0" stroke="black" stroke-width="2" fill="none" />
<polyline points="43.0,110.0,35.0,110.5" stroke="black" stroke-width="2" fill="none" />
<polyline points="34.5,123.0,26.5,123.5" stroke="black" stroke-width="2" fill="none" />
<polyline points="12.0,120.0,20.0,119.0,28.5,117.5,36.5,116.5,44.0,116.0" stroke="black" stroke-width="2" fill="none" />
<polyline points="44.0,126.5,52.0,125.5,60.0,125.0,67.5,124.5" stroke="black" stroke-width="2" fill="none" />
<polyline points="68.5,134.0,76.5,133.0" stroke="black" stroke-width="2" fill="none" />
<polyline points="89.5,143.0,97.5,142.5,105.5,142.0,114.0,142.0" stroke="black" stroke-width="2" fill="none" />
<polyline points="108.0,140.0,116.0,132.5" stroke="black" stroke-width="2" fill="none" />
<polyline points="121.0,133.0,113.0,133.5,105.5,134.5,97.0,134.5" stroke="black" stroke-width="2" fill="none" />
<polyline points="99.0,150.5,106.5,150.0" stroke="black" stroke-width="2" fill="none" />
<polyline points="99.5,174.0,92.0,175.5,84.0,176.0" stroke="black" stroke-width="2" fill="none" />
<polyline points="76.5,180.0,68.5,187.5" stroke="black" stroke-width="2" fill="none" />
<polyline points="68.5,193.0,76.0,192.5" stroke="black" stroke-width="2" fill="none" />
<polyline points="76.0,189.0,68.0,196.5" stroke="black" stroke-width="2" fill="none" />
<polyline points="66.5,197.0,74.5,196.5,83.0,196.5" stroke="black" stroke-width="2" fill="none" />
<polyline points="82.0,189.0,90.5,188.5" stroke="black" stroke-width="2" fill="none" />
<polyline points="75.5,173.5,67.5,181.0,60.0,187.5" stroke="black" stroke-width="2" fill="none" />
<polyline points="60.0,184.5,68.0,184.0" stroke="black" stroke-width="2" fill="none" />
<polyline points="60.5,178.5,68.5,170.0,76.5,162.5" stroke="black" stroke-width="2" fill="none" />
<polyline points="81.5,167.5,89.5,167.0,98.5,165.5" stroke="black" stroke-width="2" fill="none" />
<polyline points="89.5,150.0,81.5,151.0" stroke="black" stroke-width="2" fill="none" />
<polyline points="69.5,161.0,61.5,169.0,53.0,177.0" stroke="black" stroke-width="2" fill="none" />
<polyline points="51.0,172.5,59.0,165.0" stroke="black" stroke-width="2" fill="none" />
<polyline points="60.5,160.5,52.5,160.5" stroke="black" stroke-width="2" fill="none" />
<polyline points="57.5,157.0,49.5,164.5,41.5,172.0" stroke="black" stroke-width="2" fill="none" />
<polyline points="37.0,172.5,44.5,165.0" stroke="black" stroke-width="2" fill="none" />
<polyline points="37.5,165.0,29.0,172.5" stroke="black" stroke-width="2" fill="none" />
<polyline points="37.5,168.0,45.5,167.5,53.5,167.5,60.5,167.0,68.0,166.5" stroke="black" stroke-width="2" fill="none" />
<polyline points="67.5,175.0,59.0,175.5" stroke="black" stroke-width="2" fill="none" />
<polyline points="46.0,180.5,54.0,180.5,61.0,180.0,69.0,179.5,77.0,179.0,85.5,178.0,93.5,177.5" stroke="black" stroke-width="2" fill="none" />
<polyline points="74.0,212.5,66.0,213.0" stroke="black" stroke-width="2" fill="none" />
<polyline points="67.0,220.5,75.5,220.0" stroke="black" stroke-width="2" fill="none" />
<polyline points="69.0,228.0,60.5,228.0" stroke="black" stroke-width="2" fill="none" />
<polyline points="62.0,237.5,54.5,238.0" stroke="black" stroke-width="2" fill="none" />
<polyline points="46.0,260.5,38.0,261.5" stroke="black" stroke-width="2" fill="none" />
<polyline points="11.0,238.0,2.5,238.5" stroke="black" stroke-width="2" fill="none" />
<polyline points="1.5,231.5,9.5,231.0,18.0,230.5" stroke="black" stroke-width="2" fill="none" />
<polyline points="20.5,221.0,28.0,220.5,36.0,219.0,44.0,218.5" stroke="black" stroke-width="2" fill="none" />
<polyline points="61.0,204.0,69.0,204.0,77.0,203.5,84.5,203.0" stroke="black" stroke-width="2" fill="none" />
<polyline points="49.5,156.5,57.5,149.0" stroke="black" stroke-width="2" fill="none" />
<polyline points="51.5,148.0,59.5,140.5" stroke="black" stroke-width="2" fill="none" />
<polyline points="45.5,141.5,37.5,149.0" stroke="black" stroke-width="2" fill="none" />
<polyline points="35.0,148.5,43.0,148.0,50.5,147.0,58.5,146.5,67.0,146.5,74.5,146.0" stroke="black" stroke-width="2" fill="none" />
<polyline points="59.5,153.0,51.5,153.5" stroke="black" stroke-width="2" fill="none" />
<polyline points="36.0,155.0,27.5,162.5,19.5,171.0" stroke="black" stroke-width="2" fill="none" />
<polyline points="19.0,164.0,26.5,156.5" stroke="black" stroke-width="2" fill="none" />
<polyline points="20.0,155.0,11.5,162.5" stroke="black" stroke-width="2" fill="none" />
<polyline points="9.0,157.5,1.5,165.0" stroke="black" stroke-width="2" fill="none" />
<polyline points="4.5,166.0,12.0,165.0,19.5,164.5,27.0,164.0,35.0,164.0,43.0,163.5,51.5,163.0,60.5,162.5,68.5,162.0,76.5,161.5" stroke="black" stroke-width="2" fill="none" />
<polyline points="34.0,181.5,25.5,182.5" stroke="black" stroke-width="2" fill="none" />
<polyline points="27.5,189.0,18.5,196.5" stroke="black" stroke-width="2" fill="none" />
<polyline points="19.5,192.5,27.5,192.0" stroke="black" stroke-width="2" fill="none" />
<polyline points="26.5,203.5,19.0,203.5,11.5,204.0" stroke="black" stroke-width="2" fill="none" />
<polyline points="11.5,196.5,19.5,196.5,27.0,196.5,35.5,196.0" stroke="black" stroke-width="2" fill="none" />
<polyline points="12.0,192.5,19.5,191.5,28.0,190.5,36.0,190.0,44.0,189.0,52.5,189.0,61.0,188.0,69.0,187.0,77.0,186.5" stroke="black" stroke-width="2" fill="none" />
<polyline points="59.5,139.5,50.5,139.5,41.5,139.5,32.5,139.5,24.5,139.5" stroke="black" stroke-width="2" fill="none" />
<polyline points="10.0,149.0,2.0,156.5" stroke="black" stroke-width="2" fill="none" />
<polyline points="2.0,154.5,9.5,154.0" stroke="black" stroke-width="2" fill="none" />
<polyline points="4.0,157.0,12.0,156.5,19.5,156.0,27.5,155.5,36.0,154.5,44.0,153.5,52.5,153.5,60.5,153.5,69.0,153.0,77.5,153.0,86.0,152.5,94.0,151.5,101.5,151.0" stroke="black" stroke-width="2" fill="none" />
<polyline points="65.0,77.5,57.0,78.0,49.5,78.0,42.5,78.0,35.0,78.5" stroke="black" stroke-width="2" fill="none" />
<polyline points="28.0,94.0,19.5,95.0,11.5,95.5" stroke="black" stroke-width="2" fill="none" />
<polyline points="13.5,102.5,5.5,103.0" stroke="black" stroke-width="2" fill="none" />
<polyline points="14.5,111.0,22.5,110.5" stroke="black" stroke-width="2" fill="none" />
<polyline points="4.0,133.5,12.0,133.0,20.0,132.5,27.0,132.5,34.5,132.5,42.0,132.0,50.0,131.5,58.0,131.0" stroke="black" stroke-width="2" fill="none" />
<polyline points="77.5,168.0,68.5,168.0,59.5,168.5,51.5,169.0,43.5,169.5,35.5,171.0,27.5,172.5,19.5,173.5,12.0,175.0,4.0,175.5" stroke="black" stroke-width="2" fill="none" />
<polyline points="4.0,182.0,12.0,181.5" stroke="black" stroke-width="2" fill="none" />
<polyline points="5.5,161.0,13.5,160.5,21.5,160.0,29.5,159.5,37.5,159.5" stroke="black" stroke-width="2" fill="none" />
<polyline points="25.5,149.0,17.5,150.0,10.5,150.5,2.5,150.5" stroke="black" stroke-width="2" fill="none" />
<polyline points="1.5,142.0,9.5,142.0" stroke="black" stroke-width="2" fill="none" />
<polyline points="5.0,86.0,13.0,86.0,20.5,86.0,28.0,85.5" stroke="black" stroke-width="2" fill="none" />
<polyline points="27.5,76.5,20.0,77.5,12.0,78.5" stroke="black" stroke-width="2" fill="none" />
<polyline points="11.5,63.0,20.0,63.0,28.0,62.5" stroke="black" stroke-width="2" fill="none" />
<polyline points="28.0,44.5,36.5,44.0" stroke="black" stroke-width="2" fill="none" />
<polyline points="22.0,38.5,14.0,39.0" stroke="black" stroke-width="2" fill="none" />
<polyline points="11.5,212.5,3.5,220.0" stroke="black" stroke-width="2" fill="none" />
<polyline points="2.0,223.0,10.0,222.0" stroke="black" stroke-width="2" fill="none" />
<polyline points="2.0,214.0,10.0,213.0,18.5,212.5" stroke="black" stroke-width="2" fill="none" />
<polyline points="109.5,316.0,117.0,315.5,124.5,314.5,131.5,314.0" stroke="black" stroke-width="2" fill="none" />
<polyline points="131.5,312.5,139.5,305.0,147.0,297.5,155.0,290.0,163.5,283.0,171.5,275.5" stroke="black" stroke-width="2" fill="none" />
<polyline points="172.5,270.5,180.0,269.5,187.5,269.0,195.5,268.5,203.5,268.0,211.5,267.5" stroke="black" stroke-width="2" fill="none" />
<polyline points="204.0,261.5,195.5,269.0,187.0,276.0" stroke="black" stroke-width="2" fill="none" />
<polyline points="187.5,268.0,180.0,275.5,172.0,282.5,163.5,290.0,155.0,296.5" stroke="black" stroke-width="2" fill="none" />
<polyline points="155.5,288.5,163.5,287.5,171.5,287.0" stroke="black" stroke-width="2" fill="none" />
<polyline points="173.0,284.5,181.0,283.5" stroke="black" stroke-width="2" fill="none" />
<polyline points="188.5,285.5,196.5,285.5,204.5,284.5,212.5,284.0,220.5,283.0" stroke="black" stroke-width="2" fill="none" />
<polyline points="203.0,293.5,195.0,300.5" stroke="black" stroke-width="2" fill="none" />
<polyline points="196.5,293.5,204.5,293.5,212.0,293.0,220.0,293.0" stroke="black" stroke-width="2" fill="none" />
<polyline points="218.5,309.5,226.5,309.0" stroke="black" stroke-width="2" fill="none" />
<polyline points="225.5,324.5,218.0,332.0" stroke="black" stroke-width="2" fill="none" />
<polyline points="211.5,335.0,219.5,334.0,227.5,333.5,235.0,332.5" stroke="black" stroke-width="2" fill="none" />
<polyline points="235.5,331.0,227.0,338.5" stroke="black" stroke-width="2" fill="none" />
<polyline points="226.0,336.5,234.0,336.5" stroke="black" stroke-width="2" fill="none" />
<polyline points="236.0,341.5,243.5,340.5,251.5,339.5" stroke="black" stroke-width="2" fill="none" />
<polyline points="253.0,348.5,245.0,349.0" stroke="black" stroke-width="2" fill="none" />
<polyline points="245.0,357.5,252.5,357.0,260.5,356.5" stroke="black" stroke-width="2" fill="none" />
<polyline points="259.0,365.0,266.5,365.5" stroke="black" stroke-width="2" fill="none" />
<polyline points="283.5,349.5,291.5,349.0" stroke="black" stroke-width="2" fill="none" />
<polyline points="300.5,360.5,308.5,359.5,316.5,358.0" stroke="black" stroke-width="2" fill="none" />
<polyline points="315.0,355.5,323.0,348.0" stroke="black" stroke-width="2" fill="none" />
<polyline points="325.0,351.5,317.0,352.0" stroke="black" stroke-width="2" fill="none" />
<polyline points="315.5,350.0,323.5,349.0,331.0,348.5" stroke="black" stroke-width="2" fill="none" />
<polyline points="330.0,339.5,322.0,340.0" stroke="black" stroke-width="2" fill="none" />
<polyline points="323.5,363.0,331.5,362.5,339.0,361.5,346.0,361.0,353.5,361.0,361.0,361.0,369.5,360.5,377.5,360.5" stroke="black" stroke-width="2" fill="none" />
<polyline points="378.5,355.5,386.5,355.0" stroke="black" stroke-width="2" fill="none" />
<polyline points="380.5,355.5,388.5,348.5" stroke="black" stroke-width="2" fill="none" />
<polyline points="395.5,350.0,403.5,349.5" stroke="black" stroke-width="2" fill="none" />
<polyline points="412.5,349.0,420.5,348.5" stroke="black" stroke-width="2" fill="none" />
<polyline points="419.0,357.5,427.0,356.5" stroke="black" stroke-width="2" fill="none" />
<polyline points="418.5,364.0,411.0,364.5" stroke="black" stroke-width="2" fill="none" />
<polyline points="412.0,340.5,420.0,340.5" stroke="black" stroke-width="2" fill="none" />
<polyline points="412.0,332.0,404.0,332.5" stroke="black" stroke-width="2" fill="none" />
<polyline points="386.5,332.5,378.5,333.0" stroke="black" stroke-width="2" fill="none" />
<polyline points="379.5,323.0,387.5,322.5,395.5,322.0" stroke="black" stroke-width="2" fill="none" />
<polyline points="402.5,295.5,411.5,287.5,420.0,280.0,428.0,272.0,436.5,264.5,445.0,257.0,453.0,249.5,461.0,242.0" stroke="black" stroke-width="2" fill="none" />
<polyline points="460.0,235.5,452.0,242.5,444.0,249.5,436.0,257.0,428.0,264.5,420.0,272.0,412.0,279.0" stroke="black" stroke-width="2" fill="none" />
<polyline points="410.5,274.5,418.5,274.0,427.0,273.5,435.0,272.5,443.0,272.0" stroke="black" stroke-width="2" fill="none" />
<polyline points="443.5,275.5,435.5,283.5,427.5,291.0" stroke="black" stroke-width="2" fill="none" />
<polyline points="426.5,289.5,418.5,290.0" stroke="black" stroke-width="2" fill="none" />
<polyline points="412.0,296.0,420.0,289.0,428.0,281.0,436.0,273.5,444.0,266.0,451.5,258.5,460.0,251.0" stroke="black" stroke-width="2" fill="none" />
<polyline points="460.0,228.5,452.0,236.0,444.0,243.5,435.5,251.0,427.0,258.5,419.0,266.0,410.5,272.5,403.0,279.0" stroke="black" stroke-width="2" fill="none" />
<polyline points="405.5,280.0,413.5,279.5,421.0,279.0,429.0,278.5,437.0,278.5,444.5,278.5" stroke="black" stroke-width="2" fill="none" />
<polyline points="403.5,293.5,395.5,301.0" stroke="black" stroke-width="2" fill="none" />
<polyline points="389.0,300.0,397.5,292.0" stroke="black" stroke-width="2" fill="none" />
<polyline points="389.0,288.0,381.0,288.0" stroke="black" stroke-width="2" fill="none" />
<polyline points="380.0,292.0,388.0,285.0,395.5,278.5,403.5,271.5,411.5,265.0,419.5,258.0,427.5,250.5,435.5,243.5,444.0,236.0,452.0,228.0,459.5,220.0" stroke="black" stroke-width="2" fill="none" />
<polyline points="459.0,213.0,451.5,220.5,444.0,227.5,436.5,234.5,428.5,242.0,420.0,249.0,412.5,256.5,405.0,263.5,397.0,271.0,388.5,278.0,380.5,285.0,372.5,293.0" stroke="black" stroke-width="2" fill="none" />
<polyline points="364.5,294.0,372.0,286.5,380.0,279.0,388.0,271.5,395.5,263.5,403.5,256.0,411.5,248.0,419.5,240.5,427.0,233.5,435.0,226.0,443.0,218.5,451.0,211.0" stroke="black" stroke-width="2" fill="none" />
<polyline points="451.0,202.0,442.5,209.5,434.5,217.0,427.0,225.0,419.0,232.5,411.0,240.5,403.0,248.0,395.0,255.5,387.0,263.0,379.0,270.0,370.5,276.5,362.5,285.0,354.5,293.0" stroke="black" stroke-width="2" fill="none" />
<polyline points="356.0,292.5,364.5,291.5,372.0,291.0,380.0,291.0,387.5,291.0,395.5,290.5,403.0,290.5,410.5,290.0,418.0,290.0,426.0,290.0" stroke="black" stroke-width="2" fill="none" />
<polyline points="395.5,278.5,387.5,279.5,379.5,280.0" stroke="black" stroke-width="2" fill="none" />
<polyline points="372.5,267.5,380.5,266.5,388.5,266.0,397.0,265.5,405.0,264.5,413.5,264.0,421.5,263.0,429.0,262.0,436.5,261.0,443.5,260.5,451.0,260.0" stroke="black" stroke-width="2" fill="none" />
<polyline points="459.0,231.5,451.5,232.0,444.0,232.5,436.0,232.5" stroke="black" stroke-width="2" fill="none" />
<polyline points="451.0,195.5,443.0,203.0,435.0,210.5,426.5,218.5,418.5,226.0,410.0,233.0,402.0,240.5,394.0,248.0,386.0,255.5,378.0,263.0,370.5,271.0,362.5,278.0,354.5,285.5" stroke="black" stroke-width="2" fill="none" />
<polyline points="348.0,285.0,356.0,277.0,363.5,270.0,371.0,262.5,379.5,254.5,388.0,247.0,396.5,239.5,404.5,232.0,412.5,224.5,421.0,217.5,429.0,210.5,437.5,203.5,446.0,196.0,454.0,188.5" stroke="black" stroke-width="2" fill="none" />
<polyline points="443.0,188.5,435.0,196.0,427.0,203.0,419.5,210.0,412.0,217.5,404.5,225.0,396.5,232.5,388.5,240.5,380.0,248.5,371.5,255.5,363.5,263.5,355.0,270.5,347.5,278.5,340.0,286.5" stroke="black" stroke-width="2" fill="none" />
<polyline points="338.0,290.5,346.0,289.5,354.5,288.5,363.0,287.5,371.0,287.5" stroke="black" stroke-width="2" fill="none" />
<polyline points="364.5,298.0,373.0,297.5,381.0,297.0,389.0,296.0,397.5,295.5,405.5,294.5,413.0,294.0,420.0,293.5" stroke="black" stroke-width="2" fill="none" />
<polyline points="386.5,250.0,395.0,249.5,403.0,249.0,411.0,248.0,418.5,247.5,426.0,247.0,434.5,246.5,443.0,246.5,451.5,246.5,459.5,246.5" stroke="black" stroke-width="2" fill="none" />
<polyline points="438.0,183.0,430.0,183.5" stroke="black" stroke-width="2" fill="none" />
<polyline points="427.0,180.0,435.5,179.5,444.0,179.5" stroke="black" stroke-width="2" fill="none" />
<polyline points="443.0,178.5,435.0,186.5,427.0,193.5,419.5,201.0,412.0,209.0,404.0,217.0,395.5,224.5,387.5,232.0,379.5,240.0,371.5,247.5,363.5,255.0,356.0,262.5,348.0,269.5,339.5,277.0,331.0,284.5" stroke="black" stroke-width="2" fill="none" />
<polyline points="330.5,288.0,338.5,287.5,347.0,287.0,355.5,286.5,364.0,286.0,372.5,285.0,380.5,284.5,388.5,283.5,396.5,283.0,404.5,282.0,412.5,281.5,420.5,281.0,428.5,280.5,437.0,280.0" stroke="black" stroke-width="2" fill="none" />
<polyline points="459.0,349.0,467.0,348.5" stroke="black" stroke-width="2" fill="none" />
<polyline points="462.0,359.0,470.0,358.5,477.5,358.0" stroke="black" stroke-width="2" fill="none" />
<polyline points="499.0,362.5,491.5,362.5,483.5,363.0,476.0,363.0,468.0,363.0,460.5,363.5,453.0,363.5" stroke="black" stroke-width="2" fill="none" />
<polyline points="388.5,349.5,380.5,350.0,372.5,350.5" stroke="black" stroke-width="2" fill="none" />
<polyline points="364.5,342.0,372.5,341.5,380.5,341.0,388.5,340.0,396.0,339.5" stroke="black" stroke-width="2" fill="none" />
<polyline points="379.5,315.5,371.5,316.0,363.0,316.0" stroke="black" stroke-width="2" fill="none" />
<polyline points="363.5,323.5,355.5,324.0" stroke="black" stroke-width="2" fill="none" />
<polyline points="353.5,330.0,345.0,330.5" stroke="black" stroke-width="2" fill="none" />
<polyline points="347.5,348.0,355.5,347.5" stroke="black" stroke-width="2" fill="none" />
<polyline points="346.0,359.0,337.5,360.0" stroke="black" stroke-width="2" fill="none" />
<polyline points="317.0,365.5,309.0,366.0,300.5,366.5" stroke="black" stroke-width="2" fill="none" />
<polyline points="290.5,332.5,282.5,333.0" stroke="black" stroke-width="2" fill="none" />
<polyline points="268.5,326.5,260.5,327.0" stroke="black" stroke-width="2" fill="none" />
<polyline points="217.5,341.0,209.5,341.5" stroke="black" stroke-width="2" fill="none" />
<polyline points="201.5,347.5,210.0,347.0,219.0,346.5" stroke="black" stroke-width="2" fill="none" />
<polyline points="210.5,357.5,202.5,357.5" stroke="black" stroke-width="2" fill="none" />
<polyline points="203.5,366.0,211.5,365.5" stroke="black" stroke-width="2" fill="none" />
<polyline points="212.5,326.5,220.5,325.5,228.5,325.0,236.0,324.5" stroke="black" stroke-width="2" fill="none" />
<polyline points="220.0,319.0,212.0,320.0" stroke="black" stroke-width="2" fill="none" />
<polyline points="204.0,308.0,195.5,315.5" stroke="black" stroke-width="2" fill="none" />
<polyline points="198.0,316.5,206.0,315.5" stroke="black" stroke-width="2" fill="none" />
<polyline points="195.5,308.0,187.0,315.5" stroke="black" stroke-width="2" fill="none" />
<polyline points="187.5,310.0,195.5,309.5,204.0,309.0,212.5,308.0" stroke="black" stroke-width="2" fill="none" />
<polyline points="210.5,300.0,202.0,300.0,194.0,300.5,186.0,301.0" stroke="black" stroke-width="2" fill="none" />
<polyline points="187.0,293.0,178.5,293.5" stroke="black" stroke-width="2" fill="none" />
<polyline points="179.0,302.5,170.5,303.0" stroke="black" stroke-width="2" fill="none" />
<polyline points="146.0,305.0,137.5,305.0" stroke="black" stroke-width="2" fill="none" />
<polyline points="131.5,296.0,140.0,295.5,147.5,295.0,155.5,294.0,164.0,293.5" stroke="black" stroke-width="2" fill="none" />
<polyline points="148.0,276.0,156.5,275.5,164.5,275.5,172.5,275.5,180.0,275.5,188.0,275.0,196.0,274.5,203.5,274.0,211.5,273.0" stroke="black" stroke-width="2" fill="none" />
<polyline points="212.0,246.0,204.5,246.5,196.5,247.0" stroke="black" stroke-width="2" fill="none" />
<polyline points="198.5,239.5,206.5,239.0" stroke="black" stroke-width="2" fill="none" />
<polyline points="205.0,229.0,212.5,228.5" stroke="black" stroke-width="2" fill="none" />
<polyline points="214.0,221.0,206.0,221.5" stroke="black" stroke-width="2" fill="none" />
<polyline points="204.5,252.0,196.0,252.0,188.0,252.5" stroke="black" stroke-width="2" fill="none" />
<polyline points="177.5,263.0,186.0,262.5,194.0,261.0,202.0,260.0,210.0,259.0" stroke="black" stroke-width="2" fill="none" />
<polyline points="259.0,227.0,267.0,219.5" stroke="black" stroke-width="2" fill="none" />
<polyline points="266.5,225.5,274.5,218.0,282.5,210.0,291.0,202.5,299.5,194.0,307.5,186.0,315.5,178.0,323.0,170.5,331.0,162.5" stroke="black" stroke-width="2" fill="none" />
<polyline points="332.5,159.5,324.5,159.0" stroke="black" stroke-width="2" fill="none" />
<polyline points="326.0,155.5,334.0,155.0,342.0,154.5,349.0,154.5,356.5,154.5,364.0,155.0,372.0,154.5" stroke="black" stroke-width="2" fill="none" />
<polyline points="370.0,154.0,378.0,153.5" stroke="black" stroke-width="2" fill="none" />
<polyline points="381.5,156.0,389.0,155.5,396.0,155.0,404.0,155.0,412.0,154.5,420.0,154.0" stroke="black" stroke-width="2" fill="none" />
<polyline points="418.0,165.5,410.5,172.5,403.0,180.0,395.0,187.0,386.5,194.0,378.5,201.0,370.5,208.0,362.0,215.0,354.0,222.0,346.0,229.5,338.0,237.0,330.0,244.5,321.5,252.5,313.5,260.0" stroke="black" stroke-width="2" fill="none" />
<polyline points="305.5,258.0,298.0,265.5" stroke="black" stroke-width="2" fill="none" />
<polyline points="297.0,260.0,289.0,267.5" stroke="black" stroke-width="2" fill="none" />
<polyline points="293.5,261.5,301.0,260.5,309.0,260.0,317.0,259.0,325.5,257.5,333.0,257.0,341.5,256.5,350.0,256.0,358.5,255.5,366.0,255.0,374.0,254.5,382.0,254.0,390.0,253.5,397.0,253.5,404.5,253.5,412.0,254.0,420.0,253.5,428.0,252.5,436.5,252.0,444.5,252.0,452.5,252.0" stroke="black" stroke-width="2" fill="none" />
<polyline points="450.5,192.0,442.0,192.5,434.0,193.0,425.5,193.5,417.0,194.0" stroke="black" stroke-width="2" fill="none" />
<polyline points="418.0,188.5,410.0,195.5,402.5,203.0,394.0,210.5,386.0,217.5,378.0,224.5,370.0,232.0,362.0,239.0,354.5,246.5,346.5,254.5,338.5,262.0,330.5,269.5,322.5,276.5" stroke="black" stroke-width="2" fill="none" />
<polyline points="321.5,276.5,314.0,284.0" stroke="black" stroke-width="2" fill="none" />
<polyline points="315.5,277.5,323.5,277.0,332.0,276.5,340.0,276.0,347.5,275.5,355.0,275.0,363.5,274.0,371.0,273.5,378.5,273.5,386.0,273.5,394.0,273.5,402.0,272.5,410.5,271.5,419.0,270.5,427.0,270.5,435.5,270.0,443.5,269.0" stroke="black" stroke-width="2" fill="none" />
<polyline points="427.5,230.5,419.5,230.5,411.5,231.0,404.0,230.5,396.0,230.0,387.0,230.5,378.5,231.0" stroke="black" stroke-width="2" fill="none" />
<polyline points="372.5,242.5,380.5,242.0,388.0,241.5,395.5,240.5,403.5,240.0,412.0,239.0,420.0,238.5,428.0,237.0,436.5,236.0,444.5,235.5,453.0,234.5,460.5,234.5" stroke="black" stroke-width="2" fill="none" />
<polyline points="434.5,179.5,426.0,187.0,418.5,195.0,411.0,202.5,404.0,210.0,396.0,217.5,387.5,225.0,378.5,233.0,370.5,240.5,362.5,248.5,354.5,256.0,346.5,263.5,338.0,271.0,329.5,278.5" stroke="black" stroke-width="2" fill="none" />
<polyline points="330.5,272.5,338.5,272.5,347.0,272.0,355.5,271.5,364.0,271.5" stroke="black" stroke-width="2" fill="none" />
<polyline points="366.0,257.5,373.5,257.0,381.5,256.5,389.5,256.0,397.5,255.5,405.5,255.5,413.5,254.5,421.0,253.5,429.0,252.0,437.5,251.5,445.5,251.0,453.5,250.5,461.0,250.0" stroke="black" stroke-width="2" fill="none" />
<polyline points="426.5,171.5,418.5,179.0,410.0,186.0,402.0,193.5,393.5,201.5,385.5,208.5,377.5,216.0,369.5,223.5,361.5,231.5,353.5,239.0,345.5,246.5,337.5,254.5,329.5,261.5" stroke="black" stroke-width="2" fill="none" />
<polyline points="322.5,261.0,329.5,253.5,337.5,246.5,345.5,238.5,353.0,231.5,361.0,224.0,368.5,217.0,377.0,209.5,384.5,202.5,392.5,195.0,401.0,188.0,409.5,180.5,418.0,173.5" stroke="black" stroke-width="2" fill="none" />
<polyline points="403.5,174.0,395.5,181.0,388.0,187.5,380.0,194.0,372.0,201.0,364.0,208.0,356.0,215.0,348.0,222.5,339.5,230.0,331.0,238.0,322.5,245.5" stroke="black" stroke-width="2" fill="none" />
<polyline points="322.5,247.5,330.5,247.0" stroke="black" stroke-width="2" fill="none" />
<polyline points="339.0,249.0,347.5,248.5,356.0,248.0" stroke="black" stroke-width="2" fill="none" />
<polyline points="364.5,250.5,372.5,249.5,380.0,249.0" stroke="black" stroke-width="2" fill="none" />
<polyline points="371.5,218.5,379.0,218.0,387.0,217.5,395.0,216.5,403.0,215.0,411.0,214.0,419.0,213.0,427.5,212.5,435.5,212.5,443.5,212.0,452.0,211.5,460.0,211.5" stroke="black" stroke-width="2" fill="none" />
<polyline points="420.5,164.5,412.5,164.0,404.5,164.5" stroke="black" stroke-width="2" fill="none" />
<polyline points="396.5,160.5,388.0,168.5,380.0,176.5,372.0,184.0,363.5,191.0,355.5,199.0,346.5,206.5,338.5,214.0,330.5,222.0,322.5,229.5,314.5,237.5" stroke="black" stroke-width="2" fill="none" />
<polyline points="309.5,237.5,317.5,230.0,325.5,223.0,332.5,215.5,339.5,208.5,347.5,201.5,355.5,194.5,363.5,188.0,371.5,180.5,379.0,172.5" stroke="black" stroke-width="2" fill="none" />
<polyline points="378.5,165.0,370.5,172.0,362.5,179.5,355.0,187.0,348.0,194.0,340.5,201.5,332.5,209.0,324.5,216.5,316.5,223.5,308.5,231.0,300.0,238.5" stroke="black" stroke-width="2" fill="none" />
<polyline points="300.0,226.0,307.5,225.5,315.0,225.0,322.5,224.5,330.0,223.5,337.5,222.0,345.5,221.5,353.5,221.0,361.5,220.0,369.5,219.5,378.0,219.0,386.0,218.5,393.5,218.5,402.0,218.5,410.5,218.0,418.5,218.0,427.0,217.5,435.0,217.0,443.5,216.5,452.0,216.0,459.5,215.5" stroke="black" stroke-width="2" fill="none" />
<polyline points="425.5,175.5,419.0,176.0,411.5,177.0,404.0,177.5,396.0,178.5" stroke="black" stroke-width="2" fill="none" />
<polyline points="397.5,171.0,389.0,178.5,380.5,186.5,372.0,194.0,364.0,201.0,355.5,208.5,347.5,216.5,339.0,224.0,331.5,231.5,323.5,239.0,316.0,246.5" stroke="black" stroke-width="2" fill="none" />
<polyline points="323.5,238.5,331.0,238.5,339.5,238.0,347.0,238.0,355.0,238.0,363.0,237.5" stroke="black" stroke-width="2" fill="none" />
<polyline points="356.5,266.5,348.5,266.5" stroke="black" stroke-width="2" fill="none" />
<polyline points="347.5,281.0,355.0,280.0,363.0,279.5,371.5,279.0" stroke="black" stroke-width="2" fill="none" />
<polyline points="346.0,255.5,338.0,256.0" stroke="black" stroke-width="2" fill="none" />
<polyline points="338.0,264.5,330.0,264.5,322.0,264.5" stroke="black" stroke-width="2" fill="none" />
<polyline points="305.5,266.5,298.0,274.5" stroke="black" stroke-width="2" fill="none" />
<polyline points="300.0,276.5,308.5,275.5" stroke="black" stroke-width="2" fill="none" />
<polyline points="301.5,271.5,309.5,271.0,317.5,269.5,325.0,268.5,332.5,267.5,340.0,266.5,348.0,265.5,356.0,264.5,364.0,263.5,372.0,262.5,379.5,262.0,387.5,261.5,395.0,260.5,402.0,260.0,409.5,260.0,417.0,260.0,425.5,259.5,433.5,259.5,442.0,259.5,450.0,260.0" stroke="black" stroke-width="2" fill="none" />
<polyline points="395.0,167.5,386.5,168.0" stroke="black" stroke-width="2" fill="none" />
<polyline points="387.0,161.0,395.0,154.0" stroke="black" stroke-width="2" fill="none" />
<polyline points="394.0,147.0,386.0,154.0" stroke="black" stroke-width="2" fill="none" />
<polyline points="388.0,144.5,380.0,145.0,371.5,145.5" stroke="black" stroke-width="2" fill="none" />
<polyline points="370.0,146.0,378.0,138.0,386.5,129.5,394.5,122.0" stroke="black" stroke-width="2" fill="none" />
<polyline points="393.5,114.0,385.0,122.0,377.5,129.5,370.0,137.0,362.5,145.0" stroke="black" stroke-width="2" fill="none" />
<polyline points="362.5,141.5,354.5,149.0,347.0,156.0,339.5,163.0,332.0,170.5,324.5,177.5,316.0,185.0,308.0,193.0,299.5,200.5,291.0,208.5" stroke="black" stroke-width="2" fill="none" />
<polyline points="292.0,208.5,300.5,208.0,309.0,207.5,317.0,207.0,325.5,206.5,334.0,205.5,342.0,205.0,349.5,204.5,357.5,204.0,366.0,203.5,374.0,203.0,381.5,202.5,389.5,202.0,397.0,202.0,404.5,201.5,411.5,201.0,419.0,200.5,427.0,200.0,435.0,199.5,443.0,199.0,451.0,198.0" stroke="black" stroke-width="2" fill="none" />
<polyline points="371.0,164.0,363.0,171.5,355.5,179.5,347.5,187.0,339.5,195.0,331.0,203.5,323.5,210.5,316.0,217.5,308.0,224.5,300.0,232.0,292.0,239.5,284.0,247.0" stroke="black" stroke-width="2" fill="none" />
<polyline points="282.5,252.0,290.5,251.5,298.5,251.5,306.5,251.5,315.0,251.5,323.5,251.5,331.5,251.5,339.0,251.5,346.5,251.5,354.5,251.5,362.5,251.0,370.5,250.5,378.5,250.0,387.0,249.5,395.0,248.0,403.5,247.5,411.0,246.5,419.0,246.0,427.0,245.5,435.0,244.5,443.5,244.0,451.0,243.0,458.5,242.5" stroke="black" stroke-width="2" fill="none" />
<polyline points="364.5,155.5,356.0,163.0,348.0,170.5,339.5,178.0,331.5,185.5,323.5,192.5,316.0,200.5,307.5,208.0,299.5,216.0,291.5,223.5" stroke="black" stroke-width="2" fill="none" />
<polyline points="291.0,227.5,299.0,220.5,307.0,212.5,314.5,205.0,323.0,197.5,330.5,190.5,338.5,183.0,346.5,175.5,354.0,167.5,362.0,160.5,370.0,153.0,378.0,146.0,385.5,138.5,393.5,131.5" stroke="black" stroke-width="2" fill="none" />
<polyline points="396.0,137.0,388.0,138.0,379.5,138.5,371.5,139.5" stroke="black" stroke-width="2" fill="none" />
<polyline points="370.0,131.0,378.5,123.0,386.0,116.0,394.5,108.5" stroke="black" stroke-width="2" fill="none" />
<polyline points="396.0,99.5,388.0,107.0,380.0,114.5,372.0,122.5" stroke="black" stroke-width="2" fill="none" />
<polyline points="371.0,121.5,379.0,120.5,387.0,120.5,395.0,120.5" stroke="black" stroke-width="2" fill="none" />
<polyline points="395.5,128.0,387.5,128.5,380.0,129.0,372.0,129.5" stroke="black" stroke-width="2" fill="none" />
<polyline points="363.0,124.0,355.0,132.0" stroke="black" stroke-width="2" fill="none" />
<polyline points="346.5,131.0,338.5,138.5" stroke="black" stroke-width="2" fill="none" />
<polyline points="332.0,139.5,340.0,132.0" stroke="black" stroke-width="2" fill="none" />
<polyline points="340.5,125.5,332.5,133.0,324.5,140.0,317.0,147.5" stroke="black" stroke-width="2" fill="none" />
<polyline points="316.5,144.5,324.0,144.0" stroke="black" stroke-width="2" fill="none" />
<polyline points="330.5,139.0,338.5,139.0,346.5,139.5,355.0,139.5,363.5,139.0,371.5,138.5,379.5,138.5,388.0,139.0,395.5,138.5" stroke="black" stroke-width="2" fill="none" />
<polyline points="372.0,114.0,380.0,106.0,388.0,98.5,396.5,91.0,404.0,83.5" stroke="black" stroke-width="2" fill="none" />
<polyline points="402.5,90.0,394.5,90.5" stroke="black" stroke-width="2" fill="none" />
<polyline points="394.0,86.0,402.0,85.5" stroke="black" stroke-width="2" fill="none" />
<polyline points="403.0,77.0,395.5,77.0" stroke="black" stroke-width="2" fill="none" />
<polyline points="387.5,93.0,380.0,100.5,372.0,107.5" stroke="black" stroke-width="2" fill="none" />
<polyline points="373.0,106.0,381.5,106.0,389.5,105.5,398.0,104.5" stroke="black" stroke-width="2" fill="none" />
<polyline points="396.5,96.0,389.0,97.0,381.5,97.5" stroke="black" stroke-width="2" fill="none" />
<polyline points="381.0,94.0,389.0,93.5,396.5,93.0" stroke="black" stroke-width="2" fill="none" />
<polyline points="397.0,111.5,389.0,112.5,380.5,113.0,372.5,113.5" stroke="black" stroke-width="2" fill="none" />
<polyline points="395.0,114.0,388.0,114.5,380.0,115.5,372.0,116.5,363.5,117.5,355.5,118.5,347.0,119.5" stroke="black" stroke-width="2" fill="none" />
<polyline points="339.5,115.5,332.0,123.0,324.0,130.0,316.0,137.5" stroke="black" stroke-width="2" fill="none" />
<polyline points="316.0,137.5,323.5,137.0,332.0,136.0,340.0,134.5" stroke="black" stroke-width="2" fill="none" />
<polyline points="338.0,145.5,330.5,153.0,322.5,160.0,315.0,168.0,307.5,176.0,299.5,184.0,291.5,192.0,283.0,200.5,274.5,209.0" stroke="black" stroke-width="2" fill="none" />
<polyline points="268.5,209.0,276.5,208.0,284.0,208.0" stroke="black" stroke-width="2" fill="none" />
<polyline points="283.0,201.5,291.0,201.0,299.0,201.0,307.0,200.5,315.0,200.0,323.0,199.5,331.5,199.5,339.5,199.0,348.0,198.5,356.0,198.0,364.0,197.5,372.0,197.0,379.5,196.0,387.5,195.0,395.0,194.0,403.0,193.0,411.0,192.5,419.0,191.5,427.5,191.0,436.0,190.5,443.5,190.0,451.5,189.5" stroke="black" stroke-width="2" fill="none" />
<polyline points="355.5,155.5,347.0,163.0,338.5,170.5,330.5,178.0,323.0,184.5,315.0,191.5,307.0,199.5,299.0,207.5,291.0,214.5,283.0,221.5,275.0,229.0,266.5,236.5" stroke="black" stroke-width="2" fill="none" />
<polyline points="267.5,234.5,276.0,227.5,284.5,220.5" stroke="black" stroke-width="2" fill="none" />
<polyline points="297.5,217.0,305.5,216.5,314.0,216.0,322.0,215.5,329.5,215.5,338.0,214.5,345.5,214.5,353.5,214.5,361.5,214.0" stroke="black" stroke-width="2" fill="none" />
<polyline points="371.5,229.0,363.5,229.5,356.0,230.0,348.5,231.0,340.5,231.5,332.5,232.5,325.0,233.0,317.0,233.0" stroke="black" stroke-width="2" fill="none" />
<polyline points="291.0,253.0,282.5,260.5" stroke="black" stroke-width="2" fill="none" />
<polyline points="276.5,244.0,284.5,243.5,292.5,243.0,300.5,243.0,308.0,243.5,315.5,243.5,324.0,243.0,332.5,243.0,340.5,243.0,348.5,242.5,356.5,241.5,364.5,241.5,372.5,241.0,380.5,240.5,388.0,240.5,395.5,240.0,403.5,239.0,412.0,238.5,420.0,238.0,428.0,237.5,436.5,236.5,444.5,236.5,452.0,235.5,459.5,234.5" stroke="black" stroke-width="2" fill="none" />
<polyline points="366.0,158.0,357.5,158.5,349.0,160.0,341.0,160.0" stroke="black" stroke-width="2" fill="none" />
<polyline points="337.0,155.0,345.0,148.0" stroke="black" stroke-width="2" fill="none" />
<polyline points="355.5,151.5,347.0,151.5,339.0,151.5,331.0,152.0" stroke="black" stroke-width="2" fill="none" />
<polyline points="313.5,155.5,305.5,163.0,297.0,170.5,289.0,178.0,281.0,185.0,273.0,193.0,265.5,200.0" stroke="black" stroke-width="2" fill="none" />
<polyline points="267.0,201.5,275.5,201.0" stroke="black" stroke-width="2" fill="none" />
<polyline points="267.0,207.0,275.0,199.5,282.5,192.5,290.0,185.5,298.0,178.5,306.5,171.5,314.5,164.5" stroke="black" stroke-width="2" fill="none" />
<polyline points="305.5,155.0,297.5,162.5,289.0,170.0,281.5,178.0,273.5,186.0,265.5,193.5,258.0,201.0" stroke="black" stroke-width="2" fill="none" />
<polyline points="259.5,197.5,268.0,197.0,276.0,197.0,284.5,196.5,293.0,196.0,301.5,196.0,309.5,194.5,317.5,193.0,325.5,192.5,334.0,191.5,342.0,191.0,349.5,190.5,357.0,190.0,365.0,190.0,373.0,190.0,380.5,189.5,388.0,188.0,396.0,187.5,403.5,186.5,411.5,185.5,419.5,184.5,427.0,184.5,435.5,184.0,443.0,184.0,451.0,184.0" stroke="black" stroke-width="2" fill="none" />
<polyline points="339.0,107.5,331.0,115.0,323.0,123.0" stroke="black" stroke-width="2" fill="none" />
<polyline points="324.0,123.5,332.0,123.0,340.5,123.0,348.5,123.0,356.0,123.5,363.5,123.5,372.0,123.0,380.5,122.5,388.5,122.0,396.5,121.5,404.5,121.0" stroke="black" stroke-width="2" fill="none" />
<polyline points="371.0,77.0,363.5,78.0" stroke="black" stroke-width="2" fill="none" />
<polyline points="353.0,68.5,345.5,75.5" stroke="black" stroke-width="2" fill="none" />
<polyline points="347.5,75.5,355.0,75.0" stroke="black" stroke-width="2" fill="none" />
<polyline points="362.5,69.0,354.0,69.5,346.0,70.0" stroke="black" stroke-width="2" fill="none" />
<polyline points="331.5,83.0,323.5,90.5" stroke="black" stroke-width="2" fill="none" />
<polyline points="324.5,90.5,332.5,90.5" stroke="black" stroke-width="2" fill="none" />
<polyline points="331.5,90.5,323.0,98.5" stroke="black" stroke-width="2" fill="none" />
<polyline points="323.0,96.5,331.0,95.5,339.5,95.0" stroke="black" stroke-width="2" fill="none" />
<polyline points="340.5,91.5,332.0,99.5,324.0,107.5" stroke="black" stroke-width="2" fill="none" />
<polyline points="325.5,106.0,333.5,104.5,341.0,103.5" stroke="black" stroke-width="2" fill="none" />
<polyline points="339.0,99.5,331.0,107.0,322.5,115.0" stroke="black" stroke-width="2" fill="none" />
<polyline points="322.5,116.0,330.5,115.5,338.5,115.0" stroke="black" stroke-width="2" fill="none" />
<polyline points="341.5,127.0,333.5,127.5,326.0,128.0" stroke="black" stroke-width="2" fill="none" />
<polyline points="324.5,119.5,332.5,119.5,340.0,119.5" stroke="black" stroke-width="2" fill="none" />
<polyline points="339.5,117.0,331.5,118.0,324.0,118.5" stroke="black" stroke-width="2" fill="none" />
<polyline points="324.0,110.5,332.0,110.0,339.5,109.0,347.5,108.0,355.0,107.0,363.0,106.0,371.0,105.5,379.0,104.5,387.5,104.0,396.0,103.5" stroke="black" stroke-width="2" fill="none" />
<polyline points="403.5,95.0,395.0,95.5,387.0,96.5,378.5,96.5,370.5,96.5,363.0,97.0,355.0,98.0,347.0,99.0,339.5,100.0,332.0,101.0,325.0,101.5" stroke="black" stroke-width="2" fill="none" />
<polyline points="322.5,93.0,330.5,93.0,338.5,92.0,346.5,91.5" stroke="black" stroke-width="2" fill="none" />
<polyline points="332.5,85.0,324.0,85.5" stroke="black" stroke-width="2" fill="none" />
<polyline points="312.5,130.0,305.0,137.5,297.0,145.0,289.5,153.0" stroke="black" stroke-width="2" fill="none" />
<polyline points="291.5,148.0,284.0,156.0,276.0,163.5,268.0,171.0" stroke="black" stroke-width="2" fill="none" />
<polyline points="266.5,173.5,274.5,173.0,283.0,173.5,291.5,173.0,300.0,172.5,308.5,172.0,317.0,171.5,325.0,171.5,333.0,171.0,341.0,170.0,348.5,169.5,357.0,169.0,365.0,168.5,372.5,168.0,380.0,167.0,388.0,166.5,395.5,166.0,403.0,165.0,410.5,164.0,418.5,163.5,426.5,162.5" stroke="black" stroke-width="2" fill="none" />
<polyline points="421.0,179.0,412.5,180.0,404.0,180.5,396.0,180.5,388.0,181.0,380.0,181.5,371.5,181.5,363.5,182.5,356.0,183.0,348.5,183.5,340.5,184.0,332.0,184.0,323.5,184.5,315.5,184.5,307.5,185.0" stroke="black" stroke-width="2" fill="none" />
<polyline points="301.0,179.0,308.5,178.0,317.0,177.0,324.5,175.5,332.0,174.5,339.5,174.0,347.5,173.5,355.5,172.5,363.0,171.5,371.0,171.0,378.5,170.5,386.5,170.0" stroke="black" stroke-width="2" fill="none" />
<polyline points="394.5,130.5,386.5,131.0,378.5,131.5,370.5,132.0,362.5,132.5,355.0,132.5,347.5,132.5,340.0,132.5,332.5,132.5,325.0,133.0,318.0,133.0,310.0,133.5" stroke="black" stroke-width="2" fill="none" />
<polyline points="308.0,143.5,300.0,143.5" stroke="black" stroke-width="2" fill="none" />
<polyline points="292.0,142.0,300.0,141.5,308.5,140.5,316.5,139.5,324.0,138.5" stroke="black" stroke-width="2" fill="none" />
<polyline points="317.0,159.0,309.5,159.5,302.0,160.0" stroke="black" stroke-width="2" fill="none" />
<polyline points="291.0,166.5,283.5,173.5,276.0,181.0,268.5,188.0,260.5,195.0" stroke="black" stroke-width="2" fill="none" />
<polyline points="260.0,191.5,268.0,190.5,276.5,189.5,285.0,188.5,293.0,187.5,300.5,186.5,308.5,185.5,316.5,184.5,324.5,183.5,332.0,183.0,340.0,182.5,348.0,182.5,357.0,181.5,365.0,181.0,373.5,180.0,381.5,179.0,390.0,179.0,397.0,179.0,405.0,178.5,412.5,177.5,420.5,177.0,428.5,177.5,437.0,177.5,445.0,177.5,453.0,177.5" stroke="black" stroke-width="2" fill="none" />
<polyline points="410.5,187.5,402.0,187.5,394.0,187.5,386.0,187.5,378.0,187.5,370.0,188.5,362.0,189.0,354.5,189.5,346.5,190.0,338.0,190.0,330.0,191.0,322.5,191.0,315.0,192.0,306.5,193.0,298.5,193.0" stroke="black" stroke-width="2" fill="none" />
<polyline points="298.0,185.0,290.5,185.0,282.5,185.0" stroke="black" stroke-width="2" fill="none" />
<polyline points="281.5,171.5,290.0,171.0,298.5,170.5,306.5,169.5,314.5,168.5,322.5,168.5,331.5,167.0,339.5,166.0,348.0,165.5,356.5,165.0,365.0,164.5,372.0,164.0,379.5,163.0" stroke="black" stroke-width="2" fill="none" />
<polyline points="284.0,165.5,275.5,173.0,267.0,180.0" stroke="black" stroke-width="2" fill="none" />
<polyline points="266.5,182.5,274.5,182.0,283.0,181.5,291.0,181.0,299.5,180.0,308.0,179.0,316.5,178.5,324.5,178.0,333.0,177.5,341.5,177.0,350.0,176.5,358.0,176.0,365.0,176.0,372.5,175.5,380.0,175.5,387.5,175.5,395.0,175.5,402.5,175.5,410.5,175.0,418.5,174.5" stroke="black" stroke-width="2" fill="none" />
<polyline points="299.5,154.5,291.5,155.5,283.0,156.0" stroke="black" stroke-width="2" fill="none" />
<polyline points="283.5,161.0,275.5,161.0" stroke="black" stroke-width="2" fill="none" />
<polyline points="277.0,157.5,285.0,156.5,293.0,155.5,301.0,155.0,309.0,154.0,317.0,154.0" stroke="black" stroke-width="2" fill="none" />
<polyline points="284.5,150.0,292.5,149.5,300.0,148.5,308.0,148.0,316.0,147.5,324.0,147.0,331.5,147.0,339.5,146.5,347.0,146.0,354.5,145.0,362.5,144.0,370.5,144.0,378.5,143.0,386.5,142.5,395.0,141.5" stroke="black" stroke-width="2" fill="none" />
<polyline points="459.0,226.0,450.5,227.5,442.0,228.5,434.0,229.0,425.5,230.0,418.0,230.5,410.0,230.5,401.5,231.0,393.5,231.0,385.5,230.5,377.5,231.0,369.5,232.0,362.0,232.0,354.5,232.0,346.5,232.5,338.5,233.0,330.5,234.0,322.5,234.5,314.5,235.0,307.0,235.5,299.5,235.5,292.5,236.0,285.0,236.5,277.0,237.0,269.0,237.5" stroke="black" stroke-width="2" fill="none" />
<polyline points="274.5,242.0,283.0,234.0" stroke="black" stroke-width="2" fill="none" />
<polyline points="284.0,239.5,276.0,239.5" stroke="black" stroke-width="2" fill="none" />
<polyline points="269.5,226.0,277.0,225.0,285.0,225.0" stroke="black" stroke-width="2" fill="none" />
<polyline points="260.5,229.0,268.5,229.0,276.5,228.5,284.5,228.5,292.5,228.0,300.5,227.5,308.0,227.0,316.0,226.5,324.0,226.0,332.0,225.5,340.0,225.0,347.5,224.5,355.0,224.0,362.5,223.5,370.0,222.5,377.5,221.0,385.5,220.5,393.5,220.0,401.5,219.0,409.5,218.5,418.0,218.0,426.0,217.5,433.5,217.5,442.0,217.5,450.5,217.0,458.5,217.0" stroke="black" stroke-width="2" fill="none" />
<polyline points="329.0,282.0,321.0,283.0" stroke="black" stroke-width="2" fill="none" />
<polyline points="314.5,309.5,322.5,309.0,330.0,309.0,337.5,309.0" stroke="black" stroke-width="2" fill="none" />
<polyline points="340.0,317.5,332.0,318.0" stroke="black" stroke-width="2" fill="none" />
<polyline points="259.5,221.0,267.5,221.0,275.5,220.0,283.5,219.0,292.0,218.0,299.5,218.0,307.5,217.5,315.0,216.5,322.5,216.5,330.0,216.5,337.5,216.0,345.5,215.5,354.0,215.0,362.0,214.5,369.5,214.5,378.0,213.5,385.5,213.5,393.5,213.5,401.5,213.0,409.0,213.0,417.0,213.0,425.0,212.0,433.5,211.5,442.0,211.5,450.5,211.0,459.5,210.5" stroke="black" stroke-width="2" fill="none" />
<polyline points="292.5,191.5,284.0,193.0,275.5,193.5,267.0,194.5" stroke="black" stroke-width="2" fill="none" />
<polyline points="267.0,185.5,275.0,184.5" stroke="black" stroke-width="2" fill="none" />
<polyline points="267.5,164.5,275.5,164.5,283.5,164.0,291.5,163.5,300.0,163.0,308.5,162.5,316.5,163.0,324.0,163.0,332.0,163.5,340.0,164.0,348.5,163.5,356.5,162.5,364.5,161.0,373.0,160.0,381.0,159.0,388.5,158.0,396.5,156.5" stroke="black" stroke-width="2" fill="none" />
<polyline points="458.5,202.0,450.5,202.5,442.0,202.5,434.0,202.5,426.0,202.5,418.0,202.5,410.0,203.5,402.0,204.0,394.5,204.5,386.5,205.0,378.0,205.0,370.0,206.0,362.5,206.0,355.0,207.0,346.5,208.0,338.5,208.0,331.0,209.0,323.5,209.5,315.5,210.0,308.0,210.0,300.5,210.5,292.0,211.0,283.5,211.5,275.0,212.0,267.0,212.0,258.5,212.5" stroke="black" stroke-width="2" fill="none" />
<polyline points="259.5,206.5,267.0,206.0,275.5,205.5,283.5,205.0,292.0,205.0,300.5,204.5,309.0,204.0,317.0,203.5,325.5,202.5,333.0,202.0,341.0,202.0,348.5,201.0,357.0,200.0,364.5,198.5,372.0,197.5,379.5,197.0,387.5,196.5,395.5,195.5,403.0,194.5,411.0,194.0,418.5,193.5,426.5,193.0,435.0,192.5,443.0,192.5,450.5,192.5" stroke="black" stroke-width="2" fill="none" />
<polyline points="172.5,284.0,164.0,284.5,155.5,285.0,147.5,285.5,139.0,285.5" stroke="black" stroke-width="2" fill="none" />
<polyline points="149.0,301.0,140.0,302.0,132.0,302.0,123.5,302.5" stroke="black" stroke-width="2" fill="none" />
<polyline points="124.0,311.5,131.5,311.0,139.0,310.5" stroke="black" stroke-width="2" fill="none" />
<polyline points="124.5,323.5,116.5,331.5" stroke="black" stroke-width="2" fill="none" />
<polyline points="109.5,326.0,117.0,325.0,124.0,325.0" stroke="black" stroke-width="2" fill="none" />
<polyline points="115.0,332.0,107.0,332.0,99.0,332.5" stroke="black" stroke-width="2" fill="none" />
<polyline points="106.5,339.0,98.0,338.5,89.5,338.0,81.0,338.0" stroke="black" stroke-width="2" fill="none" />
<polyline points="65.5,349.0,74.0,348.0,82.0,347.5,91.0,347.0,100.0,347.0" stroke="black" stroke-width="2" fill="none" />
<polyline points="108.0,356.5,100.0,356.5,91.5,357.0,83.5,357.0,75.5,357.0" stroke="black" stroke-width="2" fill="none" />
<polyline points="66.5,363.5,74.5,363.0,82.5,362.0,90.5,362.0,99.0,362.5,107.5,363.0" stroke="black" stroke-width="2" fill="none" />
</svg>