<svg xmlns="http://www.w3.org/2000/svg" version="1.1"><polyline points="2.0,4.5,10.0,4.0,18.0,4.0,26.5,3.5,34.0,3.0,42.0,2.5,50.0,2.5,58.0,1.5,65.5,1.0,73.5,0.5,82.0,0.0,90.0,-1.0,98.0,-1.5,106.0,-2.5,114.0,-2.5,122.0,-3.5,130.0,-4.5,137.5,-5.5,146.0,-6.0,154.5,-6.0,162.5,-6.0,171.0,-6.5,179.0,-7.0,187.5,-7.5,196.0,-8.0,204.0,-8.5,212.0,-8.5,219.5,-9.0,226.5,-9.5,234.5,-10.0,242.0,-10.5,250.0,-11.0,258.0,-11.5,266.5,-12.5,275.0,-13.0,283.5,-13.5,291.5,-14.0,300.0,-14.0,308.5,-14.0,317.0,-14.0,325.0,-14.5,333.0,-14.5,340.0,-14.5,348.0,-15.0,355.5,-15.5,363.5,-15.5,371.5,-15.5,380.0,-16.0,388.0,-16.0,396.0,-16.5,403.5,-16.5,412.0,-17.5,419.5,-18.0,427.0,-18.5,434.5,-20.5,442.0,-21.5,449.5,-22.5,458.0,-23.0,466.5,-24.0,474.0,-24.5,482.0,-25.5,490.5,-26.0,499.0,-27.0,507.0,-27.5,515.0,-28.0" stroke="black" stroke-width="2" fill="none" />
<polyline points="509.0,4.0,501.0,11.0" stroke="black" stroke-width="2" fill="none" />
<polyline points="500.0,19.0,492.0,26.5" stroke="black" stroke-width="2" fill="none" />
<polyline points="500.0,28.0,492.5,35.0" stroke="black" stroke-width="2" fill="none" />
<polyline points="485.5,36.5,477.0,43.5,468.5,51.5" stroke="black" stroke-width="2" fill="none" />
<polyline points="461.5,50.5,469.0,43.0" stroke="black" stroke-width="2" fill="none" />
<polyline points="485.5,42.0,477.0,50.0,469.0,58.0,461.0,65.5" stroke="black" stroke-width="2" fill="none" />
<polyline points="452.0,60.0,444.5,67.5" stroke="black" stroke-width="2" fill="none" />
<polyline points="453.0,90.5,461.5,83.0,469.5,75.0" stroke="black" stroke-width="2" fill="none" />
<polyline points="484.0,73.0,491.5,65.0,499.0,57.0,506.5,49.0,514.5,41.5" stroke="black" stroke-width="2" fill="none" />
<polyline points="514.0,34.5,506.0,42.0,498.0,50.0,490.5,58.0" stroke="black" stroke-width="2" fill="none" />
<polyline points="486.0,67.5,478.0,75.5" stroke="black" stroke-width="2" fill="none" />
<polyline points="477.0,67.0,484.5,59.5,492.5,51.5,500.5,44.0" stroke="black" stroke-width="2" fill="none" />
<polyline points="508.0,60.0,500.0,67.0,492.0,74.0" stroke="black" stroke-width="2" fill="none" />
<polyline points="486.0,84.5,477.5,92.0,469.5,99.5,461.0,106.5,452.5,113.5,444.0,120.5,436.0,128.0,428.0,136.0" stroke="black" stroke-width="2" fill="none" />
<polyline points="436.0,135.0,444.0,127.5,452.5,119.5,460.5,112.0,468.5,104.5,476.5,97.0,484.0,89.5,492.0,82.0,500.0,74.5,507.5,67.5,515.5,60.0" stroke="black" stroke-width="2" fill="none" />
<polyline points="516.0,66.0,508.5,73.5,500.5,81.5,492.5,89.5" stroke="black" stroke-width="2" fill="none" />
<polyline points="501.0,92.5,492.5,99.5" stroke="black" stroke-width="2" fill="none" />
<polyline points="484.5,98.0,476.5,106.0,468.5,113.5,461.0,121.0,453.0,129.0,444.5,136.5,436.5,143.5,428.5,150.5" stroke="black" stroke-width="2" fill="none" />
<polyline points="426.0,147.0,418.0,154.5" stroke="black" stroke-width="2" fill="none" />
<polyline points="412.0,155.0,420.0,147.5" stroke="black" stroke-width="2" fill="none" />
<polyline points="438.0,150.5,446.0,142.5,453.5,135.0,461.0,127.5,468.0,120.0,476.0,112.5,483.5,105.0" stroke="black" stroke-width="2" fill="none" />
<polyline points="490.5,123.5,483.0,130.5,475.5,138.5,467.5,146.0,459.0,152.5" stroke="black" stroke-width="2" fill="none" />
<polyline points="492.0,144.5,500.0,137.0,508.0,128.5,515.0,120.5" stroke="black" stroke-width="2" fill="none" />
<polyline points="516.0,116.0,508.0,122.5,499.5,130.0" stroke="black" stroke-width="2" fill="none" />
<polyline points="492.5,132.5,485.0,140.0,477.0,148.0,468.5,155.5" stroke="black" stroke-width="2" fill="none" />
<polyline points="451.5,150.5,459.5,143.5,467.5,136.0,475.5,128.5,484.0,121.5,492.5,113.5,501.0,106.0,509.5,98.5,517.5,91.0" stroke="black" stroke-width="2" fill="none" />
<polyline points="517.5,83.0,509.5,91.0,501.5,98.5,493.0,106.0,484.5,113.0,476.5,120.0,468.5,128.0,461.0,135.0,453.0,142.5,444.5,150.0" stroke="black" stroke-width="2" fill="none" />
<polyline points="435.0,172.0,426.5,172.0" stroke="black" stroke-width="2" fill="none" />
<polyline points="428.0,179.5,420.0,187.5,412.0,195.5,404.5,203.5,397.0,211.0" stroke="black" stroke-width="2" fill="none" />
<polyline points="397.0,205.0,405.0,204.5,413.0,203.5,420.5,203.0,428.5,202.5,436.5,202.5,444.0,202.5,452.5,202.0,460.5,201.5,468.5,202.0,476.5,201.0,484.5,201.0,492.5,200.0,500.5,199.0,508.0,198.0,515.5,197.0" stroke="black" stroke-width="2" fill="none" />
<polyline points="517.0,194.0,508.5,202.0,500.5,209.5,492.0,217.0,484.0,225.0,476.0,233.0,468.0,240.5,460.0,248.5,452.0,256.5,445.0,264.0,437.0,271.5,428.5,279.0,420.5,286.5,412.0,293.5,403.5,300.5,395.5,307.5,387.5,315.0,380.0,322.5,372.0,330.0" stroke="black" stroke-width="2" fill="none" />
<polyline points="382.0,329.5,390.0,322.5,397.5,315.0,406.0,308.0,413.5,301.0,421.5,294.0,429.5,287.0,437.0,279.5,445.0,272.0,452.5,264.5,460.5,256.5,469.0,248.5,477.5,240.5,485.5,232.5,493.0,224.0,501.0,216.5,509.0,209.0,517.0,202.0" stroke="black" stroke-width="2" fill="none" />
<polyline points="517.0,209.5,508.5,217.5,500.5,225.5,492.0,233.5,484.0,241.0,476.5,248.5,468.0,257.0,460.0,265.0,452.0,272.5,444.5,280.0,436.0,287.5,428.5,295.0,420.5,302.0,412.0,309.5,403.5,317.0,395.5,324.0,387.5,331.5" stroke="black" stroke-width="2" fill="none" />
<polyline points="385.0,331.0,393.5,330.5,402.0,330.5,410.5,330.0,418.5,329.0,426.5,328.5" stroke="black" stroke-width="2" fill="none" />
<polyline points="427.5,336.0,435.0,328.5,443.0,321.5,451.0,314.0,458.5,306.0,466.5,298.0,474.5,290.5,483.0,283.0,491.0,275.0,499.0,267.5,507.0,259.5,514.5,252.0" stroke="black" stroke-width="2" fill="none" />
<polyline points="514.5,245.0,507.0,252.5,498.5,260.0,490.5,267.5,482.0,275.0,474.0,282.5,467.0,290.5,460.0,297.5,452.5,305.0,444.0,313.0,436.5,320.5,428.5,328.0,420.5,335.0" stroke="black" stroke-width="2" fill="none" />
<polyline points="436.5,334.5,444.5,327.0,452.5,319.0,460.5,311.5,467.5,304.0,475.5,297.0,483.5,289.5,491.5,282.0,499.5,274.5,507.0,267.0,515.0,259.0" stroke="black" stroke-width="2" fill="none" />
<polyline points="515.5,266.0,508.0,273.5,500.5,281.5,492.5,289.5,484.5,297.0,476.5,305.0,469.0,312.5,461.0,320.0,452.5,328.0,444.5,336.0" stroke="black" stroke-width="2" fill="none" />
<polyline points="450.5,335.0,458.5,327.5,467.0,319.5,475.0,312.5,483.5,305.0,492.0,297.5,500.5,290.0,508.5,283.5,516.5,276.5" stroke="black" stroke-width="2" fill="none" />
<polyline points="517.5,283.5,509.0,290.5,500.5,298.0,492.0,305.5,483.5,312.5,474.5,320.0,466.5,327.0,458.0,334.5" stroke="black" stroke-width="2" fill="none" />
<polyline points="466.0,340.0,474.0,339.0,482.5,338.5" stroke="black" stroke-width="2" fill="none" />
<polyline points="492.5,337.5,501.0,330.0,510.0,322.5,518.0,315.0" stroke="black" stroke-width="2" fill="none" />
<polyline points="517.0,307.5,509.0,315.0,500.5,322.5,492.5,330.5,484.5,338.0" stroke="black" stroke-width="2" fill="none" />
<polyline points="477.0,337.5,484.5,330.5,492.5,323.0,500.0,315.5,508.0,308.0,516.0,300.5" stroke="black" stroke-width="2" fill="none" />
<polyline points="516.5,292.0,508.5,300.0,500.0,307.5,492.0,314.5,484.5,322.0,476.5,329.0,468.5,336.5" stroke="black" stroke-width="2" fill="none" />
<polyline points="467.0,315.5,458.5,316.0" stroke="black" stroke-width="2" fill="none" />
<polyline points="459.5,307.0,451.5,308.0" stroke="black" stroke-width="2" fill="none" />
<polyline points="444.5,306.0,436.5,306.0" stroke="black" stroke-width="2" fill="none" />
<polyline points="437.0,289.5,445.0,288.5" stroke="black" stroke-width="2" fill="none" />
<polyline points="443.5,281.5,435.5,282.5" stroke="black" stroke-width="2" fill="none" />
<polyline points="451.5,276.0,459.5,275.5" stroke="black" stroke-width="2" fill="none" />
<polyline points="467.5,282.5,475.0,282.0" stroke="black" stroke-width="2" fill="none" />
<polyline points="476.0,267.5,484.0,266.5" stroke="black" stroke-width="2" fill="none" />
<polyline points="468.0,290.0,460.0,290.5" stroke="black" stroke-width="2" fill="none" />
<polyline points="474.5,313.5,482.5,313.0" stroke="black" stroke-width="2" fill="none" />
<polyline points="498.5,321.5,506.5,321.0,514.5,320.5" stroke="black" stroke-width="2" fill="none" />
<polyline points="517.0,322.5,509.0,330.0,500.5,337.5" stroke="black" stroke-width="2" fill="none" />
<polyline points="506.0,336.5,514.5,336.5" stroke="black" stroke-width="2" fill="none" />
<polyline points="509.0,338.0,517.5,330.0" stroke="black" stroke-width="2" fill="none" />
<polyline points="506.0,331.5,498.5,332.0" stroke="black" stroke-width="2" fill="none" />
<polyline points="475.5,320.0,468.0,321.0,460.0,322.0,452.5,322.5,444.5,323.0" stroke="black" stroke-width="2" fill="none" />
<polyline points="437.5,331.0,445.0,330.5,452.5,330.0,459.5,329.0,467.0,328.5,475.0,327.5" stroke="black" stroke-width="2" fill="none" />
<polyline points="412.0,334.0,420.0,327.0,428.0,320.0,436.0,312.5,444.0,305.0,452.0,297.5,460.0,290.0,467.5,282.5,475.0,274.0,483.0,266.0,491.0,258.5,499.0,251.0,506.5,243.5,515.0,236.0" stroke="black" stroke-width="2" fill="none" />
<polyline points="515.5,227.5,507.5,234.5,499.5,242.0,491.5,250.5,483.0,258.5,475.0,266.5,467.5,274.5,460.5,282.0,452.5,289.5,444.5,297.5,437.0,305.0,429.0,312.5,421.0,319.5,412.5,326.5,404.5,333.5" stroke="black" stroke-width="2" fill="none" />
<polyline points="403.0,340.0,411.0,339.0,419.0,338.0,426.5,337.5,434.0,337.5,442.0,336.5,450.0,336.0,458.0,335.5" stroke="black" stroke-width="2" fill="none" />
<polyline points="443.0,295.5,435.5,296.0,427.5,296.0,419.5,296.5" stroke="black" stroke-width="2" fill="none" />
<polyline points="411.5,292.5,420.0,291.5,427.5,291.0" stroke="black" stroke-width="2" fill="none" />
<polyline points="418.5,283.0,410.5,283.5" stroke="black" stroke-width="2" fill="none" />
<polyline points="411.0,273.5,418.5,273.0" stroke="black" stroke-width="2" fill="none" />
<polyline points="410.5,268.0,418.5,267.5,427.0,267.5,434.5,267.5,442.5,267.5,450.0,267.5,458.0,267.0,466.0,266.5,474.0,265.5,482.5,264.5,490.5,264.0,498.5,263.5,506.0,263.0,514.0,262.5" stroke="black" stroke-width="2" fill="none" />
<polyline points="515.5,219.5,507.5,227.0,500.0,234.5,492.0,242.0,484.0,249.0,476.0,257.0,468.0,265.0,459.5,273.0,451.5,281.5,443.5,289.5,435.5,297.5,427.5,304.5,420.0,312.5,412.0,320.0,403.5,327.5,395.5,335.5" stroke="black" stroke-width="2" fill="none" />
<polyline points="402.5,322.5,410.5,322.0,419.0,321.0,426.5,320.0,433.5,320.0" stroke="black" stroke-width="2" fill="none" />
<polyline points="417.0,311.5,409.0,311.5,401.0,311.5" stroke="black" stroke-width="2" fill="none" />
<polyline points="402.5,305.0,410.5,305.0" stroke="black" stroke-width="2" fill="none" />
<polyline points="405.0,288.0,397.0,288.0" stroke="black" stroke-width="2" fill="none" />
<polyline points="397.0,285.0,404.5,284.5,412.5,284.0,420.5,283.5,429.0,283.5,437.0,283.0,444.5,283.0,452.0,283.5,460.0,283.5,468.5,283.0,476.5,282.0,484.5,281.5,492.0,281.0,500.0,280.0,507.5,279.0,515.5,278.0" stroke="black" stroke-width="2" fill="none" />
<polyline points="482.5,210.0,474.5,210.5" stroke="black" stroke-width="2" fill="none" />
<polyline points="460.0,203.5,467.5,203.0,475.5,202.0,483.5,201.5,491.0,200.5" stroke="black" stroke-width="2" fill="none" />
<polyline points="500.0,199.5,508.0,199.0" stroke="black" stroke-width="2" fill="none" />
<polyline points="508.0,188.5,499.5,196.0,491.5,204.0,483.0,211.0,475.5,217.5,467.5,225.0,460.0,232.0,452.0,238.5,444.5,246.0,437.0,253.5,429.5,261.0,421.0,269.0,413.0,276.5,405.0,284.5,397.0,292.0,389.0,299.0,381.0,307.0,373.0,314.5,365.0,321.5,357.0,329.0" stroke="black" stroke-width="2" fill="none" />
<polyline points="363.5,329.0,371.0,322.0,379.0,315.0,387.5,307.5,395.5,300.0,404.0,293.0,411.5,285.5,419.0,278.0,427.0,271.0,435.5,263.0,443.5,255.5,451.5,248.0,459.5,241.0,468.0,233.5,476.0,226.0,483.5,218.5,491.0,210.0,499.0,202.5,507.0,195.0,515.5,187.0" stroke="black" stroke-width="2" fill="none" />
<polyline points="501.5,189.5,493.5,197.0,485.0,204.5,477.0,212.0,468.5,219.0,461.0,225.5,452.5,233.5,444.0,241.0,436.0,248.0,427.5,256.0,420.0,263.5,412.0,271.0,404.0,278.5,396.5,286.0,388.5,293.5,381.0,300.5,372.5,307.5,364.5,314.5,356.0,322.0,348.0,329.0" stroke="black" stroke-width="2" fill="none" />
<polyline points="339.5,335.5,347.5,328.0,355.5,320.0,363.5,312.0,371.5,304.5,380.0,297.0,388.0,289.5" stroke="black" stroke-width="2" fill="none" />
<polyline points="381.0,293.5,389.0,293.5,396.5,292.5,404.5,292.5,412.5,292.0,420.0,291.5,428.0,292.0,435.5,292.0,443.5,291.5,451.0,291.0,458.5,290.5,466.5,290.0,474.5,289.0,483.0,288.0,491.0,286.5,499.0,285.5,507.0,284.5,514.5,284.0" stroke="black" stroke-width="2" fill="none" />
<polyline points="515.0,247.5,507.0,247.5,499.5,247.5,491.0,248.5,483.0,249.5,475.5,250.5,468.5,251.5,461.0,252.0,453.5,252.0,445.0,252.5,436.5,252.5,428.5,253.5,421.0,253.5" stroke="black" stroke-width="2" fill="none" />
<polyline points="420.0,246.0,427.5,239.0,435.0,231.0,443.0,223.5,451.0,215.5,458.5,208.5,467.0,200.5,475.5,193.0,483.5,185.5" stroke="black" stroke-width="2" fill="none" />
<polyline points="489.5,188.5,481.5,195.5,474.0,202.5,466.5,210.0,459.5,218.0,452.0,225.5,444.0,233.5,435.5,240.5,427.5,248.5,419.0,256.0,410.5,263.0" stroke="black" stroke-width="2" fill="none" />
<polyline points="412.0,259.5,419.5,259.5,427.5,259.5,435.0,259.5,442.0,259.5,450.0,259.0,458.0,259.0,466.0,259.0,474.0,258.5,481.5,257.5,489.0,257.0,497.5,256.0,505.5,255.5,514.0,255.0" stroke="black" stroke-width="2" fill="none" />
<polyline points="476.0,187.5,467.5,194.5,459.5,202.0,452.0,209.5,444.0,217.5,436.0,225.0,428.5,232.0,420.5,239.5" stroke="black" stroke-width="2" fill="none" />
<polyline points="418.5,235.0,427.0,235.0,435.5,235.0,444.0,235.0,451.5,234.5,459.5,234.0,467.5,233.5,475.5,232.5,483.5,232.0,491.5,231.5,499.5,231.0,507.5,230.5,515.5,229.5" stroke="black" stroke-width="2" fill="none" />
<polyline points="468.5,186.0,460.5,193.5,453.0,201.0,445.0,208.5,437.0,216.0,429.0,224.0,421.0,231.5" stroke="black" stroke-width="2" fill="none" />
<polyline points="412.5,232.5,420.0,224.5,428.0,217.5,436.0,210.0,444.0,202.5,452.0,196.0,460.5,189.0" stroke="black" stroke-width="2" fill="none" />
<polyline points="453.5,187.5,445.0,195.0,437.0,202.5,428.5,209.5,420.5,216.5,412.0,224.0" stroke="black" stroke-width="2" fill="none" />
<polyline points="413.0,222.5,420.5,222.0,428.5,220.5,436.5,219.5,445.0,219.0,453.0,218.5,460.5,217.5,467.5,216.5,474.5,216.0,482.5,215.5,490.5,214.5,498.5,214.5,506.5,214.5,515.0,214.0" stroke="black" stroke-width="2" fill="none" />
<polyline points="508.5,145.5,516.5,137.5" stroke="black" stroke-width="2" fill="none" />
<polyline points="517.5,129.0,509.0,137.0,501.0,144.5" stroke="black" stroke-width="2" fill="none" />
<polyline points="492.5,139.5,484.0,147.0" stroke="black" stroke-width="2" fill="none" />
<polyline points="501.0,122.5,509.0,115.5,517.0,108.0" stroke="black" stroke-width="2" fill="none" />
<polyline points="517.0,100.0,509.5,107.0,501.0,114.5" stroke="black" stroke-width="2" fill="none" />
<polyline points="469.0,90.0,461.0,98.0" stroke="black" stroke-width="2" fill="none" />
<polyline points="460.0,92.5,452.0,99.5" stroke="black" stroke-width="2" fill="none" />
<polyline points="453.0,108.0,445.0,115.5,437.0,123.0,429.0,130.0,420.5,137.0,411.5,144.5,403.5,152.0" stroke="black" stroke-width="2" fill="none" />
<polyline points="397.5,153.0,405.5,145.5,412.5,138.0,420.5,130.0,428.0,122.0,436.5,114.5" stroke="black" stroke-width="2" fill="none" />
<polyline points="419.5,99.5,427.0,92.0" stroke="black" stroke-width="2" fill="none" />
<polyline points="411.0,87.5,419.0,86.5,427.0,85.5,435.5,84.0,443.0,82.5,451.5,81.5,460.0,81.0,468.5,80.5,476.5,79.5,484.5,79.0,492.0,78.5,500.0,78.0,508.0,78.0,516.0,78.0" stroke="black" stroke-width="2" fill="none" />
<polyline points="486.0,48.5,494.0,41.0,501.5,33.5,509.0,25.5" stroke="black" stroke-width="2" fill="none" />
<polyline points="505.5,19.0,513.5,11.5" stroke="black" stroke-width="2" fill="none" />
<polyline points="499.5,3.0,491.5,11.0" stroke="black" stroke-width="2" fill="none" />
<polyline points="490.5,2.0,482.5,9.5" stroke="black" stroke-width="2" fill="none" />
<polyline points="484.0,20.0,476.5,27.5" stroke="black" stroke-width="2" fill="none" />
<polyline points="513.5,96.5,505.5,97.5,498.0,98.5,490.5,99.0,482.0,99.0,474.0,99.0,466.5,99.0,459.0,99.5,451.0,100.5,443.5,100.5,434.5,101.5,426.5,102.5,418.5,103.0,411.0,103.5" stroke="black" stroke-width="2" fill="none" />
<polyline points="412.0,110.0,419.5,109.5,427.5,109.0,435.5,108.5,443.5,108.0,451.5,107.5,459.0,107.0,467.0,106.0,475.0,105.0,482.5,104.5,490.0,103.5,498.5,103.5,506.5,103.5,514.5,103.0" stroke="black" stroke-width="2" fill="none" />
<polyline points="514.5,87.0,506.5,87.5,498.5,88.0,490.5,88.5,483.0,89.0,475.0,89.5,467.0,90.5,459.0,92.0,451.0,93.0,443.0,93.5,435.0,93.5,426.5,93.5,418.5,93.5,410.5,94.5" stroke="black" stroke-width="2" fill="none" />
<polyline points="410.0,79.0,418.0,78.5,426.0,77.5,434.0,77.0,442.5,75.5,451.0,75.0,459.0,74.0,467.0,73.5,475.0,73.5,483.0,73.0,490.5,72.5,498.5,72.0,506.5,71.0,515.0,71.0" stroke="black" stroke-width="2" fill="none" />
<polyline points="515.0,111.5,507.5,112.5,499.5,113.0,491.5,114.0,484.0,114.5,475.5,115.0,467.5,115.0,459.5,114.5,452.0,114.5,444.5,115.5,436.5,115.0,428.5,115.5,420.5,116.0,412.5,116.0,404.0,117.0" stroke="black" stroke-width="2" fill="none" />
<polyline points="395.5,124.5,403.5,124.0,412.0,123.5,420.0,123.5,428.5,123.0,436.5,122.5,444.0,122.5,452.0,122.0,460.5,121.5,469.0,120.5,477.0,120.5,485.0,119.5,492.5,119.0,500.5,118.5,508.0,118.0,516.0,117.5" stroke="black" stroke-width="2" fill="none" />
<polyline points="444.0,187.0,436.0,194.5,428.0,201.5,420.0,209.0,412.0,216.5" stroke="black" stroke-width="2" fill="none" />
<polyline points="404.5,216.5,412.5,208.5,420.5,200.5,428.5,193.0,436.0,185.5" stroke="black" stroke-width="2" fill="none" />
<polyline points="427.0,190.0,419.5,197.5,412.0,205.0,404.5,212.0" stroke="black" stroke-width="2" fill="none" />
<polyline points="403.5,213.0,411.5,213.0,419.5,213.0,427.5,213.0,435.0,212.5,443.0,212.5,451.0,212.0,459.0,211.5,467.5,211.0,476.0,210.5,484.0,209.5,492.0,209.0,500.0,208.5,508.0,207.5,515.5,206.5" stroke="black" stroke-width="2" fill="none" />
<polyline points="515.5,239.5,507.5,239.5,499.0,240.0,491.0,240.5,483.0,240.5,475.0,241.0,467.5,241.0,459.5,241.5,451.5,242.0,444.0,242.0,436.0,243.0,427.5,244.0,419.5,244.5" stroke="black" stroke-width="2" fill="none" />
<polyline points="412.5,228.5,420.0,228.5,427.5,228.5,435.5,228.0,443.5,227.0,451.5,226.0,459.0,226.0,466.5,225.5,474.5,225.0,482.5,224.0,490.5,223.5,498.5,223.0,506.5,222.5,514.5,222.5" stroke="black" stroke-width="2" fill="none" />
<polyline points="427.5,201.0,419.5,201.5" stroke="black" stroke-width="2" fill="none" />
<polyline points="420.0,179.5,411.5,186.5,403.5,194.0,396.0,201.5" stroke="black" stroke-width="2" fill="none" />
<polyline points="388.0,201.5,396.0,194.5,404.0,187.5,412.0,180.5" stroke="black" stroke-width="2" fill="none" />
<polyline points="403.5,178.0,395.0,185.5,387.5,193.0" stroke="black" stroke-width="2" fill="none" />
<polyline points="388.5,198.5,396.5,197.5,405.0,197.0,413.0,196.5,420.5,196.0,429.0,195.5,437.0,194.5,445.0,193.5,452.5,192.5,459.5,192.0,467.5,191.5,475.5,191.0,484.0,190.0,492.0,189.0,499.5,189.0,507.5,188.5,515.5,188.0" stroke="black" stroke-width="2" fill="none" />
<polyline points="411.0,129.5,403.0,137.0" stroke="black" stroke-width="2" fill="none" />
<polyline points="403.5,130.0,395.0,138.0,387.0,146.0,378.5,153.5" stroke="black" stroke-width="2" fill="none" />
<polyline points="371.5,153.0,380.0,145.5,388.5,138.0,396.5,131.0" stroke="black" stroke-width="2" fill="none" />
<polyline points="388.5,134.5,396.5,133.5,404.5,132.5,412.5,132.0,420.0,131.5,428.0,130.0,435.5,129.5,443.5,129.0,451.0,128.0,459.0,127.5,466.5,126.0,475.0,126.0,483.5,126.0,492.0,126.0,499.5,125.5,507.5,125.0,515.5,124.5" stroke="black" stroke-width="2" fill="none" />
<polyline points="395.5,147.0,387.5,154.0" stroke="black" stroke-width="2" fill="none" />
<polyline points="378.0,143.0,386.5,142.5,394.5,142.0,402.5,141.5,411.0,140.5,419.0,139.5,427.0,138.5,435.0,137.5,443.5,136.5,452.0,135.0,460.0,134.5,467.5,134.5,475.5,134.5,483.0,134.5,490.0,134.5,498.0,134.0,506.0,134.0,514.0,134.0" stroke="black" stroke-width="2" fill="none" />
<polyline points="516.0,63.0,507.5,64.5,499.5,65.5,491.5,66.0,483.5,67.0,475.5,66.5,468.0,66.5,460.0,66.5,452.0,66.0,444.0,66.5,436.5,66.0,429.0,66.5,421.0,67.0,413.0,67.5,405.0,68.0" stroke="black" stroke-width="2" fill="none" />
<polyline points="396.5,60.5,404.5,60.0,412.0,59.5,419.5,59.0,427.0,59.0,435.0,58.5,443.0,58.0,451.0,58.0,459.5,58.0,467.5,58.0,475.5,57.5,483.5,56.5,491.5,55.5,499.5,54.5,507.0,53.5,515.0,53.0" stroke="black" stroke-width="2" fill="none" />
<polyline points="515.0,43.5,507.5,44.5,499.5,45.5,491.5,46.5,483.5,47.5,475.5,48.0,467.5,48.5,460.0,49.5,452.0,50.0,444.5,51.0,436.5,51.5,429.0,51.5,420.5,52.0,412.5,52.0,404.0,52.0,396.0,52.5,388.5,53.5" stroke="black" stroke-width="2" fill="none" />
<polyline points="370.0,45.5,378.0,45.5,386.5,45.5,395.0,45.5,404.0,44.5,412.5,44.0,420.0,43.0,428.0,42.0,436.0,41.5,444.5,40.5,452.5,39.5,460.0,39.5,467.5,39.5,475.5,39.0,483.5,38.0,491.5,37.0,499.0,37.0,506.5,36.5,514.5,36.0" stroke="black" stroke-width="2" fill="none" />
<polyline points="373.5,148.5,365.5,156.0" stroke="black" stroke-width="2" fill="none" />
<polyline points="365.0,149.5,357.5,157.0" stroke="black" stroke-width="2" fill="none" />
<polyline points="355.5,153.5,363.5,153.0,371.0,152.5" stroke="black" stroke-width="2" fill="none" />
<polyline points="357.0,148.0,348.5,155.5" stroke="black" stroke-width="2" fill="none" />
<polyline points="349.5,148.5,357.0,148.5,365.0,149.0,372.5,149.0,380.5,149.0,388.0,149.0,395.5,148.5,403.5,148.0,411.5,147.5,419.5,147.5,427.0,147.0,435.0,146.0,443.0,145.0,450.5,144.5,458.0,144.5,466.0,143.5,474.0,143.0" stroke="black" stroke-width="2" fill="none" />
<polyline points="395.0,180.0,387.0,188.0,378.5,195.0" stroke="black" stroke-width="2" fill="none" />
<polyline points="373.5,193.5,381.5,186.5" stroke="black" stroke-width="2" fill="none" />
<polyline points="373.0,186.5,364.5,194.5" stroke="black" stroke-width="2" fill="none" />
<polyline points="363.0,193.5,371.0,193.0,380.0,193.0,388.5,192.5,396.5,192.0,404.5,191.5,413.0,191.5,420.5,190.5,428.0,190.0,436.0,189.5,444.0,189.0,451.5,188.5,459.5,188.0,467.5,187.5,475.5,187.0,483.5,186.5,491.0,186.0,499.0,185.0,507.0,184.0,514.5,183.5" stroke="black" stroke-width="2" fill="none" />
<polyline points="516.0,272.0,508.0,273.0,499.5,274.0,491.0,274.5,482.5,275.0,474.5,275.5,467.0,276.5,459.0,276.5,451.5,276.5,443.0,276.5,435.0,276.5,427.0,276.5,418.5,277.0,410.0,277.5,402.0,277.5" stroke="black" stroke-width="2" fill="none" />
<polyline points="396.5,269.0,388.0,270.0" stroke="black" stroke-width="2" fill="none" />
<polyline points="387.5,278.0,379.5,279.0" stroke="black" stroke-width="2" fill="none" />
<polyline points="381.0,297.5,389.0,297.5,396.0,297.5,404.0,297.0,411.5,296.5" stroke="black" stroke-width="2" fill="none" />
<polyline points="395.0,304.5,387.5,305.0" stroke="black" stroke-width="2" fill="none" />
<polyline points="372.5,297.5,365.0,305.5,357.0,312.5,348.5,320.0,340.5,327.5,333.0,335.5" stroke="black" stroke-width="2" fill="none" />
<polyline points="325.0,337.5,333.0,330.5,340.5,323.0,348.0,315.5,355.5,308.0" stroke="black" stroke-width="2" fill="none" />
<polyline points="356.5,300.5,364.5,300.0,372.5,299.5,380.5,299.0,388.5,299.0,396.0,298.5,404.0,298.5,411.5,298.0,419.0,297.5,426.5,298.0,434.5,297.5,442.5,296.5,450.5,296.5,459.0,296.5,467.0,296.5,475.0,296.0,483.0,295.0,491.0,293.5,499.0,292.5,507.0,292.0,514.5,291.5" stroke="black" stroke-width="2" fill="none" />
<polyline points="405.0,253.0,397.5,253.5" stroke="black" stroke-width="2" fill="none" />
<polyline points="372.5,275.5,364.5,276.0,357.0,276.0,349.0,276.5" stroke="black" stroke-width="2" fill="none" />
<polyline points="339.0,270.5,347.0,270.0,355.0,269.0,363.0,268.5,370.5,268.0,379.0,268.0" stroke="black" stroke-width="2" fill="none" />
<polyline points="381.0,305.0,372.5,305.5,364.5,305.5" stroke="black" stroke-width="2" fill="none" />
<polyline points="347.5,308.5,339.5,316.5,332.0,324.0,324.5,331.0,317.0,338.5" stroke="black" stroke-width="2" fill="none" />
<polyline points="308.5,338.5,316.5,330.5,325.0,323.0,332.5,315.5,341.0,307.5" stroke="black" stroke-width="2" fill="none" />
<polyline points="330.5,308.5,322.5,316.0,314.5,323.5,307.5,331.5,300.5,339.5" stroke="black" stroke-width="2" fill="none" />
<polyline points="293.0,336.5,301.5,329.5,309.5,322.5,318.0,315.0,326.0,307.0" stroke="black" stroke-width="2" fill="none" />
<polyline points="316.0,306.5,308.0,314.0,300.0,320.5,292.0,328.0,284.0,336.0" stroke="black" stroke-width="2" fill="none" />
<polyline points="275.5,336.5,283.0,328.5,291.0,320.5,298.5,312.5,306.5,305.0" stroke="black" stroke-width="2" fill="none" />
<polyline points="307.0,298.0,299.0,305.5,291.0,313.0,283.5,321.0,276.0,329.0,268.0,337.5" stroke="black" stroke-width="2" fill="none" />
<polyline points="258.5,336.5,266.5,329.0,274.5,321.5,282.5,314.0,290.0,307.0,297.5,299.5" stroke="black" stroke-width="2" fill="none" />
<polyline points="290.5,298.5,282.5,306.0,274.5,314.0,266.5,322.0,259.0,329.5,251.0,337.0" stroke="black" stroke-width="2" fill="none" />
<polyline points="242.5,336.0,251.0,328.5,259.0,321.5,267.0,314.5,275.0,307.0,283.0,299.0" stroke="black" stroke-width="2" fill="none" />
<polyline points="277.0,299.0,269.0,306.5,261.0,314.0,253.0,321.5,245.5,329.5,237.5,336.5" stroke="black" stroke-width="2" fill="none" />
<polyline points="228.5,336.0,236.5,328.5,244.5,321.5,251.5,314.5,259.5,307.0,267.5,299.5,275.5,292.5" stroke="black" stroke-width="2" fill="none" />
<polyline points="267.0,292.5,259.0,300.0,251.0,307.0,243.0,314.0,235.5,321.5,227.5,329.0,220.0,336.5" stroke="black" stroke-width="2" fill="none" />
<polyline points="213.5,336.5,221.5,328.0,229.5,321.0,237.5,314.0,245.5,306.5,253.5,299.0,261.0,291.5" stroke="black" stroke-width="2" fill="none" />
<polyline points="260.5,283.5,252.0,291.0,244.0,298.5,236.0,306.0,227.5,313.5,219.5,321.0,211.5,328.5,203.5,336.0" stroke="black" stroke-width="2" fill="none" />
<polyline points="196.5,336.5,204.0,329.0,211.5,321.5,219.5,313.5,227.5,306.0,235.5,298.5,243.5,291.0,251.5,283.5" stroke="black" stroke-width="2" fill="none" />
<polyline points="252.0,275.5,244.5,283.0,237.0,290.0,229.0,297.0,220.5,304.5,212.0,312.0,204.0,320.5,196.0,329.0,187.5,337.0" stroke="black" stroke-width="2" fill="none" />
<polyline points="178.5,336.5,186.5,329.5,194.0,321.5,202.0,313.5,210.5,306.0,219.0,299.0,227.5,291.0,236.0,283.0,244.0,276.0" stroke="black" stroke-width="2" fill="none" />
<polyline points="234.5,276.0,226.5,283.0,219.5,290.0,212.0,297.0,204.5,305.0,196.5,312.5,188.5,320.0,180.5,327.5,172.0,335.0" stroke="black" stroke-width="2" fill="none" />
<polyline points="166.0,334.5,173.5,326.5,181.5,318.5,189.0,311.0,196.5,303.5,204.5,296.0,211.5,288.5,219.5,281.5,227.0,274.0,235.0,266.5" stroke="black" stroke-width="2" fill="none" />
<polyline points="226.5,269.0,218.0,276.5,210.0,284.0,202.5,291.5,195.5,298.0,188.0,305.0,180.0,312.0,172.0,319.0,164.0,326.0,156.0,333.5" stroke="black" stroke-width="2" fill="none" />
<polyline points="148.5,332.5,156.5,326.0,164.5,318.5,171.5,311.5,179.0,304.0,186.5,296.5,195.0,289.0,202.5,282.0,210.0,274.5,218.0,267.0" stroke="black" stroke-width="2" fill="none" />
<polyline points="219.0,259.5,211.0,267.0,203.5,275.0,195.5,282.5,188.0,290.0,180.0,297.0,171.5,304.5,163.5,312.0,155.0,319.0,146.5,326.0,138.0,333.0" stroke="black" stroke-width="2" fill="none" />
<polyline points="130.5,333.5,138.5,326.0,146.5,319.0,154.5,312.0,162.0,304.5,170.0,297.0,178.0,289.5,186.0,281.5,194.0,274.0,202.0,267.0,210.0,259.5" stroke="black" stroke-width="2" fill="none" />
<polyline points="204.0,259.0,196.0,267.0,187.5,275.0,179.0,282.5,171.0,290.5,163.5,298.0,155.5,305.0,148.0,312.0,140.5,319.0,133.0,326.5,125.0,334.5" stroke="black" stroke-width="2" fill="none" />
<polyline points="115.0,335.5,123.0,328.5,131.0,320.5,139.0,313.0,147.5,305.0,155.5,297.0,163.0,289.5,171.0,282.0,179.0,274.5,187.0,267.5,194.5,260.0" stroke="black" stroke-width="2" fill="none" />
<polyline points="186.5,260.5,178.0,268.5,170.5,275.5,162.5,283.0,155.0,290.0,147.0,297.5,139.5,304.5,132.0,312.0,124.0,319.5,116.5,327.0,108.5,334.5" stroke="black" stroke-width="2" fill="none" />
<polyline points="99.0,334.0,107.0,326.5,115.0,318.5,123.0,311.5,130.5,304.5,138.5,297.0,146.5,289.5,154.5,282.0,162.0,274.5,170.0,266.5,178.0,259.0" stroke="black" stroke-width="2" fill="none" />
<polyline points="169.5,258.0,162.0,265.5,154.5,272.5,146.5,280.5,139.0,288.5,131.0,295.5,123.0,303.5,115.0,311.5,106.5,319.5,98.5,327.0,90.5,335.0" stroke="black" stroke-width="2" fill="none" />
<polyline points="83.5,335.0,91.5,327.5,99.5,320.0,107.5,312.5,115.5,305.0,123.0,298.0,131.0,290.0,139.5,282.5,148.0,275.5,156.5,268.5,164.5,261.0" stroke="black" stroke-width="2" fill="none" />
<polyline points="157.0,259.0,149.0,266.0,140.5,273.5,132.0,281.0,123.0,289.5,114.5,297.0,106.5,304.5,98.0,311.5,90.0,319.0,82.0,326.5,74.0,334.0" stroke="black" stroke-width="2" fill="none" />
<polyline points="67.5,334.0,76.0,326.0,83.5,319.0,92.0,312.0,100.5,304.5,109.0,296.5,116.5,289.5,124.0,282.5,132.0,275.0,140.0,267.5,148.0,260.0" stroke="black" stroke-width="2" fill="none" />
<polyline points="140.0,261.0,131.5,269.0,123.5,276.5,115.5,284.0,108.0,291.0,100.0,298.0,91.5,305.5,82.5,313.0,74.0,320.5,65.0,327.5,57.0,335.0" stroke="black" stroke-width="2" fill="none" />
<polyline points="52.0,335.5,60.0,328.5,68.0,320.5,75.5,313.5,84.0,306.5,92.5,298.5,100.5,291.5,108.5,284.0,117.0,276.0,125.5,268.5,133.5,261.0" stroke="black" stroke-width="2" fill="none" />
<polyline points="124.5,259.0,117.0,266.0,109.0,274.0,101.5,282.0,93.0,290.0,84.5,298.0,76.0,305.5,67.5,313.0,59.0,320.0,50.5,327.5,42.5,335.0" stroke="black" stroke-width="2" fill="none" />
<polyline points="34.5,335.5,42.5,328.5,50.5,321.0,59.0,313.0,67.0,305.0,75.5,297.0,84.0,289.0,92.5,281.0,100.5,273.0,108.0,265.0,116.0,257.5" stroke="black" stroke-width="2" fill="none" />
<polyline points="110.0,260.0,101.5,268.0,93.5,276.0,85.0,283.0,77.5,290.0,69.0,297.5,60.5,304.5,51.5,312.0,42.5,319.5,34.0,327.0,26.0,334.0" stroke="black" stroke-width="2" fill="none" />
<polyline points="17.5,333.0,26.0,325.5,34.0,318.5,42.0,311.5,50.0,304.0,58.5,296.5,66.5,289.5,74.5,281.5,83.0,274.0,92.0,266.5,100.0,259.0" stroke="black" stroke-width="2" fill="none" />
<polyline points="89.5,258.0,82.5,266.0,75.0,273.0,67.5,280.5,59.5,288.5,52.0,296.5,44.5,303.5,36.5,311.0,28.5,318.5,20.5,326.5,13.0,334.0" stroke="black" stroke-width="2" fill="none" />
<polyline points="4.5,336.0,13.0,328.5,21.0,321.0,29.5,313.5,37.5,305.5,45.5,297.5,54.0,289.5,62.0,282.0,70.0,274.0,78.0,266.5,86.5,259.0" stroke="black" stroke-width="2" fill="none" />
<polyline points="75.5,259.0,67.5,266.5,59.5,273.5,51.0,281.0,43.0,289.5,35.0,297.5,27.5,305.0,19.5,312.0,12.0,319.5,4.5,327.0" stroke="black" stroke-width="2" fill="none" />
<polyline points="4.5,326.0,12.0,325.5,19.5,325.5,27.5,325.5,35.0,325.0,42.5,324.5,50.5,324.5,59.0,324.0,67.5,323.5,75.5,322.5,84.0,322.0,91.5,322.0,99.5,321.5,108.0,320.5,116.5,319.5,125.0,318.5,133.5,317.5,141.5,316.5,149.0,315.0,157.0,313.5,165.0,312.5,173.0,312.5,181.0,311.5,189.0,311.0,197.0,311.5,205.0,311.0,213.5,310.5,221.5,310.5,229.5,310.0,237.0,309.5,245.0,309.0,253.0,309.0,261.0,308.5,269.0,308.0,277.5,307.5,285.0,307.5,293.0,308.0,300.5,308.0,308.0,308.5,315.5,308.5,323.5,308.0,331.5,307.5,340.0,307.0,347.5,306.0,355.0,304.5,362.0,303.5,370.0,302.0,378.0,301.0,385.5,300.0,393.0,299.5,400.5,299.0,408.5,298.5,417.0,298.0,425.5,297.0,434.0,296.5,442.0,295.5,450.5,295.5,458.5,295.0,467.0,295.0,476.0,294.5,484.5,294.0,492.0,293.5,500.0,293.0,508.0,292.5,516.0,291.5" stroke="black" stroke-width="2" fill="none" />
<polyline points="411.5,172.0,403.5,173.0,395.5,174.0,387.5,174.5,379.5,175.5" stroke="black" stroke-width="2" fill="none" />
<polyline points="373.5,180.5,365.5,188.0" stroke="black" stroke-width="2" fill="none" />
<polyline points="364.5,188.5,372.5,187.5,380.0,187.5,387.0,187.5,394.5,188.0,402.0,188.0,410.5,187.5,418.5,187.5,426.5,187.5,435.0,187.0,443.0,186.5,450.5,186.0,458.5,185.5,466.5,184.5,475.5,183.5,483.0,183.5,491.0,182.5,498.5,182.0,506.0,182.0,514.0,182.0" stroke="black" stroke-width="2" fill="none" />
<polyline points="365.0,181.5,357.0,188.5" stroke="black" stroke-width="2" fill="none" />
<polyline points="356.0,180.0,348.0,187.0" stroke="black" stroke-width="2" fill="none" />
<polyline points="348.5,181.0,340.5,188.5" stroke="black" stroke-width="2" fill="none" />
<polyline points="338.5,180.0,331.0,188.0" stroke="black" stroke-width="2" fill="none" />
<polyline points="323.5,186.5,331.5,179.0" stroke="black" stroke-width="2" fill="none" />
<polyline points="325.0,178.0,317.0,185.5" stroke="black" stroke-width="2" fill="none" />
<polyline points="315.5,177.5,307.5,185.0" stroke="black" stroke-width="2" fill="none" />
<polyline points="301.5,185.5,309.0,184.5,316.5,184.0,324.0,183.0,331.5,182.0,339.5,181.5,347.0,181.5" stroke="black" stroke-width="2" fill="none" />
<polyline points="308.5,176.5,300.5,185.0,292.5,193.0" stroke="black" stroke-width="2" fill="none" />
<polyline points="301.0,194.5,309.0,194.5,317.0,193.5,325.0,193.0,333.0,193.5,341.0,193.0,349.5,192.5,357.5,192.5,365.5,192.0,373.0,191.5" stroke="black" stroke-width="2" fill="none" />
<polyline points="401.0,254.5,393.5,255.5,385.5,256.0,377.5,256.5,369.5,257.5,361.5,259.0,353.5,260.0,345.5,261.0,337.0,262.0,329.0,262.5,321.0,263.0" stroke="black" stroke-width="2" fill="none" />
<polyline points="314.0,255.0,322.0,254.0,329.5,253.0,337.5,252.5,346.0,252.0,354.0,251.0,362.0,250.0,370.0,249.0,378.0,248.5,386.5,248.5" stroke="black" stroke-width="2" fill="none" />
<polyline points="402.5,240.0,394.0,240.5,386.0,240.5,378.0,241.0,370.0,242.0,362.5,243.0,355.5,243.5,348.0,244.0,340.0,244.5,332.0,245.5,324.0,245.5,315.5,246.0,307.5,246.5" stroke="black" stroke-width="2" fill="none" />
<polyline points="307.5,238.5,315.5,238.5,324.5,238.0,332.5,237.5,341.0,236.0,349.0,235.5,356.5,235.0,364.0,234.0,372.0,233.5,380.0,233.0,387.5,232.0,395.5,232.0,403.5,232.0,411.5,232.0" stroke="black" stroke-width="2" fill="none" />
<polyline points="404.5,222.5,396.5,223.0,388.5,223.0,380.0,224.0,372.5,224.5,364.0,225.0,356.0,226.0,348.5,227.0,340.5,228.0,333.0,228.5,325.0,229.0,317.0,229.5,309.0,231.0,301.0,231.5" stroke="black" stroke-width="2" fill="none" />
<polyline points="301.0,220.5,310.0,220.5,318.0,220.0,326.0,220.0,333.5,219.5,341.5,219.0,349.5,218.5,357.5,217.5,365.5,216.5,373.0,216.0,381.0,215.0,389.0,214.5,397.0,214.0,405.0,213.5" stroke="black" stroke-width="2" fill="none" />
<polyline points="297.0,180.0,289.5,187.0,282.0,194.5" stroke="black" stroke-width="2" fill="none" />
<polyline points="276.0,194.5,284.0,193.5,292.5,193.0,301.0,192.5" stroke="black" stroke-width="2" fill="none" />
<polyline points="284.0,188.0,276.0,195.0,267.5,201.5" stroke="black" stroke-width="2" fill="none" />
<polyline points="267.0,197.0,259.0,204.0,251.0,211.0" stroke="black" stroke-width="2" fill="none" />
<polyline points="244.5,207.5,252.0,207.0,259.5,206.5" stroke="black" stroke-width="2" fill="none" />
<polyline points="259.5,201.0,267.0,200.0,275.0,199.5" stroke="black" stroke-width="2" fill="none" />
<polyline points="283.0,204.0,291.5,203.5,299.5,203.0,307.5,202.5,316.0,203.0,324.0,202.5,332.0,202.0,340.0,201.5,348.0,201.0,356.5,200.5,364.5,199.5,372.5,199.0,380.0,198.5,387.5,198.0" stroke="black" stroke-width="2" fill="none" />
<polyline points="365.0,170.0,356.0,170.5,347.5,171.0,339.5,171.0,331.5,171.5,323.5,172.0,315.0,173.0,306.5,173.0,299.0,173.5" stroke="black" stroke-width="2" fill="none" />
<polyline points="301.0,157.0,308.5,156.5,316.0,156.5,323.5,156.0,331.0,155.5,338.5,155.0,347.0,154.5,356.0,154.5" stroke="black" stroke-width="2" fill="none" />
<polyline points="306.0,146.0,298.0,153.5" stroke="black" stroke-width="2" fill="none" />
<polyline points="297.0,147.0,289.0,155.0" stroke="black" stroke-width="2" fill="none" />
<polyline points="284.0,155.0,292.0,154.0,299.5,153.0,307.5,152.0" stroke="black" stroke-width="2" fill="none" />
<polyline points="292.5,146.0,284.0,153.5" stroke="black" stroke-width="2" fill="none" />
<polyline points="276.5,152.0,284.5,151.0,292.5,150.5,300.5,149.5,308.0,149.0" stroke="black" stroke-width="2" fill="none" />
<polyline points="285.0,139.5,277.0,146.5" stroke="black" stroke-width="2" fill="none" />
<polyline points="275.5,141.5,267.0,149.0" stroke="black" stroke-width="2" fill="none" />
<polyline points="267.0,146.5,274.5,146.0,283.0,145.5" stroke="black" stroke-width="2" fill="none" />
<polyline points="282.0,139.5,274.0,140.0,266.0,140.5" stroke="black" stroke-width="2" fill="none" />
<polyline points="259.0,139.5,267.0,132.5" stroke="black" stroke-width="2" fill="none" />
<polyline points="257.0,131.5,249.5,138.5" stroke="black" stroke-width="2" fill="none" />
<polyline points="251.5,138.0,260.0,137.5,268.0,137.0" stroke="black" stroke-width="2" fill="none" />
<polyline points="268.5,133.0,261.0,134.0,253.5,134.5" stroke="black" stroke-width="2" fill="none" />
<polyline points="243.5,130.5,251.5,123.0" stroke="black" stroke-width="2" fill="none" />
<polyline points="244.0,124.5,235.5,132.0" stroke="black" stroke-width="2" fill="none" />
<polyline points="237.0,130.5,245.0,130.5,252.5,129.5" stroke="black" stroke-width="2" fill="none" />
<polyline points="252.5,124.5,244.5,125.5,237.0,126.0" stroke="black" stroke-width="2" fill="none" />
<polyline points="235.0,116.0,227.0,123.5" stroke="black" stroke-width="2" fill="none" />
<polyline points="220.0,124.0,228.5,116.5" stroke="black" stroke-width="2" fill="none" />
<polyline points="228.0,108.0,220.0,115.0" stroke="black" stroke-width="2" fill="none" />
<polyline points="218.0,119.0,226.0,118.0,234.0,117.0,242.0,116.5" stroke="black" stroke-width="2" fill="none" />
<polyline points="221.0,106.5,213.0,114.0" stroke="black" stroke-width="2" fill="none" />
<polyline points="212.0,107.0,204.0,115.0" stroke="black" stroke-width="2" fill="none" />
<polyline points="202.5,108.5,195.0,116.0" stroke="black" stroke-width="2" fill="none" />
<polyline points="194.5,110.0,186.5,117.5" stroke="black" stroke-width="2" fill="none" />
<polyline points="187.5,123.0,179.5,131.0" stroke="black" stroke-width="2" fill="none" />
<polyline points="178.0,123.0,170.5,130.5" stroke="black" stroke-width="2" fill="none" />
<polyline points="170.0,123.5,162.0,130.5" stroke="black" stroke-width="2" fill="none" />
<polyline points="157.0,117.5,164.5,117.0,171.5,116.5,179.0,116.0,187.0,115.0,195.0,114.5,203.5,114.0" stroke="black" stroke-width="2" fill="none" />
<polyline points="204.5,125.0,197.0,132.5,189.0,140.0" stroke="black" stroke-width="2" fill="none" />
<polyline points="193.5,147.0,201.0,139.5,209.0,132.0" stroke="black" stroke-width="2" fill="none" />
<polyline points="210.0,123.5,202.0,131.5,194.5,139.0,187.0,146.5" stroke="black" stroke-width="2" fill="none" />
<polyline points="203.5,146.0,211.5,138.5,219.5,131.0" stroke="black" stroke-width="2" fill="none" />
<polyline points="219.5,122.5,227.5,122.0,235.5,121.5" stroke="black" stroke-width="2" fill="none" />
<polyline points="195.0,125.5,186.5,132.5,179.5,139.5" stroke="black" stroke-width="2" fill="none" />
<polyline points="179.5,113.0,187.5,105.0" stroke="black" stroke-width="2" fill="none" />
<polyline points="179.5,104.5,171.5,112.5" stroke="black" stroke-width="2" fill="none" />
<polyline points="171.5,107.5,163.0,115.5" stroke="black" stroke-width="2" fill="none" />
<polyline points="157.0,115.0,165.5,108.0" stroke="black" stroke-width="2" fill="none" />
<polyline points="156.5,107.0,149.0,114.5" stroke="black" stroke-width="2" fill="none" />
<polyline points="149.5,108.5,141.0,116.0" stroke="black" stroke-width="2" fill="none" />
<polyline points="140.0,108.5,132.0,116.0,124.0,123.5" stroke="black" stroke-width="2" fill="none" />
<polyline points="130.5,125.5,138.5,125.0,147.0,124.5,155.5,123.5,164.5,122.5,172.5,121.5,180.5,121.0,188.0,121.0,195.5,120.0,203.0,119.5,211.0,119.5,219.0,119.0,226.5,119.0" stroke="black" stroke-width="2" fill="none" />
<polyline points="261.0,184.5,253.0,186.0,245.0,186.5,237.0,187.0,229.0,188.0,220.5,188.5,212.0,188.5,204.0,189.0,196.0,189.5,187.5,189.5,179.0,189.5,170.0,190.0,161.5,190.5" stroke="black" stroke-width="2" fill="none" />
<polyline points="163.5,184.0,171.0,183.5,178.5,182.5,186.5,182.0,195.0,181.0,203.0,180.0,212.0,179.5,220.5,178.5,229.0,177.5,237.0,176.5,245.0,175.5,254.0,175.5,262.0,175.0,270.0,175.0" stroke="black" stroke-width="2" fill="none" />
<polyline points="283.0,180.5,291.0,180.0,298.5,180.0,306.5,180.0,314.5,180.0,322.0,180.0,330.0,179.5,337.5,179.5,345.0,179.5,353.0,178.5,361.0,178.0,369.5,177.5,378.0,177.5,386.5,177.0,394.5,176.0,402.5,175.5,411.0,174.0,418.5,173.0,426.5,172.0,434.5,170.5,442.5,170.0,451.0,170.0,459.0,169.5,467.0,169.0,475.0,168.5,483.0,168.0,491.0,167.5,499.0,167.0,507.0,166.5,515.5,166.0" stroke="black" stroke-width="2" fill="none" />
<polyline points="396.0,206.5,388.0,206.5,379.5,207.0,371.5,207.5,363.5,208.0,356.5,208.5,349.0,208.5,341.5,209.5,333.5,210.5,325.0,211.0,316.5,211.5,308.0,212.5,299.5,213.0,291.0,213.5" stroke="black" stroke-width="2" fill="none" />
<polyline points="299.5,189.0,292.0,189.5,284.0,190.5,276.0,191.5,268.0,192.0" stroke="black" stroke-width="2" fill="none" />
<polyline points="261.0,198.0,268.5,198.0,277.0,197.5" stroke="black" stroke-width="2" fill="none" />
<polyline points="251.0,203.0,243.0,210.5,235.5,217.5,227.5,225.0" stroke="black" stroke-width="2" fill="none" />
<polyline points="227.5,220.0,219.5,228.0" stroke="black" stroke-width="2" fill="none" />
<polyline points="220.5,221.0,212.5,228.5,203.5,235.5" stroke="black" stroke-width="2" fill="none" />
<polyline points="204.0,228.5,196.0,236.0" stroke="black" stroke-width="2" fill="none" />
<polyline points="195.5,229.5,187.5,236.5" stroke="black" stroke-width="2" fill="none" />
<polyline points="185.5,229.0,177.5,237.0" stroke="black" stroke-width="2" fill="none" />
<polyline points="171.0,237.0,179.5,229.5" stroke="black" stroke-width="2" fill="none" />
<polyline points="171.0,228.0,162.5,235.5" stroke="black" stroke-width="2" fill="none" />
<polyline points="157.5,235.5,165.5,228.0" stroke="black" stroke-width="2" fill="none" />
<polyline points="170.5,221.0,178.5,221.0,186.5,220.5,194.5,220.5,202.0,220.5,209.5,220.5,218.0,220.0,226.0,219.5,233.5,219.0" stroke="black" stroke-width="2" fill="none" />
<polyline points="237.0,218.5,245.0,217.5" stroke="black" stroke-width="2" fill="none" />
<polyline points="243.0,210.5,251.5,210.0,260.0,210.0" stroke="black" stroke-width="2" fill="none" />
<polyline points="251.0,211.0,243.5,211.5,236.0,212.0,229.0,212.5,221.0,212.5" stroke="black" stroke-width="2" fill="none" />
<polyline points="209.5,226.0,217.5,225.5,226.0,225.0,234.0,225.0" stroke="black" stroke-width="2" fill="none" />
<polyline points="226.0,204.0,218.0,204.0,210.5,204.5,202.5,205.0,195.0,205.5,187.0,205.5,179.0,206.0,170.5,206.5" stroke="black" stroke-width="2" fill="none" />
<polyline points="174.5,198.0,182.5,197.5,189.5,197.0,197.0,197.0,204.5,197.0,212.0,196.5,219.5,196.0,227.5,195.5,235.5,195.0,243.5,194.0" stroke="black" stroke-width="2" fill="none" />
<polyline points="211.5,211.5,204.0,212.0,196.0,212.5,188.0,213.0,180.0,213.5,172.0,214.0,164.0,214.5" stroke="black" stroke-width="2" fill="none" />
<polyline points="157.0,226.5,148.5,234.0" stroke="black" stroke-width="2" fill="none" />
<polyline points="148.5,229.0,140.5,236.5" stroke="black" stroke-width="2" fill="none" />
<polyline points="132.5,235.0,141.0,227.5" stroke="black" stroke-width="2" fill="none" />
<polyline points="141.5,219.5,133.5,227.0,125.5,234.5" stroke="black" stroke-width="2" fill="none" />
<polyline points="116.0,234.5,124.5,227.0,132.5,219.0" stroke="black" stroke-width="2" fill="none" />
<polyline points="126.0,217.0,117.5,224.5,110.0,232.0" stroke="black" stroke-width="2" fill="none" />
<polyline points="115.5,234.0,123.5,233.0,132.0,232.5,139.5,232.0,147.0,232.0,155.0,231.5,163.5,231.5,171.5,231.0,180.0,231.0,188.0,231.0,196.5,231.0,204.5,230.0,212.5,229.5" stroke="black" stroke-width="2" fill="none" />
<polyline points="150.0,170.5,158.0,170.0,165.5,170.0,173.5,170.5,181.5,170.5,189.0,170.5,196.5,170.5,203.5,170.0,211.0,170.0,219.0,169.0,227.0,168.5,234.5,168.0,243.0,168.0,251.5,167.0,259.5,166.5,267.5,166.0,275.5,166.0" stroke="black" stroke-width="2" fill="none" />
<polyline points="213.5,74.5,205.0,75.5,196.5,76.5,188.0,77.5,179.5,78.5,171.5,79.0,164.0,79.0" stroke="black" stroke-width="2" fill="none" />
<polyline points="131.5,108.0,123.5,115.5,115.5,123.5,107.0,131.0,99.0,138.5,91.5,146.0,83.5,153.5,75.0,161.0,67.0,168.5,58.5,176.0,50.5,183.5,43.0,191.0,35.5,198.5,27.5,206.0,19.5,213.5,11.5,220.5" stroke="black" stroke-width="2" fill="none" />
<polyline points="5.0,222.5,13.0,222.0,20.5,221.0,28.5,220.0,36.0,219.0,44.0,218.0,51.0,217.5,58.5,217.5,66.0,216.5,73.5,215.5,81.5,215.0,90.0,215.0,98.5,215.0,107.0,214.5,115.5,214.0,124.0,213.5,132.0,213.5,140.0,213.5,148.5,213.5,156.5,214.0" stroke="black" stroke-width="2" fill="none" />
<polyline points="124.5,209.0,116.5,216.5,109.0,224.5,101.0,233.0" stroke="black" stroke-width="2" fill="none" />
<polyline points="92.5,233.0,100.5,224.5,108.5,216.5,116.5,208.5" stroke="black" stroke-width="2" fill="none" />
<polyline points="116.5,203.5,108.0,211.0,100.0,218.5,92.0,226.0" stroke="black" stroke-width="2" fill="none" />
<polyline points="91.5,233.0,99.5,232.5" stroke="black" stroke-width="2" fill="none" />
<polyline points="114.5,226.5,123.0,226.0,131.0,225.0,139.0,224.5" stroke="black" stroke-width="2" fill="none" />
<polyline points="122.5,215.5,115.0,216.0" stroke="black" stroke-width="2" fill="none" />
<polyline points="108.5,205.0,100.5,212.0,92.0,219.5,84.0,227.5" stroke="black" stroke-width="2" fill="none" />
<polyline points="84.5,220.0,92.5,219.0" stroke="black" stroke-width="2" fill="none" />
<polyline points="98.5,216.0,107.0,215.5" stroke="black" stroke-width="2" fill="none" />
<polyline points="100.0,197.0,92.0,204.0,83.5,211.0,76.0,218.5,68.0,226.0" stroke="black" stroke-width="2" fill="none" />
<polyline points="76.0,224.0,84.0,217.0,92.0,209.5,100.0,202.0,108.0,195.0" stroke="black" stroke-width="2" fill="none" />
<polyline points="98.0,188.0,90.5,195.5,83.5,202.5,75.5,209.5,68.0,217.0,60.0,224.0" stroke="black" stroke-width="2" fill="none" />
<polyline points="57.5,224.0,66.0,224.0,74.5,224.0,83.0,223.5,91.5,223.0" stroke="black" stroke-width="2" fill="none" />
<polyline points="76.5,209.0,68.5,209.5" stroke="black" stroke-width="2" fill="none" />
<polyline points="67.5,201.5,75.5,201.0" stroke="black" stroke-width="2" fill="none" />
<polyline points="89.5,178.5,82.0,185.5,75.0,192.5,67.5,200.0,59.5,207.5,51.5,215.0,44.0,223.0" stroke="black" stroke-width="2" fill="none" />
<polyline points="51.5,224.5,59.0,217.5,67.0,210.0,74.5,202.5,82.5,195.0,91.0,188.0,99.0,180.5" stroke="black" stroke-width="2" fill="none" />
<polyline points="91.5,170.0,83.5,177.5,75.5,184.5,67.5,192.5,59.5,199.5,51.5,207.0,44.5,215.0,36.5,223.0" stroke="black" stroke-width="2" fill="none" />
<polyline points="34.0,226.0,41.5,225.5,49.5,224.5" stroke="black" stroke-width="2" fill="none" />
<polyline points="52.5,228.0,60.5,228.0,69.0,227.5,76.5,227.0,84.5,226.5,92.0,226.0,100.5,225.5,108.5,225.5,117.0,225.5,125.5,226.0,133.0,225.5,141.0,225.5,148.5,224.5,156.0,223.5,163.0,222.5,171.0,221.5,179.0,221.0,187.5,220.0,196.0,219.5,204.5,219.0,212.5,218.5,220.5,217.5" stroke="black" stroke-width="2" fill="none" />
<polyline points="148.0,163.5,156.0,163.0,164.5,163.0,173.0,163.0,181.5,162.5,189.5,162.5,197.0,162.0,205.0,161.0,213.0,160.5,220.5,160.0,229.0,160.0,236.5,159.5,244.0,159.5,251.5,159.0,259.0,158.5,266.5,158.0,275.0,157.5,284.0,157.5,292.5,156.5" stroke="black" stroke-width="2" fill="none" />
<polyline points="284.5,147.5,277.0,147.5,269.5,148.5,261.5,149.5,253.0,150.0,244.5,150.5,236.0,151.5,227.5,152.0,219.0,152.5,211.0,153.5,204.0,154.0,196.5,154.5,189.0,155.5,181.5,155.5,173.5,156.0,165.5,156.0,157.0,156.0,149.0,156.0,140.5,156.5" stroke="black" stroke-width="2" fill="none" />
<polyline points="139.5,147.5,147.5,147.5,155.5,147.5,164.0,147.5,172.5,147.5,181.0,147.0,188.5,146.5,196.0,146.0,204.0,145.0,211.0,143.5,219.0,143.0,227.5,142.5,235.5,142.0,243.5,141.5,252.0,142.0,260.0,141.5,268.0,141.0" stroke="black" stroke-width="2" fill="none" />
<polyline points="252.0,133.5,244.5,133.5,236.5,134.5,227.5,135.0,219.5,136.0,212.0,137.0,204.0,138.0,196.5,138.0,188.5,138.5,180.5,138.5,172.5,139.0,164.5,139.5,156.0,140.0,148.0,140.0,139.5,140.0,131.0,140.5,123.0,140.5" stroke="black" stroke-width="2" fill="none" />
<polyline points="122.5,132.5,130.5,132.0,139.0,131.5,147.5,131.5,155.5,132.0,164.0,131.5,172.0,131.0,180.5,130.5,188.5,130.5,196.0,130.0,204.0,129.5,212.0,128.5,220.5,128.0,229.0,127.5,237.0,126.5,245.0,125.5" stroke="black" stroke-width="2" fill="none" />
<polyline points="125.0,107.0,116.5,114.5,108.5,122.0,100.5,130.0,92.0,138.0,84.0,146.0,76.0,153.5,67.5,161.5,59.0,169.5,50.5,177.5,42.5,185.0,34.5,192.5,27.0,199.0,19.5,206.0,11.5,213.5,4.0,220.5" stroke="black" stroke-width="2" fill="none" />
<polyline points="4.5,218.5,12.5,217.5,20.5,217.0,28.5,216.0" stroke="black" stroke-width="2" fill="none" />
<polyline points="29.0,224.0,37.5,216.0,45.0,208.0,52.5,200.5,60.0,193.5,68.0,185.5,76.5,178.0,85.0,170.5,93.0,164.0,101.0,156.5" stroke="black" stroke-width="2" fill="none" />
<polyline points="100.5,146.5,92.5,154.5,85.0,162.5,77.5,170.0,69.5,177.0,61.5,184.5,53.5,192.5,46.0,199.5,38.0,207.0,29.5,215.0,21.5,223.0" stroke="black" stroke-width="2" fill="none" />
<polyline points="20.0,206.5,12.0,207.0" stroke="black" stroke-width="2" fill="none" />
<polyline points="4.5,211.5,12.0,203.5,19.5,196.0,27.5,188.0,35.5,180.0,43.5,172.5,52.0,165.5,60.0,158.5,67.5,152.0,75.5,145.5,83.5,138.0,92.0,131.5,100.5,124.5,108.5,117.5,116.0,109.5" stroke="black" stroke-width="2" fill="none" />
<polyline points="108.5,106.0,100.0,113.5,92.0,121.0,84.0,128.5,76.0,135.5,68.0,143.0,59.5,150.0,51.5,157.5,43.5,165.0,35.5,172.0,27.5,179.5,19.5,187.5,11.5,196.0,3.5,204.0" stroke="black" stroke-width="2" fill="none" />
<polyline points="3.0,206.0,11.0,205.5,19.5,205.0,28.0,204.0,36.0,203.0,44.0,202.5,52.0,201.5,60.5,201.0,69.0,200.5,77.0,200.0,85.0,199.5,92.5,198.5,100.5,198.0,108.0,197.0,116.0,196.5" stroke="black" stroke-width="2" fill="none" />
<polyline points="68.5,215.0,60.5,215.5,53.0,216.5" stroke="black" stroke-width="2" fill="none" />
<polyline points="42.0,209.0,33.5,209.0" stroke="black" stroke-width="2" fill="none" />
<polyline points="28.5,183.5,21.0,184.0" stroke="black" stroke-width="2" fill="none" />
<polyline points="4.0,190.5,12.0,183.0,20.5,175.5,28.5,167.5,36.5,160.0,45.0,152.0,52.5,144.5,60.5,137.0,68.0,129.0,76.0,121.5,84.5,113.5,93.0,106.0" stroke="black" stroke-width="2" fill="none" />
<polyline points="100.0,106.5,92.0,114.0,84.0,122.0,76.0,129.0,68.0,136.0,60.0,143.5,52.5,151.0,45.0,159.0,37.5,167.0,29.5,175.0,21.5,183.0,13.0,190.0,4.5,197.0" stroke="black" stroke-width="2" fill="none" />
<polyline points="1.5,197.5,10.0,197.0,17.5,196.5,25.5,195.5,33.5,194.5,41.0,194.0,49.5,193.5,58.0,193.5,66.5,193.5,75.0,193.5,82.5,193.5,91.0,192.0,98.5,191.0,107.0,190.5" stroke="black" stroke-width="2" fill="none" />
<polyline points="67.5,260.5,59.5,268.0,51.5,275.0,43.5,282.5,35.0,289.5,27.0,297.0,19.5,304.5,12.0,312.0,4.5,319.5" stroke="black" stroke-width="2" fill="none" />
<polyline points="2.5,320.5,10.5,320.5,18.5,319.5,26.5,319.5,35.0,319.5,43.0,319.0,51.5,319.0,59.5,318.5,68.0,318.0,76.5,317.5,85.0,316.5,92.5,316.0,99.5,315.5,107.0,315.0,115.0,314.0,123.0,313.5,131.5,313.0,140.5,313.0,149.0,312.5,157.5,312.0,165.5,311.5,173.0,310.5,180.5,310.0,188.0,309.0,195.5,308.0,203.5,307.5,211.0,307.5,219.5,307.5,228.5,307.5,237.0,306.5,245.0,306.0,252.5,305.5,260.5,305.0,268.5,304.5,277.0,304.5,285.0,304.0,292.5,304.0,300.0,304.5,308.0,304.5,316.5,304.0,324.5,303.0,332.5,302.5,340.0,302.0,348.0,301.0,355.5,300.0,363.5,299.0,371.0,298.5,378.5,297.0,386.5,296.5,394.0,295.5" stroke="black" stroke-width="2" fill="none" />
<polyline points="220.0,258.0,212.0,258.0,204.0,258.0,195.5,258.0,188.0,259.0,180.0,259.5,172.0,260.0,164.0,260.5,155.5,261.0,148.0,261.5,140.0,262.5,132.0,263.0,124.5,263.5,117.0,264.0,108.5,264.5,100.5,264.5,92.5,265.0,84.5,265.0,76.5,265.5" stroke="black" stroke-width="2" fill="none" />
<polyline points="58.0,259.5,50.0,267.5,42.0,274.5,34.0,282.0,26.0,289.5,18.0,297.0,11.0,303.5,4.0,310.5" stroke="black" stroke-width="2" fill="none" />
<polyline points="2.0,309.0,10.0,309.0,18.5,308.5,27.0,308.0,35.5,307.5,43.5,306.5,52.0,306.5,60.5,306.0,68.5,305.0,77.0,304.0,84.5,303.5,93.0,303.0,101.0,303.0,109.5,303.0,117.5,303.0,125.5,302.5,133.0,302.5,140.5,301.5,148.0,301.0,155.0,300.5,163.0,299.5,171.5,299.0,180.0,298.5,188.5,297.5,197.0,297.0,205.5,296.5,213.5,295.5,221.0,294.5,228.5,294.5,235.5,294.0,243.5,293.5,251.5,293.0,260.0,292.5,268.0,292.5,276.5,292.0,284.5,291.5,292.0,291.5,300.0,291.0,308.5,290.5,317.0,289.5,325.0,289.5,333.0,288.5,340.5,288.0,348.5,287.5,356.0,287.0,364.0,286.5,371.5,286.0,379.0,285.0,387.0,283.5,395.0,282.5,403.0,282.0,410.5,281.5,418.5,281.5,427.0,281.0,435.0,281.0,443.0,281.5,451.0,281.0,459.0,281.5,467.0,281.5,474.5,281.0,483.0,280.5,491.0,280.0,498.5,279.0,506.5,278.5,515.0,278.0" stroke="black" stroke-width="2" fill="none" />
<polyline points="85.5,106.0,77.5,114.0,69.5,121.5,61.5,129.0,53.5,137.0,45.5,144.5,37.0,153.0,29.0,161.0,21.0,169.0,13.5,176.0,5.5,183.5" stroke="black" stroke-width="2" fill="none" />
<polyline points="1.5,181.5,9.5,181.0,18.0,180.5,26.0,180.5,34.5,179.5,42.5,178.5,50.5,178.5,58.0,178.0,65.5,177.5,73.5,177.0,81.5,176.0,90.0,176.0,98.5,175.5" stroke="black" stroke-width="2" fill="none" />
<polyline points="75.0,107.0,67.0,115.0,59.0,123.0,51.5,130.5,44.5,138.0,37.0,145.5,29.0,153.0,21.0,160.5,13.5,168.0,5.5,175.5" stroke="black" stroke-width="2" fill="none" />
<polyline points="2.0,173.5,10.0,173.0,18.0,172.5,26.0,172.0,33.5,171.5,42.0,170.5,50.0,169.5,58.5,169.0,67.0,168.5,75.0,168.5,83.0,168.0,91.0,167.5" stroke="black" stroke-width="2" fill="none" />
<polyline points="66.5,106.0,58.5,113.5,51.0,121.5,43.0,129.0,35.0,137.0,27.0,144.5,19.5,152.0,11.0,159.5,3.0,167.5" stroke="black" stroke-width="2" fill="none" />
<polyline points="3.0,167.0,11.0,166.0,19.5,165.5,27.5,165.0,35.5,164.0,44.0,163.5,51.5,162.5,59.5,161.5,68.0,160.0,76.5,159.0,85.0,159.0,92.5,158.5" stroke="black" stroke-width="2" fill="none" />
<polyline points="57.5,109.5,50.0,117.0,42.0,123.5,34.5,130.5,27.0,138.0,20.0,145.0,12.0,152.0,4.5,158.5" stroke="black" stroke-width="2" fill="none" />
<polyline points="3.0,158.0,11.0,157.5,19.0,156.0,27.0,155.0,35.0,154.0,43.5,153.5,51.5,152.5,60.0,151.5,68.0,151.0,76.0,150.5,84.0,150.0,92.0,149.5,100.0,149.0" stroke="black" stroke-width="2" fill="none" />
<polyline points="59.5,100.5,67.5,100.0,75.0,99.5,83.0,99.0,90.5,98.0,98.5,98.0,107.0,98.0,115.5,98.5,124.0,98.0,133.0,98.0,141.0,97.5,149.0,96.5,157.0,96.0,165.0,95.0,173.0,94.0,181.0,94.0,188.5,93.0" stroke="black" stroke-width="2" fill="none" />
<polyline points="83.0,66.0,75.0,73.5" stroke="black" stroke-width="2" fill="none" />
<polyline points="76.0,68.5,67.5,76.0" stroke="black" stroke-width="2" fill="none" />
<polyline points="69.0,67.5,77.0,59.0" stroke="black" stroke-width="2" fill="none" />
<polyline points="67.5,59.5,60.0,67.0" stroke="black" stroke-width="2" fill="none" />
<polyline points="53.0,67.5,61.0,60.5,68.5,53.0" stroke="black" stroke-width="2" fill="none" />
<polyline points="59.5,51.0,51.5,58.5,44.0,66.0" stroke="black" stroke-width="2" fill="none" />
<polyline points="42.5,70.5,51.0,69.0,58.5,68.0,67.0,67.5,75.0,67.0,82.5,66.5,91.0,66.5,99.0,66.5,107.5,66.5,115.5,66.0,123.5,65.5,131.5,65.0,139.5,64.5,147.5,64.0,155.5,63.5,163.5,63.0,171.5,62.5,179.5,61.0,188.0,60.0,197.0,59.5,205.0,58.5,213.0,58.0,220.5,58.0,228.5,57.5,236.5,57.0" stroke="black" stroke-width="2" fill="none" />
<polyline points="67.0,35.0,59.5,42.5" stroke="black" stroke-width="2" fill="none" />
<polyline points="60.5,34.0,52.5,41.5,44.5,49.5,37.0,57.5,29.5,65.5" stroke="black" stroke-width="2" fill="none" />
<polyline points="19.5,63.5,26.5,56.0,34.5,48.5,42.5,40.5,50.5,32.5,58.5,25.5,66.5,17.5" stroke="black" stroke-width="2" fill="none" />
<polyline points="50.0,18.0,42.0,25.5,33.5,33.0,26.0,40.5,18.0,48.5,10.5,56.0,2.5,64.0" stroke="black" stroke-width="2" fill="none" />
<polyline points="2.5,61.0,10.5,60.5,18.5,60.0,26.5,59.5,34.5,59.0,42.5,58.5,50.5,57.5,59.0,57.0,67.0,56.0,75.0,55.5,83.5,55.5,91.0,54.5,100.0,54.5,108.0,54.5,116.0,54.0,124.5,54.0,132.0,53.0,140.0,52.0,148.0,51.0,155.5,50.5,163.5,49.5,171.5,49.5,179.5,49.5,188.0,49.5,196.5,49.5,205.0,49.0,212.5,48.5,220.0,48.0,228.0,47.0,235.0,45.5,243.0,45.0,251.5,44.5" stroke="black" stroke-width="2" fill="none" />
<polyline points="51.0,50.0,43.0,57.5,35.5,64.5" stroke="black" stroke-width="2" fill="none" />
<polyline points="10.0,62.5,18.0,55.5,25.5,48.0,33.0,41.0,40.5,33.5,48.5,26.0" stroke="black" stroke-width="2" fill="none" />
<polyline points="42.5,18.5,35.0,26.0" stroke="black" stroke-width="2" fill="none" />
<polyline points="27.0,34.0,19.0,41.0,11.0,48.5,3.5,56.0" stroke="black" stroke-width="2" fill="none" />
<polyline points="0.5,52.0,9.0,51.5,17.5,51.0,26.0,50.0,34.5,49.0,43.0,48.5,51.5,48.0,60.0,48.0,68.5,47.5,77.0,47.0,84.5,46.5,92.5,46.0,100.5,45.5,107.5,45.0,114.5,45.0,122.0,44.5,130.0,44.5,138.0,44.5,146.5,44.5,154.5,44.0,162.5,43.5,170.5,43.0,179.0,42.5,187.5,41.5,196.5,40.5,204.5,39.5,212.5,39.0,220.0,39.0,227.5,38.0,235.0,37.5,243.0,37.5,251.0,37.0,258.5,37.0,266.5,37.0" stroke="black" stroke-width="2" fill="none" />
<polyline points="43.0,9.0,34.5,16.5,26.5,24.5,19.0,32.0,11.0,40.0,3.0,48.5" stroke="black" stroke-width="2" fill="none" />
<polyline points="2.0,45.0,10.0,44.5,18.5,43.5,26.5,43.5,34.5,43.0,42.5,42.5,51.0,42.0,59.0,41.5,67.0,41.0,75.5,40.0,83.0,39.0,91.5,39.0,100.0,38.5,108.0,38.5,116.0,39.0,124.0,38.5,131.5,37.5,139.5,36.5,147.5,35.5,155.5,35.0,163.0,34.5,171.0,34.5,179.5,34.0,188.0,34.0,196.0,34.0,204.5,33.5,212.5,33.0,220.5,32.5,228.5,32.5,236.5,32.0,244.0,32.0,252.0,31.0,259.5,30.0,267.5,29.0,276.5,28.5,284.5,27.5" stroke="black" stroke-width="2" fill="none" />
<polyline points="42.5,1.5,34.5,9.0,27.0,16.5,19.0,24.0,11.0,32.0,3.0,40.5" stroke="black" stroke-width="2" fill="none" />
<polyline points="3.5,35.5,12.0,35.0,20.0,34.5,28.0,34.5,36.0,34.5,44.0,35.0,52.5,34.5,61.0,34.0,69.0,33.5,77.0,33.0,85.0,32.0,93.0,31.5,101.5,31.0,109.5,30.5,116.5,30.0,124.5,29.5,131.5,28.5,139.0,28.0,146.5,27.0,154.5,26.5,162.5,26.5,170.5,26.0,179.0,25.5,187.5,25.5,195.5,26.0,204.0,25.5,212.0,25.0,220.5,24.5,228.5,24.5,236.0,24.0,244.0,23.5,252.0,22.5,260.5,22.0,269.0,21.5,277.0,20.5,285.0,19.5,292.5,19.0,300.5,19.0,308.0,18.5,316.0,18.0,324.0,18.0,332.5,17.0,340.5,16.5,349.0,16.0,357.0,16.0,365.5,16.0,373.5,14.5,381.5,14.0,389.0,13.5,396.5,13.0,405.0,12.5,412.5,12.5,420.5,11.5,429.0,11.5,437.5,11.0,445.0,11.0,452.5,10.5,459.5,9.5,467.0,8.5,475.0,7.5,483.5,6.5,491.0,6.5,499.0,6.5,506.5,5.5,514.5,5.0" stroke="black" stroke-width="2" fill="none" />
<polyline points="52.0,106.0,44.0,113.5,36.5,121.5,29.0,129.0,21.5,136.5,13.5,144.5,5.5,152.0" stroke="black" stroke-width="2" fill="none" />
<polyline points="4.0,148.0,12.0,147.5,20.0,147.5,28.0,147.0,36.5,146.5,45.0,146.0,52.5,145.5,60.5,145.0,68.0,144.5,76.0,144.5,84.5,144.0,92.5,143.5,100.5,143.0" stroke="black" stroke-width="2" fill="none" />
<polyline points="58.5,120.0,50.0,119.5,42.0,119.5" stroke="black" stroke-width="2" fill="none" />
<polyline points="43.0,106.5,35.0,114.0,26.5,121.5,18.5,128.5,11.0,136.0,3.0,143.0" stroke="black" stroke-width="2" fill="none" />
<polyline points="3.5,141.0,11.5,140.0,19.5,139.5,27.5,139.0,35.5,138.5,43.5,138.5,51.5,138.0,59.0,137.5,67.5,137.0,75.5,136.0,84.0,135.5,91.5,135.0,99.5,134.5" stroke="black" stroke-width="2" fill="none" />
<polyline points="33.5,107.5,26.0,115.0,18.0,122.5,10.0,130.0,2.5,137.0" stroke="black" stroke-width="2" fill="none" />
<polyline points="3.5,132.5,11.0,132.0,18.5,131.0,26.5,130.5,34.5,130.0,42.5,130.0,51.0,129.5,59.0,128.5,67.5,128.0,76.0,127.5,84.5,127.0,92.5,127.0,100.0,127.0,108.0,126.5" stroke="black" stroke-width="2" fill="none" />
<polyline points="35.0,120.5,27.0,121.0" stroke="black" stroke-width="2" fill="none" />
<polyline points="27.5,106.0,19.5,113.5,11.5,120.5,3.5,128.0" stroke="black" stroke-width="2" fill="none" />
<polyline points="4.0,124.0,11.5,123.5,19.0,123.0,27.0,123.0,35.0,122.5,42.5,122.5,51.0,122.5,59.0,122.0,67.0,121.5,76.0,121.5,84.5,121.0,92.0,120.5,99.5,120.5,107.5,120.5,115.0,120.0,122.5,119.5" stroke="black" stroke-width="2" fill="none" />
<polyline points="17.5,107.0,9.5,114.0,1.5,121.0" stroke="black" stroke-width="2" fill="none" />
<polyline points="2.0,120.5,10.5,120.5,18.0,120.5" stroke="black" stroke-width="2" fill="none" />
<polyline points="3.0,116.0,11.0,116.0,18.5,115.5,26.5,115.5,34.5,115.5,42.5,115.0,50.5,114.5,58.0,113.5,66.0,112.5,74.5,111.5,82.5,110.5,90.0,110.5,98.0,110.0,106.5,109.0,114.5,108.0,123.0,107.5,132.0,107.0" stroke="black" stroke-width="2" fill="none" />
<polyline points="10.5,106.5,2.5,114.0" stroke="black" stroke-width="2" fill="none" />
<polyline points="3.5,114.0,11.5,113.5,19.5,113.0,27.0,112.0,34.5,111.0,42.5,110.5,50.0,109.5,58.0,109.0,66.0,108.5,73.5,107.5,81.5,107.5,90.0,107.0,98.5,107.0,107.0,106.5,115.5,106.0,124.0,105.0,132.5,104.5,140.5,103.5,148.0,102.5,156.0,101.5,164.0,101.5,172.0,101.0,180.5,101.0,189.0,101.0,197.5,100.5,205.5,100.5,213.0,100.0,221.0,99.0,229.0,98.5" stroke="black" stroke-width="2" fill="none" />
<polyline points="35.5,2.5,27.0,10.5,19.0,18.5,10.5,25.5,2.5,33.0" stroke="black" stroke-width="2" fill="none" />
<polyline points="3.0,29.5,11.0,28.5,18.5,28.0,26.5,27.5,34.5,27.5,42.5,27.0,50.5,26.5,59.0,26.5,67.0,26.0,75.5,25.5,83.5,24.5,91.5,24.5,99.0,24.0,106.5,23.5,114.5,23.0,122.5,22.0,130.5,21.5,139.0,21.0,147.5,20.5,155.5,20.5,163.5,20.0,171.5,19.0,180.0,18.5,187.5,18.0,195.0,18.0,203.0,17.5,211.5,17.5,219.5,17.0,228.0,17.0,236.0,17.0,244.5,17.0,252.5,16.0,260.5,15.5,268.5,14.5,276.0,14.0,284.0,13.0,292.5,12.5,300.0,11.5,308.0,10.5,316.0,10.5,324.5,10.5,332.5,9.5,341.0,9.0,349.0,8.5,356.5,8.0,365.0,7.5,373.0,6.5,381.0,5.5,388.5,4.5,395.5,4.0,403.5,3.5,411.5,3.0,420.0,2.0,428.0,1.0,435.5,1.0,443.5,0.5,451.5,0.0,459.0,0.0,467.0,-0.5,475.0,-0.5,483.0,-1.0,491.5,-1.5,499.5,-1.5,507.5,-2.0,515.0,-3.0" stroke="black" stroke-width="2" fill="none" />
<polyline points="26.0,2.5,18.5,10.0,11.0,17.0,3.0,24.5" stroke="black" stroke-width="2" fill="none" />
<polyline points="3.0,21.5,11.0,21.0,19.5,20.0,27.5,19.5,35.5,19.5,42.5,19.0,50.0,18.5,58.0,18.0,65.5,17.5,73.0,17.0,81.0,16.5,89.0,16.0,98.0,15.5,106.0,15.5,114.0,15.5,122.5,15.0,130.5,14.5,138.5,13.5,146.0,13.0,154.5,13.0,162.5,12.5,171.0,12.0,179.0,11.0,187.0,10.5,195.0,10.0,203.5,9.5,212.0,9.0,220.0,9.0,228.5,9.0,236.0,9.0,244.0,9.0,252.0,8.5,260.0,7.5,268.0,6.5,275.5,6.0,284.0,5.5,292.0,5.0,300.0,4.5,308.0,3.5,316.0,3.0,324.5,2.5,332.5,1.5,340.5,0.5,348.5,0.0,356.0,-0.5,364.0,-2.0,371.5,-2.5,379.5,-3.0,387.0,-4.0,395.0,-4.5,402.5,-6.0,411.0,-6.0,419.5,-6.0,428.0,-6.0,435.5,-6.5,443.5,-7.0,451.5,-7.5,459.5,-8.5,467.5,-9.0,475.5,-9.5,483.5,-10.0,491.5,-10.5,499.5,-11.5,507.5,-12.0,515.0,-12.0" stroke="black" stroke-width="2" fill="none" />
<polyline points="18.5,3.0,10.5,10.5,2.0,18.0" stroke="black" stroke-width="2" fill="none" />
<polyline points="3.5,12.5,11.0,12.0,19.0,12.0,27.0,12.0,35.0,12.0,42.5,12.0,50.5,11.5,59.0,11.0,67.0,10.5,74.5,10.0,82.5,9.5,90.0,9.0,98.5,8.0,106.5,7.0,115.0,6.0,123.5,6.0,131.5,5.0,139.5,4.0,147.5,3.0,155.0,2.5,163.0,2.0,170.5,1.5,178.5,1.5,186.0,1.5,194.0,1.5,202.0,1.5,210.5,1.0,218.5,0.5,227.0,0.5,234.5,0.0,243.0,-0.5,250.5,-1.0,259.0,-1.5,267.0,-2.5,275.0,-3.0,283.0,-3.5,291.0,-4.5,299.5,-5.0,307.5,-5.5,316.0,-6.0,324.5,-6.5,332.0,-7.5,340.0,-8.0,348.5,-8.0,356.5,-8.0,365.0,-8.5,372.5,-8.5,380.5,-9.0,388.0,-10.0,396.0,-10.5,403.5,-11.5,411.5,-12.0,419.5,-12.5,427.5,-13.5,435.5,-14.5,443.5,-15.5,451.0,-16.5,458.5,-17.0,466.5,-17.5,475.0,-17.5,483.0,-18.0,491.0,-19.0,499.0,-19.5,507.5,-20.0,515.5,-20.5" stroke="black" stroke-width="2" fill="none" />
<polyline points="10.5,1.5,2.5,9.5" stroke="black" stroke-width="2" fill="none" />
<polyline points="4.5,110.5,12.0,110.5,19.0,109.5,26.5,109.5,34.0,109.0,41.5,108.0,49.5,107.0,57.5,106.0,66.0,105.5,74.0,104.5,82.0,104.0,90.0,104.0,98.5,103.5,107.0,103.0,115.5,102.5,123.5,101.5,132.0,101.5,140.5,101.0,148.5,100.0,157.0,99.0,164.5,98.5,173.0,98.0,181.0,98.0,189.5,98.0,197.5,98.0,205.5,97.5,213.0,97.5,220.5,96.5,228.0,96.0" stroke="black" stroke-width="2" fill="none" />
<polyline points="52.5,259.0,44.5,266.5,36.5,274.5,29.0,281.5,21.5,289.0,14.0,296.5,6.0,305.0" stroke="black" stroke-width="2" fill="none" />
<polyline points="3.5,304.5,11.0,303.5,20.0,303.5,28.0,303.5,36.0,303.0,44.5,303.0,52.0,302.0,60.0,301.0,68.0,300.0,75.5,299.5,83.5,298.5,91.5,298.5,99.5,298.5,108.0,298.5,116.5,298.5,125.0,298.0,132.5,297.5,140.0,297.0,148.0,296.0,155.0,294.5,163.0,294.0,171.5,293.5,179.5,293.0,187.5,292.5,196.0,293.0,204.0,292.5,212.0,292.0,220.0,291.5,228.0,291.0,236.5,290.5,244.5,289.5,252.5,289.0,260.0,288.5,267.5,288.0,275.0,288.0,283.0,287.5,291.0,287.0,299.0,287.0,307.5,287.0" stroke="black" stroke-width="2" fill="none" />
<polyline points="35.5,266.5,27.5,274.5,19.5,282.0,11.0,289.5,3.0,296.5" stroke="black" stroke-width="2" fill="none" />
<polyline points="3.0,296.0,11.5,296.0,20.0,295.5,28.0,295.5,36.0,296.0,44.0,295.5,51.5,294.5,59.5,293.5,67.5,292.5,75.5,292.0,83.0,291.5,91.0,291.5,99.5,291.0,108.0,291.0,116.0,291.0,124.5,290.5,132.5,290.0,140.5,289.5,148.5,289.5,156.5,289.0,164.0,289.0,172.0,288.0,179.5,287.0,187.5,286.0,196.5,285.5,204.5,284.5,212.0,284.5,219.5,284.0,227.5,283.5,235.5,283.0,243.5,282.0,251.0,281.5,259.0,281.5,267.0,281.0,275.0,281.0" stroke="black" stroke-width="2" fill="none" />
<polyline points="27.0,267.0,19.5,274.5,11.5,282.5,3.5,290.0" stroke="black" stroke-width="2" fill="none" />
<polyline points="3.5,289.5,11.5,289.5,19.0,289.0,26.5,288.5,34.5,288.0,42.5,287.0,50.5,286.5,59.0,286.0,67.5,285.5,75.5,285.5,83.5,285.0,91.5,284.0,100.0,283.5,107.5,283.0,115.0,283.0,123.0,282.5,131.5,282.5,139.5,282.0,148.0,282.0,156.0,282.0,164.5,282.0,172.5,281.0,180.5,280.5,188.5,279.5,196.0,279.0,204.0,278.0,212.5,277.5,220.0,276.5,228.0,275.5,236.0,275.5,244.5,275.5,252.5,274.5,261.0,274.0" stroke="black" stroke-width="2" fill="none" />
<polyline points="17.5,266.0,9.5,273.5,2.0,281.0" stroke="black" stroke-width="2" fill="none" />
<polyline points="2.5,282.5,10.0,282.0,18.5,281.0,26.5,280.0,35.0,279.0,43.5,279.0,51.5,278.0,59.5,277.0,67.5,276.0,75.0,275.5,83.0,275.0,90.5,274.5,98.5,274.5,106.0,274.5,114.0,274.5,122.0,274.5,130.5,274.0,138.5,273.5,147.0,273.5,154.5,273.0,163.0,272.5,170.5,272.0,179.0,271.5,187.0,270.5,195.0,270.0,203.0,269.5,211.0,268.5,219.5,268.0,227.5,267.5,236.0,267.0,244.5,266.5,252.0,265.5" stroke="black" stroke-width="2" fill="none" />
<polyline points="9.0,268.0,1.5,275.0" stroke="black" stroke-width="2" fill="none" />
<polyline points="2.0,277.0,10.0,276.0,18.0,275.5,26.0,274.5,34.0,274.5,42.0,273.5,50.0,272.5,57.5,271.5,66.0,271.0,74.5,271.0,82.5,271.0,91.0,270.5,99.0,270.0,107.5,269.5,116.0,269.0,124.0,268.5,132.0,268.5,139.5,268.0,146.5,267.5,154.5,267.0,162.0,266.5,170.0,266.0,178.0,265.5,186.5,264.5,195.0,264.0,203.5,263.5,211.5,263.0,220.0,263.0,228.5,263.0,237.0,263.0,245.0,262.5,253.0,262.5" stroke="black" stroke-width="2" fill="none" />
<polyline points="396.5,312.5,388.0,312.5,380.0,313.0,371.5,314.0,363.5,314.5,355.5,315.5,348.0,316.5,340.0,317.5,332.0,318.0,324.0,318.5,316.0,319.5,307.5,320.0,299.0,320.5,291.0,321.0,283.0,321.5,275.0,321.5,267.5,322.0,259.5,322.0,251.5,322.0,243.5,322.0,236.0,323.0,228.0,323.5,220.0,324.0,212.5,325.0,205.0,325.5,197.0,326.0,188.5,327.5,180.5,328.0,171.5,328.5,163.5,328.5,156.0,329.0,148.0,329.5,139.5,330.0,131.5,330.5,124.0,331.0,116.0,331.5,108.0,332.0,100.0,332.5,92.0,333.0,84.0,333.5,76.0,334.0,68.0,334.0,60.0,334.0,52.5,334.0,44.5,334.5,36.5,334.5,28.5,335.5,20.5,336.0,12.5,336.5,4.5,337.0" stroke="black" stroke-width="2" fill="none" />
<polyline points="4.0,332.5,11.5,332.0,19.5,331.5,27.5,331.5,35.5,331.5,44.0,332.0,51.5,331.5,59.5,331.0,66.5,330.5,74.0,330.0,81.5,329.5,90.0,329.0,99.0,328.5,107.5,328.5,116.0,328.5,124.0,328.0,132.0,327.5,140.5,327.5,149.0,327.0,157.0,326.0,165.0,325.5,173.0,325.0,181.0,323.5,189.0,323.0,197.0,322.5,204.5,322.0,212.5,321.0,220.0,320.0,228.0,319.0,236.5,318.5,244.0,318.0,252.5,317.0,260.5,317.0,268.5,316.5,276.5,316.0,284.5,316.5,292.0,315.5,299.5,315.5,307.5,316.0,315.5,316.0,324.0,315.5,331.5,315.0,339.5,314.0,347.5,313.5,355.0,312.5,363.0,311.5,371.5,310.5,379.5,309.0,387.5,308.0,396.0,307.5,404.0,307.0,412.0,306.5,420.5,306.5,429.0,306.0,437.5,305.5,445.5,305.5,453.5,305.0,461.0,305.0,468.5,305.0,476.5,305.0,484.5,305.0,492.5,304.0,500.0,303.5,508.0,303.5,516.0,303.0" stroke="black" stroke-width="2" fill="none" />
<polyline points="379.5,305.5,372.0,306.0,364.0,307.0,356.0,308.0,347.5,309.5,339.5,310.5,331.5,311.0,323.5,312.0,315.5,311.5,308.0,311.5,300.0,311.5,292.0,311.0,284.0,311.5,276.5,311.0,269.0,311.5,261.0,312.0,253.0,312.5,245.0,313.0,237.0,314.0,229.5,314.5,221.5,315.5,213.5,316.5,205.5,317.0,197.5,317.5,190.0,318.0,182.0,318.0,174.0,318.5,165.0,318.5,157.0,319.5,149.0,320.5,140.5,321.5,132.0,322.5,123.0,323.0,115.0,324.0,106.5,325.0,98.5,325.5,91.0,326.5,83.5,327.0,75.0,327.0,67.0,327.0,59.0,327.0,51.5,327.0,43.5,327.0,35.5,327.0,28.0,327.5,20.0,328.0,12.5,328.0,4.5,328.0" stroke="black" stroke-width="2" fill="none" />
<polyline points="2.5,315.5,10.0,315.5,18.0,315.0,26.5,314.0,34.5,313.0,43.0,312.5,52.0,312.0,61.0,312.0,69.5,311.0,78.0,310.0,86.0,309.5,94.0,309.0,101.5,309.0,109.5,309.5,117.5,309.5,125.0,309.5,132.5,309.5,139.5,309.0,147.0,309.0,155.0,308.0,163.0,307.5,170.5,307.0,179.0,307.0,187.5,306.0,195.5,305.5,203.5,305.0,211.5,305.0,220.0,304.5,229.0,304.0,237.0,303.0,245.5,302.5,253.0,302.0,260.5,301.5,268.0,301.0,276.0,301.0,284.0,300.5,292.5,300.5,300.0,300.0,308.5,299.0,317.0,299.0,325.5,299.0,333.0,298.5,340.5,298.0,347.5,297.0,355.0,296.5,363.0,295.5,370.5,295.0,378.5,294.0,386.5,293.5,394.5,292.0,403.0,291.5,411.0,291.0,418.5,290.5,426.5,289.5,435.0,289.0,443.0,288.0,451.5,288.5,459.5,289.5,468.0,289.5,476.0,289.5,484.0,289.0,492.0,288.0,499.5,287.0,508.0,286.5,516.0,286.0" stroke="black" stroke-width="2" fill="none" />
<polyline points="387.0,288.0,379.5,289.0,371.0,289.5,363.5,290.0,356.0,291.0,348.5,292.0,340.5,293.0,332.5,294.0,324.5,294.0,316.5,295.0,308.5,294.5,300.5,295.0,292.0,295.5,284.5,295.5,276.5,295.5,268.5,296.0,261.0,296.5,253.0,297.5,245.0,298.0,237.0,298.5,228.5,299.5,220.0,300.5,211.0,300.5,202.5,301.0,195.0,301.5,187.5,302.0,180.0,302.5,172.5,302.5,165.0,303.0,156.5,303.0,149.0,303.5,141.0,304.0,133.0,305.0,125.5,305.5,117.5,305.5,109.0,306.0,100.5,306.0,92.0,306.0,84.0,306.5,76.0,306.5,68.0,307.5,60.5,308.5,52.5,309.5,44.0,310.0,35.5,311.0,27.0,311.5,18.5,312.0,10.0,312.0,1.5,312.5" stroke="black" stroke-width="2" fill="none" />
<polyline points="4.5,299.5,12.5,299.0,20.5,298.5,27.5,298.0,34.5,298.0,42.0,297.5,50.0,297.5,58.0,297.5,66.5,297.5,74.5,297.0,82.5,296.5,90.5,296.0,99.0,295.5,107.5,294.5,116.5,293.5,124.5,292.5,132.5,292.0,140.0,292.0,147.5,291.0,155.0,290.5,163.0,290.5,171.0,290.0,178.5,290.0,186.5,290.0,194.5,290.0,202.0,290.0,210.0,289.5,217.5,289.5,225.0,289.5,233.0,288.5,241.0,288.0,249.5,287.5,258.0,287.5,266.5,287.0,274.5,286.0,282.5,285.5,291.0,284.0,298.5,283.0,306.5,282.0,314.5,280.5" stroke="black" stroke-width="2" fill="none" />
<polyline points="285.5,277.0,277.0,277.0,269.0,277.0,260.5,277.5,252.5,278.0,244.0,279.0,236.0,279.0,228.0,279.5,220.5,280.0,212.5,280.0,205.0,280.5,197.0,281.5,189.0,282.5,180.5,283.0,172.0,283.5,164.0,284.5,156.0,285.0,148.5,285.5,140.5,285.5,132.0,286.0,124.0,286.5,115.5,287.0,107.5,286.5,99.0,286.5,90.5,287.0,82.5,287.5,74.5,287.5,66.5,288.0,59.0,289.0,51.5,289.5,44.5,290.5,36.5,291.0,29.5,291.5,21.5,292.0,13.0,292.5,5.0,293.0" stroke="black" stroke-width="2" fill="none" />
<polyline points="1.0,285.5,9.0,285.0,18.0,284.5,26.0,284.5,34.0,284.5,42.5,284.0,50.5,283.5,58.5,282.5,66.0,282.0,74.5,282.0,82.5,281.5,91.0,281.0,99.0,280.0,107.0,279.5,115.0,279.0,123.5,278.5,132.0,278.0,140.0,278.0,148.5,278.0,156.0,278.0,164.0,278.0,172.0,277.5,180.0,276.5,188.0,275.5,195.5,275.0,204.0,274.5,212.0,274.0,220.0,273.5,228.0,272.5,236.0,272.0,244.5,271.5,252.5,270.5,260.5,269.5,268.5,269.0" stroke="black" stroke-width="2" fill="none" />
<polyline points="237.0,259.0,228.5,260.0,220.0,260.5,211.5,260.5,203.0,260.5,195.5,261.0,187.0,261.0,179.0,261.5,171.0,262.0,163.5,263.0,155.5,263.5,147.5,264.0,140.0,264.5,131.5,265.0,123.5,265.5,115.5,266.5,107.0,266.5,99.0,267.0,91.5,267.5,83.5,268.0,75.5,268.5,67.5,270.0,60.0,271.0,52.0,271.5,43.5,272.5,35.5,272.5,27.5,273.0,20.0,273.5,12.5,273.5,5.0,274.0" stroke="black" stroke-width="2" fill="none" />
<polyline points="5.0,271.0,13.0,270.5,20.5,270.5,28.5,269.5,36.5,269.0,44.5,268.5,52.5,268.0,60.0,267.5,67.5,267.0,76.0,267.0,84.5,267.0,92.5,266.0,100.0,265.0,108.0,264.0,115.5,263.5,123.0,262.5,132.0,261.5,140.5,260.5,149.0,260.5,157.0,260.5,165.0,260.0,172.5,260.0,181.0,259.5,189.0,259.0,196.5,259.0,204.0,258.5,212.0,257.5,220.0,257.0,228.0,256.0,236.0,256.0,243.5,256.0" stroke="black" stroke-width="2" fill="none" />
<polyline points="228.0,249.0,220.0,249.0,212.0,249.0,203.5,249.0,196.0,250.0,188.0,250.5,180.0,251.0,172.0,251.5,163.5,252.0,156.0,252.5,148.0,253.5,140.0,254.0,132.5,254.5,125.0,255.0,116.5,255.5,108.5,255.5,100.5,256.0,92.5,256.0,84.5,256.5,76.5,257.0,69.0,258.0,61.0,258.5,53.5,259.0,45.5,258.5,37.0,259.5,28.0,260.0,20.0,260.5,12.0,261.5,3.5,262.0" stroke="black" stroke-width="2" fill="none" />
<polyline points="3.0,254.5,11.5,254.0,19.5,253.5,27.5,253.0,36.5,252.0,45.0,251.5,53.0,251.0,61.0,250.5,68.5,250.0,76.5,249.0,84.5,248.5,92.5,248.0,101.0,247.5,109.5,247.0,117.5,246.0,125.5,245.5,133.5,245.5,141.0,245.0,149.0,245.0,157.0,244.5,165.5,244.5,173.0,244.0,180.5,243.0,187.5,242.0,195.0,241.0,202.5,241.0,210.0,240.5" stroke="black" stroke-width="2" fill="none" />
<polyline points="28.0,223.5,20.0,224.5,12.0,226.0,3.5,226.5" stroke="black" stroke-width="2" fill="none" />
<polyline points="3.5,216.0,11.5,215.5,20.5,214.5,28.5,213.5,37.0,212.0,44.5,211.0,53.0,210.5,61.0,209.5,69.0,209.0,77.0,208.0,84.5,207.0,92.5,207.0,101.0,206.5,108.5,206.0,116.5,205.5,124.0,205.0,132.5,204.5" stroke="black" stroke-width="2" fill="none" />
<polyline points="18.5,199.5,10.5,200.0,2.0,200.5" stroke="black" stroke-width="2" fill="none" />
<polyline points="3.0,189.5,11.5,189.0,19.0,188.5,27.0,188.0,34.5,187.0,42.0,186.5,50.0,186.0,58.5,186.0,66.5,185.5,74.0,185.0,82.0,185.0,89.5,184.5,97.5,183.5" stroke="black" stroke-width="2" fill="none" />
</svg>