<svg xmlns="http://www.w3.org/2000/svg" version="1.1"><polyline points="4.5,4.5,13.0,4.0,21.0,4.0,29.0,4.0,36.5,4.0,44.0,3.0,51.5,3.0,59.5,2.0,67.0,1.0,75.0,1.0,82.5,1.0,91.0,0.5,98.5,0.0,106.5,-0.5,114.0,-1.0,122.5,-1.5,130.0,-2.0,138.0,-2.5,146.0,-3.0,154.5,-3.5,162.5,-4.5,170.0,-5.0,177.5,-5.0,185.5,-5.5,194.0,-6.5,202.5,-7.0,211.5,-7.5,220.0,-8.0,228.5,-8.5,236.5,-9.0,245.0,-9.0,252.5,-9.5,261.0,-10.5,269.5,-10.5,277.5,-11.0,285.5,-11.5,293.5,-11.5,301.0,-11.5,308.5,-12.0,316.5,-12.0,325.0,-13.0,332.5,-13.5,340.0,-15.0,348.5,-16.0,357.5,-17.0,366.0,-17.5,374.0,-18.5,382.0,-19.0,390.0,-19.5,398.0,-19.5,406.5,-20.0,413.5,-20.0,420.5,-20.5,428.0,-20.5,435.5,-21.0,443.0,-21.0,450.0,-21.5,458.0,-22.5,466.0,-23.0,474.0,-23.0,482.5,-23.0,490.5,-24.0,498.5,-24.5,506.5,-24.5,514.5,-25.0" stroke="black" stroke-width="2" fill="none" />
<polyline points="513.0,3.5,505.0,10.5" stroke="black" stroke-width="2" fill="none" />
<polyline points="501.0,11.5,493.0,19.0,485.0,26.5" stroke="black" stroke-width="2" fill="none" />
<polyline points="493.0,29.0,485.5,36.0" stroke="black" stroke-width="2" fill="none" />
<polyline points="485.5,42.0,494.0,34.0,502.5,26.5" stroke="black" stroke-width="2" fill="none" />
<polyline points="508.5,44.0,500.5,51.5" stroke="black" stroke-width="2" fill="none" />
<polyline points="508.0,57.0,516.0,49.5" stroke="black" stroke-width="2" fill="none" />
<polyline points="515.0,42.5,507.0,50.0" stroke="black" stroke-width="2" fill="none" />
<polyline points="516.0,58.0,507.5,65.5" stroke="black" stroke-width="2" fill="none" />
<polyline points="513.0,66.5,505.5,74.5" stroke="black" stroke-width="2" fill="none" />
<polyline points="491.5,76.0,483.5,83.5" stroke="black" stroke-width="2" fill="none" />
<polyline points="477.5,75.0,469.5,83.0" stroke="black" stroke-width="2" fill="none" />
<polyline points="476.5,92.0,468.5,99.5" stroke="black" stroke-width="2" fill="none" />
<polyline points="474.5,99.5,466.5,107.5" stroke="black" stroke-width="2" fill="none" />
<polyline points="461.5,100.0,453.0,107.5" stroke="black" stroke-width="2" fill="none" />
<polyline points="436.5,103.0,444.5,102.5,452.5,101.5,460.0,100.5,467.5,100.0,475.0,99.0,483.0,98.5,491.0,97.0,499.0,96.5,507.0,96.0,515.5,96.0" stroke="black" stroke-width="2" fill="none" />
<polyline points="514.5,90.5,506.5,98.5" stroke="black" stroke-width="2" fill="none" />
<polyline points="498.5,91.0,491.0,98.5" stroke="black" stroke-width="2" fill="none" />
<polyline points="483.5,115.5,491.5,115.0,500.0,115.0,508.0,114.5,515.5,114.0" stroke="black" stroke-width="2" fill="none" />
<polyline points="514.5,117.0,506.5,124.5" stroke="black" stroke-width="2" fill="none" />
<polyline points="497.5,123.5,489.5,131.0" stroke="black" stroke-width="2" fill="none" />
<polyline points="492.5,124.5,501.0,117.5,509.0,110.0" stroke="black" stroke-width="2" fill="none" />
<polyline points="517.0,140.5,508.5,148.5,500.0,156.0" stroke="black" stroke-width="2" fill="none" />
<polyline points="491.0,150.0,483.0,157.5,475.0,164.5" stroke="black" stroke-width="2" fill="none" />
<polyline points="468.0,164.0,459.5,171.5" stroke="black" stroke-width="2" fill="none" />
<polyline points="449.5,177.5,441.5,185.5" stroke="black" stroke-width="2" fill="none" />
<polyline points="441.0,198.0,449.0,197.0" stroke="black" stroke-width="2" fill="none" />
<polyline points="458.0,197.5,466.5,196.5,475.0,196.5,483.5,196.0,491.5,196.0,499.5,196.0,507.0,195.5,514.5,196.0" stroke="black" stroke-width="2" fill="none" />
<polyline points="516.0,210.5,508.5,218.5" stroke="black" stroke-width="2" fill="none" />
<polyline points="499.5,210.0,491.0,217.5" stroke="black" stroke-width="2" fill="none" />
<polyline points="484.5,213.0,476.5,220.0" stroke="black" stroke-width="2" fill="none" />
<polyline points="482.5,221.0,490.5,220.0,498.0,219.0,506.5,218.0,515.0,218.0" stroke="black" stroke-width="2" fill="none" />
<polyline points="498.0,193.5,490.0,201.0" stroke="black" stroke-width="2" fill="none" />
<polyline points="485.0,204.5,492.5,204.0,500.0,204.0,507.5,204.0,516.0,203.5" stroke="black" stroke-width="2" fill="none" />
<polyline points="515.5,235.5,507.0,236.0,499.0,236.5,491.5,237.0" stroke="black" stroke-width="2" fill="none" />
<polyline points="482.0,237.0,474.0,237.5" stroke="black" stroke-width="2" fill="none" />
<polyline points="476.0,251.5,468.0,252.5" stroke="black" stroke-width="2" fill="none" />
<polyline points="460.0,263.0,468.0,262.0,475.0,261.5,483.0,260.5,491.0,259.5" stroke="black" stroke-width="2" fill="none" />
<polyline points="498.5,261.0,506.5,260.5,515.0,260.0" stroke="black" stroke-width="2" fill="none" />
<polyline points="513.5,279.0,505.0,279.0,496.5,279.5" stroke="black" stroke-width="2" fill="none" />
<polyline points="493.0,283.5,500.5,283.0,508.5,282.5,516.5,282.5" stroke="black" stroke-width="2" fill="none" />
<polyline points="507.5,308.0,499.0,308.0,491.0,308.0" stroke="black" stroke-width="2" fill="none" />
<polyline points="492.5,300.0,501.0,299.5,508.5,299.5,516.5,299.5" stroke="black" stroke-width="2" fill="none" />
<polyline points="506.5,318.5,498.5,319.0" stroke="black" stroke-width="2" fill="none" />
<polyline points="491.0,318.0,483.5,318.5" stroke="black" stroke-width="2" fill="none" />
<polyline points="475.0,323.5,482.5,323.0,490.5,322.0,499.0,322.0,507.0,322.0" stroke="black" stroke-width="2" fill="none" />
<polyline points="508.0,335.0,516.5,334.0" stroke="black" stroke-width="2" fill="none" />
<polyline points="490.5,334.0,482.5,334.5" stroke="black" stroke-width="2" fill="none" />
<polyline points="474.5,315.0,466.0,316.0,458.0,316.5" stroke="black" stroke-width="2" fill="none" />
<polyline points="465.5,334.0,457.5,335.0,449.5,335.5" stroke="black" stroke-width="2" fill="none" />
<polyline points="437.5,333.0,430.0,333.5" stroke="black" stroke-width="2" fill="none" />
<polyline points="411.0,325.5,403.0,326.0" stroke="black" stroke-width="2" fill="none" />
<polyline points="412.0,307.5,420.0,306.5" stroke="black" stroke-width="2" fill="none" />
<polyline points="420.0,299.0,412.0,299.5" stroke="black" stroke-width="2" fill="none" />
<polyline points="413.0,293.5,405.0,294.0" stroke="black" stroke-width="2" fill="none" />
<polyline points="395.5,310.0,387.5,310.5" stroke="black" stroke-width="2" fill="none" />
<polyline points="387.0,301.5,395.0,301.0,403.5,301.0" stroke="black" stroke-width="2" fill="none" />
<polyline points="420.5,277.5,429.0,276.5" stroke="black" stroke-width="2" fill="none" />
<polyline points="436.5,277.0,444.5,277.0" stroke="black" stroke-width="2" fill="none" />
<polyline points="451.0,285.0,442.5,285.0,434.5,285.0" stroke="black" stroke-width="2" fill="none" />
<polyline points="420.5,269.0,428.5,268.5,436.5,268.0,444.5,267.5,452.5,267.0,461.0,267.0,468.5,266.0" stroke="black" stroke-width="2" fill="none" />
<polyline points="473.5,269.0,481.5,268.5,490.0,268.5,497.5,268.5,505.0,268.0,512.5,268.0" stroke="black" stroke-width="2" fill="none" />
<polyline points="517.0,291.5,508.0,292.0,499.5,293.0,492.0,294.0,484.0,294.5" stroke="black" stroke-width="2" fill="none" />
<polyline points="484.0,284.0,476.0,284.0" stroke="black" stroke-width="2" fill="none" />
<polyline points="467.0,282.0,475.5,274.5" stroke="black" stroke-width="2" fill="none" />
<polyline points="467.0,285.0,459.0,285.5" stroke="black" stroke-width="2" fill="none" />
<polyline points="459.0,278.0,467.5,277.5,476.0,277.0,484.0,276.0,491.5,275.5" stroke="black" stroke-width="2" fill="none" />
<polyline points="483.5,254.5,492.0,254.0,500.0,252.5,508.0,251.0,516.0,250.5" stroke="black" stroke-width="2" fill="none" />
<polyline points="467.5,236.5,459.0,237.5" stroke="black" stroke-width="2" fill="none" />
<polyline points="453.0,228.0,461.0,227.5,468.5,227.0,476.0,226.5,483.5,226.5,491.0,226.5,499.0,226.0,507.0,226.0,515.0,226.0" stroke="black" stroke-width="2" fill="none" />
<polyline points="516.0,187.0,508.0,187.5,500.0,187.5,492.5,187.5,484.5,188.0" stroke="black" stroke-width="2" fill="none" />
<polyline points="493.0,172.0,500.5,165.0,508.5,157.5,517.0,150.5" stroke="black" stroke-width="2" fill="none" />
<polyline points="507.5,164.0,499.5,172.0,491.5,179.5,483.0,187.5" stroke="black" stroke-width="2" fill="none" />
<polyline points="467.5,156.0,475.0,148.0" stroke="black" stroke-width="2" fill="none" />
<polyline points="467.5,148.0,475.5,147.5,484.0,147.0,492.5,146.5,501.0,146.0,509.0,145.5,516.5,145.5" stroke="black" stroke-width="2" fill="none" />
<polyline points="461.0,131.0,452.5,139.0" stroke="black" stroke-width="2" fill="none" />
<polyline points="451.0,148.0,443.0,155.0" stroke="black" stroke-width="2" fill="none" />
<polyline points="434.5,163.5,426.5,171.5" stroke="black" stroke-width="2" fill="none" />
<polyline points="419.5,181.5,427.5,180.5,435.5,179.5,443.5,179.0,451.5,178.5,459.5,177.5,467.5,177.5,475.5,177.0,483.5,176.0,491.5,175.5,499.5,174.5,507.5,174.0,516.0,174.0" stroke="black" stroke-width="2" fill="none" />
<polyline points="476.0,219.5,468.0,220.0,460.0,220.5" stroke="black" stroke-width="2" fill="none" />
<polyline points="451.5,211.0,459.0,211.0,467.0,211.0,475.5,210.5,484.0,210.5,492.0,210.5,500.0,210.5,507.0,210.0,514.5,210.0" stroke="black" stroke-width="2" fill="none" />
<polyline points="515.5,242.5,507.0,243.0,498.5,243.0,490.5,243.0,482.0,244.0,474.0,244.5,466.0,245.0,458.0,245.0,450.0,245.5" stroke="black" stroke-width="2" fill="none" />
<polyline points="443.5,244.5,435.5,245.0" stroke="black" stroke-width="2" fill="none" />
<polyline points="436.0,237.5,428.0,238.0" stroke="black" stroke-width="2" fill="none" />
<polyline points="429.5,253.5,437.0,253.0,444.5,252.0" stroke="black" stroke-width="2" fill="none" />
<polyline points="453.5,258.5,445.0,258.5,437.0,259.5,429.0,260.0" stroke="black" stroke-width="2" fill="none" />
<polyline points="421.0,251.5,413.0,252.0" stroke="black" stroke-width="2" fill="none" />
<polyline points="411.0,244.5,419.5,244.0" stroke="black" stroke-width="2" fill="none" />
<polyline points="404.0,228.5,396.0,236.0" stroke="black" stroke-width="2" fill="none" />
<polyline points="397.0,227.0,389.0,234.5,380.0,242.0" stroke="black" stroke-width="2" fill="none" />
<polyline points="380.5,236.5,373.0,243.5,365.0,250.5,357.0,258.5,349.0,266.5,341.0,274.5,332.5,282.0,323.5,290.0,315.0,297.5" stroke="black" stroke-width="2" fill="none" />
<polyline points="322.5,298.0,331.0,291.0,339.0,284.0,347.5,276.0" stroke="black" stroke-width="2" fill="none" />
<polyline points="347.0,285.0,339.0,292.0,330.5,299.0" stroke="black" stroke-width="2" fill="none" />
<polyline points="338.5,299.5,330.5,300.0,322.5,300.0" stroke="black" stroke-width="2" fill="none" />
<polyline points="320.5,288.5,329.0,288.0,338.0,287.5" stroke="black" stroke-width="2" fill="none" />
<polyline points="348.0,292.0,340.5,299.5" stroke="black" stroke-width="2" fill="none" />
<polyline points="363.5,293.0,371.5,292.5" stroke="black" stroke-width="2" fill="none" />
<polyline points="371.0,301.0,379.5,300.5" stroke="black" stroke-width="2" fill="none" />
<polyline points="379.5,327.5,371.5,328.0" stroke="black" stroke-width="2" fill="none" />
<polyline points="356.0,269.0,364.0,261.5" stroke="black" stroke-width="2" fill="none" />
<polyline points="357.0,264.5,348.5,265.0" stroke="black" stroke-width="2" fill="none" />
<polyline points="346.5,250.0,355.0,249.5" stroke="black" stroke-width="2" fill="none" />
<polyline points="341.0,243.0,348.5,242.5,356.5,242.5,364.0,242.0,371.0,241.5,378.5,240.5" stroke="black" stroke-width="2" fill="none" />
<polyline points="373.0,236.5,365.0,244.5,356.5,252.0,348.5,259.5,340.5,267.0,332.5,274.0,324.0,281.5,315.5,288.5" stroke="black" stroke-width="2" fill="none" />
<polyline points="318.0,286.5,326.0,286.0,333.5,285.0,341.0,284.5,349.0,284.0,357.0,283.0,365.0,282.5,372.0,283.0" stroke="black" stroke-width="2" fill="none" />
<polyline points="404.0,270.5,411.5,270.0" stroke="black" stroke-width="2" fill="none" />
<polyline points="380.0,227.5,388.0,220.0" stroke="black" stroke-width="2" fill="none" />
<polyline points="387.0,212.0,379.0,219.0,371.5,226.5,363.5,233.5,355.5,241.0,347.5,248.5,339.5,255.5,330.5,262.5,322.0,270.0" stroke="black" stroke-width="2" fill="none" />
<polyline points="325.0,271.5,333.0,270.0,340.5,269.0,348.0,268.5,355.5,268.0,363.0,267.0,371.5,266.5,379.5,266.0,387.5,265.5,396.0,265.5" stroke="black" stroke-width="2" fill="none" />
<polyline points="390.0,217.0,382.0,217.5,373.5,217.0,365.5,217.5" stroke="black" stroke-width="2" fill="none" />
<polyline points="364.5,209.0,372.5,208.0,380.5,208.0,389.0,208.0" stroke="black" stroke-width="2" fill="none" />
<polyline points="388.5,203.5,380.0,211.0,372.0,219.0,363.0,226.0,354.5,233.5,346.0,240.5,338.0,248.5,330.0,255.0,321.5,262.5" stroke="black" stroke-width="2" fill="none" />
<polyline points="321.5,266.5,330.0,266.0,338.5,265.5" stroke="black" stroke-width="2" fill="none" />
<polyline points="342.0,274.0,334.0,274.5" stroke="black" stroke-width="2" fill="none" />
<polyline points="339.0,279.5,331.0,280.5,323.0,281.0" stroke="black" stroke-width="2" fill="none" />
<polyline points="326.0,278.5,334.0,278.0,342.0,277.5,350.0,276.5,358.0,276.0,365.5,275.5,373.5,275.0,381.5,275.0,389.5,274.5,397.5,274.5" stroke="black" stroke-width="2" fill="none" />
<polyline points="371.0,233.0,363.5,233.0,355.0,233.0,347.0,233.5" stroke="black" stroke-width="2" fill="none" />
<polyline points="341.0,230.5,349.0,230.0,357.0,229.0,364.5,228.5,371.5,227.5,379.0,227.0,386.5,226.5,394.0,226.0,401.5,226.0,409.5,225.5,417.5,225.5,425.0,225.0,433.5,224.5" stroke="black" stroke-width="2" fill="none" />
<polyline points="419.5,211.0,427.5,203.5" stroke="black" stroke-width="2" fill="none" />
<polyline points="420.5,202.5,412.0,209.5" stroke="black" stroke-width="2" fill="none" />
<polyline points="388.0,195.0,380.5,202.5,372.0,209.5,363.5,217.5,354.5,225.5,346.0,233.0,338.0,240.5,330.0,248.5" stroke="black" stroke-width="2" fill="none" />
<polyline points="331.5,250.0,338.5,248.5" stroke="black" stroke-width="2" fill="none" />
<polyline points="331.0,254.5,339.0,254.0,347.5,253.0,356.0,252.5,364.5,251.5,373.0,250.5,381.0,250.0,389.5,249.5,398.0,249.0" stroke="black" stroke-width="2" fill="none" />
<polyline points="389.0,199.0,381.5,199.0,373.5,199.0,365.5,199.5" stroke="black" stroke-width="2" fill="none" />
<polyline points="363.0,203.5,371.5,196.0,380.0,188.5,388.0,181.0" stroke="black" stroke-width="2" fill="none" />
<polyline points="386.0,186.0,378.0,193.5,370.0,201.5,362.5,209.0,355.0,216.5,347.0,224.0" stroke="black" stroke-width="2" fill="none" />
<polyline points="347.0,225.5,355.0,225.0,362.5,224.0" stroke="black" stroke-width="2" fill="none" />
<polyline points="347.5,221.0,355.5,220.0,363.5,219.0,371.5,218.5,379.5,218.5,388.5,218.0,396.5,218.0,405.5,218.5,413.5,218.5,421.5,218.0,429.0,217.0,437.0,216.5,444.5,215.5,452.0,214.5" stroke="black" stroke-width="2" fill="none" />
<polyline points="441.0,203.0,449.5,203.5,457.0,203.0,465.0,203.0,473.0,202.5" stroke="black" stroke-width="2" fill="none" />
<polyline points="516.0,159.5,508.5,160.5,500.5,161.0,493.0,161.5,485.0,162.0,476.5,162.5,468.0,163.0,459.5,163.0,451.0,163.0,443.0,164.0,434.5,165.0,426.0,166.5,417.5,167.5,409.0,168.0" stroke="black" stroke-width="2" fill="none" />
<polyline points="405.5,172.5,397.0,180.0" stroke="black" stroke-width="2" fill="none" />
<polyline points="387.0,172.5,379.5,180.0,372.0,187.5,364.0,195.5" stroke="black" stroke-width="2" fill="none" />
<polyline points="364.0,188.0,372.0,187.0,380.0,187.0,388.0,186.5,396.5,186.0,405.5,185.5,413.0,185.0,420.5,185.0,429.0,185.0,437.5,185.0,445.5,184.5,453.0,184.0,460.5,183.0,468.0,182.5,475.5,182.0" stroke="black" stroke-width="2" fill="none" />
<polyline points="435.0,133.0,426.5,140.5" stroke="black" stroke-width="2" fill="none" />
<polyline points="426.5,131.0,434.5,123.5" stroke="black" stroke-width="2" fill="none" />
<polyline points="426.5,116.5,418.5,124.0" stroke="black" stroke-width="2" fill="none" />
<polyline points="405.5,138.5,397.0,146.5" stroke="black" stroke-width="2" fill="none" />
<polyline points="388.5,148.0,396.0,147.5,404.0,147.0,412.0,147.0,420.5,147.5,429.0,147.0,436.5,146.5,444.0,146.0,451.5,145.0,459.0,144.5" stroke="black" stroke-width="2" fill="none" />
<polyline points="409.5,154.5,402.0,162.0" stroke="black" stroke-width="2" fill="none" />
<polyline points="388.5,157.5,396.5,156.5,404.5,156.0,412.5,156.0,420.5,155.5,428.0,155.5,436.0,155.0,444.5,154.5,452.5,154.0,460.5,154.5,468.0,154.0,476.0,153.0,483.0,152.5,491.0,151.5,499.0,150.5,507.0,150.0,515.0,149.0" stroke="black" stroke-width="2" fill="none" />
<polyline points="467.0,75.5,475.0,68.5" stroke="black" stroke-width="2" fill="none" />
<polyline points="476.0,61.0,484.0,54.0" stroke="black" stroke-width="2" fill="none" />
<polyline points="473.0,42.5,465.0,50.0" stroke="black" stroke-width="2" fill="none" />
<polyline points="459.5,50.5,451.5,58.5,443.5,66.0" stroke="black" stroke-width="2" fill="none" />
<polyline points="435.5,67.5,427.5,75.0" stroke="black" stroke-width="2" fill="none" />
<polyline points="427.0,85.0,419.0,92.5" stroke="black" stroke-width="2" fill="none" />
<polyline points="410.5,100.0,403.0,107.5" stroke="black" stroke-width="2" fill="none" />
<polyline points="396.5,106.5,388.0,114.0" stroke="black" stroke-width="2" fill="none" />
<polyline points="386.5,109.0,394.0,102.0" stroke="black" stroke-width="2" fill="none" />
<polyline points="377.5,102.5,385.0,102.0,393.5,101.5,401.5,101.0,409.5,100.0,417.5,99.0,425.5,98.5" stroke="black" stroke-width="2" fill="none" />
<polyline points="435.0,91.5,443.0,84.0" stroke="black" stroke-width="2" fill="none" />
<polyline points="437.0,95.0,445.0,94.0,453.5,93.5,461.5,93.0,469.0,93.0,476.5,92.5,484.0,92.0,491.5,91.5,499.0,91.0,506.5,90.0,514.5,89.5" stroke="black" stroke-width="2" fill="none" />
<polyline points="467.5,42.5,475.5,35.5" stroke="black" stroke-width="2" fill="none" />
<polyline points="475.0,22.0,467.5,28.5,459.5,36.0,452.0,43.5,444.0,51.0" stroke="black" stroke-width="2" fill="none" />
<polyline points="451.5,50.5,459.5,43.0" stroke="black" stroke-width="2" fill="none" />
<polyline points="451.5,34.5,443.5,42.0" stroke="black" stroke-width="2" fill="none" />
<polyline points="460.0,26.5,468.0,19.0,476.0,12.0,484.0,4.5" stroke="black" stroke-width="2" fill="none" />
<polyline points="467.0,3.0,459.0,10.5" stroke="black" stroke-width="2" fill="none" />
<polyline points="457.5,18.0,450.0,25.5" stroke="black" stroke-width="2" fill="none" />
<polyline points="443.5,18.5,451.0,11.0" stroke="black" stroke-width="2" fill="none" />
<polyline points="452.5,4.0,445.0,11.5,437.0,18.5,429.0,26.0" stroke="black" stroke-width="2" fill="none" />
<polyline points="420.5,12.5,428.0,5.0" stroke="black" stroke-width="2" fill="none" />
<polyline points="443.0,4.0,435.0,11.0,426.5,18.5,417.5,26.0,409.5,33.0,401.5,40.5" stroke="black" stroke-width="2" fill="none" />
<polyline points="397.5,42.0,405.5,34.0" stroke="black" stroke-width="2" fill="none" />
<polyline points="396.0,27.0,388.0,34.5" stroke="black" stroke-width="2" fill="none" />
<polyline points="379.5,36.5,372.0,44.0" stroke="black" stroke-width="2" fill="none" />
<polyline points="365.0,44.5,373.0,37.0" stroke="black" stroke-width="2" fill="none" />
<polyline points="363.5,34.5,355.0,42.0" stroke="black" stroke-width="2" fill="none" />
<polyline points="364.5,28.5,372.5,21.0" stroke="black" stroke-width="2" fill="none" />
<polyline points="364.0,17.5,356.0,25.0" stroke="black" stroke-width="2" fill="none" />
<polyline points="356.0,18.0,364.0,11.0" stroke="black" stroke-width="2" fill="none" />
<polyline points="387.5,21.0,395.5,13.5" stroke="black" stroke-width="2" fill="none" />
<polyline points="403.5,20.5,411.0,13.5" stroke="black" stroke-width="2" fill="none" />
<polyline points="412.5,43.5,405.0,51.0" stroke="black" stroke-width="2" fill="none" />
<polyline points="387.5,58.5,379.5,66.0,371.5,74.0,364.0,81.0,356.0,88.5" stroke="black" stroke-width="2" fill="none" />
<polyline points="355.0,95.5,363.0,88.0,371.0,80.0,378.5,73.0,386.5,65.5" stroke="black" stroke-width="2" fill="none" />
<polyline points="394.5,68.5,387.0,76.0,379.0,83.5,371.0,90.5,363.5,98.0" stroke="black" stroke-width="2" fill="none" />
<polyline points="349.5,91.0,357.5,84.0,366.0,76.5" stroke="black" stroke-width="2" fill="none" />
<polyline points="357.5,73.5,350.0,81.0,342.0,89.0" stroke="black" stroke-width="2" fill="none" />
<polyline points="339.0,89.5,347.5,89.5,355.0,88.5,363.5,87.5,372.0,87.5" stroke="black" stroke-width="2" fill="none" />
<polyline points="380.5,91.5,388.5,84.0" stroke="black" stroke-width="2" fill="none" />
<polyline points="387.0,74.0,378.5,74.5" stroke="black" stroke-width="2" fill="none" />
<polyline points="371.0,66.0,378.5,58.0" stroke="black" stroke-width="2" fill="none" />
<polyline points="370.5,59.0,362.5,66.5" stroke="black" stroke-width="2" fill="none" />
<polyline points="356.5,67.0,364.0,59.0" stroke="black" stroke-width="2" fill="none" />
<polyline points="356.0,58.5,348.0,66.0" stroke="black" stroke-width="2" fill="none" />
<polyline points="347.5,61.0,339.0,68.5" stroke="black" stroke-width="2" fill="none" />
<polyline points="340.5,76.0,332.5,83.0" stroke="black" stroke-width="2" fill="none" />
<polyline points="331.5,76.0,323.0,83.0,315.0,90.0" stroke="black" stroke-width="2" fill="none" />
<polyline points="315.0,80.5,323.5,73.5,332.0,66.5,340.0,59.0" stroke="black" stroke-width="2" fill="none" />
<polyline points="331.5,60.0,323.5,67.5,315.5,75.0,308.0,82.5" stroke="black" stroke-width="2" fill="none" />
<polyline points="300.0,81.5,308.0,74.5,316.0,67.0,324.0,60.0" stroke="black" stroke-width="2" fill="none" />
<polyline points="330.0,63.5,338.0,63.0,346.0,62.0,354.0,61.5,362.0,61.0,370.0,60.5,378.5,60.0,386.5,60.0" stroke="black" stroke-width="2" fill="none" />
<polyline points="388.5,80.0,380.5,80.5,372.5,81.0,364.0,81.0,356.0,81.0" stroke="black" stroke-width="2" fill="none" />
<polyline points="347.0,75.5,339.0,83.5,330.5,90.5" stroke="black" stroke-width="2" fill="none" />
<polyline points="330.0,92.5,338.5,92.0,347.0,91.0,355.0,91.0,363.0,90.5,370.5,90.0,378.5,90.0,387.0,89.5,395.0,89.5,403.0,89.0,411.0,88.5,419.0,88.0,426.5,87.0" stroke="black" stroke-width="2" fill="none" />
<polyline points="379.0,128.0,386.5,127.0,394.5,126.0,402.0,124.5,410.0,123.5,418.0,122.5,426.0,122.0,434.5,120.5,443.0,119.5,451.0,118.5,459.5,118.0,467.0,118.0,475.0,118.0,483.5,117.5,492.0,117.5,500.0,117.5,508.0,117.5,515.0,117.0" stroke="black" stroke-width="2" fill="none" />
<polyline points="513.5,167.0,505.5,167.0,498.0,167.5,489.5,168.5,481.5,169.0,473.5,169.0,465.5,170.0,457.5,170.5,449.5,170.5,441.5,170.5,433.5,170.5,425.5,170.0,417.5,170.5,409.5,170.5,401.5,170.5,393.5,170.5,386.0,171.5,378.0,172.0" stroke="black" stroke-width="2" fill="none" />
<polyline points="378.5,176.5,386.5,176.0" stroke="black" stroke-width="2" fill="none" />
<polyline points="393.5,164.0,385.5,164.5,377.0,165.0" stroke="black" stroke-width="2" fill="none" />
<polyline points="371.5,171.5,363.0,179.5" stroke="black" stroke-width="2" fill="none" />
<polyline points="358.0,176.0,365.5,175.5,373.5,175.0" stroke="black" stroke-width="2" fill="none" />
<polyline points="372.5,179.0,380.5,178.5,389.0,179.0,397.0,179.0,404.5,178.5,412.5,177.5" stroke="black" stroke-width="2" fill="none" />
<polyline points="386.5,191.5,379.0,191.5" stroke="black" stroke-width="2" fill="none" />
<polyline points="354.5,195.5,346.5,203.0,339.0,210.5,331.0,218.0,322.5,225.0" stroke="black" stroke-width="2" fill="none" />
<polyline points="322.0,219.0,314.5,226.5" stroke="black" stroke-width="2" fill="none" />
<polyline points="314.0,227.5,322.0,226.5,330.5,226.0,338.5,224.5" stroke="black" stroke-width="2" fill="none" />
<polyline points="341.0,219.5,333.0,227.0,324.0,234.5,315.5,241.5" stroke="black" stroke-width="2" fill="none" />
<polyline points="317.5,240.5,325.5,240.0" stroke="black" stroke-width="2" fill="none" />
<polyline points="323.5,242.5,315.5,250.0" stroke="black" stroke-width="2" fill="none" />
<polyline points="317.0,251.0,324.5,250.5" stroke="black" stroke-width="2" fill="none" />
<polyline points="317.0,246.0,325.5,245.5,333.5,245.5,341.0,245.0,349.0,244.0,356.5,243.5,364.0,243.5,371.5,243.0,379.0,242.0,386.5,241.5,394.5,241.0,402.5,241.0" stroke="black" stroke-width="2" fill="none" />
<polyline points="436.5,200.5,428.5,201.0,420.5,201.5,412.5,202.0,404.5,202.5,397.0,203.0,389.0,203.5,381.0,204.0,373.0,204.5,365.5,205.0,358.0,205.0" stroke="black" stroke-width="2" fill="none" />
<polyline points="356.0,193.5,348.5,194.0" stroke="black" stroke-width="2" fill="none" />
<polyline points="348.0,191.0,355.5,190.5" stroke="black" stroke-width="2" fill="none" />
<polyline points="353.0,188.5,345.0,196.0,337.0,204.0" stroke="black" stroke-width="2" fill="none" />
<polyline points="338.5,201.5,346.5,201.5,355.0,201.0" stroke="black" stroke-width="2" fill="none" />
<polyline points="357.0,186.5,349.0,187.0" stroke="black" stroke-width="2" fill="none" />
<polyline points="348.5,184.0,356.0,177.0,363.0,169.5,370.5,162.0,378.5,154.5" stroke="black" stroke-width="2" fill="none" />
<polyline points="370.0,154.0,362.0,161.5,354.5,169.0" stroke="black" stroke-width="2" fill="none" />
<polyline points="355.5,171.5,363.5,171.5,371.5,171.0" stroke="black" stroke-width="2" fill="none" />
<polyline points="364.0,157.0,356.0,165.0,348.5,172.5" stroke="black" stroke-width="2" fill="none" />
<polyline points="348.5,182.0,356.0,181.0" stroke="black" stroke-width="2" fill="none" />
<polyline points="340.5,186.5,332.5,194.0,324.5,201.5,316.5,209.0" stroke="black" stroke-width="2" fill="none" />
<polyline points="313.5,213.5,322.0,212.5" stroke="black" stroke-width="2" fill="none" />
<polyline points="322.0,218.0,314.0,218.5" stroke="black" stroke-width="2" fill="none" />
<polyline points="308.5,219.5,300.5,227.0,292.5,234.5" stroke="black" stroke-width="2" fill="none" />
<polyline points="291.0,234.5,298.5,234.0" stroke="black" stroke-width="2" fill="none" />
<polyline points="299.5,237.0,307.5,237.0,316.0,236.5,324.5,236.0" stroke="black" stroke-width="2" fill="none" />
<polyline points="323.0,234.5,330.5,234.0" stroke="black" stroke-width="2" fill="none" />
<polyline points="339.5,238.5,348.0,238.0,356.5,237.5,365.0,237.5,372.5,236.5,379.5,236.0,387.0,235.5,395.0,235.5,402.5,235.5,410.5,235.0" stroke="black" stroke-width="2" fill="none" />
<polyline points="443.5,209.0,435.5,209.0,428.0,209.5,420.0,210.5,411.0,211.0,402.5,211.0,394.5,211.5,386.5,211.5,378.5,212.0,370.0,212.0,362.0,212.0,353.5,212.5,345.5,213.5" stroke="black" stroke-width="2" fill="none" />
<polyline points="346.5,210.0,338.5,210.0" stroke="black" stroke-width="2" fill="none" />
<polyline points="338.5,209.0,347.0,208.5" stroke="black" stroke-width="2" fill="none" />
<polyline points="340.5,215.5,332.5,216.0" stroke="black" stroke-width="2" fill="none" />
<polyline points="332.5,213.5,340.5,213.0" stroke="black" stroke-width="2" fill="none" />
<polyline points="341.0,193.0,333.0,200.5,324.5,208.0,316.0,215.5,308.5,223.5" stroke="black" stroke-width="2" fill="none" />
<polyline points="315.5,230.0,323.5,230.0,332.0,229.5" stroke="black" stroke-width="2" fill="none" />
<polyline points="317.5,236.5,309.0,244.0" stroke="black" stroke-width="2" fill="none" />
<polyline points="307.0,235.5,299.0,243.0" stroke="black" stroke-width="2" fill="none" />
<polyline points="300.0,252.5,291.5,260.0,283.5,267.5" stroke="black" stroke-width="2" fill="none" />
<polyline points="281.0,267.0,289.5,266.5" stroke="black" stroke-width="2" fill="none" />
<polyline points="290.5,269.0,298.5,269.0,306.0,269.0" stroke="black" stroke-width="2" fill="none" />
<polyline points="308.5,263.0,300.5,263.5" stroke="black" stroke-width="2" fill="none" />
<polyline points="306.5,260.5,299.0,268.0,291.0,275.0" stroke="black" stroke-width="2" fill="none" />
<polyline points="300.0,274.0,308.0,266.5,316.0,258.5" stroke="black" stroke-width="2" fill="none" />
<polyline points="331.5,258.0,339.5,257.5,347.0,257.0,355.0,257.0" stroke="black" stroke-width="2" fill="none" />
<polyline points="307.0,285.0,299.5,293.0" stroke="black" stroke-width="2" fill="none" />
<polyline points="306.0,292.5,314.0,292.5,322.0,291.5,330.0,291.0,338.0,291.0,346.0,291.0" stroke="black" stroke-width="2" fill="none" />
<polyline points="307.0,283.5,299.0,284.0" stroke="black" stroke-width="2" fill="none" />
<polyline points="290.0,277.5,282.0,278.0" stroke="black" stroke-width="2" fill="none" />
<polyline points="276.5,267.5,268.5,275.0" stroke="black" stroke-width="2" fill="none" />
<polyline points="266.5,271.0,274.5,270.5" stroke="black" stroke-width="2" fill="none" />
<polyline points="282.0,263.0,290.0,262.0,298.0,260.5,306.0,259.5,314.0,259.0,322.0,259.0,330.5,258.0,339.0,257.5,347.5,257.5,355.5,257.0,363.5,257.0,371.5,257.0,380.0,256.5,387.5,256.0" stroke="black" stroke-width="2" fill="none" />
<polyline points="339.0,181.5,331.5,189.0,323.0,196.0,315.0,203.5,307.5,210.5" stroke="black" stroke-width="2" fill="none" />
<polyline points="299.0,210.5,307.0,210.0,315.0,209.5,323.0,209.0,331.5,208.5" stroke="black" stroke-width="2" fill="none" />
<polyline points="331.5,179.5,339.5,179.0" stroke="black" stroke-width="2" fill="none" />
<polyline points="340.0,173.0,332.0,173.5" stroke="black" stroke-width="2" fill="none" />
<polyline points="323.0,173.5,315.0,181.0,307.0,188.0,299.5,195.5,291.5,203.5" stroke="black" stroke-width="2" fill="none" />
<polyline points="298.5,206.0,306.5,205.5,315.0,204.5,323.5,204.0,331.0,203.5" stroke="black" stroke-width="2" fill="none" />
<polyline points="323.5,180.0,316.0,187.5,308.0,194.5,300.0,201.5" stroke="black" stroke-width="2" fill="none" />
<polyline points="293.0,212.0,284.5,219.0,276.5,226.0" stroke="black" stroke-width="2" fill="none" />
<polyline points="283.0,224.0,290.5,216.5,298.5,209.5,307.0,202.0,314.5,195.0,322.5,187.5,330.5,179.5,338.0,171.5,346.0,163.5,354.0,156.0" stroke="black" stroke-width="2" fill="none" />
<polyline points="356.0,152.5,348.0,152.5" stroke="black" stroke-width="2" fill="none" />
<polyline points="347.0,149.0,355.0,148.5,363.5,148.0,372.0,147.5" stroke="black" stroke-width="2" fill="none" />
<polyline points="377.0,144.0,385.5,142.5,393.5,141.0,402.0,140.0,411.0,139.0,419.5,138.5,427.5,137.5,436.0,137.0,444.0,136.5,452.5,135.5,461.0,135.0,469.0,134.5,476.5,134.0,484.0,133.5,491.5,133.5,499.0,133.5,507.0,133.0,515.0,133.0" stroke="black" stroke-width="2" fill="none" />
<polyline points="476.0,110.5,468.0,110.5,460.0,111.5,452.0,112.5,444.0,113.0,436.0,113.5,427.5,113.5,419.5,114.0,412.0,114.0,404.0,114.0,396.0,114.5,388.5,114.5,380.5,115.0,373.5,115.5,365.0,116.0" stroke="black" stroke-width="2" fill="none" />
<polyline points="354.5,116.5,347.0,116.5" stroke="black" stroke-width="2" fill="none" />
<polyline points="339.5,125.5,347.5,125.0,355.5,124.5,364.0,124.5,372.0,124.0" stroke="black" stroke-width="2" fill="none" />
<polyline points="354.0,133.0,362.0,132.5,370.0,132.0,378.0,131.5,386.0,131.5,394.5,131.0,402.5,129.5,411.0,128.0,419.5,127.0,428.0,127.0,436.0,126.5,444.0,125.5,452.0,125.5,460.0,125.5,468.5,124.5,476.5,124.0,484.5,124.0,492.5,123.0,500.0,122.5,507.5,122.0,515.0,121.5" stroke="black" stroke-width="2" fill="none" />
<polyline points="357.5,139.5,349.0,146.5" stroke="black" stroke-width="2" fill="none" />
<polyline points="348.5,139.5,356.0,139.0" stroke="black" stroke-width="2" fill="none" />
<polyline points="356.5,147.5,349.0,155.0,341.0,162.5" stroke="black" stroke-width="2" fill="none" />
<polyline points="340.0,163.0,347.5,162.0,356.0,161.5,364.0,160.0,372.5,159.0,381.0,159.0" stroke="black" stroke-width="2" fill="none" />
<polyline points="364.5,166.0,356.0,166.0,348.0,166.0,340.0,166.5" stroke="black" stroke-width="2" fill="none" />
<polyline points="339.0,164.5,347.0,163.5,354.5,163.5,362.5,163.5,370.5,163.0" stroke="black" stroke-width="2" fill="none" />
<polyline points="379.5,155.5,371.0,156.0,362.5,156.0,354.5,156.5,346.0,157.0,338.0,157.5" stroke="black" stroke-width="2" fill="none" />
<polyline points="323.5,163.0,315.5,171.0,307.5,179.0,300.0,186.5,292.5,194.5,285.0,201.5,276.5,209.0,268.0,216.5" stroke="black" stroke-width="2" fill="none" />
<polyline points="268.0,221.5,276.0,221.0,284.0,220.5,292.5,220.0" stroke="black" stroke-width="2" fill="none" />
<polyline points="299.0,222.0,306.5,222.0,314.5,221.5,323.0,221.0,331.5,220.5,339.5,220.0" stroke="black" stroke-width="2" fill="none" />
<polyline points="307.5,226.0,299.0,226.5" stroke="black" stroke-width="2" fill="none" />
<polyline points="292.0,228.5,284.5,236.0" stroke="black" stroke-width="2" fill="none" />
<polyline points="284.5,229.5,292.5,228.5,300.0,228.0,307.0,227.5" stroke="black" stroke-width="2" fill="none" />
<polyline points="300.5,215.5,292.5,216.0,285.0,217.0" stroke="black" stroke-width="2" fill="none" />
<polyline points="283.5,213.5,291.5,213.0,299.5,212.0,307.5,211.5" stroke="black" stroke-width="2" fill="none" />
<polyline points="275.5,219.0,267.5,227.0" stroke="black" stroke-width="2" fill="none" />
<polyline points="267.0,228.0,275.5,227.5" stroke="black" stroke-width="2" fill="none" />
<polyline points="283.0,223.0,275.0,223.0,267.0,223.5" stroke="black" stroke-width="2" fill="none" />
<polyline points="260.0,217.5,268.5,209.5,277.5,202.0,285.5,194.5,293.5,186.5,301.0,179.0,309.0,171.5" stroke="black" stroke-width="2" fill="none" />
<polyline points="313.5,170.0,321.5,169.5" stroke="black" stroke-width="2" fill="none" />
<polyline points="322.5,167.0,314.5,167.5" stroke="black" stroke-width="2" fill="none" />
<polyline points="310.0,163.0,302.0,170.5,293.5,178.0,285.0,185.5,276.5,192.5,268.0,199.5" stroke="black" stroke-width="2" fill="none" />
<polyline points="269.5,202.0,277.5,201.5,285.5,200.5,293.0,200.0,300.0,199.5,307.5,199.5,315.5,198.5,323.5,198.0,331.5,198.0" stroke="black" stroke-width="2" fill="none" />
<polyline points="323.5,176.5,316.0,177.0,308.0,177.5,300.0,178.0" stroke="black" stroke-width="2" fill="none" />
<polyline points="293.5,163.5,285.5,171.0,277.0,178.5,268.5,186.0,260.0,194.0,251.5,201.5,243.0,208.5" stroke="black" stroke-width="2" fill="none" />
<polyline points="242.5,210.5,250.5,210.0,259.0,209.5" stroke="black" stroke-width="2" fill="none" />
<polyline points="258.5,216.5,266.5,216.0" stroke="black" stroke-width="2" fill="none" />
<polyline points="268.5,211.0,277.0,210.5,284.5,210.5" stroke="black" stroke-width="2" fill="none" />
<polyline points="284.5,205.5,276.0,205.5,268.5,205.5" stroke="black" stroke-width="2" fill="none" />
<polyline points="269.5,196.0,261.0,203.5,252.0,211.0" stroke="black" stroke-width="2" fill="none" />
<polyline points="251.5,213.5,260.0,213.0,268.5,212.5,276.5,211.5" stroke="black" stroke-width="2" fill="none" />
<polyline points="276.5,194.5,284.5,194.0,293.0,192.5,301.0,192.0,308.5,192.0,316.5,191.5,324.5,190.5,332.5,190.5,340.0,190.0" stroke="black" stroke-width="2" fill="none" />
<polyline points="310.5,154.5,302.5,162.0,293.5,169.0,285.0,176.5,276.5,184.0" stroke="black" stroke-width="2" fill="none" />
<polyline points="276.0,170.5,284.0,170.0,292.0,169.5,300.0,169.5,307.5,169.0" stroke="black" stroke-width="2" fill="none" />
<polyline points="307.0,161.0,299.5,161.5" stroke="black" stroke-width="2" fill="none" />
<polyline points="300.5,157.5,308.5,156.5" stroke="black" stroke-width="2" fill="none" />
<polyline points="315.0,147.0,323.0,146.5" stroke="black" stroke-width="2" fill="none" />
<polyline points="315.5,145.0,324.0,138.0" stroke="black" stroke-width="2" fill="none" />
<polyline points="321.0,132.5,329.0,132.5" stroke="black" stroke-width="2" fill="none" />
<polyline points="331.0,124.5,323.0,124.5" stroke="black" stroke-width="2" fill="none" />
<polyline points="327.0,117.5,334.5,117.0,342.0,115.5" stroke="black" stroke-width="2" fill="none" />
<polyline points="331.5,107.5,323.5,115.0" stroke="black" stroke-width="2" fill="none" />
<polyline points="316.0,111.0,324.0,111.0,332.5,110.5,340.5,110.0,348.5,109.0,356.5,108.5,364.5,108.0,373.0,107.5,381.5,107.0,390.0,106.0,398.0,105.5,406.0,105.0,413.5,104.5,421.0,103.5,429.0,102.5,437.0,101.0,445.0,100.5,452.5,100.0,460.5,99.0,469.0,98.5,477.0,98.0,485.5,97.5,492.5,97.0,500.5,96.5,508.0,96.5,516.0,96.0" stroke="black" stroke-width="2" fill="none" />
<polyline points="372.0,100.0,364.5,100.0,356.0,100.5,347.5,101.0,339.0,101.5,331.0,102.0" stroke="black" stroke-width="2" fill="none" />
<polyline points="324.0,100.5,316.0,101.5" stroke="black" stroke-width="2" fill="none" />
<polyline points="315.0,113.5,307.0,121.0" stroke="black" stroke-width="2" fill="none" />
<polyline points="306.0,118.0,298.0,125.0,290.0,132.0" stroke="black" stroke-width="2" fill="none" />
<polyline points="289.5,135.5,297.5,135.0,305.5,134.0,313.5,133.0" stroke="black" stroke-width="2" fill="none" />
<polyline points="315.5,131.5,307.5,138.5,299.5,145.5" stroke="black" stroke-width="2" fill="none" />
<polyline points="300.5,145.5,308.5,145.0" stroke="black" stroke-width="2" fill="none" />
<polyline points="299.5,142.5,307.5,141.5,315.5,141.0,324.0,140.5,333.0,140.0" stroke="black" stroke-width="2" fill="none" />
<polyline points="307.5,132.5,299.0,139.5" stroke="black" stroke-width="2" fill="none" />
<polyline points="298.5,138.0,307.0,137.5" stroke="black" stroke-width="2" fill="none" />
<polyline points="292.0,149.0,284.5,156.5,277.0,163.0" stroke="black" stroke-width="2" fill="none" />
<polyline points="275.0,156.5,267.0,164.0,259.0,171.5,250.5,178.5,242.5,185.5,234.0,192.5" stroke="black" stroke-width="2" fill="none" />
<polyline points="237.0,194.0,245.0,193.0,252.5,192.5,260.0,192.0,267.5,192.0" stroke="black" stroke-width="2" fill="none" />
<polyline points="251.0,195.0,259.5,187.5,267.5,179.5,275.5,172.0,283.5,164.5,291.0,157.5" stroke="black" stroke-width="2" fill="none" />
<polyline points="290.5,153.0,282.5,152.5" stroke="black" stroke-width="2" fill="none" />
<polyline points="284.5,148.5,292.0,148.0" stroke="black" stroke-width="2" fill="none" />
<polyline points="275.0,147.5,267.0,155.0,259.0,162.5,251.5,170.0,243.5,177.5,235.5,185.0" stroke="black" stroke-width="2" fill="none" />
<polyline points="235.0,187.0,243.0,186.0,251.5,185.5,259.5,184.5,267.5,183.0,275.5,182.0,283.5,181.0,291.5,181.0,299.0,180.5,306.5,180.0,314.5,179.5,322.5,179.0,331.0,178.5,339.0,178.5" stroke="black" stroke-width="2" fill="none" />
<polyline points="267.0,173.5,259.0,181.0,251.5,188.0,244.0,195.5,237.0,203.0" stroke="black" stroke-width="2" fill="none" />
<polyline points="238.5,201.0,245.5,201.0" stroke="black" stroke-width="2" fill="none" />
<polyline points="243.0,206.0,251.0,205.5,258.5,205.0" stroke="black" stroke-width="2" fill="none" />
<polyline points="260.0,202.5,252.0,203.0" stroke="black" stroke-width="2" fill="none" />
<polyline points="251.0,198.5,259.0,198.0,267.0,197.0,275.0,196.0,283.0,195.5,291.5,195.0,299.5,194.5,307.5,193.5,315.5,193.0,324.0,192.0,332.5,191.5,340.0,191.0,348.0,190.5,355.5,190.0,363.5,190.0,371.0,190.0,379.5,190.0,387.5,190.0,395.5,190.0,403.0,189.5,411.0,189.0,419.0,188.5,427.0,188.0,435.5,188.0" stroke="black" stroke-width="2" fill="none" />
<polyline points="469.0,294.5,476.5,294.0" stroke="black" stroke-width="2" fill="none" />
<polyline points="298.5,258.0,290.5,258.5" stroke="black" stroke-width="2" fill="none" />
<polyline points="298.0,252.0,290.0,252.5,282.0,252.5" stroke="black" stroke-width="2" fill="none" />
<polyline points="276.0,250.5,268.0,258.0" stroke="black" stroke-width="2" fill="none" />
<polyline points="265.5,260.0,274.0,259.5" stroke="black" stroke-width="2" fill="none" />
<polyline points="275.0,246.0,283.0,245.5,291.0,245.0" stroke="black" stroke-width="2" fill="none" />
<polyline points="275.5,251.5,267.5,252.0,259.0,252.5" stroke="black" stroke-width="2" fill="none" />
<polyline points="259.0,260.5,250.5,261.0" stroke="black" stroke-width="2" fill="none" />
<polyline points="244.5,250.0,252.0,242.5" stroke="black" stroke-width="2" fill="none" />
<polyline points="252.0,236.0,244.0,243.5" stroke="black" stroke-width="2" fill="none" />
<polyline points="243.0,241.5,251.0,241.0" stroke="black" stroke-width="2" fill="none" />
<polyline points="244.5,239.0,252.5,239.0,260.5,238.5" stroke="black" stroke-width="2" fill="none" />
<polyline points="259.5,226.5,251.5,227.0" stroke="black" stroke-width="2" fill="none" />
<polyline points="236.5,227.5,228.0,234.5" stroke="black" stroke-width="2" fill="none" />
<polyline points="228.5,227.5,236.5,227.0" stroke="black" stroke-width="2" fill="none" />
<polyline points="236.5,221.5,244.0,221.0" stroke="black" stroke-width="2" fill="none" />
<polyline points="227.5,212.0,219.5,219.0,211.5,226.5" stroke="black" stroke-width="2" fill="none" />
<polyline points="211.5,225.0,219.5,224.5" stroke="black" stroke-width="2" fill="none" />
<polyline points="218.5,228.0,211.0,228.5" stroke="black" stroke-width="2" fill="none" />
<polyline points="214.0,222.0,221.5,222.0" stroke="black" stroke-width="2" fill="none" />
<polyline points="217.5,213.0,225.5,212.5,233.5,211.5" stroke="black" stroke-width="2" fill="none" />
<polyline points="228.5,197.0,236.5,196.5,244.5,196.0" stroke="black" stroke-width="2" fill="none" />
<polyline points="236.5,189.0,244.5,188.5,252.5,188.0,260.5,187.5,268.0,187.0,275.5,186.5,284.0,186.0,291.5,185.5,299.5,184.5,307.0,184.0,315.0,183.5,323.5,183.0,331.5,182.5,340.0,182.5" stroke="black" stroke-width="2" fill="none" />
<polyline points="315.0,121.5,307.0,122.0,299.0,122.5,291.0,123.0" stroke="black" stroke-width="2" fill="none" />
<polyline points="291.5,117.0,300.0,116.5,307.5,116.0,315.5,116.5" stroke="black" stroke-width="2" fill="none" />
<polyline points="298.5,114.5,290.0,122.5,282.0,130.0" stroke="black" stroke-width="2" fill="none" />
<polyline points="284.0,129.0,292.5,128.0,301.0,127.0" stroke="black" stroke-width="2" fill="none" />
<polyline points="283.5,123.0,275.0,130.5" stroke="black" stroke-width="2" fill="none" />
<polyline points="277.0,126.0,284.5,125.5,292.0,125.5,299.5,126.0" stroke="black" stroke-width="2" fill="none" />
<polyline points="283.0,114.5,290.5,107.5" stroke="black" stroke-width="2" fill="none" />
<polyline points="293.0,108.0,285.5,108.0" stroke="black" stroke-width="2" fill="none" />
<polyline points="276.5,107.5,268.5,115.0" stroke="black" stroke-width="2" fill="none" />
<polyline points="268.5,114.0,276.5,114.0" stroke="black" stroke-width="2" fill="none" />
<polyline points="275.5,119.0,283.5,118.5" stroke="black" stroke-width="2" fill="none" />
<polyline points="274.5,110.0,266.5,111.0" stroke="black" stroke-width="2" fill="none" />
<polyline points="258.0,108.0,250.0,115.5" stroke="black" stroke-width="2" fill="none" />
<polyline points="251.0,116.5,259.0,115.5" stroke="black" stroke-width="2" fill="none" />
<polyline points="258.5,117.0,250.0,125.0" stroke="black" stroke-width="2" fill="none" />
<polyline points="251.5,119.5,260.0,119.0" stroke="black" stroke-width="2" fill="none" />
<polyline points="261.0,116.5,253.0,116.5" stroke="black" stroke-width="2" fill="none" />
<polyline points="259.0,108.5,251.0,109.0,243.0,109.0" stroke="black" stroke-width="2" fill="none" />
<polyline points="241.5,105.5,249.0,98.0" stroke="black" stroke-width="2" fill="none" />
<polyline points="245.5,96.5,253.5,96.0" stroke="black" stroke-width="2" fill="none" />
<polyline points="257.5,94.0,265.0,93.5" stroke="black" stroke-width="2" fill="none" />
<polyline points="267.5,87.0,276.0,86.0,283.0,85.0,290.5,84.5,298.5,83.5,306.5,83.0,314.5,82.5,322.0,82.5,330.0,82.5,338.5,82.5,347.0,82.0,355.0,81.5,363.0,81.0,371.0,80.5,379.0,79.5,387.0,79.0,395.5,78.5,404.0,78.0,412.5,77.5,421.5,76.5,430.0,76.5,438.0,76.0,445.5,75.0,453.0,74.5,461.0,74.0,469.0,73.0,477.0,72.5,484.0,73.0,491.5,72.5,499.5,72.0,507.5,71.5,516.0,71.0" stroke="black" stroke-width="2" fill="none" />
<polyline points="339.0,32.5,331.0,40.5" stroke="black" stroke-width="2" fill="none" />
<polyline points="323.0,42.0,330.0,34.5,338.0,27.0" stroke="black" stroke-width="2" fill="none" />
<polyline points="331.0,26.5,338.5,19.0" stroke="black" stroke-width="2" fill="none" />
<polyline points="323.5,18.0,315.5,25.5" stroke="black" stroke-width="2" fill="none" />
<polyline points="308.0,25.5,300.0,33.5,291.5,41.0" stroke="black" stroke-width="2" fill="none" />
<polyline points="299.5,44.0,291.5,51.5,283.5,59.5,275.0,67.0,266.5,74.5,258.0,82.0" stroke="black" stroke-width="2" fill="none" />
<polyline points="252.0,82.0,244.0,90.0" stroke="black" stroke-width="2" fill="none" />
<polyline points="243.0,87.5,251.0,87.0" stroke="black" stroke-width="2" fill="none" />
<polyline points="251.0,89.5,243.5,97.5" stroke="black" stroke-width="2" fill="none" />
<polyline points="243.5,94.5,251.5,94.0" stroke="black" stroke-width="2" fill="none" />
<polyline points="259.0,102.0,267.0,101.0" stroke="black" stroke-width="2" fill="none" />
<polyline points="284.5,94.0,292.5,93.0,300.5,92.5,308.5,92.0,316.0,92.0,323.5,91.0" stroke="black" stroke-width="2" fill="none" />
<polyline points="306.0,102.0,298.0,102.5" stroke="black" stroke-width="2" fill="none" />
<polyline points="291.0,82.5,298.5,75.5,306.0,68.0,314.0,60.5" stroke="black" stroke-width="2" fill="none" />
<polyline points="306.0,60.5,298.0,68.0,290.5,75.0,282.5,82.5" stroke="black" stroke-width="2" fill="none" />
<polyline points="282.5,82.0,291.0,81.5,299.5,81.5,308.0,80.5,316.0,79.0,324.5,78.0,332.0,77.5,339.5,77.0" stroke="black" stroke-width="2" fill="none" />
<polyline points="297.0,58.0,290.0,65.5,282.5,73.0,275.0,80.5" stroke="black" stroke-width="2" fill="none" />
<polyline points="267.0,81.5,275.0,73.5,283.0,66.0,290.5,58.5" stroke="black" stroke-width="2" fill="none" />
<polyline points="290.0,59.0,282.0,59.0" stroke="black" stroke-width="2" fill="none" />
<polyline points="276.0,58.5,268.0,66.5,260.0,74.5" stroke="black" stroke-width="2" fill="none" />
<polyline points="250.0,75.0,258.5,74.5,266.5,74.0,275.0,73.5,283.5,73.5,292.0,73.0,300.0,72.0,307.5,71.5,315.0,70.5" stroke="black" stroke-width="2" fill="none" />
<polyline points="315.5,35.5,323.5,28.5" stroke="black" stroke-width="2" fill="none" />
<polyline points="314.0,17.0,322.5,9.0" stroke="black" stroke-width="2" fill="none" />
<polyline points="308.0,3.0,300.0,10.5" stroke="black" stroke-width="2" fill="none" />
<polyline points="292.0,3.5,284.0,11.5,276.0,18.5,268.0,26.0" stroke="black" stroke-width="2" fill="none" />
<polyline points="268.0,35.0,275.0,27.5,283.0,20.5" stroke="black" stroke-width="2" fill="none" />
<polyline points="277.0,12.5,269.0,20.0" stroke="black" stroke-width="2" fill="none" />
<polyline points="266.5,12.5,258.5,20.0,251.0,27.5" stroke="black" stroke-width="2" fill="none" />
<polyline points="259.0,30.5,251.5,37.5" stroke="black" stroke-width="2" fill="none" />
<polyline points="244.5,44.0,236.0,51.5,228.0,59.0,220.0,66.5,212.0,74.0,204.5,81.0" stroke="black" stroke-width="2" fill="none" />
<polyline points="205.0,79.0,212.5,78.5,220.0,77.0" stroke="black" stroke-width="2" fill="none" />
<polyline points="213.5,74.5,221.0,73.5,229.0,72.5" stroke="black" stroke-width="2" fill="none" />
<polyline points="229.0,78.5,237.0,78.5,245.0,78.0,253.5,77.5,261.5,76.5,269.0,76.5,277.0,75.5,284.5,74.0,292.0,73.0,300.0,73.0,308.0,72.5,316.0,71.5,323.5,70.5,331.5,70.5,340.0,70.5,347.5,69.5,355.5,69.0,363.5,68.0,372.0,67.5,380.5,67.0,388.0,67.0,396.5,66.0,405.0,65.0,413.0,64.5,420.5,64.5,428.5,64.5,436.5,64.5,444.5,64.5,452.5,64.5,460.0,65.0,468.0,64.0,476.0,64.0,484.5,63.5,492.5,63.0,500.5,62.0,508.5,61.5,516.5,61.0" stroke="black" stroke-width="2" fill="none" />
<polyline points="300.5,21.5,292.0,29.0,284.0,37.0,276.0,44.0" stroke="black" stroke-width="2" fill="none" />
<polyline points="273.5,39.0,281.0,38.5,288.5,38.5,297.0,37.5,306.0,36.0,314.5,35.5,322.5,35.0,331.0,34.5,339.5,34.0,347.5,33.5,356.0,33.0,364.0,32.5,372.0,32.0,379.5,31.5,387.0,30.5,394.5,29.5,402.5,28.5,410.5,27.5,418.0,26.5,426.0,26.0,434.0,25.5,442.0,25.0,450.0,24.0,458.0,23.5,466.0,23.0,474.0,22.5,482.5,22.0,490.5,22.0,499.0,22.0,507.0,22.0,515.5,22.0" stroke="black" stroke-width="2" fill="none" />
<polyline points="269.5,58.0,261.5,66.0,253.0,74.0,244.5,82.0" stroke="black" stroke-width="2" fill="none" />
<polyline points="235.0,76.5,227.0,84.0,219.0,91.5" stroke="black" stroke-width="2" fill="none" />
<polyline points="223.0,89.5,230.5,89.0,238.0,88.5" stroke="black" stroke-width="2" fill="none" />
<polyline points="226.5,88.0,234.5,80.5,243.0,73.5,251.0,66.5,259.5,59.0,267.5,51.5" stroke="black" stroke-width="2" fill="none" />
<polyline points="267.0,43.0,258.5,50.0,250.0,57.5,241.5,65.0" stroke="black" stroke-width="2" fill="none" />
<polyline points="244.0,65.0,251.5,64.5,260.0,64.0,268.5,63.5,276.5,63.0,285.0,62.5,293.0,62.5,301.0,62.5" stroke="black" stroke-width="2" fill="none" />
<polyline points="251.5,52.0,243.0,59.5,235.0,67.5" stroke="black" stroke-width="2" fill="none" />
<polyline points="228.5,81.0,236.0,81.0,244.0,81.0" stroke="black" stroke-width="2" fill="none" />
<polyline points="249.5,100.5,241.0,101.0,233.0,101.5" stroke="black" stroke-width="2" fill="none" />
<polyline points="226.0,116.0,218.0,123.5,210.0,131.0,202.0,138.5,194.0,146.5,186.0,154.0,178.0,162.0" stroke="black" stroke-width="2" fill="none" />
<polyline points="180.5,165.5,188.0,165.0,196.0,164.5,203.5,164.5,211.0,164.0,219.0,164.0,227.0,163.0,234.5,162.5" stroke="black" stroke-width="2" fill="none" />
<polyline points="242.5,163.5,250.0,156.0,257.5,149.0,265.5,141.5" stroke="black" stroke-width="2" fill="none" />
<polyline points="268.0,135.0,259.5,135.0" stroke="black" stroke-width="2" fill="none" />
<polyline points="267.0,132.0,259.0,139.5,251.0,146.5,243.0,154.0,235.0,161.5,227.0,168.5,219.5,176.0" stroke="black" stroke-width="2" fill="none" />
<polyline points="211.0,176.5,219.5,169.5,228.0,162.5,236.0,155.5,244.0,148.5,252.0,141.5" stroke="black" stroke-width="2" fill="none" />
<polyline points="253.0,152.0,260.5,151.5,268.5,151.5" stroke="black" stroke-width="2" fill="none" />
<polyline points="276.0,139.0,268.0,146.0,260.5,153.5,252.5,161.5,244.0,170.0,236.0,177.5,228.0,185.5" stroke="black" stroke-width="2" fill="none" />
<polyline points="228.5,181.5,237.0,181.0,245.0,180.5,253.0,180.5,261.0,180.0,269.0,179.5,277.0,179.0,284.0,179.0,292.0,178.5,300.0,178.5,308.0,178.0,316.0,177.5,323.0,176.5,330.5,175.5,338.5,174.5" stroke="black" stroke-width="2" fill="none" />
<polyline points="284.0,175.5,275.5,175.5,267.5,175.5,260.0,176.5,252.0,177.5" stroke="black" stroke-width="2" fill="none" />
<polyline points="242.5,170.0,250.5,169.5,259.0,169.0,266.5,168.5" stroke="black" stroke-width="2" fill="none" />
<polyline points="242.0,165.5,250.0,164.5,258.0,164.5,266.0,163.5,273.5,162.5,281.5,162.0,289.0,161.5,297.5,161.5,305.5,161.0" stroke="black" stroke-width="2" fill="none" />
<polyline points="251.0,131.0,243.0,139.0,235.5,147.0,227.5,154.5,219.5,162.5,212.0,170.0,204.5,177.5" stroke="black" stroke-width="2" fill="none" />
<polyline points="202.0,177.0,210.0,177.0,218.0,177.0,226.0,176.5,234.5,175.5,243.0,175.0" stroke="black" stroke-width="2" fill="none" />
<polyline points="234.5,172.5,227.0,180.0" stroke="black" stroke-width="2" fill="none" />
<polyline points="204.0,174.0,212.5,173.5,220.5,173.5,228.5,173.0,236.0,172.5,244.0,172.0,251.5,172.0,259.0,172.0,267.0,172.0,275.0,171.0,283.0,170.5,291.0,170.0,299.0,168.5,307.0,167.5,315.0,167.0,323.5,166.5" stroke="black" stroke-width="2" fill="none" />
<polyline points="242.5,134.5,234.5,142.0,227.0,149.0,219.5,156.0,212.0,162.5,203.5,170.0" stroke="black" stroke-width="2" fill="none" />
<polyline points="195.5,170.0,203.5,162.5,211.5,155.0,219.0,148.0,226.5,140.0,234.5,132.0,242.5,124.5" stroke="black" stroke-width="2" fill="none" />
<polyline points="245.0,130.5,236.5,131.5" stroke="black" stroke-width="2" fill="none" />
<polyline points="234.0,125.5,242.5,125.0" stroke="black" stroke-width="2" fill="none" />
<polyline points="226.5,123.5,218.5,131.0,210.5,138.5,202.5,146.5,194.5,154.0,186.5,161.0,179.0,169.0" stroke="black" stroke-width="2" fill="none" />
<polyline points="186.5,170.0,194.0,162.5,202.5,155.0,210.5,147.5,218.5,139.5,226.5,132.0" stroke="black" stroke-width="2" fill="none" />
<polyline points="218.0,136.5,226.5,136.0,234.5,136.0,242.5,136.0,250.5,136.0" stroke="black" stroke-width="2" fill="none" />
<polyline points="229.5,120.0,221.5,121.0" stroke="black" stroke-width="2" fill="none" />
<polyline points="221.5,116.5,229.0,116.0" stroke="black" stroke-width="2" fill="none" />
<polyline points="210.0,122.5,202.0,130.0,194.5,137.5,186.5,145.0,179.0,153.0,171.5,160.5" stroke="black" stroke-width="2" fill="none" />
<polyline points="170.5,160.5,178.5,160.5,186.0,160.0,194.0,160.0,202.5,159.5,211.0,159.0,220.0,159.0,229.0,158.0,238.0,157.0,246.5,157.0,255.0,156.5,262.5,156.0,270.0,155.5,277.5,155.0,285.5,154.5,293.0,154.0" stroke="black" stroke-width="2" fill="none" />
<polyline points="204.0,122.0,195.5,129.5,187.0,137.5,178.5,145.0,171.0,152.5" stroke="black" stroke-width="2" fill="none" />
<polyline points="169.5,153.5,177.5,153.5,186.5,152.5,195.0,152.0,203.5,152.0,211.5,151.0,219.5,150.5,227.0,150.0,235.0,149.5" stroke="black" stroke-width="2" fill="none" />
<polyline points="211.5,114.5,203.5,115.5" stroke="black" stroke-width="2" fill="none" />
<polyline points="202.0,111.5,210.5,110.5" stroke="black" stroke-width="2" fill="none" />
<polyline points="210.5,105.5,202.5,113.0,195.0,120.5,187.0,128.5" stroke="black" stroke-width="2" fill="none" />
<polyline points="189.5,130.0,197.5,130.0,205.5,129.0,213.5,128.0,222.0,126.5,230.0,125.5" stroke="black" stroke-width="2" fill="none" />
<polyline points="196.5,113.5,188.5,121.5,180.0,129.5,171.5,137.5" stroke="black" stroke-width="2" fill="none" />
<polyline points="170.5,141.5,179.0,140.5,187.0,140.5,195.5,140.0,204.0,140.0,212.0,139.5,220.0,139.0,228.5,138.0,236.5,137.5,244.0,136.5,251.5,136.0,259.5,135.5,268.0,135.0,275.5,134.5" stroke="black" stroke-width="2" fill="none" />
<polyline points="235.0,84.0,226.5,85.0,218.0,85.5" stroke="black" stroke-width="2" fill="none" />
<polyline points="212.0,82.5,219.0,75.5,226.5,68.5,234.0,61.0,242.5,53.5" stroke="black" stroke-width="2" fill="none" />
<polyline points="226.5,53.0,218.5,60.5,210.5,67.5" stroke="black" stroke-width="2" fill="none" />
<polyline points="204.5,66.5,212.5,65.5,221.0,64.0,229.0,63.0,236.5,62.0" stroke="black" stroke-width="2" fill="none" />
<polyline points="235.5,37.0,227.5,44.5,219.5,51.5,211.5,58.5,203.5,65.5,195.5,72.5" stroke="black" stroke-width="2" fill="none" />
<polyline points="196.0,74.0,204.5,73.5" stroke="black" stroke-width="2" fill="none" />
<polyline points="203.0,83.5,211.0,83.0,219.0,82.0" stroke="black" stroke-width="2" fill="none" />
<polyline points="196.5,97.5,188.0,105.0,180.0,113.0,171.5,121.5,163.5,130.0" stroke="black" stroke-width="2" fill="none" />
<polyline points="163.0,133.5,171.5,132.5,179.5,132.0,187.0,131.5,194.5,131.5,202.5,131.0,210.5,131.0,218.5,131.5,226.5,131.0,234.5,131.0,242.0,130.5,250.5,129.5,258.5,128.5,266.5,127.5" stroke="black" stroke-width="2" fill="none" />
<polyline points="198.0,106.0,190.0,113.5,181.5,121.0,173.0,129.0,164.5,137.0" stroke="black" stroke-width="2" fill="none" />
<polyline points="162.0,138.0,170.5,138.0" stroke="black" stroke-width="2" fill="none" />
<polyline points="163.0,147.0,155.0,155.0" stroke="black" stroke-width="2" fill="none" />
<polyline points="154.5,151.0,163.0,150.5" stroke="black" stroke-width="2" fill="none" />
<polyline points="169.0,151.0,177.0,150.5,185.0,149.5,193.0,149.0,201.5,148.5,209.5,148.0,218.0,147.0,226.5,146.0,234.5,145.0,242.5,144.5,251.0,143.5,258.5,143.0,266.0,142.5,274.5,142.5" stroke="black" stroke-width="2" fill="none" />
<polyline points="210.5,198.5,202.0,198.5" stroke="black" stroke-width="2" fill="none" />
<polyline points="204.5,204.5,212.0,204.5" stroke="black" stroke-width="2" fill="none" />
<polyline points="210.0,202.5,201.5,210.0" stroke="black" stroke-width="2" fill="none" />
<polyline points="192.5,201.5,185.0,209.0" stroke="black" stroke-width="2" fill="none" />
<polyline points="179.5,210.5,187.5,203.0" stroke="black" stroke-width="2" fill="none" />
<polyline points="187.0,210.0,179.0,210.5" stroke="black" stroke-width="2" fill="none" />
<polyline points="180.5,204.5,188.0,204.0,196.0,204.0" stroke="black" stroke-width="2" fill="none" />
<polyline points="188.5,219.0,180.5,226.5" stroke="black" stroke-width="2" fill="none" />
<polyline points="177.5,221.0,185.5,221.0" stroke="black" stroke-width="2" fill="none" />
<polyline points="189.5,230.0,198.0,229.5,205.5,229.0" stroke="black" stroke-width="2" fill="none" />
<polyline points="202.0,228.0,194.0,235.5" stroke="black" stroke-width="2" fill="none" />
<polyline points="196.5,232.5,204.0,232.5" stroke="black" stroke-width="2" fill="none" />
<polyline points="204.0,235.5,212.5,235.5,220.5,235.0" stroke="black" stroke-width="2" fill="none" />
<polyline points="218.5,237.0,210.5,244.0" stroke="black" stroke-width="2" fill="none" />
<polyline points="220.0,245.0,227.5,244.5,235.0,244.0" stroke="black" stroke-width="2" fill="none" />
<polyline points="237.5,244.0,229.0,251.5" stroke="black" stroke-width="2" fill="none" />
<polyline points="226.5,247.5,234.5,247.5" stroke="black" stroke-width="2" fill="none" />
<polyline points="236.5,251.0,244.5,250.5,252.5,250.5" stroke="black" stroke-width="2" fill="none" />
<polyline points="242.0,245.0,250.5,244.5,258.5,244.0,266.5,243.5" stroke="black" stroke-width="2" fill="none" />
<polyline points="180.0,194.5,172.5,202.0" stroke="black" stroke-width="2" fill="none" />
<polyline points="170.0,195.5,162.5,203.0" stroke="black" stroke-width="2" fill="none" />
<polyline points="164.0,202.0,172.5,201.5,180.5,201.0" stroke="black" stroke-width="2" fill="none" />
<polyline points="171.5,214.0,164.0,214.5" stroke="black" stroke-width="2" fill="none" />
<polyline points="164.5,198.0,173.0,197.5,180.0,197.5" stroke="black" stroke-width="2" fill="none" />
<polyline points="165.0,188.0,157.0,196.0" stroke="black" stroke-width="2" fill="none" />
<polyline points="156.0,187.5,148.0,195.0" stroke="black" stroke-width="2" fill="none" />
<polyline points="148.5,194.0,156.0,194.0,164.0,194.0" stroke="black" stroke-width="2" fill="none" />
<polyline points="154.5,205.5,146.5,206.0" stroke="black" stroke-width="2" fill="none" />
<polyline points="141.0,198.5,133.5,199.0" stroke="black" stroke-width="2" fill="none" />
<polyline points="131.5,203.5,123.5,204.0" stroke="black" stroke-width="2" fill="none" />
<polyline points="124.0,212.0,115.5,212.0" stroke="black" stroke-width="2" fill="none" />
<polyline points="116.0,221.5,124.0,221.0,132.0,220.5,140.0,220.0" stroke="black" stroke-width="2" fill="none" />
<polyline points="140.5,228.0,133.0,228.5,124.5,229.0" stroke="black" stroke-width="2" fill="none" />
<polyline points="117.5,229.0,109.5,230.0" stroke="black" stroke-width="2" fill="none" />
<polyline points="98.0,236.5,89.5,237.0" stroke="black" stroke-width="2" fill="none" />
<polyline points="91.0,212.0,99.5,211.5" stroke="black" stroke-width="2" fill="none" />
<polyline points="108.5,198.0,116.0,197.5,123.5,197.0" stroke="black" stroke-width="2" fill="none" />
<polyline points="131.5,182.5,139.5,182.0,148.0,181.5" stroke="black" stroke-width="2" fill="none" />
<polyline points="146.5,189.0,155.0,188.5,163.0,187.5,171.5,187.0" stroke="black" stroke-width="2" fill="none" />
<polyline points="188.5,169.0,196.5,168.5,204.5,168.5,213.0,168.0,221.0,167.5,228.5,167.0,236.0,166.5" stroke="black" stroke-width="2" fill="none" />
<polyline points="213.0,135.5,205.0,137.0,196.5,137.5,188.0,138.5" stroke="black" stroke-width="2" fill="none" />
<polyline points="180.5,146.5,188.5,146.5,196.0,146.0,203.5,145.5,212.0,145.0,220.0,144.5,227.5,143.5,235.5,142.0,244.0,141.0,253.0,140.5,261.5,140.0,269.5,139.0,277.5,139.0" stroke="black" stroke-width="2" fill="none" />
<polyline points="252.5,53.0,245.0,54.0,236.5,54.0,228.0,54.0,219.0,55.0,210.5,56.0,202.5,56.0" stroke="black" stroke-width="2" fill="none" />
<polyline points="204.0,58.5,212.0,50.5,219.5,43.0" stroke="black" stroke-width="2" fill="none" />
<polyline points="213.0,43.0,220.5,36.0" stroke="black" stroke-width="2" fill="none" />
<polyline points="218.5,29.5,211.0,37.0,203.5,44.0,196.0,51.5" stroke="black" stroke-width="2" fill="none" />
<polyline points="194.5,58.0,203.0,50.5" stroke="black" stroke-width="2" fill="none" />
<polyline points="194.0,42.5,202.0,34.5,209.5,27.0" stroke="black" stroke-width="2" fill="none" />
<polyline points="227.0,28.5,234.0,20.5" stroke="black" stroke-width="2" fill="none" />
<polyline points="227.5,20.0,235.5,12.0" stroke="black" stroke-width="2" fill="none" />
<polyline points="244.5,19.5,252.5,12.0,260.5,5.0" stroke="black" stroke-width="2" fill="none" />
<polyline points="226.0,3.5,218.0,11.5,210.5,19.0,202.5,27.0,195.0,34.0" stroke="black" stroke-width="2" fill="none" />
<polyline points="187.0,35.5,179.0,43.0" stroke="black" stroke-width="2" fill="none" />
<polyline points="173.0,42.0,181.0,34.0" stroke="black" stroke-width="2" fill="none" />
<polyline points="173.5,27.0,182.0,20.0,190.0,12.5" stroke="black" stroke-width="2" fill="none" />
<polyline points="194.5,9.0,203.0,1.5" stroke="black" stroke-width="2" fill="none" />
<polyline points="205.5,9.0,197.5,9.5" stroke="black" stroke-width="2" fill="none" />
<polyline points="189.0,4.5,181.0,11.5" stroke="black" stroke-width="2" fill="none" />
<polyline points="178.5,3.0,170.5,10.5" stroke="black" stroke-width="2" fill="none" />
<polyline points="164.0,4.5,156.0,12.5" stroke="black" stroke-width="2" fill="none" />
<polyline points="155.5,19.5,147.0,26.5,139.0,33.0" stroke="black" stroke-width="2" fill="none" />
<polyline points="140.0,26.5,132.0,34.0" stroke="black" stroke-width="2" fill="none" />
<polyline points="129.5,25.5,138.0,18.0,146.5,10.5,155.0,3.0" stroke="black" stroke-width="2" fill="none" />
<polyline points="145.0,4.5,137.0,12.5,129.0,19.5" stroke="black" stroke-width="2" fill="none" />
<polyline points="134.0,18.0,141.5,17.5" stroke="black" stroke-width="2" fill="none" />
<polyline points="140.0,1.5,132.0,9.0,124.0,17.0,116.5,25.5" stroke="black" stroke-width="2" fill="none" />
<polyline points="108.5,22.0,100.5,29.0" stroke="black" stroke-width="2" fill="none" />
<polyline points="92.0,26.0,84.5,33.5" stroke="black" stroke-width="2" fill="none" />
<polyline points="82.5,35.0,90.0,34.5" stroke="black" stroke-width="2" fill="none" />
<polyline points="92.0,34.5,83.5,42.0,75.5,50.0,67.0,57.5,59.0,65.5,51.5,73.0" stroke="black" stroke-width="2" fill="none" />
<polyline points="57.5,75.5,49.5,83.0,42.0,90.5" stroke="black" stroke-width="2" fill="none" />
<polyline points="44.0,88.5,52.0,88.5" stroke="black" stroke-width="2" fill="none" />
<polyline points="53.5,91.0,45.5,97.5" stroke="black" stroke-width="2" fill="none" />
<polyline points="45.0,96.5,53.0,96.5" stroke="black" stroke-width="2" fill="none" />
<polyline points="59.5,99.5,51.5,107.0" stroke="black" stroke-width="2" fill="none" />
<polyline points="51.5,119.5,59.5,119.0,67.0,118.0,75.5,117.0,83.0,116.0,90.5,115.0,99.0,114.0,107.5,114.0,116.0,113.5,124.0,113.0,131.5,112.5,140.0,112.5,148.0,112.0" stroke="black" stroke-width="2" fill="none" />
<polyline points="156.5,115.0,164.5,107.5,172.5,100.0,180.5,92.0" stroke="black" stroke-width="2" fill="none" />
<polyline points="179.5,96.0,171.5,96.5" stroke="black" stroke-width="2" fill="none" />
<polyline points="172.5,95.0,180.0,94.5,187.5,94.0" stroke="black" stroke-width="2" fill="none" />
<polyline points="188.0,102.0,196.0,101.5" stroke="black" stroke-width="2" fill="none" />
<polyline points="198.0,103.5,190.0,104.0" stroke="black" stroke-width="2" fill="none" />
<polyline points="179.5,109.5,172.0,116.0,164.5,123.0,157.0,130.0" stroke="black" stroke-width="2" fill="none" />
<polyline points="153.0,122.5,161.0,122.5" stroke="black" stroke-width="2" fill="none" />
<polyline points="155.5,119.5,163.5,118.5,171.0,118.0,179.5,117.0,187.5,116.0,195.5,115.0,204.0,114.0,212.5,113.5" stroke="black" stroke-width="2" fill="none" />
<polyline points="171.5,107.5,164.0,115.0,156.0,122.5,148.0,130.0,140.0,137.5,131.5,145.0" stroke="black" stroke-width="2" fill="none" />
<polyline points="133.0,146.5,140.5,146.0,148.5,145.0" stroke="black" stroke-width="2" fill="none" />
<polyline points="146.5,147.5,155.0,140.0" stroke="black" stroke-width="2" fill="none" />
<polyline points="155.0,148.0,163.5,147.5" stroke="black" stroke-width="2" fill="none" />
<polyline points="163.5,160.0,172.0,159.0,180.5,158.5,188.5,157.5,196.5,156.0,204.5,154.5,212.5,154.0,220.0,154.0,228.0,153.5,236.0,153.0,244.0,153.0,252.5,152.5,260.5,152.5,268.5,152.0,276.0,151.5,284.0,151.0,291.5,151.0" stroke="black" stroke-width="2" fill="none" />
<polyline points="205.0,120.0,196.0,119.5,187.5,119.5,179.0,119.5,171.0,120.0" stroke="black" stroke-width="2" fill="none" />
<polyline points="163.5,114.0,171.5,113.5,179.5,112.5,187.5,111.5,195.5,111.5" stroke="black" stroke-width="2" fill="none" />
<polyline points="172.5,105.5,165.0,106.0" stroke="black" stroke-width="2" fill="none" />
<polyline points="171.5,82.0,180.0,75.0,188.0,67.0" stroke="black" stroke-width="2" fill="none" />
<polyline points="186.5,73.5,195.0,66.0" stroke="black" stroke-width="2" fill="none" />
<polyline points="187.0,59.5,178.5,66.5,169.5,73.5,161.5,81.0" stroke="black" stroke-width="2" fill="none" />
<polyline points="155.5,75.5,163.5,75.5,171.5,75.0,179.5,74.0,188.0,72.0" stroke="black" stroke-width="2" fill="none" />
<polyline points="186.5,64.0,178.5,64.5" stroke="black" stroke-width="2" fill="none" />
<polyline points="180.0,59.5,172.5,67.0,165.0,74.5,157.0,82.0,149.0,89.5,140.0,97.0,131.5,104.5,123.0,111.5,114.5,119.0" stroke="black" stroke-width="2" fill="none" />
<polyline points="116.5,121.5,124.5,121.0" stroke="black" stroke-width="2" fill="none" />
<polyline points="131.0,123.5,139.0,116.0" stroke="black" stroke-width="2" fill="none" />
<polyline points="139.5,125.0,131.5,133.0,124.0,141.0,116.5,148.5" stroke="black" stroke-width="2" fill="none" />
<polyline points="125.0,147.5,133.5,139.5" stroke="black" stroke-width="2" fill="none" />
<polyline points="137.5,137.5,145.5,136.5" stroke="black" stroke-width="2" fill="none" />
<polyline points="144.5,141.5,137.0,148.0" stroke="black" stroke-width="2" fill="none" />
<polyline points="122.5,132.5,114.5,140.0" stroke="black" stroke-width="2" fill="none" />
<polyline points="115.5,137.5,124.0,137.5" stroke="black" stroke-width="2" fill="none" />
<polyline points="113.5,130.0,121.5,122.5,129.5,114.5,137.0,107.0" stroke="black" stroke-width="2" fill="none" />
<polyline points="140.5,112.5,132.5,112.5,124.0,112.5" stroke="black" stroke-width="2" fill="none" />
<polyline points="125.0,105.5,133.0,105.0" stroke="black" stroke-width="2" fill="none" />
<polyline points="139.0,96.0,131.5,96.5,124.0,97.5" stroke="black" stroke-width="2" fill="none" />
<polyline points="123.0,97.0,131.5,89.5,140.0,82.0,148.0,74.5" stroke="black" stroke-width="2" fill="none" />
<polyline points="154.0,66.5,162.0,59.0" stroke="black" stroke-width="2" fill="none" />
<polyline points="164.0,67.0,155.5,74.5,147.0,82.0,139.0,89.5,130.5,97.0,122.5,104.5,114.5,112.5" stroke="black" stroke-width="2" fill="none" />
<polyline points="107.5,107.0,99.5,114.5" stroke="black" stroke-width="2" fill="none" />
<polyline points="98.5,133.5,106.5,133.0,115.0,132.5,123.0,132.0,131.0,132.0,139.0,131.5,147.0,131.5" stroke="black" stroke-width="2" fill="none" />
<polyline points="148.0,129.5,156.0,128.5,163.5,128.0,171.5,127.0,180.0,126.5" stroke="black" stroke-width="2" fill="none" />
<polyline points="146.5,125.0,155.0,124.5,162.5,123.5,171.0,123.0,179.5,122.0,187.5,121.5,196.0,121.5,203.5,121.5,211.5,121.5,219.5,121.5,228.0,121.0" stroke="black" stroke-width="2" fill="none" />
<polyline points="162.0,50.5,154.0,58.5" stroke="black" stroke-width="2" fill="none" />
<polyline points="149.5,59.0,141.5,66.5" stroke="black" stroke-width="2" fill="none" />
<polyline points="132.5,68.0,124.5,75.5,116.0,83.0" stroke="black" stroke-width="2" fill="none" />
<polyline points="125.0,82.5,133.5,75.0" stroke="black" stroke-width="2" fill="none" />
<polyline points="133.5,83.0,125.5,91.0" stroke="black" stroke-width="2" fill="none" />
<polyline points="123.5,89.5,131.5,89.0,140.0,88.5,148.5,88.5,157.0,88.0" stroke="black" stroke-width="2" fill="none" />
<polyline points="162.5,80.0,154.5,81.0,146.5,82.5,138.5,83.0" stroke="black" stroke-width="2" fill="none" />
<polyline points="124.0,65.5,132.0,57.5,140.0,50.0" stroke="black" stroke-width="2" fill="none" />
<polyline points="155.0,52.0,163.0,44.5" stroke="black" stroke-width="2" fill="none" />
<polyline points="156.0,35.0,163.5,27.5" stroke="black" stroke-width="2" fill="none" />
<polyline points="147.0,35.5,139.5,43.0" stroke="black" stroke-width="2" fill="none" />
<polyline points="124.0,45.0,116.0,52.0" stroke="black" stroke-width="2" fill="none" />
<polyline points="122.5,52.5,114.5,60.0" stroke="black" stroke-width="2" fill="none" />
<polyline points="100.5,58.5,108.5,51.0,117.0,43.0" stroke="black" stroke-width="2" fill="none" />
<polyline points="115.5,34.5,108.0,42.5,100.5,50.5,92.5,58.5,85.0,66.5,77.0,74.0,69.0,81.0" stroke="black" stroke-width="2" fill="none" />
<polyline points="67.0,76.5,59.0,83.5" stroke="black" stroke-width="2" fill="none" />
<polyline points="60.5,85.5,68.0,85.0,76.0,84.5,84.0,83.5,91.5,82.5,99.5,81.5,108.0,81.5,116.0,81.0,124.0,81.0,131.5,81.0,140.0,80.5,147.5,79.5,155.0,79.0,163.0,78.5,171.0,77.5" stroke="black" stroke-width="2" fill="none" />
<polyline points="99.5,78.0,91.5,85.5,83.0,92.5" stroke="black" stroke-width="2" fill="none" />
<polyline points="81.5,90.5,89.5,90.0" stroke="black" stroke-width="2" fill="none" />
<polyline points="91.0,92.0,98.5,84.5" stroke="black" stroke-width="2" fill="none" />
<polyline points="91.5,76.0,83.0,83.5" stroke="black" stroke-width="2" fill="none" />
<polyline points="89.5,66.5,81.5,74.5,74.0,82.5,66.0,90.5" stroke="black" stroke-width="2" fill="none" />
<polyline points="64.5,108.5,57.0,116.0,49.5,123.5" stroke="black" stroke-width="2" fill="none" />
<polyline points="34.5,109.5,27.0,116.5" stroke="black" stroke-width="2" fill="none" />
<polyline points="20.0,115.0,12.0,123.0" stroke="black" stroke-width="2" fill="none" />
<polyline points="10.5,116.5,2.5,124.0" stroke="black" stroke-width="2" fill="none" />
<polyline points="1.5,125.0,10.0,124.5,18.5,124.0,27.0,123.5,34.5,123.0,42.0,122.5,50.0,122.5,58.0,121.5,66.0,121.0,73.5,120.5" stroke="black" stroke-width="2" fill="none" />
<polyline points="83.5,125.0,91.0,124.5,99.0,124.0,107.0,123.5,114.5,122.5,122.5,121.5,130.5,121.5,139.0,121.0" stroke="black" stroke-width="2" fill="none" />
<polyline points="121.5,128.5,113.0,129.0" stroke="black" stroke-width="2" fill="none" />
<polyline points="123.0,148.5,115.5,149.5,108.5,150.5,100.5,151.5" stroke="black" stroke-width="2" fill="none" />
<polyline points="93.5,157.0,102.0,157.0,110.0,156.0,117.0,155.5,124.0,155.5" stroke="black" stroke-width="2" fill="none" />
<polyline points="109.0,164.5,117.0,163.5,125.0,163.0,133.0,163.0,141.0,162.5" stroke="black" stroke-width="2" fill="none" />
<polyline points="139.5,174.0,131.5,181.5" stroke="black" stroke-width="2" fill="none" />
<polyline points="132.5,177.0,141.0,177.0" stroke="black" stroke-width="2" fill="none" />
<polyline points="114.0,189.0,106.5,189.5" stroke="black" stroke-width="2" fill="none" />
<polyline points="108.5,181.5,101.0,182.0" stroke="black" stroke-width="2" fill="none" />
<polyline points="106.5,173.5,114.5,173.0,122.5,172.5,130.5,172.0,139.0,171.5,147.5,171.0,155.5,170.5" stroke="black" stroke-width="2" fill="none" />
<polyline points="100.0,188.0,91.5,188.5,83.5,188.5" stroke="black" stroke-width="2" fill="none" />
<polyline points="82.0,199.5,74.0,200.0" stroke="black" stroke-width="2" fill="none" />
<polyline points="73.5,203.5,65.0,204.0" stroke="black" stroke-width="2" fill="none" />
<polyline points="66.5,212.0,74.5,211.5" stroke="black" stroke-width="2" fill="none" />
<polyline points="76.0,189.5,68.0,190.0" stroke="black" stroke-width="2" fill="none" />
<polyline points="67.0,181.0,58.5,182.0" stroke="black" stroke-width="2" fill="none" />
<polyline points="58.5,172.5,66.5,171.5" stroke="black" stroke-width="2" fill="none" />
<polyline points="75.0,176.5,82.5,176.0,90.0,174.5" stroke="black" stroke-width="2" fill="none" />
<polyline points="91.0,147.5,83.5,148.5,76.0,149.5,68.0,150.0" stroke="black" stroke-width="2" fill="none" />
<polyline points="59.0,163.0,67.0,163.5,76.0,163.5,84.0,163.5" stroke="black" stroke-width="2" fill="none" />
<polyline points="59.0,198.0,51.0,199.0" stroke="black" stroke-width="2" fill="none" />
<polyline points="42.0,196.0,33.5,196.5,25.5,197.5" stroke="black" stroke-width="2" fill="none" />
<polyline points="26.5,189.0,18.5,189.5,10.5,190.0" stroke="black" stroke-width="2" fill="none" />
<polyline points="1.5,182.0,9.5,181.5,17.5,181.5,26.5,181.0" stroke="black" stroke-width="2" fill="none" />
<polyline points="27.0,173.0,34.5,172.5,42.5,173.0,51.0,173.0" stroke="black" stroke-width="2" fill="none" />
<polyline points="43.5,150.0,52.0,150.0,60.5,150.0" stroke="black" stroke-width="2" fill="none" />
<polyline points="26.5,162.5,18.5,170.0" stroke="black" stroke-width="2" fill="none" />
<polyline points="19.0,174.0,11.5,174.0,3.5,174.5" stroke="black" stroke-width="2" fill="none" />
<polyline points="5.0,166.0,12.5,165.5,20.0,165.0,28.0,164.5,35.0,164.5,42.5,164.5" stroke="black" stroke-width="2" fill="none" />
<polyline points="3.5,159.0,12.0,158.5,20.0,158.0,28.0,157.5,35.5,157.0,43.5,157.0,51.0,156.5,58.5,155.5,66.0,155.0,74.0,154.0,81.5,153.5" stroke="black" stroke-width="2" fill="none" />
<polyline points="27.5,99.5,35.0,91.5" stroke="black" stroke-width="2" fill="none" />
<polyline points="28.0,90.5,20.5,98.0,13.0,106.0" stroke="black" stroke-width="2" fill="none" />
<polyline points="4.0,105.5,11.5,97.5,19.5,90.0" stroke="black" stroke-width="2" fill="none" />
<polyline points="12.5,87.0,20.0,80.0,28.5,73.0,37.0,66.0,45.0,59.0" stroke="black" stroke-width="2" fill="none" />
<polyline points="51.5,49.0,59.0,49.0" stroke="black" stroke-width="2" fill="none" />
<polyline points="52.0,48.5,60.5,41.0,68.5,33.5,76.5,26.0,84.5,19.0,92.5,12.0" stroke="black" stroke-width="2" fill="none" />
<polyline points="93.5,4.5,85.5,11.5,77.0,19.0,68.5,26.5,61.0,34.0,53.0,41.5,45.0,48.5,37.0,55.5,29.5,62.5,21.5,70.0" stroke="black" stroke-width="2" fill="none" />
<polyline points="18.0,73.0,10.0,73.5" stroke="black" stroke-width="2" fill="none" />
<polyline points="8.5,72.0,17.0,64.0,25.0,56.0,33.5,48.5,42.0,40.5,50.5,33.0,59.0,26.0,67.5,18.5,75.5,11.0,83.5,3.5" stroke="black" stroke-width="2" fill="none" />
<polyline points="75.5,4.0,67.0,12.0,59.0,19.5,50.5,26.5,42.0,33.5" stroke="black" stroke-width="2" fill="none" />
<polyline points="43.0,33.5,34.5,34.0" stroke="black" stroke-width="2" fill="none" />
<polyline points="34.5,33.0,43.0,25.0,51.0,17.5,59.0,10.5,67.5,3.0" stroke="black" stroke-width="2" fill="none" />
<polyline points="62.5,3.5,54.0,11.0,46.0,18.5" stroke="black" stroke-width="2" fill="none" />
<polyline points="44.5,4.5,36.5,11.5,28.5,19.0,20.5,26.0,12.5,33.0,4.5,40.0" stroke="black" stroke-width="2" fill="none" />
<polyline points="1.5,38.0,10.0,37.5,18.0,37.0,26.5,36.5,34.5,35.5,43.0,34.5,51.0,34.5,59.0,34.0,67.0,34.0,75.0,34.0,83.0,34.0,91.0,33.0,100.0,32.5,108.0,32.0,116.5,30.5,125.0,30.0,132.5,29.0,140.5,28.0,148.5,27.5,156.0,26.5,163.5,26.0,172.0,26.0,180.5,26.0,189.0,26.0,197.0,26.0,205.0,26.0,213.0,25.0,220.0,25.0,228.0,24.0,236.0,23.5,244.0,23.0,252.5,22.5,260.5,22.0,268.5,21.5" stroke="black" stroke-width="2" fill="none" />
<polyline points="219.5,3.0,212.0,10.5" stroke="black" stroke-width="2" fill="none" />
<polyline points="128.5,6.0,121.0,13.5,113.0,20.5,105.5,28.0,98.0,35.0,90.5,42.5" stroke="black" stroke-width="2" fill="none" />
<polyline points="100.0,46.0,91.5,53.0" stroke="black" stroke-width="2" fill="none" />
<polyline points="84.0,52.5,76.0,60.0" stroke="black" stroke-width="2" fill="none" />
<polyline points="74.0,57.5,81.5,56.5" stroke="black" stroke-width="2" fill="none" />
<polyline points="58.5,60.0,51.0,67.5,43.5,75.0,36.0,82.5" stroke="black" stroke-width="2" fill="none" />
<polyline points="10.5,62.0,2.0,69.5" stroke="black" stroke-width="2" fill="none" />
<polyline points="5.5,69.0,13.0,69.0,20.5,68.5,28.5,68.0,36.5,67.0,44.5,66.0,53.0,65.5,60.5,64.5,68.0,64.0,75.5,63.0,83.0,62.0,91.0,62.5,100.0,62.5,108.0,62.5,116.0,62.0,123.5,61.5,132.0,61.5,140.5,60.5,149.0,60.5,157.0,59.5,165.0,59.5,173.0,59.0,181.0,58.5,188.5,57.5,196.0,57.0,204.0,56.5,211.5,56.5,219.5,56.0,227.5,55.0,235.5,53.5,243.0,53.0,251.0,52.5,259.5,52.5,268.0,52.5,277.0,53.0,285.5,53.5,293.5,53.0,301.5,52.5,309.5,52.0,318.0,50.5,326.0,50.0,333.5,50.0,341.0,50.0,348.0,50.0,355.5,49.0,363.0,48.0,371.0,47.0,378.5,46.5,386.5,46.0,395.0,45.5,403.0,45.0,411.0,44.5,418.5,44.0,426.5,43.5,434.0,43.0,442.0,42.5,449.5,42.0,457.0,42.0,465.0,42.0,473.0,41.5,481.5,41.0,489.0,40.5,496.5,40.5,505.0,39.5,514.0,38.0" stroke="black" stroke-width="2" fill="none" />
<polyline points="116.0,3.0,108.0,10.5,100.0,17.5" stroke="black" stroke-width="2" fill="none" />
<polyline points="107.5,4.0,100.0,12.0,92.5,20.0,84.5,27.5" stroke="black" stroke-width="2" fill="none" />
<polyline points="68.0,33.5,60.0,34.5" stroke="black" stroke-width="2" fill="none" />
<polyline points="60.0,26.0,68.0,26.0" stroke="black" stroke-width="2" fill="none" />
<polyline points="33.5,28.5,25.5,36.0,17.0,43.5,9.5,51.0,2.0,59.0" stroke="black" stroke-width="2" fill="none" />
<polyline points="3.0,62.5,11.0,62.0,19.5,61.5,28.0,60.5,36.5,59.5,45.0,58.5,53.0,57.5,60.5,57.5,68.0,57.0,76.5,57.0,84.5,56.5,92.0,56.0,100.0,55.5,108.0,54.5,115.5,53.5,123.5,52.5,132.0,52.5,140.0,52.0,148.0,52.0,155.5,52.0,164.0,51.5,171.5,50.5,179.0,50.0,187.0,49.5,195.0,48.5,203.0,48.0,210.5,48.0,219.0,47.5,227.5,47.0,235.5,46.5,243.5,45.5,251.5,45.0,259.5,45.0,268.0,45.0,275.5,44.0,284.0,44.0,292.0,43.0,300.5,43.0,309.0,43.0,317.5,42.5,325.5,42.5,333.0,41.5,341.0,40.5,348.5,39.5,356.0,38.5,363.0,38.0,371.0,37.5,379.0,37.5,387.0,37.5,394.5,37.0,402.5,37.0,410.5,36.5,419.0,36.0,426.5,35.5,434.0,35.0,441.5,34.5,449.5,33.5,458.0,33.0,466.0,33.0,474.5,33.5,482.5,33.0,490.5,32.5,498.5,31.0,507.0,30.5,515.5,30.0" stroke="black" stroke-width="2" fill="none" />
<polyline points="163.5,276.0,155.5,276.5" stroke="black" stroke-width="2" fill="none" />
<polyline points="18.5,212.0,11.0,212.5,3.5,213.0" stroke="black" stroke-width="2" fill="none" />
<polyline points="5.0,151.5,13.0,150.5,20.5,149.0,28.0,148.5,35.5,147.5" stroke="black" stroke-width="2" fill="none" />
<polyline points="4.0,141.0,11.5,140.5,19.0,140.5,26.5,140.5,34.0,141.0,42.0,140.5,49.5,140.5,58.0,140.5,66.0,140.5,74.0,139.5,82.0,139.0,90.0,138.5,98.0,137.5,106.0,136.5,114.5,135.5,123.0,134.5,131.5,134.5,139.0,133.5,147.0,133.0,155.0,133.5" stroke="black" stroke-width="2" fill="none" />
<polyline points="35.5,43.5,27.0,51.0,19.0,58.5,11.0,66.0,2.5,73.5" stroke="black" stroke-width="2" fill="none" />
<polyline points="3.5,76.0,11.5,75.5,19.5,75.0,27.5,75.0,35.0,74.5,42.5,74.0,50.5,74.0,58.5,73.0,66.0,72.0,74.5,71.5,82.5,71.5,90.5,70.5,98.5,70.0,106.5,69.5,115.0,69.5,123.0,69.0,131.0,68.5,140.0,68.0,148.0,67.5,156.5,67.0,164.0,66.5,172.5,66.5,180.5,66.5" stroke="black" stroke-width="2" fill="none" />
<polyline points="29.5,43.5,21.0,51.0" stroke="black" stroke-width="2" fill="none" />
<polyline points="26.0,50.5,34.0,50.0" stroke="black" stroke-width="2" fill="none" />
<polyline points="32.0,20.5,25.0,28.0,17.5,36.0,10.5,43.5,3.0,51.0" stroke="black" stroke-width="2" fill="none" />
<polyline points="4.5,54.0,12.0,54.0,19.5,53.0,27.5,53.0,35.0,52.5,43.0,51.5,51.0,51.0,59.0,51.0,67.5,50.5,76.0,49.5,84.0,49.5,92.0,48.5,100.0,48.0,108.5,47.5,116.5,47.0,124.5,46.0,132.5,46.0,141.0,45.0,148.5,44.0,155.5,43.5,163.5,43.5,171.5,43.0,180.0,42.5,188.5,42.5,197.0,42.0,205.0,41.5,212.5,41.5,220.5,42.0,228.5,42.0,236.0,41.0,244.5,40.0,252.0,39.5,259.5,39.0,267.0,38.0,275.0,37.0,283.0,36.5,291.5,35.5,300.0,34.5,308.5,33.5,316.0,32.5,324.0,31.5,332.5,31.5,340.5,31.0,348.0,31.0,356.0,30.5,363.5,30.0,371.5,29.5,379.0,29.5,387.0,29.0,394.0,29.0,402.0,28.5,410.0,27.5,418.0,27.5,426.0,26.5,433.5,25.5,441.5,25.0,449.0,24.5,457.5,24.5,465.5,24.0,473.5,23.0,481.5,22.0,490.0,21.5,498.0,21.5,506.5,22.0,515.0,22.0" stroke="black" stroke-width="2" fill="none" />
<polyline points="34.5,3.0,26.5,10.5" stroke="black" stroke-width="2" fill="none" />
<polyline points="22.0,10.0,30.0,2.5" stroke="black" stroke-width="2" fill="none" />
<polyline points="19.5,2.5,11.5,10.0,3.0,18.0" stroke="black" stroke-width="2" fill="none" />
<polyline points="0.5,18.0,9.5,17.5" stroke="black" stroke-width="2" fill="none" />
<polyline points="10.0,21.5,2.5,29.0" stroke="black" stroke-width="2" fill="none" />
<polyline points="3.5,29.0,11.5,28.5,19.5,28.5,27.0,28.0,35.0,27.5,42.5,27.5,51.0,27.5,59.5,27.0,67.5,27.0,75.5,26.5,83.5,26.5,91.5,26.0,99.0,25.0,107.5,24.0,115.0,23.0,122.5,22.0,131.0,21.0,139.5,21.0,148.0,20.5,156.0,20.0,163.5,19.5,172.0,19.5,180.0,19.0,188.0,18.5,196.0,18.0,204.0,17.5,212.0,17.0,220.0,16.5,228.0,16.0,236.5,15.0,244.5,15.0,253.0,14.5,260.0,14.5,268.0,14.5,276.0,14.0,284.0,13.5,292.0,12.5,299.5,11.5,307.0,10.5,314.5,10.0,322.0,9.0,330.0,9.0,338.0,9.0,346.0,8.5,354.5,7.5,363.0,7.0,371.0,7.0,379.0,7.0,387.5,6.5,396.0,6.0,403.5,5.5,411.5,5.0,419.0,4.0,426.5,3.0,435.0,2.5,443.0,2.0,451.0,1.5,459.5,0.5,467.5,0.0,476.0,-0.5,484.0,-0.5,492.0,-1.0,500.0,-1.5,508.5,-2.0,516.5,-2.5" stroke="black" stroke-width="2" fill="none" />
<polyline points="20.0,18.0,12.0,25.5,3.5,33.0" stroke="black" stroke-width="2" fill="none" />
<polyline points="5.5,23.0,13.5,23.0" stroke="black" stroke-width="2" fill="none" />
<polyline points="3.5,21.0,12.0,21.0,19.5,20.5,27.5,20.0,36.0,19.0,44.5,19.0,52.5,18.5,60.0,18.0,68.0,18.0,75.5,18.0,83.5,17.0,92.0,17.0,100.5,17.0,108.5,16.5,116.5,15.5,124.5,15.0,132.0,14.0,140.0,13.5,148.0,12.5,156.0,12.0,164.5,11.5,172.5,11.0,180.0,10.5,187.5,10.5,195.5,10.5,203.0,10.5,211.0,9.5,219.0,8.5,226.5,8.0,234.5,7.0,242.0,7.0,250.5,7.0,258.5,7.0,267.0,6.5,275.5,6.0,283.5,5.5,291.5,5.5,299.5,5.0,307.5,4.5,315.5,4.0,323.5,3.5,331.5,2.5,339.5,1.5,347.5,1.0,356.0,0.0,364.5,-1.0,372.0,-2.0,379.5,-2.5,387.0,-3.0,395.5,-3.5,404.0,-4.0,411.5,-4.5,420.0,-5.0,428.5,-5.5,436.5,-6.0,445.0,-6.5,453.0,-6.5,461.0,-6.5,468.5,-6.5,476.0,-7.5,484.5,-8.5,492.0,-8.5,500.5,-8.5,509.0,-9.0,517.0,-10.0" stroke="black" stroke-width="2" fill="none" />
<polyline points="10.5,4.0,3.0,11.5" stroke="black" stroke-width="2" fill="none" />
<polyline points="4.0,13.5,11.5,12.5,19.5,12.0,27.5,11.0,35.0,10.5,43.5,10.0,51.5,9.5,60.0,9.0,68.5,8.5,76.5,8.0,84.0,7.5,92.0,7.5,100.0,7.0,108.0,6.5,115.5,6.0,123.5,6.0,131.5,5.5,139.5,5.0,148.0,5.0,156.5,4.5,164.5,4.0,172.0,3.5,179.5,3.0,187.0,2.5,194.5,2.0,202.0,2.0,210.5,1.0,219.0,0.5,227.0,0.0,235.5,-0.5,243.5,-1.0,251.5,-1.5,259.5,-2.5,267.5,-3.5,275.5,-3.5,284.0,-3.5,291.5,-4.0,299.5,-4.0,307.0,-4.0,315.0,-4.5,323.0,-4.5,331.0,-5.0,339.0,-6.0,346.5,-7.0,355.0,-8.0,363.0,-9.5,372.0,-10.5,380.0,-11.0,388.0,-11.0,396.0,-11.0,404.5,-11.5,412.0,-12.0,420.5,-13.0,429.0,-14.0,437.0,-14.5,445.0,-15.0,453.0,-15.0,460.5,-15.0,468.5,-15.5,476.5,-16.0,484.5,-16.0,492.5,-16.0,500.0,-16.5,507.5,-16.5,515.0,-17.5" stroke="black" stroke-width="2" fill="none" />
<polyline points="34.5,7.0,26.5,8.0,19.0,8.5,10.5,9.0" stroke="black" stroke-width="2" fill="none" />
<polyline points="2.5,46.0,10.0,45.5,17.5,45.0,26.0,44.5,35.0,44.5,43.5,44.0,51.5,43.5,59.5,43.0,67.5,42.5,76.0,41.5,84.0,41.0,92.0,41.0,99.5,40.0,107.5,39.0,115.5,38.0,123.5,37.5,132.0,37.0,140.0,37.0,148.0,36.5,156.0,36.0,164.0,35.5,172.0,35.0,180.0,34.5,188.0,34.0,195.5,33.5,203.5,33.0,211.5,32.5,219.5,32.0,227.5,32.0,236.0,31.5,244.0,31.5,251.5,31.0,259.5,30.0,267.5,30.0,276.0,29.5,284.0,29.5,292.0,29.0,300.0,28.0,308.0,27.0,316.0,25.5,324.5,24.5,332.0,24.5,340.0,24.0,348.0,24.0,355.5,23.5,363.5,23.0,371.5,22.5,379.5,22.0,387.0,21.5,395.0,21.0,403.0,20.0,411.0,20.0,419.0,19.5,427.0,18.5,435.0,18.0,443.0,17.5,451.0,17.0,459.5,16.5,467.5,15.5,475.5,14.0,483.0,14.0,491.5,13.5,499.5,13.5,507.5,13.5,515.5,13.0" stroke="black" stroke-width="2" fill="none" />
<polyline points="90.5,131.0,83.0,131.5,74.5,131.5,66.0,131.5,57.5,131.0,49.5,131.5,41.5,131.0,33.5,131.0,25.5,131.0,17.5,131.0,10.0,131.0,1.5,131.5" stroke="black" stroke-width="2" fill="none" />
<polyline points="2.5,119.5,10.5,119.0,18.5,118.0,26.5,117.0,34.5,116.0" stroke="black" stroke-width="2" fill="none" />
<polyline points="2.0,109.5,10.5,109.0,19.0,108.0,26.5,107.5,34.0,106.5,42.0,106.0,50.0,105.0,58.0,104.0,66.0,103.5,73.5,103.5,81.0,103.0,89.5,102.5,98.0,102.5,106.5,102.0,115.0,102.0,123.0,101.5,131.5,101.5,139.5,101.0,148.0,100.5,156.5,100.5,165.0,100.5,172.5,100.0,180.5,99.0,188.0,98.5,196.0,98.0" stroke="black" stroke-width="2" fill="none" />
<polyline points="173.5,91.5,166.0,92.0,157.5,92.5,149.5,92.5,141.0,92.5,133.0,93.0,124.5,93.5,116.0,94.0,108.0,94.5,100.0,95.5,92.0,96.5,84.0,97.0,76.0,97.0,67.5,97.5,59.5,97.5,51.5,96.5,43.5,97.0,35.5,97.0,27.5,98.0,19.0,99.0,11.0,100.0,2.5,101.0" stroke="black" stroke-width="2" fill="none" />
<polyline points="2.0,92.5,10.0,92.0,17.5,92.0,25.5,91.5,34.0,91.0,42.0,90.5,50.5,90.0,59.0,90.0,67.5,89.5,75.5,89.5,84.0,89.0,92.0,88.5,99.5,87.5,107.0,86.5,115.5,86.0,124.0,86.0,132.0,85.5,140.0,85.0,148.0,84.0,157.0,83.5,164.5,83.0" stroke="black" stroke-width="2" fill="none" />
<polyline points="49.5,82.0,42.0,82.0,34.0,82.5,26.0,83.5,18.0,83.5,10.5,83.5,2.0,84.5" stroke="black" stroke-width="2" fill="none" />
</svg>