<svg xmlns="http://www.w3.org/2000/svg" version="1.1"><polyline points="219.5,174.0,227.5,173.5,235.5,173.0,243.5,172.5,251.5,171.5,260.0,171.0" stroke="black" stroke-width="2" fill="none" />
<polyline points="259.5,162.5,267.0,162.0,274.5,161.5,282.5,161.0" stroke="black" stroke-width="2" fill="none" />
<polyline points="282.0,162.5,274.0,169.5,266.5,177.0" stroke="black" stroke-width="2" fill="none" />
<polyline points="267.0,178.5,275.0,178.0" stroke="black" stroke-width="2" fill="none" />
<polyline points="275.0,178.0,283.5,170.5" stroke="black" stroke-width="2" fill="none" />
<polyline points="282.5,176.5,290.0,176.5" stroke="black" stroke-width="2" fill="none" />
<polyline points="289.5,177.5,281.5,185.0" stroke="black" stroke-width="2" fill="none" />
<polyline points="282.0,186.0,290.0,185.5" stroke="black" stroke-width="2" fill="none" />
<polyline points="289.5,186.0,282.0,193.5,274.0,201.0,266.0,208.5,258.5,216.0,250.5,223.5,243.0,232.0,235.5,240.5,228.5,249.0" stroke="black" stroke-width="2" fill="none" />
<polyline points="227.0,250.0,235.0,249.5,243.0,249.5,250.5,249.0,258.5,249.0,267.0,248.5,274.5,248.0,281.5,247.0,290.0,246.5" stroke="black" stroke-width="2" fill="none" />
<polyline points="292.0,243.5,283.5,250.5,276.0,258.0,268.5,266.0,260.5,273.5" stroke="black" stroke-width="2" fill="none" />
<polyline points="259.5,275.0,267.5,274.0,275.5,273.0,283.5,273.0" stroke="black" stroke-width="2" fill="none" />
<polyline points="283.0,265.0,274.5,273.0" stroke="black" stroke-width="2" fill="none" />
<polyline points="267.0,274.0,275.5,266.5,284.0,259.5,292.0,252.0" stroke="black" stroke-width="2" fill="none" />
<polyline points="292.5,234.0,284.0,241.5,276.0,249.5,268.0,257.0,260.0,265.0,252.0,272.5" stroke="black" stroke-width="2" fill="none" />
<polyline points="250.5,277.5,258.5,277.0,266.5,276.0,274.5,275.0,282.5,274.5" stroke="black" stroke-width="2" fill="none" />
<polyline points="251.5,264.5,259.5,257.0,267.0,248.5,274.5,241.0,282.5,233.5,290.0,226.0" stroke="black" stroke-width="2" fill="none" />
<polyline points="289.5,221.0,281.0,228.5,273.5,236.0,265.5,243.0,258.0,249.5,250.0,256.5,242.5,263.5" stroke="black" stroke-width="2" fill="none" />
<polyline points="243.0,264.0,250.5,263.5,259.0,263.5,267.0,263.0,275.0,263.0,283.0,262.5" stroke="black" stroke-width="2" fill="none" />
<polyline points="322.0,260.5,330.0,260.0,338.0,259.0,346.0,258.5,354.0,258.0,362.0,258.0,370.5,257.5,379.0,258.0,387.0,258.0,395.0,258.5,403.0,258.0,411.0,257.5,419.5,257.0,428.0,256.0,435.5,255.5" stroke="black" stroke-width="2" fill="none" />
<polyline points="428.0,258.5,419.5,266.5,411.5,274.5,403.0,282.5,395.0,290.0,387.0,298.0,379.0,306.0,370.5,313.5,362.0,321.5" stroke="black" stroke-width="2" fill="none" />
<polyline points="365.5,324.5,373.0,323.5,380.5,322.5,388.0,322.5" stroke="black" stroke-width="2" fill="none" />
<polyline points="355.5,311.0,363.5,303.0,371.5,295.5,379.5,288.5,387.5,281.5,395.0,274.0,402.5,266.5,410.0,258.5,418.5,250.5,426.5,243.0,434.5,235.0,442.5,227.0" stroke="black" stroke-width="2" fill="none" />
<polyline points="443.0,220.0,435.0,227.5,427.0,234.5" stroke="black" stroke-width="2" fill="none" />
<polyline points="427.5,233.5,419.5,234.0" stroke="black" stroke-width="2" fill="none" />
<polyline points="419.5,230.5,428.0,230.0,435.5,229.5,443.0,229.0" stroke="black" stroke-width="2" fill="none" />
<polyline points="438.0,220.5,429.5,228.0,421.5,235.0,413.0,242.0,404.5,249.5,396.5,256.5,388.0,264.5,379.5,272.0,371.0,279.0,362.5,286.0,354.5,293.5,346.5,301.0,338.5,308.0" stroke="black" stroke-width="2" fill="none" />
<polyline points="339.5,305.0,348.0,297.0,356.0,289.0,364.5,281.0,372.0,273.0,380.0,265.0,387.5,257.5,395.0,249.5,403.0,242.5,411.0,235.0" stroke="black" stroke-width="2" fill="none" />
<polyline points="411.5,227.0,403.5,234.5,395.5,242.0,388.0,250.0,380.5,258.5,372.5,266.5,364.5,274.0,356.5,281.0,348.5,288.0,340.0,295.5,332.0,303.0" stroke="black" stroke-width="2" fill="none" />
<polyline points="331.5,298.0,339.5,298.0,347.5,297.5,355.5,296.5,364.5,296.0,372.5,295.5,379.5,295.0,387.0,294.0,394.5,293.5" stroke="black" stroke-width="2" fill="none" />
<polyline points="418.0,275.0,410.0,282.5,402.5,290.0,395.0,298.0,387.5,305.5,380.5,313.0,372.0,320.5" stroke="black" stroke-width="2" fill="none" />
<polyline points="362.0,311.0,370.5,304.0,379.0,297.5,387.5,290.5,396.0,283.0,404.5,275.0,412.0,268.0,420.0,260.5,428.5,253.5,436.5,246.0" stroke="black" stroke-width="2" fill="none" />
<polyline points="417.5,245.0,409.5,252.5,401.5,260.5,393.5,268.0,385.5,275.0,377.5,282.0,370.5,288.5,363.0,296.0,355.5,303.0,348.0,311.0" stroke="black" stroke-width="2" fill="none" />
<polyline points="355.0,312.0,363.0,312.0,370.5,312.0,378.5,312.0" stroke="black" stroke-width="2" fill="none" />
<polyline points="397.0,312.5,389.0,313.0,381.0,313.5,373.0,314.5,365.0,315.5,357.0,316.5,348.5,318.0,340.0,318.5" stroke="black" stroke-width="2" fill="none" />
<polyline points="332.5,309.5,340.5,309.0,348.5,308.5,356.5,308.0,364.5,308.0,372.0,308.0,379.5,307.5,387.0,307.0,395.0,306.5,403.0,306.0" stroke="black" stroke-width="2" fill="none" />
<polyline points="412.5,265.0,420.0,264.5" stroke="black" stroke-width="2" fill="none" />
<polyline points="419.5,256.5,427.0,256.0" stroke="black" stroke-width="2" fill="none" />
<polyline points="427.5,226.0,435.5,225.5" stroke="black" stroke-width="2" fill="none" />
<polyline points="427.5,222.5,435.5,221.5,443.0,221.0,450.5,220.0" stroke="black" stroke-width="2" fill="none" />
<polyline points="436.5,209.5,445.0,202.0,453.0,194.5" stroke="black" stroke-width="2" fill="none" />
<polyline points="453.0,186.0,444.5,193.0,436.5,201.0" stroke="black" stroke-width="2" fill="none" />
<polyline points="437.0,200.5,445.0,200.0" stroke="black" stroke-width="2" fill="none" />
<polyline points="444.5,191.5,452.5,191.0" stroke="black" stroke-width="2" fill="none" />
<polyline points="452.0,183.5,444.5,184.0" stroke="black" stroke-width="2" fill="none" />
<polyline points="443.0,185.5,451.0,178.0" stroke="black" stroke-width="2" fill="none" />
<polyline points="445.5,177.0,454.0,169.5" stroke="black" stroke-width="2" fill="none" />
<polyline points="451.5,164.0,443.5,164.0" stroke="black" stroke-width="2" fill="none" />
<polyline points="436.0,171.0,443.5,170.5,452.0,170.5" stroke="black" stroke-width="2" fill="none" />
<polyline points="444.5,153.5,452.0,146.0" stroke="black" stroke-width="2" fill="none" />
<polyline points="450.5,139.0,442.5,146.5,435.0,154.5" stroke="black" stroke-width="2" fill="none" />
<polyline points="434.0,156.0,442.0,155.5,450.0,154.5" stroke="black" stroke-width="2" fill="none" />
<polyline points="450.0,146.5,441.5,147.0,433.0,147.5" stroke="black" stroke-width="2" fill="none" />
<polyline points="433.5,146.0,441.0,139.0,449.0,131.5" stroke="black" stroke-width="2" fill="none" />
<polyline points="443.0,130.5,435.0,138.0,427.5,146.0" stroke="black" stroke-width="2" fill="none" />
<polyline points="426.5,145.5,434.5,145.0" stroke="black" stroke-width="2" fill="none" />
<polyline points="426.0,140.5,434.5,140.5,443.0,140.0,451.0,140.0" stroke="black" stroke-width="2" fill="none" />
<polyline points="444.0,122.0,436.0,129.5,427.5,137.0" stroke="black" stroke-width="2" fill="none" />
<polyline points="425.5,137.0,433.5,136.5,442.0,136.0,450.0,135.0" stroke="black" stroke-width="2" fill="none" />
<polyline points="445.0,114.5,437.0,122.5,429.0,130.0,421.0,138.0" stroke="black" stroke-width="2" fill="none" />
<polyline points="419.5,133.0,427.5,132.5,435.0,132.0,443.0,131.5,450.5,131.0" stroke="black" stroke-width="2" fill="none" />
<polyline points="438.0,114.5,430.0,122.0,421.5,130.0" stroke="black" stroke-width="2" fill="none" />
<polyline points="420.0,129.5,428.5,128.5,436.5,128.0,444.5,127.5" stroke="black" stroke-width="2" fill="none" />
<polyline points="428.0,116.0,420.0,123.0" stroke="black" stroke-width="2" fill="none" />
<polyline points="419.0,120.5,427.0,120.5,434.5,119.5,442.5,119.0" stroke="black" stroke-width="2" fill="none" />
<polyline points="436.0,104.5,428.0,105.0" stroke="black" stroke-width="2" fill="none" />
<polyline points="419.0,108.0,411.0,115.5" stroke="black" stroke-width="2" fill="none" />
<polyline points="412.5,116.0,420.5,115.5,428.5,115.5,436.5,115.0,444.5,115.0" stroke="black" stroke-width="2" fill="none" />
<polyline points="435.5,99.0,427.5,106.5,419.5,113.5,411.5,121.0" stroke="black" stroke-width="2" fill="none" />
<polyline points="412.0,123.5,420.0,123.0,427.5,122.5,435.5,122.0,443.5,121.5" stroke="black" stroke-width="2" fill="none" />
<polyline points="429.0,92.0,420.5,99.0,412.5,106.5,404.0,114.0" stroke="black" stroke-width="2" fill="none" />
<polyline points="411.0,113.0,419.0,112.5,427.0,112.0" stroke="black" stroke-width="2" fill="none" />
<polyline points="427.0,98.0,419.5,98.5" stroke="black" stroke-width="2" fill="none" />
<polyline points="412.0,99.0,404.5,106.5" stroke="black" stroke-width="2" fill="none" />
<polyline points="403.0,106.0,411.5,105.5,419.5,104.5" stroke="black" stroke-width="2" fill="none" />
<polyline points="405.0,93.0,397.0,100.5,389.5,108.0" stroke="black" stroke-width="2" fill="none" />
<polyline points="394.5,110.5,403.0,110.0,411.5,109.0,419.0,108.0,427.0,107.0,435.0,105.5" stroke="black" stroke-width="2" fill="none" />
<polyline points="419.0,82.0,411.5,89.5,403.5,97.5,395.0,105.0" stroke="black" stroke-width="2" fill="none" />
<polyline points="388.0,101.5,395.5,101.0,403.5,100.0,412.0,99.0,420.5,98.5,429.0,98.0,437.5,97.0" stroke="black" stroke-width="2" fill="none" />
<polyline points="411.5,73.5,403.5,81.0,395.5,89.0,387.5,96.5" stroke="black" stroke-width="2" fill="none" />
<polyline points="380.0,97.5,388.0,90.0,396.0,82.5" stroke="black" stroke-width="2" fill="none" />
<polyline points="402.5,83.5,410.5,83.0" stroke="black" stroke-width="2" fill="none" />
<polyline points="404.0,68.5,396.0,76.0,388.0,84.0,380.5,91.5" stroke="black" stroke-width="2" fill="none" />
<polyline points="380.0,99.5,388.5,99.0,396.5,99.0,405.0,98.0,413.0,97.0" stroke="black" stroke-width="2" fill="none" />
<polyline points="388.5,76.0,380.5,83.5,372.0,90.5" stroke="black" stroke-width="2" fill="none" />
<polyline points="372.5,93.0,380.0,92.5,387.5,92.5,395.5,92.0,403.5,91.0,411.0,91.0,419.5,90.5,427.5,90.0" stroke="black" stroke-width="2" fill="none" />
<polyline points="388.0,61.5,380.0,68.5,372.0,76.0,363.5,83.5,355.5,90.5" stroke="black" stroke-width="2" fill="none" />
<polyline points="356.5,88.5,364.5,88.0,372.0,87.5,379.5,87.5,387.0,87.5,395.0,87.0,403.0,86.0" stroke="black" stroke-width="2" fill="none" />
<polyline points="380.5,76.0,373.0,83.0,364.5,90.5" stroke="black" stroke-width="2" fill="none" />
<polyline points="348.0,89.0,355.5,82.0,363.5,75.0,371.5,67.5,379.0,60.5" stroke="black" stroke-width="2" fill="none" />
<polyline points="364.5,68.5,356.5,76.0,348.0,83.0" stroke="black" stroke-width="2" fill="none" />
<polyline points="341.0,82.5,349.0,74.0,357.0,66.5" stroke="black" stroke-width="2" fill="none" />
<polyline points="350.5,66.0,342.0,74.0,334.0,81.5" stroke="black" stroke-width="2" fill="none" />
<polyline points="332.5,65.0,325.0,66.0" stroke="black" stroke-width="2" fill="none" />
<polyline points="324.5,59.5,317.0,67.0,309.0,74.5,301.0,82.5,292.5,90.5" stroke="black" stroke-width="2" fill="none" />
<polyline points="300.0,90.5,308.5,83.0,316.5,75.5,325.0,67.0,333.5,59.0,341.5,51.5" stroke="black" stroke-width="2" fill="none" />
<polyline points="350.0,50.5,342.5,58.5,334.0,66.5,325.5,74.0,317.0,81.5,308.5,89.0" stroke="black" stroke-width="2" fill="none" />
<polyline points="316.0,89.0,324.5,81.5,332.5,74.0,341.0,66.0,350.0,58.0,358.5,50.5" stroke="black" stroke-width="2" fill="none" />
<polyline points="348.0,55.5,339.0,56.0,331.0,56.0" stroke="black" stroke-width="2" fill="none" />
<polyline points="323.0,52.5,331.0,52.0,339.0,51.5,347.0,51.0,355.0,51.0" stroke="black" stroke-width="2" fill="none" />
<polyline points="317.0,60.5,309.0,67.5,300.5,75.0,292.0,82.5,283.0,89.5,275.0,97.0" stroke="black" stroke-width="2" fill="none" />
<polyline points="274.5,89.5,283.0,82.5,291.0,75.0,299.0,67.5,307.5,60.0" stroke="black" stroke-width="2" fill="none" />
<polyline points="306.5,64.0,298.5,64.0" stroke="black" stroke-width="2" fill="none" />
<polyline points="301.0,62.0,308.5,61.5,316.0,60.5,323.5,59.5,331.0,58.5,338.5,57.5,346.5,57.5,354.5,57.0,363.0,56.5,371.0,56.0,379.0,55.0,387.0,55.0" stroke="black" stroke-width="2" fill="none" />
<polyline points="377.5,67.5,369.5,67.5,362.0,68.0,354.5,68.5,347.0,69.5,339.5,70.0,332.0,71.0,324.0,72.0,316.5,73.0,309.0,74.0,301.0,74.5,293.0,75.0" stroke="black" stroke-width="2" fill="none" />
<polyline points="282.0,76.0,274.0,83.5,266.5,90.5,259.0,98.0,251.5,106.0,244.0,113.5,236.5,120.5" stroke="black" stroke-width="2" fill="none" />
<polyline points="235.0,119.5,243.0,119.0" stroke="black" stroke-width="2" fill="none" />
<polyline points="242.5,123.5,234.5,130.5" stroke="black" stroke-width="2" fill="none" />
<polyline points="234.0,135.5,242.0,135.0" stroke="black" stroke-width="2" fill="none" />
<polyline points="237.0,137.0,229.0,144.5" stroke="black" stroke-width="2" fill="none" />
<polyline points="227.5,144.0,235.5,143.0" stroke="black" stroke-width="2" fill="none" />
<polyline points="236.5,145.5,228.0,153.0" stroke="black" stroke-width="2" fill="none" />
<polyline points="227.5,154.0,235.5,153.5" stroke="black" stroke-width="2" fill="none" />
<polyline points="236.0,154.0,228.0,161.5" stroke="black" stroke-width="2" fill="none" />
<polyline points="229.0,162.5,236.5,162.0" stroke="black" stroke-width="2" fill="none" />
<polyline points="236.0,162.5,228.0,170.0" stroke="black" stroke-width="2" fill="none" />
<polyline points="227.0,168.0,235.0,167.5" stroke="black" stroke-width="2" fill="none" />
<polyline points="236.5,169.5,228.5,177.0" stroke="black" stroke-width="2" fill="none" />
<polyline points="226.0,178.5,234.5,177.5,243.0,177.5,251.5,177.0,260.0,176.5" stroke="black" stroke-width="2" fill="none" />
<polyline points="258.5,180.0,250.5,187.5,242.5,195.0,234.5,202.5,226.5,209.5" stroke="black" stroke-width="2" fill="none" />
<polyline points="228.5,213.0,236.5,213.0,244.5,212.0,252.0,211.5,260.0,211.0,268.0,210.5,276.0,210.5,283.5,210.0,291.0,209.5" stroke="black" stroke-width="2" fill="none" />
<polyline points="289.5,212.5,281.5,220.5,273.5,228.0,265.5,234.5,258.0,241.5,250.5,248.5,242.5,256.0,235.0,263.5" stroke="black" stroke-width="2" fill="none" />
<polyline points="235.5,268.0,243.5,267.5,251.0,267.5,258.5,267.0,266.5,266.5,274.5,266.0,282.5,266.0,290.5,265.5" stroke="black" stroke-width="2" fill="none" />
<polyline points="322.0,264.5,329.5,264.0,338.5,264.0,347.0,264.0,355.5,264.0,364.0,264.0,372.0,263.5,379.5,263.5,387.5,263.0,395.5,263.0,403.5,262.5" stroke="black" stroke-width="2" fill="none" />
<polyline points="410.0,233.0,402.0,233.5,394.0,234.0,386.0,234.5" stroke="black" stroke-width="2" fill="none" />
<polyline points="380.0,236.0,371.5,243.0" stroke="black" stroke-width="2" fill="none" />
<polyline points="370.5,240.0,379.0,239.5,386.5,238.5,394.0,238.0,401.5,237.5,409.5,236.5,417.5,236.0" stroke="black" stroke-width="2" fill="none" />
<polyline points="412.0,219.5,403.5,227.0,395.0,235.0,387.0,242.5,379.0,249.5,371.5,257.5,363.0,265.5,355.0,273.5,347.5,281.0,339.0,288.5,331.5,296.5" stroke="black" stroke-width="2" fill="none" />
<polyline points="323.5,293.0,331.0,293.0,339.5,292.5,347.5,292.5,355.5,292.0,363.5,292.0,371.5,292.0,379.0,291.5,387.0,291.0,395.0,290.5,403.0,290.0,410.5,289.0,419.0,288.5" stroke="black" stroke-width="2" fill="none" />
<polyline points="427.0,244.5,419.5,245.5,412.0,246.5,403.5,247.0,395.5,247.5,387.0,248.5,379.0,249.0,371.5,250.5" stroke="black" stroke-width="2" fill="none" />
<polyline points="363.5,251.5,355.0,259.0,346.5,266.0,339.0,273.5,331.5,281.5,324.0,289.5" stroke="black" stroke-width="2" fill="none" />
<polyline points="322.0,287.5,330.0,287.0,338.5,286.5,346.5,286.0,354.5,286.5,362.5,287.0,370.5,286.5,379.0,287.0,387.5,287.0,396.5,287.5,405.0,287.0" stroke="black" stroke-width="2" fill="none" />
<polyline points="412.0,227.5,403.0,228.5,395.0,229.5,386.5,230.0,379.0,231.0" stroke="black" stroke-width="2" fill="none" />
<polyline points="380.0,226.5,371.5,227.5" stroke="black" stroke-width="2" fill="none" />
<polyline points="371.0,219.0,379.0,218.5,387.5,218.0,396.0,217.0,403.5,216.5,411.5,215.5" stroke="black" stroke-width="2" fill="none" />
<polyline points="413.5,210.5,405.5,218.5,397.5,226.5,388.5,234.5,379.5,242.0,371.0,250.0,362.5,257.5,353.5,265.5,345.0,273.0,336.5,280.0,328.5,287.5,321.0,295.0" stroke="black" stroke-width="2" fill="none" />
<polyline points="324.0,302.5,331.5,302.0,340.0,301.5,347.5,301.0,355.0,300.5,363.0,300.0,371.0,300.0,379.0,299.0,387.0,298.5,395.5,297.0,404.0,296.5,411.5,296.0" stroke="black" stroke-width="2" fill="none" />
<polyline points="411.5,224.5,403.0,225.0,394.5,225.0,386.5,225.5" stroke="black" stroke-width="2" fill="none" />
<polyline points="388.0,226.5,396.0,219.0,403.5,211.0" stroke="black" stroke-width="2" fill="none" />
<polyline points="402.0,206.0,394.0,213.0,387.0,219.5" stroke="black" stroke-width="2" fill="none" />
<polyline points="387.0,221.5,395.0,221.5,403.0,220.5,411.0,220.0" stroke="black" stroke-width="2" fill="none" />
<polyline points="427.0,214.5,435.0,213.5,443.5,213.0,451.0,212.0" stroke="black" stroke-width="2" fill="none" />
<polyline points="441.5,208.5,434.0,208.5" stroke="black" stroke-width="2" fill="none" />
<polyline points="436.0,205.5,444.0,205.0,451.5,204.0" stroke="black" stroke-width="2" fill="none" />
<polyline points="451.5,196.5,443.5,196.0,435.5,196.5" stroke="black" stroke-width="2" fill="none" />
<polyline points="436.0,190.0,443.5,189.5,451.5,189.0" stroke="black" stroke-width="2" fill="none" />
<polyline points="450.5,180.0,443.0,180.5,435.0,181.0" stroke="black" stroke-width="2" fill="none" />
<polyline points="404.0,196.0,396.0,204.0,388.0,212.0,380.0,219.5,371.5,226.5,363.5,233.5,355.5,240.5,348.0,247.5,340.0,254.5,332.0,262.0,324.0,269.5" stroke="black" stroke-width="2" fill="none" />
<polyline points="323.0,270.0,331.0,269.0,339.0,268.0,347.0,267.5,355.5,267.5,363.5,267.0,371.5,266.5,379.0,265.0,387.0,264.5,394.5,264.5,402.0,264.0,410.5,263.5,418.5,263.0,427.0,262.0,435.0,262.0" stroke="black" stroke-width="2" fill="none" />
<polyline points="396.5,211.0,388.5,211.5,381.0,212.0" stroke="black" stroke-width="2" fill="none" />
<polyline points="379.5,203.5,387.5,203.0,395.5,202.0,403.0,201.0" stroke="black" stroke-width="2" fill="none" />
<polyline points="396.0,195.0,388.0,202.5,380.0,209.5,372.0,217.5" stroke="black" stroke-width="2" fill="none" />
<polyline points="371.0,210.0,379.0,202.5,387.0,195.0" stroke="black" stroke-width="2" fill="none" />
<polyline points="387.5,190.0,395.5,189.5" stroke="black" stroke-width="2" fill="none" />
<polyline points="380.5,194.0,372.0,202.0,364.0,209.0,355.5,216.5,347.5,224.5,339.5,232.0" stroke="black" stroke-width="2" fill="none" />
<polyline points="338.0,235.5,346.5,235.0,354.5,235.0,362.5,235.5" stroke="black" stroke-width="2" fill="none" />
<polyline points="363.0,234.0,371.0,233.5" stroke="black" stroke-width="2" fill="none" />
<polyline points="370.0,237.0,378.5,236.5,386.5,236.0,395.0,235.0,403.0,235.0,412.0,234.0,419.5,233.5,427.5,233.5,435.5,233.5,443.5,233.0" stroke="black" stroke-width="2" fill="none" />
<polyline points="363.0,242.5,355.0,250.0,347.5,257.0,339.5,264.5,332.0,272.5,324.0,281.0" stroke="black" stroke-width="2" fill="none" />
<polyline points="322.0,280.5,330.5,280.5,339.0,280.0,347.0,280.0,355.0,280.0,363.0,280.0,372.0,280.0,380.5,280.0,388.5,280.0,396.0,279.0,404.0,278.5,412.5,278.0" stroke="black" stroke-width="2" fill="none" />
<polyline points="361.5,248.5,353.5,248.5" stroke="black" stroke-width="2" fill="none" />
<polyline points="354.0,233.0,345.5,233.0" stroke="black" stroke-width="2" fill="none" />
<polyline points="340.0,227.0,348.0,227.0,355.5,227.5,362.5,227.0,370.0,226.5" stroke="black" stroke-width="2" fill="none" />
<polyline points="362.5,226.5,354.5,234.0,347.0,242.0,339.5,249.5,332.0,257.5,324.0,265.0" stroke="black" stroke-width="2" fill="none" />
<polyline points="323.0,258.5,330.5,251.0,338.0,244.0,346.0,236.5,354.0,229.0,362.0,221.5" stroke="black" stroke-width="2" fill="none" />
<polyline points="364.0,217.0,356.0,217.5" stroke="black" stroke-width="2" fill="none" />
<polyline points="356.0,213.5,364.0,212.5,372.0,212.0,380.5,212.0,389.5,212.0,397.5,211.5,405.5,210.5,413.5,210.0" stroke="black" stroke-width="2" fill="none" />
<polyline points="402.5,196.5,394.5,196.5,386.5,196.5,378.0,196.0,369.5,196.5" stroke="black" stroke-width="2" fill="none" />
<polyline points="361.5,206.5,370.0,206.0,377.5,205.0,386.0,204.5,394.5,203.5,402.5,203.0" stroke="black" stroke-width="2" fill="none" />
<polyline points="378.5,219.5,370.5,220.0,362.5,220.0,354.5,220.5,346.0,220.5" stroke="black" stroke-width="2" fill="none" />
<polyline points="339.0,240.5,346.5,240.0,354.5,239.5,362.0,239.0" stroke="black" stroke-width="2" fill="none" />
<polyline points="347.0,248.5,339.0,248.5,331.5,249.0" stroke="black" stroke-width="2" fill="none" />
<polyline points="331.0,245.0,339.5,244.5,347.0,244.0,355.0,243.5,363.5,243.5,371.5,242.5,379.5,242.5,387.0,242.0,395.0,241.5,403.0,241.5,411.0,240.5,419.0,240.5,427.0,239.5,435.0,239.0,442.5,238.5" stroke="black" stroke-width="2" fill="none" />
<polyline points="395.0,300.5,387.0,301.0,378.5,301.5,371.0,302.0,363.0,302.0,355.5,302.5,347.5,303.5,339.5,304.5" stroke="black" stroke-width="2" fill="none" />
<polyline points="322.5,284.0,330.5,283.5,339.0,283.5,347.5,283.0,356.0,282.5,364.5,282.5,372.5,282.5,380.5,282.5,388.5,283.0,395.5,283.0,403.5,282.5,411.5,282.0,419.5,281.0,427.0,280.0" stroke="black" stroke-width="2" fill="none" />
<polyline points="427.5,270.5,419.0,271.5,411.0,272.0,403.5,273.5,394.5,273.5,386.5,274.0,378.5,274.5,370.5,275.0,362.5,275.0,355.0,275.5,347.5,276.0,340.0,276.5,332.5,277.0,324.0,277.5" stroke="black" stroke-width="2" fill="none" />
<polyline points="323.0,274.5,331.0,274.0,339.5,274.0,347.5,273.5,355.5,272.5,363.0,272.0,371.0,271.5,379.0,270.0,387.0,269.0,395.0,268.0,402.5,267.0,411.0,266.5,418.5,265.5" stroke="black" stroke-width="2" fill="none" />
<polyline points="410.0,251.0,401.5,251.5,393.5,252.0,386.0,252.5,378.5,253.0,371.5,252.5,363.5,252.5,355.0,253.5,346.5,254.0,338.5,255.0,330.5,256.0,322.0,256.5" stroke="black" stroke-width="2" fill="none" />
<polyline points="323.0,252.0,331.0,251.5,339.5,251.0,348.0,250.5,356.5,250.5,364.5,250.5,372.5,250.0,380.5,249.5,389.0,249.0,397.0,248.5,404.5,248.0,412.0,247.5,419.5,247.5,427.5,247.0,435.5,246.0" stroke="black" stroke-width="2" fill="none" />
<polyline points="290.0,205.0,282.5,212.5,274.5,220.5,266.5,228.0,259.0,235.5,250.5,243.5,242.5,251.0,234.5,258.5" stroke="black" stroke-width="2" fill="none" />
<polyline points="235.0,255.0,243.0,255.0,250.0,255.0,258.0,255.0,265.5,255.0,274.0,255.5,282.0,255.0" stroke="black" stroke-width="2" fill="none" />
<polyline points="284.0,211.0,292.0,210.5" stroke="black" stroke-width="2" fill="none" />
<polyline points="291.0,203.0,282.5,203.5" stroke="black" stroke-width="2" fill="none" />
<polyline points="283.0,194.0,291.0,193.5" stroke="black" stroke-width="2" fill="none" />
<polyline points="289.0,195.5,281.5,203.0,274.0,210.5,267.0,218.0,259.0,226.0,252.0,234.0,243.5,241.5,235.5,249.0,227.5,256.5" stroke="black" stroke-width="2" fill="none" />
<polyline points="228.5,253.5,236.0,253.5,243.5,253.0,251.0,252.5,259.0,252.0,267.0,251.5,275.0,251.5,283.5,251.5,292.0,251.5" stroke="black" stroke-width="2" fill="none" />
<polyline points="275.0,200.5,267.0,201.5" stroke="black" stroke-width="2" fill="none" />
<polyline points="267.5,195.0,275.0,194.5" stroke="black" stroke-width="2" fill="none" />
<polyline points="273.5,195.0,266.0,203.0,258.5,211.0,251.0,218.5,243.5,226.0,236.0,234.0" stroke="black" stroke-width="2" fill="none" />
<polyline points="236.5,233.5,244.5,232.5,252.5,232.0,260.0,231.0,268.0,230.5,275.5,230.0,283.0,230.0,289.5,229.5" stroke="black" stroke-width="2" fill="none" />
<polyline points="258.5,202.5,250.5,210.0,242.5,218.0,234.5,225.5,226.5,233.5" stroke="black" stroke-width="2" fill="none" />
<polyline points="221.5,231.0,229.0,230.5,237.0,229.5,244.5,228.5,251.0,228.0,258.5,227.0,266.0,226.5,273.5,226.5,281.0,226.0,289.0,225.5" stroke="black" stroke-width="2" fill="none" />
<polyline points="293.0,189.0,285.0,189.5,277.0,190.0,269.5,191.0" stroke="black" stroke-width="2" fill="none" />
<polyline points="267.5,192.0,274.5,184.5,282.0,177.5,290.0,170.0" stroke="black" stroke-width="2" fill="none" />
<polyline points="282.0,166.0,274.5,166.5" stroke="black" stroke-width="2" fill="none" />
<polyline points="274.5,164.5,282.5,163.5,290.5,163.5" stroke="black" stroke-width="2" fill="none" />
<polyline points="282.0,154.0,274.0,161.5" stroke="black" stroke-width="2" fill="none" />
<polyline points="266.0,153.5,274.5,153.5,283.0,153.5" stroke="black" stroke-width="2" fill="none" />
<polyline points="281.5,147.5,274.0,155.0,265.5,163.0,258.0,170.5,250.5,178.0,243.0,185.5,235.0,193.0,228.0,201.0" stroke="black" stroke-width="2" fill="none" />
<polyline points="228.5,200.0,236.5,199.5,244.5,199.5,252.0,199.0,260.0,198.0" stroke="black" stroke-width="2" fill="none" />
<polyline points="257.5,195.0,249.5,202.0,241.5,210.0,233.5,217.5,225.5,225.0" stroke="black" stroke-width="2" fill="none" />
<polyline points="221.0,222.5,228.5,222.0,236.5,221.5,244.0,221.0,251.5,220.5,259.5,219.5,267.5,219.0,275.0,218.5,283.0,217.5,291.0,217.0" stroke="black" stroke-width="2" fill="none" />
<polyline points="292.0,180.5,284.5,181.5,277.0,183.0,269.0,183.5" stroke="black" stroke-width="2" fill="none" />
<polyline points="268.0,175.5,276.0,175.0,284.0,174.5,291.5,174.0" stroke="black" stroke-width="2" fill="none" />
<polyline points="276.0,148.5,268.0,155.5,260.5,163.0,252.5,170.5,244.5,178.0,236.5,185.5,228.5,193.5" stroke="black" stroke-width="2" fill="none" />
<polyline points="229.0,193.0,237.0,192.0,244.5,191.5,252.5,191.0,261.0,190.0" stroke="black" stroke-width="2" fill="none" />
<polyline points="257.5,187.0,249.5,195.0,241.5,203.0,233.5,210.5,225.5,218.0" stroke="black" stroke-width="2" fill="none" />
<polyline points="237.0,218.5,245.0,218.0,253.0,217.5,260.5,217.0,267.5,216.0,274.5,215.0,282.0,214.0,290.0,212.5" stroke="black" stroke-width="2" fill="none" />
<polyline points="266.5,167.5,257.5,168.0,249.0,168.0,241.0,169.0" stroke="black" stroke-width="2" fill="none" />
<polyline points="241.5,164.5,249.0,157.0" stroke="black" stroke-width="2" fill="none" />
<polyline points="245.0,156.5,253.0,156.0,261.0,156.0,269.0,155.0,276.0,154.5,283.5,153.5" stroke="black" stroke-width="2" fill="none" />
<polyline points="282.5,148.5,274.0,149.0,266.5,149.5" stroke="black" stroke-width="2" fill="none" />
<polyline points="261.0,153.5,252.5,161.5,245.0,170.0,237.0,178.0,229.0,185.5" stroke="black" stroke-width="2" fill="none" />
<polyline points="229.0,186.0,237.0,185.5,245.0,184.5,253.5,184.0,261.5,183.5" stroke="black" stroke-width="2" fill="none" />
<polyline points="268.0,164.0,259.5,164.0,251.0,163.5,243.0,164.0" stroke="black" stroke-width="2" fill="none" />
<polyline points="233.5,171.0,225.5,171.5" stroke="black" stroke-width="2" fill="none" />
<polyline points="220.0,183.0,228.5,182.5,236.0,181.5,243.5,180.5,251.0,179.5,258.5,179.0" stroke="black" stroke-width="2" fill="none" />
<polyline points="275.0,207.0,267.5,208.5,259.5,209.0,252.0,209.0,244.0,209.0,236.0,209.5" stroke="black" stroke-width="2" fill="none" />
<polyline points="220.0,207.5,228.0,206.5,236.0,206.0,244.0,205.5,251.5,205.0,259.5,204.0,267.5,203.0,275.5,203.0,283.5,202.5,291.5,201.5" stroke="black" stroke-width="2" fill="none" />
<polyline points="290.0,237.0,282.5,237.5,274.5,238.5,266.5,238.5,258.5,239.0,251.0,240.0,243.5,240.0,235.5,240.5" stroke="black" stroke-width="2" fill="none" />
<polyline points="235.5,226.0,243.5,225.5,251.5,224.5,259.5,224.0,267.0,223.5,274.5,222.5,282.5,222.0,290.0,221.0" stroke="black" stroke-width="2" fill="none" />
<polyline points="292.0,259.0,284.5,260.0,276.0,260.0,268.0,260.5,259.5,261.0,251.5,261.5,243.5,261.5,235.0,262.0,227.0,262.0" stroke="black" stroke-width="2" fill="none" />
<polyline points="219.5,246.0,227.5,245.5,235.5,245.0,244.0,244.5,252.0,244.0,260.0,243.0,268.5,242.5,277.0,242.0,285.0,241.5,293.0,240.5" stroke="black" stroke-width="2" fill="none" />
<polyline points="291.0,232.0,283.0,233.0,275.5,233.5,268.0,234.5,261.0,235.0,252.5,236.0,244.5,237.0,236.5,238.0,228.5,238.5,220.5,239.0" stroke="black" stroke-width="2" fill="none" />
<polyline points="221.0,199.5,228.5,199.0,236.0,198.0,244.0,197.0,252.0,196.0,260.0,195.5,267.5,194.5,275.0,193.5,283.0,192.5,291.5,191.5" stroke="black" stroke-width="2" fill="none" />
<polyline points="234.5,156.5,226.5,157.0" stroke="black" stroke-width="2" fill="none" />
<polyline points="228.0,150.0,236.0,149.5" stroke="black" stroke-width="2" fill="none" />
<polyline points="236.0,146.0,227.5,146.5" stroke="black" stroke-width="2" fill="none" />
<polyline points="234.5,125.0,243.0,124.5,251.5,124.0" stroke="black" stroke-width="2" fill="none" />
<polyline points="251.0,112.5,243.0,112.5" stroke="black" stroke-width="2" fill="none" />
<polyline points="241.5,110.0,249.0,109.5,257.0,108.5,266.0,108.0" stroke="black" stroke-width="2" fill="none" />
<polyline points="266.0,98.5,258.0,99.0" stroke="black" stroke-width="2" fill="none" />
<polyline points="259.0,92.5,250.5,100.0,242.5,107.0" stroke="black" stroke-width="2" fill="none" />
<polyline points="243.0,105.5,251.0,105.5,259.0,105.0" stroke="black" stroke-width="2" fill="none" />
<polyline points="243.5,101.5,252.0,101.0,260.5,100.5,268.5,100.0,276.5,100.5" stroke="black" stroke-width="2" fill="none" />
<polyline points="280.5,89.5,288.5,89.0,297.0,88.5,305.0,87.5,313.0,87.5" stroke="black" stroke-width="2" fill="none" />
<polyline points="281.0,69.5,289.0,68.5,297.5,68.0,305.5,67.5,313.5,67.0,321.5,66.5,330.0,65.5,338.5,64.5,346.5,64.0,355.0,64.0,363.5,63.5,371.5,62.5,379.5,61.5,387.0,61.0,395.0,61.0,402.5,60.5" stroke="black" stroke-width="2" fill="none" />
<polyline points="275.0,75.0,267.0,82.5" stroke="black" stroke-width="2" fill="none" />
<polyline points="267.0,81.0,275.5,80.0,283.5,79.5,291.5,79.0,299.5,79.0,307.5,78.5,315.5,78.0,323.0,77.0,330.5,76.5,338.5,75.5,346.5,75.0,354.5,74.5,363.0,74.5,371.5,74.0,380.0,73.5,388.5,73.5,396.5,73.5" stroke="black" stroke-width="2" fill="none" />
<polyline points="275.5,88.0,268.0,88.5" stroke="black" stroke-width="2" fill="none" />
<polyline points="267.5,80.0,275.5,79.5,284.0,79.0,291.5,78.5,299.5,77.0,307.0,76.0,315.0,75.5,322.5,74.5,330.5,73.5,338.0,72.5,346.0,71.5,354.5,71.5,363.0,71.0,371.0,71.0,379.0,71.0,387.0,71.0,396.0,71.0,404.5,71.0,412.5,71.0" stroke="black" stroke-width="2" fill="none" />
<polyline points="419.5,77.5,411.5,78.0,403.5,78.0,395.5,78.5,388.0,78.5,380.0,79.0,371.5,79.0,363.0,79.0,354.5,79.0,345.5,79.0,338.0,79.5,330.0,80.0,322.0,80.5,314.5,81.0,307.5,81.5,299.5,82.5,291.0,83.5,282.0,84.5,273.5,85.5,265.5,87.0,257.0,87.5" stroke="black" stroke-width="2" fill="none" />
<polyline points="250.5,90.5,258.5,90.5,266.5,90.5,274.5,90.0,282.5,89.0,290.5,88.5" stroke="black" stroke-width="2" fill="none" />
<polyline points="259.5,115.0,252.0,116.0,244.5,117.0,236.0,117.5" stroke="black" stroke-width="2" fill="none" />
<polyline points="259.0,187.0,252.0,188.0,244.5,189.0,237.0,189.0,229.5,189.5,221.5,190.5" stroke="black" stroke-width="2" fill="none" />
</svg>