<svg xmlns="http://www.w3.org/2000/svg" version="1.1"><polyline points="2.5,7.0,11.0,6.5,19.0,6.5,26.5,6.0,34.0,5.5" stroke="black" stroke-width="2" fill="none" />
<polyline points="42.0,4.5,50.5,4.0" stroke="black" stroke-width="2" fill="none" />
<polyline points="58.0,8.0,66.0,7.0,74.5,6.0,82.5,5.0" stroke="black" stroke-width="2" fill="none" />
<polyline points="91.5,13.5,99.5,13.0,107.5,12.0" stroke="black" stroke-width="2" fill="none" />
<polyline points="100.5,27.5,92.5,27.5" stroke="black" stroke-width="2" fill="none" />
<polyline points="91.0,20.5,99.0,20.0" stroke="black" stroke-width="2" fill="none" />
<polyline points="73.5,37.5,65.5,38.0" stroke="black" stroke-width="2" fill="none" />
<polyline points="66.5,46.5,58.0,46.5" stroke="black" stroke-width="2" fill="none" />
<polyline points="58.5,61.5,50.5,62.5" stroke="black" stroke-width="2" fill="none" />
<polyline points="43.5,85.5,35.5,86.5" stroke="black" stroke-width="2" fill="none" />
<polyline points="28.0,69.0,20.5,69.0,12.5,69.5" stroke="black" stroke-width="2" fill="none" />
<polyline points="12.0,78.5,3.5,79.0" stroke="black" stroke-width="2" fill="none" />
<polyline points="1.5,62.0,9.5,62.0" stroke="black" stroke-width="2" fill="none" />
<polyline points="10.0,52.5,2.5,52.5" stroke="black" stroke-width="2" fill="none" />
<polyline points="4.0,44.0,11.5,43.5,19.0,43.5" stroke="black" stroke-width="2" fill="none" />
<polyline points="20.0,53.5,28.0,52.5,36.0,52.0,44.0,51.5" stroke="black" stroke-width="2" fill="none" />
<polyline points="45.0,38.0,37.0,39.0" stroke="black" stroke-width="2" fill="none" />
<polyline points="29.5,45.0,37.0,44.5,44.0,43.5,52.0,43.0" stroke="black" stroke-width="2" fill="none" />
<polyline points="49.5,28.5,57.5,28.5" stroke="black" stroke-width="2" fill="none" />
<polyline points="51.5,20.5,59.5,20.0,68.0,19.5" stroke="black" stroke-width="2" fill="none" />
<polyline points="60.0,14.0,52.5,14.5" stroke="black" stroke-width="2" fill="none" />
<polyline points="20.0,27.5,12.0,27.5,4.0,28.0" stroke="black" stroke-width="2" fill="none" />
<polyline points="3.5,21.5,11.5,20.5,20.0,20.5,28.0,20.0,36.0,19.5,44.0,19.0" stroke="black" stroke-width="2" fill="none" />
<polyline points="35.5,11.5,27.0,12.0,19.0,13.0,11.0,13.5,3.0,14.0" stroke="black" stroke-width="2" fill="none" />
<polyline points="6.0,103.5,13.5,103.0" stroke="black" stroke-width="2" fill="none" />
<polyline points="13.5,125.5,21.5,124.5" stroke="black" stroke-width="2" fill="none" />
<polyline points="29.0,133.5,37.0,132.5" stroke="black" stroke-width="2" fill="none" />
<polyline points="49.0,142.5,57.0,142.0" stroke="black" stroke-width="2" fill="none" />
<polyline points="28.0,181.5,19.5,182.0" stroke="black" stroke-width="2" fill="none" />
<polyline points="21.0,222.0,13.0,222.5" stroke="black" stroke-width="2" fill="none" />
<polyline points="12.0,246.0,20.5,246.0" stroke="black" stroke-width="2" fill="none" />
<polyline points="106.5,278.5,115.0,278.0,122.5,277.0,130.5,276.0,139.0,275.0,147.0,274.0,155.0,273.0,163.0,272.5,171.0,272.0,179.0,271.5,187.0,271.0,194.5,270.5,202.0,270.0,210.0,269.5,217.5,269.0,225.0,269.0,233.5,269.0,241.5,268.5,249.5,268.5,258.0,268.5,265.5,268.0,273.5,267.5,282.0,267.0,290.5,266.5,298.5,266.0,307.5,265.5,315.5,265.0,324.0,264.5,332.0,264.0,340.0,263.0,348.0,262.0,356.0,262.0,363.5,261.5,371.5,261.5,380.0,261.0,388.0,260.5,396.0,260.0" stroke="black" stroke-width="2" fill="none" />
<polyline points="394.0,261.0,386.5,268.5,378.0,276.0,370.0,283.5,361.5,291.0,353.5,298.5,346.0,306.0,338.5,313.0,331.0,320.5,323.5,327.5" stroke="black" stroke-width="2" fill="none" />
<polyline points="332.0,328.5,340.0,321.0,347.5,313.0,355.5,305.5,363.5,297.5,371.0,290.5,378.5,283.0,386.5,276.0,394.5,268.0" stroke="black" stroke-width="2" fill="none" />
<polyline points="395.5,264.5,388.0,265.0" stroke="black" stroke-width="2" fill="none" />
<polyline points="386.5,263.5,394.5,263.0" stroke="black" stroke-width="2" fill="none" />
<polyline points="396.5,275.0,388.5,282.5,380.0,290.0,372.5,297.5,364.5,305.0,356.5,312.5,348.5,320.5,340.5,327.5,332.0,335.0" stroke="black" stroke-width="2" fill="none" />
<polyline points="332.5,337.0,341.0,336.5,349.0,336.0,357.0,335.5,364.5,335.0,371.5,334.5,379.5,334.0,387.0,333.5,394.5,333.0" stroke="black" stroke-width="2" fill="none" />
<polyline points="403.0,332.5,395.0,340.5,387.0,348.5,379.0,356.0,371.5,363.0,363.5,370.0,355.5,377.5,348.0,385.0,340.5,392.5,332.5,399.5" stroke="black" stroke-width="2" fill="none" />
<polyline points="330.0,400.0,337.5,399.5,346.0,398.5,354.5,397.0,363.5,396.0,372.0,395.0,380.0,394.0,388.5,394.0,396.5,394.0,405.0,393.0" stroke="black" stroke-width="2" fill="none" />
<polyline points="396.0,395.0,388.0,402.5,380.0,410.0,372.5,417.5,365.0,425.0,356.5,432.5,348.5,441.0,340.0,449.0,332.0,457.0" stroke="black" stroke-width="2" fill="none" />
<polyline points="332.5,458.0,340.5,457.5" stroke="black" stroke-width="2" fill="none" />
<polyline points="347.5,457.5,355.5,457.0,363.0,456.0,371.0,455.5" stroke="black" stroke-width="2" fill="none" />
<polyline points="377.0,457.0,385.0,456.5" stroke="black" stroke-width="2" fill="none" />
<polyline points="387.5,453.0,379.0,460.5,371.0,468.0,363.0,475.5,355.0,483.0,347.0,490.5,339.0,498.0,331.5,505.0,323.5,512.5,316.0,519.5,308.0,527.0,300.0,534.5,291.5,542.0,283.0,549.0,274.5,555.5,266.0,563.0,258.0,571.0" stroke="black" stroke-width="2" fill="none" />
<polyline points="257.5,573.0,250.0,580.0,243.0,587.5" stroke="black" stroke-width="2" fill="none" />
<polyline points="236.5,580.0,244.5,572.0,253.0,564.0,261.5,556.0,269.5,548.5,277.5,541.0,285.0,533.5,292.5,526.0,300.0,518.5,307.0,511.0,315.0,503.5,323.0,496.5,331.5,489.0,339.0,481.0,347.0,473.0,354.5,465.0,362.5,457.0,370.5,449.5,378.5,441.5,386.5,433.5,394.5,426.0" stroke="black" stroke-width="2" fill="none" />
<polyline points="395.5,419.0,387.5,427.0,379.0,434.5,370.5,442.5,362.5,449.5,354.5,457.0,346.5,465.0,338.5,472.5,331.0,480.0,323.0,488.0,315.0,495.5,307.0,502.5,299.0,510.0,291.0,517.0,283.5,524.0,275.0,531.5,267.5,540.0,259.5,548.0" stroke="black" stroke-width="2" fill="none" />
<polyline points="266.5,555.5,275.0,548.0,283.5,539.5,292.0,532.0,300.5,525.0,308.5,517.5,316.5,510.0,325.0,502.5,333.0,495.5,341.0,488.5,349.5,481.0,357.5,474.0,364.5,466.5,372.0,459.5,379.5,452.0,387.5,444.5" stroke="black" stroke-width="2" fill="none" />
<polyline points="394.0,446.0,402.0,445.5" stroke="black" stroke-width="2" fill="none" />
<polyline points="403.0,453.5,395.5,454.0" stroke="black" stroke-width="2" fill="none" />
<polyline points="388.5,462.5,380.5,470.0,372.0,477.0,363.5,484.0,355.0,491.5,347.0,499.0,339.0,506.5,331.5,514.0,323.5,522.0,316.0,529.5" stroke="black" stroke-width="2" fill="none" />
<polyline points="307.0,540.0,298.5,548.0,290.5,555.5,283.5,563.5" stroke="black" stroke-width="2" fill="none" />
<polyline points="292.0,558.0,299.5,551.0,307.5,544.0,315.0,536.5,323.5,529.0,331.0,521.5,339.0,514.0,346.5,506.5" stroke="black" stroke-width="2" fill="none" />
<polyline points="347.0,505.0,339.0,505.5" stroke="black" stroke-width="2" fill="none" />
<polyline points="356.5,497.5,364.0,490.5,372.0,483.0,380.5,475.5,388.0,467.5" stroke="black" stroke-width="2" fill="none" />
<polyline points="388.5,476.0,381.0,483.5,373.0,491.0,365.0,498.5,357.0,505.5,348.5,512.5,340.5,519.5,333.0,527.0,324.5,534.5,316.5,541.5,308.5,549.5" stroke="black" stroke-width="2" fill="none" />
<polyline points="308.0,557.5,315.5,550.0,323.5,542.5,331.5,535.0,339.5,527.0,348.0,519.5,356.0,512.5,364.5,505.5,373.0,498.5,381.0,491.0,389.0,484.0" stroke="black" stroke-width="2" fill="none" />
<polyline points="387.5,491.5,379.5,499.0,371.5,507.0,363.5,514.5,356.0,521.5,348.0,529.0,339.5,536.0,331.0,543.5,322.5,550.5,314.5,557.5,306.5,564.5" stroke="black" stroke-width="2" fill="none" />
<polyline points="308.0,563.5,316.0,562.5" stroke="black" stroke-width="2" fill="none" />
<polyline points="323.5,562.5,316.0,570.0" stroke="black" stroke-width="2" fill="none" />
<polyline points="317.5,579.0,325.0,571.5,333.0,563.5" stroke="black" stroke-width="2" fill="none" />
<polyline points="338.5,554.5,346.5,547.0,355.0,539.5,364.0,532.0,372.0,524.0,380.0,516.5,388.0,508.5" stroke="black" stroke-width="2" fill="none" />
<polyline points="387.0,514.5,379.0,522.0,370.5,530.0,362.5,537.5,354.5,545.0" stroke="black" stroke-width="2" fill="none" />
<polyline points="348.0,554.0,340.5,561.5,332.5,568.5" stroke="black" stroke-width="2" fill="none" />
<polyline points="323.5,577.5,315.0,585.5" stroke="black" stroke-width="2" fill="none" />
<polyline points="315.0,586.5,322.5,586.5,331.0,586.0" stroke="black" stroke-width="2" fill="none" />
<polyline points="339.5,585.0,347.0,577.0,354.5,569.5,363.0,561.5,371.0,554.0,378.5,546.5,386.0,539.5,393.5,532.0" stroke="black" stroke-width="2" fill="none" />
<polyline points="389.0,529.5,380.5,537.0,373.0,544.5,365.0,552.0,357.0,560.0,349.0,567.5,340.5,575.5,332.0,583.5" stroke="black" stroke-width="2" fill="none" />
<polyline points="338.5,590.5,346.5,590.0,355.0,589.5,363.0,588.5,371.0,587.5,378.5,586.5,386.5,586.0,394.5,586.0,402.5,585.5" stroke="black" stroke-width="2" fill="none" />
<polyline points="395.5,590.5,388.0,597.5" stroke="black" stroke-width="2" fill="none" />
<polyline points="386.0,596.5,394.0,596.0,403.0,595.0" stroke="black" stroke-width="2" fill="none" />
<polyline points="388.5,588.5,380.0,595.5" stroke="black" stroke-width="2" fill="none" />
<polyline points="372.5,594.0,380.5,587.0,389.0,579.5" stroke="black" stroke-width="2" fill="none" />
<polyline points="394.5,571.5,403.0,564.0" stroke="black" stroke-width="2" fill="none" />
<polyline points="396.0,564.0,388.0,571.5,379.5,579.0,371.0,586.0,362.5,592.5" stroke="black" stroke-width="2" fill="none" />
<polyline points="370.0,593.0,378.0,592.5,386.0,592.0" stroke="black" stroke-width="2" fill="none" />
<polyline points="378.0,604.0,370.0,611.0" stroke="black" stroke-width="2" fill="none" />
<polyline points="369.5,609.5,377.0,609.0" stroke="black" stroke-width="2" fill="none" />
<polyline points="380.0,613.5,388.0,613.5" stroke="black" stroke-width="2" fill="none" />
<polyline points="363.0,585.0,371.5,576.5,380.0,569.0,388.5,562.0,396.5,554.5" stroke="black" stroke-width="2" fill="none" />
<polyline points="395.5,547.0,387.5,554.5,379.5,562.5,371.5,570.0,363.5,578.0" stroke="black" stroke-width="2" fill="none" />
<polyline points="347.0,584.0,355.0,576.5,363.0,569.0,370.5,562.0,378.0,554.5,385.5,547.5,393.5,540.0" stroke="black" stroke-width="2" fill="none" />
<polyline points="387.5,521.5,379.0,529.5,371.0,537.5,363.0,545.5,355.0,553.0,347.0,561.0,339.0,569.0,330.5,576.5,322.5,584.5" stroke="black" stroke-width="2" fill="none" />
<polyline points="309.5,580.5,301.0,588.0" stroke="black" stroke-width="2" fill="none" />
<polyline points="298.0,590.0,306.0,589.5,314.0,590.0" stroke="black" stroke-width="2" fill="none" />
<polyline points="309.0,588.0,301.0,595.5" stroke="black" stroke-width="2" fill="none" />
<polyline points="299.0,594.5,307.5,594.0" stroke="black" stroke-width="2" fill="none" />
<polyline points="300.5,579.0,292.0,586.5" stroke="black" stroke-width="2" fill="none" />
<polyline points="285.5,586.5,293.5,579.0" stroke="black" stroke-width="2" fill="none" />
<polyline points="292.0,571.0,283.5,578.5,276.5,586.5" stroke="black" stroke-width="2" fill="none" />
<polyline points="275.0,586.5,283.5,586.0,291.0,585.5,299.5,585.5,308.0,585.0" stroke="black" stroke-width="2" fill="none" />
<polyline points="274.5,580.0,266.0,587.5" stroke="black" stroke-width="2" fill="none" />
<polyline points="267.5,581.0,275.5,581.0,283.0,580.5,290.5,580.5,298.5,580.0,306.0,580.0,314.5,580.0,322.0,579.5,330.0,579.0,338.0,578.5,346.5,578.0,354.0,577.5,362.0,577.0,370.0,576.5,378.5,576.0,387.0,575.5,395.0,575.0,403.0,574.5" stroke="black" stroke-width="2" fill="none" />
<polyline points="388.5,522.0,380.5,522.5" stroke="black" stroke-width="2" fill="none" />
<polyline points="380.5,513.0,388.5,512.5" stroke="black" stroke-width="2" fill="none" />
<polyline points="387.5,500.5,379.0,507.5,371.0,514.5,363.0,521.5,355.5,529.0,347.0,536.5,339.0,544.0,331.0,552.0" stroke="black" stroke-width="2" fill="none" />
<polyline points="349.0,593.5,341.0,601.0" stroke="black" stroke-width="2" fill="none" />
<polyline points="339.5,603.0,347.5,602.0" stroke="black" stroke-width="2" fill="none" />
<polyline points="350.0,605.5,357.5,604.5,365.0,604.0,372.5,603.0,380.5,603.0,388.0,602.5,395.5,602.5" stroke="black" stroke-width="2" fill="none" />
<polyline points="355.5,596.5,347.5,597.0,339.5,597.5" stroke="black" stroke-width="2" fill="none" />
<polyline points="338.0,619.5,330.0,627.0" stroke="black" stroke-width="2" fill="none" />
<polyline points="324.0,626.0,332.0,618.5" stroke="black" stroke-width="2" fill="none" />
<polyline points="276.5,571.0,268.0,579.0" stroke="black" stroke-width="2" fill="none" />
<polyline points="250.5,563.0,243.0,569.5,235.0,576.5,227.5,584.5" stroke="black" stroke-width="2" fill="none" />
<polyline points="219.0,586.5,227.5,579.0,236.5,571.5,245.0,564.0" stroke="black" stroke-width="2" fill="none" />
<polyline points="234.5,554.0,242.5,546.5,251.5,539.0,259.5,531.0,267.0,524.0,275.0,516.5,283.5,508.5,292.0,501.0,300.0,493.5,308.0,487.0,315.0,479.5,323.5,472.0,331.0,463.5,339.0,455.5,347.0,448.0,355.0,440.5,363.0,433.0,371.0,425.5,379.0,417.5,386.5,410.0,394.5,403.0" stroke="black" stroke-width="2" fill="none" />
<polyline points="394.0,413.5,386.0,421.0,377.5,428.5,369.5,435.5,361.5,442.0,354.0,449.5,345.5,456.0,337.0,463.0,329.0,470.0,321.5,477.5,313.5,485.0,305.5,492.5,298.0,500.0,290.5,508.0,283.0,516.0" stroke="black" stroke-width="2" fill="none" />
<polyline points="275.0,532.0,267.5,540.0,259.0,547.5,250.5,555.0" stroke="black" stroke-width="2" fill="none" />
<polyline points="236.0,550.5,244.5,543.5,252.5,535.5,260.0,528.5,268.0,521.0,276.0,513.0,283.5,505.5,291.5,498.0,299.0,491.0,306.5,483.5,314.0,476.0,322.5,468.5" stroke="black" stroke-width="2" fill="none" />
<polyline points="314.5,469.5,306.5,476.5,299.0,483.5,291.5,490.5,284.0,498.0,276.0,504.5,268.0,512.0,259.5,519.0,251.5,526.5,243.0,533.5,235.5,540.5" stroke="black" stroke-width="2" fill="none" />
<polyline points="226.5,532.0,218.5,539.5,211.0,547.5,203.0,555.0,195.5,562.0,188.0,569.0,180.0,576.5,172.0,584.0" stroke="black" stroke-width="2" fill="none" />
<polyline points="180.0,580.5,188.0,573.0,195.5,565.5,203.5,558.5,211.5,550.5,219.5,543.0,227.5,535.5,235.5,528.5,243.0,521.0,251.0,513.0,259.5,505.5,268.0,497.5,276.0,490.5,284.0,483.0,292.0,475.5,300.0,467.5" stroke="black" stroke-width="2" fill="none" />
<polyline points="306.0,467.5,298.5,475.0,290.5,482.5,283.0,490.0,275.5,497.5,267.5,505.5,260.0,513.0,252.0,520.0,244.0,527.5,236.0,535.0,228.0,542.5,220.5,550.5,212.0,558.0,204.0,565.5,196.5,572.5,188.5,580.0" stroke="black" stroke-width="2" fill="none" />
<polyline points="196.5,586.0,204.5,578.5,212.5,571.0,220.0,563.0,228.0,556.0" stroke="black" stroke-width="2" fill="none" />
<polyline points="221.5,571.0,213.5,578.5,205.0,586.5" stroke="black" stroke-width="2" fill="none" />
<polyline points="202.0,587.0,210.0,586.5,218.0,586.0" stroke="black" stroke-width="2" fill="none" />
<polyline points="204.0,594.0,212.0,587.0,220.0,579.5,228.0,572.5" stroke="black" stroke-width="2" fill="none" />
<polyline points="210.0,591.5,201.5,592.0" stroke="black" stroke-width="2" fill="none" />
<polyline points="202.5,601.5,194.0,609.0" stroke="black" stroke-width="2" fill="none" />
<polyline points="188.5,610.0,197.0,602.5" stroke="black" stroke-width="2" fill="none" />
<polyline points="187.0,603.5,179.0,610.5" stroke="black" stroke-width="2" fill="none" />
<polyline points="171.5,610.5,179.5,602.5" stroke="black" stroke-width="2" fill="none" />
<polyline points="170.0,603.0,162.5,610.5" stroke="black" stroke-width="2" fill="none" />
<polyline points="162.5,613.0,171.0,612.5,179.5,612.5,188.0,612.0,196.0,612.0,204.0,612.0,212.5,611.0,220.0,610.0" stroke="black" stroke-width="2" fill="none" />
<polyline points="212.0,606.0,204.0,613.5" stroke="black" stroke-width="2" fill="none" />
<polyline points="202.0,610.5,194.5,611.0,186.5,611.0" stroke="black" stroke-width="2" fill="none" />
<polyline points="178.5,610.0,170.5,610.5" stroke="black" stroke-width="2" fill="none" />
<polyline points="164.5,610.0,156.5,610.0" stroke="black" stroke-width="2" fill="none" />
<polyline points="155.0,610.0,162.5,603.0,170.5,595.5" stroke="black" stroke-width="2" fill="none" />
<polyline points="155.0,587.0,163.0,579.0,171.0,571.5,179.5,564.0,188.0,556.0,197.0,548.0,204.5,540.0,212.5,532.5,220.0,525.5,227.5,518.5,235.0,511.5,242.0,505.0,250.0,497.5,258.5,490.0,266.0,483.0,274.0,476.0,282.0,468.5" stroke="black" stroke-width="2" fill="none" />
<polyline points="274.5,466.0,266.0,473.5,258.5,481.5,251.0,489.5,243.0,497.5,235.5,505.5,227.5,513.5,219.5,521.0,211.0,528.5,203.0,536.0,195.5,544.0,187.0,551.0,179.5,558.0,171.5,565.0,163.0,573.0,154.5,580.5,147.0,588.0" stroke="black" stroke-width="2" fill="none" />
<polyline points="140.0,592.5,148.0,584.5,156.5,577.0,164.5,569.5,172.5,562.0,180.5,554.0,189.0,546.5" stroke="black" stroke-width="2" fill="none" />
<polyline points="187.5,537.5,195.0,537.5" stroke="black" stroke-width="2" fill="none" />
<polyline points="195.0,533.0,202.5,525.5,210.0,518.0,218.0,510.5,226.0,503.0,233.5,496.5,241.5,489.0,249.5,482.0,258.0,474.5,265.5,467.5" stroke="black" stroke-width="2" fill="none" />
<polyline points="259.0,467.0,251.0,474.5,243.5,482.0,235.5,489.5,227.5,497.5,219.5,505.0,212.0,513.0,204.0,520.5,196.0,528.5,187.5,535.5,179.0,543.5,171.0,550.5,163.5,557.5,155.5,564.5,148.0,571.5,139.5,578.5,132.0,586.0" stroke="black" stroke-width="2" fill="none" />
<polyline points="132.5,585.5,140.5,585.0,148.0,584.0,155.5,583.5,162.5,583.5,170.0,583.0,178.0,582.5,186.5,582.0,194.5,581.5,202.0,581.0,210.5,580.5,218.5,580.0,227.0,580.0,235.0,579.0,243.0,578.0,251.5,577.0" stroke="black" stroke-width="2" fill="none" />
<polyline points="235.5,519.0,244.0,512.0,252.5,505.0,260.5,498.0,268.5,490.5,276.5,483.5,284.5,476.5,292.5,469.0" stroke="black" stroke-width="2" fill="none" />
<polyline points="294.0,449.5,302.5,442.0" stroke="black" stroke-width="2" fill="none" />
<polyline points="290.5,445.0,282.5,452.0" stroke="black" stroke-width="2" fill="none" />
<polyline points="285.0,449.0,293.0,449.0,300.5,448.0" stroke="black" stroke-width="2" fill="none" />
<polyline points="301.0,445.0,292.5,445.5,284.5,446.0" stroke="black" stroke-width="2" fill="none" />
<polyline points="251.5,443.0,243.5,450.0" stroke="black" stroke-width="2" fill="none" />
<polyline points="242.5,445.5,234.5,453.0" stroke="black" stroke-width="2" fill="none" />
<polyline points="236.5,449.5,244.5,448.5,252.5,448.0" stroke="black" stroke-width="2" fill="none" />
<polyline points="252.5,443.0,245.0,443.5,237.0,444.0" stroke="black" stroke-width="2" fill="none" />
<polyline points="228.0,443.0,220.0,450.5" stroke="black" stroke-width="2" fill="none" />
<polyline points="218.0,446.5,226.0,446.5" stroke="black" stroke-width="2" fill="none" />
<polyline points="227.0,443.0,218.5,443.0" stroke="black" stroke-width="2" fill="none" />
<polyline points="211.5,443.0,203.5,450.5" stroke="black" stroke-width="2" fill="none" />
<polyline points="203.5,447.0,211.5,447.0" stroke="black" stroke-width="2" fill="none" />
<polyline points="213.0,446.0,204.5,446.5" stroke="black" stroke-width="2" fill="none" />
<polyline points="187.0,441.5,178.5,449.0,170.0,457.0,162.0,465.0,154.0,473.5,146.0,481.5,138.0,489.0,130.0,496.5" stroke="black" stroke-width="2" fill="none" />
<polyline points="131.5,500.0,139.5,499.5,147.0,498.5,154.5,498.0,162.5,497.0,170.5,496.5,178.0,496.0,186.0,495.5,194.0,495.5,202.0,494.5" stroke="black" stroke-width="2" fill="none" />
<polyline points="203.5,507.5,195.5,508.5" stroke="black" stroke-width="2" fill="none" />
<polyline points="202.0,514.0,210.0,506.0,218.0,498.5,226.5,490.0,235.0,482.5,243.5,475.0,251.5,467.5" stroke="black" stroke-width="2" fill="none" />
<polyline points="242.5,469.5,234.5,477.5,226.5,485.0,219.0,492.5,211.5,499.5,204.0,506.5,196.0,513.5,187.5,520.5,179.5,527.5,171.5,534.5,164.5,542.0,156.0,550.0,147.0,558.0,138.5,566.0,130.0,574.0" stroke="black" stroke-width="2" fill="none" />
<polyline points="133.5,575.5,141.5,575.0,149.0,574.5,157.0,574.0,164.0,573.5,172.0,573.0,179.5,572.5" stroke="black" stroke-width="2" fill="none" />
<polyline points="181.0,554.5,173.0,555.0" stroke="black" stroke-width="2" fill="none" />
<polyline points="179.5,560.5,172.0,561.0,164.0,561.0" stroke="black" stroke-width="2" fill="none" />
<polyline points="156.5,539.0,164.0,538.5,172.0,538.0,180.0,537.0" stroke="black" stroke-width="2" fill="none" />
<polyline points="190.0,528.5,197.5,527.5" stroke="black" stroke-width="2" fill="none" />
<polyline points="197.0,524.0,188.5,531.5,180.0,538.5,171.5,546.0,163.0,553.5,155.0,561.0,147.0,568.5,139.0,576.0,131.5,584.0" stroke="black" stroke-width="2" fill="none" />
<polyline points="122.5,580.0,114.5,587.0" stroke="black" stroke-width="2" fill="none" />
<polyline points="116.0,588.0,124.0,587.5,132.0,587.5,139.5,587.0,147.5,587.0,155.0,586.5,163.0,586.0,171.5,586.0,179.5,585.5" stroke="black" stroke-width="2" fill="none" />
<polyline points="211.0,601.5,203.0,601.5,194.5,602.0,187.0,602.5,179.0,603.5,171.5,604.5,163.0,605.5,154.5,606.5,146.5,607.5" stroke="black" stroke-width="2" fill="none" />
<polyline points="138.0,598.5,146.0,598.0,154.5,597.0,163.0,596.0,171.0,595.0" stroke="black" stroke-width="2" fill="none" />
<polyline points="147.0,594.0,138.5,594.5,130.5,595.5" stroke="black" stroke-width="2" fill="none" />
<polyline points="121.0,588.0,113.0,595.5" stroke="black" stroke-width="2" fill="none" />
<polyline points="115.5,596.5,123.5,596.5" stroke="black" stroke-width="2" fill="none" />
<polyline points="125.0,592.5,117.0,593.5" stroke="black" stroke-width="2" fill="none" />
<polyline points="116.5,581.0,124.5,580.5,132.5,579.5,140.0,579.0,147.0,578.0,154.5,577.0,162.5,577.0,170.5,577.0,178.5,576.5,187.0,576.0,195.0,575.0,202.5,575.0,210.5,574.0,219.0,573.5,227.5,573.5,235.5,573.0,244.0,572.5,252.5,571.5,261.0,570.5" stroke="black" stroke-width="2" fill="none" />
<polyline points="234.0,505.5,226.0,505.5" stroke="black" stroke-width="2" fill="none" />
<polyline points="226.0,496.5,218.0,496.5" stroke="black" stroke-width="2" fill="none" />
<polyline points="219.0,489.0,227.0,488.5" stroke="black" stroke-width="2" fill="none" />
<polyline points="218.5,480.0,226.5,480.0,235.0,479.5,243.0,479.0,250.5,478.5,258.0,477.5" stroke="black" stroke-width="2" fill="none" />
<polyline points="259.5,488.5,251.5,488.5" stroke="black" stroke-width="2" fill="none" />
<polyline points="267.0,491.5,274.5,490.5" stroke="black" stroke-width="2" fill="none" />
<polyline points="273.0,483.0,281.0,483.0,289.0,482.0,297.5,481.5,306.0,481.0,314.0,479.5,322.5,479.0" stroke="black" stroke-width="2" fill="none" />
<polyline points="323.5,491.0,331.5,490.5" stroke="black" stroke-width="2" fill="none" />
<polyline points="337.5,471.0,346.0,470.5" stroke="black" stroke-width="2" fill="none" />
<polyline points="350.0,481.5,358.0,481.0" stroke="black" stroke-width="2" fill="none" />
<polyline points="362.5,473.0,370.5,472.5" stroke="black" stroke-width="2" fill="none" />
<polyline points="379.5,472.5,387.5,472.0" stroke="black" stroke-width="2" fill="none" />
<polyline points="388.0,480.0,379.5,480.5" stroke="black" stroke-width="2" fill="none" />
<polyline points="378.0,489.0,386.5,489.0" stroke="black" stroke-width="2" fill="none" />
<polyline points="386.5,496.0,379.0,497.0" stroke="black" stroke-width="2" fill="none" />
<polyline points="377.5,507.0,385.5,506.0" stroke="black" stroke-width="2" fill="none" />
<polyline points="372.0,496.5,365.0,497.0,357.0,497.5" stroke="black" stroke-width="2" fill="none" />
<polyline points="379.0,465.0,387.5,464.0" stroke="black" stroke-width="2" fill="none" />
<polyline points="386.5,448.5,378.0,449.5" stroke="black" stroke-width="2" fill="none" />
<polyline points="381.0,440.0,389.0,440.0" stroke="black" stroke-width="2" fill="none" />
<polyline points="396.5,424.5,388.0,425.0,380.0,425.0" stroke="black" stroke-width="2" fill="none" />
<polyline points="380.5,417.0,388.5,416.5,396.0,415.5" stroke="black" stroke-width="2" fill="none" />
<polyline points="396.0,400.5,388.0,401.5,380.0,402.0" stroke="black" stroke-width="2" fill="none" />
<polyline points="380.0,395.0,388.0,394.5,395.5,394.0" stroke="black" stroke-width="2" fill="none" />
<polyline points="396.5,385.5,389.0,393.5,381.0,401.5,372.5,409.0,364.5,417.0,356.0,425.0,348.0,433.0,340.5,441.0,332.5,449.0" stroke="black" stroke-width="2" fill="none" />
<polyline points="333.0,450.5,341.0,449.5" stroke="black" stroke-width="2" fill="none" />
<polyline points="346.5,449.0,354.5,448.5,362.5,447.5,370.0,447.0" stroke="black" stroke-width="2" fill="none" />
<polyline points="356.5,434.0,364.5,433.5,372.5,432.5,380.5,431.5,388.0,431.5" stroke="black" stroke-width="2" fill="none" />
<polyline points="394.5,407.5,386.5,408.0,378.0,408.0,370.0,408.5" stroke="black" stroke-width="2" fill="none" />
<polyline points="363.0,410.0,355.0,410.5" stroke="black" stroke-width="2" fill="none" />
<polyline points="356.5,401.5,365.0,400.5,373.0,400.5" stroke="black" stroke-width="2" fill="none" />
<polyline points="371.5,384.5,379.5,384.0,388.0,383.0" stroke="black" stroke-width="2" fill="none" />
<polyline points="392.5,381.5,401.0,381.0" stroke="black" stroke-width="2" fill="none" />
<polyline points="398.0,371.5,389.5,379.0,381.0,386.5,372.5,394.0,364.0,401.5,355.5,408.5,347.5,416.5,339.5,424.0,330.5,431.5" stroke="black" stroke-width="2" fill="none" />
<polyline points="331.0,431.5,339.5,430.5,347.5,429.5,356.0,428.5,364.0,427.5,372.5,426.5,381.0,425.5,389.5,424.0,397.0,423.0,405.0,422.5" stroke="black" stroke-width="2" fill="none" />
<polyline points="388.0,389.0,379.5,396.0,371.5,404.0,363.0,411.5,355.0,418.5,347.0,425.5,339.5,433.0,331.5,440.0" stroke="black" stroke-width="2" fill="none" />
<polyline points="330.5,439.0,338.5,438.0,347.0,437.5,355.0,437.0,364.0,436.5,371.5,435.5,379.0,435.0,386.5,434.0,394.0,433.0" stroke="black" stroke-width="2" fill="none" />
<polyline points="346.0,463.5,338.5,464.5,330.0,465.0" stroke="black" stroke-width="2" fill="none" />
<polyline points="330.0,460.0,338.0,460.0,346.5,460.0,354.5,460.0,363.5,459.5,371.5,458.5,380.0,458.0,387.5,457.5" stroke="black" stroke-width="2" fill="none" />
<polyline points="387.5,452.0,379.5,452.5,371.5,453.0,364.0,453.0,357.0,454.0,349.5,454.0,342.0,454.0,334.0,454.0" stroke="black" stroke-width="2" fill="none" />
<polyline points="333.5,443.5,341.5,443.0,349.5,443.0,357.5,443.0,364.5,443.0,372.0,443.0,379.0,442.5,386.0,441.5" stroke="black" stroke-width="2" fill="none" />
<polyline points="364.5,439.5,356.5,439.0,348.5,439.5,341.0,440.0,333.0,440.5" stroke="black" stroke-width="2" fill="none" />
<polyline points="331.5,435.0,339.5,435.0,347.5,434.5" stroke="black" stroke-width="2" fill="none" />
<polyline points="331.5,427.0,339.5,426.0,347.5,425.0,356.0,424.5,365.0,423.5" stroke="black" stroke-width="2" fill="none" />
<polyline points="332.0,423.0,340.5,422.0,348.5,421.0,356.5,420.0,364.5,420.0,372.5,419.5,380.0,418.0,387.5,417.5,395.0,417.0,402.5,416.5" stroke="black" stroke-width="2" fill="none" />
<polyline points="396.5,363.0,388.5,370.5,380.5,378.5,372.0,386.5,364.5,394.5,356.5,402.0,348.0,409.5,339.0,416.5,330.5,424.0" stroke="black" stroke-width="2" fill="none" />
<polyline points="332.5,416.5,340.5,416.5,348.5,416.5,356.5,416.0,364.5,415.0" stroke="black" stroke-width="2" fill="none" />
<polyline points="332.5,411.0,340.5,411.0,348.5,411.0,356.0,411.0,364.0,411.0,372.0,411.0,380.0,411.5,388.5,411.0,397.0,411.0,405.0,410.0" stroke="black" stroke-width="2" fill="none" />
<polyline points="396.5,356.5,388.5,364.0,381.0,371.5,372.5,379.0,364.0,386.5,356.0,394.0,347.5,401.0,339.5,408.0,332.0,415.0" stroke="black" stroke-width="2" fill="none" />
<polyline points="331.0,409.0,339.0,409.5,347.5,409.0" stroke="black" stroke-width="2" fill="none" />
<polyline points="331.5,406.5,339.0,406.0,347.0,405.5,355.0,404.5,363.0,403.5,370.5,403.0,379.0,402.5,386.5,402.5,394.0,402.5,401.0,402.5" stroke="black" stroke-width="2" fill="none" />
<polyline points="396.5,367.5,388.5,368.0,380.5,369.0,372.5,370.0,365.0,370.0" stroke="black" stroke-width="2" fill="none" />
<polyline points="356.5,361.0,364.0,360.0,371.5,359.0,379.0,358.5,387.0,358.0,395.5,358.0" stroke="black" stroke-width="2" fill="none" />
<polyline points="396.5,347.0,388.0,354.5,380.0,362.0,372.0,370.0,363.0,378.0,355.0,385.5,347.0,392.5,339.0,399.5,331.0,406.5" stroke="black" stroke-width="2" fill="none" />
<polyline points="331.5,403.0,340.0,402.5,347.5,402.0" stroke="black" stroke-width="2" fill="none" />
<polyline points="330.5,394.0,338.5,393.5,347.0,393.5,356.0,393.5,364.0,392.5,372.5,391.5" stroke="black" stroke-width="2" fill="none" />
<polyline points="365.0,354.5,373.0,354.0,381.5,354.0,389.0,353.5,396.0,353.0" stroke="black" stroke-width="2" fill="none" />
<polyline points="402.5,323.5,395.0,331.0,387.5,339.0,380.0,347.0,372.0,354.5,363.5,362.5,355.5,370.0,348.0,376.5,340.0,384.0,332.0,391.0" stroke="black" stroke-width="2" fill="none" />
<polyline points="333.0,389.5,340.5,389.0,348.5,389.0,356.5,388.5,364.5,387.5,372.5,386.5,380.5,387.0,388.0,387.0,395.5,386.5,403.0,385.5" stroke="black" stroke-width="2" fill="none" />
<polyline points="404.0,326.0,396.5,326.5,388.5,327.0,380.5,327.0,372.5,327.5" stroke="black" stroke-width="2" fill="none" />
<polyline points="372.5,320.0,380.5,320.0,388.0,320.0,396.0,319.0,404.0,318.5" stroke="black" stroke-width="2" fill="none" />
<polyline points="402.5,313.5,395.0,321.0,386.5,328.0,378.5,335.5,370.0,343.5,362.0,351.5,354.5,359.0,346.5,367.5,338.5,375.5,331.0,383.0" stroke="black" stroke-width="2" fill="none" />
<polyline points="333.0,383.5,340.5,382.5,348.5,382.0,356.5,381.0,364.5,380.0,372.5,379.0,380.5,378.0,388.5,377.0" stroke="black" stroke-width="2" fill="none" />
<polyline points="355.5,353.5,347.5,354.5" stroke="black" stroke-width="2" fill="none" />
<polyline points="348.5,360.0,341.0,360.5,333.0,361.5" stroke="black" stroke-width="2" fill="none" />
<polyline points="331.5,363.0,339.5,363.0,347.0,363.0,355.0,363.0,363.0,363.0,371.0,363.0,379.0,362.5,387.0,362.0,394.5,361.0,402.5,360.5" stroke="black" stroke-width="2" fill="none" />
<polyline points="404.0,306.5,395.5,314.0,387.0,321.0,379.0,328.5,371.0,336.5,363.5,344.5,355.5,352.0,347.5,359.5,340.0,367.5,331.5,375.0" stroke="black" stroke-width="2" fill="none" />
<polyline points="332.5,372.5,340.5,372.0,348.5,371.0,356.0,371.0,363.5,371.0,372.0,371.0,380.0,370.0,389.0,369.5,397.5,369.5,406.0,369.0" stroke="black" stroke-width="2" fill="none" />
<polyline points="404.5,298.5,396.0,305.5,388.5,313.0,381.0,321.0,373.0,329.0,365.0,337.5,356.5,345.5,348.0,353.5,340.0,361.0,332.0,368.5" stroke="black" stroke-width="2" fill="none" />
<polyline points="331.5,368.5,339.5,368.0,347.5,368.0,356.0,367.5" stroke="black" stroke-width="2" fill="none" />
<polyline points="363.5,384.5,356.0,384.5,347.5,384.5,339.5,385.0,332.0,385.5" stroke="black" stroke-width="2" fill="none" />
<polyline points="331.5,378.5,339.5,378.0,348.0,376.5,356.5,375.5,365.0,375.0,373.0,374.5,381.0,373.5,389.0,372.5" stroke="black" stroke-width="2" fill="none" />
<polyline points="403.0,354.0,395.5,354.0,387.5,354.5,379.5,355.0,371.5,356.0,364.0,355.5,356.5,356.0,348.5,356.0,340.5,357.0,332.5,357.0" stroke="black" stroke-width="2" fill="none" />
<polyline points="331.5,359.5,339.5,352.0,347.5,344.5,356.0,337.0,364.0,329.0,372.0,321.5,380.0,314.0,388.0,306.5,395.5,299.5,403.5,292.0" stroke="black" stroke-width="2" fill="none" />
<polyline points="394.5,290.5,387.0,298.0,379.0,305.5,371.0,313.5,363.0,321.5,355.0,329.5,347.0,336.5,339.0,344.0,330.5,351.0" stroke="black" stroke-width="2" fill="none" />
<polyline points="330.5,351.5,338.5,350.5,346.5,350.0,354.5,349.0,362.5,348.0,370.5,347.5,379.0,347.0,387.0,346.5,394.5,346.5,402.5,346.0" stroke="black" stroke-width="2" fill="none" />
<polyline points="394.5,283.5,386.5,290.5,378.5,298.0,371.0,305.5,363.5,313.0,355.5,321.0,347.5,328.5,339.5,335.5,331.0,343.0" stroke="black" stroke-width="2" fill="none" />
<polyline points="332.5,343.5,341.0,342.5,349.0,342.0,356.5,341.0,364.5,340.0,371.5,338.5,379.0,338.0,386.0,337.5,394.0,336.0,401.5,334.5" stroke="black" stroke-width="2" fill="none" />
<polyline points="395.0,273.5,387.0,273.5,379.0,274.5" stroke="black" stroke-width="2" fill="none" />
<polyline points="379.5,268.0,371.5,275.5,363.5,283.5,355.5,290.5,348.0,298.0,340.0,305.5,331.5,313.0,322.5,320.0,314.0,327.5" stroke="black" stroke-width="2" fill="none" />
<polyline points="306.0,326.5,314.0,319.5,322.0,312.0,330.5,305.0,338.5,297.0,346.5,289.5,354.5,281.5,363.0,274.5,371.5,267.5" stroke="black" stroke-width="2" fill="none" />
<polyline points="364.0,266.5,372.0,259.0" stroke="black" stroke-width="2" fill="none" />
<polyline points="378.0,260.5,370.0,260.5,362.5,261.0" stroke="black" stroke-width="2" fill="none" />
<polyline points="360.5,271.0,369.0,270.5,377.0,269.5,385.5,269.0,393.5,268.5,402.0,268.0" stroke="black" stroke-width="2" fill="none" />
<polyline points="371.5,274.5,363.5,275.0" stroke="black" stroke-width="2" fill="none" />
<polyline points="357.5,274.0,349.5,282.0,341.0,290.0,332.0,298.0,323.5,305.5,315.5,313.0,307.0,321.5,298.5,329.5" stroke="black" stroke-width="2" fill="none" />
<polyline points="292.0,328.0,300.0,320.0,307.5,312.5,315.0,305.5,322.5,298.0,330.5,290.5,338.0,283.0,346.0,276.0" stroke="black" stroke-width="2" fill="none" />
<polyline points="339.5,274.5,331.0,282.0,323.5,290.0,315.5,297.5,307.5,305.0,299.5,312.5,292.0,320.5,284.5,329.0" stroke="black" stroke-width="2" fill="none" />
<polyline points="274.5,327.5,283.0,320.0,291.5,312.5,299.5,305.5,307.5,298.0,316.0,290.5,323.5,283.5,331.5,275.5" stroke="black" stroke-width="2" fill="none" />
<polyline points="322.0,275.5,314.0,283.0,306.0,290.5,298.0,298.5,290.5,306.0,283.0,313.5,275.5,320.5,268.0,327.5" stroke="black" stroke-width="2" fill="none" />
<polyline points="259.5,327.5,267.5,320.5,275.5,313.5,283.0,306.0,290.5,298.5,298.0,291.5,306.5,284.0,314.5,276.0" stroke="black" stroke-width="2" fill="none" />
<polyline points="307.0,273.5,299.0,281.0,290.5,289.0,283.0,297.0,275.0,305.0,267.0,313.0,259.5,321.5,252.0,329.5" stroke="black" stroke-width="2" fill="none" />
<polyline points="243.5,327.0,252.0,319.0,259.5,311.5,268.0,304.5,275.5,297.5,283.5,290.5,291.0,283.5,299.0,276.5" stroke="black" stroke-width="2" fill="none" />
<polyline points="290.5,275.5,282.5,283.0,275.0,290.5,267.0,298.0,258.5,305.0,250.5,312.5,243.0,320.0,235.5,327.5" stroke="black" stroke-width="2" fill="none" />
<polyline points="226.5,329.5,234.5,322.0,243.0,314.0,251.0,306.5,259.0,299.0,267.5,291.5,276.0,284.0,284.5,276.5" stroke="black" stroke-width="2" fill="none" />
<polyline points="275.5,274.0,268.0,282.0,260.0,290.0,252.5,298.0,244.5,306.0,236.5,313.5,229.0,321.5,221.0,329.0" stroke="black" stroke-width="2" fill="none" />
<polyline points="210.0,327.5,219.0,319.5,227.0,312.5,235.0,305.5,243.5,298.0,252.0,290.5,260.5,283.5,268.5,276.5,276.5,269.0,285.0,261.5" stroke="black" stroke-width="2" fill="none" />
<polyline points="283.0,263.5,275.0,264.0" stroke="black" stroke-width="2" fill="none" />
<polyline points="273.5,258.5,282.0,258.5" stroke="black" stroke-width="2" fill="none" />
<polyline points="289.5,252.0,297.5,251.5,305.5,251.0" stroke="black" stroke-width="2" fill="none" />
<polyline points="306.5,249.5,299.0,257.0" stroke="black" stroke-width="2" fill="none" />
<polyline points="299.5,255.5,308.0,255.5" stroke="black" stroke-width="2" fill="none" />
<polyline points="313.5,263.5,322.0,262.5,330.5,261.5,339.0,261.0,347.5,260.5" stroke="black" stroke-width="2" fill="none" />
<polyline points="308.0,226.5,300.5,233.5" stroke="black" stroke-width="2" fill="none" />
<polyline points="300.0,230.0,308.0,230.0" stroke="black" stroke-width="2" fill="none" />
<polyline points="306.5,228.0,299.0,229.0" stroke="black" stroke-width="2" fill="none" />
<polyline points="306.5,207.5,315.0,207.5" stroke="black" stroke-width="2" fill="none" />
<polyline points="306.5,190.0,314.5,189.5,323.0,189.0,331.5,189.0" stroke="black" stroke-width="2" fill="none" />
<polyline points="331.0,165.0,339.0,164.5" stroke="black" stroke-width="2" fill="none" />
<polyline points="339.5,149.0,332.0,149.0" stroke="black" stroke-width="2" fill="none" />
<polyline points="314.0,140.5,306.0,148.0" stroke="black" stroke-width="2" fill="none" />
<polyline points="308.0,145.0,316.0,144.5" stroke="black" stroke-width="2" fill="none" />
<polyline points="308.5,142.5,316.0,142.0,323.5,142.0,331.0,142.0" stroke="black" stroke-width="2" fill="none" />
<polyline points="325.0,129.0,332.5,121.0" stroke="black" stroke-width="2" fill="none" />
<polyline points="331.5,119.0,339.5,118.0" stroke="black" stroke-width="2" fill="none" />
<polyline points="322.0,124.0,314.5,131.5" stroke="black" stroke-width="2" fill="none" />
<polyline points="314.5,131.0,322.0,130.5" stroke="black" stroke-width="2" fill="none" />
<polyline points="315.5,125.0,307.0,132.0" stroke="black" stroke-width="2" fill="none" />
<polyline points="300.0,131.0,308.0,123.0" stroke="black" stroke-width="2" fill="none" />
<polyline points="292.0,125.0,299.5,124.5,307.5,124.0,315.0,123.0,322.5,122.5,330.0,122.0" stroke="black" stroke-width="2" fill="none" />
<polyline points="316.0,158.0,307.5,158.5" stroke="black" stroke-width="2" fill="none" />
<polyline points="301.0,154.0,292.5,161.5" stroke="black" stroke-width="2" fill="none" />
<polyline points="292.5,163.0,300.0,162.0" stroke="black" stroke-width="2" fill="none" />
<polyline points="299.5,164.5,291.0,171.5" stroke="black" stroke-width="2" fill="none" />
<polyline points="291.0,174.5,299.0,174.0" stroke="black" stroke-width="2" fill="none" />
<polyline points="297.5,174.0,290.0,181.5" stroke="black" stroke-width="2" fill="none" />
<polyline points="292.0,177.0,300.0,176.5" stroke="black" stroke-width="2" fill="none" />
<polyline points="300.5,166.5,292.5,167.0" stroke="black" stroke-width="2" fill="none" />
<polyline points="290.5,158.5,299.0,157.5" stroke="black" stroke-width="2" fill="none" />
<polyline points="283.5,156.0,275.5,164.0" stroke="black" stroke-width="2" fill="none" />
<polyline points="267.5,156.0,275.5,155.5,284.0,155.0" stroke="black" stroke-width="2" fill="none" />
<polyline points="258.0,170.5,250.0,178.0" stroke="black" stroke-width="2" fill="none" />
<polyline points="251.5,174.5,259.5,174.0,267.5,172.5" stroke="black" stroke-width="2" fill="none" />
<polyline points="259.0,180.0,251.0,188.0,243.5,195.5,235.5,203.0" stroke="black" stroke-width="2" fill="none" />
<polyline points="236.0,203.5,244.0,203.0,251.5,202.5,259.5,202.0,268.0,202.0" stroke="black" stroke-width="2" fill="none" />
<polyline points="268.0,196.0,260.0,203.5,252.0,210.5" stroke="black" stroke-width="2" fill="none" />
<polyline points="259.0,210.0,268.0,203.0,276.0,195.5" stroke="black" stroke-width="2" fill="none" />
<polyline points="269.0,187.5,260.5,194.5,252.5,202.0,244.0,210.0" stroke="black" stroke-width="2" fill="none" />
<polyline points="242.0,208.0,250.0,207.5,258.5,207.5,267.5,207.0" stroke="black" stroke-width="2" fill="none" />
<polyline points="268.5,220.0,260.5,227.0" stroke="black" stroke-width="2" fill="none" />
<polyline points="260.5,221.5,252.5,229.0" stroke="black" stroke-width="2" fill="none" />
<polyline points="252.5,237.0,260.0,236.0,267.5,235.5" stroke="black" stroke-width="2" fill="none" />
<polyline points="262.0,236.5,253.5,244.0,245.0,251.0,236.5,259.0,228.0,266.5" stroke="black" stroke-width="2" fill="none" />
<polyline points="226.5,265.5,234.5,265.0,242.0,265.5,250.0,265.0,258.0,265.0,265.5,264.5" stroke="black" stroke-width="2" fill="none" />
<polyline points="267.5,265.5,259.0,273.0,251.5,281.0,243.5,288.5,235.5,296.0,227.0,303.0,219.5,310.5,211.5,318.0,203.5,325.5" stroke="black" stroke-width="2" fill="none" />
<polyline points="196.5,325.5,205.0,317.5,213.0,310.0,221.0,303.0,228.5,295.0,236.5,287.5,244.0,280.5,251.5,273.0,260.0,266.0,267.5,258.5" stroke="black" stroke-width="2" fill="none" />
<polyline points="261.5,253.5,253.5,261.5,245.5,268.5" stroke="black" stroke-width="2" fill="none" />
<polyline points="244.5,270.5,252.5,270.5,260.5,270.5,268.0,270.5,275.5,270.5" stroke="black" stroke-width="2" fill="none" />
<polyline points="276.5,248.5,268.5,249.0" stroke="black" stroke-width="2" fill="none" />
<polyline points="260.0,244.5,252.0,252.0,244.0,259.5,236.0,267.0" stroke="black" stroke-width="2" fill="none" />
<polyline points="243.5,270.0,252.0,270.0,260.0,269.5,268.0,268.5,276.0,267.5" stroke="black" stroke-width="2" fill="none" />
<polyline points="277.5,242.0,269.0,249.5,260.5,257.5,252.5,265.5,244.5,273.0,236.0,281.5,227.5,289.0,219.5,296.5,211.0,304.5,203.0,312.0,195.0,319.0,186.5,327.0,178.5,334.5,171.5,342.5,164.0,350.0,156.5,357.5,149.0,365.5,141.5,373.0,133.5,380.0,125.0,387.0,116.5,394.0" stroke="black" stroke-width="2" fill="none" />
<polyline points="114.5,387.0,122.5,380.0,130.5,372.5,139.0,365.0,148.0,358.0,156.0,350.5,164.5,343.5,172.5,336.0,180.0,328.5,187.5,321.0,195.0,313.5,203.0,306.5,210.5,299.0,218.5,291.0,226.5,283.5,234.0,276.0" stroke="black" stroke-width="2" fill="none" />
<polyline points="227.5,275.0,220.0,282.5,212.0,290.0,204.0,297.0,196.0,304.0,188.5,311.0,180.0,318.5,171.0,326.0,162.5,333.5,154.5,341.0,146.0,348.5,138.5,356.5,130.5,364.5,123.0,372.5,115.0,380.5" stroke="black" stroke-width="2" fill="none" />
<polyline points="116.5,374.0,125.0,366.0,133.5,359.0,142.0,351.5,149.5,344.0,156.5,336.5,164.0,328.5,171.5,321.0,179.0,313.0,187.0,305.5,195.0,297.5,203.0,289.5,211.0,281.5,219.0,273.5" stroke="black" stroke-width="2" fill="none" />
<polyline points="211.0,274.5,203.0,282.0,195.0,289.5,187.0,296.5,179.0,304.5,171.0,312.0,163.0,319.5,155.0,327.0,147.0,334.5,139.0,342.0,130.5,350.0,123.0,356.5,115.0,363.5,107.5,371.5" stroke="black" stroke-width="2" fill="none" />
<polyline points="105.5,373.0,113.5,372.5,122.0,371.5,130.5,370.5,139.5,370.0,147.5,369.5,156.0,369.0,164.0,368.5,172.0,368.5,180.5,368.5,188.5,368.0" stroke="black" stroke-width="2" fill="none" />
<polyline points="185.5,371.5,178.0,379.0,171.0,386.5,163.5,394.0,156.0,401.5,147.5,409.0,140.5,416.5,133.0,424.0" stroke="black" stroke-width="2" fill="none" />
<polyline points="131.0,425.5,139.5,425.0,147.5,424.0,155.5,423.5,163.5,423.0,172.0,423.0,180.0,422.5,188.0,422.5" stroke="black" stroke-width="2" fill="none" />
<polyline points="186.5,419.0,178.5,426.5,171.0,434.0,163.5,441.5,156.0,448.5,148.0,456.0,140.0,463.5,131.5,472.0" stroke="black" stroke-width="2" fill="none" />
<polyline points="130.5,475.0,138.5,474.5,147.0,473.5,156.0,473.0,164.5,471.5,172.5,470.5,180.5,469.5,188.5,469.0,196.5,468.0,205.0,467.0,213.0,466.5,220.5,466.5,228.0,466.0,236.0,465.5,244.0,465.0,251.5,464.5,259.0,464.5,267.0,465.0,274.5,464.5,282.0,463.5,290.0,463.5,298.0,463.0,307.0,462.5,315.0,462.0,323.5,461.5,331.5,461.5" stroke="black" stroke-width="2" fill="none" />
<polyline points="315.0,499.5,306.5,500.0" stroke="black" stroke-width="2" fill="none" />
<polyline points="291.0,488.0,282.5,489.0" stroke="black" stroke-width="2" fill="none" />
<polyline points="234.0,470.0,226.5,477.5,218.5,484.5,211.0,491.5,203.5,498.5,195.5,505.5,188.0,512.5,180.0,520.0,172.5,526.5,164.5,533.5,157.5,541.0,149.0,548.5,140.5,556.5,132.5,564.5" stroke="black" stroke-width="2" fill="none" />
<polyline points="132.5,568.0,140.5,567.5,148.0,567.0,156.0,567.0,164.0,566.0,172.5,566.0" stroke="black" stroke-width="2" fill="none" />
<polyline points="180.0,542.0,172.0,543.0,163.5,543.5,155.5,544.5,148.0,545.5,140.0,546.5" stroke="black" stroke-width="2" fill="none" />
<polyline points="133.5,552.5,141.5,544.5,149.5,537.0,157.5,529.5,165.5,521.5,173.5,513.0,182.0,505.0,189.5,497.0,197.5,489.5,205.0,481.5,213.0,474.0,220.5,467.0" stroke="black" stroke-width="2" fill="none" />
<polyline points="227.5,465.5,219.0,473.0,211.0,480.5,202.5,488.0,194.5,496.0,186.5,503.5,179.0,511.5,172.0,519.5,164.5,527.5,156.0,535.5,148.0,543.0,140.0,550.5,132.0,557.5" stroke="black" stroke-width="2" fill="none" />
<polyline points="131.5,561.0,139.5,561.0,148.0,560.5" stroke="black" stroke-width="2" fill="none" />
<polyline points="162.0,550.5,154.5,551.0,146.5,551.5,139.0,552.0,131.0,553.0" stroke="black" stroke-width="2" fill="none" />
<polyline points="123.5,554.0,116.0,561.5" stroke="black" stroke-width="2" fill="none" />
<polyline points="116.5,558.0,124.5,557.5,132.5,557.0,140.5,556.5,148.5,555.5,156.5,555.0,164.0,554.0,171.5,553.5,179.5,553.0,188.0,552.0,196.0,551.5,204.0,551.5,212.0,551.0,219.5,551.0,227.5,551.0,235.0,550.0,242.5,549.5,250.5,548.5,259.0,548.0,266.5,548.0,274.0,547.5,282.5,547.0,290.5,546.5,298.5,546.0,306.5,546.0,314.5,545.5,322.0,545.0,330.0,544.5,338.0,543.5,346.0,542.0,354.0,541.5,362.0,541.5,370.0,541.5,378.0,541.0,386.5,540.5,394.0,540.0,402.0,539.5" stroke="black" stroke-width="2" fill="none" />
<polyline points="282.5,402.5,290.5,395.5" stroke="black" stroke-width="2" fill="none" />
<polyline points="291.5,386.5,283.5,394.0,275.5,402.0" stroke="black" stroke-width="2" fill="none" />
<polyline points="273.0,401.5,281.5,401.0,290.0,400.5" stroke="black" stroke-width="2" fill="none" />
<polyline points="282.5,387.5,274.5,395.0" stroke="black" stroke-width="2" fill="none" />
<polyline points="274.5,398.0,282.0,397.5,289.5,397.0" stroke="black" stroke-width="2" fill="none" />
<polyline points="274.0,386.0,266.0,393.5" stroke="black" stroke-width="2" fill="none" />
<polyline points="268.5,393.5,276.0,393.0,284.0,392.5,292.0,392.5" stroke="black" stroke-width="2" fill="none" />
<polyline points="292.0,389.5,284.0,389.5,276.0,389.5,268.0,389.5" stroke="black" stroke-width="2" fill="none" />
<polyline points="258.0,393.5,250.5,401.5" stroke="black" stroke-width="2" fill="none" />
<polyline points="243.5,401.0,251.5,400.5,259.5,399.5" stroke="black" stroke-width="2" fill="none" />
<polyline points="250.5,393.0,242.5,400.5" stroke="black" stroke-width="2" fill="none" />
<polyline points="242.0,397.0,250.0,396.5,257.5,395.5" stroke="black" stroke-width="2" fill="none" />
<polyline points="252.0,386.5,244.5,394.5" stroke="black" stroke-width="2" fill="none" />
<polyline points="241.5,392.0,249.5,391.5" stroke="black" stroke-width="2" fill="none" />
<polyline points="249.5,386.5,241.0,387.5" stroke="black" stroke-width="2" fill="none" />
<polyline points="226.5,387.5,219.0,395.0,211.0,402.5" stroke="black" stroke-width="2" fill="none" />
<polyline points="214.5,401.0,222.5,400.0,230.0,399.5" stroke="black" stroke-width="2" fill="none" />
<polyline points="227.0,396.0,219.0,403.5" stroke="black" stroke-width="2" fill="none" />
<polyline points="212.0,397.0,219.5,396.0,227.5,395.0" stroke="black" stroke-width="2" fill="none" />
<polyline points="220.5,385.5,212.5,393.0" stroke="black" stroke-width="2" fill="none" />
<polyline points="210.5,393.0,218.0,392.5,226.5,392.0" stroke="black" stroke-width="2" fill="none" />
<polyline points="227.0,388.0,219.0,388.5,211.0,389.5" stroke="black" stroke-width="2" fill="none" />
<polyline points="188.5,386.0,180.0,393.0,172.0,401.0,164.0,409.0,156.0,417.5,148.0,425.5,139.5,433.5,131.5,440.5" stroke="black" stroke-width="2" fill="none" />
<polyline points="131.0,441.5,139.0,441.0,147.0,440.0,155.0,440.0,163.5,439.5,172.0,439.5,180.0,439.0,187.5,438.5" stroke="black" stroke-width="2" fill="none" />
<polyline points="188.0,436.0,179.5,443.5,170.5,450.5,162.5,458.0,154.5,465.5,147.0,473.0,139.0,481.0,131.0,488.0" stroke="black" stroke-width="2" fill="none" />
<polyline points="131.5,489.5,139.5,489.0,147.0,489.0,155.0,488.5,162.5,488.0,170.0,487.5,178.5,487.0,187.5,486.5,195.5,485.5,203.5,485.0,211.5,484.5" stroke="black" stroke-width="2" fill="none" />
<polyline points="212.0,468.0,203.5,475.5,196.0,483.0,187.5,490.5,179.0,497.5,171.0,505.0,163.0,512.5,154.5,520.0,146.5,528.0,138.5,536.0,131.0,543.0" stroke="black" stroke-width="2" fill="none" />
<polyline points="131.0,536.5,139.0,536.5,147.5,536.5" stroke="black" stroke-width="2" fill="none" />
<polyline points="141.0,529.5,149.0,529.0,156.0,528.0,163.5,528.0,171.0,527.5" stroke="black" stroke-width="2" fill="none" />
<polyline points="178.0,520.0,186.5,519.5,194.5,519.0" stroke="black" stroke-width="2" fill="none" />
<polyline points="212.0,505.0,220.0,504.0" stroke="black" stroke-width="2" fill="none" />
<polyline points="210.0,481.0,202.0,481.5,194.5,482.5" stroke="black" stroke-width="2" fill="none" />
<polyline points="194.5,466.0,187.0,474.0,179.5,481.5,171.5,489.0,163.5,497.0,156.0,505.0,148.0,513.0,140.5,521.0,132.5,528.5" stroke="black" stroke-width="2" fill="none" />
<polyline points="131.5,523.0,140.0,522.5,148.0,521.0,156.5,520.5,164.5,519.5,172.5,519.0" stroke="black" stroke-width="2" fill="none" />
<polyline points="132.0,520.5,140.5,512.5,149.0,504.5,157.5,496.5,165.5,489.0,174.0,481.5,181.5,473.5,189.5,465.5" stroke="black" stroke-width="2" fill="none" />
<polyline points="188.5,458.0,181.0,466.0,173.0,474.0,165.0,482.0,156.0,490.0,147.5,498.0,139.5,506.0,131.0,513.5" stroke="black" stroke-width="2" fill="none" />
<polyline points="130.5,516.0,138.5,516.0,147.0,515.5,155.0,515.0,163.5,514.0,171.5,514.0" stroke="black" stroke-width="2" fill="none" />
<polyline points="187.0,503.0,179.5,503.5,172.0,504.0,164.0,504.5,156.0,505.0,147.5,505.5,139.5,506.0,131.0,506.0" stroke="black" stroke-width="2" fill="none" />
<polyline points="130.5,505.0,138.5,497.0,146.5,489.0,154.5,481.5,162.5,474.0,170.5,466.5,178.5,459.0,186.5,451.0" stroke="black" stroke-width="2" fill="none" />
<polyline points="188.0,428.5,180.0,436.0,172.0,443.0,164.0,450.0,156.0,457.5,148.0,464.5,140.0,472.0,132.0,480.5" stroke="black" stroke-width="2" fill="none" />
<polyline points="131.0,480.0,138.5,480.0,146.5,479.0,155.0,478.5,163.5,478.5,171.5,478.0,180.0,477.5,188.5,476.5" stroke="black" stroke-width="2" fill="none" />
<polyline points="204.5,466.0,196.5,474.0,188.0,482.0,179.5,490.0,171.0,497.5,163.0,504.5,154.5,512.5,147.0,520.5,139.0,527.5,131.5,534.5" stroke="black" stroke-width="2" fill="none" />
<polyline points="125.0,537.0,117.0,545.0" stroke="black" stroke-width="2" fill="none" />
<polyline points="116.0,542.0,124.0,541.5,132.0,541.0,139.5,540.5,147.5,540.5,155.5,539.5,163.5,539.0,171.5,538.5,179.0,538.0,187.0,537.0,195.0,536.5,203.0,536.0,211.0,535.0,219.0,535.0,227.5,534.5,236.0,534.5,244.0,534.0,251.5,533.5,259.0,533.0,266.5,533.0,274.5,532.5,282.5,532.0,291.0,531.0,299.0,530.5,307.0,529.5,315.0,529.0,322.5,528.5,331.0,528.0,339.0,527.0,346.5,526.0,354.5,525.0,362.5,525.0,371.0,524.5,379.0,524.0,386.5,523.5,394.0,522.5" stroke="black" stroke-width="2" fill="none" />
<polyline points="339.0,354.0,331.0,354.5" stroke="black" stroke-width="2" fill="none" />
<polyline points="331.5,348.0,339.0,347.5,347.0,346.5,355.0,346.0,362.5,345.0,370.0,343.5,378.5,343.5,386.5,343.0,394.5,342.0" stroke="black" stroke-width="2" fill="none" />
<polyline points="402.0,328.0,393.5,328.5,385.5,329.5,377.0,330.5,369.5,330.5,362.0,331.0,354.5,331.0,346.5,331.5,339.0,332.5,330.5,333.0" stroke="black" stroke-width="2" fill="none" />
<polyline points="285.0,361.5,277.0,369.0" stroke="black" stroke-width="2" fill="none" />
<polyline points="274.0,370.0,281.5,370.0" stroke="black" stroke-width="2" fill="none" />
<polyline points="282.5,366.0,274.5,366.0" stroke="black" stroke-width="2" fill="none" />
<polyline points="261.0,356.5,253.0,364.0,245.0,371.0" stroke="black" stroke-width="2" fill="none" />
<polyline points="243.0,365.5,235.0,373.0" stroke="black" stroke-width="2" fill="none" />
<polyline points="236.0,367.5,243.5,367.0,251.5,367.0" stroke="black" stroke-width="2" fill="none" />
<polyline points="251.5,360.0,259.5,359.5" stroke="black" stroke-width="2" fill="none" />
<polyline points="261.0,357.0,252.5,357.5" stroke="black" stroke-width="2" fill="none" />
<polyline points="243.0,356.0,235.0,363.5" stroke="black" stroke-width="2" fill="none" />
<polyline points="235.5,364.5,243.0,364.0,251.5,363.5" stroke="black" stroke-width="2" fill="none" />
<polyline points="242.0,360.5,234.0,361.5" stroke="black" stroke-width="2" fill="none" />
<polyline points="235.5,357.5,243.0,357.0" stroke="black" stroke-width="2" fill="none" />
<polyline points="187.0,356.0,178.5,363.5,170.5,370.5,162.0,377.5,153.5,385.0,146.0,392.5,138.5,399.5,131.5,406.5" stroke="black" stroke-width="2" fill="none" />
<polyline points="126.0,408.5,133.5,408.0,141.0,408.0,148.0,408.0,155.5,408.5,163.5,408.5,171.0,408.0,179.5,407.5,188.0,407.0" stroke="black" stroke-width="2" fill="none" />
<polyline points="187.5,410.0,179.5,417.5,172.0,425.5,164.5,433.5,156.0,441.5,148.0,449.0,140.0,456.0,131.5,462.5" stroke="black" stroke-width="2" fill="none" />
<polyline points="132.0,466.0,140.0,465.5,148.0,465.0,156.5,464.5,164.5,464.0,172.5,463.5,180.5,462.5,187.5,461.0" stroke="black" stroke-width="2" fill="none" />
<polyline points="132.5,455.5,140.5,448.0,148.5,441.0,156.5,433.5,164.0,425.5,172.0,417.5,180.0,410.5,188.0,403.0" stroke="black" stroke-width="2" fill="none" />
<polyline points="188.0,394.0,180.0,401.5,171.5,408.5,163.0,416.0,155.0,424.0,147.5,432.0,139.0,439.5,130.5,447.5" stroke="black" stroke-width="2" fill="none" />
<polyline points="131.5,447.0,139.5,446.5,147.0,446.0,154.5,446.5,162.5,447.0,170.5,447.0,178.5,446.5,186.5,446.0" stroke="black" stroke-width="2" fill="none" />
<polyline points="186.5,453.5,178.5,454.5,171.0,455.0,163.5,456.0,155.5,456.0,148.0,456.0,140.0,456.5,132.0,456.5" stroke="black" stroke-width="2" fill="none" />
<polyline points="125.0,458.0,117.0,465.5" stroke="black" stroke-width="2" fill="none" />
<polyline points="115.5,469.0,123.5,468.5,131.0,469.0,139.0,469.0,147.0,469.0,155.0,469.0,163.0,468.5,171.0,468.0,179.0,467.0,186.5,466.0,195.0,465.5,202.5,465.0,210.5,465.0,219.0,464.5,227.5,465.0,236.0,464.5,244.0,464.0,252.0,463.0,260.0,462.0,268.0,461.5,276.5,461.0,284.0,460.5,292.0,460.0,300.0,459.0,307.5,458.5,315.5,457.5,322.5,457.0,330.0,456.5,338.0,456.0,346.0,455.0,354.5,454.0,362.0,453.5,370.5,453.0,379.0,452.5,387.5,452.5,395.5,452.5" stroke="black" stroke-width="2" fill="none" />
<polyline points="187.5,378.0,179.5,386.0,171.0,393.5,163.0,401.0,154.5,408.5,146.0,416.0,138.5,424.0,131.0,431.5" stroke="black" stroke-width="2" fill="none" />
<polyline points="128.5,435.0,137.0,434.5,146.0,434.0,155.0,433.5,163.5,432.5,172.0,432.0,180.0,432.0,188.5,431.5" stroke="black" stroke-width="2" fill="none" />
<polyline points="189.0,414.5,180.5,414.5,172.5,414.5,164.0,415.0,156.0,415.0,147.5,415.0,139.5,416.0,131.0,416.5" stroke="black" stroke-width="2" fill="none" />
<polyline points="124.0,419.0,116.0,426.5" stroke="black" stroke-width="2" fill="none" />
<polyline points="116.0,428.0,123.5,427.5,131.0,427.0,138.5,426.5,146.0,426.5,154.5,426.5,162.5,426.0,170.5,425.5,179.0,425.5,187.5,425.5" stroke="black" stroke-width="2" fill="none" />
<polyline points="186.0,363.5,178.0,371.0,170.5,378.5,163.0,386.0,155.0,393.5,148.0,401.0,140.5,408.0,132.5,415.0,124.5,422.5,116.5,430.0" stroke="black" stroke-width="2" fill="none" />
<polyline points="115.5,425.0,123.0,424.5" stroke="black" stroke-width="2" fill="none" />
<polyline points="116.0,422.5,124.0,422.0,132.0,421.0,140.5,420.0,148.5,420.0,156.5,419.5,165.0,419.0,173.0,419.0,180.5,418.5,188.5,417.5" stroke="black" stroke-width="2" fill="none" />
<polyline points="187.5,381.5,179.5,382.0,171.5,383.0,163.0,383.0,155.0,384.0,146.5,384.5,138.0,385.0,130.0,385.0" stroke="black" stroke-width="2" fill="none" />
<polyline points="123.5,378.5,131.5,377.5,140.0,376.5,148.0,375.5,155.5,375.0,163.5,375.0,171.5,374.0,178.5,374.0,186.5,374.5" stroke="black" stroke-width="2" fill="none" />
<polyline points="186.0,346.5,178.0,353.5,169.5,361.0,161.5,368.5,154.0,376.5,146.5,384.0,138.5,391.5,130.5,399.0,123.0,406.5,115.0,413.5" stroke="black" stroke-width="2" fill="none" />
<polyline points="114.5,413.5,123.0,412.5,131.0,412.0,139.0,411.5,147.0,411.0,155.0,410.5,162.5,410.5,170.5,410.0,178.5,410.0,186.5,410.0" stroke="black" stroke-width="2" fill="none" />
<polyline points="188.0,366.5,179.5,367.0,171.5,367.5,162.5,368.0,154.5,368.5,146.0,369.0,137.5,369.5,129.5,370.0" stroke="black" stroke-width="2" fill="none" />
<polyline points="130.0,362.0,138.0,361.5,146.0,361.5,154.5,361.5,163.0,361.0,171.0,360.5,179.5,360.0,187.5,359.0" stroke="black" stroke-width="2" fill="none" />
<polyline points="186.5,339.0,178.5,346.5,170.5,353.5,163.0,360.5,155.0,368.0,147.5,375.5,139.5,383.5,132.5,391.5,124.5,399.5,117.0,406.5" stroke="black" stroke-width="2" fill="none" />
<polyline points="124.5,401.0,132.5,400.5,140.5,400.0,148.5,399.5,156.5,399.0,165.0,398.5,172.5,398.0,181.0,397.5,189.0,397.0" stroke="black" stroke-width="2" fill="none" />
<polyline points="185.5,353.0,177.5,353.0,169.5,353.5,162.0,353.5,154.5,354.0,146.5,354.0,139.0,354.0,131.5,354.0" stroke="black" stroke-width="2" fill="none" />
<polyline points="132.0,347.5,140.0,346.5,147.5,345.5,155.5,344.5,163.5,344.0,171.0,343.5,179.5,343.0,187.5,343.0" stroke="black" stroke-width="2" fill="none" />
<polyline points="173.0,282.5,181.0,281.5,188.0,280.5,195.5,279.5,202.5,278.5,210.5,278.0,218.5,277.0,226.5,276.0,234.5,275.5,242.5,275.0,250.5,274.0,259.0,274.0,266.5,273.5,274.5,273.5,282.5,273.5,291.0,272.5,299.0,272.0,307.0,271.5,315.5,270.5,324.5,270.0,333.0,269.5,340.5,268.5,349.0,268.0,357.0,268.0,364.5,267.5,372.5,268.0,380.5,267.5,388.0,267.5" stroke="black" stroke-width="2" fill="none" />
<polyline points="305.5,196.0,297.5,196.5" stroke="black" stroke-width="2" fill="none" />
<polyline points="259.5,189.5,251.5,196.5,243.0,204.0" stroke="black" stroke-width="2" fill="none" />
<polyline points="244.5,201.5,252.0,200.5,260.5,201.0,268.5,201.0" stroke="black" stroke-width="2" fill="none" />
<polyline points="258.5,181.5,250.5,182.5" stroke="black" stroke-width="2" fill="none" />
<polyline points="243.5,188.5,252.0,188.5,260.0,188.0,268.5,188.0" stroke="black" stroke-width="2" fill="none" />
<polyline points="268.5,192.5,260.5,193.5,252.5,194.0,244.5,195.0" stroke="black" stroke-width="2" fill="none" />
<polyline points="234.5,196.5,242.0,195.5,250.5,195.5,258.0,195.0,266.0,195.0,274.5,195.0" stroke="black" stroke-width="2" fill="none" />
<polyline points="249.5,218.0,242.0,226.0" stroke="black" stroke-width="2" fill="none" />
<polyline points="243.0,225.5,251.0,225.5,259.5,225.0" stroke="black" stroke-width="2" fill="none" />
<polyline points="260.5,239.0,252.5,239.5" stroke="black" stroke-width="2" fill="none" />
<polyline points="243.0,244.5,235.0,252.0" stroke="black" stroke-width="2" fill="none" />
<polyline points="236.0,252.5,244.0,252.5,251.5,252.5,260.0,252.5,268.5,252.0" stroke="black" stroke-width="2" fill="none" />
<polyline points="267.5,257.0,259.5,258.5,252.0,260.0,244.5,260.0" stroke="black" stroke-width="2" fill="none" />
<polyline points="236.5,249.0,244.5,248.0,252.0,247.5,260.0,246.5" stroke="black" stroke-width="2" fill="none" />
<polyline points="268.0,218.0,260.5,218.5,253.0,219.0,245.0,219.0,237.0,219.0" stroke="black" stroke-width="2" fill="none" />
<polyline points="220.5,227.0,212.5,234.5" stroke="black" stroke-width="2" fill="none" />
<polyline points="211.5,234.5,219.5,234.0" stroke="black" stroke-width="2" fill="none" />
<polyline points="210.5,229.5,218.5,229.0,227.0,229.0,235.0,228.0,243.0,227.0" stroke="black" stroke-width="2" fill="none" />
<polyline points="220.0,252.0,212.0,252.0" stroke="black" stroke-width="2" fill="none" />
<polyline points="211.0,247.0,219.5,246.0,227.5,245.5,235.5,245.0,243.5,244.5,251.5,244.0,259.5,243.5,267.0,243.0,274.5,242.5" stroke="black" stroke-width="2" fill="none" />
<polyline points="267.5,259.5,259.5,259.5,251.0,260.0,243.0,260.5,234.0,261.0,226.0,261.5" stroke="black" stroke-width="2" fill="none" />
<polyline points="219.5,258.5,211.5,259.0" stroke="black" stroke-width="2" fill="none" />
<polyline points="195.5,260.0,187.0,268.0" stroke="black" stroke-width="2" fill="none" />
<polyline points="185.0,275.0,177.0,282.5,169.5,289.5,162.0,297.5,154.0,305.0,146.5,312.5,139.5,321.0,132.5,329.5,124.5,337.5,116.5,345.5" stroke="black" stroke-width="2" fill="none" />
<polyline points="114.5,352.5,123.0,345.0,131.5,337.5,140.0,330.0,148.0,322.0,156.5,314.0,164.0,306.5,172.5,299.0,180.5,291.0,188.0,283.5,195.5,276.0" stroke="black" stroke-width="2" fill="none" />
<polyline points="206.5,276.0,198.0,283.5,190.0,290.0,182.0,296.5,173.5,304.0,165.5,311.0,157.0,318.5,148.0,325.5,139.5,333.0,131.0,340.5,122.5,348.0,114.5,355.5" stroke="black" stroke-width="2" fill="none" />
<polyline points="109.5,357.0,118.0,356.5,126.5,356.0,134.5,355.5,143.0,355.5,151.0,355.0,158.5,354.5,166.0,354.5,173.5,354.5,181.0,354.0,189.0,353.5" stroke="black" stroke-width="2" fill="none" />
<polyline points="187.5,390.5,180.0,390.5,172.5,390.5,164.5,390.5,156.5,391.0,148.5,391.5,140.5,392.5,133.0,393.0,125.0,393.5" stroke="black" stroke-width="2" fill="none" />
<polyline points="108.0,396.5,116.0,396.5,124.0,396.5,131.5,396.5,139.0,396.0,147.0,396.0,155.0,395.0,163.5,394.5,171.5,393.5,179.5,392.5,187.5,391.5" stroke="black" stroke-width="2" fill="none" />
<polyline points="124.0,435.0,115.5,442.5" stroke="black" stroke-width="2" fill="none" />
<polyline points="117.0,446.0,125.0,445.0,132.5,445.0,140.0,444.5,147.5,444.0,156.0,443.5,164.0,443.5,172.0,442.5,180.0,441.5,188.5,441.0" stroke="black" stroke-width="2" fill="none" />
<polyline points="124.5,448.5,116.0,456.5" stroke="black" stroke-width="2" fill="none" />
<polyline points="113.5,455.5,121.5,455.0" stroke="black" stroke-width="2" fill="none" />
<polyline points="114.5,453.0,123.0,453.5,131.0,453.0,139.5,452.5,147.5,451.5,155.5,450.5,164.0,450.0,172.5,450.0,181.0,449.5,189.5,448.0" stroke="black" stroke-width="2" fill="none" />
<polyline points="123.0,442.0,114.5,450.0" stroke="black" stroke-width="2" fill="none" />
<polyline points="115.5,461.0,123.0,460.5,131.0,460.0,138.5,459.5,146.0,459.5,154.0,458.5,162.0,458.5,170.5,458.0,178.5,457.5,186.5,457.0" stroke="black" stroke-width="2" fill="none" />
<polyline points="122.0,466.0,114.5,474.0" stroke="black" stroke-width="2" fill="none" />
<polyline points="115.5,479.0,123.5,478.0,131.5,477.0,139.5,476.5,147.5,475.5,155.5,475.0,163.5,475.0,171.5,475.0,180.0,475.0,188.0,474.5,196.0,474.5,204.0,473.5,211.5,472.5,219.5,471.5,227.5,471.0,235.0,470.5,243.5,470.0,251.5,470.0,260.0,469.5,268.5,469.0,276.5,468.0,284.5,468.0,292.0,467.5,299.5,466.5,307.0,465.5,315.0,464.5,323.0,463.0,331.0,462.5,339.0,462.0,347.5,462.0,356.0,462.0,363.5,461.0,371.5,460.0,379.5,459.5,388.0,459.5" stroke="black" stroke-width="2" fill="none" />
<polyline points="397.0,280.0,388.5,280.5,380.0,281.0,372.0,281.5,363.5,282.5,355.5,283.5,347.0,284.0,339.5,285.0,332.0,285.0,324.5,286.0,316.5,286.0,308.0,285.5,300.0,285.5,292.5,285.5,284.5,286.0,276.5,285.5,269.0,286.0,261.0,286.0,252.5,286.5,245.0,287.5" stroke="black" stroke-width="2" fill="none" />
<polyline points="243.0,236.0,235.0,237.5,227.0,238.5,218.5,239.5,211.0,240.0" stroke="black" stroke-width="2" fill="none" />
<polyline points="179.0,259.5,171.5,267.0" stroke="black" stroke-width="2" fill="none" />
<polyline points="165.5,267.0,173.5,260.0" stroke="black" stroke-width="2" fill="none" />
<polyline points="179.5,265.5,172.0,265.5,164.0,265.5" stroke="black" stroke-width="2" fill="none" />
<polyline points="162.5,264.5,170.5,263.5,178.5,263.0,187.0,262.0,196.0,261.0,204.5,260.5" stroke="black" stroke-width="2" fill="none" />
<polyline points="179.5,273.5,172.0,281.5,164.5,289.0,157.0,296.0,149.0,303.5,141.0,311.0,133.0,318.5,124.5,326.5,116.0,334.5" stroke="black" stroke-width="2" fill="none" />
<polyline points="118.0,328.0,125.5,319.5,133.0,312.0,141.0,304.5,149.5,297.5,157.0,290.5,165.0,282.5,173.0,274.5" stroke="black" stroke-width="2" fill="none" />
<polyline points="165.5,275.5,157.5,283.0,149.0,290.5,141.5,298.0,133.5,305.0,125.5,312.0,117.5,319.5" stroke="black" stroke-width="2" fill="none" />
<polyline points="116.0,315.0,124.0,314.5,131.5,314.5,139.0,314.5,146.5,314.5,154.0,314.5,162.0,314.5,170.5,314.5,178.0,314.5,186.0,314.0,194.5,313.5,202.0,313.0,210.0,312.5,218.0,311.5,226.5,311.0,234.5,310.5,243.0,309.5,251.0,308.5,259.5,308.0,267.5,307.5,275.5,307.0,283.5,307.0,292.0,306.5,299.5,306.0,307.5,305.0,316.0,303.5,323.5,303.0,331.5,302.5,339.5,302.0,347.5,301.0,355.5,300.0,363.5,300.0,371.5,300.0,379.5,300.0,387.5,299.5,395.5,299.0,402.5,298.5" stroke="black" stroke-width="2" fill="none" />
<polyline points="259.5,159.0,251.5,159.0" stroke="black" stroke-width="2" fill="none" />
<polyline points="259.0,164.0,250.0,164.5,242.0,165.0" stroke="black" stroke-width="2" fill="none" />
<polyline points="234.5,157.0,226.5,164.0" stroke="black" stroke-width="2" fill="none" />
<polyline points="227.0,161.0,235.0,160.0" stroke="black" stroke-width="2" fill="none" />
<polyline points="243.5,149.5,251.0,149.0,258.5,148.0" stroke="black" stroke-width="2" fill="none" />
<polyline points="258.0,141.5,250.0,142.5,241.5,143.0" stroke="black" stroke-width="2" fill="none" />
<polyline points="243.5,123.5,251.5,116.0" stroke="black" stroke-width="2" fill="none" />
<polyline points="259.0,116.5,251.0,117.0,243.0,118.0" stroke="black" stroke-width="2" fill="none" />
<polyline points="227.5,140.5,219.5,141.0" stroke="black" stroke-width="2" fill="none" />
<polyline points="220.0,150.0,228.0,149.0" stroke="black" stroke-width="2" fill="none" />
<polyline points="219.5,156.5,227.0,156.0,235.0,155.5,243.5,155.0" stroke="black" stroke-width="2" fill="none" />
<polyline points="213.0,159.0,205.0,159.5" stroke="black" stroke-width="2" fill="none" />
<polyline points="206.5,188.0,198.5,195.0" stroke="black" stroke-width="2" fill="none" />
<polyline points="202.5,188.0,194.5,188.5,186.5,189.0,178.0,189.5" stroke="black" stroke-width="2" fill="none" />
<polyline points="180.0,180.5,172.5,181.0" stroke="black" stroke-width="2" fill="none" />
<polyline points="178.5,133.0,187.0,133.0,195.0,132.5,203.0,132.0" stroke="black" stroke-width="2" fill="none" />
<polyline points="203.5,127.5,211.5,127.0" stroke="black" stroke-width="2" fill="none" />
<polyline points="196.5,123.5,189.0,123.5" stroke="black" stroke-width="2" fill="none" />
<polyline points="115.0,77.0,107.0,77.5" stroke="black" stroke-width="2" fill="none" />
<polyline points="130.5,260.0,123.0,267.5" stroke="black" stroke-width="2" fill="none" />
<polyline points="121.5,266.0,129.5,265.5" stroke="black" stroke-width="2" fill="none" />
<polyline points="129.0,269.5,120.5,270.0" stroke="black" stroke-width="2" fill="none" />
<polyline points="116.5,276.0,108.5,284.0" stroke="black" stroke-width="2" fill="none" />
<polyline points="114.5,284.0,123.0,284.0,131.0,283.5,139.0,283.5,147.5,284.0,155.5,284.0,163.0,283.5,170.5,282.5,178.0,281.5,186.0,281.0,193.5,281.0,202.0,280.5,210.5,279.5,218.0,279.5,226.0,279.0,233.5,278.5,241.5,278.0,250.5,277.0,258.5,276.0,266.5,275.5,275.0,275.0,283.0,274.0,290.5,273.5,298.5,273.0,306.0,272.5,314.0,272.0,323.0,272.0,331.5,272.0,340.0,272.0,348.5,272.0,356.5,271.5,365.0,271.0,372.5,270.0,380.5,269.0,388.5,269.0,396.5,268.5,404.0,267.5" stroke="black" stroke-width="2" fill="none" />
<polyline points="155.0,276.5,147.5,284.0,140.0,291.0,132.5,298.0,125.0,305.0,117.0,312.5" stroke="black" stroke-width="2" fill="none" />
<polyline points="115.5,306.0,122.5,298.5,129.5,291.0,137.0,283.5,145.5,276.0" stroke="black" stroke-width="2" fill="none" />
<polyline points="139.0,275.0,130.5,283.0,122.0,290.5,114.0,298.5,106.0,306.5" stroke="black" stroke-width="2" fill="none" />
<polyline points="108.5,309.5,116.5,309.0,124.5,309.0,132.0,308.5,139.0,308.0,146.5,307.5,154.5,307.0,162.0,306.0,170.0,305.5,178.0,305.0,186.0,304.0,193.5,303.5,201.5,303.0,209.5,303.0,217.5,302.5,225.5,302.0,233.5,302.0,241.5,301.5,250.0,300.5,258.5,300.0,267.0,299.5,275.5,299.0,283.5,298.0,291.5,297.5,299.5,297.0,308.0,297.0,316.0,296.5,324.0,296.5,332.5,296.5,341.0,296.0,349.0,295.5,357.0,294.5,364.0,293.5,371.5,292.5,378.5,291.5,386.5,291.0,394.5,290.0,402.5,289.0" stroke="black" stroke-width="2" fill="none" />
<polyline points="155.0,261.0,147.0,262.0,139.0,262.5" stroke="black" stroke-width="2" fill="none" />
<polyline points="131.0,276.5,123.0,284.0,115.0,291.5" stroke="black" stroke-width="2" fill="none" />
<polyline points="121.5,290.0,130.0,289.5,138.5,288.5,146.0,288.5,154.0,288.0,161.5,287.5,169.5,287.0,178.5,286.0,186.5,285.0,194.5,284.5,203.0,284.0,211.0,283.0,218.5,282.5,226.5,282.0,234.0,281.5" stroke="black" stroke-width="2" fill="none" />
<polyline points="130.5,305.5,139.0,305.0,147.5,304.5,156.0,304.0,164.5,303.5,172.5,303.5,180.0,303.0,187.5,303.0,195.0,303.0,202.5,302.5,210.5,302.5,218.5,301.5,227.0,300.5,235.5,299.5,243.0,298.5,251.0,297.5,258.5,297.0,267.0,296.5,275.0,296.5,283.0,295.5,291.0,295.5,299.0,294.5,307.0,294.0,315.0,293.5,323.0,293.0,331.0,292.5,339.0,292.5,347.5,291.5,356.0,291.0,363.5,290.5,371.5,289.5,380.0,289.5,388.0,289.0,396.5,289.0,404.5,288.5" stroke="black" stroke-width="2" fill="none" />
<polyline points="404.5,296.5,396.5,297.5,388.5,298.5,380.5,299.0,372.5,300.0,364.5,300.0,356.5,300.5,348.5,300.5,340.0,300.5,331.5,301.5,323.5,301.5,315.0,301.5,306.5,302.0,298.0,302.5,290.5,303.0,282.0,304.0,274.0,305.0,266.0,305.5,258.5,306.0,251.5,306.5,243.5,307.5,236.0,308.0,228.0,309.0,220.0,309.5,212.5,310.0,204.0,310.5,196.0,311.0,188.0,312.0,180.0,313.0,172.0,313.5,163.5,314.0,155.0,313.5,146.5,314.0,138.5,314.0,131.0,314.5" stroke="black" stroke-width="2" fill="none" />
<polyline points="122.5,322.5,131.0,322.5,139.0,321.5,147.5,321.0,156.0,320.0,164.5,319.0,172.5,318.0,180.5,317.0,188.5,316.0,196.5,315.5,204.5,315.0,212.5,314.5,220.0,314.0,228.0,314.0,236.0,313.0,244.5,313.0,252.0,312.0,259.0,311.0,266.5,310.5,274.0,309.5,282.0,309.0,290.0,308.5,298.0,308.0,306.5,308.0,314.5,307.5,322.5,306.5,331.0,306.5,339.0,306.5,347.0,306.0,355.0,306.0,363.5,305.5" stroke="black" stroke-width="2" fill="none" />
<polyline points="188.5,333.0,180.5,334.0,172.5,334.5,164.5,335.5,156.5,336.0,149.0,337.0,141.0,337.5,133.0,338.0,125.0,338.5" stroke="black" stroke-width="2" fill="none" />
<polyline points="125.0,330.0,132.5,329.5,140.5,329.5,148.0,329.0,155.5,328.0,163.5,327.0,172.0,326.5,180.5,325.5,189.0,324.0,197.5,323.0,205.5,322.5,213.5,322.0,221.0,321.5,229.0,321.0,236.0,320.5,244.0,320.0,251.5,319.5,259.0,319.0,266.5,319.0,274.0,318.5,281.5,318.0,290.0,317.5,298.5,316.5,306.5,315.5,314.5,315.0,322.5,314.5,331.0,314.5,339.0,314.0,347.0,313.5,355.5,313.0,364.0,312.5" stroke="black" stroke-width="2" fill="none" />
<polyline points="403.5,279.0,395.0,279.5,386.5,280.0,378.0,281.0,370.0,281.5,362.0,282.5,354.0,283.0,346.5,283.0,338.5,283.0,330.5,283.5,323.5,284.0,315.5,284.5,307.5,285.0,299.5,285.0,291.5,285.0,283.5,285.0,275.5,286.0,267.5,287.0,259.5,287.5,251.5,288.0,244.0,288.5,235.5,290.0,227.5,291.0,220.0,291.5,211.5,292.0,203.5,292.0,195.5,292.5,187.5,293.0,179.0,293.5,171.0,294.5,162.5,295.5,154.5,296.0,146.0,296.5,138.0,297.5,130.0,298.0,122.5,298.5" stroke="black" stroke-width="2" fill="none" />
<polyline points="108.5,301.5,116.0,301.5,124.0,301.0,131.5,300.0,139.0,299.0,147.0,298.0,155.0,297.5,162.5,297.0,170.5,297.0,178.0,296.5,185.5,296.0,194.0,295.5,202.5,295.0,210.5,294.5,218.5,294.0,227.0,293.0,234.5,292.5,242.5,291.5,250.5,291.0,259.0,291.0,267.0,290.5,275.5,290.0,283.5,289.0,292.0,289.0,300.0,289.0,308.5,288.5,316.5,288.5,325.0,288.5,333.0,288.0,340.5,287.0,348.5,286.0,356.0,285.5,364.0,285.0,371.5,284.5,379.5,283.0,387.5,282.5,395.5,282.0,403.5,282.0" stroke="black" stroke-width="2" fill="none" />
<polyline points="123.5,277.5,115.5,284.5" stroke="black" stroke-width="2" fill="none" />
<polyline points="115.5,282.0,123.5,281.5,131.5,281.5,139.5,281.0,147.5,280.5,155.5,280.5,163.0,280.0" stroke="black" stroke-width="2" fill="none" />
<polyline points="131.0,262.0,122.5,262.5" stroke="black" stroke-width="2" fill="none" />
<polyline points="107.0,294.0,115.0,293.5,123.0,292.5,130.5,291.5,138.5,290.5,146.0,289.5,154.5,289.0,162.0,288.5,170.5,288.0,179.0,288.5,187.0,288.0,195.0,287.5,202.5,286.0,210.0,285.0,218.0,285.0,226.0,285.0,234.5,284.0,242.5,283.5,250.5,283.5,258.0,283.5,266.0,283.0,274.0,283.0,282.5,282.5,291.0,282.0,299.0,281.0,307.5,281.0,315.5,280.0,323.5,279.5,331.0,279.0,338.5,278.5,346.5,278.0,355.0,277.5,363.5,277.5,372.0,277.0,380.0,277.0,388.0,277.0,396.5,276.0,404.0,275.0" stroke="black" stroke-width="2" fill="none" />
<polyline points="403.5,556.0,395.5,556.5,387.5,556.5,379.0,557.0,371.0,557.5,362.0,558.0,354.0,558.5,346.0,558.5,338.5,559.5,331.0,560.0,323.0,559.5,315.5,559.5,308.0,560.0,300.0,560.5,292.0,561.0,284.5,561.5,277.0,561.5,269.0,562.0,260.5,563.0,252.5,564.0,244.5,564.5,236.5,565.5,228.5,566.5,220.0,568.0,211.0,568.5,202.5,569.5,194.5,570.0,186.5,570.5,179.0,570.5,172.0,570.5,165.0,570.5,157.5,570.5,149.5,571.0,141.0,572.0,133.0,572.5,125.0,572.5,117.0,573.0" stroke="black" stroke-width="2" fill="none" />
<polyline points="115.5,578.0,123.5,570.0" stroke="black" stroke-width="2" fill="none" />
<polyline points="117.0,566.5,125.0,566.5,132.5,565.5,140.0,565.0,148.5,564.0,156.0,563.5,164.0,563.0,171.5,562.5,179.5,562.0,187.5,561.5,196.0,561.0,204.0,560.5,212.0,560.0,220.5,559.5,228.5,559.0,236.5,558.5,244.5,557.5,251.5,556.0,259.0,555.5,266.5,555.0,274.0,554.0,282.5,553.5,290.5,553.0,298.5,553.0,306.5,552.5,314.5,552.5,322.5,551.5,330.5,551.0,338.5,550.5,347.0,550.0,355.0,550.0,363.0,549.0,371.0,548.5,379.0,548.5,387.0,549.0,394.5,549.0,403.5,549.0" stroke="black" stroke-width="2" fill="none" />
<polyline points="125.5,524.5,117.0,532.0" stroke="black" stroke-width="2" fill="none" />
<polyline points="115.0,534.0,123.0,533.5,131.0,533.5,138.5,533.0,146.0,532.0,154.0,532.0,161.5,531.0,169.5,531.0,177.5,531.0,184.5,530.5,192.5,530.0,201.0,529.5,210.0,529.0,219.0,528.5,227.5,527.5,236.0,527.0,244.0,527.0,252.5,526.5,260.5,526.0,268.5,525.5,277.0,525.0,285.0,524.5,292.5,523.5,300.5,523.0,307.5,522.5,315.0,521.5,323.0,520.0,331.0,518.5,338.5,517.0,346.0,516.5,354.0,515.5,362.0,515.5,369.5,515.5,377.5,515.0,385.5,514.0,393.5,514.0" stroke="black" stroke-width="2" fill="none" />
<polyline points="124.0,516.0,116.5,523.5" stroke="black" stroke-width="2" fill="none" />
<polyline points="114.0,525.0,121.5,524.5,129.5,524.0,137.5,524.0,145.5,523.5,153.5,523.0,161.5,523.0,169.5,522.5,178.0,521.5,186.5,521.0,195.0,520.5,203.5,520.0,211.5,519.0,219.5,518.5,227.5,518.0,236.0,518.0,244.0,517.5,252.0,517.5,260.5,517.5,269.0,517.0,277.0,516.5,285.0,515.5,292.0,514.5,299.5,513.5,306.5,512.5,314.5,512.0,322.5,511.0,330.5,510.0,338.5,509.5,346.5,509.0,354.5,508.0,363.0,508.0,370.5,507.5,378.5,507.5,386.5,507.5,395.0,506.5" stroke="black" stroke-width="2" fill="none" />
<polyline points="124.0,531.5,115.5,538.5" stroke="black" stroke-width="2" fill="none" />
<polyline points="115.0,549.0,123.0,548.5,131.0,548.5,139.0,548.0,147.5,547.5,155.5,547.5,163.5,546.0,171.5,544.5,179.5,543.0,187.5,542.5,195.5,542.0,203.5,541.5,211.0,541.0,218.5,541.5,226.5,542.0,234.5,542.0,242.5,541.5,250.5,541.0,258.5,540.5,266.5,540.0,274.5,539.0,283.0,539.0,291.0,538.5,299.0,538.0,307.0,537.0,315.0,536.5,323.0,536.0,331.0,536.0,339.0,535.5,347.0,534.5,355.0,534.0,363.0,533.5,370.0,532.5,377.5,532.5,385.5,532.5,393.5,532.0,401.5,531.0" stroke="black" stroke-width="2" fill="none" />
<polyline points="124.0,545.5,116.0,553.0" stroke="black" stroke-width="2" fill="none" />
<polyline points="124.0,561.5,116.0,569.5" stroke="black" stroke-width="2" fill="none" />
<polyline points="100.0,579.0,92.0,579.5" stroke="black" stroke-width="2" fill="none" />
<polyline points="82.5,579.5,75.0,580.0" stroke="black" stroke-width="2" fill="none" />
<polyline points="65.5,612.5,73.5,612.0,81.5,612.0,90.0,611.5,98.5,611.0,107.0,610.5,115.0,610.0,123.0,609.5" stroke="black" stroke-width="2" fill="none" />
<polyline points="123.0,619.0,131.5,619.0,139.5,619.0,147.5,619.0,156.0,618.5,163.5,618.5,171.0,618.5,178.5,618.5,186.0,618.0,194.0,618.0,202.0,617.5,210.0,617.0,218.5,616.0,227.0,615.0,235.0,614.0,244.0,613.5,252.0,612.5,260.0,611.0,268.0,610.0,276.0,609.5,283.5,609.0,291.5,608.5,299.5,607.5,307.0,607.0,315.0,607.0,323.0,606.5,331.0,606.5,338.5,606.5,346.0,606.5,354.0,606.5,362.0,606.0,370.0,605.5,379.0,605.0" stroke="black" stroke-width="2" fill="none" />
<polyline points="395.0,499.5,387.0,499.5,379.5,500.0,371.0,500.5,363.0,501.0,355.5,501.5,347.5,502.0,339.5,502.5,331.5,503.0,323.5,503.0,315.5,503.5,307.5,504.0,299.5,505.5,292.0,506.0,284.0,506.5,276.5,507.0,268.5,508.0,261.0,509.0,253.0,509.5,244.5,509.5,236.5,509.5,228.0,510.0,220.0,510.0,211.5,510.0,203.5,511.0,195.0,511.5,187.0,512.0,178.5,512.0,170.5,512.5,162.5,513.5,155.0,514.0,146.5,515.0,138.5,515.5,130.5,516.0,122.0,516.5,113.5,517.0" stroke="black" stroke-width="2" fill="none" />
<polyline points="115.0,514.0,122.5,506.5" stroke="black" stroke-width="2" fill="none" />
<polyline points="122.0,500.0,114.0,507.5" stroke="black" stroke-width="2" fill="none" />
<polyline points="115.0,509.0,123.0,508.5,130.5,507.0,138.0,506.0,146.0,506.0,154.0,506.0,162.5,505.0,170.5,504.5,178.5,504.5,186.0,504.5,194.0,504.0,202.0,504.0,210.5,503.5,219.0,503.0,227.0,502.0,235.5,502.0,243.5,501.0,251.5,500.5,259.0,500.0,266.5,499.5,274.5,499.0,283.0,498.5,291.5,498.5,300.0,498.0,308.0,498.0,316.0,498.0,324.5,497.0,332.0,496.0,340.0,495.5,348.0,495.0,356.0,495.0,364.0,494.0,371.5,493.5,379.0,493.0,387.5,492.5" stroke="black" stroke-width="2" fill="none" />
<polyline points="123.0,493.0,115.0,500.5" stroke="black" stroke-width="2" fill="none" />
<polyline points="115.0,500.0,122.5,499.5,130.0,499.0,138.0,498.5,145.5,498.0,153.0,498.0,161.5,498.0,169.5,497.5,177.5,497.5,186.0,497.5,193.5,497.0,201.5,496.5,210.0,496.0,218.5,495.5,226.5,495.0,235.5,494.5,243.5,494.0,252.0,493.5,260.0,493.0,268.0,492.0,276.0,491.0,284.0,491.0,291.5,490.5,299.5,490.5,308.0,490.0,316.0,489.5,324.0,489.0,332.0,488.0,340.0,487.5,348.0,486.5,355.5,486.0,363.5,485.5,371.5,485.5,379.5,485.5,387.5,485.0" stroke="black" stroke-width="2" fill="none" />
<polyline points="122.0,485.0,114.0,492.5" stroke="black" stroke-width="2" fill="none" />
<polyline points="116.5,492.5,124.5,491.5,132.0,491.0,139.0,491.0,146.5,490.5,154.5,490.5,162.5,490.0,170.5,489.5,178.5,489.5,186.0,489.5,194.0,489.0,202.0,488.5,210.0,488.5,218.5,488.5,227.0,488.0,235.0,487.5,243.5,487.0,251.5,486.0,260.0,485.0,268.0,484.0,276.0,483.5,284.0,483.5,291.5,483.5,299.0,482.5,307.5,482.0,315.5,481.0,324.0,480.5,332.0,480.0,340.0,479.5,348.0,478.5,356.0,478.0,364.0,477.0,372.0,477.0,380.0,476.5,388.0,476.5,396.0,476.5" stroke="black" stroke-width="2" fill="none" />
<polyline points="121.0,475.5,113.0,483.0" stroke="black" stroke-width="2" fill="none" />
<polyline points="116.5,484.5,124.5,484.0,132.5,484.0,140.5,483.5,148.5,483.5,156.0,483.0,164.5,483.0,172.5,483.0,180.0,482.5,187.5,482.0,195.5,481.0,203.0,481.0,210.5,481.0,218.5,481.0,226.0,480.5,233.5,480.5,241.5,480.0,249.5,480.0,258.0,479.0,266.5,478.5,274.5,478.5,282.5,477.5,290.5,477.0,299.0,476.0,308.0,475.0,316.5,474.5,324.5,473.0,333.0,471.5,341.5,470.5,350.0,470.0,358.5,470.0,366.5,469.0,374.0,468.5,381.5,468.0,389.0,467.0,396.5,466.0" stroke="black" stroke-width="2" fill="none" />
<polyline points="188.5,433.0,180.5,433.5,172.5,434.5,164.0,434.5,156.0,435.0,148.0,435.5,140.0,436.5,132.0,437.0,124.0,437.0,116.0,437.5" stroke="black" stroke-width="2" fill="none" />
<polyline points="106.5,406.0,114.0,405.0,122.0,404.5,130.0,404.0,138.0,403.5,146.0,402.5,153.5,402.5,162.0,402.0,170.0,402.0,178.0,401.5,186.5,401.5" stroke="black" stroke-width="2" fill="none" />
<polyline points="189.0,384.5,181.0,384.5,173.0,384.5,165.0,384.5,157.0,385.0,149.0,385.0,140.5,386.0,132.5,386.5,124.0,387.0,115.5,387.5,107.0,388.0" stroke="black" stroke-width="2" fill="none" />
<polyline points="108.0,381.0,116.0,380.5,124.0,380.0,132.5,379.5,140.5,378.5,149.0,378.0,157.0,377.5,165.0,376.5,173.0,376.0,180.0,375.5,188.0,375.0" stroke="black" stroke-width="2" fill="none" />
<polyline points="189.0,360.0,181.0,361.0,173.5,362.0,165.0,362.5,157.0,363.0,148.5,363.0,140.5,363.5,132.5,364.0,124.0,364.0,116.0,364.0,108.0,365.0" stroke="black" stroke-width="2" fill="none" />
<polyline points="109.5,348.5,118.0,348.5,126.0,348.5,134.0,348.5,142.0,348.0,149.5,347.0,157.5,346.5,165.5,346.5,173.0,346.0,181.0,345.5,188.5,345.0" stroke="black" stroke-width="2" fill="none" />
<polyline points="187.0,336.0,179.0,336.5,171.5,336.5,164.0,337.0,156.5,337.5,149.0,337.5,140.5,338.0,132.5,339.0,124.0,339.5,116.0,340.5,107.5,340.5" stroke="black" stroke-width="2" fill="none" />
<polyline points="108.5,334.0,116.5,333.0,124.0,332.0,132.0,331.5,140.0,331.0,148.0,331.0,155.5,330.5,163.5,330.0,172.0,330.0,180.0,329.0,188.0,329.0" stroke="black" stroke-width="2" fill="none" />
<polyline points="109.0,326.5,116.5,325.5,124.0,325.5,132.0,325.5,140.0,325.0,148.5,324.5,156.0,323.5,164.0,322.5,171.5,322.0,179.5,321.5,187.0,321.0,195.0,320.5,203.0,320.5,210.5,320.0,218.0,319.0,226.0,319.0,233.5,318.0,241.5,318.0,249.5,318.0,256.5,317.5,264.5,317.0,273.0,316.5,282.0,316.0,291.0,315.5,299.5,314.5,308.0,314.0,316.0,314.0,324.5,313.5,332.5,313.0,340.5,312.5,349.0,312.0,357.0,311.5,364.5,310.5,372.5,310.0,379.5,309.5,387.0,308.5,395.0,307.0,403.0,305.5" stroke="black" stroke-width="2" fill="none" />
<polyline points="41.5,372.0,33.5,372.0" stroke="black" stroke-width="2" fill="none" />
<polyline points="37.5,382.0,29.5,383.0" stroke="black" stroke-width="2" fill="none" />
<polyline points="19.5,390.5,11.5,391.0" stroke="black" stroke-width="2" fill="none" />
<polyline points="11.0,374.5,18.5,374.5" stroke="black" stroke-width="2" fill="none" />
<polyline points="13.0,421.5,5.0,422.0" stroke="black" stroke-width="2" fill="none" />
<polyline points="3.0,581.5,11.0,580.5,19.5,579.5,27.0,579.0,35.0,578.5,43.0,578.0,51.0,577.0,58.5,576.5,67.0,576.0" stroke="black" stroke-width="2" fill="none" />
<polyline points="58.5,614.0,50.5,614.5" stroke="black" stroke-width="2" fill="none" />
<polyline points="19.5,613.0,11.5,613.5" stroke="black" stroke-width="2" fill="none" />
<polyline points="6.0,606.0,13.5,605.0,21.5,604.5,28.5,603.5,36.0,603.0,43.5,602.5,51.0,602.5,59.0,602.0,66.5,601.5,74.5,601.0,83.0,600.5,91.0,600.0,99.0,599.5,107.5,599.0" stroke="black" stroke-width="2" fill="none" />
<polyline points="108.0,623.0,115.5,622.5" stroke="black" stroke-width="2" fill="none" />
<polyline points="107.5,590.0,99.5,590.0,92.0,590.0,84.0,590.5,76.0,591.0,67.5,592.5,60.0,593.5,52.0,594.0,44.5,594.0,36.5,595.0,29.0,595.0,21.0,595.5,13.0,595.5,5.5,596.0" stroke="black" stroke-width="2" fill="none" />
<polyline points="4.5,589.5,12.5,589.0,20.0,588.5,27.5,588.0,35.5,588.0,44.0,587.5,51.5,586.5,60.0,585.0,68.0,584.0,76.5,583.0,84.5,582.5,92.5,582.5,100.0,582.5,108.0,582.5" stroke="black" stroke-width="2" fill="none" />
</svg>