<svg xmlns="http://www.w3.org/2000/svg" version="1.1"><polyline points="3.5,4.0,11.5,4.0,19.5,3.5,27.5,3.5" stroke="black" stroke-width="2" fill="none" />
<polyline points="34.0,4.5,42.0,4.0" stroke="black" stroke-width="2" fill="none" />
<polyline points="42.0,37.0,50.0,36.5" stroke="black" stroke-width="2" fill="none" />
<polyline points="26.5,35.5,18.0,36.0" stroke="black" stroke-width="2" fill="none" />
<polyline points="9.5,37.5,1.5,38.5" stroke="black" stroke-width="2" fill="none" />
<polyline points="1.0,30.0,9.0,29.5,17.0,28.5,25.0,27.5" stroke="black" stroke-width="2" fill="none" />
<polyline points="34.0,19.0,25.0,19.0,17.0,20.0,9.5,21.5,2.0,22.0" stroke="black" stroke-width="2" fill="none" />
<polyline points="3.0,13.0,10.5,13.0,18.5,12.5,26.5,11.5" stroke="black" stroke-width="2" fill="none" />
<polyline points="26.5,67.5,18.5,68.5" stroke="black" stroke-width="2" fill="none" />
<polyline points="114.0,95.5,122.0,94.5,130.5,93.5,138.0,93.0,146.0,93.0,154.5,92.0,163.0,91.5,171.0,90.0,179.0,89.0,187.5,88.5,195.5,88.0,203.5,87.5,212.0,87.0,220.0,86.5" stroke="black" stroke-width="2" fill="none" />
<polyline points="212.5,82.0,204.5,89.5,196.0,98.0,188.0,106.0,179.5,113.5,171.5,121.0,163.5,129.0" stroke="black" stroke-width="2" fill="none" />
<polyline points="169.0,128.5,177.0,128.0,186.0,128.0,194.5,127.5" stroke="black" stroke-width="2" fill="none" />
<polyline points="195.5,132.0,204.0,124.0,212.5,116.5,221.0,109.0" stroke="black" stroke-width="2" fill="none" />
<polyline points="212.5,108.5,204.5,116.0,196.5,123.5,188.5,131.5" stroke="black" stroke-width="2" fill="none" />
<polyline points="179.0,130.0,187.5,122.5,195.5,114.5,203.0,106.0,210.5,98.5" stroke="black" stroke-width="2" fill="none" />
<polyline points="211.0,90.5,203.0,98.0,195.0,105.5,187.0,113.0,178.0,120.5,170.0,128.5" stroke="black" stroke-width="2" fill="none" />
<polyline points="154.5,129.5,163.0,121.0,171.0,113.0,180.0,105.0,188.5,96.5,196.5,88.5,204.5,80.0" stroke="black" stroke-width="2" fill="none" />
<polyline points="204.0,73.5,195.5,81.5,187.5,89.0,179.5,97.0,171.5,105.0,163.0,112.5,154.5,120.5" stroke="black" stroke-width="2" fill="none" />
<polyline points="148.5,120.5,156.5,111.5,165.0,104.5,173.5,97.5,181.5,90.0,189.0,82.0,197.0,74.5" stroke="black" stroke-width="2" fill="none" />
<polyline points="190.5,74.5,182.5,82.0,174.0,90.0,165.5,98.0,157.0,105.5,148.0,113.5,140.0,121.0" stroke="black" stroke-width="2" fill="none" />
<polyline points="140.0,123.0,148.0,123.0,156.5,123.0,164.5,123.0,173.0,123.5,181.0,124.0,189.5,123.5,197.5,123.0,205.5,122.5,213.0,122.0" stroke="black" stroke-width="2" fill="none" />
<polyline points="243.5,123.0,251.0,115.0" stroke="black" stroke-width="2" fill="none" />
<polyline points="245.0,116.5,253.0,115.5,261.0,115.0,269.0,114.5,276.5,114.5" stroke="black" stroke-width="2" fill="none" />
<polyline points="275.0,109.5,266.5,116.5,258.5,124.0" stroke="black" stroke-width="2" fill="none" />
<polyline points="250.5,122.5,258.0,114.5,266.0,107.5" stroke="black" stroke-width="2" fill="none" />
<polyline points="258.0,108.5,266.5,108.0,275.5,108.5,283.5,108.5,291.0,107.5,298.5,107.0,306.5,106.5" stroke="black" stroke-width="2" fill="none" />
<polyline points="300.5,115.0,309.0,108.0,317.5,100.5,325.5,92.5,333.5,85.0" stroke="black" stroke-width="2" fill="none" />
<polyline points="340.5,84.0,332.5,91.0,324.0,98.0" stroke="black" stroke-width="2" fill="none" />
<polyline points="331.5,97.0,339.5,89.5,347.0,81.0,354.5,73.5" stroke="black" stroke-width="2" fill="none" />
<polyline points="349.5,80.0,357.0,79.5,365.0,79.5" stroke="black" stroke-width="2" fill="none" />
<polyline points="364.5,81.0,372.5,73.5" stroke="black" stroke-width="2" fill="none" />
<polyline points="371.0,68.5,379.5,68.5" stroke="black" stroke-width="2" fill="none" />
<polyline points="373.5,62.5,381.5,61.5,388.5,61.0" stroke="black" stroke-width="2" fill="none" />
<polyline points="388.5,70.0,396.5,69.5,404.5,69.5,412.0,69.5,419.5,69.5" stroke="black" stroke-width="2" fill="none" />
<polyline points="427.5,70.0,436.0,69.0,443.5,68.5,451.5,68.0" stroke="black" stroke-width="2" fill="none" />
<polyline points="427.5,65.5,435.5,58.0,443.0,50.5,450.5,42.5,458.0,35.0" stroke="black" stroke-width="2" fill="none" />
<polyline points="452.0,33.5,444.0,40.5,436.5,48.0,429.0,56.5" stroke="black" stroke-width="2" fill="none" />
<polyline points="420.0,56.5,428.0,48.5,435.5,41.0,443.5,34.0" stroke="black" stroke-width="2" fill="none" />
<polyline points="434.5,37.0,426.5,44.5,418.0,51.5,409.5,59.0" stroke="black" stroke-width="2" fill="none" />
<polyline points="411.5,56.5,419.5,56.0" stroke="black" stroke-width="2" fill="none" />
<polyline points="417.5,44.5,426.0,37.0,434.0,30.0" stroke="black" stroke-width="2" fill="none" />
<polyline points="426.5,28.0,418.5,36.0" stroke="black" stroke-width="2" fill="none" />
<polyline points="418.5,28.5,410.5,35.5" stroke="black" stroke-width="2" fill="none" />
<polyline points="397.0,28.0,405.0,27.5,412.5,27.0,420.0,26.5,428.0,26.0,436.5,25.5,444.5,25.0" stroke="black" stroke-width="2" fill="none" />
<polyline points="450.5,47.5,443.0,48.0,435.0,48.5" stroke="black" stroke-width="2" fill="none" />
<polyline points="442.0,75.0,434.0,75.5,426.0,76.0" stroke="black" stroke-width="2" fill="none" />
<polyline points="411.0,92.0,419.0,91.5,427.5,91.5,436.0,91.5,444.0,91.5" stroke="black" stroke-width="2" fill="none" />
<polyline points="435.0,99.5,426.5,100.0" stroke="black" stroke-width="2" fill="none" />
<polyline points="410.5,101.0,402.5,101.5" stroke="black" stroke-width="2" fill="none" />
<polyline points="402.5,86.0,410.5,85.5,419.0,86.0,427.5,86.0,435.5,85.5,443.5,84.5,451.5,84.5" stroke="black" stroke-width="2" fill="none" />
<polyline points="434.0,61.0,426.5,61.0,418.5,60.5,410.5,60.5,402.5,61.0" stroke="black" stroke-width="2" fill="none" />
<polyline points="395.0,52.5,403.0,51.5,411.0,50.5,419.0,49.5,427.5,49.0,436.0,49.0,444.5,48.5" stroke="black" stroke-width="2" fill="none" />
<polyline points="419.5,74.5,411.0,75.0,403.0,75.5,394.5,76.0" stroke="black" stroke-width="2" fill="none" />
<polyline points="389.5,74.0,381.0,81.5" stroke="black" stroke-width="2" fill="none" />
<polyline points="382.5,81.0,390.0,80.5" stroke="black" stroke-width="2" fill="none" />
<polyline points="397.0,84.5,389.0,85.0,380.5,85.5" stroke="black" stroke-width="2" fill="none" />
<polyline points="382.0,78.5,390.0,78.0" stroke="black" stroke-width="2" fill="none" />
<polyline points="387.5,94.5,395.5,94.0,403.0,93.0" stroke="black" stroke-width="2" fill="none" />
<polyline points="389.0,114.5,380.5,122.0" stroke="black" stroke-width="2" fill="none" />
<polyline points="381.5,124.0,389.0,123.0" stroke="black" stroke-width="2" fill="none" />
<polyline points="386.0,124.0,378.0,131.5" stroke="black" stroke-width="2" fill="none" />
<polyline points="379.5,134.5,388.0,134.5,396.0,133.5,404.5,133.0,412.5,132.5" stroke="black" stroke-width="2" fill="none" />
<polyline points="411.0,130.5,402.5,138.5,394.5,146.5" stroke="black" stroke-width="2" fill="none" />
<polyline points="394.0,147.5,402.0,147.5,410.0,147.5,418.5,147.0,427.0,146.5" stroke="black" stroke-width="2" fill="none" />
<polyline points="426.0,148.5,418.0,156.0,410.0,163.5,402.5,171.0,395.0,178.5,387.0,186.0" stroke="black" stroke-width="2" fill="none" />
<polyline points="387.5,179.0,379.0,186.0,371.0,194.0,363.0,201.5,355.5,209.0,347.5,216.0,339.0,223.5" stroke="black" stroke-width="2" fill="none" />
<polyline points="337.5,234.0,345.0,225.5,353.5,217.0,362.0,209.0,370.5,201.5,379.0,193.5" stroke="black" stroke-width="2" fill="none" />
<polyline points="378.0,187.0,386.5,186.5,395.0,185.5" stroke="black" stroke-width="2" fill="none" />
<polyline points="397.0,178.5,405.0,178.0" stroke="black" stroke-width="2" fill="none" />
<polyline points="404.5,169.0,412.5,168.5,420.0,167.5,427.5,167.0,435.0,166.5,442.5,166.5,450.5,166.0" stroke="black" stroke-width="2" fill="none" />
<polyline points="451.5,163.5,443.5,170.5" stroke="black" stroke-width="2" fill="none" />
<polyline points="444.0,176.5,452.0,175.5,460.0,175.5" stroke="black" stroke-width="2" fill="none" />
<polyline points="458.0,177.5,450.0,185.5" stroke="black" stroke-width="2" fill="none" />
<polyline points="452.5,185.5,460.5,185.5,468.5,185.0" stroke="black" stroke-width="2" fill="none" />
<polyline points="467.5,186.5,459.5,194.5" stroke="black" stroke-width="2" fill="none" />
<polyline points="461.5,194.5,470.0,194.0,477.5,193.0" stroke="black" stroke-width="2" fill="none" />
<polyline points="475.5,186.5,467.5,194.5" stroke="black" stroke-width="2" fill="none" />
<polyline points="460.0,191.0,468.0,190.5,476.5,189.5" stroke="black" stroke-width="2" fill="none" />
<polyline points="468.0,180.0,460.0,187.5" stroke="black" stroke-width="2" fill="none" />
<polyline points="450.5,178.0,458.0,170.5" stroke="black" stroke-width="2" fill="none" />
<polyline points="451.0,172.0,443.0,179.5" stroke="black" stroke-width="2" fill="none" />
<polyline points="444.0,181.5,452.0,181.0,459.5,180.5,467.5,179.5" stroke="black" stroke-width="2" fill="none" />
<polyline points="444.5,162.0,436.5,169.0" stroke="black" stroke-width="2" fill="none" />
<polyline points="433.5,164.0,425.0,171.0" stroke="black" stroke-width="2" fill="none" />
<polyline points="418.0,171.0,426.5,164.0,435.0,156.5" stroke="black" stroke-width="2" fill="none" />
<polyline points="424.5,154.5,417.0,162.0,409.0,169.5" stroke="black" stroke-width="2" fill="none" />
<polyline points="404.5,161.0,412.0,161.0,420.0,160.0,427.5,159.0,435.5,158.0" stroke="black" stroke-width="2" fill="none" />
<polyline points="418.0,150.0,409.5,157.5,401.5,165.0,393.5,172.5" stroke="black" stroke-width="2" fill="none" />
<polyline points="379.5,166.5,387.5,166.0,396.0,166.0,404.0,165.0,412.0,164.0,420.0,163.0,428.0,162.5,436.5,162.5,444.5,162.5,452.0,162.0" stroke="black" stroke-width="2" fill="none" />
<polyline points="418.0,142.5,410.0,149.5,402.0,157.0" stroke="black" stroke-width="2" fill="none" />
<polyline points="402.5,153.5,411.0,153.5,419.5,152.5,427.5,152.0" stroke="black" stroke-width="2" fill="none" />
<polyline points="412.0,140.5,404.0,148.0,395.0,154.5" stroke="black" stroke-width="2" fill="none" />
<polyline points="396.5,157.0,404.5,156.5,411.5,156.0,419.5,155.5,427.5,155.5,435.5,154.5" stroke="black" stroke-width="2" fill="none" />
<polyline points="418.5,145.5,410.5,146.5,402.5,147.0" stroke="black" stroke-width="2" fill="none" />
<polyline points="395.0,141.5,403.0,134.5" stroke="black" stroke-width="2" fill="none" />
<polyline points="404.5,125.5,396.5,133.0,389.0,140.5" stroke="black" stroke-width="2" fill="none" />
<polyline points="386.5,140.0,394.5,139.5,403.5,139.0,412.0,139.0,420.5,138.5" stroke="black" stroke-width="2" fill="none" />
<polyline points="410.0,135.0,402.0,136.0,394.0,137.0" stroke="black" stroke-width="2" fill="none" />
<polyline points="386.0,131.5,394.0,123.5" stroke="black" stroke-width="2" fill="none" />
<polyline points="402.0,128.0,393.5,128.0,385.5,128.5" stroke="black" stroke-width="2" fill="none" />
<polyline points="388.5,116.5,380.5,117.0" stroke="black" stroke-width="2" fill="none" />
<polyline points="371.0,123.5,378.5,123.5,386.5,124.0,394.5,124.0,403.0,123.5" stroke="black" stroke-width="2" fill="none" />
<polyline points="371.5,173.0,379.5,172.5,387.5,172.0,395.5,172.0,403.0,172.0,411.0,171.5,419.0,170.5,426.5,169.5,434.5,168.5,442.5,167.5,451.0,167.0,459.0,166.5" stroke="black" stroke-width="2" fill="none" />
<polyline points="388.5,202.5,380.0,210.5,372.0,218.0,363.5,225.5,355.0,233.5" stroke="black" stroke-width="2" fill="none" />
<polyline points="348.5,233.0,356.5,232.5,364.5,232.0,372.5,231.5,380.5,230.5" stroke="black" stroke-width="2" fill="none" />
<polyline points="380.0,228.0,372.5,235.5" stroke="black" stroke-width="2" fill="none" />
<polyline points="364.0,242.0,356.0,250.0" stroke="black" stroke-width="2" fill="none" />
<polyline points="356.0,250.5,364.0,250.0" stroke="black" stroke-width="2" fill="none" />
<polyline points="370.5,251.0,363.0,258.5" stroke="black" stroke-width="2" fill="none" />
<polyline points="362.5,258.5,370.5,258.0" stroke="black" stroke-width="2" fill="none" />
<polyline points="372.0,259.0,363.5,266.0" stroke="black" stroke-width="2" fill="none" />
<polyline points="362.0,266.0,370.0,265.5" stroke="black" stroke-width="2" fill="none" />
<polyline points="371.5,268.0,363.0,275.0" stroke="black" stroke-width="2" fill="none" />
<polyline points="364.0,274.5,372.0,274.0" stroke="black" stroke-width="2" fill="none" />
<polyline points="371.0,275.0,363.0,282.0,355.5,289.0,347.5,296.5" stroke="black" stroke-width="2" fill="none" />
<polyline points="346.0,298.0,354.0,297.5,362.5,296.5,370.5,296.0,379.0,295.5,387.0,294.5,395.0,294.5,403.0,294.5,411.0,294.0,419.5,294.0,427.5,293.5" stroke="black" stroke-width="2" fill="none" />
<polyline points="426.5,289.0,418.0,297.0,410.0,305.0" stroke="black" stroke-width="2" fill="none" />
<polyline points="417.0,307.5,425.0,300.5" stroke="black" stroke-width="2" fill="none" />
<polyline points="426.0,307.5,434.0,300.0" stroke="black" stroke-width="2" fill="none" />
<polyline points="437.0,305.5,445.5,297.5" stroke="black" stroke-width="2" fill="none" />
<polyline points="418.0,292.0,409.5,300.0,402.0,308.0" stroke="black" stroke-width="2" fill="none" />
<polyline points="395.0,306.0,402.5,298.5,410.0,291.0" stroke="black" stroke-width="2" fill="none" />
<polyline points="404.0,293.0,396.0,300.5" stroke="black" stroke-width="2" fill="none" />
<polyline points="396.5,301.0,404.5,300.5,412.0,300.5,420.0,300.5,427.5,300.5,435.5,299.5,443.5,299.0" stroke="black" stroke-width="2" fill="none" />
<polyline points="443.5,303.5,435.5,303.0,427.0,304.0,419.0,304.5,411.0,304.5,403.0,304.5,395.0,305.0" stroke="black" stroke-width="2" fill="none" />
<polyline points="386.5,301.0,394.5,293.5" stroke="black" stroke-width="2" fill="none" />
<polyline points="386.5,290.5,378.5,298.0" stroke="black" stroke-width="2" fill="none" />
<polyline points="371.0,298.0,379.5,290.5" stroke="black" stroke-width="2" fill="none" />
<polyline points="378.5,283.5,370.5,290.5,362.0,298.0" stroke="black" stroke-width="2" fill="none" />
<polyline points="356.0,298.5,363.5,290.5,371.5,282.0,379.5,274.0" stroke="black" stroke-width="2" fill="none" />
<polyline points="380.0,281.0,372.0,281.5" stroke="black" stroke-width="2" fill="none" />
<polyline points="355.0,283.5,347.0,291.5" stroke="black" stroke-width="2" fill="none" />
<polyline points="347.0,291.5,354.5,291.0,362.0,291.0,370.0,290.5,378.0,290.5,386.5,290.5,395.0,290.0,404.0,290.0,412.5,289.5,420.5,289.0,428.5,289.0" stroke="black" stroke-width="2" fill="none" />
<polyline points="379.0,275.0,371.0,275.5,363.0,276.5,355.0,277.0" stroke="black" stroke-width="2" fill="none" />
<polyline points="349.0,281.5,341.0,288.5" stroke="black" stroke-width="2" fill="none" />
<polyline points="341.0,281.5,333.5,289.0" stroke="black" stroke-width="2" fill="none" />
<polyline points="333.5,284.5,325.5,291.5" stroke="black" stroke-width="2" fill="none" />
<polyline points="324.0,289.0,332.0,288.5,339.5,288.0,347.0,288.0,355.0,287.5,363.0,287.0,371.0,287.0,379.5,287.0" stroke="black" stroke-width="2" fill="none" />
<polyline points="372.0,266.5,363.5,267.0,356.0,267.5" stroke="black" stroke-width="2" fill="none" />
<polyline points="355.5,262.0,363.5,261.5,371.5,261.0" stroke="black" stroke-width="2" fill="none" />
<polyline points="371.5,253.0,363.5,254.0,355.5,255.0" stroke="black" stroke-width="2" fill="none" />
<polyline points="356.5,247.0,364.5,246.5" stroke="black" stroke-width="2" fill="none" />
<polyline points="363.5,241.0,355.5,241.5" stroke="black" stroke-width="2" fill="none" />
<polyline points="354.5,240.5,363.0,233.5,371.5,225.5,379.5,218.0,388.0,210.5" stroke="black" stroke-width="2" fill="none" />
<polyline points="380.5,202.0,372.5,210.5,364.5,218.5,356.5,226.0,348.0,233.5" stroke="black" stroke-width="2" fill="none" />
<polyline points="348.5,237.0,356.0,236.5,363.5,235.5" stroke="black" stroke-width="2" fill="none" />
<polyline points="331.0,225.0,339.0,217.0,347.0,209.5,354.5,202.0,362.0,194.0,369.5,186.5,377.0,179.0" stroke="black" stroke-width="2" fill="none" />
<polyline points="371.5,179.5,363.5,186.5,355.5,194.0,347.5,201.0,340.0,208.5,332.0,216.5,323.5,224.5" stroke="black" stroke-width="2" fill="none" />
<polyline points="323.5,222.5,331.0,222.0,339.5,222.5,347.5,223.0,355.5,223.0,364.0,223.0,372.5,223.0,380.5,222.0" stroke="black" stroke-width="2" fill="none" />
<polyline points="353.5,187.0,345.0,194.0,337.5,201.5,329.5,209.0,321.5,216.5,313.5,224.5" stroke="black" stroke-width="2" fill="none" />
<polyline points="307.0,225.5,315.5,217.5,324.0,209.5,332.5,201.5,341.5,194.0,349.5,186.0" stroke="black" stroke-width="2" fill="none" />
<polyline points="348.5,178.0,341.0,186.0,332.5,193.5,325.0,201.0,317.0,208.5,308.5,216.5,300.5,224.5" stroke="black" stroke-width="2" fill="none" />
<polyline points="301.5,216.5,309.5,209.0,317.0,201.5,325.0,194.0,332.5,186.5,341.0,178.5" stroke="black" stroke-width="2" fill="none" />
<polyline points="332.5,180.0,324.5,187.5,316.5,195.0,308.5,202.5,301.0,210.0,293.0,218.0,284.5,225.0,276.0,231.5,267.5,239.0,259.5,246.5,251.5,254.0,243.0,261.0" stroke="black" stroke-width="2" fill="none" />
<polyline points="242.5,258.5,250.5,251.0" stroke="black" stroke-width="2" fill="none" />
<polyline points="243.5,253.0,235.5,260.0" stroke="black" stroke-width="2" fill="none" />
<polyline points="234.0,256.5,242.0,256.0,250.5,255.5,258.5,255.5" stroke="black" stroke-width="2" fill="none" />
<polyline points="259.5,258.5,251.5,266.5,243.5,274.0" stroke="black" stroke-width="2" fill="none" />
<polyline points="241.5,274.0,250.0,274.0,258.5,273.5" stroke="black" stroke-width="2" fill="none" />
<polyline points="259.5,267.5,252.0,274.5" stroke="black" stroke-width="2" fill="none" />
<polyline points="259.5,280.5,266.5,280.0,274.5,279.0" stroke="black" stroke-width="2" fill="none" />
<polyline points="275.0,275.5,267.0,283.0,258.5,290.5" stroke="black" stroke-width="2" fill="none" />
<polyline points="258.0,290.5,266.0,290.0,274.0,289.5,282.5,289.0" stroke="black" stroke-width="2" fill="none" />
<polyline points="284.0,290.5,276.0,298.0" stroke="black" stroke-width="2" fill="none" />
<polyline points="275.5,302.0,284.0,301.0,292.0,301.0" stroke="black" stroke-width="2" fill="none" />
<polyline points="291.5,301.0,284.0,309.0" stroke="black" stroke-width="2" fill="none" />
<polyline points="281.5,308.0,290.0,308.0" stroke="black" stroke-width="2" fill="none" />
<polyline points="291.5,307.5,283.5,315.5" stroke="black" stroke-width="2" fill="none" />
<polyline points="283.0,312.0,291.0,312.0" stroke="black" stroke-width="2" fill="none" />
<polyline points="285.5,299.0,277.0,307.0" stroke="black" stroke-width="2" fill="none" />
<polyline points="275.5,306.5,283.5,306.0,291.5,306.0" stroke="black" stroke-width="2" fill="none" />
<polyline points="276.5,292.5,269.0,300.0" stroke="black" stroke-width="2" fill="none" />
<polyline points="267.5,299.5,276.0,299.0,284.0,298.0" stroke="black" stroke-width="2" fill="none" />
<polyline points="276.0,284.0,268.5,291.0" stroke="black" stroke-width="2" fill="none" />
<polyline points="275.5,287.0,267.0,287.0,258.5,287.0" stroke="black" stroke-width="2" fill="none" />
<polyline points="258.5,284.0,266.0,276.5" stroke="black" stroke-width="2" fill="none" />
<polyline points="273.5,284.5,265.5,285.0,258.0,285.0,250.5,285.0" stroke="black" stroke-width="2" fill="none" />
<polyline points="243.0,279.0,250.5,278.5,258.5,278.0,266.5,277.0,275.5,276.5" stroke="black" stroke-width="2" fill="none" />
<polyline points="267.5,248.5,260.0,249.5" stroke="black" stroke-width="2" fill="none" />
<polyline points="259.0,246.5,267.0,245.0" stroke="black" stroke-width="2" fill="none" />
<polyline points="269.0,243.5,277.5,243.0" stroke="black" stroke-width="2" fill="none" />
<polyline points="277.0,238.5,269.0,239.0" stroke="black" stroke-width="2" fill="none" />
<polyline points="275.5,231.0,283.5,230.5" stroke="black" stroke-width="2" fill="none" />
<polyline points="281.0,226.5,289.0,226.5" stroke="black" stroke-width="2" fill="none" />
<polyline points="291.5,217.5,299.5,217.5,307.5,217.0,315.5,216.5,324.0,215.5,332.5,214.5,340.0,214.0,347.5,214.0,355.0,213.5,363.0,213.0,371.0,212.5,379.0,212.0,386.5,211.5" stroke="black" stroke-width="2" fill="none" />
<polyline points="321.5,180.5,313.5,188.0,306.0,195.5,299.0,202.5,291.5,210.0,283.5,217.0" stroke="black" stroke-width="2" fill="none" />
<polyline points="282.0,208.5,290.0,201.5,298.0,194.5,306.5,187.0,314.5,180.0,322.5,172.0" stroke="black" stroke-width="2" fill="none" />
<polyline points="324.0,163.5,316.0,170.5,307.5,178.0,299.0,186.0,290.0,194.0,282.0,201.5,274.0,209.0" stroke="black" stroke-width="2" fill="none" />
<polyline points="275.0,209.5,283.0,209.0,291.5,208.0,299.5,207.5,307.5,207.0,315.5,206.5,324.0,206.0,332.0,206.0,340.0,205.5,349.0,204.5,357.5,203.0,365.0,202.5,373.0,202.5,380.5,202.0,388.5,201.5" stroke="black" stroke-width="2" fill="none" />
<polyline points="380.0,225.5,372.0,226.0,364.0,227.0,356.0,228.0,348.0,228.0,340.5,228.5,332.0,229.0,324.0,230.5,315.5,231.0" stroke="black" stroke-width="2" fill="none" />
<polyline points="284.0,227.0,276.5,227.5" stroke="black" stroke-width="2" fill="none" />
<polyline points="275.0,219.0,283.5,218.0,291.5,217.5,299.5,217.5,307.0,217.5,314.5,217.0,323.0,216.5,331.5,216.0,340.0,216.5,348.5,216.0,356.5,216.0,364.5,215.5,372.5,215.0,380.5,214.5" stroke="black" stroke-width="2" fill="none" />
<polyline points="316.5,163.0,308.5,170.5,300.5,178.5,292.0,186.5,283.5,193.5,275.0,201.5,267.0,209.0" stroke="black" stroke-width="2" fill="none" />
<polyline points="261.0,213.0,269.0,212.5,275.5,212.0,283.0,211.5,291.5,210.5,299.5,210.0,307.5,210.0,315.0,209.5,323.0,209.5,331.0,209.0,339.5,209.0,347.5,208.0,356.0,207.0,364.0,206.0,372.5,206.0,380.5,206.0,388.5,205.5" stroke="black" stroke-width="2" fill="none" />
<polyline points="317.0,155.0,309.0,162.0,300.5,170.0,292.5,177.5,284.5,185.0,277.0,193.0,268.5,200.5" stroke="black" stroke-width="2" fill="none" />
<polyline points="268.5,201.0,276.0,200.5,284.0,200.0,291.5,199.5,299.5,199.0,307.0,199.0,315.0,198.5,322.5,198.5,330.0,198.0,338.5,198.0,347.0,198.0,354.5,197.0,362.5,196.0,370.5,195.0,378.0,194.0" stroke="black" stroke-width="2" fill="none" />
<polyline points="318.5,159.5,310.5,160.0" stroke="black" stroke-width="2" fill="none" />
<polyline points="308.0,155.0,316.5,148.0" stroke="black" stroke-width="2" fill="none" />
<polyline points="309.0,147.5,317.5,140.0" stroke="black" stroke-width="2" fill="none" />
<polyline points="315.5,132.0,307.5,139.5" stroke="black" stroke-width="2" fill="none" />
<polyline points="307.5,136.5,315.5,136.0" stroke="black" stroke-width="2" fill="none" />
<polyline points="317.0,144.5,309.0,145.0" stroke="black" stroke-width="2" fill="none" />
<polyline points="309.5,153.0,317.5,152.5" stroke="black" stroke-width="2" fill="none" />
<polyline points="297.5,165.0,289.5,172.5,281.5,180.5,273.5,188.0,265.5,195.0,258.0,202.0" stroke="black" stroke-width="2" fill="none" />
<polyline points="259.5,204.5,267.5,204.5,275.0,204.0,282.5,203.5,290.5,203.5,298.5,203.0,307.0,202.5,314.5,202.0,322.5,201.0,330.5,200.0,338.5,200.0,346.5,199.0,355.0,198.5,363.0,198.5,370.5,198.0,378.5,198.0,386.5,197.5" stroke="black" stroke-width="2" fill="none" />
<polyline points="324.5,277.0,316.5,285.0" stroke="black" stroke-width="2" fill="none" />
<polyline points="315.0,287.0,323.5,286.5,332.0,286.0,339.5,285.5,347.5,285.0,355.5,284.5,364.0,283.5,372.0,283.5,381.0,282.5" stroke="black" stroke-width="2" fill="none" />
<polyline points="362.5,301.0,354.0,301.5,346.0,302.0" stroke="black" stroke-width="2" fill="none" />
<polyline points="338.5,292.0,330.5,293.0,322.5,294.0,315.0,295.0" stroke="black" stroke-width="2" fill="none" />
<polyline points="316.5,278.5,325.0,278.0" stroke="black" stroke-width="2" fill="none" />
<polyline points="268.5,220.0,261.0,220.5" stroke="black" stroke-width="2" fill="none" />
<polyline points="260.0,227.5,252.0,228.5" stroke="black" stroke-width="2" fill="none" />
<polyline points="244.5,235.5,236.0,242.0,228.0,249.5" stroke="black" stroke-width="2" fill="none" />
<polyline points="225.5,249.0,233.5,248.5,242.0,247.5" stroke="black" stroke-width="2" fill="none" />
<polyline points="244.0,245.0,236.5,252.5" stroke="black" stroke-width="2" fill="none" />
<polyline points="227.0,242.0,235.5,235.0" stroke="black" stroke-width="2" fill="none" />
<polyline points="234.5,228.5,226.5,236.0" stroke="black" stroke-width="2" fill="none" />
<polyline points="228.0,232.5,236.0,232.0" stroke="black" stroke-width="2" fill="none" />
<polyline points="236.0,228.0,228.0,228.0" stroke="black" stroke-width="2" fill="none" />
<polyline points="226.0,229.5,234.5,222.0" stroke="black" stroke-width="2" fill="none" />
<polyline points="226.0,220.5,218.5,228.5" stroke="black" stroke-width="2" fill="none" />
<polyline points="220.0,224.0,228.0,223.5,235.5,223.5" stroke="black" stroke-width="2" fill="none" />
<polyline points="227.5,213.5,219.5,220.5" stroke="black" stroke-width="2" fill="none" />
<polyline points="219.0,220.0,227.5,220.0,235.5,219.5" stroke="black" stroke-width="2" fill="none" />
<polyline points="228.5,216.5,221.0,217.0" stroke="black" stroke-width="2" fill="none" />
<polyline points="219.0,214.0,227.5,213.0" stroke="black" stroke-width="2" fill="none" />
<polyline points="220.0,236.5,227.0,236.0,235.0,235.5,243.0,234.5" stroke="black" stroke-width="2" fill="none" />
<polyline points="243.5,238.5,236.0,239.5,227.5,240.0" stroke="black" stroke-width="2" fill="none" />
<polyline points="218.5,246.0,226.5,245.5,234.0,245.0,242.0,244.5,250.0,244.0" stroke="black" stroke-width="2" fill="none" />
<polyline points="243.5,265.0,251.5,264.5,260.0,264.0" stroke="black" stroke-width="2" fill="none" />
<polyline points="260.5,267.0,252.5,267.5,244.5,268.0,236.0,268.5" stroke="black" stroke-width="2" fill="none" />
<polyline points="218.5,262.5,226.5,262.0,235.0,261.0,244.0,260.0,252.5,258.5,261.0,257.5" stroke="black" stroke-width="2" fill="none" />
<polyline points="258.5,250.0,250.5,250.5,242.0,251.5,233.5,252.5,225.5,253.0,217.5,254.0" stroke="black" stroke-width="2" fill="none" />
<polyline points="254.5,194.5,262.5,194.0,270.0,194.0,277.0,194.0,284.5,194.0,291.5,194.5,299.5,194.0,307.5,193.5,315.5,193.5,323.0,193.0,331.0,192.5,338.5,192.5,347.0,192.5,355.5,192.5,364.0,192.0,372.0,191.0,380.0,191.0,388.5,191.0" stroke="black" stroke-width="2" fill="none" />
<polyline points="291.5,163.5,283.5,171.5,275.5,178.5,267.5,186.0,259.0,193.0" stroke="black" stroke-width="2" fill="none" />
<polyline points="257.0,191.5,265.5,191.0,273.5,190.5,282.0,190.5,290.0,190.5,298.0,190.0,306.0,189.5,314.5,189.0,322.5,188.5,330.0,188.5,337.5,188.0,345.5,187.0,354.0,185.5,362.5,184.5,370.0,184.0,378.5,183.5" stroke="black" stroke-width="2" fill="none" />
<polyline points="284.5,164.0,276.5,171.5,269.0,179.5,261.0,186.5" stroke="black" stroke-width="2" fill="none" />
<polyline points="267.5,186.0,275.5,185.5,283.5,185.0,291.0,184.0,299.0,183.0,307.0,182.0,315.0,182.0,323.0,182.0,331.5,182.0,339.5,182.0" stroke="black" stroke-width="2" fill="none" />
<polyline points="324.5,139.0,316.0,139.0,308.0,140.0,299.5,141.0,291.5,142.0" stroke="black" stroke-width="2" fill="none" />
<polyline points="290.5,133.0,298.5,132.0,307.0,131.5,315.0,131.5" stroke="black" stroke-width="2" fill="none" />
<polyline points="297.5,124.0,289.5,125.0" stroke="black" stroke-width="2" fill="none" />
<polyline points="290.5,116.5,298.5,116.0,306.5,115.0" stroke="black" stroke-width="2" fill="none" />
<polyline points="289.5,115.5,297.5,108.5,306.0,101.5,314.0,94.0" stroke="black" stroke-width="2" fill="none" />
<polyline points="315.5,100.0,323.5,99.5,331.5,99.5,339.5,98.5" stroke="black" stroke-width="2" fill="none" />
<polyline points="349.5,91.5,357.0,84.0,364.5,76.0" stroke="black" stroke-width="2" fill="none" />
<polyline points="370.5,65.5,378.5,58.0" stroke="black" stroke-width="2" fill="none" />
<polyline points="381.5,58.5,373.5,58.5" stroke="black" stroke-width="2" fill="none" />
<polyline points="371.0,58.0,379.0,51.0" stroke="black" stroke-width="2" fill="none" />
<polyline points="380.0,45.0,371.5,52.5" stroke="black" stroke-width="2" fill="none" />
<polyline points="372.5,54.0,380.5,53.5,389.0,52.5" stroke="black" stroke-width="2" fill="none" />
<polyline points="389.0,39.0,396.5,38.5,403.5,38.0,411.5,37.0,419.5,36.0,427.0,35.0,435.0,34.5,443.5,34.0,451.5,33.5,460.0,33.0" stroke="black" stroke-width="2" fill="none" />
<polyline points="379.0,50.0,371.0,50.0" stroke="black" stroke-width="2" fill="none" />
<polyline points="370.5,46.5,378.0,46.0,386.0,45.5,393.5,45.0,401.0,45.0,409.0,44.5,417.5,44.0,426.0,43.0,434.5,42.0,442.5,41.5,450.5,41.0" stroke="black" stroke-width="2" fill="none" />
<polyline points="379.0,37.0,371.0,37.5" stroke="black" stroke-width="2" fill="none" />
<polyline points="372.5,76.5,364.5,76.5,357.5,76.5,350.0,77.0,342.0,77.5" stroke="black" stroke-width="2" fill="none" />
<polyline points="355.0,87.5,346.5,88.0,338.5,88.0,330.5,88.0,322.5,88.5" stroke="black" stroke-width="2" fill="none" />
<polyline points="315.5,85.5,323.5,85.0,331.5,84.5,340.0,84.0,348.5,83.0,356.5,82.5" stroke="black" stroke-width="2" fill="none" />
<polyline points="307.0,92.5,299.0,99.5,290.5,106.5,282.5,114.0" stroke="black" stroke-width="2" fill="none" />
<polyline points="283.0,105.5,290.5,105.5,299.0,105.5,307.5,105.5,316.0,105.0" stroke="black" stroke-width="2" fill="none" />
<polyline points="307.0,96.5,298.5,97.0" stroke="black" stroke-width="2" fill="none" />
<polyline points="291.5,101.0,284.0,108.5,277.0,116.0,269.0,123.0" stroke="black" stroke-width="2" fill="none" />
<polyline points="267.5,125.0,275.5,124.5" stroke="black" stroke-width="2" fill="none" />
<polyline points="261.5,114.5,269.5,114.0,277.5,113.0,285.5,112.0,293.0,111.5,300.5,110.5,308.0,109.5" stroke="black" stroke-width="2" fill="none" />
<polyline points="283.0,95.0,291.0,94.0,298.5,93.5,306.5,93.0,314.5,92.0,322.5,91.5,330.5,91.0,338.5,90.5" stroke="black" stroke-width="2" fill="none" />
<polyline points="323.0,148.0,315.0,148.5,307.0,148.5,299.0,148.5,290.5,149.0,282.5,149.0" stroke="black" stroke-width="2" fill="none" />
<polyline points="267.5,157.0,276.0,156.5,284.0,156.0,291.5,155.5,299.5,155.5,307.0,155.5,314.5,156.0,322.5,156.0" stroke="black" stroke-width="2" fill="none" />
<polyline points="275.0,165.0,267.0,172.0,258.5,179.5" stroke="black" stroke-width="2" fill="none" />
<polyline points="253.0,182.5,261.0,181.5,269.0,180.5,277.0,180.0,285.0,179.0,292.5,178.5,300.0,178.5,307.5,178.0,315.0,177.5,323.5,177.5,331.5,177.5,339.5,177.0,347.5,177.0,355.5,176.5,363.5,176.0,372.0,175.0,379.5,174.0,387.5,173.5,395.0,173.0,402.0,172.5" stroke="black" stroke-width="2" fill="none" />
<polyline points="316.0,100.0,307.0,100.0,299.0,100.5,291.0,100.5,282.5,101.0,275.0,101.5" stroke="black" stroke-width="2" fill="none" />
<polyline points="268.0,101.5,260.0,101.5,252.5,102.5" stroke="black" stroke-width="2" fill="none" />
<polyline points="243.5,120.5,252.0,120.0,260.0,119.0,268.5,118.5,276.5,118.5" stroke="black" stroke-width="2" fill="none" />
<polyline points="259.5,166.0,267.5,165.5,275.5,165.0,283.5,164.5,291.5,163.5,299.5,163.0,307.5,162.0,314.5,161.5,322.5,161.0,330.5,160.0" stroke="black" stroke-width="2" fill="none" />
<polyline points="323.5,175.5,316.0,175.5,307.5,176.0,299.5,176.5,291.0,177.0,283.5,178.0,275.5,178.0,267.5,178.5" stroke="black" stroke-width="2" fill="none" />
<polyline points="268.0,170.5,276.5,170.0,284.5,169.5,292.0,168.5,300.0,167.5,308.0,167.0,316.0,167.0" stroke="black" stroke-width="2" fill="none" />
<polyline points="348.0,168.0,340.0,168.0,331.5,169.0,324.0,169.5,316.0,170.0,308.5,170.0,300.5,170.0,292.5,170.5,285.0,171.0,277.5,171.0,269.0,172.0,260.5,172.5,252.5,173.0" stroke="black" stroke-width="2" fill="none" />
<polyline points="252.5,188.0,260.5,187.5,269.0,187.5,277.0,188.0,285.0,188.0,292.5,188.0,300.0,187.5,308.0,187.0,315.5,187.0,323.5,186.5,331.0,186.0,339.0,185.0,346.5,184.5,354.5,184.0,362.5,183.0,370.5,182.5,378.5,182.0,386.5,181.5,395.0,180.5" stroke="black" stroke-width="2" fill="none" />
<polyline points="181.5,74.0,173.5,81.5,165.0,89.5,157.0,97.5,148.5,105.5,140.0,113.0,132.5,120.5" stroke="black" stroke-width="2" fill="none" />
<polyline points="132.5,120.0,140.5,119.5,148.0,119.0,156.5,119.0,165.0,119.0,173.0,118.5,181.0,118.0,188.5,117.0,195.5,116.5,202.5,116.0,210.0,115.5" stroke="black" stroke-width="2" fill="none" />
<polyline points="172.5,74.5,164.5,82.0,156.5,89.5,149.0,97.0,141.5,104.5,134.0,112.5" stroke="black" stroke-width="2" fill="none" />
<polyline points="126.5,113.5,134.0,106.0,142.0,98.0,150.0,90.0,158.0,82.0,166.0,74.5" stroke="black" stroke-width="2" fill="none" />
<polyline points="164.0,70.5,171.5,69.5,179.5,69.0" stroke="black" stroke-width="2" fill="none" />
<polyline points="155.5,74.5,147.5,82.5,140.0,90.0,132.5,98.0,124.5,106.0" stroke="black" stroke-width="2" fill="none" />
<polyline points="122.5,108.5,131.0,108.0,139.0,108.0,147.0,107.5,154.5,107.0,162.5,106.5,171.0,106.0,179.5,105.0,188.0,104.0,196.5,103.0,204.5,103.0,212.5,102.5,221.0,102.5,229.0,103.0" stroke="black" stroke-width="2" fill="none" />
<polyline points="194.0,78.5,186.5,80.0,179.0,80.5,172.5,80.5,165.0,81.0,157.5,82.0,149.5,82.5" stroke="black" stroke-width="2" fill="none" />
<polyline points="145.5,75.5,138.0,83.0,130.0,90.5,122.0,98.0" stroke="black" stroke-width="2" fill="none" />
<polyline points="121.0,98.5,129.5,98.0,138.0,97.5,146.0,97.0,154.0,96.5,162.5,95.5,171.5,95.5,179.5,95.0,188.0,95.0,196.5,94.0,204.5,93.5,212.0,92.5" stroke="black" stroke-width="2" fill="none" />
<polyline points="157.5,69.5,149.0,70.0" stroke="black" stroke-width="2" fill="none" />
<polyline points="140.0,75.5,131.5,83.0,123.5,90.5" stroke="black" stroke-width="2" fill="none" />
<polyline points="122.0,91.0,130.0,90.0,138.0,89.5,146.0,89.5,153.5,88.5,161.5,87.5,170.0,88.0,178.5,87.5,186.5,87.5,195.0,87.0,203.0,86.0,210.5,85.5" stroke="black" stroke-width="2" fill="none" />
<polyline points="202.0,72.5,194.0,73.0,186.5,73.5,178.5,74.5,171.5,75.5,164.0,76.0,156.5,76.5,148.5,77.0,141.0,77.0,133.0,78.0" stroke="black" stroke-width="2" fill="none" />
<polyline points="120.5,86.0,129.0,86.0,138.0,86.0,146.0,86.0,154.5,85.5,162.5,85.0,170.5,84.5,178.0,83.5,186.0,83.0,193.5,82.0,201.5,81.0,210.0,81.0" stroke="black" stroke-width="2" fill="none" />
<polyline points="220.0,110.5,212.0,110.5,204.0,111.5,196.0,112.0,188.0,112.5,180.0,113.0,172.5,113.5,164.5,113.5,156.5,114.0,148.5,115.0,140.0,115.5,132.0,116.0,124.0,116.0" stroke="black" stroke-width="2" fill="none" />
<polyline points="124.0,113.0,131.5,112.0,139.0,111.5,147.0,111.5,155.5,111.0,164.0,110.5,172.0,110.0,181.0,109.0,189.5,108.0,198.5,106.5,206.5,105.5,214.5,105.0" stroke="black" stroke-width="2" fill="none" />
<polyline points="213.0,100.5,205.0,101.5,196.5,101.5,188.0,102.0,179.5,102.5,171.5,102.5,163.0,103.0,154.5,103.5,146.0,104.0,137.5,104.5,129.5,105.0,121.0,105.0" stroke="black" stroke-width="2" fill="none" />
<polyline points="121.5,102.5,129.5,101.5,137.5,101.0,145.5,100.0,154.5,99.5,163.5,98.5,171.5,98.5,179.5,98.0,188.0,97.0,196.0,96.5,204.5,96.0,212.5,95.5,221.0,95.0,229.5,94.0" stroke="black" stroke-width="2" fill="none" />
</svg>