<svg xmlns="http://www.w3.org/2000/svg" version="1.1"><polyline points="1.5,20.5,10.0,20.5,18.5,20.0,27.0,20.0,35.5,20.0" stroke="black" stroke-width="2" fill="none" />
<polyline points="35.5,21.0,27.5,28.5,19.5,35.5,12.0,42.5,4.5,50.0" stroke="black" stroke-width="2" fill="none" />
<polyline points="4.0,52.0,12.0,51.5,20.0,51.0,28.0,50.5,35.5,50.5,43.5,49.5,50.5,49.5,58.0,49.0,65.5,48.5" stroke="black" stroke-width="2" fill="none" />
<polyline points="67.0,45.5,75.0,45.0,83.5,44.0,92.0,43.5,100.0,43.5,108.0,42.5,115.5,42.5,123.0,42.0,130.5,41.0" stroke="black" stroke-width="2" fill="none" />
<polyline points="123.0,41.0,115.0,49.0,107.5,57.0" stroke="black" stroke-width="2" fill="none" />
<polyline points="108.5,51.0,116.5,43.5" stroke="black" stroke-width="2" fill="none" />
<polyline points="116.5,36.0,108.5,43.0" stroke="black" stroke-width="2" fill="none" />
<polyline points="108.0,34.0,100.0,41.5,92.5,49.0" stroke="black" stroke-width="2" fill="none" />
<polyline points="91.0,43.0,99.5,35.0" stroke="black" stroke-width="2" fill="none" />
<polyline points="84.0,37.0,76.0,44.5" stroke="black" stroke-width="2" fill="none" />
<polyline points="67.0,41.5,75.0,34.0,83.5,26.5" stroke="black" stroke-width="2" fill="none" />
<polyline points="77.0,28.0,68.5,35.5,60.0,42.5" stroke="black" stroke-width="2" fill="none" />
<polyline points="60.0,33.5,67.5,26.0" stroke="black" stroke-width="2" fill="none" />
<polyline points="49.5,29.0,41.5,37.0" stroke="black" stroke-width="2" fill="none" />
<polyline points="43.5,44.5,51.5,36.5" stroke="black" stroke-width="2" fill="none" />
<polyline points="45.0,27.0,37.0,35.0,28.5,42.5" stroke="black" stroke-width="2" fill="none" />
<polyline points="29.0,35.0,36.5,27.5" stroke="black" stroke-width="2" fill="none" />
<polyline points="26.0,17.0,18.0,25.0,10.5,33.0,2.0,41.0" stroke="black" stroke-width="2" fill="none" />
<polyline points="3.5,43.5,11.5,43.5,20.0,43.5,28.0,43.5,36.0,43.5,44.0,43.5,52.0,42.5,59.5,41.5" stroke="black" stroke-width="2" fill="none" />
<polyline points="53.5,53.0,45.5,61.0,37.0,68.0,29.0,75.0,20.5,82.5,12.5,89.5,4.5,96.5" stroke="black" stroke-width="2" fill="none" />
<polyline points="3.0,99.5,11.5,99.0,19.5,99.0,27.5,99.0,35.5,98.5,43.5,98.0,51.5,97.5,59.5,97.0,67.5,96.5,75.5,96.0,83.5,95.5,91.0,95.0,99.0,95.0,107.0,95.0,114.5,94.0,123.0,94.0,131.0,93.5,139.5,93.5,147.5,93.0,155.5,92.5,163.5,91.5,171.5,91.0,179.0,91.0,187.0,90.5,195.5,89.5" stroke="black" stroke-width="2" fill="none" />
<polyline points="187.0,101.5,179.0,108.5,170.5,116.0,163.0,123.5,155.5,131.0,147.5,138.0,140.0,145.5,132.0,153.5,124.0,160.5,116.0,167.5,108.0,175.0,100.0,182.5,92.0,190.0,84.0,198.0" stroke="black" stroke-width="2" fill="none" />
<polyline points="100.0,198.5,108.5,190.5,116.0,183.5,123.0,176.5,130.5,169.0,138.5,162.0,146.5,154.5,154.5,147.0,162.0,139.5,170.0,131.5,178.0,123.5,186.5,116.0" stroke="black" stroke-width="2" fill="none" />
<polyline points="180.0,117.0,172.5,124.5,165.0,131.5,157.0,139.0,148.5,146.0,140.5,153.5,133.0,161.0,125.0,168.0,117.0,176.0,109.0,184.5,100.5,192.5" stroke="black" stroke-width="2" fill="none" />
<polyline points="106.5,186.5,114.5,186.5,122.5,186.0,131.0,186.0" stroke="black" stroke-width="2" fill="none" />
<polyline points="132.5,191.0,140.0,183.0,147.5,175.5,155.5,168.0,163.0,160.5,171.0,153.5,179.5,146.0,187.5,138.5,195.0,131.0,203.5,124.0" stroke="black" stroke-width="2" fill="none" />
<polyline points="210.0,123.5,202.0,130.5,194.0,138.0,185.5,145.5,177.5,153.0,169.5,160.5,161.5,168.5,154.0,176.5,146.5,184.5,138.5,192.5" stroke="black" stroke-width="2" fill="none" />
<polyline points="139.5,185.5,147.5,185.0,155.5,184.5" stroke="black" stroke-width="2" fill="none" />
<polyline points="171.0,185.0,179.5,177.5,187.5,170.5,195.0,163.0,203.0,155.0,211.0,147.0,219.0,139.0" stroke="black" stroke-width="2" fill="none" />
<polyline points="218.5,132.0,211.0,139.5,202.5,146.5,194.5,154.0,187.5,161.5,179.5,168.5,171.0,176.5,162.5,184.0,153.5,191.5" stroke="black" stroke-width="2" fill="none" />
<polyline points="164.0,200.0,172.0,193.0,180.5,185.5,189.0,177.5,197.0,170.0,205.0,162.0,213.5,154.5,221.5,147.0,229.5,139.5" stroke="black" stroke-width="2" fill="none" />
<polyline points="234.0,147.5,226.0,154.5,217.5,162.0,210.0,169.5,202.5,177.0,195.0,184.5,187.0,192.5" stroke="black" stroke-width="2" fill="none" />
<polyline points="195.5,202.5,203.0,195.5,211.5,187.5,220.0,179.0,228.0,171.0,236.0,163.5,244.0,156.0" stroke="black" stroke-width="2" fill="none" />
<polyline points="244.5,163.5,236.0,171.5,227.5,178.5,219.0,186.5,210.5,194.0,202.5,202.0" stroke="black" stroke-width="2" fill="none" />
<polyline points="201.5,201.5,209.5,201.0,218.0,200.5" stroke="black" stroke-width="2" fill="none" />
<polyline points="219.0,204.0,211.0,212.0,203.0,219.5" stroke="black" stroke-width="2" fill="none" />
<polyline points="202.5,218.0,210.5,217.0,218.5,216.0,227.0,216.0,236.0,216.5,244.5,216.5" stroke="black" stroke-width="2" fill="none" />
<polyline points="252.0,216.0,259.5,215.5,267.5,215.5,276.0,215.5,284.5,215.5,292.5,215.0" stroke="black" stroke-width="2" fill="none" />
<polyline points="291.5,210.0,300.0,209.0" stroke="black" stroke-width="2" fill="none" />
<polyline points="308.5,214.0,316.0,213.5,324.0,213.0,331.5,212.5,339.0,212.0,347.0,211.5" stroke="black" stroke-width="2" fill="none" />
<polyline points="346.0,212.0,338.0,219.0,330.5,226.0,322.5,233.5" stroke="black" stroke-width="2" fill="none" />
<polyline points="331.0,233.5,339.0,225.5,347.5,218.0" stroke="black" stroke-width="2" fill="none" />
<polyline points="340.5,212.5,332.0,220.5,323.5,228.0,315.5,235.5" stroke="black" stroke-width="2" fill="none" />
<polyline points="306.0,225.0,314.0,224.5,323.0,224.0,331.5,224.0,339.5,223.5,347.5,223.0" stroke="black" stroke-width="2" fill="none" />
<polyline points="349.5,228.0,340.5,235.5" stroke="black" stroke-width="2" fill="none" />
<polyline points="329.5,241.5,321.5,249.0,314.0,256.5,307.0,263.5,299.0,271.0,291.5,279.0,283.5,286.5,276.0,294.5,268.0,302.0,260.0,309.5,252.0,317.0,244.0,324.5,235.5,332.5" stroke="black" stroke-width="2" fill="none" />
<polyline points="236.5,337.0,244.5,336.5" stroke="black" stroke-width="2" fill="none" />
<polyline points="258.0,331.5,266.0,324.0,273.5,316.5,281.5,309.0,290.0,302.0,299.0,295.0,307.5,287.5,316.0,280.5,323.5,273.5,331.5,266.0,339.5,258.5,348.0,250.5" stroke="black" stroke-width="2" fill="none" />
<polyline points="339.5,252.5,331.5,260.0,323.5,267.5,315.5,275.0,307.0,282.5,299.0,290.0,291.0,297.0,282.5,304.0,274.5,311.5,266.5,319.5,259.0,327.0,251.0,334.5" stroke="black" stroke-width="2" fill="none" />
<polyline points="244.5,334.0,253.0,326.5,261.0,319.5,268.5,312.0,276.0,304.0,283.0,295.5,290.5,287.5,298.0,280.5,306.5,273.5,314.5,266.0,322.0,259.0,329.5,251.5" stroke="black" stroke-width="2" fill="none" />
<polyline points="314.5,257.0,322.0,256.5,330.0,256.0,338.5,255.5,347.0,256.0,355.5,255.5" stroke="black" stroke-width="2" fill="none" />
<polyline points="363.0,249.0,371.0,248.5" stroke="black" stroke-width="2" fill="none" />
<polyline points="373.0,242.5,365.0,250.5,356.5,257.5,348.0,265.0,340.0,272.0,332.0,279.5,324.0,287.0,316.0,295.0,308.0,302.0,300.0,309.5,292.0,316.5,284.0,324.5,275.5,331.5" stroke="black" stroke-width="2" fill="none" />
<polyline points="266.5,333.5,275.0,326.0,283.0,318.0,291.0,310.5,299.0,302.5,307.5,295.0,316.0,287.0,324.5,279.5,332.5,272.0,341.0,264.5,348.5,257.5,356.0,250.0,363.5,242.0,371.5,234.5" stroke="black" stroke-width="2" fill="none" />
<polyline points="372.0,230.5,363.5,231.5" stroke="black" stroke-width="2" fill="none" />
<polyline points="363.5,228.5,371.5,221.0" stroke="black" stroke-width="2" fill="none" />
<polyline points="371.0,222.5,362.5,223.0" stroke="black" stroke-width="2" fill="none" />
<polyline points="355.5,211.0,362.5,203.5" stroke="black" stroke-width="2" fill="none" />
<polyline points="363.5,210.5,356.0,210.5" stroke="black" stroke-width="2" fill="none" />
<polyline points="355.5,207.5,363.5,207.0" stroke="black" stroke-width="2" fill="none" />
<polyline points="356.5,195.0,348.5,202.5" stroke="black" stroke-width="2" fill="none" />
<polyline points="347.0,195.5,339.0,203.0" stroke="black" stroke-width="2" fill="none" />
<polyline points="340.0,202.0,348.0,202.0" stroke="black" stroke-width="2" fill="none" />
<polyline points="331.5,209.5,323.5,217.5,315.0,225.0,307.0,233.0,299.0,240.0,291.0,247.5,283.0,255.0,275.0,263.0,267.0,270.5,258.5,278.5,250.0,285.5,242.5,293.0,234.5,300.0,227.0,308.0,219.5,315.5" stroke="black" stroke-width="2" fill="none" />
<polyline points="212.5,318.5,220.5,311.0,228.5,303.5,236.5,296.0,244.0,289.0,252.0,281.5,260.0,274.5,268.0,267.0,276.0,259.5,284.0,251.5" stroke="black" stroke-width="2" fill="none" />
<polyline points="290.0,258.5,282.0,266.0,274.0,273.5,266.5,281.0,259.0,289.0,250.5,297.5,243.0,305.0,235.5,312.5,227.5,320.0" stroke="black" stroke-width="2" fill="none" />
<polyline points="227.0,326.0,235.0,325.5,243.5,325.5,251.5,324.5,259.5,324.0,267.5,323.5,275.5,323.0,284.0,323.0,292.5,322.5,301.0,321.5" stroke="black" stroke-width="2" fill="none" />
<polyline points="306.0,325.5,314.0,325.0,323.0,324.5,331.5,323.5,339.5,323.0,348.0,322.5,356.5,322.0,364.5,321.5,372.0,321.0,380.0,320.0,388.0,319.5,396.0,319.0,404.0,318.5,411.5,317.5,419.5,317.0,427.0,316.5,434.5,315.5,442.5,314.5,450.0,314.0,458.0,313.5,466.0,312.5,474.0,312.5,482.0,312.0,490.0,312.0,498.5,311.5,507.0,311.0,515.0,310.5" stroke="black" stroke-width="2" fill="none" />
<polyline points="514.0,245.5,506.0,245.5,498.0,246.0" stroke="black" stroke-width="2" fill="none" />
<polyline points="499.5,237.5,507.0,237.0,515.0,236.5" stroke="black" stroke-width="2" fill="none" />
<polyline points="508.0,225.5,516.0,218.0" stroke="black" stroke-width="2" fill="none" />
<polyline points="506.5,202.0,514.0,194.5" stroke="black" stroke-width="2" fill="none" />
<polyline points="514.5,187.5,506.5,194.5,498.5,202.0" stroke="black" stroke-width="2" fill="none" />
<polyline points="492.5,200.5,500.5,200.0,508.0,199.5,515.5,199.0" stroke="black" stroke-width="2" fill="none" />
<polyline points="507.0,187.0,499.0,194.5,491.0,202.0" stroke="black" stroke-width="2" fill="none" />
<polyline points="490.5,194.5,498.0,187.0" stroke="black" stroke-width="2" fill="none" />
<polyline points="500.0,193.0,507.5,192.5,515.5,192.0" stroke="black" stroke-width="2" fill="none" />
<polyline points="508.5,179.5,501.0,180.5,493.0,181.0" stroke="black" stroke-width="2" fill="none" />
<polyline points="484.0,197.5,491.5,197.0,499.0,197.0,507.0,196.5,515.0,196.0" stroke="black" stroke-width="2" fill="none" />
<polyline points="515.0,227.0,507.0,227.5,498.5,228.5,490.5,229.0" stroke="black" stroke-width="2" fill="none" />
<polyline points="476.5,222.5,484.0,222.0,491.5,221.5,499.5,221.0,507.5,220.5,515.5,220.0" stroke="black" stroke-width="2" fill="none" />
<polyline points="516.5,213.0,508.5,213.0,500.5,213.0,492.5,213.0,484.5,213.5,476.5,214.5" stroke="black" stroke-width="2" fill="none" />
<polyline points="473.5,205.5,481.5,204.5,490.0,204.0,498.5,204.0,507.0,203.5,515.5,203.0" stroke="black" stroke-width="2" fill="none" />
<polyline points="508.0,141.0,516.0,140.5" stroke="black" stroke-width="2" fill="none" />
<polyline points="516.0,131.0,508.5,132.0,501.0,132.5" stroke="black" stroke-width="2" fill="none" />
<polyline points="515.5,155.5,507.0,155.5,498.5,155.5,490.5,156.0,482.5,156.5,474.5,156.5,466.5,157.0,458.5,157.0" stroke="black" stroke-width="2" fill="none" />
<polyline points="451.0,159.0,443.5,159.5" stroke="black" stroke-width="2" fill="none" />
<polyline points="433.5,141.5,425.5,142.0" stroke="black" stroke-width="2" fill="none" />
<polyline points="413.0,156.5,405.0,157.5" stroke="black" stroke-width="2" fill="none" />
<polyline points="404.0,164.5,412.0,164.0,420.0,163.5,427.5,162.5,435.5,162.0,443.0,161.5" stroke="black" stroke-width="2" fill="none" />
<polyline points="453.0,189.5,461.0,189.5,469.0,188.5,477.0,188.5,484.5,188.0,492.0,188.0,500.0,187.5,508.0,187.0,516.0,187.0" stroke="black" stroke-width="2" fill="none" />
<polyline points="467.5,229.0,460.5,229.0,452.5,229.5" stroke="black" stroke-width="2" fill="none" />
<polyline points="441.5,238.5,433.0,239.0,425.5,239.5" stroke="black" stroke-width="2" fill="none" />
<polyline points="409.5,251.0,417.5,251.0,425.5,251.0,434.0,251.0,442.0,251.0,450.5,251.0,458.5,251.0,466.5,250.5,475.0,250.5,483.0,250.5,491.5,250.0,499.5,249.5,507.5,248.5" stroke="black" stroke-width="2" fill="none" />
<polyline points="444.0,185.5,436.0,186.0,428.0,186.5,419.5,187.0,411.5,188.0,403.5,189.0" stroke="black" stroke-width="2" fill="none" />
<polyline points="395.5,245.5,404.0,245.0,411.5,244.0,419.5,244.0,427.5,243.0,435.0,242.5,443.0,242.5,450.5,242.0,458.0,241.5,466.5,241.0,475.0,240.5,483.0,240.0,491.5,239.5" stroke="black" stroke-width="2" fill="none" />
<polyline points="516.5,252.5,508.5,253.5,500.5,255.0,493.0,255.5,485.0,256.5,477.0,257.0,468.5,257.5,460.0,258.5,452.0,258.5,444.0,259.0,436.0,259.5,428.0,260.0,420.0,260.0,411.0,260.0,403.0,259.5,394.5,260.0,386.0,260.5,377.5,261.0" stroke="black" stroke-width="2" fill="none" />
<polyline points="380.0,255.0,388.0,254.5" stroke="black" stroke-width="2" fill="none" />
<polyline points="370.5,243.5,362.0,244.0" stroke="black" stroke-width="2" fill="none" />
<polyline points="356.5,267.5,348.0,275.0,340.0,283.0,331.5,290.5,323.5,298.0" stroke="black" stroke-width="2" fill="none" />
<polyline points="322.5,305.5,330.5,304.5" stroke="black" stroke-width="2" fill="none" />
<polyline points="331.5,308.5,323.0,315.5,314.5,322.5" stroke="black" stroke-width="2" fill="none" />
<polyline points="309.0,324.0,316.5,316.5" stroke="black" stroke-width="2" fill="none" />
<polyline points="316.0,308.0,308.0,315.5,300.5,323.0,292.0,330.0,283.5,337.0" stroke="black" stroke-width="2" fill="none" />
<polyline points="290.0,339.5,297.5,332.0" stroke="black" stroke-width="2" fill="none" />
<polyline points="300.0,338.5,308.5,331.5" stroke="black" stroke-width="2" fill="none" />
<polyline points="315.5,329.0,323.5,321.5,331.0,314.5,339.0,306.5,347.0,299.0,355.5,291.5,363.5,284.5" stroke="black" stroke-width="2" fill="none" />
<polyline points="364.0,290.5,372.0,283.0" stroke="black" stroke-width="2" fill="none" />
<polyline points="372.5,292.0,364.5,299.5" stroke="black" stroke-width="2" fill="none" />
<polyline points="362.0,300.0,369.5,299.5,377.5,299.0,386.0,299.0,394.0,298.5,401.5,298.5,409.5,298.5,417.5,298.5,425.0,298.0,433.0,297.0,441.0,296.5,449.0,296.0,457.5,296.0,465.5,296.0,473.5,296.5,482.5,296.0,490.5,296.0,499.5,295.0,507.5,294.0,516.0,293.0" stroke="black" stroke-width="2" fill="none" />
<polyline points="372.0,298.5,364.0,306.0" stroke="black" stroke-width="2" fill="none" />
<polyline points="363.5,310.0,371.0,309.5,379.0,309.5,386.5,308.5,394.0,307.5,402.0,306.5,409.5,306.5,417.0,306.5,425.0,306.0,433.0,305.5,441.0,305.0,449.0,304.5,457.5,304.5,466.0,304.0,474.5,303.0,482.5,302.5,490.5,302.0,499.0,301.0,507.0,300.0,515.5,299.5" stroke="black" stroke-width="2" fill="none" />
<polyline points="372.0,306.5,364.0,314.0" stroke="black" stroke-width="2" fill="none" />
<polyline points="355.5,313.5,347.5,321.5,339.5,329.5" stroke="black" stroke-width="2" fill="none" />
<polyline points="340.0,324.5,332.0,331.5" stroke="black" stroke-width="2" fill="none" />
<polyline points="330.0,328.0,338.5,328.0" stroke="black" stroke-width="2" fill="none" />
<polyline points="347.0,331.0,354.5,323.5" stroke="black" stroke-width="2" fill="none" />
<polyline points="355.5,321.5,347.5,322.5" stroke="black" stroke-width="2" fill="none" />
<polyline points="347.0,313.5,355.0,305.5" stroke="black" stroke-width="2" fill="none" />
<polyline points="355.0,299.5,347.0,307.0,339.0,314.0,331.0,322.0,323.0,330.0" stroke="black" stroke-width="2" fill="none" />
<polyline points="330.0,313.0,338.5,313.0,346.5,313.0" stroke="black" stroke-width="2" fill="none" />
<polyline points="349.0,304.0,341.0,304.5" stroke="black" stroke-width="2" fill="none" />
<polyline points="340.0,298.5,348.0,291.5,356.0,284.0,364.5,276.5" stroke="black" stroke-width="2" fill="none" />
<polyline points="362.5,270.5,370.5,269.5,378.5,269.5,386.5,269.0,395.5,268.0,403.5,267.0,412.0,266.0,420.0,265.0,428.0,264.5,436.0,264.5,444.0,264.0,452.0,263.5,460.5,262.5,468.5,262.0,476.5,261.5,484.5,260.5,492.0,260.5,500.0,260.0,508.0,259.5,516.0,258.5" stroke="black" stroke-width="2" fill="none" />
<polyline points="467.5,116.5,459.0,117.0,451.0,118.0,443.0,118.5" stroke="black" stroke-width="2" fill="none" />
<polyline points="420.0,116.5,412.5,116.5,404.5,117.5" stroke="black" stroke-width="2" fill="none" />
<polyline points="363.5,102.0,356.0,102.0" stroke="black" stroke-width="2" fill="none" />
<polyline points="324.5,163.0,316.5,170.5" stroke="black" stroke-width="2" fill="none" />
<polyline points="315.0,169.0,323.0,168.5" stroke="black" stroke-width="2" fill="none" />
<polyline points="314.5,162.5,306.5,170.0,298.5,178.5" stroke="black" stroke-width="2" fill="none" />
<polyline points="292.5,172.5,284.5,179.5,276.0,187.0" stroke="black" stroke-width="2" fill="none" />
<polyline points="273.0,189.0,281.0,188.5" stroke="black" stroke-width="2" fill="none" />
<polyline points="283.5,186.5,291.5,186.0" stroke="black" stroke-width="2" fill="none" />
<polyline points="290.0,177.0,298.0,176.5,305.5,176.0" stroke="black" stroke-width="2" fill="none" />
<polyline points="306.5,164.5,298.5,171.5,290.5,179.0,282.5,186.5,274.5,194.5,267.0,202.5,259.0,209.5,250.5,217.0,243.0,224.5" stroke="black" stroke-width="2" fill="none" />
<polyline points="242.5,228.5,250.5,228.0,259.0,228.0,267.0,228.0,275.0,227.5,283.0,227.5,291.0,226.5,299.0,226.0,306.5,225.0,314.5,224.0,322.0,223.0,330.5,223.0,338.0,223.0,346.0,223.0" stroke="black" stroke-width="2" fill="none" />
<polyline points="323.5,210.5,315.5,218.0,307.0,225.5,298.5,233.0" stroke="black" stroke-width="2" fill="none" />
<polyline points="300.5,232.5,308.5,232.0,316.0,232.5,324.5,232.5,332.5,232.0,340.5,231.5,348.0,231.5" stroke="black" stroke-width="2" fill="none" />
<polyline points="346.0,215.5,337.5,215.5,329.5,216.0,321.5,216.5,313.5,216.0" stroke="black" stroke-width="2" fill="none" />
<polyline points="313.0,205.5,321.5,204.5,329.5,204.0,337.5,203.5,345.0,203.5" stroke="black" stroke-width="2" fill="none" />
<polyline points="330.0,197.5,337.5,197.5,346.0,196.5,354.5,196.0,362.5,195.5,371.0,195.0" stroke="black" stroke-width="2" fill="none" />
<polyline points="322.0,184.5,314.0,192.5" stroke="black" stroke-width="2" fill="none" />
<polyline points="314.5,194.0,322.5,193.5" stroke="black" stroke-width="2" fill="none" />
<polyline points="325.0,189.5,317.0,190.0" stroke="black" stroke-width="2" fill="none" />
<polyline points="307.5,196.5,300.0,204.0,292.0,211.5,284.0,218.5" stroke="black" stroke-width="2" fill="none" />
<polyline points="284.5,221.5,292.5,221.5,300.0,221.0,307.5,220.5,315.5,220.0,323.0,219.5,330.5,219.5,338.0,219.0,346.0,219.0" stroke="black" stroke-width="2" fill="none" />
<polyline points="370.0,232.5,362.0,233.0,354.5,233.0,347.5,233.0,339.5,233.5,332.0,234.0,324.0,235.5,316.0,236.5,308.5,237.0,301.0,237.0" stroke="black" stroke-width="2" fill="none" />
<polyline points="291.0,236.0,283.0,243.0" stroke="black" stroke-width="2" fill="none" />
<polyline points="283.5,241.0,291.5,240.0" stroke="black" stroke-width="2" fill="none" />
<polyline points="294.0,250.0,302.0,249.0" stroke="black" stroke-width="2" fill="none" />
<polyline points="298.5,259.0,290.5,266.5,282.5,273.5,274.5,281.5,267.0,289.0,259.5,297.0,251.5,304.5,243.5,312.5,236.0,320.0,228.0,328.0,220.5,335.5" stroke="black" stroke-width="2" fill="none" />
<polyline points="220.5,331.5,212.5,339.0" stroke="black" stroke-width="2" fill="none" />
<polyline points="204.5,338.0,213.0,337.5,220.5,337.0,228.0,336.5" stroke="black" stroke-width="2" fill="none" />
<polyline points="229.0,333.5,237.0,326.0,245.0,318.5,253.0,311.5,261.0,304.5,268.5,297.5,277.0,290.5,285.0,283.0,293.5,276.0,301.5,268.5,310.0,261.0" stroke="black" stroke-width="2" fill="none" />
<polyline points="273.0,252.0,265.0,259.0,257.5,266.5,250.0,273.5,243.0,281.0,235.5,288.5,227.0,295.5,219.0,303.0,211.0,310.5" stroke="black" stroke-width="2" fill="none" />
<polyline points="210.5,316.5,219.0,316.5,227.0,316.0,235.0,315.0,243.0,313.5,251.5,313.0,259.5,312.5,268.0,312.5,276.5,312.5,284.5,312.5,293.0,312.0,300.5,312.0,308.0,311.5,316.0,310.5,324.0,309.0,331.5,308.5,339.5,308.0,346.5,308.0,354.0,308.0,362.0,307.5,369.5,307.0,378.0,306.5,386.5,306.0,395.0,305.5,403.0,306.0,412.0,306.0,420.0,306.0,428.0,305.5,436.0,305.0,444.0,304.5,452.0,304.5,460.5,303.5,469.0,303.0,477.0,302.5,485.0,301.5,492.5,301.0,500.5,299.5,508.5,298.5,516.0,297.5" stroke="black" stroke-width="2" fill="none" />
<polyline points="514.5,323.0,507.0,324.0,498.5,325.0,490.5,325.5,483.0,326.0,475.0,327.0,466.5,327.5,458.0,328.0,449.5,328.0,441.5,328.5,434.0,329.5,426.0,330.0,418.5,331.0,410.5,332.0,403.5,332.5,395.5,333.5,388.0,334.0,380.0,335.0,372.0,335.5" stroke="black" stroke-width="2" fill="none" />
<polyline points="370.0,297.0,362.0,297.5" stroke="black" stroke-width="2" fill="none" />
<polyline points="362.5,295.5,370.5,295.0,379.0,294.5,387.0,293.5,395.0,292.5,403.0,292.0,411.5,291.5,420.0,290.5,428.5,290.0,437.0,289.0,444.5,288.0,453.0,287.0,460.5,286.5,468.5,285.5,476.5,284.5,484.5,284.0,492.0,283.5,500.0,283.5,507.5,283.0,515.5,282.5" stroke="black" stroke-width="2" fill="none" />
<polyline points="354.0,276.0,347.0,283.5,339.5,291.0,332.0,298.5,324.5,306.5" stroke="black" stroke-width="2" fill="none" />
<polyline points="314.5,314.0,306.5,314.0" stroke="black" stroke-width="2" fill="none" />
<polyline points="275.5,322.5,267.5,323.0,259.5,323.5" stroke="black" stroke-width="2" fill="none" />
<polyline points="245.0,320.0,237.0,320.5" stroke="black" stroke-width="2" fill="none" />
<polyline points="236.0,328.5,228.0,328.5" stroke="black" stroke-width="2" fill="none" />
<polyline points="210.5,329.5,202.5,337.0" stroke="black" stroke-width="2" fill="none" />
<polyline points="203.5,333.5,211.5,332.5,220.0,331.5,227.5,330.5,235.0,330.0,243.5,329.5,252.0,329.0,260.5,329.0,268.5,329.0,276.5,329.0,284.5,328.5,292.5,328.5,300.0,328.0,307.5,327.5,315.5,327.0,323.0,326.5,330.5,326.5,338.0,326.0,346.0,326.0,354.0,326.0" stroke="black" stroke-width="2" fill="none" />
<polyline points="355.0,261.5,346.5,262.0,338.5,262.0,330.0,262.5,322.0,262.5,314.5,262.5,306.0,263.0,298.0,263.5,289.5,264.0,281.5,264.5,274.0,264.5,266.5,264.5" stroke="black" stroke-width="2" fill="none" />
<polyline points="268.0,250.0,260.5,250.5" stroke="black" stroke-width="2" fill="none" />
<polyline points="260.5,242.0,252.5,250.5,243.5,258.0,235.0,266.0,227.0,273.0,219.0,280.0,211.0,287.5,203.0,295.0,195.5,302.0" stroke="black" stroke-width="2" fill="none" />
<polyline points="195.5,308.5,203.5,308.5,211.5,308.5,219.0,309.0,227.0,308.5,234.0,308.5,242.5,308.0,251.0,307.5,259.0,307.5,267.5,307.0,275.5,306.5,283.5,306.0,291.5,305.5,299.0,305.0,307.0,304.0,315.5,303.5,323.5,303.0,331.0,303.0,339.5,302.5,347.5,302.0,355.5,301.5" stroke="black" stroke-width="2" fill="none" />
<polyline points="289.5,228.5,281.5,235.5" stroke="black" stroke-width="2" fill="none" />
<polyline points="274.0,234.0,282.0,226.5" stroke="black" stroke-width="2" fill="none" />
<polyline points="274.0,229.0,266.5,236.5" stroke="black" stroke-width="2" fill="none" />
<polyline points="269.0,243.5,261.0,251.0,253.0,258.0,245.5,265.0,237.0,273.0,228.5,280.5,220.5,288.0,212.0,295.5,204.0,303.5,196.0,311.5" stroke="black" stroke-width="2" fill="none" />
<polyline points="192.5,313.0,200.5,312.5,209.0,312.5,217.5,312.0,225.5,311.5,234.0,311.5,242.0,311.0,250.0,310.5,258.0,309.5,266.5,309.0,274.5,307.5,282.5,307.5" stroke="black" stroke-width="2" fill="none" />
<polyline points="272.0,244.0,264.5,251.5,257.0,258.5,249.5,265.5,242.5,273.0,235.0,281.0,226.5,288.5,218.5,296.0,210.5,303.5,202.0,311.0" stroke="black" stroke-width="2" fill="none" />
<polyline points="212.5,319.5,220.5,319.0" stroke="black" stroke-width="2" fill="none" />
<polyline points="186.5,323.0,179.0,330.5" stroke="black" stroke-width="2" fill="none" />
<polyline points="179.0,317.5,171.0,325.0,163.0,332.0" stroke="black" stroke-width="2" fill="none" />
<polyline points="163.0,337.0,170.5,329.5,178.0,322.0,185.5,314.5" stroke="black" stroke-width="2" fill="none" />
<polyline points="182.0,307.5,190.0,306.5,197.5,305.5,205.5,304.5,213.5,304.0,221.5,303.5,229.5,303.0,237.0,302.5,245.0,302.0,253.0,302.0,261.0,301.5,268.5,300.5,276.5,299.5,284.0,299.0,292.0,298.5,299.5,298.0,307.0,297.0,315.0,296.5" stroke="black" stroke-width="2" fill="none" />
<polyline points="251.5,241.0,259.5,233.5,267.0,226.0,274.0,218.5,282.0,211.0,290.0,203.5,297.5,195.5" stroke="black" stroke-width="2" fill="none" />
<polyline points="292.0,195.5,284.0,203.0,276.0,210.5,268.0,218.5,260.0,226.5,252.0,234.0,244.0,241.5,235.5,248.5" stroke="black" stroke-width="2" fill="none" />
<polyline points="236.0,241.5,244.5,241.0,252.5,241.0,260.5,240.5" stroke="black" stroke-width="2" fill="none" />
<polyline points="242.0,231.5,250.5,231.5,259.0,231.5,267.0,231.0,275.5,230.5,283.0,230.5" stroke="black" stroke-width="2" fill="none" />
<polyline points="282.5,200.5,274.5,200.5,266.5,200.5" stroke="black" stroke-width="2" fill="none" />
<polyline points="267.0,194.5,259.0,201.5,251.0,209.5,243.0,217.5,234.5,225.5,226.5,233.0" stroke="black" stroke-width="2" fill="none" />
<polyline points="227.5,235.5,235.5,235.0" stroke="black" stroke-width="2" fill="none" />
<polyline points="236.0,237.5,244.0,237.5,252.0,236.5,260.0,236.0,267.0,235.5,274.5,235.0,282.0,234.5,290.0,233.5" stroke="black" stroke-width="2" fill="none" />
<polyline points="283.5,195.0,275.5,202.5,267.5,210.0,259.5,218.0,251.5,225.5,243.5,233.0,236.0,240.5,228.5,247.5,220.5,255.0,212.0,262.0,204.0,269.5,195.5,277.5,187.5,285.0,179.5,292.5,172.0,299.5" stroke="black" stroke-width="2" fill="none" />
<polyline points="170.0,296.0,178.0,288.0,186.0,281.0,194.5,273.0,203.0,265.0,211.5,257.5,219.5,250.0,227.0,242.5" stroke="black" stroke-width="2" fill="none" />
<polyline points="221.5,244.0,213.5,251.5,205.5,259.0,197.5,267.0,189.5,274.5" stroke="black" stroke-width="2" fill="none" />
<polyline points="179.0,274.0,187.0,266.0,195.5,258.5,203.5,251.0" stroke="black" stroke-width="2" fill="none" />
<polyline points="203.0,245.5,211.0,244.5,219.0,244.0,227.0,243.5,235.0,243.5,243.0,243.5,251.0,243.5,259.5,243.0,268.0,242.0,275.5,241.5,283.5,241.5,291.5,241.0,299.5,240.0,307.5,239.0,315.0,238.0,323.0,237.5,330.5,237.5,338.5,237.5,346.5,237.0,354.5,236.5,362.5,236.5,370.5,235.5" stroke="black" stroke-width="2" fill="none" />
<polyline points="308.5,173.0,301.0,174.0,293.0,175.0,285.0,175.5" stroke="black" stroke-width="2" fill="none" />
<polyline points="275.0,180.0,267.0,187.5,259.5,195.0" stroke="black" stroke-width="2" fill="none" />
<polyline points="250.0,192.5,258.0,185.5,266.5,178.5" stroke="black" stroke-width="2" fill="none" />
<polyline points="259.5,179.0,251.5,186.5,243.5,194.0" stroke="black" stroke-width="2" fill="none" />
<polyline points="235.5,192.5,243.5,185.5,251.5,177.5,259.5,169.5,267.5,162.0" stroke="black" stroke-width="2" fill="none" />
<polyline points="258.5,162.0,250.5,169.5,242.0,176.5,234.0,184.0,226.0,192.0" stroke="black" stroke-width="2" fill="none" />
<polyline points="228.0,205.5,220.5,212.5,212.5,219.5" stroke="black" stroke-width="2" fill="none" />
<polyline points="218.5,219.0,226.0,211.0,234.0,203.5" stroke="black" stroke-width="2" fill="none" />
<polyline points="243.0,203.0,235.0,210.5,226.5,218.0" stroke="black" stroke-width="2" fill="none" />
<polyline points="235.0,219.0,243.0,211.5,250.5,204.5" stroke="black" stroke-width="2" fill="none" />
<polyline points="261.5,223.0,254.0,223.5,246.0,224.0,238.0,224.5" stroke="black" stroke-width="2" fill="none" />
<polyline points="228.5,229.5,220.5,236.5" stroke="black" stroke-width="2" fill="none" />
<polyline points="222.0,229.0,213.5,237.0,205.0,244.0" stroke="black" stroke-width="2" fill="none" />
<polyline points="202.5,236.0,194.0,243.5" stroke="black" stroke-width="2" fill="none" />
<polyline points="197.5,245.0,189.5,246.0" stroke="black" stroke-width="2" fill="none" />
<polyline points="188.0,243.0,196.0,235.0" stroke="black" stroke-width="2" fill="none" />
<polyline points="196.0,228.5,188.0,236.5,180.0,244.0,172.0,251.0,164.0,258.5,156.0,266.0,147.5,272.5,140.0,279.5,132.0,286.5,124.0,294.0,116.5,301.0,108.5,309.5" stroke="black" stroke-width="2" fill="none" />
<polyline points="107.0,312.5,115.0,312.0,123.0,312.0,131.0,311.5,139.0,311.0" stroke="black" stroke-width="2" fill="none" />
<polyline points="141.5,313.5,149.0,305.5,157.0,297.5,165.0,290.0,173.0,282.5" stroke="black" stroke-width="2" fill="none" />
<polyline points="182.0,284.0,174.0,291.5,166.0,299.0,157.5,306.5,148.5,313.5,140.0,320.5,131.5,328.0,122.5,335.5" stroke="black" stroke-width="2" fill="none" />
<polyline points="114.5,338.5,122.0,330.5,130.0,323.5" stroke="black" stroke-width="2" fill="none" />
<polyline points="140.5,321.0,148.5,320.5" stroke="black" stroke-width="2" fill="none" />
<polyline points="155.0,327.0,163.0,319.0,170.5,312.0,178.0,305.0,186.0,297.5,194.0,289.0,201.5,281.0,209.0,272.5,217.5,265.0,225.5,257.5" stroke="black" stroke-width="2" fill="none" />
<polyline points="227.5,258.0,219.0,258.5" stroke="black" stroke-width="2" fill="none" />
<polyline points="210.5,251.0,218.5,250.0,226.5,249.5,235.0,248.5" stroke="black" stroke-width="2" fill="none" />
<polyline points="243.0,252.0,235.0,259.5,227.0,267.0,219.5,274.0,212.0,281.0,204.5,288.5,196.0,296.0,188.5,304.0" stroke="black" stroke-width="2" fill="none" />
<polyline points="196.0,283.5,204.0,283.0,212.0,283.0,220.0,282.5,229.0,281.5,237.5,280.5,245.0,280.0,252.5,279.5,260.5,279.0,268.5,278.0,276.5,277.5,284.0,277.0,291.5,276.5,299.5,276.0,307.5,275.5,315.5,274.5,323.5,273.5,332.0,273.0,340.0,273.0,347.5,272.5,356.0,272.0,363.5,272.0" stroke="black" stroke-width="2" fill="none" />
<polyline points="283.0,193.0,275.0,193.5" stroke="black" stroke-width="2" fill="none" />
<polyline points="274.5,170.5,282.5,162.5" stroke="black" stroke-width="2" fill="none" />
<polyline points="277.0,163.5,269.0,171.0" stroke="black" stroke-width="2" fill="none" />
<polyline points="261.0,170.0,268.5,169.5,276.5,169.5,284.5,169.5" stroke="black" stroke-width="2" fill="none" />
<polyline points="249.0,164.5,241.5,172.0,234.0,179.5,226.0,187.0,219.0,194.0,211.5,201.5,204.0,209.5" stroke="black" stroke-width="2" fill="none" />
<polyline points="202.5,210.5,210.5,210.0,219.0,209.5,227.0,209.0,234.5,208.0,243.0,207.5,250.5,207.0" stroke="black" stroke-width="2" fill="none" />
<polyline points="229.5,176.0,222.0,176.5" stroke="black" stroke-width="2" fill="none" />
<polyline points="220.5,186.5,212.5,187.0" stroke="black" stroke-width="2" fill="none" />
<polyline points="212.5,177.5,204.5,178.0,196.5,178.5" stroke="black" stroke-width="2" fill="none" />
<polyline points="195.5,169.5,204.0,169.0" stroke="black" stroke-width="2" fill="none" />
<polyline points="196.0,149.0,188.0,156.5,180.0,163.5,172.0,170.5,164.0,177.0,156.0,184.5,147.5,192.0" stroke="black" stroke-width="2" fill="none" />
<polyline points="139.5,176.0,147.5,176.0,155.5,176.0" stroke="black" stroke-width="2" fill="none" />
<polyline points="156.5,162.5,164.0,161.5,171.5,161.0,179.0,160.0,187.0,159.5,194.5,158.5" stroke="black" stroke-width="2" fill="none" />
<polyline points="188.5,153.0,181.0,154.0" stroke="black" stroke-width="2" fill="none" />
<polyline points="178.0,139.5,170.0,147.0,161.5,154.5,154.0,162.0,147.0,169.0,139.5,176.5,131.0,184.0,123.5,191.0,115.5,198.5" stroke="black" stroke-width="2" fill="none" />
<polyline points="109.0,201.0,116.5,193.5,123.5,186.0,131.0,179.0,139.0,171.5,147.5,163.5,155.5,156.0,163.0,148.5,171.5,140.5" stroke="black" stroke-width="2" fill="none" />
<polyline points="179.5,130.5,188.0,123.0,196.5,116.0" stroke="black" stroke-width="2" fill="none" />
<polyline points="204.0,115.0,195.5,122.5,187.5,129.5" stroke="black" stroke-width="2" fill="none" />
<polyline points="189.5,135.0,197.5,134.0,205.0,133.0,213.0,132.5,221.0,132.0" stroke="black" stroke-width="2" fill="none" />
<polyline points="228.5,149.0,220.5,156.0,212.5,163.0,204.5,170.5,196.0,178.0,188.0,185.0,179.5,193.0,170.5,201.0" stroke="black" stroke-width="2" fill="none" />
<polyline points="172.0,187.5,180.0,187.0" stroke="black" stroke-width="2" fill="none" />
<polyline points="193.0,192.5,201.0,185.5,209.5,178.0,217.5,170.5,225.5,163.0,233.0,155.5" stroke="black" stroke-width="2" fill="none" />
<polyline points="204.0,206.5,211.5,206.0,219.0,205.5,226.5,205.0,234.5,204.5,242.0,204.0,250.0,203.5,258.0,202.5,265.5,201.5,273.5,200.5,281.0,200.0,289.0,199.5,297.5,199.5" stroke="black" stroke-width="2" fill="none" />
<polyline points="268.0,255.5,260.0,256.0,252.5,256.5,244.5,257.5,237.0,258.5" stroke="black" stroke-width="2" fill="none" />
<polyline points="228.5,266.0,236.5,265.0,244.0,265.0,252.0,264.5,260.0,263.5" stroke="black" stroke-width="2" fill="none" />
<polyline points="211.5,275.0,219.0,274.0,227.0,272.5,235.0,271.5,243.0,270.5,251.0,269.5,259.5,269.0,268.0,269.0,276.5,268.5,285.0,268.0,292.5,267.5,300.5,267.0,308.0,267.5,316.5,267.5,324.5,267.0,332.5,266.5,340.0,266.5,348.0,266.5,356.0,266.0" stroke="black" stroke-width="2" fill="none" />
<polyline points="236.5,229.0,228.5,230.0,220.0,230.5,212.0,231.0" stroke="black" stroke-width="2" fill="none" />
<polyline points="196.5,250.0,188.5,257.0,180.5,264.5,172.5,272.0,164.0,280.0,155.0,288.0,147.0,295.0,139.0,302.0,131.0,309.5,122.5,317.5,114.5,325.5,106.0,332.5" stroke="black" stroke-width="2" fill="none" />
<polyline points="99.0,334.5,107.0,327.0,115.0,319.5,122.0,312.0,129.5,304.0,137.5,296.5,145.5,288.5,153.5,281.0,162.0,273.5,170.5,265.5,178.0,258.0,185.5,250.5" stroke="black" stroke-width="2" fill="none" />
<polyline points="179.0,251.5,171.0,259.5,162.5,266.5,154.5,273.5,146.5,280.5,138.5,288.5,130.0,295.5,122.0,303.5,114.0,311.0,106.0,318.5,98.0,326.5,90.0,333.5" stroke="black" stroke-width="2" fill="none" />
<polyline points="74.5,335.5,82.5,328.0,90.5,320.5,98.5,313.0,106.5,305.5,114.5,298.5,123.0,291.0,131.0,283.5,139.0,276.0" stroke="black" stroke-width="2" fill="none" />
<polyline points="130.5,273.5,122.5,281.5,115.0,289.5,107.5,297.0,99.5,304.5,92.5,312.0,84.5,320.0,77.0,327.5,69.5,335.5" stroke="black" stroke-width="2" fill="none" />
<polyline points="61.5,333.5,69.5,326.0,77.5,318.0,85.5,310.5,93.5,303.0,101.0,295.5,109.0,288.5,117.0,281.0,124.5,273.5,132.0,266.0,140.0,258.5,147.5,251.0,155.5,243.0,163.0,235.5,171.0,228.0" stroke="black" stroke-width="2" fill="none" />
<polyline points="163.0,227.5,155.0,235.0,146.5,243.0,138.5,250.5,131.0,258.0,123.0,265.0,114.5,272.0,106.5,279.0,98.5,286.0,90.5,293.5,82.5,300.5,74.5,308.0,66.5,316.0,58.0,323.5,50.0,330.5" stroke="black" stroke-width="2" fill="none" />
<polyline points="44.0,334.0,52.0,327.0,60.0,319.5,68.0,311.5,76.0,304.5,84.0,297.0,91.5,289.5,99.0,282.0,105.5,275.0,114.0,267.0,122.5,259.5,130.5,252.0,138.5,244.0,146.5,237.0" stroke="black" stroke-width="2" fill="none" />
<polyline points="139.5,240.5,147.5,240.0,156.5,240.0,164.5,240.0,172.5,240.0,181.0,239.5,188.5,239.0,196.0,238.0,203.0,237.5,210.5,237.0" stroke="black" stroke-width="2" fill="none" />
<polyline points="186.5,229.0,178.0,236.5,169.5,243.5,161.5,250.5,153.0,257.0,145.5,263.5" stroke="black" stroke-width="2" fill="none" />
<polyline points="146.5,260.0,139.0,267.0" stroke="black" stroke-width="2" fill="none" />
<polyline points="155.5,272.0,164.0,272.0,172.0,271.5" stroke="black" stroke-width="2" fill="none" />
<polyline points="181.5,265.5,189.5,265.5" stroke="black" stroke-width="2" fill="none" />
<polyline points="189.5,259.0,197.0,258.0,205.0,257.5" stroke="black" stroke-width="2" fill="none" />
<polyline points="196.5,265.5,204.5,265.5,213.0,265.0,221.0,264.0" stroke="black" stroke-width="2" fill="none" />
<polyline points="179.0,226.5,170.5,234.0,162.5,241.0,154.5,248.5" stroke="black" stroke-width="2" fill="none" />
<polyline points="156.0,252.5,164.0,252.0,172.0,251.5,179.5,251.0,187.0,250.5,195.0,250.5,202.5,250.0,210.5,249.5,218.5,249.0,226.5,248.0,234.5,247.5,243.0,247.5,251.0,247.0,259.0,246.0,267.0,244.5,275.5,244.0,283.5,243.5,292.0,243.5,300.5,243.5,308.5,243.5,317.0,243.0,324.5,243.0,332.0,242.5,340.0,241.5,348.0,240.0,355.5,239.5,363.5,239.0" stroke="black" stroke-width="2" fill="none" />
<polyline points="177.5,169.5,169.5,170.0" stroke="black" stroke-width="2" fill="none" />
<polyline points="164.5,145.5,156.5,146.0" stroke="black" stroke-width="2" fill="none" />
<polyline points="156.5,131.0,148.5,131.5" stroke="black" stroke-width="2" fill="none" />
<polyline points="140.5,123.5,132.5,131.0,124.5,138.5,116.0,146.5,108.0,154.0,100.0,161.5,91.0,169.0,83.0,176.0,74.5,183.0,66.0,190.5" stroke="black" stroke-width="2" fill="none" />
<polyline points="75.0,198.5,83.0,191.0,91.0,183.0,99.0,176.0,108.0,168.5,116.0,160.5,124.0,153.0,131.5,145.5,139.5,138.0,148.0,131.0,155.5,123.5,163.0,116.0,170.5,108.5" stroke="black" stroke-width="2" fill="none" />
<polyline points="163.5,108.0,155.5,115.0,147.0,122.5,138.5,130.5,130.0,138.5,122.0,146.0,113.5,153.0,106.0,160.5,98.0,167.5,90.0,174.5,82.0,182.5,74.0,189.5,66.0,197.0" stroke="black" stroke-width="2" fill="none" />
<polyline points="60.5,192.5,52.5,192.5" stroke="black" stroke-width="2" fill="none" />
<polyline points="52.0,190.5,60.0,183.5,68.0,176.0,76.0,168.5,84.0,161.0,92.5,153.5,100.5,145.0,108.5,137.0,116.0,129.5,123.5,122.0,131.5,114.5,139.0,107.0,147.0,99.0" stroke="black" stroke-width="2" fill="none" />
<polyline points="147.5,106.0,156.0,99.0" stroke="black" stroke-width="2" fill="none" />
<polyline points="164.0,100.0,155.5,107.5,147.5,114.5" stroke="black" stroke-width="2" fill="none" />
<polyline points="146.5,110.5,154.5,110.5,163.0,110.5,171.5,110.0,180.0,109.5,188.5,108.5,197.0,108.0,204.5,107.0" stroke="black" stroke-width="2" fill="none" />
<polyline points="180.5,92.0,172.5,99.5" stroke="black" stroke-width="2" fill="none" />
<polyline points="171.0,91.5,178.0,84.0" stroke="black" stroke-width="2" fill="none" />
<polyline points="173.0,83.0,181.0,75.0" stroke="black" stroke-width="2" fill="none" />
<polyline points="172.0,69.5,164.0,76.5,156.0,84.0" stroke="black" stroke-width="2" fill="none" />
<polyline points="162.0,85.0,170.5,84.5,178.0,84.0" stroke="black" stroke-width="2" fill="none" />
<polyline points="162.5,68.0,154.5,75.5" stroke="black" stroke-width="2" fill="none" />
<polyline points="148.0,73.0,155.5,65.5" stroke="black" stroke-width="2" fill="none" />
<polyline points="146.0,59.5,138.0,66.5" stroke="black" stroke-width="2" fill="none" />
<polyline points="139.5,61.0,131.5,68.5" stroke="black" stroke-width="2" fill="none" />
<polyline points="130.5,68.5,138.5,67.5,147.0,67.0,155.5,67.0,163.5,66.5,172.0,65.5" stroke="black" stroke-width="2" fill="none" />
<polyline points="179.0,77.0,170.5,76.5,162.5,77.0,154.5,77.0,146.5,77.0" stroke="black" stroke-width="2" fill="none" />
<polyline points="130.0,59.5,138.0,52.0" stroke="black" stroke-width="2" fill="none" />
<polyline points="132.0,53.0,123.5,61.0,115.5,68.5" stroke="black" stroke-width="2" fill="none" />
<polyline points="108.5,70.0,116.0,69.5,123.5,68.5" stroke="black" stroke-width="2" fill="none" />
<polyline points="121.5,59.0,130.0,58.5" stroke="black" stroke-width="2" fill="none" />
<polyline points="123.0,51.0,115.0,59.0" stroke="black" stroke-width="2" fill="none" />
<polyline points="114.5,60.0,122.5,59.5,130.5,59.5,138.5,59.0,146.5,59.0,154.0,59.0" stroke="black" stroke-width="2" fill="none" />
<polyline points="123.5,84.5,115.0,91.5" stroke="black" stroke-width="2" fill="none" />
<polyline points="122.5,92.0,115.0,99.5,107.0,107.0,99.5,114.0,92.0,121.0,84.0,128.5,76.5,136.0,68.5,143.5,61.0,151.5,53.0,158.5,45.0,166.0,37.0,174.0,28.5,182.0,20.5,190.0" stroke="black" stroke-width="2" fill="none" />
<polyline points="19.5,197.0,27.5,189.5,35.0,182.5,42.0,175.0,51.0,167.5,59.5,160.0,68.0,153.0,76.0,145.5,84.0,139.0,92.0,131.5,99.5,124.0,107.0,116.5,115.0,108.5,123.0,101.0" stroke="black" stroke-width="2" fill="none" />
<polyline points="125.0,108.5,133.0,100.5" stroke="black" stroke-width="2" fill="none" />
<polyline points="140.0,102.0,132.5,109.5,124.0,116.5,115.5,124.0" stroke="black" stroke-width="2" fill="none" />
<polyline points="122.0,122.0,130.5,121.5" stroke="black" stroke-width="2" fill="none" />
<polyline points="131.0,127.5,123.0,128.0" stroke="black" stroke-width="2" fill="none" />
<polyline points="107.5,132.5,99.5,139.5,92.0,146.5,84.0,154.0,75.5,161.5,67.0,169.0,59.5,176.5,50.5,184.5,42.5,192.0" stroke="black" stroke-width="2" fill="none" />
<polyline points="44.0,185.5,51.5,185.0,59.5,184.5,67.0,184.5,75.0,183.5,83.0,182.5" stroke="black" stroke-width="2" fill="none" />
<polyline points="83.0,175.5,75.0,175.5,67.5,176.5" stroke="black" stroke-width="2" fill="none" />
<polyline points="60.0,176.5,52.0,177.5,44.5,178.0" stroke="black" stroke-width="2" fill="none" />
<polyline points="43.5,183.0,52.0,176.0,60.5,169.0,68.5,162.0,76.0,155.0,84.0,147.0,91.5,139.0,99.0,131.5,107.0,123.5" stroke="black" stroke-width="2" fill="none" />
<polyline points="99.0,129.5,91.0,130.0" stroke="black" stroke-width="2" fill="none" />
<polyline points="92.5,137.5,100.5,137.0,107.5,136.5,115.5,136.0,124.0,135.0" stroke="black" stroke-width="2" fill="none" />
<polyline points="123.5,143.5,115.5,143.5" stroke="black" stroke-width="2" fill="none" />
<polyline points="131.0,145.5,139.0,144.5,146.5,144.0" stroke="black" stroke-width="2" fill="none" />
<polyline points="139.5,153.0,147.5,152.5,156.0,152.0,164.0,151.5,172.0,150.5" stroke="black" stroke-width="2" fill="none" />
<polyline points="140.0,117.5,131.5,125.5,123.0,132.5,114.5,140.0,106.0,146.5,98.0,154.0,90.0,161.0,82.5,168.0,74.5,175.0,66.0,182.5,57.5,189.5,50.0,197.0" stroke="black" stroke-width="2" fill="none" />
<polyline points="41.5,214.0,50.0,213.5,58.0,213.5,66.5,213.0,75.0,212.5,84.0,212.0,92.0,211.5,100.5,211.0,108.5,210.5,116.5,209.5,124.0,209.5,132.5,208.5,140.5,207.5,149.0,207.0,157.0,206.5,165.5,206.0,173.0,204.5,180.5,203.5,188.0,203.0,196.0,202.5,204.0,202.5,212.0,202.0,220.0,201.5,227.5,201.0,235.0,200.5,243.0,200.5,250.5,200.0,258.5,199.5,266.5,199.0,274.5,198.0,282.5,197.5,291.0,197.5" stroke="black" stroke-width="2" fill="none" />
<polyline points="171.0,263.5,163.0,263.5" stroke="black" stroke-width="2" fill="none" />
<polyline points="162.0,281.5,154.5,282.0" stroke="black" stroke-width="2" fill="none" />
<polyline points="161.5,307.5,169.5,307.0,178.5,306.5" stroke="black" stroke-width="2" fill="none" />
<polyline points="162.5,316.0,155.0,323.5,147.0,331.0" stroke="black" stroke-width="2" fill="none" />
<polyline points="154.5,334.5,162.5,334.0,171.5,333.5" stroke="black" stroke-width="2" fill="none" />
<polyline points="155.5,314.5,148.0,322.5" stroke="black" stroke-width="2" fill="none" />
<polyline points="147.0,333.5,138.5,334.5" stroke="black" stroke-width="2" fill="none" />
<polyline points="133.0,299.0,140.5,298.0,148.0,297.0,155.5,296.0,163.0,296.0,170.5,295.0,178.5,294.0,186.0,293.5,193.5,293.0,201.0,292.5,208.5,292.0,216.5,291.5,225.0,291.5,233.5,291.0,241.5,290.5,250.0,290.5,258.0,290.0,266.0,289.5,274.0,288.5,282.5,288.0,290.5,286.5,298.5,286.5,306.5,286.5,314.5,286.5,322.5,286.0,330.5,286.0,339.0,285.5,347.5,285.0,356.0,284.5" stroke="black" stroke-width="2" fill="none" />
<polyline points="133.5,237.0,125.5,244.5,117.0,251.0" stroke="black" stroke-width="2" fill="none" />
<polyline points="116.5,257.0,124.5,256.5,133.0,256.5,141.5,256.0" stroke="black" stroke-width="2" fill="none" />
<polyline points="130.5,250.5,138.0,250.0,146.5,249.0,155.0,248.5,163.0,248.0,171.0,247.5" stroke="black" stroke-width="2" fill="none" />
<polyline points="131.5,242.5,123.5,250.5,115.0,258.0,106.5,266.0,98.5,273.5,90.5,281.5,82.5,288.5,75.0,296.0,67.0,303.5,59.0,311.0,51.0,318.5,43.0,326.5,34.5,333.5" stroke="black" stroke-width="2" fill="none" />
<polyline points="20.0,333.0,28.5,325.5,36.5,318.5,44.5,311.0,52.0,304.0,59.5,296.0,67.5,289.0,75.5,282.0,83.5,275.0,91.5,267.5,99.5,259.5,107.5,251.5,115.0,244.0,123.0,237.0" stroke="black" stroke-width="2" fill="none" />
<polyline points="115.5,236.0,107.5,243.5,99.5,251.0,91.5,258.5,83.5,266.5,75.5,274.0,67.5,282.0,59.0,289.5,50.5,297.0,42.5,304.5,34.5,311.5,27.0,319.0,19.5,326.5,12.0,334.0" stroke="black" stroke-width="2" fill="none" />
<polyline points="2.5,333.5,11.0,325.5,19.5,318.0,27.5,311.0,35.5,303.5,43.5,296.0,51.5,288.5,59.0,281.0,67.5,274.0,75.5,266.5,84.0,259.0,92.5,251.5,100.5,244.0,108.5,236.0" stroke="black" stroke-width="2" fill="none" />
<polyline points="109.0,229.0,101.0,236.5,93.0,244.0,84.5,251.5,76.0,258.0,67.5,265.5,59.5,273.0,51.5,281.0,43.5,288.5,35.5,295.5,28.0,303.0,19.5,310.5,11.5,317.5,3.5,325.0" stroke="black" stroke-width="2" fill="none" />
<polyline points="3.5,324.5,11.0,324.0,19.0,324.0,27.0,324.0,34.5,323.0,43.0,323.0,51.0,322.5,59.5,322.5,67.5,322.0,75.5,321.5,83.5,320.5,91.5,320.0,99.0,320.0,107.0,319.5,115.5,318.5,123.5,318.0,131.5,317.5,139.0,317.5,147.0,316.5,155.5,315.5,163.5,315.0,171.5,314.5,180.0,314.0,188.0,313.5" stroke="black" stroke-width="2" fill="none" />
<polyline points="132.0,280.0,124.0,281.0" stroke="black" stroke-width="2" fill="none" />
<polyline points="123.5,297.5,116.0,298.0" stroke="black" stroke-width="2" fill="none" />
<polyline points="107.0,305.5,115.0,305.0,122.5,304.5,130.5,304.0,138.5,302.5,146.5,301.5,154.5,301.0,162.5,300.5" stroke="black" stroke-width="2" fill="none" />
<polyline points="139.5,264.0,131.0,265.0,123.0,265.5,115.0,266.0,107.5,266.5" stroke="black" stroke-width="2" fill="none" />
<polyline points="106.5,262.5,114.5,262.0,122.5,261.5,130.5,261.0,138.0,261.0,146.0,260.5,154.0,260.0,162.0,259.0,170.5,258.5,178.5,258.0,186.5,257.5,194.5,257.0,203.5,256.5,212.0,255.5,219.5,254.5,228.0,253.5,236.0,253.0,244.0,253.5,252.0,253.0,260.0,253.0,267.0,252.5,275.5,252.0,283.5,251.5,291.5,251.0,299.5,250.5,307.5,250.0,315.0,250.0,322.5,249.5,330.5,248.5,338.0,248.0,346.5,247.0,354.5,247.0" stroke="black" stroke-width="2" fill="none" />
<polyline points="132.0,159.5,123.5,159.5" stroke="black" stroke-width="2" fill="none" />
<polyline points="131.5,177.0,124.0,177.0,116.0,177.5,107.5,177.5,99.5,177.5" stroke="black" stroke-width="2" fill="none" />
<polyline points="99.5,169.0,107.0,168.5" stroke="black" stroke-width="2" fill="none" />
<polyline points="108.0,160.0,100.0,160.5,92.0,160.5" stroke="black" stroke-width="2" fill="none" />
<polyline points="83.5,153.5,91.5,153.0,99.0,153.0,107.0,152.5" stroke="black" stroke-width="2" fill="none" />
<polyline points="107.5,144.5,99.5,145.5" stroke="black" stroke-width="2" fill="none" />
<polyline points="91.5,143.5,84.0,143.5,76.0,143.5" stroke="black" stroke-width="2" fill="none" />
<polyline points="75.0,136.5,67.0,137.5,59.0,138.0" stroke="black" stroke-width="2" fill="none" />
<polyline points="51.5,128.0,44.0,129.0" stroke="black" stroke-width="2" fill="none" />
<polyline points="35.0,129.0,27.0,129.5" stroke="black" stroke-width="2" fill="none" />
<polyline points="42.5,135.0,35.0,135.5,27.0,136.0,19.0,136.5,10.5,137.5,2.5,138.0" stroke="black" stroke-width="2" fill="none" />
<polyline points="2.0,134.5,10.0,127.0,18.0,119.5,26.5,112.0,35.0,104.5,43.0,96.5,51.0,89.0,59.0,81.5,67.5,74.0,76.0,66.0,83.5,58.5" stroke="black" stroke-width="2" fill="none" />
<polyline points="83.5,52.0,91.5,52.0,99.5,52.0,107.5,51.5,115.5,51.5,123.0,51.5,131.5,50.5,139.5,49.0" stroke="black" stroke-width="2" fill="none" />
<polyline points="115.5,83.5,107.0,90.5,99.5,98.0,92.0,106.0,84.0,114.5,76.5,122.5,68.5,130.0,60.5,137.5,52.5,145.5,44.0,153.0,36.0,160.5,28.0,167.5,20.0,175.0,12.0,183.0,4.5,190.5" stroke="black" stroke-width="2" fill="none" />
<polyline points="2.5,189.0,10.5,188.5,19.5,187.5,27.5,187.0,36.0,186.5,43.5,186.5,51.5,186.0,59.5,186.0,67.5,186.0,75.0,185.5,83.0,185.0,91.0,184.5,99.0,183.5,107.0,183.0,114.5,182.0,122.0,182.0,130.0,181.5,138.0,180.5,146.5,179.5,154.5,179.0,163.0,178.5,171.0,178.0,179.0,178.0,187.0,177.5,195.0,177.0,202.5,176.0,210.5,175.5,218.5,175.0,226.0,174.0,233.5,173.0,241.5,172.5,249.5,172.0,258.5,171.5,267.0,171.0" stroke="black" stroke-width="2" fill="none" />
<polyline points="122.5,104.5,114.5,105.0" stroke="black" stroke-width="2" fill="none" />
<polyline points="107.0,100.0,99.0,107.5,91.5,115.0,84.0,122.5,76.5,129.5,68.5,136.5,60.5,144.0,52.5,151.5,44.5,159.0,36.5,166.5,28.0,174.0,19.5,181.0,11.0,188.0" stroke="black" stroke-width="2" fill="none" />
<polyline points="4.5,181.0,12.5,181.0,20.5,180.0,28.5,179.5,36.5,179.5,44.0,178.5,51.5,178.5,59.5,178.5,67.0,178.0,74.5,177.5,82.5,177.0,91.0,176.5,99.0,176.5,107.0,176.0,115.0,175.0,123.0,174.5,131.0,174.0,138.5,173.5,146.0,173.0,154.5,172.0,163.0,171.5,171.0,171.0,178.5,170.5,186.5,170.0,194.5,168.5,202.5,167.5,210.5,167.0,218.5,166.5,227.0,166.0,235.0,165.0,243.0,164.5,251.0,164.5,259.0,164.5,266.5,164.0,274.0,163.5,282.0,163.5,290.5,163.5" stroke="black" stroke-width="2" fill="none" />
<polyline points="108.0,82.5,100.0,90.5,93.0,98.0,84.5,105.5,76.5,112.5,68.5,120.0,60.0,127.5,52.0,135.0,43.5,142.0,36.0,149.0,27.5,156.5,20.0,164.0,12.0,171.5,4.0,179.5" stroke="black" stroke-width="2" fill="none" />
<polyline points="5.5,178.0,13.5,177.0,21.5,176.5" stroke="black" stroke-width="2" fill="none" />
<polyline points="28.0,175.5,36.5,175.5" stroke="black" stroke-width="2" fill="none" />
<polyline points="36.5,183.5,29.0,184.0" stroke="black" stroke-width="2" fill="none" />
<polyline points="9.5,172.0,17.5,171.0,26.0,170.0,34.0,168.5,42.0,167.5,50.0,167.0,58.0,166.0,66.5,165.0,75.0,164.5,83.5,164.0,92.0,163.5" stroke="black" stroke-width="2" fill="none" />
<polyline points="85.0,120.5,92.5,119.5,100.5,119.0" stroke="black" stroke-width="2" fill="none" />
<polyline points="93.0,112.0,85.5,113.0" stroke="black" stroke-width="2" fill="none" />
<polyline points="85.0,104.5,92.0,104.5" stroke="black" stroke-width="2" fill="none" />
<polyline points="92.0,94.5,84.5,95.5" stroke="black" stroke-width="2" fill="none" />
<polyline points="84.0,88.5,92.0,88.5" stroke="black" stroke-width="2" fill="none" />
<polyline points="99.5,83.5,91.5,91.0,83.5,99.0,75.5,106.5,67.5,114.0,59.5,121.0,51.0,129.0,43.0,137.0,35.5,144.0,27.5,151.5,19.0,159.0,11.0,166.5,3.0,174.0" stroke="black" stroke-width="2" fill="none" />
<polyline points="4.0,172.0,12.0,172.0,20.0,171.5,28.0,171.5,36.5,171.0,44.5,171.0,53.0,170.0,61.0,169.5,69.0,168.5,77.0,167.5,85.0,167.0,93.0,167.0,101.0,167.0,108.5,167.0,116.5,167.0,124.5,167.0,132.0,166.5,139.5,166.0,147.0,165.5,154.5,165.0,162.5,164.5,170.5,164.0,178.5,163.5,186.5,163.0,194.0,163.0,202.0,162.5,210.0,162.0,218.0,161.0,226.5,160.5,234.5,160.0,242.5,159.5,250.5,159.0,259.5,158.5" stroke="black" stroke-width="2" fill="none" />
<polyline points="101.0,226.5,92.5,233.5,84.5,241.0,76.5,249.0,68.5,257.0,60.0,265.0,51.5,272.5,43.0,279.5,34.5,287.0,26.0,294.5,18.0,302.5,10.0,309.5,3.0,317.0" stroke="black" stroke-width="2" fill="none" />
<polyline points="4.0,316.0,11.5,315.5,19.5,315.0,28.0,314.5,36.0,314.0,44.5,313.0,52.5,313.0,61.0,312.0,69.0,312.0,77.0,312.0,85.0,311.5,92.5,310.5,100.5,310.0,108.0,310.0,116.0,310.5,124.5,310.5,132.0,311.0,139.5,311.0,148.0,310.5,156.5,310.0,165.0,309.0,172.5,308.0,180.0,307.0,187.5,306.0,195.0,306.0" stroke="black" stroke-width="2" fill="none" />
<polyline points="101.5,322.0,93.5,329.5,85.0,337.0" stroke="black" stroke-width="2" fill="none" />
<polyline points="85.0,296.5,76.5,297.0" stroke="black" stroke-width="2" fill="none" />
<polyline points="76.0,290.0,84.0,289.0" stroke="black" stroke-width="2" fill="none" />
<polyline points="91.0,295.5,99.0,295.5,107.0,295.0" stroke="black" stroke-width="2" fill="none" />
<polyline points="100.0,290.5,108.5,289.5,116.5,288.5,125.0,288.0,133.0,287.5,141.5,287.0,149.0,285.5,156.5,284.5,164.0,284.0,172.0,283.5,180.0,283.5,188.0,283.0,196.0,282.5,203.5,282.0,211.0,281.5,219.0,281.5,226.5,281.0,234.5,280.5,242.5,280.0,250.5,279.0,258.5,278.5,267.0,278.5,275.0,278.0,283.0,277.0,291.0,275.5,299.5,275.0,307.5,274.5,316.0,274.5,324.5,274.5,332.5,274.5,341.0,274.0,348.5,274.0,356.0,273.5,364.0,272.5,372.0,271.0" stroke="black" stroke-width="2" fill="none" />
<polyline points="100.5,266.5,92.0,274.0,84.0,281.0,76.0,289.0,67.5,296.5,59.0,304.0,50.5,312.0,42.5,319.5,34.5,327.0,26.5,334.5" stroke="black" stroke-width="2" fill="none" />
<polyline points="2.5,332.5,11.0,332.0,19.0,332.0,27.0,331.5,35.0,331.5,43.0,331.0,51.5,330.5,59.5,330.5,67.5,330.0,75.5,329.0,83.0,329.0,91.0,328.5,99.0,328.0,107.0,327.0,115.5,326.0,123.5,325.0,131.5,324.5" stroke="black" stroke-width="2" fill="none" />
<polyline points="116.0,280.5,108.0,281.5,99.5,282.5" stroke="black" stroke-width="2" fill="none" />
<polyline points="99.5,273.5,107.5,272.5,115.5,272.0,123.5,271.0" stroke="black" stroke-width="2" fill="none" />
<polyline points="107.0,256.5,98.5,257.0" stroke="black" stroke-width="2" fill="none" />
<polyline points="91.5,226.0,83.5,234.0,75.5,241.5,67.0,249.0,59.0,257.0,51.5,265.0,43.0,272.5,35.5,280.5,28.0,288.5,20.0,297.0,12.0,305.0,4.5,312.5" stroke="black" stroke-width="2" fill="none" />
<polyline points="3.0,309.5,11.5,309.0,20.0,308.0,28.5,307.0,36.5,306.5,44.5,305.5,53.0,305.5,61.0,305.0,69.0,304.5,77.0,304.0,85.5,304.0,93.0,303.0,101.0,302.5,108.5,302.0,115.5,302.0,123.5,301.5,131.0,301.5,139.0,301.0,146.5,301.0,154.5,301.0" stroke="black" stroke-width="2" fill="none" />
<polyline points="75.5,234.5,67.5,241.5,60.0,249.0,52.0,256.5,43.5,264.0,35.5,271.5,28.0,279.5,20.5,287.5,13.0,296.0,5.5,304.5" stroke="black" stroke-width="2" fill="none" />
<polyline points="2.5,303.0,10.0,302.0,18.5,300.5,27.0,299.5,35.5,298.5,44.0,298.0,52.0,297.0,60.0,296.5,68.0,296.0,76.5,296.0,85.0,295.5,92.0,295.5,100.0,294.5,107.5,294.0,115.5,293.5,123.5,292.5,131.0,292.5,138.5,292.5,146.5,292.0,154.5,292.0,163.0,291.5,171.0,290.5,178.5,290.0,186.5,289.5,195.0,288.5,203.0,288.5,211.0,288.5,219.0,288.5,227.5,289.0,236.0,289.0,244.0,288.5,252.0,288.0,260.0,288.0,268.0,287.5,277.0,286.5,285.5,285.5,293.0,285.0,300.5,284.5,308.5,284.0,316.5,283.0,324.5,282.5,332.0,282.0,339.5,281.5,347.5,281.0,355.5,280.5" stroke="black" stroke-width="2" fill="none" />
<polyline points="76.0,226.0,68.0,234.0,59.5,242.0,51.5,250.0,43.0,258.0,35.0,265.5,27.0,273.0,19.5,281.0,12.5,288.5,4.5,296.0" stroke="black" stroke-width="2" fill="none" />
<polyline points="3.0,294.0,11.0,293.0,19.5,292.0,27.5,291.0,35.5,290.5,43.5,289.5,51.5,289.0,60.0,287.5,68.5,287.0,76.5,287.0,84.5,286.5,92.0,285.5,100.5,285.0,109.0,285.0,116.5,285.0,124.5,284.5,132.0,284.5,139.0,283.5,147.0,282.5,154.5,282.5,162.5,282.5,170.5,281.5,179.0,281.0,187.5,281.0,195.5,280.5,204.0,279.5,212.5,279.5,220.5,280.0,229.0,279.5,237.0,279.0,244.5,278.5,252.5,278.5,261.0,278.0,269.0,277.0,277.5,276.0,285.0,275.5,293.5,275.0,301.0,275.0,308.5,275.0,316.5,274.5,325.0,274.0,332.5,273.5,340.5,273.5,348.5,273.5,356.5,273.0" stroke="black" stroke-width="2" fill="none" />
<polyline points="69.5,226.5,61.5,234.5,54.0,242.0,45.5,249.5,37.0,257.5,28.0,265.5,20.0,273.0,12.0,281.0,3.5,288.5" stroke="black" stroke-width="2" fill="none" />
<polyline points="4.5,285.0,12.5,284.5,20.0,284.5,27.5,284.0,35.5,283.0,43.5,282.0,51.5,281.5,59.5,281.0,67.5,280.5,75.5,280.0,84.0,279.5,92.0,279.5,100.0,279.0,108.0,278.5,115.5,278.0,123.0,277.5,131.0,276.5,139.5,276.0,147.5,275.5,156.0,275.5,164.0,275.0,172.0,274.0,179.5,273.5,187.5,273.0,195.5,273.0,204.0,273.0,212.0,272.5,220.5,272.5,228.5,272.0,236.5,272.0,244.5,271.5,252.5,271.0,260.5,270.5,269.0,269.5,277.0,268.5,285.0,267.5,293.0,267.5,300.5,267.0,308.5,265.5,316.0,264.5,324.0,264.0,331.5,263.5,339.5,263.5,348.0,263.5,356.5,263.5,364.5,263.0,372.5,262.5,380.5,262.0,388.5,261.5,397.0,260.0,405.0,259.5,413.0,259.0,420.0,259.0,427.5,259.0,435.5,258.5,443.5,258.0,451.5,258.0,460.0,257.5,468.0,257.0,476.0,257.0,484.5,256.5,492.0,256.0,499.5,255.5,507.5,255.0,515.5,254.5" stroke="black" stroke-width="2" fill="none" />
<polyline points="68.0,218.5,60.5,226.0,52.5,233.5,44.5,241.5,36.0,249.0,27.5,257.0,19.0,265.0,11.0,272.5,3.0,280.5" stroke="black" stroke-width="2" fill="none" />
<polyline points="2.5,276.5,10.5,276.0,19.0,275.5,28.0,275.0,36.0,274.5,44.0,274.0,52.0,273.0,59.5,273.0,67.5,272.5,75.5,272.0,83.5,271.0,91.5,271.0,99.5,271.0,107.5,270.5,115.5,270.5,123.0,270.5,131.5,269.5,139.5,268.0,147.5,267.0,155.5,266.0,163.5,265.5,172.0,265.5,179.5,266.0,187.5,266.0,195.5,266.0,203.5,266.0,211.5,265.5,219.5,265.0,227.5,264.5,235.5,263.5,243.5,262.5,252.0,262.0,260.0,262.0,268.0,262.0,276.0,262.0,284.5,261.5,291.5,260.0,299.0,258.5,307.0,257.5,314.5,256.5,322.0,255.5,330.5,255.5,339.0,255.5,347.0,255.0,355.5,254.5,363.0,254.5,371.0,254.0,379.0,254.0,387.5,254.0,395.5,254.0,404.0,253.0,412.0,253.0,419.5,253.0,427.5,252.5,436.0,252.0,443.5,251.0,451.5,251.0,459.5,250.0,467.5,249.5,476.0,248.5,484.5,248.5,492.5,247.5,500.5,247.0,508.5,247.0,516.5,247.0" stroke="black" stroke-width="2" fill="none" />
<polyline points="100.0,78.5,91.5,85.5,83.0,92.0,75.0,99.0,67.0,106.0,59.5,113.5,51.0,121.0,43.5,128.5,36.5,136.0,29.0,143.0,20.5,150.5,12.5,158.0,4.5,165.5" stroke="black" stroke-width="2" fill="none" />
<polyline points="3.0,165.0,11.5,164.5,20.0,164.0,28.0,163.5,36.5,163.0,44.0,162.5,51.5,162.0,59.5,160.5,68.0,159.5,76.5,159.0,84.5,158.5,92.0,158.0,99.5,157.5,107.0,158.0,115.0,158.5,123.0,158.5,130.5,158.5,138.0,158.5,145.5,158.0,154.0,157.5,162.5,156.5,170.5,156.5,178.5,156.0,187.0,156.0,195.0,155.5,203.5,155.0,211.5,154.5,219.0,153.5,227.0,152.5,234.5,152.0,242.5,151.0,250.0,150.5,258.0,150.5,266.0,150.0,275.0,149.5,283.0,148.5,291.5,148.0,300.0,147.5,308.5,146.5,317.5,145.5,326.0,144.5" stroke="black" stroke-width="2" fill="none" />
<polyline points="90.5,74.0,82.5,81.0,74.5,89.0,67.0,96.5,59.5,104.5,51.5,112.5,43.5,120.5,35.0,129.0,27.0,137.0,19.0,144.5,11.5,152.0,3.5,159.5" stroke="black" stroke-width="2" fill="none" />
<polyline points="3.5,157.0,11.5,156.5,20.0,156.0,28.0,156.0,35.5,155.5,43.5,155.0,51.0,154.5,58.0,154.5,66.0,154.5,73.5,154.0,81.5,153.0,90.0,152.5,98.0,152.5,106.5,152.0,115.0,151.5,124.0,151.0,132.0,150.5,140.5,150.0,148.5,149.5,156.5,148.5,164.0,148.5,172.5,147.5,180.5,146.5,189.0,146.0,197.0,145.5,205.5,145.0,213.0,143.5,220.5,142.5,228.0,142.0,236.0,141.5,244.0,141.5,252.0,141.0" stroke="black" stroke-width="2" fill="none" />
<polyline points="83.0,73.0,75.0,80.5,66.5,88.5,58.5,96.5,51.0,104.5,43.0,112.5,34.5,120.0,26.5,128.0,18.5,136.0,10.0,143.5,2.0,151.0" stroke="black" stroke-width="2" fill="none" />
<polyline points="4.0,153.0,11.5,152.0,19.5,151.0,27.5,150.5,35.5,150.0,43.5,150.0,51.0,150.0,59.5,149.5,68.0,149.5" stroke="black" stroke-width="2" fill="none" />
<polyline points="66.0,105.5,74.0,105.0" stroke="black" stroke-width="2" fill="none" />
<polyline points="76.0,96.5,68.0,96.5" stroke="black" stroke-width="2" fill="none" />
<polyline points="66.5,89.5,74.5,89.0" stroke="black" stroke-width="2" fill="none" />
<polyline points="76.0,75.0,68.0,82.5,60.0,90.5,52.0,98.0,43.5,106.0,35.5,113.5,27.5,121.5,20.0,129.5,12.0,137.0,4.0,144.5" stroke="black" stroke-width="2" fill="none" />
<polyline points="4.0,146.0,12.0,145.0,20.0,144.0,27.5,143.5,35.5,142.5,43.5,141.5,52.0,141.0,60.0,141.0,68.0,140.5" stroke="black" stroke-width="2" fill="none" />
<polyline points="61.0,104.0,53.0,104.0" stroke="black" stroke-width="2" fill="none" />
<polyline points="52.5,79.5,60.0,79.0" stroke="black" stroke-width="2" fill="none" />
<polyline points="60.0,68.5,52.0,76.0,43.5,83.0,35.5,90.5,27.0,97.5,19.0,105.0,11.0,112.5,3.0,119.5" stroke="black" stroke-width="2" fill="none" />
<polyline points="3.5,117.0,11.5,116.5,19.0,116.0,26.5,115.5,34.5,114.5,42.0,114.0,50.0,114.0,58.0,114.0,66.0,114.0,74.0,113.5,82.5,113.0,90.5,112.5,98.5,111.5,106.0,111.0,114.0,110.0,122.5,109.5,131.0,109.0,139.5,108.0,148.0,108.0,156.5,108.0,164.5,107.5,172.5,107.0,179.5,106.5,187.5,106.0,196.0,105.0,204.0,104.0" stroke="black" stroke-width="2" fill="none" />
<polyline points="68.0,65.5,60.0,73.0,52.0,81.0,44.0,89.0,36.5,97.0,28.5,104.5,20.0,112.0,11.5,119.5,3.5,127.5" stroke="black" stroke-width="2" fill="none" />
<polyline points="2.0,126.5,10.0,126.0,17.5,125.5,26.0,125.0,34.5,124.5,42.5,123.5,50.5,123.5,58.0,123.0,66.0,123.0,73.5,123.0,81.5,123.0,89.5,122.0,98.0,121.0,106.0,119.5,114.0,118.5,122.0,118.0,130.0,117.0,138.5,116.0,147.0,115.5,155.5,115.0,164.0,114.5,172.0,114.5,180.0,114.0,188.0,114.0,196.5,113.5,204.5,113.5,212.5,113.0" stroke="black" stroke-width="2" fill="none" />
<polyline points="53.0,69.5,45.5,77.0,37.0,84.0,29.0,91.0,20.5,98.5,12.0,106.0,3.5,113.5" stroke="black" stroke-width="2" fill="none" />
<polyline points="4.0,109.0,12.0,109.0,20.0,108.0,27.5,108.0,34.5,107.5,42.0,107.0,50.0,106.0,58.5,105.5,66.5,104.5,74.5,104.0,82.5,103.5,91.0,103.0,99.0,103.0,107.0,102.5,115.0,102.5,123.0,102.0,131.5,101.5,139.5,101.5" stroke="black" stroke-width="2" fill="none" />
<polyline points="53.0,61.5,45.0,69.0,36.5,76.0,28.5,83.5,20.0,90.5,11.5,98.0,3.0,105.0" stroke="black" stroke-width="2" fill="none" />
<polyline points="10.5,98.0,18.5,97.5" stroke="black" stroke-width="2" fill="none" />
<polyline points="3.5,90.0,11.5,82.5,19.5,75.0,27.5,67.0,35.5,59.0,44.0,51.5" stroke="black" stroke-width="2" fill="none" />
<polyline points="26.0,57.0,18.0,65.0,10.5,72.5,3.0,80.0" stroke="black" stroke-width="2" fill="none" />
<polyline points="3.5,82.0,11.5,82.0" stroke="black" stroke-width="2" fill="none" />
<polyline points="5.0,78.5,12.5,78.0,20.5,77.0,28.5,76.5,36.5,76.0,45.0,75.5,52.5,75.0,59.5,74.5,67.0,74.0,75.0,73.5,83.0,73.0,91.0,72.0,99.5,71.0,107.5,70.0,115.5,69.5,123.5,68.5,131.5,68.0,140.0,66.5" stroke="black" stroke-width="2" fill="none" />
<polyline points="51.0,71.5,43.0,72.5" stroke="black" stroke-width="2" fill="none" />
<polyline points="20.0,61.5,12.0,69.0,4.0,76.0" stroke="black" stroke-width="2" fill="none" />
<polyline points="5.0,67.5,13.0,67.0,21.0,67.0,28.5,66.5,36.5,66.5,44.0,66.0,52.0,66.0,60.5,65.5,68.5,65.5,76.5,65.0,84.5,64.0,92.5,63.5,100.0,63.5" stroke="black" stroke-width="2" fill="none" />
<polyline points="17.5,51.0,10.0,59.0,2.5,66.5" stroke="black" stroke-width="2" fill="none" />
<polyline points="4.5,60.5,12.0,60.0,19.5,59.5,27.5,59.0,35.0,59.0,43.0,59.0,50.5,58.0,58.5,57.0,66.5,56.0,74.5,56.0,82.5,55.5,90.5,55.0,99.0,54.5" stroke="black" stroke-width="2" fill="none" />
<polyline points="12.0,51.5,4.0,59.0" stroke="black" stroke-width="2" fill="none" />
<polyline points="4.5,37.0,12.5,36.5,20.5,36.0,28.5,35.5,36.5,35.0,44.5,35.0,53.0,33.5,60.5,32.5,68.5,31.5,77.0,31.0,85.0,30.5,93.0,30.0,100.5,29.5,108.5,29.5,115.5,29.5" stroke="black" stroke-width="2" fill="none" />
<polyline points="17.0,20.0,9.0,27.5,1.5,35.5" stroke="black" stroke-width="2" fill="none" />
<polyline points="3.5,29.5,11.5,29.0,19.5,29.0,27.5,28.5,35.0,28.0,43.0,27.5,51.0,27.0,59.5,26.0,67.5,26.0,75.5,25.5,83.0,25.0" stroke="black" stroke-width="2" fill="none" />
<polyline points="12.5,19.0,5.0,26.0" stroke="black" stroke-width="2" fill="none" />
<polyline points="3.5,86.0,11.0,85.5,18.5,84.5,26.5,83.5,34.5,82.5,42.5,81.5,50.5,81.5,58.0,81.0,66.5,81.0,75.0,80.5,83.0,80.5,91.5,80.0,100.0,79.0,108.5,78.0,116.5,77.5,124.5,76.5,133.0,76.5,141.0,76.0,149.0,75.5" stroke="black" stroke-width="2" fill="none" />
<polyline points="75.0,156.0,67.5,156.5,59.5,157.5,51.0,158.0,43.0,159.0,35.0,159.5,27.5,160.0,20.0,160.5,12.5,160.5,5.0,161.5" stroke="black" stroke-width="2" fill="none" />
<polyline points="6.0,147.5,13.0,147.0,20.5,146.5,28.5,146.5,36.0,146.0,44.5,146.0,52.0,146.0,60.0,146.0,68.0,146.0,76.0,145.0,84.5,145.0,92.0,144.5,100.0,143.5,108.0,143.0,116.5,142.5,124.5,142.0,132.5,141.0,140.0,141.0,148.0,140.5,155.5,140.0,163.5,139.5,171.5,138.5,179.5,138.0,187.5,137.0,196.0,137.0,204.0,136.5,212.5,136.0,220.5,135.5,228.5,135.5,236.5,135.5,244.5,135.0" stroke="black" stroke-width="2" fill="none" />
<polyline points="57.0,221.5,49.5,228.5,41.5,236.0" stroke="black" stroke-width="2" fill="none" />
<polyline points="35.5,236.5,44.0,229.5" stroke="black" stroke-width="2" fill="none" />
<polyline points="36.5,244.5,29.0,251.5,20.5,259.0,12.5,266.5,5.0,273.5" stroke="black" stroke-width="2" fill="none" />
<polyline points="1.5,268.5,9.5,268.0,17.5,268.0,26.0,267.5,34.5,267.0,43.0,266.5,51.0,266.0,59.0,265.5,67.5,265.0,76.5,264.5,84.5,264.0,93.0,263.5,100.5,263.5,108.0,263.0,116.0,262.5,123.5,262.0,131.5,261.0,139.5,260.0,147.0,259.0,155.0,258.5,163.0,258.0,171.0,257.5,179.0,256.5,187.0,256.5,195.0,257.0,203.5,257.0,211.5,256.5,220.0,256.5,228.5,256.5,237.0,256.0,245.5,256.0,253.0,255.0,261.0,254.5,268.0,254.0,275.0,253.0,282.5,252.0,290.0,251.0,297.5,250.5,305.5,249.5,314.0,249.0,322.5,248.5,330.5,248.0,339.0,248.0,347.0,248.0,355.0,247.5" stroke="black" stroke-width="2" fill="none" />
<polyline points="59.0,289.5,50.5,290.0" stroke="black" stroke-width="2" fill="none" />
<polyline points="51.0,304.0,42.5,304.5" stroke="black" stroke-width="2" fill="none" />
<polyline points="3.0,265.5,11.0,258.0,19.0,250.5,27.0,243.5" stroke="black" stroke-width="2" fill="none" />
<polyline points="26.0,232.5,18.0,240.5,10.0,248.0,2.0,256.0" stroke="black" stroke-width="2" fill="none" />
<polyline points="3.0,260.0,11.0,259.5,19.0,259.0,27.0,258.5,35.0,258.5,43.0,258.0,51.0,257.0,59.5,257.0,67.5,256.5,76.0,256.5,84.0,257.0,92.0,256.0,99.5,255.0" stroke="black" stroke-width="2" fill="none" />
<polyline points="19.0,235.5,11.0,243.0,3.5,250.5" stroke="black" stroke-width="2" fill="none" />
<polyline points="5.0,251.5,13.0,251.0,20.5,250.5,28.5,250.5,35.5,250.5,43.5,250.0,51.0,249.0,59.5,248.5,67.5,248.0,76.0,247.0,84.0,246.5,92.0,246.5,99.5,246.5,107.0,246.5,114.5,246.0,122.5,245.5,130.5,246.0,138.5,246.0,146.5,245.5" stroke="black" stroke-width="2" fill="none" />
<polyline points="20.0,229.5,12.5,236.5,5.0,244.0" stroke="black" stroke-width="2" fill="none" />
<polyline points="3.0,246.0,11.5,245.5,20.0,244.5,28.0,243.5,36.5,243.0,44.0,242.0,51.5,241.5,59.5,240.5,67.5,240.0,75.5,240.0,83.5,239.5,91.0,238.5,99.0,238.5,107.0,238.0,114.5,237.5,123.0,237.0,130.5,237.0,139.0,237.0,147.5,237.0,155.5,237.0,164.0,236.0,171.5,235.5,179.5,234.5" stroke="black" stroke-width="2" fill="none" />
<polyline points="9.0,227.5,1.0,235.0" stroke="black" stroke-width="2" fill="none" />
<polyline points="3.5,230.5,11.5,230.0,19.5,229.5,27.5,228.5,35.0,227.5,43.0,227.0,51.0,226.5,58.5,226.0,66.5,225.5,75.5,224.5,84.0,223.5,92.0,223.5,99.5,223.5,107.0,222.5,114.5,221.5,123.0,220.5,131.0,220.0,139.0,219.5,147.5,219.0,155.5,218.5,163.5,217.5,171.5,217.5,179.5,217.5,188.0,217.0,196.5,216.5,205.0,216.5" stroke="black" stroke-width="2" fill="none" />
<polyline points="214.5,225.0,206.0,225.5,197.5,225.5,189.5,226.0,181.0,226.5,172.5,226.5,164.5,227.0,157.0,227.0,149.0,227.5,141.0,228.0,132.0,229.0,123.5,230.0,115.0,230.5,107.0,231.0,98.5,231.5,90.0,232.0,82.0,232.5,74.5,232.5,66.5,233.0,58.5,233.5,50.5,234.0,42.5,234.5,34.5,236.0,27.0,237.0,19.0,238.5,11.5,239.0,3.5,239.5" stroke="black" stroke-width="2" fill="none" />
<polyline points="4.0,220.0,12.0,219.5,20.0,219.5,27.5,219.5,35.5,219.5,43.0,220.0,51.5,219.0,59.5,218.5,67.0,217.5,75.0,217.0,82.5,216.5,90.5,216.0,98.5,215.5,107.0,215.0,115.0,214.5,123.5,213.5,131.0,213.0,139.0,212.5,147.0,212.0,155.0,211.5,162.5,211.0,170.5,210.5,178.5,210.5,186.5,209.5,194.0,208.0,201.5,207.5,210.0,207.5,219.0,208.0,227.5,208.5,235.5,208.5,244.0,208.5,252.0,208.0,259.5,207.5,267.5,206.5,275.5,206.0" stroke="black" stroke-width="2" fill="none" />
<polyline points="316.0,177.5,308.0,178.5,300.0,179.5,291.0,180.0,283.0,180.0,274.5,180.5,266.0,181.0,258.0,182.0,249.5,182.5,241.5,183.0,233.5,183.5,225.5,184.0,218.0,184.0,210.5,184.5,202.0,185.0,194.5,185.0,186.5,185.0,178.5,185.5,170.5,185.5,162.5,186.0,155.0,187.0,146.5,188.0,139.0,189.0,131.5,189.5,124.0,189.5,116.0,190.5,108.0,190.5,99.5,191.0,91.0,192.0,83.0,192.5,74.5,193.0,67.0,193.5,59.5,194.0,51.5,194.5,44.0,194.5,35.5,195.0,27.5,195.5,19.5,195.0,11.0,195.0,3.0,195.0" stroke="black" stroke-width="2" fill="none" />
<polyline points="2.5,142.5,11.0,141.5,19.0,140.5,27.0,139.5,35.5,138.5,43.5,138.0,51.5,137.0,59.5,136.5,67.5,136.0,75.0,136.0,83.0,135.5,91.0,134.5,99.5,134.0,108.0,133.5,116.5,133.0,124.5,132.0,132.5,132.5,140.0,132.5,148.0,132.5,155.5,132.0,163.5,131.5,171.5,131.5,180.0,131.5,188.0,131.0,195.5,131.0,203.0,131.0,211.0,130.5,219.5,129.5,227.0,129.0" stroke="black" stroke-width="2" fill="none" />
<polyline points="180.0,121.5,171.5,122.5,163.5,123.5,155.5,124.0,148.0,124.5,140.0,125.5,132.0,125.5,124.0,126.0,116.5,126.0,108.5,126.5,100.5,126.5,92.5,126.5,84.0,126.5,76.0,127.5,68.0,128.5,60.5,129.5,52.5,130.5,44.0,131.0,35.5,131.5,27.5,132.5,19.5,132.5,12.5,133.0,4.5,133.5" stroke="black" stroke-width="2" fill="none" />
<polyline points="2.0,128.5,10.0,128.5" stroke="black" stroke-width="2" fill="none" />
<polyline points="1.5,93.5,9.5,92.5,18.0,92.0,26.5,91.5,35.0,90.0,43.5,89.5,51.5,89.0,59.5,88.5,67.5,88.0,76.0,87.5,84.0,87.0,91.5,86.5,99.5,86.0,108.0,85.5,116.0,85.0,124.5,84.0,132.5,84.0,141.0,83.0,149.0,83.0,157.0,83.0,165.0,82.5,172.5,81.5,180.5,81.0,188.0,81.0" stroke="black" stroke-width="2" fill="none" />
</svg>