<svg xmlns="http://www.w3.org/2000/svg" version="1.1"><polyline points="1.5,181.0,10.5,181.0,18.5,181.0,27.0,180.5,35.5,180.0,44.0,179.5,52.0,179.5,60.5,178.5,68.5,178.0,76.0,177.5,84.5,177.5,92.5,176.5,101.0,175.5,109.0,175.0,117.5,174.5,126.0,173.5,133.5,173.0" stroke="black" stroke-width="2" fill="none" />
<polyline points="131.0,171.5,123.0,179.0" stroke="black" stroke-width="2" fill="none" />
<polyline points="115.5,182.0,107.5,189.0,99.5,196.0,92.0,203.0,83.5,210.0,76.0,217.5,67.5,225.0,59.0,233.0,50.5,241.0,42.5,249.0,34.0,256.5,26.5,264.0,18.5,271.0,10.5,277.5,3.5,284.5" stroke="black" stroke-width="2" fill="none" />
<polyline points="1.0,285.0,8.5,285.0,16.5,285.0,24.5,285.0,33.0,285.0,41.5,285.0,49.5,284.0,58.0,283.0,66.0,282.0,74.5,281.0,82.5,280.5,91.0,279.5" stroke="black" stroke-width="2" fill="none" />
<polyline points="68.5,287.5,77.0,280.5,85.5,273.0,93.5,266.0,101.5,259.0,109.5,251.5,117.0,244.0,125.0,236.5" stroke="black" stroke-width="2" fill="none" />
<polyline points="125.5,242.5,117.0,250.5" stroke="black" stroke-width="2" fill="none" />
<polyline points="106.0,258.0,98.5,265.5,90.5,273.0" stroke="black" stroke-width="2" fill="none" />
<polyline points="59.5,286.5,68.0,279.0,76.0,271.5,83.5,264.0,91.5,256.5,99.5,249.5,107.0,242.0,115.0,235.0,123.0,228.0,130.5,220.0,138.5,212.5" stroke="black" stroke-width="2" fill="none" />
<polyline points="132.0,212.5,124.0,220.0,115.5,227.0,107.5,234.0,98.5,241.5,90.5,249.0,82.5,257.0,74.5,264.5,66.0,272.0,58.0,279.5,50.0,287.0,41.5,294.5" stroke="black" stroke-width="2" fill="none" />
<polyline points="43.5,284.0,51.5,277.0,59.5,269.5,67.5,262.5,75.5,255.5,83.5,249.0,91.5,242.0,99.5,234.5,107.5,227.0,115.5,219.5,123.0,211.5,131.0,203.5" stroke="black" stroke-width="2" fill="none" />
<polyline points="125.0,203.5,117.0,211.0,108.5,218.5,101.0,226.0,93.0,233.5,85.5,241.5,77.5,249.0,69.5,256.5,61.5,264.5,53.5,272.0,45.5,279.5,37.5,287.0" stroke="black" stroke-width="2" fill="none" />
<polyline points="26.0,287.0,34.0,279.0,42.0,272.0,51.0,264.5,59.5,257.5,68.0,250.0,76.0,243.0,84.0,235.5,91.5,227.5,99.5,220.0,107.5,212.5,115.5,205.0" stroke="black" stroke-width="2" fill="none" />
<polyline points="114.5,195.5,106.5,203.0,99.0,211.0,91.0,219.0,83.0,226.5,75.5,234.0,67.0,241.5,59.0,248.5,50.5,256.0,42.0,263.5,33.5,270.5,26.0,278.5,18.0,286.5" stroke="black" stroke-width="2" fill="none" />
<polyline points="11.5,285.0,19.0,278.5,27.0,271.5,35.0,264.5,43.0,257.0,51.0,249.0,59.0,241.5,67.0,233.0,75.0,225.5,83.0,218.0,92.0,211.0,100.0,203.5,108.5,196.0,116.0,189.0" stroke="black" stroke-width="2" fill="none" />
<polyline points="106.5,179.5,98.5,186.5,90.5,194.0,83.5,201.5,76.0,209.0,68.0,216.5,60.0,225.0,52.0,233.0,44.0,241.0,36.0,248.5,28.0,256.0,19.5,263.5,11.5,270.5,3.5,277.0" stroke="black" stroke-width="2" fill="none" />
<polyline points="1.5,275.0,9.5,275.0,18.5,275.0,27.0,275.0,35.5,275.0,44.0,274.5,52.5,275.0,61.0,275.5,69.0,275.5,77.0,275.0,85.5,274.5,93.5,274.0,101.0,273.5,109.5,273.0" stroke="black" stroke-width="2" fill="none" />
<polyline points="52.0,312.5,43.5,320.5,35.5,328.5,27.5,336.5,19.5,344.5,11.5,352.0,2.5,360.0" stroke="black" stroke-width="2" fill="none" />
<polyline points="3.5,361.0,12.0,360.5,20.0,360.0,28.5,359.0,36.5,358.5,44.5,358.0,53.0,358.0,60.5,357.5,68.5,357.5" stroke="black" stroke-width="2" fill="none" />
<polyline points="68.0,355.5,60.0,363.0,52.5,370.0,44.5,377.5,36.5,384.5,28.5,392.5,20.5,400.0,12.5,408.0,4.0,415.5" stroke="black" stroke-width="2" fill="none" />
<polyline points="4.0,414.5,12.5,413.5,21.0,413.0,28.5,412.5,36.0,412.0,44.0,411.5,52.0,411.5,61.0,410.5" stroke="black" stroke-width="2" fill="none" />
<polyline points="59.0,409.5,51.0,417.0,43.0,424.5" stroke="black" stroke-width="2" fill="none" />
<polyline points="26.5,424.5,34.5,417.0,43.0,409.5,51.5,401.5,60.0,393.5,68.0,386.5" stroke="black" stroke-width="2" fill="none" />
<polyline points="67.5,379.5,59.5,387.0,51.5,394.0,43.0,402.0,35.5,409.5,28.0,417.0,20.0,424.5" stroke="black" stroke-width="2" fill="none" />
<polyline points="19.5,424.0,27.5,423.5,36.0,423.0,44.0,423.0,52.5,422.5" stroke="black" stroke-width="2" fill="none" />
<polyline points="35.5,426.0,43.5,418.5,51.0,411.0,58.5,403.5" stroke="black" stroke-width="2" fill="none" />
<polyline points="73.0,423.5,81.5,422.5,90.0,422.0" stroke="black" stroke-width="2" fill="none" />
<polyline points="93.5,414.0,85.5,414.5" stroke="black" stroke-width="2" fill="none" />
<polyline points="86.0,406.0,94.0,405.5,101.5,404.5" stroke="black" stroke-width="2" fill="none" />
<polyline points="100.5,397.0,92.5,397.5" stroke="black" stroke-width="2" fill="none" />
<polyline points="99.0,390.5,107.0,390.0" stroke="black" stroke-width="2" fill="none" />
<polyline points="116.0,364.0,124.0,363.5" stroke="black" stroke-width="2" fill="none" />
<polyline points="146.5,364.5,154.5,364.5" stroke="black" stroke-width="2" fill="none" />
<polyline points="157.0,364.5,149.0,372.5" stroke="black" stroke-width="2" fill="none" />
<polyline points="171.0,357.0,179.5,350.0" stroke="black" stroke-width="2" fill="none" />
<polyline points="178.5,352.5,170.5,353.0" stroke="black" stroke-width="2" fill="none" />
<polyline points="170.0,349.0,178.0,348.5" stroke="black" stroke-width="2" fill="none" />
<polyline points="182.0,389.0,190.0,388.5" stroke="black" stroke-width="2" fill="none" />
<polyline points="187.0,389.5,179.0,396.5" stroke="black" stroke-width="2" fill="none" />
<polyline points="172.0,412.5,164.0,420.0" stroke="black" stroke-width="2" fill="none" />
<polyline points="161.5,414.0,169.5,414.0,178.5,413.5" stroke="black" stroke-width="2" fill="none" />
<polyline points="164.0,421.0,156.0,422.0" stroke="black" stroke-width="2" fill="none" />
<polyline points="133.5,425.5,125.0,434.0" stroke="black" stroke-width="2" fill="none" />
<polyline points="123.5,429.5,131.0,428.5" stroke="black" stroke-width="2" fill="none" />
<polyline points="124.5,427.5,132.5,420.5" stroke="black" stroke-width="2" fill="none" />
<polyline points="132.0,412.5,140.0,405.0" stroke="black" stroke-width="2" fill="none" />
<polyline points="141.0,409.5,133.0,409.5" stroke="black" stroke-width="2" fill="none" />
<polyline points="132.5,406.5,140.0,406.0" stroke="black" stroke-width="2" fill="none" />
<polyline points="129.5,423.0,122.0,424.0" stroke="black" stroke-width="2" fill="none" />
<polyline points="122.0,421.5,130.0,421.0" stroke="black" stroke-width="2" fill="none" />
<polyline points="116.5,437.0,108.5,444.5" stroke="black" stroke-width="2" fill="none" />
<polyline points="108.0,441.5,116.0,440.5" stroke="black" stroke-width="2" fill="none" />
<polyline points="115.5,435.0,107.5,435.5,100.0,435.5,92.0,436.0" stroke="black" stroke-width="2" fill="none" />
<polyline points="124.5,463.5,132.5,463.0" stroke="black" stroke-width="2" fill="none" />
<polyline points="139.0,468.0,147.5,467.5" stroke="black" stroke-width="2" fill="none" />
<polyline points="145.0,476.5,153.0,476.0" stroke="black" stroke-width="2" fill="none" />
<polyline points="162.5,447.5,170.5,447.0" stroke="black" stroke-width="2" fill="none" />
<polyline points="195.0,459.0,203.5,459.0" stroke="black" stroke-width="2" fill="none" />
<polyline points="220.0,456.5,228.5,449.5" stroke="black" stroke-width="2" fill="none" />
<polyline points="229.5,448.0,237.5,447.5" stroke="black" stroke-width="2" fill="none" />
<polyline points="244.0,444.5,252.0,444.0" stroke="black" stroke-width="2" fill="none" />
<polyline points="257.5,444.5,266.0,444.0,274.0,443.0,282.5,442.5" stroke="black" stroke-width="2" fill="none" />
<polyline points="285.0,452.0,277.0,452.5" stroke="black" stroke-width="2" fill="none" />
<polyline points="268.0,445.5,260.5,453.0" stroke="black" stroke-width="2" fill="none" />
<polyline points="260.0,452.5,267.5,452.0" stroke="black" stroke-width="2" fill="none" />
<polyline points="259.0,443.5,267.0,436.0" stroke="black" stroke-width="2" fill="none" />
<polyline points="267.0,439.5,259.5,440.0" stroke="black" stroke-width="2" fill="none" />
<polyline points="261.0,438.0,268.5,437.0,276.5,436.0" stroke="black" stroke-width="2" fill="none" />
<polyline points="283.0,427.0,275.0,428.0,267.5,428.5" stroke="black" stroke-width="2" fill="none" />
<polyline points="267.5,421.5,275.0,421.0" stroke="black" stroke-width="2" fill="none" />
<polyline points="282.0,420.0,290.0,420.0" stroke="black" stroke-width="2" fill="none" />
<polyline points="290.5,412.5,282.5,413.0" stroke="black" stroke-width="2" fill="none" />
<polyline points="284.5,403.0,277.0,403.0" stroke="black" stroke-width="2" fill="none" />
<polyline points="268.0,396.5,275.5,396.0,283.0,396.0,291.0,396.0,299.0,396.0" stroke="black" stroke-width="2" fill="none" />
<polyline points="283.0,387.0,291.0,379.0" stroke="black" stroke-width="2" fill="none" />
<polyline points="290.5,375.0,298.5,375.0,306.5,375.0,315.0,374.5,323.0,374.0" stroke="black" stroke-width="2" fill="none" />
<polyline points="332.0,374.5,339.5,374.0" stroke="black" stroke-width="2" fill="none" />
<polyline points="338.0,381.5,345.5,381.0" stroke="black" stroke-width="2" fill="none" />
<polyline points="363.0,388.0,371.0,387.5" stroke="black" stroke-width="2" fill="none" />
<polyline points="370.5,397.0,362.5,397.0" stroke="black" stroke-width="2" fill="none" />
<polyline points="371.5,413.0,379.5,412.5" stroke="black" stroke-width="2" fill="none" />
<polyline points="388.5,404.5,396.5,404.0,404.0,403.5,412.0,403.0,419.5,403.0" stroke="black" stroke-width="2" fill="none" />
<polyline points="426.0,409.5,434.0,401.5" stroke="black" stroke-width="2" fill="none" />
<polyline points="436.0,398.5,444.0,398.0" stroke="black" stroke-width="2" fill="none" />
<polyline points="451.5,402.0,443.5,410.0" stroke="black" stroke-width="2" fill="none" />
<polyline points="441.0,411.5,449.0,411.0" stroke="black" stroke-width="2" fill="none" />
<polyline points="458.5,421.0,466.5,421.0,474.0,420.5,482.5,420.0,491.5,419.0,500.5,418.5,508.5,418.0,517.0,417.0" stroke="black" stroke-width="2" fill="none" />
<polyline points="506.0,420.5,498.0,428.0,490.5,435.0" stroke="black" stroke-width="2" fill="none" />
<polyline points="490.5,433.5,498.5,433.0,506.5,432.5" stroke="black" stroke-width="2" fill="none" />
<polyline points="505.0,427.5,497.5,435.0,490.0,442.5" stroke="black" stroke-width="2" fill="none" />
<polyline points="490.5,442.5,498.5,442.0" stroke="black" stroke-width="2" fill="none" />
<polyline points="498.5,443.5,506.5,436.5,514.0,428.5" stroke="black" stroke-width="2" fill="none" />
<polyline points="514.0,451.0,506.0,458.5" stroke="black" stroke-width="2" fill="none" />
<polyline points="507.0,457.5,500.0,458.0" stroke="black" stroke-width="2" fill="none" />
<polyline points="498.5,459.0,506.5,451.5" stroke="black" stroke-width="2" fill="none" />
<polyline points="499.0,453.5,507.0,453.5,515.0,453.5" stroke="black" stroke-width="2" fill="none" />
<polyline points="513.5,469.5,505.5,470.0" stroke="black" stroke-width="2" fill="none" />
<polyline points="501.0,470.0,493.5,471.0" stroke="black" stroke-width="2" fill="none" />
<polyline points="485.0,460.5,477.0,467.5" stroke="black" stroke-width="2" fill="none" />
<polyline points="475.0,471.0,482.5,470.5" stroke="black" stroke-width="2" fill="none" />
<polyline points="482.5,479.0,474.0,479.0" stroke="black" stroke-width="2" fill="none" />
<polyline points="459.0,466.0,467.5,458.0,476.0,450.5" stroke="black" stroke-width="2" fill="none" />
<polyline points="481.5,435.0,489.5,427.5" stroke="black" stroke-width="2" fill="none" />
<polyline points="475.5,419.0,468.0,427.0" stroke="black" stroke-width="2" fill="none" />
<polyline points="467.5,424.5,475.5,424.5" stroke="black" stroke-width="2" fill="none" />
<polyline points="483.0,406.5,491.0,406.0,499.5,405.0,508.0,404.5,516.5,404.0" stroke="black" stroke-width="2" fill="none" />
<polyline points="508.5,396.0,516.5,389.0" stroke="black" stroke-width="2" fill="none" />
<polyline points="505.0,388.5,497.5,396.0" stroke="black" stroke-width="2" fill="none" />
<polyline points="500.0,398.5,508.0,397.5,516.0,397.0" stroke="black" stroke-width="2" fill="none" />
<polyline points="513.5,381.0,505.0,382.0" stroke="black" stroke-width="2" fill="none" />
<polyline points="500.0,391.0,508.0,391.0,516.0,390.5" stroke="black" stroke-width="2" fill="none" />
<polyline points="507.5,373.0,499.5,373.0" stroke="black" stroke-width="2" fill="none" />
<polyline points="499.5,366.5,508.0,365.5,516.0,365.0" stroke="black" stroke-width="2" fill="none" />
<polyline points="499.5,382.0,492.0,382.5" stroke="black" stroke-width="2" fill="none" />
<polyline points="483.5,372.5,476.0,380.0" stroke="black" stroke-width="2" fill="none" />
<polyline points="476.0,382.0,484.5,381.5" stroke="black" stroke-width="2" fill="none" />
<polyline points="485.5,378.0,478.0,379.0" stroke="black" stroke-width="2" fill="none" />
<polyline points="476.5,390.0,484.5,389.5" stroke="black" stroke-width="2" fill="none" />
<polyline points="473.5,405.0,466.0,405.0" stroke="black" stroke-width="2" fill="none" />
<polyline points="466.5,396.0,474.5,395.5,482.5,395.5,490.5,395.5" stroke="black" stroke-width="2" fill="none" />
<polyline points="484.5,367.5,476.0,368.0" stroke="black" stroke-width="2" fill="none" />
<polyline points="483.0,372.0,474.5,372.0,466.5,372.5" stroke="black" stroke-width="2" fill="none" />
<polyline points="461.0,365.0,453.0,365.5" stroke="black" stroke-width="2" fill="none" />
<polyline points="452.5,358.5,460.5,358.0,468.0,357.5,475.5,357.0" stroke="black" stroke-width="2" fill="none" />
<polyline points="484.0,357.5,492.0,357.0,500.0,357.0,508.0,356.5" stroke="black" stroke-width="2" fill="none" />
<polyline points="509.0,348.0,501.0,348.0,492.5,348.0,484.5,348.0" stroke="black" stroke-width="2" fill="none" />
<polyline points="476.5,335.0,484.5,334.5,492.5,333.5,500.0,332.5,507.5,331.5" stroke="black" stroke-width="2" fill="none" />
<polyline points="506.5,331.5,514.0,323.5" stroke="black" stroke-width="2" fill="none" />
<polyline points="516.5,315.5,508.5,316.5,500.0,317.0" stroke="black" stroke-width="2" fill="none" />
<polyline points="501.0,309.0,509.0,308.5,517.0,308.0" stroke="black" stroke-width="2" fill="none" />
<polyline points="515.5,292.0,507.5,292.5" stroke="black" stroke-width="2" fill="none" />
<polyline points="507.0,284.5,515.0,277.0" stroke="black" stroke-width="2" fill="none" />
<polyline points="491.0,281.5,482.5,289.0" stroke="black" stroke-width="2" fill="none" />
<polyline points="486.5,289.0,494.5,288.5" stroke="black" stroke-width="2" fill="none" />
<polyline points="490.0,291.5,482.0,299.0" stroke="black" stroke-width="2" fill="none" />
<polyline points="485.0,296.5,493.5,296.5" stroke="black" stroke-width="2" fill="none" />
<polyline points="500.5,301.0,508.5,301.0,516.5,301.0" stroke="black" stroke-width="2" fill="none" />
<polyline points="516.0,324.0,508.0,325.0,499.5,325.5,491.0,325.5" stroke="black" stroke-width="2" fill="none" />
<polyline points="491.5,310.0,483.0,310.5,475.5,311.0" stroke="black" stroke-width="2" fill="none" />
<polyline points="475.5,302.5,483.0,302.0,491.0,301.5" stroke="black" stroke-width="2" fill="none" />
<polyline points="475.0,287.5,482.5,286.5,490.5,285.5,498.5,284.5,506.0,283.0,514.5,282.0" stroke="black" stroke-width="2" fill="none" />
<polyline points="515.0,268.0,507.0,268.0,499.0,268.0,491.0,268.0" stroke="black" stroke-width="2" fill="none" />
<polyline points="491.0,260.5,499.0,260.0,506.5,260.0,514.5,260.0" stroke="black" stroke-width="2" fill="none" />
<polyline points="516.0,244.0,508.0,244.0,500.0,244.0,492.0,244.5" stroke="black" stroke-width="2" fill="none" />
<polyline points="484.0,236.5,492.0,236.0,500.5,236.0,508.5,235.5,516.5,234.5" stroke="black" stroke-width="2" fill="none" />
<polyline points="517.0,220.0,509.0,220.5" stroke="black" stroke-width="2" fill="none" />
<polyline points="507.0,213.5,515.0,213.0" stroke="black" stroke-width="2" fill="none" />
<polyline points="508.0,204.5,500.0,205.0" stroke="black" stroke-width="2" fill="none" />
<polyline points="501.5,221.5,493.0,222.0" stroke="black" stroke-width="2" fill="none" />
<polyline points="493.5,230.0,501.5,230.0,510.0,230.0,517.5,229.5" stroke="black" stroke-width="2" fill="none" />
<polyline points="516.5,252.0,508.0,253.0,499.0,253.5,491.0,253.5,483.0,254.0" stroke="black" stroke-width="2" fill="none" />
<polyline points="476.0,235.5,468.0,236.0" stroke="black" stroke-width="2" fill="none" />
<polyline points="476.5,222.0,484.0,221.0" stroke="black" stroke-width="2" fill="none" />
<polyline points="484.0,212.5,492.0,212.0" stroke="black" stroke-width="2" fill="none" />
<polyline points="476.0,196.5,485.0,189.5" stroke="black" stroke-width="2" fill="none" />
<polyline points="492.5,181.0,500.5,180.5,508.0,180.0,516.0,179.0" stroke="black" stroke-width="2" fill="none" />
<polyline points="516.5,171.0,508.5,171.5,501.0,172.0" stroke="black" stroke-width="2" fill="none" />
<polyline points="492.0,173.0,483.5,173.5" stroke="black" stroke-width="2" fill="none" />
<polyline points="486.0,180.5,478.0,180.5" stroke="black" stroke-width="2" fill="none" />
<polyline points="458.0,189.5,450.5,197.0" stroke="black" stroke-width="2" fill="none" />
<polyline points="443.5,196.0,451.5,188.5" stroke="black" stroke-width="2" fill="none" />
<polyline points="443.5,189.0,451.0,189.0,459.5,188.5,467.5,188.0,475.0,187.5,483.0,187.0,491.0,186.5,499.0,186.0,506.5,185.0,514.0,184.5" stroke="black" stroke-width="2" fill="none" />
<polyline points="467.0,212.0,459.0,212.5" stroke="black" stroke-width="2" fill="none" />
<polyline points="459.5,193.5,450.5,194.0,442.5,194.5" stroke="black" stroke-width="2" fill="none" />
<polyline points="434.0,195.0,426.5,203.0" stroke="black" stroke-width="2" fill="none" />
<polyline points="427.5,201.0,435.5,200.5" stroke="black" stroke-width="2" fill="none" />
<polyline points="435.0,202.0,427.0,209.5" stroke="black" stroke-width="2" fill="none" />
<polyline points="427.5,209.0,435.5,208.0" stroke="black" stroke-width="2" fill="none" />
<polyline points="435.5,223.0,443.5,222.5" stroke="black" stroke-width="2" fill="none" />
<polyline points="443.5,246.5,435.5,246.5" stroke="black" stroke-width="2" fill="none" />
<polyline points="435.5,256.0,444.0,255.5,452.0,254.5,460.0,254.0,467.5,253.0,475.5,252.0" stroke="black" stroke-width="2" fill="none" />
<polyline points="461.0,245.5,453.0,246.0" stroke="black" stroke-width="2" fill="none" />
<polyline points="444.5,261.0,452.5,260.5,460.5,260.0,468.0,260.0" stroke="black" stroke-width="2" fill="none" />
<polyline points="484.5,278.5,492.0,277.5,500.0,276.5,508.0,275.5,516.0,274.5" stroke="black" stroke-width="2" fill="none" />
<polyline points="500.5,291.5,492.5,291.5,484.0,292.0,475.0,292.0,467.5,292.0" stroke="black" stroke-width="2" fill="none" />
<polyline points="452.0,298.5,444.0,306.5" stroke="black" stroke-width="2" fill="none" />
<polyline points="444.0,307.0,452.0,306.5" stroke="black" stroke-width="2" fill="none" />
<polyline points="451.5,301.0,443.0,302.0" stroke="black" stroke-width="2" fill="none" />
<polyline points="442.0,293.5,450.5,293.0" stroke="black" stroke-width="2" fill="none" />
<polyline points="444.5,270.0,452.0,269.0,459.5,268.5" stroke="black" stroke-width="2" fill="none" />
<polyline points="419.0,293.0,411.0,300.5" stroke="black" stroke-width="2" fill="none" />
<polyline points="411.5,298.0,419.0,297.5" stroke="black" stroke-width="2" fill="none" />
<polyline points="404.5,292.0,396.5,299.5" stroke="black" stroke-width="2" fill="none" />
<polyline points="396.5,300.0,404.5,299.5,412.5,299.0" stroke="black" stroke-width="2" fill="none" />
<polyline points="405.0,295.0,396.5,296.0" stroke="black" stroke-width="2" fill="none" />
<polyline points="397.0,292.5,405.0,292.0,412.5,292.0,420.5,291.0" stroke="black" stroke-width="2" fill="none" />
<polyline points="403.5,284.5,396.0,292.0" stroke="black" stroke-width="2" fill="none" />
<polyline points="396.0,290.0,404.0,289.0" stroke="black" stroke-width="2" fill="none" />
<polyline points="404.5,275.5,412.5,275.0,420.5,275.5" stroke="black" stroke-width="2" fill="none" />
<polyline points="428.0,270.0,420.0,270.5,412.0,270.5" stroke="black" stroke-width="2" fill="none" />
<polyline points="411.5,261.0,419.5,260.5" stroke="black" stroke-width="2" fill="none" />
<polyline points="402.5,285.5,394.5,285.5,386.0,286.0" stroke="black" stroke-width="2" fill="none" />
<polyline points="379.0,286.5,371.0,287.0" stroke="black" stroke-width="2" fill="none" />
<polyline points="363.5,270.0,372.0,269.0,379.5,268.5,387.5,268.0" stroke="black" stroke-width="2" fill="none" />
<polyline points="386.5,259.0,378.0,259.0" stroke="black" stroke-width="2" fill="none" />
<polyline points="379.0,253.5,387.0,253.0" stroke="black" stroke-width="2" fill="none" />
<polyline points="388.0,245.5,380.0,246.0,372.0,246.0,364.0,246.5" stroke="black" stroke-width="2" fill="none" />
<polyline points="355.5,237.0,347.0,238.0" stroke="black" stroke-width="2" fill="none" />
<polyline points="347.0,229.0,355.0,228.5" stroke="black" stroke-width="2" fill="none" />
<polyline points="355.5,228.5,363.0,221.0" stroke="black" stroke-width="2" fill="none" />
<polyline points="356.0,223.0,364.5,223.0,372.0,222.5" stroke="black" stroke-width="2" fill="none" />
<polyline points="379.0,215.5,386.5,214.5" stroke="black" stroke-width="2" fill="none" />
<polyline points="387.0,195.0,395.0,187.5" stroke="black" stroke-width="2" fill="none" />
<polyline points="389.0,187.5,381.0,195.0" stroke="black" stroke-width="2" fill="none" />
<polyline points="378.5,195.0,386.0,194.0,394.0,193.0" stroke="black" stroke-width="2" fill="none" />
<polyline points="404.0,204.0,412.0,203.5" stroke="black" stroke-width="2" fill="none" />
<polyline points="420.0,204.5,428.0,204.0,436.0,204.0,444.0,204.0,451.0,203.5,459.0,203.0,467.0,202.5,475.0,202.5,483.0,202.0" stroke="black" stroke-width="2" fill="none" />
<polyline points="436.5,189.5,429.0,190.0" stroke="black" stroke-width="2" fill="none" />
<polyline points="419.0,197.0,427.0,196.5,435.0,196.0,443.0,195.5,452.0,195.5,460.5,195.0,469.0,194.5,477.0,194.0,484.5,193.0,492.5,193.0,500.5,192.0,508.5,191.5,516.5,191.0" stroke="black" stroke-width="2" fill="none" />
<polyline points="509.5,117.5,501.5,118.0" stroke="black" stroke-width="2" fill="none" />
<polyline points="491.5,114.5,499.5,107.0,508.0,99.5,516.5,92.0" stroke="black" stroke-width="2" fill="none" />
<polyline points="516.5,82.5,508.5,90.0,500.5,97.5" stroke="black" stroke-width="2" fill="none" />
<polyline points="502.0,106.5,509.5,106.0" stroke="black" stroke-width="2" fill="none" />
<polyline points="506.5,108.0,498.5,115.5" stroke="black" stroke-width="2" fill="none" />
<polyline points="491.0,105.5,483.0,113.0" stroke="black" stroke-width="2" fill="none" />
<polyline points="483.5,113.0,492.0,112.5,499.5,112.0" stroke="black" stroke-width="2" fill="none" />
<polyline points="485.0,106.5,476.5,114.5" stroke="black" stroke-width="2" fill="none" />
<polyline points="475.5,106.0,483.5,98.5" stroke="black" stroke-width="2" fill="none" />
<polyline points="475.0,101.5,467.5,109.0" stroke="black" stroke-width="2" fill="none" />
<polyline points="467.5,109.0,475.5,108.5,483.5,108.0,492.0,108.0,501.0,108.0,509.5,108.0,517.0,107.5" stroke="black" stroke-width="2" fill="none" />
<polyline points="507.5,66.0,515.5,59.0" stroke="black" stroke-width="2" fill="none" />
<polyline points="513.0,52.0,505.0,60.0,497.5,67.5,489.5,74.5,481.5,81.5" stroke="black" stroke-width="2" fill="none" />
<polyline points="475.0,80.0,483.0,72.5,490.5,65.0,498.5,57.5,506.5,50.5,514.5,43.5" stroke="black" stroke-width="2" fill="none" />
<polyline points="508.5,42.5,516.5,35.0" stroke="black" stroke-width="2" fill="none" />
<polyline points="506.5,26.5,499.0,34.5" stroke="black" stroke-width="2" fill="none" />
<polyline points="505.5,32.0,497.5,33.0,489.0,34.0" stroke="black" stroke-width="2" fill="none" />
<polyline points="491.5,26.0,499.5,18.0,507.5,10.5,515.5,3.0" stroke="black" stroke-width="2" fill="none" />
<polyline points="506.5,3.0,498.5,10.0,490.0,17.0,482.0,24.5" stroke="black" stroke-width="2" fill="none" />
<polyline points="491.5,25.5,499.5,25.0" stroke="black" stroke-width="2" fill="none" />
<polyline points="492.5,19.0,501.0,18.5,508.5,17.5" stroke="black" stroke-width="2" fill="none" />
<polyline points="515.0,12.0,506.5,19.0,498.5,26.5,490.5,34.0,482.5,42.0,475.0,50.0" stroke="black" stroke-width="2" fill="none" />
<polyline points="483.5,51.0,491.5,50.0" stroke="black" stroke-width="2" fill="none" />
<polyline points="492.5,44.0,484.5,51.5" stroke="black" stroke-width="2" fill="none" />
<polyline points="482.5,59.5,474.5,67.0" stroke="black" stroke-width="2" fill="none" />
<polyline points="476.0,73.0,484.5,72.5,492.5,72.5,500.5,72.0" stroke="black" stroke-width="2" fill="none" />
<polyline points="508.0,64.5,499.5,65.5,491.5,66.0" stroke="black" stroke-width="2" fill="none" />
<polyline points="490.5,59.0,498.5,51.0" stroke="black" stroke-width="2" fill="none" />
<polyline points="502.0,58.0,509.5,58.0,517.0,57.0" stroke="black" stroke-width="2" fill="none" />
<polyline points="482.5,67.0,474.5,74.5" stroke="black" stroke-width="2" fill="none" />
<polyline points="466.5,89.5,459.0,97.5,450.5,105.0" stroke="black" stroke-width="2" fill="none" />
<polyline points="460.0,107.5,468.0,100.0" stroke="black" stroke-width="2" fill="none" />
<polyline points="460.5,103.5,468.0,103.0,476.5,103.0" stroke="black" stroke-width="2" fill="none" />
<polyline points="445.0,91.5,436.5,99.0" stroke="black" stroke-width="2" fill="none" />
<polyline points="435.0,103.0,443.5,102.0,451.0,101.0,459.5,100.5,467.5,100.0,475.5,99.0,483.5,98.0,492.0,97.5,499.5,97.5,507.0,97.5,515.0,97.0" stroke="black" stroke-width="2" fill="none" />
<polyline points="491.0,42.5,482.5,43.0" stroke="black" stroke-width="2" fill="none" />
<polyline points="468.0,29.0,459.5,36.5" stroke="black" stroke-width="2" fill="none" />
<polyline points="452.5,36.5,460.5,29.0" stroke="black" stroke-width="2" fill="none" />
<polyline points="450.5,27.5,442.5,35.0,433.5,42.5" stroke="black" stroke-width="2" fill="none" />
<polyline points="429.5,41.5,437.5,41.0" stroke="black" stroke-width="2" fill="none" />
<polyline points="441.5,45.0,433.5,52.0" stroke="black" stroke-width="2" fill="none" />
<polyline points="442.0,59.0,450.5,51.5" stroke="black" stroke-width="2" fill="none" />
<polyline points="449.5,42.5,441.5,50.0,433.5,57.5" stroke="black" stroke-width="2" fill="none" />
<polyline points="428.5,69.5,436.5,69.0,444.0,68.0,452.0,67.5,460.0,67.5,468.0,67.5,476.0,67.0,484.5,66.5,492.0,65.5,499.5,65.0,507.0,64.5,515.5,64.0" stroke="black" stroke-width="2" fill="none" />
<polyline points="501.5,10.5,493.5,11.5" stroke="black" stroke-width="2" fill="none" />
<polyline points="491.0,11.5,499.0,4.0" stroke="black" stroke-width="2" fill="none" />
<polyline points="482.0,2.5,474.0,9.5" stroke="black" stroke-width="2" fill="none" />
<polyline points="475.0,9.5,483.5,9.0" stroke="black" stroke-width="2" fill="none" />
<polyline points="451.5,19.5,443.5,27.0,435.5,35.0,427.0,42.5" stroke="black" stroke-width="2" fill="none" />
<polyline points="419.5,43.5,427.5,36.0,435.5,28.0,443.5,20.0" stroke="black" stroke-width="2" fill="none" />
<polyline points="444.0,27.0,452.0,26.0" stroke="black" stroke-width="2" fill="none" />
<polyline points="451.0,33.5,459.5,33.0,468.0,32.5" stroke="black" stroke-width="2" fill="none" />
<polyline points="435.0,19.5,427.5,27.0" stroke="black" stroke-width="2" fill="none" />
<polyline points="429.0,25.0,437.0,24.5" stroke="black" stroke-width="2" fill="none" />
<polyline points="435.5,33.5,427.5,34.0" stroke="black" stroke-width="2" fill="none" />
<polyline points="411.0,34.0,403.0,41.5,394.5,49.0" stroke="black" stroke-width="2" fill="none" />
<polyline points="397.0,50.0,404.5,49.5" stroke="black" stroke-width="2" fill="none" />
<polyline points="411.0,53.5,419.0,53.0,427.5,52.5,435.5,52.0,443.5,51.5,451.5,51.0,459.5,51.0,467.5,51.0,475.5,51.5,483.5,51.0,491.5,51.0,500.0,50.5,508.0,49.5,516.0,49.0" stroke="black" stroke-width="2" fill="none" />
<polyline points="514.5,72.0,506.0,73.0,498.0,74.0,491.0,75.0,483.0,75.5,475.0,76.0,467.0,77.0,459.5,78.0,452.5,79.0,444.5,79.5" stroke="black" stroke-width="2" fill="none" />
<polyline points="444.5,83.0,436.5,91.0,428.5,99.0" stroke="black" stroke-width="2" fill="none" />
<polyline points="428.0,96.5,435.5,96.5,443.5,96.5" stroke="black" stroke-width="2" fill="none" />
<polyline points="443.5,89.5,435.5,90.0" stroke="black" stroke-width="2" fill="none" />
<polyline points="425.5,92.5,417.5,99.5" stroke="black" stroke-width="2" fill="none" />
<polyline points="411.5,93.0,419.5,93.0,427.5,92.5,436.0,92.0,444.0,91.5,452.0,90.5,460.5,90.0,469.5,89.5,477.5,89.0,485.5,88.0,493.5,87.5,501.0,87.5,508.5,87.5,516.0,87.0" stroke="black" stroke-width="2" fill="none" />
<polyline points="420.0,83.0,411.5,90.5" stroke="black" stroke-width="2" fill="none" />
<polyline points="410.5,83.0,402.5,90.5" stroke="black" stroke-width="2" fill="none" />
<polyline points="402.5,88.0,410.5,87.5" stroke="black" stroke-width="2" fill="none" />
<polyline points="402.5,75.0,394.5,82.5" stroke="black" stroke-width="2" fill="none" />
<polyline points="388.5,83.5,396.5,76.5" stroke="black" stroke-width="2" fill="none" />
<polyline points="389.0,76.5,381.0,84.0" stroke="black" stroke-width="2" fill="none" />
<polyline points="386.0,87.0,394.0,86.5,402.0,86.0,410.5,85.5,418.0,84.5,426.0,84.0,434.0,83.5,442.5,82.5,450.5,82.0,458.5,82.0,466.5,81.5,474.5,81.0,482.0,80.5,490.0,80.0,498.5,80.0,507.0,79.5,515.0,79.0" stroke="black" stroke-width="2" fill="none" />
<polyline points="515.0,56.0,507.5,56.5,499.5,57.5,491.5,58.0,483.0,59.0,475.0,58.5,467.0,59.0,458.5,59.5,450.0,60.0,442.0,60.5,434.0,61.0,426.0,61.5,418.0,62.0,410.0,62.5" stroke="black" stroke-width="2" fill="none" />
<polyline points="403.5,52.5,395.0,53.0" stroke="black" stroke-width="2" fill="none" />
<polyline points="397.5,42.0,405.0,41.0" stroke="black" stroke-width="2" fill="none" />
<polyline points="395.0,41.5,403.0,34.5,411.0,27.5" stroke="black" stroke-width="2" fill="none" />
<polyline points="397.0,19.5,389.0,27.0" stroke="black" stroke-width="2" fill="none" />
<polyline points="389.0,19.0,396.5,11.0" stroke="black" stroke-width="2" fill="none" />
<polyline points="379.0,2.0,371.0,9.5" stroke="black" stroke-width="2" fill="none" />
<polyline points="370.0,9.5,378.0,9.0" stroke="black" stroke-width="2" fill="none" />
<polyline points="363.0,7.0,370.5,6.0,378.5,5.5,386.5,5.0,395.0,4.5,403.5,4.0,411.5,3.0,419.5,2.0,428.0,1.5,436.5,1.0,445.0,0.5,453.0,0.0,460.5,-1.0,468.0,-1.5,476.0,-1.5,483.0,-2.0,491.0,-2.5,499.0,-3.0,507.0,-3.0,515.5,-3.5" stroke="black" stroke-width="2" fill="none" />
<polyline points="388.5,36.5,380.5,44.0" stroke="black" stroke-width="2" fill="none" />
<polyline points="369.5,46.5,378.0,46.0,386.0,45.0,394.5,44.5,403.0,44.0,411.5,44.5,419.5,44.0,427.5,43.0,435.5,42.5,444.0,41.5,452.0,41.0,460.0,40.0,468.0,40.0,476.0,39.5,484.0,39.0,492.0,38.0,499.5,37.5,508.0,36.5,516.0,35.5" stroke="black" stroke-width="2" fill="none" />
<polyline points="380.5,27.0,372.5,34.5" stroke="black" stroke-width="2" fill="none" />
<polyline points="362.5,46.5,354.5,47.0" stroke="black" stroke-width="2" fill="none" />
<polyline points="354.5,39.0,362.5,38.5,370.5,38.0,378.5,37.5,386.0,37.0,394.0,37.0,402.0,36.5,410.5,35.5,418.5,35.0,427.0,34.5,435.5,34.5,443.0,34.0,450.5,33.0,459.0,32.5,467.5,31.5,476.0,30.5,484.0,30.0,492.5,29.5,501.0,29.0,509.5,29.0,517.0,28.0" stroke="black" stroke-width="2" fill="none" />
<polyline points="381.5,59.5,373.0,67.0,364.5,74.0" stroke="black" stroke-width="2" fill="none" />
<polyline points="364.5,68.5,356.5,76.0" stroke="black" stroke-width="2" fill="none" />
<polyline points="356.0,79.5,363.5,79.5,371.5,78.5,379.0,77.5,387.5,77.0,395.5,76.5,404.0,76.0,412.0,75.0,420.0,74.0,427.5,73.5,435.0,72.5" stroke="black" stroke-width="2" fill="none" />
<polyline points="380.5,77.0,373.0,84.5" stroke="black" stroke-width="2" fill="none" />
<polyline points="370.5,82.5,378.5,82.5,386.5,81.5" stroke="black" stroke-width="2" fill="none" />
<polyline points="371.0,77.5,363.0,84.5" stroke="black" stroke-width="2" fill="none" />
<polyline points="371.5,72.5,363.5,73.0,356.0,73.5,348.0,74.0" stroke="black" stroke-width="2" fill="none" />
<polyline points="345.5,75.5,353.0,68.0" stroke="black" stroke-width="2" fill="none" />
<polyline points="347.5,67.5,339.5,75.0" stroke="black" stroke-width="2" fill="none" />
<polyline points="341.5,67.0,350.0,59.0" stroke="black" stroke-width="2" fill="none" />
<polyline points="340.5,59.5,332.5,67.5" stroke="black" stroke-width="2" fill="none" />
<polyline points="329.5,68.0,338.0,67.0,347.0,66.5,355.0,66.5,363.5,66.5,371.5,67.0,379.0,66.5,386.5,66.5,394.0,66.5,402.0,66.5,410.5,66.0,418.5,65.5" stroke="black" stroke-width="2" fill="none" />
<polyline points="380.0,66.0,371.5,67.0" stroke="black" stroke-width="2" fill="none" />
<polyline points="371.0,55.5,379.0,55.0,387.5,54.5" stroke="black" stroke-width="2" fill="none" />
<polyline points="355.0,21.5,347.0,29.0" stroke="black" stroke-width="2" fill="none" />
<polyline points="347.0,21.5,355.5,14.5" stroke="black" stroke-width="2" fill="none" />
<polyline points="349.5,11.5,341.0,19.5" stroke="black" stroke-width="2" fill="none" />
<polyline points="341.5,20.0,349.5,20.0,357.5,20.5,365.0,21.0,372.5,20.5,379.5,20.0,387.5,19.5,395.5,19.0,403.5,18.5,411.0,18.0,419.0,18.0,426.5,17.0,434.5,16.5,442.5,16.0,451.0,15.5,459.5,15.0,467.5,14.0,475.5,13.0,484.0,12.5,492.5,12.0,501.0,11.5,509.0,11.0,516.5,10.0" stroke="black" stroke-width="2" fill="none" />
<polyline points="358.0,19.5,349.5,19.5" stroke="black" stroke-width="2" fill="none" />
<polyline points="340.5,14.5,349.0,14.5,357.0,14.0,364.5,13.0,372.5,12.0,380.0,11.5,387.5,11.0,394.5,11.0,402.0,10.5,409.5,10.0,417.5,9.5,425.5,9.0,434.0,8.5,442.5,7.5,451.5,6.5,460.0,5.0,468.5,4.5,477.5,4.0,485.5,3.5,493.0,3.0,500.5,2.5,508.5,2.0,517.0,1.5" stroke="black" stroke-width="2" fill="none" />
<polyline points="348.5,64.0,340.5,65.0" stroke="black" stroke-width="2" fill="none" />
<polyline points="333.0,59.5,325.0,67.0" stroke="black" stroke-width="2" fill="none" />
<polyline points="321.5,64.5,329.5,65.0" stroke="black" stroke-width="2" fill="none" />
<polyline points="317.5,62.0,325.0,62.0,333.0,61.0,341.0,60.5,349.0,59.5,356.5,58.5,363.5,57.5,371.0,56.5,378.0,55.0,386.0,54.0,393.5,53.5" stroke="black" stroke-width="2" fill="none" />
<polyline points="348.5,44.0,340.5,44.5" stroke="black" stroke-width="2" fill="none" />
<polyline points="315.0,51.5,306.5,59.0" stroke="black" stroke-width="2" fill="none" />
<polyline points="305.5,54.0,314.0,53.0,322.0,52.5,330.5,52.0,339.5,51.0" stroke="black" stroke-width="2" fill="none" />
<polyline points="315.0,30.0,323.0,29.5,331.0,28.0,339.0,27.0,347.0,26.5,355.0,25.5,362.5,25.0,370.0,25.0,377.5,24.5,385.5,23.5,393.5,23.0,401.5,22.5,410.0,22.5,418.5,22.0,427.0,21.0,435.0,20.5,443.5,20.5,451.5,20.5,459.5,20.5,467.5,20.5,475.5,20.0,484.0,19.5,491.0,18.5,498.5,18.0,506.5,17.5,514.5,17.0" stroke="black" stroke-width="2" fill="none" />
<polyline points="354.0,3.0,346.0,4.0,338.0,4.5,330.5,5.5" stroke="black" stroke-width="2" fill="none" />
<polyline points="323.5,20.5,315.5,20.5" stroke="black" stroke-width="2" fill="none" />
<polyline points="309.0,37.0,316.5,36.5,324.5,36.0,332.5,35.5,340.0,35.5,347.5,35.0" stroke="black" stroke-width="2" fill="none" />
<polyline points="292.0,51.5,284.0,59.5" stroke="black" stroke-width="2" fill="none" />
<polyline points="284.0,61.0,292.0,60.0" stroke="black" stroke-width="2" fill="none" />
<polyline points="277.0,51.5,269.0,59.5" stroke="black" stroke-width="2" fill="none" />
<polyline points="270.0,59.0,277.5,58.5" stroke="black" stroke-width="2" fill="none" />
<polyline points="270.0,53.5,277.5,53.5,285.5,53.0,293.0,53.0" stroke="black" stroke-width="2" fill="none" />
<polyline points="285.0,36.0,277.0,43.0" stroke="black" stroke-width="2" fill="none" />
<polyline points="275.0,36.0,283.0,28.5" stroke="black" stroke-width="2" fill="none" />
<polyline points="274.5,20.5,282.5,20.0,291.0,19.5" stroke="black" stroke-width="2" fill="none" />
<polyline points="292.5,36.5,284.5,37.0,277.0,37.5,269.5,39.0" stroke="black" stroke-width="2" fill="none" />
<polyline points="260.5,51.0,253.0,51.0" stroke="black" stroke-width="2" fill="none" />
<polyline points="253.0,44.0,261.0,43.5,269.0,43.5,276.5,43.5,285.0,43.5,293.0,43.5" stroke="black" stroke-width="2" fill="none" />
<polyline points="258.5,58.5,250.0,66.5" stroke="black" stroke-width="2" fill="none" />
<polyline points="251.5,67.5,259.5,67.0,267.5,66.0,275.0,65.5,283.0,65.5,290.5,65.0" stroke="black" stroke-width="2" fill="none" />
<polyline points="292.5,86.0,284.0,86.5" stroke="black" stroke-width="2" fill="none" />
<polyline points="275.0,93.0,267.0,100.5" stroke="black" stroke-width="2" fill="none" />
<polyline points="266.0,101.0,274.0,100.5" stroke="black" stroke-width="2" fill="none" />
<polyline points="275.0,108.0,266.5,109.0" stroke="black" stroke-width="2" fill="none" />
<polyline points="260.5,118.0,268.5,117.5,276.0,117.0" stroke="black" stroke-width="2" fill="none" />
<polyline points="284.0,115.0,293.0,114.5" stroke="black" stroke-width="2" fill="none" />
<polyline points="292.0,108.0,284.5,108.5" stroke="black" stroke-width="2" fill="none" />
<polyline points="290.0,130.5,282.0,131.0,274.0,131.0" stroke="black" stroke-width="2" fill="none" />
<polyline points="268.0,133.0,260.0,133.5" stroke="black" stroke-width="2" fill="none" />
<polyline points="261.0,124.5,269.0,124.0,276.5,124.0" stroke="black" stroke-width="2" fill="none" />
<polyline points="284.5,141.5,292.5,141.0,300.0,140.5" stroke="black" stroke-width="2" fill="none" />
<polyline points="301.5,155.5,294.0,156.0" stroke="black" stroke-width="2" fill="none" />
<polyline points="299.5,165.5,292.0,166.0,284.0,166.5" stroke="black" stroke-width="2" fill="none" />
<polyline points="292.0,174.0,300.0,173.5" stroke="black" stroke-width="2" fill="none" />
<polyline points="297.0,181.5,288.5,182.0" stroke="black" stroke-width="2" fill="none" />
<polyline points="290.5,191.0,298.5,190.5" stroke="black" stroke-width="2" fill="none" />
<polyline points="266.5,203.0,258.5,210.5" stroke="black" stroke-width="2" fill="none" />
<polyline points="259.5,196.5,267.5,196.5,276.0,195.5,284.0,194.5,292.0,193.5,300.0,193.0" stroke="black" stroke-width="2" fill="none" />
<polyline points="331.0,204.0,339.0,203.5" stroke="black" stroke-width="2" fill="none" />
<polyline points="339.0,220.0,347.0,219.5" stroke="black" stroke-width="2" fill="none" />
<polyline points="339.5,229.0,331.5,230.0" stroke="black" stroke-width="2" fill="none" />
<polyline points="339.0,253.0,347.0,252.0,355.5,251.0,363.5,250.5" stroke="black" stroke-width="2" fill="none" />
<polyline points="345.5,267.5,337.0,268.0" stroke="black" stroke-width="2" fill="none" />
<polyline points="324.0,317.0,316.5,317.5" stroke="black" stroke-width="2" fill="none" />
<polyline points="315.0,324.5,307.0,331.5" stroke="black" stroke-width="2" fill="none" />
<polyline points="305.0,330.5,313.5,330.0" stroke="black" stroke-width="2" fill="none" />
<polyline points="313.5,334.5,321.5,333.5" stroke="black" stroke-width="2" fill="none" />
<polyline points="323.0,333.0,315.0,340.0" stroke="black" stroke-width="2" fill="none" />
<polyline points="315.5,338.0,323.5,337.5" stroke="black" stroke-width="2" fill="none" />
<polyline points="323.5,341.5,315.5,349.0" stroke="black" stroke-width="2" fill="none" />
<polyline points="315.0,343.5,323.0,343.0,331.0,342.5" stroke="black" stroke-width="2" fill="none" />
<polyline points="332.5,351.5,340.5,350.5" stroke="black" stroke-width="2" fill="none" />
<polyline points="339.0,356.5,331.0,364.5" stroke="black" stroke-width="2" fill="none" />
<polyline points="331.5,366.0,339.0,366.0" stroke="black" stroke-width="2" fill="none" />
<polyline points="322.5,356.5,314.5,364.0,307.0,371.5" stroke="black" stroke-width="2" fill="none" />
<polyline points="299.5,364.5,307.5,364.0,315.5,363.5,323.5,363.0" stroke="black" stroke-width="2" fill="none" />
<polyline points="322.0,349.5,314.0,349.5,305.5,350.0" stroke="black" stroke-width="2" fill="none" />
<polyline points="298.0,357.5,306.0,357.0,314.0,356.5,322.5,356.0,331.0,356.0,339.0,355.5" stroke="black" stroke-width="2" fill="none" />
<polyline points="355.5,349.0,363.0,349.0" stroke="black" stroke-width="2" fill="none" />
<polyline points="363.5,338.0,355.5,338.5" stroke="black" stroke-width="2" fill="none" />
<polyline points="356.5,332.0,364.0,332.0" stroke="black" stroke-width="2" fill="none" />
<polyline points="366.0,318.5,358.5,319.0" stroke="black" stroke-width="2" fill="none" />
<polyline points="371.5,318.0,380.0,317.5" stroke="black" stroke-width="2" fill="none" />
<polyline points="378.0,308.5,386.0,308.5,394.5,308.0,403.0,307.0,411.5,306.0" stroke="black" stroke-width="2" fill="none" />
<polyline points="420.0,316.5,428.0,316.0" stroke="black" stroke-width="2" fill="none" />
<polyline points="435.5,319.0,443.5,318.5" stroke="black" stroke-width="2" fill="none" />
<polyline points="443.5,316.0,435.5,323.5" stroke="black" stroke-width="2" fill="none" />
<polyline points="437.5,320.5,445.0,320.5" stroke="black" stroke-width="2" fill="none" />
<polyline points="443.5,324.5,451.5,324.0" stroke="black" stroke-width="2" fill="none" />
<polyline points="450.5,321.5,442.5,328.5" stroke="black" stroke-width="2" fill="none" />
<polyline points="445.5,328.5,453.0,327.5" stroke="black" stroke-width="2" fill="none" />
<polyline points="454.5,333.5,462.5,333.0,469.5,332.5" stroke="black" stroke-width="2" fill="none" />
<polyline points="458.5,324.5,466.5,324.5,475.0,324.5,483.0,324.5" stroke="black" stroke-width="2" fill="none" />
<polyline points="475.0,348.0,466.5,348.5,458.5,349.0" stroke="black" stroke-width="2" fill="none" />
<polyline points="457.5,341.0,466.0,340.5,474.0,340.0,482.5,340.0,491.0,339.5,499.5,339.0,507.5,339.0" stroke="black" stroke-width="2" fill="none" />
<polyline points="483.0,316.0,475.0,316.5,467.0,317.0,459.0,318.0" stroke="black" stroke-width="2" fill="none" />
<polyline points="418.0,333.0,410.0,340.5,402.5,348.0" stroke="black" stroke-width="2" fill="none" />
<polyline points="404.0,349.0,412.5,349.0,420.5,348.5" stroke="black" stroke-width="2" fill="none" />
<polyline points="413.0,346.0,405.0,346.0" stroke="black" stroke-width="2" fill="none" />
<polyline points="402.0,341.0,410.5,340.5" stroke="black" stroke-width="2" fill="none" />
<polyline points="418.0,332.5,409.5,333.0,401.0,333.5" stroke="black" stroke-width="2" fill="none" />
<polyline points="401.5,331.0,409.5,323.5" stroke="black" stroke-width="2" fill="none" />
<polyline points="411.0,329.0,403.5,329.5" stroke="black" stroke-width="2" fill="none" />
<polyline points="404.0,326.0,412.0,325.5,420.0,325.0,427.5,324.5" stroke="black" stroke-width="2" fill="none" />
<polyline points="427.5,365.0,419.5,365.0" stroke="black" stroke-width="2" fill="none" />
<polyline points="412.0,371.5,403.5,378.5" stroke="black" stroke-width="2" fill="none" />
<polyline points="402.0,377.5,410.0,377.0" stroke="black" stroke-width="2" fill="none" />
<polyline points="409.5,390.0,417.5,389.0" stroke="black" stroke-width="2" fill="none" />
<polyline points="410.5,397.0,419.0,397.0,427.5,396.0" stroke="black" stroke-width="2" fill="none" />
<polyline points="428.5,405.0,436.5,404.5,444.5,404.0,453.0,403.0" stroke="black" stroke-width="2" fill="none" />
<polyline points="454.0,388.5,462.0,388.5" stroke="black" stroke-width="2" fill="none" />
<polyline points="451.5,381.0,443.5,381.5" stroke="black" stroke-width="2" fill="none" />
<polyline points="436.5,373.5,444.5,373.0,453.0,372.5" stroke="black" stroke-width="2" fill="none" />
<polyline points="435.5,409.0,428.0,409.0" stroke="black" stroke-width="2" fill="none" />
<polyline points="429.5,422.5,437.5,421.5,445.0,421.0" stroke="black" stroke-width="2" fill="none" />
<polyline points="434.0,427.0,425.5,434.5" stroke="black" stroke-width="2" fill="none" />
<polyline points="419.0,430.5,426.5,430.0,434.5,429.5,442.0,429.0,450.5,429.0,459.0,428.0,467.0,428.0,475.0,428.0,483.5,427.5,492.0,426.5,500.0,426.0,508.0,425.5,516.0,424.5" stroke="black" stroke-width="2" fill="none" />
<polyline points="453.5,436.5,445.5,444.0" stroke="black" stroke-width="2" fill="none" />
<polyline points="454.5,445.0,462.0,444.0,470.0,443.0,478.0,442.5,485.5,442.5,492.5,442.5,500.5,442.0,508.5,442.5,516.0,442.5" stroke="black" stroke-width="2" fill="none" />
<polyline points="491.0,452.0,482.5,452.5,474.0,453.0,466.0,453.0,458.0,453.5" stroke="black" stroke-width="2" fill="none" />
<polyline points="436.0,438.5,444.0,438.0,452.5,437.5,461.0,436.5,469.5,436.0,477.5,435.0,485.5,434.5,492.5,433.5,500.0,432.5,507.5,431.5,515.5,431.0" stroke="black" stroke-width="2" fill="none" />
<polyline points="434.0,467.0,426.0,475.0" stroke="black" stroke-width="2" fill="none" />
<polyline points="428.0,474.0,436.0,474.0" stroke="black" stroke-width="2" fill="none" />
<polyline points="426.0,469.0,418.0,476.0" stroke="black" stroke-width="2" fill="none" />
<polyline points="411.5,468.0,403.5,475.5,396.0,483.0" stroke="black" stroke-width="2" fill="none" />
<polyline points="396.0,487.5,388.0,488.0" stroke="black" stroke-width="2" fill="none" />
<polyline points="388.0,482.5,395.5,482.0,403.5,481.5" stroke="black" stroke-width="2" fill="none" />
<polyline points="395.5,475.0,387.5,482.5" stroke="black" stroke-width="2" fill="none" />
<polyline points="379.0,477.5,387.5,477.5,395.5,477.0,403.0,476.5,410.5,476.5,418.0,476.0,426.0,475.0,434.0,474.0" stroke="black" stroke-width="2" fill="none" />
<polyline points="427.5,454.0,419.5,454.5" stroke="black" stroke-width="2" fill="none" />
<polyline points="408.5,444.0,416.5,437.0" stroke="black" stroke-width="2" fill="none" />
<polyline points="419.0,436.5,411.0,437.0" stroke="black" stroke-width="2" fill="none" />
<polyline points="410.5,454.0,402.5,454.5" stroke="black" stroke-width="2" fill="none" />
<polyline points="395.0,460.0,403.0,460.0,411.0,459.5,419.0,459.5,427.0,459.5,435.0,459.0,443.5,458.5,451.5,458.0,459.5,457.5,468.0,456.0,476.0,455.5,483.5,455.5,491.5,455.5,500.0,455.5,508.0,455.0,516.5,454.0" stroke="black" stroke-width="2" fill="none" />
<polyline points="499.5,547.0,491.5,554.0" stroke="black" stroke-width="2" fill="none" />
<polyline points="493.5,554.0,501.5,553.5" stroke="black" stroke-width="2" fill="none" />
<polyline points="500.5,550.0,492.5,550.5" stroke="black" stroke-width="2" fill="none" />
<polyline points="461.5,532.5,453.5,533.5" stroke="black" stroke-width="2" fill="none" />
<polyline points="433.0,540.5,425.5,548.0,418.0,555.5" stroke="black" stroke-width="2" fill="none" />
<polyline points="425.5,556.0,433.5,548.5" stroke="black" stroke-width="2" fill="none" />
<polyline points="426.5,541.0,418.5,548.5,410.5,556.0" stroke="black" stroke-width="2" fill="none" />
<polyline points="402.0,554.5,409.5,547.0,417.5,539.5,425.0,532.5" stroke="black" stroke-width="2" fill="none" />
<polyline points="417.5,532.0,409.5,539.0,401.5,546.0,394.0,553.0" stroke="black" stroke-width="2" fill="none" />
<polyline points="387.0,553.0,394.0,546.0,401.5,538.5,409.0,531.5,417.0,524.0" stroke="black" stroke-width="2" fill="none" />
<polyline points="412.0,522.5,403.5,530.0,395.5,537.5,388.0,545.0,380.0,552.0" stroke="black" stroke-width="2" fill="none" />
<polyline points="371.5,552.0,379.0,544.5,387.5,537.5,395.5,530.5,403.5,523.0,411.5,515.0" stroke="black" stroke-width="2" fill="none" />
<polyline points="406.0,516.0,398.0,524.0,390.0,532.0,381.5,539.5,372.5,547.0,364.0,554.5" stroke="black" stroke-width="2" fill="none" />
<polyline points="355.5,554.0,364.0,546.5,372.0,539.0,380.5,530.5,389.0,523.0,398.0,515.5,406.5,507.5" stroke="black" stroke-width="2" fill="none" />
<polyline points="394.5,508.0,386.5,515.0,378.5,522.5,371.0,529.5,363.0,537.0,354.5,545.0,346.5,553.0" stroke="black" stroke-width="2" fill="none" />
<polyline points="340.5,552.0,349.0,545.0,357.0,537.5,365.0,530.0,372.5,523.0,380.5,516.0,389.0,509.0" stroke="black" stroke-width="2" fill="none" />
<polyline points="379.5,507.5,371.0,515.0,363.0,523.0,355.0,530.5,347.5,538.0,340.0,545.5" stroke="black" stroke-width="2" fill="none" />
<polyline points="338.0,544.5,346.0,544.0,354.5,543.5,363.0,543.0,371.5,542.5,380.0,542.5,387.5,542.0,395.5,542.0,404.0,542.0,412.0,541.0,420.0,541.0,428.0,540.0,436.0,539.5" stroke="black" stroke-width="2" fill="none" />
<polyline points="371.5,506.5,363.5,514.0,355.0,522.0,347.0,530.0,338.5,538.0" stroke="black" stroke-width="2" fill="none" />
<polyline points="337.5,538.5,345.5,538.0,354.5,538.0,363.0,537.5,371.5,537.0,380.0,536.5,388.0,536.5,396.5,536.0,404.5,536.0,411.5,536.5,419.5,536.0,427.5,535.5,435.5,534.5,443.5,533.5" stroke="black" stroke-width="2" fill="none" />
<polyline points="364.0,510.0,356.0,517.5,347.5,524.5,339.5,531.5" stroke="black" stroke-width="2" fill="none" />
<polyline points="339.5,529.0,348.0,528.5,356.0,528.5,364.0,528.5,372.0,528.5,379.5,528.0,387.5,528.0,395.5,527.5,403.0,527.0,411.0,526.5,418.5,525.5" stroke="black" stroke-width="2" fill="none" />
<polyline points="403.5,500.0,395.0,500.5,387.0,501.0,378.5,501.5,370.5,501.5,363.0,501.5" stroke="black" stroke-width="2" fill="none" />
<polyline points="353.5,514.5,361.5,514.0,370.0,513.5,378.5,512.5,387.5,511.5,396.0,510.0" stroke="black" stroke-width="2" fill="none" />
<polyline points="386.5,471.5,394.5,471.0,402.5,471.0,410.5,470.5,419.0,469.0,427.0,468.0,435.0,467.0,443.0,466.5,450.5,466.0,458.0,465.0,465.5,465.0" stroke="black" stroke-width="2" fill="none" />
<polyline points="403.5,444.0,395.0,445.0" stroke="black" stroke-width="2" fill="none" />
<polyline points="397.0,437.0,389.0,437.5" stroke="black" stroke-width="2" fill="none" />
<polyline points="388.5,420.5,396.5,420.0,405.0,419.5,413.0,419.0" stroke="black" stroke-width="2" fill="none" />
<polyline points="412.0,414.0,420.0,413.5,428.0,413.0,436.0,412.5,444.0,412.0,451.5,411.5,459.0,411.0,466.5,410.5,474.5,409.5,483.0,409.0,491.5,408.0,499.0,408.0,507.5,407.5,515.5,407.0" stroke="black" stroke-width="2" fill="none" />
<polyline points="404.0,413.5,396.0,414.0" stroke="black" stroke-width="2" fill="none" />
<polyline points="396.5,396.5,404.0,396.0" stroke="black" stroke-width="2" fill="none" />
<polyline points="397.0,372.5,405.0,372.0,412.5,371.5,420.5,371.0,428.5,370.5" stroke="black" stroke-width="2" fill="none" />
<polyline points="394.5,364.5,386.5,365.0" stroke="black" stroke-width="2" fill="none" />
<polyline points="387.5,349.0,379.5,349.5" stroke="black" stroke-width="2" fill="none" />
<polyline points="379.5,341.5,387.5,341.0,396.0,340.5" stroke="black" stroke-width="2" fill="none" />
<polyline points="392.5,333.5,384.5,334.0" stroke="black" stroke-width="2" fill="none" />
<polyline points="314.5,326.0,306.5,327.0" stroke="black" stroke-width="2" fill="none" />
<polyline points="299.0,323.0,307.0,316.0" stroke="black" stroke-width="2" fill="none" />
<polyline points="291.0,317.5,283.0,324.5" stroke="black" stroke-width="2" fill="none" />
<polyline points="277.5,324.0,285.5,316.5" stroke="black" stroke-width="2" fill="none" />
<polyline points="274.0,317.0,266.0,324.5" stroke="black" stroke-width="2" fill="none" />
<polyline points="266.0,320.0,274.0,319.5,282.0,319.0" stroke="black" stroke-width="2" fill="none" />
<polyline points="267.5,306.5,259.5,313.5" stroke="black" stroke-width="2" fill="none" />
<polyline points="259.5,310.0,268.0,309.5,276.0,308.0" stroke="black" stroke-width="2" fill="none" />
<polyline points="268.0,297.0,259.5,305.0" stroke="black" stroke-width="2" fill="none" />
<polyline points="258.0,298.0,250.0,305.5" stroke="black" stroke-width="2" fill="none" />
<polyline points="251.0,303.5,259.0,303.0" stroke="black" stroke-width="2" fill="none" />
<polyline points="250.5,300.5,258.5,300.0,267.0,298.5" stroke="black" stroke-width="2" fill="none" />
<polyline points="250.0,291.0,242.0,299.0" stroke="black" stroke-width="2" fill="none" />
<polyline points="244.5,295.0,252.5,295.0" stroke="black" stroke-width="2" fill="none" />
<polyline points="253.0,291.5,245.0,292.0" stroke="black" stroke-width="2" fill="none" />
<polyline points="250.5,284.0,242.0,285.0,234.0,286.0" stroke="black" stroke-width="2" fill="none" />
<polyline points="234.0,278.0,242.5,277.0" stroke="black" stroke-width="2" fill="none" />
<polyline points="236.5,275.0,244.5,267.5" stroke="black" stroke-width="2" fill="none" />
<polyline points="245.5,262.0,237.5,269.5,229.0,276.0" stroke="black" stroke-width="2" fill="none" />
<polyline points="230.0,276.5,238.0,275.5,245.5,274.0" stroke="black" stroke-width="2" fill="none" />
<polyline points="245.0,269.5,236.5,270.0,228.5,270.5" stroke="black" stroke-width="2" fill="none" />
<polyline points="220.0,265.5,228.0,258.0" stroke="black" stroke-width="2" fill="none" />
<polyline points="226.5,266.5,218.5,266.5" stroke="black" stroke-width="2" fill="none" />
<polyline points="219.5,263.0,227.0,262.0,235.0,261.5,243.0,261.5" stroke="black" stroke-width="2" fill="none" />
<polyline points="220.5,291.0,212.5,298.5" stroke="black" stroke-width="2" fill="none" />
<polyline points="213.5,292.5,205.5,300.0" stroke="black" stroke-width="2" fill="none" />
<polyline points="204.0,297.0,212.0,297.0,219.5,297.5" stroke="black" stroke-width="2" fill="none" />
<polyline points="221.0,293.0,213.0,294.0,205.0,294.5" stroke="black" stroke-width="2" fill="none" />
<polyline points="259.0,317.0,267.0,317.0,276.0,316.5,284.5,316.5,292.5,315.5,300.0,315.0,308.0,314.5" stroke="black" stroke-width="2" fill="none" />
<polyline points="275.0,365.0,267.0,372.0" stroke="black" stroke-width="2" fill="none" />
<polyline points="267.0,369.0,275.0,368.5" stroke="black" stroke-width="2" fill="none" />
<polyline points="274.0,363.0,265.5,363.5" stroke="black" stroke-width="2" fill="none" />
<polyline points="268.0,373.5,260.0,373.5" stroke="black" stroke-width="2" fill="none" />
<polyline points="275.0,388.0,283.0,387.5,291.0,387.5" stroke="black" stroke-width="2" fill="none" />
<polyline points="282.5,382.5,290.5,381.5,299.0,380.5,307.5,380.0" stroke="black" stroke-width="2" fill="none" />
<polyline points="340.0,405.0,348.0,404.5" stroke="black" stroke-width="2" fill="none" />
<polyline points="340.0,413.5,332.5,413.5" stroke="black" stroke-width="2" fill="none" />
<polyline points="338.0,422.0,330.0,423.0,321.5,423.5" stroke="black" stroke-width="2" fill="none" />
<polyline points="322.0,430.5,330.0,430.5" stroke="black" stroke-width="2" fill="none" />
<polyline points="323.5,445.0,315.5,445.5" stroke="black" stroke-width="2" fill="none" />
<polyline points="315.0,438.5,323.0,438.0" stroke="black" stroke-width="2" fill="none" />
<polyline points="309.0,460.0,301.0,461.0" stroke="black" stroke-width="2" fill="none" />
<polyline points="299.0,453.5,307.5,453.0,315.5,452.5" stroke="black" stroke-width="2" fill="none" />
<polyline points="298.0,478.0,290.5,478.5" stroke="black" stroke-width="2" fill="none" />
<polyline points="289.0,470.0,297.0,469.5,306.0,469.5" stroke="black" stroke-width="2" fill="none" />
<polyline points="292.5,492.0,284.0,492.0" stroke="black" stroke-width="2" fill="none" />
<polyline points="284.0,486.5,291.5,486.0" stroke="black" stroke-width="2" fill="none" />
<polyline points="285.5,477.0,277.5,477.5" stroke="black" stroke-width="2" fill="none" />
<polyline points="284.0,500.0,276.5,500.5,268.5,500.5" stroke="black" stroke-width="2" fill="none" />
<polyline points="276.5,508.0,268.5,509.0,260.5,509.5" stroke="black" stroke-width="2" fill="none" />
<polyline points="261.5,519.0,269.5,518.0,276.5,517.0" stroke="black" stroke-width="2" fill="none" />
<polyline points="269.5,524.5,261.5,531.5" stroke="black" stroke-width="2" fill="none" />
<polyline points="265.5,524.5,257.5,525.0,249.5,525.5" stroke="black" stroke-width="2" fill="none" />
<polyline points="244.5,531.5,236.5,539.0" stroke="black" stroke-width="2" fill="none" />
<polyline points="237.0,534.5,244.5,534.0" stroke="black" stroke-width="2" fill="none" />
<polyline points="243.5,541.0,252.0,540.5,260.0,540.5" stroke="black" stroke-width="2" fill="none" />
<polyline points="259.5,529.5,252.0,530.0,244.0,530.5,236.0,531.0,228.5,531.5" stroke="black" stroke-width="2" fill="none" />
<polyline points="225.5,523.5,234.0,516.0" stroke="black" stroke-width="2" fill="none" />
<polyline points="235.5,520.0,228.0,520.5" stroke="black" stroke-width="2" fill="none" />
<polyline points="229.0,517.0,237.0,516.5" stroke="black" stroke-width="2" fill="none" />
<polyline points="244.5,491.5,237.0,491.5,228.5,492.0,220.5,492.5" stroke="black" stroke-width="2" fill="none" />
<polyline points="229.0,485.0,236.5,484.5,244.5,484.0,252.0,483.0" stroke="black" stroke-width="2" fill="none" />
<polyline points="260.5,468.5,252.5,468.0,244.0,468.0" stroke="black" stroke-width="2" fill="none" />
<polyline points="245.0,461.0,253.0,461.0,261.0,460.5,269.0,459.5" stroke="black" stroke-width="2" fill="none" />
<polyline points="260.0,475.5,252.0,475.5,243.5,475.5,235.5,476.0" stroke="black" stroke-width="2" fill="none" />
<polyline points="229.5,457.0,221.5,457.5" stroke="black" stroke-width="2" fill="none" />
<polyline points="220.5,453.0,228.5,452.5" stroke="black" stroke-width="2" fill="none" />
<polyline points="227.5,441.0,235.5,434.0" stroke="black" stroke-width="2" fill="none" />
<polyline points="227.5,434.5,219.5,442.0" stroke="black" stroke-width="2" fill="none" />
<polyline points="219.5,442.5,227.5,442.0,236.0,441.5" stroke="black" stroke-width="2" fill="none" />
<polyline points="236.0,438.0,228.0,438.5,220.5,439.0" stroke="black" stroke-width="2" fill="none" />
<polyline points="251.0,396.5,259.0,395.5" stroke="black" stroke-width="2" fill="none" />
<polyline points="242.0,356.5,234.0,357.0" stroke="black" stroke-width="2" fill="none" />
<polyline points="196.5,491.5,188.5,499.0" stroke="black" stroke-width="2" fill="none" />
<polyline points="187.0,499.5,195.0,498.5" stroke="black" stroke-width="2" fill="none" />
<polyline points="196.0,492.5,187.5,493.0" stroke="black" stroke-width="2" fill="none" />
<polyline points="181.5,501.0,189.0,500.5,196.5,499.5" stroke="black" stroke-width="2" fill="none" />
<polyline points="210.5,517.5,218.5,516.5" stroke="black" stroke-width="2" fill="none" />
<polyline points="337.5,536.0,345.5,535.5,354.0,535.5,362.5,535.0,371.0,534.0,379.0,533.5,387.5,533.5,395.5,533.5,403.5,533.5,411.5,533.5,419.5,533.0,428.0,532.5" stroke="black" stroke-width="2" fill="none" />
<polyline points="380.5,467.5,388.5,459.5" stroke="black" stroke-width="2" fill="none" />
<polyline points="387.5,463.5,379.0,464.0" stroke="black" stroke-width="2" fill="none" />
<polyline points="379.5,455.5,387.0,455.0" stroke="black" stroke-width="2" fill="none" />
<polyline points="380.0,445.0,372.0,446.0" stroke="black" stroke-width="2" fill="none" />
<polyline points="346.5,511.5,354.0,510.5,362.0,510.0,370.0,509.0,379.0,508.0,387.5,507.0,395.0,507.0,403.5,506.5,411.5,506.0,419.5,505.5" stroke="black" stroke-width="2" fill="none" />
<polyline points="403.0,518.0,394.5,518.5,386.5,519.5,378.0,520.5,370.5,520.5,362.5,521.0,354.5,521.0,346.5,522.0" stroke="black" stroke-width="2" fill="none" />
<polyline points="341.5,524.5,349.5,524.0,357.0,524.0,365.0,524.0,373.0,524.0,381.0,524.0,388.5,523.5,396.0,523.5,403.5,522.5,411.5,522.0,419.5,522.0,428.0,521.0,436.5,520.0" stroke="black" stroke-width="2" fill="none" />
<polyline points="434.0,548.0,426.0,549.0,418.5,550.0,410.0,550.5,402.0,551.0,394.5,551.5,387.0,552.0,379.5,552.5,372.0,553.0,364.5,553.5,356.5,554.0,348.5,554.5,340.5,555.0" stroke="black" stroke-width="2" fill="none" />
<polyline points="340.5,549.0,348.5,548.5,356.0,548.5,363.5,548.0,371.0,547.5,378.5,547.0,386.5,546.5,394.5,546.0,402.5,545.5,411.0,545.0,419.5,544.0,427.0,543.5,435.5,543.5,443.0,543.0" stroke="black" stroke-width="2" fill="none" />
<polyline points="435.0,529.0,427.0,529.5,419.0,530.0,411.0,530.5,403.0,530.5,395.0,531.0,387.5,531.5,380.0,532.0,371.5,532.0,363.0,532.5,354.5,533.0,346.0,533.5,338.0,534.0" stroke="black" stroke-width="2" fill="none" />
<polyline points="341.5,517.0,349.0,516.5,356.5,516.0,363.5,516.0,371.5,515.5,379.5,515.5,387.5,515.0,395.5,515.0,403.0,515.0,411.0,514.5,419.0,514.5,427.0,514.0" stroke="black" stroke-width="2" fill="none" />
<polyline points="395.5,188.5,387.0,188.5,379.5,189.0" stroke="black" stroke-width="2" fill="none" />
<polyline points="266.5,162.0,259.0,169.0" stroke="black" stroke-width="2" fill="none" />
<polyline points="260.0,170.5,267.5,170.0" stroke="black" stroke-width="2" fill="none" />
<polyline points="269.0,172.0,261.0,172.0" stroke="black" stroke-width="2" fill="none" />
<polyline points="260.5,182.0,268.5,181.0" stroke="black" stroke-width="2" fill="none" />
<polyline points="275.0,163.5,267.0,164.5,259.0,165.0,250.5,165.5" stroke="black" stroke-width="2" fill="none" />
<polyline points="252.5,157.5,260.5,157.0,268.5,156.5" stroke="black" stroke-width="2" fill="none" />
<polyline points="266.0,143.0,258.0,143.5" stroke="black" stroke-width="2" fill="none" />
<polyline points="253.5,151.0,261.0,150.0,269.0,149.5,276.5,148.5" stroke="black" stroke-width="2" fill="none" />
<polyline points="259.0,188.0,251.0,188.5,242.5,189.0,234.5,189.5" stroke="black" stroke-width="2" fill="none" />
<polyline points="228.5,197.5,236.5,197.5,245.0,197.0,253.0,196.5" stroke="black" stroke-width="2" fill="none" />
<polyline points="226.5,202.5,218.5,210.0" stroke="black" stroke-width="2" fill="none" />
<polyline points="213.5,211.0,221.5,203.5" stroke="black" stroke-width="2" fill="none" />
<polyline points="212.0,205.0,204.5,212.5" stroke="black" stroke-width="2" fill="none" />
<polyline points="197.5,211.0,205.5,203.5" stroke="black" stroke-width="2" fill="none" />
<polyline points="197.0,204.5,189.5,211.5" stroke="black" stroke-width="2" fill="none" />
<polyline points="193.0,209.0,201.0,208.5,209.5,208.0,218.0,207.5" stroke="black" stroke-width="2" fill="none" />
<polyline points="219.0,182.5,211.0,182.5" stroke="black" stroke-width="2" fill="none" />
<polyline points="221.0,174.5,229.0,174.0" stroke="black" stroke-width="2" fill="none" />
<polyline points="228.5,164.5,236.5,164.0" stroke="black" stroke-width="2" fill="none" />
<polyline points="197.0,166.0,188.5,173.5" stroke="black" stroke-width="2" fill="none" />
<polyline points="188.0,170.5,196.5,170.0" stroke="black" stroke-width="2" fill="none" />
<polyline points="197.5,166.5,189.5,167.0" stroke="black" stroke-width="2" fill="none" />
<polyline points="194.0,157.5,202.0,156.5" stroke="black" stroke-width="2" fill="none" />
<polyline points="189.0,140.5,181.5,141.0" stroke="black" stroke-width="2" fill="none" />
<polyline points="186.0,116.0,194.0,108.0" stroke="black" stroke-width="2" fill="none" />
<polyline points="195.5,109.0,187.5,109.5,179.5,110.0" stroke="black" stroke-width="2" fill="none" />
<polyline points="221.0,95.0,228.5,94.5" stroke="black" stroke-width="2" fill="none" />
<polyline points="251.5,94.5,260.0,94.0,268.0,93.5,276.0,93.0,283.5,92.0,291.0,91.5" stroke="black" stroke-width="2" fill="none" />
<polyline points="275.5,86.0,268.0,86.5" stroke="black" stroke-width="2" fill="none" />
<polyline points="260.5,83.0,252.5,83.5" stroke="black" stroke-width="2" fill="none" />
<polyline points="252.0,77.5,260.0,77.0,267.5,76.5,275.0,76.0,282.5,75.0,290.5,75.0" stroke="black" stroke-width="2" fill="none" />
<polyline points="252.0,58.5,243.5,66.5" stroke="black" stroke-width="2" fill="none" />
<polyline points="243.5,63.5,251.0,63.0,259.5,62.5" stroke="black" stroke-width="2" fill="none" />
<polyline points="275.0,58.5,266.0,58.5,258.0,58.5,250.5,59.0,242.5,59.5" stroke="black" stroke-width="2" fill="none" />
<polyline points="226.5,44.5,218.5,52.0" stroke="black" stroke-width="2" fill="none" />
<polyline points="220.5,51.0,228.5,50.5" stroke="black" stroke-width="2" fill="none" />
<polyline points="217.0,62.0,209.0,62.5" stroke="black" stroke-width="2" fill="none" />
<polyline points="210.0,71.5,218.0,70.5" stroke="black" stroke-width="2" fill="none" />
<polyline points="211.5,53.0,219.5,52.5,227.5,51.5" stroke="black" stroke-width="2" fill="none" />
<polyline points="228.5,44.0,221.0,45.0,213.0,45.5" stroke="black" stroke-width="2" fill="none" />
<polyline points="213.5,29.0,221.5,28.5,229.5,28.0,237.0,28.0,244.5,27.5" stroke="black" stroke-width="2" fill="none" />
<polyline points="244.0,27.0,251.5,19.5" stroke="black" stroke-width="2" fill="none" />
<polyline points="243.5,20.0,235.0,27.5" stroke="black" stroke-width="2" fill="none" />
<polyline points="235.5,25.5,243.5,25.0,252.0,25.0" stroke="black" stroke-width="2" fill="none" />
<polyline points="252.0,28.0,260.0,27.0,268.0,27.0,276.0,26.5,284.5,26.5,293.0,26.0" stroke="black" stroke-width="2" fill="none" />
<polyline points="257.0,2.5,249.5,10.0" stroke="black" stroke-width="2" fill="none" />
<polyline points="250.5,8.0,259.5,7.5" stroke="black" stroke-width="2" fill="none" />
<polyline points="243.0,11.0,251.5,10.5,259.0,10.5,267.0,10.5,275.0,11.0,283.0,11.0,291.5,10.5" stroke="black" stroke-width="2" fill="none" />
<polyline points="268.0,18.5,260.0,19.5,252.0,20.5,244.0,21.0,236.5,22.0" stroke="black" stroke-width="2" fill="none" />
<polyline points="228.5,20.5,221.0,21.5,213.5,22.0" stroke="black" stroke-width="2" fill="none" />
<polyline points="219.5,6.5,228.0,6.0,236.5,5.0,244.5,4.0,252.5,3.0,260.5,2.5,268.5,1.5,276.5,0.5,284.0,-0.5,292.0,-1.5" stroke="black" stroke-width="2" fill="none" />
<polyline points="202.0,21.0,194.0,21.5" stroke="black" stroke-width="2" fill="none" />
<polyline points="194.5,16.0,203.0,15.0,211.5,14.5,219.5,14.0,228.0,12.5" stroke="black" stroke-width="2" fill="none" />
<polyline points="237.0,34.0,229.0,35.0,220.5,35.5,211.5,35.5,202.5,36.0,194.0,36.5,186.0,37.0" stroke="black" stroke-width="2" fill="none" />
<polyline points="187.0,29.0,195.0,28.5" stroke="black" stroke-width="2" fill="none" />
<polyline points="193.5,51.5,186.0,59.5" stroke="black" stroke-width="2" fill="none" />
<polyline points="188.0,56.5,196.0,56.0" stroke="black" stroke-width="2" fill="none" />
<polyline points="195.0,53.0,187.0,53.5" stroke="black" stroke-width="2" fill="none" />
<polyline points="185.5,63.0,177.5,63.5" stroke="black" stroke-width="2" fill="none" />
<polyline points="178.5,52.5,170.5,53.0" stroke="black" stroke-width="2" fill="none" />
<polyline points="172.0,60.5,164.0,61.0" stroke="black" stroke-width="2" fill="none" />
<polyline points="179.0,47.0,187.0,46.5" stroke="black" stroke-width="2" fill="none" />
<polyline points="179.5,22.5,171.0,23.0" stroke="black" stroke-width="2" fill="none" />
<polyline points="165.0,13.5,173.0,13.0,181.5,12.5,189.5,11.5" stroke="black" stroke-width="2" fill="none" />
<polyline points="189.5,5.0,197.0,4.0,204.5,4.0" stroke="black" stroke-width="2" fill="none" />
<polyline points="177.5,2.5,169.5,2.5,161.5,3.0,153.5,3.0,145.0,3.0" stroke="black" stroke-width="2" fill="none" />
<polyline points="125.5,10.5,117.0,18.5" stroke="black" stroke-width="2" fill="none" />
<polyline points="114.0,11.0,106.0,19.0" stroke="black" stroke-width="2" fill="none" />
<polyline points="107.0,19.0,115.0,18.5" stroke="black" stroke-width="2" fill="none" />
<polyline points="113.5,29.0,105.5,36.0" stroke="black" stroke-width="2" fill="none" />
<polyline points="107.0,30.0,115.5,29.0,123.0,28.5,130.5,28.0,138.5,28.0" stroke="black" stroke-width="2" fill="none" />
<polyline points="132.0,34.0,124.0,41.5,116.0,48.5" stroke="black" stroke-width="2" fill="none" />
<polyline points="116.5,53.0,124.0,52.5,132.0,52.0,140.0,52.0" stroke="black" stroke-width="2" fill="none" />
<polyline points="139.5,51.5,131.5,59.0" stroke="black" stroke-width="2" fill="none" />
<polyline points="132.0,58.5,140.5,58.0" stroke="black" stroke-width="2" fill="none" />
<polyline points="138.0,60.5,130.0,67.5" stroke="black" stroke-width="2" fill="none" />
<polyline points="131.5,71.0,124.0,71.5" stroke="black" stroke-width="2" fill="none" />
<polyline points="116.5,76.0,108.5,84.0" stroke="black" stroke-width="2" fill="none" />
<polyline points="107.5,78.0,115.5,77.5,123.0,76.5,131.0,75.5" stroke="black" stroke-width="2" fill="none" />
<polyline points="129.5,86.0,122.0,86.0" stroke="black" stroke-width="2" fill="none" />
<polyline points="122.0,95.5,130.0,95.0" stroke="black" stroke-width="2" fill="none" />
<polyline points="132.5,103.0,124.5,103.5" stroke="black" stroke-width="2" fill="none" />
<polyline points="125.5,108.5,117.0,115.5" stroke="black" stroke-width="2" fill="none" />
<polyline points="122.0,115.0,129.5,107.5" stroke="black" stroke-width="2" fill="none" />
<polyline points="132.0,114.0,124.0,114.5" stroke="black" stroke-width="2" fill="none" />
<polyline points="125.5,116.5,133.5,116.0" stroke="black" stroke-width="2" fill="none" />
<polyline points="129.5,116.5,122.0,123.5" stroke="black" stroke-width="2" fill="none" />
<polyline points="123.5,120.5,132.0,120.0" stroke="black" stroke-width="2" fill="none" />
<polyline points="131.0,133.5,123.5,134.0" stroke="black" stroke-width="2" fill="none" />
<polyline points="124.0,139.0,115.5,146.5" stroke="black" stroke-width="2" fill="none" />
<polyline points="107.5,156.0,99.5,164.0,91.5,171.5,84.0,178.5,76.0,185.5,68.0,193.0,60.0,200.5,51.5,208.0,44.0,216.0,36.5,224.0,28.5,232.0,20.5,239.5,12.5,247.0,4.0,255.0" stroke="black" stroke-width="2" fill="none" />
<polyline points="5.5,254.0,13.0,253.5,21.0,253.0,28.0,252.5,35.0,252.5,42.5,252.0,50.0,251.5,57.5,251.0,65.5,250.5,73.0,250.0,81.0,249.0,89.0,248.5,97.5,247.5,105.5,246.5,114.0,245.5,121.5,245.0" stroke="black" stroke-width="2" fill="none" />
<polyline points="148.5,212.5,156.5,205.0" stroke="black" stroke-width="2" fill="none" />
<polyline points="164.0,205.0,155.5,212.5" stroke="black" stroke-width="2" fill="none" />
<polyline points="163.5,211.0,171.5,204.0" stroke="black" stroke-width="2" fill="none" />
<polyline points="178.5,206.0,170.0,213.0" stroke="black" stroke-width="2" fill="none" />
<polyline points="178.5,213.0,186.0,205.5" stroke="black" stroke-width="2" fill="none" />
<polyline points="177.5,187.5,169.5,188.0" stroke="black" stroke-width="2" fill="none" />
<polyline points="154.0,207.5,146.0,208.0" stroke="black" stroke-width="2" fill="none" />
<polyline points="145.0,196.5,153.5,195.5,161.5,195.0,170.0,194.5,178.5,194.0,187.0,194.0,195.0,193.5,202.5,193.0" stroke="black" stroke-width="2" fill="none" />
<polyline points="157.0,188.5,149.0,189.0,141.0,190.0" stroke="black" stroke-width="2" fill="none" />
<polyline points="139.5,165.5,131.0,165.5,123.5,166.5" stroke="black" stroke-width="2" fill="none" />
<polyline points="123.5,157.5,131.5,157.0" stroke="black" stroke-width="2" fill="none" />
<polyline points="106.0,173.5,98.0,181.0,90.0,188.5,82.5,195.5,75.0,203.0,67.5,210.5,59.5,217.5,52.0,225.5,44.5,233.0,37.0,240.5,29.0,247.5,21.0,255.5,12.5,262.5,4.0,270.0" stroke="black" stroke-width="2" fill="none" />
<polyline points="2.5,271.0,10.5,270.5,18.5,269.5,26.5,268.5,35.0,267.5,43.5,266.5,52.0,266.0,60.0,265.5,68.0,264.5,76.0,263.5,83.5,263.0,91.5,262.5,99.5,261.5,107.5,261.0,115.0,260.5" stroke="black" stroke-width="2" fill="none" />
<polyline points="57.5,324.0,50.0,331.5,42.5,339.0,34.5,347.0,26.5,354.5,19.0,362.0,11.0,369.5,3.0,377.5" stroke="black" stroke-width="2" fill="none" />
<polyline points="3.5,378.0,11.5,377.5,19.0,377.5,27.0,377.0,35.5,376.5,43.5,376.0,51.0,375.5,58.5,375.0,66.0,374.0" stroke="black" stroke-width="2" fill="none" />
<polyline points="67.0,372.5,59.0,380.0,50.5,387.5,42.5,395.5,35.5,403.0,28.0,410.5,20.5,418.5" stroke="black" stroke-width="2" fill="none" />
<polyline points="13.0,417.0,20.5,409.5,28.5,401.5,36.5,394.5,44.5,386.5,51.5,379.0,59.0,371.0,67.0,363.5" stroke="black" stroke-width="2" fill="none" />
<polyline points="68.0,347.0,60.5,354.0,52.0,362.0,44.0,369.5,36.0,376.5,28.0,384.0,20.5,392.0,13.0,400.0,5.0,408.0" stroke="black" stroke-width="2" fill="none" />
<polyline points="3.5,408.0,11.5,407.5,19.5,406.5,27.5,406.0,35.0,405.5,42.5,405.5,50.5,404.5,59.0,405.0" stroke="black" stroke-width="2" fill="none" />
<polyline points="51.5,419.5,43.0,420.0,34.5,419.5,26.5,420.0,19.0,420.5,10.5,421.5" stroke="black" stroke-width="2" fill="none" />
<polyline points="5.5,419.5,13.5,419.0,21.0,418.5,29.5,418.0,38.0,417.0,46.0,415.5,54.0,415.0" stroke="black" stroke-width="2" fill="none" />
<polyline points="68.0,400.5,60.0,401.5,52.0,402.5,44.0,403.0,36.5,403.5,29.0,403.0,21.0,403.0,13.0,403.0,5.0,403.0" stroke="black" stroke-width="2" fill="none" />
<polyline points="4.0,400.0,12.5,399.0,20.0,398.0,28.0,397.5,36.0,397.0,44.0,396.5,51.5,396.5,59.5,396.0" stroke="black" stroke-width="2" fill="none" />
<polyline points="4.5,399.5,12.0,392.0,19.5,384.5,27.0,377.5,35.5,370.0,44.0,362.5,52.0,355.5,60.0,348.5,67.5,341.0" stroke="black" stroke-width="2" fill="none" />
<polyline points="58.5,340.0,51.0,347.5,43.5,355.0,35.5,362.5,27.5,369.5,19.0,377.0,11.0,384.5,3.0,391.5" stroke="black" stroke-width="2" fill="none" />
<polyline points="2.5,389.5,10.5,389.0,18.5,388.5,26.0,387.5,34.0,387.5,42.0,387.5,49.5,387.0,58.0,387.0,66.0,387.0,73.5,387.0" stroke="black" stroke-width="2" fill="none" />
<polyline points="58.0,331.0,50.0,338.5,42.5,347.0,35.0,355.0,27.0,363.0,19.5,370.5,11.5,378.0,3.5,385.5" stroke="black" stroke-width="2" fill="none" />
<polyline points="4.5,385.0,12.0,384.5,20.0,383.5,27.0,383.0,34.5,383.5,41.5,383.5,50.0,383.5,58.0,383.0,66.0,382.5" stroke="black" stroke-width="2" fill="none" />
<polyline points="50.5,323.5,42.5,331.0,34.5,338.0,26.5,345.5,18.5,353.0,10.0,361.0,2.5,368.5" stroke="black" stroke-width="2" fill="none" />
<polyline points="2.5,369.5,10.5,369.5,18.0,369.0,26.0,368.5,33.5,367.5,41.5,366.5,49.5,366.5,57.5,366.5,65.5,366.5" stroke="black" stroke-width="2" fill="none" />
<polyline points="43.5,317.0,35.5,324.5,27.5,331.5,19.0,339.0,11.0,346.5,3.5,353.5" stroke="black" stroke-width="2" fill="none" />
<polyline points="6.0,352.5,14.0,352.5,22.0,352.5,30.0,352.0,37.5,351.5,45.5,350.5,53.0,350.0,60.5,349.5,68.5,349.0" stroke="black" stroke-width="2" fill="none" />
<polyline points="36.0,317.0,28.0,324.0,19.5,331.5,11.0,339.0,3.0,346.5" stroke="black" stroke-width="2" fill="none" />
<polyline points="4.0,348.0,12.0,347.5,20.5,347.5,28.5,347.5,36.0,347.0,43.5,347.0,52.0,346.5,60.0,346.0,67.5,345.5,75.0,345.5" stroke="black" stroke-width="2" fill="none" />
<polyline points="29.0,316.5,20.5,324.0,12.5,331.5,4.5,339.0" stroke="black" stroke-width="2" fill="none" />
<polyline points="5.0,338.0,13.0,337.0,21.0,336.5,29.0,336.0,36.5,335.5,43.5,335.0,51.5,333.5,59.0,332.5" stroke="black" stroke-width="2" fill="none" />
<polyline points="19.5,317.0,11.5,324.0,4.0,331.0" stroke="black" stroke-width="2" fill="none" />
<polyline points="3.5,329.5,12.0,329.0,20.0,328.5,28.0,328.5,36.0,328.0,44.5,327.5,52.0,327.0" stroke="black" stroke-width="2" fill="none" />
<polyline points="11.0,314.0,3.5,321.5" stroke="black" stroke-width="2" fill="none" />
<polyline points="4.5,322.5,12.5,321.5,21.0,320.5,29.0,320.0,37.5,319.5,46.0,318.5" stroke="black" stroke-width="2" fill="none" />
<polyline points="66.5,341.0,59.0,341.5,51.0,342.0,43.0,342.5,35.0,342.5,27.0,343.0,19.0,343.5,11.0,343.5,3.0,343.5" stroke="black" stroke-width="2" fill="none" />
<polyline points="4.5,340.5,12.5,340.0,20.5,339.5,28.0,339.0,36.0,338.5,44.0,337.5,52.0,337.5,60.0,337.5,68.0,337.5,76.0,338.0" stroke="black" stroke-width="2" fill="none" />
<polyline points="66.0,393.5,58.0,393.5,50.5,393.5,43.0,393.5,35.0,394.0,27.5,395.0,19.5,396.0,11.0,396.5,2.5,396.5" stroke="black" stroke-width="2" fill="none" />
<polyline points="1.0,394.0,9.0,393.5,17.5,392.5,25.5,391.5,34.0,390.5,41.5,390.0,50.0,390.0,58.5,390.0" stroke="black" stroke-width="2" fill="none" />
<polyline points="75.0,379.0,66.5,379.0,58.0,379.5,50.5,379.5,43.0,380.0,35.0,380.5,27.0,381.0,19.0,380.5,12.0,380.5,4.0,381.0" stroke="black" stroke-width="2" fill="none" />
<polyline points="4.0,374.0,12.0,374.0,20.0,373.0,28.0,372.5,35.5,372.0,43.5,371.5,51.0,371.5,58.5,371.5,66.5,371.0,74.5,371.0" stroke="black" stroke-width="2" fill="none" />
<polyline points="75.5,363.0,68.0,362.5,60.0,362.5,52.0,362.5,44.0,362.5,35.5,362.5,27.0,362.5,19.0,363.0,11.0,363.5,3.0,364.0" stroke="black" stroke-width="2" fill="none" />
<polyline points="5.0,356.5,13.0,356.5,20.5,356.5,28.0,356.0,36.0,355.5,44.0,355.0,52.0,354.5,60.0,354.5,68.0,354.0,75.5,353.0" stroke="black" stroke-width="2" fill="none" />
<polyline points="76.0,327.5,68.5,328.5,60.5,329.5,52.0,330.5,44.0,330.5,36.5,331.5,29.0,332.0,21.5,332.0,13.0,332.5,5.0,333.0" stroke="black" stroke-width="2" fill="none" />
<polyline points="4.5,325.5,12.5,325.0,21.0,324.5,29.0,323.5,37.0,323.0,45.0,323.0,53.0,322.5,60.5,321.5,68.5,320.5" stroke="black" stroke-width="2" fill="none" />
<polyline points="67.5,314.0,59.5,314.0,52.0,314.0,44.0,314.5,35.5,315.0,27.5,315.5,19.5,316.5,12.0,317.5,4.0,318.0" stroke="black" stroke-width="2" fill="none" />
<polyline points="1.0,311.0,9.0,310.5,17.5,309.0,25.5,308.5,33.5,308.0,42.0,307.5,50.5,307.0,58.5,307.0" stroke="black" stroke-width="2" fill="none" />
<polyline points="69.0,297.5,60.5,298.5,52.0,299.5,44.0,300.0,35.5,300.5,27.0,301.0,18.5,301.5,10.0,302.0,2.0,303.0" stroke="black" stroke-width="2" fill="none" />
<polyline points="3.5,293.5,11.5,293.0,19.0,293.0,27.0,292.5,35.5,292.0,43.5,291.5,52.0,291.0,60.0,290.5,68.0,289.0,76.0,288.0,83.5,287.0,91.5,286.5" stroke="black" stroke-width="2" fill="none" />
<polyline points="58.5,285.0,50.5,286.0,42.5,286.5,34.0,287.5,25.5,288.0,17.5,288.5,9.5,289.0,1.5,289.5" stroke="black" stroke-width="2" fill="none" />
<polyline points="2.0,279.5,10.0,279.0,17.5,279.0,26.0,279.5,34.5,279.5,43.0,279.5,51.0,279.5,59.0,279.5,67.0,279.0,75.0,278.5,83.0,278.0" stroke="black" stroke-width="2" fill="none" />
<polyline points="92.5,268.5,84.0,269.5,76.5,269.5,68.5,270.0,60.5,270.0,51.5,270.0,43.5,270.5,35.0,271.5,27.0,272.0,19.0,272.5,10.5,273.0,2.5,273.5" stroke="black" stroke-width="2" fill="none" />
<polyline points="3.0,265.0,11.0,264.5,19.0,264.0,27.5,263.5,36.0,262.5,44.5,262.0,52.5,261.0,60.5,260.0,68.5,259.5,76.5,258.5,85.0,258.0,93.0,258.0,101.0,258.0" stroke="black" stroke-width="2" fill="none" />
<polyline points="100.5,170.5,92.5,178.0,84.5,186.0,76.0,193.5,67.5,200.5,59.5,208.5,51.0,216.0,43.5,224.0,35.5,232.0,28.0,240.0,20.0,248.0,12.0,255.5,3.5,262.5" stroke="black" stroke-width="2" fill="none" />
<polyline points="4.0,262.0,12.5,260.5,20.5,259.5,28.5,258.5,36.5,258.0,44.0,257.5,52.5,256.5,61.0,256.0,69.0,255.5,76.5,255.5,84.0,255.0,92.5,254.0,100.0,253.0,108.0,252.5,116.0,252.0" stroke="black" stroke-width="2" fill="none" />
<polyline points="101.0,168.5,93.0,168.5,85.5,169.0" stroke="black" stroke-width="2" fill="none" />
<polyline points="93.0,163.5,101.0,162.5,108.5,162.0" stroke="black" stroke-width="2" fill="none" />
<polyline points="99.5,154.0,91.5,162.0,84.0,170.0,76.0,178.0,68.0,186.0,60.0,194.0,51.5,201.5,42.5,209.5,34.5,217.0,26.5,224.0,18.5,231.5,10.5,239.0,3.0,247.0" stroke="black" stroke-width="2" fill="none" />
<polyline points="2.0,245.5,10.0,245.0,18.0,244.5,25.5,243.5,33.5,243.0,42.0,243.0,50.0,242.0,59.0,241.0,67.5,240.5,76.0,240.5,84.5,240.0,92.0,239.5,100.0,238.5,107.0,238.0,114.5,238.5,121.5,238.5" stroke="black" stroke-width="2" fill="none" />
<polyline points="74.5,164.0,67.0,171.0,59.0,178.5,50.5,186.5,42.0,194.0,34.0,201.0,26.5,208.5,19.0,216.0,11.5,223.5,4.0,231.0" stroke="black" stroke-width="2" fill="none" />
<polyline points="2.5,230.5,11.0,230.0,19.0,229.5,27.5,228.5,36.0,227.0,44.0,226.0,52.0,226.0,59.0,226.0,66.5,225.5,75.0,225.0,82.5,224.5,90.5,224.5,98.0,224.0,106.0,223.5,113.5,222.5,121.5,221.5,129.5,221.5" stroke="black" stroke-width="2" fill="none" />
<polyline points="90.0,155.0,82.0,162.5,74.0,170.5,66.5,178.0,58.5,185.5,50.5,193.5,42.5,201.0,34.0,208.0,26.0,215.5,18.5,223.5,10.0,231.5,2.0,238.5" stroke="black" stroke-width="2" fill="none" />
<polyline points="2.5,238.0,11.0,238.0,19.0,237.5,27.0,237.5,35.0,237.0,42.5,236.5,51.0,235.5,59.5,234.5,67.5,233.5,75.5,233.5,83.5,233.0,91.5,232.5,99.0,232.5,107.0,232.0,115.5,231.5,123.5,231.0,131.0,230.5" stroke="black" stroke-width="2" fill="none" />
<polyline points="123.0,138.0,115.0,138.5,107.5,139.0,99.5,140.0,91.5,140.5,83.5,141.0" stroke="black" stroke-width="2" fill="none" />
<polyline points="85.0,146.5,77.0,154.0,69.0,162.0,61.0,170.0,52.5,177.5,44.0,185.0,36.0,193.0,28.0,200.0,20.0,208.0,12.5,216.0,4.5,223.5" stroke="black" stroke-width="2" fill="none" />
<polyline points="5.0,223.0,12.5,222.0,20.0,221.5,28.0,220.5,35.5,219.0,44.0,218.0,51.5,217.5,59.5,217.0,67.5,216.5,75.5,216.5,83.5,216.0,92.0,215.5,100.0,215.0,108.5,214.0,116.5,213.5,124.5,213.0,133.0,213.0" stroke="black" stroke-width="2" fill="none" />
<polyline points="82.0,154.5,74.0,155.0" stroke="black" stroke-width="2" fill="none" />
<polyline points="75.0,151.0,83.0,150.5,90.5,149.5,98.0,149.5" stroke="black" stroke-width="2" fill="none" />
<polyline points="91.5,131.5,84.0,131.5" stroke="black" stroke-width="2" fill="none" />
<polyline points="82.0,123.5,90.0,123.5" stroke="black" stroke-width="2" fill="none" />
<polyline points="82.0,118.5,90.0,118.0,98.5,117.5" stroke="black" stroke-width="2" fill="none" />
<polyline points="108.0,124.5,116.0,123.5" stroke="black" stroke-width="2" fill="none" />
<polyline points="116.0,107.5,124.5,107.5,132.5,107.0,140.5,107.0" stroke="black" stroke-width="2" fill="none" />
<polyline points="108.0,101.5,100.0,102.0" stroke="black" stroke-width="2" fill="none" />
<polyline points="107.5,108.5,99.5,109.0,91.0,109.5,82.5,110.0" stroke="black" stroke-width="2" fill="none" />
<polyline points="90.0,101.0,81.5,101.0,73.5,102.0" stroke="black" stroke-width="2" fill="none" />
<polyline points="77.5,97.0,85.5,89.0" stroke="black" stroke-width="2" fill="none" />
<polyline points="84.5,84.5,76.0,92.0" stroke="black" stroke-width="2" fill="none" />
<polyline points="74.5,95.5,82.5,94.5,91.0,93.5" stroke="black" stroke-width="2" fill="none" />
<polyline points="98.5,85.5,90.0,86.0,82.5,86.5,74.5,87.5" stroke="black" stroke-width="2" fill="none" />
<polyline points="74.0,84.5,82.0,77.5" stroke="black" stroke-width="2" fill="none" />
<polyline points="75.0,79.5,83.0,78.5,91.0,78.0" stroke="black" stroke-width="2" fill="none" />
<polyline points="76.5,70.5,84.5,70.0,92.0,69.5,100.5,69.0,109.5,69.0" stroke="black" stroke-width="2" fill="none" />
<polyline points="116.5,60.0,108.0,60.0,100.0,60.5" stroke="black" stroke-width="2" fill="none" />
<polyline points="106.5,45.5,114.5,45.0,123.0,45.0,131.0,44.0,139.0,43.0" stroke="black" stroke-width="2" fill="none" />
<polyline points="132.5,44.0,124.5,51.0" stroke="black" stroke-width="2" fill="none" />
<polyline points="124.0,51.0,131.5,51.0" stroke="black" stroke-width="2" fill="none" />
<polyline points="132.5,42.0,124.5,43.0" stroke="black" stroke-width="2" fill="none" />
<polyline points="117.0,34.5,125.5,27.0" stroke="black" stroke-width="2" fill="none" />
<polyline points="124.5,32.0,116.0,32.0" stroke="black" stroke-width="2" fill="none" />
<polyline points="91.5,27.5,83.0,35.5,75.0,43.0" stroke="black" stroke-width="2" fill="none" />
<polyline points="74.5,46.0,83.0,46.0,91.5,45.0,100.0,44.5" stroke="black" stroke-width="2" fill="none" />
<polyline points="91.0,36.0,83.0,43.0,75.0,50.0" stroke="black" stroke-width="2" fill="none" />
<polyline points="76.5,52.5,84.5,52.0,92.5,52.0" stroke="black" stroke-width="2" fill="none" />
<polyline points="81.0,52.5,73.5,60.0" stroke="black" stroke-width="2" fill="none" />
<polyline points="76.0,61.5,83.5,61.0,91.5,60.5" stroke="black" stroke-width="2" fill="none" />
<polyline points="74.0,37.5,81.5,37.0,90.0,36.5,98.5,36.5,106.5,35.5,115.5,35.5,123.5,34.5,132.5,33.5,140.5,32.5" stroke="black" stroke-width="2" fill="none" />
<polyline points="139.5,61.5,131.5,62.0,124.0,62.5" stroke="black" stroke-width="2" fill="none" />
<polyline points="100.0,28.0,92.0,29.0,83.5,30.0,75.5,30.5" stroke="black" stroke-width="2" fill="none" />
<polyline points="75.5,19.5,84.0,19.0,92.5,18.5,100.5,18.0,108.5,17.5,116.0,17.0,124.0,17.0,132.0,16.5" stroke="black" stroke-width="2" fill="none" />
<polyline points="82.0,4.0,73.5,11.5" stroke="black" stroke-width="2" fill="none" />
<polyline points="76.0,12.0,84.0,11.5,91.5,11.5,99.5,11.5,107.5,11.5,115.5,11.5,124.0,11.5,132.0,11.0" stroke="black" stroke-width="2" fill="none" />
<polyline points="131.5,2.5,124.0,2.5,115.5,2.5,108.0,3.5,100.5,3.5,92.5,3.5,84.5,4.0,76.5,4.0" stroke="black" stroke-width="2" fill="none" />
<polyline points="66.0,156.0,58.0,164.0" stroke="black" stroke-width="2" fill="none" />
<polyline points="59.5,160.0,68.0,159.5,76.0,159.0" stroke="black" stroke-width="2" fill="none" />
<polyline points="76.0,167.5,68.0,168.0,60.0,168.5" stroke="black" stroke-width="2" fill="none" />
<polyline points="51.5,164.5,43.5,172.0,35.5,179.5,28.0,186.5,20.0,193.5,12.0,200.0,4.0,207.0" stroke="black" stroke-width="2" fill="none" />
<polyline points="2.0,207.5,10.0,207.0,17.5,206.5,25.5,205.5,34.0,205.0,42.0,204.0,50.0,203.0,58.0,201.5,66.0,200.5,74.5,199.5,83.0,198.5,91.0,198.5,99.0,198.5,107.0,198.0,115.0,197.5,123.0,197.5,131.0,197.0,139.0,196.5,146.5,196.0,154.0,196.0,162.0,195.5,169.5,195.0,178.0,194.5,186.5,194.5,194.5,193.5,203.5,193.5,211.5,192.5,220.5,191.5,228.5,190.5,236.0,190.0,244.0,189.0,252.5,189.0,260.5,188.5,269.0,188.0,277.0,188.5" stroke="black" stroke-width="2" fill="none" />
<polyline points="108.5,155.0,101.0,155.5,92.5,156.0,84.0,156.5,76.0,156.5,68.0,157.0,60.0,157.5" stroke="black" stroke-width="2" fill="none" />
<polyline points="51.0,172.0,43.0,179.0,35.0,186.5,27.5,194.0,19.5,201.0,11.0,208.5,3.5,216.0" stroke="black" stroke-width="2" fill="none" />
<polyline points="5.5,216.0,13.0,215.0,21.0,214.0,29.0,213.0,37.0,212.0,45.0,211.0,53.0,210.0,61.0,210.0,69.5,209.5,77.5,208.5,86.0,207.5,94.0,207.5,102.0,207.5,110.0,207.0,117.5,206.5,125.5,205.5,133.0,205.0,140.5,204.5,148.5,204.0,156.5,203.5,164.5,202.5" stroke="black" stroke-width="2" fill="none" />
<polyline points="44.5,166.5,36.0,173.5,27.5,180.5,19.5,188.0,11.5,195.0,3.0,202.5" stroke="black" stroke-width="2" fill="none" />
<polyline points="3.5,202.5,11.5,202.0,18.5,201.5,26.5,200.5,34.5,199.5,43.0,199.0,51.0,198.0,59.0,197.5,67.5,197.0,76.0,196.0,84.5,195.5,92.5,195.0,100.5,194.5,108.0,194.0,116.0,193.5" stroke="black" stroke-width="2" fill="none" />
<polyline points="37.0,163.5,29.0,171.5,20.0,179.5,12.0,187.5,4.0,195.0" stroke="black" stroke-width="2" fill="none" />
<polyline points="4.5,192.5,12.5,192.0,20.5,191.5,28.0,191.0,35.5,191.0,43.0,190.5,52.0,190.0,60.5,189.5,69.0,189.0,77.0,188.5,85.0,188.0,93.0,187.5,101.5,187.0,109.0,187.0,116.5,186.5" stroke="black" stroke-width="2" fill="none" />
<polyline points="51.0,168.5,43.5,169.5,35.5,170.0,28.0,170.5" stroke="black" stroke-width="2" fill="none" />
<polyline points="29.0,165.5,37.0,165.0,44.5,165.0,52.0,164.5,60.5,164.0,68.5,163.5,76.0,162.5,84.5,161.0,92.5,160.5,100.0,160.0,108.0,159.5,116.0,159.0" stroke="black" stroke-width="2" fill="none" />
<polyline points="19.5,171.5,11.5,179.0,3.5,186.5" stroke="black" stroke-width="2" fill="none" />
<polyline points="2.0,186.0,10.0,185.0,18.5,184.0,26.5,184.0,35.0,184.0,43.5,183.5,52.0,183.0,60.5,182.0,69.0,181.5,76.5,181.0,84.5,180.5,92.5,180.0,101.0,179.5,109.0,178.5,117.0,178.0" stroke="black" stroke-width="2" fill="none" />
<polyline points="108.5,172.0,100.5,172.5,92.0,173.0,84.0,173.5,76.0,174.5,68.0,174.5,60.0,175.5,52.0,176.0,44.0,176.0,36.0,176.0,28.0,176.5,20.0,177.0" stroke="black" stroke-width="2" fill="none" />
<polyline points="11.0,175.0,19.0,174.5,27.5,174.0,35.5,173.5,43.5,172.5,52.0,171.5,60.0,171.0,68.0,170.5,76.5,170.0,85.5,170.0,93.5,169.5,101.5,169.0,109.0,168.5,116.5,167.0,124.0,166.0,131.0,165.0,139.0,164.5" stroke="black" stroke-width="2" fill="none" />
<polyline points="107.5,250.0,99.5,251.0,91.0,251.5,82.5,251.5,75.0,252.0,67.5,252.5,60.0,253.0,52.0,253.0,44.0,254.0,36.5,254.5,28.5,255.0,20.5,256.0,12.0,256.5,4.0,257.0" stroke="black" stroke-width="2" fill="none" />
<polyline points="3.5,250.0,11.5,249.5,19.5,249.0,27.5,248.0,35.0,247.5,42.5,247.0,50.5,246.5,58.5,246.0,67.0,245.0,75.0,244.5,82.5,244.5,90.5,244.0,98.5,243.5,106.0,242.5,114.0,242.5,122.0,242.5" stroke="black" stroke-width="2" fill="none" />
<polyline points="115.0,235.5,107.0,236.0,99.0,235.5,92.0,235.5,84.0,236.0,75.5,236.0,67.5,236.5,59.5,237.5,51.5,238.5,43.5,239.0,35.5,239.5,27.0,240.5,18.5,241.0,10.5,241.5,3.0,241.5" stroke="black" stroke-width="2" fill="none" />
<polyline points="3.0,235.0,11.5,234.5,20.0,234.0,28.0,233.0,35.5,232.5,43.0,232.0,51.0,231.5,59.5,230.5,67.5,230.0,76.0,229.5,84.0,229.0,92.0,229.0,100.0,228.0,108.0,227.5,115.5,227.0,123.5,226.5" stroke="black" stroke-width="2" fill="none" />
<polyline points="132.0,217.5,124.0,217.5,115.5,217.5,107.0,217.5,99.0,218.0,91.0,218.5,83.0,219.0,75.0,219.5,66.5,220.0,58.5,221.0,51.0,221.5,43.0,222.0,35.5,223.5,27.5,224.5,20.0,225.0,13.0,225.5,5.0,226.0" stroke="black" stroke-width="2" fill="none" />
<polyline points="5.5,219.5,13.5,219.0,21.5,218.0,29.5,217.0,37.5,215.5,45.5,214.0,53.0,213.0,60.5,212.5,68.5,212.0,77.0,212.0,85.0,211.5,93.0,211.5,100.5,211.5,108.0,211.0,116.0,210.5,124.0,210.0" stroke="black" stroke-width="2" fill="none" />
<polyline points="123.5,202.0,116.0,202.0,108.5,202.5,100.5,202.5,92.0,202.5,84.0,203.0,76.0,204.0,68.0,205.0,60.0,206.0,52.0,206.5,43.5,207.5,35.5,208.0,28.0,209.0,20.5,210.0,12.0,211.0,4.0,212.0" stroke="black" stroke-width="2" fill="none" />
<polyline points="5.0,199.5,12.5,198.5,20.0,198.0,28.0,197.5,36.5,197.0,44.5,196.5,53.0,195.5,61.0,194.5,69.0,193.5,77.0,193.5,85.0,193.0,93.0,192.0,101.0,191.5,109.0,191.0,116.5,190.5,123.5,190.0" stroke="black" stroke-width="2" fill="none" />
<polyline points="116.0,183.0,108.0,183.5,100.0,183.5,92.0,184.0,83.5,184.5,76.0,185.0,68.5,185.0,60.5,185.0,52.0,185.5,44.0,186.5,35.5,186.5,28.0,187.0,20.0,187.5,11.5,188.0,3.5,188.5" stroke="black" stroke-width="2" fill="none" />
</svg>