<svg xmlns="http://www.w3.org/2000/svg" version="1.1"><polyline points="138.5,219.5,135.5,227.5,134.5,228.0,141.5,219.5" stroke="black" stroke-width="2" fill="none" />
<polyline points="140.5,220.0,136.5,228.0,137.0,228.0,142.5,230.0" stroke="black" stroke-width="2" fill="none" />
<polyline points="155.5,228.0,163.0,224.0,167.0,215.5,158.0,212.5" stroke="black" stroke-width="2" fill="none" />
<polyline points="157.0,200.0,168.0,198.5,168.5,206.0,163.0,210.0,155.0,220.5,151.0,228.5,159.0,226.0,153.5,224.0,161.5,224.0,166.0,213.5,175.0,212.5,176.0,221.0,173.0,229.0,177.0,237.0,174.0,245.0,172.0,251.0,175.0,259.0,169.0,267.0,168.0,275.0,160.0,283.0,159.5,291.0,163.0,293.0,173.0,295.5,181.0,295.0,189.0,298.0,190.0,305.0,198.0,301.0,196.0,302.5,204.0,302.5,206.0,297.0,212.5,293.5,218.0,287.0,226.0,285.5,236.0,272.5" stroke="black" stroke-width="2" fill="none" />
<polyline points="232.0,265.5,232.0,273.5,231.0,281.0,228.0,294.0,236.0,288.0,244.5,281.0,252.5,273.5,261.0,279.0,269.0,286.0,277.0,293.5,285.0,299.5,293.0,304.5,301.0,310.5,309.0,317.5,317.0,324.5,325.0,325.0,333.0,323.0,341.0,327.0,349.0,333.5,356.5,331.5,364.5,333.5,372.5,341.0,381.0,348.0,389.0,355.5,397.0,361.5" stroke="black" stroke-width="2" fill="none" />
<polyline points="386.5,387.0,379.0,379.0,371.0,373.0,363.0,365.0,355.0,359.0,347.5,352.0,339.5,344.0,332.0,339.0,324.0,332.0" stroke="black" stroke-width="2" fill="none" />
<polyline points="329.5,323.0,323.5,331.0,332.5,338.0,341.0,346.0,351.0,354.0,352.0,362.0,355.5,364.5,351.5,359.5" stroke="black" stroke-width="2" fill="none" />
<polyline points="362.0,362.5,370.0,371.0,380.0,379.0,386.5,387.0,379.5,395.0,373.5,400.0,366.5,406.5,359.0,413.5,348.5,421.5,340.5,429.5,336.0,438.5,343.0,433.5" stroke="black" stroke-width="2" fill="none" />
<polyline points="318.5,427.0,326.0,429.0,330.0,433.5,338.0,433.0,346.0,427.0,354.0,418.0,362.0,413.0" stroke="black" stroke-width="2" fill="none" />
<polyline points="351.5,400.5,353.5,393.0" stroke="black" stroke-width="2" fill="none" />
<polyline points="336.5,394.0,338.5,402.0" stroke="black" stroke-width="2" fill="none" />
<polyline points="326.5,388.5,322.0,389.5,324.0,381.5" stroke="black" stroke-width="2" fill="none" />
<polyline points="324.0,380.5,320.5,388.5,327.0,396.5,331.0,395.0,331.5,392.0,339.5,395.0,347.5,400.0" stroke="black" stroke-width="2" fill="none" />
<polyline points="343.0,409.5,345.0,409.5,341.0,405.0,347.5,396.5,346.5,388.5,340.5,388.0,339.0,380.0" stroke="black" stroke-width="2" fill="none" />
<polyline points="355.0,384.5,345.0,384.5,337.0,374.5,329.0,373.5,322.5,373.5,321.5,371.5,310.5,379.5,318.5,378.0" stroke="black" stroke-width="2" fill="none" />
<polyline points="316.5,376.0,310.5,378.5,310.5,381.5,319.5,377.0,322.0,384.0,322.0,390.0,324.5,380.0,332.5,377.5,333.5,385.5,336.5,378.5,340.0,391.5,340.5,388.5,348.0,393.5,353.0,393.5,361.0,399.5,355.5,404.5,353.0,408.5,348.0,412.5" stroke="black" stroke-width="2" fill="none" />
<polyline points="319.0,421.5,328.0,429.5,337.0,437.5,335.0,446.0,343.5,449.0" stroke="black" stroke-width="2" fill="none" />
<polyline points="337.0,462.0,344.5,459.0,352.0,460.0,355.0,468.5" stroke="black" stroke-width="2" fill="none" />
<polyline points="367.0,474.0,370.0,471.0,365.0,480.0,364.5,482.5,369.5,480.5,377.5,476.0" stroke="black" stroke-width="2" fill="none" />
<polyline points="372.5,471.0,368.5,479.0,372.0,481.0,367.0,489.0" stroke="black" stroke-width="2" fill="none" />
<polyline points="381.5,458.5,390.0,460.5" stroke="black" stroke-width="2" fill="none" />
<polyline points="407.5,467.5,415.5,471.5" stroke="black" stroke-width="2" fill="none" />
<polyline points="441.5,493.5,441.5,495.5,450.5,499.5,454.0,506.5,455.0,499.5,462.0,500.0,465.5,500.5" stroke="black" stroke-width="2" fill="none" />
<polyline points="459.0,491.0,458.5,492.0,459.5,500.0,451.5,504.0,451.5,507.5,453.5,515.5,457.0,515.5" stroke="black" stroke-width="2" fill="none" />
<polyline points="451.0,495.0,443.0,496.0" stroke="black" stroke-width="2" fill="none" />
<polyline points="431.5,512.5,423.5,513.5" stroke="black" stroke-width="2" fill="none" />
<polyline points="418.0,562.0,422.0,563.0,420.0,571.5,415.0,582.0,415.5,590.0,417.5,590.5" stroke="black" stroke-width="2" fill="none" />
<polyline points="411.5,584.0,400.0,594.0,405.0,586.5" stroke="black" stroke-width="2" fill="none" />
<polyline points="394.0,615.0,387.0,618.5,387.0,617.5" stroke="black" stroke-width="2" fill="none" />
<polyline points="378.5,612.5,386.0,616.5,394.0,613.0,402.0,615.0" stroke="black" stroke-width="2" fill="none" />
<polyline points="432.0,625.0,440.0,620.0" stroke="black" stroke-width="2" fill="none" />
<polyline points="488.5,629.0,492.5,629.0" stroke="black" stroke-width="2" fill="none" />
<polyline points="461.0,581.0,468.0,570.5,460.5,566.5,454.5,558.0,451.5,555.0" stroke="black" stroke-width="2" fill="none" />
<polyline points="482.0,537.5,490.0,538.5" stroke="black" stroke-width="2" fill="none" />
<polyline points="474.5,490.0,482.5,486.5" stroke="black" stroke-width="2" fill="none" />
<polyline points="415.5,441.5,417.0,439.0,409.0,435.5" stroke="black" stroke-width="2" fill="none" />
<polyline points="400.0,409.5,390.0,401.0" stroke="black" stroke-width="2" fill="none" />
<polyline points="396.5,416.5,384.0,426.5,376.5,432.0,383.5,426.5,397.0,416.5,396.0,408.5,393.5,398.5,391.0,393.5,381.0,394.5,373.0,401.5,366.5,407.0,358.0,403.0,354.0,407.5,346.0,407.0,342.5,411.0,341.5,405.0,338.0,403.0,334.0,403.0,330.0,397.5,334.0,398.0,333.5,395.0,340.5,393.0,332.0,385.0,325.5,377.0,327.5,370.0,327.0,362.0,325.5,363.0" stroke="black" stroke-width="2" fill="none" />
<polyline points="299.5,344.0,293.5,349.5,285.0,343.5" stroke="black" stroke-width="2" fill="none" />
<polyline points="283.5,350.5,291.5,352.5" stroke="black" stroke-width="2" fill="none" />
<polyline points="285.5,357.5,284.0,349.5,283.0,341.5,275.0,340.5" stroke="black" stroke-width="2" fill="none" />
<polyline points="270.0,336.5,278.0,336.5,287.0,340.5,289.0,348.5,297.5,351.5,294.0,357.5,291.0,362.5,295.0,359.0,300.0,359.5" stroke="black" stroke-width="2" fill="none" />
<polyline points="306.0,351.0,301.0,353.0,290.0,351.0,278.0,349.0" stroke="black" stroke-width="2" fill="none" />
<polyline points="267.5,338.0,271.5,346.0,276.0,342.5,275.0,350.5,274.5,356.0,280.5,352.0,284.5,358.0,293.0,356.5,301.0,355.5" stroke="black" stroke-width="2" fill="none" />
<polyline points="294.0,331.5,295.0,325.5,287.5,317.5,279.5,324.5,271.5,331.0,263.5,338.0,260.5,337.0,253.0,335.0,255.0,338.0,247.5,330.5,259.5,324.5,269.0,312.5,276.0,304.5,281.0,296.5,272.0,289.0,262.0,291.0,254.0,297.0,246.0,305.5" stroke="black" stroke-width="2" fill="none" />
<polyline points="255.0,280.0,247.0,288.5,239.0,295.0,230.5,302.0,222.5,306.0,220.5,305.0,211.5,312.0,203.0,318.5,194.5,321.5,186.5,321.5" stroke="black" stroke-width="2" fill="none" />
<polyline points="191.5,330.0,199.5,334.0" stroke="black" stroke-width="2" fill="none" />
<polyline points="199.0,342.0,191.0,336.0" stroke="black" stroke-width="2" fill="none" />
<polyline points="190.5,336.5,200.5,344.0" stroke="black" stroke-width="2" fill="none" />
<polyline points="199.0,347.0,191.0,345.0,183.0,335.5" stroke="black" stroke-width="2" fill="none" />
<polyline points="200.5,324.0,208.5,331.0,216.5,338.0,220.5,348.0,227.5,356.0,236.5,364.5,243.0,372.5" stroke="black" stroke-width="2" fill="none" />
<polyline points="261.5,373.0,261.5,373.0,268.0,379.0,275.0,384.0" stroke="black" stroke-width="2" fill="none" />
<polyline points="278.0,398.5,276.0,399.5,275.0,407.5,274.5,415.0,278.5,426.0,288.5,434.0,298.0,441.5,307.0,449.5,316.5,457.0,321.0,465.0,330.0,473.0,335.0,473.5" stroke="black" stroke-width="2" fill="none" />
<polyline points="302.5,413.0,294.5,406.0" stroke="black" stroke-width="2" fill="none" />
<polyline points="294.5,402.0,304.5,408.5" stroke="black" stroke-width="2" fill="none" />
<polyline points="282.0,423.5,291.0,431.5,302.0,441.0,311.0,449.0,320.0,457.0" stroke="black" stroke-width="2" fill="none" />
<polyline points="319.0,465.5,319.0,461.0,311.5,454.0,303.5,446.5,296.5,439.5,288.0,433.5,280.0,427.0" stroke="black" stroke-width="2" fill="none" />
<polyline points="277.5,424.0,285.5,426.0,293.5,433.5,301.5,440.5,309.5,448.5,317.5,456.0" stroke="black" stroke-width="2" fill="none" />
<polyline points="255.5,473.5,254.0,478.5,257.5,486.0,260.5,494.0" stroke="black" stroke-width="2" fill="none" />
<polyline points="266.5,489.0,258.0,472.5,253.0,473.5,245.0,471.5,241.0,463.5,233.0,463.5" stroke="black" stroke-width="2" fill="none" />
<polyline points="241.5,460.0,233.5,449.0" stroke="black" stroke-width="2" fill="none" />
<polyline points="233.5,448.5,241.5,454.5" stroke="black" stroke-width="2" fill="none" />
<polyline points="251.5,472.0,257.5,472.5,257.5,480.0,262.0,482.0,261.0,489.5,264.0,491.0,267.0,494.0,269.0,502.0" stroke="black" stroke-width="2" fill="none" />
<polyline points="262.0,533.0,270.0,536.5,276.0,541.5" stroke="black" stroke-width="2" fill="none" />
<polyline points="268.0,538.0,276.0,546.0,283.5,553.5,297.5,558.5,300.5,559.5,301.0,564.5,307.0,572.5,315.5,577.5,323.5,585.5,329.5,588.5,332.5,588.5,340.0,593.0" stroke="black" stroke-width="2" fill="none" />
<polyline points="334.5,577.0,326.5,574.0,321.5,570.0,317.5,563.0,313.0,567.5,310.0,564.5,302.0,559.0,294.0,556.0,286.0,557.0,285.0,550.5,276.0,544.0,264.5,544.0,256.5,536.5,248.0,528.5,243.0,525.5,232.0,517.0,222.0,513.5,215.0,505.0,209.0,497.0,202.0,490.5,193.0,482.0,185.5,474.0,179.0,466.0,172.0,458.0,167.0,450.0,162.0,442.0,157.5,434.0,154.5,426.5,150.5,418.0,148.0,410.5,148.5,402.5,155.5,390.5,152.5,382.0,140.5,375.5,130.5,366.5,124.5,359.0,118.5,351.0,111.0,347.0,113.5,338.5,108.5,334.0,110.5,327.0,108.5,319.5,106.5,311.5,104.0,304.0,101.5,296.5,100.5,288.0,100.0,280.0,99.5,272.0,97.5,263.5,94.5,255.0,95.0,247.0,91.0,246.5,91.0,246.0" stroke="black" stroke-width="2" fill="none" />
<polyline points="93.0,246.5,101.0,259.5,109.0,268.5,117.0,276.0,125.0,273.0,127.0,282.5,135.5,278.0,140.5,284.0,149.0,287.0,157.5,288.0,161.5,285.5,169.0,287.0,185.5,287.0,193.5,285.5,205.5,289.5,216.5,293.5,218.5,290.5" stroke="black" stroke-width="2" fill="none" />
<polyline points="224.0,281.5,225.0,278.5,224.0,270.5,220.5,278.0,209.5,286.0,205.5,297.0,193.0,297.0,197.0,306.0,191.0,301.5,189.0,304.0" stroke="black" stroke-width="2" fill="none" />
<polyline points="179.0,300.0,184.0,293.0,187.5,285.5,184.5,293.5" stroke="black" stroke-width="2" fill="none" />
<polyline points="179.5,281.5,172.0,277.5" stroke="black" stroke-width="2" fill="none" />
<polyline points="170.0,275.5,170.5,283.5,168.5,292.0,173.5,303.0,181.5,311.0" stroke="black" stroke-width="2" fill="none" />
<polyline points="178.5,294.0,170.0,280.0" stroke="black" stroke-width="2" fill="none" />
<polyline points="171.5,274.5,171.0,263.5,176.0,255.5,184.0,254.0,192.0,251.0,199.5,252.0,201.0,248.0,210.5,252.0,216.5,256.0,221.5,256.5,226.0,258.5,226.0,266.5,230.0,258.5" stroke="black" stroke-width="2" fill="none" />
<polyline points="222.0,258.5,227.0,260.5,229.0,265.5,229.5,273.0,224.0,278.0,228.0,281.0,222.0,282.5,214.0,288.5,218.5,292.0,211.5,295.5,218.0,307.5,207.0,315.5,198.0,323.0,207.5,330.5,215.5,337.5,224.5,346.0,233.5,354.0,241.0,360.0,246.0,363.0,242.0,367.0,253.5,370.5,263.5,378.5,272.5,387.0,281.5,395.0,291.0,403.0,300.0,411.5,309.0,419.5,319.0,428.0,317.0,431.0,329.0,437.0,326.5,445.0,326.0,453.5,327.5,458.0,326.5,465.0,329.0,469.0,328.0,458.0,338.0,456.0,341.5,457.5,335.5,458.5,338.5,462.5,334.0,470.5,332.0,474.5,334.0,473.5,338.0,478.5,343.0,480.0,351.0,476.0,363.5,476.5,371.5,465.5,384.0,462.5,390.0,467.0" stroke="black" stroke-width="2" fill="none" />
<polyline points="353.0,443.0,348.0,445.5,340.0,444.5,331.0,438.0,323.0,431.0,321.0,426.5,313.0,423.0,311.5,418.0,303.5,411.5,295.5,403.5,287.0,400.5,283.0,390.0,275.0,389.5,267.5,382.5,265.5,380.5,259.5,375.5,252.0,369.0,244.5,373.0,243.5,365.5,240.5,360.0,232.5,353.0,224.5,347.0,216.5,346.0,206.5,355.0,207.5,350.5,204.5,341.5,197.5,334.0,191.0,331.0,179.0,318.5,170.0,310.5,156.5,320.0,148.5,324.0" stroke="black" stroke-width="2" fill="none" />
<polyline points="157.0,322.5,165.0,324.5" stroke="black" stroke-width="2" fill="none" />
<polyline points="158.5,334.5,166.5,341.5" stroke="black" stroke-width="2" fill="none" />
<polyline points="168.0,347.0,160.0,344.0,152.0,334.0" stroke="black" stroke-width="2" fill="none" />
<polyline points="158.0,342.0,152.0,334.0,150.0,326.0,155.5,318.0,162.0,310.0,158.0,300.5,150.0,292.5,135.0,297.0,126.5,297.0,118.5,292.5" stroke="black" stroke-width="2" fill="none" />
<polyline points="128.0,291.5,120.0,287.5,112.5,284.5" stroke="black" stroke-width="2" fill="none" />
<polyline points="122.0,294.5,112.0,286.5,106.0,278.5,101.5,270.5,102.0,270.5" stroke="black" stroke-width="2" fill="none" />
<polyline points="90.5,250.0,100.5,259.0,107.5,267.0,114.5,275.0,112.0,282.0,128.0,287.5,133.5,299.5,141.0,302.5,149.0,309.5" stroke="black" stroke-width="2" fill="none" />
<polyline points="160.0,300.5,152.0,293.5,140.5,292.5,132.5,287.5,124.5,283.5,116.5,279.5,114.0,267.5,106.0,259.5,98.0,246.5" stroke="black" stroke-width="2" fill="none" />
<polyline points="105.0,238.5,106.0,233.5,111.5,230.0,103.5,238.0,109.0,241.0,109.0,249.0,110.5,250.5,118.5,248.5,131.0,244.0,135.0,240.0" stroke="black" stroke-width="2" fill="none" />
<polyline points="135.0,250.5,133.0,256.5,133.0,264.5,135.0,267.5,142.5,270.5,150.5,268.0,158.5,260.0,157.5,265.5" stroke="black" stroke-width="2" fill="none" />
<polyline points="164.5,247.0,172.0,249.5,174.0,253.5,180.0,250.0,188.0,248.0,196.0,245.5,204.5,245.5,212.5,246.0" stroke="black" stroke-width="2" fill="none" />
<polyline points="188.5,250.5,180.5,257.5,189.5,261.5,186.5,270.0,189.5,274.0" stroke="black" stroke-width="2" fill="none" />
<polyline points="190.5,268.0,182.5,263.0" stroke="black" stroke-width="2" fill="none" />
<polyline points="179.5,262.0,187.5,257.0" stroke="black" stroke-width="2" fill="none" />
<polyline points="174.0,245.0,182.0,235.0,190.5,235.0" stroke="black" stroke-width="2" fill="none" />
<polyline points="151.0,241.0,159.0,249.0,157.0,257.0,152.5,265.5,158.5,263.0" stroke="black" stroke-width="2" fill="none" />
<polyline points="153.0,255.5,146.5,252.5,152.5,251.5,150.5,243.5,151.5,244.5" stroke="black" stroke-width="2" fill="none" />
<polyline points="149.5,242.5,157.0,243.5,165.5,253.0,168.0,261.0,175.0,265.5,175.5,270.0,173.5,278.0,175.0,285.5,177.5,290.5,175.5,294.5,169.5,302.5,177.5,303.5,185.5,311.0,181.5,315.0" stroke="black" stroke-width="2" fill="none" />
<polyline points="187.5,319.5,202.5,315.5,212.5,308.0,220.5,300.0,228.5,292.5,237.5,285.0,246.5,277.0,247.0,268.5,236.0,260.5,226.5,253.0,220.5,252.0,214.5,245.5,209.5,237.5,204.5,230.0,190.5,222.0,179.0,214.0,171.0,206.0,166.0,202.5" stroke="black" stroke-width="2" fill="none" />
<polyline points="140.5,195.0,142.0,189.5,150.0,189.5,158.5,191.5,167.0,196.5,175.0,208.5,182.5,214.0,190.0,220.0,197.5,222.5,205.5,232.5,213.5,239.5,214.5,247.5,225.0,249.5,233.5,257.0,241.5,263.0,249.5,269.0" stroke="black" stroke-width="2" fill="none" />
<polyline points="255.5,273.5,244.5,281.5,236.5,289.0,224.0,300.0,224.0,312.0,235.0,316.0,240.0,326.0,242.0,328.0,250.5,331.0,257.5,322.5" stroke="black" stroke-width="2" fill="none" />
<polyline points="265.0,337.0,274.0,329.0,280.5,321.0,288.0,316.5,294.0,313.5,295.0,313.0,287.0,313.5" stroke="black" stroke-width="2" fill="none" />
<polyline points="288.0,322.0,291.0,330.0,295.5,331.5,292.5,345.5,299.0,348.0,302.0,359.0,300.0,366.0" stroke="black" stroke-width="2" fill="none" />
<polyline points="247.0,361.0,236.5,353.5,227.5,345.5,219.5,337.5,209.5,330.0,201.5,322.5" stroke="black" stroke-width="2" fill="none" />
<polyline points="212.5,345.5,210.5,353.5,220.5,354.5,229.5,362.5,234.0,370.5,233.0,375.5,242.0,383.0" stroke="black" stroke-width="2" fill="none" />
<polyline points="227.0,394.5,229.0,389.5,226.0,392.5,227.0,403.5,234.0,412.0,229.0,422.0,233.5,425.5" stroke="black" stroke-width="2" fill="none" />
<polyline points="242.0,429.0,242.5,436.5,238.5,445.5" stroke="black" stroke-width="2" fill="none" />
<polyline points="210.0,446.5,218.0,455.5,226.5,465.0,234.0,475.0,242.0,483.5" stroke="black" stroke-width="2" fill="none" />
<polyline points="250.5,476.0,239.5,470.0,233.5,470.5,225.5,460.5,217.0,451.0,209.0,445.0" stroke="black" stroke-width="2" fill="none" />
<polyline points="210.0,443.0,215.0,451.5,221.0,459.5,227.0,467.5,231.5,475.5,237.5,483.5,241.0,491.5,244.0,499.5,244.0,507.5" stroke="black" stroke-width="2" fill="none" />
<polyline points="265.5,506.0,265.5,498.0,264.5,493.5,256.5,484.5,247.5,488.5,247.5,485.0,249.5,477.0,248.0,474.0,244.0,462.5,238.5,454.5,233.5,446.5,229.0,433.5,221.0,425.5,211.5,418.0,202.5,410.0,192.5,402.5,190.5,403.5" stroke="black" stroke-width="2" fill="none" />
<polyline points="189.0,401.5,197.0,404.5,205.0,411.5,206.0,407.0" stroke="black" stroke-width="2" fill="none" />
<polyline points="203.5,415.0,195.0,411.0,186.5,406.0,179.0,413.0,171.5,408.0,169.5,402.5,161.5,399.5,153.5,398.5" stroke="black" stroke-width="2" fill="none" />
<polyline points="156.5,396.5,164.5,395.5,172.5,398.0" stroke="black" stroke-width="2" fill="none" />
<polyline points="168.0,392.0,160.5,392.5" stroke="black" stroke-width="2" fill="none" />
<polyline points="155.5,391.0,163.5,388.5,172.0,390.5" stroke="black" stroke-width="2" fill="none" />
<polyline points="162.0,401.5,177.0,401.0,172.0,409.0,186.0,419.0,193.5,424.5,199.0,421.0,205.0,418.0,219.0,425.0,227.0,424.0,236.0,420.0,235.0,428.5,236.0,436.5,236.0,443.5,236.0,449.5,241.5,457.5,239.5,468.0,239.5,476.0,242.5,489.5,251.5,492.5,251.5,500.5,250.5,508.0,252.5,519.5,254.5,528.0,263.5,538.0,270.5,545.5,279.5,554.0" stroke="black" stroke-width="2" fill="none" />
<polyline points="302.0,568.5,311.5,572.5,313.0,577.0" stroke="black" stroke-width="2" fill="none" />
<polyline points="320.5,574.5,323.5,582.5,325.5,581.0,334.5,582.0,342.5,586.0,353.5,588.5" stroke="black" stroke-width="2" fill="none" />
<polyline points="373.5,600.5,381.5,601.5" stroke="black" stroke-width="2" fill="none" />
<polyline points="252.5,507.0,244.5,509.0,236.5,510.0,228.5,504.0,220.5,502.5,212.5,495.5,203.0,490.5,195.0,483.5,187.0,474.5,179.0,466.0,171.0,455.0,163.5,444.0,155.5,431.0" stroke="black" stroke-width="2" fill="none" />
<polyline points="148.0,408.0,156.5,406.0,164.5,409.0,172.5,413.0,180.5,418.0,188.0,418.5,196.5,426.0" stroke="black" stroke-width="2" fill="none" />
<polyline points="202.5,434.0,203.5,439.5,211.5,435.5,213.0,438.5,221.5,448.0" stroke="black" stroke-width="2" fill="none" />
<polyline points="218.0,467.0,210.0,462.0,202.0,453.0,194.0,443.5" stroke="black" stroke-width="2" fill="none" />
<polyline points="195.5,443.5,199.5,451.5,206.0,459.5,216.0,467.5" stroke="black" stroke-width="2" fill="none" />
<polyline points="218.0,460.5,210.5,450.0,202.5,442.0,194.5,440.0" stroke="black" stroke-width="2" fill="none" />
<polyline points="192.0,429.0,184.0,422.0" stroke="black" stroke-width="2" fill="none" />
<polyline points="191.5,420.5,183.5,413.0" stroke="black" stroke-width="2" fill="none" />
<polyline points="191.0,410.5,199.0,418.5,207.5,425.5,215.5,433.5,223.5,442.5" stroke="black" stroke-width="2" fill="none" />
<polyline points="222.5,440.0,214.5,432.0,215.5,428.5,207.0,420.5,199.0,429.5,198.5,434.0,212.5,430.0,204.5,422.5,194.5,422.5,185.0,414.0,184.5,405.5,190.5,397.5,194.0,397.5,189.5,396.5" stroke="black" stroke-width="2" fill="none" />
<polyline points="193.0,404.0,194.0,412.0,201.0,417.0" stroke="black" stroke-width="2" fill="none" />
<polyline points="193.5,410.5,203.5,419.0,212.5,426.5,209.5,437.5,213.0,440.5,218.5,448.5,222.5,458.5,229.0,466.5,231.0,469.0,236.5,477.5,241.5,485.5,243.5,488.5,252.5,489.5" stroke="black" stroke-width="2" fill="none" />
<polyline points="212.5,498.0,212.5,501.0,218.5,509.5,227.5,513.5,235.5,518.0,244.0,524.5,252.0,522.5,253.0,533.0,261.5,538.0,269.5,549.5" stroke="black" stroke-width="2" fill="none" />
<polyline points="233.5,409.0,225.0,401.0,217.0,400.5,209.0,394.5,201.0,388.5,193.0,383.5" stroke="black" stroke-width="2" fill="none" />
<polyline points="194.0,381.0,205.5,389.0,217.5,397.0,227.0,405.5,227.0,410.0,224.0,418.0,221.0,420.0,228.0,425.0,228.0,433.0,231.0,436.5" stroke="black" stroke-width="2" fill="none" />
<polyline points="245.0,434.5,246.0,435.5,242.0,426.0,234.0,417.0,226.0,409.5,213.5,406.5,210.5,416.5,216.5,413.5,212.0,413.0,209.5,407.0,213.5,398.5,202.0,390.0,190.0,382.0,198.0,368.5,204.0,369.0,196.0,360.0,188.0,360.0,180.0,361.0,171.5,361.5,163.5,366.5" stroke="black" stroke-width="2" fill="none" />
<polyline points="165.0,372.0,173.0,371.0,180.5,368.0,184.0,367.0,192.0,366.0,200.0,365.0,208.0,366.0,216.5,370.5,223.5,377.0,232.0,384.0,240.0,392.5" stroke="black" stroke-width="2" fill="none" />
<polyline points="241.0,389.5,233.0,381.5,224.5,373.5" stroke="black" stroke-width="2" fill="none" />
<polyline points="219.0,374.5,228.0,381.0" stroke="black" stroke-width="2" fill="none" />
<polyline points="218.0,376.5,226.5,384.0,234.5,390.0" stroke="black" stroke-width="2" fill="none" />
<polyline points="241.5,378.5,241.0,374.5,233.0,368.5,224.5,363.5,217.0,357.5" stroke="black" stroke-width="2" fill="none" />
<polyline points="214.5,353.0,223.0,355.0,230.5,361.5,237.5,375.5" stroke="black" stroke-width="2" fill="none" />
<polyline points="238.0,361.5,230.0,358.0,221.5,351.0" stroke="black" stroke-width="2" fill="none" />
<polyline points="213.5,346.5,213.0,354.5,221.0,362.5,223.0,372.5,231.5,372.0,237.0,379.0,245.0,381.5" stroke="black" stroke-width="2" fill="none" />
<polyline points="215.5,396.0,207.5,390.0" stroke="black" stroke-width="2" fill="none" />
<polyline points="210.0,385.5,220.0,393.5,229.0,401.5,238.0,409.5" stroke="black" stroke-width="2" fill="none" />
<polyline points="228.5,407.5,218.0,394.5,210.0,388.5,202.0,387.0" stroke="black" stroke-width="2" fill="none" />
<polyline points="206.0,383.5,212.0,391.5,216.0,401.0,220.5,408.5,213.5,418.5,216.5,412.0,229.5,416.0" stroke="black" stroke-width="2" fill="none" />
<polyline points="229.5,418.5,225.5,410.0" stroke="black" stroke-width="2" fill="none" />
<polyline points="241.0,395.0,236.0,395.0,233.0,387.0,221.5,379.0,215.0,364.5,207.0,358.5" stroke="black" stroke-width="2" fill="none" />
<polyline points="190.5,382.0,198.0,383.5,206.5,383.0,214.5,389.0,222.5,395.5,231.0,402.5,239.0,403.0" stroke="black" stroke-width="2" fill="none" />
<polyline points="246.0,360.5,237.5,354.5,231.0,348.0,223.0,341.0,215.0,334.0,208.0,328.5,196.0,316.5,188.5,313.5,180.5,306.5,169.0,302.5,161.0,298.5,153.0,291.0" stroke="black" stroke-width="2" fill="none" />
<polyline points="151.0,287.5,160.5,296.0,173.5,302.0,179.5,311.0,181.5,322.5,185.5,330.5,186.5,338.5,195.5,345.0,205.0,351.0,209.0,360.5,217.0,368.0,227.0,374.0,236.0,382.0,240.0,390.5,242.5,398.0,236.5,404.0,241.5,399.0" stroke="black" stroke-width="2" fill="none" />
<polyline points="205.0,415.0,195.0,407.0" stroke="black" stroke-width="2" fill="none" />
<polyline points="181.0,364.5,172.5,365.0" stroke="black" stroke-width="2" fill="none" />
<polyline points="174.0,360.0,165.5,368.0,168.0,377.0,158.0,385.0,165.5,378.5,173.5,375.5,181.5,374.5,189.0,375.5,195.0,371.5,198.5,374.0" stroke="black" stroke-width="2" fill="none" />
<polyline points="148.5,405.5,160.5,408.5,176.5,416.5,186.5,424.5,195.5,432.5,203.5,440.5,205.0,447.0,213.0,454.5,219.0,462.5" stroke="black" stroke-width="2" fill="none" />
<polyline points="155.0,383.0,148.0,380.5,140.0,375.5,135.5,369.5,127.5,359.5,120.5,350.5,112.0,347.5" stroke="black" stroke-width="2" fill="none" />
<polyline points="169.0,344.0,162.5,338.5,159.5,330.5,155.5,322.5,163.5,311.5" stroke="black" stroke-width="2" fill="none" />
<polyline points="199.5,288.0,195.5,296.0,207.5,287.0,215.5,282.5,222.5,268.5,228.0,275.5" stroke="black" stroke-width="2" fill="none" />
<polyline points="245.0,277.5,237.0,284.5,229.5,291.5,224.5,295.5,216.5,304.5,208.0,310.5,199.5,317.5,191.5,318.5,186.0,321.0,177.5,315.0,169.0,308.0,161.0,308.0,152.5,311.0,142.5,303.0,139.5,295.0,135.0,290.0,129.5,279.5,122.5,276.5,120.5,273.0,117.5,273.5,110.0,265.0,103.5,257.0,98.5,249.5,96.5,241.5,97.5,233.5,100.5,225.0,94.0,222.0,105.0,214.5,114.0,206.5,121.5,198.5,116.5,203.5,108.5,211.0,100.5,221.0,92.5,223.0" stroke="black" stroke-width="2" fill="none" />
<polyline points="111.5,233.5,119.0,238.5,127.0,238.5" stroke="black" stroke-width="2" fill="none" />
<polyline points="122.5,247.0,118.5,239.0,112.5,239.0" stroke="black" stroke-width="2" fill="none" />
<polyline points="124.0,253.0,125.5,261.0,121.5,268.5,134.5,270.5,142.5,271.5,150.5,270.0" stroke="black" stroke-width="2" fill="none" />
<polyline points="146.5,258.0,138.5,258.0" stroke="black" stroke-width="2" fill="none" />
<polyline points="135.0,261.0,143.0,262.0,150.5,258.5" stroke="black" stroke-width="2" fill="none" />
<polyline points="125.5,216.5,133.5,210.0" stroke="black" stroke-width="2" fill="none" />
<polyline points="134.0,196.0,148.0,194.5,147.0,202.5" stroke="black" stroke-width="2" fill="none" />
<polyline points="125.5,198.0,134.0,193.0,139.0,191.5,131.0,195.0,126.5,203.5,124.5,211.5,126.5,220.0,130.0,227.0,133.0,230.0,132.5,237.0,131.5,246.0,132.5,254.0,130.0,262.0,129.5,269.5" stroke="black" stroke-width="2" fill="none" />
<polyline points="140.5,248.0,135.0,247.0,125.0,265.0,121.0,260.0,126.0,251.5,126.0,243.5,125.0,233.0,121.5,224.0,119.5,216.0,118.5,207.5,118.5,203.5" stroke="black" stroke-width="2" fill="none" />
<polyline points="204.5,289.0,205.5,297.0" stroke="black" stroke-width="2" fill="none" />
<polyline points="232.0,320.5,233.0,312.5,240.0,305.0,249.0,297.0,258.0,289.0,259.0,281.0" stroke="black" stroke-width="2" fill="none" />
<polyline points="259.0,277.5,264.0,285.5,257.0,293.5,247.0,301.5,245.0,309.5,240.0,318.0,238.0,323.0,246.0,320.0,247.0,316.5,255.0,320.0,263.0,318.5,271.0,312.0,279.0,305.0" stroke="black" stroke-width="2" fill="none" />
<polyline points="287.5,301.5,285.5,309.5,276.5,318.0,268.5,326.0,258.5,334.0,257.5,335.5,265.5,328.0,273.5,320.5,281.5,313.5,290.0,306.0" stroke="black" stroke-width="2" fill="none" />
<polyline points="300.5,312.5,309.5,320.5,315.0,324.5,313.0,337.5" stroke="black" stroke-width="2" fill="none" />
<polyline points="335.5,325.0,346.5,332.5" stroke="black" stroke-width="2" fill="none" />
<polyline points="357.0,331.5,368.0,339.5,378.5,348.0,387.5,355.5,397.5,363.5,402.0,371.5,402.0,379.5,403.0,387.5,405.0,395.5,405.0,403.5,405.5,411.0,404.5,419.5,400.5,420.0,405.0,424.0,405.0,432.5,405.0,440.0,406.0,448.0,405.0,456.0,406.5,464.0,406.5,472.0,408.5,480.0,408.5,488.0,406.0,496.0,414.0,497.0,418.0,498.5" stroke="black" stroke-width="2" fill="none" />
<polyline points="265.5,291.0,252.5,293.5,244.0,300.5,236.0,308.5,234.0,316.5,226.0,313.5,218.0,307.5,233.5,299.0,243.0,291.0,252.5,282.5,256.5,274.5" stroke="black" stroke-width="2" fill="none" />
</svg>