<svg xmlns="http://www.w3.org/2000/svg" version="1.1"><polyline points="280.0,35.0,274.0,43.0,271.5,51.5,267.5,59.5,264.0,67.5,254.0,71.5,255.0,77.0,257.5,71.5,265.5,64.5,273.5,47.0,282.0,37.0,289.5,35.0,297.5,35.5,305.5,37.0,313.5,40.0,321.5,43.5,329.5,53.0" stroke="black" stroke-width="2" fill="none" />
<polyline points="329.5,60.0,330.5,68.0,330.5,72.0,332.0,79.5" stroke="black" stroke-width="2" fill="none" />
<polyline points="325.0,63.5,326.0,62.0,323.5,70.0,327.5,77.5,327.5,85.5,328.0,95.5,330.0,103.5,336.5,111.5,331.5,114.5,335.5,121.5,341.5,123.0" stroke="black" stroke-width="2" fill="none" />
<polyline points="342.0,126.5,334.0,121.0" stroke="black" stroke-width="2" fill="none" />
<polyline points="337.5,118.5,329.5,113.5,328.5,116.5" stroke="black" stroke-width="2" fill="none" />
<polyline points="338.5,110.5,329.5,101.5" stroke="black" stroke-width="2" fill="none" />
<polyline points="308.5,113.5,315.5,117.5,317.0,126.0,317.0,134.5,330.0,137.5,336.0,141.5,345.0,149.0,348.5,155.0,352.0,162.0,355.0,170.0,360.5,177.5,363.0,185.0" stroke="black" stroke-width="2" fill="none" />
<polyline points="354.5,179.5,346.5,178.5" stroke="black" stroke-width="2" fill="none" />
<polyline points="349.5,194.0,341.5,204.0,333.5,199.0" stroke="black" stroke-width="2" fill="none" />
<polyline points="337.0,208.5,329.0,200.5,321.0,194.5" stroke="black" stroke-width="2" fill="none" />
<polyline points="322.5,195.0,320.5,203.5,320.5,213.5,324.0,219.5,321.0,227.0" stroke="black" stroke-width="2" fill="none" />
<polyline points="317.5,226.5,313.0,221.5,311.0,213.5,304.0,207.0" stroke="black" stroke-width="2" fill="none" />
<polyline points="301.5,199.0,309.5,207.0,318.0,212.5,320.0,217.0" stroke="black" stroke-width="2" fill="none" />
<polyline points="332.0,213.0,340.0,224.5,348.0,220.5,356.0,221.5,359.0,216.5,353.0,224.0,357.0,232.0,359.5,239.0,356.5,247.0,352.5,251.5,346.5,253.5,349.5,261.5,356.0,269.0,343.0,277.0,332.0,282.0,340.0,279.0,348.0,274.0,356.5,271.5" stroke="black" stroke-width="2" fill="none" />
<polyline points="357.0,268.0,349.0,258.5" stroke="black" stroke-width="2" fill="none" />
<polyline points="345.0,263.0,350.5,271.0" stroke="black" stroke-width="2" fill="none" />
<polyline points="348.0,267.0,345.0,261.5,338.5,267.0,340.5,270.0,342.5,262.0,337.5,260.0" stroke="black" stroke-width="2" fill="none" />
<polyline points="339.5,246.0,344.5,249.5,343.0,257.5,336.0,265.0,328.0,275.0,325.5,283.0,327.5,291.0,325.0,292.0,323.0,300.5,318.0,311.5,308.5,318.5,308.0,326.5,306.0,334.5,304.0,342.5,302.0,350.5,301.0,358.0,300.0,366.0,298.0,374.0,295.5,382.0,294.5,389.5,295.5,392.5" stroke="black" stroke-width="2" fill="none" />
<polyline points="294.5,359.0,283.0,355.5,282.0,348.0,269.0,352.0,261.0,354.5,256.0,346.5,245.5,346.0,245.5,338.0,250.5,331.0,260.0,322.5,269.5,314.5,277.5,305.0,285.0,296.5,290.5,288.0,296.0,286.0,293.5,278.0,295.0,270.5,299.5,262.5,304.5,254.5,298.5,250.0,299.5,242.0,308.0,235.5,302.0,227.5,303.0,223.5,306.0,220.0,307.5,212.0,304.0,208.0,299.5,199.5,295.0,191.5,294.0,183.5,299.0,180.5,300.5,172.5,295.5,164.5,301.0,156.5,294.0,165.5" stroke="black" stroke-width="2" fill="none" />
<polyline points="302.0,159.5,299.0,168.0,291.0,180.0,288.0,189.0,288.5,197.0,289.5,205.0,292.5,213.0,292.5,221.5,291.0,225.5,291.0,225.5,292.0,232.5,300.0,226.0,305.5,234.0,313.5,238.0,322.0,236.5,323.0,233.5,330.0,216.5,334.5,226.5,342.5,227.5" stroke="black" stroke-width="2" fill="none" />
<polyline points="336.0,230.5,332.0,222.5" stroke="black" stroke-width="2" fill="none" />
<polyline points="338.5,244.5,347.0,243.5,355.0,240.5,357.0,246.5" stroke="black" stroke-width="2" fill="none" />
<polyline points="353.5,248.5,345.5,247.5" stroke="black" stroke-width="2" fill="none" />
<polyline points="327.0,275.5,323.5,283.5" stroke="black" stroke-width="2" fill="none" />
<polyline points="317.0,290.0,320.5,285.0,319.5,280.0,322.0,271.5,318.0,267.0,309.0,263.5,309.0,267.0" stroke="black" stroke-width="2" fill="none" />
<polyline points="302.5,264.5,306.5,261.0,302.5,268.0,303.5,276.0,306.5,284.0,309.0,293.0,301.0,305.0,312.0,310.5" stroke="black" stroke-width="2" fill="none" />
<polyline points="303.0,304.0,311.0,297.5" stroke="black" stroke-width="2" fill="none" />
<polyline points="307.0,298.5,299.0,302.5" stroke="black" stroke-width="2" fill="none" />
<polyline points="288.5,297.5,280.5,302.5" stroke="black" stroke-width="2" fill="none" />
<polyline points="277.5,300.5,285.5,297.0" stroke="black" stroke-width="2" fill="none" />
<polyline points="269.5,307.0,277.5,308.5,285.5,308.5,293.5,317.0" stroke="black" stroke-width="2" fill="none" />
<polyline points="297.5,322.0,300.0,316.0,292.5,311.0,297.5,310.0,302.5,302.0,317.0,295.5,312.0,291.5,314.5,288.0,307.5,285.5,310.5,277.5,312.5,273.5,316.5,271.0,312.0,265.5,314.5,257.5,311.0,250.5,303.5,251.5,300.5,267.5,292.0,268.5,288.0,253.0,279.0,263.0,272.0,255.0,277.0,246.0,275.5,238.0,275.5,238.5" stroke="black" stroke-width="2" fill="none" />
<polyline points="277.5,252.0,280.5,254.0,277.5,256.0,274.5,263.5,274.0,271.5,274.0,279.5,271.0,287.5,266.5,295.5,265.5,304.5,258.5,313.0,258.5,317.0,269.5,322.5,267.5,330.5,267.5,342.0,269.5,350.5,267.0,356.5,269.0,362.5,280.0,361.0,287.5,359.0,292.5,353.0,291.0,361.0,290.0,369.0,290.5,377.0,288.5,385.5,286.5,393.5,285.5,401.0,284.5,409.0,282.5,417.5,281.5,425.5,280.0,433.0,278.5,441.0,277.5,449.5,275.5,457.5,275.0,465.5,273.0,474.0,271.5,482.0,270.5,489.5,269.0,497.5" stroke="black" stroke-width="2" fill="none" />
<polyline points="278.0,502.5,286.0,506.5" stroke="black" stroke-width="2" fill="none" />
<polyline points="280.0,503.0,292.0,511.0,295.0,519.0,296.5,527.0,295.5,536.0,293.5,544.0,288.0,551.5,289.0,560.0,294.0,567.5" stroke="black" stroke-width="2" fill="none" />
<polyline points="293.5,560.5,286.0,555.0" stroke="black" stroke-width="2" fill="none" />
<polyline points="268.0,555.5,260.0,554.5,252.0,552.5,244.5,550.5,236.5,547.5,228.5,546.0,220.5,544.0,212.0,543.0,204.0,543.0,196.0,543.0,188.5,544.0,179.5,547.5,171.5,553.0,163.0,549.0" stroke="black" stroke-width="2" fill="none" />
<polyline points="164.5,549.5,164.5,557.0" stroke="black" stroke-width="2" fill="none" />
<polyline points="176.5,548.0,189.5,542.0" stroke="black" stroke-width="2" fill="none" />
<polyline points="195.5,547.0,179.5,555.0,168.0,562.0,176.0,557.0,184.0,552.5,192.0,549.5,200.0,546.0,208.5,545.5,216.5,547.0,224.5,550.0,232.0,553.5,240.5,554.0,248.5,556.0,256.0,557.0,264.0,558.5,272.0,558.5,280.0,557.5,282.0,553.5,290.0,548.5" stroke="black" stroke-width="2" fill="none" />
<polyline points="295.5,540.0,296.0,541.0,297.0,532.5" stroke="black" stroke-width="2" fill="none" />
<polyline points="295.0,578.0,293.0,586.0,290.0,594.0,279.0,601.5,280.0,603.5" stroke="black" stroke-width="2" fill="none" />
<polyline points="285.5,598.0,277.5,603.0,269.0,604.5,261.5,604.5,253.5,603.5,245.5,604.5,238.0,606.5" stroke="black" stroke-width="2" fill="none" />
<polyline points="268.0,601.0,259.5,600.0,251.5,599.5,243.5,598.5,236.0,598.5,228.0,597.5,220.0,597.0,212.0,596.0,204.0,597.5,196.0,601.0,188.0,605.0,180.0,608.0,172.5,607.5" stroke="black" stroke-width="2" fill="none" />
<polyline points="176.5,610.0,184.5,611.5,201.5,604.0" stroke="black" stroke-width="2" fill="none" />
<polyline points="199.5,605.5,191.5,608.5,183.5,613.0,175.5,615.5,176.0,613.5,185.0,605.0,204.0,597.0" stroke="black" stroke-width="2" fill="none" />
<polyline points="238.0,647.5,246.0,648.5,254.0,649.5,262.0,650.5,270.0,648.5,278.0,642.5,286.0,631.5,282.0,638.0,273.0,646.0" stroke="black" stroke-width="2" fill="none" />
<polyline points="269.5,495.0,262.0,498.0,254.0,499.0,258.5,488.5,254.5,491.5" stroke="black" stroke-width="2" fill="none" />
<polyline points="243.5,490.5,235.5,488.5,228.0,480.5" stroke="black" stroke-width="2" fill="none" />
<polyline points="244.0,462.0,235.5,469.0,241.0,464.0,247.0,456.0,249.5,448.0,248.0,440.0,244.5,432.0,243.5,424.0,233.0,416.0,233.0,415.0" stroke="black" stroke-width="2" fill="none" />
<polyline points="236.0,417.5,244.0,421.5" stroke="black" stroke-width="2" fill="none" />
<polyline points="239.5,434.0,231.0,433.0,223.0,432.0,215.0,434.0,207.5,439.0" stroke="black" stroke-width="2" fill="none" />
<polyline points="215.5,432.0,208.5,440.5,205.0,449.0,208.5,457.0" stroke="black" stroke-width="2" fill="none" />
<polyline points="208.0,453.0,216.0,459.0,224.5,462.0,232.0,463.0,240.0,457.0" stroke="black" stroke-width="2" fill="none" />
<polyline points="238.5,459.0,243.5,451.0,244.5,443.5,239.0,435.5" stroke="black" stroke-width="2" fill="none" />
<polyline points="276.5,470.0,279.0,462.0,279.5,454.0,281.5,445.5,282.5,437.5,284.5,429.5,285.5,421.5,286.5,413.5,288.5,405.5,289.5,397.5,290.0,390.0,292.0,382.0,294.0,374.5,296.5,366.5,296.5,358.5,293.5,349.0,291.5,346.5,286.5,339.0,287.5,331.0,281.5,325.0,277.5,317.0,268.0,316.0,260.5,320.0,252.5,312.5,244.5,312.5,237.0,314.5,229.0,315.5" stroke="black" stroke-width="2" fill="none" />
<polyline points="227.5,311.5,235.5,308.5,243.5,307.5,252.0,303.0,245.0,309.0,251.0,306.0,262.0,298.5" stroke="black" stroke-width="2" fill="none" />
<polyline points="256.5,306.0,264.5,305.0,272.5,301.0,281.0,290.0" stroke="black" stroke-width="2" fill="none" />
<polyline points="308.0,279.0,310.5,271.0,307.5,274.0" stroke="black" stroke-width="2" fill="none" />
<polyline points="316.0,283.5,307.5,283.5,305.5,285.5,302.0,277.5,300.0,270.0,309.0,265.0,310.0,257.0" stroke="black" stroke-width="2" fill="none" />
<polyline points="319.0,244.0,311.0,246.0,309.0,238.5,301.0,242.5,293.5,243.5" stroke="black" stroke-width="2" fill="none" />
<polyline points="295.0,244.5,294.5,252.5,294.5,258.5,290.0,261.5,295.0,264.0,292.5,272.0,297.5,276.5,299.0,283.0,294.0,292.0,285.5,300.0,286.5,314.0,295.5,316.0,297.5,311.0,305.5,308.5,313.0,303.5,316.0,308.0,323.5,299.5" stroke="black" stroke-width="2" fill="none" />
<polyline points="315.5,312.5,308.0,315.5,300.0,313.5,287.0,317.0,280.0,316.0,272.0,319.0,264.0,323.0,255.0,327.0,247.0,329.5,239.5,331.5,231.5,335.0,220.5,338.0,208.5,339.0,197.5,342.5,189.5,338.0" stroke="black" stroke-width="2" fill="none" />
<polyline points="185.0,329.5,193.5,328.0,201.5,326.0,210.0,324.0,218.0,322.5,220.0,315.5,228.0,313.5,232.0,322.5,240.0,320.5" stroke="black" stroke-width="2" fill="none" />
<polyline points="243.5,325.0,235.0,326.0" stroke="black" stroke-width="2" fill="none" />
<polyline points="224.5,324.5,217.0,327.5,206.5,322.0,198.5,324.0,190.5,323.5" stroke="black" stroke-width="2" fill="none" />
<polyline points="201.0,332.5,209.0,329.5,217.0,335.0,220.0,347.0,225.0,354.5,221.5,359.5,229.5,363.5,237.0,363.5,245.0,363.5,252.5,357.0" stroke="black" stroke-width="2" fill="none" />
<polyline points="265.5,356.5,269.5,341.5,261.5,338.5,254.0,336.5" stroke="black" stroke-width="2" fill="none" />
<polyline points="250.5,342.5,258.5,344.5" stroke="black" stroke-width="2" fill="none" />
<polyline points="254.5,345.5,249.5,340.5,245.0,349.0,238.0,342.5,238.5,352.5,230.5,354.5,222.5,362.0,214.0,361.0,202.0,355.5,194.5,348.5,188.0,346.5,183.0,342.5,181.0,351.5,181.0,345.0,180.0,337.0,180.5,329.5,168.5,320.5,160.0,312.0,151.5,304.5,143.5,288.5" stroke="black" stroke-width="2" fill="none" />
<polyline points="154.0,298.5,162.0,293.5,170.0,295.5,178.0,292.0,185.5,293.0,193.5,295.0,201.5,298.0" stroke="black" stroke-width="2" fill="none" />
<polyline points="219.5,291.5,227.5,293.0" stroke="black" stroke-width="2" fill="none" />
<polyline points="217.5,271.5,209.5,264.5" stroke="black" stroke-width="2" fill="none" />
<polyline points="213.0,265.5,216.5,273.5,220.5,275.0,224.0,285.5,220.0,295.5" stroke="black" stroke-width="2" fill="none" />
<polyline points="219.5,301.5,211.0,301.5,203.0,301.5,195.0,300.5,186.0,300.0,178.0,298.0,170.0,299.0,162.0,296.0" stroke="black" stroke-width="2" fill="none" />
<polyline points="175.5,286.0,179.5,289.0" stroke="black" stroke-width="2" fill="none" />
<polyline points="183.0,309.0,175.5,310.0,167.5,312.0" stroke="black" stroke-width="2" fill="none" />
<polyline points="177.0,330.5,186.5,335.5,184.5,336.0,182.5,348.0,184.0,355.5,185.0,362.5,187.0,370.5,188.0,378.5,191.0,386.5,191.0,394.5,193.0,403.0,189.0,410.0,191.5,406.0" stroke="black" stroke-width="2" fill="none" />
<polyline points="180.5,418.5,172.5,419.0,165.0,417.5,157.0,418.5,149.0,420.0,141.0,423.0,133.0,428.0,125.0,444.0" stroke="black" stroke-width="2" fill="none" />
<polyline points="125.5,455.0,133.5,466.5,141.5,476.0,149.5,483.0" stroke="black" stroke-width="2" fill="none" />
<polyline points="152.5,472.0,160.5,473.0,168.0,473.0,175.5,471.0,183.0,471.5,190.5,471.0,199.0,473.0,207.5,473.5,208.5,476.5,203.5,477.0,210.5,474.5,218.5,471.5,222.5,473.0,226.5,480.5" stroke="black" stroke-width="2" fill="none" />
<polyline points="225.5,486.5,218.0,485.5,210.0,484.5,202.0,484.0,194.0,485.5,186.0,486.5,178.0,491.5,170.0,497.5,162.0,505.0,164.5,502.0,174.0,494.0,189.5,486.0" stroke="black" stroke-width="2" fill="none" />
<polyline points="144.5,516.5,136.5,535.0" stroke="black" stroke-width="2" fill="none" />
<polyline points="137.5,571.5,139.5,563.0,138.5,555.0,137.5,547.0,137.5,539.5,138.5,531.0,141.0,523.0,146.0,514.5,150.0,506.5,152.0,498.0,152.0,490.0,148.5,482.5,140.5,474.0,133.5,466.0,127.5,458.0,124.0,450.0,125.0,442.0,127.0,434.0,133.0,426.0,150.0,418.0" stroke="black" stroke-width="2" fill="none" />
<polyline points="180.0,358.5,188.0,361.5,196.0,361.5,204.0,362.5,212.0,360.5,220.5,357.5" stroke="black" stroke-width="2" fill="none" />
<polyline points="225.5,350.0,229.5,342.0" stroke="black" stroke-width="2" fill="none" />
<polyline points="216.5,349.5,211.5,337.5,208.0,330.0" stroke="black" stroke-width="2" fill="none" />
<polyline points="205.0,330.0,197.0,338.0,200.0,341.0,205.0,351.0,206.5,354.0,214.5,354.5,223.5,354.0,232.0,348.0" stroke="black" stroke-width="2" fill="none" />
<polyline points="204.5,346.0,212.5,344.0,222.5,340.0,230.5,340.0,239.5,337.0,247.5,337.0,253.5,332.0,261.5,329.0,272.0,323.0,278.0,327.0,288.0,335.0" stroke="black" stroke-width="2" fill="none" />
<polyline points="284.5,326.5,288.5,321.0,283.5,333.5,272.5,339.5,274.0,347.5,284.0,351.0,284.0,357.0" stroke="black" stroke-width="2" fill="none" />
<polyline points="280.5,343.0,272.5,339.0" stroke="black" stroke-width="2" fill="none" />
<polyline points="271.5,338.5,279.5,333.5,290.5,336.5" stroke="black" stroke-width="2" fill="none" />
<polyline points="293.0,345.0,291.0,344.0,293.0,335.5,294.0,327.5" stroke="black" stroke-width="2" fill="none" />
<polyline points="270.5,333.0,279.5,334.0,281.5,342.5,277.5,354.5" stroke="black" stroke-width="2" fill="none" />
<polyline points="264.0,338.5,259.5,330.5" stroke="black" stroke-width="2" fill="none" />
<polyline points="265.0,327.0,261.0,327.0,252.5,335.0,257.5,340.0,254.5,348.5,256.0,356.5,250.0,364.0,257.5,362.0" stroke="black" stroke-width="2" fill="none" />
<polyline points="256.0,319.0,248.5,318.0,246.5,330.0,246.5,322.5,247.5,318.5" stroke="black" stroke-width="2" fill="none" />
<polyline points="286.5,275.0,289.0,268.0,286.0,260.0,290.5,252.5,293.0,244.5,294.0,245.5" stroke="black" stroke-width="2" fill="none" />
<polyline points="283.5,259.0,283.0,266.5,280.0,274.5,282.0,282.5,278.0,286.5,281.0,290.5,275.0,298.0,271.0,292.0,278.5,282.0,290.5,287.0" stroke="black" stroke-width="2" fill="none" />
<polyline points="270.5,268.0,271.5,262.0,269.5,254.5,268.5,251.5" stroke="black" stroke-width="2" fill="none" />
<polyline points="241.0,249.5,236.5,257.5" stroke="black" stroke-width="2" fill="none" />
<polyline points="218.5,231.0,210.5,230.0,202.5,227.0" stroke="black" stroke-width="2" fill="none" />
<polyline points="202.5,222.5,210.0,221.5,210.0,230.5,212.5,236.5" stroke="black" stroke-width="2" fill="none" />
<polyline points="199.5,238.0,192.0,241.0" stroke="black" stroke-width="2" fill="none" />
<polyline points="186.0,240.5,178.0,243.5,166.0,255.0,160.5,266.0,156.5,273.5,162.5,264.5,164.5,253.5,164.5,253.0,174.5,246.0,183.0,240.0,193.0,236.5,201.0,235.5,209.0,233.0" stroke="black" stroke-width="2" fill="none" />
<polyline points="189.0,220.5,181.0,222.0,173.0,224.5" stroke="black" stroke-width="2" fill="none" />
<polyline points="173.5,227.0,167.5,235.0,161.5,243.5,158.0,247.5,164.0,237.5,172.0,229.5,180.0,228.5,184.0,226.0" stroke="black" stroke-width="2" fill="none" />
<polyline points="174.0,231.5,171.0,238.5,169.5,241.5" stroke="black" stroke-width="2" fill="none" />
<polyline points="181.5,243.0,174.5,251.0,169.0,259.5,165.0,267.5,158.5,274.5,166.5,263.0,174.5,253.5,182.5,245.5" stroke="black" stroke-width="2" fill="none" />
<polyline points="188.0,262.0,181.0,270.0,188.0,262.5" stroke="black" stroke-width="2" fill="none" />
<polyline points="160.0,253.5,147.0,258.5" stroke="black" stroke-width="2" fill="none" />
<polyline points="157.0,238.0,158.0,246.0,150.0,254.0,147.0,251.0,154.5,234.5,166.0,223.0,176.0,210.5" stroke="black" stroke-width="2" fill="none" />
<polyline points="172.5,217.5,180.5,213.0,180.0,213.0,166.0,221.5,163.0,216.5,171.0,205.5,179.0,197.5,187.0,196.0" stroke="black" stroke-width="2" fill="none" />
<polyline points="198.5,182.0,206.5,178.5,214.0,172.0,220.0,168.0,211.0,175.0,212.0,183.0,218.0,186.5,212.0,190.5,209.0,192.0,217.0,200.0" stroke="black" stroke-width="2" fill="none" />
<polyline points="219.0,197.5,229.0,191.0,232.0,189.5,233.5,181.5,228.0,174.0,230.0,166.0,228.5,158.0,228.5,158.0" stroke="black" stroke-width="2" fill="none" />
<polyline points="238.0,166.0,246.0,164.0,253.5,154.0,261.5,146.5,270.0,146.0,281.5,153.0,289.5,144.0,293.0,132.5" stroke="black" stroke-width="2" fill="none" />
<polyline points="290.0,130.5,298.0,127.5,306.0,126.5,317.0,134.0" stroke="black" stroke-width="2" fill="none" />
<polyline points="325.5,139.5,327.5,131.5" stroke="black" stroke-width="2" fill="none" />
<polyline points="331.0,145.5,344.0,154.5,346.0,162.5,349.0,171.0,342.0,181.0,352.0,188.5,349.0,196.5,339.0,206.5,334.0,215.5,337.0,223.0,345.0,227.0,340.0,235.0,332.0,231.0,344.0,231.0,357.0,236.0" stroke="black" stroke-width="2" fill="none" />
<polyline points="347.5,184.5,337.5,180.5,333.0,184.5,337.5,187.5,335.5,179.5,327.0,184.5" stroke="black" stroke-width="2" fill="none" />
<polyline points="329.5,174.5,337.5,176.5" stroke="black" stroke-width="2" fill="none" />
<polyline points="334.0,167.5,339.0,176.0,333.0,181.0,331.0,182.5,336.0,190.5,335.0,199.0" stroke="black" stroke-width="2" fill="none" />
<polyline points="357.0,174.0,348.5,176.0,340.5,179.0,332.0,164.0,327.0,165.5,318.0,170.5,314.5,165.5,319.5,165.0,328.5,156.5,323.5,155.5,315.5,158.0" stroke="black" stroke-width="2" fill="none" />
<polyline points="326.0,159.5,318.0,167.0,308.5,161.0,295.0,159.0,289.0,165.5,280.5,177.5,266.5,180.0,262.0,176.0,254.5,179.0" stroke="black" stroke-width="2" fill="none" />
<polyline points="266.0,166.0,270.0,161.0,258.5,165.0,254.5,179.0,247.5,189.0,249.0,197.0,258.0,207.0,265.5,210.0,270.5,218.0" stroke="black" stroke-width="2" fill="none" />
<polyline points="294.0,212.5,302.0,215.5,313.0,220.5,320.0,217.5" stroke="black" stroke-width="2" fill="none" />
<polyline points="314.5,228.0,306.0,223.0,298.0,214.0,300.5,213.5,297.5,208.5,294.5,200.5,296.0,193.5" stroke="black" stroke-width="2" fill="none" />
<polyline points="293.5,185.5,303.0,178.5,310.0,187.0,307.0,196.0,310.5,197.5,311.5,198.5,311.0,202.5,322.0,209.5,325.0,201.0,333.5,189.0" stroke="black" stroke-width="2" fill="none" />
<polyline points="314.0,174.0,306.0,176.0" stroke="black" stroke-width="2" fill="none" />
<polyline points="312.5,193.5,308.0,183.5,300.0,182.5,295.5,178.5,287.5,187.0,281.0,187.0,286.0,185.0,287.0,177.0,291.0,169.0,287.0,174.0" stroke="black" stroke-width="2" fill="none" />
<polyline points="282.0,178.5,281.0,186.5,274.0,192.5,265.5,193.5,271.0,195.5" stroke="black" stroke-width="2" fill="none" />
<polyline points="271.5,212.5,272.5,204.5,277.0,196.5,275.5,188.5,278.5,180.0,283.5,171.5,288.5,163.0,285.5,161.0,280.0,154.0,286.5,148.0,293.5,140.0,294.0,131.5,286.0,130.5" stroke="black" stroke-width="2" fill="none" />
<polyline points="286.0,137.0,281.5,145.0,268.0,148.5,276.0,147.0,283.5,141.5" stroke="black" stroke-width="2" fill="none" />
<polyline points="266.5,144.5,273.5,153.0,274.5,159.0,275.5,167.5,272.0,170.5,269.5,178.5,267.5,182.5,267.5,191.0,261.5,191.0,267.5,199.0,265.5,209.0" stroke="black" stroke-width="2" fill="none" />
<polyline points="260.0,210.5,257.0,202.0,249.0,197.0" stroke="black" stroke-width="2" fill="none" />
<polyline points="237.0,191.5,240.0,183.0,238.0,185.0" stroke="black" stroke-width="2" fill="none" />
<polyline points="225.0,191.5,222.0,183.5,226.0,181.5,218.5,168.5" stroke="black" stroke-width="2" fill="none" />
<polyline points="207.5,182.5,216.0,185.5,222.0,187.0" stroke="black" stroke-width="2" fill="none" />
<polyline points="205.5,193.0,205.0,182.5,199.0,174.5" stroke="black" stroke-width="2" fill="none" />
<polyline points="183.0,174.5,183.5,182.5" stroke="black" stroke-width="2" fill="none" />
<polyline points="189.5,191.0,196.5,182.5,198.5,174.5,187.5,160.5" stroke="black" stroke-width="2" fill="none" />
<polyline points="177.0,156.0,177.0,164.0,186.0,169.5,186.0,177.5,190.0,191.5,198.0,194.5" stroke="black" stroke-width="2" fill="none" />
<polyline points="207.0,198.0,197.5,195.0,202.5,189.5,193.0,180.5,192.5,173.0,188.5,164.5,184.5,157.5,184.5,149.0,185.0,141.0,189.0,132.5,185.5,138.5" stroke="black" stroke-width="2" fill="none" />
<polyline points="195.5,139.0,203.5,130.5,208.5,135.0,212.0,134.0,222.0,127.5,228.0,136.0,236.0,145.0,237.5,148.5" stroke="black" stroke-width="2" fill="none" />
<polyline points="232.5,133.5,225.0,130.5" stroke="black" stroke-width="2" fill="none" />
<polyline points="233.5,120.0,245.0,126.0,253.0,121.0" stroke="black" stroke-width="2" fill="none" />
<polyline points="254.0,126.0,255.5,125.5,252.0,134.0,249.0,137.0,256.0,135.0,264.5,135.0" stroke="black" stroke-width="2" fill="none" />
<polyline points="266.5,131.0,258.5,126.5" stroke="black" stroke-width="2" fill="none" />
<polyline points="245.5,125.0,251.0,118.0,243.0,119.0,235.0,117.0,227.0,115.0,219.0,116.0" stroke="black" stroke-width="2" fill="none" />
<polyline points="219.5,114.5,222.0,123.0,212.0,125.5,219.5,127.5" stroke="black" stroke-width="2" fill="none" />
<polyline points="212.0,126.5,220.0,122.5,229.0,120.0,237.0,124.0" stroke="black" stroke-width="2" fill="none" />
<polyline points="209.0,139.0,210.0,141.0,205.0,137.5,202.0,134.0,203.0,126.0,201.0,118.0,206.0,114.0,197.5,121.5,189.5,126.5" stroke="black" stroke-width="2" fill="none" />
<polyline points="178.0,119.5,186.0,103.0" stroke="black" stroke-width="2" fill="none" />
<polyline points="200.0,105.5,204.5,100.5,206.5,93.5,198.5,101.5,192.0,107.5,190.5,104.5,199.0,104.5,204.0,96.5,209.5,88.5,218.5,81.5,216.5,73.5,212.5,72.0,204.0,75.0,195.5,79.5,187.0,82.5" stroke="black" stroke-width="2" fill="none" />
<polyline points="208.0,71.0,189.5,79.0,187.5,87.5,189.0,96.0,187.0,104.0,183.0,112.0,179.0,120.5,176.5,128.5,173.5,136.5,171.5,144.5,170.5,152.5,170.5,160.5,172.5,168.0,173.5,176.0,175.0,184.0,180.5,188.0,193.5,184.5,198.0,176.5,201.0,188.0,208.5,189.0,208.5,194.5,216.5,201.5,225.0,198.0,234.5,197.5" stroke="black" stroke-width="2" fill="none" />
<polyline points="256.0,156.0,255.0,164.0,247.0,170.0,241.5,167.0,244.5,180.0,253.5,165.0,259.5,164.0,268.0,159.0,279.0,157.0,287.0,159.0,295.5,155.0,303.0,157.0,311.5,154.0,316.0,157.0,324.0,151.5,333.0,149.5" stroke="black" stroke-width="2" fill="none" />
<polyline points="329.5,159.5,331.5,167.5,330.0,176.0,326.0,184.0,329.5,192.5,326.0,197.5,325.5,205.5,331.5,209.5,330.0,218.0,328.0,226.0,324.0,234.0,327.0,239.0,335.0,237.0" stroke="black" stroke-width="2" fill="none" />
<polyline points="353.5,156.5,344.5,147.5,335.5,139.5,326.5,127.0,317.0,124.5,309.5,115.5" stroke="black" stroke-width="2" fill="none" />
<polyline points="304.0,112.5,309.5,114.5,304.5,115.0,307.5,122.0" stroke="black" stroke-width="2" fill="none" />
<polyline points="304.0,142.5,301.0,146.5" stroke="black" stroke-width="2" fill="none" />
<polyline points="272.0,161.0,271.0,167.0" stroke="black" stroke-width="2" fill="none" />
<polyline points="266.5,145.0,255.5,153.5,249.0,161.5,239.0,165.5,241.5,165.5,250.5,169.5,246.0,178.0,236.5,180.5,242.0,182.5,239.0,191.0,237.5,199.0" stroke="black" stroke-width="2" fill="none" />
<polyline points="174.5,163.5,173.5,155.5,173.5,155.5" stroke="black" stroke-width="2" fill="none" />
<polyline points="173.0,133.0,182.0,133.5,181.0,141.5,180.0,150.0,181.5,158.0,181.5,166.5,179.5,174.0,178.5,182.0,179.5,190.0,177.5,198.5,170.5,206.5,165.5,214.5,159.5,222.5,158.0,230.0,154.0,238.0,151.0,246.0,146.0,253.5,145.5,262.0,143.5,270.0,145.0,278.0,146.0,286.0,148.5,293.5,153.0,301.5,159.5,309.5,166.5,317.5,168.0,325.5,169.0,334.0,171.5,342.5,172.0,350.5,174.0,359.0,175.5,367.5,178.0,375.5,179.5,383.5,181.5,391.5,183.5,399.5,185.0,407.5,187.0,415.5,192.0,418.0,200.0,417.5,208.0,419.0,216.5,420.5,224.5,422.5,232.0,426.0" stroke="black" stroke-width="2" fill="none" />
<polyline points="217.0,414.0,213.0,412.0,210.5,404.0,208.5,396.0,210.5,388.0" stroke="black" stroke-width="2" fill="none" />
<polyline points="198.5,375.0,196.5,367.0" stroke="black" stroke-width="2" fill="none" />
<polyline points="196.0,356.5,191.0,348.5" stroke="black" stroke-width="2" fill="none" />
<polyline points="357.0,169.0,354.0,161.5,351.5,153.5" stroke="black" stroke-width="2" fill="none" />
<polyline points="345.5,125.0,345.5,117.0,342.0,113.5,337.5,105.5,332.0,98.0,332.0,90.0,332.5,85.0,334.5,77.5,334.0,69.0,333.5,61.5,328.5,53.0,322.5,45.0,316.5,48.0,308.5,41.5" stroke="black" stroke-width="2" fill="none" />
<polyline points="295.0,51.5,300.5,61.0,298.5,69.0,293.5,77.0,296.0,87.5,309.5,95.5,307.0,93.0,309.5,91.5" stroke="black" stroke-width="2" fill="none" />
<polyline points="312.0,85.0,303.5,79.5,295.5,76.5" stroke="black" stroke-width="2" fill="none" />
<polyline points="296.0,83.0,303.5,80.5,314.5,88.0,314.0,96.0" stroke="black" stroke-width="2" fill="none" />
<polyline points="326.5,89.5,321.5,97.5,319.0,88.5,319.0,80.5,314.5,72.0,313.5,64.0,308.5,61.0,300.5,58.5" stroke="black" stroke-width="2" fill="none" />
<polyline points="305.0,66.0,296.5,67.0" stroke="black" stroke-width="2" fill="none" />
<polyline points="280.0,75.5,288.0,83.5,298.0,87.5,301.5,89.5,309.0,88.5" stroke="black" stroke-width="2" fill="none" />
<polyline points="326.5,74.5,311.5,70.5,303.5,70.5,296.0,75.0,290.0,83.0,282.0,79.0,275.5,76.5,269.0,72.5,263.5,75.5,255.0,77.0" stroke="black" stroke-width="2" fill="none" />
<polyline points="255.5,67.5,248.0,73.5,240.0,75.0,232.0,76.0,224.0,79.5,216.0,79.5" stroke="black" stroke-width="2" fill="none" />
<polyline points="407.0,101.0,409.0,91.0,412.0,79.5" stroke="black" stroke-width="2" fill="none" />
<polyline points="418.0,74.0,414.0,82.0,410.0,90.0,410.0,95.0,408.5,103.0,406.5,111.5,403.0,119.5,403.0,127.5,403.5,135.5,403.0,144.0" stroke="black" stroke-width="2" fill="none" />
<polyline points="405.5,126.5,406.0,118.5" stroke="black" stroke-width="2" fill="none" />
<polyline points="447.0,12.5,453.0,4.0,448.0,12.0,446.0,20.0,448.0,18.0,456.0,12.5" stroke="black" stroke-width="2" fill="none" />
<polyline points="512.0,741.5,510.5,739.5,510.5,747.0,510.5,754.5,510.5,762.5,511.0,770.5,510.5,778.0,511.5,786.5" stroke="black" stroke-width="2" fill="none" />
<polyline points="49.5,716.5,41.0,713.0,33.0,710.5,25.5,707.5,17.5,702.0,9.5,696.0,1.5,690.0" stroke="black" stroke-width="2" fill="none" />
<polyline points="2.5,688.5,9.5,697.0,21.0,705.5,37.0,713.5" stroke="black" stroke-width="2" fill="none" />
<polyline points="45.5,735.0,44.5,743.0,41.5,751.0" stroke="black" stroke-width="2" fill="none" />
<polyline points="46.0,744.5,47.0,752.5,49.0,761.0,47.0,769.0" stroke="black" stroke-width="2" fill="none" />
<polyline points="35.5,791.0,38.5,780.0,37.5,785.5,36.0,794.5,33.0,802.5,27.0,811.0,26.0,817.0,20.5,825.5,15.5,834.5,12.5,848.5,10.5,856.5,13.0,853.5,14.0,847.5" stroke="black" stroke-width="2" fill="none" />
<polyline points="18.5,827.5,26.5,827.5" stroke="black" stroke-width="2" fill="none" />
<polyline points="30.0,810.5,29.5,818.5,24.5,814.5,32.5,803.5" stroke="black" stroke-width="2" fill="none" />
</svg>