<svg xmlns="http://www.w3.org/2000/svg" version="1.1"><polyline points="37.0,3.0,38.0,11.0,39.0,19.0,40.0,27.0,38.5,34.5,42.5,40.5,43.5,48.5,42.5,56.0,40.5,63.5,45.5,67.5,47.0,75.5,38.5,84.0,42.0,86.0,49.0,92.5,45.0,100.5,34.0,103.5,33.0,114.0,32.5,121.0,39.5,129.0,35.5,135.0,42.5,143.0,46.5,144.0,45.5,148.0,44.5,157.0,38.5,164.5,43.0,169.5,36.5,174.5,43.0,178.5,38.0,186.5,34.0,194.5,40.0,195.5,46.0,201.5,50.0,204.5,51.0,211.0,54.0,211.0,52.5,222.0,63.0,221.0,60.0,231.5,49.0,239.5,37.0,238.0,38.0,243.0,23.0,251.0,17.0,257.0,14.0,256.5,15.0,264.5,15.0,265.5,17.0,273.5,10.5,281.5,7.5,286.5,4.5,294.5,10.5,307.5,6.0,308.5,7.0,319.0,9.0,317.0,17.0,313.0,19.0,315.5,27.0,310.0,28.5,304.0,29.5,296.0,30.0,299.0,37.0,301.0,38.0,297.0,46.0,284.0,54.0,276.0,65.0,274.0,70.0,277.0,78.0,269.0,88.5,262.0,89.5,266.5,97.5,268.5,106.0,263.5,115.0,253.0,123.0,254.0,125.5,242.0,130.5,227.5,135.0,228.5,140.0,234.5,148.0,239.5,151.0,232.5,159.0,233.5,163.0,237.5" stroke="black" stroke-width="2" fill="none" />
<polyline points="148.0,228.0,149.5,236.0,141.5,238.0,138.5,245.0,130.5,247.0,138.5,241.5,142.5,242.5" stroke="black" stroke-width="2" fill="none" />
<polyline points="138.5,245.0,130.5,249.0" stroke="black" stroke-width="2" fill="none" />
<polyline points="128.5,238.0,122.5,242.5,114.5,243.5,118.5,243.5,125.0,232.0,123.0,229.0,122.0,223.0,114.0,225.5" stroke="black" stroke-width="2" fill="none" />
<polyline points="111.0,226.5,119.5,232.0" stroke="black" stroke-width="2" fill="none" />
<polyline points="104.5,242.5,102.5,249.5" stroke="black" stroke-width="2" fill="none" />
<polyline points="94.0,247.0,108.5,248.5,104.5,256.5,111.5,253.5,121.5,244.5" stroke="black" stroke-width="2" fill="none" />
<polyline points="111.5,261.0,98.0,266.0,89.0,274.5,81.0,279.5,77.5,279.5,90.0,274.5,92.0,268.5,95.5,259.5,99.5,255.0,98.0,249.5,105.0,248.5,111.0,239.5,108.0,232.5,111.0,224.5,107.0,221.0,110.5,220.5,117.5,212.5,117.5,204.5,117.5,201.0,122.5,192.5,120.0,189.5,119.5,181.5,119.0,173.5,124.0,171.0,130.0,168.0,138.5,163.5,137.5,158.5,136.5,150.0,140.5,142.0,137.0,139.0,129.0,139.0" stroke="black" stroke-width="2" fill="none" />
<polyline points="135.0,160.5,143.0,150.5,150.5,149.5,158.0,148.5,166.0,145.5,170.0,154.5,166.0,151.5,161.5,157.5,151.0,161.5,147.0,162.5,142.0,167.0,134.0,171.5,145.0,170.5,149.5,174.0,150.5,182.0,155.5,188.5,162.5,198.5,170.0,201.5,177.5,202.5,185.5,197.0,197.5,200.5" stroke="black" stroke-width="2" fill="none" />
<polyline points="207.5,191.5,215.5,190.5,219.5,194.5,218.0,196.5" stroke="black" stroke-width="2" fill="none" />
<polyline points="204.5,204.5,200.5,209.0,192.5,212.0,200.0,205.0,207.0,196.5,207.0,189.0,214.0,185.0,215.0,177.5,211.5,168.5,215.0,160.5,217.0,152.5,217.0,151.5,210.0,152.5,212.0,149.5,204.0,148.0,199.0,148.0,193.0,145.0,187.0,144.5,187.5,136.5,188.5,135.0,187.5,136.0" stroke="black" stroke-width="2" fill="none" />
<polyline points="186.5,129.0,195.0,125.0,203.0,126.0,200.0,134.5,193.5,138.0,196.5,146.0,202.5,157.0,206.0,159.5,206.5,167.5,206.0,175.5,208.0,176.5,208.0,184.5,205.0,192.5,209.0,196.0,206.0,203.5,208.5,205.5,208.5,197.5,213.5,199.5,215.5,201.5,223.5,199.5,223.0,203.0,231.0,203.0,238.5,201.0,246.5,199.0,254.5,195.0,259.5,197.0,267.5,193.5" stroke="black" stroke-width="2" fill="none" />
<polyline points="259.5,199.0,267.5,197.5,275.5,198.0,283.5,198.0,291.5,198.0,295.5,197.5,303.5,197.5,305.5,194.5,313.5,196.0" stroke="black" stroke-width="2" fill="none" />
<polyline points="319.0,192.0,323.0,180.5,315.0,179.5,307.0,175.5" stroke="black" stroke-width="2" fill="none" />
<polyline points="313.5,173.5,308.0,170.5,300.0,169.5" stroke="black" stroke-width="2" fill="none" />
<polyline points="314.0,158.0,322.0,162.5" stroke="black" stroke-width="2" fill="none" />
<polyline points="306.5,152.5,314.5,156.5,322.5,155.5,322.5,158.5,330.5,161.5,327.5,169.5,336.5,168.5,344.5,158.0" stroke="black" stroke-width="2" fill="none" />
<polyline points="349.5,148.0,357.5,147.0,355.5,155.5" stroke="black" stroke-width="2" fill="none" />
<polyline points="370.0,163.5,365.0,150.5,368.5,137.0,367.5,136.0,374.0,135.0,380.0,134.0,372.0,136.5" stroke="black" stroke-width="2" fill="none" />
<polyline points="390.0,146.0,388.0,153.0,383.0,153.0,378.5,157.0,384.5,156.0,383.5,147.0,388.5,138.5,389.0,130.5,389.5,117.0,391.5,113.0,392.5,101.0,390.0,101.5,383.5,96.5,381.5,95.0,376.0,86.5" stroke="black" stroke-width="2" fill="none" />
<polyline points="382.0,90.5,391.0,96.0,391.5,99.5" stroke="black" stroke-width="2" fill="none" />
<polyline points="395.5,98.5,389.5,93.5,383.5,89.0,375.5,92.0,367.5,97.5,370.0,94.5,366.0,94.5,362.0,92.0" stroke="black" stroke-width="2" fill="none" />
<polyline points="359.5,76.0,359.5,70.0,355.5,78.5,347.5,86.0,346.0,83.5,334.5,89.5,336.5,84.0,328.5,87.5" stroke="black" stroke-width="2" fill="none" />
<polyline points="321.5,83.5,329.5,73.5,333.5,74.5,338.0,66.5,343.5,59.5,337.5,54.0,334.5,46.0,322.0,44.0" stroke="black" stroke-width="2" fill="none" />
<polyline points="314.5,46.5,313.5,34.0,309.5,24.0,306.0,16.0,298.0,13.0" stroke="black" stroke-width="2" fill="none" />
<polyline points="287.0,9.5,292.0,16.0,287.0,17.0,295.5,11.0,300.5,3.5,306.0,4.5" stroke="black" stroke-width="2" fill="none" />
<polyline points="304.0,3.0,298.5,4.0,293.5,7.0,296.0,15.5,295.0,23.5,296.0,33.5,299.5,45.5,300.5,53.5,296.0,56.5,298.0,57.5,292.0,69.5,299.0,73.5,295.5,78.5,299.0,78.5,309.0,78.5,314.0,91.5,324.5,91.0,329.0,98.0,337.0,98.0,337.0,100.5,345.5,94.5,345.0,96.5,349.5,101.5,358.0,104.5,366.0,101.5,381.5,95.5,387.5,92.0,392.5,82.0,397.5,87.0,402.5,85.0,412.5,74.0,410.5,72.0,411.5,80.0,415.5,82.0,420.5,92.0,422.5,93.0,417.0,99.0,415.0,104.0,428.5,102.0,438.0,106.5,446.0,107.5,456.0,113.5,462.5,118.5" stroke="black" stroke-width="2" fill="none" />
<polyline points="459.0,126.5,453.0,134.5" stroke="black" stroke-width="2" fill="none" />
<polyline points="454.5,145.5,455.5,151.0,458.5,153.0,456.5,161.0,455.0,169.0" stroke="black" stroke-width="2" fill="none" />
<polyline points="468.0,166.5,468.0,163.5,464.0,171.0,469.0,183.0,483.5,185.0" stroke="black" stroke-width="2" fill="none" />
<polyline points="495.0,189.5,503.5,191.5" stroke="black" stroke-width="2" fill="none" />
<polyline points="507.0,203.5,499.5,201.5,491.5,198.5" stroke="black" stroke-width="2" fill="none" />
<polyline points="496.0,204.5,495.0,216.5,494.0,224.5,497.5,224.5,499.5,232.5,500.5,242.5,499.5,250.5,497.5,262.0" stroke="black" stroke-width="2" fill="none" />
<polyline points="511.0,256.5,507.0,256.0,502.5,253.5,488.5,249.0,495.5,242.0,502.0,232.0,503.0,223.5,500.0,218.5,496.0,211.0,488.5,200.5,485.0,186.0,481.0,183.0,479.0,181.5,483.0,172.5,483.0,164.5,492.5,157.0,500.0,155.0,505.5,159.0,497.5,158.0" stroke="black" stroke-width="2" fill="none" />
<polyline points="494.0,160.0,493.0,168.0,499.0,167.0,506.0,178.0,512.0,179.0" stroke="black" stroke-width="2" fill="none" />
<polyline points="497.5,177.0,493.5,185.5,497.5,193.5,500.0,193.5" stroke="black" stroke-width="2" fill="none" />
<polyline points="504.0,207.5,505.0,211.5,498.0,217.0,485.5,213.5,485.0,213.5,489.0,212.5,479.5,203.5" stroke="black" stroke-width="2" fill="none" />
<polyline points="482.0,218.5,470.5,217.5,462.5,216.5" stroke="black" stroke-width="2" fill="none" />
<polyline points="459.0,212.5,460.0,220.5,463.0,221.5,455.0,229.0,459.0,231.0,464.0,234.0,453.0,243.0,458.5,249.5,474.5,250.5" stroke="black" stroke-width="2" fill="none" />
<polyline points="489.0,244.5,497.0,244.5,506.0,246.5" stroke="black" stroke-width="2" fill="none" />
<polyline points="506.0,241.0,503.5,234.5,492.0,235.5,478.5,234.5,475.0,239.5,468.0,228.0,460.0,234.0" stroke="black" stroke-width="2" fill="none" />
<polyline points="467.0,221.0,458.5,226.5,459.0,223.5,449.0,222.5,441.0,218.5" stroke="black" stroke-width="2" fill="none" />
<polyline points="446.0,215.0,443.0,217.0,443.0,225.0,443.0,233.0" stroke="black" stroke-width="2" fill="none" />
<polyline points="443.0,242.5,435.0,239.5,420.0,235.5" stroke="black" stroke-width="2" fill="none" />
<polyline points="437.0,203.0,434.0,204.0,428.0,204.0,431.0,211.5,416.0,216.5,422.0,222.5,426.0,231.5,432.0,235.5,435.5,236.5,440.5,240.5,447.5,244.0,454.5,244.0,461.0,250.0,468.5,252.0,476.0,255.5,482.0,254.5,492.0,259.5,500.0,258.0,508.0,262.0" stroke="black" stroke-width="2" fill="none" />
<polyline points="509.0,248.0,510.5,244.0,508.5,248.5,499.0,253.0,492.0,254.5,484.5,253.0,479.5,244.0,474.5,248.0,466.5,247.0,463.0,241.0,455.0,242.5,450.5,238.5,443.5,231.5,441.5,237.5,433.5,233.0,424.5,240.5,421.5,233.0,412.5,226.0,404.5,226.5,410.5,231.5,405.5,230.0,393.0,225.0,386.0,222.0,391.0,220.0,393.5,211.5,402.0,200.5,410.5,192.5,400.5,178.5,410.5,174.5,418.5,165.5,419.5,157.5,414.5,156.5,417.5,146.5,413.5,136.0,412.5,128.0,409.5,127.5,404.5,121.0,396.0,119.0" stroke="black" stroke-width="2" fill="none" />
<polyline points="396.0,117.0,404.0,114.0" stroke="black" stroke-width="2" fill="none" />
<polyline points="408.0,128.5,416.0,128.0,423.0,120.0" stroke="black" stroke-width="2" fill="none" />
<polyline points="422.0,114.0,430.0,117.0,443.0,119.0,454.5,122.5" stroke="black" stroke-width="2" fill="none" />
<polyline points="476.5,116.5,476.5,116.5,478.0,124.5,480.5,120.5,485.0,121.0" stroke="black" stroke-width="2" fill="none" />
<polyline points="495.5,129.5,493.5,124.0,484.5,128.0,486.5,123.0,481.5,119.0,485.5,111.5,481.0,109.0,475.0,106.5,466.0,99.5,478.0,93.0,476.0,93.0,476.0,88.5,469.0,81.0" stroke="black" stroke-width="2" fill="none" />
<polyline points="457.5,88.5,459.5,82.5,466.0,83.0,465.0,91.0,459.5,91.0,463.5,93.0,469.5,92.0,472.5,89.0,480.5,84.0,481.5,87.0" stroke="black" stroke-width="2" fill="none" />
<polyline points="491.0,94.0,499.5,91.0,505.0,77.5,508.0,73.5" stroke="black" stroke-width="2" fill="none" />
<polyline points="513.0,90.5,500.5,94.0,494.5,105.0,487.5,114.5,494.5,111.5,490.0,103.5,485.0,101.5,491.0,97.5,494.0,88.5,507.5,85.5,503.5,81.0,504.5,71.0,499.5,62.0,500.5,61.0,500.5,57.0" stroke="black" stroke-width="2" fill="none" />
<polyline points="502.5,39.5,494.5,37.0" stroke="black" stroke-width="2" fill="none" />
<polyline points="495.0,34.0,502.5,36.0" stroke="black" stroke-width="2" fill="none" />
<polyline points="510.5,40.0,507.5,38.0,493.5,33.0" stroke="black" stroke-width="2" fill="none" />
<polyline points="493.5,17.5,501.5,7.5,509.5,6.0" stroke="black" stroke-width="2" fill="none" />
<polyline points="491.5,5.5,483.5,4.5" stroke="black" stroke-width="2" fill="none" />
<polyline points="480.5,5.0,488.5,4.0,488.5,17.5,492.5,19.5,499.0,22.0,487.0,33.0,483.0,41.0,483.0,50.5,482.0,58.5,489.5,61.0,490.5,71.0" stroke="black" stroke-width="2" fill="none" />
<polyline points="503.0,102.0,505.0,99.0,512.5,99.5" stroke="black" stroke-width="2" fill="none" />
<polyline points="507.5,116.0,496.5,112.5,492.0,108.5,484.0,99.5,474.5,97.0,467.0,96.0" stroke="black" stroke-width="2" fill="none" />
<polyline points="474.0,95.0,467.0,100.5,467.0,105.0,459.0,97.0,460.5,89.0,459.5,80.0,451.0,84.0" stroke="black" stroke-width="2" fill="none" />
<polyline points="431.5,82.5,439.5,77.5,438.0,73.0,444.0,72.5,445.0,67.5,450.0,66.5,458.0,68.5,460.5,68.5,464.0,71.5,472.0,69.5,480.0,69.5" stroke="black" stroke-width="2" fill="none" />
<polyline points="493.0,50.5,486.0,47.5,485.0,45.5,478.0,44.5,470.0,52.0,468.5,46.0,469.5,38.0,475.5,33.0,480.5,27.0,480.5,19.5,483.5,11.5,475.5,4.5,467.0,3.5" stroke="black" stroke-width="2" fill="none" />
<polyline points="449.5,8.5,451.5,4.0,449.0,6.0,445.5,13.5,436.5,22.5,440.0,30.5,442.5,37.5,441.5,45.5,446.5,53.5,439.5,62.0,441.0,61.0,433.0,69.0,441.5,73.0,440.0,80.0,434.5,87.0,434.5,99.0,428.0,105.0,429.5,98.0" stroke="black" stroke-width="2" fill="none" />
<polyline points="408.5,92.0,406.5,104.0,402.0,111.0,400.5,107.0,392.0,116.0,387.0,112.0,379.5,109.5,372.0,108.0,364.0,109.5,354.0,106.5,339.5,111.5,331.0,114.0,329.0,107.0,320.0,115.5,312.0,112.5,308.0,119.5,304.0,125.5,300.0,129.5,293.5,126.5,288.5,118.5,276.5,121.0,266.5,123.0,262.0,120.5,253.5,117.0,252.5,109.0,252.0,101.5,252.5,93.5,253.5,84.5,255.5,79.5,255.0,67.5,257.0,64.5,248.0,62.5,251.5,54.5,258.5,45.5,262.0,37.5,266.5,26.5,259.5,20.0" stroke="black" stroke-width="2" fill="none" />
<polyline points="270.5,29.5,278.5,32.5" stroke="black" stroke-width="2" fill="none" />
<polyline points="290.5,35.5,287.5,39.0,286.5,42.0,292.5,48.0,289.5,56.0,295.5,69.5,292.0,77.5,282.5,80.5,284.5,83.5,279.0,89.5,282.0,94.5,279.5,103.5,287.0,99.0,289.0,108.5,293.0,105.5,304.5,110.0,314.5,109.0,315.5,111.0,324.0,115.0,331.0,114.0,335.0,116.0,327.5,123.0,322.5,126.0" stroke="black" stroke-width="2" fill="none" />
<polyline points="315.5,124.0,319.5,121.0,320.5,134.5,328.5,128.5,340.5,136.0,347.0,141.0,350.5,135.0,352.5,144.0,360.0,151.0,368.0,150.5,376.0,153.5" stroke="black" stroke-width="2" fill="none" />
<polyline points="389.5,151.5,388.5,159.5" stroke="black" stroke-width="2" fill="none" />
<polyline points="403.0,150.0,408.5,159.5,411.5,161.5,419.5,169.5,422.0,166.0,431.0,176.0" stroke="black" stroke-width="2" fill="none" />
<polyline points="424.5,177.5,420.5,183.5" stroke="black" stroke-width="2" fill="none" />
<polyline points="402.0,176.5,409.5,185.5,406.0,193.5,404.0,198.0" stroke="black" stroke-width="2" fill="none" />
<polyline points="399.0,207.5,394.0,202.5,390.5,209.5,386.5,208.5,389.5,197.0,391.5,192.0,387.0,188.5,382.5,183.0,376.5,181.0,378.0,168.5,369.5,173.5" stroke="black" stroke-width="2" fill="none" />
<polyline points="365.5,188.5,370.5,192.5,377.0,193.5,379.5,202.5,381.5,210.5,382.0,219.0,389.5,222.0,397.0,219.5,399.5,226.5,407.5,230.5,423.5,226.5,429.0,225.5,434.0,224.5,440.0,219.5,445.0,227.5,449.0,224.5,457.0,215.5,458.0,208.0,464.0,197.0,473.0,191.5,485.0,185.0" stroke="black" stroke-width="2" fill="none" />
<polyline points="510.5,158.0,500.5,152.0,496.5,160.0,491.0,157.5,481.5,155.5,480.0,153.5,470.0,151.5,466.0,165.5,457.0,168.5,455.0,174.5,460.0,161.5,468.0,155.5,464.0,153.5,455.5,147.5" stroke="black" stroke-width="2" fill="none" />
<polyline points="444.5,146.0,448.0,149.5,445.0,157.5,442.0,162.5" stroke="black" stroke-width="2" fill="none" />
<polyline points="440.5,165.0,437.5,157.0" stroke="black" stroke-width="2" fill="none" />
<polyline points="429.0,145.5,427.5,142.5,423.5,149.5,419.0,143.0,415.0,155.5,406.5,154.5" stroke="black" stroke-width="2" fill="none" />
<polyline points="432.5,141.5,431.5,149.5,425.0,148.5,423.0,156.5,423.0,161.5,431.0,160.5,444.0,164.0,446.5,160.0,459.5,166.5" stroke="black" stroke-width="2" fill="none" />
<polyline points="468.0,150.5,469.0,158.0,471.0,164.0,468.5,171.0,467.5,175.5,470.0,173.0,483.5,172.5,488.5,176.5,498.5,178.5" stroke="black" stroke-width="2" fill="none" />
<polyline points="508.5,142.5,510.5,140.0,506.0,135.0,503.0,128.5,505.5,120.0,509.0,120.0,508.0,125.0,499.0,128.0,498.5,131.5,507.5,125.5,509.0,132.0,506.5,136.5,498.5,139.0,491.0,137.0,483.5,135.0,475.0,133.0,467.0,133.0,459.5,134.0,443.5,126.5,442.5,118.5,446.5,108.0,453.5,103.0,449.5,94.0,454.5,91.5,458.5,84.5,465.5,72.5,462.5,66.0,462.5,60.5,457.5,51.5,461.5,44.5,458.5,38.0,466.0,34.0,463.0,30.5,467.0,29.5,463.0,25.5" stroke="black" stroke-width="2" fill="none" />
<polyline points="466.5,37.0,474.5,43.0,483.0,31.0,484.0,28.0" stroke="black" stroke-width="2" fill="none" />
<polyline points="461.5,43.5,462.0,36.5,470.0,34.5,468.0,41.5,467.0,49.5" stroke="black" stroke-width="2" fill="none" />
<polyline points="463.0,46.5,471.0,44.5,482.0,36.5,493.0,24.5,496.0,27.0,501.0,20.0,510.5,14.5" stroke="black" stroke-width="2" fill="none" />
<polyline points="447.0,34.5,438.5,40.5,433.5,56.0,432.5,62.5,424.0,63.0,427.5,59.0,428.5,50.5,428.5,42.0,429.5,31.0,425.0,29.0,421.0,20.0,427.0,13.5,423.0,10.5" stroke="black" stroke-width="2" fill="none" />
<polyline points="404.5,19.5,411.5,19.5,413.0,27.5,411.0,36.5,413.0,33.0,425.0,44.0" stroke="black" stroke-width="2" fill="none" />
<polyline points="420.5,40.0,419.5,47.5,419.5,57.0,409.5,66.0,404.0,68.0" stroke="black" stroke-width="2" fill="none" />
<polyline points="396.5,57.5,404.5,53.0" stroke="black" stroke-width="2" fill="none" />
<polyline points="402.0,79.0,399.0,74.0,385.5,73.0,375.5,75.0,366.5,76.5,364.5,75.5,360.5,67.5" stroke="black" stroke-width="2" fill="none" />
<polyline points="358.0,66.5,355.0,74.5,359.0,76.5,359.0,80.0,363.0,82.0,365.0,85.0,372.5,81.0,380.5,85.0" stroke="black" stroke-width="2" fill="none" />
<polyline points="382.5,80.0,390.5,80.5" stroke="black" stroke-width="2" fill="none" />
<polyline points="395.0,97.0,397.0,105.0,402.5,112.5,410.5,117.5,407.5,121.5,396.0,127.0,392.0,138.0,390.5,145.5,400.0,152.5,391.0,158.5,400.0,162.5" stroke="black" stroke-width="2" fill="none" />
<polyline points="439.0,125.0,427.0,122.5,423.5,108.5,425.5,100.0,430.5,88.0,433.5,80.0,426.5,70.0,429.0,68.0,428.0,72.0" stroke="black" stroke-width="2" fill="none" />
<polyline points="437.5,64.0,445.5,64.5" stroke="black" stroke-width="2" fill="none" />
<polyline points="445.0,52.0,436.0,48.0,438.0,39.5" stroke="black" stroke-width="2" fill="none" />
<polyline points="417.5,79.0,420.5,87.0,416.0,89.0,419.5,87.0,421.0,88.0" stroke="black" stroke-width="2" fill="none" />
<polyline points="378.0,106.0,376.0,111.0,373.0,119.0" stroke="black" stroke-width="2" fill="none" />
<polyline points="366.0,118.0,365.0,127.5,370.0,118.5,363.0,110.5,357.5,108.5,364.5,104.0,365.0,97.5,361.0,87.5,369.5,86.0,375.5,78.0,380.0,79.0,383.5,70.0,374.5,69.0,367.5,69.0" stroke="black" stroke-width="2" fill="none" />
<polyline points="341.0,69.5,348.0,66.5,355.0,60.5,351.5,53.0,338.0,47.0" stroke="black" stroke-width="2" fill="none" />
<polyline points="334.0,48.0,341.0,47.5,347.0,50.5,347.5,58.5,344.0,68.5,344.0,77.0,338.5,80.5,341.0,81.5,331.0,85.0,335.5,91.0,335.5,96.0,343.5,93.0,349.5,88.0,345.0,98.0" stroke="black" stroke-width="2" fill="none" />
<polyline points="345.0,110.0,344.0,118.0,343.0,126.0,339.5,125.0,337.5,133.0,339.0,133.5,345.0,141.0,351.0,152.0,356.0,155.0,355.0,164.5,358.0,168.0,366.0,162.5,368.0,154.5" stroke="black" stroke-width="2" fill="none" />
<polyline points="348.0,174.0,344.0,170.0" stroke="black" stroke-width="2" fill="none" />
<polyline points="337.5,177.0,329.5,179.0,316.0,185.0,308.0,180.0,305.0,188.5,297.0,189.5" stroke="black" stroke-width="2" fill="none" />
<polyline points="268.0,194.0,267.0,185.5,267.0,178.0,267.0,170.5,266.0,162.0,266.0,154.5,266.0,146.0,268.5,138.5,267.5,133.5,259.5,131.5,251.5,136.0" stroke="black" stroke-width="2" fill="none" />
<polyline points="253.5,132.0,252.0,139.5,253.0,147.5,253.5,155.5,254.0,163.5,254.5,171.5,255.0,179.5,255.0,187.0,256.5,195.0" stroke="black" stroke-width="2" fill="none" />
<polyline points="262.5,179.5,262.0,171.0" stroke="black" stroke-width="2" fill="none" />
<polyline points="261.0,171.5,261.0,179.5" stroke="black" stroke-width="2" fill="none" />
<polyline points="255.0,139.5,263.0,138.5" stroke="black" stroke-width="2" fill="none" />
<polyline points="264.5,113.0,272.5,112.0" stroke="black" stroke-width="2" fill="none" />
<polyline points="266.5,110.5,274.5,109.5,282.5,109.0" stroke="black" stroke-width="2" fill="none" />
<polyline points="268.5,102.5,260.5,108.5" stroke="black" stroke-width="2" fill="none" />
<polyline points="259.0,109.5,261.0,104.5,275.0,110.5,277.5,118.0,281.5,114.0" stroke="black" stroke-width="2" fill="none" />
<polyline points="298.5,108.0,303.5,116.0,305.5,124.0,307.5,125.0,304.5,128.0,306.5,136.5,310.5,138.5,316.5,143.5,311.5,147.0,305.0,150.0,311.5,158.0,309.0,160.0,316.0,161.0,317.0,172.5,320.0,180.5,310.0,188.0,315.0,192.5,325.0,193.0" stroke="black" stroke-width="2" fill="none" />
<polyline points="341.0,190.0,338.5,198.0,344.5,205.0" stroke="black" stroke-width="2" fill="none" />
<polyline points="339.0,205.5,342.0,198.0" stroke="black" stroke-width="2" fill="none" />
<polyline points="345.5,195.0,357.0,198.0,365.0,198.0,370.0,207.5,378.0,211.5,377.0,212.0,379.0,204.5,384.0,201.0,388.0,200.5,394.0,199.5,397.5,207.0,401.0,218.0,407.0,217.5,406.5,216.5,417.5,207.0,430.0,209.0,442.0,214.0,446.5,212.5,450.5,195.5,453.0,191.5,457.0,191.5,465.0,193.5,473.0,188.5" stroke="black" stroke-width="2" fill="none" />
<polyline points="498.0,224.0,487.0,230.5,486.5,238.5,493.0,237.0" stroke="black" stroke-width="2" fill="none" />
<polyline points="488.5,231.0,482.0,238.5,485.0,240.5,481.0,249.0" stroke="black" stroke-width="2" fill="none" />
<polyline points="476.0,144.0,476.0,136.0" stroke="black" stroke-width="2" fill="none" />
<polyline points="491.5,128.0,496.5,115.5,501.0,113.5" stroke="black" stroke-width="2" fill="none" />
<polyline points="439.0,125.5,437.0,120.5,428.0,123.0,420.0,123.0,421.0,119.5,413.5,122.0,411.5,117.0,404.5,117.5,400.5,125.5,391.0,128.0,388.0,139.0,376.0,146.5,381.5,140.5,378.5,150.0,373.5,150.5,365.5,149.5,366.5,137.0,360.5,135.0,358.5,129.0,356.5,126.0,359.0,119.5,350.0,118.5,342.0,121.5,337.0,129.5,328.0,131.5,325.0,141.0,320.0,138.0,315.0,130.5,317.0,122.5,323.0,109.5,328.5,106.0" stroke="black" stroke-width="2" fill="none" />
<polyline points="338.5,111.0,338.5,119.0,336.5,124.0,342.5,133.0,344.5,122.5,353.5,129.5" stroke="black" stroke-width="2" fill="none" />
<polyline points="359.5,134.0,353.5,130.0,354.5,124.5,353.5,116.5" stroke="black" stroke-width="2" fill="none" />
<polyline points="321.0,136.5,313.5,134.5" stroke="black" stroke-width="2" fill="none" />
<polyline points="299.5,146.0,302.5,151.0,303.5,156.5,308.5,164.5,307.5,174.5,309.0,182.0,304.5,187.0,327.0,201.0,343.0,203.0,351.0,205.0,353.0,207.5" stroke="black" stroke-width="2" fill="none" />
<polyline points="362.5,208.0,370.0,208.0,371.0,211.0" stroke="black" stroke-width="2" fill="none" />
<polyline points="352.5,200.0,351.0,193.5,351.0,185.5" stroke="black" stroke-width="2" fill="none" />
<polyline points="316.5,142.5,308.5,139.5,303.5,134.5,295.5,138.5" stroke="black" stroke-width="2" fill="none" />
<polyline points="304.0,93.5,312.0,89.5,320.0,95.0,328.0,94.0" stroke="black" stroke-width="2" fill="none" />
<polyline points="319.5,82.0,323.0,71.5,316.0,66.5" stroke="black" stroke-width="2" fill="none" />
<polyline points="327.5,50.5,321.5,58.0,327.5,61.0,334.5,59.0,338.5,58.0,349.5,57.0,360.0,54.5,368.0,55.5,377.5,65.5" stroke="black" stroke-width="2" fill="none" />
<polyline points="385.5,53.5,378.0,52.0,378.0,45.0,382.0,36.5" stroke="black" stroke-width="2" fill="none" />
<polyline points="390.0,25.0,382.0,23.5,393.0,14.5,392.5,6.5,404.5,10.5,392.5,6.5" stroke="black" stroke-width="2" fill="none" />
<polyline points="384.5,3.5,379.5,11.5,384.0,11.5,385.0,19.5,385.5,27.5,389.0,26.5,386.0,34.5,389.5,35.5,398.5,37.5,391.0,39.5,389.0,42.5,385.0,47.0,387.5,56.0,394.5,59.0,397.0,66.5,397.0,69.5,399.0,75.5,404.0,78.5,409.0,88.5,412.0,89.5,415.0,96.0,413.0,104.0,416.5,107.0,422.5,116.5,419.5,118.0,418.5,127.0,428.0,127.0,429.5,127.0,436.0,128.0,444.0,133.0,454.0,134.0,462.0,130.0,471.0,139.5,481.0,137.5,493.5,140.5" stroke="black" stroke-width="2" fill="none" />
<polyline points="338.5,148.0,336.5,143.0,328.0,148.0,319.5,150.0,312.0,145.5,304.0,142.5,295.0,145.5,295.0,138.0,294.0,130.0,290.5,124.5,289.5,119.5,289.5,112.0,294.0,109.0,291.0,104.0,288.5,100.0,289.5,92.0" stroke="black" stroke-width="2" fill="none" />
<polyline points="306.0,83.5,302.0,90.5,288.5,88.5,281.0,86.5,273.0,84.0,273.0,89.0,264.5,92.0,264.5,82.0,267.5,77.0,259.5,76.5,262.5,73.5,266.5,64.0,270.5,55.5,270.5,47.0,265.5,44.0,270.5,40.0,274.5,35.5,266.5,37.0,276.5,32.0,279.0,22.5,279.0,12.5,283.5,4.5,275.5,5.5" stroke="black" stroke-width="2" fill="none" />
<polyline points="274.5,4.0,281.5,5.0,282.0,13.0,287.0,18.0,286.5,23.0" stroke="black" stroke-width="2" fill="none" />
<polyline points="309.0,22.5,319.0,19.5,317.5,27.5,319.0,27.5,330.0,15.0,335.0,13.0,335.0,7.5,338.0,3.0,349.5,4.0,359.5,5.0,360.5,6.5,367.5,8.5,377.0,7.0" stroke="black" stroke-width="2" fill="none" />
<polyline points="379.5,19.5,375.5,28.0,372.0,32.0,374.5,22.5,360.0,14.5" stroke="black" stroke-width="2" fill="none" />
<polyline points="360.5,12.0,361.0,20.5,352.5,25.5,361.5,27.5,367.0,31.0,362.5,44.0,360.5,56.0,363.5,57.5" stroke="black" stroke-width="2" fill="none" />
<polyline points="342.0,51.5,334.0,50.5,328.0,50.0,323.5,59.0,329.0,50.5" stroke="black" stroke-width="2" fill="none" />
<polyline points="299.5,42.0,294.5,43.0,288.5,42.0,286.0,40.0,272.0,45.5,269.0,51.0,264.0,39.0,257.5,27.0,253.5,21.0,247.5,20.5,248.5,22.0,242.5,19.0" stroke="black" stroke-width="2" fill="none" />
<polyline points="236.0,9.5,235.0,5.5,235.0,14.0,236.0,25.0,238.0,27.0,235.5,35.5,235.0,43.5,236.0,50.5,231.0,58.5,233.0,69.0,224.0,72.0,227.0,73.0,230.5,74.5,226.5,82.5,221.0,90.5,216.5,95.5,226.5,93.5,234.5,88.0,241.5,87.0,254.5,82.5,262.5,79.5,268.0,81.5,276.0,81.5,291.0,88.5,296.0,97.5,296.0,105.5,296.0,113.5,301.0,118.5,296.0,124.5,296.5,132.5,296.0,140.5,299.5,148.0,299.5,156.0,302.5,164.0,302.0,172.5,298.0,181.0,298.0,189.0,293.0,201.0,301.0,202.0,309.0,204.5" stroke="black" stroke-width="2" fill="none" />
<polyline points="289.0,130.5,287.0,122.5,279.0,127.0,271.5,126.0,263.5,121.0,256.0,118.5,260.0,114.5,253.5,108.5" stroke="black" stroke-width="2" fill="none" />
<polyline points="236.5,96.5,231.5,90.5,239.0,82.5,244.0,81.0,237.0,72.0,241.5,63.0,237.0,55.0,240.0,51.0,247.0,45.0,242.0,40.5,251.5,37.5,250.5,29.5,250.5,21.5,250.5,13.5,251.0,5.5,252.0,7.5" stroke="black" stroke-width="2" fill="none" />
<polyline points="228.0,3.5,223.0,3.5,221.0,7.5,219.5,15.5,228.0,25.5,226.5,34.0,227.5,45.0,230.5,50.0,225.5,50.0,215.5,58.5,222.5,61.0,217.5,68.5,217.0,77.0,222.0,79.0,220.0,86.5,230.0,84.5,229.0,92.5,225.5,94.5,234.5,98.0,233.5,100.5,249.0,89.0,257.5,89.5,259.5,92.5,267.0,95.5,270.0,98.0,271.5,101.0,279.0,93.0,285.0,91.5,293.0,86.5,301.5,91.5,307.5,91.0,310.5,97.0,303.0,105.5,306.0,113.5,308.5,118.5,313.5,121.5,321.5,125.5,323.5,133.5,325.5,135.5,342.5,134.5,343.5,142.5,343.5,150.5,341.5,158.5,339.0,167.0,330.0,182.0,325.5,183.0,319.5,192.0,320.5,198.5,328.0,202.5,336.0,204.5,343.0,196.5,354.0,194.5,356.5,198.5,363.0,195.5,371.5,197.5,379.5,196.0,387.5,195.0,394.5,188.5,405.5,193.0,405.5,197.0,410.5,196.0,417.5,197.0,419.5,199.5,430.5,200.5,433.5,192.0,440.0,184.0,448.0,176.5,436.5,184.0,431.5,192.0,442.0,194.0,444.0,203.0,447.0,206.5,456.5,212.5,460.5,219.0,457.5,218.0,463.5,226.5,470.0,229.0,470.5,234.5,466.5,240.5,467.5,248.5,473.5,253.0,484.5,251.5,502.5,258.5,506.0,264.0" stroke="black" stroke-width="2" fill="none" />
<polyline points="461.5,54.0,455.0,47.0,445.0,44.0,436.0,46.0,428.0,56.5,420.5,59.0,412.5,58.0,404.5,57.5,407.5,45.5,400.5,44.5,400.5,36.0,403.0,30.0,401.5,22.0,399.5,14.0" stroke="black" stroke-width="2" fill="none" />
<polyline points="366.5,26.0,358.0,28.0,355.0,27.0" stroke="black" stroke-width="2" fill="none" />
<polyline points="274.0,58.5,266.0,60.0,275.0,69.0" stroke="black" stroke-width="2" fill="none" />
<polyline points="281.0,73.5,280.0,66.5,280.5,58.5,280.5,59.0,272.5,59.0,264.5,58.0" stroke="black" stroke-width="2" fill="none" />
<polyline points="252.5,39.0,253.5,47.0,245.5,55.0,247.0,56.0,251.5,69.5,250.5,78.0,250.5,85.0,245.5,93.5" stroke="black" stroke-width="2" fill="none" />
<polyline points="241.0,94.0,240.0,86.5" stroke="black" stroke-width="2" fill="none" />
<polyline points="227.0,74.0,219.5,70.0" stroke="black" stroke-width="2" fill="none" />
<polyline points="231.5,58.5,215.5,58.5,213.5,67.0,219.5,61.0,221.0,52.5,220.0,53.5,212.0,53.0" stroke="black" stroke-width="2" fill="none" />
<polyline points="229.0,67.0,221.0,70.5,218.0,67.5,215.0,66.5,206.5,63.5,198.5,64.5,198.5,59.5,186.0,61.0,180.0,61.0,177.0,71.0,169.0,77.5,161.0,72.5,157.5,72.5,148.5,90.5,140.5,96.5,149.5,99.0,151.5,91.0,155.0,82.0,161.5,74.0,156.5,74.0,154.0,66.0,157.0,62.0,163.0,54.5,171.0,43.5,177.0,38.5,187.0,27.5,196.0,24.5,189.5,19.5,190.5,17.5,184.5,10.0,194.5,7.5,188.0,9.5,180.0,12.0,180.0,16.0" stroke="black" stroke-width="2" fill="none" />
<polyline points="186.0,14.5,183.5,23.5" stroke="black" stroke-width="2" fill="none" />
<polyline points="196.0,30.0,197.0,38.0,193.5,46.0,195.5,56.5,198.5,64.0,196.5,72.0,196.5,80.0,198.5,86.5,197.5,92.5,190.5,93.5,179.0,101.5,185.5,105.5,189.5,107.0,202.0,104.5,213.0,103.5" stroke="black" stroke-width="2" fill="none" />
<polyline points="202.0,106.5,194.0,107.0,186.0,104.0" stroke="black" stroke-width="2" fill="none" />
<polyline points="189.5,121.0,181.5,124.0" stroke="black" stroke-width="2" fill="none" />
<polyline points="197.5,138.0,205.0,143.5,206.0,151.5,202.0,162.5,200.0,167.5,200.0,176.0,199.0,184.0,196.0,191.5,194.5,199.5,195.5,209.5,192.5,217.5,198.0,225.5,199.5,233.0" stroke="black" stroke-width="2" fill="none" />
<polyline points="197.5,224.5,193.5,213.5,188.5,211.5,180.5,213.0,175.5,223.0,175.5,215.0,190.0,208.5,189.0,203.5,186.0,195.5,181.5,188.5,179.5,183.5,187.5,183.5,182.0,179.0,184.0,186.5,182.0,189.5" stroke="black" stroke-width="2" fill="none" />
<polyline points="167.5,184.0,170.5,182.0,166.5,180.0,164.5,188.0,164.5,192.0,173.5,194.5,176.5,201.5,178.0,208.0,179.0,208.0,184.5,206.0,192.5,203.0" stroke="black" stroke-width="2" fill="none" />
<polyline points="183.0,218.5,175.0,219.5" stroke="black" stroke-width="2" fill="none" />
<polyline points="167.5,194.5,155.0,193.0,147.5,189.0" stroke="black" stroke-width="2" fill="none" />
<polyline points="147.0,188.5,160.5,197.0,172.5,205.0" stroke="black" stroke-width="2" fill="none" />
<polyline points="157.5,183.0,163.0,175.5,167.0,169.5,174.5,168.5,183.0,165.5,185.0,157.5,178.0,152.0,170.0,153.0" stroke="black" stroke-width="2" fill="none" />
<polyline points="181.0,157.5,189.0,158.5" stroke="black" stroke-width="2" fill="none" />
<polyline points="206.0,140.5,214.5,142.5" stroke="black" stroke-width="2" fill="none" />
<polyline points="203.0,130.5,204.5,138.5,201.0,146.0,198.0,154.5,190.0,162.5,184.5,169.0,183.5,164.0,187.5,165.0,197.0,160.0,208.0,158.0" stroke="black" stroke-width="2" fill="none" />
<polyline points="193.5,133.5,187.5,146.0,178.0,143.5,170.0,147.5,162.5,151.5,154.5,149.5" stroke="black" stroke-width="2" fill="none" />
<polyline points="150.0,152.5,158.0,158.5,160.0,166.0,155.0,174.0,159.5,167.0,164.0,178.0,172.0,174.0,177.0,170.0,187.0,168.0,195.0,175.5,198.0,183.5" stroke="black" stroke-width="2" fill="none" />
<polyline points="164.5,215.5,156.5,212.5,148.5,211.5,140.5,208.0,132.5,203.0,125.0,200.0" stroke="black" stroke-width="2" fill="none" />
<polyline points="135.0,202.0,149.0,210.0" stroke="black" stroke-width="2" fill="none" />
<polyline points="166.0,219.0,158.0,215.0,150.0,210.0,142.0,205.0,134.0,200.5,125.5,198.5,120.5,196.0,113.5,201.0,106.5,206.0,98.0,210.0,90.0,214.0,81.5,217.0,77.5,223.0,68.0,215.5,63.0,208.5,60.5,203.5,60.5,195.5,55.5,195.5" stroke="black" stroke-width="2" fill="none" />
<polyline points="63.5,216.0,55.5,216.0,44.5,211.5,36.5,214.0" stroke="black" stroke-width="2" fill="none" />
<polyline points="37.0,218.5,45.0,217.5,54.0,226.5,62.0,227.5,70.5,224.5,78.5,218.5,86.5,213.5,94.0,210.0,102.0,206.0,112.0,199.0" stroke="black" stroke-width="2" fill="none" />
<polyline points="108.5,197.5,104.5,205.5,94.5,207.0,79.5,215.0" stroke="black" stroke-width="2" fill="none" />
<polyline points="89.5,228.5,90.5,224.5,94.5,231.0,99.0,238.5,96.0,242.0,98.5,237.0,100.5,238.5,109.5,237.5,119.5,234.0" stroke="black" stroke-width="2" fill="none" />
<polyline points="133.0,232.0,139.0,229.0" stroke="black" stroke-width="2" fill="none" />
<polyline points="117.5,213.5,124.5,221.5,117.5,226.5,124.5,236.5,127.5,238.5,137.5,242.5,125.5,243.5,123.5,251.0,125.0,253.0,113.0,260.5,102.0,266.5,97.0,260.5" stroke="black" stroke-width="2" fill="none" />
<polyline points="103.0,259.0,109.5,254.0,114.5,247.0,114.0,239.5,113.5,233.5,113.0,226.0,116.0,218.0,102.0,221.0" stroke="black" stroke-width="2" fill="none" />
<polyline points="101.5,216.5,102.5,214.0,110.0,212.0,120.0,215.0,127.0,221.0,134.5,224.5,142.5,226.0,150.0,228.0,158.0,229.0,165.5,231.5,174.0,239.5,182.0,240.5,189.5,236.0,197.5,233.5" stroke="black" stroke-width="2" fill="none" />
<polyline points="161.5,271.0,174.5,272.0,178.5,280.0,178.5,287.5,176.5,295.5,175.5,302.0,161.0,309.0" stroke="black" stroke-width="2" fill="none" />
<polyline points="144.0,302.5,152.0,311.0,160.0,310.0,167.5,306.0,175.5,299.5,178.5,296.5" stroke="black" stroke-width="2" fill="none" />
<polyline points="176.0,282.5,175.5,270.5,167.5,266.5,159.5,267.5,151.5,272.5,143.5,289.0" stroke="black" stroke-width="2" fill="none" />
<polyline points="145.5,306.5,142.5,299.0,142.5,291.0,144.0,283.5,148.0,275.0,156.0,267.5" stroke="black" stroke-width="2" fill="none" />
<polyline points="80.5,269.5,80.5,277.0" stroke="black" stroke-width="2" fill="none" />
<polyline points="67.5,287.0,59.5,290.0,51.5,297.0,43.5,300.5,35.5,305.5" stroke="black" stroke-width="2" fill="none" />
<polyline points="21.0,303.5,24.0,311.5,26.5,301.5,23.5,296.5,27.5,288.5,20.5,284.5,28.5,281.0,34.5,280.5,41.5,278.5,36.5,282.5" stroke="black" stroke-width="2" fill="none" />
<polyline points="39.5,262.0,47.5,260.5,56.5,258.5,64.5,252.5,72.0,248.0" stroke="black" stroke-width="2" fill="none" />
<polyline points="67.5,256.0,72.0,264.0,67.5,272.0,68.5,275.0,63.0,281.5,54.0,282.5,50.0,290.5,56.0,290.0,62.5,286.0,70.5,281.5" stroke="black" stroke-width="2" fill="none" />
<polyline points="54.5,282.0,46.0,294.0,40.5,299.0,47.5,295.0,47.5,287.0,48.5,280.0,56.5,274.0,53.0,268.0,57.5,257.0,61.0,249.0,52.0,243.0,57.0,234.5,59.0,229.5,51.0,234.5,43.0,238.5,35.0,242.5,27.0,247.0,19.0,251.0" stroke="black" stroke-width="2" fill="none" />
<polyline points="22.0,252.0,18.0,249.0,25.5,241.0" stroke="black" stroke-width="2" fill="none" />
<polyline points="21.0,232.0,14.5,239.5" stroke="black" stroke-width="2" fill="none" />
<polyline points="3.5,246.5,9.0,232.5,8.0,224.0,5.5,224.0" stroke="black" stroke-width="2" fill="none" />
<polyline points="34.0,224.0,30.5,227.0,36.5,228.0" stroke="black" stroke-width="2" fill="none" />
<polyline points="50.5,227.0,51.5,224.0" stroke="black" stroke-width="2" fill="none" />
<polyline points="53.0,221.5,61.0,222.5" stroke="black" stroke-width="2" fill="none" />
<polyline points="71.0,233.5,74.0,241.5,64.0,246.0,65.0,251.0,72.0,252.5,76.0,254.5,77.0,262.5,77.5,270.0,75.5,278.0,67.5,287.5,53.0,292.5,49.5,297.0" stroke="black" stroke-width="2" fill="none" />
<polyline points="44.5,331.5,44.5,332.5,44.5,340.5" stroke="black" stroke-width="2" fill="none" />
<polyline points="21.0,298.5,18.5,290.5,13.5,284.5" stroke="black" stroke-width="2" fill="none" />
<polyline points="14.0,288.5,18.0,283.5,10.0,287.0,3.5,290.5,11.5,286.5,14.0,279.0,22.5,282.0,27.0,283.5,35.5,275.5,42.5,276.0,50.5,272.0" stroke="black" stroke-width="2" fill="none" />
<polyline points="44.0,256.0,36.0,264.0,38.0,262.5,45.5,255.0,49.5,249.0,57.5,249.0,65.5,241.5,68.0,239.0,78.5,242.0" stroke="black" stroke-width="2" fill="none" />
<polyline points="76.5,235.5,76.5,243.0,66.0,251.0,77.5,249.5,80.5,258.0,85.5,253.0" stroke="black" stroke-width="2" fill="none" />
<polyline points="70.5,261.0,61.5,267.0,53.0,265.0,61.0,264.0,62.5,256.0" stroke="black" stroke-width="2" fill="none" />
<polyline points="52.5,244.5,60.5,238.5" stroke="black" stroke-width="2" fill="none" />
<polyline points="30.0,209.0,38.0,205.0,44.0,204.0,46.0,206.5,53.0,204.5,61.0,200.5,74.0,197.5" stroke="black" stroke-width="2" fill="none" />
<polyline points="84.5,203.0,84.5,195.0,82.0,186.5" stroke="black" stroke-width="2" fill="none" />
<polyline points="103.0,190.5,105.5,183.5,113.5,180.0,114.0,180.0,105.5,184.0,113.5,187.0,126.0,190.0,134.0,185.5,142.0,187.5,150.0,184.0,158.0,180.0,166.0,172.0,168.0,163.5,168.5,160.5" stroke="black" stroke-width="2" fill="none" />
<polyline points="142.0,169.5,143.0,177.5,129.5,187.5,125.5,201.5,141.0,209.5,162.0,217.5,160.5,223.5,158.5,233.5,152.5,237.5" stroke="black" stroke-width="2" fill="none" />
<polyline points="102.5,207.0,93.5,218.0,89.5,227.0,87.0,235.0,99.5,234.5,91.5,246.5,82.5,251.5,85.5,258.0,82.0,265.0,88.0,264.0" stroke="black" stroke-width="2" fill="none" />
<polyline points="21.0,311.5,25.5,307.0,38.5,303.0,37.5,298.0,40.5,290.5,47.0,282.5,46.0,278.5,43.0,274.5,44.0,262.5,51.0,254.5,44.0,249.0,45.0,241.0,37.0,232.0,39.0,237.5,31.0,241.5,20.0,247.0,11.0,254.5,9.0,253.5,3.0,259.5,13.0,252.0,11.0,244.5,9.0,242.5,10.0,236.5,12.5,230.0,10.5,222.5,9.5,219.0,7.0,219.0,5.0,211.0,4.0,202.5,6.0,194.5,19.0,185.5,25.0,177.5,17.5,170.5,25.0,160.5,15.0,153.5,14.0,149.0,17.0,147.0,13.0,145.0" stroke="black" stroke-width="2" fill="none" />
<polyline points="2.5,153.0,10.5,153.0,11.0,149.5,17.0,157.5,21.5,153.5,26.5,143.5,27.5,139.5,35.5,134.5,43.5,139.5,45.5,129.5" stroke="black" stroke-width="2" fill="none" />
<polyline points="51.5,136.0,45.5,141.5,47.5,139.5,54.5,131.5,52.5,123.5" stroke="black" stroke-width="2" fill="none" />
<polyline points="54.0,134.0,53.0,142.0,54.0,150.5,51.5,158.0,50.0,165.5,51.0,167.5,45.5,170.5,43.5,181.5,48.0,189.5,54.0,194.0,53.0,195.0,61.0,188.0" stroke="black" stroke-width="2" fill="none" />
<polyline points="47.5,185.5,41.5,184.0,36.5,191.5,26.0,198.5,15.0,196.5,12.0,193.5,4.5,194.0" stroke="black" stroke-width="2" fill="none" />
<polyline points="4.5,191.0,12.5,185.5,21.5,179.5,26.5,179.5,31.5,177.0,39.5,174.0,48.5,171.0,58.0,173.0" stroke="black" stroke-width="2" fill="none" />
<polyline points="63.5,172.5,65.0,180.5" stroke="black" stroke-width="2" fill="none" />
<polyline points="71.0,150.5,79.0,150.5,86.5,147.5" stroke="black" stroke-width="2" fill="none" />
<polyline points="82.5,148.5,69.5,153.5,77.5,158.0,77.5,162.0,88.5,155.0" stroke="black" stroke-width="2" fill="none" />
<polyline points="83.0,181.5,80.0,180.5,72.5,170.5,66.5,177.0,56.5,168.0,52.5,179.5,56.0,172.0,59.0,164.0,57.5,156.0,55.5,148.0,54.5,140.0" stroke="black" stroke-width="2" fill="none" />
<polyline points="65.0,135.5,68.0,130.5,65.0,138.5,66.0,146.5,69.5,154.5,81.0,157.0,76.5,164.0,73.0,170.5,85.5,175.5,68.0,177.5,67.0,188.5,69.5,198.5,77.5,203.0,80.0,193.5,87.0,194.0,94.5,190.0,93.5,186.5,102.5,178.0,109.5,170.5,122.5,170.0,130.5,170.0" stroke="black" stroke-width="2" fill="none" />
<polyline points="117.0,170.0,118.0,178.0,115.5,186.0,127.5,179.5,130.5,181.0,143.5,177.0" stroke="black" stroke-width="2" fill="none" />
<polyline points="167.5,97.5,167.5,95.5,158.0,92.5,149.5,96.0,144.0,97.0,140.5,102.5,134.5,91.5,130.0,94.5,121.5,93.5,114.5,95.5,110.5,100.5,111.0,95.5,120.0,87.5,120.0,84.5,125.0,77.0,131.5,71.0,139.5,68.0,158.0,59.5,160.0,51.5,152.5,53.5,144.0,49.5,146.0,47.5,150.5,47.5,153.0,39.0,146.0,37.0,140.5,27.0,145.5,17.0,149.5,9.0,157.5,5.5,154.5,4.5" stroke="black" stroke-width="2" fill="none" />
<polyline points="155.0,4.5,152.0,6.5,155.0,7.0,154.0,18.5,147.0,26.5,150.0,32.0,152.0,32.0,141.0,42.0,139.0,50.5,141.0,63.5" stroke="black" stroke-width="2" fill="none" />
<polyline points="148.5,68.0,153.0,76.0,149.0,83.5,143.5,91.5,134.0,93.5,139.5,83.5" stroke="black" stroke-width="2" fill="none" />
<polyline points="134.0,89.5,137.0,97.5" stroke="black" stroke-width="2" fill="none" />
<polyline points="160.0,79.0,157.5,65.0,149.0,69.5,139.5,80.5,131.5,80.5,126.5,84.5,127.0,87.5,130.0,79.0,133.0,75.0,126.0,71.5,114.0,69.5,112.0,68.5,113.0,62.5,124.5,54.0,121.5,53.5,127.0,51.5,123.5,40.5,114.5,41.5,117.0,30.5,117.0,25.5,114.0,23.5,115.0,15.5,121.0,11.5,122.5,6.0" stroke="black" stroke-width="2" fill="none" />
<polyline points="108.5,8.0,116.5,4.0,122.0,6.0,111.5,7.0,104.5,20.5,111.0,27.0,104.0,30.0,109.5,30.0,109.5,27.0,118.0,33.0,125.0,26.0,134.0,23.0,130.0,18.5,136.0,21.0,127.0,29.5,130.0,33.5,131.5,42.5,133.5,43.5,131.5,54.5" stroke="black" stroke-width="2" fill="none" />
<polyline points="124.0,51.5,132.0,42.5" stroke="black" stroke-width="2" fill="none" />
<polyline points="145.0,33.5,153.5,30.5" stroke="black" stroke-width="2" fill="none" />
<polyline points="152.0,28.0,157.5,20.0,163.5,17.0,166.0,9.5,172.5,8.0,167.5,11.0" stroke="black" stroke-width="2" fill="none" />
<polyline points="172.0,12.0,180.0,9.0,176.5,17.0,170.5,19.5,168.5,24.5,170.0,28.5,171.5,34.5,172.5,39.5,179.0,41.5,184.5,50.5,181.5,49.5,178.5,57.5,172.5,71.0,167.5,73.0,180.5,80.5,187.0,89.0,197.5,94.0,205.5,92.5,211.5,88.0" stroke="black" stroke-width="2" fill="none" />
<polyline points="214.0,94.0,207.0,98.0,202.5,89.5" stroke="black" stroke-width="2" fill="none" />
<polyline points="193.5,65.5,188.0,73.0,182.5,66.5,174.0,69.0,166.0,71.0" stroke="black" stroke-width="2" fill="none" />
<polyline points="156.5,63.5,164.5,60.5,171.5,57.5" stroke="black" stroke-width="2" fill="none" />
<polyline points="184.0,59.5,179.5,67.5,174.5,75.5,180.5,81.0,188.5,91.5" stroke="black" stroke-width="2" fill="none" />
<polyline points="191.0,71.5,180.0,69.0,184.0,61.0" stroke="black" stroke-width="2" fill="none" />
<polyline points="170.5,44.0,173.5,32.5,170.5,30.0" stroke="black" stroke-width="2" fill="none" />
<polyline points="166.0,32.0,164.0,31.5,161.0,40.0,162.5,36.0,169.5,19.5" stroke="black" stroke-width="2" fill="none" />
<polyline points="172.0,15.0,180.0,15.0,182.0,25.0,186.0,29.0,187.0,31.0,200.0,30.0,203.0,34.0,202.5,43.0,207.5,40.5,215.5,35.5" stroke="black" stroke-width="2" fill="none" />
<polyline points="221.5,22.0,214.5,15.0,206.5,18.0" stroke="black" stroke-width="2" fill="none" />
<polyline points="199.5,21.0,201.5,13.0,206.5,3.5,214.5,8.5,224.5,10.0" stroke="black" stroke-width="2" fill="none" />
<polyline points="215.0,2.0,216.0,10.0,218.0,15.0,217.0,23.0,221.0,25.0,221.0,29.5,220.0,39.5,213.0,47.5,212.5,55.5,206.5,63.5,210.5,67.0,214.5,71.0,207.0,76.0,202.5,78.0,203.0,86.0,207.5,87.0,214.5,93.5,214.5,99.0,218.5,103.0,219.0,97.5,229.0,85.5,236.0,86.5,244.5,82.5,256.5,75.5,261.0,74.5,270.0,72.5,274.5,69.5,282.5,73.5,287.5,80.5,292.5,84.5,298.5,88.5,306.0,79.5,315.0,76.5,328.5,75.5,338.5,71.5,345.5,64.5,353.5,64.5,359.5,49.5,370.5,45.5" stroke="black" stroke-width="2" fill="none" />
<polyline points="243.5,39.5,235.5,36.5,229.5,23.5" stroke="black" stroke-width="2" fill="none" />
<polyline points="204.5,16.5,205.5,12.5,209.5,4.5" stroke="black" stroke-width="2" fill="none" />
<polyline points="208.5,2.0,202.0,9.5,208.0,12.5,207.5,22.5,210.5,30.5,212.5,25.5,212.5,22.5,225.5,27.0,233.5,23.0,244.5,25.5,246.0,27.0,262.5,32.5,268.5,26.5,276.0,29.0,278.0,30.0,286.5,31.5,290.5,32.5,299.5,34.5,307.5,34.5,315.0,41.0,317.0,44.0,328.0,41.0,335.0,45.0,343.0,44.0,351.0,46.0,359.5,47.0,368.0,49.0,376.0,47.5,382.5,36.5" stroke="black" stroke-width="2" fill="none" />
<polyline points="411.0,6.0,408.0,12.5,402.0,7.5,395.5,10.5,389.5,15.0,386.5,10.0,375.5,9.5,372.5,21.0,364.5,17.0,356.5,18.0,355.5,24.5,346.5,25.5,345.5,21.5,332.5,26.0,333.5,29.0,325.0,38.5,317.0,39.0,312.0,44.5,299.0,45.0,290.0,56.0,281.0,67.0,267.5,56.0,261.5,67.0,255.5,62.5,246.5,65.0,236.5,67.0,232.5,73.0,228.5,81.0,219.5,78.0,217.5,73.5,211.5,71.0,205.0,82.0,200.0,76.0,192.5,77.0,192.5,79.0,185.5,75.5,191.5,67.5,190.5,59.5,188.0,50.5,200.0,41.0,217.5,36.5,215.5,28.5,211.5,24.0,202.5,19.0,200.5,16.0,195.0,11.5,198.0,10.0,196.0,2.0" stroke="black" stroke-width="2" fill="none" />
<polyline points="150.0,9.0,151.0,17.0" stroke="black" stroke-width="2" fill="none" />
<polyline points="153.5,38.0,146.5,45.0,138.5,46.0,137.0,43.0,125.0,34.5,123.0,33.5,122.0,27.5,121.5,19.5,115.5,15.5,107.5,16.5" stroke="black" stroke-width="2" fill="none" />
<polyline points="107.0,15.0,115.0,14.0" stroke="black" stroke-width="2" fill="none" />
<polyline points="131.0,16.0,123.0,20.0,109.0,22.5,101.5,26.5" stroke="black" stroke-width="2" fill="none" />
<polyline points="86.0,28.5,95.0,33.0,95.5,42.5" stroke="black" stroke-width="2" fill="none" />
<polyline points="78.0,51.0,82.0,40.0,86.5,31.0,84.5,38.5,90.5,49.0,93.0,49.5,104.0,57.5,109.0,52.5,107.0,47.0,110.0,43.5,109.0,51.5,108.0,60.5,116.0,58.0,118.0,60.5,125.0,70.5,118.0,72.0,111.0,82.0,109.0,90.0,110.0,98.5,106.0,108.5,102.0,116.5,100.0,121.5,102.0,108.5,102.5,103.5,95.5,111.0" stroke="black" stroke-width="2" fill="none" />
<polyline points="95.5,118.0,92.5,110.0,95.5,102.0,95.5,96.0,87.0,104.0" stroke="black" stroke-width="2" fill="none" />
<polyline points="90.5,101.5,99.0,105.5,109.0,111.0,111.0,111.0" stroke="black" stroke-width="2" fill="none" />
<polyline points="99.5,94.5,107.0,89.0,114.5,93.5,115.5,89.5" stroke="black" stroke-width="2" fill="none" />
<polyline points="106.5,90.0,108.5,97.5,107.0,106.0" stroke="black" stroke-width="2" fill="none" />
<polyline points="103.5,99.5,98.5,97.5,105.0,89.5" stroke="black" stroke-width="2" fill="none" />
<polyline points="82.5,101.0,80.5,94.0,72.0,98.5,76.0,96.5,81.0,90.0,88.5,87.0,96.5,84.5,97.5,77.5,109.0,83.5,117.0,79.5,129.5,74.5,137.5,72.5" stroke="black" stroke-width="2" fill="none" />
<polyline points="80.5,77.0,88.5,75.0,86.5,76.0,89.0,84.0,92.5,97.0,88.0,105.0,86.0,111.0,92.0,118.5" stroke="black" stroke-width="2" fill="none" />
<polyline points="93.0,118.0,85.0,112.0" stroke="black" stroke-width="2" fill="none" />
<polyline points="74.0,115.5,82.0,111.5,82.0,111.5,74.0,114.0,67.0,122.0" stroke="black" stroke-width="2" fill="none" />
<polyline points="71.5,133.5,71.5,141.5,70.0,151.5,63.5,159.0,66.0,167.5,69.5,161.0,77.5,165.0,85.5,168.5,93.5,167.5,101.5,165.0,109.0,163.0,117.5,167.0,125.5,164.0,133.5,165.0,141.5,164.0,148.5,168.5,150.5,171.5,155.0,184.5" stroke="black" stroke-width="2" fill="none" />
<polyline points="52.5,167.0,46.0,166.0,38.0,163.0" stroke="black" stroke-width="2" fill="none" />
<polyline points="37.5,155.5,35.5,155.0,27.0,156.5" stroke="black" stroke-width="2" fill="none" />
<polyline points="34.5,148.0,35.5,144.0,28.5,152.0,28.5,159.5,26.0,175.5,26.5,180.5,23.0,189.0,25.0,199.0,31.5,206.5,24.5,216.0,22.0,224.0,20.5,233.5,14.0,242.5,15.0,250.0,9.0,261.5,19.0,260.5,20.0,263.5,22.0,265.0" stroke="black" stroke-width="2" fill="none" />
<polyline points="3.0,294.0,13.5,292.0,13.5,300.0,11.5,300.0" stroke="black" stroke-width="2" fill="none" />
<polyline points="33.5,181.0,41.5,173.0,48.5,178.0" stroke="black" stroke-width="2" fill="none" />
<polyline points="24.0,171.0,24.0,166.5,16.0,170.5" stroke="black" stroke-width="2" fill="none" />
<polyline points="2.0,153.5,4.0,161.5,3.5,169.5,3.5,178.5,2.5,184.0,2.5,192.5,6.5,204.5,11.5,212.5,16.5,213.5" stroke="black" stroke-width="2" fill="none" />
<polyline points="56.0,159.5,50.5,159.5,46.0,154.5,37.5,150.5,33.5,145.0,35.5,155.0,24.5,152.0,26.5,144.0" stroke="black" stroke-width="2" fill="none" />
<polyline points="32.0,120.0,40.0,114.5" stroke="black" stroke-width="2" fill="none" />
<polyline points="57.0,101.0,65.0,99.0,65.5,103.0" stroke="black" stroke-width="2" fill="none" />
<polyline points="58.0,98.5,66.0,94.5,74.5,89.5,82.5,86.0,89.5,81.5" stroke="black" stroke-width="2" fill="none" />
<polyline points="81.0,58.5,78.0,57.5,73.0,48.5,77.5,48.5,73.5,48.5" stroke="black" stroke-width="2" fill="none" />
<polyline points="86.5,50.5,84.0,55.5,71.0,60.5,71.5,56.0,63.5,51.0,55.5,44.0,42.5,48.0,34.5,52.0" stroke="black" stroke-width="2" fill="none" />
<polyline points="36.0,64.0,44.0,67.5,54.0,55.5" stroke="black" stroke-width="2" fill="none" />
<polyline points="59.5,64.5,68.0,67.5" stroke="black" stroke-width="2" fill="none" />
<polyline points="45.5,64.5,44.5,60.5,37.5,56.0,28.0,58.0,33.0,56.0,25.5,60.5,25.5,62.5" stroke="black" stroke-width="2" fill="none" />
<polyline points="23.0,74.5,17.0,81.0,17.5,71.5,9.5,69.5" stroke="black" stroke-width="2" fill="none" />
<polyline points="10.5,72.5,16.5,85.5,19.5,87.0,28.0,91.0,31.5,103.0,25.5,108.0,19.5,116.5,19.0,121.5,16.0,131.5,13.0,129.5,17.0,124.5" stroke="black" stroke-width="2" fill="none" />
<polyline points="12.0,119.0,4.0,123.0" stroke="black" stroke-width="2" fill="none" />
<polyline points="3.0,120.5,7.0,116.5,15.0,113.5,21.0,113.0,29.5,109.5,37.5,104.5,45.5,101.0,54.5,89.0,65.0,80.0" stroke="black" stroke-width="2" fill="none" />
<polyline points="67.0,71.0,58.0,72.0,68.5,76.5,64.5,65.5,56.5,63.0,65.5,61.0,69.5,56.0,63.5,53.0,71.5,39.0,74.5,31.0,74.5,27.0,72.5,25.5,67.5,22.5,60.5,22.0,57.0,17.0,53.0,17.5,58.5,18.0,62.5,10.5,64.5,9.5,63.5,13.5,54.5,19.0,54.0,12.0,36.0,20.0,31.5,25.0,28.5,22.5,36.5,14.0,30.0,11.5,25.0,3.5,25.0,2.5" stroke="black" stroke-width="2" fill="none" />
<polyline points="34.0,6.5,37.0,12.5,29.0,20.5" stroke="black" stroke-width="2" fill="none" />
<polyline points="16.5,28.5,13.5,16.0,11.0,17.0,15.0,16.5,5.0,8.5" stroke="black" stroke-width="2" fill="none" />
<polyline points="4.5,12.5,12.5,15.5,17.5,19.5,18.0,31.5,22.5,33.5,22.5,42.5,27.5,40.5,35.5,36.5,42.5,32.5,50.0,21.0,55.0,26.0,63.0,23.0,71.5,21.0,79.5,18.5,86.0,18.5,94.0,16.5,104.0,13.0,111.5,11.0,119.5,8.0,128.0,9.5,130.0,3.5,136.0,7.5" stroke="black" stroke-width="2" fill="none" />
<polyline points="99.5,1.0,100.5,9.0,104.0,16.0,103.0,24.0,104.0,32.5,104.0,40.5,105.0,48.5,106.5,57.5,106.5,65.5,101.5,69.0,107.5,79.0,98.0,86.0,86.0,94.5,80.5,102.5,71.0,106.5,60.5,110.5,59.5,120.5,58.5,127.5,66.5,119.5,74.0,108.5,77.0,94.5,85.0,90.5,94.5,87.5,103.5,83.5,115.5,76.0,120.5,75.5,126.5,64.5,135.5,65.5,137.5,68.5,145.0,65.0,153.5,61.0,161.0,58.0,169.5,55.0,177.5,52.0,185.0,54.5,187.0,49.5,195.0,46.5,198.0,48.0,205.5,53.0,207.5,44.5,210.5,47.5,212.5,42.5,217.5,38.0,225.5,35.0,226.5,31.0,224.0,40.0,231.5,32.0,236.5,39.5,239.5,44.5,245.0,53.0,255.0,47.0" stroke="black" stroke-width="2" fill="none" />
<polyline points="100.0,58.5,87.0,61.5,79.0,63.5,69.0,63.0,61.0,61.0,54.0,63.0,53.0,64.0,54.0,56.0,58.5,48.5,64.0,42.5,55.5,42.5,51.5,34.5" stroke="black" stroke-width="2" fill="none" />
<polyline points="33.5,34.0,25.5,37.0,17.5,39.0,9.5,41.0,5.5,43.0,2.5,49.0" stroke="black" stroke-width="2" fill="none" />
<polyline points="2.5,27.5,12.0,33.5,10.0,41.5,4.5,41.5,11.5,51.5,17.5,53.5,21.5,61.5,24.5,63.5,18.5,68.5,22.0,70.0,12.0,74.5,14.0,75.5,3.0,81.5,5.0,79.5,8.5,82.5,9.5,90.5,11.5,93.5,3.0,101.0,13.0,102.0,21.0,109.0,9.0,116.5,3.5,125.0,7.5,134.0,3.0,142.0" stroke="black" stroke-width="2" fill="none" />
<polyline points="3.0,94.0,4.0,105.0,6.0,100.5,18.0,96.5,22.5,107.5,31.0,104.5,33.5,98.5,42.5,104.5,51.0,98.5,58.0,98.5,58.5,87.5,65.5,92.5" stroke="black" stroke-width="2" fill="none" />
<polyline points="46.5,86.5,47.0,78.0" stroke="black" stroke-width="2" fill="none" />
<polyline points="93.5,66.0,96.5,64.5,92.5,53.5,86.5,52.5,85.5,44.0,86.5,36.5,75.0,40.5,73.0,37.5,75.5,29.5" stroke="black" stroke-width="2" fill="none" />
<polyline points="92.0,9.5,86.0,7.5,77.0,6.5,73.0,13.5,86.5,9.5,89.5,1.5" stroke="black" stroke-width="2" fill="none" />
<polyline points="86.0,1.0,84.0,9.0,76.0,23.0,52.0,27.0,47.0,36.0,48.0,35.0,55.5,29.0,59.5,34.5,67.5,33.5,69.5,35.5,80.0,33.5,86.5,42.5,94.5,33.5,105.5,41.0,113.5,38.5,115.5,41.0,130.0,42.0,139.0,34.5,150.0,25.5,159.5,11.5,165.5,9.5,173.5,5.5" stroke="black" stroke-width="2" fill="none" />
<polyline points="97.5,1.5,97.5,9.5,89.5,11.5,99.0,19.5,100.0,27.5,101.0,35.5,98.5,43.5,101.5,46.5,103.0,54.5,103.0,62.5,104.0,70.5,105.0,78.5,88.0,86.5,78.0,90.0,61.0,94.0,57.0,101.0,54.5,109.0,57.5,113.0,56.5,121.0,58.5,129.5,58.5,137.5,59.5,145.5,60.5,153.5,61.5,161.5,67.0,165.5,69.0,167.5,62.0,173.5,55.5,181.5,62.5,183.5,62.5,186.5,63.5,195.0,66.0,203.0,67.0,211.0,71.5,219.0,69.5,227.0,73.0,228.0,61.0,236.5,63.0,239.5,50.0,244.0,38.0,252.5,35.0,256.0,29.0,266.5,32.0,262.5,36.0,251.5,44.5,243.5,47.0,245.5,55.0,239.5,62.5,233.5,62.0,229.5,65.0,236.5,72.5,233.5" stroke="black" stroke-width="2" fill="none" />
<polyline points="46.5,120.0,43.5,118.0,42.5,124.5,47.0,116.5,53.0,114.5,52.0,106.0,48.5,106.0,53.5,98.0,53.0,90.0,52.0,82.0,51.0,74.5,50.0,70.0,49.0,62.0,47.5,54.0,45.0,45.0,41.0,43.0,43.0,29.5,49.0,22.0,42.0,18.0,41.0,10.0,39.5,2.0" stroke="black" stroke-width="2" fill="none" />
</svg>