<svg xmlns="http://www.w3.org/2000/svg" version="1.1"><polyline points="257.5,62.0,246.5,70.5,236.0,78.0,227.0,85.5,220.0,93.0,210.5,100.5,206.5,108.5,201.0,115.5,208.0,124.5,216.0,118.5,224.0,116.5,232.0,115.5,240.0,115.5,247.5,117.0,255.0,119.5,262.5,122.5,270.5,126.0,278.0,125.0,286.0,127.5,294.0,130.5,302.0,136.0,310.0,142.0,318.0,150.0" stroke="black" stroke-width="2" fill="none" />
<polyline points="323.0,140.0,331.0,138.0" stroke="black" stroke-width="2" fill="none" />
<polyline points="337.0,134.0,334.5,126.0,331.0,119.0,329.5,116.5,329.0,116.5" stroke="black" stroke-width="2" fill="none" />
<polyline points="328.5,114.0,336.5,113.0,344.5,112.5,352.5,113.5,360.5,117.5,368.5,116.5,376.5,115.5,384.5,114.5,392.5,114.0,399.5,116.0,407.5,115.5,415.5,113.0,423.5,112.5" stroke="black" stroke-width="2" fill="none" />
<polyline points="423.5,116.5,430.5,125.0,438.5,130.0,433.5,134.0,441.5,131.0" stroke="black" stroke-width="2" fill="none" />
<polyline points="430.0,134.0,422.0,134.0,414.5,130.5,406.5,131.0,398.5,135.0,390.5,134.0,382.5,135.0,374.5,135.5,366.0,136.5,357.5,137.0,350.0,137.0,342.0,138.5,333.5,135.5,331.5,127.5,327.0,122.0" stroke="black" stroke-width="2" fill="none" />
<polyline points="317.5,127.0,325.5,125.0,333.5,132.5" stroke="black" stroke-width="2" fill="none" />
<polyline points="317.5,137.5,324.5,143.0,322.5,151.0,324.0,159.0,326.5,167.0,327.0,175.0,329.5,183.0,332.0,191.0,333.0,199.0,332.5,207.0,332.5,215.0,331.5,223.5,330.5,231.0,329.0,239.0,327.0,247.0,324.5,255.0,321.5,262.5,317.0,270.5,311.0,278.5,302.5,286.0,291.0,287.0,299.5,283.0,307.5,278.0,315.5,269.0,323.0,251.0" stroke="black" stroke-width="2" fill="none" />
<polyline points="323.5,272.5,327.0,276.5,323.0,285.5" stroke="black" stroke-width="2" fill="none" />
<polyline points="316.0,294.5,324.0,295.0,332.0,295.0,340.0,295.5,348.0,297.0,356.0,297.5,364.0,298.0,372.5,298.5,380.5,298.5,388.5,299.0,396.5,299.0,404.5,298.5,412.5,298.0,421.0,296.5,429.0,296.0,437.0,295.0" stroke="black" stroke-width="2" fill="none" />
<polyline points="413.0,271.0,419.0,269.5,413.5,260.0,413.0,252.5,415.0,252.5,416.0,249.0" stroke="black" stroke-width="2" fill="none" />
<polyline points="411.5,257.0,400.0,252.0,394.5,255.0,389.5,261.5,397.5,255.5,391.5,249.5,393.0,241.5,395.5,233.0,403.5,219.0,395.5,213.5,389.5,213.5,392.0,204.5,398.0,192.5,395.5,184.0,401.5,182.0,397.5,178.0,394.0,170.0,397.0,169.0,397.0,161.0,389.5,158.0,394.0,149.5,400.0,142.5,404.0,134.0,408.0,133.0,407.0,134.0" stroke="black" stroke-width="2" fill="none" />
<polyline points="408.5,138.5,416.5,137.5" stroke="black" stroke-width="2" fill="none" />
<polyline points="423.0,144.0,427.0,152.0,430.0,163.5,421.0,169.5,418.0,173.0" stroke="black" stroke-width="2" fill="none" />
<polyline points="416.0,166.5,413.5,167.5,420.5,160.0,417.5,152.5" stroke="black" stroke-width="2" fill="none" />
<polyline points="427.5,149.5,433.0,157.5" stroke="black" stroke-width="2" fill="none" />
<polyline points="428.5,152.0,426.5,149.5,424.0,144.5,418.0,142.0,411.0,142.5,402.5,144.0,390.0,150.0,381.5,150.5,373.5,152.0,369.5,147.0,361.0,146.5,353.0,144.5" stroke="black" stroke-width="2" fill="none" />
<polyline points="348.5,141.0,356.0,141.0,363.5,141.0,371.5,141.0,380.0,146.0,388.0,146.0" stroke="black" stroke-width="2" fill="none" />
<polyline points="372.5,153.5,364.0,154.5" stroke="black" stroke-width="2" fill="none" />
<polyline points="358.5,150.5,366.5,149.5,373.0,159.5,385.0,154.0" stroke="black" stroke-width="2" fill="none" />
<polyline points="389.5,178.5,397.5,179.0,402.5,181.0,410.5,183.0" stroke="black" stroke-width="2" fill="none" />
<polyline points="407.0,195.5,405.0,186.5,397.0,193.5" stroke="black" stroke-width="2" fill="none" />
<polyline points="390.5,206.0,398.5,206.0,398.0,213.0,408.0,203.0" stroke="black" stroke-width="2" fill="none" />
<polyline points="411.0,186.0,403.0,181.5,395.0,179.5" stroke="black" stroke-width="2" fill="none" />
<polyline points="377.0,197.5,380.5,188.5,378.5,188.5,378.5,179.5,384.0,178.0,392.0,171.5,390.0,164.0,394.0,155.5,400.5,153.5,395.5,154.5,388.5,165.0,391.0,166.0,389.0,162.0,383.5,163.0,375.5,162.0,372.0,164.5,364.0,163.5,364.5,155.0,352.5,156.0" stroke="black" stroke-width="2" fill="none" />
<polyline points="363.5,139.0,371.5,139.0,380.5,138.5,388.5,138.5" stroke="black" stroke-width="2" fill="none" />
<polyline points="390.5,118.0,382.0,117.5" stroke="black" stroke-width="2" fill="none" />
<polyline points="380.5,107.0,388.0,106.0" stroke="black" stroke-width="2" fill="none" />
<polyline points="377.5,94.0,385.5,92.0,393.0,90.5,400.5,91.0" stroke="black" stroke-width="2" fill="none" />
<polyline points="382.5,85.0,381.5,82.0,374.0,82.0,370.0,98.0,369.0,90.0,374.0,82.0" stroke="black" stroke-width="2" fill="none" />
<polyline points="377.5,83.0,376.5,89.0,373.5,93.0,370.5,95.5,369.0,103.0,368.5,107.0" stroke="black" stroke-width="2" fill="none" />
<polyline points="379.0,80.0,382.0,84.0,373.5,92.0,375.5,97.5,372.0,107.0,364.0,111.0,361.5,109.0,365.0,112.5,373.5,112.5,381.5,111.5,389.0,110.0,397.0,110.5,408.5,116.5,417.0,117.0,425.0,116.0,426.0,119.5,434.0,120.0" stroke="black" stroke-width="2" fill="none" />
<polyline points="433.5,168.5,425.5,176.0,417.5,181.0,425.5,176.0" stroke="black" stroke-width="2" fill="none" />
<polyline points="426.0,177.5,417.5,183.5,425.5,178.0,430.5,170.0" stroke="black" stroke-width="2" fill="none" />
<polyline points="440.0,184.5,440.0,192.5,441.0,200.5,440.5,209.0,440.0,217.5,439.5,225.5,440.5,233.0,440.0,241.0,440.0,248.5,440.0,256.5" stroke="black" stroke-width="2" fill="none" />
<polyline points="421.5,264.0,411.0,271.5,398.0,269.5,389.5,271.5,381.5,272.0,392.0,269.0,402.0,261.0,409.5,253.0,408.5,242.5,404.5,245.0" stroke="black" stroke-width="2" fill="none" />
<polyline points="398.5,252.0,403.5,253.5,405.5,261.0,407.0,268.5,402.0,269.0,405.0,270.0,401.0,275.5,396.5,278.5,399.5,283.5,407.5,283.0,415.5,283.5,423.5,283.5,431.5,283.0,439.5,281.5" stroke="black" stroke-width="2" fill="none" />
<polyline points="438.0,292.5,430.0,292.5,421.5,293.5,413.5,293.0,405.5,292.5,397.0,290.0,389.0,288.5,381.0,288.5,373.0,288.5,365.0,289.0,357.5,288.0,350.5,288.5,342.5,290.5,335.0,292.0,326.5,292.0,318.5,291.5,310.5,291.5,302.5,291.5" stroke="black" stroke-width="2" fill="none" />
<polyline points="302.0,291.0,310.0,289.0,318.0,287.0,325.5,283.0,333.5,283.0,341.0,283.0,349.0,277.0,357.0,276.0,365.0,272.5,373.0,263.5,378.0,268.5,384.5,265.5,393.0,265.0,396.0,266.0" stroke="black" stroke-width="2" fill="none" />
<polyline points="392.0,246.5,389.5,247.5,390.0,236.0,398.0,232.0" stroke="black" stroke-width="2" fill="none" />
<polyline points="398.0,235.0,390.0,238.0" stroke="black" stroke-width="2" fill="none" />
<polyline points="386.0,230.0,394.0,228.0,405.0,215.0" stroke="black" stroke-width="2" fill="none" />
<polyline points="392.0,259.0,387.0,258.5,378.5,261.0,370.0,256.0" stroke="black" stroke-width="2" fill="none" />
<polyline points="370.0,255.5,374.0,264.0,373.5,272.0,362.0,275.5,370.0,276.0,378.0,276.5,386.5,276.5,395.0,277.0" stroke="black" stroke-width="2" fill="none" />
<polyline points="389.0,284.0,381.0,282.5,372.5,282.0,364.5,282.0,356.5,282.5,349.0,281.5" stroke="black" stroke-width="2" fill="none" />
<polyline points="348.0,281.5,355.5,283.0,363.5,283.5,371.5,284.0,379.0,285.0,387.0,285.5,395.0,281.5" stroke="black" stroke-width="2" fill="none" />
<polyline points="399.5,299.0,398.0,307.0,393.5,315.0,393.5,315.0" stroke="black" stroke-width="2" fill="none" />
<polyline points="392.0,325.5,384.5,327.5" stroke="black" stroke-width="2" fill="none" />
<polyline points="379.5,310.0,388.0,309.5" stroke="black" stroke-width="2" fill="none" />
<polyline points="385.0,313.5,378.0,307.0,370.0,307.5,362.5,305.5,354.5,303.5" stroke="black" stroke-width="2" fill="none" />
<polyline points="359.5,300.5,351.5,301.5,348.5,301.0,341.0,299.0,333.0,298.5" stroke="black" stroke-width="2" fill="none" />
<polyline points="321.5,259.5,313.5,274.5,305.5,284.5,297.5,290.0,289.5,291.5,288.5,288.5,303.0,280.5,312.5,272.5,316.5,264.5,320.5,256.0,323.5,247.5,325.5,239.5,327.0,231.0,329.0,223.0,329.0,215.5,330.0,207.5,328.5,200.0,328.0,192.0,327.0,184.0,325.5,176.0,323.5,168.0,321.5,160.5,318.5,152.0,312.5,144.0,303.0,136.0,287.5,127.5,278.0,128.0" stroke="black" stroke-width="2" fill="none" />
<polyline points="280.0,128.0,288.0,132.0,296.0,139.0,304.0,147.5" stroke="black" stroke-width="2" fill="none" />
<polyline points="292.5,142.5,284.5,135.5" stroke="black" stroke-width="2" fill="none" />
<polyline points="260.0,139.5,256.0,130.5" stroke="black" stroke-width="2" fill="none" />
<polyline points="261.0,137.0,253.0,132.0,245.0,124.0,236.0,120.5,227.5,120.5,219.0,122.5,211.0,124.5,199.0,125.5,191.0,126.5,183.5,130.0,175.5,133.5,168.0,140.0,160.0,146.0,152.0,145.5,144.0,146.5,136.0,146.5,128.0,145.5" stroke="black" stroke-width="2" fill="none" />
<polyline points="126.0,124.5,134.0,121.5,141.5,121.5,142.5,118.5,154.0,118.5,161.5,118.0" stroke="black" stroke-width="2" fill="none" />
<polyline points="151.5,121.0,159.5,122.0,167.5,122.0,175.5,119.0,183.5,118.5,193.5,119.5" stroke="black" stroke-width="2" fill="none" />
<polyline points="189.0,133.5,180.0,133.5,168.5,141.5,160.5,152.5,152.5,160.5,148.0,168.5,144.0,176.5,140.5,185.0,136.5,193.0,135.5,201.5,134.5,209.5,135.5,217.5,136.0,225.5,137.0,233.5,140.0,241.5,144.0,249.0,148.0,257.0,150.5,264.5,156.0,267.0,164.0,274.0,170.5,279.0,182.5,287.0,197.0,295.0" stroke="black" stroke-width="2" fill="none" />
<polyline points="181.0,303.0,173.0,302.0" stroke="black" stroke-width="2" fill="none" />
<polyline points="162.5,339.5,171.0,340.0,179.5,339.0,187.5,338.0,196.0,338.0,204.0,338.0" stroke="black" stroke-width="2" fill="none" />
<polyline points="213.5,317.0,221.0,318.0,229.0,321.5" stroke="black" stroke-width="2" fill="none" />
<polyline points="256.5,296.5,273.5,288.0,284.5,280.5,292.5,272.5,295.5,277.5,287.5,284.5,279.5,292.5" stroke="black" stroke-width="2" fill="none" />
<polyline points="294.0,271.0,286.0,279.0,278.0,286.0,270.0,291.0,262.0,295.0,254.0,297.0,246.0,299.0,238.0,299.0,230.0,301.0,229.5,302.0,221.5,305.0,213.0,308.5,205.0,304.5,197.5,303.5,189.0,300.5,181.0,299.5,173.0,298.5,165.0,297.0,157.0,298.0,149.5,296.5,141.5,297.5,134.0,296.5" stroke="black" stroke-width="2" fill="none" />
<polyline points="129.5,293.5,137.5,293.5,145.5,293.0,154.0,293.0,162.0,293.5,170.5,294.0,178.5,294.0,186.5,294.0,195.0,295.5,203.5,296.5,211.5,297.5,219.5,299.5,227.5,296.5,235.5,296.5,243.5,296.5,251.0,295.5,259.5,293.5,267.5,290.0,275.0,286.0,283.0,279.0,290.5,271.0,289.5,272.0,281.5,279.5,270.5,288.0" stroke="black" stroke-width="2" fill="none" />
<polyline points="266.5,265.5,260.5,274.0,251.5,282.5,238.5,290.5" stroke="black" stroke-width="2" fill="none" />
<polyline points="209.5,246.5,202.0,242.5,194.0,236.0,188.5,224.5,186.5,216.5,186.5,208.5,186.5,200.5,189.5,193.0,195.5,184.5,204.5,184.5,203.5,182.5" stroke="black" stroke-width="2" fill="none" />
<polyline points="198.5,181.5,206.5,177.5,214.5,176.5,222.5,178.5,230.5,184.5" stroke="black" stroke-width="2" fill="none" />
<polyline points="232.5,197.0,225.0,194.0,223.0,196.0" stroke="black" stroke-width="2" fill="none" />
<polyline points="218.5,189.5,217.5,192.0,224.5,202.5,223.5,210.0,231.0,209.0,231.0,208.0" stroke="black" stroke-width="2" fill="none" />
<polyline points="222.5,219.5,214.5,216.0" stroke="black" stroke-width="2" fill="none" />
<polyline points="214.0,215.5,222.0,211.0,230.0,216.0,232.0,219.5" stroke="black" stroke-width="2" fill="none" />
<polyline points="219.0,224.5,215.0,224.5" stroke="black" stroke-width="2" fill="none" />
<polyline points="204.0,219.5,195.5,215.5" stroke="black" stroke-width="2" fill="none" />
<polyline points="199.0,213.5,190.5,207.5" stroke="black" stroke-width="2" fill="none" />
<polyline points="193.0,212.0,197.5,220.0" stroke="black" stroke-width="2" fill="none" />
<polyline points="202.0,208.5,198.5,200.5,200.0,192.5,194.0,191.5" stroke="black" stroke-width="2" fill="none" />
<polyline points="190.5,196.0,191.5,192.0,204.0,187.0,207.0,195.0,205.0,203.5,205.0,210.5,202.0,219.5" stroke="black" stroke-width="2" fill="none" />
<polyline points="216.0,210.0,215.0,218.5,215.5,227.5,216.0,236.0,216.0,244.0" stroke="black" stroke-width="2" fill="none" />
<polyline points="194.5,258.5,188.5,257.0,177.5,249.5,172.0,241.0,168.0,233.0,166.0,225.0,163.5,217.0,163.5,209.0,163.5,201.0,166.0,193.0,169.0,185.0,173.0,177.0,181.0,168.5,194.5,160.5,189.5,164.5" stroke="black" stroke-width="2" fill="none" />
<polyline points="191.5,164.5,182.5,172.5,175.0,180.5,170.5,188.5,167.5,196.5,166.5,205.0,166.5,212.5,167.5,220.5,169.5,228.0,173.5,236.0,178.5,244.0,189.5,252.0,193.5,248.0,197.0,252.0,204.0,250.0" stroke="black" stroke-width="2" fill="none" />
<polyline points="204.0,245.5,193.5,237.5,190.5,229.5,191.5,221.5,190.0,213.0,190.0,205.5,192.5,193.5,193.5,187.0,185.0,201.5" stroke="black" stroke-width="2" fill="none" />
<polyline points="178.5,197.5,186.5,183.5,194.5,176.5,202.5,174.0,211.0,173.5,219.5,174.0" stroke="black" stroke-width="2" fill="none" />
<polyline points="217.0,177.0,230.0,185.0,236.0,193.0,235.0,206.0" stroke="black" stroke-width="2" fill="none" />
<polyline points="242.5,181.0,234.5,169.0,226.5,162.5,218.5,158.5" stroke="black" stroke-width="2" fill="none" />
<polyline points="223.0,156.0,231.0,161.0,238.5,169.0,241.5,173.0" stroke="black" stroke-width="2" fill="none" />
<polyline points="237.5,183.0,229.5,174.5,221.5,169.0,214.0,165.5,205.0,163.0,199.5,161.0,196.5,156.0" stroke="black" stroke-width="2" fill="none" />
<polyline points="209.0,151.5,219.5,159.5,231.5,168.0,238.5,175.5,244.0,183.5,248.5,191.0,250.0,193.5" stroke="black" stroke-width="2" fill="none" />
<polyline points="243.5,189.0,235.5,174.5,228.0,165.5,220.5,160.5,212.5,157.5" stroke="black" stroke-width="2" fill="none" />
<polyline points="212.0,159.5,227.0,167.5,235.0,175.5,237.5,183.5,242.5,187.5,244.0,195.0,245.5,203.0,245.0,211.0,247.0,213.5,243.0,221.0,235.5,227.0,229.0,235.0" stroke="black" stroke-width="2" fill="none" />
<polyline points="229.0,189.0,221.0,188.0,219.0,193.0,209.5,195.0,208.5,191.0,200.0,186.5" stroke="black" stroke-width="2" fill="none" />
<polyline points="202.0,173.5,189.0,181.5,183.0,189.5,179.0,197.5,178.0,205.0,178.0,213.0,179.0,221.0,182.5,229.0,187.5,237.5,192.0,244.5,196.5,252.5" stroke="black" stroke-width="2" fill="none" />
<polyline points="223.0,259.0,228.0,250.0,234.5,247.5,241.5,240.0,245.5,232.0,247.5,224.0,248.5,216.5,248.0,208.5,247.0,200.5,245.5,192.5,237.5,190.0,230.0,182.0,225.0,175.0,217.0,172.0,209.0,171.0,201.0,172.5,193.0,176.0,185.0,182.5,177.0,199.5" stroke="black" stroke-width="2" fill="none" />
<polyline points="168.0,200.0,170.0,199.0,167.0,204.0,169.0,212.0,169.5,220.0,170.0,236.5,178.5,248.5,186.5,254.5,194.5,256.0,202.5,257.0,210.5,257.0,219.0,255.0,227.0,251.0" stroke="black" stroke-width="2" fill="none" />
<polyline points="228.0,243.5,220.0,247.5,212.5,249.0,204.5,247.5,196.5,244.5,188.0,237.0,180.0,223.0" stroke="black" stroke-width="2" fill="none" />
<polyline points="178.0,227.0,180.5,235.0" stroke="black" stroke-width="2" fill="none" />
<polyline points="170.0,232.0,178.0,242.0,186.0,250.5,194.5,254.5,202.0,256.5,210.0,256.5,218.0,254.0,226.0,249.0,234.0,241.0,239.0,226.0,235.0,234.0,234.0,245.0" stroke="black" stroke-width="2" fill="none" />
<polyline points="272.5,236.0,264.5,255.0,256.5,266.0,249.0,274.0,240.5,280.5,232.5,284.5,224.5,287.5,216.5,289.5,208.5,290.0,200.5,290.0,192.5,289.0,176.0,280.5,164.0,272.5,155.0,264.0,149.5,256.5,146.0,248.5,142.0,240.5,140.0,232.5,138.0,224.5,137.0,216.0,137.0,208.0,137.0,200.0,139.0,192.0,138.0,183.0,141.5,175.0,146.0,167.0,152.0,159.0,158.5,151.0,161.0,144.5,171.5,136.5,185.5,128.0,179.0,137.0" stroke="black" stroke-width="2" fill="none" />
<polyline points="184.5,139.5,168.5,147.5,173.0,139.5,181.0,134.5,189.5,131.5,197.5,130.0,205.5,129.0,213.5,129.0,215.5,129.0,223.5,128.0,232.0,129.0,235.5,124.0,244.5,122.0,253.0,125.0,261.0,126.5,269.0,130.5,276.5,131.5,282.5,136.5,282.0,138.5,290.5,147.0,298.5,157.0,306.5,163.0,308.0,175.0" stroke="black" stroke-width="2" fill="none" />
<polyline points="305.0,170.0,300.5,162.0,295.0,154.0,287.5,146.5,279.5,138.5,266.5,131.0,257.5,124.0,249.5,130.5,242.0,129.5" stroke="black" stroke-width="2" fill="none" />
<polyline points="238.0,131.0,246.0,135.0,254.0,141.5,262.0,148.5,270.0,160.0" stroke="black" stroke-width="2" fill="none" />
<polyline points="275.5,170.0,271.5,162.0,266.5,154.0,259.5,146.0,251.0,138.0,239.0,130.0,234.0,124.0,225.5,123.0" stroke="black" stroke-width="2" fill="none" />
<polyline points="228.0,130.0,243.5,138.5,252.0,147.5,261.5,155.5,266.0,163.5,270.0,171.5,274.0,179.5,276.0,187.0,278.0,195.0,279.5,202.5,279.5,211.0,280.0,219.0,278.5,227.0,276.5,235.0,275.0,243.5,272.0,251.5,267.0,259.5,261.0,267.0,251.5,275.0,242.5,283.5,233.5,291.5,241.5,289.5,250.0,284.5,258.0,279.0,266.0,270.0" stroke="black" stroke-width="2" fill="none" />
<polyline points="260.0,240.0,252.0,257.5,244.0,267.5,236.0,275.0,228.0,281.0,220.0,284.5,212.0,286.0,204.0,286.5,198.0,284.5,189.0,283.0,181.0,281.0,173.0,277.5,165.5,273.0,158.0,265.5,150.0,254.5,142.0,237.0" stroke="black" stroke-width="2" fill="none" />
<polyline points="140.5,240.0,148.5,257.0,156.5,267.0,164.0,274.0,172.0,280.0,179.5,285.5,187.5,289.0,195.5,292.0,203.5,293.0,212.0,292.5,220.5,292.5,228.5,290.5,236.0,286.5,243.5,282.5,251.5,275.0,259.5,267.5,267.5,256.0" stroke="black" stroke-width="2" fill="none" />
<polyline points="254.0,229.0,244.0,234.0,236.0,247.0,229.0,250.5,226.5,254.5,225.5,257.5,217.5,261.5,210.0,263.5,202.0,264.5,201.0,261.5,193.0,262.0,185.0,258.0,177.5,252.0,169.5,242.0,159.0,221.0,161.0,213.0,161.0,205.0,162.0,198.0,164.0,190.0,166.5,182.0,171.0,174.0,179.5,166.0,195.5,158.0,182.5,167.5,174.5,175.5,166.5,188.5" stroke="black" stroke-width="2" fill="none" />
<polyline points="168.0,195.0,176.0,179.0,183.5,170.5,191.5,167.0,200.0,165.0,208.0,164.0,216.0,164.0,223.5,167.0,231.5,172.5,245.0,178.5,253.0,181.0" stroke="black" stroke-width="2" fill="none" />
<polyline points="255.5,179.5,258.5,187.5,260.5,196.0,261.0,204.0,261.0,212.0,260.5,220.0,258.5,228.5,256.5,236.5,243.5,242.5,254.5,235.5" stroke="black" stroke-width="2" fill="none" />
<polyline points="275.0,184.5,267.0,165.5,259.5,154.5,251.5,148.5,246.0,141.0,238.0,136.0,229.5,132.5,221.5,130.5" stroke="black" stroke-width="2" fill="none" />
<polyline points="221.0,135.5,238.0,143.5,249.0,151.5,257.5,159.5,264.0,168.0,268.0,175.5,271.5,184.0,275.0,192.0,276.0,200.0,277.0,207.5,277.0,215.5,276.0,223.5,274.5,231.5,272.5,239.5,269.0,247.5,263.5,255.0,258.5,263.0,251.5,271.0,240.5,278.5" stroke="black" stroke-width="2" fill="none" />
<polyline points="191.5,243.0,183.5,239.5,177.0,230.5,175.0,226.0,172.0,219.0,171.0,216.0,173.0,208.0,168.0,203.0" stroke="black" stroke-width="2" fill="none" />
<polyline points="160.5,195.0,168.5,177.0,177.0,167.5,184.5,162.5,192.5,159.0,200.5,157.0,208.5,158.0,216.5,158.0,217.5,150.5,225.5,150.5,229.5,157.5,237.5,162.5" stroke="black" stroke-width="2" fill="none" />
<polyline points="238.5,160.5,233.5,161.5,231.0,155.0,229.0,154.5,222.5,151.0,224.0,158.5,236.5,166.5,244.0,169.5,246.0,176.5,254.0,182.5,249.5,190.0,251.5,197.5,251.5,207.0,251.5,214.0,245.5,220.5,244.0,228.5,240.0,236.5,230.5,245.5,219.5,254.0,220.5,250.0,225.5,242.0,234.5,237.0,233.5,238.0,223.0,246.0,221.0,240.5,228.5,235.5,237.0,225.5,250.0,223.5,248.5,231.5,244.5,239.0,242.5,243.0,246.5,248.0,238.5,251.5,229.5,259.5,210.5,266.5,218.5,264.5,226.5,261.5,234.5,255.5,242.5,249.0,242.5,243.0,250.5,223.5,256.5,224.0,259.5,216.5,263.0,208.5,263.0,217.0,257.5,226.0,248.0,234.5,246.5,242.5,239.5,254.5,252.5,248.5,255.5,239.0,253.5,245.0" stroke="black" stroke-width="2" fill="none" />
<polyline points="292.0,278.5,301.0,270.5" stroke="black" stroke-width="2" fill="none" />
<polyline points="289.5,141.0,280.5,133.0,271.5,129.0,263.5,125.0,255.5,122.0,247.5,120.0,239.5,119.0,231.0,119.0,223.0,119.0,215.0,121.0" stroke="black" stroke-width="2" fill="none" />
<polyline points="217.0,138.0,233.0,146.5,242.0,154.5,249.5,162.5,254.5,171.0,260.0,179.0,262.0,187.0,265.0,195.0,266.0,203.0,267.0,210.5,266.0,218.5,265.0,226.5,264.0,234.5,261.0,242.5,257.0,251.0,253.0,259.0,246.5,266.5,237.5,274.0,225.0,281.5,215.0,281.5" stroke="black" stroke-width="2" fill="none" />
<polyline points="162.0,236.5,162.0,228.5,160.5,223.5,159.0,218.5,155.0,209.5,156.0,201.5,157.0,193.5,160.0,185.5,164.0,177.5,170.0,169.5,178.5,161.5,189.5,156.5,182.0,160.5,174.0,165.5,166.0,174.0,158.5,190.0" stroke="black" stroke-width="2" fill="none" />
<polyline points="147.5,190.5,155.5,171.5,164.0,159.5,172.5,151.0,181.0,145.5,189.0,141.5,196.5,139.0" stroke="black" stroke-width="2" fill="none" />
<polyline points="190.0,141.0,175.0,149.0,166.0,156.5,160.0,164.0,155.0,172.0,152.0,180.0,149.0,187.5,147.0,195.5,146.0,203.0,146.0,211.0,145.5,219.0,147.5,227.5,149.5,235.5,153.0,243.5,157.0,251.5,162.5,260.0,168.5,268.0,179.0,276.5" stroke="black" stroke-width="2" fill="none" />
<polyline points="205.5,283.5,197.0,282.5,189.0,281.5,181.0,279.0,173.5,274.0,166.0,263.5,157.5,252.0,149.5,235.0" stroke="black" stroke-width="2" fill="none" />
<polyline points="162.5,229.5,166.5,237.5,171.5,245.5,175.0,254.0,180.5,255.5" stroke="black" stroke-width="2" fill="none" />
<polyline points="156.5,276.5,157.0,273.5,146.0,272.5,138.0,273.0,136.5,275.0" stroke="black" stroke-width="2" fill="none" />
<polyline points="132.0,282.0,139.5,281.0,147.5,281.0,156.0,282.0,164.0,281.5,172.0,282.5" stroke="black" stroke-width="2" fill="none" />
<polyline points="171.5,287.0,163.0,286.5,155.0,285.5,146.5,285.5,138.5,285.5,130.5,284.0" stroke="black" stroke-width="2" fill="none" />
<polyline points="140.5,184.0,148.0,166.0" stroke="black" stroke-width="2" fill="none" />
<polyline points="138.5,183.0,146.5,165.5,154.5,154.0,162.5,147.0" stroke="black" stroke-width="2" fill="none" />
<polyline points="189.5,134.5,197.5,133.5,205.0,132.5,213.0,133.5,221.0,134.5,229.0,137.5,237.0,141.5,245.5,146.5,253.5,153.5,261.5,162.5,269.5,176.5" stroke="black" stroke-width="2" fill="none" />
<polyline points="237.0,190.0,229.0,181.0,215.5,172.5" stroke="black" stroke-width="2" fill="none" />
<polyline points="215.5,166.5,229.5,174.5,240.5,188.5" stroke="black" stroke-width="2" fill="none" />
<polyline points="216.5,164.0,230.5,172.0,237.5,180.5,240.0,188.5,243.0,196.5,244.0,204.5,237.0,212.5,229.0,222.5,225.0,228.0,223.0,236.5" stroke="black" stroke-width="2" fill="none" />
<polyline points="191.5,243.0,180.5,240.0,175.0,232.0,173.0,224.0,175.5,218.0,174.5,210.0,175.5,202.0,177.0,195.5,180.5,187.0,187.0,179.0,199.0,170.5" stroke="black" stroke-width="2" fill="none" />
<polyline points="208.5,147.0,216.5,148.0" stroke="black" stroke-width="2" fill="none" />
<polyline points="250.5,118.0,271.0,126.0,279.5,133.5,289.5,133.5,298.0,141.5,305.0,149.0,303.5,156.5,304.5,152.0,307.5,159.0" stroke="black" stroke-width="2" fill="none" />
<polyline points="289.0,90.5,280.5,88.0" stroke="black" stroke-width="2" fill="none" />
<polyline points="289.5,80.5,290.5,72.5,296.5,67.5,288.5,74.5" stroke="black" stroke-width="2" fill="none" />
<polyline points="298.5,77.0,303.5,70.0" stroke="black" stroke-width="2" fill="none" />
<polyline points="302.0,58.0,310.0,58.0,311.5,63.5,307.5,66.0,298.5,71.5,292.5,79.5,293.5,78.5,297.5,78.5,300.5,73.5,303.0,62.0,308.0,68.0,317.0,68.0,325.0,67.0" stroke="black" stroke-width="2" fill="none" />
<polyline points="307.5,111.5,299.5,97.0,291.0,88.0,283.5,74.5,275.5,61.5,266.5,63.5,259.0,61.0,250.5,64.0,242.5,70.5,234.5,77.5,226.5,84.5,218.5,94.0,210.0,97.0,202.0,108.5,194.0,108.5,186.0,108.5,177.0,102.5,169.0,110.5,161.0,110.5,153.0,109.5,145.5,108.5,140.0,117.5,141.0,109.5" stroke="black" stroke-width="2" fill="none" />
<polyline points="129.5,121.0,127.5,129.0,127.0,137.0,124.0,145.5,116.5,151.5,116.0,151.5,118.0,153.0,131.0,154.5,139.0,154.5,152.0,159.5,160.0,151.5,168.0,144.5,176.0,141.0,184.0,138.5,192.0,137.0,200.0,137.5,201.5,135.5,209.5,136.5,217.5,138.5,225.5,141.5,233.5,145.5,241.5,152.5,249.0,161.5,257.0,173.5" stroke="black" stroke-width="2" fill="none" />
<polyline points="224.5,92.0,232.5,90.0,240.5,91.5,245.5,85.5,254.5,81.0,261.0,79.0,263.0,81.0" stroke="black" stroke-width="2" fill="none" />
<polyline points="260.0,72.0,260.5,69.0,253.0,78.5,256.5,78.5,254.5,76.0,261.5,68.0" stroke="black" stroke-width="2" fill="none" />
<polyline points="276.0,62.5,281.0,70.0,285.5,78.0,290.5,86.5,297.0,94.5,304.0,102.5,308.0,111.0,310.5,119.0,313.5,126.5,316.5,134.5,318.5,142.0,328.0,151.0,330.0,159.5,333.0,167.5,334.0,175.5,336.0,180.5,337.0,188.5,337.5,197.0" stroke="black" stroke-width="2" fill="none" />
<polyline points="442.0,195.0,442.5,187.0" stroke="black" stroke-width="2" fill="none" />
<polyline points="195.5,95.5,188.0,95.5,187.0,100.0" stroke="black" stroke-width="2" fill="none" />
<polyline points="204.0,111.0,196.0,116.0,188.0,116.5,180.0,119.5,169.0,119.5,170.0,111.5" stroke="black" stroke-width="2" fill="none" />
<polyline points="127.5,170.0,127.5,177.5,125.5,185.5" stroke="black" stroke-width="2" fill="none" />
<polyline points="118.0,172.5,117.0,175.5,114.0,174.5,115.5,166.5,115.5,163.5" stroke="black" stroke-width="2" fill="none" />
<polyline points="117.5,166.0,118.5,174.0" stroke="black" stroke-width="2" fill="none" />
</svg>