<svg xmlns="http://www.w3.org/2000/svg" version="1.1"><polyline points="59.0,54.0,66.0,62.0,72.0,69.0,70.5,76.0,62.0,83.0,67.5,82.5,75.5,79.0,83.0,85.5" stroke="black" stroke-width="2" fill="none" />
<polyline points="89.0,87.0,90.5,74.5,90.0,69.5,98.5,61.5,97.5,63.0,90.0,69.5,92.0,70.5" stroke="black" stroke-width="2" fill="none" />
<polyline points="93.0,69.0,101.0,65.0,109.0,64.5,104.0,69.0,106.0,75.0,106.0,83.0,106.5,90.0,101.0,90.5,97.5,102.0,98.5,110.0,94.5,112.5" stroke="black" stroke-width="2" fill="none" />
<polyline points="97.5,103.0,89.5,101.0" stroke="black" stroke-width="2" fill="none" />
<polyline points="91.5,100.0,86.5,108.0,91.5,105.5" stroke="black" stroke-width="2" fill="none" />
<polyline points="101.0,98.0,106.0,96.5,107.5,100.5,115.5,97.0,123.5,95.0" stroke="black" stroke-width="2" fill="none" />
<polyline points="113.5,90.5,119.5,87.5,119.5,95.5,122.0,96.5,116.0,111.0,120.0,120.0,128.0,130.0,135.5,132.5,142.5,132.5,148.0,133.5,148.0,141.5,140.0,144.5,148.0,141.0,153.0,148.0,157.5,156.5,162.5,165.5" stroke="black" stroke-width="2" fill="none" />
<polyline points="165.5,166.5,166.5,160.5,161.5,152.5,161.5,144.0,153.5,145.0" stroke="black" stroke-width="2" fill="none" />
<polyline points="138.0,154.0,130.0,153.0" stroke="black" stroke-width="2" fill="none" />
<polyline points="125.0,164.5,133.5,165.5" stroke="black" stroke-width="2" fill="none" />
<polyline points="134.0,183.0,123.0,191.5,133.0,191.5" stroke="black" stroke-width="2" fill="none" />
<polyline points="139.0,184.0,136.0,192.0,141.5,194.0,146.5,202.0,137.5,207.5,132.5,208.5,131.5,209.5,137.5,205.5,146.0,200.5,148.0,195.5" stroke="black" stroke-width="2" fill="none" />
<polyline points="149.5,205.0,158.0,204.0,155.5,208.0,159.5,208.5,158.5,211.0" stroke="black" stroke-width="2" fill="none" />
<polyline points="163.0,218.0,155.0,220.0" stroke="black" stroke-width="2" fill="none" />
<polyline points="157.0,225.5,156.0,233.5" stroke="black" stroke-width="2" fill="none" />
<polyline points="156.5,226.0,148.5,228.0,151.0,232.0,154.0,235.0,165.0,234.0,173.5,229.5,180.5,235.0" stroke="black" stroke-width="2" fill="none" />
<polyline points="162.5,226.0,170.5,226.0,162.5,239.0,160.5,247.0,155.0,252.0,153.5,258.5,156.0,253.5" stroke="black" stroke-width="2" fill="none" />
<polyline points="169.0,266.0,177.0,261.5,185.0,264.0,184.0,263.0,188.5,269.0,188.0,276.5,189.0,284.5,175.0,292.5,171.0,300.0,175.0,291.5,183.0,286.5,191.0,285.5,199.0,288.5,203.0,287.0,204.0,289.0" stroke="black" stroke-width="2" fill="none" />
<polyline points="201.5,298.5,209.5,299.5,212.5,301.5,203.0,304.0,215.0,308.0,217.5,316.0,216.5,329.0,202.5,335.5,197.5,336.5,189.5,344.5,191.5,354.5,187.5,362.5,179.5,368.5,176.0,376.5,174.5,386.5,175.0,394.5,181.5,400.0,185.5,401.5,188.5,409.5,199.0,413.0,189.5,422.0,191.0,429.5,192.5,428.5,204.5,426.0,212.5,427.5,225.0,419.5,233.5,412.5,240.5,409.5,248.0,409.5,249.5,407.5,253.5,406.5,258.5,408.5,266.5,417.0,276.0,423.0,286.0,424.0,294.0,422.5,302.0,416.5,302.0,416.5,299.0,423.5,302.0,428.0,306.0,423.0,314.0,424.0,322.5,424.0" stroke="black" stroke-width="2" fill="none" />
<polyline points="317.0,425.5,325.5,429.5" stroke="black" stroke-width="2" fill="none" />
<polyline points="336.0,429.0,337.0,421.5,339.0,414.0,329.5,407.0,321.5,404.5" stroke="black" stroke-width="2" fill="none" />
<polyline points="321.5,408.5,330.0,409.0" stroke="black" stroke-width="2" fill="none" />
<polyline points="330.0,417.5,322.0,415.5" stroke="black" stroke-width="2" fill="none" />
<polyline points="318.5,414.0,326.5,415.0" stroke="black" stroke-width="2" fill="none" />
<polyline points="324.5,422.5,316.5,420.0" stroke="black" stroke-width="2" fill="none" />
<polyline points="315.0,425.5,328.0,433.5,324.0,447.5,326.0,455.0" stroke="black" stroke-width="2" fill="none" />
<polyline points="333.0,458.0,341.0,462.0,349.0,465.5,357.0,459.0" stroke="black" stroke-width="2" fill="none" />
<polyline points="360.0,449.0,351.5,456.5,357.5,452.0,356.5,443.5,352.5,442.5,344.5,439.5" stroke="black" stroke-width="2" fill="none" />
<polyline points="325.0,438.0,317.0,434.0,309.0,428.5" stroke="black" stroke-width="2" fill="none" />
<polyline points="310.0,434.0,313.5,435.0" stroke="black" stroke-width="2" fill="none" />
<polyline points="311.0,436.5,318.5,441.5" stroke="black" stroke-width="2" fill="none" />
<polyline points="316.5,439.0,308.5,435.0" stroke="black" stroke-width="2" fill="none" />
<polyline points="298.5,447.0,307.0,453.0" stroke="black" stroke-width="2" fill="none" />
<polyline points="307.5,446.0,299.5,439.0,292.0,431.5,284.0,424.0,276.0,416.0,268.0,409.0,260.0,401.5,252.5,395.5" stroke="black" stroke-width="2" fill="none" />
<polyline points="255.0,392.0,262.5,398.0,270.5,398.0,278.5,397.5,286.5,397.0,294.5,396.5,303.0,396.0,311.5,396.0,319.5,395.5,328.0,395.0,335.5,395.0,343.5,397.5" stroke="black" stroke-width="2" fill="none" />
<polyline points="353.5,405.0,361.5,409.0" stroke="black" stroke-width="2" fill="none" />
<polyline points="356.5,407.5,363.0,415.0,363.0,423.0,366.0,424.0,359.5,431.5,357.5,437.5,351.5,447.5,352.5,455.5,360.5,454.5,355.0,463.0" stroke="black" stroke-width="2" fill="none" />
<polyline points="336.5,465.0,334.5,469.0,326.5,475.0,323.5,483.0,329.0,479.5,332.0,473.5,338.0,465.5,334.5,458.0" stroke="black" stroke-width="2" fill="none" />
<polyline points="314.0,477.0,322.0,481.0,334.5,479.0,331.0,487.0,327.0,495.0,325.0,503.0,322.0,511.0,320.0,519.0" stroke="black" stroke-width="2" fill="none" />
<polyline points="322.5,506.5,330.5,487.0" stroke="black" stroke-width="2" fill="none" />
<polyline points="312.0,490.0,313.5,481.5,311.5,479.0" stroke="black" stroke-width="2" fill="none" />
<polyline points="313.5,488.0,306.0,489.0,298.0,488.0" stroke="black" stroke-width="2" fill="none" />
<polyline points="301.0,486.5,302.0,494.5,296.5,495.5,304.0,500.5,303.0,508.5,301.0,516.5" stroke="black" stroke-width="2" fill="none" />
<polyline points="293.5,538.0,285.5,537.5,277.5,535.5" stroke="black" stroke-width="2" fill="none" />
<polyline points="267.5,529.0,281.0,541.0,289.0,541.5,298.0,540.5" stroke="black" stroke-width="2" fill="none" />
<polyline points="277.0,517.5,269.0,516.5" stroke="black" stroke-width="2" fill="none" />
<polyline points="268.5,527.0,276.5,527.0,280.5,517.0" stroke="black" stroke-width="2" fill="none" />
<polyline points="282.0,506.5,268.5,505.5,255.0,511.5,251.0,514.5,242.5,514.5,234.5,516.0" stroke="black" stroke-width="2" fill="none" />
<polyline points="235.0,504.5,243.0,505.5,243.0,509.0,253.0,511.0" stroke="black" stroke-width="2" fill="none" />
<polyline points="251.0,517.0,242.5,519.0,234.5,519.5,226.5,521.0,221.0,524.5,237.0,522.5,234.0,531.0,226.0,531.0" stroke="black" stroke-width="2" fill="none" />
<polyline points="228.0,533.0,236.0,535.5,238.5,538.5,233.5,546.5,238.5,538.5,246.5,541.5,250.0,538.0,258.0,541.0,263.5,542.0,270.5,555.0,264.5,562.5,263.5,569.5,262.5,577.5,262.5,577.0" stroke="black" stroke-width="2" fill="none" />
<polyline points="261.5,585.0,253.5,582.0" stroke="black" stroke-width="2" fill="none" />
<polyline points="246.0,582.5,237.5,586.5,229.0,589.0,221.0,592.0" stroke="black" stroke-width="2" fill="none" />
<polyline points="225.5,586.5,221.0,594.5,223.5,600.5,231.0,590.5,239.5,594.0,242.5,602.5,251.0,594.5,259.0,595.0" stroke="black" stroke-width="2" fill="none" />
<polyline points="268.5,608.0,277.0,603.5,281.0,609.5,290.0,602.0,299.0,602.0,304.5,609.0,310.0,604.0,319.0,600.5,327.0,598.5,332.0,597.5,341.5,588.5,349.5,586.5,357.0,583.5,359.0,587.0" stroke="black" stroke-width="2" fill="none" />
<polyline points="363.5,579.0,360.0,574.0,355.5,576.0,357.5,572.0,364.0,564.0,360.5,557.0,362.5,549.0,362.0,544.5,366.5,534.5,363.5,528.5,372.5,520.0,376.5,523.0" stroke="black" stroke-width="2" fill="none" />
<polyline points="375.0,520.5,383.0,517.0,391.0,518.5,399.5,521.5" stroke="black" stroke-width="2" fill="none" />
<polyline points="396.5,524.0,388.5,526.0,389.0,524.0,381.0,524.0" stroke="black" stroke-width="2" fill="none" />
<polyline points="384.5,517.5,373.0,525.5,376.0,517.5,380.0,514.0,388.0,511.0,392.0,508.0,398.5,508.0,402.0,497.0,408.0,500.0" stroke="black" stroke-width="2" fill="none" />
<polyline points="413.5,502.0,409.5,494.0" stroke="black" stroke-width="2" fill="none" />
<polyline points="392.0,495.0,405.0,494.0,396.0,502.0,392.5,503.0,375.0,508.0,372.5,516.0,365.0,518.0,362.0,526.0,362.0,534.0,352.0,542.0,350.0,547.0,356.0,545.0,364.0,543.5,366.0,546.5,378.0,547.5,379.0,541.5,391.0,536.5,401.0,537.5,409.0,537.0,417.0,537.0" stroke="black" stroke-width="2" fill="none" />
<polyline points="410.0,540.5,420.0,540.5,422.5,547.0" stroke="black" stroke-width="2" fill="none" />
<polyline points="450.0,532.0,452.5,524.0,453.5,516.5,456.0,508.5,457.0,500.0,459.0,492.0,461.0,484.0,462.0,476.0,455.0,474.0" stroke="black" stroke-width="2" fill="none" />
<polyline points="469.0,486.0,472.0,481.0,468.5,488.5,466.5,496.5,465.5,504.0,464.0,512.5,462.0,520.0,460.0,527.5" stroke="black" stroke-width="2" fill="none" />
<polyline points="495.0,478.5,486.5,470.5" stroke="black" stroke-width="2" fill="none" />
<polyline points="487.5,471.0,493.5,479.0" stroke="black" stroke-width="2" fill="none" />
<polyline points="454.5,461.5,446.5,456.0" stroke="black" stroke-width="2" fill="none" />
<polyline points="452.0,449.0,444.0,457.5,445.0,457.0,453.0,449.0" stroke="black" stroke-width="2" fill="none" />
<polyline points="450.5,421.5,448.0,419.5,439.5,417.5,439.5,409.5,434.5,405.0,438.0,413.5" stroke="black" stroke-width="2" fill="none" />
<polyline points="438.0,399.0,446.0,401.0,453.0,406.0" stroke="black" stroke-width="2" fill="none" />
<polyline points="459.0,392.0,451.0,385.5" stroke="black" stroke-width="2" fill="none" />
<polyline points="458.0,375.0,466.0,387.0" stroke="black" stroke-width="2" fill="none" />
<polyline points="453.5,389.5,448.0,407.0,452.0,402.0,444.0,403.0,443.0,397.5,453.5,390.5,447.5,389.5,445.5,382.0,443.5,374.5,443.5,372.5" stroke="black" stroke-width="2" fill="none" />
<polyline points="457.5,369.0,459.5,377.0,464.5,385.0,467.0,393.0,473.5,393.5" stroke="black" stroke-width="2" fill="none" />
<polyline points="500.5,352.0,492.5,345.0" stroke="black" stroke-width="2" fill="none" />
<polyline points="493.5,346.5,501.5,354.0" stroke="black" stroke-width="2" fill="none" />
<polyline points="494.5,304.5,491.0,300.5,482.0,285.5,474.0,279.0" stroke="black" stroke-width="2" fill="none" />
<polyline points="476.0,278.0,479.0,286.0,491.5,291.0,495.5,299.0,495.5,306.5" stroke="black" stroke-width="2" fill="none" />
<polyline points="473.0,290.5,475.0,293.5,478.0,301.0,478.0,312.0,482.5,325.5,487.5,333.5" stroke="black" stroke-width="2" fill="none" />
<polyline points="470.5,322.0,462.5,312.5" stroke="black" stroke-width="2" fill="none" />
<polyline points="463.5,311.5,469.0,319.5,463.0,327.5,465.0,335.5,470.0,345.5,474.5,354.5,466.0,360.5,468.0,363.5,478.0,355.5" stroke="black" stroke-width="2" fill="none" />
<polyline points="455.5,336.5,447.5,326.0" stroke="black" stroke-width="2" fill="none" />
<polyline points="447.5,325.5,449.5,333.5,455.5,341.5,460.5,349.5,463.5,351.5" stroke="black" stroke-width="2" fill="none" />
<polyline points="461.0,347.0,452.5,338.5,444.5,327.0" stroke="black" stroke-width="2" fill="none" />
<polyline points="446.5,329.0,453.5,336.5,458.5,344.5" stroke="black" stroke-width="2" fill="none" />
<polyline points="452.5,356.5,450.0,348.5,442.0,333.0" stroke="black" stroke-width="2" fill="none" />
<polyline points="464.0,296.0,468.0,304.0,472.0,311.5,481.5,317.5,490.0,334.5" stroke="black" stroke-width="2" fill="none" />
<polyline points="483.5,309.0,475.5,307.0,462.5,295.0" stroke="black" stroke-width="2" fill="none" />
<polyline points="477.0,280.0,484.0,287.5,494.0,289.5,494.0,288.5,497.5,295.0" stroke="black" stroke-width="2" fill="none" />
<polyline points="510.0,284.0,507.5,276.0,504.0,268.0" stroke="black" stroke-width="2" fill="none" />
<polyline points="506.5,192.5,499.0,196.5,491.0,199.5,482.5,203.5,474.5,208.0,467.0,213.0,458.5,217.0,450.5,218.5,442.0,221.5,434.0,224.5,426.0,227.5,418.0,231.0,410.5,234.5,402.5,237.5,394.5,240.0,386.5,242.0,378.0,244.5,369.5,246.5,361.0,249.5,353.0,251.5,345.0,253.5,337.0,256.0,329.5,259.0,322.0,262.0,314.5,263.5,303.5,259.5,298.5,259.0,293.0,257.0,285.5,257.0,277.0,256.0,274.5,262.0,266.0,261.5,263.0,258.0,267.0,255.5,259.0,261.5,251.0,263.5,242.5,265.5,235.0,267.0,227.5,266.0,219.5,266.0" stroke="black" stroke-width="2" fill="none" />
<polyline points="213.0,263.0,221.0,261.5,229.0,261.5" stroke="black" stroke-width="2" fill="none" />
<polyline points="240.0,261.0,232.0,260.5,224.5,260.5,216.5,257.5" stroke="black" stroke-width="2" fill="none" />
<polyline points="210.5,257.0,218.5,255.5,227.0,257.5,234.5,258.5,246.5,261.5,254.5,260.5" stroke="black" stroke-width="2" fill="none" />
<polyline points="247.0,266.0,254.5,267.5,262.5,268.5,272.0,263.5,272.0,272.0,266.0,278.5,284.0,286.5,301.0,294.5,307.0,306.5,316.0,314.5,324.0,322.5,330.5,330.5,335.5,339.0,340.5,347.0,343.5,354.5,346.0,363.0,348.0,370.5,349.5,378.5,351.0,386.5,350.0,394.0,350.0,402.0,349.0,410.0,346.0,419.5,343.0,430.0,339.0,443.5,334.0,451.5,327.0,459.5,319.0,467.5,310.0,475.0,296.0,483.0,292.0,494.0,294.5,502.0,283.5,504.0,273.5,512.0,277.5,513.5,278.5,517.5,276.5,527.5,267.5,531.0,272.0,539.0" stroke="black" stroke-width="2" fill="none" />
<polyline points="278.5,569.5,284.0,572.0,278.5,578.0,282.5,580.0" stroke="black" stroke-width="2" fill="none" />
<polyline points="293.0,588.0,284.5,596.0,284.5,611.0,280.5,617.5" stroke="black" stroke-width="2" fill="none" />
<polyline points="273.0,616.0,265.0,619.5,251.5,627.5,243.5,624.5" stroke="black" stroke-width="2" fill="none" />
<polyline points="246.0,625.0,251.0,633.0" stroke="black" stroke-width="2" fill="none" />
<polyline points="259.5,632.0,257.5,623.0,244.0,621.5" stroke="black" stroke-width="2" fill="none" />
<polyline points="250.5,619.0,259.0,621.0" stroke="black" stroke-width="2" fill="none" />
<polyline points="268.0,610.5,276.5,608.5" stroke="black" stroke-width="2" fill="none" />
<polyline points="284.5,596.5,292.5,588.5,300.5,588.5,309.0,588.5,317.0,587.5,325.0,581.5,333.0,587.5,344.0,590.5,352.5,598.5,366.5,600.5,372.5,598.5" stroke="black" stroke-width="2" fill="none" />
<polyline points="367.5,595.0,357.5,604.0,361.0,612.0,359.0,620.0,352.0,626.0,349.5,633.5,336.5,640.5,333.0,647.0,341.0,635.0,351.0,627.0,360.0,618.0,371.0,609.0,379.5,608.0,382.5,618.5,390.5,615.5,391.5,611.5" stroke="black" stroke-width="2" fill="none" />
<polyline points="392.0,607.0,384.0,606.0" stroke="black" stroke-width="2" fill="none" />
<polyline points="378.0,617.0,386.0,624.0" stroke="black" stroke-width="2" fill="none" />
<polyline points="381.5,640.0,378.0,632.0,365.0,625.5" stroke="black" stroke-width="2" fill="none" />
<polyline points="361.0,638.5,369.0,643.5,377.0,647.5" stroke="black" stroke-width="2" fill="none" />
<polyline points="388.5,651.0,388.5,643.0,382.0,630.5,378.0,624.5,380.0,616.0,377.5,608.0,373.5,602.0,378.0,598.0,386.0,587.5,384.5,585.0,376.5,584.5" stroke="black" stroke-width="2" fill="none" />
<polyline points="360.5,577.5,361.5,569.5,360.0,556.0,356.5,571.5,344.5,558.5,346.5,566.5,351.5,565.0,354.5,556.0,347.0,554.0,339.0,554.0" stroke="black" stroke-width="2" fill="none" />
<polyline points="335.5,550.5,340.0,547.5,348.0,546.0,348.5,539.5,356.5,536.5,366.5,533.5" stroke="black" stroke-width="2" fill="none" />
<polyline points="380.0,540.5,383.0,549.0,375.5,552.5,380.0,561.0" stroke="black" stroke-width="2" fill="none" />
<polyline points="391.5,553.5,394.0,556.0" stroke="black" stroke-width="2" fill="none" />
<polyline points="387.0,537.0,388.5,545.0,389.5,545.0,397.5,542.0,405.5,544.5,413.5,544.5" stroke="black" stroke-width="2" fill="none" />
<polyline points="420.5,549.0,412.5,551.0,405.0,547.0,406.5,552.0,407.5,549.0,400.5,540.5,395.5,538.5,396.0,525.0,394.5,516.0,396.5,508.0" stroke="black" stroke-width="2" fill="none" />
<polyline points="406.5,493.5,398.5,490.5,394.5,498.0,386.5,503.0,381.5,503.0,376.0,502.0,368.0,505.5,364.0,513.0,359.0,513.0,353.0,518.0,356.0,516.5,360.0,510.5,371.0,509.0,364.5,512.0" stroke="black" stroke-width="2" fill="none" />
<polyline points="352.5,513.5,345.5,521.5,338.0,518.5" stroke="black" stroke-width="2" fill="none" />
<polyline points="338.0,519.0,350.0,520.0,345.0,528.5,345.0,528.5" stroke="black" stroke-width="2" fill="none" />
<polyline points="337.5,516.0,345.5,517.5,353.0,521.5,364.5,518.5,372.0,515.0,375.0,506.5" stroke="black" stroke-width="2" fill="none" />
<polyline points="335.5,516.5,343.5,513.0,351.5,512.0,359.5,509.0,346.5,513.5,353.0,521.5,342.5,537.0,347.5,539.0,340.5,545.0,338.0,553.0,343.0,558.0,341.0,566.0,351.0,572.5,357.0,580.5,353.5,588.5,355.5,590.5,356.5,593.5,366.0,598.0,374.0,596.5,382.0,599.5,387.0,599.5,386.0,607.5,382.0,621.5,390.0,629.5" stroke="black" stroke-width="2" fill="none" />
<polyline points="362.0,649.5,364.0,657.0" stroke="black" stroke-width="2" fill="none" />
<polyline points="362.0,659.0,360.5,649.0,357.5,657.5,358.5,649.0" stroke="black" stroke-width="2" fill="none" />
<polyline points="346.5,643.0,343.5,651.0,343.0,651.0,351.0,641.0,364.0,633.5,372.0,628.5,379.0,623.5,378.5,632.5" stroke="black" stroke-width="2" fill="none" />
<polyline points="344.0,660.5,344.0,663.5,340.5,671.5,335.5,676.5,348.0,666.5" stroke="black" stroke-width="2" fill="none" />
<polyline points="347.5,668.5,352.5,676.0" stroke="black" stroke-width="2" fill="none" />
<polyline points="332.5,667.5,333.5,660.0" stroke="black" stroke-width="2" fill="none" />
<polyline points="333.0,659.0,329.5,666.0,331.5,658.0" stroke="black" stroke-width="2" fill="none" />
<polyline points="321.5,644.5,313.5,647.5" stroke="black" stroke-width="2" fill="none" />
<polyline points="316.0,643.0,308.0,649.0" stroke="black" stroke-width="2" fill="none" />
<polyline points="314.0,626.5,321.5,628.5,331.0,625.5" stroke="black" stroke-width="2" fill="none" />
<polyline points="322.0,608.0,330.0,608.0,328.0,608.0,331.0,616.0,343.0,606.0,350.5,603.0" stroke="black" stroke-width="2" fill="none" />
<polyline points="341.5,599.0,333.5,601.0,325.5,601.0,318.0,597.5,310.0,595.5" stroke="black" stroke-width="2" fill="none" />
<polyline points="309.5,593.5,317.0,591.5,325.0,585.5" stroke="black" stroke-width="2" fill="none" />
<polyline points="329.0,584.5,324.0,592.0,324.5,595.0,320.0,604.0,320.5,610.5,327.5,619.5,337.0,623.0" stroke="black" stroke-width="2" fill="none" />
<polyline points="337.5,621.0,329.5,619.0,321.0,620.5,313.0,624.5,303.5,620.5,295.0,613.5" stroke="black" stroke-width="2" fill="none" />
<polyline points="289.5,620.0,297.5,623.0,299.5,627.0" stroke="black" stroke-width="2" fill="none" />
<polyline points="306.0,622.0,301.0,622.5,298.0,614.5,295.5,606.5,288.5,602.0,308.5,594.5,320.0,584.0,314.0,575.5,308.5,574.0,300.5,581.5,293.5,576.5,290.5,578.5,304.0,572.5,299.5,562.5,294.5,560.5,300.5,554.0,292.5,554.5,285.0,563.0,278.5,561.0,275.0,558.0,268.5,558.0,260.5,564.0,262.5,562.5,258.5,554.5,249.5,552.5,241.0,553.5,233.0,553.5,224.5,553.5,216.5,554.5" stroke="black" stroke-width="2" fill="none" />
<polyline points="215.5,551.0,223.5,551.0,231.5,551.0,238.5,550.0,246.5,550.0,254.5,550.0,262.5,547.0" stroke="black" stroke-width="2" fill="none" />
<polyline points="250.5,555.0,242.5,555.0" stroke="black" stroke-width="2" fill="none" />
<polyline points="237.5,555.0,245.0,555.5,253.0,561.5,254.0,569.5,248.0,577.0,258.0,583.0,259.0,591.5,243.5,598.5,245.0,601.5,253.0,602.5,261.0,601.0,268.5,591.5,275.5,601.5,269.5,609.0,271.5,617.0,265.0,626.5,265.0,637.5,260.0,645.5,260.0,655.0,270.0,666.0,270.5,673.0,263.5,674.0,267.0,675.0" stroke="black" stroke-width="2" fill="none" />
<polyline points="268.0,682.5,260.0,681.5,255.0,675.5,247.0,686.5" stroke="black" stroke-width="2" fill="none" />
<polyline points="250.5,696.0,244.0,690.5,236.0,690.5" stroke="black" stroke-width="2" fill="none" />
<polyline points="239.5,697.0,237.5,695.5,240.0,696.0,242.0,704.0,234.0,713.0,244.0,716.0,248.0,721.0" stroke="black" stroke-width="2" fill="none" />
<polyline points="255.0,723.0,247.0,728.0,239.0,727.0,231.0,726.0,223.0,722.0" stroke="black" stroke-width="2" fill="none" />
<polyline points="221.5,721.5,229.0,717.5,237.5,714.5,240.5,716.5,235.0,724.5" stroke="black" stroke-width="2" fill="none" />
<polyline points="233.5,711.5,225.5,712.5" stroke="black" stroke-width="2" fill="none" />
<polyline points="224.5,712.0,232.5,707.0,245.5,707.0,253.5,702.5,261.5,704.0" stroke="black" stroke-width="2" fill="none" />
<polyline points="274.5,698.5,282.5,697.5,274.5,701.0,276.5,713.0,278.5,721.5" stroke="black" stroke-width="2" fill="none" />
<polyline points="284.5,721.0,276.5,715.5" stroke="black" stroke-width="2" fill="none" />
<polyline points="267.5,719.0,266.5,726.5,263.0,736.0,258.5,738.0,262.5,746.0,261.5,754.5,264.0,762.5" stroke="black" stroke-width="2" fill="none" />
<polyline points="270.0,752.0,265.5,742.0,273.5,739.5,263.5,738.5" stroke="black" stroke-width="2" fill="none" />
<polyline points="275.5,739.5,274.5,747.5" stroke="black" stroke-width="2" fill="none" />
<polyline points="283.5,749.0,290.0,741.0,288.0,733.0" stroke="black" stroke-width="2" fill="none" />
<polyline points="290.0,732.5,293.0,740.5,295.0,740.5" stroke="black" stroke-width="2" fill="none" />
<polyline points="296.5,754.5,289.0,758.5,283.0,764.5,293.0,756.5" stroke="black" stroke-width="2" fill="none" />
<polyline points="303.0,726.0,295.0,722.5" stroke="black" stroke-width="2" fill="none" />
<polyline points="298.0,722.0,301.0,730.0,297.0,737.5,293.5,749.5,284.0,749.0,290.5,744.0" stroke="black" stroke-width="2" fill="none" />
<polyline points="308.0,720.5,316.0,721.0" stroke="black" stroke-width="2" fill="none" />
<polyline points="309.0,721.0,312.0,729.0" stroke="black" stroke-width="2" fill="none" />
<polyline points="313.0,710.5,315.5,705.0" stroke="black" stroke-width="2" fill="none" />
<polyline points="319.0,718.0,315.0,710.5,319.5,701.0,312.5,693.0,307.5,685.0" stroke="black" stroke-width="2" fill="none" />
<polyline points="297.5,685.5,289.5,692.0,296.5,684.0" stroke="black" stroke-width="2" fill="none" />
<polyline points="294.5,683.0,289.0,691.0,294.5,683.0,308.5,686.0,309.5,689.0,317.5,697.0" stroke="black" stroke-width="2" fill="none" />
<polyline points="282.0,654.5,278.0,646.5,270.0,635.0" stroke="black" stroke-width="2" fill="none" />
<polyline points="278.0,643.5,268.0,657.5,259.5,654.5" stroke="black" stroke-width="2" fill="none" />
<polyline points="259.5,644.5,267.5,634.5,275.5,642.5,272.5,651.0,274.5,656.5,276.0,657.0" stroke="black" stroke-width="2" fill="none" />
<polyline points="269.0,664.5,261.5,668.0,250.5,673.0,242.5,675.0,239.0,683.0,242.0,675.0" stroke="black" stroke-width="2" fill="none" />
<polyline points="264.0,665.0,261.5,673.0,253.5,675.0,250.5,676.0,247.5,685.0,252.0,691.5,254.0,700.5,258.5,710.5,253.0,724.5,250.5,729.5,251.5,735.5,259.5,726.5" stroke="black" stroke-width="2" fill="none" />
<polyline points="256.5,727.5,254.5,735.5,264.0,746.5,272.5,740.5" stroke="black" stroke-width="2" fill="none" />
<polyline points="256.0,699.0,248.5,699.0,240.5,705.0,233.0,705.0,225.0,700.0,224.0,708.0" stroke="black" stroke-width="2" fill="none" />
<polyline points="244.0,703.0,245.0,711.0,240.5,722.0,243.5,719.5" stroke="black" stroke-width="2" fill="none" />
<polyline points="236.0,616.0,237.0,608.0,231.5,607.5" stroke="black" stroke-width="2" fill="none" />
<polyline points="231.5,618.0,231.0,610.0,238.0,602.5,240.5,593.0,230.5,588.0,237.5,576.5,240.5,574.0,233.5,580.0,225.5,581.0,217.5,582.5,209.5,580.5" stroke="black" stroke-width="2" fill="none" />
<polyline points="208.0,580.5,216.0,580.5,223.5,580.5,231.5,579.5,241.5,578.0" stroke="black" stroke-width="2" fill="none" />
<polyline points="236.5,570.5,228.5,570.5,220.5,571.5,212.5,572.0" stroke="black" stroke-width="2" fill="none" />
<polyline points="201.0,566.5,193.0,567.5" stroke="black" stroke-width="2" fill="none" />
<polyline points="190.5,566.5,199.0,563.5,206.5,564.5,216.5,569.5,224.5,570.0,232.5,570.0,241.0,564.5,251.5,561.0,258.0,553.0,266.0,551.5,274.0,552.0" stroke="black" stroke-width="2" fill="none" />
<polyline points="247.0,546.5,239.0,547.5" stroke="black" stroke-width="2" fill="none" />
<polyline points="235.5,545.5,244.5,539.5,251.5,540.0,260.0,542.5,266.0,548.0,274.0,548.0,282.5,546.5,283.5,553.0" stroke="black" stroke-width="2" fill="none" />
<polyline points="308.5,580.5,316.5,578.5" stroke="black" stroke-width="2" fill="none" />
<polyline points="330.5,584.5,336.5,593.5,338.5,600.5,347.0,608.5,339.0,613.5,339.5,612.5,348.5,609.5" stroke="black" stroke-width="2" fill="none" />
<polyline points="353.5,607.0,348.5,601.5,347.0,593.5" stroke="black" stroke-width="2" fill="none" />
<polyline points="347.5,586.0,355.5,594.0,368.0,602.5,367.5,611.5,373.0,611.5,365.0,622.5,368.0,630.5,369.0,642.0,382.0,650.0" stroke="black" stroke-width="2" fill="none" />
<polyline points="422.0,601.0,430.0,600.0" stroke="black" stroke-width="2" fill="none" />
<polyline points="465.0,603.0,479.0,611.0" stroke="black" stroke-width="2" fill="none" />
<polyline points="466.0,603.0,473.5,608.0,481.5,611.0,489.5,613.0,497.0,614.0,505.0,613.0" stroke="black" stroke-width="2" fill="none" />
<polyline points="510.5,617.5,502.5,620.5,494.5,622.5,486.5,624.5" stroke="black" stroke-width="2" fill="none" />
<polyline points="347.5,562.5,339.5,565.5" stroke="black" stroke-width="2" fill="none" />
<polyline points="316.5,602.0,317.0,609.5,315.5,623.0,312.5,630.5,312.5,644.5,310.0,652.5,312.0,652.5,314.0,656.5" stroke="black" stroke-width="2" fill="none" />
<polyline points="293.5,631.5,290.5,629.0,289.0,621.0" stroke="black" stroke-width="2" fill="none" />
<polyline points="304.5,611.5,306.5,612.0" stroke="black" stroke-width="2" fill="none" />
<polyline points="263.5,568.0,253.5,566.0,247.5,573.5,247.5,565.5" stroke="black" stroke-width="2" fill="none" />
<polyline points="204.5,543.0,196.5,543.0,188.5,542.0" stroke="black" stroke-width="2" fill="none" />
<polyline points="186.0,558.0,186.0,561.0,188.5,564.0,184.5,571.5,185.0,579.0" stroke="black" stroke-width="2" fill="none" />
<polyline points="135.0,611.5,129.0,608.5,121.0,612.5,126.0,612.5,133.5,611.5" stroke="black" stroke-width="2" fill="none" />
<polyline points="126.5,617.5,131.0,609.0,128.0,610.0,118.5,617.0,112.5,616.5,109.5,627.0,113.0,635.0,104.5,638.5,111.0,642.5,109.0,651.5,106.0,653.5,102.0,658.5,103.5,662.5,101.0,663.0,109.0,662.0" stroke="black" stroke-width="2" fill="none" />
<polyline points="109.0,659.5,100.5,658.5" stroke="black" stroke-width="2" fill="none" />
<polyline points="106.5,654.0,98.5,656.5,90.5,659.0" stroke="black" stroke-width="2" fill="none" />
<polyline points="84.5,660.0,90.5,662.0,93.5,665.0,101.5,666.5" stroke="black" stroke-width="2" fill="none" />
<polyline points="90.0,676.5,94.0,684.5,98.0,683.0,106.5,684.0" stroke="black" stroke-width="2" fill="none" />
<polyline points="105.0,681.5,105.0,689.5" stroke="black" stroke-width="2" fill="none" />
<polyline points="85.0,677.5,88.0,674.0,86.0,682.0,80.5,690.0,78.5,687.0" stroke="black" stroke-width="2" fill="none" />
<polyline points="71.0,690.0,75.5,681.5,69.5,669.5,67.5,674.5" stroke="black" stroke-width="2" fill="none" />
<polyline points="74.0,663.0,75.0,660.0,80.5,655.0,80.5,655.0,72.5,652.5,64.5,653.5" stroke="black" stroke-width="2" fill="none" />
<polyline points="70.0,649.0,65.0,657.5,67.0,666.0,74.0,673.0,70.0,683.0,63.5,691.0,68.5,699.0,79.5,701.5" stroke="black" stroke-width="2" fill="none" />
<polyline points="92.5,700.5,88.5,698.5,85.0,687.5,77.0,693.0,69.0,695.0,61.0,696.0" stroke="black" stroke-width="2" fill="none" />
<polyline points="58.0,698.5,53.0,702.0" stroke="black" stroke-width="2" fill="none" />
<polyline points="58.0,699.0,66.0,702.0,70.0,700.5,81.5,704.0,85.5,696.0,93.5,692.5,101.5,691.5" stroke="black" stroke-width="2" fill="none" />
<polyline points="75.5,677.0,73.5,684.5,66.0,688.0,58.0,697.0,50.0,704.0,42.5,709.0,34.5,705.5" stroke="black" stroke-width="2" fill="none" />
<polyline points="31.5,697.0,40.0,690.0,47.0,683.5" stroke="black" stroke-width="2" fill="none" />
<polyline points="51.0,678.0,41.5,680.0,46.0,682.5,47.0,674.5" stroke="black" stroke-width="2" fill="none" />
<polyline points="46.5,675.5,39.5,683.5,36.0,693.0,33.5,701.0,37.5,705.5" stroke="black" stroke-width="2" fill="none" />
<polyline points="52.0,691.5,49.0,697.0,55.0,689.0,55.5,680.5" stroke="black" stroke-width="2" fill="none" />
<polyline points="35.5,669.0,32.5,670.0,36.5,666.0,44.0,665.0,50.0,657.0,52.0,652.0" stroke="black" stroke-width="2" fill="none" />
<polyline points="49.5,649.5,43.5,657.5,33.5,660.0,33.0,666.5,31.0,662.5,39.5,655.5,42.5,661.5,45.0,662.5,46.0,654.5,54.0,653.5,55.0,659.5" stroke="black" stroke-width="2" fill="none" />
<polyline points="42.5,649.5,40.5,650.5,32.5,651.0" stroke="black" stroke-width="2" fill="none" />
<polyline points="28.5,637.5,36.5,633.5,45.0,632.5,53.0,626.5,50.5,628.5,50.5,637.5" stroke="black" stroke-width="2" fill="none" />
<polyline points="58.5,626.0,57.5,633.5,65.0,631.0" stroke="black" stroke-width="2" fill="none" />
<polyline points="79.5,629.0,70.5,635.0,65.0,627.5,73.5,615.5,75.0,606.0,83.0,606.0,84.0,598.5,88.5,591.0,83.5,595.0" stroke="black" stroke-width="2" fill="none" />
<polyline points="85.0,597.0,93.0,599.0,98.5,602.0" stroke="black" stroke-width="2" fill="none" />
<polyline points="105.0,595.5,101.0,604.0,91.5,615.0,96.5,623.5,91.5,624.5,84.5,629.5" stroke="black" stroke-width="2" fill="none" />
<polyline points="90.5,633.5,92.5,641.5" stroke="black" stroke-width="2" fill="none" />
<polyline points="91.0,634.0,98.5,635.0,111.5,637.0,116.0,644.0" stroke="black" stroke-width="2" fill="none" />
<polyline points="105.5,632.5,113.5,638.0,121.0,629.0,125.0,633.0,132.0,632.5" stroke="black" stroke-width="2" fill="none" />
<polyline points="129.5,631.5,121.5,625.5" stroke="black" stroke-width="2" fill="none" />
<polyline points="132.5,641.5,125.5,633.5,121.5,629.0,115.0,627.0,107.5,619.5,99.5,617.5" stroke="black" stroke-width="2" fill="none" />
<polyline points="97.0,614.0,105.0,614.0,113.0,614.0" stroke="black" stroke-width="2" fill="none" />
<polyline points="120.0,597.0,111.5,593.0" stroke="black" stroke-width="2" fill="none" />
<polyline points="108.0,596.0,107.0,603.5,114.0,601.0" stroke="black" stroke-width="2" fill="none" />
<polyline points="113.5,604.5,111.5,596.5,103.5,597.5,96.5,598.0,90.5,603.0,83.5,605.0,82.5,600.5,74.5,600.5,69.0,598.5,62.0,601.0,61.0,593.0,61.0,592.0" stroke="black" stroke-width="2" fill="none" />
<polyline points="64.5,607.5,57.0,608.5,51.0,605.5,43.0,607.5,31.0,607.5,23.0,612.5" stroke="black" stroke-width="2" fill="none" />
<polyline points="25.0,613.5,26.5,607.5,22.0,616.0,22.0,624.0,19.5,627.0,27.5,623.5,34.5,618.0,42.0,621.0,50.0,621.0,61.0,622.0,69.0,618.0,74.0,623.0,82.0,625.0,90.5,622.5" stroke="black" stroke-width="2" fill="none" />
<polyline points="107.5,620.0,104.5,623.0,96.5,619.0,88.0,612.0,86.0,609.5,77.0,613.0,76.0,608.0,80.0,613.0,89.5,610.0,89.5,605.0,86.5,600.0,89.5,592.0" stroke="black" stroke-width="2" fill="none" />
<polyline points="62.0,570.5,64.0,562.5,63.5,555.5,63.0,547.5,59.5,538.0,60.5,525.0,61.5,517.0,63.5,502.5,58.0,496.5,50.0,497.5" stroke="black" stroke-width="2" fill="none" />
<polyline points="36.0,486.0,34.0,481.0,35.0,490.0,41.0,486.0,45.0,486.0,38.0,482.0,38.0,473.5,45.0,473.0,42.0,475.0" stroke="black" stroke-width="2" fill="none" />
<polyline points="35.0,481.0,32.0,489.0,33.5,500.0,33.5,508.0,31.0,509.5,37.0,500.5,45.0,505.5,58.0,501.5" stroke="black" stroke-width="2" fill="none" />
<polyline points="43.5,515.5,42.5,513.0,43.0,518.0,44.5,516.5,43.0,510.0,37.0,502.0,34.0,512.0" stroke="black" stroke-width="2" fill="none" />
<polyline points="36.0,503.5,22.0,501.5,20.5,507.5,20.5,502.5,19.5,506.5" stroke="black" stroke-width="2" fill="none" />
<polyline points="29.5,491.5,37.5,495.5" stroke="black" stroke-width="2" fill="none" />
<polyline points="40.5,489.0,32.5,489.0" stroke="black" stroke-width="2" fill="none" />
<polyline points="43.5,462.5,34.5,465.5,34.5,466.5,37.5,458.5,43.5,451.5,35.5,452.0,38.0,450.0,36.5,446.0,32.5,444.0,33.5,436.0,36.5,432.0,34.5,429.5,30.5,420.0,21.5,412.0,23.5,401.5,21.5,399.5,19.5,391.5,22.0,383.0,22.5,372.0,26.5,365.0,21.5,365.0,13.5,362.0,13.5,354.0,20.5,346.0,20.0,343.0,15.5,340.5,19.5,332.5,23.5,324.5,15.5,328.5" stroke="black" stroke-width="2" fill="none" />
<polyline points="16.0,319.5,24.0,322.5,29.0,316.5" stroke="black" stroke-width="2" fill="none" />
<polyline points="28.5,314.0,25.5,320.0,17.0,318.0" stroke="black" stroke-width="2" fill="none" />
<polyline points="3.0,328.5,4.0,324.5,11.5,320.0,18.5,324.0,15.0,324.5,10.0,326.5,9.0,335.0,11.0,327.0,15.0,333.0,16.0,330.5,23.5,335.5,24.5,329.5,31.0,329.0,38.5,329.0,47.0,335.0,48.0,343.0,49.5,351.0,51.0,359.0,52.0,367.0,50.0,377.5,47.0,381.0,45.0,383.5,47.5,391.5,43.5,399.0,35.5,406.0,36.0,413.5,37.0,417.5,33.5,417.0,33.5,413.0,40.0,415.0,43.5,407.0,46.0,415.0,45.5,422.0,46.5,430.5,58.5,431.0,58.5,440.0,60.0,449.0,58.5,453.0,59.5,460.5,57.0,470.5,61.0,481.5,61.0,489.5,59.5,497.5,60.5,504.5,58.0,513.5,62.0,515.5" stroke="black" stroke-width="2" fill="none" />
<polyline points="60.0,569.5,58.0,563.5,56.0,555.0,58.0,547.0,56.0,539.5,57.0,531.5,57.5,524.0,57.5,516.5,66.5,510.5,57.5,509.0,52.0,502.0,56.5,490.0,60.5,489.0,63.5,481.0,56.5,477.0,56.0,469.0,55.0,462.0,49.5,461.0,52.0,456.0,52.5,448.0,55.5,447.0,55.5,439.5,52.5,435.0,54.5,427.0,53.5,423.0,56.5,414.5,56.0,406.0,59.0,395.0,50.5,390.5,43.0,382.5,45.5,374.5,46.5,367.0,43.0,365.5,45.0,357.5,39.5,350.5,45.5,345.5,36.5,339.5,32.5,340.0,36.5,331.5,38.0,330.0,41.0,322.0,35.0,318.0,32.5,317.0,30.5,309.5,28.5,301.5,34.5,301.0,27.5,295.0,31.0,291.0,33.0,287.0,28.0,287.0,26.5,283.0,19.0,279.5,11.0,278.0,3.5,278.0" stroke="black" stroke-width="2" fill="none" />
<polyline points="2.0,284.0,3.0,288.0,3.0,296.0,8.0,297.0,11.5,289.0,19.5,285.0,23.5,292.0,29.0,293.5,33.5,299.5" stroke="black" stroke-width="2" fill="none" />
<polyline points="35.0,297.0,37.5,303.5,34.5,305.5,36.0,314.0,43.0,317.0,45.0,326.0,43.0,326.5,41.0,334.5,42.0,342.0,42.0,350.0,47.0,360.0,52.0,370.5,52.0,378.5,54.0,386.5,55.0,394.5,49.5,394.5,47.5,397.5,50.5,406.0,48.0,408.0,48.0,415.0" stroke="black" stroke-width="2" fill="none" />
<polyline points="53.5,407.5,51.5,399.5" stroke="black" stroke-width="2" fill="none" />
<polyline points="56.5,433.0,55.5,428.0,52.0,428.0,50.0,422.0,40.0,423.5,32.5,428.0" stroke="black" stroke-width="2" fill="none" />
<polyline points="34.0,433.0,42.0,433.5" stroke="black" stroke-width="2" fill="none" />
<polyline points="57.0,445.0,46.0,439.0,39.0,441.0,29.5,447.5,22.0,444.5,10.0,445.5,2.0,443.5" stroke="black" stroke-width="2" fill="none" />
<polyline points="3.5,442.5,6.5,451.0,4.5,459.0,5.0,453.0,12.0,450.0,17.0,436.5" stroke="black" stroke-width="2" fill="none" />
<polyline points="25.0,446.5,22.0,448.5,25.0,451.5,28.0,456.5" stroke="black" stroke-width="2" fill="none" />
<polyline points="22.0,456.5,11.5,465.0,10.5,457.0,3.0,460.5" stroke="black" stroke-width="2" fill="none" />
<polyline points="2.5,412.0,7.0,423.0,5.0,426.0,13.0,417.0,20.5,419.0,29.0,413.5,29.5,417.0" stroke="black" stroke-width="2" fill="none" />
<polyline points="15.0,390.0,13.0,391.0" stroke="black" stroke-width="2" fill="none" />
<polyline points="10.5,381.5,20.5,385.5,16.0,394.0,9.0,399.0,13.0,399.0,11.0,405.0,15.0,411.0,22.5,407.0,27.5,402.5,32.0,391.5,33.0,395.0,44.0,391.5" stroke="black" stroke-width="2" fill="none" />
<polyline points="42.0,371.5,32.5,364.0,30.5,359.5,28.5,346.5,22.5,347.5,16.5,346.5,13.0,351.5,4.5,367.0,3.0,369.0,8.0,361.0,12.0,353.5,1.5,351.5" stroke="black" stroke-width="2" fill="none" />
<polyline points="11.5,359.5,19.5,363.5" stroke="black" stroke-width="2" fill="none" />
<polyline points="17.0,354.5,25.0,361.5,34.0,355.5" stroke="black" stroke-width="2" fill="none" />
<polyline points="38.0,350.5,40.0,358.0,37.0,368.0,26.0,375.5,27.0,367.5,29.0,373.5" stroke="black" stroke-width="2" fill="none" />
<polyline points="24.0,365.5,18.0,367.5,10.0,373.0,1.5,376.0" stroke="black" stroke-width="2" fill="none" />
<polyline points="8.5,365.0,10.5,351.0,17.0,338.0,25.0,338.5,38.0,340.5,38.0,349.5,46.0,355.5" stroke="black" stroke-width="2" fill="none" />
<polyline points="39.5,362.5,36.0,370.5,34.0,379.5,29.5,385.0,30.5,387.5,28.5,397.0,31.0,404.0,33.0,409.0,38.5,400.5,50.5,400.5,61.0,394.5" stroke="black" stroke-width="2" fill="none" />
<polyline points="44.0,380.0,36.0,376.0,26.0,375.0,18.0,381.5,12.0,377.0,18.0,376.0,17.5,368.0,22.5,357.0,23.5,353.0" stroke="black" stroke-width="2" fill="none" />
<polyline points="16.0,341.5,24.5,341.5,30.5,337.5,40.0,339.5" stroke="black" stroke-width="2" fill="none" />
<polyline points="43.0,334.0,46.0,342.0" stroke="black" stroke-width="2" fill="none" />
<polyline points="15.5,294.5,11.5,298.5,6.0,300.5" stroke="black" stroke-width="2" fill="none" />
<polyline points="0.5,289.5,8.5,283.0,15.0,290.0,7.0,292.5,5.0,299.5,7.0,303.0,3.0,309.0,4.5,311.5,5.5,309.0,14.0,311.0,14.0,307.0,22.0,306.0,24.0,301.5,30.0,307.0,34.0,315.0,39.0,318.0" stroke="black" stroke-width="2" fill="none" />
<polyline points="23.5,276.0,31.5,284.0,39.0,293.0,47.0,292.5,55.0,291.0,63.0,291.0,71.0,291.0,79.0,290.5,87.0,290.5,94.5,289.5,103.0,289.5,110.5,289.5,118.5,290.0,126.0,289.0,134.0,289.0,142.5,289.5,150.5,288.0,159.0,287.5,167.5,276.5,166.5,280.5,163.5,290.5,159.5,298.5,155.5,306.0,161.5,294.0" stroke="black" stroke-width="2" fill="none" />
<polyline points="160.5,302.5,168.5,294.5,176.0,287.0,183.5,278.5,191.5,269.5,194.5,267.5,202.5,268.5,210.5,260.0,215.5,252.5,223.5,252.5,232.0,252.5,240.0,251.5,248.0,250.5" stroke="black" stroke-width="2" fill="none" />
<polyline points="272.5,252.5,280.5,252.5,288.5,252.0" stroke="black" stroke-width="2" fill="none" />
<polyline points="303.0,253.0,298.5,261.0,299.0,267.0,300.0,275.5,301.5,284.0,302.5,292.0,308.0,296.5,315.5,308.5,323.0,315.5,329.0,323.5" stroke="black" stroke-width="2" fill="none" />
<polyline points="322.5,316.0,330.5,325.5,338.5,336.0,347.0,353.0" stroke="black" stroke-width="2" fill="none" />
<polyline points="335.0,347.5,335.0,355.5,337.0,361.0,339.5,369.0,344.0,377.0" stroke="black" stroke-width="2" fill="none" />
<polyline points="330.0,373.0,322.0,375.0" stroke="black" stroke-width="2" fill="none" />
<polyline points="327.5,370.0,320.5,374.0,322.5,362.0,325.5,361.0,317.5,364.0" stroke="black" stroke-width="2" fill="none" />
<polyline points="319.5,358.0,323.5,352.5" stroke="black" stroke-width="2" fill="none" />
<polyline points="333.0,348.0,331.5,355.5,334.5,363.5,336.5,372.0,340.5,380.0,341.5,390.0,343.5,397.0,341.5,405.0,337.5,406.0,336.5,414.0,334.5,421.5,332.5,428.0,345.0,424.0" stroke="black" stroke-width="2" fill="none" />
<polyline points="362.5,424.0,354.0,420.0,341.0,437.5,333.0,450.0,325.0,460.0,317.0,468.0,309.0,474.5,301.0,479.5,293.0,484.5,285.0,487.5,279.5,490.0,271.0,493.0,263.5,494.5,255.0,496.0,247.0,496.0,244.0,485.5,244.0,477.5,244.0,469.5,247.5,464.0,238.0,470.0,234.5,464.5,234.0,462.0,231.0,460.0,223.0,457.5,217.5,450.5,218.0,446.0,210.0,442.5" stroke="black" stroke-width="2" fill="none" />
<polyline points="209.5,440.5,217.5,440.5" stroke="black" stroke-width="2" fill="none" />
<polyline points="207.0,448.0,206.5,448.0,204.5,455.0,200.5,463.0,196.0,470.5,192.0,481.5,200.0,485.5,208.0,485.5,211.5,477.0,219.0,480.0,227.0,482.5,235.0,483.5" stroke="black" stroke-width="2" fill="none" />
<polyline points="230.0,486.0,222.0,485.0,214.0,481.5,205.5,481.5" stroke="black" stroke-width="2" fill="none" />
<polyline points="210.5,481.5,210.5,468.0,209.0,474.0" stroke="black" stroke-width="2" fill="none" />
<polyline points="218.5,474.5,221.0,466.5" stroke="black" stroke-width="2" fill="none" />
<polyline points="223.0,467.5,220.0,475.5" stroke="black" stroke-width="2" fill="none" />
<polyline points="220.0,483.5,204.0,478.5,202.0,470.0,207.0,461.5,210.0,453.5,204.0,465.0,196.0,471.0" stroke="black" stroke-width="2" fill="none" />
<polyline points="190.5,453.0,190.5,454.0,189.5,450.0,185.5,455.0,184.5,447.5,183.0,449.5,184.5,445.0,180.0,451.0,183.5,440.0,175.5,445.0" stroke="black" stroke-width="2" fill="none" />
<polyline points="165.0,447.5,173.0,449.5,180.5,457.5,188.5,464.5" stroke="black" stroke-width="2" fill="none" />
<polyline points="172.0,485.5,164.0,479.5" stroke="black" stroke-width="2" fill="none" />
<polyline points="163.5,440.0,171.5,437.0,179.5,433.0,174.0,427.5,162.0,435.5,164.5,446.5,170.0,454.5,177.0,456.5,183.5,464.5,197.5,457.5,193.0,459.5,195.0,457.0,197.0,459.0,198.5,464.0,207.0,453.0,210.0,450.5,219.0,444.5,226.0,440.0,234.5,449.0,242.5,452.0,250.0,452.0,259.0,448.5,267.5,436.5,277.0,441.5,277.0,439.0" stroke="black" stroke-width="2" fill="none" />
<polyline points="273.0,436.0,281.0,436.0" stroke="black" stroke-width="2" fill="none" />
<polyline points="282.5,443.0,274.5,447.5,284.0,444.5,275.0,450.0" stroke="black" stroke-width="2" fill="none" />
<polyline points="277.0,453.0,287.0,454.0,292.0,462.0,296.0,469.5" stroke="black" stroke-width="2" fill="none" />
<polyline points="290.0,470.0,281.5,457.0" stroke="black" stroke-width="2" fill="none" />
<polyline points="278.5,460.5,278.5,462.5,281.5,470.5" stroke="black" stroke-width="2" fill="none" />
<polyline points="283.0,470.5,280.0,462.5" stroke="black" stroke-width="2" fill="none" />
<polyline points="282.5,452.5,290.5,457.5" stroke="black" stroke-width="2" fill="none" />
<polyline points="293.0,454.0,298.0,462.0,309.0,465.0" stroke="black" stroke-width="2" fill="none" />
<polyline points="295.0,452.5,292.5,451.0" stroke="black" stroke-width="2" fill="none" />
<polyline points="299.5,448.5,304.5,457.0,301.0,452.0" stroke="black" stroke-width="2" fill="none" />
<polyline points="299.5,478.5,291.0,481.5,282.0,476.5,274.5,478.0,266.5,480.5,258.5,481.5,267.0,486.5,280.5,480.5,296.0,479.5,304.0,467.5,308.0,459.5,315.5,451.5,321.5,443.5,315.0,431.5,310.0,424.0,308.0,419.5,297.0,411.5,289.0,412.0,281.0,413.0,272.5,412.0" stroke="black" stroke-width="2" fill="none" />
<polyline points="273.5,409.0,281.5,408.5,289.5,407.5,297.0,408.0" stroke="black" stroke-width="2" fill="none" />
<polyline points="295.0,419.0,287.0,419.0" stroke="black" stroke-width="2" fill="none" />
<polyline points="295.0,419.0,287.0,419.0,279.0,417.5" stroke="black" stroke-width="2" fill="none" />
<polyline points="276.0,416.5,284.0,415.5,292.5,414.5" stroke="black" stroke-width="2" fill="none" />
<polyline points="303.5,403.5,295.0,403.5,287.0,403.5,277.5,404.5,269.5,404.5" stroke="black" stroke-width="2" fill="none" />
<polyline points="267.0,404.5,275.0,408.0,283.0,407.0,291.0,407.0,299.0,406.5" stroke="black" stroke-width="2" fill="none" />
<polyline points="309.0,443.5,301.0,437.5,293.5,429.0,285.5,432.0,277.5,432.5,269.5,440.5,268.0,446.0" stroke="black" stroke-width="2" fill="none" />
<polyline points="268.5,445.0,274.5,447.0,278.5,447.5,281.5,457.5,286.5,465.5,293.0,473.5" stroke="black" stroke-width="2" fill="none" />
<polyline points="288.5,491.0,289.5,499.0,297.5,499.5,310.5,497.5,318.5,494.5" stroke="black" stroke-width="2" fill="none" />
<polyline points="281.0,487.5,272.5,489.5" stroke="black" stroke-width="2" fill="none" />
<polyline points="267.0,501.0,266.5,509.0,264.0,516.0,267.0,514.5,274.5,511.5,282.5,508.5" stroke="black" stroke-width="2" fill="none" />
<polyline points="272.0,467.5,269.5,464.0" stroke="black" stroke-width="2" fill="none" />
<polyline points="264.5,468.5,266.0,476.5" stroke="black" stroke-width="2" fill="none" />
<polyline points="272.5,470.5,271.5,470.0,262.5,468.0" stroke="black" stroke-width="2" fill="none" />
<polyline points="261.5,467.5,262.5,475.0" stroke="black" stroke-width="2" fill="none" />
<polyline points="256.5,475.0,255.5,467.0" stroke="black" stroke-width="2" fill="none" />
<polyline points="254.5,468.5,254.5,476.5,256.5,484.0" stroke="black" stroke-width="2" fill="none" />
<polyline points="239.5,479.0,239.5,471.0" stroke="black" stroke-width="2" fill="none" />
<polyline points="235.5,475.0,234.5,467.0" stroke="black" stroke-width="2" fill="none" />
<polyline points="230.0,466.0,228.0,474.0,237.0,486.0" stroke="black" stroke-width="2" fill="none" />
<polyline points="225.5,475.0,227.5,466.5" stroke="black" stroke-width="2" fill="none" />
<polyline points="220.0,470.0,211.5,473.0,215.5,465.0" stroke="black" stroke-width="2" fill="none" />
<polyline points="213.5,442.5,212.0,437.5,204.0,437.5" stroke="black" stroke-width="2" fill="none" />
<polyline points="202.5,435.5,211.0,434.5" stroke="black" stroke-width="2" fill="none" />
<polyline points="216.0,432.0,208.0,432.0,199.5,432.0" stroke="black" stroke-width="2" fill="none" />
<polyline points="198.0,429.0,206.0,428.0,214.0,428.5" stroke="black" stroke-width="2" fill="none" />
<polyline points="231.5,431.0,229.5,427.5,229.0,428.5,224.0,429.0,226.5,421.0,234.0,412.0,229.0,405.0" stroke="black" stroke-width="2" fill="none" />
<polyline points="228.5,397.5,236.5,397.5" stroke="black" stroke-width="2" fill="none" />
<polyline points="234.5,389.5,226.5,389.5,218.5,389.5,210.0,390.0,202.0,390.0,194.0,390.0,186.0,389.5" stroke="black" stroke-width="2" fill="none" />
<polyline points="188.0,392.5,196.0,393.0,204.0,393.0,212.0,393.0,220.0,394.0,227.5,394.5,235.5,396.5,249.5,395.5,255.5,384.5,263.5,388.0,263.5,385.0,271.5,384.5,280.0,384.5,285.5,381.5,293.5,381.5,301.5,381.5,309.5,380.5,317.5,380.5,325.5,380.5,334.0,380.5" stroke="black" stroke-width="2" fill="none" />
<polyline points="330.5,383.5,322.5,382.5,313.0,383.5,305.0,384.0,297.5,378.5,290.0,378.5,282.0,381.5,274.0,381.5,266.5,381.0,258.5,381.0,250.5,381.0" stroke="black" stroke-width="2" fill="none" />
<polyline points="258.5,377.0,267.0,375.5,275.5,375.5,283.5,376.0,291.5,376.5,299.0,376.5" stroke="black" stroke-width="2" fill="none" />
<polyline points="284.0,351.5,276.0,351.0" stroke="black" stroke-width="2" fill="none" />
<polyline points="270.5,350.0,278.5,346.5,286.5,346.5" stroke="black" stroke-width="2" fill="none" />
<polyline points="292.5,341.0,284.5,335.0" stroke="black" stroke-width="2" fill="none" />
<polyline points="284.5,335.0,293.0,343.0" stroke="black" stroke-width="2" fill="none" />
<polyline points="303.0,337.0,313.5,336.5,312.5,327.0,311.0,315.5,303.5,313.5" stroke="black" stroke-width="2" fill="none" />
<polyline points="302.0,307.5,304.0,315.5,311.5,321.5,317.5,328.0,315.0,338.0,309.0,340.0" stroke="black" stroke-width="2" fill="none" />
<polyline points="323.0,340.5,308.0,348.5,314.5,352.0,322.5,347.0,334.0,348.0,338.5,367.0" stroke="black" stroke-width="2" fill="none" />
<polyline points="366.0,357.5,368.0,365.5,369.0,373.5,366.0,383.5,367.5,392.5,370.5,401.0,366.5,409.0,370.0,401.0" stroke="black" stroke-width="2" fill="none" />
<polyline points="374.0,405.0,374.5,396.5,373.5,390.0,365.5,391.0" stroke="black" stroke-width="2" fill="none" />
<polyline points="354.5,405.0,353.5,413.5,351.0,421.5,347.0,430.0,344.5,438.0,339.5,446.0,334.5,454.0,328.5,462.0,325.0,469.0,317.0,473.0,306.0,481.0,291.0,489.0,281.5,498.0,272.5,503.0,277.0,504.5" stroke="black" stroke-width="2" fill="none" />
<polyline points="265.5,420.5,257.5,412.5" stroke="black" stroke-width="2" fill="none" />
<polyline points="260.5,409.5,267.5,417.5,270.5,425.5,268.5,433.5,264.5,442.0,255.0,450.0,250.5,455.5,250.5,465.5,250.0,473.0,250.0,481.0,244.5,486.0,246.5,487.0" stroke="black" stroke-width="2" fill="none" />
<polyline points="243.0,430.5,244.0,423.0,240.5,415.0,239.5,411.5" stroke="black" stroke-width="2" fill="none" />
<polyline points="242.0,412.5,245.0,420.5,246.0,428.0,246.0,435.5" stroke="black" stroke-width="2" fill="none" />
<polyline points="251.0,460.0,243.0,461.0,239.0,453.0,227.5,445.0,224.5,438.0,221.5,435.5,214.5,432.0,221.0,426.0,223.0,417.5,229.5,409.0,234.0,403.0,226.0,398.5,218.0,408.5,210.0,412.5,202.0,412.0,194.0,409.5,186.5,402.0,179.0,392.0,179.5,391.0,184.5,389.5,185.0,383.5,183.0,379.5,188.5,371.5,198.0,372.0,190.0,374.0" stroke="black" stroke-width="2" fill="none" />
<polyline points="192.5,372.5,187.5,380.5,191.0,375.5,196.0,381.0" stroke="black" stroke-width="2" fill="none" />
<polyline points="202.0,374.5,208.0,370.5,205.0,378.5" stroke="black" stroke-width="2" fill="none" />
<polyline points="207.0,381.5,207.0,373.5" stroke="black" stroke-width="2" fill="none" />
<polyline points="214.5,372.0,218.0,380.0,226.0,382.0,218.5,379.5" stroke="black" stroke-width="2" fill="none" />
<polyline points="216.5,373.5,224.5,382.5,232.5,381.5" stroke="black" stroke-width="2" fill="none" />
<polyline points="241.0,368.5,236.0,371.5,238.5,362.0,241.5,354.5,245.5,350.5,244.0,342.0,246.0,335.5,245.0,325.0,244.0,317.0,244.0,309.0,232.0,306.0" stroke="black" stroke-width="2" fill="none" />
<polyline points="228.5,309.5,228.5,317.5,231.5,317.5" stroke="black" stroke-width="2" fill="none" />
<polyline points="228.0,310.5,232.0,311.5,237.0,313.5,238.5,321.5,240.0,331.0,242.5,338.0,243.0,346.0,245.0,354.0,241.0,361.5,242.5,365.5,243.5,374.0,244.5,382.0,244.5,385.5,252.5,377.0,260.5,373.0,268.5,374.0,276.5,372.5,284.0,372.5,292.0,373.0,300.5,373.0,304.5,371.5" stroke="black" stroke-width="2" fill="none" />
<polyline points="295.5,357.5,287.5,357.5,279.5,357.0,271.5,357.0" stroke="black" stroke-width="2" fill="none" />
<polyline points="270.5,352.5,278.5,352.0,286.0,352.0" stroke="black" stroke-width="2" fill="none" />
<polyline points="279.5,346.0,271.5,345.5,269.0,347.5" stroke="black" stroke-width="2" fill="none" />
<polyline points="268.0,361.5,276.0,361.5,284.5,361.5,292.5,361.5" stroke="black" stroke-width="2" fill="none" />
<polyline points="300.5,357.5,292.5,362.0,284.5,362.0,276.5,362.0,269.0,362.0" stroke="black" stroke-width="2" fill="none" />
<polyline points="265.0,367.5,273.0,368.0,281.0,368.0,290.0,368.0,298.0,368.5" stroke="black" stroke-width="2" fill="none" />
<polyline points="296.5,371.0,288.0,371.0,280.5,371.0,273.0,370.5,265.0,370.5" stroke="black" stroke-width="2" fill="none" />
<polyline points="248.5,365.0,248.5,373.0,256.5,370.5,263.5,371.5,271.5,366.5,279.5,366.5,287.5,367.0,295.5,367.5,303.5,369.5" stroke="black" stroke-width="2" fill="none" />
<polyline points="283.0,345.0,275.0,344.0,266.0,345.0,262.5,337.0,259.5,333.5" stroke="black" stroke-width="2" fill="none" />
<polyline points="256.5,335.0,261.5,343.0" stroke="black" stroke-width="2" fill="none" />
<polyline points="252.5,337.5,255.0,332.5,256.0,341.0,264.0,350.5,269.0,352.0,268.5,356.0,262.5,364.0,259.5,368.5,252.5,364.5,255.5,368.5,261.5,365.5,267.5,363.5,275.5,356.0,283.5,355.5,291.0,355.5" stroke="black" stroke-width="2" fill="none" />
<polyline points="265.0,332.0,257.5,331.0,249.5,328.0,235.5,329.5,233.5,329.0,226.0,335.0,220.5,333.0,219.5,338.0,211.0,337.5,200.0,338.5,191.0,346.5,194.0,353.5,202.5,346.0,208.5,344.0" stroke="black" stroke-width="2" fill="none" />
<polyline points="213.0,343.0,205.0,343.0,197.5,349.5" stroke="black" stroke-width="2" fill="none" />
<polyline points="195.0,352.5,203.0,354.0,208.0,349.0,216.5,349.0" stroke="black" stroke-width="2" fill="none" />
<polyline points="216.0,328.0,224.5,325.0" stroke="black" stroke-width="2" fill="none" />
<polyline points="234.0,333.0,228.0,335.5,226.0,343.5,227.5,353.5,228.0,366.0,236.0,368.5" stroke="black" stroke-width="2" fill="none" />
<polyline points="230.5,382.0,225.0,374.0,215.0,371.0" stroke="black" stroke-width="2" fill="none" />
<polyline points="227.0,358.0,218.0,355.5,210.0,356.5,201.5,358.5,193.5,358.5" stroke="black" stroke-width="2" fill="none" />
<polyline points="192.0,363.0,199.5,362.5,207.5,362.5,215.5,362.5" stroke="black" stroke-width="2" fill="none" />
<polyline points="206.0,345.5,205.0,357.0,197.5,357.0,189.5,367.0" stroke="black" stroke-width="2" fill="none" />
<polyline points="185.5,384.0,193.5,384.5" stroke="black" stroke-width="2" fill="none" />
<polyline points="206.0,392.0,197.0,396.0,192.5,399.5" stroke="black" stroke-width="2" fill="none" />
<polyline points="210.0,395.5,217.5,395.5" stroke="black" stroke-width="2" fill="none" />
<polyline points="226.5,397.5,221.5,406.0" stroke="black" stroke-width="2" fill="none" />
<polyline points="216.5,421.5,208.0,421.5,200.0,422.5,192.0,420.5" stroke="black" stroke-width="2" fill="none" />
<polyline points="183.5,418.0,191.5,423.0,199.5,423.0,207.0,423.0,215.0,423.0" stroke="black" stroke-width="2" fill="none" />
<polyline points="195.0,415.5,192.5,413.5,187.0,408.5,177.0,393.0,165.0,387.0,156.5,388.0,148.5,388.0" stroke="black" stroke-width="2" fill="none" />
<polyline points="150.0,394.0,158.5,394.0,166.5,393.5" stroke="black" stroke-width="2" fill="none" />
<polyline points="164.0,401.5,156.0,402.5" stroke="black" stroke-width="2" fill="none" />
<polyline points="156.0,401.0,164.0,399.0" stroke="black" stroke-width="2" fill="none" />
<polyline points="157.0,411.0,165.0,409.0,154.5,418.0,163.0,419.5" stroke="black" stroke-width="2" fill="none" />
<polyline points="161.0,418.0,169.0,415.0" stroke="black" stroke-width="2" fill="none" />
<polyline points="173.5,426.0,165.5,430.0" stroke="black" stroke-width="2" fill="none" />
<polyline points="153.5,424.0,152.0,415.0,150.0,406.0,150.5,398.5,146.5,400.5" stroke="black" stroke-width="2" fill="none" />
<polyline points="147.5,410.5,148.5,426.5,156.5,441.0,165.0,453.0,173.0,462.0,177.5,474.0,188.5,482.0,206.0,490.5" stroke="black" stroke-width="2" fill="none" />
<polyline points="175.0,488.0,165.0,479.5,166.0,471.5,173.0,461.5,165.0,453.5,160.0,446.0,155.0,438.5,150.0,430.5,147.0,422.5,144.5,415.0,142.0,407.0,141.0,399.0,141.0,390.5,141.0,383.0,142.0,375.0,142.5,367.0,145.0,359.0,148.0,351.0,152.0,342.5,156.5,334.5,163.0,326.0,162.0,327.0,154.5,338.5,146.5,356.5" stroke="black" stroke-width="2" fill="none" />
<polyline points="149.5,359.0,154.5,352.0,149.5,360.0,148.5,368.0,148.5,376.0,148.0,378.0,156.5,381.0,164.5,381.5" stroke="black" stroke-width="2" fill="none" />
<polyline points="165.0,376.5,157.0,374.5" stroke="black" stroke-width="2" fill="none" />
<polyline points="156.0,372.0,164.5,373.0" stroke="black" stroke-width="2" fill="none" />
<polyline points="166.0,365.5,158.5,363.5" stroke="black" stroke-width="2" fill="none" />
<polyline points="159.5,363.5,162.5,366.5,175.5,371.0,185.5,361.0,191.5,364.5,199.5,364.5,205.0,370.5,210.0,364.5,213.0,372.5,218.0,364.5" stroke="black" stroke-width="2" fill="none" />
<polyline points="232.5,338.0,227.5,338.5,226.5,346.5,216.0,345.5,214.5,340.5,206.0,341.5,198.0,348.5,186.5,353.0,180.5,350.5,166.5,342.5" stroke="black" stroke-width="2" fill="none" />
<polyline points="163.0,342.0,166.0,350.0" stroke="black" stroke-width="2" fill="none" />
<polyline points="162.5,347.0,170.0,351.0,178.0,355.5" stroke="black" stroke-width="2" fill="none" />
<polyline points="179.0,344.0,171.0,341.0" stroke="black" stroke-width="2" fill="none" />
<polyline points="176.5,349.0,169.0,345.0,161.0,347.0" stroke="black" stroke-width="2" fill="none" />
<polyline points="153.0,348.5,158.0,351.5,154.5,359.5,152.5,367.5,151.0,376.0,149.0,390.0,151.0,403.5,153.0,411.5,155.0,419.5,157.5,427.5,157.5,430.5,167.5,431.5,175.5,427.0,184.0,422.0,196.0,418.5,204.0,418.5,212.5,418.5,220.5,418.5,222.5,413.5,231.0,408.5,239.0,405.5,246.5,404.5,254.5,403.0,263.5,402.0,271.0,402.0,278.5,401.5,287.0,401.5,295.0,402.0,303.0,402.0" stroke="black" stroke-width="2" fill="none" />
<polyline points="326.5,443.5,318.5,447.5,310.5,456.5,302.5,464.0,314.5,461.0,309.5,448.0,299.0,440.5,287.5,434.5,283.5,426.5,280.5,423.5,270.0,418.5,266.0,410.5,257.5,402.0,253.5,398.0,241.5,397.0,247.5,389.0,236.5,382.5,237.0,379.0,233.0,370.5,223.5,362.5,218.5,357.5,217.5,351.5,218.5,344.0,222.0,336.0,232.5,328.0,231.0,322.0,226.0,318.5,225.0,311.0,218.5,303.0,224.0,302.0,215.5,306.5" stroke="black" stroke-width="2" fill="none" />
<polyline points="210.0,311.0,211.0,308.0,209.0,316.0,211.0,319.0" stroke="black" stroke-width="2" fill="none" />
<polyline points="216.5,314.0,217.5,310.0,210.5,303.0,202.5,302.0" stroke="black" stroke-width="2" fill="none" />
<polyline points="194.0,308.5,202.0,308.0,202.5,312.5,207.5,321.0" stroke="black" stroke-width="2" fill="none" />
<polyline points="203.0,325.5,195.0,312.5" stroke="black" stroke-width="2" fill="none" />
<polyline points="197.0,315.5,201.5,323.5" stroke="black" stroke-width="2" fill="none" />
<polyline points="195.0,328.5,193.5,322.5,189.0,315.5,183.5,318.5,176.0,325.5,172.0,324.0,169.5,333.5,167.5,330.5,168.5,329.5,174.0,323.0,185.0,314.0,177.5,317.0" stroke="black" stroke-width="2" fill="none" />
<polyline points="183.5,326.5,185.5,326.5" stroke="black" stroke-width="2" fill="none" />
<polyline points="186.0,324.5,189.0,332.5" stroke="black" stroke-width="2" fill="none" />
<polyline points="184.5,336.0,176.5,331.0" stroke="black" stroke-width="2" fill="none" />
<polyline points="177.0,332.5,180.0,333.5" stroke="black" stroke-width="2" fill="none" />
<polyline points="195.5,328.0,191.5,320.0" stroke="black" stroke-width="2" fill="none" />
<polyline points="181.0,305.5,189.0,299.5,197.5,295.5,205.5,291.5,214.0,289.5,222.0,287.5,230.5,285.5,238.0,285.0,246.0,284.5,254.0,285.0,260.0,293.0,260.5,300.0,268.5,302.0,270.5,294.0,279.0,297.5" stroke="black" stroke-width="2" fill="none" />
<polyline points="275.5,292.5,289.5,305.5,290.0,313.5,286.0,321.0,282.0,333.0,289.0,336.0,298.0,344.0,309.5,352.0,300.5,361.0" stroke="black" stroke-width="2" fill="none" />
<polyline points="319.5,355.5,318.5,349.5,324.0,341.0" stroke="black" stroke-width="2" fill="none" />
<polyline points="350.0,330.5,353.0,328.5,352.0,336.5" stroke="black" stroke-width="2" fill="none" />
<polyline points="356.5,339.5,356.5,331.5" stroke="black" stroke-width="2" fill="none" />
<polyline points="326.5,299.5,318.5,286.0,310.5,268.0" stroke="black" stroke-width="2" fill="none" />
<polyline points="316.0,263.0,314.0,271.0,318.0,278.5,320.5,286.5,325.0,294.0,329.5,302.0,335.0,311.0,341.0,319.5,344.0,327.5" stroke="black" stroke-width="2" fill="none" />
<polyline points="347.5,317.0,339.0,318.5,331.5,308.0,328.0,306.0,320.0,296.0,312.0,287.5,304.5,282.5" stroke="black" stroke-width="2" fill="none" />
<polyline points="305.5,287.0,301.0,283.5,297.0,275.0,294.5,267.5,282.5,271.5" stroke="black" stroke-width="2" fill="none" />
<polyline points="279.5,277.5,287.5,279.5,295.0,282.5" stroke="black" stroke-width="2" fill="none" />
<polyline points="287.5,279.5,271.5,281.5" stroke="black" stroke-width="2" fill="none" />
<polyline points="276.5,284.0,287.0,291.0,302.0,299.0,300.0,311.5,303.5,319.5,292.5,325.0,294.0,313.5,300.0,314.5,308.0,321.5,316.0,329.0,317.5,326.0" stroke="black" stroke-width="2" fill="none" />
<polyline points="344.5,321.0,341.0,330.5,333.0,322.0,325.0,313.0,317.0,308.0,309.0,301.5,301.0,296.5,292.5,292.5,284.5,288.5,276.5,285.5,269.0,283.5,261.0,283.0,253.0,282.0,245.0,281.5,237.5,281.5,229.5,282.5,222.0,284.5,214.0,286.0,206.5,289.0,198.0,292.0,189.5,295.5,181.5,301.5,173.5,307.5,165.5,315.0,157.5,325.0,149.0,338.0,141.0,358.0,133.0,372.0,125.0,374.0" stroke="black" stroke-width="2" fill="none" />
<polyline points="126.5,376.5,134.5,375.0" stroke="black" stroke-width="2" fill="none" />
<polyline points="132.0,390.0,124.5,392.0" stroke="black" stroke-width="2" fill="none" />
<polyline points="123.5,391.0,131.0,387.0,137.0,385.0,134.0,393.0,136.5,395.5,136.5,400.5,137.0,407.5,139.0,415.0,142.0,423.0,145.0,431.0,149.5,438.5,154.0,446.5,160.0,454.5,166.0,463.0,175.0,471.0,186.0,478.5,200.0,486.5" stroke="black" stroke-width="2" fill="none" />
<polyline points="194.5,478.5,186.5,477.0,180.5,472.0,174.5,467.0,166.5,460.5,158.5,450.5,151.0,437.5,143.0,419.5" stroke="black" stroke-width="2" fill="none" />
<polyline points="138.0,420.5,142.0,428.5,146.0,436.5,150.0,444.5,156.0,453.0,162.0,461.0,162.0,469.0,156.5,477.0,161.5,485.0,164.5,493.0,167.0,501.0,169.5,509.0,171.5,517.0,172.5,525.0,176.5,533.5,179.5,534.5,191.5,541.5,199.5,540.5,207.5,540.5" stroke="black" stroke-width="2" fill="none" />
<polyline points="281.0,479.5,273.0,482.5,265.0,485.0,257.0,488.0,247.5,492.5,239.5,495.0,236.5,495.0,233.5,491.0,225.5,493.5,219.5,492.5,211.5,490.5,203.0,486.0,185.0,473.0,183.0,464.5,186.0,462.5,179.0,462.5,177.5,455.0,171.0,447.5,177.0,434.5,182.5,426.5" stroke="black" stroke-width="2" fill="none" />
<polyline points="185.0,426.0,182.0,418.0" stroke="black" stroke-width="2" fill="none" />
<polyline points="164.0,408.5,155.5,410.5" stroke="black" stroke-width="2" fill="none" />
<polyline points="164.0,384.5,156.0,383.0" stroke="black" stroke-width="2" fill="none" />
<polyline points="164.0,356.5,172.0,359.5" stroke="black" stroke-width="2" fill="none" />
<polyline points="171.5,357.5,163.5,356.0" stroke="black" stroke-width="2" fill="none" />
<polyline points="164.0,355.5,172.5,358.0" stroke="black" stroke-width="2" fill="none" />
<polyline points="196.0,341.5,188.5,349.5,183.0,357.5,178.0,365.5,176.0,374.0,177.5,385.0,185.0,376.0,193.0,369.5,201.0,367.0,209.0,366.5,217.5,368.5,220.0,370.5,228.0,372.5,230.5,376.0,231.0,377.5,239.0,380.5,240.0,383.5" stroke="black" stroke-width="2" fill="none" />
<polyline points="253.5,410.0,264.5,418.0,268.5,425.5,276.0,427.5,276.0,430.0" stroke="black" stroke-width="2" fill="none" />
<polyline points="321.0,450.0,311.5,447.0,301.5,439.0,292.5,431.0,283.5,423.5,275.5,415.5,266.5,407.5,259.0,400.0,252.0,393.0,253.0,388.0,247.5,378.0,240.5,373.5,230.5,366.0,234.0,358.0,236.0,350.0,236.5,341.5,237.5,333.5,242.5,325.5,242.5,317.5,242.5,309.5,234.0,302.0,225.5,303.0" stroke="black" stroke-width="2" fill="none" />
<polyline points="222.0,298.0,230.0,298.5,234.5,300.5,243.0,296.5,245.0,302.0,254.0,297.5,263.0,288.5,271.0,289.5,279.5,292.5,288.0,295.5" stroke="black" stroke-width="2" fill="none" />
<polyline points="290.0,293.5,282.0,290.0,274.0,287.0,266.0,284.5,258.5,283.5" stroke="black" stroke-width="2" fill="none" />
<polyline points="252.0,292.0,244.0,289.0,236.0,288.0,228.0,295.0,220.0,297.0,212.0,295.0" stroke="black" stroke-width="2" fill="none" />
<polyline points="217.5,287.0,196.5,295.0,184.0,303.5,184.5,313.5,179.5,321.5,173.0,329.5,162.5,332.5,174.5,342.5,180.5,343.5,192.5,341.5,201.0,333.5,210.5,329.5,216.0,325.5,224.0,322.5" stroke="black" stroke-width="2" fill="none" />
<polyline points="236.0,311.0,235.0,319.0,240.5,330.0,244.0,333.0,251.0,331.5,259.0,336.5,261.0,343.0,259.5,350.5,269.0,341.5,269.5,338.5,274.5,335.5,280.5,340.5,288.5,345.0" stroke="black" stroke-width="2" fill="none" />
<polyline points="268.5,326.5,260.5,323.5" stroke="black" stroke-width="2" fill="none" />
<polyline points="259.0,318.5,269.0,326.5,268.5,334.5" stroke="black" stroke-width="2" fill="none" />
<polyline points="292.0,324.0,291.0,321.0,293.0,312.5" stroke="black" stroke-width="2" fill="none" />
<polyline points="286.5,309.0,282.0,317.0,279.0,324.5,272.0,335.5,282.0,344.5,290.0,348.5,299.5,352.5,301.5,353.5,298.5,353.5,304.5,352.0,315.5,344.0,323.5,340.0" stroke="black" stroke-width="2" fill="none" />
<polyline points="307.5,296.0,303.0,290.0,295.0,290.0,287.5,287.0,279.5,284.0" stroke="black" stroke-width="2" fill="none" />
<polyline points="272.0,287.5,293.0,295.5,297.5,300.5,305.5,305.5,313.0,310.5,321.5,317.0,329.5,327.0,338.0,340.0" stroke="black" stroke-width="2" fill="none" />
<polyline points="277.0,318.0,280.0,310.0" stroke="black" stroke-width="2" fill="none" />
<polyline points="277.5,310.0,274.5,318.0,285.5,322.5" stroke="black" stroke-width="2" fill="none" />
<polyline points="268.0,304.0,260.5,302.0,252.0,305.0" stroke="black" stroke-width="2" fill="none" />
<polyline points="250.0,310.5,258.0,310.0" stroke="black" stroke-width="2" fill="none" />
<polyline points="248.5,311.0,250.5,318.5,258.0,317.5,266.5,323.5,271.5,330.0,280.0,331.0,288.0,333.0,296.0,340.0,308.5,344.0" stroke="black" stroke-width="2" fill="none" />
<polyline points="290.0,310.0,282.0,317.0,268.0,318.0,268.0,310.0,263.0,300.0" stroke="black" stroke-width="2" fill="none" />
<polyline points="265.5,292.5,274.0,296.5,282.0,302.0,270.0,307.0,268.5,315.0,273.5,307.0,274.5,302.0,283.0,302.5,290.0,305.5,298.0,313.0,306.5,311.5,313.5,323.0" stroke="black" stroke-width="2" fill="none" />
<polyline points="301.5,271.5,302.5,280.0,312.5,288.0,320.5,296.0,328.0,304.0,325.0,313.5,332.0,321.5,337.5,329.0,340.5,337.5,344.0,345.5,347.5,354.0,350.0,362.0,352.5,370.0,353.5,378.5,354.5,386.0,354.0,394.0,353.0,402.5,351.0,410.5,348.5,419.0,345.0,427.5,342.0,435.5,337.0,443.5" stroke="black" stroke-width="2" fill="none" />
<polyline points="360.0,426.5,357.0,427.0,354.5,419.0,343.5,440.0,335.0,452.0,327.0,463.5,319.0,470.5,311.0,477.0,302.5,483.0,294.0,487.0,286.0,491.0,278.0,493.5,270.5,495.5,262.5,496.5,255.0,497.5,247.0,498.5,239.5,498.5,232.0,497.5,224.0,495.5,216.5,494.0,208.5,492.0,200.5,488.0,192.5,484.0,184.5,479.0,176.5,473.0,168.5,464.5,160.0,455.5,151.5,445.0,143.0,430.5,135.0,420.5,127.0,423.5,126.0,415.5" stroke="black" stroke-width="2" fill="none" />
<polyline points="125.0,411.0,127.0,419.0,130.5,430.0,139.0,448.5,147.0,460.5,155.0,470.5,163.5,468.5" stroke="black" stroke-width="2" fill="none" />
<polyline points="132.0,401.5,124.5,403.5" stroke="black" stroke-width="2" fill="none" />
<polyline points="124.0,398.5,132.5,398.0" stroke="black" stroke-width="2" fill="none" />
<polyline points="55.0,454.0,57.0,462.5,64.0,473.5,64.0,477.0" stroke="black" stroke-width="2" fill="none" />
<polyline points="47.5,606.5,43.5,606.5,43.0,614.0,54.0,615.5,49.0,624.0,35.0,635.0,37.0,644.0,30.0,651.0,38.0,642.0,41.0,639.0,44.0,636.0,50.0,640.0,53.5,633.0,60.5,633.5" stroke="black" stroke-width="2" fill="none" />
<polyline points="51.0,618.0,43.0,611.0" stroke="black" stroke-width="2" fill="none" />
<polyline points="46.5,624.0,38.5,624.0,30.5,623.0,22.5,617.0" stroke="black" stroke-width="2" fill="none" />
<polyline points="27.5,613.5,27.5,621.5,18.0,631.5" stroke="black" stroke-width="2" fill="none" />
<polyline points="158.0,305.5,166.5,307.0" stroke="black" stroke-width="2" fill="none" />
<polyline points="186.0,279.0,194.0,276.0,194.0,272.0,202.0,271.5,211.5,271.5,214.0,273.5,222.0,274.5,229.5,268.0" stroke="black" stroke-width="2" fill="none" />
<polyline points="219.0,280.0,217.0,268.0,209.0,266.0" stroke="black" stroke-width="2" fill="none" />
<polyline points="201.5,283.5,194.0,280.0" stroke="black" stroke-width="2" fill="none" />
<polyline points="195.5,280.0,195.0,288.0,183.5,300.0,173.5,307.5,165.5,315.5,158.5,323.5,153.5,331.5,148.5,339.5,145.5,348.0,143.0,356.0,140.0,364.0,136.0,372.0,138.5,374.0,134.5,382.0,124.5,393.5,125.0,405.0,122.5,413.0,125.5,421.5,130.0,429.0,133.0,436.5,136.0,444.5,141.0,452.5,146.0,460.5,152.0,468.0,159.0,481.5" stroke="black" stroke-width="2" fill="none" />
<polyline points="241.5,350.0,238.5,342.0" stroke="black" stroke-width="2" fill="none" />
<polyline points="250.5,318.0,249.0,321.0,256.0,314.0,260.5,306.0,258.5,304.0,251.0,296.5,247.0,288.5" stroke="black" stroke-width="2" fill="none" />
<polyline points="265.0,271.0,273.0,272.0,273.5,275.5,281.5,272.5,289.5,268.0,298.5,267.0" stroke="black" stroke-width="2" fill="none" />
<polyline points="290.5,195.5,298.5,191.5" stroke="black" stroke-width="2" fill="none" />
<polyline points="314.0,184.0,321.5,189.0" stroke="black" stroke-width="2" fill="none" />
<polyline points="339.5,183.0,338.5,182.0,338.5,190.0,340.5,188.0,348.5,182.5,357.0,180.5" stroke="black" stroke-width="2" fill="none" />
<polyline points="360.0,178.5,369.0,186.5" stroke="black" stroke-width="2" fill="none" />
<polyline points="365.0,193.0,356.5,193.5,348.5,190.0,345.5,188.0,351.5,183.5,347.5,168.5,344.0,165.5,345.0,168.5" stroke="black" stroke-width="2" fill="none" />
<polyline points="345.0,165.0,353.0,161.0" stroke="black" stroke-width="2" fill="none" />
<polyline points="349.0,176.5,341.5,176.0" stroke="black" stroke-width="2" fill="none" />
<polyline points="337.5,172.5,333.5,180.5,334.5,188.5,337.5,178.5,346.0,177.5,357.5,177.0,365.5,180.0" stroke="black" stroke-width="2" fill="none" />
<polyline points="363.0,139.5,357.0,138.0,353.0,136.0,352.0,128.0,342.0,127.5,334.0,129.5" stroke="black" stroke-width="2" fill="none" />
<polyline points="335.0,131.5,343.0,132.0,355.5,130.0" stroke="black" stroke-width="2" fill="none" />
<polyline points="364.5,125.0,356.0,118.0" stroke="black" stroke-width="2" fill="none" />
<polyline points="355.5,119.5,362.5,127.5,367.5,136.0,364.0,139.5" stroke="black" stroke-width="2" fill="none" />
<polyline points="362.5,133.5,354.0,133.5,346.0,132.0,334.0,128.0,335.0,123.0,353.0,119.0,349.0,118.0" stroke="black" stroke-width="2" fill="none" />
<polyline points="344.0,121.5,352.0,115.5,359.5,117.0,367.0,118.0" stroke="black" stroke-width="2" fill="none" />
<polyline points="366.5,124.0,363.5,120.0,360.0,117.5" stroke="black" stroke-width="2" fill="none" />
<polyline points="347.5,139.5,340.0,139.5" stroke="black" stroke-width="2" fill="none" />
<polyline points="346.0,136.0,338.0,132.5" stroke="black" stroke-width="2" fill="none" />
<polyline points="332.0,142.0,335.0,150.0" stroke="black" stroke-width="2" fill="none" />
<polyline points="327.0,142.0,329.0,149.5,327.0,154.5,336.5,153.0,347.5,148.0" stroke="black" stroke-width="2" fill="none" />
<polyline points="323.0,146.0,326.0,153.5,319.5,146.5" stroke="black" stroke-width="2" fill="none" />
<polyline points="322.5,144.0,319.0,152.0,315.5,155.5,308.5,160.5,311.0,165.5,312.5,161.5,324.5,164.5" stroke="black" stroke-width="2" fill="none" />
<polyline points="323.0,169.0,330.5,169.0" stroke="black" stroke-width="2" fill="none" />
<polyline points="301.0,177.5,304.0,170.0,295.5,162.0,291.5,160.0,295.5,152.0,301.0,142.0,298.0,136.5,296.0,131.0,302.0,128.5,304.0,120.0,305.5,114.0,307.5,106.0,308.0,98.0,311.0,87.5,310.0,89.5,315.0,90.5,307.0,91.5" stroke="black" stroke-width="2" fill="none" />
<polyline points="302.5,89.5,310.5,85.5,318.5,88.0,330.5,91.5,338.5,88.5,338.0,92.5" stroke="black" stroke-width="2" fill="none" />
<polyline points="330.0,101.5,332.5,109.5" stroke="black" stroke-width="2" fill="none" />
<polyline points="318.0,102.5,310.5,105.5,310.5,105.5,321.5,97.5,326.0,96.0,325.0,88.0,325.5,80.0,324.5,73.5,321.0,65.5,329.0,61.0,321.0,63.0" stroke="black" stroke-width="2" fill="none" />
<polyline points="329.0,60.5,328.0,68.5,327.0,63.5,325.5,80.0,333.5,79.0,337.5,75.0,345.5,76.0,349.5,80.5" stroke="black" stroke-width="2" fill="none" />
<polyline points="349.5,77.0,346.0,79.0,350.5,84.0,347.5,92.0,342.0,100.0,338.0,107.5,342.0,104.5,349.5,100.0,353.5,92.0,355.0,97.0,359.0,100.0,353.0,104.0" stroke="black" stroke-width="2" fill="none" />
<polyline points="351.0,98.0,354.5,90.0" stroke="black" stroke-width="2" fill="none" />
<polyline points="344.0,81.0,335.0,80.5,327.0,79.5" stroke="black" stroke-width="2" fill="none" />
<polyline points="330.0,60.5,331.0,69.0,337.0,80.5,338.0,88.5,336.5,92.0,346.5,102.0,343.5,100.0,351.5,91.0" stroke="black" stroke-width="2" fill="none" />
<polyline points="324.0,123.5,316.0,127.5,313.5,135.5,310.5,129.5,300.5,142.0,292.0,142.5" stroke="black" stroke-width="2" fill="none" />
<polyline points="293.0,145.0,301.5,144.0" stroke="black" stroke-width="2" fill="none" />
<polyline points="305.0,140.0,297.0,133.0" stroke="black" stroke-width="2" fill="none" />
<polyline points="296.0,131.5,304.0,123.5" stroke="black" stroke-width="2" fill="none" />
<polyline points="304.0,115.0,301.0,115.0,293.0,111.0" stroke="black" stroke-width="2" fill="none" />
<polyline points="293.0,105.5,297.0,105.5,293.5,105.5,296.5,114.0,299.0,122.0,309.5,126.0,317.5,119.5,326.0,118.5,315.0,123.5,304.5,132.5,308.0,138.5" stroke="black" stroke-width="2" fill="none" />
<polyline points="296.0,149.5,304.0,154.0,312.0,152.5,306.0,156.5,306.5,164.0" stroke="black" stroke-width="2" fill="none" />
<polyline points="306.0,168.5,298.0,163.5" stroke="black" stroke-width="2" fill="none" />
<polyline points="288.5,185.0,277.5,184.5,269.5,182.5" stroke="black" stroke-width="2" fill="none" />
<polyline points="275.5,174.0,288.5,178.0,287.5,183.5,287.5,193.5,288.5,189.5,296.5,189.5" stroke="black" stroke-width="2" fill="none" />
<polyline points="287.0,180.0,278.5,174.5,270.5,175.5,269.0,181.0,274.0,173.0" stroke="black" stroke-width="2" fill="none" />
<polyline points="336.5,105.0,323.5,101.0,315.5,94.0,308.0,98.0,304.0,93.0,305.0,85.0" stroke="black" stroke-width="2" fill="none" />
<polyline points="156.0,170.5,149.5,165.5,140.5,165.5,134.0,167.0,131.0,160.0,130.0,155.0,131.0,147.0,133.5,139.0,135.5,133.0,131.0,120.0,132.5,113.0,124.0,114.0,123.0,112.5,118.0,111.5,110.5,114.0" stroke="black" stroke-width="2" fill="none" />
<polyline points="122.0,111.0,129.5,109.0" stroke="black" stroke-width="2" fill="none" />
<polyline points="128.0,118.0,119.5,120.0,111.5,126.0" stroke="black" stroke-width="2" fill="none" />
<polyline points="105.0,153.5,109.0,161.5,102.5,164.5" stroke="black" stroke-width="2" fill="none" />
<polyline points="99.5,155.5,96.0,163.0,100.0,155.0,108.0,155.0,122.5,150.0,122.0,157.0,128.5,161.5,136.5,162.5,144.5,161.0" stroke="black" stroke-width="2" fill="none" />
<polyline points="151.0,167.0,161.0,175.0" stroke="black" stroke-width="2" fill="none" />
<polyline points="148.0,214.5,156.0,212.5,164.5,211.5,176.5,212.0,184.0,210.5" stroke="black" stroke-width="2" fill="none" />
<polyline points="185.5,211.5,176.5,212.5,176.0,223.5,176.0,231.5,184.5,233.0,186.5,235.5,188.5,233.5" stroke="black" stroke-width="2" fill="none" />
<polyline points="184.5,255.0,192.5,252.5,201.0,251.0,209.0,254.0,212.0,267.5,218.0,268.5,223.0,279.5" stroke="black" stroke-width="2" fill="none" />
<polyline points="220.5,250.0,212.5,250.5,204.0,258.5,196.0,260.0,188.0,259.5" stroke="black" stroke-width="2" fill="none" />
<polyline points="181.0,268.0,182.0,276.0,177.5,284.0,168.5,292.0,160.5,300.0,163.0,309.0" stroke="black" stroke-width="2" fill="none" />
<polyline points="192.0,291.5,184.0,295.5,180.5,298.5,172.5,302.5,182.0,297.5,183.5,291.5,198.5,289.5,184.5,282.0,184.5,274.0,185.5,269.0,177.5,269.0" stroke="black" stroke-width="2" fill="none" />
<polyline points="158.0,250.0,149.5,255.0,147.0,264.0,148.5,259.0,137.5,254.0,139.5,246.5,138.5,247.0,137.5,253.0" stroke="black" stroke-width="2" fill="none" />
<polyline points="128.0,235.5,127.5,242.0,136.0,239.5,136.0,227.5,146.5,224.5,139.0,221.0,131.5,223.0,123.5,219.5,115.5,220.5" stroke="black" stroke-width="2" fill="none" />
<polyline points="129.5,209.5,127.5,201.5,119.0,195.5" stroke="black" stroke-width="2" fill="none" />
<polyline points="117.0,193.5,125.5,187.5,133.5,182.5,141.5,183.0" stroke="black" stroke-width="2" fill="none" />
<polyline points="116.5,192.0,122.5,200.0,120.5,207.5,123.0,208.5" stroke="black" stroke-width="2" fill="none" />
<polyline points="109.5,203.0,112.5,205.0,114.5,213.0,113.5,221.5,121.5,227.5,119.5,229.0,131.0,230.0,137.0,224.5,143.0,227.0,147.0,229.0,155.5,224.0,163.5,223.0,171.0,224.0,181.0,223.0,186.0,220.0,188.5,225.5" stroke="black" stroke-width="2" fill="none" />
<polyline points="102.0,230.5,93.5,232.5" stroke="black" stroke-width="2" fill="none" />
<polyline points="92.0,258.0,100.0,251.5,96.0,256.5,92.0,264.5,101.0,273.5,98.5,281.5,96.5,285.5" stroke="black" stroke-width="2" fill="none" />
<polyline points="101.0,274.5,93.0,270.5" stroke="black" stroke-width="2" fill="none" />
<polyline points="114.0,234.5,111.5,228.5,109.5,237.0,101.5,238.0,99.0,230.5,95.5,222.0,100.0,214.0,101.0,206.0" stroke="black" stroke-width="2" fill="none" />
<polyline points="108.5,206.0,102.0,201.0,94.5,197.0" stroke="black" stroke-width="2" fill="none" />
<polyline points="93.0,194.5,103.0,202.5,107.5,210.5,101.5,221.0,92.5,229.5,96.5,226.0,99.0,208.0" stroke="black" stroke-width="2" fill="none" />
<polyline points="99.0,186.0,91.5,183.0,89.5,177.0,85.5,170.5" stroke="black" stroke-width="2" fill="none" />
<polyline points="82.5,162.5,75.0,158.5" stroke="black" stroke-width="2" fill="none" />
<polyline points="75.0,160.0,85.0,168.0,89.0,175.5,90.0,183.0,101.0,191.5" stroke="black" stroke-width="2" fill="none" />
<polyline points="75.5,184.0,77.0,176.0" stroke="black" stroke-width="2" fill="none" />
<polyline points="74.0,175.0,72.5,183.0" stroke="black" stroke-width="2" fill="none" />
<polyline points="69.5,161.5,78.0,167.0,86.0,165.0" stroke="black" stroke-width="2" fill="none" />
<polyline points="86.0,145.0,78.0,138.0" stroke="black" stroke-width="2" fill="none" />
<polyline points="71.5,118.5,63.5,114.5,55.5,112.5,54.0,120.0,65.0,116.0,60.5,106.5,63.5,98.5,57.5,90.5" stroke="black" stroke-width="2" fill="none" />
<polyline points="58.5,92.0,66.0,92.0,74.5,92.5" stroke="black" stroke-width="2" fill="none" />
<polyline points="72.0,109.5,71.5,106.5,65.5,110.5,58.5,115.5,56.5,119.5" stroke="black" stroke-width="2" fill="none" />
<polyline points="58.5,146.5,55.5,154.5,63.0,162.5,66.0,170.5,74.0,171.5" stroke="black" stroke-width="2" fill="none" />
<polyline points="64.5,161.0,56.0,154.5" stroke="black" stroke-width="2" fill="none" />
<polyline points="53.5,149.5,61.5,147.5" stroke="black" stroke-width="2" fill="none" />
<polyline points="48.0,92.0,47.0,85.5,50.0,84.5,58.5,81.0,60.5,70.0,55.5,62.0,55.5,61.0" stroke="black" stroke-width="2" fill="none" />
<polyline points="57.0,57.0,65.0,63.5" stroke="black" stroke-width="2" fill="none" />
<polyline points="59.5,57.5,64.5,65.5,69.0,69.0,76.0,71.0,84.0,79.0,89.0,85.0" stroke="black" stroke-width="2" fill="none" />
<polyline points="107.5,90.0,111.5,90.5,116.5,94.5,115.5,98.5,116.5,91.5,124.5,90.0,124.0,85.0" stroke="black" stroke-width="2" fill="none" />
<polyline points="102.0,55.5,94.0,53.5,86.0,50.5,78.0,58.5" stroke="black" stroke-width="2" fill="none" />
<polyline points="87.0,62.5,87.0,70.5,81.5,78.0,81.5,85.0" stroke="black" stroke-width="2" fill="none" />
<polyline points="59.0,81.0,51.5,81.0,43.5,83.0" stroke="black" stroke-width="2" fill="none" />
<polyline points="43.0,80.0,51.0,77.0,51.5,71.5,59.5,78.0,67.5,79.0,76.5,73.0" stroke="black" stroke-width="2" fill="none" />
<polyline points="90.0,55.0,87.5,56.0,79.5,57.0,72.5,64.5,81.0,68.0,80.0,74.0,76.0,81.5,78.0,89.0,70.5,97.0,66.5,104.0,71.0,108.0,79.0,110.0,73.5,114.0,68.0,124.5,75.5,124.0,82.5,124.0,78.5,132.5,75.0,135.5,80.5,142.5,83.5,150.5,87.5,156.5" stroke="black" stroke-width="2" fill="none" />
<polyline points="109.0,58.0,101.0,58.5,93.0,54.5,89.5,59.5,81.0,58.5,77.0,64.5,69.0,62.5,61.0,53.5,53.0,54.5,44.5,52.0" stroke="black" stroke-width="2" fill="none" />
<polyline points="22.5,276.0,20.0,282.0,23.0,290.5,20.5,298.5,12.0,302.5,15.5,304.5,24.5,308.5,14.0,312.5,9.0,317.5,9.0,320.5,3.0,328.5,5.0,330.5,7.5,334.0,6.5,341.0,6.0,348.0,3.5,353.0,3.5,360.5,8.0,369.5,8.0,375.0,7.0,383.0,14.0,383.0,12.0,388.0,17.0,396.5,15.0,404.5,12.0,410.5,15.0,421.5,22.5,423.5,16.5,437.0,17.0,445.0,14.0,453.5,12.5,456.5,18.0,458.5,24.0,463.5,17.0,464.0,20.0,466.0,29.0,456.0,36.5,458.0,43.0,449.0,51.0,455.0,53.5,455.0" stroke="black" stroke-width="2" fill="none" />
<polyline points="416.0,415.0,417.0,423.0,419.0,430.5" stroke="black" stroke-width="2" fill="none" />
<polyline points="425.0,387.5,422.5,379.5" stroke="black" stroke-width="2" fill="none" />
<polyline points="468.0,213.0,481.0,205.0,497.0,197.0,512.5,188.5" stroke="black" stroke-width="2" fill="none" />
</svg>