<svg xmlns="http://www.w3.org/2000/svg" version="1.1"><polyline points="148.5,47.5,130.5,55.5,119.5,64.0,111.5,72.0,104.5,79.5,99.0,87.5,94.5,95.5,92.0,103.0,89.0,111.0,86.5,118.5,84.5,126.5,82.5,134.5,81.5,142.5,80.5,150.5,80.5,158.5,80.5,167.0,81.0,174.5,82.0,183.0,83.0,191.0,85.0,199.5,87.5,207.5,91.0,215.5,94.0,223.5,99.0,231.5,104.0,239.5,111.0,247.5,119.5,255.5,131.5,263.0" stroke="black" stroke-width="2" fill="none" />
<polyline points="124.0,254.0,132.5,259.0,140.5,263.0,148.5,265.0,156.0,267.0,163.5,267.5,172.0,267.5,179.5,265.5,187.5,263.0,196.0,259.0,204.0,254.0,212.0,247.0,220.5,238.0,230.5,224.0" stroke="black" stroke-width="2" fill="none" />
<polyline points="230.5,224.5,225.5,232.5,219.5,240.5,211.5,248.5,201.5,256.5,185.5,264.5" stroke="black" stroke-width="2" fill="none" />
<polyline points="196.5,255.5,207.5,247.5,215.5,239.5,222.0,231.5,227.0,223.5,231.5,215.5,226.5,225.5,219.0,236.5,211.0,244.0,202.5,251.5,194.5,258.0,186.5,262.0,178.5,264.0,170.5,264.5,162.5,265.0,155.0,265.0,147.0,263.0,138.5,259.5,130.5,255.5,122.5,253.5,114.0,246.0,106.0,236.0,98.0,223.5,90.5,204.0" stroke="black" stroke-width="2" fill="none" />
<polyline points="85.5,199.5,93.5,220.5,101.5,235.0,109.5,245.0,117.5,253.0,125.0,259.0,133.5,264.0,142.0,267.0,150.5,269.0,158.5,270.5,166.0,269.5,174.5,269.5,182.5,268.5,190.5,265.5,198.0,261.0,205.5,257.5,214.0,254.5,222.0,250.5,230.0,245.5,238.0,240.0,246.0,233.0,243.0,236.0,232.5,244.0,220.0,252.5,201.0,260.0,183.0,268.0" stroke="black" stroke-width="2" fill="none" />
<polyline points="132.0,259.5,120.0,251.5,111.5,243.5,105.5,235.5,99.5,227.0,95.5,218.5,92.5,209.5,89.0,201.5,86.5,194.0,84.5,184.0,84.0,175.0,82.5,166.0,82.5,158.5,83.0,150.5,84.0,142.0,85.0,134.0,87.0,126.0,88.5,116.5,91.0,108.0,94.5,100.0,87.5,116.0" stroke="black" stroke-width="2" fill="none" />
<polyline points="85.0,119.0,93.0,98.5,101.0,85.0,109.0,73.5,117.5,65.5,126.0,58.5,134.0,53.0,142.0,50.0,150.0,46.5,158.0,44.5,165.5,44.0,174.0,44.0,182.0,46.5,190.0,48.5,198.0,51.0,206.0,56.0,214.5,62.0,222.5,68.5,230.5,74.5,238.5,81.0,246.5,89.0,254.5,99.0,262.5,111.5,270.0,131.5,274.0,145.0,273.5,153.0,273.0,161.5,273.0,169.5,272.0,177.5,271.5,185.5,269.5,193.5,267.5,201.5,261.5,209.0,256.0,217.5,256.0,221.5,258.0,213.5,267.0,203.5" stroke="black" stroke-width="2" fill="none" />
<polyline points="261.5,213.0,256.5,221.0" stroke="black" stroke-width="2" fill="none" />
<polyline points="261.5,218.0,261.0,226.0,262.0,234.0,263.0,242.5,264.5,249.5,272.5,243.5,281.0,242.5" stroke="black" stroke-width="2" fill="none" />
<polyline points="281.5,243.0,276.5,251.0,272.5,259.0,272.5,266.5,276.5,274.0,282.5,282.0,288.5,289.5,294.0,298.0,299.0,306.0,305.0,314.0,310.5,322.0,316.5,330.0,322.0,338.0,327.0,346.0,333.5,354.0,338.5,362.0,344.5,369.5,350.5,377.5,355.5,385.5,361.5,394.0,366.5,402.0,372.5,410.0,377.5,418.0,383.5,426.0,390.0,434.0,403.5,425.0" stroke="black" stroke-width="2" fill="none" />
<polyline points="398.0,422.0,394.5,430.0" stroke="black" stroke-width="2" fill="none" />
<polyline points="392.5,431.0,385.0,426.5,377.5,414.5,369.5,402.0,361.5,390.5,353.5,378.5,345.5,367.5,337.5,356.0,329.5,345.0,321.0,333.0,313.0,322.0,305.0,311.0,297.0,300.0,289.0,288.5,281.0,277.5,273.0,264.5" stroke="black" stroke-width="2" fill="none" />
<polyline points="284.0,265.5,292.0,260.0,299.5,262.0,307.5,265.0,315.0,265.0" stroke="black" stroke-width="2" fill="none" />
<polyline points="317.5,269.0,309.5,270.0,301.0,277.0,293.0,279.5,287.5,277.5,285.5,274.5,284.5,266.5,292.5,263.5,288.0,264.5" stroke="black" stroke-width="2" fill="none" />
<polyline points="276.5,249.0,268.0,267.5,260.0,267.5" stroke="black" stroke-width="2" fill="none" />
<polyline points="261.0,266.5,264.0,274.5,265.0,282.5,265.0,290.0,270.0,298.0" stroke="black" stroke-width="2" fill="none" />
<polyline points="271.5,284.0,264.0,279.0" stroke="black" stroke-width="2" fill="none" />
<polyline points="266.5,280.0,274.5,291.0,282.0,299.0,290.0,310.0,298.5,321.5,306.5,333.5,315.0,344.5,323.0,356.5,331.5,367.5,339.5,379.0,347.5,389.5,356.0,400.5,364.0,413.0,371.5,423.0,373.0,431.0,379.0,439.0,377.5,447.0,376.5,454.5,375.0,462.5,374.0,470.5,372.5,478.5,371.5,486.5,371.5,494.5,370.5,503.0,369.0,511.0,368.0,519.0,368.5,527.0,366.5,535.5,365.5,543.5" stroke="black" stroke-width="2" fill="none" />
<polyline points="385.5,490.5,377.5,476.5" stroke="black" stroke-width="2" fill="none" />
<polyline points="376.0,479.0,379.0,487.0,374.0,492.0,376.0,493.0,383.5,498.5,391.5,479.0" stroke="black" stroke-width="2" fill="none" />
<polyline points="387.0,496.5,391.0,491.5,393.0,483.5,394.5,476.0,395.5,468.0,398.0,459.5,399.0,451.0,401.0,443.0,401.5,438.5,404.0,430.5,410.5,422.0,402.5,417.0,404.5,409.5,402.5,401.5,398.0,394.5,394.0,386.5,393.5,379.0,386.5,370.0,378.0,366.0,370.0,367.0" stroke="black" stroke-width="2" fill="none" />
<polyline points="372.0,367.0,380.0,371.5,385.0,375.5,390.0,384.0,394.5,392.5,397.5,400.5,397.5,409.0,386.5,414.5,387.5,422.5,394.0,423.5,406.0,420.5,414.0,423.5" stroke="black" stroke-width="2" fill="none" />
<polyline points="395.5,424.5,394.5,432.5,393.5,440.0,392.0,448.0,390.5,456.5,390.0,464.5,389.0,472.5,387.5,480.5,386.0,488.5,387.0,493.5" stroke="black" stroke-width="2" fill="none" />
<polyline points="371.0,448.0,371.0,456.0,370.0,464.0,369.0,471.5,368.0,479.5,367.0,487.5,366.5,496.0,365.5,504.0,365.0,512.0,363.5,520.0,363.0,528.0,362.0,535.5,362.0,543.5,361.5,551.5,361.0,560.0,360.0,568.0,359.5,576.0,358.0,583.5,356.5,591.0" stroke="black" stroke-width="2" fill="none" />
<polyline points="353.5,593.0,353.0,585.0,354.0,577.0,355.5,569.5,356.5,561.5,356.5,553.5,357.5,545.5,358.5,537.5,359.5,529.5,360.0,521.5,361.0,513.5,362.5,505.5,363.5,497.5,365.0,489.5,366.0,481.0,366.5,473.5,367.5,466.0,368.5,458.0,369.5,450.0,369.5,447.5" stroke="black" stroke-width="2" fill="none" />
<polyline points="377.5,430.5,369.0,419.5" stroke="black" stroke-width="2" fill="none" />
<polyline points="369.0,424.0,376.5,435.0,384.5,436.0,393.0,436.5" stroke="black" stroke-width="2" fill="none" />
<polyline points="377.0,432.5,371.0,424.5" stroke="black" stroke-width="2" fill="none" />
<polyline points="384.5,410.0,392.5,406.0" stroke="black" stroke-width="2" fill="none" />
<polyline points="397.5,391.0,393.5,384.0" stroke="black" stroke-width="2" fill="none" />
<polyline points="383.5,386.0,392.0,397.0" stroke="black" stroke-width="2" fill="none" />
<polyline points="389.0,382.0,389.5,373.5,382.0,371.5" stroke="black" stroke-width="2" fill="none" />
<polyline points="369.5,388.5,362.5,379.0,354.5,367.5,346.5,356.5,338.0,344.0,329.5,333.0,321.0,321.0,314.0,310.0,308.0,302.0" stroke="black" stroke-width="2" fill="none" />
<polyline points="308.0,296.0,316.0,300.5,324.0,312.5,332.5,324.5,341.0,336.0,349.0,348.0,357.5,360.0,365.0,371.5,372.5,383.0,385.5,390.0,390.0,398.5" stroke="black" stroke-width="2" fill="none" />
<polyline points="357.5,405.0,362.5,413.0,366.5,420.5,365.0,428.5,365.5,436.5,364.5,444.5,363.0,452.5,362.0,461.0,361.0,469.5,360.0,477.5,359.0,485.5,358.5,493.5,357.5,501.5,356.5,509.5,355.5,517.5,354.0,525.5,353.0,534.0,352.5,542.0,351.5,550.0,350.5,558.0,350.0,565.5,348.5,573.5,347.0,581.5,346.0,589.5,344.5,597.5,343.0,605.5,343.5,613.5,342.5,621.5,339.5,631.5,341.5,639.5,341.5,646.5,341.5,656.5,341.5,664.0,342.5,672.0" stroke="black" stroke-width="2" fill="none" />
<polyline points="368.0,660.0,371.5,659.5,364.0,663.5,359.0,662.5,359.0,654.5,358.5,647.0,358.0,639.0,359.0,631.0,358.0,622.5,358.0,614.5,367.5,607.5,363.5,609.0,355.5,610.5,348.0,608.5" stroke="black" stroke-width="2" fill="none" />
<polyline points="344.0,603.0,352.0,602.0,360.0,602.0,368.5,603.5,373.5,606.5,374.5,614.5" stroke="black" stroke-width="2" fill="none" />
<polyline points="377.0,627.5,385.0,636.0" stroke="black" stroke-width="2" fill="none" />
<polyline points="388.5,640.0,380.5,638.0,372.5,638.0,364.5,637.0" stroke="black" stroke-width="2" fill="none" />
<polyline points="363.5,629.5,367.0,626.5,363.0,626.5,361.0,634.5,364.0,634.5,364.0,624.5,372.5,626.5,380.5,628.0,388.5,637.0" stroke="black" stroke-width="2" fill="none" />
<polyline points="376.5,658.0,377.0,666.0,377.5,674.0,377.0,682.0,392.5,690.5,404.0,698.5,411.5,706.0,412.0,714.0,411.0,721.5,406.0,729.5,395.0,737.5" stroke="black" stroke-width="2" fill="none" />
<polyline points="409.0,702.0,401.0,694.5,393.0,690.5,385.5,687.0,377.5,684.5" stroke="black" stroke-width="2" fill="none" />
<polyline points="336.0,645.5,328.0,643.5" stroke="black" stroke-width="2" fill="none" />
<polyline points="339.0,651.5,331.0,648.5,323.0,652.5,315.5,658.5,307.5,664.5,299.5,672.0,297.5,674.0,305.5,666.0,315.5,658.0,326.0,650.0,327.0,640.5,328.0,632.5,327.0,628.5,319.0,627.5,311.0,634.5,303.0,641.5,295.0,648.5,286.5,654.5,278.5,660.5" stroke="black" stroke-width="2" fill="none" />
<polyline points="244.5,709.5,253.0,696.5,260.5,690.5,268.5,684.5,277.0,682.0,285.5,678.0,283.0,681.5,273.0,685.0,280.5,682.0,289.0,681.0,303.0,677.5,310.5,676.5,318.0,676.0,326.0,677.0,334.0,676.0,342.0,675.5" stroke="black" stroke-width="2" fill="none" />
<polyline points="314.0,728.0,306.0,725.0,297.5,722.5,289.5,718.5,287.5,721.5" stroke="black" stroke-width="2" fill="none" />
<polyline points="293.0,723.5,301.5,727.5" stroke="black" stroke-width="2" fill="none" />
<polyline points="273.5,743.0,257.5,735.0,249.0,726.5,245.0,718.0,245.0,710.0,249.0,702.0,255.0,694.5,269.0,686.5,280.5,679.5,279.5,672.5,279.5,664.5,285.5,656.5,296.5,648.5,305.5,640.5,315.0,632.5,330.0,626.0,330.5,618.0,331.5,610.0,332.5,601.5,333.0,593.0,334.0,585.0,335.5,577.0,336.5,569.5,337.5,561.5,338.5,553.5,339.5,545.5,340.5,537.5,341.0,529.5,342.0,522.0,342.0,514.0,344.5,506.0,345.5,497.5,346.5,489.5,346.5,481.5,347.0,473.5,348.0,465.5,350.0,457.5,351.0,449.5,351.5,441.5,352.5,433.0,353.5,425.0,354.5,417.0,355.5,409.5,355.5,402.0,349.5,394.0,344.0,386.0,336.5,378.0,331.5,370.0,325.5,362.0,320.5,354.0,314.5,346.0,308.5,337.5,303.5,329.5,297.5,321.5,291.5,314.0,285.5,306.0,278.0,298.0,271.0,290.0,266.5,282.0,261.5,271.0" stroke="black" stroke-width="2" fill="none" />
<polyline points="269.5,281.5,275.5,289.5" stroke="black" stroke-width="2" fill="none" />
<polyline points="309.0,293.5,309.0,301.5,314.0,309.0,319.0,317.0,325.5,324.5,330.5,332.0,336.5,340.0,341.0,348.0,346.0,356.5,351.5,364.5,356.5,372.5,362.5,380.5,368.0,388.5" stroke="black" stroke-width="2" fill="none" />
<polyline points="374.5,389.0,370.0,381.0,365.0,373.5,360.0,365.5,354.0,357.5,348.5,349.0,343.0,341.0,337.0,333.0,331.5,325.0,325.5,317.0,321.5,310.0,315.5,302.5,310.5,294.5" stroke="black" stroke-width="2" fill="none" />
<polyline points="299.0,275.5,310.5,269.5" stroke="black" stroke-width="2" fill="none" />
<polyline points="358.0,253.5,349.5,261.5,341.5,266.5,333.5,272.5,325.5,279.5,317.5,289.0,326.5,287.5,335.0,279.5,342.5,271.0,357.0,264.0,362.0,260.0,367.5,252.5,368.5,245.0,370.0,237.0,371.5,229.5,373.0,221.0,378.0,212.5,377.0,204.0,372.0,206.0,363.5,216.0,355.5,223.0,348.0,226.0,339.5,227.5,331.5,224.5,323.0,219.0" stroke="black" stroke-width="2" fill="none" />
<polyline points="316.5,214.0,324.5,225.0,332.0,228.5" stroke="black" stroke-width="2" fill="none" />
<polyline points="354.5,223.5,364.5,216.0,371.5,208.0,373.5,215.0,366.5,222.0,356.5,230.0,348.5,234.0,340.5,234.0,332.5,230.5,325.5,226.5,319.0,218.5,315.0,210.5,313.0,202.5,311.0,194.5,309.0,186.5,306.0,181.5" stroke="black" stroke-width="2" fill="none" />
<polyline points="314.0,183.5,315.0,191.5,315.5,199.0,317.5,207.0,321.5,215.5,329.5,223.5" stroke="black" stroke-width="2" fill="none" />
<polyline points="351.0,231.5,361.0,223.5" stroke="black" stroke-width="2" fill="none" />
<polyline points="365.5,228.0,364.0,225.0,362.0,233.5,361.0,241.5,360.0,249.0,356.0,257.0,343.5,265.0,332.5,273.5,324.5,281.5,319.5,290.0,323.5,292.0,326.5,285.0,333.5,280.5,341.0,274.5,349.0,269.0,356.5,264.0,364.0,255.5" stroke="black" stroke-width="2" fill="none" />
<polyline points="364.5,245.0,366.0,236.0,367.5,228.0,369.5,220.0,370.5,212.0,371.5,210.0" stroke="black" stroke-width="2" fill="none" />
<polyline points="302.0,153.0,294.0,142.0,285.5,138.0,277.5,137.5,269.5,137.5" stroke="black" stroke-width="2" fill="none" />
<polyline points="288.0,140.0,298.0,148.0,302.5,156.0,305.0,164.0,305.0,172.0,304.5,180.0,301.5,188.0,295.0,196.0" stroke="black" stroke-width="2" fill="none" />
<polyline points="248.0,234.5,248.0,242.5,250.0,250.5,250.0,258.5,250.0,266.5,251.0,274.0,252.0,282.0,251.0,290.0,252.5,298.0,259.0,298.5,269.0,299.5" stroke="black" stroke-width="2" fill="none" />
<polyline points="191.0,192.0,201.5,184.0,196.5,189.0,188.0,194.0,180.0,196.5,172.0,197.5,164.0,197.0,155.5,193.0,147.5,186.0,139.5,169.0" stroke="black" stroke-width="2" fill="none" />
<polyline points="139.5,145.0,147.0,127.5,155.5,120.0,163.0,115.0,171.0,114.5,179.0,114.5,187.0,117.5,195.0,123.0,203.5,133.0" stroke="black" stroke-width="2" fill="none" />
<polyline points="202.0,156.5,201.0,149.0,200.0,141.5,202.0,132.5,195.0,124.5,182.0,116.5" stroke="black" stroke-width="2" fill="none" />
<polyline points="166.5,114.0,152.5,122.0,146.5,130.0,142.5,138.0,139.5,146.0,138.5,154.0,138.5,162.0,140.5,169.5,142.0,177.5,147.5,185.0,155.5,193.0" stroke="black" stroke-width="2" fill="none" />
<polyline points="123.5,250.0,136.5,258.0" stroke="black" stroke-width="2" fill="none" />
<polyline points="240.5,111.5,232.5,93.5,224.0,80.0,216.0,71.0,207.5,63.0,199.5,58.0,191.5,54.0,183.0,51.0,175.0,49.5,167.0,48.5,158.0,49.5,149.5,50.0" stroke="black" stroke-width="2" fill="none" />
<polyline points="144.5,50.0,128.5,58.0,135.5,54.0,144.5,50.5,149.5,53.0,157.5,52.0,165.5,51.5,174.0,52.5,182.0,55.0,190.0,58.5,198.0,62.0,206.0,68.5,214.0,76.0,222.0,84.5,230.5,98.5" stroke="black" stroke-width="2" fill="none" />
<polyline points="239.5,125.0,236.5,117.0,234.5,109.0,230.5,101.0,226.5,93.5,221.5,85.5,215.5,77.5,208.5,69.5,198.5,61.0,182.0,53.0" stroke="black" stroke-width="2" fill="none" />
<polyline points="183.0,50.0,200.0,58.5,209.5,66.5,217.0,74.5,224.0,83.0,229.0,91.0,233.0,99.0,236.0,107.0,239.0,115.0,241.5,123.0" stroke="black" stroke-width="2" fill="none" />
<polyline points="311.0,183.5,307.5,175.0,299.5,191.0,291.5,200.0,283.5,204.0,275.5,203.0,265.5,200.0,267.5,192.0,269.0,184.0,270.0,176.5,271.0,168.5,270.5,160.5,270.5,152.0,269.0,144.5,270.5,136.5,267.0,128.5,264.5,120.5,260.5,113.0,256.5,105.0,251.0,97.0,244.0,88.5,235.5,80.5,224.0,72.5,213.0,64.5,201.5,56.5,184.5,48.0" stroke="black" stroke-width="2" fill="none" />
<polyline points="352.0,615.5,351.0,623.0,351.0,630.5,350.0,638.5" stroke="black" stroke-width="2" fill="none" />
<polyline points="405.0,729.5,396.5,735.5,389.0,741.5,381.0,745.0,373.0,747.0,365.0,749.5,357.5,750.0,349.5,750.5,342.0,751.0,334.0,751.0,325.5,751.0,318.0,750.0,310.0,749.5,301.5,749.0,293.0,748.0,285.0,745.5,277.0,743.5,269.0,740.0,261.0,736.5,253.0,731.5,245.0,720.5" stroke="black" stroke-width="2" fill="none" />
<polyline points="227.5,685.0,219.5,685.0,212.0,685.0,204.0,685.5,195.5,686.5" stroke="black" stroke-width="2" fill="none" />
<polyline points="263.5,684.5,255.5,685.5,247.5,684.0,239.0,684.0,231.0,683.0,223.0,680.5,215.5,679.5,208.0,678.5,200.5,678.0,192.5,678.0,186.0,680.5,177.5,683.0,170.5,684.0,165.5,685.0,157.5,684.0,150.5,688.0,142.0,690.0,134.0,691.5,126.0,691.5,118.5,695.0,110.5,697.0,102.5,700.0,96.5,704.0,88.5,703.0,87.5,706.0,84.5,711.0,76.0,713.0,73.0,717.5,65.0,720.5,56.5,736.5,59.5,735.0,66.0,726.5,65.5,732.5,63.0,729.5" stroke="black" stroke-width="2" fill="none" />
<polyline points="61.5,741.5,63.5,735.5,62.5,743.5,59.5,751.5,58.5,759.5" stroke="black" stroke-width="2" fill="none" />
<polyline points="59.5,764.0,56.5,766.5,54.0,764.5,56.0,756.5,55.5,749.0,56.5,741.0,58.5,733.0,62.0,725.0,70.0,719.0,76.5,713.5,80.5,705.5,91.0,698.0,111.0,690.0" stroke="black" stroke-width="2" fill="none" />
<polyline points="122.0,686.0,116.0,694.0,98.5,699.0,90.5,706.5,82.5,711.5,81.0,704.5,88.5,699.5,96.0,695.5,104.0,692.5,112.5,689.0,120.0,687.0,128.0,685.0,136.0,683.0,144.5,683.5,152.5,683.5,160.5,680.5,168.5,679.5,176.5,677.5,184.5,676.0,192.5,674.5,201.0,675.5,209.0,675.5,217.0,676.0,225.0,676.5,232.5,678.5,240.5,680.0,248.0,681.0,255.5,680.5,263.5,679.5,271.0,677.5" stroke="black" stroke-width="2" fill="none" />
</svg>