<svg xmlns="http://www.w3.org/2000/svg" version="1.1"><polyline points="258.0,1.5,258.0,9.5,259.0,17.5,258.5,25.5,259.5,34.0,259.5,42.0,259.5,50.5,259.0,58.5,258.5,66.5,258.5,75.0,256.5,83.0,256.5,91.0" stroke="black" stroke-width="2" fill="none" />
<polyline points="259.5,75.5,259.5,83.5,259.0,92.0,259.0,100.0,258.5,108.0,258.5,121.5,257.5,128.5,258.5,136.0,258.5,144.0" stroke="black" stroke-width="2" fill="none" />
<polyline points="258.5,161.5,259.5,170.0,259.5,177.5,259.5,184.5,259.0,192.5,258.5,200.5,258.0,208.5,258.0,216.5,258.0,224.5,257.5,232.5,257.5,240.5,257.5,249.0,258.0,257.0,258.0,265.0,258.5,273.5,257.5,282.0,257.5,290.0,258.0,298.0,258.0,305.5,258.0,313.5,259.5,321.5,259.0,329.5,259.0,338.0,255.0,341.0" stroke="black" stroke-width="2" fill="none" />
<polyline points="269.5,331.5,269.5,337.5,273.5,330.0,275.5,322.5,277.5,314.5,276.5,306.5,276.0,298.5,273.5,290.0,270.5,286.5,270.0,282.0,271.5,274.0,271.0,266.0,272.0,258.0,272.5,250.0,273.5,243.0,274.5,235.0,276.5,227.0,273.0,221.5,269.5,217.5,268.5,210.0,265.0,202.0,263.0,193.5,264.5,185.5,268.5,177.0,280.5,174.0,272.5,176.0" stroke="black" stroke-width="2" fill="none" />
<polyline points="281.0,172.5,289.0,173.5" stroke="black" stroke-width="2" fill="none" />
<polyline points="282.5,171.5,271.5,178.5,267.0,186.5,266.5,194.5,270.0,202.0" stroke="black" stroke-width="2" fill="none" />
<polyline points="267.0,197.5,275.0,207.5,283.5,210.0,291.5,209.0,299.0,203.5" stroke="black" stroke-width="2" fill="none" />
<polyline points="297.5,216.5,289.5,226.5,282.0,224.5,274.0,226.0" stroke="black" stroke-width="2" fill="none" />
<polyline points="274.0,218.5,281.5,215.5,289.5,215.5,297.0,212.0" stroke="black" stroke-width="2" fill="none" />
<polyline points="263.5,201.0,271.0,209.0,272.5,222.5,268.5,232.5,269.0,242.0,268.0,250.0,267.0,258.0,267.0,266.0,266.0,273.5,266.0,281.5,268.0,289.5,271.0,298.0,273.0,306.0,274.5,314.0,274.0,322.0,271.0,329.5,268.0,337.5,271.5,334.0" stroke="black" stroke-width="2" fill="none" />
<polyline points="250.5,339.5,251.5,331.5,252.5,323.5,251.5,315.5,249.5,307.5,248.0,300.0,245.5,292.5,244.5,284.5,243.5,276.5,242.5,268.0,241.5,260.0,240.0,252.0,240.0,243.5,237.5,235.5,241.5,225.0,243.0,217.0,241.0,209.0,241.0,208.0" stroke="black" stroke-width="2" fill="none" />
<polyline points="243.5,223.5,245.5,221.5,247.0,211.5,249.5,203.5,251.5,195.5,251.5,188.0,250.0,180.5,244.0,173.0,229.5,174.0" stroke="black" stroke-width="2" fill="none" />
<polyline points="237.0,171.0,244.5,176.5" stroke="black" stroke-width="2" fill="none" />
<polyline points="263.0,186.5,271.0,173.5,278.5,170.0,286.5,170.0,295.0,165.5" stroke="black" stroke-width="2" fill="none" />
<polyline points="306.0,169.5,306.5,161.5,307.5,153.5,306.0,145.5,304.0,137.5,300.0,136.5" stroke="black" stroke-width="2" fill="none" />
<polyline points="301.5,135.0,302.5,142.5,304.0,150.5,304.0,159.0,303.0,167.0,297.0,173.5,300.5,181.5,300.5,189.5,302.0,197.0,297.5,205.0" stroke="black" stroke-width="2" fill="none" />
<polyline points="248.5,234.5,246.0,242.5,246.5,251.0,247.5,259.0,248.5,267.0,248.5,274.5,248.0,282.5,247.5,290.5,245.5,298.5,250.0,308.0,254.0,319.0" stroke="black" stroke-width="2" fill="none" />
<polyline points="238.0,205.5,246.0,197.5,248.5,189.5,246.5,181.5,240.0,174.0,223.0,171.5,218.0,163.5,217.0,157.0,219.0,148.5,223.0,140.5,229.5,132.5,233.5,129.5,225.5,137.5,217.5,152.5" stroke="black" stroke-width="2" fill="none" />
<polyline points="214.0,147.0,222.5,132.0,230.0,120.5,238.0,116.5,245.5,114.0,253.5,113.5,261.5,112.5,269.5,115.0,277.5,117.5,285.5,121.5,293.5,133.5" stroke="black" stroke-width="2" fill="none" />
<polyline points="277.5,130.5,269.0,124.5,261.5,123.0" stroke="black" stroke-width="2" fill="none" />
<polyline points="259.0,118.0,266.5,118.0,274.0,120.0,282.0,124.0,290.5,136.5" stroke="black" stroke-width="2" fill="none" />
<polyline points="278.5,134.5,269.0,127.0,253.0,125.0,245.0,125.5,237.0,127.5" stroke="black" stroke-width="2" fill="none" />
<polyline points="242.0,116.5,226.5,124.0,221.5,132.0,215.5,139.5,212.5,147.5,211.0,155.5,212.5,163.0,213.0,170.5,215.0,172.5,211.5,180.5,209.5,188.5,211.5,196.5,217.0,204.5,222.0,207.0,228.0,209.0,235.5,208.5,243.5,202.0" stroke="black" stroke-width="2" fill="none" />
<polyline points="239.5,223.5,231.5,224.5,223.5,222.5,215.5,214.0,211.0,204.5" stroke="black" stroke-width="2" fill="none" />
<polyline points="218.5,201.0,210.0,192.0" stroke="black" stroke-width="2" fill="none" />
<polyline points="213.5,216.0,210.5,208.5,208.0,200.5,206.0,192.5,207.0,184.5,207.5,176.5,206.0,169.0,205.0,161.0,205.5,152.5,209.5,144.5,212.5,137.0,217.0,129.5,224.0,121.5,216.5,129.5,208.5,144.5" stroke="black" stroke-width="2" fill="none" />
<polyline points="208.0,152.0,208.0,160.0,209.5,168.5,214.5,167.5,222.0,171.0,230.0,170.5,238.0,170.5,245.5,176.0" stroke="black" stroke-width="2" fill="none" />
<polyline points="299.5,178.0,288.5,172.5,292.0,168.0,297.5,160.0,296.0,152.0,293.5,144.5,289.5,136.5,284.5,128.5,274.5,120.5" stroke="black" stroke-width="2" fill="none" />
<polyline points="273.0,116.5,287.0,124.5,291.0,133.0,297.5,141.0,300.5,149.0,302.0,156.5,299.5,164.5,299.0,172.5,306.0,179.0,306.0,187.0,306.0,195.0,303.0,203.0,297.0,211.5,297.0,219.5" stroke="black" stroke-width="2" fill="none" />
</svg>