<svg xmlns="http://www.w3.org/2000/svg" version="1.1"><polyline points="61.0,8.5,61.0,16.5" stroke="black" stroke-width="2" fill="none" />
<polyline points="70.5,16.5,71.5,24.5,60.0,35.0,54.0,43.0,53.0,43.5,61.0,32.5,64.0,28.5" stroke="black" stroke-width="2" fill="none" />
<polyline points="27.0,58.0,35.5,63.0,43.5,66.5,51.5,72.0,59.5,75.5,67.5,79.5,76.0,82.5" stroke="black" stroke-width="2" fill="none" />
<polyline points="78.5,87.5,70.5,84.0,62.5,81.0,54.5,77.0,47.5,73.5,39.5,70.0,31.5,65.5,23.5,63.5,19.5,57.5,10.0,55.5,2.0,51.5" stroke="black" stroke-width="2" fill="none" />
<polyline points="3.0,57.5,11.0,59.5" stroke="black" stroke-width="2" fill="none" />
<polyline points="26.0,58.5,38.0,66.5,51.0,73.5,70.5,81.5" stroke="black" stroke-width="2" fill="none" />
<polyline points="58.0,80.5,42.0,73.0,27.0,65.0" stroke="black" stroke-width="2" fill="none" />
<polyline points="170.0,124.5,178.0,117.5,186.0,114.5,194.0,113.5,202.0,110.5,221.0,106.0,224.0,96.5,235.5,86.5" stroke="black" stroke-width="2" fill="none" />
<polyline points="228.0,91.5,228.0,99.5,228.0,108.0" stroke="black" stroke-width="2" fill="none" />
<polyline points="218.5,109.5,215.0,110.0,226.0,109.0,224.5,105.0,226.5,97.5,218.0,100.0,217.0,92.0,216.0,90.0" stroke="black" stroke-width="2" fill="none" />
<polyline points="198.5,102.5,198.5,94.0,197.0,86.0,195.0,78.0" stroke="black" stroke-width="2" fill="none" />
<polyline points="193.0,80.5,201.0,79.0,209.0,78.0,216.5,78.0,224.0,79.0,232.0,79.0,239.5,82.0,233.0,87.5,232.5,96.0,232.5,104.0,231.5,112.0,235.5,116.0,244.0,118.0,252.0,120.5,260.5,125.0" stroke="black" stroke-width="2" fill="none" />
<polyline points="254.0,120.5,262.5,128.5,266.0,136.5,267.0,144.0,267.0,152.0,267.0,160.0,267.0,168.0,267.0,176.5,267.5,184.5,267.5,193.0,267.5,201.0,268.0,209.0,267.5,217.0,267.5,225.0,267.5,233.0,267.5,240.5,267.0,248.5,266.5,256.5,266.0,264.5,265.0,272.5,267.5,275.5,268.0,279.5,276.0,282.0,275.0,290.0,284.0,288.5,296.5,288.0,294.5,296.0,303.5,302.0,300.0,306.5,297.5,311.5,290.5,319.5,285.5,321.0,288.0,321.0,296.0,321.0,298.0,325.5,306.0,319.0,314.0,312.0,316.5,318.0,324.0,315.0,326.5,309.5,334.5,302.5,342.5,301.5,343.0,304.5,350.5,304.5,358.5,303.0,363.5,310.0,373.0,307.0,385.0,311.0,393.5,309.0,401.5,311.0,410.5,312.0,418.5,312.0,427.5,318.0,430.0,310.0,433.0,303.5,441.0,300.5,449.0,300.5,450.0,295.5,458.0,293.0,463.0,301.0" stroke="black" stroke-width="2" fill="none" />
<polyline points="462.0,303.5,462.0,295.5" stroke="black" stroke-width="2" fill="none" />
<polyline points="464.0,283.5,472.0,283.0,480.0,280.5,483.0,274.5,487.0,279.5" stroke="black" stroke-width="2" fill="none" />
<polyline points="495.5,282.0,501.5,280.0,507.5,281.5,507.5,289.5,506.0,295.5,507.0,303.5,506.0,311.5,502.5,316.0,494.5,326.5,493.5,334.5,482.5,339.0,483.5,336.5,488.5,340.5,493.5,340.0,501.5,338.0" stroke="black" stroke-width="2" fill="none" />
<polyline points="498.5,329.5,506.5,330.5" stroke="black" stroke-width="2" fill="none" />
<polyline points="502.0,335.0,494.5,335.5,486.5,335.5" stroke="black" stroke-width="2" fill="none" />
<polyline points="485.0,333.0,493.0,327.5,500.5,328.5,509.0,327.0" stroke="black" stroke-width="2" fill="none" />
<polyline points="511.0,306.5,510.0,299.0,502.0,298.0" stroke="black" stroke-width="2" fill="none" />
<polyline points="496.5,294.0,503.5,286.0,499.5,283.5,491.5,288.5,484.0,293.5,476.0,293.0" stroke="black" stroke-width="2" fill="none" />
<polyline points="475.0,296.5,471.5,305.0,475.5,310.5,478.5,321.5,474.5,324.5,480.0,323.5,488.0,321.0,500.5,320.5" stroke="black" stroke-width="2" fill="none" />
<polyline points="486.0,324.0,478.0,326.0" stroke="black" stroke-width="2" fill="none" />
<polyline points="479.0,338.5,486.0,334.5,489.0,322.5,488.0,316.0,486.0,312.0,480.5,314.0,487.0,304.0,480.5,302.5,477.5,302.5,475.5,301.5" stroke="black" stroke-width="2" fill="none" />
<polyline points="492.0,290.5,479.5,289.5,471.5,293.0,463.0,296.0,455.0,301.0,446.5,302.0" stroke="black" stroke-width="2" fill="none" />
<polyline points="440.5,328.0,434.5,330.5,432.5,325.5,430.5,314.5,433.5,313.5,439.0,304.5,450.0,297.0,444.0,292.0,451.5,291.0,458.5,286.5,453.0,280.5,442.0,273.5,445.5,266.0,448.5,261.0,458.5,250.5,452.5,249.0,456.5,247.0,460.5,239.0,463.5,231.0,468.0,220.0,474.0,206.5,471.5,203.5,472.5,195.0,473.0,190.0,477.0,182.5,483.0,179.5,487.5,182.5,479.5,179.0" stroke="black" stroke-width="2" fill="none" />
<polyline points="481.0,185.0,488.5,186.0,484.5,193.5,480.0,202.5,471.5,203.5,476.5,190.5,485.5,195.5,493.5,187.5,488.5,192.0,493.5,194.0,501.5,193.5,509.5,192.5" stroke="black" stroke-width="2" fill="none" />
<polyline points="504.5,195.5,496.5,196.5,488.5,197.5,480.5,201.5,475.5,199.0,476.5,198.0,480.5,189.5,472.5,187.5" stroke="black" stroke-width="2" fill="none" />
<polyline points="432.5,199.5,440.0,206.5,443.0,220.5" stroke="black" stroke-width="2" fill="none" />
<polyline points="453.5,231.0,447.0,227.0,439.0,226.5,439.0,223.0,433.0,215.5,430.0,210.5" stroke="black" stroke-width="2" fill="none" />
<polyline points="424.0,203.5,432.0,205.5,436.0,203.0,441.5,204.0,446.5,211.5,447.5,219.0,451.0,221.5,452.0,229.5,456.0,237.5,451.0,246.0,441.0,254.0,434.0,262.5,443.0,265.5,446.0,276.0,454.0,268.5,458.0,268.5,460.0,278.0,468.0,275.0,474.5,270.0,482.5,271.5,482.5,264.5,492.5,262.0,490.0,269.5,492.0,273.5,489.0,273.5,494.0,283.5,491.0,287.5,494.5,283.5,496.0,277.0,504.5,280.5" stroke="black" stroke-width="2" fill="none" />
<polyline points="504.5,267.0,496.5,267.5" stroke="black" stroke-width="2" fill="none" />
<polyline points="503.0,251.0,511.0,249.0" stroke="black" stroke-width="2" fill="none" />
<polyline points="508.5,237.0,500.5,240.5,495.0,239.5,487.0,240.5,479.0,247.0,474.0,240.0,466.0,244.0,462.0,245.5,454.0,249.5" stroke="black" stroke-width="2" fill="none" />
<polyline points="461.0,260.5,454.0,268.5,455.5,272.5,458.5,274.5,458.5,280.5,465.5,283.0,471.5,287.0,469.5,295.5,456.5,296.5,448.0,303.0,443.0,311.0,453.0,313.0,446.5,317.0,435.5,322.5" stroke="black" stroke-width="2" fill="none" />
<polyline points="435.5,325.0,429.0,330.0,421.0,336.0,413.0,334.0,411.0,337.0,402.5,339.0,408.5,340.5,413.5,333.0,401.5,333.0,414.5,323.0,404.5,321.5,401.0,313.0,399.0,308.0,402.0,313.0,396.0,312.5,389.0,315.5,381.0,312.5,373.5,321.0,365.5,321.0,357.5,320.5,352.0,316.0,351.5,314.0,343.5,313.0,342.0,310.0,338.5,310.0,330.5,320.0,325.5,328.0,317.5,323.5,317.0,316.5,312.5,326.0,303.5,341.0,297.5,338.5,292.5,330.5,289.5,335.0,304.5,338.5,300.5,332.5,303.5,325.0,312.0,321.5,316.0,314.5,323.0,313.5,318.5,310.5,329.5,306.5,340.5,300.0,332.5,296.0,335.5,296.0,337.5,288.5,329.5,284.5,339.5,280.5,342.5,278.0,345.5,270.0,348.5,266.0,346.0,258.0,352.5,257.5,345.0,260.5" stroke="black" stroke-width="2" fill="none" />
<polyline points="348.0,260.0,355.0,260.0,356.5,268.0,352.0,267.0,347.5,279.5,352.0,271.5,353.5,262.0" stroke="black" stroke-width="2" fill="none" />
<polyline points="350.0,271.5,358.0,269.5,366.5,266.5,374.5,265.5,381.5,269.5" stroke="black" stroke-width="2" fill="none" />
<polyline points="393.5,273.0,385.0,281.0,377.0,285.5,379.0,289.5,383.5,293.5,378.5,297.0" stroke="black" stroke-width="2" fill="none" />
<polyline points="384.0,291.0,392.0,292.0,400.0,290.5" stroke="black" stroke-width="2" fill="none" />
<polyline points="405.5,287.5,397.0,284.5" stroke="black" stroke-width="2" fill="none" />
<polyline points="398.5,279.5,406.5,282.5,416.5,278.5" stroke="black" stroke-width="2" fill="none" />
<polyline points="414.0,271.0,426.0,276.0,428.0,276.0,433.0,279.5,427.0,287.5,434.0,293.0,433.0,299.5,434.5,307.0,428.0,307.5,438.5,305.5,445.5,307.0,448.5,306.0,450.5,303.5,461.0,303.5,468.5,302.0,470.0,300.0,465.0,304.0,459.5,303.5,466.5,307.5,472.0,319.0,477.0,320.5,462.0,333.0,452.5,338.0" stroke="black" stroke-width="2" fill="none" />
<polyline points="430.5,332.0,424.5,338.0,415.5,339.5,414.5,338.5,418.0,324.5,418.5,311.0,429.5,309.0,426.5,309.0,422.5,300.5,424.5,290.5,414.5,285.0,411.5,277.5,407.0,275.5,416.0,267.5,414.0,263.5,412.0,257.5,404.0,254.5,396.0,256.5" stroke="black" stroke-width="2" fill="none" />
<polyline points="404.0,258.0,412.0,261.0,420.0,270.0" stroke="black" stroke-width="2" fill="none" />
<polyline points="428.5,271.0,436.5,272.5,444.5,270.0,458.5,264.0,466.5,266.0,472.5,260.5,475.5,265.5,483.0,260.5,489.0,270.0,496.0,273.0,504.0,272.0,512.0,268.5" stroke="black" stroke-width="2" fill="none" />
<polyline points="508.5,242.0,500.5,242.0,494.5,246.0,486.0,246.5,479.0,257.5,470.5,254.5,470.0,257.5,462.0,264.5,454.0,262.0,445.5,260.0,445.5,257.0,437.5,262.5" stroke="black" stroke-width="2" fill="none" />
<polyline points="429.5,277.5,423.5,285.5,421.5,293.5,417.5,298.5,425.5,298.0,433.5,297.0,441.5,293.0,449.0,289.5,462.0,284.0,468.0,284.5,478.5,286.5" stroke="black" stroke-width="2" fill="none" />
<polyline points="445.5,294.0,436.5,291.5,428.5,292.5,421.0,283.0,413.5,281.5,410.0,283.5,403.5,281.5,391.5,284.5" stroke="black" stroke-width="2" fill="none" />
<polyline points="397.5,275.5,397.5,276.5,395.0,284.5,406.5,286.5,411.5,293.0,420.5,301.0" stroke="black" stroke-width="2" fill="none" />
<polyline points="411.0,312.5,406.0,320.5,416.0,322.5,422.0,328.0" stroke="black" stroke-width="2" fill="none" />
<polyline points="427.0,328.5,420.0,336.5" stroke="black" stroke-width="2" fill="none" />
<polyline points="405.5,325.0,398.5,325.0,390.0,325.5,383.0,324.5,375.0,327.5,360.5,325.0,363.0,325.5,355.0,329.5,350.0,324.0,346.5,326.0,338.5,331.0,330.5,338.0,321.5,338.5,320.5,338.5,326.0,338.5,327.0,330.0,325.0,328.5,330.0,320.5,333.0,308.0,325.0,306.0,318.0,308.0,312.0,308.5,301.5,306.0,303.5,298.0,297.0,299.0,289.0,293.0" stroke="black" stroke-width="2" fill="none" />
<polyline points="286.0,291.0,293.5,283.0" stroke="black" stroke-width="2" fill="none" />
<polyline points="305.0,292.5,313.0,289.5,320.0,284.5,333.0,286.0,341.0,287.0,347.5,293.5,355.0,292.0,359.0,290.0,361.5,294.5,371.5,292.5,380.5,283.0,388.5,284.5,394.0,278.5,402.0,282.5,410.0,288.0,417.5,286.0" stroke="black" stroke-width="2" fill="none" />
<polyline points="396.5,306.0,388.5,305.5" stroke="black" stroke-width="2" fill="none" />
<polyline points="394.5,321.5,380.5,329.0,382.5,331.0,379.5,334.0,388.0,332.5,394.5,333.5,402.5,327.5,405.0,329.5,413.0,326.0,421.0,323.0,429.0,322.0,437.0,321.0,438.5,315.0,451.5,320.5" stroke="black" stroke-width="2" fill="none" />
<polyline points="507.5,316.0,508.0,316.0,505.0,312.5,504.0,309.5,490.0,309.0,482.5,312.0,475.0,315.0,467.0,310.0,457.0,313.0,449.0,312.0,442.0,314.0,428.0,313.0,419.5,320.0,414.5,318.0,413.0,315.0,405.0,320.5,396.0,323.0,395.0,320.0,387.5,320.0,379.5,319.5,373.5,323.0,369.5,335.0,364.0,331.0,357.0,332.5,349.0,332.5,354.5,337.5,365.5,336.5,375.0,328.5,375.0,325.5,376.0,317.5,374.0,312.5,370.0,309.0,363.0,303.0,362.5,301.5,362.5,290.5,359.0,292.0,363.0,284.5,372.5,283.0,370.5,281.0,362.5,280.0" stroke="black" stroke-width="2" fill="none" />
<polyline points="347.0,286.5,354.5,285.5,361.0,287.5,369.0,284.5,375.0,286.5,381.0,279.5,385.5,284.5,389.5,276.0,400.5,273.0,407.5,275.5,415.5,275.5,423.5,270.5,431.5,266.5,431.5,264.0,436.5,267.0" stroke="black" stroke-width="2" fill="none" />
<polyline points="467.0,227.0,464.0,226.5,459.0,234.5,451.5,237.5,446.5,229.5,445.0,224.0,440.0,216.0,431.5,208.0,425.5,208.5,431.0,206.5,432.0,198.0" stroke="black" stroke-width="2" fill="none" />
<polyline points="500.5,240.5,493.5,243.5,487.5,245.5,484.0,246.5,479.0,248.5,469.5,254.0,471.0,262.0,481.5,260.5,488.5,263.5,485.5,264.5,473.5,275.0,477.0,276.5,488.0,278.0,482.0,286.0,488.5,288.5,488.5,297.5,491.0,303.5,490.5,302.0,495.0,303.0,498.0,316.0,506.0,321.0,506.5,321.0,505.5,333.0,500.5,340.0,509.5,333.0,511.5,337.0" stroke="black" stroke-width="2" fill="none" />
<polyline points="510.5,256.0,506.5,261.0,498.5,261.5,491.5,257.5,484.0,257.0,476.5,251.5,474.5,246.5,466.5,251.5,458.5,257.0,454.5,259.0,450.0,254.5,445.5,250.5,437.5,256.5,429.5,258.5,422.0,258.5,414.0,261.5,409.0,265.5,401.0,268.5,399.0,263.5,390.5,271.0,382.5,272.0,374.5,271.0,366.5,274.0,358.5,273.0,350.0,276.5,342.0,276.5,339.5,279.5,332.0,282.5,331.0,277.5,323.0,281.0,314.5,282.0,306.5,280.0,301.5,285.5,293.5,285.0,294.0,291.0,287.0,283.0,279.5,284.5,276.5,289.5,273.5,281.0,273.0,275.0,268.0,284.0,268.0,270.0,260.0,265.0" stroke="black" stroke-width="2" fill="none" />
<polyline points="260.5,267.0,263.5,275.0,265.5,282.5,272.5,286.5,268.5,294.5,262.5,302.5,247.0,306.5,252.5,315.0,246.5,323.0,243.5,324.0,233.5,328.5,238.5,332.0,234.5,335.0,242.5,340.0,245.0,330.5,250.5,318.5,252.5,323.5,256.0,321.5,264.0,321.0,272.0,326.0,274.0,318.0,284.0,315.0,295.5,316.0,305.5,323.5,309.0,325.0" stroke="black" stroke-width="2" fill="none" />
<polyline points="309.0,332.5,317.0,336.0,325.5,332.0,333.5,334.5" stroke="black" stroke-width="2" fill="none" />
<polyline points="345.0,322.5,337.5,325.5,332.5,320.5,337.5,326.0,339.0,322.5,335.0,322.0,335.5,314.0,326.5,314.0" stroke="black" stroke-width="2" fill="none" />
<polyline points="322.5,317.5,325.5,325.5,329.5,332.5,326.5,340.5" stroke="black" stroke-width="2" fill="none" />
<polyline points="319.5,333.5,316.5,326.0" stroke="black" stroke-width="2" fill="none" />
<polyline points="316.0,321.0,310.0,329.0,309.5,335.0,311.5,337.5,314.0,338.5" stroke="black" stroke-width="2" fill="none" />
<polyline points="303.0,332.0,297.0,330.0,297.0,321.0,299.0,321.5,308.5,313.5,310.0,308.5,306.5,306.5,313.0,298.0,318.0,291.5,318.0,291.5,310.5,296.0,302.5,297.0" stroke="black" stroke-width="2" fill="none" />
<polyline points="306.0,294.5,314.0,294.5,322.0,292.0,330.0,292.0" stroke="black" stroke-width="2" fill="none" />
<polyline points="347.5,304.0,346.5,311.5,347.5,316.5,348.0,325.0,339.0,331.0,338.0,339.0,335.0,340.0,346.5,339.0,354.5,333.5,362.5,336.5" stroke="black" stroke-width="2" fill="none" />
<polyline points="375.5,331.0,383.5,329.0" stroke="black" stroke-width="2" fill="none" />
<polyline points="394.5,322.5,397.5,330.5,397.0,335.0,399.0,339.0" stroke="black" stroke-width="2" fill="none" />
<polyline points="363.0,326.5,366.0,318.0" stroke="black" stroke-width="2" fill="none" />
<polyline points="362.0,308.0,354.0,307.0" stroke="black" stroke-width="2" fill="none" />
<polyline points="351.0,303.0,350.0,311.0" stroke="black" stroke-width="2" fill="none" />
<polyline points="342.0,313.5,345.0,321.5,346.0,319.0" stroke="black" stroke-width="2" fill="none" />
<polyline points="287.0,324.5,294.0,333.0,287.0,337.0" stroke="black" stroke-width="2" fill="none" />
<polyline points="272.5,324.5,280.5,317.5,288.5,319.0,296.5,315.0,304.5,315.0" stroke="black" stroke-width="2" fill="none" />
<polyline points="289.0,327.5,281.0,328.5,281.0,321.5,278.0,329.5,270.5,332.5,265.5,328.0,257.5,328.0,254.5,341.0,253.5,335.0,248.5,333.5,244.5,339.5,232.5,332.5,225.0,332.0,216.5,330.5" stroke="black" stroke-width="2" fill="none" />
<polyline points="213.0,340.0,215.0,331.5,215.0,329.5,215.0,327.5,216.5,323.0,223.5,318.5,223.0,313.0,221.0,311.0,225.0,308.5,213.0,307.0" stroke="black" stroke-width="2" fill="none" />
<polyline points="209.0,308.5,216.5,310.5,217.5,316.5,225.0,318.0,228.5,313.5,236.5,312.0,241.5,312.0,246.5,304.5" stroke="black" stroke-width="2" fill="none" />
<polyline points="252.5,295.0,248.5,303.0,238.0,308.0,238.0,317.0,233.0,319.0,223.5,324.0,231.5,326.0,222.5,339.0,215.5,339.5" stroke="black" stroke-width="2" fill="none" />
<polyline points="202.0,334.0,199.0,321.0,197.0,316.0,201.5,307.5,196.5,299.5,205.0,298.5,206.0,305.0" stroke="black" stroke-width="2" fill="none" />
<polyline points="198.5,311.0,202.0,307.0,204.0,315.0,213.0,312.0,207.5,324.5,207.5,329.5,209.0,333.0" stroke="black" stroke-width="2" fill="none" />
<polyline points="199.0,316.5,207.0,316.0,203.0,324.0,204.0,320.0,209.5,322.0,217.5,323.5,225.5,323.0,232.5,319.0,239.5,324.5" stroke="black" stroke-width="2" fill="none" />
<polyline points="256.0,329.5,264.0,333.5" stroke="black" stroke-width="2" fill="none" />
<polyline points="267.5,317.0,270.0,314.0,277.0,320.0,281.5,328.5,284.5,336.5,280.5,341.0" stroke="black" stroke-width="2" fill="none" />
<polyline points="273.0,341.0,277.5,337.0,272.5,326.0,273.5,317.5,284.0,317.5" stroke="black" stroke-width="2" fill="none" />
<polyline points="281.5,306.0,272.0,314.0,261.5,316.0,267.5,320.0,266.5,326.0,271.5,329.5,272.0,336.5,256.5,338.5,258.0,338.5,265.0,339.5,268.5,340.5,278.0,335.5,282.0,339.0,291.0,340.0,299.0,341.5" stroke="black" stroke-width="2" fill="none" />
<polyline points="269.5,299.5,261.5,304.5,254.0,307.5,246.0,307.5,238.0,308.5,230.5,312.5,225.5,311.5,217.5,307.0" stroke="black" stroke-width="2" fill="none" />
<polyline points="203.5,333.0,195.0,332.0,187.0,332.0" stroke="black" stroke-width="2" fill="none" />
<polyline points="177.5,339.5,186.5,333.0,181.0,331.0,180.0,327.0,173.0,326.0,176.0,320.0,176.0,315.0,169.0,313.0,158.5,311.5,145.0,308.5,147.5,306.0,149.5,299.0,154.5,298.0,159.5,290.0,156.0,287.0,148.0,288.0" stroke="black" stroke-width="2" fill="none" />
<polyline points="144.0,278.0,151.5,278.0,154.5,281.0,160.5,286.0,168.5,288.0,176.5,293.0" stroke="black" stroke-width="2" fill="none" />
<polyline points="171.5,298.0,170.0,295.0,162.0,289.0" stroke="black" stroke-width="2" fill="none" />
<polyline points="161.5,290.0,158.5,298.0,163.5,300.5,162.5,305.5,169.0,307.5,162.5,310.5" stroke="black" stroke-width="2" fill="none" />
<polyline points="157.0,315.5,157.5,307.5,156.5,302.0,145.5,299.5,142.0,301.5,143.0,298.5,144.5,295.0,136.5,294.0,128.5,292.5,126.5,288.5" stroke="black" stroke-width="2" fill="none" />
<polyline points="121.0,285.0,123.0,293.0,116.0,292.5,122.5,294.5,129.5,298.5,138.5,300.5,142.0,303.0,139.5,303.5,142.5,311.5,146.0,315.5,142.0,316.5,152.0,324.5,151.5,332.5,151.5,334.5,149.0,340.0,161.0,338.0,173.5,337.5" stroke="black" stroke-width="2" fill="none" />
<polyline points="169.5,340.0,171.5,332.0" stroke="black" stroke-width="2" fill="none" />
<polyline points="167.0,335.0,161.0,338.5,167.5,330.5,168.0,324.0,166.0,321.0" stroke="black" stroke-width="2" fill="none" />
<polyline points="181.0,341.5,167.5,339.0,155.5,335.0,155.0,330.0,147.5,333.0,139.5,330.0,137.5,332.5,134.5,328.5,128.5,328.5,122.5,331.5,117.5,337.0,114.0,339.5,109.5,332.5,106.5,336.0,102.5,331.0,98.5,337.0,93.0,338.5,88.0,332.5,84.0,332.5,82.0,326.5,78.0,321.5,68.0,317.5,81.5,318.0,86.5,310.0,81.0,300.0,75.5,297.0,74.5,291.0,76.0,283.0,66.0,276.0" stroke="black" stroke-width="2" fill="none" />
<polyline points="74.0,281.0,66.5,279.5,58.5,279.5,51.0,272.5,49.0,274.0,43.0,281.0,41.0,283.0,38.0,289.0,30.5,284.0,29.5,281.0,25.0,279.0,17.0,281.0,9.0,281.0,9.0,276.0,9.0,278.0" stroke="black" stroke-width="2" fill="none" />
<polyline points="4.5,273.5,12.5,273.5,20.0,270.0,23.0,272.0,13.0,277.0,13.5,284.0,16.0,290.5,8.0,296.5,7.0,307.5,8.5,311.5,10.0,319.5,10.0,327.0,8.0,335.0,11.0,341.0,13.5,340.0,21.5,338.5,29.5,339.0,34.5,334.0,42.5,337.5,46.5,332.5,53.0,327.5,60.5,326.5,64.0,328.5,65.0,331.5,68.0,330.5,76.0,325.5,75.5,322.5,76.5,330.0,78.5,331.0,86.5,330.5,88.5,328.5,91.5,323.5,99.5,326.5,102.5,321.0,109.5,312.0,117.5,310.0,120.0,315.0,127.0,306.5,131.0,309.5,136.0,303.0,134.0,305.0,142.0,317.0,148.0,329.5,152.0,323.5,160.0,322.5,164.5,326.5,171.0,330.0,173.0,324.5,171.0,333.5,175.5,330.0,180.5,331.0,185.5,330.0,193.5,327.5" stroke="black" stroke-width="2" fill="none" />
<polyline points="192.5,302.0,192.0,303.5,187.0,306.0,186.0,298.0" stroke="black" stroke-width="2" fill="none" />
<polyline points="157.0,259.5,157.0,258.0,149.0,254.0" stroke="black" stroke-width="2" fill="none" />
<polyline points="151.0,252.5,148.0,261.0,153.0,268.5,155.0,267.5" stroke="black" stroke-width="2" fill="none" />
<polyline points="125.5,296.5,125.0,304.5,117.0,310.5,108.0,320.5,105.5,325.0,106.0,333.0,101.0,335.0,104.5,340.0" stroke="black" stroke-width="2" fill="none" />
<polyline points="117.5,341.5,120.0,331.5,112.0,326.5,115.0,318.5,109.5,308.5" stroke="black" stroke-width="2" fill="none" />
<polyline points="105.0,316.5,101.0,317.0,97.5,316.0,89.5,309.5,81.5,310.5,73.5,311.5,64.0,307.5,62.0,300.5,60.0,307.0,54.0,303.5,54.5,309.5,47.0,310.0,45.5,316.0,37.5,316.0,30.5,322.0,21.5,326.5,15.5,335.5,5.0,339.0,6.0,326.0,6.5,319.5,5.5,321.5" stroke="black" stroke-width="2" fill="none" />
<polyline points="0.0,316.5,8.0,311.5,11.5,307.0,15.0,301.0,23.5,302.0,26.5,306.0,32.5,301.5,38.5,310.5,46.5,306.5" stroke="black" stroke-width="2" fill="none" />
<polyline points="42.0,306.0,39.0,314.0,38.5,319.5,34.5,323.5,30.0,327.5,31.0,335.5,34.0,340.5" stroke="black" stroke-width="2" fill="none" />
<polyline points="26.0,318.5,27.0,314.5,26.0,321.0,27.5,329.0,27.5,332.0,28.0,327.0,33.5,325.0,38.0,321.5,43.0,320.5,42.0,329.0,46.0,322.0,49.0,325.5,57.0,324.0,61.0,336.0" stroke="black" stroke-width="2" fill="none" />
<polyline points="71.5,338.0,61.5,332.0,67.5,324.0,66.5,317.5,75.5,312.5,74.0,304.5,62.5,295.5,63.0,289.5,59.0,289.0,54.0,291.0" stroke="black" stroke-width="2" fill="none" />
<polyline points="52.5,287.0,48.5,295.5,50.0,303.0,54.0,308.5,55.0,313.0,54.5,319.0,63.5,316.0,69.5,305.5,73.5,303.0,82.0,299.5,90.0,299.5,98.0,298.5" stroke="black" stroke-width="2" fill="none" />
<polyline points="90.5,297.0,96.5,290.5,98.5,282.5" stroke="black" stroke-width="2" fill="none" />
<polyline points="105.5,289.0,104.5,297.5,107.5,307.5,114.5,309.0,125.0,317.0,128.0,326.0,134.0,328.0,137.0,335.0,140.5,342.0,137.0,338.5,124.0,338.5,129.0,340.5,137.0,334.5,148.0,339.5" stroke="black" stroke-width="2" fill="none" />
<polyline points="119.5,332.5,117.0,339.0,115.0,336.0,117.0,327.5,119.5,319.0" stroke="black" stroke-width="2" fill="none" />
<polyline points="125.0,308.5,129.5,309.5,129.5,314.5,137.5,315.0,145.0,327.5,143.0,335.5" stroke="black" stroke-width="2" fill="none" />
<polyline points="132.0,318.0,127.0,309.5" stroke="black" stroke-width="2" fill="none" />
<polyline points="127.0,299.0,135.0,307.0,136.5,315.5,133.5,323.5,133.5,319.5,142.0,322.0,147.0,323.0,154.5,320.0,162.5,320.0,171.0,315.5,173.0,321.5,178.0,319.5,181.5,322.0,183.5,326.0,188.5,322.0,191.0,316.0,193.0,321.0,198.0,328.0,209.0,323.5,212.0,328.0,217.0,328.5,221.0,321.5,229.0,327.0,234.5,321.5,238.5,316.5,246.5,318.5,247.5,312.0,254.5,314.0" stroke="black" stroke-width="2" fill="none" />
<polyline points="239.5,249.0,241.5,246.0,242.5,240.5,252.0,246.0,260.0,245.0,260.0,246.5" stroke="black" stroke-width="2" fill="none" />
<polyline points="253.0,222.5,253.5,220.5,261.5,220.5" stroke="black" stroke-width="2" fill="none" />
<polyline points="249.0,194.5,240.5,195.0" stroke="black" stroke-width="2" fill="none" />
<polyline points="242.5,194.5,241.0,202.5" stroke="black" stroke-width="2" fill="none" />
<polyline points="231.5,201.0,227.5,197.0,226.5,189.5,227.5,181.5,228.0,182.0" stroke="black" stroke-width="2" fill="none" />
<polyline points="224.0,181.0,221.0,181.0,221.0,182.0,220.5,190.0,219.5,200.0,227.5,199.0,222.5,211.0,224.5,214.5,231.0,210.5,233.5,211.5,238.0,213.5" stroke="black" stroke-width="2" fill="none" />
<polyline points="243.0,242.5,235.0,243.0" stroke="black" stroke-width="2" fill="none" />
<polyline points="244.0,208.0,235.5,214.0,232.5,208.0,221.5,207.5,213.0,207.5,215.5,210.5,211.5,209.5,215.5,197.5,224.0,189.0,229.5,184.0,235.0,183.0,238.0,181.0,225.0,173.5,222.0,169.0,217.0,167.0,217.5,159.0,217.5,156.5" stroke="black" stroke-width="2" fill="none" />
<polyline points="220.0,154.0,228.0,152.0,236.5,156.0" stroke="black" stroke-width="2" fill="none" />
<polyline points="245.0,166.5,229.5,168.5,221.5,163.0,222.5,158.0,220.5,155.0,223.0,162.5,215.0,162.5,219.0,173.5" stroke="black" stroke-width="2" fill="none" />
<polyline points="218.5,172.5,226.5,171.5,234.5,173.5" stroke="black" stroke-width="2" fill="none" />
<polyline points="244.0,145.5,249.5,138.0,245.5,139.0,236.5,137.5,232.5,130.5,226.5,140.0,227.5,135.0,221.5,139.5,213.5,138.5,213.5,139.5,203.0,132.0,214.0,128.5,212.0,125.5" stroke="black" stroke-width="2" fill="none" />
<polyline points="203.0,136.0,195.0,138.0" stroke="black" stroke-width="2" fill="none" />
<polyline points="193.0,129.5,192.0,137.5,200.5,132.5,208.0,132.5,219.0,130.0,220.0,133.5,228.0,133.5,228.5,130.0" stroke="black" stroke-width="2" fill="none" />
<polyline points="242.5,127.0,235.0,127.0,227.0,127.0,219.0,126.0,215.0,124.5,207.5,127.5,201.5,121.5,195.5,129.5,187.0,125.5,186.0,123.0,175.5,129.0,167.5,136.0" stroke="black" stroke-width="2" fill="none" />
<polyline points="170.5,129.5,178.5,126.0" stroke="black" stroke-width="2" fill="none" />
<polyline points="178.0,121.0,178.0,118.0,170.0,126.0,167.0,133.5,164.5,141.5,164.0,150.0,164.0,158.0,163.5,166.0,163.5,174.5,164.0,183.0,163.5,191.0,163.5,199.0,163.0,206.5,163.0,214.5,163.0,222.0,163.5,229.5,162.0,237.5,162.5,245.5,162.0,253.5,162.0,261.0,162.0,269.0,160.0,277.0,158.5,285.0,164.5,287.5,166.5,295.5,173.5,295.5,175.5,303.5,172.5,304.5,178.5,309.5,185.0,315.0,191.5,316.0,190.5,325.0,194.5,327.0,197.5,335.5,193.0,337.5,189.0,337.0,194.5,340.0,199.5,337.0,205.0,338.5,213.5,337.5,221.5,336.5,230.5,338.5,238.5,338.0,240.5,329.0,244.5,319.5,251.5,308.5,256.5,308.5,264.0,309.0,269.5,308.0,278.0,311.0,285.5,305.5,293.5,305.0,301.5,307.0,307.0,300.0,315.0,298.5,316.0,305.5,324.0,300.5,328.0,296.0,332.5,298.0,337.5,293.5,340.5,297.5,348.5,297.5,356.5,295.5,360.0,297.5,369.5,293.5,379.0,296.0,386.0,294.5,392.0,296.5,400.0,294.5,408.0,297.0,412.0,293.0,420.0,289.5,425.0,292.5,427.5,290.5,432.5,281.5,436.0,288.5,443.5,285.0,452.0,286.0,458.0,284.0,465.5,291.0,476.5,296.0,484.0,296.0,490.5,300.0,491.5,295.0,499.5,295.0,503.0,288.0,511.0,288.0,513.0,282.5,511.0,294.5" stroke="black" stroke-width="2" fill="none" />
<polyline points="251.0,202.0,245.0,197.0,248.0,197.5,258.5,185.5,253.5,185.5,248.5,187.5,242.5,189.5,236.0,194.5,223.0,195.5,218.0,193.0,215.5,188.0,211.5,196.5,208.5,199.5,206.5,198.5,204.0,187.5,197.0,188.5,206.0,188.0,208.0,190.5,206.5,185.5" stroke="black" stroke-width="2" fill="none" />
<polyline points="201.5,195.5,201.5,203.5" stroke="black" stroke-width="2" fill="none" />
<polyline points="191.5,182.5,191.5,185.5,196.0,184.5,205.0,182.0,213.0,182.0,215.0,183.5,225.5,180.5,233.0,175.5,249.5,181.5,257.0,180.5" stroke="black" stroke-width="2" fill="none" />
<polyline points="235.0,167.0,239.0,167.5,248.0,164.5,238.0,164.5,230.0,167.5,233.5,165.5,236.5,157.5,232.5,148.5,224.5,148.5,216.5,149.5,208.5,149.5,200.5,148.5,192.5,148.5,184.5,151.5" stroke="black" stroke-width="2" fill="none" />
<polyline points="184.0,143.5,180.0,145.5,184.0,150.5,183.5,159.0,183.5,167.0,184.0,175.0,183.5,183.5,184.0,191.5,184.0,200.0,184.0,208.0,185.0,215.5,185.0,223.5,185.0,231.5,184.0,239.0,185.0,246.5,186.0,254.0,193.5,254.0,201.5,254.0,209.5,254.5,217.5,254.5,225.5,255.0,233.0,254.5,241.0,253.5,249.0,253.5,257.0,253.0" stroke="black" stroke-width="2" fill="none" />
<polyline points="291.5,299.5,283.5,297.0,275.5,297.5,269.5,292.5,266.5,292.5,258.5,291.0,250.5,294.5,242.5,295.0,234.5,296.0,226.5,300.0,218.5,302.0,213.5,296.5,207.5,293.5,199.5,297.0,192.0,296.5,184.0,297.5,182.0,309.0,179.0,307.0,170.5,302.0,162.5,295.0,155.0,295.0,152.0,291.0,149.0,286.0,141.0,286.5,133.0,286.5,125.0,285.5,120.0,291.5,118.0,289.0,109.5,289.0,105.5,287.0,101.5,298.0,98.5,291.0,97.5,286.0,89.0,284.0,85.0,293.0,78.5,297.0,74.5,290.0,67.5,294.5,59.0,296.5,51.5,294.5,52.5,298.5,50.5,296.5,42.0,302.0,37.5,298.0,34.0,304.0,32.0,312.0,24.0,312.5,14.0,322.0,14.0,326.0,9.5,332.0,3.5,327.5,1.5,321.5,15.0,324.5,15.5,317.0,19.5,308.0,24.5,297.0,28.0,287.5,36.0,286.0,47.0,280.0,55.0,270.5,46.5,267.5" stroke="black" stroke-width="2" fill="none" />
<polyline points="41.0,277.5,33.0,282.5" stroke="black" stroke-width="2" fill="none" />
<polyline points="38.5,288.5,40.5,296.5,39.5,298.5,36.0,306.5,40.0,312.0,48.0,317.0,46.0,325.0,40.5,333.0,44.5,339.0" stroke="black" stroke-width="2" fill="none" />
<polyline points="25.5,339.5,26.0,331.5,17.5,326.5,23.5,319.5,21.5,318.0,25.5,310.0,30.5,303.0,29.0,295.5,33.0,294.5,25.0,292.5,17.0,293.5,9.0,298.0" stroke="black" stroke-width="2" fill="none" />
<polyline points="2.5,288.5,6.5,290.5,3.0,300.5,10.0,287.5,11.0,284.5,13.0,291.5,22.0,297.5,30.5,295.5,37.5,292.5,48.0,291.5,54.0,287.0,59.0,290.0,65.5,290.0,69.5,284.0" stroke="black" stroke-width="2" fill="none" />
<polyline points="79.0,281.0,78.0,289.0,88.0,296.0,93.0,294.0" stroke="black" stroke-width="2" fill="none" />
<polyline points="89.0,293.5,86.0,289.5,78.5,290.0" stroke="black" stroke-width="2" fill="none" />
<polyline points="77.5,306.5,85.5,304.0,93.5,305.0,101.0,301.5,109.0,298.0,108.5,294.5,116.5,298.0,124.0,296.5" stroke="black" stroke-width="2" fill="none" />
<polyline points="108.5,286.5,106.5,289.5,105.0,297.5,97.0,298.5,104.0,309.0,112.5,305.0,120.5,305.0,128.5,304.5,129.5,302.5,130.5,295.0,134.5,288.0,142.5,292.0,147.5,296.5,150.0,309.5,158.5,304.0,164.5,307.0,165.5,313.0,173.5,311.0,180.5,305.0,187.0,312.0,195.0,308.0,197.0,312.0,199.5,305.0,202.5,307.0,205.5,303.0,213.5,302.0,221.5,300.0,234.0,301.5,242.0,300.0,250.0,296.5,256.0,294.5,257.0,296.5" stroke="black" stroke-width="2" fill="none" />
<polyline points="128.5,325.0,119.0,329.0,122.0,325.0,118.5,317.0,111.5,321.0,108.5,328.5,96.0,334.0,88.0,339.0,80.5,337.0,78.0,334.0,70.0,338.0,62.0,339.5,59.0,338.5,47.5,338.5,56.5,341.5,53.5,338.5,51.5,334.5,54.5,325.5,63.5,323.0,60.0,319.0,59.5,311.0,62.5,308.0,57.5,304.0,55.5,295.5,46.0,293.0,49.0,285.0" stroke="black" stroke-width="2" fill="none" />
<polyline points="38.5,274.0,30.5,274.0" stroke="black" stroke-width="2" fill="none" />
<polyline points="23.0,273.5,15.0,273.5" stroke="black" stroke-width="2" fill="none" />
<polyline points="66.5,311.5,70.5,313.0,62.0,316.0,67.5,323.0,74.5,318.0,82.0,318.5,86.0,312.0,90.5,316.0,87.5,322.0,98.5,327.5,100.5,331.5" stroke="black" stroke-width="2" fill="none" />
<polyline points="86.5,318.5,78.5,322.5" stroke="black" stroke-width="2" fill="none" />
<polyline points="74.0,326.5,74.0,334.5" stroke="black" stroke-width="2" fill="none" />
<polyline points="69.5,335.5,68.5,327.5" stroke="black" stroke-width="2" fill="none" />
<polyline points="264.0,251.0,264.0,243.0,263.5,235.0,263.5,227.0,260.5,220.0,263.5,211.5,263.0,204.0,263.0,196.0,263.0,188.0,263.0,180.0,263.0,171.5,263.0,164.0,263.0,156.5,263.0,150.0,255.5,149.0,247.0,149.5,242.0,143.5,241.0,147.5,238.5,146.0,238.5,138.0,241.5,137.0" stroke="black" stroke-width="2" fill="none" />
<polyline points="252.5,138.5,252.5,146.5" stroke="black" stroke-width="2" fill="none" />
</svg>