<svg xmlns="http://www.w3.org/2000/svg" version="1.1"><polyline points="273.0,255.0,272.5,263.0,272.5,271.0,272.0,279.5,272.0,287.5,271.0,295.5,268.0,304.0,267.0,312.0,267.5,320.0,266.5,327.5,267.0,335.5,265.5,343.5,265.0,351.5,264.0,359.5,262.5,367.5,262.0,375.5,261.0,383.5,261.0,391.5,259.0,400.0,264.5,409.0,260.5,417.5,260.5,425.5,260.0,433.0,260.0,440.5,259.0,448.5,258.5,456.0,257.5,464.0,258.0,471.5,262.5,475.5" stroke="black" stroke-width="2" fill="none" />
<polyline points="268.0,461.5,266.0,468.5,269.0,473.5,270.0,465.0,262.5,462.5,268.5,456.5,269.0,448.5,270.0,440.5,268.0,432.5,268.0,424.5,271.0,418.0,268.0,411.0,272.5,398.0,272.5,390.5,276.5,382.5,275.0,379.5,275.5,369.5,275.5,362.0,277.0,352.0,278.0,344.0,279.5,335.5,280.5,327.5,279.5,319.5,281.0,311.0,282.0,302.5,283.0,294.5,283.0,286.5,284.0,278.5,283.5,270.5,283.5,262.5,281.5,255.0,273.5,254.5" stroke="black" stroke-width="2" fill="none" />
<polyline points="270.5,297.0,269.5,305.0,269.5,313.0,268.5,321.0,268.5,329.0,267.5,337.0,268.0,345.0,266.5,353.0,265.0,360.5,265.5,368.5,264.0,377.0,263.5,385.0,263.0,393.0,264.5,399.5,272.5,399.5,285.0,398.0,292.5,399.5,300.0,401.5,308.0,406.0,315.5,410.5,323.5,418.5,331.5,427.5,339.0,443.5" stroke="black" stroke-width="2" fill="none" />
<polyline points="375.5,440.5,377.5,440.5,379.5,441.0" stroke="black" stroke-width="2" fill="none" />
<polyline points="387.5,441.0,393.5,433.0" stroke="black" stroke-width="2" fill="none" />
<polyline points="397.0,415.0,390.0,409.5,384.5,404.5,399.0,393.5,399.5,389.0,403.0,372.0,405.0,369.5,401.0,372.5" stroke="black" stroke-width="2" fill="none" />
<polyline points="408.5,370.0,416.5,366.0,421.0,365.5" stroke="black" stroke-width="2" fill="none" />
<polyline points="414.5,360.0,408.5,358.5,400.0,359.0" stroke="black" stroke-width="2" fill="none" />
<polyline points="409.5,367.0,412.5,365.0,410.5,372.5,418.5,383.5,410.5,390.0,409.5,400.0,410.0,407.5,404.0,405.0,409.0,408.0,410.5,404.0,418.5,401.0,420.5,401.0" stroke="black" stroke-width="2" fill="none" />
<polyline points="416.0,396.5,414.0,393.5,416.5,392.0,423.5,391.0,410.0,387.0" stroke="black" stroke-width="2" fill="none" />
<polyline points="405.0,386.0,412.5,382.0,420.5,383.5,425.5,377.0,432.5,386.5,440.5,399.5,446.0,395.0" stroke="black" stroke-width="2" fill="none" />
<polyline points="454.0,400.5,451.0,402.5,447.0,410.0,439.0,408.0,441.5,400.5,440.5,390.5,436.0,382.0,437.0,374.0,442.5,366.0,451.5,365.0,454.0,362.0,446.0,370.0" stroke="black" stroke-width="2" fill="none" />
<polyline points="437.0,382.0,439.0,379.0,441.5,385.5,445.5,393.5,452.0,401.5,450.0,407.5" stroke="black" stroke-width="2" fill="none" />
<polyline points="459.0,414.0,468.5,418.0,456.5,430.0,446.0,438.0,436.5,443.5,431.5,447.0,433.5,452.0,431.5,460.0,435.5,461.0,443.5,459.0,449.5,461.5,457.0,458.5,468.5,461.5,476.5,455.0,493.5,444.0,493.5,442.0" stroke="black" stroke-width="2" fill="none" />
<polyline points="506.5,449.0,502.5,448.0,499.0,440.0,494.0,433.5,491.0,425.5,486.0,427.0" stroke="black" stroke-width="2" fill="none" />
<polyline points="487.0,427.0,490.0,435.5,489.0,445.5,475.0,451.5,469.0,461.0,470.0,464.5" stroke="black" stroke-width="2" fill="none" />
<polyline points="462.0,454.5,470.0,448.5,462.0,446.0,457.0,443.5,447.0,445.5,455.0,447.0,457.0,443.0,470.0,438.0,458.0,437.0,446.0,436.5" stroke="black" stroke-width="2" fill="none" />
<polyline points="452.0,444.0,449.5,452.0,446.0,460.0,438.5,466.5,441.5,469.5" stroke="black" stroke-width="2" fill="none" />
<polyline points="459.5,481.5,467.5,477.5,475.5,477.5,483.5,475.0,482.0,477.0,482.0,486.0,476.0,483.0,484.0,484.0,489.0,478.5,496.5,473.0,504.0,470.0" stroke="black" stroke-width="2" fill="none" />
<polyline points="503.5,470.5,496.5,473.5,487.0,480.0,486.0,488.0,494.0,485.5,497.0,489.5,505.5,482.5" stroke="black" stroke-width="2" fill="none" />
<polyline points="503.5,477.0,495.5,476.0" stroke="black" stroke-width="2" fill="none" />
<polyline points="478.5,483.5,470.5,481.0,468.5,477.5" stroke="black" stroke-width="2" fill="none" />
<polyline points="465.5,496.0,457.0,493.0" stroke="black" stroke-width="2" fill="none" />
<polyline points="430.5,495.5,426.5,499.5,420.0,507.5,421.5,516.0,424.5,524.0,420.5,532.5" stroke="black" stroke-width="2" fill="none" />
<polyline points="386.5,532.5,378.5,529.0,370.5,534.0,361.5,539.0,353.5,539.5,345.5,530.5,337.5,524.5" stroke="black" stroke-width="2" fill="none" />
<polyline points="339.0,534.0,347.0,541.5,361.5,542.5" stroke="black" stroke-width="2" fill="none" />
<polyline points="374.0,555.0,382.0,546.0,388.0,546.5,378.0,554.5,377.0,563.0,374.0,571.0,379.0,561.0,382.0,554.5" stroke="black" stroke-width="2" fill="none" />
<polyline points="379.5,530.5,381.5,538.5,383.5,539.0,383.5,545.5,375.5,553.5,373.5,561.0,378.5,573.5,377.5,581.5" stroke="black" stroke-width="2" fill="none" />
<polyline points="381.0,615.5,381.5,623.0,374.5,631.0,366.5,639.0,365.0,647.0,366.5,640.0,374.0,632.0,382.5,618.5" stroke="black" stroke-width="2" fill="none" />
<polyline points="388.5,627.0,384.0,635.0,376.0,636.0,364.5,644.0,371.5,644.5,380.0,640.5,388.0,628.5" stroke="black" stroke-width="2" fill="none" />
<polyline points="386.0,676.5,379.5,681.0,387.5,677.0,395.5,678.5,403.5,679.5,412.0,681.0,420.0,682.5" stroke="black" stroke-width="2" fill="none" />
<polyline points="430.5,706.5,438.0,707.5" stroke="black" stroke-width="2" fill="none" />
<polyline points="465.0,724.5,473.0,725.5,481.0,725.5" stroke="black" stroke-width="2" fill="none" />
<polyline points="421.0,687.0,413.0,686.0,405.0,686.5,397.0,685.5,389.0,686.0,381.0,683.0" stroke="black" stroke-width="2" fill="none" />
<polyline points="365.0,721.0,357.0,718.0" stroke="black" stroke-width="2" fill="none" />
<polyline points="341.0,713.0,336.5,717.0,328.5,716.5" stroke="black" stroke-width="2" fill="none" />
<polyline points="306.0,702.0,313.5,703.0,321.5,703.5,329.5,704.5,337.0,704.0,345.0,706.5,353.0,707.5,361.0,708.5,369.0,709.0,377.5,710.0,385.5,711.0,393.5,712.0,401.0,711.0,409.0,713.0,417.5,714.0,425.5,714.0,433.0,714.0,441.0,715.5,449.0,716.0,457.5,717.0,464.5,718.0,472.5,719.0,480.5,720.0,488.5,720.5,497.0,721.5,505.0,722.5" stroke="black" stroke-width="2" fill="none" />
<polyline points="327.0,588.5,319.0,593.5,310.5,594.0" stroke="black" stroke-width="2" fill="none" />
<polyline points="303.0,595.5,305.0,592.5,313.5,591.5,322.0,590.0" stroke="black" stroke-width="2" fill="none" />
<polyline points="318.5,569.5,309.0,570.0,301.0,570.5" stroke="black" stroke-width="2" fill="none" />
<polyline points="301.5,567.5,309.5,567.5,317.0,566.5,325.0,564.5,327.5,566.5" stroke="black" stroke-width="2" fill="none" />
<polyline points="348.5,542.0,340.5,536.0" stroke="black" stroke-width="2" fill="none" />
<polyline points="340.5,500.0,348.0,493.5" stroke="black" stroke-width="2" fill="none" />
<polyline points="345.0,493.5,340.5,501.5,340.0,509.5,339.0,517.5,338.0,525.5,336.0,533.0,346.5,531.5,353.0,539.0,362.0,541.5,368.0,549.5,371.0,558.0,369.0,566.0,369.0,573.5,376.0,581.5" stroke="black" stroke-width="2" fill="none" />
<polyline points="323.0,612.5,315.5,614.0,307.5,615.0,299.5,616.0" stroke="black" stroke-width="2" fill="none" />
<polyline points="298.5,614.0,306.5,613.0,314.5,612.0,322.5,610.5" stroke="black" stroke-width="2" fill="none" />
<polyline points="290.5,570.5,292.5,562.5,293.5,566.0,285.5,568.0,288.5,559.5,293.5,553.5,288.0,550.0,285.0,554.5,285.5,558.5" stroke="black" stroke-width="2" fill="none" />
<polyline points="277.0,572.0,269.0,563.5" stroke="black" stroke-width="2" fill="none" />
<polyline points="273.0,575.5,261.0,574.5,259.5,572.5,255.0,572.0,247.5,577.0,251.5,570.5,252.0,564.5,245.0,571.0,235.5,579.5,227.5,576.5" stroke="black" stroke-width="2" fill="none" />
<polyline points="226.5,575.0,223.5,583.0,222.0,593.0,224.0,601.0,227.5,609.5,234.5,617.5,238.5,623.0,242.5,631.5,244.5,631.5" stroke="black" stroke-width="2" fill="none" />
<polyline points="254.5,632.5,246.5,635.5,238.5,635.0,237.5,639.0,231.0,645.0,235.0,636.5,234.0,632.5" stroke="black" stroke-width="2" fill="none" />
<polyline points="248.5,616.5,248.5,609.0,247.0,601.0,255.0,590.0,250.5,588.5,246.5,587.5,246.5,585.5" stroke="black" stroke-width="2" fill="none" />
<polyline points="247.5,592.0,255.0,586.5,253.0,584.5" stroke="black" stroke-width="2" fill="none" />
<polyline points="268.0,579.0,270.0,582.0,278.0,586.5,280.0,589.5,281.5,597.0" stroke="black" stroke-width="2" fill="none" />
<polyline points="282.0,592.5,274.0,589.0" stroke="black" stroke-width="2" fill="none" />
<polyline points="282.0,585.0,279.0,577.0,272.0,569.0,268.5,563.0,260.5,561.5,252.5,561.0,244.5,560.0,236.5,562.5,228.5,566.5,221.0,570.5" stroke="black" stroke-width="2" fill="none" />
<polyline points="228.0,564.5,222.0,573.0,221.5,581.0,220.0,589.0,227.5,587.5,229.5,584.5" stroke="black" stroke-width="2" fill="none" />
<polyline points="224.0,603.5,232.0,616.0,239.5,621.0,247.5,616.5" stroke="black" stroke-width="2" fill="none" />
<polyline points="246.5,599.5,254.0,597.5,256.0,601.5,253.0,609.5,254.0,617.5,256.0,620.0,264.0,620.5,272.0,614.5,274.5,597.0,276.5,598.0,279.5,601.0" stroke="black" stroke-width="2" fill="none" />
<polyline points="269.5,622.0,266.0,630.0,263.0,636.0,257.5,641.5,258.5,655.0,256.0,648.5,260.0,639.5,262.5,627.5,268.5,617.5,277.0,609.0,279.0,601.0,276.0,593.0,280.5,584.5,276.5,576.5" stroke="black" stroke-width="2" fill="none" />
<polyline points="272.5,628.0,270.0,635.5,271.0,643.5" stroke="black" stroke-width="2" fill="none" />
<polyline points="274.5,664.0,282.5,663.5,290.5,663.0,298.5,661.5" stroke="black" stroke-width="2" fill="none" />
<polyline points="293.5,684.5,285.5,686.5,277.5,686.5,269.5,685.5" stroke="black" stroke-width="2" fill="none" />
<polyline points="267.0,689.5,267.0,697.5" stroke="black" stroke-width="2" fill="none" />
<polyline points="264.5,690.0,272.5,688.5,280.5,689.0,288.0,688.0,296.0,686.0,304.0,685.5" stroke="black" stroke-width="2" fill="none" />
<polyline points="224.5,626.0,217.5,618.0,220.0,612.5,219.0,611.0" stroke="black" stroke-width="2" fill="none" />
<polyline points="217.5,617.0,218.0,620.0,226.0,627.0" stroke="black" stroke-width="2" fill="none" />
<polyline points="200.0,637.0,203.0,640.0,194.5,648.5,200.5,656.5,201.5,665.0,202.5,673.0,202.5,681.0,193.5,689.0,202.0,691.0,214.0,691.0,214.0,696.5,224.0,696.0,226.5,698.5,235.5,698.5,241.5,699.5,246.0,700.0,254.0,699.0,262.0,699.0,268.5,699.0,276.0,698.5,283.5,698.5,292.0,697.5,300.5,696.5,308.5,694.0,316.5,692.0,325.0,693.0,310.5,698.5,316.0,695.0,323.5,694.5" stroke="black" stroke-width="2" fill="none" />
<polyline points="224.5,690.5,216.5,687.0,212.0,689.0,203.0,681.0,208.0,674.0,211.0,663.5,205.0,671.5" stroke="black" stroke-width="2" fill="none" />
<polyline points="211.0,658.0,202.0,658.5,194.0,648.5" stroke="black" stroke-width="2" fill="none" />
<polyline points="208.0,612.0,203.5,614.5,204.5,616.5,197.0,607.5,200.5,600.0,199.5,590.5,191.5,591.5" stroke="black" stroke-width="2" fill="none" />
<polyline points="195.0,592.0,203.0,593.0" stroke="black" stroke-width="2" fill="none" />
<polyline points="202.5,604.0,194.5,608.5,190.5,609.5" stroke="black" stroke-width="2" fill="none" />
<polyline points="186.0,609.0,178.0,605.0" stroke="black" stroke-width="2" fill="none" />
<polyline points="177.5,594.5,179.5,585.0,187.0,580.5,188.0,586.5,188.5,595.0,189.0,603.5,190.0,611.0,191.5,625.5,191.5,633.5" stroke="black" stroke-width="2" fill="none" />
<polyline points="182.0,635.5,174.0,637.5,168.5,634.5,160.0,636.5,159.0,632.5,151.0,637.5,146.5,637.5,141.5,634.0,133.5,632.5,130.0,631.5,122.0,631.5,113.5,631.5,105.5,632.5,96.0,635.5,88.0,636.5,80.5,635.5,72.0,637.5,64.0,635.5,54.0,635.5,42.0,629.5,34.0,630.5,26.0,635.5,18.0,637.0" stroke="black" stroke-width="2" fill="none" />
<polyline points="13.5,634.0,21.5,632.0,30.0,629.0" stroke="black" stroke-width="2" fill="none" />
<polyline points="11.0,631.5,6.0,632.5,7.0,632.0,12.0,631.0,19.5,629.0,32.5,636.5,40.5,634.0,46.5,636.0,48.5,629.0,56.5,632.5,65.0,629.0,73.0,631.0,81.0,630.0,71.5,638.0,70.5,638.5" stroke="black" stroke-width="2" fill="none" />
<polyline points="76.0,640.0,82.0,634.0" stroke="black" stroke-width="2" fill="none" />
<polyline points="96.0,643.5,104.0,641.0,112.0,640.0,120.0,641.5,128.0,643.0,135.5,640.0" stroke="black" stroke-width="2" fill="none" />
<polyline points="139.5,640.0,137.0,632.5" stroke="black" stroke-width="2" fill="none" />
<polyline points="127.5,646.0,135.0,654.0" stroke="black" stroke-width="2" fill="none" />
<polyline points="134.5,664.5,136.0,657.5,129.5,649.5,123.5,642.0,123.5,647.0" stroke="black" stroke-width="2" fill="none" />
<polyline points="120.0,635.5,111.5,636.5,103.5,636.5" stroke="black" stroke-width="2" fill="none" />
<polyline points="98.5,642.5,96.5,650.5,97.0,658.0,90.0,665.5,104.0,661.5,107.5,665.0,115.5,663.0,124.0,663.5,132.5,662.5,134.5,665.5" stroke="black" stroke-width="2" fill="none" />
<polyline points="146.5,688.0,153.5,690.5,161.0,689.5,173.5,682.5,181.5,683.5,189.0,686.0,196.0,685.0,203.5,691.5,211.5,695.0" stroke="black" stroke-width="2" fill="none" />
<polyline points="198.0,696.0,190.0,695.0,182.5,699.0,176.5,695.0,173.0,690.0,165.0,692.0,157.0,692.0" stroke="black" stroke-width="2" fill="none" />
<polyline points="106.0,680.0,98.0,677.5" stroke="black" stroke-width="2" fill="none" />
<polyline points="94.0,682.0,102.0,684.0,112.0,689.0,119.5,685.0,122.5,688.5,128.0,686.5,136.0,690.5,144.0,690.5,152.0,684.5,160.0,684.0,168.0,686.0,177.0,689.0,185.0,692.5,193.0,692.0" stroke="black" stroke-width="2" fill="none" />
<polyline points="196.5,566.5,189.0,565.5" stroke="black" stroke-width="2" fill="none" />
<polyline points="189.0,563.5,197.0,566.0" stroke="black" stroke-width="2" fill="none" />
<polyline points="203.0,556.5,212.0,554.5,205.0,554.5,203.0,558.5,204.0,561.5,212.0,565.0" stroke="black" stroke-width="2" fill="none" />
<polyline points="219.0,553.5,227.0,555.5" stroke="black" stroke-width="2" fill="none" />
<polyline points="211.5,562.5,211.0,562.0,205.5,554.0,207.5,547.0" stroke="black" stroke-width="2" fill="none" />
<polyline points="194.0,546.5,193.0,539.0,191.0,543.0" stroke="black" stroke-width="2" fill="none" />
<polyline points="163.5,532.5,155.0,540.0" stroke="black" stroke-width="2" fill="none" />
<polyline points="176.5,495.5,178.5,503.5,179.5,511.5,181.5,519.5,183.5,527.0,185.0,534.5,184.5,542.5,186.0,550.5,187.0,558.5,188.0,566.5,188.0,574.5,185.0,582.5,178.0,592.5,179.0,606.5,191.0,614.5,189.0,622.5,186.0,636.0,181.0,639.5,187.0,635.0,192.0,637.5" stroke="black" stroke-width="2" fill="none" />
<polyline points="165.5,478.5,173.5,469.5" stroke="black" stroke-width="2" fill="none" />
<polyline points="178.0,441.5,186.0,427.5,194.0,417.5,202.0,411.5,209.5,406.5,217.5,402.5,226.0,400.5,234.5,400.5,242.5,400.5,251.0,400.5,259.0,400.5,269.0,404.0" stroke="black" stroke-width="2" fill="none" />
<polyline points="270.0,410.5,262.0,413.5" stroke="black" stroke-width="2" fill="none" />
<polyline points="276.0,393.0,276.0,385.5" stroke="black" stroke-width="2" fill="none" />
<polyline points="274.0,374.5,278.0,366.0,278.0,358.0,279.0,350.0,280.0,342.0,280.0,334.0,280.5,326.0,280.5,318.0,284.5,316.5,279.5,320.5" stroke="black" stroke-width="2" fill="none" />
<polyline points="284.0,313.0,292.0,313.5,300.0,313.5,308.0,313.0,316.5,312.5,324.5,307.5,333.0,302.5,345.0,311.5,348.0,319.5,356.0,318.5,356.0,318.5,353.0,326.5,355.0,334.0,359.5,342.0" stroke="black" stroke-width="2" fill="none" />
<polyline points="361.5,337.0,369.5,336.0" stroke="black" stroke-width="2" fill="none" />
<polyline points="381.0,345.5,389.0,347.5" stroke="black" stroke-width="2" fill="none" />
<polyline points="385.5,342.0,392.0,350.0,395.0,359.0,394.5,354.0,403.0,352.5,411.5,352.5,419.5,354.5,423.5,364.0,429.5,365.0,433.5,356.0" stroke="black" stroke-width="2" fill="none" />
<polyline points="435.5,357.0,430.5,353.0" stroke="black" stroke-width="2" fill="none" />
<polyline points="422.5,355.5,421.5,363.5,415.5,371.5,421.0,378.5,426.0,379.0,431.0,384.5,435.0,391.5,434.0,399.0,435.0,406.0" stroke="black" stroke-width="2" fill="none" />
<polyline points="403.5,405.0,399.0,405.0,398.0,397.0,393.5,392.5,385.5,392.5" stroke="black" stroke-width="2" fill="none" />
<polyline points="382.0,394.5,382.0,392.5,384.0,401.0,379.0,410.0,380.5,417.5,385.0,415.5,393.0,414.0" stroke="black" stroke-width="2" fill="none" />
<polyline points="374.5,409.0,377.5,407.5,383.5,402.5,388.0,405.5,393.0,396.5,403.5,396.5,403.5,393.5,411.5,390.5,416.5,387.5" stroke="black" stroke-width="2" fill="none" />
<polyline points="394.5,380.5,390.5,372.0" stroke="black" stroke-width="2" fill="none" />
<polyline points="362.0,366.0,359.5,375.0" stroke="black" stroke-width="2" fill="none" />
<polyline points="347.0,397.0,355.0,400.0" stroke="black" stroke-width="2" fill="none" />
<polyline points="332.5,366.0,324.5,363.5" stroke="black" stroke-width="2" fill="none" />
<polyline points="325.0,343.5,329.0,337.5,321.0,338.5" stroke="black" stroke-width="2" fill="none" />
<polyline points="319.5,332.5,319.0,339.5,322.0,346.5,319.5,350.0,326.0,343.5" stroke="black" stroke-width="2" fill="none" />
<polyline points="322.5,319.5,314.0,322.0,305.0,318.5,298.5,308.5,290.0,310.0,282.0,308.0" stroke="black" stroke-width="2" fill="none" />
<polyline points="262.5,304.5,255.0,300.0" stroke="black" stroke-width="2" fill="none" />
<polyline points="253.5,299.0,256.5,307.0" stroke="black" stroke-width="2" fill="none" />
<polyline points="243.0,296.0,236.5,304.0,225.5,312.0" stroke="black" stroke-width="2" fill="none" />
<polyline points="221.0,313.0,221.5,321.0,228.5,329.5,230.5,337.5,230.5,345.5,224.5,353.5,219.0,363.5,205.5,372.0,213.5,369.0,221.0,361.5,230.5,360.5,238.5,356.5,246.5,347.0" stroke="black" stroke-width="2" fill="none" />
<polyline points="246.0,336.0,242.0,330.5,233.5,326.5" stroke="black" stroke-width="2" fill="none" />
<polyline points="220.5,318.0,228.5,328.0,242.5,333.0,246.5,341.0,243.5,349.5,237.5,357.5,230.5,365.5" stroke="black" stroke-width="2" fill="none" />
<polyline points="223.0,355.5,215.5,360.5,207.5,358.5,199.5,354.0" stroke="black" stroke-width="2" fill="none" />
<polyline points="199.5,353.0,207.0,354.0,210.0,356.0" stroke="black" stroke-width="2" fill="none" />
<polyline points="189.0,372.5,189.0,375.5,191.0,371.5,187.5,379.0" stroke="black" stroke-width="2" fill="none" />
<polyline points="182.5,389.5,181.5,397.5" stroke="black" stroke-width="2" fill="none" />
<polyline points="188.5,402.0,180.5,410.5" stroke="black" stroke-width="2" fill="none" />
<polyline points="179.0,410.5,181.5,407.0" stroke="black" stroke-width="2" fill="none" />
<polyline points="182.5,410.5,190.5,416.5" stroke="black" stroke-width="2" fill="none" />
<polyline points="191.0,403.5,193.0,402.5,194.0,395.5,197.5,387.5,195.0,379.5,189.0,372.5,181.0,362.5,181.5,354.5,175.5,345.0,181.5,340.5,178.0,343.5,170.0,343.5,168.5,349.5,167.5,346.5" stroke="black" stroke-width="2" fill="none" />
<polyline points="164.5,355.0,156.0,358.0,153.5,355.5,163.5,352.0,161.5,342.0,163.0,334.0" stroke="black" stroke-width="2" fill="none" />
<polyline points="155.5,336.0,152.5,344.0,145.0,352.0,133.0,355.0,141.0,354.0,148.0,348.0,152.5,339.5,161.0,337.5,169.5,335.5,183.0,336.0" stroke="black" stroke-width="2" fill="none" />
<polyline points="175.5,362.0,183.5,360.0,185.0,363.5,198.0,360.5" stroke="black" stroke-width="2" fill="none" />
<polyline points="224.0,400.5,206.5,408.5,197.0,416.5,190.0,424.5,183.5,432.5,179.0,440.5,176.0,448.5,175.0,456.5,174.0,465.0,169.5,473.0,164.5,481.5,162.5,489.5,166.0,493.0,174.0,494.5" stroke="black" stroke-width="2" fill="none" />
<polyline points="184.0,421.5,181.0,416.0,175.0,410.0,167.0,411.0" stroke="black" stroke-width="2" fill="none" />
<polyline points="131.0,395.0,122.5,400.0,114.5,399.5" stroke="black" stroke-width="2" fill="none" />
<polyline points="102.5,395.5,94.5,400.5" stroke="black" stroke-width="2" fill="none" />
<polyline points="87.0,413.0,79.0,406.0" stroke="black" stroke-width="2" fill="none" />
<polyline points="73.5,398.0,75.5,394.0" stroke="black" stroke-width="2" fill="none" />
<polyline points="71.5,383.5,74.0,391.0,75.0,399.0,80.0,398.5,78.5,406.0,79.5,414.0,81.5,416.0,82.5,424.5" stroke="black" stroke-width="2" fill="none" />
<polyline points="74.0,424.0,70.0,416.0,65.5,421.5" stroke="black" stroke-width="2" fill="none" />
<polyline points="66.5,414.0,74.5,413.0,74.0,422.5,79.5,417.0" stroke="black" stroke-width="2" fill="none" />
<polyline points="48.0,411.5,44.5,411.0,47.5,408.0,39.5,408.0,27.0,407.0,25.5,395.0,17.0,387.0,16.0,388.0" stroke="black" stroke-width="2" fill="none" />
<polyline points="17.0,383.0,27.0,390.5,29.5,398.5,30.5,404.5,27.5,412.0,29.5,420.0,29.5,428.0,32.5,428.5,30.5,436.0,26.0,437.0,22.5,446.5,26.5,452.5" stroke="black" stroke-width="2" fill="none" />
<polyline points="13.5,459.5,6.5,467.5,7.5,460.0,16.5,449.0,24.5,446.5,35.5,441.5,40.0,448.0,48.0,446.0,54.0,447.5,63.0,445.5" stroke="black" stroke-width="2" fill="none" />
<polyline points="27.0,435.5,20.5,437.5,12.0,446.5,12.0,459.5,3.5,470.0,6.5,469.0,8.0,457.5,11.0,448.5,19.0,440.5,22.0,432.5" stroke="black" stroke-width="2" fill="none" />
<polyline points="13.0,401.0,11.5,393.0,4.5,389.0,5.5,380.5,1.0,374.5" stroke="black" stroke-width="2" fill="none" />
<polyline points="1.5,379.0,9.5,385.0,17.5,383.0,25.5,389.0" stroke="black" stroke-width="2" fill="none" />
<polyline points="16.0,394.5,24.0,402.5" stroke="black" stroke-width="2" fill="none" />
<polyline points="26.5,394.0,18.5,397.0,10.0,390.5,8.5,391.5,7.5,383.5" stroke="black" stroke-width="2" fill="none" />
<polyline points="8.0,370.0,7.0,368.0" stroke="black" stroke-width="2" fill="none" />
<polyline points="2.0,349.5,10.5,343.0" stroke="black" stroke-width="2" fill="none" />
<polyline points="5.5,341.0,13.5,335.5,18.5,331.5,6.5,339.5,4.5,348.5,4.5,357.5,8.5,358.0,11.5,357.0,12.0,353.5,19.5,350.5,20.5,346.0,29.0,349.5,37.0,349.0,45.0,351.5,53.5,351.5,57.5,356.5,65.0,355.5,73.0,356.5,80.5,354.5,82.5,361.5,90.5,367.0,98.5,367.0,100.5,372.0,96.5,374.0,99.5,382.5,101.5,390.5,98.5,398.5,103.5,403.5,101.0,411.5,94.0,415.0,96.5,416.5,101.5,399.5,102.5,402.5" stroke="black" stroke-width="2" fill="none" />
<polyline points="90.5,383.0,82.5,379.0,79.5,373.5,74.5,369.5,66.5,375.0,57.5,376.0,56.5,379.5,49.0,382.5" stroke="black" stroke-width="2" fill="none" />
<polyline points="57.5,388.0,62.5,378.0,68.5,374.0" stroke="black" stroke-width="2" fill="none" />
<polyline points="68.5,365.0,76.5,367.5,80.5,367.0,89.5,368.0" stroke="black" stroke-width="2" fill="none" />
<polyline points="88.0,370.0,80.0,369.5" stroke="black" stroke-width="2" fill="none" />
<polyline points="83.0,380.0,87.0,387.5,85.0,395.0,86.0,395.0" stroke="black" stroke-width="2" fill="none" />
<polyline points="90.0,383.0,95.0,391.0,95.5,398.5,95.5,406.5,88.5,410.0,90.5,418.0" stroke="black" stroke-width="2" fill="none" />
<polyline points="90.0,390.5,98.0,387.5,97.0,379.5" stroke="black" stroke-width="2" fill="none" />
<polyline points="126.5,357.0,134.5,359.0" stroke="black" stroke-width="2" fill="none" />
<polyline points="125.0,352.0,133.0,344.0,142.0,343.0,150.0,333.0" stroke="black" stroke-width="2" fill="none" />
<polyline points="147.0,322.0,140.5,314.5,140.5,315.0" stroke="black" stroke-width="2" fill="none" />
<polyline points="120.0,320.0,128.0,332.0" stroke="black" stroke-width="2" fill="none" />
<polyline points="127.0,331.5,120.0,323.5,116.0,317.5,118.5,309.5,118.0,301.5,114.0,293.5,114.0,292.5" stroke="black" stroke-width="2" fill="none" />
<polyline points="131.0,274.0,138.0,274.0,147.5,283.0,149.5,292.0,147.0,303.5,153.0,311.5,154.0,320.0,152.0,327.5,148.0,335.5,143.0,343.5,130.0,348.0,125.0,356.5,132.0,364.5,136.0,372.5,134.0,380.0,137.0,382.5,130.0,390.5,131.0,395.0,120.0,393.0,117.0,402.5,114.0,410.5,101.0,415.5,93.5,419.5,101.5,418.5,102.5,414.5,109.0,412.5,109.0,409.0,113.0,408.0,106.0,416.5" stroke="black" stroke-width="2" fill="none" />
<polyline points="138.5,387.5,133.0,387.0,124.5,391.5,116.5,395.5,108.5,398.5,103.0,392.0,93.0,389.5,85.5,387.0,78.0,392.5,75.0,385.5,69.5,379.0,63.5,378.5,55.5,387.0,47.0,391.5,43.0,395.5,50.5,388.0,56.5,379.0,56.5,371.5,57.5,361.5,49.5,364.5,42.0,365.5,33.5,362.0" stroke="black" stroke-width="2" fill="none" />
<polyline points="40.0,348.5,48.0,347.5,56.0,348.5" stroke="black" stroke-width="2" fill="none" />
<polyline points="49.5,354.5,42.0,362.5,44.5,360.5,46.5,355.5" stroke="black" stroke-width="2" fill="none" />
<polyline points="24.0,349.5,13.5,349.0,17.5,351.0,22.0,343.0" stroke="black" stroke-width="2" fill="none" />
<polyline points="118.5,265.5,126.5,270.5,135.0,270.0,143.5,277.0,151.0,282.0,156.0,282.5,164.0,281.0,172.0,277.5,179.5,271.0,184.5,276.5,196.0,284.5" stroke="black" stroke-width="2" fill="none" />
<polyline points="204.5,297.5,204.5,299.5,210.5,300.5" stroke="black" stroke-width="2" fill="none" />
<polyline points="221.0,314.5,229.0,310.5,233.5,303.0" stroke="black" stroke-width="2" fill="none" />
<polyline points="230.0,300.0,243.0,292.0" stroke="black" stroke-width="2" fill="none" />
<polyline points="196.5,305.5,188.5,304.5,182.0,302.0,174.5,303.5,169.5,302.0,179.0,300.5,176.0,297.5,176.5,288.5,168.5,283.5" stroke="black" stroke-width="2" fill="none" />
<polyline points="158.0,289.5,149.5,291.0" stroke="black" stroke-width="2" fill="none" />
<polyline points="142.0,292.0,138.0,300.0,141.0,296.5" stroke="black" stroke-width="2" fill="none" />
<polyline points="138.5,270.5,131.0,267.0" stroke="black" stroke-width="2" fill="none" />
<polyline points="119.5,265.0,125.5,273.0,125.5,281.0" stroke="black" stroke-width="2" fill="none" />
<polyline points="178.5,271.0,170.5,279.0,158.0,291.0,152.0,299.0,159.5,303.0,150.0,305.0,155.0,307.0,155.0,301.5,164.0,299.5,170.5,301.5,173.5,294.0,184.5,284.0,192.5,284.0,198.5,289.0,206.5,295.0,214.5,302.0,222.5,304.0,230.5,300.0,239.0,297.0,249.5,298.0,257.5,296.0,265.5,295.5" stroke="black" stroke-width="2" fill="none" />
<polyline points="317.0,311.5,325.0,309.5,338.5,307.5,346.5,312.5,354.5,314.0" stroke="black" stroke-width="2" fill="none" />
<polyline points="353.5,333.5,361.5,343.5,369.0,347.0,377.0,346.0,373.0,347.0" stroke="black" stroke-width="2" fill="none" />
<polyline points="330.0,369.5,322.0,372.5,315.0,373.5,307.5,373.0,299.5,372.5,299.0,374.0,296.0,366.0,297.0,358.0" stroke="black" stroke-width="2" fill="none" />
<polyline points="298.0,402.0,312.5,410.0,323.0,417.5,330.0,425.5,335.0,433.5,340.0,441.5,342.0,449.0,343.5,457.0,344.5,465.0,349.5,472.5,352.0,480.5,355.5,489.0" stroke="black" stroke-width="2" fill="none" />
<polyline points="379.5,496.0,375.0,503.5,372.0,508.5,368.0,516.0,363.5,524.0,360.5,532.0,364.5,533.0,365.5,520.5,369.0,506.5,377.0,501.0,384.5,496.0,392.5,496.0,401.0,491.0,409.0,491.0,417.5,498.5" stroke="black" stroke-width="2" fill="none" />
<polyline points="409.0,500.5,413.5,508.5" stroke="black" stroke-width="2" fill="none" />
<polyline points="409.0,499.0,404.0,496.5,395.5,499.5,394.5,503.5,386.5,504.0,384.0,499.0,399.0,499.0,401.0,491.0" stroke="black" stroke-width="2" fill="none" />
<polyline points="411.0,486.5,412.0,489.5,409.0,497.0,416.0,498.0,417.5,506.0,414.5,509.5,417.5,504.5,425.5,498.0,433.5,491.0,441.0,486.5,449.0,485.5,449.0,489.0,457.0,489.0,465.0,483.5" stroke="black" stroke-width="2" fill="none" />
<polyline points="444.0,448.5,442.0,452.5,437.5,447.5,437.5,447.5,430.5,445.5" stroke="black" stroke-width="2" fill="none" />
<polyline points="427.5,439.0,435.5,434.0,442.0,431.0,434.0,435.0,428.5,438.0,427.5,446.0,427.0,454.0,435.0,465.5,444.0,469.0,450.5,465.0,453.5,458.0,456.5,461.0,450.5,466.0" stroke="black" stroke-width="2" fill="none" />
<polyline points="435.0,438.0,442.5,436.0,447.5,427.0,450.5,431.5,458.5,431.0,460.5,437.5,468.5,435.0,476.0,431.0,475.0,428.5" stroke="black" stroke-width="2" fill="none" />
<polyline points="474.5,427.0,472.5,435.0" stroke="black" stroke-width="2" fill="none" />
<polyline points="467.5,422.0,461.5,425.0" stroke="black" stroke-width="2" fill="none" />
<polyline points="467.0,401.5,475.0,397.5,476.0,406.5,474.0,414.5,469.5,423.0,468.5,428.5,474.5,433.5,483.0,436.0,495.0,430.0,499.0,436.0,499.5,444.0,507.0,447.0,510.0,452.0" stroke="black" stroke-width="2" fill="none" />
<polyline points="510.5,443.0,503.5,442.5,506.0,438.5,505.0,430.0,503.0,427.0" stroke="black" stroke-width="2" fill="none" />
<polyline points="492.5,405.0,484.5,399.5" stroke="black" stroke-width="2" fill="none" />
<polyline points="484.0,398.0,487.5,408.5" stroke="black" stroke-width="2" fill="none" />
<polyline points="485.0,407.5,477.0,402.5,469.0,400.5" stroke="black" stroke-width="2" fill="none" />
<polyline points="466.0,398.5,460.5,406.5,452.5,408.0,460.5,406.0,465.5,407.5,473.0,410.0" stroke="black" stroke-width="2" fill="none" />
<polyline points="399.5,450.0,391.0,454.5" stroke="black" stroke-width="2" fill="none" />
<polyline points="386.5,456.0,391.5,457.5,398.5,460.5,397.5,463.5" stroke="black" stroke-width="2" fill="none" />
<polyline points="385.0,500.0,386.5,504.0" stroke="black" stroke-width="2" fill="none" />
<polyline points="371.5,511.5,363.5,513.0,358.5,521.0" stroke="black" stroke-width="2" fill="none" />
<polyline points="373.0,519.5,375.0,527.5,372.5,536.0" stroke="black" stroke-width="2" fill="none" />
<polyline points="253.5,457.5,252.5,457.5,253.5,449.5" stroke="black" stroke-width="2" fill="none" />
<polyline points="317.0,328.5,316.5,332.5,309.0,339.5,310.0,338.0,314.0,330.0,319.0,327.5,320.5,319.0" stroke="black" stroke-width="2" fill="none" />
<polyline points="412.5,278.5,414.0,270.5,410.5,267.5" stroke="black" stroke-width="2" fill="none" />
<polyline points="13.5,486.0,5.0,485.5" stroke="black" stroke-width="2" fill="none" />
<polyline points="1.5,657.5,9.5,656.5,17.0,659.5,24.0,659.5,31.5,660.5,40.0,660.5,48.0,661.0,56.5,661.0,65.0,662.0,73.0,662.0,80.5,663.0,88.5,663.0" stroke="black" stroke-width="2" fill="none" />
<polyline points="25.5,678.0,17.5,680.0" stroke="black" stroke-width="2" fill="none" />
<polyline points="18.0,688.5,10.0,688.5" stroke="black" stroke-width="2" fill="none" />
<polyline points="3.5,687.0,16.5,685.5" stroke="black" stroke-width="2" fill="none" />
<polyline points="2.0,682.5,10.0,683.5,18.0,686.5,26.0,689.0,32.0,687.0,38.5,689.0,50.5,686.5,58.5,686.5,66.0,688.5,73.5,689.0,82.0,690.0,89.5,690.5,98.0,689.5,106.5,691.0,114.5,693.0,122.5,694.0,130.5,694.0,138.5,695.0,146.5,696.0,154.0,695.5,162.0,696.0,170.0,696.5,178.5,697.0,187.5,699.0,195.5,699.0" stroke="black" stroke-width="2" fill="none" />
<polyline points="77.0,690.0,69.5,689.0,61.5,689.0,53.0,689.0,50.0,683.5,42.0,682.5,33.5,682.5,25.5,681.0,28.5,688.0,24.5,683.0,9.5,679.0,1.5,679.0" stroke="black" stroke-width="2" fill="none" />
</svg>