<svg xmlns="http://www.w3.org/2000/svg" version="1.1"><polyline points="223.0,265.5,223.0,273.5,220.5,281.5,220.5,289.5,220.0,297.5,220.0,305.0,220.0,313.0,219.0,321.0,219.5,328.5,219.5,336.5,219.5,344.5,219.0,352.5,219.0,360.5,219.0,368.5,219.0,377.5,223.0,380.5,231.0,381.5,238.0,376.0" stroke="black" stroke-width="2" fill="none" />
<polyline points="243.5,385.5,251.5,384.0,255.0,383.0,249.0,386.5,239.0,388.5,239.0,397.0,241.0,401.0,240.0,408.5,240.0,417.0,240.0,425.0,240.0,433.5,240.0,441.5,240.0,449.5,240.0,457.5,238.0,467.0,240.5,475.0,238.5,483.5,242.5,491.5,250.5,492.5,258.5,492.5,266.5,492.5,274.5,492.5,283.0,492.0,292.0,491.0,299.5,490.0" stroke="black" stroke-width="2" fill="none" />
<polyline points="301.5,495.5,293.5,497.5,285.5,497.5" stroke="black" stroke-width="2" fill="none" />
<polyline points="276.5,515.5,274.5,512.0,261.0,513.0,255.5,511.0,247.5,511.5,239.0,509.5" stroke="black" stroke-width="2" fill="none" />
<polyline points="249.5,496.0,242.0,496.0,234.0,496.0,226.5,493.5,225.5,493.5,223.5,498.5" stroke="black" stroke-width="2" fill="none" />
<polyline points="224.0,495.5,232.0,497.5,240.5,498.5,248.5,498.5,256.5,499.0,264.0,499.0,271.5,499.5,279.0,497.5,280.0,499.5,288.0,499.5,295.5,498.5" stroke="black" stroke-width="2" fill="none" />
<polyline points="302.0,516.0,304.0,508.0,303.5,499.5,299.5,492.0,308.5,480.5,307.5,475.5,299.5,476.5,292.0,477.5,283.5,478.5,275.5,479.0,267.0,479.0,259.0,479.0,251.0,479.0,243.0,478.5,235.5,477.5,227.5,476.5,219.5,474.5" stroke="black" stroke-width="2" fill="none" />
<polyline points="221.0,471.0,229.0,473.0,237.0,474.0" stroke="black" stroke-width="2" fill="none" />
<polyline points="219.5,470.5,227.5,470.0,235.0,470.5,248.0,471.0,256.5,471.5,264.5,471.0,264.5,474.5,272.0,475.5,284.0,471.5" stroke="black" stroke-width="2" fill="none" />
<polyline points="297.0,473.5,290.0,475.0,291.0,474.0,300.0,470.0,307.0,467.0,308.0,458.0,308.5,450.0,309.0,442.0,309.0,434.0,309.5,426.0,309.5,418.0,308.5,410.0,308.0,402.0,308.0,393.5,307.5,385.5,305.0,375.5,305.0,367.5,305.0,359.0,305.0,351.0,305.0,343.0,306.0,335.0,305.0,327.0,305.0,319.5,305.5,312.0,309.5,304.5,309.5,296.5,309.5,288.0,309.0,280.0,309.0,275.5,309.5,267.5,311.0,261.5,303.0,265.0,295.5,265.0,287.5,268.0,279.0,268.5,271.0,268.5,263.0,268.0,254.5,268.0,246.5,267.0,238.0,267.0" stroke="black" stroke-width="2" fill="none" />
<polyline points="221.0,261.0,228.5,264.0,236.5,264.0,244.0,264.0,252.5,264.5,260.5,265.5,268.5,265.5,276.5,265.5,284.5,265.5,293.0,266.0,301.0,267.0" stroke="black" stroke-width="2" fill="none" />
<polyline points="289.0,278.0,297.5,279.0,305.5,278.0,313.5,280.0,313.5,288.0,313.0,296.5,313.0,304.5,312.5,312.5,312.5,321.0,312.5,329.0,312.5,337.0,312.5,345.0,312.5,352.5,312.5,361.0,311.0,369.0,310.5,377.0,311.5,387.5,312.0,395.0,313.0,403.0,313.0,411.0,314.0,419.0,314.0,427.0,314.0,435.0,313.5,443.0,315.5,451.0,316.0,459.0,316.5,467.5,318.5,475.5,318.0,484.0,319.5,492.0,320.5,500.0,321.5,508.0,324.0,516.0,325.0,524.0,326.5,531.5,328.5,539.0,330.5,547.0,328.0,555.0,329.0,562.5,330.0,570.5,340.0,578.5,344.0,586.5,344.0,594.5,339.0,602.0,338.0,610.0,339.0,618.5,344.0,620.5,345.5,619.5,352.0,619.5,347.5,628.0,345.5,637.0,355.5,645.0,362.0,653.0,365.5,658.0,370.5,666.5,366.0,672.5,371.5,677.5,380.5,685.5,387.0,687.0,388.5,688.0" stroke="black" stroke-width="2" fill="none" />
<polyline points="381.0,676.0,372.5,674.5,364.0,668.5,356.0,668.0,352.0,675.0" stroke="black" stroke-width="2" fill="none" />
<polyline points="355.5,671.0,363.5,672.0,377.0,681.0,385.0,682.0,393.0,679.5,405.5,691.0,407.5,686.0,415.5,681.5,416.5,685.5,424.0,686.0,432.0,686.0,441.0,684.0,449.5,687.0" stroke="black" stroke-width="2" fill="none" />
<polyline points="447.5,691.0,440.0,685.0" stroke="black" stroke-width="2" fill="none" />
<polyline points="438.5,682.0,444.0,690.0,453.5,694.0,455.5,694.0" stroke="black" stroke-width="2" fill="none" />
<polyline points="461.5,684.5,469.5,691.5" stroke="black" stroke-width="2" fill="none" />
<polyline points="469.5,682.5,477.5,682.5,499.0,690.0,509.0,701.0,509.5,709.0,505.5,728.0,507.5,739.0,507.0,748.5,508.0,756.5,508.5,753.0" stroke="black" stroke-width="2" fill="none" />
<polyline points="507.0,735.5,498.0,731.0,489.5,737.0,481.5,743.0,483.5,741.0,492.0,732.0,491.0,724.0,483.5,724.0" stroke="black" stroke-width="2" fill="none" />
<polyline points="487.0,729.5,490.0,718.5,482.5,723.5,474.0,725.5" stroke="black" stroke-width="2" fill="none" />
<polyline points="472.5,726.0,480.5,723.5,479.5,729.5,472.5,731.5,464.5,739.5,470.5,742.0,479.5,742.5,484.5,754.5,486.0,757.0" stroke="black" stroke-width="2" fill="none" />
<polyline points="501.5,745.5,500.0,741.5,497.0,740.0,489.0,743.0,483.0,749.0,483.0,746.0,474.0,743.5,466.0,746.5" stroke="black" stroke-width="2" fill="none" />
<polyline points="463.0,738.0,463.0,736.0,471.5,737.0" stroke="black" stroke-width="2" fill="none" />
<polyline points="449.5,727.0,457.5,728.5,462.5,719.5,470.5,718.5,474.5,715.0,483.0,717.0,487.0,713.0,495.5,715.0" stroke="black" stroke-width="2" fill="none" />
<polyline points="504.5,717.0,501.5,725.0,508.5,728.0,512.0,732.0" stroke="black" stroke-width="2" fill="none" />
<polyline points="511.0,716.0,503.0,714.0,495.0,708.5,487.0,710.0" stroke="black" stroke-width="2" fill="none" />
<polyline points="478.5,702.5,470.0,705.5" stroke="black" stroke-width="2" fill="none" />
<polyline points="475.5,718.5,474.5,721.5,466.0,725.5,465.0,729.0,454.5,738.0,454.5,743.0,447.0,741.0" stroke="black" stroke-width="2" fill="none" />
<polyline points="443.5,745.5,439.5,746.5,435.5,748.0,446.0,756.0,454.0,761.5" stroke="black" stroke-width="2" fill="none" />
<polyline points="435.5,744.5,443.5,743.0,448.0,732.0,442.0,740.0,444.0,748.0,448.0,759.5,457.5,762.5,465.5,757.5,467.0,754.5,475.0,754.5,477.0,761.0,485.0,762.5,493.0,763.5,500.5,763.5,508.0,763.0" stroke="black" stroke-width="2" fill="none" />
<polyline points="506.5,685.5,498.5,684.5,491.0,683.5,483.0,680.0,475.0,679.0" stroke="black" stroke-width="2" fill="none" />
<polyline points="465.0,682.5,468.0,690.5" stroke="black" stroke-width="2" fill="none" />
<polyline points="476.0,663.5,478.5,660.5,473.0,660.5,468.0,655.5,465.0,652.0,468.0,651.0,467.0,654.0" stroke="black" stroke-width="2" fill="none" />
<polyline points="464.0,649.5,472.0,647.5,479.5,652.5,483.5,666.5" stroke="black" stroke-width="2" fill="none" />
<polyline points="492.0,663.0,481.0,671.0,472.5,684.0,471.0,692.0,467.5,700.0,462.5,703.0,469.0,694.0,478.5,692.0,488.5,691.0,493.5,687.0,501.5,690.0,509.5,690.0" stroke="black" stroke-width="2" fill="none" />
<polyline points="481.5,635.0,486.5,626.5,487.0,618.5,484.0,615.5,476.0,615.5" stroke="black" stroke-width="2" fill="none" />
<polyline points="488.0,613.0,496.0,621.0" stroke="black" stroke-width="2" fill="none" />
<polyline points="498.0,594.0,490.5,591.5,482.5,586.5" stroke="black" stroke-width="2" fill="none" />
<polyline points="478.5,579.0,482.5,571.0,475.5,563.0" stroke="black" stroke-width="2" fill="none" />
<polyline points="455.0,558.5,447.5,558.5,440.0,557.5,432.0,555.0" stroke="black" stroke-width="2" fill="none" />
<polyline points="420.5,533.5,421.5,541.5,428.0,549.5,432.0,553.5,439.0,561.0,446.0,562.5,454.0,565.5,462.0,559.5,473.0,563.5,481.0,572.5,481.0,586.5,486.0,597.5,497.5,603.5,508.0,609.5,511.5,609.5" stroke="black" stroke-width="2" fill="none" />
<polyline points="468.0,631.0,460.0,623.0,458.5,615.0,458.5,615.0" stroke="black" stroke-width="2" fill="none" />
<polyline points="456.0,618.0,464.0,627.0,471.5,634.0,480.0,637.0,488.0,624.5" stroke="black" stroke-width="2" fill="none" />
<polyline points="500.5,604.5,492.0,599.0,484.0,595.0,476.0,595.0,468.0,597.0,460.0,603.0,452.0,602.5,446.0,598.5,438.0,597.5" stroke="black" stroke-width="2" fill="none" />
<polyline points="450.0,593.5,442.0,595.0,434.0,591.0,427.5,589.0,419.5,592.5,418.5,585.5,410.5,591.5" stroke="black" stroke-width="2" fill="none" />
<polyline points="412.5,600.5,417.5,608.5" stroke="black" stroke-width="2" fill="none" />
<polyline points="410.0,609.5,402.0,605.5,397.5,606.5,389.5,605.5,381.0,606.5,373.0,608.5,364.5,611.5" stroke="black" stroke-width="2" fill="none" />
<polyline points="362.5,632.0,370.5,631.0,378.5,631.0,386.5,632.5,395.0,635.5,403.5,637.5,412.0,639.0,419.5,641.5,427.5,646.0,435.5,650.0,443.0,657.5,451.5,662.5,460.0,670.0,468.0,675.0,476.5,675.0,484.5,671.0,492.0,664.0,500.0,662.5,507.5,667.0" stroke="black" stroke-width="2" fill="none" />
<polyline points="444.5,664.0,437.0,663.0,437.0,665.0" stroke="black" stroke-width="2" fill="none" />
<polyline points="431.0,656.0,429.0,654.5,422.5,650.0,414.5,652.5" stroke="black" stroke-width="2" fill="none" />
<polyline points="408.0,660.5,403.5,657.5,405.5,649.5,405.5,641.5" stroke="black" stroke-width="2" fill="none" />
<polyline points="416.0,640.5,432.0,648.5,436.0,654.5,445.0,658.0,455.0,666.0,466.5,674.0,480.0,686.0,486.0,694.5,479.5,699.5,481.5,704.5,490.0,704.5,497.5,700.5,505.0,698.5,510.0,701.0" stroke="black" stroke-width="2" fill="none" />
<polyline points="513.0,742.5,509.5,739.5,501.5,737.0,496.0,729.0,494.5,726.0,485.5,733.0,478.5,734.5,475.0,726.0,471.5,720.5,458.5,715.5,467.5,713.5,459.0,709.5,451.0,711.5,443.0,707.5,435.0,707.0,427.5,705.5" stroke="black" stroke-width="2" fill="none" />
<polyline points="426.0,704.5,435.0,705.0,433.0,713.0,441.5,714.5,439.0,716.0" stroke="black" stroke-width="2" fill="none" />
<polyline points="431.5,711.5,424.0,716.0,416.0,714.0,408.0,714.0,400.0,714.0,395.0,718.0,387.5,717.0" stroke="black" stroke-width="2" fill="none" />
<polyline points="392.0,724.5,386.0,723.5,377.5,721.0,377.0,718.0,369.0,722.5,360.0,710.0,351.5,705.0" stroke="black" stroke-width="2" fill="none" />
<polyline points="358.5,704.5,366.5,699.5,367.0,707.0,379.5,712.5,385.0,720.0,376.5,723.0,380.5,730.5,389.5,739.5" stroke="black" stroke-width="2" fill="none" />
<polyline points="375.5,764.0,377.5,762.0,376.5,754.0,376.0,746.0,372.0,740.0,358.0,728.5,350.5,723.5" stroke="black" stroke-width="2" fill="none" />
<polyline points="358.0,711.5,357.0,703.5,360.5,695.5,353.0,694.5,351.5,697.5" stroke="black" stroke-width="2" fill="none" />
<polyline points="355.5,694.5,364.0,697.5,372.0,705.0" stroke="black" stroke-width="2" fill="none" />
<polyline points="376.5,703.0,368.0,696.0,360.0,689.5,351.5,683.0,349.5,674.0,341.5,677.5" stroke="black" stroke-width="2" fill="none" />
<polyline points="340.0,673.5,342.5,671.5,345.5,679.5,357.5,687.5,367.0,695.5,376.5,704.0,376.5,712.5,363.0,717.5,376.0,723.0,375.0,726.0,381.0,730.0,389.0,731.0,391.5,735.0,392.5,742.0" stroke="black" stroke-width="2" fill="none" />
<polyline points="375.0,752.0,373.0,740.5,365.0,735.5,358.0,730.5,350.0,724.0,354.0,716.0,351.5,708.0,344.0,701.0,345.0,693.0,343.0,685.0,348.0,672.0,347.0,664.0,346.0,656.0,342.0,649.0" stroke="black" stroke-width="2" fill="none" />
<polyline points="350.5,659.5,358.5,658.5" stroke="black" stroke-width="2" fill="none" />
<polyline points="362.0,636.0,370.0,636.5,379.0,635.5,387.0,638.0" stroke="black" stroke-width="2" fill="none" />
<polyline points="383.5,636.5,388.0,644.5,395.0,648.5,390.0,653.5,396.0,663.5,401.0,671.5,399.0,679.5,402.0,688.0,409.0,696.0,413.0,696.5,421.0,696.0,427.0,696.0,434.5,692.5" stroke="black" stroke-width="2" fill="none" />
<polyline points="418.5,680.0,426.0,687.5,426.0,686.5,432.0,694.5,440.0,696.0,448.0,697.0,456.5,700.0" stroke="black" stroke-width="2" fill="none" />
<polyline points="449.0,712.0,452.5,713.0,462.0,719.0,460.5,727.0,458.5,729.0,456.5,736.5,449.5,734.5,454.5,742.0,464.0,741.0,469.0,754.0,473.0,758.0,480.5,756.0,488.5,755.0,485.5,766.0" stroke="black" stroke-width="2" fill="none" />
<polyline points="511.5,721.5,506.5,712.5,498.5,707.5,493.0,707.5,485.0,708.5,477.5,709.0,469.5,711.5,461.5,714.5,456.0,715.5,450.0,712.5,442.5,710.5,437.5,703.5,429.0,701.5,421.0,702.0,412.5,704.0,409.5,702.0,402.0,700.0,398.5,709.0,390.5,713.5,382.5,718.0,375.5,712.0,368.0,712.0,361.0,711.0,351.0,699.5,350.0,691.5,348.0,683.5,344.0,684.5" stroke="black" stroke-width="2" fill="none" />
<polyline points="368.5,664.0,359.5,651.0,351.5,642.0,343.5,635.5" stroke="black" stroke-width="2" fill="none" />
<polyline points="350.0,623.0,342.0,633.0,339.0,628.0,335.5,620.0" stroke="black" stroke-width="2" fill="none" />
<polyline points="344.0,583.5,336.5,576.0,335.5,566.0,338.5,559.0,339.0,564.0" stroke="black" stroke-width="2" fill="none" />
<polyline points="336.5,569.5,344.5,570.5,350.5,572.5" stroke="black" stroke-width="2" fill="none" />
<polyline points="358.0,575.5,360.5,568.0,361.0,560.0,355.0,553.5,346.5,557.5,338.5,553.0" stroke="black" stroke-width="2" fill="none" />
<polyline points="360.0,528.5,368.0,527.5" stroke="black" stroke-width="2" fill="none" />
<polyline points="365.0,512.5,373.0,505.5,381.0,507.5,389.0,510.5,397.5,516.5" stroke="black" stroke-width="2" fill="none" />
<polyline points="397.5,515.0,405.5,523.5" stroke="black" stroke-width="2" fill="none" />
<polyline points="397.0,526.0,394.0,536.0,398.5,544.0,391.5,545.0,390.5,552.5,392.5,556.0,391.0,563.0,387.0,571.0,397.0,572.5,394.5,576.0,402.5,572.0,410.5,572.0,418.5,574.0,421.5,577.0,427.0,570.5,434.5,574.5,442.5,576.5,451.0,577.5,459.0,583.0,467.5,583.5,475.0,584.5,485.0,582.5" stroke="black" stroke-width="2" fill="none" />
<polyline points="508.0,519.0,500.0,513.0,492.0,511.0,483.5,509.0" stroke="black" stroke-width="2" fill="none" />
<polyline points="481.0,480.5,489.0,482.5,497.0,486.5,505.0,488.5" stroke="black" stroke-width="2" fill="none" />
<polyline points="422.5,540.0,414.5,537.0" stroke="black" stroke-width="2" fill="none" />
<polyline points="398.0,542.5,390.0,533.0" stroke="black" stroke-width="2" fill="none" />
<polyline points="389.5,555.0,397.5,557.0" stroke="black" stroke-width="2" fill="none" />
<polyline points="388.0,575.0,380.0,575.0" stroke="black" stroke-width="2" fill="none" />
<polyline points="386.0,609.5,394.0,611.0,402.0,612.0,410.0,615.0,417.5,617.5,425.0,624.5,433.0,629.5,441.0,631.5" stroke="black" stroke-width="2" fill="none" />
<polyline points="431.5,631.5,424.0,623.5,415.0,616.0" stroke="black" stroke-width="2" fill="none" />
<polyline points="405.5,601.0,414.0,595.0,412.0,597.0,400.0,604.0,412.0,603.0,418.0,607.5,426.0,609.5,434.5,609.5,442.5,613.0,451.0,613.0,459.0,611.0,466.5,612.0,474.5,615.0,482.5,611.5,489.5,612.0,497.5,621.0,505.5,625.5" stroke="black" stroke-width="2" fill="none" />
<polyline points="419.0,668.5,415.5,669.5,408.0,676.5,402.5,670.5,402.5,662.5,395.0,658.5" stroke="black" stroke-width="2" fill="none" />
<polyline points="402.5,641.0,401.5,644.0,384.5,632.5" stroke="black" stroke-width="2" fill="none" />
<polyline points="397.5,706.0,391.5,714.5,390.5,725.5,389.5,732.0,390.0,739.0" stroke="black" stroke-width="2" fill="none" />
<polyline points="174.5,662.0,166.5,674.0,156.5,682.0" stroke="black" stroke-width="2" fill="none" />
<polyline points="146.0,718.5,138.0,719.0,130.0,721.0,118.5,724.0,122.5,726.0,129.0,720.5,130.0,727.5" stroke="black" stroke-width="2" fill="none" />
<polyline points="137.0,720.5,131.5,728.5,137.5,731.5,141.0,724.5,145.0,727.5" stroke="black" stroke-width="2" fill="none" />
<polyline points="153.5,729.0,151.0,737.5,148.5,745.5" stroke="black" stroke-width="2" fill="none" />
<polyline points="141.5,766.0,142.5,758.5,145.0,750.5,146.0,743.0,148.0,735.0,150.5,730.0,152.5,721.5,149.5,716.5,151.5,708.5,152.0,700.5,154.0,692.5,157.0,685.0,161.0,677.0,169.5,673.0,173.0,664.5,176.0,656.5,176.0,649.5,177.0,643.5,180.5,635.5,180.0,627.5,180.0,619.5,181.0,611.5,181.0,603.5,176.5,595.5,171.0,588.0,174.5,580.0,180.5,572.0,180.5,571.5,172.5,580.0" stroke="black" stroke-width="2" fill="none" />
<polyline points="164.5,565.5,156.5,568.5,148.5,567.0" stroke="black" stroke-width="2" fill="none" />
<polyline points="159.5,563.5,151.5,562.5,150.5,566.0,148.5,557.5,147.5,549.5,147.5,541.5,146.0,533.5,143.0,526.5,128.5,517.5,115.5,510.5,107.5,508.5,100.0,509.0" stroke="black" stroke-width="2" fill="none" />
<polyline points="114.0,504.0,121.5,502.0,129.5,495.0,133.5,487.0" stroke="black" stroke-width="2" fill="none" />
<polyline points="132.0,482.0,136.0,490.0,127.5,498.0,125.5,503.0" stroke="black" stroke-width="2" fill="none" />
<polyline points="119.0,510.5,126.5,514.5,132.5,522.0,140.5,524.0" stroke="black" stroke-width="2" fill="none" />
<polyline points="138.0,532.0,129.5,532.0,121.0,530.5,114.0,543.5,117.0,538.5,121.0,530.0" stroke="black" stroke-width="2" fill="none" />
<polyline points="114.5,556.0,116.5,564.0,117.5,564.5,125.5,565.5,133.0,566.5" stroke="black" stroke-width="2" fill="none" />
<polyline points="114.0,568.0,106.0,570.0,102.5,566.0,94.5,569.0" stroke="black" stroke-width="2" fill="none" />
<polyline points="95.0,601.5,103.0,596.5,95.0,602.5,102.0,602.5,100.0,604.0" stroke="black" stroke-width="2" fill="none" />
<polyline points="97.0,611.0,86.0,619.5,79.5,627.5,74.5,635.5,73.5,637.5,81.5,624.0,89.5,617.0,98.0,611.0,107.0,609.5,114.5,607.0,122.5,607.0,130.5,608.0,138.5,610.0,147.0,613.0,155.0,614.5" stroke="black" stroke-width="2" fill="none" />
<polyline points="184.0,624.0,184.0,631.5,178.0,645.0" stroke="black" stroke-width="2" fill="none" />
<polyline points="138.0,643.5,133.0,636.0,130.0,639.5,136.5,632.0,128.5,630.0,120.5,630.5,112.5,638.5" stroke="black" stroke-width="2" fill="none" />
<polyline points="118.0,632.5,111.0,640.5,108.0,648.5,114.0,648.5,122.5,648.5,130.5,648.5,138.5,649.5" stroke="black" stroke-width="2" fill="none" />
<polyline points="138.0,615.5,129.5,612.0,121.0,612.0,112.5,613.0,104.0,615.0,96.0,618.0,88.0,623.0,80.5,631.5,82.5,629.5,90.5,621.5,99.0,617.0" stroke="black" stroke-width="2" fill="none" />
<polyline points="67.0,673.0,74.0,681.0,79.5,689.0" stroke="black" stroke-width="2" fill="none" />
<polyline points="75.5,709.0,83.5,706.0,92.0,706.5,100.0,705.5,107.5,706.5,109.5,710.5" stroke="black" stroke-width="2" fill="none" />
<polyline points="108.0,715.5,100.0,715.0,92.5,716.0,84.5,716.5,76.5,713.5" stroke="black" stroke-width="2" fill="none" />
<polyline points="78.0,693.0,72.5,701.0,64.5,703.0,57.5,703.5,58.5,695.5,57.5,688.0,63.0,680.0,68.0,672.0,65.0,678.0,57.0,687.0" stroke="black" stroke-width="2" fill="none" />
<polyline points="22.0,724.5,20.0,716.5,9.0,723.0" stroke="black" stroke-width="2" fill="none" />
<polyline points="13.0,725.0,2.5,730.0,10.5,726.0,18.5,726.0" stroke="black" stroke-width="2" fill="none" />
<polyline points="20.5,740.0,12.5,740.0,4.0,740.5" stroke="black" stroke-width="2" fill="none" />
<polyline points="2.5,740.0,10.5,737.0,18.5,733.0,26.5,730.0,29.0,733.5,26.5,736.5" stroke="black" stroke-width="2" fill="none" />
<polyline points="32.5,747.5,28.5,752.5,36.5,744.5" stroke="black" stroke-width="2" fill="none" />
<polyline points="50.0,750.5,56.5,750.5,51.0,758.0,57.0,762.0,59.5,764.0,67.5,757.5" stroke="black" stroke-width="2" fill="none" />
<polyline points="67.5,766.0,66.5,761.0,67.5,753.0,64.5,752.0,56.5,750.0" stroke="black" stroke-width="2" fill="none" />
<polyline points="18.0,754.0,9.5,754.0,1.5,753.5" stroke="black" stroke-width="2" fill="none" />
<polyline points="1.0,748.0,9.5,751.0,18.0,751.0,30.0,753.0,38.0,752.0,46.0,751.0,54.5,747.0,62.5,746.5,70.5,746.5" stroke="black" stroke-width="2" fill="none" />
<polyline points="116.0,757.5,124.0,761.5" stroke="black" stroke-width="2" fill="none" />
<polyline points="116.0,753.5,114.0,757.5,119.0,750.0" stroke="black" stroke-width="2" fill="none" />
<polyline points="18.0,716.5,9.5,714.5,1.5,712.5" stroke="black" stroke-width="2" fill="none" />
<polyline points="3.5,641.5,11.5,643.5,19.5,645.0,27.5,646.0,35.5,644.0" stroke="black" stroke-width="2" fill="none" />
<polyline points="17.5,617.0,25.5,617.0,33.5,617.0,42.0,618.0,51.0,613.5,56.5,606.5,64.5,607.5,70.5,609.5,78.5,608.5,84.0,610.0" stroke="black" stroke-width="2" fill="none" />
<polyline points="72.0,554.5,63.5,561.5,55.0,561.5,47.0,562.0,39.0,552.0" stroke="black" stroke-width="2" fill="none" />
<polyline points="39.0,551.5,44.0,559.5" stroke="black" stroke-width="2" fill="none" />
<polyline points="36.0,574.5,43.5,577.5,51.5,576.5,59.5,575.5,67.5,574.0" stroke="black" stroke-width="2" fill="none" />
<polyline points="60.0,525.0,57.0,524.0,54.5,531.5,54.5,529.5,62.5,521.5,70.5,520.0,78.5,516.5" stroke="black" stroke-width="2" fill="none" />
<polyline points="83.5,520.5,79.5,518.5,77.5,514.0,76.0,506.0" stroke="black" stroke-width="2" fill="none" />
<polyline points="62.5,506.5,54.5,501.5" stroke="black" stroke-width="2" fill="none" />
<polyline points="67.0,475.5,74.5,477.5,82.0,481.5,93.0,483.0,100.5,482.0,108.5,480.5" stroke="black" stroke-width="2" fill="none" />
<polyline points="115.0,479.0,115.0,479.0" stroke="black" stroke-width="2" fill="none" />
<polyline points="83.5,490.0,76.5,498.0,66.0,506.0,68.0,505.0,72.0,501.5,80.5,494.5" stroke="black" stroke-width="2" fill="none" />
<polyline points="74.5,482.5,65.5,474.5" stroke="black" stroke-width="2" fill="none" />
<polyline points="45.5,608.0,37.5,608.0,29.0,607.0,21.0,609.5" stroke="black" stroke-width="2" fill="none" />
<polyline points="1.5,638.5,9.5,636.0,17.5,634.5,26.0,636.5,34.5,638.5,42.5,640.5" stroke="black" stroke-width="2" fill="none" />
<polyline points="218.0,486.5,226.5,488.5,234.5,490.0" stroke="black" stroke-width="2" fill="none" />
<polyline points="218.0,461.5,225.5,466.0,234.0,467.0,242.0,468.0,250.0,468.0,258.0,469.0,266.0,468.5,274.0,468.5,282.0,468.0,290.0,467.0,298.0,466.0,306.5,465.0" stroke="black" stroke-width="2" fill="none" />
<polyline points="318.0,509.0,321.0,517.0" stroke="black" stroke-width="2" fill="none" />
<polyline points="370.5,505.5,364.5,513.0,365.5,521.0,357.0,531.5,362.0,533.5,370.5,533.5,379.0,531.5,387.0,533.5,395.5,526.5" stroke="black" stroke-width="2" fill="none" />
<polyline points="288.0,391.0,279.5,388.0" stroke="black" stroke-width="2" fill="none" />
<polyline points="279.5,396.5,279.5,404.5,283.5,403.5" stroke="black" stroke-width="2" fill="none" />
<polyline points="288.0,384.0,290.0,374.0,292.0,365.0,292.5,356.5,284.5,354.5" stroke="black" stroke-width="2" fill="none" />
<polyline points="285.0,355.5,285.0,363.5,283.5,371.5" stroke="black" stroke-width="2" fill="none" />
<polyline points="296.0,365.5,297.0,357.5,294.0,353.5" stroke="black" stroke-width="2" fill="none" />
<polyline points="290.0,356.5,290.0,364.5" stroke="black" stroke-width="2" fill="none" />
<polyline points="277.0,363.5,274.0,355.5,280.0,346.5,272.0,344.5" stroke="black" stroke-width="2" fill="none" />
<polyline points="268.0,345.5,282.0,348.5,281.5,357.0,282.0,365.0,276.5,363.5" stroke="black" stroke-width="2" fill="none" />
<polyline points="271.5,358.0,273.0,349.5,272.0,351.5" stroke="black" stroke-width="2" fill="none" />
<polyline points="260.5,345.5,260.5,353.5,260.0,361.5,268.0,367.5,276.5,368.0,286.5,366.0,294.5,367.0" stroke="black" stroke-width="2" fill="none" />
<polyline points="305.5,379.0,297.5,382.5,289.5,384.0,282.0,382.0,274.5,377.5,266.5,381.5,256.0,388.5,248.0,388.5" stroke="black" stroke-width="2" fill="none" />
<polyline points="236.5,391.0,237.5,386.0,245.5,377.5,254.0,374.5,262.0,372.5" stroke="black" stroke-width="2" fill="none" />
<polyline points="271.0,378.0,264.5,385.5,259.5,399.0,247.5,403.0,251.5,404.0,256.0,407.5,254.0,415.5,253.0,423.5,251.5,432.0,249.5,440.0,248.0,448.5,246.0,456.0,245.0,464.0" stroke="black" stroke-width="2" fill="none" />
<polyline points="258.0,403.5,260.5,393.0,268.5,389.0,276.5,387.5,277.5,387.0,274.5,401.0,272.0,406.5" stroke="black" stroke-width="2" fill="none" />
<polyline points="263.5,388.5,269.5,382.5,270.0,390.5,268.5,401.5,271.5,402.5,274.0,398.5,289.0,398.5,293.0,403.5" stroke="black" stroke-width="2" fill="none" />
<polyline points="245.0,362.5,242.0,357.0,254.0,354.0,256.0,346.0,256.0,344.0" stroke="black" stroke-width="2" fill="none" />
<polyline points="231.0,357.0,239.0,353.0,235.0,357.0,231.0,358.0,233.0,366.5" stroke="black" stroke-width="2" fill="none" />
<polyline points="251.5,364.5,250.5,357.5,248.5,353.0,241.0,361.0,239.5,366.5,228.5,365.5,223.0,365.0,223.0,357.0,222.5,349.0,230.5,347.0,223.0,345.5" stroke="black" stroke-width="2" fill="none" />
<polyline points="225.0,342.5,230.0,350.5,228.0,359.0,234.5,362.0,236.5,364.0,247.5,366.0,255.5,367.0" stroke="black" stroke-width="2" fill="none" />
<polyline points="226.5,397.0,230.5,399.0,229.5,398.0,223.0,402.0,223.0,394.0,222.5,394.0" stroke="black" stroke-width="2" fill="none" />
<polyline points="218.0,399.0,218.0,407.0,217.0,415.0,217.0,422.5,217.5,430.5,219.0,438.5,219.0,446.5,219.0,455.0,219.0,464.0,219.0,472.0,219.0,484.0,224.5,492.0,224.0,500.0,228.5,503.0,236.5,507.0,244.5,506.5,244.5,501.5,248.5,506.0,253.0,507.0,261.0,507.0,269.0,507.0,276.5,504.0,284.5,502.0,287.5,506.0" stroke="black" stroke-width="2" fill="none" />
<polyline points="238.0,453.5,238.0,446.0,238.0,437.5,238.0,429.5,237.5,421.5,237.5,413.5,236.0,405.5,235.0,398.0,236.0,391.0,238.0,383.0,243.5,379.0,263.5,371.5,266.5,363.5,267.5,355.5,267.5,347.5,272.0,339.5,274.0,331.5,276.0,323.5,277.5,315.0,279.5,307.0,281.5,299.0,284.0,291.0,284.5,282.5,284.5,275.0,276.5,276.0,268.0,276.0,260.0,276.0,252.0,276.0,243.5,276.0,235.5,273.0,227.5,274.0,219.5,274.0" stroke="black" stroke-width="2" fill="none" />
<polyline points="220.0,271.5,228.0,267.5,236.0,271.5,243.5,272.0,251.5,271.5,260.5,270.5" stroke="black" stroke-width="2" fill="none" />
<polyline points="281.0,254.0,289.0,255.5,297.0,257.0,305.0,258.0" stroke="black" stroke-width="2" fill="none" />
<polyline points="287.5,290.5,289.0,298.5" stroke="black" stroke-width="2" fill="none" />
<polyline points="290.0,297.5,298.0,299.0" stroke="black" stroke-width="2" fill="none" />
<polyline points="308.0,309.5,307.5,317.5,307.5,325.5" stroke="black" stroke-width="2" fill="none" />
<polyline points="247.5,288.5,240.0,288.5,239.0,292.5,231.5,291.5,223.5,289.5" stroke="black" stroke-width="2" fill="none" />
<polyline points="224.5,286.0,228.0,286.5,236.0,286.0,244.5,286.5,252.5,285.0,254.5,288.0" stroke="black" stroke-width="2" fill="none" />
<polyline points="216.0,284.5,214.0,292.5,215.0,300.0,215.5,307.5,215.5,314.5,214.0,322.5,215.0,330.5,214.5,339.0,214.0,347.0,214.0,352.5,214.0,360.5,212.0,368.5,212.0,376.5,211.0,384.0,213.0,390.0,210.5,398.0,213.0,402.0,210.0,410.5,210.5,418.5,210.5,426.5,212.0,434.5,210.5,442.5,209.0,450.5,209.0,458.0,206.5,466.0,206.5,473.5,205.5,481.5,204.5,490.0,203.5,498.0,202.0,506.0,200.0,514.0,199.5,522.0,198.5,530.0,197.0,538.0,196.0,546.5,194.0,554.5,193.5,563.0,191.5,571.0,188.0,578.0,191.0,585.5,186.5,593.5,187.0,593.5" stroke="black" stroke-width="2" fill="none" />
<polyline points="219.5,255.5,227.5,253.5" stroke="black" stroke-width="2" fill="none" />
</svg>