<svg xmlns="http://www.w3.org/2000/svg" version="1.1"><polyline points="200.0,118.5,197.5,126.0,197.5,134.0,197.5,142.0,197.5,150.0,195.0,158.0,192.0,166.0,192.0,174.0,191.0,182.5,191.5,190.5,190.5,198.5,190.5,206.5,190.0,215.0,190.0,223.0,190.0,231.0,191.0,239.0,190.0,247.0,190.5,255.0" stroke="black" stroke-width="2" fill="none" />
<polyline points="199.0,307.0,207.5,308.0,215.0,306.0,222.5,305.0,230.5,303.0,238.5,299.0,247.5,298.0,256.0,298.0,264.0,298.5,272.5,297.5,281.0,298.0,289.0,298.0,296.0,297.5,304.0,296.5,312.0,297.0,320.0,296.5,327.5,295.5,335.5,295.5,343.5,295.5,351.5,295.5,359.5,296.5,367.5,295.5,375.5,295.0,383.5,296.0,391.5,296.0,399.5,297.5,407.5,298.5" stroke="black" stroke-width="2" fill="none" />
<polyline points="434.5,250.5,442.5,250.0,450.5,250.0,458.5,248.5,467.0,249.0,475.0,248.5,483.5,248.5,491.5,247.5,500.0,248.0,508.0,248.0" stroke="black" stroke-width="2" fill="none" />
<polyline points="457.0,243.5,449.0,246.5,441.0,247.5,433.5,247.5" stroke="black" stroke-width="2" fill="none" />
<polyline points="400.5,197.5,392.5,198.5,384.5,204.0,379.5,208.0,373.0,209.0,363.0,221.0,370.0,217.0,373.0,209.0,378.0,208.0,385.5,202.5,385.5,207.5" stroke="black" stroke-width="2" fill="none" />
<polyline points="368.5,217.0,360.5,220.0,352.5,210.0" stroke="black" stroke-width="2" fill="none" />
<polyline points="341.0,223.0,338.0,231.0" stroke="black" stroke-width="2" fill="none" />
<polyline points="350.0,233.5,358.0,233.5,366.0,233.0,373.5,234.0,381.5,234.0,389.5,234.0,397.5,234.5,406.0,234.5,414.5,235.0,422.5,237.5,430.5,237.5,438.5,237.5,446.5,237.5,454.5,237.0,462.5,237.0,470.5,237.0,479.0,237.5,487.0,236.0,495.0,235.5,502.5,235.5,510.5,237.0" stroke="black" stroke-width="2" fill="none" />
<polyline points="399.0,186.0,390.5,183.0,383.0,181.0,375.0,180.5,367.5,180.5,359.5,181.0,351.5,191.0" stroke="black" stroke-width="2" fill="none" />
<polyline points="358.0,182.0,351.0,190.0,349.0,198.0,349.0,206.0,351.5,214.0,356.5,223.0,366.5,230.0,374.5,231.5,382.5,232.0,390.5,232.0,398.5,233.5,406.5,233.0,414.5,233.0,422.5,238.5,431.0,239.0,439.0,239.5,447.5,239.5,455.5,240.5" stroke="black" stroke-width="2" fill="none" />
<polyline points="505.5,284.0,497.5,284.5,489.5,284.5,481.5,284.5,473.5,284.5,465.5,284.0,457.5,284.0,449.0,283.5,441.0,284.5,433.0,284.5,425.0,283.5,417.0,284.0,409.0,283.5,401.0,283.5,393.0,284.5,385.0,284.5,377.0,283.0,369.5,283.0,361.5,284.0,353.5,284.0,345.5,284.0,338.0,284.5,330.0,284.5,322.5,285.0,317.5,278.0,317.5,270.0,317.5,262.0,316.5,254.0,316.5,246.0" stroke="black" stroke-width="2" fill="none" />
<polyline points="318.0,248.0,318.0,256.5,318.0,264.5,318.0,273.0,318.5,281.0" stroke="black" stroke-width="2" fill="none" />
<polyline points="309.5,263.5,301.5,274.5,293.5,279.5,284.5,280.5,292.5,279.5,304.0,271.0,309.5,263.5,313.5,255.5,314.0,247.5,314.0,243.5" stroke="black" stroke-width="2" fill="none" />
<polyline points="320.0,248.5,327.5,248.5,335.5,249.0,343.5,249.5" stroke="black" stroke-width="2" fill="none" />
<polyline points="351.0,241.5,351.0,234.0" stroke="black" stroke-width="2" fill="none" />
<polyline points="369.5,227.0,361.0,224.0,353.5,223.0,345.0,223.5,339.5,232.5,331.5,238.0,323.5,239.0,315.5,239.0,307.5,237.0,299.5,238.0,291.0,241.5,283.0,248.5,275.0,260.5,267.5,261.0,259.5,261.0,251.0,261.5,243.0,264.5" stroke="black" stroke-width="2" fill="none" />
<polyline points="287.5,282.0,295.5,282.0,303.5,282.5,312.0,282.5" stroke="black" stroke-width="2" fill="none" />
<polyline points="275.0,261.0,280.5,252.5,288.0,244.5,301.0,236.0" stroke="black" stroke-width="2" fill="none" />
<polyline points="234.0,194.5,226.0,194.5" stroke="black" stroke-width="2" fill="none" />
<polyline points="226.0,193.0,233.5,193.0" stroke="black" stroke-width="2" fill="none" />
<polyline points="217.5,176.5,225.5,163.5" stroke="black" stroke-width="2" fill="none" />
<polyline points="218.0,123.0,226.5,122.0" stroke="black" stroke-width="2" fill="none" />
<polyline points="220.0,121.5,219.0,129.5,219.0,137.5,220.0,148.5,226.5,157.0,226.5,165.5,221.5,173.5,218.0,182.0,218.0,190.0,218.0,197.5,218.5,205.5,218.0,213.5,218.0,221.5,217.0,229.5,217.5,237.5,218.5,245.5,217.0,253.5,218.0,261.5,218.0,269.5,218.0,277.0,217.0,285.0,217.0,293.5,210.0,301.5,200.5,306.5,208.5,302.5" stroke="black" stroke-width="2" fill="none" />
<polyline points="209.5,308.5,217.5,309.5,225.5,309.0,233.5,309.0,241.0,309.5,249.0,309.5,256.5,308.0,264.5,307.5,272.5,307.5,280.5,307.5,288.5,307.0,296.5,306.5,304.5,306.0,312.5,306.0,320.5,305.5,328.5,305.5,336.5,305.5,344.5,306.0,352.5,305.0,360.5,304.5,368.5,304.5,376.5,303.5,384.0,303.5,392.5,304.0,400.5,302.0" stroke="black" stroke-width="2" fill="none" />
<polyline points="404.0,215.0,406.0,207.0,407.0,199.0,407.0,192.0,396.0,184.0" stroke="black" stroke-width="2" fill="none" />
<polyline points="235.0,300.5,242.0,292.5,242.0,284.5,242.0,276.5,242.0,268.5,244.0,260.5,243.5,252.5,243.5,244.5,244.0,236.0,243.0,228.5,244.0,221.0,243.5,213.0,243.5,205.5,244.0,197.5,244.5,190.0,244.5,182.0,245.5,173.5,244.5,165.5,241.5,157.5,239.0,149.5,239.0,141.0,238.5,133.0,238.5,125.0,237.0,119.0,228.5,117.5,220.5,117.0,212.5,116.5,204.5,116.5,197.0,121.0" stroke="black" stroke-width="2" fill="none" />
<polyline points="80.5,316.0,73.0,315.0,65.0,315.0" stroke="black" stroke-width="2" fill="none" />
<polyline points="60.0,305.5,52.0,306.5,43.5,307.5" stroke="black" stroke-width="2" fill="none" />
<polyline points="33.5,315.0,42.0,317.0,50.0,319.0,58.0,320.0,65.5,320.5,73.5,320.5,81.5,319.5,89.0,318.5" stroke="black" stroke-width="2" fill="none" />
<polyline points="49.0,320.5,40.5,319.5,32.5,317.5" stroke="black" stroke-width="2" fill="none" />
<polyline points="15.5,308.0,23.5,307.0,31.5,305.0,40.0,303.0,48.0,302.0,55.5,301.0,63.5,301.0,71.5,303.0,79.0,303.0,87.0,303.5,95.0,304.5,103.0,306.5,111.5,308.0" stroke="black" stroke-width="2" fill="none" />
<polyline points="23.5,303.0,15.5,305.0" stroke="black" stroke-width="2" fill="none" />
<polyline points="1.5,301.5,9.5,301.5,17.5,300.0,25.5,300.0,33.0,299.5" stroke="black" stroke-width="2" fill="none" />
<polyline points="2.5,327.5,10.0,326.5,18.0,323.5,26.0,324.5,33.5,325.5,41.0,324.5,49.5,323.0,57.5,323.0,67.5,312.0,75.5,312.5,84.0,312.5,92.0,312.5,100.0,311.5,108.0,309.5" stroke="black" stroke-width="2" fill="none" />
<polyline points="185.5,261.0,177.0,260.5,168.5,261.0,160.5,261.0,152.5,261.0,144.5,260.5,137.0,261.0,129.0,261.0,121.0,261.5,113.0,261.5,105.5,261.5,97.5,261.5,89.5,261.5,81.0,261.0,73.5,262.0,66.0,262.0,58.0,262.5,50.0,261.5,42.0,262.0,33.5,263.0,25.5,263.0,17.5,262.0,9.0,263.0,0.5,262.5" stroke="black" stroke-width="2" fill="none" />
</svg>