<svg xmlns="http://www.w3.org/2000/svg" version="1.1"><polyline points="310.0,57.5,289.0,65.5,275.0,74.0,264.5,81.5,255.0,89.5,249.0,97.5,242.5,105.0,238.0,112.5,234.0,120.5,231.5,128.5,228.5,137.0,226.5,145.0,225.5,153.0,223.5,160.5,221.5,168.5,221.0,176.5,220.0,184.5,220.0,193.5,218.0,202.0,217.0,210.0,219.0,218.0,219.0,225.5,221.5,234.0,224.0,241.5,226.0,249.0" stroke="black" stroke-width="2" fill="none" />
<polyline points="230.0,245.0,227.0,242.5,224.5,234.0,223.0,226.0,224.0,217.5,222.0,209.5,221.5,201.0,227.5,192.5,228.5,184.5,226.0,176.5,223.0,174.5" stroke="black" stroke-width="2" fill="none" />
<polyline points="227.0,193.0,232.0,188.0,233.5,195.5,234.0,203.5,237.0,206.5" stroke="black" stroke-width="2" fill="none" />
<polyline points="229.5,206.5,229.0,198.5" stroke="black" stroke-width="2" fill="none" />
<polyline points="226.5,224.0,228.0,232.5,233.0,241.5,232.0,237.0" stroke="black" stroke-width="2" fill="none" />
<polyline points="231.0,233.0,229.0,225.5" stroke="black" stroke-width="2" fill="none" />
<polyline points="271.5,195.5,279.5,197.0" stroke="black" stroke-width="2" fill="none" />
<polyline points="280.0,208.5,280.0,208.0,278.5,199.5,280.5,191.0,276.5,185.0,277.5,178.5,273.0,176.5,276.0,168.5,270.0,176.0" stroke="black" stroke-width="2" fill="none" />
<polyline points="268.0,168.0,276.5,166.0,268.0,165.5,271.0,173.5,270.5,181.5,272.5,189.5,272.5,197.5,274.5,205.0,277.5,207.0,277.5,200.0" stroke="black" stroke-width="2" fill="none" />
<polyline points="264.0,202.0,265.0,194.0,258.0,196.0,256.5,198.0,255.0,190.5,255.0,182.5,255.0,174.5,259.0,161.5,258.0,157.5" stroke="black" stroke-width="2" fill="none" />
<polyline points="253.0,154.5,243.0,162.5,238.0,170.5" stroke="black" stroke-width="2" fill="none" />
<polyline points="256.5,177.0,260.0,174.0,263.0,183.0,258.0,191.0,260.0,193.5,261.5,199.5" stroke="black" stroke-width="2" fill="none" />
<polyline points="277.0,151.5,283.5,159.5,285.5,167.5,285.5,175.5,287.0,184.0,288.0,191.5,288.0,199.5,288.5,207.5,289.5,215.0,290.5,223.0,290.0,231.0,290.0,239.0,289.0,247.5,285.0,255.5,285.0,263.5,284.5,271.5,280.5,279.5,283.5,273.5" stroke="black" stroke-width="2" fill="none" />
<polyline points="320.5,265.5,328.5,251.5,336.0,240.5,344.0,230.5,351.5,222.5,359.0,214.0,367.0,205.0,375.0,196.5,383.0,191.5,391.0,192.5,399.0,199.5,407.0,210.5" stroke="black" stroke-width="2" fill="none" />
<polyline points="390.0,193.0,399.0,201.0,404.0,208.5,408.5,216.5,410.0,224.5,409.0,232.0,402.0,245.0,394.0,253.0,385.5,261.0,388.5,258.0,396.0,250.0,401.0,248.0" stroke="black" stroke-width="2" fill="none" />
<polyline points="398.5,251.5,388.5,262.5,389.5,261.5,395.5,253.5" stroke="black" stroke-width="2" fill="none" />
<polyline points="373.5,246.0,379.5,237.5,384.5,229.5,376.5,233.0,369.0,241.0,371.0,239.5,378.5,231.5,385.5,233.0,377.5,242.0,370.0,247.0,364.5,248.0,364.5,250.0,364.5,241.5,371.5,234.0,378.5,226.0,377.0,227.5,369.0,236.5,361.0,245.5" stroke="black" stroke-width="2" fill="none" />
<polyline points="353.0,236.5,351.5,230.5,359.5,222.5,366.5,214.0,376.5,212.0,369.5,215.0" stroke="black" stroke-width="2" fill="none" />
<polyline points="374.0,209.0,366.0,216.0,358.5,226.5,357.5,233.5,366.5,227.5,371.5,220.0,374.0,212.0,364.5,229.5,356.5,231.5" stroke="black" stroke-width="2" fill="none" />
<polyline points="383.5,191.5,372.5,199.5,364.5,207.5,357.5,215.0,349.5,223.0,342.5,231.0,335.5,239.5,329.5,247.5,324.5,256.0,321.0,264.0,320.0,271.5,324.0,279.5,322.0,287.0,324.0,294.5,327.5,302.5" stroke="black" stroke-width="2" fill="none" />
<polyline points="436.0,193.0,437.0,185.0,435.5,177.0,440.5,169.0,437.5,164.0,439.5,155.5,437.5,148.0,436.5,140.0,431.5,143.5" stroke="black" stroke-width="2" fill="none" />
<polyline points="440.5,128.5,432.5,112.5,424.5,100.0,416.5,89.0,408.5,81.5,400.5,74.5,392.5,69.5,384.5,65.5,377.0,63.0,369.0,60.5,361.0,59.0,353.0,57.5,345.5,57.0,337.5,57.0,329.0,58.0,321.0,59.0,313.5,60.0" stroke="black" stroke-width="2" fill="none" />
<polyline points="310.0,61.0,290.0,69.0,277.5,77.5,268.0,85.5,265.0,87.5,258.0,95.5,254.0,96.5,250.5,104.5,245.5,112.5,242.0,120.5,238.5,128.5,243.0,134.5,234.5,145.5,242.5,125.5,250.0,112.5,258.0,104.0,266.0,93.5,274.0,86.5" stroke="black" stroke-width="2" fill="none" />
<polyline points="269.0,88.0,259.5,96.0,258.5,106.0,253.0,114.0,247.0,122.0,247.5,120.0,255.0,112.5,266.0,99.5,274.0,93.5" stroke="black" stroke-width="2" fill="none" />
<polyline points="275.5,96.5,265.5,104.5,257.5,112.5,253.0,120.5,246.0,128.5,241.5,136.5,239.0,145.0,236.5,153.5" stroke="black" stroke-width="2" fill="none" />
<polyline points="238.0,148.5,246.0,131.5,254.5,120.0,262.5,110.0,270.5,102.0,278.5,97.0,286.5,96.0,294.5,94.0,302.5,92.0,310.5,90.5,318.5,88.5,326.5,87.5,334.0,87.5,342.0,87.5,350.0,88.5,358.0,90.5,366.0,92.5,374.0,95.5,382.0,99.5,390.5,104.5,398.5,111.5,406.5,118.0,414.0,127.0,421.5,137.0,429.0,147.5" stroke="black" stroke-width="2" fill="none" />
<polyline points="437.0,124.5,429.0,112.5,420.5,103.0,412.5,94.5,405.5,88.5,397.5,80.5,389.5,77.0,382.0,73.0,373.5,70.5,365.5,67.5,358.0,65.5,350.0,62.5,341.5,63.0,334.0,61.5,328.5,59.5,320.0,60.5,312.5,62.5,304.0,64.5,296.0,67.5,288.5,71.5,280.5,75.5" stroke="black" stroke-width="2" fill="none" />
<polyline points="280.0,83.5,277.0,91.5,267.0,99.5,257.0,104.0,249.5,112.0,244.5,120.0,240.5,128.0,238.0,135.5,235.0,143.5,235.0,151.5,235.0,159.5,236.0,167.5,238.0,170.5,246.0,159.0,254.0,154.0,262.0,152.0,269.5,149.5,277.5,150.5" stroke="black" stroke-width="2" fill="none" />
<polyline points="229.0,139.5,236.5,117.5,244.5,102.5,252.5,92.5,260.0,84.0,268.0,77.0,276.0,72.5,284.0,67.5,292.0,63.5,300.5,61.0,308.5,58.5,316.0,56.5,324.0,54.5,331.5,54.5,340.0,53.0,348.0,53.5,356.0,54.5,364.5,55.5,372.5,57.5,380.0,60.5,388.0,64.0,396.0,68.0,404.0,72.5,412.0,79.5,420.0,86.5,428.0,96.5,436.0,109.0,444.0,126.0,442.0,139.0" stroke="black" stroke-width="2" fill="none" />
<polyline points="427.5,217.0,419.5,227.5,411.5,234.5,412.0,234.0,421.0,226.0,428.0,218.0,431.5,210.0,434.5,202.0,437.5,193.5,438.5,185.5,439.5,178.0,433.0,172.0,434.0,164.0,433.0,156.0,429.0,147.5,423.5,139.5,416.5,131.5,410.5,123.0,402.5,115.0,394.0,106.5,382.0,98.5,365.5,90.5" stroke="black" stroke-width="2" fill="none" />
<polyline points="365.5,68.0,385.5,75.5,398.5,83.5,409.0,91.5,417.0,99.0,423.0,106.5,429.5,114.0,435.5,122.0,439.5,130.0,445.5,140.5,446.5,149.5,447.5,157.5,447.5,166.0,447.0,180.0,445.0,188.5" stroke="black" stroke-width="2" fill="none" />
<polyline points="443.5,183.5,444.5,175.5,444.5,167.5,444.0,159.0,444.0,151.0,441.5,143.0,440.0,135.0,439.5,125.0,435.5,117.0,430.5,110.0,425.0,102.0,418.5,94.0,411.5,86.0,401.5,78.0,388.0,70.0,372.0,63.5" stroke="black" stroke-width="2" fill="none" />
<polyline points="374.0,60.5,392.5,68.5,405.5,76.5,415.0,84.5,423.0,92.5,429.0,100.0,434.5,108.0,438.5,115.5,442.5,123.0,445.5,131.5,447.5,139.5,449.5,147.0,450.5,155.0,450.5,162.5,450.5,171.0,449.5,179.0,448.5,187.0,447.0,195.0,444.0,203.0,441.0,211.0,435.5,219.0,432.0,227.0,426.5,235.0,421.5,243.5,415.5,251.5,412.5,255.5,420.5,244.0,427.5,233.0,435.5,219.0,443.5,202.0" stroke="black" stroke-width="2" fill="none" />
<polyline points="292.0,65.5,284.5,69.5,277.5,77.0,270.5,81.5,267.0,82.0,259.0,92.0,251.0,100.0,242.5,111.0,234.0,128.0,236.0,123.0,240.0,115.0" stroke="black" stroke-width="2" fill="none" />
</svg>