<svg xmlns="http://www.w3.org/2000/svg" version="1.1"><polyline points="10.0,87.0,5.0,89.0,13.0,87.0,21.0,87.0,29.5,89.0,37.5,91.0,45.5,95.5,53.5,102.0,62.0,108.0,70.0,111.5,78.0,115.5,86.0,120.5" stroke="black" stroke-width="2" fill="none" />
<polyline points="75.5,138.5,83.0,143.0,87.0,151.0,92.0,158.5,100.0,166.5,107.5,174.5,105.0,185.0,113.0,193.5,116.0,201.5,117.0,210.0,119.5,218.0,120.5,225.5,123.5,233.5,128.0,241.5,129.0,249.5,130.0,257.0,131.0,265.0,135.0,273.0,132.0,276.0" stroke="black" stroke-width="2" fill="none" />
<polyline points="121.5,264.0,117.5,259.0,109.5,252.0,100.5,247.0" stroke="black" stroke-width="2" fill="none" />
<polyline points="104.5,224.5,97.0,223.5,89.5,221.5,82.0,215.5" stroke="black" stroke-width="2" fill="none" />
<polyline points="81.5,213.0,86.5,221.0" stroke="black" stroke-width="2" fill="none" />
<polyline points="86.0,226.0,78.0,221.0,70.0,209.0" stroke="black" stroke-width="2" fill="none" />
<polyline points="79.5,213.5,87.5,212.5,96.0,215.5,104.0,220.5" stroke="black" stroke-width="2" fill="none" />
<polyline points="106.0,222.0,90.0,214.5" stroke="black" stroke-width="2" fill="none" />
<polyline points="95.5,200.5,96.0,198.0,88.0,198.0" stroke="black" stroke-width="2" fill="none" />
<polyline points="64.5,199.0,64.5,210.0,70.5,218.5" stroke="black" stroke-width="2" fill="none" />
<polyline points="40.0,216.0,43.0,206.0,44.0,214.0,45.0,219.0,43.5,227.0,43.5,235.0,45.0,242.5,46.5,250.0,43.5,258.0,55.0,276.5,62.5,279.5,70.5,280.5,79.0,279.5,87.0,281.0,94.5,281.0,102.5,281.0,110.0,280.5,118.0,278.5,126.0,276.5" stroke="black" stroke-width="2" fill="none" />
<polyline points="131.5,338.5,131.5,336.5,139.5,333.5,142.5,335.5,146.5,338.0,139.5,338.5,138.0,339.5,140.5,347.5,149.0,350.0,145.0,351.0,151.0,353.5,150.0,362.0,155.0,363.5,156.0,372.5,155.5,381.0,155.5,388.0,145.5,392.0,153.0,392.5,153.0,390.0,161.0,387.0" stroke="black" stroke-width="2" fill="none" />
<polyline points="148.0,386.5,143.0,378.5,145.5,371.0,144.5,367.0,142.0,365.5,143.0,358.0,138.0,350.5,136.0,338.0" stroke="black" stroke-width="2" fill="none" />
<polyline points="138.0,343.0,145.5,347.0,153.5,355.0" stroke="black" stroke-width="2" fill="none" />
<polyline points="149.5,370.0,152.5,372.0,152.5,380.0,157.0,371.0,161.5,378.5" stroke="black" stroke-width="2" fill="none" />
<polyline points="181.0,366.5,189.0,358.5,197.0,353.0,205.0,348.0,213.0,343.0,220.5,337.0,228.5,331.0,236.5,344.0" stroke="black" stroke-width="2" fill="none" />
<polyline points="231.0,349.0,218.0,357.0,205.0,365.0,198.5,365.0" stroke="black" stroke-width="2" fill="none" />
<polyline points="194.5,365.0,186.5,365.0" stroke="black" stroke-width="2" fill="none" />
<polyline points="183.5,365.5,185.5,369.5" stroke="black" stroke-width="2" fill="none" />
<polyline points="155.0,379.0,161.0,375.0,157.5,365.0,148.5,360.0,147.5,366.0,142.0,368.5,138.0,358.0,135.0,350.0,131.0,341.5" stroke="black" stroke-width="2" fill="none" />
<polyline points="128.0,347.5,136.0,342.0,128.5,337.0,126.5,345.0,129.5,353.0,134.0,361.0,137.0,369.0,140.0,377.5,142.5,385.5,148.5,392.0,151.0,383.0,159.5,387.0" stroke="black" stroke-width="2" fill="none" />
<polyline points="129.5,424.0,138.5,432.0,145.5,439.5,153.0,447.5,159.0,455.5,165.0,463.5,170.0,471.5,172.5,479.5,175.5,487.0,178.5,495.0,179.0,503.0,180.0,511.0,180.0,519.0,179.5,524.0,176.5,532.5,171.5,541.0,161.0,549.0,147.0,544.5,144.0,552.5,151.5,551.5,160.0,549.0,168.0,543.0,176.0,532.0" stroke="black" stroke-width="2" fill="none" />
<polyline points="169.5,522.0,159.5,527.0,158.5,531.0,150.5,527.0,149.0,530.5,141.0,531.5,140.0,539.5,132.0,542.5,135.0,547.5,136.0,538.5,128.5,536.5,129.5,529.0,138.0,520.0,135.0,516.5,130.5,513.5,126.5,509.5,132.5,507.5,135.0,499.5,132.5,497.5,138.5,494.5,139.5,487.5,145.5,481.0,151.5,480.0,152.5,472.0,165.0,472.0,162.0,468.5,159.0,460.0,149.0,455.0,148.0,444.0,140.0,437.5,133.0,431.0,126.0,437.5,124.5,429.5,119.5,428.0,111.0,429.5,103.0,426.0,98.0,422.0,94.0,435.5,98.0,432.5,96.0,430.5,94.0,422.5,95.0,414.5,102.0,408.0,103.0,405.0,92.0,406.0,84.0,405.5,84.5,399.0,79.5,393.0,82.0,390.0,84.5,382.0,69.5,381.0,66.0,373.0,65.0,368.0,62.0,366.5,64.5,369.0,56.0,370.0" stroke="black" stroke-width="2" fill="none" />
<polyline points="58.5,372.0,70.0,376.0,73.0,375.5,72.5,381.0,76.5,387.0,77.0,389.0,85.5,388.5" stroke="black" stroke-width="2" fill="none" />
<polyline points="88.0,392.0,90.0,400.0,100.0,400.0" stroke="black" stroke-width="2" fill="none" />
<polyline points="90.5,395.0,96.0,402.5,93.0,410.0,89.0,419.5,97.0,414.5,106.0,421.5,108.0,427.0,110.0,430.0" stroke="black" stroke-width="2" fill="none" />
<polyline points="111.0,426.0,107.0,434.0,112.5,441.0,114.5,436.5" stroke="black" stroke-width="2" fill="none" />
<polyline points="121.5,443.5,116.5,443.0,121.0,443.0,129.0,435.5,126.0,432.5" stroke="black" stroke-width="2" fill="none" />
<polyline points="122.0,422.0,120.0,430.0,122.0,435.0,114.5,444.0,120.5,449.0,127.5,442.0,131.0,440.0,135.0,440.0" stroke="black" stroke-width="2" fill="none" />
<polyline points="139.0,438.0,141.0,446.0,145.0,446.0,136.5,455.0,132.5,464.0,139.0,473.5,134.0,481.5,126.5,493.5,122.5,501.5,125.5,504.0,123.5,508.0,121.5,514.0,120.5,519.0,109.0,520.5,116.0,528.0,115.0,535.5,123.5,542.0,128.0,548.0,136.0,552.0,142.0,548.5,148.0,550.5,157.0,547.5" stroke="black" stroke-width="2" fill="none" />
<polyline points="145.0,532.5,152.5,526.5" stroke="black" stroke-width="2" fill="none" />
<polyline points="150.0,536.5,153.0,524.5,155.5,516.5" stroke="black" stroke-width="2" fill="none" />
<polyline points="163.0,515.0,159.0,523.5,158.5,529.0,156.5,535.0,145.5,537.5" stroke="black" stroke-width="2" fill="none" />
<polyline points="132.5,529.5,124.5,531.5" stroke="black" stroke-width="2" fill="none" />
<polyline points="130.5,556.0,122.5,547.0,121.0,541.0,108.0,533.5,100.0,524.5" stroke="black" stroke-width="2" fill="none" />
<polyline points="112.5,516.5,98.5,516.5,94.5,512.5,86.5,501.0" stroke="black" stroke-width="2" fill="none" />
<polyline points="83.5,500.0,91.5,502.0,99.5,503.0,107.5,499.0,119.0,504.5,127.0,504.0,131.0,495.0" stroke="black" stroke-width="2" fill="none" />
<polyline points="137.5,500.0,145.5,501.0" stroke="black" stroke-width="2" fill="none" />
<polyline points="157.0,495.0,151.5,503.5,153.5,506.0,150.5,514.0,146.5,517.0,139.5,525.0,134.5,533.0,133.5,534.0,141.5,528.0,144.5,524.0,152.0,516.0,155.0,511.0,157.0,513.5,162.0,512.5,165.5,514.5,168.5,510.0,173.5,510.0" stroke="black" stroke-width="2" fill="none" />
<polyline points="170.0,506.5,165.5,514.0,175.5,518.0,167.5,519.0,170.5,527.0,162.0,535.0,159.5,543.0,162.0,543.0" stroke="black" stroke-width="2" fill="none" />
<polyline points="162.0,503.5,169.5,500.5,173.5,503.0" stroke="black" stroke-width="2" fill="none" />
<polyline points="191.5,466.5,199.5,475.0,207.5,485.0,217.5,493.5,225.0,500.0,233.0,510.0,240.5,516.0,249.0,522.0,257.0,528.5,265.0,537.5,272.5,545.5,280.0,550.5" stroke="black" stroke-width="2" fill="none" />
<polyline points="284.5,551.0,276.5,543.0,268.5,536.0" stroke="black" stroke-width="2" fill="none" />
<polyline points="268.5,535.0,274.0,543.5,283.0,550.5,288.0,556.5,286.5,564.5,285.0,573.0,289.5,581.0,294.5,589.0,299.5,597.5,294.0,605.5,300.0,622.5,308.5,630.5,312.5,636.5,306.5,646.5,315.0,640.5,325.0,627.0,333.0,617.5,341.0,604.5,346.0,597.5,354.0,591.5,361.0,591.5" stroke="black" stroke-width="2" fill="none" />
<polyline points="348.5,584.0,344.5,592.0,340.5,601.5,344.5,611.5,350.5,615.0,353.5,617.0,361.0,611.5" stroke="black" stroke-width="2" fill="none" />
<polyline points="363.5,640.5,371.5,643.0" stroke="black" stroke-width="2" fill="none" />
<polyline points="391.5,644.5,399.5,642.0" stroke="black" stroke-width="2" fill="none" />
<polyline points="398.5,630.0,406.5,630.0" stroke="black" stroke-width="2" fill="none" />
<polyline points="408.5,626.5,400.5,627.0" stroke="black" stroke-width="2" fill="none" />
<polyline points="393.0,623.0,401.5,618.0,393.5,624.5,393.5,632.5,399.5,633.5,401.0,641.5,400.5,648.5,403.5,649.5,395.5,654.0,400.5,658.0,404.5,661.5,400.5,669.0,402.5,664.0,405.5,674.5" stroke="black" stroke-width="2" fill="none" />
<polyline points="383.0,687.5,384.0,683.5,390.0,693.5,390.0,702.0,397.0,711.0,394.5,719.0" stroke="black" stroke-width="2" fill="none" />
<polyline points="380.5,707.5,382.5,699.5,389.5,697.0,381.5,695.5" stroke="black" stroke-width="2" fill="none" />
<polyline points="375.0,690.0,385.5,685.0,381.5,687.5,375.5,694.0,378.5,696.0,386.5,701.5,388.5,704.5,392.0,710.0,395.0,700.5,396.5,701.5,390.5,710.0" stroke="black" stroke-width="2" fill="none" />
<polyline points="372.5,701.0,370.5,695.0" stroke="black" stroke-width="2" fill="none" />
<polyline points="350.0,683.5,358.0,682.5,366.0,690.5,365.0,691.0,370.0,699.5,385.0,703.5,392.5,700.5,397.0,696.5" stroke="black" stroke-width="2" fill="none" />
<polyline points="391.0,666.5,380.5,659.5,372.5,663.5" stroke="black" stroke-width="2" fill="none" />
<polyline points="343.0,673.0,352.0,673.5,354.0,681.5,346.0,687.5,352.0,694.5,359.5,699.5,367.5,704.0,375.5,709.0,384.0,714.0,392.0,719.0,397.0,722.0,405.0,726.0,413.0,731.0,422.0,735.0,425.0,738.0,432.5,738.5,434.5,744.5,442.0,743.5,443.0,751.5,450.5,757.5,458.5,762.5" stroke="black" stroke-width="2" fill="none" />
<polyline points="512.0,722.0,512.0,714.5" stroke="black" stroke-width="2" fill="none" />
<polyline points="513.0,705.5,513.0,697.5,513.0,689.5,513.0,683.0" stroke="black" stroke-width="2" fill="none" />
<polyline points="512.0,659.0,510.0,664.0,512.0,656.0" stroke="black" stroke-width="2" fill="none" />
<polyline points="506.5,637.5,506.5,629.5,510.5,627.5,509.5,624.0" stroke="black" stroke-width="2" fill="none" />
<polyline points="497.5,588.0,489.0,592.5,484.0,590.0,475.5,595.0,473.5,599.5,470.5,595.5,471.5,588.5,470.5,584.5,480.5,575.5,492.0,571.5,488.0,569.5,498.0,561.5,501.0,553.5,510.0,552.0,511.0,546.0,502.0,543.0,505.5,540.0,501.5,533.5,497.5,531.5,500.0,523.5,495.0,520.5" stroke="black" stroke-width="2" fill="none" />
<polyline points="499.5,522.5,507.5,530.5" stroke="black" stroke-width="2" fill="none" />
<polyline points="509.0,538.0,501.0,542.0" stroke="black" stroke-width="2" fill="none" />
<polyline points="501.0,530.5,499.0,533.0,493.5,537.0,487.5,552.5,481.5,561.5,472.5,554.5,464.5,554.5" stroke="black" stroke-width="2" fill="none" />
<polyline points="467.5,555.5,475.5,559.5" stroke="black" stroke-width="2" fill="none" />
<polyline points="491.0,563.0,490.0,573.5,488.0,578.5,480.0,579.0" stroke="black" stroke-width="2" fill="none" />
<polyline points="463.5,583.0,455.5,580.0,447.5,581.5" stroke="black" stroke-width="2" fill="none" />
<polyline points="438.0,582.0,446.0,575.0,450.5,571.0" stroke="black" stroke-width="2" fill="none" />
<polyline points="458.0,559.5,459.0,557.5,463.0,557.5,456.0,570.5,462.0,584.0,463.0,591.0,464.5,584.0,471.5,579.0,473.0,581.5,481.0,582.5,493.0,583.5,504.0,584.5" stroke="black" stroke-width="2" fill="none" />
<polyline points="498.5,584.0,503.5,576.0" stroke="black" stroke-width="2" fill="none" />
<polyline points="507.5,559.5,507.5,554.0,503.0,552.0,500.0,560.5,491.0,559.5,493.0,557.0,488.5,555.0,492.5,547.0,480.0,542.0" stroke="black" stroke-width="2" fill="none" />
<polyline points="480.5,524.5,488.5,523.5" stroke="black" stroke-width="2" fill="none" />
<polyline points="501.5,525.0,508.5,533.0,507.0,540.0,502.0,550.0,510.5,545.5,512.5,544.0,512.5,548.0" stroke="black" stroke-width="2" fill="none" />
<polyline points="502.0,555.0,505.0,563.0,505.0,571.0,499.0,578.5,490.0,584.5,492.0,580.0,500.0,579.0,511.0,576.5" stroke="black" stroke-width="2" fill="none" />
<polyline points="510.5,519.5,509.5,511.5,500.5,511.5,492.5,506.5" stroke="black" stroke-width="2" fill="none" />
<polyline points="486.0,505.5,494.0,504.5,494.0,506.5,492.0,514.5,497.0,522.5,507.0,521.5,511.0,525.0" stroke="black" stroke-width="2" fill="none" />
<polyline points="512.0,521.0,512.0,511.5,504.5,510.5,501.5,506.0,488.5,515.0,488.0,511.0,480.0,512.5" stroke="black" stroke-width="2" fill="none" />
<polyline points="473.0,521.0,477.0,516.0,488.5,525.0,481.0,527.0,479.0,532.0,477.0,534.0,486.0,530.0,494.5,537.0,494.5,539.0,497.5,541.5,499.5,550.0,510.5,557.0,511.5,565.0,509.5,573.5,511.5,576.5,507.5,588.0,494.5,594.5,496.0,594.5,487.5,597.0,488.5,605.0,496.5,607.0,499.0,608.5,497.0,609.5,501.5,612.0" stroke="black" stroke-width="2" fill="none" />
<polyline points="462.0,615.0,459.5,620.0,458.5,617.0" stroke="black" stroke-width="2" fill="none" />
<polyline points="445.5,637.0,447.5,639.0" stroke="black" stroke-width="2" fill="none" />
<polyline points="437.0,631.0,429.0,623.0" stroke="black" stroke-width="2" fill="none" />
<polyline points="439.0,615.5,431.0,615.5,426.0,606.5,426.0,604.5,418.0,599.5" stroke="black" stroke-width="2" fill="none" />
<polyline points="418.5,595.5,426.5,593.5" stroke="black" stroke-width="2" fill="none" />
<polyline points="413.0,606.0,424.0,605.0,424.0,613.0,429.0,621.0,433.0,629.0,439.5,627.5" stroke="black" stroke-width="2" fill="none" />
<polyline points="446.0,591.0,456.5,585.0,456.0,582.0,448.5,586.0,444.5,583.0,436.5,583.5,429.5,578.5,434.5,577.0,432.5,575.0,430.5,572.0" stroke="black" stroke-width="2" fill="none" />
<polyline points="434.0,568.0,426.0,568.5" stroke="black" stroke-width="2" fill="none" />
<polyline points="421.0,577.5,421.5,569.5,419.5,573.5,411.5,571.5" stroke="black" stroke-width="2" fill="none" />
<polyline points="417.0,581.0,409.0,584.0" stroke="black" stroke-width="2" fill="none" />
<polyline points="402.0,564.5,412.0,571.5,416.0,579.5,409.0,583.5,412.5,588.0,412.5,601.5,418.5,602.5,418.0,611.0" stroke="black" stroke-width="2" fill="none" />
<polyline points="400.0,560.5,408.0,558.5,409.0,554.5" stroke="black" stroke-width="2" fill="none" />
<polyline points="385.5,549.5,378.0,549.5" stroke="black" stroke-width="2" fill="none" />
<polyline points="371.0,552.0,371.0,556.0,367.5,564.5,374.5,569.5,375.5,565.5,385.0,566.5,391.0,566.5,393.0,574.0,391.0,583.0,394.0,584.0" stroke="black" stroke-width="2" fill="none" />
<polyline points="377.0,565.5,368.0,573.0,366.0,576.0" stroke="black" stroke-width="2" fill="none" />
<polyline points="344.0,553.5,336.0,544.0" stroke="black" stroke-width="2" fill="none" />
<polyline points="335.0,528.0,343.0,522.0,351.0,515.5,359.0,510.5,367.5,511.0,369.5,519.0,375.5,530.0,365.0,537.5,368.0,541.0,363.0,549.0,356.0,557.0,357.0,564.0,356.0,565.0,367.0,550.0,372.0,543.0,366.0,551.0,366.0,555.0,361.5,562.5,357.5,570.5,365.5,555.5,372.5,550.0,380.5,539.5,388.5,536.5" stroke="black" stroke-width="2" fill="none" />
<polyline points="386.5,535.5,389.5,543.5,383.5,549.5,380.0,559.0,388.0,557.0,391.0,561.5,395.0,557.0,400.5,566.5,405.0,568.5,413.0,566.5,415.0,561.0,418.0,557.5,428.0,562.5,436.0,562.5,442.5,559.5" stroke="black" stroke-width="2" fill="none" />
<polyline points="437.0,556.0,448.0,564.0,438.0,568.5,443.0,575.5,442.5,578.5,446.0,580.0,435.0,580.0,441.0,591.0,443.0,598.0,455.5,601.0,455.5,605.0" stroke="black" stroke-width="2" fill="none" />
<polyline points="507.0,598.5,495.0,603.5,490.5,600.5,485.5,609.5,477.5,604.5,476.5,604.5,471.5,601.0,477.5,591.5,483.0,588.5,493.5,584.5,480.5,584.5,484.5,579.5,475.5,574.5,478.5,562.5,482.5,554.5,484.5,546.5,477.5,540.5,472.5,533.0,472.5,525.0,481.5,515.5,486.5,508.0,486.5,499.5,483.5,491.5,481.0,488.0,473.0,490.0,472.5,492.0,470.5,483.5,465.5,473.5,464.0,465.0,463.5,460.5,457.5,455.5" stroke="black" stroke-width="2" fill="none" />
<polyline points="462.0,456.5,470.5,463.0,470.5,470.5,480.5,474.5,480.0,480.5,481.5,488.0" stroke="black" stroke-width="2" fill="none" />
<polyline points="485.0,478.5,492.5,481.0" stroke="black" stroke-width="2" fill="none" />
<polyline points="494.0,477.5,486.0,474.0,480.0,469.0,472.0,474.5" stroke="black" stroke-width="2" fill="none" />
<polyline points="477.0,455.0,477.5,461.0,480.5,468.5,487.5,469.5,486.5,478.0,489.5,480.0,499.5,486.0,491.5,488.0,482.5,493.0,490.5,494.0,494.5,487.0,498.5,492.0" stroke="black" stroke-width="2" fill="none" />
<polyline points="493.0,479.5,496.0,471.5" stroke="black" stroke-width="2" fill="none" />
<polyline points="488.0,440.0,480.5,440.5,475.5,432.5,467.0,426.0" stroke="black" stroke-width="2" fill="none" />
<polyline points="472.0,425.0,486.0,433.0,496.0,441.5" stroke="black" stroke-width="2" fill="none" />
<polyline points="466.0,441.5,459.0,442.0,451.0,444.0,454.0,444.0,460.5,439.5,460.5,431.5,452.5,439.0" stroke="black" stroke-width="2" fill="none" />
<polyline points="438.5,447.5,434.0,442.5" stroke="black" stroke-width="2" fill="none" />
<polyline points="431.5,445.5,426.5,453.5,422.5,461.5,424.5,466.5,417.0,471.5" stroke="black" stroke-width="2" fill="none" />
<polyline points="439.0,507.0,446.5,507.0" stroke="black" stroke-width="2" fill="none" />
<polyline points="443.0,512.5,435.0,513.5" stroke="black" stroke-width="2" fill="none" />
<polyline points="435.5,510.0,443.5,510.5,441.5,517.5,443.0,514.5,450.5,512.0,451.5,508.0" stroke="black" stroke-width="2" fill="none" />
<polyline points="432.0,529.0,424.0,529.0" stroke="black" stroke-width="2" fill="none" />
<polyline points="391.5,517.0,383.5,512.0,375.0,518.0,367.0,516.0" stroke="black" stroke-width="2" fill="none" />
<polyline points="366.0,518.5,374.0,520.5,383.5,524.0,382.5,533.0,383.5,537.0,374.5,545.0,369.0,552.5,377.5,550.0,375.5,554.0,377.0,562.0,383.0,559.0,383.0,564.0,382.0,569.0,390.5,572.5,399.0,572.0,407.5,575.0,418.0,577.0,428.0,577.0,436.0,577.0,437.0,571.0,443.0,566.5,451.0,563.0,455.5,568.0,457.0,573.5,459.5,568.5,467.0,573.5,471.0,571.5,472.5,575.0,480.0,574.0,488.0,569.0,491.5,575.0,496.0,572.0,502.0,573.0,508.0,568.0,511.5,565.5" stroke="black" stroke-width="2" fill="none" />
<polyline points="500.5,446.0,493.5,444.0,490.0,448.0,486.0,441.5,480.5,436.5,468.5,428.5,458.5,420.0,451.5,419.0" stroke="black" stroke-width="2" fill="none" />
<polyline points="454.5,421.0,451.5,428.5,448.5,436.0,444.5,444.0,439.5,452.0,438.0,455.5,445.5,440.5" stroke="black" stroke-width="2" fill="none" />
<polyline points="457.0,420.0,455.0,428.0,457.5,436.5,463.5,441.5,465.0,449.0,457.0,452.5,450.0,454.5,452.0,462.0,459.5,466.5,465.5,463.5,471.5,462.5" stroke="black" stroke-width="2" fill="none" />
<polyline points="512.0,449.0,504.0,444.0,496.0,440.5,488.0,435.5,480.0,431.0,472.5,427.0,464.0,423.0,456.0,417.0,448.0,419.0,440.0,426.0,431.5,436.0,423.5,447.0,415.5,457.5,407.5,469.5,400.0,465.5,391.5,460.0,383.5,454.5,376.0,449.5,368.0,445.5,359.0,443.5,358.5,439.5,350.5,434.5,342.5,430.5,334.5,426.5,326.5,423.0,318.0,419.0,310.0,416.0,301.5,416.5" stroke="black" stroke-width="2" fill="none" />
<polyline points="302.0,416.0,309.0,419.0,318.5,421.5,325.5,430.5" stroke="black" stroke-width="2" fill="none" />
<polyline points="308.0,453.5,320.0,462.0,331.0,470.0,345.5,476.5,361.5,484.5,378.5,492.5,387.0,500.5,405.0,504.0,422.0,510.0,421.0,506.0,429.5,509.5" stroke="black" stroke-width="2" fill="none" />
<polyline points="387.0,529.5,382.0,528.5,376.0,540.5,372.0,538.0,363.5,544.0,361.5,552.0,353.5,561.0,349.0,563.5,353.0,562.0,345.0,558.0,341.0,552.5,340.0,544.0,341.0,539.5,335.0,534.5,337.0,526.5,348.0,518.0,355.0,514.0,368.5,508.5,375.5,506.5,367.5,509.5,365.5,512.5" stroke="black" stroke-width="2" fill="none" />
<polyline points="376.0,526.5,367.5,527.5,359.5,531.5,357.5,544.5,349.5,549.0,348.0,549.5,359.0,542.0,354.0,534.0,354.0,526.0,349.5,526.0" stroke="black" stroke-width="2" fill="none" />
<polyline points="343.0,524.5,350.0,523.0,344.5,531.0,347.0,533.5,346.0,541.5,344.0,545.5,346.0,536.0,359.0,536.0,367.5,531.5,376.5,530.0,382.0,518.5" stroke="black" stroke-width="2" fill="none" />
<polyline points="385.0,503.0,377.0,500.5,371.0,499.0,363.0,490.5,355.0,485.5,347.0,486.5,339.0,481.5,339.0,481.5,336.0,479.5" stroke="black" stroke-width="2" fill="none" />
<polyline points="346.0,454.0,338.0,450.5,330.5,448.0,322.5,444.0,314.0,440.0,305.5,436.0,297.5,432.0,289.5,428.5,281.5,424.5,273.5,422.0,265.5,418.0" stroke="black" stroke-width="2" fill="none" />
<polyline points="263.0,418.5,281.0,426.0,299.0,434.0,316.5,442.0,333.5,450.0,350.0,458.0" stroke="black" stroke-width="2" fill="none" />
<polyline points="381.5,469.0,373.5,466.5,365.5,463.0,358.0,458.0,350.0,451.0,341.5,446.0,333.5,439.5,325.5,435.0,320.5,432.0,313.0,427.5,304.5,423.5,297.0,419.5,289.0,417.5,287.5,415.5,279.5,414.0,271.5,412.0,261.0,406.0,253.0,405.0,244.5,405.0,236.5,406.0,228.0,406.0,220.0,408.5,211.5,411.5,203.5,414.5,195.5,423.5,187.5,432.5" stroke="black" stroke-width="2" fill="none" />
<polyline points="191.0,439.0,199.0,424.5,207.5,419.0,211.5,418.5,219.0,413.5,227.0,415.0,235.0,414.5,243.0,417.0,251.0,420.0,259.0,425.0,267.0,430.5" stroke="black" stroke-width="2" fill="none" />
<polyline points="277.0,416.5,291.0,418.5,303.0,423.0,318.5,431.0,330.5,439.0,341.5,447.0,353.0,455.0,363.0,463.0,383.0,471.0,391.0,474.0,399.0,477.0,407.0,477.0,413.0,482.0,421.0,472.5,429.0,463.5,429.0,449.0,446.0,446.0,449.0,440.5,457.5,427.5,459.5,441.5,467.5,448.5,472.5,450.5,477.0,454.5,477.0,460.5,485.0,466.5,489.5,469.0,494.0,478.5" stroke="black" stroke-width="2" fill="none" />
<polyline points="420.5,475.0,412.5,473.0,411.5,465.0,415.0,457.0,421.5,449.0,427.5,441.0,432.5,433.0,439.0,425.0,448.0,417.0" stroke="black" stroke-width="2" fill="none" />
<polyline points="454.5,360.0,462.5,362.0,470.5,361.0,473.5,359.5" stroke="black" stroke-width="2" fill="none" />
<polyline points="489.5,346.5,495.5,337.5,496.5,329.5,498.5,320.5,499.0,313.0,503.0,308.0,501.5,300.0,499.5,294.0,501.5,292.0,490.5,290.0,482.5,294.5" stroke="black" stroke-width="2" fill="none" />
<polyline points="486.5,298.0,489.5,305.5,490.5,313.0,490.0,321.0,489.0,328.5,489.5,335.0,493.5,340.0" stroke="black" stroke-width="2" fill="none" />
<polyline points="493.0,356.5,512.0,349.5,503.5,352.5,495.5,356.0,487.5,358.0,479.5,359.0,471.5,359.5,469.0,352.5,473.0,348.5,471.0,340.5,471.0,335.5,472.5,325.5,471.5,317.0,463.5,313.0" stroke="black" stroke-width="2" fill="none" />
<polyline points="466.0,317.5,462.0,323.0,470.0,324.0,467.5,332.0,470.5,337.0" stroke="black" stroke-width="2" fill="none" />
<polyline points="464.5,325.5,458.0,320.5,443.5,318.5,435.0,329.0,436.0,334.0,440.0,326.0" stroke="black" stroke-width="2" fill="none" />
<polyline points="454.0,321.0,452.0,329.0,450.5,337.0,451.5,344.5,455.5,353.5,458.5,351.0" stroke="black" stroke-width="2" fill="none" />
<polyline points="457.0,341.5,454.0,345.5,458.5,337.5,456.5,335.5,458.5,327.5,456.0,319.0" stroke="black" stroke-width="2" fill="none" />
<polyline points="463.5,307.5,472.0,302.5,485.0,290.5,493.0,286.0,502.0,281.5" stroke="black" stroke-width="2" fill="none" />
<polyline points="488.5,282.0,482.0,282.0,474.0,290.0,467.5,298.0,462.5,303.0,454.5,307.0,449.5,315.0,444.5,319.5,437.5,327.0,433.5,339.0,441.5,326.0,449.5,314.0,453.5,312.5,462.0,304.5,466.0,298.5,474.0,290.5,482.0,282.5,489.5,276.5,496.5,268.0,504.5,260.0,512.0,260.0" stroke="black" stroke-width="2" fill="none" />
<polyline points="511.5,265.0,502.5,273.5,500.5,281.5,497.5,284.0,490.5,288.0,483.5,296.0,482.5,304.0,484.5,311.5,483.5,319.5,484.5,327.5,487.0,335.5,487.0,343.0,486.0,351.0" stroke="black" stroke-width="2" fill="none" />
<polyline points="487.5,335.0,488.0,327.0,487.0,319.0" stroke="black" stroke-width="2" fill="none" />
<polyline points="494.5,310.5,502.5,311.0" stroke="black" stroke-width="2" fill="none" />
<polyline points="503.0,301.0,505.5,297.5,492.5,298.5" stroke="black" stroke-width="2" fill="none" />
<polyline points="488.0,296.0,492.0,295.0,494.0,303.5,497.5,303.5,499.5,311.0" stroke="black" stroke-width="2" fill="none" />
<polyline points="482.0,287.0,474.0,295.5,474.5,299.5,482.5,285.5,490.5,278.5,502.5,267.0,510.5,266.0" stroke="black" stroke-width="2" fill="none" />
<polyline points="506.0,262.0,500.0,275.5,492.0,282.5,484.0,286.5,476.0,293.5,475.5,301.5,476.0,298.5,482.0,290.0,484.0,284.0,494.0,274.5,498.0,266.5,505.5,258.5" stroke="black" stroke-width="2" fill="none" />
<polyline points="509.0,245.0,501.0,242.0,493.5,241.5,485.5,230.5" stroke="black" stroke-width="2" fill="none" />
<polyline points="487.0,233.5,492.0,241.5,498.0,246.0" stroke="black" stroke-width="2" fill="none" />
<polyline points="509.0,243.5,501.5,238.5,494.0,231.5,486.5,229.0,478.0,233.0,467.0,240.5" stroke="black" stroke-width="2" fill="none" />
<polyline points="469.0,243.0,473.0,251.0,485.0,261.0" stroke="black" stroke-width="2" fill="none" />
<polyline points="486.5,262.0,478.5,259.0,470.5,258.0,460.5,248.0,458.0,248.5,459.0,247.0,463.0,238.5,451.0,240.5" stroke="black" stroke-width="2" fill="none" />
<polyline points="449.0,246.0,457.0,253.0,465.5,256.0" stroke="black" stroke-width="2" fill="none" />
<polyline points="460.5,241.5,460.5,239.5,468.5,235.5,466.0,240.5,462.0,249.5,468.5,256.5,480.5,245.5,489.0,243.5" stroke="black" stroke-width="2" fill="none" />
<polyline points="479.5,248.0,480.5,255.5" stroke="black" stroke-width="2" fill="none" />
<polyline points="481.0,263.5,473.5,263.0,465.5,262.0,457.5,259.5,449.5,258.5" stroke="black" stroke-width="2" fill="none" />
<polyline points="448.5,268.0,456.5,270.0" stroke="black" stroke-width="2" fill="none" />
<polyline points="450.0,284.0,442.0,282.0" stroke="black" stroke-width="2" fill="none" />
<polyline points="445.0,278.5,436.5,276.0" stroke="black" stroke-width="2" fill="none" />
<polyline points="435.0,278.5,437.0,276.5,427.0,278.0,421.0,286.0,425.0,280.5,433.0,275.5,441.0,273.0,449.0,273.0,457.0,273.0" stroke="black" stroke-width="2" fill="none" />
<polyline points="458.5,263.5,448.5,256.5,440.0,255.5" stroke="black" stroke-width="2" fill="none" />
<polyline points="439.5,254.0,447.5,249.0,439.5,254.0,450.5,261.5,447.5,269.5,450.5,277.0,446.5,285.0,445.0,290.5,441.5,295.0,449.5,294.0,452.0,290.5,458.5,293.0,463.5,284.0,464.5,273.5,461.5,279.5,455.5,291.5" stroke="black" stroke-width="2" fill="none" />
<polyline points="462.0,289.0,467.0,281.0,463.0,279.0,455.5,286.0,447.5,288.0,440.0,288.0,432.0,289.5" stroke="black" stroke-width="2" fill="none" />
<polyline points="436.0,309.0,428.0,310.0" stroke="black" stroke-width="2" fill="none" />
<polyline points="426.0,314.0,430.0,315.5,421.0,315.5,417.0,323.5,409.0,329.5,402.5,337.0,413.5,318.0,411.5,309.0,420.5,296.0,428.5,296.5,436.5,294.5,444.5,293.5" stroke="black" stroke-width="2" fill="none" />
<polyline points="445.5,307.0,443.5,306.0,435.5,307.5,428.0,309.5,420.0,315.0,416.0,324.0,414.0,318.0,417.0,304.5,426.0,290.5,428.5,288.5,420.0,293.0,412.0,295.5" stroke="black" stroke-width="2" fill="none" />
<polyline points="411.5,293.5,419.5,276.0,427.5,261.0,435.5,253.5,443.0,245.0,451.0,235.5,459.5,229.5,467.5,224.5,476.0,220.0,484.5,217.0,492.5,213.5,500.5,212.5,508.0,213.0" stroke="black" stroke-width="2" fill="none" />
<polyline points="489.5,229.5,501.0,237.5,511.5,246.0,503.5,250.0" stroke="black" stroke-width="2" fill="none" />
<polyline points="483.0,218.0,466.0,226.0,453.5,234.0,445.5,242.0,438.5,250.0,430.5,258.0,422.0,266.0,421.0,274.0,417.0,282.0,414.5,289.5,417.5,296.5,414.5,304.5,411.0,313.0,407.0,321.0,405.5,329.5,405.5,337.5,405.0,345.0,405.5,353.0,407.5,354.5,415.5,354.5,424.5,356.0,432.5,352.5,435.5,356.0,439.5,359.0,447.0,359.5,455.5,359.5,463.5,357.5,471.0,355.0,474.5,355.0" stroke="black" stroke-width="2" fill="none" />
<polyline points="420.0,353.0,418.0,347.0,410.0,350.5" stroke="black" stroke-width="2" fill="none" />
<polyline points="374.0,383.5,376.0,380.5,372.0,372.5,367.0,382.5,356.0,385.0,355.0,393.0,350.0,398.0,337.0,396.0,328.0,388.0,325.0,380.0,324.0,372.0,326.5,364.0,328.5,356.0,325.5,365.5" stroke="black" stroke-width="2" fill="none" />
<polyline points="320.0,383.5,326.0,392.0,334.0,392.0,342.0,396.0,350.0,394.0,364.5,390.0,372.5,383.5,380.5,382.0" stroke="black" stroke-width="2" fill="none" />
<polyline points="361.0,364.5,353.0,360.0,347.0,358.0,342.0,354.5,334.0,357.5,330.0,359.5,332.0,352.5,330.0,348.5,321.0,340.5,315.0,334.0,312.5,326.0,303.5,319.5,297.5,321.5" stroke="black" stroke-width="2" fill="none" />
<polyline points="298.0,322.0,307.0,330.0,316.0,338.0,323.0,348.0,313.0,357.0" stroke="black" stroke-width="2" fill="none" />
<polyline points="322.5,346.5,315.5,337.5,310.5,332.5,307.5,326.5,299.5,324.5" stroke="black" stroke-width="2" fill="none" />
<polyline points="280.5,313.5,276.5,321.5,279.0,328.5,276.0,336.5,279.0,342.0,275.0,346.0,279.0,354.0,281.5,362.0,292.5,370.0" stroke="black" stroke-width="2" fill="none" />
<polyline points="292.0,369.5,284.0,364.5,276.0,357.5" stroke="black" stroke-width="2" fill="none" />
<polyline points="263.0,344.5,270.5,345.5,277.5,352.0,285.5,356.0,289.5,362.0,297.0,364.0,305.5,362.0,313.5,357.0,321.5,351.0" stroke="black" stroke-width="2" fill="none" />
<polyline points="352.5,354.5,359.0,362.5,365.0,368.0" stroke="black" stroke-width="2" fill="none" />
<polyline points="377.0,373.5,369.0,362.5,361.0,355.5,352.5,351.5,344.5,349.5,336.5,350.0,328.0,344.0,320.0,332.5,311.5,323.5,303.5,318.0,295.5,317.0,288.0,314.0,279.5,314.0" stroke="black" stroke-width="2" fill="none" />
<polyline points="276.5,330.5,269.0,341.0,261.0,342.5" stroke="black" stroke-width="2" fill="none" />
<polyline points="230.5,332.0,235.0,340.0,236.5,347.5,220.5,350.5,220.5,350.5,228.5,346.5" stroke="black" stroke-width="2" fill="none" />
<polyline points="225.5,341.5,212.5,349.5,210.0,358.0,214.0,349.0,222.5,343.5" stroke="black" stroke-width="2" fill="none" />
<polyline points="216.5,349.0,210.5,357.0,214.5,355.0" stroke="black" stroke-width="2" fill="none" />
<polyline points="233.5,349.0,226.0,352.0,217.5,356.0,210.0,361.0,202.0,365.5,194.0,370.5,186.0,373.5,181.0,370.5,184.0,362.5,193.0,354.5,206.0,346.5,218.0,338.5,227.0,331.0" stroke="black" stroke-width="2" fill="none" />
<polyline points="219.0,310.5,217.0,307.5" stroke="black" stroke-width="2" fill="none" />
<polyline points="227.5,302.5,235.5,302.5,244.0,294.5,244.5,295.5,247.5,293.5,246.5,301.5,236.5,304.0" stroke="black" stroke-width="2" fill="none" />
<polyline points="237.5,307.0,239.0,299.0" stroke="black" stroke-width="2" fill="none" />
<polyline points="214.5,273.5,217.5,271.5,216.5,263.5,224.5,259.0,231.0,253.0,238.5,248.5,242.5,241.0,239.5,233.0,239.5,232.5" stroke="black" stroke-width="2" fill="none" />
<polyline points="237.0,228.5,234.0,236.5,236.0,238.5,232.0,245.0,227.5,251.0,222.5,256.5,221.0,264.5,219.5,270.0" stroke="black" stroke-width="2" fill="none" />
<polyline points="221.5,266.5,229.5,267.0" stroke="black" stroke-width="2" fill="none" />
<polyline points="233.5,254.5,225.5,257.5,213.5,256.5,209.5,263.5,208.5,269.0,200.0,266.0" stroke="black" stroke-width="2" fill="none" />
<polyline points="193.0,268.0,205.0,274.0,213.0,282.0" stroke="black" stroke-width="2" fill="none" />
<polyline points="200.5,275.5,192.5,268.5" stroke="black" stroke-width="2" fill="none" />
<polyline points="205.0,250.0,206.5,256.0,214.5,252.0,216.0,254.0,211.0,260.0,212.0,268.5,219.0,253.5,227.0,249.5,229.0,261.5,233.0,258.0,239.5,248.0,241.5,252.0,249.5,248.5,258.0,245.0" stroke="black" stroke-width="2" fill="none" />
<polyline points="266.5,254.0,268.0,253.0,261.0,261.0,259.0,261.5,264.0,259.5,270.5,261.0,271.5,267.5,282.5,269.5" stroke="black" stroke-width="2" fill="none" />
<polyline points="270.0,266.5,268.0,275.0" stroke="black" stroke-width="2" fill="none" />
<polyline points="273.5,273.5,267.5,269.5,262.5,269.5,251.5,266.5,241.5,268.5,243.5,260.5" stroke="black" stroke-width="2" fill="none" />
<polyline points="233.0,250.0,230.5,239.5,222.5,242.5,214.0,247.5,206.0,249.5,191.5,236.0" stroke="black" stroke-width="2" fill="none" />
<polyline points="189.5,223.0,197.5,220.0,205.5,225.0,213.5,225.0,221.0,220.0,229.5,208.0,235.5,212.0" stroke="black" stroke-width="2" fill="none" />
<polyline points="232.0,207.0,240.5,202.0,248.0,198.0,250.0,196.0,257.0,188.0,258.0,196.0" stroke="black" stroke-width="2" fill="none" />
<polyline points="269.0,200.5,265.5,206.5,262.0,202.5,258.5,200.5,253.5,188.5,246.0,195.5" stroke="black" stroke-width="2" fill="none" />
<polyline points="246.5,210.0,239.0,207.0,232.0,216.0,224.5,224.0,215.5,227.5,222.5,219.0,228.5,211.0,232.0,203.5,234.5,195.5,239.0,187.5,238.0,179.5,239.5,171.5,245.5,163.0,241.5,173.0" stroke="black" stroke-width="2" fill="none" />
<polyline points="244.0,171.0,256.0,166.0,256.0,174.0,258.0,184.0,245.5,186.5,245.0,194.5,248.0,200.5,249.0,204.0,249.0,207.5,241.5,209.5,241.5,218.0,231.0,220.5,226.0,223.5" stroke="black" stroke-width="2" fill="none" />
<polyline points="229.0,237.0,227.0,240.0,222.5,244.5,225.0,247.5,228.5,241.5,236.5,243.5,239.0,239.5,247.0,239.5,250.0,245.5" stroke="black" stroke-width="2" fill="none" />
<polyline points="259.5,241.5,264.5,239.0,262.5,231.0,259.5,230.0,254.5,230.5" stroke="black" stroke-width="2" fill="none" />
<polyline points="253.0,222.5,250.5,230.5,256.5,237.5,259.0,235.5,261.0,231.5,270.5,233.5,273.5,228.5,276.5,220.0" stroke="black" stroke-width="2" fill="none" />
<polyline points="273.5,218.5,271.5,220.5,270.5,228.5,261.5,225.5,254.5,228.0,253.5,235.5,251.0,241.0,250.5,249.0,259.0,252.0,269.0,245.0,277.5,245.0,283.0,236.0,280.5,238.5,282.5,243.5,286.5,255.5,290.5,261.5,297.0,253.0,299.0,260.0" stroke="black" stroke-width="2" fill="none" />
<polyline points="285.5,256.0,287.5,264.0,282.5,267.0,279.5,272.5,267.5,280.5" stroke="black" stroke-width="2" fill="none" />
<polyline points="261.0,287.0,257.0,277.0,264.5,269.0,269.5,264.0,266.5,255.5" stroke="black" stroke-width="2" fill="none" />
<polyline points="276.0,232.5,265.5,227.5,257.5,226.5,251.0,222.5,248.5,220.0,246.5,227.0,238.5,229.0,231.0,235.0,227.5,232.5,219.5,235.5,214.5,241.5,212.5,239.0,205.0,243.0,203.0,248.0,207.0,244.0,216.0,236.0" stroke="black" stroke-width="2" fill="none" />
<polyline points="216.5,238.5,216.5,246.5,207.5,250.5,208.5,252.5,206.5,260.5,211.5,263.5,205.5,269.5,210.0,278.0" stroke="black" stroke-width="2" fill="none" />
<polyline points="226.5,307.0,221.5,299.0,215.0,291.0,212.0,283.0,205.0,275.0,200.0,267.0,198.0,259.5,196.0,251.5,193.0,243.5,190.0,235.5,189.0,227.5,192.0,219.0" stroke="black" stroke-width="2" fill="none" />
<polyline points="230.0,203.0,242.5,192.5,249.5,186.5,258.0,184.5,263.0,187.5,266.0,192.0,269.0,198.0" stroke="black" stroke-width="2" fill="none" />
<polyline points="271.0,189.0,279.0,187.0,284.0,180.0,290.5,179.0" stroke="black" stroke-width="2" fill="none" />
<polyline points="290.5,174.0,279.0,181.5,282.0,183.0,277.0,186.0,282.0,191.0,288.0,192.0,293.5,185.0,297.5,180.0,301.5,181.0,312.5,173.0,321.5,172.0,330.0,170.0,336.0,173.0,339.5,167.0,347.5,164.0,351.5,174.0,355.5,174.0,360.5,160.5,366.5,161.0,368.5,165.0,372.5,169.0,380.5,160.0" stroke="black" stroke-width="2" fill="none" />
<polyline points="379.0,155.0,389.0,159.0,383.0,167.0,390.0,174.0,394.5,170.0,401.0,172.0" stroke="black" stroke-width="2" fill="none" />
<polyline points="402.0,171.5,394.5,180.0,386.5,172.0" stroke="black" stroke-width="2" fill="none" />
<polyline points="376.0,172.5,368.0,180.0,360.0,183.0,358.0,193.0,345.0,195.0,344.0,205.0,339.0,210.0,337.0,219.5,336.0,224.5,340.0,229.0,330.0,238.0,335.0,238.0" stroke="black" stroke-width="2" fill="none" />
<polyline points="352.0,224.5,342.0,223.0,338.0,216.0,335.0,226.0,325.5,232.5,334.5,227.5,328.0,210.5,326.0,210.0,335.5,202.0,335.0,193.5,343.0,188.5,337.0,185.5,348.5,181.0,341.5,173.0,335.0,170.5,344.0,163.5,363.0,155.5,369.0,152.5,382.0,144.0,384.0,146.5,376.0,150.5" stroke="black" stroke-width="2" fill="none" />
<polyline points="372.0,153.0,381.0,153.0,377.0,157.5,373.5,163.0,366.5,166.5,370.5,169.0,358.5,175.5,356.0,179.5,363.0,174.5,368.0,179.5,376.0,172.5,384.0,165.5,392.0,158.0,393.0,149.0,401.0,144.5" stroke="black" stroke-width="2" fill="none" />
<polyline points="398.0,144.5,393.0,144.5,390.5,152.5,381.0,153.0,370.0,158.5,364.5,166.0,354.5,171.0,355.5,175.0,352.5,183.0,363.5,186.0,364.5,194.0,372.5,191.5,372.5,193.5,380.5,192.5,388.0,183.0,390.0,185.0,398.0,189.0,406.5,183.0,404.5,178.0,395.5,183.5,393.5,186.5,397.5,190.5,393.0,198.0,382.5,206.0,374.5,213.5,363.5,221.0,352.5,229.0,341.0,237.0,338.0,235.5,330.5,243.5,318.5,251.5,307.5,259.5,298.5,267.5,288.0,276.0,278.0,284.0,267.0,292.5,256.0,300.0,245.5,307.5,247.0,300.5" stroke="black" stroke-width="2" fill="none" />
<polyline points="263.5,243.5,263.0,243.5,267.0,232.5,265.5,224.5" stroke="black" stroke-width="2" fill="none" />
<polyline points="275.5,210.5,287.5,210.5,279.0,218.0,286.0,211.0,290.5,205.0" stroke="black" stroke-width="2" fill="none" />
<polyline points="287.0,200.0,292.0,200.5,290.5,205.5,301.5,209.5,292.0,212.0,288.0,216.5,287.0,218.5,283.0,228.0,290.5,214.5,296.5,215.5,302.5,208.5,306.5,206.5,309.0,204.5,311.0,213.0" stroke="black" stroke-width="2" fill="none" />
<polyline points="317.0,215.5,325.0,218.5" stroke="black" stroke-width="2" fill="none" />
<polyline points="325.0,207.5,333.0,203.5,337.5,202.5,346.5,202.5" stroke="black" stroke-width="2" fill="none" />
<polyline points="349.5,205.5,348.5,214.0" stroke="black" stroke-width="2" fill="none" />
<polyline points="344.5,221.5,352.0,214.5,359.0,209.5,366.0,207.0,365.0,198.5" stroke="black" stroke-width="2" fill="none" />
<polyline points="353.0,181.5,347.0,177.0,346.0,173.0,350.0,167.0,351.0,161.5,359.5,159.5,364.5,155.5" stroke="black" stroke-width="2" fill="none" />
<polyline points="388.5,146.5,403.5,143.5,407.5,151.5,409.0,159.5,415.0,161.5,406.0,168.5,398.5,176.5,393.5,182.0,386.0,187.0,376.0,191.0,370.0,194.0,362.0,199.0,367.0,203.0,367.0,202.5,375.5,200.0,383.5,199.0,389.5,194.0,399.0,183.0,400.0,180.0,408.0,174.5,415.0,171.5,415.0,161.5" stroke="black" stroke-width="2" fill="none" />
<polyline points="415.5,156.5,407.5,153.5" stroke="black" stroke-width="2" fill="none" />
<polyline points="414.5,149.0,420.0,157.0,420.0,164.5,414.5,173.0,408.0,181.0" stroke="black" stroke-width="2" fill="none" />
<polyline points="398.0,172.0,397.0,169.0" stroke="black" stroke-width="2" fill="none" />
<polyline points="378.0,187.0,373.0,184.0,366.0,180.0,355.0,188.0,347.0,186.0,340.5,192.0,332.0,200.0,328.0,193.5,324.5,191.5,321.5,199.5,316.5,211.0,310.5,207.0,313.5,207.5,322.5,198.5,332.0,193.0,332.0,185.5,334.0,184.5,337.5,176.5,340.5,177.0,327.0,174.5,325.5,182.0" stroke="black" stroke-width="2" fill="none" />
<polyline points="320.5,183.5,328.5,185.5,336.5,187.5" stroke="black" stroke-width="2" fill="none" />
<polyline points="338.5,186.0,332.0,182.0,324.0,179.0,314.0,184.0,306.0,187.0,302.5,200.0,297.5,196.0,297.0,193.0,294.0,188.0,300.0,185.0,305.0,184.0,297.0,190.5,289.0,194.5" stroke="black" stroke-width="2" fill="none" />
<polyline points="264.0,184.0,262.0,192.0,259.5,192.0,247.5,197.0,253.0,206.5,257.0,209.5,248.0,220.5,246.5,224.0,246.5,232.0,244.5,238.5,243.5,246.5,246.5,248.5,242.0,256.5,236.0,260.5,228.0,263.0,218.0,269.0,214.0,276.0,213.5,280.0,220.5,296.0,228.0,308.0,236.0,312.0,244.0,310.0,252.0,305.0,259.5,299.0,267.5,293.0,275.0,288.5,283.0,281.5,291.5,275.5,299.5,268.5,307.5,261.0,315.5,255.0,323.5,250.0,331.5,245.0,339.0,239.5,347.0,235.0,355.0,228.5,363.5,223.0,372.0,216.0,380.0,210.0,388.0,202.5,396.0,193.5" stroke="black" stroke-width="2" fill="none" />
<polyline points="364.5,197.0,358.5,197.0,352.0,193.5,347.0,193.0,339.5,196.0,337.5,200.5,328.5,201.0,318.5,194.5,315.5,194.0,310.0,199.5,310.5,204.5,311.5,200.5,313.5,199.5,306.0,198.5,312.0,190.5,314.0,181.5,315.0,174.0" stroke="black" stroke-width="2" fill="none" />
<polyline points="310.0,173.5,310.0,181.5,307.5,189.5,302.5,197.5,299.0,205.5,302.5,211.0,300.0,211.5,295.5,214.5,289.5,219.0,292.0,221.5,279.0,224.0,281.0,227.5,276.5,231.5,270.5,236.5,268.5,246.5,255.5,253.0,252.5,263.0,256.0,272.0,260.0,274.0,258.5,283.5,262.0,283.0" stroke="black" stroke-width="2" fill="none" />
<polyline points="233.0,202.0,241.0,185.5" stroke="black" stroke-width="2" fill="none" />
<polyline points="247.5,167.5,244.0,175.5,243.5,189.5,238.5,195.5,236.5,203.5,233.5,211.5,235.5,216.5,237.0,218.5,246.5,213.5" stroke="black" stroke-width="2" fill="none" />
<polyline points="253.5,167.0,251.5,169.0,242.5,171.0,239.0,170.0,246.5,162.5,254.5,164.5,256.5,176.5,264.5,179.5,272.0,178.0,280.0,179.0,287.5,173.5,296.0,173.5,304.0,171.5,312.0,168.0,320.0,167.0,328.0,166.5,335.5,166.5,343.0,163.5,351.0,160.5,359.0,156.5,367.0,154.5,375.0,148.0,383.0,143.0,391.5,140.0,399.5,141.0,408.0,144.0,416.0,150.5" stroke="black" stroke-width="2" fill="none" />
<polyline points="325.5,171.0,320.5,179.0,316.5,180.0,314.5,186.0,320.5,189.0,319.5,193.5,318.0,201.5,317.0,209.5,325.0,219.0" stroke="black" stroke-width="2" fill="none" />
<polyline points="354.5,356.5,365.5,364.5,372.5,372.5,369.5,380.0,369.5,385.5,360.5,393.5,357.0,401.0,358.0,409.5" stroke="black" stroke-width="2" fill="none" />
<polyline points="354.0,408.0,353.0,400.0,351.0,390.0,359.5,389.0,349.0,385.5,341.0,389.5,333.0,387.5" stroke="black" stroke-width="2" fill="none" />
<polyline points="345.5,387.0,345.5,395.0" stroke="black" stroke-width="2" fill="none" />
<polyline points="364.0,368.5,362.5,368.0,353.0,360.0" stroke="black" stroke-width="2" fill="none" />
<polyline points="299.5,452.0,307.0,455.5,315.0,458.5,323.0,463.5,331.0,468.5,338.5,472.5,347.0,476.5,355.0,480.5,363.0,485.0,371.0,489.0,379.0,493.0,386.5,496.0,394.5,500.5,402.5,503.0,410.5,506.0,418.5,502.5" stroke="black" stroke-width="2" fill="none" />
<polyline points="407.0,528.0,412.0,520.0,412.0,511.5,407.0,515.0,402.0,528.5,405.0,520.0,408.0,512.0,416.0,508.0,422.0,499.5,424.5,491.5,426.5,487.5,418.5,482.5,415.5,479.5,413.0,472.0,401.0,464.5,388.0,456.5,373.0,449.0,362.5,442.5,356.5,439.5,341.0,431.5,326.0,424.0,316.0,420.0,305.5,414.5,297.5,412.5,289.5,412.0,281.0,411.0,273.0,408.5,265.0,408.0,257.5,409.0,249.5,408.5,241.5,407.0" stroke="black" stroke-width="2" fill="none" />
<polyline points="244.0,409.5,252.0,412.0,260.5,413.0,269.5,416.0,278.5,415.0,286.5,420.5" stroke="black" stroke-width="2" fill="none" />
<polyline points="217.5,408.5,202.5,416.5,196.0,424.0,188.5,432.0,186.5,439.5,184.5,447.0,185.5,455.0,186.0,463.0,190.0,466.5,197.5,472.5,198.5,478.5,205.5,482.5,211.5,490.5,223.0,499.0,230.0,507.0,239.0,515.5,246.0,523.0,253.5,525.5,260.0,533.5,269.0,541.5,279.0,549.0,279.0,561.5,283.0,569.5,291.0,563.5,295.5,567.5,304.0,568.0,312.0,575.0,320.0,575.0" stroke="black" stroke-width="2" fill="none" />
<polyline points="318.0,578.5,320.0,586.0,327.5,594.5,330.0,602.5,325.0,611.0" stroke="black" stroke-width="2" fill="none" />
<polyline points="317.5,635.0,315.0,626.0,315.5,617.0,325.5,603.0,323.5,593.5,328.0,585.5,331.0,585.0,331.0,578.0,332.5,570.5,325.5,566.5" stroke="black" stroke-width="2" fill="none" />
<polyline points="320.5,562.0,324.5,570.0,333.5,572.0,337.5,579.0,334.5,587.0,330.5,594.5,332.0,603.0,329.0,604.5,326.0,612.0,322.5,612.0,310.0,617.0,304.5,620.0,312.5,614.5,320.5,609.0,324.5,614.0" stroke="black" stroke-width="2" fill="none" />
<polyline points="318.0,620.0,318.0,622.5,310.0,629.5,302.0,623.0" stroke="black" stroke-width="2" fill="none" />
<polyline points="301.5,614.5,293.5,612.0" stroke="black" stroke-width="2" fill="none" />
<polyline points="277.0,612.0,285.0,624.5,293.5,624.0,295.5,631.0,304.0,642.5,312.0,637.5" stroke="black" stroke-width="2" fill="none" />
<polyline points="322.0,635.0,309.0,646.0,303.5,638.5,297.5,630.5,292.0,616.5,289.5,608.5,285.5,600.5,275.5,603.5" stroke="black" stroke-width="2" fill="none" />
<polyline points="276.0,605.0,274.0,613.0,269.5,625.0,263.5,630.5,271.5,640.5,272.0,647.0,273.5,655.5,281.0,661.0,289.0,660.0,296.5,659.5,304.5,655.5" stroke="black" stroke-width="2" fill="none" />
<polyline points="306.5,657.0,310.0,658.0,310.0,668.5,315.0,675.5,322.0,677.5,336.5,685.5,350.0,694.0,363.0,701.5,375.5,709.5,390.0,717.0,403.5,725.0,417.5,733.0,429.5,740.0,439.0,748.0,450.0,755.5,460.5,763.5" stroke="black" stroke-width="2" fill="none" />
<polyline points="353.5,678.5,348.5,679.5,340.0,677.5" stroke="black" stroke-width="2" fill="none" />
<polyline points="359.0,677.0,352.0,670.0,347.0,676.0,342.0,687.0,334.0,682.0,326.0,677.0,317.5,679.5,315.0,673.0,311.0,681.0,305.0,679.5,299.0,673.5,299.5,665.0,307.5,662.0,299.5,662.0" stroke="black" stroke-width="2" fill="none" />
<polyline points="290.5,670.0,298.5,670.5,306.5,679.5" stroke="black" stroke-width="2" fill="none" />
<polyline points="298.5,692.0,290.5,698.0" stroke="black" stroke-width="2" fill="none" />
<polyline points="286.5,687.5,278.5,679.5" stroke="black" stroke-width="2" fill="none" />
<polyline points="269.0,682.0,277.0,693.0,277.0,694.0,270.5,700.5" stroke="black" stroke-width="2" fill="none" />
<polyline points="284.0,712.5,276.5,721.0,268.5,719.0" stroke="black" stroke-width="2" fill="none" />
<polyline points="282.5,723.0,278.5,731.0,279.0,730.0" stroke="black" stroke-width="2" fill="none" />
<polyline points="297.0,738.0,294.0,746.5,293.5,751.0,301.5,757.0,305.0,760.5" stroke="black" stroke-width="2" fill="none" />
<polyline points="303.0,760.5,295.5,755.5,287.5,749.5" stroke="black" stroke-width="2" fill="none" />
<polyline points="285.5,749.0,294.0,748.0,303.0,749.0,297.5,752.0,301.5,755.5" stroke="black" stroke-width="2" fill="none" />
<polyline points="299.0,762.5,292.0,754.5" stroke="black" stroke-width="2" fill="none" />
<polyline points="292.0,760.0,284.0,755.0,276.5,754.0" stroke="black" stroke-width="2" fill="none" />
<polyline points="279.5,763.0,271.5,763.0" stroke="black" stroke-width="2" fill="none" />
<polyline points="305.0,694.0,297.0,701.0,289.0,705.0,277.0,711.0,276.0,711.0,285.0,702.5,286.5,694.0,283.5,686.0,276.5,678.0,272.0,670.5,276.0,660.5,278.0,657.0,269.0,650.0,276.0,649.0,276.5,640.5,275.5,632.5,283.5,626.5,287.5,617.0,283.5,609.0,282.5,600.5,283.5,592.5,282.5,584.5,275.5,590.5" stroke="black" stroke-width="2" fill="none" />
<polyline points="270.5,582.5,263.0,590.5,261.0,594.0,269.0,584.0,271.5,576.5" stroke="black" stroke-width="2" fill="none" />
<polyline points="275.5,576.0,261.5,584.0,249.0,592.0,241.0,599.5,243.0,610.0,247.0,616.0,245.0,624.0,240.5,632.5,240.5,641.0,245.0,649.0" stroke="black" stroke-width="2" fill="none" />
<polyline points="241.0,653.0,232.0,644.0,238.0,636.0,236.0,628.0,238.0,626.0,234.0,622.0" stroke="black" stroke-width="2" fill="none" />
<polyline points="227.5,622.0,228.5,628.0,228.5,635.5,219.5,643.0,218.5,651.0,213.5,659.0,207.0,666.5,201.0,675.0,194.0,680.0,198.5,676.5,206.5,682.5,215.5,680.5,223.5,676.5,232.0,670.5" stroke="black" stroke-width="2" fill="none" />
<polyline points="220.5,666.0,228.5,663.5,223.0,669.5,214.5,678.0,203.5,687.0,211.5,683.0,219.0,673.0,226.5,667.0,235.0,665.0,223.0,676.0,209.5,683.5" stroke="black" stroke-width="2" fill="none" />
<polyline points="192.5,697.5,189.0,688.5,189.0,680.5,188.0,678.0,195.0,670.0,204.0,665.5,203.5,657.0,203.5,649.0,205.5,635.0,212.0,627.5,219.0,622.5,211.0,629.0,203.0,636.5" stroke="black" stroke-width="2" fill="none" />
<polyline points="210.5,625.0,218.0,618.5,226.0,610.5,225.0,606.0,217.0,614.0,208.5,622.0,201.5,630.0,196.5,638.5,192.5,638.5,183.5,646.0,173.5,654.0,164.5,658.0,159.5,667.0,155.0,670.0,163.0,667.0,171.0,665.5,179.0,661.5,179.0,654.0,185.0,658.0,197.0,646.5,205.0,631.5,211.0,632.5,218.5,629.0" stroke="black" stroke-width="2" fill="none" />
<polyline points="219.5,625.5,218.0,633.5,219.0,641.5,213.0,649.5,208.0,657.0,207.0,671.0" stroke="black" stroke-width="2" fill="none" />
<polyline points="203.0,650.5,195.0,653.5,186.0,653.0,178.0,653.0" stroke="black" stroke-width="2" fill="none" />
<polyline points="174.5,646.0,167.0,649.5,158.5,641.5" stroke="black" stroke-width="2" fill="none" />
<polyline points="157.0,637.0,160.5,630.5,158.5,636.0,158.5,644.0,163.0,656.0,171.0,657.0,178.5,651.0,186.5,646.0,194.0,637.0,204.5,650.5,211.5,631.0,211.5,639.5,208.0,647.5,210.0,651.5,218.5,638.5" stroke="black" stroke-width="2" fill="none" />
<polyline points="230.0,646.5,224.0,654.5,219.0,663.0,223.0,656.5,231.0,647.5,241.0,652.5" stroke="black" stroke-width="2" fill="none" />
<polyline points="255.0,642.5,259.5,650.5" stroke="black" stroke-width="2" fill="none" />
<polyline points="259.5,645.0,267.0,654.0,280.0,654.5,288.5,646.0,296.5,642.0" stroke="black" stroke-width="2" fill="none" />
<polyline points="296.5,642.0,296.5,650.0,293.5,649.0" stroke="black" stroke-width="2" fill="none" />
<polyline points="293.5,641.5,284.5,649.5,287.0,661.5,290.0,669.5,297.0,677.5,299.5,682.0,302.0,690.5,294.0,701.5,288.0,714.5,287.0,723.0,286.0,731.0,281.0,737.0,282.0,745.0,277.0,750.5,279.5,747.5" stroke="black" stroke-width="2" fill="none" />
<polyline points="300.5,765.5,294.0,763.0,288.0,754.5,284.0,746.5,286.5,738.5,287.5,731.0,283.0,733.5,273.5,732.0,269.5,733.5,269.5,725.5,266.5,724.5,266.5,716.5,269.5,708.5,267.5,700.5,268.0,691.5,269.0,683.5,270.5,675.5,271.5,669.5" stroke="black" stroke-width="2" fill="none" />
<polyline points="271.5,659.5,272.5,662.5,284.5,666.5,283.0,674.5,288.0,683.0,291.0,682.0" stroke="black" stroke-width="2" fill="none" />
<polyline points="278.5,643.5,270.0,635.5,262.0,629.5" stroke="black" stroke-width="2" fill="none" />
<polyline points="260.0,641.0,265.0,649.5,268.0,657.5,268.0,665.5,267.5,673.5,268.0,682.0,266.0,690.0,266.0,699.0,265.5,707.5,265.5,715.5,265.0,723.5,266.0,731.5,267.5,739.0,268.5,747.0,269.5,755.0" stroke="black" stroke-width="2" fill="none" />
<polyline points="279.5,761.0,271.5,759.0,270.5,763.5,270.5,754.5,272.5,749.5,272.5,742.5,270.5,738.0,274.5,734.0,274.5,728.0,277.5,727.5,282.5,720.5,285.5,713.0,291.0,703.0,299.0,697.5,304.0,697.5,306.0,689.5,307.0,682.5,307.0,677.5,303.0,669.0,292.5,661.5,307.5,653.5,312.5,645.0,317.5,642.5,322.5,634.0,326.0,626.0,333.0,618.0,338.0,609.5,344.0,601.5,351.0,593.0,355.0,584.0,361.0,575.5,351.0,566.5,341.0,558.0,330.0,550.5,319.5,543.0,311.5,541.0,307.0,534.0,300.5,529.0,296.5,526.0,290.5,520.5,281.5,513.5,274.5,508.0,269.5,507.0,263.5,499.0,255.0,491.0,246.0,483.0,236.5,475.0,229.5,467.5,222.5,459.5,216.5,451.5,210.5,443.5,207.0,435.5,204.5,425.5" stroke="black" stroke-width="2" fill="none" />
<polyline points="205.0,420.5,206.0,428.0,200.0,432.0,203.0,440.0,209.5,448.5,212.5,454.5,217.5,461.0,225.5,468.5,233.0,475.0,241.5,483.0,249.5,492.0,258.0,499.0,266.0,504.0,265.5,507.0,273.5,514.5,279.0,518.0,289.5,523.0,300.0,530.5,313.0,541.5" stroke="black" stroke-width="2" fill="none" />
<polyline points="295.0,533.5,288.0,527.5,281.0,521.5,271.5,513.0,263.5,505.0,255.0,497.5,247.0,489.5,239.5,482.0,231.5,474.0,222.5,466.0,215.0,458.0,207.0,450.0,201.0,442.0,197.0,433.5,195.0,432.0,197.5,424.0,201.5,422.0,213.5,414.5,212.5,418.5" stroke="black" stroke-width="2" fill="none" />
<polyline points="198.5,434.5,206.0,432.5,214.0,445.5,221.5,456.5,229.0,466.0,237.0,474.0,244.5,481.0,253.0,488.5,261.0,495.5,269.0,502.5,277.0,509.5,285.0,516.5,292.5,522.0,300.5,528.0,308.0,533.5,316.0,540.5,324.0,546.0,331.5,551.0,339.5,557.0,345.5,552.0" stroke="black" stroke-width="2" fill="none" />
<polyline points="332.5,575.5,325.0,580.5,317.0,578.5" stroke="black" stroke-width="2" fill="none" />
<polyline points="317.0,581.0,325.0,589.0,334.0,587.0" stroke="black" stroke-width="2" fill="none" />
<polyline points="313.0,585.0,305.0,581.0,293.0,583.0,279.0,576.0,271.0,578.5,263.0,583.5,254.5,589.5,246.5,594.5,238.0,604.0,230.0,606.5,222.0,611.5,214.0,617.5,206.5,625.0,199.0,636.0,191.0,645.0,188.5,636.0,195.0,632.5,187.0,635.5,179.0,624.5" stroke="black" stroke-width="2" fill="none" />
<polyline points="179.5,610.5,187.5,608.5,195.0,612.0,195.0,620.0" stroke="black" stroke-width="2" fill="none" />
<polyline points="215.0,603.5,207.0,610.5,195.0,620.5,197.0,617.0,206.0,612.0,202.0,608.0,209.0,604.5,220.5,597.0,234.5,588.5,243.0,587.0,232.0,580.0" stroke="black" stroke-width="2" fill="none" />
<polyline points="238.5,578.5,231.0,572.5,224.5,568.5,219.5,571.0,213.5,568.0,208.5,579.0,202.0,575.5,190.5,591.0,182.5,602.0,178.5,614.0,175.5,617.5,179.0,609.5,185.0,600.5,190.0,593.0,195.0,585.0" stroke="black" stroke-width="2" fill="none" />
<polyline points="207.5,589.0,215.5,584.0,223.5,582.0" stroke="black" stroke-width="2" fill="none" />
<polyline points="212.5,578.5,220.5,578.0,228.5,584.0,213.5,585.5,221.0,589.5,224.0,586.5,224.0,587.5,220.5,600.0" stroke="black" stroke-width="2" fill="none" />
<polyline points="227.5,610.0,219.5,618.0,211.0,626.5,204.0,634.5,200.0,642.5,195.0,650.5,187.5,652.0,175.5,657.0,179.5,661.0,174.0,669.0,167.0,676.0,166.0,683.5,161.5,692.0,147.5,692.0,134.0,697.5,141.5,692.5,146.5,693.5,154.5,696.5,162.5,695.5,169.0,687.0,177.0,686.0,185.0,685.0,193.5,672.0,205.0,668.0,213.5,660.0" stroke="black" stroke-width="2" fill="none" />
<polyline points="200.5,650.5,195.5,659.0,185.0,666.0,179.0,674.0,171.5,682.0,172.5,691.5,158.5,696.5,147.5,699.0,132.5,706.0,127.0,713.5,125.0,724.0,126.0,726.5,134.5,732.5,142.5,725.5,150.5,722.0,159.0,716.0,167.0,714.5,175.0,704.5,183.0,704.5,191.0,700.5" stroke="black" stroke-width="2" fill="none" />
<polyline points="173.5,704.5,168.5,712.5,154.5,720.5" stroke="black" stroke-width="2" fill="none" />
<polyline points="140.0,728.0,135.0,719.0,136.5,712.0,146.5,703.5,160.5,697.5" stroke="black" stroke-width="2" fill="none" />
<polyline points="163.0,692.5,155.5,702.5,147.0,704.5,139.0,704.5,131.0,709.0,122.0,709.5,112.0,711.5,108.5,723.0,111.5,722.0,118.5,714.5,130.5,706.0,141.5,698.0,157.5,690.5,157.5,690.5,149.5,694.0" stroke="black" stroke-width="2" fill="none" />
<polyline points="151.5,673.0,144.0,667.5,135.5,658.5" stroke="black" stroke-width="2" fill="none" />
<polyline points="136.0,656.5,143.5,664.5" stroke="black" stroke-width="2" fill="none" />
<polyline points="147.5,654.0,155.5,652.5,156.5,660.5" stroke="black" stroke-width="2" fill="none" />
<polyline points="160.5,665.5,152.0,669.5,144.0,666.5,136.0,658.0,128.0,651.0" stroke="black" stroke-width="2" fill="none" />
<polyline points="128.5,651.0,135.0,659.5,143.5,667.0" stroke="black" stroke-width="2" fill="none" />
<polyline points="131.5,652.0,140.0,650.5,148.0,645.5,154.0,640.0,144.0,647.5,141.5,656.0,149.0,660.0,151.0,667.5,165.0,671.0,178.0,678.0,184.0,674.0,190.5,667.0,181.5,674.0,177.0,681.0" stroke="black" stroke-width="2" fill="none" />
<polyline points="137.0,675.5,129.5,679.5,121.5,685.5" stroke="black" stroke-width="2" fill="none" />
<polyline points="115.5,684.5,123.5,679.5,126.5,683.5,122.5,686.0,133.0,695.5" stroke="black" stroke-width="2" fill="none" />
<polyline points="127.5,689.0,119.5,689.0,111.5,691.0,103.5,694.5,95.5,698.5,87.5,702.0,73.5,704.0,66.0,701.0,58.0,694.0,50.5,686.0,42.5,673.5,34.0,657.5" stroke="black" stroke-width="2" fill="none" />
<polyline points="48.0,652.0,40.0,649.0,26.5,640.0" stroke="black" stroke-width="2" fill="none" />
<polyline points="31.0,616.0,39.0,596.0,47.0,578.0,54.5,566.0,62.5,561.0,70.5,559.5,78.5,557.5,86.0,559.5,95.0,564.5,91.5,573.0,83.5,571.0,85.0,579.0,79.0,580.0,74.5,587.5,68.5,595.5,58.5,605.5,54.5,618.0,57.5,626.5,62.5,626.0" stroke="black" stroke-width="2" fill="none" />
<polyline points="65.5,629.0,63.0,621.5,65.5,613.5,70.0,605.0,74.0,597.0,79.0,588.5,87.0,580.5,94.0,576.5,103.0,576.5,93.5,581.0,85.5,590.5,77.5,601.5,69.5,620.5" stroke="black" stroke-width="2" fill="none" />
<polyline points="72.0,617.5,78.0,607.0,86.5,599.0,94.5,588.0,102.5,583.0,110.5,581.0,118.5,586.5,126.5,589.5,132.5,597.5" stroke="black" stroke-width="2" fill="none" />
<polyline points="131.5,602.0,128.0,593.5,121.0,585.5" stroke="black" stroke-width="2" fill="none" />
<polyline points="126.0,578.0,118.0,578.0,110.0,576.5" stroke="black" stroke-width="2" fill="none" />
<polyline points="111.5,581.0,121.5,589.0,129.5,597.5,135.5,605.5" stroke="black" stroke-width="2" fill="none" />
<polyline points="141.5,636.5,150.0,632.0,158.0,626.0,166.5,619.0,174.5,606.5,183.0,597.0,191.5,586.5,200.0,575.5,208.5,568.5,216.5,564.5,224.5,562.5,232.5,559.0,240.5,557.5,248.0,556.5,255.5,555.5,263.0,554.5,271.0,553.5,278.5,554.0,289.0,555.5,297.0,559.0,305.0,556.0,313.0,554.0,317.0,561.0,325.5,563.0,334.5,571.0,341.0,579.0,349.0,583.5,357.0,583.5,362.0,574.0" stroke="black" stroke-width="2" fill="none" />
<polyline points="342.5,585.0,332.5,597.0,324.5,599.0,313.0,598.0,301.5,588.0,296.5,586.0,294.5,578.0,287.5,570.0" stroke="black" stroke-width="2" fill="none" />
<polyline points="287.5,570.0,298.0,569.5,298.0,577.5,299.5,586.0,306.5,594.0,306.5,603.0,312.5,605.0,313.5,612.5,314.0,619.5,322.0,616.5" stroke="black" stroke-width="2" fill="none" />
<polyline points="293.5,602.0,288.5,602.0,287.0,594.5,277.5,598.0,269.5,604.0" stroke="black" stroke-width="2" fill="none" />
<polyline points="272.5,606.0,279.5,606.0,282.5,614.0" stroke="black" stroke-width="2" fill="none" />
<polyline points="276.5,607.5,280.0,615.5,282.0,623.5" stroke="black" stroke-width="2" fill="none" />
<polyline points="270.5,645.0,263.0,643.5,255.0,642.5" stroke="black" stroke-width="2" fill="none" />
<polyline points="245.5,611.5,250.0,607.5,258.0,605.5,266.5,607.5,263.5,615.5,260.5,624.0,266.5,619.0,279.0,618.0,291.0,613.0,299.0,619.5,307.0,617.5,315.0,612.5" stroke="black" stroke-width="2" fill="none" />
<polyline points="321.0,607.0,321.0,599.0,318.5,591.5,308.5,583.0" stroke="black" stroke-width="2" fill="none" />
<polyline points="279.5,579.5,276.5,587.5,273.5,595.5,271.0,605.5,270.0,614.0,264.5,625.0,257.0,633.0,253.0,641.5,252.0,647.5,254.5,649.5" stroke="black" stroke-width="2" fill="none" />
<polyline points="257.0,597.0,249.0,596.5" stroke="black" stroke-width="2" fill="none" />
<polyline points="232.0,572.5,232.5,580.5,238.5,579.5,237.0,591.5,234.5,601.0,233.5,609.0,229.5,617.0,226.5,619.0,223.5,627.0,223.0,633.5,228.0,643.5,217.5,645.5,225.5,636.5,234.0,640.5,242.0,625.5,247.5,632.0,246.5,620.0,254.0,619.0,262.0,609.5,271.0,593.5,277.5,588.5,283.0,591.5,290.5,596.5,293.0,601.5,295.0,605.5,303.0,600.5,310.5,603.5,318.0,608.5,325.5,602.0" stroke="black" stroke-width="2" fill="none" />
<polyline points="281.5,626.5,280.0,623.5,272.0,623.0,265.0,629.0,257.0,635.5,249.0,646.5,246.5,639.5,251.5,631.5,255.5,618.5,260.0,610.5,264.5,601.5,269.5,594.0,274.0,586.0,278.0,578.5" stroke="black" stroke-width="2" fill="none" />
<polyline points="266.5,566.5,258.5,572.0,263.5,569.0" stroke="black" stroke-width="2" fill="none" />
<polyline points="263.5,560.0,271.5,564.0,279.5,558.5" stroke="black" stroke-width="2" fill="none" />
<polyline points="224.5,564.0,231.5,558.5,208.0,566.5,199.0,574.5,193.5,582.5,187.5,590.0,181.5,597.5,175.5,605.0,170.5,613.0,164.5,621.0,154.5,629.0,139.5,637.0,132.5,647.0,124.5,652.0,113.5,659.5" stroke="black" stroke-width="2" fill="none" />
<polyline points="120.5,658.5,128.0,666.5,136.0,673.5,144.0,672.0" stroke="black" stroke-width="2" fill="none" />
<polyline points="120.5,672.0,112.5,678.0,104.5,684.0,97.0,690.0,89.0,694.5,77.0,703.0,69.0,695.5,69.5,687.5,72.5,679.0,76.5,682.0" stroke="black" stroke-width="2" fill="none" />
<polyline points="75.5,680.0,83.5,681.0,81.0,691.0" stroke="black" stroke-width="2" fill="none" />
<polyline points="75.5,688.0,83.5,684.0,91.5,680.5" stroke="black" stroke-width="2" fill="none" />
<polyline points="90.0,670.0,82.0,668.0,73.5,666.0" stroke="black" stroke-width="2" fill="none" />
<polyline points="86.5,665.5,78.5,663.5,69.0,666.0,61.0,662.0" stroke="black" stroke-width="2" fill="none" />
<polyline points="59.5,675.0,51.5,675.5" stroke="black" stroke-width="2" fill="none" />
<polyline points="70.0,687.0,78.0,675.0,85.5,676.5,86.0,685.5,89.5,687.5" stroke="black" stroke-width="2" fill="none" />
<polyline points="75.5,694.0,77.0,695.0,74.0,687.0,75.0,679.0" stroke="black" stroke-width="2" fill="none" />
<polyline points="69.5,694.5,77.5,701.0,90.5,708.0,99.0,712.0,101.0,723.0,109.0,727.0" stroke="black" stroke-width="2" fill="none" />
<polyline points="92.5,713.0,84.5,710.5" stroke="black" stroke-width="2" fill="none" />
<polyline points="61.0,698.5,53.0,691.0,46.0,683.0,41.5,674.5,37.0,666.5,34.5,658.5,32.5,651.0,28.5,643.5,26.5,635.5,27.5,627.5,30.5,619.5,32.5,611.5,36.5,603.5,39.5,595.5,43.0,587.0,47.0,579.0,51.5,571.0,58.0,563.0,70.5,562.0,71.0,562.0,63.0,564.0" stroke="black" stroke-width="2" fill="none" />
<polyline points="63.5,584.5,64.0,592.5,67.0,600.5,63.5,603.5,63.0,599.0" stroke="black" stroke-width="2" fill="none" />
<polyline points="63.5,591.5,71.0,591.5,77.5,582.0,85.5,576.0,92.5,570.5" stroke="black" stroke-width="2" fill="none" />
<polyline points="97.5,562.0,85.5,563.0,71.5,571.5,61.5,580.0,58.5,588.0,54.5,596.0,52.5,604.0,52.0,612.0,53.0,619.5,57.0,627.5,61.0,635.5,70.0,637.5,84.0,646.0,98.0,654.5,104.0,662.5" stroke="black" stroke-width="2" fill="none" />
<polyline points="101.0,659.5,92.5,654.5,84.5,649.5" stroke="black" stroke-width="2" fill="none" />
<polyline points="84.0,650.5,93.0,658.0" stroke="black" stroke-width="2" fill="none" />
<polyline points="120.0,671.5,109.5,679.5,98.5,687.5,85.0,695.5,87.0,707.5,95.5,716.0,104.5,717.0,108.0,725.0,119.0,730.5,127.0,734.5" stroke="black" stroke-width="2" fill="none" />
<polyline points="110.0,731.5,100.0,717.5,108.0,713.5,108.5,705.5,107.5,697.5" stroke="black" stroke-width="2" fill="none" />
<polyline points="113.0,695.0,113.0,703.0,113.0,710.5" stroke="black" stroke-width="2" fill="none" />
<polyline points="117.0,692.5,124.0,700.5,119.0,709.0,121.0,716.0,128.0,712.5,138.0,712.0,146.0,707.0" stroke="black" stroke-width="2" fill="none" />
<polyline points="127.0,643.0,118.5,651.0,122.5,661.5,132.5,670.0,131.5,679.0,115.5,684.5,107.5,692.5,89.5,700.5,94.5,708.0,100.5,717.0,105.5,716.0,114.0,716.0,116.0,710.0,125.0,710.5,134.0,702.5,142.0,697.5,149.5,691.5,158.0,687.5,166.5,684.5,174.5,676.5,182.0,668.5,190.0,665.0,198.5,663.0,203.5,664.0" stroke="black" stroke-width="2" fill="none" />
<polyline points="180.5,640.0,172.5,643.0,164.5,643.0,164.5,644.0,162.0,636.0" stroke="black" stroke-width="2" fill="none" />
<polyline points="127.0,581.0,126.5,575.0,118.0,571.0,109.5,569.0,101.5,571.5,93.0,577.0,86.0,581.0,78.0,588.0,70.0,601.0,62.5,616.0" stroke="black" stroke-width="2" fill="none" />
<polyline points="56.5,623.5,56.5,614.5,52.5,622.5,60.5,634.5,69.0,634.0" stroke="black" stroke-width="2" fill="none" />
<polyline points="71.5,628.0,73.5,620.0,76.5,612.0,82.5,606.5,88.5,599.0,94.0,591.0,104.0,583.0" stroke="black" stroke-width="2" fill="none" />
<polyline points="106.5,569.0,99.0,577.0,91.0,585.0,84.5,593.0,78.5,600.5,74.0,608.0,71.5,616.0,70.0,624.5,69.0,632.5,68.5,640.5,73.5,640.5,81.5,646.0,89.0,649.0,97.0,654.0,104.5,662.0,112.5,662.5,120.5,659.5,120.5,651.0,128.5,644.0,133.0,642.5,140.0,641.0,148.0,639.5,156.5,634.5,164.5,629.5,170.5,624.0,178.0,624.0,186.0,618.5,194.0,613.5,203.0,606.5,212.0,602.5,220.5,596.5,228.0,591.0,236.0,590.0,244.0,585.5" stroke="black" stroke-width="2" fill="none" />
<polyline points="208.0,570.0,201.0,578.0,211.0,585.0,204.5,593.0,195.5,601.5,184.5,610.0,180.0,627.0,186.0,634.5,179.0,642.5" stroke="black" stroke-width="2" fill="none" />
<polyline points="139.0,604.5,134.0,596.5,137.0,591.5,132.5,588.5,134.0,580.5,129.5,577.5,114.5,569.5" stroke="black" stroke-width="2" fill="none" />
<polyline points="121.0,547.5,115.0,543.0,105.0,533.5,98.5,526.0,93.0,513.0,84.5,505.0,81.5,496.5,74.0,483.5" stroke="black" stroke-width="2" fill="none" />
<polyline points="54.0,460.5,62.0,462.5,63.0,468.5,67.0,472.5,73.0,474.0,78.0,482.0,87.5,495.0,95.0,503.5,100.0,507.0,107.5,507.0,115.5,504.0,118.5,497.0,126.5,494.0,134.5,489.0,138.5,494.0,142.5,490.0,150.5,484.0,158.5,488.0,166.5,487.0" stroke="black" stroke-width="2" fill="none" />
<polyline points="147.5,474.0,139.0,479.0,137.0,484.5" stroke="black" stroke-width="2" fill="none" />
<polyline points="150.5,471.0,145.0,479.0,141.0,471.0,137.5,481.5,144.0,473.5,140.5,470.5,140.5,462.0,145.5,454.0,139.5,450.0,136.5,455.0" stroke="black" stroke-width="2" fill="none" />
<polyline points="129.5,450.0,129.5,458.0,131.0,461.5,139.5,464.5,148.0,466.0" stroke="black" stroke-width="2" fill="none" />
<polyline points="149.5,459.0,148.0,467.0,153.5,472.0" stroke="black" stroke-width="2" fill="none" />
<polyline points="170.0,483.0,163.0,494.0,160.5,498.5,151.5,498.5,150.0,505.5,141.5,508.5,144.5,514.5,143.5,509.5,146.5,502.5,146.0,500.0,151.0,491.0,153.0,486.5,156.5,490.0,160.5,482.0,165.5,475.0,158.5,476.5,157.5,470.0,157.5,464.0,151.5,463.0,149.5,460.0,141.5,457.5,136.5,446.5,131.5,454.0,128.0,454.0,127.0,455.0,128.5,447.0,132.5,443.5,133.0,437.5,125.5,431.5,126.5,423.5,124.0,419.5,116.5,411.5,109.0,403.0,102.0,395.0,97.0,387.0,92.0,380.0,86.0,372.0,80.0,372.0" stroke="black" stroke-width="2" fill="none" />
<polyline points="76.5,382.5,68.5,378.0" stroke="black" stroke-width="2" fill="none" />
<polyline points="67.5,362.5,59.5,357.5" stroke="black" stroke-width="2" fill="none" />
<polyline points="63.0,356.5,76.0,364.5,81.0,372.5,82.5,378.5,94.5,390.0,89.0,389.0,81.5,395.5,81.0,403.5,86.0,402.0,92.0,399.0,95.0,392.0,99.5,399.0" stroke="black" stroke-width="2" fill="none" />
<polyline points="56.0,400.0,58.0,392.0,54.0,399.5,65.0,406.0,55.0,414.0,63.0,411.0,63.5,418.0,66.5,418.5,62.5,431.5" stroke="black" stroke-width="2" fill="none" />
<polyline points="50.5,395.5,56.5,387.5,55.5,388.0,52.5,393.5,47.5,396.0,50.5,388.5,54.5,381.5,52.5,379.5,48.0,393.5,43.5,395.5,45.5,387.0,52.5,379.0,46.0,388.5" stroke="black" stroke-width="2" fill="none" />
<polyline points="36.5,390.0,44.5,402.0,52.5,406.0" stroke="black" stroke-width="2" fill="none" />
<polyline points="65.0,396.5,60.0,390.5,51.0,409.0,39.0,401.0,35.0,393.0,34.0,385.0,38.5,377.0,37.5,378.0" stroke="black" stroke-width="2" fill="none" />
<polyline points="32.0,382.0,40.0,371.0,36.0,374.5,32.5,383.0,33.0,391.0,36.0,399.0,44.0,407.5,58.5,413.5,66.5,406.5" stroke="black" stroke-width="2" fill="none" />
<polyline points="49.5,410.0,41.5,406.0,34.0,392.5" stroke="black" stroke-width="2" fill="none" />
<polyline points="10.0,399.5,18.0,411.0,24.0,416.0,21.0,421.5,27.0,421.0,32.0,430.0,32.0,437.0,34.0,438.0,42.0,442.0,50.0,449.0" stroke="black" stroke-width="2" fill="none" />
<polyline points="93.5,389.5,85.5,394.0,83.5,385.0,83.0,381.5,75.0,376.0,73.0,367.0,67.0,364.5,59.0,365.0,47.0,360.5,43.0,361.5,35.0,359.5,26.5,361.5,18.5,365.5" stroke="black" stroke-width="2" fill="none" />
<polyline points="26.0,361.5,33.0,356.5,27.5,356.0,16.5,364.0,11.5,372.0,8.5,380.0,8.5,387.5,9.5,395.0,12.5,402.5,17.0,410.5,22.0,418.0,27.0,426.0,32.5,434.5,37.0,435.5,40.5,443.5,47.5,446.0,50.0,454.0,56.0,462.0,63.0,463.0,66.5,472.0,73.0,480.0,76.5,488.0,84.5,490.0,83.5,498.0,89.5,499.5,95.0,508.0,98.0,506.5,97.0,514.5,105.0,526.5,110.5,533.5,118.5,542.0,130.0,549.5,137.0,549.5,138.0,543.0,146.0,537.0,143.5,546.0,151.5,546.0,153.5,540.5,158.5,541.5,166.5,532.0,174.5,528.0" stroke="black" stroke-width="2" fill="none" />
<polyline points="225.0,492.0,226.0,490.5,234.0,492.5" stroke="black" stroke-width="2" fill="none" />
<polyline points="231.5,491.5,227.5,488.5,220.5,480.5" stroke="black" stroke-width="2" fill="none" />
<polyline points="209.5,448.5,202.0,438.0" stroke="black" stroke-width="2" fill="none" />
<polyline points="200.0,440.0,208.0,450.0" stroke="black" stroke-width="2" fill="none" />
<polyline points="193.5,447.0,201.5,459.5,209.0,466.5,217.0,472.0,224.5,479.0,232.5,485.0,240.0,492.0,248.5,498.0,256.5,504.0,264.5,510.0,273.0,518.5,281.0,524.0,288.5,528.0,296.5,535.0" stroke="black" stroke-width="2" fill="none" />
<polyline points="335.5,548.0,338.0,540.0,337.0,533.0,341.0,524.5" stroke="black" stroke-width="2" fill="none" />
<polyline points="356.0,537.5,370.0,530.0" stroke="black" stroke-width="2" fill="none" />
<polyline points="392.0,524.0,394.5,521.5,387.5,520.5,384.0,514.5,380.5,509.0,381.5,501.0,369.5,498.5,361.5,490.0" stroke="black" stroke-width="2" fill="none" />
<polyline points="281.5,527.0,272.0,519.0,262.0,511.5,252.0,503.5,242.0,495.0,232.0,486.5,222.0,478.5,212.0,470.5,202.0,466.5,196.5,458.0,194.0,450.5,189.0,449.5,191.5,441.5" stroke="black" stroke-width="2" fill="none" />
<polyline points="173.5,520.0,169.0,526.0,166.0,529.0,158.5,534.5,151.0,541.5,143.0,539.5,146.5,531.5,145.0,529.5,152.0,519.5,158.5,512.0,161.5,511.5,160.0,502.0,164.0,499.5,174.0,496.5,170.0,488.5,168.5,480.5,167.5,468.5,159.5,456.5,152.0,446.0,144.0,436.0,135.5,428.5,127.0,422.0,119.5,415.0,111.5,407.0,103.0,397.5,95.0,386.0,86.5,375.0,78.5,366.0,71.0,360.0,63.0,357.0,55.5,353.5,47.5,352.0,39.5,352.5,31.5,354.0,23.0,357.0,15.0,363.0,7.0,378.0" stroke="black" stroke-width="2" fill="none" />
<polyline points="40.0,356.5,48.0,355.5" stroke="black" stroke-width="2" fill="none" />
<polyline points="59.5,279.5,54.5,272.0,54.0,264.5,53.5,256.5,52.0,248.5,52.0,240.5,51.0,232.5,51.5,224.5,41.0,218.5,38.5,225.5" stroke="black" stroke-width="2" fill="none" />
<polyline points="26.0,226.0,31.0,214.5,32.5,206.0,34.5,197.5,37.5,189.5,42.5,183.5,38.5,175.0,31.5,177.0,30.0,171.5" stroke="black" stroke-width="2" fill="none" />
<polyline points="26.0,168.0,30.0,173.0,30.0,181.0,22.0,185.5,25.5,185.5,34.5,190.0,32.5,198.0,30.0,206.5,28.0,214.5,27.0,222.0" stroke="black" stroke-width="2" fill="none" />
<polyline points="19.5,212.0,30.5,199.0,35.5,183.0" stroke="black" stroke-width="2" fill="none" />
<polyline points="47.0,187.0,45.0,195.0,43.0,205.5,39.0,213.0,36.0,221.0,36.0,229.0,39.0,237.5,36.5,242.5,38.5,251.0,46.0,261.0,49.0,269.0,52.0,277.0" stroke="black" stroke-width="2" fill="none" />
<polyline points="48.5,279.0,40.5,278.0,32.5,276.5,25.0,274.5,17.5,271.5,9.5,266.0,1.5,257.0" stroke="black" stroke-width="2" fill="none" />
<polyline points="3.5,249.5,2.5,257.0,6.5,266.5,21.0,274.5" stroke="black" stroke-width="2" fill="none" />
<polyline points="19.5,215.0,24.0,206.5,16.0,205.0" stroke="black" stroke-width="2" fill="none" />
<polyline points="19.0,191.5,10.5,191.5" stroke="black" stroke-width="2" fill="none" />
<polyline points="2.0,205.0,3.0,213.0,2.5,205.0,8.5,197.0,17.0,198.0,23.0,200.0,30.0,188.5,40.0,179.5,51.0,189.5,58.5,191.5,62.0,200.0,63.5,208.5,66.5,209.5,75.5,220.5,88.0,228.5,90.0,236.5,99.0,239.5,107.0,249.5,115.0,260.5" stroke="black" stroke-width="2" fill="none" />
<polyline points="113.5,194.0,105.5,185.5,97.5,182.5,89.5,181.5,81.5,182.5,73.5,185.5,66.0,185.5,58.0,186.0,50.0,178.5" stroke="black" stroke-width="2" fill="none" />
<polyline points="49.0,176.5,57.0,174.0,65.0,174.0,73.0,174.0,81.0,174.0,89.0,174.0,96.5,175.5,104.0,178.0" stroke="black" stroke-width="2" fill="none" />
<polyline points="107.5,172.5,99.5,164.5,91.5,155.5,83.5,141.5,75.5,134.0,67.0,133.0,57.0,132.5,49.0,132.0,41.0,135.0,33.0,137.5,25.0,143.5" stroke="black" stroke-width="2" fill="none" />
<polyline points="26.5,161.5,28.5,160.0,36.5,158.5" stroke="black" stroke-width="2" fill="none" />
<polyline points="40.0,160.5,32.0,163.0" stroke="black" stroke-width="2" fill="none" />
<polyline points="15.5,165.0,9.0,173.0,4.0,181.0" stroke="black" stroke-width="2" fill="none" />
<polyline points="15.5,174.5,23.5,172.5,16.5,170.5,14.5,179.0,16.5,186.0,13.0,193.5,12.5,202.5,11.0,210.5,9.0,218.5,7.0,227.0,6.5,235.0" stroke="black" stroke-width="2" fill="none" />
<polyline points="53.0,176.0,53.0,184.0,50.5,195.5,59.0,196.5,63.0,203.0,68.5,205.0,70.5,212.0,75.5,219.0,77.0,221.0,87.5,229.0,88.0,234.0,92.5,237.0,97.5,239.0,99.0,247.0,102.5,249.5,110.5,257.0,119.0,265.0,119.0,264.0,124.0,266.5" stroke="black" stroke-width="2" fill="none" />
<polyline points="14.0,168.5,5.5,165.0,4.5,169.5,14.0,161.5,14.0,156.0,4.0,149.5" stroke="black" stroke-width="2" fill="none" />
<polyline points="1.0,148.5,9.0,152.5,19.0,153.5,16.0,161.5,12.5,170.0,2.5,183.0,5.5,174.5,6.5,173.5,9.0,161.5,9.5,153.5,16.5,151.5" stroke="black" stroke-width="2" fill="none" />
<polyline points="41.0,135.0,27.0,143.0,26.0,151.0,31.0,165.0,36.0,168.0,37.5,173.5,37.5,181.5,31.5,189.5,20.0,196.0,10.5,201.0,7.5,208.5,6.5,214.5,5.5,222.5,4.5,232.5,6.5,240.5" stroke="black" stroke-width="2" fill="none" />
<polyline points="50.0,134.5,42.0,142.5,33.5,150.0,31.0,152.0,39.0,143.5,47.0,136.5,55.0,132.0,66.0,129.0,74.0,127.0,82.0,127.0,90.0,128.0" stroke="black" stroke-width="2" fill="none" />
<polyline points="89.0,127.0,80.5,122.5,73.0,114.5,58.0,106.5,47.0,98.5,33.0,91.0" stroke="black" stroke-width="2" fill="none" />
<polyline points="118.0,495.0,101.5,500.0,105.0,502.5,108.0,508.0,103.5,516.0,101.0,522.0,105.5,521.5,113.5,514.5,121.5,516.5,124.5,512.0,128.5,520.0,132.5,526.0,135.5,526.5,143.5,522.5,151.5,514.0,155.5,504.0,160.0,489.5,168.0,492.5" stroke="black" stroke-width="2" fill="none" />
<polyline points="138.0,519.0,131.5,517.0,126.5,516.0,118.0,521.0,118.5,530.5,110.5,531.5,113.5,527.0,115.5,519.0,111.0,508.0" stroke="black" stroke-width="2" fill="none" />
<polyline points="104.0,566.5,96.0,563.5,92.0,562.5,84.0,566.5,76.5,571.5,68.5,576.5,61.0,586.5,53.0,593.5,51.5,589.0,49.5,580.5" stroke="black" stroke-width="2" fill="none" />
</svg>