<svg xmlns="http://www.w3.org/2000/svg" version="1.1"><polyline points="46.0,57.5,44.0,59.5,45.0,67.5,44.0,75.0" stroke="black" stroke-width="2" fill="none" />
<polyline points="48.0,74.0,49.0,65.5,52.0,61.0,44.0,55.5" stroke="black" stroke-width="2" fill="none" />
<polyline points="3.5,81.5,3.0,89.5,13.0,95.0,16.0,103.0,17.0,110.5,19.0,118.5,26.0,126.5" stroke="black" stroke-width="2" fill="none" />
<polyline points="21.0,119.0,29.0,126.0,41.0,123.0,48.5,117.0" stroke="black" stroke-width="2" fill="none" />
<polyline points="73.5,128.0,81.0,131.0,82.5,137.5" stroke="black" stroke-width="2" fill="none" />
<polyline points="81.0,132.5,89.0,138.5" stroke="black" stroke-width="2" fill="none" />
<polyline points="110.5,102.0,102.0,99.5,94.0,91.5" stroke="black" stroke-width="2" fill="none" />
<polyline points="92.0,86.0,94.0,80.0,92.0,88.0,99.0,96.0,105.0,104.5" stroke="black" stroke-width="2" fill="none" />
<polyline points="122.5,104.5,128.5,99.5,137.5,91.5,140.5,85.0,140.5,77.5,139.5,69.5,146.5,68.5,139.5,69.5" stroke="black" stroke-width="2" fill="none" />
<polyline points="143.0,69.5,157.0,75.5,165.0,80.0" stroke="black" stroke-width="2" fill="none" />
<polyline points="164.5,66.5,157.0,63.0,149.0,66.0" stroke="black" stroke-width="2" fill="none" />
<polyline points="143.5,67.5,148.5,75.5,147.5,83.5" stroke="black" stroke-width="2" fill="none" />
<polyline points="129.5,89.5,121.0,82.5,113.0,88.5,105.0,84.5" stroke="black" stroke-width="2" fill="none" />
<polyline points="106.5,78.5,99.0,71.0,91.0,73.0" stroke="black" stroke-width="2" fill="none" />
<polyline points="100.0,74.0,103.0,82.0,111.0,89.5,111.0,98.0,113.0,105.0" stroke="black" stroke-width="2" fill="none" />
<polyline points="120.0,97.5,125.0,92.0,121.0,84.0" stroke="black" stroke-width="2" fill="none" />
<polyline points="120.5,83.0,113.5,92.0,122.0,90.0,125.0,93.0,136.5,94.0,144.5,86.5" stroke="black" stroke-width="2" fill="none" />
<polyline points="163.5,77.0,167.5,73.0,161.5,65.5" stroke="black" stroke-width="2" fill="none" />
<polyline points="19.0,98.0,11.5,88.5,3.5,82.5" stroke="black" stroke-width="2" fill="none" />
<polyline points="162.5,340.0,155.5,348.0,152.5,348.0,146.5,356.0,143.0,364.0,139.5,372.0,140.0,370.5,148.5,354.5,153.5,355.5,161.5,348.5,169.5,345.5,177.0,344.5,185.0,344.0" stroke="black" stroke-width="2" fill="none" />
<polyline points="187.5,345.0,189.0,353.0,191.0,360.0" stroke="black" stroke-width="2" fill="none" />
<polyline points="195.0,356.0,187.0,355.0,179.0,355.5,170.5,356.5,162.0,360.0,154.0,369.5,151.5,379.0,154.5,371.0,158.5,363.0,172.0,355.0" stroke="black" stroke-width="2" fill="none" />
<polyline points="167.5,346.0,151.5,354.5,155.5,349.5,163.5,341.5,172.0,339.5,180.0,338.0,188.0,337.5,196.0,337.5,204.0,340.0,212.0,343.5,220.0,346.5,228.0,348.5,236.0,349.5,243.5,350.5,251.5,351.0,258.5,349.0,266.5,348.5,274.5,348.5,283.0,349.0" stroke="black" stroke-width="2" fill="none" />
<polyline points="293.5,346.0,302.0,343.0" stroke="black" stroke-width="2" fill="none" />
<polyline points="315.0,345.0,323.0,343.0" stroke="black" stroke-width="2" fill="none" />
<polyline points="329.5,336.0,332.0,328.0,329.0,335.5,323.0,335.5,319.5,339.5,313.5,344.5,318.5,331.5,319.5,326.5,310.5,322.5,313.5,322.0,314.5,313.5,310.5,304.5,305.0,301.5,301.5,293.5,308.5,289.5,307.0,282.0,319.5,274.0,315.5,279.5,308.0,282.5" stroke="black" stroke-width="2" fill="none" />
<polyline points="308.0,304.0,308.5,310.0,316.5,311.0,324.0,313.0,332.0,315.0,339.5,317.5,347.5,325.0" stroke="black" stroke-width="2" fill="none" />
<polyline points="339.0,323.0,331.0,319.0,323.0,317.0,315.0,315.0,305.5,313.5,297.5,317.5" stroke="black" stroke-width="2" fill="none" />
<polyline points="295.5,312.5,295.5,320.5,303.0,333.5,296.0,342.5,293.0,349.5,299.0,342.5,307.0,331.5,312.0,320.0,320.0,325.5,328.0,325.0" stroke="black" stroke-width="2" fill="none" />
<polyline points="326.5,333.0,318.0,327.5,310.5,337.5,304.5,324.0,301.5,315.5,303.5,314.5" stroke="black" stroke-width="2" fill="none" />
<polyline points="321.5,313.5,340.5,322.0,343.5,330.0,331.5,338.5,335.5,336.5,344.0,331.0" stroke="black" stroke-width="2" fill="none" />
<polyline points="350.0,331.5,339.0,340.5,330.5,345.0,322.5,347.0,314.0,349.5,306.0,350.5,298.0,351.5,290.5,352.5,282.5,352.5,274.0,352.5,266.0,352.5,257.5,352.5,248.5,349.0,240.5,348.0,231.0,346.5,223.0,344.5,215.0,342.0,207.0,339.0,199.0,330.0" stroke="black" stroke-width="2" fill="none" />
<polyline points="198.0,325.5,206.5,317.5,214.5,314.0,222.0,311.5,230.0,309.5,237.5,309.0,245.5,308.0,249.5,301.5,257.5,306.0" stroke="black" stroke-width="2" fill="none" />
<polyline points="269.0,310.5,277.0,310.5,285.5,310.0,293.0,312.0,289.5,320.0,283.5,324.0" stroke="black" stroke-width="2" fill="none" />
<polyline points="290.0,326.5,290.0,328.5,294.0,335.5,288.5,336.5,293.5,333.5" stroke="black" stroke-width="2" fill="none" />
<polyline points="315.0,334.5,312.0,346.5,305.0,345.5,307.0,344.0,308.0,335.5,308.5,327.5,308.5,320.0,304.5,316.0,303.0,325.0,295.0,317.5,291.5,314.5,289.0,321.0,278.0,331.0,275.5,330.0,279.5,323.0,285.5,315.0,275.0,315.5" stroke="black" stroke-width="2" fill="none" />
<polyline points="290.0,293.5,282.0,284.5" stroke="black" stroke-width="2" fill="none" />
<polyline points="281.5,285.0,286.5,293.0,294.0,301.0" stroke="black" stroke-width="2" fill="none" />
<polyline points="283.0,320.5,275.0,321.5,270.0,314.5,261.0,319.5,252.5,323.5,259.0,322.5,254.0,320.5,265.5,319.5,266.5,310.0,258.5,311.0,250.5,311.0,242.5,312.0,235.0,313.0,227.0,315.0,219.0,316.5,211.0,319.5,203.0,327.5" stroke="black" stroke-width="2" fill="none" />
<polyline points="204.0,332.0,212.0,339.0,220.0,340.5,228.0,343.5,236.0,344.0,244.5,345.0,252.0,346.0,259.5,347.5,268.0,347.5,276.0,348.0,284.0,348.0,292.0,347.0,300.0,348.0" stroke="black" stroke-width="2" fill="none" />
<polyline points="309.0,368.0,326.0,376.0,331.0,384.5,327.0,392.5,323.0,400.0,317.5,414.5,309.5,422.5,303.5,423.0,293.5,428.0,290.5,434.0,301.0,422.0,303.0,417.0,310.0,413.0" stroke="black" stroke-width="2" fill="none" />
<polyline points="308.0,410.0,305.5,417.5" stroke="black" stroke-width="2" fill="none" />
<polyline points="302.5,406.0,293.5,408.0,289.5,410.5,284.0,417.5,279.0,419.0,277.0,417.0,272.0,420.5,265.0,421.5,263.0,418.0,255.0,419.5" stroke="black" stroke-width="2" fill="none" />
<polyline points="267.5,404.0,271.5,403.0,281.5,404.0,289.0,412.5,291.5,415.5,295.5,418.5,297.5,426.5,292.0,435.0,292.5,443.0,292.5,450.5,293.0,458.5,290.5,466.5,291.5,474.0" stroke="black" stroke-width="2" fill="none" />
<polyline points="310.0,481.0,318.0,486.0,317.0,488.5" stroke="black" stroke-width="2" fill="none" />
<polyline points="310.5,490.0,312.0,482.5" stroke="black" stroke-width="2" fill="none" />
<polyline points="316.0,476.0,302.0,484.0,299.5,492.0,305.5,493.5" stroke="black" stroke-width="2" fill="none" />
<polyline points="289.0,501.0,281.0,493.0" stroke="black" stroke-width="2" fill="none" />
<polyline points="282.0,491.5,286.0,499.5" stroke="black" stroke-width="2" fill="none" />
<polyline points="279.0,499.5,275.0,493.5,267.0,493.5" stroke="black" stroke-width="2" fill="none" />
<polyline points="266.0,492.5,266.5,500.5,269.5,502.5" stroke="black" stroke-width="2" fill="none" />
<polyline points="276.5,500.5,275.5,492.5" stroke="black" stroke-width="2" fill="none" />
<polyline points="281.5,479.0,281.5,471.0,280.0,466.0,281.5,457.5,281.0,449.5,284.0,443.5,283.0,435.5,284.5,434.0,287.0,426.0,286.0,422.5,287.0,414.5,281.0,406.5,272.0,405.5" stroke="black" stroke-width="2" fill="none" />
<polyline points="271.0,405.5,274.0,407.5,274.5,415.5,269.5,418.5,268.5,426.0,268.5,434.0,263.5,442.0,264.0,452.0,263.0,456.5,267.0,461.5,262.5,464.0,264.0,472.0,266.0,480.0" stroke="black" stroke-width="2" fill="none" />
<polyline points="258.0,490.5,259.5,498.0" stroke="black" stroke-width="2" fill="none" />
<polyline points="247.0,494.5,248.0,486.5" stroke="black" stroke-width="2" fill="none" />
<polyline points="241.0,486.0,239.0,494.0,238.0,495.0,238.0,498.0" stroke="black" stroke-width="2" fill="none" />
<polyline points="229.0,494.5,237.0,499.5,245.0,503.0,253.5,506.0,262.0,508.0,270.5,509.5,278.0,509.0,285.5,508.5,293.5,506.5,301.5,504.5,309.5,500.5,317.0,495.5,325.0,487.5" stroke="black" stroke-width="2" fill="none" />
<polyline points="317.0,476.0,320.0,484.0,317.5,492.0,303.5,500.5" stroke="black" stroke-width="2" fill="none" />
<polyline points="317.5,474.5,309.5,479.5,301.0,483.0,293.0,486.0,285.0,487.5,276.5,488.5,269.0,487.5,260.5,487.5,252.5,485.5,244.0,482.5,236.0,478.0,232.5,480.5,228.5,472.5,228.0,488.0,228.0,480.5,231.0,478.5" stroke="black" stroke-width="2" fill="none" />
<polyline points="229.5,476.0,242.5,484.0,257.5,493.5,256.0,501.5" stroke="black" stroke-width="2" fill="none" />
<polyline points="238.5,516.0,218.5,508.5,208.5,500.5" stroke="black" stroke-width="2" fill="none" />
<polyline points="203.5,492.0,194.5,490.0,186.5,504.0,178.5,503.0" stroke="black" stroke-width="2" fill="none" />
<polyline points="196.0,491.5,191.0,499.0,192.5,510.0,198.0,509.0,205.5,501.5,212.0,500.5,220.0,506.5,228.0,511.0,236.0,514.0,244.0,517.0,252.0,518.5,260.0,520.5,268.0,520.0,276.0,520.5,284.0,520.5,292.0,520.0,300.0,519.0,308.0,516.5,316.0,514.0,324.0,511.0,332.5,506.0,340.0,499.0,349.0,481.0,357.0,484.0,358.5,491.5,358.5,499.5,366.0,494.0,374.0,497.0,382.0,497.5,389.5,489.5,402.5,494.0,410.5,493.5,418.5,491.5,426.5,490.5,435.5,495.5,442.5,499.0,450.5,501.5,458.5,501.5,466.5,496.5,474.5,494.5,486.5,489.0" stroke="black" stroke-width="2" fill="none" />
<polyline points="483.5,500.5,476.0,499.5" stroke="black" stroke-width="2" fill="none" />
<polyline points="466.5,493.5,461.0,501.5" stroke="black" stroke-width="2" fill="none" />
<polyline points="448.0,527.5,440.0,523.5" stroke="black" stroke-width="2" fill="none" />
<polyline points="438.5,528.5,438.5,531.5" stroke="black" stroke-width="2" fill="none" />
<polyline points="430.5,535.5,436.5,543.5,434.5,546.0,446.5,554.5,452.5,558.5,456.5,562.0" stroke="black" stroke-width="2" fill="none" />
<polyline points="456.5,572.0,463.5,580.0,467.0,580.5" stroke="black" stroke-width="2" fill="none" />
<polyline points="465.5,571.0,457.5,572.0" stroke="black" stroke-width="2" fill="none" />
<polyline points="454.5,592.5,462.5,591.5,471.5,589.5" stroke="black" stroke-width="2" fill="none" />
<polyline points="473.0,598.0,479.0,598.5,483.0,611.0,488.5,615.5,491.5,623.5,494.5,622.5" stroke="black" stroke-width="2" fill="none" />
<polyline points="492.0,617.5,493.0,619.5,496.5,611.5,493.5,604.0,490.5,599.0,485.5,588.0,480.0,583.0,481.0,568.5,488.0,568.5,485.5,569.5" stroke="black" stroke-width="2" fill="none" />
<polyline points="481.0,568.5,489.0,563.5,496.5,567.5,504.5,572.5,512.0,578.5" stroke="black" stroke-width="2" fill="none" />
<polyline points="496.5,590.5,488.5,595.5" stroke="black" stroke-width="2" fill="none" />
<polyline points="495.5,608.5,482.0,609.5,479.0,612.5" stroke="black" stroke-width="2" fill="none" />
<polyline points="467.0,618.5,463.5,620.0,462.5,628.5,464.5,627.5,467.5,632.5,469.5,629.0,468.0,637.0" stroke="black" stroke-width="2" fill="none" />
<polyline points="462.5,654.0,470.5,658.0,478.5,660.0,487.0,659.0,495.0,662.0,505.5,669.0,513.0,670.0" stroke="black" stroke-width="2" fill="none" />
<polyline points="510.5,665.5,510.5,663.5,506.0,667.0,506.0,675.0,511.0,683.0" stroke="black" stroke-width="2" fill="none" />
<polyline points="510.0,675.5,505.5,682.5,499.5,681.5,491.5,673.5,491.5,660.5,478.5,657.5,480.0,648.0,481.5,641.5,467.5,638.5,458.5,645.0,449.5,649.0,441.5,641.5,436.5,638.5,430.5,637.0,429.5,630.0,425.0,635.0,422.0,641.0,414.5,647.5,406.5,647.5,395.5,640.0,393.0,634.0,385.0,628.0,375.5,631.0,372.0,636.0,358.5,638.0,350.0,628.5,339.0,618.5,331.0,618.0,329.0,622.0,325.0,621.5,315.0,625.5,312.0,620.0,309.0,629.5,301.0,635.5,298.0,628.0,298.0,629.0,298.0,621.5,297.0,612.0,303.0,603.0,308.0,603.0,307.0,595.0,310.5,593.5,302.0,593.0" stroke="black" stroke-width="2" fill="none" />
<polyline points="304.0,596.5,312.0,598.0,315.5,596.0,311.5,604.0,318.5,605.0,326.5,612.5,332.0,615.5,332.5,623.0,337.0,629.0" stroke="black" stroke-width="2" fill="none" />
<polyline points="320.5,631.5,317.5,632.5,311.0,634.0" stroke="black" stroke-width="2" fill="none" />
<polyline points="300.0,643.0,297.0,640.0,302.0,628.0,306.0,628.0,296.5,623.5" stroke="black" stroke-width="2" fill="none" />
<polyline points="295.5,610.5,288.0,600.0,285.5,603.0" stroke="black" stroke-width="2" fill="none" />
<polyline points="275.5,606.0,285.5,604.5,282.0,612.5,285.0,616.0,293.5,622.0,295.5,616.0,304.0,621.0,306.5,616.5,311.0,610.0,316.0,613.0,325.0,608.5,325.0,618.0,328.0,611.5,336.5,612.0" stroke="black" stroke-width="2" fill="none" />
<polyline points="339.0,580.5,347.0,583.0,343.0,572.5,355.5,577.0,360.5,574.0,368.5,578.0,372.5,578.0,381.0,578.0" stroke="black" stroke-width="2" fill="none" />
<polyline points="382.0,570.0,375.5,571.0,376.5,568.5,373.0,568.5,369.0,564.0,361.0,562.0,360.0,565.0" stroke="black" stroke-width="2" fill="none" />
<polyline points="352.5,562.0,359.5,564.0,352.0,566.0,355.0,572.0,361.0,578.0,357.5,584.5,363.5,591.5,368.5,587.5,368.5,596.5,376.0,588.0,382.0,589.5,390.0,593.0,392.5,580.0,392.5,591.0,390.0,595.5,390.5,601.0,384.0,606.5,394.5,611.0,396.0,617.0,405.0,622.5,415.0,624.5,430.0,630.0,429.0,637.0,419.5,645.0,410.5,650.5,407.0,657.5,409.0,669.5,417.0,675.0,413.0,683.0" stroke="black" stroke-width="2" fill="none" />
<polyline points="422.0,683.0,430.0,697.0" stroke="black" stroke-width="2" fill="none" />
<polyline points="439.5,688.0,441.0,683.0,432.0,682.0,424.5,679.0" stroke="black" stroke-width="2" fill="none" />
<polyline points="421.5,672.0,429.5,664.5,430.0,664.0,425.0,672.0,430.5,672.5,437.5,684.5,445.0,689.5" stroke="black" stroke-width="2" fill="none" />
<polyline points="449.5,689.0,441.5,681.0" stroke="black" stroke-width="2" fill="none" />
<polyline points="438.0,677.5,438.5,675.5,439.5,682.5,434.5,673.5,440.5,680.5,448.5,688.5" stroke="black" stroke-width="2" fill="none" />
<polyline points="460.5,687.0,465.5,695.0,471.0,698.5,466.0,705.5,470.5,703.5" stroke="black" stroke-width="2" fill="none" />
<polyline points="469.5,702.0,466.5,701.5,464.5,693.5" stroke="black" stroke-width="2" fill="none" />
<polyline points="475.5,706.0,465.5,704.0,462.0,696.0,456.5,692.0,457.5,681.0,450.0,678.0,447.5,672.0,449.5,664.0,448.5,659.5,443.0,653.5" stroke="black" stroke-width="2" fill="none" />
<polyline points="435.5,662.5,432.0,649.5,424.0,650.5" stroke="black" stroke-width="2" fill="none" />
<polyline points="429.5,656.0,433.5,657.0,443.0,665.0,441.5,673.5,433.5,676.0,437.5,684.0,448.5,692.5,458.0,688.0,466.0,688.0,473.5,690.0" stroke="black" stroke-width="2" fill="none" />
<polyline points="482.5,717.5,473.0,723.5,481.0,720.0,489.0,720.5,497.0,720.5" stroke="black" stroke-width="2" fill="none" />
<polyline points="468.5,727.0,461.0,732.0,458.0,729.0,454.0,721.0" stroke="black" stroke-width="2" fill="none" />
<polyline points="437.5,720.0,429.5,720.0,424.5,718.0,423.5,717.0" stroke="black" stroke-width="2" fill="none" />
<polyline points="404.0,709.0,396.0,704.0" stroke="black" stroke-width="2" fill="none" />
<polyline points="408.5,691.5,400.5,686.5,392.5,683.5" stroke="black" stroke-width="2" fill="none" />
<polyline points="390.5,683.0,398.5,681.0" stroke="black" stroke-width="2" fill="none" />
<polyline points="393.5,680.0,399.5,688.0" stroke="black" stroke-width="2" fill="none" />
<polyline points="390.5,666.5,399.5,675.0,408.5,679.0,416.5,675.5,425.0,675.5,432.5,670.5,438.0,671.5,452.0,666.0,452.0,662.0" stroke="black" stroke-width="2" fill="none" />
<polyline points="457.5,652.0,465.5,653.0,473.5,654.5" stroke="black" stroke-width="2" fill="none" />
<polyline points="503.5,657.5,494.5,665.5,502.5,658.5,510.5,657.5" stroke="black" stroke-width="2" fill="none" />
<polyline points="509.5,639.0,507.0,631.0" stroke="black" stroke-width="2" fill="none" />
<polyline points="450.0,625.0,442.0,619.0" stroke="black" stroke-width="2" fill="none" />
<polyline points="442.0,618.0,450.5,617.0" stroke="black" stroke-width="2" fill="none" />
<polyline points="443.0,617.0,448.0,625.0,454.0,633.5,463.0,640.5,458.0,652.5,474.0,660.0,484.0,666.0,487.5,667.0,491.5,674.0" stroke="black" stroke-width="2" fill="none" />
<polyline points="466.5,619.0,453.5,616.0,452.5,609.0,446.5,603.0,441.5,599.5,433.5,605.5" stroke="black" stroke-width="2" fill="none" />
<polyline points="433.0,601.5,433.5,600.5,431.5,608.5,424.5,612.0,418.0,622.0,413.0,629.5,420.0,635.5,415.5,636.0,420.0,631.0,428.0,627.0,436.0,632.0" stroke="black" stroke-width="2" fill="none" />
<polyline points="439.0,631.5,432.5,623.5" stroke="black" stroke-width="2" fill="none" />
<polyline points="426.5,630.0,424.5,638.5" stroke="black" stroke-width="2" fill="none" />
<polyline points="411.5,618.0,412.5,610.0,415.0,608.0,403.0,603.5" stroke="black" stroke-width="2" fill="none" />
<polyline points="403.0,613.0,391.0,616.0,383.0,613.0" stroke="black" stroke-width="2" fill="none" />
<polyline points="381.0,605.0,389.0,608.0,394.0,611.0,400.0,622.0,408.0,623.0,416.0,623.0,424.0,621.0" stroke="black" stroke-width="2" fill="none" />
<polyline points="430.5,611.0,439.0,610.0,441.5,606.0,454.0,614.0,450.5,618.0,453.5,624.0,454.5,624.0" stroke="black" stroke-width="2" fill="none" />
<polyline points="472.5,633.5,462.5,638.5,459.0,634.5,446.5,635.5,437.0,642.0,437.0,631.5,423.0,618.5,434.0,610.5" stroke="black" stroke-width="2" fill="none" />
<polyline points="449.0,596.0,441.0,588.5" stroke="black" stroke-width="2" fill="none" />
<polyline points="433.5,586.0,441.5,584.5,445.5,579.5,453.0,579.0,461.0,582.0,469.0,583.5,476.5,588.0" stroke="black" stroke-width="2" fill="none" />
<polyline points="457.5,581.0,448.0,573.0,435.5,570.0" stroke="black" stroke-width="2" fill="none" />
<polyline points="413.5,579.0,417.5,577.5,409.5,585.0" stroke="black" stroke-width="2" fill="none" />
<polyline points="402.0,589.0,397.0,590.0" stroke="black" stroke-width="2" fill="none" />
<polyline points="395.5,562.0,403.5,567.0,411.5,562.5" stroke="black" stroke-width="2" fill="none" />
<polyline points="414.5,574.0,406.5,574.0,404.5,574.5,405.0,568.0,397.0,566.0,398.0,557.5" stroke="black" stroke-width="2" fill="none" />
<polyline points="391.5,554.5,392.0,562.5,395.0,570.0,389.0,576.0,390.5,580.5,389.5,585.5,380.0,586.5,373.5,593.5,370.0,602.0,371.5,599.0,371.5,607.0,379.5,602.0,388.0,598.0,389.5,603.5,395.5,592.0,404.5,586.0,406.5,594.5" stroke="black" stroke-width="2" fill="none" />
<polyline points="383.0,624.5,375.0,618.5" stroke="black" stroke-width="2" fill="none" />
<polyline points="373.5,616.5,381.5,621.5" stroke="black" stroke-width="2" fill="none" />
<polyline points="374.5,616.0,379.5,624.0,387.5,630.5,392.5,631.0" stroke="black" stroke-width="2" fill="none" />
<polyline points="385.0,644.5,393.0,643.5,399.5,652.5,407.5,652.0,411.5,654.0" stroke="black" stroke-width="2" fill="none" />
<polyline points="403.0,655.5,406.0,660.5,397.5,665.5,389.5,664.5" stroke="black" stroke-width="2" fill="none" />
<polyline points="377.0,657.0,382.0,649.0,385.0,650.0,377.0,651.0" stroke="black" stroke-width="2" fill="none" />
<polyline points="360.5,655.5,354.5,647.5,359.5,637.5,357.5,634.0,349.5,628.0,342.5,626.0,338.5,623.5,337.5,615.5,331.5,607.5,335.5,599.0,332.5,591.0,326.5,582.5,318.0,580.0,309.0,574.0,308.0,562.5,295.5,554.5,299.0,552.5,295.5,555.5" stroke="black" stroke-width="2" fill="none" />
<polyline points="298.5,556.5,306.5,559.5,318.0,557.5,317.0,565.0,315.5,567.0,320.5,566.5,328.5,568.5,335.5,565.5,336.5,571.0,346.0,567.0,347.0,573.0,355.0,568.0,363.0,574.0,369.0,567.5,379.5,564.5,387.5,566.0" stroke="black" stroke-width="2" fill="none" />
<polyline points="382.5,561.0,382.5,569.0,386.0,570.0,380.5,580.0,376.5,586.5,376.5,594.5,377.5,603.0,383.5,611.5,388.5,621.0,389.5,626.5,393.0,634.5,395.0,642.5,403.0,645.5,401.5,655.5,394.5,660.0,399.0,663.0,401.0,668.0,414.5,671.0,422.5,665.0,433.5,659.0,441.5,665.0,445.0,672.0,445.5,678.5" stroke="black" stroke-width="2" fill="none" />
<polyline points="424.5,691.0,420.5,683.5,424.0,678.5,418.0,672.5,425.0,664.5" stroke="black" stroke-width="2" fill="none" />
<polyline points="367.0,710.0,357.0,709.0,349.0,699.0" stroke="black" stroke-width="2" fill="none" />
<polyline points="349.5,699.0,354.0,707.0" stroke="black" stroke-width="2" fill="none" />
<polyline points="341.0,728.0,333.0,729.0" stroke="black" stroke-width="2" fill="none" />
<polyline points="340.0,732.5,336.0,735.0,335.0,734.5,328.5,723.5,320.5,726.0" stroke="black" stroke-width="2" fill="none" />
<polyline points="309.5,725.0,301.5,721.5,300.0,717.5" stroke="black" stroke-width="2" fill="none" />
<polyline points="301.5,709.0,309.5,712.5" stroke="black" stroke-width="2" fill="none" />
<polyline points="293.5,691.0,285.5,691.0" stroke="black" stroke-width="2" fill="none" />
<polyline points="295.5,669.5,287.5,662.5" stroke="black" stroke-width="2" fill="none" />
<polyline points="294.0,653.0,289.0,642.0,285.0,638.0,277.0,637.0" stroke="black" stroke-width="2" fill="none" />
<polyline points="275.0,628.0,283.0,629.0" stroke="black" stroke-width="2" fill="none" />
<polyline points="275.0,625.5,283.0,623.5,290.0,634.5,292.0,642.5" stroke="black" stroke-width="2" fill="none" />
<polyline points="308.0,652.0,299.0,645.0,306.0,645.0,298.0,639.0,294.0,636.5,287.0,635.5,284.0,632.0,289.0,627.5,294.0,617.0,301.5,615.5,302.5,607.5,297.5,603.0,302.5,594.0,306.5,585.0,299.0,576.5,296.0,568.5,290.5,567.5,282.5,564.5" stroke="black" stroke-width="2" fill="none" />
<polyline points="291.5,569.5,299.5,570.5,305.0,578.5,305.0,582.0,318.5,584.0" stroke="black" stroke-width="2" fill="none" />
<polyline points="320.0,580.0,329.0,588.0,328.5,593.5,332.0,597.5,324.0,600.5,321.5,608.0,322.0,616.0,324.0,617.5,328.0,627.0,328.5,626.0,333.5,625.0,340.5,628.0,350.0,627.5,358.0,633.5" stroke="black" stroke-width="2" fill="none" />
<polyline points="348.5,642.5,339.5,643.0,347.5,640.5,349.5,644.5,357.5,650.0" stroke="black" stroke-width="2" fill="none" />
<polyline points="374.5,661.0,364.5,653.5,356.5,646.5,344.5,647.0,335.0,654.0,335.5,653.5,334.5,645.5" stroke="black" stroke-width="2" fill="none" />
<polyline points="330.0,648.5,331.0,656.5" stroke="black" stroke-width="2" fill="none" />
<polyline points="309.5,671.0,317.0,678.5" stroke="black" stroke-width="2" fill="none" />
<polyline points="332.5,687.5,329.0,695.5,335.0,699.0,347.5,709.0" stroke="black" stroke-width="2" fill="none" />
<polyline points="294.5,726.0,286.0,723.0,278.0,721.5" stroke="black" stroke-width="2" fill="none" />
<polyline points="275.0,722.0,283.0,717.0,291.0,720.0,299.0,715.0,306.5,712.0,299.0,715.0,286.0,718.5,288.5,728.5,284.5,738.0,292.5,738.0" stroke="black" stroke-width="2" fill="none" />
<polyline points="289.5,728.0,281.5,731.5,273.5,728.0" stroke="black" stroke-width="2" fill="none" />
<polyline points="275.0,729.5,290.0,734.5" stroke="black" stroke-width="2" fill="none" />
<polyline points="269.0,703.0,261.0,702.0" stroke="black" stroke-width="2" fill="none" />
<polyline points="253.5,700.0,261.5,698.0,264.0,694.5,265.0,702.5,266.5,712.5,264.0,717.0" stroke="black" stroke-width="2" fill="none" />
<polyline points="262.5,714.5,254.5,711.0,252.0,710.0,248.0,700.0,240.5,699.5" stroke="black" stroke-width="2" fill="none" />
<polyline points="243.5,691.5,235.5,695.5,227.5,692.5,227.5,684.5,219.0,685.5" stroke="black" stroke-width="2" fill="none" />
<polyline points="222.5,678.0,230.5,673.0,238.5,674.5,235.5,674.0,237.5,682.0,241.0,685.0,230.0,695.0,242.5,696.5,245.0,702.5,253.0,705.5,255.0,703.5,260.0,711.5,266.5,713.0" stroke="black" stroke-width="2" fill="none" />
<polyline points="272.5,702.5,273.5,699.0,272.0,696.0,264.0,691.5,256.0,692.0" stroke="black" stroke-width="2" fill="none" />
<polyline points="254.5,707.0,267.5,710.0" stroke="black" stroke-width="2" fill="none" />
<polyline points="238.5,720.0,230.5,725.5" stroke="black" stroke-width="2" fill="none" />
<polyline points="235.0,674.5,237.5,682.5,242.0,686.5,247.0,682.5,248.5,672.5" stroke="black" stroke-width="2" fill="none" />
<polyline points="260.5,664.5,262.5,666.0,256.5,664.0,261.5,652.0,264.0,646.0,257.0,635.0,252.0,630.0,258.0,627.0,252.5,620.5,250.0,622.5" stroke="black" stroke-width="2" fill="none" />
<polyline points="253.5,628.0,261.5,628.0" stroke="black" stroke-width="2" fill="none" />
<polyline points="265.0,625.0,262.5,623.0,272.5,621.0" stroke="black" stroke-width="2" fill="none" />
<polyline points="254.5,613.5,251.5,613.5,250.5,605.5,261.0,607.0,265.5,604.0,263.0,602.0,271.0,590.5,270.0,583.5,269.0,580.5,262.0,578.5,261.5,571.0,259.5,566.0,252.0,564.5,248.0,561.5,251.0,553.5,247.5,556.5,239.5,548.5" stroke="black" stroke-width="2" fill="none" />
<polyline points="239.0,548.0,244.0,556.0,256.5,550.0,264.5,548.5" stroke="black" stroke-width="2" fill="none" />
<polyline points="266.0,538.5,274.0,542.0,282.5,554.5,293.5,562.5,301.0,563.5,309.0,571.0,317.0,582.0,325.0,588.0,335.0,585.0,337.5,587.5,337.5,591.5,350.5,594.5,359.0,590.5,365.0,589.0" stroke="black" stroke-width="2" fill="none" />
<polyline points="334.0,565.0,333.0,567.5,334.0,570.0,339.0,575.0,337.5,583.5,349.5,584.5,349.5,590.5,342.5,590.5,350.5,585.0,359.5,584.5,367.5,585.5,369.5,589.5,379.0,584.0,387.0,584.0,394.0,590.0,401.0,596.0,410.0,592.0,403.0,596.0,402.0,604.0,390.5,605.0,393.5,606.0,397.5,614.0,406.5,618.5,413.0,615.0,417.0,614.0,419.5,616.0,423.5,611.5,431.0,623.0,435.0,627.0,443.0,635.5,453.0,633.5,461.0,631.5,470.5,623.0" stroke="black" stroke-width="2" fill="none" />
<polyline points="490.5,569.5,499.5,571.5,500.5,573.5,506.0,578.5,510.0,578.5" stroke="black" stroke-width="2" fill="none" />
<polyline points="496.5,557.5,494.5,547.5,502.5,536.0,505.5,534.5,497.5,538.0" stroke="black" stroke-width="2" fill="none" />
<polyline points="489.5,547.0,481.5,543.5" stroke="black" stroke-width="2" fill="none" />
<polyline points="498.5,503.0,506.5,506.0" stroke="black" stroke-width="2" fill="none" />
<polyline points="496.5,472.5,504.0,470.0" stroke="black" stroke-width="2" fill="none" />
<polyline points="502.5,470.5,499.5,462.5" stroke="black" stroke-width="2" fill="none" />
<polyline points="507.0,452.0,496.0,455.0,489.5,463.5,490.5,475.5,495.5,483.0" stroke="black" stroke-width="2" fill="none" />
<polyline points="478.0,463.0,470.0,471.0" stroke="black" stroke-width="2" fill="none" />
<polyline points="468.0,446.5,460.0,442.5" stroke="black" stroke-width="2" fill="none" />
<polyline points="459.0,451.5,451.0,446.5,451.0,448.5" stroke="black" stroke-width="2" fill="none" />
<polyline points="453.0,444.5,444.0,444.0,442.0,451.0" stroke="black" stroke-width="2" fill="none" />
<polyline points="429.0,451.0,436.0,459.0,445.0,460.0,452.0,454.0,459.5,455.0,467.5,452.5,475.5,453.0,487.0,454.0,492.0,455.0,501.5,456.0,509.5,452.0" stroke="black" stroke-width="2" fill="none" />
<polyline points="497.0,423.0,501.5,413.5,508.5,401.5,509.5,393.5,507.5,396.0" stroke="black" stroke-width="2" fill="none" />
<polyline points="503.5,379.0,511.5,377.5" stroke="black" stroke-width="2" fill="none" />
<polyline points="494.5,404.0,487.0,404.0" stroke="black" stroke-width="2" fill="none" />
<polyline points="489.5,396.5,481.0,391.5,473.5,394.5,466.5,392.5,458.5,389.0,450.5,399.0,447.5,407.0,439.5,412.0,448.5,404.5,442.5,397.5,439.0,389.5,443.0,380.5,448.0,373.0,438.0,367.0,431.0,356.5,429.0,348.5,425.0,352.5" stroke="black" stroke-width="2" fill="none" />
<polyline points="429.0,349.0,440.0,355.0,439.0,366.0" stroke="black" stroke-width="2" fill="none" />
<polyline points="432.5,370.5,440.5,372.5,448.5,373.5,452.0,380.5,452.5,388.0,455.5,393.5" stroke="black" stroke-width="2" fill="none" />
<polyline points="451.0,389.5,451.0,381.5,459.0,378.5" stroke="black" stroke-width="2" fill="none" />
<polyline points="458.5,385.5,467.0,384.5,479.0,390.5,478.5,399.0,475.5,407.5,482.5,414.0,491.0,416.0,499.5,417.0,507.5,410.0" stroke="black" stroke-width="2" fill="none" />
<polyline points="494.5,421.5,487.5,414.0" stroke="black" stroke-width="2" fill="none" />
<polyline points="477.5,422.0,485.5,422.0,487.5,424.5,490.5,432.5" stroke="black" stroke-width="2" fill="none" />
<polyline points="498.5,436.5,504.5,434.0,502.5,429.0,494.5,431.0,486.5,438.5,478.5,438.0,466.5,429.5,458.0,434.0,450.0,429.0,441.5,437.0,446.5,435.0,444.0,432.0,436.0,430.0" stroke="black" stroke-width="2" fill="none" />
<polyline points="436.5,431.5,436.5,439.5,436.0,447.0,440.5,450.0,443.5,462.0,437.5,464.0,446.5,472.0,452.0,475.0,460.5,471.0,468.5,475.0,476.0,468.0,485.5,467.0,493.0,463.0,498.0,465.0,506.5,467.5" stroke="black" stroke-width="2" fill="none" />
<polyline points="498.5,513.5,490.5,512.5,482.5,512.5,473.5,513.0,465.5,513.0,457.5,514.0,447.0,523.0,442.5,516.0,441.5,512.0,441.5,494.5,430.5,486.5" stroke="black" stroke-width="2" fill="none" />
<polyline points="427.0,490.0,429.5,500.0" stroke="black" stroke-width="2" fill="none" />
<polyline points="420.0,511.5,428.5,514.5,436.5,513.5,444.5,509.5,447.0,515.5,451.0,527.5,453.0,535.0,459.5,536.5,462.5,542.5,470.5,544.0,473.0,538.0,481.0,538.0,483.0,541.5,491.5,544.0,498.5,552.0,507.0,547.0" stroke="black" stroke-width="2" fill="none" />
<polyline points="452.0,512.0,444.0,518.5,436.0,522.0,428.0,519.0,417.5,522.0,409.0,525.0,401.0,521.5,394.0,512.0,385.5,514.0" stroke="black" stroke-width="2" fill="none" />
<polyline points="383.0,508.5,390.5,504.5,392.5,509.5,397.5,508.0" stroke="black" stroke-width="2" fill="none" />
<polyline points="406.0,506.5,398.0,497.5,390.0,493.5" stroke="black" stroke-width="2" fill="none" />
<polyline points="388.0,488.0,381.0,496.0,380.5,502.5,385.5,506.5,388.5,508.5,401.0,513.5,406.5,515.0,411.0,525.0,407.5,530.5,406.0,537.0,399.0,538.0,409.0,539.0,417.5,539.5,418.0,544.5,425.0,541.5,430.5,544.0,438.0,549.0,446.0,547.5,445.0,552.0,452.5,551.0,460.5,552.0,460.5,559.0,468.0,564.5,476.0,576.5,478.5,580.5,482.5,590.0,488.5,583.0" stroke="black" stroke-width="2" fill="none" />
<polyline points="421.5,536.5,414.0,544.5" stroke="black" stroke-width="2" fill="none" />
<polyline points="407.0,526.5,400.0,529.5,391.0,529.5,382.0,538.0,387.0,529.5,378.5,519.0,370.5,521.5,362.0,518.5" stroke="black" stroke-width="2" fill="none" />
<polyline points="358.5,510.5,358.5,511.5,353.5,516.0,353.5,524.0,353.5,535.0,358.5,538.5,364.5,538.5,367.5,542.5,367.5,546.0,372.5,546.5" stroke="black" stroke-width="2" fill="none" />
<polyline points="370.5,538.5,372.5,531.5,380.5,526.5,384.5,526.0,392.0,527.0,400.5,518.0,408.0,520.0" stroke="black" stroke-width="2" fill="none" />
<polyline points="404.5,521.5,401.5,524.5,395.5,525.5,393.5,534.5,399.0,536.5,390.5,538.0,398.5,535.0,406.5,536.5,414.5,532.0,416.5,528.0,420.0,529.0,414.5,532.0,413.0,540.0,415.0,533.5,423.0,540.5,434.0,533.5,439.0,544.5" stroke="black" stroke-width="2" fill="none" />
<polyline points="434.0,521.0,439.0,528.0,436.0,539.0,444.0,543.5,449.5,545.5,455.5,550.5,455.5,553.0,454.5,561.0,465.5,567.5,466.5,572.0,466.5,583.0,473.5,588.5,461.5,593.5,460.5,601.5,461.5,608.5,455.0,617.0,455.5,631.0,445.0,636.0,437.0,639.5,442.0,644.5,445.0,657.5,444.5,670.5,445.5,678.5,453.5,679.5" stroke="black" stroke-width="2" fill="none" />
<polyline points="349.0,707.5,343.5,700.5,335.5,699.0,333.5,688.5,326.0,688.5,322.0,683.0,315.5,676.0,307.5,670.0,299.5,678.0,299.5,680.0,303.5,672.5,303.5,664.5" stroke="black" stroke-width="2" fill="none" />
<polyline points="240.0,612.0,232.0,614.5" stroke="black" stroke-width="2" fill="none" />
<polyline points="245.5,597.5,234.0,601.5,230.5,600.5,222.5,593.5,214.5,594.0" stroke="black" stroke-width="2" fill="none" />
<polyline points="206.0,606.5,213.5,605.5,221.5,606.0,229.5,608.0,237.5,607.5" stroke="black" stroke-width="2" fill="none" />
<polyline points="237.0,625.5,229.0,624.5,221.0,622.5,213.0,623.5,204.5,623.5,196.5,622.0" stroke="black" stroke-width="2" fill="none" />
<polyline points="198.0,618.5,206.5,616.5,214.0,621.5,208.0,629.5,214.5,624.5,217.5,627.0,221.0,630.0,229.5,626.5" stroke="black" stroke-width="2" fill="none" />
<polyline points="225.0,644.5,216.5,644.5" stroke="black" stroke-width="2" fill="none" />
<polyline points="217.5,648.0,225.5,650.0,228.0,656.0" stroke="black" stroke-width="2" fill="none" />
<polyline points="226.0,667.0,218.0,667.0" stroke="black" stroke-width="2" fill="none" />
<polyline points="216.5,672.0,224.5,668.0,234.5,667.0,242.5,668.0,246.5,661.0,251.5,658.0,257.5,666.0,271.5,666.5" stroke="black" stroke-width="2" fill="none" />
<polyline points="295.0,685.0,287.0,683.0,293.0,686.0,293.5,672.5,291.5,666.5,288.5,659.0,287.5,650.5,282.5,642.5,273.5,631.0,276.5,623.0,278.5,613.5,274.5,611.0,269.5,608.5,270.5,600.0,281.5,588.0,282.5,584.5,280.0,590.5,272.0,604.0,267.5,609.0,261.0,603.0,251.0,596.0,249.0,591.5,241.0,592.0,237.0,587.0,223.0,584.0,220.5,582.0,216.0,573.0,212.0,567.0,213.0,559.0,212.0,547.5,201.5,536.0,191.5,533.0" stroke="black" stroke-width="2" fill="none" />
<polyline points="189.0,531.5,197.5,527.0,200.5,529.5,187.5,536.5,175.5,545.0,183.5,537.0,191.5,525.0,200.0,514.0" stroke="black" stroke-width="2" fill="none" />
<polyline points="200.0,525.0,207.5,527.0,209.0,529.0,207.0,541.0,209.5,545.5,209.5,550.5,198.5,552.5,196.5,553.5,204.5,548.5,213.0,552.0,226.5,559.5,232.0,563.0" stroke="black" stroke-width="2" fill="none" />
<polyline points="215.5,573.0,217.5,565.5,216.5,557.5,203.5,557.0,195.5,557.0" stroke="black" stroke-width="2" fill="none" />
<polyline points="189.5,572.5,183.5,567.5,175.0,566.0" stroke="black" stroke-width="2" fill="none" />
<polyline points="174.5,564.5,182.5,560.5,188.5,573.0" stroke="black" stroke-width="2" fill="none" />
<polyline points="187.5,577.5,179.5,573.5" stroke="black" stroke-width="2" fill="none" />
<polyline points="186.0,577.5,173.5,579.5" stroke="black" stroke-width="2" fill="none" />
<polyline points="164.5,597.0,173.5,593.0,178.0,601.0" stroke="black" stroke-width="2" fill="none" />
<polyline points="160.0,612.5,167.5,609.5,172.5,617.5,169.5,621.5,155.5,633.5,155.5,641.0,148.0,643.0,139.0,649.0,147.0,646.0,152.5,644.0,158.5,630.0,166.5,628.5,174.5,625.5,180.0,625.5" stroke="black" stroke-width="2" fill="none" />
<polyline points="168.0,630.0,175.0,637.0,170.5,645.0,170.5,644.0,178.0,639.0" stroke="black" stroke-width="2" fill="none" />
<polyline points="191.5,651.0,199.5,653.0" stroke="black" stroke-width="2" fill="none" />
<polyline points="198.5,662.5,191.0,672.5,189.0,676.5,181.0,678.0,173.5,680.0,165.0,677.0,158.0,679.5,158.0,680.0,152.0,673.0,147.0,670.0,159.0,664.0,163.0,656.5,168.5,658.5,170.5,650.5,163.5,640.5,170.5,631.5,180.5,623.0,174.5,620.0,166.5,623.0" stroke="black" stroke-width="2" fill="none" />
<polyline points="192.0,618.0,200.0,615.0,210.0,619.0" stroke="black" stroke-width="2" fill="none" />
<polyline points="203.5,605.0,211.5,603.5,219.5,603.5,228.5,604.0,237.0,606.0,245.0,602.0,247.0,599.5,257.0,594.5" stroke="black" stroke-width="2" fill="none" />
<polyline points="249.5,593.5,258.0,601.5,258.0,609.0,271.0,600.0" stroke="black" stroke-width="2" fill="none" />
<polyline points="270.5,576.0,263.0,576.0,255.5,569.0" stroke="black" stroke-width="2" fill="none" />
<polyline points="246.0,583.5,254.0,579.5,264.5,579.0,267.5,583.0" stroke="black" stroke-width="2" fill="none" />
<polyline points="236.5,587.5,238.5,595.5,240.5,604.0,247.5,602.0,244.5,610.0,240.0,615.0,252.0,611.0,260.5,617.5,267.5,627.5,274.5,621.5,278.5,613.0,284.5,618.0,292.5,612.0,294.5,612.0,302.5,604.0,304.5,611.0,312.5,597.5,325.0,596.5" stroke="black" stroke-width="2" fill="none" />
<polyline points="315.5,555.0,307.5,554.0" stroke="black" stroke-width="2" fill="none" />
<polyline points="329.0,538.0,337.5,543.0,342.5,532.0,350.5,532.5" stroke="black" stroke-width="2" fill="none" />
<polyline points="353.5,535.5,346.0,531.0,341.5,536.0,334.5,538.0,344.0,529.0,347.5,528.5" stroke="black" stroke-width="2" fill="none" />
<polyline points="353.0,524.0,361.0,524.0,369.0,524.0" stroke="black" stroke-width="2" fill="none" />
<polyline points="376.5,531.5,384.5,533.5" stroke="black" stroke-width="2" fill="none" />
<polyline points="358.0,548.5,358.0,540.5,362.0,530.0,363.0,515.0,365.5,513.0,357.5,510.0" stroke="black" stroke-width="2" fill="none" />
<polyline points="348.0,508.0,348.0,503.5,351.0,495.5,348.0,495.0,348.0,491.5" stroke="black" stroke-width="2" fill="none" />
<polyline points="346.5,485.0,354.5,487.0,364.5,488.5,372.5,491.5,381.0,487.5,388.5,482.5,397.0,484.0" stroke="black" stroke-width="2" fill="none" />
<polyline points="404.0,491.0,409.5,499.0,424.0,502.5" stroke="black" stroke-width="2" fill="none" />
<polyline points="436.5,505.5,428.0,499.5,420.0,500.5,412.0,503.0,404.0,496.5" stroke="black" stroke-width="2" fill="none" />
<polyline points="397.0,496.5,403.5,504.5,403.0,511.0,411.5,518.0,420.0,526.0,428.0,532.5,433.0,537.5,441.0,543.5,449.0,545.0,457.0,550.0,465.0,552.5,473.5,555.0,485.5,566.5,493.5,570.5,501.5,577.5" stroke="black" stroke-width="2" fill="none" />
<polyline points="441.0,491.5,433.0,485.5,425.5,484.5,417.5,480.0" stroke="black" stroke-width="2" fill="none" />
<polyline points="408.5,491.0,416.0,499.5" stroke="black" stroke-width="2" fill="none" />
<polyline points="398.0,473.0,390.0,471.0,382.0,470.0" stroke="black" stroke-width="2" fill="none" />
<polyline points="391.5,472.5,380.0,466.5,383.0,458.5,371.0,454.5" stroke="black" stroke-width="2" fill="none" />
<polyline points="370.5,464.0,362.5,460.0,354.5,465.5,346.5,467.5" stroke="black" stroke-width="2" fill="none" />
<polyline points="359.5,450.0,367.5,455.0,375.5,453.0,383.0,457.5,391.5,453.5,399.5,453.5,408.0,455.0,416.5,462.0" stroke="black" stroke-width="2" fill="none" />
<polyline points="403.0,456.0,402.0,464.0,400.0,467.0" stroke="black" stroke-width="2" fill="none" />
<polyline points="386.0,482.0,377.0,490.0,373.5,495.0,377.5,499.0,380.5,501.5,391.0,497.5,396.5,506.0" stroke="black" stroke-width="2" fill="none" />
<polyline points="370.0,495.5,361.5,496.0" stroke="black" stroke-width="2" fill="none" />
<polyline points="352.5,497.5,344.5,499.0" stroke="black" stroke-width="2" fill="none" />
<polyline points="344.0,497.0,346.0,505.5" stroke="black" stroke-width="2" fill="none" />
<polyline points="318.5,474.0,321.5,482.0,323.5,489.5,315.0,497.0,299.5,505.0" stroke="black" stroke-width="2" fill="none" />
<polyline points="291.0,502.0,289.0,494.0,301.5,481.0,315.5,472.5" stroke="black" stroke-width="2" fill="none" />
<polyline points="310.0,447.0,312.0,442.0,315.0,442.0" stroke="black" stroke-width="2" fill="none" />
<polyline points="321.0,441.0,314.0,447.0,324.5,444.0,325.0,437.0,320.0,435.0,312.0,437.5,304.0,442.5" stroke="black" stroke-width="2" fill="none" />
<polyline points="306.5,437.5,304.0,445.5,304.0,453.0,310.0,454.0,318.0,451.5" stroke="black" stroke-width="2" fill="none" />
<polyline points="347.0,426.5,355.0,428.5,362.0,426.5,364.5,435.0,372.5,434.0,380.5,436.0,388.5,440.0,396.5,431.5,397.5,430.0,394.5,439.5,402.5,439.5,411.5,435.5" stroke="black" stroke-width="2" fill="none" />
<polyline points="409.5,447.0,399.5,446.5,391.5,445.5,383.0,443.5,375.0,444.0,366.5,444.0,358.5,448.5" stroke="black" stroke-width="2" fill="none" />
<polyline points="364.0,458.0,361.0,447.5,372.0,443.5" stroke="black" stroke-width="2" fill="none" />
<polyline points="365.0,432.5,357.0,425.5,349.0,424.5" stroke="black" stroke-width="2" fill="none" />
<polyline points="356.0,411.5,364.0,409.5,372.0,407.0" stroke="black" stroke-width="2" fill="none" />
<polyline points="369.0,397.5,377.0,400.0,385.0,398.5" stroke="black" stroke-width="2" fill="none" />
<polyline points="370.5,401.0,369.5,393.0" stroke="black" stroke-width="2" fill="none" />
<polyline points="369.0,394.0,377.0,391.5,385.0,393.0,392.5,393.0,400.5,391.0,403.0,381.0,408.0,375.5,416.0,373.0" stroke="black" stroke-width="2" fill="none" />
<polyline points="416.0,370.5,414.0,378.5,415.5,376.5" stroke="black" stroke-width="2" fill="none" />
<polyline points="412.5,370.0,406.5,378.5,397.5,388.5,395.5,395.5,389.5,397.5" stroke="black" stroke-width="2" fill="none" />
<polyline points="406.5,396.5,398.5,400.5,410.5,393.5" stroke="black" stroke-width="2" fill="none" />
<polyline points="424.0,410.5,432.0,405.0,440.0,401.0,424.0,410.5,429.5,418.0,423.5,422.5,428.0,430.5,425.5,439.0,428.0,449.0,419.0,457.5,421.5,457.5,425.0,447.5,427.0,435.0" stroke="black" stroke-width="2" fill="none" />
<polyline points="424.0,423.5,432.0,420.5" stroke="black" stroke-width="2" fill="none" />
<polyline points="441.0,420.0,448.5,423.0,456.5,424.0" stroke="black" stroke-width="2" fill="none" />
<polyline points="466.5,433.5,459.5,441.5,470.5,443.0,469.5,451.5,460.0,456.5,447.0,463.5" stroke="black" stroke-width="2" fill="none" />
<polyline points="461.5,461.5,453.5,464.5,445.5,467.5,437.0,474.0,426.0,473.0,413.0,464.5,405.0,470.0,404.0,471.0,419.0,463.5,408.5,455.5,403.5,451.5,409.5,446.5,413.5,439.5,403.0,439.0,400.0,431.0" stroke="black" stroke-width="2" fill="none" />
<polyline points="393.5,428.0,387.5,435.0,392.5,427.0" stroke="black" stroke-width="2" fill="none" />
<polyline points="426.5,412.0,434.5,420.0,439.5,416.0,447.5,415.5,455.0,408.5,463.0,412.0,471.5,415.0" stroke="black" stroke-width="2" fill="none" />
<polyline points="472.0,427.5,476.0,435.5" stroke="black" stroke-width="2" fill="none" />
<polyline points="470.5,444.5,464.5,435.0,456.5,434.0,442.5,416.5,453.5,408.5" stroke="black" stroke-width="2" fill="none" />
<polyline points="439.0,362.0,431.5,355.5" stroke="black" stroke-width="2" fill="none" />
<polyline points="458.0,334.0,466.0,338.0,474.5,336.0" stroke="black" stroke-width="2" fill="none" />
<polyline points="475.0,343.5,483.0,341.0,481.5,349.0,485.5,358.0,491.0,360.0,492.0,356.0" stroke="black" stroke-width="2" fill="none" />
<polyline points="487.0,347.0,484.5,352.5,476.5,345.5" stroke="black" stroke-width="2" fill="none" />
<polyline points="474.5,334.0,466.5,331.0,458.5,332.0" stroke="black" stroke-width="2" fill="none" />
<polyline points="453.5,310.0,461.5,306.5" stroke="black" stroke-width="2" fill="none" />
<polyline points="487.5,238.5,496.0,239.5" stroke="black" stroke-width="2" fill="none" />
<polyline points="510.5,172.0,502.5,166.5,501.5,158.5,502.5,153.5,494.5,149.5" stroke="black" stroke-width="2" fill="none" />
<polyline points="495.0,149.0,493.0,152.0,497.0,160.5,508.0,157.5" stroke="black" stroke-width="2" fill="none" />
<polyline points="511.5,137.5,504.5,127.5,509.5,119.5,506.5,121.0" stroke="black" stroke-width="2" fill="none" />
<polyline points="467.0,176.5,459.5,176.5" stroke="black" stroke-width="2" fill="none" />
<polyline points="456.5,171.5,464.5,166.5,468.5,166.0,463.5,168.0,459.5,175.5,466.5,170.5" stroke="black" stroke-width="2" fill="none" />
<polyline points="438.5,183.0,446.5,194.0" stroke="black" stroke-width="2" fill="none" />
<polyline points="428.5,186.0,431.5,190.0,433.5,198.0,437.5,206.0,430.5,214.5,416.0,222.5,402.0,227.5,409.5,227.5,417.5,223.0,425.0,217.5,433.0,211.0" stroke="black" stroke-width="2" fill="none" />
<polyline points="402.5,220.5,403.0,228.5" stroke="black" stroke-width="2" fill="none" />
<polyline points="393.5,236.5,385.5,233.0,377.5,230.0" stroke="black" stroke-width="2" fill="none" />
<polyline points="382.5,229.5,379.5,232.5,378.5,240.5,375.0,244.5" stroke="black" stroke-width="2" fill="none" />
<polyline points="297.5,244.5,289.5,237.5" stroke="black" stroke-width="2" fill="none" />
<polyline points="292.0,237.5,299.5,245.0,300.0,253.0" stroke="black" stroke-width="2" fill="none" />
<polyline points="286.0,261.5,274.5,253.5" stroke="black" stroke-width="2" fill="none" />
<polyline points="275.0,254.5,282.0,262.0,282.0,270.0,287.5,262.0" stroke="black" stroke-width="2" fill="none" />
<polyline points="279.0,252.0,271.0,252.0" stroke="black" stroke-width="2" fill="none" />
<polyline points="252.0,321.0,244.0,321.0" stroke="black" stroke-width="2" fill="none" />
<polyline points="241.0,319.5,250.0,322.5,254.5,326.5" stroke="black" stroke-width="2" fill="none" />
<polyline points="227.5,315.0,208.0,323.0,203.0,331.0,210.5,339.0" stroke="black" stroke-width="2" fill="none" />
<polyline points="200.5,338.5,200.5,346.5,197.0,357.5,200.0,365.5,200.0,373.5,200.5,381.5,201.0,389.5,202.0,397.5,202.0,405.5,202.5,413.0,202.5,421.0,203.5,429.0,203.0,437.5,203.0,445.5,198.5,453.5,191.0,458.5" stroke="black" stroke-width="2" fill="none" />
<polyline points="198.0,449.0,189.0,452.5,181.0,452.5,173.5,450.5,165.5,445.0" stroke="black" stroke-width="2" fill="none" />
<polyline points="161.0,447.5,170.0,455.5" stroke="black" stroke-width="2" fill="none" />
<polyline points="159.0,449.0,167.0,455.0,175.5,458.5,183.5,460.0,191.5,459.5,195.5,462.5,194.5,470.5" stroke="black" stroke-width="2" fill="none" />
<polyline points="203.0,471.0,195.0,468.5,187.0,471.5,178.5,472.0,170.0,471.5,162.0,469.5" stroke="black" stroke-width="2" fill="none" />
<polyline points="202.5,480.0,204.0,488.0,207.0,495.0,204.0,503.0,195.0,511.0,195.0,520.0,189.0,528.0,184.0,536.5,176.0,544.5,174.5,554.0,171.5,562.0,169.5,569.5,169.5,577.5,170.5,585.5,163.0,593.5,171.0,584.5,177.0,581.5,182.0,585.5,183.5,594.0" stroke="black" stroke-width="2" fill="none" />
<polyline points="179.5,611.0,171.5,611.0,163.0,606.5,155.0,606.5,147.0,606.0,139.0,606.0,131.0,605.0,123.0,604.0,114.5,602.5,110.5,618.5,102.5,629.0,93.5,649.5,90.5,654.0,96.0,646.0,101.0,635.0,105.0,627.5,112.0,619.5,114.5,610.5,106.5,618.5,98.5,626.0,90.5,634.5,82.0,644.5,74.5,651.5,66.5,661.5,58.5,671.5,50.5,679.5,47.5,681.5" stroke="black" stroke-width="2" fill="none" />
<polyline points="42.5,687.5,56.0,688.5,50.5,696.0,43.5,704.0,37.5,717.5,29.0,726.5,21.0,734.5,24.0,735.5,31.5,731.5,42.5,721.5" stroke="black" stroke-width="2" fill="none" />
<polyline points="38.5,720.0,46.5,715.0,40.5,725.5,26.0,734.5,23.0,732.5" stroke="black" stroke-width="2" fill="none" />
<polyline points="22.5,717.5,30.5,712.5,29.5,719.0,22.0,724.0,21.0,729.5,13.0,738.0,14.0,732.0,26.0,726.5,37.0,718.5,45.0,711.0" stroke="black" stroke-width="2" fill="none" />
<polyline points="49.0,691.0,58.0,676.0" stroke="black" stroke-width="2" fill="none" />
<polyline points="65.0,681.5,66.5,680.5,68.5,675.5,60.5,680.5,52.5,693.5,42.0,700.0,33.5,705.5,25.0,714.0,16.5,722.0,8.0,734.0,6.0,736.5,13.0,728.5,19.0,720.5,29.5,713.0,28.5,709.0,38.0,708.0,40.0,708.0,46.0,700.0,48.5,692.0,52.5,684.0,46.5,680.5,57.0,673.0,63.0,664.5,71.5,656.0,78.5,648.0,85.5,640.0,92.5,632.0,99.5,624.0,107.5,616.5,115.5,608.5,120.5,606.0,115.5,607.0" stroke="black" stroke-width="2" fill="none" />
<polyline points="113.5,591.5,121.5,587.5" stroke="black" stroke-width="2" fill="none" />
<polyline points="136.5,584.5,133.5,576.5,133.5,576.0" stroke="black" stroke-width="2" fill="none" />
<polyline points="147.0,586.5,147.0,594.5" stroke="black" stroke-width="2" fill="none" />
<polyline points="152.0,595.5,151.0,587.5" stroke="black" stroke-width="2" fill="none" />
<polyline points="156.0,564.5,164.0,563.5,176.5,554.0" stroke="black" stroke-width="2" fill="none" />
<polyline points="175.5,558.0,175.5,565.5,178.5,571.5,174.5,579.5,178.0,587.5,188.0,591.5" stroke="black" stroke-width="2" fill="none" />
<polyline points="232.5,587.0,231.5,594.5,228.5,602.0,235.0,603.0,234.0,616.5,237.5,629.0" stroke="black" stroke-width="2" fill="none" />
<polyline points="198.5,645.5,190.5,646.0,172.5,650.0,174.5,649.0,178.5,641.5,164.5,637.5,162.5,632.0,151.5,637.0,143.5,637.0,135.5,639.0,134.5,638.0,132.5,641.0,128.5,638.5,128.5,635.5" stroke="black" stroke-width="2" fill="none" />
<polyline points="131.5,651.0,124.5,658.0,117.0,662.0,113.5,665.0,109.5,672.5,102.0,683.5,104.0,679.5,108.5,672.0,116.0,663.0,112.5,659.0,119.0,651.0,121.0,645.0,113.0,657.0" stroke="black" stroke-width="2" fill="none" />
<polyline points="103.0,655.5,101.0,663.5" stroke="black" stroke-width="2" fill="none" />
<polyline points="101.0,654.5,93.0,665.0,91.5,670.0,95.0,662.0,101.0,654.0" stroke="black" stroke-width="2" fill="none" />
<polyline points="80.0,670.0,72.5,672.5,69.5,669.0,75.0,664.0,77.0,656.0,83.5,648.5,85.5,635.0,78.5,640.0" stroke="black" stroke-width="2" fill="none" />
<polyline points="67.5,640.0,69.5,647.5,67.5,639.5" stroke="black" stroke-width="2" fill="none" />
<polyline points="73.5,616.5,71.5,606.5,63.5,603.0,55.5,608.5" stroke="black" stroke-width="2" fill="none" />
<polyline points="57.5,609.0,65.5,608.0" stroke="black" stroke-width="2" fill="none" />
<polyline points="65.5,601.0,71.5,609.0,78.5,609.0" stroke="black" stroke-width="2" fill="none" />
<polyline points="90.0,601.0,97.0,596.0,90.0,604.5,88.0,612.5,92.0,608.0,97.0,601.0,99.0,605.5,94.0,614.0,95.5,612.5" stroke="black" stroke-width="2" fill="none" />
<polyline points="99.0,588.5,102.5,581.5,95.0,591.0,87.0,586.0,79.0,583.0" stroke="black" stroke-width="2" fill="none" />
<polyline points="81.5,576.5,82.5,584.5,88.5,587.5" stroke="black" stroke-width="2" fill="none" />
<polyline points="74.5,574.0,66.0,571.0" stroke="black" stroke-width="2" fill="none" />
<polyline points="71.0,565.0,62.0,573.0,59.0,579.0,64.5,580.5,72.5,575.0,80.5,577.0,88.5,581.5" stroke="black" stroke-width="2" fill="none" />
<polyline points="80.5,563.5,72.5,565.0,64.5,570.0,56.0,577.0" stroke="black" stroke-width="2" fill="none" />
<polyline points="27.0,618.5,19.0,622.5,12.5,625.5,25.5,622.5,20.5,626.5,12.5,627.5" stroke="black" stroke-width="2" fill="none" />
<polyline points="45.5,653.0,53.0,654.0" stroke="black" stroke-width="2" fill="none" />
<polyline points="33.5,686.5,25.0,686.5" stroke="black" stroke-width="2" fill="none" />
<polyline points="65.5,710.5,69.0,708.5,71.5,713.5,66.5,721.5,66.5,721.5" stroke="black" stroke-width="2" fill="none" />
<polyline points="81.5,718.5,79.5,731.0,82.5,723.0,83.5,715.5,84.0,707.5" stroke="black" stroke-width="2" fill="none" />
<polyline points="93.0,717.5,95.0,725.5,91.5,734.0,90.5,736.0,98.5,725.5,103.5,725.5,108.5,732.5" stroke="black" stroke-width="2" fill="none" />
<polyline points="111.5,722.5,119.5,717.5,123.0,731.0" stroke="black" stroke-width="2" fill="none" />
<polyline points="121.5,736.0,125.0,731.5,121.0,734.5,113.5,730.0,113.5,718.0,109.5,708.5,111.0,697.5,115.0,689.5,120.0,683.5,127.0,675.5,127.5,675.5,119.5,685.5" stroke="black" stroke-width="2" fill="none" />
<polyline points="119.5,692.5,127.5,691.0" stroke="black" stroke-width="2" fill="none" />
<polyline points="121.5,697.0,131.5,697.0,135.5,706.5" stroke="black" stroke-width="2" fill="none" />
<polyline points="129.5,706.5,138.0,709.5,149.0,715.5,157.0,714.5" stroke="black" stroke-width="2" fill="none" />
<polyline points="150.5,711.0,150.5,707.0,158.5,707.0,168.5,714.0,159.5,710.0,154.5,718.0,159.0,717.5,167.0,714.5,175.5,704.5,181.5,710.5" stroke="black" stroke-width="2" fill="none" />
<polyline points="186.0,700.0,194.5,697.5,200.5,702.0,204.5,710.0,207.0,711.0" stroke="black" stroke-width="2" fill="none" />
<polyline points="185.5,715.0,174.0,707.5,175.0,700.5,167.0,696.0" stroke="black" stroke-width="2" fill="none" />
<polyline points="171.0,684.5,166.5,677.5,158.5,666.5" stroke="black" stroke-width="2" fill="none" />
<polyline points="164.0,665.5,172.0,665.5,180.0,667.5,188.5,668.5,196.5,668.0,205.0,669.5,212.5,671.5,218.0,668.0,223.0,673.5,228.5,675.5,234.5,681.5,225.0,687.5,214.5,700.0,216.0,699.0,223.5,694.0" stroke="black" stroke-width="2" fill="none" />
<polyline points="226.0,713.0,222.0,711.0,230.0,701.0,225.0,691.0,212.5,678.5,209.5,670.5" stroke="black" stroke-width="2" fill="none" />
<polyline points="175.5,672.5,167.5,669.0" stroke="black" stroke-width="2" fill="none" />
<polyline points="146.0,689.5,154.0,691.5,159.0,701.0" stroke="black" stroke-width="2" fill="none" />
<polyline points="163.5,685.0,156.0,686.0,150.0,681.0,148.0,678.0,142.5,683.5,134.5,684.0,125.5,688.5,117.5,693.5,110.0,700.5" stroke="black" stroke-width="2" fill="none" />
<polyline points="107.5,691.0,117.0,695.0,112.5,702.5,103.5,710.5,100.5,720.5,104.0,729.0,112.5,737.0,114.0,737.0" stroke="black" stroke-width="2" fill="none" />
<polyline points="105.0,714.0,113.0,712.0,116.5,705.5,124.5,704.5,132.0,702.5,139.5,705.5,144.5,702.5,152.5,702.5,153.5,698.0,161.0,699.0,162.0,704.0,163.0,714.5" stroke="black" stroke-width="2" fill="none" />
<polyline points="175.0,728.5,181.0,736.5,183.0,736.5" stroke="black" stroke-width="2" fill="none" />
<polyline points="187.0,673.5,179.0,676.5,171.5,676.0,163.5,674.5,155.5,673.5,154.5,667.5,151.0,676.5,137.5,678.5,129.5,677.0" stroke="black" stroke-width="2" fill="none" />
<polyline points="128.0,677.0,136.0,675.0,144.0,676.0,150.0,683.0,146.0,687.5,142.0,695.5,144.0,703.5,144.0,711.0,147.0,713.0,159.5,721.0,157.0,729.0,162.0,737.0,159.0,739.0,160.5,731.0,158.5,721.0,171.5,727.5,176.5,731.5" stroke="black" stroke-width="2" fill="none" />
<polyline points="127.5,700.0,119.5,701.5,114.5,703.5,106.5,708.5,101.5,719.5,93.5,719.0" stroke="black" stroke-width="2" fill="none" />
<polyline points="149.5,555.5,142.5,561.5,149.0,553.5" stroke="black" stroke-width="2" fill="none" />
<polyline points="147.5,554.0,140.5,561.0,148.5,555.0,155.5,559.5" stroke="black" stroke-width="2" fill="none" />
<polyline points="155.5,542.5,147.5,544.0" stroke="black" stroke-width="2" fill="none" />
<polyline points="182.0,541.0,189.5,536.0,197.5,533.0,206.0,539.0,214.5,539.0,218.5,535.0,220.5,540.0,226.5,533.0" stroke="black" stroke-width="2" fill="none" />
<polyline points="271.5,531.5,272.5,539.5,275.0,541.5,276.0,550.0,279.5,551.0,282.0,554.0,284.0,558.5,293.0,562.5,305.5,567.5,311.5,572.5,308.5,581.5,314.5,583.5,325.5,588.0,319.0,596.0,316.0,604.0,310.0,611.5,314.0,615.5,310.0,621.0,320.0,625.0,308.0,631.0,311.0,633.5,319.0,628.0,318.0,636.5,328.0,642.0" stroke="black" stroke-width="2" fill="none" />
<polyline points="290.0,467.5,285.0,477.5,276.0,482.5,267.5,481.0,263.0,475.0,255.0,474.5,257.0,476.5,256.0,467.5,252.0,459.5,250.0,451.5,251.0,443.5,252.5,436.0,241.5,424.5,237.0,416.5,235.0,408.5,230.0,396.0,237.0,383.0,232.5,380.0,224.5,378.0" stroke="black" stroke-width="2" fill="none" />
<polyline points="218.5,381.5,226.0,377.5,227.5,385.0" stroke="black" stroke-width="2" fill="none" />
<polyline points="226.5,385.0,218.5,385.0" stroke="black" stroke-width="2" fill="none" />
<polyline points="215.0,381.0,223.0,375.0,231.0,372.0,239.0,371.0,247.0,368.5,255.0,367.5,263.0,367.0,271.5,367.0,280.0,367.0,288.5,367.0,296.5,368.0,304.5,369.0,311.5,371.0,319.0,374.0,327.0,379.5" stroke="black" stroke-width="2" fill="none" />
<polyline points="318.5,388.0,313.5,389.0,317.0,381.5,309.0,389.5,312.0,384.0,319.0,380.0,318.0,394.0,323.0,394.0,328.0,386.0,322.5,377.5,313.0,376.5,305.5,391.5,297.5,389.5,290.0,387.5,282.5,386.0,274.0,385.0,264.0,381.0,262.5,376.5,266.0,368.5,263.0,369.0" stroke="black" stroke-width="2" fill="none" />
<polyline points="266.0,374.5,266.0,374.0,268.5,375.0,270.5,380.0" stroke="black" stroke-width="2" fill="none" />
<polyline points="274.0,378.5,274.0,370.5,282.0,369.5,274.0,369.5" stroke="black" stroke-width="2" fill="none" />
<polyline points="290.5,375.5,298.5,371.5,290.0,378.5,290.5,380.0,293.5,380.0,305.0,373.5,309.0,377.5,305.0,386.0" stroke="black" stroke-width="2" fill="none" />
<polyline points="305.0,394.0,321.0,401.5" stroke="black" stroke-width="2" fill="none" />
<polyline points="322.0,408.5,314.5,417.0,306.5,426.0,302.0,422.0,298.0,420.0,297.0,412.0,306.0,404.0,299.0,404.0,291.0,404.5,283.0,405.5,275.0,398.5,267.0,397.0,259.0,405.0,251.0,405.5,243.0,405.0,235.0,404.0" stroke="black" stroke-width="2" fill="none" />
<polyline points="236.0,405.5,235.0,403.0,244.0,410.5,241.5,418.5,245.5,420.5,242.5,418.5,253.5,411.0" stroke="black" stroke-width="2" fill="none" />
<polyline points="246.0,414.5,238.0,409.5,230.0,407.5,222.0,404.5" stroke="black" stroke-width="2" fill="none" />
<polyline points="222.5,407.0,230.5,416.5,238.5,425.5,244.0,428.5,251.0,433.0,257.0,435.0,266.5,440.0,270.0,440.0,273.0,442.0" stroke="black" stroke-width="2" fill="none" />
<polyline points="276.5,456.0,268.5,456.0" stroke="black" stroke-width="2" fill="none" />
<polyline points="242.0,447.0,241.5,439.0,232.0,431.0" stroke="black" stroke-width="2" fill="none" />
<polyline points="232.0,434.0,223.5,440.5" stroke="black" stroke-width="2" fill="none" />
<polyline points="222.5,443.0,230.0,453.5,238.0,452.5" stroke="black" stroke-width="2" fill="none" />
<polyline points="237.5,443.0,233.5,435.0" stroke="black" stroke-width="2" fill="none" />
<polyline points="231.0,434.0,225.0,442.0,229.5,430.0,237.5,434.0" stroke="black" stroke-width="2" fill="none" />
<polyline points="226.0,429.5,221.0,437.5,222.0,445.0,229.5,453.0" stroke="black" stroke-width="2" fill="none" />
<polyline points="226.5,470.5,223.5,479.0,221.5,487.0,228.5,495.0,241.5,502.5,251.5,497.5,252.5,503.5,260.5,505.5,268.5,503.5,274.5,506.5,280.5,506.5,288.5,505.5,296.5,503.5,304.5,499.5,313.0,495.5,320.5,490.0" stroke="black" stroke-width="2" fill="none" />
<polyline points="287.5,431.5,292.5,423.0,285.0,412.5,277.0,402.5,269.0,398.5" stroke="black" stroke-width="2" fill="none" />
<polyline points="269.5,395.5,261.5,404.0,256.5,408.0,249.0,417.5,251.0,425.5,258.5,425.5,255.5,433.0,258.0,425.0,259.0,428.0,268.0,433.0,272.0,436.0,274.0,430.0,283.5,432.0,285.5,424.5,292.5,416.0,301.0,413.0,309.0,409.0,317.5,407.0" stroke="black" stroke-width="2" fill="none" />
<polyline points="321.5,391.0,326.0,383.0,325.0,374.0,317.0,370.0,309.0,368.0,301.5,365.5,293.0,363.5,285.0,363.5,277.5,364.0,270.0,364.5,262.0,364.5,253.5,364.5,246.0,366.5,238.0,367.5,230.0,369.5,222.0,372.5,214.0,378.5" stroke="black" stroke-width="2" fill="none" />
<polyline points="233.0,376.5,241.5,385.5" stroke="black" stroke-width="2" fill="none" />
<polyline points="253.0,384.0,248.0,380.5,255.0,382.0,250.0,374.0,245.5,374.0,238.5,373.0" stroke="black" stroke-width="2" fill="none" />
<polyline points="233.0,373.0,237.0,375.0,230.0,377.0,230.5,384.5,220.5,382.0,226.5,389.0,223.0,397.0,231.0,392.0,239.5,388.5,248.0,387.5,256.0,386.5,264.0,385.5,272.0,384.5,280.0,376.5,280.0,374.0,278.0,380.0" stroke="black" stroke-width="2" fill="none" />
<polyline points="298.5,375.5,300.5,376.0,296.0,384.0,307.5,384.0,301.5,376.5,298.5,385.0,313.0,395.0" stroke="black" stroke-width="2" fill="none" />
<polyline points="324.0,389.5,315.5,395.0,319.5,389.0,311.0,385.0,314.0,377.0" stroke="black" stroke-width="2" fill="none" />
<polyline points="351.5,409.0,359.5,405.0,367.5,405.0" stroke="black" stroke-width="2" fill="none" />
<polyline points="386.5,359.5,394.5,358.5" stroke="black" stroke-width="2" fill="none" />
<polyline points="393.5,356.0,386.0,358.5" stroke="black" stroke-width="2" fill="none" />
<polyline points="367.5,353.0,362.5,359.0,364.5,351.0" stroke="black" stroke-width="2" fill="none" />
<polyline points="353.0,339.5,361.0,334.5,368.5,333.5" stroke="black" stroke-width="2" fill="none" />
<polyline points="355.0,335.0,351.0,336.0,351.0,344.0,350.0,352.0,350.0,360.0,350.5,368.5,350.5,376.0,350.5,384.0,349.0,392.0,349.0,400.0,349.0,408.0,348.0,416.0,348.5,424.0,355.5,430.0,348.0,438.5,348.0,446.5,347.5,454.0,346.5,461.5,346.0,470.5,346.0,479.0,346.0,487.0,342.5,495.0,336.0,502.5,323.0,510.5,322.5,517.0,330.5,514.0,332.5,518.0,332.5,520.5,333.5,517.5,334.5,525.5" stroke="black" stroke-width="2" fill="none" />
<polyline points="316.5,472.0,308.5,477.0,300.5,481.0,292.5,484.0,285.0,486.0,277.5,487.0,269.5,487.0,262.0,485.5,254.0,484.0,245.5,481.0,237.5,477.0,229.5,471.0,221.5,482.0" stroke="black" stroke-width="2" fill="none" />
<polyline points="227.5,474.5,225.0,482.5,226.5,490.5,237.5,498.5" stroke="black" stroke-width="2" fill="none" />
<polyline points="239.0,484.5,234.5,493.0,235.0,484.0" stroke="black" stroke-width="2" fill="none" />
<polyline points="235.0,481.5,230.5,490.0,230.5,492.0,238.5,486.5,250.5,488.5" stroke="black" stroke-width="2" fill="none" />
<polyline points="229.0,473.0,241.5,480.5,249.5,491.5,251.5,499.0,262.0,500.5,274.0,504.0,282.5,501.5,293.0,500.0,297.0,497.0,308.5,494.5,313.5,491.5" stroke="black" stroke-width="2" fill="none" />
<polyline points="284.5,469.5,282.0,466.0,287.0,464.0,287.0,456.0,286.5,448.0,287.0,439.5,279.5,444.0,273.5,461.0,272.5,467.0,272.5,462.0,270.5,454.0,272.0,446.0,269.0,444.0,273.0,434.5,276.0,426.5,274.0,427.0" stroke="black" stroke-width="2" fill="none" />
<polyline points="265.5,423.0,267.5,411.5,268.5,403.5" stroke="black" stroke-width="2" fill="none" />
<polyline points="250.0,372.5,247.0,370.5,246.0,374.5" stroke="black" stroke-width="2" fill="none" />
<polyline points="244.5,374.0,246.5,382.5,235.0,385.5,229.0,394.5" stroke="black" stroke-width="2" fill="none" />
<polyline points="234.0,369.0,217.0,377.0,219.5,379.0,218.5,387.5,222.0,392.0,219.5,395.0,227.0,398.0,235.0,394.0,243.0,391.5,250.5,389.5,258.5,388.5,266.5,387.5,274.5,388.0,282.5,389.0,290.0,390.5,298.0,391.5,306.0,394.5,314.0,397.0,322.0,400.0,322.5,393.0,324.5,382.5" stroke="black" stroke-width="2" fill="none" />
<polyline points="348.0,327.0,341.0,336.0,333.0,340.5,325.0,342.5,340.5,338.5,350.0,331.0,347.0,329.0,342.5,321.0,326.0,313.0" stroke="black" stroke-width="2" fill="none" />
<polyline points="230.5,366.5,215.0,374.5,214.0,383.0,218.0,391.5,221.5,399.5,223.5,411.0,230.5,419.0,238.5,427.5,250.5,427.5,257.5,428.0,258.0,436.0,263.0,444.0,260.5,452.5,260.5,460.5,260.5,469.0,268.0,475.0,273.5,479.5,273.0,467.5" stroke="black" stroke-width="2" fill="none" />
<polyline points="204.0,472.5,196.0,471.0,205.5,464.0,203.5,456.0,203.0,447.5" stroke="black" stroke-width="2" fill="none" />
<polyline points="206.5,340.0,199.5,337.0,197.5,332.0,201.0,324.0,214.0,316.0" stroke="black" stroke-width="2" fill="none" />
<polyline points="432.5,162.0,440.0,153.0,439.0,154.0,432.0,161.5,433.0,169.5,435.5,177.5,438.5,185.0,440.5,193.0,441.5,194.5,449.5,199.5,458.0,200.5,465.5,198.5,473.5,196.5,481.5,196.5,489.5,196.5,498.0,195.5,504.0,195.5,512.0,195.5" stroke="black" stroke-width="2" fill="none" />
<polyline points="436.5,121.5,432.5,127.5,437.5,119.5,438.5,112.0,428.0,116.0" stroke="black" stroke-width="2" fill="none" />
<polyline points="431.5,114.0,428.5,122.0" stroke="black" stroke-width="2" fill="none" />
<polyline points="421.0,122.5,422.0,130.5,424.0,138.5,424.0,146.5,421.0,154.5,407.0,162.0,405.0,166.0,413.5,159.5,421.5,153.5" stroke="black" stroke-width="2" fill="none" />
<polyline points="429.0,3.0,437.0,5.0,445.0,4.0,453.0,5.0,461.5,6.5,469.5,9.5,477.5,11.5,485.0,14.5,493.0,15.5,501.0,15.5,508.5,13.5" stroke="black" stroke-width="2" fill="none" />
<polyline points="496.0,7.0,488.0,9.0,480.0,9.0,472.5,7.0,464.5,3.0" stroke="black" stroke-width="2" fill="none" />
</svg>