<svg xmlns="http://www.w3.org/2000/svg" version="1.1"><polyline points="72.5,2.5,72.5,10.0,77.5,12.0,86.5,11.5,94.5,12.5,101.0,16.0,105.0,24.0,113.0,26.0,120.5,24.0,129.5,27.0,137.5,26.0,141.5,30.0" stroke="black" stroke-width="2" fill="none" />
<polyline points="143.0,15.0,135.0,15.0" stroke="black" stroke-width="2" fill="none" />
<polyline points="141.5,19.0,147.5,11.0,140.5,3.0" stroke="black" stroke-width="2" fill="none" />
<polyline points="137.5,2.0,135.5,10.5,137.5,18.5,142.0,25.5,134.5,30.5" stroke="black" stroke-width="2" fill="none" />
<polyline points="168.5,4.5,171.5,8.5,176.5,16.0,171.5,23.5,170.5,31.0,179.5,28.0,184.0,29.0,181.5,37.0,187.5,45.0,179.5,53.5,180.5,61.5,188.5,61.5,195.5,59.0,187.0,62.0,194.0,69.5,196.0,78.0,200.0,86.0,199.0,94.0,202.0,102.0,207.5,109.5,206.5,118.0,216.5,126.0,206.5,133.5,207.5,141.5,212.5,143.5,220.0,133.0,225.0,137.5,233.5,135.5,241.5,135.0,249.5,135.0,257.5,137.0,263.0,143.5,273.0,150.5,282.5,157.0,290.5,160.0,298.5,164.0" stroke="black" stroke-width="2" fill="none" />
<polyline points="284.5,175.5,293.5,183.5" stroke="black" stroke-width="2" fill="none" />
<polyline points="306.0,199.0,314.0,206.0,322.0,210.0,330.0,217.0,350.5,226.5" stroke="black" stroke-width="2" fill="none" />
<polyline points="349.0,225.0,341.0,220.5,333.5,224.5" stroke="black" stroke-width="2" fill="none" />
<polyline points="334.0,247.5,342.0,254.5,350.0,254.5,358.0,253.0,365.5,247.0,373.5,236.5,381.5,220.5" stroke="black" stroke-width="2" fill="none" />
<polyline points="385.5,218.5,381.5,226.5,373.5,240.0,378.0,241.0,382.0,233.5,391.0,231.5,395.5,218.5,393.5,218.0,394.5,210.0,398.5,202.5,390.5,204.0" stroke="black" stroke-width="2" fill="none" />
<polyline points="399.0,203.5,398.0,211.5" stroke="black" stroke-width="2" fill="none" />
<polyline points="411.0,210.5,419.0,212.5" stroke="black" stroke-width="2" fill="none" />
<polyline points="421.0,217.0,417.0,217.0,409.5,209.0,417.0,201.0,404.0,197.0,405.5,193.0,392.5,188.5" stroke="black" stroke-width="2" fill="none" />
<polyline points="382.5,179.5,391.5,191.0,391.5,199.0,391.5,207.0,389.0,214.5,384.0,222.0,385.5,225.0,379.5,231.5,375.5,239.5,373.0,246.0,376.5,253.0,368.5,261.5,374.5,268.5,379.5,270.5,398.0,278.5,403.5,282.5,411.5,282.5,413.5,288.0,421.5,286.0,424.5,283.0" stroke="black" stroke-width="2" fill="none" />
<polyline points="417.0,288.5,411.0,282.5,411.0,274.0" stroke="black" stroke-width="2" fill="none" />
<polyline points="397.5,277.5,389.5,273.0,381.5,270.5,371.0,268.5" stroke="black" stroke-width="2" fill="none" />
<polyline points="373.5,257.5,367.0,269.5,359.5,267.5,351.5,264.5,343.5,261.5" stroke="black" stroke-width="2" fill="none" />
<polyline points="339.0,258.0,346.5,259.0,352.0,262.0,360.0,263.0,368.0,258.0,368.5,250.0,375.5,254.0,378.5,250.5" stroke="black" stroke-width="2" fill="none" />
<polyline points="375.5,245.0,383.5,232.0" stroke="black" stroke-width="2" fill="none" />
<polyline points="369.0,248.5,366.5,256.5,365.5,265.0,373.5,268.0,373.5,265.0,381.0,264.0,381.0,262.5,388.5,267.0,396.5,270.0,404.5,273.0,412.5,279.0" stroke="black" stroke-width="2" fill="none" />
<polyline points="431.0,309.5,439.0,309.5,443.5,309.0,458.0,315.0,463.5,325.0,472.5,333.5,489.0,341.0" stroke="black" stroke-width="2" fill="none" />
<polyline points="477.0,327.5,469.0,325.5,461.5,322.5" stroke="black" stroke-width="2" fill="none" />
<polyline points="459.5,329.5,456.5,337.5,459.0,329.0,471.5,332.0,479.5,337.0,487.5,339.5" stroke="black" stroke-width="2" fill="none" />
<polyline points="462.5,304.5,470.5,295.5,478.5,295.5" stroke="black" stroke-width="2" fill="none" />
<polyline points="478.5,285.0,470.5,277.0" stroke="black" stroke-width="2" fill="none" />
<polyline points="473.0,276.5,476.0,284.5,479.5,295.0,482.5,303.5,477.0,311.0" stroke="black" stroke-width="2" fill="none" />
<polyline points="475.0,290.5,467.0,284.5" stroke="black" stroke-width="2" fill="none" />
<polyline points="467.5,278.0,475.0,276.0,483.0,273.5,491.0,256.5,499.5,260.5,509.0,265.5" stroke="black" stroke-width="2" fill="none" />
<polyline points="501.0,255.0,498.0,250.5,487.5,245.5,479.5,242.5" stroke="black" stroke-width="2" fill="none" />
<polyline points="476.5,239.5,482.0,234.5,482.0,226.5,469.5,222.5,461.0,219.5" stroke="black" stroke-width="2" fill="none" />
<polyline points="464.5,224.0,462.5,231.5,472.5,239.5,470.5,247.5,467.5,255.0" stroke="black" stroke-width="2" fill="none" />
<polyline points="482.5,252.5,489.5,260.0,486.5,268.0,482.5,276.0" stroke="black" stroke-width="2" fill="none" />
<polyline points="497.5,245.5,489.0,256.0,481.0,252.5,478.0,245.5,475.0,248.5,466.0,239.5,462.0,239.5" stroke="black" stroke-width="2" fill="none" />
<polyline points="466.0,211.0,458.0,207.0,450.0,204.0,441.5,201.0" stroke="black" stroke-width="2" fill="none" />
<polyline points="438.0,206.5,446.0,211.5,456.0,214.0,461.0,222.5,460.0,230.5,454.5,233.5,463.5,236.5,471.5,237.0,479.5,223.5,481.5,229.5,479.5,228.0,474.5,230.5,478.5,241.5,492.5,248.5,498.0,255.0,499.0,261.5,495.0,271.5,490.0,279.0,492.5,280.0,492.0,274.5,498.0,268.0,506.0,259.0,509.0,260.5" stroke="black" stroke-width="2" fill="none" />
<polyline points="504.5,224.5,496.5,212.5" stroke="black" stroke-width="2" fill="none" />
<polyline points="495.5,218.5,487.5,207.0" stroke="black" stroke-width="2" fill="none" />
<polyline points="486.0,206.5,494.5,215.0,500.0,225.0,500.0,233.0,505.5,240.0,506.5,248.0,504.0,256.0,511.5,257.5,511.5,264.5,512.5,267.5" stroke="black" stroke-width="2" fill="none" />
<polyline points="511.5,238.5,512.0,247.5,509.0,243.5,508.5,237.5,503.5,226.5,498.0,218.0,496.0,209.5,495.0,198.0,487.0,195.0,479.0,193.0,470.5,192.5,462.5,191.5,454.5,192.5,446.0,197.5,438.0,198.5,430.5,195.5,422.5,192.0,415.0,188.0,407.0,185.0,399.0,181.0,390.5,177.0,382.0,172.5,374.0,165.5,365.5,150.5,357.5,135.5,349.5,121.0,342.0,106.0,334.0,97.5,326.0,95.5,318.5,97.5,310.5,100.0,302.5,101.0,294.5,101.5,286.5,101.0,278.5,102.0,271.0,102.5,263.5,103.5,256.0,105.0,248.5,104.5,240.5,106.0,232.0,107.0,224.0,110.0,216.5,111.0,208.5,117.0" stroke="black" stroke-width="2" fill="none" />
<polyline points="211.0,118.0,219.0,117.0,224.0,119.0,228.0,127.0,219.5,135.0,217.5,143.0,214.0,150.5,210.0,158.5,211.0,167.5,211.0,175.0,213.0,183.0,215.0,186.0,224.0,195.5,231.0,198.5,238.5,202.0,246.5,202.0,254.0,199.5,262.0,194.0,264.5,184.0,269.5,179.0,283.5,175.0,291.5,182.0,299.5,185.0" stroke="black" stroke-width="2" fill="none" />
<polyline points="306.5,201.0,315.5,209.0,327.5,216.5,336.0,220.0,332.5,228.0,332.0,236.0,332.0,241.5,333.5,249.5,337.5,258.5,357.0,266.5,368.5,275.0,377.5,283.0,391.0,291.0,404.0,298.5,415.0,306.5" stroke="black" stroke-width="2" fill="none" />
<polyline points="431.0,312.5,438.5,314.5,446.5,316.5,454.5,319.0,462.0,319.0,470.0,315.5,478.0,308.5" stroke="black" stroke-width="2" fill="none" />
<polyline points="455.0,316.0,447.0,313.0" stroke="black" stroke-width="2" fill="none" />
<polyline points="457.0,206.5,437.0,203.5,424.0,198.0,416.0,194.0" stroke="black" stroke-width="2" fill="none" />
<polyline points="416.5,194.0,435.0,206.0,451.0,214.0,453.5,222.0,452.5,230.5,463.5,237.5,475.5,241.5,478.5,249.5,477.5,258.0,473.5,266.0,471.5,274.0,476.5,282.0,474.0,293.5,467.0,301.5,474.0,306.0" stroke="black" stroke-width="2" fill="none" />
<polyline points="464.5,213.5,456.5,213.5,443.5,207.0,435.5,207.0,427.5,202.5,420.0,202.0,412.0,197.0,404.0,192.0,397.0,194.0,386.0,187.5,386.0,189.0,385.5,181.0,372.5,167.5,364.5,152.5" stroke="black" stroke-width="2" fill="none" />
<polyline points="367.0,153.5,371.0,161.5,376.5,169.5,390.5,177.5,407.5,186.0,424.5,194.5,443.0,202.5,455.5,202.5,460.0,203.5,470.5,211.0" stroke="black" stroke-width="2" fill="none" />
<polyline points="485.5,211.0,490.5,219.0,492.5,221.5,496.5,206.5,504.5,215.0" stroke="black" stroke-width="2" fill="none" />
<polyline points="503.5,216.0,507.5,224.0" stroke="black" stroke-width="2" fill="none" />
<polyline points="511.0,209.0,503.0,206.0,494.5,203.0,486.5,202.0,476.5,205.0,468.5,204.0,460.5,195.0,462.5,204.5,461.0,197.0,452.0,198.0" stroke="black" stroke-width="2" fill="none" />
<polyline points="483.0,198.0,493.0,206.0,512.0,210.0" stroke="black" stroke-width="2" fill="none" />
<polyline points="429.0,187.5,436.0,179.5,435.0,171.5" stroke="black" stroke-width="2" fill="none" />
<polyline points="432.5,172.0,424.5,173.0,417.0,171.5,409.0,175.5,405.5,179.5,415.5,171.5" stroke="black" stroke-width="2" fill="none" />
<polyline points="357.0,138.0,348.5,124.0,340.5,118.5" stroke="black" stroke-width="2" fill="none" />
<polyline points="343.5,116.0,347.5,124.0,353.0,132.0,357.0,140.0" stroke="black" stroke-width="2" fill="none" />
<polyline points="331.0,127.5,317.5,135.0,305.5,143.0" stroke="black" stroke-width="2" fill="none" />
<polyline points="291.0,131.5,299.0,122.0,306.0,113.5,312.5,107.5,304.0,114.5,295.5,123.5,287.5,129.5,279.5,129.5,271.5,129.5" stroke="black" stroke-width="2" fill="none" />
<polyline points="268.5,135.5,261.5,131.5,254.5,133.0,246.5,133.0,238.5,133.0,230.5,133.0" stroke="black" stroke-width="2" fill="none" />
<polyline points="226.5,132.0,225.5,140.0,231.5,153.0,229.5,147.0" stroke="black" stroke-width="2" fill="none" />
<polyline points="235.5,140.5,221.0,148.5,215.5,156.0,220.5,158.0,226.5,159.5" stroke="black" stroke-width="2" fill="none" />
<polyline points="238.0,160.0,246.0,160.0" stroke="black" stroke-width="2" fill="none" />
<polyline points="245.0,170.0,253.0,163.5,260.5,153.0,254.5,161.0,246.5,168.5,243.0,177.0,243.5,185.0" stroke="black" stroke-width="2" fill="none" />
<polyline points="253.5,190.0,256.5,193.0,254.0,194.0,248.0,202.0" stroke="black" stroke-width="2" fill="none" />
<polyline points="266.5,205.0,267.0,208.0,275.0,216.5" stroke="black" stroke-width="2" fill="none" />
<polyline points="268.5,193.0,274.5,190.0,277.5,182.0,280.5,174.0,273.5,170.0,265.5,170.0" stroke="black" stroke-width="2" fill="none" />
<polyline points="267.0,172.0,275.0,172.0" stroke="black" stroke-width="2" fill="none" />
<polyline points="262.0,181.5,261.5,181.5,267.0,189.5" stroke="black" stroke-width="2" fill="none" />
<polyline points="262.0,222.0,262.0,214.0,262.5,206.5,258.5,203.5,250.5,206.5,242.5,206.0,234.5,205.0,226.5,204.5" stroke="black" stroke-width="2" fill="none" />
<polyline points="230.0,221.0,238.0,221.0" stroke="black" stroke-width="2" fill="none" />
<polyline points="229.0,230.5,237.5,230.5,245.0,231.0,252.5,230.0,260.5,230.0" stroke="black" stroke-width="2" fill="none" />
<polyline points="260.0,226.0,252.0,226.0,244.0,226.0,235.5,226.0,227.5,227.0,226.0,223.5,227.0,215.5,226.0,207.5,232.5,193.5,231.5,194.5,231.0,191.0,235.0,187.5,226.5,197.5,218.5,188.5" stroke="black" stroke-width="2" fill="none" />
<polyline points="213.0,183.0,221.0,182.0,224.0,183.0" stroke="black" stroke-width="2" fill="none" />
<polyline points="222.0,172.0,221.5,169.0,213.5,171.0" stroke="black" stroke-width="2" fill="none" />
<polyline points="213.5,179.0,219.5,185.0,217.0,192.5,218.0,200.5,214.0,209.0,203.5,217.5,210.0,214.0,215.5,197.0" stroke="black" stroke-width="2" fill="none" />
<polyline points="210.0,162.0,218.0,152.0,226.0,145.0,234.0,142.0,242.0,139.5,250.0,140.5,258.0,143.0,266.5,143.5,274.5,146.0" stroke="black" stroke-width="2" fill="none" />
<polyline points="281.5,151.5,284.5,159.5,279.5,167.5,272.5,176.0,275.0,182.0,275.5,181.5" stroke="black" stroke-width="2" fill="none" />
<polyline points="242.5,198.0,244.5,190.0,241.0,181.0,241.0,173.0,245.0,165.0,252.0,157.5,257.0,149.5,254.0,148.5,254.5,148.5,255.0,154.5,247.0,157.0,239.5,157.5,244.0,157.5,244.0,143.5,245.5,142.5" stroke="black" stroke-width="2" fill="none" />
<polyline points="254.0,136.5,261.0,144.5,270.5,152.5,263.0,158.5,271.0,155.5,275.5,167.0" stroke="black" stroke-width="2" fill="none" />
<polyline points="265.0,132.5,266.0,140.5,272.0,151.5,277.0,159.5,267.0,160.0,277.0,174.0,273.0,181.5,271.0,189.5,262.0,191.5,267.0,197.5,266.5,205.5,269.5,213.5" stroke="black" stroke-width="2" fill="none" />
<polyline points="271.0,118.0,271.0,110.5,267.5,113.5" stroke="black" stroke-width="2" fill="none" />
<polyline points="269.5,115.0,264.0,116.0,256.5,117.0,249.0,116.0,241.5,116.0,233.5,116.5,225.5,116.5" stroke="black" stroke-width="2" fill="none" />
<polyline points="207.5,139.0,215.5,133.5,220.5,129.5,209.5,137.5,213.0,128.5,221.0,126.5,232.5,130.0,241.0,130.0,248.5,129.0,256.5,129.5,266.5,128.5,275.5,137.0,283.0,140.0,291.0,142.0,298.5,138.0,306.0,132.0,314.0,124.0,322.5,121.0" stroke="black" stroke-width="2" fill="none" />
<polyline points="325.5,125.0,317.5,131.0,310.0,140.0,302.0,142.5,298.5,140.5,307.5,132.5,319.0,124.0,322.0,122.0,326.0,114.0" stroke="black" stroke-width="2" fill="none" />
<polyline points="333.0,114.5,326.0,122.5,317.0,130.5,307.0,139.0,307.0,142.5,315.0,140.0,322.5,132.0,330.5,128.0" stroke="black" stroke-width="2" fill="none" />
<polyline points="311.0,111.5,305.0,119.5,299.0,126.5,306.5,116.5" stroke="black" stroke-width="2" fill="none" />
<polyline points="334.5,98.0,342.0,106.0,346.5,114.5,350.5,123.0,356.5,131.0,361.5,139.0,364.0,147.0,365.5,155.0,369.5,162.5,373.5,170.5,379.0,178.0,381.5,186.0,388.5,190.5,388.0,198.5,385.5,206.5,379.5,214.5,384.0,217.0,381.0,225.0,376.0,233.0,370.5,241.0,364.5,249.0,353.0,260.0,362.0,263.5,369.5,273.5,377.5,281.5,385.5,286.5,393.5,292.0,402.0,295.0,410.0,302.5,418.0,307.5,425.5,311.5,433.5,306.5,441.5,307.0,449.5,311.0,458.0,313.0" stroke="black" stroke-width="2" fill="none" />
<polyline points="327.5,49.0,320.0,52.5,326.0,48.5" stroke="black" stroke-width="2" fill="none" />
<polyline points="356.0,20.5,350.0,28.5,338.5,34.5,335.0,41.5,340.0,34.5,352.0,25.5,359.0,14.5,365.0,17.0,372.5,18.0,380.0,21.5,388.0,23.0,396.0,16.5,404.0,13.5,412.0,20.5,420.5,17.0,424.5,12.5,432.0,9.5,440.0,2.5" stroke="black" stroke-width="2" fill="none" />
<polyline points="411.5,22.5,402.5,15.0" stroke="black" stroke-width="2" fill="none" />
<polyline points="401.5,15.5,390.5,23.5,390.5,28.5,398.5,26.0,411.0,26.5" stroke="black" stroke-width="2" fill="none" />
<polyline points="378.0,23.5,366.0,19.5,362.0,11.5" stroke="black" stroke-width="2" fill="none" />
<polyline points="208.5,108.0,200.5,97.0" stroke="black" stroke-width="2" fill="none" />
<polyline points="179.0,57.0,187.0,50.0" stroke="black" stroke-width="2" fill="none" />
<polyline points="189.0,45.0,181.0,37.0" stroke="black" stroke-width="2" fill="none" />
<polyline points="103.5,23.0,96.5,15.0,95.5,10.5,98.5,3.0" stroke="black" stroke-width="2" fill="none" />
<polyline points="76.0,103.5,84.0,105.5,92.5,109.5" stroke="black" stroke-width="2" fill="none" />
<polyline points="90.0,110.0,80.5,108.0" stroke="black" stroke-width="2" fill="none" />
<polyline points="93.5,132.5,101.5,135.5,109.5,141.5" stroke="black" stroke-width="2" fill="none" />
<polyline points="112.5,144.0,102.5,136.0" stroke="black" stroke-width="2" fill="none" />
<polyline points="76.5,230.5,67.5,238.5" stroke="black" stroke-width="2" fill="none" />
<polyline points="74.5,233.5,77.5,234.5" stroke="black" stroke-width="2" fill="none" />
<polyline points="76.5,232.5,68.5,238.0,60.5,237.5,52.5,237.5,45.0,242.0,51.0,236.5" stroke="black" stroke-width="2" fill="none" />
<polyline points="85.5,301.5,94.0,307.0,90.0,309.0,82.0,320.0" stroke="black" stroke-width="2" fill="none" />
<polyline points="69.5,325.5,57.5,333.5,45.5,341.5,50.5,339.5,58.0,332.5,66.0,328.0,74.0,324.0,82.0,318.5,86.0,310.0,100.0,304.5" stroke="black" stroke-width="2" fill="none" />
<polyline points="97.5,297.5,105.5,298.5" stroke="black" stroke-width="2" fill="none" />
<polyline points="129.5,280.5,122.0,288.5,113.5,292.5,123.5,287.0,130.0,279.0" stroke="black" stroke-width="2" fill="none" />
</svg>