<svg xmlns="http://www.w3.org/2000/svg" version="1.1"><polyline points="342.5,1.5,343.5,9.5,345.5,12.5,344.5,24.0,342.0,34.0,349.5,32.0,356.5,33.0,369.5,31.0,377.0,31.0,385.0,29.5,393.0,28.5,401.0,28.5,409.0,29.5,417.0,29.5,425.5,30.0,434.0,30.5,442.0,30.0,450.0,31.0,458.5,32.0" stroke="black" stroke-width="2" fill="none" />
<polyline points="466.5,25.5,458.5,25.5,450.5,24.0,442.5,23.5,435.0,23.5,427.0,23.5,418.5,24.5,410.0,26.0,401.5,26.0,393.5,26.5,385.0,27.5,377.0,27.5,369.0,28.5,361.0,28.5,352.5,28.0,344.5,25.0" stroke="black" stroke-width="2" fill="none" />
<polyline points="317.0,36.0,309.0,36.0,300.5,36.0" stroke="black" stroke-width="2" fill="none" />
<polyline points="268.0,3.0,260.0,4.0,252.0,5.0,244.0,5.0,236.0,6.0,228.0,7.0,220.0,7.0,211.5,9.0,203.5,10.5,195.0,10.5,187.0,10.5,179.5,11.5,171.5,13.0,163.5,14.0" stroke="black" stroke-width="2" fill="none" />
<polyline points="167.5,48.0,175.5,48.5,184.0,48.5,192.0,48.0,200.5,45.5,209.0,44.5,217.0,44.5,224.5,44.0" stroke="black" stroke-width="2" fill="none" />
<polyline points="207.0,84.0,213.0,92.5,213.5,100.5,213.5,108.0,213.5,116.5" stroke="black" stroke-width="2" fill="none" />
<polyline points="221.5,103.5,219.5,111.5,213.0,119.5,200.0,127.5" stroke="black" stroke-width="2" fill="none" />
<polyline points="241.5,118.0,249.5,121.0,257.5,122.0,265.5,120.0,273.0,118.0,281.0,117.0,289.0,114.0,297.0,113.5,298.0,115.5" stroke="black" stroke-width="2" fill="none" />
<polyline points="301.5,115.0,302.0,123.0,303.0,131.0,304.0,139.0,304.0,147.5,303.5,155.5,300.5,163.5,302.5,167.0" stroke="black" stroke-width="2" fill="none" />
<polyline points="297.0,163.5,288.5,162.0,280.5,161.0,272.5,166.0,264.5,180.0" stroke="black" stroke-width="2" fill="none" />
<polyline points="248.5,193.5,253.0,201.0,262.0,208.0,268.0,216.0,272.0,215.5,275.5,208.5,283.5,212.5" stroke="black" stroke-width="2" fill="none" />
<polyline points="271.0,207.5,262.5,204.0" stroke="black" stroke-width="2" fill="none" />
<polyline points="276.5,216.5,271.0,215.5,263.0,208.5,255.0,200.5,247.5,192.5" stroke="black" stroke-width="2" fill="none" />
<polyline points="215.5,211.5,226.5,219.5,233.0,227.5,238.0,235.5,243.0,243.0,246.0,251.0,248.5,253.0,256.0,249.0,263.5,241.0,271.5,233.0,279.5,224.0" stroke="black" stroke-width="2" fill="none" />
<polyline points="295.5,221.0,285.5,228.5,278.5,236.5,270.0,244.0,262.5,252.0,255.5,260.5,255.5,268.0,260.5,276.0,270.5,284.0,275.5,292.0,281.5,300.0,286.5,308.0,291.5,314.0" stroke="black" stroke-width="2" fill="none" />
<polyline points="312.0,300.5,320.0,304.5" stroke="black" stroke-width="2" fill="none" />
<polyline points="321.0,291.0,314.0,283.5,307.5,290.5" stroke="black" stroke-width="2" fill="none" />
<polyline points="306.0,286.5,308.0,294.5,316.0,301.5" stroke="black" stroke-width="2" fill="none" />
<polyline points="314.0,283.5,322.5,291.5,330.5,293.5,338.5,296.5,346.0,299.0,354.0,301.5,362.0,301.5,370.5,301.5,378.5,305.5,386.5,302.5,394.0,307.0,402.5,307.5,410.5,307.5,418.5,308.0,426.5,308.0,434.5,306.5,442.5,308.5" stroke="black" stroke-width="2" fill="none" />
<polyline points="442.5,304.5,434.5,300.0,426.5,299.0,419.0,297.0,411.5,295.5,403.5,294.5,395.5,296.5,387.0,296.5,378.5,287.0,370.5,267.0,362.5,242.5" stroke="black" stroke-width="2" fill="none" />
<polyline points="352.5,247.0,344.5,242.0" stroke="black" stroke-width="2" fill="none" />
<polyline points="345.0,243.5,359.0,257.0" stroke="black" stroke-width="2" fill="none" />
<polyline points="343.5,239.5,354.5,247.5,357.0,255.0,360.5,263.0,363.0,271.5,366.5,279.0,364.5,287.0" stroke="black" stroke-width="2" fill="none" />
<polyline points="350.0,309.5,342.0,311.5" stroke="black" stroke-width="2" fill="none" />
<polyline points="361.5,288.0,353.5,285.0,345.5,284.0,337.5,283.5,329.5,282.5,321.5,282.5,314.0,279.5" stroke="black" stroke-width="2" fill="none" />
<polyline points="309.0,228.5,301.0,226.5" stroke="black" stroke-width="2" fill="none" />
<polyline points="325.0,172.5,323.0,161.0,321.0,164.5,313.5,162.5" stroke="black" stroke-width="2" fill="none" />
<polyline points="303.5,165.0,304.5,157.0" stroke="black" stroke-width="2" fill="none" />
<polyline points="318.5,145.0,320.5,153.0,320.0,160.5,317.5,165.0,325.5,175.5,330.0,176.5" stroke="black" stroke-width="2" fill="none" />
<polyline points="377.5,194.0,385.5,187.0,393.5,181.0,401.5,176.5,409.0,171.5,417.0,170.5,420.5,181.5,416.5,182.5,402.5,190.5,394.0,196.5,385.0,203.5,393.0,197.5,403.5,190.5,411.5,187.5,419.0,178.0,424.0,180.5,432.0,181.0,440.5,186.0,448.5,192.0" stroke="black" stroke-width="2" fill="none" />
<polyline points="453.0,195.5,441.5,187.5,431.5,180.0" stroke="black" stroke-width="2" fill="none" />
<polyline points="427.0,173.5,434.5,166.5,442.5,178.5,450.0,183.5,458.5,189.5,466.5,194.5,474.5,196.5" stroke="black" stroke-width="2" fill="none" />
<polyline points="479.0,194.0,471.0,186.0,463.0,178.5,455.0,170.5,447.0,165.5,439.0,162.5,431.0,151.5,423.0,148.0,414.5,136.0,406.5,130.0,398.5,124.0,390.5,119.0,382.5,117.0,374.5,116.0" stroke="black" stroke-width="2" fill="none" />
<polyline points="375.5,119.5,383.5,126.5,391.5,135.0,398.5,145.0" stroke="black" stroke-width="2" fill="none" />
<polyline points="387.0,159.5,379.0,167.5,367.5,175.5,357.5,186.5,367.0,185.5" stroke="black" stroke-width="2" fill="none" />
<polyline points="384.0,170.0,377.5,174.5,388.5,166.0" stroke="black" stroke-width="2" fill="none" />
<polyline points="402.5,168.5,394.5,174.0,386.0,179.0,378.0,183.5,372.5,188.5,382.0,180.5,395.5,172.5,407.0,164.5,402.0,153.5,399.0,151.5,398.0,144.0,391.5,136.0,383.5,128.0,374.5,120.5,367.5,123.5" stroke="black" stroke-width="2" fill="none" />
<polyline points="368.0,129.0,370.0,133.0" stroke="black" stroke-width="2" fill="none" />
<polyline points="371.0,118.0,370.0,126.0,371.0,134.0,377.0,142.0,388.5,150.0,402.0,150.5" stroke="black" stroke-width="2" fill="none" />
<polyline points="414.5,168.5,401.5,177.0,389.5,185.5,380.0,193.5,380.5,201.5,383.5,210.0,382.0,218.0,379.0,225.5,374.0,233.0,362.0,241.0,364.5,248.5,366.0,256.5,369.0,265.0,372.0,273.5,374.0,281.5,378.5,289.5,387.0,297.5" stroke="black" stroke-width="2" fill="none" />
<polyline points="432.5,299.0,443.0,307.5" stroke="black" stroke-width="2" fill="none" />
<polyline points="376.5,229.0,369.0,236.0,361.5,242.5,349.5,239.0,340.0,230.5,332.0,227.5,323.5,230.5,311.5,226.5,303.5,225.0,295.0,222.0,287.0,227.5,279.0,236.0,270.5,244.0,262.0,251.5,254.0,262.5" stroke="black" stroke-width="2" fill="none" />
<polyline points="255.0,270.5,263.0,277.5,271.0,284.0,279.5,296.0,287.5,306.5" stroke="black" stroke-width="2" fill="none" />
<polyline points="282.5,317.0,273.5,309.0,265.5,300.5,258.5,292.5,255.0,284.0,251.0,276.0" stroke="black" stroke-width="2" fill="none" />
<polyline points="238.5,285.0,230.5,278.0,226.0,273.0,222.5,263.0,215.0,251.0" stroke="black" stroke-width="2" fill="none" />
<polyline points="214.0,251.0,218.0,259.0,221.0,267.0,228.0,275.0,235.0,282.5,242.5,291.0" stroke="black" stroke-width="2" fill="none" />
<polyline points="236.5,258.0,228.5,247.5,220.5,229.5,212.5,215.0" stroke="black" stroke-width="2" fill="none" />
<polyline points="211.0,211.0,219.5,214.0,228.0,220.0,236.0,232.0,244.0,245.0" stroke="black" stroke-width="2" fill="none" />
<polyline points="212.5,210.0,215.5,218.0,218.5,226.0,222.0,234.0,225.0,242.0,228.5,250.0,234.5,257.5,239.5,265.0,240.5,273.0,244.5,273.5,252.0,276.5,260.0,293.5,268.0,301.5,276.5,310.0,284.5,316.5,290.0,318.5" stroke="black" stroke-width="2" fill="none" />
<polyline points="255.0,251.0,262.0,243.5,270.5,235.5,277.0,227.5,279.5,219.5,288.5,216.0,275.5,208.5,264.5,200.0,261.5,192.0,263.5,184.0,265.5,176.0,268.5,168.5,278.5,160.5" stroke="black" stroke-width="2" fill="none" />
<polyline points="307.0,113.0,315.0,100.0,323.5,100.0,331.5,99.5,339.5,96.0,347.5,92.5,355.5,88.5,363.5,84.0" stroke="black" stroke-width="2" fill="none" />
<polyline points="363.0,79.5,354.5,87.0,339.0,95.5" stroke="black" stroke-width="2" fill="none" />
<polyline points="329.5,83.5,317.5,91.5,313.5,102.0,309.5,110.0,310.0,118.5,310.0,127.0,311.0,135.0,312.0,143.5,312.0,151.5,312.5,160.0,314.5,168.0,321.5,175.5,323.5,179.5,331.5,182.0,339.5,184.5,347.0,187.5,354.0,188.0,362.0,181.0,370.0,176.0,378.5,169.0,383.5,163.5,392.5,160.0" stroke="black" stroke-width="2" fill="none" />
<polyline points="387.0,119.0,399.0,127.5,410.0,135.5,417.0,143.5,423.0,151.0,434.0,159.0,447.0,167.0,456.5,175.5,465.5,183.5,473.5,192.0" stroke="black" stroke-width="2" fill="none" />
<polyline points="461.0,192.0,449.0,184.0,440.0,176.0" stroke="black" stroke-width="2" fill="none" />
<polyline points="422.0,60.0,430.0,63.0,438.0,57.0,446.0,51.0,454.0,43.5,461.5,34.5,455.5,42.5,448.0,50.0,438.0,58.0" stroke="black" stroke-width="2" fill="none" />
<polyline points="428.5,68.0,422.5,64.0,420.5,50.0,424.5,42.0,432.5,34.0,428.5,38.0,420.5,49.0" stroke="black" stroke-width="2" fill="none" />
<polyline points="384.0,56.5,386.0,54.5,384.0,56.5,384.5,64.5" stroke="black" stroke-width="2" fill="none" />
<polyline points="377.5,65.0,385.0,82.0,393.0,91.5,401.5,96.5,410.0,101.0,418.5,104.0,427.0,105.0,435.0,106.0,443.0,105.5,451.0,102.5,459.0,98.5,467.0,92.5,475.5,84.0" stroke="black" stroke-width="2" fill="none" />
<polyline points="485.5,75.5,479.0,85.5,473.0,89.5,463.5,97.5,454.5,103.5,447.0,106.5,438.5,109.0,431.0,108.5,423.0,107.5,415.5,106.5,407.5,103.5,399.5,99.0,392.0,93.0,384.5,85.0,376.5,71.0" stroke="black" stroke-width="2" fill="none" />
<polyline points="368.5,82.5,365.0,77.5,357.0,77.5,349.0,78.0,341.0,81.0,333.0,83.0,325.5,85.0,317.5,92.0,309.5,95.0,301.5,93.0,293.5,102.5,285.5,101.5,277.5,103.5,269.5,107.0,261.5,110.0,253.5,113.0,245.5,116.0,240.5,117.0,261.0,109.5,282.0,101.5" stroke="black" stroke-width="2" fill="none" />
<polyline points="298.5,99.0,305.5,91.0" stroke="black" stroke-width="2" fill="none" />
<polyline points="226.0,100.0,222.5,106.5,214.0,117.5,206.0,125.0,198.5,128.0,190.0,129.0,182.5,129.0,174.5,129.0,166.5,129.5,158.5,129.0,151.0,127.5,143.5,126.5,135.5,124.5,127.5,118.5,119.5,106.0" stroke="black" stroke-width="2" fill="none" />
<polyline points="123.0,85.5,131.0,80.0,139.0,76.5,147.0,75.0,154.5,72.0,162.5,73.0" stroke="black" stroke-width="2" fill="none" />
<polyline points="151.5,76.5,159.5,76.5,167.5,76.0,175.5,78.0,184.0,76.5,190.5,76.5,198.0,79.5,201.0,82.5,209.0,86.0" stroke="black" stroke-width="2" fill="none" />
<polyline points="135.0,79.5,145.0,75.5,128.0,81.5,122.5,89.5,121.0,98.0,121.0,106.0,122.5,114.0,129.5,122.0,129.0,126.0" stroke="black" stroke-width="2" fill="none" />
<polyline points="374.0,33.5,372.0,42.0,369.0,50.5,371.0,58.5,372.5,66.5,374.5,74.5,379.0,82.5,384.5,90.5,395.0,98.0,410.5,106.0" stroke="black" stroke-width="2" fill="none" />
<polyline points="409.5,109.5,399.0,97.5,390.0,89.5,384.0,81.0,380.0,72.5,377.0,65.0,376.0,57.0,376.0,49.0,376.5,41.0,379.5,33.0" stroke="black" stroke-width="2" fill="none" />
<polyline points="471.0,17.5,473.0,25.0,472.5,33.0,464.5,41.5,455.0,49.5,445.0,57.5,440.0,65.5,440.0,61.0,448.0,54.0,456.5,48.0,464.5,41.0,472.5,33.5" stroke="black" stroke-width="2" fill="none" />
<polyline points="481.0,26.5,484.0,34.5,487.0,42.5,488.0,54.5,489.0,62.5,486.0,70.5,483.0,79.0,478.5,88.5,473.0,91.0,467.0,97.0,454.0,104.5" stroke="black" stroke-width="2" fill="none" />
<polyline points="455.0,99.5,467.0,92.0,474.0,84.0,479.0,76.5,482.0,68.5,484.0,60.5,484.0,52.5,484.5,42.5,481.5,34.5,477.5,27.0,474.0,19.5" stroke="black" stroke-width="2" fill="none" />
<polyline points="467.5,2.5,469.5,10.5,469.5,19.5,470.0,20.5,478.0,20.5,478.0,26.5,485.0,36.0,489.0,44.5" stroke="black" stroke-width="2" fill="none" />
</svg>