<svg xmlns="http://www.w3.org/2000/svg" version="1.1"><polyline points="97.0,1.5,97.0,10.0,98.0,18.0,97.5,26.0,97.5,34.0,99.0,42.0,99.0,50.0,99.0,58.5,99.5,66.5,99.5,74.5,100.5,82.5,99.5,90.5,99.5,98.0,100.5,106.5,100.5,114.5,101.5,123.0,104.0,131.0,104.0,139.0,104.0,147.0,104.0,155.0,108.0,151.5,116.5,147.0,124.5,143.5,132.5,139.5,139.5,138.5,147.0,135.5,155.5,133.0,163.5,131.5,171.5,129.5,180.0,127.5,187.5,124.5,195.5,123.5,203.0,120.5,210.5,120.5,218.5,117.5,226.0,115.0,234.0,112.5,246.5,113.5,258.5,107.5,266.5,104.5,274.0,104.5,282.5,102.5,290.0,101.0,298.0,99.0" stroke="black" stroke-width="2" fill="none" />
<polyline points="307.5,90.5,287.5,92.5,296.5,93.5,304.5,91.5,312.5,91.5,320.5,86.5,328.5,87.5" stroke="black" stroke-width="2" fill="none" />
<polyline points="347.5,110.0,337.5,118.0,334.5,122.5,327.5,126.5,336.0,122.0,344.0,118.5,352.0,115.5,360.0,116.0,362.0,119.5,369.0,119.5" stroke="black" stroke-width="2" fill="none" />
<polyline points="369.5,110.5,383.5,118.5,383.5,127.0,400.0,131.0,411.0,139.0,406.0,147.5,388.5,155.5,372.0,163.5,355.0,171.5,338.0,179.5,322.0,187.0" stroke="black" stroke-width="2" fill="none" />
<polyline points="300.5,200.0,292.5,200.5" stroke="black" stroke-width="2" fill="none" />
<polyline points="294.5,191.0,287.0,184.0,279.0,177.0,271.0,175.5" stroke="black" stroke-width="2" fill="none" />
<polyline points="271.0,175.0,278.0,183.0" stroke="black" stroke-width="2" fill="none" />
<polyline points="275.0,173.0,283.5,181.0,293.0,189.0,302.0,197.0" stroke="black" stroke-width="2" fill="none" />
<polyline points="291.5,175.0,284.0,168.0,276.0,161.0,268.5,154.5,260.5,155.0" stroke="black" stroke-width="2" fill="none" />
<polyline points="257.0,155.0,265.5,161.0,273.5,168.5,281.5,175.0,290.0,182.0,298.0,189.0,306.0,196.5,314.0,192.5,322.0,188.5,330.0,185.5,337.5,180.5,345.5,178.0,354.0,174.0,362.0,170.5,369.5,167.0,377.5,162.5,386.0,159.5,394.5,155.5,402.5,151.5,410.0,148.0" stroke="black" stroke-width="2" fill="none" />
<polyline points="384.5,127.0,376.5,124.0,368.5,124.5,361.0,127.5,360.0,125.0,352.0,127.0" stroke="black" stroke-width="2" fill="none" />
<polyline points="350.0,124.5,346.0,132.5,349.5,131.5" stroke="black" stroke-width="2" fill="none" />
<polyline points="338.0,127.0,330.5,128.0" stroke="black" stroke-width="2" fill="none" />
<polyline points="337.5,116.0,345.0,112.0,333.0,113.5,314.0,121.5,294.0,129.5,274.0,138.0,255.0,146.0,249.0,151.5,245.5,159.5,228.5,160.0,216.5,161.0,205.0,173.0,208.0,182.0,216.0,189.0,223.0,196.0,231.0,203.5,239.0,211.5,247.0,220.5,255.0,223.0,261.0,217.0,261.0,219.0" stroke="black" stroke-width="2" fill="none" />
<polyline points="246.0,219.0,239.0,211.0,231.0,203.5,223.0,196.0,242.5,185.5,259.0,178.0,273.5,170.0,265.0,162.0,262.0,160.0,251.0,161.5,243.0,164.5" stroke="black" stroke-width="2" fill="none" />
<polyline points="242.0,161.0,250.0,157.0,250.5,159.0,244.5,155.5,250.0,153.5,255.0,153.5,263.0,149.5,271.0,146.0,279.5,143.0,288.0,139.0,296.5,135.5,301.0,129.0,303.5,127.5,311.5,132.0" stroke="black" stroke-width="2" fill="none" />
<polyline points="305.5,134.5,316.5,142.0" stroke="black" stroke-width="2" fill="none" />
<polyline points="320.0,144.5,312.5,138.5,305.0,133.5" stroke="black" stroke-width="2" fill="none" />
<polyline points="298.5,129.0,289.5,137.0,270.5,145.0,264.0,151.0,275.0,159.5,284.5,168.0" stroke="black" stroke-width="2" fill="none" />
<polyline points="291.5,144.0,300.0,145.0,304.0,140.5,305.0,143.5" stroke="black" stroke-width="2" fill="none" />
<polyline points="297.5,188.5,288.5,180.5,279.5,172.5,268.0,172.0,260.0,176.0,251.5,179.5,243.5,183.5,235.5,187.5,227.5,191.5" stroke="black" stroke-width="2" fill="none" />
<polyline points="233.0,173.0,225.0,167.0" stroke="black" stroke-width="2" fill="none" />
<polyline points="223.0,168.0,231.0,175.5" stroke="black" stroke-width="2" fill="none" />
<polyline points="229.0,163.0,221.0,166.0" stroke="black" stroke-width="2" fill="none" />
<polyline points="194.5,172.5,202.5,177.5,211.0,173.0,218.0,169.0,223.0,165.0,230.5,161.0,239.5,155.0,247.0,148.5,255.0,145.5,263.0,142.5,271.0,139.5,279.0,136.5,286.5,133.0,295.0,130.0,303.0,127.0,311.5,123.0,319.5,120.0,327.5,117.0,335.5,114.0,343.0,110.0,351.0,108.0,359.0,111.0,367.0,112.0,375.0,115.5,383.0,119.5,391.0,125.5,399.0,131.0,406.5,136.5,414.5,141.5" stroke="black" stroke-width="2" fill="none" />
<polyline points="445.0,140.5,437.5,144.0,429.0,147.5,421.0,151.5,413.0,155.5,405.0,159.5,397.5,163.5,389.5,168.0,381.5,172.0,373.5,175.0,365.5,179.0,357.5,183.0,349.5,187.0,341.5,191.0,334.0,195.0,326.0,199.0,318.0,203.0,310.0,208.5,301.5,212.5,293.5,217.0,285.5,221.0,277.0,225.0,269.0,230.0,260.5,234.5,252.5,238.5,244.5,242.5,246.0,241.0,263.0,233.0,277.0,225.0,292.0,217.0,307.0,208.5,323.0,200.5,339.0,192.5,355.0,184.5,371.0,176.5,388.0,168.5,404.5,160.0,421.5,152.5,437.0,144.5,446.5,136.0,435.5,128.5,423.5,120.0,412.5,112.0,401.0,103.5,384.0,95.5" stroke="black" stroke-width="2" fill="none" />
<polyline points="361.5,93.0,339.5,101.0,318.5,109.0,297.0,117.0,277.0,125.0,255.0,133.0,233.5,141.0,211.0,149.5,189.5,157.5,167.5,165.5,149.5,174.0,150.5,180.5,155.5,170.5,163.0,167.5,171.0,164.5,178.5,161.5,186.5,159.0,195.0,156.5,203.0,154.0,211.5,151.0,219.5,148.0,227.5,145.0,236.0,141.5,244.0,138.5,252.0,135.5,260.0,132.0,268.5,129.5,276.5,126.5,284.5,123.5,292.0,120.5,300.0,117.5,308.5,114.5,316.5,111.5,324.5,108.5,332.0,105.5,339.5,102.5,347.5,99.5,355.5,96.0,363.5,94.0,371.5,93.0,379.5,94.5,387.5,97.5,396.0,100.5,404.0,105.5,412.5,111.0,420.5,117.0,429.0,121.5,437.0,127.5,445.0,133.5" stroke="black" stroke-width="2" fill="none" />
<polyline points="266.5,186.5,251.5,195.0,243.0,199.0,251.0,195.0,258.5,191.0,266.5,186.5" stroke="black" stroke-width="2" fill="none" />
<polyline points="227.0,175.0,221.0,174.0,220.0,166.0,234.0,161.0,226.0,157.5,218.0,161.5,210.0,165.5,202.0,168.5,194.0,170.5" stroke="black" stroke-width="2" fill="none" />
<polyline points="193.5,173.5,204.5,181.0,214.0,188.5" stroke="black" stroke-width="2" fill="none" />
<polyline points="215.5,170.5,204.0,161.5,196.0,165.5,188.0,167.5" stroke="black" stroke-width="2" fill="none" />
<polyline points="182.5,177.5,190.5,182.5" stroke="black" stroke-width="2" fill="none" />
<polyline points="163.5,171.5,171.5,173.5,175.5,179.0,186.5,187.5,195.5,195.5,203.5,204.0,212.0,212.0,220.0,220.0,227.0,228.0,235.0,236.0,242.0,243.5,244.5,252.0,244.5,259.5,245.5,267.5,247.5,275.5,247.0,283.5" stroke="black" stroke-width="2" fill="none" />
<polyline points="254.0,298.5,261.5,296.5" stroke="black" stroke-width="2" fill="none" />
<polyline points="264.0,299.0,256.0,301.0" stroke="black" stroke-width="2" fill="none" />
<polyline points="252.5,282.5,244.5,286.5,232.5,288.5,224.5,288.5,216.5,290.5,208.5,293.0,199.5,294.5,192.0,302.5,183.5,307.5,175.0,313.5,166.5,321.0,158.5,327.0,150.5,332.0,142.5,337.0,135.5,338.0,147.5,330.0,155.5,322.0,159.0,314.0,168.0,305.5,171.0,297.5,167.5,289.0,176.0,283.0,168.0,285.0" stroke="black" stroke-width="2" fill="none" />
<polyline points="173.0,288.0,173.0,288.0,176.5,296.0" stroke="black" stroke-width="2" fill="none" />
<polyline points="169.0,311.0,161.0,319.0,162.0,318.0" stroke="black" stroke-width="2" fill="none" />
<polyline points="171.5,318.5,179.5,315.5,176.0,324.5,170.0,333.0" stroke="black" stroke-width="2" fill="none" />
<polyline points="158.5,333.0,149.0,337.0" stroke="black" stroke-width="2" fill="none" />
<polyline points="186.0,324.5,178.5,331.0,192.5,322.0,194.0,320.5,196.0,312.5" stroke="black" stroke-width="2" fill="none" />
<polyline points="194.0,319.0,188.0,316.0,182.5,320.5,175.5,332.0,167.0,334.5,158.0,333.5,149.5,340.5,144.5,340.0,145.5,335.0,157.5,327.0,169.5,318.5,177.5,310.5,189.0,303.0,198.0,294.5" stroke="black" stroke-width="2" fill="none" />
<polyline points="203.0,283.0,211.0,281.5,202.0,289.0,186.0,297.0,180.5,298.5,189.0,296.5,196.5,294.0,204.0,292.5,209.0,289.5,217.0,287.5,225.0,286.5" stroke="black" stroke-width="2" fill="none" />
<polyline points="246.5,320.5,254.5,319.0,263.0,313.5,263.0,318.0,262.5,325.5,263.5,333.5" stroke="black" stroke-width="2" fill="none" />
<polyline points="252.5,337.0,251.5,329.5,250.0,321.5" stroke="black" stroke-width="2" fill="none" />
<polyline points="259.0,277.0,257.5,269.0,257.5,261.0,257.5,252.5,257.0,244.0" stroke="black" stroke-width="2" fill="none" />
<polyline points="257.0,245.0,248.5,247.0,255.0,244.0" stroke="black" stroke-width="2" fill="none" />
<polyline points="205.5,125.0,214.0,126.0,222.0,125.0,230.0,123.5,238.0,121.0,246.5,118.0,254.0,115.0" stroke="black" stroke-width="2" fill="none" />
<polyline points="255.0,106.0,243.0,114.0" stroke="black" stroke-width="2" fill="none" />
<polyline points="228.5,111.0,220.5,114.0,212.5,116.0" stroke="black" stroke-width="2" fill="none" />
<polyline points="210.0,128.5,209.0,127.5,199.0,122.5" stroke="black" stroke-width="2" fill="none" />
<polyline points="188.5,128.0,189.5,131.5,193.5,125.5,198.0,121.5,207.0,129.5,211.5,137.5,212.5,146.0" stroke="black" stroke-width="2" fill="none" />
<polyline points="148.5,172.0,141.0,156.0,133.0,148.0" stroke="black" stroke-width="2" fill="none" />
<polyline points="131.0,147.0,139.0,143.0,147.0,140.0,155.0,137.5,163.5,134.5,171.5,133.0,179.5,130.0,187.0,129.0,163.0,135.5,141.0,144.0,135.0,152.0,142.0,160.0,146.0,167.5,149.5,175.5" stroke="black" stroke-width="2" fill="none" />
<polyline points="131.5,191.5,132.0,199.5,132.0,208.0,131.5,216.0,132.0,224.5,131.0,232.5,130.5,240.5,130.5,248.5,130.5,256.5,130.5,265.0,130.5,272.5,130.5,281.0,131.0,288.5,131.0,296.0,130.5,303.5,130.5,311.5,129.5,319.5,130.0,327.0,130.0,335.0,135.5,338.0,143.5,332.5,151.5,327.0,159.5,312.5,167.0,306.5" stroke="black" stroke-width="2" fill="none" />
<polyline points="240.0,242.0,232.0,232.5,224.0,224.5,216.0,215.5,208.0,207.0,200.5,199.0,192.0,191.0,184.0,185.0,176.0,179.0,168.5,175.0,160.5,174.0,152.5,177.5,145.0,169.5,137.0,157.5,129.5,150.0,121.5,145.0" stroke="black" stroke-width="2" fill="none" />
<polyline points="119.0,146.5,130.0,154.5,137.5,162.0,143.0,170.0,146.0,178.0" stroke="black" stroke-width="2" fill="none" />
<polyline points="120.0,221.0,120.5,229.0,121.5,237.5,119.5,245.5" stroke="black" stroke-width="2" fill="none" />
<polyline points="94.5,199.5,86.5,200.0,78.5,199.5,71.0,198.5,63.0,198.0,55.5,197.5,47.5,196.5,39.5,195.5" stroke="black" stroke-width="2" fill="none" />
<polyline points="21.0,195.0,13.0,196.0,6.0,196.0,5.5,188.0,4.5,180.0,4.5,172.5,4.5,164.5,4.0,157.0,4.0,149.0,4.0,141.5,3.5,133.5,3.5,125.5,3.5,117.5,2.5,109.5,3.0,101.5,2.5,93.0,2.5,85.0,2.5,77.0,2.5,69.5,2.5,61.5,2.0,53.5,2.0,46.0" stroke="black" stroke-width="2" fill="none" />
<polyline points="132.5,2.5,133.0,10.5,132.5,19.0,132.5,27.0,131.0,34.5,131.0,42.0,132.0,50.0,132.5,58.0,133.0,66.0,132.0,73.5,132.0,81.0,132.0,89.0,131.5,97.0,133.0,105.5,132.0,113.5,133.0,122.0,131.5,130.0,133.5,138.0,112.5,146.0,105.5,154.0,102.5,162.0,100.5,170.0,98.5,178.0,98.0,185.5,98.5,193.5,103.0,198.5,110.5,195.5,118.5,194.0,126.5,191.5" stroke="black" stroke-width="2" fill="none" />
<polyline points="230.0,105.0,229.0,96.5,228.5,88.5,226.5,80.5,225.5,73.0,225.5,65.0,223.0,57.5,222.0,49.5,222.0,42.0,221.0,34.5,221.0,26.5,220.0,18.5,220.5,10.5,220.5,2.5" stroke="black" stroke-width="2" fill="none" />
<polyline points="239.0,2.5,239.0,10.5,239.0,18.5,240.0,26.0,241.5,34.0,241.5,42.0,242.0,49.5,243.0,57.5,243.5,65.5,245.0,73.5,246.0,82.0,246.0,90.0,246.5,98.0,250.5,103.0,259.0,101.0,267.0,98.0,275.0,96.0,283.0,94.0,291.0,90.5,298.5,88.5,306.5,85.0,314.5,83.5,322.5,82.5,330.5,84.5" stroke="black" stroke-width="2" fill="none" />
</svg>