<svg xmlns="http://www.w3.org/2000/svg" version="1.1"><polyline points="384.0,35.5,393.0,43.5,404.0,51.5,407.5,59.5,402.0,67.5,392.5,75.5,378.5,82.0,383.5,83.0,391.0,75.5,399.0,68.5" stroke="black" stroke-width="2" fill="none" />
<polyline points="399.5,48.0,391.5,42.5,383.5,37.5" stroke="black" stroke-width="2" fill="none" />
<polyline points="382.0,34.0,390.0,37.0,398.0,43.0,406.0,49.5" stroke="black" stroke-width="2" fill="none" />
<polyline points="410.0,68.5,402.0,79.0,393.5,89.0,386.0,98.5,400.0,95.5" stroke="black" stroke-width="2" fill="none" />
<polyline points="382.5,73.5,374.0,67.5" stroke="black" stroke-width="2" fill="none" />
<polyline points="376.5,57.5,368.5,63.0,360.5,55.5" stroke="black" stroke-width="2" fill="none" />
<polyline points="363.0,65.5,372.5,73.0" stroke="black" stroke-width="2" fill="none" />
<polyline points="370.5,85.0,359.5,77.0,349.5,69.0,353.0,57.0,356.0,54.5,366.5,46.5,362.0,43.5" stroke="black" stroke-width="2" fill="none" />
<polyline points="377.0,44.0,381.5,52.0,373.0,60.0,381.0,72.5,384.5,80.5,388.5,72.5" stroke="black" stroke-width="2" fill="none" />
<polyline points="394.5,101.5,388.5,109.5,380.5,116.5,373.0,121.0,365.0,125.0,356.5,132.5,348.5,147.5" stroke="black" stroke-width="2" fill="none" />
<polyline points="342.0,145.5,350.0,132.5,358.0,124.5,366.5,119.5,374.5,115.5,382.0,109.5,390.0,100.5,398.0,91.5,400.5,93.0,397.0,93.0,390.0,101.0,383.0,109.0,372.5,117.0,357.5,125.0,350.5,132.5,344.0,140.5,342.0,148.5,339.5,156.5,337.5,164.5,336.0,172.0,334.5,180.0,331.5,188.5,325.5,196.5,317.0,205.0,303.5,213.5" stroke="black" stroke-width="2" fill="none" />
<polyline points="290.5,180.5,282.5,187.5,274.5,191.5,266.5,193.0,259.0,193.0,251.5,191.0,243.5,188.5,235.5,181.5,228.0,170.0" stroke="black" stroke-width="2" fill="none" />
<polyline points="222.0,173.0,225.0,181.0,229.0,189.0" stroke="black" stroke-width="2" fill="none" />
<polyline points="244.0,198.0,242.0,205.5,233.0,213.5,224.0,221.5,215.0,229.5,206.0,237.5,197.0,246.0,189.0,254.0,180.0,262.0,171.5,270.0,163.5,277.5,154.5,285.5,145.0,293.5,136.5,301.5,127.5,309.5,119.0,317.5,110.0,325.5,102.0,333.5,93.5,341.5,88.0,346.5,96.0,344.5,104.5,342.5,112.5,338.5,120.5,333.5,128.5,328.5,136.5,323.5,144.0,318.5,152.0,313.0,158.0,309.0,166.5,303.0,174.5,296.0,182.5,289.0,191.0,281.5,199.5,273.0,207.5,266.0,215.5,258.0,224.0,250.0,232.0,242.0,239.5,233.0,247.5,225.5,255.0,224.5,263.5,223.5,271.5,221.5,279.5,219.5,287.5,219.0,295.5,215.5,303.5,212.5,311.5,208.5,320.0,203.5,328.0,193.5" stroke="black" stroke-width="2" fill="none" />
<polyline points="355.5,226.5,359.5,235.0,362.0,235.5" stroke="black" stroke-width="2" fill="none" />
<polyline points="375.0,221.5,367.0,216.5" stroke="black" stroke-width="2" fill="none" />
<polyline points="366.5,216.0,371.5,224.5" stroke="black" stroke-width="2" fill="none" />
<polyline points="381.0,207.0,384.0,205.0,379.5,204.0" stroke="black" stroke-width="2" fill="none" />
<polyline points="379.5,202.5,387.5,207.5" stroke="black" stroke-width="2" fill="none" />
<polyline points="380.0,187.5,377.0,188.5,369.0,196.5,361.0,203.5,351.5,211.0,346.5,217.0,339.0,222.0,331.0,228.0,322.5,239.0,311.5,245.0,303.5,253.5,295.5,260.5,287.5,267.5,279.5,273.0,271.5,284.0" stroke="black" stroke-width="2" fill="none" />
<polyline points="272.0,290.5,279.5,300.5,287.5,308.0,296.0,311.0,304.0,313.5,312.5,311.5,320.5,306.0,329.0,299.0,337.0,289.5,345.5,279.0,353.5,269.0,361.5,259.0,369.5,251.0,377.5,244.0,385.5,236.0,394.5,227.5,403.0,220.5,411.5,214.5,419.5,208.5,427.5,202.0,435.5,197.0,443.5,192.0,451.5,188.0,459.0,188.0,466.5,183.0,474.0,175.0,481.5,174.0,489.5,169.5,497.0,165.5,505.0,158.5" stroke="black" stroke-width="2" fill="none" />
<polyline points="498.0,165.5,507.0,157.5,512.0,149.5" stroke="black" stroke-width="2" fill="none" />
<polyline points="495.0,111.5,487.0,103.5,479.0,100.5" stroke="black" stroke-width="2" fill="none" />
<polyline points="471.0,107.5,476.5,115.5,482.5,123.5,486.0,131.5,483.0,139.5,476.0,147.5,478.5,146.0" stroke="black" stroke-width="2" fill="none" />
<polyline points="481.5,119.5,473.5,114.0" stroke="black" stroke-width="2" fill="none" />
<polyline points="456.0,97.5,464.0,97.5,472.0,97.0,475.0,95.5,483.5,89.0,486.5,91.5,488.5,97.0,496.5,105.0,504.5,112.0" stroke="black" stroke-width="2" fill="none" />
<polyline points="502.5,123.0,499.5,115.0,492.5,107.0,478.5,99.0,482.0,92.0,482.0,84.0" stroke="black" stroke-width="2" fill="none" />
<polyline points="505.0,72.0,496.0,80.0,490.0,87.5,483.0,95.0,491.0,102.5,500.0,110.5,505.5,118.0,504.0,126.0,504.0,134.0,503.0,142.0,499.0,150.0,492.0,158.0,476.5,166.0" stroke="black" stroke-width="2" fill="none" />
<polyline points="473.0,173.5,466.0,181.5" stroke="black" stroke-width="2" fill="none" />
<polyline points="450.5,174.5,443.0,165.5,435.0,158.5,427.5,150.5,419.5,149.5" stroke="black" stroke-width="2" fill="none" />
<polyline points="424.0,149.0,432.0,157.0,441.0,165.0,445.0,172.5,437.5,180.5,429.5,188.5,421.5,196.5,412.5,204.5,404.5,212.5,395.0,220.5,387.0,229.0,378.0,237.0,369.0,245.0,361.5,253.0,352.5,261.5,344.0,269.5,334.5,277.5,325.5,286.0,320.0,291.0,328.0,284.5,336.0,277.5,344.0,269.5,352.0,262.0,360.0,254.5,368.5,246.0,376.5,239.5,384.5,231.0,392.5,224.0,400.5,217.0,409.0,208.5,417.0,201.5,425.0,193.5,433.0,186.0,441.0,178.5,445.0,177.0" stroke="black" stroke-width="2" fill="none" />
<polyline points="449.0,189.0,434.5,196.5,423.5,204.5,411.5,212.0,401.5,220.0,392.0,227.5,384.5,235.5,375.5,244.0,366.5,252.0,359.5,260.0,353.0,268.0,347.0,276.0,341.0,284.5,335.5,292.5,328.5,300.5,318.5,308.5" stroke="black" stroke-width="2" fill="none" />
<polyline points="319.0,275.5,319.0,270.0,311.0,266.0" stroke="black" stroke-width="2" fill="none" />
<polyline points="325.5,255.5,333.5,258.5" stroke="black" stroke-width="2" fill="none" />
<polyline points="326.0,257.5,329.0,261.0,325.0,253.5" stroke="black" stroke-width="2" fill="none" />
<polyline points="340.5,241.5,349.0,246.5,348.0,248.0" stroke="black" stroke-width="2" fill="none" />
<polyline points="346.5,248.0,343.5,248.0,340.0,240.0" stroke="black" stroke-width="2" fill="none" />
<polyline points="339.0,189.5,331.0,202.0,323.5,208.5,316.0,213.5,307.5,217.5,299.5,219.5,291.0,221.0,282.0,223.0,273.5,224.5,266.0,226.5,252.0,227.5,244.0,233.5,236.5,242.5,229.0,251.5,221.0,260.0,212.5,268.5,204.0,276.5,196.0,283.0,188.0,291.0,180.0,298.0,172.0,305.5,164.0,311.5,156.0,317.5,145.5,326.5,137.5,332.0,131.5,335.0,146.5,326.0,158.5,317.0,168.5,308.5,177.5,300.5,186.5,292.5,195.5,284.5,204.5,277.0,212.5,269.0,220.5,260.5,228.5,252.5,235.5,244.0,242.5,235.5,251.0,227.5" stroke="black" stroke-width="2" fill="none" />
<polyline points="246.5,226.5,237.5,234.5,231.0,242.5,223.5,250.5,216.0,258.0,208.0,266.5,199.0,274.5,191.0,282.0,182.0,290.0,173.0,298.5,163.0,306.5,154.0,314.5,142.0,321.0,129.0,329.0,115.0,337.0" stroke="black" stroke-width="2" fill="none" />
<polyline points="83.5,343.5,91.5,343.0,100.0,336.0,108.0,328.0,116.0,321.0,124.0,312.5,131.5,304.5,139.0,297.5,146.5,289.5,154.5,282.5,162.0,275.5,170.5,267.5,178.0,260.5,186.0,253.5,194.0,246.5,202.0,239.0,210.0,232.0,218.5,225.0,226.5,218.0,234.5,211.5,246.0,211.5,253.5,202.5" stroke="black" stroke-width="2" fill="none" />
<polyline points="240.0,207.5,238.0,212.0,247.0,210.5,254.0,202.5,251.0,200.5,239.0,187.0,231.5,179.0,227.5,170.5,226.0,162.5,226.5,154.5,228.5,146.0,233.0,138.0,245.0,130.0,239.0,127.0" stroke="black" stroke-width="2" fill="none" />
<polyline points="231.5,135.5,225.5,143.0,226.5,142.0" stroke="black" stroke-width="2" fill="none" />
<polyline points="227.5,152.0,235.0,138.0,243.0,133.0,250.5,129.0,258.0,124.0,265.5,122.0,273.5,118.0,281.0,118.5,289.0,114.0,297.0,105.0,305.5,107.0,313.0,110.0,315.0,114.5,323.5,123.0" stroke="black" stroke-width="2" fill="none" />
<polyline points="342.5,101.0,335.0,94.5,327.0,87.0" stroke="black" stroke-width="2" fill="none" />
<polyline points="327.5,85.0,336.5,93.0,345.5,100.5,352.5,108.5" stroke="black" stroke-width="2" fill="none" />
<polyline points="371.5,86.0,364.0,80.0,356.0,74.0,348.0,67.5" stroke="black" stroke-width="2" fill="none" />
<polyline points="347.5,65.0,355.5,62.5,363.0,65.0,371.0,72.0,378.5,78.0" stroke="black" stroke-width="2" fill="none" />
<polyline points="392.0,70.5,390.5,62.5,392.5,59.0,388.5,47.0,383.0,58.5,375.5,65.5,373.5,67.5,382.5,59.5,381.0,49.0,373.0,44.5,365.0,47.5,357.0,54.5,349.5,58.5" stroke="black" stroke-width="2" fill="none" />
<polyline points="337.5,69.5,345.5,64.5,337.5,71.0,338.0,73.5,339.5,81.5,348.5,89.5,357.0,97.5,353.5,105.5,353.0,103.5" stroke="black" stroke-width="2" fill="none" />
<polyline points="353.0,92.0,345.5,85.0,337.5,78.0" stroke="black" stroke-width="2" fill="none" />
<polyline points="335.5,76.5,343.5,77.0,351.5,83.0,359.5,89.0,367.5,93.0" stroke="black" stroke-width="2" fill="none" />
<polyline points="364.0,93.0,353.0,85.0,343.0,76.5,327.0,78.5" stroke="black" stroke-width="2" fill="none" />
<polyline points="326.5,82.5,334.5,87.5,342.0,95.5,349.5,101.5" stroke="black" stroke-width="2" fill="none" />
<polyline points="349.0,108.5,341.0,116.0,332.5,124.0,333.5,123.5,341.5,116.0,349.0,108.0,340.0,100.0,331.0,92.0,324.5,83.5" stroke="black" stroke-width="2" fill="none" />
<polyline points="297.5,105.5,291.5,113.5" stroke="black" stroke-width="2" fill="none" />
<polyline points="296.0,113.5,304.5,114.5,309.0,118.5,315.0,115.0,323.5,123.0" stroke="black" stroke-width="2" fill="none" />
<polyline points="296.0,144.5,287.5,134.5,279.0,129.5,271.0,126.5,263.0,124.5" stroke="black" stroke-width="2" fill="none" />
<polyline points="273.0,129.5,287.0,137.5,294.0,145.5,298.0,153.5,299.5,161.5,298.5,169.5,294.0,178.0,285.5,186.5" stroke="black" stroke-width="2" fill="none" />
<polyline points="299.0,156.5,291.0,141.0,283.0,134.5,275.5,130.5,267.5,129.0,259.5,127.5,251.5,128.5" stroke="black" stroke-width="2" fill="none" />
<polyline points="277.5,128.0,289.5,135.5,295.0,144.0,299.0,152.5,300.0,162.5,299.5,170.5,295.5,178.5,287.5,188.0,271.5,196.5" stroke="black" stroke-width="2" fill="none" />
<polyline points="291.5,184.5,284.5,191.0,276.5,195.5,269.0,198.5,261.0,200.5,253.0,199.5,245.0,198.5,237.0,196.0,229.0,187.5,221.0,172.0,213.0,181.0,205.0,183.5,205.5,188.5,197.0,194.5,190.0,198.5,182.0,205.5,171.0,215.5,161.5,223.5,156.0,228.5,170.0,217.5,183.0,208.0,192.5,200.0,200.5,193.0,205.5,185.5,213.0,180.5,219.0,172.5" stroke="black" stroke-width="2" fill="none" />
<polyline points="180.5,240.5,172.5,235.5" stroke="black" stroke-width="2" fill="none" />
<polyline points="172.0,235.0,177.5,243.0" stroke="black" stroke-width="2" fill="none" />
<polyline points="166.5,252.5,158.5,248.5" stroke="black" stroke-width="2" fill="none" />
<polyline points="158.0,247.0,162.0,255.0" stroke="black" stroke-width="2" fill="none" />
<polyline points="152.5,264.5,144.5,260.5" stroke="black" stroke-width="2" fill="none" />
<polyline points="143.5,260.5,149.0,268.5" stroke="black" stroke-width="2" fill="none" />
<polyline points="139.0,276.5,131.5,272.5" stroke="black" stroke-width="2" fill="none" />
<polyline points="131.5,271.5,135.5,279.0" stroke="black" stroke-width="2" fill="none" />
<polyline points="125.0,290.0,117.0,285.0" stroke="black" stroke-width="2" fill="none" />
<polyline points="117.5,284.5,121.5,292.5" stroke="black" stroke-width="2" fill="none" />
<polyline points="110.0,305.0,110.5,302.5,102.5,296.5" stroke="black" stroke-width="2" fill="none" />
<polyline points="102.5,297.0,106.5,305.5,109.5,307.0" stroke="black" stroke-width="2" fill="none" />
<polyline points="104.5,277.0,97.0,283.0,106.0,275.0" stroke="black" stroke-width="2" fill="none" />
<polyline points="104.5,274.5,96.5,281.5,104.5,274.5" stroke="black" stroke-width="2" fill="none" />
<polyline points="297.5,313.5,283.5,305.5,276.5,297.5,273.5,289.0,274.0,281.0,282.0,272.5,290.5,264.5,300.0,256.5,309.5,248.5,316.5,240.0,326.0,234.0,335.5,225.5,346.5,217.5,353.5,209.5,361.5,203.0,370.0,195.0,378.0,187.0,383.0,184.0" stroke="black" stroke-width="2" fill="none" />
<polyline points="394.5,174.0,397.0,167.5" stroke="black" stroke-width="2" fill="none" />
<polyline points="429.5,147.0,431.0,147.0" stroke="black" stroke-width="2" fill="none" />
<polyline points="433.5,143.5,439.5,151.5,447.5,159.5,456.5,165.0" stroke="black" stroke-width="2" fill="none" />
<polyline points="434.5,153.5,429.0,145.5,428.0,141.5" stroke="black" stroke-width="2" fill="none" />
<polyline points="426.0,140.0,415.5,143.0,415.0,149.5,412.5,157.5,413.5,154.0,416.5,141.5,425.0,137.5,432.0,139.0,440.0,148.0,448.5,157.0,457.5,164.0,462.0,168.0,470.0,169.0,477.5,167.0,485.0,164.0,492.5,158.0,500.5,148.0" stroke="black" stroke-width="2" fill="none" />
<polyline points="450.5,97.5,447.5,99.5,440.5,103.5,448.0,98.0,456.5,95.0,464.5,94.0,473.0,91.0,479.5,84.0,487.5,84.0,495.5,79.0,503.5,72.0,506.5,71.5" stroke="black" stroke-width="2" fill="none" />
<polyline points="387.0,35.5,399.0,43.5,408.0,51.5,412.0,59.5,411.5,67.5,407.5,75.5,400.5,83.5,393.5,91.5,386.5,99.5,387.5,111.5,376.5,119.5,362.0,127.5,355.0,135.5,351.5,143.5,348.5,151.0,347.5,159.0,345.5,167.5,343.5,175.5,341.5,183.5,338.0,191.0,334.0,198.5,325.0,207.0,314.0,215.0" stroke="black" stroke-width="2" fill="none" />
</svg>