<svg xmlns="http://www.w3.org/2000/svg" version="1.1"><polyline points="60.5,33.5,62.5,42.0,67.5,50.0,71.0,60.0,76.5,60.5,82.0,64.5" stroke="black" stroke-width="2" fill="none" />
<polyline points="77.5,66.5,69.5,58.5" stroke="black" stroke-width="2" fill="none" />
<polyline points="63.0,62.0,68.0,70.0,76.0,72.5" stroke="black" stroke-width="2" fill="none" />
<polyline points="77.0,61.5,81.0,56.5,76.5,49.0" stroke="black" stroke-width="2" fill="none" />
<polyline points="87.0,51.5,80.0,54.5,73.0,49.5,69.5,53.0,61.5,50.5" stroke="black" stroke-width="2" fill="none" />
<polyline points="59.5,46.0,59.5,48.0,51.5,50.5,48.0,58.5" stroke="black" stroke-width="2" fill="none" />
<polyline points="52.0,46.5,59.5,43.5,67.5,40.5,75.5,42.0,83.5,37.0,99.5,38.0,107.5,45.0" stroke="black" stroke-width="2" fill="none" />
<polyline points="101.0,47.0,99.0,46.5,99.0,38.5" stroke="black" stroke-width="2" fill="none" />
<polyline points="97.0,38.5,95.0,46.0,88.0,49.0,96.0,53.0,99.5,53.0,108.0,56.0,116.0,64.5,125.0,63.5" stroke="black" stroke-width="2" fill="none" />
<polyline points="129.0,56.0,128.5,64.0,133.5,67.0,133.0,69.0,139.0,68.5,143.0,70.5,151.0,72.0,159.5,74.0,168.5,76.0" stroke="black" stroke-width="2" fill="none" />
<polyline points="170.5,91.0,169.5,99.0,171.5,107.0,178.5,119.0,180.5,120.0,183.0,130.5,183.0,139.0,184.5,139.0" stroke="black" stroke-width="2" fill="none" />
<polyline points="177.0,134.5,169.0,134.0,165.0,135.5" stroke="black" stroke-width="2" fill="none" />
<polyline points="180.0,154.0,183.0,161.5" stroke="black" stroke-width="2" fill="none" />
<polyline points="202.0,200.0,210.0,198.0,218.0,200.5,221.0,201.5,229.5,200.0,229.5,203.0,237.0,200.5,245.0,201.5,247.0,204.5,255.0,199.5,263.0,194.5,272.0,187.5" stroke="black" stroke-width="2" fill="none" />
<polyline points="279.0,175.5,286.5,177.5" stroke="black" stroke-width="2" fill="none" />
<polyline points="296.5,182.0,286.5,190.0,285.5,196.0,293.5,197.5,301.5,199.5,309.0,200.5,317.0,201.5,324.5,200.0,332.5,199.0,341.5,192.5,349.5,196.5" stroke="black" stroke-width="2" fill="none" />
<polyline points="347.0,199.0,356.0,207.0" stroke="black" stroke-width="2" fill="none" />
<polyline points="353.5,204.0,361.5,206.0,370.0,206.0,378.0,206.0,386.0,207.0,394.0,207.0,402.0,207.0,410.0,207.0,418.0,207.5,426.5,207.5,434.5,207.5,442.5,207.5,450.0,207.5,458.0,207.5,466.0,207.5,474.0,207.5,482.0,208.5,489.5,208.5,497.5,208.0,505.0,208.0" stroke="black" stroke-width="2" fill="none" />
<polyline points="491.5,194.5,504.5,186.5" stroke="black" stroke-width="2" fill="none" />
<polyline points="509.5,186.0,501.5,188.0,493.0,192.0,485.0,202.5,477.0,203.5,469.0,205.0,460.5,205.0,453.0,205.0,445.5,205.0,438.0,205.0,430.0,204.0,422.5,204.0,414.0,204.0,406.0,203.0,398.0,203.0,390.0,201.5,382.0,201.5,374.0,201.0,366.0,200.5,357.5,200.5,349.5,200.5,341.5,200.5" stroke="black" stroke-width="2" fill="none" />
<polyline points="342.5,203.0,350.5,208.0,358.5,213.0,367.0,222.0,369.0,228.5" stroke="black" stroke-width="2" fill="none" />
<polyline points="363.5,219.5,370.5,227.5,370.5,232.0,369.5,240.0,368.5,248.5,361.0,256.5,355.0,265.0,358.5,273.5,364.5,281.5,367.5,287.0,368.5,295.0,367.5,309.0,359.5,316.0,351.5,318.5,345.5,325.5,347.5,335.5,345.5,340.5,353.5,333.0" stroke="black" stroke-width="2" fill="none" />
<polyline points="335.5,323.0,327.5,323.0" stroke="black" stroke-width="2" fill="none" />
<polyline points="325.5,328.0,333.0,329.0,340.5,329.0" stroke="black" stroke-width="2" fill="none" />
<polyline points="346.5,325.5,339.0,326.5,331.0,326.5,323.0,328.5" stroke="black" stroke-width="2" fill="none" />
<polyline points="326.0,315.0,334.0,316.0,342.5,317.0,355.5,317.5" stroke="black" stroke-width="2" fill="none" />
<polyline points="357.5,321.0,344.5,319.0,336.5,317.0,328.0,316.5,319.5,316.5,311.5,320.5,303.5,317.5" stroke="black" stroke-width="2" fill="none" />
<polyline points="303.5,318.5,311.5,316.5" stroke="black" stroke-width="2" fill="none" />
<polyline points="325.0,313.5,333.0,311.5,340.5,310.5,344.5,306.0,351.0,308.0,359.0,308.5,364.0,305.0,371.5,300.0,371.5,308.0" stroke="black" stroke-width="2" fill="none" />
<polyline points="369.0,297.5,360.0,304.0,360.0,302.0,352.0,302.0,344.0,304.0,335.5,304.0,327.5,303.5,319.5,303.5" stroke="black" stroke-width="2" fill="none" />
<polyline points="348.0,308.0,347.0,316.0,346.0,318.5,347.0,329.5,354.5,326.5,354.0,329.5" stroke="black" stroke-width="2" fill="none" />
<polyline points="365.0,278.5,357.0,275.5" stroke="black" stroke-width="2" fill="none" />
<polyline points="361.5,272.5,353.5,269.5" stroke="black" stroke-width="2" fill="none" />
<polyline points="353.5,266.5,361.5,255.5" stroke="black" stroke-width="2" fill="none" />
<polyline points="347.0,241.5,339.0,244.5,336.0,248.5" stroke="black" stroke-width="2" fill="none" />
<polyline points="355.0,249.0,347.0,251.0,339.0,252.5,330.5,253.5,323.0,254.0,315.0,251.5,306.5,251.0,298.5,250.0" stroke="black" stroke-width="2" fill="none" />
<polyline points="279.0,237.5,287.5,241.0,295.5,236.0,304.0,228.0,312.0,221.0,305.0,227.0,297.0,234.5,297.0,240.0,304.5,240.0,312.5,232.0,315.5,223.0,310.5,230.5,311.5,228.5,317.5,223.5,312.5,231.5,311.5,239.0,319.5,240.0,327.5,239.0,335.5,237.0,343.5,236.5,351.5,233.5,358.5,235.5" stroke="black" stroke-width="2" fill="none" />
<polyline points="345.0,214.0,337.0,211.0,329.5,210.0,321.5,206.0,312.0,206.5,304.0,203.5,296.0,208.5,287.5,214.0,279.5,222.5,271.5,224.5,263.5,224.5,255.5,224.0,246.5,212.0,239.0,212.0,231.0,210.5,223.0,210.0,215.0,210.0,207.0,210.0,200.0,204.5,192.5,205.5,184.5,205.0,177.0,205.0,169.0,205.0,161.0,204.5,153.0,205.0,145.0,205.0,137.0,205.5,128.5,206.0,120.0,206.0,112.0,206.0,103.5,204.5,95.5,205.5,87.5,203.5,79.5,203.5,73.5,204.5,65.5,205.5,58.0,204.5,50.0,204.0,42.0,205.5,34.5,204.5,26.5,206.0,18.5,205.5,10.5,206.5,2.5,205.5" stroke="black" stroke-width="2" fill="none" />
<polyline points="36.0,207.0,44.0,207.5,52.0,207.5,60.0,208.5,68.0,209.0,75.5,209.0,83.5,210.0,91.5,209.0,99.5,208.5,107.5,208.0,115.0,207.5,123.0,208.0,131.0,208.5,138.5,209.0,146.5,210.5,154.5,210.5,162.5,211.0,171.0,210.5,179.0,210.5,187.5,212.0,195.5,214.0,203.5,215.0,212.0,215.5,220.0,215.0,227.5,214.5,236.0,215.5,244.0,215.0" stroke="black" stroke-width="2" fill="none" />
<polyline points="255.5,207.0,263.5,211.0" stroke="black" stroke-width="2" fill="none" />
<polyline points="256.5,227.0,264.5,228.0,273.0,230.0,281.0,232.0,289.0,233.0" stroke="black" stroke-width="2" fill="none" />
<polyline points="285.0,224.0,293.0,220.0,300.5,219.5,308.5,213.5" stroke="black" stroke-width="2" fill="none" />
<polyline points="305.5,204.5,311.5,213.0,310.5,216.5,318.5,214.5" stroke="black" stroke-width="2" fill="none" />
<polyline points="303.0,203.5,292.0,211.5,284.0,219.0" stroke="black" stroke-width="2" fill="none" />
<polyline points="287.5,218.5,285.5,226.5,289.5,228.5" stroke="black" stroke-width="2" fill="none" />
<polyline points="284.0,244.5,276.5,241.0" stroke="black" stroke-width="2" fill="none" />
<polyline points="274.0,247.0,266.0,255.0,259.5,263.5,251.0,272.0,243.5,280.0,247.5,275.0,256.0,267.0,264.0,258.0,272.0,249.0,279.5,248.0,287.0,250.0,295.5,253.0,303.5,255.5,311.5,258.0" stroke="black" stroke-width="2" fill="none" />
<polyline points="325.0,248.0,311.0,245.0,303.0,244.5,300.0,246.5,292.0,247.5,284.0,247.0,276.0,245.0,268.0,247.0,260.0,247.0,248.0,252.0,240.0,256.0,232.0,258.0,223.5,262.0,211.5,267.0,204.5,266.0,196.0,269.5,187.0,274.5,179.0,279.0,171.0,282.0,163.5,285.0,156.0,285.5,148.0,284.5,140.0,283.5,132.0,282.5" stroke="black" stroke-width="2" fill="none" />
<polyline points="129.5,275.0,137.5,276.0" stroke="black" stroke-width="2" fill="none" />
<polyline points="118.0,271.5,126.0,273.0,134.0,273.0,142.0,266.5,150.0,259.0,151.0,261.5,159.0,256.5" stroke="black" stroke-width="2" fill="none" />
<polyline points="164.5,254.5,152.5,263.0,141.0,269.0,141.0,273.0" stroke="black" stroke-width="2" fill="none" />
<polyline points="149.5,255.5,142.5,257.5,142.5,265.5,148.5,254.5,156.0,256.0,164.0,253.0,171.5,248.5,180.5,245.5,188.5,245.0,196.5,243.5,204.5,240.5,212.0,239.5,220.0,237.5,228.5,236.5,236.5,234.5" stroke="black" stroke-width="2" fill="none" />
<polyline points="234.5,226.0,226.5,223.0,218.5,223.5,210.5,221.5,202.0,217.0,194.0,216.0" stroke="black" stroke-width="2" fill="none" />
<polyline points="206.0,242.5,201.0,249.0,197.5,248.0,189.5,247.0" stroke="black" stroke-width="2" fill="none" />
<polyline points="178.0,255.0,186.0,257.0,194.0,257.0,202.0,255.0,210.0,248.0,218.5,248.0,226.5,245.0,234.0,239.0" stroke="black" stroke-width="2" fill="none" />
<polyline points="231.5,232.5,228.5,230.0,220.5,233.0,216.0,231.5,208.0,233.5,204.0,233.0,195.5,235.5,187.5,234.5,179.0,237.0,171.0,237.0" stroke="black" stroke-width="2" fill="none" />
<polyline points="187.5,235.5,174.5,234.0,166.5,236.0,158.0,237.5,150.0,237.5,142.5,239.5,134.5,241.5,127.0,249.5,118.5,253.5,112.5,255.0,104.5,255.5,96.5,263.0,102.5,263.0,107.5,255.5,115.5,257.5,123.0,251.5,131.0,245.5,133.5,245.5" stroke="black" stroke-width="2" fill="none" />
<polyline points="111.0,258.0,104.0,266.0,100.0,265.0" stroke="black" stroke-width="2" fill="none" />
<polyline points="110.0,260.5,102.0,271.0,97.5,270.0,98.5,262.0,106.5,254.0" stroke="black" stroke-width="2" fill="none" />
<polyline points="108.0,294.0,97.0,295.0,95.5,297.0" stroke="black" stroke-width="2" fill="none" />
<polyline points="95.5,307.0,104.0,307.0" stroke="black" stroke-width="2" fill="none" />
<polyline points="130.0,317.0,138.5,315.0,146.5,313.5,159.5,314.0,167.5,315.0,175.5,315.0,183.0,315.0,190.5,315.0,198.0,316.0,206.0,316.0,213.5,320.0" stroke="black" stroke-width="2" fill="none" />
<polyline points="209.5,322.5,217.5,325.5" stroke="black" stroke-width="2" fill="none" />
<polyline points="219.5,333.5,211.0,335.0,203.0,333.5" stroke="black" stroke-width="2" fill="none" />
<polyline points="201.5,333.5,209.5,336.0" stroke="black" stroke-width="2" fill="none" />
<polyline points="218.5,329.5,214.0,330.5,206.0,330.5,198.0,334.5,195.5,336.5" stroke="black" stroke-width="2" fill="none" />
<polyline points="188.0,322.0,180.0,322.5,172.5,321.5" stroke="black" stroke-width="2" fill="none" />
<polyline points="172.5,336.5,164.0,335.5" stroke="black" stroke-width="2" fill="none" />
<polyline points="156.5,340.5,164.5,339.5,172.5,339.5" stroke="black" stroke-width="2" fill="none" />
<polyline points="175.5,334.5,167.5,334.5,159.5,335.5,151.5,334.5" stroke="black" stroke-width="2" fill="none" />
<polyline points="149.5,330.0,157.5,330.0,166.0,331.0" stroke="black" stroke-width="2" fill="none" />
<polyline points="173.5,309.5,172.5,305.5,164.5,306.5" stroke="black" stroke-width="2" fill="none" />
<polyline points="162.5,304.5,170.5,303.5,172.0,307.0,179.5,305.0" stroke="black" stroke-width="2" fill="none" />
<polyline points="168.5,286.5,176.0,284.5,186.5,278.5,194.5,279.5,201.5,271.5,209.5,269.5" stroke="black" stroke-width="2" fill="none" />
<polyline points="226.5,258.0,217.5,261.5,224.5,254.5,232.0,249.5,240.0,247.0,248.0,244.0,256.0,242.5,265.5,238.5,273.5,238.0,281.5,236.0,289.0,236.0" stroke="black" stroke-width="2" fill="none" />
<polyline points="270.0,238.5,259.5,246.5,237.0,249.5,224.0,259.0,209.0,263.5,192.0,271.0,185.5,279.0,186.5,281.5,194.5,280.5" stroke="black" stroke-width="2" fill="none" />
<polyline points="174.5,277.5,166.5,279.0" stroke="black" stroke-width="2" fill="none" />
<polyline points="189.5,311.0,180.5,310.5,178.5,316.5,170.5,316.5,162.5,317.0,153.0,322.0,144.5,322.0,136.0,322.0" stroke="black" stroke-width="2" fill="none" />
<polyline points="135.5,324.5,143.5,324.5,151.5,326.5,160.0,327.0,168.0,328.0,176.0,327.0,184.0,329.5" stroke="black" stroke-width="2" fill="none" />
<polyline points="184.5,327.5,180.5,319.5,173.0,319.0,165.0,320.0,157.0,320.0,149.0,320.5,141.0,320.5,132.5,325.5" stroke="black" stroke-width="2" fill="none" />
<polyline points="136.0,339.0,128.0,339.0" stroke="black" stroke-width="2" fill="none" />
<polyline points="126.5,338.5,134.5,338.5,142.5,340.0,153.5,339.0,161.5,340.0,164.5,333.0,172.5,333.0,181.0,332.0,189.0,325.0,194.5,318.0,197.5,322.5,201.5,324.0,211.5,321.5,213.5,323.0,222.0,324.0,225.0,330.0" stroke="black" stroke-width="2" fill="none" />
<polyline points="284.0,332.0,292.0,330.0,300.0,329.5,308.5,331.5,317.0,334.0,325.5,333.0,333.5,334.0,342.0,334.0" stroke="black" stroke-width="2" fill="none" />
<polyline points="305.5,334.0,297.5,331.0" stroke="black" stroke-width="2" fill="none" />
<polyline points="296.5,337.0,304.5,337.0" stroke="black" stroke-width="2" fill="none" />
<polyline points="303.5,340.0,295.0,339.0" stroke="black" stroke-width="2" fill="none" />
<polyline points="286.0,341.5,293.5,340.0,297.5,334.5,303.5,334.5,307.5,337.5,311.5,340.0,320.5,337.0,328.0,338.5,336.0,337.5,344.5,337.5,348.5,330.5" stroke="black" stroke-width="2" fill="none" />
<polyline points="318.0,338.0,314.0,328.0,306.0,325.5,298.0,323.5" stroke="black" stroke-width="2" fill="none" />
<polyline points="288.5,323.5,296.5,326.5,304.5,323.0,312.0,323.0,313.0,325.5,321.5,319.5,329.0,319.5,336.5,320.0,348.5,320.0,356.5,323.0,357.5,314.5,369.0,309.0" stroke="black" stroke-width="2" fill="none" />
<polyline points="311.0,259.5,302.5,259.5,294.5,260.5,287.0,261.5,280.0,262.5,272.0,264.5,264.0,266.5,256.0,270.0,248.0,277.0,246.5,278.0,254.5,270.0" stroke="black" stroke-width="2" fill="none" />
<polyline points="249.0,252.0,257.5,244.0" stroke="black" stroke-width="2" fill="none" />
<polyline points="270.5,228.0,279.5,241.0,299.5,254.0" stroke="black" stroke-width="2" fill="none" />
<polyline points="309.0,195.5,317.0,193.5,310.5,192.5,314.5,191.5,322.5,189.5,332.5,185.5,340.5,187.0" stroke="black" stroke-width="2" fill="none" />
<polyline points="345.5,197.5,345.0,206.0,358.5,214.0,361.5,222.0,360.5,229.5,366.5,236.5,355.5,241.5,363.5,244.5" stroke="black" stroke-width="2" fill="none" />
<polyline points="356.5,245.5,352.0,228.0,352.0,219.5,350.0,211.5" stroke="black" stroke-width="2" fill="none" />
<polyline points="341.0,211.5,347.0,219.5,348.5,227.5,352.5,237.5,349.5,239.5,351.5,245.0,347.0,248.0,350.5,243.0,361.5,241.0,370.5,234.5" stroke="black" stroke-width="2" fill="none" />
<polyline points="361.5,180.0,353.5,180.5,345.0,179.0,337.0,179.0,329.0,180.0,321.5,179.5,313.5,177.5,305.0,176.5" stroke="black" stroke-width="2" fill="none" />
<polyline points="299.0,166.0,291.0,165.5" stroke="black" stroke-width="2" fill="none" />
<polyline points="300.0,140.5,308.0,141.5,316.0,141.0" stroke="black" stroke-width="2" fill="none" />
<polyline points="324.0,136.5,316.0,136.5,307.5,134.5,299.5,137.0" stroke="black" stroke-width="2" fill="none" />
<polyline points="311.0,180.0,303.0,181.0,295.0,182.0,286.5,188.0,272.5,191.0,264.5,196.0,257.0,200.0,258.0,203.0,266.0,195.0,273.5,187.5,284.0,179.5,280.0,181.0,272.0,182.0,264.5,179.5,256.0,172.5" stroke="black" stroke-width="2" fill="none" />
<polyline points="256.5,171.5,264.0,171.5,272.5,174.0,280.5,173.0,288.5,167.0,290.0,173.0,297.5,172.0,304.5,168.5,310.5,173.0,318.0,170.5,326.5,172.5" stroke="black" stroke-width="2" fill="none" />
<polyline points="259.0,164.5,251.0,161.5" stroke="black" stroke-width="2" fill="none" />
<polyline points="246.5,162.5,254.5,168.0,262.5,167.5,270.5,165.0,279.0,163.0,287.0,164.0,295.0,164.0,303.5,164.0,311.5,164.0,319.5,167.0,327.5,169.5" stroke="black" stroke-width="2" fill="none" />
<polyline points="238.5,203.0,234.5,197.0,226.5,195.5" stroke="black" stroke-width="2" fill="none" />
<polyline points="231.5,223.5,240.5,233.5,231.5,241.0" stroke="black" stroke-width="2" fill="none" />
<polyline points="132.5,169.0,124.5,165.0" stroke="black" stroke-width="2" fill="none" />
<polyline points="130.0,121.0,137.5,117.0" stroke="black" stroke-width="2" fill="none" />
<polyline points="139.0,119.5,145.5,113.5,142.5,113.5,146.0,114.0,140.5,119.5,138.5,119.0,138.0,114.0,140.0,106.0,138.0,108.5" stroke="black" stroke-width="2" fill="none" />
<polyline points="143.0,95.0,151.5,95.0,159.5,91.0,167.5,81.5,176.5,81.5,172.0,89.5,183.0,94.5,190.0,102.5,181.5,103.5" stroke="black" stroke-width="2" fill="none" />
<polyline points="165.0,108.5,157.0,100.5" stroke="black" stroke-width="2" fill="none" />
<polyline points="161.5,84.5,154.0,84.0,149.0,83.0,150.0,75.0" stroke="black" stroke-width="2" fill="none" />
<polyline points="152.5,62.5,167.5,70.5,169.5,76.5,165.5,84.5,156.5,92.5,169.0,89.5,171.0,93.0,180.0,95.0" stroke="black" stroke-width="2" fill="none" />
<polyline points="119.0,112.0,121.0,116.0,119.5,119.0,127.5,125.0,131.5,135.5,132.5,134.5,129.0,136.0" stroke="black" stroke-width="2" fill="none" />
<polyline points="111.5,122.5,114.0,114.5,117.5,106.5,110.0,106.0" stroke="black" stroke-width="2" fill="none" />
<polyline points="108.5,105.0,109.5,113.0,108.5,121.0,109.0,129.0,113.0,129.0,112.5,125.0" stroke="black" stroke-width="2" fill="none" />
<polyline points="100.0,112.0,98.0,104.0,95.5,104.0,102.5,103.0,95.5,99.0" stroke="black" stroke-width="2" fill="none" />
<polyline points="103.0,94.5,111.0,92.5,126.0,94.5,130.5,96.5" stroke="black" stroke-width="2" fill="none" />
<polyline points="98.0,116.5,95.0,109.0,88.0,108.0,87.0,99.5,89.0,99.0,80.0,97.0" stroke="black" stroke-width="2" fill="none" />
<polyline points="115.5,63.5,109.0,55.5" stroke="black" stroke-width="2" fill="none" />
<polyline points="123.5,62.5,127.5,55.0" stroke="black" stroke-width="2" fill="none" />
<polyline points="135.0,52.5,126.0,44.5,109.0,36.5" stroke="black" stroke-width="2" fill="none" />
<polyline points="91.5,42.0,84.5,45.0,76.5,45.5,68.5,48.0,62.5,39.0,57.5,33.0,46.0,27.0,32.5,33.0,24.5,33.0" stroke="black" stroke-width="2" fill="none" />
<polyline points="21.0,44.0,29.0,47.0,28.5,51.0,32.5,59.0" stroke="black" stroke-width="2" fill="none" />
<polyline points="25.5,59.5,21.5,54.5,14.0,51.5,5.5,45.5" stroke="black" stroke-width="2" fill="none" />
<polyline points="3.5,44.5,12.0,43.5,6.0,46.5,13.5,54.5,21.5,58.5,32.5,61.5,40.5,61.0,49.5,60.5,58.0,63.0,66.5,62.0,74.5,68.5,82.5,73.5,90.5,74.5,98.5,77.0,106.0,81.5,116.0,87.5,124.5,92.5,132.5,88.0,137.5,95.0,144.5,100.0,152.0,101.0,160.5,103.0,168.5,109.0,172.5,95.0,177.5,102.5,180.0,108.0,184.0,109.0,193.0,105.0,201.0,113.0,208.0,121.5,215.0,129.5,224.0,138.0,231.0,146.0,240.0,154.5,247.5,162.5,259.5,174.5,270.5,183.0,268.5,191.5,255.0,199.5,262.0,209.0" stroke="black" stroke-width="2" fill="none" />
<polyline points="329.5,153.0,321.5,155.5,313.5,157.0,306.0,158.0,298.0,156.5,290.0,156.0,281.5,157.0,273.5,158.0,265.5,157.0,257.0,156.0,249.0,156.0,241.5,153.5,233.5,147.0,225.5,139.0,217.5,131.0,210.0,122.5,202.5,114.5,195.0,105.5,187.0,96.0,179.5,84.0,171.5,72.5,163.5,67.5,155.0,63.5,147.0,60.5,139.0,55.5,130.5,47.5,122.0,42.0,114.0,39.5,105.5,37.0,97.0,35.0,88.5,32.0,80.5,30.0,72.5,28.0,64.5,26.0,57.0,25.0,49.5,23.5,42.0,24.0,34.0,21.5,26.0,20.0,18.0,18.0,9.5,17.5,1.0,17.5" stroke="black" stroke-width="2" fill="none" />
<polyline points="488.5,163.0,482.0,170.5,484.0,166.5,492.0,164.5" stroke="black" stroke-width="2" fill="none" />
</svg>