<svg xmlns="http://www.w3.org/2000/svg" version="1.1"><polyline points="209.0,3.0,211.0,11.0,208.0,19.0,201.0,27.0" stroke="black" stroke-width="2" fill="none" />
<polyline points="212.5,4.0,220.5,3.0" stroke="black" stroke-width="2" fill="none" />
<polyline points="247.5,17.5,256.0,9.5,252.0,12.5,248.0,21.0,255.0,23.0,254.5,24.5,261.5,23.0" stroke="black" stroke-width="2" fill="none" />
<polyline points="272.5,17.0,272.0,9.0,273.0,1.0" stroke="black" stroke-width="2" fill="none" />
<polyline points="262.0,2.5,264.0,10.5,262.0,18.0" stroke="black" stroke-width="2" fill="none" />
<polyline points="294.5,20.5,300.0,29.5,294.0,31.0,297.5,30.5" stroke="black" stroke-width="2" fill="none" />
<polyline points="300.0,44.5,308.0,45.5,316.0,55.5,316.5,66.0,313.5,74.0,311.0,82.0,310.0,89.5,316.0,89.5,317.0,94.5" stroke="black" stroke-width="2" fill="none" />
<polyline points="318.5,87.5,317.0,91.5,318.0,99.5,319.0,107.5,324.0,115.5,323.0,124.5,312.5,133.5,319.0,130.0,328.0,129.0,334.0,130.5,337.5,130.5" stroke="black" stroke-width="2" fill="none" />
<polyline points="349.5,125.5,358.0,130.0,365.5,131.0,373.5,132.5,382.0,134.5,390.0,136.5" stroke="black" stroke-width="2" fill="none" />
<polyline points="397.5,145.5,398.0,153.5,394.0,154.0,389.0,159.0,392.0,160.5,390.0,168.5,391.0,176.5,401.0,178.5,402.5,190.5,398.5,196.5,397.5,193.0,403.5,198.0,413.0,196.0,416.0,205.5,425.0,208.5,430.0,222.5,438.5,218.5,446.5,212.5,455.5,203.5,464.5,204.5,465.5,208.0,475.0,206.0,482.0,207.0,486.0,220.0,486.5,223.0" stroke="black" stroke-width="2" fill="none" />
<polyline points="478.5,233.0,485.5,233.0,487.0,230.5,479.0,240.5" stroke="black" stroke-width="2" fill="none" />
<polyline points="480.0,242.5,488.0,244.5,497.0,248.5,500.0,256.5,503.5,264.5" stroke="black" stroke-width="2" fill="none" />
<polyline points="507.0,268.0,499.5,269.0,494.0,265.0,487.0,262.0,481.0,268.0,480.0,279.0,482.0,275.0,487.5,267.5,487.5,259.5,482.5,258.5,487.0,250.5,476.5,247.0,484.5,230.5,485.5,224.5,481.0,223.5,479.0,216.5,471.0,218.5,461.0,221.5,458.0,209.5,446.5,202.0,438.5,192.5,434.5,178.5,422.0,176.5,418.5,168.0,413.0,166.0,400.5,160.0" stroke="black" stroke-width="2" fill="none" />
<polyline points="395.5,157.0,397.5,165.0,393.5,172.5,397.0,176.5,400.0,182.5" stroke="black" stroke-width="2" fill="none" />
<polyline points="413.0,182.0,402.5,188.5,390.0,182.5,382.5,172.5,379.5,168.5,378.5,157.0,370.5,157.0" stroke="black" stroke-width="2" fill="none" />
<polyline points="369.5,158.0,378.0,155.5,386.0,162.0,395.5,165.5" stroke="black" stroke-width="2" fill="none" />
<polyline points="406.0,156.5,414.5,156.5" stroke="black" stroke-width="2" fill="none" />
<polyline points="421.0,162.0,428.5,171.0,430.5,179.0,434.0,187.0,435.0,194.0,436.0,202.0,436.0,208.0,444.0,204.0,441.0,212.0,441.0,218.5,443.5,231.5" stroke="black" stroke-width="2" fill="none" />
<polyline points="447.0,236.0,452.0,235.0,447.5,227.0,444.0,220.0,460.0,213.0,459.0,208.0,459.5,199.0,451.5,194.0,452.0,188.0,455.5,180.5,452.5,172.5,450.0,170.5,446.0,181.5" stroke="black" stroke-width="2" fill="none" />
<polyline points="455.0,177.0,460.0,181.0,458.5,189.0,453.5,193.5,461.5,184.5,463.5,183.0,472.5,187.0,476.5,189.5,479.5,200.0,480.5,209.0" stroke="black" stroke-width="2" fill="none" />
<polyline points="476.0,224.0,473.5,222.0,473.5,222.0,467.5,219.5,470.5,211.0,476.5,203.0,475.0,195.0,472.0,187.5,470.0,179.5,459.0,176.5" stroke="black" stroke-width="2" fill="none" />
<polyline points="465.5,175.5,473.5,184.0" stroke="black" stroke-width="2" fill="none" />
<polyline points="488.0,193.0,496.0,216.0,504.0,234.5,510.5,251.5" stroke="black" stroke-width="2" fill="none" />
<polyline points="495.5,263.5,491.5,266.0,488.5,271.5,491.0,279.5,487.5,286.5,477.5,291.0,485.5,289.0,493.5,289.5,498.0,290.5,506.0,289.5,506.0,292.5" stroke="black" stroke-width="2" fill="none" />
<polyline points="507.5,281.0,506.5,279.0,498.5,270.5,494.5,271.5,486.5,270.5" stroke="black" stroke-width="2" fill="none" />
<polyline points="481.5,279.5,489.5,283.5,497.5,282.5,490.5,294.5,497.0,305.0,496.0,313.0" stroke="black" stroke-width="2" fill="none" />
<polyline points="493.0,315.5,492.0,307.0" stroke="black" stroke-width="2" fill="none" />
<polyline points="488.5,307.0,503.0,304.0,508.5,312.5,503.5,322.5,502.5,331.0,506.5,339.0" stroke="black" stroke-width="2" fill="none" />
<polyline points="508.0,339.0,500.0,333.0" stroke="black" stroke-width="2" fill="none" />
<polyline points="503.0,323.5,511.5,318.5" stroke="black" stroke-width="2" fill="none" />
<polyline points="503.5,305.5,495.5,297.5,492.0,290.5,484.0,291.5" stroke="black" stroke-width="2" fill="none" />
<polyline points="464.5,283.5,456.5,276.5" stroke="black" stroke-width="2" fill="none" />
<polyline points="455.5,272.0,460.5,281.0,465.0,289.5,465.0,288.0" stroke="black" stroke-width="2" fill="none" />
<polyline points="435.5,289.0,431.5,297.0,428.0,305.0,425.0,307.5,433.0,294.5" stroke="black" stroke-width="2" fill="none" />
<polyline points="420.5,296.0,418.0,303.5" stroke="black" stroke-width="2" fill="none" />
<polyline points="408.5,333.0,406.0,341.5,408.5,335.5" stroke="black" stroke-width="2" fill="none" />
<polyline points="391.5,280.0,391.5,271.5,385.5,269.5,393.0,262.0,390.0,261.0" stroke="black" stroke-width="2" fill="none" />
<polyline points="395.0,269.0,395.0,264.0,398.5,256.0,406.5,258.5" stroke="black" stroke-width="2" fill="none" />
<polyline points="426.0,249.5,418.0,232.5" stroke="black" stroke-width="2" fill="none" />
<polyline points="416.0,235.5,417.5,243.0,413.5,244.5,418.5,252.0,417.0,256.5,425.0,262.0,423.5,270.0,421.0,270.0,415.0,277.5,406.0,286.5" stroke="black" stroke-width="2" fill="none" />
<polyline points="392.5,280.5,384.5,281.5,381.5,279.0,373.5,278.0" stroke="black" stroke-width="2" fill="none" />
<polyline points="368.5,269.5,376.5,268.0" stroke="black" stroke-width="2" fill="none" />
<polyline points="376.0,252.5,374.0,260.0,370.5,263.5,378.0,256.5,382.0,249.5,395.5,253.5,403.0,253.0,406.0,250.5,413.5,256.0" stroke="black" stroke-width="2" fill="none" />
<polyline points="418.5,239.0,411.5,239.0,403.5,243.5,391.5,250.5,383.0,244.0" stroke="black" stroke-width="2" fill="none" />
<polyline points="385.5,244.0,384.5,251.5,380.5,247.5,386.5,253.5,380.5,256.5,371.5,264.5,373.5,275.0,382.0,277.5,384.0,283.0,388.0,284.0,387.0,294.0,391.0,288.0,392.5,293.0,393.5,295.0,401.0,296.5,409.0,305.5" stroke="black" stroke-width="2" fill="none" />
<polyline points="468.5,338.5,463.5,330.5,458.0,322.5,452.5,314.5,448.5,306.5,444.0,298.5,440.5,290.0,433.5,288.0,425.5,299.5,422.5,302.5,419.5,314.0,420.0,313.0,419.5,304.0,427.0,296.0,431.5,288.0,434.5,280.5,430.0,273.0,430.5,267.0,429.0,259.0,427.5,251.0,423.5,246.0,423.5,238.0,413.5,236.0,411.5,227.0,411.5,223.0,412.0,212.5,420.0,201.5,419.0,187.5,410.0,184.5,408.0,179.5,405.0,172.0,413.0,164.0,416.0,155.0,421.0,144.0,419.5,136.0,414.5,128.0,416.5,121.5,415.5,113.0,413.5,105.0,412.0,97.0,413.0,89.5,413.0,81.5,415.0,73.5,405.0,71.5,407.0,65.5,406.0,57.0,405.0,49.0,403.0,41.0,398.0,33.0,395.0,25.5,381.5,14.5,376.5,7.0,376.5,4.0" stroke="black" stroke-width="2" fill="none" />
<polyline points="378.5,6.5,384.5,14.5,396.5,18.0,397.5,31.5" stroke="black" stroke-width="2" fill="none" />
<polyline points="415.0,31.5,420.0,39.5,424.0,43.0,432.0,53.0" stroke="black" stroke-width="2" fill="none" />
<polyline points="431.0,39.0,430.0,36.0,426.0,27.0,417.0,23.0,409.0,11.5,404.5,9.5,404.0,5.5,403.0,4.0" stroke="black" stroke-width="2" fill="none" />
<polyline points="411.0,3.5,423.0,5.5,426.5,13.5,429.5,21.5,432.0,25.0,436.0,32.5,444.0,36.5,449.0,46.5,453.0,54.5,450.0,62.5,452.0,67.0,449.0,68.0,450.0,76.5,446.5,84.5,447.0,93.0,446.0,101.0,455.0,104.0,454.0,110.5,453.5,118.5,445.5,122.5,446.5,131.5,447.0,142.5,448.0,135.0" stroke="black" stroke-width="2" fill="none" />
<polyline points="433.5,133.0,436.0,129.0,439.0,121.0,441.0,113.0,437.0,104.5,443.0,104.0,431.0,95.0" stroke="black" stroke-width="2" fill="none" />
<polyline points="423.0,90.5,431.5,78.5,438.5,87.0,438.5,101.0,444.5,107.0" stroke="black" stroke-width="2" fill="none" />
<polyline points="456.0,98.0,447.5,97.0,452.5,93.0,450.0,85.0,453.0,76.5,450.5,87.0" stroke="black" stroke-width="2" fill="none" />
<polyline points="460.5,83.5,461.5,91.5" stroke="black" stroke-width="2" fill="none" />
<polyline points="463.5,93.5,456.0,93.5,458.5,85.5,459.0,77.5" stroke="black" stroke-width="2" fill="none" />
<polyline points="461.0,74.5,458.0,82.0,454.0,90.0,461.5,95.0,453.0,102.0,461.0,105.0,458.0,113.5,457.0,121.0,464.0,124.5,466.0,121.0" stroke="black" stroke-width="2" fill="none" />
<polyline points="482.5,113.5,494.5,107.0,494.5,114.5,490.5,117.5" stroke="black" stroke-width="2" fill="none" />
<polyline points="488.0,147.5,479.5,155.5" stroke="black" stroke-width="2" fill="none" />
<polyline points="457.5,169.0,466.0,175.5,469.0,184.0,463.5,187.5,466.0,190.0,467.0,199.0,475.0,209.5,483.5,210.5" stroke="black" stroke-width="2" fill="none" />
<polyline points="466.0,215.0,464.0,207.0" stroke="black" stroke-width="2" fill="none" />
<polyline points="452.5,211.5,444.5,221.0,436.5,223.0" stroke="black" stroke-width="2" fill="none" />
<polyline points="435.5,216.0,443.5,209.0" stroke="black" stroke-width="2" fill="none" />
<polyline points="449.5,199.5,451.0,208.0,454.0,220.5,459.5,224.5,463.0,225.5" stroke="black" stroke-width="2" fill="none" />
<polyline points="472.0,232.5,471.0,237.5,470.0,245.0,471.0,248.0,481.0,251.5,489.0,252.5" stroke="black" stroke-width="2" fill="none" />
<polyline points="437.0,231.0,436.0,217.0,439.0,203.5,440.0,195.5,442.0,187.0,448.0,188.5,447.0,180.0,447.5,172.0,443.5,176.5,435.5,172.0" stroke="black" stroke-width="2" fill="none" />
<polyline points="436.0,164.0,432.0,165.5,423.5,166.0,416.0,161.5,408.0,166.0,398.0,169.0,393.5,152.5,386.5,146.5,382.0,147.5,373.5,147.5,372.5,144.5,365.0,149.0,365.0,144.0" stroke="black" stroke-width="2" fill="none" />
<polyline points="330.5,144.5,330.5,138.0,330.5,144.5,332.0,152.5,338.0,153.0,342.5,156.5,349.5,165.5,350.5,173.5,340.5,176.0,341.0,186.0,339.0,194.0,343.0,202.0,337.0,210.0,343.5,207.0,347.5,212.5,355.5,206.0,360.5,213.0,368.5,224.5,371.5,232.5,373.0,240.0,379.5,229.0" stroke="black" stroke-width="2" fill="none" />
<polyline points="391.0,239.5,379.0,235.0,367.5,247.0,366.5,247.0,364.5,239.0,363.5,231.0" stroke="black" stroke-width="2" fill="none" />
<polyline points="360.5,229.0,352.5,238.0,347.0,246.5,352.5,238.5,358.5,230.5" stroke="black" stroke-width="2" fill="none" />
<polyline points="362.5,210.5,355.0,208.0" stroke="black" stroke-width="2" fill="none" />
<polyline points="354.0,202.5,346.0,201.5" stroke="black" stroke-width="2" fill="none" />
<polyline points="346.5,194.0,355.0,196.0,356.0,187.5" stroke="black" stroke-width="2" fill="none" />
<polyline points="347.0,190.0,354.0,183.0,352.5,190.5,355.0,191.0,353.0,199.0,357.0,199.5,362.0,205.5,368.0,208.0,365.0,216.0,358.0,224.5,353.0,232.5,347.5,240.5,348.5,239.0,356.5,227.0,364.5,217.0,372.5,210.5,376.5,203.0,387.0,188.5" stroke="black" stroke-width="2" fill="none" />
<polyline points="381.0,182.0,382.0,190.0,380.5,198.0,377.5,205.5,379.0,208.0,376.0,216.0,379.0,224.0,378.5,232.5,381.0,239.5,388.5,243.0,391.5,245.0,395.0,251.0,401.5,252.0,401.5,259.0,394.0,268.5,402.0,271.0,398.5,283.0,399.0,289.5,404.0,301.5" stroke="black" stroke-width="2" fill="none" />
<polyline points="428.0,267.0,419.5,263.0,411.5,267.5,420.0,273.0,412.0,278.0,404.0,279.5,398.0,272.5,395.0,274.5,387.0,269.0,378.0,271.0,373.0,265.0,367.5,262.0,362.5,264.5,356.5,256.5,362.5,248.5,360.0,240.5,360.0,232.0,364.0,224.0,360.0,214.5,355.0,209.5,346.0,211.5,349.0,203.5,349.0,197.5,343.0,189.0,335.0,185.0" stroke="black" stroke-width="2" fill="none" />
<polyline points="348.0,181.5,346.0,181.0,342.5,177.0,341.5,172.5,333.5,176.5,332.5,180.5,330.5,184.5,327.5,181.5,319.5,181.5" stroke="black" stroke-width="2" fill="none" />
<polyline points="308.0,193.0,307.0,201.0,303.0,209.0,301.0,218.0,304.0,223.5" stroke="black" stroke-width="2" fill="none" />
<polyline points="314.0,223.0,322.0,221.5" stroke="black" stroke-width="2" fill="none" />
<polyline points="319.0,206.0,323.0,206.5,325.0,214.5,324.5,223.0,327.0,226.0,332.0,234.5,337.5,242.5,342.5,250.0,342.5,257.5,347.0,258.5,355.0,256.5,363.0,258.5,365.5,254.5,374.0,252.5,381.5,257.0,389.5,252.5,397.5,247.5,405.5,245.5,413.5,241.5,415.0,253.0" stroke="black" stroke-width="2" fill="none" />
<polyline points="413.0,235.0,403.0,243.0,410.0,250.5,413.0,253.5,412.0,266.5,409.5,274.5" stroke="black" stroke-width="2" fill="none" />
<polyline points="423.0,231.5,415.0,232.5,412.0,232.0,404.0,242.0,398.5,234.0,398.5,244.5,408.0,237.0,414.0,229.0,420.5,217.5,417.5,209.5,417.0,198.5" stroke="black" stroke-width="2" fill="none" />
<polyline points="414.5,195.5,408.5,198.0,410.5,206.5,416.0,201.0,414.0,213.5,421.0,211.0" stroke="black" stroke-width="2" fill="none" />
<polyline points="409.0,223.0,401.0,229.0" stroke="black" stroke-width="2" fill="none" />
<polyline points="402.0,212.5,404.0,220.5,411.5,215.0,419.5,218.0" stroke="black" stroke-width="2" fill="none" />
<polyline points="424.5,188.5,421.5,184.5,414.5,178.5,412.5,168.5,404.5,175.5,398.5,170.5,404.0,153.0,402.0,151.0,410.5,148.5,404.0,145.5,401.0,150.5" stroke="black" stroke-width="2" fill="none" />
<polyline points="415.5,167.5,417.5,175.5,421.0,183.0" stroke="black" stroke-width="2" fill="none" />
<polyline points="444.5,164.5,445.5,173.0,438.0,176.0,437.0,184.5,441.0,189.5,448.0,197.5,448.0,205.5,454.5,207.5,453.5,213.0,459.5,220.5,455.0,233.5" stroke="black" stroke-width="2" fill="none" />
<polyline points="390.5,205.5,383.5,203.5,375.5,206.0" stroke="black" stroke-width="2" fill="none" />
<polyline points="384.0,206.0,380.0,214.0" stroke="black" stroke-width="2" fill="none" />
<polyline points="389.0,209.0,391.0,217.0" stroke="black" stroke-width="2" fill="none" />
<polyline points="393.5,213.0,390.5,205.0" stroke="black" stroke-width="2" fill="none" />
<polyline points="428.5,136.5,422.0,131.5,412.0,124.5" stroke="black" stroke-width="2" fill="none" />
<polyline points="420.0,119.0,433.0,129.0" stroke="black" stroke-width="2" fill="none" />
<polyline points="434.0,135.0,434.0,137.0,432.5,129.5,430.0,121.5,428.5,113.5,427.5,105.5,425.0,97.5,430.0,95.5,429.5,88.0,430.5,79.0,428.5,70.5,423.5,62.0,423.5,54.5,420.5,49.5,408.5,47.0,402.5,35.0,400.5,27.5,393.0,24.5,383.0,13.5,375.5,11.5,364.5,7.0,364.5,5.0" stroke="black" stroke-width="2" fill="none" />
<polyline points="354.5,0.5,353.5,9.0,351.5,17.0,349.5,25.5,345.5,34.0,350.5,36.0,361.0,34.5,369.5,42.0,369.0,53.0,377.0,51.5" stroke="black" stroke-width="2" fill="none" />
<polyline points="375.5,46.0,377.5,54.0,380.0,62.5" stroke="black" stroke-width="2" fill="none" />
<polyline points="371.0,70.5,363.0,72.5" stroke="black" stroke-width="2" fill="none" />
<polyline points="367.5,78.5,369.5,86.5,369.5,94.5" stroke="black" stroke-width="2" fill="none" />
<polyline points="380.5,103.0,381.5,111.0,384.0,118.5,386.0,132.5,391.5,136.0,399.5,137.5,407.5,140.5,411.0,148.0,415.5,152.0,426.0,152.0" stroke="black" stroke-width="2" fill="none" />
<polyline points="394.5,103.0,395.0,106.0,395.5,98.0" stroke="black" stroke-width="2" fill="none" />
<polyline points="434.0,75.5,433.0,83.5,435.5,91.5,440.5,93.5,436.5,98.0,432.5,105.0,431.0,113.0,431.0,123.0,435.5,135.5" stroke="black" stroke-width="2" fill="none" />
<polyline points="457.5,68.0,457.5,59.5,449.5,63.0" stroke="black" stroke-width="2" fill="none" />
<polyline points="443.5,36.5,436.0,33.0" stroke="black" stroke-width="2" fill="none" />
<polyline points="437.5,30.5,441.5,38.5,441.5,45.5,441.0,54.5,443.0,62.5" stroke="black" stroke-width="2" fill="none" />
<polyline points="425.5,44.5,423.0,38.5,414.5,34.5,413.0,30.0,410.5,24.5,397.5,15.5,387.5,19.0,379.5,15.0" stroke="black" stroke-width="2" fill="none" />
<polyline points="392.5,9.0,398.5,17.0,401.5,28.0,403.5,36.0" stroke="black" stroke-width="2" fill="none" />
<polyline points="416.0,35.5,420.0,43.5,422.0,52.0,420.0,60.0,425.0,68.0,426.5,76.0,425.5,86.0,424.5,94.0,422.5,102.0,423.0,110.0,418.0,118.0,422.0,126.0,425.0,134.0,423.0,142.0,422.0,152.5,426.0,157.5,423.0,169.5,424.5,177.0,429.5,190.0,424.5,196.0,424.5,204.0,424.5,212.0,426.5,221.0,429.0,229.5,433.0,234.5,441.0,228.5,448.0,228.5,456.5,235.5,464.5,235.0,472.5,239.0,478.0,246.0,486.5,248.0,494.5,248.0,504.5,249.0,512.5,253.0" stroke="black" stroke-width="2" fill="none" />
<polyline points="484.5,62.0,492.5,58.0,500.5,54.0" stroke="black" stroke-width="2" fill="none" />
<polyline points="455.0,36.0,447.0,28.0,438.5,20.0,434.5,11.5,428.5,3.5,421.5,6.5" stroke="black" stroke-width="2" fill="none" />
<polyline points="424.0,6.5,429.0,14.0,426.0,25.0,432.0,24.5,440.0,30.0,448.5,36.0,453.5,45.5,457.5,51.5" stroke="black" stroke-width="2" fill="none" />
<polyline points="458.5,37.5,450.5,29.0,442.0,21.0,434.0,20.0,429.0,19.0,421.0,16.5,412.5,20.5" stroke="black" stroke-width="2" fill="none" />
<polyline points="414.0,7.0,414.0,14.5,420.5,16.5,422.5,24.5,424.5,33.5,427.5,41.0,425.5,46.0,430.0,54.0,432.5,54.5" stroke="black" stroke-width="2" fill="none" />
<polyline points="441.0,62.0,440.0,54.0,438.5,46.0,430.5,38.0" stroke="black" stroke-width="2" fill="none" />
<polyline points="412.5,47.0,407.5,51.5,409.5,59.5,412.0,67.5,410.0,75.0,408.5,83.0,407.5,91.0,417.0,89.0,417.0,96.0,417.0,104.0,418.0,112.0,414.5,106.0" stroke="black" stroke-width="2" fill="none" />
<polyline points="347.0,166.5,339.0,165.5,331.0,163.0,324.0,158.5,321.0,162.5,321.5,158.5,322.5,152.5,322.5,145.0,322.0,136.5,322.0,135.5" stroke="black" stroke-width="2" fill="none" />
<polyline points="327.5,119.0,322.0,121.0,314.0,122.5,306.5,123.5" stroke="black" stroke-width="2" fill="none" />
<polyline points="315.0,106.0,323.0,103.0,331.0,116.5,331.5,121.5,332.5,129.0,329.0,131.0,329.0,139.0,322.5,150.0,331.5,147.0,338.0,155.5,351.0,160.5,351.0,172.5" stroke="black" stroke-width="2" fill="none" />
<polyline points="309.5,207.5,318.5,201.0,321.5,209.0,320.5,217.5,308.5,225.5,301.5,234.0,290.5,235.0,292.5,245.0,284.5,250.5" stroke="black" stroke-width="2" fill="none" />
<polyline points="289.0,242.5,291.0,239.5,298.5,236.5,306.5,227.0,314.5,223.0,326.5,223.5,334.5,234.5,342.5,244.5" stroke="black" stroke-width="2" fill="none" />
<polyline points="301.5,210.5,291.5,222.0" stroke="black" stroke-width="2" fill="none" />
<polyline points="289.0,214.0,297.0,194.0" stroke="black" stroke-width="2" fill="none" />
<polyline points="298.0,178.5,290.0,170.5" stroke="black" stroke-width="2" fill="none" />
<polyline points="291.5,165.0,283.5,157.5" stroke="black" stroke-width="2" fill="none" />
<polyline points="271.5,114.0,263.5,120.0,257.5,103.5,249.5,98.5" stroke="black" stroke-width="2" fill="none" />
<polyline points="248.5,99.0,257.5,106.5,257.0,114.5" stroke="black" stroke-width="2" fill="none" />
<polyline points="238.5,119.5,233.5,127.5,234.5,131.0,242.5,133.5" stroke="black" stroke-width="2" fill="none" />
<polyline points="243.5,135.5,248.0,127.5,248.0,126.5,240.0,119.5,232.0,123.5" stroke="black" stroke-width="2" fill="none" />
<polyline points="205.0,136.5,213.0,137.5,215.0,139.5,219.0,147.0,222.5,155.5,223.5,163.5,224.0,171.0,223.0,179.5,223.0,187.5,225.0,195.5,225.0,203.5,227.0,211.5,228.5,220.0" stroke="black" stroke-width="2" fill="none" />
<polyline points="221.5,227.0,214.0,227.0" stroke="black" stroke-width="2" fill="none" />
<polyline points="223.5,255.5,231.5,255.5,240.0,257.0,247.5,258.5,255.5,261.5,263.5,260.0,271.5,261.0,279.5,259.5,287.5,259.5" stroke="black" stroke-width="2" fill="none" />
<polyline points="280.5,239.5,292.0,233.5" stroke="black" stroke-width="2" fill="none" />
<polyline points="260.0,264.5,260.0,268.5,265.0,270.0,269.0,275.0,270.0,282.5" stroke="black" stroke-width="2" fill="none" />
<polyline points="268.5,274.0,258.5,270.0,256.5,281.5,248.5,282.0,240.5,281.0,232.5,282.5,224.5,281.5,216.5,279.5,208.5,285.5,200.0,286.5,190.0,286.0,181.0,287.0,173.0,286.0" stroke="black" stroke-width="2" fill="none" />
<polyline points="169.0,285.5,177.0,285.5,184.5,285.0,192.0,278.0,189.0,288.0,197.0,280.5,205.5,283.5" stroke="black" stroke-width="2" fill="none" />
<polyline points="218.0,280.5,210.0,281.5,212.0,283.5,222.0,286.5,230.5,286.0,238.5,286.0,247.0,287.5,255.5,285.0,267.5,283.0" stroke="black" stroke-width="2" fill="none" />
<polyline points="261.0,275.0,257.0,282.5,262.5,291.0,259.5,298.0,260.0,308.5,263.0,316.5,263.5,324.0" stroke="black" stroke-width="2" fill="none" />
<polyline points="242.0,319.5,240.0,327.0" stroke="black" stroke-width="2" fill="none" />
<polyline points="238.0,327.0,239.5,319.0" stroke="black" stroke-width="2" fill="none" />
<polyline points="223.5,328.0,225.5,336.0" stroke="black" stroke-width="2" fill="none" />
<polyline points="222.5,337.0,220.5,329.5" stroke="black" stroke-width="2" fill="none" />
<polyline points="216.5,302.0,208.5,302.0" stroke="black" stroke-width="2" fill="none" />
<polyline points="201.0,312.5,204.0,303.5,193.0,295.5,191.0,294.5" stroke="black" stroke-width="2" fill="none" />
<polyline points="187.0,300.5,195.0,305.0,197.0,300.0,205.0,301.5,214.0,297.5,222.5,296.0,230.0,295.0,238.0,295.5,246.0,295.5,254.5,294.5" stroke="black" stroke-width="2" fill="none" />
<polyline points="258.0,289.5,256.5,297.5,257.5,305.0,255.5,312.5,256.5,320.0,256.5,327.5,254.5,335.5,252.5,336.5,255.0,329.0" stroke="black" stroke-width="2" fill="none" />
<polyline points="261.0,294.0,259.0,301.5,251.5,300.5,244.0,297.0,235.0,301.5,226.0,299.0,216.5,296.0,208.5,296.5,203.5,295.5,195.0,298.0,191.0,295.0,182.5,299.0,174.5,298.0,166.0,300.0,157.5,300.0,149.0,299.0,141.0,299.5,133.5,299.5,125.5,299.5,117.5,296.0,117.5,294.0,124.5,283.0,121.5,284.0,114.0,285.5,106.0,285.5,98.0,285.5,90.0,285.5,82.0,286.5,74.0,286.5,66.0,286.5,58.0,286.5,50.5,287.5,42.5,287.5,34.5,288.0,26.5,287.5,18.0,287.5,10.0,288.5,2.5,283.5" stroke="black" stroke-width="2" fill="none" />
<polyline points="2.0,293.5,10.0,293.5,18.5,293.0,26.5,293.0,34.5,293.0,42.5,291.5,50.5,291.5,58.5,291.0,66.5,291.0,74.0,291.0,82.0,292.0,90.0,290.0,98.0,289.0,106.0,289.5,113.5,288.5,121.5,287.0" stroke="black" stroke-width="2" fill="none" />
<polyline points="117.0,299.0,109.0,301.5,101.0,300.5,93.0,301.5,85.0,304.5" stroke="black" stroke-width="2" fill="none" />
<polyline points="40.0,325.0,43.0,325.0,35.0,322.5,32.0,321.0" stroke="black" stroke-width="2" fill="none" />
<polyline points="27.5,329.5,19.5,324.5" stroke="black" stroke-width="2" fill="none" />
<polyline points="20.0,326.0,22.0,328.0,26.0,336.0" stroke="black" stroke-width="2" fill="none" />
<polyline points="39.5,333.5,37.5,335.5,29.0,335.5,37.0,335.5,28.0,330.5,22.0,322.5" stroke="black" stroke-width="2" fill="none" />
<polyline points="2.0,310.5,10.0,310.5,18.5,309.5,26.5,310.0,34.0,309.5,40.0,308.5,48.5,309.5,56.5,308.5,64.5,311.5,72.5,311.5,80.5,308.0,88.5,308.5,96.5,307.5,104.5,307.5,112.5,306.5,120.0,307.5,128.5,305.5,136.5,302.0" stroke="black" stroke-width="2" fill="none" />
<polyline points="140.0,298.0,139.0,305.5,141.0,305.5,147.0,305.5,153.5,303.5,162.5,304.5,170.0,303.5,174.5,303.0,182.0,301.0,181.5,312.0,182.5,315.0" stroke="black" stroke-width="2" fill="none" />
<polyline points="181.5,272.0,189.0,272.0" stroke="black" stroke-width="2" fill="none" />
<polyline points="219.0,223.0,211.0,226.5,203.0,226.5,195.5,226.5,187.5,227.0,180.0,226.5,172.0,225.5,165.0,232.0,158.5,229.0,150.5,228.0,146.5,222.5,146.5,214.5,137.5,208.5,141.5,205.0,136.5,202.0" stroke="black" stroke-width="2" fill="none" />
<polyline points="134.5,200.5,143.0,204.0,155.0,207.0,153.5,214.5,161.5,215.5,162.5,222.5,166.5,228.5,168.0,237.0,171.0,240.0,179.0,240.0" stroke="black" stroke-width="2" fill="none" />
<polyline points="156.5,237.5,149.0,237.5,141.0,237.0,133.0,238.0,125.0,234.0" stroke="black" stroke-width="2" fill="none" />
<polyline points="118.5,228.0,126.5,241.0,135.5,241.5,144.0,240.5,152.0,241.0" stroke="black" stroke-width="2" fill="none" />
<polyline points="179.0,240.0,171.0,239.5,163.5,238.5,157.5,247.5,160.5,241.0,160.5,234.0,158.5,224.0,156.5,216.0,152.0,224.5,144.0,223.5,136.0,223.5,128.0,222.5,120.0,222.5" stroke="black" stroke-width="2" fill="none" />
<polyline points="113.0,211.0,118.0,209.0,126.0,203.0,133.5,204.0,141.5,198.0" stroke="black" stroke-width="2" fill="none" />
<polyline points="133.0,201.0,134.5,209.0,137.5,217.5" stroke="black" stroke-width="2" fill="none" />
<polyline points="138.5,207.0,139.5,213.5,151.0,211.0,157.0,210.0" stroke="black" stroke-width="2" fill="none" />
<polyline points="167.5,216.5,164.5,225.0" stroke="black" stroke-width="2" fill="none" />
<polyline points="184.5,193.0,176.5,184.5,168.5,184.0,161.0,183.0,153.5,178.5,146.0,163.5" stroke="black" stroke-width="2" fill="none" />
<polyline points="144.0,170.5,152.0,183.0,160.0,185.0,167.5,186.0,175.5,187.0,183.0,195.0" stroke="black" stroke-width="2" fill="none" />
<polyline points="183.0,196.5,176.0,188.5" stroke="black" stroke-width="2" fill="none" />
<polyline points="178.5,186.5,184.5,194.5" stroke="black" stroke-width="2" fill="none" />
<polyline points="198.5,188.0,206.5,188.0,214.5,188.5" stroke="black" stroke-width="2" fill="none" />
<polyline points="215.0,185.5,207.0,186.0,198.5,186.0" stroke="black" stroke-width="2" fill="none" />
<polyline points="234.5,162.0,235.5,155.0,236.0,161.5,244.5,160.5" stroke="black" stroke-width="2" fill="none" />
<polyline points="231.5,146.5,226.0,143.0,218.0,131.0,214.0,123.0,210.0,117.5,202.0,110.5,194.0,102.5,186.0,101.5,177.5,101.0,170.0,97.0" stroke="black" stroke-width="2" fill="none" />
<polyline points="161.5,82.5,153.5,80.0" stroke="black" stroke-width="2" fill="none" />
<polyline points="152.0,77.5,160.0,78.5" stroke="black" stroke-width="2" fill="none" />
<polyline points="196.5,98.0,188.5,96.0,180.5,95.0,172.5,94.5,164.5,91.5,156.5,93.0,149.5,91.0,152.5,83.0,155.5,85.0,147.5,92.0,139.5,91.0,131.5,90.0,123.5,89.0,115.5,90.0,107.0,95.0" stroke="black" stroke-width="2" fill="none" />
<polyline points="113.0,89.5,109.0,97.5,105.0,105.5,107.5,107.5,106.0,115.5,99.5,116.0,95.5,121.0,89.5,129.0,86.5,137.0,86.0,145.0,80.5,153.0,81.5,162.0,83.5,170.0,84.5,178.0,86.0,186.0,80.0,196.5,80.5,202.0,93.0,203.0,95.0,207.5,94.0,216.0,86.0,215.5,85.5,223.5,87.5,232.0,80.5,240.5" stroke="black" stroke-width="2" fill="none" />
<polyline points="89.0,241.0,94.5,234.0,99.0,226.0,99.5,218.0,92.5,203.0,84.5,196.0,76.5,200.0" stroke="black" stroke-width="2" fill="none" />
<polyline points="79.5,198.0,82.5,203.0,86.0,211.0,86.5,221.0,99.0,214.0,104.0,219.5,105.5,222.5,113.5,223.0,118.5,234.0,126.5,246.0,135.0,249.0,142.5,250.0,150.5,249.5,158.5,251.5,166.5,251.5,173.0,252.5,181.5,251.5,189.5,250.5,193.0,252.5,201.0,252.5,208.0,252.0,216.0,249.0,223.5,246.5,226.0,238.0" stroke="black" stroke-width="2" fill="none" />
<polyline points="213.5,219.0,205.5,219.5,197.5,220.5,189.5,220.5,181.5,220.0,173.5,219.0,165.5,221.5,155.0,227.5,154.0,220.5,151.0,212.5,146.0,206.5,145.5,194.0,144.0,185.5,142.0,177.5,142.0,169.5,141.0,161.0,140.0,153.0,139.5,145.5,129.5,145.5" stroke="black" stroke-width="2" fill="none" />
<polyline points="132.5,135.0,140.5,136.5,141.5,138.5,142.5,143.5,143.5,151.5,144.0,159.5,146.5,167.5,150.5,175.0,160.5,182.5" stroke="black" stroke-width="2" fill="none" />
<polyline points="148.0,180.5,144.0,172.5" stroke="black" stroke-width="2" fill="none" />
<polyline points="135.0,174.5,136.5,182.5,136.5,190.0,143.5,198.0,151.5,200.5,159.5,209.0" stroke="black" stroke-width="2" fill="none" />
<polyline points="143.5,248.0,135.5,246.0,130.5,249.5,127.5,248.5,120.5,241.0,115.5,233.0,110.5,224.5,108.5,214.5,100.0,209.0,95.5,200.5,86.5,192.5,78.5,178.5,79.5,170.5,80.5,163.0,83.0,155.0,88.0,147.5,91.5,139.5,95.5,131.5,100.0,123.5,89.0,127.5,80.5,133.5" stroke="black" stroke-width="2" fill="none" />
<polyline points="74.0,134.0,82.0,132.0,89.5,122.0,96.5,120.0,102.5,117.0,104.5,112.0" stroke="black" stroke-width="2" fill="none" />
<polyline points="95.5,110.0,104.0,109.0,113.0,107.0,110.5,115.0,104.5,128.0,101.5,136.0,102.0,135.0,109.5,121.5,114.0,104.5,112.0,113.5,109.0,121.5" stroke="black" stroke-width="2" fill="none" />
<polyline points="100.5,119.5,97.0,128.5,89.0,140.0,81.0,155.0" stroke="black" stroke-width="2" fill="none" />
<polyline points="81.0,153.5,73.0,157.5,71.0,155.5,73.5,147.5,75.5,139.5,69.5,140.5,61.5,162.0" stroke="black" stroke-width="2" fill="none" />
<polyline points="65.5,186.0,73.5,186.0" stroke="black" stroke-width="2" fill="none" />
<polyline points="81.5,187.0,74.5,185.5,66.5,186.0,59.0,188.0" stroke="black" stroke-width="2" fill="none" />
<polyline points="61.0,193.5,50.0,201.5,46.5,209.5,46.0,217.5,48.0,225.5,52.0,233.0" stroke="black" stroke-width="2" fill="none" />
<polyline points="48.0,225.0,56.0,236.0,64.5,235.0,72.5,229.0,73.0,220.5,71.0,228.5,62.0,236.5,72.0,233.5,80.0,226.5,84.0,235.0" stroke="black" stroke-width="2" fill="none" />
<polyline points="96.5,237.5,95.0,245.5" stroke="black" stroke-width="2" fill="none" />
<polyline points="96.0,233.0,85.0,239.0,77.0,242.0,68.5,242.0" stroke="black" stroke-width="2" fill="none" />
<polyline points="77.5,222.5,69.5,220.5" stroke="black" stroke-width="2" fill="none" />
<polyline points="50.0,216.5,57.5,218.5,65.5,220.0,75.0,219.5,83.0,217.5,85.0,226.0,89.0,226.0,92.0,227.0" stroke="black" stroke-width="2" fill="none" />
<polyline points="97.5,216.5,95.5,224.5,94.5,230.5,96.5,239.5,100.0,247.0" stroke="black" stroke-width="2" fill="none" />
<polyline points="94.5,245.0,86.5,241.0,78.5,244.0,70.5,245.5,63.0,246.0,66.0,241.5,72.5,234.0,82.0,226.0,65.0,217.0,57.5,215.0,49.5,213.0" stroke="black" stroke-width="2" fill="none" />
<polyline points="46.5,209.5,54.0,195.5,62.0,191.5,70.0,191.0,75.5,194.5,75.5,202.5,84.0,208.0" stroke="black" stroke-width="2" fill="none" />
<polyline points="46.5,197.0,54.5,191.0,62.5,189.5,71.0,188.5,79.5,190.5,87.5,193.5,92.5,192.0,100.0,203.0,107.0,211.0,112.0,214.0,120.0,220.0,127.5,220.0" stroke="black" stroke-width="2" fill="none" />
<polyline points="48.5,233.5,41.0,219.5" stroke="black" stroke-width="2" fill="none" />
<polyline points="41.0,219.0,42.0,227.0,47.0,234.5" stroke="black" stroke-width="2" fill="none" />
<polyline points="48.0,238.5,40.0,224.5" stroke="black" stroke-width="2" fill="none" />
<polyline points="40.0,230.0,48.0,241.0,55.5,247.0" stroke="black" stroke-width="2" fill="none" />
<polyline points="47.5,238.5,41.0,230.5,39.0,222.5,40.0,214.5,44.0,207.0,47.5,199.0,60.5,191.0,48.5,192.5,40.5,204.0" stroke="black" stroke-width="2" fill="none" />
<polyline points="2.0,246.5,10.0,247.5,18.0,248.5,26.0,248.5,34.0,248.5,42.0,249.0,50.0,248.0,58.0,250.5,67.5,249.5,75.5,249.0,83.5,250.0,91.5,251.0,99.5,252.5,108.0,252.5,116.0,253.0,124.0,253.0,132.0,254.0,139.5,253.5,147.5,253.5,155.0,255.0,163.0,256.0,171.0,256.0,179.0,255.5,187.0,255.5,195.5,256.5,203.5,256.5,211.5,256.5,220.0,257.5,228.5,254.0,236.5,254.0,244.0,255.0,252.0,255.0,260.5,255.5,268.5,255.5,277.0,255.5,284.5,256.5" stroke="black" stroke-width="2" fill="none" />
<polyline points="243.0,293.5,236.0,301.5" stroke="black" stroke-width="2" fill="none" />
<polyline points="91.5,297.5,83.5,298.5,74.0,300.5,66.5,300.5,58.0,301.0,49.5,301.0,41.5,300.0,34.0,299.0,26.0,301.0,18.5,301.0,10.5,302.0,2.5,301.5" stroke="black" stroke-width="2" fill="none" />
<polyline points="140.5,247.5,126.5,239.5,121.5,232.0,119.5,226.5,119.5,219.0,121.5,211.5,127.0,203.5,135.0,197.5,135.0,189.0,133.0,181.0,132.5,173.5,131.0,165.5,129.5,157.5,128.0,149.5,128.0,141.5,133.5,139.5,138.5,132.0" stroke="black" stroke-width="2" fill="none" />
<polyline points="96.5,107.0,93.5,115.0,88.0,123.0,80.5,131.5,72.5,133.5,66.5,142.0,63.5,150.5,61.0,159.0,58.0,167.0,56.0,175.0,55.0,183.0,49.0,190.5,42.5,198.0,39.5,206.0,36.0,214.5,37.0,222.5,39.5,230.0,44.0,238.0,53.5,246.0" stroke="black" stroke-width="2" fill="none" />
<polyline points="227.5,241.5,225.0,250.5,231.0,242.5,233.0,239.5,235.5,231.5,234.5,223.0,234.5,215.0,236.5,206.5,238.0,198.5,238.5,190.5,239.5,182.0,241.5,173.5,240.5,165.0,239.5,157.0,235.5,156.0,226.0,151.5,223.0,143.0,218.5,135.5,210.5,128.5,206.5,120.5,201.5,112.5,194.5,104.5" stroke="black" stroke-width="2" fill="none" />
<polyline points="210.0,91.0,218.0,92.5,226.0,84.0,221.0,91.0" stroke="black" stroke-width="2" fill="none" />
<polyline points="228.0,81.0,220.0,78.0,212.0,80.0,211.0,84.0,218.0,76.0" stroke="black" stroke-width="2" fill="none" />
<polyline points="241.0,73.5,249.0,69.5,242.5,73.0,241.0,81.0,249.5,83.0,265.0,76.0,275.0,87.5" stroke="black" stroke-width="2" fill="none" />
<polyline points="265.0,81.5,269.0,77.5,269.0,75.0,261.0,74.0" stroke="black" stroke-width="2" fill="none" />
<polyline points="250.0,73.0,254.5,81.0,257.0,89.5,265.0,93.5,273.0,101.0" stroke="black" stroke-width="2" fill="none" />
<polyline points="280.5,99.5,280.5,107.5" stroke="black" stroke-width="2" fill="none" />
<polyline points="294.0,85.0,301.5,82.0,308.0,72.0" stroke="black" stroke-width="2" fill="none" />
<polyline points="305.5,65.5,313.5,63.0" stroke="black" stroke-width="2" fill="none" />
<polyline points="315.5,74.5,309.5,82.5,303.0,84.5,308.0,76.0,301.5,68.0,308.5,66.0,303.0,64.5,295.0,70.5" stroke="black" stroke-width="2" fill="none" />
<polyline points="271.0,55.0,271.0,62.5,272.0,70.0,274.0,78.0,275.0,87.0,276.5,94.5,277.5,102.0,279.5,110.5,281.5,118.5,282.0,127.0,283.0,135.0,283.0,143.0,281.5,150.5,284.5,159.0,286.5,167.0,291.5,175.0,301.0,183.5,299.0,191.5,296.0,199.5,293.0,207.5,289.0,215.5,288.0,223.5,286.5,231.0,281.5,239.0,284.5,247.0,291.5,252.5" stroke="black" stroke-width="2" fill="none" />
<polyline points="272.0,111.5,267.5,103.5,265.0,96.5,257.5,88.5" stroke="black" stroke-width="2" fill="none" />
<polyline points="297.5,14.0,305.5,11.0" stroke="black" stroke-width="2" fill="none" />
<polyline points="308.0,1.5,308.5,9.5,307.5,18.5,308.5,27.0,307.5,35.5,303.0,36.0,296.0,45.5,295.5,46.5,301.0,34.5,309.5,30.0" stroke="black" stroke-width="2" fill="none" />
<polyline points="297.5,1.5,300.0,9.5,297.0,17.5,302.5,25.5,295.0,30.5,289.0,33.0,290.0,43.0,290.0,50.5,290.0,62.5,288.0,70.5,288.5,78.5,289.5,86.5,289.5,95.0,289.5,103.5,289.5,112.0,289.5,120.0,290.0,128.0,289.0,137.0,291.0,145.0,291.0,153.5,292.0,161.5,294.0,169.5,298.0,177.5" stroke="black" stroke-width="2" fill="none" />
<polyline points="350.5,36.5,353.0,28.5,356.0,20.5,359.5,12.0,355.5,21.5" stroke="black" stroke-width="2" fill="none" />
<polyline points="357.5,31.5,358.5,39.5,364.5,41.0,365.0,49.0,375.0,56.0,374.0,69.0" stroke="black" stroke-width="2" fill="none" />
<polyline points="344.0,22.0,348.0,4.0,346.0,12.0,350.5,5.0,347.0,13.0,344.0,20.5,342.5,28.5,343.0,36.0,344.0,43.5,345.0,51.0,346.0,59.0,345.5,67.0,346.5,75.0,347.0,83.0,348.0,92.0,347.0,100.0,346.0,108.0,349.0,116.0,349.0,124.0,355.0,132.5,361.5,140.5,364.0,148.0,369.0,157.0,376.0,165.0,386.0,166.0,386.0,174.0,389.0,181.5,382.5,185.5,386.0,182.0,386.0,189.5,386.0,195.0,383.0,203.0,386.0,205.5,387.5,213.5,384.5,223.0,383.5,228.0,377.5,237.0,374.5,245.5,373.5,253.5,368.5,254.0,366.5,259.5,367.5,271.5,371.5,277.5,377.5,285.0,379.5,285.5,388.5,284.0,396.5,285.0,404.5,288.0,407.0,283.0,420.0,277.5,426.5,267.5,433.0,275.5,441.0,288.5,449.0,306.5,457.5,320.5,465.5,331.5" stroke="black" stroke-width="2" fill="none" />
<polyline points="504.5,292.0,506.5,282.0,499.5,274.5,501.0,273.5,507.5,266.5,510.5,258.5,510.5,250.5,506.5,242.5,502.5,234.5,498.5,226.5,496.0,218.5,493.0,210.5,490.5,202.0,488.5,194.5,486.0,186.5,485.0,178.5,483.0,170.5,480.0,162.5,478.0,154.5,485.0,151.5,490.0,143.0,489.0,135.0,488.5,127.0,482.5,119.5,483.0,111.5,488.0,103.5,488.5,95.5,491.5,87.0,493.5,79.0,488.5,71.0,484.5,63.0,496.5,58.0,501.0,49.5,495.0,41.0,497.0,33.0,497.5,25.0,498.5,16.5,497.5,8.5,495.5,0.0" stroke="black" stroke-width="2" fill="none" />
<polyline points="181.5,5.0,173.5,2.0" stroke="black" stroke-width="2" fill="none" />
<polyline points="180.5,4.5,185.5,12.5,184.5,20.5,186.5,28.5,189.5,30.5,198.0,29.5,206.0,18.0" stroke="black" stroke-width="2" fill="none" />
</svg>