<svg xmlns="http://www.w3.org/2000/svg" version="1.1"><polyline points="73.5,1.5,73.5,9.5,74.0,17.5,75.0,26.0,75.5,34.0,75.5,42.0,75.5,50.0,75.5,58.0,76.0,66.0,77.0,74.0,76.5,82.0,77.0,90.0,77.0,97.5,77.0,105.5,78.0,113.5,77.0,121.5,77.0,130.0,78.0,138.0,77.5,146.5,65.5,155.0,60.5,163.0,58.5,171.0" stroke="black" stroke-width="2" fill="none" />
<polyline points="60.5,159.5,68.5,152.5,76.5,146.5,78.0,151.5,75.0,159.5,74.0,167.5,79.0,156.0,84.0,159.0,88.0,162.5,96.0,158.5" stroke="black" stroke-width="2" fill="none" />
<polyline points="96.0,169.0,104.0,173.5,107.0,184.5" stroke="black" stroke-width="2" fill="none" />
<polyline points="111.5,197.5,119.0,203.5,127.0,206.5,134.0,209.0,142.0,206.0,150.0,205.5,158.5,201.5" stroke="black" stroke-width="2" fill="none" />
<polyline points="157.5,201.5,146.5,208.5,154.5,207.5,162.5,207.0,163.5,202.0,171.5,205.5,178.5,206.5,187.0,207.5,195.0,206.5,203.0,205.5,212.0,204.0,220.0,200.5,228.0,201.5,234.0,207.0,235.0,209.0,243.0,208.0,251.0,206.5,259.5,206.0,261.0,204.0,269.0,203.5" stroke="black" stroke-width="2" fill="none" />
<polyline points="272.5,204.5,264.5,202.5" stroke="black" stroke-width="2" fill="none" />
<polyline points="250.0,197.5,245.0,205.0" stroke="black" stroke-width="2" fill="none" />
<polyline points="244.5,195.0,241.0,201.0,245.0,202.5,253.0,198.5,256.0,192.5,265.0,190.5,273.0,186.0,276.0,189.0,279.5,188.5" stroke="black" stroke-width="2" fill="none" />
<polyline points="289.5,196.5,293.0,188.5,292.0,180.0,292.0,172.0,290.0,164.0,282.0,167.0,290.0,159.5,290.5,151.5,293.5,150.5,294.0,142.5,293.5,134.5,293.5,126.0,294.5,118.0,292.5,110.0,294.0,102.0,294.0,94.0,294.0,88.5,294.0,81.0,292.5,73.0,291.5,64.5,291.5,57.0,290.5,49.0,291.5,40.5,291.0,33.0,280.0,25.0" stroke="black" stroke-width="2" fill="none" />
<polyline points="287.5,32.0,282.0,32.0,279.0,47.0,269.0,56.0,265.0,54.5,265.0,46.5" stroke="black" stroke-width="2" fill="none" />
<polyline points="263.5,47.5,271.5,52.0,268.5,49.5,274.5,59.0,276.5,67.0,274.5,75.0,273.5,83.0,275.0,91.0,276.0,102.0,273.5,110.0,274.5,118.5,275.0,126.0,277.5,134.0,272.5,141.5,275.5,149.0,274.5,157.0,272.5,164.5,269.5,169.0,263.0,179.0,266.0,187.0,264.0,194.5,258.0,201.0,259.5,201.0,267.5,199.0,275.0,199.0,283.0,195.5,295.5,198.5,297.0,201.0" stroke="black" stroke-width="2" fill="none" />
<polyline points="329.5,205.5,337.0,199.0,343.5,203.0,342.5,210.5,348.5,220.0,340.5,228.0,342.5,230.5,340.5,241.0,350.0,238.0,356.0,229.0,358.0,222.5,366.0,219.0,367.5,217.0" stroke="black" stroke-width="2" fill="none" />
<polyline points="362.5,228.0,371.0,224.0,379.0,222.5,385.0,216.5" stroke="black" stroke-width="2" fill="none" />
<polyline points="385.0,201.5,386.0,209.5,385.0,217.5,375.0,229.5,374.5,237.0,373.5,248.0,369.0,256.0,376.0,258.0" stroke="black" stroke-width="2" fill="none" />
<polyline points="373.5,256.0,381.5,257.0,379.5,249.0" stroke="black" stroke-width="2" fill="none" />
<polyline points="395.5,245.0,403.5,245.0" stroke="black" stroke-width="2" fill="none" />
<polyline points="403.5,242.5,395.5,243.5" stroke="black" stroke-width="2" fill="none" />
<polyline points="397.0,251.5,400.0,258.5,411.0,265.0" stroke="black" stroke-width="2" fill="none" />
<polyline points="411.5,266.5,413.5,274.0" stroke="black" stroke-width="2" fill="none" />
<polyline points="417.5,276.5,416.0,273.5,419.0,266.0" stroke="black" stroke-width="2" fill="none" />
<polyline points="420.0,265.0,421.0,274.0,421.0,266.0" stroke="black" stroke-width="2" fill="none" />
<polyline points="408.5,265.5,409.0,273.0,418.0,279.0" stroke="black" stroke-width="2" fill="none" />
<polyline points="417.5,294.5,409.5,292.5,401.5,290.0,397.5,299.0,404.5,290.5,391.0,288.5" stroke="black" stroke-width="2" fill="none" />
<polyline points="378.5,282.0,370.5,282.0,361.5,287.0,354.5,285.0,346.5,284.0" stroke="black" stroke-width="2" fill="none" />
<polyline points="350.0,298.5,358.0,300.5,360.5,290.5,368.5,288.0" stroke="black" stroke-width="2" fill="none" />
<polyline points="370.0,285.0,367.5,293.0,369.5,304.5,377.5,305.5" stroke="black" stroke-width="2" fill="none" />
<polyline points="377.0,295.0,373.0,295.0" stroke="black" stroke-width="2" fill="none" />
<polyline points="374.0,276.0,370.0,278.0,365.0,286.5,351.0,300.0,351.5,307.5,357.0,306.5,368.0,303.5,375.5,295.5,379.0,296.5,388.0,296.5,397.0,300.5,405.0,295.5,417.0,296.0" stroke="black" stroke-width="2" fill="none" />
<polyline points="417.0,299.0,414.0,301.0,409.0,292.5" stroke="black" stroke-width="2" fill="none" />
<polyline points="439.0,299.5,445.0,302.5,445.5,310.5,439.5,319.0,441.0,327.0,449.0,329.0,444.5,333.0" stroke="black" stroke-width="2" fill="none" />
<polyline points="448.0,323.5,443.0,321.5,435.5,317.5" stroke="black" stroke-width="2" fill="none" />
<polyline points="436.0,316.0,436.0,324.0,440.0,332.0" stroke="black" stroke-width="2" fill="none" />
<polyline points="463.0,317.0,471.0,318.0,481.5,322.0,478.5,328.5,479.0,330.0,490.0,332.0,498.0,325.0,506.5,329.0,511.5,329.0,505.0,332.0" stroke="black" stroke-width="2" fill="none" />
<polyline points="495.5,324.0,490.5,332.0" stroke="black" stroke-width="2" fill="none" />
<polyline points="487.0,331.5,489.5,323.5" stroke="black" stroke-width="2" fill="none" />
<polyline points="490.0,323.0,480.0,325.0,471.0,333.5,469.0,340.5,472.0,333.0" stroke="black" stroke-width="2" fill="none" />
<polyline points="472.0,334.0,471.5,342.0" stroke="black" stroke-width="2" fill="none" />
<polyline points="474.0,375.5,482.0,374.5,475.0,380.0,476.0,385.0" stroke="black" stroke-width="2" fill="none" />
<polyline points="483.0,382.5,479.0,375.0" stroke="black" stroke-width="2" fill="none" />
<polyline points="501.0,391.0,509.0,389.0" stroke="black" stroke-width="2" fill="none" />
<polyline points="510.5,394.5,502.5,394.5" stroke="black" stroke-width="2" fill="none" />
<polyline points="494.5,434.0,503.0,434.0,509.0,437.5,502.0,445.5,499.0,449.0,492.0,458.0,505.0,453.0" stroke="black" stroke-width="2" fill="none" />
<polyline points="487.0,458.5,483.0,456.5,492.0,452.5,483.5,456.5,474.5,465.0,480.5,452.0,489.5,442.5,489.0,434.5,494.0,430.5,486.0,436.5,485.5,440.5" stroke="black" stroke-width="2" fill="none" />
<polyline points="470.5,450.0,478.5,449.0,486.5,447.5,494.5,443.5,495.0,443.0,498.0,435.5,506.0,439.5" stroke="black" stroke-width="2" fill="none" />
<polyline points="474.0,422.5,471.0,426.5,466.5,430.0,463.5,425.5,468.5,422.5,460.5,427.5" stroke="black" stroke-width="2" fill="none" />
<polyline points="449.0,411.5,447.0,401.5,447.5,393.5,446.5,395.5" stroke="black" stroke-width="2" fill="none" />
<polyline points="452.5,392.5,453.0,400.5" stroke="black" stroke-width="2" fill="none" />
<polyline points="444.0,412.5,432.0,410.5,424.0,410.5" stroke="black" stroke-width="2" fill="none" />
<polyline points="415.5,411.5,412.0,419.5,420.0,425.5,421.0,431.5,420.0,436.5,409.5,439.0,410.5,447.5,404.5,451.5,400.5,450.5,411.5,445.0,416.5,438.0" stroke="black" stroke-width="2" fill="none" />
<polyline points="417.5,441.0,409.0,443.0" stroke="black" stroke-width="2" fill="none" />
<polyline points="408.5,455.5,413.5,452.5,409.0,460.5,403.5,463.0" stroke="black" stroke-width="2" fill="none" />
<polyline points="409.0,464.5,407.0,472.5,410.0,468.5" stroke="black" stroke-width="2" fill="none" />
<polyline points="421.5,452.5,429.5,452.5,431.5,449.5" stroke="black" stroke-width="2" fill="none" />
<polyline points="432.5,461.5,440.0,462.5,443.5,455.5,432.0,466.5" stroke="black" stroke-width="2" fill="none" />
<polyline points="441.5,469.5,449.5,465.0" stroke="black" stroke-width="2" fill="none" />
<polyline points="461.0,466.0,455.0,466.0,447.0,469.5,442.0,478.5,452.0,473.0,446.0,464.5,445.5,461.5,454.0,457.5,455.0,455.0,446.5,449.5,445.5,442.5,439.5,443.5,431.5,437.5,422.0,426.5,419.0,433.5,410.5,434.5,404.5,443.5,394.5,446.5,386.5,453.5,380.0,449.5,384.0,440.0,392.5,437.0,404.5,429.0,405.0,421.0,398.0,415.0,394.0,409.0,394.0,408.5" stroke="black" stroke-width="2" fill="none" />
<polyline points="402.0,401.5,404.0,405.5,405.5,396.5,414.0,396.5,422.5,400.0" stroke="black" stroke-width="2" fill="none" />
<polyline points="419.0,421.5,411.0,420.5" stroke="black" stroke-width="2" fill="none" />
<polyline points="411.0,430.5,409.0,428.5,404.0,427.5,399.0,432.0,391.0,437.0,383.0,434.0" stroke="black" stroke-width="2" fill="none" />
<polyline points="373.0,431.0,374.5,435.0,375.5,436.5,380.0,443.5,389.0,445.0,393.0,441.5,386.0,454.0,384.0,459.0,389.0,461.0,394.5,455.0" stroke="black" stroke-width="2" fill="none" />
<polyline points="384.5,466.0,377.0,471.0" stroke="black" stroke-width="2" fill="none" />
<polyline points="383.0,484.0,391.0,483.0,399.0,482.0,407.0,480.5" stroke="black" stroke-width="2" fill="none" />
<polyline points="391.0,489.0,383.0,488.5,378.0,487.5,376.5,479.5,376.0,471.5,374.0,464.0,374.0,456.0,373.5,448.5,370.5,440.0,368.5,432.0,367.5,424.0,366.5,416.0,366.5,408.0,364.5,400.5,362.5,392.5,361.0,385.0,359.0,377.0,358.0,369.0,357.5,361.0,356.0,353.0,354.0,344.5,352.0,336.5,350.0,328.5,348.5,320.5,347.0,312.0,345.0,304.0,342.5,296.0,341.5,287.5,340.0,279.5,339.0,271.0,337.0,263.0,334.0,255.0,334.0,247.0,332.0,239.5,331.5,231.5,330.5,223.5,330.0,215.5,329.5,207.5,334.5,199.0,347.5,196.0,355.5,195.0,348.0,194.0" stroke="black" stroke-width="2" fill="none" />
<polyline points="359.0,195.5,367.0,194.5" stroke="black" stroke-width="2" fill="none" />
<polyline points="368.0,197.0,360.0,197.0" stroke="black" stroke-width="2" fill="none" />
<polyline points="378.5,190.5,386.5,190.0" stroke="black" stroke-width="2" fill="none" />
<polyline points="387.5,195.0,379.5,193.5" stroke="black" stroke-width="2" fill="none" />
<polyline points="354.5,221.5,360.5,210.5,357.0,218.5,354.0,226.5,346.5,233.5,337.5,241.5,338.5,249.5,350.5,258.5,339.5,260.5,343.5,268.5,343.5,276.5,344.5,283.5,346.0,281.5,354.5,283.0,358.0,277.0,365.0,270.0,363.0,273.5,358.0,281.0,368.0,274.0,376.0,276.5,382.0,278.5,388.5,293.0,397.0,286.0,394.0,294.5,393.5,305.5,400.5,316.5,404.5,325.5,400.5,333.5,402.5,341.5,395.5,349.5,404.0,340.5,410.0,336.5,420.0,329.0,416.0,325.5,409.5,326.5,407.5,334.0,401.5,334.0,403.0,329.0,416.0,328.0,424.0,321.5,423.5,327.0,416.5,339.5,415.0,349.5,408.0,350.5,408.5,364.5,408.5,372.5,401.5,375.5,398.5,382.0,407.5,386.0,419.5,384.0,415.5,390.0,418.5,375.0,416.5,371.5,415.5,379.5,411.0,388.0" stroke="black" stroke-width="2" fill="none" />
<polyline points="408.0,375.0,400.0,375.0" stroke="black" stroke-width="2" fill="none" />
<polyline points="395.5,381.5,403.5,381.0,411.5,380.0" stroke="black" stroke-width="2" fill="none" />
<polyline points="423.5,374.5,418.5,380.0,421.5,371.5,419.5,368.5,410.5,370.0,402.5,361.5,390.5,366.5,394.0,370.5,388.5,379.5,384.0,390.5,383.5,392.5,386.0,379.5,391.5,368.0,390.5,357.0,387.5,349.0,391.0,339.5,392.0,332.0,395.0,319.0,390.0,318.0,377.5,312.0,374.5,316.0" stroke="black" stroke-width="2" fill="none" />
<polyline points="382.0,315.5,390.0,319.0,387.5,332.0,382.5,340.0,379.0,347.0,376.0,352.5,382.5,355.5,386.0,343.0,395.5,340.0" stroke="black" stroke-width="2" fill="none" />
<polyline points="402.5,347.5,410.5,344.5" stroke="black" stroke-width="2" fill="none" />
<polyline points="403.5,361.0,398.5,369.5,389.0,375.5,395.0,373.5,403.5,366.0" stroke="black" stroke-width="2" fill="none" />
<polyline points="389.0,398.0,385.0,397.0,377.0,399.0,369.0,402.0" stroke="black" stroke-width="2" fill="none" />
<polyline points="375.0,417.0,383.0,420.0" stroke="black" stroke-width="2" fill="none" />
<polyline points="373.5,422.0,380.5,433.0,388.5,430.0,390.0,422.0,396.0,411.0,396.0,413.5,408.0,410.5,410.0,407.5,425.0,406.5,433.0,403.5,442.5,405.5,450.0,408.5" stroke="black" stroke-width="2" fill="none" />
<polyline points="431.5,437.0,435.0,445.0,433.5,449.0,422.5,455.0,421.5,458.5,422.0,471.0,409.5,479.0,415.0,479.5,423.0,477.0,431.0,475.0,439.0,473.0,447.0,472.0,455.0,471.0,463.0,467.5,471.5,466.5,479.5,466.0,487.5,465.0,495.5,463.0,507.5,461.0" stroke="black" stroke-width="2" fill="none" />
<polyline points="496.5,443.5,495.5,459.0,488.0,454.0,483.0,459.0,475.0,462.0,468.5,454.0,459.5,459.0,451.5,459.0,444.5,464.0,436.5,469.0,428.5,470.5,422.5,470.5,414.5,476.0,407.5,476.5,399.5,479.5,391.5,480.5,383.5,482.5,382.5,480.5,382.5,473.0,380.5,464.5,377.5,462.5,378.5,454.0,381.5,446.0,376.5,443.5,379.5,436.5,380.5,428.5,375.5,420.5,374.5,412.5,373.5,404.5,372.0,398.0,369.0,389.0,366.0,384.5,369.5,375.5,363.0,373.5,365.5,365.0,362.0,364.5,364.0,356.5,362.5,348.5,361.0,340.5,362.0,332.5,368.0,325.0,374.0,317.0,385.5,309.0,391.5,301.0,387.5,292.0,382.5,284.0,381.5,276.0,374.5,272.5" stroke="black" stroke-width="2" fill="none" />
<polyline points="378.0,247.0,370.0,254.0,360.0,257.0,352.0,258.0,344.0,257.0" stroke="black" stroke-width="2" fill="none" />
<polyline points="337.5,245.5,345.5,250.0,353.5,254.0,361.5,247.0,364.0,239.0,372.0,239.5" stroke="black" stroke-width="2" fill="none" />
<polyline points="361.0,254.0,358.5,249.5,357.5,244.5,355.5,242.5,349.5,240.5,355.5,233.0,346.0,230.0,338.0,232.0" stroke="black" stroke-width="2" fill="none" />
<polyline points="346.0,211.0,347.5,203.0,341.5,205.5" stroke="black" stroke-width="2" fill="none" />
<polyline points="292.5,205.0,284.5,206.5,277.0,207.0,268.5,209.0,261.0,210.0,253.0,211.0,245.5,212.5,237.5,214.0,229.5,213.0,221.5,213.5,213.5,214.0,205.5,214.0,197.5,214.0,189.5,215.0,182.0,215.0,173.5,215.0,165.5,214.5,157.5,215.5,149.0,215.5,141.0,216.5" stroke="black" stroke-width="2" fill="none" />
<polyline points="123.5,216.0,131.5,214.5,140.0,213.5,139.0,216.5,136.5,217.5,146.5,211.0,154.5,212.0,162.5,211.0,165.5,208.5,171.5,208.5,179.5,209.5,191.5,209.5,199.5,208.0,207.0,209.0,212.5,208.5,220.5,207.0,228.5,204.0,237.0,199.0,245.0,194.0" stroke="black" stroke-width="2" fill="none" />
<polyline points="262.0,182.5,270.0,178.5" stroke="black" stroke-width="2" fill="none" />
<polyline points="267.5,177.0,265.5,174.5,265.0,166.0,260.5,171.0,259.5,166.0,262.5,158.0,259.5,162.0" stroke="black" stroke-width="2" fill="none" />
<polyline points="282.0,152.0,285.5,150.0,291.5,145.0,287.0,138.0,287.0,130.0,288.5,122.5,284.0,120.5" stroke="black" stroke-width="2" fill="none" />
<polyline points="284.5,132.0,290.5,131.0,285.5,134.0" stroke="black" stroke-width="2" fill="none" />
<polyline points="277.0,139.5,274.0,147.5" stroke="black" stroke-width="2" fill="none" />
<polyline points="297.5,148.0,297.5,155.5,298.0,163.0,296.5,171.0,296.0,179.5,297.0,188.0,296.5,196.0" stroke="black" stroke-width="2" fill="none" />
<polyline points="230.5,191.0,222.5,193.0" stroke="black" stroke-width="2" fill="none" />
<polyline points="226.0,204.0,218.5,204.0" stroke="black" stroke-width="2" fill="none" />
<polyline points="202.0,241.5,210.0,245.5,218.0,255.5" stroke="black" stroke-width="2" fill="none" />
<polyline points="207.5,253.5,207.5,247.5" stroke="black" stroke-width="2" fill="none" />
<polyline points="204.0,246.5,207.0,247.5,209.5,248.5,211.5,255.0,215.5,259.0,217.0,267.0,222.5,271.0,217.0,275.5,224.0,270.5,232.0,273.5,231.0,266.5,236.0,267.5,234.0,268.0,230.0,276.0,233.5,276.0,236.5,284.0,238.5,286.5,244.5,293.0,248.0,301.5,241.0,307.5,246.0,311.5,254.0,311.5,262.0,315.5,263.0,320.5,265.0,327.5,277.5,326.5,285.5,323.5,290.0,325.0,297.0,325.0,305.0,329.0,313.0,328.0,314.0,323.0" stroke="black" stroke-width="2" fill="none" />
<polyline points="321.0,331.0,322.5,336.0" stroke="black" stroke-width="2" fill="none" />
<polyline points="312.0,337.5,325.5,337.0,323.5,344.5,324.5,349.0,321.5,356.5,326.0,356.5,326.0,364.0,320.5,371.5,312.5,381.5,305.5,389.0,291.5,391.0,292.5,402.0,282.5,404.0,281.0,408.0,284.0,414.0,286.0,417.5,281.0,417.5,271.0,424.5,267.0,434.5,258.0,441.5,257.5,449.5,256.0,457.5,259.5,459.5,257.5,464.5,246.5,473.0,249.5,478.0,253.5,481.0,243.5,488.0,246.5,486.0,250.0,478.0,256.0,480.0,263.0,466.0,266.0,462.0,276.5,454.0,278.5,460.5,286.5,462.5,292.0,455.5,301.0,449.5,309.0,448.0,317.0,439.5,325.0,434.0,331.0,427.0,336.0,415.5,343.0,407.5,334.5,415.0,332.5,422.0,329.5,429.5,324.0,437.5,319.0,444.5,318.0,445.0" stroke="black" stroke-width="2" fill="none" />
<polyline points="321.5,428.5,313.5,428.0" stroke="black" stroke-width="2" fill="none" />
<polyline points="315.5,425.0,317.0,421.0,329.0,411.0,337.0,403.0,345.0,403.0" stroke="black" stroke-width="2" fill="none" />
<polyline points="344.5,399.5,336.5,401.5" stroke="black" stroke-width="2" fill="none" />
<polyline points="341.5,415.0,333.5,428.0,327.5,436.0,319.5,447.5,311.0,461.0,302.5,472.5,294.5,485.5,289.5,486.5,282.5,497.5,277.0,498.5,273.0,506.5,267.5,523.5,261.5,530.5,253.5,542.0,254.5,547.0,260.5,539.0,265.5,530.5,271.5,523.0,277.0,515.0,281.5,507.0,287.0,499.0,292.0,491.0,298.0,483.0,303.0,474.5,308.5,466.5,314.5,458.0,318.5,450.0,325.5,442.5,328.0,434.0,331.0,433.0,334.5,424.5,340.5,417.0,345.0,409.0,342.0,396.0,340.0,391.0,342.0,383.0,340.5,375.0,338.5,372.0" stroke="black" stroke-width="2" fill="none" />
<polyline points="334.5,374.0,337.5,381.5,336.0,385.5" stroke="black" stroke-width="2" fill="none" />
<polyline points="317.5,394.0,310.0,394.0" stroke="black" stroke-width="2" fill="none" />
<polyline points="308.5,395.5,316.5,390.5" stroke="black" stroke-width="2" fill="none" />
<polyline points="308.0,398.5,310.0,400.5,312.0,408.5,313.5,405.5,313.5,404.5,317.5,399.5,321.0,402.5" stroke="black" stroke-width="2" fill="none" />
<polyline points="323.0,374.0,311.0,371.0,323.0,365.5,316.0,363.0,308.5,368.0" stroke="black" stroke-width="2" fill="none" />
<polyline points="303.5,380.0,298.5,384.0,292.5,384.0" stroke="black" stroke-width="2" fill="none" />
<polyline points="292.0,382.0,295.5,376.0,292.5,384.0,276.5,386.5,284.5,384.5,286.0,377.0,293.5,364.0" stroke="black" stroke-width="2" fill="none" />
<polyline points="285.5,364.0,293.5,359.0,293.0,365.0,290.0,373.0,283.0,381.5,283.0,392.5,274.0,400.5,281.0,395.0,286.5,398.5,294.5,402.5,299.5,393.5,307.5,388.5,311.5,380.5,320.0,378.5,320.0,369.5,325.5,370.5,337.5,378.0" stroke="black" stroke-width="2" fill="none" />
<polyline points="364.5,383.5,372.5,385.5,371.5,379.5,382.0,378.0,399.0,373.5,407.0,366.5" stroke="black" stroke-width="2" fill="none" />
<polyline points="386.5,353.5,381.5,340.5,374.5,340.0,375.0,334.5" stroke="black" stroke-width="2" fill="none" />
<polyline points="357.5,330.5,365.5,327.5,371.5,323.5,380.0,320.5,385.0,312.5,392.5,309.5" stroke="black" stroke-width="2" fill="none" />
<polyline points="394.0,326.0,394.5,334.5" stroke="black" stroke-width="2" fill="none" />
<polyline points="396.0,330.0,392.0,326.5,384.0,334.5,376.5,335.5,372.0,342.5,369.0,339.0,363.5,350.0,355.5,353.0,355.0,340.0,354.5,332.0,355.0,324.0" stroke="black" stroke-width="2" fill="none" />
<polyline points="332.5,350.0,334.5,358.0" stroke="black" stroke-width="2" fill="none" />
<polyline points="309.5,333.0,316.5,339.0,321.5,347.0,330.0,357.0,330.5,365.0,331.0,372.5,331.0,374.5,334.0,382.0,336.5,390.0,340.5,398.0,329.5,411.5,324.5,415.0,313.5,423.0,317.5,428.0,306.5,437.0,310.5,445.0,315.0,449.0,311.0,457.0,305.0,464.5,299.0,472.5,294.5,481.5,294.0,472.5,299.0,472.5,299.5,459.0,302.0,453.5,304.5,453.5,298.0,461.5,299.0,465.0,293.0,473.0,293.5,478.5" stroke="black" stroke-width="2" fill="none" />
<polyline points="299.0,464.5,307.0,462.0" stroke="black" stroke-width="2" fill="none" />
<polyline points="287.0,450.0,277.0,447.5" stroke="black" stroke-width="2" fill="none" />
<polyline points="277.5,454.0,275.5,462.0" stroke="black" stroke-width="2" fill="none" />
<polyline points="273.5,482.0,281.0,482.0" stroke="black" stroke-width="2" fill="none" />
<polyline points="270.5,495.0,276.5,497.0,273.0,505.5" stroke="black" stroke-width="2" fill="none" />
<polyline points="264.5,515.0,260.0,519.0,252.0,526.0,246.0,537.0,251.5,529.5,255.5,522.0,262.5,515.0,265.5,507.0,269.5,499.0,267.0,490.0,281.0,486.0,274.0,490.0,266.0,494.0" stroke="black" stroke-width="2" fill="none" />
<polyline points="287.0,486.0,281.0,492.0,273.0,495.0,267.0,504.5,257.0,509.5,252.0,511.0,248.5,514.0,244.5,511.5,243.5,508.0,236.0,515.0,241.0,507.5,239.5,501.0,248.0,492.5,257.0,480.5,258.0,472.0,267.0,464.0,266.5,456.5,270.0,450.5,274.0,442.5,275.0,435.0,272.0,429.0,264.0,438.5" stroke="black" stroke-width="2" fill="none" />
<polyline points="272.0,435.0,269.0,443.0,257.0,447.0,264.0,455.0,267.5,444.5,276.5,432.5,282.0,433.5,287.5,425.0" stroke="black" stroke-width="2" fill="none" />
<polyline points="290.5,416.0,282.0,422.0,274.0,424.5" stroke="black" stroke-width="2" fill="none" />
<polyline points="272.0,422.5,280.0,416.5,283.5,419.0,282.5,427.5,281.5,433.5,277.0,441.5,279.0,446.5,273.0,454.0,283.0,455.0,283.5,461.0,285.5,472.0,286.5,480.0,289.0,488.0,285.0,493.0,281.0,501.0,275.0,509.0,270.5,517.0,263.5,525.5,260.0,534.0,253.0,542.0" stroke="black" stroke-width="2" fill="none" />
<polyline points="235.5,540.0,238.0,531.5,235.0,522.0,242.0,514.0,249.0,513.0,237.5,518.0" stroke="black" stroke-width="2" fill="none" />
<polyline points="229.5,520.0,233.0,528.0" stroke="black" stroke-width="2" fill="none" />
<polyline points="227.0,536.5,227.0,526.5,226.0,518.5,224.5,519.5" stroke="black" stroke-width="2" fill="none" />
<polyline points="225.5,504.0,220.0,507.0,228.0,504.5,235.5,502.0,243.5,494.5,249.5,497.0" stroke="black" stroke-width="2" fill="none" />
<polyline points="241.5,476.0,249.5,472.0,254.0,464.5,261.5,456.5,269.0,452.0,273.5,445.0,281.0,437.0" stroke="black" stroke-width="2" fill="none" />
<polyline points="301.0,431.5,287.0,439.5,295.0,436.0,306.0,437.0,314.0,433.5" stroke="black" stroke-width="2" fill="none" />
<polyline points="294.5,411.5,286.0,409.5,277.5,413.5,278.5,404.0,284.5,403.0,276.5,406.0" stroke="black" stroke-width="2" fill="none" />
<polyline points="257.5,373.0,265.5,370.0,275.0,366.0" stroke="black" stroke-width="2" fill="none" />
<polyline points="279.5,337.5,281.5,334.0" stroke="black" stroke-width="2" fill="none" />
<polyline points="283.5,332.0,291.5,330.5" stroke="black" stroke-width="2" fill="none" />
<polyline points="302.5,327.0,312.5,335.0,315.0,342.5,306.0,350.5,314.0,348.5,316.0,342.0,323.5,353.5,329.5,350.5,330.0,353.0,335.0,359.0" stroke="black" stroke-width="2" fill="none" />
<polyline points="288.0,343.5,283.5,338.0,284.5,328.5,284.5,323.5,279.0,320.0" stroke="black" stroke-width="2" fill="none" />
<polyline points="262.0,325.5,257.0,316.0" stroke="black" stroke-width="2" fill="none" />
<polyline points="265.5,324.0,270.0,314.0,262.5,306.5,258.5,300.5,255.0,292.0" stroke="black" stroke-width="2" fill="none" />
<polyline points="236.5,291.0,244.0,299.5,253.0,303.5,261.0,302.5,269.0,313.0,277.0,319.0,284.5,318.5,292.0,319.5,300.0,320.0,308.0,321.0" stroke="black" stroke-width="2" fill="none" />
<polyline points="243.5,282.5,236.5,288.5,236.5,285.0" stroke="black" stroke-width="2" fill="none" />
<polyline points="231.5,281.0,234.5,289.0,240.5,297.0,247.0,305.0" stroke="black" stroke-width="2" fill="none" />
<polyline points="248.0,286.5,243.0,278.5,245.0,270.5" stroke="black" stroke-width="2" fill="none" />
<polyline points="240.5,264.0,232.0,258.0,230.0,263.0,224.0,260.5,216.0,259.0,209.0,257.0,203.0,248.5,202.0,249.5" stroke="black" stroke-width="2" fill="none" />
<polyline points="229.0,265.0,233.0,273.0" stroke="black" stroke-width="2" fill="none" />
<polyline points="236.5,258.0,242.5,266.0,240.5,273.5,246.5,280.5,240.5,286.0,246.0,293.5" stroke="black" stroke-width="2" fill="none" />
<polyline points="212.5,300.0,204.5,298.0" stroke="black" stroke-width="2" fill="none" />
<polyline points="204.0,301.5,212.0,303.5" stroke="black" stroke-width="2" fill="none" />
<polyline points="212.5,293.5,204.0,293.5" stroke="black" stroke-width="2" fill="none" />
<polyline points="203.0,289.5,211.0,290.5,212.0,286.0" stroke="black" stroke-width="2" fill="none" />
<polyline points="182.5,303.0,174.5,305.0" stroke="black" stroke-width="2" fill="none" />
<polyline points="171.0,326.0,169.0,323.5,161.0,324.5" stroke="black" stroke-width="2" fill="none" />
<polyline points="143.0,329.5,135.0,337.5,128.5,345.5,130.0,357.5,118.0,364.0,113.0,372.0,107.5,380.5,103.0,388.5,97.0,396.5,90.0,405.0,84.5,413.0,80.0,421.0,76.5,429.0,81.5,437.0,92.5,444.5,100.0,449.0,109.5,457.0,119.0,464.5,128.0,472.0,141.0,478.0,154.0,486.0,163.0,494.0,173.0,502.0,182.0,510.5,193.5,511.5,202.5,522.0,214.5,530.0,222.5,534.0,230.5,542.0" stroke="black" stroke-width="2" fill="none" />
<polyline points="219.5,534.5,227.5,540.5,235.5,545.0,244.0,549.0,252.0,550.5,260.0,539.0,267.5,525.5,275.5,515.0,283.0,502.0,290.5,490.0" stroke="black" stroke-width="2" fill="none" />
<polyline points="341.5,530.0,349.5,517.0,357.5,512.0,365.5,511.0,374.0,506.5,376.0,511.5,384.0,513.5,391.5,510.5,399.5,518.0,406.5,515.0,414.5,518.0,422.5,524.0" stroke="black" stroke-width="2" fill="none" />
<polyline points="416.5,519.5,407.5,515.0,402.5,514.0,394.5,507.5" stroke="black" stroke-width="2" fill="none" />
<polyline points="396.5,507.0,402.5,515.0,409.0,522.0,408.0,524.0,416.0,529.5,424.5,539.0" stroke="black" stroke-width="2" fill="none" />
<polyline points="431.5,552.5,427.5,544.0,421.5,536.0,411.5,527.5,399.5,519.0,392.5,511.0" stroke="black" stroke-width="2" fill="none" />
<polyline points="358.0,508.5,351.0,515.5,343.0,523.0,340.5,530.5,340.0,538.5,340.0,546.0,340.5,554.0,337.0,550.0,327.5,551.5,330.5,552.5,332.5,544.5" stroke="black" stroke-width="2" fill="none" />
<polyline points="337.0,542.5,338.0,551.0,329.0,555.5" stroke="black" stroke-width="2" fill="none" />
<polyline points="228.5,448.0,220.5,446.0" stroke="black" stroke-width="2" fill="none" />
<polyline points="219.5,442.5,227.5,440.0,230.5,430.0,232.5,419.5" stroke="black" stroke-width="2" fill="none" />
<polyline points="227.0,427.0,224.0,434.5,228.5,435.5,225.0,441.5" stroke="black" stroke-width="2" fill="none" />
<polyline points="216.0,455.0,224.0,455.5,217.0,459.0,225.0,459.0" stroke="black" stroke-width="2" fill="none" />
<polyline points="192.0,497.0,184.5,497.0" stroke="black" stroke-width="2" fill="none" />
<polyline points="172.0,502.5,180.0,509.5,188.0,510.5,193.0,512.0" stroke="black" stroke-width="2" fill="none" />
<polyline points="214.5,487.5,206.5,478.5,198.5,475.5,190.5,469.5,182.5,462.5,174.5,456.0" stroke="black" stroke-width="2" fill="none" />
<polyline points="173.5,455.0,184.0,463.0,193.0,471.5,202.5,480.0,209.0,483.5,215.5,489.5,214.0,497.5" stroke="black" stroke-width="2" fill="none" />
<polyline points="191.5,445.0,183.5,442.5,175.5,431.0" stroke="black" stroke-width="2" fill="none" />
<polyline points="173.5,431.5,181.5,429.5,173.5,434.0,178.5,435.5,185.0,443.5" stroke="black" stroke-width="2" fill="none" />
<polyline points="179.5,421.5,187.5,419.0" stroke="black" stroke-width="2" fill="none" />
<polyline points="183.0,411.0,173.0,419.5" stroke="black" stroke-width="2" fill="none" />
<polyline points="167.5,424.5,159.5,425.0,151.0,432.0" stroke="black" stroke-width="2" fill="none" />
<polyline points="149.5,425.5,159.5,425.5" stroke="black" stroke-width="2" fill="none" />
<polyline points="151.5,443.0,143.5,445.0,147.5,441.0,149.5,427.5,154.5,419.0,161.0,410.5,159.0,402.0,158.5,399.0" stroke="black" stroke-width="2" fill="none" />
<polyline points="162.0,401.0,163.5,409.0,167.5,418.5,172.5,419.5,180.0,414.5" stroke="black" stroke-width="2" fill="none" />
<polyline points="172.0,405.5,167.0,412.5,179.0,412.5,192.0,406.0,197.5,408.5" stroke="black" stroke-width="2" fill="none" />
<polyline points="180.0,391.5,181.0,397.0,181.0,389.0" stroke="black" stroke-width="2" fill="none" />
<polyline points="172.0,350.5,180.0,349.0" stroke="black" stroke-width="2" fill="none" />
<polyline points="183.5,345.0,175.5,346.0" stroke="black" stroke-width="2" fill="none" />
<polyline points="174.5,340.0,182.5,338.0" stroke="black" stroke-width="2" fill="none" />
<polyline points="151.0,361.0,150.0,369.5,150.0,361.5" stroke="black" stroke-width="2" fill="none" />
<polyline points="138.0,342.0,133.0,350.5,133.0,345.5" stroke="black" stroke-width="2" fill="none" />
<polyline points="134.0,351.0,129.0,363.5,121.5,368.5,114.5,377.0,106.5,390.0,98.0,397.5,93.0,404.0,88.0,418.0,87.5,424.0,89.5,415.0,89.5,408.0,95.5,405.0,100.5,397.0,106.0,389.5,112.0,381.5,116.5,374.5,122.0,366.0,123.0,356.0,129.5,348.0,135.5,340.0" stroke="black" stroke-width="2" fill="none" />
<polyline points="142.0,332.5,133.5,340.5,125.5,352.0,117.5,364.0,109.0,376.0,99.5,391.0,91.5,400.5,83.0,410.5,75.0,424.5" stroke="black" stroke-width="2" fill="none" />
<polyline points="77.5,430.0,86.0,437.5,93.5,443.0,97.5,443.5,106.0,450.0,112.0,456.5,119.5,463.0,127.5,459.5,135.5,463.5,144.0,468.5" stroke="black" stroke-width="2" fill="none" />
<polyline points="130.5,473.0,138.5,477.0,147.0,482.0,155.0,487.0,163.0,494.5,171.0,501.5,179.0,500.0,179.0,504.0,191.0,512.5,193.0,516.5,201.0,520.5,209.5,524.5,217.5,531.0,225.5,534.0,233.0,539.0,243.0,533.0,243.0,528.0,243.5,533.0,240.5,541.0" stroke="black" stroke-width="2" fill="none" />
<polyline points="154.0,417.0,146.0,421.0,138.5,424.0,132.5,429.0,118.0,433.0,110.0,437.5,101.5,443.0,103.0,442.0,109.0,436.5,108.0,427.5,121.0,427.0,119.0,418.0,110.0,417.0,101.0,419.0" stroke="black" stroke-width="2" fill="none" />
<polyline points="105.0,422.0,113.0,425.5" stroke="black" stroke-width="2" fill="none" />
<polyline points="112.0,419.0,119.5,418.5,125.5,429.5,120.5,432.5,125.0,434.5" stroke="black" stroke-width="2" fill="none" />
<polyline points="114.0,436.0,112.0,444.0,113.0,442.0" stroke="black" stroke-width="2" fill="none" />
<polyline points="106.5,431.0,114.5,426.0" stroke="black" stroke-width="2" fill="none" />
<polyline points="130.0,406.0,137.5,412.0" stroke="black" stroke-width="2" fill="none" />
<polyline points="139.0,412.0,133.0,404.5" stroke="black" stroke-width="2" fill="none" />
<polyline points="128.5,404.0,131.0,411.5" stroke="black" stroke-width="2" fill="none" />
<polyline points="132.0,402.0,122.5,408.5,121.5,400.5,123.0,400.5" stroke="black" stroke-width="2" fill="none" />
<polyline points="68.0,377.0,69.0,367.0" stroke="black" stroke-width="2" fill="none" />
<polyline points="63.0,384.5,64.0,392.5,61.0,409.0,59.0,417.0" stroke="black" stroke-width="2" fill="none" />
<polyline points="65.5,397.5,57.5,406.5,49.5,424.0,41.5,429.0,34.0,430.0,26.5,428.0,19.0,424.0,11.0,420.0,3.5,418.0" stroke="black" stroke-width="2" fill="none" />
<polyline points="3.5,417.5,20.5,425.5" stroke="black" stroke-width="2" fill="none" />
<polyline points="66.0,352.0,63.0,350.0,59.0,342.5,58.0,334.5" stroke="black" stroke-width="2" fill="none" />
<polyline points="66.0,331.0,70.0,338.5,70.0,346.5,69.0,355.0,66.0,363.0,72.0,363.0,68.5,371.5,72.0,374.0,68.0,382.0,68.0,390.0,62.5,398.0,63.5,402.0,58.0,410.0,55.0,418.0,48.0,427.0,36.0,434.0,42.0,433.0,51.0,429.5" stroke="black" stroke-width="2" fill="none" />
<polyline points="44.5,322.5,40.5,314.0,32.5,316.0,24.5,317.0,16.5,312.0" stroke="black" stroke-width="2" fill="none" />
<polyline points="7.0,318.5,3.0,310.5" stroke="black" stroke-width="2" fill="none" />
<polyline points="2.0,295.0,4.5,291.5,12.5,292.0,20.5,291.0,29.5,292.0" stroke="black" stroke-width="2" fill="none" />
<polyline points="60.5,287.0,68.5,285.0,76.0,282.0,83.5,278.0,91.0,274.0,96.0,269.5,105.0,257.5,113.0,254.0,121.0,252.0" stroke="black" stroke-width="2" fill="none" />
<polyline points="124.5,249.5,116.0,246.5,110.0,243.5,119.5,237.5,123.5,229.5,129.5,221.5,125.5,208.5,122.5,208.5,112.5,200.0,112.5,192.0,111.5,184.0,106.5,179.0,110.5,171.0,109.5,164.0,101.0,165.0,95.0,166.5,93.0,168.0,101.5,160.5,95.5,150.0,80.5,144.0,86.0,138.5,86.0,130.0,83.0,121.5,89.0,110.5,90.5,112.0,82.5,118.0" stroke="black" stroke-width="2" fill="none" />
<polyline points="82.0,122.5,88.0,124.5,89.5,132.5,83.5,132.0,89.0,133.5,94.0,127.5" stroke="black" stroke-width="2" fill="none" />
<polyline points="100.0,117.0,108.0,110.5,117.0,109.0,124.5,105.0" stroke="black" stroke-width="2" fill="none" />
<polyline points="121.0,97.0,135.0,98.0,129.0,105.0,128.0,108.5,129.0,117.0" stroke="black" stroke-width="2" fill="none" />
<polyline points="115.0,135.0,120.0,131.0,107.0,137.5,119.0,141.0,111.0,149.0,116.5,142.5,125.5,150.5" stroke="black" stroke-width="2" fill="none" />
<polyline points="120.5,140.5,122.5,148.5,123.0,158.0,127.5,166.0,125.5,174.5,121.0,174.5,128.0,170.5,132.0,171.0" stroke="black" stroke-width="2" fill="none" />
<polyline points="131.0,171.0,128.0,179.0,128.0,178.0" stroke="black" stroke-width="2" fill="none" />
<polyline points="134.5,181.5,131.5,182.0,135.5,174.0" stroke="black" stroke-width="2" fill="none" />
<polyline points="133.0,191.5,141.0,192.5" stroke="black" stroke-width="2" fill="none" />
<polyline points="127.5,218.5,123.5,228.5,118.5,237.0,111.0,242.0" stroke="black" stroke-width="2" fill="none" />
<polyline points="110.5,255.5,105.5,263.5,96.0,269.5,86.5,277.5,70.0,285.5" stroke="black" stroke-width="2" fill="none" />
<polyline points="124.0,231.5,123.5,239.5,121.0,243.0,126.0,229.5" stroke="black" stroke-width="2" fill="none" />
<polyline points="177.0,277.5,173.5,286.0,177.5,278.0" stroke="black" stroke-width="2" fill="none" />
<polyline points="178.0,280.0,175.5,288.5" stroke="black" stroke-width="2" fill="none" />
<polyline points="233.0,388.0,232.5,396.5,234.5,404.0,242.5,403.0,245.5,407.5" stroke="black" stroke-width="2" fill="none" />
<polyline points="234.0,397.5,235.5,397.5,234.5,389.5" stroke="black" stroke-width="2" fill="none" />
<polyline points="443.5,299.5,447.0,299.5,450.0,307.5,452.0,310.5,460.0,309.5" stroke="black" stroke-width="2" fill="none" />
<polyline points="474.0,298.5,473.0,300.5,469.5,295.5,467.5,287.5" stroke="black" stroke-width="2" fill="none" />
<polyline points="482.5,288.0,483.5,296.0" stroke="black" stroke-width="2" fill="none" />
<polyline points="483.0,290.0,491.0,293.0,492.0,295.0" stroke="black" stroke-width="2" fill="none" />
<polyline points="511.5,290.0,511.5,282.0" stroke="black" stroke-width="2" fill="none" />
<polyline points="511.0,348.0,507.0,356.0,503.0,364.0,506.0,357.0" stroke="black" stroke-width="2" fill="none" />
<polyline points="469.0,452.5,466.5,461.0,456.5,466.5,455.5,473.5,465.5,471.5" stroke="black" stroke-width="2" fill="none" />
<polyline points="428.0,208.0,428.5,200.0,427.5,202.0" stroke="black" stroke-width="2" fill="none" />
<polyline points="432.0,201.0,434.0,209.0" stroke="black" stroke-width="2" fill="none" />
<polyline points="445.5,193.0,454.0,196.0" stroke="black" stroke-width="2" fill="none" />
<polyline points="452.0,188.0,444.5,189.0" stroke="black" stroke-width="2" fill="none" />
<polyline points="457.5,179.0,465.5,177.0,473.5,176.0,481.0,173.5,489.0,171.5,497.0,170.0,505.0,170.0" stroke="black" stroke-width="2" fill="none" />
<polyline points="499.5,178.5,492.0,178.5" stroke="black" stroke-width="2" fill="none" />
<polyline points="484.0,178.5,492.0,178.5,500.0,177.0" stroke="black" stroke-width="2" fill="none" />
<polyline points="509.0,104.0,504.5,114.0,506.0,106.5,510.0,99.0,509.5,91.0,511.0,85.0" stroke="black" stroke-width="2" fill="none" />
<polyline points="506.5,89.5,498.0,95.5,491.5,103.0,484.0,103.0,475.5,101.5,467.5,98.5,459.0,97.5,455.0,95.5,447.0,95.5,439.0,92.5" stroke="black" stroke-width="2" fill="none" />
<polyline points="438.5,60.0,446.5,61.0,454.0,54.0,462.0,54.5" stroke="black" stroke-width="2" fill="none" />
<polyline points="445.0,50.5,437.5,44.5" stroke="black" stroke-width="2" fill="none" />
<polyline points="443.5,43.5,440.5,36.5" stroke="black" stroke-width="2" fill="none" />
<polyline points="444.5,30.0,453.0,24.0,447.5,21.0,443.5,29.5,444.0,26.5,449.0,25.0,452.0,33.0,459.5,32.0,462.0,30.0" stroke="black" stroke-width="2" fill="none" />
<polyline points="459.5,25.5,451.5,24.0" stroke="black" stroke-width="2" fill="none" />
<polyline points="438.5,43.0,434.5,35.5,426.5,37.5" stroke="black" stroke-width="2" fill="none" />
<polyline points="426.0,32.0,424.0,17.0,428.0,25.0,426.5,33.0,428.5,41.0,434.5,43.0,445.5,51.0,452.5,57.0,457.5,65.5,456.0,60.5,457.0,55.5" stroke="black" stroke-width="2" fill="none" />
<polyline points="444.0,47.0,438.5,38.5,437.5,33.0,433.0,25.0,433.0,18.0,424.5,17.5" stroke="black" stroke-width="2" fill="none" />
<polyline points="403.0,21.5,405.0,29.5" stroke="black" stroke-width="2" fill="none" />
<polyline points="398.0,23.5,406.0,21.0,400.0,24.0,396.5,35.0,393.5,43.0,396.5,48.0" stroke="black" stroke-width="2" fill="none" />
<polyline points="403.0,44.5,403.0,36.5,397.0,35.5" stroke="black" stroke-width="2" fill="none" />
<polyline points="376.0,56.5,373.0,64.5,366.0,72.5,371.5,68.5" stroke="black" stroke-width="2" fill="none" />
<polyline points="378.0,74.5,386.0,77.0,394.5,79.5,402.5,84.0,411.0,85.0,419.0,88.5,427.0,90.5,435.0,84.0,440.0,87.5,442.0,95.5" stroke="black" stroke-width="2" fill="none" />
<polyline points="410.5,93.5,394.0,86.0" stroke="black" stroke-width="2" fill="none" />
<polyline points="404.0,77.5,397.0,72.0,388.0,72.0,380.0,72.0,372.0,74.5,365.0,76.5,366.0,65.0,374.0,57.0,363.0,58.5,355.0,65.5,346.5,63.5" stroke="black" stroke-width="2" fill="none" />
<polyline points="351.0,68.5,358.5,70.5,362.0,67.5,366.0,64.5,374.5,55.5" stroke="black" stroke-width="2" fill="none" />
<polyline points="382.5,71.5,396.5,75.5,403.5,83.0" stroke="black" stroke-width="2" fill="none" />
<polyline points="360.5,82.5,359.0,83.0,348.5,73.0,347.5,62.0,348.0,55.0,339.5,58.5,334.5,60.5,328.5,54.0,320.5,52.5,312.5,53.5,311.5,49.5,311.5,41.5,316.5,34.5,318.0,26.5,315.0,36.0" stroke="black" stroke-width="2" fill="none" />
<polyline points="308.0,57.0,316.0,60.5,320.0,57.5,328.0,61.5" stroke="black" stroke-width="2" fill="none" />
<polyline points="323.0,65.0,330.5,67.0,338.5,68.0,346.0,72.5,354.0,75.5,362.0,78.0,370.0,80.0,378.0,80.0,386.0,82.0,394.0,85.0,401.5,87.5,409.5,92.0,417.5,92.5,425.5,96.0,434.0,98.5,442.0,100.5,450.0,102.5,458.5,104.5,467.0,106.5,474.5,109.5,482.5,112.5,490.5,116.0,499.0,116.5" stroke="black" stroke-width="2" fill="none" />
<polyline points="485.0,82.5,480.5,87.0,485.5,78.5,490.0,71.0" stroke="black" stroke-width="2" fill="none" />
<polyline points="478.0,66.5,475.0,74.5,472.0,83.0,474.5,76.0" stroke="black" stroke-width="2" fill="none" />
<polyline points="477.0,75.5,479.0,83.5,475.5,85.0,480.0,75.0,488.0,71.5,496.5,70.5,504.5,64.5" stroke="black" stroke-width="2" fill="none" />
<polyline points="506.0,64.0,504.0,72.0,511.5,78.0,508.0,86.0,506.0,94.0,498.0,95.0" stroke="black" stroke-width="2" fill="none" />
<polyline points="490.5,28.5,482.5,38.5,487.5,40.5,488.5,32.5,494.5,36.5,502.0,28.5,497.0,20.0,500.5,12.0,491.0,10.5" stroke="black" stroke-width="2" fill="none" />
<polyline points="490.5,4.0,493.0,14.5,491.0,22.5,491.0,30.5,485.0,38.5,482.0,46.5,482.0,54.5,482.0,53.0,489.5,51.0,493.0,34.0,501.0,30.0,510.0,25.0" stroke="black" stroke-width="2" fill="none" />
<polyline points="505.0,2.5,507.0,11.0,508.0,19.0,509.0,28.0,509.5,35.5,508.5,43.0,505.5,52.0,512.0,57.5,503.0,64.5,496.0,72.5,501.5,72.5,508.5,61.5" stroke="black" stroke-width="2" fill="none" />
<polyline points="349.0,14.0,354.0,19.0,346.0,22.5,346.0,14.5,353.0,12.0,349.0,8.0,341.0,8.0" stroke="black" stroke-width="2" fill="none" />
<polyline points="336.5,6.0,342.0,10.5,340.0,18.0,339.5,27.0,340.5,33.5,339.5,35.0,342.0,27.0,343.0,33.5,351.0,28.5,346.0,35.0" stroke="black" stroke-width="2" fill="none" />
<polyline points="321.5,18.5,323.5,10.5,324.5,2.5" stroke="black" stroke-width="2" fill="none" />
<polyline points="320.0,2.0,318.0,10.0,315.5,18.0,312.5,26.0,310.0,34.0,307.0,42.0,306.5,50.5,313.0,60.0,323.0,60.0,334.0,63.0" stroke="black" stroke-width="2" fill="none" />
<polyline points="284.5,97.5,275.0,97.5,266.5,96.5,258.5,96.5" stroke="black" stroke-width="2" fill="none" />
<polyline points="257.5,94.0,266.0,92.5" stroke="black" stroke-width="2" fill="none" />
<polyline points="258.0,115.5,258.0,123.5,257.0,118.5" stroke="black" stroke-width="2" fill="none" />
<polyline points="259.0,67.5,257.0,67.5,246.5,65.5,240.5,55.5,232.5,56.5" stroke="black" stroke-width="2" fill="none" />
<polyline points="224.5,46.0,235.5,40.0,229.5,42.0,222.0,48.0,227.0,56.5,226.0,64.5,238.0,62.0,243.5,63.0,246.0,66.0,258.0,61.5,261.0,65.5" stroke="black" stroke-width="2" fill="none" />
<polyline points="236.0,66.0,232.5,59.0,229.5,50.0,219.5,43.5,217.0,48.5" stroke="black" stroke-width="2" fill="none" />
<polyline points="195.5,60.5,195.0,59.5,186.5,55.0" stroke="black" stroke-width="2" fill="none" />
<polyline points="186.5,55.0,189.0,62.5,193.0,75.0,197.5,80.5" stroke="black" stroke-width="2" fill="none" />
<polyline points="191.0,114.5,190.0,109.0,193.5,110.0,188.5,110.5,183.0,108.5,181.0,113.5" stroke="black" stroke-width="2" fill="none" />
<polyline points="202.0,133.5,202.0,141.5,202.0,133.5" stroke="black" stroke-width="2" fill="none" />
<polyline points="209.5,141.0,203.5,149.0,202.5,158.0,203.5,148.0" stroke="black" stroke-width="2" fill="none" />
<polyline points="198.5,157.5,190.5,155.0" stroke="black" stroke-width="2" fill="none" />
<polyline points="188.5,152.0,196.5,154.5" stroke="black" stroke-width="2" fill="none" />
<polyline points="190.5,164.0,183.0,158.5" stroke="black" stroke-width="2" fill="none" />
<polyline points="184.0,158.0,190.0,166.0" stroke="black" stroke-width="2" fill="none" />
<polyline points="191.0,168.5,183.0,160.0" stroke="black" stroke-width="2" fill="none" />
<polyline points="183.5,156.0,185.0,164.0,192.5,172.0,192.5,171.0" stroke="black" stroke-width="2" fill="none" />
<polyline points="124.5,119.0,120.5,118.0,114.5,110.0,120.5,109.5,122.0,99.5,122.0,88.0,118.0,74.0,110.0,70.0" stroke="black" stroke-width="2" fill="none" />
<polyline points="106.0,67.5,114.0,61.5,115.5,59.5" stroke="black" stroke-width="2" fill="none" />
<polyline points="116.5,47.0,124.5,53.0,135.5,52.0,134.5,60.0" stroke="black" stroke-width="2" fill="none" />
<polyline points="136.5,37.5,125.0,36.5,117.0,45.0" stroke="black" stroke-width="2" fill="none" />
<polyline points="116.0,30.5,126.0,38.5,129.5,46.0,124.5,55.5,133.5,62.5,138.5,51.0,145.5,39.0,142.5,44.0,133.5,50.0,130.0,57.5" stroke="black" stroke-width="2" fill="none" />
<polyline points="159.5,49.0,168.0,52.0" stroke="black" stroke-width="2" fill="none" />
<polyline points="161.5,49.0,169.5,47.0,177.5,49.5" stroke="black" stroke-width="2" fill="none" />
<polyline points="123.5,72.5,115.5,73.5,113.5,63.5,117.5,57.5,116.5,48.5,118.5,40.5,125.5,33.0,117.5,35.0,110.5,32.0,109.5,29.0,100.0,37.0,116.0,30.5,115.0,22.0,106.5,9.5,107.5,4.5,111.5,2.0,103.5,7.0" stroke="black" stroke-width="2" fill="none" />
<polyline points="105.5,10.5,113.5,5.5,113.5,13.0" stroke="black" stroke-width="2" fill="none" />
<polyline points="113.5,11.0,105.0,13.0" stroke="black" stroke-width="2" fill="none" />
<polyline points="82.0,23.5,85.0,31.5,85.5,39.5,82.5,48.0,90.0,50.5,85.5,58.5,81.5,60.5,84.0,68.0,81.0,76.0,81.0,87.0" stroke="black" stroke-width="2" fill="none" />
<polyline points="80.0,73.0,87.0,73.5,95.0,74.5,101.0,78.5,111.5,80.5,115.5,76.5,119.0,82.5" stroke="black" stroke-width="2" fill="none" />
<polyline points="121.5,140.0,113.5,139.0,105.5,144.0" stroke="black" stroke-width="2" fill="none" />
<polyline points="87.0,146.5,95.0,149.5,90.0,161.5" stroke="black" stroke-width="2" fill="none" />
<polyline points="82.0,152.0,79.0,160.0,75.0,166.5" stroke="black" stroke-width="2" fill="none" />
<polyline points="52.0,167.5,44.5,165.0,36.5,164.0,28.0,165.0,20.0,169.5,12.0,176.0,4.0,184.0,7.0,180.5,15.0,172.5,28.0,164.5" stroke="black" stroke-width="2" fill="none" />
<polyline points="234.0,24.5,226.0,31.0,224.0,26.0,235.0,18.0" stroke="black" stroke-width="2" fill="none" />
<polyline points="232.5,15.5,223.0,23.5,224.0,21.5,232.0,15.5" stroke="black" stroke-width="2" fill="none" />
<polyline points="243.0,16.5,234.0,24.5,227.0,23.0,235.0,18.0,244.0,17.0,246.0,26.5" stroke="black" stroke-width="2" fill="none" />
<polyline points="286.5,1.5,285.5,9.5,280.5,17.5,284.0,28.5,276.5,37.0,275.5,45.0,282.5,43.0,275.5,52.0,271.0,60.0,269.0,68.5,270.0,76.5,270.0,84.0,267.0,93.0,269.5,99.0,270.5,107.0,268.5,114.5" stroke="black" stroke-width="2" fill="none" />
<polyline points="289.0,108.0,289.0,100.5,288.0,93.0,288.5,84.5,288.0,76.5,287.5,68.5,287.0,60.5,284.0,52.5,287.5,44.5,287.5,36.5,290.5,28.0,291.0,20.0,288.0,19.0,290.5,11.0,291.0,3.0" stroke="black" stroke-width="2" fill="none" />
</svg>