<svg xmlns="http://www.w3.org/2000/svg" version="1.1"><polyline points="468.0,6.0,474.0,14.0" stroke="black" stroke-width="2" fill="none" />
<polyline points="468.5,5.5,476.5,6.0,484.0,8.0,492.0,5.0,489.0,13.5,490.5,21.5" stroke="black" stroke-width="2" fill="none" />
<polyline points="491.5,13.5,499.5,15.5,501.5,22.0,499.0,30.0" stroke="black" stroke-width="2" fill="none" />
<polyline points="509.0,30.5,509.0,32.5,511.5,41.0" stroke="black" stroke-width="2" fill="none" />
<polyline points="501.5,42.0,507.5,50.0,511.0,58.5,513.0,55.0" stroke="black" stroke-width="2" fill="none" />
<polyline points="511.5,51.5,508.5,43.5,501.0,41.5" stroke="black" stroke-width="2" fill="none" />
<polyline points="501.0,40.5,501.0,48.5,497.5,57.0,494.5,59.0,501.0,55.5" stroke="black" stroke-width="2" fill="none" />
<polyline points="491.0,50.0,483.0,48.0,475.5,47.0,473.0,42.5" stroke="black" stroke-width="2" fill="none" />
<polyline points="466.5,47.5,464.5,55.5,468.0,63.5,474.5,72.0" stroke="black" stroke-width="2" fill="none" />
<polyline points="481.5,65.0,489.5,70.0,500.5,77.0,506.0,76.5" stroke="black" stroke-width="2" fill="none" />
<polyline points="501.0,68.5,502.0,76.5,505.5,85.0,510.5,91.0,512.0,102.0,508.0,109.5,507.0,117.5,507.5,125.0,512.5,123.0" stroke="black" stroke-width="2" fill="none" />
<polyline points="493.0,102.5,483.5,110.5,491.5,102.0" stroke="black" stroke-width="2" fill="none" />
<polyline points="497.5,92.5,501.5,85.5,498.5,77.5,492.0,72.5,485.0,69.5,473.0,67.0,465.0,60.0" stroke="black" stroke-width="2" fill="none" />
<polyline points="458.0,138.0,450.0,138.0" stroke="black" stroke-width="2" fill="none" />
<polyline points="437.0,154.5,429.0,152.0,421.0,151.0" stroke="black" stroke-width="2" fill="none" />
<polyline points="416.5,157.0,425.0,156.5,433.5,158.5" stroke="black" stroke-width="2" fill="none" />
<polyline points="430.5,170.0,423.0,170.0" stroke="black" stroke-width="2" fill="none" />
<polyline points="432.0,173.0,424.0,172.5,416.0,173.5,408.5,172.0,400.5,176.5" stroke="black" stroke-width="2" fill="none" />
<polyline points="401.5,172.0,394.5,180.0,395.5,190.0,395.5,199.5,389.5,199.0,386.5,201.0,388.5,206.0,396.0,198.5,403.5,194.5,409.0,195.5,417.5,196.0" stroke="black" stroke-width="2" fill="none" />
<polyline points="410.5,201.5,419.0,206.5" stroke="black" stroke-width="2" fill="none" />
<polyline points="407.0,185.0,399.5,185.0,391.5,187.5,384.5,187.5,376.5,186.5,368.5,188.5" stroke="black" stroke-width="2" fill="none" />
<polyline points="375.0,174.0,383.0,176.0,391.0,179.0" stroke="black" stroke-width="2" fill="none" />
<polyline points="384.0,167.0,376.0,166.5" stroke="black" stroke-width="2" fill="none" />
<polyline points="369.0,160.0,362.0,163.0,370.0,164.0,368.5,166.0,364.5,165.0,371.0,166.5,381.5,164.5,389.0,163.5" stroke="black" stroke-width="2" fill="none" />
<polyline points="387.5,156.5,383.0,148.5,375.0,153.5" stroke="black" stroke-width="2" fill="none" />
<polyline points="379.5,143.0,380.0,146.0,375.0,154.0,372.0,163.0,377.0,176.0,380.0,173.5,388.0,176.0,398.0,172.0,401.5,174.0,406.0,164.5,410.0,169.0,418.0,169.0,425.5,167.0,433.5,168.0,442.0,169.0,449.5,169.5,449.5,171.0" stroke="black" stroke-width="2" fill="none" />
<polyline points="412.0,188.5,404.0,190.5,396.0,189.5,391.0,192.5,383.0,194.0,375.0,193.0,367.0,193.0,357.0,199.0,348.0,195.0,341.0,183.5,333.0,181.5,325.0,181.5,317.0,182.0,308.5,184.0,300.5,188.0,292.5,179.0,284.0,181.0,276.0,182.0,268.0,187.0,260.0,187.5,252.0,188.5,247.5,190.0,244.5,182.0" stroke="black" stroke-width="2" fill="none" />
<polyline points="238.5,179.5,240.0,187.5" stroke="black" stroke-width="2" fill="none" />
<polyline points="229.0,185.5,237.0,178.5,231.0,181.5,230.5,189.5,232.5,191.0,241.0,187.5,252.0,183.5,260.0,184.0" stroke="black" stroke-width="2" fill="none" />
<polyline points="263.0,192.5,258.0,200.0,262.0,193.5,270.0,194.5,278.5,193.0" stroke="black" stroke-width="2" fill="none" />
<polyline points="279.5,194.5,278.0,202.5,278.0,210.5,277.0,218.5,278.0,226.5,277.0,234.0,277.5,242.0,277.5,250.0,278.0,258.0,275.5,265.0,286.0,274.5,279.5,281.5,280.5,274.5,282.5,279.0,290.5,275.0,294.0,279.0,302.0,278.5,304.5,276.5,312.5,273.5,313.0,266.5,321.0,269.5,329.0,272.5,337.0,270.0,344.5,268.0,352.5,264.5" stroke="black" stroke-width="2" fill="none" />
<polyline points="349.0,268.0,346.0,270.5,352.0,279.0,363.0,278.5,371.0,276.5,379.5,278.5" stroke="black" stroke-width="2" fill="none" />
<polyline points="392.5,270.5,393.0,273.5,383.0,272.5,384.0,264.0,378.0,268.5,372.0,258.5" stroke="black" stroke-width="2" fill="none" />
<polyline points="374.0,247.0,382.0,248.0,391.0,244.5" stroke="black" stroke-width="2" fill="none" />
<polyline points="404.5,249.0,400.5,254.0,394.5,254.5,387.0,255.5,379.0,254.0,371.0,257.0,360.0,257.0,363.0,253.0,356.5,241.5,362.5,229.0,361.0,221.0,360.5,212.5,359.0,204.0,356.5,197.5,361.0,194.5,357.5,190.5,349.0,186.0" stroke="black" stroke-width="2" fill="none" />
<polyline points="351.5,185.0,346.5,193.0,346.5,201.5,345.0,210.0" stroke="black" stroke-width="2" fill="none" />
<polyline points="343.0,211.5,335.0,215.5,327.0,221.5,314.5,228.0,306.5,228.0,299.0,233.0,291.0,235.0" stroke="black" stroke-width="2" fill="none" />
<polyline points="292.0,237.5,300.0,239.5" stroke="black" stroke-width="2" fill="none" />
<polyline points="301.0,228.0,309.0,229.0" stroke="black" stroke-width="2" fill="none" />
<polyline points="311.5,215.0,303.0,214.0,295.0,220.0" stroke="black" stroke-width="2" fill="none" />
<polyline points="287.0,222.5,288.0,215.0,288.0,207.0,290.0,199.5,293.0,200.5" stroke="black" stroke-width="2" fill="none" />
<polyline points="293.0,200.5,294.0,208.0,294.5,208.0,302.5,203.5,310.5,205.0,318.0,205.0,326.5,205.0,333.5,199.0,336.5,205.0" stroke="black" stroke-width="2" fill="none" />
<polyline points="337.5,214.5,327.0,223.0,317.0,229.0" stroke="black" stroke-width="2" fill="none" />
<polyline points="331.0,233.0,339.0,231.0,347.0,230.0" stroke="black" stroke-width="2" fill="none" />
<polyline points="336.5,239.5,336.5,243.5,339.5,246.0,341.5,246.5,349.5,243.5,361.0,236.0,375.5,232.0" stroke="black" stroke-width="2" fill="none" />
<polyline points="375.0,231.0,370.0,239.0,370.5,248.0,370.5,256.0,372.5,264.0,372.5,271.0,375.5,266.0,386.5,264.0,390.5,262.0,400.5,257.0,402.5,260.0,410.0,261.0,418.0,257.0,421.0,259.5,433.5,254.5" stroke="black" stroke-width="2" fill="none" />
<polyline points="452.0,264.0,460.0,263.0" stroke="black" stroke-width="2" fill="none" />
<polyline points="462.0,268.0,454.0,267.0" stroke="black" stroke-width="2" fill="none" />
<polyline points="467.5,248.0,468.5,246.0,470.5,255.5,471.0,261.5,465.0,268.5,469.5,268.0,476.5,263.5,477.5,270.0,485.0,268.0" stroke="black" stroke-width="2" fill="none" />
<polyline points="500.0,255.0,501.5,250.5,505.5,252.5,501.0,259.5,486.0,268.5,496.0,273.0,484.5,272.0,492.5,273.5,498.5,276.5,507.0,276.5" stroke="black" stroke-width="2" fill="none" />
<polyline points="511.5,260.5,507.5,260.5,509.0,253.0,505.0,247.5,502.5,254.5" stroke="black" stroke-width="2" fill="none" />
<polyline points="511.0,241.5,503.0,241.5,495.0,242.0,487.5,242.0,479.5,242.0,472.0,243.0,463.5,243.0,455.5,242.5,447.5,242.5,439.5,242.5,431.5,242.5,423.5,244.0,415.5,244.0,407.0,243.0,399.0,243.0,391.0,242.5,382.5,242.0,374.5,241.5,361.5,242.5,353.5,243.5" stroke="black" stroke-width="2" fill="none" />
<polyline points="332.0,247.0,324.0,245.5" stroke="black" stroke-width="2" fill="none" />
<polyline points="304.5,243.5,297.5,245.0,289.5,245.5,281.5,241.0" stroke="black" stroke-width="2" fill="none" />
<polyline points="288.5,245.0,296.5,245.0,298.5,248.0" stroke="black" stroke-width="2" fill="none" />
<polyline points="297.5,267.0,305.5,266.0,316.0,276.5,309.0,278.0,314.5,279.0,318.0,274.0" stroke="black" stroke-width="2" fill="none" />
<polyline points="331.0,270.0,326.0,276.0,337.0,274.0" stroke="black" stroke-width="2" fill="none" />
<polyline points="338.5,267.0,331.0,275.0,333.0,279.0,336.5,277.0,344.5,275.0,351.5,270.0,359.5,272.0,368.0,270.0,377.0,261.0,385.0,261.5,390.0,252.5,398.0,247.5" stroke="black" stroke-width="2" fill="none" />
<polyline points="397.5,257.5,393.0,265.5,384.0,271.0,383.0,274.0,387.0,279.0,395.0,279.0,403.0,279.0,411.5,277.5,419.5,278.5,428.0,277.5,436.0,277.5,444.0,278.5,452.0,277.0,460.0,277.0,468.0,277.0,476.0,276.5,484.0,276.5,492.0,277.0" stroke="black" stroke-width="2" fill="none" />
<polyline points="510.5,269.5,502.5,272.5,495.0,270.0,487.0,266.0,478.5,262.5,474.0,263.5,470.5,262.5,462.5,262.5,454.5,262.0,446.5,264.5,445.5,267.5,437.5,267.5,429.5,266.0,421.0,265.5,416.0,271.5,413.0,273.5,409.5,270.5,401.0,266.5,394.0,267.0,390.0,268.0,382.0,270.0,374.5,265.0,360.5,261.5,363.0,256.5,364.5,248.0,359.5,240.0,365.0,239.5,366.0,229.5,371.5,220.0,369.5,212.0,367.5,204.0,366.5,196.0,369.0,184.5,361.0,183.5,353.0,186.5,344.5,191.0,336.5,190.0,329.0,190.0,321.0,190.5,313.5,190.0,305.5,193.0" stroke="black" stroke-width="2" fill="none" />
<polyline points="297.0,193.5,302.5,190.5,303.5,198.5,300.5,208.5,299.5,216.5,299.5,227.5,303.0,231.5,301.0,232.5,304.0,242.0,298.5,250.0,304.5,250.0,316.5,249.0,317.5,252.5,318.0,264.5,320.0,272.5,317.5,288.0,322.5,290.5" stroke="black" stroke-width="2" fill="none" />
<polyline points="340.5,280.5,348.5,279.5,357.0,275.5" stroke="black" stroke-width="2" fill="none" />
<polyline points="323.0,267.5,315.0,264.5,307.0,262.0,299.5,264.0,291.5,266.0,287.5,265.5,279.5,270.5,271.0,278.5,262.0,274.5,259.0,268.0,251.0,265.5,243.5,272.5,241.5,271.0,234.0,276.0,226.0,276.0,222.0,274.0,214.0,277.0,209.0,271.0,199.0,264.5,207.0,252.5" stroke="black" stroke-width="2" fill="none" />
<polyline points="214.5,254.0,222.5,253.5,230.5,255.5,235.5,256.5,239.5,261.5,245.0,253.5,248.0,260.5,248.0,263.5" stroke="black" stroke-width="2" fill="none" />
<polyline points="253.5,249.5,261.5,251.5" stroke="black" stroke-width="2" fill="none" />
<polyline points="267.5,264.0,267.5,264.0,264.5,267.0,266.5,277.0" stroke="black" stroke-width="2" fill="none" />
<polyline points="264.0,278.5,259.0,275.5,255.0,276.0,243.0,269.0,240.0,261.0,241.0,255.0,233.0,260.5,225.5,260.0" stroke="black" stroke-width="2" fill="none" />
<polyline points="223.0,271.0,229.0,261.0,223.0,259.0,215.0,250.0" stroke="black" stroke-width="2" fill="none" />
<polyline points="200.0,262.5,192.0,261.5" stroke="black" stroke-width="2" fill="none" />
<polyline points="184.0,279.5,176.0,277.5" stroke="black" stroke-width="2" fill="none" />
<polyline points="176.5,276.0,186.0,280.0,174.5,279.0,166.5,278.0,158.5,278.0" stroke="black" stroke-width="2" fill="none" />
<polyline points="157.0,276.0,165.0,272.5,173.0,271.5,181.0,267.5,185.0,272.0,193.0,270.5,194.0,278.0,202.0,279.0,208.0,269.0,213.0,271.0" stroke="black" stroke-width="2" fill="none" />
<polyline points="203.0,281.0,205.0,284.5,194.0,286.5" stroke="black" stroke-width="2" fill="none" />
<polyline points="196.0,251.5,188.5,253.5,181.5,254.0,173.5,250.0" stroke="black" stroke-width="2" fill="none" />
<polyline points="174.0,249.5,176.5,252.5,174.5,257.5,180.5,258.0,185.5,257.5,193.5,258.0,201.5,256.5,202.5,251.5,210.0,252.0,214.5,261.0,222.5,258.0,222.5,262.0,226.5,255.0,230.5,248.5" stroke="black" stroke-width="2" fill="none" />
<polyline points="241.5,279.0,240.0,286.5,244.5,281.5,244.5,279.5,251.0,275.5,259.0,272.0,267.5,272.0,268.5,261.5,277.0,259.5" stroke="black" stroke-width="2" fill="none" />
<polyline points="289.0,201.5,297.0,199.5" stroke="black" stroke-width="2" fill="none" />
<polyline points="283.5,192.5,285.5,200.5,284.0,208.0,282.0,216.0,284.0,222.0,284.0,234.0,283.0,241.5,283.0,250.5,283.0,258.0,287.5,263.0,285.5,266.5,271.5,272.0,268.5,276.5,275.0,274.0,273.5,271.5,280.5,264.5,287.5,258.0,293.0,256.0,301.0,257.5,309.0,255.5,311.0,260.5,319.0,262.5" stroke="black" stroke-width="2" fill="none" />
<polyline points="267.5,253.0,262.5,260.0,258.5,263.0,256.5,266.0,251.5,259.0,251.5,252.0,243.5,248.0,235.5,249.0,232.5,252.5,226.0,244.5,218.5,244.5,209.0,245.5,200.5,246.5,192.5,245.0,184.0,245.0,175.5,243.5,167.5,252.5,164.0,257.0,156.5,263.5,145.5,268.5,146.5,266.0,148.0,258.5,148.0,253.5,160.5,245.5,174.0,239.5,184.0,231.5,171.5,223.5" stroke="black" stroke-width="2" fill="none" />
<polyline points="162.0,233.5,154.0,236.5,146.0,236.5,138.0,235.5" stroke="black" stroke-width="2" fill="none" />
<polyline points="143.0,230.0,137.0,232.5,144.5,229.0,152.5,228.0,160.5,229.5" stroke="black" stroke-width="2" fill="none" />
<polyline points="177.0,240.0,179.5,248.0,182.5,249.5,183.0,261.5,174.5,265.5,184.0,268.0,192.5,277.5,187.5,292.5,198.0,283.5,206.5,290.5,214.5,292.0" stroke="black" stroke-width="2" fill="none" />
<polyline points="241.0,282.0,241.0,286.0,238.0,290.5,237.0,283.0,238.0,275.0,240.0,275.0,247.0,267.0,254.5,256.0,261.5,252.0,273.0,251.0,273.0,243.5,272.0,235.5,272.0,227.5,273.0,219.5,273.0,211.5,274.0,203.5,276.0,195.0,278.0,200.0" stroke="black" stroke-width="2" fill="none" />
<polyline points="281.0,198.0,280.0,206.5,280.0,217.5" stroke="black" stroke-width="2" fill="none" />
<polyline points="262.0,205.5,270.5,200.5,271.5,192.5" stroke="black" stroke-width="2" fill="none" />
<polyline points="297.0,175.0,305.0,172.0,306.0,176.0" stroke="black" stroke-width="2" fill="none" />
<polyline points="315.5,147.0,323.5,143.0,331.5,143.5,340.0,143.5,348.0,144.5,356.5,145.5,364.5,144.0" stroke="black" stroke-width="2" fill="none" />
<polyline points="357.5,166.5,356.5,164.0,349.0,164.0" stroke="black" stroke-width="2" fill="none" />
<polyline points="350.0,176.0,341.5,173.0,340.5,178.5" stroke="black" stroke-width="2" fill="none" />
<polyline points="346.5,191.5,354.0,199.5,356.0,207.0,356.0,215.0,356.0,222.5,356.0,233.0,353.0,241.0,356.0,247.5,360.0,255.5,364.0,265.5,371.0,268.5,358.0,275.5" stroke="black" stroke-width="2" fill="none" />
<polyline points="384.5,225.0,376.5,221.5,366.0,220.5,366.0,221.5,364.5,213.5,363.0,206.0" stroke="black" stroke-width="2" fill="none" />
<polyline points="413.0,206.5,409.0,204.5,412.5,196.5,409.5,182.5,407.5,174.5" stroke="black" stroke-width="2" fill="none" />
<polyline points="407.0,112.5,399.0,110.5" stroke="black" stroke-width="2" fill="none" />
<polyline points="400.0,111.0,406.5,119.0,405.5,126.5,400.5,134.0,399.0,138.0,407.0,124.0" stroke="black" stroke-width="2" fill="none" />
<polyline points="356.5,142.5,348.5,142.0,340.5,141.0,333.0,140.0,325.0,140.0" stroke="black" stroke-width="2" fill="none" />
<polyline points="323.0,144.0,313.0,155.0,320.0,156.5,328.0,156.5,335.5,158.5,343.5,158.5,351.0,158.5,359.0,160.5,367.0,159.5,375.5,160.5,383.5,161.5" stroke="black" stroke-width="2" fill="none" />
<polyline points="344.0,151.5,336.0,148.5,328.0,152.0,334.0,147.0" stroke="black" stroke-width="2" fill="none" />
<polyline points="319.0,115.0,311.0,116.0" stroke="black" stroke-width="2" fill="none" />
<polyline points="293.0,138.5,285.0,140.0" stroke="black" stroke-width="2" fill="none" />
<polyline points="281.5,142.0,290.0,142.5,297.5,141.5,305.5,142.0" stroke="black" stroke-width="2" fill="none" />
<polyline points="306.5,142.5,299.0,143.5,291.5,143.5,284.0,143.5,276.0,144.0" stroke="black" stroke-width="2" fill="none" />
<polyline points="283.5,150.5,275.5,153.5,267.5,158.5,259.0,158.5,251.0,159.5,244.0,159.5,238.0,166.5,230.5,167.5,222.5,167.5,214.5,168.5,206.5,169.5,199.0,169.0,191.0,169.5,183.0,169.5" stroke="black" stroke-width="2" fill="none" />
<polyline points="184.5,172.5,192.5,172.5,200.5,172.5,209.0,171.5,217.5,171.5,225.5,172.5,233.5,172.5,241.5,169.5,249.5,169.0,257.5,163.0,265.0,162.0,272.0,162.0,274.0,158.0,282.0,158.0,290.0,157.5,298.5,156.5,306.5,156.0,314.0,151.0,322.5,151.0" stroke="black" stroke-width="2" fill="none" />
<polyline points="287.5,149.0,272.0,161.5,258.0,163.5,258.5,168.5,265.5,178.0" stroke="black" stroke-width="2" fill="none" />
<polyline points="268.0,175.5,261.0,172.0,254.0,175.0,252.0,172.0,249.0,174.0,247.0,163.5,239.0,159.0,248.5,146.5,252.5,134.0,250.0,126.0,249.5,118.5,255.5,110.5,249.5,118.5" stroke="black" stroke-width="2" fill="none" />
<polyline points="239.0,123.0,238.0,116.0,229.5,117.5,221.5,116.5" stroke="black" stroke-width="2" fill="none" />
<polyline points="214.5,117.0,216.0,118.5,219.0,127.0,231.5,137.0" stroke="black" stroke-width="2" fill="none" />
<polyline points="214.5,120.0,222.5,128.0,227.5,133.0,235.5,141.0,243.5,140.0,249.5,130.0,259.5,131.0,267.5,125.0" stroke="black" stroke-width="2" fill="none" />
<polyline points="264.5,126.0,259.5,134.0,257.0,142.0,254.0,153.0,248.0,153.0,253.0,149.0,259.5,148.0,267.5,145.5,275.5,142.0,283.5,138.0,291.0,135.0,295.5,134.0,303.5,135.5,311.0,139.5,319.5,140.5,327.0,137.0,335.5,135.5,343.5,135.5,353.0,138.5,360.5,145.5,368.5,147.0,376.5,145.5,374.5,147.5,382.5,144.5,390.5,146.5" stroke="black" stroke-width="2" fill="none" />
<polyline points="268.0,172.5,259.5,169.5,254.5,171.0,247.5,164.5,239.0,160.5" stroke="black" stroke-width="2" fill="none" />
<polyline points="247.5,148.5,239.5,153.5,232.0,154.0,223.5,153.5,215.0,153.5,207.0,154.0,199.0,155.5,191.0,155.5" stroke="black" stroke-width="2" fill="none" />
<polyline points="191.5,139.0,193.5,136.0,192.0,143.5,190.5,151.5,199.0,150.5,207.5,150.0,215.5,149.0,223.5,148.0,232.0,146.0,239.5,146.0,247.5,144.0,254.5,144.0" stroke="black" stroke-width="2" fill="none" />
<polyline points="232.5,103.0,225.0,101.0" stroke="black" stroke-width="2" fill="none" />
<polyline points="223.5,96.0,231.5,93.0" stroke="black" stroke-width="2" fill="none" />
<polyline points="205.5,133.0,198.0,145.0,198.0,145.0,202.0,137.0,203.0,129.0,205.0,121.5,202.0,118.0,214.5,113.5,206.5,114.5,198.5,122.0,190.5,121.5,183.0,116.5,175.0,118.5" stroke="black" stroke-width="2" fill="none" />
<polyline points="180.5,116.0,178.5,124.0,177.5,132.0" stroke="black" stroke-width="2" fill="none" />
<polyline points="149.5,136.0,157.5,130.0,152.5,130.0,148.5,140.0,146.5,148.5,139.0,156.5,136.5,162.5,141.0,162.5,149.0,162.5,157.0,161.5,165.0,161.5,173.0,162.5,169.0,169.5,164.0,178.0" stroke="black" stroke-width="2" fill="none" />
<polyline points="171.5,164.5,163.5,169.5,159.5,178.5,151.0,179.0,143.0,179.0,135.0,179.0,127.0,179.5,126.0,183.0,123.0,175.0,118.0,174.5,110.0,175.5" stroke="black" stroke-width="2" fill="none" />
<polyline points="125.0,166.0,133.0,167.0" stroke="black" stroke-width="2" fill="none" />
<polyline points="136.5,182.5,136.5,191.0,138.5,191.0,132.5,198.5,128.5,213.0,133.5,217.5,141.5,219.0,149.5,217.5,157.5,219.5,165.5,221.5,173.5,225.5,181.5,230.0" stroke="black" stroke-width="2" fill="none" />
<polyline points="175.5,249.5,169.5,251.5,162.0,259.5,152.0,267.0" stroke="black" stroke-width="2" fill="none" />
<polyline points="153.5,258.0,148.0,258.0,138.0,263.5,129.5,264.0,121.5,264.0,113.0,251.5" stroke="black" stroke-width="2" fill="none" />
<polyline points="113.5,257.0,117.5,265.0" stroke="black" stroke-width="2" fill="none" />
<polyline points="119.5,257.5,127.5,259.0,135.0,259.0,143.0,257.0,150.5,252.5,158.5,247.5,166.5,246.5,175.0,239.5,183.0,234.5" stroke="black" stroke-width="2" fill="none" />
<polyline points="148.0,205.0,148.5,204.0,141.0,208.0,133.0,208.5,122.0,207.0,121.0,206.5,119.0,198.0,118.0,190.0,111.0,182.0,113.0,173.5,101.0,178.5,92.5,179.0,84.5,181.0" stroke="black" stroke-width="2" fill="none" />
<polyline points="83.5,179.0,91.5,167.5,99.5,162.5,107.5,162.5,115.5,162.5,123.5,160.0,131.5,151.0,139.5,144.0,148.0,136.0,156.0,125.0,165.5,129.0,173.5,133.0" stroke="black" stroke-width="2" fill="none" />
<polyline points="144.0,150.0,134.5,157.0,127.0,158.0,127.5,161.0,130.5,152.0,138.5,144.0" stroke="black" stroke-width="2" fill="none" />
<polyline points="94.5,165.0,88.5,173.0,83.5,181.0,88.5,193.5,91.0,201.5" stroke="black" stroke-width="2" fill="none" />
<polyline points="88.0,193.0,96.0,189.5,104.0,192.5" stroke="black" stroke-width="2" fill="none" />
<polyline points="86.5,183.0,94.5,183.0,102.5,183.0,110.5,188.5,107.5,191.5,113.0,186.5,120.5,189.0,128.5,189.0,134.5,191.0,146.0,198.5" stroke="black" stroke-width="2" fill="none" />
<polyline points="127.5,202.0,119.5,205.0" stroke="black" stroke-width="2" fill="none" />
<polyline points="116.0,215.0,108.0,216.0,105.0,212.5,97.0,214.5" stroke="black" stroke-width="2" fill="none" />
<polyline points="98.0,214.5,89.0,222.5,78.5,230.5,68.5,239.0,62.5,247.0,62.0,255.0,70.0,259.5,60.5,266.5,64.0,269.0,72.0,274.0,63.5,278.0,67.5,268.5,68.0,279.0,76.5,279.0,85.0,277.5" stroke="black" stroke-width="2" fill="none" />
<polyline points="81.0,280.0,73.5,280.0" stroke="black" stroke-width="2" fill="none" />
<polyline points="110.0,263.0,113.5,255.5,113.5,247.5,113.5,239.5,116.5,231.5,112.5,229.5,104.5,229.5,96.5,230.5,88.5,230.5" stroke="black" stroke-width="2" fill="none" />
<polyline points="94.0,223.5,88.5,227.5,97.5,219.5" stroke="black" stroke-width="2" fill="none" />
<polyline points="108.0,228.5,102.0,235.5,99.0,243.5,94.0,251.5,92.0,259.5" stroke="black" stroke-width="2" fill="none" />
<polyline points="126.5,279.5,134.5,279.5,142.5,279.5,142.5,286.0,125.5,292.0,133.5,293.0,140.0,281.0,146.0,288.5" stroke="black" stroke-width="2" fill="none" />
<polyline points="142.5,287.5,144.0,285.5,137.0,281.5,129.5,282.5" stroke="black" stroke-width="2" fill="none" />
<polyline points="158.0,275.5,157.0,283.5,155.5,288.0,151.5,292.0,157.0,290.5,162.0,289.5" stroke="black" stroke-width="2" fill="none" />
<polyline points="88.5,206.5,80.5,205.5,77.0,202.0,69.0,195.0" stroke="black" stroke-width="2" fill="none" />
<polyline points="62.5,195.5,63.5,195.0,65.5,202.5,63.5,210.5" stroke="black" stroke-width="2" fill="none" />
<polyline points="63.0,212.0,54.5,210.5,46.5,201.5" stroke="black" stroke-width="2" fill="none" />
<polyline points="38.5,203.0,33.5,211.0,36.0,205.0,44.0,199.5,49.0,181.0" stroke="black" stroke-width="2" fill="none" />
<polyline points="49.5,157.5,56.5,141.5,65.0,138.0" stroke="black" stroke-width="2" fill="none" />
<polyline points="51.5,125.5,43.5,122.0" stroke="black" stroke-width="2" fill="none" />
<polyline points="35.0,127.0,34.0,135.5,24.0,141.0,28.0,149.0,30.5,156.5,31.5,164.5,24.5,169.5" stroke="black" stroke-width="2" fill="none" />
<polyline points="19.5,146.5,27.5,144.0" stroke="black" stroke-width="2" fill="none" />
<polyline points="23.0,144.5,20.0,152.5,20.5,160.5,23.5,168.0" stroke="black" stroke-width="2" fill="none" />
<polyline points="16.0,153.5,15.0,145.0,22.5,136.5,18.5,142.5" stroke="black" stroke-width="2" fill="none" />
<polyline points="13.5,130.0,7.0,138.0,5.0,140.0,13.0,131.0,21.0,132.0,27.0,138.5,32.0,144.0,39.0,135.0,47.0,136.5" stroke="black" stroke-width="2" fill="none" />
<polyline points="52.5,129.0,43.5,121.0,35.0,128.0" stroke="black" stroke-width="2" fill="none" />
<polyline points="49.0,112.5,57.0,115.5,65.0,115.5,73.0,117.0,72.5,123.5,68.5,132.0,60.5,139.5,55.5,148.0,51.5,157.0,49.5,164.5,52.5,173.0,50.0,180.5,45.0,189.0,43.5,197.0,46.5,201.5,51.5,207.0,54.5,210.0,54.0,216.5,56.0,224.0,55.0,232.0" stroke="black" stroke-width="2" fill="none" />
<polyline points="49.0,233.5,41.5,234.5,38.5,232.5,39.5,225.0,41.0,217.0,33.5,215.0" stroke="black" stroke-width="2" fill="none" />
<polyline points="30.0,245.5,38.0,244.5,46.0,248.5,54.5,243.5,63.5,240.0,71.5,233.0,79.5,227.0,87.5,221.5,95.5,217.5,103.5,222.5,111.5,223.5" stroke="black" stroke-width="2" fill="none" />
<polyline points="63.5,271.0,55.5,274.0,53.5,266.0,41.0,272.0,33.0,274.5,24.5,273.0" stroke="black" stroke-width="2" fill="none" />
<polyline points="23.5,254.5,31.5,255.5" stroke="black" stroke-width="2" fill="none" />
<polyline points="28.0,249.0,25.0,250.0,23.0,257.0,29.0,258.5,31.5,260.5,39.5,269.5,40.5,278.0,45.5,278.0,53.5,276.0,57.5,274.0,60.5,278.0" stroke="black" stroke-width="2" fill="none" />
<polyline points="7.0,262.5,7.0,254.5,10.0,253.0,6.0,256.0,9.0,264.5,13.5,263.5,10.5,265.5,17.5,265.5,22.5,261.0,30.5,260.0,38.5,259.0,36.5,271.0,44.5,264.0,50.0,264.0,51.5,272.0,59.5,264.5,61.5,263.0,66.5,259.0,74.0,259.0,82.0,260.5,90.0,261.5,98.0,241.5,106.0,231.0,115.0,233.0" stroke="black" stroke-width="2" fill="none" />
<polyline points="89.0,253.5,81.0,253.5,73.0,252.5,65.0,251.0,61.0,254.0,55.0,252.0,50.0,251.5,42.0,250.5,39.5,250.5,31.5,252.0,23.5,253.0,16.0,254.0,14.0,260.0,6.0,261.0" stroke="black" stroke-width="2" fill="none" />
<polyline points="3.0,274.0,11.0,275.5,19.0,272.5,26.0,272.5,30.0,266.0" stroke="black" stroke-width="2" fill="none" />
<polyline points="10.5,277.0,2.5,279.5" stroke="black" stroke-width="2" fill="none" />
<polyline points="2.5,246.0,10.5,245.5" stroke="black" stroke-width="2" fill="none" />
<polyline points="11.0,158.5,3.0,156.5" stroke="black" stroke-width="2" fill="none" />
<polyline points="33.5,90.5,26.0,85.5" stroke="black" stroke-width="2" fill="none" />
<polyline points="27.0,84.5,26.0,92.5" stroke="black" stroke-width="2" fill="none" />
</svg>