<svg xmlns="http://www.w3.org/2000/svg" version="1.1"><polyline points="3.0,2.5,3.0,14.0,3.5,26.0,3.5,38.0,4.0,50.5,4.0,63.0,4.0,74.5,4.0,86.5,4.0,99.0,4.0,111.0,4.0,123.5,4.0,135.0,4.0,146.5,4.5,158.5,5.0,170.0,5.0,182.0,5.0,194.0,5.0,205.5,5.0,217.5,5.0,229.0,5.0,241.0,4.5,253.5,4.0,265.5,4.0,277.5,4.0,289.5,3.5,302.0,3.5,314.5,3.0,327.0,3.0,339.0,13.0,342.0,25.0,342.0,37.0,342.0,49.5,318.0" stroke="black" stroke-width="2" fill="none" />
<polyline points="48.5,318.0,44.0,330.0,48.5,341.5,60.5,341.0,72.0,341.0,83.5,341.0,96.0,340.5,108.0,340.5,120.5,340.5,132.5,340.5,144.5,340.0,157.0,340.5,169.0,340.5,181.0,341.0,193.0,341.0,205.0,340.5,217.0,340.5,228.5,340.5,240.5,341.0,252.5,341.5,264.0,341.5,276.5,341.5,288.5,341.5,300.5,340.0,312.5,341.5,324.5,341.5,336.5,341.5,348.5,341.5,360.0,342.0,372.0,342.5,384.0,342.5,396.0,342.5,408.0,342.0,420.0,342.0,432.0,342.0,444.0,342.0,456.5,342.0,468.5,342.0,480.5,342.0,492.5,342.0,504.5,342.0" stroke="black" stroke-width="2" fill="none" />
<polyline points="507.0,262.0,515.0,261.5" stroke="black" stroke-width="2" fill="none" />
<polyline points="509.0,254.0,501.0,254.5,493.0,255.5" stroke="black" stroke-width="2" fill="none" />
<polyline points="485.5,242.5,493.5,235.0" stroke="black" stroke-width="2" fill="none" />
<polyline points="493.5,231.5,501.0,230.5,509.0,229.5" stroke="black" stroke-width="2" fill="none" />
<polyline points="508.5,237.5,500.5,238.0" stroke="black" stroke-width="2" fill="none" />
<polyline points="498.5,221.0,507.0,220.5" stroke="black" stroke-width="2" fill="none" />
<polyline points="505.5,211.5,497.5,218.5" stroke="black" stroke-width="2" fill="none" />
<polyline points="495.0,221.5,498.0,214.5,505.5,226.5,507.5,239.0,502.5,260.0,513.0,272.0,513.0,284.5,513.0,296.5,512.5,309.0,512.5,321.0,512.0,333.0" stroke="black" stroke-width="2" fill="none" />
<polyline points="490.5,237.5,482.5,238.0" stroke="black" stroke-width="2" fill="none" />
<polyline points="476.0,219.5,468.5,219.5" stroke="black" stroke-width="2" fill="none" />
<polyline points="465.5,212.0,473.5,211.5" stroke="black" stroke-width="2" fill="none" />
<polyline points="483.5,214.5,492.0,214.5,500.0,214.0,508.0,213.5" stroke="black" stroke-width="2" fill="none" />
<polyline points="507.5,205.0,499.0,205.5" stroke="black" stroke-width="2" fill="none" />
<polyline points="498.5,195.0,506.5,187.5" stroke="black" stroke-width="2" fill="none" />
<polyline points="509.5,189.0,502.0,189.5" stroke="black" stroke-width="2" fill="none" />
<polyline points="493.0,179.5,485.0,187.5" stroke="black" stroke-width="2" fill="none" />
<polyline points="485.5,188.5,493.5,188.0" stroke="black" stroke-width="2" fill="none" />
<polyline points="493.5,181.0,486.0,181.5" stroke="black" stroke-width="2" fill="none" />
<polyline points="493.0,175.5,501.5,175.0" stroke="black" stroke-width="2" fill="none" />
<polyline points="506.5,173.0,514.5,173.0" stroke="black" stroke-width="2" fill="none" />
<polyline points="500.5,158.0,492.5,158.5" stroke="black" stroke-width="2" fill="none" />
<polyline points="493.5,165.5,486.0,166.0" stroke="black" stroke-width="2" fill="none" />
<polyline points="475.5,155.5,467.5,156.0,460.0,156.5" stroke="black" stroke-width="2" fill="none" />
<polyline points="463.0,155.0,464.5,166.5,449.5,182.5,465.0,188.5,446.0,191.0,443.0,195.5,441.5,210.5,438.5,216.0,425.0,228.0" stroke="black" stroke-width="2" fill="none" />
<polyline points="423.0,217.5,411.0,209.0" stroke="black" stroke-width="2" fill="none" />
<polyline points="436.0,212.0,445.0,211.5" stroke="black" stroke-width="2" fill="none" />
<polyline points="444.0,220.0,452.0,219.5" stroke="black" stroke-width="2" fill="none" />
<polyline points="437.5,237.5,451.0,249.5" stroke="black" stroke-width="2" fill="none" />
<polyline points="478.5,245.5,492.0,227.5,495.0,215.0,502.0,210.5,490.0,216.5" stroke="black" stroke-width="2" fill="none" />
<polyline points="492.5,205.5,484.5,206.0" stroke="black" stroke-width="2" fill="none" />
<polyline points="454.0,187.5,442.0,196.0" stroke="black" stroke-width="2" fill="none" />
<polyline points="430.5,181.5,430.0,176.0,427.0,174.5,413.5,176.0,417.5,177.0" stroke="black" stroke-width="2" fill="none" />
<polyline points="420.5,157.5,428.0,157.0" stroke="black" stroke-width="2" fill="none" />
<polyline points="427.0,150.5,435.0,150.0" stroke="black" stroke-width="2" fill="none" />
<polyline points="426.0,148.0,414.0,152.5,398.5,161.0,394.0,149.0,381.5,152.0" stroke="black" stroke-width="2" fill="none" />
<polyline points="379.5,158.5,387.5,158.0" stroke="black" stroke-width="2" fill="none" />
<polyline points="390.5,148.0,398.0,147.0" stroke="black" stroke-width="2" fill="none" />
<polyline points="401.5,157.0,409.5,156.5" stroke="black" stroke-width="2" fill="none" />
<polyline points="402.5,133.0,394.5,133.5" stroke="black" stroke-width="2" fill="none" />
<polyline points="386.5,132.5,374.5,143.5,360.5,155.5,348.5,164.5,350.0,173.5,358.0,161.5,347.5,153.5,352.0,142.0" stroke="black" stroke-width="2" fill="none" />
<polyline points="353.5,150.5,342.0,159.5,330.0,155.0,318.5,155.0" stroke="black" stroke-width="2" fill="none" />
<polyline points="314.0,156.5,321.5,149.0" stroke="black" stroke-width="2" fill="none" />
<polyline points="321.5,148.0,313.0,148.5" stroke="black" stroke-width="2" fill="none" />
<polyline points="308.0,149.0,300.0,156.0,291.5,163.5,283.0,171.0,274.5,179.0,265.5,186.5" stroke="black" stroke-width="2" fill="none" />
<polyline points="266.5,188.5,274.5,188.0,283.0,187.0,290.5,186.5,298.0,186.0" stroke="black" stroke-width="2" fill="none" />
<polyline points="299.0,188.0,291.0,195.5" stroke="black" stroke-width="2" fill="none" />
<polyline points="275.5,194.5,283.5,187.5,291.0,180.0,298.5,173.0,306.5,165.5" stroke="black" stroke-width="2" fill="none" />
<polyline points="309.0,170.5,317.5,163.0" stroke="black" stroke-width="2" fill="none" />
<polyline points="322.0,164.5,330.0,164.5" stroke="black" stroke-width="2" fill="none" />
<polyline points="332.5,151.5,340.5,150.5" stroke="black" stroke-width="2" fill="none" />
<polyline points="323.0,141.0,315.0,140.5" stroke="black" stroke-width="2" fill="none" />
<polyline points="308.5,142.5,320.5,141.0,325.0,142.5,332.5,149.0,340.0,141.5,352.0,138.5" stroke="black" stroke-width="2" fill="none" />
<polyline points="361.5,136.0,342.0,139.0,342.5,144.0,344.0,154.5,341.5,163.5,340.0,175.5,338.5,188.0" stroke="black" stroke-width="2" fill="none" />
<polyline points="340.5,181.5,333.0,182.0" stroke="black" stroke-width="2" fill="none" />
<polyline points="328.0,205.0,340.0,209.5,345.5,211.0,360.5,202.0" stroke="black" stroke-width="2" fill="none" />
<polyline points="364.0,205.5,372.0,205.0" stroke="black" stroke-width="2" fill="none" />
<polyline points="365.0,176.5,368.0,181.0,369.5,196.0,359.0,197.5,368.5,200.0,368.0,188.0,383.5,200.0,395.5,201.5,402.0,194.0" stroke="black" stroke-width="2" fill="none" />
<polyline points="359.0,146.5,366.0,154.0,361.5,142.0" stroke="black" stroke-width="2" fill="none" />
<polyline points="371.0,127.0,379.0,126.0" stroke="black" stroke-width="2" fill="none" />
<polyline points="388.0,117.0,396.0,116.5" stroke="black" stroke-width="2" fill="none" />
<polyline points="397.0,109.5,397.0,121.5,386.0,133.5,399.5,135.0,397.5,147.0,393.0,167.5,379.5,187.0,376.5,197.0,370.5,209.0,381.0,213.5,384.0,219.0,394.0,220.5" stroke="black" stroke-width="2" fill="none" />
<polyline points="475.0,255.0,473.5,246.0,461.5,244.5,451.5,241.5,450.0,238.5,441.0,226.5,455.5,225.0,454.0,213.0,458.5,204.0,470.5,192.0,472.0,187.5,476.0,172.5,483.5,160.5,491.0,149.5,487.5,137.5,486.0,116.5,481.5,104.5,470.0,102.0" stroke="black" stroke-width="2" fill="none" />
<polyline points="473.5,102.0,466.0,102.0" stroke="black" stroke-width="2" fill="none" />
<polyline points="467.5,105.5,476.0,98.0" stroke="black" stroke-width="2" fill="none" />
<polyline points="476.5,93.0,484.5,92.5" stroke="black" stroke-width="2" fill="none" />
<polyline points="490.0,94.5,497.5,94.5" stroke="black" stroke-width="2" fill="none" />
<polyline points="507.5,93.5,515.0,92.5" stroke="black" stroke-width="2" fill="none" />
<polyline points="514.5,106.5,507.5,107.0" stroke="black" stroke-width="2" fill="none" />
<polyline points="515.0,114.5,506.5,122.5" stroke="black" stroke-width="2" fill="none" />
<polyline points="507.5,125.5,515.5,124.0" stroke="black" stroke-width="2" fill="none" />
<polyline points="513.5,130.5,505.5,131.0" stroke="black" stroke-width="2" fill="none" />
<polyline points="500.5,123.0,492.0,130.5" stroke="black" stroke-width="2" fill="none" />
<polyline points="484.0,125.0,492.0,125.0,500.5,124.5" stroke="black" stroke-width="2" fill="none" />
<polyline points="502.0,117.5,509.5,117.5,517.5,117.0" stroke="black" stroke-width="2" fill="none" />
<polyline points="492.0,110.0,484.0,117.0" stroke="black" stroke-width="2" fill="none" />
<polyline points="482.5,119.0,482.5,116.0,475.0,123.5,484.5,131.0,498.0,141.5" stroke="black" stroke-width="2" fill="none" />
<polyline points="493.0,141.0,485.0,141.0" stroke="black" stroke-width="2" fill="none" />
<polyline points="474.5,123.5,466.0,124.5" stroke="black" stroke-width="2" fill="none" />
<polyline points="483.0,111.0,491.0,110.0,499.0,109.5" stroke="black" stroke-width="2" fill="none" />
<polyline points="490.5,102.0,483.0,109.0" stroke="black" stroke-width="2" fill="none" />
<polyline points="481.0,104.0,489.0,103.0,497.0,102.5,505.0,102.5,513.5,102.5" stroke="black" stroke-width="2" fill="none" />
<polyline points="515.5,77.0,507.5,77.5" stroke="black" stroke-width="2" fill="none" />
<polyline points="502.5,71.5,495.0,84.0,498.0,91.5" stroke="black" stroke-width="2" fill="none" />
<polyline points="484.5,84.5,476.5,92.0" stroke="black" stroke-width="2" fill="none" />
<polyline points="476.5,86.0,484.5,85.5,493.0,85.0,501.0,84.0,509.0,83.5,517.0,83.0" stroke="black" stroke-width="2" fill="none" />
<polyline points="499.0,68.5,507.0,61.0" stroke="black" stroke-width="2" fill="none" />
<polyline points="499.0,50.5,507.0,43.0" stroke="black" stroke-width="2" fill="none" />
<polyline points="506.5,34.5,499.0,42.0,491.0,49.5" stroke="black" stroke-width="2" fill="none" />
<polyline points="492.0,45.0,484.0,52.5" stroke="black" stroke-width="2" fill="none" />
<polyline points="482.0,50.5,490.0,50.0" stroke="black" stroke-width="2" fill="none" />
<polyline points="490.5,44.0,478.5,42.5" stroke="black" stroke-width="2" fill="none" />
<polyline points="476.0,42.0,468.0,49.5" stroke="black" stroke-width="2" fill="none" />
<polyline points="467.0,54.5,475.0,54.0,483.5,53.5,492.0,52.5,500.0,52.0,508.5,51.0,516.5,51.0" stroke="black" stroke-width="2" fill="none" />
<polyline points="500.0,33.5,508.0,26.0" stroke="black" stroke-width="2" fill="none" />
<polyline points="511.0,20.0,511.0,32.0,511.5,45.0,511.5,55.5,507.0,67.5,511.5,76.0,502.5,88.0,492.5,87.0,487.5,99.0,504.0,105.0,495.0,119.0,502.0,135.0,495.0,141.0,501.0,157.5,509.0,146.5" stroke="black" stroke-width="2" fill="none" />
<polyline points="473.5,153.0,469.0,157.0" stroke="black" stroke-width="2" fill="none" />
<polyline points="481.0,163.0,469.0,167.5,462.0,170.5,457.0,180.5,445.0,183.5,442.0,192.5,433.0,189.5,421.0,189.0,412.0,187.5,403.0,183.5,391.0,188.0,380.0,194.0,369.5,206.5,359.5,209.5,346.5,208.0,339.5,205.5,339.5,192.0,353.0,183.0,368.0,172.0,377.5,168.0,377.5,159.5,385.5,149.0,382.5,140.0,369.0,135.5,364.5,124.5,355.5,121.0,367.5,112.0,369.0,98.5,372.0,92.5,370.5,83.0,360.0,80.0,355.5,75.0,359.5,57.0,356.5,42.0,362.0,29.5,370.5,11.5,358.5,11.0,346.5,20.0" stroke="black" stroke-width="2" fill="none" />
<polyline points="345.5,23.5,337.5,24.0" stroke="black" stroke-width="2" fill="none" />
<polyline points="342.0,28.0,349.0,34.0,340.0,33.5,331.0,39.0,338.5,57.0" stroke="black" stroke-width="2" fill="none" />
<polyline points="348.0,70.5,360.0,82.5" stroke="black" stroke-width="2" fill="none" />
<polyline points="363.0,93.5,371.5,93.0,379.0,93.0" stroke="black" stroke-width="2" fill="none" />
<polyline points="386.0,94.0,394.0,94.0" stroke="black" stroke-width="2" fill="none" />
<polyline points="394.5,90.5,387.0,98.0" stroke="black" stroke-width="2" fill="none" />
<polyline points="369.5,100.0,361.5,107.5" stroke="black" stroke-width="2" fill="none" />
<polyline points="364.0,103.0,372.0,102.5" stroke="black" stroke-width="2" fill="none" />
<polyline points="372.5,86.0,380.0,85.5" stroke="black" stroke-width="2" fill="none" />
<polyline points="386.5,80.0,394.5,79.0" stroke="black" stroke-width="2" fill="none" />
<polyline points="379.0,78.5,371.0,79.5" stroke="black" stroke-width="2" fill="none" />
<polyline points="373.5,77.0,386.0,75.0" stroke="black" stroke-width="2" fill="none" />
<polyline points="393.5,52.5,402.0,52.0" stroke="black" stroke-width="2" fill="none" />
<polyline points="404.5,50.5,412.5,43.0" stroke="black" stroke-width="2" fill="none" />
<polyline points="417.5,46.0,425.5,45.5,433.5,45.0,441.5,44.5,449.5,43.5,457.5,42.5,465.5,42.5,474.0,42.0,482.0,42.0,490.0,41.5,498.0,41.5,506.0,41.0,514.0,40.5" stroke="black" stroke-width="2" fill="none" />
<polyline points="499.5,20.0,491.5,27.0" stroke="black" stroke-width="2" fill="none" />
<polyline points="484.5,27.0,476.0,34.5" stroke="black" stroke-width="2" fill="none" />
<polyline points="472.5,28.0,464.0,34.0,464.0,46.5,459.5,57.0,453.5,65.0,458.0,74.0,453.5,87.5,443.0,89.5,441.5,101.5,434.0,114.0,446.0,105.0,453.5,112.5,462.5,112.5,470.0,121.5,483.5,122.5,495.5,124.0,507.5,124.0,504.5,129.5,507.5,147.5,512.0,162.0,503.0,174.0,512.5,187.5,508.0,201.0" stroke="black" stroke-width="2" fill="none" />
<polyline points="489.5,253.5,488.0,247.5,495.0,243.0,498.0,232.0,505.5,230.5,511.0,217.0,511.5,206.5,490.5,200.5,496.5,191.5,510.0,176.5,499.5,178.0,497.0,191.5,485.5,178.0,481.5,176.5,468.0,189.5,465.0,193.5,453.0,195.5,450.5,206.0,438.5,201.0,426.5,211.5,414.5,207.0,405.5,219.0,408.0,216.0,400.5,213.5,413.5,204.5,409.0,197.0,416.5,195.5,414.0,188.0,420.0,166.5,432.0,160.0,442.5,152.5,438.0,140.5,442.0,134.5,445.5,122.5,432.0,107.5,421.5,98.5,436.5,82.0,435.0,76.0,433.5,65.5,430.5,63.0,451.5,49.5,462.0,37.5,457.0,30.5,448.0,27.5,460.0,17.5,455.5,16.0,469.0,13.0,464.0,23.5,452.0,27.5,446.0,33.5,438.5,37.5,434.0,54.5,428.5,48.5,424.0,44.0,417.0,52.0,416.0,59.5,406.5,62.5,403.0,53.0,406.0,55.5,396.5,46.5,397.5,34.5,394.0,27.0,394.0,18.5,400.0,14.0,400.0,12.5,388.0,6.5" stroke="black" stroke-width="2" fill="none" />
<polyline points="388.0,7.5,396.0,7.0,404.0,5.5" stroke="black" stroke-width="2" fill="none" />
<polyline points="410.0,6.5,418.0,5.5,426.5,4.5,434.5,4.0,443.0,3.5,452.0,3.0,460.5,2.5,469.0,1.5,477.0,1.0,485.0,0.5" stroke="black" stroke-width="2" fill="none" />
<polyline points="491.0,4.5,499.0,4.5,507.0,4.0,515.0,3.5" stroke="black" stroke-width="2" fill="none" />
<polyline points="508.5,4.5,505.0,16.0,489.5,21.0,492.5,33.0,491.0,46.5,501.5,61.5,486.5,69.5,480.5,83.0,462.5,99.0,463.5,114.0,451.5,127.5,457.5,138.0,475.5,135.0,471.0,155.0,482.0,170.0,486.5,179.5,483.0,190.0,471.0,199.5,484.5,207.0,479.0,219.0,467.0,229.5,465.5,237.0,471.5,245.5,473.5,257.0,493.0,254.5,501.0,256.0,511.5,237.5" stroke="black" stroke-width="2" fill="none" />
<polyline points="507.0,260.5,512.0,254.5,511.0,242.5,506.0,230.5,494.0,239.5,491.0,233.0,482.5,233.0,479.5,225.5,470.5,230.0,458.0,237.5,444.5,242.5,436.5,236.0,424.5,238.0,415.0,223.0,405.0,224.0,391.5,224.0,376.5,216.5,387.5,212.0,381.5,213.5,398.0,204.5,401.0,194.0,399.0,188.0,397.5,180.5,401.0,174.5,401.0,170.0,396.5,160.5,403.0,154.0,408.5,145.0,427.0,144.0,422.5,132.0,424.0,124.5,424.0,118.5,415.0,106.5,405.5,99.0,396.5,95.0,399.0,80.0,410.0,71.0,408.5,63.5,398.0,58.0,380.0,58.0,377.0,55.5,386.0,43.5,376.5,41.0,381.0,28.5,376.0,23.5,371.5,11.5,375.5,5.5,378.5,6.5" stroke="black" stroke-width="2" fill="none" />
<polyline points="379.0,21.0,387.0,21.0" stroke="black" stroke-width="2" fill="none" />
<polyline points="395.0,12.0,403.5,12.0,411.5,11.5,419.0,11.5,427.0,11.5,435.0,11.0,443.0,11.0,451.0,11.0,459.5,11.0" stroke="black" stroke-width="2" fill="none" />
<polyline points="469.0,12.0,477.0,11.5,485.5,11.0,493.0,11.0,501.0,10.5,508.5,9.5,517.0,10.0" stroke="black" stroke-width="2" fill="none" />
<polyline points="516.5,18.0,509.0,18.5,500.5,19.5,492.0,20.0,483.5,20.5,475.5,20.5,467.5,21.0" stroke="black" stroke-width="2" fill="none" />
<polyline points="459.0,34.5,451.5,41.5" stroke="black" stroke-width="2" fill="none" />
<polyline points="451.5,39.5,460.0,39.0" stroke="black" stroke-width="2" fill="none" />
<polyline points="452.0,33.0,444.0,41.0" stroke="black" stroke-width="2" fill="none" />
<polyline points="451.0,46.0,454.5,43.0,465.0,44.5,469.5,42.0,480.5,32.5,492.5,23.5,497.0,34.0,508.0,43.0,511.0,40.0" stroke="black" stroke-width="2" fill="none" />
<polyline points="514.5,68.0,506.5,69.0,499.0,70.0,491.0,70.5" stroke="black" stroke-width="2" fill="none" />
<polyline points="492.5,75.5,484.5,76.0,476.5,77.0" stroke="black" stroke-width="2" fill="none" />
<polyline points="483.0,69.0,475.5,69.5,467.0,70.0" stroke="black" stroke-width="2" fill="none" />
<polyline points="467.0,62.5,475.0,62.0,483.0,61.0,491.0,60.5,500.0,59.5,508.0,59.5,516.0,58.5" stroke="black" stroke-width="2" fill="none" />
<polyline points="461.5,58.0,453.5,65.5" stroke="black" stroke-width="2" fill="none" />
<polyline points="450.5,66.5,458.5,66.5" stroke="black" stroke-width="2" fill="none" />
<polyline points="460.5,76.5,468.0,76.0" stroke="black" stroke-width="2" fill="none" />
<polyline points="459.0,84.0,450.5,84.5" stroke="black" stroke-width="2" fill="none" />
<polyline points="453.0,92.0,445.0,92.5" stroke="black" stroke-width="2" fill="none" />
<polyline points="446.0,84.5,438.5,85.0" stroke="black" stroke-width="2" fill="none" />
<polyline points="437.0,83.0,445.0,75.5" stroke="black" stroke-width="2" fill="none" />
<polyline points="444.0,78.0,435.5,78.5" stroke="black" stroke-width="2" fill="none" />
<polyline points="434.5,63.5,442.5,62.5,450.5,62.5,458.0,62.0" stroke="black" stroke-width="2" fill="none" />
<polyline points="458.5,52.5,450.0,53.0,441.5,54.0,434.0,54.5" stroke="black" stroke-width="2" fill="none" />
<polyline points="429.0,50.0,421.0,57.5" stroke="black" stroke-width="2" fill="none" />
<polyline points="418.5,54.0,426.5,53.5" stroke="black" stroke-width="2" fill="none" />
<polyline points="427.5,36.0,435.5,35.5,444.0,35.0,452.0,34.5,460.0,34.5,468.0,34.0,476.0,33.5,483.5,33.0,491.5,33.0,499.5,32.5,508.0,32.0,516.0,32.0" stroke="black" stroke-width="2" fill="none" />
<polyline points="517.5,23.5,509.5,23.5,501.0,24.0,492.0,24.5,484.0,26.0,475.5,27.0,467.5,27.5,459.0,28.5,451.0,29.0,443.0,30.0,435.0,30.0" stroke="black" stroke-width="2" fill="none" />
<polyline points="436.0,34.0,444.0,26.5" stroke="black" stroke-width="2" fill="none" />
<polyline points="440.5,30.5,436.0,42.5,427.5,54.5" stroke="black" stroke-width="2" fill="none" />
<polyline points="410.5,45.5,402.5,46.0" stroke="black" stroke-width="2" fill="none" />
<polyline points="403.0,34.5,411.0,27.0" stroke="black" stroke-width="2" fill="none" />
<polyline points="412.5,22.0,405.0,22.0" stroke="black" stroke-width="2" fill="none" />
<polyline points="402.5,18.0,410.5,10.5" stroke="black" stroke-width="2" fill="none" />
<polyline points="417.0,12.5,411.0,24.5,409.5,35.0,421.5,32.5,427.0,30.0" stroke="black" stroke-width="2" fill="none" />
<polyline points="423.0,28.0,417.0,40.0" stroke="black" stroke-width="2" fill="none" />
<polyline points="419.5,28.5,411.0,28.5,403.0,29.0" stroke="black" stroke-width="2" fill="none" />
<polyline points="418.0,22.0,426.0,21.5,434.0,20.5,442.0,20.0,450.5,19.5,458.5,19.0" stroke="black" stroke-width="2" fill="none" />
<polyline points="488.5,10.5,479.5,12.0,475.0,24.0,482.5,31.5,479.0,43.5,476.0,55.0,479.0,59.5" stroke="black" stroke-width="2" fill="none" />
<polyline points="457.5,91.5,470.0,88.5,482.0,100.5,494.0,103.5,506.0,97.5,510.5,114.0" stroke="black" stroke-width="2" fill="none" />
<polyline points="505.5,120.5,508.0,108.5,502.0,99.5,511.0,91.0,507.5,74.0,503.0,80.0,494.0,80.0,485.5,74.5,482.5,84.5,473.0,83.5,463.5,83.5,451.5,85.0,444.0,91.0,437.0,97.0,425.0,98.0,416.5,111.5,404.0,111.5,398.0,107.0,386.0,107.0,378.5,122.0,386.0,110.0,387.5,98.0,377.0,99.5,377.0,92.0,363.5,70.5,380.5,66.0,368.5,66.0,356.5,66.0" stroke="black" stroke-width="2" fill="none" />
<polyline points="355.5,45.0,364.0,44.5" stroke="black" stroke-width="2" fill="none" />
<polyline points="360.0,35.5,372.0,35.5" stroke="black" stroke-width="2" fill="none" />
<polyline points="377.5,37.5,386.0,36.5,394.5,36.0,403.0,35.0" stroke="black" stroke-width="2" fill="none" />
<polyline points="395.0,28.5,387.5,29.0,380.0,29.5,372.5,30.0,364.5,30.5" stroke="black" stroke-width="2" fill="none" />
<polyline points="364.5,19.5,356.5,20.0" stroke="black" stroke-width="2" fill="none" />
<polyline points="363.5,14.0,371.5,13.0,379.5,12.0,388.0,11.5" stroke="black" stroke-width="2" fill="none" />
<polyline points="362.0,2.5,353.5,3.0" stroke="black" stroke-width="2" fill="none" />
<polyline points="348.0,6.5,340.5,7.5" stroke="black" stroke-width="2" fill="none" />
<polyline points="337.0,9.0,334.5,21.5,324.0,31.5,319.5,52.5,327.5,64.5,335.0,73.5,344.0,81.0,333.0,87.0,335.5,91.5,343.0,103.5,336.5,115.5,335.5,127.0,325.0,130.0,325.0,145.0,310.5,157.0,322.5,158.5,328.5,173.5,323.0,181.0,321.5,193.0,323.5,190.0,323.5,204.0,335.5,196.0,341.5,185.5,361.0,184.0,373.0,181.5,385.0,189.0,390.5,178.5,402.0,169.5,413.5,172.5,419.5,160.5,432.0,154.5,440.5,157.5,443.5,147.5,457.5,146.5,465.0,138.0,480.5,142.5,486.0,159.0,498.0,153.0,505.5,142.0" stroke="black" stroke-width="2" fill="none" />
<polyline points="476.5,133.0,467.5,132.0,456.0,124.5,443.5,121.5,431.5,120.0,425.5,126.0,406.0,125.5,392.5,125.5,384.0,120.0,366.0,121.5,373.5,112.5,370.5,106.5,361.5,111.5,361.5,114.0,352.5,111.5,342.5,110.0,327.5,119.0,315.5,123.0" stroke="black" stroke-width="2" fill="none" />
<polyline points="316.0,119.5,324.0,119.0" stroke="black" stroke-width="2" fill="none" />
<polyline points="316.5,115.5,324.0,108.0" stroke="black" stroke-width="2" fill="none" />
<polyline points="325.5,108.0,317.5,108.5" stroke="black" stroke-width="2" fill="none" />
<polyline points="316.5,98.5,325.0,91.0" stroke="black" stroke-width="2" fill="none" />
<polyline points="325.0,92.0,317.0,92.5" stroke="black" stroke-width="2" fill="none" />
<polyline points="333.0,94.0,341.0,93.5" stroke="black" stroke-width="2" fill="none" />
<polyline points="341.0,101.5,333.0,102.5" stroke="black" stroke-width="2" fill="none" />
<polyline points="348.5,101.0,360.5,102.5,372.5,96.5,385.0,92.0,395.0,90.0,399.5,91.0" stroke="black" stroke-width="2" fill="none" />
<polyline points="419.0,87.0,437.5,73.5" stroke="black" stroke-width="2" fill="none" />
<polyline points="457.0,92.0,452.5,104.0,448.0,108.0,444.5,120.0,435.0,129.0,444.5,141.5" stroke="black" stroke-width="2" fill="none" />
<polyline points="453.5,130.5,441.5,126.0" stroke="black" stroke-width="2" fill="none" />
<polyline points="435.5,116.0,428.0,116.0" stroke="black" stroke-width="2" fill="none" />
<polyline points="428.0,101.5,436.5,100.5" stroke="black" stroke-width="2" fill="none" />
<polyline points="418.0,110.0,410.0,110.5" stroke="black" stroke-width="2" fill="none" />
<polyline points="405.0,126.0,411.0,137.5" stroke="black" stroke-width="2" fill="none" />
<polyline points="375.0,131.5,364.5,130.5,358.5,119.0,347.5,128.0,331.5,134.0,322.5,130.0,310.5,133.0,312.5,137.5,302.0,130.0" stroke="black" stroke-width="2" fill="none" />
<polyline points="299.5,129.5,292.0,137.0,283.5,145.0,275.5,153.0,267.5,160.5" stroke="black" stroke-width="2" fill="none" />
<polyline points="267.5,162.5,275.0,162.0,283.0,161.5,290.5,161.0,297.5,160.0" stroke="black" stroke-width="2" fill="none" />
<polyline points="299.0,163.0,291.5,170.5,283.5,178.5,276.0,186.0,268.0,193.5" stroke="black" stroke-width="2" fill="none" />
<polyline points="266.5,192.0,274.5,192.0,282.5,192.0,290.0,192.0,297.0,191.5" stroke="black" stroke-width="2" fill="none" />
<polyline points="300.0,181.0,292.0,188.5,283.5,196.0" stroke="black" stroke-width="2" fill="none" />
<polyline points="266.0,177.0,274.5,176.5,283.0,176.0,291.0,175.5,299.5,175.5" stroke="black" stroke-width="2" fill="none" />
<polyline points="307.0,168.5,298.5,168.5,290.5,169.5" stroke="black" stroke-width="2" fill="none" />
<polyline points="308.0,171.0,300.0,172.0,291.5,172.0,283.5,172.5,275.5,173.0,268.0,174.0" stroke="black" stroke-width="2" fill="none" />
<polyline points="269.0,170.0,276.5,169.5,284.5,168.5" stroke="black" stroke-width="2" fill="none" />
<polyline points="268.0,167.0,276.0,166.5,284.5,166.0,292.5,165.5,300.5,164.5,308.0,163.5,316.5,163.0" stroke="black" stroke-width="2" fill="none" />
<polyline points="323.0,154.5,315.0,155.0,307.0,155.5,299.0,156.0,291.0,156.0,283.0,157.0,275.5,157.5,268.0,158.0" stroke="black" stroke-width="2" fill="none" />
<polyline points="267.0,153.0,274.5,145.0,282.5,137.0,290.0,129.0" stroke="black" stroke-width="2" fill="none" />
<polyline points="291.5,124.0,283.0,131.5,275.0,139.0,267.0,146.5" stroke="black" stroke-width="2" fill="none" />
<polyline points="268.0,146.0,275.5,146.0,283.0,145.0,290.5,144.0,299.0,143.5" stroke="black" stroke-width="2" fill="none" />
<polyline points="297.5,137.5,289.5,145.0,282.0,152.5,274.5,160.5,267.0,168.0" stroke="black" stroke-width="2" fill="none" />
<polyline points="260.0,164.5,252.0,172.0,244.5,179.0,236.5,186.5,228.0,193.5" stroke="black" stroke-width="2" fill="none" />
<polyline points="220.5,194.0,228.5,193.5,236.5,193.0,244.0,192.5,251.5,192.5" stroke="black" stroke-width="2" fill="none" />
<polyline points="250.0,191.5,258.0,183.5,266.0,175.5,274.5,168.0,283.5,161.0,291.5,153.5,299.5,146.5,307.5,139.0" stroke="black" stroke-width="2" fill="none" />
<polyline points="301.0,150.5,292.5,150.5,284.5,150.5,277.0,151.0,269.0,152.0" stroke="black" stroke-width="2" fill="none" />
<polyline points="267.0,148.5,275.0,148.0,283.5,148.0,291.5,147.0,300.0,146.5,308.5,145.5" stroke="black" stroke-width="2" fill="none" />
<polyline points="307.0,139.5,299.0,140.0,291.5,140.0,284.0,140.5,276.0,141.0,267.5,142.0" stroke="black" stroke-width="2" fill="none" />
<polyline points="268.5,140.0,276.5,132.5,285.0,125.0" stroke="black" stroke-width="2" fill="none" />
<polyline points="276.5,123.0,268.5,130.0" stroke="black" stroke-width="2" fill="none" />
<polyline points="268.0,138.0,276.0,137.5,284.0,136.5,292.0,136.0,299.5,135.5" stroke="black" stroke-width="2" fill="none" />
<polyline points="304.0,152.5,327.0,154.0,327.0,165.5,330.0,167.0" stroke="black" stroke-width="2" fill="none" />
<polyline points="300.5,179.5,292.0,180.0,283.5,180.5,275.5,181.0,267.5,182.5,259.0,183.5,251.0,184.0,243.0,185.0,235.5,185.0,228.0,185.0,220.0,186.0" stroke="black" stroke-width="2" fill="none" />
<polyline points="221.0,184.0,228.5,176.5,236.5,168.5,244.0,161.5,252.0,154.5,259.5,147.5" stroke="black" stroke-width="2" fill="none" />
<polyline points="260.0,139.0,251.5,146.5,243.5,153.5,235.0,161.0,227.0,168.0,219.0,176.0" stroke="black" stroke-width="2" fill="none" />
<polyline points="219.5,178.5,227.5,178.0,235.5,177.5,243.0,176.5,251.0,176.0" stroke="black" stroke-width="2" fill="none" />
<polyline points="258.5,173.5,250.5,180.5,243.5,187.5,236.0,195.0,228.5,202.0" stroke="black" stroke-width="2" fill="none" />
<polyline points="244.0,195.0,251.5,187.5,259.0,180.0" stroke="black" stroke-width="2" fill="none" />
<polyline points="251.5,165.0,243.0,172.0,234.5,179.5,226.5,186.5,219.0,194.5,210.5,202.0" stroke="black" stroke-width="2" fill="none" />
<polyline points="211.0,201.5,219.0,201.0" stroke="black" stroke-width="2" fill="none" />
<polyline points="205.5,201.5,197.5,209.5,189.0,217.5,181.0,225.5,173.5,234.0" stroke="black" stroke-width="2" fill="none" />
<polyline points="170.0,234.5,178.0,234.0,185.5,234.0,193.5,233.5,201.5,233.5" stroke="black" stroke-width="2" fill="none" />
<polyline points="194.5,233.0,202.5,225.5" stroke="black" stroke-width="2" fill="none" />
<polyline points="202.5,218.5,195.0,226.0,187.5,234.0" stroke="black" stroke-width="2" fill="none" />
<polyline points="180.0,235.5,188.5,228.0,196.5,220.5" stroke="black" stroke-width="2" fill="none" />
<polyline points="195.5,216.0,187.0,216.5" stroke="black" stroke-width="2" fill="none" />
<polyline points="191.5,214.0,203.0,212.5" stroke="black" stroke-width="2" fill="none" />
<polyline points="204.5,208.5,197.0,208.5" stroke="black" stroke-width="2" fill="none" />
<polyline points="189.0,209.5,180.5,217.0,172.0,225.0" stroke="black" stroke-width="2" fill="none" />
<polyline points="164.0,225.0,172.0,217.0,180.0,209.5,187.5,202.5" stroke="black" stroke-width="2" fill="none" />
<polyline points="188.0,196.0,195.5,195.5,203.5,195.0,212.0,194.5,220.0,194.5,228.0,193.5,236.5,194.0,245.0,194.0" stroke="black" stroke-width="2" fill="none" />
<polyline points="253.0,168.5,245.5,168.5,237.0,169.5,228.5,170.0,220.5,170.0" stroke="black" stroke-width="2" fill="none" />
<polyline points="213.5,167.0,221.5,166.0,229.0,165.5,236.0,164.5,244.0,164.0,251.5,163.5,259.0,163.0" stroke="black" stroke-width="2" fill="none" />
<polyline points="252.5,159.0,245.0,159.5,237.5,159.5,229.5,159.5,222.0,160.0" stroke="black" stroke-width="2" fill="none" />
<polyline points="221.5,152.5,229.5,152.0,237.0,151.5,245.0,151.0,252.5,151.0" stroke="black" stroke-width="2" fill="none" />
<polyline points="251.5,143.0,244.0,144.0,236.5,144.5,229.0,145.5,221.5,146.0" stroke="black" stroke-width="2" fill="none" />
<polyline points="217.5,152.5,226.0,145.0,234.0,137.5,242.5,130.0,251.0,122.5,259.0,114.5" stroke="black" stroke-width="2" fill="none" />
<polyline points="261.0,121.0,269.0,120.5" stroke="black" stroke-width="2" fill="none" />
<polyline points="268.5,114.5,260.5,121.5,252.0,128.5,244.5,136.5,237.0,144.5,229.0,152.0,221.0,159.0,212.5,166.5" stroke="black" stroke-width="2" fill="none" />
<polyline points="212.5,173.5,220.5,166.5,228.0,159.5,236.0,152.0,243.5,145.0,252.0,137.5,260.5,130.5,269.0,123.5,276.5,116.5" stroke="black" stroke-width="2" fill="none" />
<polyline points="276.0,106.5,284.5,98.5" stroke="black" stroke-width="2" fill="none" />
<polyline points="292.0,100.5,283.5,100.5,275.0,100.5" stroke="black" stroke-width="2" fill="none" />
<polyline points="276.0,94.5,284.5,93.5" stroke="black" stroke-width="2" fill="none" />
<polyline points="291.0,98.5,283.0,99.0,275.0,99.5,267.0,100.5,259.5,101.5,251.5,102.0,243.0,103.0,234.5,104.0,226.5,104.0,218.0,104.0,209.5,104.0,201.0,104.5,193.5,104.5,185.0,105.5,177.0,106.0,169.0,106.5,161.0,107.0,153.0,107.5,145.5,107.0,138.5,107.5,131.0,107.5,123.0,108.0,115.0,108.5" stroke="black" stroke-width="2" fill="none" />
<polyline points="114.5,107.0,123.0,99.5,131.0,91.5" stroke="black" stroke-width="2" fill="none" />
<polyline points="123.5,94.0,116.0,101.5" stroke="black" stroke-width="2" fill="none" />
<polyline points="115.0,103.0,123.0,102.0,131.0,101.5,139.0,100.5,147.5,100.0,155.5,99.5,164.0,99.0,172.0,98.0,180.5,97.5,188.0,97.0,195.5,97.0,203.5,96.5,211.5,96.0,219.5,95.5,228.0,94.5,235.5,94.0,244.0,93.5,252.5,93.0,260.5,92.5,268.5,93.0" stroke="black" stroke-width="2" fill="none" />
<polyline points="267.0,98.0,279.0,89.0,279.0,100.0" stroke="black" stroke-width="2" fill="none" />
<polyline points="268.0,86.0,259.5,87.0" stroke="black" stroke-width="2" fill="none" />
<polyline points="257.5,87.0,261.5,79.5,273.0,78.5,283.5,81.0,297.0,72.0,304.0,67.5" stroke="black" stroke-width="2" fill="none" />
<polyline points="307.5,68.0,316.0,67.5" stroke="black" stroke-width="2" fill="none" />
<polyline points="314.5,69.0,306.5,76.5" stroke="black" stroke-width="2" fill="none" />
<polyline points="315.0,78.0,309.0,77.5,297.0,79.0" stroke="black" stroke-width="2" fill="none" />
<polyline points="293.0,65.5,285.5,77.5,289.0,91.5,293.5,93.0,272.5,110.0,280.0,122.5,302.0,116.5,314.0,107.5,326.0,105.0,344.0,92.0,356.0,91.0,368.0,92.0,378.5,84.0,389.5,76.0,395.0,67.0,399.5,70.0,410.0,82.0,417.5,68.0" stroke="black" stroke-width="2" fill="none" />
<polyline points="396.5,52.0,384.5,47.5,379.0,41.5,373.0,40.5,362.5,51.0,347.5,52.5,336.0,61.5,333.0,70.5,321.0,67.5,314.5,58.5,302.5,58.5,292.0,63.0,286.0,75.0,277.0,67.5,258.5,73.5,245.0,87.0,231.5,71.5,226.5,82.0,216.0,86.5,208.5,100.0,216.5,94.5,229.5,83.5,238.5,79.0,235.5,77.5,242.5,67.0,253.5,55.0,246.0,48.5,260.0,39.0,267.5,30.0,275.0,18.0,262.5,10.5" stroke="black" stroke-width="2" fill="none" />
<polyline points="260.0,15.0,268.0,14.5" stroke="black" stroke-width="2" fill="none" />
<polyline points="269.5,22.0,277.5,21.0" stroke="black" stroke-width="2" fill="none" />
<polyline points="283.5,24.5,275.5,32.0" stroke="black" stroke-width="2" fill="none" />
<polyline points="277.0,29.5,284.5,29.0" stroke="black" stroke-width="2" fill="none" />
<polyline points="282.0,29.5,290.0,19.0,282.5,31.0,282.5,26.5,281.0,43.0,266.0,50.5,263.0,62.5" stroke="black" stroke-width="2" fill="none" />
<polyline points="269.0,59.0,276.5,51.5" stroke="black" stroke-width="2" fill="none" />
<polyline points="275.5,44.5,267.5,45.0" stroke="black" stroke-width="2" fill="none" />
<polyline points="261.0,55.0,269.0,54.5,277.0,53.5" stroke="black" stroke-width="2" fill="none" />
<polyline points="284.0,61.5,292.0,61.5" stroke="black" stroke-width="2" fill="none" />
<polyline points="292.5,52.5,300.0,52.0" stroke="black" stroke-width="2" fill="none" />
<polyline points="307.5,54.0,315.0,53.5" stroke="black" stroke-width="2" fill="none" />
<polyline points="321.0,53.0,332.5,47.0,338.5,41.0,350.5,44.0,353.0,36.5,365.0,32.5" stroke="black" stroke-width="2" fill="none" />
<polyline points="354.5,37.0,347.0,37.5" stroke="black" stroke-width="2" fill="none" />
<polyline points="332.5,29.0,324.5,29.0" stroke="black" stroke-width="2" fill="none" />
<polyline points="325.0,35.5,316.5,36.5" stroke="black" stroke-width="2" fill="none" />
<polyline points="315.5,46.0,307.0,46.5" stroke="black" stroke-width="2" fill="none" />
<polyline points="308.0,62.0,315.5,61.0" stroke="black" stroke-width="2" fill="none" />
<polyline points="305.5,28.5,297.5,29.0" stroke="black" stroke-width="2" fill="none" />
<polyline points="299.5,18.5,307.0,10.5" stroke="black" stroke-width="2" fill="none" />
<polyline points="301.0,7.5,295.0,11.0,299.0,20.0,299.0,29.0,297.5,45.5,277.0,44.0,270.5,58.5,279.5,61.5,273.0,73.5,262.0,77.0,250.0,87.5,244.0,98.0,250.0,99.5,253.0,111.5,262.5,117.5,249.0,135.5,252.5,148.0,251.5,160.0,253.5,172.5,253.5,185.0,258.0,195.5,262.5,199.5,280.5,196.5,292.5,195.0,307.5,195.0,307.5,184.5,319.5,185.5,332.5,176.5,344.5,170.5,356.0,174.5,362.0,164.0,374.0,165.5,375.5,151.0,381.5,151.0,391.5,136.5,402.0,146.5,412.5,143.5,427.0,141.0" stroke="black" stroke-width="2" fill="none" />
<polyline points="459.0,148.0,455.5,160.0,452.5,172.0,442.0,184.0,431.5,194.5,422.5,195.5,427.0,210.5,413.5,213.0,417.5,225.0,424.0,226.5,436.0,220.5,452.5,216.0,461.5,219.0,469.0,211.5,484.0,219.0,485.5,205.5,494.5,193.5,498.5,200.0,504.5,208.0,506.0,216.0" stroke="black" stroke-width="2" fill="none" />
<polyline points="348.5,118.5,336.5,120.0" stroke="black" stroke-width="2" fill="none" />
<polyline points="307.5,109.5,299.0,110.0" stroke="black" stroke-width="2" fill="none" />
<polyline points="300.0,109.0,292.0,109.0,283.5,109.5,275.5,110.0,267.0,110.5,258.5,110.5,250.5,111.0,242.5,111.5,234.0,112.0,226.5,113.0,218.0,114.0,210.0,114.0,202.5,114.5,194.5,115.5,186.5,116.5,178.0,116.5,170.5,117.5,162.5,118.0,154.5,118.5,146.0,118.5,138.0,119.0,130.0,119.5,122.0,120.5,114.0,121.5,107.0,122.0,100.0,123.0,92.0,124.0,84.0,125.5,76.5,126.5,69.0,127.0,61.0,127.0" stroke="black" stroke-width="2" fill="none" />
<polyline points="60.5,129.5,69.0,121.5,76.5,114.0" stroke="black" stroke-width="2" fill="none" />
<polyline points="84.0,112.5,92.5,111.5" stroke="black" stroke-width="2" fill="none" />
<polyline points="93.0,109.5,84.5,117.0,76.5,125.0,68.5,132.5,61.0,139.5" stroke="black" stroke-width="2" fill="none" />
<polyline points="59.5,140.5,67.5,139.5" stroke="black" stroke-width="2" fill="none" />
<polyline points="70.0,141.0,61.5,148.5" stroke="black" stroke-width="2" fill="none" />
<polyline points="60.5,147.0,68.5,146.5" stroke="black" stroke-width="2" fill="none" />
<polyline points="68.5,148.0,60.5,155.5" stroke="black" stroke-width="2" fill="none" />
<polyline points="61.5,150.5,70.0,150.0" stroke="black" stroke-width="2" fill="none" />
<polyline points="71.5,154.5,83.5,145.0,88.0,134.5,100.0,140.5" stroke="black" stroke-width="2" fill="none" />
<polyline points="92.5,152.5,100.5,152.0,108.0,152.5,116.0,152.5,124.0,152.0,131.5,152.0,139.5,151.0" stroke="black" stroke-width="2" fill="none" />
<polyline points="136.0,150.5,148.0,148.5,160.0,147.0" stroke="black" stroke-width="2" fill="none" />
<polyline points="171.0,146.5,178.5,139.0,186.5,131.5,194.0,124.0,202.0,117.0,209.5,109.5,217.5,102.0" stroke="black" stroke-width="2" fill="none" />
<polyline points="218.5,93.0,210.5,100.5,203.0,108.0,195.5,115.5,187.5,122.5,179.5,130.0,172.0,137.0,164.0,144.0,156.0,151.5" stroke="black" stroke-width="2" fill="none" />
<polyline points="156.5,145.0,165.0,138.0,173.0,130.0,181.0,122.0,189.0,114.0,197.0,106.0,205.5,99.0" stroke="black" stroke-width="2" fill="none" />
<polyline points="197.0,94.5,189.0,102.0,180.5,109.0,172.5,116.5,165.0,124.0,157.0,131.5,148.5,139.0,140.0,146.5,131.5,153.5,123.5,160.5" stroke="black" stroke-width="2" fill="none" />
<polyline points="122.0,164.5,130.5,164.5,138.5,164.0,147.0,163.5,155.0,163.5" stroke="black" stroke-width="2" fill="none" />
<polyline points="160.5,166.5,169.0,166.0" stroke="black" stroke-width="2" fill="none" />
<polyline points="164.5,161.0,172.5,153.0,180.5,145.5,188.5,138.0" stroke="black" stroke-width="2" fill="none" />
<polyline points="197.0,141.0,189.0,149.0" stroke="black" stroke-width="2" fill="none" />
<polyline points="195.5,152.0,203.5,144.0,212.0,136.5,220.0,129.5,228.0,122.5,236.0,115.0,244.0,108.0,251.5,100.5" stroke="black" stroke-width="2" fill="none" />
<polyline points="252.5,110.0,244.5,117.5,236.5,125.0,228.0,132.5,220.0,139.5,212.0,147.0,203.0,154.0" stroke="black" stroke-width="2" fill="none" />
<polyline points="209.0,148.5,197.0,160.5" stroke="black" stroke-width="2" fill="none" />
<polyline points="197.0,163.5,189.0,164.0" stroke="black" stroke-width="2" fill="none" />
<polyline points="184.0,155.0,181.0,167.0,181.0,186.0,170.0,190.5" stroke="black" stroke-width="2" fill="none" />
<polyline points="170.5,190.5,179.0,190.0" stroke="black" stroke-width="2" fill="none" />
<polyline points="179.0,196.0,171.0,203.5,163.0,211.0,155.0,218.5,147.5,226.5" stroke="black" stroke-width="2" fill="none" />
<polyline points="153.0,229.0,161.5,229.0,170.0,228.5,178.5,228.5,187.0,228.0,195.0,228.0,203.0,227.5,211.5,227.0" stroke="black" stroke-width="2" fill="none" />
<polyline points="213.0,237.5,205.0,238.0,196.5,238.5,188.0,239.0,180.5,239.5" stroke="black" stroke-width="2" fill="none" />
<polyline points="163.5,221.0,155.5,228.5" stroke="black" stroke-width="2" fill="none" />
<polyline points="138.0,224.0,146.5,223.0,154.0,222.0,162.5,221.5,170.5,221.0,178.5,220.5,187.0,220.5,195.5,220.0" stroke="black" stroke-width="2" fill="none" />
<polyline points="203.5,212.5,195.0,213.0,187.0,213.5,179.0,214.0,171.0,214.5" stroke="black" stroke-width="2" fill="none" />
<polyline points="171.0,210.5,179.0,202.5" stroke="black" stroke-width="2" fill="none" />
<polyline points="170.5,197.0,162.5,205.0,154.5,211.5,146.5,218.5,139.0,225.5,131.5,232.5" stroke="black" stroke-width="2" fill="none" />
<polyline points="138.5,227.5,130.5,227.5,122.5,228.0" stroke="black" stroke-width="2" fill="none" />
<polyline points="125.0,219.5,133.0,211.5,141.0,204.0,149.0,196.0,157.0,188.5" stroke="black" stroke-width="2" fill="none" />
<polyline points="157.5,197.0,149.5,204.5,141.5,211.5,133.0,219.0" stroke="black" stroke-width="2" fill="none" />
<polyline points="130.5,220.5,138.5,220.0,146.5,219.5,154.5,218.5,162.5,218.0,171.0,217.0,179.0,216.5,187.0,216.5,195.0,216.0,203.5,216.0,211.5,216.0" stroke="black" stroke-width="2" fill="none" />
<polyline points="202.5,199.5,194.5,200.5,186.0,200.5,178.0,200.5,170.5,200.5,163.0,201.0,155.5,201.5,148.0,202.0,140.0,203.0,132.0,203.5,123.5,204.0,115.5,204.5" stroke="black" stroke-width="2" fill="none" />
<polyline points="115.5,203.5,123.5,196.0,131.5,188.5" stroke="black" stroke-width="2" fill="none" />
<polyline points="130.0,192.5,138.0,185.0" stroke="black" stroke-width="2" fill="none" />
<polyline points="148.0,187.0,140.0,195.0,132.0,202.0,124.0,209.0" stroke="black" stroke-width="2" fill="none" />
<polyline points="125.0,213.5,133.0,213.0,140.5,213.0,148.5,213.0,156.0,213.0,163.5,212.5" stroke="black" stroke-width="2" fill="none" />
<polyline points="163.5,216.0,155.5,216.0,147.5,216.5,139.0,217.0,131.0,217.5,122.5,218.0" stroke="black" stroke-width="2" fill="none" />
<polyline points="119.5,213.5,131.5,221.0,143.0,224.0,154.5,226.5" stroke="black" stroke-width="2" fill="none" />
<polyline points="140.0,218.5,148.0,211.0,156.5,203.0,165.0,195.0" stroke="black" stroke-width="2" fill="none" />
<polyline points="179.0,208.0,171.0,208.5,163.5,209.0,156.0,210.0,148.5,210.5" stroke="black" stroke-width="2" fill="none" />
<polyline points="134.0,202.0,141.5,201.5,149.5,201.5,157.0,200.5,164.5,199.5,172.5,199.0,180.5,198.0" stroke="black" stroke-width="2" fill="none" />
<polyline points="180.0,195.0,172.0,195.5,164.0,195.5,156.5,195.5,148.0,196.0,140.0,197.0,131.5,197.5" stroke="black" stroke-width="2" fill="none" />
<polyline points="130.5,204.0,157.5,216.0" stroke="black" stroke-width="2" fill="none" />
<polyline points="175.0,213.0,193.0,219.0,197.5,231.0" stroke="black" stroke-width="2" fill="none" />
<polyline points="196.0,191.0,204.0,190.5,211.5,190.0,219.0,189.5,227.0,188.5,234.5,188.0,243.0,188.0,251.5,187.0,260.0,186.5" stroke="black" stroke-width="2" fill="none" />
<polyline points="306.5,175.0,298.5,175.0,290.5,175.0,283.0,176.0,274.5,176.5,266.0,177.5,257.5,178.0,249.5,179.0,242.0,179.5,234.5,180.5,227.0,181.0,220.0,181.5,212.0,182.0" stroke="black" stroke-width="2" fill="none" />
<polyline points="212.5,174.5,220.5,174.0,228.0,173.0,235.5,172.5,244.0,172.0,251.5,171.5,259.0,170.5" stroke="black" stroke-width="2" fill="none" />
<polyline points="261.0,152.5,252.5,153.0,244.5,153.0,236.5,153.5,228.5,154.5,220.5,155.0,212.5,155.5,203.5,156.5,195.0,157.0,186.5,158.0,178.0,158.5,169.5,158.5,161.0,159.0" stroke="black" stroke-width="2" fill="none" />
<polyline points="165.0,159.0,176.5,155.5,177.0,155.5,173.0,167.5,156.5,175.0,161.0,181.5,172.0,186.0,176.0,177.5,186.5,180.5,192.5,168.5,198.5,152.0,216.5,165.5,207.5,171.5,212.5,173.0,215.0,187.5,213.5,191.5,207.5,196.5,221.0,201.0,207.0,213.0,223.5,206.0" stroke="black" stroke-width="2" fill="none" />
<polyline points="216.5,189.5,204.5,189.5" stroke="black" stroke-width="2" fill="none" />
<polyline points="195.5,180.5,187.5,181.0" stroke="black" stroke-width="2" fill="none" />
<polyline points="157.0,173.0,149.0,180.5" stroke="black" stroke-width="2" fill="none" />
<polyline points="154.5,191.0,147.0,191.0,139.0,191.5,131.0,192.0,123.0,192.5" stroke="black" stroke-width="2" fill="none" />
<polyline points="124.0,189.0,131.5,188.5,139.0,188.0,146.5,187.5,154.5,186.5,162.0,186.0" stroke="black" stroke-width="2" fill="none" />
<polyline points="163.0,172.5,155.0,172.5,146.5,172.5,138.0,172.5,129.5,172.0,122.0,172.5" stroke="black" stroke-width="2" fill="none" />
<polyline points="114.0,179.5,106.0,180.0" stroke="black" stroke-width="2" fill="none" />
<polyline points="106.0,182.5,110.5,181.5,111.0,193.5,102.0,190.5,109.5,202.5,106.0,211.0,102.0,228.0,109.5,238.0,100.5,245.5,103.5,245.5,98.5,262.0" stroke="black" stroke-width="2" fill="none" />
<polyline points="100.0,264.0,108.0,263.0" stroke="black" stroke-width="2" fill="none" />
<polyline points="107.5,260.0,99.5,267.5" stroke="black" stroke-width="2" fill="none" />
<polyline points="107.5,248.5,91.0,251.0,85.5,240.5,76.5,224.0,66.0,228.5,57.0,228.5,46.5,234.0,37.5,238.0,36.0,247.0,28.0,247.0,16.0,249.5" stroke="black" stroke-width="2" fill="none" />
<polyline points="11.5,259.5,23.5,262.5,35.5,253.5,40.0,254.5,31.0,266.5,29.5,278.0,26.5,290.0,19.0,298.5,25.0,283.5,29.5,267.0,34.0,270.5,46.0,270.5,54.5,272.0,64.5,255.0,66.5,247.5,78.5,247.5,89.5,261.0,101.5,258.5,114.0,257.0,117.5,242.0,119.0,245.0,141.0,240.5" stroke="black" stroke-width="2" fill="none" />
<polyline points="116.0,243.5,108.5,244.0" stroke="black" stroke-width="2" fill="none" />
<polyline points="108.0,236.5,116.0,236.0" stroke="black" stroke-width="2" fill="none" />
<polyline points="114.5,211.0,122.0,203.5" stroke="black" stroke-width="2" fill="none" />
<polyline points="116.0,208.0,124.0,208.0,132.0,208.0,140.0,207.5" stroke="black" stroke-width="2" fill="none" />
<polyline points="123.5,195.5,116.0,196.0" stroke="black" stroke-width="2" fill="none" />
<polyline points="112.5,193.0,109.5,218.0,106.5,210.5" stroke="black" stroke-width="2" fill="none" />
<polyline points="101.5,224.5,89.5,218.5" stroke="black" stroke-width="2" fill="none" />
<polyline points="89.0,223.5,86.0,235.5,87.0,247.5,87.0,260.0,90.0,267.5" stroke="black" stroke-width="2" fill="none" />
<polyline points="75.0,253.0,66.5,253.5" stroke="black" stroke-width="2" fill="none" />
<polyline points="64.5,243.5,55.5,246.5" stroke="black" stroke-width="2" fill="none" />
<polyline points="53.5,237.5,61.0,237.5" stroke="black" stroke-width="2" fill="none" />
<polyline points="68.0,228.5,60.0,228.5,52.0,229.5" stroke="black" stroke-width="2" fill="none" />
<polyline points="49.0,213.0,57.5,212.5" stroke="black" stroke-width="2" fill="none" />
<polyline points="60.0,205.5,68.5,205.5" stroke="black" stroke-width="2" fill="none" />
<polyline points="77.5,191.5,85.0,191.0" stroke="black" stroke-width="2" fill="none" />
<polyline points="83.5,196.0,92.0,196.0" stroke="black" stroke-width="2" fill="none" />
<polyline points="91.5,193.0,99.5,185.5" stroke="black" stroke-width="2" fill="none" />
<polyline points="99.0,179.0,91.0,186.5" stroke="black" stroke-width="2" fill="none" />
<polyline points="91.5,188.0,100.0,188.0" stroke="black" stroke-width="2" fill="none" />
<polyline points="99.5,182.5,91.5,182.5" stroke="black" stroke-width="2" fill="none" />
<polyline points="90.0,173.5,83.0,174.0" stroke="black" stroke-width="2" fill="none" />
<polyline points="76.0,167.5,84.0,167.5,92.5,167.0,100.5,166.0,108.5,165.0,116.5,164.5" stroke="black" stroke-width="2" fill="none" />
<polyline points="132.5,159.5,141.0,152.5,149.0,145.0,157.0,137.5,165.0,130.0,173.0,122.0,181.0,114.5,189.0,106.5,197.0,98.5,204.5,90.5,212.5,82.5" stroke="black" stroke-width="2" fill="none" />
<polyline points="212.5,89.0,204.5,89.0" stroke="black" stroke-width="2" fill="none" />
<polyline points="205.0,86.0,213.0,86.0,221.0,85.5,229.0,85.5,237.0,85.5,245.0,85.5,253.0,84.5" stroke="black" stroke-width="2" fill="none" />
<polyline points="249.5,90.0,241.5,97.5,234.0,105.5,226.5,113.0,219.5,120.0,212.0,126.5,204.5,134.5,197.0,142.5" stroke="black" stroke-width="2" fill="none" />
<polyline points="195.5,130.0,203.5,129.0,211.5,129.0" stroke="black" stroke-width="2" fill="none" />
<polyline points="211.5,137.5,219.5,137.0,228.0,136.5,235.5,136.0,243.0,136.0,251.0,135.5" stroke="black" stroke-width="2" fill="none" />
<polyline points="252.0,136.5,253.0,130.5,265.0,131.0,262.5,149.5,262.5,162.0,264.5,174.0" stroke="black" stroke-width="2" fill="none" />
<polyline points="219.0,144.0,227.5,136.5,235.0,129.5,242.5,122.0,250.5,115.0,258.5,107.5" stroke="black" stroke-width="2" fill="none" />
<polyline points="251.5,106.0,243.0,106.5,235.0,107.0" stroke="black" stroke-width="2" fill="none" />
<polyline points="236.5,98.0,244.5,98.0" stroke="black" stroke-width="2" fill="none" />
<polyline points="241.5,90.5,233.5,98.0,226.0,105.5,218.0,113.5,209.5,121.0,201.5,128.5" stroke="black" stroke-width="2" fill="none" />
<polyline points="194.0,128.0,201.5,120.5,209.5,113.0,218.0,105.5,226.5,98.0,235.0,90.5,243.0,83.0" stroke="black" stroke-width="2" fill="none" />
<polyline points="244.5,75.5,236.0,83.0,228.0,90.5" stroke="black" stroke-width="2" fill="none" />
<polyline points="236.0,91.0,244.5,90.5" stroke="black" stroke-width="2" fill="none" />
<polyline points="243.5,60.5,251.5,53.0" stroke="black" stroke-width="2" fill="none" />
<polyline points="243.0,52.5,249.0,66.0,247.5,78.0,236.0,93.5,237.5,104.0,218.0,103.0,228.0,88.5,244.5,91.5,251.5,94.5,253.0,103.5,265.0,101.5,268.0,115.5,275.5,124.5,285.0,113.0,292.5,93.5,305.0,93.5,315.5,93.5,329.0,84.0,332.5,104.5,320.5,116.5,328.0,118.0,316.0,131.0,311.0,146.5,306.5,155.5,309.5,167.5,306.5,181.0,314.0,191.0,312.5,199.5" stroke="black" stroke-width="2" fill="none" />
<polyline points="277.0,127.0,269.5,127.5,261.5,128.5,253.5,129.0,245.0,130.0,237.0,130.0,228.0,130.5,220.0,130.5" stroke="black" stroke-width="2" fill="none" />
<polyline points="219.5,101.5,211.5,102.5,203.5,102.5,196.0,102.5,187.5,102.5,180.0,103.0,172.5,104.0,165.0,104.5,157.0,104.5,149.5,105.5" stroke="black" stroke-width="2" fill="none" />
<polyline points="153.5,97.5,161.0,97.5,169.5,97.0,178.0,97.0,186.5,97.0,194.5,97.0,203.0,96.0" stroke="black" stroke-width="2" fill="none" />
<polyline points="188.5,93.0,180.5,100.0,172.5,106.5,164.0,113.5,155.5,121.0,147.0,128.0,138.5,135.5,130.0,142.5,122.5,150.0,115.0,157.5" stroke="black" stroke-width="2" fill="none" />
<polyline points="108.5,160.5,116.5,153.0,125.0,145.5,133.0,138.0,140.5,131.0,148.5,123.5,156.0,116.0,164.0,108.0,171.5,100.0,179.5,92.0,187.0,84.0,195.0,76.5" stroke="black" stroke-width="2" fill="none" />
<polyline points="196.0,66.5,204.0,59.5" stroke="black" stroke-width="2" fill="none" />
<polyline points="205.0,53.0,196.5,60.0,188.0,67.5" stroke="black" stroke-width="2" fill="none" />
<polyline points="178.5,68.5,170.5,75.5,162.5,82.5,154.5,89.5,147.0,97.0,139.0,104.5,131.5,112.5,123.5,120.0,115.5,127.5,108.0,134.5,100.5,142.5,92.0,150.0,84.0,157.5,76.0,164.5" stroke="black" stroke-width="2" fill="none" />
<polyline points="72.5,164.0,78.5,170.0,81.5,182.0,88.5,185.0,79.0,202.0,80.5,214.0,72.5,214.0,84.5,211.0,96.5,204.0,114.5,197.0,136.0,199.5,147.5,207.0,159.0,212.0,177.0,213.0,189.0,211.5,191.5,201.0,196.0,203.0" stroke="black" stroke-width="2" fill="none" />
<polyline points="199.0,218.5,193.0,206.5,203.0,200.5,188.0,197.0,201.5,194.5,194.0,184.0,185.0,182.5,179.0,179.5,173.0,176.5,191.5,171.5,193.5,159.0,191.0,151.5,198.5,139.5,184.5,127.5" stroke="black" stroke-width="2" fill="none" />
<polyline points="185.5,130.0,178.5,130.5,171.0,130.5,163.0,131.0,155.0,131.5,147.0,132.0,139.5,132.0,132.0,132.5,124.0,132.5,116.0,133.0,108.0,133.5,100.5,134.5,92.0,135.0,84.0,136.0,76.0,136.5" stroke="black" stroke-width="2" fill="none" />
<polyline points="75.0,138.5,83.0,131.0,90.5,124.0,98.5,116.5" stroke="black" stroke-width="2" fill="none" />
<polyline points="93.0,116.5,85.5,124.5,77.0,132.0" stroke="black" stroke-width="2" fill="none" />
<polyline points="77.5,132.0,85.0,131.5,92.5,131.5,100.0,131.0,108.0,130.5,115.5,130.5,123.0,131.0,131.0,131.0,138.5,131.0,146.0,130.5,153.5,130.0,162.0,129.5,170.5,129.0,179.0,129.0,187.0,128.5,195.5,128.0,203.5,127.5,211.0,127.5,219.0,127.0,227.0,126.0,234.5,125.5,243.0,125.0,251.5,123.5,259.5,122.5,267.5,122.0,276.0,121.5,284.0,121.0,292.5,120.5,300.5,120.0,308.0,119.5,316.0,119.0" stroke="black" stroke-width="2" fill="none" />
<polyline points="313.0,96.5,300.5,101.0" stroke="black" stroke-width="2" fill="none" />
<polyline points="315.5,21.0,323.5,20.5" stroke="black" stroke-width="2" fill="none" />
<polyline points="323.0,15.0,331.0,14.5,339.5,14.5" stroke="black" stroke-width="2" fill="none" />
<polyline points="336.5,5.0,312.5,11.0,305.0,15.5,317.0,23.0,313.0,33.0,313.0,48.0,304.0,60.0,310.5,67.5,303.0,67.5,304.5,85.5,292.5,101.5,292.5,113.5,282.0,115.0,281.5,127.5,293.0,140.0,296.0,144.0,292.5,156.0,295.5,156.0,297.0,168.0,295.5,180.5,295.5,192.5" stroke="black" stroke-width="2" fill="none" />
<polyline points="260.0,105.5,251.5,106.0,243.0,106.5,235.0,107.0,227.0,107.0,218.5,107.5,210.0,107.5,201.5,108.0,193.0,108.0,185.5,108.5,177.5,108.5,170.0,109.0,162.0,109.5,154.0,110.0,146.5,110.0,139.0,110.0,131.5,110.5,123.5,111.5,115.0,111.5" stroke="black" stroke-width="2" fill="none" />
<polyline points="113.5,107.0,122.0,106.5,130.5,106.0,139.0,106.0" stroke="black" stroke-width="2" fill="none" />
<polyline points="138.5,99.5,130.5,107.5,122.5,115.0,114.5,123.0,107.0,130.5,99.0,137.5,91.0,145.0,83.5,152.5" stroke="black" stroke-width="2" fill="none" />
<polyline points="85.5,155.0,93.5,154.5,101.5,154.0,109.0,153.5,116.5,153.5,124.0,153.5,131.5,153.0,139.5,152.5,147.5,152.5,155.5,152.5" stroke="black" stroke-width="2" fill="none" />
<polyline points="147.0,154.5,139.0,162.5" stroke="black" stroke-width="2" fill="none" />
<polyline points="139.5,157.5,131.5,158.5,124.0,159.0,116.0,159.5,108.0,159.5,100.0,160.0,92.5,161.0,84.5,161.5" stroke="black" stroke-width="2" fill="none" />
<polyline points="80.0,163.0,92.5,165.0,104.5,162.0,116.5,165.5,128.5,162.5,137.5,151.5,145.0,153.0,143.0,165.0,138.5,171.5" stroke="black" stroke-width="2" fill="none" />
<polyline points="134.5,166.0,146.5,164.0,152.5,159.5,158.5,152.0,170.5,147.0,184.0,145.5" stroke="black" stroke-width="2" fill="none" />
<polyline points="172.0,144.0,164.5,144.5,156.5,145.0,148.5,145.5" stroke="black" stroke-width="2" fill="none" />
<polyline points="132.0,140.5,123.5,141.0,115.5,141.5,107.5,142.5,99.5,144.0,91.5,145.0,83.5,145.5,75.0,146.0" stroke="black" stroke-width="2" fill="none" />
<polyline points="76.0,146.0,83.5,138.0,92.0,130.5,100.5,123.5,108.5,116.0" stroke="black" stroke-width="2" fill="none" />
<polyline points="107.5,121.5,115.0,121.0,123.0,120.0,131.0,119.0,139.0,118.5,146.5,117.5,155.0,117.0,163.0,116.5,171.0,116.0,179.0,115.5,186.5,115.0,194.5,115.0,203.0,114.0,211.5,113.0,220.0,113.0,228.5,113.0,236.5,112.5,244.5,112.0,252.5,111.5" stroke="black" stroke-width="2" fill="none" />
<polyline points="218.0,68.0,226.0,61.0" stroke="black" stroke-width="2" fill="none" />
<polyline points="220.5,59.5,212.0,67.0" stroke="black" stroke-width="2" fill="none" />
<polyline points="219.5,53.0,227.5,45.5" stroke="black" stroke-width="2" fill="none" />
<polyline points="221.0,37.0,228.5,29.5" stroke="black" stroke-width="2" fill="none" />
<polyline points="231.5,33.5,229.0,45.5" stroke="black" stroke-width="2" fill="none" />
<polyline points="244.0,38.0,252.5,30.5" stroke="black" stroke-width="2" fill="none" />
<polyline points="243.0,27.0,251.0,19.5" stroke="black" stroke-width="2" fill="none" />
<polyline points="250.0,11.0,258.0,3.0" stroke="black" stroke-width="2" fill="none" />
<polyline points="251.5,2.0,243.5,9.5" stroke="black" stroke-width="2" fill="none" />
<polyline points="241.5,6.5,241.5,18.0,249.0,21.0,249.5,33.0,236.0,42.0,237.5,53.5,242.0,61.5,256.5,61.5,261.0,49.5,270.0,43.0" stroke="black" stroke-width="2" fill="none" />
<polyline points="275.5,12.0,284.0,11.5" stroke="black" stroke-width="2" fill="none" />
<polyline points="283.5,5.5,291.5,5.5,300.0,4.5" stroke="black" stroke-width="2" fill="none" />
<polyline points="293.0,12.0,300.0,11.0,307.5,11.0,315.5,11.0" stroke="black" stroke-width="2" fill="none" />
<polyline points="322.5,5.5,331.0,4.5" stroke="black" stroke-width="2" fill="none" />
<polyline points="304.5,18.0,301.5,18.0" stroke="black" stroke-width="2" fill="none" />
<polyline points="237.0,10.0,229.0,17.5" stroke="black" stroke-width="2" fill="none" />
<polyline points="230.0,12.5,238.0,11.5" stroke="black" stroke-width="2" fill="none" />
<polyline points="234.5,4.5,234.5,17.0,243.5,24.5,221.0,32.0,213.5,43.5,225.5,47.0,226.0,54.5,229.5,66.0,222.0,72.0,210.5,82.0,206.0,93.5" stroke="black" stroke-width="2" fill="none" />
<polyline points="179.0,84.0,170.5,91.5,162.0,99.0,153.5,106.5,145.0,114.0,137.5,121.0,129.0,128.5,121.0,136.5,113.5,144.5,105.5,153.0,97.5,161.0" stroke="black" stroke-width="2" fill="none" />
<polyline points="90.5,159.5,98.5,152.0,106.5,144.5,115.0,137.0,123.0,129.5,130.5,122.0,138.0,114.0,146.0,106.0,154.5,98.0,163.0,90.0,171.0,82.0,179.0,74.5" stroke="black" stroke-width="2" fill="none" />
<polyline points="177.5,80.5,169.5,80.5,161.0,80.5" stroke="black" stroke-width="2" fill="none" />
<polyline points="157.5,69.0,149.0,76.5" stroke="black" stroke-width="2" fill="none" />
<polyline points="146.5,82.5,139.0,90.5" stroke="black" stroke-width="2" fill="none" />
<polyline points="131.5,100.0,123.5,107.5,115.5,115.0,107.0,122.5,99.5,130.0,91.5,137.5,83.5,144.5,75.5,151.5,67.0,159.0" stroke="black" stroke-width="2" fill="none" />
<polyline points="68.5,156.5,76.0,156.5" stroke="black" stroke-width="2" fill="none" />
<polyline points="75.0,155.0,83.5,154.5" stroke="black" stroke-width="2" fill="none" />
<polyline points="79.0,153.5,91.0,152.0" stroke="black" stroke-width="2" fill="none" />
<polyline points="74.5,152.0,82.5,151.5,91.5,151.0,99.5,150.0,107.0,149.0,115.0,148.0,123.5,147.0,132.0,146.0,139.5,145.5,147.5,144.5,155.5,143.5,163.5,143.0,172.0,142.5,180.0,142.0,188.0,141.0,195.5,140.5,203.0,140.0,210.5,139.5,218.0,139.5,226.0,139.5,234.5,139.5,242.5,138.5,251.0,137.5,259.5,136.5" stroke="black" stroke-width="2" fill="none" />
<polyline points="258.5,130.5,250.0,130.5,241.5,131.0,233.0,131.0,225.5,131.5,217.5,131.5,210.0,132.0,202.0,132.5,194.0,133.0,186.5,133.0,179.0,133.0,171.5,133.5,163.5,134.5,155.0,134.5,147.0,135.5,139.5,136.5,131.0,137.0,123.0,137.0,115.0,137.5,106.5,138.0,98.5,139.0,90.5,139.5,83.0,140.0,75.5,140.5" stroke="black" stroke-width="2" fill="none" />
<polyline points="69.0,134.5,61.0,135.0" stroke="black" stroke-width="2" fill="none" />
<polyline points="66.0,134.0,67.5,132.0,66.0,144.0,69.0,156.0,72.0,171.0,73.5,190.5,72.0,197.5,61.0,209.5,67.0,221.5,60.5,228.5,66.5,245.0,59.0,261.5,39.5,274.0,45.5,284.5,37.5,297.0,27.0,298.0" stroke="black" stroke-width="2" fill="none" />
<polyline points="44.0,299.5,55.5,289.5" stroke="black" stroke-width="2" fill="none" />
<polyline points="53.0,283.5,45.0,284.0" stroke="black" stroke-width="2" fill="none" />
<polyline points="36.0,276.5,27.5,277.0" stroke="black" stroke-width="2" fill="none" />
<polyline points="22.5,260.0,14.0,260.5" stroke="black" stroke-width="2" fill="none" />
<polyline points="34.0,255.5,46.0,254.0" stroke="black" stroke-width="2" fill="none" />
<polyline points="46.0,251.5,54.0,251.0" stroke="black" stroke-width="2" fill="none" />
<polyline points="43.0,246.0,34.5,246.5" stroke="black" stroke-width="2" fill="none" />
<polyline points="35.5,239.0,43.0,238.5" stroke="black" stroke-width="2" fill="none" />
<polyline points="38.0,234.5,25.5,239.0" stroke="black" stroke-width="2" fill="none" />
<polyline points="14.0,238.0,18.5,224.5,35.0,223.0,45.5,213.0,59.0,217.5" stroke="black" stroke-width="2" fill="none" />
<polyline points="53.5,204.0,46.0,204.0" stroke="black" stroke-width="2" fill="none" />
<polyline points="48.5,201.0,49.5,198.0,40.5,213.0,43.5,201.0,55.5,187.5" stroke="black" stroke-width="2" fill="none" />
<polyline points="51.0,180.5,59.0,172.5" stroke="black" stroke-width="2" fill="none" />
<polyline points="57.5,163.5,49.5,164.0" stroke="black" stroke-width="2" fill="none" />
<polyline points="44.0,173.0,52.0,172.5,60.0,172.0,67.5,171.5" stroke="black" stroke-width="2" fill="none" />
<polyline points="100.0,173.5,108.0,173.0" stroke="black" stroke-width="2" fill="none" />
<polyline points="100.5,178.0,96.0,190.0,93.0,209.5,100.0,217.5" stroke="black" stroke-width="2" fill="none" />
<polyline points="92.5,235.0,84.5,235.5" stroke="black" stroke-width="2" fill="none" />
<polyline points="75.5,247.5,79.0,259.5" stroke="black" stroke-width="2" fill="none" />
<polyline points="102.0,290.0,94.5,295.0" stroke="black" stroke-width="2" fill="none" />
<polyline points="76.0,316.5,68.0,317.5" stroke="black" stroke-width="2" fill="none" />
<polyline points="82.5,323.5,75.5,324.0,67.5,325.0,59.5,326.5,51.0,327.0" stroke="black" stroke-width="2" fill="none" />
<polyline points="42.5,332.5,50.5,332.5,58.5,332.0,67.0,331.5,75.0,331.5,83.0,331.5" stroke="black" stroke-width="2" fill="none" />
<polyline points="146.5,306.0,154.5,298.5,162.5,291.0,170.5,282.5,178.0,275.0" stroke="black" stroke-width="2" fill="none" />
<polyline points="179.5,268.5,171.5,276.0,163.5,283.5,155.5,291.0,147.5,298.0" stroke="black" stroke-width="2" fill="none" />
<polyline points="148.0,296.5,156.0,296.0,164.0,295.0,171.5,295.0,179.5,295.0" stroke="black" stroke-width="2" fill="none" />
<polyline points="180.5,292.5,173.0,299.5,165.0,307.0" stroke="black" stroke-width="2" fill="none" />
<polyline points="156.5,307.0,164.5,299.5,172.5,292.0,181.0,284.5" stroke="black" stroke-width="2" fill="none" />
<polyline points="169.5,268.0,161.0,276.0,153.0,283.5,146.0,291.0" stroke="black" stroke-width="2" fill="none" />
<polyline points="147.5,289.5,155.5,289.0,163.5,288.5,172.0,287.5,179.5,286.0" stroke="black" stroke-width="2" fill="none" />
<polyline points="165.0,268.5,157.5,275.5,149.5,283.5" stroke="black" stroke-width="2" fill="none" />
<polyline points="146.5,284.0,154.5,284.0,163.0,283.0,171.5,282.0,180.0,282.0" stroke="black" stroke-width="2" fill="none" />
<polyline points="178.0,271.5,170.0,272.5,162.0,272.5,154.0,273.0" stroke="black" stroke-width="2" fill="none" />
<polyline points="155.5,269.5,147.5,276.5" stroke="black" stroke-width="2" fill="none" />
<polyline points="149.0,278.0,156.5,277.5,164.5,276.5,172.0,275.0,180.0,274.0" stroke="black" stroke-width="2" fill="none" />
<polyline points="180.0,278.5,171.0,278.5,163.0,278.5,155.0,278.5,147.0,279.0" stroke="black" stroke-width="2" fill="none" />
<polyline points="150.0,271.0,157.5,270.0,165.0,269.5,172.5,268.5,180.5,267.5" stroke="black" stroke-width="2" fill="none" />
<polyline points="174.5,267.0,162.5,264.5,150.5,269.0,138.5,287.0" stroke="black" stroke-width="2" fill="none" />
<polyline points="140.5,292.5,148.5,292.0,156.5,292.0,164.5,291.5,172.0,291.5,180.0,290.5,188.0,290.0" stroke="black" stroke-width="2" fill="none" />
<polyline points="171.5,304.5,163.5,305.0,155.5,305.5,147.5,306.0" stroke="black" stroke-width="2" fill="none" />
<polyline points="149.0,300.0,157.0,299.5,165.0,299.5,173.0,299.0" stroke="black" stroke-width="2" fill="none" />
<polyline points="167.5,303.5,175.0,291.5,176.5,279.5,166.0,267.5" stroke="black" stroke-width="2" fill="none" />
<polyline points="155.0,264.0,143.5,275.5,137.5,287.5,139.0,299.5,147.0,311.5,154.5,307.0,166.5,301.0,182.0,293.5" stroke="black" stroke-width="2" fill="none" />
<polyline points="135.5,267.0,134.0,268.5" stroke="black" stroke-width="2" fill="none" />
<polyline points="44.0,214.5,36.0,215.0" stroke="black" stroke-width="2" fill="none" />
<polyline points="26.5,221.5,18.5,222.0" stroke="black" stroke-width="2" fill="none" />
<polyline points="10.5,216.0,22.5,204.0,26.5,187.5" stroke="black" stroke-width="2" fill="none" />
<polyline points="36.5,187.0,24.5,198.0" stroke="black" stroke-width="2" fill="none" />
<polyline points="21.0,207.0,33.0,208.0,45.5,188.0" stroke="black" stroke-width="2" fill="none" />
<polyline points="58.0,168.0,52.0,151.5,40.0,136.5" stroke="black" stroke-width="2" fill="none" />
<polyline points="37.0,143.0,45.0,142.5" stroke="black" stroke-width="2" fill="none" />
<polyline points="51.5,141.0,60.0,140.5,67.5,140.0" stroke="black" stroke-width="2" fill="none" />
<polyline points="67.5,130.5,75.5,130.0,83.5,129.5,91.5,129.0,100.0,128.5,108.0,128.0,115.5,127.0,123.5,126.0,131.5,125.5,139.5,125.0,147.5,124.5,155.0,124.0,163.0,123.0,171.0,122.0,179.0,121.5" stroke="black" stroke-width="2" fill="none" />
<polyline points="184.0,124.5,188.5,127.5,186.0,139.5,175.5,143.0,162.5,155.0,152.0,161.0,149.0,177.5,137.0,188.0,162.5,200.0,175.5,209.0,172.5,218.0,158.0,223.5,170.0,232.5,182.0,238.0,194.0,235.0" stroke="black" stroke-width="2" fill="none" />
<polyline points="165.5,157.0,158.0,169.5,154.5,180.0,156.0,167.0,170.5,152.0,173.0,165.5,185.0,164.0,192.5,150.5,195.0,138.5" stroke="black" stroke-width="2" fill="none" />
<polyline points="189.5,122.5,201.5,124.0,213.5,127.0" stroke="black" stroke-width="2" fill="none" />
<polyline points="187.5,88.0,179.5,88.5,171.5,89.5,163.0,91.0,154.5,91.5" stroke="black" stroke-width="2" fill="none" />
<polyline points="150.0,68.5,157.5,61.0" stroke="black" stroke-width="2" fill="none" />
<polyline points="162.5,65.5,170.5,64.5" stroke="black" stroke-width="2" fill="none" />
<polyline points="171.5,61.0,163.5,68.0" stroke="black" stroke-width="2" fill="none" />
<polyline points="181.5,60.0,189.0,70.5,185.0,82.0,183.5,89.5,194.0,98.5,194.0,106.0,196.0,101.5" stroke="black" stroke-width="2" fill="none" />
<polyline points="180.0,52.0,188.0,44.0" stroke="black" stroke-width="2" fill="none" />
<polyline points="188.0,35.5,195.5,28.0" stroke="black" stroke-width="2" fill="none" />
<polyline points="196.5,25.0,188.0,25.5" stroke="black" stroke-width="2" fill="none" />
<polyline points="188.5,13.5,180.5,21.0,173.0,27.5" stroke="black" stroke-width="2" fill="none" />
<polyline points="171.0,25.0,169.5,37.0,157.5,38.5,159.0,46.0,151.5,53.0,127.5,57.5,131.5,53.5,141.0,39.0,148.5,42.0,157.0,25.5,160.0,39.0,167.5,40.5,178.0,31.5,190.0,28.0" stroke="black" stroke-width="2" fill="none" />
<polyline points="186.5,33.5,178.0,33.5,170.0,34.0" stroke="black" stroke-width="2" fill="none" />
<polyline points="171.5,33.5,180.0,25.5,188.0,18.0,196.5,11.0,204.5,3.5" stroke="black" stroke-width="2" fill="none" />
<polyline points="204.0,9.5,212.0,2.0" stroke="black" stroke-width="2" fill="none" />
<polyline points="219.0,4.5,211.5,12.0" stroke="black" stroke-width="2" fill="none" />
<polyline points="210.5,9.5,218.5,9.0" stroke="black" stroke-width="2" fill="none" />
<polyline points="220.0,18.5,227.5,11.0,235.0,3.5" stroke="black" stroke-width="2" fill="none" />
<polyline points="228.5,6.0,220.0,13.5,211.5,21.0" stroke="black" stroke-width="2" fill="none" />
<polyline points="204.0,31.5,204.0,26.5,207.0,40.0,200.5,51.5,214.0,57.5,206.5,68.0,197.0,71.5" stroke="black" stroke-width="2" fill="none" />
<polyline points="204.5,45.0,212.5,44.5,220.5,43.5,229.0,43.0,237.0,42.5,244.5,42.0,253.0,41.5" stroke="black" stroke-width="2" fill="none" />
<polyline points="261.5,32.5,253.5,32.5,245.5,33.5,237.5,34.5,229.0,35.5,221.0,36.5,213.0,38.0,205.0,38.5" stroke="black" stroke-width="2" fill="none" />
<polyline points="199.0,35.5,211.0,36.0,226.0,34.5" stroke="black" stroke-width="2" fill="none" />
<polyline points="197.0,16.5,188.5,24.5,180.5,32.0,172.0,39.5" stroke="black" stroke-width="2" fill="none" />
<polyline points="164.5,37.5,156.5,44.5" stroke="black" stroke-width="2" fill="none" />
<polyline points="157.0,28.0,149.0,35.5,141.0,43.0,133.0,50.5" stroke="black" stroke-width="2" fill="none" />
<polyline points="140.0,53.0,132.0,60.0" stroke="black" stroke-width="2" fill="none" />
<polyline points="138.5,65.0,150.5,54.5" stroke="black" stroke-width="2" fill="none" />
<polyline points="146.0,58.0,138.5,65.5" stroke="black" stroke-width="2" fill="none" />
<polyline points="137.0,68.5,146.0,70.0,148.5,82.0,154.5,92.5,158.0,92.5" stroke="black" stroke-width="2" fill="none" />
<polyline points="131.5,97.0,123.5,97.5" stroke="black" stroke-width="2" fill="none" />
<polyline points="109.5,99.0,102.0,106.0" stroke="black" stroke-width="2" fill="none" />
<polyline points="98.0,104.5,106.0,104.0" stroke="black" stroke-width="2" fill="none" />
<polyline points="108.5,92.5,116.5,84.5" stroke="black" stroke-width="2" fill="none" />
<polyline points="121.0,83.0,129.0,75.5" stroke="black" stroke-width="2" fill="none" />
<polyline points="133.0,78.5,145.0,84.5" stroke="black" stroke-width="2" fill="none" />
<polyline points="116.5,75.5,108.5,82.5" stroke="black" stroke-width="2" fill="none" />
<polyline points="107.5,81.0,115.0,80.5" stroke="black" stroke-width="2" fill="none" />
<polyline points="98.5,83.0,106.5,82.5,114.5,82.5,123.0,82.0,131.0,82.0,139.0,81.5,147.0,81.0,155.5,81.0,163.5,80.5,172.0,80.0,180.5,79.5,188.5,79.0,196.5,79.0" stroke="black" stroke-width="2" fill="none" />
<polyline points="177.5,26.0,169.5,26.5" stroke="black" stroke-width="2" fill="none" />
<polyline points="173.5,22.5,185.5,18.0,190.0,39.0,195.5,52.5,192.5,63.5,179.0,78.5,188.0,74.0,200.5,81.5,206.5,87.0,218.5,82.5,218.5,67.5,221.5,72.0" stroke="black" stroke-width="2" fill="none" />
<polyline points="204.5,10.0,196.5,10.5" stroke="black" stroke-width="2" fill="none" />
<polyline points="197.0,4.5,186.5,16.5,187.5,22.5,177.0,34.5,176.0,43.5,161.0,55.5,170.0,66.0,170.5,66.0,175.5,67.5,189.0,70.0,198.5,61.0" stroke="black" stroke-width="2" fill="none" />
<polyline points="172.5,19.5,180.5,12.0,188.5,4.5" stroke="black" stroke-width="2" fill="none" />
<polyline points="178.0,4.0,170.0,11.5" stroke="black" stroke-width="2" fill="none" />
<polyline points="164.0,12.5,172.0,5.0" stroke="black" stroke-width="2" fill="none" />
<polyline points="166.5,4.5,159.0,16.5,142.5,24.0,132.0,36.0,126.5,48.5,119.0,54.0,111.5,63.0,127.0,71.0,119.5,83.0,113.5,89.0,119.5,77.0,124.0,92.0,137.5,93.0,152.0,76.5,162.5,64.5,165.5,56.0,168.5,48.0,174.5,45.0,186.5,37.5,195.5,52.5,202.0,67.5,211.0,61.5,218.5,46.5,226.0,46.0,229.0,50.5,239.5,47.5,242.5,37.0,248.5,40.0,258.5,42.0,269.0,34.5,280.5,42.0,285.5,51.0,287.0,37.5,295.5,40.5,301.0,44.0,314.0,35.5,326.0,31.0,327.5,14.5,335.0,17.5,348.5,10.0,356.0,18.5,360.5,23.5,376.0,8.5,383.5,19.0,393.0,30.0,396.0,20.0,413.0,10.5,426.5,10.5,437.0,14.5,459.5,10.0,473.0,27.5,480.5,15.5,481.5,18.5,494.0,9.5,497.0,13.5,509.5,13.5" stroke="black" stroke-width="2" fill="none" />
<polyline points="504.5,3.5,492.5,3.5,481.0,3.5,469.0,3.5,457.0,3.0,445.0,3.5,433.5,3.5,421.5,3.0,409.5,3.0,398.0,2.5,386.0,2.5,374.0,2.5,361.5,3.0,349.0,3.0,336.5,2.5,324.0,3.0,312.0,3.0,299.5,3.5,287.5,3.5,275.5,3.5,263.0,3.0,251.5,3.0,239.5,3.5,228.0,3.5,216.5,3.0,205.0,3.5,187.0,12.0,176.5,10.5,164.5,15.0,152.5,18.0,140.5,25.0,140.5,32.5,130.0,43.5,118.0,56.0,109.5,56.0,99.0,64.0,88.0,67.0,79.0,51.5,84.5,46.0,74.0,45.0,62.0,51.0" stroke="black" stroke-width="2" fill="none" />
<polyline points="65.5,53.0,76.0,62.0,66.0,66.5" stroke="black" stroke-width="2" fill="none" />
<polyline points="59.0,70.0,51.0,77.0" stroke="black" stroke-width="2" fill="none" />
<polyline points="52.0,85.0,44.5,86.0" stroke="black" stroke-width="2" fill="none" />
<polyline points="45.0,94.0,53.0,93.5" stroke="black" stroke-width="2" fill="none" />
<polyline points="59.0,95.0,67.5,94.5" stroke="black" stroke-width="2" fill="none" />
<polyline points="68.0,90.5,76.0,83.0" stroke="black" stroke-width="2" fill="none" />
<polyline points="74.5,76.0,82.5,69.0" stroke="black" stroke-width="2" fill="none" />
<polyline points="90.5,51.5,98.5,43.5" stroke="black" stroke-width="2" fill="none" />
<polyline points="90.5,44.0,83.0,51.5" stroke="black" stroke-width="2" fill="none" />
<polyline points="75.5,52.0,83.5,44.5,92.0,37.0" stroke="black" stroke-width="2" fill="none" />
<polyline points="91.5,34.5,98.5,25.5,95.5,30.5,83.5,34.0,97.0,44.5,102.5,59.5,92.0,65.5,96.5,66.5,98.0,78.5,102.5,89.0,105.5,96.5,95.5,102.5,95.5,116.0,92.5,116.0" stroke="black" stroke-width="2" fill="none" />
<polyline points="91.5,120.0,83.0,120.5,74.5,122.0,66.5,123.0" stroke="black" stroke-width="2" fill="none" />
<polyline points="66.5,117.0,74.0,116.5,82.0,116.0,90.0,115.5,98.0,115.5,106.5,115.5,114.5,114.5,122.5,114.0,131.0,113.5,139.5,113.5,147.5,113.0,155.0,112.5,162.5,112.0,170.5,111.5,179.0,111.0,187.5,110.5,195.0,109.5,203.5,109.5,212.0,109.0,220.5,109.0,229.0,108.0,236.5,107.5,244.5,106.5,252.0,105.0,260.0,104.0,268.0,103.5,276.0,103.5,284.5,103.5,292.5,103.0" stroke="black" stroke-width="2" fill="none" />
<polyline points="186.5,11.0,178.5,12.0" stroke="black" stroke-width="2" fill="none" />
<polyline points="163.5,5.5,156.0,12.5,148.0,19.0" stroke="black" stroke-width="2" fill="none" />
<polyline points="150.0,17.0,157.5,16.5" stroke="black" stroke-width="2" fill="none" />
<polyline points="130.0,10.5,122.0,18.0,114.5,25.5" stroke="black" stroke-width="2" fill="none" />
<polyline points="114.0,18.5,106.5,26.0" stroke="black" stroke-width="2" fill="none" />
<polyline points="109.0,21.0,129.0,22.5,138.0,36.0,136.5,48.0,129.0,67.5,129.5,81.0,135.5,84.0,130.5,94.5" stroke="black" stroke-width="2" fill="none" />
<polyline points="92.5,85.5,84.0,93.5" stroke="black" stroke-width="2" fill="none" />
<polyline points="76.0,92.5,84.0,92.0,92.0,91.5,100.5,91.0,108.5,90.0,116.5,90.0,124.0,89.5,131.5,90.0,139.5,90.5,147.0,90.0,155.0,90.0,163.0,89.0,171.0,88.5,179.0,87.5,187.5,87.0,195.5,86.5,204.0,86.0,212.0,85.0,220.5,84.5,228.0,84.0,235.5,84.0,243.5,83.5,251.5,83.0,259.5,82.5,268.0,81.5" stroke="black" stroke-width="2" fill="none" />
<polyline points="130.5,26.5,122.5,34.0" stroke="black" stroke-width="2" fill="none" />
<polyline points="116.5,41.0,108.0,49.0,100.0,57.0" stroke="black" stroke-width="2" fill="none" />
<polyline points="105.5,37.5,118.0,39.0,127.0,30.0,133.0,15.0" stroke="black" stroke-width="2" fill="none" />
<polyline points="133.0,17.5,125.0,18.5" stroke="black" stroke-width="2" fill="none" />
<polyline points="124.0,4.5,116.0,12.0,108.0,19.5" stroke="black" stroke-width="2" fill="none" />
<polyline points="108.5,16.5,116.5,15.5,124.0,15.0,132.0,14.0,140.0,13.0,148.0,12.5,156.0,12.0,164.5,11.5,172.5,11.0,180.5,10.5,188.5,9.5,196.0,9.0,203.5,8.0,211.0,7.5,219.0,7.0,227.0,6.0,235.5,5.5,243.5,4.5,252.0,3.5" stroke="black" stroke-width="2" fill="none" />
<polyline points="108.5,1.0,100.5,8.0,92.5,16.0" stroke="black" stroke-width="2" fill="none" />
<polyline points="94.0,16.0,83.5,28.5,71.5,36.0,66.0,33.5,59.0,35.0,53.5,35.0,37.0,44.5,34.0,52.5,24.0,60.5,22.5,68.0,10.5,67.5" stroke="black" stroke-width="2" fill="none" />
<polyline points="8.5,72.0,17.0,71.0,25.5,70.0" stroke="black" stroke-width="2" fill="none" />
<polyline points="27.0,67.5,18.5,75.0" stroke="black" stroke-width="2" fill="none" />
<polyline points="20.0,66.0,27.5,58.0,35.5,50.5" stroke="black" stroke-width="2" fill="none" />
<polyline points="43.5,51.5,52.0,44.0" stroke="black" stroke-width="2" fill="none" />
<polyline points="50.0,53.5,58.0,53.0,66.0,52.0,74.0,51.5,82.5,51.5,90.5,51.0,99.5,51.0,108.0,51.0,116.5,51.0,125.0,51.0,133.5,50.5,141.0,50.0,149.5,49.0,157.0,48.5,165.0,47.5,172.5,47.5,180.5,46.5,188.0,45.5,196.0,45.0,203.5,44.0,211.5,43.5,219.5,43.0,227.5,43.0,235.0,43.0,243.0,42.5,250.5,42.0" stroke="black" stroke-width="2" fill="none" />
<polyline points="196.5,32.5,189.0,33.0,180.5,34.0,172.0,34.0,163.5,34.5,155.0,34.5,147.5,35.5,139.0,36.0,130.5,36.5,122.5,37.0,115.0,37.5,107.5,38.0" stroke="black" stroke-width="2" fill="none" />
<polyline points="108.0,31.5,116.0,31.0,124.0,30.0,132.0,29.5,140.0,29.0,148.0,28.5,156.5,28.0,165.0,27.0,173.5,26.5,182.0,26.0,190.0,26.0,197.5,25.0,205.0,24.5,212.5,23.5,220.5,22.5,228.0,21.5,236.0,21.0,244.0,21.0,252.5,20.5" stroke="black" stroke-width="2" fill="none" />
<polyline points="106.0,7.5,98.0,8.0" stroke="black" stroke-width="2" fill="none" />
<polyline points="100.0,7.0,92.0,7.5,84.0,8.0,76.5,9.0,68.5,9.5,60.0,10.0,51.5,10.0,43.0,10.0,35.0,11.0,27.0,11.0,18.5,11.5,10.5,12.0,2.5,12.5" stroke="black" stroke-width="2" fill="none" />
<polyline points="3.0,6.0,11.0,5.0,19.0,4.5,27.5,4.0,36.0,4.5,44.5,4.0,52.5,3.5,60.0,3.0,68.0,2.5,76.0,2.5,84.0,2.5,92.0,1.5,100.5,0.0,109.0,-0.5,117.5,-1.5,125.5,-2.5,133.5,-3.0,141.5,-3.5,149.5,-4.5,157.5,-5.5,165.5,-6.0,173.0,-6.5,180.5,-6.5,188.0,-7.0,196.0,-7.5,203.5,-7.5,211.0,-7.0,219.0,-7.0,226.5,-7.0,234.0,-7.5,241.5,-8.0,250.0,-8.5,258.5,-9.0,267.0,-9.0" stroke="black" stroke-width="2" fill="none" />
<polyline points="252.0,63.5,243.5,64.0,235.5,64.0,227.0,64.0,218.5,64.5,210.0,65.5,202.0,66.0,194.0,67.0,186.0,67.5,178.5,68.5,171.0,69.5,164.0,70.5,155.5,71.5,147.5,71.5,139.5,72.0,132.0,71.5,124.5,71.5,116.5,72.5,108.5,74.0,100.5,74.5,92.5,74.5,84.5,74.5,76.0,75.0,67.5,75.0,59.0,75.0,51.0,75.5,43.0,75.5" stroke="black" stroke-width="2" fill="none" />
<polyline points="45.0,68.0,40.5,80.5,46.5,91.0,45.0,103.0,39.0,109.0,42.0,121.5,31.5,127.5,21.5,139.5,20.0,151.5,37.0,156.0,17.5,169.5,20.5,181.5,19.0,199.5,28.0,205.0,17.5,209.5,22.0,209.0,23.5,221.0,19.0,232.5,11.5,238.5,8.5,262.5,13.0,270.5,8.5,288.5,11.0,300.5,7.5,303.0,11.0,304.5,15.5,315.0,32.5,301.5,34.0,305.0,43.5,288.5" stroke="black" stroke-width="2" fill="none" />
<polyline points="10.0,284.0,2.0,284.0" stroke="black" stroke-width="2" fill="none" />
<polyline points="5.0,282.0,17.0,274.5,27.5,285.5,41.5,285.0" stroke="black" stroke-width="2" fill="none" />
<polyline points="32.0,175.0,29.0,162.5" stroke="black" stroke-width="2" fill="none" />
<polyline points="28.0,149.5,36.0,149.0" stroke="black" stroke-width="2" fill="none" />
<polyline points="19.5,139.5,31.0,126.0,31.0,119.0,31.0,119.0,40.5,122.0" stroke="black" stroke-width="2" fill="none" />
<polyline points="44.0,119.5,52.0,118.5" stroke="black" stroke-width="2" fill="none" />
<polyline points="51.0,108.0,52.5,120.0,42.0,132.5,42.0,143.0,36.0,144.0,42.0,158.5,40.5,172.0,39.0,184.0,31.0,195.5,47.5,212.5,49.0,224.5,41.5,236.5,43.0,248.5,59.0,256.0,66.5,257.5,67.5,269.5,74.0,271.0,72.5,277.5,69.5,267.0,71.5,283.5,74.5,279.5,83.5,276.0" stroke="black" stroke-width="2" fill="none" />
<polyline points="6.5,159.0,11.0,154.5,23.0,151.5,29.0,160.5,29.0,145.0,36.5,133.0,47.0,128.5" stroke="black" stroke-width="2" fill="none" />
<polyline points="44.0,127.0,36.0,127.5" stroke="black" stroke-width="2" fill="none" />
<polyline points="20.0,134.0,12.0,135.0" stroke="black" stroke-width="2" fill="none" />
<polyline points="12.0,116.5,4.0,117.0" stroke="black" stroke-width="2" fill="none" />
<polyline points="2.5,109.0,10.5,108.5" stroke="black" stroke-width="2" fill="none" />
<polyline points="4.0,94.5,20.5,100.5,14.5,112.5,10.0,115.0,16.5,104.5,25.5,103.0,26.0,105.5,33.5,95.0,44.5,101.0,64.0,99.0,63.0,85.5" stroke="black" stroke-width="2" fill="none" />
<polyline points="58.0,86.5,66.0,86.5,74.0,85.5,82.0,85.0,90.5,84.0" stroke="black" stroke-width="2" fill="none" />
<polyline points="84.0,102.0,92.5,101.0,100.5,100.0,108.5,99.5" stroke="black" stroke-width="2" fill="none" />
<polyline points="107.0,108.0,99.0,108.5,91.5,108.5,84.0,109.0,76.5,109.5,68.5,110.0" stroke="black" stroke-width="2" fill="none" />
<polyline points="61.5,108.0,69.5,100.5" stroke="black" stroke-width="2" fill="none" />
<polyline points="68.5,98.5,81.0,86.0" stroke="black" stroke-width="2" fill="none" />
<polyline points="67.0,102.5,59.0,103.0" stroke="black" stroke-width="2" fill="none" />
<polyline points="52.5,101.5,45.0,102.0" stroke="black" stroke-width="2" fill="none" />
<polyline points="53.0,85.0,65.0,76.0,86.0,74.5,98.0,75.5,113.0,70.5,125.0,62.5,137.0,61.0,151.0,56.5" stroke="black" stroke-width="2" fill="none" />
<polyline points="196.0,34.0,187.5,34.0,179.5,35.0,171.5,36.0,163.5,37.0,155.5,38.0,147.5,39.0,139.5,39.5,131.5,40.5,123.0,41.0,115.0,41.5,107.0,42.0,99.5,42.0,91.0,42.5,83.0,42.5,75.5,42.5,67.5,43.0,59.5,43.5,51.5,43.5,43.5,43.5,35.0,43.5,26.5,43.5" stroke="black" stroke-width="2" fill="none" />
<polyline points="26.5,39.0,32.5,47.0" stroke="black" stroke-width="2" fill="none" />
<polyline points="35.5,35.5,43.5,35.0,52.0,35.0,60.0,35.0,68.0,35.5,76.0,35.5,83.5,35.5,91.5,35.0,99.5,35.0" stroke="black" stroke-width="2" fill="none" />
<polyline points="101.0,33.0,89.0,21.0,78.5,25.5,75.5,40.5,71.0,52.5,80.0,54.0,80.5,59.5,85.5,68.5,76.5,77.5,68.0,92.5,57.5,95.5,59.0,112.0,63.0,116.5,60.0,104.5,72.0,108.5,83.5,108.5,94.5,95.0,99.0,99.0,112.5,106.0" stroke="black" stroke-width="2" fill="none" />
<polyline points="100.5,126.0,84.5,114.0" stroke="black" stroke-width="2" fill="none" />
<polyline points="34.5,70.5,43.0,70.0,50.5,70.0,58.5,69.0,67.5,68.5,76.5,68.0,84.5,67.0,93.0,67.0,101.0,66.5,109.0,66.0,117.5,65.5,126.0,65.0,134.0,64.5,142.0,64.0,149.5,63.5,157.0,63.5,165.0,63.5,173.0,63.5,181.0,63.0,188.5,62.5,196.0,62.0,204.0,61.0,212.5,60.5,220.5,60.0,228.0,59.5,236.5,59.5,244.5,58.0,252.5,57.0,260.5,56.0,268.0,55.0" stroke="black" stroke-width="2" fill="none" />
<polyline points="258.5,45.0,250.5,45.0,242.5,46.0,234.5,46.5,227.0,46.5,219.5,47.0,212.0,47.5,204.0,48.5,196.0,48.5,188.5,49.0,180.5,49.5,172.0,50.0,163.5,50.5,155.5,51.5,148.0,52.5,139.5,54.0,131.5,55.5,123.0,56.5,114.5,57.5,106.0,58.0,98.0,58.5,90.5,58.5,83.0,59.0,75.0,59.0,67.0,59.5,58.5,60.0,51.0,60.5,42.5,61.0,34.0,62.0,26.0,63.0,17.5,63.5" stroke="black" stroke-width="2" fill="none" />
<polyline points="20.5,53.5,28.5,53.0,37.0,52.5,45.0,52.5" stroke="black" stroke-width="2" fill="none" />
<polyline points="41.0,59.0,33.0,66.5" stroke="black" stroke-width="2" fill="none" />
<polyline points="35.0,65.5,42.5,65.5" stroke="black" stroke-width="2" fill="none" />
<polyline points="18.5,45.0,10.0,45.0" stroke="black" stroke-width="2" fill="none" />
<polyline points="11.5,43.5,19.5,36.0" stroke="black" stroke-width="2" fill="none" />
<polyline points="20.5,41.5,32.5,34.0,40.0,23.5,26.0,32.5,41.0,43.0,42.0,55.0,35.0,65.5,26.0,81.0,33.5,70.5,44.5,78.0,62.5,74.0" stroke="black" stroke-width="2" fill="none" />
<polyline points="79.5,41.5,91.5,40.0,95.5,50.5" stroke="black" stroke-width="2" fill="none" />
<polyline points="84.5,18.5,92.0,10.5,100.0,3.0" stroke="black" stroke-width="2" fill="none" />
<polyline points="93.5,9.0,86.0,17.0,75.5,17.5,65.0,16.0,57.5,10.0,50.5,22.0,29.0,21.0,18.5,9.5,11.0,32.5" stroke="black" stroke-width="2" fill="none" />
<polyline points="3.0,29.0,11.0,28.5,19.0,28.5,27.0,27.5,35.5,27.0,43.5,26.5,52.0,26.0" stroke="black" stroke-width="2" fill="none" />
<polyline points="59.5,26.0,66.5,18.0,74.0,10.5" stroke="black" stroke-width="2" fill="none" />
<polyline points="68.0,13.0,60.5,20.5,52.5,27.5" stroke="black" stroke-width="2" fill="none" />
<polyline points="58.0,31.5,66.0,31.0,74.5,30.5,83.0,29.5,91.5,28.5,99.5,27.0" stroke="black" stroke-width="2" fill="none" />
<polyline points="93.5,10.5,88.0,10.5,74.0,14.5,68.0,21.0,66.0,36.0,70.5,37.5,67.5,47.0,54.0,54.5,39.0,67.0,39.0,79.0,25.5,89.0,30.0,100.0,24.0,112.0,19.0,123.5,7.0,135.0,11.5,146.5,8.0,160.5,9.0,174.5,10.0,183.5,10.5,181.0,22.5,176.5,34.5,176.5,41.5,160.0,50.5,164.0,35.5,162.5,48.0,168.5,57.0,180.5,60.5,192.5,58.0,203.0,70.5,194.0,82.5,186.5,94.5,180.5,97.5,193.0,109.0,181.5,124.0,168.0,125.0,180.0,137.0,177.0,147.5,185.0,159.0,189.0,169.5,191.5,181.0,191.5,188.5,196.5,196.0,181.5,214.0,172.5,221.5,197.0,233.5,198.5,245.5,197.0" stroke="black" stroke-width="2" fill="none" />
<polyline points="66.0,27.0,73.5,20.0,82.0,12.5,89.5,5.0" stroke="black" stroke-width="2" fill="none" />
<polyline points="60.0,12.0,52.0,19.5,44.0,27.0" stroke="black" stroke-width="2" fill="none" />
<polyline points="47.5,33.0,59.5,24.0,74.5,24.0" stroke="black" stroke-width="2" fill="none" />
<polyline points="59.0,15.5,51.0,16.5" stroke="black" stroke-width="2" fill="none" />
<polyline points="50.0,4.5,42.5,11.5,34.5,19.5" stroke="black" stroke-width="2" fill="none" />
<polyline points="27.0,13.0,34.5,5.0" stroke="black" stroke-width="2" fill="none" />
<polyline points="34.5,7.5,27.0,8.0" stroke="black" stroke-width="2" fill="none" />
<polyline points="18.5,5.0,11.0,12.0" stroke="black" stroke-width="2" fill="none" />
<polyline points="3.0,20.5,11.5,20.0,19.0,19.5,27.0,19.0,35.0,18.5,43.0,18.0,51.5,17.5,60.5,17.0,69.0,16.5,77.5,15.5,86.0,15.0,93.5,15.0,101.0,14.5,108.5,14.5,116.0,14.5,123.5,13.5,131.5,13.5,139.0,13.0,147.0,12.5,155.0,11.5,163.5,10.5,171.0,10.0,178.5,9.5,186.5,9.0,194.5,8.0,203.0,7.5,211.0,7.0,219.0,7.0,227.5,6.5,235.0,5.5,243.0,4.5,251.5,4.5,259.5,3.5" stroke="black" stroke-width="2" fill="none" />
<polyline points="323.5,11.0,319.0,26.0,311.5,36.5,299.5,30.0,290.5,18.0,280.0,17.5,275.5,28.0,263.0,25.0,252.0,15.5,237.0,18.0,223.5,20.5,220.5,11.5,214.5,32.5,207.0,19.0,195.0,2.5,183.5,2.5,171.5,5.5,170.5,2.5,158.5,2.5,145.0,2.5,133.0,2.5,121.0,5.5,110.5,2.5,98.0,2.0,86.0,2.5,74.5,3.0,62.0,3.5,50.0,4.0,37.5,4.5,25.5,4.5,13.0,4.5,1.5,5.0" stroke="black" stroke-width="2" fill="none" />
<polyline points="3.0,37.5,11.5,37.0,19.5,36.5,27.5,36.0" stroke="black" stroke-width="2" fill="none" />
<polyline points="40.0,8.5,26.5,21.0,19.5,22.5,11.0,34.5,8.0,46.5,15.5,58.0,27.5,55.5,18.5,67.5,15.5,77.0" stroke="black" stroke-width="2" fill="none" />
<polyline points="12.5,75.5,5.0,76.0" stroke="black" stroke-width="2" fill="none" />
<polyline points="425.0,11.0,417.5,23.0,412.0,31.5,403.0,43.0,411.0,53.0,417.5,64.5,415.5,78.0,409.5,85.0,400.0,100.5,410.5,85.5,417.5,78.0,425.0,67.5,437.5,57.0,439.0,62.5,451.5,58.0,464.0,66.0,473.0,64.0,474.0,66.5,491.0,65.0,492.5,48.5,501.5,59.0" stroke="black" stroke-width="2" fill="none" />
</svg>