<svg xmlns="http://www.w3.org/2000/svg" version="1.1"><polyline points="256.5,6.0,256.5,18.0,256.0,29.5,256.0,41.0,256.0,53.0,256.0,64.5,256.0,76.5,256.5,88.5,256.5,100.0,256.5,115.0,231.0,127.0,220.5,139.0,216.0,151.0,225.5,131.5,237.5,124.5,249.5,120.0,264.5,112.5,277.0,115.5,289.0,124.0,300.0,140.5" stroke="black" stroke-width="2" fill="none" />
<polyline points="297.5,139.0,289.5,147.0" stroke="black" stroke-width="2" fill="none" />
<polyline points="290.5,141.0,298.5,141.0" stroke="black" stroke-width="2" fill="none" />
<polyline points="300.0,138.0,292.0,138.5" stroke="black" stroke-width="2" fill="none" />
<polyline points="291.5,138.5,299.5,131.0" stroke="black" stroke-width="2" fill="none" />
<polyline points="300.5,133.0,292.0,133.5" stroke="black" stroke-width="2" fill="none" />
<polyline points="293.0,128.0,285.0,128.0" stroke="black" stroke-width="2" fill="none" />
<polyline points="283.5,129.5,291.5,121.5" stroke="black" stroke-width="2" fill="none" />
<polyline points="283.0,116.0,275.0,123.5" stroke="black" stroke-width="2" fill="none" />
<polyline points="275.5,124.0,283.5,123.5,291.5,123.5" stroke="black" stroke-width="2" fill="none" />
<polyline points="285.0,121.5,277.0,122.5" stroke="black" stroke-width="2" fill="none" />
<polyline points="285.0,114.5,276.5,115.0,268.5,115.5,260.5,116.0,252.0,116.5,243.5,117.0,235.0,117.5" stroke="black" stroke-width="2" fill="none" />
<polyline points="236.5,123.0,244.0,123.0,252.0,122.5" stroke="black" stroke-width="2" fill="none" />
<polyline points="251.0,121.5,258.0,114.0" stroke="black" stroke-width="2" fill="none" />
<polyline points="250.0,115.0,242.0,122.5" stroke="black" stroke-width="2" fill="none" />
<polyline points="243.5,115.5,235.5,123.0,227.5,130.5,219.5,138.5" stroke="black" stroke-width="2" fill="none" />
<polyline points="222.0,138.5,229.5,138.5" stroke="black" stroke-width="2" fill="none" />
<polyline points="228.5,138.5,220.0,146.0,212.0,153.5" stroke="black" stroke-width="2" fill="none" />
<polyline points="211.0,155.0,219.0,154.0" stroke="black" stroke-width="2" fill="none" />
<polyline points="218.5,155.5,210.5,163.0" stroke="black" stroke-width="2" fill="none" />
<polyline points="212.0,160.5,220.0,160.5" stroke="black" stroke-width="2" fill="none" />
<polyline points="222.0,165.0,234.0,166.5,246.0,172.5" stroke="black" stroke-width="2" fill="none" />
<polyline points="243.5,174.5,251.0,174.0" stroke="black" stroke-width="2" fill="none" />
<polyline points="241.5,174.5,236.5,168.0,226.0,171.0" stroke="black" stroke-width="2" fill="none" />
<polyline points="227.5,165.5,219.5,166.0" stroke="black" stroke-width="2" fill="none" />
<polyline points="218.0,174.5,210.0,182.0" stroke="black" stroke-width="2" fill="none" />
<polyline points="206.5,182.0,214.5,181.5" stroke="black" stroke-width="2" fill="none" />
<polyline points="213.0,175.5,221.0,175.5" stroke="black" stroke-width="2" fill="none" />
<polyline points="220.5,173.0,213.5,173.5,205.5,174.0" stroke="black" stroke-width="2" fill="none" />
<polyline points="202.5,165.5,211.0,165.0" stroke="black" stroke-width="2" fill="none" />
<polyline points="203.0,156.5,211.5,156.0,219.0,155.5" stroke="black" stroke-width="2" fill="none" />
<polyline points="211.0,150.5,219.0,150.0,227.0,149.5" stroke="black" stroke-width="2" fill="none" />
<polyline points="228.5,142.0,220.5,142.5" stroke="black" stroke-width="2" fill="none" />
<polyline points="212.0,133.0,219.5,132.5,228.0,132.5,236.0,132.5" stroke="black" stroke-width="2" fill="none" />
<polyline points="237.0,127.5,229.5,127.5" stroke="black" stroke-width="2" fill="none" />
<polyline points="227.5,125.5,236.0,125.5,243.5,125.0,251.0,124.5,258.5,123.0" stroke="black" stroke-width="2" fill="none" />
<polyline points="260.0,124.0,273.5,131.5,285.5,143.5,291.5,155.5,290.5,167.5,277.0,176.5,265.0,181.0,265.0,179.5,277.0,170.0,289.0,170.0,299.0,183.5,300.5,195.5" stroke="black" stroke-width="2" fill="none" />
<polyline points="300.0,198.0,308.0,197.0" stroke="black" stroke-width="2" fill="none" />
<polyline points="300.0,203.5,292.0,211.0" stroke="black" stroke-width="2" fill="none" />
<polyline points="290.5,209.5,298.0,209.5" stroke="black" stroke-width="2" fill="none" />
<polyline points="291.5,206.0,299.0,205.0,307.5,205.0" stroke="black" stroke-width="2" fill="none" />
<polyline points="283.5,204.0,276.0,212.0" stroke="black" stroke-width="2" fill="none" />
<polyline points="274.5,203.5,266.5,211.0" stroke="black" stroke-width="2" fill="none" />
<polyline points="266.0,212.5,274.5,211.5" stroke="black" stroke-width="2" fill="none" />
<polyline points="268.0,206.5,263.5,214.0,266.5,226.0,266.5,238.0,267.0,249.5,265.5,261.5,265.5,273.5,267.0,286.0,269.5,298.0,272.5,310.0,271.0,321.5,266.5,333.5,274.0,341.5,286.0,341.0,298.0,341.0,310.5,340.5,322.0,340.5,333.5,340.5,345.5,340.5,357.0,340.5,369.0,340.5,381.0,340.5,393.0,340.5,405.5,341.0,418.0,341.0,430.5,341.0,442.5,341.5" stroke="black" stroke-width="2" fill="none" />
<polyline points="458.5,336.5,467.0,329.5,475.0,322.0,483.0,314.5,491.5,307.0,500.0,300.0,507.5,292.5,515.5,285.0" stroke="black" stroke-width="2" fill="none" />
<polyline points="515.0,292.5,507.0,300.0,499.5,307.5,491.5,315.0,484.0,322.0,476.0,329.0,468.0,337.0" stroke="black" stroke-width="2" fill="none" />
<polyline points="462.0,337.5,469.5,337.0,477.0,337.5,484.5,337.0,492.0,337.0,500.0,336.0,507.5,336.0,516.0,335.5" stroke="black" stroke-width="2" fill="none" />
<polyline points="516.0,330.0,508.0,337.5" stroke="black" stroke-width="2" fill="none" />
<polyline points="501.0,338.0,509.0,330.5,517.0,322.0" stroke="black" stroke-width="2" fill="none" />
<polyline points="517.0,316.5,509.0,324.0,501.0,331.0,492.0,338.0" stroke="black" stroke-width="2" fill="none" />
<polyline points="483.0,338.0,492.0,330.5,500.5,323.5,509.0,316.5,517.5,309.5" stroke="black" stroke-width="2" fill="none" />
<polyline points="517.5,300.5,508.5,308.5,500.0,316.0,492.0,323.5,484.0,331.0,475.5,338.0" stroke="black" stroke-width="2" fill="none" />
<polyline points="473.0,330.0,482.0,329.5,490.0,329.0,498.5,327.5,506.5,326.5,515.5,326.0" stroke="black" stroke-width="2" fill="none" />
<polyline points="515.0,303.0,506.5,304.0,498.5,304.5" stroke="black" stroke-width="2" fill="none" />
<polyline points="491.0,296.5,499.0,295.5,507.5,295.0,516.0,294.5" stroke="black" stroke-width="2" fill="none" />
<polyline points="515.5,288.5,507.5,289.0" stroke="black" stroke-width="2" fill="none" />
<polyline points="516.5,276.0,508.0,284.0,499.5,292.0,491.0,300.0,482.5,307.5,474.0,315.5,466.0,323.0,457.5,330.0,449.5,337.5" stroke="black" stroke-width="2" fill="none" />
<polyline points="444.0,335.5,452.0,328.0,460.0,320.0,467.5,313.0,476.0,305.5,483.5,297.5,491.5,290.0,500.0,282.0,508.5,274.5,516.5,267.5" stroke="black" stroke-width="2" fill="none" />
<polyline points="516.5,258.5,508.5,265.5,500.5,272.5,493.0,280.0,485.0,288.0" stroke="black" stroke-width="2" fill="none" />
<polyline points="485.0,282.0,492.5,274.5,500.0,266.5,507.5,259.0,515.5,251.0" stroke="black" stroke-width="2" fill="none" />
<polyline points="514.0,245.0,506.5,252.5,499.0,260.0" stroke="black" stroke-width="2" fill="none" />
<polyline points="499.0,250.5,506.5,243.0,515.0,236.0" stroke="black" stroke-width="2" fill="none" />
<polyline points="507.0,234.0,514.5,226.5" stroke="black" stroke-width="2" fill="none" />
<polyline points="492.5,269.0,484.5,276.0" stroke="black" stroke-width="2" fill="none" />
<polyline points="476.0,301.0,468.0,308.5" stroke="black" stroke-width="2" fill="none" />
<polyline points="461.5,316.0,453.5,324.0,445.5,331.0" stroke="black" stroke-width="2" fill="none" />
<polyline points="473.0,320.5,481.0,320.0,490.0,320.0,498.5,319.5,506.5,318.5,515.5,318.0" stroke="black" stroke-width="2" fill="none" />
<polyline points="517.0,310.5,509.0,310.0,501.0,310.5,492.5,311.0,484.5,311.5" stroke="black" stroke-width="2" fill="none" />
<polyline points="413.5,332.0,405.5,339.5" stroke="black" stroke-width="2" fill="none" />
<polyline points="373.5,326.0,381.0,325.5,388.0,325.0,395.5,324.0,403.5,322.5,411.5,322.0,419.0,321.5,426.5,320.5,434.5,319.5,442.0,319.0,449.5,318.5,457.5,318.0,466.0,317.5,474.5,317.5,482.5,317.5,490.5,317.0,499.0,316.5,508.0,316.0,516.0,315.0" stroke="black" stroke-width="2" fill="none" />
<polyline points="515.5,232.0,507.0,232.0,499.0,232.5,492.0,233.5,484.5,234.0,476.5,234.5,469.0,235.5,461.0,236.0,453.0,236.5,444.5,237.0" stroke="black" stroke-width="2" fill="none" />
<polyline points="444.5,228.0,453.0,227.5,460.5,227.5,468.5,227.0,477.0,227.0,484.5,226.5,492.5,226.0,500.0,224.5,508.0,223.5,516.5,223.0" stroke="black" stroke-width="2" fill="none" />
<polyline points="516.0,170.5,507.5,171.5,499.0,172.0,490.0,172.0,482.0,172.0,473.5,172.5" stroke="black" stroke-width="2" fill="none" />
<polyline points="474.5,164.5,482.5,164.0,491.0,163.5,499.5,163.0,508.0,162.0,516.5,161.5" stroke="black" stroke-width="2" fill="none" />
<polyline points="516.0,156.0,507.5,156.0,499.0,156.0,491.0,156.5,483.0,157.0" stroke="black" stroke-width="2" fill="none" />
<polyline points="473.5,147.5,481.5,147.0,490.0,146.5,498.5,146.5,506.5,146.5,514.5,146.0" stroke="black" stroke-width="2" fill="none" />
<polyline points="515.5,140.5,507.5,140.5,499.5,140.5,491.0,141.0,483.0,141.5" stroke="black" stroke-width="2" fill="none" />
<polyline points="474.0,132.0,481.5,131.5,490.0,131.5,498.0,131.0,506.5,130.5,515.0,130.5" stroke="black" stroke-width="2" fill="none" />
<polyline points="515.5,116.0,506.5,117.0,498.0,117.5,490.0,118.0,482.0,118.5" stroke="black" stroke-width="2" fill="none" />
<polyline points="482.0,111.5,490.0,111.0,498.0,110.5,506.5,109.5,514.5,108.5" stroke="black" stroke-width="2" fill="none" />
<polyline points="516.0,84.0,507.5,85.5,498.5,86.5,490.0,87.5,482.0,88.0" stroke="black" stroke-width="2" fill="none" />
<polyline points="482.0,79.5,489.5,79.5,498.0,78.5,506.5,78.0,515.5,76.5" stroke="black" stroke-width="2" fill="none" />
<polyline points="515.5,99.5,507.5,99.5,500.5,99.0,493.0,99.0,485.0,99.5,477.0,99.5" stroke="black" stroke-width="2" fill="none" />
<polyline points="466.5,93.5,474.0,93.0,482.0,92.5,490.0,92.5,498.0,92.0,506.5,91.5,514.5,91.0" stroke="black" stroke-width="2" fill="none" />
<polyline points="515.0,122.5,507.0,122.5,499.0,123.0,491.0,123.0,483.5,123.0,475.5,123.5" stroke="black" stroke-width="2" fill="none" />
<polyline points="475.5,69.0,483.0,69.0,490.5,68.5,498.5,68.0,507.0,68.0,514.5,67.5" stroke="black" stroke-width="2" fill="none" />
<polyline points="515.0,58.5,506.5,59.5,498.0,60.5,490.0,61.5,482.0,63.0,474.0,64.0" stroke="black" stroke-width="2" fill="none" />
<polyline points="474.5,55.0,482.5,54.5,490.0,53.0,498.0,52.0,506.0,51.5,513.5,50.5" stroke="black" stroke-width="2" fill="none" />
<polyline points="515.5,44.5,507.5,45.0,499.0,45.5,491.0,45.5,482.5,46.0,474.0,46.0,466.0,46.5" stroke="black" stroke-width="2" fill="none" />
<polyline points="459.5,36.0,467.5,36.0,475.5,35.5,483.5,35.0,491.0,34.5,499.0,34.5,506.5,34.0,515.0,34.0" stroke="black" stroke-width="2" fill="none" />
<polyline points="515.5,28.5,507.5,29.0,500.0,29.0,492.0,29.0,484.5,29.5,476.5,30.5,468.5,30.5" stroke="black" stroke-width="2" fill="none" />
<polyline points="459.5,21.5,467.0,21.0,475.0,21.0,483.0,21.0,490.5,20.5,499.0,20.0,507.0,19.5,515.5,19.5" stroke="black" stroke-width="2" fill="none" />
<polyline points="515.5,2.0,507.5,2.5,500.0,2.5,491.5,3.5,483.5,4.5,475.5,5.5,467.5,6.0,459.0,6.5" stroke="black" stroke-width="2" fill="none" />
<polyline points="453.5,14.0,461.5,13.5,469.5,12.5,477.0,11.5,484.5,11.5,492.5,10.5,500.5,10.0,508.0,9.0,515.5,8.5" stroke="black" stroke-width="2" fill="none" />
<polyline points="514.5,177.0,506.0,177.5,498.0,178.0,489.5,179.0,481.0,180.0,472.5,181.5,464.5,182.0" stroke="black" stroke-width="2" fill="none" />
<polyline points="460.5,187.5,468.5,187.0,476.0,187.0,483.5,187.0,491.5,186.5,499.5,186.5,507.5,186.5,515.0,186.5" stroke="black" stroke-width="2" fill="none" />
<polyline points="516.0,210.5,508.0,211.5,499.0,212.5,491.5,213.0,484.0,213.5,476.0,214.0,468.0,214.0,460.0,215.0" stroke="black" stroke-width="2" fill="none" />
<polyline points="458.0,207.0,466.5,207.0,474.5,206.5,483.0,206.0,491.0,205.0,499.0,204.0,507.5,203.5,516.0,203.0" stroke="black" stroke-width="2" fill="none" />
<polyline points="515.5,195.0,507.0,195.0,499.0,195.0,491.0,195.5,483.5,196.0,476.0,196.0,468.5,196.0,460.5,196.5" stroke="black" stroke-width="2" fill="none" />
<polyline points="443.5,221.0,451.5,220.5,460.0,220.5,468.0,220.0,476.0,220.0,484.0,219.5,492.0,219.0,499.5,217.5,507.5,217.0,515.0,216.5" stroke="black" stroke-width="2" fill="none" />
<polyline points="515.0,248.5,507.0,249.0,498.0,249.5,489.5,250.5,481.5,251.5,473.0,252.0,465.0,252.5,457.5,252.5,449.5,253.0,441.0,253.0,432.5,254.0" stroke="black" stroke-width="2" fill="none" />
<polyline points="427.0,245.0,435.0,244.5,443.5,244.0,451.0,243.5,459.0,243.0,467.0,242.5,474.5,242.5,482.0,242.0,490.0,242.0,497.5,242.0,506.0,241.5,514.0,241.0" stroke="black" stroke-width="2" fill="none" />
<polyline points="514.0,257.5,506.0,258.0,498.0,258.5,490.0,258.5,482.0,258.5,474.0,258.5,466.0,258.5,458.5,258.5,451.0,258.0,444.0,258.0,437.0,258.0,429.5,259.0,422.0,259.5" stroke="black" stroke-width="2" fill="none" />
<polyline points="413.5,275.5,422.0,275.5,430.0,275.0,438.0,274.5,445.5,274.5,453.0,274.0,460.0,274.5,467.0,275.0,474.5,275.5,482.0,275.5,490.0,274.5,497.5,274.5,506.0,273.5,514.5,273.0" stroke="black" stroke-width="2" fill="none" />
<polyline points="515.5,280.5,506.5,281.5,498.0,282.5,490.0,283.0,482.0,283.0,474.5,283.0,467.0,283.0,460.0,283.0,452.5,283.0,444.5,283.5,436.5,283.5,429.0,283.5,421.5,284.0,413.5,284.5" stroke="black" stroke-width="2" fill="none" />
<polyline points="403.0,270.5,411.0,269.5,418.5,268.5,426.5,268.0,435.0,267.5,443.0,267.5,450.5,267.0,458.5,266.5,466.0,266.0,473.5,266.0,481.0,265.0,490.0,264.5,498.0,264.0,506.5,262.5,514.5,261.5" stroke="black" stroke-width="2" fill="none" />
<polyline points="403.0,286.5,395.0,286.5" stroke="black" stroke-width="2" fill="none" />
<polyline points="382.0,293.5,390.0,292.5,397.5,292.0,405.0,291.5,412.5,290.5,420.0,290.5,427.0,289.5,434.5,289.5,442.0,289.0,450.5,288.0,458.5,287.5,466.5,287.0,475.0,286.5,483.5,286.0,492.0,285.0,500.5,284.5,508.5,283.5,516.5,283.5" stroke="black" stroke-width="2" fill="none" />
<polyline points="516.5,293.5,508.0,293.5,499.5,294.5,491.0,295.0,482.0,295.0,474.0,295.0,465.5,295.5,457.5,296.0,450.0,296.5,442.5,297.0,435.5,297.0,428.0,298.0,420.0,299.0,411.5,300.0,403.5,301.0,395.0,301.5,387.5,302.0" stroke="black" stroke-width="2" fill="none" />
<polyline points="372.5,309.5,380.5,309.0,389.0,309.0,397.0,308.5,404.5,307.5,412.5,306.0,419.5,305.5,427.0,305.0,434.5,304.5,441.5,304.0,450.0,303.0,457.5,302.5,466.0,302.5,474.0,302.0,482.5,301.5,491.0,301.5,499.5,301.0,507.5,300.5,516.0,300.0" stroke="black" stroke-width="2" fill="none" />
<polyline points="363.5,325.5,355.5,326.0" stroke="black" stroke-width="2" fill="none" />
<polyline points="356.0,320.0,364.0,319.5,372.0,318.0,380.0,316.5,388.5,315.5,397.0,314.0,405.0,313.5,413.0,312.0,421.0,311.0,429.0,311.0,437.0,310.5,445.0,310.5,453.0,310.0,460.5,310.0,467.5,310.5,475.5,310.5,483.5,310.5,491.5,310.0,500.0,310.0,508.0,310.5,516.0,310.0" stroke="black" stroke-width="2" fill="none" />
<polyline points="515.0,322.5,507.0,323.0,499.0,323.5,491.5,324.0,483.0,324.5,475.0,324.5,467.0,325.0,458.5,325.5,450.5,326.5,443.0,327.0,434.5,327.0,426.5,327.5,419.0,328.0,411.5,328.0,403.5,328.5,395.5,329.0,387.5,329.5,379.5,330.0,371.5,330.5,364.0,331.5,356.5,332.5,349.0,333.0,340.5,333.5,332.5,334.0" stroke="black" stroke-width="2" fill="none" />
<polyline points="258.5,331.0,250.5,338.5" stroke="black" stroke-width="2" fill="none" />
<polyline points="252.0,335.5,260.0,336.0" stroke="black" stroke-width="2" fill="none" />
<polyline points="251.5,330.0,243.5,337.5" stroke="black" stroke-width="2" fill="none" />
<polyline points="235.0,337.0,243.0,329.5,251.0,322.0" stroke="black" stroke-width="2" fill="none" />
<polyline points="242.0,324.0,234.0,331.5,226.0,338.5" stroke="black" stroke-width="2" fill="none" />
<polyline points="218.5,338.0,226.5,330.5" stroke="black" stroke-width="2" fill="none" />
<polyline points="219.0,330.5,210.5,338.0" stroke="black" stroke-width="2" fill="none" />
<polyline points="203.5,337.5,211.5,330.5" stroke="black" stroke-width="2" fill="none" />
<polyline points="211.0,323.0,203.0,330.5,195.5,337.5" stroke="black" stroke-width="2" fill="none" />
<polyline points="201.5,341.0,213.5,338.0,225.5,340.5,237.5,340.5" stroke="black" stroke-width="2" fill="none" />
<polyline points="202.0,323.0,194.0,330.5,186.5,338.0" stroke="black" stroke-width="2" fill="none" />
<polyline points="178.5,337.5,186.5,330.0,194.5,322.0" stroke="black" stroke-width="2" fill="none" />
<polyline points="195.5,314.0,187.5,321.5,180.0,328.5,172.0,336.0" stroke="black" stroke-width="2" fill="none" />
<polyline points="163.0,337.0,171.5,329.5,180.0,322.5,188.5,315.0" stroke="black" stroke-width="2" fill="none" />
<polyline points="178.5,315.5,170.5,323.0,162.0,331.0,154.0,338.5" stroke="black" stroke-width="2" fill="none" />
<polyline points="147.5,338.0,155.0,330.5,163.0,323.0,171.0,315.5,179.0,308.5" stroke="black" stroke-width="2" fill="none" />
<polyline points="171.0,307.0,163.0,314.5,155.0,323.0,146.5,330.5,138.5,338.0" stroke="black" stroke-width="2" fill="none" />
<polyline points="122.0,337.0,130.0,330.0,138.0,322.5,146.0,314.5,154.5,306.5,162.5,299.0" stroke="black" stroke-width="2" fill="none" />
<polyline points="164.0,292.0,156.0,299.5,148.0,308.0,140.5,315.5,132.5,323.0,124.5,330.5,116.5,337.5" stroke="black" stroke-width="2" fill="none" />
<polyline points="132.5,337.5,140.5,330.5,148.5,324.0,156.5,316.5" stroke="black" stroke-width="2" fill="none" />
<polyline points="148.0,299.5,140.0,307.0,132.0,314.5,124.0,322.5,116.0,330.0,108.5,336.5" stroke="black" stroke-width="2" fill="none" />
<polyline points="99.5,336.0,107.5,329.0,115.5,321.5,123.5,314.5,131.5,307.0,139.0,300.5,146.5,293.0" stroke="black" stroke-width="2" fill="none" />
<polyline points="139.0,291.5,131.0,299.0,122.5,306.0,114.0,314.0,106.0,322.0,98.0,329.5,90.0,336.5" stroke="black" stroke-width="2" fill="none" />
<polyline points="74.0,334.0,82.0,327.0,90.0,319.5,98.0,312.0,106.0,304.5,114.0,297.5,122.0,289.5,130.0,281.5,137.5,273.5" stroke="black" stroke-width="2" fill="none" />
<polyline points="130.5,289.0,122.5,297.0,114.0,304.5,106.0,312.5,98.0,320.5,90.0,328.5,82.0,335.5" stroke="black" stroke-width="2" fill="none" />
<polyline points="67.5,335.5,75.5,328.5,83.5,321.0,91.5,313.0,99.0,305.0,107.0,297.5,114.5,290.5,122.5,283.0" stroke="black" stroke-width="2" fill="none" />
<polyline points="117.0,282.0,109.0,290.0,100.5,297.0,92.5,304.5,84.0,313.0,76.5,321.0,68.5,328.5,61.0,336.5" stroke="black" stroke-width="2" fill="none" />
<polyline points="50.5,336.0,59.0,328.0,67.0,320.5,75.0,312.5,83.0,305.0,91.5,298.0,100.0,290.5,108.5,283.0,117.0,275.0" stroke="black" stroke-width="2" fill="none" />
<polyline points="116.5,268.0,108.0,275.0,100.0,282.5,91.5,290.0,83.0,297.0,74.5,304.5,66.5,312.5,58.5,319.5,50.5,326.5,42.0,333.5" stroke="black" stroke-width="2" fill="none" />
<polyline points="34.0,334.5,42.0,327.0,50.5,320.0,59.5,313.0,68.0,306.0,76.0,298.5,83.5,291.5,91.5,284.0,99.5,276.5,107.5,268.5" stroke="black" stroke-width="2" fill="none" />
<polyline points="98.0,267.5,90.0,275.0,82.5,282.5,75.0,290.5,67.5,298.5,59.5,306.0,51.5,313.0,43.5,320.5,35.5,328.0,27.5,335.0" stroke="black" stroke-width="2" fill="none" />
<polyline points="18.5,333.5,27.0,326.0,35.0,319.0,43.5,311.5,51.5,303.5,60.0,296.5,68.5,289.5,76.5,282.0,85.0,275.0,93.0,268.0,101.0,260.5" stroke="black" stroke-width="2" fill="none" />
<polyline points="99.5,250.5,91.5,258.0,83.5,266.0,75.0,274.0,67.0,281.0,59.5,288.5,51.0,296.0,43.0,304.0,34.5,311.5,26.5,319.0,18.5,326.0,11.0,334.0" stroke="black" stroke-width="2" fill="none" />
<polyline points="4.0,333.0,12.5,325.5,20.5,318.0,28.5,310.5,36.5,303.5,44.5,297.0,52.5,290.0,61.0,282.5,69.5,274.5,77.5,267.0,85.5,260.0,93.5,252.5" stroke="black" stroke-width="2" fill="none" />
<polyline points="92.5,245.0,84.5,252.0,76.5,259.0,68.0,266.0,59.5,273.0,51.0,280.0,43.0,287.5,34.5,295.0,26.5,302.5,18.5,310.0,11.0,317.5,2.5,325.0" stroke="black" stroke-width="2" fill="none" />
<polyline points="2.5,324.0,11.0,324.0,19.0,323.0,27.0,322.5,35.0,322.0,43.5,321.5,51.5,321.0,60.0,320.5,69.0,320.5,77.0,320.0,85.5,319.0,94.0,319.0,101.5,319.0,109.5,318.5,117.0,318.5,125.0,318.0,133.0,317.5,141.0,317.0,148.5,316.5,156.0,316.0,164.0,316.0,172.0,315.0,180.0,314.5,188.0,314.0,195.5,313.5,203.5,313.0,211.0,312.5,218.0,313.0,226.0,313.0,234.0,313.0,242.0,313.0,250.0,312.0" stroke="black" stroke-width="2" fill="none" />
<polyline points="251.5,289.5,243.5,290.0" stroke="black" stroke-width="2" fill="none" />
<polyline points="242.0,290.0,250.0,282.5" stroke="black" stroke-width="2" fill="none" />
<polyline points="249.0,275.0,240.5,282.5" stroke="black" stroke-width="2" fill="none" />
<polyline points="244.0,267.0,252.0,259.5" stroke="black" stroke-width="2" fill="none" />
<polyline points="253.0,252.5,244.5,259.5" stroke="black" stroke-width="2" fill="none" />
<polyline points="243.5,263.0,251.5,262.5,259.5,261.5" stroke="black" stroke-width="2" fill="none" />
<polyline points="266.0,260.5,273.5,260.0" stroke="black" stroke-width="2" fill="none" />
<polyline points="267.5,260.5,275.5,253.0" stroke="black" stroke-width="2" fill="none" />
<polyline points="274.5,257.0,266.0,257.0" stroke="black" stroke-width="2" fill="none" />
<polyline points="265.5,256.0,274.0,255.5" stroke="black" stroke-width="2" fill="none" />
<polyline points="274.5,277.5,266.5,278.0" stroke="black" stroke-width="2" fill="none" />
<polyline points="266.5,287.0,274.5,286.5" stroke="black" stroke-width="2" fill="none" />
<polyline points="251.0,265.5,243.5,266.0" stroke="black" stroke-width="2" fill="none" />
<polyline points="243.0,256.0,250.5,255.0" stroke="black" stroke-width="2" fill="none" />
<polyline points="251.0,247.0,243.0,247.5" stroke="black" stroke-width="2" fill="none" />
<polyline points="244.0,239.0,252.0,238.0" stroke="black" stroke-width="2" fill="none" />
<polyline points="234.5,219.5,242.5,211.5,250.0,204.0" stroke="black" stroke-width="2" fill="none" />
<polyline points="251.0,203.5,243.0,204.0" stroke="black" stroke-width="2" fill="none" />
<polyline points="243.0,200.5,251.0,199.5" stroke="black" stroke-width="2" fill="none" />
<polyline points="250.0,194.0,242.0,201.5,233.5,209.5,225.5,217.5" stroke="black" stroke-width="2" fill="none" />
<polyline points="229.5,216.0,238.0,216.0" stroke="black" stroke-width="2" fill="none" />
<polyline points="236.0,209.5,244.0,209.5,252.5,209.5" stroke="black" stroke-width="2" fill="none" />
<polyline points="266.5,214.5,275.0,214.0,283.0,213.5,291.5,213.0,299.5,212.5" stroke="black" stroke-width="2" fill="none" />
<polyline points="284.0,205.5,275.5,205.5,267.5,206.0" stroke="black" stroke-width="2" fill="none" />
<polyline points="268.0,195.0,280.5,208.5,292.5,205.5" stroke="black" stroke-width="2" fill="none" />
<polyline points="284.5,223.5,278.0,213.0,272.0,235.5,273.5,223.0" stroke="black" stroke-width="2" fill="none" />
<polyline points="252.0,205.5,243.5,206.0,235.0,207.0" stroke="black" stroke-width="2" fill="none" />
<polyline points="229.5,205.5,221.5,212.5" stroke="black" stroke-width="2" fill="none" />
<polyline points="226.5,211.0,219.0,219.0" stroke="black" stroke-width="2" fill="none" />
<polyline points="212.5,223.5,220.5,222.5,229.0,221.5,237.5,220.0,245.5,219.5,253.0,219.0" stroke="black" stroke-width="2" fill="none" />
<polyline points="252.0,229.0,243.5,229.0,236.0,230.0,228.5,231.0,220.5,232.5" stroke="black" stroke-width="2" fill="none" />
<polyline points="212.0,214.0,220.0,213.0,228.0,212.5,236.0,212.5,243.5,213.0,251.5,212.0" stroke="black" stroke-width="2" fill="none" />
<polyline points="219.0,204.5,211.0,211.5" stroke="black" stroke-width="2" fill="none" />
<polyline points="212.0,209.5,220.0,208.5,227.5,208.5" stroke="black" stroke-width="2" fill="none" />
<polyline points="227.5,204.0,220.5,204.0,212.5,204.5" stroke="black" stroke-width="2" fill="none" />
<polyline points="215.0,198.5,227.5,207.5,239.0,203.0" stroke="black" stroke-width="2" fill="none" />
<polyline points="221.5,196.5,213.0,197.0,205.0,198.0" stroke="black" stroke-width="2" fill="none" />
<polyline points="203.5,231.5,195.5,232.5,187.5,233.5,179.5,234.5,171.0,235.5,163.5,236.0,155.0,236.5,147.0,236.5,139.0,237.0,131.0,238.0,123.5,239.0,115.5,239.5,107.0,239.5,98.5,239.5,91.0,240.0,82.5,240.5,75.0,240.5,67.5,241.5,60.0,242.0,52.0,242.5,44.5,243.5,36.5,244.5,29.0,245.5,21.0,246.5,13.0,246.5,5.0,247.5" stroke="black" stroke-width="2" fill="none" />
<polyline points="5.0,250.5,13.0,250.0,20.5,249.5,28.0,249.0,35.5,248.5,43.5,248.0,51.5,247.0,59.5,246.5" stroke="black" stroke-width="2" fill="none" />
<polyline points="75.0,234.0,67.0,241.5,58.5,249.0,51.0,257.0,43.5,264.5,36.0,272.5,27.5,279.5,19.5,287.0,12.0,294.0,3.5,301.5" stroke="black" stroke-width="2" fill="none" />
<polyline points="3.0,304.0,11.5,303.5,19.0,303.0,27.0,302.0,35.0,301.5,43.0,301.0,51.5,300.5,60.0,299.5,68.5,299.0,76.5,298.0,84.5,297.5,92.5,297.0,101.0,296.5,109.0,296.0,117.0,296.0,125.5,295.5,133.0,294.5,140.5,294.0,148.5,293.5,156.5,292.5,164.0,291.5,172.5,291.0,180.5,291.0,189.0,291.0,197.0,290.5,205.0,289.5,213.5,289.0,222.0,288.5,230.0,288.0,238.0,287.0,246.0,286.5,253.5,286.0,261.0,286.5" stroke="black" stroke-width="2" fill="none" />
<polyline points="235.5,253.0,227.0,254.0,218.5,254.5" stroke="black" stroke-width="2" fill="none" />
<polyline points="195.5,329.0,187.5,329.0" stroke="black" stroke-width="2" fill="none" />
<polyline points="107.0,295.0,99.0,295.5" stroke="black" stroke-width="2" fill="none" />
<polyline points="82.0,242.5,74.0,250.0,66.0,257.5,58.5,264.5,50.5,272.0,43.0,279.0,35.0,286.5,27.0,294.0,19.0,301.5,11.5,309.5,3.5,317.5" stroke="black" stroke-width="2" fill="none" />
<polyline points="3.5,319.0,11.0,318.0,19.5,316.5,28.0,316.0,36.5,315.0,45.0,314.5,52.5,314.0,60.0,314.0,68.0,313.5,76.0,313.0,83.5,312.5,92.0,312.5,99.5,312.0,107.0,311.5,114.5,310.0,122.0,309.0,130.0,309.5,138.5,309.5,146.5,309.0,154.0,308.5,162.5,307.5,170.0,307.5,178.0,307.0,185.5,307.0,193.5,306.0,201.0,305.5,209.0,304.5,217.5,304.5,225.5,304.0,233.0,303.5,240.5,303.0,248.5,302.5,257.0,301.0" stroke="black" stroke-width="2" fill="none" />
<polyline points="171.5,327.5,163.5,328.0,155.5,328.5,148.0,329.5,140.0,330.0,132.0,330.5,124.0,330.5,116.0,331.0,108.0,331.5,100.0,332.5,91.5,333.0,83.0,334.0,75.5,334.5,67.5,334.5,60.0,334.5,52.0,335.0,44.0,335.5,36.0,336.0,27.5,337.0,19.0,337.5,10.5,338.0,2.0,338.5" stroke="black" stroke-width="2" fill="none" />
<polyline points="3.5,334.5,12.0,333.5,20.0,333.5,28.0,333.0,36.0,332.5,44.0,332.0,52.0,331.0,60.0,330.5,68.0,330.5,76.0,330.5,84.5,330.0,92.0,330.0,100.0,329.5,108.0,329.5,115.5,329.0,123.0,329.0,131.5,328.0,140.0,327.0,148.0,326.5,156.5,326.0,164.0,326.0,172.0,325.5,180.0,324.0,188.0,322.5,196.5,321.5,205.0,320.0,213.0,319.5,221.0,318.0,229.0,317.0,237.0,317.0,245.0,316.5,253.0,316.5,261.0,316.0" stroke="black" stroke-width="2" fill="none" />
<polyline points="164.5,320.0,156.5,320.5,149.0,320.5,141.0,321.0,133.0,321.5,124.5,322.0,116.5,322.5,108.5,323.0,100.0,323.5,91.5,324.0,83.0,324.5,75.0,325.0,67.5,325.5,59.5,326.0,51.0,326.5,43.5,327.5,35.0,328.0,27.0,328.5,19.5,329.5,11.5,329.5,4.0,330.5" stroke="black" stroke-width="2" fill="none" />
<polyline points="4.0,320.5,12.0,320.0,20.5,320.0,28.5,319.5,36.0,319.0,44.0,318.5,52.0,317.5,60.5,317.0,69.0,316.5,77.5,315.0,85.5,314.5,93.0,314.5,100.5,314.5,108.0,314.0,116.0,313.5,124.0,313.5,131.5,313.0" stroke="black" stroke-width="2" fill="none" />
<polyline points="82.0,233.0,74.0,240.5,66.5,248.0,58.5,256.0,50.5,264.5,42.0,272.5,34.0,280.0,26.5,287.0,18.5,294.5,11.0,302.5,3.0,310.0" stroke="black" stroke-width="2" fill="none" />
<polyline points="3.5,308.0,11.0,307.0,19.5,307.0,27.0,307.0,35.0,307.0,43.0,307.5,51.5,307.5,59.5,307.5,68.0,307.5,76.5,307.5,84.5,307.5,92.5,306.0,100.0,305.0,107.5,304.0,116.0,304.0,124.0,303.0,131.5,302.5,139.5,301.5,147.0,301.0,154.5,300.0,162.5,299.0,170.5,299.0,179.0,299.0,187.5,298.0,196.0,298.0,204.0,297.5,212.0,297.0,219.5,296.0,227.0,295.5,234.0,295.5,242.0,295.5,250.0,295.0,258.5,295.0" stroke="black" stroke-width="2" fill="none" />
<polyline points="258.5,279.5,250.5,280.0,242.0,280.0,234.5,280.5,227.0,280.5,219.5,280.5,212.0,280.5,204.5,280.5,196.0,280.5,188.0,281.0,179.5,281.5,171.5,281.5,163.5,282.0,155.5,282.5,147.5,283.0,140.0,284.0,132.5,284.5,125.0,286.0,117.5,286.5,109.5,287.0,101.0,288.5,92.5,289.5,84.5,290.5,76.0,291.0,68.5,291.0,61.0,291.0,53.5,291.0,46.0,291.0,37.5,291.5,29.0,292.0,21.0,293.0,13.0,294.0,5.0,294.0" stroke="black" stroke-width="2" fill="none" />
<polyline points="2.0,294.0,10.0,286.0,18.5,278.0,27.0,270.5,35.5,263.0,44.0,255.5,52.0,248.0,60.5,240.0,68.5,232.5,76.5,226.0,84.5,218.5" stroke="black" stroke-width="2" fill="none" />
<polyline points="75.5,219.0,67.5,226.5,59.5,233.5,52.0,241.0,43.5,249.0,35.5,256.5,27.5,264.5,19.5,272.0,11.5,279.5,4.0,287.0" stroke="black" stroke-width="2" fill="none" />
<polyline points="5.5,288.5,13.5,288.0,21.5,287.0,29.0,286.0,37.0,284.5,45.0,283.0,53.0,282.5,61.0,281.5,69.0,281.0,76.5,280.5,84.0,280.5,92.0,279.5,99.5,279.5,107.0,279.5,115.0,280.0,123.0,280.0,131.0,279.0,138.5,278.0,146.5,277.5,154.5,277.5,162.5,277.0,170.5,276.5,179.0,275.5,188.0,274.5,196.0,274.0,204.5,273.0,212.5,272.0,220.5,271.0,228.5,270.0,236.5,269.0,244.5,268.5,252.5,268.0,260.0,268.0" stroke="black" stroke-width="2" fill="none" />
<polyline points="259.0,262.0,251.0,262.0,243.5,262.5,235.5,263.0,227.5,263.5,219.0,264.0,210.5,263.5,202.5,264.0,194.0,264.5,185.5,264.5,177.5,265.0,169.5,266.0,162.0,266.5,154.0,267.5,146.5,267.5,139.0,268.0,130.5,268.0,123.0,267.5,115.5,268.0,108.5,269.5,101.0,270.0,93.0,270.5,85.0,270.5,77.5,271.5,69.5,272.0,61.0,273.0,52.5,274.0,44.5,275.0,35.5,275.5,26.0,276.0,17.5,276.5,9.0,277.0,1.0,277.5" stroke="black" stroke-width="2" fill="none" />
<polyline points="2.5,279.0,10.5,272.0,18.0,264.5,25.5,256.5,33.5,249.0,42.0,241.0,50.0,233.5,58.0,226.0,66.0,218.0,74.5,210.0" stroke="black" stroke-width="2" fill="none" />
<polyline points="67.5,212.5,59.5,220.0,52.0,228.0,44.0,235.5,36.0,242.5,28.0,250.0,20.0,257.5,11.0,265.0,3.0,273.0" stroke="black" stroke-width="2" fill="none" />
<polyline points="4.0,274.0,11.5,273.5,19.5,272.5,27.0,272.0,34.5,271.5,42.5,271.0,51.0,270.0,59.0,269.5,67.5,269.0,76.0,268.5,84.0,267.5" stroke="black" stroke-width="2" fill="none" />
<polyline points="59.0,217.0,50.5,217.5" stroke="black" stroke-width="2" fill="none" />
<polyline points="66.0,206.0,57.5,213.0,50.0,220.0,42.5,227.0,34.0,234.0,26.0,241.5,18.0,248.5,10.0,256.0,2.5,263.0" stroke="black" stroke-width="2" fill="none" />
<polyline points="5.5,265.0,13.0,265.0,21.0,264.5,29.0,264.5,36.5,264.5,44.0,264.0,52.0,263.5,59.5,263.5,67.0,263.0,75.0,262.0" stroke="black" stroke-width="2" fill="none" />
<polyline points="67.0,197.0,59.0,204.5,51.0,212.0,42.5,219.5,34.5,226.5,27.0,234.0,18.5,240.5,10.5,247.5,2.0,254.5" stroke="black" stroke-width="2" fill="none" />
<polyline points="4.0,255.5,12.0,255.0,19.5,254.5,27.5,254.0,35.5,253.5,43.5,253.5,51.5,252.5,60.5,251.0,69.0,250.0,78.0,249.5,86.5,249.0,94.5,248.5,102.0,248.5,110.0,248.0,118.0,247.0,125.5,246.5,134.0,246.0,141.5,245.5,149.0,244.5,156.5,243.0,164.0,241.5,172.0,242.0,180.5,242.0,188.0,241.5,195.5,240.5,203.5,240.0,210.5,240.0" stroke="black" stroke-width="2" fill="none" />
<polyline points="261.5,253.5,253.5,254.5,245.5,255.0,237.0,256.0,228.5,256.5,220.0,257.5,212.0,258.5,203.5,259.0,195.5,259.5,187.0,259.5,178.5,260.5,170.0,261.5,161.5,262.0,154.0,262.5,146.5,263.0,139.0,263.5,131.0,263.5,123.5,264.0,115.0,264.5,107.0,264.5,99.0,264.5,91.0,265.0,83.0,266.0,75.0,266.5,67.0,267.0,59.0,267.0,51.5,267.0,43.5,268.0,36.0,268.5,28.0,269.0,19.5,270.0,12.0,270.5,4.0,271.5" stroke="black" stroke-width="2" fill="none" />
<polyline points="3.5,281.5,12.0,281.0,20.0,281.0,28.0,280.5,36.0,279.5,44.0,278.5,52.5,278.0,61.0,277.0,69.0,276.5,77.0,276.0,84.5,275.5" stroke="black" stroke-width="2" fill="none" />
<polyline points="130.5,307.0,122.5,307.5,115.0,307.5,107.0,307.5,99.5,308.0,91.0,309.0,82.5,309.5,75.0,310.0,67.5,310.5,60.0,310.5,52.5,311.0,45.0,311.0,36.5,311.5,27.5,312.0,19.0,312.0,10.5,312.0,2.5,312.5" stroke="black" stroke-width="2" fill="none" />
<polyline points="2.5,305.5,10.5,305.0,18.5,304.5,27.0,304.0,35.0,303.5,43.0,303.5,51.5,303.5,59.5,303.0,67.5,302.5,75.5,302.0,83.5,301.0,91.5,300.5,99.5,300.5,108.0,300.0,117.0,300.0" stroke="black" stroke-width="2" fill="none" />
<polyline points="93.5,293.5,86.0,293.5,77.5,294.0,69.5,294.5,61.0,295.0,52.0,296.0,43.5,296.5,35.0,297.0,27.5,297.0,20.0,297.5,12.5,298.0,5.0,298.0" stroke="black" stroke-width="2" fill="none" />
<polyline points="5.5,291.0,13.5,290.0,21.5,289.0,29.0,288.5,37.0,288.0,45.0,287.5,52.5,287.5,60.0,286.5,67.5,286.0,75.5,285.0,84.0,285.0,92.0,284.0" stroke="black" stroke-width="2" fill="none" />
<polyline points="5.0,259.5,13.0,259.0,20.5,258.5,28.5,258.5,36.0,258.5,43.5,258.0,52.0,258.0,60.5,257.5,68.0,256.5,76.0,256.5,84.0,256.0,91.5,255.5,100.0,255.5,108.0,255.5,116.0,255.0,124.0,255.0,132.0,255.0,139.5,255.0,147.0,255.0,154.5,254.5,162.0,254.5,170.5,253.5,178.5,253.0,186.5,252.0,194.5,251.0,202.5,250.5,211.0,249.0,220.0,248.0,228.5,246.5,236.5,246.0" stroke="black" stroke-width="2" fill="none" />
<polyline points="170.5,229.0,163.0,230.0,154.5,230.0,146.5,230.0,139.0,230.0,130.5,230.0,123.0,230.0,115.5,230.5,107.5,231.0,99.5,231.5,91.5,232.0,83.5,232.0,75.5,232.5,68.0,233.5,60.0,234.5,52.5,235.0,44.5,236.0,36.0,237.0,28.5,237.5,20.5,238.5,12.5,239.0,4.0,239.0" stroke="black" stroke-width="2" fill="none" />
<polyline points="2.5,238.5,10.5,231.5,19.0,224.5,27.5,217.5,36.0,210.5,44.0,203.5,52.0,196.0,59.5,188.0,67.5,180.5" stroke="black" stroke-width="2" fill="none" />
<polyline points="60.0,178.0,52.0,185.5,43.5,193.0,35.5,200.5,27.5,208.5,19.5,216.5,11.0,224.0,3.0,231.5" stroke="black" stroke-width="2" fill="none" />
<polyline points="3.5,231.5,11.5,231.5,20.0,230.5,27.5,230.0,35.5,229.0,43.0,228.0,50.5,227.5,58.0,226.5,66.0,225.5,74.5,225.0,82.5,224.5,90.5,224.0,98.0,224.5,105.5,224.0,113.5,224.0,122.0,224.0,130.0,223.5,139.0,222.5,148.0,221.5,156.5,221.5,164.0,221.0,172.0,220.0" stroke="black" stroke-width="2" fill="none" />
<polyline points="146.5,189.0,138.0,190.0" stroke="black" stroke-width="2" fill="none" />
<polyline points="138.5,181.5,146.5,181.0" stroke="black" stroke-width="2" fill="none" />
<polyline points="130.0,116.5,122.5,116.5" stroke="black" stroke-width="2" fill="none" />
<polyline points="68.5,113.5,60.0,121.0,52.0,129.5,44.5,137.0,36.0,145.0,28.0,152.5,20.0,160.0,12.5,166.5,4.5,174.0" stroke="black" stroke-width="2" fill="none" />
<polyline points="6.5,174.0,14.0,174.5,21.5,174.5,29.0,174.5,36.5,174.0,44.0,173.0,52.0,173.0,60.0,172.5,67.5,172.0,75.0,171.5,83.0,171.0,91.5,170.5,99.0,170.0,107.0,169.0,115.0,168.5,123.0,168.0,131.5,167.5,140.0,166.5,148.5,166.0" stroke="black" stroke-width="2" fill="none" />
<polyline points="74.0,164.0,66.0,171.0" stroke="black" stroke-width="2" fill="none" />
<polyline points="60.5,171.0,52.5,178.5,44.0,185.5,36.0,193.5,28.5,201.5,20.5,209.5,12.5,217.0,4.5,224.5" stroke="black" stroke-width="2" fill="none" />
<polyline points="4.0,225.0,12.0,225.0,19.5,224.5,27.5,224.0,35.5,224.0,43.5,223.5,51.0,222.0,59.0,221.0" stroke="black" stroke-width="2" fill="none" />
<polyline points="61.0,193.5,53.5,201.0,45.0,208.5,36.0,216.0,27.5,224.0,19.0,232.0,10.5,240.0,2.0,248.5" stroke="black" stroke-width="2" fill="none" />
<polyline points="5.5,242.0,13.0,241.5,20.5,241.0,28.5,241.0,36.0,240.0,44.0,239.0,51.5,238.5,59.5,237.5" stroke="black" stroke-width="2" fill="none" />
<polyline points="77.0,253.5,69.5,253.5,61.5,254.0,53.0,254.0,44.5,254.5,36.5,255.0,28.0,256.0,19.5,256.5,11.5,256.5,3.0,256.5" stroke="black" stroke-width="2" fill="none" />
<polyline points="5.0,235.0,13.0,234.0,21.0,233.5,29.0,232.5,37.0,232.0,45.0,231.0,52.0,230.5,59.0,230.0" stroke="black" stroke-width="2" fill="none" />
<polyline points="5.5,222.0,12.5,221.0,20.5,221.0,28.0,220.5,35.5,219.5,43.0,219.0,51.0,218.5,59.0,218.0,67.0,217.0,74.5,215.5,83.0,214.5,91.0,214.0,100.0,214.0,108.0,213.5,115.5,213.5,123.5,214.0,131.5,213.5,139.5,213.5,147.0,214.0,155.0,214.5,163.0,214.5" stroke="black" stroke-width="2" fill="none" />
<polyline points="172.0,203.5,164.0,203.5,156.0,204.0,148.0,205.0,140.0,206.0,132.0,206.5,123.5,207.0,115.5,208.0,107.5,208.5,99.5,209.5,91.5,210.5,83.5,211.5,75.0,211.5,66.5,212.0,58.5,212.5,50.5,212.5,42.5,213.0,34.5,213.0,27.0,213.5,19.5,214.0,12.0,214.5,4.5,215.0" stroke="black" stroke-width="2" fill="none" />
<polyline points="4.0,216.5,12.0,209.5,20.0,202.0,28.0,195.0,36.0,187.5,44.0,179.5,52.0,172.0,60.0,164.0" stroke="black" stroke-width="2" fill="none" />
<polyline points="60.0,158.0,52.0,165.0,44.5,172.0,37.0,179.0,29.0,186.0,21.5,193.0,13.5,200.5,5.0,208.0" stroke="black" stroke-width="2" fill="none" />
<polyline points="4.0,208.5,12.0,208.0,20.5,208.0,28.5,208.0,36.0,208.0,44.5,208.0" stroke="black" stroke-width="2" fill="none" />
<polyline points="43.5,214.5,35.5,214.5,28.0,215.5,20.5,216.0,12.0,216.5,4.0,217.0" stroke="black" stroke-width="2" fill="none" />
<polyline points="3.5,204.5,11.5,204.0,19.0,203.5,27.5,203.5,35.5,204.0,43.5,204.0,51.0,203.5,59.0,203.0,67.5,202.5,76.0,202.0,83.5,201.5,92.0,200.5,100.0,200.5,108.0,200.0,116.0,199.5,124.0,199.0,132.0,198.0,140.0,197.5,148.0,197.5,156.0,197.5,164.5,197.0" stroke="black" stroke-width="2" fill="none" />
<polyline points="149.0,187.5,140.0,187.5,131.5,188.0,123.5,188.5,115.0,189.0,107.0,189.5,99.0,190.0,91.0,191.0,82.5,191.0,75.0,191.5,67.5,192.0,60.0,192.5,52.5,193.0,44.5,194.0,36.0,195.0,27.5,196.0,19.0,196.5,10.5,197.5,2.5,198.5" stroke="black" stroke-width="2" fill="none" />
<polyline points="2.0,199.5,10.5,192.5,19.0,185.5,27.5,178.0,36.5,170.5,45.0,163.5,53.0,156.0" stroke="black" stroke-width="2" fill="none" />
<polyline points="58.5,147.0,66.5,139.5" stroke="black" stroke-width="2" fill="none" />
<polyline points="59.5,140.0,51.0,147.5,43.0,155.0,35.0,162.5,27.5,171.0,20.0,178.5,12.0,186.0,4.0,193.0" stroke="black" stroke-width="2" fill="none" />
<polyline points="3.5,194.0,12.0,193.5,19.5,193.0,27.5,192.0,35.5,191.0,42.5,190.5" stroke="black" stroke-width="2" fill="none" />
<polyline points="36.5,198.5,28.5,199.0,20.5,199.0,12.0,199.5,4.0,199.5" stroke="black" stroke-width="2" fill="none" />
<polyline points="3.5,191.0,12.0,190.5,20.0,190.5,28.5,189.5,36.0,189.0,44.5,188.5,52.0,188.0,59.5,187.0,67.5,186.5,75.5,186.0,83.5,186.0,91.0,185.0,99.5,183.5,108.0,183.0,116.5,182.0,125.0,181.5,132.5,181.0" stroke="black" stroke-width="2" fill="none" />
<polyline points="59.0,130.5,51.0,137.5,43.0,145.0,34.5,153.0,27.0,161.0,19.0,169.0,11.5,177.0,4.0,185.5" stroke="black" stroke-width="2" fill="none" />
<polyline points="4.0,185.5,12.0,185.0,20.0,185.0,28.0,184.0,36.5,183.0" stroke="black" stroke-width="2" fill="none" />
<polyline points="4.0,179.5,12.5,179.0,21.0,178.5,28.5,178.5,36.0,178.0,44.0,177.5,52.0,177.0,59.5,176.5,67.5,176.0,75.5,175.5,83.5,175.0,91.0,174.0,99.5,174.0,107.0,174.0,115.0,174.0,123.0,174.5,131.5,174.5" stroke="black" stroke-width="2" fill="none" />
<polyline points="53.0,124.0,45.0,131.5,37.0,138.5,28.5,145.5,20.5,152.0,12.5,159.5,4.5,167.0" stroke="black" stroke-width="2" fill="none" />
<polyline points="5.5,169.5,13.5,169.0,21.5,168.5,29.0,168.0,37.0,168.0" stroke="black" stroke-width="2" fill="none" />
<polyline points="35.5,147.5,27.5,148.5" stroke="black" stroke-width="2" fill="none" />
<polyline points="37.0,159.5,28.5,159.5,20.5,160.0,13.0,160.5,5.0,161.0" stroke="black" stroke-width="2" fill="none" />
<polyline points="4.5,160.5,12.0,152.0,19.5,144.5,27.5,136.5,35.5,129.5,43.5,122.0,51.0,114.0,59.5,106.5" stroke="black" stroke-width="2" fill="none" />
<polyline points="59.5,98.5,51.0,106.0,43.0,113.5,35.0,121.5,27.5,129.0,19.5,136.5,11.5,144.0,4.0,151.0" stroke="black" stroke-width="2" fill="none" />
<polyline points="4.5,154.5,12.0,153.5,20.0,152.0,28.0,151.5,36.0,151.0" stroke="black" stroke-width="2" fill="none" />
<polyline points="28.5,175.0,20.0,176.0,11.5,176.5,3.5,177.5" stroke="black" stroke-width="2" fill="none" />
<polyline points="4.0,163.5,12.0,163.5,20.0,163.5,28.0,163.0,36.5,163.0,44.5,163.0,52.5,163.0,61.0,163.0,69.0,162.5,77.0,162.0,85.0,161.0,93.0,161.0,101.0,160.0,109.0,159.0,117.5,158.5,126.0,158.0,133.5,158.0" stroke="black" stroke-width="2" fill="none" />
<polyline points="141.0,148.5,133.0,149.5,125.0,150.0,117.0,151.5,109.0,153.0,101.5,154.0,93.5,155.0,85.5,155.5,77.5,156.0,70.0,156.5,62.0,157.0,54.0,157.0,46.5,158.0,38.0,158.0,29.0,158.0,20.0,158.5,11.5,159.0,3.5,159.5" stroke="black" stroke-width="2" fill="none" />
<polyline points="2.0,147.5,10.0,147.5,18.0,147.5,26.0,147.5,34.5,147.0,42.5,146.5,50.0,146.0,57.5,145.5,65.0,145.0,73.0,145.0,81.0,144.5,89.0,144.0,97.5,143.5,106.0,143.0,115.5,142.5,124.5,142.0" stroke="black" stroke-width="2" fill="none" />
<polyline points="61.0,91.0,53.0,98.0,44.5,105.5,36.0,113.0,27.5,120.5,19.5,128.0,11.0,135.5,3.0,143.0" stroke="black" stroke-width="2" fill="none" />
<polyline points="5.0,145.0,13.0,144.5,20.0,143.5" stroke="black" stroke-width="2" fill="none" />
<polyline points="5.5,141.5,13.5,141.0,21.5,140.0,29.0,139.5,36.5,139.5,44.0,139.5,52.0,139.5,59.5,138.5,67.5,138.5,76.0,138.5,84.0,138.5,92.0,137.5,99.5,137.0,108.0,136.0,116.0,135.5,123.5,135.0,131.5,134.0" stroke="black" stroke-width="2" fill="none" />
<polyline points="132.0,125.0,123.5,125.0,116.0,125.5,108.5,125.5,100.5,125.5,93.0,126.0,85.0,126.5,77.0,127.5,68.5,128.0,60.0,129.0,51.5,129.5,43.0,130.5,35.0,130.5,27.0,130.5,18.5,130.5,10.5,131.5,2.5,132.0" stroke="black" stroke-width="2" fill="none" />
<polyline points="4.5,135.5,13.0,128.0,20.5,120.5,28.0,112.5,36.5,105.5,45.0,98.0,53.0,90.0,60.5,82.5,68.5,74.5" stroke="black" stroke-width="2" fill="none" />
<polyline points="69.5,68.0,61.5,75.0,53.0,82.5,44.5,89.5,36.0,97.0,28.0,104.5,20.0,112.0,11.5,119.5,4.0,127.0" stroke="black" stroke-width="2" fill="none" />
<polyline points="5.5,128.5,13.5,127.5,21.5,127.0,29.0,126.5,36.5,126.5" stroke="black" stroke-width="2" fill="none" />
<polyline points="28.5,134.5,20.5,135.5,13.0,136.5,5.0,137.0" stroke="black" stroke-width="2" fill="none" />
<polyline points="6.5,124.5,14.5,123.5,21.5,123.0,29.0,122.5,36.5,122.5,44.5,122.5,52.5,122.5,60.5,123.0,68.5,123.0,76.0,122.5,84.0,122.5,92.0,122.0,99.5,121.5,107.5,121.0,115.5,120.5" stroke="black" stroke-width="2" fill="none" />
<polyline points="75.0,54.0,67.0,61.5,59.0,68.5,51.0,76.0,43.0,83.5,35.0,90.5,27.0,98.0,19.5,104.5,11.5,111.5,3.0,118.5" stroke="black" stroke-width="2" fill="none" />
<polyline points="5.0,120.0,13.0,119.5,20.5,120.0,28.5,120.0" stroke="black" stroke-width="2" fill="none" />
<polyline points="3.5,116.0,12.0,116.0,19.5,115.5,27.5,115.0,35.5,115.0,43.5,115.0,52.0,115.0,60.5,115.0,69.0,115.0,77.0,114.5,85.0,114.5,93.0,113.5,101.0,113.5,109.0,112.5,116.5,111.5" stroke="black" stroke-width="2" fill="none" />
<polyline points="75.0,44.5,67.0,52.0,58.5,59.5,50.0,66.5,42.0,73.0,34.0,80.5,26.0,88.0,18.0,96.0,10.0,103.5,2.0,110.5" stroke="black" stroke-width="2" fill="none" />
<polyline points="3.0,110.5,10.5,110.0,19.0,109.0,27.5,108.5,36.0,107.5,44.5,107.0,52.5,107.0,60.5,107.5,68.5,107.5,76.5,107.0,84.0,106.0,92.5,106.0,100.5,105.5,108.5,104.5,116.0,104.0,124.5,103.0" stroke="black" stroke-width="2" fill="none" />
<polyline points="85.0,35.5,93.0,27.5" stroke="black" stroke-width="2" fill="none" />
<polyline points="92.0,18.5,84.0,25.5" stroke="black" stroke-width="2" fill="none" />
<polyline points="85.0,19.0,93.0,11.0,101.0,3.5" stroke="black" stroke-width="2" fill="none" />
<polyline points="105.5,5.5,97.5,12.5" stroke="black" stroke-width="2" fill="none" />
<polyline points="91.5,3.0,83.0,10.0,75.0,17.5,67.0,24.5,59.0,32.0,50.5,39.5,43.0,47.5,34.5,55.5,26.5,63.5,18.5,71.0,10.5,78.5,2.5,86.0" stroke="black" stroke-width="2" fill="none" />
<polyline points="4.5,87.0,13.0,86.5,21.0,85.5,29.5,84.5,37.5,84.5,45.0,83.5,52.5,83.5,60.0,83.5,68.0,83.5,76.5,82.5,84.5,82.0,92.0,81.5,99.5,81.0,107.0,80.5,114.5,80.0,122.5,80.0,130.5,79.5,138.5,79.5" stroke="black" stroke-width="2" fill="none" />
<polyline points="76.5,33.5,68.5,41.5,60.0,49.5,51.5,58.0,43.5,65.5,35.5,73.0,27.5,81.0,19.5,89.0,12.0,96.5,4.0,104.0" stroke="black" stroke-width="2" fill="none" />
<polyline points="2.5,105.0,10.5,105.0,19.5,104.5,28.0,104.5,36.0,104.0" stroke="black" stroke-width="2" fill="none" />
<polyline points="34.5,111.5,26.5,112.0,18.5,112.5,10.5,113.5,2.5,114.0" stroke="black" stroke-width="2" fill="none" />
<polyline points="5.0,100.0,12.5,99.5,20.0,100.0,27.5,100.0,35.5,99.0,43.5,99.0,51.5,99.0,59.5,99.5,67.5,99.0,75.5,99.0,83.5,98.5,91.5,98.5,100.0,97.5,107.5,97.0,115.5,96.0,123.0,95.0" stroke="black" stroke-width="2" fill="none" />
<polyline points="76.0,28.0,67.5,35.5,59.5,43.0,51.5,50.5,44.5,58.5,36.5,66.0,28.5,73.5,20.5,81.0,13.0,88.5,4.5,96.5" stroke="black" stroke-width="2" fill="none" />
<polyline points="5.5,96.0,13.5,95.5,21.5,95.5,29.5,95.0" stroke="black" stroke-width="2" fill="none" />
<polyline points="38.0,87.5,30.5,87.5,22.5,87.5,14.5,87.5,6.0,88.0" stroke="black" stroke-width="2" fill="none" />
<polyline points="4.5,92.5,12.5,92.0,20.5,92.0,28.5,91.5,36.0,90.5,44.0,90.5,51.5,90.0,60.0,89.5,68.5,89.0,77.0,89.0,85.5,89.0,92.5,88.0,100.5,88.0,108.0,87.5,115.5,86.5,123.0,86.0" stroke="black" stroke-width="2" fill="none" />
<polyline points="83.5,2.5,76.0,10.0,68.5,18.0,60.5,25.5,52.0,33.0,44.0,40.0,35.5,48.0,27.0,55.5,18.5,63.0,10.0,70.0,2.5,77.0" stroke="black" stroke-width="2" fill="none" />
<polyline points="3.5,76.5,12.0,76.0,20.5,76.0,28.5,76.0,36.5,75.5,44.5,74.5,52.5,74.0,60.5,73.0,68.0,72.5,75.5,72.0,83.5,71.5,91.5,71.0,99.0,70.5,107.5,70.5,115.5,71.0,123.5,71.0" stroke="black" stroke-width="2" fill="none" />
<polyline points="44.5,72.0,36.5,72.5,28.0,73.0,20.0,74.0,11.5,75.0,4.0,75.5" stroke="black" stroke-width="2" fill="none" />
<polyline points="4.0,71.0,12.0,63.5,20.5,56.5,28.5,49.0,36.0,42.0,44.0,34.5,52.5,27.5,60.5,19.5,68.0,12.0,76.0,4.0" stroke="black" stroke-width="2" fill="none" />
<polyline points="75.0,7.0,86.5,4.0,98.5,4.0,110.5,4.0,122.5,4.0,134.0,4.0,146.5,3.5,158.5,3.0,170.5,2.5,183.0,2.5,194.5,2.5,206.5,2.5,218.5,3.0,230.5,3.0,243.0,3.0,255.0,3.5,266.5,3.5,278.5,3.5,290.0,3.5,302.0,3.5,314.0,3.5,326.0,3.5,338.5,3.5,351.0,3.5,363.5,3.5,376.0,3.5,388.5,3.5,400.5,3.0,412.5,2.5,425.0,2.5,436.5,2.5,448.5,2.5,460.5,2.5,472.0,2.5,483.5,2.0,495.5,2.0,507.0,2.5,511.5,12.0,511.5,24.0,511.0,36.0,511.0,48.0,511.0,60.0,511.0,71.5,511.0,83.5,511.0,96.0,511.5,108.0,511.5,120.0,512.0,132.5,512.0,144.5,512.0,156.5,512.0,168.5,512.0,180.5,512.0,193.0,511.5,205.0,511.5,217.0,512.0,229.5,512.0,241.0,512.0,253.5" stroke="black" stroke-width="2" fill="none" />
<polyline points="307.0,173.5,299.0,173.5" stroke="black" stroke-width="2" fill="none" />
<polyline points="256.5,130.5,256.5,142.5,256.5,154.5,256.5,167.0,257.0,185.0,257.0,197.5,257.0,209.5,257.5,221.0,257.5,233.0,258.0,245.0,258.0,257.0,258.0,269.0,258.0,280.5,258.0,292.0,253.5,304.0,258.0,314.5,252.0,326.5,250.5,339.0,253.5,337.5,270.0,325.5" stroke="black" stroke-width="2" fill="none" />
<polyline points="249.0,271.0,244.5,247.0,244.5,235.0,234.0,222.5,222.0,222.5,219.0,228.5,211.0,219.0,216.0,204.0,205.5,201.0,205.5,189.0,204.0,177.5,204.0,165.5,204.0,153.0,206.5,141.0,212.0,129.0,216.5,126.0,228.0,115.5,215.5,126.5,215.5,130.0" stroke="black" stroke-width="2" fill="none" />
<polyline points="228.5,120.0,240.0,114.0,252.0,114.0" stroke="black" stroke-width="2" fill="none" />
<polyline points="235.0,172.5,247.0,184.0,246.0,196.0,242.5,205.5,245.5,219.0,245.5,227.5,239.5,240.0,240.0,252.0,241.5,264.5,243.0,276.5,245.0,288.5,246.5,300.5,250.5,312.5" stroke="black" stroke-width="2" fill="none" />
<polyline points="38.0,80.0,30.0,80.5,22.0,80.5,14.0,80.0,6.0,80.5" stroke="black" stroke-width="2" fill="none" />
<polyline points="2.5,71.0,10.0,70.5,18.5,70.0,26.5,69.0,34.5,68.0,42.0,68.0,50.0,66.5,58.0,66.0,66.5,65.5,74.0,65.5,82.5,65.5,90.5,64.5,99.0,63.5,107.5,63.0,116.0,62.0,124.5,61.0" stroke="black" stroke-width="2" fill="none" />
<polyline points="69.0,3.5,60.5,11.0,52.5,18.0,44.5,25.5,37.0,33.5,28.5,41.0,20.5,48.5,12.0,56.0,4.0,63.5" stroke="black" stroke-width="2" fill="none" />
<polyline points="2.0,65.0,10.0,65.0,18.0,65.0,27.0,64.5,35.5,64.5,44.0,64.0" stroke="black" stroke-width="2" fill="none" />
<polyline points="36.5,55.5,28.0,56.5,20.0,57.5,12.0,58.0,4.5,58.5" stroke="black" stroke-width="2" fill="none" />
<polyline points="1.5,60.0,10.0,59.5,18.0,60.0,27.0,60.0,35.5,60.0,44.0,60.5,52.0,60.0,60.0,59.0,67.5,59.0,75.5,58.0,83.5,58.0,92.0,57.5,100.0,57.5,108.5,56.5,116.0,56.0,124.5,55.5,132.0,55.0,139.5,54.0" stroke="black" stroke-width="2" fill="none" />
<polyline points="60.0,4.5,52.5,12.0,44.5,19.0,36.0,26.5,27.5,33.0,19.0,40.0,10.5,47.5,2.5,55.0" stroke="black" stroke-width="2" fill="none" />
<polyline points="4.5,55.0,13.0,54.5,21.0,54.0,29.0,53.5,37.5,52.5,45.5,50.5,53.5,50.0,61.0,49.0,68.5,48.0,76.0,47.0,84.0,46.5,92.5,46.0,101.0,45.5,108.5,45.5,116.0,45.0,124.0,44.5,132.0,44.0" stroke="black" stroke-width="2" fill="none" />
<polyline points="52.5,3.0,44.5,11.0,36.5,18.5,28.5,26.0,20.0,33.0,12.0,40.0,4.5,47.5" stroke="black" stroke-width="2" fill="none" />
<polyline points="3.0,47.0,11.0,46.5,19.0,46.0,27.5,45.0,36.0,45.0,44.5,44.5,52.5,44.0,61.0,43.0,70.0,42.5,78.0,42.0,86.5,41.0,94.0,41.5,101.5,41.5,109.0,41.5,116.5,41.0,124.0,40.0,132.0,40.0,140.0,39.5,147.5,39.0" stroke="black" stroke-width="2" fill="none" />
<polyline points="44.5,3.0,36.5,11.0,28.5,19.0,20.5,26.5,12.5,33.5,4.0,40.5" stroke="black" stroke-width="2" fill="none" />
<polyline points="1.5,40.5,10.0,40.0,18.0,40.0,26.5,40.0,34.5,39.5,43.0,38.5,51.5,38.5" stroke="black" stroke-width="2" fill="none" />
<polyline points="36.0,4.5,27.5,12.0,19.5,19.5,11.0,26.5,3.0,34.0" stroke="black" stroke-width="2" fill="none" />
<polyline points="1.5,34.0,10.0,33.0,19.0,32.0,27.5,31.0,35.5,30.5,44.0,30.0,52.5,30.0,61.0,29.5" stroke="black" stroke-width="2" fill="none" />
<polyline points="27.0,4.0,19.0,11.5,10.5,19.5,2.5,26.5" stroke="black" stroke-width="2" fill="none" />
<polyline points="3.5,25.5,11.5,25.0,19.5,24.0,27.5,23.0,35.5,22.5,43.5,22.0,52.0,21.5,60.0,21.0" stroke="black" stroke-width="2" fill="none" />
<polyline points="18.0,4.5,10.5,12.0,3.0,19.5" stroke="black" stroke-width="2" fill="none" />
<polyline points="2.5,22.5,10.0,21.5,17.5,21.0,25.5,20.5,33.5,20.0,41.0,19.5,49.5,18.5,58.0,17.0,66.0,16.0,74.5,15.5,82.0,14.5,90.0,14.5,98.0,14.5,106.0,14.5,114.5,14.0,122.5,13.5,130.0,13.0,137.5,12.5,145.0,12.0,153.0,12.0,161.0,11.5,169.0,11.0" stroke="black" stroke-width="2" fill="none" />
<polyline points="12.0,5.0,4.5,12.5" stroke="black" stroke-width="2" fill="none" />
<polyline points="4.5,12.0,12.5,11.5,20.5,11.0,28.5,10.5,36.0,10.0,44.0,9.5,52.5,9.5,61.0,9.5,69.0,9.5,77.0,9.0,85.5,8.5,93.5,8.0,101.5,7.0,109.0,6.5,116.5,6.5,124.0,6.5,132.0,6.5,139.5,5.5,147.5,5.5,156.0,5.5" stroke="black" stroke-width="2" fill="none" />
<polyline points="52.5,47.5,44.0,48.0,36.0,48.5,27.5,48.5,19.5,49.0,11.5,49.5,3.0,50.0" stroke="black" stroke-width="2" fill="none" />
<polyline points="2.5,37.0,10.5,36.5,18.5,35.5,26.5,34.5,34.5,34.0,43.5,33.5,52.0,32.5,60.0,32.5,68.0,32.5,76.0,31.5,84.0,30.5,92.0,30.5,100.0,30.5,108.0,30.0,116.5,30.0,124.5,30.0,132.5,30.0,141.0,30.0,149.0,29.5" stroke="black" stroke-width="2" fill="none" />
<polyline points="150.0,23.5,142.0,24.0,134.0,24.0,126.5,25.0,118.0,25.0,109.0,25.0,100.0,25.5,91.5,26.0,83.5,26.5,75.5,27.0,67.5,27.5,59.5,28.0,51.0,27.5,42.5,28.0,34.5,28.0,27.0,28.0,19.5,28.5,12.0,29.0,3.5,29.5" stroke="black" stroke-width="2" fill="none" />
<polyline points="3.5,16.0,11.5,16.0,19.5,16.0,28.0,15.0,36.5,14.0,44.5,13.0,52.5,13.0,60.5,13.0,69.0,12.5" stroke="black" stroke-width="2" fill="none" />
<polyline points="68.5,5.0,60.0,6.0,51.5,7.0,43.5,7.5,35.5,7.5,26.5,7.5,18.5,8.0,10.5,8.0,2.5,8.5" stroke="black" stroke-width="2" fill="none" />
<polyline points="2.5,7.0,10.0,6.0,17.5,5.0,25.5,4.0,33.5,3.0,42.0,2.0,50.0,1.0,58.5,0.5,67.0,0.0,74.5,-0.5,82.5,-1.0,90.5,-1.5,98.5,-2.5,107.0,-2.5,115.0,-2.5,123.0,-2.5,131.5,-3.5,140.0,-4.0,148.5,-5.0,157.0,-5.5,165.0,-6.5" stroke="black" stroke-width="2" fill="none" />
</svg>