<svg xmlns="http://www.w3.org/2000/svg" version="1.1"><polyline points="4.5,1.5,4.5,13.5,4.5,25.5,4.5,38.0,5.0,50.0,5.0,62.0,5.0,74.5,4.5,87.0,4.5,99.5,4.0,111.5,4.0,123.5,4.0,135.5,4.0,147.5,4.0,159.0,4.0,171.0,4.0,182.5,4.0,194.5,4.5,206.0,4.5,218.0,4.5,230.0,5.0,242.0,4.5,254.0,4.5,266.0,4.0,278.0,4.0,290.0,4.0,301.5,3.5,313.5,4.0,325.5,4.0,337.5,14.5,341.0,27.0,341.0,39.0,341.0,50.5,341.0,62.5,341.5,74.5,341.5,86.5,341.5,98.5,341.5,110.0,341.5,122.0,341.5,134.0,342.0,146.0,342.0,158.0,342.5,170.0,342.0,182.0,342.0,193.5,342.0,205.5,341.5,217.5,341.0,229.5,341.0,241.5,341.0,253.5,341.0,276.5,333.5" stroke="black" stroke-width="2" fill="none" />
<polyline points="275.0,335.0,283.0,328.0,291.0,321.0,299.5,314.0,307.0,306.5,315.0,298.5,323.0,291.0,331.0,284.5,339.5,277.0" stroke="black" stroke-width="2" fill="none" />
<polyline points="346.5,274.5,354.5,274.0,363.5,272.5,372.0,272.0,381.0,272.0,389.5,271.0,397.0,271.0,404.5,270.5,412.0,270.0,420.0,270.0,428.0,269.0" stroke="black" stroke-width="2" fill="none" />
<polyline points="419.5,266.5,427.5,265.5,435.5,265.0,443.5,264.5" stroke="black" stroke-width="2" fill="none" />
<polyline points="445.0,266.0,437.0,273.5,429.0,281.5,420.5,289.5,412.0,297.5,403.5,305.5,395.0,313.0,387.5,320.0,379.0,327.5,370.5,334.5" stroke="black" stroke-width="2" fill="none" />
<polyline points="363.0,337.5,370.0,329.0,378.0,321.5,386.0,314.0,393.5,306.0,401.5,299.0,409.5,291.5" stroke="black" stroke-width="2" fill="none" />
<polyline points="411.5,289.0,403.5,289.5" stroke="black" stroke-width="2" fill="none" />
<polyline points="406.0,279.5,418.0,275.0,431.5,278.0,430.0,289.5,425.5,301.5,415.0,307.0,397.0,319.0,403.5,330.5,411.0,341.0" stroke="black" stroke-width="2" fill="none" />
<polyline points="401.5,332.0,393.5,340.0" stroke="black" stroke-width="2" fill="none" />
<polyline points="380.0,336.5,387.5,329.0,395.0,321.5,403.0,314.0,411.0,306.0,418.5,298.5" stroke="black" stroke-width="2" fill="none" />
<polyline points="424.5,301.0,417.0,308.0" stroke="black" stroke-width="2" fill="none" />
<polyline points="416.0,312.5,418.0,324.0,419.5,336.0" stroke="black" stroke-width="2" fill="none" />
<polyline points="425.5,336.5,433.5,336.0,442.0,335.5,450.5,335.0,458.5,334.5,466.5,334.5,475.0,333.5,483.5,333.0,492.5,332.5,500.5,332.5,508.0,332.0,516.0,332.0" stroke="black" stroke-width="2" fill="none" />
<polyline points="514.5,331.5,506.5,339.0" stroke="black" stroke-width="2" fill="none" />
<polyline points="498.5,338.5,506.5,330.5,514.5,322.5" stroke="black" stroke-width="2" fill="none" />
<polyline points="513.5,315.5,505.5,322.5,497.5,330.0,489.5,337.5" stroke="black" stroke-width="2" fill="none" />
<polyline points="482.0,336.5,490.5,329.5,499.0,322.5,507.0,315.0,515.0,307.5" stroke="black" stroke-width="2" fill="none" />
<polyline points="518.0,300.0,510.0,308.0,501.5,315.0,492.5,322.0,484.0,328.5,475.5,336.0" stroke="black" stroke-width="2" fill="none" />
<polyline points="466.5,337.5,475.0,330.0,483.0,323.0,491.5,315.0,500.0,307.5,508.0,300.0,516.5,293.0" stroke="black" stroke-width="2" fill="none" />
<polyline points="516.0,286.0,507.5,294.0,499.0,301.0,490.5,308.0,481.5,315.0,473.0,322.5,465.0,330.0,457.5,337.5" stroke="black" stroke-width="2" fill="none" />
<polyline points="450.0,335.5,458.5,328.5,467.0,321.5,475.0,314.5,483.5,307.0,491.5,299.5,500.0,292.0,508.5,284.5,517.0,277.0" stroke="black" stroke-width="2" fill="none" />
<polyline points="516.5,269.0,509.0,276.0,501.0,283.5,492.5,290.5,484.0,297.5,476.0,304.5,467.5,312.0,459.5,319.0,451.5,326.5,444.0,334.0" stroke="black" stroke-width="2" fill="none" />
<polyline points="434.5,334.0,442.5,326.5,451.0,319.0,459.0,311.5,467.0,304.0,474.5,297.0,483.5,289.5,491.5,282.5,499.0,275.5,506.5,268.5,514.5,261.0" stroke="black" stroke-width="2" fill="none" />
<polyline points="514.0,252.0,506.0,260.0,497.5,268.0,489.0,276.0,481.0,283.5,472.5,290.5,465.0,298.0,457.5,305.0,450.0,312.0,442.0,319.5,433.5,327.0,425.5,334.5" stroke="black" stroke-width="2" fill="none" />
<polyline points="426.0,332.5,434.0,332.0,442.5,332.0,451.0,331.0,459.0,330.5,467.5,330.0,476.0,330.0,484.5,330.5,492.5,330.5,501.0,330.0,509.5,329.0,517.0,328.5" stroke="black" stroke-width="2" fill="none" />
<polyline points="483.0,280.0,474.5,281.0" stroke="black" stroke-width="2" fill="none" />
<polyline points="470.5,283.5,462.5,291.0,454.0,298.5,446.0,306.0,437.5,314.0,429.5,322.0" stroke="black" stroke-width="2" fill="none" />
<polyline points="426.5,321.5,434.5,321.5,442.5,321.5,450.5,321.0,459.0,320.5,467.0,320.0,474.5,319.0,482.0,317.5,490.0,316.5,498.0,315.5,506.0,315.0,514.0,314.5" stroke="black" stroke-width="2" fill="none" />
<polyline points="499.0,261.5,491.0,268.5,482.5,275.0,474.5,282.5,466.5,290.0,459.0,297.5,450.5,305.0,442.5,312.0,434.0,319.5,426.5,327.5" stroke="black" stroke-width="2" fill="none" />
<polyline points="425.5,329.5,433.5,329.0,442.0,328.5,450.0,327.5,458.0,327.0,466.5,327.0,474.5,326.0,483.0,325.0,491.5,324.5,500.0,324.0,508.0,323.0,516.0,323.0" stroke="black" stroke-width="2" fill="none" />
<polyline points="513.5,275.0,505.5,274.5,498.0,274.5,490.5,274.5,482.5,274.5,474.5,275.0" stroke="black" stroke-width="2" fill="none" />
<polyline points="473.0,276.0,480.5,268.5" stroke="black" stroke-width="2" fill="none" />
<polyline points="475.0,267.0,483.0,259.5" stroke="black" stroke-width="2" fill="none" />
<polyline points="483.5,250.0,475.5,257.0,467.5,264.5" stroke="black" stroke-width="2" fill="none" />
<polyline points="461.0,267.0,469.0,266.5,477.0,265.5,485.0,265.0" stroke="black" stroke-width="2" fill="none" />
<polyline points="483.0,272.5,475.5,273.0" stroke="black" stroke-width="2" fill="none" />
<polyline points="465.0,282.0,481.0,276.0,482.5,288.0" stroke="black" stroke-width="2" fill="none" />
<polyline points="459.5,282.0,452.0,290.0,444.0,297.5,436.0,305.0,428.5,313.0,420.5,321.0" stroke="black" stroke-width="2" fill="none" />
<polyline points="420.0,318.0,428.0,317.5,436.5,317.0,444.5,315.5,453.0,314.5,461.5,314.5,469.0,313.5,476.5,313.5,484.5,313.0,492.5,312.5,500.5,312.0,508.5,312.0,516.0,311.5" stroke="black" stroke-width="2" fill="none" />
<polyline points="484.0,256.0,476.0,256.0,468.0,256.0" stroke="black" stroke-width="2" fill="none" />
<polyline points="466.0,252.0,474.0,251.5,482.5,251.0,490.5,250.5,499.0,250.0,507.5,249.0,515.0,249.0" stroke="black" stroke-width="2" fill="none" />
<polyline points="489.0,235.0,481.5,243.0,474.0,250.5,466.5,258.5,458.5,266.5,450.5,274.0,443.0,281.0,435.0,288.0" stroke="black" stroke-width="2" fill="none" />
<polyline points="435.5,291.0,443.0,291.0,451.5,290.0,459.0,289.5,467.0,288.5,475.0,288.0,482.5,286.5" stroke="black" stroke-width="2" fill="none" />
<polyline points="483.5,294.0,475.5,295.0,467.5,295.5,460.0,296.5,452.0,297.5,444.0,298.5,435.5,299.5" stroke="black" stroke-width="2" fill="none" />
<polyline points="427.0,306.0,435.5,298.5,443.0,291.0,450.5,283.5,458.5,276.0" stroke="black" stroke-width="2" fill="none" />
<polyline points="458.0,277.5,456.5,289.5" stroke="black" stroke-width="2" fill="none" />
<polyline points="459.5,280.0,451.5,280.5,444.0,280.5,436.5,281.0" stroke="black" stroke-width="2" fill="none" />
<polyline points="435.5,283.5,443.5,275.0,451.5,267.0" stroke="black" stroke-width="2" fill="none" />
<polyline points="451.5,257.5,460.0,250.0,468.0,242.5,476.0,234.5,484.5,226.5,492.5,219.0" stroke="black" stroke-width="2" fill="none" />
<polyline points="490.5,213.0,483.0,220.0" stroke="black" stroke-width="2" fill="none" />
<polyline points="483.5,224.5,491.5,224.0" stroke="black" stroke-width="2" fill="none" />
<polyline points="490.5,226.5,482.5,234.5,474.5,243.0,466.5,251.0" stroke="black" stroke-width="2" fill="none" />
<polyline points="467.5,248.0,475.5,247.5,483.5,247.5" stroke="black" stroke-width="2" fill="none" />
<polyline points="485.0,239.0,476.5,240.0" stroke="black" stroke-width="2" fill="none" />
<polyline points="476.0,233.5,484.0,233.0,492.0,232.5" stroke="black" stroke-width="2" fill="none" />
<polyline points="475.0,229.0,483.0,229.0,491.5,228.5,499.5,228.0,508.0,227.5,516.0,226.5" stroke="black" stroke-width="2" fill="none" />
<polyline points="482.0,210.0,474.0,218.0" stroke="black" stroke-width="2" fill="none" />
<polyline points="474.5,209.5,466.5,217.0,458.5,224.5,450.5,232.5" stroke="black" stroke-width="2" fill="none" />
<polyline points="450.5,238.0,459.0,236.5" stroke="black" stroke-width="2" fill="none" />
<polyline points="461.0,242.0,453.0,243.0" stroke="black" stroke-width="2" fill="none" />
<polyline points="459.0,245.5,450.5,253.0,443.0,260.5,435.0,267.5,427.0,274.5,419.0,282.0" stroke="black" stroke-width="2" fill="none" />
<polyline points="411.0,279.5,403.5,280.0,395.5,280.5" stroke="black" stroke-width="2" fill="none" />
<polyline points="394.5,283.5,402.5,275.5,410.5,267.5" stroke="black" stroke-width="2" fill="none" />
<polyline points="404.5,267.5,396.5,275.0" stroke="black" stroke-width="2" fill="none" />
<polyline points="388.0,276.0,396.5,269.0,405.5,261.5,414.0,254.5" stroke="black" stroke-width="2" fill="none" />
<polyline points="418.5,252.5,410.5,259.5" stroke="black" stroke-width="2" fill="none" />
<polyline points="419.0,258.0,427.0,251.0,435.0,243.5" stroke="black" stroke-width="2" fill="none" />
<polyline points="428.5,240.0,437.0,232.5,445.0,225.0,453.0,217.5" stroke="black" stroke-width="2" fill="none" />
<polyline points="452.0,210.0,444.0,217.0,436.5,224.5,428.5,232.5,420.0,240.0" stroke="black" stroke-width="2" fill="none" />
<polyline points="419.5,241.5,427.5,240.5,436.0,240.0" stroke="black" stroke-width="2" fill="none" />
<polyline points="436.5,248.5,428.0,249.0" stroke="black" stroke-width="2" fill="none" />
<polyline points="436.0,253.0,444.5,252.5,452.5,252.5,460.0,252.5" stroke="black" stroke-width="2" fill="none" />
<polyline points="460.5,261.0,468.5,261.0,476.0,260.5,484.0,260.0,492.0,260.0,500.5,260.0,508.5,259.0,517.0,258.5" stroke="black" stroke-width="2" fill="none" />
<polyline points="516.0,233.5,508.5,234.0,501.0,234.0,493.0,235.0,485.0,235.5,477.5,235.5,469.5,236.0" stroke="black" stroke-width="2" fill="none" />
<polyline points="470.0,227.0,462.0,234.5,454.0,242.5,445.5,250.5,437.5,257.5,429.5,264.5,421.0,272.0,412.5,279.5,404.0,287.0,396.0,295.0,388.0,302.5,380.0,310.0,371.5,317.0,363.0,324.5,355.0,332.0" stroke="black" stroke-width="2" fill="none" />
<polyline points="347.0,334.5,355.5,327.0,363.5,320.0,371.0,312.5,378.5,305.0,386.5,297.0,394.0,289.5,402.0,281.5,410.0,274.0,418.0,267.0,425.5,260.0" stroke="black" stroke-width="2" fill="none" />
<polyline points="419.5,261.5,428.0,260.5,435.5,260.0,443.5,259.5,451.5,259.0" stroke="black" stroke-width="2" fill="none" />
<polyline points="443.5,250.0,451.5,249.5,459.0,248.5" stroke="black" stroke-width="2" fill="none" />
<polyline points="445.0,247.0,452.5,246.0,460.5,246.0,468.0,245.5,475.5,245.0,483.0,244.5,491.0,244.0,499.0,244.0,507.0,243.5,515.0,242.5" stroke="black" stroke-width="2" fill="none" />
<polyline points="476.5,202.0,468.0,209.5,460.0,217.0,452.0,224.5,444.0,232.5" stroke="black" stroke-width="2" fill="none" />
<polyline points="434.5,225.5,443.0,225.5,451.5,225.5,459.0,225.0,467.0,223.5" stroke="black" stroke-width="2" fill="none" />
<polyline points="461.0,217.5,469.5,217.0,478.0,216.5,486.0,215.5,494.0,214.5" stroke="black" stroke-width="2" fill="none" />
<polyline points="477.0,207.5,469.0,208.5" stroke="black" stroke-width="2" fill="none" />
<polyline points="467.5,207.5,475.0,206.5,483.0,206.5,491.0,206.0,499.0,206.0,507.0,205.5,515.0,204.5" stroke="black" stroke-width="2" fill="none" />
<polyline points="516.5,156.0,508.5,156.5,500.5,156.5,492.5,156.5,484.5,156.5" stroke="black" stroke-width="2" fill="none" />
<polyline points="491.5,149.0,499.5,148.5,507.5,148.5,515.0,148.5" stroke="black" stroke-width="2" fill="none" />
<polyline points="515.5,134.5,507.5,135.0" stroke="black" stroke-width="2" fill="none" />
<polyline points="515.5,139.5,507.0,140.0,499.5,140.5,491.0,141.5" stroke="black" stroke-width="2" fill="none" />
<polyline points="477.5,166.0,485.0,165.5,493.5,165.0,502.0,164.5,510.0,164.5,518.0,164.0" stroke="black" stroke-width="2" fill="none" />
<polyline points="516.0,170.5,507.5,171.0,499.0,172.0,491.5,172.5,484.0,173.0,476.0,173.0" stroke="black" stroke-width="2" fill="none" />
<polyline points="468.5,182.5,476.5,182.0,484.0,181.5,492.0,181.0,500.0,180.5,507.5,180.0,515.5,179.5" stroke="black" stroke-width="2" fill="none" />
<polyline points="515.5,211.0,507.5,211.0,500.0,211.5,492.0,211.5,484.0,211.5,476.0,212.0,468.0,212.0,460.0,212.5" stroke="black" stroke-width="2" fill="none" />
<polyline points="453.0,203.0,445.0,211.0,437.0,218.5" stroke="black" stroke-width="2" fill="none" />
<polyline points="433.5,221.5,442.0,221.0,450.0,220.5,458.5,220.0,467.0,219.5,476.0,219.0,484.0,218.5,492.5,217.0,501.0,216.0,509.0,215.5,516.5,215.0" stroke="black" stroke-width="2" fill="none" />
<polyline points="514.5,185.0,506.5,185.5,498.5,186.0,491.5,186.5,483.5,187.0,475.5,187.5,468.0,188.5,460.0,189.0" stroke="black" stroke-width="2" fill="none" />
<polyline points="457.5,181.0,449.5,182.0" stroke="black" stroke-width="2" fill="none" />
<polyline points="459.5,172.5,467.5,172.5" stroke="black" stroke-width="2" fill="none" />
<polyline points="458.5,166.5,450.5,167.5" stroke="black" stroke-width="2" fill="none" />
<polyline points="450.0,197.0,458.0,197.0,466.0,197.0,474.0,196.5,482.5,196.0,490.5,195.0,498.5,194.0,507.0,193.5,515.5,193.0" stroke="black" stroke-width="2" fill="none" />
<polyline points="444.5,203.0,436.5,210.5,428.0,218.0" stroke="black" stroke-width="2" fill="none" />
<polyline points="428.0,217.5,436.0,217.5,444.0,217.0" stroke="black" stroke-width="2" fill="none" />
<polyline points="450.5,207.5,443.0,208.0,435.0,208.5" stroke="black" stroke-width="2" fill="none" />
<polyline points="434.0,203.5,442.0,203.0,450.5,203.0,458.5,203.0" stroke="black" stroke-width="2" fill="none" />
<polyline points="427.0,186.0,418.5,193.5" stroke="black" stroke-width="2" fill="none" />
<polyline points="420.5,198.5,428.5,198.5" stroke="black" stroke-width="2" fill="none" />
<polyline points="428.0,204.5,420.0,205.0" stroke="black" stroke-width="2" fill="none" />
<polyline points="417.0,205.5,414.0,213.0,412.5,225.0" stroke="black" stroke-width="2" fill="none" />
<polyline points="410.5,220.5,402.5,227.5,394.5,234.5,386.5,241.5,378.0,248.5,370.0,256.0,362.5,263.5,354.5,271.0,346.5,278.5,338.5,286.0,330.5,293.5,322.5,301.5,314.5,310.0,306.5,318.0,298.0,325.5,290.5,333.0" stroke="black" stroke-width="2" fill="none" />
<polyline points="284.0,330.0,291.5,329.5,299.5,329.5,308.0,329.5" stroke="black" stroke-width="2" fill="none" />
<polyline points="283.5,331.5,291.5,323.5,299.5,315.5,307.5,307.5,315.5,300.0,323.5,293.0,331.0,285.5,339.0,278.0,346.5,270.5,354.0,263.5,362.0,256.5,370.5,249.5,379.5,242.0,388.0,234.5,395.5,227.0,403.5,219.0" stroke="black" stroke-width="2" fill="none" />
<polyline points="403.5,212.0,395.5,219.5,387.0,227.5,378.5,234.5,370.5,242.0,362.5,249.0,354.5,255.5,346.5,262.5" stroke="black" stroke-width="2" fill="none" />
<polyline points="339.0,258.5,347.0,257.5,355.0,256.5,363.0,255.5,371.0,255.0,379.5,255.0,387.5,254.0" stroke="black" stroke-width="2" fill="none" />
<polyline points="393.5,249.5,401.5,242.5,410.0,235.5" stroke="black" stroke-width="2" fill="none" />
<polyline points="411.0,231.5,418.5,231.0" stroke="black" stroke-width="2" fill="none" />
<polyline points="419.0,221.5,427.5,221.0" stroke="black" stroke-width="2" fill="none" />
<polyline points="420.5,213.5,429.0,213.5,436.5,212.5,444.0,212.5,451.0,212.0" stroke="black" stroke-width="2" fill="none" />
<polyline points="468.5,232.0,460.5,232.5,452.5,233.0,444.0,233.5,436.5,234.0,428.5,234.0" stroke="black" stroke-width="2" fill="none" />
<polyline points="429.5,231.5,437.0,231.0,445.0,230.0,452.5,229.5,460.0,229.0,468.0,228.5" stroke="black" stroke-width="2" fill="none" />
<polyline points="459.5,255.0,452.0,255.5,444.5,255.5,437.0,256.0" stroke="black" stroke-width="2" fill="none" />
<polyline points="437.5,273.0,445.5,272.5,453.0,271.5,461.0,271.0" stroke="black" stroke-width="2" fill="none" />
<polyline points="428.5,256.0,420.0,256.5,412.0,256.5,404.5,257.0,397.0,257.0" stroke="black" stroke-width="2" fill="none" />
<polyline points="403.0,264.0,395.0,264.5,387.5,265.5" stroke="black" stroke-width="2" fill="none" />
<polyline points="379.5,268.5,371.5,275.5,364.0,283.0,356.0,291.0,348.0,298.5,340.0,306.0" stroke="black" stroke-width="2" fill="none" />
<polyline points="346.0,305.0,354.0,297.5,362.0,289.0,370.5,281.0,379.0,273.5,387.0,266.0,395.0,258.5,403.0,250.5,410.5,243.0" stroke="black" stroke-width="2" fill="none" />
<polyline points="404.5,235.5,396.5,243.0,388.5,250.5,380.0,258.0,371.0,266.0,363.0,273.0" stroke="black" stroke-width="2" fill="none" />
<polyline points="362.5,282.0,370.0,281.5" stroke="black" stroke-width="2" fill="none" />
<polyline points="372.0,284.5,363.5,284.5,355.5,284.5,348.0,285.0,339.5,286.0,331.5,286.5,323.0,287.0,315.0,288.0,307.0,288.5,299.0,288.5,291.5,288.5,283.5,289.0,275.5,289.5,267.5,290.0" stroke="black" stroke-width="2" fill="none" />
<polyline points="267.5,291.0,275.0,283.5,283.0,276.0,291.0,268.5" stroke="black" stroke-width="2" fill="none" />
<polyline points="292.5,261.0,284.5,269.0,276.0,276.5" stroke="black" stroke-width="2" fill="none" />
<polyline points="277.0,273.5,284.5,272.5,292.5,272.0,300.5,272.0,308.5,271.5,316.0,271.0" stroke="black" stroke-width="2" fill="none" />
<polyline points="315.5,275.5,307.5,283.0,299.5,291.0,291.5,298.0" stroke="black" stroke-width="2" fill="none" />
<polyline points="298.0,300.5,290.5,308.0,282.5,315.5,275.0,322.5" stroke="black" stroke-width="2" fill="none" />
<polyline points="275.5,322.0,283.0,321.5,291.5,320.5" stroke="black" stroke-width="2" fill="none" />
<polyline points="284.5,308.0,276.5,315.5,268.0,323.5" stroke="black" stroke-width="2" fill="none" />
<polyline points="267.5,318.0,275.0,317.5,283.0,317.0,291.0,316.5,298.5,316.5,307.0,316.0,315.0,315.5,323.0,315.0,331.5,315.0,339.5,314.5,347.5,314.5,355.5,313.5,364.0,313.5,372.0,313.0,379.5,312.0,387.0,311.0,395.5,310.0,403.0,309.5,410.5,309.0" stroke="black" stroke-width="2" fill="none" />
<polyline points="411.5,311.5,403.5,312.5,396.0,313.5,388.0,314.5,379.5,315.0,371.0,315.0" stroke="black" stroke-width="2" fill="none" />
<polyline points="363.0,307.0,371.0,306.5,379.0,305.5,387.0,305.0,396.0,304.5,404.0,304.0,411.5,303.5,419.5,303.0,427.0,302.5,435.0,301.5,442.5,300.5,450.5,300.5,458.5,300.5,466.5,300.0,475.0,299.5,483.0,299.0,490.5,298.0,498.0,296.5,506.0,295.5" stroke="black" stroke-width="2" fill="none" />
<polyline points="515.5,306.5,507.5,307.0,499.5,307.5,491.5,307.5,483.5,308.5,476.0,309.5,468.0,310.5,459.5,311.0,451.0,311.0,442.5,311.5,434.0,312.5,426.0,313.5" stroke="black" stroke-width="2" fill="none" />
<polyline points="421.5,310.5,429.0,309.0,437.0,308.0,445.0,307.0,453.0,306.5,461.0,306.5,469.5,305.5,477.5,305.5,485.5,305.5,493.0,305.0,501.0,304.5,509.5,304.0,518.0,303.5" stroke="black" stroke-width="2" fill="none" />
<polyline points="517.0,320.5,509.0,321.5,501.0,322.0,493.5,322.5,485.5,322.5,477.5,323.0,470.0,324.0,462.0,324.0,453.5,324.5,445.0,324.0,437.0,324.5,428.5,324.5,421.0,325.0" stroke="black" stroke-width="2" fill="none" />
<polyline points="413.5,324.5,405.5,325.5,397.5,325.5,389.0,326.0,380.5,326.5,372.5,327.0,365.0,328.0,357.0,328.5,349.0,329.0,341.0,329.5,333.0,330.0,325.0,331.5,317.5,332.0,309.5,333.0,301.5,333.5,293.5,334.0,286.0,335.0,278.0,336.0" stroke="black" stroke-width="2" fill="none" />
<polyline points="284.0,338.0,292.5,337.5,300.5,337.0,308.5,336.0,316.0,335.0" stroke="black" stroke-width="2" fill="none" />
<polyline points="332.5,339.0,341.0,332.0,349.0,324.0,357.0,316.0,365.0,308.5,374.0,301.0,382.0,294.0" stroke="black" stroke-width="2" fill="none" />
<polyline points="387.5,293.0,379.5,300.5,371.0,307.5,362.5,315.0,355.0,322.5,347.0,329.5,339.0,337.0" stroke="black" stroke-width="2" fill="none" />
<polyline points="333.0,334.5,324.5,341.5" stroke="black" stroke-width="2" fill="none" />
<polyline points="315.5,338.5,323.5,331.0,332.0,323.0" stroke="black" stroke-width="2" fill="none" />
<polyline points="339.0,321.0,347.5,313.5,355.5,306.5,364.0,299.0,372.0,291.5,380.5,284.5" stroke="black" stroke-width="2" fill="none" />
<polyline points="373.5,278.0,367.5,290.5,382.0,293.5,394.0,294.0,396.0,287.0" stroke="black" stroke-width="2" fill="none" />
<polyline points="409.5,275.0,408.0,287.0,409.5,290.0,421.0,296.0" stroke="black" stroke-width="2" fill="none" />
<polyline points="420.0,291.5,412.0,292.0,404.5,292.5,397.0,293.0,389.5,293.5,381.5,294.5,373.5,294.5,365.0,295.0,356.5,295.5,348.5,296.0,341.0,297.0,333.0,297.5" stroke="black" stroke-width="2" fill="none" />
<polyline points="322.5,296.0,315.0,297.0,306.5,297.5" stroke="black" stroke-width="2" fill="none" />
<polyline points="308.5,292.5,317.0,292.0,325.0,291.5,332.5,291.0,339.5,290.5,347.0,289.5,355.0,289.5,363.0,289.0,371.0,288.5,379.0,288.5,387.5,288.5,395.0,287.5,403.0,287.0,411.0,286.5,419.0,286.0,427.0,286.0,435.0,285.0,442.0,284.5,450.0,284.5,458.0,284.0,465.5,283.5,474.0,283.0,482.0,282.5,490.5,282.0,499.0,281.5,508.0,281.0,516.0,280.5" stroke="black" stroke-width="2" fill="none" />
<polyline points="427.5,248.0,419.0,248.5,411.5,249.0,404.0,249.0,396.5,249.0,388.5,249.5,380.5,249.5,373.0,250.0,365.5,250.0,358.0,250.0,349.5,251.0,342.0,251.5" stroke="black" stroke-width="2" fill="none" />
<polyline points="341.5,249.0,349.5,248.5,357.5,248.5,365.5,248.0,373.5,248.0,381.5,247.5,389.5,247.0,397.0,246.5,405.0,245.5,412.5,245.0" stroke="black" stroke-width="2" fill="none" />
<polyline points="404.0,214.0,395.5,214.5,387.0,215.0,379.0,215.5,371.5,216.5,364.0,217.5,356.0,218.0,348.0,218.5" stroke="black" stroke-width="2" fill="none" />
<polyline points="347.5,214.5,355.5,214.0,363.5,213.0,371.5,212.5,379.0,212.0,387.5,211.0,395.0,210.5,403.0,210.0,411.0,210.0" stroke="black" stroke-width="2" fill="none" />
<polyline points="413.0,212.5,405.0,213.0,397.0,214.5,389.5,215.0,381.5,216.0,373.5,216.5,365.5,217.0,358.0,218.0,350.0,219.0,341.5,219.0,333.5,220.0,325.5,220.0,318.0,220.0,310.0,220.0,302.0,219.5,294.0,219.5,285.5,220.0,277.5,220.0,269.5,220.5" stroke="black" stroke-width="2" fill="none" />
<polyline points="269.0,223.0,277.0,223.0,284.5,223.0" stroke="black" stroke-width="2" fill="none" />
<polyline points="281.0,219.5,273.0,227.5,265.5,236.0" stroke="black" stroke-width="2" fill="none" />
<polyline points="266.0,237.5,274.5,237.0" stroke="black" stroke-width="2" fill="none" />
<polyline points="274.0,236.0,266.0,243.5" stroke="black" stroke-width="2" fill="none" />
<polyline points="276.0,246.0,284.0,245.5,291.5,244.5,299.5,244.0,307.5,243.5,315.5,242.5,323.0,242.5,331.0,242.5,339.0,242.0,347.0,242.0,355.0,241.5,363.0,241.0,371.0,240.5,379.0,240.0,386.5,239.5,394.5,239.0,402.5,238.0,411.0,237.0,420.0,236.0,429.0,235.5,437.0,235.0" stroke="black" stroke-width="2" fill="none" />
<polyline points="405.0,219.5,397.0,220.0,389.0,220.5,380.0,221.0,371.0,222.0,362.5,223.0,354.5,224.0,346.5,224.5,339.0,225.0,331.0,225.5,323.0,226.0,315.0,226.5" stroke="black" stroke-width="2" fill="none" />
<polyline points="314.5,219.5,306.5,226.5,298.5,234.0,290.5,241.5,282.5,249.0" stroke="black" stroke-width="2" fill="none" />
<polyline points="284.0,253.0,292.0,252.5" stroke="black" stroke-width="2" fill="none" />
<polyline points="291.0,256.5,283.5,257.0" stroke="black" stroke-width="2" fill="none" />
<polyline points="283.5,254.5,291.5,247.0,300.0,239.5,308.0,232.0,315.5,225.0,323.5,218.5,331.5,211.5,339.0,204.5,347.0,197.5" stroke="black" stroke-width="2" fill="none" />
<polyline points="340.0,197.5,332.0,204.5" stroke="black" stroke-width="2" fill="none" />
<polyline points="325.5,213.5,333.5,213.0,341.0,212.5" stroke="black" stroke-width="2" fill="none" />
<polyline points="345.5,211.0,353.5,211.0,361.5,210.0,370.0,209.5" stroke="black" stroke-width="2" fill="none" />
<polyline points="371.5,210.5,363.5,218.0,355.0,225.5,347.0,233.0,339.0,240.5" stroke="black" stroke-width="2" fill="none" />
<polyline points="340.0,246.5,347.5,239.0,355.5,231.5,363.5,224.5,371.5,217.0,379.5,209.5,387.5,202.5,396.0,195.5,404.0,188.0" stroke="black" stroke-width="2" fill="none" />
<polyline points="404.0,196.0,396.5,204.0,388.5,212.0,380.0,219.5,371.5,226.5,363.5,233.0,355.0,240.0,347.0,247.0,338.5,254.0,330.5,261.0,322.5,268.5,314.5,276.0,306.5,283.5" stroke="black" stroke-width="2" fill="none" />
<polyline points="299.0,269.0,291.0,276.0,283.5,283.5,275.5,291.0,267.5,299.0" stroke="black" stroke-width="2" fill="none" />
<polyline points="269.0,299.0,276.5,292.0,284.5,284.0,292.0,276.0,300.0,268.5,308.0,261.0,315.5,253.0,324.0,246.0,331.5,238.5,339.5,231.5,347.5,224.5,355.0,218.0,363.0,211.0,370.5,204.0,378.5,196.5,386.5,189.0,394.5,181.0" stroke="black" stroke-width="2" fill="none" />
<polyline points="403.5,177.0,395.5,184.5,387.5,192.5,379.5,200.5" stroke="black" stroke-width="2" fill="none" />
<polyline points="379.0,206.0,387.0,205.5,395.0,204.0,403.0,203.0" stroke="black" stroke-width="2" fill="none" />
<polyline points="402.5,205.5,394.5,206.0,386.5,206.5,378.5,207.0" stroke="black" stroke-width="2" fill="none" />
<polyline points="378.5,194.0,387.0,193.5,394.5,192.5,402.5,191.5" stroke="black" stroke-width="2" fill="none" />
<polyline points="411.0,194.0,419.0,193.5" stroke="black" stroke-width="2" fill="none" />
<polyline points="418.5,187.5,410.5,195.5,402.5,203.0,395.0,210.5,388.0,218.0,380.0,226.0,372.5,233.5,364.5,242.0,356.5,249.5,348.5,257.0,341.0,264.0,332.5,271.5,324.0,279.0,315.5,286.5,307.5,294.0,299.0,301.5,291.0,308.5,282.5,315.5,274.0,322.5" stroke="black" stroke-width="2" fill="none" />
<polyline points="277.5,327.0,285.5,326.5,293.5,325.5,301.0,324.5,308.5,323.5,316.0,323.0,323.5,323.0,331.5,322.5,339.5,322.5,347.0,322.0,355.0,321.5,363.0,321.0,371.0,321.0,379.0,320.5,387.0,319.5,395.5,319.0,404.0,319.0,412.5,318.5" stroke="black" stroke-width="2" fill="none" />
<polyline points="406.5,318.5,409.5,330.5" stroke="black" stroke-width="2" fill="none" />
<polyline points="403.0,324.0,395.0,331.5,387.5,338.5" stroke="black" stroke-width="2" fill="none" />
<polyline points="378.5,336.0,386.5,335.5,395.0,335.0,403.0,335.0" stroke="black" stroke-width="2" fill="none" />
<polyline points="403.0,326.5,394.0,326.5,385.5,327.0" stroke="black" stroke-width="2" fill="none" />
<polyline points="387.0,319.5,395.0,319.0,402.5,319.0" stroke="black" stroke-width="2" fill="none" />
<polyline points="397.5,318.5,409.0,311.0,421.5,307.0,424.0,310.0" stroke="black" stroke-width="2" fill="none" />
<polyline points="355.0,286.0,346.5,293.5,339.0,301.0,330.5,308.0,322.5,314.5,314.0,321.5,306.0,329.5,298.5,337.5" stroke="black" stroke-width="2" fill="none" />
<polyline points="309.0,337.5,316.5,329.0,324.0,321.0,332.5,312.5" stroke="black" stroke-width="2" fill="none" />
<polyline points="329.5,310.0,334.0,314.5,336.5,326.0,338.0,338.0" stroke="black" stroke-width="2" fill="none" />
<polyline points="340.0,342.0,332.5,337.5,330.0,325.5,328.5,313.5,321.0,301.5,322.5,300.0,310.5,304.0" stroke="black" stroke-width="2" fill="none" />
<polyline points="308.0,304.0,300.5,305.0,292.5,305.5" stroke="black" stroke-width="2" fill="none" />
<polyline points="300.0,311.5,292.0,311.5,284.0,312.0,276.5,312.5" stroke="black" stroke-width="2" fill="none" />
<polyline points="266.5,310.5,275.0,303.0,283.0,295.0,291.5,288.0,300.0,280.5,308.0,273.0,316.0,265.5,324.0,258.5,332.0,251.0" stroke="black" stroke-width="2" fill="none" />
<polyline points="331.5,259.5,324.0,267.0" stroke="black" stroke-width="2" fill="none" />
<polyline points="324.5,274.5,332.0,273.5,339.5,273.0" stroke="black" stroke-width="2" fill="none" />
<polyline points="351.5,271.0,363.5,268.0,375.5,262.0,388.0,248.5,397.0,238.0,402.0,220.0" stroke="black" stroke-width="2" fill="none" />
<polyline points="395.0,228.5,387.0,229.0,379.0,229.5,371.0,230.0,363.0,230.5,355.0,230.5,347.5,231.0,339.5,232.0,332.0,233.0,324.0,233.5,315.5,233.5,307.5,233.5" stroke="black" stroke-width="2" fill="none" />
<polyline points="299.5,243.5,307.5,242.5,316.0,242.5,324.0,242.0,331.5,241.0,339.0,240.0,347.5,239.0,355.0,238.5,362.5,238.0,370.5,237.5,378.5,237.0,386.0,236.5,394.5,236.0,403.0,235.0" stroke="black" stroke-width="2" fill="none" />
<polyline points="410.5,252.5,402.5,253.0,394.5,253.5,386.5,254.0,378.5,254.5,371.0,255.0,363.5,256.0,355.5,257.0,348.0,258.5,340.0,259.5,332.0,261.0,324.5,262.0,316.5,262.5,309.0,263.0" stroke="black" stroke-width="2" fill="none" />
<polyline points="308.0,264.5,316.0,264.0,324.0,264.0,331.5,264.0,339.0,263.5,346.5,263.0,354.5,262.0,362.5,260.5,370.5,260.0,378.5,259.5" stroke="black" stroke-width="2" fill="none" />
<polyline points="355.0,281.5,347.0,282.0,339.0,282.0,331.0,282.5" stroke="black" stroke-width="2" fill="none" />
<polyline points="335.5,284.5,347.5,284.5" stroke="black" stroke-width="2" fill="none" />
<polyline points="308.0,253.5,316.5,246.5,324.5,239.5,332.5,232.5,340.5,226.0,348.5,218.5,356.5,211.0,364.5,203.5,371.5,195.0,380.0,187.0" stroke="black" stroke-width="2" fill="none" />
<polyline points="372.5,186.0,364.5,194.0,356.5,201.5,348.0,209.0" stroke="black" stroke-width="2" fill="none" />
<polyline points="355.5,198.0,347.5,204.5,339.5,211.5,331.5,218.5,323.0,226.0,315.0,233.5,306.5,240.5,298.0,248.5" stroke="black" stroke-width="2" fill="none" />
<polyline points="295.5,246.5,307.5,258.5" stroke="black" stroke-width="2" fill="none" />
<polyline points="299.5,257.0,307.5,256.5,315.0,256.5,323.0,256.5,331.0,256.5" stroke="black" stroke-width="2" fill="none" />
<polyline points="331.5,252.5,323.0,253.0,315.0,253.0,307.0,253.5,299.0,254.5" stroke="black" stroke-width="2" fill="none" />
<polyline points="298.5,257.0,306.5,250.0,314.0,243.0,321.5,236.5,329.0,229.0,336.5,221.5" stroke="black" stroke-width="2" fill="none" />
<polyline points="340.5,216.0,333.0,216.5,324.5,217.0" stroke="black" stroke-width="2" fill="none" />
<polyline points="316.5,210.5,308.5,210.5,300.0,211.0,292.0,211.5,284.5,212.0,277.0,212.5,268.5,213.5" stroke="black" stroke-width="2" fill="none" />
<polyline points="267.5,217.0,275.5,209.5,283.5,202.0" stroke="black" stroke-width="2" fill="none" />
<polyline points="284.5,208.5,276.5,208.5" stroke="black" stroke-width="2" fill="none" />
<polyline points="274.5,205.0,282.5,205.0" stroke="black" stroke-width="2" fill="none" />
<polyline points="283.5,211.5,275.5,218.5,267.0,226.0" stroke="black" stroke-width="2" fill="none" />
<polyline points="269.5,229.5,277.5,229.0" stroke="black" stroke-width="2" fill="none" />
<polyline points="284.5,228.0,293.0,227.5,301.0,227.0,309.5,227.0,317.5,226.5,325.5,225.5,333.5,225.0,341.5,225.0,349.5,224.0,357.5,223.0,366.0,222.5,373.5,222.0,382.0,221.0,389.5,221.0,397.0,221.0,404.5,220.5" stroke="black" stroke-width="2" fill="none" />
<polyline points="409.5,204.5,424.5,207.5,421.0,219.5,419.5,231.5,409.0,239.0,406.0,251.0,395.5,254.0,397.0,260.0,382.0,268.5" stroke="black" stroke-width="2" fill="none" />
<polyline points="409.5,299.5,402.0,300.5,395.0,302.0,388.0,303.0,380.5,303.0,372.5,304.0,365.0,304.5,357.5,305.0,349.5,305.5,341.0,306.5,332.5,307.5,324.0,308.0,315.5,308.5,307.0,308.5,298.5,309.0,290.0,309.0,281.5,309.0,273.5,309.5,265.5,310.0" stroke="black" stroke-width="2" fill="none" />
<polyline points="264.5,308.0,266.0,320.0,267.5,332.0" stroke="black" stroke-width="2" fill="none" />
<polyline points="266.5,305.5,275.0,305.0,283.0,304.5" stroke="black" stroke-width="2" fill="none" />
<polyline points="270.0,302.0,278.0,301.5,285.5,302.0,293.0,301.5,300.5,300.0,308.5,299.5,317.0,298.5,324.5,298.0,332.5,297.0,340.5,296.5,348.5,296.0,357.0,295.5,365.0,294.5,373.0,294.0,381.0,294.0,389.0,294.0,396.5,294.0,404.0,293.5,411.5,293.0,419.0,292.5,427.0,291.5,435.0,291.5,443.5,291.0,452.0,290.5,460.5,290.5,469.5,290.5,477.5,290.5,485.0,290.0,493.0,290.0,501.5,289.5,509.5,288.5,517.0,288.0" stroke="black" stroke-width="2" fill="none" />
<polyline points="411.0,198.5,402.5,199.0,394.5,199.5,386.5,200.0,378.0,200.0,369.5,200.0,361.0,200.5" stroke="black" stroke-width="2" fill="none" />
<polyline points="371.0,200.5,363.0,201.5,355.5,202.0,348.0,202.5,340.5,203.0,333.0,203.0,325.0,203.0,317.0,203.0,309.0,203.5,301.0,204.5,292.5,205.0" stroke="black" stroke-width="2" fill="none" />
<polyline points="298.0,205.0,310.0,191.5" stroke="black" stroke-width="2" fill="none" />
<polyline points="305.5,203.5,297.5,211.0" stroke="black" stroke-width="2" fill="none" />
<polyline points="283.5,202.0,275.5,202.0" stroke="black" stroke-width="2" fill="none" />
<polyline points="274.5,201.5,282.5,194.0" stroke="black" stroke-width="2" fill="none" />
<polyline points="284.5,189.5,292.5,189.0,301.0,188.5,309.0,188.0,317.0,188.0,324.5,187.0" stroke="black" stroke-width="2" fill="none" />
<polyline points="330.5,189.5,338.0,189.0,345.5,188.5,353.0,188.5,361.5,188.5,369.0,188.0,377.0,187.5,385.0,187.0,393.5,187.0,402.5,186.5,411.0,186.5,418.5,186.0,427.0,185.5,435.0,185.0" stroke="black" stroke-width="2" fill="none" />
<polyline points="413.0,172.0,405.5,172.5,397.5,172.5,388.5,172.5,380.0,172.5,371.5,173.0,363.0,173.5,355.0,173.5" stroke="black" stroke-width="2" fill="none" />
<polyline points="347.0,170.0,339.0,170.5,332.0,171.5,323.5,171.5,316.0,171.5,308.5,171.5,301.0,172.0,293.5,172.5" stroke="black" stroke-width="2" fill="none" />
<polyline points="293.5,178.5,285.5,186.5" stroke="black" stroke-width="2" fill="none" />
<polyline points="283.0,186.0,275.5,187.0" stroke="black" stroke-width="2" fill="none" />
<polyline points="275.5,186.5,284.0,179.0" stroke="black" stroke-width="2" fill="none" />
<polyline points="285.0,178.5,277.0,179.0" stroke="black" stroke-width="2" fill="none" />
<polyline points="274.0,178.5,282.0,171.0" stroke="black" stroke-width="2" fill="none" />
<polyline points="283.0,173.5,275.5,174.0" stroke="black" stroke-width="2" fill="none" />
<polyline points="274.0,169.5,282.5,162.0" stroke="black" stroke-width="2" fill="none" />
<polyline points="282.5,166.0,274.5,166.5" stroke="black" stroke-width="2" fill="none" />
<polyline points="270.5,169.0,282.5,164.5,294.5,157.0" stroke="black" stroke-width="2" fill="none" />
<polyline points="301.5,166.5,309.5,166.0" stroke="black" stroke-width="2" fill="none" />
<polyline points="313.0,164.5,321.0,164.0,329.5,163.5,338.0,163.0,346.0,162.5,354.0,162.0,362.5,161.5,370.5,161.0,378.5,160.0,386.0,158.5" stroke="black" stroke-width="2" fill="none" />
<polyline points="385.0,163.0,397.0,172.0,408.5,174.5,420.5,180.5" stroke="black" stroke-width="2" fill="none" />
<polyline points="410.5,187.5,402.5,189.0,394.5,190.0,387.0,190.5,379.5,191.0,372.0,191.0,364.0,191.0,356.0,191.5,348.0,192.0,340.0,193.0,332.0,193.5,323.5,194.5,315.0,195.5,307.0,196.0,299.5,196.5,292.0,197.0,284.0,197.5,276.0,198.0" stroke="black" stroke-width="2" fill="none" />
<polyline points="288.5,191.5,300.5,173.5,312.5,163.5,328.5,156.0,340.5,154.0" stroke="black" stroke-width="2" fill="none" />
<polyline points="330.5,158.0,339.0,157.5,347.0,157.0,354.5,156.5,362.5,156.0,370.5,156.0,378.5,155.5" stroke="black" stroke-width="2" fill="none" />
<polyline points="370.0,163.5,377.5,166.5,377.0,162.0,385.5,174.0,392.5,177.0,397.0,185.0,392.0,190.5,401.0,203.0" stroke="black" stroke-width="2" fill="none" />
<polyline points="414.0,184.5,402.0,174.0" stroke="black" stroke-width="2" fill="none" />
<polyline points="405.0,173.5,421.0,188.5,435.0,194.5,450.0,200.5,461.5,203.0,473.5,207.5,485.5,210.5" stroke="black" stroke-width="2" fill="none" />
<polyline points="403.0,156.5,395.0,164.0" stroke="black" stroke-width="2" fill="none" />
<polyline points="397.0,165.0,404.5,164.5" stroke="black" stroke-width="2" fill="none" />
<polyline points="405.5,162.0,397.5,162.5" stroke="black" stroke-width="2" fill="none" />
<polyline points="397.0,157.0,405.0,156.5" stroke="black" stroke-width="2" fill="none" />
<polyline points="395.0,146.5,384.5,158.5,401.5,172.5,406.5,184.5,415.5,195.0,413.0,207.0,405.0,217.5,396.0,226.5,394.5,237.0,388.0,247.5,379.5,259.5,368.5,265.5,371.5,286.5,379.0,279.5,390.5,276.5,396.5,259.0,401.0,256.0,411.5,236.5" stroke="black" stroke-width="2" fill="none" />
<polyline points="443.5,227.5,435.5,228.0,428.0,228.5,420.0,229.0,411.5,229.0,403.5,230.0,395.0,230.0,387.0,230.5,379.0,231.5,371.0,232.5,363.0,233.5,355.0,233.5,347.0,233.5,339.5,233.5,331.5,233.5,323.5,233.5,316.0,234.0,308.0,234.5,300.0,235.0,291.5,235.5,283.0,236.5" stroke="black" stroke-width="2" fill="none" />
<polyline points="283.5,244.5,275.5,251.5" stroke="black" stroke-width="2" fill="none" />
<polyline points="276.5,249.5,284.5,249.0,292.5,249.0,300.5,249.0,308.0,248.5,315.5,248.0,323.5,247.5,332.0,247.0" stroke="black" stroke-width="2" fill="none" />
<polyline points="329.0,258.5,332.0,246.5,333.5,235.0,333.5,232.5" stroke="black" stroke-width="2" fill="none" />
<polyline points="363.0,218.0,375.0,222.5" stroke="black" stroke-width="2" fill="none" />
<polyline points="356.0,153.5,364.0,146.5,372.0,139.0" stroke="black" stroke-width="2" fill="none" />
<polyline points="372.0,132.0,364.5,139.0,356.0,146.5" stroke="black" stroke-width="2" fill="none" />
<polyline points="354.5,145.5,363.0,145.0,371.5,144.5" stroke="black" stroke-width="2" fill="none" />
<polyline points="371.5,132.0,363.5,132.5" stroke="black" stroke-width="2" fill="none" />
<polyline points="367.0,130.0,355.0,127.5,347.5,147.0,338.0,144.0,326.0,136.0,314.0,139.0" stroke="black" stroke-width="2" fill="none" />
<polyline points="324.0,142.0,332.0,142.0" stroke="black" stroke-width="2" fill="none" />
<polyline points="324.5,135.5,314.0,139.0,305.0,151.0,285.5,161.5,275.0,163.5,274.0,175.0,268.0,187.0,266.5,199.0,266.5,211.5,262.5,223.5,259.5,235.5,273.0,247.5,282.0,259.5,271.5,271.5,267.0,283.5,267.0,292.5,264.0,305.0,256.5,317.0,257.5,329.0" stroke="black" stroke-width="2" fill="none" />
<polyline points="252.5,309.5,245.0,310.0" stroke="black" stroke-width="2" fill="none" />
<polyline points="268.5,297.5,276.5,297.0,285.0,297.0,293.0,297.0,301.0,296.0" stroke="black" stroke-width="2" fill="none" />
<polyline points="300.0,290.5,292.0,291.0,283.5,292.0,275.5,292.5,267.5,293.5" stroke="black" stroke-width="2" fill="none" />
<polyline points="267.0,287.0,274.5,286.5,282.0,286.0,290.5,286.0,299.0,285.5,307.5,285.0,315.5,284.5,322.5,284.0,330.0,283.5,337.5,283.0,345.5,282.5,353.5,282.0,362.0,281.5,370.0,280.5,378.5,279.5,386.5,279.0,395.0,278.5,403.5,278.0,412.0,277.5,420.0,277.0,428.0,276.5,436.0,276.0,444.0,275.5,451.5,274.5,459.0,273.5,467.0,273.0,475.5,272.5,484.0,272.0,492.5,272.0,501.0,271.5,509.5,271.5,517.0,270.0" stroke="black" stroke-width="2" fill="none" />
<polyline points="370.5,140.0,362.0,140.0,353.5,140.5" stroke="black" stroke-width="2" fill="none" />
<polyline points="364.0,147.5,356.0,148.0,348.0,148.5,340.0,149.0,332.0,150.0,324.0,150.5" stroke="black" stroke-width="2" fill="none" />
<polyline points="316.0,154.5,308.0,162.0" stroke="black" stroke-width="2" fill="none" />
<polyline points="308.5,156.0,316.0,155.5,323.5,155.0" stroke="black" stroke-width="2" fill="none" />
<polyline points="309.5,170.5,309.5,173.5,318.5,185.5,321.0,197.5,303.0,200.5,299.0,212.5,302.0,215.5,305.0,220.5,311.0,216.0,320.0,207.0,330.5,214.5,344.0,211.5,356.5,206.0,358.0,210.0,369.5,205.5,381.5,205.0" stroke="black" stroke-width="2" fill="none" />
<polyline points="427.0,172.5,419.0,173.0,411.0,173.5,403.0,173.5,395.5,174.0,387.5,175.0,380.0,176.0,372.0,176.5,363.5,176.5,355.5,176.5,348.0,177.5,340.0,177.5,332.0,177.5,323.5,178.0,315.0,178.5,307.5,179.0,299.5,179.5,291.5,180.5,284.0,181.5,276.0,182.5" stroke="black" stroke-width="2" fill="none" />
<polyline points="272.0,162.5,284.0,155.0,296.0,154.5,308.5,150.0,317.5,157.5,302.5,169.5,293.5,181.5,287.5,194.0,284.5,206.0,284.5,218.0,286.0,230.5,290.5,242.5,307.0,262.0,320.5,267.5" stroke="black" stroke-width="2" fill="none" />
<polyline points="289.5,267.0,281.5,267.5" stroke="black" stroke-width="2" fill="none" />
<polyline points="283.0,273.5,297.0,270.5,303.0,292.0,283.5,304.0,279.0,307.0,291.0,298.0,303.0,291.5" stroke="black" stroke-width="2" fill="none" />
<polyline points="325.0,278.0,317.0,278.0,309.0,278.5,301.0,279.5,293.0,280.0,284.5,280.5,276.5,280.5" stroke="black" stroke-width="2" fill="none" />
<polyline points="276.0,271.5,284.0,271.0,292.0,270.5,300.0,269.5,308.0,269.0,316.5,268.0,324.5,267.0,332.5,266.0,341.0,265.0,349.0,264.5,357.5,264.5,365.5,264.0,373.0,263.5,380.5,263.0,388.0,262.0,396.0,261.5,403.5,261.0,412.0,260.5,420.0,260.0,428.5,259.5,437.0,259.0,444.5,259.0,452.0,258.5,460.0,258.5,468.5,258.0,476.0,257.5,484.0,257.5,491.5,257.0,499.5,256.5,507.0,256.5,515.5,256.0" stroke="black" stroke-width="2" fill="none" />
<polyline points="459.0,266.0,451.5,266.5,443.5,267.0,435.5,268.0,427.5,268.5,419.5,269.0,411.0,270.0,402.5,270.5,395.0,271.5,386.5,272.0,378.5,271.5,370.5,271.5,362.5,271.5,355.0,271.5,347.5,272.0,339.0,272.5,331.0,273.5,322.5,274.0,314.0,275.0,305.5,275.5,297.5,276.5,290.0,277.0,282.5,278.0,275.0,279.0,267.0,280.0" stroke="black" stroke-width="2" fill="none" />
<polyline points="265.5,282.0,277.5,264.0,298.5,271.5,313.5,270.0,326.0,270.5" stroke="black" stroke-width="2" fill="none" />
<polyline points="293.0,262.0,285.0,262.5,277.0,263.0" stroke="black" stroke-width="2" fill="none" />
<polyline points="276.0,232.5,267.5,233.0" stroke="black" stroke-width="2" fill="none" />
<polyline points="315.0,178.5,327.0,190.5,326.5,198.0,335.5,210.0,350.5,227.5" stroke="black" stroke-width="2" fill="none" />
<polyline points="406.0,154.5,394.0,148.5,382.0,160.5,376.0,151.0,354.5,154.0,351.5,155.5,350.0,143.5,351.5,132.0,360.5,127.5" stroke="black" stroke-width="2" fill="none" />
<polyline points="260.5,312.5,253.0,313.0,245.0,313.5,237.5,314.0,229.5,314.5,221.0,315.5,212.0,315.5,203.5,315.5,195.5,315.5" stroke="black" stroke-width="2" fill="none" />
<polyline points="155.5,323.5,163.5,323.0,171.5,322.5,179.5,322.5,187.5,322.0,196.0,321.5,204.0,321.0,212.0,320.5,220.5,320.5,228.5,320.0,236.5,319.5,244.5,319.5,253.0,319.0,261.0,318.5" stroke="black" stroke-width="2" fill="none" />
<polyline points="147.5,322.5,139.5,323.0,131.0,324.0,123.0,324.0" stroke="black" stroke-width="2" fill="none" />
<polyline points="108.5,332.5,117.0,332.0,125.0,332.0,133.0,331.5,142.0,331.0,149.5,331.0,157.5,331.0,165.0,331.5,172.5,331.5,180.0,331.0,188.0,330.5,196.0,330.0,204.0,329.5,212.0,328.5,220.0,328.0,228.5,327.0,236.5,326.0,244.5,325.0,253.0,324.0,261.0,323.5" stroke="black" stroke-width="2" fill="none" />
<polyline points="508.5,297.5,512.5,288.5,512.5,281.0,512.5,269.0,512.0,257.0,511.5,245.5,511.5,233.5,512.0,228.0,512.0,215.5,512.0,203.5,512.0,191.5,512.0,179.0,512.5,167.5,512.5,155.5,512.5,143.5,512.5,131.5,512.5,119.5,512.0,107.5,512.0,95.5,512.0,83.5,512.0,71.5,512.0,59.5,512.0,47.5,512.5,35.5,512.5,23.0,512.5,11.0,506.5,3.5,494.5,3.0,482.5,3.0,470.5,3.5,458.5,4.0,447.0,4.0,434.5,3.5,422.5,3.5,410.0,3.5,398.0,4.0,386.0,4.0,374.0,4.0,362.0,4.0,350.0,4.0,338.0,4.0,326.0,3.5,314.0,3.5,302.0,3.5,290.0,4.0,278.0,4.0,266.0,4.0,254.0,4.0,242.0,4.0,230.0,4.5,217.5,4.5,205.5,4.5,193.5,5.0,181.5,5.0,169.5,4.0,157.5,4.0,145.5,3.5,134.0,3.5,122.0,3.5,110.0,3.5,97.5,3.5,85.5,3.5,73.0,4.0,61.0,4.0,49.0,4.0,37.0,4.5,25.5,4.5,13.5,5.0,1.5,5.0" stroke="black" stroke-width="2" fill="none" />
</svg>