<svg xmlns="http://www.w3.org/2000/svg" version="1.1"><polyline points="5.0,3.0,5.0,15.5,5.0,27.0,5.0,38.5,4.5,50.5,4.5,62.5,4.5,74.5,4.5,86.0,5.0,98.0,4.5,110.0,4.5,122.0,4.5,134.0,4.5,146.0,4.5,157.5,4.0,170.0,3.5,182.0,4.0,194.0,4.0,206.0,11.5,207.5,23.5,207.0,35.5,207.0,47.5,207.0,59.5,207.0,72.0,207.0,84.0,203.0,94.5,205.5,106.0,205.5,117.5,205.5,129.0,205.0,141.0,204.5,153.0,204.0,165.0,202.5,177.0,203.0,188.5,203.0,200.5,203.0,215.5,197.0,227.0,198.5,231.5,203.0,246.5,210.5,249.5,219.5,267.5,227.5,280.0,229.0,292.0,238.0" stroke="black" stroke-width="2" fill="none" />
<polyline points="292.0,240.0,300.0,232.5,307.5,225.5,315.0,218.0,322.5,211.0,330.0,203.0" stroke="black" stroke-width="2" fill="none" />
<polyline points="328.0,207.0,340.0,202.5,344.0,202.5,356.0,202.5,368.0,209.5,384.5,208.0,396.5,209.0,408.5,212.0,420.5,213.5,432.5,216.5,444.5,218.0,456.5,219.5,468.5,221.5,481.0,224.5,493.0,226.5,505.0,229.5" stroke="black" stroke-width="2" fill="none" />
<polyline points="507.0,227.5,499.0,234.5" stroke="black" stroke-width="2" fill="none" />
<polyline points="498.0,226.0,490.5,233.5,482.5,240.5,475.0,248.0,467.0,255.5,459.5,263.0,452.5,270.5,445.0,277.5,437.5,285.0,430.0,292.5,423.0,300.5,414.5,308.0,406.0,315.5,397.0,323.5,388.0,331.5" stroke="black" stroke-width="2" fill="none" />
<polyline points="402.0,332.5,410.0,325.5,418.0,318.5,426.0,311.0,433.5,303.5,441.5,296.0,449.5,288.0,457.5,281.0,466.0,273.5,474.0,266.0,482.5,258.5,491.5,251.5,500.0,244.0,508.0,236.5,516.0,229.0" stroke="black" stroke-width="2" fill="none" />
<polyline points="516.0,235.5,508.0,243.0,499.5,250.0,491.5,257.0,483.5,264.0,475.5,271.0,467.0,279.0,459.0,287.0,451.0,295.0,442.5,302.5,434.5,310.0,426.5,317.5,419.5,325.0,412.0,332.5" stroke="black" stroke-width="2" fill="none" />
<polyline points="418.5,330.5,426.5,330.0,434.5,330.0,443.0,329.5,451.0,328.5,459.0,328.5,466.5,327.5,474.5,327.5,482.5,327.5,490.5,327.5,499.0,327.5,506.5,326.5,514.0,326.0" stroke="black" stroke-width="2" fill="none" />
<polyline points="514.5,322.5,506.5,330.0,498.5,338.0" stroke="black" stroke-width="2" fill="none" />
<polyline points="508.0,338.5,516.0,330.5" stroke="black" stroke-width="2" fill="none" />
<polyline points="514.0,317.0,506.5,323.5,499.0,330.5,491.5,337.5" stroke="black" stroke-width="2" fill="none" />
<polyline points="483.0,339.0,490.5,331.0,498.5,323.5,506.0,316.0,514.0,308.5" stroke="black" stroke-width="2" fill="none" />
<polyline points="514.0,300.0,506.5,307.0,499.5,314.5,492.0,322.0,484.0,330.0,476.0,337.5" stroke="black" stroke-width="2" fill="none" />
<polyline points="466.0,337.5,474.5,329.5,483.0,322.0,491.5,314.5,500.0,307.0,508.5,299.0,517.0,292.0" stroke="black" stroke-width="2" fill="none" />
<polyline points="515.0,283.0,507.5,290.5,499.5,297.5,491.5,304.5,484.0,312.0,476.0,320.0,467.5,327.5,459.0,335.5" stroke="black" stroke-width="2" fill="none" />
<polyline points="451.0,334.0,459.5,326.5,467.5,318.5,476.0,311.0,484.5,303.5,492.5,296.0,500.5,288.5,508.5,281.0,516.5,273.5" stroke="black" stroke-width="2" fill="none" />
<polyline points="515.5,267.0,507.5,274.5,499.5,281.5,491.5,289.0,483.5,297.0,475.5,305.0,467.5,312.0,459.0,319.0,450.5,326.5,442.5,334.0" stroke="black" stroke-width="2" fill="none" />
<polyline points="435.0,335.0,442.5,327.5,450.0,320.0,458.0,313.0,466.5,306.0,474.5,298.5,482.0,291.0,490.5,283.5,498.5,276.0,506.5,268.0,514.5,260.5" stroke="black" stroke-width="2" fill="none" />
<polyline points="515.5,252.0,507.5,259.5,499.5,267.0,492.0,274.0,484.0,281.0,476.5,288.0,468.5,296.0,460.0,303.5,452.5,311.0,444.5,318.5,437.0,326.5,429.0,333.5" stroke="black" stroke-width="2" fill="none" />
<polyline points="419.5,332.5,428.0,324.0,436.0,316.0,444.5,308.5,452.0,302.0,460.0,295.0,468.5,287.5,476.5,279.5,484.5,272.0,492.5,265.0,500.5,257.5,508.5,250.5,516.5,243.0" stroke="black" stroke-width="2" fill="none" />
<polyline points="489.5,242.5,481.5,250.0,474.0,258.0,466.5,266.0,459.0,273.0,451.5,280.0,444.0,288.0,436.0,296.0,428.0,303.5,420.5,310.0,412.0,317.5,404.5,325.0,396.5,333.0" stroke="black" stroke-width="2" fill="none" />
<polyline points="379.5,331.5,388.5,324.5,396.5,317.0,404.0,309.0,411.5,301.5,420.0,294.0,428.0,287.0,435.5,279.5,443.0,272.5,451.0,265.0,458.5,258.5,466.0,251.0,474.0,244.0,482.5,237.5,490.5,230.5" stroke="black" stroke-width="2" fill="none" />
<polyline points="482.5,228.5,474.5,236.5,466.5,244.0,458.5,251.5,450.5,259.0,443.5,266.5,435.5,273.5,428.5,280.0,421.0,286.5,413.0,294.0,405.0,301.5,396.5,309.0,388.5,317.0,380.0,325.0,371.5,332.0" stroke="black" stroke-width="2" fill="none" />
<polyline points="364.5,333.0,373.0,325.0,381.0,318.0,389.0,310.5,396.5,303.5,404.5,296.0,412.5,288.0,420.5,280.5,428.0,273.0,436.0,265.5,443.5,258.0,451.0,250.5,458.5,243.0,466.5,235.5,474.0,228.0" stroke="black" stroke-width="2" fill="none" />
<polyline points="466.5,227.0,459.0,234.0,451.0,241.5,443.0,249.0,435.0,257.0,427.0,265.0,419.5,272.0,412.5,279.5,405.0,287.0,397.0,295.0,389.5,302.5,381.0,309.5,372.5,316.5,364.5,324.0,356.5,331.5" stroke="black" stroke-width="2" fill="none" />
<polyline points="361.0,331.0,369.0,330.0,377.5,329.5,385.5,329.0,394.0,328.0,402.0,327.5,410.5,327.0" stroke="black" stroke-width="2" fill="none" />
<polyline points="419.0,308.0,427.0,307.5,435.5,306.5" stroke="black" stroke-width="2" fill="none" />
<polyline points="436.0,298.5,443.5,298.0,451.5,297.5,459.5,297.0,467.5,296.5" stroke="black" stroke-width="2" fill="none" />
<polyline points="476.5,289.5,484.5,289.0" stroke="black" stroke-width="2" fill="none" />
<polyline points="489.5,292.0,497.5,291.0" stroke="black" stroke-width="2" fill="none" />
<polyline points="506.0,291.0,514.5,290.0" stroke="black" stroke-width="2" fill="none" />
<polyline points="507.0,297.5,499.5,298.0,491.5,298.0" stroke="black" stroke-width="2" fill="none" />
<polyline points="485.5,307.5,493.0,306.5,501.0,305.5,508.5,304.5" stroke="black" stroke-width="2" fill="none" />
<polyline points="515.5,320.5,507.5,321.5,499.5,322.0,491.5,322.5,483.0,323.0" stroke="black" stroke-width="2" fill="none" />
<polyline points="475.5,304.5,467.5,305.0,460.0,305.5,452.5,306.0" stroke="black" stroke-width="2" fill="none" />
<polyline points="436.0,315.0,444.5,314.0,452.0,313.0,460.0,312.5,468.5,311.5,476.0,311.0,483.5,311.0,490.5,311.0,497.5,311.5,505.5,311.5,514.0,311.0" stroke="black" stroke-width="2" fill="none" />
<polyline points="467.0,270.5,458.5,271.0" stroke="black" stroke-width="2" fill="none" />
<polyline points="434.5,236.5,426.5,243.5,418.5,250.5,411.0,257.5,403.5,265.0,396.0,273.0,388.0,280.0,380.5,287.0,373.0,294.0,365.0,302.0,357.0,310.0,349.0,317.5,340.5,324.5,332.0,332.0" stroke="black" stroke-width="2" fill="none" />
<polyline points="348.5,332.0,356.5,325.0,364.0,317.5,371.5,310.0,379.5,302.5,387.5,294.5,396.0,287.0,404.0,279.5,412.0,272.0,420.5,264.5,429.0,257.5,436.5,250.0,444.0,242.0,452.0,234.5,460.0,226.5,468.5,219.0" stroke="black" stroke-width="2" fill="none" />
<polyline points="451.5,227.0,443.5,234.5,435.5,242.0,427.5,249.5,419.5,257.5,411.0,265.0,403.5,272.5,395.5,279.0,388.0,286.0,381.0,293.0,373.5,301.0,365.5,308.5,357.0,316.5,348.5,324.5,341.0,332.0" stroke="black" stroke-width="2" fill="none" />
<polyline points="324.5,331.5,332.5,323.5,341.0,315.5,349.5,308.0,357.5,300.0,365.5,292.5,373.5,285.0,381.5,277.5,389.0,270.5,397.0,263.0,405.0,256.0,412.5,249.0,420.0,242.0,428.0,235.0,436.0,228.0,444.5,220.5" stroke="black" stroke-width="2" fill="none" />
<polyline points="434.5,220.0,426.5,227.5,418.5,235.5,410.5,243.0,403.0,250.5,395.0,257.5,387.5,265.5,380.0,273.0,372.0,280.5,364.0,288.0" stroke="black" stroke-width="2" fill="none" />
<polyline points="363.0,281.5,370.5,274.0,379.0,266.5,387.0,259.5,395.0,252.0,403.0,244.5,410.5,236.5,418.5,229.5" stroke="black" stroke-width="2" fill="none" />
<polyline points="418.5,222.0,410.5,229.0,402.5,237.0,394.5,244.5,386.5,252.0,378.5,259.0,370.0,266.0,362.0,273.5" stroke="black" stroke-width="2" fill="none" />
<polyline points="361.5,265.0,370.0,257.5,378.5,250.0,387.0,242.5,394.5,235.0,402.5,227.5,411.0,219.5,419.5,211.5" stroke="black" stroke-width="2" fill="none" />
<polyline points="412.5,210.0,404.0,218.0,396.0,225.5,388.0,233.5,379.0,242.0,370.5,250.0" stroke="black" stroke-width="2" fill="none" />
<polyline points="372.0,248.5,380.0,248.0" stroke="black" stroke-width="2" fill="none" />
<polyline points="379.5,257.0,371.0,257.5" stroke="black" stroke-width="2" fill="none" />
<polyline points="373.0,263.0,381.0,262.5" stroke="black" stroke-width="2" fill="none" />
<polyline points="373.0,271.5,381.0,271.0,389.0,271.0,396.5,271.0" stroke="black" stroke-width="2" fill="none" />
<polyline points="396.0,287.5,388.0,288.0,379.5,288.5,371.5,289.0" stroke="black" stroke-width="2" fill="none" />
<polyline points="370.0,298.0,378.0,297.5,386.0,297.0" stroke="black" stroke-width="2" fill="none" />
<polyline points="393.0,306.0,401.0,305.5,409.0,305.5" stroke="black" stroke-width="2" fill="none" />
<polyline points="412.5,299.5,420.5,299.5" stroke="black" stroke-width="2" fill="none" />
<polyline points="426.5,310.5,418.5,311.0,411.0,312.0,403.0,312.0,395.5,312.5,388.0,312.5,380.0,312.5,372.5,312.5" stroke="black" stroke-width="2" fill="none" />
<polyline points="373.0,304.5,380.5,304.0,387.5,304.0" stroke="black" stroke-width="2" fill="none" />
<polyline points="373.5,321.5,381.5,321.0,389.0,320.0,397.0,319.0,404.5,318.5,412.5,318.0,420.0,317.5,427.5,317.5,435.0,317.0,442.5,317.0,451.0,316.5,459.0,316.0,466.5,315.5,474.5,314.5" stroke="black" stroke-width="2" fill="none" />
<polyline points="381.5,278.5,374.0,279.5" stroke="black" stroke-width="2" fill="none" />
<polyline points="356.0,260.5,363.5,260.0,371.0,259.5,379.0,259.5,386.5,260.0,394.5,260.5,403.0,260.0,411.5,259.5,420.0,259.0,428.0,258.5,436.0,257.5,443.5,257.0,451.5,256.5,459.5,256.0,467.5,255.5,475.0,255.0,483.0,254.5,491.0,254.5,499.0,254.0,506.5,253.5,514.5,253.5" stroke="black" stroke-width="2" fill="none" />
<polyline points="404.5,211.0,396.5,219.0,388.0,226.5,379.5,234.5,371.5,242.5" stroke="black" stroke-width="2" fill="none" />
<polyline points="373.0,241.5,381.0,241.0" stroke="black" stroke-width="2" fill="none" />
<polyline points="382.5,233.5,374.5,233.5" stroke="black" stroke-width="2" fill="none" />
<polyline points="372.0,235.0,379.5,227.5,387.0,220.0,394.5,212.0" stroke="black" stroke-width="2" fill="none" />
<polyline points="386.0,213.5,378.5,221.0,370.0,228.5" stroke="black" stroke-width="2" fill="none" />
<polyline points="368.0,231.0,363.5,243.0,364.5,255.0,363.0,272.0,361.5,281.5" stroke="black" stroke-width="2" fill="none" />
<polyline points="346.0,298.5,337.5,306.0,329.5,313.0,322.0,321.0,314.5,328.5,307.0,336.0" stroke="black" stroke-width="2" fill="none" />
<polyline points="314.5,337.0,322.0,329.0,330.0,322.0,338.0,314.5,346.0,307.0" stroke="black" stroke-width="2" fill="none" />
<polyline points="340.0,301.0,331.5,308.5,324.0,315.5,316.0,323.0,308.0,331.0,300.0,338.5" stroke="black" stroke-width="2" fill="none" />
<polyline points="291.5,338.5,299.5,330.5,308.0,323.0,316.5,315.5,325.5,307.5,333.5,300.5" stroke="black" stroke-width="2" fill="none" />
<polyline points="331.5,293.0,323.5,300.5,315.5,308.0,307.5,315.0,299.0,322.0,290.5,329.5,282.0,337.0" stroke="black" stroke-width="2" fill="none" />
<polyline points="258.5,335.5,266.5,328.0,274.0,320.0,282.5,312.5,290.5,304.5,299.0,297.0,307.0,290.0,315.0,282.5,323.0,275.0,331.0,267.0,339.0,259.5" stroke="black" stroke-width="2" fill="none" />
<polyline points="339.5,252.5,331.0,260.5,323.5,268.0,315.5,275.5,307.0,283.0,299.0,290.0,291.0,297.0,282.5,304.5,274.5,311.5,266.5,319.0,258.0,327.0,250.5,334.5" stroke="black" stroke-width="2" fill="none" />
<polyline points="243.0,332.5,251.0,325.0,258.5,318.0,266.5,310.5,275.5,303.0,283.5,296.0,292.0,289.0,300.0,282.0,308.0,274.0,316.0,266.0,323.5,258.5,331.5,251.0,339.5,243.5" stroke="black" stroke-width="2" fill="none" />
<polyline points="347.5,226.0,339.5,233.5,331.5,241.5,323.5,249.5,315.0,257.0,307.0,264.0,299.0,272.0,291.5,279.5,283.5,287.5,276.5,295.0,268.0,302.5,260.0,310.0,251.5,317.0,243.5,324.0,235.5,331.0" stroke="black" stroke-width="2" fill="none" />
<polyline points="227.5,327.5,235.5,326.5,243.5,326.5,252.0,326.0,260.0,326.5,268.0,326.0,276.0,326.0,284.0,325.0,292.0,324.0,300.5,323.5" stroke="black" stroke-width="2" fill="none" />
<polyline points="314.5,323.5,323.5,323.0" stroke="black" stroke-width="2" fill="none" />
<polyline points="314.5,330.5,322.5,330.0,330.0,329.5,338.0,329.0" stroke="black" stroke-width="2" fill="none" />
<polyline points="323.0,291.5,315.5,299.0,308.0,307.0,300.0,314.5,292.0,322.0,283.5,329.5,275.5,337.5" stroke="black" stroke-width="2" fill="none" />
<polyline points="266.5,337.0,274.0,329.5,282.5,322.5,290.5,315.0,298.5,307.0,306.5,298.5,315.0,290.5,323.0,282.5,331.5,275.0" stroke="black" stroke-width="2" fill="none" />
<polyline points="314.5,288.5,306.0,289.5" stroke="black" stroke-width="2" fill="none" />
<polyline points="307.0,281.0,315.0,281.0,323.0,281.0" stroke="black" stroke-width="2" fill="none" />
<polyline points="324.0,272.5,316.5,272.5,308.5,272.5" stroke="black" stroke-width="2" fill="none" />
<polyline points="308.0,265.5,316.0,265.5,324.0,265.5" stroke="black" stroke-width="2" fill="none" />
<polyline points="332.5,254.0,324.0,254.5,316.0,255.0,308.5,255.0,300.5,255.5" stroke="black" stroke-width="2" fill="none" />
<polyline points="299.0,247.5,307.0,247.0,315.0,247.5,323.5,247.5,332.5,247.0" stroke="black" stroke-width="2" fill="none" />
<polyline points="330.5,219.5,322.5,226.5,314.5,234.0,306.5,242.0,298.0,250.5,290.5,258.0" stroke="black" stroke-width="2" fill="none" />
<polyline points="292.0,272.0,299.5,264.5,308.0,257.0,315.5,249.5,323.5,241.5,331.0,233.5,339.0,226.5,347.0,219.5" stroke="black" stroke-width="2" fill="none" />
<polyline points="339.0,220.0,331.0,227.5,323.0,234.5,315.0,241.5,307.0,248.5,299.0,256.0,291.5,264.0" stroke="black" stroke-width="2" fill="none" />
<polyline points="276.0,267.5,268.5,275.0,260.5,282.5,252.0,290.0,243.5,297.5,235.0,305.0,227.0,312.5,218.5,320.0,211.0,328.0,203.5,335.5" stroke="black" stroke-width="2" fill="none" />
<polyline points="220.0,336.0,228.5,328.5,236.5,321.0,244.5,313.5,252.0,306.0,260.0,299.0,268.0,292.5,276.0,285.5" stroke="black" stroke-width="2" fill="none" />
<polyline points="283.0,284.0,274.5,291.5,266.5,299.5,258.5,307.5,250.0,315.0,242.5,322.5,235.0,330.0,227.5,337.0" stroke="black" stroke-width="2" fill="none" />
<polyline points="211.5,337.0,220.0,329.5,228.5,321.5,236.5,314.0,245.0,307.0,252.5,299.5,261.0,292.0,270.0,284.0,278.0,276.0" stroke="black" stroke-width="2" fill="none" />
<polyline points="267.5,268.5,259.5,275.5,251.0,283.0,243.0,290.5" stroke="black" stroke-width="2" fill="none" />
<polyline points="244.5,287.5,252.0,287.0,260.0,287.0" stroke="black" stroke-width="2" fill="none" />
<polyline points="267.5,296.5,259.5,297.0,252.5,297.0,244.5,297.0" stroke="black" stroke-width="2" fill="none" />
<polyline points="245.0,307.5,253.0,306.5,261.0,305.5,269.0,304.5" stroke="black" stroke-width="2" fill="none" />
<polyline points="290.5,318.0,283.5,319.0,276.0,319.5,268.0,321.0,260.5,322.0,252.0,322.0,243.5,322.0" stroke="black" stroke-width="2" fill="none" />
<polyline points="244.5,315.0,252.5,315.0,261.0,314.5,269.0,313.5,277.0,313.0,284.5,312.5" stroke="black" stroke-width="2" fill="none" />
<polyline points="259.5,279.5,251.5,279.5,244.0,280.5" stroke="black" stroke-width="2" fill="none" />
<polyline points="236.0,281.5,244.5,273.5,252.0,265.5,259.5,257.5,268.0,250.0" stroke="black" stroke-width="2" fill="none" />
<polyline points="268.5,260.0,260.5,267.0,252.0,274.0,244.0,281.5,236.0,289.5" stroke="black" stroke-width="2" fill="none" />
<polyline points="233.0,276.5,241.0,276.0,249.5,275.5,258.5,275.0,267.5,275.0,276.0,274.5,284.0,274.0,292.5,273.5,301.0,273.5,309.5,273.0,317.5,272.5,325.5,272.0,333.0,272.0,341.0,271.5,348.5,271.5,356.0,271.5,364.5,271.5,372.5,271.0,380.0,270.0,387.5,268.5,395.0,267.5,403.0,267.5,411.0,267.5,419.0,267.0,427.5,267.0,435.5,266.5,443.5,266.0,451.5,265.0,459.5,264.5,467.5,263.5,475.5,263.0,483.5,263.0,491.0,262.5,498.5,262.0,507.0,261.5,515.0,261.0" stroke="black" stroke-width="2" fill="none" />
<polyline points="411.0,207.0,403.0,207.5" stroke="black" stroke-width="2" fill="none" />
<polyline points="404.0,189.5,396.0,190.0,387.5,190.5" stroke="black" stroke-width="2" fill="none" />
<polyline points="380.0,197.0,388.0,197.0,396.0,197.0,403.5,196.5,411.5,195.5,418.5,194.5" stroke="black" stroke-width="2" fill="none" />
<polyline points="378.5,204.0,370.0,211.5,362.0,219.5" stroke="black" stroke-width="2" fill="none" />
<polyline points="364.5,218.5,372.5,217.5,380.0,217.5" stroke="black" stroke-width="2" fill="none" />
<polyline points="378.0,213.0,370.0,220.5,362.5,227.5" stroke="black" stroke-width="2" fill="none" />
<polyline points="363.0,229.5,371.0,229.5,379.0,229.5,387.0,229.0,395.5,229.0,403.5,228.5,411.5,228.0,419.5,227.0,427.5,226.5,435.5,225.5,443.5,225.0,451.5,225.0,459.0,224.5,466.5,224.0,475.0,223.5,483.0,223.0,491.0,222.0,499.0,221.5,507.0,220.5,515.0,219.5" stroke="black" stroke-width="2" fill="none" />
<polyline points="381.0,224.5,373.0,224.5" stroke="black" stroke-width="2" fill="none" />
<polyline points="365.0,215.0,373.0,214.5,381.0,214.0,389.0,213.0,397.0,212.5,405.5,211.5,412.5,211.0,420.0,211.5,427.5,211.0" stroke="black" stroke-width="2" fill="none" />
<polyline points="372.0,205.5,363.5,213.0" stroke="black" stroke-width="2" fill="none" />
<polyline points="355.0,211.0,363.0,203.5" stroke="black" stroke-width="2" fill="none" />
<polyline points="354.5,201.5,346.0,209.5" stroke="black" stroke-width="2" fill="none" />
<polyline points="344.0,208.5,356.0,208.5" stroke="black" stroke-width="2" fill="none" />
<polyline points="347.5,204.5,339.0,212.0" stroke="black" stroke-width="2" fill="none" />
<polyline points="340.0,202.0,332.5,209.5,324.5,217.0,316.5,225.0,308.5,233.0,301.0,241.0,293.0,248.0" stroke="black" stroke-width="2" fill="none" />
<polyline points="298.0,240.0,306.5,239.5,314.5,239.0,322.5,239.0,330.5,239.5" stroke="black" stroke-width="2" fill="none" />
<polyline points="339.0,229.0,331.0,229.5,322.5,230.0,314.5,230.5,306.0,231.5,298.0,232.0,289.5,233.0" stroke="black" stroke-width="2" fill="none" />
<polyline points="284.0,239.5,292.5,232.0,301.0,224.5,309.0,216.5,317.0,209.0,325.5,201.0,334.0,193.0,342.0,185.5" stroke="black" stroke-width="2" fill="none" />
<polyline points="331.5,188.0,324.0,196.0,315.5,203.0,307.5,210.0,299.5,217.0,291.5,224.0,283.5,231.0" stroke="black" stroke-width="2" fill="none" />
<polyline points="279.0,229.5,291.0,241.5,300.0,259.0" stroke="black" stroke-width="2" fill="none" />
<polyline points="277.0,217.5,284.5,217.0,292.5,217.0,300.0,216.5,308.0,215.5,316.0,214.5,324.0,214.0,332.5,213.5" stroke="black" stroke-width="2" fill="none" />
<polyline points="329.0,207.5,337.5,207.0,346.0,206.5,354.5,206.5,363.5,206.0,372.0,206.5,380.5,206.5" stroke="black" stroke-width="2" fill="none" />
<polyline points="371.5,173.5,380.0,165.5" stroke="black" stroke-width="2" fill="none" />
<polyline points="369.5,163.5,362.0,171.5" stroke="black" stroke-width="2" fill="none" />
<polyline points="364.5,167.5,373.0,166.5,381.0,166.0" stroke="black" stroke-width="2" fill="none" />
<polyline points="372.0,148.0,364.0,155.0" stroke="black" stroke-width="2" fill="none" />
<polyline points="364.5,150.5,372.0,150.0" stroke="black" stroke-width="2" fill="none" />
<polyline points="372.0,139.5,380.0,139.0" stroke="black" stroke-width="2" fill="none" />
<polyline points="378.5,133.5,370.0,134.0" stroke="black" stroke-width="2" fill="none" />
<polyline points="371.0,128.5,363.0,129.0" stroke="black" stroke-width="2" fill="none" />
<polyline points="364.5,130.5,372.5,123.0" stroke="black" stroke-width="2" fill="none" />
<polyline points="373.0,124.5,365.0,125.5" stroke="black" stroke-width="2" fill="none" />
<polyline points="365.5,130.0,362.5,142.0,359.0,159.5,363.5,171.5,367.5,184.0,367.5,196.0,373.5,214.0,378.0,229.0,378.0,246.0" stroke="black" stroke-width="2" fill="none" />
<polyline points="339.0,192.5,331.0,193.5" stroke="black" stroke-width="2" fill="none" />
<polyline points="324.5,186.0,316.5,193.5,308.0,201.5,299.5,210.0,291.0,218.0,283.0,225.5,274.5,233.5,266.0,241.0,258.0,248.5,250.0,256.0,242.0,264.0,234.0,271.5" stroke="black" stroke-width="2" fill="none" />
<polyline points="233.0,267.5,241.0,267.0,249.0,267.0,257.5,267.0,266.0,266.5,274.0,265.5,283.0,265.5,292.5,265.0,301.0,264.5,309.5,263.0,317.5,262.5,325.0,262.0,333.0,261.5,341.5,261.0,349.5,261.5,357.0,261.5,365.5,261.5,373.5,261.5,381.5,261.0,389.0,261.0,396.5,260.5,404.5,259.5,412.0,259.5,419.0,259.0,427.0,258.5,434.5,258.0,442.0,258.5,450.0,258.5,457.5,258.0,465.5,257.5,473.5,257.0,481.5,256.0,490.0,255.0,498.5,254.0,507.0,253.0,515.5,252.5" stroke="black" stroke-width="2" fill="none" />
<polyline points="372.5,115.5,364.5,115.5" stroke="black" stroke-width="2" fill="none" />
<polyline points="348.5,116.0,340.5,124.0,332.0,131.5" stroke="black" stroke-width="2" fill="none" />
<polyline points="331.0,125.5,339.0,125.5,346.5,125.5" stroke="black" stroke-width="2" fill="none" />
<polyline points="347.0,124.0,339.0,131.0" stroke="black" stroke-width="2" fill="none" />
<polyline points="339.0,130.0,347.0,129.5" stroke="black" stroke-width="2" fill="none" />
<polyline points="345.5,116.5,337.5,117.0" stroke="black" stroke-width="2" fill="none" />
<polyline points="316.5,114.0,308.5,122.0" stroke="black" stroke-width="2" fill="none" />
<polyline points="308.0,117.0,316.0,116.5" stroke="black" stroke-width="2" fill="none" />
<polyline points="308.0,114.0,316.0,106.5" stroke="black" stroke-width="2" fill="none" />
<polyline points="316.0,111.5,308.0,112.0" stroke="black" stroke-width="2" fill="none" />
<polyline points="314.5,108.5,307.0,109.0,299.0,109.5" stroke="black" stroke-width="2" fill="none" />
<polyline points="300.5,107.0,306.5,119.0,317.5,135.5,316.0,153.5,320.5,165.5,322.0,177.5,325.0,182.0,320.5,194.0,312.0,206.0,315.0,201.5,334.5,186.5,346.5,187.5" stroke="black" stroke-width="2" fill="none" />
<polyline points="330.5,172.0,322.5,179.5,314.5,187.0,307.0,194.5,299.0,202.5,291.0,210.0,283.5,217.5,275.5,225.0,268.0,232.0,260.5,239.0,252.5,246.0,244.5,254.0,236.0,261.5" stroke="black" stroke-width="2" fill="none" />
<polyline points="234.0,261.0,242.5,260.5,251.0,260.0,259.0,260.0,267.5,259.5,275.5,259.5,284.0,259.0,292.5,258.0,300.5,257.0,308.5,256.5,316.5,256.0,324.5,256.0,332.5,255.5,341.0,255.0,349.0,254.5" stroke="black" stroke-width="2" fill="none" />
<polyline points="341.0,207.5,333.0,208.0,324.5,209.5,316.0,210.5,308.0,212.0,300.5,213.0,292.5,214.0,284.5,214.5,277.0,214.5,269.0,215.0" stroke="black" stroke-width="2" fill="none" />
<polyline points="267.0,212.0,274.5,204.5,282.5,196.5" stroke="black" stroke-width="2" fill="none" />
<polyline points="275.5,195.0,268.0,202.5,260.0,209.5" stroke="black" stroke-width="2" fill="none" />
<polyline points="259.5,210.5,267.5,210.0,275.0,209.0,282.5,208.5,289.5,207.5,297.5,207.0,305.5,206.5,313.5,206.0,322.0,206.0" stroke="black" stroke-width="2" fill="none" />
<polyline points="321.5,209.0,321.5,210.5,333.5,216.5,336.5,212.0,348.0,213.0,348.0,216.0,357.0,224.5,344.0,230.5,344.0,242.5" stroke="black" stroke-width="2" fill="none" />
<polyline points="313.5,199.5,305.0,200.0,297.5,200.5" stroke="black" stroke-width="2" fill="none" />
<polyline points="292.0,203.0,283.5,210.5,275.5,218.5,267.5,225.5,259.0,233.0,251.0,240.5,243.0,248.0,235.0,255.0" stroke="black" stroke-width="2" fill="none" />
<polyline points="233.5,256.0,241.5,256.0,249.5,255.5" stroke="black" stroke-width="2" fill="none" />
<polyline points="249.0,247.0,240.5,248.0" stroke="black" stroke-width="2" fill="none" />
<polyline points="236.0,245.5,244.0,244.5,252.0,244.5,260.5,244.0,269.0,243.5,277.0,243.0,284.5,242.5,292.5,242.5,300.5,242.0,309.0,241.0,317.0,240.5,324.5,240.0,332.5,240.0,340.0,239.5,348.0,238.5,356.0,237.5,364.0,237.0,372.5,236.5,381.0,236.5,389.0,235.5,397.0,235.5,405.0,234.5,412.5,233.5,420.5,233.0,428.5,232.5,436.5,232.5,444.5,232.0,452.5,231.5,460.0,231.5,468.5,231.5,476.5,231.0,484.0,230.5,491.5,230.0,499.5,229.5,507.0,228.0,514.5,228.0" stroke="black" stroke-width="2" fill="none" />
<polyline points="332.5,176.0,325.0,176.5,317.0,177.0,309.0,177.5" stroke="black" stroke-width="2" fill="none" />
<polyline points="324.5,169.0,316.5,177.0,308.0,184.5,299.5,192.5" stroke="black" stroke-width="2" fill="none" />
<polyline points="290.5,194.0,298.5,193.5,306.5,192.5,315.0,192.0,323.0,191.5" stroke="black" stroke-width="2" fill="none" />
<polyline points="292.5,185.0,300.5,177.0,308.5,169.5,316.5,161.5,324.5,154.0" stroke="black" stroke-width="2" fill="none" />
<polyline points="325.5,149.0,337.5,144.5,349.0,144.5,361.0,141.5" stroke="black" stroke-width="2" fill="none" />
<polyline points="351.5,149.5,339.5,150.0" stroke="black" stroke-width="2" fill="none" />
<polyline points="329.5,157.0,322.0,165.0,314.5,172.0,306.5,179.0,298.5,186.5,290.0,194.5,282.5,201.5,275.0,209.5,267.0,217.0,258.5,224.0,250.5,231.0,243.0,239.0,235.5,246.5" stroke="black" stroke-width="2" fill="none" />
<polyline points="234.0,242.0,242.0,235.0,250.0,227.5,258.0,220.5" stroke="black" stroke-width="2" fill="none" />
<polyline points="252.5,218.0,244.5,225.5,237.0,233.0" stroke="black" stroke-width="2" fill="none" />
<polyline points="235.0,231.0,242.5,230.5,250.5,230.0,258.5,229.5,266.0,229.0,274.0,228.0,282.5,227.5,291.0,227.5,299.5,227.0,308.0,226.5,316.0,226.0,324.5,225.5,332.5,225.0,340.0,224.0,348.0,223.0,356.0,222.0" stroke="black" stroke-width="2" fill="none" />
<polyline points="322.5,184.0,315.0,184.5,307.5,185.0,299.5,186.0,291.5,186.0" stroke="black" stroke-width="2" fill="none" />
<polyline points="285.5,187.5,293.0,187.0,301.0,186.5,309.5,186.0,317.5,186.5,325.0,186.5,333.5,186.5,341.5,186.5,349.5,186.0" stroke="black" stroke-width="2" fill="none" />
<polyline points="315.0,154.0,307.0,161.5,299.0,169.5,291.5,177.5,284.0,185.5" stroke="black" stroke-width="2" fill="none" />
<polyline points="274.5,186.5,283.0,178.5,291.5,170.0,299.5,162.0,307.5,154.5,315.5,147.5" stroke="black" stroke-width="2" fill="none" />
<polyline points="308.5,147.0,300.5,154.0,292.5,161.5,284.5,169.5,277.0,177.0,269.0,185.0,260.5,192.5,252.0,200.0" stroke="black" stroke-width="2" fill="none" />
<polyline points="252.0,205.5,260.5,205.0,268.0,204.0,275.5,204.0,283.0,204.0,291.0,204.0,299.0,203.5,307.0,202.5,315.0,202.0,323.0,202.0,331.5,201.5,339.5,200.5,347.0,200.5,355.0,200.5,362.5,200.0,370.5,199.5,378.5,199.0,387.0,198.5,395.0,198.0" stroke="black" stroke-width="2" fill="none" />
<polyline points="331.5,141.5,323.5,142.5" stroke="black" stroke-width="2" fill="none" />
<polyline points="308.5,140.0,300.5,147.5,292.5,154.5,284.0,161.5" stroke="black" stroke-width="2" fill="none" />
<polyline points="284.5,165.0,292.5,165.0,300.5,164.5,309.0,164.0,317.0,163.5,325.0,163.5,333.0,163.0" stroke="black" stroke-width="2" fill="none" />
<polyline points="332.0,160.5,324.5,160.5,317.0,160.5,309.0,161.0,301.5,161.0,293.5,161.5" stroke="black" stroke-width="2" fill="none" />
<polyline points="283.5,157.0,291.5,156.5,300.0,156.0,308.0,155.5,316.0,155.0,324.0,154.5,332.0,154.5,340.0,154.5" stroke="black" stroke-width="2" fill="none" />
<polyline points="300.5,138.0,293.0,145.5,285.0,153.0" stroke="black" stroke-width="2" fill="none" />
<polyline points="283.0,143.0,275.0,143.0,267.0,143.0,259.0,143.5,250.5,144.0" stroke="black" stroke-width="2" fill="none" />
<polyline points="252.5,141.0,260.5,140.5,268.5,140.0,276.5,140.0,284.5,140.0,292.0,140.0,299.5,139.0,307.5,139.0" stroke="black" stroke-width="2" fill="none" />
<polyline points="300.0,131.0,292.5,138.5,284.5,146.0,276.0,153.0,267.5,160.0,259.5,167.5,251.0,175.0,242.5,182.0,234.0,189.5" stroke="black" stroke-width="2" fill="none" />
<polyline points="237.5,189.0,245.5,188.5,253.5,188.0,261.5,187.0,269.0,186.5" stroke="black" stroke-width="2" fill="none" />
<polyline points="269.0,191.0,260.5,191.5,252.5,191.5,244.0,192.0,236.0,192.5" stroke="black" stroke-width="2" fill="none" />
<polyline points="235.5,185.0,244.0,178.0,252.5,170.5,260.5,163.0,268.5,156.0,276.5,148.5,285.0,140.5,293.0,132.0" stroke="black" stroke-width="2" fill="none" />
<polyline points="291.5,125.5,283.5,133.0,275.0,140.0,267.0,147.0,259.0,154.5,251.0,162.0,243.0,169.0,235.0,176.5" stroke="black" stroke-width="2" fill="none" />
<polyline points="236.0,176.0,244.0,175.5,252.5,175.0,260.5,174.5,268.0,174.0,276.0,173.5,284.0,173.0,291.5,173.0,299.0,172.5" stroke="black" stroke-width="2" fill="none" />
<polyline points="285.5,169.5,293.5,169.0,301.0,168.5,309.0,168.0,317.5,167.5,325.0,167.0" stroke="black" stroke-width="2" fill="none" />
<polyline points="313.0,147.5,305.5,148.0,297.5,148.5,289.5,149.0,282.0,149.5,274.5,149.5,266.5,150.0,259.0,150.5" stroke="black" stroke-width="2" fill="none" />
<polyline points="260.0,146.5,268.5,139.0,277.0,131.5,285.5,124.0" stroke="black" stroke-width="2" fill="none" />
<polyline points="283.5,127.5,291.5,127.5" stroke="black" stroke-width="2" fill="none" />
<polyline points="292.0,125.0,284.5,126.0,276.5,126.5,268.0,127.0" stroke="black" stroke-width="2" fill="none" />
<polyline points="266.5,130.5,258.5,138.5,250.5,145.5,242.5,153.0,234.5,160.5" stroke="black" stroke-width="2" fill="none" />
<polyline points="233.5,163.5,241.5,162.5,250.0,162.0,258.5,161.5,267.0,160.5" stroke="black" stroke-width="2" fill="none" />
<polyline points="266.5,167.5,258.5,168.5,250.0,169.0,242.5,169.5,234.5,169.5" stroke="black" stroke-width="2" fill="none" />
<polyline points="235.5,169.5,244.0,161.5,251.5,154.0" stroke="black" stroke-width="2" fill="none" />
<polyline points="251.5,152.5,243.0,153.0" stroke="black" stroke-width="2" fill="none" />
<polyline points="242.0,149.0,250.0,149.0,258.0,148.0,265.5,147.5,273.5,147.0,281.5,147.0,290.0,146.0,298.0,145.5,306.0,144.5,313.5,144.5" stroke="black" stroke-width="2" fill="none" />
<polyline points="291.5,135.5,283.5,136.0,275.5,136.5,267.0,137.0,259.0,138.0" stroke="black" stroke-width="2" fill="none" />
<polyline points="260.0,135.0,268.0,134.0,276.0,133.0,284.0,132.5,291.5,132.0,299.0,131.5" stroke="black" stroke-width="2" fill="none" />
<polyline points="288.0,138.0,294.0,150.0,307.5,154.5,312.0,166.5,335.0,171.0,338.0,177.0" stroke="black" stroke-width="2" fill="none" />
<polyline points="275.5,171.0,268.0,178.5,260.5,186.5,252.5,194.0,244.0,201.0" stroke="black" stroke-width="2" fill="none" />
<polyline points="245.0,199.0,252.5,198.5,260.0,197.5,267.5,196.0,275.5,195.0,283.5,194.0,291.0,193.5,298.5,193.0,306.0,192.5,313.5,192.0,321.5,191.5,329.0,191.0" stroke="black" stroke-width="2" fill="none" />
<polyline points="268.0,193.5,260.0,201.5,252.0,209.0" stroke="black" stroke-width="2" fill="none" />
<polyline points="260.0,201.5,267.5,201.0,275.0,200.0,282.5,199.5,289.5,198.5" stroke="black" stroke-width="2" fill="none" />
<polyline points="269.0,183.5,261.5,183.5,254.0,184.0,246.0,183.5,238.0,184.0" stroke="black" stroke-width="2" fill="none" />
<polyline points="237.0,181.0,245.0,180.5,252.5,180.0,260.5,179.5,268.0,179.0,276.0,179.0,284.5,178.5,292.5,178.5,300.5,177.5,308.0,177.0,316.0,176.5,324.5,176.0,332.0,175.0" stroke="black" stroke-width="2" fill="none" />
<polyline points="338.5,218.0,330.5,218.5,322.0,219.0,314.0,219.5,307.0,220.5,299.5,221.0,292.0,222.0,284.0,222.5,275.5,223.5,267.5,223.5,259.5,224.5,251.5,225.0,243.0,225.5" stroke="black" stroke-width="2" fill="none" />
<polyline points="235.0,225.0,242.5,217.0" stroke="black" stroke-width="2" fill="none" />
<polyline points="243.5,214.5,236.0,215.0" stroke="black" stroke-width="2" fill="none" />
<polyline points="233.0,222.5,241.5,222.0,249.5,221.5,258.0,221.5,266.5,221.5,274.5,221.5,282.5,220.5,290.5,219.5,298.5,218.5,307.0,218.0,315.5,217.5,323.5,217.0,331.0,216.0,338.5,215.5,345.5,214.5,353.5,214.0,361.5,213.5,369.5,213.0,378.0,213.0,387.0,212.5,395.0,212.0,403.0,211.5,411.0,210.5,419.0,210.0,427.0,209.0,435.0,209.0,443.0,208.5,451.5,208.0,459.0,207.5,466.5,208.0,474.5,207.5" stroke="black" stroke-width="2" fill="none" />
<polyline points="517.0,235.5,508.5,235.5,500.0,235.5,491.5,235.5,483.0,235.5,474.5,236.0,467.0,236.5,459.0,237.0,451.5,237.5,444.0,238.5,436.5,239.5,428.0,240.0,420.0,241.0,411.5,241.5,403.0,242.5,395.0,243.0,387.0,243.0,380.0,243.0,372.5,243.0,364.5,243.5,356.5,244.0,348.5,244.5,339.5,245.5,331.0,246.0,323.5,246.5,315.5,246.5,307.5,247.0,300.0,247.5,292.0,248.0,284.0,248.0,276.0,248.5,268.0,249.5,259.0,250.5,251.0,251.5,243.0,252.5,235.0,253.0" stroke="black" stroke-width="2" fill="none" />
<polyline points="233.5,264.5,241.5,264.5,249.5,264.0" stroke="black" stroke-width="2" fill="none" />
<polyline points="243.0,271.0,251.0,270.5,258.5,270.0" stroke="black" stroke-width="2" fill="none" />
<polyline points="250.0,232.5,242.0,233.5" stroke="black" stroke-width="2" fill="none" />
<polyline points="237.5,237.0,245.5,236.5,253.5,236.0,261.5,235.5,269.5,235.5,277.5,236.0,285.0,235.5,292.5,234.5,300.5,234.5,309.0,234.0,317.0,234.0,325.0,233.5,332.5,233.5,340.5,233.0,348.5,232.0,356.0,231.0,364.0,229.5,372.5,228.5,381.0,227.0,389.0,226.5,396.5,225.5,404.5,225.5,413.0,225.0,421.5,224.5,429.5,224.5,437.5,224.5,445.5,224.5,453.0,224.0,461.0,224.0,468.5,224.0,476.0,224.0,484.5,223.0,492.0,222.0,500.0,221.5,508.5,220.5,516.0,220.0" stroke="black" stroke-width="2" fill="none" />
<polyline points="332.5,167.0,324.5,167.5,316.5,168.0,308.5,168.5,300.0,168.5,291.5,169.0,283.0,169.5,275.0,170.0,267.0,170.5,259.5,171.0,252.0,172.0,244.0,172.5,236.0,172.5" stroke="black" stroke-width="2" fill="none" />
<polyline points="240.5,171.5,240.5,176.0,243.5,188.5,252.5,200.5" stroke="black" stroke-width="2" fill="none" />
<polyline points="245.5,193.0,254.0,185.5,261.5,178.0,269.5,170.5" stroke="black" stroke-width="2" fill="none" />
<polyline points="271.5,166.0,274.5,161.5,263.0,163.0,266.0,158.5,278.0,159.0,290.0,161.5,300.5,166.0,300.5,173.5" stroke="black" stroke-width="2" fill="none" />
<polyline points="267.0,164.5,259.0,164.0,251.0,164.5,242.5,164.5,233.5,165.5" stroke="black" stroke-width="2" fill="none" />
<polyline points="234.5,156.5,242.0,156.0,250.0,155.5,258.0,155.0,266.5,154.5,274.5,154.0" stroke="black" stroke-width="2" fill="none" />
<polyline points="280.5,141.5,286.5,153.5,286.0,144.0,289.0,137.5,305.5,130.0,310.0,143.5,310.0,152.5" stroke="black" stroke-width="2" fill="none" />
<polyline points="268.5,122.5,280.5,122.5,292.5,122.0,304.5,122.0,322.5,128.0,334.0,125.0,346.5,117.5,358.5,117.5,371.0,128.0" stroke="black" stroke-width="2" fill="none" />
<polyline points="310.5,105.0,296.5,106.5,278.5,112.0,266.5,121.0,252.5,119.5,240.5,121.0,228.5,124.0,216.0,124.0" stroke="black" stroke-width="2" fill="none" />
<polyline points="219.0,123.5,227.0,123.0,235.0,122.5" stroke="black" stroke-width="2" fill="none" />
<polyline points="235.0,122.5,227.0,129.5" stroke="black" stroke-width="2" fill="none" />
<polyline points="228.0,124.5,219.5,132.0" stroke="black" stroke-width="2" fill="none" />
<polyline points="220.5,129.5,233.0,129.5,246.5,126.5" stroke="black" stroke-width="2" fill="none" />
<polyline points="242.0,125.5,250.5,125.5,258.0,125.5" stroke="black" stroke-width="2" fill="none" />
<polyline points="260.0,122.5,251.5,130.0" stroke="black" stroke-width="2" fill="none" />
<polyline points="249.5,122.0,242.0,129.5" stroke="black" stroke-width="2" fill="none" />
<polyline points="241.5,130.0,250.0,129.5,258.5,129.0" stroke="black" stroke-width="2" fill="none" />
<polyline points="234.5,127.0,226.0,128.0,218.0,128.5" stroke="black" stroke-width="2" fill="none" />
<polyline points="212.5,148.5,224.5,145.5,236.5,141.0,248.0,139.5,254.0,145.0,266.0,141.5,278.0,134.5" stroke="black" stroke-width="2" fill="none" />
<polyline points="277.0,110.5,266.5,122.5,253.0,136.0,239.5,151.5,233.0,164.0,233.0,176.0,231.5,188.0,234.5,187.5,246.5,198.0,256.5,212.0,265.5,214.5" stroke="black" stroke-width="2" fill="none" />
<polyline points="269.5,195.5,266.5,183.5,277.0,177.5,264.5,185.0" stroke="black" stroke-width="2" fill="none" />
<polyline points="246.5,184.0,258.5,199.0,270.5,203.5,282.5,200.5,294.0,199.0" stroke="black" stroke-width="2" fill="none" />
<polyline points="219.0,200.0,211.5,201.0,203.5,201.5,195.5,202.5,187.5,203.0,179.5,203.5,171.5,204.5,164.0,205.0,156.0,205.5,147.5,206.5,140.0,207.0,132.0,207.0,124.5,207.0,116.5,207.5,109.0,207.0,101.0,207.0,92.5,207.5,84.5,208.0,76.5,208.5,68.5,209.0,60.5,209.5,52.0,210.0,44.0,210.5,36.0,211.0,28.0,212.0,20.0,212.5,11.5,213.0,3.5,213.5" stroke="black" stroke-width="2" fill="none" />
<polyline points="4.5,220.0,12.5,219.5,20.5,219.0,28.0,219.0,35.5,219.0,43.5,219.0,51.5,218.0,59.0,217.5,67.0,217.0,75.0,216.5,82.5,215.5,90.5,215.5,99.0,215.5,107.0,215.5,115.0,215.0,123.0,214.5,131.0,214.5,139.0,214.0,146.0,213.5,153.5,213.5,161.0,212.5,169.5,212.0,177.5,211.5,186.0,211.5,194.5,211.5,202.5,211.5,210.5,210.5" stroke="black" stroke-width="2" fill="none" />
<polyline points="211.0,211.0,203.0,218.5,194.5,226.0" stroke="black" stroke-width="2" fill="none" />
<polyline points="188.5,228.5,180.0,235.5,172.0,243.0,163.5,250.5,155.0,257.5,147.5,264.5,139.5,272.0,131.5,279.0,124.0,286.5,116.0,294.0,108.0,301.0,99.5,308.5,92.0,316.5,84.5,324.5,76.0,332.5" stroke="black" stroke-width="2" fill="none" />
<polyline points="100.0,333.0,108.0,325.5,116.5,318.0,125.0,310.5,133.5,303.0,140.5,295.5,148.5,288.5,155.5,281.0,163.0,273.0,170.5,265.5,178.0,257.5,185.5,250.5,193.5,243.0,201.0,236.0,209.5,228.5" stroke="black" stroke-width="2" fill="none" />
<polyline points="211.0,234.5,203.0,242.0,195.5,250.0,187.5,257.5,179.5,265.5,171.5,273.0,163.5,280.5,155.5,288.5,147.0,296.5,138.5,304.0,130.5,311.5,122.5,319.5,115.0,327.0,107.0,334.5" stroke="black" stroke-width="2" fill="none" />
<polyline points="149.0,334.5,157.5,327.0,165.0,319.5,173.0,312.5,181.5,305.0,189.5,298.0,197.5,290.5,205.0,282.5,213.0,275.5" stroke="black" stroke-width="2" fill="none" />
<polyline points="213.0,281.5,205.0,289.5,196.0,297.0,187.5,304.5,180.0,312.5,172.0,319.5,163.5,327.5,156.0,335.0" stroke="black" stroke-width="2" fill="none" />
<polyline points="180.5,335.5,189.0,328.0,197.0,320.5,205.0,312.5,212.5,304.5,220.5,296.5" stroke="black" stroke-width="2" fill="none" />
<polyline points="213.0,299.0,205.5,306.5,197.0,314.0,189.0,321.5,181.0,328.5,173.5,336.5" stroke="black" stroke-width="2" fill="none" />
<polyline points="196.0,337.0,203.5,330.0,211.0,322.5,219.0,315.0,227.0,307.5" stroke="black" stroke-width="2" fill="none" />
<polyline points="220.5,308.0,212.0,315.0,204.0,322.5,196.5,329.5,188.5,336.0" stroke="black" stroke-width="2" fill="none" />
<polyline points="164.0,335.5,172.0,328.0,180.0,320.5,187.5,312.5,195.5,305.0,203.0,297.5,210.5,290.0" stroke="black" stroke-width="2" fill="none" />
<polyline points="204.0,282.0,196.5,282.5" stroke="black" stroke-width="2" fill="none" />
<polyline points="193.0,289.5,185.0,290.0" stroke="black" stroke-width="2" fill="none" />
<polyline points="179.5,299.0,187.0,298.0,195.0,297.5,203.0,296.5" stroke="black" stroke-width="2" fill="none" />
<polyline points="203.0,313.0,211.5,312.5" stroke="black" stroke-width="2" fill="none" />
<polyline points="178.5,305.5,170.5,306.0" stroke="black" stroke-width="2" fill="none" />
<polyline points="172.5,298.0,164.5,298.5" stroke="black" stroke-width="2" fill="none" />
<polyline points="165.5,284.0,173.0,283.0" stroke="black" stroke-width="2" fill="none" />
<polyline points="156.0,289.0,148.0,289.5" stroke="black" stroke-width="2" fill="none" />
<polyline points="147.5,296.0,140.0,296.5" stroke="black" stroke-width="2" fill="none" />
<polyline points="139.5,280.5,131.5,281.5,124.0,282.0" stroke="black" stroke-width="2" fill="none" />
<polyline points="116.0,290.5,108.5,290.5" stroke="black" stroke-width="2" fill="none" />
<polyline points="98.5,288.5,90.5,288.5" stroke="black" stroke-width="2" fill="none" />
<polyline points="82.0,280.5,90.0,280.0,98.0,279.5" stroke="black" stroke-width="2" fill="none" />
<polyline points="81.5,289.5,73.0,290.0" stroke="black" stroke-width="2" fill="none" />
<polyline points="66.0,282.5,58.5,283.0" stroke="black" stroke-width="2" fill="none" />
<polyline points="69.0,287.5,61.0,288.0,53.0,289.0,45.0,289.5" stroke="black" stroke-width="2" fill="none" />
<polyline points="44.5,281.0,53.0,280.0" stroke="black" stroke-width="2" fill="none" />
<polyline points="44.5,305.0,52.5,304.5,61.0,304.0,69.0,304.0,76.5,304.5,84.5,304.0,92.0,304.0,100.0,304.0,107.5,303.5,116.0,302.5,124.0,302.0,131.5,301.5,139.5,300.5,147.5,300.0,155.5,299.5,163.5,298.5" stroke="black" stroke-width="2" fill="none" />
<polyline points="139.5,334.0,147.0,327.0,155.0,319.5,163.5,312.0,171.5,304.5,179.0,297.0,187.0,289.5,195.5,281.5,204.0,274.5,212.5,267.0" stroke="black" stroke-width="2" fill="none" />
<polyline points="209.0,261.0,201.5,268.5,194.0,276.0,186.5,283.5,179.0,291.0,171.5,298.5,164.0,306.0,156.0,313.0,148.5,320.5,141.0,328.0,133.0,335.0" stroke="black" stroke-width="2" fill="none" />
<polyline points="123.5,336.0,131.5,328.5,139.5,321.0,147.0,313.0,155.5,305.0,164.0,296.5,172.0,289.0,179.5,281.0,188.0,273.5,196.0,266.0,204.0,258.5,212.0,251.5" stroke="black" stroke-width="2" fill="none" />
<polyline points="213.0,243.5,204.5,250.5,196.0,257.5,187.5,265.0,179.5,272.5,171.0,280.5,163.0,288.5,155.0,296.0,147.0,303.5,139.0,311.0,131.0,319.0,122.5,326.5,114.5,334.5" stroke="black" stroke-width="2" fill="none" />
<polyline points="92.5,332.0,100.5,324.5,108.0,317.0,116.0,310.0,124.0,303.5,132.0,296.5,140.0,288.5,148.0,280.5,156.0,272.5,163.5,264.5,171.0,256.5,179.0,248.5,187.0,240.5,195.0,233.0,203.0,226.5,211.5,219.0" stroke="black" stroke-width="2" fill="none" />
<polyline points="212.5,224.5,205.0,225.0,197.0,225.5,188.5,226.0,180.0,226.5,172.0,226.5,164.0,227.5,155.5,228.0,147.5,228.5,138.5,229.0,130.0,230.0,121.5,231.0,114.0,231.0,106.0,231.5,97.5,232.0,89.5,232.5,81.0,233.0,73.5,233.5,65.5,234.5,57.5,235.0,49.5,235.5,42.0,236.0,33.5,236.5,25.5,237.0,18.0,237.5,10.5,239.0,2.5,239.5" stroke="black" stroke-width="2" fill="none" />
<polyline points="3.5,242.5,12.0,234.5,20.5,227.0,29.0,219.5,37.5,212.0" stroke="black" stroke-width="2" fill="none" />
<polyline points="45.5,212.5,37.0,220.0,28.5,227.0,20.0,234.0,11.5,241.0,3.5,248.0" stroke="black" stroke-width="2" fill="none" />
<polyline points="3.0,247.0,11.0,246.5,18.5,245.5,26.5,244.5,35.5,244.0,43.5,243.0,50.5,242.5,58.5,242.0,66.0,241.0,74.0,240.0,82.0,239.5,90.0,239.0,98.0,238.5,106.0,238.0,114.0,237.5,122.5,237.0,130.5,236.5,138.5,236.0,147.0,235.5,155.0,235.5,163.0,235.0,171.0,234.5,179.0,233.5,187.0,232.5,196.0,231.5,204.0,230.5,212.0,230.0" stroke="black" stroke-width="2" fill="none" />
<polyline points="212.0,239.5,203.5,239.5,195.0,240.0,186.0,241.0,177.5,241.5,169.5,242.0,161.5,242.0,153.5,242.5,145.5,243.0,137.5,244.0,130.0,244.5,122.0,245.5,114.0,246.5,106.5,247.0,98.5,247.5,90.5,247.5,82.5,247.5,74.5,248.5,66.5,249.5,58.5,250.5,51.0,251.0,42.5,252.0,34.5,252.0,26.5,251.5,19.0,251.5,11.0,252.5,3.0,253.0" stroke="black" stroke-width="2" fill="none" />
<polyline points="3.5,257.5,12.5,250.0,21.0,242.0,29.0,233.5,37.0,225.5,45.5,217.5,54.0,210.5" stroke="black" stroke-width="2" fill="none" />
<polyline points="60.0,209.5,52.0,217.0,44.5,225.0,36.5,233.0,28.0,240.5,20.0,248.5,12.0,256.0,3.5,263.0" stroke="black" stroke-width="2" fill="none" />
<polyline points="2.5,259.0,10.5,259.0,18.5,259.0,26.5,258.5,34.5,258.5,43.0,258.0,51.5,258.5,59.5,258.5,67.5,258.5,76.0,258.0,84.5,257.5,92.0,257.5,99.5,257.0,107.0,256.5,114.5,256.0,122.5,255.5,130.0,254.5,138.0,253.5,146.0,252.5,154.0,252.0,162.0,251.0,170.5,250.5,179.0,250.0,187.0,250.0,195.5,249.5,203.5,249.5,212.0,249.0" stroke="black" stroke-width="2" fill="none" />
<polyline points="187.0,234.5,179.0,242.0,171.5,250.0,164.0,258.0,156.5,266.0,148.5,273.5,141.0,281.5,132.5,288.5,124.5,296.0,116.5,303.0,108.5,311.0,100.5,318.0,92.0,325.0,84.0,332.5" stroke="black" stroke-width="2" fill="none" />
<polyline points="67.5,333.0,76.0,325.5,83.5,318.0,92.0,310.5,100.0,303.5,108.0,296.5,116.0,289.5,124.0,282.0,132.0,275.0,140.0,268.0,148.0,261.0,156.0,253.5" stroke="black" stroke-width="2" fill="none" />
<polyline points="154.0,246.0,146.0,253.5,138.0,261.0,130.5,268.0,123.5,275.0,116.5,282.0,108.5,289.0,100.5,295.5,92.5,302.0,84.5,309.5,76.5,317.0,68.5,324.5,61.0,332.0" stroke="black" stroke-width="2" fill="none" />
<polyline points="50.5,331.5,58.5,324.0,66.5,316.5,74.5,309.5,82.5,301.5,90.5,294.0,99.0,286.5,107.0,279.0,115.5,271.5,124.0,264.5,131.5,257.5,139.0,250.5,146.5,243.5,154.5,236.0,162.5,229.0" stroke="black" stroke-width="2" fill="none" />
<polyline points="154.5,229.5,146.5,236.5,138.5,243.5,130.5,250.5,122.5,257.5,115.0,264.5,107.0,271.5,99.5,279.0,91.5,286.0,84.0,293.5,75.5,301.0,68.0,308.5,59.5,316.5,51.0,324.5,42.5,332.0" stroke="black" stroke-width="2" fill="none" />
<polyline points="35.5,331.5,43.5,323.5,51.0,316.0,58.0,309.0,66.0,302.0,74.0,294.5,82.0,287.5,89.5,280.0,97.5,272.5,106.0,265.5,114.0,258.0,121.5,250.5,130.5,243.0,139.0,236.0,147.0,228.0,155.5,220.5,163.0,212.5" stroke="black" stroke-width="2" fill="none" />
<polyline points="178.0,220.5,170.5,228.0" stroke="black" stroke-width="2" fill="none" />
<polyline points="179.0,228.5,171.0,236.0,164.0,243.5" stroke="black" stroke-width="2" fill="none" />
<polyline points="147.0,222.5,138.5,229.5,130.0,237.0,122.0,244.0,113.5,250.5,105.5,257.5,97.5,264.5,89.5,271.0,81.5,278.0,73.5,285.5,65.5,293.0,58.0,300.5,50.5,308.5,43.0,316.0,35.5,323.5,28.5,330.5" stroke="black" stroke-width="2" fill="none" />
<polyline points="4.0,329.5,12.5,322.0,21.0,314.0,28.5,306.5,35.5,299.5,43.0,292.0,51.0,284.5,59.0,277.5,67.0,270.0,75.0,262.5,83.0,255.0,91.5,248.0,100.0,241.0,107.5,233.5,115.0,226.5,123.0,219.0,131.5,212.0,139.5,204.5" stroke="black" stroke-width="2" fill="none" />
<polyline points="147.0,203.5,138.5,211.0,131.0,218.0" stroke="black" stroke-width="2" fill="none" />
<polyline points="132.0,227.5,124.0,235.5,116.5,243.0,108.0,250.0,99.5,257.0,91.0,264.5,83.5,272.0,75.5,279.5,67.5,287.0,59.0,295.0,51.0,302.5,43.0,310.0,35.0,317.5,27.5,325.0,20.0,332.0" stroke="black" stroke-width="2" fill="none" />
<polyline points="12.5,331.0,20.5,324.5,28.0,317.5,36.0,310.0,44.5,303.0,52.5,295.0,60.5,287.5,68.0,279.5,76.0,271.5,84.0,264.0,92.0,256.5,99.5,249.5,107.5,242.0,115.5,234.5,123.5,227.0" stroke="black" stroke-width="2" fill="none" />
<polyline points="115.5,218.0,108.0,225.5,100.5,233.0,92.5,241.0,84.0,248.5,76.0,256.0,68.0,263.5,60.5,270.5,52.5,277.5,44.5,284.5,36.5,291.5,28.5,299.5,21.0,307.5,13.0,315.5,5.0,323.0" stroke="black" stroke-width="2" fill="none" />
<polyline points="4.5,320.5,12.0,320.0,19.5,319.5,27.5,319.0,35.0,317.5,43.5,317.0,51.5,316.0,59.5,315.5,67.5,315.0,75.0,314.5,83.5,314.5,91.5,313.5,99.5,313.5,108.0,313.0,116.0,313.5,124.0,313.0,132.0,313.0,140.0,312.0,148.0,311.0,156.5,310.5,164.5,309.5,172.0,309.0,180.0,309.0,187.5,309.0,195.5,309.0,203.5,309.0,211.5,309.0" stroke="black" stroke-width="2" fill="none" />
<polyline points="195.0,217.0,202.5,209.5,210.5,202.0" stroke="black" stroke-width="2" fill="none" />
<polyline points="211.0,197.0,202.5,197.5,194.5,198.5,186.5,199.5,178.5,200.5,170.5,200.5,162.0,200.5,153.5,200.5,145.5,201.0,137.0,201.5,129.5,202.5,122.0,202.5,115.0,203.0,107.0,203.5,99.0,203.5,91.0,204.0,83.0,204.5,75.0,204.5,66.5,204.5,58.5,204.5" stroke="black" stroke-width="2" fill="none" />
<polyline points="67.5,208.0,59.0,216.0,50.5,224.5,42.0,232.5,34.5,241.0,27.0,248.5,19.5,256.0,11.5,263.5,4.0,271.5" stroke="black" stroke-width="2" fill="none" />
<polyline points="4.5,273.0,12.0,272.5,20.0,271.5,27.5,270.5,35.5,269.5,43.5,268.5" stroke="black" stroke-width="2" fill="none" />
<polyline points="36.5,263.0,28.5,264.0" stroke="black" stroke-width="2" fill="none" />
<polyline points="21.0,264.0,13.0,264.5" stroke="black" stroke-width="2" fill="none" />
<polyline points="3.5,269.0,11.0,268.0,19.0,267.0,27.5,266.5,35.5,266.0,43.5,265.5,52.0,265.5,59.5,265.5,67.5,265.5,76.0,265.0,84.0,265.0,91.5,264.5,99.5,263.5,107.0,262.5,114.5,261.5,122.0,261.0,130.5,260.0,138.5,259.5,146.5,259.0,154.0,259.0,161.5,258.5,169.5,258.5,177.5,258.0,186.0,257.5,194.5,257.0,203.0,256.5,211.5,256.5" stroke="black" stroke-width="2" fill="none" />
<polyline points="220.5,263.5,212.0,264.0,204.0,264.5,195.5,265.0,186.5,265.0,177.5,265.5,169.0,266.0,161.0,266.5,153.5,267.0,146.0,267.5,138.5,268.5,131.0,269.0,123.5,269.5,116.5,270.0,108.5,270.5,100.5,271.0,92.0,272.0,84.0,272.5,76.0,273.0,68.0,274.0,60.0,275.0,51.0,275.5,43.0,276.0,34.5,276.5,26.5,276.5,18.5,276.5,11.0,276.5,3.0,277.0" stroke="black" stroke-width="2" fill="none" />
<polyline points="4.5,279.0,12.5,271.5,20.5,264.0,28.5,257.0,36.5,249.5,44.5,242.0,52.0,234.0,59.5,226.0,67.5,218.0,75.0,210.5" stroke="black" stroke-width="2" fill="none" />
<polyline points="86.0,212.5,78.0,220.0,69.5,227.5,60.5,235.0,51.5,242.5,43.0,250.0,35.0,257.5,26.5,265.5,18.0,273.0,9.5,280.5,1.0,288.0" stroke="black" stroke-width="2" fill="none" />
<polyline points="4.0,287.0,12.5,286.5,20.5,286.0,28.5,285.5,36.0,284.5,44.0,284.0,52.0,283.5,60.0,282.5,68.0,282.0,76.5,282.0,84.5,281.5,92.5,281.0,100.0,281.0,107.5,281.0,115.0,280.0,123.0,279.5,130.5,278.5,138.0,278.0,146.0,277.0,153.5,276.5,161.5,276.0,170.0,275.5,178.5,275.0,186.5,274.5,194.5,273.5,202.5,273.5,211.0,272.5,219.0,272.0,227.0,271.5,234.5,271.0,242.5,271.0,250.5,270.5,258.5,269.5,267.0,269.0,275.0,268.5,283.5,268.0,291.0,267.5,299.0,267.0,306.5,267.0,314.5,266.5,322.0,266.0,330.5,265.5,338.5,265.5,347.0,264.5,355.5,264.0,363.5,263.5,372.0,263.0,380.0,262.5,388.0,262.5,395.5,262.5,403.5,262.5,411.0,261.5,419.5,260.5,427.5,259.5,435.5,258.5,443.5,258.0,451.5,257.0,459.5,256.0,467.0,255.5,475.0,254.0,483.0,253.5,491.0,253.0,499.0,253.0,507.0,253.0,515.0,253.0" stroke="black" stroke-width="2" fill="none" />
<polyline points="516.0,304.5,507.5,304.5,499.5,305.0,491.0,305.5,482.5,306.0,474.5,306.5,466.5,307.5,459.0,308.0,451.0,309.0,443.0,310.0,435.0,310.5,427.5,311.5,419.5,312.0,411.0,312.5,402.5,312.5,394.5,313.0,386.5,313.5,378.5,314.5,370.5,315.0,363.0,316.0,355.0,316.0,347.5,316.5,340.0,316.5,332.0,316.5,324.5,316.5,316.0,317.0,307.5,317.5,300.0,318.0,292.0,318.5,283.5,319.5,275.5,320.0,267.5,321.0,259.0,321.5,250.5,321.5,242.0,322.5,234.0,322.5,226.0,322.5,218.0,323.5,210.5,324.0,203.5,325.0,196.0,325.5,188.0,327.0,180.5,328.0,172.0,328.0,163.5,328.0,155.5,329.0,147.5,329.5,139.5,330.0,131.0,329.5,123.0,330.0,114.5,330.5,106.5,331.5,98.0,332.0,90.5,332.5,82.5,332.5,74.5,333.0,66.5,333.5,58.5,334.5,50.5,335.5,43.0,336.0,35.0,337.0,27.0,337.0,19.5,337.5,12.0,338.0,4.0,338.5" stroke="black" stroke-width="2" fill="none" />
<polyline points="4.0,334.5,12.0,334.0,19.5,334.0,27.0,334.0,35.0,333.0,43.0,332.5,50.5,332.0,58.0,331.0,66.0,330.0,73.5,329.0,81.5,328.5,90.5,327.5,99.0,327.5,107.0,327.0,115.0,327.5,123.5,327.0,131.5,327.0,140.0,326.5,148.0,326.0,156.5,325.5,164.5,325.0,172.5,325.0,181.0,324.5,189.0,323.5,197.0,323.0,204.5,322.5,212.0,321.5,219.5,320.5,227.5,319.5,235.5,319.0,243.0,318.0,251.0,318.0,259.0,318.0,267.0,317.5,275.5,317.0,284.0,316.0,292.0,315.5,300.0,315.0,308.5,314.0,316.5,313.0,325.0,312.5,332.5,312.0,339.5,312.0,347.0,311.5,354.5,311.5,362.5,310.5,370.5,310.5,378.0,310.0,386.0,309.5,394.0,309.0,402.5,308.0,410.0,307.5,418.5,307.0,427.0,307.0,434.5,306.5,443.0,306.0,451.5,305.5,460.5,305.0,468.5,304.0,476.5,303.0,485.0,301.5,493.0,301.5,500.0,301.0,507.5,300.5,516.0,300.5" stroke="black" stroke-width="2" fill="none" />
<polyline points="212.0,316.5,204.0,317.0,196.5,317.5,189.0,318.5,181.0,319.5,173.0,320.5,165.0,321.5,157.5,322.0,149.5,322.0,141.0,322.5,132.0,322.5,123.5,323.0,115.0,323.5,106.5,324.5,98.0,325.0,89.5,325.5,81.5,326.5,73.5,327.0,65.5,327.0,58.0,327.5,51.0,328.0,43.5,328.5,35.0,329.0,27.0,329.5,19.0,330.0,11.5,330.5,3.5,330.5" stroke="black" stroke-width="2" fill="none" />
<polyline points="3.5,327.0,11.5,326.0,19.0,325.5,27.0,324.5,35.0,323.0,43.0,321.5,50.5,321.5,58.5,321.5,66.5,321.0,74.0,320.5,82.5,319.5,90.0,319.0,98.0,318.5,106.0,318.0,114.5,317.5,122.5,317.0,131.0,317.0,139.0,316.5,147.5,316.0,156.5,315.5,164.5,315.0,172.5,315.0,179.5,315.0,187.5,314.5,195.0,314.0,203.5,313.5,211.5,313.0,219.5,312.5,228.0,311.5,236.0,311.0,244.0,310.5,252.0,310.5,260.0,310.5,268.0,310.0,276.0,309.5,284.0,308.5,292.0,308.0,299.5,307.0,307.5,306.0,315.5,305.5,323.5,305.0,331.5,304.5,340.0,304.0,348.0,303.5,356.0,303.0,363.5,303.0,372.0,302.5,380.0,302.0,387.5,301.5,395.0,300.5,403.0,299.5,411.0,299.5,419.0,299.0,427.0,299.0,435.5,299.0,443.5,299.0,451.5,298.0,459.5,297.5,467.5,297.0,476.5,296.0,484.5,295.0,492.0,294.5,499.5,293.5,507.0,293.5,515.0,293.0" stroke="black" stroke-width="2" fill="none" />
<polyline points="515.5,285.0,508.0,285.5,500.0,286.0,492.0,286.5,484.0,287.5,476.5,288.0,468.5,288.5,460.5,289.0,452.5,290.0,444.5,290.5,436.5,291.0,428.0,291.0,419.5,291.0,411.5,291.0,403.0,291.5,395.0,292.0,387.5,293.5,380.0,294.0,372.5,294.5,365.0,295.0,357.0,295.0,348.5,295.0,341.0,295.0,333.0,295.0,325.0,295.5,317.0,296.0,309.0,296.5,301.0,297.5,293.5,298.5,285.5,300.0,277.0,300.0,269.0,301.0,260.5,301.5,252.0,301.5,244.0,302.0,236.0,302.5,228.0,303.5,220.0,304.0,212.0,303.5,204.0,304.0,196.0,304.5,187.5,305.0,179.5,305.5,171.5,305.5,164.0,306.5,156.0,306.5,147.5,307.0,139.5,307.5,131.5,308.0,123.5,308.5,115.5,308.5,107.0,309.5,98.5,310.0,90.0,311.0,82.0,311.5,74.5,311.5,66.5,312.0,58.5,312.5,50.5,313.5,42.0,314.0,34.0,315.0,26.0,316.0,18.0,316.5,10.0,317.0,2.5,317.5" stroke="black" stroke-width="2" fill="none" />
<polyline points="5.0,316.5,13.0,309.0,21.5,301.5,29.0,294.0,37.0,286.5,44.5,278.5,52.0,270.5,59.0,263.0,67.0,255.5,75.0,248.5,82.5,241.5,90.5,234.5,99.0,227.0,107.0,219.5" stroke="black" stroke-width="2" fill="none" />
<polyline points="106.5,211.5,99.0,219.5,91.5,227.0,83.5,234.5,75.0,241.5,67.0,249.0,59.0,256.0,51.0,263.0,42.5,270.5,34.5,277.5,26.5,285.0,19.0,292.5,11.5,300.0,3.5,307.5" stroke="black" stroke-width="2" fill="none" />
<polyline points="4.5,306.5,12.5,305.5,20.5,304.5,28.5,304.0,36.5,303.5" stroke="black" stroke-width="2" fill="none" />
<polyline points="58.0,314.5,66.5,313.5,75.0,313.0,83.0,312.5,91.0,312.0,99.5,311.5,107.5,311.0,116.0,310.5,124.5,310.0,133.0,309.0,141.5,308.0,149.5,307.5,157.5,307.0,165.5,306.5,173.5,306.5,181.5,307.0,189.0,306.5,196.5,305.5" stroke="black" stroke-width="2" fill="none" />
<polyline points="187.0,217.0,195.0,209.0,203.0,201.5" stroke="black" stroke-width="2" fill="none" />
<polyline points="194.5,202.5,187.0,210.0" stroke="black" stroke-width="2" fill="none" />
<polyline points="210.5,217.5,202.0,218.0,194.0,219.0,186.5,219.5,178.5,220.0,170.5,220.5,163.0,221.0,154.5,221.5,146.0,221.5,138.0,222.0,130.5,222.5,122.0,223.0,114.0,224.0,105.5,225.0,97.5,225.5,90.0,225.5,82.5,226.0,74.0,226.5,66.5,226.5,58.5,227.0,50.5,227.5,42.5,227.5,35.0,228.0,27.5,228.0,19.5,228.5,12.0,229.5,4.0,230.0" stroke="black" stroke-width="2" fill="none" />
<polyline points="4.0,234.0,12.0,226.5,20.0,219.5,28.5,212.5" stroke="black" stroke-width="2" fill="none" />
<polyline points="18.0,212.5,10.0,220.0,2.0,227.0" stroke="black" stroke-width="2" fill="none" />
<polyline points="3.0,220.5,11.5,213.5" stroke="black" stroke-width="2" fill="none" />
<polyline points="11.5,219.5,19.5,219.0" stroke="black" stroke-width="2" fill="none" />
<polyline points="21.0,225.0,13.5,225.0" stroke="black" stroke-width="2" fill="none" />
<polyline points="10.5,234.0,2.0,235.0" stroke="black" stroke-width="2" fill="none" />
<polyline points="6.0,207.0,14.0,207.0,21.5,206.0,29.5,205.0" stroke="black" stroke-width="2" fill="none" />
<polyline points="83.0,226.5,75.0,234.5,67.0,242.0,59.0,250.0,51.5,258.0,43.5,266.0,35.5,273.0,27.5,280.5,19.5,288.0,12.5,295.0,4.5,302.0" stroke="black" stroke-width="2" fill="none" />
<polyline points="3.5,301.5,12.0,301.0,20.0,300.5,28.5,300.0,36.5,300.0,44.5,299.5,52.5,298.5,61.0,298.0,69.0,298.0,76.5,298.0,84.5,297.5,92.0,297.0,100.0,297.0,107.5,296.5,116.0,295.5,123.5,294.5,131.0,294.5,139.0,293.5,147.0,293.0,155.0,292.5,163.0,291.5,171.5,291.0,179.5,290.5,187.5,289.5,195.5,289.5,204.0,288.5,212.0,288.0,219.5,287.0,227.0,286.5,234.0,285.5,242.0,285.0,250.5,284.5,258.5,284.0,266.5,284.0,274.5,284.5,283.0,284.0,291.5,284.0,300.0,283.0,308.5,282.0,317.0,282.0,325.0,281.5,333.0,281.0,341.0,281.0,348.5,280.5,356.0,280.0,364.0,280.0,372.5,279.5,380.5,278.5,389.0,278.0,397.5,278.0,405.5,277.5,413.0,277.0,420.5,276.0,428.0,275.0,435.5,274.0,443.5,273.0,451.0,272.5,458.5,271.5,467.0,271.0,475.0,271.0,483.5,271.0,491.0,270.5,499.0,269.0,507.0,268.5,515.0,268.5" stroke="black" stroke-width="2" fill="none" />
<polyline points="515.5,277.5,507.5,277.5,499.5,278.0,491.0,278.0,483.0,278.5,475.0,279.0,467.5,279.5,459.5,280.0,452.0,281.0,444.0,281.5,436.0,281.5,428.5,282.0,420.5,282.0,412.0,282.0,404.0,282.5,396.5,283.5,388.5,283.5,380.0,284.0,372.0,285.0,364.0,285.5,356.0,286.0,348.0,287.5,340.0,288.0,331.5,289.0,323.0,289.5,315.0,289.5,307.0,289.5,299.5,289.5,292.0,289.5,284.0,290.5,276.5,291.0,268.0,291.5,260.0,292.0,252.5,292.0,244.5,292.5,236.5,293.0,228.5,293.5,220.5,294.5,212.0,295.0,203.5,295.5,195.0,296.0,186.0,296.5,177.5,297.0,169.0,297.0,160.5,298.0,152.5,298.5,145.0,299.5,137.5,300.0,130.0,300.5,122.5,301.0,114.5,302.0,106.5,302.0,99.0,302.5,91.5,303.5,83.0,304.0,75.0,305.0,67.0,306.0,59.0,307.0,51.5,307.5,43.5,308.0,35.0,308.5,27.0,309.0,19.0,309.5,11.0,310.0,3.0,310.0" stroke="black" stroke-width="2" fill="none" />
<polyline points="3.5,313.5,11.5,313.0,19.5,312.5,27.0,311.5,34.5,311.0,42.5,310.0,50.5,309.0" stroke="black" stroke-width="2" fill="none" />
<polyline points="5.0,293.5,13.0,286.5,21.5,279.0,29.5,271.5,37.5,264.0,44.5,256.5,52.0,249.0,59.5,241.5,67.0,233.5,74.5,225.5,81.5,217.5,89.5,209.5" stroke="black" stroke-width="2" fill="none" />
<polyline points="90.0,218.5,98.5,211.0" stroke="black" stroke-width="2" fill="none" />
<polyline points="121.5,210.0,129.5,202.5" stroke="black" stroke-width="2" fill="none" />
<polyline points="202.5,169.0,210.5,161.5" stroke="black" stroke-width="2" fill="none" />
<polyline points="214.0,164.5,206.0,165.0" stroke="black" stroke-width="2" fill="none" />
<polyline points="200.0,154.5,210.5,141.0,207.5,140.5,201.5,152.5,201.5,164.5,206.0,176.5,206.5,189.0,207.5,201.5,209.0,216.5,208.0,228.5,208.0,241.0,207.5,253.0,207.5,264.5,208.5,276.0,208.5,288.0" stroke="black" stroke-width="2" fill="none" />
<polyline points="230.5,290.5,233.5,278.5,232.0,266.5,232.0,254.5,232.0,242.5,232.0,231.0,235.0,219.0,229.0,213.0,217.0,213.0" stroke="black" stroke-width="2" fill="none" />
<polyline points="214.5,207.5,226.5,209.0,238.5,209.0" stroke="black" stroke-width="2" fill="none" />
<polyline points="130.5,289.5,122.0,290.0,113.5,290.5,105.5,291.5,97.5,292.0,89.0,292.5,81.0,293.0,73.5,293.5,66.0,293.5,58.5,294.0,50.0,295.0,42.5,295.5,34.5,296.0,27.0,296.5,19.0,297.0,11.0,297.5,3.0,298.5" stroke="black" stroke-width="2" fill="none" />
<polyline points="3.5,293.5,11.0,293.0,19.5,293.5,27.5,293.0,35.0,292.5,42.5,292.0,51.0,291.5,59.0,290.5,67.0,290.0,75.0,290.0,83.5,290.0,91.0,289.0,99.0,288.5,107.0,287.5,115.0,287.0,123.0,286.5,131.5,286.0,139.5,285.0,147.5,284.5,155.0,284.0,163.0,283.0,171.5,282.5,179.5,282.0,187.5,282.0,194.5,282.0,202.0,282.0,210.0,281.0,218.5,280.0,226.5,279.5,234.5,279.0,243.0,278.5,251.0,278.0,258.5,277.5,266.5,276.5,274.5,276.0,283.5,276.0,292.0,275.0,300.5,274.0,309.5,273.5,317.5,273.0,325.0,272.5,333.0,272.5,341.0,272.5,348.5,272.5,356.5,272.0,364.5,271.5,372.5,271.0,380.0,270.5,388.5,270.0,396.5,269.5,404.5,269.5,412.0,268.5,420.0,267.5,428.0,267.0,436.0,266.5,444.0,265.5,452.0,265.0,460.0,264.5,467.5,263.5,475.0,262.5,482.5,262.0,490.5,261.5,499.0,261.0,507.0,261.0,514.5,261.0" stroke="black" stroke-width="2" fill="none" />
<polyline points="29.0,289.5,21.5,290.5,13.5,291.0,5.0,291.5" stroke="black" stroke-width="2" fill="none" />
<polyline points="3.0,282.5,11.0,282.0,19.5,281.0,27.5,280.5" stroke="black" stroke-width="2" fill="none" />
<polyline points="1.5,2.0,13.5,2.5,25.5,2.5,37.5,3.0,49.5,3.0,62.0,3.0,74.0,3.5,86.0,4.0,98.0,4.0,110.5,4.5,122.5,4.5,134.5,4.5,146.0,4.5,157.5,4.5,169.5,4.5,181.5,4.5,193.0,4.0,205.0,4.0,217.0,3.5,229.0,3.5,241.0,3.5,253.5,3.0,265.5,3.5,278.0,3.5,290.0,3.5,302.0,4.0,314.5,4.0,326.5,3.5,338.5,3.5,350.5,3.5,362.5,3.5,374.5,3.5,387.0,3.5,399.0,3.5,411.0,3.5,423.0,4.0,435.0,4.0,447.0,4.5,459.0,4.5,471.0,4.5,482.5,5.0,495.0,4.5,507.0,4.5,512.5,12.0,512.5,24.5,513.0,36.5,513.0,48.5,513.0,60.5,513.0,72.5,513.0,84.5,513.5,96.5,513.0,108.0,513.0,120.0,512.5,131.5,512.0,143.0,512.0,155.0,511.5,167.0,511.5,179.5,511.5,191.5,511.5,203.5,511.0,215.5,511.5,227.5,512.0,242.5,512.0,254.5" stroke="black" stroke-width="2" fill="none" />
</svg>