<svg xmlns="http://www.w3.org/2000/svg" version="1.1"><polyline points="4.0,2.0,3.5,14.0,3.5,26.0,3.5,38.0,3.5,50.0,3.5,62.0,3.5,74.5,3.5,86.5,3.0,98.5,3.5,110.5,3.0,122.5,3.0,134.5,3.0,146.0,3.0,158.5,3.0,170.5" stroke="black" stroke-width="2" fill="none" />
<polyline points="4.0,169.5,12.0,162.0,20.5,155.5,28.5,148.0,37.0,139.5,45.5,132.0" stroke="black" stroke-width="2" fill="none" />
<polyline points="57.0,122.0,49.0,129.5,41.5,137.0,34.0,144.5,26.5,152.5,18.5,160.5,10.5,168.5,2.0,176.5" stroke="black" stroke-width="2" fill="none" />
<polyline points="6.0,174.0,14.0,173.0,21.5,173.0,29.0,172.5,37.0,172.0,45.0,171.5,52.5,171.0,61.0,170.5,69.0,170.5,77.0,170.0,85.5,169.5,93.0,169.0,100.5,169.0,108.5,168.0,116.5,166.5,124.0,165.5,132.0,165.0,139.5,165.0,147.0,164.5,155.0,164.5,163.0,164.0,171.0,163.0,179.0,162.5,187.0,162.0,195.0,161.5" stroke="black" stroke-width="2" fill="none" />
<polyline points="196.5,163.5,189.0,171.0,181.0,178.5,173.0,186.0,165.0,193.0,157.0,200.0,149.5,208.0,141.0,216.0,133.0,224.5,125.0,232.5,116.5,240.0,108.5,247.5,100.5,254.5" stroke="black" stroke-width="2" fill="none" />
<polyline points="85.0,249.5,93.0,242.5,100.0,235.0,107.5,228.0,115.0,221.5,123.0,214.5,131.5,206.5,139.5,199.0,148.0,191.0,156.5,183.5,165.5,176.0,172.5,169.5,180.0,162.5,187.0,156.0,195.0,148.5,202.5,141.0" stroke="black" stroke-width="2" fill="none" />
<polyline points="205.0,132.5,197.0,139.5,189.5,146.5,181.5,154.0,173.5,161.0,165.5,168.5,157.5,176.5,149.0,184.5,141.0,192.0,133.0,199.5,125.0,207.0,117.0,214.0,108.5,220.5,100.0,228.0,92.0,235.0,84.0,242.5,76.0,250.0" stroke="black" stroke-width="2" fill="none" />
<polyline points="68.5,251.5,77.0,243.5,85.0,236.0,93.5,228.5,101.5,220.5,109.5,213.0,117.0,206.0,124.5,198.5,132.5,191.0,140.5,183.0,148.5,175.5,156.5,168.0,164.0,160.5,172.5,152.5,181.0,144.5,189.0,137.0,197.0,129.0,205.0,122.0" stroke="black" stroke-width="2" fill="none" />
<polyline points="204.5,114.0,196.0,121.5" stroke="black" stroke-width="2" fill="none" />
<polyline points="197.5,117.5,197.5,129.5,197.0,141.5,195.5,153.5,191.0,165.0,191.0,177.0,189.5,189.0,189.5,201.0,189.5,213.0,189.5,225.0,189.5,237.5,190.0,249.5" stroke="black" stroke-width="2" fill="none" />
<polyline points="195.0,249.5,187.0,257.0" stroke="black" stroke-width="2" fill="none" />
<polyline points="178.0,257.5,185.5,250.0,193.5,242.0" stroke="black" stroke-width="2" fill="none" />
<polyline points="195.0,236.5,186.5,244.0,178.5,251.0,170.5,258.0" stroke="black" stroke-width="2" fill="none" />
<polyline points="163.5,258.5,170.5,250.5,178.5,242.5,186.5,235.0,195.0,228.0" stroke="black" stroke-width="2" fill="none" />
<polyline points="194.5,222.0,186.5,229.5,178.5,236.0,171.0,243.0,163.5,250.5,156.0,257.5" stroke="black" stroke-width="2" fill="none" />
<polyline points="148.0,257.5,156.0,250.0,163.5,243.0,171.0,236.0,179.0,228.5,187.0,221.0,195.0,213.5" stroke="black" stroke-width="2" fill="none" />
<polyline points="197.0,205.5,189.0,213.0,180.5,220.5,172.5,227.5,164.0,235.0,156.0,242.5,147.5,250.0,138.5,258.0" stroke="black" stroke-width="2" fill="none" />
<polyline points="131.0,257.0,139.5,249.5,147.5,242.0,156.0,235.0,164.0,227.5,172.5,220.0,180.5,212.5,188.5,205.0,196.5,197.5" stroke="black" stroke-width="2" fill="none" />
<polyline points="195.0,188.0,187.5,195.5,180.0,203.5,172.0,211.0,164.0,218.5,156.0,226.0,148.0,233.5,140.0,240.5,131.5,248.0,123.5,255.5" stroke="black" stroke-width="2" fill="none" />
<polyline points="116.0,255.0,124.0,247.5,132.0,240.5,140.5,233.0,148.5,225.5,156.0,218.0,163.5,210.5,171.5,203.0,179.5,195.0,187.5,187.5,195.0,179.5" stroke="black" stroke-width="2" fill="none" />
<polyline points="196.0,173.5,188.0,181.0,180.0,188.0,172.0,195.5,164.0,203.5,156.5,210.5,148.5,218.0,141.0,226.0,133.0,233.5,124.5,241.0,116.5,248.5,109.0,256.0" stroke="black" stroke-width="2" fill="none" />
<polyline points="91.5,252.5,100.0,244.5,109.0,236.0,117.5,228.5,125.0,221.5,132.0,215.0,139.5,208.0,147.5,200.5,155.5,193.0,164.0,186.0,172.5,178.5,180.5,171.0,188.0,163.5,195.5,155.5" stroke="black" stroke-width="2" fill="none" />
<polyline points="220.0,147.5,228.0,147.5" stroke="black" stroke-width="2" fill="none" />
<polyline points="228.0,139.5,220.0,140.0" stroke="black" stroke-width="2" fill="none" />
<polyline points="219.5,134.0,227.5,133.5" stroke="black" stroke-width="2" fill="none" />
<polyline points="227.5,126.0,219.5,126.5" stroke="black" stroke-width="2" fill="none" />
<polyline points="219.5,120.5,218.0,132.5,217.5,144.0,225.0,156.0,223.0,167.5,217.0,179.0,209.0,191.0,217.0,203.0,217.5,215.0,216.0,227.0,216.5,239.5,216.0,251.5,217.0,264.0,215.0,276.0,215.0,288.0,209.0,300.0,196.5,303.5,209.0,298.5,218.0,305.0,230.0,300.5,244.5,297.5,257.0,297.5,268.5,296.5,280.5,296.5,293.0,297.0,305.5,297.0,317.5,295.5,330.0,295.5,342.0,295.5,354.0,295.0,366.0,294.5,378.0,295.0,390.0,295.0,402.0,296.5" stroke="black" stroke-width="2" fill="none" />
<polyline points="396.0,290.5,388.5,298.0" stroke="black" stroke-width="2" fill="none" />
<polyline points="387.0,289.0,378.5,296.5" stroke="black" stroke-width="2" fill="none" />
<polyline points="379.5,292.5,372.0,300.0" stroke="black" stroke-width="2" fill="none" />
<polyline points="371.5,292.5,363.5,300.0" stroke="black" stroke-width="2" fill="none" />
<polyline points="365.0,291.5,356.5,299.0,348.5,306.5" stroke="black" stroke-width="2" fill="none" />
<polyline points="341.0,305.5,349.5,297.5,358.0,290.5" stroke="black" stroke-width="2" fill="none" />
<polyline points="347.5,290.0,339.5,297.5,331.5,305.0" stroke="black" stroke-width="2" fill="none" />
<polyline points="323.5,305.0,331.0,298.5,339.0,291.5" stroke="black" stroke-width="2" fill="none" />
<polyline points="333.5,293.0,325.0,300.5,316.0,308.0" stroke="black" stroke-width="2" fill="none" />
<polyline points="309.0,306.5,317.0,298.5,325.0,291.0" stroke="black" stroke-width="2" fill="none" />
<polyline points="316.5,292.5,308.5,300.0,300.0,307.0" stroke="black" stroke-width="2" fill="none" />
<polyline points="291.5,306.5,299.5,299.5,307.5,292.0" stroke="black" stroke-width="2" fill="none" />
<polyline points="300.5,293.5,293.0,301.0,285.0,308.5" stroke="black" stroke-width="2" fill="none" />
<polyline points="284.0,300.5,276.5,307.5" stroke="black" stroke-width="2" fill="none" />
<polyline points="275.5,300.5,267.5,308.0" stroke="black" stroke-width="2" fill="none" />
<polyline points="261.5,307.0,269.0,299.5" stroke="black" stroke-width="2" fill="none" />
<polyline points="261.5,298.5,253.5,306.0" stroke="black" stroke-width="2" fill="none" />
<polyline points="250.0,298.5,241.5,306.0" stroke="black" stroke-width="2" fill="none" />
<polyline points="235.5,306.5,244.0,299.0" stroke="black" stroke-width="2" fill="none" />
<polyline points="235.0,299.0,227.5,306.5" stroke="black" stroke-width="2" fill="none" />
<polyline points="227.5,306.5,235.5,306.0,243.5,306.0,252.0,305.5,260.0,305.0,268.0,304.5,276.5,304.0,284.5,303.0,292.5,302.5,300.0,301.5,307.5,301.0,316.0,300.5,324.5,300.0,333.0,299.5,340.5,299.0,348.5,298.0" stroke="black" stroke-width="2" fill="none" />
<polyline points="371.5,273.5,379.5,266.0,387.5,259.0,395.5,252.0,403.0,244.5,410.5,236.5,418.0,229.0,426.0,222.0,433.5,215.0,441.5,207.0,450.0,199.5,459.0,191.5,468.0,184.0,477.0,176.5,485.0,169.0,493.5,161.5,501.5,154.0,510.0,146.0,518.0,139.0" stroke="black" stroke-width="2" fill="none" />
<polyline points="517.0,131.5,508.5,139.0,500.5,145.5,492.0,153.0,484.0,160.5,476.0,168.0,467.5,175.5,459.5,183.5,451.5,191.5,443.0,199.5,434.5,207.5,427.0,215.0,419.5,222.5" stroke="black" stroke-width="2" fill="none" />
<polyline points="418.5,230.0,426.5,229.5,434.5,229.5,442.0,229.0,449.5,228.5,457.5,228.5,465.5,228.0,473.5,227.0,482.0,226.5,490.0,225.5,498.0,224.5,505.5,224.5,513.5,224.0" stroke="black" stroke-width="2" fill="none" />
<polyline points="515.5,220.5,507.5,228.0,499.0,235.5" stroke="black" stroke-width="2" fill="none" />
<polyline points="507.5,237.0,516.0,230.0" stroke="black" stroke-width="2" fill="none" />
<polyline points="516.0,244.5,508.0,251.5,499.0,258.5,490.5,266.0,482.5,273.5,474.5,281.5" stroke="black" stroke-width="2" fill="none" />
<polyline points="509.0,283.0,517.5,276.0" stroke="black" stroke-width="2" fill="none" />
<polyline points="515.0,266.0,507.0,273.0,499.0,280.5" stroke="black" stroke-width="2" fill="none" />
<polyline points="491.0,280.5,499.0,273.5,507.0,266.5,515.5,259.0" stroke="black" stroke-width="2" fill="none" />
<polyline points="516.0,249.0,508.0,256.5,499.5,264.0,491.5,272.0,483.5,279.5" stroke="black" stroke-width="2" fill="none" />
<polyline points="466.0,281.0,474.0,273.5,482.0,266.5,489.5,259.0,497.5,251.0,506.0,243.5" stroke="black" stroke-width="2" fill="none" />
<polyline points="498.5,245.0,491.0,252.0,483.0,260.0,475.5,268.0,468.5,275.5,460.5,283.0" stroke="black" stroke-width="2" fill="none" />
<polyline points="452.0,281.5,459.5,274.0,467.0,266.5,474.5,259.0,482.5,251.0,490.5,243.5" stroke="black" stroke-width="2" fill="none" />
<polyline points="484.0,242.0,476.0,249.0,467.5,256.5,459.0,265.0,450.5,273.5,442.5,281.0" stroke="black" stroke-width="2" fill="none" />
<polyline points="411.0,276.5,419.5,269.5,428.0,261.5,436.0,254.0,444.0,246.5,451.5,239.0,459.0,231.5,466.5,224.0,474.5,216.0,483.0,208.5,491.0,201.0,499.0,193.0,506.5,185.0,514.5,177.5" stroke="black" stroke-width="2" fill="none" />
<polyline points="515.0,185.0,506.5,192.5,499.0,200.5,491.0,208.5,482.5,216.5,474.5,224.0,466.5,231.5" stroke="black" stroke-width="2" fill="none" />
<polyline points="475.5,232.0,483.5,224.5,491.5,217.0,499.5,209.5,507.0,201.5,515.0,193.5" stroke="black" stroke-width="2" fill="none" />
<polyline points="515.0,202.5,507.5,210.5,500.0,217.5,492.0,225.0,483.5,232.5" stroke="black" stroke-width="2" fill="none" />
<polyline points="491.5,233.5,500.0,226.0,508.0,218.0,516.0,210.0" stroke="black" stroke-width="2" fill="none" />
<polyline points="516.0,168.5,507.5,176.5,499.5,185.0,491.0,192.5,483.0,200.5,474.5,208.0,467.0,216.0,459.5,223.5,452.0,231.5,444.0,239.0,436.0,246.5,428.0,254.0,420.5,261.5,412.5,269.0,404.5,276.0" stroke="black" stroke-width="2" fill="none" />
<polyline points="396.5,275.5,405.0,268.0,413.5,261.0,422.0,254.0,429.5,247.0,437.5,239.5,445.0,232.0,453.5,224.5,461.0,217.0,468.0,208.5,476.0,200.5,484.0,193.0,491.5,185.0,499.5,177.0,507.0,168.5,514.5,160.5" stroke="black" stroke-width="2" fill="none" />
<polyline points="516.5,155.5,508.5,162.5,500.5,170.0,492.0,178.0,484.0,185.5,475.0,193.0,467.5,200.5,460.0,208.0,451.5,215.5,443.5,223.0,435.5,230.5,427.5,238.0,419.5,245.5,411.5,253.5,404.0,261.0,395.5,268.5,387.5,276.0" stroke="black" stroke-width="2" fill="none" />
<polyline points="379.0,275.5,386.0,268.0,393.5,260.5,401.5,252.5,409.0,244.5,417.0,236.5,425.0,229.0,433.0,221.5,441.0,213.5,449.5,206.5,458.5,199.5,467.5,192.5,476.0,185.0,484.5,177.5,492.5,169.5,501.5,162.0,510.0,154.5,518.0,147.5" stroke="black" stroke-width="2" fill="none" />
<polyline points="517.0,124.0,509.0,131.5,501.0,139.0,492.5,146.5,484.5,154.5,476.5,162.5,467.5,170.0,459.0,177.0,450.5,184.0,442.0,191.0,434.0,198.0,426.0,206.0,417.5,213.5,409.5,220.5" stroke="black" stroke-width="2" fill="none" />
<polyline points="403.5,218.0,411.5,218.0,419.5,217.5,427.5,217.5,435.5,217.0,444.0,216.5,451.5,216.0,459.5,215.0,467.5,214.5,475.0,214.5,483.0,214.5,491.0,213.5,499.5,212.5,507.5,212.0,515.5,212.0" stroke="black" stroke-width="2" fill="none" />
<polyline points="476.5,241.5,469.0,249.0,461.0,256.5,453.0,264.0,445.0,271.5,437.0,278.5" stroke="black" stroke-width="2" fill="none" />
<polyline points="426.5,281.0,434.0,273.0,441.5,265.5,449.5,258.5,457.5,251.5,465.5,244.0" stroke="black" stroke-width="2" fill="none" />
<polyline points="459.5,243.0,452.0,250.5,443.5,258.0,435.5,266.0,426.5,273.5,418.5,281.0" stroke="black" stroke-width="2" fill="none" />
<polyline points="379.0,291.5,371.0,292.0,362.5,293.0,354.5,293.5,346.5,294.5,338.5,296.0,330.0,297.0,321.5,297.5,314.0,298.0" stroke="black" stroke-width="2" fill="none" />
<polyline points="322.5,280.0,331.0,272.5,339.0,265.0,347.0,258.0,355.0,250.5,363.0,243.0,371.0,235.5" stroke="black" stroke-width="2" fill="none" />
<polyline points="375.0,233.0,387.0,233.0" stroke="black" stroke-width="2" fill="none" />
<polyline points="387.0,235.0,379.0,242.5,370.5,250.0,362.5,257.5,355.0,264.5,347.0,271.5,339.0,279.5" stroke="black" stroke-width="2" fill="none" />
<polyline points="358.0,279.0,366.0,272.0,373.5,264.0,381.0,256.0,389.0,249.0,397.0,242.0,405.0,234.5" stroke="black" stroke-width="2" fill="none" />
<polyline points="413.0,236.0,405.0,243.5,397.0,250.0,389.0,257.5,381.0,265.0,372.5,272.5,364.5,280.0" stroke="black" stroke-width="2" fill="none" />
<polyline points="348.5,279.5,356.5,272.0,364.0,264.5,371.5,257.0,379.0,250.0,387.0,243.0,395.5,235.5" stroke="black" stroke-width="2" fill="none" />
<polyline points="395.5,220.0,403.0,212.0,410.5,204.5,418.5,197.0,426.0,190.0,433.5,182.0,441.5,174.5,449.5,167.0,458.5,160.0,467.0,152.5,475.5,145.5,483.5,138.0,492.0,130.0,500.0,122.5,508.0,115.5,516.0,108.5" stroke="black" stroke-width="2" fill="none" />
<polyline points="518.5,116.0,510.0,123.0,501.5,130.5,493.0,137.5,485.0,145.0,476.5,153.0,468.0,160.5,459.0,168.0,450.5,176.0,442.5,183.5,434.5,190.5,426.0,198.5,418.0,205.5,410.0,213.0,401.5,220.0" stroke="black" stroke-width="2" fill="none" />
<polyline points="396.0,211.5,388.5,219.0,380.5,226.5" stroke="black" stroke-width="2" fill="none" />
<polyline points="379.5,226.5,387.5,226.0,395.5,225.0,403.0,224.5,410.5,224.0,418.0,223.5,426.5,222.5,434.5,221.5,442.0,220.5,450.0,219.5,458.0,219.0,466.5,218.5,474.0,218.0,482.5,217.5,490.5,217.5,499.5,217.5,507.5,217.5,516.5,217.5" stroke="black" stroke-width="2" fill="none" />
<polyline points="515.0,168.0,507.0,168.0,499.5,168.0,491.5,168.5" stroke="black" stroke-width="2" fill="none" />
<polyline points="474.0,176.0,482.5,175.5,490.5,175.0,498.0,174.5,506.0,174.5,514.0,174.0" stroke="black" stroke-width="2" fill="none" />
<polyline points="484.0,168.0,475.5,168.0,467.5,168.5" stroke="black" stroke-width="2" fill="none" />
<polyline points="445.0,185.5,453.5,185.0,461.0,184.0,469.0,183.5,477.0,183.0,484.5,182.0,492.5,181.0,499.5,180.5,507.0,179.5,514.0,179.5" stroke="black" stroke-width="2" fill="none" />
<polyline points="514.0,97.0,506.5,104.0,498.0,112.0,490.5,120.0,482.5,128.0,474.5,136.0,466.5,143.5,458.5,150.5,450.0,157.5,442.0,165.5,434.0,173.5,425.5,181.0,418.0,188.5,410.5,196.5,403.0,204.5,396.0,212.0,388.0,220.0" stroke="black" stroke-width="2" fill="none" />
<polyline points="387.5,210.0,379.5,217.5,371.5,225.0" stroke="black" stroke-width="2" fill="none" />
<polyline points="373.0,219.5,365.0,227.0" stroke="black" stroke-width="2" fill="none" />
<polyline points="364.5,221.5,372.5,221.0,381.0,220.5,389.0,220.0,396.5,220.0,405.0,219.5,413.0,219.5,421.0,219.0,429.0,218.5,437.0,218.0,445.5,217.0,453.0,216.5,460.5,217.0,468.5,216.5,476.0,215.0,484.0,214.5,491.5,214.0,499.5,214.0,507.5,213.5,515.0,212.0" stroke="black" stroke-width="2" fill="none" />
<polyline points="469.0,174.5,461.0,175.0,453.5,175.5,445.5,176.0,437.5,177.0,429.5,177.0" stroke="black" stroke-width="2" fill="none" />
<polyline points="434.0,186.0,426.0,186.5,418.5,186.5" stroke="black" stroke-width="2" fill="none" />
<polyline points="411.5,187.0,419.5,179.5,427.5,172.5,435.5,165.0,443.5,158.0,450.5,150.5,458.5,143.5,467.0,136.5,474.5,129.0,483.0,121.5,490.5,114.0,498.0,106.5,505.5,99.0,513.5,91.0" stroke="black" stroke-width="2" fill="none" />
<polyline points="514.5,84.0,507.0,91.5,499.0,99.0,491.0,106.5,483.5,113.5,475.5,120.5,467.5,128.0,460.0,135.5,451.5,143.0,443.0,150.0,434.5,157.5,426.5,165.0,418.5,172.5,410.5,179.5" stroke="black" stroke-width="2" fill="none" />
<polyline points="403.5,179.5,411.5,172.0,419.5,164.5,427.0,156.5,435.5,149.0,443.5,142.0,451.5,135.0,459.5,127.5,467.5,120.5,475.0,113.0,484.0,105.5,491.5,98.0,499.5,90.5,507.5,83.0,514.5,75.5" stroke="black" stroke-width="2" fill="none" />
<polyline points="516.5,66.0,508.5,74.0,500.5,82.0,492.0,89.5,484.0,97.0,476.0,104.0,467.5,111.5,459.5,119.5,451.0,127.0,443.0,134.0,434.5,141.5,426.5,149.5,418.5,157.0,410.5,164.0,403.0,171.5" stroke="black" stroke-width="2" fill="none" />
<polyline points="396.5,172.0,404.0,164.5,411.5,156.5,419.0,149.0,426.5,142.0,434.5,135.0,442.0,127.5,450.5,119.5,459.0,112.0,467.0,104.0,476.0,96.0,484.0,89.0,492.0,81.5,500.5,74.5,509.0,67.0,517.0,60.0" stroke="black" stroke-width="2" fill="none" />
<polyline points="517.5,50.5,509.5,58.0,501.5,66.0,492.5,74.0,483.5,82.0,475.0,89.5,467.0,97.5,459.0,105.0,451.5,113.0,443.0,120.5,435.0,128.0,427.0,135.0,419.5,142.0,412.0,149.0,404.5,156.0,397.5,163.0,389.0,170.5" stroke="black" stroke-width="2" fill="none" />
<polyline points="393.5,170.0,401.5,169.5" stroke="black" stroke-width="2" fill="none" />
<polyline points="403.0,182.5,411.0,181.5,418.5,180.5,426.5,180.5,435.0,180.0,443.0,180.0,450.5,179.0,458.5,178.5,466.5,178.0,474.5,177.5,483.0,177.0,490.5,176.0,498.5,175.5,506.0,175.0,513.5,174.5" stroke="black" stroke-width="2" fill="none" />
<polyline points="514.0,228.5,506.5,228.5,498.0,229.0,490.0,229.0,482.0,229.5,474.5,230.0,466.5,230.0,459.0,230.0,451.5,230.0,444.5,230.5,436.5,231.0,428.0,231.5,420.0,232.0" stroke="black" stroke-width="2" fill="none" />
<polyline points="435.5,235.0,447.5,234.0,459.5,234.0,471.5,234.5,483.5,234.5,496.0,234.5,508.0,234.5" stroke="black" stroke-width="2" fill="none" />
<polyline points="517.0,203.5,508.5,203.5,500.5,204.0,492.5,204.5,484.5,205.0,476.0,205.0,467.5,205.5,459.0,206.5,450.5,207.5,442.5,208.0,434.0,208.5,426.0,209.5,418.0,210.0,410.0,211.0" stroke="black" stroke-width="2" fill="none" />
<polyline points="411.0,201.5,419.0,201.0,427.0,200.5,435.0,199.5,443.5,198.5,451.5,197.5,460.0,197.0,468.5,197.0,477.0,196.5,485.0,196.0,493.0,195.5,500.5,195.5,509.0,195.0,517.0,194.5" stroke="black" stroke-width="2" fill="none" />
<polyline points="515.5,186.0,508.0,186.0,500.0,186.5,492.0,187.0,484.0,188.0,476.0,189.0,467.5,190.0,459.5,190.5,451.5,191.0,443.0,191.5,435.0,192.5,426.5,192.5,418.5,193.0,410.5,193.0" stroke="black" stroke-width="2" fill="none" />
<polyline points="413.0,191.0,420.5,190.0,428.0,189.5,435.5,189.0,443.0,188.0,450.5,187.5,459.0,187.0,467.5,186.5,475.5,186.0,484.0,186.0,492.0,185.5,499.5,185.0,507.0,184.0,515.0,183.0" stroke="black" stroke-width="2" fill="none" />
<polyline points="514.5,189.5,506.5,189.5,498.0,189.5,489.5,190.0,481.0,190.5,473.0,191.0,464.5,191.5,457.0,192.5,449.0,193.5,440.0,195.0,432.0,196.5,424.0,197.5,416.5,198.0,409.0,198.5,400.5,198.5,392.5,199.0" stroke="black" stroke-width="2" fill="none" />
<polyline points="380.5,206.0,388.0,205.5,395.5,204.5,403.0,204.0,411.0,203.5,418.5,203.0,427.0,202.5,435.0,202.5,443.5,202.0,451.5,202.0,459.5,202.0,467.0,201.0,474.5,200.5,482.5,200.0,490.0,199.5,498.0,199.0,506.5,199.0,515.0,198.5" stroke="black" stroke-width="2" fill="none" />
<polyline points="515.5,204.5,507.5,205.0,499.0,206.0,490.5,206.5,482.5,207.0,475.0,207.5,467.5,208.0,460.0,208.5,451.5,209.5,444.0,210.0,435.5,210.0,427.5,210.5,419.5,211.0,411.5,211.0,404.0,211.5,396.5,212.0,388.5,212.5,380.5,212.5,372.0,212.5" stroke="black" stroke-width="2" fill="none" />
<polyline points="355.0,210.5,347.5,218.0" stroke="black" stroke-width="2" fill="none" />
<polyline points="340.5,219.5,332.5,219.5,324.0,219.5,316.0,220.5,308.5,221.0,300.5,222.0,292.0,223.0,284.0,223.5,276.0,224.0,267.5,224.5,259.0,225.0,251.0,226.5,243.0,227.0" stroke="black" stroke-width="2" fill="none" />
<polyline points="241.5,226.0,249.5,218.0,258.0,210.5,267.0,202.5,276.0,195.0,285.0,187.5,293.0,180.0,301.5,172.5,309.5,165.0,318.0,157.0,326.0,150.0,334.0,142.5,341.5,135.0,349.0,127.5,357.0,119.5,365.0,112.0,373.0,104.5,380.5,97.0,388.5,89.5,396.5,82.0,404.5,74.5" stroke="black" stroke-width="2" fill="none" />
<polyline points="396.5,74.5,389.0,81.5,380.5,89.0,371.5,96.5,362.5,103.5,354.5,111.0,346.5,119.5,339.0,127.5,331.5,135.5,323.5,144.0,316.0,151.5,308.0,158.5,300.0,165.5,292.0,173.0,283.5,181.0,275.5,188.5,267.0,195.5,258.5,203.0,249.5,210.0,241.5,217.5" stroke="black" stroke-width="2" fill="none" />
<polyline points="243.0,221.5,251.0,221.5,259.5,221.5,267.5,221.0,275.5,220.5,283.5,220.0,292.0,219.5,300.5,218.5,308.5,217.5,316.5,217.0,324.5,216.5,332.5,216.0,341.0,215.5" stroke="black" stroke-width="2" fill="none" />
<polyline points="338.5,223.0,350.0,222.5,348.0,238.0" stroke="black" stroke-width="2" fill="none" />
<polyline points="346.5,236.0,354.5,236.0,362.5,236.5,371.0,236.0,378.5,235.5,386.5,235.0,394.5,235.0,402.5,235.0,410.5,234.5,418.5,234.0,426.5,234.0,434.5,233.5,443.0,232.5,451.5,232.0,459.5,231.0" stroke="black" stroke-width="2" fill="none" />
<polyline points="460.5,234.0,452.5,234.5,444.5,235.0,436.0,235.5,428.0,236.0,420.5,237.0,413.0,237.5,405.0,238.5,396.0,239.0,388.0,239.0,379.5,240.0,371.5,240.5,363.5,240.5,355.5,241.0,347.5,242.0" stroke="black" stroke-width="2" fill="none" />
<polyline points="341.0,244.0,333.0,251.0,324.5,257.5" stroke="black" stroke-width="2" fill="none" />
<polyline points="323.5,257.0,331.0,256.5,338.5,256.0,346.5,255.0,354.0,254.5,362.0,253.5,369.5,253.0,377.5,253.0,385.5,252.5,393.5,252.0,402.0,251.5,410.0,251.0,418.0,250.5,426.0,249.5,434.0,249.0,442.0,248.0,450.0,248.0,457.5,247.5,465.5,247.5,473.0,247.5,481.5,247.0,489.5,246.5,498.0,246.0,506.5,245.5,515.0,245.5" stroke="black" stroke-width="2" fill="none" />
<polyline points="517.0,238.0,508.5,238.5,500.0,239.0,492.0,239.5,484.5,240.5,476.5,241.0,468.0,241.5,460.0,242.0,451.5,242.5,443.5,243.0,435.0,243.0,427.0,243.5,418.5,244.5,410.0,245.0,402.0,245.0,394.0,245.5,386.0,245.5,378.0,246.0,369.5,247.0,362.0,246.5,354.0,246.5,346.5,247.0,338.5,247.5,330.5,248.0" stroke="black" stroke-width="2" fill="none" />
<polyline points="331.5,244.0,323.5,251.0" stroke="black" stroke-width="2" fill="none" />
<polyline points="325.0,254.5,333.0,254.0,340.5,253.0,348.5,252.0,356.5,251.0,364.0,250.5,371.0,249.5,378.0,248.5,385.5,248.0,393.0,247.0,400.5,246.5,409.0,246.0,418.0,246.0,426.0,246.0,434.5,246.0,442.5,246.0,450.0,246.0,457.5,246.0,465.5,245.5,474.0,244.5,482.0,244.0,489.5,243.5,498.0,243.0,506.0,243.0,514.5,242.0" stroke="black" stroke-width="2" fill="none" />
<polyline points="515.5,252.0,507.0,252.5,498.5,253.0,490.0,253.5,482.0,254.0,474.0,254.5,465.5,255.5,457.5,256.0,449.5,257.0,442.0,257.0,434.0,258.0,426.5,258.5,418.5,258.5,410.0,259.0,402.0,259.5,394.5,260.0,386.0,261.0,378.5,261.5,370.5,262.0,362.5,262.0,354.5,263.0,346.0,264.0,338.0,264.5,330.0,265.0,321.5,265.5" stroke="black" stroke-width="2" fill="none" />
<polyline points="316.0,270.0,324.0,269.5,331.5,269.5,339.0,268.5,346.5,267.5,354.5,267.0,362.5,267.0,371.0,267.0,379.0,266.5,386.5,266.5,394.5,266.0,402.5,265.0,411.0,264.0,419.0,263.0,426.5,262.5,434.5,262.0,442.5,261.5,450.5,261.0,458.5,260.5,467.0,260.0,475.0,260.0,483.0,259.0,490.5,258.5,498.5,258.5,507.5,258.5,516.0,257.5" stroke="black" stroke-width="2" fill="none" />
<polyline points="515.0,233.5,507.0,234.5,499.5,235.5,492.0,236.5,484.0,237.5,476.0,237.5,468.0,237.5,459.5,237.5,451.0,238.0,442.5,238.5,434.5,238.0,427.0,238.0,419.0,238.5,411.0,239.0,403.0,239.5,394.5,240.5,386.5,240.5,378.0,241.0,370.5,241.5,363.0,242.0,355.0,243.0,347.5,243.5,340.0,244.0,332.5,244.0,324.5,245.0" stroke="black" stroke-width="2" fill="none" />
<polyline points="314.0,241.5,326.0,247.5,338.0,248.0" stroke="black" stroke-width="2" fill="none" />
<polyline points="333.0,235.0,340.5,227.5" stroke="black" stroke-width="2" fill="none" />
<polyline points="339.5,228.0,331.5,229.0,323.5,229.5,316.0,230.0,308.0,230.0,300.0,230.5,292.0,230.5,283.5,230.0,275.5,230.5,267.0,231.0,259.0,231.5,251.0,232.0,243.0,232.5" stroke="black" stroke-width="2" fill="none" />
<polyline points="243.0,231.0,251.0,230.0,259.0,229.0,267.0,228.5,274.5,227.5,282.5,227.5,291.0,226.5,299.5,226.5,308.5,226.0,316.0,225.5,324.5,225.0,332.0,224.5,339.5,223.5" stroke="black" stroke-width="2" fill="none" />
<polyline points="336.0,224.0,336.0,236.0,357.0,233.0" stroke="black" stroke-width="2" fill="none" />
<polyline points="356.5,234.0,349.0,242.0,341.0,249.0,333.0,256.5,325.5,264.5,317.0,271.5,309.0,279.0" stroke="black" stroke-width="2" fill="none" />
<polyline points="308.0,276.0,299.5,283.5" stroke="black" stroke-width="2" fill="none" />
<polyline points="296.0,279.5,308.0,281.5" stroke="black" stroke-width="2" fill="none" />
<polyline points="314.5,280.0,323.0,272.5,331.5,265.0,340.0,257.5,349.0,249.5,357.5,242.0,366.0,234.5" stroke="black" stroke-width="2" fill="none" />
<polyline points="379.0,237.5,371.0,244.5,363.5,251.5,355.5,258.5,348.0,266.0,340.5,273.0,332.5,280.5" stroke="black" stroke-width="2" fill="none" />
<polyline points="314.5,273.0,323.0,272.5,330.5,271.5,339.0,271.0,347.0,270.5,355.5,270.5,363.5,269.5,371.5,268.5,379.5,268.5,388.0,268.5,396.0,268.0,403.5,267.5,411.5,267.5,419.5,267.0,428.0,267.0,436.0,266.5,444.0,266.0,451.5,265.0,459.5,264.5,467.0,264.5,474.5,264.0,483.5,263.5,492.0,262.5,500.5,261.5,509.0,261.0,517.0,260.5" stroke="black" stroke-width="2" fill="none" />
<polyline points="514.0,248.0,506.0,249.0,498.0,250.0,490.0,250.5,482.0,251.0,473.5,251.5,465.5,252.0,457.0,252.5,449.0,252.5,441.5,252.5,433.5,253.0,426.0,253.0,418.0,253.5,410.0,253.5,402.5,254.0,394.5,254.5,386.0,255.0,378.5,255.5,370.5,255.5,363.5,256.0,356.0,257.0,348.0,257.5,340.5,258.5,333.0,259.0,325.5,259.5,317.5,259.5,309.5,260.0" stroke="black" stroke-width="2" fill="none" />
<polyline points="314.0,260.0,306.0,268.0" stroke="black" stroke-width="2" fill="none" />
<polyline points="308.0,266.0,316.0,265.0" stroke="black" stroke-width="2" fill="none" />
<polyline points="315.0,257.0,317.0,269.0,321.0,281.0,333.0,281.5,345.0,282.0,356.5,282.5,369.0,283.0,381.0,283.0,393.5,283.5,405.5,283.0,417.0,283.0,429.0,281.5,441.0,281.5,452.5,281.0,465.0,281.5,477.0,281.5,489.0,281.5,500.5,281.5" stroke="black" stroke-width="2" fill="none" />
<polyline points="511.0,284.5,511.5,296.0,511.5,308.0,511.5,320.0,512.0,332.0" stroke="black" stroke-width="2" fill="none" />
<polyline points="515.0,266.5,507.0,267.0,499.0,267.5,490.5,268.0,482.5,268.5,474.0,269.0,466.5,270.0,458.5,271.0,450.0,271.0,442.5,271.0,434.5,272.0,427.0,273.0,419.5,273.5,412.5,273.0,405.0,273.5,397.0,274.0,389.5,274.5,381.5,275.0,373.5,276.0,365.5,276.0,357.5,276.5,349.5,277.5,341.0,278.0,333.0,279.0,324.5,280.0,316.5,280.5,308.5,281.5,300.5,283.0,292.5,284.0,284.0,284.0" stroke="black" stroke-width="2" fill="none" />
<polyline points="285.0,281.0,293.5,273.5" stroke="black" stroke-width="2" fill="none" />
<polyline points="300.5,271.5,308.5,271.0" stroke="black" stroke-width="2" fill="none" />
<polyline points="300.5,277.0,292.5,284.5" stroke="black" stroke-width="2" fill="none" />
<polyline points="283.5,279.5,291.0,279.0,299.0,278.5,307.0,277.5,315.0,277.0,323.5,276.0,331.5,274.5,339.5,273.5,348.0,272.5,356.0,271.5,364.0,271.0,372.0,270.5,380.5,270.0,388.5,269.5,395.5,269.0,403.0,269.0,410.5,269.0,418.5,269.0,426.0,268.5,434.0,268.0,442.0,268.0,450.5,267.5,458.0,267.5,466.5,267.5,474.5,267.0,482.0,267.0,490.0,266.0,498.0,265.5,506.0,265.0,513.5,264.0" stroke="black" stroke-width="2" fill="none" />
<polyline points="511.0,246.0,499.0,246.0,487.0,246.0,475.0,245.5,463.0,245.5,452.5,242.5,440.0,244.0" stroke="black" stroke-width="2" fill="none" />
<polyline points="411.5,185.0,403.5,185.5" stroke="black" stroke-width="2" fill="none" />
<polyline points="401.0,196.5,389.0,199.0,377.0,205.0,365.0,217.0,353.5,211.0" stroke="black" stroke-width="2" fill="none" />
<polyline points="354.5,201.5,346.5,209.0,338.0,217.0,330.0,224.5,321.5,232.0" stroke="black" stroke-width="2" fill="none" />
<polyline points="314.5,233.5,322.5,226.0,330.5,218.0,338.5,210.0,346.5,203.0,354.5,195.0" stroke="black" stroke-width="2" fill="none" />
<polyline points="353.0,199.0,345.0,200.0" stroke="black" stroke-width="2" fill="none" />
<polyline points="349.5,194.0,361.5,180.5,373.5,179.0,385.5,180.5,397.5,182.5" stroke="black" stroke-width="2" fill="none" />
<polyline points="389.0,184.5,400.0,196.5,373.5,208.0" stroke="black" stroke-width="2" fill="none" />
<polyline points="352.5,188.5,344.5,196.0,337.5,203.5,330.5,211.0,323.0,218.0,316.0,225.0,308.0,232.0" stroke="black" stroke-width="2" fill="none" />
<polyline points="298.5,235.0,280.5,247.0,274.5,258.5" stroke="black" stroke-width="2" fill="none" />
<polyline points="267.0,249.0,274.5,241.5,282.0,233.5,290.0,226.0,297.5,218.0,306.0,210.5,314.0,203.0,322.0,195.5,330.0,188.0,338.5,180.0,347.0,172.5,355.5,164.5,364.0,157.0,372.0,149.0,380.0,141.0,388.0,133.5,396.0,126.0,404.0,118.5,412.5,111.0,420.0,103.5,428.5,96.0,437.0,89.0,445.0,81.5,452.5,73.5,460.5,66.0" stroke="black" stroke-width="2" fill="none" />
<polyline points="452.0,66.5,444.0,74.0,435.5,82.0,427.5,89.0,419.0,96.5,410.5,104.0,403.0,111.5,395.5,119.0,387.5,126.5,379.5,134.0,371.0,141.5,363.5,149.5,356.0,156.5,348.0,164.0,339.5,171.5,331.5,179.0,323.5,187.0,315.0,194.5,307.0,202.5,299.0,210.0,291.0,217.5,283.0,225.5,275.5,233.5,267.5,240.5,260.0,247.0" stroke="black" stroke-width="2" fill="none" />
<polyline points="250.5,246.0,258.0,238.5,266.0,230.0,274.0,222.5,282.5,215.5,290.5,208.5,298.5,201.0,306.5,193.5,314.5,186.5,323.0,179.0,331.5,171.0,339.5,163.5,347.5,156.0,355.5,148.5,363.0,140.5,371.0,132.5,379.0,125.5,386.5,118.5,394.5,111.0,402.5,103.5,410.5,95.5,419.0,88.5,427.5,81.5,435.5,74.5,444.0,67.0,452.0,59.0" stroke="black" stroke-width="2" fill="none" />
<polyline points="436.0,66.5,428.5,74.0,420.5,81.5,412.5,89.5,404.0,97.0,395.5,104.5,387.5,111.5,379.0,119.0,371.0,126.0,363.0,133.0,355.0,140.0,346.5,147.5,339.0,155.5,331.0,163.5,322.5,171.5,314.5,179.0,306.5,186.5,299.0,194.0,291.5,201.5,283.5,210.0,275.5,217.5,267.0,225.0,259.5,232.0,251.0,239.5,243.0,247.0" stroke="black" stroke-width="2" fill="none" />
<polyline points="246.0,248.5,253.5,248.0,261.0,247.5,268.5,247.5,276.5,247.5,284.0,247.5" stroke="black" stroke-width="2" fill="none" />
<polyline points="299.0,224.5,307.0,217.5,315.5,210.0,323.0,202.5,331.0,194.5,339.0,187.5,347.0,180.0,354.5,172.5,362.5,164.5,370.5,157.0,379.0,149.5,388.0,142.5,396.0,135.5,403.5,127.5,412.0,119.5,419.5,112.0,427.5,105.0,435.5,98.0,443.0,90.5,451.0,82.5,458.5,74.0,466.0,66.0,474.5,58.0" stroke="black" stroke-width="2" fill="none" />
<polyline points="483.5,57.0,475.5,65.0,467.5,72.5,459.5,80.5,451.5,88.5,443.0,96.0,435.0,103.5,427.5,111.0,419.5,118.5,411.0,126.0,403.5,134.0,395.0,141.5,387.0,148.5,379.0,155.5,370.5,162.5,362.5,169.5" stroke="black" stroke-width="2" fill="none" />
<polyline points="371.0,171.5,379.5,164.0,387.5,157.0,396.0,149.5,404.5,142.5,412.5,135.5,420.5,128.0,428.0,120.5,436.5,113.5,444.5,106.0,452.5,98.5,460.0,91.0,467.5,83.5,474.5,76.0,482.0,68.0,490.0,60.5,498.0,52.5,506.0,45.0" stroke="black" stroke-width="2" fill="none" />
<polyline points="515.0,44.5,507.0,52.0,499.5,59.5,491.5,66.5,483.5,73.5,476.0,80.5,467.5,89.0,459.5,97.0,451.0,105.0,443.0,112.5,434.5,119.5,427.0,127.0,419.0,134.5,411.5,141.5,403.5,149.0,395.5,155.5,387.5,162.5,380.0,170.0" stroke="black" stroke-width="2" fill="none" />
<polyline points="358.0,181.0,350.5,192.5,348.5,204.0,351.5,216.0,366.0,225.0,377.0,229.0,389.0,229.0,410.5,229.0" stroke="black" stroke-width="2" fill="none" />
<polyline points="333.0,200.5,324.5,201.0,316.0,201.5,307.5,202.0" stroke="black" stroke-width="2" fill="none" />
<polyline points="292.0,201.0,284.5,201.5,276.0,202.0" stroke="black" stroke-width="2" fill="none" />
<polyline points="268.5,209.0,276.5,208.0,284.5,207.5,293.0,207.5,300.5,207.0,308.0,207.0,316.0,206.5,323.5,206.0,330.5,206.0,338.0,205.5,346.0,206.0,354.0,205.0" stroke="black" stroke-width="2" fill="none" />
<polyline points="355.0,210.5,347.0,211.5,339.0,212.0,331.0,212.5,323.0,213.0,315.0,214.0,307.0,214.5,299.0,215.0,291.5,215.0,284.0,215.0,276.5,215.0,269.0,215.0,261.5,215.5,253.5,216.5" stroke="black" stroke-width="2" fill="none" />
<polyline points="254.0,209.5,262.0,208.5" stroke="black" stroke-width="2" fill="none" />
<polyline points="243.5,210.0,251.5,202.5,259.5,195.5,267.0,188.0,276.0,180.5,283.5,173.0,291.5,165.5,299.5,158.0,306.5,150.5,315.0,142.5,323.0,135.0,331.0,128.0,339.5,120.0,347.0,112.5,355.5,105.0,364.5,97.5,372.5,90.0,380.5,82.5,388.5,75.5" stroke="black" stroke-width="2" fill="none" />
<polyline points="372.0,83.0,364.0,91.0,356.5,99.0,348.5,107.0,340.0,115.0,331.5,122.5,323.5,130.0,315.0,137.0,306.5,144.5,298.5,152.5,290.0,160.0,282.0,167.5,274.0,175.5,266.0,183.0,258.5,191.0,251.5,198.5,244.0,206.0" stroke="black" stroke-width="2" fill="none" />
<polyline points="242.0,204.5,250.0,204.5,258.5,204.0,266.5,203.5,274.0,203.5,282.0,203.0,290.0,202.5,298.5,201.5,307.0,200.5,315.0,199.5,322.5,199.0,330.5,199.0,338.5,199.5,347.0,199.0,354.5,198.5" stroke="black" stroke-width="2" fill="none" />
<polyline points="355.5,207.0,347.5,207.5,339.5,207.5,331.5,208.0,323.5,209.0,315.5,209.5,307.0,209.5,299.0,210.0,291.0,210.0,283.0,210.5,274.5,211.5,266.5,212.0,258.5,212.5,250.5,213.0,242.5,213.0" stroke="black" stroke-width="2" fill="none" />
<polyline points="242.5,198.0,250.5,197.5,258.5,197.0,266.0,196.0,273.5,195.0,281.5,194.5,289.5,193.5,297.5,192.5,305.5,192.0,313.5,191.5,321.0,191.0,329.0,190.0,337.0,189.5,345.5,189.0,354.5,189.0" stroke="black" stroke-width="2" fill="none" />
<polyline points="354.0,173.5,346.0,173.5,338.5,174.0,330.5,174.5,322.5,175.0,314.5,176.0,306.5,176.5,298.5,177.0,290.0,177.5,282.5,178.5,275.0,179.5,267.0,180.0,259.0,180.5,251.0,181.0,243.0,182.0" stroke="black" stroke-width="2" fill="none" />
<polyline points="243.0,187.5,251.5,180.0,259.5,173.0,268.0,165.0,276.0,157.5,284.5,150.0,292.5,142.5,300.5,135.0,308.5,128.0,316.5,120.5,324.0,113.0,331.5,106.0,339.5,98.5,347.0,91.5,354.5,84.0" stroke="black" stroke-width="2" fill="none" />
<polyline points="356.0,89.5,364.5,82.0" stroke="black" stroke-width="2" fill="none" />
<polyline points="348.0,98.5,339.5,105.5,331.5,113.0,323.5,120.5,315.5,128.5,307.5,136.5,299.5,143.5,291.5,151.0,284.0,158.5,276.0,166.0,268.0,173.5,260.5,181.0,252.5,188.5,244.5,196.5" stroke="black" stroke-width="2" fill="none" />
<polyline points="236.0,190.5,244.0,190.0,252.0,189.5,260.0,189.0,268.0,188.0,276.0,188.0,284.5,187.5,292.5,187.0,300.5,186.5,308.0,185.0,316.0,185.0,324.0,184.0,331.5,183.5,339.0,182.5,347.0,181.5,355.0,181.0" stroke="black" stroke-width="2" fill="none" />
<polyline points="328.0,236.5,316.5,236.0,305.0,234.5,292.5,237.0,280.5,245.5,268.0,258.5,255.5,258.5,243.5,258.5" stroke="black" stroke-width="2" fill="none" />
<polyline points="244.5,257.5,252.5,257.5,261.0,257.0,269.0,257.0,277.0,257.0" stroke="black" stroke-width="2" fill="none" />
<polyline points="277.5,251.5,269.0,251.5,260.5,252.0,252.5,252.5,244.5,253.0" stroke="black" stroke-width="2" fill="none" />
<polyline points="246.5,243.5,254.0,243.5,261.5,243.0,268.5,243.0,276.0,243.0,284.0,242.5" stroke="black" stroke-width="2" fill="none" />
<polyline points="291.5,239.0,284.0,239.0,277.0,239.0,269.5,239.5,262.0,239.5,254.0,240.0,246.5,241.0" stroke="black" stroke-width="2" fill="none" />
<polyline points="243.0,239.5,251.5,232.5,260.0,224.5,268.0,217.0,276.0,209.5,283.5,202.0,291.0,194.5,298.5,187.0,306.5,179.0,315.0,171.5,323.0,164.0,331.0,156.0,338.5,148.0,346.5,140.5,354.5,133.5,363.5,126.0,372.5,118.0,380.5,110.5,389.0,102.5,397.0,95.5,404.5,87.5,412.5,79.5,420.5,72.0,428.5,64.5" stroke="black" stroke-width="2" fill="none" />
<polyline points="420.0,66.0,411.5,73.5,403.5,81.0,395.5,88.5,387.5,97.0,379.5,104.5,371.5,112.0,363.5,119.0,355.5,126.0,347.5,132.5,340.0,139.5,331.5,147.5,323.5,156.0,315.0,163.5,307.0,171.5,298.5,179.0,291.0,187.0,283.5,194.5,276.0,202.5,268.0,210.0,260.0,217.5,252.0,225.0,244.5,232.5" stroke="black" stroke-width="2" fill="none" />
<polyline points="244.0,237.0,252.0,236.5,260.0,236.5,268.0,236.0,275.5,235.5,283.5,235.5,291.0,235.0" stroke="black" stroke-width="2" fill="none" />
<polyline points="313.0,241.5,311.0,253.5,304.5,265.5,288.0,278.0,292.5,276.5,304.5,264.5" stroke="black" stroke-width="2" fill="none" />
<polyline points="275.5,295.0,283.5,294.5,292.0,293.5,300.0,293.0,308.0,291.5,315.5,290.5,323.0,290.5,331.0,291.0,339.0,290.5,347.0,289.5,354.5,289.0,362.5,288.5,370.5,288.5,378.0,288.0,385.5,287.5,393.5,287.5" stroke="black" stroke-width="2" fill="none" />
<polyline points="242.5,292.5,234.5,293.0,226.0,293.0,218.0,293.5" stroke="black" stroke-width="2" fill="none" />
<polyline points="217.5,285.0,225.5,285.0,234.5,285.0,243.0,284.5" stroke="black" stroke-width="2" fill="none" />
<polyline points="242.5,276.0,234.0,276.5,226.0,277.5,217.5,278.0" stroke="black" stroke-width="2" fill="none" />
<polyline points="219.5,269.0,227.5,268.5,235.5,268.0" stroke="black" stroke-width="2" fill="none" />
<polyline points="235.5,262.0,227.0,262.5,219.0,263.0" stroke="black" stroke-width="2" fill="none" />
<polyline points="219.5,253.5,227.5,253.0,235.0,253.0" stroke="black" stroke-width="2" fill="none" />
<polyline points="234.5,246.0,226.5,247.0,218.5,247.5" stroke="black" stroke-width="2" fill="none" />
<polyline points="219.5,238.0,228.0,237.5,236.0,236.5" stroke="black" stroke-width="2" fill="none" />
<polyline points="234.5,229.0,227.0,229.0,219.0,229.5" stroke="black" stroke-width="2" fill="none" />
<polyline points="220.5,221.0,228.0,220.0,236.0,219.5" stroke="black" stroke-width="2" fill="none" />
<polyline points="237.0,212.0,228.5,213.0,220.5,213.5" stroke="black" stroke-width="2" fill="none" />
<polyline points="220.0,206.0,228.0,205.0,236.0,204.0" stroke="black" stroke-width="2" fill="none" />
<polyline points="234.0,197.0,226.0,197.5,218.0,198.0" stroke="black" stroke-width="2" fill="none" />
<polyline points="222.0,190.0,234.0,190.5" stroke="black" stroke-width="2" fill="none" />
<polyline points="245.0,181.0,253.0,174.5,261.0,167.0,269.0,159.5,277.0,152.0,284.5,144.0,292.0,136.5,300.0,128.5,308.0,122.0,315.5,114.5,323.5,107.0,332.0,99.5,340.0,91.5" stroke="black" stroke-width="2" fill="none" />
<polyline points="332.0,90.5,324.0,98.0,316.0,105.0,308.0,113.0,300.5,121.0,292.5,129.0,284.5,136.5,276.0,143.5,268.5,151.0,260.5,158.5,252.0,165.5,244.5,173.0" stroke="black" stroke-width="2" fill="none" />
<polyline points="245.5,174.0,254.0,173.5,262.0,173.0,269.5,173.0,277.0,172.5,284.5,171.5,292.0,170.5,299.0,170.0,306.5,169.0,314.0,169.0,321.5,168.5,330.0,168.0,338.0,167.5,346.0,167.0,354.5,166.0,362.5,165.0,370.5,165.0,378.5,164.5,386.0,164.0,394.5,163.0,402.0,162.5,410.0,162.0,418.5,161.5,426.5,161.5,434.0,161.0,442.0,160.0,449.5,160.0,457.5,159.0,465.5,158.5,474.0,157.5,482.0,157.0,490.0,156.5,498.5,156.0,507.0,155.5,515.5,155.0" stroke="black" stroke-width="2" fill="none" />
<polyline points="419.5,52.5,412.0,59.5" stroke="black" stroke-width="2" fill="none" />
<polyline points="333.5,83.0,325.5,90.5,317.5,98.5,309.5,106.0,301.5,113.0,293.5,121.0,285.5,128.5,277.0,136.5,268.0,144.0,259.5,151.0,251.5,158.5,243.0,166.0" stroke="black" stroke-width="2" fill="none" />
<polyline points="245.0,166.5,253.0,166.0,261.0,165.5,269.0,165.0,277.5,164.0,285.0,163.5,293.0,162.5,300.0,162.0,307.5,161.0,315.5,160.5,323.5,160.0,331.0,159.5,338.5,159.0,346.5,158.0,354.0,157.5,362.0,156.5,369.5,156.0,377.5,156.0,385.5,155.5,393.5,155.0,402.0,154.5,410.0,154.0,418.0,153.5,426.0,152.5,434.0,152.0,442.0,151.0,450.0,151.0,457.5,150.5,465.5,150.5,473.0,150.5,481.5,150.0,489.5,149.5,498.0,149.0,506.5,148.5,515.0,148.5" stroke="black" stroke-width="2" fill="none" />
<polyline points="314.5,92.0,306.5,99.0,299.5,106.5,292.0,113.5,284.0,121.0,275.5,128.0,267.5,135.5,259.5,142.5,251.5,150.0,243.0,158.5" stroke="black" stroke-width="2" fill="none" />
<polyline points="244.5,158.5,252.5,158.0,260.5,157.5,268.5,156.5,276.5,155.5,284.0,154.5,292.0,154.5,300.5,154.0,308.5,154.0,317.0,154.0,325.0,153.5,333.0,153.0,340.5,152.0,348.5,151.0,356.5,150.0,364.0,149.5,371.0,148.5,378.0,147.5,385.5,147.0,393.0,146.0,400.5,145.5,409.0,145.0,418.0,145.0,426.0,145.0,434.5,145.0,442.5,145.0,450.0,145.0,457.5,145.0,465.5,144.5,474.0,143.5,482.0,143.0,489.5,142.5,498.0,142.0,506.0,142.0,514.5,141.0" stroke="black" stroke-width="2" fill="none" />
<polyline points="294.0,107.0,286.0,115.0,277.5,123.0,269.0,131.0,261.0,138.5,253.0,146.0,244.5,153.5" stroke="black" stroke-width="2" fill="none" />
<polyline points="244.5,150.0,252.0,149.0,259.5,148.0,267.0,147.5,275.0,147.5,283.0,147.0,290.5,146.5,299.0,145.5,307.5,145.0,316.0,144.5,324.5,144.0,332.5,143.0,340.0,143.0,347.5,142.5,355.0,142.0,363.0,141.0,370.5,140.5,378.0,140.0,386.5,139.5,394.5,139.5,403.0,138.5,411.0,138.0,419.0,137.5,427.0,137.0,434.5,137.0,442.5,137.5,451.0,137.0,459.5,136.5,468.0,136.5,476.0,136.5,484.0,136.5,492.0,135.5,499.5,134.5,507.0,133.5,515.0,132.5" stroke="black" stroke-width="2" fill="none" />
<polyline points="283.0,108.5,275.0,116.0,267.5,123.0,259.5,130.0,251.5,137.5,243.5,145.0" stroke="black" stroke-width="2" fill="none" />
<polyline points="243.5,143.0,251.5,142.5,259.5,141.5,267.5,141.0,275.0,140.0,283.0,139.5,290.5,138.5,298.0,138.0,306.0,137.5,313.5,137.5,322.0,137.0,329.5,136.5,338.0,136.0,346.5,135.0,354.5,133.5,362.5,132.5,370.5,132.0,379.0,131.0,387.0,130.5,395.0,130.5,404.0,130.5,411.0,130.0,419.0,129.5,427.5,129.0,436.5,129.0,445.0,128.5,453.5,128.0,461.0,128.0,469.0,128.0,477.0,128.0,484.5,128.0,493.0,127.0,501.0,126.5,509.0,126.0,517.0,125.5" stroke="black" stroke-width="2" fill="none" />
<polyline points="281.0,99.5,273.5,106.5,266.0,114.5,259.0,122.5,252.0,130.5,245.0,137.5" stroke="black" stroke-width="2" fill="none" />
<polyline points="242.5,133.0,250.5,133.0,258.5,133.0,267.0,132.5,275.5,131.5,284.0,131.0,292.0,130.5,299.0,130.0,306.5,129.5,314.5,129.0,322.5,128.0,331.0,127.5,338.5,126.5,347.0,126.0,355.0,125.5,363.5,125.5,371.5,124.5,379.5,123.5,387.5,123.5,396.0,123.5,404.0,123.0,411.5,122.5,419.5,122.5,427.5,122.0,436.0,122.0,444.0,121.5,452.0,121.0,459.5,120.0,467.5,119.5,475.0,119.5,482.5,119.0,491.5,118.5,500.0,117.5,508.5,116.5,517.0,116.0" stroke="black" stroke-width="2" fill="none" />
<polyline points="276.5,98.5,268.0,106.0,260.0,113.5,252.5,120.5,245.0,128.0" stroke="black" stroke-width="2" fill="none" />
<polyline points="242.5,125.5,250.5,125.5,259.0,125.0,267.5,125.0,276.0,124.5,284.5,124.0,292.0,123.5,300.0,123.0,308.0,122.5,316.0,121.5,324.0,121.0,332.0,120.5,339.5,120.5,347.0,119.5,354.5,118.5,362.5,118.0,370.5,118.0,379.0,118.0,387.0,117.5,394.5,117.5,402.5,117.0,410.5,116.0,419.0,115.0,427.0,114.0,434.5,113.5,442.5,113.0,450.5,112.5,458.5,112.0,466.5,111.5,475.0,111.0,483.0,111.0,491.0,110.0,498.5,109.5,506.5,109.5,515.5,109.5" stroke="black" stroke-width="2" fill="none" />
<polyline points="260.0,106.5,251.5,114.5,244.0,121.5" stroke="black" stroke-width="2" fill="none" />
<polyline points="237.0,122.0,245.5,114.5" stroke="black" stroke-width="2" fill="none" />
<polyline points="236.0,119.0,244.0,118.5,252.0,118.0,260.0,117.0,269.0,116.0,277.0,115.0,285.0,114.5,293.0,113.5,301.5,112.5,309.5,111.5,317.5,111.0,325.5,110.5,333.5,110.5,341.0,110.0,348.5,109.5,356.0,108.5,364.0,108.0,371.5,107.0,378.5,106.5,386.5,106.5,394.0,106.0,402.5,105.5,410.5,105.0,418.0,104.5,426.0,104.5,434.0,104.0,441.5,104.0,449.5,103.5,457.0,103.5,465.0,103.5,473.5,103.0,481.5,102.5,490.0,102.0,498.0,101.5,506.0,101.0,514.0,100.0" stroke="black" stroke-width="2" fill="none" />
<polyline points="225.5,108.5,217.5,115.5" stroke="black" stroke-width="2" fill="none" />
<polyline points="211.5,115.0,219.0,107.0" stroke="black" stroke-width="2" fill="none" />
<polyline points="203.0,121.5,195.0,122.0,187.5,123.0,179.5,123.5,171.5,124.5,163.5,125.0,155.5,125.5,147.5,126.5,139.5,127.0,131.0,127.0,123.5,127.5,116.0,127.5,108.0,128.0,100.0,128.0,91.0,127.5,83.0,127.5,75.0,128.5,67.0,129.0,59.5,129.0,52.0,130.0,44.5,130.5,36.5,131.5,28.5,132.0,20.5,132.5,13.0,133.0,5.0,133.5" stroke="black" stroke-width="2" fill="none" />
<polyline points="2.0,137.0,9.0,129.0,16.5,121.5" stroke="black" stroke-width="2" fill="none" />
<polyline points="19.0,114.5,11.0,122.0,3.0,129.5" stroke="black" stroke-width="2" fill="none" />
<polyline points="3.5,127.0,12.0,126.0,20.0,125.0,28.0,124.5,35.5,123.5,43.5,122.5,51.5,121.5,59.0,121.5,67.0,120.5,74.5,120.0,82.5,119.5,90.5,119.0,98.5,119.0,107.0,119.0,115.5,119.0,123.5,118.5,132.0,118.0,140.0,117.0,147.5,116.5,154.5,115.5,162.5,115.0,170.5,115.0,178.5,115.0,187.0,114.5,195.5,113.5,204.0,113.0" stroke="black" stroke-width="2" fill="none" />
<polyline points="204.5,106.0,196.0,106.5,187.5,107.0,179.0,107.0,170.5,107.5,162.5,107.5,154.5,108.0,147.0,108.5,139.5,109.0,131.0,109.0,123.0,109.5,114.5,110.0,106.0,110.5,97.5,111.0,89.5,112.0,81.5,112.5,73.5,113.5,65.5,114.0,57.5,114.5,49.5,114.5,41.5,115.0,33.5,116.0,25.5,117.0,17.5,118.0,10.0,119.0,2.0,120.0" stroke="black" stroke-width="2" fill="none" />
<polyline points="3.0,121.5,11.0,114.0,20.0,106.5" stroke="black" stroke-width="2" fill="none" />
<polyline points="10.5,109.0,2.5,116.0" stroke="black" stroke-width="2" fill="none" />
<polyline points="1.0,112.0,9.5,111.0,17.5,110.5,26.0,109.5,34.0,109.0,41.5,108.5,50.0,108.0,59.0,107.5,67.0,106.5,75.5,105.5,83.5,104.5,91.0,104.0,99.0,103.0,107.0,102.5,115.0,102.0,123.0,102.0,131.0,101.5,139.5,101.0,147.5,100.5,156.0,100.5,164.0,100.5,172.0,100.0,180.0,99.5,188.0,99.0,196.0,98.0,204.0,98.0,212.5,97.5,220.5,97.0,228.5,96.5,236.0,95.0,244.0,95.0,252.0,94.0,259.5,93.5,267.0,92.5,275.0,91.5,283.0,91.0,290.5,90.0,299.0,90.0,307.0,90.0,315.5,89.0,323.5,88.5,331.5,88.0,339.0,88.0,347.0,88.0,354.5,87.5,362.0,86.5,370.0,86.5,377.5,86.5,385.0,86.0,393.5,85.5,401.0,85.0,409.5,84.5,417.5,84.0,425.5,83.5,434.0,83.0,442.5,82.5,450.5,81.5,458.5,81.0,467.0,80.0,475.5,79.5,484.0,78.5,491.5,78.5,500.0,77.5,508.0,77.0,516.0,77.0" stroke="black" stroke-width="2" fill="none" />
<polyline points="227.0,188.0,218.5,189.0" stroke="black" stroke-width="2" fill="none" />
<polyline points="220.5,180.5,228.5,180.0" stroke="black" stroke-width="2" fill="none" />
<polyline points="227.0,171.0,219.5,171.0" stroke="black" stroke-width="2" fill="none" />
<polyline points="186.0,130.0,178.0,137.5,170.5,145.0,163.0,152.5,155.5,160.0,148.0,168.0,140.5,176.0,132.5,183.5,125.0,191.5,116.5,199.5,108.0,207.5,100.5,214.5,93.0,221.5,85.0,229.0,77.0,237.0,68.5,244.0,61.0,251.5" stroke="black" stroke-width="2" fill="none" />
<polyline points="51.5,250.5,60.0,243.5,68.5,236.5,77.0,229.0,85.0,221.5,93.0,214.0,101.5,206.0,110.0,198.0,118.0,190.0,125.5,183.0,134.0,175.5,141.5,168.0,149.0,161.0,156.5,153.5,165.0,145.5,173.0,138.0,180.5,130.5,188.0,123.0,196.0,115.5" stroke="black" stroke-width="2" fill="none" />
<polyline points="198.0,117.5,210.0,117.5,222.0,117.5,233.5,117.5,238.0,126.5,238.0,138.5,238.0,150.0,240.5,162.0,242.0,174.0,242.0,186.0,242.0,198.0,242.0,210.5,242.5,223.0,242.5,235.0,242.5,247.5,242.0,259.5,242.0,271.5,242.0,284.0,240.5,296.0,228.5,309.0,240.5,309.0,252.5,309.0,264.5,309.0,276.5,307.0,288.5,307.0,300.5,307.0,312.0,305.0,324.0,305.0,335.5,305.0,347.5,305.5,359.5,304.0,371.5,304.0,384.0,304.0" stroke="black" stroke-width="2" fill="none" />
<polyline points="361.5,290.5,353.5,291.0,345.5,291.5,337.5,292.5,329.5,293.5,321.5,294.0,314.0,295.0,306.5,296.0,298.5,296.5,290.5,297.0,282.5,297.5,274.0,297.5,266.0,298.0,258.0,299.0,250.0,300.0,242.0,300.5,234.0,301.0,226.5,301.5,218.5,302.0,210.5,302.5" stroke="black" stroke-width="2" fill="none" />
<polyline points="157.0,226.0,149.5,226.5" stroke="black" stroke-width="2" fill="none" />
<polyline points="142.0,225.5,134.0,226.0,126.0,226.0" stroke="black" stroke-width="2" fill="none" />
<polyline points="92.0,217.0,84.0,218.0" stroke="black" stroke-width="2" fill="none" />
<polyline points="75.5,215.5,67.0,216.0,59.0,216.5" stroke="black" stroke-width="2" fill="none" />
<polyline points="59.0,208.5,51.0,208.5" stroke="black" stroke-width="2" fill="none" />
<polyline points="41.5,208.0,33.5,209.0,25.5,209.5" stroke="black" stroke-width="2" fill="none" />
<polyline points="3.5,211.5,12.0,211.0,20.0,210.5,28.5,210.5,36.0,210.5,44.0,210.5,52.0,209.5,60.5,209.0,68.0,208.5,76.0,207.5,84.0,206.5,92.0,206.5,100.0,206.5,107.5,207.0,115.5,207.0,123.0,206.5,131.5,206.5,139.5,206.0,147.0,206.0,155.0,205.5,163.0,205.0,171.0,204.5,179.0,203.0,187.5,202.5,196.0,202.0" stroke="black" stroke-width="2" fill="none" />
<polyline points="170.0,124.0,161.5,131.5,154.0,139.0,146.0,147.0,138.5,154.0,130.5,161.5,122.5,169.0,114.0,176.0,105.5,183.5,97.0,191.0,89.0,198.5,81.5,205.5,74.0,213.5,67.0,221.5,60.0,229.5,53.0,236.5,44.5,244.0,36.5,251.5" stroke="black" stroke-width="2" fill="none" />
<polyline points="43.5,250.5,51.5,243.0,60.0,235.5,67.5,228.0,75.5,220.5,83.5,213.0,91.5,206.0,99.0,199.0,107.0,191.5,115.0,184.0,123.0,176.0,131.0,168.5,139.5,161.0,147.5,153.0,155.0,145.5,162.5,137.5,170.0,130.0,177.5,122.5,185.5,115.0" stroke="black" stroke-width="2" fill="none" />
<polyline points="172.0,117.5,164.0,124.5,155.5,131.5,147.0,138.5,139.0,145.5,130.5,152.5,122.5,160.0,114.5,168.0,107.0,175.5,99.5,184.0,91.5,191.5,83.5,199.0,75.5,206.0,67.5,213.0,59.0,220.0,51.5,227.5,44.0,234.5,36.5,242.0,29.0,249.5" stroke="black" stroke-width="2" fill="none" />
<polyline points="20.5,248.0,28.5,240.5,36.5,233.5,45.0,226.5,53.0,219.0,60.5,211.5,68.0,204.5,76.0,197.0,84.5,189.5,92.5,182.0,100.5,175.0,109.0,168.0,117.0,161.0,125.5,153.5,133.0,146.5,141.0,139.0,149.0,131.5,157.0,124.0,164.5,117.0" stroke="black" stroke-width="2" fill="none" />
<polyline points="154.5,116.0,147.5,123.5,140.0,130.5,132.5,137.5,125.0,145.0,117.0,152.5,109.0,159.5,100.5,166.5,92.5,174.5,85.0,182.5,77.0,190.5,69.5,198.0,61.5,205.5,53.5,213.0,45.5,220.0,37.5,227.0,30.0,234.5,21.5,242.0,13.5,249.5" stroke="black" stroke-width="2" fill="none" />
<polyline points="5.0,247.5,13.0,247.0,21.0,246.5,28.5,246.0,36.5,246.0,44.0,246.0,51.5,245.5,59.5,245.0,67.5,245.0,75.5,245.0,83.5,245.0,92.0,244.5,100.0,243.5,107.5,243.0,116.0,243.0,124.0,242.5,132.5,242.0,141.0,241.5,149.5,241.0,158.0,240.0,166.0,239.5,174.0,238.5,181.0,238.0,188.5,237.5,196.5,237.0" stroke="black" stroke-width="2" fill="none" />
<polyline points="98.5,299.0,90.0,307.0" stroke="black" stroke-width="2" fill="none" />
<polyline points="90.0,299.5,81.5,307.5" stroke="black" stroke-width="2" fill="none" />
<polyline points="76.5,306.5,85.0,298.5" stroke="black" stroke-width="2" fill="none" />
<polyline points="76.0,298.0,68.0,305.5,60.0,313.0,51.5,321.0" stroke="black" stroke-width="2" fill="none" />
<polyline points="43.0,323.5,51.5,315.5,60.0,308.0,68.0,300.5" stroke="black" stroke-width="2" fill="none" />
<polyline points="59.0,300.0,50.5,307.0,42.5,314.5,34.0,322.0" stroke="black" stroke-width="2" fill="none" />
<polyline points="26.5,320.5,34.0,313.0,42.5,305.5,50.0,298.0" stroke="black" stroke-width="2" fill="none" />
<polyline points="43.5,300.5,36.0,307.5,27.5,315.0,19.0,322.5" stroke="black" stroke-width="2" fill="none" />
<polyline points="11.5,323.0,19.0,315.5,26.5,308.5,34.5,301.0" stroke="black" stroke-width="2" fill="none" />
<polyline points="26.5,304.5,34.5,304.0,42.5,304.0,51.0,304.0" stroke="black" stroke-width="2" fill="none" />
<polyline points="57.0,307.0,65.5,306.0,74.0,305.0,82.5,304.5" stroke="black" stroke-width="2" fill="none" />
<polyline points="50.5,318.5,43.0,318.5,35.0,320.0,27.5,321.5,20.0,322.5,12.5,323.0,4.5,323.5" stroke="black" stroke-width="2" fill="none" />
<polyline points="3.0,324.0,3.0,336.5,12.0,341.0,24.5,341.0,36.5,341.0,48.5,341.5,61.0,342.0,73.0,342.0,85.0,342.0,97.0,342.5,109.0,342.5,121.0,342.5,133.0,342.5,144.5,342.0,156.5,341.5,168.0,341.0,180.0,341.0,192.0,341.5,204.0,341.5,216.5,341.5,228.5,341.5,240.5,342.0,252.5,342.0,265.0,342.0,277.0,342.0,289.0,342.0,301.0,342.0,313.0,342.0,325.0,341.5,337.0,341.5,348.5,341.5,361.0,341.5,373.5,341.5,385.5,341.5,397.5,341.5,409.5,341.0,421.0,341.0,433.0,340.5,444.5,340.5,456.5,340.5,468.5,340.5,480.5,340.5,493.0,340.5,505.0,341.0" stroke="black" stroke-width="2" fill="none" />
<polyline points="147.0,116.0,139.0,123.0,130.5,130.5,122.5,138.5,115.5,146.5,108.0,153.5,100.5,161.0,92.5,167.5,85.0,174.5,77.5,182.0,69.5,189.5,61.5,197.0,54.0,204.0,45.5,211.5,37.0,219.5,29.0,227.5,21.0,235.0,13.0,242.5,4.5,250.0" stroke="black" stroke-width="2" fill="none" />
<polyline points="4.5,251.5,12.0,251.0,20.0,250.5,28.5,250.5,36.5,250.5,44.5,251.0,52.5,251.0,60.0,251.0,67.5,251.0,74.5,251.0,82.5,250.5,90.5,250.0,98.5,249.0,107.5,247.5,116.0,246.5,124.0,245.5,133.0,244.0,141.5,243.5,150.0,243.5,157.5,243.0,165.5,242.5,173.5,241.5,181.0,241.0,188.5,241.0,196.0,241.0" stroke="black" stroke-width="2" fill="none" />
<polyline points="137.0,116.0,129.5,123.5,121.5,131.0,113.5,138.5,106.0,146.0,98.5,153.5,90.5,160.5,82.5,168.0,75.0,175.0,67.5,182.5,60.0,189.5,51.5,197.5,44.0,204.5,36.0,212.0,28.0,220.0,20.0,227.5,12.0,235.0,4.0,242.5" stroke="black" stroke-width="2" fill="none" />
<polyline points="3.5,241.0,12.0,240.5,20.5,239.5,28.5,238.5,36.0,238.0,44.0,237.5,52.0,237.0,60.5,236.5,68.5,236.0,76.5,236.0,84.5,236.0,92.0,235.0,100.0,234.5,108.5,234.0,116.5,234.0,125.0,233.5,133.0,232.5,140.5,231.5,148.5,231.5,156.5,231.5,164.5,231.0,172.5,230.5,180.5,230.0,189.0,229.5,197.5,229.5" stroke="black" stroke-width="2" fill="none" />
<polyline points="129.5,116.0,121.5,123.5,114.0,131.0,106.0,138.5,98.0,146.0,90.0,153.0,82.0,160.0,74.0,167.5,66.0,174.5,58.0,182.0,50.0,189.5,41.5,197.0,33.0,205.0,25.0,212.5,17.5,219.5,9.5,226.5,1.0,234.0" stroke="black" stroke-width="2" fill="none" />
<polyline points="4.0,233.5,12.5,233.0,20.0,233.0,28.0,232.5,35.5,231.5,43.0,231.0,51.0,230.5,59.0,230.0,67.5,229.5,76.0,229.5,84.0,229.0,92.0,228.0,100.0,227.0,108.0,226.0,115.5,225.0,123.5,224.5,132.0,224.0,140.5,223.5,149.0,223.0,158.0,222.5,166.5,221.5,174.0,221.5,181.5,221.0,188.5,221.0" stroke="black" stroke-width="2" fill="none" />
<polyline points="121.0,116.0,113.0,124.0,105.5,131.0,98.0,138.5,90.5,146.0,83.0,153.5,75.5,160.5,67.5,168.0,59.5,175.5,51.5,182.5,44.0,190.0,35.5,197.5,27.5,205.0,19.0,212.5,10.5,219.5,2.0,227.0" stroke="black" stroke-width="2" fill="none" />
<polyline points="4.5,226.5,12.5,226.0,21.0,225.5,29.5,225.0,37.0,224.0,45.0,223.0,52.0,222.5,60.0,221.5,67.5,220.5,75.0,220.0,82.5,220.0,91.0,219.0,99.0,218.5,107.5,218.5,115.5,218.0" stroke="black" stroke-width="2" fill="none" />
<polyline points="98.0,124.0,90.5,131.5,82.0,139.5,74.5,147.5,66.5,155.0,58.0,163.0,50.0,170.0,42.0,177.5,34.0,185.0,25.5,192.0,17.5,199.5,9.5,206.5,2.0,214.0" stroke="black" stroke-width="2" fill="none" />
<polyline points="4.5,217.0,13.0,216.5,21.0,216.0,28.5,215.5,36.5,215.5,44.5,215.0,52.5,214.5" stroke="black" stroke-width="2" fill="none" />
<polyline points="5.5,221.5,13.5,221.0,21.5,219.5,29.5,219.0,37.0,218.0,44.5,217.5,52.5,216.5,60.5,216.5,68.5,216.5,76.5,216.0,84.5,215.5,92.5,215.0,100.5,214.5,108.0,214.0,115.5,213.5,123.0,213.0,130.5,212.5,138.0,212.5,146.0,212.0,154.5,211.0,163.0,210.5,171.0,210.0,179.0,209.5,187.0,209.0,195.5,208.5" stroke="black" stroke-width="2" fill="none" />
<polyline points="113.5,114.0,106.0,121.5,98.5,129.0,90.5,136.5,83.0,144.0,75.5,152.0,68.0,159.5,60.5,167.0,53.0,174.5,45.5,182.0,37.5,189.5,29.0,197.0,21.0,204.5,12.0,212.0,4.0,220.0" stroke="black" stroke-width="2" fill="none" />
<polyline points="4.5,229.5,12.5,229.5,20.5,229.5,28.0,229.5,35.5,229.0,43.0,228.5,50.0,227.5,58.0,227.0,66.0,226.0,74.0,225.5,82.0,225.0,90.0,224.5,98.0,224.0,106.5,223.5,114.0,223.0,122.5,222.0,131.5,221.5,140.0,221.0,149.0,220.5,158.0,219.5,166.5,219.0,174.0,218.0,182.0,217.5,189.5,217.5,197.0,217.0" stroke="black" stroke-width="2" fill="none" />
<polyline points="91.5,123.0,83.0,131.0,75.0,138.5,66.5,146.0,58.0,153.5,50.0,161.0,42.5,169.0,35.0,177.0,27.0,185.0,19.0,192.5,10.5,200.0,3.0,207.5" stroke="black" stroke-width="2" fill="none" />
<polyline points="3.5,203.5,11.5,203.5,19.5,203.5,27.5,203.5,35.5,203.5,44.0,203.0,52.0,202.0,59.5,201.5,67.5,200.5,76.0,199.5,84.0,199.0,92.0,198.5,99.5,199.0,107.0,199.0,114.5,198.5,122.0,198.5,130.0,198.0,138.5,198.0,147.0,197.5,155.0,196.5,163.0,195.5,171.0,195.5,179.5,195.5,187.5,195.0,195.5,194.5" stroke="black" stroke-width="2" fill="none" />
<polyline points="92.5,115.5,84.5,123.0,76.5,130.5,69.0,138.5,61.0,146.0,53.0,153.5,45.0,161.0,37.0,168.5,29.5,176.0,21.5,183.5,13.0,191.5,5.0,198.5" stroke="black" stroke-width="2" fill="none" />
<polyline points="2.5,197.0,11.0,196.5,19.5,196.0,28.0,195.5,36.0,195.0,43.5,194.5,51.5,194.0,59.5,193.0,67.0,193.0,75.0,193.0,83.5,193.0,91.5,192.5,98.5,192.5,106.0,192.0,114.0,191.5,122.0,191.5,130.0,190.5,138.0,189.5,146.0,188.5,154.0,188.0,162.5,187.0,170.5,187.0,178.5,186.5,186.5,186.0,194.5,185.5" stroke="black" stroke-width="2" fill="none" />
<polyline points="76.0,124.5,67.5,132.0,59.0,139.0,51.0,146.0,43.0,152.5,35.0,159.5,26.5,167.0,18.5,174.5,10.5,181.5,3.0,189.0" stroke="black" stroke-width="2" fill="none" />
<polyline points="4.0,190.0,11.5,190.0,19.5,189.0,27.5,188.5,35.5,188.5,43.5,188.5,51.5,188.0,59.5,187.5,67.5,187.0,75.5,186.5,83.5,185.5,91.5,185.0,99.5,184.5,107.0,183.5,115.5,182.5,123.5,181.5,130.5,181.0,138.5,180.0,146.5,179.5,154.0,179.0,162.0,178.5,170.0,178.5,178.5,178.0,186.5,177.5,194.0,177.5" stroke="black" stroke-width="2" fill="none" />
<polyline points="75.0,117.5,67.0,124.5,59.5,131.5,51.5,139.0,43.5,147.0,35.5,154.5,27.0,161.0,18.5,168.0,10.0,174.5,2.0,182.0" stroke="black" stroke-width="2" fill="none" />
<polyline points="4.5,181.5,13.0,181.0,21.0,180.5,29.0,180.0,37.0,180.0,44.5,180.0,52.5,179.5,60.0,179.0,67.0,178.5,74.5,178.0,82.5,177.5,90.5,177.0,98.5,176.5,106.0,176.0,114.0,175.5,122.0,175.0,130.0,174.0,138.0,173.0,146.0,172.5,154.5,172.5,162.5,172.0,170.5,171.5,178.5,171.0,186.0,170.0,193.5,169.0" stroke="black" stroke-width="2" fill="none" />
<polyline points="57.5,114.0,49.5,121.5" stroke="black" stroke-width="2" fill="none" />
<polyline points="51.5,117.0,43.0,124.0,34.5,131.5,26.5,139.0,18.0,146.5,10.0,154.0,2.5,162.0" stroke="black" stroke-width="2" fill="none" />
<polyline points="6.0,164.5,13.5,164.0,21.5,164.0,29.5,163.5,37.5,163.0,45.5,162.5,53.0,162.0,61.5,161.5,69.5,161.5,78.0,161.0,86.0,161.0,94.0,161.0,102.0,160.5,109.5,160.0,117.0,160.0,124.5,159.5,132.5,159.0,140.5,158.5,149.0,157.5,157.5,156.5,165.5,156.0,174.0,155.5,182.0,155.0,189.5,155.0,197.0,154.5" stroke="black" stroke-width="2" fill="none" />
<polyline points="44.0,115.0,36.0,122.5" stroke="black" stroke-width="2" fill="none" />
<polyline points="26.0,124.0,18.5,131.5,11.0,138.5,3.0,146.0" stroke="black" stroke-width="2" fill="none" />
<polyline points="1.0,146.5,9.0,146.5,18.0,146.0,26.5,146.0,35.0,146.5,43.0,146.5,50.5,146.5,58.0,147.0,65.5,146.5,73.0,146.0,81.0,146.0,89.5,145.0,98.0,144.0,106.5,143.5,115.0,143.0,123.5,142.5,132.0,142.0,139.5,141.5,148.0,141.0,156.5,140.5,164.5,140.5,172.5,140.0,180.5,139.5,188.5,138.5,196.5,137.5" stroke="black" stroke-width="2" fill="none" />
<polyline points="27.5,131.5,19.5,139.5,12.0,147.0,4.0,154.5" stroke="black" stroke-width="2" fill="none" />
<polyline points="3.0,155.0,11.0,155.0,19.5,155.0,28.0,155.0,36.5,155.0,44.5,154.5,52.5,154.5,60.5,154.0,68.5,153.5,76.0,153.5,84.0,153.0,92.0,152.0,100.0,151.0,108.5,150.5,116.5,150.5,125.0,150.5,133.5,150.0,141.5,149.0,149.0,148.5,157.0,148.5,165.0,148.5,173.0,148.0,181.0,147.5,189.0,147.0,197.5,146.0" stroke="black" stroke-width="2" fill="none" />
<polyline points="99.5,297.0,91.0,297.5,83.0,298.0,75.0,298.5,67.0,298.5,59.0,298.5,50.5,298.5,42.0,298.5,34.0,299.0,26.0,299.0,18.5,299.5,10.5,299.5,2.5,300.0" stroke="black" stroke-width="2" fill="none" />
<polyline points="2.0,306.5,10.5,306.0,18.5,305.5" stroke="black" stroke-width="2" fill="none" />
<polyline points="18.0,306.5,10.0,314.0,2.5,321.5" stroke="black" stroke-width="2" fill="none" />
<polyline points="5.0,320.0,13.0,319.0,21.0,318.5,28.5,317.5,36.0,316.0,43.5,315.0,51.5,314.0,58.5,314.0,66.5,313.5" stroke="black" stroke-width="2" fill="none" />
<polyline points="66.0,309.0,58.5,309.5,51.0,309.5,43.5,310.5,35.5,311.5,27.0,312.5,19.0,314.0,11.5,315.0,4.0,315.5" stroke="black" stroke-width="2" fill="none" />
<polyline points="2.0,313.5,10.0,306.0,18.0,298.5" stroke="black" stroke-width="2" fill="none" />
<polyline points="12.0,299.0,3.5,306.5" stroke="black" stroke-width="2" fill="none" />
<polyline points="2.5,310.5,10.5,310.0,18.5,309.0,26.0,308.0,34.0,308.0,42.5,308.0,50.5,307.0,58.0,306.5,65.5,306.0,73.5,305.5" stroke="black" stroke-width="2" fill="none" />
<polyline points="56.5,307.5,44.0,309.0" stroke="black" stroke-width="2" fill="none" />
<polyline points="51.0,330.5,43.0,331.0,35.0,331.0,27.0,331.5,19.0,332.0,11.0,333.0,3.5,333.5" stroke="black" stroke-width="2" fill="none" />
<polyline points="1.5,327.5,13.0,324.5,25.0,324.0,37.0,324.0,40.0,314.5,52.0,317.0,62.5,311.0,74.5,311.5,86.5,311.5,88.0,316.0" stroke="black" stroke-width="2" fill="none" />
<polyline points="44.0,324.0,35.5,324.5,27.5,325.0,19.5,325.0,11.5,325.0,3.5,325.5" stroke="black" stroke-width="2" fill="none" />
<polyline points="0.5,261.5,12.5,261.5,25.0,261.5,37.0,261.0,49.0,261.0,61.0,261.0,73.0,261.0,85.5,261.0,98.0,261.0,110.0,260.5,122.0,260.0,134.0,260.0,146.0,260.0,158.0,259.5,169.5,260.0,181.5,260.0" stroke="black" stroke-width="2" fill="none" />
<polyline points="196.5,245.0,189.0,245.5,180.5,245.5,172.5,246.0,164.5,247.0,156.5,247.5,148.5,248.0,140.0,248.5,131.5,249.5,123.5,250.0,115.0,251.0,107.0,251.5,99.0,252.0,91.5,252.0,83.5,252.5,75.5,253.5,67.5,254.5,60.0,255.0,52.0,255.0,44.5,255.0,36.0,255.0,28.0,255.0,19.5,255.0,11.5,255.5,3.0,256.0" stroke="black" stroke-width="2" fill="none" />
<polyline points="2.5,259.5,2.5,271.5,3.0,283.0,3.5,295.5,9.5,298.5,21.5,298.5,33.5,299.0,45.5,300.0,57.5,300.0,69.5,302.0,82.0,302.0,93.5,303.5,105.5,306.0" stroke="black" stroke-width="2" fill="none" />
<polyline points="197.0,235.0,189.0,235.0,181.0,235.0,172.5,235.5,164.5,235.5,157.0,236.5,149.0,237.5,140.5,238.5,132.5,239.5,124.0,239.5,115.5,239.5,107.0,240.0,98.5,240.0,91.0,240.0,83.0,240.5,75.0,241.0,67.5,241.0,59.0,241.5,51.0,242.0,43.0,242.5,35.0,242.5,27.5,243.0,20.0,243.0,13.0,243.0,5.5,243.5" stroke="black" stroke-width="2" fill="none" />
<polyline points="3.0,238.0,11.0,237.5,18.5,236.5,26.5,236.5,35.0,236.0,43.0,234.5,51.5,234.5,60.5,234.5,69.0,234.0,77.0,233.5,84.5,232.5,92.5,232.0,101.0,231.0,109.0,230.5,117.5,229.5,125.5,228.5,133.5,228.5,142.0,228.0,150.0,227.5,158.0,227.0,166.0,226.5,173.5,226.0,181.0,225.5,188.5,225.5,196.5,225.5" stroke="black" stroke-width="2" fill="none" />
<polyline points="203.0,129.0,195.0,129.5,187.0,129.5,179.5,130.0,172.0,131.0,164.5,132.0,156.0,132.5,148.0,132.5,140.0,133.0,132.0,133.5,124.0,134.5,115.5,134.5,108.0,134.5,99.5,134.5,91.0,135.0,83.0,135.5,75.5,136.0,67.5,136.5,59.5,137.5,51.5,138.5,43.0,139.0,35.0,139.0,27.0,139.0,19.0,139.5,11.0,140.0,2.5,140.0" stroke="black" stroke-width="2" fill="none" />
<polyline points="1.5,102.0,9.5,101.5,18.0,101.0,26.0,100.5,34.5,100.5,43.0,100.0,51.5,99.5,60.0,98.5,68.0,98.0,75.5,97.0,83.5,96.5,91.5,96.0,99.5,96.0,107.5,96.0,115.5,95.5,124.0,95.0,132.0,94.5,140.0,94.0,148.0,93.5,156.0,93.5,164.0,93.0,172.0,92.5,180.0,92.0,188.0,91.0,197.0,90.0,205.0,89.0,213.0,88.5,221.0,87.5,229.5,86.5,237.5,85.5,245.5,85.0,253.5,84.5,261.5,84.5,269.0,84.0,276.5,83.5,284.0,82.5,292.0,82.0,299.5,81.0,306.5,80.5,314.5,80.5,322.0,80.0,330.5,79.5,338.5,79.0,346.0,78.5,354.0,78.5,362.0,78.0,369.5,78.0,377.5,77.5,385.0,77.5,393.0,77.5,401.5,77.0,409.5,76.5,418.0,76.0,426.0,75.5,434.0,75.0,442.0,74.0,450.0,73.0,458.0,72.5,466.0,71.5,474.0,71.0,482.0,70.5,489.5,70.0,497.0,70.0,505.0,69.5,513.5,68.5" stroke="black" stroke-width="2" fill="none" />
<polyline points="514.5,60.5,507.0,61.5,499.5,62.0,491.5,62.5,484.0,63.0,475.5,63.5,467.5,64.5,459.5,65.0,451.5,65.5,443.0,66.5,434.5,67.0,426.0,67.5,417.5,68.0,409.0,69.0,401.0,69.0,393.0,69.5,385.5,70.0,378.0,70.5,371.0,71.0,363.5,71.5,356.0,72.0,348.0,72.0,340.0,72.0,331.5,72.0,323.5,72.5,315.5,73.0,307.5,73.5,300.0,74.5,292.5,75.5,284.5,76.0,276.5,77.0,269.0,77.5,260.5,78.0,252.0,78.5,243.5,79.0,236.0,79.5,228.5,80.5,220.5,81.0,212.5,82.0,204.0,82.5,196.0,83.0,188.0,83.5,179.5,84.0,171.5,84.0,163.5,84.5,155.5,85.0,147.0,85.5,138.5,85.5,130.5,85.5,123.0,85.5,115.0,87.0,107.5,88.5,100.0,89.5,92.5,90.0,84.5,90.5,76.0,91.0,68.5,91.0,60.5,91.5,52.0,91.5,43.5,92.0,35.5,91.5,27.0,91.5,19.0,92.0,10.5,92.5,2.5,93.0" stroke="black" stroke-width="2" fill="none" />
<polyline points="2.0,86.0,10.5,85.0,18.5,84.5,27.0,84.0,35.5,83.5,44.0,83.0,52.5,82.5,61.0,82.5,69.5,82.5,77.0,83.0,85.0,83.0,93.0,82.0,101.0,81.5,108.5,80.5,116.0,79.0,123.5,78.0,131.5,77.0,138.5,77.0,146.5,76.5,154.0,76.0,162.0,75.5,170.0,75.0,178.5,75.0,186.5,74.5,194.5,74.5,203.0,74.5,211.0,74.0,219.5,73.5,228.0,73.0,236.5,73.0,244.5,72.5,252.5,72.0,260.5,71.0,268.5,70.5,276.5,69.5,284.5,68.5,293.0,68.0,301.5,67.5,309.5,67.0,317.5,66.0,325.0,65.5,333.5,65.0,341.0,64.0,349.0,63.5,357.0,63.0,364.5,62.0,372.5,61.0,379.5,60.5,387.0,59.5,394.0,59.5,401.5,59.0,410.0,58.5,418.5,58.0,426.5,57.5,435.0,57.0,443.5,57.0,452.0,56.5,460.5,56.0,469.0,55.5,477.5,55.0,485.5,54.5,493.0,54.0,501.0,53.5,508.0,53.0,516.0,53.0" stroke="black" stroke-width="2" fill="none" />
<polyline points="514.5,44.5,507.0,45.5,499.5,46.5,491.5,46.5,483.0,47.0,475.0,47.5,467.0,48.0,459.0,48.5,450.5,49.0,442.5,49.5,434.0,50.0,426.5,51.0,418.5,52.0,410.0,52.0,402.5,52.0,394.5,53.0,387.0,54.0,379.5,54.5,372.5,54.0,365.0,54.5,357.0,55.0,349.5,55.5,341.5,56.0,333.5,57.0,325.5,57.0,317.5,57.5,309.5,58.5,301.0,59.0,293.0,60.0,284.5,61.0,276.5,61.5,268.5,62.5,260.5,64.0,252.5,65.0,244.0,65.0,236.0,65.5,228.0,66.0,220.0,66.0,212.0,65.5,203.5,65.0,195.5,65.5,187.0,66.5,178.5,67.0,169.5,67.0,161.5,67.0,153.5,67.5,146.0,68.0,138.5,68.5,131.0,68.5,123.5,69.5,115.5,70.5,107.0,71.5,99.0,73.0,91.5,74.0,84.0,74.5,75.5,75.0,67.5,75.5,59.5,75.0,51.5,74.5,43.5,74.5,35.5,74.5,27.0,74.5,18.5,75.0,9.5,75.5,1.5,76.5" stroke="black" stroke-width="2" fill="none" />
<polyline points="3.0,66.5,11.0,66.5,19.0,66.5,26.5,66.5,34.5,66.5,42.0,67.0,50.5,67.0,59.0,67.0,67.0,66.5,75.0,66.0,82.5,65.5,90.5,65.0,98.5,64.0,106.0,63.0,114.0,63.0,122.5,63.0,130.5,62.0,138.0,61.5,145.5,61.0,153.5,60.5,161.5,60.0,170.0,59.5,178.0,58.5,186.5,58.0,195.0,57.5,203.5,57.5,212.0,57.5,220.0,57.5,228.0,57.5,235.5,57.0,243.5,56.5,251.0,56.0,259.0,55.5,267.0,54.5,275.0,54.0,283.5,53.0,291.5,51.5,299.5,50.5,308.0,49.5,316.0,48.5,324.0,48.0,332.0,47.5,340.5,47.0,348.5,46.5,355.5,46.0,363.0,46.0,370.5,46.0,378.5,46.0,386.0,45.5,394.0,45.0,402.0,45.0,410.5,44.5,418.0,44.5,426.5,44.5,434.5,44.0,442.0,44.0,450.0,43.0,458.0,42.5,466.0,42.0,473.5,41.0,481.5,40.5,489.5,39.5,498.0,39.0,506.0,38.5,513.5,37.5" stroke="black" stroke-width="2" fill="none" />
<polyline points="515.0,30.5,507.0,30.5,499.5,31.0,491.5,31.0,483.0,31.0,475.5,31.5,467.5,32.5,459.0,33.0,451.0,33.5,443.0,34.0,434.5,34.5,426.0,35.5,417.5,36.0,409.5,36.5,402.0,36.5,394.0,37.5,386.0,38.5,377.5,39.0,369.5,40.0,361.5,40.5,353.5,40.5,346.0,41.0,338.5,41.5,330.5,41.5,322.5,42.0,315.0,42.5,307.0,43.5,299.0,44.0,291.0,43.5,283.5,43.5,276.0,44.5,268.0,46.0,260.0,46.5,251.5,47.5,243.5,48.0,236.0,48.5,228.5,48.5,220.5,48.5,212.0,49.0,204.0,49.0,195.5,49.5,187.5,49.5,179.5,50.0,171.5,50.5,163.5,51.0,155.5,51.5,147.0,52.5,139.0,53.5,131.0,54.0,123.0,54.5,115.0,55.5,106.5,56.0,98.5,56.5,90.5,57.0,82.0,57.5,74.0,57.5,66.0,57.5,58.0,58.0,50.0,59.0,42.5,59.0,34.5,59.5,26.5,59.5,19.0,60.0,11.5,60.0,4.0,60.5" stroke="black" stroke-width="2" fill="none" />
<polyline points="2.5,54.0,10.5,53.5,18.5,52.5,26.5,51.5,34.5,50.5,42.0,49.5,50.5,48.5,58.5,47.5,66.5,47.0,74.5,47.0,82.5,47.0,90.5,46.5,98.5,46.5,106.0,46.0,114.0,46.0,122.0,45.5,130.5,45.5,139.0,45.5,147.0,45.5,155.0,45.5,163.0,45.0,171.0,44.5,179.5,44.0,188.0,43.5,196.0,43.0,204.5,43.0,212.5,42.0,221.0,41.5,228.5,40.5,236.0,39.5,244.0,39.0,252.5,38.5,260.0,38.0,267.5,37.0,275.0,37.0,282.5,37.0,290.0,36.0,298.0,35.5,306.0,35.0,314.0,35.0,322.5,34.5,330.0,34.5,338.0,34.0,346.5,33.5,355.0,32.5,363.5,31.5,371.0,31.0,379.5,30.0,387.5,29.5,395.5,28.5,403.5,28.0,411.0,28.0,419.0,27.5,426.5,27.0,434.0,26.5,442.0,26.0,450.5,26.0,459.0,26.0,467.0,26.0,475.0,25.5,482.5,25.0,491.0,24.5,499.0,24.0,508.0,22.5,516.5,21.5" stroke="black" stroke-width="2" fill="none" />
<polyline points="517.5,13.0,509.5,14.0,501.5,14.5,493.0,15.5,485.0,16.5,477.5,16.5,469.5,17.0,461.0,17.5,453.0,18.0,445.0,18.5,437.0,19.0,429.0,19.5,420.5,19.5,412.5,20.0,404.5,20.5,396.5,21.0,388.0,21.0,379.5,21.5,371.0,22.5,362.5,23.5,354.5,24.0,346.0,24.5,338.0,25.5,330.0,26.0,322.0,27.0,314.0,26.5,306.5,27.0,299.5,27.0,292.0,27.5,284.0,28.0,276.5,28.0,269.0,28.5,260.5,28.5,252.5,29.0,244.5,30.0,236.5,30.5,228.5,31.0,220.0,31.5,211.5,32.5,203.5,33.0,195.0,34.0,187.0,34.5,179.0,35.0,171.5,35.0,163.5,35.5,155.5,36.5,147.5,37.5,140.0,38.0,132.0,38.0,124.5,38.0,116.0,38.0,108.0,38.0,99.5,38.0,91.5,38.5,83.0,39.0,75.0,39.5,67.0,40.0,59.0,41.0,52.0,41.5,44.0,43.0,35.5,44.0,26.5,45.5,18.5,46.5,10.5,47.5,2.5,48.0" stroke="black" stroke-width="2" fill="none" />
<polyline points="1.5,39.0,9.5,38.0,18.5,37.0,27.0,36.5,35.5,35.5,44.0,34.5,52.0,34.0,60.0,33.5,68.0,32.5,76.5,31.5,84.5,30.5,92.0,30.0,100.0,29.5,108.5,29.5,116.5,29.5,124.5,30.0,132.5,30.0,140.0,30.0,147.5,30.0,154.5,30.0,162.5,29.5,170.5,29.0,178.5,28.0,187.5,26.5,196.0,25.5,204.0,24.5,213.0,23.0,221.5,22.5,230.0,22.5,237.5,22.0,245.5,21.5,253.5,20.5,261.0,20.0,268.5,20.0,276.0,20.0,283.5,20.0,291.0,20.0,299.0,19.5,307.0,19.0,315.0,18.0,323.0,17.5,331.0,17.0,339.0,16.5,347.0,15.5,355.5,14.5,363.5,13.5,372.0,13.0,380.5,13.0,389.0,12.5,397.0,12.0,405.0,11.5,412.5,11.5,421.0,11.0,429.0,10.5,437.0,10.0,445.5,9.0,453.0,8.5,461.0,8.0,469.5,7.0,477.5,6.5,485.0,6.0,493.0,5.0,501.0,5.0,509.0,4.5,516.5,4.5" stroke="black" stroke-width="2" fill="none" />
<polyline points="515.5,-3.0,507.5,-3.0,500.0,-2.5,492.0,-2.5,484.5,-2.0,476.5,-1.5,468.0,-1.0,460.0,-0.5,451.5,0.0,443.5,0.5,435.5,1.5,427.5,2.0,420.0,2.0,412.0,2.5,404.0,3.0,396.0,4.0,388.0,5.0,379.5,6.0,371.5,6.5,363.5,7.0,355.0,7.5,347.0,8.5,338.5,8.5,330.5,9.0,322.5,9.0,314.5,10.0,306.5,10.5,299.0,11.0,291.5,11.5,284.5,12.0,276.5,12.0,268.5,12.5,261.0,13.0,254.0,13.5,246.0,14.5,238.0,15.0,229.5,16.0,221.0,16.5,212.5,17.0,204.0,17.5,196.0,18.0,187.5,18.0,180.0,18.5,172.0,19.5,163.5,20.0,155.5,20.0,147.5,20.0,139.5,20.0,131.5,20.5,124.0,21.0,116.5,21.0,108.5,21.0,101.0,21.5,93.0,22.0,85.0,22.5,77.0,23.0,68.5,24.0,60.0,24.5,51.5,24.5,43.5,25.0,35.0,26.5,27.0,27.0,19.5,28.0,12.0,29.0,4.0,30.0" stroke="black" stroke-width="2" fill="none" />
<polyline points="6.0,21.5,13.5,20.5,21.0,20.0,28.5,19.0,36.5,17.5,44.0,16.5,51.5,16.0,60.0,15.5,68.5,15.0,77.0,14.5,85.5,14.5,93.0,14.0,100.0,14.0,107.5,14.0,115.0,13.5,123.0,13.5,131.0,13.0,139.0,12.5,147.5,12.0,155.0,12.0,163.0,11.5,171.0,11.0,178.5,11.0,187.0,11.0,195.5,10.5,204.0,10.5,212.5,10.5,220.5,9.5,229.0,8.5,237.0,7.5,244.5,6.5,252.5,6.5,261.0,6.0,269.0,6.0,277.0,6.0,285.0,5.5,292.5,5.0,300.5,4.0,308.5,3.5,317.0,3.0,325.0,3.0,332.5,2.0,340.0,1.5,347.5,1.0,355.0,0.0,362.5,-0.5,371.0,-1.0,379.5,-1.5,387.5,-2.0,396.0,-2.0,404.0,-2.5,411.5,-3.0,419.0,-4.0,427.0,-5.0,435.0,-6.5,443.0,-7.5,450.5,-8.0,458.5,-8.5,466.5,-9.5,475.0,-10.0,483.0,-10.5,491.0,-11.0,498.5,-11.5,506.5,-11.5,514.5,-12.0" stroke="black" stroke-width="2" fill="none" />
<polyline points="515.5,-18.0,506.5,-18.5,498.0,-18.5,489.5,-18.0,481.5,-18.0,474.0,-17.0,466.0,-16.5,458.5,-15.0,451.0,-14.0,443.5,-12.5,435.5,-12.0,427.5,-12.0,419.5,-11.5,411.0,-10.5,403.0,-9.5,395.0,-9.5,387.5,-9.5,379.5,-9.0,371.5,-8.0,364.0,-7.5,355.5,-7.0,347.5,-6.5,339.5,-6.5,331.5,-6.0,323.5,-6.0,316.0,-5.0,308.0,-5.0,300.5,-5.0,293.0,-5.0,285.5,-4.5,277.5,-3.5,269.0,-3.5,260.5,-3.0,252.5,-2.5,244.5,-2.0,236.5,-1.5,228.5,-1.5,220.5,-1.5,213.0,-0.5,205.0,0.5,196.5,1.0,188.5,1.0,180.0,1.5,172.0,2.0,164.5,3.0,156.5,3.0,148.5,3.0,140.5,3.5,132.0,4.0,124.0,4.5,116.0,5.0,108.5,5.5,100.5,6.5,92.0,7.5,83.5,8.0,75.5,8.5,67.5,8.5,59.5,9.0,51.5,9.5,43.0,10.0,35.0,11.0,27.0,11.5,19.5,12.0,12.0,12.5,4.5,13.0" stroke="black" stroke-width="2" fill="none" />
<polyline points="4.0,5.5,11.5,5.0,19.5,4.5,27.5,4.0,35.5,3.5,43.5,3.0,51.5,3.0,59.0,2.5,67.0,2.0,75.0,1.5,83.0,1.0,91.0,0.5,98.5,-0.5,106.5,-0.5,115.0,-1.0,123.0,-2.5,131.5,-2.5,140.5,-2.5,149.0,-3.0,157.0,-3.5,164.5,-4.5,172.5,-5.0,181.0,-6.0,189.0,-6.5,197.5,-7.5,205.5,-8.5,213.5,-8.5,222.0,-9.0,230.0,-9.5,238.0,-10.0,246.0,-10.5,253.5,-11.0,261.0,-11.5,268.5,-11.5,276.5,-11.5,284.0,-11.5,292.0,-11.5,300.0,-12.0,308.0,-12.5,315.5,-14.0,323.5,-14.5,331.5,-15.0,339.5,-15.5,347.5,-15.5,355.5,-16.0,364.0,-16.0,371.5,-16.5,379.0,-17.0,387.5,-17.5,395.5,-18.0,404.0,-18.5,412.0,-19.0,419.5,-19.5,427.0,-19.5,435.0,-20.0,442.5,-20.0,450.5,-21.0,458.5,-21.5,466.5,-22.0,474.5,-23.0,483.0,-23.5,490.5,-24.0,498.5,-25.0,506.5,-26.0,515.0,-27.0" stroke="black" stroke-width="2" fill="none" />
<polyline points="511.0,119.5,510.5,107.5,511.0,95.5,510.5,83.5,510.5,71.0,511.0,59.0,511.0,47.0,511.0,34.5,511.0,22.5,511.0,10.0,505.5,2.5,493.5,3.0,481.0,2.5,469.5,2.5,457.5,2.5,446.0,2.5,434.5,2.5,422.5,2.5,410.5,3.0,399.0,3.0,387.0,3.0,375.5,3.0,363.0,2.5,351.5,2.5,339.0,3.0,327.0,3.0,315.0,3.5,303.0,3.5,291.0,4.0,278.5,4.0,266.5,4.5,254.5,4.5,242.5,4.5,230.5,4.5,218.5,4.5,206.5,4.5,194.5,4.5,182.5,4.5,170.0,4.0,158.0,4.0,146.0,4.0,134.0,3.5,122.0,3.5,110.0,3.5,98.5,4.0,86.5,4.0,74.0,4.5,62.0,4.5,49.5,4.0,37.0,4.0,25.0,4.0,13.0,4.0,1.0,4.0" stroke="black" stroke-width="2" fill="none" />
</svg>