<svg xmlns="http://www.w3.org/2000/svg" version="1.1"><polyline points="4.5,2.5,5.0,14.5,4.5,27.0,4.5,39.0,4.5,51.0,4.0,63.0,4.0,75.0,3.5,87.0,3.0,99.0,3.0,111.5,2.5,123.5,3.0,135.5,2.5,147.5,2.5,159.5,2.5,171.5,3.0,183.0,2.5,195.0,3.0,207.0,3.0,219.0,3.5,230.5,3.5,242.5,3.5,254.5,3.5,266.5,3.5,278.5,3.5,290.5,3.5,302.5,3.5,314.0,3.0,326.0,3.0,338.0,13.0,341.0,25.0,341.0,37.0,341.0,49.5,340.5,61.5,340.5,74.0,340.5,86.0,340.5,98.0,341.0,110.5,341.5,122.5,341.5,135.0,342.0,147.0,342.0,159.0,342.0,171.0,342.0,182.5,342.0,194.0,342.0,206.0,342.0,218.0,342.0,230.0,342.0,242.0,342.0,254.0,342.0,266.0,342.0,278.0,342.0,289.5,341.5,301.5,341.5,313.5,341.0,325.0,341.0,337.0,341.0,349.5,340.5,361.5,340.0,374.0,340.0,386.0,340.0,398.0,340.0,409.5,340.0,421.5,340.5,433.5,340.5,445.5,341.5,457.5,341.5,469.5,341.5,481.0,341.5,493.0,341.5,505.0,341.5" stroke="black" stroke-width="2" fill="none" />
<polyline points="418.5,274.5,411.0,282.0,403.5,290.5,395.5,298.5,387.5,306.0,380.0,314.0,372.5,322.0" stroke="black" stroke-width="2" fill="none" />
<polyline points="364.0,317.0,372.0,310.0,380.0,303.0,388.0,296.0,396.0,288.0,403.0,281.0,410.5,273.5,417.5,266.0,425.0,258.5" stroke="black" stroke-width="2" fill="none" />
<polyline points="425.5,258.0,437.5,232.5" stroke="black" stroke-width="2" fill="none" />
<polyline points="443.5,227.0,435.5,235.0,428.5,242.0,421.0,249.0,413.0,256.0,405.0,264.0,397.0,271.5,389.5,279.5,381.5,287.0,373.0,294.0,365.0,302.0,357.0,309.5" stroke="black" stroke-width="2" fill="none" />
<polyline points="356.0,314.5,364.0,313.5,372.0,313.0,379.5,312.0" stroke="black" stroke-width="2" fill="none" />
<polyline points="365.0,312.0,372.5,304.0,380.0,297.0,387.5,290.0,395.0,283.0,403.0,275.5,410.5,268.0,418.5,261.0,426.0,253.5,434.0,246.0" stroke="black" stroke-width="2" fill="none" />
<polyline points="426.5,234.0,434.5,226.5,442.5,219.5" stroke="black" stroke-width="2" fill="none" />
<polyline points="435.0,221.0,427.0,228.5,418.5,236.0,410.5,243.0,402.5,250.5,395.0,258.0,387.0,265.5,379.5,273.0,372.5,280.5,365.5,287.5,357.0,295.0,349.5,302.5,341.5,310.0" stroke="black" stroke-width="2" fill="none" />
<polyline points="339.5,305.0,347.5,304.5,355.5,304.0,363.0,304.0,371.0,304.0,379.0,303.5,387.0,303.5,395.5,303.5" stroke="black" stroke-width="2" fill="none" />
<polyline points="386.5,325.0,378.0,325.5,369.5,325.5,361.5,325.5" stroke="black" stroke-width="2" fill="none" />
<polyline points="346.0,313.0,354.0,306.0,362.0,298.5,370.5,291.0,378.5,282.5,386.5,275.5,394.0,267.5,401.5,259.5,409.5,251.5,418.0,244.0" stroke="black" stroke-width="2" fill="none" />
<polyline points="412.0,234.5,404.0,242.0,396.5,250.0,388.5,257.5,380.0,265.5,371.5,272.5,363.5,280.5,356.5,287.5,349.0,294.5,341.0,301.5" stroke="black" stroke-width="2" fill="none" />
<polyline points="332.0,301.0,340.5,293.5,348.5,286.0,356.5,279.0,365.0,271.5,373.0,264.5,380.5,257.0,387.5,250.0,395.5,242.5,403.5,235.0,411.0,227.5" stroke="black" stroke-width="2" fill="none" />
<polyline points="417.5,226.5,426.5,225.5,435.0,225.5,443.0,225.5" stroke="black" stroke-width="2" fill="none" />
<polyline points="434.5,211.0,443.0,204.0,451.5,197.0" stroke="black" stroke-width="2" fill="none" />
<polyline points="452.0,190.0,444.0,197.5,435.5,204.5" stroke="black" stroke-width="2" fill="none" />
<polyline points="435.5,205.5,443.5,205.0,451.0,204.5" stroke="black" stroke-width="2" fill="none" />
<polyline points="443.5,207.0,440.5,219.0,437.5,231.0,431.5,242.5,425.5,254.0,420.0,265.5,414.0,277.5,405.5,292.0" stroke="black" stroke-width="2" fill="none" />
<polyline points="412.0,266.5,420.5,266.0" stroke="black" stroke-width="2" fill="none" />
<polyline points="418.5,256.5,426.5,256.0" stroke="black" stroke-width="2" fill="none" />
<polyline points="426.0,230.5,418.0,231.0" stroke="black" stroke-width="2" fill="none" />
<polyline points="426.0,227.0,434.0,226.5" stroke="black" stroke-width="2" fill="none" />
<polyline points="425.5,221.0,433.5,221.0,441.5,221.0,450.0,220.0" stroke="black" stroke-width="2" fill="none" />
<polyline points="443.0,210.0,435.0,210.5" stroke="black" stroke-width="2" fill="none" />
<polyline points="427.5,213.0,435.5,212.5,443.5,212.5,451.5,212.5" stroke="black" stroke-width="2" fill="none" />
<polyline points="443.5,200.0,435.5,200.5" stroke="black" stroke-width="2" fill="none" />
<polyline points="435.0,197.5,443.0,196.5,451.5,196.5" stroke="black" stroke-width="2" fill="none" />
<polyline points="452.0,191.5,444.0,192.0" stroke="black" stroke-width="2" fill="none" />
<polyline points="444.0,188.5,452.0,181.0" stroke="black" stroke-width="2" fill="none" />
<polyline points="444.0,179.5,451.5,171.5" stroke="black" stroke-width="2" fill="none" />
<polyline points="452.5,165.0,444.5,165.0" stroke="black" stroke-width="2" fill="none" />
<polyline points="437.5,171.5,445.0,171.0,453.0,170.5" stroke="black" stroke-width="2" fill="none" />
<polyline points="450.5,182.5,442.5,183.0" stroke="black" stroke-width="2" fill="none" />
<polyline points="436.0,182.0,444.0,181.5,452.0,181.0" stroke="black" stroke-width="2" fill="none" />
<polyline points="451.5,189.0,443.0,189.0,434.5,190.0" stroke="black" stroke-width="2" fill="none" />
<polyline points="412.5,210.5,404.5,218.0,396.0,225.0,387.5,232.5,379.0,240.0,371.0,247.0,363.0,255.5,355.0,263.5,347.0,271.5,339.0,279.5,331.0,287.0,323.0,294.5" stroke="black" stroke-width="2" fill="none" />
<polyline points="322.0,293.0,329.5,292.5,338.0,291.5,346.0,291.0,354.0,291.0,362.0,290.0,370.0,290.0,378.5,289.5,386.5,289.5,394.5,288.5,402.0,288.0,410.5,288.0,419.0,287.5" stroke="black" stroke-width="2" fill="none" />
<polyline points="411.5,233.0,404.0,234.0,396.5,235.0,389.0,236.0" stroke="black" stroke-width="2" fill="none" />
<polyline points="389.0,227.0,397.0,226.5,404.5,225.5,412.5,224.5" stroke="black" stroke-width="2" fill="none" />
<polyline points="411.5,217.5,403.0,225.0,395.5,233.5,387.5,241.0,379.0,248.5,371.0,256.0,363.0,264.0,355.0,271.0,347.0,278.5,339.0,285.5,331.0,292.5" stroke="black" stroke-width="2" fill="none" />
<polyline points="332.0,298.5,340.0,298.0,348.0,298.0,355.5,297.0,363.0,296.0,371.0,295.5,379.0,295.5,388.0,295.5,396.5,295.5" stroke="black" stroke-width="2" fill="none" />
<polyline points="371.5,249.0,379.0,248.5,387.5,248.0,395.5,248.0,404.0,247.5,411.5,247.5,420.0,246.5,428.0,245.5" stroke="black" stroke-width="2" fill="none" />
<polyline points="403.5,211.5,395.5,219.0,387.0,226.5" stroke="black" stroke-width="2" fill="none" />
<polyline points="387.5,223.0,395.5,223.0,403.5,222.0,411.5,221.5" stroke="black" stroke-width="2" fill="none" />
<polyline points="403.5,205.0,395.5,212.5,388.0,220.0" stroke="black" stroke-width="2" fill="none" />
<polyline points="381.5,209.0,389.0,208.5,397.0,208.0" stroke="black" stroke-width="2" fill="none" />
<polyline points="395.0,197.5,387.0,205.0,378.5,212.5,370.5,220.0" stroke="black" stroke-width="2" fill="none" />
<polyline points="370.0,219.0,377.5,218.0,385.5,217.5,394.0,217.0,402.5,217.0,411.0,216.5" stroke="black" stroke-width="2" fill="none" />
<polyline points="403.5,195.5,395.5,203.0,387.5,210.0,379.5,217.5,371.5,225.5,363.5,233.0,355.0,241.0,346.5,248.0,338.5,255.5,330.5,263.0,323.0,270.5" stroke="black" stroke-width="2" fill="none" />
<polyline points="322.0,270.5,330.0,270.0,338.5,269.0,347.0,268.5,355.0,267.5,363.5,267.0,371.5,266.0,379.5,266.0,387.5,265.5,395.5,265.0,403.0,265.0,411.0,264.5,419.0,264.5,427.0,264.0,435.5,263.5" stroke="black" stroke-width="2" fill="none" />
<polyline points="378.0,235.0,370.0,243.0" stroke="black" stroke-width="2" fill="none" />
<polyline points="365.5,241.0,357.0,248.5,349.0,256.5,340.5,265.0,331.5,273.0,323.5,281.0" stroke="black" stroke-width="2" fill="none" />
<polyline points="325.0,281.0,333.5,281.0,341.5,280.0,349.5,279.5,357.0,279.5,364.5,279.5,372.0,279.0,378.5,278.5,386.0,278.5,393.5,279.0,401.5,278.5,409.5,278.0" stroke="black" stroke-width="2" fill="none" />
<polyline points="410.5,228.0,403.0,228.5,395.0,228.5,386.5,229.0,378.0,229.0" stroke="black" stroke-width="2" fill="none" />
<polyline points="377.5,225.0,369.5,225.5" stroke="black" stroke-width="2" fill="none" />
<polyline points="365.5,227.5,357.0,235.5,349.0,243.0,340.5,250.0,332.5,257.5,324.0,264.5" stroke="black" stroke-width="2" fill="none" />
<polyline points="321.5,264.0,330.0,263.0,338.5,262.5,346.5,262.0,354.5,261.0,363.0,260.0,371.0,260.0,378.5,259.5,386.5,259.0,394.0,258.5,402.0,258.0,409.5,257.0,417.5,256.5,426.0,256.0,434.5,256.0" stroke="black" stroke-width="2" fill="none" />
<polyline points="420.5,238.0,413.0,238.5,405.5,238.5,398.0,238.5,390.0,238.5,381.5,238.5,373.5,239.0" stroke="black" stroke-width="2" fill="none" />
<polyline points="371.0,238.0,379.0,237.5,387.0,237.5,395.0,237.0,403.5,236.5,412.0,236.0,419.0,235.5,426.5,235.0,434.0,234.5,442.0,234.0" stroke="black" stroke-width="2" fill="none" />
<polyline points="387.0,197.0,378.5,204.5,370.0,211.5" stroke="black" stroke-width="2" fill="none" />
<polyline points="365.5,206.0,373.5,206.0,380.5,205.5,387.5,205.0,395.5,204.5,403.0,204.0" stroke="black" stroke-width="2" fill="none" />
<polyline points="394.5,189.5,386.5,190.5" stroke="black" stroke-width="2" fill="none" />
<polyline points="381.5,189.5,366.5,201.5,355.0,214.0,343.5,226.5,335.0,238.5,326.0,250.5,318.5,262.0,317.0,273.5,315.5,285.5,315.0,298.0,323.0,310.0" stroke="black" stroke-width="2" fill="none" />
<polyline points="331.0,310.0,339.0,310.0,347.0,308.5,355.0,308.0,363.5,307.5,371.5,306.5,380.0,306.5,387.5,306.5,395.5,306.5,403.0,306.0" stroke="black" stroke-width="2" fill="none" />
<polyline points="396.0,314.5,387.5,314.0,379.0,314.5,371.0,314.5,363.0,315.0,354.5,316.0,345.5,317.0,337.5,317.5" stroke="black" stroke-width="2" fill="none" />
<polyline points="325.0,300.5,333.0,300.0,341.0,300.0,348.5,300.0,355.5,299.5,363.0,299.0,371.0,298.5,378.5,298.5,386.0,298.0,394.0,298.0,401.5,298.0,409.5,297.0" stroke="black" stroke-width="2" fill="none" />
<polyline points="363.5,249.0,355.0,256.5,347.0,264.0,339.0,272.0,331.0,280.0,323.0,288.5" stroke="black" stroke-width="2" fill="none" />
<polyline points="321.0,289.0,329.5,288.5,337.5,288.0,345.5,287.5,353.5,287.0,361.5,286.5,370.5,286.0,379.5,285.5,388.5,285.0,397.0,284.5,405.5,284.0" stroke="black" stroke-width="2" fill="none" />
<polyline points="372.5,234.5,364.5,234.5" stroke="black" stroke-width="2" fill="none" />
<polyline points="363.0,238.5,355.0,239.0,347.0,240.0,339.5,240.5" stroke="black" stroke-width="2" fill="none" />
<polyline points="339.0,236.5,347.0,237.0,355.0,236.5,363.0,236.5" stroke="black" stroke-width="2" fill="none" />
<polyline points="354.5,232.0,347.0,233.0" stroke="black" stroke-width="2" fill="none" />
<polyline points="337.5,233.5,346.0,226.0,354.0,219.0,362.5,211.5,371.0,203.5,378.5,195.5" stroke="black" stroke-width="2" fill="none" />
<polyline points="379.5,203.0,387.5,202.0,395.0,200.5,403.0,200.0" stroke="black" stroke-width="2" fill="none" />
<polyline points="403.0,195.5,395.0,196.5,387.0,197.5,379.0,198.5,371.0,199.0" stroke="black" stroke-width="2" fill="none" />
<polyline points="363.5,219.0,355.5,226.5,348.0,234.0,340.0,242.0,331.5,249.5,323.0,257.5" stroke="black" stroke-width="2" fill="none" />
<polyline points="323.5,258.5,331.0,258.0,338.5,257.5,346.5,256.5,354.5,256.0,362.5,255.5,370.0,255.0,378.0,254.5,386.0,254.5,394.5,254.0,403.0,254.0,411.0,253.5" stroke="black" stroke-width="2" fill="none" />
<polyline points="363.5,250.5,355.5,251.0" stroke="black" stroke-width="2" fill="none" />
<polyline points="349.5,248.5,341.5,248.5,332.5,249.5" stroke="black" stroke-width="2" fill="none" />
<polyline points="334.0,246.0,342.0,245.5,349.5,245.0,357.5,244.5,365.5,243.5,373.5,242.5,381.0,242.5,388.0,242.5,395.5,242.5,403.0,242.5,411.5,242.0,419.5,242.0,427.5,241.0,435.5,240.5,443.5,239.5" stroke="black" stroke-width="2" fill="none" />
<polyline points="435.0,156.0,443.0,155.5,452.0,155.5" stroke="black" stroke-width="2" fill="none" />
<polyline points="449.5,146.0,442.0,154.0" stroke="black" stroke-width="2" fill="none" />
<polyline points="436.0,154.5,444.0,146.5,452.0,139.0" stroke="black" stroke-width="2" fill="none" />
<polyline points="453.0,131.0,445.0,138.5,437.0,146.0" stroke="black" stroke-width="2" fill="none" />
<polyline points="434.5,149.5,442.5,149.5,451.0,149.0" stroke="black" stroke-width="2" fill="none" />
<polyline points="442.5,130.5,434.5,138.5,426.5,145.5" stroke="black" stroke-width="2" fill="none" />
<polyline points="426.5,143.5,435.0,143.5" stroke="black" stroke-width="2" fill="none" />
<polyline points="426.5,140.5,435.0,140.5,443.0,140.0,451.5,139.0" stroke="black" stroke-width="2" fill="none" />
<polyline points="444.0,121.5,436.0,129.5,428.0,137.5" stroke="black" stroke-width="2" fill="none" />
<polyline points="425.5,135.5,433.5,135.0,441.0,135.0,449.0,134.5" stroke="black" stroke-width="2" fill="none" />
<polyline points="444.5,116.5,436.0,123.5,427.5,131.0,419.0,139.0" stroke="black" stroke-width="2" fill="none" />
<polyline points="418.0,133.5,426.0,133.0,434.0,132.5,442.0,131.5,450.5,131.0" stroke="black" stroke-width="2" fill="none" />
<polyline points="435.5,116.5,427.5,124.0,419.5,131.5" stroke="black" stroke-width="2" fill="none" />
<polyline points="418.5,130.5,426.5,130.0,434.0,129.0,441.5,128.5" stroke="black" stroke-width="2" fill="none" />
<polyline points="427.0,114.5,418.5,122.0" stroke="black" stroke-width="2" fill="none" />
<polyline points="419.5,121.5,427.5,121.0,435.5,120.5,443.5,120.0" stroke="black" stroke-width="2" fill="none" />
<polyline points="434.5,99.5,426.5,107.0,418.5,114.5,410.5,121.5" stroke="black" stroke-width="2" fill="none" />
<polyline points="413.0,119.0,420.5,118.5,427.5,117.5,435.5,117.0,443.5,116.5" stroke="black" stroke-width="2" fill="none" />
<polyline points="435.5,103.0,427.5,103.0" stroke="black" stroke-width="2" fill="none" />
<polyline points="428.0,96.5,420.0,97.0" stroke="black" stroke-width="2" fill="none" />
<polyline points="425.5,90.5,418.0,98.0,410.5,105.5,403.0,113.0" stroke="black" stroke-width="2" fill="none" />
<polyline points="403.5,106.5,411.0,106.0,419.0,105.0" stroke="black" stroke-width="2" fill="none" />
<polyline points="418.0,107.0,410.5,115.0" stroke="black" stroke-width="2" fill="none" />
<polyline points="411.5,113.0,419.5,112.5,427.0,111.5" stroke="black" stroke-width="2" fill="none" />
<polyline points="411.0,98.5,403.0,106.0" stroke="black" stroke-width="2" fill="none" />
<polyline points="395.5,104.5,403.5,97.0,411.5,90.0,419.5,83.0" stroke="black" stroke-width="2" fill="none" />
<polyline points="410.0,75.0,402.0,83.0,394.5,90.5,387.0,98.0" stroke="black" stroke-width="2" fill="none" />
<polyline points="385.5,103.0,393.5,102.0,401.5,101.0,410.0,100.0,418.0,99.0,425.5,98.0,434.5,96.5" stroke="black" stroke-width="2" fill="none" />
<polyline points="405.0,89.5,397.0,96.5,388.5,104.5" stroke="black" stroke-width="2" fill="none" />
<polyline points="394.5,110.0,403.0,110.0,410.5,109.5,418.5,109.0,427.0,108.5,435.0,107.5" stroke="black" stroke-width="2" fill="none" />
<polyline points="443.5,125.0,436.0,125.5,428.5,126.0,421.0,127.0,412.5,127.5" stroke="black" stroke-width="2" fill="none" />
<polyline points="379.0,100.5,386.5,93.0,395.0,85.5" stroke="black" stroke-width="2" fill="none" />
<polyline points="401.5,82.0,409.0,82.0" stroke="black" stroke-width="2" fill="none" />
<polyline points="404.5,67.5,396.5,74.5,388.0,82.0,380.5,89.5" stroke="black" stroke-width="2" fill="none" />
<polyline points="371.5,93.5,379.5,93.0,387.5,93.0,395.0,92.5,402.5,91.5,410.5,90.0,418.5,90.0,426.5,89.5" stroke="black" stroke-width="2" fill="none" />
<polyline points="386.5,75.5,378.5,83.0,370.5,90.0" stroke="black" stroke-width="2" fill="none" />
<polyline points="362.5,89.0,370.5,81.5,378.0,74.0" stroke="black" stroke-width="2" fill="none" />
<polyline points="365.0,68.5,356.5,76.0,347.5,83.0" stroke="black" stroke-width="2" fill="none" />
<polyline points="347.0,88.5,355.0,80.5,362.5,73.0,369.5,66.0,377.0,58.0" stroke="black" stroke-width="2" fill="none" />
<polyline points="387.0,59.5,379.0,67.0,370.5,74.5,362.5,82.0,355.5,89.0" stroke="black" stroke-width="2" fill="none" />
<polyline points="354.5,87.5,362.0,87.5,370.5,87.5,379.0,87.5,387.5,87.5,395.5,88.0,403.5,87.0" stroke="black" stroke-width="2" fill="none" />
<polyline points="409.5,96.0,401.5,97.5,393.5,98.0,385.5,99.0,377.5,99.5" stroke="black" stroke-width="2" fill="none" />
<polyline points="363.5,95.0,387.5,107.0,400.5,119.0,411.0,131.0,421.0,143.0,428.5,155.5,431.5,167.5,431.5,180.0,432.0,192.0,430.5,204.0,426.5,216.0,417.5,228.0,416.0,229.5,428.0,211.5" stroke="black" stroke-width="2" fill="none" />
<polyline points="362.5,217.5,354.5,218.0" stroke="black" stroke-width="2" fill="none" />
<polyline points="353.5,213.5,362.0,213.0,370.5,213.0,379.5,212.5,388.0,212.5,396.0,212.0,403.5,211.5,411.5,211.0" stroke="black" stroke-width="2" fill="none" />
<polyline points="378.5,218.5,370.0,219.0,362.0,219.5,354.0,220.0,346.5,221.0" stroke="black" stroke-width="2" fill="none" />
<polyline points="337.0,228.5,345.0,227.5,353.0,227.5,361.0,227.5,369.5,227.5" stroke="black" stroke-width="2" fill="none" />
<polyline points="358.0,227.5,370.0,219.0,365.5,214.5,355.0,226.5,352.0,235.0,349.5,241.0,356.5,222.5,368.0,210.5,381.5,221.0,368.0,233.0,360.5,245.0,359.0,257.0,369.0,231.5,381.0,221.0" stroke="black" stroke-width="2" fill="none" />
<polyline points="422.0,265.5,413.5,265.5,405.5,266.0,397.5,267.0,389.5,267.5,380.5,268.5,372.0,270.0,363.5,270.5,355.0,271.0,347.5,271.0,339.5,271.5,331.5,271.5,323.5,272.0" stroke="black" stroke-width="2" fill="none" />
<polyline points="323.5,275.0,331.5,274.5,339.5,275.0,347.5,275.0,356.0,274.5,364.0,274.5,371.5,274.0,379.5,273.5,387.5,273.0,395.5,272.5,403.5,272.0,411.0,271.5,419.5,271.0,427.5,271.0" stroke="black" stroke-width="2" fill="none" />
<polyline points="427.0,279.0,419.0,279.5,411.5,281.0,403.5,282.0,395.5,282.0,387.5,281.5,379.0,281.5,371.0,281.5,363.0,281.5,355.0,282.5,347.0,283.0,339.0,283.5,331.0,284.0,323.0,284.5" stroke="black" stroke-width="2" fill="none" />
<polyline points="325.5,297.5,337.5,313.5,350.0,318.0,359.0,320.5" stroke="black" stroke-width="2" fill="none" />
<polyline points="324.0,268.0,331.5,267.0,339.5,266.0,347.0,265.0,354.5,264.5,362.0,263.5,369.5,263.0,377.0,261.5,385.0,261.0,393.5,260.5,401.5,260.5" stroke="black" stroke-width="2" fill="none" />
<polyline points="434.5,246.5,427.0,247.5,419.5,248.0,411.5,248.0,403.5,248.5,395.0,249.5,387.0,250.0,379.0,250.5,371.5,251.5,363.5,252.0,355.5,252.0,347.5,252.0,339.0,252.0,331.0,252.5,323.0,253.0" stroke="black" stroke-width="2" fill="none" />
<polyline points="316.5,262.5,328.5,243.0,341.0,229.5,353.0,216.0,365.0,204.0,377.0,192.0,389.0,189.0,389.0,193.5,398.0,205.5,407.5,217.5,407.5,229.5,398.0,246.5,386.0,258.5,384.0,260.5,395.5,248.5" stroke="black" stroke-width="2" fill="none" />
<polyline points="291.5,251.0,283.5,258.0,275.5,265.5,267.5,272.5" stroke="black" stroke-width="2" fill="none" />
<polyline points="260.0,272.0,267.5,264.5,275.5,257.5,283.5,250.0,291.5,242.5" stroke="black" stroke-width="2" fill="none" />
<polyline points="292.0,236.0,284.0,243.5,276.5,251.0,268.0,258.5,259.5,266.0,251.0,273.0" stroke="black" stroke-width="2" fill="none" />
<polyline points="251.0,275.0,259.0,274.5,267.0,274.5,275.0,274.5,284.0,274.0" stroke="black" stroke-width="2" fill="none" />
<polyline points="284.5,268.0,276.0,275.5" stroke="black" stroke-width="2" fill="none" />
<polyline points="283.0,272.5,275.0,273.5,266.5,274.0,258.5,274.5" stroke="black" stroke-width="2" fill="none" />
<polyline points="252.0,264.0,260.0,256.5,268.5,249.5,276.5,242.5,284.0,235.5,291.5,228.0" stroke="black" stroke-width="2" fill="none" />
<polyline points="292.5,218.0,284.5,226.0,276.5,233.0,268.5,240.5,260.0,248.0,252.0,255.5,243.0,263.0" stroke="black" stroke-width="2" fill="none" />
<polyline points="242.0,264.0,250.5,264.0,259.0,263.5,267.0,263.5,275.5,263.5,284.0,263.0" stroke="black" stroke-width="2" fill="none" />
<polyline points="236.0,265.5,244.5,258.0,253.0,250.0,260.5,242.0,268.0,234.0,276.0,226.5,284.0,218.5,292.0,211.0" stroke="black" stroke-width="2" fill="none" />
<polyline points="292.5,204.0,284.5,212.0,276.5,219.5,268.0,226.5,260.0,234.0,251.5,241.5,244.0,249.5,236.0,257.0" stroke="black" stroke-width="2" fill="none" />
<polyline points="234.0,257.5,242.0,257.0,249.5,257.0,257.5,256.5,265.5,256.0,273.5,255.5,282.0,255.0" stroke="black" stroke-width="2" fill="none" />
<polyline points="281.0,210.5,289.0,210.0" stroke="black" stroke-width="2" fill="none" />
<polyline points="289.5,201.5,281.0,201.5" stroke="black" stroke-width="2" fill="none" />
<polyline points="280.0,194.5,288.5,193.5" stroke="black" stroke-width="2" fill="none" />
<polyline points="292.5,196.5,285.0,203.5,277.0,211.0,269.0,218.5,261.5,225.5,254.0,233.5,245.5,240.5,237.0,248.0,228.5,255.5" stroke="black" stroke-width="2" fill="none" />
<polyline points="228.0,255.0,236.5,254.5,244.5,253.5,252.5,253.0,260.5,252.0,268.5,250.5,276.0,250.5,283.0,250.0,290.5,249.5" stroke="black" stroke-width="2" fill="none" />
<polyline points="278.0,201.0,270.0,201.5" stroke="black" stroke-width="2" fill="none" />
<polyline points="268.0,196.0,275.5,188.0,282.5,180.0,290.5,172.0" stroke="black" stroke-width="2" fill="none" />
<polyline points="285.0,172.5,277.0,180.0" stroke="black" stroke-width="2" fill="none" />
<polyline points="282.0,177.5,290.0,177.0" stroke="black" stroke-width="2" fill="none" />
<polyline points="291.5,180.5,283.5,188.0" stroke="black" stroke-width="2" fill="none" />
<polyline points="282.5,187.0,290.0,186.0" stroke="black" stroke-width="2" fill="none" />
<polyline points="293.0,189.0,285.0,196.0,276.5,203.5,268.5,211.0,260.5,218.0,253.0,225.5,245.5,232.5,237.5,239.0,229.5,246.0" stroke="black" stroke-width="2" fill="none" />
<polyline points="228.0,250.5,236.0,250.5,244.0,250.0,252.5,249.5,260.5,248.0,268.5,247.5,276.0,246.5,283.5,246.0,291.0,245.0" stroke="black" stroke-width="2" fill="none" />
<polyline points="276.0,195.5,268.0,203.0,259.5,210.5,251.5,217.5,243.5,225.0,235.5,232.5" stroke="black" stroke-width="2" fill="none" />
<polyline points="234.0,236.0,242.0,235.5,250.0,235.0,258.0,234.0,266.0,233.5,274.5,232.5,282.0,232.0,290.0,231.5" stroke="black" stroke-width="2" fill="none" />
<polyline points="276.0,193.5,268.5,194.5" stroke="black" stroke-width="2" fill="none" />
<polyline points="266.5,188.5,274.5,188.5,282.5,188.0,291.0,187.5" stroke="black" stroke-width="2" fill="none" />
<polyline points="284.5,168.0,276.5,168.5" stroke="black" stroke-width="2" fill="none" />
<polyline points="278.0,164.0,285.5,164.0,292.5,164.0" stroke="black" stroke-width="2" fill="none" />
<polyline points="283.0,164.5,275.0,171.5,267.5,178.5" stroke="black" stroke-width="2" fill="none" />
<polyline points="267.5,181.0,275.0,180.5,283.0,180.5,290.5,180.5" stroke="black" stroke-width="2" fill="none" />
<polyline points="274.0,162.5,282.0,154.5" stroke="black" stroke-width="2" fill="none" />
<polyline points="283.0,148.5,275.0,156.0,267.0,163.0,259.5,170.0,252.0,177.0,244.0,184.5,235.5,192.0,227.5,200.0" stroke="black" stroke-width="2" fill="none" />
<polyline points="226.5,201.0,235.0,200.5,243.0,199.5,251.5,198.5,259.5,197.5" stroke="black" stroke-width="2" fill="none" />
<polyline points="258.0,196.0,249.5,204.0,241.5,211.5,234.0,218.5,226.5,225.0" stroke="black" stroke-width="2" fill="none" />
<polyline points="222.5,226.5,228.5,244.5" stroke="black" stroke-width="2" fill="none" />
<polyline points="234.0,243.0,242.0,243.0,250.0,242.5,258.0,241.5,265.5,240.5,273.5,239.5,281.5,239.0,290.0,238.5" stroke="black" stroke-width="2" fill="none" />
<polyline points="258.0,203.0,250.0,210.0,242.5,218.0,234.5,225.5,226.5,233.0" stroke="black" stroke-width="2" fill="none" />
<polyline points="219.5,229.0,227.5,228.5,235.0,228.0,242.0,228.0,249.5,227.5,257.5,227.5,265.5,227.5,274.0,227.5,282.5,227.0,291.0,226.0" stroke="black" stroke-width="2" fill="none" />
<polyline points="258.0,187.0,250.5,194.5,242.5,202.5,235.0,210.0,227.0,217.5" stroke="black" stroke-width="2" fill="none" />
<polyline points="226.5,213.0,234.5,213.0,243.0,212.5,251.0,212.5,258.5,212.0,266.0,211.0,274.5,210.5,283.0,209.5,291.5,208.5" stroke="black" stroke-width="2" fill="none" />
<polyline points="273.0,179.5,265.0,180.5" stroke="black" stroke-width="2" fill="none" />
<polyline points="266.0,174.0,274.5,173.5,283.0,173.0,291.0,172.5" stroke="black" stroke-width="2" fill="none" />
<polyline points="283.0,152.5,275.0,153.0,267.0,153.5" stroke="black" stroke-width="2" fill="none" />
<polyline points="267.0,148.5,275.5,148.0,283.5,147.5" stroke="black" stroke-width="2" fill="none" />
<polyline points="276.5,146.0,268.0,153.5,259.5,160.5,251.0,168.5,243.0,176.0,235.0,184.0,226.5,191.0" stroke="black" stroke-width="2" fill="none" />
<polyline points="226.5,192.5,235.0,192.5,243.0,192.0,251.5,191.5,259.0,191.0" stroke="black" stroke-width="2" fill="none" />
<polyline points="258.5,179.5,250.5,187.0,243.0,194.5,235.5,202.0,227.5,210.0" stroke="black" stroke-width="2" fill="none" />
<polyline points="234.5,209.0,243.0,208.5,251.0,207.5,259.5,207.0,268.0,206.0,276.5,206.0" stroke="black" stroke-width="2" fill="none" />
<polyline points="290.5,222.0,282.0,222.0,274.5,222.5,266.0,223.5,258.0,224.0,249.5,225.5,241.5,227.0,233.0,228.0" stroke="black" stroke-width="2" fill="none" />
<polyline points="234.0,218.0,242.0,217.0,250.5,216.5,258.5,216.0,266.5,215.5,274.5,215.0,283.0,214.0,291.5,213.5" stroke="black" stroke-width="2" fill="none" />
<polyline points="290.0,260.0,282.0,260.0,274.0,260.5,266.0,260.5,258.5,261.0,251.0,261.5,244.0,262.0,236.5,262.5,229.0,263.0" stroke="black" stroke-width="2" fill="none" />
<polyline points="235.0,267.0,247.0,268.5" stroke="black" stroke-width="2" fill="none" />
<polyline points="235.5,270.5,243.5,269.5,251.0,269.0,259.0,268.5,267.5,268.0,275.0,267.0,282.5,267.0,290.0,267.0" stroke="black" stroke-width="2" fill="none" />
<polyline points="290.0,242.5,282.5,243.0,275.0,243.5,267.5,243.5,259.5,243.5,252.0,244.0,244.0,244.5,235.5,245.0,227.0,246.0,219.0,246.5" stroke="black" stroke-width="2" fill="none" />
<polyline points="218.0,237.0,226.0,237.0,234.0,236.5,242.0,236.0,250.0,236.0,258.5,235.5,266.5,235.5,274.5,235.0,283.0,234.5,291.5,233.5" stroke="black" stroke-width="2" fill="none" />
<polyline points="259.0,182.0,251.0,182.0,243.0,182.0,235.5,182.5,227.0,183.0" stroke="black" stroke-width="2" fill="none" />
<polyline points="227.5,187.0,235.0,179.0,242.5,171.0,251.0,163.5,258.5,155.5" stroke="black" stroke-width="2" fill="none" />
<polyline points="256.5,157.5,258.5,169.0,254.0,182.5,254.5,194.5" stroke="black" stroke-width="2" fill="none" />
<polyline points="260.0,176.0,252.0,176.5,244.0,177.0,236.0,177.0,228.0,177.5" stroke="black" stroke-width="2" fill="none" />
<polyline points="227.0,180.0,235.5,173.0" stroke="black" stroke-width="2" fill="none" />
<polyline points="238.0,169.0,230.5,169.5" stroke="black" stroke-width="2" fill="none" />
<polyline points="227.0,170.5,235.0,163.0" stroke="black" stroke-width="2" fill="none" />
<polyline points="237.0,165.0,229.5,165.5" stroke="black" stroke-width="2" fill="none" />
<polyline points="228.5,160.5,236.5,152.5" stroke="black" stroke-width="2" fill="none" />
<polyline points="236.5,148.0,228.5,155.0" stroke="black" stroke-width="2" fill="none" />
<polyline points="229.5,155.5,237.5,154.5" stroke="black" stroke-width="2" fill="none" />
<polyline points="242.0,159.5,250.0,159.0,258.5,159.0,266.0,158.5,273.5,158.0,281.5,158.0" stroke="black" stroke-width="2" fill="none" />
<polyline points="283.5,161.0,275.5,162.0,267.5,163.0,260.0,163.5" stroke="black" stroke-width="2" fill="none" />
<polyline points="267.5,166.5,259.5,167.0,252.0,167.5,244.0,167.5" stroke="black" stroke-width="2" fill="none" />
<polyline points="243.0,166.0,251.0,165.5,259.5,164.5,267.5,163.5" stroke="black" stroke-width="2" fill="none" />
<polyline points="268.0,167.0,266.5,165.5,268.0,178.0,269.5,190.0,274.0,202.0,278.5,214.0" stroke="black" stroke-width="2" fill="none" />
<polyline points="290.5,218.5,283.0,219.0,274.5,219.0,266.5,219.0,258.0,218.5,250.0,219.0,242.5,219.5,234.5,219.5,227.5,220.5,220.0,221.0" stroke="black" stroke-width="2" fill="none" />
<polyline points="219.5,204.0,227.5,204.0,235.5,204.0,243.5,203.5,252.0,203.5,260.5,203.5,268.5,203.0,277.0,202.5,285.0,202.0,293.0,201.5" stroke="black" stroke-width="2" fill="none" />
<polyline points="291.5,194.0,283.5,194.5,275.5,195.5,267.5,195.5,259.5,196.0,251.5,196.0,243.0,197.0,235.0,197.0,226.5,197.5,218.5,198.0" stroke="black" stroke-width="2" fill="none" />
<polyline points="218.0,191.5,226.5,190.5,234.5,190.0,243.0,189.0,250.5,188.0,258.5,187.0" stroke="black" stroke-width="2" fill="none" />
<polyline points="258.5,181.0,251.0,181.5,243.0,181.5,235.5,182.0,228.5,182.5,220.5,183.0" stroke="black" stroke-width="2" fill="none" />
<polyline points="221.0,174.5,229.5,174.0,237.0,174.0,244.5,173.5,252.5,172.5,260.5,172.0" stroke="black" stroke-width="2" fill="none" />
<polyline points="254.5,173.0,266.0,179.0" stroke="black" stroke-width="2" fill="none" />
<polyline points="250.5,154.0,242.0,161.5" stroke="black" stroke-width="2" fill="none" />
<polyline points="239.0,165.5,250.5,153.5,262.5,149.5,274.5,148.0,286.0,157.5,283.0,163.5,284.5,175.5,286.0,186.5,287.0,198.5,288.5,210.5,288.5,222.5,290.0,234.5,288.5,247.0,282.5,259.0,279.5,271.0" stroke="black" stroke-width="2" fill="none" />
<polyline points="236.5,159.5,228.5,160.0" stroke="black" stroke-width="2" fill="none" />
<polyline points="228.0,156.5,236.0,156.5" stroke="black" stroke-width="2" fill="none" />
<polyline points="236.0,151.0,228.0,151.5" stroke="black" stroke-width="2" fill="none" />
<polyline points="227.5,149.0,235.5,141.5" stroke="black" stroke-width="2" fill="none" />
<polyline points="234.0,147.0,226.0,147.5" stroke="black" stroke-width="2" fill="none" />
<polyline points="226.0,141.0,238.0,111.0,250.0,93.0,261.5,80.0,273.5,71.0,285.5,65.0,297.5,58.5,309.0,55.0,321.0,52.0,333.5,50.0,345.5,50.0,357.5,51.5,369.5,55.0,381.5,59.5,394.0,65.5,406.0,73.5,417.5,84.5,429.5,98.5,441.0,120.0" stroke="black" stroke-width="2" fill="none" />
<polyline points="388.0,56.5,380.0,57.5,372.0,57.5,364.0,58.5,355.5,59.0,347.0,59.5,339.0,60.0,330.5,60.5,322.0,61.0,314.5,62.0,306.5,62.5,298.5,62.5" stroke="black" stroke-width="2" fill="none" />
<polyline points="298.5,67.5,307.0,66.5" stroke="black" stroke-width="2" fill="none" />
<polyline points="307.5,58.0,299.5,65.5,291.5,73.5,283.5,81.0,275.0,88.0" stroke="black" stroke-width="2" fill="none" />
<polyline points="276.0,87.5,268.0,87.5" stroke="black" stroke-width="2" fill="none" />
<polyline points="267.5,83.5,275.5,75.5" stroke="black" stroke-width="2" fill="none" />
<polyline points="275.0,82.0,261.5,94.5,249.5,117.0,237.5,131.0,233.5,143.0,232.0,155.5,234.0,167.5,231.0,185.5,237.0,182.5" stroke="black" stroke-width="2" fill="none" />
<polyline points="233.5,141.0,225.0,141.0" stroke="black" stroke-width="2" fill="none" />
<polyline points="235.0,131.0,243.0,124.0" stroke="black" stroke-width="2" fill="none" />
<polyline points="245.5,131.0,237.5,131.5" stroke="black" stroke-width="2" fill="none" />
<polyline points="242.5,134.0,238.5,146.0,241.5,161.0,240.0,132.5,250.5,116.5,256.5,94.0,270.0,94.0" stroke="black" stroke-width="2" fill="none" />
<polyline points="267.0,96.5,259.5,97.0" stroke="black" stroke-width="2" fill="none" />
<polyline points="258.5,92.0,251.0,99.5,243.0,107.0" stroke="black" stroke-width="2" fill="none" />
<polyline points="242.0,107.0,250.5,106.5,259.0,106.0" stroke="black" stroke-width="2" fill="none" />
<polyline points="251.5,113.5,244.0,113.5" stroke="black" stroke-width="2" fill="none" />
<polyline points="243.5,110.5,251.5,110.0,259.0,109.5,267.0,109.5" stroke="black" stroke-width="2" fill="none" />
<polyline points="259.5,116.0,252.0,116.5,244.0,118.0,236.0,119.0" stroke="black" stroke-width="2" fill="none" />
<polyline points="234.0,120.0,242.5,119.5" stroke="black" stroke-width="2" fill="none" />
<polyline points="235.5,122.5,244.0,115.5,252.5,107.5,261.0,100.5,269.5,93.0,277.0,85.5,285.0,78.0" stroke="black" stroke-width="2" fill="none" />
<polyline points="289.5,75.0,298.0,74.0,307.0,73.5,315.5,73.0,323.5,72.0,332.0,72.0,340.0,71.5,348.5,72.0,356.0,71.5,363.5,71.0,371.5,70.0,379.5,69.5" stroke="black" stroke-width="2" fill="none" />
<polyline points="364.5,68.5,391.5,80.5,406.5,92.5,419.0,104.5,428.0,116.5,437.0,128.5,440.0,141.0,443.0,153.0,443.0,165.0,443.0,177.0,444.5,193.5,441.5,205.0,435.5,217.0,428.0,229.0,419.0,241.0,413.0,252.5,417.0,247.0,427.5,229.0,439.0,207.0" stroke="black" stroke-width="2" fill="none" />
<polyline points="339.0,84.0,347.5,77.5,355.5,70.0" stroke="black" stroke-width="2" fill="none" />
<polyline points="348.0,68.0,339.5,75.0,331.0,82.0" stroke="black" stroke-width="2" fill="none" />
<polyline points="314.5,89.0,322.5,81.5,330.5,74.5,338.5,67.0,346.5,60.0,354.5,52.5" stroke="black" stroke-width="2" fill="none" />
<polyline points="347.0,49.5,339.0,57.5,330.5,65.5,322.5,73.5,314.5,81.5,306.5,89.0" stroke="black" stroke-width="2" fill="none" />
<polyline points="299.0,89.5,306.5,81.0,314.5,73.0,323.0,65.0,331.0,57.5,339.0,49.5" stroke="black" stroke-width="2" fill="none" />
<polyline points="332.0,57.0,340.0,56.0,348.0,56.0" stroke="black" stroke-width="2" fill="none" />
<polyline points="356.0,51.0,347.5,52.0,338.5,53.0,330.0,53.5,322.5,54.0" stroke="black" stroke-width="2" fill="none" />
<polyline points="322.0,58.5,314.5,66.0,307.0,73.5,299.0,81.0,290.5,89.0" stroke="black" stroke-width="2" fill="none" />
<polyline points="283.5,90.5,291.5,89.5,299.5,89.5,307.5,89.0,315.5,88.0" stroke="black" stroke-width="2" fill="none" />
<polyline points="324.0,63.0,332.5,63.0" stroke="black" stroke-width="2" fill="none" />
<polyline points="328.5,62.0,340.5,59.0,352.5,62.0,364.5,65.5,376.5,64.0,383.5,72.5,396.0,78.5,403.5,84.5,417.5,97.5" stroke="black" stroke-width="2" fill="none" />
<polyline points="403.0,62.5,395.0,63.0,387.0,63.0,379.5,63.0,371.5,63.5,363.5,64.0,355.0,64.5,347.0,65.0,338.5,66.0,330.0,67.0,322.0,67.5,314.5,68.0,306.5,68.0,298.5,68.5,291.0,69.0,283.5,69.5" stroke="black" stroke-width="2" fill="none" />
<polyline points="278.5,84.5,267.5,96.0,261.0,94.5,273.0,84.0" stroke="black" stroke-width="2" fill="none" />
<polyline points="268.0,80.5,275.5,81.0,283.0,80.5,290.5,80.5,297.5,80.0,305.5,79.0,313.5,78.5,322.5,78.0,330.5,77.0,339.0,76.0,347.0,75.5,355.0,75.0,363.0,74.5,371.0,74.0,379.0,73.5,387.0,72.5,395.0,72.5" stroke="black" stroke-width="2" fill="none" />
<polyline points="410.0,69.5,402.5,69.5,396.0,70.0,388.5,70.5,381.0,70.5,373.5,70.5,365.5,71.0,357.5,72.0,349.0,72.0,341.0,72.5,333.0,73.0,324.5,73.5,316.0,75.0,308.0,76.0,299.5,77.0,291.5,77.0,283.0,77.5,274.5,78.0,266.0,78.5" stroke="black" stroke-width="2" fill="none" />
<polyline points="259.0,84.5,267.0,84.0,275.5,84.0,283.5,84.0,291.5,83.5,299.5,83.5,307.5,83.5,315.0,83.5,323.0,83.5,331.5,83.0,340.0,83.0,347.5,82.0,355.5,81.0,363.0,80.0,370.5,79.5,378.0,78.5,385.5,78.0,393.0,76.5,401.0,76.0,409.5,75.5,417.5,75.5" stroke="black" stroke-width="2" fill="none" />
<polyline points="421.5,100.0,411.0,86.5,394.5,75.0,378.0,66.0,362.5,62.0" stroke="black" stroke-width="2" fill="none" />
<polyline points="315.0,60.0,307.0,67.5,299.0,75.0,291.0,82.0,283.5,89.5,275.5,97.0" stroke="black" stroke-width="2" fill="none" />
<polyline points="276.0,100.5,268.5,101.5,260.5,101.5,252.5,101.5,245.0,102.0" stroke="black" stroke-width="2" fill="none" />
<polyline points="250.0,91.5,258.0,91.0,265.5,90.0,274.0,89.5,283.0,90.0,291.5,89.5" stroke="black" stroke-width="2" fill="none" />
<polyline points="269.0,99.5,281.0,92.0,293.0,89.0,305.0,86.5,317.0,85.0,328.5,84.0,340.5,84.5,352.5,86.0,364.5,89.5,376.5,96.0,388.0,101.5,400.5,112.5,413.0,124.5,425.0,139.5,437.0,141.0,437.5,151.5,437.5,172.0" stroke="black" stroke-width="2" fill="none" />
<polyline points="306.0,57.0,278.5,69.0,261.5,81.0,251.0,93.0,241.5,105.0,235.5,117.5,229.5,129.0,226.5,141.5,223.0,153.5,220.0,165.0,219.0,177.0,217.0,189.0,215.5,201.5,214.0,213.0,214.0,225.0,215.5,236.5,215.5,248.5,218.5,260.5,227.5,272.5,244.0,278.0,256.0,276.5,263.5,278.0,275.5,273.5" stroke="black" stroke-width="2" fill="none" />
<polyline points="251.5,124.0,243.5,124.5,235.5,125.0" stroke="black" stroke-width="2" fill="none" />
<polyline points="2.5,5.0,14.5,4.5,26.0,4.5,38.0,4.5,50.0,4.0,62.0,4.0,73.5,3.5,85.5,3.5,97.5,3.0,109.5,2.5,121.5,2.5,133.5,3.0,145.5,3.0,158.0,3.5,170.0,3.5,182.5,3.5,194.0,3.5,206.0,3.5,217.5,3.0,229.5,3.0,242.0,3.0,254.0,3.0,266.0,3.0,278.0,3.5,290.0,4.0,302.0,4.0,314.0,4.5,326.0,4.0,338.0,4.0,350.0,4.0,362.0,3.5,374.0,3.5,386.0,4.0,398.0,4.0,409.5,3.5,421.5,3.0,433.5,3.0,445.5,3.5,457.5,3.5,469.5,3.0,481.5,3.0,493.5,3.0,506.0,3.0,512.0,10.5,512.5,22.5,512.5,34.5,512.5,46.5,512.5,58.5,512.5,71.0,512.5,83.0,512.5,95.0,512.5,107.0,512.0,119.0,512.0,131.0,512.0,143.0,512.0,155.0,511.5,166.5,511.5,178.5,511.5,190.5,511.5,202.5,511.5,214.5,511.5,226.0,511.5,238.0,511.5,250.0,511.5,262.0,511.0,274.0,511.0,286.0,511.5,298.5,511.5,310.5,511.5,322.5,511.5,334.5" stroke="black" stroke-width="2" fill="none" />
</svg>