<svg xmlns="http://www.w3.org/2000/svg" version="1.1"><polyline points="180.5,2.5,176.0,14.5,178.5,26.5" stroke="black" stroke-width="2" fill="none" />
<polyline points="180.0,19.5,192.0,31.5,204.0,29.5" stroke="black" stroke-width="2" fill="none" />
<polyline points="210.0,28.0,218.0,27.5,226.0,27.0,234.5,26.5,243.0,26.5,251.0,26.5,259.5,26.5,267.5,26.0,275.5,26.0,284.0,25.5,292.0,24.5,300.0,24.5,308.0,24.5,316.0,24.0,324.0,24.0,331.5,23.5,339.5,23.0,346.5,22.5,354.5,22.0,362.5,21.5,370.5,21.0,378.5,20.5" stroke="black" stroke-width="2" fill="none" />
<polyline points="378.5,26.0,365.0,38.0,364.0,50.5,369.0,63.0" stroke="black" stroke-width="2" fill="none" />
<polyline points="372.0,52.0,363.5,52.5,355.0,53.5,346.5,54.5,338.5,55.0" stroke="black" stroke-width="2" fill="none" />
<polyline points="337.5,46.0,346.0,45.5,354.5,45.0,363.0,45.0" stroke="black" stroke-width="2" fill="none" />
<polyline points="365.5,38.5,377.5,26.5,389.5,26.5,401.5,34.0" stroke="black" stroke-width="2" fill="none" />
<polyline points="405.0,36.5,413.0,36.0" stroke="black" stroke-width="2" fill="none" />
<polyline points="413.5,44.0,421.0,43.5" stroke="black" stroke-width="2" fill="none" />
<polyline points="422.0,52.0,414.0,52.0" stroke="black" stroke-width="2" fill="none" />
<polyline points="404.5,64.0,412.5,63.5,420.5,62.5,428.5,61.5" stroke="black" stroke-width="2" fill="none" />
<polyline points="444.5,75.0,437.0,75.5,429.0,76.0,421.0,76.0,413.5,76.0,405.5,76.5" stroke="black" stroke-width="2" fill="none" />
<polyline points="412.5,85.0,420.5,84.0,428.5,83.5,437.0,83.0,445.5,83.0,454.0,82.5,461.5,82.5,469.5,82.0,477.0,81.5,484.5,81.0,492.5,80.0,500.0,80.0,508.0,80.0,516.0,80.0" stroke="black" stroke-width="2" fill="none" />
<polyline points="515.0,74.5,507.5,82.5" stroke="black" stroke-width="2" fill="none" />
<polyline points="506.5,75.0,514.5,67.0" stroke="black" stroke-width="2" fill="none" />
<polyline points="515.5,68.0,507.5,68.5,499.5,68.5" stroke="black" stroke-width="2" fill="none" />
<polyline points="506.5,67.0,514.5,59.5" stroke="black" stroke-width="2" fill="none" />
<polyline points="514.5,52.5,506.5,60.0" stroke="black" stroke-width="2" fill="none" />
<polyline points="499.0,61.0,507.0,61.0,515.5,61.0" stroke="black" stroke-width="2" fill="none" />
<polyline points="511.0,66.5,512.5,78.5,512.5,90.0,512.5,102.0" stroke="black" stroke-width="2" fill="none" />
<polyline points="514.5,100.5,506.5,108.0,499.0,115.0" stroke="black" stroke-width="2" fill="none" />
<polyline points="513.5,116.0,505.5,123.5,498.5,131.0" stroke="black" stroke-width="2" fill="none" />
<polyline points="499.5,138.5,506.5,130.5,515.0,123.0" stroke="black" stroke-width="2" fill="none" />
<polyline points="516.0,130.5,508.5,137.5,500.0,145.0,492.0,152.5" stroke="black" stroke-width="2" fill="none" />
<polyline points="499.5,153.0,507.5,145.5,515.5,138.0" stroke="black" stroke-width="2" fill="none" />
<polyline points="517.5,138.5,509.0,138.5,500.5,139.0,492.5,139.5,484.0,140.0,476.0,140.5,467.5,141.0,459.5,141.5,451.5,142.5" stroke="black" stroke-width="2" fill="none" />
<polyline points="452.5,135.5,460.5,135.5,469.0,134.5,477.5,134.0,486.0,132.5,494.5,131.5,502.0,130.5,509.5,130.0,517.5,129.0" stroke="black" stroke-width="2" fill="none" />
<polyline points="516.5,128.0,508.5,128.5" stroke="black" stroke-width="2" fill="none" />
<polyline points="511.0,137.0,510.5,149.0,510.5,161.0,500.5,173.0,504.0,179.5,510.5,191.5,512.0,203.5,512.0,215.5,512.0,227.5,512.0,239.5,512.0,251.5,512.0,263.5,512.5,275.5,509.5,277.5,512.5,285.0,510.5,297.0,509.5,306.0,513.0,314.5,507.0,326.5,493.5,338.5,505.5,327.5" stroke="black" stroke-width="2" fill="none" />
<polyline points="504.5,330.5,512.5,330.5" stroke="black" stroke-width="2" fill="none" />
<polyline points="517.5,332.5,510.0,340.0" stroke="black" stroke-width="2" fill="none" />
<polyline points="508.5,337.5,515.5,337.0" stroke="black" stroke-width="2" fill="none" />
<polyline points="517.5,323.5,509.0,331.5,500.5,338.5" stroke="black" stroke-width="2" fill="none" />
<polyline points="492.5,333.5,500.5,333.0,508.5,333.0,516.0,332.5" stroke="black" stroke-width="2" fill="none" />
<polyline points="506.5,323.0,514.5,315.0" stroke="black" stroke-width="2" fill="none" />
<polyline points="515.5,301.5,507.5,302.0" stroke="black" stroke-width="2" fill="none" />
<polyline points="501.0,309.0,508.5,309.0,516.0,308.5" stroke="black" stroke-width="2" fill="none" />
<polyline points="516.5,316.5,508.0,316.5,500.0,317.0" stroke="black" stroke-width="2" fill="none" />
<polyline points="492.0,328.0,500.0,327.0,508.0,326.0,515.5,325.0" stroke="black" stroke-width="2" fill="none" />
<polyline points="482.5,307.0,475.0,306.5,468.0,306.5,460.5,307.0,453.5,307.5,446.0,307.5,438.5,307.5" stroke="black" stroke-width="2" fill="none" />
<polyline points="437.5,306.0,445.5,305.5,453.5,304.5,461.5,304.0" stroke="black" stroke-width="2" fill="none" />
<polyline points="466.0,299.5,458.5,306.5,450.5,314.0" stroke="black" stroke-width="2" fill="none" />
<polyline points="451.5,317.5,459.5,316.5,467.5,316.0" stroke="black" stroke-width="2" fill="none" />
<polyline points="474.0,316.0,460.5,328.0,465.0,337.0,469.5,340.0,481.0,339.5" stroke="black" stroke-width="2" fill="none" />
<polyline points="450.0,306.0,458.0,298.5,466.0,291.0" stroke="black" stroke-width="2" fill="none" />
<polyline points="467.0,283.0,459.0,290.0,450.5,297.5,442.5,304.5" stroke="black" stroke-width="2" fill="none" />
<polyline points="436.5,300.5,444.5,299.5,452.5,298.5,460.5,298.0,469.0,297.5" stroke="black" stroke-width="2" fill="none" />
<polyline points="459.5,282.0,451.0,289.5,443.0,297.0,434.5,304.0" stroke="black" stroke-width="2" fill="none" />
<polyline points="432.5,298.0,444.5,304.0" stroke="black" stroke-width="2" fill="none" />
<polyline points="436.0,296.0,443.5,288.5,451.5,280.5" stroke="black" stroke-width="2" fill="none" />
<polyline points="451.0,276.0,463.0,276.0" stroke="black" stroke-width="2" fill="none" />
<polyline points="453.0,273.5,445.0,281.0,437.0,289.0" stroke="black" stroke-width="2" fill="none" />
<polyline points="436.5,290.0,444.0,289.5,452.0,289.0,459.5,288.5" stroke="black" stroke-width="2" fill="none" />
<polyline points="443.0,274.0,435.0,281.5" stroke="black" stroke-width="2" fill="none" />
<polyline points="437.0,276.0,449.0,273.0,461.0,292.5,464.0,303.0,454.5,311.5,462.0,304.0" stroke="black" stroke-width="2" fill="none" />
<polyline points="476.0,297.5,468.0,298.0,460.5,299.0,452.5,300.0,444.5,301.5,436.5,302.0,428.0,302.5" stroke="black" stroke-width="2" fill="none" />
<polyline points="428.5,293.5,436.5,293.5,444.5,293.0,452.5,292.0,460.0,292.0,468.0,291.0,476.0,290.0" stroke="black" stroke-width="2" fill="none" />
<polyline points="507.5,263.0,515.5,262.5" stroke="black" stroke-width="2" fill="none" />
<polyline points="516.5,253.5,508.5,253.5" stroke="black" stroke-width="2" fill="none" />
<polyline points="467.0,283.0,459.0,284.0,451.0,284.5,443.0,285.0,435.0,286.0,427.0,286.5" stroke="black" stroke-width="2" fill="none" />
<polyline points="426.5,278.0,434.5,277.5,443.0,278.0,450.5,277.5,458.0,276.5,466.0,276.0" stroke="black" stroke-width="2" fill="none" />
<polyline points="443.0,269.0,435.0,269.0,427.0,269.5" stroke="black" stroke-width="2" fill="none" />
<polyline points="422.0,276.5,423.5,279.5,416.5,285.5,416.5,297.5,421.0,293.0" stroke="black" stroke-width="2" fill="none" />
<polyline points="417.0,281.5,429.0,301.0,439.0,313.5" stroke="black" stroke-width="2" fill="none" />
<polyline points="412.0,323.5,404.0,331.0,395.5,338.5" stroke="black" stroke-width="2" fill="none" />
<polyline points="403.0,337.0,411.0,330.0" stroke="black" stroke-width="2" fill="none" />
<polyline points="405.5,322.5,397.0,330.0,388.5,338.5" stroke="black" stroke-width="2" fill="none" />
<polyline points="380.0,338.0,387.5,330.5,395.5,323.0" stroke="black" stroke-width="2" fill="none" />
<polyline points="385.0,321.5,377.0,329.5,369.5,337.0" stroke="black" stroke-width="2" fill="none" />
<polyline points="363.0,337.0,371.0,329.0,378.5,321.5,386.0,314.0" stroke="black" stroke-width="2" fill="none" />
<polyline points="380.5,317.0,372.5,324.5,364.0,331.5,355.5,338.5" stroke="black" stroke-width="2" fill="none" />
<polyline points="347.5,338.0,355.5,330.5,364.0,322.5,372.5,315.0" stroke="black" stroke-width="2" fill="none" />
<polyline points="377.0,311.0,397.0,327.5" stroke="black" stroke-width="2" fill="none" />
<polyline points="373.0,309.0,364.5,316.5,356.0,323.5,348.0,330.5,340.0,338.0" stroke="black" stroke-width="2" fill="none" />
<polyline points="332.0,338.5,339.5,331.0,347.0,323.5,355.0,316.0,363.0,308.5" stroke="black" stroke-width="2" fill="none" />
<polyline points="357.5,308.0,349.5,315.0,341.5,322.0,333.0,329.5,324.5,337.0" stroke="black" stroke-width="2" fill="none" />
<polyline points="316.0,337.5,324.0,330.0,333.0,322.0,341.0,314.5,349.0,306.5,357.0,299.5" stroke="black" stroke-width="2" fill="none" />
<polyline points="357.0,292.0,349.0,299.0,341.0,306.5,332.5,313.5,323.5,321.0,315.5,328.0,307.0,335.5" stroke="black" stroke-width="2" fill="none" />
<polyline points="301.0,338.0,308.5,337.0,316.0,336.5,324.0,336.0,332.5,335.5,341.0,334.5,349.0,334.0,357.0,332.5,365.5,332.0,373.5,331.5,382.0,331.0,390.0,331.0,397.0,330.5,405.0,331.0,413.0,330.5" stroke="black" stroke-width="2" fill="none" />
<polyline points="403.5,321.5,395.5,322.0,387.5,322.0,379.5,322.0,371.0,322.0,363.5,323.0,356.0,323.5,348.0,325.0,339.5,326.5,331.0,327.5,323.0,328.5,315.0,329.5,307.0,330.0,298.5,330.5,291.0,330.5" stroke="black" stroke-width="2" fill="none" />
<polyline points="291.5,335.0,299.0,327.0,307.0,319.5,314.5,312.0,322.5,304.0,331.0,296.5,339.0,289.0,347.5,282.0,356.5,274.5,364.5,266.5" stroke="black" stroke-width="2" fill="none" />
<polyline points="355.0,267.5,347.0,274.5,339.0,282.0,331.0,290.0,323.0,297.5,314.5,305.5,306.5,313.0,298.5,320.5,290.5,328.5,282.0,336.5" stroke="black" stroke-width="2" fill="none" />
<polyline points="274.5,334.5,282.5,327.5,290.5,320.0,299.0,312.0,308.0,304.5,316.0,297.0,324.0,290.0,331.5,282.5,339.5,274.5,347.5,267.5" stroke="black" stroke-width="2" fill="none" />
<polyline points="346.5,259.0,339.0,267.0,331.0,275.0,323.0,282.5,315.0,290.0,307.0,297.5,298.5,304.5,290.0,311.5,282.0,319.0,274.0,326.5,266.0,334.0" stroke="black" stroke-width="2" fill="none" />
<polyline points="259.0,333.0,267.0,326.0,275.0,318.0,283.0,310.5,291.0,303.5,299.0,296.0,307.5,289.0,315.5,281.5,323.5,273.5,331.0,266.0,339.0,259.0,347.0,251.5" stroke="black" stroke-width="2" fill="none" />
<polyline points="340.0,253.0,331.5,260.0,323.5,267.5,316.0,275.5,308.5,283.0,301.0,290.0,293.0,296.5,285.0,304.0,277.0,310.5,269.5,317.0,261.0,324.5,253.0,332.0" stroke="black" stroke-width="2" fill="none" />
<polyline points="259.0,336.5,267.5,336.0" stroke="black" stroke-width="2" fill="none" />
<polyline points="273.5,336.5,282.0,336.5" stroke="black" stroke-width="2" fill="none" />
<polyline points="291.0,323.0,299.0,322.5,307.0,321.5,315.5,320.5,323.5,320.0,332.0,319.0,340.0,318.5,348.0,318.0,356.5,317.5,365.0,317.0,373.0,316.5,381.0,316.0" stroke="black" stroke-width="2" fill="none" />
<polyline points="371.5,294.5,364.0,294.5,357.0,295.0,349.5,295.0,341.0,295.5,333.0,296.0,324.5,296.5,316.0,297.0,308.0,298.0,299.5,299.0,291.0,300.0,282.5,301.0,274.0,301.5,266.0,301.5" stroke="black" stroke-width="2" fill="none" />
<polyline points="265.5,294.0,273.5,293.0,281.5,292.5,289.5,292.5,298.0,292.5,306.5,292.0,314.5,291.5,323.0,290.5,331.0,290.0,339.0,290.0,347.0,289.5,355.0,288.5,363.5,287.5" stroke="black" stroke-width="2" fill="none" />
<polyline points="358.0,289.5,362.5,282.0,358.0,293.5,358.0,312.0,364.0,306.0,373.0,306.0,385.0,308.0,396.5,314.0,409.0,324.5,416.5,336.5,428.5,339.5,440.5,339.5,452.0,339.5,464.0,320.0,476.0,315.5,488.0,318.5,488.0,326.0,488.0,337.5" stroke="black" stroke-width="2" fill="none" />
<polyline points="357.0,284.0,348.5,291.5,340.5,299.5,332.0,307.0,324.0,314.0,315.5,321.5,307.5,329.0,299.5,336.5" stroke="black" stroke-width="2" fill="none" />
<polyline points="291.5,313.5,299.5,313.0,308.0,313.0,316.0,312.5,324.5,312.0,333.0,312.0,341.0,311.0" stroke="black" stroke-width="2" fill="none" />
<polyline points="323.5,288.5,315.0,289.5,307.0,290.5" stroke="black" stroke-width="2" fill="none" />
<polyline points="306.5,284.0,315.0,283.5,323.0,282.5" stroke="black" stroke-width="2" fill="none" />
<polyline points="323.0,274.5,314.5,274.5,307.0,275.0" stroke="black" stroke-width="2" fill="none" />
<polyline points="307.5,267.5,315.5,266.5,323.5,266.0,331.5,265.5" stroke="black" stroke-width="2" fill="none" />
<polyline points="338.5,246.5,330.5,254.0,322.5,261.0,314.5,268.0,306.5,274.5,298.5,281.5,290.5,288.5,282.5,295.0,274.5,302.0,266.5,309.5,259.0,317.0,251.0,324.5,243.5,332.0" stroke="black" stroke-width="2" fill="none" />
<polyline points="243.5,322.5,235.5,330.0,227.5,338.0" stroke="black" stroke-width="2" fill="none" />
<polyline points="234.5,338.0,242.5,330.0,251.0,322.5" stroke="black" stroke-width="2" fill="none" />
<polyline points="259.5,309.0,267.5,308.5,275.5,308.0,283.0,307.5,290.5,307.5,298.5,307.5,306.5,307.0,314.5,306.5,323.0,306.0,331.5,305.5,339.5,304.5,347.5,304.0,355.5,303.0,363.5,302.5,371.0,302.0,379.0,301.5,387.5,301.0" stroke="black" stroke-width="2" fill="none" />
<polyline points="331.5,303.0,323.5,303.0,316.0,304.0,308.0,305.0,299.5,306.0,291.5,307.0" stroke="black" stroke-width="2" fill="none" />
<polyline points="291.5,297.5,300.0,297.0,308.0,296.5,316.5,296.0,324.5,296.0,332.0,295.5" stroke="black" stroke-width="2" fill="none" />
<polyline points="298.5,264.5,306.5,257.0,315.0,250.0,323.0,242.5" stroke="black" stroke-width="2" fill="none" />
<polyline points="323.0,234.0,315.0,241.5,307.0,249.5,299.5,257.0,291.5,264.5" stroke="black" stroke-width="2" fill="none" />
<polyline points="285.5,275.0,277.5,282.5" stroke="black" stroke-width="2" fill="none" />
<polyline points="282.0,274.5,283.5,267.0" stroke="black" stroke-width="2" fill="none" />
<polyline points="275.5,271.0,283.0,263.5,290.5,255.5,298.5,248.0,306.5,240.5,314.5,233.0" stroke="black" stroke-width="2" fill="none" />
<polyline points="313.5,227.0,306.0,234.0,298.0,241.5,290.0,249.0,282.0,256.5,274.5,264.5" stroke="black" stroke-width="2" fill="none" />
<polyline points="274.5,258.0,282.5,250.0,291.0,242.5,299.0,235.0,307.0,228.0" stroke="black" stroke-width="2" fill="none" />
<polyline points="299.5,230.0,291.5,237.5,283.5,244.5,276.0,251.5,268.5,258.5" stroke="black" stroke-width="2" fill="none" />
<polyline points="266.0,251.5,274.0,244.0,282.0,236.5,290.0,230.0,298.0,222.5" stroke="black" stroke-width="2" fill="none" />
<polyline points="291.5,221.5,284.0,229.0,276.0,236.0,268.0,243.5" stroke="black" stroke-width="2" fill="none" />
<polyline points="261.0,242.0,269.5,234.5,277.5,227.5,285.5,220.0,293.0,213.0" stroke="black" stroke-width="2" fill="none" />
<polyline points="284.5,210.0,277.0,217.0,269.5,225.0,262.0,232.5,254.0,240.0" stroke="black" stroke-width="2" fill="none" />
<polyline points="259.0,226.5,267.0,218.5,274.5,211.0,282.5,203.0" stroke="black" stroke-width="2" fill="none" />
<polyline points="283.0,196.5,275.0,204.5,267.5,212.0,259.0,219.5" stroke="black" stroke-width="2" fill="none" />
<polyline points="252.0,204.5,259.5,204.5,267.5,204.0,275.0,203.5,283.0,202.5,291.0,202.0,299.5,201.5,308.0,201.0" stroke="black" stroke-width="2" fill="none" />
<polyline points="274.5,195.0,266.5,203.0" stroke="black" stroke-width="2" fill="none" />
<polyline points="259.5,188.5,267.5,188.5,275.5,188.0,283.5,188.0,291.5,187.0" stroke="black" stroke-width="2" fill="none" />
<polyline points="292.0,181.5,284.5,182.0,276.5,182.5,269.0,183.0" stroke="black" stroke-width="2" fill="none" />
<polyline points="270.5,174.0,278.5,173.5,285.5,173.5,293.0,173.0,301.0,172.5" stroke="black" stroke-width="2" fill="none" />
<polyline points="293.0,143.5,300.5,142.5,308.5,142.0,316.5,141.5,324.0,141.0,332.0,140.5,339.5,140.0,347.0,139.0,354.5,138.5,361.5,138.0,368.5,137.5" stroke="black" stroke-width="2" fill="none" />
<polyline points="371.0,142.0,383.0,155.5,388.0,160.0" stroke="black" stroke-width="2" fill="none" />
<polyline points="387.0,158.5,395.0,158.0,403.5,157.5" stroke="black" stroke-width="2" fill="none" />
<polyline points="405.0,165.0,397.0,165.5" stroke="black" stroke-width="2" fill="none" />
<polyline points="395.0,171.0,403.5,171.0" stroke="black" stroke-width="2" fill="none" />
<polyline points="426.0,158.5,434.0,158.0,442.5,157.5,450.5,156.5,458.0,155.5,466.0,155.0,474.5,154.5,483.0,153.5,491.0,153.0,498.5,152.5,506.0,152.0,514.5,152.0" stroke="black" stroke-width="2" fill="none" />
<polyline points="516.5,155.5,509.0,163.0,501.0,170.5" stroke="black" stroke-width="2" fill="none" />
<polyline points="499.5,173.0,507.0,172.5,515.0,172.5" stroke="black" stroke-width="2" fill="none" />
<polyline points="501.0,161.5,508.5,154.0,517.0,146.5" stroke="black" stroke-width="2" fill="none" />
<polyline points="506.5,161.0,498.0,161.0" stroke="black" stroke-width="2" fill="none" />
<polyline points="491.5,166.5,500.0,166.0,508.5,165.0,516.5,164.0" stroke="black" stroke-width="2" fill="none" />
<polyline points="515.5,146.0,508.0,146.0,500.5,146.0,492.5,146.5,485.0,146.5,477.5,147.0,469.5,147.5,461.0,148.5,452.5,149.5,444.0,150.5" stroke="black" stroke-width="2" fill="none" />
<polyline points="435.5,165.0,443.5,164.5,451.0,164.0,459.0,163.5,467.0,162.5" stroke="black" stroke-width="2" fill="none" />
<polyline points="461.0,171.0,453.0,171.5,444.5,172.0" stroke="black" stroke-width="2" fill="none" />
<polyline points="439.0,178.5,432.5,167.0,431.5,165.0" stroke="black" stroke-width="2" fill="none" />
<polyline points="434.0,150.0,426.5,150.5" stroke="black" stroke-width="2" fill="none" />
<polyline points="446.0,126.0,454.0,125.5,461.5,125.0,469.0,125.0,477.0,124.0,485.0,123.5,493.0,123.5,501.0,123.5,509.0,123.5,517.0,123.5" stroke="black" stroke-width="2" fill="none" />
<polyline points="515.5,107.5,507.0,115.5,499.0,123.5" stroke="black" stroke-width="2" fill="none" />
<polyline points="499.5,107.0,507.5,99.0" stroke="black" stroke-width="2" fill="none" />
<polyline points="515.0,74.5,507.5,75.0,500.0,75.0,492.5,75.5" stroke="black" stroke-width="2" fill="none" />
<polyline points="499.5,53.0,507.5,52.5,516.0,52.0" stroke="black" stroke-width="2" fill="none" />
<polyline points="515.5,43.5,507.5,51.0" stroke="black" stroke-width="2" fill="none" />
<polyline points="506.0,44.0,514.0,37.0" stroke="black" stroke-width="2" fill="none" />
<polyline points="507.5,34.5,515.5,27.0" stroke="black" stroke-width="2" fill="none" />
<polyline points="515.0,19.0,506.5,26.5" stroke="black" stroke-width="2" fill="none" />
<polyline points="508.0,20.0,516.0,12.5" stroke="black" stroke-width="2" fill="none" />
<polyline points="516.0,5.0,508.0,5.0,500.5,5.0" stroke="black" stroke-width="2" fill="none" />
<polyline points="516.0,28.0,508.5,28.5,500.0,28.0,492.0,28.0,484.0,28.0,475.5,28.5" stroke="black" stroke-width="2" fill="none" />
<polyline points="484.0,39.5,492.5,38.5,500.5,38.0,508.0,37.0,516.0,37.0" stroke="black" stroke-width="2" fill="none" />
<polyline points="516.5,43.0,508.5,43.5,500.5,43.5,492.5,44.0" stroke="black" stroke-width="2" fill="none" />
<polyline points="468.5,76.5,460.5,77.0,452.5,77.5" stroke="black" stroke-width="2" fill="none" />
<polyline points="427.0,101.0,435.0,100.0,443.5,99.5,451.5,99.0,460.0,99.0,468.0,98.5,476.0,98.0,483.0,98.0,491.0,97.5,499.0,97.0,507.0,96.0,515.0,96.0" stroke="black" stroke-width="2" fill="none" />
<polyline points="516.0,114.5,508.0,114.5,499.5,114.5,491.5,114.5,483.5,114.5,476.0,114.5,468.0,115.0,460.5,115.5,453.0,116.0,445.0,116.5" stroke="black" stroke-width="2" fill="none" />
<polyline points="436.0,110.0,444.0,109.0,452.0,108.5,460.0,107.5,468.0,106.5,476.0,106.0,483.5,105.5,491.0,105.5,499.0,105.5,507.5,105.0,515.5,105.0" stroke="black" stroke-width="2" fill="none" />
<polyline points="516.5,87.0,508.0,87.0,499.5,87.5,491.5,88.0,483.0,88.0,475.0,88.5,467.5,89.0,459.5,90.0,452.0,90.5,443.5,91.0,435.5,91.0,427.0,91.5,419.0,92.0,411.0,92.5" stroke="black" stroke-width="2" fill="none" />
<polyline points="396.0,70.5,404.0,70.0,412.0,69.5,420.5,69.0,428.5,68.0" stroke="black" stroke-width="2" fill="none" />
<polyline points="436.5,22.0,445.0,21.5,453.0,21.5,461.0,21.0,468.5,20.5,476.0,20.5,484.0,20.0,492.0,19.0,499.5,18.5,507.5,18.0,515.5,18.0" stroke="black" stroke-width="2" fill="none" />
<polyline points="477.0,-5.0,469.5,-5.0,462.0,-4.5,454.0,-4.0,446.0,-3.5,437.5,-3.5,429.0,-3.0,420.5,-3.0,412.5,-2.0,404.5,-2.5,396.5,-2.5,389.0,-1.5,381.5,-1.0,374.0,-1.0,366.0,0.0,357.5,1.0,349.5,1.5,341.0,2.5,333.0,3.5,324.5,4.5,316.5,4.5,308.5,5.0,300.0,5.5,292.0,6.0" stroke="black" stroke-width="2" fill="none" />
<polyline points="283.5,45.0,292.0,44.0,300.0,43.0,308.0,42.5,316.0,42.5" stroke="black" stroke-width="2" fill="none" />
<polyline points="307.0,61.5,315.0,61.0,323.5,60.5,331.5,60.0,340.0,59.0,348.5,58.5,356.5,57.5,364.5,57.0,372.5,56.5" stroke="black" stroke-width="2" fill="none" />
<polyline points="367.0,51.5,379.0,66.5,391.5,66.5" stroke="black" stroke-width="2" fill="none" />
<polyline points="357.0,74.5,349.0,82.0,340.5,90.0,332.5,98.0,324.5,105.5,316.0,113.0,308.0,121.0,300.0,128.5" stroke="black" stroke-width="2" fill="none" />
<polyline points="307.0,129.0,315.0,121.5,323.0,114.0,331.5,106.5,340.0,98.5,348.0,91.0" stroke="black" stroke-width="2" fill="none" />
<polyline points="355.0,91.0,347.5,98.5,339.5,106.0,331.0,114.0,323.0,121.5,314.5,129.0,307.0,137.0" stroke="black" stroke-width="2" fill="none" />
<polyline points="314.5,139.0,322.0,131.5,329.5,124.0,337.5,116.5" stroke="black" stroke-width="2" fill="none" />
<polyline points="335.0,115.5,347.0,103.5,359.5,99.0" stroke="black" stroke-width="2" fill="none" />
<polyline points="353.0,99.0,345.5,107.0" stroke="black" stroke-width="2" fill="none" />
<polyline points="338.5,103.5,331.0,104.5,323.5,105.5,316.5,106.5,309.0,107.5" stroke="black" stroke-width="2" fill="none" />
<polyline points="309.5,114.5,317.0,114.0,325.0,113.5,332.5,113.0,339.5,113.0" stroke="black" stroke-width="2" fill="none" />
<polyline points="337.5,125.5,329.5,133.0,322.0,141.0" stroke="black" stroke-width="2" fill="none" />
<polyline points="317.5,128.0,325.0,128.0,332.0,127.5" stroke="black" stroke-width="2" fill="none" />
<polyline points="338.0,130.0,350.5,142.0,362.5,142.0,375.0,122.5,386.0,118.5" stroke="black" stroke-width="2" fill="none" />
<polyline points="386.5,116.5,378.5,117.0" stroke="black" stroke-width="2" fill="none" />
<polyline points="376.5,120.5,372.0,132.5,370.0,145.5,362.5,157.0,353.5,169.0,351.5,180.5,360.5,192.0" stroke="black" stroke-width="2" fill="none" />
<polyline points="360.5,198.5,369.0,198.5,378.0,197.5,386.5,197.0" stroke="black" stroke-width="2" fill="none" />
<polyline points="384.5,230.5,396.5,241.5" stroke="black" stroke-width="2" fill="none" />
<polyline points="331.5,243.5,323.0,250.5,315.0,258.0,307.5,266.0,300.5,274.0,293.0,281.5,285.5,289.0,277.5,296.0" stroke="black" stroke-width="2" fill="none" />
<polyline points="274.5,291.5,282.0,284.5,289.5,277.0" stroke="black" stroke-width="2" fill="none" />
<polyline points="268.5,279.0,276.0,278.5,284.0,278.0,291.5,278.0,299.5,277.5,307.0,277.5,315.0,277.0,323.0,276.0,331.0,275.5,339.0,274.5,347.0,274.0,354.5,273.5,363.0,273.5,371.5,273.0" stroke="black" stroke-width="2" fill="none" />
<polyline points="332.5,253.0,324.5,254.0,317.0,254.5,309.5,254.5,301.5,255.0" stroke="black" stroke-width="2" fill="none" />
<polyline points="301.0,248.0,309.0,247.0,317.5,247.5,326.0,247.0" stroke="black" stroke-width="2" fill="none" />
<polyline points="316.5,240.5,308.0,241.0,299.5,241.0,291.5,241.5" stroke="black" stroke-width="2" fill="none" />
<polyline points="267.0,271.5,275.0,271.0,283.0,270.5,291.5,269.5,299.5,269.0,307.0,268.5,315.5,268.0,323.0,267.5,331.0,267.0,339.5,266.5,347.5,266.5,355.5,265.5,363.5,265.0,371.5,264.5" stroke="black" stroke-width="2" fill="none" />
<polyline points="357.5,180.0,350.0,180.0" stroke="black" stroke-width="2" fill="none" />
<polyline points="355.0,180.0,367.0,193.0,379.5,193.0,391.5,179.5" stroke="black" stroke-width="2" fill="none" />
<polyline points="371.5,155.0,379.5,147.5" stroke="black" stroke-width="2" fill="none" />
<polyline points="372.5,149.0,364.5,156.0,356.0,163.5" stroke="black" stroke-width="2" fill="none" />
<polyline points="354.5,164.5,346.5,165.5,339.0,166.0" stroke="black" stroke-width="2" fill="none" />
<polyline points="339.0,173.0,347.0,172.5,355.0,171.5" stroke="black" stroke-width="2" fill="none" />
<polyline points="352.5,163.0,365.0,154.5,386.0,159.0,393.5,171.5,392.5,183.5,391.0,192.5,385.0,204.5,380.5,216.0,382.0,228.0,391.0,239.5" stroke="black" stroke-width="2" fill="none" />
<polyline points="348.0,161.5,356.5,154.0,364.5,146.5" stroke="black" stroke-width="2" fill="none" />
<polyline points="355.5,147.5,347.5,155.0" stroke="black" stroke-width="2" fill="none" />
<polyline points="331.5,157.0,339.5,156.5,348.0,156.0,356.0,155.5,364.0,155.0" stroke="black" stroke-width="2" fill="none" />
<polyline points="363.0,132.0,371.0,132.0" stroke="black" stroke-width="2" fill="none" />
<polyline points="339.5,119.5,331.5,120.5,323.5,121.0,315.5,121.5,307.0,122.0" stroke="black" stroke-width="2" fill="none" />
<polyline points="300.5,119.5,308.5,112.5,316.0,106.0,323.5,99.0,331.0,91.5,339.0,84.5,347.0,77.5" stroke="black" stroke-width="2" fill="none" />
<polyline points="330.5,83.0,323.0,90.5,315.5,98.5,307.5,106.0,299.5,113.5" stroke="black" stroke-width="2" fill="none" />
<polyline points="298.0,105.0,306.0,97.5,314.0,90.0,322.0,82.0" stroke="black" stroke-width="2" fill="none" />
<polyline points="322.5,74.0,315.0,82.0,306.5,89.5,298.5,97.0" stroke="black" stroke-width="2" fill="none" />
<polyline points="298.0,90.0,306.0,82.5,314.0,75.0" stroke="black" stroke-width="2" fill="none" />
<polyline points="309.5,78.0,317.0,78.0,325.0,77.5,333.0,77.0,341.0,76.5,349.0,75.5,356.5,75.0,363.5,74.0,371.0,73.0,379.0,72.5" stroke="black" stroke-width="2" fill="none" />
<polyline points="371.5,64.5,363.5,65.0,355.5,66.0,347.0,66.5,339.0,67.0,331.5,67.5,323.5,68.0,315.5,69.0,307.5,69.5" stroke="black" stroke-width="2" fill="none" />
<polyline points="301.5,84.5,309.5,84.5,317.5,84.0,325.5,84.0,333.5,84.0,342.0,83.5,349.5,84.0,357.0,84.0,364.5,84.0,372.5,83.5" stroke="black" stroke-width="2" fill="none" />
<polyline points="363.0,90.5,355.5,91.5,348.5,92.5,341.0,93.5,332.5,93.5,324.0,93.5,315.5,93.5,307.5,94.0,299.5,94.0,291.5,95.0,283.0,95.0,275.5,96.0,268.0,97.0,260.0,97.5,252.0,98.0,244.0,98.0,236.5,98.5,229.0,98.0,220.5,98.0,212.5,98.5,204.5,98.5,196.5,99.0,188.0,99.5,180.0,100.0" stroke="black" stroke-width="2" fill="none" />
<polyline points="179.0,107.5,187.0,107.0,195.5,107.0,204.0,107.0,213.0,107.0,221.5,107.0,229.5,106.5,237.5,106.0,245.5,105.5,254.5,105.0,262.5,105.0" stroke="black" stroke-width="2" fill="none" />
<polyline points="260.0,85.0,268.5,84.5,277.0,84.0" stroke="black" stroke-width="2" fill="none" />
<polyline points="289.0,86.5,277.0,87.5,265.5,75.0" stroke="black" stroke-width="2" fill="none" />
<polyline points="264.0,60.5,276.0,50.0,288.0,50.0,300.0,57.5" stroke="black" stroke-width="2" fill="none" />
<polyline points="299.0,55.0,307.0,54.0,315.0,53.0,323.0,53.0,331.0,52.5" stroke="black" stroke-width="2" fill="none" />
<polyline points="356.0,18.0,364.0,11.0" stroke="black" stroke-width="2" fill="none" />
<polyline points="372.0,10.5,380.0,2.5" stroke="black" stroke-width="2" fill="none" />
<polyline points="371.5,21.5,363.5,22.5,356.0,23.0,348.5,23.5,340.5,24.0,332.5,25.5,324.5,27.0,316.5,27.5,308.0,28.0,300.0,28.5,291.5,28.5,283.5,29.5,275.5,30.0,267.5,30.5,259.5,31.0,251.5,31.0,243.0,31.0,235.0,31.0,227.5,31.0,219.5,31.5,212.0,32.5,204.0,33.5,196.5,34.0,189.0,34.0,181.5,34.5,173.5,35.0,165.0,35.5,157.0,36.0,149.0,37.0,141.0,38.0" stroke="black" stroke-width="2" fill="none" />
<polyline points="140.5,46.5,148.5,45.5,156.0,45.0,164.0,44.0,171.5,43.5,179.5,43.0,187.5,43.0,195.5,42.5,203.5,42.5,211.5,42.0,219.5,42.0,227.5,41.5,236.0,40.5" stroke="black" stroke-width="2" fill="none" />
<polyline points="235.5,35.0,243.0,27.5,251.0,20.5" stroke="black" stroke-width="2" fill="none" />
<polyline points="252.5,13.0,244.5,20.5,236.5,28.0,228.5,35.0" stroke="black" stroke-width="2" fill="none" />
<polyline points="227.0,35.0,238.5,28.5" stroke="black" stroke-width="2" fill="none" />
<polyline points="244.0,24.0,236.5,24.0,229.5,24.0,222.0,24.5" stroke="black" stroke-width="2" fill="none" />
<polyline points="220.0,21.5,228.0,21.0,236.5,21.0,244.5,20.5,252.0,20.0,260.0,19.5,268.0,19.0,275.5,18.5,283.5,18.0,291.5,18.0,299.5,18.0,307.5,17.0,316.0,16.0,324.0,15.0,331.5,14.0,339.5,14.0,347.5,13.5,356.0,13.0,364.0,12.5,372.0,11.5,380.0,11.0,388.0,10.5,396.5,10.5,404.5,10.5,412.5,10.0,420.0,9.5" stroke="black" stroke-width="2" fill="none" />
<polyline points="420.5,28.5,412.5,28.5,404.0,28.5,396.0,29.0" stroke="black" stroke-width="2" fill="none" />
<polyline points="388.0,29.5,401.5,42.0,403.0,54.0,391.0,66.0" stroke="black" stroke-width="2" fill="none" />
<polyline points="373.0,80.5,364.5,81.5,356.0,82.0,348.0,82.5,340.5,83.0,333.0,84.0,324.5,84.5,316.5,85.0,308.0,85.5,300.0,85.5,291.5,85.5,283.5,86.0,275.5,87.0,267.5,87.0,259.5,87.5,251.5,87.5,243.5,88.0,235.0,88.0,227.0,89.0,218.5,89.5,210.5,90.0,202.5,90.5,195.0,91.0,187.5,92.0,179.5,92.0,172.0,92.5" stroke="black" stroke-width="2" fill="none" />
<polyline points="180.0,91.0,188.0,84.0,196.0,77.0,204.5,69.5" stroke="black" stroke-width="2" fill="none" />
<polyline points="203.0,76.5,195.5,84.0,188.0,91.5" stroke="black" stroke-width="2" fill="none" />
<polyline points="195.0,92.0,203.0,85.0" stroke="black" stroke-width="2" fill="none" />
<polyline points="187.0,87.5,179.0,87.5" stroke="black" stroke-width="2" fill="none" />
<polyline points="173.0,89.0,180.5,82.5,188.5,75.5,196.5,68.5,205.0,61.5" stroke="black" stroke-width="2" fill="none" />
<polyline points="195.0,62.5,186.5,63.0,178.5,63.0,171.0,63.0,163.0,63.5" stroke="black" stroke-width="2" fill="none" />
<polyline points="158.0,61.5,149.5,69.5" stroke="black" stroke-width="2" fill="none" />
<polyline points="147.0,74.0,155.5,66.5,164.0,59.0,172.5,51.0,181.0,43.0" stroke="black" stroke-width="2" fill="none" />
<polyline points="194.0,37.5,186.5,44.5,178.5,52.0,171.0,59.5,163.0,66.5,155.5,73.5,147.5,80.5" stroke="black" stroke-width="2" fill="none" />
<polyline points="148.0,84.5,156.0,84.0,163.5,83.0,171.0,82.5,178.5,82.5,186.0,82.0,194.0,82.0,202.5,82.5,211.0,82.5,220.0,82.0" stroke="black" stroke-width="2" fill="none" />
<polyline points="236.5,86.0,244.5,85.0" stroke="black" stroke-width="2" fill="none" />
<polyline points="284.0,109.5,292.0,109.5,300.0,109.5,308.0,109.0,316.0,109.0,323.5,108.5,331.5,108.0,338.5,107.5,346.5,107.0,354.5,106.5" stroke="black" stroke-width="2" fill="none" />
<polyline points="352.5,102.5,337.5,114.5,334.5,126.5,340.0,138.5" stroke="black" stroke-width="2" fill="none" />
<polyline points="330.5,97.0,322.5,97.5,314.5,98.5,307.0,99.0" stroke="black" stroke-width="2" fill="none" />
<polyline points="308.5,89.0,316.0,88.5,323.5,88.5" stroke="black" stroke-width="2" fill="none" />
<polyline points="340.5,129.5,332.5,130.0,324.5,131.5,316.5,133.0,308.5,133.5,300.0,134.0,292.0,134.5" stroke="black" stroke-width="2" fill="none" />
<polyline points="282.5,126.5,290.5,126.0,298.5,125.5,307.0,125.0,315.5,124.0,323.5,122.5,331.5,122.0,339.5,121.0" stroke="black" stroke-width="2" fill="none" />
<polyline points="355.0,113.5,346.5,114.5,339.0,114.5,331.0,115.0,323.0,115.5,315.5,116.0,307.5,116.5,299.5,117.0,291.5,117.0,283.5,117.5" stroke="black" stroke-width="2" fill="none" />
<polyline points="267.0,150.0,275.0,149.5,283.0,149.0,291.0,148.5,299.5,147.5,307.5,147.0,315.5,147.0,324.0,147.0,332.0,146.0,340.5,145.0,348.5,144.0,356.0,143.5,363.5,143.5,371.5,143.0,379.0,142.0" stroke="black" stroke-width="2" fill="none" />
<polyline points="299.5,164.0,291.0,164.0,283.5,165.0,276.0,166.0,268.0,166.5" stroke="black" stroke-width="2" fill="none" />
<polyline points="266.5,158.5,274.5,158.5,283.5,158.0,291.5,157.5,299.0,157.5,307.0,157.0,315.0,156.5" stroke="black" stroke-width="2" fill="none" />
<polyline points="300.0,194.5,292.0,195.0,283.0,195.5,274.0,196.0,265.5,196.5,257.5,197.0,250.0,198.0" stroke="black" stroke-width="2" fill="none" />
<polyline points="236.0,214.5,244.0,213.5,252.0,213.0,260.0,212.5,268.0,212.5,275.5,212.0,283.0,212.0,291.0,211.5,299.0,211.0,307.0,210.0,315.0,209.5,322.5,209.5" stroke="black" stroke-width="2" fill="none" />
<polyline points="372.0,254.0,363.5,255.0,355.5,255.5,347.0,256.0,339.0,256.5,331.0,257.0,323.0,257.5,314.5,258.0,306.5,258.5,298.5,258.5,290.5,258.5,282.0,259.0,274.0,259.5,266.0,260.5,258.0,261.0" stroke="black" stroke-width="2" fill="none" />
<polyline points="244.5,264.0,257.0,270.0,266.0,277.5" stroke="black" stroke-width="2" fill="none" />
<polyline points="267.0,286.5,275.5,286.0,283.5,286.0,291.5,285.5,299.5,284.5,307.5,284.0,315.0,284.5,323.0,284.0,331.0,284.0,338.5,284.0,346.5,283.0,355.0,282.5,363.0,281.5" stroke="black" stroke-width="2" fill="none" />
<polyline points="233.5,323.0,225.5,330.5,218.0,338.0" stroke="black" stroke-width="2" fill="none" />
<polyline points="214.0,337.0,222.0,329.5,230.5,322.5" stroke="black" stroke-width="2" fill="none" />
<polyline points="230.0,313.5,222.0,321.0,213.5,329.5,205.0,338.0" stroke="black" stroke-width="2" fill="none" />
<polyline points="204.0,336.0,196.0,337.0,188.0,338.0,180.0,339.0" stroke="black" stroke-width="2" fill="none" />
<polyline points="179.5,336.5,188.0,329.5,196.5,322.5,204.5,315.0,212.5,307.0" stroke="black" stroke-width="2" fill="none" />
<polyline points="212.5,314.5,204.5,322.0,196.5,329.0,189.0,336.5" stroke="black" stroke-width="2" fill="none" />
<polyline points="194.5,336.5,202.5,328.5,210.5,320.5,219.0,313.0" stroke="black" stroke-width="2" fill="none" />
<polyline points="204.0,319.5,196.5,319.5,188.5,320.0,180.0,321.0" stroke="black" stroke-width="2" fill="none" />
<polyline points="171.0,321.0,179.0,313.5,187.5,306.0,195.5,298.5" stroke="black" stroke-width="2" fill="none" />
<polyline points="201.0,298.0,193.0,305.5,185.0,313.0,177.5,320.5,170.0,328.0" stroke="black" stroke-width="2" fill="none" />
<polyline points="169.5,336.5,177.5,329.5,185.5,322.5,193.0,316.0,201.0,309.0" stroke="black" stroke-width="2" fill="none" />
<polyline points="188.0,311.5,179.5,312.0" stroke="black" stroke-width="2" fill="none" />
<polyline points="178.5,308.0,170.5,315.0" stroke="black" stroke-width="2" fill="none" />
<polyline points="171.5,310.0,163.5,317.5,156.0,324.5,147.5,331.5,139.0,338.0" stroke="black" stroke-width="2" fill="none" />
<polyline points="130.5,338.5,139.0,331.0,147.5,323.5,156.0,316.0,164.0,308.5" stroke="black" stroke-width="2" fill="none" />
<polyline points="162.0,302.0,154.5,309.0,146.5,316.5,138.5,323.5,131.0,331.0" stroke="black" stroke-width="2" fill="none" />
<polyline points="132.0,328.0,139.5,327.5,148.0,327.0" stroke="black" stroke-width="2" fill="none" />
<polyline points="147.0,311.5,139.5,312.0,132.0,312.5" stroke="black" stroke-width="2" fill="none" />
<polyline points="123.5,320.0,131.5,319.5,139.0,319.5,147.0,319.5" stroke="black" stroke-width="2" fill="none" />
<polyline points="146.5,300.0,138.5,307.5,131.0,315.0,123.0,323.0" stroke="black" stroke-width="2" fill="none" />
<polyline points="123.5,330.5,131.5,322.5,139.5,315.0,148.0,307.5,156.0,300.5" stroke="black" stroke-width="2" fill="none" />
<polyline points="153.0,295.5,165.0,306.0,177.0,306.5" stroke="black" stroke-width="2" fill="none" />
<polyline points="180.5,330.0,188.5,330.0,196.5,329.5,204.0,329.0,211.5,329.0" stroke="black" stroke-width="2" fill="none" />
<polyline points="205.5,340.5,217.5,340.5,230.0,340.0" stroke="black" stroke-width="2" fill="none" />
<polyline points="218.5,295.5,211.0,296.0,203.0,297.0,195.5,297.0,188.0,297.5,180.0,298.0,172.0,298.5,163.5,299.5,155.5,300.5,148.0,301.5,140.0,302.5,132.0,303.0,124.0,303.5,116.5,304.0,108.5,304.5,100.5,305.0,92.5,305.5,84.0,306.0,76.0,306.0,68.0,306.0,60.5,306.5,52.0,306.5,43.5,307.0,35.0,307.5,27.0,308.5,19.0,309.0" stroke="black" stroke-width="2" fill="none" />
<polyline points="19.0,305.0,26.5,298.0,35.0,291.0,43.5,283.5,51.5,276.5" stroke="black" stroke-width="2" fill="none" />
<polyline points="61.5,276.0,53.0,283.0,45.0,290.0,37.0,297.0,29.5,304.5" stroke="black" stroke-width="2" fill="none" />
<polyline points="36.0,312.0,44.0,304.5,52.0,297.0,59.5,289.5,67.5,282.0,76.0,274.5,84.0,267.0" stroke="black" stroke-width="2" fill="none" />
<polyline points="84.5,277.0,76.0,284.5,68.0,292.0,60.0,299.0,52.5,306.5,45.0,314.0" stroke="black" stroke-width="2" fill="none" />
<polyline points="52.5,311.5,61.0,304.0,68.5,296.0,76.0,288.5,84.0,281.0,91.5,274.0" stroke="black" stroke-width="2" fill="none" />
<polyline points="91.5,283.0,83.5,290.5,75.5,298.0,67.5,305.5,59.0,312.5" stroke="black" stroke-width="2" fill="none" />
<polyline points="62.0,310.0,74.0,314.0,85.5,317.0,99.5,320.0" stroke="black" stroke-width="2" fill="none" />
<polyline points="97.0,325.0,105.0,318.0" stroke="black" stroke-width="2" fill="none" />
<polyline points="108.5,323.0,117.0,315.0,125.5,307.5,134.0,300.5,141.5,293.0" stroke="black" stroke-width="2" fill="none" />
<polyline points="146.0,293.0,138.5,300.5,131.0,308.0,123.0,315.5,114.5,322.5" stroke="black" stroke-width="2" fill="none" />
<polyline points="116.5,331.5,124.5,331.5,132.5,332.0,141.0,332.0,149.0,332.0,156.5,332.0,164.5,332.0,172.5,331.5,180.5,330.5,188.0,330.5,196.0,330.0,204.0,329.0,212.0,328.0,220.0,327.0,227.5,326.0,235.5,325.5,243.0,325.0,250.5,325.0,258.0,324.5,265.5,324.5,273.5,324.0,281.5,323.0,289.5,322.5,297.5,322.5,306.0,322.5,314.5,322.0,322.5,321.5,331.0,320.5,339.0,320.0,347.0,320.0,355.0,319.5,363.0,318.5,371.5,317.5,379.5,316.5,388.0,315.5,396.5,315.0,404.5,314.5,412.5,314.5,420.5,314.5" stroke="black" stroke-width="2" fill="none" />
<polyline points="357.5,228.0,349.5,228.5,341.0,229.5,333.0,230.5,324.5,231.5,316.5,231.5,308.5,232.0,300.0,232.5,292.0,233.0,283.5,233.5,275.5,234.0,267.5,234.0,259.5,234.5,251.5,234.5,244.0,235.0,236.0,236.0,228.5,237.0,221.0,237.5,213.5,238.0" stroke="black" stroke-width="2" fill="none" />
<polyline points="219.0,241.5,211.5,249.0,203.5,257.0,195.0,264.5,186.5,272.5" stroke="black" stroke-width="2" fill="none" />
<polyline points="178.0,273.0,186.5,266.5,194.5,260.0,202.5,253.0,210.5,245.5" stroke="black" stroke-width="2" fill="none" />
<polyline points="203.5,244.5,195.5,251.5,187.5,259.0,179.0,266.5" stroke="black" stroke-width="2" fill="none" />
<polyline points="172.0,266.0,179.5,258.5,187.0,251.0,195.0,243.5" stroke="black" stroke-width="2" fill="none" />
<polyline points="196.0,236.5,188.5,244.0,180.5,251.5,172.0,259.0,164.0,266.5,155.5,274.5,147.5,281.5" stroke="black" stroke-width="2" fill="none" />
<polyline points="150.5,284.0,162.5,270.5,174.0,270.5,177.0,273.5,187.5,285.5,188.0,297.5" stroke="black" stroke-width="2" fill="none" />
<polyline points="194.5,282.5,202.5,275.0" stroke="black" stroke-width="2" fill="none" />
<polyline points="201.0,268.5,193.5,276.0" stroke="black" stroke-width="2" fill="none" />
<polyline points="187.0,262.5,195.0,262.5,203.0,262.5" stroke="black" stroke-width="2" fill="none" />
<polyline points="203.0,261.5,215.0,252.5,227.0,260.0,238.5,261.5,246.0,268.0,258.0,280.0,259.5,292.0,255.5,304.0" stroke="black" stroke-width="2" fill="none" />
<polyline points="250.5,306.0,238.0,310.5,226.0,309.0,214.5,296.0" stroke="black" stroke-width="2" fill="none" />
<polyline points="204.0,255.0,196.0,255.0,188.5,255.5,181.0,256.0" stroke="black" stroke-width="2" fill="none" />
<polyline points="187.5,248.5,195.5,248.0,203.5,247.0" stroke="black" stroke-width="2" fill="none" />
<polyline points="204.5,239.5,216.5,233.5" stroke="black" stroke-width="2" fill="none" />
<polyline points="212.5,227.5,220.0,227.5,228.5,227.5,236.5,227.5,244.5,227.5,252.0,227.0,260.0,227.0,267.5,226.5,275.0,226.0,282.5,226.0,290.5,225.5,298.5,225.0,306.5,224.5,315.0,224.0,323.5,223.0,331.5,221.5" stroke="black" stroke-width="2" fill="none" />
<polyline points="229.0,242.5,221.0,250.0" stroke="black" stroke-width="2" fill="none" />
<polyline points="221.5,246.5,213.0,247.5,205.0,248.0,197.0,248.0,189.0,248.0,180.5,248.0,172.5,248.5,164.5,249.0,156.5,250.0,148.5,250.5,140.5,251.5,132.5,252.5,124.5,252.5,116.5,253.5,108.0,254.0,100.0,254.5,92.0,255.5,84.0,256.0,75.5,256.5,67.0,256.5,59.0,257.0,51.5,257.0,43.0,257.5,35.0,257.5,27.0,258.0,19.0,258.5,10.5,258.5,2.5,259.0" stroke="black" stroke-width="2" fill="none" />
<polyline points="2.0,253.5,10.0,253.0,18.5,252.5,26.5,252.0,35.0,251.0,43.0,250.0,51.0,249.5,58.5,249.5,67.0,249.0,75.5,248.5,83.5,247.5,91.5,247.0,99.0,246.5" stroke="black" stroke-width="2" fill="none" />
<polyline points="85.5,257.0,77.5,264.5,69.0,272.5" stroke="black" stroke-width="2" fill="none" />
<polyline points="68.5,266.5,76.5,259.0" stroke="black" stroke-width="2" fill="none" />
<polyline points="76.5,250.5,68.0,258.0,60.0,265.5" stroke="black" stroke-width="2" fill="none" />
<polyline points="70.0,250.5,62.0,258.5,53.5,266.0,45.0,274.0,36.5,281.5,28.0,289.5,19.0,297.0" stroke="black" stroke-width="2" fill="none" />
<polyline points="18.5,297.0,26.0,296.5,34.0,295.5,42.5,295.0,51.0,295.0,59.5,294.5" stroke="black" stroke-width="2" fill="none" />
<polyline points="68.0,297.0,75.5,296.5" stroke="black" stroke-width="2" fill="none" />
<polyline points="83.5,288.0,91.0,287.5" stroke="black" stroke-width="2" fill="none" />
<polyline points="100.0,284.0,92.0,292.0,84.0,300.0,76.5,307.5,68.0,315.0" stroke="black" stroke-width="2" fill="none" />
<polyline points="82.5,313.5,90.0,305.5,98.0,298.0,106.0,290.5" stroke="black" stroke-width="2" fill="none" />
<polyline points="99.5,292.5,91.5,300.0,83.5,307.5,76.0,315.0" stroke="black" stroke-width="2" fill="none" />
<polyline points="83.5,312.5,91.5,312.0" stroke="black" stroke-width="2" fill="none" />
<polyline points="97.5,315.0,105.5,308.0" stroke="black" stroke-width="2" fill="none" />
<polyline points="107.0,298.0,98.5,305.5,90.0,312.5" stroke="black" stroke-width="2" fill="none" />
<polyline points="84.0,325.0,92.0,324.5,100.0,323.5,108.0,323.0,116.5,322.5,124.5,321.5,132.5,321.5,140.5,320.5,148.5,319.5,156.5,319.0,164.5,318.0,172.5,317.5,180.5,317.0,189.0,317.0,197.0,317.0,205.0,317.0,213.0,316.5,221.5,315.5,229.5,315.0,237.5,314.5,246.0,314.5,253.5,314.0,260.5,314.0,268.0,314.0,275.5,314.0,283.0,313.5,291.0,313.0,299.0,312.5,307.0,312.0,315.5,311.0,323.5,310.5,331.5,310.0,340.0,310.0,348.0,309.5,356.5,309.0,365.0,309.0,373.0,308.0,381.5,308.0,389.0,307.5,396.0,306.5,404.0,306.5,412.0,306.0,420.0,305.5" stroke="black" stroke-width="2" fill="none" />
<polyline points="373.5,234.0,366.0,233.5,357.5,234.0,349.5,234.0,341.5,234.0,333.5,234.5,325.5,234.5,317.5,235.5,309.5,236.0,301.0,237.0,292.0,237.5,284.0,238.0,275.0,238.5,266.0,239.0,257.5,239.5,249.5,240.0,242.0,241.0,234.0,241.5,226.0,242.0,218.0,242.0,210.0,242.5,202.5,243.0,194.5,243.5,187.0,243.5,179.5,244.0,172.0,244.5,164.0,245.5" stroke="black" stroke-width="2" fill="none" />
<polyline points="170.5,250.5,179.0,243.0,187.5,235.5,196.0,228.0,204.5,220.5" stroke="black" stroke-width="2" fill="none" />
<polyline points="204.0,222.5,193.5,234.5,197.0,225.0,209.0,223.5" stroke="black" stroke-width="2" fill="none" />
<polyline points="202.5,212.5,194.5,219.5,186.5,226.5" stroke="black" stroke-width="2" fill="none" />
<polyline points="186.5,219.0,194.5,211.0,202.5,203.5" stroke="black" stroke-width="2" fill="none" />
<polyline points="194.5,203.0,187.0,210.5" stroke="black" stroke-width="2" fill="none" />
<polyline points="177.0,210.5,185.5,203.5,194.0,196.0" stroke="black" stroke-width="2" fill="none" />
<polyline points="194.5,193.0,182.0,190.0" stroke="black" stroke-width="2" fill="none" />
<polyline points="171.0,188.5,163.0,195.5,155.0,203.0" stroke="black" stroke-width="2" fill="none" />
<polyline points="151.5,199.5,147.0,198.0,130.5,210.5,120.0,222.5,121.0,219.5,133.0,204.5,145.0,200.5,157.5,194.5" stroke="black" stroke-width="2" fill="none" />
<polyline points="163.0,205.0,171.0,197.0" stroke="black" stroke-width="2" fill="none" />
<polyline points="171.5,181.5,164.0,189.0,155.5,196.5,147.5,204.0" stroke="black" stroke-width="2" fill="none" />
<polyline points="144.0,207.5,156.0,210.5" stroke="black" stroke-width="2" fill="none" />
<polyline points="163.5,214.0,171.5,213.5,179.5,213.0,187.5,212.0,195.0,211.5,203.0,211.5,211.0,211.0,219.0,210.0" stroke="black" stroke-width="2" fill="none" />
<polyline points="195.0,241.5,187.0,241.5" stroke="black" stroke-width="2" fill="none" />
<polyline points="203.0,236.0,194.5,236.0,186.0,236.0,178.0,237.0,169.5,237.5" stroke="black" stroke-width="2" fill="none" />
<polyline points="171.0,228.5,179.0,228.0,187.0,227.0,195.0,226.5,203.5,225.5" stroke="black" stroke-width="2" fill="none" />
<polyline points="188.5,228.5,176.5,241.5,162.5,247.5,150.5,257.5,138.5,258.0,126.5,251.5" stroke="black" stroke-width="2" fill="none" />
<polyline points="147.0,253.0,155.0,252.0,164.0,251.5,172.5,250.5,181.0,250.5,189.0,250.5,196.5,250.0,204.5,250.0,212.0,249.5,220.0,249.0,228.0,248.5,236.0,248.0,244.5,248.0,252.5,247.5,260.0,247.0,268.0,246.5,276.0,246.0,283.5,245.5,291.5,245.0,299.5,245.0,307.5,245.0,315.5,244.0,324.0,243.0,332.0,242.0,339.5,241.0,347.5,241.0,355.5,240.5,364.0,240.0,372.0,239.5" stroke="black" stroke-width="2" fill="none" />
<polyline points="331.0,211.5,323.0,212.0,315.0,212.5,306.5,213.0,298.5,213.5,290.5,213.5,282.5,213.5,274.0,214.0,266.0,214.5,258.0,215.5,250.0,216.0,242.5,216.0,235.0,216.0,227.0,216.0,219.0,216.0,211.0,216.5,203.0,217.5,194.5,219.0,186.0,220.0,178.0,220.5,169.5,221.0" stroke="black" stroke-width="2" fill="none" />
<polyline points="164.0,181.0,156.0,188.5,148.0,195.5,139.5,202.5,130.5,209.5" stroke="black" stroke-width="2" fill="none" />
<polyline points="125.0,208.5,117.0,209.0,109.0,209.5,101.0,209.5" stroke="black" stroke-width="2" fill="none" />
<polyline points="115.5,218.0,124.0,210.5,132.0,203.0,140.5,195.5,148.5,188.0,156.5,181.0" stroke="black" stroke-width="2" fill="none" />
<polyline points="145.0,181.0,137.0,188.5,129.0,196.0,121.5,203.0,114.0,210.5,107.0,218.0" stroke="black" stroke-width="2" fill="none" />
<polyline points="100.5,217.0,108.0,210.0,116.0,202.5,124.0,195.0,131.5,187.5,139.0,180.0,147.0,172.5" stroke="black" stroke-width="2" fill="none" />
<polyline points="141.0,173.0,132.5,180.5,125.0,188.0,116.5,195.5,108.5,203.0,100.5,210.5" stroke="black" stroke-width="2" fill="none" />
<polyline points="91.0,209.0,99.5,201.0,108.0,193.5,116.5,186.0,124.5,178.5,133.0,171.0,141.0,163.5" stroke="black" stroke-width="2" fill="none" />
<polyline points="140.0,162.0,132.0,163.0,124.0,163.0,115.5,164.0,107.5,165.0,99.5,165.0,91.5,165.5" stroke="black" stroke-width="2" fill="none" />
<polyline points="93.0,171.5,84.5,178.5,76.5,186.0,68.5,193.5,60.5,200.5,52.5,207.5,45.0,215.5,37.0,223.0,29.0,231.0,21.5,238.0,13.5,245.5" stroke="black" stroke-width="2" fill="none" />
<polyline points="11.5,241.5,19.5,241.0,27.5,240.5,35.0,240.0,42.0,240.0,50.0,240.0,58.5,239.5" stroke="black" stroke-width="2" fill="none" />
<polyline points="68.5,243.0,60.0,250.5,52.5,258.0,44.0,265.5,35.5,273.5,27.0,281.5,18.5,289.5,9.5,297.0" stroke="black" stroke-width="2" fill="none" />
<polyline points="11.5,302.0,19.5,301.5,28.0,301.5,36.0,301.0,44.0,301.0,51.5,300.5,60.0,299.5,69.0,299.0,77.0,298.0,85.0,297.5,93.0,296.5,101.0,296.5,109.0,296.0,117.0,295.5,124.5,295.0,132.0,294.0,139.5,293.5,147.0,292.5,154.0,292.0,161.5,291.5,169.5,291.0,178.0,290.5,186.0,290.0,194.5,289.0,203.0,287.5,211.0,286.5" stroke="black" stroke-width="2" fill="none" />
<polyline points="210.5,265.5,203.0,266.0,195.0,267.0,187.5,267.0,180.0,267.5,172.0,268.0" stroke="black" stroke-width="2" fill="none" />
<polyline points="162.5,270.5,152.0,282.5,150.5,294.5,161.0,307.0" stroke="black" stroke-width="2" fill="none" />
<polyline points="132.5,291.0,124.5,298.5,116.5,306.0" stroke="black" stroke-width="2" fill="none" />
<polyline points="116.0,298.0,124.0,290.0" stroke="black" stroke-width="2" fill="none" />
<polyline points="147.0,275.0,155.0,267.5" stroke="black" stroke-width="2" fill="none" />
<polyline points="163.5,257.5,155.0,258.0,147.5,259.0,140.0,260.0,132.0,261.5,124.0,263.0,115.5,263.5,107.5,263.5,99.5,264.0,91.5,264.5,83.5,265.0,75.5,265.5,68.0,266.0,59.5,266.5,51.0,266.5,43.0,267.0,34.5,267.5,26.5,268.0,19.0,268.5,11.0,268.5,3.0,269.5" stroke="black" stroke-width="2" fill="none" />
<polyline points="10.0,267.5,17.5,261.0,25.5,253.5,33.5,246.5,41.5,239.0,49.5,231.5,58.0,223.5,66.0,216.0,74.5,208.5,82.5,200.5,90.0,192.5,98.0,185.0,106.5,177.5,115.0,170.0,123.5,162.5,132.5,154.5,140.5,146.5" stroke="black" stroke-width="2" fill="none" />
<polyline points="141.5,150.5,134.0,151.0,126.0,152.0,118.0,153.0" stroke="black" stroke-width="2" fill="none" />
<polyline points="116.5,146.0,124.5,145.0,132.5,143.5,140.5,143.0" stroke="black" stroke-width="2" fill="none" />
<polyline points="140.0,148.0,132.0,148.5,124.5,149.0,116.5,149.5,108.5,150.0" stroke="black" stroke-width="2" fill="none" />
<polyline points="108.0,153.5,115.5,145.5,123.5,138.0,131.5,130.5,139.0,123.0" stroke="black" stroke-width="2" fill="none" />
<polyline points="132.0,123.0,124.5,130.5,116.5,138.5" stroke="black" stroke-width="2" fill="none" />
<polyline points="115.0,140.5,123.5,140.5,131.0,139.5,139.0,138.5,147.0,138.0" stroke="black" stroke-width="2" fill="none" />
<polyline points="149.0,140.5,157.0,133.5" stroke="black" stroke-width="2" fill="none" />
<polyline points="148.5,133.5,136.5,145.5,133.5,157.0,138.0,169.0,161.5,181.0,182.5,192.0,185.0,204.0,189.5,215.5,187.0,226.0,176.5,238.5,164.0,241.0,154.0,253.0" stroke="black" stroke-width="2" fill="none" />
<polyline points="126.0,215.5,118.0,216.5,110.0,217.0,102.0,217.5,94.0,217.5,86.0,217.5,77.5,218.0,69.5,218.5,61.0,219.0,53.5,219.5,45.5,220.0,37.5,220.5,29.5,220.5,21.5,221.0,13.0,221.5,5.0,222.0" stroke="black" stroke-width="2" fill="none" />
<polyline points="2.0,222.5,10.0,215.5,18.5,208.5,27.0,201.0,35.5,194.0,44.0,186.5,52.0,179.0,59.5,172.0,67.5,164.5" stroke="black" stroke-width="2" fill="none" />
<polyline points="76.5,162.0,68.5,169.5,60.0,177.5,51.5,185.5,43.0,193.5,34.5,201.5,26.5,209.0,19.5,216.5,12.0,224.0,4.5,232.0" stroke="black" stroke-width="2" fill="none" />
<polyline points="3.5,230.0,11.0,229.5,19.0,229.5,27.0,229.0,34.5,228.5,42.5,228.0,50.5,227.0,59.0,227.0,67.0,226.0,75.0,225.0,83.0,224.5" stroke="black" stroke-width="2" fill="none" />
<polyline points="74.0,216.5,82.0,209.0,90.5,201.5,99.0,194.0,107.0,186.5,115.0,179.5,124.0,172.0,133.0,164.0,141.5,156.5" stroke="black" stroke-width="2" fill="none" />
<polyline points="139.0,159.0,132.0,159.5,124.5,160.0,117.0,161.0,108.5,161.5" stroke="black" stroke-width="2" fill="none" />
<polyline points="109.0,157.5,117.5,157.0,125.5,156.5,133.0,156.0,141.0,155.5" stroke="black" stroke-width="2" fill="none" />
<polyline points="138.5,162.5,150.5,176.0,162.5,176.0,174.5,167.0,177.5,162.5,165.5,174.0" stroke="black" stroke-width="2" fill="none" />
<polyline points="139.5,166.0,131.5,166.5,123.5,167.5,115.5,168.0,107.5,169.0,100.0,169.5" stroke="black" stroke-width="2" fill="none" />
<polyline points="83.5,171.0,75.5,178.5,67.0,185.5,59.5,193.5,51.5,201.5,43.5,209.5,35.5,217.0,27.5,223.5,19.0,230.5,11.5,238.5" stroke="black" stroke-width="2" fill="none" />
<polyline points="9.5,232.0,17.5,231.5,26.0,231.5,34.0,231.0,42.5,231.0,50.5,230.5,59.0,230.0" stroke="black" stroke-width="2" fill="none" />
<polyline points="68.5,229.0,60.0,236.5,52.0,244.0,44.0,251.0,36.0,258.5,28.0,265.5,19.0,272.5,10.5,279.5" stroke="black" stroke-width="2" fill="none" />
<polyline points="10.0,287.0,18.5,280.0,26.5,272.5,35.0,265.0,44.0,258.0,53.0,251.0,61.0,243.5,69.0,236.5" stroke="black" stroke-width="2" fill="none" />
<polyline points="51.5,247.5,43.0,248.5,35.0,249.5,27.0,250.5,19.0,251.0" stroke="black" stroke-width="2" fill="none" />
<polyline points="18.0,252.0,26.5,244.0,34.5,236.5,42.5,228.5,50.5,221.0,58.5,213.5,66.5,206.5,74.5,199.5,82.5,192.0,91.0,184.5,100.0,176.5,108.5,168.5,117.5,161.0,125.5,153.5,133.0,146.5,141.0,139.5,149.0,132.0,156.5,124.5" stroke="black" stroke-width="2" fill="none" />
<polyline points="148.0,122.5,140.0,130.0,132.0,137.5,124.0,145.0,116.0,152.5,108.0,160.0,100.0,167.5,91.5,174.5,83.0,182.0,75.5,189.5,67.5,197.5,59.5,205.0,51.0,212.5,43.0,220.0,35.0,228.0,26.5,236.0,18.0,243.5,10.5,251.5" stroke="black" stroke-width="2" fill="none" />
<polyline points="3.5,245.5,11.5,245.0,19.5,244.5,27.5,244.0,35.5,243.0,43.0,242.0,51.0,241.5,59.0,241.0,67.0,240.0,75.5,239.5,83.5,239.0" stroke="black" stroke-width="2" fill="none" />
<polyline points="84.0,232.0,75.5,232.5,67.0,233.5,59.0,234.0,50.5,234.5,42.5,235.0,34.5,236.0,27.5,237.5,20.0,238.0,12.5,238.5,4.5,239.0" stroke="black" stroke-width="2" fill="none" />
<polyline points="4.0,238.0,11.5,230.0,19.0,223.0,26.5,215.5,34.5,208.0,42.0,200.0,49.5,193.0,57.0,185.5,65.0,178.5,72.5,171.0,80.5,163.5" stroke="black" stroke-width="2" fill="none" />
<polyline points="69.0,155.0,61.5,163.0,53.0,170.5,44.5,178.0,36.5,185.0,28.0,192.5,20.0,200.5,11.5,208.0,3.5,215.5" stroke="black" stroke-width="2" fill="none" />
<polyline points="4.5,217.0,12.5,217.0,20.5,216.5,28.0,216.5,35.5,216.0,43.5,216.5,51.5,216.0,59.5,215.0,67.5,214.0,75.5,213.5" stroke="black" stroke-width="2" fill="none" />
<polyline points="73.5,212.5,67.5,224.5" stroke="black" stroke-width="2" fill="none" />
<polyline points="34.5,264.5,26.5,264.5" stroke="black" stroke-width="2" fill="none" />
<polyline points="26.5,257.0,34.0,257.0,42.0,257.0" stroke="black" stroke-width="2" fill="none" />
<polyline points="35.5,272.0,27.5,272.5" stroke="black" stroke-width="2" fill="none" />
<polyline points="27.5,287.5,36.0,287.5" stroke="black" stroke-width="2" fill="none" />
<polyline points="37.0,306.5,45.0,299.0,52.5,292.0,60.5,284.5" stroke="black" stroke-width="2" fill="none" />
<polyline points="51.0,305.5,59.5,304.5,68.0,304.5,76.0,304.0,84.0,303.5" stroke="black" stroke-width="2" fill="none" />
<polyline points="59.5,333.0,52.0,333.0,43.5,333.5" stroke="black" stroke-width="2" fill="none" />
<polyline points="33.5,325.5,41.5,325.0,50.5,324.0,58.5,323.5" stroke="black" stroke-width="2" fill="none" />
<polyline points="26.5,316.0,35.0,315.5,43.5,315.5,51.5,315.5,60.0,315.5,68.0,315.0,76.5,314.5,84.0,313.5,92.0,312.0,100.0,311.0,108.5,310.5,116.5,310.5,124.5,311.0,133.0,311.0,141.0,311.0,148.5,311.0,156.5,311.0,164.5,310.5,172.5,309.5,180.0,309.5,188.0,309.0,196.0,308.0,204.0,307.0,212.0,306.0,219.5,305.0,227.5,304.5,235.0,304.0,242.5,304.0,250.0,303.5,257.5,303.5,265.5,303.0,273.5,302.0,281.5,301.5,289.5,301.5,298.0,301.5,306.5,301.0,314.5,300.5,323.0,299.5,331.0,299.0,339.0,299.0,347.0,298.5,355.0,297.5,363.5,296.5,371.5,295.5,380.0,294.5,388.5,294.0,396.5,293.5,404.5,293.5" stroke="black" stroke-width="2" fill="none" />
<polyline points="468.0,185.5,457.5,197.5,457.5,195.5,469.5,185.0" stroke="black" stroke-width="2" fill="none" />
<polyline points="492.5,169.0,504.5,167.5,512.0,173.5,509.0,185.5" stroke="black" stroke-width="2" fill="none" />
<polyline points="512.0,24.5,512.0,12.5,507.5,3.0,495.5,3.0,483.5,2.5,471.5,2.5,459.5,2.5,447.5,2.5,436.0,3.0,424.0,3.5,412.5,4.0,400.5,3.5,388.5,3.5,376.5,3.5,364.5,3.5,352.5,3.5,340.5,3.5,329.0,3.0,317.0,3.0,304.5,2.5,292.5,2.5,280.5,2.5,268.5,2.5,256.0,2.5,244.0,2.5,232.0,3.5" stroke="black" stroke-width="2" fill="none" />
<polyline points="235.5,2.0,227.5,9.5,219.0,17.0" stroke="black" stroke-width="2" fill="none" />
<polyline points="220.0,18.5,228.0,18.0,236.0,16.5,244.0,16.0" stroke="black" stroke-width="2" fill="none" />
<polyline points="243.5,10.0,235.5,18.0,227.0,25.5,219.0,32.5,211.0,40.5,203.5,48.5,195.5,56.0,187.5,64.0,179.5,71.5,171.0,78.5" stroke="black" stroke-width="2" fill="none" />
<polyline points="170.0,80.5,178.0,80.0,186.0,79.0,194.5,78.5" stroke="black" stroke-width="2" fill="none" />
<polyline points="197.0,70.0,189.0,70.0,181.0,70.0,172.5,70.0,164.5,70.5,156.5,71.0" stroke="black" stroke-width="2" fill="none" />
<polyline points="163.0,78.5,171.0,70.5,179.0,63.0,187.5,55.0,195.5,47.5,203.5,40.5,211.0,32.5,219.0,25.0,227.0,17.5,235.0,10.5,243.5,2.5" stroke="black" stroke-width="2" fill="none" />
<polyline points="227.5,2.5,219.5,10.0" stroke="black" stroke-width="2" fill="none" />
<polyline points="219.5,11.0,227.5,10.5,236.0,9.5" stroke="black" stroke-width="2" fill="none" />
<polyline points="220.0,13.5,228.0,13.5,236.0,13.0,243.5,13.0,251.5,12.5,259.5,11.5,267.5,11.0,275.5,10.0,283.0,9.5,291.5,9.0,299.5,8.5,307.5,8.0,316.0,8.0,324.5,7.5,332.5,7.5,341.0,7.5,348.5,6.5,355.5,5.5,363.0,4.5,370.5,3.5,378.5,3.0,386.5,2.5,395.0,2.0,404.0,1.5,412.5,1.0,421.0,0.5,429.5,0.0,437.5,0.0,445.0,-0.5,452.5,-0.5,460.5,-1.5,468.5,-2.0,476.5,-2.5,484.5,-3.0,492.5,-3.5,500.5,-4.0,508.0,-4.5,515.5,-5.0" stroke="black" stroke-width="2" fill="none" />
<polyline points="486.5,11.5,474.0,8.5,468.0,6.0" stroke="black" stroke-width="2" fill="none" />
<polyline points="299.5,77.0,299.5,65.5,286.0,53.5" stroke="black" stroke-width="2" fill="none" />
<polyline points="276.5,50.5,264.0,62.5,262.5,74.5,269.5,86.5" stroke="black" stroke-width="2" fill="none" />
<polyline points="259.5,140.0,251.5,140.5" stroke="black" stroke-width="2" fill="none" />
<polyline points="243.5,140.0,231.5,134.0,219.5,137.0,207.0,132.5,195.0,129.5,183.0,133.0,171.5,139.5,160.0,135.0,148.0,136.5,136.0,148.5" stroke="black" stroke-width="2" fill="none" />
<polyline points="146.0,135.0,138.0,135.5,130.0,135.5,122.0,136.0,113.5,136.0" stroke="black" stroke-width="2" fill="none" />
<polyline points="114.5,132.0,122.5,132.0,131.0,132.0,139.5,131.5,148.5,130.5,156.5,130.0,164.5,129.0,172.5,128.0,180.0,127.5,187.0,127.0" stroke="black" stroke-width="2" fill="none" />
<polyline points="186.0,124.5,177.5,132.5" stroke="black" stroke-width="2" fill="none" />
<polyline points="170.5,129.5,178.0,122.0" stroke="black" stroke-width="2" fill="none" />
<polyline points="188.5,130.0,178.0,142.0" stroke="black" stroke-width="2" fill="none" />
<polyline points="203.0,184.5,195.5,185.0,187.0,185.5,179.0,185.5,171.5,185.5,163.5,186.0,155.5,186.5,147.5,187.5,139.5,188.0,131.5,188.0,123.5,188.5,115.5,188.5,107.0,189.0,98.0,190.0,90.0,190.5,82.0,191.5,74.0,191.5,66.0,192.5,58.0,193.5,50.5,195.0,42.5,196.0,34.5,196.5,27.0,197.0,19.0,197.5,11.0,198.0,2.5,199.0" stroke="black" stroke-width="2" fill="none" />
<polyline points="1.0,200.0,9.0,192.5,17.0,185.0,25.5,177.5,34.0,169.5,42.5,162.5,51.0,155.0,58.5,147.5,66.5,140.5" stroke="black" stroke-width="2" fill="none" />
<polyline points="67.5,133.0,59.5,140.5,51.5,148.0,43.5,155.5,35.0,163.0,27.0,170.5,19.0,178.0,11.5,185.5,3.5,192.5" stroke="black" stroke-width="2" fill="none" />
<polyline points="2.5,194.0,10.5,193.5,18.5,192.5,26.5,192.0,34.5,191.5,42.5,190.5,51.0,190.0,59.0,189.5,67.0,188.5,74.5,187.5,82.5,187.0,91.0,186.5,99.5,186.5,107.5,186.5,116.0,186.5,124.0,186.0,132.5,185.5,140.0,184.5,148.0,183.0,156.0,182.0,164.5,181.5,172.5,181.5" stroke="black" stroke-width="2" fill="none" />
<polyline points="131.0,204.5,122.5,205.0,114.5,206.0,106.5,207.0,98.0,208.0,89.0,208.5,80.5,209.0,73.5,209.5,65.5,209.5,57.5,209.0,49.5,209.0,41.5,209.0,33.5,209.5,25.5,210.0,18.0,210.5,10.5,211.5,2.5,212.0" stroke="black" stroke-width="2" fill="none" />
<polyline points="3.0,210.0,11.0,209.0,19.0,208.5,27.0,207.5,35.5,206.5,44.0,206.5,51.5,205.5,59.0,205.0,66.5,204.5,73.5,204.5,81.5,204.5" stroke="black" stroke-width="2" fill="none" />
<polyline points="68.5,222.5,60.0,223.5,51.5,224.0,44.0,225.0,36.0,225.0,27.5,225.0,19.5,225.5,11.5,226.0,3.5,226.5" stroke="black" stroke-width="2" fill="none" />
<polyline points="3.5,237.5,3.5,249.5,3.5,262.0,4.0,274.0,4.0,285.5,4.5,297.5,4.5,309.5,4.5,321.5,4.0,333.5,11.0,339.0,22.5,339.0,35.0,339.0" stroke="black" stroke-width="2" fill="none" />
<polyline points="19.5,328.0,31.5,328.0,43.5,336.5,55.5,339.5,67.5,339.5,79.5,339.5,92.0,339.5,103.5,339.0,115.5,339.0,121.5,325.5,124.5,338.5,137.0,339.0,149.0,339.0,161.0,339.5,173.5,339.5" stroke="black" stroke-width="2" fill="none" />
<polyline points="210.0,280.5,202.5,281.0,194.5,281.5,187.0,281.5,179.5,282.0,172.0,282.5,164.0,283.5,156.0,284.0,148.0,284.5,140.0,285.0,132.0,285.0,124.0,286.0,116.0,286.0,107.5,287.0,99.5,288.0,91.5,288.0,83.5,288.5,75.5,289.0,66.5,289.0,58.0,289.5,50.0,290.0,42.5,290.5,34.0,290.5,26.5,290.5,18.5,291.0,11.0,292.0,3.0,293.0" stroke="black" stroke-width="2" fill="none" />
<polyline points="4.5,286.5,17.0,304.5" stroke="black" stroke-width="2" fill="none" />
<polyline points="2.0,284.5,10.5,284.0,18.5,284.0,26.0,283.5,34.0,283.0,42.0,283.0,50.0,283.0,58.5,283.0,67.0,283.0,75.0,283.0,83.0,283.0,91.5,282.0,99.5,281.0,107.0,279.5,115.0,278.5,123.5,277.5,131.5,277.0,139.5,277.0,148.0,277.0,156.0,276.5,163.5,276.0,171.5,275.5,179.5,275.0,187.5,274.0,195.0,273.5,203.0,273.5,211.0,273.0" stroke="black" stroke-width="2" fill="none" />
<polyline points="211.5,264.0,203.0,264.0,195.0,264.5,186.5,265.0,178.5,265.0,171.0,265.0,163.0,265.5,155.0,266.0,147.0,267.0,139.0,268.0,131.0,270.0,123.5,271.0,115.5,272.0,108.0,272.5,100.0,273.0,92.0,274.0,84.0,275.0,76.0,275.0,67.5,274.5,59.0,275.0,50.0,275.0,42.0,275.0,34.0,275.5,26.5,275.5,18.5,276.0,10.0,276.5,2.5,277.0" stroke="black" stroke-width="2" fill="none" />
<polyline points="2.5,332.5,10.0,332.0" stroke="black" stroke-width="2" fill="none" />
<polyline points="2.5,208.5,10.5,200.5,19.0,193.0,27.0,185.5,35.5,177.5,43.5,170.0,52.0,163.0,60.5,156.0,69.5,148.5" stroke="black" stroke-width="2" fill="none" />
<polyline points="68.5,145.5,60.5,146.0,53.0,146.5" stroke="black" stroke-width="2" fill="none" />
<polyline points="54.0,138.5,62.0,138.5" stroke="black" stroke-width="2" fill="none" />
<polyline points="66.5,152.0,58.0,153.0,49.0,153.5,40.5,154.0" stroke="black" stroke-width="2" fill="none" />
<polyline points="29.0,138.5,21.0,146.0,13.5,153.5,5.5,160.5" stroke="black" stroke-width="2" fill="none" />
<polyline points="3.0,162.0,11.0,161.5,18.5,160.5,26.5,160.0,34.5,159.0,42.5,158.0,50.5,157.5,58.5,157.0,67.0,156.5" stroke="black" stroke-width="2" fill="none" />
<polyline points="66.0,153.0,58.0,153.5,50.0,154.0,42.0,154.5,34.0,155.0,26.0,155.5,18.0,156.0,10.5,157.0,2.0,157.5" stroke="black" stroke-width="2" fill="none" />
<polyline points="4.0,156.0,11.5,148.0,19.0,140.5" stroke="black" stroke-width="2" fill="none" />
<polyline points="11.5,141.0,3.5,148.5" stroke="black" stroke-width="2" fill="none" />
<polyline points="2.0,150.5,10.0,149.5,18.5,148.5,27.0,148.0,35.0,147.5,43.0,147.0,51.5,147.0,59.5,146.5,67.5,146.5" stroke="black" stroke-width="2" fill="none" />
<polyline points="66.0,152.5,78.0,164.5,89.5,164.5,101.5,156.5" stroke="black" stroke-width="2" fill="none" />
<polyline points="106.0,130.5,114.0,122.5" stroke="black" stroke-width="2" fill="none" />
<polyline points="114.5,116.0,106.5,123.0" stroke="black" stroke-width="2" fill="none" />
<polyline points="108.5,126.5,116.5,126.5,124.5,126.0,132.0,125.0,139.5,124.0,147.0,123.0,154.5,122.0,162.5,121.0,170.5,120.5,178.5,120.0,187.0,119.5,195.0,119.0,203.0,118.0,211.0,117.5,219.5,116.5,228.0,116.0,235.5,116.0" stroke="black" stroke-width="2" fill="none" />
<polyline points="252.0,107.0,244.0,107.5,235.5,108.0,227.5,109.0,219.5,109.5,211.5,110.5,203.5,110.5,195.5,111.0,187.5,112.0,179.0,112.5,171.5,113.0,163.5,113.0,155.5,113.5,148.0,114.0,140.5,114.5,132.5,115.0,124.0,116.0,115.5,116.5,107.5,117.0,99.5,117.0" stroke="black" stroke-width="2" fill="none" />
<polyline points="98.0,116.5,106.5,109.0" stroke="black" stroke-width="2" fill="none" />
<polyline points="108.0,115.0,100.0,123.0" stroke="black" stroke-width="2" fill="none" />
<polyline points="99.5,119.5,107.5,119.0,114.5,118.5" stroke="black" stroke-width="2" fill="none" />
<polyline points="122.5,122.0,115.0,129.5" stroke="black" stroke-width="2" fill="none" />
<polyline points="116.0,130.5,108.5,131.0" stroke="black" stroke-width="2" fill="none" />
<polyline points="107.5,114.0,99.5,115.0,91.0,116.0" stroke="black" stroke-width="2" fill="none" />
<polyline points="93.0,116.5,105.0,121.0" stroke="black" stroke-width="2" fill="none" />
<polyline points="92.5,114.0,100.0,106.5" stroke="black" stroke-width="2" fill="none" />
<polyline points="100.0,107.0,92.0,108.0" stroke="black" stroke-width="2" fill="none" />
<polyline points="83.0,109.5,75.5,117.0,67.5,124.0,59.5,131.0,51.5,138.0,44.0,145.0,36.0,152.5,28.5,159.5,20.5,166.5,13.0,174.5,4.5,182.0" stroke="black" stroke-width="2" fill="none" />
<polyline points="5.0,182.0,13.0,181.5,21.5,181.0,29.0,180.5,36.5,179.5,44.0,178.5,51.5,178.0,59.5,177.0,67.0,176.5,74.5,176.0,82.5,175.5,90.5,175.5,98.0,175.0,106.0,174.5,114.0,174.0,122.5,173.5,130.5,173.0,138.5,172.0,147.0,171.5,155.0,171.5,163.0,170.5,171.5,170.5,179.0,169.5" stroke="black" stroke-width="2" fill="none" />
<polyline points="210.5,191.0,202.5,192.5,194.5,193.5,187.0,194.5,179.0,195.5,171.0,196.0,163.0,197.0,155.0,197.0,147.0,196.5,139.0,196.5,132.0,196.5,124.0,196.5,116.0,197.0,108.0,197.5,100.5,198.0,92.0,198.5,84.0,199.0,76.0,199.5,68.0,199.5,60.0,200.0,52.0,201.0,44.0,202.0,36.5,203.0,28.5,204.0,20.5,205.0,12.5,205.5,5.0,206.5" stroke="black" stroke-width="2" fill="none" />
<polyline points="3.5,202.5,11.5,201.5,19.5,201.0,27.5,200.0,35.5,199.5,43.5,198.5,51.0,198.0,59.0,196.5,67.5,196.0,76.0,195.5,84.0,195.0,92.0,194.5,100.0,194.0,108.0,194.0,116.0,193.5,124.0,193.0,132.0,193.0,139.5,193.0,148.0,192.5" stroke="black" stroke-width="2" fill="none" />
<polyline points="164.5,176.0,156.0,176.0,148.0,176.0,140.0,176.5,131.5,177.0,123.5,177.5,116.0,177.5,108.0,178.5,100.0,179.0,91.5,179.0,83.5,179.5,75.5,180.5,68.0,181.5,60.0,182.0,52.0,183.0,44.5,183.5,36.0,184.5,27.5,185.0,19.0,185.0,11.0,185.0,3.0,185.5" stroke="black" stroke-width="2" fill="none" />
<polyline points="0.5,191.0,9.0,190.5,17.0,189.5,25.5,188.0,34.5,187.0,43.0,186.0,51.5,185.5,60.0,184.5,68.0,184.0,76.0,183.0,83.5,182.5,92.0,182.5,100.5,182.0,109.0,181.5,117.5,181.5,125.5,181.0,134.0,180.5,142.0,180.0,150.0,179.5,158.0,179.0,166.0,179.0,174.0,178.0,182.0,177.0,189.5,176.5,197.5,176.5" stroke="black" stroke-width="2" fill="none" />
<polyline points="146.0,167.5,138.5,168.5,130.5,169.0,122.5,169.5,114.5,170.5,106.0,171.5,98.0,172.0,90.0,172.0,82.5,172.0,74.5,173.0,66.5,174.0,58.5,174.5,50.5,175.0,42.5,176.0,35.0,176.0,27.5,176.5,19.5,176.5,11.5,176.5,3.5,177.0" stroke="black" stroke-width="2" fill="none" />
<polyline points="4.0,176.5,12.0,169.0,19.5,162.0,27.0,154.5,34.5,147.0,42.0,139.0,49.5,131.0,57.0,123.0,65.0,116.0" stroke="black" stroke-width="2" fill="none" />
<polyline points="60.5,115.5,52.0,123.0,44.0,130.0,35.5,137.5,26.5,145.0,19.0,152.0,11.0,159.5,3.5,167.5" stroke="black" stroke-width="2" fill="none" />
<polyline points="3.0,169.0,11.5,169.0,19.5,169.0,28.0,168.5,36.5,167.5,45.0,167.0,53.0,166.5,60.5,166.0,68.0,165.0,75.0,164.5,83.0,163.5" stroke="black" stroke-width="2" fill="none" />
<polyline points="84.5,113.5,92.0,105.5,100.0,97.5" stroke="black" stroke-width="2" fill="none" />
<polyline points="99.0,90.5,91.5,98.5" stroke="black" stroke-width="2" fill="none" />
<polyline points="84.5,91.5,93.0,84.0" stroke="black" stroke-width="2" fill="none" />
<polyline points="84.5,86.0,76.5,93.5" stroke="black" stroke-width="2" fill="none" />
<polyline points="83.5,90.0,100.5,104.0" stroke="black" stroke-width="2" fill="none" />
<polyline points="75.5,82.0,67.5,89.5" stroke="black" stroke-width="2" fill="none" />
<polyline points="63.0,86.5,49.0,98.5,44.0,110.5,47.0,122.5,57.5,135.0,61.5,147.0,64.5,158.5" stroke="black" stroke-width="2" fill="none" />
<polyline points="34.5,132.0,42.0,125.0,50.0,117.5" stroke="black" stroke-width="2" fill="none" />
<polyline points="48.0,121.0,60.0,134.5,71.5,121.0,83.5,114.5,70.0,122.0" stroke="black" stroke-width="2" fill="none" />
<polyline points="50.0,108.5,42.5,116.0,35.0,123.5,27.0,131.0" stroke="black" stroke-width="2" fill="none" />
<polyline points="25.0,122.5,33.5,115.0,42.0,107.0,50.5,99.0" stroke="black" stroke-width="2" fill="none" />
<polyline points="45.5,104.5,57.5,89.5,69.5,86.5,81.5,89.0,86.0,96.5,89.0,108.5,102.5,124.5,108.5,136.0,108.5,148.0,100.0,160.0" stroke="black" stroke-width="2" fill="none" />
<polyline points="147.0,163.0,139.0,164.0,131.0,165.0,123.0,165.5,115.0,166.0,107.0,166.5,98.5,167.5,90.5,168.0,82.5,168.0,75.0,168.5,66.5,169.5,59.0,170.0,51.0,170.5,43.0,171.0,35.0,171.5,27.0,172.0,18.5,173.0,10.5,173.0,3.0,173.5" stroke="black" stroke-width="2" fill="none" />
<polyline points="2.5,165.0,11.0,164.5,19.0,164.0,27.5,163.0,36.0,161.5,44.5,161.0,52.5,160.0,60.5,160.0,68.5,159.5,76.5,158.5,84.0,158.5" stroke="black" stroke-width="2" fill="none" />
<polyline points="67.5,138.0,59.5,138.5,51.5,139.5,43.5,140.0,35.0,140.0,26.0,140.0,17.5,140.5,9.0,141.0,1.5,141.5" stroke="black" stroke-width="2" fill="none" />
<polyline points="4.5,137.5,12.0,130.5,19.0,123.0,26.5,115.5" stroke="black" stroke-width="2" fill="none" />
<polyline points="12.0,116.5,4.0,124.0" stroke="black" stroke-width="2" fill="none" />
<polyline points="2.5,124.5,10.5,123.5,18.5,123.0,26.0,122.5,33.5,122.0,41.5,122.0,49.5,121.0,57.5,120.5,65.5,120.0" stroke="black" stroke-width="2" fill="none" />
<polyline points="61.0,89.5,70.0,82.0,78.5,74.5" stroke="black" stroke-width="2" fill="none" />
<polyline points="69.0,69.5,61.5,76.5,53.5,83.5,45.5,91.0,37.0,98.0" stroke="black" stroke-width="2" fill="none" />
<polyline points="43.0,100.0,51.0,92.5,59.0,85.0,66.5,78.0" stroke="black" stroke-width="2" fill="none" />
<polyline points="57.5,68.0,49.5,75.5,42.0,82.5,34.5,90.0" stroke="black" stroke-width="2" fill="none" />
<polyline points="42.5,75.5,51.0,68.0" stroke="black" stroke-width="2" fill="none" />
<polyline points="52.0,61.5,44.0,69.0" stroke="black" stroke-width="2" fill="none" />
<polyline points="35.5,68.5,43.5,61.0,51.5,54.0" stroke="black" stroke-width="2" fill="none" />
<polyline points="50.0,45.0,42.5,53.0,34.5,60.5" stroke="black" stroke-width="2" fill="none" />
<polyline points="34.5,60.5,37.5,72.5,33.0,84.5,23.0,94.5,34.5,81.0" stroke="black" stroke-width="2" fill="none" />
<polyline points="26.5,69.0,34.5,69.0,42.5,68.5,51.0,67.5,59.0,67.0,67.0,66.5,75.0,66.0,83.0,65.0" stroke="black" stroke-width="2" fill="none" />
<polyline points="59.0,27.5,51.0,35.0,43.5,43.0,36.0,50.5" stroke="black" stroke-width="2" fill="none" />
<polyline points="36.0,52.0,44.0,51.5,52.0,51.0,60.0,51.0,68.0,50.5" stroke="black" stroke-width="2" fill="none" />
<polyline points="59.5,18.5,51.0,26.5,43.5,34.0,35.5,41.5" stroke="black" stroke-width="2" fill="none" />
<polyline points="34.0,44.5,42.0,43.5,50.0,43.0,59.0,42.0,67.5,41.5" stroke="black" stroke-width="2" fill="none" />
<polyline points="75.5,12.5,84.0,5.0" stroke="black" stroke-width="2" fill="none" />
<polyline points="84.0,11.0,91.5,3.5" stroke="black" stroke-width="2" fill="none" />
<polyline points="91.5,10.0,99.5,9.5,107.5,9.0,115.5,8.5,123.5,8.5" stroke="black" stroke-width="2" fill="none" />
<polyline points="124.5,4.5,116.0,11.5,107.5,18.5" stroke="black" stroke-width="2" fill="none" />
<polyline points="116.0,18.0,124.0,9.5,132.0,2.0" stroke="black" stroke-width="2" fill="none" />
<polyline points="131.0,4.0,143.0,4.0" stroke="black" stroke-width="2" fill="none" />
<polyline points="140.0,3.0,131.5,10.5" stroke="black" stroke-width="2" fill="none" />
<polyline points="148.0,18.5,156.5,10.5,165.0,3.0" stroke="black" stroke-width="2" fill="none" />
<polyline points="163.5,7.5,171.0,7.0,179.5,7.0" stroke="black" stroke-width="2" fill="none" />
<polyline points="180.0,5.5,171.5,13.0,163.5,19.5,155.5,27.0" stroke="black" stroke-width="2" fill="none" />
<polyline points="165.0,27.5,173.5,20.0,181.5,12.5" stroke="black" stroke-width="2" fill="none" />
<polyline points="180.0,10.5,171.5,10.5,163.0,11.5,155.0,12.0,147.0,13.0,139.0,14.0,130.5,14.0,122.5,15.0,114.5,15.5,107.0,16.0,99.0,16.5,91.0,16.5,83.5,17.0,75.0,17.5,66.5,18.5,58.5,19.0,50.0,19.5,41.5,19.5,34.0,19.5,25.5,19.0,18.0,19.5,10.0,20.0,2.0,20.0" stroke="black" stroke-width="2" fill="none" />
<polyline points="4.5,20.5,13.0,13.0,20.5,6.0" stroke="black" stroke-width="2" fill="none" />
<polyline points="26.0,4.5,18.0,12.0,10.5,19.0,2.5,26.5" stroke="black" stroke-width="2" fill="none" />
<polyline points="2.5,25.5,10.5,25.0,18.5,24.5,27.0,24.0" stroke="black" stroke-width="2" fill="none" />
<polyline points="28.5,33.0,36.5,26.0,45.0,18.5,53.0,11.0,61.0,3.5" stroke="black" stroke-width="2" fill="none" />
<polyline points="61.5,11.5,53.5,19.0,45.0,26.5,37.0,34.0,29.0,41.5" stroke="black" stroke-width="2" fill="none" />
<polyline points="28.0,35.5,36.0,35.0,44.5,35.0,52.5,34.5,60.5,33.5,68.5,33.0" stroke="black" stroke-width="2" fill="none" />
<polyline points="98.5,19.0,106.5,11.5,114.0,3.5" stroke="black" stroke-width="2" fill="none" />
<polyline points="105.0,4.0,97.5,12.0,89.5,19.5" stroke="black" stroke-width="2" fill="none" />
<polyline points="91.0,12.0,99.0,4.5" stroke="black" stroke-width="2" fill="none" />
<polyline points="141.5,10.0,149.5,2.5" stroke="black" stroke-width="2" fill="none" />
<polyline points="157.0,5.0,148.5,13.0" stroke="black" stroke-width="2" fill="none" />
<polyline points="154.5,20.0,163.0,12.5,171.0,5.5" stroke="black" stroke-width="2" fill="none" />
<polyline points="176.0,9.5,188.0,3.0,199.5,3.0,211.5,2.5,216.0,7.5,214.5,20.0" stroke="black" stroke-width="2" fill="none" />
<polyline points="210.5,31.5,218.5,31.0,226.5,31.0,235.0,31.0" stroke="black" stroke-width="2" fill="none" />
<polyline points="219.5,4.5,227.5,4.0,235.0,4.0,243.0,4.0,251.5,4.0,259.5,4.0,267.5,3.5,275.5,3.0" stroke="black" stroke-width="2" fill="none" />
<polyline points="204.5,36.0,196.5,44.0,188.5,51.0,180.0,58.5,171.5,65.0,163.5,72.5,155.5,80.0" stroke="black" stroke-width="2" fill="none" />
<polyline points="143.5,81.5,155.5,77.0,168.0,80.0,180.0,87.5,196.5,87.0" stroke="black" stroke-width="2" fill="none" />
<polyline points="210.0,71.0,202.0,71.5,194.5,72.0,187.0,73.0,179.5,73.5,172.0,74.0,164.0,74.5,156.0,75.5,148.0,76.0,140.0,76.5,131.5,77.0" stroke="black" stroke-width="2" fill="none" />
<polyline points="131.0,71.0,139.0,70.0,147.0,69.5,155.0,68.5,162.5,67.5,170.5,66.5,178.5,65.0,186.0,64.0,194.5,63.0,202.5,62.0,211.0,61.5,219.0,61.5" stroke="black" stroke-width="2" fill="none" />
<polyline points="220.0,48.5,212.0,49.5,204.0,50.0,196.0,50.5,188.0,51.0,180.0,51.0,172.0,51.5,163.5,52.0,155.0,52.0,146.5,52.5,138.0,53.0" stroke="black" stroke-width="2" fill="none" />
<polyline points="132.5,61.0,140.0,61.0,147.5,60.5,155.5,60.0,163.5,59.5,171.0,59.0,179.5,58.0,187.5,57.5,195.5,57.0,203.5,56.5,211.5,55.5" stroke="black" stroke-width="2" fill="none" />
<polyline points="195.5,55.5,187.5,56.0,179.5,57.0,171.0,57.5" stroke="black" stroke-width="2" fill="none" />
<polyline points="195.5,65.5,195.5,77.5,192.5,93.0,192.5,105.0" stroke="black" stroke-width="2" fill="none" />
<polyline points="232.5,136.5,247.5,148.5,247.0,161.0" stroke="black" stroke-width="2" fill="none" />
<polyline points="209.0,252.5,202.5,264.5,204.0,277.0,206.0,288.5,209.0,300.5,216.5,309.5,236.0,320.0" stroke="black" stroke-width="2" fill="none" />
<polyline points="121.5,209.0,109.5,216.5,124.0,206.0" stroke="black" stroke-width="2" fill="none" />
<polyline points="9.5,125.5,1.5,132.5" stroke="black" stroke-width="2" fill="none" />
<polyline points="2.5,132.5,10.5,132.5,18.0,132.0,25.5,132.0,33.5,132.0,42.0,131.5,50.0,131.0,58.0,130.5,66.5,129.5" stroke="black" stroke-width="2" fill="none" />
<polyline points="74.5,111.5,66.5,112.0,58.5,112.5,50.0,113.0,42.0,114.0,34.5,115.0,26.5,115.5,19.0,116.5,12.0,117.5,4.5,118.0" stroke="black" stroke-width="2" fill="none" />
<polyline points="5.0,112.0,13.0,111.0,20.5,110.0,28.0,109.0,36.0,108.0,43.5,107.0,51.5,106.0,59.5,105.0,67.5,104.5,75.0,104.5,83.0,104.0,91.0,103.0,98.5,102.0,106.5,101.5,114.0,101.5,122.5,101.5,130.0,101.0" stroke="black" stroke-width="2" fill="none" />
<polyline points="142.0,29.0,149.5,28.5,157.5,28.0,165.0,27.5,172.5,27.0,180.0,27.0,188.0,26.5" stroke="black" stroke-width="2" fill="none" />
<polyline points="51.5,4.0,43.5,12.0,35.5,19.5,28.0,27.0,19.5,34.5" stroke="black" stroke-width="2" fill="none" />
<polyline points="19.5,33.5,28.5,45.5,28.5,57.5,19.5,69.5,12.0,74.0,24.0,65.0" stroke="black" stroke-width="2" fill="none" />
<polyline points="27.0,60.5,35.5,60.0,43.5,60.0,52.0,59.5,60.0,58.5,68.5,58.0,76.5,57.5" stroke="black" stroke-width="2" fill="none" />
<polyline points="44.0,63.5,36.0,64.0" stroke="black" stroke-width="2" fill="none" />
<polyline points="3.0,77.5,10.5,76.5,19.0,76.0,27.0,75.5,35.0,74.5,43.0,73.5,51.0,73.0,59.0,72.5,67.0,72.0,75.0,71.0,82.5,70.0,90.5,69.5" stroke="black" stroke-width="2" fill="none" />
<polyline points="44.0,4.0,36.0,11.5,28.5,19.5,21.0,27.0,13.0,34.5" stroke="black" stroke-width="2" fill="none" />
<polyline points="7.5,30.0,3.0,42.0,3.0,54.5,3.0,66.5,3.5,79.0,3.5,91.5,3.5,103.5,3.5,115.5,3.5,127.5,3.5,139.5" stroke="black" stroke-width="2" fill="none" />
<polyline points="5.0,101.5,13.0,101.0,20.5,100.5,28.5,100.0,36.0,99.0,43.5,98.5,51.5,97.5,59.0,97.0,66.5,96.5,74.5,96.5,82.0,95.5,90.5,95.0,98.5,95.0,106.0,94.5,114.0,94.0" stroke="black" stroke-width="2" fill="none" />
<polyline points="106.5,86.5,98.5,87.0,90.0,87.5,82.5,88.0,74.0,88.5,66.0,89.5,58.0,90.5,50.0,91.5,42.5,92.0,35.0,92.5,27.0,93.0,19.5,93.5,12.5,94.0,5.0,94.5" stroke="black" stroke-width="2" fill="none" />
<polyline points="3.5,84.0,11.5,83.5,19.5,84.0,27.0,83.5,35.0,82.5,43.0,82.0,50.5,81.5,58.5,81.0,66.5,81.0,75.0,81.0,83.0,80.5,91.0,79.5,99.0,79.5,106.5,79.0" stroke="black" stroke-width="2" fill="none" />
<polyline points="38.0,4.0,30.0,12.0,22.0,19.0,14.0,26.0,6.0,33.0" stroke="black" stroke-width="2" fill="none" />
<polyline points="3.0,30.0,11.0,30.0,18.0,29.5,26.0,29.0,34.0,28.0,42.5,27.5,50.5,27.0,58.5,26.5,67.0,26.0,75.5,25.0" stroke="black" stroke-width="2" fill="none" />
<polyline points="34.0,30.5,26.0,31.5,17.5,32.5,9.5,33.5,1.5,34.5" stroke="black" stroke-width="2" fill="none" />
<polyline points="2.0,35.0,13.5,30.5,26.0,34.0" stroke="black" stroke-width="2" fill="none" />
<polyline points="18.5,16.0,10.5,16.5,2.0,16.5" stroke="black" stroke-width="2" fill="none" />
<polyline points="1.0,13.0,9.5,13.0,18.0,13.5,27.0,13.0,35.5,12.5,43.5,12.0,52.5,11.5,61.0,11.0,69.0,10.0,77.5,9.5,85.0,9.0,93.0,8.5,101.5,8.0,109.5,7.5,117.5,7.5,125.5,7.0,133.5,6.5,141.0,6.0,149.5,5.5,157.5,5.0,166.0,4.5,174.0,4.5,182.0,4.5" stroke="black" stroke-width="2" fill="none" />
<polyline points="178.0,-5.0,169.0,-4.5,160.5,-4.0,153.5,-3.5,145.5,-3.5,137.5,-4.0,129.5,-4.0,121.5,-4.0,113.5,-3.5,105.5,-3.0,98.0,-2.5,90.5,-1.5,82.5,-1.0,74.0,-0.5,65.5,0.0,57.5,0.5,49.5,1.0,42.0,2.0,34.0,3.0,26.5,4.0,19.0,5.0,11.5,5.5,3.5,6.0" stroke="black" stroke-width="2" fill="none" />
<polyline points="4.5,10.5,12.5,3.0" stroke="black" stroke-width="2" fill="none" />
<polyline points="19.0,9.0,11.0,10.0,2.5,11.0" stroke="black" stroke-width="2" fill="none" />
<polyline points="36.0,4.5,48.0,4.0,60.5,4.0,72.0,4.5,84.0,4.5,99.0,15.0" stroke="black" stroke-width="2" fill="none" />
</svg>