<svg xmlns="http://www.w3.org/2000/svg" version="1.1"><polyline points="2.5,2.0,2.5,14.0,2.5,26.0,2.5,38.0,3.0,49.5,3.0,61.5,3.0,73.5,4.0,85.0,4.5,97.0,4.5,109.0,4.5,120.5,4.5,133.0,4.5,145.5,4.5,157.5,4.0,170.0,4.0,182.5,3.5,194.5,3.0,207.0,2.5,219.0,2.5,231.0,2.0,243.0,2.0,255.0,2.5,267.0,3.0,279.0,3.0,291.5,3.5,303.5,4.0,315.5,4.5,327.5,5.0,339.5,5.0,351.5,4.5,363.5,9.0,372.0,21.0,372.0,32.5,371.5,44.5,371.5,56.5,371.0,68.0,371.0,79.5,371.0,91.5,370.5,103.0,370.0,115.0,370.0,127.0,370.0,139.0,370.5,151.5,370.5,164.0,370.5,176.5,370.5,188.5,371.0,200.5,371.0,212.5,371.0,224.5,371.0,236.5,371.0,248.5,371.0,260.5,371.0,272.5,371.5,284.5,372.0,297.0,372.5,308.5,372.0,320.5,372.0,332.0,371.5,344.0,371.5,355.5,371.0,367.5,371.5,380.0,371.5,392.0,371.5,403.5,371.0,415.5,371.0,428.0,371.0,440.0,371.0,452.0,371.0,464.5,371.5,476.5,371.5,488.5,371.5,500.5,371.0" stroke="black" stroke-width="2" fill="none" />
<polyline points="357.5,268.0,349.5,275.5,341.5,283.5,333.5,291.5,325.0,298.5,317.0,306.0,308.0,313.5" stroke="black" stroke-width="2" fill="none" />
<polyline points="301.5,310.0,309.5,309.0,317.0,309.0" stroke="black" stroke-width="2" fill="none" />
<polyline points="299.5,313.5,307.5,306.0,315.0,298.0,322.5,290.5,330.0,283.0,338.5,275.5" stroke="black" stroke-width="2" fill="none" />
<polyline points="328.5,275.5,321.0,283.5,313.0,291.0,305.0,298.0,297.0,305.5" stroke="black" stroke-width="2" fill="none" />
<polyline points="291.0,305.5,299.5,298.0,307.5,291.0,315.0,283.5,323.5,276.5" stroke="black" stroke-width="2" fill="none" />
<polyline points="323.0,268.5,315.0,275.5,307.5,282.5,300.0,290.0,292.0,297.5,284.0,304.5" stroke="black" stroke-width="2" fill="none" />
<polyline points="284.0,304.0,292.0,303.5,299.5,303.0,307.5,302.5,316.5,302.5,324.5,301.5" stroke="black" stroke-width="2" fill="none" />
<polyline points="321.5,289.5,330.0,289.0,338.0,288.5" stroke="black" stroke-width="2" fill="none" />
<polyline points="330.5,283.5,338.5,283.0,347.0,283.0" stroke="black" stroke-width="2" fill="none" />
<polyline points="357.5,263.5,365.5,263.0" stroke="black" stroke-width="2" fill="none" />
<polyline points="338.0,253.5,330.0,253.5" stroke="black" stroke-width="2" fill="none" />
<polyline points="322.5,244.5,315.0,244.5" stroke="black" stroke-width="2" fill="none" />
<polyline points="323.5,254.0,315.0,254.5,307.0,255.5" stroke="black" stroke-width="2" fill="none" />
<polyline points="307.5,261.0,299.5,268.5,292.0,275.5,284.0,282.5,275.5,290.0" stroke="black" stroke-width="2" fill="none" />
<polyline points="274.5,290.0,286.5,305.0,298.5,311.0,310.0,311.0,322.0,302.5,334.0,291.0,346.0,274.5,347.5,273.0,338.5,285.0,329.0,296.5,314.0,308.0" stroke="black" stroke-width="2" fill="none" />
<polyline points="316.0,314.0,307.0,314.0,298.5,314.0" stroke="black" stroke-width="2" fill="none" />
<polyline points="283.0,300.5,291.5,300.0,300.5,299.5,309.0,299.5,317.5,299.5,326.0,299.0,333.5,298.5" stroke="black" stroke-width="2" fill="none" />
<polyline points="322.5,272.0,314.5,272.5" stroke="black" stroke-width="2" fill="none" />
<polyline points="317.0,268.5,309.0,276.0,300.0,283.0,292.0,290.5,284.0,298.0" stroke="black" stroke-width="2" fill="none" />
<polyline points="275.0,296.5,282.5,289.0,290.0,282.5,298.0,275.5,306.0,268.0" stroke="black" stroke-width="2" fill="none" />
<polyline points="293.5,269.0,285.0,276.0,276.5,283.5" stroke="black" stroke-width="2" fill="none" />
<polyline points="274.0,284.0,282.5,284.0,291.0,284.0,299.5,284.0,308.0,284.0,316.5,283.5,324.5,283.0,333.0,282.0,341.0,282.0" stroke="black" stroke-width="2" fill="none" />
<polyline points="339.5,260.0,331.5,260.5,324.0,260.5,316.5,260.5,309.0,260.5,301.0,261.0,293.0,261.0" stroke="black" stroke-width="2" fill="none" />
<polyline points="291.0,274.0,282.5,275.0" stroke="black" stroke-width="2" fill="none" />
<polyline points="282.0,268.5,290.5,268.5,298.5,268.0,307.0,267.0,315.5,266.5,323.5,265.5,331.5,265.5,339.0,265.0,347.0,265.0,355.0,264.0" stroke="black" stroke-width="2" fill="none" />
<polyline points="347.5,270.5,340.5,271.5,332.5,272.5,325.0,273.5,316.5,274.5,308.5,275.0,299.5,276.0,291.0,277.0,283.0,277.5,275.0,278.0" stroke="black" stroke-width="2" fill="none" />
<polyline points="276.0,279.5,284.0,279.0,292.5,278.5,300.5,277.5" stroke="black" stroke-width="2" fill="none" />
<polyline points="316.5,287.0,308.0,287.5,299.0,288.0,291.0,288.5,282.5,289.0,274.5,289.5" stroke="black" stroke-width="2" fill="none" />
<polyline points="274.5,292.5,282.5,292.5,291.0,291.5,299.0,291.0,307.0,290.5,315.0,289.5,323.5,289.0,331.5,288.5,339.5,288.5" stroke="black" stroke-width="2" fill="none" />
<polyline points="330.0,292.5,322.0,293.0,314.0,293.5,305.5,294.0,297.5,295.0,289.5,295.5,281.5,296.0,273.0,297.0" stroke="black" stroke-width="2" fill="none" />
<polyline points="272.5,285.0,284.0,271.5,296.0,261.0,307.5,252.0,319.0,241.5,331.0,228.0,342.5,217.5,354.5,207.0,366.5,198.0,378.5,184.5,390.5,175.5,378.5,186.0,365.0,198.0,350.0,209.5,339.5,221.5,323.0,233.0,312.5,245.0,299.0,256.5,283.5,268.5,271.5,280.5,270.5,292.5,280.5,304.5,295.0,317.0" stroke="black" stroke-width="2" fill="none" />
<polyline points="338.5,242.5,350.0,245.5" stroke="black" stroke-width="2" fill="none" />
<polyline points="352.5,228.5,352.5,228.0" stroke="black" stroke-width="2" fill="none" />
<polyline points="355.5,228.5,363.0,228.0" stroke="black" stroke-width="2" fill="none" />
<polyline points="370.0,228.5,378.0,227.5" stroke="black" stroke-width="2" fill="none" />
<polyline points="372.0,226.0,380.0,219.0" stroke="black" stroke-width="2" fill="none" />
<polyline points="379.0,211.0,387.0,210.5" stroke="black" stroke-width="2" fill="none" />
<polyline points="385.5,203.5,377.5,211.0" stroke="black" stroke-width="2" fill="none" />
<polyline points="378.0,207.5,385.5,207.0" stroke="black" stroke-width="2" fill="none" />
<polyline points="402.0,213.0,410.5,212.5" stroke="black" stroke-width="2" fill="none" />
<polyline points="409.0,210.0,417.0,209.0" stroke="black" stroke-width="2" fill="none" />
<polyline points="418.5,202.0,426.5,201.5" stroke="black" stroke-width="2" fill="none" />
<polyline points="426.5,201.5,435.0,194.5,443.5,187.0,452.0,180.0,460.0,172.5" stroke="black" stroke-width="2" fill="none" />
<polyline points="467.5,171.5,459.5,179.0,451.5,187.0" stroke="black" stroke-width="2" fill="none" />
<polyline points="450.5,188.0,442.5,188.5,434.5,189.0,426.5,190.0" stroke="black" stroke-width="2" fill="none" />
<polyline points="426.5,192.0,434.5,191.5,442.5,191.5" stroke="black" stroke-width="2" fill="none" />
<polyline points="446.5,186.0,428.5,198.0,422.5,202.5,434.5,194.0,447.0,186.5,459.0,185.0,471.0,174.5,482.5,171.5,494.5,165.5,506.5,155.0" stroke="black" stroke-width="2" fill="none" />
<polyline points="507.5,159.5,499.5,160.0,492.0,160.5" stroke="black" stroke-width="2" fill="none" />
<polyline points="492.0,157.0,500.0,156.5,508.0,156.0" stroke="black" stroke-width="2" fill="none" />
<polyline points="510.5,150.0,501.5,162.0" stroke="black" stroke-width="2" fill="none" />
<polyline points="498.5,168.5,490.0,168.0,482.0,168.5" stroke="black" stroke-width="2" fill="none" />
<polyline points="482.5,169.5,491.0,161.5,499.0,153.5,507.0,146.5,515.5,139.0" stroke="black" stroke-width="2" fill="none" />
<polyline points="516.5,138.5,508.0,139.0" stroke="black" stroke-width="2" fill="none" />
<polyline points="507.5,138.0,515.5,131.0" stroke="black" stroke-width="2" fill="none" />
<polyline points="516.5,129.0,508.5,130.0" stroke="black" stroke-width="2" fill="none" />
<polyline points="508.5,124.5,500.0,132.0,492.0,139.0" stroke="black" stroke-width="2" fill="none" />
<polyline points="492.0,133.0,499.5,132.5,507.5,132.5,515.5,132.0" stroke="black" stroke-width="2" fill="none" />
<polyline points="515.0,123.5,507.0,131.0,499.0,139.0" stroke="black" stroke-width="2" fill="none" />
<polyline points="493.0,130.0,501.5,122.0,509.5,114.5" stroke="black" stroke-width="2" fill="none" />
<polyline points="499.0,114.5,491.0,122.5" stroke="black" stroke-width="2" fill="none" />
<polyline points="491.0,125.0,499.0,124.5,506.5,123.5,514.0,123.0" stroke="black" stroke-width="2" fill="none" />
<polyline points="507.0,120.0,499.0,120.5" stroke="black" stroke-width="2" fill="none" />
<polyline points="506.5,116.0,498.5,115.5,490.5,115.0,483.0,115.5" stroke="black" stroke-width="2" fill="none" />
<polyline points="483.0,108.5,491.0,108.0,499.5,107.0" stroke="black" stroke-width="2" fill="none" />
<polyline points="491.5,99.0,483.5,99.5" stroke="black" stroke-width="2" fill="none" />
<polyline points="481.0,98.5,484.0,81.5,496.0,78.5" stroke="black" stroke-width="2" fill="none" />
<polyline points="490.5,82.0,482.5,90.0" stroke="black" stroke-width="2" fill="none" />
<polyline points="482.0,88.5,490.0,88.0" stroke="black" stroke-width="2" fill="none" />
<polyline points="490.5,83.5,482.5,84.0" stroke="black" stroke-width="2" fill="none" />
<polyline points="488.5,97.0,500.5,109.0" stroke="black" stroke-width="2" fill="none" />
<polyline points="510.0,121.0,504.0,116.5,512.0,106.0,512.0,94.0,512.0,82.0,512.0,70.0,512.0,59.5,512.0,47.5,512.0,35.0,512.0,23.0,512.5,11.0,506.5,3.5,494.5,3.5,483.0,3.0,471.0,3.5,459.0,3.5,446.5,4.0,434.0,4.5,422.0,4.5,410.0,4.5,398.0,4.5,386.0,4.5,374.0,4.5,362.0,4.5,350.0,4.5,338.5,4.5,326.0,4.5,314.0,4.5,302.0,4.5,290.5,4.5,278.5,4.0,267.0,3.5,255.0,3.5,243.0,3.5,231.0,3.5,219.0,3.5,206.5,3.5,195.0,3.5,183.0,4.0,171.0,4.0,159.0,4.0,146.5,4.0,134.0,4.0,122.5,4.0,110.0,4.0,98.0,4.0,86.0,4.5,74.0,4.0,62.0,3.5,50.0,3.5,38.0,4.0,26.5,3.5,14.5,3.0,3.0,3.0" stroke="black" stroke-width="2" fill="none" />
<polyline points="236.0,129.5,247.5,128.0,259.5,126.5,271.5,117.5,283.0,116.0,295.0,110.5,307.0,98.5,323.0,79.0,327.0,82.0,339.5,92.5,351.5,103.5" stroke="black" stroke-width="2" fill="none" />
<polyline points="354.0,104.0,362.0,104.0,370.5,103.5,378.5,103.0,386.5,102.5" stroke="black" stroke-width="2" fill="none" />
<polyline points="396.0,99.5,388.5,106.5,380.5,114.5" stroke="black" stroke-width="2" fill="none" />
<polyline points="364.0,119.5,372.0,112.5,379.5,105.0,388.0,98.5,396.0,91.5,404.0,84.5,412.5,76.5" stroke="black" stroke-width="2" fill="none" />
<polyline points="414.0,68.0,405.5,75.5,397.5,83.0,389.0,91.0,380.5,98.5,372.5,106.0,364.0,113.0,355.5,120.0,347.5,127.0,339.5,134.0,332.0,141.0,323.5,148.5,315.5,156.0,307.0,163.5,299.0,171.0,290.5,179.0,283.0,186.5,275.5,194.0,268.0,201.5,260.0,210.0,252.5,217.5" stroke="black" stroke-width="2" fill="none" />
<polyline points="251.0,223.0,237.5,235.0,225.0,247.5,213.0,259.5,201.0,271.5,187.5,284.0,174.0,296.0,158.0,308.5,140.0,321.0,120.5,332.5,106.0,340.5,117.5,334.0,129.5,326.5,141.0,319.0,153.0,311.5,165.0,304.0,177.0,293.5,188.5,283.0,200.5,272.5,212.0,260.5,224.0,248.5,236.0,237.0,248.0,226.5,260.5,223.5,272.5,222.0,284.5,219.0,296.0,216.0,308.0,210.0,319.5,201.0,331.5,184.0" stroke="black" stroke-width="2" fill="none" />
<polyline points="338.0,178.0,330.0,186.0,322.5,193.5,314.0,201.5,306.0,209.5" stroke="black" stroke-width="2" fill="none" />
<polyline points="292.0,215.5,300.5,208.0,308.5,200.5,316.5,193.5,324.0,187.0,331.5,180.0,339.5,172.5,347.0,165.0" stroke="black" stroke-width="2" fill="none" />
<polyline points="349.0,154.5,340.5,162.0,332.5,169.5,324.0,177.5,315.5,184.5,307.0,192.0,299.0,199.0,290.5,206.5,282.5,214.5" stroke="black" stroke-width="2" fill="none" />
<polyline points="267.5,222.5,275.5,215.0,284.0,207.5,292.0,200.0,300.0,192.5,308.0,185.0,316.0,177.0,324.5,169.5,333.0,162.0,341.0,154.5,349.5,147.0" stroke="black" stroke-width="2" fill="none" />
<polyline points="346.5,147.5,358.5,128.5,354.0,135.0,349.5,147.0,346.0,159.5,341.5,172.0,338.0,185.5,333.0,198.0,316.0,211.5,313.0,213.0,323.0,204.0,335.0,189.0" stroke="black" stroke-width="2" fill="none" />
<polyline points="330.5,198.0,323.0,205.0" stroke="black" stroke-width="2" fill="none" />
<polyline points="370.0,223.0,378.0,222.5" stroke="black" stroke-width="2" fill="none" />
<polyline points="394.5,224.0,402.5,223.5" stroke="black" stroke-width="2" fill="none" />
<polyline points="403.0,218.0,411.5,217.5" stroke="black" stroke-width="2" fill="none" />
<polyline points="409.0,205.5,417.5,205.0" stroke="black" stroke-width="2" fill="none" />
<polyline points="419.5,197.5,427.0,197.0,435.0,196.0" stroke="black" stroke-width="2" fill="none" />
<polyline points="435.0,185.0,443.0,185.0,451.0,185.0,459.0,185.0,467.0,185.5" stroke="black" stroke-width="2" fill="none" />
<polyline points="459.5,186.0,467.5,179.0,475.5,171.5" stroke="black" stroke-width="2" fill="none" />
<polyline points="476.0,175.0,468.0,175.5,459.5,175.5,451.5,176.5" stroke="black" stroke-width="2" fill="none" />
<polyline points="452.5,171.0,461.0,171.0,469.0,170.5,477.0,170.0,485.0,170.0" stroke="black" stroke-width="2" fill="none" />
<polyline points="483.0,164.5,491.0,164.0,499.5,163.5,507.0,163.0" stroke="black" stroke-width="2" fill="none" />
<polyline points="509.5,162.5,512.5,166.5,513.0,178.5,513.0,190.5,512.5,203.0,513.0,215.0,512.5,227.0,512.5,239.0,512.0,250.5,511.5,262.5,511.5,274.5,511.5,286.5,511.5,298.5,511.5,310.5,512.0,322.5,512.0,334.5,512.0,346.5,512.0,358.5" stroke="black" stroke-width="2" fill="none" />
<polyline points="395.5,225.5,403.0,218.0,411.0,210.5,418.5,202.5,426.0,195.0,433.5,187.5,441.5,180.0" stroke="black" stroke-width="2" fill="none" />
<polyline points="434.5,183.5,442.5,183.0,450.5,182.5,458.5,182.0,466.0,181.0" stroke="black" stroke-width="2" fill="none" />
<polyline points="458.0,185.5,471.5,173.5" stroke="black" stroke-width="2" fill="none" />
<polyline points="458.5,163.5,450.0,171.0" stroke="black" stroke-width="2" fill="none" />
<polyline points="444.5,169.0,452.5,168.5,460.0,168.0" stroke="black" stroke-width="2" fill="none" />
<polyline points="451.0,164.0,443.0,171.5" stroke="black" stroke-width="2" fill="none" />
<polyline points="444.5,166.5,453.0,166.0,461.5,165.0,469.0,165.0" stroke="black" stroke-width="2" fill="none" />
<polyline points="492.0,169.5,499.5,162.0,507.0,154.5,515.5,146.5" stroke="black" stroke-width="2" fill="none" />
<polyline points="516.5,147.0,508.0,147.5" stroke="black" stroke-width="2" fill="none" />
<polyline points="514.5,151.0,507.5,151.5,500.0,152.5" stroke="black" stroke-width="2" fill="none" />
<polyline points="492.5,149.0,500.5,149.0,508.0,148.5,516.0,148.5" stroke="black" stroke-width="2" fill="none" />
<polyline points="515.0,139.5,507.5,139.5,499.5,140.0,491.0,140.0,483.0,140.5" stroke="black" stroke-width="2" fill="none" />
<polyline points="444.0,146.0,436.0,154.0" stroke="black" stroke-width="2" fill="none" />
<polyline points="434.5,156.0,442.5,156.0,451.5,155.5" stroke="black" stroke-width="2" fill="none" />
<polyline points="444.0,156.0,436.0,163.5" stroke="black" stroke-width="2" fill="none" />
<polyline points="434.0,162.5,442.5,162.0" stroke="black" stroke-width="2" fill="none" />
<polyline points="436.5,148.5,428.5,155.5" stroke="black" stroke-width="2" fill="none" />
<polyline points="427.5,153.5,435.0,153.5" stroke="black" stroke-width="2" fill="none" />
<polyline points="436.5,140.5,428.0,148.0,420.0,154.5" stroke="black" stroke-width="2" fill="none" />
<polyline points="418.0,150.5,430.0,150.5" stroke="black" stroke-width="2" fill="none" />
<polyline points="420.0,148.0,428.0,147.5,436.5,147.0,444.5,146.5" stroke="black" stroke-width="2" fill="none" />
<polyline points="428.0,139.5,420.0,147.5" stroke="black" stroke-width="2" fill="none" />
<polyline points="419.0,145.5,427.5,145.0,435.0,145.0" stroke="black" stroke-width="2" fill="none" />
<polyline points="433.5,141.5,425.5,142.5,418.0,143.5" stroke="black" stroke-width="2" fill="none" />
<polyline points="425.0,139.5,429.5,151.5,431.5,160.5,444.0,172.5,434.0,184.5,422.0,196.5,410.0,208.5,396.0,220.0,382.0,231.5,370.0,244.0,356.5,256.0,343.0,268.0,329.5,280.0,319.5,290.5,331.0,280.0,343.0,267.5,354.5,257.0,366.5,246.5,378.0,234.0,389.5,223.5,401.0,211.5,413.5,201.0,425.5,189.0,437.5,177.0,448.0,172.5" stroke="black" stroke-width="2" fill="none" />
<polyline points="483.0,163.0,496.5,151.0,502.5,139.0,502.5,127.0,497.5,114.5,482.5,102.5,472.0,90.5,460.0,93.0,448.0,96.0" stroke="black" stroke-width="2" fill="none" />
<polyline points="471.0,97.0,472.5,109.5,483.0,121.5,486.0,134.0,478.0,145.5,484.0,135.5" stroke="black" stroke-width="2" fill="none" />
<polyline points="502.0,141.5,490.0,158.5,477.5,165.5,465.5,160.5,453.5,157.5,441.5,148.5,430.0,136.5,418.0,138.0,410.5,153.0,409.0,155.0,411.5,143.0,425.0,131.5" stroke="black" stroke-width="2" fill="none" />
<polyline points="404.0,82.5,396.5,83.0,388.0,83.0" stroke="black" stroke-width="2" fill="none" />
<polyline points="378.0,83.0,371.0,90.5,363.5,98.0,355.5,106.0,347.5,113.5,339.5,121.0,331.0,128.5,323.0,135.5,315.0,142.5,306.5,149.5,298.5,157.5,291.0,165.0,283.5,172.5,275.5,180.5,267.5,188.0" stroke="black" stroke-width="2" fill="none" />
<polyline points="260.0,191.5,268.0,183.5,276.0,176.5,283.5,169.5,291.5,162.5,299.5,155.0,307.0,147.5,314.5,140.0,322.5,132.5,330.5,125.0" stroke="black" stroke-width="2" fill="none" />
<polyline points="323.0,123.5,315.0,131.5,307.0,139.0,299.0,146.5,290.5,153.5,282.5,161.0,275.0,168.5,267.5,175.5,259.5,183.5,252.0,191.5,244.5,199.5,236.0,207.0,228.0,213.5" stroke="black" stroke-width="2" fill="none" />
<polyline points="228.0,211.5,235.5,205.0,243.5,198.0" stroke="black" stroke-width="2" fill="none" />
<polyline points="245.0,202.0,236.5,202.0,228.0,203.0,220.0,204.0,211.5,204.0,203.0,204.5,194.5,205.0" stroke="black" stroke-width="2" fill="none" />
<polyline points="196.5,197.0,204.5,196.5,212.5,196.0,220.5,196.0,228.5,196.5,236.0,196.0,244.5,196.0,253.0,195.5,261.5,195.0" stroke="black" stroke-width="2" fill="none" />
<polyline points="254.5,194.5,262.5,194.5,269.5,193.5,276.5,192.5,284.0,192.0,291.0,190.5,298.5,190.0,305.5,189.5,313.5,189.0,322.0,189.0,330.5,188.5" stroke="black" stroke-width="2" fill="none" />
<polyline points="323.5,196.0,315.5,197.0,307.5,198.0,299.0,199.0,290.0,200.5,281.5,201.5,273.0,202.0,265.0,202.5" stroke="black" stroke-width="2" fill="none" />
<polyline points="260.5,202.5,253.0,210.0,244.5,218.0,236.5,226.0,228.5,233.5,220.0,241.0,211.5,248.5,203.0,256.0,194.0,263.5,185.5,271.0,177.5,279.0,169.5,286.0,161.0,293.5,153.5,301.0,145.5,308.5,138.0,316.5" stroke="black" stroke-width="2" fill="none" />
<polyline points="131.5,306.0,140.0,305.0,148.0,304.0,156.5,304.0,164.5,303.5" stroke="black" stroke-width="2" fill="none" />
<polyline points="163.0,292.5,171.5,285.0,179.5,277.5,188.0,270.5,196.5,262.5,204.5,255.0,212.5,247.5,220.5,240.0,228.0,232.5,236.0,224.5,244.5,217.0,252.0,210.0,259.5,202.5,267.0,195.5,275.5,188.5,283.0,181.0,291.0,173.5,299.5,166.0,308.0,158.5,316.0,151.0,324.0,144.0,332.0,136.5,339.5,128.5,347.0,120.5,355.0,112.5,363.5,104.5,372.5,97.0,381.0,89.0,389.0,81.0,397.5,73.5" stroke="black" stroke-width="2" fill="none" />
<polyline points="401.5,72.0,409.5,71.5" stroke="black" stroke-width="2" fill="none" />
<polyline points="410.0,68.0,402.0,68.5" stroke="black" stroke-width="2" fill="none" />
<polyline points="396.0,65.0,388.0,72.0" stroke="black" stroke-width="2" fill="none" />
<polyline points="395.0,73.0,387.5,73.0,379.5,73.5" stroke="black" stroke-width="2" fill="none" />
<polyline points="375.5,73.0,387.5,73.5" stroke="black" stroke-width="2" fill="none" />
<polyline points="380.0,67.0,388.0,59.5" stroke="black" stroke-width="2" fill="none" />
<polyline points="395.5,58.5,388.0,66.0,380.0,73.5,372.0,81.0" stroke="black" stroke-width="2" fill="none" />
<polyline points="371.5,86.5,379.5,86.0,387.5,86.0,395.5,85.5,403.0,85.5" stroke="black" stroke-width="2" fill="none" />
<polyline points="409.5,63.0,418.0,62.5" stroke="black" stroke-width="2" fill="none" />
<polyline points="396.5,63.5,388.0,64.0,380.5,65.0" stroke="black" stroke-width="2" fill="none" />
<polyline points="379.5,61.5,388.0,61.5,396.0,61.0" stroke="black" stroke-width="2" fill="none" />
<polyline points="377.5,52.0,369.5,59.0" stroke="black" stroke-width="2" fill="none" />
<polyline points="362.5,58.5,370.5,51.5,378.5,44.0" stroke="black" stroke-width="2" fill="none" />
<polyline points="380.5,50.0,373.0,50.5" stroke="black" stroke-width="2" fill="none" />
<polyline points="370.5,46.0,378.5,45.0" stroke="black" stroke-width="2" fill="none" />
<polyline points="379.5,54.0,371.5,54.5,363.5,55.0" stroke="black" stroke-width="2" fill="none" />
<polyline points="363.5,53.0,371.5,52.5,379.5,52.0" stroke="black" stroke-width="2" fill="none" />
<polyline points="380.5,46.0,368.5,41.5" stroke="black" stroke-width="2" fill="none" />
<polyline points="357.5,49.5,378.5,49.5,362.0,56.0,374.0,58.5,387.5,53.5" stroke="black" stroke-width="2" fill="none" />
<polyline points="394.0,66.0,386.5,66.0,379.0,66.5,371.0,66.5,363.0,66.5,355.0,67.0" stroke="black" stroke-width="2" fill="none" />
<polyline points="355.5,65.5,375.0,77.0" stroke="black" stroke-width="2" fill="none" />
<polyline points="368.5,75.0,361.0,82.5" stroke="black" stroke-width="2" fill="none" />
<polyline points="362.0,82.5,369.5,82.5,377.5,82.0" stroke="black" stroke-width="2" fill="none" />
<polyline points="371.0,90.5,379.0,90.0,387.0,89.0,394.5,88.5" stroke="black" stroke-width="2" fill="none" />
<polyline points="363.5,90.0,355.5,98.0" stroke="black" stroke-width="2" fill="none" />
<polyline points="357.0,98.0,364.5,97.5,373.0,96.5,381.0,95.5,388.5,95.0,396.5,94.0" stroke="black" stroke-width="2" fill="none" />
<polyline points="371.5,66.5,363.5,74.0" stroke="black" stroke-width="2" fill="none" />
<polyline points="363.5,76.0,371.0,75.5,378.5,75.5,386.0,75.5,394.5,75.0,402.5,75.0,410.0,74.5" stroke="black" stroke-width="2" fill="none" />
<polyline points="365.5,68.5,357.5,75.5" stroke="black" stroke-width="2" fill="none" />
<polyline points="356.5,72.5,364.5,72.0,372.5,71.5" stroke="black" stroke-width="2" fill="none" />
<polyline points="363.5,59.5,355.5,60.0" stroke="black" stroke-width="2" fill="none" />
<polyline points="350.5,68.0,362.5,77.5" stroke="black" stroke-width="2" fill="none" />
<polyline points="354.5,84.5,346.5,92.0" stroke="black" stroke-width="2" fill="none" />
<polyline points="348.5,92.0,356.5,91.5" stroke="black" stroke-width="2" fill="none" />
<polyline points="357.0,93.5,365.0,92.5,373.0,91.5,380.5,91.0,388.0,90.0,396.0,89.5" stroke="black" stroke-width="2" fill="none" />
<polyline points="395.5,97.5,387.5,98.0,379.5,98.5,371.5,99.5,363.5,101.0,355.5,101.5" stroke="black" stroke-width="2" fill="none" />
<polyline points="348.5,112.0,356.0,111.0,363.5,110.0,371.5,109.0,379.0,108.5,387.0,107.5,395.0,107.5" stroke="black" stroke-width="2" fill="none" />
<polyline points="356.0,132.5,348.0,140.0,340.0,147.5,332.5,155.0,325.5,162.5,317.5,170.0,309.5,177.0,301.0,184.5,293.0,192.5,284.5,200.0,276.5,207.5,268.0,215.0,260.0,222.0" stroke="black" stroke-width="2" fill="none" />
<polyline points="249.0,210.5,257.0,210.5,265.5,210.0,274.0,209.5,282.5,209.5,291.5,209.0,300.0,209.0,309.0,208.0,317.5,207.5" stroke="black" stroke-width="2" fill="none" />
<polyline points="339.0,193.5,331.5,194.0,324.0,194.5,316.0,195.0,307.5,195.5,300.0,196.0,291.5,196.5,283.0,197.0,275.5,198.0,268.0,198.5" stroke="black" stroke-width="2" fill="none" />
<polyline points="254.0,190.5,261.5,190.0,269.0,189.0,276.0,188.5,283.0,187.5,290.5,187.5,298.5,187.0,306.5,186.5,315.0,186.5,323.0,186.0,331.5,186.0,338.5,185.0,346.0,184.5" stroke="black" stroke-width="2" fill="none" />
<polyline points="332.0,201.5,323.5,201.5,315.5,202.5,307.0,203.5,299.0,203.5,291.5,204.5,283.0,204.5,275.0,204.5,267.0,205.5,259.0,206.5,250.5,206.5" stroke="black" stroke-width="2" fill="none" />
<polyline points="251.5,201.5,243.5,202.5,235.0,203.0" stroke="black" stroke-width="2" fill="none" />
<polyline points="235.0,197.5,227.0,205.0,219.0,212.0" stroke="black" stroke-width="2" fill="none" />
<polyline points="219.5,199.5,227.0,192.0,235.0,184.5,243.0,177.5,251.0,170.0,259.5,162.5,267.5,155.0,276.0,148.0,284.5,140.5" stroke="black" stroke-width="2" fill="none" />
<polyline points="290.5,138.5,298.5,138.0,307.0,137.5,316.0,137.5,325.0,137.0,333.0,137.0,341.0,136.0,349.0,135.5" stroke="black" stroke-width="2" fill="none" />
<polyline points="355.0,130.5,347.0,131.5,339.5,132.0,332.0,132.5,324.0,133.0,316.0,133.5,307.5,134.0,299.5,134.0,291.5,134.5" stroke="black" stroke-width="2" fill="none" />
<polyline points="293.0,132.0,301.0,125.5,309.0,118.0" stroke="black" stroke-width="2" fill="none" />
<polyline points="315.0,115.5,307.0,123.5,299.0,130.5,291.0,138.0,283.5,145.5,275.5,153.0,268.0,160.5,260.0,168.0,252.5,175.5,245.5,183.0" stroke="black" stroke-width="2" fill="none" />
<polyline points="252.5,183.5,260.5,176.5,269.0,169.0,276.5,162.0,284.5,154.5,292.0,147.5,299.5,140.5,307.5,133.0,314.5,124.5,322.5,117.5" stroke="black" stroke-width="2" fill="none" />
<polyline points="340.0,122.5,348.0,122.0,355.5,121.0,363.5,120.0,372.0,119.0" stroke="black" stroke-width="2" fill="none" />
<polyline points="379.0,111.5,371.0,112.0,363.0,112.5,354.5,113.5,346.5,114.5" stroke="black" stroke-width="2" fill="none" />
<polyline points="356.0,126.0,348.5,127.0,340.5,127.5,332.0,127.5,323.5,128.0,314.5,128.0,307.0,128.5,299.0,128.5,291.0,128.5,283.0,129.0,275.5,129.0,268.0,129.5" stroke="black" stroke-width="2" fill="none" />
<polyline points="267.5,127.0,275.0,126.0,283.0,125.5,290.5,125.5,298.5,125.5,307.0,125.0,315.0,125.0,323.0,125.0,331.5,124.5,340.5,123.5,348.5,123.0,356.5,122.5,364.0,121.5" stroke="black" stroke-width="2" fill="none" />
<polyline points="379.0,110.5,371.5,111.0,363.5,112.0,355.0,112.5,347.5,113.5,340.0,114.0,332.5,114.5,324.5,114.5,316.5,115.5,308.5,116.0,300.5,116.5,293.0,117.0" stroke="black" stroke-width="2" fill="none" />
<polyline points="293.0,121.0,301.5,121.0,309.5,120.5,317.5,120.0" stroke="black" stroke-width="2" fill="none" />
<polyline points="317.5,107.0,310.0,107.0,302.0,107.5" stroke="black" stroke-width="2" fill="none" />
<polyline points="305.5,108.0,317.0,103.5,316.5,112.0,322.0,112.0" stroke="black" stroke-width="2" fill="none" />
<polyline points="300.0,116.5,292.5,124.5,285.0,132.5,277.0,139.5,269.0,146.0,261.0,153.0,252.5,160.5,244.0,167.5,235.5,174.5" stroke="black" stroke-width="2" fill="none" />
<polyline points="235.5,182.5,243.5,182.0,251.0,181.0,259.0,180.5,267.0,180.5,275.0,180.0,283.0,179.5,291.0,179.0,299.5,178.0,307.0,177.5,314.5,177.0,323.0,177.0,332.0,177.0,340.0,177.0,347.5,177.0" stroke="black" stroke-width="2" fill="none" />
<polyline points="331.5,181.0,323.0,181.5,315.0,182.5,307.0,182.5,299.0,183.0,290.5,183.0,282.0,182.5,274.0,183.0,266.0,184.0,257.5,185.0,249.5,186.0,241.5,187.0,233.5,187.5" stroke="black" stroke-width="2" fill="none" />
<polyline points="226.5,188.5,218.5,196.0,211.0,203.0" stroke="black" stroke-width="2" fill="none" />
<polyline points="217.5,194.5,226.0,194.0,234.0,193.0" stroke="black" stroke-width="2" fill="none" />
<polyline points="235.5,209.5,243.0,209.0" stroke="black" stroke-width="2" fill="none" />
<polyline points="241.5,212.5,233.5,219.5,225.5,226.0,218.0,233.5,210.5,241.5,202.5,249.0,195.0,255.5,187.0,262.5,179.5,270.0,171.5,278.0,163.5,285.5,155.5,293.0,147.5,301.5,139.5,309.5,131.5,317.0,123.5,324.5" stroke="black" stroke-width="2" fill="none" />
<polyline points="115.5,323.0,123.5,322.5,132.0,322.0,140.5,321.5" stroke="black" stroke-width="2" fill="none" />
<polyline points="155.0,312.5,146.5,313.0,138.5,313.5,130.5,314.0,123.0,314.5" stroke="black" stroke-width="2" fill="none" />
<polyline points="123.0,311.0,131.0,310.5,139.5,309.5,147.5,308.5,155.5,308.5,164.0,308.5" stroke="black" stroke-width="2" fill="none" />
<polyline points="148.5,295.0,157.0,295.0,165.5,294.5,173.5,295.0,181.0,295.0" stroke="black" stroke-width="2" fill="none" />
<polyline points="193.5,282.5,201.5,274.5" stroke="black" stroke-width="2" fill="none" />
<polyline points="190.0,258.0,198.0,257.5,205.5,257.5,213.0,257.5,220.5,257.5" stroke="black" stroke-width="2" fill="none" />
<polyline points="228.5,247.5,221.0,247.5,213.0,247.0,205.0,247.0,197.0,247.5" stroke="black" stroke-width="2" fill="none" />
<polyline points="195.5,244.0,203.5,244.0,211.0,243.5,219.0,243.0,227.0,242.5,235.0,242.5" stroke="black" stroke-width="2" fill="none" />
<polyline points="235.5,242.0,226.5,251.0" stroke="black" stroke-width="2" fill="none" />
<polyline points="212.0,234.0,220.0,233.0,228.0,232.5,236.0,231.5,243.5,230.0" stroke="black" stroke-width="2" fill="none" />
<polyline points="235.0,220.0,243.0,219.0,251.0,219.0,258.5,218.0,266.0,217.5,273.5,216.5,281.5,215.5,289.5,215.0,297.5,214.0" stroke="black" stroke-width="2" fill="none" />
<polyline points="269.0,223.5,261.0,224.0,252.5,225.0,244.0,225.5,235.5,226.0,228.0,226.0" stroke="black" stroke-width="2" fill="none" />
<polyline points="219.5,229.0,211.5,237.0,203.0,244.5,195.0,251.5,187.0,258.5,179.5,266.0,171.5,273.5,163.5,281.0,156.0,288.5,148.0,296.0,140.0,303.5,132.0,311.0,124.0,318.5,116.5,326.0,109.5,333.5" stroke="black" stroke-width="2" fill="none" />
<polyline points="109.0,328.0,117.0,328.0,125.0,328.0,132.5,327.5" stroke="black" stroke-width="2" fill="none" />
<polyline points="115.5,318.0,123.5,317.0,132.0,316.0,140.5,315.0,148.5,314.5,156.0,314.0" stroke="black" stroke-width="2" fill="none" />
<polyline points="139.0,302.5,131.0,310.0,123.5,317.0,115.5,324.5,108.0,331.5,100.0,339.0" stroke="black" stroke-width="2" fill="none" />
<polyline points="98.0,338.0,106.5,337.0,114.5,336.5" stroke="black" stroke-width="2" fill="none" />
<polyline points="109.0,324.5,117.0,324.0,124.5,324.0,132.5,324.0,140.0,324.0" stroke="black" stroke-width="2" fill="none" />
<polyline points="131.0,302.0,139.0,301.5,147.0,301.5,155.5,300.5,163.5,299.5,172.0,299.0,180.0,298.0" stroke="black" stroke-width="2" fill="none" />
<polyline points="165.5,281.5,173.5,281.0,181.0,280.5,188.5,280.0,196.5,279.5" stroke="black" stroke-width="2" fill="none" />
<polyline points="182.5,267.0,190.0,266.0,197.0,265.0,204.0,264.5,211.5,264.5" stroke="black" stroke-width="2" fill="none" />
<polyline points="229.0,251.5,221.0,252.0,213.5,252.0,205.5,253.0,197.5,253.5,190.0,255.0" stroke="black" stroke-width="2" fill="none" />
<polyline points="181.0,261.0,189.0,260.5,196.5,260.5,204.5,260.0,212.5,260.5,220.5,261.0" stroke="black" stroke-width="2" fill="none" />
<polyline points="235.5,242.0,228.0,242.0,220.0,242.0,212.0,242.0,204.0,242.0" stroke="black" stroke-width="2" fill="none" />
<polyline points="203.0,239.0,211.5,239.0,219.0,238.5,227.0,237.5,235.0,236.5,243.0,235.5" stroke="black" stroke-width="2" fill="none" />
<polyline points="250.0,227.5,242.0,227.5,234.0,228.0,225.5,228.5,217.5,228.5,209.5,229.0" stroke="black" stroke-width="2" fill="none" />
<polyline points="210.0,221.5,218.0,221.0,226.0,220.5,234.0,220.0,241.5,219.5,249.5,219.5,257.5,218.5,265.5,217.5,274.0,217.0,282.0,216.0,290.0,215.0,298.5,215.0" stroke="black" stroke-width="2" fill="none" />
<polyline points="315.0,207.5,307.0,207.5,299.0,208.0,291.5,208.0,284.0,208.5,275.5,208.5,267.0,209.0,259.0,210.0,251.5,210.5,243.5,211.5,235.5,212.0,227.5,213.5,220.5,214.5,213.0,215.0,205.0,215.0" stroke="black" stroke-width="2" fill="none" />
<polyline points="202.5,190.0,210.5,182.5,218.5,175.0,226.5,167.5,234.5,160.0,242.5,153.0,251.0,145.0,259.5,137.5,268.0,130.5,276.5,123.0" stroke="black" stroke-width="2" fill="none" />
<polyline points="278.5,129.0,289.0,141.5,293.5,146.0" stroke="black" stroke-width="2" fill="none" />
<polyline points="284.0,123.5,276.0,131.0,268.0,138.5,260.0,145.5,252.5,152.5,244.5,159.5,236.5,167.0,229.0,174.5,220.5,182.0,212.5,190.0" stroke="black" stroke-width="2" fill="none" />
<polyline points="211.5,185.5,219.5,185.0,227.5,183.5" stroke="black" stroke-width="2" fill="none" />
<polyline points="227.0,181.5,219.5,182.5,211.0,182.5" stroke="black" stroke-width="2" fill="none" />
<polyline points="204.0,189.5,212.5,189.5,221.0,189.5,229.0,189.0,237.0,188.0" stroke="black" stroke-width="2" fill="none" />
<polyline points="251.5,199.0,244.5,211.0,245.0,209.5" stroke="black" stroke-width="2" fill="none" />
<polyline points="276.0,190.5,291.0,178.5,296.0,166.5,287.0,182.5,275.5,191.5,263.5,193.0,252.0,191.5,240.0,185.5,228.0,166.0" stroke="black" stroke-width="2" fill="none" />
<polyline points="230.0,166.5,238.0,166.0,245.5,165.0,253.0,164.5,261.0,164.0,269.0,164.0,276.5,163.0,284.5,162.5,292.0,162.0,299.5,162.0,307.5,161.5,315.5,161.0,323.5,161.0,332.0,160.5,340.0,160.0,348.0,159.5,355.5,159.0" stroke="black" stroke-width="2" fill="none" />
<polyline points="347.5,138.5,340.5,139.0,333.0,140.0,325.5,140.0,317.5,141.0,309.5,141.5,300.5,142.5,292.0,143.0,284.0,143.5,276.0,144.0,267.5,145.5,259.0,146.0,250.5,146.0,242.5,146.5,234.5,147.0" stroke="black" stroke-width="2" fill="none" />
<polyline points="235.5,144.0,243.5,143.5,251.5,142.5,259.0,141.0,267.5,139.5,275.5,139.0,284.0,137.5,292.5,137.0,301.0,136.0,310.0,135.0,318.0,134.5,326.0,134.0,333.5,134.0,341.0,134.0,348.5,134.5,356.5,134.5" stroke="black" stroke-width="2" fill="none" />
<polyline points="356.0,149.0,348.5,149.5,340.5,149.5,332.5,150.5,324.5,151.0,316.5,151.5,309.0,152.0,300.5,152.0,292.5,152.5,284.5,153.5,276.0,154.5,267.5,155.5,260.0,156.0,251.5,156.5,244.0,157.0,236.0,157.0,228.0,157.5" stroke="black" stroke-width="2" fill="none" />
<polyline points="226.5,161.5,234.5,154.5,243.0,147.0,251.5,139.5,259.5,132.5" stroke="black" stroke-width="2" fill="none" />
<polyline points="250.0,132.0,242.0,139.5,234.0,147.0,225.5,154.5" stroke="black" stroke-width="2" fill="none" />
<polyline points="228.5,152.5,236.5,152.5,245.0,152.5,253.0,152.5,261.0,152.0,269.0,151.0,277.5,151.0,285.0,150.0,292.5,149.0,300.0,148.0,308.0,147.0,316.0,146.5,323.5,146.0,331.5,145.5,340.5,145.5" stroke="black" stroke-width="2" fill="none" />
<polyline points="341.0,141.0,353.0,126.0,365.0,118.5,377.0,109.5,389.0,93.0,401.0,79.5,410.0,59.0,408.5,71.5,399.0,83.5,387.0,96.0,381.0,108.0,362.0,120.0,350.0,131.5,341.0,143.5,338.0,155.5,336.5,168.0,333.5,180.0,327.5,192.0,317.0,204.0,293.0,215.5" stroke="black" stroke-width="2" fill="none" />
<polyline points="282.0,138.5,274.5,138.0,267.0,138.5,259.5,139.0,252.0,139.0,244.0,140.0" stroke="black" stroke-width="2" fill="none" />
<polyline points="245.0,135.5,252.5,135.0,260.0,134.5,267.5,133.5,274.5,133.0,282.0,132.0" stroke="black" stroke-width="2" fill="none" />
<polyline points="268.5,125.5,280.5,130.0,292.5,139.0,297.0,145.0" stroke="black" stroke-width="2" fill="none" />
<polyline points="271.5,117.0,250.0,126.0,235.0,135.0,227.5,145.5,224.5,158.0,225.5,170.0,231.5,182.0,252.5,194.0,235.5,209.0,220.0,221.0,206.5,233.0,193.0,245.0,179.5,257.0,166.0,269.0,152.5,281.0,140.5,293.5,127.0,305.0,115.0,317.0,103.0,328.5,90.0,340.5,88.5,341.5,100.5,331.5,113.0,320.0,125.0,308.0,137.5,298.0,149.5,286.0,161.5,275.5,174.0,264.5,186.0,253.0,198.0,242.5,210.0,231.5,222.0,221.0,234.0,211.5" stroke="black" stroke-width="2" fill="none" />
<polyline points="220.0,177.0,228.0,176.5,236.5,175.5,244.5,175.5,252.5,175.5,260.5,175.0,268.5,174.5,276.0,173.5,283.5,173.0,290.5,172.0,298.0,171.5,306.5,171.5,314.5,171.0,323.0,170.0,331.5,169.5,339.5,168.5" stroke="black" stroke-width="2" fill="none" />
<polyline points="396.5,222.0,404.0,221.5" stroke="black" stroke-width="2" fill="none" />
<polyline points="357.0,86.5,349.0,87.5" stroke="black" stroke-width="2" fill="none" />
<polyline points="340.0,83.0,348.5,75.5" stroke="black" stroke-width="2" fill="none" />
<polyline points="346.0,80.5,338.5,81.5" stroke="black" stroke-width="2" fill="none" />
<polyline points="339.5,79.0,346.5,78.0" stroke="black" stroke-width="2" fill="none" />
<polyline points="340.5,75.0,357.0,87.0" stroke="black" stroke-width="2" fill="none" />
<polyline points="363.5,89.0,351.0,79.5,339.0,71.0" stroke="black" stroke-width="2" fill="none" />
<polyline points="336.5,69.0,348.5,62.5,356.0,52.0,340.5,63.5,328.5,74.5,319.5,86.5,330.0,92.5,343.5,104.5,339.0,117.0,322.5,126.5,327.0,119.0,332.5,123.5,344.5,111.5" stroke="black" stroke-width="2" fill="none" />
<polyline points="350.0,142.0,341.5,142.5,333.0,142.5,324.5,142.5,315.5,143.0,307.0,143.5,299.5,143.5,292.0,144.5,284.5,145.0,276.5,146.0,268.5,146.5,260.5,147.5,252.0,148.0,243.5,149.0,235.0,149.5,226.5,150.0" stroke="black" stroke-width="2" fill="none" />
<polyline points="229.5,163.5,237.5,162.5,245.0,162.0,252.5,161.0,260.5,160.5,268.5,159.0,276.5,158.5,285.0,158.0,293.0,157.0,301.0,157.0,309.0,156.0,317.5,156.0,325.5,155.5,333.5,155.0,340.5,154.5" stroke="black" stroke-width="2" fill="none" />
<polyline points="341.0,164.0,332.0,164.5,323.0,164.5,314.5,165.0,306.5,165.5,298.5,165.5,290.5,166.0,282.5,166.5,275.5,166.5,268.5,166.5,260.0,167.0,252.0,167.5,244.0,168.0,236.0,168.5,228.5,169.0" stroke="black" stroke-width="2" fill="none" />
<polyline points="219.0,171.0,210.0,183.0,198.0,195.0,183.0,207.0,168.0,218.5,177.0,212.5,189.0,199.0,200.5,190.0,212.5,178.0,224.5,179.5,236.5,193.0,248.5,196.0,261.0,199.0" stroke="black" stroke-width="2" fill="none" />
<polyline points="227.5,188.0,221.0,176.5" stroke="black" stroke-width="2" fill="none" />
<polyline points="220.0,174.0,228.0,173.5,236.5,173.0,244.5,172.5,252.5,172.0,260.0,171.0,267.5,170.0,275.5,169.5,282.5,169.0,289.5,168.0,297.0,168.0,305.5,167.0,313.5,166.5,321.5,166.0,329.5,165.0,338.0,164.5,346.0,164.0" stroke="black" stroke-width="2" fill="none" />
<polyline points="351.0,88.5,339.0,78.0" stroke="black" stroke-width="2" fill="none" />
<polyline points="330.5,75.0,344.0,87.0,356.5,99.0" stroke="black" stroke-width="2" fill="none" />
<polyline points="360.0,79.5,345.0,67.5" stroke="black" stroke-width="2" fill="none" />
<polyline points="381.5,35.0,393.5,36.5,405.5,45.0,417.5,60.0" stroke="black" stroke-width="2" fill="none" />
<polyline points="388.0,72.5,390.5,60.5,405.0,57.5,394.5,45.5,382.5,33.5" stroke="black" stroke-width="2" fill="none" />
<polyline points="204.5,273.0,197.0,273.5,189.5,274.0,182.0,274.5,174.5,275.0" stroke="black" stroke-width="2" fill="none" />
<polyline points="173.0,270.5,181.5,270.0,189.0,269.0,196.5,268.5,204.0,268.5,211.5,268.5,219.0,268.0" stroke="black" stroke-width="2" fill="none" />
<polyline points="203.5,276.0,196.0,276.0,188.5,276.5,181.0,277.0,173.0,277.5,165.0,278.5" stroke="black" stroke-width="2" fill="none" />
<polyline points="156.5,284.5,164.0,284.5,172.0,284.5,179.5,284.5,187.0,283.5,195.5,283.0" stroke="black" stroke-width="2" fill="none" />
<polyline points="188.5,286.5,181.0,287.0,173.0,287.0,164.5,287.5,156.5,288.5" stroke="black" stroke-width="2" fill="none" />
<polyline points="149.5,291.5,157.5,291.5,165.0,291.0,173.0,291.0,180.5,291.0,188.5,290.5" stroke="black" stroke-width="2" fill="none" />
<polyline points="155.0,261.0,146.5,268.5" stroke="black" stroke-width="2" fill="none" />
<polyline points="148.5,264.0,156.5,263.5" stroke="black" stroke-width="2" fill="none" />
<polyline points="156.0,260.0,148.0,260.5" stroke="black" stroke-width="2" fill="none" />
<polyline points="125.5,284.5,117.0,292.0" stroke="black" stroke-width="2" fill="none" />
<polyline points="116.0,289.0,124.0,288.5" stroke="black" stroke-width="2" fill="none" />
<polyline points="124.5,284.5,116.5,284.5" stroke="black" stroke-width="2" fill="none" />
<polyline points="115.0,283.5,115.5,283.0" stroke="black" stroke-width="2" fill="none" />
<polyline points="118.0,301.0,110.5,309.0" stroke="black" stroke-width="2" fill="none" />
<polyline points="107.5,304.5,115.5,304.0" stroke="black" stroke-width="2" fill="none" />
<polyline points="115.0,300.0,106.5,300.5" stroke="black" stroke-width="2" fill="none" />
<polyline points="98.5,333.0,106.5,333.0,114.5,332.5,123.0,332.0" stroke="black" stroke-width="2" fill="none" />
<polyline points="98.0,340.5,90.0,341.0" stroke="black" stroke-width="2" fill="none" />
</svg>