<svg xmlns="http://www.w3.org/2000/svg" version="1.1"><polyline points="4.0,3.5,3.5,15.5,3.5,30.0,3.5,42.0,6.5,49.0,3.5,59.5,3.5,74.5" stroke="black" stroke-width="2" fill="none" />
<polyline points="4.0,75.0,11.5,68.0,19.5,60.5" stroke="black" stroke-width="2" fill="none" />
<polyline points="28.0,58.0,19.5,66.0,11.5,73.5,3.5,81.0" stroke="black" stroke-width="2" fill="none" />
<polyline points="5.5,84.5,13.5,84.5,21.0,83.5,28.5,83.5,36.5,82.5,43.5,82.5,51.5,82.0,58.5,82.0,66.0,81.5,74.5,81.5,82.5,81.0,90.5,80.0,99.0,79.5,107.5,79.5,116.0,79.5,124.0,79.0,132.5,78.5,141.0,78.0,149.0,77.5" stroke="black" stroke-width="2" fill="none" />
<polyline points="148.0,79.0,156.0,78.5,163.5,77.5,171.0,76.5,178.5,76.0" stroke="black" stroke-width="2" fill="none" />
<polyline points="179.0,77.5,171.5,84.5" stroke="black" stroke-width="2" fill="none" />
<polyline points="165.0,82.5,162.0,94.0,166.5,98.5,168.0,107.5,175.5,119.5,187.5,124.5,188.0,135.5,164.0,136.5,180.5,138.0,179.5,157.0,194.5,151.0" stroke="black" stroke-width="2" fill="none" />
<polyline points="194.0,147.0,186.5,154.0,178.5,162.0,170.5,169.5,162.5,177.5,154.5,184.5,146.5,192.0" stroke="black" stroke-width="2" fill="none" />
<polyline points="139.0,190.5,147.0,183.0,155.0,175.5,163.0,168.0,171.0,161.0,178.5,153.5,186.5,146.0,194.0,139.0,202.0,132.0,210.0,124.5" stroke="black" stroke-width="2" fill="none" />
<polyline points="201.0,125.5,193.5,132.5,186.0,140.0,178.5,147.0,171.0,154.5,163.5,162.5,155.5,170.0,148.0,177.0,140.0,185.0,132.5,192.5" stroke="black" stroke-width="2" fill="none" />
<polyline points="140.5,186.0,149.0,185.5,157.0,185.0" stroke="black" stroke-width="2" fill="none" />
<polyline points="156.0,192.0,164.0,184.5,171.5,177.5,179.0,170.0,186.5,161.5,193.5,153.5,201.0,145.5,209.5,137.5,217.5,130.5" stroke="black" stroke-width="2" fill="none" />
<polyline points="218.5,138.5,210.5,145.5,203.0,153.0,195.0,160.5,187.5,168.5,179.5,176.5,172.0,184.5" stroke="black" stroke-width="2" fill="none" />
<polyline points="172.5,186.5,180.5,186.0" stroke="black" stroke-width="2" fill="none" />
<polyline points="187.0,191.5,195.0,183.5,203.5,176.0,211.5,168.0,219.5,161.0,227.5,154.0,235.0,146.5" stroke="black" stroke-width="2" fill="none" />
<polyline points="235.5,154.5,227.0,162.0,219.0,169.5,211.0,176.5,202.5,183.0,194.0,190.5" stroke="black" stroke-width="2" fill="none" />
<polyline points="195.0,202.0,204.0,194.0,211.5,186.0,219.5,178.0,227.0,169.5,235.0,161.0,243.0,153.0" stroke="black" stroke-width="2" fill="none" />
<polyline points="247.5,160.0,259.5,161.5,271.5,163.0,274.5,169.0,280.5,161.0,292.5,162.5,304.5,162.5,316.5,166.0,328.5,168.0,340.0,171.0,352.0,171.0" stroke="black" stroke-width="2" fill="none" />
<polyline points="355.5,195.0,347.5,202.5" stroke="black" stroke-width="2" fill="none" />
<polyline points="347.5,195.0,339.5,202.5" stroke="black" stroke-width="2" fill="none" />
<polyline points="339.0,202.5,347.5,202.0" stroke="black" stroke-width="2" fill="none" />
<polyline points="345.5,202.0,337.5,202.5,329.5,203.0,321.5,203.5,313.5,204.0" stroke="black" stroke-width="2" fill="none" />
<polyline points="316.5,193.5,324.5,186.0" stroke="black" stroke-width="2" fill="none" />
<polyline points="323.0,190.5,315.0,191.0" stroke="black" stroke-width="2" fill="none" />
<polyline points="314.5,193.0,322.0,192.5" stroke="black" stroke-width="2" fill="none" />
<polyline points="318.5,186.0,320.0,204.0,327.5,206.0,339.5,209.5,351.0,206.5,363.0,204.5,379.5,205.0" stroke="black" stroke-width="2" fill="none" />
<polyline points="373.0,217.5,365.0,225.0" stroke="black" stroke-width="2" fill="none" />
<polyline points="364.0,221.5,372.0,221.0" stroke="black" stroke-width="2" fill="none" />
<polyline points="370.0,230.5,362.0,231.5" stroke="black" stroke-width="2" fill="none" />
<polyline points="361.0,240.0,369.0,239.5" stroke="black" stroke-width="2" fill="none" />
<polyline points="371.0,243.0,363.0,251.0,355.0,258.5,346.5,266.5,338.0,274.0,329.5,281.5,321.5,289.5,314.5,297.0,307.0,304.0,299.5,311.5,291.5,319.0,283.5,326.5,275.0,333.5" stroke="black" stroke-width="2" fill="none" />
<polyline points="267.0,333.0,274.5,325.5,282.0,318.5,290.0,311.5,298.0,304.0,306.0,296.5,314.5,289.0,323.0,281.0,331.0,273.5,339.0,265.5,347.0,258.0,355.5,250.5,364.0,243.0,372.0,235.5" stroke="black" stroke-width="2" fill="none" />
<polyline points="369.0,247.0,361.0,247.0" stroke="black" stroke-width="2" fill="none" />
<polyline points="369.5,256.5,377.5,256.0,386.0,255.0" stroke="black" stroke-width="2" fill="none" />
<polyline points="380.0,262.5,388.5,261.5,396.5,261.0,404.0,260.0,411.5,259.5,420.0,258.5,428.0,258.5,436.5,258.0,445.0,258.0,454.0,257.5,462.0,257.0,470.0,256.5,478.0,256.0,486.0,255.5,494.0,255.0,502.0,254.0,510.0,253.5,518.0,252.5" stroke="black" stroke-width="2" fill="none" />
<polyline points="516.5,243.5,508.5,244.0,500.5,244.5" stroke="black" stroke-width="2" fill="none" />
<polyline points="505.0,240.5,507.0,236.0,513.0,254.0,513.0,266.0,513.0,278.0,513.0,289.5,512.5,301.5,512.5,313.5,512.5,325.5,512.5,337.0" stroke="black" stroke-width="2" fill="none" />
<polyline points="516.5,234.5,508.5,234.5,500.0,235.0" stroke="black" stroke-width="2" fill="none" />
<polyline points="495.5,229.0,507.5,228.0" stroke="black" stroke-width="2" fill="none" />
<polyline points="508.5,228.5,516.0,221.0" stroke="black" stroke-width="2" fill="none" />
<polyline points="508.0,206.0,516.0,198.5" stroke="black" stroke-width="2" fill="none" />
<polyline points="515.5,188.5,507.5,196.0,499.5,203.5" stroke="black" stroke-width="2" fill="none" />
<polyline points="492.0,199.5,499.5,199.0,507.5,199.0,515.5,198.5" stroke="black" stroke-width="2" fill="none" />
<polyline points="505.5,188.0,498.0,195.5,490.0,202.0" stroke="black" stroke-width="2" fill="none" />
<polyline points="491.5,195.5,499.5,188.0" stroke="black" stroke-width="2" fill="none" />
<polyline points="501.5,191.0,509.0,190.5,517.0,190.0" stroke="black" stroke-width="2" fill="none" />
<polyline points="507.5,180.5,500.5,181.0,492.5,182.0" stroke="black" stroke-width="2" fill="none" />
<polyline points="480.5,172.0,492.0,163.0,511.5,164.5" stroke="black" stroke-width="2" fill="none" />
<polyline points="508.0,141.5,516.0,141.0" stroke="black" stroke-width="2" fill="none" />
<polyline points="515.5,130.0,508.0,131.0,500.0,132.0" stroke="black" stroke-width="2" fill="none" />
<polyline points="516.5,153.0,508.5,153.5,500.5,154.0,492.0,155.0,483.0,155.5,475.0,156.0,467.0,155.5,458.5,155.5" stroke="black" stroke-width="2" fill="none" />
<polyline points="449.5,158.0,441.0,158.0" stroke="black" stroke-width="2" fill="none" />
<polyline points="435.0,139.0,427.0,139.5" stroke="black" stroke-width="2" fill="none" />
<polyline points="443.0,118.0,451.0,117.5,459.0,116.5,467.0,116.0" stroke="black" stroke-width="2" fill="none" />
<polyline points="443.0,161.5,435.5,161.5,427.0,162.0,419.0,162.5,411.0,164.0,403.0,164.5" stroke="black" stroke-width="2" fill="none" />
<polyline points="403.5,157.0,411.0,156.0" stroke="black" stroke-width="2" fill="none" />
<polyline points="403.5,189.5,411.5,189.0,420.0,188.5,428.0,187.5,436.0,187.0,444.0,186.0" stroke="black" stroke-width="2" fill="none" />
<polyline points="450.5,187.5,458.5,187.5,466.5,187.5,475.0,187.0,482.5,186.5,491.0,186.0,499.5,185.0,508.5,184.0,516.5,183.5" stroke="black" stroke-width="2" fill="none" />
<polyline points="516.5,196.0,508.0,196.0,500.5,196.5,492.5,197.0,485.0,197.5" stroke="black" stroke-width="2" fill="none" />
<polyline points="476.5,204.0,484.0,204.0,491.5,203.5,499.5,202.5,507.0,201.5,515.0,200.5" stroke="black" stroke-width="2" fill="none" />
<polyline points="515.5,225.5,507.0,226.0,498.5,226.5,489.5,227.0" stroke="black" stroke-width="2" fill="none" />
<polyline points="492.0,239.5,484.5,240.0,476.5,241.0,468.0,241.0,459.5,241.0,451.5,241.5,444.0,242.0,436.0,242.5,428.0,243.0,420.0,243.5,412.0,244.0,404.0,244.5,395.5,244.5" stroke="black" stroke-width="2" fill="none" />
<polyline points="412.0,251.5,419.5,251.0,428.0,250.5,436.5,250.0,444.0,249.5,452.0,249.0,459.5,248.5,467.5,248.0,475.5,247.5,483.5,247.5,492.0,247.0,499.5,246.5,507.0,246.0" stroke="black" stroke-width="2" fill="none" />
<polyline points="517.0,218.5,509.0,219.5,500.5,220.5,492.0,221.0,483.5,221.0,476.0,221.5" stroke="black" stroke-width="2" fill="none" />
<polyline points="476.0,214.5,484.0,214.0,491.5,212.5,499.5,212.0,507.5,211.0,515.0,210.5" stroke="black" stroke-width="2" fill="none" />
<polyline points="506.5,213.5,494.5,215.0" stroke="black" stroke-width="2" fill="none" />
<polyline points="467.5,228.0,459.5,229.0" stroke="black" stroke-width="2" fill="none" />
<polyline points="442.0,234.5,433.5,235.0,426.0,235.5" stroke="black" stroke-width="2" fill="none" />
<polyline points="364.5,203.5,357.0,211.0" stroke="black" stroke-width="2" fill="none" />
<polyline points="356.5,211.5,361.0,223.0,368.0,228.0,351.5,243.0,357.0,237.5" stroke="black" stroke-width="2" fill="none" />
<polyline points="348.5,227.5,340.5,234.5" stroke="black" stroke-width="2" fill="none" />
<polyline points="332.5,235.0,340.0,226.5,348.0,219.0" stroke="black" stroke-width="2" fill="none" />
<polyline points="347.0,215.5,339.5,216.0,332.5,216.5,324.5,217.0,317.0,218.0" stroke="black" stroke-width="2" fill="none" />
<polyline points="308.0,214.5,315.5,213.5,323.5,213.0,331.0,212.5,339.0,212.0,347.0,211.0" stroke="black" stroke-width="2" fill="none" />
<polyline points="350.0,210.5,342.0,218.0,334.0,225.0,325.5,232.5" stroke="black" stroke-width="2" fill="none" />
<polyline points="315.5,234.0,323.0,226.0,331.0,218.5,339.0,211.0" stroke="black" stroke-width="2" fill="none" />
<polyline points="342.0,214.0,345.5,226.0" stroke="black" stroke-width="2" fill="none" />
<polyline points="332.5,211.5,324.5,219.0,316.5,226.5,308.0,234.0,299.0,241.5,291.0,249.0,283.0,257.5,275.0,266.0,267.5,274.0,260.0,282.0,252.0,289.5,244.0,297.0,235.5,304.0,227.5,311.0,219.5,318.5" stroke="black" stroke-width="2" fill="none" />
<polyline points="227.5,319.0,236.0,311.5,244.5,304.0,252.5,296.0,261.0,289.0,269.5,282.0,278.0,275.0,286.0,267.5,294.5,260.5" stroke="black" stroke-width="2" fill="none" />
<polyline points="297.0,262.0,289.0,269.0,281.0,276.0,273.5,283.0,266.0,290.0,258.5,297.5,251.0,305.0,243.5,312.5,236.0,320.0,228.5,327.5,220.5,335.5" stroke="black" stroke-width="2" fill="none" />
<polyline points="217.0,334.0,209.5,341.0" stroke="black" stroke-width="2" fill="none" />
<polyline points="203.0,338.0,211.0,337.5,219.5,337.0,228.0,336.0" stroke="black" stroke-width="2" fill="none" />
<polyline points="228.5,334.0,237.0,326.5,244.5,318.5,252.5,310.5,261.0,303.0,269.0,295.5,276.5,288.0,284.0,280.5,291.5,272.5,299.0,265.0,307.5,258.0,315.5,250.5" stroke="black" stroke-width="2" fill="none" />
<polyline points="318.0,260.0,326.0,259.0,333.0,258.0,340.0,257.0,347.0,256.5,354.0,255.5" stroke="black" stroke-width="2" fill="none" />
<polyline points="348.0,251.0,339.5,258.0,331.0,266.0,323.0,273.5,315.5,281.0,307.5,288.5,299.0,296.5,291.0,304.0,283.0,312.0,275.5,320.0,267.5,328.0,259.0,335.0" stroke="black" stroke-width="2" fill="none" />
<polyline points="251.5,335.5,259.5,328.0,267.5,320.5,275.5,313.0,284.0,305.5,292.5,298.0,300.5,290.0,308.0,282.5,316.0,274.5,323.5,266.5,331.0,259.5,339.0,252.0" stroke="black" stroke-width="2" fill="none" />
<polyline points="332.5,248.0,324.5,256.0,316.5,264.5,308.5,272.0,300.5,279.0,292.5,287.0,284.5,294.5,276.5,303.0,268.5,311.0,260.5,318.0,252.5,325.0,244.5,333.0" stroke="black" stroke-width="2" fill="none" />
<polyline points="236.5,335.0,244.5,327.5,252.0,320.0,260.0,312.0,268.5,304.5,276.5,296.5,285.0,289.0,292.5,281.5,300.0,273.0,308.0,265.5,316.0,257.5,324.0,250.0,332.0,242.5" stroke="black" stroke-width="2" fill="none" />
<polyline points="346.5,223.0,338.0,223.5,330.0,224.0,322.0,224.5,314.0,224.5,305.5,224.5" stroke="black" stroke-width="2" fill="none" />
<polyline points="301.0,233.5,309.0,226.5,317.0,219.0,325.5,211.0" stroke="black" stroke-width="2" fill="none" />
<polyline points="329.5,196.0,338.0,195.5,346.0,195.5,354.0,195.5,361.5,195.5,369.0,195.0" stroke="black" stroke-width="2" fill="none" />
<polyline points="363.0,207.5,355.5,208.0" stroke="black" stroke-width="2" fill="none" />
<polyline points="356.5,205.5,364.0,204.5" stroke="black" stroke-width="2" fill="none" />
<polyline points="355.0,200.0,367.0,199.5,379.5,199.5,392.0,201.0,403.5,200.5,413.5,202.0,425.5,201.5,437.5,203.0,449.5,202.5,461.5,199.5,473.0,199.5,485.0,198.0,497.0,187.5,509.0,184.5" stroke="black" stroke-width="2" fill="none" />
<polyline points="417.5,115.5,409.5,115.5,401.0,116.5" stroke="black" stroke-width="2" fill="none" />
<polyline points="363.0,101.0,355.5,101.0" stroke="black" stroke-width="2" fill="none" />
<polyline points="368.5,53.5,357.0,57.5,345.0,59.5,333.0,61.0,320.5,64.0" stroke="black" stroke-width="2" fill="none" />
<polyline points="312.0,111.5,300.0,108.5" stroke="black" stroke-width="2" fill="none" />
<polyline points="318.5,128.0,309.5,133.0,297.5,136.0" stroke="black" stroke-width="2" fill="none" />
<polyline points="297.5,138.5,310.0,138.5" stroke="black" stroke-width="2" fill="none" />
<polyline points="324.5,145.5,316.5,146.0,308.0,146.5,300.0,147.0,291.5,147.5,283.5,148.0,275.0,148.0,267.0,148.5,259.0,149.0,251.5,149.0,244.0,149.5,236.0,150.0,228.0,150.5,220.0,151.0,211.5,151.5,203.5,152.0,195.5,152.5,188.0,153.0,180.0,153.5,172.0,154.5,164.5,155.0,156.0,155.5,148.0,156.5,140.0,157.0,131.5,158.0,123.5,159.0,115.5,159.0,107.5,159.5,100.0,159.5,92.0,160.5,84.0,161.5,76.0,162.0,67.5,162.0,59.5,162.0,51.5,162.0,43.5,162.0,35.5,162.5,28.0,164.0,20.0,165.0,12.0,165.5,4.0,165.5" stroke="black" stroke-width="2" fill="none" />
<polyline points="5.0,165.5,13.0,157.5,20.5,150.0,28.5,142.5,36.5,135.5,44.5,128.0,52.5,120.0,59.5,112.5,67.5,104.5,75.5,97.0,83.5,89.0,91.0,80.5,99.0,73.5" stroke="black" stroke-width="2" fill="none" />
<polyline points="91.5,74.0,83.5,81.5,76.0,89.5,68.0,97.0,59.5,104.5,51.5,112.0,43.0,119.5,35.0,127.5,26.5,135.0,18.5,143.5,10.0,151.0,2.0,158.5" stroke="black" stroke-width="2" fill="none" />
<polyline points="1.5,158.5,9.5,158.0,18.0,157.5,26.5,156.5,34.5,155.5,43.0,155.5,51.0,155.0,59.0,154.5,67.0,154.5,75.0,154.0,83.0,153.0,91.5,152.5,99.0,151.5,107.5,150.5,115.5,149.5,124.0,148.5,132.5,148.5,141.0,147.5,149.5,147.0,158.0,146.5,166.0,145.5,173.5,145.0,181.5,144.5,189.5,144.0,197.0,143.5,205.5,142.5,213.0,142.5,219.5,142.5,227.0,142.0,234.5,142.0,242.5,141.5,250.5,141.0" stroke="black" stroke-width="2" fill="none" />
<polyline points="252.5,163.0,244.5,171.0,237.0,178.5,229.0,185.5,221.0,192.5,212.5,200.0,204.0,207.0" stroke="black" stroke-width="2" fill="none" />
<polyline points="203.5,208.5,211.5,208.0,220.0,208.0,228.0,208.0,236.0,208.0,243.5,207.0,252.0,207.0" stroke="black" stroke-width="2" fill="none" />
<polyline points="252.5,202.0,244.5,210.0,236.5,217.5" stroke="black" stroke-width="2" fill="none" />
<polyline points="237.0,225.5,245.0,225.0,253.0,224.5,260.5,224.0" stroke="black" stroke-width="2" fill="none" />
<polyline points="252.0,218.5,260.0,217.5,268.0,217.0,276.0,216.0,284.5,216.0,292.5,215.5" stroke="black" stroke-width="2" fill="none" />
<polyline points="290.5,208.5,298.5,208.0" stroke="black" stroke-width="2" fill="none" />
<polyline points="298.5,197.5,290.5,204.5,283.0,211.5,275.5,218.5,268.0,226.0,260.0,234.0,252.5,241.0" stroke="black" stroke-width="2" fill="none" />
<polyline points="253.0,242.0,226.0,253.5,220.0,267.0,207.5,277.5,219.5,266.5" stroke="black" stroke-width="2" fill="none" />
<polyline points="226.5,266.0,235.0,265.5,242.5,264.5,250.5,264.0,259.0,263.0" stroke="black" stroke-width="2" fill="none" />
<polyline points="257.5,268.0,269.5,263.0,282.0,263.0,293.5,259.0" stroke="black" stroke-width="2" fill="none" />
<polyline points="290.5,250.5,298.5,250.0" stroke="black" stroke-width="2" fill="none" />
<polyline points="298.0,239.5,310.0,232.0,313.0,227.0,302.0,229.0,290.0,241.0,293.0,253.0,303.5,254.5,310.0,249.5,322.0,246.5" stroke="black" stroke-width="2" fill="none" />
<polyline points="307.5,236.5,320.0,237.0,332.0,235.5,344.0,234.0" stroke="black" stroke-width="2" fill="none" />
<polyline points="355.0,268.0,347.0,275.5,339.0,283.5,331.0,291.0,323.0,298.0" stroke="black" stroke-width="2" fill="none" />
<polyline points="323.0,306.0,330.5,298.5,338.5,290.5,346.5,282.5,354.0,275.0" stroke="black" stroke-width="2" fill="none" />
<polyline points="364.5,276.5,356.5,283.5,349.5,291.0,342.0,298.5" stroke="black" stroke-width="2" fill="none" />
<polyline points="339.0,306.0,347.0,305.0" stroke="black" stroke-width="2" fill="none" />
<polyline points="354.0,308.5,346.0,316.5" stroke="black" stroke-width="2" fill="none" />
<polyline points="347.0,321.0,355.0,320.0" stroke="black" stroke-width="2" fill="none" />
<polyline points="355.0,322.0,346.5,330.0" stroke="black" stroke-width="2" fill="none" />
<polyline points="339.5,331.5,347.5,324.0,355.5,316.5" stroke="black" stroke-width="2" fill="none" />
<polyline points="363.0,310.5,370.5,310.0,378.5,310.0,387.0,309.5,396.0,309.0,404.0,308.5,412.0,307.5,420.0,307.0,427.5,306.5,435.5,306.0,443.5,305.0,451.5,305.0,459.5,304.0,467.5,303.0,474.5,301.5,483.0,300.5,491.0,300.0,499.5,300.0,507.5,299.5,515.0,299.0" stroke="black" stroke-width="2" fill="none" />
<polyline points="373.5,308.0,365.5,315.5" stroke="black" stroke-width="2" fill="none" />
<polyline points="365.0,307.0,373.0,299.5" stroke="black" stroke-width="2" fill="none" />
<polyline points="373.0,291.5,364.5,299.0" stroke="black" stroke-width="2" fill="none" />
<polyline points="364.0,297.0,372.0,296.5" stroke="black" stroke-width="2" fill="none" />
<polyline points="363.0,291.5,371.5,284.5" stroke="black" stroke-width="2" fill="none" />
<polyline points="365.5,284.0,357.5,291.5,348.5,299.0,340.0,306.5,331.5,314.0,323.5,322.0,315.5,329.5" stroke="black" stroke-width="2" fill="none" />
<polyline points="324.0,330.5,332.5,323.0,340.0,315.5,348.0,308.0,355.5,300.0" stroke="black" stroke-width="2" fill="none" />
<polyline points="364.0,303.5,372.0,303.0,380.5,302.0,388.5,301.0,397.0,300.0,404.5,298.5,413.0,298.0,420.5,298.0,428.5,298.0,437.0,297.0,445.0,296.0,452.5,295.5,459.5,295.0,467.0,294.5,475.0,294.5,483.0,294.0,491.0,293.0,500.0,293.0,508.0,293.0,515.5,292.0" stroke="black" stroke-width="2" fill="none" />
<polyline points="516.0,323.0,508.5,323.5,500.5,324.5,492.0,325.5,484.5,326.0,476.5,327.0,468.0,328.0,459.5,329.0,451.5,329.5,443.5,330.0,435.5,330.5,427.5,331.5,420.0,332.5,411.5,333.5,403.5,333.5,395.0,333.5,387.0,334.0,379.0,334.5,370.5,335.0" stroke="black" stroke-width="2" fill="none" />
<polyline points="338.5,322.0,330.5,329.5" stroke="black" stroke-width="2" fill="none" />
<polyline points="334.0,331.0,342.0,330.5" stroke="black" stroke-width="2" fill="none" />
<polyline points="335.0,323.0,346.5,327.5,358.5,329.5" stroke="black" stroke-width="2" fill="none" />
<polyline points="347.5,312.5,340.0,314.0,332.0,315.0" stroke="black" stroke-width="2" fill="none" />
<polyline points="332.5,306.5,324.5,314.0,316.5,321.5" stroke="black" stroke-width="2" fill="none" />
<polyline points="314.0,313.0,306.0,320.5" stroke="black" stroke-width="2" fill="none" />
<polyline points="306.0,327.0,314.0,326.0,321.5,324.5,330.0,323.0,339.0,322.0,347.0,321.5,355.0,320.5,363.0,320.5,370.5,320.5,378.5,320.0,387.0,319.5,395.0,319.0,403.0,317.5,411.0,317.0,419.5,316.5,427.0,316.5,435.5,316.5,444.0,315.5,452.0,315.5,459.5,315.5,467.5,315.5,475.5,315.0,483.5,314.5,491.5,313.5,499.5,312.5,508.5,312.5,516.0,311.5" stroke="black" stroke-width="2" fill="none" />
<polyline points="514.5,284.0,506.0,284.0,498.5,284.5,490.5,284.5,482.5,285.5,475.0,286.0,467.5,287.0,459.5,287.5,451.0,288.5,442.5,289.5,435.0,290.0,427.5,291.0,419.5,291.5,411.5,292.0,403.0,292.0,395.0,292.0,387.0,292.0,378.5,292.0,370.5,292.0,362.0,292.5" stroke="black" stroke-width="2" fill="none" />
<polyline points="363.0,268.5,371.0,268.5,379.0,267.5,387.5,267.5,396.5,268.0,404.5,267.5,412.5,267.5,420.5,267.0,428.5,266.0,436.0,265.5,444.0,264.5,452.0,264.0,460.5,264.0,468.0,263.5,475.5,263.0,483.0,262.5,491.5,262.0,499.5,261.5,507.5,261.5,515.5,260.5" stroke="black" stroke-width="2" fill="none" />
<polyline points="332.0,305.5,324.5,306.0" stroke="black" stroke-width="2" fill="none" />
<polyline points="315.0,306.5,307.5,314.0,299.5,322.0,292.0,329.0,284.0,336.5" stroke="black" stroke-width="2" fill="none" />
<polyline points="285.5,330.0,297.5,321.0,301.0,316.0,313.0,316.0,316.5,311.5,328.5,310.0,340.5,308.5" stroke="black" stroke-width="2" fill="none" />
<polyline points="354.5,323.0,347.5,323.5,340.0,324.5,332.5,325.5,325.0,326.0,317.5,326.5,309.5,326.5,301.0,327.5,293.0,328.0,285.5,329.0,277.0,329.5,269.0,329.5,261.0,329.5,253.0,330.0,244.0,330.5,236.0,331.0,227.5,331.5,218.5,331.5,209.5,332.0,201.5,333.0" stroke="black" stroke-width="2" fill="none" />
<polyline points="201.0,338.0,209.0,330.5" stroke="black" stroke-width="2" fill="none" />
<polyline points="211.5,321.0,219.5,320.5" stroke="black" stroke-width="2" fill="none" />
<polyline points="211.5,319.5,219.5,312.0,227.5,304.0,235.5,296.0,244.0,288.5,252.5,280.5,260.5,272.5,268.5,265.0,276.5,257.0,284.5,250.0" stroke="black" stroke-width="2" fill="none" />
<polyline points="283.5,244.0,291.5,236.5" stroke="black" stroke-width="2" fill="none" />
<polyline points="292.5,240.0,285.0,240.5" stroke="black" stroke-width="2" fill="none" />
<polyline points="282.5,235.0,290.5,227.0" stroke="black" stroke-width="2" fill="none" />
<polyline points="285.5,222.0,293.0,221.0,301.0,220.5,309.5,219.5,317.5,219.5,325.0,219.0,332.5,218.5,340.0,217.5,347.5,216.5" stroke="black" stroke-width="2" fill="none" />
<polyline points="372.0,233.5,364.0,234.0,356.0,235.0,348.0,236.0,340.0,237.0,332.0,237.0,324.5,237.0,317.0,237.5,309.0,238.5,301.5,239.0" stroke="black" stroke-width="2" fill="none" />
<polyline points="300.0,233.5,308.5,233.5,316.0,233.0,323.5,233.0,330.5,232.5,338.0,232.5,346.5,232.0" stroke="black" stroke-width="2" fill="none" />
<polyline points="356.0,260.0,348.0,260.5,340.0,261.5,331.5,262.5,323.5,263.0,315.0,263.5,306.0,263.0,298.5,264.0,291.0,264.0,283.5,264.0,276.0,264.0,268.5,264.0" stroke="black" stroke-width="2" fill="none" />
<polyline points="276.0,252.0,267.0,260.0,258.5,267.5,250.5,275.0,242.5,282.0,235.0,289.0,227.0,296.5,219.5,303.5,212.0,310.5" stroke="black" stroke-width="2" fill="none" />
<polyline points="206.0,310.0,213.0,302.5,220.5,295.5,228.5,288.0,236.0,280.5,244.0,273.5,252.0,266.5,260.0,259.5,268.0,252.5,276.5,245.5" stroke="black" stroke-width="2" fill="none" />
<polyline points="268.5,245.0,261.0,252.5,252.5,260.0,244.5,267.5,236.0,275.0,227.5,283.0,219.0,290.0,211.0,296.5,203.0,303.0,195.0,310.5" stroke="black" stroke-width="2" fill="none" />
<polyline points="197.0,309.0,205.0,308.5,213.0,308.5,221.5,308.0,229.5,307.5,237.5,307.0,245.0,306.0,252.0,305.0,260.0,304.5,267.5,304.0,275.0,304.0,283.5,303.5,291.5,303.0,299.5,302.5,306.5,301.5,314.5,301.0,322.5,300.5,331.0,300.0,339.5,300.0,348.0,299.5,356.5,299.5" stroke="black" stroke-width="2" fill="none" />
<polyline points="354.5,265.5,346.0,266.0,338.5,267.0,330.0,267.5,322.5,267.5,315.5,268.0,308.0,268.0,300.5,268.5,292.0,268.5,284.0,269.0,276.0,270.0,268.0,270.5,260.0,271.5,252.0,272.0,244.0,272.5,235.0,272.5,226.5,273.5,219.0,274.5,211.0,275.0" stroke="black" stroke-width="2" fill="none" />
<polyline points="197.5,279.5,205.0,279.5,213.0,279.0,220.5,279.0,228.5,278.5,236.5,278.0,244.5,278.5,252.0,278.0,260.0,277.5,268.0,277.5,276.0,277.0,284.0,276.5,292.5,276.0,300.0,275.0,307.5,274.0,315.5,273.0,323.5,272.5,331.0,272.0,339.0,272.0,347.0,271.5,355.5,271.0,363.0,271.0" stroke="black" stroke-width="2" fill="none" />
<polyline points="349.0,225.0,341.5,225.5,334.0,225.5,326.0,226.0,317.5,227.0,309.0,228.0,300.5,228.5,292.0,228.5,284.0,229.0,276.0,229.0,267.5,229.5,260.0,229.5,252.5,230.0,244.5,230.0" stroke="black" stroke-width="2" fill="none" />
<polyline points="244.5,234.5,252.5,234.0,260.0,233.5,268.0,232.5,276.5,232.0,284.0,231.5" stroke="black" stroke-width="2" fill="none" />
<polyline points="283.5,225.5,275.5,233.0" stroke="black" stroke-width="2" fill="none" />
<polyline points="275.5,227.0,267.5,234.5" stroke="black" stroke-width="2" fill="none" />
<polyline points="256.5,245.5,249.0,252.5,241.5,260.0,234.0,267.5,226.0,275.0,218.5,281.5,211.0,289.0,203.5,296.0,196.0,303.5" stroke="black" stroke-width="2" fill="none" />
<polyline points="186.5,304.0,194.0,296.0,202.0,288.5,210.0,281.0,218.0,274.0,226.0,266.5,234.5,259.0,242.5,252.0" stroke="black" stroke-width="2" fill="none" />
<polyline points="236.0,249.5,244.0,242.0,252.5,234.0,260.5,226.0,268.0,218.5,276.0,211.0,284.0,203.0,292.0,195.5" stroke="black" stroke-width="2" fill="none" />
<polyline points="291.5,197.5,283.5,198.0,275.5,198.5,267.0,199.0,258.5,200.0,250.5,200.5,242.5,200.5,234.5,201.0,227.0,201.5,219.0,202.0,210.5,202.0,202.5,202.5,194.5,203.0,187.0,203.0,179.5,203.5,173.0,203.5,165.5,203.5,157.0,204.5,149.5,205.0,141.5,205.5,133.5,206.0,126.0,206.5,118.0,207.5,109.5,208.0,101.0,208.5,92.5,209.5,84.0,209.5,75.5,210.5,67.5,211.5,59.0,212.5,51.5,213.5,43.0,214.0" stroke="black" stroke-width="2" fill="none" />
<polyline points="44.0,225.5,36.0,233.5" stroke="black" stroke-width="2" fill="none" />
<polyline points="27.5,235.5,19.5,243.0,11.5,250.5,3.5,257.5" stroke="black" stroke-width="2" fill="none" />
<polyline points="1.5,261.0,10.0,260.5,18.5,260.0,27.0,259.5,35.5,259.0,44.5,259.0,53.0,258.5,61.0,258.0,69.0,258.0,77.0,257.5,85.5,257.5,93.0,256.5,101.0,256.0" stroke="black" stroke-width="2" fill="none" />
<polyline points="99.0,259.0,107.5,258.0" stroke="black" stroke-width="2" fill="none" />
<polyline points="108.5,261.0,116.0,260.5,124.0,259.5,132.0,259.0,139.5,258.5,147.5,258.0,155.5,257.5,164.0,257.0,172.0,256.5,180.0,256.0,188.0,255.5,195.5,255.0,203.0,255.0,211.0,254.5,219.0,254.0,227.5,254.0,235.5,253.5,244.0,253.0,252.0,252.5,260.5,252.0,268.5,251.5,276.0,250.5,283.5,249.5,291.0,249.0,298.5,248.5,306.5,248.5,314.5,248.0,322.5,247.5,330.5,247.0,337.5,246.5,345.5,246.0,353.5,245.5" stroke="black" stroke-width="2" fill="none" />
<polyline points="293.0,234.5,284.5,235.0,276.0,235.5,268.0,236.0,260.0,236.0,251.5,236.5,243.5,236.5,235.5,237.0" stroke="black" stroke-width="2" fill="none" />
<polyline points="234.5,241.0,242.5,240.5,250.5,240.0,258.5,240.0" stroke="black" stroke-width="2" fill="none" />
<polyline points="260.0,250.0,268.0,249.5" stroke="black" stroke-width="2" fill="none" />
<polyline points="267.5,255.5,259.0,256.0,251.0,256.5,243.0,256.5,235.5,257.0" stroke="black" stroke-width="2" fill="none" />
<polyline points="228.5,258.0,220.5,265.5,212.0,273.0,204.0,280.5,195.5,289.0,187.5,297.0,179.0,305.0,170.5,313.0,162.0,321.0,153.5,329.0" stroke="black" stroke-width="2" fill="none" />
<polyline points="156.0,332.5,163.5,332.0,171.0,332.0" stroke="black" stroke-width="2" fill="none" />
<polyline points="178.5,329.5,186.5,322.0" stroke="black" stroke-width="2" fill="none" />
<polyline points="186.0,313.5,178.0,321.0,169.5,328.5,162.0,336.5" stroke="black" stroke-width="2" fill="none" />
<polyline points="162.5,330.5,171.5,323.0,179.5,315.5" stroke="black" stroke-width="2" fill="none" />
<polyline points="178.5,305.0,187.0,304.5,195.5,304.0,203.5,304.0,211.5,304.0,219.5,303.5,227.0,303.0,235.5,302.5,243.5,301.5,251.5,300.5,259.5,300.0,267.0,299.5,275.0,299.5,283.0,299.0,291.5,298.5,300.0,298.0,308.0,297.5,316.0,297.5" stroke="black" stroke-width="2" fill="none" />
<polyline points="313.5,306.5,325.5,302.0,337.5,302.0,348.0,299.0,360.5,293.0" stroke="black" stroke-width="2" fill="none" />
<polyline points="313.5,312.5,305.5,313.0" stroke="black" stroke-width="2" fill="none" />
<polyline points="298.0,332.0,290.5,339.5" stroke="black" stroke-width="2" fill="none" />
<polyline points="298.0,341.0,306.0,333.5" stroke="black" stroke-width="2" fill="none" />
<polyline points="302.0,340.5,314.0,336.0,320.5,339.0,333.0,332.5,347.0,338.5,359.5,335.0,359.5,338.0,371.5,339.5,383.5,339.5,395.5,340.0,408.0,340.0,419.5,340.0,431.5,340.0,443.5,340.5,455.0,341.0,467.0,341.5,478.5,341.5,490.5,341.5,502.5,341.5" stroke="black" stroke-width="2" fill="none" />
<polyline points="275.5,320.0,267.5,320.5,259.0,321.0" stroke="black" stroke-width="2" fill="none" />
<polyline points="252.0,336.0,244.5,336.5,236.5,336.5" stroke="black" stroke-width="2" fill="none" />
<polyline points="236.0,330.0,227.5,330.0" stroke="black" stroke-width="2" fill="none" />
<polyline points="227.0,327.0,234.5,326.0,242.0,326.0,249.5,325.5,257.5,325.5,265.5,324.5,274.0,324.0,282.5,323.0,291.0,322.5,299.0,322.0" stroke="black" stroke-width="2" fill="none" />
<polyline points="244.0,320.0,236.0,320.5" stroke="black" stroke-width="2" fill="none" />
<polyline points="210.0,319.5,218.0,319.0,226.0,318.0,234.0,317.5,242.5,317.0,251.0,316.5,259.5,315.5,268.0,315.0,276.5,314.5,285.0,314.0,293.5,314.0,301.0,313.5,309.0,312.5,316.5,312.0,324.0,312.0,332.0,312.0,340.0,311.0,348.0,310.0,356.0,309.0,364.0,308.5,372.0,308.5,380.5,307.5,388.5,307.0,396.0,306.0,403.5,305.5,412.0,304.5,420.0,304.5,428.5,304.0,437.0,304.0,446.0,303.5,454.0,303.0,462.0,302.5,470.0,302.0,478.0,301.5,486.0,301.0,494.0,300.0,502.0,299.5,510.0,298.5,517.5,297.5" stroke="black" stroke-width="2" fill="none" />
<polyline points="371.0,234.5,363.0,234.5,354.5,235.0,347.0,235.5,339.5,236.0,331.5,236.5,324.0,237.5,316.0,238.0,308.5,239.0,300.5,239.5,292.5,240.0,284.0,241.0,276.0,241.0,268.0,241.5,259.5,242.0,251.0,242.0,243.5,242.5,235.0,243.0,227.0,243.5,219.5,244.0,211.5,244.5,203.0,245.0" stroke="black" stroke-width="2" fill="none" />
<polyline points="203.0,243.5,211.0,235.5,219.0,228.0" stroke="black" stroke-width="2" fill="none" />
<polyline points="219.5,234.0,227.0,226.5" stroke="black" stroke-width="2" fill="none" />
<polyline points="226.5,234.0,234.0,227.0,242.0,219.5,250.0,212.5,257.5,205.0,265.5,198.0" stroke="black" stroke-width="2" fill="none" />
<polyline points="266.5,200.5,274.0,200.5,282.0,199.5" stroke="black" stroke-width="2" fill="none" />
<polyline points="282.0,195.0,274.0,203.0,266.5,211.0,259.0,219.0,251.5,226.0,244.0,233.5,236.0,241.0,228.5,248.5,220.5,255.5,212.0,262.5,204.0,270.0,195.5,277.0,187.0,285.0,179.0,292.5,171.5,300.0" stroke="black" stroke-width="2" fill="none" />
<polyline points="170.5,297.5,178.5,289.5,186.5,281.5,194.5,274.0,202.5,266.0,211.0,258.5,219.0,251.0,226.5,243.0" stroke="black" stroke-width="2" fill="none" />
<polyline points="220.0,246.0,211.5,253.5,203.0,260.5,195.0,267.5,187.0,274.5" stroke="black" stroke-width="2" fill="none" />
<polyline points="180.0,276.5,188.0,269.0,195.5,261.5,203.0,253.0" stroke="black" stroke-width="2" fill="none" />
<polyline points="201.5,255.5,193.5,255.5,185.5,256.0" stroke="black" stroke-width="2" fill="none" />
<polyline points="188.0,250.0,179.5,258.0,171.5,265.5,163.5,273.5,155.5,281.5,147.5,289.0,139.5,296.5,131.0,304.5,122.5,312.0,114.5,319.5,106.5,327.0,98.5,334.0" stroke="black" stroke-width="2" fill="none" />
<polyline points="105.5,335.0,113.5,327.5,121.5,320.5,129.5,313.0,137.5,305.0,145.5,297.0,153.5,289.0,161.5,281.0,170.0,273.5,178.5,266.0,187.0,258.5,195.0,251.5" stroke="black" stroke-width="2" fill="none" />
<polyline points="195.5,244.0,203.5,236.0" stroke="black" stroke-width="2" fill="none" />
<polyline points="194.5,235.5,186.5,243.5" stroke="black" stroke-width="2" fill="none" />
<polyline points="185.0,244.0,193.5,244.0" stroke="black" stroke-width="2" fill="none" />
<polyline points="178.5,244.0,177.0,253.5,187.0,255.0,199.0,255.5,211.0,248.0,222.5,246.5,227.0,240.5" stroke="black" stroke-width="2" fill="none" />
<polyline points="226.5,235.0,235.0,234.5" stroke="black" stroke-width="2" fill="none" />
<polyline points="244.5,221.0,252.0,214.0,259.5,207.0,267.0,199.5,275.0,192.0,282.5,184.5,290.5,177.5,298.5,170.5,307.0,163.5" stroke="black" stroke-width="2" fill="none" />
<polyline points="306.5,165.5,303.5,177.5,284.0,189.5,297.5,201.0,286.5,213.0,285.0,226.5,268.5,249.0,259.5,261.0,249.0,272.0,249.0,274.5,250.5,270.0,262.5,257.0,264.0,245.0,276.0,243.5,288.0,239.5,300.0,232.0" stroke="black" stroke-width="2" fill="none" />
<polyline points="282.5,218.5,290.0,210.5,297.5,203.0,305.5,195.5" stroke="black" stroke-width="2" fill="none" />
<polyline points="307.0,190.5,319.0,187.5,328.0,184.5,339.0,200.0,349.5,202.5,349.5,213.0,351.0,225.5,344.0,240.5,327.5,252.5,331.0,253.0,335.0,245.5,347.5,242.5,361.0,234.5,370.0,240.5,362.0,253.0,351.5,265.0,356.0,277.0,366.5,289.0,357.5,290.5,343.5,296.5,343.5,316.5,331.5,319.0,315.0,336.5,304.5,336.5,309.0,327.5,312.0,327.5,324.0,332.0,324.5,326.0,335.5,314.5,353.5,308.5,368.0,305.5" stroke="black" stroke-width="2" fill="none" />
<polyline points="301.0,200.5,292.5,201.0,284.0,202.0,276.0,203.0,268.0,203.0,260.5,203.0,253.0,203.5,245.0,204.0,237.0,204.0,228.5,204.5,220.0,205.0,212.0,204.5,203.5,205.0" stroke="black" stroke-width="2" fill="none" />
<polyline points="204.5,202.0,212.5,201.5,220.5,201.0" stroke="black" stroke-width="2" fill="none" />
<polyline points="219.5,203.5,211.0,211.0,202.5,218.0" stroke="black" stroke-width="2" fill="none" />
<polyline points="203.0,218.0,194.5,218.0,186.0,218.5,177.5,219.0,170.0,219.5,161.5,220.0,154.0,220.5,145.5,221.0,138.0,221.0,130.0,222.0,122.0,222.5,114.0,223.0,106.5,223.0,98.5,224.0,90.5,224.5,82.0,225.0,74.0,225.5,66.0,226.0,58.5,226.0,51.0,226.5,43.0,227.0,36.0,227.5,28.0,228.0,20.0,229.0,12.0,230.0,4.0,231.0" stroke="black" stroke-width="2" fill="none" />
<polyline points="4.5,234.5,13.0,227.0" stroke="black" stroke-width="2" fill="none" />
<polyline points="12.5,218.5,24.5,218.5" stroke="black" stroke-width="2" fill="none" />
<polyline points="22.0,228.0,14.0,235.5,6.0,243.0" stroke="black" stroke-width="2" fill="none" />
<polyline points="4.0,238.5,11.5,237.5,19.5,236.5,28.0,236.0,35.5,236.0,43.5,235.5,51.5,235.0,60.0,234.5,68.0,234.5,76.5,234.0,84.5,233.0,92.0,233.0,100.0,233.0,107.5,232.0,115.0,231.5,123.0,230.5,131.0,230.0,139.5,229.0,148.0,228.5,156.0,227.5,164.0,226.5,172.0,226.5,179.5,226.5,187.0,226.0,195.5,225.5,204.0,225.5,212.0,225.0" stroke="black" stroke-width="2" fill="none" />
<polyline points="211.5,229.5,220.0,228.5,228.0,228.0,236.5,227.0" stroke="black" stroke-width="2" fill="none" />
<polyline points="227.5,219.5,235.5,212.5,243.0,205.0" stroke="black" stroke-width="2" fill="none" />
<polyline points="235.5,201.0,227.0,208.0,219.0,215.5" stroke="black" stroke-width="2" fill="none" />
<polyline points="210.5,219.0,218.0,211.0,226.0,203.5" stroke="black" stroke-width="2" fill="none" />
<polyline points="234.0,195.0,242.5,187.5,250.5,180.0,258.0,172.5,266.0,165.0" stroke="black" stroke-width="2" fill="none" />
<polyline points="260.5,162.5,252.0,169.0,244.0,176.5,236.0,184.0,228.0,192.0" stroke="black" stroke-width="2" fill="none" />
<polyline points="225.5,190.0,237.5,199.0,243.5,192.0,256.0,198.0,268.0,189.0,286.0,189.0,298.0,181.5,310.0,173.0,314.0,178.5,326.0,178.5,338.0,178.5,350.0,178.5,362.5,179.5,373.0,190.0" stroke="black" stroke-width="2" fill="none" />
<polyline points="341.5,187.5,329.5,184.0" stroke="black" stroke-width="2" fill="none" />
<polyline points="316.0,169.5,324.0,162.0" stroke="black" stroke-width="2" fill="none" />
<polyline points="313.5,164.0,305.5,171.5,298.0,178.5" stroke="black" stroke-width="2" fill="none" />
<polyline points="291.5,175.5,300.0,175.0,308.0,175.0" stroke="black" stroke-width="2" fill="none" />
<polyline points="313.5,170.0,322.0,170.0" stroke="black" stroke-width="2" fill="none" />
<polyline points="305.5,171.5,297.5,172.0,289.5,172.0,281.5,172.5" stroke="black" stroke-width="2" fill="none" />
<polyline points="276.0,172.5,284.0,165.5" stroke="black" stroke-width="2" fill="none" />
<polyline points="275.5,164.0,267.5,171.5" stroke="black" stroke-width="2" fill="none" />
<polyline points="261.5,170.5,269.5,169.5,277.0,169.0,284.5,168.5" stroke="black" stroke-width="2" fill="none" />
<polyline points="293.0,170.5,285.0,178.5,277.0,185.5" stroke="black" stroke-width="2" fill="none" />
<polyline points="276.0,191.0,284.5,190.0" stroke="black" stroke-width="2" fill="none" />
<polyline points="282.5,192.0,274.5,192.5" stroke="black" stroke-width="2" fill="none" />
<polyline points="284.5,193.5,296.5,196.5,308.5,198.0,320.5,198.0,332.5,196.5,343.5,192.5,352.5,198.5,365.0,195.5" stroke="black" stroke-width="2" fill="none" />
<polyline points="292.5,185.0,284.0,186.0" stroke="black" stroke-width="2" fill="none" />
<polyline points="274.0,179.0,266.0,187.0,258.0,194.5" stroke="black" stroke-width="2" fill="none" />
<polyline points="250.0,195.5,257.5,188.0,265.5,180.5" stroke="black" stroke-width="2" fill="none" />
<polyline points="259.0,179.0,251.0,187.0,243.5,194.5" stroke="black" stroke-width="2" fill="none" />
<polyline points="228.5,175.5,220.5,175.5" stroke="black" stroke-width="2" fill="none" />
<polyline points="219.5,185.0,212.0,185.5" stroke="black" stroke-width="2" fill="none" />
<polyline points="203.0,200.5,211.5,193.0,219.5,186.0,227.5,178.5,235.5,171.5,243.5,164.5" stroke="black" stroke-width="2" fill="none" />
<polyline points="260.0,158.0,252.5,158.0,244.5,158.0,237.0,158.5,228.5,159.0,220.5,159.0,213.0,159.5,205.0,160.0,196.5,160.5,187.5,161.0,179.0,162.0,170.5,162.5,162.5,163.0,154.5,164.0,146.5,165.0,139.0,165.5,131.5,166.0,124.0,167.0,116.0,167.5,108.5,168.0,101.0,169.0,92.5,170.0,85.0,170.5,77.0,171.0,69.0,171.5,61.0,171.5,52.5,172.0,44.5,172.5,36.5,173.0,28.0,173.0,20.0,173.5,12.0,173.5,4.0,174.0" stroke="black" stroke-width="2" fill="none" />
<polyline points="4.5,172.5,12.5,165.5,20.0,158.0,28.0,150.5,35.5,143.0,43.5,135.5,51.5,128.0,60.0,120.5,67.5,113.0,75.0,105.5,82.5,97.5,90.5,89.5,98.0,82.0" stroke="black" stroke-width="2" fill="none" />
<polyline points="106.5,82.5,99.0,90.0,90.5,97.5,82.5,105.5,75.0,113.5,67.0,122.0,59.0,129.5,51.0,137.5,43.5,145.0,36.0,152.0,28.0,159.5,19.5,167.0,12.0,174.5,4.0,182.0" stroke="black" stroke-width="2" fill="none" />
<polyline points="4.0,183.0,11.5,182.5,19.0,182.0,27.0,181.0,34.5,180.0,42.0,179.5,49.5,178.5,58.0,178.0,66.0,177.5,73.5,176.5,81.0,176.0,89.5,175.5,98.0,174.5,106.5,173.5,115.0,172.5,124.0,172.0,132.0,171.0,140.0,170.5,148.0,170.0,156.0,170.0,164.5,169.5,172.5,169.0,180.5,169.0,188.5,169.0,195.5,169.0,203.5,169.5,211.0,169.0,218.5,169.0,226.0,168.5,234.5,167.5,242.5,167.0,250.5,166.0,258.5,166.0,266.0,165.5,273.5,164.5,281.5,164.0,289.5,164.0" stroke="black" stroke-width="2" fill="none" />
<polyline points="302.5,156.5,315.0,156.5,327.0,154.0" stroke="black" stroke-width="2" fill="none" />
<polyline points="316.5,178.0,308.5,179.0,300.5,179.5,292.5,180.0,284.0,180.5,276.0,181.5,268.0,182.5,260.0,183.0,252.5,183.0,244.5,183.5,236.0,183.5,228.0,184.0,219.5,184.0,211.5,184.0,204.0,185.0,195.5,186.0,187.5,186.5,179.5,187.0,172.5,187.5,165.0,187.5,156.5,188.0,148.5,189.0,140.5,189.5,132.5,189.5,124.5,190.0,116.0,190.0,107.5,190.0,99.5,190.5,91.0,190.5,83.0,191.0,74.5,191.5,66.5,192.5,59.0,193.0,51.5,194.0,44.0,194.0,36.5,195.0,29.0,196.0,21.0,197.0,13.5,197.5,6.0,198.0" stroke="black" stroke-width="2" fill="none" />
<polyline points="4.5,191.0,4.5,203.0,4.5,215.0,4.0,227.0,4.0,240.5,3.5,253.5" stroke="black" stroke-width="2" fill="none" />
<polyline points="2.5,252.5,10.5,252.5,18.5,252.0,27.0,252.0,35.0,252.0,43.0,252.5,51.5,252.0,60.5,251.5,68.5,251.0,76.5,250.5,84.5,250.5,92.5,249.5,101.0,249.0,109.5,248.0,116.5,247.0,124.0,246.5,132.0,245.5,140.0,244.5,148.0,244.0" stroke="black" stroke-width="2" fill="none" />
<polyline points="141.0,242.5,148.5,241.5,156.5,241.5,164.5,241.0,172.5,241.0,181.0,240.5,188.5,239.5,196.0,239.0,204.0,238.5,211.5,237.5" stroke="black" stroke-width="2" fill="none" />
<polyline points="211.5,252.0,220.0,251.0,228.5,250.0,236.5,249.0" stroke="black" stroke-width="2" fill="none" />
<polyline points="228.0,256.5,220.5,257.5" stroke="black" stroke-width="2" fill="none" />
<polyline points="220.5,263.0,212.0,264.0,203.5,264.5,195.5,265.0" stroke="black" stroke-width="2" fill="none" />
<polyline points="189.5,267.0,181.5,267.0" stroke="black" stroke-width="2" fill="none" />
<polyline points="178.5,251.5,170.5,259.0,162.5,266.0,155.0,273.0,147.5,280.0,139.5,287.0,132.0,295.0,124.0,302.5,115.5,310.0,107.0,318.0,99.0,325.5,91.5,333.0" stroke="black" stroke-width="2" fill="none" />
<polyline points="97.5,323.5,90.0,331.5,82.0,339.0" stroke="black" stroke-width="2" fill="none" />
<polyline points="59.0,333.5,67.0,326.5,75.0,319.5,83.5,312.5,92.0,305.0,99.5,297.5,107.5,289.0,115.0,281.0,123.0,273.0,131.0,265.5,139.5,258.0,148.0,250.5,156.5,243.0,164.5,236.0,172.5,228.0" stroke="black" stroke-width="2" fill="none" />
<polyline points="178.0,226.5,170.0,234.5,162.0,242.0,154.0,250.0" stroke="black" stroke-width="2" fill="none" />
<polyline points="156.0,252.0,163.5,251.5,172.0,251.5,180.0,251.0,187.0,251.0,194.5,251.5,202.0,251.0,210.0,250.5,218.0,250.5,226.0,250.5,234.0,250.5,242.0,250.0,250.0,249.0,258.0,248.5,266.5,248.0,275.0,247.5,283.5,246.5,292.0,246.0,300.5,245.5,309.0,245.0,317.5,245.0,325.0,244.5,333.0,243.5,340.5,243.0,348.0,243.0,356.0,243.0,364.0,242.0" stroke="black" stroke-width="2" fill="none" />
<polyline points="282.0,307.5,274.5,307.5,266.5,308.5,259.0,309.0,251.5,310.0,244.0,310.5,236.0,311.0,228.5,312.0,220.5,312.5,212.5,313.0,204.5,313.5,196.5,314.5" stroke="black" stroke-width="2" fill="none" />
<polyline points="165.0,316.5,157.0,324.0,148.5,332.0" stroke="black" stroke-width="2" fill="none" />
<polyline points="148.0,324.0,156.0,317.0" stroke="black" stroke-width="2" fill="none" />
<polyline points="162.5,310.0,170.5,309.0,178.5,309.0" stroke="black" stroke-width="2" fill="none" />
<polyline points="178.5,283.5,171.0,290.5,163.0,297.5,154.5,305.0,146.5,312.5,138.5,319.5,130.5,327.5,123.0,335.0" stroke="black" stroke-width="2" fill="none" />
<polyline points="114.5,338.5,122.5,331.0,130.5,324.0" stroke="black" stroke-width="2" fill="none" />
<polyline points="132.5,326.5,124.5,327.5,116.5,328.0,108.0,328.0,99.5,328.5,91.0,329.0,83.0,329.5,75.5,330.0,67.5,331.0,59.5,331.0,51.5,331.0,43.5,331.0,35.5,331.0,27.5,331.0,20.0,331.5,12.0,332.0,4.0,332.5" stroke="black" stroke-width="2" fill="none" />
<polyline points="4.5,334.0,12.0,326.5,20.0,319.0,28.0,311.5,36.5,303.5,44.5,296.0,52.5,288.5,60.5,280.5,68.0,273.5,76.5,265.5,84.5,258.0,92.5,250.5,101.0,243.0,109.0,235.5" stroke="black" stroke-width="2" fill="none" />
<polyline points="110.0,228.5,101.5,235.5,93.0,243.0,85.0,250.5,76.5,258.0,68.0,265.0,60.0,273.0,52.0,281.0,44.5,288.5,37.0,296.0,29.0,303.5,21.5,311.0,13.5,318.5,5.5,326.0" stroke="black" stroke-width="2" fill="none" />
<polyline points="3.0,324.0,11.0,323.5,19.5,323.5,28.0,323.0,36.0,323.0,44.0,322.5,52.0,322.5,60.5,322.5,69.0,322.0,77.5,321.0,86.0,320.5,94.0,320.0,102.0,319.5,109.5,319.0,117.5,318.5,126.0,318.0,134.0,317.0,142.0,316.5,150.0,316.0,158.0,315.5,166.0,315.5,173.5,315.0,181.5,314.5,189.0,313.5" stroke="black" stroke-width="2" fill="none" />
<polyline points="164.5,302.5,156.5,302.5,149.0,303.5,141.0,303.5,132.0,303.5,124.0,303.5,116.5,303.5,108.0,304.0" stroke="black" stroke-width="2" fill="none" />
<polyline points="108.5,311.5,116.5,311.0,124.5,311.0,132.5,311.0,139.5,311.0" stroke="black" stroke-width="2" fill="none" />
<polyline points="138.5,314.0,146.0,306.5,154.0,299.0,162.5,291.0,170.5,283.5" stroke="black" stroke-width="2" fill="none" />
<polyline points="162.0,280.0,153.5,280.5" stroke="black" stroke-width="2" fill="none" />
<polyline points="154.5,272.5,162.5,272.0,171.0,272.0" stroke="black" stroke-width="2" fill="none" />
<polyline points="171.5,266.0,163.5,267.0" stroke="black" stroke-width="2" fill="none" />
<polyline points="148.0,266.0,156.0,257.5,163.5,250.0,171.5,241.5,179.0,233.0,186.5,225.0" stroke="black" stroke-width="2" fill="none" />
<polyline points="193.5,228.5,185.5,236.0,177.0,244.0,169.0,251.5,160.5,259.5,153.0,267.5,145.0,275.0,137.0,282.0,129.0,289.0,120.5,296.5,112.5,304.5,105.0,311.5" stroke="black" stroke-width="2" fill="none" />
<polyline points="115.5,315.0,127.5,308.0,130.5,297.5" stroke="black" stroke-width="2" fill="none" />
<polyline points="130.5,297.5,138.5,297.0,146.0,296.5,154.0,296.5,163.0,296.0,171.0,296.0,179.5,296.0,188.0,295.5,196.5,295.0,205.0,294.5,212.5,293.5,220.5,292.5,228.5,292.0,236.5,291.5,244.5,291.0,252.0,290.0,260.0,289.5,267.5,289.0,275.0,288.0,282.5,287.5,290.5,286.5,298.0,286.5,306.0,285.5,314.0,285.5,322.5,285.5,330.5,285.5,338.5,284.5,346.5,283.5,354.5,282.5" stroke="black" stroke-width="2" fill="none" />
<polyline points="242.5,214.5,234.5,215.0,227.0,216.0,219.5,216.5,211.5,217.0,203.5,217.5" stroke="black" stroke-width="2" fill="none" />
<polyline points="203.0,217.0,215.0,221.5,227.5,221.5,239.5,229.0" stroke="black" stroke-width="2" fill="none" />
<polyline points="220.0,215.0,208.0,214.5" stroke="black" stroke-width="2" fill="none" />
<polyline points="212.0,177.0,203.5,177.5,195.5,178.5" stroke="black" stroke-width="2" fill="none" />
<polyline points="195.5,168.5,203.5,168.5" stroke="black" stroke-width="2" fill="none" />
<polyline points="188.0,154.5,180.0,155.5" stroke="black" stroke-width="2" fill="none" />
<polyline points="174.5,141.0,166.0,148.5,157.5,155.5,149.5,162.5,141.5,170.0,133.0,177.5,124.5,185.0,116.0,192.5,107.5,200.0" stroke="black" stroke-width="2" fill="none" />
<polyline points="99.5,198.5,107.5,191.5,115.0,183.5,122.5,176.0,130.5,168.0,139.0,160.5,147.0,153.0,155.0,145.0,162.5,137.5,171.0,130.0,179.5,123.5,188.0,116.0" stroke="black" stroke-width="2" fill="none" />
<polyline points="196.0,114.5,187.5,122.5,179.5,130.0" stroke="black" stroke-width="2" fill="none" />
<polyline points="186.0,134.0,194.5,133.5,202.5,132.5,211.0,131.5,219.0,130.5" stroke="black" stroke-width="2" fill="none" />
<polyline points="225.5,140.5,217.5,148.0,209.5,155.5,202.0,163.0,194.0,170.0,186.5,177.0,179.0,184.5,171.5,192.0,164.0,199.5" stroke="black" stroke-width="2" fill="none" />
<polyline points="170.0,200.0,177.5,192.5,185.0,185.5,193.0,177.5,201.0,170.5,209.0,163.5,217.0,156.5,225.0,149.5" stroke="black" stroke-width="2" fill="none" />
<polyline points="203.5,116.5,195.0,124.0,187.0,131.5" stroke="black" stroke-width="2" fill="none" />
<polyline points="180.0,139.0,172.0,146.5,164.0,154.5,156.0,162.5,148.0,170.0,140.5,177.0,132.5,184.5,124.5,191.5,116.0,199.0" stroke="black" stroke-width="2" fill="none" />
<polyline points="108.5,184.5,116.5,184.5,124.5,184.0,132.0,183.0" stroke="black" stroke-width="2" fill="none" />
<polyline points="142.0,177.5,149.5,177.0,157.5,176.5" stroke="black" stroke-width="2" fill="none" />
<polyline points="170.5,171.0,178.5,169.5" stroke="black" stroke-width="2" fill="none" />
<polyline points="196.0,158.5,188.5,158.5,180.5,159.5,172.5,159.5,164.5,159.5,157.0,160.0" stroke="black" stroke-width="2" fill="none" />
<polyline points="156.5,144.0,164.5,143.5" stroke="black" stroke-width="2" fill="none" />
<polyline points="164.5,136.5,176.5,133.5" stroke="black" stroke-width="2" fill="none" />
<polyline points="179.5,114.5,171.5,122.0,164.0,129.5,156.0,137.0,148.0,145.0,140.5,153.0,132.0,160.0,124.0,167.5,115.5,175.0,107.0,182.0,99.0,189.5" stroke="black" stroke-width="2" fill="none" />
<polyline points="98.0,178.5,106.0,178.5,114.5,178.0,122.5,177.5,130.0,177.5" stroke="black" stroke-width="2" fill="none" />
<polyline points="130.5,161.5,122.0,162.0" stroke="black" stroke-width="2" fill="none" />
<polyline points="124.0,146.5,116.0,147.0" stroke="black" stroke-width="2" fill="none" />
<polyline points="108.5,145.5,100.5,146.0" stroke="black" stroke-width="2" fill="none" />
<polyline points="91.0,138.5,99.0,138.0,107.5,137.5,116.0,137.0,124.5,137.0" stroke="black" stroke-width="2" fill="none" />
<polyline points="131.0,142.5,139.0,142.5,147.0,142.0" stroke="black" stroke-width="2" fill="none" />
<polyline points="147.0,129.0,155.0,129.0" stroke="black" stroke-width="2" fill="none" />
<polyline points="149.5,115.5,157.5,108.0,165.0,100.5" stroke="black" stroke-width="2" fill="none" />
<polyline points="173.0,100.5,180.5,93.5" stroke="black" stroke-width="2" fill="none" />
<polyline points="179.0,86.0,171.0,93.0" stroke="black" stroke-width="2" fill="none" />
<polyline points="164.5,85.0,172.5,85.0,180.0,85.0" stroke="black" stroke-width="2" fill="none" />
<polyline points="187.0,101.0,179.0,108.0,171.0,115.5,163.0,122.5,154.5,129.5,147.0,136.5,138.5,143.5,131.0,150.5,123.5,158.0,115.5,165.0,107.0,172.0,99.0,180.0,91.0,188.5,83.5,197.0" stroke="black" stroke-width="2" fill="none" />
<polyline points="74.5,197.0,83.0,190.0,91.5,182.5,99.5,175.5,107.5,168.0,116.0,160.5,124.0,153.5,132.5,146.0,140.5,138.0,149.0,130.5,157.0,123.0,164.5,116.0,172.5,108.5" stroke="black" stroke-width="2" fill="none" />
<polyline points="164.0,108.5,156.0,116.0,148.0,123.5,140.5,131.0,132.5,138.5,124.5,145.5,116.0,153.0,106.5,160.5,98.0,168.0,90.5,175.5,82.0,183.5,74.0,191.0,66.0,198.0" stroke="black" stroke-width="2" fill="none" />
<polyline points="66.0,189.0,74.5,182.0,83.0,175.0,91.5,168.0,100.5,160.5,108.5,153.5,116.5,146.5,125.0,138.5,133.0,130.5,140.5,123.0" stroke="black" stroke-width="2" fill="none" />
<polyline points="140.5,115.5,132.5,123.0,124.5,130.5,116.5,137.5,108.0,144.5,99.5,151.5,91.5,159.0,84.0,166.0,76.0,173.5,67.5,181.5,60.0,189.0,51.5,197.0" stroke="black" stroke-width="2" fill="none" />
<polyline points="53.0,195.5,60.5,195.0" stroke="black" stroke-width="2" fill="none" />
<polyline points="50.5,189.0,58.5,181.0,66.0,174.0,74.5,166.5,83.0,159.0,91.5,152.0,99.5,145.0,107.5,137.5,115.5,130.0,123.5,122.0,131.5,114.0,139.5,106.0,147.5,98.0" stroke="black" stroke-width="2" fill="none" />
<polyline points="141.0,103.5,160.5,109.0,179.0,108.0,179.5,130.5,197.5,129.0" stroke="black" stroke-width="2" fill="none" />
<polyline points="157.0,101.0,149.0,109.0" stroke="black" stroke-width="2" fill="none" />
<polyline points="146.0,111.5,154.5,111.0,162.5,110.5,170.5,110.0,178.5,110.0,186.5,109.5,195.0,108.5,203.5,107.5" stroke="black" stroke-width="2" fill="none" />
<polyline points="172.0,69.0,163.5,76.0,155.0,83.5" stroke="black" stroke-width="2" fill="none" />
<polyline points="156.5,77.0,165.0,69.0" stroke="black" stroke-width="2" fill="none" />
<polyline points="156.0,68.5,147.5,76.0" stroke="black" stroke-width="2" fill="none" />
<polyline points="139.5,66.0,147.0,58.0" stroke="black" stroke-width="2" fill="none" />
<polyline points="140.0,52.0,132.0,60.0" stroke="black" stroke-width="2" fill="none" />
<polyline points="138.0,60.0,130.0,67.5" stroke="black" stroke-width="2" fill="none" />
<polyline points="132.0,68.0,140.0,67.5,147.0,67.5,154.5,67.0,162.5,67.0,170.5,66.5" stroke="black" stroke-width="2" fill="none" />
<polyline points="131.0,51.5,122.5,58.5,114.5,66.0" stroke="black" stroke-width="2" fill="none" />
<polyline points="115.5,62.5,124.0,61.5,132.0,60.5,140.0,60.0,147.5,60.0,155.0,59.5" stroke="black" stroke-width="2" fill="none" />
<polyline points="124.5,53.0,116.0,60.0" stroke="black" stroke-width="2" fill="none" />
<polyline points="109.5,59.0,117.5,51.5,125.0,44.0" stroke="black" stroke-width="2" fill="none" />
<polyline points="116.0,43.0,108.0,50.5" stroke="black" stroke-width="2" fill="none" />
<polyline points="107.0,43.5,115.0,36.0" stroke="black" stroke-width="2" fill="none" />
<polyline points="106.0,34.5,97.5,42.5,89.5,50.0" stroke="black" stroke-width="2" fill="none" />
<polyline points="93.0,49.5,91.5,57.5,87.0,69.5,91.5,65.0" stroke="black" stroke-width="2" fill="none" />
<polyline points="83.0,58.0,75.0,66.0,67.0,74.0,59.5,82.0,52.0,89.0,44.0,96.5,35.5,104.5,27.0,112.5,19.0,120.0,10.5,127.5,2.5,135.0" stroke="black" stroke-width="2" fill="none" />
<polyline points="5.0,136.0,12.5,135.5,20.5,134.0,28.0,133.0,36.5,133.0,44.0,132.0,52.0,131.0,60.0,130.0,67.5,130.0,75.5,129.5,83.5,129.5,91.5,129.0,99.5,128.5,108.0,128.5,116.0,128.0,124.5,127.0,132.0,127.0,140.0,127.0,147.5,126.5,155.5,125.5,163.0,125.0,171.5,124.0,180.0,123.5" stroke="black" stroke-width="2" fill="none" />
<polyline points="136.5,100.5,129.0,107.5,122.0,114.5,115.0,121.5" stroke="black" stroke-width="2" fill="none" />
<polyline points="123.5,121.0,131.5,120.0" stroke="black" stroke-width="2" fill="none" />
<polyline points="129.5,128.0,122.0,128.5" stroke="black" stroke-width="2" fill="none" />
<polyline points="108.0,131.0,100.0,138.5,92.5,146.0,84.0,154.0,75.5,161.5,67.5,169.5,60.0,177.5,52.0,185.5,44.0,193.0" stroke="black" stroke-width="2" fill="none" />
<polyline points="44.0,185.0,52.0,177.5,60.5,170.0,68.0,163.0,76.0,154.5,83.0,147.0,90.5,139.0,98.0,131.5,106.5,124.0" stroke="black" stroke-width="2" fill="none" />
<polyline points="102.0,129.0,94.0,129.5" stroke="black" stroke-width="2" fill="none" />
<polyline points="99.5,122.0,92.0,122.5,84.5,123.0" stroke="black" stroke-width="2" fill="none" />
<polyline points="83.5,115.5,91.5,115.0" stroke="black" stroke-width="2" fill="none" />
<polyline points="92.0,107.0,84.0,107.5" stroke="black" stroke-width="2" fill="none" />
<polyline points="74.5,105.5,66.0,106.0" stroke="black" stroke-width="2" fill="none" />
<polyline points="66.5,97.0,74.5,97.0" stroke="black" stroke-width="2" fill="none" />
<polyline points="84.0,97.0,92.5,97.0" stroke="black" stroke-width="2" fill="none" />
<polyline points="93.0,99.0,105.0,91.5,120.0,92.0,138.0,105.5,134.0,118.0,123.5,124.5,128.0,136.5,125.5,129.0,133.0,120.0,145.0,99.0,157.0,102.5,169.0,108.0,180.0,103.5,195.5,114.0,207.0,122.5,217.0,134.5,230.5,146.0,242.5,158.0,251.5,169.5,263.5,180.0,261.5,192.0,249.5,201.0,255.5,199.5,264.5,202.5,268.0,211.5" stroke="black" stroke-width="2" fill="none" />
<polyline points="276.5,205.0,268.0,205.5,260.0,206.5,252.0,207.5,244.0,208.5,236.0,209.0,227.5,209.0,219.5,209.5,211.5,210.0,203.0,210.5,195.5,210.5,188.0,211.0,180.0,212.0,172.0,212.5,164.0,213.0,156.0,213.5,148.0,213.5,140.0,213.5,131.5,214.0,123.5,213.5,115.5,214.0,106.5,214.5,98.5,215.0,90.5,216.0,82.5,216.0,75.0,216.5,67.0,217.0,58.5,217.0,50.5,218.0,42.5,218.0,35.0,219.0,27.0,219.5,19.5,220.0,12.0,220.5,4.5,221.0" stroke="black" stroke-width="2" fill="none" />
<polyline points="14.5,208.5,26.0,208.5,41.0,208.5,52.5,208.0,64.5,208.0,76.0,208.0,88.0,207.5" stroke="black" stroke-width="2" fill="none" />
<polyline points="93.0,225.5,85.0,233.5,76.5,241.0,68.5,249.0,60.0,256.5,51.5,264.0,43.0,271.5,34.5,280.0,25.5,287.5,17.0,295.5,8.5,303.5,1.0,310.5" stroke="black" stroke-width="2" fill="none" />
<polyline points="2.5,310.0,10.5,309.0,19.0,308.5,27.5,308.5,36.0,308.5,44.0,308.0,52.5,307.5,61.0,307.0,69.0,306.5,76.5,306.0,84.5,306.0,92.0,305.5,99.5,305.0,107.0,304.5,114.5,303.5,122.0,303.0,130.0,302.0,137.5,301.5,145.5,300.5,154.5,300.0" stroke="black" stroke-width="2" fill="none" />
<polyline points="148.0,323.0,140.0,323.0" stroke="black" stroke-width="2" fill="none" />
<polyline points="135.5,316.5,147.5,316.5,159.0,312.0,160.5,308.0,174.0,310.5,186.5,305.0" stroke="black" stroke-width="2" fill="none" />
<polyline points="196.5,306.5,188.5,306.5,180.5,307.0,173.0,307.5,165.0,308.0,157.0,308.5,148.0,309.0,140.0,309.0,132.5,309.0,124.5,310.0,116.5,310.5,108.5,312.0,100.5,312.5,93.5,313.5,86.0,314.5,77.5,314.5,68.5,315.0,60.0,315.0,51.5,314.5,43.0,314.5,34.5,315.0,26.5,315.5,18.5,316.0,11.0,315.5,3.0,316.5" stroke="black" stroke-width="2" fill="none" />
<polyline points="3.5,316.5,11.5,309.0,19.0,301.0,27.0,294.0,35.5,285.5,43.5,278.0,52.0,271.0,60.0,263.0,68.0,256.0,76.0,248.5,83.5,241.0,91.5,233.5,99.5,226.0" stroke="black" stroke-width="2" fill="none" />
<polyline points="118.5,234.5,110.5,242.5,102.0,250.5,94.0,259.0,85.5,266.5,78.0,273.5,69.5,281.5,61.5,289.5,53.5,297.0,45.0,304.0,36.5,311.5,28.5,319.0,21.0,326.0,13.0,333.5" stroke="black" stroke-width="2" fill="none" />
<polyline points="41.0,334.5,49.0,327.0,57.5,319.0,65.5,311.5,73.5,304.0,81.5,296.5,89.5,288.5,98.0,281.0,106.5,273.0,115.5,265.5,124.0,257.5,132.5,250.0,141.0,243.0,149.5,235.5" stroke="black" stroke-width="2" fill="none" />
<polyline points="144.0,236.0,124.5,247.5,102.5,256.5,93.5,268.5,104.5,277.5,120.0,267.0,132.0,271.5,144.0,268.0,147.0,253.0,159.0,252.5,171.0,246.5,182.5,243.5,194.5,240.5,206.5,238.0" stroke="black" stroke-width="2" fill="none" />
<polyline points="210.0,254.5,198.0,266.5,201.0,266.5,208.5,253.0,212.5,262.0,228.5,256.5,240.5,254.5,252.5,248.5" stroke="black" stroke-width="2" fill="none" />
<polyline points="179.5,235.0,171.0,235.0,163.0,235.0,155.0,235.5,147.5,235.5,139.5,236.0,131.5,237.0,124.0,238.0,116.0,238.5,108.5,239.5,101.0,240.0,93.0,240.0,85.5,240.5,77.0,241.0,69.0,242.5,60.5,243.5,52.5,244.5,43.5,245.0,35.0,245.5,26.5,246.0,18.5,246.5,10.5,247.0,2.5,247.0" stroke="black" stroke-width="2" fill="none" />
<polyline points="3.0,263.5,11.5,256.0,19.5,249.0,28.0,242.0" stroke="black" stroke-width="2" fill="none" />
<polyline points="34.0,244.5,26.0,252.0,17.5,259.5,9.5,267.0,1.5,274.5" stroke="black" stroke-width="2" fill="none" />
<polyline points="5.0,276.5,13.0,276.0,21.0,275.0,29.0,274.5,36.5,274.0,44.5,273.5,53.0,272.5,61.5,272.0,69.5,271.5,78.0,271.0,85.5,271.0,93.5,271.0,101.0,270.5,108.5,270.0,116.0,269.5,123.5,269.5,131.0,269.0,139.0,269.0,147.0,269.0,154.5,270.0,162.0,269.5,170.0,269.0,178.5,268.0,186.5,267.0,194.0,266.5,202.5,266.0,210.5,265.0,219.0,264.5,227.5,264.0,235.5,263.5,243.5,263.5,251.5,262.5,260.0,262.0,268.5,261.5,276.5,261.5,284.5,261.0,292.0,260.5,300.0,260.0,308.0,259.5,315.5,259.0,324.0,258.5,332.0,257.5,340.0,257.0,348.0,256.0,356.5,256.0,364.5,255.5,372.5,254.5,380.0,254.0,387.5,253.5,395.0,253.0,403.0,253.0,411.0,252.0,419.0,251.0,427.5,250.5,435.5,250.5,443.5,250.0,452.0,249.5,460.5,249.0,468.0,248.5,475.5,248.0,484.0,247.5,491.5,247.0,500.0,247.0,508.5,246.5,517.0,245.5" stroke="black" stroke-width="2" fill="none" />
<polyline points="372.0,274.0,364.5,274.0,357.0,274.5,349.0,275.5,341.5,276.0,333.0,276.0,324.5,276.5,316.0,277.0,307.5,277.5,299.0,278.5,290.5,279.0,282.0,279.5,274.0,280.0,266.0,281.0,258.0,281.5,250.0,281.5,242.0,281.5,234.0,281.5,226.0,282.0,218.5,282.5,211.0,282.0,204.0,282.0,196.0,282.5,187.5,282.5,180.0,283.0,172.0,283.5,164.5,284.5,157.0,285.0,148.5,286.0,140.5,286.5,133.0,286.5,125.5,286.0,117.5,286.0,109.0,286.5,101.0,287.5" stroke="black" stroke-width="2" fill="none" />
<polyline points="100.5,281.5,108.5,281.0,116.0,280.5" stroke="black" stroke-width="2" fill="none" />
<polyline points="122.0,283.5,130.0,283.0" stroke="black" stroke-width="2" fill="none" />
<polyline points="128.5,276.0,120.5,284.5,113.0,292.0,105.5,299.5,98.0,307.0,90.0,314.0,83.0,321.0,75.0,328.0,67.5,335.5" stroke="black" stroke-width="2" fill="none" />
<polyline points="50.0,332.0,57.5,324.5,65.5,317.0,73.0,309.0,81.0,301.5,89.0,294.0,98.0,287.0,106.5,280.0,115.0,273.0,123.5,265.5,132.0,258.5,140.0,251.0,148.0,243.5,156.5,236.0,164.0,228.5" stroke="black" stroke-width="2" fill="none" />
<polyline points="172.5,245.5,164.0,246.5,156.0,247.0,147.5,247.0,138.5,247.5,130.5,248.0" stroke="black" stroke-width="2" fill="none" />
<polyline points="130.0,245.0,122.0,252.5,114.0,260.5,106.0,267.5,98.5,274.5,90.5,282.0,82.0,289.5,74.0,297.0,66.0,304.0,58.0,311.5,50.5,318.5,42.5,326.0,34.5,333.0" stroke="black" stroke-width="2" fill="none" />
<polyline points="75.0,334.5,83.5,327.5,91.5,320.0,100.5,312.5,108.5,305.0,117.0,297.0,124.5,289.5,132.5,282.5,140.0,275.0" stroke="black" stroke-width="2" fill="none" />
<polyline points="141.5,266.5,149.5,259.0" stroke="black" stroke-width="2" fill="none" />
<polyline points="147.0,254.0,142.5,266.0,149.5,273.0,161.5,276.0,169.0,274.5,176.5,277.5,188.5,274.0,193.0,281.0" stroke="black" stroke-width="2" fill="none" />
<polyline points="138.0,256.5,129.5,257.0,122.0,257.5,113.5,258.0" stroke="black" stroke-width="2" fill="none" />
<polyline points="115.5,252.0,124.5,245.0,132.5,238.5" stroke="black" stroke-width="2" fill="none" />
<polyline points="122.5,235.5,115.0,243.0,107.0,251.0,99.5,258.0,92.0,265.0,84.0,272.5,76.5,280.0,68.5,288.0,60.5,296.0,53.0,304.0,44.5,312.5,37.0,319.5,29.0,327.0,20.5,334.5" stroke="black" stroke-width="2" fill="none" />
<polyline points="28.0,333.5,36.0,326.5,44.0,319.0,52.5,312.0,60.0,304.5,67.5,297.0,75.0,289.5,82.5,282.0,89.5,274.5,97.0,267.5" stroke="black" stroke-width="2" fill="none" />
<polyline points="92.5,264.0,104.5,252.0,117.0,254.0,129.0,243.5,141.5,236.0,154.5,234.5,166.5,236.0,178.5,233.0,190.5,232.0,202.5,233.5,215.0,230.5,226.5,230.5,232.5,239.5,219.0,253.0,230.5,249.5,242.5,245.0,254.0,240.5,265.5,236.0,277.5,234.5,284.5,231.0,292.0,217.5,304.0,213.0,310.0,204.0,322.0,213.0" stroke="black" stroke-width="2" fill="none" />
<polyline points="355.5,271.0,348.0,272.0,340.5,273.0,332.0,273.5,324.0,274.0,316.0,274.5,308.0,274.5,300.0,275.0,292.5,275.5,284.5,275.0,276.5,275.5,268.5,276.0,261.0,276.0,253.0,276.5,245.5,276.5,237.0,277.0,228.5,277.0,220.5,277.5,212.0,278.0,204.0,278.5,195.5,279.0,187.5,279.5,179.0,280.0,171.0,280.5,163.0,280.5,155.0,281.5,147.5,282.5,139.5,283.5,131.5,284.5,123.5,285.5,115.5,287.0,107.5,288.5,100.0,289.5,92.0,290.0,84.0,290.5,76.5,291.0,68.5,291.0,60.5,291.0,52.5,291.0,44.5,291.5,37.0,292.0,28.5,292.0,20.5,292.5,13.0,293.0,5.0,293.0" stroke="black" stroke-width="2" fill="none" />
<polyline points="3.0,296.0,11.0,288.0,19.0,280.5,27.5,273.0,35.5,265.5,43.5,258.0,51.5,250.0,60.0,242.5,67.5,235.5,75.5,228.0" stroke="black" stroke-width="2" fill="none" />
<polyline points="75.0,235.5,66.5,243.0,58.5,251.0,50.5,258.5,42.5,266.5,35.0,274.5,27.5,282.5,20.0,290.0,12.5,298.0,5.0,305.5" stroke="black" stroke-width="2" fill="none" />
<polyline points="3.5,299.5,11.0,299.5,19.5,299.5,27.5,299.5,35.5,299.5,44.0,299.5,52.0,299.0,60.0,298.5,68.0,298.5,75.5,299.0,83.5,298.5,91.5,298.0,100.0,297.0,107.5,296.0,115.5,295.0,124.0,294.5,131.0,293.5,139.0,292.0,147.0,291.0,154.5,290.5,162.5,290.0,170.5,289.5,179.5,289.0,188.0,289.0,196.0,288.5,204.5,287.5,212.5,287.5,220.0,287.5,228.0,287.0,236.5,286.5,245.0,286.0,253.0,285.5,261.0,285.5,269.5,285.0,277.5,284.5,285.5,284.0,293.0,283.0,300.0,282.0,308.0,281.5,315.5,281.0,323.0,281.0,331.5,280.5,339.5,280.0,347.5,279.5,354.5,278.5" stroke="black" stroke-width="2" fill="none" />
<polyline points="356.5,248.0,348.0,248.5,340.0,249.5,332.5,250.0,324.5,250.5,316.5,251.0,308.0,251.0,299.5,251.5,291.5,252.0,283.5,252.5,275.5,252.5,267.5,253.0,259.5,253.0,251.5,253.5,243.5,253.5,235.5,254.0,227.0,255.5,219.0,256.0,211.0,256.0,203.0,257.0,194.5,257.5,186.0,258.5,178.0,259.0,170.5,259.5,162.0,260.0,154.0,260.5,146.0,261.5,138.5,262.0,131.5,262.0,124.0,262.5,116.5,263.0,108.5,263.0,100.5,263.5,92.5,264.0,84.0,264.5,76.0,265.0,68.0,265.0,59.5,265.5,51.5,265.5,43.0,265.5,35.0,266.0,27.0,266.5,19.5,267.0,12.5,267.5,4.5,267.5" stroke="black" stroke-width="2" fill="none" />
<polyline points="3.0,280.0,11.0,272.0,18.5,264.5,26.5,257.0,35.0,248.5,43.5,240.0,52.0,232.0,60.5,224.5,69.0,217.0" stroke="black" stroke-width="2" fill="none" />
<polyline points="67.5,225.5,60.0,233.0,52.0,240.5,44.0,248.5,36.0,256.5,28.0,264.0,19.5,272.5,11.5,280.5,3.5,288.0" stroke="black" stroke-width="2" fill="none" />
<polyline points="4.5,284.5,12.5,284.5,20.5,284.0,28.0,284.0,36.0,284.0,44.5,283.0,52.5,283.0,60.0,282.0,68.0,281.5,76.0,281.0,84.0,280.0,92.5,280.0,101.0,279.5,109.0,279.0,117.0,278.0,125.0,277.0,132.5,276.5,140.0,276.0,148.0,275.0,156.0,274.5,164.0,274.0,172.0,273.5,179.0,273.5,186.5,273.0,194.5,273.0,202.5,272.5,211.0,272.0,219.5,272.0,227.5,271.5,235.5,270.5,243.5,270.0,251.5,269.5,260.0,269.0,268.5,268.0,276.5,268.0,285.0,267.5,293.0,267.0,301.5,267.0,309.5,266.5,317.5,266.5,325.5,266.5,333.5,265.5,341.0,265.0,348.5,264.5,356.5,264.0,364.5,263.5,372.0,262.5,379.5,262.0,387.0,261.0,395.0,260.5,403.0,260.0,411.0,259.0,419.5,258.5,428.0,258.0,436.0,258.0,444.0,257.0,452.5,257.0,461.0,257.0,469.0,256.0,477.0,256.0,485.0,255.5,492.5,255.0,500.5,254.5,508.0,254.0,516.5,254.0" stroke="black" stroke-width="2" fill="none" />
<polyline points="266.5,173.0,258.5,173.5,250.5,174.5,242.5,176.0,235.0,176.0,227.0,176.0,219.5,176.5,211.0,177.0,203.0,177.5,195.5,178.0,188.0,178.0,180.0,178.5,172.0,179.5,163.5,180.5,156.0,180.5,147.5,180.5,139.0,180.5,130.5,181.0,122.5,181.0,114.5,182.0,106.0,182.5,98.0,183.0,90.0,183.0,82.0,183.5,74.0,184.0,66.0,184.5,58.5,185.0,50.5,186.0,43.0,186.5,36.0,187.5,28.0,188.0,20.0,189.0,12.5,189.5,4.5,190.0" stroke="black" stroke-width="2" fill="none" />
<polyline points="1.0,189.0,10.0,181.5,19.0,174.5,27.5,167.0,36.0,160.0,43.5,152.5,51.5,145.0,59.5,137.5,67.0,130.0,74.5,123.0,83.5,114.5,92.5,106.5,101.0,99.0,109.5,91.0,117.5,83.5" stroke="black" stroke-width="2" fill="none" />
<polyline points="117.5,88.0,129.5,85.0,131.0,91.5,143.0,93.5,155.0,92.0,160.0,83.5,172.0,89.5,179.5,94.0" stroke="black" stroke-width="2" fill="none" />
<polyline points="131.0,101.0,122.5,108.0" stroke="black" stroke-width="2" fill="none" />
<polyline points="124.5,105.5,117.0,105.5" stroke="black" stroke-width="2" fill="none" />
<polyline points="124.0,100.5,115.5,108.0,107.5,115.5,99.0,123.5,91.0,131.5,83.5,139.5,75.5,147.0,67.0,154.0,59.0,161.5,51.0,169.5,43.0,177.0,35.0,184.0,27.0,191.5,19.0,199.0" stroke="black" stroke-width="2" fill="none" />
<polyline points="13.0,203.5,25.0,202.0,34.0,203.5,46.0,202.5,58.0,199.5,70.0,201.0,80.5,201.0,93.0,202.5,102.0,201.5,114.0,200.0,126.0,201.5,139.5,203.0,151.5,202.5,168.0,210.0,179.5,209.5,191.5,209.5,209.0,209.5,220.5,209.5,232.5,209.5,244.5,210.5,255.0,221.0,270.0,224.0,282.0,217.5,294.5,205.5" stroke="black" stroke-width="2" fill="none" />
<polyline points="282.5,173.5,273.5,181.0,261.5,174.0" stroke="black" stroke-width="2" fill="none" />
<polyline points="172.5,152.5,164.5,152.5,156.5,153.0,149.0,153.5,141.0,154.0" stroke="black" stroke-width="2" fill="none" />
<polyline points="107.5,170.0,99.0,171.0" stroke="black" stroke-width="2" fill="none" />
<polyline points="91.5,162.5,100.0,161.5,107.5,161.0" stroke="black" stroke-width="2" fill="none" />
<polyline points="108.5,153.0,100.5,153.5,93.5,154.5,86.0,155.5" stroke="black" stroke-width="2" fill="none" />
<polyline points="93.0,145.0,85.0,145.0,77.5,145.5" stroke="black" stroke-width="2" fill="none" />
<polyline points="74.0,135.5,65.5,136.5,57.0,137.0" stroke="black" stroke-width="2" fill="none" />
<polyline points="51.0,127.5,43.5,128.5" stroke="black" stroke-width="2" fill="none" />
<polyline points="36.0,131.0,28.0,131.0" stroke="black" stroke-width="2" fill="none" />
<polyline points="43.5,136.0,36.5,136.5,29.0,137.0,21.0,137.5,13.0,138.0,5.0,138.5" stroke="black" stroke-width="2" fill="none" />
<polyline points="3.5,141.5,11.5,141.5,19.5,140.0,27.5,139.0,35.5,138.5,43.5,138.0,51.0,137.5,59.0,137.0,66.5,136.5,74.5,136.5,82.0,137.0,90.0,136.0,98.5,135.5,106.0,135.5,114.0,135.5,122.0,135.5,130.0,134.5,139.0,134.5,147.5,134.0,155.0,133.0,163.0,133.0,171.5,132.0,180.0,131.5,188.0,130.5,196.0,129.5,204.0,129.5,212.0,128.5,220.5,128.0,228.0,127.0" stroke="black" stroke-width="2" fill="none" />
<polyline points="245.0,133.0,236.5,133.5,228.5,134.5,220.5,135.0,212.5,135.5,204.5,136.0,196.0,136.5,188.0,138.0,180.0,138.5,172.5,139.0,164.5,139.5,156.5,140.0,148.0,140.0,139.5,140.5,131.0,141.0,122.5,141.5,114.0,142.0,106.0,142.0,98.0,142.5,89.5,143.0,81.5,143.0,74.0,144.0,66.5,144.5,59.0,145.5,52.0,146.0,43.5,146.5,35.5,147.5,27.0,148.5,18.5,149.0,10.5,150.0,2.5,151.0" stroke="black" stroke-width="2" fill="none" />
<polyline points="4.0,151.0,12.0,144.0,20.0,136.5,28.0,129.0,35.5,121.0,43.5,113.5,51.5,105.5,59.5,97.5,67.5,89.5,75.5,82.5,83.5,75.0" stroke="black" stroke-width="2" fill="none" />
<polyline points="77.0,77.0,68.5,84.0,60.5,91.0,52.5,98.0,45.0,106.0,36.5,113.0,28.5,120.5,20.0,128.0,11.5,135.0,3.5,142.5" stroke="black" stroke-width="2" fill="none" />
<polyline points="2.5,145.0,10.0,144.5,18.0,144.0,26.0,143.5,34.0,143.5,42.0,142.5,50.0,142.0,58.0,141.5,66.5,140.5" stroke="black" stroke-width="2" fill="none" />
<polyline points="60.0,105.5,52.0,106.5" stroke="black" stroke-width="2" fill="none" />
<polyline points="67.0,88.0,75.0,87.5" stroke="black" stroke-width="2" fill="none" />
<polyline points="85.5,88.0,93.5,88.0" stroke="black" stroke-width="2" fill="none" />
<polyline points="86.5,97.5,89.5,94.0,86.5,106.0,80.5,107.0,83.5,120.5" stroke="black" stroke-width="2" fill="none" />
<polyline points="99.5,119.5,96.5,122.5,98.0,111.0,98.0,106.0" stroke="black" stroke-width="2" fill="none" />
<polyline points="108.0,103.5,108.0,103.5,108.0,115.0,108.0,127.0,119.5,146.5" stroke="black" stroke-width="2" fill="none" />
<polyline points="106.0,99.0,98.0,106.0,90.0,114.0,82.0,122.0,74.0,130.0,66.5,138.5,59.0,146.0,51.5,153.0,44.5,160.5,36.5,168.5,29.0,176.0,21.0,184.0,12.5,191.0" stroke="black" stroke-width="2" fill="none" />
<polyline points="19.0,189.5,27.5,182.5,35.5,175.5,43.0,168.5,51.0,161.0,58.5,153.0,66.5,145.5,74.5,137.0,82.5,129.5,90.5,122.0,99.0,114.5,107.5,107.5,115.5,100.0,123.5,92.5" stroke="black" stroke-width="2" fill="none" />
<polyline points="115.5,91.5,124.0,84.0" stroke="black" stroke-width="2" fill="none" />
<polyline points="125.5,66.5,117.5,67.0,110.0,67.5" stroke="black" stroke-width="2" fill="none" />
<polyline points="123.0,57.0,131.0,57.0" stroke="black" stroke-width="2" fill="none" />
<polyline points="138.5,51.0,131.5,51.0,124.0,51.5,116.5,52.0,108.5,52.0,100.5,52.5,92.5,53.0,84.0,53.5" stroke="black" stroke-width="2" fill="none" />
<polyline points="91.5,41.0,99.5,33.0" stroke="black" stroke-width="2" fill="none" />
<polyline points="92.5,37.5,104.0,43.0,114.5,44.0,106.0,47.0,111.5,64.0,120.5,59.5,132.5,59.5" stroke="black" stroke-width="2" fill="none" />
<polyline points="131.5,41.5,123.0,41.5,114.5,42.0,106.5,42.0,98.5,43.0,90.0,43.5,82.0,44.0,74.0,44.0,66.0,44.5" stroke="black" stroke-width="2" fill="none" />
<polyline points="66.5,41.0,74.5,33.5,82.5,26.0" stroke="black" stroke-width="2" fill="none" />
<polyline points="77.0,27.0,68.5,34.5,60.0,42.0" stroke="black" stroke-width="2" fill="none" />
<polyline points="59.0,41.5,51.0,42.5,43.0,44.0,34.5,44.5,26.5,44.5,18.5,45.0,10.5,45.5,2.5,46.5" stroke="black" stroke-width="2" fill="none" />
<polyline points="2.5,48.0,10.5,40.0,19.0,33.0,27.5,25.5,36.0,18.0" stroke="black" stroke-width="2" fill="none" />
<polyline points="35.0,27.0,27.5,34.0" stroke="black" stroke-width="2" fill="none" />
<polyline points="23.5,32.5,35.5,31.0,23.5,43.0,29.5,51.5,34.0,66.5" stroke="black" stroke-width="2" fill="none" />
<polyline points="42.0,74.0,50.0,73.0" stroke="black" stroke-width="2" fill="none" />
<polyline points="52.5,66.5,45.0,74.0,37.0,82.0,29.0,89.5,20.5,96.5,12.5,104.0,5.0,112.0" stroke="black" stroke-width="2" fill="none" />
<polyline points="2.5,110.0,11.0,109.5,19.5,109.5,28.0,109.0,36.0,108.0,44.0,107.0,52.0,106.5,60.0,105.5,68.0,104.5,76.5,104.0,84.0,103.5,92.0,103.0,100.0,102.5,107.5,102.0,115.5,102.0,123.5,102.0,131.5,102.0,139.5,102.0" stroke="black" stroke-width="2" fill="none" />
<polyline points="204.5,105.0,196.0,105.5,187.5,106.5,179.5,107.0,172.0,107.5,163.5,108.5,155.5,109.0,147.5,109.0,139.5,109.5,131.5,110.0,123.5,110.0,116.0,110.5,108.0,111.5,100.0,111.5,92.5,112.0,84.5,112.5,77.0,113.0,69.0,114.0,60.5,115.0,52.5,115.5,44.5,116.5,36.0,117.0,27.5,117.5,19.0,118.0,11.0,119.0,2.5,119.5" stroke="black" stroke-width="2" fill="none" />
<polyline points="5.0,120.0,13.0,112.5,20.5,104.5,28.5,97.0,36.5,89.5,44.5,82.5,53.5,75.0,61.5,67.5" stroke="black" stroke-width="2" fill="none" />
<polyline points="56.5,63.5,68.5,63.5,71.0,61.5,71.0,64.5,82.5,74.0,87.0,79.5,103.5,79.5,115.5,78.0" stroke="black" stroke-width="2" fill="none" />
<polyline points="140.0,69.5,132.0,70.0,124.0,70.5,115.5,70.5,107.5,70.5,99.5,70.5,91.0,70.5,83.5,70.5,75.5,71.5,68.0,73.0,60.5,74.0,52.5,75.0,45.0,75.0,37.0,76.0,29.5,76.5,21.5,76.5,13.5,76.5,5.5,76.5" stroke="black" stroke-width="2" fill="none" />
<polyline points="6.0,69.5,13.5,69.0,21.5,68.0,29.5,67.0,37.0,67.0,44.5,66.0,53.0,65.5,61.0,65.5,69.0,65.0,77.0,64.5,85.0,64.0,93.0,64.0,100.5,63.5" stroke="black" stroke-width="2" fill="none" />
<polyline points="100.5,55.0,92.5,55.5,84.5,55.5,76.5,56.0,68.5,57.0,60.0,58.0,51.5,58.5,43.5,59.5,35.5,60.0,27.5,61.0,19.5,61.5,11.0,62.0,3.0,62.5" stroke="black" stroke-width="2" fill="none" />
<polyline points="3.0,66.5,11.0,59.0,18.5,51.5" stroke="black" stroke-width="2" fill="none" />
<polyline points="11.5,51.5,3.5,59.0" stroke="black" stroke-width="2" fill="none" />
<polyline points="2.5,53.5,10.5,52.5,18.5,52.0,26.5,51.5,35.0,51.0,43.5,50.0,52.0,50.0,60.5,49.0,68.5,48.5" stroke="black" stroke-width="2" fill="none" />
<polyline points="75.5,42.5,83.0,35.0" stroke="black" stroke-width="2" fill="none" />
<polyline points="70.5,28.0,62.0,35.5" stroke="black" stroke-width="2" fill="none" />
<polyline points="59.0,39.0,49.5,51.0,42.0,62.5" stroke="black" stroke-width="2" fill="none" />
<polyline points="52.0,57.5,44.5,65.0,36.5,72.5,28.5,80.0,20.0,88.0,12.0,95.5,4.0,103.5" stroke="black" stroke-width="2" fill="none" />
<polyline points="3.0,101.0,3.0,113.0,9.0,110.0" stroke="black" stroke-width="2" fill="none" />
<polyline points="6.0,100.0,14.5,99.5,22.0,99.5,29.5,99.0,36.5,99.0,44.5,98.5,52.0,98.0,59.5,97.0,67.0,96.5,75.0,95.5,83.0,95.0,91.0,94.5,99.5,94.5,108.0,94.0,116.0,94.0,124.0,93.5,132.0,93.5,140.5,93.5,149.0,93.0,157.5,92.0,166.0,91.5,174.0,91.0,182.0,90.5,189.5,90.0,197.5,89.5" stroke="black" stroke-width="2" fill="none" />
<polyline points="213.0,114.0,205.0,114.0,196.5,114.5,188.5,115.0,180.5,115.0,172.5,115.5,164.0,115.5,156.0,116.5,148.0,117.0,140.0,118.0,132.0,119.0,124.0,119.0,116.5,119.5,108.5,120.0,100.0,120.0,91.5,120.5,83.5,121.0,75.0,121.5,67.0,122.0,59.0,122.5,51.5,123.0,43.5,123.5,35.5,124.5,27.5,125.5,20.0,126.0,12.0,126.5,4.0,127.5" stroke="black" stroke-width="2" fill="none" />
<polyline points="4.0,128.5,12.0,120.5,20.0,113.0,28.0,105.0,36.5,97.0,44.0,88.5,52.5,81.0,61.5,73.5,70.0,66.5" stroke="black" stroke-width="2" fill="none" />
<polyline points="60.0,81.0,51.5,81.5" stroke="black" stroke-width="2" fill="none" />
<polyline points="52.5,49.0,44.0,57.0,36.0,65.0,28.0,72.5,20.0,80.5,12.0,88.0,4.0,95.5" stroke="black" stroke-width="2" fill="none" />
<polyline points="4.5,93.0,13.0,92.5,21.0,92.0,28.5,91.5,36.0,91.0,43.5,90.0,51.0,89.5,59.0,89.0,67.0,88.5,75.0,88.0,83.0,87.5,91.0,86.5,98.5,87.0,106.5,86.5,114.5,86.0,123.0,85.5,131.5,85.5,140.0,86.0,148.5,86.0,157.5,85.5,166.0,85.5,173.5,84.5,180.5,83.5,188.5,83.0" stroke="black" stroke-width="2" fill="none" />
<polyline points="115.5,30.0,107.0,30.5,98.5,31.0,90.0,31.5,81.5,32.0,73.5,32.5,65.5,33.0,57.5,34.0,50.0,34.5,42.0,35.5,34.5,36.0,26.5,36.5,19.0,37.5,11.0,38.0,3.0,39.0" stroke="black" stroke-width="2" fill="none" />
<polyline points="1.5,40.5,9.5,33.0,18.0,25.5,26.0,18.0" stroke="black" stroke-width="2" fill="none" />
<polyline points="19.5,20.0,11.5,28.0,3.5,35.0" stroke="black" stroke-width="2" fill="none" />
<polyline points="3.5,30.0,11.5,29.0,19.0,29.0,26.5,28.5,34.5,28.5,42.5,27.5,50.5,27.0,58.0,25.5,66.5,24.5,74.5,24.0,82.5,23.5" stroke="black" stroke-width="2" fill="none" />
<polyline points="75.0,41.5,63.5,38.5,51.5,46.0" stroke="black" stroke-width="2" fill="none" />
<polyline points="45.0,49.5,37.5,57.0,29.0,65.0,21.0,73.0,13.0,81.0,4.5,88.5" stroke="black" stroke-width="2" fill="none" />
<polyline points="12.5,97.5,20.5,97.0" stroke="black" stroke-width="2" fill="none" />
<polyline points="13.0,130.0,5.0,130.5" stroke="black" stroke-width="2" fill="none" />
<polyline points="2.5,155.0,10.5,155.0,19.0,154.5,27.0,153.5,35.0,153.0,43.5,152.5,51.5,151.5,59.5,150.0,67.5,149.0" stroke="black" stroke-width="2" fill="none" />
<polyline points="68.5,178.0,76.0,178.0,84.0,178.0" stroke="black" stroke-width="2" fill="none" />
<polyline points="85.0,181.5,76.5,182.0,68.5,182.5,60.0,183.0,51.5,184.0,43.0,185.0" stroke="black" stroke-width="2" fill="none" />
<polyline points="41.5,176.0,49.5,176.0,58.0,175.5" stroke="black" stroke-width="2" fill="none" />
<polyline points="35.0,185.5,26.5,186.0" stroke="black" stroke-width="2" fill="none" />
<polyline points="27.5,178.5,35.5,178.0" stroke="black" stroke-width="2" fill="none" />
<polyline points="11.5,170.0,19.5,169.5,28.0,169.0,36.5,169.0,44.5,168.5,52.0,168.0,60.0,168.0,68.0,167.0,76.0,166.0,84.0,165.5,92.0,164.5" stroke="black" stroke-width="2" fill="none" />
<polyline points="60.5,220.5,52.5,228.0,45.5,235.5" stroke="black" stroke-width="2" fill="none" />
<polyline points="20.5,236.0,12.5,243.0,4.0,250.5" stroke="black" stroke-width="2" fill="none" />
<polyline points="3.0,298.5,3.0,310.0,3.0,322.0,3.5,334.0,9.5,341.0,21.5,340.5,35.5,340.5,47.0,340.5,64.5,340.5,76.0,337.5,88.0,339.0,95.5,327.0,95.5,330.0,98.5,333.0,106.0,340.5,118.5,341.0,130.5,336.5,137.0,329.0,143.5,336.5,148.0,336.5,151.0,339.5,164.5,333.5,172.0,324.5,181.0,315.5,194.5,312.0,199.0,309.0,211.0,315.0,223.0,318.0" stroke="black" stroke-width="2" fill="none" />
<polyline points="209.5,329.5,197.5,333.5,185.5,341.0,174.0,339.5" stroke="black" stroke-width="2" fill="none" />
<polyline points="148.0,333.5,140.0,334.0" stroke="black" stroke-width="2" fill="none" />
<polyline points="125.5,330.0,113.5,330.0" stroke="black" stroke-width="2" fill="none" />
<polyline points="117.0,316.0,129.0,315.5,141.5,312.5,153.5,310.0,166.0,304.0" stroke="black" stroke-width="2" fill="none" />
<polyline points="124.0,296.5,116.0,296.5" stroke="black" stroke-width="2" fill="none" />
<polyline points="108.5,297.0,100.5,297.5,92.0,297.5" stroke="black" stroke-width="2" fill="none" />
<polyline points="96.0,294.0,94.5,306.5,92.5,311.0,98.5,294.5,106.0,302.0" stroke="black" stroke-width="2" fill="none" />
<polyline points="85.0,297.5,77.5,298.5" stroke="black" stroke-width="2" fill="none" />
<polyline points="76.5,291.5,84.5,290.5" stroke="black" stroke-width="2" fill="none" />
<polyline points="99.5,274.0,107.0,273.5,115.0,273.0,123.5,272.0" stroke="black" stroke-width="2" fill="none" />
<polyline points="117.5,266.0,122.0,269.5,137.0,281.0,146.0,277.5,150.5,282.0,162.5,283.5" stroke="black" stroke-width="2" fill="none" />
<polyline points="140.5,262.5,131.5,263.0,123.0,264.0,114.5,264.5,106.5,265.0" stroke="black" stroke-width="2" fill="none" />
<polyline points="58.0,289.0,50.0,289.5" stroke="black" stroke-width="2" fill="none" />
<polyline points="11.5,177.5,3.5,178.0" stroke="black" stroke-width="2" fill="none" />
<polyline points="2.0,159.5,10.0,159.0,18.5,159.0,26.5,159.0,35.0,159.0,43.0,158.5,51.0,159.0,59.0,158.5,67.5,158.0,75.5,157.5" stroke="black" stroke-width="2" fill="none" />
<polyline points="129.0,76.5,138.5,61.5,131.0,49.0,110.5,55.0,98.5,50.5" stroke="black" stroke-width="2" fill="none" />
<polyline points="56.0,33.5,42.0,37.5,34.5,43.5,25.5,59.5,16.0,43.0,4.0,43.0" stroke="black" stroke-width="2" fill="none" />
<polyline points="11.5,47.0,23.5,49.0" stroke="black" stroke-width="2" fill="none" />
<polyline points="44.5,40.5,52.0,32.5" stroke="black" stroke-width="2" fill="none" />
<polyline points="54.5,28.0,53.0,33.5,35.0,49.0,33.0,61.0,45.0,62.5,60.0,52.0,69.0,53.5,73.5,47.0,84.0,40.5,85.5,45.0,94.5,69.0,106.5,70.5,118.5,63.5,139.5,68.0,152.0,67.0,161.0,73.5,168.5,76.5" stroke="black" stroke-width="2" fill="none" />
<polyline points="168.5,189.0,162.0,201.0,174.0,201.0,186.0,198.0,196.0,201.0,207.5,198.0,219.5,199.5,231.0,200.0" stroke="black" stroke-width="2" fill="none" />
<polyline points="52.5,26.5,44.5,34.0" stroke="black" stroke-width="2" fill="none" />
<polyline points="42.5,28.0,35.0,35.5,27.0,43.0" stroke="black" stroke-width="2" fill="none" />
<polyline points="10.5,20.5,3.0,27.5" stroke="black" stroke-width="2" fill="none" />
<polyline points="4.0,24.0,11.5,23.5,19.0,22.0,27.0,21.0,35.0,20.5" stroke="black" stroke-width="2" fill="none" />
<polyline points="4.0,15.0,16.0,17.5,28.0,19.0,40.5,22.0,52.5,21.5,64.5,23.5,77.0,28.0,89.0,29.5,100.5,34.0,113.0,37.0,125.0,43.0,137.0,52.0,149.0,60.5,161.0,64.5,173.0,72.0,185.5,93.0,198.0,108.0,210.0,119.5,216.5,125.5,228.5,139.0,240.5,149.5,252.5,154.0,264.5,155.5,276.5,155.5,288.0,155.5,300.0,155.0,312.0,148.0,314.0,143.5,319.5,135.0" stroke="black" stroke-width="2" fill="none" />
<polyline points="502.0,205.0,490.0,205.0,484.0,200.5,496.0,188.5,512.5,176.5,503.5,168.0,512.5,156.5,512.5,144.0,513.0,132.0,513.0,120.0,513.0,108.0,513.5,96.0,513.0,84.0,513.0,71.5,512.5,59.5,512.0,48.0,512.0,36.0,511.5,24.0,511.0,12.0,505.0,4.5,493.0,4.5,481.0,5.0,469.0,4.5,457.0,4.5,445.0,4.0,433.0,4.0,421.5,4.0,410.0,3.5,398.5,3.0,386.5,3.0,374.0,3.0,362.5,2.5,350.5,2.5,339.0,3.0,327.0,3.0,315.0,3.5,302.5,3.5,291.0,3.0,279.5,2.5,267.0,2.0,255.0,2.0,243.0,2.0,231.0,2.0,219.0,2.5,207.0,2.5,195.0,2.5,183.0,2.5,171.0,2.5,158.5,2.5,146.5,2.5,134.0,3.0,122.0,3.0,110.0,3.5,98.0,3.5,86.0,3.5,74.0,4.0,62.0,4.5,50.0,4.5,38.0,4.5,25.5,5.0,13.5,5.0,1.5,4.5" stroke="black" stroke-width="2" fill="none" />
</svg>