<svg xmlns="http://www.w3.org/2000/svg" version="1.1"><polyline points="5.0,3.0,4.5,15.0,4.5,27.0,4.5,39.0,4.0,50.5,4.0,62.5,4.0,75.0,4.0,87.0,4.0,99.0,4.0,110.5,4.0,122.5,3.5,134.5,3.0,146.5,3.0,158.5,3.0,171.0,2.5,183.0,3.0,195.0,3.5,207.0,3.5,219.0,3.5,231.0,3.5,243.0,4.0,255.0,4.0,266.5,4.0,278.0,4.0,289.5,4.0,301.0,4.0,313.0,3.0,325.0,3.0,337.0,13.0,339.5,25.0,339.0,37.0,339.5,49.0,340.0,61.0,340.0,73.0,340.5,85.5,340.0,97.5,340.5,110.0,340.5,122.0,341.0,134.5,340.5,146.5,340.5,158.5,341.0,170.0,341.5,182.0,341.5,194.0,341.5,205.5,342.0,217.5,342.0,229.5,342.0,241.5,342.0,253.5,342.0,265.5,342.5,277.5,342.5,289.5,342.0,301.0,341.5,313.0,341.0,325.0,340.5,337.0,340.5,349.5,340.5,361.5,340.0,373.5,340.0,385.5,340.0,397.5,340.0,410.0,340.0,422.0,340.0,434.0,340.0,446.0,340.0,458.5,340.0,470.5,340.0,483.0,340.5,495.0,340.5,507.0,340.5" stroke="black" stroke-width="2" fill="none" />
<polyline points="404.0,213.0,412.0,205.5" stroke="black" stroke-width="2" fill="none" />
<polyline points="411.5,195.5,403.5,203.0,395.5,210.0,388.0,217.5,380.5,225.5" stroke="black" stroke-width="2" fill="none" />
<polyline points="380.0,229.0,387.5,228.5" stroke="black" stroke-width="2" fill="none" />
<polyline points="373.0,224.5,381.0,217.5,389.5,210.0,398.0,202.5,406.5,195.0" stroke="black" stroke-width="2" fill="none" />
<polyline points="406.0,187.5,398.0,195.0,389.5,202.0,381.0,209.5,372.5,217.0" stroke="black" stroke-width="2" fill="none" />
<polyline points="369.5,216.5,377.5,216.0,386.0,215.0,394.0,214.5" stroke="black" stroke-width="2" fill="none" />
<polyline points="386.0,202.5,394.0,201.5,402.0,200.5,409.5,199.5" stroke="black" stroke-width="2" fill="none" />
<polyline points="417.0,195.0,425.0,187.5" stroke="black" stroke-width="2" fill="none" />
<polyline points="421.5,187.5,429.5,187.0" stroke="black" stroke-width="2" fill="none" />
<polyline points="427.0,179.5,419.0,187.0" stroke="black" stroke-width="2" fill="none" />
<polyline points="420.0,192.0,428.0,191.5" stroke="black" stroke-width="2" fill="none" />
<polyline points="418.5,178.0,410.5,185.5" stroke="black" stroke-width="2" fill="none" />
<polyline points="412.0,184.0,420.0,183.5,428.0,183.0" stroke="black" stroke-width="2" fill="none" />
<polyline points="419.5,171.5,411.5,179.0" stroke="black" stroke-width="2" fill="none" />
<polyline points="412.5,179.0,420.5,178.5,428.5,178.0" stroke="black" stroke-width="2" fill="none" />
<polyline points="418.5,175.5,410.5,176.0" stroke="black" stroke-width="2" fill="none" />
<polyline points="415.5,175.5,426.0,187.5" stroke="black" stroke-width="2" fill="none" />
<polyline points="418.0,170.5,410.0,171.0" stroke="black" stroke-width="2" fill="none" />
<polyline points="414.5,170.5,405.5,182.5,414.0,194.0" stroke="black" stroke-width="2" fill="none" />
<polyline points="403.5,187.5,395.5,188.0" stroke="black" stroke-width="2" fill="none" />
<polyline points="387.5,179.0,380.0,187.0,372.0,195.0" stroke="black" stroke-width="2" fill="none" />
<polyline points="362.5,204.0,355.0,212.0" stroke="black" stroke-width="2" fill="none" />
<polyline points="354.0,211.5,362.5,211.0" stroke="black" stroke-width="2" fill="none" />
<polyline points="371.0,213.5,379.0,212.5,387.0,211.5,395.5,211.0,403.5,210.5" stroke="black" stroke-width="2" fill="none" />
<polyline points="409.5,197.5,401.5,198.0,394.0,198.0,386.0,199.0" stroke="black" stroke-width="2" fill="none" />
<polyline points="380.0,207.0,388.0,206.0,395.5,205.0,403.5,204.0,410.5,203.5" stroke="black" stroke-width="2" fill="none" />
<polyline points="402.5,208.5,394.5,209.0,386.5,209.0,378.5,209.5" stroke="black" stroke-width="2" fill="none" />
<polyline points="371.0,221.0,379.0,220.5,387.5,220.0" stroke="black" stroke-width="2" fill="none" />
<polyline points="387.5,224.0,379.5,224.5,372.0,225.0" stroke="black" stroke-width="2" fill="none" />
<polyline points="367.5,223.0,379.5,230.5,392.0,219.0,404.0,210.0,406.5,207.0,391.5,219.0" stroke="black" stroke-width="2" fill="none" />
<polyline points="356.5,203.0,364.5,195.5,372.5,188.0,380.0,180.0" stroke="black" stroke-width="2" fill="none" />
<polyline points="379.5,172.5,371.5,180.5,363.5,187.5,355.5,195.0,347.0,202.0" stroke="black" stroke-width="2" fill="none" />
<polyline points="349.5,200.0,358.0,199.0,365.5,198.5" stroke="black" stroke-width="2" fill="none" />
<polyline points="363.0,205.5,354.5,206.5" stroke="black" stroke-width="2" fill="none" />
<polyline points="346.0,194.5,354.5,186.5,363.0,178.5,371.0,170.5" stroke="black" stroke-width="2" fill="none" />
<polyline points="372.5,163.0,364.0,170.5,356.0,178.0,347.5,186.0,339.5,193.0" stroke="black" stroke-width="2" fill="none" />
<polyline points="337.0,194.0,345.0,193.5,353.5,193.0,362.0,192.0,370.5,191.5" stroke="black" stroke-width="2" fill="none" />
<polyline points="379.0,185.0,371.0,186.0,362.5,187.0,355.0,187.5" stroke="black" stroke-width="2" fill="none" />
<polyline points="355.0,178.0,363.5,178.0" stroke="black" stroke-width="2" fill="none" />
<polyline points="361.5,165.5,353.5,173.0,346.5,180.5,339.0,188.0,331.5,196.0" stroke="black" stroke-width="2" fill="none" />
<polyline points="331.5,190.0,339.5,189.5,347.5,188.5,355.0,188.0,362.5,188.0,370.5,187.5,378.0,186.5" stroke="black" stroke-width="2" fill="none" />
<polyline points="388.0,163.5,395.5,155.5" stroke="black" stroke-width="2" fill="none" />
<polyline points="401.5,151.0,410.0,151.0" stroke="black" stroke-width="2" fill="none" />
<polyline points="405.0,146.5,413.5,139.5,421.5,132.0" stroke="black" stroke-width="2" fill="none" />
<polyline points="420.0,140.0,412.0,148.0,404.0,156.0" stroke="black" stroke-width="2" fill="none" />
<polyline points="403.5,148.0,411.5,147.5" stroke="black" stroke-width="2" fill="none" />
<polyline points="420.0,142.0,412.0,142.5,404.0,143.0,396.0,143.5" stroke="black" stroke-width="2" fill="none" />
<polyline points="393.5,145.0,401.5,138.0,409.5,130.5" stroke="black" stroke-width="2" fill="none" />
<polyline points="411.5,123.0,404.0,130.5,396.0,137.5" stroke="black" stroke-width="2" fill="none" />
<polyline points="393.5,141.5,401.5,140.5,410.0,139.5,418.5,139.0" stroke="black" stroke-width="2" fill="none" />
<polyline points="404.5,124.5,396.5,132.5,388.5,139.5" stroke="black" stroke-width="2" fill="none" />
<polyline points="386.5,138.5,394.5,137.5,402.0,137.0,410.0,136.5,418.5,136.5" stroke="black" stroke-width="2" fill="none" />
<polyline points="406.0,117.0,398.0,124.5,390.0,132.0" stroke="black" stroke-width="2" fill="none" />
<polyline points="386.5,135.5,394.0,135.0,402.0,134.5,410.5,134.0,419.0,133.5" stroke="black" stroke-width="2" fill="none" />
<polyline points="397.5,117.5,389.5,125.0,381.0,132.0" stroke="black" stroke-width="2" fill="none" />
<polyline points="378.0,131.0,386.5,130.5,395.0,130.0,403.0,129.0,411.0,128.5" stroke="black" stroke-width="2" fill="none" />
<polyline points="397.0,110.5,388.5,117.5,380.5,125.0" stroke="black" stroke-width="2" fill="none" />
<polyline points="380.5,127.0,392.5,138.5,404.0,150.0,416.0,142.5" stroke="black" stroke-width="2" fill="none" />
<polyline points="386.5,145.5,379.0,153.5" stroke="black" stroke-width="2" fill="none" />
<polyline points="380.0,154.5,387.5,154.0" stroke="black" stroke-width="2" fill="none" />
<polyline points="385.5,158.5,393.0,157.5" stroke="black" stroke-width="2" fill="none" />
<polyline points="394.5,160.5,387.0,161.5" stroke="black" stroke-width="2" fill="none" />
<polyline points="387.0,150.0,379.0,150.5" stroke="black" stroke-width="2" fill="none" />
<polyline points="381.0,147.0,373.0,147.5" stroke="black" stroke-width="2" fill="none" />
<polyline points="371.5,148.0,379.0,141.0" stroke="black" stroke-width="2" fill="none" />
<polyline points="379.0,140.5,370.5,141.0" stroke="black" stroke-width="2" fill="none" />
<polyline points="363.5,137.0,371.5,129.0" stroke="black" stroke-width="2" fill="none" />
<polyline points="369.5,135.0,361.5,135.5" stroke="black" stroke-width="2" fill="none" />
<polyline points="363.0,134.5,371.0,134.0" stroke="black" stroke-width="2" fill="none" />
<polyline points="380.0,127.5,387.5,127.0,395.5,126.0,403.5,125.0,412.0,124.0" stroke="black" stroke-width="2" fill="none" />
<polyline points="395.5,113.5,387.0,114.0" stroke="black" stroke-width="2" fill="none" />
<polyline points="387.0,109.0,376.5,121.0,381.0,132.5,393.0,144.5" stroke="black" stroke-width="2" fill="none" />
<polyline points="380.5,123.0,388.5,122.5,396.0,121.5,403.0,121.0" stroke="black" stroke-width="2" fill="none" />
<polyline points="395.5,109.0,387.5,109.0" stroke="black" stroke-width="2" fill="none" />
<polyline points="391.5,111.5,403.5,124.0,417.0,135.5,411.0,148.0" stroke="black" stroke-width="2" fill="none" />
<polyline points="405.0,177.5,417.0,170.0,429.5,181.5" stroke="black" stroke-width="2" fill="none" />
<polyline points="419.5,194.0,407.5,183.0" stroke="black" stroke-width="2" fill="none" />
<polyline points="362.0,156.0,355.0,163.5,347.0,170.5,339.0,178.0,331.5,185.5" stroke="black" stroke-width="2" fill="none" />
<polyline points="331.0,187.5,338.5,186.5,346.5,186.0" stroke="black" stroke-width="2" fill="none" />
<polyline points="338.5,196.5,346.0,196.0,354.0,195.5,362.5,195.0,370.5,195.0" stroke="black" stroke-width="2" fill="none" />
<polyline points="337.5,212.5,329.5,220.0" stroke="black" stroke-width="2" fill="none" />
<polyline points="331.0,218.0,338.5,217.5" stroke="black" stroke-width="2" fill="none" />
<polyline points="339.0,211.5,331.0,212.5" stroke="black" stroke-width="2" fill="none" />
<polyline points="332.0,211.0,324.0,211.5" stroke="black" stroke-width="2" fill="none" />
<polyline points="321.0,211.0,329.0,203.5" stroke="black" stroke-width="2" fill="none" />
<polyline points="325.5,206.0,333.0,205.5" stroke="black" stroke-width="2" fill="none" />
<polyline points="325.0,197.0,317.0,204.5" stroke="black" stroke-width="2" fill="none" />
<polyline points="313.5,201.5,322.0,201.0" stroke="black" stroke-width="2" fill="none" />
<polyline points="324.0,198.0,316.0,198.0" stroke="black" stroke-width="2" fill="none" />
<polyline points="307.5,195.0,315.5,187.5" stroke="black" stroke-width="2" fill="none" />
<polyline points="315.5,193.0,307.5,193.5" stroke="black" stroke-width="2" fill="none" />
<polyline points="306.0,190.0,313.5,189.5" stroke="black" stroke-width="2" fill="none" />
<polyline points="304.5,181.5,297.0,189.0" stroke="black" stroke-width="2" fill="none" />
<polyline points="298.0,184.5,306.5,184.5" stroke="black" stroke-width="2" fill="none" />
<polyline points="308.0,180.5,300.0,180.5" stroke="black" stroke-width="2" fill="none" />
<polyline points="303.0,182.0,315.0,194.0,327.0,206.0,340.5,218.0" stroke="black" stroke-width="2" fill="none" />
<polyline points="315.5,221.0,307.5,228.5,300.0,236.0" stroke="black" stroke-width="2" fill="none" />
<polyline points="300.0,231.0,307.5,231.0" stroke="black" stroke-width="2" fill="none" />
<polyline points="306.5,227.0,298.5,227.5" stroke="black" stroke-width="2" fill="none" />
<polyline points="298.5,227.5,306.0,220.5,314.5,213.5" stroke="black" stroke-width="2" fill="none" />
<polyline points="307.0,210.5,299.0,218.0,291.0,226.0" stroke="black" stroke-width="2" fill="none" />
<polyline points="290.0,226.5,298.0,225.5,306.0,224.5,314.0,223.5" stroke="black" stroke-width="2" fill="none" />
<polyline points="306.0,202.5,298.5,210.0,291.0,218.0" stroke="black" stroke-width="2" fill="none" />
<polyline points="291.0,221.0,299.5,221.0,307.5,220.5,316.0,219.5" stroke="black" stroke-width="2" fill="none" />
<polyline points="298.5,205.5,290.5,212.5,283.0,219.5" stroke="black" stroke-width="2" fill="none" />
<polyline points="284.0,217.0,292.0,216.5,299.5,215.5,307.5,215.0,315.5,215.0" stroke="black" stroke-width="2" fill="none" />
<polyline points="299.0,195.5,291.0,203.0,283.0,210.5" stroke="black" stroke-width="2" fill="none" />
<polyline points="281.0,213.5,289.0,213.5,297.5,214.0,306.0,213.5,314.5,213.5" stroke="black" stroke-width="2" fill="none" />
<polyline points="290.5,195.0,282.5,202.5,275.0,210.0" stroke="black" stroke-width="2" fill="none" />
<polyline points="275.5,210.0,287.5,223.5,299.5,234.0,311.5,223.5" stroke="black" stroke-width="2" fill="none" />
<polyline points="291.0,194.0,283.0,194.5" stroke="black" stroke-width="2" fill="none" />
<polyline points="281.0,192.0,269.0,204.0,275.0,216.0,287.0,228.0" stroke="black" stroke-width="2" fill="none" />
<polyline points="273.5,209.5,281.5,208.5,289.5,208.0,297.5,208.0,306.0,207.5" stroke="black" stroke-width="2" fill="none" />
<polyline points="308.0,204.0,299.5,205.0,291.0,205.0,282.0,205.5,274.0,205.5" stroke="black" stroke-width="2" fill="none" />
<polyline points="274.0,206.5,290.0,196.0,301.5,208.5,313.0,220.5,302.5,232.5" stroke="black" stroke-width="2" fill="none" />
<polyline points="273.5,203.5,280.5,196.0,288.5,188.5" stroke="black" stroke-width="2" fill="none" />
<polyline points="289.0,189.0,281.5,189.5" stroke="black" stroke-width="2" fill="none" />
<polyline points="276.5,196.5,284.5,196.5,292.0,196.0,300.0,195.5" stroke="black" stroke-width="2" fill="none" />
<polyline points="299.5,200.5,291.0,200.5,283.0,200.5,274.5,200.0" stroke="black" stroke-width="2" fill="none" />
<polyline points="268.5,203.0,281.0,191.0,293.0,195.5,305.0,206.0" stroke="black" stroke-width="2" fill="none" />
<polyline points="298.5,184.5,310.5,196.5,322.0,208.5,334.0,222.5" stroke="black" stroke-width="2" fill="none" />
<polyline points="329.5,183.0,337.5,182.5,345.0,182.0,353.5,181.5,361.5,180.0,370.0,179.0,378.0,178.5,387.0,178.5" stroke="black" stroke-width="2" fill="none" />
<polyline points="356.0,155.0,348.0,162.5,340.5,170.5,332.5,178.0" stroke="black" stroke-width="2" fill="none" />
<polyline points="331.5,177.0,323.5,177.0" stroke="black" stroke-width="2" fill="none" />
<polyline points="323.0,176.0,331.5,169.0,340.0,161.5,348.5,154.0,356.5,147.0" stroke="black" stroke-width="2" fill="none" />
<polyline points="348.5,147.5,340.0,155.5,332.5,162.5,324.0,170.0" stroke="black" stroke-width="2" fill="none" />
<polyline points="324.0,173.5,332.0,172.5,339.5,172.0,347.0,171.5,355.0,171.0,363.0,170.5,371.0,171.0,379.0,171.0" stroke="black" stroke-width="2" fill="none" />
<polyline points="346.0,140.5,338.0,148.0,329.5,155.0,321.5,162.5,313.5,170.5" stroke="black" stroke-width="2" fill="none" />
<polyline points="314.0,168.5,326.0,182.0,337.5,195.5,350.0,207.5,362.0,200.0,374.0,188.5" stroke="black" stroke-width="2" fill="none" />
<polyline points="338.5,161.5,330.0,162.0" stroke="black" stroke-width="2" fill="none" />
<polyline points="324.5,158.0,316.0,166.0" stroke="black" stroke-width="2" fill="none" />
<polyline points="315.5,164.5,323.5,164.0,331.5,163.5,339.0,163.5,347.0,163.5,355.0,163.0,362.5,162.5,370.5,162.5" stroke="black" stroke-width="2" fill="none" />
<polyline points="363.5,130.5,355.5,130.5" stroke="black" stroke-width="2" fill="none" />
<polyline points="355.5,130.5,367.5,142.5,380.0,153.0,391.5,165.0" stroke="black" stroke-width="2" fill="none" />
<polyline points="354.0,147.0,346.5,147.5,338.5,147.5,330.0,148.5,322.0,149.0" stroke="black" stroke-width="2" fill="none" />
<polyline points="316.5,155.5,324.5,154.5,332.0,154.5,339.5,154.5,347.5,155.0,355.0,154.5,363.0,154.0" stroke="black" stroke-width="2" fill="none" />
<polyline points="348.0,142.5,340.0,143.0,332.0,143.0" stroke="black" stroke-width="2" fill="none" />
<polyline points="324.5,136.0,316.0,136.0,308.0,136.5,300.5,137.0,292.0,137.5" stroke="black" stroke-width="2" fill="none" />
<polyline points="291.0,137.5,298.5,130.0,306.0,122.5,314.5,115.0" stroke="black" stroke-width="2" fill="none" />
<polyline points="317.5,114.5,308.5,116.0,296.0,128.0,285.5,140.0,292.5,152.0" stroke="black" stroke-width="2" fill="none" />
<polyline points="291.0,156.0,283.0,164.0,275.5,171.5,268.0,179.0,259.5,186.5,251.0,194.5,243.0,201.5" stroke="black" stroke-width="2" fill="none" />
<polyline points="244.0,204.5,252.0,203.5" stroke="black" stroke-width="2" fill="none" />
<polyline points="243.5,208.0,251.5,200.5,259.5,193.0,268.0,186.0,275.5,179.0,283.0,172.0,291.0,164.0" stroke="black" stroke-width="2" fill="none" />
<polyline points="283.5,156.0,275.0,163.5,267.0,171.5,259.0,179.5,251.0,187.5,243.0,195.0,234.5,202.5" stroke="black" stroke-width="2" fill="none" />
<polyline points="238.0,199.5,245.5,199.5,253.0,199.0,260.5,198.5" stroke="black" stroke-width="2" fill="none" />
<polyline points="249.5,208.5,241.5,209.0" stroke="black" stroke-width="2" fill="none" />
<polyline points="238.0,197.0,246.5,196.5,253.5,196.0,261.0,195.0" stroke="black" stroke-width="2" fill="none" />
<polyline points="235.5,194.0,243.0,186.5,250.5,179.0,258.5,171.0,266.5,163.5,274.5,155.5" stroke="black" stroke-width="2" fill="none" />
<polyline points="276.5,148.0,268.5,155.0,260.0,162.5,252.0,170.0,244.5,177.0,236.0,184.0,228.0,192.0" stroke="black" stroke-width="2" fill="none" />
<polyline points="227.0,190.5,235.0,190.5,242.5,190.5,250.5,190.0,258.5,190.0,266.5,190.0" stroke="black" stroke-width="2" fill="none" />
<polyline points="266.5,185.5,258.0,186.0,250.0,186.5,241.5,186.5,234.0,186.5,226.0,186.5" stroke="black" stroke-width="2" fill="none" />
<polyline points="228.5,183.5,236.5,176.0,244.5,168.5,252.5,161.0,260.5,153.0,269.0,145.5" stroke="black" stroke-width="2" fill="none" />
<polyline points="267.0,139.0,259.0,146.5,251.0,154.0,243.5,161.0,236.0,168.0,228.0,175.5,220.0,183.0" stroke="black" stroke-width="2" fill="none" />
<polyline points="219.0,184.5,227.0,184.5,235.0,183.5,243.5,183.0,251.5,183.0,260.0,183.0,268.0,182.0,276.0,182.0" stroke="black" stroke-width="2" fill="none" />
<polyline points="274.5,179.5,266.0,180.0,257.5,180.5,249.5,181.0,242.0,181.0,234.0,181.5,226.0,182.5,217.5,183.0" stroke="black" stroke-width="2" fill="none" />
<polyline points="218.0,182.5,230.0,194.5,241.5,207.0,253.5,201.0,265.5,188.0,278.0,176.5" stroke="black" stroke-width="2" fill="none" />
<polyline points="284.0,175.0,275.5,175.0,266.5,175.5,258.0,176.0,250.0,176.5,242.0,176.5,234.0,177.0,225.5,178.0,217.5,178.5" stroke="black" stroke-width="2" fill="none" />
<polyline points="217.5,177.5,225.0,169.5,233.0,161.5,241.0,154.0,249.0,146.0,257.5,138.5" stroke="black" stroke-width="2" fill="none" />
<polyline points="258.0,133.5,244.5,146.0,232.5,158.0,220.5,170.0,214.0,181.5,223.0,193.5,234.5,205.5" stroke="black" stroke-width="2" fill="none" />
<polyline points="221.0,204.0,213.0,211.0,204.5,218.0,196.5,225.0,188.0,232.5" stroke="black" stroke-width="2" fill="none" />
<polyline points="187.5,231.0,195.5,230.5" stroke="black" stroke-width="2" fill="none" />
<polyline points="188.0,227.0,196.0,219.0,204.0,212.0,212.5,205.0,220.5,197.5" stroke="black" stroke-width="2" fill="none" />
<polyline points="211.0,197.0,203.5,204.5,196.5,212.0,189.0,219.5,181.0,227.0" stroke="black" stroke-width="2" fill="none" />
<polyline points="179.5,225.0,188.0,224.0,196.5,224.0,205.0,223.5" stroke="black" stroke-width="2" fill="none" />
<polyline points="204.0,220.5,195.5,221.0,187.0,221.5,179.5,221.5" stroke="black" stroke-width="2" fill="none" />
<polyline points="180.5,219.5,188.5,219.0,196.5,218.0,205.0,217.5,213.0,216.5" stroke="black" stroke-width="2" fill="none" />
<polyline points="212.5,212.5,204.5,213.5,196.0,214.5,187.5,215.5,179.5,216.0" stroke="black" stroke-width="2" fill="none" />
<polyline points="180.5,218.0,188.5,210.0,196.0,202.5,203.5,195.0,211.5,187.0" stroke="black" stroke-width="2" fill="none" />
<polyline points="213.5,191.0,206.0,191.5" stroke="black" stroke-width="2" fill="none" />
<polyline points="204.0,194.0,196.5,193.5,184.5,206.0,172.0,217.5,178.0,229.5" stroke="black" stroke-width="2" fill="none" />
<polyline points="175.0,221.5,187.0,233.0,198.5,222.5,210.5,210.5,214.5,219.5,213.0,231.5,225.0,232.0,222.5,237.0,231.5,228.0" stroke="black" stroke-width="2" fill="none" />
<polyline points="234.5,228.5,227.0,229.5,219.5,230.0" stroke="black" stroke-width="2" fill="none" />
<polyline points="212.5,221.5,224.5,211.0,236.5,217.0" stroke="black" stroke-width="2" fill="none" />
<polyline points="212.0,187.0,204.0,187.5" stroke="black" stroke-width="2" fill="none" />
<polyline points="195.0,180.0,187.0,188.0,179.5,195.0,171.5,202.5,163.5,210.0" stroke="black" stroke-width="2" fill="none" />
<polyline points="164.0,206.0,172.0,205.0" stroke="black" stroke-width="2" fill="none" />
<polyline points="163.5,202.0,171.0,195.0,179.0,187.5,187.5,180.0,196.0,172.5" stroke="black" stroke-width="2" fill="none" />
<polyline points="186.0,170.5,178.0,178.0,170.0,186.0,162.0,194.0,155.0,202.5" stroke="black" stroke-width="2" fill="none" />
<polyline points="154.0,199.5,162.0,199.5,170.0,199.5,178.5,199.5" stroke="black" stroke-width="2" fill="none" />
<polyline points="189.0,205.0,197.0,204.5,204.5,204.5,212.0,204.0,220.0,203.5" stroke="black" stroke-width="2" fill="none" />
<polyline points="220.5,201.0,213.0,201.5,205.0,201.5,197.0,201.5" stroke="black" stroke-width="2" fill="none" />
<polyline points="194.5,197.5,202.5,197.0,210.5,197.0,219.0,196.5" stroke="black" stroke-width="2" fill="none" />
<polyline points="221.5,207.5,213.5,208.5,206.0,209.5,198.0,210.0,190.5,210.5" stroke="black" stroke-width="2" fill="none" />
<polyline points="178.0,195.5,170.0,196.0,162.5,196.0,154.5,196.5" stroke="black" stroke-width="2" fill="none" />
<polyline points="154.5,195.0,162.5,187.5,170.5,180.0,179.0,173.0,187.0,165.5" stroke="black" stroke-width="2" fill="none" />
<polyline points="179.5,162.5,171.5,169.5,163.5,176.5,155.0,184.0,147.0,192.0" stroke="black" stroke-width="2" fill="none" />
<polyline points="148.0,193.0,156.0,192.5,164.0,192.0,172.0,191.0,180.0,190.5,188.5,190.0" stroke="black" stroke-width="2" fill="none" />
<polyline points="188.5,186.0,180.5,186.5,172.5,187.5,165.0,187.5,157.5,187.5,150.5,187.5" stroke="black" stroke-width="2" fill="none" />
<polyline points="147.0,183.5,155.5,176.0,163.0,168.5,170.0,161.5,178.0,154.0" stroke="black" stroke-width="2" fill="none" />
<polyline points="180.0,151.0,187.5,150.0,195.5,149.5" stroke="black" stroke-width="2" fill="none" />
<polyline points="197.0,150.5,189.0,151.5" stroke="black" stroke-width="2" fill="none" />
<polyline points="187.5,154.0,195.0,146.0,203.0,138.5" stroke="black" stroke-width="2" fill="none" />
<polyline points="201.5,130.0,193.5,138.0,185.5,146.0" stroke="black" stroke-width="2" fill="none" />
<polyline points="179.5,147.0,187.5,139.5,196.0,132.0" stroke="black" stroke-width="2" fill="none" />
<polyline points="196.0,121.5,187.5,129.0,179.5,137.0" stroke="black" stroke-width="2" fill="none" />
<polyline points="171.5,139.5,180.0,138.5,188.5,137.0,196.5,136.0,204.5,134.5" stroke="black" stroke-width="2" fill="none" />
<polyline points="211.5,149.0,219.0,148.5,227.0,148.5" stroke="black" stroke-width="2" fill="none" />
<polyline points="220.0,147.0,228.0,146.0,236.0,145.0" stroke="black" stroke-width="2" fill="none" />
<polyline points="244.0,148.0,252.0,147.5,260.5,147.0,268.5,147.0,277.0,147.0" stroke="black" stroke-width="2" fill="none" />
<polyline points="267.0,144.0,258.5,144.5,250.5,145.0" stroke="black" stroke-width="2" fill="none" />
<polyline points="250.0,143.0,258.0,142.0,266.0,141.0" stroke="black" stroke-width="2" fill="none" />
<polyline points="262.5,139.0,274.5,151.0,286.5,163.0,280.5,175.0,268.5,186.5,256.0,198.0" stroke="black" stroke-width="2" fill="none" />
<polyline points="237.0,162.5,245.0,162.0,253.0,161.0,261.0,160.0,269.0,159.5,276.5,158.5,284.0,157.5,291.5,156.5" stroke="black" stroke-width="2" fill="none" />
<polyline points="299.0,154.0,307.0,153.0" stroke="black" stroke-width="2" fill="none" />
<polyline points="300.5,154.5,308.0,146.5,315.5,138.5,324.0,131.0,332.0,123.5" stroke="black" stroke-width="2" fill="none" />
<polyline points="324.0,125.5,316.5,133.0,308.5,140.0,301.0,147.0" stroke="black" stroke-width="2" fill="none" />
<polyline points="299.5,148.5,307.5,148.5" stroke="black" stroke-width="2" fill="none" />
<polyline points="315.5,143.5,307.5,144.0,299.5,144.5,291.5,145.5" stroke="black" stroke-width="2" fill="none" />
<polyline points="290.0,146.5,297.5,138.5,305.5,131.0,313.5,124.0" stroke="black" stroke-width="2" fill="none" />
<polyline points="315.0,120.0,307.5,121.0" stroke="black" stroke-width="2" fill="none" />
<polyline points="308.5,116.5,316.0,116.0,324.0,116.0" stroke="black" stroke-width="2" fill="none" />
<polyline points="331.0,128.0,323.0,128.0,315.0,128.5,307.0,128.0,299.0,128.0" stroke="black" stroke-width="2" fill="none" />
<polyline points="298.0,125.5,306.0,125.0,314.5,125.0,322.5,124.5,330.0,124.5" stroke="black" stroke-width="2" fill="none" />
<polyline points="324.5,130.0,316.5,130.0,308.5,130.5,300.0,130.5,292.0,131.5" stroke="black" stroke-width="2" fill="none" />
<polyline points="288.0,143.0,300.0,155.0,312.0,143.0,324.0,131.5" stroke="black" stroke-width="2" fill="none" />
<polyline points="316.0,141.0,308.5,142.0,300.5,143.5,293.0,144.0" stroke="black" stroke-width="2" fill="none" />
<polyline points="275.0,150.0,267.0,151.0,258.5,152.0,250.5,152.5,242.0,153.0" stroke="black" stroke-width="2" fill="none" />
<polyline points="237.0,159.5,245.0,158.5,252.5,157.0,260.5,156.0,268.0,154.5,275.5,153.5,283.0,153.0,291.0,152.5" stroke="black" stroke-width="2" fill="none" />
<polyline points="290.5,165.5,282.5,165.5,274.0,165.5,266.0,165.0,258.0,166.0,250.0,166.5,242.0,167.0,233.5,167.5,225.5,168.5" stroke="black" stroke-width="2" fill="none" />
<polyline points="225.5,167.0,234.0,166.5,242.0,165.5,250.5,164.5,259.0,164.0,266.5,162.5,275.0,162.0,282.5,161.5,290.5,161.0" stroke="black" stroke-width="2" fill="none" />
<polyline points="284.0,169.0,276.0,169.0,268.5,170.0,260.5,170.5,252.0,171.5,243.5,172.5,235.0,173.5,227.0,174.0,219.0,175.0" stroke="black" stroke-width="2" fill="none" />
<polyline points="213.0,179.0,225.0,163.5,237.0,151.5,249.0,140.0,261.5,135.5,273.5,146.0,285.5,158.0" stroke="black" stroke-width="2" fill="none" />
<polyline points="308.5,163.0,320.5,151.0,333.0,138.0,345.0,138.5,357.0,150.5,368.5,162.5,381.0,175.0,386.0,196.0,372.5,208.5,363.5,220.5,372.0,232.5" stroke="black" stroke-width="2" fill="none" />
<polyline points="398.0,161.5,385.5,151.0,373.5,139.0,362.0,127.5,350.5,127.5" stroke="black" stroke-width="2" fill="none" />
<polyline points="355.5,125.5,363.5,124.5" stroke="black" stroke-width="2" fill="none" />
<polyline points="363.0,123.0,355.0,130.5" stroke="black" stroke-width="2" fill="none" />
<polyline points="358.0,126.0,371.5,138.0,382.0,150.0,394.0,161.5" stroke="black" stroke-width="2" fill="none" />
<polyline points="411.5,126.0,399.5,115.0,387.5,109.0,376.0,122.5" stroke="black" stroke-width="2" fill="none" />
<polyline points="379.5,118.5,388.0,117.5,396.0,117.0,404.0,116.5" stroke="black" stroke-width="2" fill="none" />
<polyline points="356.0,121.0,353.0,133.5,364.5,145.5,378.0,158.0,388.5,170.0" stroke="black" stroke-width="2" fill="none" />
<polyline points="400.5,192.5,389.0,192.5,377.5,204.5,365.5,215.0,363.0,200.0,375.0,188.0,379.0,176.0,366.5,164.0,355.0,152.0,343.0,140.5" stroke="black" stroke-width="2" fill="none" />
<polyline points="338.5,135.0,325.0,147.0,314.5,159.5,312.5,171.0,322.5,183.0,333.0,195.0,345.0,207.0" stroke="black" stroke-width="2" fill="none" />
<polyline points="342.0,215.5,330.0,205.0,318.0,192.5,305.5,180.5,293.5,181.5" stroke="black" stroke-width="2" fill="none" />
<polyline points="300.5,177.0,297.5,189.0,310.0,201.0,320.5,212.5,332.0,224.5" stroke="black" stroke-width="2" fill="none" />
<polyline points="252.5,128.5,244.0,129.0,236.0,129.5" stroke="black" stroke-width="2" fill="none" />
<polyline points="236.0,123.0,244.0,123.0,252.0,123.5" stroke="black" stroke-width="2" fill="none" />
<polyline points="251.0,122.5,242.5,130.5,234.5,138.0,226.5,146.0,218.5,153.5,210.5,161.0" stroke="black" stroke-width="2" fill="none" />
<polyline points="205.5,159.5,213.5,159.0,220.5,159.0" stroke="black" stroke-width="2" fill="none" />
<polyline points="226.5,153.0,218.5,153.0,210.5,153.5" stroke="black" stroke-width="2" fill="none" />
<polyline points="205.5,157.5,213.5,156.5,220.5,156.0" stroke="black" stroke-width="2" fill="none" />
<polyline points="219.5,142.0,227.5,141.5,236.0,141.5" stroke="black" stroke-width="2" fill="none" />
<polyline points="243.0,137.0,235.0,138.0,227.5,139.0" stroke="black" stroke-width="2" fill="none" />
<polyline points="229.0,136.0,237.0,135.0,245.0,135.0" stroke="black" stroke-width="2" fill="none" />
<polyline points="237.5,135.5,225.5,147.5,213.5,158.0,210.5,162.5,223.0,150.5,235.0,138.5,244.0,126.5" stroke="black" stroke-width="2" fill="none" />
<polyline points="245.0,122.5,237.0,130.0,228.5,137.5,220.0,145.5,211.5,153.5,203.5,160.5" stroke="black" stroke-width="2" fill="none" />
<polyline points="203.5,144.5,194.5,145.5,186.0,146.0,178.0,147.0" stroke="black" stroke-width="2" fill="none" />
<polyline points="170.5,145.5,162.5,153.5,155.0,161.0,147.0,169.0,138.5,176.5" stroke="black" stroke-width="2" fill="none" />
<polyline points="140.5,180.0,148.0,179.0,156.0,179.0,164.0,178.5,172.0,178.5,180.5,178.5,188.0,179.0,195.5,179.0" stroke="black" stroke-width="2" fill="none" />
<polyline points="171.5,155.5,163.5,163.0,155.0,171.0,146.5,178.5,138.0,185.5" stroke="black" stroke-width="2" fill="none" />
<polyline points="138.5,185.0,146.5,184.5,154.5,184.0,163.0,183.5,171.0,183.0,179.0,183.0,187.0,182.5,195.0,182.0" stroke="black" stroke-width="2" fill="none" />
<polyline points="195.5,173.0,187.5,173.5,179.5,173.5,171.0,174.0,163.5,175.0,155.5,176.0,148.0,177.0,140.0,177.5,131.5,178.0" stroke="black" stroke-width="2" fill="none" />
<polyline points="131.0,176.5,139.5,169.0,148.0,161.5,156.0,154.0,164.5,146.5" stroke="black" stroke-width="2" fill="none" />
<polyline points="170.0,143.0,178.5,142.5,186.5,141.5,195.0,140.5,203.0,139.5" stroke="black" stroke-width="2" fill="none" />
<polyline points="187.0,122.5,179.0,130.0,171.0,138.0" stroke="black" stroke-width="2" fill="none" />
<polyline points="165.5,139.5,157.0,146.5,148.5,154.5,140.0,161.5,131.0,168.5" stroke="black" stroke-width="2" fill="none" />
<polyline points="132.5,173.5,141.0,173.0,148.5,172.5,156.5,172.0,164.5,171.5,172.5,171.5,180.0,171.5,187.5,171.0,195.5,170.5" stroke="black" stroke-width="2" fill="none" />
<polyline points="172.0,128.5,180.5,121.5,188.5,114.5" stroke="black" stroke-width="2" fill="none" />
<polyline points="179.5,115.0,171.5,122.5,163.5,130.0" stroke="black" stroke-width="2" fill="none" />
<polyline points="162.5,130.0,170.5,130.0,179.0,130.0,187.0,129.5,195.0,129.0" stroke="black" stroke-width="2" fill="none" />
<polyline points="180.5,106.5,172.5,114.0,164.5,122.0" stroke="black" stroke-width="2" fill="none" />
<polyline points="164.0,123.0,171.0,122.5,179.0,121.5,187.0,120.5" stroke="black" stroke-width="2" fill="none" />
<polyline points="180.0,112.5,172.0,113.0" stroke="black" stroke-width="2" fill="none" />
<polyline points="174.0,112.0,186.5,124.0,198.5,136.0,194.0,148.0" stroke="black" stroke-width="2" fill="none" />
<polyline points="204.0,133.0,195.5,133.5,187.5,133.5,179.5,133.5,171.5,133.5,164.0,134.0" stroke="black" stroke-width="2" fill="none" />
<polyline points="165.0,126.5,173.0,126.0,181.5,125.5,189.0,125.0,197.0,124.5" stroke="black" stroke-width="2" fill="none" />
<polyline points="181.5,109.0,173.0,109.5" stroke="black" stroke-width="2" fill="none" />
<polyline points="167.5,108.0,155.5,120.0,160.0,132.0,170.5,144.0,182.5,156.0" stroke="black" stroke-width="2" fill="none" />
<polyline points="154.0,138.5,146.0,145.5,138.0,153.5,130.0,161.5,123.0,169.0" stroke="black" stroke-width="2" fill="none" />
<polyline points="123.0,170.0,130.5,169.5,138.5,169.0,146.0,169.0,153.5,168.5,161.5,168.0,170.0,168.0,179.0,168.0,187.0,167.5" stroke="black" stroke-width="2" fill="none" />
<polyline points="155.0,137.0,146.5,137.0" stroke="black" stroke-width="2" fill="none" />
<polyline points="145.0,133.0,153.5,132.5" stroke="black" stroke-width="2" fill="none" />
<polyline points="153.5,132.0,145.5,139.5,138.0,147.0,131.0,154.5,123.5,162.5" stroke="black" stroke-width="2" fill="none" />
<polyline points="124.0,163.0,131.5,162.0,140.0,161.5,148.5,160.5,157.0,160.5,165.0,160.0,173.0,159.0,180.5,158.0" stroke="black" stroke-width="2" fill="none" />
<polyline points="163.0,143.5,155.5,144.0,148.0,145.0,140.5,146.0" stroke="black" stroke-width="2" fill="none" />
<polyline points="139.5,144.0,148.0,143.0,156.5,141.5,165.0,140.5" stroke="black" stroke-width="2" fill="none" />
<polyline points="171.0,149.0,162.5,149.0,154.5,149.0,146.0,149.0,138.0,148.5,130.0,149.0" stroke="black" stroke-width="2" fill="none" />
<polyline points="132.0,152.5,140.0,152.0,147.5,152.5,155.0,152.0,162.5,152.0,171.0,152.0" stroke="black" stroke-width="2" fill="none" />
<polyline points="187.5,163.0,179.0,163.5,170.5,164.0,162.0,164.5,154.5,165.0,146.5,165.0,138.5,165.5,131.5,166.0,124.0,166.5" stroke="black" stroke-width="2" fill="none" />
<polyline points="122.0,166.0,134.5,179.5,146.5,191.5,158.0,204.5,170.0,201.0,182.0,189.0" stroke="black" stroke-width="2" fill="none" />
<polyline points="171.5,218.0,184.0,206.0,196.0,193.5,208.5,191.5,211.5,199.0,211.5,211.0,200.0,223.0" stroke="black" stroke-width="2" fill="none" />
<polyline points="195.0,235.0,187.0,235.5" stroke="black" stroke-width="2" fill="none" />
<polyline points="155.5,209.5,147.0,217.5" stroke="black" stroke-width="2" fill="none" />
<polyline points="145.5,217.0,154.0,216.5" stroke="black" stroke-width="2" fill="none" />
<polyline points="154.5,212.5,146.0,213.5" stroke="black" stroke-width="2" fill="none" />
<polyline points="139.0,212.0,147.0,204.5" stroke="black" stroke-width="2" fill="none" />
<polyline points="146.5,208.0,139.0,209.0" stroke="black" stroke-width="2" fill="none" />
<polyline points="139.0,204.0,147.0,203.5" stroke="black" stroke-width="2" fill="none" />
<polyline points="139.0,196.5,131.0,203.5" stroke="black" stroke-width="2" fill="none" />
<polyline points="130.5,202.0,138.0,201.5" stroke="black" stroke-width="2" fill="none" />
<polyline points="138.5,198.5,130.0,199.0" stroke="black" stroke-width="2" fill="none" />
<polyline points="125.0,197.5,133.0,190.0" stroke="black" stroke-width="2" fill="none" />
<polyline points="130.5,192.5,122.5,193.0" stroke="black" stroke-width="2" fill="none" />
<polyline points="123.0,189.5,130.5,189.5" stroke="black" stroke-width="2" fill="none" />
<polyline points="121.5,180.5,113.5,188.5" stroke="black" stroke-width="2" fill="none" />
<polyline points="114.0,187.0,122.5,186.5" stroke="black" stroke-width="2" fill="none" />
<polyline points="122.5,183.5,114.0,184.0" stroke="black" stroke-width="2" fill="none" />
<polyline points="111.0,180.5,123.0,195.5,135.0,204.5,147.0,218.0" stroke="black" stroke-width="2" fill="none" />
<polyline points="123.5,218.0,115.5,226.0" stroke="black" stroke-width="2" fill="none" />
<polyline points="107.0,226.0,114.5,218.0,122.5,210.5" stroke="black" stroke-width="2" fill="none" />
<polyline points="114.0,214.0,106.0,221.5,97.5,228.0" stroke="black" stroke-width="2" fill="none" />
<polyline points="100.0,225.0,108.0,225.0,116.5,224.0,124.5,223.5" stroke="black" stroke-width="2" fill="none" />
<polyline points="115.0,205.0,107.0,212.5,98.5,219.5" stroke="black" stroke-width="2" fill="none" />
<polyline points="99.5,221.0,108.0,220.5,116.5,220.0,125.0,219.5" stroke="black" stroke-width="2" fill="none" />
<polyline points="108.0,205.5,100.0,213.5,92.5,221.0" stroke="black" stroke-width="2" fill="none" />
<polyline points="93.0,217.0,101.0,216.5,109.0,216.0,116.5,215.5,124.0,215.0" stroke="black" stroke-width="2" fill="none" />
<polyline points="108.0,196.0,100.0,203.5,91.5,210.5" stroke="black" stroke-width="2" fill="none" />
<polyline points="92.0,212.5,100.0,211.5,108.0,211.0,116.0,210.5,124.0,210.0,132.0,209.0" stroke="black" stroke-width="2" fill="none" />
<polyline points="99.0,195.0,91.0,202.5,82.5,210.0" stroke="black" stroke-width="2" fill="none" />
<polyline points="83.0,209.5,91.0,209.0,99.0,209.0,107.5,208.5,115.0,207.5" stroke="black" stroke-width="2" fill="none" />
<polyline points="100.0,192.5,92.5,193.5" stroke="black" stroke-width="2" fill="none" />
<polyline points="95.5,192.0,109.5,204.0,121.5,216.0,115.5,228.0" stroke="black" stroke-width="2" fill="none" />
<polyline points="115.0,203.5,107.0,203.5,99.5,204.0,92.0,205.0,84.0,205.5" stroke="black" stroke-width="2" fill="none" />
<polyline points="83.0,204.5,94.5,217.0,106.5,229.0,118.5,222.5" stroke="black" stroke-width="2" fill="none" />
<polyline points="99.0,190.0,91.0,190.5" stroke="black" stroke-width="2" fill="none" />
<polyline points="91.0,188.0,79.5,200.0,84.0,212.0,96.5,224.0" stroke="black" stroke-width="2" fill="none" />
<polyline points="106.5,200.5,98.5,200.5,90.5,201.5,82.0,201.5" stroke="black" stroke-width="2" fill="none" />
<polyline points="81.5,201.0,89.0,193.5,97.0,186.0" stroke="black" stroke-width="2" fill="none" />
<polyline points="104.5,178.5,116.5,175.5,128.0,186.5,140.0,201.5,151.5,212.5" stroke="black" stroke-width="2" fill="none" />
<polyline points="105.0,196.5,97.0,197.0,89.0,197.5,81.0,198.5" stroke="black" stroke-width="2" fill="none" />
<polyline points="78.5,202.0,90.0,188.5,102.0,193.0,113.5,203.5,125.5,216.0" stroke="black" stroke-width="2" fill="none" />
<polyline points="158.0,211.0,144.5,199.0,134.5,186.5,124.0,174.5,119.0,162.0,129.5,150.0,142.5,138.0,132.0,133.0,120.0,143.5,107.5,152.0,96.0,140.0" stroke="black" stroke-width="2" fill="none" />
<polyline points="100.0,138.0,108.0,137.5,115.5,137.0,123.0,136.5,131.0,135.5" stroke="black" stroke-width="2" fill="none" />
<polyline points="140.0,121.5,132.0,129.0,124.0,137.0,116.5,144.5,109.0,153.0" stroke="black" stroke-width="2" fill="none" />
<polyline points="107.5,154.5,115.5,154.0" stroke="black" stroke-width="2" fill="none" />
<polyline points="115.0,150.0,107.0,151.0" stroke="black" stroke-width="2" fill="none" />
<polyline points="108.5,144.5,117.0,137.0,125.5,129.5,133.5,122.0,141.5,114.0" stroke="black" stroke-width="2" fill="none" />
<polyline points="132.5,114.0,124.5,121.5,116.5,129.5,108.5,137.0,100.0,145.0" stroke="black" stroke-width="2" fill="none" />
<polyline points="100.0,146.0,108.0,145.0,115.5,144.5,124.0,144.0" stroke="black" stroke-width="2" fill="none" />
<polyline points="125.0,158.0,133.5,157.5,142.0,157.5,150.0,156.5,158.5,155.5,166.0,154.5,174.5,153.5,182.0,153.0" stroke="black" stroke-width="2" fill="none" />
<polyline points="195.0,146.5,183.0,152.5,171.0,140.5,159.0,125.5" stroke="black" stroke-width="2" fill="none" />
<polyline points="155.5,121.5,168.0,109.5,180.0,114.0,192.5,126.0,204.5,137.5" stroke="black" stroke-width="2" fill="none" />
<polyline points="187.0,116.0,179.0,116.5,171.0,117.0,163.0,117.5" stroke="black" stroke-width="2" fill="none" />
<polyline points="141.0,119.5,129.0,107.5,117.0,113.0,105.0,124.5,93.0,135.0" stroke="black" stroke-width="2" fill="none" />
<polyline points="99.5,135.5,107.5,128.0,115.5,120.5,123.5,112.5,131.5,105.0" stroke="black" stroke-width="2" fill="none" />
<polyline points="131.0,110.5,123.5,111.0" stroke="black" stroke-width="2" fill="none" />
<polyline points="123.0,107.0,111.0,119.0,97.5,131.0,94.5,143.5,106.5,155.5" stroke="black" stroke-width="2" fill="none" />
<polyline points="97.0,153.0,89.0,161.0,81.0,169.0" stroke="black" stroke-width="2" fill="none" />
<polyline points="83.0,170.5,91.0,170.0,99.5,169.0" stroke="black" stroke-width="2" fill="none" />
<polyline points="97.5,162.5,89.5,170.0" stroke="black" stroke-width="2" fill="none" />
<polyline points="83.0,166.5,91.0,165.5,99.0,165.0" stroke="black" stroke-width="2" fill="none" />
<polyline points="90.5,153.5,82.5,154.0" stroke="black" stroke-width="2" fill="none" />
<polyline points="82.0,148.5,90.0,148.0" stroke="black" stroke-width="2" fill="none" />
<polyline points="90.5,146.5,82.5,154.5,75.5,161.5" stroke="black" stroke-width="2" fill="none" />
<polyline points="74.5,161.5,82.5,161.0,90.5,160.5,98.5,160.5" stroke="black" stroke-width="2" fill="none" />
<polyline points="89.5,153.0,81.0,160.5" stroke="black" stroke-width="2" fill="none" />
<polyline points="79.0,161.5,90.5,172.0" stroke="black" stroke-width="2" fill="none" />
<polyline points="100.5,157.5,93.0,158.0,85.5,159.0,77.5,159.0" stroke="black" stroke-width="2" fill="none" />
<polyline points="74.5,157.5,86.0,150.0,98.5,158.5" stroke="black" stroke-width="2" fill="none" />
<polyline points="97.0,164.0,88.0,152.0" stroke="black" stroke-width="2" fill="none" />
<polyline points="81.5,148.5,74.5,161.0,86.5,173.0" stroke="black" stroke-width="2" fill="none" />
<polyline points="111.5,173.5,111.0,185.5,119.5,197.0,133.0,209.0,143.5,220.5" stroke="black" stroke-width="2" fill="none" />
<polyline points="148.0,213.0,137.5,201.0,127.0,189.0,113.5,177.0" stroke="black" stroke-width="2" fill="none" />
<polyline points="101.0,142.0,109.0,142.0,117.0,141.5,125.0,140.5" stroke="black" stroke-width="2" fill="none" />
<polyline points="109.5,130.0,117.0,129.5,124.5,128.5,132.0,127.5,140.0,126.5" stroke="black" stroke-width="2" fill="none" />
<polyline points="132.5,114.5,124.5,115.5" stroke="black" stroke-width="2" fill="none" />
<polyline points="128.0,110.5,139.5,122.5,131.0,134.5,117.5,146.5,125.0,153.5,137.5,143.0,149.5,133.0,161.0,141.5,172.5,155.0,184.5,167.0" stroke="black" stroke-width="2" fill="none" />
<polyline points="174.0,197.0,186.0,185.0,186.5,173.5,174.5,161.5,163.0,149.5,152.5,137.5" stroke="black" stroke-width="2" fill="none" />
<polyline points="138.5,119.5,131.0,120.5,123.0,121.0,114.5,121.5" stroke="black" stroke-width="2" fill="none" />
<polyline points="116.5,117.0,124.5,116.0,132.5,115.5,140.0,115.5" stroke="black" stroke-width="2" fill="none" />
<polyline points="139.5,123.0,132.0,124.0,125.0,124.5,117.5,125.5,109.5,126.0" stroke="black" stroke-width="2" fill="none" />
<polyline points="100.0,133.0,108.0,132.5,116.0,132.0,123.5,131.5,131.0,130.5" stroke="black" stroke-width="2" fill="none" />
<polyline points="238.5,120.5,228.5,132.5,216.5,145.0,204.5,157.0,204.5,168.5,210.0,151.0,222.0,139.0,234.0,127.0,246.0,125.5" stroke="black" stroke-width="2" fill="none" />
<polyline points="261.5,118.5,262.0,119.0,271.0,131.0,292.5,131.0,304.5,119.0,317.0,111.5,329.5,120.5,327.0,129.0,316.5,141.0,303.5,152.5" stroke="black" stroke-width="2" fill="none" />
<polyline points="286.5,121.5,274.5,109.5,262.5,116.0" stroke="black" stroke-width="2" fill="none" />
<polyline points="273.5,112.0,284.0,124.0,273.5,133.0" stroke="black" stroke-width="2" fill="none" />
<polyline points="3.0,4.0,15.5,4.0,27.5,4.0,39.5,4.0,52.0,3.5,64.0,3.5,76.0,3.0,87.5,3.0,99.5,3.0,111.0,3.5,123.0,3.5,135.0,3.5,147.5,3.0,159.5,3.0,171.0,3.5,182.5,3.5,194.5,4.0,206.0,4.5,217.5,4.5,229.0,4.5,241.0,4.5,253.0,4.5,265.5,4.5,277.5,4.0,289.5,4.0,301.5,3.5,313.5,3.5,325.5,3.5,337.5,3.5,350.0,3.0,362.0,3.0,374.0,3.0,386.0,3.0,397.5,3.0,409.5,3.0,421.0,3.0,433.0,3.5,445.5,4.5,457.5,4.5,469.5,5.0,481.5,5.0,493.5,5.0,505.5,4.5,512.0,11.5,512.0,23.5,512.0,35.0,511.5,46.5,511.0,58.5,511.0,70.5,511.0,82.0,511.0,93.5,511.0,105.5,511.5,118.0,511.5,130.0,511.5,142.5,512.0,154.5,512.0,166.5,512.0,178.0,511.5,190.0,511.5,202.0,511.5,214.0,511.5,226.0,511.5,238.0,511.5,250.5,511.5,262.5,511.0,274.5,511.0,287.0,511.5,299.0,511.5,311.0,512.0,323.0,512.0,335.0" stroke="black" stroke-width="2" fill="none" />
</svg>