<svg xmlns="http://www.w3.org/2000/svg" version="1.1"><polyline points="15.5,3.0,16.5,11.0,16.0,19.0,3.0,28.5,10.5,25.5" stroke="black" stroke-width="2" fill="none" />
<polyline points="9.0,30.0,25.0,29.0,41.5,29.5,57.5,29.5,72.0,29.5,87.0,29.5,103.5,28.5,119.5,26.5,135.0,25.0,150.5,23.5,166.5,22.5,183.0,22.0,199.0,22.0,215.5,22.0,231.5,21.5,247.0,21.5,262.5,20.5,278.0,19.0,293.5,18.5,309.0,17.5,324.5,17.0,341.0,17.0,358.0,17.0,374.0,17.0" stroke="black" stroke-width="2" fill="none" />
<polyline points="377.5,21.5,360.5,37.0" stroke="black" stroke-width="2" fill="none" />
<polyline points="346.0,39.0,362.0,39.0,377.5,39.0,393.5,38.5,408.5,39.0,423.5,39.0,439.0,39.5,455.0,39.5,471.0,39.5,486.0,39.5,502.0,39.0,518.0,38.5" stroke="black" stroke-width="2" fill="none" />
<polyline points="519.0,40.0,503.0,56.0,487.5,72.5,473.0,88.0,458.0,103.5,441.0,120.0,424.5,135.0,408.0,150.0,391.5,165.0" stroke="black" stroke-width="2" fill="none" />
<polyline points="390.0,154.5,405.5,153.5,421.5,152.5,437.5,152.0,452.5,151.5,468.5,151.5,484.5,151.5,502.0,151.0,518.5,151.0" stroke="black" stroke-width="2" fill="none" />
<polyline points="522.0,152.0,506.5,168.0,490.5,183.5,474.5,198.5,458.0,214.0,441.5,230.0,425.5,244.0,408.5,259.0,391.0,274.5" stroke="black" stroke-width="2" fill="none" />
<polyline points="388.5,284.0,404.0,283.0,420.0,281.5,436.5,281.0,452.5,280.0,468.5,278.5,485.0,277.5,502.0,277.5,518.5,277.0" stroke="black" stroke-width="2" fill="none" />
<polyline points="517.0,276.5,500.5,292.0,485.0,308.5,469.5,324.5,454.5,339.5" stroke="black" stroke-width="2" fill="none" />
<polyline points="490.0,338.0,506.0,322.0,521.5,306.5" stroke="black" stroke-width="2" fill="none" />
<polyline points="522.0,294.5,505.5,310.0,488.5,325.0,472.5,340.0" stroke="black" stroke-width="2" fill="none" />
<polyline points="493.5,324.0,509.0,324.0,524.0,324.0" stroke="black" stroke-width="2" fill="none" />
<polyline points="519.0,324.5,503.5,339.5" stroke="black" stroke-width="2" fill="none" />
<polyline points="502.5,341.0,518.5,341.0" stroke="black" stroke-width="2" fill="none" />
<polyline points="518.5,305.5,502.0,305.5,486.0,306.0" stroke="black" stroke-width="2" fill="none" />
<polyline points="521.0,263.0,504.5,278.5,488.5,293.5,471.5,307.5,454.5,322.0,438.5,338.0" stroke="black" stroke-width="2" fill="none" />
<polyline points="424.0,336.5,440.5,320.5,457.5,305.5,474.5,290.0,490.0,274.0,505.0,259.0,521.0,243.5" stroke="black" stroke-width="2" fill="none" />
<polyline points="521.0,227.0,504.0,243.5,488.0,260.0,472.5,275.5,457.5,291.0,442.0,306.5,425.0,322.5,407.5,339.0" stroke="black" stroke-width="2" fill="none" />
<polyline points="390.5,335.0,406.5,319.5,423.0,304.0,440.0,287.5,456.0,272.5,472.5,256.5,489.0,240.5,506.5,225.5,523.0,210.0" stroke="black" stroke-width="2" fill="none" />
<polyline points="521.0,195.5,505.0,212.5,488.5,229.0,472.0,245.0,456.0,260.5,439.0,275.5,422.5,292.0" stroke="black" stroke-width="2" fill="none" />
<polyline points="406.5,291.0,423.5,275.0,440.0,260.0,456.0,243.0,472.0,227.0,488.5,211.0,505.5,195.5,522.0,179.5" stroke="black" stroke-width="2" fill="none" />
<polyline points="524.0,165.5,508.0,180.5,491.0,196.0,474.5,212.0,457.5,227.5,441.0,243.0,425.0,258.5,409.0,274.5" stroke="black" stroke-width="2" fill="none" />
<polyline points="407.0,257.0,423.0,256.5" stroke="black" stroke-width="2" fill="none" />
<polyline points="421.0,242.0,405.0,242.5" stroke="black" stroke-width="2" fill="none" />
<polyline points="405.0,238.5,421.0,237.5,438.0,236.5,454.5,235.5,470.5,234.5,486.5,234.0,502.0,233.0,517.5,232.0" stroke="black" stroke-width="2" fill="none" />
<polyline points="516.5,211.0,500.0,211.5,484.5,212.0" stroke="black" stroke-width="2" fill="none" />
<polyline points="473.0,223.0,488.5,223.5,504.0,224.0,519.5,224.5" stroke="black" stroke-width="2" fill="none" />
<polyline points="521.0,193.5,505.0,193.5,489.0,194.5" stroke="black" stroke-width="2" fill="none" />
<polyline points="497.5,179.5,514.5,179.0" stroke="black" stroke-width="2" fill="none" />
<polyline points="518.0,164.5,501.5,164.5" stroke="black" stroke-width="2" fill="none" />
<polyline points="520.0,134.5,504.0,150.0,488.5,166.0,473.0,181.5,457.0,196.5,441.5,212.0,424.0,227.5,407.0,244.0,390.0,260.5" stroke="black" stroke-width="2" fill="none" />
<polyline points="388.5,246.0,372.5,261.5" stroke="black" stroke-width="2" fill="none" />
<polyline points="376.5,258.5,361.0,259.5" stroke="black" stroke-width="2" fill="none" />
<polyline points="360.5,258.5,377.0,242.5" stroke="black" stroke-width="2" fill="none" />
<polyline points="360.0,248.5,344.5,264.5" stroke="black" stroke-width="2" fill="none" />
<polyline points="338.0,269.5,340.0,274.5,337.0,282.5" stroke="black" stroke-width="2" fill="none" />
<polyline points="322.5,284.0,324.5,275.5,325.5,267.5,330.5,266.5" stroke="black" stroke-width="2" fill="none" />
<polyline points="333.5,266.5,332.5,274.5,330.5,282.5" stroke="black" stroke-width="2" fill="none" />
<polyline points="325.0,295.5,309.0,295.5" stroke="black" stroke-width="2" fill="none" />
<polyline points="304.5,305.0,312.5,306.0,320.5,311.0,321.5,308.0,325.5,310.0" stroke="black" stroke-width="2" fill="none" />
<polyline points="338.0,300.5,354.5,299.5,371.5,297.5,388.5,296.5,405.0,296.0,421.5,296.0,438.0,295.5,455.0,295.0,471.0,295.0,487.5,294.5,503.5,293.5,520.0,292.5" stroke="black" stroke-width="2" fill="none" />
<polyline points="519.0,238.5,504.5,239.0,489.5,240.0,475.0,240.5" stroke="black" stroke-width="2" fill="none" />
<polyline points="453.0,257.5,469.0,256.5,485.0,257.0,501.5,256.0,518.0,255.5" stroke="black" stroke-width="2" fill="none" />
<polyline points="406.0,229.0,424.5,214.0,441.5,197.5,458.0,181.0,474.5,164.5,490.5,148.0,506.0,132.0,521.5,116.5" stroke="black" stroke-width="2" fill="none" />
<polyline points="517.0,102.5,502.0,118.0,487.5,133.0,472.5,149.5,456.0,166.5,439.5,182.5,423.5,197.5,408.0,212.0" stroke="black" stroke-width="2" fill="none" />
<polyline points="407.0,218.0,422.5,217.5,438.0,217.0,453.5,216.5,469.5,215.5,486.0,214.0,502.0,214.5,517.0,214.5" stroke="black" stroke-width="2" fill="none" />
<polyline points="521.5,143.5,505.0,143.5,488.5,143.5,472.0,143.5" stroke="black" stroke-width="2" fill="none" />
<polyline points="471.0,128.0,487.5,128.5,503.0,128.0,519.5,128.0" stroke="black" stroke-width="2" fill="none" />
<polyline points="516.0,88.5,500.5,102.5,486.0,118.0,470.5,133.0,454.5,147.5,438.0,162.0,422.0,177.5,407.0,192.0,391.5,207.5" stroke="black" stroke-width="2" fill="none" />
<polyline points="391.5,211.5,407.5,210.0,423.0,209.0,438.5,208.5,454.0,208.0" stroke="black" stroke-width="2" fill="none" />
<polyline points="450.5,159.5,466.5,159.5,483.0,159.5" stroke="black" stroke-width="2" fill="none" />
<polyline points="439.5,132.0,455.5,118.0,471.0,103.0,486.5,88.5,501.5,73.5,518.0,59.0" stroke="black" stroke-width="2" fill="none" />
<polyline points="516.0,73.0,500.0,87.5,484.0,101.5,468.5,117.0,453.5,133.0,438.5,148.0,423.0,162.5,407.0,177.0,391.0,192.0" stroke="black" stroke-width="2" fill="none" />
<polyline points="392.0,202.5,407.5,202.5,422.5,202.0,438.5,202.0,455.5,202.0,472.5,202.0,488.5,201.0,504.5,201.0,520.5,201.0" stroke="black" stroke-width="2" fill="none" />
<polyline points="519.5,112.0,503.5,113.0,487.0,113.5,470.5,113.0,454.0,113.5" stroke="black" stroke-width="2" fill="none" />
<polyline points="459.5,101.0,475.5,100.0,491.0,99.5,506.0,99.0,521.0,98.0" stroke="black" stroke-width="2" fill="none" />
<polyline points="520.0,47.0,504.0,48.0,488.0,49.5,471.5,50.5" stroke="black" stroke-width="2" fill="none" />
<polyline points="452.5,72.0,468.0,70.5,483.0,69.0,498.5,68.0,514.5,67.5" stroke="black" stroke-width="2" fill="none" />
<polyline points="520.5,22.5,504.0,38.5,487.5,53.5,471.0,69.0,454.5,85.5,438.5,101.5" stroke="black" stroke-width="2" fill="none" />
<polyline points="441.5,87.0,457.5,70.0,474.0,54.0,490.0,38.5,506.5,23.5,522.5,8.0" stroke="black" stroke-width="2" fill="none" />
<polyline points="503.5,8.0,488.0,23.5,471.0,38.5,455.0,53.0,439.5,67.0" stroke="black" stroke-width="2" fill="none" />
<polyline points="437.0,54.5,452.5,39.0,469.5,23.5,486.0,8.0" stroke="black" stroke-width="2" fill="none" />
<polyline points="467.0,9.0,451.0,24.5,435.5,40.0,420.5,54.5" stroke="black" stroke-width="2" fill="none" />
<polyline points="405.5,54.5,390.0,69.5" stroke="black" stroke-width="2" fill="none" />
<polyline points="389.5,51.5,405.0,36.5,421.0,21.0,437.5,5.0" stroke="black" stroke-width="2" fill="none" />
<polyline points="451.0,8.5,435.5,23.5,420.0,39.5" stroke="black" stroke-width="2" fill="none" />
<polyline points="440.0,33.5,456.0,33.5,472.0,33.0,488.5,33.0,505.5,32.5,521.0,32.0" stroke="black" stroke-width="2" fill="none" />
<polyline points="519.5,83.0,504.0,82.5,487.5,82.5,470.0,83.5,454.0,84.0" stroke="black" stroke-width="2" fill="none" />
<polyline points="425.5,86.5,409.0,101.0,392.5,116.0" stroke="black" stroke-width="2" fill="none" />
<polyline points="392.5,122.0,409.0,122.0,425.0,120.5,441.0,119.5,457.0,119.0,473.0,118.5,488.5,118.5,503.5,118.5,519.0,119.5" stroke="black" stroke-width="2" fill="none" />
<polyline points="419.0,118.5,404.0,133.5,388.5,149.5" stroke="black" stroke-width="2" fill="none" />
<polyline points="387.5,152.5,395.5,155.5" stroke="black" stroke-width="2" fill="none" />
<polyline points="407.5,160.0,423.5,160.0" stroke="black" stroke-width="2" fill="none" />
<polyline points="422.0,151.0,407.0,166.5,391.5,181.0,376.0,196.0" stroke="black" stroke-width="2" fill="none" />
<polyline points="376.0,181.5,360.5,196.5" stroke="black" stroke-width="2" fill="none" />
<polyline points="355.5,207.0,363.5,206.0,371.0,207.0" stroke="black" stroke-width="2" fill="none" />
<polyline points="389.0,216.5,381.0,220.5,373.0,221.5,364.5,225.0,356.5,229.5,348.5,231.5,340.5,231.5,332.5,233.5" stroke="black" stroke-width="2" fill="none" />
<polyline points="341.5,252.5,357.0,251.5,372.5,251.0,388.0,250.0,403.5,249.5,419.5,249.0,436.5,248.0,453.0,247.5,469.5,247.0,485.5,245.5,501.0,244.5,517.0,243.5" stroke="black" stroke-width="2" fill="none" />
<polyline points="390.0,293.5,373.5,308.5" stroke="black" stroke-width="2" fill="none" />
<polyline points="375.0,325.5,391.5,309.5" stroke="black" stroke-width="2" fill="none" />
<polyline points="376.5,325.5,393.0,325.5,409.5,326.0,425.5,327.0,441.0,327.0,456.5,327.0,472.0,327.0,486.5,327.0,501.5,327.0,516.5,327.0" stroke="black" stroke-width="2" fill="none" />
<polyline points="521.0,258.0,504.5,259.5,488.0,260.5,472.5,261.0,456.5,262.0,440.5,263.0,424.0,264.5,408.0,266.0,392.5,267.5,378.0,268.5,362.0,268.5" stroke="black" stroke-width="2" fill="none" />
<polyline points="361.5,270.0,353.5,270.0" stroke="black" stroke-width="2" fill="none" />
<polyline points="333.0,263.0,323.0,267.0,323.0,275.0,324.0,282.5,330.5,275.5,327.5,283.5" stroke="black" stroke-width="2" fill="none" />
<polyline points="316.0,281.5,318.0,273.5" stroke="black" stroke-width="2" fill="none" />
<polyline points="319.0,264.0,320.0,272.0,315.0,280.0,315.0,287.0,322.5,288.0,330.0,288.0,335.0,288.0,342.5,289.0,350.5,289.0,358.5,289.0,366.5,289.5,374.5,289.5,382.0,289.5,390.0,289.0" stroke="black" stroke-width="2" fill="none" />
<polyline points="359.5,325.5,343.0,325.5,326.5,325.5,309.5,326.0,293.5,326.0,276.5,326.0,259.5,326.0,242.5,326.5,226.5,327.5,211.0,328.5" stroke="black" stroke-width="2" fill="none" />
<polyline points="202.0,327.5,186.0,327.5" stroke="black" stroke-width="2" fill="none" />
<polyline points="195.5,332.0,199.5,334.0" stroke="black" stroke-width="2" fill="none" />
<polyline points="197.5,332.5,198.0,340.5" stroke="black" stroke-width="2" fill="none" />
<polyline points="201.5,315.0,217.0,314.0,233.0,313.5,248.5,313.5" stroke="black" stroke-width="2" fill="none" />
<polyline points="260.5,315.0,277.0,315.0,294.0,315.0,310.0,315.0,326.0,314.5,342.5,314.5,358.5,314.0,375.0,314.5,391.0,314.5,405.5,314.0,421.0,313.5,437.0,312.5,454.0,311.5,470.5,310.5,486.5,309.5,502.5,309.0,518.0,308.0" stroke="black" stroke-width="2" fill="none" />
<polyline points="514.0,135.0,499.0,135.5,484.0,137.0,468.5,138.0,452.5,138.0,436.5,137.0,420.5,137.0,405.5,137.5,390.0,137.5" stroke="black" stroke-width="2" fill="none" />
<polyline points="389.5,134.0,404.5,118.0,420.0,101.5" stroke="black" stroke-width="2" fill="none" />
<polyline points="422.5,115.0,405.5,115.5" stroke="black" stroke-width="2" fill="none" />
<polyline points="409.5,128.5,425.0,129.0" stroke="black" stroke-width="2" fill="none" />
<polyline points="426.5,143.5,411.0,143.5" stroke="black" stroke-width="2" fill="none" />
<polyline points="389.5,143.0,389.5,151.0,395.5,158.5" stroke="black" stroke-width="2" fill="none" />
<polyline points="362.0,166.5,346.0,181.5" stroke="black" stroke-width="2" fill="none" />
<polyline points="342.0,187.5,357.5,187.0,374.5,185.5,391.0,184.0,407.5,184.0,425.0,183.5,440.5,182.5,456.0,181.5,471.5,181.5,486.5,181.0,502.0,180.5,518.5,180.0" stroke="black" stroke-width="2" fill="none" />
<polyline points="421.0,70.0,405.0,85.0,389.0,100.5" stroke="black" stroke-width="2" fill="none" />
<polyline points="377.0,103.0,392.5,103.0,409.0,104.0,425.0,104.0,440.0,103.0,456.0,103.0,471.5,102.5,487.0,102.0,503.5,101.5,520.5,101.0" stroke="black" stroke-width="2" fill="none" />
<polyline points="455.0,49.5,440.0,50.0" stroke="black" stroke-width="2" fill="none" />
<polyline points="413.0,67.5,418.0,77.5" stroke="black" stroke-width="2" fill="none" />
<polyline points="413.0,68.0,419.0,76.0,420.5,84.0,421.5,92.0,424.0,100.0,424.0,107.5,425.0,115.5,425.0,123.0,424.0,130.5" stroke="black" stroke-width="2" fill="none" />
<polyline points="379.0,93.0,395.0,92.5,411.5,92.0,427.0,91.5,442.0,90.5,457.5,89.5,474.0,88.0,490.5,86.5,507.0,85.5,523.0,84.0" stroke="black" stroke-width="2" fill="none" />
<polyline points="516.0,14.0,500.0,14.0,484.5,13.5,469.0,13.0,454.0,13.5,439.0,15.0,423.5,15.5" stroke="black" stroke-width="2" fill="none" />
<polyline points="420.5,1.5,404.5,18.0,389.0,33.5,373.0,49.0" stroke="black" stroke-width="2" fill="none" />
<polyline points="383.0,50.0,390.5,60.0,398.5,69.0" stroke="black" stroke-width="2" fill="none" />
<polyline points="396.0,67.0,387.5,59.0,383.5,51.0" stroke="black" stroke-width="2" fill="none" />
<polyline points="376.5,37.5,360.0,53.0" stroke="black" stroke-width="2" fill="none" />
<polyline points="344.0,54.5,360.0,54.0,376.5,53.5,393.0,54.0,410.0,54.5,427.0,55.0,442.5,56.0,458.0,56.0,474.0,56.5,491.0,56.5,507.5,56.0,523.5,55.0" stroke="black" stroke-width="2" fill="none" />
<polyline points="408.0,8.5,392.5,24.0" stroke="black" stroke-width="2" fill="none" />
<polyline points="393.5,23.5,409.5,23.5,425.0,24.0,441.5,24.5,458.0,24.5,474.0,24.5,490.5,25.0,507.0,25.0,524.0,25.0" stroke="black" stroke-width="2" fill="none" />
<polyline points="518.5,4.5,503.5,5.0,489.0,6.0,473.5,6.0,457.5,6.0,441.5,6.0,425.5,6.5,409.5,6.5,394.0,7.5" stroke="black" stroke-width="2" fill="none" />
<polyline points="382.5,8.0,383.5,16.0,383.5,24.0,385.5,32.0,380.5,34.5" stroke="black" stroke-width="2" fill="none" />
<polyline points="377.0,9.5,361.0,25.0,345.0,40.0" stroke="black" stroke-width="2" fill="none" />
<polyline points="345.5,22.0,360.5,7.0" stroke="black" stroke-width="2" fill="none" />
<polyline points="369.0,11.0,370.5,19.0,374.5,27.0,376.5,35.5" stroke="black" stroke-width="2" fill="none" />
<polyline points="376.5,17.0,371.5,18.5,372.0,11.0,371.0,3.0" stroke="black" stroke-width="2" fill="none" />
<polyline points="297.5,5.0,282.0,21.0" stroke="black" stroke-width="2" fill="none" />
<polyline points="280.0,10.0,263.5,25.5,247.0,40.5,231.0,55.5,214.5,70.5" stroke="black" stroke-width="2" fill="none" />
<polyline points="227.5,73.0,244.0,58.0,261.0,41.5" stroke="black" stroke-width="2" fill="none" />
<polyline points="279.5,39.0,263.5,54.0,247.5,69.5" stroke="black" stroke-width="2" fill="none" />
<polyline points="246.5,73.5,262.5,73.0,279.0,73.5,295.0,74.0,310.0,73.5,325.5,73.5" stroke="black" stroke-width="2" fill="none" />
<polyline points="314.5,86.0,299.0,101.5,283.5,116.5,267.5,132.0" stroke="black" stroke-width="2" fill="none" />
<polyline points="267.0,137.0,266.0,144.5,267.0,135.5,271.0,145.5,279.0,149.0,287.0,155.0,295.0,159.5,303.0,167.5,311.5,173.0,319.5,180.0,327.5,185.5,335.0,188.0,343.0,190.0,351.0,191.0,358.5,192.5,366.5,195.5,374.5,201.0,382.5,207.0,391.0,212.5" stroke="black" stroke-width="2" fill="none" />
<polyline points="378.5,242.0,386.5,233.0,397.0,227.0,389.0,234.0,387.0,238.0,378.5,242.0,368.5,245.0,383.5,244.0,395.0,236.5,399.0,228.5,398.5,220.5,390.0,218.5,382.0,222.5,374.0,225.5,366.5,226.0,359.5,222.0,351.5,215.5,348.5,221.5,340.5,228.0,332.5,229.0,324.0,232.5,320.0,230.5,312.0,234.0,303.0,234.0,297.5,230.0,300.5,222.5,309.5,223.5,316.5,215.5,317.5,203.5,322.5,195.0,323.5,185.0,314.5,176.5,304.5,168.5,295.0,161.0,283.5,153.5,269.5,153.0,261.5,158.0" stroke="black" stroke-width="2" fill="none" />
<polyline points="263.5,149.0,280.0,134.0,296.5,119.0,312.5,103.5" stroke="black" stroke-width="2" fill="none" />
<polyline points="311.0,122.0,295.0,138.0,278.5,153.5" stroke="black" stroke-width="2" fill="none" />
<polyline points="292.5,155.0,308.0,154.5,323.5,153.5,340.0,152.5" stroke="black" stroke-width="2" fill="none" />
<polyline points="327.0,166.5,310.5,182.0" stroke="black" stroke-width="2" fill="none" />
<polyline points="307.0,172.0,323.0,171.5,339.5,171.0,355.5,170.0,372.5,168.0,389.5,166.0,406.0,165.5,422.5,165.5,439.0,165.0,455.5,165.0,472.0,164.5,488.0,164.5,504.0,164.0,520.5,164.0" stroke="black" stroke-width="2" fill="none" />
<polyline points="358.0,185.0,341.5,201.0" stroke="black" stroke-width="2" fill="none" />
<polyline points="341.0,197.5,357.5,196.5,372.5,195.0,388.0,193.5,404.0,192.5,420.0,191.5,435.5,190.0,451.5,189.0" stroke="black" stroke-width="2" fill="none" />
<polyline points="377.0,221.0,388.5,220.0,390.0,211.5,380.0,203.5,366.0,196.0,349.5,195.0,342.0,192.5,334.0,192.5,327.5,199.5,319.0,213.5,311.0,221.5,302.0,221.5,300.0,227.5,291.5,231.0,283.5,227.5,276.5,229.5,272.5,230.5,263.5,228.5,258.5,224.5,250.5,221.5,261.0,218.5,249.0,210.5,240.0,204.0,238.5,198.5,245.0,190.5,255.0,186.0,251.0,182.5,262.0,177.5,269.0,173.5,262.0,175.0,267.5,167.0,259.5,164.0,265.0,157.0,266.0,149.0,258.0,146.0,260.5,138.0,263.5,136.5,262.5,127.5,261.5,118.0,250.5,125.0,247.5,125.5,239.0,117.5,227.0,113.5,217.0,108.5,218.5,102.0,222.5,94.0,230.0,92.5,225.5,89.5" stroke="black" stroke-width="2" fill="none" />
<polyline points="223.0,92.5,231.0,85.5,238.0,85.5" stroke="black" stroke-width="2" fill="none" />
<polyline points="232.5,82.5,243.5,79.5,246.5,87.5,249.0,91.5,245.5,99.5,239.0,103.5,242.0,103.5,245.5,104.5,243.0,112.0,244.0,116.0,256.5,124.5,250.0,127.5,251.0,135.5,243.0,141.5,251.0,146.5,259.0,147.5,267.5,150.5,277.0,148.5,275.0,156.5,267.0,159.5,262.0,170.5,256.0,178.5,256.5,178.5,260.5,162.5,268.5,162.5" stroke="black" stroke-width="2" fill="none" />
<polyline points="267.0,169.5,283.0,168.5" stroke="black" stroke-width="2" fill="none" />
<polyline points="277.0,185.0,292.5,184.0" stroke="black" stroke-width="2" fill="none" />
<polyline points="283.0,203.5,291.0,205.5,299.5,208.5" stroke="black" stroke-width="2" fill="none" />
<polyline points="308.0,203.0,324.0,203.0" stroke="black" stroke-width="2" fill="none" />
<polyline points="329.0,200.5,328.0,208.5" stroke="black" stroke-width="2" fill="none" />
<polyline points="325.0,218.0,308.0,218.0,291.0,219.0" stroke="black" stroke-width="2" fill="none" />
<polyline points="295.0,219.5,287.0,215.5,279.0,209.5,271.0,204.0,263.0,197.5" stroke="black" stroke-width="2" fill="none" />
<polyline points="272.0,202.0,280.0,202.0,288.5,203.0,297.0,204.5,304.5,206.0,312.5,207.5,320.5,200.5,328.5,193.0,323.5,201.0,317.5,209.0" stroke="black" stroke-width="2" fill="none" />
<polyline points="304.5,218.0,297.5,215.0,294.0,207.5,281.0,202.5,273.5,202.5,266.5,197.5,256.5,190.5,249.5,189.5,241.5,190.5" stroke="black" stroke-width="2" fill="none" />
<polyline points="250.0,193.0,264.0,201.0,279.0,204.5,287.0,211.0,301.0,215.5,305.0,209.5,312.5,215.5,319.5,206.5,333.0,197.0,341.0,198.0,349.0,199.0,357.0,199.0,365.0,201.0,373.0,205.5" stroke="black" stroke-width="2" fill="none" />
<polyline points="352.5,221.0,342.5,229.0" stroke="black" stroke-width="2" fill="none" />
<polyline points="333.0,220.0,325.5,220.5,318.5,220.0,323.5,210.0,325.0,204.0,328.0,195.5" stroke="black" stroke-width="2" fill="none" />
<polyline points="312.0,151.5,327.5,136.0" stroke="black" stroke-width="2" fill="none" />
<polyline points="310.5,134.5,294.5,151.0" stroke="black" stroke-width="2" fill="none" />
<polyline points="262.0,135.0,278.5,135.0,295.0,135.0,312.0,135.0,328.5,135.5,345.0,136.0" stroke="black" stroke-width="2" fill="none" />
<polyline points="358.0,78.0,375.0,76.0,391.5,74.5,407.5,73.5,424.0,72.5,440.0,71.0,456.5,70.5,472.5,69.5,488.0,68.5,503.0,68.0,519.0,67.0" stroke="black" stroke-width="2" fill="none" />
<polyline points="299.0,72.5,283.5,88.0,267.0,103.0" stroke="black" stroke-width="2" fill="none" />
<polyline points="262.0,105.0,278.5,104.5,293.5,103.5,310.0,103.5,327.0,103.5" stroke="black" stroke-width="2" fill="none" />
<polyline points="298.0,88.0,282.5,104.5,266.0,120.0,249.0,135.0" stroke="black" stroke-width="2" fill="none" />
<polyline points="249.0,124.0,265.0,123.5,280.5,122.5,296.0,122.0,311.5,121.5,327.0,122.0,343.0,121.5" stroke="black" stroke-width="2" fill="none" />
<polyline points="280.0,70.0,264.0,86.0" stroke="black" stroke-width="2" fill="none" />
<polyline points="248.0,84.0,264.0,69.0,280.5,54.0" stroke="black" stroke-width="2" fill="none" />
<polyline points="263.0,7.5,247.0,23.5,232.0,38.5,216.5,53.5,201.0,69.0,185.0,84.5" stroke="black" stroke-width="2" fill="none" />
<polyline points="190.5,82.5,204.5,83.5,198.0,92.0,203.0,86.0,205.5,80.5,213.5,80.5,226.5,80.5,229.0,73.0,232.5,78.0,237.0,75.0,245.0,80.5,253.0,79.5,261.0,79.5" stroke="black" stroke-width="2" fill="none" />
<polyline points="252.0,97.5,249.0,99.5,246.5,105.0,245.5,97.0,237.5,97.0" stroke="black" stroke-width="2" fill="none" />
<polyline points="231.0,105.5,215.5,106.0,200.0,106.0" stroke="black" stroke-width="2" fill="none" />
<polyline points="195.5,105.5,198.5,94.5,201.5,89.5,209.5,85.0" stroke="black" stroke-width="2" fill="none" />
<polyline points="212.5,92.0,229.0,91.5,246.0,91.0,262.5,89.0,279.5,87.5,296.0,86.5,312.0,85.5,327.5,84.0" stroke="black" stroke-width="2" fill="none" />
<polyline points="277.0,127.5,261.0,128.0" stroke="black" stroke-width="2" fill="none" />
<polyline points="255.5,151.0,247.5,152.0" stroke="black" stroke-width="2" fill="none" />
<polyline points="228.5,153.5,212.5,153.5" stroke="black" stroke-width="2" fill="none" />
<polyline points="213.0,152.5,209.5,144.5,210.5,136.5,207.0,128.5,207.0,121.0,196.0,113.0,197.5,104.5,203.5,96.5,200.0,96.0,191.5,98.0" stroke="black" stroke-width="2" fill="none" />
<polyline points="195.5,111.5,202.5,108.0,202.5,115.5,202.5,112.5,210.5,112.5,218.5,115.5,225.5,105.5,231.0,108.5,239.0,115.0,246.5,118.5,251.5,115.5,256.5,112.5" stroke="black" stroke-width="2" fill="none" />
<polyline points="235.0,117.5,227.0,113.5" stroke="black" stroke-width="2" fill="none" />
<polyline points="226.0,116.0,237.0,124.5,236.0,133.5,237.0,142.0,233.5,144.0,236.0,140.0,244.0,133.5,257.0,133.5" stroke="black" stroke-width="2" fill="none" />
<polyline points="229.5,137.0,214.0,137.0" stroke="black" stroke-width="2" fill="none" />
<polyline points="215.5,137.0,220.0,145.0,230.0,148.5,235.0,137.5" stroke="black" stroke-width="2" fill="none" />
<polyline points="231.0,133.0,223.0,128.0" stroke="black" stroke-width="2" fill="none" />
<polyline points="227.5,123.5,210.5,124.0" stroke="black" stroke-width="2" fill="none" />
<polyline points="201.0,126.0,185.0,126.0" stroke="black" stroke-width="2" fill="none" />
<polyline points="185.0,118.5,193.0,121.5" stroke="black" stroke-width="2" fill="none" />
<polyline points="186.5,124.5,174.5,131.5,166.5,133.5" stroke="black" stroke-width="2" fill="none" />
<polyline points="150.0,136.5,134.0,152.0" stroke="black" stroke-width="2" fill="none" />
<polyline points="136.5,167.0,121.0,182.0,105.0,197.0,89.0,212.5,72.5,228.5,57.0,244.5,40.5,259.0,23.5,274.0,7.0,289.5" stroke="black" stroke-width="2" fill="none" />
<polyline points="8.0,280.5,24.0,280.0,39.5,279.0,56.0,277.5,72.0,276.0,87.0,275.5,102.5,275.5,117.5,276.0,132.0,276.5" stroke="black" stroke-width="2" fill="none" />
<polyline points="135.0,279.0,119.0,294.5" stroke="black" stroke-width="2" fill="none" />
<polyline points="122.0,307.5,105.5,323.5,88.5,339.0" stroke="black" stroke-width="2" fill="none" />
<polyline points="119.5,340.5,136.0,325.0" stroke="black" stroke-width="2" fill="none" />
<polyline points="102.0,309.0,86.0,325.5,69.5,342.0" stroke="black" stroke-width="2" fill="none" />
<polyline points="56.5,312.0,41.0,327.5,24.0,343.0" stroke="black" stroke-width="2" fill="none" />
<polyline points="8.5,342.0,24.5,326.0,40.0,309.5,56.5,293.0,72.5,277.0,88.0,262.0" stroke="black" stroke-width="2" fill="none" />
<polyline points="99.0,264.0,83.5,279.0,68.5,293.5" stroke="black" stroke-width="2" fill="none" />
<polyline points="89.0,291.0,104.0,275.5,120.0,260.0" stroke="black" stroke-width="2" fill="none" />
<polyline points="124.5,268.0,132.0,259.0,133.0,252.0,144.0,255.5,152.5,253.5,160.5,258.0,168.5,254.0,171.0,251.0,179.0,251.5,188.0,251.5,196.0,251.5,204.0,252.5,212.0,253.5,219.5,253.5,227.5,252.5,235.5,253.0,243.5,254.0,251.5,254.0,260.0,255.0,268.0,255.5,277.0,256.5,285.0,256.5,293.0,256.0,301.5,256.0,309.5,256.5,318.0,256.5,325.5,256.5,334.0,255.5,342.0,254.5,349.5,252.0,357.0,252.0,365.0,251.0,373.0,248.0,381.0,246.0,388.5,243.0,396.5,234.0" stroke="black" stroke-width="2" fill="none" />
<polyline points="393.5,284.5,397.0,276.5,397.0,271.5,389.0,267.5,381.0,267.5,373.0,266.0,365.0,267.0,357.0,267.0,349.5,272.0,346.5,267.0,338.5,266.0,333.5,264.5,322.5,267.5,317.5,283.0,307.5,286.0,308.0,284.0,311.0,276.5,313.0,268.5,306.5,269.5,299.0,268.5,288.5,263.0,282.5,271.0,285.5,263.0,274.5,268.0" stroke="black" stroke-width="2" fill="none" />
<polyline points="274.5,271.0,276.5,263.0,278.5,263.0" stroke="black" stroke-width="2" fill="none" />
<polyline points="272.5,263.0,272.0,271.0,272.0,283.5" stroke="black" stroke-width="2" fill="none" />
<polyline points="259.0,270.0,263.5,265.5,256.5,265.5" stroke="black" stroke-width="2" fill="none" />
<polyline points="251.5,266.0,256.5,264.0,256.5,272.0,255.5,279.5" stroke="black" stroke-width="2" fill="none" />
<polyline points="245.5,273.0,244.5,265.0,245.5,261.0" stroke="black" stroke-width="2" fill="none" />
<polyline points="248.0,261.5,248.0,269.5,248.0,277.5,247.0,285.5" stroke="black" stroke-width="2" fill="none" />
<polyline points="249.5,284.0,250.0,275.5,251.0,267.5" stroke="black" stroke-width="2" fill="none" />
<polyline points="262.0,262.5,270.0,264.5,270.5,262.5,268.0,270.5,271.5,278.5,263.0,280.5,259.0,288.5,276.0,286.5,284.0,286.0,292.0,286.0,296.0,287.0,303.0,284.0" stroke="black" stroke-width="2" fill="none" />
<polyline points="305.5,280.0,308.0,272.0" stroke="black" stroke-width="2" fill="none" />
<polyline points="302.5,265.0,302.5,272.5,300.5,280.5" stroke="black" stroke-width="2" fill="none" />
<polyline points="299.0,281.5,294.0,281.0,295.5,273.0,295.5,265.0" stroke="black" stroke-width="2" fill="none" />
<polyline points="293.5,262.0,290.5,270.0" stroke="black" stroke-width="2" fill="none" />
<polyline points="287.5,270.5,286.5,262.5" stroke="black" stroke-width="2" fill="none" />
<polyline points="287.0,295.5,270.0,303.5,250.0,312.0,238.0,320.0,242.5,322.0,250.5,322.5,258.5,319.5" stroke="black" stroke-width="2" fill="none" />
<polyline points="236.5,317.5,245.0,313.5,253.0,311.0,261.0,308.0,269.0,305.0,277.0,301.0,285.0,297.5,293.0,295.5,301.5,299.5,316.5,308.0" stroke="black" stroke-width="2" fill="none" />
<polyline points="293.0,295.5,279.0,296.0,263.5,296.5,248.5,296.5,233.5,297.0,218.0,297.5,201.5,299.0,185.5,299.5" stroke="black" stroke-width="2" fill="none" />
<polyline points="190.5,301.5,196.5,309.5,198.5,317.0,200.5,322.0,203.0,330.0,206.0,338.5" stroke="black" stroke-width="2" fill="none" />
<polyline points="206.5,291.5,205.0,283.5,205.0,275.0,204.0,267.0,207.0,263.0,199.5,259.0" stroke="black" stroke-width="2" fill="none" />
<polyline points="199.0,260.0,201.0,268.0,199.5,276.0,202.5,284.0" stroke="black" stroke-width="2" fill="none" />
<polyline points="211.5,278.5,211.0,271.0,212.0,263.0,210.0,262.0,211.0,261.0" stroke="black" stroke-width="2" fill="none" />
<polyline points="219.0,261.5,220.0,270.0,217.5,276.0,220.5,279.0" stroke="black" stroke-width="2" fill="none" />
<polyline points="229.0,273.0,227.5,265.5,227.5,262.5" stroke="black" stroke-width="2" fill="none" />
<polyline points="231.0,261.5,232.0,269.5,231.5,277.0,230.5,285.0" stroke="black" stroke-width="2" fill="none" />
<polyline points="214.0,285.0,213.0,277.0,213.0,269.0" stroke="black" stroke-width="2" fill="none" />
<polyline points="221.0,262.0,222.0,270.0,222.5,278.0,223.0,285.5" stroke="black" stroke-width="2" fill="none" />
<polyline points="238.0,285.5,239.5,277.5,239.5,270.0,239.0,262.0" stroke="black" stroke-width="2" fill="none" />
<polyline points="237.0,261.0,236.0,269.0,237.0,277.5,234.0,285.5" stroke="black" stroke-width="2" fill="none" />
<polyline points="245.5,251.5,228.0,251.5,212.0,252.0" stroke="black" stroke-width="2" fill="none" />
<polyline points="199.5,248.0,183.0,264.0" stroke="black" stroke-width="2" fill="none" />
<polyline points="181.0,264.5,178.0,275.5,179.5,267.5" stroke="black" stroke-width="2" fill="none" />
<polyline points="186.5,266.0,184.5,267.0,185.5,275.0,185.5,283.0,186.5,291.0,190.5,299.0,190.5,308.5,195.0,316.5,198.0,325.0,197.0,332.5,196.0,340.5" stroke="black" stroke-width="2" fill="none" />
<polyline points="185.0,310.5,174.5,303.5,166.5,302.5" stroke="black" stroke-width="2" fill="none" />
<polyline points="166.5,296.5,174.5,298.5,182.5,298.5,190.5,306.0" stroke="black" stroke-width="2" fill="none" />
<polyline points="166.0,282.5,166.5,274.5,168.5,266.0,176.0,258.0,175.0,262.0,167.0,269.0" stroke="black" stroke-width="2" fill="none" />
<polyline points="163.0,265.5,162.0,273.5,162.5,281.5" stroke="black" stroke-width="2" fill="none" />
<polyline points="152.0,281.0,151.0,273.0,152.5,264.5" stroke="black" stroke-width="2" fill="none" />
<polyline points="160.5,264.0,154.0,272.0,154.0,279.5" stroke="black" stroke-width="2" fill="none" />
<polyline points="174.0,283.0,173.5,275.0,173.5,267.0,176.5,266.0,183.0,258.0,179.0,259.0,165.0,261.5,157.0,265.5,146.0,265.5,140.0,268.0,142.0,270.0,139.0,262.5,143.0,258.5" stroke="black" stroke-width="2" fill="none" />
<polyline points="166.0,251.5,182.5,250.0,199.5,249.0" stroke="black" stroke-width="2" fill="none" />
<polyline points="192.5,258.0,191.5,266.0,188.5,273.5" stroke="black" stroke-width="2" fill="none" />
<polyline points="193.0,260.5,194.0,268.5,192.0,276.0,195.0,282.0,196.0,289.5,190.0,299.0,198.0,297.0,207.0,295.5,215.0,292.0,224.0,290.0,232.0,286.5,238.0,289.0,247.0,284.0,254.5,286.5,262.5,283.5,266.5,279.0" stroke="black" stroke-width="2" fill="none" />
<polyline points="244.0,227.0,252.0,229.5,260.0,229.5,268.0,230.5,276.5,231.0,284.5,232.5,292.5,233.5,301.0,232.5" stroke="black" stroke-width="2" fill="none" />
<polyline points="277.5,216.0,262.0,216.5" stroke="black" stroke-width="2" fill="none" />
<polyline points="245.5,205.0,229.5,205.5,214.5,205.5" stroke="black" stroke-width="2" fill="none" />
<polyline points="211.5,186.5,228.0,186.0" stroke="black" stroke-width="2" fill="none" />
<polyline points="222.0,182.5,222.0,190.5" stroke="black" stroke-width="2" fill="none" />
<polyline points="216.5,180.5,220.5,183.5,219.5,191.5,218.5,196.0,226.5,200.0,240.5,196.0,245.5,196.0,253.5,195.0,261.5,199.0,269.5,205.0,277.5,211.5,290.5,218.5,298.5,223.5,298.5,226.5" stroke="black" stroke-width="2" fill="none" />
<polyline points="279.5,220.5,271.5,219.5,263.5,215.0,259.5,210.5,251.5,210.5,243.0,207.0" stroke="black" stroke-width="2" fill="none" />
<polyline points="250.5,192.0,263.5,199.5,275.5,207.0,281.0,214.0,289.0,214.5,304.5,210.5,309.5,216.5" stroke="black" stroke-width="2" fill="none" />
<polyline points="288.0,225.5,280.0,223.5,271.5,226.0,263.5,220.5,256.5,221.5,243.5,222.0,241.0,213.0,233.0,218.5,225.5,220.5,218.0,224.5,229.5,218.5" stroke="black" stroke-width="2" fill="none" />
<polyline points="229.0,216.5,213.5,217.5,197.0,218.5" stroke="black" stroke-width="2" fill="none" />
<polyline points="221.5,225.0,229.5,226.0,232.5,227.0,240.5,228.0,249.0,224.0" stroke="black" stroke-width="2" fill="none" />
<polyline points="224.5,222.5,232.5,220.5,240.5,219.5,248.5,217.0,256.5,217.0,265.5,222.0,273.5,222.0,280.0,222.5" stroke="black" stroke-width="2" fill="none" />
<polyline points="291.5,218.5,282.5,210.0" stroke="black" stroke-width="2" fill="none" />
<polyline points="278.0,195.0,270.0,195.0,262.5,196.0,260.0,191.0,252.0,190.5" stroke="black" stroke-width="2" fill="none" />
<polyline points="255.0,182.5,263.0,179.5,266.0,167.5" stroke="black" stroke-width="2" fill="none" />
<polyline points="268.5,172.5,260.5,178.5" stroke="black" stroke-width="2" fill="none" />
<polyline points="229.0,171.0,212.5,172.0,196.0,173.5" stroke="black" stroke-width="2" fill="none" />
<polyline points="189.5,180.5,197.5,183.0" stroke="black" stroke-width="2" fill="none" />
<polyline points="201.0,184.5,216.5,170.0" stroke="black" stroke-width="2" fill="none" />
<polyline points="221.0,172.5,230.0,179.5,227.0,187.5,221.5,192.5,220.5,198.5,226.0,202.5,216.5,209.5,211.5,212.5,212.5,223.0,213.5,215.0" stroke="black" stroke-width="2" fill="none" />
<polyline points="195.5,196.0,199.0,189.0,191.0,189.0" stroke="black" stroke-width="2" fill="none" />
<polyline points="173.5,210.5,183.5,212.0,192.0,206.0,184.0,211.0,176.0,217.5,168.0,218.0" stroke="black" stroke-width="2" fill="none" />
<polyline points="185.5,242.5,170.0,258.5" stroke="black" stroke-width="2" fill="none" />
<polyline points="132.5,230.5,116.5,246.0" stroke="black" stroke-width="2" fill="none" />
<polyline points="105.5,244.0,121.0,228.0" stroke="black" stroke-width="2" fill="none" />
<polyline points="125.0,236.0,133.0,242.0" stroke="black" stroke-width="2" fill="none" />
<polyline points="138.0,202.5,121.0,216.5,104.0,230.5,87.5,245.0,71.0,260.5,55.0,276.0,39.5,291.5,24.5,306.5,9.0,322.0" stroke="black" stroke-width="2" fill="none" />
<polyline points="9.0,318.0,25.0,318.0,41.0,318.0,57.0,317.5,72.5,316.5,87.5,315.0,103.5,314.5,120.0,313.5,136.5,312.0" stroke="black" stroke-width="2" fill="none" />
<polyline points="102.0,294.0,85.0,309.5" stroke="black" stroke-width="2" fill="none" />
<polyline points="150.0,324.5,134.5,325.0,118.5,326.5,102.0,328.0,86.0,329.5,70.5,330.0,55.5,331.0,40.0,332.0,24.5,334.0,9.0,335.0" stroke="black" stroke-width="2" fill="none" />
<polyline points="8.5,308.5,25.0,294.0,42.0,279.0,58.5,264.0,74.5,249.0,90.0,233.5,106.0,218.0,121.5,202.5,137.0,186.5" stroke="black" stroke-width="2" fill="none" />
<polyline points="131.5,197.5,115.0,197.5,98.5,198.5,83.0,198.5,67.0,200.0,52.5,201.5,37.0,202.5,21.5,204.0,5.0,206.0" stroke="black" stroke-width="2" fill="none" />
<polyline points="8.0,211.5,10.0,215.0" stroke="black" stroke-width="2" fill="none" />
<polyline points="22.5,210.0,38.5,194.0,54.0,178.5,69.5,164.0" stroke="black" stroke-width="2" fill="none" />
<polyline points="56.0,167.0,40.5,182.0,24.5,197.5" stroke="black" stroke-width="2" fill="none" />
<polyline points="7.5,188.5,23.5,188.5,39.0,189.0,53.5,188.5,68.5,188.0,83.5,187.0,99.5,186.0,115.0,185.5,131.5,183.5" stroke="black" stroke-width="2" fill="none" />
<polyline points="133.5,173.5,142.0,156.5" stroke="black" stroke-width="2" fill="none" />
<polyline points="118.5,151.0,135.0,135.0,151.5,119.5" stroke="black" stroke-width="2" fill="none" />
<polyline points="150.0,109.5,135.0,108.5,120.5,108.5,103.5,110.0,87.0,111.5,70.5,112.5,54.5,113.0,38.0,113.5" stroke="black" stroke-width="2" fill="none" />
<polyline points="39.0,97.0,55.0,96.5,70.0,95.0,85.0,94.5,100.5,95.0" stroke="black" stroke-width="2" fill="none" />
<polyline points="120.0,96.0,136.0,95.5,151.5,96.5,167.0,96.0" stroke="black" stroke-width="2" fill="none" />
<polyline points="169.5,92.0,177.5,91.0" stroke="black" stroke-width="2" fill="none" />
<polyline points="169.0,89.0,171.5,96.5,171.5,106.5,178.5,111.5,187.0,112.5,194.0,114.5,202.5,115.0,210.0,124.0,219.0,131.0,225.0,120.0,228.0,125.0,237.0,127.0,241.0,126.0,249.0,128.0,257.5,130.0,263.0,128.0" stroke="black" stroke-width="2" fill="none" />
<polyline points="260.0,137.5,250.0,147.5,246.0,141.5,237.5,148.0,229.5,149.0,221.5,142.0" stroke="black" stroke-width="2" fill="none" />
<polyline points="211.5,142.5,213.0,129.5,209.0,128.0,214.0,124.0,208.0,116.0,211.0,102.5" stroke="black" stroke-width="2" fill="none" />
<polyline points="218.0,105.0,220.0,103.0,234.0,105.0,246.5,113.0" stroke="black" stroke-width="2" fill="none" />
<polyline points="238.0,118.5,228.5,116.5,220.0,112.0,218.0,106.0" stroke="black" stroke-width="2" fill="none" />
<polyline points="226.5,73.5,222.0,78.5,214.5,78.5,206.5,78.5,198.0,79.5,190.0,80.5" stroke="black" stroke-width="2" fill="none" />
<polyline points="181.0,77.0,166.0,77.5,149.0,78.0,132.5,80.5,116.0,82.0,100.0,82.5,83.5,82.5,68.0,84.0,53.0,85.5,37.5,86.5,21.0,87.0,4.5,87.0" stroke="black" stroke-width="2" fill="none" />
<polyline points="10.0,87.5,25.5,71.0,40.5,54.0,55.5,37.5,69.5,22.0,85.0,6.5" stroke="black" stroke-width="2" fill="none" />
<polyline points="71.0,5.0,55.0,20.5,39.5,35.5" stroke="black" stroke-width="2" fill="none" />
<polyline points="38.5,45.5,54.0,45.0,69.0,44.0,84.5,43.0,100.5,41.5,116.5,41.0,132.5,40.5,148.5,39.5,165.0,38.0,181.0,36.5,197.0,36.0,212.5,35.0,228.0,34.0,244.0,33.5,260.0,33.0,277.0,32.0,293.0,32.5,309.5,33.5,325.5,33.5" stroke="black" stroke-width="2" fill="none" />
<polyline points="251.0,10.5,234.5,26.0,217.5,41.0,200.5,55.5,184.0,70.0,167.5,84.5,152.0,98.5,136.5,113.5,121.0,129.0,105.0,145.0" stroke="black" stroke-width="2" fill="none" />
<polyline points="85.0,145.5,101.0,130.0,117.0,114.0,134.0,98.5,151.0,83.5,168.0,68.5,184.5,53.5,201.0,38.5,218.0,24.0,235.0,10.0" stroke="black" stroke-width="2" fill="none" />
<polyline points="216.0,11.5,200.0,26.5,184.0,41.5,167.5,55.5,151.5,69.0,135.5,84.0,119.5,99.5,103.0,115.0,86.5,130.5,69.5,146.0" stroke="black" stroke-width="2" fill="none" />
<polyline points="52.0,155.0,35.0,161.0,43.0,159.0,51.0,156.5,59.0,156.0,67.0,154.0,75.0,153.0,82.5,155.0,90.0,153.5,98.0,153.0,106.5,153.5,114.5,155.5,122.5,153.5,131.0,153.0,139.0,152.5" stroke="black" stroke-width="2" fill="none" />
<polyline points="118.0,165.5,102.0,181.5,86.5,197.0,70.5,212.5,55.0,227.5,39.5,242.5,24.5,258.0,9.5,273.5" stroke="black" stroke-width="2" fill="none" />
<polyline points="7.5,266.0,23.0,265.0,39.0,263.5,55.0,262.5,70.5,261.5,86.0,262.0,102.0,262.5,117.5,263.0,133.0,263.5" stroke="black" stroke-width="2" fill="none" />
<polyline points="101.5,165.5,86.0,181.0,71.0,196.5,56.0,212.5,40.0,228.5,24.0,243.5,8.0,259.5" stroke="black" stroke-width="2" fill="none" />
<polyline points="4.0,249.0,20.0,249.5,36.5,250.0,53.5,249.0,70.0,248.0,87.0,248.0,102.5,248.5,118.0,249.5,134.5,250.0" stroke="black" stroke-width="2" fill="none" />
<polyline points="86.5,167.0,69.5,183.0,53.5,198.5,38.0,215.0,22.5,231.5,6.0,247.0" stroke="black" stroke-width="2" fill="none" />
<polyline points="7.5,231.5,23.0,232.0,39.0,233.0,55.0,233.5,70.5,234.0,86.5,234.0,102.0,233.5,117.0,232.5,132.0,231.0" stroke="black" stroke-width="2" fill="none" />
<polyline points="38.5,229.0,23.0,230.0" stroke="black" stroke-width="2" fill="none" />
<polyline points="23.5,222.5,39.5,221.0,56.5,220.5,72.5,220.0,88.0,219.5,104.5,219.0,121.5,217.0,138.0,214.5" stroke="black" stroke-width="2" fill="none" />
<polyline points="134.0,292.5,117.5,293.0,101.0,294.0,85.0,296.0,70.0,297.0,55.5,298.5,41.0,299.5,25.5,300.0,9.0,300.5" stroke="black" stroke-width="2" fill="none" />
<polyline points="18.5,292.5,26.5,296.5" stroke="black" stroke-width="2" fill="none" />
<polyline points="19.5,295.0,17.5,287.0" stroke="black" stroke-width="2" fill="none" />
<polyline points="7.0,182.0,23.0,181.0" stroke="black" stroke-width="2" fill="none" />
<polyline points="23.0,176.5,39.5,160.5,55.0,145.5,71.0,130.5,87.0,115.5,103.5,100.5,120.0,84.5,136.0,69.0,152.5,53.0,169.0,37.0,184.5,20.5,200.0,4.0" stroke="black" stroke-width="2" fill="none" />
<polyline points="183.0,3.5,167.0,19.5,151.0,36.0,135.0,52.5,119.0,69.0,103.0,84.5,87.0,100.5,70.5,116.0,54.0,131.0,37.0,145.5,20.5,161.0,4.5,176.5" stroke="black" stroke-width="2" fill="none" />
<polyline points="4.5,181.0,12.5,171.0,15.0,167.0,9.0,175.0,4.0,183.5,3.5,191.5,3.0,199.5,4.5,207.0,4.5,215.0,7.0,220.0" stroke="black" stroke-width="2" fill="none" />
<polyline points="7.5,171.0,22.5,170.5,38.5,170.5,55.0,171.0,71.5,171.5,87.0,171.5,102.5,171.0,117.0,170.0,132.5,169.0" stroke="black" stroke-width="2" fill="none" />
<polyline points="149.0,150.0,133.0,151.0,117.0,151.5,101.0,151.5,85.5,152.5,70.0,153.5,55.0,155.0,40.0,156.5,24.0,157.0,8.5,157.0" stroke="black" stroke-width="2" fill="none" />
<polyline points="9.0,157.5,24.5,142.0,40.0,127.5,56.0,113.0,71.5,98.5,87.0,83.5,102.5,68.5,118.5,53.5,133.5,38.5,149.0,24.0,165.0,9.0" stroke="black" stroke-width="2" fill="none" />
<polyline points="151.0,7.0,135.0,23.0,119.5,38.5,103.5,53.5,87.5,68.5,71.5,83.5,56.0,98.0,40.5,113.5,25.0,129.0,9.5,145.0" stroke="black" stroke-width="2" fill="none" />
<polyline points="7.0,141.5,23.5,140.5,39.5,140.0,55.0,139.5,70.5,140.0,87.0,139.5,103.0,138.0,119.5,137.0,136.0,135.5,152.0,134.0" stroke="black" stroke-width="2" fill="none" />
<polyline points="147.5,144.0,132.0,144.0,116.5,144.0,100.0,144.5,84.0,146.5,68.0,147.0,52.5,147.5,37.0,149.0,22.5,151.0,7.0,152.0" stroke="black" stroke-width="2" fill="none" />
<polyline points="8.0,163.5,24.0,162.5,40.5,160.0" stroke="black" stroke-width="2" fill="none" />
<polyline points="6.0,131.0,22.0,114.0,37.5,97.5,54.0,82.0,70.5,65.5,88.0,49.5,105.0,34.0,121.5,18.0,137.5,3.0" stroke="black" stroke-width="2" fill="none" />
<polyline points="119.0,8.0,103.0,23.5,87.5,39.0,72.0,53.5,55.5,67.0,39.0,82.0,24.0,98.0,8.5,114.5" stroke="black" stroke-width="2" fill="none" />
<polyline points="12.5,115.0,27.5,115.0" stroke="black" stroke-width="2" fill="none" />
<polyline points="10.5,106.5,26.5,106.5,43.0,107.0,58.5,107.0,73.5,107.0,89.5,106.5,105.5,106.0,121.0,105.5,136.0,104.5,151.0,103.5" stroke="black" stroke-width="2" fill="none" />
<polyline points="149.0,103.0,157.0,91.0,165.0,81.5,173.5,80.0,182.0,79.0,190.0,77.0,198.0,75.0,206.0,74.0,214.0,73.5,222.0,70.5,230.5,70.5,238.0,71.5,245.5,74.0,253.5,76.0,261.0,81.5,261.0,89.5,260.0,97.5,259.5,105.5,257.5,115.0,253.5,123.0,259.5,113.5" stroke="black" stroke-width="2" fill="none" />
<polyline points="233.0,72.0,223.0,74.0,220.5,86.5,221.0,93.5,221.0,98.5,216.0,107.5,220.0,115.5,219.5,123.5,217.5,131.5,217.0,139.5,213.5,147.0,217.0,152.0,214.0,154.5,213.0,162.5,213.5,171.0,211.5,179.0,210.5,187.0,208.5,195.0,204.0,203.0,201.0,211.0,196.5,218.0,199.5,214.0,204.0,221.0,212.0,218.5,214.0,208.5" stroke="black" stroke-width="2" fill="none" />
<polyline points="207.5,214.5,210.0,206.5,213.0,198.5,215.5,191.0,217.0,183.0,222.0,180.5,217.0,175.0,218.0,167.0,222.0,165.0,222.0,157.0" stroke="black" stroke-width="2" fill="none" />
<polyline points="201.5,141.5,202.5,150.0,202.5,157.5,202.0,165.5,202.5,173.0,203.5,181.0,200.5,184.0,198.5,192.0,197.5,198.0" stroke="black" stroke-width="2" fill="none" />
<polyline points="190.5,202.5,184.0,217.5,182.0,215.5,187.0,214.5,193.0,206.5,191.0,196.0,191.0,188.0,200.0,181.5,199.0,173.5,199.0,165.5,198.5,158.0,199.0,150.5,199.0,142.5" stroke="black" stroke-width="2" fill="none" />
<polyline points="153.5,123.5,136.5,124.0,119.5,125.5,102.5,127.0,86.0,128.0,69.5,128.0,52.0,129.0,35.0,129.0,19.5,129.0,4.0,128.0" stroke="black" stroke-width="2" fill="none" />
<polyline points="7.0,125.5,24.0,124.5,40.0,123.5,57.0,122.5,74.0,122.0,90.5,121.5,107.0,120.5,123.0,119.5,138.5,118.5,154.0,118.5" stroke="black" stroke-width="2" fill="none" />
<polyline points="166.5,90.5,174.5,84.5,181.0,83.0,189.0,81.5,197.5,81.0" stroke="black" stroke-width="2" fill="none" />
<polyline points="214.0,66.5,198.5,68.0,183.5,69.5,168.0,70.5,152.0,70.5,136.5,70.5,120.5,70.5,104.5,69.5,88.5,69.5,72.5,70.5,55.0,72.0,38.5,73.5,22.5,75.0,6.5,76.5" stroke="black" stroke-width="2" fill="none" />
<polyline points="8.5,70.0,24.5,55.5" stroke="black" stroke-width="2" fill="none" />
<polyline points="21.0,50.0,4.5,51.0" stroke="black" stroke-width="2" fill="none" />
<polyline points="8.0,52.0,24.0,36.5,39.0,21.0,55.0,5.0" stroke="black" stroke-width="2" fill="none" />
<polyline points="55.0,19.0,38.5,19.5" stroke="black" stroke-width="2" fill="none" />
<polyline points="42.5,17.5,47.5,8.0" stroke="black" stroke-width="2" fill="none" />
<polyline points="35.5,8.0,32.5,16.0" stroke="black" stroke-width="2" fill="none" />
<polyline points="34.5,9.0,42.5,7.0,50.5,3.5,45.5,13.5,43.0,21.5,42.0,29.5,49.0,18.5,55.0,11.0,49.0,19.0,45.5,27.0" stroke="black" stroke-width="2" fill="none" />
<polyline points="55.5,46.5,71.0,46.5,88.0,46.5,104.0,46.0,120.0,46.5,135.5,46.5,150.5,46.5,165.5,47.0,180.5,47.5" stroke="black" stroke-width="2" fill="none" />
<polyline points="165.0,61.0,149.0,61.0,132.5,61.5,117.0,62.5,102.0,63.5,86.5,65.0,71.5,66.5,56.0,67.5" stroke="black" stroke-width="2" fill="none" />
<polyline points="70.0,33.5,86.0,33.5,101.5,33.5,117.5,33.0,134.0,32.5" stroke="black" stroke-width="2" fill="none" />
<polyline points="103.5,8.0,87.0,23.5,71.5,38.0,56.0,52.5,41.0,67.0,25.5,82.5,9.0,98.0" stroke="black" stroke-width="2" fill="none" />
<polyline points="9.0,94.5,24.0,93.5,39.5,92.5,55.0,92.0,71.0,92.0,87.0,91.0,102.5,89.5,118.5,87.5,134.5,86.0,150.0,84.5,166.0,84.5" stroke="black" stroke-width="2" fill="none" />
<polyline points="166.5,86.0,174.5,85.0,178.0,88.0,186.0,82.5,191.0,90.5,191.5,99.0,193.5,111.5,195.5,119.5,196.0,126.5,191.0,130.5" stroke="black" stroke-width="2" fill="none" />
<polyline points="185.5,124.0,178.5,123.0,177.0,116.0,172.0,127.0,170.0,134.5,171.0,127.5,179.0,124.0,176.0,115.0,172.0,107.0,165.0,99.0,163.5,91.0,167.5,83.0" stroke="black" stroke-width="2" fill="none" />
<polyline points="161.5,86.0,169.5,81.0,160.5,83.0,157.5,91.0,151.5,99.0,149.0,107.5,147.5,116.0,146.0,124.0,145.0,132.5,145.0,141.0,144.0,149.5,142.0,157.5,138.0,165.0,134.5,173.0,131.5,181.0,130.5,188.5,130.0,196.5,129.0,204.5,129.0,212.0,125.5,219.5,123.5,227.5,125.5,235.5,136.5,244.0,135.5,252.0,130.0,260.5,125.0,268.5,124.5,276.5,128.0,284.5,131.0,292.0,131.5,300.5,132.5,308.5,133.5,316.5,135.5,324.5,138.0,332.0,141.5,340.0" stroke="black" stroke-width="2" fill="none" />
<polyline points="22.5,101.5,7.5,103.0" stroke="black" stroke-width="2" fill="none" />
<polyline points="9.5,63.0,25.0,63.5,41.0,63.5" stroke="black" stroke-width="2" fill="none" />
<polyline points="39.5,39.0,23.5,40.0" stroke="black" stroke-width="2" fill="none" />
<polyline points="26.0,40.0,26.5,48.5" stroke="black" stroke-width="2" fill="none" />
<polyline points="23.0,45.5,7.0,45.5" stroke="black" stroke-width="2" fill="none" />
<polyline points="7.5,41.5,23.0,26.0" stroke="black" stroke-width="2" fill="none" />
<polyline points="25.0,36.5,16.0,44.0,17.0,52.0,22.0,39.5" stroke="black" stroke-width="2" fill="none" />
<polyline points="17.0,48.5,25.0,49.5" stroke="black" stroke-width="2" fill="none" />
<polyline points="9.0,59.5,25.0,59.0,40.5,58.5,56.0,57.5,72.0,55.5,87.0,54.5,103.5,54.0,119.5,54.0,135.0,54.0,150.5,53.5,166.0,52.5,182.5,52.0,198.5,51.5,215.0,50.5,231.5,49.0,248.5,47.5,263.0,47.5,278.0,48.5,293.5,49.0,308.5,49.5" stroke="black" stroke-width="2" fill="none" />
<polyline points="213.5,11.0,198.0,12.0,181.5,13.0,165.5,13.5,150.0,14.5,133.5,16.5,117.0,18.0,101.0,18.0,85.0,18.0,70.0,18.5" stroke="black" stroke-width="2" fill="none" />
<polyline points="20.0,13.0,35.5,12.5,51.5,10.5,68.0,9.0,84.0,8.0,100.5,6.0,116.0,5.5,132.5,4.5,148.5,3.5,164.5,3.5,181.0,3.0,197.0,2.5,212.0,2.0,227.5,2.0,244.0,2.0,260.5,2.0,278.5,1.0,296.0,-0.5,313.0,-1.5,329.5,-1.5,345.5,-1.5,361.0,-1.0,377.0,-1.0" stroke="black" stroke-width="2" fill="none" />
</svg>