<svg xmlns="http://www.w3.org/2000/svg" version="1.1"><polyline points="138.5,217.5,136.0,226.0,135.0,227.0,142.5,219.5" stroke="black" stroke-width="2" fill="none" />
<polyline points="141.5,219.5,137.5,227.5,137.5,228.0,143.0,230.0" stroke="black" stroke-width="2" fill="none" />
<polyline points="147.5,222.5,164.0,222.0,179.5,221.0,195.0,220.5" stroke="black" stroke-width="2" fill="none" />
<polyline points="185.5,214.5,169.5,230.5,153.0,245.5,136.5,261.5" stroke="black" stroke-width="2" fill="none" />
<polyline points="135.0,260.5,143.0,261.5,151.0,257.5" stroke="black" stroke-width="2" fill="none" />
<polyline points="152.5,261.0,170.5,245.5,187.0,229.5" stroke="black" stroke-width="2" fill="none" />
<polyline points="198.0,236.0,213.0,235.0" stroke="black" stroke-width="2" fill="none" />
<polyline points="219.0,249.5,235.0,249.5" stroke="black" stroke-width="2" fill="none" />
<polyline points="228.5,258.0,224.5,266.0,224.5,258.0,220.5,256.0,215.5,256.5,209.5,252.5,200.5,248.5,200.0,252.5,192.0,252.0,183.5,255.5,175.5,256.5,170.5,264.5,170.5,275.5" stroke="black" stroke-width="2" fill="none" />
<polyline points="169.5,275.5,170.5,283.5,169.0,291.0,174.0,302.0,182.0,310.5" stroke="black" stroke-width="2" fill="none" />
<polyline points="183.5,303.0,200.0,302.5,215.0,301.5" stroke="black" stroke-width="2" fill="none" />
<polyline points="216.0,291.5,232.5,290.0,250.0,290.0" stroke="black" stroke-width="2" fill="none" />
<polyline points="244.5,281.0,229.0,296.5" stroke="black" stroke-width="2" fill="none" />
<polyline points="232.5,301.5,247.0,300.0,262.5,299.0,278.5,298.0,295.0,296.5" stroke="black" stroke-width="2" fill="none" />
<polyline points="288.5,302.0,286.5,310.0,277.5,318.5,269.5,326.5,259.0,334.0,258.0,335.0,266.0,327.5,274.0,321.0,282.0,314.0,290.0,307.0" stroke="black" stroke-width="2" fill="none" />
<polyline points="287.0,313.0,294.5,312.0,293.5,313.0,288.0,316.0,281.0,321.0,275.0,329.0,266.0,337.0" stroke="black" stroke-width="2" fill="none" />
<polyline points="268.5,338.0,272.5,346.0,276.5,342.5,275.5,350.5,275.0,356.0,281.0,351.5,285.5,357.5,293.5,355.5,301.5,354.5" stroke="black" stroke-width="2" fill="none" />
<polyline points="296.5,343.0,280.5,358.5" stroke="black" stroke-width="2" fill="none" />
<polyline points="279.0,355.0,294.5,353.5" stroke="black" stroke-width="2" fill="none" />
<polyline points="298.5,344.5,292.5,349.0,284.5,343.0" stroke="black" stroke-width="2" fill="none" />
<polyline points="283.5,350.0,291.5,352.0" stroke="black" stroke-width="2" fill="none" />
<polyline points="285.0,358.0,283.0,350.0,282.5,342.0,274.5,341.0" stroke="black" stroke-width="2" fill="none" />
<polyline points="269.0,338.0,277.0,338.0,286.0,342.0,288.0,350.0,297.0,353.0,294.0,359.0,291.0,363.5,295.5,359.5,300.5,359.0" stroke="black" stroke-width="2" fill="none" />
<polyline points="317.0,376.5,311.0,379.5,310.5,382.5,319.5,378.5,321.5,386.0,321.5,391.5,324.5,381.5,333.0,378.5,334.0,386.5,337.0,379.5,340.0,392.5,341.0,389.5,348.0,394.5,352.5,395.0,360.5,401.0,355.0,405.5,352.0,409.5,347.0,413.0" stroke="black" stroke-width="2" fill="none" />
<polyline points="362.0,409.0,378.5,408.5" stroke="black" stroke-width="2" fill="none" />
<polyline points="378.0,419.5,394.5,403.0" stroke="black" stroke-width="2" fill="none" />
<polyline points="390.0,400.0,400.0,409.0" stroke="black" stroke-width="2" fill="none" />
<polyline points="393.5,421.5,378.0,436.0,361.0,451.5" stroke="black" stroke-width="2" fill="none" />
<polyline points="359.5,456.0,376.0,455.0,393.0,454.0,410.5,451.5" stroke="black" stroke-width="2" fill="none" />
<polyline points="409.5,455.5,393.0,471.0,376.5,486.5,360.0,502.0,343.5,518.0,328.0,534.0,311.0,548.0" stroke="black" stroke-width="2" fill="none" />
<polyline points="313.0,564.0,329.0,548.5,345.0,533.0,360.0,518.5,375.5,503.0,391.5,487.0,408.0,471.5" stroke="black" stroke-width="2" fill="none" />
<polyline points="408.5,469.0,417.0,473.0" stroke="black" stroke-width="2" fill="none" />
<polyline points="423.0,483.5,407.0,499.5,390.0,516.0,374.5,533.0,360.0,549.5,344.5,565.0" stroke="black" stroke-width="2" fill="none" />
<polyline points="341.0,577.0,357.0,577.0" stroke="black" stroke-width="2" fill="none" />
<polyline points="360.5,582.0,377.5,566.0,394.0,549.5,409.5,534.0,425.0,519.0,439.5,504.0,454.5,489.5" stroke="black" stroke-width="2" fill="none" />
<polyline points="459.0,491.5,459.0,493.0,460.0,501.0,452.0,505.0,452.5,508.0,454.5,516.0,458.5,516.5" stroke="black" stroke-width="2" fill="none" />
<polyline points="458.5,520.0,442.5,535.5,426.0,551.0,410.5,567.5,394.5,583.5,379.0,600.0" stroke="black" stroke-width="2" fill="none" />
<polyline points="381.0,601.0,373.0,600.0" stroke="black" stroke-width="2" fill="none" />
<polyline points="373.5,594.5,390.5,593.5" stroke="black" stroke-width="2" fill="none" />
<polyline points="406.5,597.5,390.5,614.0" stroke="black" stroke-width="2" fill="none" />
<polyline points="391.0,617.0,406.0,616.5,421.5,617.0,437.0,617.0,453.0,618.5,469.0,619.0,484.5,620.0,500.5,619.0,516.0,618.0" stroke="black" stroke-width="2" fill="none" />
<polyline points="520.5,618.5,504.0,633.0" stroke="black" stroke-width="2" fill="none" />
<polyline points="490.5,631.5,508.0,615.0,524.0,599.0" stroke="black" stroke-width="2" fill="none" />
<polyline points="522.0,583.5,506.0,600.0,491.0,616.0,476.0,631.5" stroke="black" stroke-width="2" fill="none" />
<polyline points="472.0,623.5,488.0,624.0" stroke="black" stroke-width="2" fill="none" />
<polyline points="490.5,628.0,494.5,628.0" stroke="black" stroke-width="2" fill="none" />
<polyline points="517.5,648.0,501.5,663.0" stroke="black" stroke-width="2" fill="none" />
<polyline points="521.5,664.0,505.0,664.5,487.5,665.0,471.0,665.5" stroke="black" stroke-width="2" fill="none" />
<polyline points="458.0,652.5,474.0,651.5,490.0,651.0,505.5,650.0,520.0,650.0" stroke="black" stroke-width="2" fill="none" />
<polyline points="460.5,632.0,475.5,617.5,491.0,601.5,506.0,585.0,522.5,569.0" stroke="black" stroke-width="2" fill="none" />
<polyline points="520.0,551.0,503.5,566.5,487.5,582.5" stroke="black" stroke-width="2" fill="none" />
<polyline points="474.0,599.0,457.5,614.5" stroke="black" stroke-width="2" fill="none" />
<polyline points="457.0,610.0,441.5,610.5" stroke="black" stroke-width="2" fill="none" />
<polyline points="438.5,613.5,454.5,598.0,470.0,582.0,485.5,566.0,501.0,550.0,517.0,535.5" stroke="black" stroke-width="2" fill="none" />
<polyline points="501.5,532.5,485.5,548.0,469.0,564.5,452.5,580.5,435.5,596.5,419.5,613.0" stroke="black" stroke-width="2" fill="none" />
<polyline points="424.0,599.0,439.0,583.0,455.0,567.0" stroke="black" stroke-width="2" fill="none" />
<polyline points="451.0,556.0,454.0,559.0,460.5,567.0,468.5,571.0,461.5,582.0" stroke="black" stroke-width="2" fill="none" />
<polyline points="440.5,567.0,425.0,581.5" stroke="black" stroke-width="2" fill="none" />
<polyline points="409.5,578.5,427.0,563.5,443.5,547.5" stroke="black" stroke-width="2" fill="none" />
<polyline points="455.0,532.5,472.0,516.0,488.0,499.5" stroke="black" stroke-width="2" fill="none" />
<polyline points="482.0,486.0,474.0,490.0" stroke="black" stroke-width="2" fill="none" />
<polyline points="471.5,491.0,456.5,506.5,440.5,520.5,424.5,535.5,408.0,551.5,392.0,567.5,375.5,582.0" stroke="black" stroke-width="2" fill="none" />
<polyline points="388.5,576.0,404.0,575.5,420.0,575.5,436.5,575.5,454.0,575.0,471.0,575.5" stroke="black" stroke-width="2" fill="none" />
<polyline points="457.0,551.0,473.0,535.0" stroke="black" stroke-width="2" fill="none" />
<polyline points="481.5,537.0,489.5,538.5" stroke="black" stroke-width="2" fill="none" />
<polyline points="483.5,532.0,500.0,517.5" stroke="black" stroke-width="2" fill="none" />
<polyline points="503.5,562.5,520.0,562.0" stroke="black" stroke-width="2" fill="none" />
<polyline points="521.5,470.5,505.0,470.5" stroke="black" stroke-width="2" fill="none" />
<polyline points="455.5,471.5,439.5,487.5" stroke="black" stroke-width="2" fill="none" />
<polyline points="442.0,493.0,441.5,495.0,450.5,499.0,454.5,506.0,455.0,499.5,462.5,500.5,466.0,501.0" stroke="black" stroke-width="2" fill="none" />
<polyline points="456.5,498.0,441.0,498.5" stroke="black" stroke-width="2" fill="none" />
<polyline points="442.5,495.0,450.0,494.0" stroke="black" stroke-width="2" fill="none" />
<polyline points="422.0,500.5,406.0,516.0,390.0,531.5,374.0,547.0,358.5,562.5,343.0,578.5" stroke="black" stroke-width="2" fill="none" />
<polyline points="327.0,576.5,342.5,575.5,359.0,573.5,375.5,572.0,392.5,570.5,408.5,569.5,423.5,568.5,439.0,568.0,455.5,567.0,472.0,566.0,488.0,565.5,503.5,565.5,519.0,565.5" stroke="black" stroke-width="2" fill="none" />
<polyline points="518.0,634.0,502.5,634.5,486.5,636.0,469.5,637.5,454.0,639.0,438.0,639.5,421.5,640.0" stroke="black" stroke-width="2" fill="none" />
<polyline points="432.0,625.0,440.0,620.0" stroke="black" stroke-width="2" fill="none" />
<polyline points="444.0,600.0,428.5,601.0" stroke="black" stroke-width="2" fill="none" />
<polyline points="418.0,590.0,416.0,590.0,414.5,582.0,419.5,572.5,422.0,564.5,418.0,563.5" stroke="black" stroke-width="2" fill="none" />
<polyline points="426.5,564.0,411.0,563.5,395.0,563.0,378.5,562.5,361.5,563.0" stroke="black" stroke-width="2" fill="none" />
<polyline points="362.0,587.5,378.0,586.0,395.0,585.5,411.5,585.0,427.0,584.5,443.0,584.5,458.5,585.0,474.5,586.5,490.0,587.5,505.5,588.5,521.5,587.5" stroke="black" stroke-width="2" fill="none" />
<polyline points="438.5,532.5,423.5,533.5" stroke="black" stroke-width="2" fill="none" />
<polyline points="424.0,544.5,407.5,544.5,390.5,544.0,373.5,543.5,357.5,544.5,340.0,545.0,323.5,545.5,307.0,545.5,291.5,546.0" stroke="black" stroke-width="2" fill="none" />
<polyline points="295.0,548.5,312.5,532.0,329.5,515.5,346.0,500.5,362.0,486.5,378.0,471.5,394.0,455.0,410.0,439.0" stroke="black" stroke-width="2" fill="none" />
<polyline points="406.0,437.5,390.0,437.0,373.5,436.5" stroke="black" stroke-width="2" fill="none" />
<polyline points="375.0,421.5,390.5,420.5" stroke="black" stroke-width="2" fill="none" />
<polyline points="409.0,424.0,393.0,439.0,378.5,454.5,363.0,470.5,346.0,486.5,328.5,502.5,311.5,519.0,295.0,534.5,277.5,550.0" stroke="black" stroke-width="2" fill="none" />
<polyline points="282.0,551.5,297.5,550.5,314.0,550.5,330.0,550.0,346.0,550.0,362.0,549.5,378.0,549.5,394.0,549.0,410.0,548.5,425.5,547.0,441.0,545.5,457.5,545.5,473.0,546.5,488.5,546.5,505.0,547.0,521.5,547.5" stroke="black" stroke-width="2" fill="none" />
<polyline points="521.0,598.0,505.0,598.0,488.5,599.0,472.0,600.0,455.0,601.0,438.5,601.5,424.0,602.5,410.0,603.0,395.0,603.5,379.0,603.5,364.0,603.5" stroke="black" stroke-width="2" fill="none" />
<polyline points="378.0,613.0,386.0,617.0,394.0,613.5,402.0,615.5" stroke="black" stroke-width="2" fill="none" />
<polyline points="393.0,614.0,386.0,617.5,386.0,616.5" stroke="black" stroke-width="2" fill="none" />
<polyline points="406.0,586.0,401.0,593.5,412.0,583.5" stroke="black" stroke-width="2" fill="none" />
<polyline points="409.5,528.0,393.5,527.5,377.0,526.5,360.0,526.0,343.0,526.0,326.5,526.5,310.5,527.0,295.0,527.5,279.0,527.5,262.5,528.0" stroke="black" stroke-width="2" fill="none" />
<polyline points="262.0,530.5,278.5,516.0,294.5,501.5,310.0,486.5,325.5,471.0" stroke="black" stroke-width="2" fill="none" />
<polyline points="325.0,463.5,310.0,465.0,295.5,467.5,281.0,468.5,266.0,468.5,250.5,468.5" stroke="black" stroke-width="2" fill="none" />
<polyline points="251.0,472.5,257.0,472.5,256.5,480.0,262.0,482.0,261.0,489.5,264.5,491.0,267.5,494.5,269.5,502.5" stroke="black" stroke-width="2" fill="none" />
<polyline points="261.5,498.0,278.5,497.5,295.0,498.0,310.5,498.5,325.5,498.5,341.0,499.0,358.0,499.0,375.0,498.0,392.0,496.0,409.5,494.0,425.0,493.5" stroke="black" stroke-width="2" fill="none" />
<polyline points="406.5,489.5,391.0,505.0,376.0,521.5,360.5,537.0,344.5,552.0,328.0,567.0" stroke="black" stroke-width="2" fill="none" />
<polyline points="325.0,563.0,341.5,563.0" stroke="black" stroke-width="2" fill="none" />
<polyline points="335.0,578.0,327.5,574.5,322.5,570.5,318.5,563.5,314.5,568.0,311.5,565.0,303.5,560.5,296.0,557.5,287.5,558.0,286.5,551.0,277.0,544.0,265.0,543.5,257.0,535.5,249.0,528.0,244.0,525.0,233.0,516.5,223.0,513.5,216.5,505.5,210.5,497.5,203.0,491.5,194.0,484.0,186.5,476.5,179.5,468.5,172.5,460.5,167.5,452.0,162.5,444.0,157.5,435.0,154.5,427.0,150.0,418.5,147.5,410.5,148.0,402.5,154.5,390.5,152.0,382.5,140.0,375.5,130.0,366.5,124.0,358.0,118.5,350.0,111.0,346.0,114.0,337.5,109.5,333.0,112.0,326.0,110.0,318.0,108.0,310.0,106.0,303.0,103.0,295.0,102.0,287.0,101.0,279.0,100.0,271.5,98.0,263.0,95.0,255.5,95.0,248.0,91.5,248.0,91.5,247.0" stroke="black" stroke-width="2" fill="none" />
<polyline points="93.5,246.5,101.0,259.5,109.5,268.5,117.5,275.5,126.0,273.0,128.0,282.0,136.0,278.0,140.5,284.0,148.5,287.0,156.5,288.0,160.5,285.0,169.0,286.5,186.0,287.0,193.5,286.0,205.5,290.5,216.5,294.5,219.0,292.0" stroke="black" stroke-width="2" fill="none" />
<polyline points="222.5,281.0,223.5,278.0,222.5,270.0,219.0,278.5,208.5,286.5,204.5,297.0,191.5,297.0,196.0,306.5,190.0,302.5,188.5,305.5" stroke="black" stroke-width="2" fill="none" />
<polyline points="199.0,312.0,213.5,297.0,229.0,282.0,244.5,266.0" stroke="black" stroke-width="2" fill="none" />
<polyline points="244.5,278.0,228.0,278.5" stroke="black" stroke-width="2" fill="none" />
<polyline points="216.0,279.5,200.5,295.0,184.5,310.0,168.5,324.0" stroke="black" stroke-width="2" fill="none" />
<polyline points="170.5,314.0,154.5,330.0,137.5,345.5,121.5,360.0" stroke="black" stroke-width="2" fill="none" />
<polyline points="120.0,357.5,135.5,356.5,150.0,355.5,165.0,355.5,181.0,355.0,196.0,354.0,211.5,354.0" stroke="black" stroke-width="2" fill="none" />
<polyline points="214.5,352.0,222.5,354.0,230.5,361.0,237.5,374.5" stroke="black" stroke-width="2" fill="none" />
<polyline points="246.5,380.0,262.5,379.0,279.0,377.5,295.5,377.0,312.0,377.5,328.0,377.5,344.0,377.0,359.5,377.0,375.0,377.0,391.0,376.5,407.0,376.5" stroke="black" stroke-width="2" fill="none" />
<polyline points="409.5,376.0,393.5,392.0,377.0,407.0,361.0,421.5,345.5,437.0,329.5,452.0,313.0,468.5,297.0,484.5,280.5,500.5,264.5,517.0" stroke="black" stroke-width="2" fill="none" />
<polyline points="260.0,511.0,276.0,511.0,291.5,510.5,307.0,510.5,324.0,511.5,341.0,512.0,358.0,511.5,374.5,511.5,391.5,511.0,409.0,510.0,425.5,509.5,441.0,509.0" stroke="black" stroke-width="2" fill="none" />
<polyline points="431.5,512.0,423.5,513.5" stroke="black" stroke-width="2" fill="none" />
<polyline points="407.5,466.5,391.0,467.5,375.5,468.5,359.5,469.5" stroke="black" stroke-width="2" fill="none" />
<polyline points="366.5,475.0,369.5,472.0,365.0,481.0,365.0,483.0,370.0,481.5,377.5,476.5" stroke="black" stroke-width="2" fill="none" />
<polyline points="371.0,471.5,367.0,479.5,371.5,481.5,366.5,489.5" stroke="black" stroke-width="2" fill="none" />
<polyline points="344.5,472.0,328.5,487.5,312.5,503.0,297.0,518.0,281.0,532.0" stroke="black" stroke-width="2" fill="none" />
<polyline points="280.0,535.5,296.5,535.5,313.0,535.5,329.0,535.5,346.0,535.0,362.0,534.5,377.5,534.5,394.0,535.0,409.5,534.5,423.5,533.5,439.0,532.5,455.5,532.0,473.0,531.5,489.5,531.0,506.5,530.0,522.0,530.5" stroke="black" stroke-width="2" fill="none" />
<polyline points="483.0,444.5,467.5,445.0,453.0,445.5,437.0,446.0" stroke="black" stroke-width="2" fill="none" />
<polyline points="422.5,437.0,406.0,437.5,391.0,437.5,375.5,438.5,359.0,438.5,342.0,439.0,325.0,439.0,308.5,439.5,293.5,439.5,277.5,440.5,261.5,441.0,246.0,441.0,231.5,441.5,215.5,441.0" stroke="black" stroke-width="2" fill="none" />
<polyline points="218.0,440.5,234.0,424.5,249.5,408.5,264.5,391.5,281.0,374.5" stroke="black" stroke-width="2" fill="none" />
<polyline points="266.5,374.0,249.5,389.0" stroke="black" stroke-width="2" fill="none" />
<polyline points="247.0,387.0,262.5,386.0" stroke="black" stroke-width="2" fill="none" />
<polyline points="261.5,374.5,261.5,374.5,268.5,380.0,275.5,385.0" stroke="black" stroke-width="2" fill="none" />
<polyline points="278.5,394.0,262.5,410.0,246.5,426.0" stroke="black" stroke-width="2" fill="none" />
<polyline points="247.5,426.0,263.5,426.0,278.5,425.0,294.0,424.0,309.0,423.0,323.5,421.5,339.5,421.0,356.0,420.5,372.0,420.0,387.5,419.0,403.5,418.5,420.0,418.0" stroke="black" stroke-width="2" fill="none" />
<polyline points="410.5,411.5,394.0,412.0,378.0,412.0,362.0,411.5,346.0,410.5,329.5,409.5,313.0,409.0,296.0,410.0,279.0,411.5,261.5,413.5,243.5,414.5,226.0,415.0" stroke="black" stroke-width="2" fill="none" />
<polyline points="225.5,411.0,230.0,419.0" stroke="black" stroke-width="2" fill="none" />
<polyline points="227.0,421.0,244.0,421.0,261.0,420.0,277.5,419.5,293.5,418.5,310.5,418.0" stroke="black" stroke-width="2" fill="none" />
<polyline points="310.0,422.5,293.5,438.5,278.0,455.0,262.5,471.5,247.5,487.0,232.0,502.0" stroke="black" stroke-width="2" fill="none" />
<polyline points="232.0,504.5,248.0,504.0,264.0,504.0,280.5,504.0,297.5,505.0,314.0,505.5,330.0,504.5,346.0,503.0,362.0,502.5,378.0,502.5,394.0,502.5,410.0,501.0,427.0,500.5,443.5,500.0,459.0,499.5,475.0,499.5,490.5,500.0,506.5,501.5,522.0,502.5" stroke="black" stroke-width="2" fill="none" />
<polyline points="517.5,515.5,502.5,515.5,487.0,516.0,470.5,516.0,453.5,516.5,437.5,518.0,422.5,519.5,407.5,520.5,391.0,521.0,375.5,520.0,360.0,520.0,344.0,521.0,327.5,522.0,312.0,523.0,295.5,524.0,280.0,524.5,264.5,524.0,248.5,524.5" stroke="black" stroke-width="2" fill="none" />
<polyline points="262.5,534.0,270.5,537.5,277.0,542.0" stroke="black" stroke-width="2" fill="none" />
<polyline points="267.5,539.0,275.5,547.5,284.0,555.0,298.0,560.0,301.0,561.0,302.0,566.0,308.0,573.5,317.0,578.0,325.0,585.5,330.5,588.5,333.5,589.0,341.5,592.5" stroke="black" stroke-width="2" fill="none" />
<polyline points="355.0,588.5,344.0,585.0,335.5,580.5,326.5,579.5,324.5,581.5,321.5,573.5" stroke="black" stroke-width="2" fill="none" />
<polyline points="313.5,577.5,311.5,572.5,301.5,568.5" stroke="black" stroke-width="2" fill="none" />
<polyline points="260.0,500.5,276.0,486.0,292.5,471.0,309.5,456.0,325.5,440.5" stroke="black" stroke-width="2" fill="none" />
<polyline points="328.5,453.0,314.0,452.5,299.0,452.0,283.5,451.5,268.0,451.0" stroke="black" stroke-width="2" fill="none" />
<polyline points="248.0,454.0,263.5,439.0,278.5,424.0,293.5,409.0" stroke="black" stroke-width="2" fill="none" />
<polyline points="294.5,406.0,302.0,413.0" stroke="black" stroke-width="2" fill="none" />
<polyline points="312.0,407.5,296.0,423.0,280.5,439.0,264.5,455.0,248.0,470.5,232.5,486.0,216.5,502.0" stroke="black" stroke-width="2" fill="none" />
<polyline points="214.0,498.5,230.5,497.5,247.5,497.5" stroke="black" stroke-width="2" fill="none" />
<polyline points="246.5,506.0,231.0,521.5" stroke="black" stroke-width="2" fill="none" />
<polyline points="252.5,508.0,245.0,510.0,237.5,510.5,229.0,504.5,221.0,502.5,212.5,495.5,203.5,490.5,195.5,484.0,187.5,475.0,179.0,466.5,171.0,455.5,163.0,444.5,155.0,432.0" stroke="black" stroke-width="2" fill="none" />
<polyline points="162.5,436.5,179.5,422.0" stroke="black" stroke-width="2" fill="none" />
<polyline points="180.5,420.0,165.0,421.0,150.0,422.5" stroke="black" stroke-width="2" fill="none" />
<polyline points="153.5,426.5,169.0,412.0" stroke="black" stroke-width="2" fill="none" />
<polyline points="168.5,422.5,185.0,407.0" stroke="black" stroke-width="2" fill="none" />
<polyline points="184.5,410.5,192.5,418.0" stroke="black" stroke-width="2" fill="none" />
<polyline points="192.5,411.5,201.0,419.5,209.0,426.0,217.0,433.5,225.0,442.5" stroke="black" stroke-width="2" fill="none" />
<polyline points="230.5,440.0,214.5,456.0,198.5,471.0" stroke="black" stroke-width="2" fill="none" />
<polyline points="201.5,474.5,217.5,474.0,233.0,473.5,248.5,472.0,264.5,470.0,279.5,469.0,294.0,468.5,308.5,467.5,324.0,466.5,339.5,466.5,356.0,466.0,372.0,466.0,387.5,465.5,403.0,465.5,420.0,466.5,437.0,467.0,454.0,466.5,470.5,466.5,487.5,466.0" stroke="black" stroke-width="2" fill="none" />
<polyline points="410.5,477.5,393.5,478.0,377.5,479.0,362.5,479.5,346.5,480.0,330.5,480.0,314.0,480.5,297.5,480.0,281.0,480.0,264.5,480.0,249.5,480.0,234.0,481.0" stroke="black" stroke-width="2" fill="none" />
<polyline points="228.5,473.5,212.5,488.5" stroke="black" stroke-width="2" fill="none" />
<polyline points="219.5,488.5,236.0,487.5,252.5,487.0,268.0,487.0,282.5,487.0,297.0,487.0,312.5,487.5,327.5,487.5,342.5,487.5,358.0,487.5,373.0,486.0,389.5,486.0,406.5,486.5,423.0,486.5,439.0,486.0,455.5,485.5,472.0,485.0,488.5,485.0,504.5,485.5,519.5,485.5" stroke="black" stroke-width="2" fill="none" />
<polyline points="488.5,449.5,473.0,451.0,456.5,452.0,439.5,453.5,423.0,454.5,407.5,455.5,391.5,456.5,375.5,456.5,359.5,456.5,344.0,456.5,328.5,457.0,312.0,457.0,295.0,458.0,278.5,458.0,262.0,458.5,246.5,460.0,231.0,460.0" stroke="black" stroke-width="2" fill="none" />
<polyline points="232.0,463.5,240.5,463.5,244.5,471.5,252.5,474.0,257.5,473.0,265.5,490.0" stroke="black" stroke-width="2" fill="none" />
<polyline points="262.0,484.5,278.5,469.0,295.0,453.5,311.5,438.5,328.0,423.5" stroke="black" stroke-width="2" fill="none" />
<polyline points="317.0,424.0,326.0,432.0,336.0,439.5,334.5,447.5,343.5,450.0" stroke="black" stroke-width="2" fill="none" />
<polyline points="343.5,435.5,360.0,435.0" stroke="black" stroke-width="2" fill="none" />
<polyline points="362.0,406.5,378.0,390.5" stroke="black" stroke-width="2" fill="none" />
<polyline points="387.5,383.5,404.0,383.0" stroke="black" stroke-width="2" fill="none" />
<polyline points="393.5,375.0,409.0,359.5" stroke="black" stroke-width="2" fill="none" />
<polyline points="391.5,354.5,375.0,369.5" stroke="black" stroke-width="2" fill="none" />
<polyline points="378.5,371.5,394.0,371.0,410.0,370.5" stroke="black" stroke-width="2" fill="none" />
<polyline points="391.0,340.5,375.5,355.5,360.0,370.5" stroke="black" stroke-width="2" fill="none" />
<polyline points="362.5,364.0,370.5,372.0,380.0,380.0,386.0,388.0,379.0,395.5,373.0,400.5,366.0,406.5,358.5,413.5,348.0,421.5,340.0,429.5,336.5,438.5,343.0,433.5" stroke="black" stroke-width="2" fill="none" />
<polyline points="324.5,435.0,309.5,436.0,294.0,436.0,278.5,436.0,262.5,435.5,246.5,436.0" stroke="black" stroke-width="2" fill="none" />
<polyline points="244.5,433.5,245.5,434.5,241.5,424.5,234.0,415.5,226.0,408.0,214.0,405.0,210.5,415.5,216.5,413.0,211.5,412.0,209.5,406.0,213.0,398.0,202.0,390.5,190.0,382.0,198.0,369.0,204.0,368.5,195.5,359.5,187.5,359.5,179.0,360.0,171.0,361.0,163.0,366.0" stroke="black" stroke-width="2" fill="none" />
<polyline points="165.5,369.0,151.0,369.5,135.0,369.0" stroke="black" stroke-width="2" fill="none" />
<polyline points="138.5,362.0,154.5,361.0,171.0,359.5" stroke="black" stroke-width="2" fill="none" />
<polyline points="172.5,361.0,163.5,369.0,167.0,378.5,157.0,386.5,164.5,379.0,172.5,376.0,180.5,375.0,188.0,376.0,194.5,372.0,199.0,374.0" stroke="black" stroke-width="2" fill="none" />
<polyline points="192.5,382.0,203.5,390.5,216.0,398.5,225.5,406.5,225.5,410.5,223.0,418.5,220.0,420.5,227.5,426.0,227.5,434.0,231.0,436.5" stroke="black" stroke-width="2" fill="none" />
<polyline points="230.0,433.0,214.5,434.5,198.5,435.0,182.0,434.5,165.5,434.5" stroke="black" stroke-width="2" fill="none" />
<polyline points="166.0,427.5,181.5,427.5,197.5,427.5,214.0,427.0,230.5,427.0" stroke="black" stroke-width="2" fill="none" />
<polyline points="233.0,425.5,229.0,421.5,233.5,411.5,226.0,403.5,224.5,392.5,227.0,389.5,225.0,395.0" stroke="black" stroke-width="2" fill="none" />
<polyline points="230.0,391.0,213.0,406.5" stroke="black" stroke-width="2" fill="none" />
<polyline points="211.5,406.0,227.5,405.0" stroke="black" stroke-width="2" fill="none" />
<polyline points="215.0,398.5,230.5,397.0,246.0,395.0,261.5,394.0,277.5,394.0,294.0,393.0,310.5,392.0" stroke="black" stroke-width="2" fill="none" />
<polyline points="310.0,390.5,326.5,374.5" stroke="black" stroke-width="2" fill="none" />
<polyline points="322.5,380.5,318.5,388.5,326.0,397.0,330.0,396.0,330.5,393.0,339.0,396.5,346.5,401.0" stroke="black" stroke-width="2" fill="none" />
<polyline points="344.5,396.5,361.0,396.5,377.5,396.5,394.0,395.5,410.5,394.5" stroke="black" stroke-width="2" fill="none" />
<polyline points="410.5,358.5,394.0,359.0,378.5,359.5,362.0,360.0,345.5,360.5,330.0,361.5,313.5,361.5,297.5,363.5,282.0,364.5,267.0,365.5,252.0,366.5" stroke="black" stroke-width="2" fill="none" />
<polyline points="250.5,346.5,267.0,345.5,283.0,345.0,298.5,344.0,314.0,344.0,329.5,343.5,346.0,343.5,362.5,343.5,379.0,343.5,395.5,343.0" stroke="black" stroke-width="2" fill="none" />
<polyline points="377.5,340.0,362.0,356.0" stroke="black" stroke-width="2" fill="none" />
<polyline points="359.0,356.0,375.0,355.5,391.5,355.5" stroke="black" stroke-width="2" fill="none" />
<polyline points="376.5,327.5,360.5,343.0,345.5,358.0" stroke="black" stroke-width="2" fill="none" />
<polyline points="345.5,347.0,361.5,332.5" stroke="black" stroke-width="2" fill="none" />
<polyline points="359.5,331.0,370.5,339.0,380.5,347.5,389.0,355.5,398.5,364.0,402.5,372.5,402.0,380.0,403.0,388.0,405.0,396.0,405.0,403.5,405.0,411.5,404.0,419.5,399.5,420.0,405.0,424.0,405.0,432.5,405.5,440.0,406.5,448.5,405.5,456.5,406.0,464.5,406.0,472.5,408.0,481.0,408.0,488.5,406.0,496.5,414.0,497.5,418.5,499.0" stroke="black" stroke-width="2" fill="none" />
<polyline points="389.0,460.0,381.0,458.0" stroke="black" stroke-width="2" fill="none" />
<polyline points="409.0,434.5,417.0,438.5,415.5,441.0" stroke="black" stroke-width="2" fill="none" />
<polyline points="356.0,469.5,353.0,462.0,345.5,461.5,337.5,464.5" stroke="black" stroke-width="2" fill="none" />
<polyline points="317.5,427.0,325.5,429.0,330.0,433.0,338.0,431.5,345.5,425.0,353.5,416.0,361.0,411.5" stroke="black" stroke-width="2" fill="none" />
<polyline points="353.0,400.0,355.0,392.0" stroke="black" stroke-width="2" fill="none" />
<polyline points="338.0,393.5,340.0,401.5" stroke="black" stroke-width="2" fill="none" />
<polyline points="326.5,389.5,322.5,390.0,324.5,382.5" stroke="black" stroke-width="2" fill="none" />
<polyline points="318.0,379.0,310.5,381.0,321.0,373.0,322.0,375.5,328.0,375.5,336.0,376.5,344.0,386.5,354.5,386.0" stroke="black" stroke-width="2" fill="none" />
<polyline points="338.0,382.5,339.0,390.5,345.5,390.0,347.0,398.0,339.5,406.0,344.0,410.0,342.0,410.0" stroke="black" stroke-width="2" fill="none" />
<polyline points="297.5,393.0,282.0,407.5,265.0,423.5,249.0,439.0,233.5,454.0" stroke="black" stroke-width="2" fill="none" />
<polyline points="233.5,450.5,241.5,461.5" stroke="black" stroke-width="2" fill="none" />
<polyline points="239.5,455.0,231.5,449.0" stroke="black" stroke-width="2" fill="none" />
<polyline points="210.5,446.0,219.0,455.5,227.0,465.5,234.0,475.5,242.5,483.5" stroke="black" stroke-width="2" fill="none" />
<polyline points="255.0,473.5,254.0,478.5,257.5,487.0,260.0,495.0" stroke="black" stroke-width="2" fill="none" />
<polyline points="218.5,479.5,202.0,480.0" stroke="black" stroke-width="2" fill="none" />
<polyline points="196.5,488.0,212.0,472.5" stroke="black" stroke-width="2" fill="none" />
<polyline points="200.5,452.0,185.5,468.0" stroke="black" stroke-width="2" fill="none" />
<polyline points="178.5,467.0,195.0,467.5,212.0,467.5" stroke="black" stroke-width="2" fill="none" />
<polyline points="214.0,462.0,196.5,463.0,179.5,464.0" stroke="black" stroke-width="2" fill="none" />
<polyline points="180.0,454.5,196.0,438.5,212.5,423.0" stroke="black" stroke-width="2" fill="none" />
<polyline points="201.0,425.5,186.0,441.0,169.5,456.0" stroke="black" stroke-width="2" fill="none" />
<polyline points="167.0,453.0,182.5,453.0,199.0,452.0" stroke="black" stroke-width="2" fill="none" />
<polyline points="195.0,444.5,203.0,453.5,211.0,462.0,219.0,467.0" stroke="black" stroke-width="2" fill="none" />
<polyline points="209.5,446.0,218.0,452.0,226.0,461.5,234.0,471.0,240.0,470.5,251.0,476.0" stroke="black" stroke-width="2" fill="none" />
<polyline points="221.0,448.5,212.5,438.5,211.0,435.5,202.5,439.5,202.0,434.5" stroke="black" stroke-width="2" fill="none" />
<polyline points="199.0,442.0,184.0,442.5,168.5,442.5" stroke="black" stroke-width="2" fill="none" />
<polyline points="194.0,443.5,198.5,451.5,205.5,459.5,215.5,467.5" stroke="black" stroke-width="2" fill="none" />
<polyline points="218.0,461.0,210.5,451.0,203.0,443.0,195.5,440.5" stroke="black" stroke-width="2" fill="none" />
<polyline points="192.5,428.0,184.0,421.0" stroke="black" stroke-width="2" fill="none" />
<polyline points="182.0,409.5,166.0,411.0,150.0,412.5" stroke="black" stroke-width="2" fill="none" />
<polyline points="148.0,409.5,156.0,407.5,164.0,410.0,172.0,414.0,180.5,418.5,188.5,419.5,196.0,426.0" stroke="black" stroke-width="2" fill="none" />
<polyline points="205.0,415.0,197.0,411.0,189.5,406.0,181.5,413.0,173.0,408.5,170.5,404.0,162.5,401.5,154.0,400.5" stroke="black" stroke-width="2" fill="none" />
<polyline points="158.0,395.0,166.0,394.0,174.0,397.0" stroke="black" stroke-width="2" fill="none" />
<polyline points="168.0,391.5,159.5,392.0" stroke="black" stroke-width="2" fill="none" />
<polyline points="157.5,391.0,165.5,388.5,173.5,390.5" stroke="black" stroke-width="2" fill="none" />
<polyline points="163.5,400.0,178.0,400.0,173.0,408.0,187.0,418.0,194.0,424.0,200.5,421.5,206.0,418.0,220.0,425.0,228.0,423.5,237.0,419.0,236.0,427.0,237.0,435.0,237.0,442.0,237.0,448.0,243.0,456.0,241.0,466.0,241.0,474.0,244.0,487.5,253.0,490.0,253.0,498.0,251.5,505.5,253.5,517.0,255.5,526.0,264.5,536.5,271.5,544.5,280.5,554.0" stroke="black" stroke-width="2" fill="none" />
<polyline points="267.0,506.5,267.0,498.0,266.0,494.5,257.5,485.5,248.5,489.5,249.0,486.5,251.0,478.5,249.0,475.5,244.5,463.5,238.5,455.0,233.0,447.0,227.5,433.5,219.5,425.5,211.0,417.5,202.0,409.5,192.0,402.0,190.0,402.5" stroke="black" stroke-width="2" fill="none" />
<polyline points="189.0,403.5,197.0,406.5,205.0,413.0,206.0,409.0" stroke="black" stroke-width="2" fill="none" />
<polyline points="198.0,409.0,214.0,408.0" stroke="black" stroke-width="2" fill="none" />
<polyline points="216.0,397.5,208.0,391.5" stroke="black" stroke-width="2" fill="none" />
<polyline points="211.0,386.0,221.0,394.0,229.5,402.0,238.5,409.5" stroke="black" stroke-width="2" fill="none" />
<polyline points="245.0,401.5,260.5,401.5,276.5,401.0,293.5,400.5" stroke="black" stroke-width="2" fill="none" />
<polyline points="294.0,403.0,304.0,409.0" stroke="black" stroke-width="2" fill="none" />
<polyline points="281.5,425.0,290.0,432.5,301.0,441.5,310.0,449.0,319.0,457.0" stroke="black" stroke-width="2" fill="none" />
<polyline points="320.0,465.0,320.0,460.5,311.5,453.0,303.5,446.0,296.0,439.5,288.0,433.5,279.5,426.5" stroke="black" stroke-width="2" fill="none" />
<polyline points="279.0,425.5,287.0,427.5,294.5,434.5,302.5,441.5,311.0,449.5,319.0,456.0" stroke="black" stroke-width="2" fill="none" />
<polyline points="353.0,443.0,348.0,446.0,340.0,445.0,331.0,438.0,323.5,431.0,322.0,426.0,314.0,422.5,311.5,417.0,303.5,411.0,295.0,403.5,287.0,400.5,282.5,389.5,275.0,389.5,267.0,382.0,265.0,380.0,259.0,374.5,252.5,368.5,244.0,373.0,243.5,365.0,240.5,360.0,233.0,352.5,224.5,347.0,216.5,345.5,206.0,355.0,207.0,350.0,204.0,341.5,197.5,334.0,191.0,331.0,179.0,318.5,170.5,310.0,157.5,319.0,149.0,323.0" stroke="black" stroke-width="2" fill="none" />
<polyline points="157.0,322.0,165.0,324.0" stroke="black" stroke-width="2" fill="none" />
<polyline points="164.5,312.0,156.0,323.0,160.5,331.0,163.0,339.0,169.5,344.5" stroke="black" stroke-width="2" fill="none" />
<polyline points="165.5,336.0,181.5,336.5" stroke="black" stroke-width="2" fill="none" />
<polyline points="183.0,333.5,191.0,343.5,199.5,345.5" stroke="black" stroke-width="2" fill="none" />
<polyline points="198.5,344.0,182.5,360.0" stroke="black" stroke-width="2" fill="none" />
<polyline points="182.0,364.0,197.5,364.5,214.5,364.5" stroke="black" stroke-width="2" fill="none" />
<polyline points="215.5,358.0,224.0,364.0,232.5,369.0,240.5,374.5,242.0,378.5" stroke="black" stroke-width="2" fill="none" />
<polyline points="241.0,389.5,233.0,381.5,225.0,373.5" stroke="black" stroke-width="2" fill="none" />
<polyline points="220.0,375.5,229.0,383.0" stroke="black" stroke-width="2" fill="none" />
<polyline points="233.0,389.0,225.0,383.0,217.0,376.0" stroke="black" stroke-width="2" fill="none" />
<polyline points="205.5,382.5,211.5,390.5,215.5,400.0,220.0,408.5,212.5,418.5,215.5,413.0,228.5,417.0" stroke="black" stroke-width="2" fill="none" />
<polyline points="228.5,408.0,218.5,395.0,210.5,389.0,202.5,387.0" stroke="black" stroke-width="2" fill="none" />
<polyline points="194.0,384.0,201.5,389.0,209.5,395.0,217.5,401.0,225.5,401.5,233.0,409.5" stroke="black" stroke-width="2" fill="none" />
<polyline points="241.0,396.5,235.5,396.5,232.5,388.0,221.5,380.5,215.0,366.5,207.0,360.5" stroke="black" stroke-width="2" fill="none" />
<polyline points="195.0,361.5,210.5,345.5" stroke="black" stroke-width="2" fill="none" />
<polyline points="212.5,344.5,210.5,352.5,220.0,353.5,229.0,362.0,233.0,370.0,232.5,375.0,242.0,383.0" stroke="black" stroke-width="2" fill="none" />
<polyline points="236.5,361.5,228.0,357.5,220.0,350.5" stroke="black" stroke-width="2" fill="none" />
<polyline points="215.0,345.5,199.5,345.5,184.5,346.0,169.5,345.5,153.5,345.0,136.5,345.5,119.5,346.0" stroke="black" stroke-width="2" fill="none" />
<polyline points="119.0,342.5,135.5,326.5,152.0,310.5" stroke="black" stroke-width="2" fill="none" />
<polyline points="135.5,299.5,119.5,315.0" stroke="black" stroke-width="2" fill="none" />
<polyline points="120.5,318.5,136.0,317.5,152.0,316.5,167.5,315.0,183.0,313.0" stroke="black" stroke-width="2" fill="none" />
<polyline points="187.0,323.0,195.0,323.5,203.5,320.5,211.5,313.5,220.5,306.0,222.5,307.0,230.5,303.0,238.5,296.0,246.5,289.5,254.5,281.0" stroke="black" stroke-width="2" fill="none" />
<polyline points="258.0,280.5,257.5,289.0,248.5,297.0,240.0,305.0,232.5,313.5,231.0,321.5" stroke="black" stroke-width="2" fill="none" />
<polyline points="228.5,316.0,245.0,316.5" stroke="black" stroke-width="2" fill="none" />
<polyline points="249.0,310.0,265.0,295.5,281.0,280.0" stroke="black" stroke-width="2" fill="none" />
<polyline points="281.0,295.0,265.0,311.5" stroke="black" stroke-width="2" fill="none" />
<polyline points="263.5,316.5,279.5,315.5,296.0,315.0,312.0,315.0" stroke="black" stroke-width="2" fill="none" />
<polyline points="302.5,311.5,311.5,319.5,316.5,323.5,314.0,336.5" stroke="black" stroke-width="2" fill="none" />
<polyline points="324.0,331.0,332.0,337.5,340.0,342.5,347.5,350.5,355.0,357.5,363.0,363.5,371.0,372.0,379.0,378.0,387.0,386.0" stroke="black" stroke-width="2" fill="none" />
<polyline points="374.5,338.0,358.0,338.5,343.0,338.5,327.5,339.5" stroke="black" stroke-width="2" fill="none" />
<polyline points="329.5,341.5,345.5,326.5" stroke="black" stroke-width="2" fill="none" />
<polyline points="346.0,334.5,335.0,326.5" stroke="black" stroke-width="2" fill="none" />
<polyline points="328.0,325.0,322.0,333.0,331.0,340.0,340.0,348.0,350.0,356.0,351.0,364.5,355.0,366.0,350.5,361.0" stroke="black" stroke-width="2" fill="none" />
<polyline points="324.5,363.5,326.5,362.5,327.5,370.5,325.5,377.0,332.5,385.0,341.5,392.5,334.5,395.0,335.5,398.0,331.5,397.0,335.5,402.0,339.5,402.0,342.0,404.0,343.0,410.0,346.5,406.5,354.5,407.5,358.5,403.5,366.5,407.5,372.5,402.5,380.5,395.0,390.5,394.0,392.5,398.5,395.5,409.0,396.5,416.5,383.0,427.0,375.5,432.5,383.5,426.5,395.5,416.5" stroke="black" stroke-width="2" fill="none" />
<polyline points="375.0,327.5,358.5,327.5,342.5,328.0,326.5,328.0,311.5,328.5,295.5,329.0" stroke="black" stroke-width="2" fill="none" />
<polyline points="296.0,332.5,296.5,326.5,288.5,318.0,280.5,325.0,272.0,332.0,264.0,339.0,261.0,338.0,253.0,335.5,255.0,338.5,247.0,331.0,258.5,325.5,267.5,313.5,274.5,305.5,279.5,297.5,270.5,290.0,260.5,292.0,253.0,298.0,245.0,307.0" stroke="black" stroke-width="2" fill="none" />
<polyline points="244.5,300.5,229.0,315.0" stroke="black" stroke-width="2" fill="none" />
<polyline points="231.0,309.5,247.0,309.0,263.0,308.5,279.0,307.0" stroke="black" stroke-width="2" fill="none" />
<polyline points="290.0,321.0,293.0,328.5,298.5,330.5,295.5,344.5,301.0,348.0,303.5,359.5,301.5,366.5" stroke="black" stroke-width="2" fill="none" />
<polyline points="305.5,351.5,300.5,353.5,289.5,351.5,277.5,349.0" stroke="black" stroke-width="2" fill="none" />
<polyline points="281.5,331.5,265.5,331.0" stroke="black" stroke-width="2" fill="none" />
<polyline points="250.0,330.0,234.5,331.0,219.0,331.0" stroke="black" stroke-width="2" fill="none" />
<polyline points="214.5,345.0,213.5,353.5,221.5,362.0,223.5,372.0,232.5,371.0,238.0,378.0,246.0,381.5" stroke="black" stroke-width="2" fill="none" />
<polyline points="243.0,372.0,237.0,364.5,228.0,357.0,220.5,349.5,216.5,339.5,209.0,332.5,201.0,326.0" stroke="black" stroke-width="2" fill="none" />
<polyline points="203.0,327.0,186.5,327.0,170.5,327.0,154.0,327.5,137.0,328.0,121.5,329.0" stroke="black" stroke-width="2" fill="none" />
<polyline points="122.5,329.0,139.5,313.5,155.0,297.0,171.0,281.5" stroke="black" stroke-width="2" fill="none" />
<polyline points="170.5,281.0,178.5,294.5" stroke="black" stroke-width="2" fill="none" />
<polyline points="179.5,300.0,184.5,293.5,188.5,285.5,185.0,293.5" stroke="black" stroke-width="2" fill="none" />
<polyline points="171.5,290.0,156.0,290.5" stroke="black" stroke-width="2" fill="none" />
<polyline points="153.0,290.5,161.0,298.5,169.0,302.5,181.0,307.0,189.0,314.0,197.0,317.5,209.5,329.5,216.5,335.5,224.5,342.5,233.0,349.5,240.0,356.0,248.0,362.0" stroke="black" stroke-width="2" fill="none" />
<polyline points="238.0,403.5,230.0,402.0,222.0,395.0,214.0,389.5,206.0,383.0,198.0,384.0,190.5,382.0" stroke="black" stroke-width="2" fill="none" />
<polyline points="192.0,398.0,196.0,399.0,192.0,399.0,186.0,407.0,186.0,414.5,195.0,422.0,204.5,422.0,212.0,430.0,198.0,434.0,198.5,429.0,206.5,420.0,214.5,428.0,213.5,432.5,222.0,440.5" stroke="black" stroke-width="2" fill="none" />
<polyline points="208.5,445.5,214.0,453.0,220.5,461.0,227.0,468.5,232.5,476.5,238.5,484.0,243.0,492.5,246.0,501.0,246.0,509.5" stroke="black" stroke-width="2" fill="none" />
<polyline points="214.0,496.5,214.0,499.5,219.5,508.5,228.5,512.5,237.0,517.5,245.0,525.0,253.0,523.0,254.0,533.0,262.0,538.0,270.0,549.0" stroke="black" stroke-width="2" fill="none" />
<polyline points="219.5,464.0,213.5,456.0,205.5,447.5,203.0,440.5,195.0,432.5,186.0,424.5,176.0,416.5,159.5,408.0,147.5,405.0" stroke="black" stroke-width="2" fill="none" />
<polyline points="150.0,374.0,165.5,359.0,180.5,344.0,196.0,329.0" stroke="black" stroke-width="2" fill="none" />
<polyline points="191.5,330.0,200.0,333.5" stroke="black" stroke-width="2" fill="none" />
<polyline points="192.0,337.0,200.5,343.0" stroke="black" stroke-width="2" fill="none" />
<polyline points="200.5,344.0,190.5,336.5" stroke="black" stroke-width="2" fill="none" />
<polyline points="185.5,332.5,169.5,347.5,153.0,362.5,137.0,377.5" stroke="black" stroke-width="2" fill="none" />
<polyline points="134.5,358.0,150.5,342.0" stroke="black" stroke-width="2" fill="none" />
<polyline points="154.0,336.0,162.0,346.0,170.0,348.5" stroke="black" stroke-width="2" fill="none" />
<polyline points="173.5,365.0,181.5,364.0" stroke="black" stroke-width="2" fill="none" />
<polyline points="165.0,370.5,172.5,369.5,180.5,366.5,184.5,366.0,192.5,365.5,200.5,365.0,208.5,366.0,216.0,371.0,223.0,378.0,231.0,385.0,238.5,393.0" stroke="black" stroke-width="2" fill="none" />
<polyline points="242.0,429.0,242.0,437.0,238.0,445.5" stroke="black" stroke-width="2" fill="none" />
<polyline points="252.0,489.5,242.5,488.0,240.5,485.0,235.5,477.5,231.0,469.0,229.0,466.0,223.5,458.0,219.5,447.5,215.0,439.5,211.5,436.0,214.5,425.0,205.5,417.0,195.5,409.0" stroke="black" stroke-width="2" fill="none" />
<polyline points="194.0,406.5,204.0,414.5" stroke="black" stroke-width="2" fill="none" />
<polyline points="199.0,419.0,192.0,414.0,191.0,406.0" stroke="black" stroke-width="2" fill="none" />
<polyline points="155.0,336.5,138.5,336.5,122.5,336.5" stroke="black" stroke-width="2" fill="none" />
<polyline points="124.0,325.0,140.0,325.5,155.5,325.5,171.5,325.0,187.5,325.0" stroke="black" stroke-width="2" fill="none" />
<polyline points="187.0,318.5,201.5,315.0,211.0,307.5,219.0,299.0,227.0,292.0,236.0,284.0,245.0,276.0,246.0,268.0,235.0,260.0,225.5,252.5,219.5,251.5,214.0,245.0,209.0,237.0,204.0,229.0,189.5,221.0,178.5,213.5,171.0,205.5,166.0,202.0" stroke="black" stroke-width="2" fill="none" />
<polyline points="157.0,200.0,168.0,198.0,169.5,206.5,163.5,210.5,155.0,221.0,151.0,229.0,159.5,227.0,154.5,224.5,162.5,224.5,167.0,214.5,176.0,213.5,177.0,221.5,174.0,229.0,178.0,237.0,174.5,245.0,172.5,251.0,175.5,259.0,169.0,267.0,168.0,275.0,159.5,283.0,158.5,291.0,162.5,293.0,173.0,295.0,181.0,293.5,188.5,296.0,189.5,303.0,197.0,299.5,195.0,301.5,203.0,301.5,205.5,296.0,212.5,292.0,217.5,286.0,225.5,285.5,235.0,272.5" stroke="black" stroke-width="2" fill="none" />
<polyline points="228.5,276.0,222.0,269.5,215.0,283.5,207.0,287.5,194.5,296.5,198.5,288.5" stroke="black" stroke-width="2" fill="none" />
<polyline points="205.5,291.0,207.0,299.0" stroke="black" stroke-width="2" fill="none" />
<polyline points="202.0,321.5,210.0,329.5,219.5,337.5,227.5,345.5,236.0,354.0,246.0,362.0" stroke="black" stroke-width="2" fill="none" />
<polyline points="278.5,398.0,276.5,399.0,276.0,407.0,276.0,415.0,280.0,425.5,290.0,433.5,299.0,441.5,308.0,449.0,317.0,457.0,321.5,465.0,330.5,473.0,335.5,473.0" stroke="black" stroke-width="2" fill="none" />
<polyline points="275.0,278.5,258.5,278.0,242.5,278.5,227.0,278.5,211.5,279.0,196.5,279.5,180.5,279.5,164.5,280.5,148.0,281.5,132.5,283.0,118.0,284.0,102.5,285.5" stroke="black" stroke-width="2" fill="none" />
<polyline points="104.5,292.5,121.0,292.5,137.0,292.5" stroke="black" stroke-width="2" fill="none" />
<polyline points="135.0,282.5,119.5,298.5,104.0,314.0" stroke="black" stroke-width="2" fill="none" />
<polyline points="116.5,308.5,132.5,308.0,149.0,306.5" stroke="black" stroke-width="2" fill="none" />
<polyline points="159.0,300.0,151.0,293.0,140.0,292.0,132.0,287.0,124.5,283.5,116.5,279.5,115.0,268.0,107.0,260.0,99.0,246.5" stroke="black" stroke-width="2" fill="none" />
<polyline points="100.5,251.0,116.5,250.5,132.0,250.5,147.5,250.5,163.5,251.5,179.5,252.0" stroke="black" stroke-width="2" fill="none" />
<polyline points="186.5,248.5,170.0,263.5,154.0,278.0" stroke="black" stroke-width="2" fill="none" />
<polyline points="151.5,280.0,167.5,279.0" stroke="black" stroke-width="2" fill="none" />
<polyline points="170.5,279.0,178.5,283.0" stroke="black" stroke-width="2" fill="none" />
<polyline points="182.5,268.0,198.5,267.5,214.0,267.5,229.5,267.5,245.5,267.5" stroke="black" stroke-width="2" fill="none" />
<polyline points="249.5,270.0,241.5,264.0,233.5,258.5,225.5,251.5,215.0,249.5,214.0,241.0,206.0,234.0,198.5,223.5,190.5,220.5,182.5,214.0,174.0,208.5,166.0,196.0,158.0,191.0,149.5,189.0,142.0,189.0,141.0,194.0" stroke="black" stroke-width="2" fill="none" />
<polyline points="134.5,196.0,148.5,194.0,147.5,202.0" stroke="black" stroke-width="2" fill="none" />
<polyline points="133.0,204.5,150.0,204.0,166.5,203.5,183.0,203.0" stroke="black" stroke-width="2" fill="none" />
<polyline points="169.0,214.5,153.5,229.5,137.0,246.0" stroke="black" stroke-width="2" fill="none" />
<polyline points="137.0,243.5,152.5,243.0,168.0,243.0,184.0,242.5" stroke="black" stroke-width="2" fill="none" />
<polyline points="183.0,235.0,166.5,236.0,150.5,237.0,134.0,237.5" stroke="black" stroke-width="2" fill="none" />
<polyline points="136.0,249.0,134.0,255.0,134.0,263.0,136.0,266.0,144.0,269.0,152.0,266.0,160.0,258.0,159.0,263.5" stroke="black" stroke-width="2" fill="none" />
<polyline points="171.0,265.0,155.5,265.0,140.0,265.5" stroke="black" stroke-width="2" fill="none" />
<polyline points="139.0,262.0,155.0,261.5,171.5,261.0" stroke="black" stroke-width="2" fill="none" />
<polyline points="179.0,261.5,187.0,256.5" stroke="black" stroke-width="2" fill="none" />
<polyline points="189.0,252.0,180.5,258.5,189.0,262.5,186.0,270.0,189.0,274.0" stroke="black" stroke-width="2" fill="none" />
<polyline points="189.5,266.0,181.5,261.0" stroke="black" stroke-width="2" fill="none" />
<polyline points="175.0,244.0,182.5,234.0,190.5,234.0" stroke="black" stroke-width="2" fill="none" />
<polyline points="181.0,224.5,165.0,225.5" stroke="black" stroke-width="2" fill="none" />
<polyline points="155.5,227.5,163.5,223.5,168.0,215.5,159.0,212.5" stroke="black" stroke-width="2" fill="none" />
<polyline points="134.0,210.5,126.0,217.0" stroke="black" stroke-width="2" fill="none" />
<polyline points="118.5,217.5,102.0,218.0" stroke="black" stroke-width="2" fill="none" />
<polyline points="93.0,223.0,101.0,221.0,108.5,210.5,116.5,204.0,121.0,199.0,113.0,207.5,104.0,215.5,93.5,222.5,100.5,226.0,97.5,234.0,96.5,241.5,98.5,250.0,103.5,258.0,111.0,266.5,119.0,274.5,121.5,274.5,123.5,278.5,130.5,281.5,135.5,292.0,140.0,296.5,143.0,304.5,153.0,312.5,161.5,309.5,169.5,309.5,178.0,316.0,186.0,322.0,191.0,319.0,199.5,318.0,207.5,310.5,216.0,304.5,224.0,295.0,229.0,291.0,237.0,284.5,245.0,278.0" stroke="black" stroke-width="2" fill="none" />
<polyline points="256.5,274.0,245.5,282.0,237.5,290.0,224.0,300.5,224.0,312.0,235.0,316.0,240.0,325.5,242.5,327.5,251.5,330.0,259.0,322.0" stroke="black" stroke-width="2" fill="none" />
<polyline points="280.0,304.0,272.0,311.0,264.5,317.0,256.0,319.0,247.5,316.0,246.5,320.0,239.0,322.0,241.0,316.5,246.0,309.0,248.0,301.5,258.0,293.5,265.0,285.5,260.0,277.5" stroke="black" stroke-width="2" fill="none" />
<polyline points="257.5,275.5,253.5,284.0,244.5,292.0,235.5,300.0,220.5,308.0,228.5,314.0,236.5,316.5,238.0,308.5,246.0,300.0,254.5,293.0,267.0,290.5" stroke="black" stroke-width="2" fill="none" />
<polyline points="232.5,265.5,232.0,273.5,231.5,281.0,228.5,294.0,237.0,287.5,245.5,280.0,253.5,273.0,262.0,278.0,270.0,285.5,277.5,293.5,286.0,300.0,294.0,305.0,301.5,311.0,309.5,317.5,317.5,324.0,325.0,325.0,333.0,323.0,340.0,326.5,348.0,332.5,356.0,331.0,364.0,332.5,372.0,340.0,380.0,347.0,388.0,354.0,396.0,360.5" stroke="black" stroke-width="2" fill="none" />
<polyline points="240.5,399.0,236.0,404.5,241.5,399.0,238.0,392.0,234.0,384.0,225.0,376.0,215.0,370.0,207.0,362.0,203.0,353.0,193.0,347.0,184.0,339.5,183.0,331.5,179.5,323.5,177.5,311.5,171.5,302.5,159.0,296.5,149.5,289.0" stroke="black" stroke-width="2" fill="none" />
<polyline points="119.5,281.0,104.0,296.0" stroke="black" stroke-width="2" fill="none" />
<polyline points="100.5,300.0,116.5,300.0,132.0,300.0,149.0,300.0,166.5,299.5" stroke="black" stroke-width="2" fill="none" />
<polyline points="158.5,334.5,166.5,342.0" stroke="black" stroke-width="2" fill="none" />
<polyline points="181.0,314.5,185.0,310.5,177.0,303.0,169.0,301.5,175.0,293.5,177.0,289.5,174.5,284.5,172.5,277.0,175.0,269.5,175.0,265.5,168.0,260.5,166.0,253.0,157.5,243.5,149.5,242.5" stroke="black" stroke-width="2" fill="none" />
<polyline points="150.5,243.5,149.5,242.5,151.5,251.0,146.0,252.0,152.5,255.5" stroke="black" stroke-width="2" fill="none" />
<polyline points="145.0,257.5,137.0,257.5" stroke="black" stroke-width="2" fill="none" />
<polyline points="141.5,248.0,135.5,247.0,125.5,265.5,121.0,260.5,125.5,253.0,125.5,245.0,124.5,234.5,122.0,225.5,120.0,217.0,119.0,208.5,118.5,204.5" stroke="black" stroke-width="2" fill="none" />
<polyline points="126.0,198.0,134.0,193.0,139.0,191.0,131.0,194.5,126.0,202.5,124.0,210.0,126.5,218.5,129.5,225.5,133.0,229.0,131.5,236.5,131.0,245.5,132.0,253.5,130.0,261.5,130.0,269.0" stroke="black" stroke-width="2" fill="none" />
<polyline points="125.5,253.5,126.5,261.5,122.5,270.0,135.5,271.5,143.0,272.5,150.5,270.0" stroke="black" stroke-width="2" fill="none" />
<polyline points="163.0,246.0,171.0,249.0,173.5,253.0,179.5,250.5,187.5,248.5,196.0,246.0,204.0,246.0,212.5,246.5" stroke="black" stroke-width="2" fill="none" />
<polyline points="222.0,258.5,227.5,260.5,229.0,265.5,229.5,274.0,224.0,278.5,228.0,281.5,222.0,283.5,214.5,289.0,219.0,291.5,212.0,294.5,217.5,306.5,206.5,314.5,197.5,322.0,207.0,330.5,214.5,337.5,223.5,347.0,232.5,355.0,241.0,361.0,246.0,364.0,241.5,368.0,253.5,371.5,264.0,379.5,273.0,388.0,282.0,396.5,290.5,404.5,299.5,413.0,308.5,421.0,319.0,428.5,317.5,431.5,329.5,437.0,327.5,445.0,326.5,453.0,327.0,458.0,326.0,465.5,327.5,469.5,326.5,458.0,336.5,456.0,340.5,457.0,334.5,458.5,337.5,463.0,332.0,471.0,330.0,474.5,332.5,473.5,337.0,478.5,342.5,479.5,351.0,475.5,363.0,476.5,371.0,465.5,384.0,462.5,390.0,467.0" stroke="black" stroke-width="2" fill="none" />
<polyline points="158.5,341.0,152.0,333.0,150.0,325.0,154.5,317.0,161.5,309.0,157.0,299.5,149.0,291.0,134.0,296.0,126.0,296.0,118.0,291.5" stroke="black" stroke-width="2" fill="none" />
<polyline points="113.5,286.0,121.5,289.5,129.0,293.5" stroke="black" stroke-width="2" fill="none" />
<polyline points="121.5,296.0,111.5,288.0,106.0,279.5,102.0,271.5,102.0,271.5" stroke="black" stroke-width="2" fill="none" />
<polyline points="91.0,250.5,101.0,259.0,108.0,267.0,115.0,275.0,112.5,282.0,128.5,287.5,134.5,299.5,142.0,302.5,150.0,309.5" stroke="black" stroke-width="2" fill="none" />
<polyline points="112.0,347.0,120.0,350.5,127.0,359.5,134.5,369.5,139.5,375.5,147.5,381.0,154.5,384.0" stroke="black" stroke-width="2" fill="none" />
<polyline points="121.5,246.5,117.0,238.5,111.0,238.5" stroke="black" stroke-width="2" fill="none" />
<polyline points="110.5,233.5,118.5,238.5,126.5,238.5" stroke="black" stroke-width="2" fill="none" />
<polyline points="117.0,233.0,101.0,233.0" stroke="black" stroke-width="2" fill="none" />
<polyline points="105.0,239.5,106.0,234.5,111.5,231.0,103.0,238.5,108.5,241.0,108.5,248.5,110.5,249.5,118.5,247.5,130.5,242.5,134.5,238.5" stroke="black" stroke-width="2" fill="none" />
<polyline points="151.0,242.0,159.5,250.0,157.0,258.0,152.0,266.5,158.0,264.0" stroke="black" stroke-width="2" fill="none" />
</svg>