<svg xmlns="http://www.w3.org/2000/svg" version="1.1"><polyline points="214.5,80.0,203.5,87.5,200.0,95.5,196.5,103.0,195.5,110.0,191.5,117.5,189.5,125.5" stroke="black" stroke-width="2" fill="none" />
<polyline points="187.0,133.0,171.0,149.0,155.5,165.0,139.5,180.5,123.0,195.0,106.0,210.5,90.5,226.5" stroke="black" stroke-width="2" fill="none" />
<polyline points="88.5,234.5,104.0,233.5,119.5,233.0,134.5,233.0,150.0,233.0,166.0,232.5,182.0,232.0,199.5,232.0,216.5,231.5,232.0,230.0,247.5,228.5,265.0,228.0,282.0,228.0,298.5,227.5,314.5,227.5" stroke="black" stroke-width="2" fill="none" />
<polyline points="312.5,230.0,297.0,245.5,281.0,260.5" stroke="black" stroke-width="2" fill="none" />
<polyline points="282.0,259.5,297.5,259.0,313.5,259.0" stroke="black" stroke-width="2" fill="none" />
<polyline points="313.5,267.5,297.5,281.5" stroke="black" stroke-width="2" fill="none" />
<polyline points="299.5,279.0,315.0,278.0" stroke="black" stroke-width="2" fill="none" />
<polyline points="313.5,286.0,329.5,285.5" stroke="black" stroke-width="2" fill="none" />
<polyline points="328.5,296.5,312.0,312.0" stroke="black" stroke-width="2" fill="none" />
<polyline points="312.0,311.0,328.5,309.5" stroke="black" stroke-width="2" fill="none" />
<polyline points="330.5,303.0,338.5,303.0" stroke="black" stroke-width="2" fill="none" />
<polyline points="337.5,299.0,329.5,300.0" stroke="black" stroke-width="2" fill="none" />
<polyline points="328.5,298.5,312.5,300.0" stroke="black" stroke-width="2" fill="none" />
<polyline points="307.0,316.5,299.0,316.5" stroke="black" stroke-width="2" fill="none" />
<polyline points="295.0,334.0,279.5,336.0" stroke="black" stroke-width="2" fill="none" />
<polyline points="285.0,336.5,286.5,344.5,294.5,352.0,298.5,360.0,305.5,367.5,313.5,375.5,320.5,383.5,328.0,391.5,336.0,399.5,343.5,407.5,350.5,415.5" stroke="black" stroke-width="2" fill="none" />
<polyline points="344.0,412.0,359.5,412.0,374.0,411.5" stroke="black" stroke-width="2" fill="none" />
<polyline points="357.5,404.0,374.0,388.0" stroke="black" stroke-width="2" fill="none" />
<polyline points="372.5,378.5,389.5,378.0,406.0,378.0,423.0,377.5,440.5,377.5,456.0,377.5,473.0,377.0" stroke="black" stroke-width="2" fill="none" />
<polyline points="481.5,357.5,498.5,357.5" stroke="black" stroke-width="2" fill="none" />
<polyline points="505.5,355.0,522.5,339.0" stroke="black" stroke-width="2" fill="none" />
<polyline points="505.0,339.5,488.5,355.0" stroke="black" stroke-width="2" fill="none" />
<polyline points="485.0,339.5,501.0,323.0" stroke="black" stroke-width="2" fill="none" />
<polyline points="496.0,315.5,504.5,315.5,512.5,315.0" stroke="black" stroke-width="2" fill="none" />
<polyline points="518.5,333.0,502.0,334.0,485.5,335.0,470.0,335.5" stroke="black" stroke-width="2" fill="none" />
<polyline points="459.0,331.0,459.0,339.0,450.5,347.0" stroke="black" stroke-width="2" fill="none" />
<polyline points="456.0,347.0,472.0,346.5,487.5,347.0,503.5,347.0,520.5,347.0" stroke="black" stroke-width="2" fill="none" />
<polyline points="520.5,381.0,504.5,381.5" stroke="black" stroke-width="2" fill="none" />
<polyline points="518.0,393.5,502.0,395.0,486.5,395.0" stroke="black" stroke-width="2" fill="none" />
<polyline points="484.5,409.0,500.5,408.5" stroke="black" stroke-width="2" fill="none" />
<polyline points="502.0,424.0,509.5,427.0" stroke="black" stroke-width="2" fill="none" />
<polyline points="519.5,428.0,503.0,429.0,486.5,429.5" stroke="black" stroke-width="2" fill="none" />
<polyline points="487.0,422.5,495.0,423.5,506.0,416.5" stroke="black" stroke-width="2" fill="none" />
<polyline points="473.5,425.5,458.0,426.5,443.0,427.0,427.0,428.0" stroke="black" stroke-width="2" fill="none" />
<polyline points="436.5,427.5,439.5,427.5,447.5,428.5,456.0,434.0,464.0,437.0" stroke="black" stroke-width="2" fill="none" />
<polyline points="456.0,433.0,448.5,433.0,446.5,438.0" stroke="black" stroke-width="2" fill="none" />
<polyline points="452.5,447.5,460.5,442.5,469.0,439.5,478.0,441.5,482.0,446.5,487.0,451.5,500.0,455.5" stroke="black" stroke-width="2" fill="none" />
<polyline points="511.5,471.0,503.0,474.0,495.0,477.0" stroke="black" stroke-width="2" fill="none" />
<polyline points="493.5,475.5,502.5,476.5,508.0,471.0,503.0,472.0,493.5,474.5,495.5,482.5,494.0,487.0,495.0,497.5,496.0,499.5" stroke="black" stroke-width="2" fill="none" />
<polyline points="502.5,492.5,519.0,491.5" stroke="black" stroke-width="2" fill="none" />
<polyline points="520.5,477.0,504.5,478.0" stroke="black" stroke-width="2" fill="none" />
<polyline points="491.5,478.0,499.5,469.5,489.5,470.5,480.0,472.5,475.0,480.5,485.0,483.0,478.5,490.5,474.5,500.0,474.5,508.0,480.5,509.0,482.5,512.0,485.0,509.0" stroke="black" stroke-width="2" fill="none" />
<polyline points="485.0,513.0,501.5,512.0,518.5,511.0" stroke="black" stroke-width="2" fill="none" />
<polyline points="506.5,493.5,507.5,492.5,498.0,494.0,494.5,486.5,489.0,488.5,484.5,492.5,481.0,487.5,473.0,491.0,460.0,497.0,448.0,502.0,441.0,511.0,441.0,503.0,436.0,498.5,438.0,493.0,431.0,491.0,431.5,483.0,427.5,476.0,424.0,467.5,424.0,475.5" stroke="black" stroke-width="2" fill="none" />
<polyline points="420.0,467.5,408.0,463.5,400.5,463.5" stroke="black" stroke-width="2" fill="none" />
<polyline points="397.0,464.0,387.5,464.0,390.5,472.0,393.0,480.0,397.0,488.0,400.5,496.5,403.5,504.5" stroke="black" stroke-width="2" fill="none" />
<polyline points="406.0,497.5,416.5,503.0,425.5,504.0,431.5,499.5,439.0,496.5,449.0,493.0" stroke="black" stroke-width="2" fill="none" />
<polyline points="452.0,491.5,467.5,491.5,483.5,492.0" stroke="black" stroke-width="2" fill="none" />
<polyline points="486.5,489.0,487.5,497.0,479.5,506.5" stroke="black" stroke-width="2" fill="none" />
<polyline points="467.5,510.0,451.0,510.5" stroke="black" stroke-width="2" fill="none" />
<polyline points="457.5,509.0,455.0,509.0,447.0,510.0,444.0,507.0,444.5,494.0,442.5,494.0,446.5,486.5,453.5,485.5,446.5,484.5" stroke="black" stroke-width="2" fill="none" />
<polyline points="442.0,473.0,458.5,473.0" stroke="black" stroke-width="2" fill="none" />
<polyline points="462.5,483.0,463.5,480.0,471.5,483.0,478.5,483.0,479.5,473.0,487.0,467.0,492.0,470.0" stroke="black" stroke-width="2" fill="none" />
<polyline points="484.5,477.0,469.0,477.0" stroke="black" stroke-width="2" fill="none" />
<polyline points="465.5,493.5,468.5,501.5,464.0,509.5" stroke="black" stroke-width="2" fill="none" />
<polyline points="464.5,510.0,467.0,502.0" stroke="black" stroke-width="2" fill="none" />
<polyline points="451.0,473.5,443.0,475.5,441.5,470.0" stroke="black" stroke-width="2" fill="none" />
<polyline points="439.5,473.5,447.0,462.5,456.5,461.5,460.0,452.5" stroke="black" stroke-width="2" fill="none" />
<polyline points="458.5,446.0,453.5,454.0,459.5,461.5,458.5,463.5,467.0,460.5,475.0,459.5,484.0,463.5,491.5,462.5,499.5,464.0,501.0,461.0,509.0,462.0,512.0,458.0" stroke="black" stroke-width="2" fill="none" />
<polyline points="507.0,430.0,499.0,430.0,495.0,434.0,486.5,429.5,478.5,429.5,472.0,426.5,464.0,424.5" stroke="black" stroke-width="2" fill="none" />
<polyline points="473.0,448.5,465.0,455.5,473.0,448.5,474.5,451.5" stroke="black" stroke-width="2" fill="none" />
<polyline points="475.0,450.5,475.5,459.5,467.5,464.0,475.5,464.0" stroke="black" stroke-width="2" fill="none" />
<polyline points="440.5,456.5,424.5,457.5" stroke="black" stroke-width="2" fill="none" />
<polyline points="422.5,461.5,419.5,469.5,421.0,474.5,423.0,479.5,422.0,487.5,423.0,491.5,423.0,502.5,415.5,506.5,422.0,510.0" stroke="black" stroke-width="2" fill="none" />
<polyline points="411.5,485.5,395.0,501.5" stroke="black" stroke-width="2" fill="none" />
<polyline points="392.5,493.0,408.0,492.5" stroke="black" stroke-width="2" fill="none" />
<polyline points="401.5,487.0,410.0,489.0,411.0,496.0,417.5,500.0,425.5,489.0,433.5,488.0,435.5,484.5,444.0,487.5,452.0,488.5,459.5,492.0,467.5,498.0,479.5,500.0" stroke="black" stroke-width="2" fill="none" />
<polyline points="429.0,473.5,429.0,468.5,425.0,463.0,417.0,464.0,406.0,467.0,398.0,467.0" stroke="black" stroke-width="2" fill="none" />
<polyline points="385.0,469.5,392.5,488.0,400.5,506.0" stroke="black" stroke-width="2" fill="none" />
<polyline points="396.0,510.0,391.0,502.0,391.0,495.0,386.0,492.0,381.0,495.5,369.0,498.0,361.0,493.0,352.5,496.0,342.5,505.0,340.0,511.5,337.0,507.5,345.5,499.5,337.5,497.5,339.5,484.5,338.5,480.5,336.5,475.5,334.0,463.5,329.0,451.0,323.0,446.0,315.5,447.5,308.0,449.5" stroke="black" stroke-width="2" fill="none" />
<polyline points="310.5,466.5,319.0,462.5,323.0,465.0,331.0,467.0,331.5,469.0,335.5,462.5,343.0,462.0,350.5,454.5" stroke="black" stroke-width="2" fill="none" />
<polyline points="342.5,465.5,350.5,465.5,348.5,463.0,355.5,465.0,342.0,470.0,346.0,472.5,349.5,483.0,345.0,491.0,349.5,501.0,340.5,512.5" stroke="black" stroke-width="2" fill="none" />
<polyline points="342.0,507.0,326.5,507.5" stroke="black" stroke-width="2" fill="none" />
<polyline points="339.0,495.0,347.0,495.0,355.5,498.5" stroke="black" stroke-width="2" fill="none" />
<polyline points="358.5,496.5,374.5,495.5" stroke="black" stroke-width="2" fill="none" />
<polyline points="366.0,511.5,372.0,502.5,364.0,494.0,362.0,485.5,356.0,491.5,352.0,487.5,351.0,492.5,355.5,484.5,342.5,472.5" stroke="black" stroke-width="2" fill="none" />
<polyline points="338.5,466.5,346.5,470.5,348.5,468.5,362.5,463.5" stroke="black" stroke-width="2" fill="none" />
<polyline points="373.0,456.0,389.0,455.0" stroke="black" stroke-width="2" fill="none" />
<polyline points="380.0,458.0,397.0,443.5" stroke="black" stroke-width="2" fill="none" />
<polyline points="392.0,444.0,376.5,443.5" stroke="black" stroke-width="2" fill="none" />
<polyline points="367.5,442.0,365.5,442.0,360.5,446.5,365.5,446.5,370.5,450.5,370.0,457.0,377.0,460.0,381.0,468.0,386.5,476.0,389.5,484.0,389.0,491.5,384.5,500.0,381.0,510.0" stroke="black" stroke-width="2" fill="none" />
<polyline points="406.0,509.0,398.0,490.5,390.0,471.5,382.5,462.5,378.0,464.5,369.0,464.5,364.0,472.5,356.0,468.0,353.0,460.5,350.0,449.0,342.0,448.5,334.5,446.0,321.5,451.0,313.5,452.0,309.0,462.0,300.5,460.0,292.5,461.5,284.5,460.5,276.5,462.5" stroke="black" stroke-width="2" fill="none" />
<polyline points="276.5,467.0,262.5,464.5,254.5,465.5,246.0,469.5,237.5,467.5,232.0,472.5,224.0,477.5,216.0,472.5" stroke="black" stroke-width="2" fill="none" />
<polyline points="218.0,484.0,202.0,499.5" stroke="black" stroke-width="2" fill="none" />
<polyline points="200.0,495.0,216.0,494.5" stroke="black" stroke-width="2" fill="none" />
<polyline points="221.0,495.0,229.0,496.5" stroke="black" stroke-width="2" fill="none" />
<polyline points="230.0,472.0,213.5,471.5,198.0,472.5,182.5,472.5" stroke="black" stroke-width="2" fill="none" />
<polyline points="185.0,471.5,177.0,472.0,184.0,463.5" stroke="black" stroke-width="2" fill="none" />
<polyline points="179.5,461.0,185.5,457.0,179.5,466.0,182.5,474.0,191.5,480.0,195.5,484.0,194.5,478.5,183.0,488.5,188.0,496.5,186.5,503.5,185.5,511.5,177.5,505.5,186.5,499.5,189.5,492.5" stroke="black" stroke-width="2" fill="none" />
<polyline points="182.5,506.5,198.0,506.0" stroke="black" stroke-width="2" fill="none" />
<polyline points="170.5,485.5,153.0,502.0,136.0,518.5" stroke="black" stroke-width="2" fill="none" />
<polyline points="133.5,502.0,150.0,502.0,167.0,502.5" stroke="black" stroke-width="2" fill="none" />
<polyline points="168.0,487.5,152.5,486.5,137.0,486.5" stroke="black" stroke-width="2" fill="none" />
<polyline points="136.0,487.0,152.0,471.5,168.0,455.5,183.0,440.0" stroke="black" stroke-width="2" fill="none" />
<polyline points="181.0,444.0,182.0,442.5,182.5,438.5,190.5,439.0,198.5,437.0,205.0,429.0" stroke="black" stroke-width="2" fill="none" />
<polyline points="218.0,426.5,233.5,427.0" stroke="black" stroke-width="2" fill="none" />
<polyline points="232.0,421.5,216.5,437.0" stroke="black" stroke-width="2" fill="none" />
<polyline points="215.5,438.5,232.0,437.5" stroke="black" stroke-width="2" fill="none" />
<polyline points="229.5,434.0,237.5,430.0,245.5,431.0,254.0,429.0,262.5,429.0,271.5,431.5,262.5,439.5,265.0,447.5,260.5,450.5,262.5,456.5,272.0,466.5,282.5,477.5,281.5,488.5,285.5,492.5,290.0,496.5,281.0,502.5,273.5,510.5,276.5,502.5,277.5,501.0,286.0,501.5,290.0,504.0,301.0,504.0,309.0,505.0,313.5,511.5,319.5,504.0,321.5,497.5,327.5,493.5,329.0,502.0,336.0,511.0,345.0,505.5,353.5,505.5" stroke="black" stroke-width="2" fill="none" />
<polyline points="340.5,485.5,332.5,488.0" stroke="black" stroke-width="2" fill="none" />
<polyline points="331.0,481.0,334.0,489.0,318.5,492.0,322.5,496.0,330.5,494.5,333.0,502.0,331.5,510.5" stroke="black" stroke-width="2" fill="none" />
<polyline points="307.5,505.5,299.5,506.5,288.0,507.0,278.0,505.0,275.0,510.0,259.5,502.5,263.5,494.5,259.5,499.0" stroke="black" stroke-width="2" fill="none" />
<polyline points="260.0,481.5,261.0,476.0,261.0,484.0,263.0,483.0,276.0,474.5,284.0,474.5" stroke="black" stroke-width="2" fill="none" />
<polyline points="286.5,476.5,291.5,474.0,285.5,472.0,288.5,463.5" stroke="black" stroke-width="2" fill="none" />
<polyline points="296.0,463.5,304.0,463.5,313.5,473.5,317.5,479.5,327.0,478.5,335.0,477.0" stroke="black" stroke-width="2" fill="none" />
<polyline points="325.0,483.5,325.0,487.5" stroke="black" stroke-width="2" fill="none" />
<polyline points="303.5,493.0,306.5,501.0,310.5,505.5,306.5,504.5,306.5,512.0" stroke="black" stroke-width="2" fill="none" />
<polyline points="299.5,502.0,294.0,510.0" stroke="black" stroke-width="2" fill="none" />
<polyline points="291.5,508.5,275.0,509.0" stroke="black" stroke-width="2" fill="none" />
<polyline points="278.0,493.5,294.0,493.0" stroke="black" stroke-width="2" fill="none" />
<polyline points="267.5,474.5,251.5,475.0" stroke="black" stroke-width="2" fill="none" />
<polyline points="249.0,480.5,244.5,488.5,245.5,491.5,249.0,500.5,256.5,510.0" stroke="black" stroke-width="2" fill="none" />
<polyline points="246.5,470.5,254.0,472.0,262.5,471.0,266.5,475.0,267.0,478.0,274.5,475.0,281.0,489.0,285.0,491.0,287.0,494.0,295.0,495.0,303.5,493.0,305.0,496.5,318.0,495.5,324.0,486.5,332.5,481.5,337.0,474.5,341.5,479.5,349.0,479.5,357.0,479.5,364.5,484.5,372.0,492.0" stroke="black" stroke-width="2" fill="none" />
<polyline points="391.5,487.0,396.0,495.0,399.0,503.5,402.5,511.5" stroke="black" stroke-width="2" fill="none" />
<polyline points="399.0,451.5,409.0,455.0,394.5,466.0,397.0,474.0,399.5,482.0,403.0,490.5,406.0,498.5,410.0,506.5,413.0,508.5,421.5,508.0,431.5,503.0,441.5,499.0,442.5,497.5,450.5,504.5,458.5,503.5,463.5,501.0,470.0,505.0,481.0,501.5,489.0,495.5,493.5,504.0,498.5,501.0,506.5,501.0,513.0,497.0,507.0,505.5,501.5,508.5,509.5,504.0" stroke="black" stroke-width="2" fill="none" />
<polyline points="388.5,451.0,372.0,451.5" stroke="black" stroke-width="2" fill="none" />
<polyline points="388.0,443.0,396.5,443.5,404.5,444.0,414.5,442.0,422.5,442.5,428.5,445.5,434.0,452.5" stroke="black" stroke-width="2" fill="none" />
<polyline points="412.5,424.0,404.5,423.0,396.5,420.5" stroke="black" stroke-width="2" fill="none" />
<polyline points="374.5,395.0,358.5,395.5" stroke="black" stroke-width="2" fill="none" />
<polyline points="359.5,384.5,344.5,385.5" stroke="black" stroke-width="2" fill="none" />
<polyline points="341.5,388.5,357.5,373.0" stroke="black" stroke-width="2" fill="none" />
<polyline points="360.0,360.5,344.0,376.0" stroke="black" stroke-width="2" fill="none" />
<polyline points="340.0,380.0,355.5,379.5" stroke="black" stroke-width="2" fill="none" />
<polyline points="355.5,361.5,339.5,362.0" stroke="black" stroke-width="2" fill="none" />
<polyline points="328.0,360.0,343.5,343.5" stroke="black" stroke-width="2" fill="none" />
<polyline points="346.0,347.0,354.5,342.5,362.5,342.5" stroke="black" stroke-width="2" fill="none" />
<polyline points="369.5,343.0,386.5,343.0,404.0,342.0,421.0,341.0,438.0,340.5" stroke="black" stroke-width="2" fill="none" />
<polyline points="425.5,340.0,409.0,355.5" stroke="black" stroke-width="2" fill="none" />
<polyline points="413.0,351.0,421.5,352.0,429.0,352.0" stroke="black" stroke-width="2" fill="none" />
<polyline points="411.0,327.5,395.0,343.5" stroke="black" stroke-width="2" fill="none" />
<polyline points="388.5,340.0,372.5,340.5" stroke="black" stroke-width="2" fill="none" />
<polyline points="375.5,341.0,391.0,325.0" stroke="black" stroke-width="2" fill="none" />
<polyline points="399.0,327.5,417.0,335.5,429.0,343.5" stroke="black" stroke-width="2" fill="none" />
<polyline points="405.5,333.5,390.0,334.0,373.0,334.5" stroke="black" stroke-width="2" fill="none" />
<polyline points="362.0,333.5,346.0,334.5,330.5,334.0" stroke="black" stroke-width="2" fill="none" />
<polyline points="333.0,340.5,330.0,332.5,326.5,324.5,322.5,316.0,320.5,308.5,316.5,300.5,312.0,292.5,309.0,285.0,305.5,277.0,301.5,269.0,297.5,261.5,294.5,253.5,292.5,242.0,289.5,247.0" stroke="black" stroke-width="2" fill="none" />
<polyline points="294.5,247.5,301.5,263.0,308.5,279.0,316.0,296.5" stroke="black" stroke-width="2" fill="none" />
<polyline points="294.0,298.5,302.5,296.5,294.5,301.5,295.5,309.5,306.0,324.5,298.5,328.5,302.5,329.5,311.0,330.0,312.5,325.0,321.5,324.5,320.5,332.5,320.5,340.5" stroke="black" stroke-width="2" fill="none" />
<polyline points="321.0,347.5,312.5,349.0,303.5,346.0,316.0,349.5,318.0,341.5,317.5,333.0,317.5,324.5,317.0,317.0,314.0,308.5,308.0,305.5,310.0,297.5,306.5,291.0,302.5,283.0,293.5,287.0" stroke="black" stroke-width="2" fill="none" />
<polyline points="295.5,268.5,311.5,267.5" stroke="black" stroke-width="2" fill="none" />
<polyline points="298.5,265.0,314.5,249.5" stroke="black" stroke-width="2" fill="none" />
<polyline points="309.0,239.0,292.5,239.5" stroke="black" stroke-width="2" fill="none" />
<polyline points="297.5,238.0,305.5,229.0" stroke="black" stroke-width="2" fill="none" />
<polyline points="312.5,225.0,296.5,225.0,280.0,224.0,264.0,224.5,248.0,224.5,232.5,225.0,217.0,226.0" stroke="black" stroke-width="2" fill="none" />
<polyline points="215.5,218.0,231.5,217.0,248.0,216.5,263.5,217.5,278.0,219.0,294.0,219.5,309.5,219.0" stroke="black" stroke-width="2" fill="none" />
<polyline points="310.0,211.5,294.5,227.0,278.5,243.0,262.5,259.0,246.5,275.0" stroke="black" stroke-width="2" fill="none" />
<polyline points="246.0,273.5,262.0,273.0" stroke="black" stroke-width="2" fill="none" />
<polyline points="256.5,276.5,260.5,278.5,261.0,286.5,261.0,294.5,260.5,302.0,260.5,310.0,258.5,318.0" stroke="black" stroke-width="2" fill="none" />
<polyline points="265.5,315.5,250.0,316.0" stroke="black" stroke-width="2" fill="none" />
<polyline points="249.0,317.0,257.0,320.0" stroke="black" stroke-width="2" fill="none" />
<polyline points="262.0,321.0,246.0,321.5,230.5,322.0,214.5,321.5,198.5,322.0,182.0,322.5,166.5,322.5,150.0,323.5,133.0,323.5,116.5,325.0,100.5,326.5,84.0,328.0,68.0,330.0,52.5,332.0,37.5,333.0,22.0,333.5,6.0,334.0" stroke="black" stroke-width="2" fill="none" />
<polyline points="3.0,333.0,3.5,341.0,5.0,348.0,3.0,358.0,11.0,351.5,18.5,350.5,26.5,348.5,34.5,349.0,42.5,356.0" stroke="black" stroke-width="2" fill="none" />
<polyline points="46.5,346.0,49.5,342.0,57.5,342.5" stroke="black" stroke-width="2" fill="none" />
<polyline points="66.5,341.5,83.0,340.5,100.5,339.0,117.5,337.5,135.0,336.5,153.0,336.0,169.0,335.0,185.5,333.5,202.0,333.0,218.5,333.5,234.5,334.0,251.5,333.5" stroke="black" stroke-width="2" fill="none" />
<polyline points="246.5,331.5,250.5,337.5,255.5,343.0" stroke="black" stroke-width="2" fill="none" />
<polyline points="261.0,349.5,268.5,337.0,280.5,332.0,287.0,336.5,290.0,342.5,296.5,340.5,305.0,341.5,313.0,344.5" stroke="black" stroke-width="2" fill="none" />
<polyline points="315.0,347.5,299.5,362.5" stroke="black" stroke-width="2" fill="none" />
<polyline points="306.0,359.0,314.0,367.0,322.5,376.0,330.0,384.0,338.0,389.5,343.0,398.5,351.0,407.5" stroke="black" stroke-width="2" fill="none" />
<polyline points="365.5,401.0,357.5,383.0,349.5,364.0,345.0,344.0,345.0,336.0,345.5,328.0,348.0,320.5,346.5,321.5" stroke="black" stroke-width="2" fill="none" />
<polyline points="349.0,321.0,351.0,329.0,351.0,337.0,350.0,345.0,355.0,349.0,363.5,347.5,370.5,345.5,378.5,346.5,386.5,346.0,394.0,346.0,402.0,344.5,410.0,349.5,418.0,346.0,425.5,345.0,433.5,346.5,438.5,348.0,451.0,348.0" stroke="black" stroke-width="2" fill="none" />
<polyline points="472.0,353.0,480.0,352.0,488.0,352.0,496.0,352.0,504.5,351.5,512.5,351.5" stroke="black" stroke-width="2" fill="none" />
<polyline points="495.5,333.0,484.5,325.0,478.5,319.0" stroke="black" stroke-width="2" fill="none" />
<polyline points="474.0,317.5,482.0,317.5,490.5,320.5,500.5,319.5,490.0,321.0,496.0,323.0,504.5,319.0,512.5,318.0" stroke="black" stroke-width="2" fill="none" />
<polyline points="481.5,315.5,473.5,316.5,465.5,315.0" stroke="black" stroke-width="2" fill="none" />
<polyline points="461.0,314.0,469.0,309.5,477.0,311.0,484.5,311.0,492.5,311.0,500.5,310.0,509.0,310.0" stroke="black" stroke-width="2" fill="none" />
<polyline points="493.5,330.0,485.5,326.0,477.5,324.0,469.5,326.0,461.5,327.5,454.0,331.0,446.0,335.5,438.0,341.5,430.5,341.5,422.5,336.5,414.5,332.0,406.5,328.5,398.0,325.5,390.0,324.5,382.0,323.0,380.0,326.0,372.5,332.5,365.5,336.0,366.5,328.5,364.5,320.5,354.5,321.5" stroke="black" stroke-width="2" fill="none" />
<polyline points="354.0,322.5,354.0,330.5,354.5,338.5" stroke="black" stroke-width="2" fill="none" />
<polyline points="347.0,329.5,330.0,344.0" stroke="black" stroke-width="2" fill="none" />
<polyline points="326.0,350.5,342.5,350.5,358.5,350.5" stroke="black" stroke-width="2" fill="none" />
<polyline points="342.5,354.5,326.0,355.0" stroke="black" stroke-width="2" fill="none" />
<polyline points="314.5,346.5,298.0,346.5,281.5,346.5,264.5,346.5,247.5,346.0,231.0,346.0" stroke="black" stroke-width="2" fill="none" />
<polyline points="229.0,344.5,244.5,328.5" stroke="black" stroke-width="2" fill="none" />
<polyline points="246.5,326.0,254.5,328.0" stroke="black" stroke-width="2" fill="none" />
<polyline points="257.5,321.5,249.0,321.5" stroke="black" stroke-width="2" fill="none" />
<polyline points="248.0,309.0,264.0,293.5" stroke="black" stroke-width="2" fill="none" />
<polyline points="266.5,306.0,250.0,307.5" stroke="black" stroke-width="2" fill="none" />
<polyline points="246.5,300.5,263.0,299.5" stroke="black" stroke-width="2" fill="none" />
<polyline points="262.0,281.5,246.0,282.0" stroke="black" stroke-width="2" fill="none" />
<polyline points="251.0,272.5,257.0,279.5,255.0,287.5,254.0,295.5,251.5,303.5,250.0,311.5,248.5,319.5,248.5,327.5,245.5,337.5,243.0,345.0,242.0,353.0,240.0,361.0,239.5,369.0,237.5,377.0,237.5,382.0,246.0,365.0,249.5,354.0,248.0,361.0,244.0,369.0,241.0,376.5" stroke="black" stroke-width="2" fill="none" />
<polyline points="250.5,377.0,266.0,361.5" stroke="black" stroke-width="2" fill="none" />
<polyline points="277.0,357.5,276.0,365.5,276.5,374.0" stroke="black" stroke-width="2" fill="none" />
<polyline points="268.5,376.5,284.5,376.5" stroke="black" stroke-width="2" fill="none" />
<polyline points="283.0,361.5,299.5,346.5" stroke="black" stroke-width="2" fill="none" />
<polyline points="294.5,353.0,302.5,361.0,309.5,369.0,317.5,377.5,324.5,385.5,333.0,393.5,339.5,401.5,347.5,409.5,354.0,417.5" stroke="black" stroke-width="2" fill="none" />
<polyline points="318.0,432.5,311.0,427.0,303.0,427.0" stroke="black" stroke-width="2" fill="none" />
<polyline points="285.5,423.5,277.5,421.5" stroke="black" stroke-width="2" fill="none" />
<polyline points="267.0,423.0,279.5,423.0,281.5,432.5,292.0,440.5,289.0,438.0,294.5,444.0" stroke="black" stroke-width="2" fill="none" />
<polyline points="282.0,443.5,266.5,444.5" stroke="black" stroke-width="2" fill="none" />
<polyline points="258.5,439.5,266.5,440.5,274.0,439.5,281.5,432.0,283.0,427.5,291.0,427.0" stroke="black" stroke-width="2" fill="none" />
<polyline points="271.5,431.5,263.0,431.5" stroke="black" stroke-width="2" fill="none" />
<polyline points="254.5,447.0,262.5,444.5,267.5,447.0,275.5,443.0,284.5,446.0" stroke="black" stroke-width="2" fill="none" />
<polyline points="262.5,451.0,254.5,449.0" stroke="black" stroke-width="2" fill="none" />
<polyline points="245.5,459.0,253.5,462.0,265.0,455.5,273.0,455.5,282.5,455.5,291.0,453.5" stroke="black" stroke-width="2" fill="none" />
<polyline points="245.5,461.0,229.5,461.5" stroke="black" stroke-width="2" fill="none" />
<polyline points="239.5,461.5,253.5,465.5,243.5,473.5,247.5,478.5,243.0,479.5,236.0,487.5,233.0,500.0" stroke="black" stroke-width="2" fill="none" />
<polyline points="211.0,456.0,227.0,440.0" stroke="black" stroke-width="2" fill="none" />
<polyline points="227.5,439.5,235.5,434.0,229.0,438.5,228.5,452.5,221.5,459.5,224.0,464.5,231.5,457.5,233.5,461.0,243.0,457.0,245.5,447.5" stroke="black" stroke-width="2" fill="none" />
<polyline points="236.5,445.5,221.0,446.0" stroke="black" stroke-width="2" fill="none" />
<polyline points="227.5,448.5,228.0,452.5,236.5,454.5,235.0,466.5,229.5,474.0,226.0,484.5,232.0,489.5,234.5,495.0,238.5,497.0,245.0,504.0,238.0,509.0,238.5,497.0,244.0,503.0,245.5,507.5,256.5,509.0,266.0,503.0" stroke="black" stroke-width="2" fill="none" />
<polyline points="233.0,421.5,217.5,422.0" stroke="black" stroke-width="2" fill="none" />
<polyline points="215.5,419.5,232.0,404.0,248.0,388.5" stroke="black" stroke-width="2" fill="none" />
<polyline points="247.5,402.5,231.5,403.5" stroke="black" stroke-width="2" fill="none" />
<polyline points="237.0,402.0,245.0,383.0,253.5,363.0,260.5,358.0,262.0,366.0,262.0,374.0,262.0,382.0,262.5,390.5,263.5,398.5" stroke="black" stroke-width="2" fill="none" />
<polyline points="264.5,394.5,280.0,394.0" stroke="black" stroke-width="2" fill="none" />
<polyline points="244.5,381.0,229.0,381.5" stroke="black" stroke-width="2" fill="none" />
<polyline points="231.5,373.5,247.0,357.0" stroke="black" stroke-width="2" fill="none" />
<polyline points="248.5,354.5,233.0,354.0" stroke="black" stroke-width="2" fill="none" />
<polyline points="231.0,359.0,247.0,343.0,263.0,327.0" stroke="black" stroke-width="2" fill="none" />
<polyline points="276.5,322.5,284.5,323.5,292.5,325.0" stroke="black" stroke-width="2" fill="none" />
<polyline points="278.5,324.5,286.0,328.5,295.0,329.0,303.0,326.0,312.0,322.0" stroke="black" stroke-width="2" fill="none" />
<polyline points="319.5,333.5,320.5,341.5" stroke="black" stroke-width="2" fill="none" />
<polyline points="323.5,330.0,326.5,337.5,329.0,345.5,332.0,354.0,335.5,362.0,339.5,370.0,342.5,378.0,346.0,386.0,349.5,394.0,353.5,402.0,356.0,409.5,358.5,417.5,364.0,423.5,367.0,431.5,371.0,440.0,374.0,448.0,368.0,449.5,368.0,462.0,366.0,470.0,373.5,479.5,381.5,481.5" stroke="black" stroke-width="2" fill="none" />
<polyline points="280.0,364.0,264.5,364.5,249.5,364.0,233.0,365.5" stroke="black" stroke-width="2" fill="none" />
<polyline points="229.5,393.5,214.0,408.5" stroke="black" stroke-width="2" fill="none" />
<polyline points="212.0,414.5,228.5,414.0" stroke="black" stroke-width="2" fill="none" />
<polyline points="223.0,410.0,220.0,415.0" stroke="black" stroke-width="2" fill="none" />
<polyline points="215.0,395.5,230.5,395.5,246.0,395.5" stroke="black" stroke-width="2" fill="none" />
<polyline points="242.0,401.5,250.5,402.0,258.0,401.0" stroke="black" stroke-width="2" fill="none" />
<polyline points="275.0,397.0,274.5,388.5,275.0,381.0,275.0,373.0,274.0,365.5,276.0,357.5,277.0,349.0,275.5,346.0" stroke="black" stroke-width="2" fill="none" />
<polyline points="276.5,353.0,285.0,354.5,293.0,355.5,301.0,363.5,309.5,372.5,318.0,380.5,326.5,390.5,334.0,398.5,342.0,406.5,350.5,415.5" stroke="black" stroke-width="2" fill="none" />
<polyline points="367.5,339.0,370.5,331.0,368.5,322.5,363.5,319.5" stroke="black" stroke-width="2" fill="none" />
<polyline points="358.0,320.5,360.5,328.5,360.5,337.0" stroke="black" stroke-width="2" fill="none" />
<polyline points="337.0,329.0,336.0,321.0,336.0,320.0" stroke="black" stroke-width="2" fill="none" />
<polyline points="339.5,321.5,341.0,330.0,341.5,337.5,342.0,345.5,345.0,353.0,347.5,360.5,351.5,368.5,354.5,377.0,359.0,385.0,362.0,393.0,365.0,401.0,364.0,409.0,367.5,414.0,373.5,420.0,376.5,427.5,381.0,435.0,383.5,443.5,385.5,451.5,380.5,459.5,376.5,471.5,370.5,479.5,375.5,485.5,379.0,487.5,375.0,495.0,386.5,499.0,381.5,505.5,379.0,512.5,369.0,508.0,381.0,502.0,386.0,502.5,394.0,504.0" stroke="black" stroke-width="2" fill="none" />
<polyline points="376.5,327.5,383.0,319.5,394.0,316.5,381.5,316.5,373.5,316.0,365.5,316.0,357.0,315.5,349.0,315.5,341.5,316.0,333.0,316.0" stroke="black" stroke-width="2" fill="none" />
<polyline points="364.5,294.0,372.5,293.5" stroke="black" stroke-width="2" fill="none" />
<polyline points="367.0,295.5,375.0,304.5" stroke="black" stroke-width="2" fill="none" />
<polyline points="372.0,290.5,364.0,291.5,356.0,289.5,348.0,282.0,340.0,277.5" stroke="black" stroke-width="2" fill="none" />
<polyline points="338.5,276.5,347.5,284.5,351.5,287.5,359.5,286.0,367.5,285.5" stroke="black" stroke-width="2" fill="none" />
<polyline points="365.5,293.5,371.5,301.5" stroke="black" stroke-width="2" fill="none" />
<polyline points="394.5,314.5,402.5,315.5" stroke="black" stroke-width="2" fill="none" />
<polyline points="438.0,270.0,446.0,264.5,438.0,272.0,446.0,274.5,446.0,274.5,454.0,275.0" stroke="black" stroke-width="2" fill="none" />
<polyline points="463.5,325.5,448.5,333.5,436.0,342.0,442.5,347.0,434.5,352.5" stroke="black" stroke-width="2" fill="none" />
<polyline points="411.0,311.0,403.0,312.0,395.5,311.5,387.5,312.0,379.5,312.0,371.5,311.5,363.5,310.5,355.0,311.5,347.0,312.0,339.0,312.0,331.0,313.0,322.0,298.0,314.0,279.5,306.0,260.5,297.5,241.5" stroke="black" stroke-width="2" fill="none" />
<polyline points="312.0,245.0,296.5,245.0,281.5,246.0,266.0,245.5,250.0,247.0,232.5,248.5,216.5,249.5,200.5,250.5,184.0,251.5,167.5,252.5,150.5,253.5,133.0,253.5,116.0,253.0,99.5,252.5" stroke="black" stroke-width="2" fill="none" />
<polyline points="103.5,261.0,119.5,261.0,135.5,260.0,152.0,259.0,167.5,257.5" stroke="black" stroke-width="2" fill="none" />
<polyline points="169.5,236.5,177.5,235.5,185.0,241.5,193.0,243.5" stroke="black" stroke-width="2" fill="none" />
<polyline points="201.5,232.5,185.5,247.5,170.5,262.5,154.5,277.5,138.5,293.0,123.0,309.0,107.0,325.5,91.5,342.0,75.5,358.0,60.0,374.0" stroke="black" stroke-width="2" fill="none" />
<polyline points="54.5,371.0,70.0,371.5,86.5,371.0,103.0,370.5,119.5,369.5,136.0,369.0,152.5,368.0,168.5,368.0,184.5,368.5,201.0,368.5" stroke="black" stroke-width="2" fill="none" />
<polyline points="198.0,373.0,182.5,389.0,166.5,404.5,151.0,420.5,135.5,435.5,120.0,451.0,104.5,467.5,89.5,483.5,73.0,499.0" stroke="black" stroke-width="2" fill="none" />
<polyline points="69.0,506.0,85.0,505.0,100.5,505.5" stroke="black" stroke-width="2" fill="none" />
<polyline points="85.5,501.0,70.0,517.0" stroke="black" stroke-width="2" fill="none" />
<polyline points="87.5,521.0,105.5,506.0,122.0,491.0" stroke="black" stroke-width="2" fill="none" />
<polyline points="118.5,489.5,101.0,489.0,83.5,489.0,67.5,489.5" stroke="black" stroke-width="2" fill="none" />
<polyline points="72.0,486.0,88.5,469.0,105.0,453.5,121.0,437.0,138.0,421.0,155.0,404.5,171.5,388.0,187.0,370.5,203.0,355.0" stroke="black" stroke-width="2" fill="none" />
<polyline points="200.0,356.5,208.0,355.5,216.0,355.5,224.0,355.5" stroke="black" stroke-width="2" fill="none" />
<polyline points="219.0,347.0,235.5,331.5" stroke="black" stroke-width="2" fill="none" />
<polyline points="217.0,329.0,200.5,344.0,184.5,359.0,169.5,374.0,154.5,388.5,139.0,404.5,123.5,419.5,107.5,436.0,90.5,453.0,74.0,470.0" stroke="black" stroke-width="2" fill="none" />
<polyline points="70.5,466.5,86.5,466.5" stroke="black" stroke-width="2" fill="none" />
<polyline points="72.0,461.0,87.5,461.0,104.0,459.5,119.5,458.5,134.5,456.5,149.5,455.5,165.5,455.0,182.0,455.0" stroke="black" stroke-width="2" fill="none" />
<polyline points="185.5,444.0,193.5,443.0,201.5,443.0" stroke="black" stroke-width="2" fill="none" />
<polyline points="200.5,436.0,183.5,437.5,166.5,437.5,149.5,438.0,133.5,439.0,118.0,439.5,101.5,439.5,84.5,438.5,68.5,439.0" stroke="black" stroke-width="2" fill="none" />
<polyline points="69.0,433.5,85.5,432.5" stroke="black" stroke-width="2" fill="none" />
<polyline points="85.5,435.0,69.0,451.0" stroke="black" stroke-width="2" fill="none" />
<polyline points="69.5,451.0,85.5,451.0" stroke="black" stroke-width="2" fill="none" />
<polyline points="101.5,437.0,118.0,436.0,134.5,435.5,150.5,435.5,166.0,435.5,182.0,435.5" stroke="black" stroke-width="2" fill="none" />
<polyline points="184.0,433.0,191.5,433.0" stroke="black" stroke-width="2" fill="none" />
<polyline points="192.0,423.0,200.0,424.5" stroke="black" stroke-width="2" fill="none" />
<polyline points="184.5,421.5,169.5,437.0,154.0,452.0,137.5,468.5" stroke="black" stroke-width="2" fill="none" />
<polyline points="136.5,466.0,152.5,465.0" stroke="black" stroke-width="2" fill="none" />
<polyline points="165.5,469.0,150.0,484.5" stroke="black" stroke-width="2" fill="none" />
<polyline points="153.5,479.0,169.0,478.5" stroke="black" stroke-width="2" fill="none" />
<polyline points="168.0,479.5,172.0,476.5,174.0,472.5,169.5,471.5" stroke="black" stroke-width="2" fill="none" />
<polyline points="168.5,471.0,152.0,471.0,135.0,471.5,118.5,472.5,102.0,473.0,85.0,473.5,67.5,474.0" stroke="black" stroke-width="2" fill="none" />
<polyline points="59.0,469.0,67.0,472.0,69.0,481.0,68.5,489.0,67.5,497.0,66.5,505.5" stroke="black" stroke-width="2" fill="none" />
<polyline points="48.5,484.5,40.5,482.0,38.0,484.0,37.0,490.5" stroke="black" stroke-width="2" fill="none" />
<polyline points="36.5,495.5,20.5,496.5" stroke="black" stroke-width="2" fill="none" />
<polyline points="23.5,490.0,31.5,499.5,39.5,501.5,47.5,502.5,57.0,497.5,64.5,496.5" stroke="black" stroke-width="2" fill="none" />
<polyline points="86.5,484.0,103.0,484.0" stroke="black" stroke-width="2" fill="none" />
<polyline points="103.0,485.0,120.0,468.5,137.0,451.5,154.5,435.0,172.0,418.5,189.0,403.5" stroke="black" stroke-width="2" fill="none" />
<polyline points="189.0,403.5,197.0,403.5,205.0,402.5" stroke="black" stroke-width="2" fill="none" />
<polyline points="181.0,415.5,164.5,415.5,149.5,416.5,134.5,418.0,120.0,419.5,104.5,420.5,88.5,422.0" stroke="black" stroke-width="2" fill="none" />
<polyline points="83.5,409.5,88.5,418.0,93.5,426.0,99.5,434.0,104.5,442.0,121.5,448.0,118.0,456.0,115.5,464.0,114.5,472.0,113.0,480.0,111.0,488.0,108.5,496.0,105.5,504.0,106.0,512.0,116.5,509.5" stroke="black" stroke-width="2" fill="none" />
<polyline points="118.0,507.0,125.0,501.0,123.0,493.5,122.5,485.5,122.5,477.0,122.0,469.0,121.0,460.5,120.5,452.5,114.5,458.5" stroke="black" stroke-width="2" fill="none" />
<polyline points="122.5,451.0,139.5,450.5,154.5,450.0,169.5,450.0" stroke="black" stroke-width="2" fill="none" />
<polyline points="166.5,444.5,151.5,452.5,155.0,450.5,163.0,447.5" stroke="black" stroke-width="2" fill="none" />
<polyline points="174.5,431.5,182.5,428.5,190.5,429.0" stroke="black" stroke-width="2" fill="none" />
<polyline points="183.5,420.0,166.5,421.5,149.5,423.0,134.0,423.5,118.0,425.5,102.0,427.0,85.5,427.5,68.5,428.5" stroke="black" stroke-width="2" fill="none" />
<polyline points="71.0,433.5,87.5,417.5,103.5,402.5,119.0,387.0,134.0,371.0,149.5,355.5,166.0,339.5,182.5,324.0,199.0,308.5,216.0,293.0,232.5,277.0,248.0,261.0,263.5,244.0,279.5,228.5,296.0,214.0,311.5,198.5" stroke="black" stroke-width="2" fill="none" />
<polyline points="312.5,186.5,296.5,202.5" stroke="black" stroke-width="2" fill="none" />
<polyline points="293.5,206.0,310.0,205.0" stroke="black" stroke-width="2" fill="none" />
<polyline points="309.0,210.0,292.5,210.5" stroke="black" stroke-width="2" fill="none" />
<polyline points="301.5,207.5,309.5,196.5" stroke="black" stroke-width="2" fill="none" />
<polyline points="310.5,187.5,295.5,186.5" stroke="black" stroke-width="2" fill="none" />
<polyline points="281.5,185.5,265.5,201.5,249.5,216.5,233.0,231.0,216.5,244.5,200.5,259.0,184.0,274.0,167.0,290.5,150.5,306.0,135.0,321.0,120.0,336.0,103.5,352.0,88.0,367.0,71.5,382.5" stroke="black" stroke-width="2" fill="none" />
<polyline points="60.0,385.5,75.0,370.5,91.0,354.5,107.0,339.0,123.5,323.5,139.5,308.0,155.0,293.0,171.0,278.0,186.5,262.5,201.5,246.5,217.0,230.5,232.5,214.0,248.5,197.5" stroke="black" stroke-width="2" fill="none" />
<polyline points="249.0,188.5,264.0,188.5,279.5,188.5" stroke="black" stroke-width="2" fill="none" />
<polyline points="265.5,186.5,281.0,171.5" stroke="black" stroke-width="2" fill="none" />
<polyline points="281.0,174.0,264.0,174.0" stroke="black" stroke-width="2" fill="none" />
<polyline points="263.5,170.0,279.5,155.0" stroke="black" stroke-width="2" fill="none" />
<polyline points="265.0,152.0,281.5,136.5" stroke="black" stroke-width="2" fill="none" />
<polyline points="280.5,139.0,278.0,138.0,276.5,130.5,274.5,130.5,266.5,130.5" stroke="black" stroke-width="2" fill="none" />
<polyline points="266.5,129.5,274.5,129.5,282.5,129.5,290.5,129.5,298.5,128.5,306.5,129.5,309.5,131.5,311.0,139.0,309.0,146.5,313.5,159.0,313.5,168.0,316.5,176.0,314.0,184.5,312.0,193.0,308.0,201.0,302.0,208.5,303.5,216.5,306.0,224.0,303.5,231.5,295.5,239.0,298.5,247.0,302.0,255.5,306.0,263.5,309.5,272.0,312.5,280.0,317.0,287.5,321.0,295.5,323.5,303.5,326.5,311.0,330.5,318.5,332.5,326.5,335.5,330.5" stroke="black" stroke-width="2" fill="none" />
<polyline points="303.5,334.0,298.0,343.0,290.0,344.0" stroke="black" stroke-width="2" fill="none" />
<polyline points="288.5,342.0,297.5,349.5,303.5,357.5,311.0,365.0,317.5,373.0,325.0,380.5,332.5,389.0,340.5,397.0,348.5,405.0" stroke="black" stroke-width="2" fill="none" />
<polyline points="309.5,354.5,301.5,354.5,300.5,349.0,300.5,345.0,297.5,332.5,293.5,320.5,285.5,319.5,277.5,320.5" stroke="black" stroke-width="2" fill="none" />
<polyline points="262.0,333.5,260.0,340.5,252.0,359.5,244.0,378.5,236.0,397.5,233.0,414.5,232.0,409.5,234.5,401.5,237.5,393.5,240.5,385.5,245.0,377.5,248.0,369.5,251.5,361.5,255.5,353.0,258.5,345.0,261.0,336.5,264.0,327.5,261.5,325.0,264.0,317.0,264.5,309.0,264.5,301.0,264.5,293.0,264.5,285.0,264.5,276.5,266.0,268.5,267.0,260.5,267.0,252.5,275.0,247.5,266.5,247.5" stroke="black" stroke-width="2" fill="none" />
<polyline points="263.5,251.0,263.5,259.0,263.5,267.0,268.0,276.0,267.0,284.0,267.0,292.0,267.0,299.5,267.0,307.0" stroke="black" stroke-width="2" fill="none" />
<polyline points="234.0,301.5,226.0,301.5,218.5,301.5" stroke="black" stroke-width="2" fill="none" />
<polyline points="215.5,302.0,199.5,302.5,184.0,302.5,168.5,303.0,152.5,304.0,136.5,305.5,120.0,306.5,104.0,307.5,87.5,308.0" stroke="black" stroke-width="2" fill="none" />
<polyline points="87.0,300.5,103.5,300.5,118.5,300.0,134.5,299.0,151.0,298.0,167.0,297.0,183.5,296.0,198.5,295.0,214.5,294.0" stroke="black" stroke-width="2" fill="none" />
<polyline points="219.5,304.5,227.0,304.5" stroke="black" stroke-width="2" fill="none" />
<polyline points="219.0,314.0,203.0,330.5,186.0,346.0,170.0,361.5,153.5,376.0,137.5,391.0,121.0,406.0,105.5,422.0" stroke="black" stroke-width="2" fill="none" />
<polyline points="88.5,432.5,85.0,424.5,83.0,417.0,81.0,408.5" stroke="black" stroke-width="2" fill="none" />
<polyline points="81.0,407.5,89.0,417.5,96.5,428.5,105.0,440.5,113.5,444.5,121.5,445.5" stroke="black" stroke-width="2" fill="none" />
<polyline points="116.0,473.5,126.0,478.5,125.5,486.5,127.5,494.0,131.5,502.0,134.5,510.5" stroke="black" stroke-width="2" fill="none" />
<polyline points="144.0,503.5,152.0,503.5" stroke="black" stroke-width="2" fill="none" />
<polyline points="157.5,510.0,159.0,498.0,151.0,499.0,143.0,501.0" stroke="black" stroke-width="2" fill="none" />
<polyline points="159.0,493.5,151.0,489.0,143.5,486.5,142.5,486.5,136.0,479.0" stroke="black" stroke-width="2" fill="none" />
<polyline points="115.5,495.5,109.5,503.0,107.0,505.0,114.0,504.0" stroke="black" stroke-width="2" fill="none" />
<polyline points="166.5,472.0,176.5,462.0,184.5,458.5,192.5,462.5,192.0,464.0" stroke="black" stroke-width="2" fill="none" />
<polyline points="184.5,408.5,169.0,409.0,152.5,409.5,136.0,410.5,119.5,411.5,103.5,412.5,87.5,413.0,71.5,413.5" stroke="black" stroke-width="2" fill="none" />
<polyline points="69.5,415.5,84.5,399.5,99.0,383.5,114.0,367.5,130.5,352.0,148.5,338.0,166.5,323.5,184.0,309.0,202.0,294.5,218.5,279.5,234.5,264.5,251.0,248.0,267.0,230.5,283.5,215.0" stroke="black" stroke-width="2" fill="none" />
<polyline points="268.0,207.5,252.0,209.0,236.0,210.5" stroke="black" stroke-width="2" fill="none" />
<polyline points="233.0,202.5,249.5,202.0,266.5,201.0" stroke="black" stroke-width="2" fill="none" />
<polyline points="262.5,212.0,247.0,227.0,231.0,243.5,214.0,260.0,197.0,276.5,181.0,292.5,165.0,306.5,150.0,321.0,135.0,335.0,119.0,350.5,102.5,366.5,86.5,381.5,70.5,397.0" stroke="black" stroke-width="2" fill="none" />
<polyline points="72.5,395.0,88.5,394.5,104.5,393.5,121.0,393.0,137.5,393.0,154.0,392.0,170.0,391.5,186.0,390.5,202.0,390.0" stroke="black" stroke-width="2" fill="none" />
<polyline points="184.0,399.0,167.5,400.0,152.0,401.0,136.5,401.0,120.5,401.0,105.0,401.5,89.5,401.5,74.0,401.5" stroke="black" stroke-width="2" fill="none" />
<polyline points="55.5,387.0,70.5,386.0,86.0,386.0,101.5,386.0,117.0,385.5,133.5,385.5,149.5,386.0,165.0,385.5,181.0,384.5,196.5,383.0" stroke="black" stroke-width="2" fill="none" />
<polyline points="199.0,376.0,184.0,376.5,168.5,375.5,152.0,374.5,136.0,374.5,120.0,375.0,103.5,376.5,87.5,378.0,72.0,379.0,56.5,379.5" stroke="black" stroke-width="2" fill="none" />
<polyline points="49.5,385.0,57.5,392.5,65.5,398.5" stroke="black" stroke-width="2" fill="none" />
<polyline points="54.5,367.5,70.0,367.5,86.0,366.5,103.0,365.5,119.0,365.0,135.0,364.0,152.5,362.5,169.0,362.0,185.0,361.0,200.5,359.5" stroke="black" stroke-width="2" fill="none" />
<polyline points="196.5,358.0,204.5,353.0,212.5,352.5,220.5,352.5" stroke="black" stroke-width="2" fill="none" />
<polyline points="225.5,339.5,220.0,344.0,211.5,344.0,203.5,344.5" stroke="black" stroke-width="2" fill="none" />
<polyline points="202.0,342.0,210.0,337.0,218.0,338.0,225.5,336.5,229.0,341.5,228.0,349.5,224.5,358.5,222.5,366.5,222.0,374.5,220.0,382.5,219.0,390.5,217.0,398.5,215.0,406.5,213.0,414.5,210.5,422.5,208.0,429.5,207.5,437.5,205.5,445.5,202.5,453.5,202.0,461.0,201.0,469.0,200.0,477.0,197.5,485.0,196.5,493.0,194.5,501.0,193.0,509.0,193.5,507.0" stroke="black" stroke-width="2" fill="none" />
<polyline points="211.5,511.0,212.0,503.0,214.0,495.0,214.5,486.5,216.0,478.5,222.0,473.5,221.0,465.5,218.0,457.5,219.5,449.5,221.5,441.5,222.5,433.5,224.5,425.0,226.5,417.0,227.5,409.0,228.5,401.0,230.5,392.5,232.5,385.0,233.5,376.5,236.0,368.5,237.0,360.5,239.0,352.5,240.0,345.0,242.0,337.0,243.0,329.5,245.5,321.0,246.5,313.0,248.0,305.5,248.5,297.5,250.5,289.5,252.5,281.5,252.0,274.0,254.0,265.5,256.0,257.5,259.0,249.0,260.5,241.0,256.5,241.0" stroke="black" stroke-width="2" fill="none" />
<polyline points="259.5,230.5,261.5,223.5,270.0,222.5,278.5,224.0,283.5,227.0,283.0,236.0,280.0,237.0,283.5,238.0,285.0,229.0" stroke="black" stroke-width="2" fill="none" />
<polyline points="277.0,236.0,259.5,237.5,242.5,238.5,227.0,238.0,211.5,238.0,195.5,238.5,180.0,239.5,165.0,240.0,149.5,240.0,133.5,239.5,118.0,239.0,102.5,239.0,87.5,239.0" stroke="black" stroke-width="2" fill="none" />
<polyline points="86.0,239.0,101.5,224.5,116.5,209.0,132.0,194.0,147.0,179.5,163.0,165.0,178.5,149.5,194.0,134.5,209.5,119.5,225.5,105.0,241.5,90.5" stroke="black" stroke-width="2" fill="none" />
<polyline points="232.5,85.5,216.5,101.0,200.5,116.5" stroke="black" stroke-width="2" fill="none" />
<polyline points="201.0,112.5,217.5,112.0,234.5,111.5,251.5,111.5,268.0,111.0,284.5,111.0" stroke="black" stroke-width="2" fill="none" />
<polyline points="281.5,105.0,264.5,120.5" stroke="black" stroke-width="2" fill="none" />
<polyline points="266.0,124.0,273.5,124.0,281.0,123.0,288.5,123.5,296.5,123.0,301.0,127.0,298.0,135.5,295.0,144.0,304.0,147.0,304.0,155.0,305.0,163.0,307.0,165.0,295.5,173.0,293.5,178.5,297.5,185.0,297.0,192.5,292.0,200.5,288.0,199.5,290.5,191.5,285.5,199.5,292.5,191.5" stroke="black" stroke-width="2" fill="none" />
<polyline points="310.5,168.5,295.0,168.5,279.5,169.0,264.0,169.0" stroke="black" stroke-width="2" fill="none" />
<polyline points="268.0,170.0,276.0,171.0,284.0,171.0,292.0,170.0,300.0,171.5,313.5,170.5" stroke="black" stroke-width="2" fill="none" />
<polyline points="308.0,156.5,315.5,154.5,323.0,155.5,325.0,149.5,333.0,148.5" stroke="black" stroke-width="2" fill="none" />
<polyline points="311.0,136.5,295.5,136.5,280.0,136.5,264.5,137.0" stroke="black" stroke-width="2" fill="none" />
<polyline points="259.5,144.0,251.5,142.0" stroke="black" stroke-width="2" fill="none" />
<polyline points="245.5,141.0,254.0,135.0,262.5,139.0,276.0,141.0,279.0,138.0,290.0,135.0,296.5,141.0" stroke="black" stroke-width="2" fill="none" />
<polyline points="293.5,135.0,290.5,138.0,288.0,146.0,295.0,152.0,291.5,153.5,285.5,161.5,281.5,161.5,285.5,168.0,290.5,160.5,298.0,159.5" stroke="black" stroke-width="2" fill="none" />
<polyline points="314.5,153.5,298.0,155.0,282.0,155.0,265.0,155.0,248.0,155.5,231.0,156.5,214.5,157.0" stroke="black" stroke-width="2" fill="none" />
<polyline points="212.5,149.0,228.0,133.0,243.0,117.0,259.5,102.0" stroke="black" stroke-width="2" fill="none" />
<polyline points="262.0,86.0,246.5,100.5,230.5,115.5" stroke="black" stroke-width="2" fill="none" />
<polyline points="233.5,125.5,248.5,125.5,263.5,125.5,279.5,124.5,295.0,123.5" stroke="black" stroke-width="2" fill="none" />
<polyline points="301.0,123.0,309.0,124.0,305.0,137.0,300.5,141.5,300.5,150.0,299.5,156.0,288.5,161.5,290.5,163.0" stroke="black" stroke-width="2" fill="none" />
<polyline points="281.5,162.5,273.5,168.5,265.0,164.5" stroke="black" stroke-width="2" fill="none" />
<polyline points="248.5,167.0,232.5,182.5,216.5,198.0,201.5,212.5,186.0,227.5,170.5,243.0,155.0,259.5,139.0,277.5,123.5,295.0,108.5,311.0,93.0,326.5,76.0,341.0" stroke="black" stroke-width="2" fill="none" />
<polyline points="72.0,347.5,88.0,347.0,105.0,346.0,122.0,345.0,138.5,345.0,154.5,344.0,170.5,342.0,186.5,341.0,202.5,340.5" stroke="black" stroke-width="2" fill="none" />
<polyline points="204.0,335.5,201.0,343.5,199.0,351.5,197.0,359.5,196.0,367.5,191.0,375.0,189.0,383.0,187.0,391.0,185.0,398.5,183.0,406.5,181.0,414.5,179.0,422.5,175.5,430.5,174.0,439.0,172.5,447.5,170.5,456.0,168.5,464.0,166.0,471.5,165.5,479.5,165.5,487.0,168.0,495.0,165.5,503.0,164.0,511.5" stroke="black" stroke-width="2" fill="none" />
<polyline points="201.5,508.0,203.0,500.0,204.0,492.5,205.0,484.5,206.5,476.5,208.0,468.5,209.0,460.0,216.0,453.0,217.0,445.5,218.5,437.5,221.0,429.5,222.0,421.5,218.5,413.5,224.5,405.5,226.5,397.5,229.0,389.0,231.0,381.0,232.5,373.0,233.5,365.0,236.0,357.0,237.5,349.0,238.5,340.5,240.5,332.5,241.5,325.0,243.0,317.0,245.0,309.5,246.5,301.5,247.5,293.5,249.0,285.5,251.0,277.5,253.0,269.5,252.5,261.5,254.5,253.5,256.5,245.5,258.5,237.5,259.5,225.5,261.0,217.5,256.0,220.0,257.0,218.5,257.0,222.5" stroke="black" stroke-width="2" fill="none" />
<polyline points="267.0,226.5,275.0,228.5" stroke="black" stroke-width="2" fill="none" />
<polyline points="271.5,248.0,273.0,255.5,273.0,263.5,273.5,271.0,274.0,279.0,274.5,287.0,274.5,294.5,275.0,302.5,275.0,310.5,275.0,318.5,275.0,327.0,276.5,335.0,265.0,341.0,262.0,349.0,257.5,357.0,253.5,364.5,250.5,373.0,247.5,381.0,244.5,388.5,240.5,397.0,238.5,405.0,234.5,413.0,230.0,423.5,228.5,431.5,227.5,440.0,227.0,448.0,224.5,456.0,228.5,465.0,221.0,475.0,220.0,482.0,222.5,481.5,229.5,484.0,238.0,482.0,237.5,485.5,243.5,490.5,245.5,484.5,248.0,475.0,255.0,478.0,263.0,474.0,273.5,465.5,281.5,466.0,289.5,474.0,298.0,469.5,301.0,477.5" stroke="black" stroke-width="2" fill="none" />
<polyline points="254.5,403.5,246.5,404.0,238.5,404.0" stroke="black" stroke-width="2" fill="none" />
<polyline points="201.5,351.0,185.5,351.0,169.5,352.0,154.0,352.5,137.5,354.0,121.0,354.0,105.0,354.5,87.5,355.0,71.5,355.0" stroke="black" stroke-width="2" fill="none" />
<polyline points="70.5,324.5,86.5,324.0,102.5,323.5,118.5,322.5,134.5,321.0,150.0,320.0,166.5,319.5,183.0,319.5,200.0,319.0,216.5,318.5" stroke="black" stroke-width="2" fill="none" />
<polyline points="213.5,312.5,197.5,312.5,182.5,312.0,167.5,311.5,152.5,312.5,137.0,312.5,121.0,313.0,106.0,314.5,91.5,315.5,76.0,315.5" stroke="black" stroke-width="2" fill="none" />
<polyline points="71.5,320.0,87.0,304.0,103.0,288.5,119.0,274.5,134.5,259.5,150.0,244.0,166.0,228.5,182.0,212.5,197.0,197.5,213.0,182.0,228.5,166.5,244.0,151.5" stroke="black" stroke-width="2" fill="none" />
<polyline points="243.5,151.5,251.5,147.5,243.5,151.0,251.5,155.5,247.5,160.5" stroke="black" stroke-width="2" fill="none" />
<polyline points="247.0,163.0,231.0,163.5" stroke="black" stroke-width="2" fill="none" />
<polyline points="215.0,166.5,199.0,182.5,183.0,198.0,167.5,214.0,151.5,230.5,136.0,246.5,120.5,261.0,104.5,275.5,88.5,290.5" stroke="black" stroke-width="2" fill="none" />
<polyline points="83.0,289.0,99.0,288.5,115.5,288.0,133.0,287.5,150.0,288.0,167.5,288.0,183.0,288.0,198.5,288.0,214.0,288.0,230.0,288.0" stroke="black" stroke-width="2" fill="none" />
<polyline points="230.0,275.5,214.0,276.5,197.5,277.0,182.0,278.0,166.0,278.5,150.5,279.0,134.5,278.5,118.5,279.0,102.0,279.5,86.5,279.5" stroke="black" stroke-width="2" fill="none" />
<polyline points="104.5,278.0,120.5,277.0,136.5,276.0,152.5,275.0,168.0,274.5,183.0,275.0,198.5,274.5,215.0,275.0,232.0,274.5" stroke="black" stroke-width="2" fill="none" />
<polyline points="238.5,272.0,230.5,265.0,222.5,277.0" stroke="black" stroke-width="2" fill="none" />
<polyline points="220.0,289.0,212.0,309.0" stroke="black" stroke-width="2" fill="none" />
<polyline points="212.0,324.0,220.0,324.0,228.0,324.5" stroke="black" stroke-width="2" fill="none" />
<polyline points="226.5,320.5,218.5,321.0,210.5,324.0" stroke="black" stroke-width="2" fill="none" />
<polyline points="267.0,343.5,267.0,351.5,265.0,359.5,266.0,367.5,266.5,375.5,266.5,383.5,266.0,391.5,266.0,399.5" stroke="black" stroke-width="2" fill="none" />
<polyline points="284.5,264.5,269.0,265.0,252.5,266.0,236.0,266.5,219.0,267.0,202.0,267.0,185.0,267.5,169.0,268.0,153.5,269.0,137.0,269.5,120.5,269.5,104.5,269.0" stroke="black" stroke-width="2" fill="none" />
<polyline points="102.0,243.0,118.0,227.0,133.5,212.0,148.5,197.0,163.0,182.0,178.5,167.0,195.0,152.0,211.0,137.0" stroke="black" stroke-width="2" fill="none" />
<polyline points="208.0,136.0,214.0,144.0,214.5,154.0,210.5,168.0,208.5,176.0,208.5,176.5,215.5,163.5" stroke="black" stroke-width="2" fill="none" />
<polyline points="200.5,171.0,185.0,187.5,169.0,203.5,152.5,219.0,136.5,234.0,121.0,249.0,105.0,264.0" stroke="black" stroke-width="2" fill="none" />
<polyline points="71.5,229.5,88.0,228.5,104.0,227.5,120.0,226.0,135.0,225.0,150.0,224.0,166.0,224.0,183.0,224.0,200.0,224.5" stroke="black" stroke-width="2" fill="none" />
<polyline points="200.5,216.5,184.0,216.5,167.0,216.5,150.0,217.0,134.0,217.5,118.5,217.5,103.5,217.5,88.5,218.5,72.5,219.5" stroke="black" stroke-width="2" fill="none" />
<polyline points="70.0,217.0,86.5,202.5,104.0,187.5,121.0,171.5" stroke="black" stroke-width="2" fill="none" />
<polyline points="120.5,179.0,136.0,178.0,152.0,177.0,169.0,176.0,185.5,175.5,202.0,175.0,217.5,174.5,233.0,174.5,248.0,174.5" stroke="black" stroke-width="2" fill="none" />
<polyline points="248.5,169.5,230.5,169.0,213.5,169.5,198.0,170.5,182.5,170.5,165.5,170.5,149.5,170.5,133.0,170.5,117.0,171.0,101.0,171.5" stroke="black" stroke-width="2" fill="none" />
<polyline points="83.5,188.5,100.0,187.5,116.5,188.0,133.5,188.0,150.5,187.5,167.5,187.5,183.5,186.5,200.5,185.5,217.5,184.5,234.5,184.0" stroke="black" stroke-width="2" fill="none" />
<polyline points="238.5,180.0,229.5,188.0,221.0,196.0,214.0,204.0,206.5,212.0,198.5,220.0,195.0,228.0,181.5,239.5" stroke="black" stroke-width="2" fill="none" />
<polyline points="182.0,232.5,190.0,228.5,181.0,230.0,189.0,226.0,203.0,222.0,211.0,213.0,219.0,204.0,227.0,196.0,235.0,187.0,243.5,183.5,251.0,182.5" stroke="black" stroke-width="2" fill="none" />
<polyline points="254.5,189.0,256.5,197.5,259.0,205.0" stroke="black" stroke-width="2" fill="none" />
<polyline points="275.0,207.5,268.0,210.5,270.0,202.5,267.5,195.0,268.5,188.5,260.5,187.5" stroke="black" stroke-width="2" fill="none" />
<polyline points="264.5,181.5,272.5,182.5,275.0,180.5,283.0,180.5" stroke="black" stroke-width="2" fill="none" />
<polyline points="275.5,144.5,270.0,145.0,271.0,137.0,267.0,127.5,254.0,125.5,246.0,125.0" stroke="black" stroke-width="2" fill="none" />
<polyline points="245.0,121.5,253.0,119.5,261.0,123.5,265.0,118.0,259.5,123.5,263.5,129.5,266.0,138.0,267.0,149.5,267.0,157.5,266.0,165.0,268.5,166.0,267.0,174.0,275.0,176.5,283.0,177.5,291.0,176.0,295.0,169.0,302.5,168.5,309.0,163.0,317.0,161.0,325.0,161.0,333.0,161.0,335.0,154.0,338.5,151.5" stroke="black" stroke-width="2" fill="none" />
<polyline points="320.0,131.0,312.0,132.0" stroke="black" stroke-width="2" fill="none" />
<polyline points="309.0,140.0,311.0,143.0,311.5,151.0,314.5,144.5,318.5,142.0,322.0,133.5" stroke="black" stroke-width="2" fill="none" />
<polyline points="285.0,135.0,286.0,143.5" stroke="black" stroke-width="2" fill="none" />
<polyline points="277.5,104.5,262.0,104.0,246.0,103.0,230.5,102.5,215.0,102.5,199.0,102.5" stroke="black" stroke-width="2" fill="none" />
<polyline points="197.0,97.0,203.5,83.0,211.5,79.0,219.5,76.5,227.5,77.0,235.0,79.5,243.0,80.5,251.0,85.5,259.5,92.0,266.5,90.0" stroke="black" stroke-width="2" fill="none" />
<polyline points="261.0,96.0,245.0,97.0,227.5,98.5,210.5,99.5" stroke="black" stroke-width="2" fill="none" />
<polyline points="215.5,89.5,233.0,89.0,250.0,89.0,266.5,88.5,282.5,88.5" stroke="black" stroke-width="2" fill="none" />
<polyline points="282.5,119.5,275.0,119.5,266.5,119.5,263.0,113.5,255.0,110.5,247.0,114.0,239.5,118.0,231.5,132.5,233.5,130.5,236.5,122.5,246.5,114.5" stroke="black" stroke-width="2" fill="none" />
<polyline points="249.5,121.5,249.0,129.5,246.0,142.5,260.0,145.5,260.5,153.5,260.5,161.0,262.5,169.0,260.5,179.0,268.5,179.0,277.0,178.5,285.0,178.5,293.0,178.5,295.0,175.5,302.0,177.5,310.0,178.5" stroke="black" stroke-width="2" fill="none" />
<polyline points="253.5,146.0,245.5,146.5,237.5,147.0" stroke="black" stroke-width="2" fill="none" />
<polyline points="228.0,131.5,244.5,130.0" stroke="black" stroke-width="2" fill="none" />
<polyline points="230.0,143.5,214.0,143.5" stroke="black" stroke-width="2" fill="none" />
<polyline points="216.5,133.5,201.0,134.5" stroke="black" stroke-width="2" fill="none" />
<polyline points="202.5,138.0,210.5,137.0,218.0,144.0,224.5,139.0,232.0,147.5,239.5,154.5,247.5,158.5,252.5,152.0" stroke="black" stroke-width="2" fill="none" />
<polyline points="235.5,133.0,218.5,133.0,203.0,134.5,187.5,136.0,171.0,136.5,153.5,136.5,137.5,137.0" stroke="black" stroke-width="2" fill="none" />
<polyline points="141.0,136.5,131.5,144.5,126.0,152.5,118.0,160.5,108.0,168.5,98.0,176.0,89.5,184.0,81.5,192.0,74.5,199.5,68.5,207.5,67.0,215.5,69.5,223.5,75.5,231.0,83.5,239.0,92.5,246.5,93.5,254.5,92.5,262.5,91.0,270.5,88.0,278.5,84.5,286.5,80.5,294.5,76.5,302.5,73.5,310.5,69.5,318.5,67.5,326.5,64.5,335.0,61.5,343.5,58.0,351.5,56.0,359.5,53.0,368.0,50.0,376.5,49.0,384.0,55.0,391.5,66.0,399.0,73.0,407.0,73.0,415.0,71.5,422.5,71.5,430.5,71.5,438.5,71.0,446.5,70.0,454.5,70.0,462.5,70.0,470.5,68.0,475.0,63.5,483.5,54.5,487.5,54.0,485.0" stroke="black" stroke-width="2" fill="none" />
<polyline points="46.5,472.5,54.5,473.5,55.5,466.0,63.5,465.0" stroke="black" stroke-width="2" fill="none" />
<polyline points="60.0,462.5,52.0,461.0,44.0,465.0,39.5,469.0,43.5,467.0,48.0,459.0" stroke="black" stroke-width="2" fill="none" />
<polyline points="25.0,457.5,15.5,459.5,15.5,467.5,23.5,471.0,17.5,475.0,15.5,483.0,16.5,489.0,16.5,497.5,13.0,508.5,18.5,510.0,19.5,509.0,26.5,504.0,32.5,507.5,35.0,502.5,41.0,494.5,48.5,492.5,46.5,497.5,47.5,503.0,55.0,505.0,58.0,508.0,61.0,511.0,53.0,511.0,61.0,505.5,60.0,507.0" stroke="black" stroke-width="2" fill="none" />
<polyline points="37.5,508.0,22.0,508.5,6.0,508.5" stroke="black" stroke-width="2" fill="none" />
<polyline points="7.0,504.0,15.0,504.0" stroke="black" stroke-width="2" fill="none" />
<polyline points="11.0,506.5,2.0,502.0" stroke="black" stroke-width="2" fill="none" />
<polyline points="2.5,496.5,10.5,495.5,8.5,506.5" stroke="black" stroke-width="2" fill="none" />
<polyline points="12.5,488.0,14.5,485.0,17.0,479.5,25.5,474.5" stroke="black" stroke-width="2" fill="none" />
<polyline points="26.0,466.0,16.5,468.0,9.0,470.5" stroke="black" stroke-width="2" fill="none" />
<polyline points="2.0,461.5,10.0,461.5,18.5,455.5,26.0,459.0,36.5,461.5,44.5,460.0,46.5,458.0,55.0,454.5,57.5,442.5,66.5,446.0,68.0,444.0" stroke="black" stroke-width="2" fill="none" />
<polyline points="36.0,434.0,28.0,435.0,20.0,436.0,12.0,436.0" stroke="black" stroke-width="2" fill="none" />
<polyline points="10.0,434.0,18.0,432.0,26.5,432.5,35.0,430.5" stroke="black" stroke-width="2" fill="none" />
<polyline points="19.0,448.0,8.5,455.0,16.0,449.0" stroke="black" stroke-width="2" fill="none" />
<polyline points="21.0,475.5,20.5,471.0,13.5,479.0,6.0,484.0" stroke="black" stroke-width="2" fill="none" />
<polyline points="39.0,497.5,39.5,505.5,46.0,507.5,49.0,504.5" stroke="black" stroke-width="2" fill="none" />
<polyline points="37.5,356.5,29.5,355.5,21.5,354.0,12.5,356.0,11.0,352.0,3.0,348.0" stroke="black" stroke-width="2" fill="none" />
<polyline points="7.0,341.0,15.5,341.0,25.5,338.0,30.5,341.0,36.0,341.0,44.0,341.0,52.0,340.0,59.5,339.5" stroke="black" stroke-width="2" fill="none" />
<polyline points="68.0,325.5,59.0,333.5,51.0,333.5,43.0,334.5,35.0,333.5,26.5,334.5,18.5,334.5,10.0,334.5,2.0,334.5" stroke="black" stroke-width="2" fill="none" />
<polyline points="9.0,321.0,24.5,320.0" stroke="black" stroke-width="2" fill="none" />
<polyline points="27.5,314.0,17.5,319.0,20.5,319.0,29.5,319.0,38.5,313.5,46.5,321.0,54.5,321.0,57.5,319.0,62.5,314.0" stroke="black" stroke-width="2" fill="none" />
<polyline points="50.0,312.0,37.0,321.0,40.5,316.0,48.5,313.5,56.5,313.5,64.5,310.5,73.0,309.5,81.0,291.5,89.5,275.0" stroke="black" stroke-width="2" fill="none" />
<polyline points="71.0,226.5,87.5,211.0,103.0,195.5,119.5,180.5,136.5,166.0,153.0,151.5,169.0,136.0" stroke="black" stroke-width="2" fill="none" />
<polyline points="152.5,138.0,136.5,153.0" stroke="black" stroke-width="2" fill="none" />
<polyline points="137.5,154.0,153.5,153.5,169.0,152.0,185.5,151.0,201.5,150.0" stroke="black" stroke-width="2" fill="none" />
<polyline points="201.0,146.0,185.0,146.0,169.0,146.5,153.5,147.5,137.5,148.5" stroke="black" stroke-width="2" fill="none" />
<polyline points="138.0,163.0,153.0,162.5,168.0,162.0,183.0,162.0" stroke="black" stroke-width="2" fill="none" />
<polyline points="198.0,142.5,198.5,150.0,201.5,157.5,204.0,165.5,206.0,173.5,206.5,181.5" stroke="black" stroke-width="2" fill="none" />
<polyline points="232.5,195.0,217.0,196.5,201.0,197.0,185.0,197.5,168.0,198.5,151.5,198.0,134.5,197.5,118.0,197.5,102.5,198.5,87.5,198.5" stroke="black" stroke-width="2" fill="none" />
<polyline points="68.5,207.0,85.0,205.5,101.0,204.0,116.5,203.0,132.0,203.0,149.0,202.5,164.5,203.0,180.5,202.0,196.5,201.5,212.0,200.5" stroke="black" stroke-width="2" fill="none" />
<polyline points="214.5,209.0,198.5,209.0,182.5,209.0,166.0,209.0,150.0,208.5,134.0,209.5,118.5,210.0,102.5,211.0,86.0,213.0,69.5,214.0" stroke="black" stroke-width="2" fill="none" />
<polyline points="66.5,211.0,74.5,198.0,83.0,189.5,91.0,181.5,99.0,174.5,106.5,168.5,114.5,162.5,122.5,154.5,130.0,144.5,138.0,136.5,146.0,134.5,154.0,134.5,162.0,134.5,170.5,134.5,179.0,133.5,187.5,130.5,195.5,111.5" stroke="black" stroke-width="2" fill="none" />
<polyline points="200.0,123.0,216.0,122.5" stroke="black" stroke-width="2" fill="none" />
<polyline points="215.0,118.0,223.0,114.0,214.5,119.0,214.5,127.0,219.5,134.5,226.5,142.5,233.5,150.5,243.0,161.0,245.0,169.0,254.5,175.0,256.5,177.0,260.5,179.0,258.0,187.0,265.0,191.5,263.0,199.5,274.0,201.0,275.5,203.5,283.5,206.5,291.5,200.5,304.0,190.5,304.5,185.0" stroke="black" stroke-width="2" fill="none" />
<polyline points="274.5,199.0,270.0,204.0,268.0,205.0,260.0,207.0,252.5,188.5,251.5,185.5,245.5,179.5,237.5,182.0,229.5,189.0,221.5,197.0,213.5,205.5,205.0,214.0,196.5,222.0,202.0,222.0,209.0,214.0,217.5,206.0,224.5,198.5,232.5,190.5,243.0,183.0" stroke="black" stroke-width="2" fill="none" />
<polyline points="218.5,170.0,222.0,167.0,221.0,156.5,219.5,148.5,217.0,141.5,220.0,129.0,219.0,120.5,216.0,117.5" stroke="black" stroke-width="2" fill="none" />
<polyline points="216.0,129.0,223.5,127.0,222.5,127.0,226.5,127.5" stroke="black" stroke-width="2" fill="none" />
<polyline points="214.0,152.0,206.5,157.0,209.0,162.0,207.0,157.5,205.5,150.5,200.5,143.0" stroke="black" stroke-width="2" fill="none" />
<polyline points="197.5,142.0,205.5,148.0,211.5,160.0" stroke="black" stroke-width="2" fill="none" />
<polyline points="241.5,80.0,254.5,88.0,262.5,90.0,267.0,94.0,271.0,101.5,270.0,109.0,273.0,113.5,273.5,108.0,281.5,109.0,285.5,114.0,293.0,117.0" stroke="black" stroke-width="2" fill="none" />
<polyline points="287.0,253.0,278.0,261.0,277.5,269.0,277.5,277.0,278.0,285.5,278.0,293.0,278.0,301.0,278.0,309.0,278.0,317.0,278.0,325.5,281.0,332.5,278.5,340.5,271.5,347.0,267.5,343.0,275.5,343.5,280.5,343.5,288.5,345.5,296.5,353.0,304.5,362.0,312.0,370.0,320.0,378.5,328.0,387.0,336.5,395.0,344.5,404.5,353.0,412.5,362.0,419.5,370.0,437.0,378.0,456.0,387.0,453.0" stroke="black" stroke-width="2" fill="none" />
<polyline points="331.5,330.5,323.0,312.0,310.0,297.0,302.0,278.5,294.0,260.0,286.0,254.0,278.0,261.0" stroke="black" stroke-width="2" fill="none" />
<polyline points="289.5,255.0,293.5,263.0,297.5,271.0,300.5,279.0,294.0,287.0,291.0,295.0,291.0,303.0,290.0,307.0,298.0,306.5,306.0,310.0,309.0,307.5,319.5,320.5,327.5,340.5,335.5,357.0,343.5,375.0,351.5,394.0,359.5,411.0,363.5,412.5,371.0,413.5,379.5,431.0,387.5,449.0,392.5,461.0,400.5,462.5,408.0,456.5,412.0,461.5,419.5,461.5,427.5,462.5,432.5,467.0,437.0,460.0,445.0,463.0,453.0,459.0,458.0,447.0" stroke="black" stroke-width="2" fill="none" />
<polyline points="478.0,340.5,470.0,352.0,476.5,344.0,480.0,336.0,481.0,328.0" stroke="black" stroke-width="2" fill="none" />
<polyline points="406.0,223.0,401.0,228.0,402.5,225.5,398.5,218.0,398.5,217.0" stroke="black" stroke-width="2" fill="none" />
<polyline points="395.0,218.5,395.0,226.5,392.0,229.5,388.0,229.5,396.0,227.0" stroke="black" stroke-width="2" fill="none" />
<polyline points="264.5,259.0,249.5,259.0,234.5,259.0,219.0,259.5,203.0,260.5" stroke="black" stroke-width="2" fill="none" />
<polyline points="229.0,263.5,226.0,271.5,222.5,280.0,219.5,288.0,216.5,296.0,213.5,304.0,210.0,312.0,209.5,320.0,208.5,328.0,215.5,328.0,224.0,328.0,231.5,327.0" stroke="black" stroke-width="2" fill="none" />
<polyline points="233.5,321.5,235.5,313.5,237.5,305.5,239.5,297.5,241.0,289.5,242.0,282.0,241.0,274.0,231.0,265.5" stroke="black" stroke-width="2" fill="none" />
<polyline points="92.0,247.0,84.0,239.5,76.5,231.5,68.5,221.5" stroke="black" stroke-width="2" fill="none" />
<polyline points="33.0,316.0,25.5,315.0,17.5,319.0,10.0,320.0" stroke="black" stroke-width="2" fill="none" />
</svg>