<svg xmlns="http://www.w3.org/2000/svg" version="1.1"><polyline points="70.0,135.0,67.5,143.0,69.0,151.0,69.0,159.0,70.0,167.0,69.5,175.5,70.0,183.5,70.0,192.5,70.5,200.5,70.5,208.5,71.5,216.5,71.5,225.0,72.0,233.0,71.0,241.0,72.0,249.0,72.0,257.0,71.0,264.5,69.0,272.5,65.0,280.5,62.5,288.5,61.0,296.5,57.5,304.5,54.0,312.0,57.0,320.0,71.0,328.0" stroke="black" stroke-width="2" fill="none" />
<polyline points="73.0,327.0,56.0,343.5" stroke="black" stroke-width="2" fill="none" />
<polyline points="49.0,341.0,56.5,346.0,64.5,348.5,72.5,350.5,80.5,353.5,88.5,356.0,96.5,357.0" stroke="black" stroke-width="2" fill="none" />
<polyline points="105.5,362.5,89.0,377.5" stroke="black" stroke-width="2" fill="none" />
<polyline points="91.0,383.0,99.5,386.0,108.0,386.5,116.0,387.5,124.0,388.5" stroke="black" stroke-width="2" fill="none" />
<polyline points="117.5,391.0,102.0,406.5,86.0,422.0,70.0,438.0,53.5,454.5,37.5,471.0,21.0,486.5,4.5,502.0" stroke="black" stroke-width="2" fill="none" />
<polyline points="3.5,500.5,19.5,500.0,36.5,500.0,54.0,499.5,72.0,499.0,88.5,499.0,105.0,498.0,121.0,496.5,136.5,495.5,152.0,494.0,167.0,493.0,183.5,492.5" stroke="black" stroke-width="2" fill="none" />
<polyline points="203.5,497.5,218.5,496.5,234.5,496.0,250.0,495.5,265.0,495.0" stroke="black" stroke-width="2" fill="none" />
<polyline points="262.0,486.5,246.5,488.0" stroke="black" stroke-width="2" fill="none" />
<polyline points="247.5,466.5,263.0,465.5" stroke="black" stroke-width="2" fill="none" />
<polyline points="261.0,435.5,278.0,436.0,294.5,435.5" stroke="black" stroke-width="2" fill="none" />
<polyline points="296.0,442.0,280.5,457.0,265.0,471.0,248.5,486.0,232.5,501.0,216.5,516.5" stroke="black" stroke-width="2" fill="none" />
<polyline points="297.0,517.0,312.0,501.0,327.0,485.0,343.0,468.5,359.0,453.0,374.0,438.0" stroke="black" stroke-width="2" fill="none" />
<polyline points="376.5,452.0,393.0,451.5,408.5,451.0" stroke="black" stroke-width="2" fill="none" />
<polyline points="422.5,453.0,437.5,452.0,452.5,450.5,468.0,449.5,483.5,449.0,498.5,449.0,514.5,448.5" stroke="black" stroke-width="2" fill="none" />
<polyline points="515.5,455.0,499.5,470.0,483.5,486.5,469.0,502.5,454.5,517.5" stroke="black" stroke-width="2" fill="none" />
<polyline points="504.0,517.5,519.5,502.0" stroke="black" stroke-width="2" fill="none" />
<polyline points="523.0,484.0,506.5,500.0,490.0,515.5" stroke="black" stroke-width="2" fill="none" />
<polyline points="471.5,515.0,488.0,500.5,505.0,486.5,521.0,472.0" stroke="black" stroke-width="2" fill="none" />
<polyline points="516.5,441.0,500.0,457.5,483.5,473.0,468.0,488.0,453.5,503.0,439.0,518.0" stroke="black" stroke-width="2" fill="none" />
<polyline points="420.0,516.0,436.5,501.0,452.5,486.0,469.0,471.5,485.5,456.5,501.5,441.5,518.0,426.5" stroke="black" stroke-width="2" fill="none" />
<polyline points="514.5,408.5,499.0,424.0,483.5,439.5,468.0,455.0,452.5,469.5,436.5,484.5,421.5,500.0,406.5,514.5" stroke="black" stroke-width="2" fill="none" />
<polyline points="391.5,514.0,407.0,500.0,422.5,485.5,438.5,471.5,453.0,456.0,469.0,440.0,485.0,425.0,500.5,410.0,515.5,394.5" stroke="black" stroke-width="2" fill="none" />
<polyline points="517.5,376.5,501.0,391.5,484.0,407.0,467.5,423.0,451.5,438.5,436.5,454.5,422.0,470.0,407.5,486.0,392.0,501.5,376.5,516.0" stroke="black" stroke-width="2" fill="none" />
<polyline points="363.5,514.5,379.5,499.5,395.5,484.5,411.5,470.0,427.0,455.0,441.5,439.0,456.5,423.0,471.5,407.0,487.0,390.5,502.5,374.0,518.0,358.5" stroke="black" stroke-width="2" fill="none" />
<polyline points="518.5,343.0,502.5,359.0,487.0,374.5,472.0,389.0,457.0,403.5,441.5,418.0,426.0,434.0,410.5,450.5,394.0,467.0,377.5,483.0,361.0,499.5,345.0,514.5" stroke="black" stroke-width="2" fill="none" />
<polyline points="332.0,512.0,348.5,496.0,365.0,480.5,380.0,465.5,394.5,450.0,409.0,435.0,424.0,420.5,438.0,405.0,454.0,388.5,470.0,373.0,485.5,357.5,501.0,342.0,517.5,326.5" stroke="black" stroke-width="2" fill="none" />
<polyline points="487.5,329.5,472.0,345.0" stroke="black" stroke-width="2" fill="none" />
<polyline points="472.5,360.0,456.5,376.5,441.5,392.0,426.0,407.0,409.5,421.5" stroke="black" stroke-width="2" fill="none" />
<polyline points="406.0,419.0,422.0,418.5,439.0,417.0,455.0,415.5" stroke="black" stroke-width="2" fill="none" />
<polyline points="450.0,402.0,435.0,402.5" stroke="black" stroke-width="2" fill="none" />
<polyline points="407.0,410.0,423.5,409.5,440.5,410.5,457.0,411.0,474.0,411.0,489.0,410.5,504.5,409.0,519.5,407.0" stroke="black" stroke-width="2" fill="none" />
<polyline points="516.0,404.5,500.0,405.0" stroke="black" stroke-width="2" fill="none" />
<polyline points="488.0,419.5,503.5,419.0,519.0,417.0" stroke="black" stroke-width="2" fill="none" />
<polyline points="518.0,435.0,502.0,435.0,486.0,436.5,470.0,437.5" stroke="black" stroke-width="2" fill="none" />
<polyline points="516.5,467.5,500.5,468.5,485.0,468.0,467.5,468.0,451.0,468.5,435.5,468.5,419.5,468.5" stroke="black" stroke-width="2" fill="none" />
<polyline points="405.5,470.0,389.5,470.0" stroke="black" stroke-width="2" fill="none" />
<polyline points="375.0,488.0,391.0,487.0,408.0,486.0,424.0,485.0,440.5,484.5,457.5,484.0,473.5,482.0,489.0,480.0,505.0,478.0,521.0,476.5" stroke="black" stroke-width="2" fill="none" />
<polyline points="518.5,495.0,502.0,497.0,485.0,497.5,468.5,497.5,452.5,496.5,437.0,496.0,421.0,496.5,404.5,496.5" stroke="black" stroke-width="2" fill="none" />
<polyline points="378.0,463.5,362.0,464.0" stroke="black" stroke-width="2" fill="none" />
<polyline points="356.0,439.0,340.0,454.5,325.5,470.5,311.0,486.5,295.5,502.5,281.0,518.5" stroke="black" stroke-width="2" fill="none" />
<polyline points="309.0,518.0,325.0,502.5,341.5,488.0,357.5,473.5,373.5,457.5,390.0,441.5" stroke="black" stroke-width="2" fill="none" />
<polyline points="404.5,426.0,420.5,425.5,437.0,426.0,454.0,426.0,471.0,425.0,488.0,424.0,504.5,423.5,521.5,421.0" stroke="black" stroke-width="2" fill="none" />
<polyline points="515.0,344.5,499.0,344.0,483.5,345.0,468.5,346.5,453.0,347.0,438.0,347.5,422.5,347.5" stroke="black" stroke-width="2" fill="none" />
<polyline points="421.5,332.5,438.0,332.0,453.5,330.5,469.0,330.0,485.0,329.0,501.0,327.5,517.0,328.0" stroke="black" stroke-width="2" fill="none" />
<polyline points="438.0,315.0,422.5,330.5" stroke="black" stroke-width="2" fill="none" />
<polyline points="405.5,317.5,421.5,317.5,438.0,317.5,454.5,316.5,469.5,315.5,485.5,314.5,501.5,314.0,517.0,314.0" stroke="black" stroke-width="2" fill="none" />
<polyline points="515.5,219.5,499.0,220.0,483.0,219.5,466.5,220.0" stroke="black" stroke-width="2" fill="none" />
<polyline points="486.0,202.5,502.0,201.5,518.0,201.0" stroke="black" stroke-width="2" fill="none" />
<polyline points="438.0,233.0,421.5,248.5" stroke="black" stroke-width="2" fill="none" />
<polyline points="422.5,242.5,439.5,242.0" stroke="black" stroke-width="2" fill="none" />
<polyline points="427.0,252.5,443.0,252.0,459.0,251.0,474.5,250.0,489.5,249.0,504.5,249.0,522.0,249.0" stroke="black" stroke-width="2" fill="none" />
<polyline points="516.5,295.5,501.0,295.5,484.5,296.0,469.0,296.5,452.5,297.0,436.5,296.5,420.5,296.5" stroke="black" stroke-width="2" fill="none" />
<polyline points="422.0,280.0,438.5,279.5,454.5,279.0,470.5,278.0,487.0,277.0,503.5,276.0,519.5,277.0" stroke="black" stroke-width="2" fill="none" />
<polyline points="521.0,263.0,504.5,264.5,488.5,264.0,472.5,264.5,456.5,265.0,441.0,266.0,425.5,267.0" stroke="black" stroke-width="2" fill="none" />
<polyline points="420.5,234.0,436.0,234.5,453.0,234.5,469.5,234.5,485.0,234.0,501.5,233.5,518.5,233.5" stroke="black" stroke-width="2" fill="none" />
<polyline points="418.5,256.0,417.0,248.0,416.5,240.0,415.0,232.0,414.5,224.0,413.0,215.5" stroke="black" stroke-width="2" fill="none" />
<polyline points="415.5,163.5,407.5,158.0" stroke="black" stroke-width="2" fill="none" />
<polyline points="406.0,156.0,411.0,162.0,417.0,169.5" stroke="black" stroke-width="2" fill="none" />
<polyline points="438.5,153.5,441.5,156.5,439.5,164.5,438.5,172.5,438.0,180.5,436.0,188.5,435.0,196.5,434.0,204.5,431.5,212.5,430.5,220.5,428.5,228.0,427.5,236.5,426.5,244.5,425.5,252.0,423.5,259.5,421.5,268.0,414.5,278.0,413.0,286.5,411.0,294.5" stroke="black" stroke-width="2" fill="none" />
<polyline points="406.0,350.5,390.0,351.0" stroke="black" stroke-width="2" fill="none" />
<polyline points="364.0,362.0,379.5,361.5,393.5,360.5,408.5,360.0,424.0,359.5,440.5,359.0,456.5,359.5,472.5,360.0,488.5,359.5,504.5,359.0,521.0,358.0" stroke="black" stroke-width="2" fill="none" />
<polyline points="517.5,369.5,502.5,370.5,487.0,372.0,471.5,374.0,456.0,374.5,440.0,375.0,424.0,375.0,407.5,374.5,391.5,374.0,375.5,374.0,359.5,374.0,343.0,374.5,326.0,375.0,308.5,375.5,292.0,376.0" stroke="black" stroke-width="2" fill="none" />
<polyline points="319.0,407.5,327.0,405.0,335.0,402.5,343.0,399.5,334.0,403.0,314.5,407.0,318.5,410.5,326.5,410.0,334.5,409.0,342.0,408.0,350.0,406.0,358.0,405.0,366.0,403.5,374.0,402.5" stroke="black" stroke-width="2" fill="none" />
<polyline points="358.5,403.5,342.0,419.0,325.5,435.0,309.5,451.5,294.5,468.0,279.5,484.0,263.5,501.0,248.0,517.5" stroke="black" stroke-width="2" fill="none" />
<polyline points="263.0,516.0,278.0,499.5,293.0,483.0,308.5,466.0,324.5,449.5,339.5,433.0,355.0,417.5" stroke="black" stroke-width="2" fill="none" />
<polyline points="343.5,416.0,327.5,416.5" stroke="black" stroke-width="2" fill="none" />
<polyline points="323.0,419.5,339.0,404.0" stroke="black" stroke-width="2" fill="none" />
<polyline points="339.0,410.0,331.0,414.5,329.5,417.5,338.5,411.0" stroke="black" stroke-width="2" fill="none" />
<polyline points="345.5,410.5,336.0,418.5,332.5,422.5,340.5,424.5,348.5,425.0,356.5,426.0,364.0,426.5,372.0,428.5,380.0,429.5,388.5,431.0" stroke="black" stroke-width="2" fill="none" />
<polyline points="362.5,434.5,347.0,435.5" stroke="black" stroke-width="2" fill="none" />
<polyline points="346.0,450.0,330.0,451.0" stroke="black" stroke-width="2" fill="none" />
<polyline points="315.5,442.5,299.0,457.5,283.0,472.0,266.5,487.0,250.0,502.0,234.0,517.0" stroke="black" stroke-width="2" fill="none" />
<polyline points="199.0,515.5,214.0,500.5,230.0,485.5,244.5,471.0,259.5,456.0,275.5,440.5,291.0,425.5" stroke="black" stroke-width="2" fill="none" />
<polyline points="282.5,421.0,290.5,424.5,299.0,426.5,307.0,429.5,314.5,432.0,322.5,434.0" stroke="black" stroke-width="2" fill="none" />
<polyline points="313.5,422.0,330.5,406.0" stroke="black" stroke-width="2" fill="none" />
<polyline points="277.0,424.5,261.5,439.5,246.0,455.5,230.0,471.5,215.0,487.0,200.0,503.0,184.5,518.5" stroke="black" stroke-width="2" fill="none" />
<polyline points="169.0,519.0,184.5,504.0,199.0,488.0,213.5,472.0,228.5,456.5,245.0,441.0,261.0,425.5" stroke="black" stroke-width="2" fill="none" />
<polyline points="254.0,426.5,261.5,426.5,269.5,426.0,277.0,425.0,282.0,421.5" stroke="black" stroke-width="2" fill="none" />
<polyline points="243.5,423.0,227.5,439.0,212.5,456.0,197.0,472.5,181.5,488.5,166.5,504.0,151.5,520.0" stroke="black" stroke-width="2" fill="none" />
<polyline points="131.5,517.0,147.0,500.5,162.5,485.5,179.0,470.5,195.5,455.0,212.0,439.5,228.0,424.5" stroke="black" stroke-width="2" fill="none" />
<polyline points="212.5,424.5,197.0,439.5,182.0,454.5,166.0,470.0,149.5,486.5,133.0,502.0,118.0,518.5" stroke="black" stroke-width="2" fill="none" />
<polyline points="105.0,515.0,121.0,500.0,136.5,485.0,152.5,469.5,168.5,453.5,184.5,437.5" stroke="black" stroke-width="2" fill="none" />
<polyline points="188.5,427.5,196.5,426.5,204.5,425.0,212.5,421.0,220.5,420.0,228.0,418.0,236.0,417.0,243.5,416.5,251.0,416.5,259.0,416.5,263.0,418.5,271.0,414.5,278.5,415.0,287.0,414.0,295.5,412.0,303.5,411.0,311.5,411.0,319.5,406.0,327.5,404.0" stroke="black" stroke-width="2" fill="none" />
<polyline points="362.5,415.0,346.5,415.0,330.0,416.5,314.5,416.5,298.5,417.0,282.5,418.0,267.0,419.0,251.5,420.5,234.0,420.0,217.0,420.5,200.0,421.5,183.0,422.5,166.5,424.0,150.5,424.0,136.0,425.0,121.0,425.0,104.5,424.5,88.0,424.5,72.0,425.5,56.0,426.5,40.0,427.5,24.0,429.0,7.0,429.5" stroke="black" stroke-width="2" fill="none" />
<polyline points="11.0,423.5,26.0,406.5,41.5,391.0" stroke="black" stroke-width="2" fill="none" />
<polyline points="58.0,390.5,42.5,405.0,26.5,421.0,10.5,437.5" stroke="black" stroke-width="2" fill="none" />
<polyline points="9.0,437.5,25.5,436.5" stroke="black" stroke-width="2" fill="none" />
<polyline points="25.5,452.5,9.0,453.0" stroke="black" stroke-width="2" fill="none" />
<polyline points="9.5,457.0,24.5,441.5,40.5,426.0,57.5,409.5,73.0,393.0" stroke="black" stroke-width="2" fill="none" />
<polyline points="86.5,415.0,103.0,414.5" stroke="black" stroke-width="2" fill="none" />
<polyline points="105.0,426.0,113.0,425.5,121.0,425.0,129.0,425.5" stroke="black" stroke-width="2" fill="none" />
<polyline points="136.0,425.0,152.0,410.0" stroke="black" stroke-width="2" fill="none" />
<polyline points="135.5,407.0,119.5,421.5,105.0,436.5,89.5,452.5,73.5,469.0,57.0,485.0,39.5,500.5,22.5,516.5" stroke="black" stroke-width="2" fill="none" />
<polyline points="7.5,512.0,22.5,512.0,37.5,512.5,53.0,512.5,68.5,512.0,83.0,511.0,99.5,511.0,116.0,510.5,132.5,509.5,149.0,509.0,164.5,509.0,180.5,508.5,197.0,509.0,214.0,509.0,231.0,508.0,248.0,507.0,264.5,506.5,281.5,504.0,297.5,502.0,313.0,501.5,328.0,501.0,344.5,500.5,360.0,501.0,375.0,501.0,390.5,501.0,405.5,501.5,420.5,502.0,436.5,501.5,453.0,502.5,469.5,503.5,486.0,503.5,501.5,502.5,517.5,501.5" stroke="black" stroke-width="2" fill="none" />
<polyline points="394.0,497.0,377.0,497.5,360.0,498.5,343.0,499.5,326.5,501.0" stroke="black" stroke-width="2" fill="none" />
<polyline points="328.0,488.0,344.5,486.5,361.0,485.0" stroke="black" stroke-width="2" fill="none" />
<polyline points="313.0,495.0,296.5,494.5" stroke="black" stroke-width="2" fill="none" />
<polyline points="249.0,434.0,232.5,434.5,216.5,436.0,200.5,436.5" stroke="black" stroke-width="2" fill="none" />
<polyline points="186.0,423.5,170.0,440.5,154.0,456.5,138.0,472.0,123.0,487.0,106.5,501.5,90.0,517.0" stroke="black" stroke-width="2" fill="none" />
<polyline points="76.5,513.0,92.0,499.0,108.5,484.5,124.5,470.5,140.0,457.0,155.5,443.0,171.5,427.5" stroke="black" stroke-width="2" fill="none" />
<polyline points="153.5,427.5,137.5,443.5,121.0,458.5,104.5,473.0,88.5,488.0,72.5,503.0,56.0,517.5" stroke="black" stroke-width="2" fill="none" />
<polyline points="41.0,516.0,57.0,500.0,72.0,484.5,87.0,468.5,102.5,452.0,118.0,436.5" stroke="black" stroke-width="2" fill="none" />
<polyline points="120.0,452.0,104.0,453.0" stroke="black" stroke-width="2" fill="none" />
<polyline points="97.0,435.5,105.0,436.5,113.0,435.5,121.0,435.0,129.0,435.0" stroke="black" stroke-width="2" fill="none" />
<polyline points="136.0,452.5,152.0,453.0,167.5,453.0,183.5,452.5,199.5,452.0" stroke="black" stroke-width="2" fill="none" />
<polyline points="228.0,478.5,212.5,479.5,197.0,480.0,181.5,481.0,165.5,481.0,149.5,482.0,133.5,482.5,117.0,482.5,101.0,482.5,85.5,482.5,69.0,481.5,52.0,480.0,36.5,480.0,21.5,480.5,6.0,481.0" stroke="black" stroke-width="2" fill="none" />
<polyline points="6.5,484.0,22.5,469.5,38.5,454.5,54.5,438.5,70.0,422.0,85.5,407.0,101.5,392.0,117.0,376.5" stroke="black" stroke-width="2" fill="none" />
<polyline points="120.0,383.5,111.5,381.0,103.5,379.0" stroke="black" stroke-width="2" fill="none" />
<polyline points="102.0,379.0,85.5,394.5,69.5,409.5,53.0,424.5,37.0,439.5,21.5,454.0,5.0,468.5" stroke="black" stroke-width="2" fill="none" />
<polyline points="7.0,469.0,23.5,468.5,40.0,467.5,55.0,467.0,70.5,466.0,87.0,465.5,102.5,466.5,118.0,467.0,134.5,467.0,150.5,467.0,167.0,467.0,183.0,466.0,200.0,465.0" stroke="black" stroke-width="2" fill="none" />
<polyline points="230.0,409.0,238.0,410.5,245.5,412.0,253.5,413.0,261.5,414.0" stroke="black" stroke-width="2" fill="none" />
<polyline points="136.0,387.0,120.5,402.5,104.0,419.0,87.0,435.0,70.5,451.0,53.5,467.5,36.5,484.0,20.5,499.5,5.0,516.5" stroke="black" stroke-width="2" fill="none" />
<polyline points="8.0,504.5,23.5,504.0,39.0,505.0,55.0,505.5,70.5,505.0,86.0,504.5,103.0,505.0,119.5,505.0,135.5,504.0,150.5,503.0,166.0,502.0,182.0,501.5,199.0,500.0,215.0,498.5,231.0,498.5,247.5,498.0,263.5,496.5,279.5,496.0,295.5,496.0,310.0,495.5,326.0,494.5,342.5,494.0,359.0,494.5,376.0,494.5,393.0,494.0,409.0,494.0,423.5,494.5,437.0,495.0,451.5,494.5,467.0,494.0,482.5,493.5,499.0,493.0,515.5,492.5" stroke="black" stroke-width="2" fill="none" />
<polyline points="516.0,476.0,501.0,476.5,485.5,477.5,469.5,477.5,454.0,477.5,438.5,478.0,422.5,479.5,406.5,480.5,390.5,480.5,374.0,480.0,357.5,481.0,341.5,482.0,325.0,482.5,309.0,483.0,293.0,484.5,277.0,485.0,261.5,485.0,245.5,485.5,229.5,486.5,214.5,487.5,198.0,488.5,181.5,488.5,165.5,488.5,149.5,489.0,133.0,489.0,117.0,488.5,101.5,488.0,86.0,488.5,69.0,488.5,51.5,488.5,35.0,489.0,18.5,489.5,2.5,490.0" stroke="black" stroke-width="2" fill="none" />
<polyline points="4.0,476.5,20.0,476.5,36.0,475.0,52.5,475.0,68.5,476.0,84.5,476.0,100.5,475.5,117.5,475.0,134.0,474.5,150.5,474.5,166.0,474.0,182.0,473.5,197.5,473.5,213.5,473.0,230.0,472.0,246.0,471.0,262.5,471.0,278.5,470.5,296.0,469.5,313.5,468.5,329.5,468.5,345.0,467.5,361.0,466.0,377.0,464.0,392.5,462.5,408.0,461.0,423.5,460.0,439.0,460.0,454.5,460.0,470.0,460.0,486.5,460.0,502.5,460.0,519.0,459.5" stroke="black" stroke-width="2" fill="none" />
<polyline points="520.0,445.0,504.0,446.0,487.5,446.5,471.5,447.0,455.5,447.0,439.5,446.5,424.0,445.5,408.0,445.5,392.0,446.0,376.0,448.0,360.5,449.0,344.5,449.5,328.5,449.0,312.5,450.5,297.0,451.5,281.5,452.5,266.0,453.0,250.5,453.0,234.0,454.5,217.0,454.5,200.5,454.0,185.0,454.5,168.5,455.0,152.5,455.5,136.0,455.0,120.0,455.5,105.0,456.5,89.5,457.0,72.5,458.0,56.5,459.0,40.5,460.5,25.0,461.0,9.5,462.0" stroke="black" stroke-width="2" fill="none" />
<polyline points="9.0,445.0,26.5,444.5,43.0,443.5,59.5,442.5,75.5,441.0,91.5,441.0,107.0,439.0,122.5,437.5,138.5,437.5,155.5,438.0,172.0,437.0,187.5,436.5,201.5,435.5,216.5,435.0,232.0,434.5,248.5,434.0,264.5,434.5,280.5,435.0,296.5,434.5,312.5,434.0,329.0,433.0,344.0,433.5,359.5,432.5,375.5,432.5,391.5,433.0,407.0,434.5,423.0,434.0,439.5,433.0,455.5,432.5,471.0,432.5,486.0,432.0,502.5,431.5,519.0,431.0" stroke="black" stroke-width="2" fill="none" />
<polyline points="517.5,379.5,500.0,379.5,484.0,380.0,468.0,380.5,451.5,381.5,436.0,382.5,421.0,384.0,405.5,384.5,390.0,386.0,375.0,387.0,360.0,387.0,344.5,387.0,327.5,387.5,312.5,388.0,297.0,387.5,280.5,387.5,264.0,387.5,247.5,387.5,232.0,387.5,216.5,388.0,201.0,388.5,186.0,389.0,170.0,390.0,153.5,390.5,137.5,391.5,121.5,392.0,105.5,392.5,89.5,392.0,73.5,393.5,57.0,394.5,40.0,394.5,22.5,394.5,6.5,395.0" stroke="black" stroke-width="2" fill="none" />
<polyline points="8.5,409.0,23.5,393.5" stroke="black" stroke-width="2" fill="none" />
<polyline points="19.5,378.0,3.5,393.0" stroke="black" stroke-width="2" fill="none" />
<polyline points="9.0,375.0,25.0,374.5,40.5,374.5,57.0,374.5,74.5,374.0,90.5,373.5,106.5,372.5,122.0,372.0,137.5,372.0,152.0,372.5,167.5,371.5,183.5,371.0,199.0,371.0,214.5,371.0,230.0,371.5" stroke="black" stroke-width="2" fill="none" />
<polyline points="185.0,354.0,168.5,353.5,153.0,355.0,137.0,356.5,120.5,358.0,103.0,359.5,86.5,361.0,71.0,362.0,56.0,362.5,41.0,362.5,25.5,362.5,10.5,362.5" stroke="black" stroke-width="2" fill="none" />
<polyline points="11.5,350.5,27.0,350.0,42.0,348.5,57.0,346.5,73.0,344.5,88.5,343.0,103.0,342.0,117.5,341.5,133.0,341.0,148.5,340.0" stroke="black" stroke-width="2" fill="none" />
<polyline points="135.0,328.0,119.5,328.0,104.5,327.0,90.0,328.0,74.5,328.5,58.0,330.0,42.0,331.0,26.5,332.0,11.0,333.0" stroke="black" stroke-width="2" fill="none" />
<polyline points="7.5,317.5,23.5,317.5,39.0,317.5,54.5,317.5,70.0,317.0,86.0,317.0,101.5,316.5,117.0,316.0,133.5,315.5" stroke="black" stroke-width="2" fill="none" />
<polyline points="119.0,329.0,117.0,321.0,117.0,313.0,116.0,305.0" stroke="black" stroke-width="2" fill="none" />
<polyline points="121.5,285.0,137.0,284.5" stroke="black" stroke-width="2" fill="none" />
<polyline points="105.0,325.5,88.5,340.5" stroke="black" stroke-width="2" fill="none" />
<polyline points="101.5,320.0,103.0,312.0,105.5,303.5,107.0,295.5,109.0,286.0,110.5,276.0,112.5,268.0,111.5,259.5,110.5,252.0,110.0,243.0,109.0,235.0,106.5,228.0,108.5,220.0,106.0,217.0,105.5,209.0,104.5,201.0,104.5,192.5,103.0,184.5,102.5,176.5,94.5,183.5,97.0,177.5,101.0,169.5,100.0,161.5,99.0,153.5,98.5,146.0,91.5,143.5,84.0,142.0,76.0,144.0" stroke="black" stroke-width="2" fill="none" />
<polyline points="74.0,135.5,66.0,138.5" stroke="black" stroke-width="2" fill="none" />
<polyline points="97.0,136.5,105.0,134.0,113.0,134.0" stroke="black" stroke-width="2" fill="none" />
<polyline points="120.5,120.0,128.5,99.0,136.5,76.5,140.5,67.5,137.5,76.0,134.5,84.0,131.5,92.0,127.5,99.5,124.0,107.5,121.0,115.5,118.0,123.0,116.0,131.5,124.5,133.5,133.5,129.0" stroke="black" stroke-width="2" fill="none" />
<polyline points="147.5,127.5,155.5,126.5,163.0,125.0,171.0,125.0,179.0,123.0,187.0,122.0,195.0,122.0,202.5,121.0,210.5,120.0,218.5,120.5" stroke="black" stroke-width="2" fill="none" />
<polyline points="199.5,99.5,207.0,101.5,215.0,102.5,223.0,104.5,235.5,107.5,243.5,108.5,251.0,109.5,258.5,112.0,267.0,116.0" stroke="black" stroke-width="2" fill="none" />
<polyline points="302.0,110.0,310.5,107.0,320.5,105.0" stroke="black" stroke-width="2" fill="none" />
<polyline points="305.5,108.5,313.5,110.0,321.5,110.0,329.5,109.0,337.5,107.0,345.0,105.0,353.0,104.5,360.5,104.5,368.5,104.0,376.0,103.5,384.0,102.5,393.0,99.5,393.0,101.0" stroke="black" stroke-width="2" fill="none" />
<polyline points="402.0,134.5,402.0,135.5,403.5,143.0,405.5,151.0,406.0,159.0,407.5,167.5,408.5,175.0" stroke="black" stroke-width="2" fill="none" />
<polyline points="429.0,137.0,437.0,139.0,440.0,143.5,440.0,152.0,438.0,160.5,436.0,169.0,435.0,177.0,434.0,185.0,432.5,193.0,430.5,201.0,429.5,208.5,428.5,217.0,426.5,225.0,425.5,233.0,425.0,241.0,423.0,249.5,422.0,257.0,421.0,265.0,419.5,273.0,420.5,281.0,421.5,288.5,422.5,296.5,425.0,304.5,426.0,312.5,427.0,320.0,427.5,328.0,428.5,335.5,429.0,343.5,430.0,351.0,431.5,359.0,433.0,367.0,434.0,375.0,435.0,383.0,436.0,391.0" stroke="black" stroke-width="2" fill="none" />
<polyline points="394.5,402.5,398.5,406.5,397.5,414.0,396.0,422.0,395.0,430.0" stroke="black" stroke-width="2" fill="none" />
<polyline points="363.0,401.5,346.0,400.5,329.5,401.0,314.0,401.5,299.5,402.5,283.5,404.0,267.5,405.0,251.0,405.5,234.5,407.0,218.0,407.5,201.0,408.0,184.5,409.5,168.0,411.0,152.0,411.0,136.5,411.5,120.5,411.0,104.0,410.0,86.5,409.5,71.5,410.5,56.0,411.0,40.0,411.5,23.5,412.5,7.5,414.0" stroke="black" stroke-width="2" fill="none" />
<polyline points="47.5,346.5,56.0,350.5,64.0,353.5,72.0,355.0,79.5,358.0" stroke="black" stroke-width="2" fill="none" />
<polyline points="67.0,355.0,80.0,362.5,81.5,370.5,81.5,378.5,81.0,386.5,82.0,394.5,82.5,402.5,83.5,411.0,84.5,419.5,94.5,420.5,102.5,420.5,110.5,422.5,118.5,423.0,127.0,425.0,137.0,431.0,137.5,434.5,145.5,432.5,153.5,431.5,161.5,430.0,169.0,429.0,176.5,428.0,182.0,426.0,190.0,424.5,198.0,424.0,205.5,423.0,218.5,424.0,226.0,423.5,234.0,421.5,242.0,420.0,250.0,418.5,257.5,417.5,260.0,421.5,268.0,420.5,276.0,421.0,284.5,419.0,292.5,418.0,301.0,420.0,309.0,421.0,317.0,422.0,325.0,424.5,335.0,415.5,338.0,417.0,345.5,410.0,353.5,408.0,361.5,407.0,369.5,405.0,378.5,403.5,382.0,402.0,390.5,398.0,391.5,401.0,400.0,397.5,408.0,397.0,415.5,395.5,423.0,394.5,430.5,393.5" stroke="black" stroke-width="2" fill="none" />
<polyline points="384.5,110.0,376.5,110.0,368.5,110.0,361.0,110.0,353.0,110.0" stroke="black" stroke-width="2" fill="none" />
<polyline points="188.0,125.0,179.5,127.0,171.5,127.5" stroke="black" stroke-width="2" fill="none" />
<polyline points="165.0,92.5,172.5,93.5,182.5,95.5,190.0,97.5,198.0,97.5,206.0,100.5,214.0,100.5,221.5,102.5,231.5,104.5,240.0,106.5,248.0,106.0,255.5,109.5,263.5,112.5,271.0,113.5,279.0,111.0" stroke="black" stroke-width="2" fill="none" />
<polyline points="131.0,137.5,131.0,136.5,123.0,142.0,115.0,143.0,106.5,143.5,98.5,142.0" stroke="black" stroke-width="2" fill="none" />
<polyline points="87.0,200.0,71.5,200.5" stroke="black" stroke-width="2" fill="none" />
<polyline points="70.5,216.5,87.0,217.0,102.5,217.0" stroke="black" stroke-width="2" fill="none" />
<polyline points="110.0,228.0,111.0,236.0,112.0,244.5,113.0,254.0,114.5,261.5,115.5,269.0,116.5,277.0" stroke="black" stroke-width="2" fill="none" />
<polyline points="88.5,247.0,72.5,263.5" stroke="black" stroke-width="2" fill="none" />
<polyline points="69.5,263.5,86.0,263.5,102.5,264.0" stroke="black" stroke-width="2" fill="none" />
<polyline points="102.5,233.5,85.5,232.0,68.5,231.5" stroke="black" stroke-width="2" fill="none" />
<polyline points="76.0,243.5,76.0,251.5" stroke="black" stroke-width="2" fill="none" />
<polyline points="52.5,251.0,69.0,250.0,86.5,249.0,103.0,248.0" stroke="black" stroke-width="2" fill="none" />
<polyline points="107.5,279.5,91.5,281.0,75.0,282.5,59.0,285.5,42.5,286.5,26.0,286.5,9.5,286.5" stroke="black" stroke-width="2" fill="none" />
<polyline points="10.5,300.5,26.0,300.0,40.5,300.5,55.5,300.5,71.5,299.5,86.5,298.5,102.5,297.0" stroke="black" stroke-width="2" fill="none" />
<polyline points="74.5,306.5,58.5,323.0" stroke="black" stroke-width="2" fill="none" />
<polyline points="55.5,321.0,68.5,329.0,80.5,337.0" stroke="black" stroke-width="2" fill="none" />
<polyline points="90.5,334.0,82.0,328.0,73.5,322.0,65.5,315.5,57.5,311.0" stroke="black" stroke-width="2" fill="none" />
<polyline points="59.5,312.0,71.5,320.0,82.0,327.5,91.5,335.5,98.5,343.0,97.5,350.5" stroke="black" stroke-width="2" fill="none" />
<polyline points="96.5,334.5,88.5,328.0,80.0,322.5,72.0,315.5,64.5,310.5,56.5,306.5" stroke="black" stroke-width="2" fill="none" />
<polyline points="60.5,308.5,72.0,316.5,83.0,324.5,94.0,332.0,102.0,340.0" stroke="black" stroke-width="2" fill="none" />
<polyline points="69.0,326.5,61.0,322.5,53.0,315.5" stroke="black" stroke-width="2" fill="none" />
<polyline points="53.0,321.0,50.0,329.0,46.5,337.0,46.5,345.5" stroke="black" stroke-width="2" fill="none" />
<polyline points="64.0,348.0,87.0,356.0,91.5,360.0" stroke="black" stroke-width="2" fill="none" />
<polyline points="83.0,339.5,75.0,334.5,67.5,329.5,59.0,324.5,51.0,322.5" stroke="black" stroke-width="2" fill="none" />
<polyline points="67.5,278.0,68.0,272.0" stroke="black" stroke-width="2" fill="none" />
<polyline points="56.5,268.5,42.0,269.0,27.0,269.5,10.5,269.5" stroke="black" stroke-width="2" fill="none" />
<polyline points="10.0,251.5,25.5,251.0" stroke="black" stroke-width="2" fill="none" />
<polyline points="127.0,370.0,127.5,378.0,127.5,385.5,130.5,392.5,130.5,400.0,131.5,408.0,132.5,416.0,133.5,424.5,131.5,431.5,134.0,433.5" stroke="black" stroke-width="2" fill="none" />
<polyline points="104.5,433.5,89.0,435.0" stroke="black" stroke-width="2" fill="none" />
</svg>