<svg xmlns="http://www.w3.org/2000/svg" version="1.1"><polyline points="148.5,46.5,130.5,54.5,119.5,62.5,111.5,70.5,104.5,78.5,99.5,86.5,94.5,94.5,91.0,102.5,88.0,111.0,85.0,119.0,83.5,127.0,81.5,135.0,80.5,143.0,79.5,151.0,79.5,158.5,79.5,166.5,80.5,174.5,81.5,182.5,82.0,191.0,84.0,199.0,86.5,207.5,90.0,215.5,93.0,223.5,98.5,231.5,104.0,239.5,112.0,247.5,120.0,255.5,131.5,263.5" stroke="black" stroke-width="2" fill="none" />
<polyline points="123.5,255.0,131.5,260.0,139.5,264.0,147.5,266.0,155.5,268.0,164.0,267.5,172.0,267.0,180.5,265.0,189.0,261.5,197.0,257.5,205.5,252.5,213.5,245.5,221.5,236.5,231.0,222.5" stroke="black" stroke-width="2" fill="none" />
<polyline points="229.0,224.0,224.0,231.5,218.5,239.5,211.0,247.5,201.0,256.0,185.0,264.5" stroke="black" stroke-width="2" fill="none" />
<polyline points="180.0,262.5,196.0,247.5,213.0,233.0,229.5,217.5,246.0,202.0,263.0,185.5,280.0,168.5,296.0,152.0" stroke="black" stroke-width="2" fill="none" />
<polyline points="302.0,153.5,294.0,142.5,286.0,138.5,278.0,137.5,270.5,137.5" stroke="black" stroke-width="2" fill="none" />
<polyline points="267.0,133.0,251.5,149.0,235.5,165.0,219.0,181.0,203.0,197.5,187.5,214.0,171.0,230.0,153.5,246.5" stroke="black" stroke-width="2" fill="none" />
<polyline points="150.5,256.0,166.5,255.0,183.5,254.5,200.0,254.5,216.5,255.0" stroke="black" stroke-width="2" fill="none" />
<polyline points="216.0,258.5,232.5,243.5,249.0,228.0,265.5,212.0" stroke="black" stroke-width="2" fill="none" />
<polyline points="265.0,214.0,249.5,215.0,232.5,216.0,215.5,217.5,198.5,218.0,182.0,218.0,166.0,218.5,149.5,218.5,132.5,219.0,115.5,220.5,99.5,221.0" stroke="black" stroke-width="2" fill="none" />
<polyline points="105.5,215.0,121.0,199.0,136.0,183.0,151.0,167.0" stroke="black" stroke-width="2" fill="none" />
<polyline points="151.0,177.5,135.5,177.5,120.5,177.5,105.0,177.5" stroke="black" stroke-width="2" fill="none" />
<polyline points="104.5,180.0,121.5,163.5,139.5,148.0,155.5,133.0" stroke="black" stroke-width="2" fill="none" />
<polyline points="155.5,149.5,139.5,164.5,122.5,180.0,105.5,195.5" stroke="black" stroke-width="2" fill="none" />
<polyline points="104.5,196.5,119.5,196.5,134.0,196.5,149.5,196.0" stroke="black" stroke-width="2" fill="none" />
<polyline points="151.0,200.0,135.0,215.0,120.0,230.5" stroke="black" stroke-width="2" fill="none" />
<polyline points="117.5,230.0,134.0,229.5,151.5,227.5,168.0,226.5,183.5,226.0,199.5,225.5,215.0,224.0,230.5,223.5,246.5,222.5,262.5,221.0" stroke="black" stroke-width="2" fill="none" />
<polyline points="260.0,218.5,260.0,226.5,261.0,234.5,262.0,242.5,262.5,249.5,270.5,243.5,278.5,242.5" stroke="black" stroke-width="2" fill="none" />
<polyline points="281.0,243.0,276.0,251.0,272.5,258.5,272.5,266.5,276.5,274.5,282.5,282.5,289.0,290.5,295.5,298.5,300.5,307.0,306.5,315.0,312.0,323.0,317.5,331.0,323.5,339.0,328.5,346.5,334.5,354.0,339.5,361.5,346.0,369.0,352.0,377.0,357.5,385.0,363.5,392.5,368.5,400.5,374.5,409.0,379.5,417.5,385.0,425.5,390.5,433.5,403.0,424.5" stroke="black" stroke-width="2" fill="none" />
<polyline points="396.5,425.0,396.0,433.0,395.0,440.5,393.5,448.5,391.0,456.5,390.0,464.5,389.0,472.0,387.0,480.0,385.0,488.0,386.0,492.5" stroke="black" stroke-width="2" fill="none" />
<polyline points="378.5,494.5,395.5,494.0" stroke="black" stroke-width="2" fill="none" />
<polyline points="392.0,484.5,408.0,484.5" stroke="black" stroke-width="2" fill="none" />
<polyline points="404.5,471.0,388.0,487.0,373.0,502.0" stroke="black" stroke-width="2" fill="none" />
<polyline points="376.5,500.0,393.0,499.5" stroke="black" stroke-width="2" fill="none" />
<polyline points="391.5,479.0,409.0,478.0" stroke="black" stroke-width="2" fill="none" />
<polyline points="384.0,489.0,376.0,475.0" stroke="black" stroke-width="2" fill="none" />
<polyline points="376.0,479.0,379.0,487.0,374.0,491.5,376.0,492.0,383.5,496.5,391.0,477.5" stroke="black" stroke-width="2" fill="none" />
<polyline points="379.5,454.5,363.5,470.0" stroke="black" stroke-width="2" fill="none" />
<polyline points="360.5,458.0,376.0,458.5" stroke="black" stroke-width="2" fill="none" />
<polyline points="372.0,448.5,372.0,456.5,371.0,464.5,370.0,472.5,368.5,480.0,367.5,488.0,366.5,495.5,365.5,503.5,364.0,511.0,363.0,519.0,362.0,526.5,361.0,534.5,361.5,542.5,360.5,550.5,360.0,558.5,359.0,566.5,358.0,574.5,357.0,582.5,356.0,591.0" stroke="black" stroke-width="2" fill="none" />
<polyline points="356.5,581.5,340.5,597.0" stroke="black" stroke-width="2" fill="none" />
<polyline points="344.5,603.5,352.5,603.0,361.0,603.0,369.0,604.0,374.5,606.0,375.5,614.5" stroke="black" stroke-width="2" fill="none" />
<polyline points="375.0,625.5,383.5,633.5" stroke="black" stroke-width="2" fill="none" />
<polyline points="389.0,627.5,373.5,644.0" stroke="black" stroke-width="2" fill="none" />
<polyline points="375.0,646.0,391.5,645.0" stroke="black" stroke-width="2" fill="none" />
<polyline points="391.5,636.5,375.0,636.5" stroke="black" stroke-width="2" fill="none" />
<polyline points="364.0,637.5,372.0,638.5,379.5,638.5,387.5,641.0" stroke="black" stroke-width="2" fill="none" />
<polyline points="388.5,637.5,380.5,628.5,373.0,626.5,365.0,624.5,364.0,634.5,360.5,634.5,362.0,626.5,366.0,626.5,362.5,629.5" stroke="black" stroke-width="2" fill="none" />
<polyline points="357.5,630.5,341.5,646.0" stroke="black" stroke-width="2" fill="none" />
<polyline points="343.0,652.5,358.0,651.5" stroke="black" stroke-width="2" fill="none" />
<polyline points="357.0,648.5,340.5,665.0" stroke="black" stroke-width="2" fill="none" />
<polyline points="346.0,665.0,362.5,664.5,379.0,663.5" stroke="black" stroke-width="2" fill="none" />
<polyline points="375.0,664.0,359.0,679.5,343.5,695.5,328.0,711.0,311.0,725.0,295.0,739.5" stroke="black" stroke-width="2" fill="none" />
<polyline points="293.0,745.5,309.0,745.0,326.0,744.5,342.5,744.5,359.5,745.5,376.0,745.5,392.5,745.5" stroke="black" stroke-width="2" fill="none" />
<polyline points="394.0,742.0,410.0,726.5,427.0,710.5" stroke="black" stroke-width="2" fill="none" />
<polyline points="408.5,711.5,391.5,726.5,375.0,740.5,359.5,755.0" stroke="black" stroke-width="2" fill="none" />
<polyline points="342.5,754.5,358.5,740.0,374.0,724.5,389.0,709.0,405.5,694.0" stroke="black" stroke-width="2" fill="none" />
<polyline points="387.5,692.5,372.0,709.0,355.5,726.0,339.5,742.5,324.5,759.0" stroke="black" stroke-width="2" fill="none" />
<polyline points="309.5,754.0,325.5,739.0,342.0,724.5,359.0,709.5,375.0,695.5" stroke="black" stroke-width="2" fill="none" />
<polyline points="379.5,689.5,363.5,689.5,346.5,690.0,329.5,690.0,312.5,689.5,296.0,690.0" stroke="black" stroke-width="2" fill="none" />
<polyline points="296.5,674.5,311.5,658.5,326.5,643.5,342.0,628.0,358.5,613.0" stroke="black" stroke-width="2" fill="none" />
<polyline points="359.0,618.5,344.5,619.0" stroke="black" stroke-width="2" fill="none" />
<polyline points="351.5,614.5,350.5,622.0,350.5,630.0,349.5,637.5" stroke="black" stroke-width="2" fill="none" />
<polyline points="343.5,656.5,360.5,656.0" stroke="black" stroke-width="2" fill="none" />
<polyline points="360.5,666.0,344.5,682.0,329.0,697.5,313.0,713.0,296.5,728.5,280.5,744.5" stroke="black" stroke-width="2" fill="none" />
<polyline points="291.0,756.0,307.0,755.5,323.5,755.0,341.0,754.5,359.5,754.5,378.0,753.5" stroke="black" stroke-width="2" fill="none" />
<polyline points="408.0,734.0,392.5,735.0,376.5,736.0,359.5,736.5,343.5,737.5,327.0,738.0,310.0,737.5,293.0,737.5,277.0,738.0,261.0,738.5" stroke="black" stroke-width="2" fill="none" />
<polyline points="263.0,742.0,278.5,725.5,295.0,709.5,312.0,694.0,328.5,679.0" stroke="black" stroke-width="2" fill="none" />
<polyline points="315.5,685.0,299.5,700.0,281.5,716.0,264.5,731.5" stroke="black" stroke-width="2" fill="none" />
<polyline points="263.5,726.0,279.0,726.5,295.5,727.0,312.5,726.5,328.5,726.0,345.5,725.0,361.0,724.5,377.0,724.5,392.5,723.5,409.0,722.0" stroke="black" stroke-width="2" fill="none" />
<polyline points="410.5,700.0,395.0,700.5,379.0,700.5,362.5,700.0,345.0,700.0,328.5,701.0,312.5,702.0,296.0,702.5,280.0,703.0,264.5,703.0" stroke="black" stroke-width="2" fill="none" />
<polyline points="264.0,698.0,280.5,696.5,295.5,695.5,310.5,694.5,326.0,694.0,342.0,694.0,359.0,693.5,375.0,693.0,391.5,692.0,407.5,691.5" stroke="black" stroke-width="2" fill="none" />
<polyline points="425.0,709.5,408.0,711.5,391.5,711.5,375.0,711.5,357.5,712.0,340.5,713.0,324.5,714.0,308.0,715.0,292.5,715.0,276.0,717.0,259.5,719.0,242.5,719.5" stroke="black" stroke-width="2" fill="none" />
<polyline points="243.5,721.5,252.0,732.5,260.0,737.0,268.0,740.5,276.0,743.5,284.0,745.5,292.5,748.5,300.5,749.0,309.0,750.0,317.0,751.5,325.5,752.5,333.5,752.0,341.5,752.0,350.0,751.0,358.0,750.0,366.0,749.0,374.0,747.0,382.0,744.5,390.0,741.5,398.0,736.5,406.5,730.5" stroke="black" stroke-width="2" fill="none" />
<polyline points="427.0,717.5,411.0,718.0,394.0,718.0,377.5,718.0,361.0,718.5,344.5,719.5,327.5,720.0,311.0,721.0,294.5,722.0,278.0,723.0,261.5,724.0,245.0,724.0" stroke="black" stroke-width="2" fill="none" />
<polyline points="247.0,725.0,262.0,709.5,278.0,694.5" stroke="black" stroke-width="2" fill="none" />
<polyline points="263.0,696.0,280.0,678.5,296.0,662.0,312.0,646.0,328.0,629.5" stroke="black" stroke-width="2" fill="none" />
<polyline points="330.5,640.5,314.5,641.0" stroke="black" stroke-width="2" fill="none" />
<polyline points="316.0,630.5,331.5,630.0,347.0,630.5,362.0,631.0" stroke="black" stroke-width="2" fill="none" />
<polyline points="346.5,608.5,354.5,610.5,362.5,608.5,367.0,607.0,358.0,614.0,358.5,622.5,359.5,630.5,358.5,638.5,358.5,646.5,358.5,654.5,358.5,662.5,363.5,663.5,371.5,659.5,368.5,660.0" stroke="black" stroke-width="2" fill="none" />
<polyline points="374.5,657.0,375.5,665.0,375.5,672.5,375.5,680.5,392.0,688.5,404.0,697.0,411.5,705.0,412.5,713.0,412.0,721.5,407.0,729.5,396.0,737.5" stroke="black" stroke-width="2" fill="none" />
<polyline points="409.5,701.5,401.0,693.5,393.0,689.0,384.5,685.0,377.0,682.0" stroke="black" stroke-width="2" fill="none" />
<polyline points="378.0,678.0,362.0,692.5,346.5,707.5,330.0,723.0,313.0,738.5,296.0,754.5" stroke="black" stroke-width="2" fill="none" />
<polyline points="300.5,726.0,293.0,722.0" stroke="black" stroke-width="2" fill="none" />
<polyline points="287.0,722.5,289.0,719.0,297.5,723.0,306.0,725.0,314.0,728.0" stroke="black" stroke-width="2" fill="none" />
<polyline points="310.5,673.5,294.5,673.5,278.0,674.0" stroke="black" stroke-width="2" fill="none" />
<polyline points="278.0,667.5,294.0,667.0,309.0,667.0" stroke="black" stroke-width="2" fill="none" />
<polyline points="298.0,657.5,314.5,657.5,330.5,658.0" stroke="black" stroke-width="2" fill="none" />
<polyline points="329.5,649.0,313.0,649.0,298.0,649.0" stroke="black" stroke-width="2" fill="none" />
<polyline points="279.5,659.5,287.5,654.0,295.5,648.0,303.5,641.0,311.5,633.5,319.5,626.5,328.0,628.0,329.5,632.0,328.0,640.0,327.0,650.5,317.0,658.5,307.0,666.5,299.0,674.0,301.0,672.0,309.0,664.0,316.5,658.5,324.5,652.5,332.0,648.5,339.5,651.5" stroke="black" stroke-width="2" fill="none" />
<polyline points="337.0,645.5,329.0,643.5" stroke="black" stroke-width="2" fill="none" />
<polyline points="344.5,670.0,360.5,670.5,376.0,671.0" stroke="black" stroke-width="2" fill="none" />
<polyline points="359.5,584.5,344.0,584.5" stroke="black" stroke-width="2" fill="none" />
<polyline points="342.0,569.5,358.0,555.5,374.0,540.0" stroke="black" stroke-width="2" fill="none" />
<polyline points="377.0,548.5,361.0,549.0" stroke="black" stroke-width="2" fill="none" />
<polyline points="363.0,554.5,347.0,555.0" stroke="black" stroke-width="2" fill="none" />
<polyline points="343.0,552.5,358.5,538.0,375.0,522.5" stroke="black" stroke-width="2" fill="none" />
<polyline points="359.5,518.0,344.0,534.5" stroke="black" stroke-width="2" fill="none" />
<polyline points="344.0,540.5,361.0,538.5,377.0,537.0" stroke="black" stroke-width="2" fill="none" />
<polyline points="376.0,532.0,360.0,533.0" stroke="black" stroke-width="2" fill="none" />
<polyline points="373.5,519.5,357.0,520.0,341.0,521.0" stroke="black" stroke-width="2" fill="none" />
<polyline points="342.0,503.0,358.0,503.0" stroke="black" stroke-width="2" fill="none" />
<polyline points="364.0,453.5,379.5,438.5" stroke="black" stroke-width="2" fill="none" />
<polyline points="376.0,441.5,360.5,441.5" stroke="black" stroke-width="2" fill="none" />
<polyline points="361.0,441.0,376.0,426.0" stroke="black" stroke-width="2" fill="none" />
<polyline points="378.0,430.0,370.0,419.0" stroke="black" stroke-width="2" fill="none" />
<polyline points="370.5,422.5,378.5,433.5,386.0,435.0,394.0,436.0" stroke="black" stroke-width="2" fill="none" />
<polyline points="389.0,424.5,405.5,408.0" stroke="black" stroke-width="2" fill="none" />
<polyline points="409.5,421.0,394.5,421.5" stroke="black" stroke-width="2" fill="none" />
<polyline points="397.5,420.0,394.0,428.5" stroke="black" stroke-width="2" fill="none" />
<polyline points="391.5,414.0,407.0,412.5" stroke="black" stroke-width="2" fill="none" />
<polyline points="390.0,425.0,374.5,425.0,359.0,425.0" stroke="black" stroke-width="2" fill="none" />
<polyline points="358.0,435.0,374.0,434.5" stroke="black" stroke-width="2" fill="none" />
<polyline points="377.5,431.5,371.5,423.5" stroke="black" stroke-width="2" fill="none" />
<polyline points="373.5,410.0,358.0,411.5" stroke="black" stroke-width="2" fill="none" />
<polyline points="357.0,404.5,362.0,412.5,366.0,420.5,365.0,428.5,364.5,436.5,363.0,445.0,362.5,453.0,361.5,461.0,360.5,469.0,359.5,477.0,358.5,485.0,357.5,493.0,356.5,501.0,355.5,509.0,355.0,517.5,354.0,525.5,353.0,533.0,352.5,541.0,351.5,549.0,350.5,557.0,349.0,565.0,348.0,573.0,347.0,581.0,345.5,589.0,345.0,597.0,344.0,604.5,344.0,613.0,343.0,621.0,340.0,631.0,342.5,639.0,342.5,646.0,342.5,656.0,342.0,664.0,343.0,671.5" stroke="black" stroke-width="2" fill="none" />
<polyline points="258.5,675.0,242.5,691.0" stroke="black" stroke-width="2" fill="none" />
<polyline points="245.5,693.0,260.5,692.0,277.0,691.0" stroke="black" stroke-width="2" fill="none" />
<polyline points="243.5,709.5,251.5,696.5,259.5,690.5,267.5,684.0,275.5,681.0,283.5,677.0,281.5,680.5,271.5,684.5,279.5,681.0,287.5,680.5,301.5,677.5,309.5,676.5,317.5,675.5,326.0,676.5,334.5,675.5,343.0,674.5" stroke="black" stroke-width="2" fill="none" />
<polyline points="340.5,582.5,356.0,568.0" stroke="black" stroke-width="2" fill="none" />
<polyline points="363.5,567.0,348.0,566.5" stroke="black" stroke-width="2" fill="none" />
<polyline points="373.5,674.0,358.0,675.5,342.0,676.5,326.5,677.5,310.5,679.0,295.5,680.0,279.5,682.0,263.5,684.0,248.0,684.5,232.5,685.5" stroke="black" stroke-width="2" fill="none" />
<polyline points="226.5,685.0,218.0,685.0,210.0,685.0,201.5,684.5,193.0,685.0" stroke="black" stroke-width="2" fill="none" />
<polyline points="178.0,675.5,162.0,691.0" stroke="black" stroke-width="2" fill="none" />
<polyline points="166.0,690.0,182.0,689.0" stroke="black" stroke-width="2" fill="none" />
<polyline points="181.0,682.5,165.0,682.5" stroke="black" stroke-width="2" fill="none" />
<polyline points="121.0,686.0,115.0,694.0,98.0,699.0,90.5,706.0,82.5,711.5,80.5,704.5,88.5,700.0,96.5,696.0,104.5,693.0,112.5,690.0,120.5,687.5,128.5,686.0,137.0,684.0,145.0,684.0,153.5,683.0,161.5,680.5,169.5,679.5,177.5,678.0,185.5,676.0,193.5,674.0,201.0,675.0,209.5,675.0,217.5,676.0,225.5,677.0,233.0,678.5,241.0,679.0,249.0,680.0,256.5,678.5,264.5,677.0,272.0,675.0" stroke="black" stroke-width="2" fill="none" />
<polyline points="118.0,694.0,102.5,709.5" stroke="black" stroke-width="2" fill="none" />
<polyline points="105.0,706.0,120.0,705.0" stroke="black" stroke-width="2" fill="none" />
<polyline points="118.0,699.0,102.5,699.0" stroke="black" stroke-width="2" fill="none" />
<polyline points="110.5,690.0,90.5,698.0,80.0,706.0,76.0,714.0,69.5,719.0,61.5,725.0,58.5,732.5,56.0,740.5,55.0,748.5,54.5,756.5,52.5,764.5,55.5,766.5,58.5,763.5" stroke="black" stroke-width="2" fill="none" />
<polyline points="54.5,761.0,71.5,761.0" stroke="black" stroke-width="2" fill="none" />
<polyline points="71.5,762.0,55.0,777.5" stroke="black" stroke-width="2" fill="none" />
<polyline points="57.0,768.0,73.0,768.0" stroke="black" stroke-width="2" fill="none" />
<polyline points="69.5,745.0,54.0,745.0" stroke="black" stroke-width="2" fill="none" />
<polyline points="60.5,742.0,62.5,736.0,61.5,744.0,58.5,752.0,57.5,759.5" stroke="black" stroke-width="2" fill="none" />
<polyline points="63.5,728.5,65.5,731.5,67.0,725.5,60.0,734.5,57.0,735.5,65.0,720.0,73.0,717.0,75.5,713.0,83.5,711.0,86.5,706.0,88.0,703.5,96.0,704.5,101.5,700.5,109.5,698.0,117.5,696.0,126.0,693.0,133.5,693.0,142.0,691.0,150.0,689.0,157.0,685.0,165.0,686.0,170.0,685.0,177.5,684.0,185.5,682.0,192.5,679.5,200.5,679.5,208.5,679.5,216.0,680.5,224.0,681.0,231.5,683.5,239.0,684.5,247.5,684.5,255.5,685.5,264.0,684.5" stroke="black" stroke-width="2" fill="none" />
<polyline points="387.5,496.5,391.5,491.5,393.5,483.5,394.5,476.0,396.0,468.0,397.5,460.0,398.5,451.5,400.0,443.5,401.0,440.0,403.0,432.0,410.0,423.0,402.0,417.5,404.5,409.5,402.5,401.5,399.0,394.5,395.0,386.0,394.0,377.5,387.5,368.5,379.5,364.5,371.5,365.5" stroke="black" stroke-width="2" fill="none" />
<polyline points="370.5,366.5,378.5,371.0,384.0,374.5,389.5,382.5,393.5,390.5,396.5,399.0,396.5,407.0,385.5,412.5,386.5,420.5,392.5,422.0,405.0,419.0,413.0,422.0" stroke="black" stroke-width="2" fill="none" />
<polyline points="394.0,406.0,386.0,410.0" stroke="black" stroke-width="2" fill="none" />
<polyline points="375.0,397.5,359.5,398.5" stroke="black" stroke-width="2" fill="none" />
<polyline points="359.5,392.5,375.5,377.0" stroke="black" stroke-width="2" fill="none" />
<polyline points="374.5,375.0,358.5,375.0,342.0,375.0" stroke="black" stroke-width="2" fill="none" />
<polyline points="347.5,360.5,331.5,361.0" stroke="black" stroke-width="2" fill="none" />
<polyline points="327.0,344.5,343.0,328.5" stroke="black" stroke-width="2" fill="none" />
<polyline points="340.5,342.5,357.5,342.5" stroke="black" stroke-width="2" fill="none" />
<polyline points="346.5,328.0,330.5,327.0,313.5,327.0" stroke="black" stroke-width="2" fill="none" />
<polyline points="313.5,312.5,297.5,328.0" stroke="black" stroke-width="2" fill="none" />
<polyline points="296.0,312.5,311.5,311.5" stroke="black" stroke-width="2" fill="none" />
<polyline points="308.0,301.0,314.0,308.5,321.0,319.5,329.5,331.0,337.5,342.0,345.5,354.0,354.0,366.0,362.0,378.5,369.0,388.5" stroke="black" stroke-width="2" fill="none" />
<polyline points="383.5,387.5,391.5,398.0" stroke="black" stroke-width="2" fill="none" />
<polyline points="399.5,390.0,395.5,382.5" stroke="black" stroke-width="2" fill="none" />
<polyline points="388.5,381.5,388.5,373.5,380.5,371.5" stroke="black" stroke-width="2" fill="none" />
<polyline points="370.0,446.5,370.0,448.5,369.5,456.5,368.0,464.5,367.0,473.0,365.5,481.0,364.5,489.5,363.5,497.5,362.0,505.5,361.0,513.5,360.5,521.5,359.5,529.5,358.5,537.5,358.0,545.5,357.0,553.5,357.0,561.0,356.0,569.0,354.5,577.0,353.0,584.5,353.0,592.5" stroke="black" stroke-width="2" fill="none" />
<polyline points="325.0,298.0,308.5,298.0" stroke="black" stroke-width="2" fill="none" />
<polyline points="307.0,294.5,315.0,299.5,323.5,311.5,331.5,323.5,340.0,334.5,348.0,346.5,356.0,358.5,364.0,370.5,372.0,383.0,384.5,390.0,389.5,398.0" stroke="black" stroke-width="2" fill="none" />
<polyline points="393.0,430.5,385.0,426.5,377.5,414.0,369.5,402.0,361.5,391.0,353.0,379.5,345.0,368.0,337.0,356.0,329.0,345.0,321.0,333.5,313.0,322.0,304.5,311.0,297.0,300.0,289.0,288.0,281.5,277.5,273.5,264.5" stroke="black" stroke-width="2" fill="none" />
<polyline points="279.0,259.5,262.5,275.0" stroke="black" stroke-width="2" fill="none" />
<polyline points="265.0,275.0,281.5,273.5" stroke="black" stroke-width="2" fill="none" />
<polyline points="280.5,270.0,265.5,270.0" stroke="black" stroke-width="2" fill="none" />
<polyline points="263.0,272.0,267.5,283.0,272.5,291.0,279.5,298.5,286.5,306.0,292.5,313.5,299.0,321.0,305.0,329.0,310.5,337.0,316.5,344.5,322.5,352.5,327.5,361.0,333.5,369.5,338.0,377.5,344.5,385.5,349.0,393.5,355.0,402.0,355.0,410.5,354.0,418.5,352.5,426.5,351.5,434.5,350.5,442.5,350.5,450.5,349.5,458.0,347.5,466.0,346.0,473.5,345.5,481.5,346.0,489.5,345.0,497.0,344.0,505.5,341.5,513.5,342.0,521.5,341.0,529.5,340.5,537.5,339.5,545.5,339.0,554.0,338.0,562.0,337.0,570.0,336.0,578.0,335.0,586.0,334.0,594.0,333.0,602.0,332.0,610.0,331.5,618.0,330.5,626.0,316.0,632.0,307.0,639.5,298.0,647.5,286.5,655.5,280.0,663.0,280.0,670.5,281.0,677.5,269.0,685.0,255.5,693.5,249.5,702.0,245.5,710.0,245.5,718.0,250.0,725.5,259.0,733.0,274.5,741.0" stroke="black" stroke-width="2" fill="none" />
<polyline points="264.0,297.0,279.5,296.5,295.0,296.0" stroke="black" stroke-width="2" fill="none" />
<polyline points="310.0,292.5,310.0,300.5,314.5,308.5,319.5,316.0,325.0,324.0,330.0,331.5,336.0,339.5,341.0,348.0,346.5,356.0,352.5,364.0,357.5,371.5,363.5,380.0,368.5,388.0" stroke="black" stroke-width="2" fill="none" />
<polyline points="375.0,388.0,370.0,379.5,365.0,372.5,360.0,364.5,353.5,357.0,348.5,349.0,343.5,341.0,337.5,333.0,332.5,325.0,326.5,317.5,323.0,310.5,317.0,302.5,312.5,295.0" stroke="black" stroke-width="2" fill="none" />
<polyline points="309.5,278.5,325.0,262.5" stroke="black" stroke-width="2" fill="none" />
<polyline points="314.5,264.5,298.0,280.0" stroke="black" stroke-width="2" fill="none" />
<polyline points="292.0,274.5,308.0,273.5,324.5,272.5" stroke="black" stroke-width="2" fill="none" />
<polyline points="325.0,265.0,308.0,265.0,291.0,265.5" stroke="black" stroke-width="2" fill="none" />
<polyline points="287.5,264.0,291.5,263.0,283.5,266.0,284.5,274.0,287.0,277.5,293.0,279.5,301.0,276.0,309.5,269.0,317.5,268.0" stroke="black" stroke-width="2" fill="none" />
<polyline points="316.5,264.0,308.5,264.0,300.0,261.0,292.0,258.5,284.0,264.5" stroke="black" stroke-width="2" fill="none" />
<polyline points="266.0,260.0,281.0,245.0" stroke="black" stroke-width="2" fill="none" />
<polyline points="260.5,243.5,244.0,259.5" stroke="black" stroke-width="2" fill="none" />
<polyline points="241.5,259.5,258.5,259.5" stroke="black" stroke-width="2" fill="none" />
<polyline points="260.5,266.5,263.5,274.5,264.0,282.0,264.0,290.5,269.5,298.5" stroke="black" stroke-width="2" fill="none" />
<polyline points="273.0,283.5,264.5,279.0" stroke="black" stroke-width="2" fill="none" />
<polyline points="264.0,278.5,280.0,277.5,295.0,278.5" stroke="black" stroke-width="2" fill="none" />
<polyline points="297.5,275.0,309.0,269.0" stroke="black" stroke-width="2" fill="none" />
<polyline points="342.0,264.5,357.5,264.5" stroke="black" stroke-width="2" fill="none" />
<polyline points="360.0,267.0,375.0,251.0" stroke="black" stroke-width="2" fill="none" />
<polyline points="375.5,250.0,359.0,250.0" stroke="black" stroke-width="2" fill="none" />
<polyline points="364.5,244.5,366.0,235.5,367.0,227.5,369.0,219.5,369.5,211.5,370.5,209.5" stroke="black" stroke-width="2" fill="none" />
<polyline points="361.5,222.5,351.5,230.5" stroke="black" stroke-width="2" fill="none" />
<polyline points="365.5,228.5,363.5,226.0,361.5,234.0,360.5,242.0,359.5,250.0,355.5,258.0,342.5,266.0,332.0,274.0,324.0,282.5,319.0,291.0,323.0,293.0,326.0,285.5,333.0,281.5,341.0,275.5,348.5,269.5,356.5,264.0,364.5,255.0" stroke="black" stroke-width="2" fill="none" />
<polyline points="360.5,253.0,352.5,261.0,344.5,266.0,336.5,271.5,328.5,278.5,320.5,287.5,329.0,286.5,337.0,278.5,344.0,270.5,358.0,263.5,363.0,260.0,367.5,252.0,368.5,244.5,369.5,236.5,371.5,228.5,372.5,220.5,377.5,212.0,376.5,204.0,372.0,206.5,364.0,216.5,356.0,223.0,348.0,226.0,340.0,226.5,331.5,223.5,324.0,217.5" stroke="black" stroke-width="2" fill="none" />
<polyline points="316.5,212.0,324.0,223.0,332.0,227.0" stroke="black" stroke-width="2" fill="none" />
<polyline points="310.5,212.5,326.0,197.0" stroke="black" stroke-width="2" fill="none" />
<polyline points="313.0,198.0,329.5,182.0" stroke="black" stroke-width="2" fill="none" />
<polyline points="326.5,189.5,311.5,190.0,295.5,191.5,280.0,192.5,263.0,194.5,246.5,195.5,230.0,196.5,213.0,197.0" stroke="black" stroke-width="2" fill="none" />
<polyline points="214.0,182.0,229.5,181.0,246.0,180.5,262.0,180.0,277.5,179.5,294.5,178.0,311.0,176.5" stroke="black" stroke-width="2" fill="none" />
<polyline points="312.0,169.0,296.5,184.5,280.5,199.0" stroke="black" stroke-width="2" fill="none" />
<polyline points="276.0,215.0,292.0,214.0" stroke="black" stroke-width="2" fill="none" />
<polyline points="282.0,217.5,298.0,202.0,313.0,186.5" stroke="black" stroke-width="2" fill="none" />
<polyline points="315.0,183.0,316.0,191.0,317.0,199.5,318.5,208.0,322.5,216.0,330.0,224.0" stroke="black" stroke-width="2" fill="none" />
<polyline points="326.5,204.0,310.5,204.5" stroke="black" stroke-width="2" fill="none" />
<polyline points="296.0,199.5,280.5,201.0,265.5,201.0,248.5,201.5,232.5,201.5,216.0,201.5,199.0,202.0,182.0,203.0,165.5,202.5,149.5,203.0,133.0,204.0,115.5,205.5,99.5,206.5" stroke="black" stroke-width="2" fill="none" />
<polyline points="89.5,205.5,97.5,224.0,105.5,236.0,114.0,246.0,122.0,252.5,130.0,254.5,138.0,258.5,146.5,261.0,154.5,263.0,163.0,263.5,171.0,263.5,179.0,262.5,187.5,260.5,195.0,256.5,203.0,251.0,210.5,244.0,218.5,236.5,226.5,225.5,231.0,215.5,227.0,223.5,222.5,231.5,215.5,239.5,207.5,247.5,197.0,255.5" stroke="black" stroke-width="2" fill="none" />
<polyline points="198.5,272.0,182.5,273.0" stroke="black" stroke-width="2" fill="none" />
<polyline points="180.0,276.0,196.0,260.5,212.5,245.0,229.0,230.0,245.0,215.5,261.5,201.0,278.5,186.5,295.0,172.0,311.5,156.5" stroke="black" stroke-width="2" fill="none" />
<polyline points="311.5,157.5,295.0,158.5,279.0,160.0,262.0,161.0,245.5,162.5,229.5,163.0,212.5,164.0" stroke="black" stroke-width="2" fill="none" />
<polyline points="217.5,165.5,234.0,150.5,251.0,135.0,267.5,119.5" stroke="black" stroke-width="2" fill="none" />
<polyline points="276.5,133.0,261.0,149.0,245.5,164.0,230.5,179.0,216.0,195.0,200.0,211.0,184.0,226.5,167.0,242.5,150.5,259.0" stroke="black" stroke-width="2" fill="none" />
<polyline points="149.5,267.0,165.5,267.0,182.0,266.5,199.0,265.5" stroke="black" stroke-width="2" fill="none" />
<polyline points="169.0,259.0,184.5,244.0,200.0,228.0,216.5,213.0,232.5,198.5,248.0,183.5,263.0,168.0,279.0,153.0" stroke="black" stroke-width="2" fill="none" />
<polyline points="280.0,140.5,262.5,141.5,245.5,142.5,229.5,144.0,213.5,144.5" stroke="black" stroke-width="2" fill="none" />
<polyline points="218.5,150.5,234.0,135.0,249.0,119.0,265.0,103.0" stroke="black" stroke-width="2" fill="none" />
<polyline points="246.0,105.0,230.0,119.5,213.5,135.0,198.0,151.0" stroke="black" stroke-width="2" fill="none" />
<polyline points="197.5,131.0,213.5,115.5,229.5,100.5,246.0,85.0" stroke="black" stroke-width="2" fill="none" />
<polyline points="234.0,72.5,217.5,88.0,200.5,102.5,184.5,116.5" stroke="black" stroke-width="2" fill="none" />
<polyline points="181.0,115.5,194.0,123.5,201.0,131.5,199.5,140.5,200.5,148.0,201.5,156.0" stroke="black" stroke-width="2" fill="none" />
<polyline points="199.0,127.0,215.0,126.5,232.5,126.5,249.0,126.5,265.0,126.0" stroke="black" stroke-width="2" fill="none" />
<polyline points="261.0,110.0,245.0,111.0,229.0,111.5,213.0,111.5,196.0,111.5,181.0,112.0,166.5,112.0,151.5,112.0,135.5,112.5,118.5,113.0" stroke="black" stroke-width="2" fill="none" />
<polyline points="120.0,125.5,135.0,125.5,150.5,127.0" stroke="black" stroke-width="2" fill="none" />
<polyline points="166.5,116.5,183.0,101.5,200.0,87.0,216.5,71.5" stroke="black" stroke-width="2" fill="none" />
<polyline points="214.5,55.5,198.0,71.0,181.5,86.0,165.0,101.5,149.0,117.0,132.5,133.0,116.0,148.5,100.5,164.5" stroke="black" stroke-width="2" fill="none" />
<polyline points="99.5,165.5,116.5,164.5,133.5,163.5,150.0,163.5" stroke="black" stroke-width="2" fill="none" />
<polyline points="140.5,171.0,148.5,187.5,156.0,194.5,164.0,198.0,172.0,198.5,180.0,197.5,188.0,194.0,195.5,189.0,200.5,184.0,189.5,191.5" stroke="black" stroke-width="2" fill="none" />
<polyline points="180.5,198.0,165.0,214.5,149.0,230.5,132.5,245.5" stroke="black" stroke-width="2" fill="none" />
<polyline points="132.0,238.5,149.0,237.5,165.0,238.0,181.5,238.5,198.0,239.0,215.0,239.0,232.5,239.0,249.5,237.0,266.0,236.0" stroke="black" stroke-width="2" fill="none" />
<polyline points="261.5,227.0,246.5,242.5" stroke="black" stroke-width="2" fill="none" />
<polyline points="248.5,234.5,248.0,242.5,250.0,251.0,249.5,259.0,249.5,266.5,250.5,274.5,251.5,282.5,250.5,290.5,252.5,298.5,259.5,298.5,269.5,299.5" stroke="black" stroke-width="2" fill="none" />
<polyline points="275.5,288.5,269.5,280.5" stroke="black" stroke-width="2" fill="none" />
<polyline points="267.5,279.5,275.5,290.5,283.0,299.0,290.5,310.5,298.5,321.5,306.0,334.0,314.0,345.0,322.0,357.0,330.5,368.0,339.0,379.0,347.5,390.0,355.0,401.0,362.5,413.0,370.0,422.5,371.5,430.5,377.5,438.5,376.5,447.0,376.0,455.0,375.0,463.0,374.0,471.0,372.5,479.0,372.0,487.0,372.0,495.0,371.0,503.0,369.0,511.0,368.0,519.0,368.0,527.0,366.0,535.0,365.5,543.0" stroke="black" stroke-width="2" fill="none" />
<polyline points="260.5,267.5,268.5,267.5,276.5,249.5" stroke="black" stroke-width="2" fill="none" />
<polyline points="277.0,254.5,260.5,255.5,245.0,256.0" stroke="black" stroke-width="2" fill="none" />
<polyline points="229.0,249.0,212.5,250.0,197.5,251.0,182.0,252.5,166.5,254.0,151.0,254.5,135.0,255.5,119.5,256.5" stroke="black" stroke-width="2" fill="none" />
<polyline points="123.0,251.5,136.0,259.5" stroke="black" stroke-width="2" fill="none" />
<polyline points="116.0,246.5,132.0,231.0,148.5,215.5,165.5,200.0" stroke="black" stroke-width="2" fill="none" />
<polyline points="155.0,181.5,138.0,197.0,122.0,213.0" stroke="black" stroke-width="2" fill="none" />
<polyline points="120.5,209.5,136.0,209.0,150.5,208.5,165.5,208.5,180.5,208.5,196.0,208.5,213.0,208.0,229.0,208.0,245.5,207.5,262.5,206.5" stroke="black" stroke-width="2" fill="none" />
<polyline points="267.5,203.0,258.5,213.0,256.5,221.0,256.5,217.5,262.5,209.5,268.0,201.5,270.0,193.5,272.0,185.5,273.0,177.5,274.0,169.0,273.5,161.0,273.5,153.0,273.5,145.5,270.0,132.5,262.0,112.5,254.0,99.5,246.0,90.0,238.0,82.0,230.0,75.5,222.0,69.0,213.5,63.0,205.5,57.0,197.5,52.0,189.5,49.0,181.5,47.0,173.5,45.0,165.5,44.5,157.5,44.5,149.5,46.5,142.0,49.5,134.5,53.0,126.5,58.0,119.0,64.5,110.5,72.0,102.0,83.0,94.0,96.0,86.0,117.5" stroke="black" stroke-width="2" fill="none" />
<polyline points="88.5,116.5,95.5,100.0,91.5,108.0,89.0,116.0,87.5,124.5,85.5,132.5,85.0,140.5,84.0,149.0,84.5,157.0,84.5,164.5,85.5,173.5,86.5,182.5,88.0,193.0,90.0,201.0,93.0,209.0,96.0,218.5,99.5,227.0,105.5,235.5,111.5,244.0,119.0,252.0,131.0,260.5" stroke="black" stroke-width="2" fill="none" />
<polyline points="100.5,233.0,116.5,232.0,132.0,231.5,148.5,231.0,165.5,231.0,182.5,229.5,198.5,229.5,215.0,229.0,231.5,227.5,247.5,226.0,264.0,225.5" stroke="black" stroke-width="2" fill="none" />
<polyline points="256.0,221.5,261.0,213.5" stroke="black" stroke-width="2" fill="none" />
<polyline points="304.5,180.5,308.0,185.5,310.0,194.0,312.0,202.0,314.0,210.0,317.5,217.5,324.5,226.0,332.0,229.5,340.5,232.5,348.0,232.5,356.0,228.5,366.0,220.5,372.5,213.5,370.5,207.0,363.5,215.5,353.5,223.0" stroke="black" stroke-width="2" fill="none" />
<polyline points="327.5,178.5,312.0,179.5,295.0,181.5,278.5,182.5,262.0,183.5,245.0,184.0,229.0,184.5,214.0,184.0,199.5,184.5,185.0,184.5,170.0,184.5,154.0,185.0,138.0,186.5,122.0,187.5,106.5,188.0,91.0,187.5" stroke="black" stroke-width="2" fill="none" />
<polyline points="86.0,198.5,94.0,219.5,102.5,234.0,110.5,244.0,118.5,252.0,127.0,258.0,135.0,263.0,143.0,266.0,151.0,268.0,159.0,270.0,167.0,269.0,175.0,269.0,183.0,268.5,191.0,265.5,199.0,262.0,206.5,258.5,215.0,255.5,223.0,251.5,231.0,246.5,239.0,240.5,247.0,234.0,244.0,237.0,233.5,244.5,220.5,252.5,202.0,260.5,184.0,268.5" stroke="black" stroke-width="2" fill="none" />
<polyline points="147.0,150.5,131.5,151.0,116.0,151.5,100.5,152.0" stroke="black" stroke-width="2" fill="none" />
<polyline points="103.5,147.0,118.0,131.5,134.5,116.0,150.5,100.5,166.5,85.0,182.0,70.5,197.5,55.0" stroke="black" stroke-width="2" fill="none" />
<polyline points="186.0,47.5,203.0,55.5,214.0,64.0,225.0,72.0,236.0,80.0,244.0,88.0,250.5,96.5,256.5,104.5,261.0,112.0,264.5,120.0,267.5,127.5,270.5,135.5,270.0,143.5,271.0,151.5,271.0,159.5,271.0,168.0,270.0,176.0,268.5,184.0,266.5,192.0,264.5,200.0,275.0,203.5,283.0,204.5,290.5,200.5,298.5,192.0,306.5,176.0,311.0,185.0" stroke="black" stroke-width="2" fill="none" />
<polyline points="309.5,166.5,294.0,167.0,278.0,167.5,261.5,168.0,246.0,169.0,230.0,169.0,214.5,169.5,199.0,169.0,184.0,168.0,169.0,168.0,152.5,169.5,136.0,170.5,119.5,171.0,103.5,172.0,87.5,172.5" stroke="black" stroke-width="2" fill="none" />
<polyline points="88.0,154.0,104.0,153.5,120.0,153.0,136.0,152.5,151.5,152.5,166.5,153.0,183.5,152.5,199.5,152.0,215.0,152.0,229.0,151.5,244.5,151.0,261.5,150.0,277.5,149.5,294.0,148.0,311.0,147.0" stroke="black" stroke-width="2" fill="none" />
<polyline points="288.5,140.0,298.0,148.5,303.0,156.5,306.0,164.5,306.0,172.0,305.0,180.0,301.5,188.0,295.0,196.5" stroke="black" stroke-width="2" fill="none" />
<polyline points="196.5,119.0,212.5,103.5,228.5,88.0" stroke="black" stroke-width="2" fill="none" />
<polyline points="215.0,60.5,197.5,61.0,181.0,62.0,165.5,63.0,150.0,63.5" stroke="black" stroke-width="2" fill="none" />
<polyline points="153.5,55.0,137.5,70.5,121.0,85.5" stroke="black" stroke-width="2" fill="none" />
<polyline points="122.0,72.5,137.5,72.5,153.5,72.0,168.5,70.5,183.5,69.0,198.5,68.5,214.5,67.5,231.5,68.0" stroke="black" stroke-width="2" fill="none" />
<polyline points="232.0,77.0,217.0,78.0,200.0,78.5,184.0,80.0,168.5,81.5,152.5,83.0,137.0,84.0" stroke="black" stroke-width="2" fill="none" />
<polyline points="134.5,62.5,151.0,62.0,167.0,60.0,182.0,58.0,197.5,56.0,212.0,54.0" stroke="black" stroke-width="2" fill="none" />
<polyline points="183.0,51.0,200.0,58.5,210.0,66.5,218.0,74.5,225.5,82.5,230.5,90.0,234.5,98.5,237.5,106.5,240.5,114.0,242.0,122.0" stroke="black" stroke-width="2" fill="none" />
<polyline points="245.5,91.0,229.0,92.0,213.0,93.0,197.0,94.0,181.0,94.0,165.5,95.5,150.5,96.5,135.5,97.5,120.0,98.5" stroke="black" stroke-width="2" fill="none" />
<polyline points="106.0,88.0,121.5,88.0,137.5,88.5,153.0,89.0,168.5,89.0,183.5,89.0,199.5,89.5,216.5,88.5,233.0,88.0,249.0,88.5" stroke="black" stroke-width="2" fill="none" />
<polyline points="261.0,107.0,245.0,107.5,229.0,108.5,213.0,108.5,197.5,109.0,182.0,109.5,166.0,109.0,150.5,108.0,135.0,107.5,119.0,107.5,103.0,108.0" stroke="black" stroke-width="2" fill="none" />
<polyline points="100.5,116.5,117.5,101.5,134.0,87.0,150.0,72.0,165.5,56.0" stroke="black" stroke-width="2" fill="none" />
<polyline points="179.0,54.0,163.5,70.0,147.5,86.0,131.5,102.0,115.0,117.0,99.5,132.5" stroke="black" stroke-width="2" fill="none" />
<polyline points="87.5,122.5,103.0,121.0,119.0,120.5,135.0,120.0,152.5,118.5,169.0,118.0,185.0,117.5,200.5,117.5,216.0,116.0,231.5,114.5,247.0,114.0,263.0,113.5,280.5,113.5" stroke="black" stroke-width="2" fill="none" />
<polyline points="277.5,129.5,261.5,131.0,245.5,131.5,229.5,132.0,214.0,133.0,198.5,134.0,183.0,135.0,166.5,135.5,149.5,136.0,133.0,136.0,116.0,137.0,99.0,137.5,82.0,138.0" stroke="black" stroke-width="2" fill="none" />
<polyline points="138.5,146.5,146.5,128.5,155.0,120.5,163.0,115.5,171.5,114.0,179.0,113.5,187.0,116.5,195.0,122.5,202.5,132.5" stroke="black" stroke-width="2" fill="none" />
<polyline points="166.5,114.0,152.5,121.5,146.5,129.5,142.5,137.5,139.0,146.0,138.0,154.0,138.0,162.0,140.0,170.0,142.0,178.5,146.5,186.5,154.5,194.5" stroke="black" stroke-width="2" fill="none" />
<polyline points="239.0,110.0,231.0,92.0,223.0,79.0,215.0,70.0,206.5,62.5,198.0,57.5,190.0,54.0,182.0,51.5,174.5,50.0,166.5,49.5,157.5,50.5,149.5,51.5" stroke="black" stroke-width="2" fill="none" />
<polyline points="146.5,50.0,130.5,58.0,137.5,54.5,146.5,50.5,151.5,52.5,159.5,51.5,167.0,50.5,175.0,51.5,183.0,53.5,191.0,56.5,199.0,60.5,207.0,66.0,215.0,74.0,223.5,83.0,232.0,97.5" stroke="black" stroke-width="2" fill="none" />
<polyline points="240.5,125.0,237.5,117.5,236.0,109.5,232.0,101.5,228.0,93.5,222.5,85.5,216.5,77.5,209.0,69.5,199.0,61.5,181.5,53.5" stroke="black" stroke-width="2" fill="none" />
</svg>