<svg xmlns="http://www.w3.org/2000/svg" version="1.1"><polyline points="185.5,50.5,187.5,58.5,188.5,66.5,190.5,74.5,197.5,80.0,192.0,83.5,191.0,86.5,190.5,95.5,191.5,103.0,186.5,105.0,188.0,105.5,201.5,105.0,209.0,107.0,217.5,106.5,220.5,100.0" stroke="black" stroke-width="2" fill="none" />
<polyline points="218.5,105.0,202.5,120.5" stroke="black" stroke-width="2" fill="none" />
<polyline points="195.5,111.5,204.5,121.0,202.0,129.5,211.0,138.0,212.5,146.5,214.0,155.0,218.5,152.0,223.0,150.0,234.0,159.5,242.0,162.5" stroke="black" stroke-width="2" fill="none" />
<polyline points="230.0,165.5,213.0,180.0,197.0,196.0,181.5,211.5" stroke="black" stroke-width="2" fill="none" />
<polyline points="180.5,211.5,188.0,214.5,196.0,218.5" stroke="black" stroke-width="2" fill="none" />
<polyline points="200.0,212.5,217.0,197.0,234.0,181.0,250.0,165.0,265.0,149.0,280.5,134.0" stroke="black" stroke-width="2" fill="none" />
<polyline points="280.0,136.5,263.5,136.5,247.5,137.0,231.5,136.5,215.5,136.5,199.5,136.5,184.5,137.5" stroke="black" stroke-width="2" fill="none" />
<polyline points="189.0,140.0,197.0,147.5" stroke="black" stroke-width="2" fill="none" />
<polyline points="199.0,159.5,215.0,159.5" stroke="black" stroke-width="2" fill="none" />
<polyline points="227.0,149.0,243.5,148.0" stroke="black" stroke-width="2" fill="none" />
<polyline points="240.0,144.0,248.0,132.0,255.5,121.0,263.5,116.0,271.5,107.0,280.0,97.5,277.0,100.5,270.5,108.5,261.5,116.5,260.0,121.0,260.0,131.0,252.0,139.0,246.0,140.5,251.0,148.5,250.0,149.5,258.0,140.5,266.5,130.5,274.5,126.5,280.5,118.5,278.5,119.5,279.5,124.5,273.0,132.5,268.5,141.0,260.5,149.0,257.5,156.5" stroke="black" stroke-width="2" fill="none" />
<polyline points="256.0,154.5,264.5,145.0,272.5,132.0" stroke="black" stroke-width="2" fill="none" />
<polyline points="276.5,135.0,271.5,143.0,268.5,151.0,263.5,159.5,257.5,167.5,256.5,175.5,254.5,183.0,251.0,190.5,262.0,174.5,276.5,168.0" stroke="black" stroke-width="2" fill="none" />
<polyline points="264.5,166.0,247.5,181.0,231.0,196.0,214.0,212.0,197.5,228.0" stroke="black" stroke-width="2" fill="none" />
<polyline points="200.5,226.5,215.5,225.5,231.0,225.0,247.0,225.0,262.5,224.5" stroke="black" stroke-width="2" fill="none" />
<polyline points="263.0,222.0,271.0,216.0,263.5,224.0,263.5,232.0,260.5,241.5,256.5,240.0,264.5,238.5,273.0,243.5,280.5,239.5,288.5,240.0,296.0,241.0,305.5,239.0,315.5,237.5,323.0,236.5,331.5,236.5" stroke="black" stroke-width="2" fill="none" />
<polyline points="335.0,247.5,330.5,264.0,324.0,265.0,316.0,271.0,308.0,272.0,315.0,271.0,327.0,263.0,330.5,255.5,335.5,247.5" stroke="black" stroke-width="2" fill="none" />
<polyline points="336.5,249.5,334.5,257.5,329.5,265.5,322.5,262.5,335.5,266.5,336.0,275.5" stroke="black" stroke-width="2" fill="none" />
<polyline points="343.0,281.5,326.0,297.0" stroke="black" stroke-width="2" fill="none" />
<polyline points="323.0,287.5,330.5,286.5,338.5,286.0,347.0,293.0,355.0,294.5,363.0,294.5" stroke="black" stroke-width="2" fill="none" />
<polyline points="357.5,297.0,340.5,312.5" stroke="black" stroke-width="2" fill="none" />
<polyline points="327.5,315.5,343.0,315.5,358.5,315.5,374.0,315.0,390.0,314.5,406.5,313.5,422.0,312.0,439.0,310.5,455.5,310.0,472.0,309.5,488.5,309.0,503.5,308.0,519.0,307.0" stroke="black" stroke-width="2" fill="none" />
<polyline points="518.0,287.0,500.0,287.5,484.5,287.5,469.0,288.5,453.5,288.5,437.5,288.5,421.0,289.0,405.0,289.5,389.5,291.0,373.5,292.0,357.5,292.5,341.0,293.5,325.5,294.5,309.0,295.0,293.0,294.5,278.0,294.0,263.0,294.0,246.5,295.0,230.5,296.0,214.5,296.5,198.5,296.5,183.0,296.0,167.5,295.5,153.0,295.5,137.5,295.5,122.0,295.0,107.0,296.0" stroke="black" stroke-width="2" fill="none" />
<polyline points="114.5,294.0,130.5,278.5" stroke="black" stroke-width="2" fill="none" />
<polyline points="139.0,281.0,147.0,278.0,148.0,286.0,153.5,278.0" stroke="black" stroke-width="2" fill="none" />
<polyline points="151.5,278.0,135.5,294.0" stroke="black" stroke-width="2" fill="none" />
<polyline points="138.5,295.5,130.5,295.0,122.5,297.5,117.5,305.5,119.5,308.5,124.0,306.5,132.0,298.5" stroke="black" stroke-width="2" fill="none" />
<polyline points="128.5,310.0,120.5,309.0" stroke="black" stroke-width="2" fill="none" />
<polyline points="119.0,300.0,127.0,302.0,135.0,301.0,143.0,299.5,151.5,302.0" stroke="black" stroke-width="2" fill="none" />
<polyline points="154.5,309.0,170.5,294.0,186.5,278.5" stroke="black" stroke-width="2" fill="none" />
<polyline points="183.5,279.5,191.5,279.5" stroke="black" stroke-width="2" fill="none" />
<polyline points="196.5,273.0,188.5,271.0" stroke="black" stroke-width="2" fill="none" />
<polyline points="190.0,274.5,182.0,274.5" stroke="black" stroke-width="2" fill="none" />
<polyline points="180.5,274.0,193.5,276.5,190.0,279.0,194.0,286.0,199.5,291.0" stroke="black" stroke-width="2" fill="none" />
<polyline points="199.5,290.5,216.0,276.0,233.0,261.5,249.5,247.0,266.0,231.5,282.0,216.0" stroke="black" stroke-width="2" fill="none" />
<polyline points="281.5,198.5,266.0,213.5,251.0,228.5,234.5,243.5,218.0,258.5,201.0,274.0,184.5,289.0" stroke="black" stroke-width="2" fill="none" />
<polyline points="173.5,301.0,176.5,299.0,184.5,298.0,192.5,299.5,200.0,295.0,208.0,295.5,216.5,297.5,225.5,295.5" stroke="black" stroke-width="2" fill="none" />
<polyline points="219.0,297.5,226.5,298.5,234.5,298.0,242.5,298.0,250.5,297.5,258.5,297.5,266.5,298.0,274.0,301.0,282.5,295.5,290.5,295.0,299.0,294.0,306.5,292.0,314.5,291.0,322.5,291.0,330.5,290.5,332.5,298.0,340.5,301.5,349.0,302.0,357.0,302.0,365.0,302.0,373.0,298.5,381.0,297.5,389.0,297.5,397.0,297.5,405.0,297.5" stroke="black" stroke-width="2" fill="none" />
<polyline points="411.0,310.0,427.0,294.5" stroke="black" stroke-width="2" fill="none" />
<polyline points="440.5,308.0,456.5,292.5" stroke="black" stroke-width="2" fill="none" />
<polyline points="494.0,298.0,502.0,299.0" stroke="black" stroke-width="2" fill="none" />
<polyline points="500.5,311.5,492.5,310.5" stroke="black" stroke-width="2" fill="none" />
<polyline points="437.0,247.5,421.0,248.0" stroke="black" stroke-width="2" fill="none" />
<polyline points="391.0,249.0,375.0,250.0" stroke="black" stroke-width="2" fill="none" />
<polyline points="377.0,245.0,384.5,244.0,385.5,249.0,391.0,244.0" stroke="black" stroke-width="2" fill="none" />
<polyline points="389.5,252.0,374.0,267.0" stroke="black" stroke-width="2" fill="none" />
<polyline points="370.5,257.0,387.0,256.0" stroke="black" stroke-width="2" fill="none" />
<polyline points="383.0,258.5,383.5,251.0,378.5,243.0,386.5,238.5,385.5,235.5" stroke="black" stroke-width="2" fill="none" />
<polyline points="379.0,231.5,395.0,216.0" stroke="black" stroke-width="2" fill="none" />
<polyline points="395.5,228.0,379.5,229.0" stroke="black" stroke-width="2" fill="none" />
<polyline points="381.0,224.0,392.0,232.0,396.0,238.5,397.0,246.5,390.0,254.5,386.0,257.0" stroke="black" stroke-width="2" fill="none" />
<polyline points="375.5,276.0,358.5,276.0,342.0,276.5,326.5,277.0,309.5,277.5,293.0,278.5,277.5,279.0,262.0,279.5,246.0,280.0,230.0,280.0,214.5,281.5,198.5,281.5,182.5,281.0,166.5,281.0,151.5,281.5,135.0,281.0,118.5,280.5,103.0,279.5,87.0,279.0" stroke="black" stroke-width="2" fill="none" />
<polyline points="95.5,279.5,103.5,279.5" stroke="black" stroke-width="2" fill="none" />
<polyline points="99.0,278.5,83.5,294.0" stroke="black" stroke-width="2" fill="none" />
<polyline points="83.5,291.5,100.0,291.5,116.0,290.5,132.0,290.0,148.5,289.0,164.5,289.0,181.0,289.5,197.0,289.5,212.0,289.0,227.5,287.5,243.5,286.5,260.0,286.0,276.5,285.5,294.0,285.5,311.5,285.5,329.0,284.5,345.5,283.5,362.0,283.0" stroke="black" stroke-width="2" fill="none" />
<polyline points="356.5,282.0,341.5,297.0" stroke="black" stroke-width="2" fill="none" />
<polyline points="356.0,287.5,364.0,288.5,371.5,293.5,379.0,294.0,387.0,295.0,394.5,295.0,402.5,294.0,411.0,291.5,419.0,287.5" stroke="black" stroke-width="2" fill="none" />
<polyline points="397.5,302.0,390.0,302.0,382.0,301.5" stroke="black" stroke-width="2" fill="none" />
<polyline points="378.0,301.0,386.0,299.5,394.5,299.5,403.0,299.5,411.5,297.5,419.5,298.5,428.0,298.5,436.5,297.5,444.5,297.5,452.5,297.5,460.5,298.0,473.5,295.0,480.5,294.0,488.5,296.0,496.0,295.5,504.0,295.0,512.0,296.0" stroke="black" stroke-width="2" fill="none" />
<polyline points="389.5,280.5,387.5,279.0,382.5,274.5,376.5,278.5,368.0,271.5,372.0,266.5,375.0,253.5,374.0,251.5,373.0,247.0,365.0,245.0,357.0,239.0,357.0,235.5,358.0,223.5,362.5,222.0,366.5,221.0,365.5,222.5,365.0,229.5" stroke="black" stroke-width="2" fill="none" />
<polyline points="354.0,235.0,362.5,240.0,369.0,235.5,368.0,243.5,362.0,247.5,369.0,250.0" stroke="black" stroke-width="2" fill="none" />
<polyline points="358.0,254.5,366.0,260.5,374.0,263.5" stroke="black" stroke-width="2" fill="none" />
<polyline points="367.0,264.0,359.0,257.5" stroke="black" stroke-width="2" fill="none" />
<polyline points="358.0,256.0,370.0,264.0" stroke="black" stroke-width="2" fill="none" />
<polyline points="382.5,270.0,374.5,275.0,371.5,267.0,363.5,263.0,356.0,255.0" stroke="black" stroke-width="2" fill="none" />
<polyline points="342.0,263.5,325.5,279.0,309.0,294.5" stroke="black" stroke-width="2" fill="none" />
<polyline points="310.5,305.0,318.5,305.0,326.5,305.0,334.5,306.0,341.0,305.5,349.0,305.5,357.0,306.0,364.5,306.0,372.5,307.0" stroke="black" stroke-width="2" fill="none" />
<polyline points="375.0,295.5,359.5,311.5" stroke="black" stroke-width="2" fill="none" />
<polyline points="342.0,277.0,326.5,277.5" stroke="black" stroke-width="2" fill="none" />
<polyline points="310.5,275.5,294.5,291.5,277.0,307.5" stroke="black" stroke-width="2" fill="none" />
<polyline points="260.5,310.5,277.0,295.5,294.0,279.5" stroke="black" stroke-width="2" fill="none" />
<polyline points="278.5,279.5,263.0,295.0,247.0,310.5" stroke="black" stroke-width="2" fill="none" />
<polyline points="249.5,301.5,257.5,302.5,265.5,303.0" stroke="black" stroke-width="2" fill="none" />
<polyline points="259.5,306.5,275.5,307.0,292.0,307.5" stroke="black" stroke-width="2" fill="none" />
<polyline points="310.0,271.0,326.0,270.0,342.5,269.5" stroke="black" stroke-width="2" fill="none" />
<polyline points="341.0,251.5,326.0,251.0,311.0,251.0" stroke="black" stroke-width="2" fill="none" />
<polyline points="309.0,264.5,311.0,262.5,308.5,262.5,298.5,270.5,278.5,278.5" stroke="black" stroke-width="2" fill="none" />
<polyline points="263.5,277.5,247.5,293.5" stroke="black" stroke-width="2" fill="none" />
<polyline points="244.0,277.5,228.5,293.5,212.5,309.5" stroke="black" stroke-width="2" fill="none" />
<polyline points="213.5,304.5,230.0,304.0" stroke="black" stroke-width="2" fill="none" />
<polyline points="216.0,296.0,225.0,304.5,230.0,303.5,233.5,305.5,240.5,305.5,249.0,306.5,256.5,306.0,265.0,305.0,273.0,303.5,281.5,302.5,283.5,305.5,291.0,305.5,299.0,307.5,300.0,308.5,307.5,309.0,315.5,310.0,323.5,309.0" stroke="black" stroke-width="2" fill="none" />
<polyline points="265.0,255.5,248.5,256.5,232.5,258.0,217.5,260.0,202.0,260.5" stroke="black" stroke-width="2" fill="none" />
<polyline points="197.0,264.0,213.0,248.5" stroke="black" stroke-width="2" fill="none" />
<polyline points="202.0,252.0,217.5,251.5,233.0,251.0,247.5,250.0,262.5,248.5,278.5,247.5,293.0,246.5" stroke="black" stroke-width="2" fill="none" />
<polyline points="285.0,239.5,268.0,247.5,260.5,254.5" stroke="black" stroke-width="2" fill="none" />
<polyline points="261.0,250.0,246.0,264.5" stroke="black" stroke-width="2" fill="none" />
<polyline points="248.0,268.0,232.0,269.0,216.0,270.0,199.5,271.5" stroke="black" stroke-width="2" fill="none" />
<polyline points="213.0,267.5,223.0,267.5" stroke="black" stroke-width="2" fill="none" />
<polyline points="226.5,277.0,211.5,292.5,195.0,308.5" stroke="black" stroke-width="2" fill="none" />
<polyline points="168.0,315.5,176.0,315.5,184.0,315.5,191.5,315.5,199.5,315.5,208.0,316.5,215.5,316.5,223.5,316.0,231.5,316.0,239.5,315.5,247.5,315.5,255.5,315.5,263.5,316.5,271.5,316.5,279.5,317.0,287.0,317.0,295.0,317.0,303.0,317.0,311.0,316.5,319.0,316.5,327.0,316.5,334.5,316.5,342.5,317.0,350.5,317.0,359.0,318.5,367.0,318.5,375.0,318.0,383.0,318.0,391.0,317.0,399.0,317.5,407.0,317.5,415.0,318.5,423.0,317.5,430.5,317.5,438.5,317.5,446.5,319.0,454.5,318.5,463.0,317.5,471.0,318.0,479.0,318.0,487.0,318.0,495.0,318.0,503.0,318.0,511.5,318.0" stroke="black" stroke-width="2" fill="none" />
<polyline points="390.0,254.0,390.0,260.5,382.0,264.5,381.0,265.0,381.0,265.0,379.0,256.5,374.0,248.0,359.5,243.0,354.5,235.5,351.5,227.5,353.5,220.0,352.0,221.0" stroke="black" stroke-width="2" fill="none" />
<polyline points="364.0,204.0,372.0,203.5,380.0,205.0,388.0,204.0,396.0,203.5,404.5,203.0" stroke="black" stroke-width="2" fill="none" />
<polyline points="411.0,218.5,409.5,226.5,408.5,234.0,409.5,242.0,408.5,249.5,408.0,257.0,407.5,265.0,407.0,273.0,408.0,281.0" stroke="black" stroke-width="2" fill="none" />
<polyline points="392.0,219.5,375.5,220.0" stroke="black" stroke-width="2" fill="none" />
<polyline points="376.0,219.0,384.0,220.0,392.0,226.0" stroke="black" stroke-width="2" fill="none" />
<polyline points="393.0,231.5,385.0,224.5,377.0,221.0" stroke="black" stroke-width="2" fill="none" />
<polyline points="381.0,222.5,393.5,230.0,397.5,238.0,398.5,246.0,396.0,253.5,386.0,261.5,388.0,259.5,388.0,252.0" stroke="black" stroke-width="2" fill="none" />
<polyline points="372.0,189.0,364.0,187.5" stroke="black" stroke-width="2" fill="none" />
<polyline points="362.0,183.5,377.0,168.0,392.0,152.0" stroke="black" stroke-width="2" fill="none" />
<polyline points="404.0,155.5,389.0,170.5" stroke="black" stroke-width="2" fill="none" />
<polyline points="387.5,167.5,403.0,167.0" stroke="black" stroke-width="2" fill="none" />
<polyline points="409.5,168.0,426.0,152.5" stroke="black" stroke-width="2" fill="none" />
<polyline points="419.5,160.5,403.5,160.5,388.0,161.0,372.5,161.0,356.5,160.5" stroke="black" stroke-width="2" fill="none" />
<polyline points="355.5,157.0,372.0,156.5,389.0,155.5,406.0,155.0,421.5,154.0" stroke="black" stroke-width="2" fill="none" />
<polyline points="400.5,174.0,397.5,175.5,388.5,173.0,379.5,173.0,371.5,173.0,364.0,173.0" stroke="black" stroke-width="2" fill="none" />
<polyline points="363.0,169.5,371.0,169.5,379.0,169.5,387.0,170.0,395.0,170.0,403.0,170.5,410.5,168.5" stroke="black" stroke-width="2" fill="none" />
<polyline points="407.5,178.0,409.5,165.0,411.0,157.0,410.0,148.5,405.0,146.5,397.0,145.5,389.0,145.5,381.5,146.0,373.5,146.0,365.5,147.0,357.5,149.0" stroke="black" stroke-width="2" fill="none" />
<polyline points="360.0,146.5,356.0,154.5,356.5,163.0,360.5,171.0,357.0,179.5,350.0,187.5,342.0,196.0,340.5,204.0,339.5,211.5,341.0,219.5,341.5,227.5,341.5,235.5,341.0,243.5,341.0,251.0,339.5,259.0" stroke="black" stroke-width="2" fill="none" />
<polyline points="338.5,201.5,346.5,188.0,356.0,179.5,364.0,181.5,372.5,182.5,380.5,181.5,388.5,181.0,396.0,182.5" stroke="black" stroke-width="2" fill="none" />
<polyline points="391.5,180.0,395.5,177.0" stroke="black" stroke-width="2" fill="none" />
<polyline points="374.0,152.0,358.5,168.0" stroke="black" stroke-width="2" fill="none" />
<polyline points="357.0,168.0,373.0,168.5" stroke="black" stroke-width="2" fill="none" />
<polyline points="366.0,187.5,358.0,186.0" stroke="black" stroke-width="2" fill="none" />
<polyline points="356.5,189.0,373.0,187.5,389.5,185.5" stroke="black" stroke-width="2" fill="none" />
<polyline points="385.0,199.0,377.0,197.5,371.0,199.5,363.0,203.0,355.0,202.0,352.5,199.0,344.5,201.5" stroke="black" stroke-width="2" fill="none" />
<polyline points="347.0,200.0,344.0,208.0,344.0,216.0,343.0,224.5,344.0,232.5,344.0,240.5,342.5,248.5,343.0,257.5,343.0,266.0,344.0,274.0,344.0,282.0,349.5,285.0,357.5,286.0,365.5,287.0,373.5,284.0,372.5,286.0,381.0,287.0,389.0,287.0,397.0,288.0,404.5,288.0" stroke="black" stroke-width="2" fill="none" />
<polyline points="505.0,308.5,497.0,307.5,489.0,307.5,481.0,304.5,473.0,305.0,465.5,307.5,457.5,306.5,449.5,303.0,439.0,301.0,435.5,305.0,427.0,305.0,419.0,306.0,419.0,303.0,410.0,305.0,403.0,305.0,395.5,306.0,387.5,307.0,379.5,306.0,366.5,298.5,356.5,299.5,348.0,296.0,340.0,295.5,332.0,294.5,324.0,295.0,316.0,296.0,308.0,298.5,295.0,298.0,286.5,298.0,282.5,292.5,274.5,294.5,266.5,295.0,258.0,294.0,250.5,295.0,242.5,295.0,234.5,292.5,226.5,292.0,221.5,288.5,213.5,288.0,205.5,290.5,197.5,292.5,189.5,296.0,182.0,295.0,173.5,295.0,165.5,296.0,157.0,296.0,149.0,296.5,146.0,290.5,142.0,291.5,140.0,283.5,154.0,279.5,149.5,284.5,141.0,284.5" stroke="black" stroke-width="2" fill="none" />
<polyline points="154.0,295.0,170.0,279.5" stroke="black" stroke-width="2" fill="none" />
<polyline points="171.0,289.0,168.0,291.0" stroke="black" stroke-width="2" fill="none" />
<polyline points="171.5,259.5,188.0,243.5" stroke="black" stroke-width="2" fill="none" />
<polyline points="183.0,255.0,168.0,256.0,152.5,256.5,136.5,256.5,120.5,256.5,103.5,256.5" stroke="black" stroke-width="2" fill="none" />
<polyline points="102.0,248.5,118.5,248.0,135.5,248.0,152.0,248.5,168.5,249.0,184.0,248.5" stroke="black" stroke-width="2" fill="none" />
<polyline points="170.5,248.5,154.0,264.5" stroke="black" stroke-width="2" fill="none" />
<polyline points="147.5,244.0,131.0,259.0" stroke="black" stroke-width="2" fill="none" />
<polyline points="131.0,247.5,115.0,263.5" stroke="black" stroke-width="2" fill="none" />
<polyline points="116.0,251.0,100.5,267.5" stroke="black" stroke-width="2" fill="none" />
<polyline points="104.0,264.5,88.0,265.0" stroke="black" stroke-width="2" fill="none" />
<polyline points="85.0,266.0,84.5,274.0,90.5,270.5,98.5,271.0,106.5,271.0,114.5,271.5,122.5,271.5,130.5,271.5,138.5,270.5,146.5,271.0,154.5,270.0,162.5,270.0,170.5,270.0,178.5,270.5,186.0,269.0,194.0,267.5,200.5,266.5,209.5,264.5,218.0,264.0,220.0,267.0,232.0,269.5,239.5,264.0,248.0,259.5,255.5,255.5,263.0,251.0,271.0,246.5,279.0,243.5" stroke="black" stroke-width="2" fill="none" />
<polyline points="282.5,238.5,265.5,241.0" stroke="black" stroke-width="2" fill="none" />
<polyline points="263.0,242.0,248.0,242.0,231.5,242.0" stroke="black" stroke-width="2" fill="none" />
<polyline points="230.0,237.0,246.0,236.0,263.0,234.5,279.5,233.5" stroke="black" stroke-width="2" fill="none" />
<polyline points="277.5,210.5,260.5,211.0" stroke="black" stroke-width="2" fill="none" />
<polyline points="264.0,208.0,269.5,198.0,277.0,190.5" stroke="black" stroke-width="2" fill="none" />
<polyline points="276.0,195.0,259.5,195.5" stroke="black" stroke-width="2" fill="none" />
<polyline points="253.0,205.5,249.0,213.5" stroke="black" stroke-width="2" fill="none" />
<polyline points="249.5,204.0,246.0,211.5,249.0,203.5" stroke="black" stroke-width="2" fill="none" />
<polyline points="261.0,216.0,269.0,213.0" stroke="black" stroke-width="2" fill="none" />
<polyline points="278.0,198.5,262.0,199.0,248.0,199.5,233.0,200.5,217.5,201.0,202.5,202.0,187.0,202.5" stroke="black" stroke-width="2" fill="none" />
<polyline points="184.5,207.0,201.0,206.5,216.5,206.0,231.0,206.5" stroke="black" stroke-width="2" fill="none" />
<polyline points="232.0,194.5,217.5,195.5,202.0,196.5,185.5,196.5" stroke="black" stroke-width="2" fill="none" />
<polyline points="180.0,198.5,195.0,183.5,210.5,167.5,226.5,151.0,243.5,134.5" stroke="black" stroke-width="2" fill="none" />
<polyline points="232.5,135.5,217.0,150.5,201.0,166.5,185.0,181.5" stroke="black" stroke-width="2" fill="none" />
<polyline points="184.5,182.5,200.5,182.0,216.5,181.5,231.5,180.0,247.0,178.0" stroke="black" stroke-width="2" fill="none" />
<polyline points="263.0,181.0,247.0,196.5,230.5,212.0,214.0,228.0" stroke="black" stroke-width="2" fill="none" />
<polyline points="225.5,238.5,228.5,246.5,222.0,256.0,226.5,260.5,227.0,268.5,232.0,279.5,236.0,270.5" stroke="black" stroke-width="2" fill="none" />
<polyline points="235.0,272.5,236.0,280.0" stroke="black" stroke-width="2" fill="none" />
<polyline points="232.0,275.5,216.0,276.5" stroke="black" stroke-width="2" fill="none" />
<polyline points="223.0,241.5,223.0,247.5,215.0,247.0,211.0,247.5,203.0,249.5,195.5,250.5,187.5,251.0,180.0,251.5,172.0,252.5,170.0,248.5,162.0,251.5,160.5,248.0,153.0,251.0,145.0,251.0,137.0,250.0,128.5,250.0,120.5,247.5,112.0,245.5,104.0,245.5,96.0,246.0" stroke="black" stroke-width="2" fill="none" />
<polyline points="96.0,245.5,97.0,253.5,97.0,261.0,89.5,265.5,86.5,276.5,87.0,284.5,83.5,292.5,94.0,293.5,85.0,291.5,91.0,292.0,99.0,294.0,107.0,295.0,118.0,296.0,123.0,293.0,131.0,299.5,136.0,305.5,144.0,303.5" stroke="black" stroke-width="2" fill="none" />
<polyline points="116.0,294.0,112.5,298.0,110.5,306.0,113.5,314.0,118.0,317.0,126.5,316.0,134.0,316.0,142.0,315.5,147.5,315.5,155.5,312.0,156.0,314.5,163.0,312.0,166.5,312.0,174.5,312.0,182.5,312.0,189.5,304.0,198.5,299.0,202.5,298.0,208.0,299.0,203.0,301.0,200.0,309.0,206.0,301.0" stroke="black" stroke-width="2" fill="none" />
<polyline points="177.0,290.5,170.0,298.5,157.0,296.5,150.0,304.5,142.0,307.0,133.5,308.0,125.5,306.5,120.0,313.0,112.0,315.0,104.0,314.0,96.5,310.5,88.0,306.5" stroke="black" stroke-width="2" fill="none" />
<polyline points="87.0,305.5,100.0,312.5" stroke="black" stroke-width="2" fill="none" />
<polyline points="101.0,297.5,116.5,282.5" stroke="black" stroke-width="2" fill="none" />
<polyline points="132.5,259.5,130.0,260.0,130.5,257.0,124.0,248.5" stroke="black" stroke-width="2" fill="none" />
<polyline points="103.5,241.5,111.5,239.5,120.0,236.0,128.0,236.0,136.0,235.0,144.5,235.0,152.5,233.5,161.0,233.0,169.0,234.5,177.0,233.5,185.0,233.0,193.0,234.0" stroke="black" stroke-width="2" fill="none" />
<polyline points="197.0,227.0,189.0,225.0" stroke="black" stroke-width="2" fill="none" />
<polyline points="189.0,225.5,197.0,224.5" stroke="black" stroke-width="2" fill="none" />
<polyline points="211.5,210.0,211.0,212.5,203.0,212.5,189.0,209.5,181.0,206.5" stroke="black" stroke-width="2" fill="none" />
<polyline points="185.0,201.5,176.5,205.5,174.5,207.0,175.0,212.0" stroke="black" stroke-width="2" fill="none" />
<polyline points="178.0,194.5,186.0,198.0" stroke="black" stroke-width="2" fill="none" />
<polyline points="182.0,177.5,198.5,176.0,215.5,174.0,232.0,171.5,247.0,169.0,262.0,167.0,278.0,165.5" stroke="black" stroke-width="2" fill="none" />
<polyline points="277.5,150.5,281.5,157.5,275.0,165.0,267.0,173.5,261.5,181.5" stroke="black" stroke-width="2" fill="none" />
<polyline points="278.0,186.0,263.0,186.5,247.5,186.0,232.0,185.5,216.5,185.0,201.0,185.0,184.0,185.5,167.0,185.5,150.5,186.0" stroke="black" stroke-width="2" fill="none" />
<polyline points="139.0,184.0,123.5,185.0" stroke="black" stroke-width="2" fill="none" />
<polyline points="151.5,215.0,166.5,215.0,181.0,216.0,196.0,216.0,212.0,215.5,228.5,215.5,244.5,216.0,260.5,215.0,278.0,215.0" stroke="black" stroke-width="2" fill="none" />
<polyline points="276.5,197.5,270.5,205.5,260.5,214.0,266.0,209.0,273.5,204.5,274.5,199.5,278.0,196.5" stroke="black" stroke-width="2" fill="none" />
<polyline points="285.0,182.0,268.5,197.0,251.5,212.5,234.5,228.0" stroke="black" stroke-width="2" fill="none" />
<polyline points="256.5,244.5,264.5,244.5,267.5,233.5" stroke="black" stroke-width="2" fill="none" />
<polyline points="254.0,255.0,239.0,262.0,230.5,270.0,229.0,278.5,237.0,283.5,245.5,284.5,253.5,283.0,262.0,284.0,270.0,281.0,277.5,280.5,285.5,277.0,293.5,273.0,301.5,269.0,309.5,261.0" stroke="black" stroke-width="2" fill="none" />
<polyline points="232.0,196.0,224.0,187.5" stroke="black" stroke-width="2" fill="none" />
<polyline points="220.5,187.0,218.0,195.0,223.0,189.5,231.5,197.5" stroke="black" stroke-width="2" fill="none" />
<polyline points="232.5,185.0,224.5,183.0" stroke="black" stroke-width="2" fill="none" />
<polyline points="222.5,179.5,230.5,189.0,234.5,190.0,230.5,196.0,234.5,204.5,237.5,204.5" stroke="black" stroke-width="2" fill="none" />
<polyline points="238.0,205.0,234.0,208.0,229.0,209.0,228.5,201.0,227.5,192.5,225.5,187.5,221.5,179.5,220.5,180.5" stroke="black" stroke-width="2" fill="none" />
<polyline points="207.0,182.5,210.0,180.5,208.5,176.5,200.5,173.5" stroke="black" stroke-width="2" fill="none" />
<polyline points="184.0,167.0,201.0,152.5,217.0,138.0,233.0,122.5" stroke="black" stroke-width="2" fill="none" />
<polyline points="240.0,125.0,237.5,129.0,229.5,130.5" stroke="black" stroke-width="2" fill="none" />
<polyline points="234.0,133.0,218.0,134.0" stroke="black" stroke-width="2" fill="none" />
<polyline points="220.0,136.0,220.5,128.0,220.5,126.0" stroke="black" stroke-width="2" fill="none" />
<polyline points="221.5,127.0,221.5,135.0,222.0,149.0" stroke="black" stroke-width="2" fill="none" />
<polyline points="216.5,146.0,199.5,145.5,183.0,145.0" stroke="black" stroke-width="2" fill="none" />
<polyline points="180.5,149.5,197.0,134.5,213.5,118.5,229.5,102.5,245.0,87.0" stroke="black" stroke-width="2" fill="none" />
<polyline points="247.5,89.5,231.0,90.0" stroke="black" stroke-width="2" fill="none" />
<polyline points="225.0,83.0,230.0,91.5,233.0,99.0,230.0,107.0,234.0,115.0,229.0,122.0,229.5,130.5,233.5,133.5,230.0,145.5,227.0,153.5,232.0,161.0,234.0,162.0,234.5,162.0,247.0,169.5,250.0,163.5" stroke="black" stroke-width="2" fill="none" />
<polyline points="262.0,149.0,278.0,148.5" stroke="black" stroke-width="2" fill="none" />
<polyline points="263.0,154.5,246.5,155.0,230.5,155.5,214.5,156.0,199.5,156.0,184.0,157.5" stroke="black" stroke-width="2" fill="none" />
<polyline points="185.5,161.5,177.5,154.5,169.5,148.5" stroke="black" stroke-width="2" fill="none" />
<polyline points="167.0,142.0,170.0,144.0,179.0,152.0" stroke="black" stroke-width="2" fill="none" />
<polyline points="181.5,152.0,173.0,148.0,165.0,140.5" stroke="black" stroke-width="2" fill="none" />
<polyline points="166.0,139.5,166.5,147.5,175.5,155.5,185.0,163.0,188.0,174.0,193.0,183.0" stroke="black" stroke-width="2" fill="none" />
<polyline points="211.0,185.0,208.0,186.5,201.0,175.5,196.0,181.0,199.5,172.5,194.0,176.5,186.0,175.5,178.0,168.5,169.5,169.5" stroke="black" stroke-width="2" fill="none" />
<polyline points="178.5,166.0,183.0,175.0,191.0,182.0,198.5,189.5" stroke="black" stroke-width="2" fill="none" />
<polyline points="196.5,190.0,183.0,188.0,175.5,184.0,167.5,186.0" stroke="black" stroke-width="2" fill="none" />
<polyline points="166.0,185.5,174.0,182.5,182.0,184.5,190.0,188.0,198.0,192.0" stroke="black" stroke-width="2" fill="none" />
<polyline points="171.0,182.5,169.0,190.5,177.0,194.5,179.5,197.5,192.0,202.0,186.5,211.5,192.5,217.0,188.0,223.0,193.0,225.0,197.5,233.0,205.5,234.0,213.5,234.0,221.5,236.0,229.5,240.5" stroke="black" stroke-width="2" fill="none" />
<polyline points="274.0,181.0,273.5,188.0,271.5,194.5,263.5,200.0,261.5,203.0,270.0,195.0,275.0,187.0,271.0,181.0,273.0,173.0,281.0,164.5,273.0,168.5,264.5,178.0,260.5,183.0,256.0,187.0,261.0,178.5,266.0,170.5,268.5,165.5,279.5,157.5,278.5,162.5,275.0,160.0,267.0,166.0,259.0,173.5,249.0,186.5,250.0,185.0,253.0,177.0,250.5,169.0,250.5,163.5,253.0,155.5,251.0,150.0,245.0,147.0,241.0,143.5,246.0,135.5,248.0,128.5,251.0,127.5,253.5,119.5,251.5,114.0,250.5,106.0,245.5,98.5,240.0,90.5,234.0,82.0,230.0,82.0,221.5,72.5,213.5,70.5" stroke="black" stroke-width="2" fill="none" />
<polyline points="214.0,72.5,222.5,75.5,227.5,85.5,231.0,78.0,239.5,86.5,248.5,101.0" stroke="black" stroke-width="2" fill="none" />
<polyline points="246.5,105.0,229.0,105.0,211.5,106.5,195.0,107.5,179.0,108.5" stroke="black" stroke-width="2" fill="none" />
<polyline points="181.0,114.5,197.0,115.0,213.0,114.5,229.0,114.5" stroke="black" stroke-width="2" fill="none" />
<polyline points="243.5,121.0,227.5,122.0,212.5,123.0,198.0,124.5,182.5,125.0" stroke="black" stroke-width="2" fill="none" />
<polyline points="186.0,118.0,202.0,103.5" stroke="black" stroke-width="2" fill="none" />
<polyline points="198.0,99.0,206.0,95.5" stroke="black" stroke-width="2" fill="none" />
<polyline points="196.5,89.5,181.5,90.5,165.5,90.5" stroke="black" stroke-width="2" fill="none" />
<polyline points="168.5,94.0,176.5,101.0" stroke="black" stroke-width="2" fill="none" />
<polyline points="177.5,97.0,175.5,97.0,172.5,89.0,170.5,90.0" stroke="black" stroke-width="2" fill="none" />
<polyline points="167.5,85.5,172.5,75.5,166.5,83.5,166.5,91.5,172.5,99.0,174.5,105.5,177.5,116.5,185.5,123.0" stroke="black" stroke-width="2" fill="none" />
<polyline points="189.0,114.0,197.5,116.0,206.0,126.0,207.5,131.0,214.5,137.5,222.0,145.5,216.0,149.5" stroke="black" stroke-width="2" fill="none" />
<polyline points="230.0,137.5,237.5,132.0,239.0,134.5,251.5,136.5,259.0,133.0,267.0,116.5,271.0,111.5,279.5,103.0" stroke="black" stroke-width="2" fill="none" />
<polyline points="283.5,96.0,278.0,104.0,269.0,114.5,264.5,122.5,265.5,128.0" stroke="black" stroke-width="2" fill="none" />
<polyline points="271.0,116.5,267.0,124.5,264.5,132.0,259.5,140.0,254.5,148.0,260.5,155.5,253.0,164.5,260.0,166.0,265.0,156.0,271.5,144.0,274.0,138.0" stroke="black" stroke-width="2" fill="none" />
<polyline points="243.5,116.0,241.0,108.5,239.0,100.0,239.0,98.0" stroke="black" stroke-width="2" fill="none" />
<polyline points="241.0,98.0,243.5,106.5,245.5,114.5" stroke="black" stroke-width="2" fill="none" />
<polyline points="250.5,118.0,252.5,115.0,253.5,107.0,250.5,99.0,243.5,91.0,236.5,85.5,228.5,79.0" stroke="black" stroke-width="2" fill="none" />
<polyline points="220.0,91.0,213.0,80.5,205.0,74.5,197.0,63.5" stroke="black" stroke-width="2" fill="none" />
<polyline points="195.5,59.5,203.5,67.5,211.0,76.5,215.5,80.5,223.5,93.0,231.0,90.0,236.0,94.0,243.5,89.5,252.0,99.0" stroke="black" stroke-width="2" fill="none" />
<polyline points="216.5,97.0,208.0,91.0,200.0,77.0,192.5,69.5,188.5,80.0" stroke="black" stroke-width="2" fill="none" />
<polyline points="190.0,96.0,194.5,97.0,195.5,104.5,192.5,115.5,200.5,119.0,197.5,124.5,195.5,121.0,200.5,128.5,208.5,132.0,210.5,138.0,218.0,141.0" stroke="black" stroke-width="2" fill="none" />
<polyline points="233.5,141.5,232.0,149.5,234.0,157.5,238.0,162.5" stroke="black" stroke-width="2" fill="none" />
<polyline points="198.0,134.5,195.0,126.5,189.5,123.5,186.0,115.0,183.5,103.0,184.5,95.0,185.5,87.0,187.5,79.0,184.0,76.0,176.0,75.0,168.0,83.0" stroke="black" stroke-width="2" fill="none" />
<polyline points="166.5,99.0,171.0,107.0,176.0,115.0,183.5,123.5,187.0,131.5,192.0,140.0,199.0,148.0" stroke="black" stroke-width="2" fill="none" />
<polyline points="185.0,150.0,177.0,139.5,168.5,131.5,160.5,123.0" stroke="black" stroke-width="2" fill="none" />
<polyline points="160.0,123.0,168.5,128.0,176.5,132.0,184.5,138.0,192.5,142.0" stroke="black" stroke-width="2" fill="none" />
<polyline points="177.5,163.5,170.0,168.5,178.0,163.5,186.0,168.5" stroke="black" stroke-width="2" fill="none" />
<polyline points="191.0,144.0,182.0,136.5,169.5,128.5" stroke="black" stroke-width="2" fill="none" />
<polyline points="162.0,119.0,165.0,127.0,173.5,135.5,181.0,143.5,185.0,151.5" stroke="black" stroke-width="2" fill="none" />
<polyline points="171.0,108.0,163.0,103.0" stroke="black" stroke-width="2" fill="none" />
<polyline points="161.5,101.0,169.5,104.0,178.0,107.0,185.0,115.0" stroke="black" stroke-width="2" fill="none" />
<polyline points="220.0,103.0,212.5,104.5,219.5,99.5,222.5,94.5,220.5,86.5,212.0,83.5,207.0,76.0,200.0,68.0,196.0,60.0,189.0,57.0" stroke="black" stroke-width="2" fill="none" />
<polyline points="187.0,50.5,195.0,56.5,190.5,58.5,192.0,66.5,195.0,74.5,203.0,79.5,203.0,87.5,209.5,91.0,207.5,97.0,205.5,101.0" stroke="black" stroke-width="2" fill="none" />
<polyline points="220.0,108.5,224.0,100.5,228.0,92.0,224.0,84.0,218.0,84.0,211.0,75.5,204.0,67.0,198.0,58.5" stroke="black" stroke-width="2" fill="none" />
<polyline points="227.5,255.0,226.0,251.0,218.0,254.0,210.0,256.0,202.0,254.5,199.5,257.0,191.5,258.0,193.5,263.0,185.5,264.0,178.0,264.0,170.0,264.5,161.5,265.5,153.5,265.5,145.5,265.5,137.5,267.0,129.5,267.0,121.5,267.0,113.5,267.0,105.5,266.0,97.0,265.0,93.5,266.0,91.5,264.5,83.0,267.5" stroke="black" stroke-width="2" fill="none" />
<polyline points="81.5,276.0,73.0,275.5,65.5,274.5,57.5,274.0" stroke="black" stroke-width="2" fill="none" />
</svg>