<svg xmlns="http://www.w3.org/2000/svg" version="1.1"><polyline points="181.0,3.5,181.0,11.5" stroke="black" stroke-width="2" fill="none" />
<polyline points="165.0,8.5,149.0,24.0,134.0,38.5" stroke="black" stroke-width="2" fill="none" />
<polyline points="122.5,24.5,106.5,40.0,90.5,56.0,74.5,70.5,57.5,85.0" stroke="black" stroke-width="2" fill="none" />
<polyline points="53.0,74.0,36.5,88.5,20.0,102.5" stroke="black" stroke-width="2" fill="none" />
<polyline points="9.0,105.5,25.5,106.0,41.0,106.0" stroke="black" stroke-width="2" fill="none" />
<polyline points="55.5,107.0,71.5,106.0,88.0,105.5,104.0,104.5,119.0,103.5,134.5,103.5,150.5,103.0,165.5,102.0" stroke="black" stroke-width="2" fill="none" />
<polyline points="172.5,107.5,181.0,105.0,188.5,108.5,196.5,112.5,204.5,116.0,212.5,120.0,220.0,124.0,228.0,128.0" stroke="black" stroke-width="2" fill="none" />
<polyline points="232.0,128.0,248.0,128.0" stroke="black" stroke-width="2" fill="none" />
<polyline points="247.0,131.5,231.0,147.5,215.0,163.0,199.0,179.0" stroke="black" stroke-width="2" fill="none" />
<polyline points="200.5,178.0,216.5,176.5,233.0,176.0,249.0,176.5,264.5,178.0,279.5,179.5,295.5,179.5,311.0,178.5" stroke="black" stroke-width="2" fill="none" />
<polyline points="311.5,178.5,295.5,194.5,281.0,211.0,265.0,227.5" stroke="black" stroke-width="2" fill="none" />
<polyline points="260.5,225.0,276.5,224.5" stroke="black" stroke-width="2" fill="none" />
<polyline points="280.0,219.5,265.0,219.5" stroke="black" stroke-width="2" fill="none" />
<polyline points="261.5,213.0,277.5,197.5,293.5,181.0,309.5,165.5" stroke="black" stroke-width="2" fill="none" />
<polyline points="312.0,162.5,295.0,162.5" stroke="black" stroke-width="2" fill="none" />
<polyline points="295.5,156.0,311.5,155.5" stroke="black" stroke-width="2" fill="none" />
<polyline points="310.5,155.0,318.5,146.0,326.5,132.5,323.0,132.5,318.5,140.5,313.5,148.5,308.5,154.5,316.0,143.5,323.5,130.5" stroke="black" stroke-width="2" fill="none" />
<polyline points="332.5,125.5,347.0,133.5,363.0,142.0,379.0,150.5,384.0,158.5,379.5,167.0,373.5,175.5,369.5,183.5,360.5,191.5,356.0,199.5,351.0,207.5,346.0,215.5,341.0,223.0,336.0,230.5,331.0,238.5,326.5,246.0,320.0,254.5,318.0,262.5,315.0,273.5,318.0,275.5,318.0,283.5,318.0,286.5,318.0,294.5,315.5,295.5,318.5,299.5,326.5,300.5,333.5,301.0,341.5,295.0" stroke="black" stroke-width="2" fill="none" />
<polyline points="346.5,295.5,362.0,279.5" stroke="black" stroke-width="2" fill="none" />
<polyline points="359.5,268.5,354.5,271.5,348.5,280.5,339.5,284.0,336.0,292.5,328.5,300.0,334.5,295.0,340.0,284.0,348.0,287.0,353.0,273.5,364.0,269.5,372.0,267.5" stroke="black" stroke-width="2" fill="none" />
<polyline points="377.0,260.0,361.0,260.5,344.5,261.5" stroke="black" stroke-width="2" fill="none" />
<polyline points="340.0,248.0,355.5,233.0,372.0,217.5,388.0,201.5" stroke="black" stroke-width="2" fill="none" />
<polyline points="393.0,197.0,377.0,198.0" stroke="black" stroke-width="2" fill="none" />
<polyline points="376.5,191.0,393.0,190.5,410.0,189.0" stroke="black" stroke-width="2" fill="none" />
<polyline points="402.0,197.0,405.0,205.0" stroke="black" stroke-width="2" fill="none" />
<polyline points="409.0,218.0,425.0,202.0" stroke="black" stroke-width="2" fill="none" />
<polyline points="421.0,196.5,423.5,200.5,422.0,208.5,424.5,210.5,425.0,213.5" stroke="black" stroke-width="2" fill="none" />
<polyline points="424.0,206.0,417.0,220.0,414.0,218.0,402.0,221.0,397.0,216.0,387.0,219.0,384.5,217.0,382.5,213.5,384.0,205.5,383.0,197.5,386.0,190.0,386.0,182.0,386.0,174.0,387.0,166.0,383.5,167.0,375.5,181.0,367.5,189.0,373.0,184.0,378.0,176.0,382.0,168.0,387.0,160.0,383.0,160.0,374.5,173.0,366.5,186.0,359.0,191.0,351.0,204.0,343.0,217.0,335.0,230.0,327.0,241.5,319.0,253.5,311.0,251.5,303.5,248.0,295.5,242.5,288.0,238.5,280.0,234.0,272.5,230.5,264.5,233.5,256.5,234.5,249.0,230.5,241.5,226.5,233.0,222.5,225.0,216.5,217.0,213.5,209.0,207.5,200.5,203.5,193.0,199.5,185.0,195.0,177.0,190.0,169.0,185.5,161.0,180.5,153.0,176.5,145.5,172.0,142.5,168.0,142.5,170.0,134.5,167.0,123.5,158.0,115.0,140.5,105.0,139.5,103.5,136.0,92.5,136.0" stroke="black" stroke-width="2" fill="none" />
<polyline points="88.0,120.5,104.5,106.0" stroke="black" stroke-width="2" fill="none" />
<polyline points="119.0,104.0,134.0,88.5" stroke="black" stroke-width="2" fill="none" />
<polyline points="140.5,95.0,148.5,90.0,156.5,85.5,164.5,81.5,172.0,78.0" stroke="black" stroke-width="2" fill="none" />
<polyline points="166.0,82.0,182.5,67.5,199.0,52.5" stroke="black" stroke-width="2" fill="none" />
<polyline points="204.0,49.0,212.0,50.0,220.0,50.0,228.0,51.5,236.0,50.5,244.5,52.0,250.0,47.5,257.0,54.0,265.5,55.5,273.0,53.5" stroke="black" stroke-width="2" fill="none" />
<polyline points="274.0,58.5,282.0,59.5,290.0,60.5,298.0,61.5,306.0,62.0,312.5,62.0,321.0,62.0,327.0,61.5,335.0,60.5,343.5,58.5,351.0,58.5,359.5,58.5,367.0,57.5,372.5,58.5,380.0,58.5,388.0,64.5,396.0,65.5" stroke="black" stroke-width="2" fill="none" />
<polyline points="404.0,69.0,388.5,85.0" stroke="black" stroke-width="2" fill="none" />
<polyline points="391.5,85.0,375.0,85.5" stroke="black" stroke-width="2" fill="none" />
<polyline points="373.5,92.0,389.5,77.0" stroke="black" stroke-width="2" fill="none" />
<polyline points="388.0,77.0,396.5,70.0,388.5,78.0,386.5,86.0" stroke="black" stroke-width="2" fill="none" />
<polyline points="390.0,103.0,405.5,88.0" stroke="black" stroke-width="2" fill="none" />
<polyline points="411.0,105.0,426.5,89.5,442.5,74.0" stroke="black" stroke-width="2" fill="none" />
<polyline points="469.0,84.0,485.0,69.0" stroke="black" stroke-width="2" fill="none" />
<polyline points="502.5,88.0,519.0,73.0" stroke="black" stroke-width="2" fill="none" />
<polyline points="517.5,87.0,501.0,102.5" stroke="black" stroke-width="2" fill="none" />
<polyline points="520.5,134.0,503.5,149.5,487.0,165.0" stroke="black" stroke-width="2" fill="none" />
<polyline points="503.0,164.5,519.5,149.0" stroke="black" stroke-width="2" fill="none" />
<polyline points="517.0,163.5,501.0,180.0" stroke="black" stroke-width="2" fill="none" />
<polyline points="493.0,187.0,490.0,186.5,484.0,185.5,480.0,184.0" stroke="black" stroke-width="2" fill="none" />
<polyline points="483.5,200.0,468.0,215.0" stroke="black" stroke-width="2" fill="none" />
<polyline points="468.0,226.5,468.0,239.0,463.0,236.0,459.5,241.0,458.5,237.0,467.5,233.0,464.5,226.0" stroke="black" stroke-width="2" fill="none" />
<polyline points="470.0,250.0,486.0,249.0,501.5,248.5,517.0,249.0" stroke="black" stroke-width="2" fill="none" />
<polyline points="519.0,277.5,503.5,293.0" stroke="black" stroke-width="2" fill="none" />
<polyline points="507.0,316.0,522.5,315.5" stroke="black" stroke-width="2" fill="none" />
<polyline points="518.5,330.0,502.0,329.0,485.5,328.5,469.5,329.5,453.5,330.5" stroke="black" stroke-width="2" fill="none" />
<polyline points="458.5,318.0,442.5,319.0" stroke="black" stroke-width="2" fill="none" />
<polyline points="426.5,314.5,421.0,327.5,425.5,325.5" stroke="black" stroke-width="2" fill="none" />
<polyline points="424.0,301.5,440.5,300.5" stroke="black" stroke-width="2" fill="none" />
<polyline points="456.0,298.5,471.5,298.0,487.5,298.5,503.5,299.0,519.5,298.5" stroke="black" stroke-width="2" fill="none" />
<polyline points="519.0,265.0,503.0,266.0,487.0,267.0" stroke="black" stroke-width="2" fill="none" />
<polyline points="519.5,281.5,504.0,284.0,487.5,285.0,471.5,285.5,455.5,286.0,439.0,286.0,422.5,285.5" stroke="black" stroke-width="2" fill="none" />
<polyline points="423.5,268.0,439.5,267.0,455.0,267.5,470.5,267.0" stroke="black" stroke-width="2" fill="none" />
<polyline points="481.0,313.5,489.0,310.5,482.0,312.0,486.5,320.0,493.0,318.0,493.5,314.0,499.5,314.5" stroke="black" stroke-width="2" fill="none" />
<polyline points="408.0,300.0,391.5,301.0,376.0,301.5" stroke="black" stroke-width="2" fill="none" />
<polyline points="367.0,301.5,371.0,304.5,369.0,307.0,376.0,296.5,390.0,295.5" stroke="black" stroke-width="2" fill="none" />
<polyline points="392.0,280.5,375.5,279.0,359.5,278.0,344.5,278.0,329.0,278.5" stroke="black" stroke-width="2" fill="none" />
<polyline points="323.5,277.5,338.5,263.0,354.5,248.5,371.0,233.5,388.0,218.0" stroke="black" stroke-width="2" fill="none" />
<polyline points="387.5,215.5,379.5,214.5" stroke="black" stroke-width="2" fill="none" />
<polyline points="378.5,228.0,363.0,228.0" stroke="black" stroke-width="2" fill="none" />
<polyline points="358.5,220.5,375.0,220.5,393.0,220.5,410.0,220.0,426.5,219.0,442.5,218.5,458.0,217.5,473.5,216.5,489.5,216.0,505.5,217.0,520.5,216.0" stroke="black" stroke-width="2" fill="none" />
<polyline points="520.0,203.0,504.0,204.0" stroke="black" stroke-width="2" fill="none" />
<polyline points="512.5,191.0,512.5,197.0,511.5,189.0" stroke="black" stroke-width="2" fill="none" />
<polyline points="518.5,137.0,502.0,137.5,485.5,138.0" stroke="black" stroke-width="2" fill="none" />
<polyline points="472.5,139.0,457.0,139.0,441.5,139.0" stroke="black" stroke-width="2" fill="none" />
<polyline points="441.0,130.5,441.0,126.5,433.0,129.5,435.0,126.5,442.0,126.0" stroke="black" stroke-width="2" fill="none" />
<polyline points="424.5,139.0,409.0,140.0,394.0,140.0,378.5,140.5,362.5,141.0" stroke="black" stroke-width="2" fill="none" />
<polyline points="359.5,151.0,343.5,166.5,327.5,182.0,312.0,197.5,296.0,213.5" stroke="black" stroke-width="2" fill="none" />
<polyline points="299.0,212.0,315.0,211.5,330.5,212.0,346.0,211.0,361.0,210.0,376.5,209.0,392.5,209.0" stroke="black" stroke-width="2" fill="none" />
<polyline points="407.0,221.5,405.5,229.5,410.5,232.5" stroke="black" stroke-width="2" fill="none" />
<polyline points="410.0,232.0,412.0,224.0" stroke="black" stroke-width="2" fill="none" />
<polyline points="429.5,230.0,439.5,219.0,442.5,227.0" stroke="black" stroke-width="2" fill="none" />
<polyline points="432.5,222.0,429.5,230.0" stroke="black" stroke-width="2" fill="none" />
<polyline points="420.5,248.0,405.0,248.0,390.0,249.0,376.0,250.5,361.0,252.0,344.5,253.5,328.0,254.0" stroke="black" stroke-width="2" fill="none" />
<polyline points="330.0,265.5,345.5,265.0,361.0,265.0,377.0,265.0,393.0,264.5,408.0,264.0" stroke="black" stroke-width="2" fill="none" />
<polyline points="408.5,273.5,416.5,274.0" stroke="black" stroke-width="2" fill="none" />
<polyline points="406.5,303.5,415.0,307.0" stroke="black" stroke-width="2" fill="none" />
<polyline points="381.0,314.0,372.5,311.5" stroke="black" stroke-width="2" fill="none" />
<polyline points="365.5,303.5,374.0,297.5,376.5,292.5" stroke="black" stroke-width="2" fill="none" />
<polyline points="356.0,292.5,364.0,290.5,366.0,294.0,355.5,295.5,348.5,300.5,349.5,302.5,342.5,311.0,348.0,319.0,351.0,328.0,354.0,329.5,353.5,327.5" stroke="black" stroke-width="2" fill="none" />
<polyline points="346.0,297.0,330.0,297.5" stroke="black" stroke-width="2" fill="none" />
<polyline points="330.5,291.5,346.5,277.0,362.0,262.5,377.5,247.5" stroke="black" stroke-width="2" fill="none" />
<polyline points="377.5,246.5,362.5,246.5,346.0,247.0" stroke="black" stroke-width="2" fill="none" />
<polyline points="345.5,237.0,361.0,237.0,377.0,236.5,392.5,236.0,408.0,235.0,423.0,234.0,439.0,234.0,454.5,234.0,470.0,233.5,485.5,233.5,501.0,233.0,516.5,231.5" stroke="black" stroke-width="2" fill="none" />
<polyline points="519.5,188.0,505.0,188.0,489.5,188.5,473.5,189.0,458.0,190.0,442.5,190.5" stroke="black" stroke-width="2" fill="none" />
<polyline points="431.5,197.5,439.5,196.0,441.0,203.0,452.0,203.5" stroke="black" stroke-width="2" fill="none" />
<polyline points="426.0,169.0,441.5,153.5" stroke="black" stroke-width="2" fill="none" />
<polyline points="429.5,141.0,421.5,140.0" stroke="black" stroke-width="2" fill="none" />
<polyline points="418.0,138.0,420.0,146.0,427.5,152.5,425.0,152.5" stroke="black" stroke-width="2" fill="none" />
<polyline points="413.5,159.0,408.0,167.0,411.5,159.0" stroke="black" stroke-width="2" fill="none" />
<polyline points="405.5,136.5,388.5,152.0,372.0,167.5,355.5,183.0" stroke="black" stroke-width="2" fill="none" />
<polyline points="360.0,182.0,375.5,180.5" stroke="black" stroke-width="2" fill="none" />
<polyline points="390.5,186.5,374.0,202.0,357.5,217.0" stroke="black" stroke-width="2" fill="none" />
<polyline points="357.5,204.5,340.5,219.0,324.5,234.0,309.5,249.0" stroke="black" stroke-width="2" fill="none" />
<polyline points="297.0,244.5,313.5,245.0,330.0,244.0" stroke="black" stroke-width="2" fill="none" />
<polyline points="329.0,272.0,344.0,271.0" stroke="black" stroke-width="2" fill="none" />
<polyline points="348.5,287.0,333.0,287.5" stroke="black" stroke-width="2" fill="none" />
<polyline points="311.5,276.5,296.0,292.5" stroke="black" stroke-width="2" fill="none" />
<polyline points="296.0,293.0,311.5,292.5" stroke="black" stroke-width="2" fill="none" />
<polyline points="310.5,282.0,294.5,282.0" stroke="black" stroke-width="2" fill="none" />
<polyline points="299.5,279.5,298.0,272.0,297.0,265.5,289.0,262.5,287.0,262.5,286.0,254.5,276.5,250.5,266.5,251.5,263.5,251.5,260.5,250.0,259.5,242.0,255.0,240.0,251.0,235.0,243.0,238.0,235.0,237.0" stroke="black" stroke-width="2" fill="none" />
<polyline points="244.5,240.5,252.5,239.0,263.0,245.0,266.0,253.0,269.0,257.5,271.0,258.5,278.5,256.0,282.5,266.0,289.0,264.0,293.0,268.0,297.0,271.0,302.0,271.0,309.5,269.5,309.0,279.5,312.0,276.0,311.5,284.0" stroke="black" stroke-width="2" fill="none" />
<polyline points="294.5,276.0,286.5,279.5,278.5,275.5,279.5,267.5,273.5,267.5,272.5,272.5,264.5,268.5,256.5,263.5,249.0,259.5,241.0,255.0,233.0,250.5,234.0,257.5,226.0,252.5,219.0,249.5,212.0,242.5,205.0,241.5,198.0,238.5,190.0,233.5,183.0,229.5,175.0,225.5,169.0,221.5,157.5,217.0,149.0,212.0,140.0,207.0,132.0,207.0" stroke="black" stroke-width="2" fill="none" />
<polyline points="137.5,201.5,152.5,201.5" stroke="black" stroke-width="2" fill="none" />
<polyline points="158.5,198.0,166.5,200.0" stroke="black" stroke-width="2" fill="none" />
<polyline points="164.0,185.0,180.5,184.0" stroke="black" stroke-width="2" fill="none" />
<polyline points="183.0,178.5,167.0,179.5" stroke="black" stroke-width="2" fill="none" />
<polyline points="167.0,184.0,183.0,168.0,199.0,151.5,215.0,136.0" stroke="black" stroke-width="2" fill="none" />
<polyline points="218.5,122.5,203.0,138.5,187.0,153.0,170.5,167.5" stroke="black" stroke-width="2" fill="none" />
<polyline points="167.0,167.5,183.5,167.0,199.5,166.5,216.5,166.5,234.0,166.0,250.5,165.0" stroke="black" stroke-width="2" fill="none" />
<polyline points="245.0,168.0,230.5,182.5" stroke="black" stroke-width="2" fill="none" />
<polyline points="232.5,186.5,248.5,186.0,264.5,186.5,280.0,186.5,296.5,185.0,313.0,184.0,329.0,183.5,344.5,183.0,360.5,182.0" stroke="black" stroke-width="2" fill="none" />
<polyline points="361.0,172.0,377.5,171.0" stroke="black" stroke-width="2" fill="none" />
<polyline points="391.0,173.5,407.0,172.0,423.5,171.5,439.5,171.0,455.5,170.0,471.0,169.0,486.5,169.0,501.5,168.5,516.5,168.0" stroke="black" stroke-width="2" fill="none" />
<polyline points="518.0,120.5,502.5,122.5,486.5,123.5,470.0,123.5,453.5,124.0,438.0,124.0,422.0,123.5,406.5,123.5,391.5,123.0,375.5,123.0" stroke="black" stroke-width="2" fill="none" />
<polyline points="377.0,148.0,360.0,163.5" stroke="black" stroke-width="2" fill="none" />
<polyline points="359.0,153.0,367.0,153.0" stroke="black" stroke-width="2" fill="none" />
<polyline points="378.5,153.5,370.5,149.5,362.5,147.0,354.0,143.0,346.0,145.5,338.0,159.5,329.5,164.0,322.0,160.0,314.0,156.0" stroke="black" stroke-width="2" fill="none" />
<polyline points="309.0,152.5,293.0,168.5,276.5,184.5,260.5,200.0,244.5,215.0" stroke="black" stroke-width="2" fill="none" />
<polyline points="247.5,212.5,263.5,211.0,279.0,210.5" stroke="black" stroke-width="2" fill="none" />
<polyline points="281.5,206.5,290.0,207.0" stroke="black" stroke-width="2" fill="none" />
<polyline points="294.5,221.0,310.5,219.5,327.5,219.5,344.0,219.0" stroke="black" stroke-width="2" fill="none" />
<polyline points="342.5,199.0,326.5,214.0,310.5,229.0,294.5,244.5" stroke="black" stroke-width="2" fill="none" />
<polyline points="295.0,238.5,310.5,238.0,327.5,237.0" stroke="black" stroke-width="2" fill="none" />
<polyline points="344.0,229.0,327.5,229.0,312.5,229.5,297.0,229.5" stroke="black" stroke-width="2" fill="none" />
<polyline points="292.0,226.5,309.0,211.0,326.0,197.0,341.5,182.0" stroke="black" stroke-width="2" fill="none" />
<polyline points="347.0,181.0,330.5,181.5" stroke="black" stroke-width="2" fill="none" />
<polyline points="328.5,171.5,344.5,171.0" stroke="black" stroke-width="2" fill="none" />
<polyline points="344.0,163.5,360.5,162.5,376.5,161.5" stroke="black" stroke-width="2" fill="none" />
<polyline points="366.0,177.0,371.0,169.0,376.0,161.0,374.5,154.0,356.0,145.5,345.5,150.5" stroke="black" stroke-width="2" fill="none" />
<polyline points="343.0,154.5,358.0,154.0,372.5,154.0,388.5,154.0,405.0,154.0,423.0,154.0,440.0,153.0,458.0,153.0,475.0,152.5,492.0,152.0,508.5,151.0,524.5,151.5" stroke="black" stroke-width="2" fill="none" />
<polyline points="498.5,52.5,515.0,37.0" stroke="black" stroke-width="2" fill="none" />
<polyline points="499.5,18.5,515.5,2.5" stroke="black" stroke-width="2" fill="none" />
<polyline points="487.5,5.5,471.5,21.5" stroke="black" stroke-width="2" fill="none" />
<polyline points="459.5,23.5,474.5,8.0" stroke="black" stroke-width="2" fill="none" />
<polyline points="421.0,9.0,405.0,24.0" stroke="black" stroke-width="2" fill="none" />
<polyline points="405.0,38.5,420.5,23.0" stroke="black" stroke-width="2" fill="none" />
<polyline points="416.5,35.5,421.0,38.5,421.0,41.5" stroke="black" stroke-width="2" fill="none" />
<polyline points="389.5,44.5,387.5,52.5" stroke="black" stroke-width="2" fill="none" />
<polyline points="392.5,56.5,376.5,72.5" stroke="black" stroke-width="2" fill="none" />
<polyline points="378.5,68.0,394.0,67.0" stroke="black" stroke-width="2" fill="none" />
<polyline points="394.0,73.5,386.0,77.5,378.5,84.5,369.5,86.5,370.5,90.5,378.5,84.5,385.0,76.5,387.0,68.5,383.0,60.5" stroke="black" stroke-width="2" fill="none" />
<polyline points="377.0,36.0,361.5,52.0,345.0,67.5" stroke="black" stroke-width="2" fill="none" />
<polyline points="345.5,68.0,361.5,68.0" stroke="black" stroke-width="2" fill="none" />
<polyline points="348.0,93.5,351.0,93.5,351.0,102.0" stroke="black" stroke-width="2" fill="none" />
<polyline points="347.0,112.5,353.0,117.5,357.0,125.5" stroke="black" stroke-width="2" fill="none" />
<polyline points="358.5,126.0,343.5,125.5" stroke="black" stroke-width="2" fill="none" />
<polyline points="341.5,138.0,325.5,139.5,309.0,142.0,293.5,143.0" stroke="black" stroke-width="2" fill="none" />
<polyline points="290.5,146.5,290.5,150.5,298.5,154.0,307.0,158.0,315.5,162.0,323.0,167.0,331.0,171.0,339.0,174.5,347.0,178.5,355.0,182.5" stroke="black" stroke-width="2" fill="none" />
<polyline points="348.0,196.0,331.0,196.5" stroke="black" stroke-width="2" fill="none" />
<polyline points="312.0,150.0,296.5,150.5" stroke="black" stroke-width="2" fill="none" />
<polyline points="292.0,150.5,308.5,135.5" stroke="black" stroke-width="2" fill="none" />
<polyline points="292.5,133.5,308.0,118.0" stroke="black" stroke-width="2" fill="none" />
<polyline points="312.5,121.5,296.5,122.0,280.5,122.5" stroke="black" stroke-width="2" fill="none" />
<polyline points="280.0,117.5,297.0,101.0" stroke="black" stroke-width="2" fill="none" />
<polyline points="293.0,105.0,277.0,105.5,260.5,105.5" stroke="black" stroke-width="2" fill="none" />
<polyline points="262.5,97.0,247.0,97.5" stroke="black" stroke-width="2" fill="none" />
<polyline points="249.5,100.0,246.0,101.0,238.0,111.0,242.5,103.5,245.5,100.0,242.5,103.0" stroke="black" stroke-width="2" fill="none" />
<polyline points="231.5,103.0,248.5,87.0,266.0,71.5,283.0,57.0,299.5,41.5" stroke="black" stroke-width="2" fill="none" />
<polyline points="295.0,53.0,311.0,37.5,327.5,21.5" stroke="black" stroke-width="2" fill="none" />
<polyline points="330.0,25.5,329.0,27.0,328.0,21.0,321.5,13.0,319.5,16.5" stroke="black" stroke-width="2" fill="none" />
<polyline points="311.0,22.5,327.0,7.5" stroke="black" stroke-width="2" fill="none" />
<polyline points="312.0,7.5,296.0,23.0" stroke="black" stroke-width="2" fill="none" />
<polyline points="293.0,22.0,310.0,20.5" stroke="black" stroke-width="2" fill="none" />
<polyline points="344.5,20.0,360.0,5.0" stroke="black" stroke-width="2" fill="none" />
<polyline points="363.5,22.0,379.5,5.5" stroke="black" stroke-width="2" fill="none" />
<polyline points="377.5,23.0,362.0,38.0" stroke="black" stroke-width="2" fill="none" />
<polyline points="355.0,44.0,347.0,37.0" stroke="black" stroke-width="2" fill="none" />
<polyline points="379.5,35.0,380.5,43.5,387.0,33.5" stroke="black" stroke-width="2" fill="none" />
<polyline points="371.0,73.0,375.5,68.0,367.5,67.0,359.5,66.5,351.5,67.5,343.5,68.5,335.5,70.5,327.5,70.5,319.5,72.0,312.0,71.0,304.0,73.5" stroke="black" stroke-width="2" fill="none" />
<polyline points="304.0,73.0,312.5,75.5" stroke="black" stroke-width="2" fill="none" />
<polyline points="310.5,68.5,295.0,84.0" stroke="black" stroke-width="2" fill="none" />
<polyline points="291.0,82.0,306.5,81.5" stroke="black" stroke-width="2" fill="none" />
<polyline points="296.0,71.5,280.0,87.0" stroke="black" stroke-width="2" fill="none" />
<polyline points="280.5,89.5,296.5,90.0,312.5,89.5,328.5,89.5,345.5,90.0,361.5,90.5,378.0,91.0,394.5,91.0,410.5,91.0,426.5,90.0,442.0,90.0,458.5,89.5,473.5,89.5,489.0,88.5,504.0,87.0,518.5,86.0" stroke="black" stroke-width="2" fill="none" />
<polyline points="519.5,102.0,504.5,102.0,489.0,102.0,473.5,102.0,458.0,102.5,442.5,102.5,426.0,103.0,409.0,103.5,392.0,104.5,376.0,105.0,360.0,106.0,343.0,106.5,326.0,107.0,309.0,107.5" stroke="black" stroke-width="2" fill="none" />
<polyline points="312.0,102.5,310.5,101.5,303.5,97.5" stroke="black" stroke-width="2" fill="none" />
<polyline points="298.5,117.5,282.5,133.0,266.0,148.5" stroke="black" stroke-width="2" fill="none" />
<polyline points="268.5,146.0,279.5,152.5,294.5,160.5,310.5,168.5,325.0,176.0,341.0,184.0,344.0,192.0,339.0,200.5,334.0,208.5,329.0,216.5,323.5,224.5,318.0,232.5" stroke="black" stroke-width="2" fill="none" />
<polyline points="310.5,214.5,302.5,213.5,301.0,208.5,293.0,205.5,290.0,211.5,289.5,202.5,282.0,198.5,278.0,197.5,273.5,195.5,265.5,197.5" stroke="black" stroke-width="2" fill="none" />
<polyline points="264.0,195.0,270.0,195.0,264.0,197.0,275.5,198.0,277.0,202.0,285.0,201.0,281.0,205.0,291.0,213.5,299.0,211.5,306.0,214.0,308.5,214.5,312.0,219.0,309.0,220.0" stroke="black" stroke-width="2" fill="none" />
<polyline points="311.5,196.0,295.0,196.5,279.5,196.0,264.0,196.0,247.5,196.0,231.0,196.0" stroke="black" stroke-width="2" fill="none" />
<polyline points="231.0,198.5,247.5,183.5,263.5,169.0,280.0,153.0" stroke="black" stroke-width="2" fill="none" />
<polyline points="280.5,157.0,264.0,158.0" stroke="black" stroke-width="2" fill="none" />
<polyline points="268.0,165.0,283.0,164.5" stroke="black" stroke-width="2" fill="none" />
<polyline points="283.5,164.5,267.5,179.5,250.5,195.5" stroke="black" stroke-width="2" fill="none" />
<polyline points="243.5,198.0,259.5,206.0,273.5,214.0,289.5,222.0,304.5,230.5" stroke="black" stroke-width="2" fill="none" />
<polyline points="311.5,235.5,318.5,227.5,323.5,219.5,329.0,211.5,333.5,203.5,338.5,195.5,339.0,187.5,322.0,179.5,306.5,171.5,292.0,163.5,278.0,155.0,272.0,148.0,271.5,145.0,263.5,138.5,255.5,133.5" stroke="black" stroke-width="2" fill="none" />
<polyline points="253.5,132.0,258.5,140.0,265.5,142.0,270.0,150.5,271.5,159.0,270.0,167.5,264.0,175.5,252.5,183.5,258.0,180.0,266.0,173.0" stroke="black" stroke-width="2" fill="none" />
<polyline points="265.5,176.5,258.0,182.5,260.0,181.0,269.0,172.5,273.0,164.5" stroke="black" stroke-width="2" fill="none" />
<polyline points="275.5,152.5,283.5,157.5,291.5,162.0,299.0,166.0,307.0,171.0,315.5,174.5,323.5,178.5,331.5,181.5,339.5,185.5" stroke="black" stroke-width="2" fill="none" />
<polyline points="310.0,168.0,293.5,167.5,278.0,167.0,262.5,167.0,246.5,166.5,231.0,166.0,216.0,165.5,201.0,166.0" stroke="black" stroke-width="2" fill="none" />
<polyline points="195.0,165.0,210.0,149.5" stroke="black" stroke-width="2" fill="none" />
<polyline points="207.5,156.5,208.5,164.5,211.0,172.5,216.5,180.5,226.5,189.0,235.0,193.0,244.5,201.5,259.5,209.5,276.0,217.5,292.5,226.0,306.5,233.5" stroke="black" stroke-width="2" fill="none" />
<polyline points="321.5,245.5,326.5,237.5,331.5,229.5,337.0,221.5,342.0,213.5,347.0,205.5,353.5,197.5,359.0,189.5,351.0,181.5,334.5,173.5,318.5,165.5,303.5,157.5,288.0,149.5,273.0,141.5,260.0,133.5,242.0,125.5,225.0,117.5,209.0,110.0,193.5,102.0,177.0,93.5,174.0,87.5" stroke="black" stroke-width="2" fill="none" />
<polyline points="176.0,85.5,184.0,89.5,201.5,88.5,206.5,95.0,214.5,91.0" stroke="black" stroke-width="2" fill="none" />
<polyline points="213.5,90.5,230.0,75.5,246.0,59.5" stroke="black" stroke-width="2" fill="none" />
<polyline points="241.5,69.0,233.5,71.5,223.5,67.5,236.5,75.5,243.5,82.5,241.5,91.0,235.5,99.0,229.0,107.0,231.0,116.0,235.5,112.0,236.5,106.5,243.5,96.5,248.5,94.0,250.5,94.0,259.0,97.5,263.0,101.5,267.5,102.5,275.5,101.5,281.0,105.5,284.0,107.5,287.5,109.5,295.5,109.0,297.5,112.0,299.5,117.0,301.0,122.5,309.0,120.5,311.0,124.0,319.0,125.0,326.0,129.0,334.0,127.0,342.0,131.0,350.0,135.5,358.0,139.5,365.5,143.5,373.5,147.0,379.0,150.0,387.0,150.5" stroke="black" stroke-width="2" fill="none" />
<polyline points="375.0,163.0,367.0,177.0,359.0,179.0,350.5,175.0,342.5,170.5,327.0,163.5,313.0,154.0,318.5,146.0,323.5,138.5,327.5,130.5,322.5,117.0,315.0,114.0,306.5,108.5,298.5,105.5,290.0,102.0,282.5,98.0,274.5,94.0,275.5,86.0,269.0,78.5,254.5,75.0,255.0,77.0" stroke="black" stroke-width="2" fill="none" />
<polyline points="247.0,80.0,231.5,81.0,215.5,82.0,199.0,82.5" stroke="black" stroke-width="2" fill="none" />
<polyline points="198.0,85.0,212.5,70.5,228.5,54.5" stroke="black" stroke-width="2" fill="none" />
<polyline points="218.0,54.5,201.5,70.0" stroke="black" stroke-width="2" fill="none" />
<polyline points="201.0,70.5,209.0,74.5,217.0,78.5,225.0,83.5,233.0,86.5" stroke="black" stroke-width="2" fill="none" />
<polyline points="228.5,86.5,244.5,70.0,260.5,54.0,277.0,38.0" stroke="black" stroke-width="2" fill="none" />
<polyline points="264.5,21.0,248.5,36.0" stroke="black" stroke-width="2" fill="none" />
<polyline points="250.0,35.5,242.5,37.5" stroke="black" stroke-width="2" fill="none" />
<polyline points="233.0,39.0,250.0,24.5,267.0,9.5" stroke="black" stroke-width="2" fill="none" />
<polyline points="231.0,2.5,214.5,18.0,198.5,35.0,181.5,51.5" stroke="black" stroke-width="2" fill="none" />
<polyline points="182.5,37.5,198.0,22.0,214.0,6.0" stroke="black" stroke-width="2" fill="none" />
<polyline points="197.0,7.0,181.5,22.0,166.0,36.5" stroke="black" stroke-width="2" fill="none" />
<polyline points="164.5,52.0,165.5,50.5,168.5,52.5,164.5,64.5,158.0,67.5,147.5,73.5" stroke="black" stroke-width="2" fill="none" />
<polyline points="153.0,83.5,169.0,82.5,184.0,81.5" stroke="black" stroke-width="2" fill="none" />
<polyline points="193.5,82.0,196.5,84.0,194.0,84.0,200.0,89.0,205.0,93.0,211.0,94.0,212.0,96.0,219.5,94.5,215.0,93.0,220.5,96.5" stroke="black" stroke-width="2" fill="none" />
<polyline points="217.5,104.5,201.5,120.5,185.0,136.5,169.0,152.0" stroke="black" stroke-width="2" fill="none" />
<polyline points="168.0,154.5,184.0,154.5,200.5,153.5,216.5,153.5,232.5,154.0,247.5,153.5" stroke="black" stroke-width="2" fill="none" />
<polyline points="235.5,146.0,251.0,146.5,266.5,146.5,282.5,147.0" stroke="black" stroke-width="2" fill="none" />
<polyline points="273.5,150.5,282.0,153.5,290.0,157.5,298.0,161.0,306.5,165.0,314.5,170.5,322.5,173.0,331.5,178.5,339.5,182.5" stroke="black" stroke-width="2" fill="none" />
<polyline points="338.5,151.0,338.0,144.5,339.5,139.5" stroke="black" stroke-width="2" fill="none" />
<polyline points="324.0,145.0,329.0,144.0,334.0,145.5,329.0,153.5" stroke="black" stroke-width="2" fill="none" />
<polyline points="355.5,149.5,362.5,151.5,369.5,156.5" stroke="black" stroke-width="2" fill="none" />
<polyline points="350.5,200.0,343.0,213.5,335.0,225.5,327.0,238.0,318.5,250.0,310.5,247.5,302.5,243.5,294.0,239.0,286.5,234.0,278.0,230.0,270.5,226.0,262.5,222.5,255.0,218.0,247.0,213.5,239.0,209.5,231.5,205.5,224.5,202.0,216.5,201.0" stroke="black" stroke-width="2" fill="none" />
<polyline points="219.0,203.0,227.0,207.0,235.0,211.0,243.0,216.0,250.5,220.0,258.0,224.0,266.5,235.0,274.0,236.0" stroke="black" stroke-width="2" fill="none" />
<polyline points="268.0,244.0,269.5,252.0,278.5,253.0,282.5,258.5,279.5,261.5,284.5,270.5,288.5,279.0,293.5,284.0,298.5,285.0,299.5,288.0,305.5,286.0" stroke="black" stroke-width="2" fill="none" />
<polyline points="288.0,284.5,279.0,276.5" stroke="black" stroke-width="2" fill="none" />
<polyline points="283.0,264.5,267.0,280.5" stroke="black" stroke-width="2" fill="none" />
<polyline points="259.5,273.5,276.0,273.0" stroke="black" stroke-width="2" fill="none" />
<polyline points="278.5,264.5,262.5,264.5" stroke="black" stroke-width="2" fill="none" />
<polyline points="273.0,258.5,281.0,260.5" stroke="black" stroke-width="2" fill="none" />
<polyline points="293.0,271.0,293.0,279.0" stroke="black" stroke-width="2" fill="none" />
<polyline points="302.5,277.5,302.5,279.5,290.5,275.5,294.5,267.5,297.5,259.5" stroke="black" stroke-width="2" fill="none" />
<polyline points="245.5,250.5,230.0,251.5" stroke="black" stroke-width="2" fill="none" />
<polyline points="239.5,260.5,247.5,264.0,254.0,268.5,262.0,272.0,269.5,276.5" stroke="black" stroke-width="2" fill="none" />
<polyline points="258.5,313.5,266.5,315.0" stroke="black" stroke-width="2" fill="none" />
<polyline points="237.5,308.5,234.5,314.5,235.5,306.5" stroke="black" stroke-width="2" fill="none" />
<polyline points="214.5,239.0,198.0,240.0" stroke="black" stroke-width="2" fill="none" />
<polyline points="196.0,229.5,212.0,213.5" stroke="black" stroke-width="2" fill="none" />
<polyline points="212.5,221.5,196.0,222.0" stroke="black" stroke-width="2" fill="none" />
<polyline points="200.5,221.0,208.0,223.0,212.5,232.5,220.5,236.5" stroke="black" stroke-width="2" fill="none" />
<polyline points="229.0,223.0,245.5,222.0" stroke="black" stroke-width="2" fill="none" />
<polyline points="240.5,207.5,227.5,200.5,217.5,192.5,226.5,188.0,220.5,180.0,205.0,178.0,190.0,170.0,177.0,163.0,161.0,155.0,143.0,149.0,146.5,141.0,153.0,133.0,159.0,125.0,165.0,117.0,171.5,109.0,170.0,109.5,162.0,120.0,154.5,130.5,146.5,141.5" stroke="black" stroke-width="2" fill="none" />
<polyline points="143.5,141.0,151.5,130.0,159.5,119.0,167.0,108.5,175.0,100.5,183.0,102.0,191.0,107.0,198.5,111.0,206.5,114.5,214.5,118.5,222.5,122.5,230.5,126.5,245.0,130.5" stroke="black" stroke-width="2" fill="none" />
<polyline points="245.5,121.5,229.5,136.5" stroke="black" stroke-width="2" fill="none" />
<polyline points="232.5,135.5,249.5,135.5,266.0,135.5,282.0,135.5" stroke="black" stroke-width="2" fill="none" />
<polyline points="276.0,135.0,292.5,134.0,308.0,134.0" stroke="black" stroke-width="2" fill="none" />
<polyline points="300.5,117.0,285.0,117.5" stroke="black" stroke-width="2" fill="none" />
<polyline points="290.5,126.5,298.5,127.5" stroke="black" stroke-width="2" fill="none" />
<polyline points="311.0,125.5,306.0,123.5,301.0,121.5,293.0,123.5,292.0,123.5,284.0,124.5,278.5,126.5,278.0,119.0,284.5,117.0,279.5,113.0,276.0,111.0,285.0,111.0,292.0,109.5,282.0,102.5" stroke="black" stroke-width="2" fill="none" />
<polyline points="264.5,94.5,249.0,95.0,233.0,96.0" stroke="black" stroke-width="2" fill="none" />
<polyline points="229.5,109.5,229.5,105.5,238.0,94.5,246.0,83.5,257.5,84.5,274.5,92.5,290.5,101.0,308.0,109.5,324.0,117.5,322.0,126.0,317.0,134.0,311.0,142.0,306.0,150.0,306.0,149.5,314.0,137.5,322.0,125.0,332.5,131.5,340.0,135.5,348.0,139.5,350.0,142.5,343.5,150.5,338.5,158.5,333.5,166.0,347.0,172.0,360.0,180.5,367.0,193.5,364.0,195.5,359.5,203.5,354.5,211.5,351.0,219.5,345.5,227.5,340.0,235.5,335.0,243.5,328.0,252.0,324.0,261.0" stroke="black" stroke-width="2" fill="none" />
<polyline points="368.5,247.0,376.5,241.5" stroke="black" stroke-width="2" fill="none" />
<polyline points="375.5,245.0,383.0,246.5" stroke="black" stroke-width="2" fill="none" />
<polyline points="371.0,247.0,371.0,247.0,372.0,255.0" stroke="black" stroke-width="2" fill="none" />
<polyline points="487.0,195.0,471.0,195.0,455.5,194.0,440.0,193.5,424.0,194.0,409.0,195.0,393.0,195.0,377.0,194.5,362.0,195.5,347.0,197.5,331.5,198.0,315.0,199.5,298.0,200.5,281.5,202.0,265.5,203.5,249.5,204.5" stroke="black" stroke-width="2" fill="none" />
<polyline points="231.5,185.0,223.5,176.5,212.5,171.5,210.5,168.0" stroke="black" stroke-width="2" fill="none" />
<polyline points="212.0,163.5,216.0,171.5,225.0,178.0,224.0,179.0,227.0,185.0,234.5,193.5,242.0,197.5,250.0,201.5,258.0,205.5,266.0,209.5,274.0,214.5,282.0,218.5,290.5,222.5,298.0,227.0,306.0,231.0,314.0,233.0,322.5,222.0,330.5,209.0,338.5,197.0" stroke="black" stroke-width="2" fill="none" />
<polyline points="303.0,132.0,295.0,133.0,287.5,132.0,284.5,134.0,282.5,135.0,278.5,125.0,271.0,127.0,262.5,125.0" stroke="black" stroke-width="2" fill="none" />
<polyline points="257.5,124.5,265.0,122.0,272.0,122.0" stroke="black" stroke-width="2" fill="none" />
<polyline points="260.5,132.5,245.0,148.0,229.0,163.0,213.0,178.5" stroke="black" stroke-width="2" fill="none" />
<polyline points="213.0,201.0,196.5,200.5" stroke="black" stroke-width="2" fill="none" />
<polyline points="193.0,193.0,185.0,188.5" stroke="black" stroke-width="2" fill="none" />
<polyline points="188.0,186.0,179.0,181.5,171.0,177.5,162.0,173.0,160.0,169.5,153.5,168.5,151.0,164.0,144.5,162.5,144.5,159.5,136.5,157.5" stroke="black" stroke-width="2" fill="none" />
<polyline points="137.5,154.5,121.0,155.0" stroke="black" stroke-width="2" fill="none" />
<polyline points="120.5,152.0,136.5,136.0" stroke="black" stroke-width="2" fill="none" />
<polyline points="137.5,150.0,153.5,149.0" stroke="black" stroke-width="2" fill="none" />
<polyline points="149.0,152.5,165.0,135.5,180.5,119.0" stroke="black" stroke-width="2" fill="none" />
<polyline points="167.0,120.0,150.5,135.0,134.0,150.5,118.0,166.5" stroke="black" stroke-width="2" fill="none" />
<polyline points="122.0,161.5,138.5,161.0" stroke="black" stroke-width="2" fill="none" />
<polyline points="136.0,154.0,144.0,158.0,152.0,161.5,160.5,166.0,168.5,170.0,176.0,175.5,184.0,179.5,192.0,183.5,200.0,187.0,208.0,192.0,222.0,188.0,226.0,191.0,229.0,198.0,239.0,198.5,247.0,202.5,254.5,206.0,262.5,211.0,270.5,214.5,278.5,218.5,286.0,222.0,294.0,226.0,302.0,231.0,309.5,235.0,318.0,230.5,326.0,217.5,334.0,207.0,342.5,193.0" stroke="black" stroke-width="2" fill="none" />
<polyline points="309.5,127.5,304.5,130.5,300.5,130.0,293.0,121.0,286.0,116.0,278.0,116.0,269.5,118.5,263.5,120.0,259.5,122.0,253.5,121.0,256.5,117.0,263.5,109.0,267.5,109.0,260.5,106.5,266.5,98.5,258.5,92.5,257.0,89.5" stroke="black" stroke-width="2" fill="none" />
<polyline points="253.5,91.0,259.0,99.0,252.0,102.0,249.0,110.0,245.0,108.0,248.0,114.0,252.0,121.0,268.0,128.5,283.0,136.0,292.0,137.5,296.5,141.5,302.5,144.5,311.0,133.0" stroke="black" stroke-width="2" fill="none" />
<polyline points="306.0,141.5,312.0,133.5,317.5,125.5,317.5,117.5" stroke="black" stroke-width="2" fill="none" />
<polyline points="295.5,141.5,295.0,146.0,287.0,148.0,279.5,144.5,271.5,140.5,263.5,135.5,255.0,131.5,247.0,128.5,239.0,124.0,231.0,120.0,223.5,116.0" stroke="black" stroke-width="2" fill="none" />
<polyline points="227.0,121.0,244.5,105.0,261.5,89.0,277.0,73.0" stroke="black" stroke-width="2" fill="none" />
<polyline points="250.0,110.5,235.0,111.5" stroke="black" stroke-width="2" fill="none" />
<polyline points="234.0,122.0,250.0,122.0" stroke="black" stroke-width="2" fill="none" />
<polyline points="254.5,138.0,251.0,143.5,254.0,144.0,253.0,142.0" stroke="black" stroke-width="2" fill="none" />
<polyline points="213.5,109.5,198.0,110.0" stroke="black" stroke-width="2" fill="none" />
<polyline points="198.0,106.0,214.0,106.0" stroke="black" stroke-width="2" fill="none" />
<polyline points="201.0,75.0,217.0,74.5,232.5,74.0,248.0,73.5,264.0,72.5,280.5,71.5,296.5,71.5,312.5,72.0,328.5,71.5,344.5,70.5,360.5,69.5,376.5,69.0,392.5,68.5,408.0,67.5,424.5,67.5,440.5,68.0,456.5,67.5,472.5,66.5,489.0,66.5,505.5,67.0,522.5,67.0" stroke="black" stroke-width="2" fill="none" />
<polyline points="520.5,45.5,505.5,45.0,489.5,45.0,474.0,46.0,458.0,47.0,442.0,47.5,425.0,48.0,409.0,49.5,393.5,49.5,378.0,50.0,362.5,50.5,347.0,50.5,332.0,51.0,316.0,51.5,299.0,52.5,283.0,53.5,267.0,55.0,250.5,56.0,234.0,57.0,216.5,57.5,199.5,57.5,183.5,58.0,167.0,58.5,151.5,58.0,135.5,58.0,119.5,57.5,104.0,56.5,88.5,56.5,71.5,56.0,55.0,55.5,39.0,55.0,24.0,55.0,7.5,55.5" stroke="black" stroke-width="2" fill="none" />
<polyline points="21.5,52.5,37.0,36.5,52.5,21.0,68.5,4.5" stroke="black" stroke-width="2" fill="none" />
<polyline points="85.0,8.0,70.0,23.0,54.0,36.5,38.0,51.5,21.5,67.0" stroke="black" stroke-width="2" fill="none" />
<polyline points="17.5,66.0,34.0,65.5" stroke="black" stroke-width="2" fill="none" />
<polyline points="38.5,70.5,22.0,87.0" stroke="black" stroke-width="2" fill="none" />
<polyline points="7.5,92.5,23.0,91.5,39.0,91.0,54.5,90.5,70.5,90.5,86.0,90.0,101.5,88.5,117.0,88.0,133.0,87.5,150.0,87.0,167.0,86.5" stroke="black" stroke-width="2" fill="none" />
<polyline points="164.0,83.0,162.5,89.5,161.5,88.0" stroke="black" stroke-width="2" fill="none" />
<polyline points="171.0,91.0,165.0,99.0,159.0,106.5,153.0,114.5,147.5,122.5,141.5,130.0,135.5,138.5,130.0,146.5,129.0,154.5,141.0,161.0,149.0,166.0,156.5,174.0,171.5,178.0,186.5,186.5,195.5,194.5,209.5,198.5,223.5,207.0,226.5,208.0,240.5,216.0,249.5,222.0,266.5,229.0,269.5,235.5,283.0,237.5,293.0,245.5,305.0,249.5,320.0,258.0,325.5,258.5,334.5,245.5,341.5,234.5,349.5,223.0,357.5,210.0" stroke="black" stroke-width="2" fill="none" />
<polyline points="427.5,102.0,427.5,98.5,435.0,96.5" stroke="black" stroke-width="2" fill="none" />
<polyline points="522.0,27.0,506.0,26.0,490.0,26.5,474.5,27.5,459.5,29.0,443.5,30.0,427.5,30.0,411.5,31.0,395.0,31.5,378.5,32.5,361.5,33.5,344.5,35.0,328.0,36.0,312.5,35.5,296.0,35.0,280.0,35.0,264.0,35.5,247.5,36.5,232.5,37.0,216.5,36.5,200.5,36.5,184.0,37.5,168.0,37.5,152.5,38.5,136.5,39.5,120.5,40.5,104.0,41.5,88.5,41.0,72.0,41.0,56.0,41.5,40.5,41.5,24.0,40.5,8.0,41.0" stroke="black" stroke-width="2" fill="none" />
<polyline points="11.5,56.5,28.5,40.5,44.5,24.0" stroke="black" stroke-width="2" fill="none" />
<polyline points="40.0,8.0,24.0,23.0" stroke="black" stroke-width="2" fill="none" />
<polyline points="9.0,23.0,25.0,7.5" stroke="black" stroke-width="2" fill="none" />
<polyline points="23.0,17.0,7.0,17.5" stroke="black" stroke-width="2" fill="none" />
<polyline points="10.5,12.5,26.0,12.0,42.5,11.5,58.5,11.0,74.5,11.0,90.5,11.0,107.0,10.0,122.0,9.5,137.5,9.5,153.5,9.5,170.0,8.5,185.0,9.0,200.5,8.5,216.0,7.0,231.5,5.5,248.0,5.0,264.0,3.5,281.0,2.5,297.5,2.0,313.5,2.0,329.5,2.5,345.5,1.5,361.5,0.0,378.0,-1.5,395.0,-2.5,411.5,-4.0,427.0,-4.5,442.0,-6.5,457.0,-7.5,473.0,-7.0,489.0,-7.0,504.0,-8.0,520.0,-8.5" stroke="black" stroke-width="2" fill="none" />
<polyline points="523.5,7.5,508.5,8.0,493.0,8.5,476.0,8.5,458.0,9.5,440.0,10.0,422.5,11.0,405.0,11.5,389.0,13.0,373.0,14.0,357.0,15.0,341.0,15.5,324.5,15.5,308.5,16.5,293.0,17.0,278.0,19.0,263.5,20.0,247.5,20.5,233.0,21.0,218.0,20.5,202.5,20.5,187.0,21.0,170.5,22.0,155.0,22.5,140.0,23.0,123.5,24.0,107.5,25.0,90.5,25.5,73.5,24.5,56.0,24.5,39.0,24.0,22.0,24.5,5.5,24.5" stroke="black" stroke-width="2" fill="none" />
<polyline points="26.5,45.0,29.5,44.0,27.0,45.0,33.0,57.5,35.0,63.5,38.5,65.0,36.5,69.5" stroke="black" stroke-width="2" fill="none" />
<polyline points="57.5,54.5,74.0,39.5,89.0,24.5,104.5,9.0" stroke="black" stroke-width="2" fill="none" />
<polyline points="103.5,17.5,88.0,17.5" stroke="black" stroke-width="2" fill="none" />
<polyline points="113.0,31.5,114.0,33.5,119.5,42.5,111.5,47.0,115.5,52.5,122.5,58.5,116.5,64.5,110.0,65.5,117.0,60.5,120.5,56.0,128.5,59.0" stroke="black" stroke-width="2" fill="none" />
<polyline points="132.5,69.5,140.5,77.0,127.0,85.0,122.5,93.0,118.5,101.5,114.5,109.5,115.5,115.5,113.0,123.5,111.0,131.5,113.0,139.0,116.5,147.0,119.0,155.0,123.5,162.5,127.5,170.5,139.0,178.5,140.5,185.5,148.5,188.5,158.0,192.5,167.0,193.5,175.0,201.5,177.0,211.5,186.0,216.5,191.0,221.0,200.0,234.0,212.5,240.0,221.5,245.0,231.0,252.0,244.5,252.5" stroke="black" stroke-width="2" fill="none" />
<polyline points="246.0,250.0,238.0,248.0,233.0,243.0,228.5,247.5,220.5,242.0,212.5,238.0,204.5,234.5,196.5,230.0,188.5,226.0,180.0,221.5,172.5,218.0" stroke="black" stroke-width="2" fill="none" />
<polyline points="166.0,220.0,181.5,219.0" stroke="black" stroke-width="2" fill="none" />
<polyline points="195.5,229.0,212.0,228.5" stroke="black" stroke-width="2" fill="none" />
<polyline points="223.0,220.0,217.5,217.0,209.5,212.0,201.5,208.0,193.5,204.0,185.5,200.5,177.5,194.5,169.5,189.0,161.5,186.5,154.0,181.5,146.0,176.5,138.5,172.5,130.5,168.5" stroke="black" stroke-width="2" fill="none" />
<polyline points="132.5,169.5,148.5,177.5,155.5,186.0,164.5,190.0,182.5,193.5,197.0,201.5,193.5,209.5,191.0,210.5,195.0,205.5,203.0,210.5" stroke="black" stroke-width="2" fill="none" />
<polyline points="200.0,209.5,195.5,211.5,198.5,219.0,207.5,228.0,220.5,236.0" stroke="black" stroke-width="2" fill="none" />
<polyline points="228.5,221.5,244.5,229.5,259.5,237.0,275.5,245.0,290.0,252.5,306.0,260.5,310.5,266.5,308.5,268.5,309.0,276.5,302.0,284.5,306.5,285.5,310.5,299.0,319.5,304.0,327.5,310.0,336.0,311.5,338.0,304.5,343.0,298.0,347.0,303.0,354.0,303.0" stroke="black" stroke-width="2" fill="none" />
<polyline points="187.5,272.5,180.0,273.5,169.0,264.5,161.0,262.0" stroke="black" stroke-width="2" fill="none" />
<polyline points="153.0,238.0,138.0,237.5" stroke="black" stroke-width="2" fill="none" />
<polyline points="141.0,232.5,149.0,232.5" stroke="black" stroke-width="2" fill="none" />
<polyline points="150.5,232.0,142.5,224.0,134.5,217.0" stroke="black" stroke-width="2" fill="none" />
<polyline points="133.5,222.5,137.0,223.5,146.5,231.5,142.5,235.5,140.5,244.5,143.5,252.5,139.5,249.5,137.5,249.0" stroke="black" stroke-width="2" fill="none" />
<polyline points="126.5,258.5,122.5,270.5" stroke="black" stroke-width="2" fill="none" />
<polyline points="132.5,281.0,136.5,293.0,139.0,289.0,144.5,291.0" stroke="black" stroke-width="2" fill="none" />
<polyline points="125.0,259.5,117.5,261.5,105.0,256.5,97.0,254.5" stroke="black" stroke-width="2" fill="none" />
<polyline points="110.5,256.5,113.5,248.5" stroke="black" stroke-width="2" fill="none" />
<polyline points="117.0,232.5,101.5,233.5" stroke="black" stroke-width="2" fill="none" />
<polyline points="95.5,274.5,103.5,277.5,107.0,283.0" stroke="black" stroke-width="2" fill="none" />
<polyline points="64.5,285.0,56.5,287.0" stroke="black" stroke-width="2" fill="none" />
<polyline points="64.5,215.0,56.5,209.0" stroke="black" stroke-width="2" fill="none" />
<polyline points="55.0,185.5,38.0,185.5,20.5,185.5,4.0,186.5" stroke="black" stroke-width="2" fill="none" />
<polyline points="22.5,187.0,27.5,190.5,35.0,186.5,34.0,189.0" stroke="black" stroke-width="2" fill="none" />
<polyline points="35.5,175.5,43.5,178.0,55.0,165.0,65.0,171.5,75.0,175.0" stroke="black" stroke-width="2" fill="none" />
<polyline points="82.5,169.0,99.0,168.5,116.5,167.0,133.5,166.0,150.0,166.0" stroke="black" stroke-width="2" fill="none" />
<polyline points="150.0,168.5,133.0,184.0" stroke="black" stroke-width="2" fill="none" />
<polyline points="136.0,183.5,128.0,181.5" stroke="black" stroke-width="2" fill="none" />
<polyline points="130.0,177.0,132.5,185.0,146.5,193.0,161.5,201.0,165.0,202.5,172.5,201.5,172.5,205.0,177.5,202.0,186.0,202.0" stroke="black" stroke-width="2" fill="none" />
<polyline points="186.0,200.5,202.0,209.5,215.0,217.5,212.5,228.5,216.0,231.5,224.0,232.5,226.0,235.5,234.5,239.0,237.5,241.0,245.5,244.5,253.5,248.5,261.5,249.5,265.0,240.0,273.0,244.0,281.0,248.0,288.5,252.0,296.5,255.5,305.0,260.5,313.0,264.5" stroke="black" stroke-width="2" fill="none" />
<polyline points="239.5,205.0,233.5,197.0,225.5,198.5,217.0,196.5,214.0,199.5,205.0,195.5,202.0,190.5,195.5,189.5,186.5,182.0,176.5,177.0,168.0,175.5,163.5,171.0,153.5,163.5,138.5,156.0,126.5,154.5" stroke="black" stroke-width="2" fill="none" />
<polyline points="130.0,151.5,138.0,149.5,147.0,152.5,163.5,160.5,178.5,168.5,193.5,176.5" stroke="black" stroke-width="2" fill="none" />
<polyline points="183.0,172.5,168.0,173.0" stroke="black" stroke-width="2" fill="none" />
<polyline points="146.0,170.0,153.0,178.0,167.0,185.5,176.0,193.0,176.5,197.5,173.5,205.5,172.0,213.5,181.0,217.5,186.0,216.5,195.5,210.0,195.5,218.0,201.5,215.0,209.5,214.0,211.5,216.5,211.5,222.5,219.5,228.0,223.5,224.0,232.0,225.5,240.0,229.5,247.0,233.0,255.5,238.0,263.5,242.0,271.5,246.5,279.5,250.5,287.0,254.0,294.5,259.0,302.0,263.0,310.5,267.0" stroke="black" stroke-width="2" fill="none" />
<polyline points="326.0,315.0,321.0,310.0,313.0,301.5,298.0,294.0,295.0,286.0,277.0,283.0,262.5,275.0,247.5,267.5,232.5,259.5,219.0,251.0,204.0,243.0,189.5,235.0,174.5,226.5,160.5,218.5,145.5,210.5,136.0,203.5,132.0,195.5,130.0,187.5,127.5,179.5,125.0,171.5,127.0,163.5,124.5,155.5,126.5,147.5,132.5,139.5,139.0,131.5,145.0,123.5,151.0,115.5,157.0,107.5,163.0,99.5,169.0,92.0,174.5,84.0,180.0,75.5,186.0,67.5,192.0,59.5,189.5,63.5,181.0,73.5,172.5,87.0,164.0,95.5,156.0,106.5,148.0,116.5,139.5,127.0,131.5,138.0,124.0,148.5" stroke="black" stroke-width="2" fill="none" />
<polyline points="129.0,148.0,137.5,138.0,145.5,127.0,153.5,116.0,162.0,105.0,170.0,95.0,178.0,92.0,185.5,96.0,193.0,100.0,201.0,105.0,209.0,109.0,217.0,113.0,225.0,113.5,233.0,114.5,246.5,119.0,254.5,115.0" stroke="black" stroke-width="2" fill="none" />
<polyline points="217.0,130.0,202.0,129.5,186.5,129.5,171.0,130.0,154.5,131.0" stroke="black" stroke-width="2" fill="none" />
<polyline points="154.5,133.5,155.0,141.5,159.5,149.0,162.5,149.0,170.5,144.0,173.0,134.5" stroke="black" stroke-width="2" fill="none" />
<polyline points="174.0,131.5,173.0,140.0,176.0,140.5,177.0,145.0,182.5,149.0" stroke="black" stroke-width="2" fill="none" />
<polyline points="183.5,148.5,200.0,148.0" stroke="black" stroke-width="2" fill="none" />
<polyline points="216.0,128.5,201.0,129.0,184.0,130.0,167.0,131.5,150.5,132.0,134.5,132.0,119.0,132.5,102.5,133.5,86.0,134.5,70.5,135.5,55.5,136.0,40.0,137.0" stroke="black" stroke-width="2" fill="none" />
<polyline points="38.0,122.5,54.5,123.0,71.0,122.5,87.5,122.0,103.0,121.0,118.5,120.5,134.0,119.5,150.5,118.0,166.5,116.0,182.0,114.0,198.0,113.0,213.5,112.5" stroke="black" stroke-width="2" fill="none" />
<polyline points="236.5,92.0,228.5,93.0,220.5,89.0,213.0,84.5,205.0,80.5,197.0,76.0,189.0,72.0" stroke="black" stroke-width="2" fill="none" />
<polyline points="188.0,70.0,196.0,59.5,194.0,62.5,188.0,70.5,199.5,78.5,215.5,86.5,231.5,94.5" stroke="black" stroke-width="2" fill="none" />
<polyline points="240.5,80.5,232.5,76.5,224.5,73.0" stroke="black" stroke-width="2" fill="none" />
<polyline points="224.0,68.0,232.0,71.0,240.0,70.0,248.0,72.5,256.0,71.5,263.5,74.0,271.5,78.0" stroke="black" stroke-width="2" fill="none" />
<polyline points="280.0,62.0,262.5,62.5,246.5,64.0,230.0,65.0,214.0,66.0,197.5,67.5,181.5,68.0" stroke="black" stroke-width="2" fill="none" />
<polyline points="168.0,69.5,152.5,85.0,137.5,101.0,122.0,116.0" stroke="black" stroke-width="2" fill="none" />
<polyline points="122.0,121.0,124.0,123.0,123.0,131.0,123.0,139.0" stroke="black" stroke-width="2" fill="none" />
<polyline points="122.5,136.0,121.5,128.0,122.5,120.0,121.5,126.0" stroke="black" stroke-width="2" fill="none" />
<polyline points="118.0,113.0,133.0,113.0" stroke="black" stroke-width="2" fill="none" />
<polyline points="133.5,116.5,140.0,116.5" stroke="black" stroke-width="2" fill="none" />
<polyline points="137.5,97.5,154.0,97.5" stroke="black" stroke-width="2" fill="none" />
<polyline points="147.5,87.5,135.5,96.0,133.0,103.5,130.0,111.5,133.0,119.5,131.0,127.5" stroke="black" stroke-width="2" fill="none" />
<polyline points="154.0,137.0,162.0,135.0,170.0,134.0,177.5,139.0" stroke="black" stroke-width="2" fill="none" />
<polyline points="174.0,149.5,166.0,150.5" stroke="black" stroke-width="2" fill="none" />
<polyline points="161.0,139.5,168.5,137.5,177.5,143.0" stroke="black" stroke-width="2" fill="none" />
<polyline points="178.0,151.5,169.5,152.5,163.0,145.0,162.5,146.0,162.5,143.0,155.0,139.0" stroke="black" stroke-width="2" fill="none" />
<polyline points="149.0,145.0,156.5,150.0,164.5,154.0,172.0,158.0,180.5,162.0,188.5,167.0,196.0,171.5,204.0,175.5,211.5,180.0,219.5,185.0" stroke="black" stroke-width="2" fill="none" />
<polyline points="197.0,177.5,188.5,173.5,180.0,167.5,172.0,164.0,164.0,159.0,156.0,154.5,148.0,151.5" stroke="black" stroke-width="2" fill="none" />
<polyline points="123.5,170.0,131.5,173.5,141.0,179.5,145.0,183.5" stroke="black" stroke-width="2" fill="none" />
<polyline points="150.0,193.5,158.0,197.5,165.5,198.0" stroke="black" stroke-width="2" fill="none" />
<polyline points="184.0,200.5,176.0,200.0,176.5,196.0,168.5,197.0,163.5,191.0,157.5,190.5,152.0,187.5,144.0,190.5,136.0,186.5,135.5,179.0,127.5,175.0" stroke="black" stroke-width="2" fill="none" />
<polyline points="133.0,194.5,141.0,201.0,149.0,204.0,157.0,209.0,165.0,213.0,173.0,214.0,178.0,215.5,186.0,212.5" stroke="black" stroke-width="2" fill="none" />
<polyline points="203.5,215.5,208.5,223.0,221.5,227.0,233.5,226.0,232.0,230.5,233.5,235.5,235.5,244.5,236.5,252.5,247.5,261.0,256.0,263.5" stroke="black" stroke-width="2" fill="none" />
<polyline points="314.0,294.0,308.0,291.0,301.5,294.0,297.0,289.0,289.0,287.0,285.0,285.0,282.0,280.0,274.0,278.5,271.5,271.5,266.0,263.5,269.0,255.5,261.0,259.5,257.0,252.0,246.5,252.0,247.5,244.0,235.5,240.0,227.5,232.5,225.5,229.5,221.0,222.0,217.0,214.0,207.0,206.0" stroke="black" stroke-width="2" fill="none" />
<polyline points="189.5,227.5,174.5,219.5,162.0,215.5,152.0,207.5,141.5,201.5" stroke="black" stroke-width="2" fill="none" />
<polyline points="100.0,184.0,84.0,184.0" stroke="black" stroke-width="2" fill="none" />
<polyline points="90.0,193.5,98.5,198.5" stroke="black" stroke-width="2" fill="none" />
<polyline points="101.5,151.0,85.0,151.5" stroke="black" stroke-width="2" fill="none" />
<polyline points="68.5,137.0,52.5,151.0" stroke="black" stroke-width="2" fill="none" />
<polyline points="59.0,153.5,67.0,155.5,76.0,152.5,69.5,156.0,67.5,158.5" stroke="black" stroke-width="2" fill="none" />
<polyline points="75.5,169.0,59.0,169.5" stroke="black" stroke-width="2" fill="none" />
<polyline points="72.0,154.0,56.0,155.0,40.0,155.5" stroke="black" stroke-width="2" fill="none" />
<polyline points="38.0,157.5,50.0,158.5,49.5,159.5,54.0,166.0,54.0,177.0,51.0,185.0,53.5,182.0,55.5,178.0" stroke="black" stroke-width="2" fill="none" />
<polyline points="36.5,170.0,20.5,171.0" stroke="black" stroke-width="2" fill="none" />
<polyline points="24.5,154.0,8.0,155.0" stroke="black" stroke-width="2" fill="none" />
<polyline points="8.5,136.5,24.5,136.0" stroke="black" stroke-width="2" fill="none" />
<polyline points="26.5,122.0,10.5,122.0" stroke="black" stroke-width="2" fill="none" />
<polyline points="19.5,121.5,14.5,126.5,21.0,123.5" stroke="black" stroke-width="2" fill="none" />
<polyline points="36.5,122.0,44.5,125.0" stroke="black" stroke-width="2" fill="none" />
<polyline points="71.5,118.5,87.5,103.0" stroke="black" stroke-width="2" fill="none" />
<polyline points="98.0,101.5,100.5,96.5,97.5,91.0" stroke="black" stroke-width="2" fill="none" />
<polyline points="86.0,83.0,70.5,99.0" stroke="black" stroke-width="2" fill="none" />
<polyline points="69.0,96.5,60.5,98.5" stroke="black" stroke-width="2" fill="none" />
<polyline points="89.0,69.0,104.5,55.0,119.5,40.5,134.5,26.0,150.0,11.0" stroke="black" stroke-width="2" fill="none" />
<polyline points="123.0,4.5,106.5,21.0,90.0,36.5,73.5,52.0" stroke="black" stroke-width="2" fill="none" />
<polyline points="72.5,49.5,88.0,49.5,103.5,49.0" stroke="black" stroke-width="2" fill="none" />
<polyline points="100.0,45.0,108.0,43.5,108.5,39.0" stroke="black" stroke-width="2" fill="none" />
<polyline points="110.0,46.5,118.0,38.5" stroke="black" stroke-width="2" fill="none" />
<polyline points="115.5,51.5,123.5,52.0" stroke="black" stroke-width="2" fill="none" />
<polyline points="132.0,71.5,148.0,56.5" stroke="black" stroke-width="2" fill="none" />
<polyline points="103.5,66.0,87.5,66.0" stroke="black" stroke-width="2" fill="none" />
<polyline points="88.0,62.5,86.0,61.0,95.0,54.0,94.0,56.0,86.0,56.5" stroke="black" stroke-width="2" fill="none" />
<polyline points="120.0,99.0,127.5,85.5,135.0,80.5,143.0,76.0,151.0,72.5,158.5,67.5,169.0,63.5,177.0,61.0,185.0,58.0,192.5,56.0,199.5,61.0,207.5,64.5,215.5,67.5,223.5,72.5,231.0,73.5,238.5,77.5" stroke="black" stroke-width="2" fill="none" />
<polyline points="236.0,85.0,220.0,77.0,205.0,68.5" stroke="black" stroke-width="2" fill="none" />
<polyline points="201.5,66.5,209.5,75.0,224.5,83.0,237.5,91.0" stroke="black" stroke-width="2" fill="none" />
<polyline points="199.5,70.0,207.5,71.0,216.0,75.0,224.0,79.0,232.0,83.0,240.0,87.0,249.5,91.0,241.5,99.0,236.0,103.0,235.0,111.0,240.5,116.5,249.0,115.0,250.0,111.0,255.5,101.5,259.5,109.0,265.5,107.0,270.5,110.5,272.5,106.5,272.5,113.0,272.5,108.5,267.5,116.5,267.5,119.0,271.0,123.0,275.0,127.5,274.0,131.5,281.0,133.0,284.5,133.5,292.0,132.5" stroke="black" stroke-width="2" fill="none" />
<polyline points="225.5,128.0,209.5,120.0,193.0,112.0,178.0,104.0" stroke="black" stroke-width="2" fill="none" />
<polyline points="180.5,102.0,196.5,110.0,212.5,118.0,228.0,126.0" stroke="black" stroke-width="2" fill="none" />
<polyline points="174.5,100.5,167.0,108.0,161.0,116.0,155.5,124.0,150.0,132.0,144.0,139.5,138.0,147.5,144.0,159.0,163.0,167.0,174.5,174.5,184.5,177.5,188.5,179.5,203.0,187.5,212.0,193.0,223.0,201.5,240.0,209.5,254.5,218.0,270.0,226.0,285.0,234.5,299.5,243.0,314.5,251.5" stroke="black" stroke-width="2" fill="none" />
<polyline points="363.0,85.5,355.0,89.5,347.0,89.0,339.0,88.5,331.0,86.5,323.0,89.5,319.0,86.0,315.0,85.0,307.5,86.0,299.0,84.0,290.5,83.0,282.5,83.5,280.5,79.5,272.5,83.5,265.5,89.5,257.5,85.5,249.5,81.0,241.5,84.0,233.5,79.0,226.0,76.5,218.0,72.5,210.0,68.0,202.0,64.5" stroke="black" stroke-width="2" fill="none" />
<polyline points="202.0,62.5,219.0,70.5,235.0,78.5,241.0,86.5" stroke="black" stroke-width="2" fill="none" />
<polyline points="225.0,75.0,210.5,67.0,199.0,59.0" stroke="black" stroke-width="2" fill="none" />
<polyline points="183.0,71.5,168.0,72.0,151.5,72.5,135.5,72.5,119.5,73.0,104.0,74.0,88.0,74.5,72.5,75.0,56.0,75.5,39.5,76.0,23.5,76.5,7.5,77.0" stroke="black" stroke-width="2" fill="none" />
<polyline points="19.0,212.0,24.0,215.0,24.0,214.0" stroke="black" stroke-width="2" fill="none" />
<polyline points="227.5,25.5,229.5,27.5" stroke="black" stroke-width="2" fill="none" />
<polyline points="323.5,70.0,319.5,77.0,324.0,77.0,332.0,79.0,340.0,79.0,348.0,78.0,352.5,77.5,360.5,76.5,368.0,75.5" stroke="black" stroke-width="2" fill="none" />
</svg>