<svg xmlns="http://www.w3.org/2000/svg" version="1.1"><polyline points="131.0,350.5,124.0,358.5,122.5,366.5,120.5,374.5,115.5,382.5,114.5,390.5,124.0,399.0,126.0,407.0,126.5,414.5,128.0,422.5,130.0,430.5,130.0,438.5,130.5,446.5,131.0,454.5,132.0,462.5,133.0,471.0,134.0,479.5,135.0,487.5,136.0,496.0,137.5,504.0,138.5,512.0,139.5,520.0,139.0,527.5,140.0,535.5,141.0,543.0,141.5,552.0,144.0,559.5,142.5,567.5,145.5,571.0,145.5,580.0,148.5,589.0" stroke="black" stroke-width="2" fill="none" />
<polyline points="153.5,579.0,169.5,578.0,186.0,577.5,201.5,577.0,217.5,576.5,232.0,576.0,247.5,575.5,262.5,574.5,277.5,573.5,292.0,572.0,308.0,571.5" stroke="black" stroke-width="2" fill="none" />
<polyline points="297.5,582.5,305.5,582.5,313.0,583.0,321.0,578.5,329.0,578.5,337.0,577.5,345.5,578.5,346.0,574.5,354.5,574.0,363.0,574.0" stroke="black" stroke-width="2" fill="none" />
<polyline points="374.0,581.0,389.5,564.5,405.5,547.0,422.0,531.5" stroke="black" stroke-width="2" fill="none" />
<polyline points="438.5,534.5,422.5,550.5,405.5,566.0,389.5,581.5" stroke="black" stroke-width="2" fill="none" />
<polyline points="380.5,583.0,388.5,583.5,397.0,584.0,405.5,584.0,413.0,584.5,421.0,584.5,429.0,584.5" stroke="black" stroke-width="2" fill="none" />
<polyline points="440.0,576.0,448.0,575.0,455.5,575.0,463.5,575.0,471.5,575.5" stroke="black" stroke-width="2" fill="none" />
<polyline points="470.5,578.0,486.5,576.5" stroke="black" stroke-width="2" fill="none" />
<polyline points="486.5,579.5,471.0,595.5" stroke="black" stroke-width="2" fill="none" />
<polyline points="467.0,581.5,483.0,566.5,499.0,552.0,515.5,536.5" stroke="black" stroke-width="2" fill="none" />
<polyline points="521.0,550.0,505.0,565.5" stroke="black" stroke-width="2" fill="none" />
<polyline points="507.0,557.5,491.0,558.5,475.5,559.5" stroke="black" stroke-width="2" fill="none" />
<polyline points="466.5,563.0,482.0,548.0,498.5,532.5" stroke="black" stroke-width="2" fill="none" />
<polyline points="487.5,534.5,471.5,549.5,454.5,565.5" stroke="black" stroke-width="2" fill="none" />
<polyline points="439.5,566.5,455.5,550.5,471.5,535.0" stroke="black" stroke-width="2" fill="none" />
<polyline points="471.0,521.5,488.0,521.5,504.5,521.5,520.0,521.5" stroke="black" stroke-width="2" fill="none" />
<polyline points="523.5,485.0,507.0,485.5,490.0,486.0,474.0,486.5,457.0,486.5,440.5,487.5,424.5,488.0,408.5,488.5,392.0,489.0,374.5,489.5,357.5,490.5,341.0,491.5,325.5,492.0" stroke="black" stroke-width="2" fill="none" />
<polyline points="347.0,533.5,330.5,548.5,314.0,563.5,298.0,579.5,282.0,595.5" stroke="black" stroke-width="2" fill="none" />
<polyline points="276.0,590.0,284.0,590.0,292.5,590.0,300.5,590.0,308.0,591.5,316.0,590.5,324.0,588.5,332.0,589.0,340.0,587.5,347.5,588.5,355.5,587.5,363.5,585.5,373.5,579.5,382.0,579.5,390.5,579.5,398.0,581.0,406.0,580.0,413.5,581.0,421.0,581.5,429.0,582.0,437.0,581.0,445.0,580.5,455.0,583.5,463.0,583.5,471.0,579.0,479.0,579.0,487.0,577.5,495.0,577.5,498.5,571.0,506.5,571.0" stroke="black" stroke-width="2" fill="none" />
<polyline points="507.0,577.0,499.0,574.0" stroke="black" stroke-width="2" fill="none" />
<polyline points="503.0,583.0,487.0,598.5,471.0,613.5,454.5,628.5,437.5,643.0,421.0,658.5,404.5,675.0" stroke="black" stroke-width="2" fill="none" />
<polyline points="424.5,676.5,442.0,660.0,459.0,643.5,475.5,628.0,492.0,613.0,508.5,597.5" stroke="black" stroke-width="2" fill="none" />
<polyline points="510.5,604.5,502.5,605.0" stroke="black" stroke-width="2" fill="none" />
<polyline points="499.0,606.5,496.0,612.5,489.0,619.0,496.5,618.5,504.0,617.5,511.5,617.5" stroke="black" stroke-width="2" fill="none" />
<polyline points="505.0,614.5,488.5,630.0,472.5,645.0,456.5,660.5,440.0,676.0" stroke="black" stroke-width="2" fill="none" />
<polyline points="446.5,680.5,455.0,681.5,462.5,681.5" stroke="black" stroke-width="2" fill="none" />
<polyline points="488.0,679.0,503.5,663.0,519.5,647.5" stroke="black" stroke-width="2" fill="none" />
<polyline points="518.5,663.0,502.0,678.5" stroke="black" stroke-width="2" fill="none" />
<polyline points="473.5,678.0,490.5,661.5,508.0,645.0,524.5,629.5" stroke="black" stroke-width="2" fill="none" />
<polyline points="521.0,615.0,505.5,631.0,491.0,646.0,475.5,662.0,458.5,678.5" stroke="black" stroke-width="2" fill="none" />
<polyline points="431.5,680.5,439.5,681.5,447.5,677.5,455.5,675.0,463.5,674.5,471.5,673.5,480.0,673.5,487.5,673.5" stroke="black" stroke-width="2" fill="none" />
<polyline points="507.0,653.5,498.5,653.5,490.5,653.5,482.0,652.5,474.0,647.5" stroke="black" stroke-width="2" fill="none" />
<polyline points="469.0,641.5,452.5,640.5,436.0,641.0" stroke="black" stroke-width="2" fill="none" />
<polyline points="441.0,639.0,441.5,637.0,449.5,636.5,458.0,638.5,463.0,639.0,471.5,635.0" stroke="black" stroke-width="2" fill="none" />
<polyline points="474.5,620.0,482.5,619.0" stroke="black" stroke-width="2" fill="none" />
<polyline points="473.0,612.0,478.5,619.5,481.5,616.5,489.5,618.0,501.5,621.5,509.5,623.0,512.5,626.0" stroke="black" stroke-width="2" fill="none" />
<polyline points="517.5,611.5,503.0,611.5,487.0,611.5,470.5,612.0,454.5,613.0,438.5,612.5,423.5,612.0,407.5,611.5,391.0,611.5,374.5,612.0,357.5,611.5,341.5,611.0,325.0,611.5,308.5,612.0,293.0,613.0,277.0,613.0,261.0,613.5,245.5,614.0,229.5,614.0,214.0,614.5,198.0,615.5,182.0,616.5,166.0,618.0,150.0,619.0,133.5,619.5" stroke="black" stroke-width="2" fill="none" />
<polyline points="122.5,619.5,105.5,618.5,89.5,618.0,73.5,618.5,56.5,619.5,40.5,619.5,24.5,619.5,9.0,619.5" stroke="black" stroke-width="2" fill="none" />
<polyline points="3.0,618.5,10.5,617.0,14.5,623.5,15.0,618.5,23.0,611.5,24.0,614.5,27.0,608.5,35.5,608.5,43.5,605.5,47.5,611.5,51.5,605.5,53.5,608.5,61.5,607.0,69.5,608.0,74.5,613.0,82.5,609.0,90.5,608.0,99.5,609.5,108.0,609.5" stroke="black" stroke-width="2" fill="none" />
<polyline points="102.0,599.5,110.0,600.5,118.0,600.5,129.0,598.5,137.0,598.0,139.5,596.0,146.0,597.5" stroke="black" stroke-width="2" fill="none" />
<polyline points="147.5,612.0,163.0,597.0,178.5,581.0,194.0,565.5,210.5,549.0,227.5,532.0,245.0,515.5,262.0,499.0,278.0,483.5" stroke="black" stroke-width="2" fill="none" />
<polyline points="277.5,469.0,261.5,484.0,244.5,499.5" stroke="black" stroke-width="2" fill="none" />
<polyline points="250.0,485.5,234.5,501.0,218.0,516.5,201.0,531.5,184.0,547.0,167.5,562.5,151.0,577.5" stroke="black" stroke-width="2" fill="none" />
<polyline points="165.5,585.0,181.5,569.0,198.0,553.0,215.0,537.5" stroke="black" stroke-width="2" fill="none" />
<polyline points="232.5,533.0,249.0,533.0,264.5,532.5,280.5,531.0" stroke="black" stroke-width="2" fill="none" />
<polyline points="278.0,523.0,262.0,538.5,245.5,554.5,229.5,569.5,214.0,584.5,198.0,599.0,182.5,614.0,167.5,628.0" stroke="black" stroke-width="2" fill="none" />
<polyline points="171.0,621.5,154.5,621.0" stroke="black" stroke-width="2" fill="none" />
<polyline points="157.5,625.0,165.5,626.0,173.5,628.0,177.5,619.5" stroke="black" stroke-width="2" fill="none" />
<polyline points="172.0,616.5,178.0,619.5,181.5,627.5,182.0,627.5,184.0,618.0,192.0,617.0,200.0,617.5,203.0,610.0,211.0,611.0,219.0,613.0,226.5,612.0,226.5,614.0,234.5,613.5,242.0,614.5,249.5,616.0,257.5,616.5,265.5,615.5,274.0,615.5,282.0,616.5,290.0,616.0,299.0,619.0" stroke="black" stroke-width="2" fill="none" />
<polyline points="292.5,615.5,277.0,631.0,260.5,645.5" stroke="black" stroke-width="2" fill="none" />
<polyline points="263.5,660.5,279.0,644.0,295.0,628.0,310.5,612.5" stroke="black" stroke-width="2" fill="none" />
<polyline points="312.0,626.0,327.5,626.0" stroke="black" stroke-width="2" fill="none" />
<polyline points="326.0,624.5,333.5,626.5,341.0,625.5,344.0,629.0,349.0,625.0,357.5,628.5" stroke="black" stroke-width="2" fill="none" />
<polyline points="357.5,616.5,342.0,632.0,327.0,648.0,312.0,664.0" stroke="black" stroke-width="2" fill="none" />
<polyline points="312.5,677.5,329.0,676.5" stroke="black" stroke-width="2" fill="none" />
<polyline points="359.5,678.5,376.5,663.5,393.5,648.5,410.0,632.5,426.0,616.0" stroke="black" stroke-width="2" fill="none" />
<polyline points="425.0,624.5,440.5,624.5" stroke="black" stroke-width="2" fill="none" />
<polyline points="437.5,612.5,422.0,629.0,406.0,645.0,390.0,660.0" stroke="black" stroke-width="2" fill="none" />
<polyline points="390.5,651.5,398.5,652.0,407.5,648.0" stroke="black" stroke-width="2" fill="none" />
<polyline points="408.5,645.5,425.0,644.0" stroke="black" stroke-width="2" fill="none" />
<polyline points="432.0,653.0,440.0,652.5,448.0,653.5,456.0,650.0,461.0,651.5" stroke="black" stroke-width="2" fill="none" />
<polyline points="447.5,647.5,439.5,645.5" stroke="black" stroke-width="2" fill="none" />
<polyline points="438.0,658.0,430.0,657.5,422.0,658.5" stroke="black" stroke-width="2" fill="none" />
<polyline points="412.0,637.5,420.0,635.0,428.0,634.5,436.0,635.5,443.5,629.0" stroke="black" stroke-width="2" fill="none" />
<polyline points="451.0,615.5,435.5,630.5,420.0,646.0,404.0,661.5,388.5,677.0" stroke="black" stroke-width="2" fill="none" />
<polyline points="381.5,682.5,389.5,682.0,397.5,680.5,405.5,680.5" stroke="black" stroke-width="2" fill="none" />
<polyline points="413.5,655.0,405.5,657.0,397.0,659.0,383.5,663.0,375.0,664.0" stroke="black" stroke-width="2" fill="none" />
<polyline points="364.5,677.5,372.5,674.5,380.0,673.0,388.0,674.0,396.0,674.0,404.0,674.5" stroke="black" stroke-width="2" fill="none" />
<polyline points="374.5,643.0,358.5,644.0" stroke="black" stroke-width="2" fill="none" />
<polyline points="375.5,618.5,360.5,634.0,345.0,648.0,329.5,663.5,314.5,679.5" stroke="black" stroke-width="2" fill="none" />
<polyline points="330.0,674.5,345.5,658.5,360.5,643.5,376.0,628.5,391.5,613.0,407.5,597.0" stroke="black" stroke-width="2" fill="none" />
<polyline points="418.5,600.5,427.0,598.5,435.0,599.5,443.5,599.5,451.0,598.5,459.0,598.5,467.0,599.0" stroke="black" stroke-width="2" fill="none" />
<polyline points="455.0,595.5,463.0,596.5,471.5,598.5,479.5,598.5,488.0,597.5" stroke="black" stroke-width="2" fill="none" />
<polyline points="521.0,592.0,504.5,593.0,488.0,595.0,471.5,596.0,455.0,595.5,439.0,594.5,423.0,594.0,407.0,594.5,391.0,594.5,375.0,595.0,360.0,595.5,344.5,596.5,328.0,598.0,312.5,599.5,296.0,601.5,279.5,602.5,263.0,603.5,247.0,604.5,231.0,605.5" stroke="black" stroke-width="2" fill="none" />
<polyline points="228.0,595.5,243.0,581.0,258.5,567.5,274.5,552.5" stroke="black" stroke-width="2" fill="none" />
<polyline points="278.5,540.0,261.5,555.0,244.5,570.5,228.0,585.5,212.0,599.5" stroke="black" stroke-width="2" fill="none" />
<polyline points="216.0,596.5,200.0,597.5,183.0,599.0,167.0,600.5,150.5,601.0,135.5,601.0,120.0,601.5,105.0,602.0,90.0,602.5,74.0,604.5,59.0,604.5,43.5,604.0,27.5,604.5,12.0,605.5" stroke="black" stroke-width="2" fill="none" />
<polyline points="4.0,602.0,12.0,602.0,21.0,603.5,29.0,603.5,34.0,601.0,42.5,598.5,50.0,598.5,58.5,598.0,66.0,598.0,73.5,596.5,83.5,598.5,91.5,600.0,96.5,591.0,104.5,588.0,112.5,587.5,120.5,588.5,129.0,588.5,137.5,588.5,145.5,586.5" stroke="black" stroke-width="2" fill="none" />
<polyline points="151.0,569.5,167.0,553.5,182.5,538.0,198.5,523.0" stroke="black" stroke-width="2" fill="none" />
<polyline points="197.0,513.0,181.5,514.0,166.0,516.0,150.5,517.5" stroke="black" stroke-width="2" fill="none" />
<polyline points="152.5,513.5,168.5,498.0,184.5,483.0,201.0,468.5,217.0,453.0,233.0,437.5,248.5,422.0,263.0,406.5,277.5,391.0,292.5,375.0" stroke="black" stroke-width="2" fill="none" />
<polyline points="293.0,361.5,276.5,377.0,260.5,392.0,245.0,407.0,230.0,423.0,214.5,438.5" stroke="black" stroke-width="2" fill="none" />
<polyline points="215.5,443.0,232.0,443.0,248.0,442.5,264.5,442.5,280.5,442.5,296.0,442.0" stroke="black" stroke-width="2" fill="none" />
<polyline points="292.5,440.0,277.0,455.0,261.5,469.0" stroke="black" stroke-width="2" fill="none" />
<polyline points="263.5,472.0,261.5,480.5" stroke="black" stroke-width="2" fill="none" />
<polyline points="261.0,482.0,276.5,481.0" stroke="black" stroke-width="2" fill="none" />
<polyline points="277.5,475.0,261.5,476.0" stroke="black" stroke-width="2" fill="none" />
<polyline points="259.0,474.0,249.0,484.0,246.0,483.0,255.5,476.5,253.5,475.5,243.5,475.5" stroke="black" stroke-width="2" fill="none" />
<polyline points="248.0,476.5,243.5,476.5,240.0,484.0,238.0,484.0" stroke="black" stroke-width="2" fill="none" />
<polyline points="231.5,487.0,215.5,502.5" stroke="black" stroke-width="2" fill="none" />
<polyline points="215.5,504.5,232.0,504.5,248.5,504.5,264.0,505.0,280.0,505.0,295.5,505.5,311.5,505.0,327.5,505.5,343.5,504.5,360.0,502.5,376.0,501.0,392.5,501.0,408.5,502.0,424.0,501.5,439.0,500.5,454.5,500.0,469.5,498.5,485.0,498.0,500.5,497.5,516.5,497.0" stroke="black" stroke-width="2" fill="none" />
<polyline points="454.0,533.5,438.0,549.5,422.0,565.0" stroke="black" stroke-width="2" fill="none" />
<polyline points="426.0,561.5,442.0,561.5" stroke="black" stroke-width="2" fill="none" />
<polyline points="424.0,598.0,408.0,613.0,393.0,628.0,378.5,643.5,363.0,660.0,347.0,676.0" stroke="black" stroke-width="2" fill="none" />
<polyline points="344.0,656.5,328.0,657.5,312.5,658.5,296.5,659.5" stroke="black" stroke-width="2" fill="none" />
<polyline points="293.5,662.5,309.5,645.5,326.0,630.0,343.0,615.0,359.5,599.5" stroke="black" stroke-width="2" fill="none" />
<polyline points="365.5,597.5,373.5,598.0,370.0,601.5,360.5,610.5,357.5,619.5" stroke="black" stroke-width="2" fill="none" />
<polyline points="376.5,597.5,385.0,598.0,392.5,597.5,400.5,597.5,408.5,597.5,416.5,598.5,424.0,595.0,432.0,595.0,440.0,594.0,448.0,594.5,456.0,594.5,464.0,594.5,471.5,594.0,484.0,590.0,492.0,590.5,500.5,590.5,508.5,591.0" stroke="black" stroke-width="2" fill="none" />
<polyline points="518.5,573.0,503.5,573.0,489.5,572.0,475.0,571.5,459.0,572.5,443.5,573.5,427.0,574.0,411.5,574.5,395.0,576.0,379.0,577.5,363.5,579.5,346.5,580.0,330.0,581.5,314.0,582.0,298.0,582.5,281.5,583.5,265.0,584.0,249.0,585.0,233.0,586.5,216.5,587.0,200.0,587.5,185.5,587.0,170.0,586.5,154.5,586.0,139.5,585.5,123.5,585.5" stroke="black" stroke-width="2" fill="none" />
<polyline points="120.0,592.0,128.5,593.0" stroke="black" stroke-width="2" fill="none" />
<polyline points="125.0,598.5,132.5,598.5,140.5,598.5" stroke="black" stroke-width="2" fill="none" />
<polyline points="144.5,612.5,152.5,610.5,160.5,610.5,168.5,607.5,179.5,607.0,188.0,608.0,196.0,609.0,204.0,608.5,212.0,607.5,219.0,608.0,225.0,610.0,233.0,609.0,241.0,609.0,249.0,609.0,258.5,612.5,266.5,606.5,268.5,609.0,272.5,612.5,280.5,606.0,289.0,606.0,297.0,607.0,305.0,603.0,312.5,602.0,320.5,602.0,328.5,605.5,338.5,607.5" stroke="black" stroke-width="2" fill="none" />
<polyline points="328.5,604.5,338.5,612.5,334.5,621.5,342.5,618.5,351.0,618.5,358.0,616.5,365.0,619.5,373.0,619.5,380.5,620.5,389.0,619.0,397.0,620.0,405.0,619.0,413.0,620.0,421.0,619.0,428.5,620.0,436.5,621.0,444.0,619.0,452.0,614.5,452.5,617.5,461.0,618.5,469.0,618.0,472.0,611.5,480.0,613.5,481.5,607.0,490.0,608.0,493.5,613.0,501.5,611.0,504.5,604.0,512.5,603.0" stroke="black" stroke-width="2" fill="none" />
<polyline points="518.5,635.0,503.5,635.5,487.5,636.0,471.5,637.0,455.0,638.5,438.5,639.0,422.0,639.0,405.0,638.5,390.0,638.5,374.0,637.5,358.0,637.0,342.0,637.5,325.5,638.5,310.0,639.0,293.5,639.0,277.0,639.5,261.0,640.5,246.0,642.0,229.5,643.0,213.0,644.0,197.5,645.0,182.0,647.0,166.5,648.5,150.5,648.5,135.5,648.5,119.0,649.0,102.0,650.5,85.5,652.0,69.5,653.0,54.5,653.0,38.5,653.5,22.0,655.0,6.5,656.0" stroke="black" stroke-width="2" fill="none" />
<polyline points="2.5,656.0,10.5,656.0,18.5,656.0,26.5,655.0,34.5,655.0,42.5,655.0,50.5,655.0,57.5,654.0,65.5,654.0,73.5,654.5,81.5,654.5,89.5,653.5,97.5,653.5,105.5,653.5,114.0,653.5,121.5,652.5,129.5,649.5,132.0,651.0,139.0,651.0,147.0,648.0,155.0,649.0,163.0,650.0,170.5,647.5,176.5,649.5,184.5,646.0,192.5,645.5,197.5,647.5,205.5,646.5,213.5,647.5,222.0,646.5,230.0,644.5,238.0,644.0,246.0,645.5,254.0,643.5,262.5,645.0,270.5,643.5,278.0,644.0,286.0,643.0,290.0,641.5,297.5,642.5,305.5,642.0,313.5,642.0,321.5,641.5,329.5,641.5,337.5,641.0,345.5,641.0,353.5,639.5,361.5,640.5,369.5,638.5,377.5,638.5,385.5,637.0,393.5,637.5,401.5,635.5,411.0,630.5,419.0,632.5" stroke="black" stroke-width="2" fill="none" />
<polyline points="408.0,611.0,392.0,611.5" stroke="black" stroke-width="2" fill="none" />
<polyline points="392.5,607.0,391.5,615.5,389.0,610.5,394.0,609.5,399.0,611.5,406.0,611.5,413.0,615.5,421.0,615.5,429.0,615.0" stroke="black" stroke-width="2" fill="none" />
<polyline points="438.5,615.0,436.5,614.5,433.5,606.0" stroke="black" stroke-width="2" fill="none" />
<polyline points="457.5,604.0,444.5,605.5,442.5,603.5,434.5,604.0,426.5,605.0,418.5,603.5,410.0,602.5,401.5,603.0,393.5,602.0,385.0,603.0" stroke="black" stroke-width="2" fill="none" />
<polyline points="385.5,590.0,393.5,590.0,401.5,590.5,409.5,590.5,417.5,590.5,425.5,590.5,434.0,591.0,442.0,591.5,450.5,591.5,458.5,591.0,466.0,591.0,474.0,591.0,482.5,588.5,490.5,588.5,499.0,590.5" stroke="black" stroke-width="2" fill="none" />
<polyline points="522.5,554.0,506.0,554.5,491.0,555.0,475.5,555.0,460.0,555.5,444.0,556.5,427.5,558.5,411.0,559.5,394.0,560.5,377.5,561.5,361.0,562.5,344.5,563.5,328.5,564.0,314.0,564.5,299.0,564.5,283.5,564.5,267.5,564.0,251.5,564.0,235.0,563.5,218.0,563.5,201.0,563.5,184.5,564.0,169.0,565.0,153.5,565.0,138.5,564.5,123.0,564.5,107.0,564.0,91.0,564.5,75.0,565.0,58.5,565.5,42.5,567.0,26.0,567.5" stroke="black" stroke-width="2" fill="none" />
<polyline points="9.0,559.0,25.5,558.0,41.5,556.0,57.5,554.0,74.0,552.5,89.5,552.0,105.0,551.0,120.0,551.0,135.0,551.0,150.5,550.5,165.5,550.5,182.0,550.0,198.0,549.0,214.0,547.5,230.0,546.5,246.0,545.5,261.5,545.0,277.5,545.0,293.0,544.5,309.0,544.0,325.0,544.0,340.5,543.0,357.0,542.5,373.5,542.0,389.5,542.5,406.5,543.0,423.0,542.5,439.5,542.5,455.5,543.0,470.5,543.5,486.5,544.0,502.5,543.0,519.0,542.5" stroke="black" stroke-width="2" fill="none" />
<polyline points="453.5,515.0,437.5,515.5,422.0,516.0,406.5,517.0,391.0,518.0,375.0,518.0,359.5,518.5,343.5,519.5,326.0,521.0,310.0,522.5,294.5,523.0,278.0,524.0,261.5,524.5,245.5,524.5,228.5,524.5" stroke="black" stroke-width="2" fill="none" />
<polyline points="227.5,513.5,212.0,515.0" stroke="black" stroke-width="2" fill="none" />
<polyline points="209.0,516.0,217.0,514.0" stroke="black" stroke-width="2" fill="none" />
<polyline points="217.0,518.5,199.5,519.0,183.0,518.5,167.0,518.0,151.5,519.0,135.0,519.0,119.0,519.5,102.5,520.0,85.5,520.0,69.5,520.0" stroke="black" stroke-width="2" fill="none" />
<polyline points="87.0,507.0,104.0,505.5,120.5,505.0,136.5,505.0" stroke="black" stroke-width="2" fill="none" />
<polyline points="134.0,497.0,149.5,481.5,165.5,465.5,181.5,449.0,197.5,433.0,214.0,418.0,230.5,402.5,246.5,387.5,262.0,373.0,277.5,358.0" stroke="black" stroke-width="2" fill="none" />
<polyline points="279.5,351.0,264.0,352.0,248.0,353.0,232.5,354.0,217.0,355.5,201.5,356.0,186.0,357.5,171.0,358.0,155.5,359.5" stroke="black" stroke-width="2" fill="none" />
<polyline points="152.0,358.0,160.0,358.5,168.0,358.5,177.5,359.0" stroke="black" stroke-width="2" fill="none" />
<polyline points="182.0,342.0,166.0,358.5,150.5,375.0" stroke="black" stroke-width="2" fill="none" />
<polyline points="144.0,378.5,152.0,378.5,164.0,381.5,172.0,381.5" stroke="black" stroke-width="2" fill="none" />
<polyline points="169.5,383.5,185.5,384.0,202.0,384.5,218.0,385.0,233.5,385.5,249.0,386.0,264.5,385.5,279.5,384.0,295.0,383.5" stroke="black" stroke-width="2" fill="none" />
<polyline points="298.0,393.5,281.5,393.5,264.5,394.0,248.0,395.0,231.5,397.0,215.5,398.5,198.0,399.0,181.5,399.5,164.5,400.5,147.0,402.0,130.0,403.0" stroke="black" stroke-width="2" fill="none" />
<polyline points="135.0,404.5,151.0,387.5,167.0,371.0,183.0,355.5,199.0,339.5" stroke="black" stroke-width="2" fill="none" />
<polyline points="213.5,345.0,197.5,359.5,182.0,375.0,166.5,390.0,151.0,405.0,135.5,420.5" stroke="black" stroke-width="2" fill="none" />
<polyline points="136.0,426.0,152.0,426.0,167.5,424.5,182.5,423.0" stroke="black" stroke-width="2" fill="none" />
<polyline points="183.5,435.0,168.0,435.0,153.0,435.0,137.5,436.0" stroke="black" stroke-width="2" fill="none" />
<polyline points="133.5,434.0,148.0,418.5,165.0,403.0,181.0,388.0,197.5,372.5,213.5,356.5,229.5,341.0" stroke="black" stroke-width="2" fill="none" />
<polyline points="248.0,340.0,232.0,356.0,216.0,372.0,199.5,387.5,183.0,402.0,166.5,416.5,150.5,433.0,136.0,450.0" stroke="black" stroke-width="2" fill="none" />
<polyline points="137.0,457.0,153.5,455.5,169.0,454.0,184.0,452.0,199.0,450.0" stroke="black" stroke-width="2" fill="none" />
<polyline points="200.0,451.5,184.0,467.5" stroke="black" stroke-width="2" fill="none" />
<polyline points="182.0,463.0,190.0,464.0,198.0,464.0,206.0,459.0,212.5,450.0,214.5,452.5,212.5,460.5,199.5,469.0,204.0,472.0,204.5,480.0,204.5,487.5,204.5,496.0,207.0,495.5,213.5,500.5,198.5,507.5,203.0,511.5,200.5,521.5,210.0,528.0,207.0,526.5,208.5,530.5" stroke="black" stroke-width="2" fill="none" />
<polyline points="214.5,528.5,199.5,528.5,183.5,529.5,167.5,530.5,151.5,531.5" stroke="black" stroke-width="2" fill="none" />
<polyline points="149.0,530.5,164.0,516.0,179.0,501.5" stroke="black" stroke-width="2" fill="none" />
<polyline points="183.0,502.0,166.0,502.5" stroke="black" stroke-width="2" fill="none" />
<polyline points="168.5,491.0,184.5,490.5" stroke="black" stroke-width="2" fill="none" />
<polyline points="185.5,484.5,202.0,483.5" stroke="black" stroke-width="2" fill="none" />
<polyline points="201.5,477.5,185.5,478.5" stroke="black" stroke-width="2" fill="none" />
<polyline points="180.0,477.0,182.0,485.0" stroke="black" stroke-width="2" fill="none" />
<polyline points="177.5,497.5,179.5,495.5,187.5,495.5,188.5,497.5" stroke="black" stroke-width="2" fill="none" />
<polyline points="199.5,504.5,183.5,520.0,167.5,536.5,152.5,552.5" stroke="black" stroke-width="2" fill="none" />
<polyline points="152.5,545.0,169.0,544.5,186.0,544.5,203.0,544.5,219.5,545.0,235.5,545.0,251.5,545.5,267.0,545.5,282.0,545.5" stroke="black" stroke-width="2" fill="none" />
<polyline points="293.0,547.0,276.5,563.5,261.0,580.0,245.5,596.0,229.5,612.0,214.0,627.5" stroke="black" stroke-width="2" fill="none" />
<polyline points="206.0,614.0,214.0,618.5,221.5,618.5,229.5,618.5,237.5,618.5,245.0,618.5,253.0,619.5,260.0,624.5" stroke="black" stroke-width="2" fill="none" />
<polyline points="262.5,626.0,270.5,626.5,278.5,625.5,286.0,622.5" stroke="black" stroke-width="2" fill="none" />
<polyline points="293.0,627.0,277.0,628.0" stroke="black" stroke-width="2" fill="none" />
<polyline points="277.5,613.5,261.0,628.5,244.5,645.5" stroke="black" stroke-width="2" fill="none" />
<polyline points="235.0,630.5,250.0,615.0" stroke="black" stroke-width="2" fill="none" />
<polyline points="245.5,612.5,248.5,609.5" stroke="black" stroke-width="2" fill="none" />
<polyline points="245.0,604.0,244.5,602.0,252.5,602.0,260.5,601.0,273.5,598.0,282.0,597.0,290.0,596.0,295.0,601.0,297.0,596.0,305.0,596.0,313.0,596.0,319.5,591.0,327.5,591.5,336.0,591.5,344.0,592.0,352.5,592.0,360.5,591.5,368.0,591.5,376.0,591.5,384.0,588.5,387.5,587.0,396.0,586.5,404.0,586.5,411.5,586.5,419.5,586.5,427.5,587.0,435.5,586.0,443.0,585.0,451.5,584.5,459.5,584.5,468.5,584.5,476.5,584.0,485.0,584.5,497.5,583.5,508.5,583.0" stroke="black" stroke-width="2" fill="none" />
<polyline points="517.5,617.5,501.5,617.5,485.5,618.0,470.0,619.0,455.0,619.5,439.5,620.0,424.5,619.5,410.0,620.0,393.0,620.5,376.0,622.5,360.0,623.5,344.5,624.5,328.5,625.5,312.5,625.5,296.0,626.0,279.5,626.5,263.0,627.0,246.5,628.0,232.0,629.5,216.0,630.5,200.0,631.5,184.0,633.0,167.0,634.0,151.5,634.0,136.0,634.5,120.5,635.0,104.5,634.5,88.5,635.5,72.0,635.5,56.0,635.0,40.0,635.0,24.0,636.0,8.5,636.5" stroke="black" stroke-width="2" fill="none" />
<polyline points="2.0,636.0,10.0,637.0,17.0,634.0,25.0,629.5,31.0,635.5,33.5,640.0,41.5,634.5" stroke="black" stroke-width="2" fill="none" />
<polyline points="55.5,632.0,71.0,616.5,86.0,600.0" stroke="black" stroke-width="2" fill="none" />
<polyline points="80.5,606.0,88.5,606.0,96.0,606.0,104.0,606.5" stroke="black" stroke-width="2" fill="none" />
<polyline points="101.0,600.0,108.5,598.0,117.0,598.5,116.0,607.5,106.5,611.5,95.5,618.0,96.5,628.5,90.5,636.5,84.5,644.5,89.0,642.5,97.0,641.5,103.5,637.5,111.5,637.0,119.5,637.0,127.0,637.5,136.5,636.5,144.5,634.5,146.5,637.0,154.5,638.5,162.5,636.5,171.0,638.5,178.5,635.5,186.0,635.5,194.0,635.0,202.0,634.0,210.5,630.5,218.5,630.0,226.5,629.0,233.5,624.5,237.5,631.0,246.0,633.0,259.0,630.0,267.0,629.5,274.5,629.5,282.0,628.5,290.0,628.0,289.0,620.5,297.0,615.5,305.0,619.5,312.5,619.0,320.5,621.0,321.5,617.0,330.0,615.5,339.5,615.5,348.0,614.5,353.5,610.5,361.5,609.5,363.5,612.5,373.5,610.5,379.0,607.0,381.5,609.5,391.5,609.5,399.5,610.0,407.5,611.0,415.5,610.5,423.5,610.0,431.5,610.5,437.5,609.5,445.0,611.5,453.0,609.5,458.0,606.5,466.0,605.5,474.5,603.0,481.5,605.5,490.0,603.0,495.0,605.0,503.0,601.0,505.0,594.5,505.0,597.5" stroke="black" stroke-width="2" fill="none" />
<polyline points="503.5,634.5,495.5,634.5,487.5,634.5" stroke="black" stroke-width="2" fill="none" />
<polyline points="520.0,649.0,504.0,649.0,488.0,649.0,472.0,650.5,455.0,651.5,438.5,652.5,422.5,653.0,407.0,653.5,391.0,654.5,375.5,655.0,360.0,655.5,343.5,656.0,328.0,656.0,312.5,656.5,296.5,657.0,280.0,657.5,263.0,658.0,246.0,658.5,230.5,659.5,215.5,659.5,199.5,660.5,183.5,661.5,167.5,662.5,152.0,663.5,136.5,664.0,121.0,664.0,106.0,663.5,90.0,663.5,74.5,664.5,57.0,666.0,40.5,667.0,24.5,667.0,8.5,667.5" stroke="black" stroke-width="2" fill="none" />
<polyline points="2.5,669.0,10.5,669.0,18.5,669.0,26.0,668.5,34.0,669.5,42.0,669.5,50.0,669.0,57.5,669.0,65.5,669.0,74.0,669.0,82.0,668.5,90.0,668.5,98.0,668.5,106.0,668.5,114.5,668.0,122.5,667.5,130.5,667.5,138.5,666.0,146.5,667.0,154.0,666.0,162.0,665.0,170.0,665.0,178.0,665.0,186.0,664.5,194.0,665.0,202.0,665.0,210.5,664.0,218.5,663.5,226.5,663.5,235.0,662.5,243.0,662.5,251.0,661.5,259.0,661.0,267.0,661.5,275.0,660.5,283.0,659.5,291.0,659.5,299.0,658.0,306.5,659.0,314.5,658.5,322.5,658.5,330.0,657.5,338.0,657.5,338.0,654.5,349.5,657.0,357.5,656.0,365.5,655.0,367.0,654.5,375.0,654.5,383.5,653.5,391.5,650.5,399.5,649.5,411.5,652.5,419.5,650.5" stroke="black" stroke-width="2" fill="none" />
<polyline points="379.5,591.0,387.5,589.0,396.0,589.0,404.0,588.5,412.0,588.5,420.5,588.5,428.5,588.0,437.0,587.5,449.5,589.0,457.5,588.0,465.5,588.0,475.0,582.0,483.5,582.0,491.5,582.0,499.0,582.5,507.0,581.5" stroke="black" stroke-width="2" fill="none" />
<polyline points="404.5,534.0,388.5,549.0,372.5,564.5,357.5,580.0" stroke="black" stroke-width="2" fill="none" />
<polyline points="372.0,577.0,355.5,576.0,340.0,576.5" stroke="black" stroke-width="2" fill="none" />
<polyline points="333.5,594.5,341.5,594.5,348.0,595.5,350.0,593.5,360.0,593.5,368.5,593.0,376.5,593.0,384.0,592.5,391.5,593.0" stroke="black" stroke-width="2" fill="none" />
<polyline points="360.5,553.5,344.0,568.5,328.0,583.5,312.5,598.0" stroke="black" stroke-width="2" fill="none" />
<polyline points="309.5,592.5,326.0,591.5" stroke="black" stroke-width="2" fill="none" />
<polyline points="329.5,596.0,345.0,580.0,361.0,564.5,377.5,549.5,393.0,533.5" stroke="black" stroke-width="2" fill="none" />
<polyline points="362.5,537.5,346.0,552.5,330.5,567.0,314.5,581.0,297.5,595.5" stroke="black" stroke-width="2" fill="none" />
<polyline points="293.5,609.0,306.5,622.0" stroke="black" stroke-width="2" fill="none" />
<polyline points="325.5,619.5,333.5,620.5" stroke="black" stroke-width="2" fill="none" />
<polyline points="326.0,613.5,311.0,628.5,295.5,644.0" stroke="black" stroke-width="2" fill="none" />
<polyline points="294.5,641.5,311.5,641.5,328.5,642.0" stroke="black" stroke-width="2" fill="none" />
<polyline points="358.0,649.0,350.0,652.0,342.0,659.0,334.5,662.5,326.0,662.5,319.0,660.0,311.0,662.5,303.0,662.5,295.0,662.5,287.0,662.5" stroke="black" stroke-width="2" fill="none" />
<polyline points="279.5,646.5,287.5,645.5,295.5,645.5" stroke="black" stroke-width="2" fill="none" />
<polyline points="262.0,611.0,270.0,610.0,281.0,613.0,288.5,613.0,293.5,608.5,301.0,609.5,309.0,607.5,313.0,609.5,321.0,607.5,328.0,609.5" stroke="black" stroke-width="2" fill="none" />
<polyline points="319.0,583.0,327.5,583.0,335.0,582.5,343.5,583.0" stroke="black" stroke-width="2" fill="none" />
<polyline points="358.5,589.5,349.5,586.0,342.0,585.5,334.5,584.5,326.5,585.0,318.5,583.0" stroke="black" stroke-width="2" fill="none" />
<polyline points="309.5,550.0,294.0,565.5,278.0,582.0,262.0,598.0" stroke="black" stroke-width="2" fill="none" />
<polyline points="262.0,592.0,246.0,593.0,229.0,594.5,212.5,596.5,196.5,598.5,180.5,599.5,165.5,599.5" stroke="black" stroke-width="2" fill="none" />
<polyline points="165.0,613.0,181.5,612.5" stroke="black" stroke-width="2" fill="none" />
<polyline points="186.0,619.5,185.0,628.0,194.0,639.0" stroke="black" stroke-width="2" fill="none" />
<polyline points="202.0,626.5,194.0,626.0,186.5,620.0" stroke="black" stroke-width="2" fill="none" />
<polyline points="150.5,626.0,166.5,610.0,182.5,595.0,198.5,580.5,213.5,565.0,228.5,549.5,244.5,535.0,260.5,521.0,276.5,506.0" stroke="black" stroke-width="2" fill="none" />
<polyline points="279.0,516.0,264.0,517.0,249.0,517.5" stroke="black" stroke-width="2" fill="none" />
<polyline points="216.5,500.5,232.5,499.5,249.0,498.5,264.5,497.5,280.0,496.5" stroke="black" stroke-width="2" fill="none" />
<polyline points="243.0,468.0,259.0,453.5,275.0,438.5,290.5,423.5" stroke="black" stroke-width="2" fill="none" />
<polyline points="293.5,407.0,278.0,423.5,263.0,440.5,248.0,456.5,231.5,471.0,215.5,486.5" stroke="black" stroke-width="2" fill="none" />
<polyline points="215.5,488.5,230.5,489.0,246.0,489.5,262.0,490.0,278.0,489.0" stroke="black" stroke-width="2" fill="none" />
<polyline points="280.5,464.5,265.5,465.0,249.5,465.0,233.0,465.0,216.0,465.0,199.0,465.5,183.0,466.0,166.0,465.0,150.0,464.0,135.0,463.0" stroke="black" stroke-width="2" fill="none" />
<polyline points="137.0,459.0,152.5,458.0,168.0,458.0,184.0,458.0,200.5,457.5,216.0,456.5,232.0,456.0,246.0,456.0,261.0,455.5,277.0,455.5,292.5,455.5" stroke="black" stroke-width="2" fill="none" />
<polyline points="294.0,395.0,278.0,410.5,261.5,427.0,245.0,442.5,229.0,457.5,213.0,473.5" stroke="black" stroke-width="2" fill="none" />
<polyline points="214.5,471.5,231.0,471.0" stroke="black" stroke-width="2" fill="none" />
<polyline points="234.0,477.0,242.0,478.0,234.0,483.0" stroke="black" stroke-width="2" fill="none" />
<polyline points="232.5,481.0,216.5,481.0" stroke="black" stroke-width="2" fill="none" />
<polyline points="220.5,477.0,213.5,479.0,217.5,480.5,214.5,485.0,222.0,485.0,230.0,477.5,231.0,485.0" stroke="black" stroke-width="2" fill="none" />
<polyline points="227.0,480.5,223.0,481.0,220.0,476.0,212.0,476.0" stroke="black" stroke-width="2" fill="none" />
<polyline points="208.5,469.5,216.5,473.5,224.0,473.5,231.5,472.0,239.5,470.5,247.0,469.0,254.5,468.0,262.5,467.0,270.5,465.0,270.0,471.0,270.5,479.0" stroke="black" stroke-width="2" fill="none" />
<polyline points="296.0,447.0,281.0,447.0,264.5,446.0,248.5,445.5,233.0,446.0,218.0,446.5" stroke="black" stroke-width="2" fill="none" />
<polyline points="210.0,444.5,218.0,447.5,222.5,448.0,224.5,443.0,230.0,448.5" stroke="black" stroke-width="2" fill="none" />
<polyline points="227.5,439.0,219.5,437.0" stroke="black" stroke-width="2" fill="none" />
<polyline points="205.5,438.0,212.5,444.5,231.5,453.0,244.0,456.0,251.5,453.0" stroke="black" stroke-width="2" fill="none" />
<polyline points="224.5,463.5,216.5,463.0,208.5,466.0" stroke="black" stroke-width="2" fill="none" />
<polyline points="205.5,468.0,204.0,476.0,203.5,483.5,204.0,491.0,204.0,499.0,206.0,510.0,209.5,509.5,215.5,513.0,225.0,512.0,233.0,509.0,240.5,506.0" stroke="black" stroke-width="2" fill="none" />
<polyline points="237.0,504.0,253.0,496.0,256.5,492.5,248.5,500.0,240.5,502.5,232.5,506.5,225.0,508.5,217.0,509.0,208.5,508.5" stroke="black" stroke-width="2" fill="none" />
<polyline points="200.0,507.5,184.0,508.5,168.0,510.0,151.0,511.0" stroke="black" stroke-width="2" fill="none" />
<polyline points="153.0,503.5,161.0,505.0" stroke="black" stroke-width="2" fill="none" />
<polyline points="151.5,498.5,151.5,498.5,157.5,506.5,170.0,519.5,173.0,521.0,180.5,526.0,183.5,526.5,184.5,525.5" stroke="black" stroke-width="2" fill="none" />
<polyline points="181.0,514.5,189.0,516.5,196.5,518.0,204.5,521.0,212.5,518.5,220.5,515.5,228.0,513.5,236.0,511.5,244.5,506.5,252.5,500.5,248.5,503.5,234.5,511.5,241.0,520.0,240.0,519.0,247.0,518.0" stroke="black" stroke-width="2" fill="none" />
<polyline points="169.0,480.0,153.5,481.0,138.5,481.5" stroke="black" stroke-width="2" fill="none" />
<polyline points="133.5,484.5,150.0,469.0,166.5,454.0,183.0,439.0" stroke="black" stroke-width="2" fill="none" />
<polyline points="178.0,435.5,186.0,432.5,176.5,434.0,163.5,442.0,146.5,447.0,153.5,448.5,155.5,452.0,155.0,456.0,164.5,454.0,165.5,451.5,171.5,444.5,179.5,445.5,187.5,441.5,195.5,438.5,190.5,437.0,198.5,439.0,207.0,435.5,215.0,435.0,223.5,437.0,231.0,438.5,239.0,444.0,247.0,447.0,250.0,450.0,246.5,449.0,254.5,445.0,254.5,451.0,254.0,454.5,249.0,454.5" stroke="black" stroke-width="2" fill="none" />
<polyline points="292.0,431.5,275.5,432.0,260.5,433.5,245.5,435.5,229.5,437.0,214.0,437.5,198.5,438.5" stroke="black" stroke-width="2" fill="none" />
<polyline points="199.5,439.0,183.5,440.5,167.5,441.5,150.5,442.5,134.5,442.0" stroke="black" stroke-width="2" fill="none" />
<polyline points="148.5,452.0,150.0,449.0,151.5,443.0,159.5,444.5,167.5,440.0,175.5,435.0,183.5,432.5,192.0,430.5,200.0,432.5,189.0,432.0,176.0,439.0,173.0,446.0,169.0,453.0,165.5,455.0,168.5,452.5,177.0,447.5,185.0,442.5,185.0,437.5,186.0,436.5,177.0,444.5" stroke="black" stroke-width="2" fill="none" />
<polyline points="190.0,449.5,198.0,442.5,205.0,443.5,194.5,446.5,189.5,446.5,191.5,447.5,199.5,457.0,200.5,447.0,208.0,447.0,216.0,455.0,207.5,457.5,198.0,465.0,189.5,479.5,187.5,487.5,190.5,479.5,190.5,487.5,200.0,495.0,194.0,503.0,193.0,504.0" stroke="black" stroke-width="2" fill="none" />
<polyline points="168.0,474.5,153.0,474.5,137.0,475.0" stroke="black" stroke-width="2" fill="none" />
<polyline points="138.5,469.0,141.5,476.5,141.5,484.5,145.0,489.0,153.0,489.0,161.0,489.5,168.5,489.5,176.5,490.5,184.0,491.5,192.0,492.0,200.0,492.5,209.0,491.5,217.5,490.0,225.5,490.0,233.5,489.0,241.0,488.0,249.0,487.0,256.5,486.0,262.5,479.0,264.5,485.0" stroke="black" stroke-width="2" fill="none" />
<polyline points="294.5,425.0,278.5,426.5,263.0,427.5,247.0,428.0,231.5,428.0,215.5,428.5,200.0,429.5" stroke="black" stroke-width="2" fill="none" />
<polyline points="199.0,421.5,215.0,405.0,231.0,388.5,247.0,372.5,263.0,357.0,279.5,342.0" stroke="black" stroke-width="2" fill="none" />
<polyline points="265.5,340.5,248.5,356.5,233.0,372.5,217.5,388.5,202.0,404.5,187.0,419.5,171.0,436.5,155.5,453.0,139.0,469.0" stroke="black" stroke-width="2" fill="none" />
<polyline points="136.0,468.0,144.0,468.5,152.0,470.5,160.0,471.5,168.0,471.5,176.5,472.5,184.5,473.0,193.0,471.0" stroke="black" stroke-width="2" fill="none" />
<polyline points="197.0,459.5,189.5,459.5,181.5,460.0" stroke="black" stroke-width="2" fill="none" />
<polyline points="179.0,458.5,187.5,457.5,195.5,458.0" stroke="black" stroke-width="2" fill="none" />
<polyline points="202.0,456.0,197.0,452.0,197.0,456.0,207.5,449.5,201.5,441.5" stroke="black" stroke-width="2" fill="none" />
<polyline points="202.0,439.0,210.0,442.0,218.0,442.0,219.0,440.0,223.0,443.0,229.0,449.5,237.0,447.0,239.0,451.5,234.5,450.5,238.5,445.5,241.5,458.0" stroke="black" stroke-width="2" fill="none" />
<polyline points="296.5,412.0,280.0,412.5,263.5,412.5,247.0,413.0,230.0,413.0,213.5,413.5,198.0,414.5,183.0,414.5,167.5,414.0,152.5,414.0,136.0,414.0" stroke="black" stroke-width="2" fill="none" />
<polyline points="135.0,408.0,151.5,408.0,166.5,408.5,182.5,408.0,198.5,407.5,214.0,406.5,231.0,405.0,247.5,404.0,263.5,403.0,278.5,403.0,294.5,402.5" stroke="black" stroke-width="2" fill="none" />
<polyline points="295.5,390.0,280.5,390.5,264.5,391.0,248.0,392.0,231.0,393.5,214.0,394.5,198.0,395.0,182.0,396.0,166.0,396.0,150.0,396.0,133.5,397.0" stroke="black" stroke-width="2" fill="none" />
<polyline points="133.0,393.5,141.5,394.5,149.5,395.5,157.5,396.0,165.5,397.0,173.0,398.5,181.0,398.5" stroke="black" stroke-width="2" fill="none" />
<polyline points="176.0,383.0,168.0,383.5,160.0,383.5,152.5,384.0,144.5,384.0" stroke="black" stroke-width="2" fill="none" />
<polyline points="143.5,385.5,151.5,386.0,159.5,387.0,167.5,386.5,175.5,386.0" stroke="black" stroke-width="2" fill="none" />
<polyline points="180.5,357.0,172.5,357.5,164.5,357.0,156.5,357.0,156.0,353.5,148.0,355.5" stroke="black" stroke-width="2" fill="none" />
<polyline points="151.0,349.5,167.0,348.0,184.0,346.5,200.0,345.5,216.0,345.0,231.0,344.5,246.5,343.0,262.0,343.0,277.5,343.0,293.5,343.0" stroke="black" stroke-width="2" fill="none" />
<polyline points="294.5,369.5,278.5,370.5,263.0,370.5,247.5,371.5,232.0,372.5,217.0,373.5,201.0,374.0,184.5,375.0,168.0,375.0,151.0,374.0,135.0,374.0" stroke="black" stroke-width="2" fill="none" />
<polyline points="138.0,365.5,153.0,365.0,168.5,365.0,183.5,364.5,199.0,364.5,215.0,364.0,231.0,363.0,247.5,362.0,264.5,361.0,280.5,361.0,296.0,360.5" stroke="black" stroke-width="2" fill="none" />
<polyline points="293.5,375.5,277.0,376.0,261.5,376.0,246.5,376.0,231.5,376.5,217.0,377.0,202.5,377.0,187.0,377.0,170.5,377.0,154.0,377.5,138.0,378.0,122.0,378.0" stroke="black" stroke-width="2" fill="none" />
<polyline points="122.5,386.0,138.0,385.5" stroke="black" stroke-width="2" fill="none" />
<polyline points="141.5,383.5,149.5,380.5,159.5,379.5,167.5,379.5,176.0,379.5" stroke="black" stroke-width="2" fill="none" />
<polyline points="168.0,342.0,152.5,358.0,136.5,375.0,120.0,390.5" stroke="black" stroke-width="2" fill="none" />
<polyline points="115.0,391.0,123.0,396.0" stroke="black" stroke-width="2" fill="none" />
<polyline points="131.5,391.5,139.5,392.5,147.5,392.0,155.5,392.0,163.5,393.0,171.5,394.0,179.5,394.0,187.5,395.5" stroke="black" stroke-width="2" fill="none" />
<polyline points="125.5,354.5,133.5,350.5,141.5,350.5,149.5,349.5,157.0,348.5,165.0,347.5,173.5,347.5,181.5,347.5,190.0,347.5,198.5,347.0,206.5,347.0,214.5,346.5,222.5,347.0,230.0,347.0,237.5,347.0,245.0,348.5,253.0,348.5,260.5,348.5,268.0,349.5,276.0,349.0,283.5,352.0" stroke="black" stroke-width="2" fill="none" />
<polyline points="266.0,353.5,274.0,353.5,289.0,356.5,289.5,364.5,291.5,372.5,296.0,380.5,297.0,388.5,288.0,396.0,286.5,404.0,286.5,412.0,285.5,420.0,284.5,428.0,283.5,436.5,282.5,445.0,283.0,453.0,282.0,461.5,281.0,469.5,280.5,477.5,281.0,485.5,279.5,493.5,278.5,501.5,277.5,509.5,277.5,517.5,276.5,525.0,275.5,533.0,275.0,541.0,274.0,549.0,278.5,552.5,286.5,552.5,294.0,553.0" stroke="black" stroke-width="2" fill="none" />
<polyline points="392.5,555.5,376.0,556.0,358.5,556.5,341.5,557.5,325.0,558.5,309.5,559.0,292.5,559.5,277.5,560.5,262.0,560.0,247.5,559.0,233.0,558.5,217.0,558.5,200.5,559.5,184.5,560.0,167.5,559.5,152.0,560.0" stroke="black" stroke-width="2" fill="none" />
<polyline points="143.5,576.0,136.0,574.5,128.0,575.5" stroke="black" stroke-width="2" fill="none" />
<polyline points="108.0,550.5,91.5,565.5" stroke="black" stroke-width="2" fill="none" />
<polyline points="97.0,564.0,89.0,564.0,80.5,562.0" stroke="black" stroke-width="2" fill="none" />
<polyline points="78.0,569.0,86.0,572.0,94.0,570.5,102.0,572.0,111.0,575.0" stroke="black" stroke-width="2" fill="none" />
<polyline points="102.5,586.0,88.0,586.5,73.0,586.5" stroke="black" stroke-width="2" fill="none" />
<polyline points="74.0,588.0,82.0,589.5" stroke="black" stroke-width="2" fill="none" />
<polyline points="72.5,596.5,55.5,612.0" stroke="black" stroke-width="2" fill="none" />
<polyline points="54.0,615.0,62.0,613.0,71.0,612.0" stroke="black" stroke-width="2" fill="none" />
<polyline points="67.0,620.5,61.0,629.5,62.5,628.5,64.5,621.5,72.5,622.5,83.5,627.5,89.5,631.0,100.5,632.5,108.5,634.5,114.5,633.0,117.0,629.0,118.5,635.0,126.0,634.5,134.0,633.5,134.5,625.5,142.5,628.0,150.5,627.5,149.5,616.5,157.5,618.5,165.0,617.5,173.0,613.5,174.5,613.5,182.5,615.0,190.5,615.0" stroke="black" stroke-width="2" fill="none" />
<polyline points="199.5,653.0,192.5,652.0,184.5,652.0,176.0,653.0,167.5,653.0,159.5,653.5,151.5,653.5" stroke="black" stroke-width="2" fill="none" />
<polyline points="140.0,648.5,123.0,664.5" stroke="black" stroke-width="2" fill="none" />
<polyline points="106.5,647.5,90.0,663.5" stroke="black" stroke-width="2" fill="none" />
<polyline points="97.5,649.5,105.5,649.5" stroke="black" stroke-width="2" fill="none" />
<polyline points="96.5,623.5,109.5,624.5,108.0,632.5,111.0,628.0,119.5,624.5,127.5,620.0" stroke="black" stroke-width="2" fill="none" />
<polyline points="124.0,628.0,132.0,628.0" stroke="black" stroke-width="2" fill="none" />
<polyline points="144.5,631.5,152.5,632.0,160.5,632.5,168.5,631.0,176.5,631.0,184.5,631.5,192.5,631.5,200.5,630.0,208.5,627.0,216.5,626.0,224.5,626.5,230.5,632.5,238.5,630.5,247.0,628.0,255.0,628.0,260.0,624.0,261.0,618.0,269.0,618.5,278.5,618.5,286.5,621.5" stroke="black" stroke-width="2" fill="none" />
<polyline points="274.0,665.5,266.0,665.0,258.0,665.5,250.0,668.5,245.0,667.0,237.0,668.0,229.0,668.0,221.0,669.5,213.5,670.0,202.0,667.0,194.0,667.5,185.5,667.5,176.0,668.0,168.5,668.0,160.5,668.0,153.5,672.0,147.5,669.0,140.5,670.5,132.0,669.5,123.5,671.0,116.0,670.0,108.0,671.5,100.0,671.5,92.5,672.0,84.5,672.0,76.5,672.0,68.0,672.0,60.0,671.5,52.0,671.5,42.0,672.0,34.0,670.5,26.0,670.5,18.5,671.5,11.0,671.5,3.0,671.5" stroke="black" stroke-width="2" fill="none" />
<polyline points="2.0,658.0,9.5,657.0,17.5,657.5,26.0,658.0,34.0,658.0,47.5,657.0,55.5,657.5,64.0,657.5,72.0,658.5,79.5,660.5,93.5,661.5,101.5,661.0,109.5,661.0,117.5,656.5,125.5,659.0" stroke="black" stroke-width="2" fill="none" />
<polyline points="116.0,621.5,108.5,622.0" stroke="black" stroke-width="2" fill="none" />
<polyline points="121.5,607.5,129.5,617.5,124.0,622.0,133.0,626.5,135.5,630.5" stroke="black" stroke-width="2" fill="none" />
<polyline points="148.5,612.0,156.5,615.0,164.5,613.0" stroke="black" stroke-width="2" fill="none" />
<polyline points="151.0,607.5,142.5,606.5,134.5,605.0,127.0,605.5,119.5,604.0,111.5,610.5,103.5,612.0,95.5,618.0,85.0,621.5,90.0,619.5,89.0,615.5,81.0,616.0,73.5,618.0,65.5,618.5,57.5,618.5,49.5,619.5,42.0,621.0,34.0,620.0,26.0,621.0,18.5,619.5" stroke="black" stroke-width="2" fill="none" />
<polyline points="11.0,626.5,19.0,626.5,27.5,624.0,35.5,630.0,39.5,638.0,45.0,641.0,54.0,640.0,61.5,640.0,69.5,638.0,77.5,639.0,81.5,637.5,89.5,637.0" stroke="black" stroke-width="2" fill="none" />
<polyline points="80.0,635.0,72.0,635.0" stroke="black" stroke-width="2" fill="none" />
<polyline points="71.0,630.5,87.5,614.5" stroke="black" stroke-width="2" fill="none" />
<polyline points="59.5,604.5,67.5,604.5,72.0,597.5,80.0,598.5,88.5,597.0,96.5,597.0,105.5,593.5,113.5,593.5,121.0,596.0,126.5,591.0,134.5,590.5,142.5,590.5,150.5,592.5,159.0,596.5,167.0,598.0,175.5,601.0,183.5,601.5,191.5,600.5,199.5,602.5,207.0,602.5,215.0,602.5,223.0,601.5,231.0,601.5,238.5,601.5,246.5,597.5,254.0,596.5,262.0,595.5,264.0,599.0,271.5,600.0,279.5,601.0,287.5,602.0,295.5,602.0,303.5,599.5,311.5,600.0,320.0,600.0,328.0,600.5,332.0,607.5,340.5,612.5,349.0,610.5,353.5,608.5,361.5,606.5,369.5,607.5,371.5,603.5,378.5,603.0,387.5,600.0,395.0,600.0,403.0,600.0,410.5,599.5,418.5,599.5,423.0,597.0,431.0,597.0,440.5,596.5,448.5,596.5,455.0,602.0,463.0,601.0,475.5,601.0,483.5,601.0,491.5,601.0" stroke="black" stroke-width="2" fill="none" />
<polyline points="519.5,525.5,503.5,525.0,487.5,525.5,472.0,526.0,456.5,526.5,440.0,527.0,423.0,527.5,406.0,527.5,389.5,528.0,374.0,528.0,358.0,528.0,341.5,529.0,325.5,530.0,309.5,530.5,295.0,530.5,280.0,531.0,263.5,532.0,248.5,532.5,231.5,532.0,215.5,531.5,199.0,531.0,183.0,530.5,167.0,530.0,151.0,531.5,134.5,532.5,118.5,533.5,103.0,535.0,87.5,536.0,71.0,536.5,54.5,537.5,39.0,538.5,24.0,539.5,9.0,540.5" stroke="black" stroke-width="2" fill="none" />
<polyline points="4.0,550.0,20.5,534.5" stroke="black" stroke-width="2" fill="none" />
<polyline points="40.0,521.5,57.0,521.0" stroke="black" stroke-width="2" fill="none" />
<polyline points="53.5,504.5,69.0,504.0" stroke="black" stroke-width="2" fill="none" />
<polyline points="66.0,473.5,82.5,472.5,99.5,471.5" stroke="black" stroke-width="2" fill="none" />
<polyline points="135.0,495.0,151.0,495.5" stroke="black" stroke-width="2" fill="none" />
<polyline points="150.5,493.5,158.0,500.0,166.5,505.0,174.0,507.0,182.0,509.0,190.0,509.5" stroke="black" stroke-width="2" fill="none" />
<polyline points="208.5,505.0,200.5,506.0,194.0,514.0,192.0,512.5,184.0,511.5,177.0,513.5,171.0,511.5,171.0,509.0,162.5,501.5,152.0,493.5" stroke="black" stroke-width="2" fill="none" />
<polyline points="154.0,485.0,137.0,486.0,119.5,486.5,102.5,487.0,86.0,487.5,69.5,488.0,53.0,488.0,36.5,488.0,20.0,489.0,4.0,490.0" stroke="black" stroke-width="2" fill="none" />
<polyline points="39.5,470.5,56.5,470.0" stroke="black" stroke-width="2" fill="none" />
<polyline points="144.5,482.5,149.5,477.0,147.5,479.0,143.5,479.0,146.5,474.5,154.5,480.5,157.0,476.5,161.5,485.5,168.5,477.5,176.5,477.5,184.0,477.5,197.0,474.5,206.0,466.0,214.5,460.0,223.0,459.0,231.0,454.0,238.5,458.5,249.5,442.5" stroke="black" stroke-width="2" fill="none" />
<polyline points="287.5,391.5,295.5,390.5" stroke="black" stroke-width="2" fill="none" />
<polyline points="159.5,475.5,160.5,483.5,162.5,483.5" stroke="black" stroke-width="2" fill="none" />
<polyline points="115.5,570.0,108.0,569.5,100.5,568.5,92.5,567.5,84.5,567.5,76.5,568.5,68.0,569.0,60.5,571.0" stroke="black" stroke-width="2" fill="none" />
<polyline points="44.5,590.0,36.5,590.0,28.0,590.5" stroke="black" stroke-width="2" fill="none" />
<polyline points="16.5,597.0,8.5,597.0" stroke="black" stroke-width="2" fill="none" />
<polyline points="2.5,600.5,10.5,601.0,18.0,601.5,26.0,601.5,33.5,597.5,43.5,601.5,51.5,601.5,59.5,602.5,68.0,602.5,76.0,603.5,84.0,603.5,92.0,603.5,99.5,602.0,107.5,604.0,115.5,610.0,124.0,608.0" stroke="black" stroke-width="2" fill="none" />
<polyline points="53.0,588.0,50.0,586.0,42.0,586.5,34.0,585.5,26.0,585.5,18.0,585.5,10.0,585.0,2.0,584.0" stroke="black" stroke-width="2" fill="none" />
<polyline points="2.5,586.5,10.5,586.5,18.0,588.0" stroke="black" stroke-width="2" fill="none" />
<polyline points="0.5,576.0,8.5,577.0,17.5,576.5,25.5,577.5,33.5,578.5,42.0,578.5,50.0,578.0,58.5,578.5,66.5,578.5,75.0,579.5,89.0,578.5,96.5,576.5,109.5,571.5,117.5,573.0,125.5,574.5,133.5,572.5,141.5,572.5" stroke="black" stroke-width="2" fill="none" />
<polyline points="138.0,583.0,130.0,583.0,122.5,582.5,114.5,581.5,106.5,581.5,98.5,581.5,92.5,582.0,84.5,583.0,82.0,578.0,74.5,578.0,66.5,578.0,58.5,577.0,50.0,577.5,41.5,576.5,33.5,576.5,25.5,575.5,17.5,575.5,9.5,574.5,1.5,574.5" stroke="black" stroke-width="2" fill="none" />
<polyline points="2.0,568.0,10.0,568.0,18.5,568.5" stroke="black" stroke-width="2" fill="none" />
<polyline points="31.0,613.0,38.5,612.5,43.5,610.0" stroke="black" stroke-width="2" fill="none" />
<polyline points="26.5,639.0,18.5,641.0,10.5,642.5,2.5,643.0" stroke="black" stroke-width="2" fill="none" />
<polyline points="159.5,683.0,167.5,682.5" stroke="black" stroke-width="2" fill="none" />
<polyline points="174.0,671.0,171.5,679.0,174.5,679.0,176.0,679.0,181.0,683.0,189.0,683.0,197.0,683.0,202.0,683.0,210.5,681.5,218.5,682.0,226.5,682.0,234.0,681.5,242.0,680.5,250.0,679.5,258.0,679.5,266.0,679.5,274.0,678.5,282.0,677.0,290.0,676.5,298.0,675.5,306.0,674.5,310.0,674.5,317.5,673.0,325.5,672.0,333.5,672.5,341.5,671.5,349.0,670.5,357.0,669.5,365.5,669.5,373.5,668.5,381.5,667.5,389.5,667.5,397.0,668.0,405.0,665.0,413.0,667.0,421.0,666.5,429.5,666.5,437.5,666.5,446.0,666.5,454.0,668.0,462.0,668.0,470.0,668.0,478.0,668.0,486.0,668.5,493.5,669.5,501.5,669.5,509.5,670.5" stroke="black" stroke-width="2" fill="none" />
<polyline points="241.0,673.5,233.0,674.5" stroke="black" stroke-width="2" fill="none" />
<polyline points="217.0,653.5,209.0,656.0,216.5,654.5,226.5,646.5" stroke="black" stroke-width="2" fill="none" />
</svg>