<svg xmlns="http://www.w3.org/2000/svg" version="1.1"><polyline points="320.0,139.0,317.0,147.0,305.0,155.5,288.5,161.5,280.5,171.0,278.0,179.0,274.5,184.0,268.5,192.0,268.5,200.0,267.5,208.0,264.5,216.0,263.5,224.0,259.5,232.0,262.5,239.5,269.0,239.5,277.0,244.5,281.5,253.5,285.0,262.5,294.5,262.5,298.0,265.5,300.0,269.0,308.0,271.5,316.0,275.5,324.0,278.5,332.0,280.0,340.5,281.0,350.0,281.0,357.5,282.5,366.0,281.0,374.0,277.5,382.0,273.0,390.0,266.0,397.0,256.5,405.0,242.0,411.0,232.0" stroke="black" stroke-width="2" fill="none" />
<polyline points="412.5,233.5,408.5,241.5,408.5,249.5,399.5,257.5,399.0,262.5,390.5,270.5,393.0,265.0,401.0,255.5,408.0,250.0,417.0,254.0,419.5,237.0,426.0,233.0,435.0,227.0,439.5,227.5,448.0,229.5,451.0,233.0,454.5,225.0,462.5,226.5,471.5,233.5,469.5,234.0,474.5,237.0,478.5,227.0,483.5,233.5,489.5,228.5" stroke="black" stroke-width="2" fill="none" />
<polyline points="489.5,224.5,504.5,224.0" stroke="black" stroke-width="2" fill="none" />
<polyline points="500.0,215.5,484.5,231.0,469.0,246.5,453.5,262.0,437.0,277.5" stroke="black" stroke-width="2" fill="none" />
<polyline points="437.5,274.5,454.0,274.0" stroke="black" stroke-width="2" fill="none" />
<polyline points="452.0,270.0,460.0,269.0,461.0,271.0,466.5,273.0" stroke="black" stroke-width="2" fill="none" />
<polyline points="472.0,273.0,487.5,271.5,502.5,270.5,518.5,269.0" stroke="black" stroke-width="2" fill="none" />
<polyline points="518.0,263.0,502.5,279.0,486.5,294.5,470.5,309.0,454.5,323.5,437.5,338.0" stroke="black" stroke-width="2" fill="none" />
<polyline points="439.5,337.5,456.0,337.0,471.5,337.0,487.5,337.0,503.5,337.5,520.0,337.0" stroke="black" stroke-width="2" fill="none" />
<polyline points="520.5,329.5,504.5,344.5" stroke="black" stroke-width="2" fill="none" />
<polyline points="485.5,341.0,502.0,325.5,519.0,310.0" stroke="black" stroke-width="2" fill="none" />
<polyline points="517.0,294.5,500.5,310.0,485.0,326.0,469.5,341.5" stroke="black" stroke-width="2" fill="none" />
<polyline points="454.0,340.5,471.0,324.5,487.5,308.5,503.5,293.0,519.5,278.0" stroke="black" stroke-width="2" fill="none" />
<polyline points="499.5,263.0,484.0,279.0,468.0,294.5,451.5,310.0,435.0,325.5,419.5,340.0" stroke="black" stroke-width="2" fill="none" />
<polyline points="419.0,335.5,435.0,335.5,452.0,334.5,469.5,333.5,487.0,331.5,504.5,329.5,520.5,328.0" stroke="black" stroke-width="2" fill="none" />
<polyline points="489.0,293.0,473.5,293.5" stroke="black" stroke-width="2" fill="none" />
<polyline points="474.0,281.5,489.5,280.5" stroke="black" stroke-width="2" fill="none" />
<polyline points="485.5,267.0,469.5,283.0,453.0,298.5,437.0,314.0" stroke="black" stroke-width="2" fill="none" />
<polyline points="433.5,304.0,450.5,304.0,468.0,304.0,484.5,304.5" stroke="black" stroke-width="2" fill="none" />
<polyline points="467.0,292.0,458.0,289.5,459.5,281.5,459.0,273.5,460.0,265.5,455.5,258.5,455.5,244.5,447.5,244.5" stroke="black" stroke-width="2" fill="none" />
<polyline points="444.5,243.0,446.5,240.0,455.0,243.0,451.0,250.5,450.0,257.5,451.5,262.0,453.0,266.0,461.5,274.0,464.5,293.0,463.5,286.5,471.5,282.5,473.0,273.5,476.0,267.5,477.0,271.5,482.0,275.0,482.0,283.0" stroke="black" stroke-width="2" fill="none" />
<polyline points="475.5,273.5,469.5,281.5" stroke="black" stroke-width="2" fill="none" />
<polyline points="455.0,278.5,438.5,294.5" stroke="black" stroke-width="2" fill="none" />
<polyline points="434.5,287.5,451.0,287.0" stroke="black" stroke-width="2" fill="none" />
<polyline points="427.0,292.5,410.5,308.5,393.5,324.0,376.5,339.5" stroke="black" stroke-width="2" fill="none" />
<polyline points="363.5,337.5,379.5,321.0,394.0,304.5,409.0,289.0,425.0,273.0,441.5,257.5,457.0,242.5,472.5,227.0,489.0,212.5" stroke="black" stroke-width="2" fill="none" />
<polyline points="486.0,214.5,494.0,214.5" stroke="black" stroke-width="2" fill="none" />
<polyline points="485.5,222.5,477.5,222.0" stroke="black" stroke-width="2" fill="none" />
<polyline points="476.5,221.0,484.5,218.0,491.5,220.0" stroke="black" stroke-width="2" fill="none" />
<polyline points="486.5,245.5,470.5,261.0" stroke="black" stroke-width="2" fill="none" />
<polyline points="479.0,263.5,479.0,261.5,478.0,257.5,468.5,246.5,465.5,241.0,462.0,236.5,465.5,227.0,456.0,223.0,455.0,215.0,449.0,212.0" stroke="black" stroke-width="2" fill="none" />
<polyline points="455.5,212.0,470.5,211.5" stroke="black" stroke-width="2" fill="none" />
<polyline points="472.5,210.0,464.5,206.5" stroke="black" stroke-width="2" fill="none" />
<polyline points="457.0,210.0,457.0,216.0,459.0,224.0,460.0,228.0,465.5,224.5,470.5,223.5,473.0,230.0,481.0,229.0,480.5,225.0,488.5,224.5" stroke="black" stroke-width="2" fill="none" />
<polyline points="487.5,243.5,471.0,244.0,455.0,244.5,439.0,245.5,422.5,246.0" stroke="black" stroke-width="2" fill="none" />
<polyline points="422.0,258.5,420.0,266.5,419.5,275.5,429.5,270.0,434.5,266.0,440.0,262.0,447.0,262.5,453.5,262.5" stroke="black" stroke-width="2" fill="none" />
<polyline points="457.5,264.5,441.0,267.0,424.0,268.5,407.5,269.0,391.0,269.0" stroke="black" stroke-width="2" fill="none" />
<polyline points="392.5,269.5,401.0,266.0,409.0,267.0" stroke="black" stroke-width="2" fill="none" />
<polyline points="409.0,258.0,424.5,258.5,440.0,259.0,456.0,259.0,472.0,258.0,488.5,257.5" stroke="black" stroke-width="2" fill="none" />
<polyline points="489.0,237.0,481.0,237.5,473.0,240.5,477.5,235.0,477.5,226.0,477.0,222.0,469.0,213.5,460.0,215.0" stroke="black" stroke-width="2" fill="none" />
<polyline points="456.0,198.5,440.5,214.5" stroke="black" stroke-width="2" fill="none" />
<polyline points="437.5,218.0,453.0,217.5,469.5,217.0,485.5,216.5,501.5,217.0,518.0,216.5" stroke="black" stroke-width="2" fill="none" />
<polyline points="472.0,198.0,456.0,213.0,439.0,228.0,422.0,243.5,405.5,259.5,389.0,276.0,373.0,292.0,356.5,308.0,340.5,324.0,324.5,340.0" stroke="black" stroke-width="2" fill="none" />
<polyline points="325.5,326.0,310.0,341.5" stroke="black" stroke-width="2" fill="none" />
<polyline points="296.5,342.0,311.0,327.0,327.0,311.0" stroke="black" stroke-width="2" fill="none" />
<polyline points="328.5,311.0,336.5,323.0" stroke="black" stroke-width="2" fill="none" />
<polyline points="334.0,312.0,337.0,320.5,339.0,328.5,339.5,336.0" stroke="black" stroke-width="2" fill="none" />
<polyline points="339.5,340.0,357.5,326.5,373.5,310.5,390.5,295.0,406.0,278.5,421.5,262.0,437.5,246.0,453.0,231.0" stroke="black" stroke-width="2" fill="none" />
<polyline points="458.0,225.0,442.5,225.5" stroke="black" stroke-width="2" fill="none" />
<polyline points="441.0,237.0,440.0,243.0,436.5,248.0,430.5,256.0,435.5,261.0,443.5,258.0,451.0,254.5,459.0,246.0,463.5,247.5,463.5,242.5,466.5,238.5,476.5,246.5,482.0,248.5" stroke="black" stroke-width="2" fill="none" />
<polyline points="467.0,237.0,458.5,238.0" stroke="black" stroke-width="2" fill="none" />
<polyline points="462.5,232.5,455.0,234.0,451.0,235.0,446.0,228.0,441.0,222.0,436.0,222.0,428.5,222.0" stroke="black" stroke-width="2" fill="none" />
<polyline points="412.0,228.0,395.5,243.5,380.0,259.0,363.5,275.0,347.0,291.5" stroke="black" stroke-width="2" fill="none" />
<polyline points="346.0,299.5,362.0,299.5,377.5,299.0,393.0,298.0,409.0,297.5,425.0,296.5,440.5,295.5,456.5,294.5,473.0,293.5,489.5,292.5,505.5,291.5,520.5,291.0" stroke="black" stroke-width="2" fill="none" />
<polyline points="519.5,320.0,503.0,321.0,486.0,322.0,468.5,323.5,452.5,324.5,436.5,325.0" stroke="black" stroke-width="2" fill="none" />
<polyline points="418.5,316.0,418.5,309.0,410.5,312.0" stroke="black" stroke-width="2" fill="none" />
<polyline points="415.0,309.5,411.5,317.5,410.5,325.5,413.0,334.0,415.0,342.0" stroke="black" stroke-width="2" fill="none" />
<polyline points="408.0,324.0,393.0,340.0" stroke="black" stroke-width="2" fill="none" />
<polyline points="392.0,339.0,408.0,338.5" stroke="black" stroke-width="2" fill="none" />
<polyline points="408.0,321.0,392.5,322.0,377.0,322.5" stroke="black" stroke-width="2" fill="none" />
<polyline points="397.5,319.5,405.0,314.5,398.5,320.5,401.5,328.5,406.0,336.5" stroke="black" stroke-width="2" fill="none" />
<polyline points="404.0,325.5,389.5,327.0,374.5,328.0,359.5,329.0,345.0,329.0,331.0,330.0,316.0,330.5,299.5,331.0,283.5,333.0" stroke="black" stroke-width="2" fill="none" />
<polyline points="281.0,339.0,297.5,322.5,314.0,306.0,331.5,289.5,347.0,273.5,363.5,258.5,379.5,243.5,396.0,228.0,412.5,212.5" stroke="black" stroke-width="2" fill="none" />
<polyline points="406.0,207.5,390.0,209.0,374.0,210.0" stroke="black" stroke-width="2" fill="none" />
<polyline points="382.0,205.0,373.5,206.0,365.5,208.5,357.0,210.0,348.5,212.0,340.5,211.0,332.5,199.5,324.5,187.5,316.5,176.5,308.5,170.5" stroke="black" stroke-width="2" fill="none" />
<polyline points="311.5,170.0,313.5,178.0,320.0,186.0,326.0,194.0,331.5,202.0,337.5,210.0,336.5,218.0,344.0,219.5,349.0,221.5" stroke="black" stroke-width="2" fill="none" />
<polyline points="341.5,229.5,325.5,245.5,309.5,261.0" stroke="black" stroke-width="2" fill="none" />
<polyline points="309.5,268.5,325.5,268.0,343.0,267.0,359.5,267.0,375.5,267.0" stroke="black" stroke-width="2" fill="none" />
<polyline points="379.5,271.5,365.0,279.5,376.5,280.5,384.5,279.0,392.0,278.0" stroke="black" stroke-width="2" fill="none" />
<polyline points="390.0,277.0,406.5,277.0,423.0,277.5" stroke="black" stroke-width="2" fill="none" />
<polyline points="421.0,272.5,413.0,275.5,405.0,277.0" stroke="black" stroke-width="2" fill="none" />
<polyline points="413.0,285.5,410.5,294.0,417.5,296.5,422.0,304.5,425.0,317.5,425.5,320.5,426.5,329.0" stroke="black" stroke-width="2" fill="none" />
<polyline points="421.0,334.5,421.0,326.5,421.5,319.0,417.5,311.0" stroke="black" stroke-width="2" fill="none" />
<polyline points="424.0,301.0,409.0,302.5,393.5,304.0,377.5,305.0,361.0,306.0,345.0,306.0" stroke="black" stroke-width="2" fill="none" />
<polyline points="343.5,306.5,359.5,291.0,375.5,275.5" stroke="black" stroke-width="2" fill="none" />
<polyline points="375.5,276.0,360.0,276.5,344.5,276.0,329.5,275.0,313.5,275.5" stroke="black" stroke-width="2" fill="none" />
<polyline points="310.5,290.5,327.0,274.0,344.5,258.0,361.5,242.0,377.5,226.0,394.0,210.0,410.0,195.0" stroke="black" stroke-width="2" fill="none" />
<polyline points="409.0,193.0,393.5,194.0" stroke="black" stroke-width="2" fill="none" />
<polyline points="391.0,179.5,375.0,195.0" stroke="black" stroke-width="2" fill="none" />
<polyline points="359.5,195.5,343.5,212.0,327.5,227.5,312.0,243.0,295.5,258.5" stroke="black" stroke-width="2" fill="none" />
<polyline points="299.5,268.0,283.0,269.0" stroke="black" stroke-width="2" fill="none" />
<polyline points="282.5,261.5,299.0,261.0,315.0,259.5,331.0,258.5,346.5,258.5,362.0,258.5,378.5,258.5,394.5,258.0" stroke="black" stroke-width="2" fill="none" />
<polyline points="397.5,263.0,405.5,257.0,405.5,257.0,406.5,263.5" stroke="black" stroke-width="2" fill="none" />
<polyline points="409.0,251.0,425.5,250.0,442.5,249.0,458.5,248.0,474.0,246.5,489.5,246.0,504.0,245.5,519.0,246.0" stroke="black" stroke-width="2" fill="none" />
<polyline points="520.0,198.5,504.0,199.5,489.0,201.5,474.0,202.5,458.5,203.5,443.0,203.5,427.0,204.0" stroke="black" stroke-width="2" fill="none" />
<polyline points="427.0,202.5,426.0,210.5,424.0,218.5,421.5,227.0,419.0,235.0,417.0,243.0,413.5,251.5,413.5,260.0" stroke="black" stroke-width="2" fill="none" />
<polyline points="407.5,290.0,423.5,290.5" stroke="black" stroke-width="2" fill="none" />
<polyline points="427.5,301.5,419.5,296.5,411.0,293.0,409.0,294.0" stroke="black" stroke-width="2" fill="none" />
<polyline points="373.5,288.5,357.5,288.0,342.0,289.0,327.0,288.5,312.0,288.5,296.5,289.0,280.5,289.0" stroke="black" stroke-width="2" fill="none" />
<polyline points="278.0,294.0,293.5,278.5" stroke="black" stroke-width="2" fill="none" />
<polyline points="283.0,281.5,298.5,281.0,313.5,280.5,328.5,281.0,343.5,281.0,359.0,281.0,374.0,282.0,388.5,282.0,403.5,282.5,419.5,282.5,435.0,282.5,451.0,282.5,468.0,281.5,485.5,280.5,503.0,278.5,520.5,276.5" stroke="black" stroke-width="2" fill="none" />
<polyline points="518.5,307.5,502.5,307.5,486.5,308.5,470.5,309.0,454.0,309.0,437.5,309.5,422.0,309.0,406.0,308.0,389.5,308.0,374.0,308.5,358.5,309.5,342.0,311.5,325.5,313.5,309.5,314.5,294.0,315.5,279.0,315.5" stroke="black" stroke-width="2" fill="none" />
<polyline points="277.0,307.0,293.0,306.5" stroke="black" stroke-width="2" fill="none" />
<polyline points="290.5,309.5,274.5,325.5" stroke="black" stroke-width="2" fill="none" />
<polyline points="281.0,324.5,296.5,324.0" stroke="black" stroke-width="2" fill="none" />
<polyline points="304.0,313.5,306.5,312.5,303.0,308.5" stroke="black" stroke-width="2" fill="none" />
<polyline points="312.5,307.0,329.0,306.5" stroke="black" stroke-width="2" fill="none" />
<polyline points="331.5,311.0,331.5,319.0,333.0,327.0,336.0,335.0" stroke="black" stroke-width="2" fill="none" />
<polyline points="329.0,299.5,314.0,300.5" stroke="black" stroke-width="2" fill="none" />
<polyline points="308.5,293.5,299.5,301.5,288.0,307.5,285.0,308.5,293.0,303.5,301.0,300.0" stroke="black" stroke-width="2" fill="none" />
<polyline points="293.5,297.0,277.0,297.0,261.0,297.5" stroke="black" stroke-width="2" fill="none" />
<polyline points="266.5,291.0,274.5,275.0,274.5,275.0,269.5,282.5,267.0,290.5,267.0,298.5,266.5,306.5,267.0,314.5,267.5,322.5,267.0,330.5,270.0,339.0" stroke="black" stroke-width="2" fill="none" />
<polyline points="282.5,340.5,298.0,339.5,313.0,339.0" stroke="black" stroke-width="2" fill="none" />
<polyline points="278.5,332.5,268.5,320.5" stroke="black" stroke-width="2" fill="none" />
<polyline points="259.5,315.5,243.0,316.5" stroke="black" stroke-width="2" fill="none" />
<polyline points="230.5,314.5,215.0,315.5,199.0,315.5" stroke="black" stroke-width="2" fill="none" />
<polyline points="261.0,308.0,259.5,316.0,259.5,324.5,259.5,333.0,259.0,341.0" stroke="black" stroke-width="2" fill="none" />
<polyline points="277.5,304.0,295.0,288.5,311.5,273.0,328.0,258.0,344.5,242.5,361.5,226.5,378.0,210.5,393.5,194.5,409.0,179.0" stroke="black" stroke-width="2" fill="none" />
<polyline points="408.5,185.0,393.0,185.0,377.0,185.5,360.0,185.5,344.0,185.0,327.5,185.5,311.5,185.5,295.5,185.5,280.0,186.0" stroke="black" stroke-width="2" fill="none" />
<polyline points="283.0,190.5,291.0,176.5,299.5,169.0,307.5,161.5,315.5,156.0,323.5,152.5,316.5,154.5,304.5,162.5,295.5,170.5,289.5,179.0,286.5,187.0,281.0,195.0,286.0,201.0,285.0,209.0,285.0,217.0,286.0,225.0,287.5,235.5,286.0,243.5,286.0,244.0,288.5,249.0,291.5,254.5,299.5,261.0,304.5,269.5,318.5,274.5" stroke="black" stroke-width="2" fill="none" />
<polyline points="335.5,272.5,328.0,271.5,311.0,270.0,301.0,269.0,292.0,260.5,286.5,252.5,282.5,244.5,279.5,236.5,278.0,229.5,277.0,221.5,276.0,213.5,277.0,205.5,278.0,197.5,280.5,189.5,283.0,182.0,288.0,174.0,295.0,166.0,305.0,158.0,322.0,150.0,322.5,140.0,316.5,138.0" stroke="black" stroke-width="2" fill="none" />
<polyline points="320.5,136.0,328.0,150.0,337.0,149.0,348.5,149.5,361.0,152.5,369.0,157.0,377.5,161.0,379.5,171.5,390.5,173.5,402.5,174.0,410.5,184.0,418.5,185.0" stroke="black" stroke-width="2" fill="none" />
<polyline points="423.0,190.0,438.5,188.5" stroke="black" stroke-width="2" fill="none" />
<polyline points="426.0,195.0,434.0,194.0,433.5,197.0,432.0,209.0,440.0,207.5,442.0,213.5,445.0,208.5,442.5,218.0,450.0,217.0,455.0,212.5,457.0,217.5,464.5,221.5,467.0,215.0,469.5,219.0,473.0,215.0,479.0,214.5,484.0,218.0,492.5,218.0,492.5,220.5" stroke="black" stroke-width="2" fill="none" />
<polyline points="517.0,185.5,502.0,187.0,487.0,188.0,471.5,188.0,455.5,188.0" stroke="black" stroke-width="2" fill="none" />
<polyline points="455.0,174.5,471.0,173.5" stroke="black" stroke-width="2" fill="none" />
<polyline points="488.5,170.5,505.0,170.0,521.5,169.5" stroke="black" stroke-width="2" fill="none" />
<polyline points="516.5,136.5,500.5,137.5" stroke="black" stroke-width="2" fill="none" />
<polyline points="489.0,154.0,505.5,153.5,521.5,153.5" stroke="black" stroke-width="2" fill="none" />
<polyline points="520.5,228.5,504.0,229.0,488.0,230.0,472.0,230.0,456.5,229.5,441.0,229.0,425.0,229.5,409.0,230.0,392.0,231.0,374.5,232.5,358.0,234.0,342.0,235.0,327.0,235.5,311.5,237.0,295.5,238.0,279.5,238.5" stroke="black" stroke-width="2" fill="none" />
<polyline points="277.0,243.5,293.0,243.0" stroke="black" stroke-width="2" fill="none" />
<polyline points="293.5,244.0,301.5,252.0" stroke="black" stroke-width="2" fill="none" />
<polyline points="309.5,242.5,325.0,242.5,341.5,242.5,357.5,243.0,372.5,243.0,388.5,242.5,405.0,242.0" stroke="black" stroke-width="2" fill="none" />
<polyline points="408.0,222.5,392.0,222.0,376.0,222.0,360.5,222.5" stroke="black" stroke-width="2" fill="none" />
<polyline points="361.0,219.5,376.5,218.5,392.5,217.5,408.5,216.0" stroke="black" stroke-width="2" fill="none" />
<polyline points="405.5,211.5,405.5,203.5" stroke="black" stroke-width="2" fill="none" />
<polyline points="409.5,200.0,394.5,201.5,379.5,203.0,363.5,203.0,347.0,204.5,330.5,205.0,313.5,205.5,297.0,205.5,280.5,206.0" stroke="black" stroke-width="2" fill="none" />
<polyline points="278.5,208.5,278.5,216.5,279.5,226.5,281.0,234.5,284.0,243.0,283.5,253.0,291.5,264.0,299.5,271.0,307.0,276.0,314.5,278.0,322.5,281.5,330.5,282.5,339.5,283.5,347.5,283.5" stroke="black" stroke-width="2" fill="none" />
<polyline points="365.5,293.0,373.0,294.5,381.0,296.5,389.0,298.0,397.0,297.0" stroke="black" stroke-width="2" fill="none" />
<polyline points="391.5,249.5,376.5,249.0,361.5,250.0,344.5,250.5,326.5,252.5,309.5,253.5,293.0,253.5,277.0,253.5" stroke="black" stroke-width="2" fill="none" />
<polyline points="278.5,262.0,295.0,246.5,311.5,230.5,328.0,215.5" stroke="black" stroke-width="2" fill="none" />
<polyline points="319.5,209.0,319.5,217.0,319.0,225.0,323.0,215.0,324.5,217.0,332.5,215.5,337.5,217.5,346.0,214.0,354.0,214.0,362.5,211.5,371.0,209.5,379.0,207.5" stroke="black" stroke-width="2" fill="none" />
<polyline points="376.0,224.5,372.0,219.5,364.0,219.5" stroke="black" stroke-width="2" fill="none" />
<polyline points="365.0,218.0,374.0,226.5" stroke="black" stroke-width="2" fill="none" />
<polyline points="375.0,227.0,367.0,223.0" stroke="black" stroke-width="2" fill="none" />
<polyline points="348.0,225.5,332.5,227.0" stroke="black" stroke-width="2" fill="none" />
<polyline points="336.0,239.5,338.5,236.5,339.5,234.5,333.5,239.0,338.0,247.0,332.0,253.0,331.5,260.5,333.0,254.5" stroke="black" stroke-width="2" fill="none" />
<polyline points="345.5,219.0,330.0,220.0,314.0,220.5,297.5,221.0,281.5,221.5" stroke="black" stroke-width="2" fill="none" />
<polyline points="286.0,222.5,294.0,219.0,295.0,221.0,305.0,218.5,313.0,217.5,315.0,219.5" stroke="black" stroke-width="2" fill="none" />
<polyline points="313.0,227.5,305.0,222.5" stroke="black" stroke-width="2" fill="none" />
<polyline points="308.0,223.5,301.0,220.0" stroke="black" stroke-width="2" fill="none" />
<polyline points="291.0,230.5,275.5,245.5" stroke="black" stroke-width="2" fill="none" />
<polyline points="290.5,242.0,291.0,249.0,299.0,258.5,307.0,265.5,315.0,270.5,323.0,274.0,330.5,276.0,338.0,277.5,346.0,279.0,353.5,277.5,361.5,274.5,369.5,271.5,377.5,266.5,386.0,259.5,394.0,249.5,398.5,242.5,398.0,227.5" stroke="black" stroke-width="2" fill="none" />
<polyline points="415.0,200.5,417.0,209.0,417.5,216.5,414.5,224.5,415.0,231.5,407.0,235.5,404.0,243.5,400.0,251.5,394.0,259.5,387.0,267.5,372.0,274.5,358.5,279.5,366.0,277.5,374.0,273.5" stroke="black" stroke-width="2" fill="none" />
<polyline points="311.5,278.0,301.5,275.0,292.5,267.0,282.0,257.0,272.5,248.5,266.5,240.5,270.0,230.5,272.0,222.5,272.0,214.0,272.0,206.0,273.0,198.0,276.5,190.0,280.0,182.5,284.5,174.5,284.5,165.0,276.5,169.0" stroke="black" stroke-width="2" fill="none" />
<polyline points="279.0,170.5,295.0,170.0" stroke="black" stroke-width="2" fill="none" />
<polyline points="294.0,162.5,302.0,156.0" stroke="black" stroke-width="2" fill="none" />
<polyline points="310.5,163.0,326.5,148.0" stroke="black" stroke-width="2" fill="none" />
<polyline points="329.0,157.5,313.0,159.0" stroke="black" stroke-width="2" fill="none" />
<polyline points="313.0,153.5,329.5,153.5,345.5,153.0,360.5,152.5,375.5,152.5" stroke="black" stroke-width="2" fill="none" />
<polyline points="371.5,141.0,369.0,135.5" stroke="black" stroke-width="2" fill="none" />
<polyline points="366.0,143.5,368.0,135.5,357.0,135.5" stroke="black" stroke-width="2" fill="none" />
<polyline points="356.0,137.0,364.0,132.0,372.0,132.5,357.0,133.0,358.5,140.5,361.5,142.5,363.5,141.5,366.0,145.0" stroke="black" stroke-width="2" fill="none" />
<polyline points="356.0,152.5,373.0,160.5,388.0,169.5,394.0,177.0,396.5,185.0,401.5,190.5,395.5,195.5,399.0,201.5" stroke="black" stroke-width="2" fill="none" />
<polyline points="410.5,185.5,411.5,193.5,420.0,195.0,426.5,197.0,427.5,198.0,426.5,206.0,424.5,214.0,423.5,222.0,422.0,230.5,420.0,238.5,418.0,246.5,416.5,254.5,415.0,262.0,414.0,267.5,423.5,264.5,428.5,259.5,431.0,251.5,433.5,235.0,441.5,243.5,445.5,245.5,446.5,250.5,450.0,257.5,454.0,250.5,455.0,257.0,463.5,258.0,471.5,257.0,475.5,251.0,478.5,246.5,486.5,245.0,489.5,241.5,490.5,234.0" stroke="black" stroke-width="2" fill="none" />
<polyline points="492.5,214.5,484.5,215.5,476.5,211.0,468.0,209.0,460.0,205.5,452.0,204.0,450.5,206.0,446.0,202.0,437.5,199.5,430.0,186.5,425.0,188.5,417.0,188.0,408.5,189.0,398.0,180.5,390.0,169.5,382.0,161.5,374.0,156.0,366.5,152.0,359.0,149.0,351.0,147.0,343.0,146.0,334.5,146.5,326.5,148.5,318.5,151.0,311.0,155.0,303.0,160.0,295.5,166.0,287.5,175.5,279.5,191.5,279.5,201.5" stroke="black" stroke-width="2" fill="none" />
<polyline points="275.0,197.5,291.5,182.5" stroke="black" stroke-width="2" fill="none" />
<polyline points="290.5,187.0,300.5,174.0,293.0,182.0,290.5,190.0,287.5,198.0" stroke="black" stroke-width="2" fill="none" />
<polyline points="283.0,195.0,298.5,195.0" stroke="black" stroke-width="2" fill="none" />
<polyline points="303.0,204.0,311.0,195.0,319.0,193.0" stroke="black" stroke-width="2" fill="none" />
<polyline points="311.5,194.0,303.5,202.0,301.5,210.0" stroke="black" stroke-width="2" fill="none" />
<polyline points="335.5,206.5,328.0,195.5,320.0,183.5,312.0,172.5" stroke="black" stroke-width="2" fill="none" />
<polyline points="312.5,172.0,319.0,179.5,325.0,188.0,330.0,196.0,336.0,203.5,340.5,211.5,347.5,220.0" stroke="black" stroke-width="2" fill="none" />
<polyline points="313.5,170.0,329.5,170.0,344.5,169.0,359.5,168.0,374.5,167.5,390.0,167.0" stroke="black" stroke-width="2" fill="none" />
<polyline points="399.0,166.0,406.5,172.0,414.5,177.5,422.5,182.5,430.5,184.0,438.5,190.0" stroke="black" stroke-width="2" fill="none" />
<polyline points="425.5,182.0,437.5,190.0,437.0,202.0,435.0,212.0,436.5,218.0,448.0,223.5,452.0,228.5,452.0,236.5,445.0,242.5,437.0,255.5,444.0,268.5,442.0,267.0,450.5,268.5,458.5,263.5,461.5,265.0,470.0,262.0,473.0,258.0,478.5,255.5,480.5,253.5,485.5,246.0" stroke="black" stroke-width="2" fill="none" />
<polyline points="482.0,263.0,474.5,266.0,474.0,271.0,466.5,270.0,468.5,266.0,463.5,253.5" stroke="black" stroke-width="2" fill="none" />
<polyline points="432.0,294.5,433.0,295.5,433.0,288.0,432.5,280.0,430.5,267.5,432.5,253.5,429.5,249.5,429.5,244.5,422.5,244.0,427.5,239.0,434.5,234.0,429.5,228.0,429.5,220.0,432.0,218.0,430.5,210.5,432.5,202.5,436.0,193.5,425.0,186.0,415.0,180.0,402.0,172.0" stroke="black" stroke-width="2" fill="none" />
<polyline points="390.0,179.0,388.0,181.0,389.5,173.0,386.5,165.0,374.0,157.0,356.0,145.0,351.0,138.5,353.5,130.5,353.0,130.5" stroke="black" stroke-width="2" fill="none" />
<polyline points="313.5,149.5,305.5,153.5,297.0,155.5,290.0,161.5,288.5,165.5,293.5,162.0,295.5,153.0,288.0,155.5,279.5,156.5,271.5,163.5" stroke="black" stroke-width="2" fill="none" />
<polyline points="278.0,166.0,277.0,174.0,271.0,182.5,272.0,185.5,273.0,195.5,272.0,203.5,269.5,211.5,268.5,219.5,267.0,227.5,273.0,233.5,277.0,241.5,279.0,247.0,284.0,255.0,286.0,263.5,277.0,271.5,285.0,274.5,287.0,271.5,291.5,275.0" stroke="black" stroke-width="2" fill="none" />
<polyline points="305.5,292.0,290.5,300.0,276.5,308.0,281.5,305.5,289.5,301.5,297.0,297.5,305.5,292.5" stroke="black" stroke-width="2" fill="none" />
<polyline points="264.5,326.0,248.5,326.5,232.5,327.0,217.0,328.0,201.5,329.0,185.5,329.5,169.5,330.5,154.0,331.0,138.0,331.0,121.5,331.0" stroke="black" stroke-width="2" fill="none" />
<polyline points="259.5,233.5,267.5,244.0,272.5,236.5,283.0,243.5,286.5,250.0" stroke="black" stroke-width="2" fill="none" />
<polyline points="271.0,172.0,272.0,163.5,282.5,155.5" stroke="black" stroke-width="2" fill="none" />
<polyline points="397.0,150.0,385.0,158.5,398.0,168.0,402.5,176.0,407.5,184.0,409.0,192.0,414.0,198.0,403.0,201.5,407.0,206.5,405.0,214.0,404.5,219.5,403.5,227.5,401.5,236.0,397.5,244.0,392.0,252.5,385.0,261.0,373.5,269.0,357.5,269.0,352.5,273.0" stroke="black" stroke-width="2" fill="none" />
<polyline points="402.0,157.0,394.0,164.0,398.0,163.0,402.0,155.0" stroke="black" stroke-width="2" fill="none" />
<polyline points="402.5,153.5,394.5,155.0,393.0,151.0,390.0,157.5,385.5,157.5,391.5,155.5,398.5,153.5" stroke="black" stroke-width="2" fill="none" />
</svg>