<svg xmlns="http://www.w3.org/2000/svg" version="1.1"><polyline points="406.5,3.0,408.0,11.0,412.0,19.0,416.5,26.5,422.0,34.0,426.0,42.0,430.0,50.0,435.0,58.0,440.5,66.5,446.5,74.0,441.5,82.5,435.5,90.5,430.0,98.5,424.5,106.5,418.5,114.5,419.0,123.0,420.0,131.0,418.5,139.0,417.0,147.0,415.0,155.5,411.5,163.5,409.0,171.5,405.0,179.0,398.5,187.0,390.5,194.5,382.5,202.0,372.0,210.0,370.0,219.0,370.0,227.0,369.5,235.0,371.0,243.0,373.0,251.0,371.0,259.0,372.0,267.0,373.0,274.5,374.5,282.5,375.0,290.0,377.0,298.0,378.0,306.0,379.5,313.5,381.5,321.5,381.5,329.5,381.0,338.0,381.0,346.0,383.0,346.0,381.0,354.0" stroke="black" stroke-width="2" fill="none" />
<polyline points="375.5,360.5,359.5,375.5,343.5,392.0,327.5,407.5" stroke="black" stroke-width="2" fill="none" />
<polyline points="330.5,404.5,345.5,404.0,360.5,404.0" stroke="black" stroke-width="2" fill="none" />
<polyline points="359.5,402.5,375.5,387.0" stroke="black" stroke-width="2" fill="none" />
<polyline points="374.5,395.0,358.0,394.5,342.0,393.5,325.5,394.0" stroke="black" stroke-width="2" fill="none" />
<polyline points="328.5,391.5,344.5,375.5,360.5,360.0,376.5,345.0" stroke="black" stroke-width="2" fill="none" />
<polyline points="381.0,329.5,364.0,344.5,346.5,360.0,329.0,375.5,311.0,390.5" stroke="black" stroke-width="2" fill="none" />
<polyline points="312.5,378.0,320.5,363.0,329.0,349.0,337.0,332.5,345.0,315.5" stroke="black" stroke-width="2" fill="none" />
<polyline points="342.0,311.0,359.0,310.5,375.0,310.5" stroke="black" stroke-width="2" fill="none" />
<polyline points="391.0,311.0,407.0,309.5" stroke="black" stroke-width="2" fill="none" />
<polyline points="410.5,300.5,393.5,315.0" stroke="black" stroke-width="2" fill="none" />
<polyline points="388.0,291.5,404.0,291.0" stroke="black" stroke-width="2" fill="none" />
<polyline points="406.0,279.5,389.5,295.5,373.0,311.0,357.0,325.5,341.5,340.5" stroke="black" stroke-width="2" fill="none" />
<polyline points="347.5,341.5,363.0,341.0" stroke="black" stroke-width="2" fill="none" />
<polyline points="360.5,357.0,345.0,357.0" stroke="black" stroke-width="2" fill="none" />
<polyline points="354.5,357.0,354.5,365.5,354.0,374.0,354.0,382.0,354.5,390.0,355.0,397.5,356.5,405.5,356.5,413.0" stroke="black" stroke-width="2" fill="none" />
<polyline points="355.0,410.5,371.0,410.0" stroke="black" stroke-width="2" fill="none" />
<polyline points="374.5,406.0,358.5,422.0" stroke="black" stroke-width="2" fill="none" />
<polyline points="352.5,419.0,370.5,418.5" stroke="black" stroke-width="2" fill="none" />
<polyline points="373.0,422.5,357.0,438.5" stroke="black" stroke-width="2" fill="none" />
<polyline points="355.0,435.5,372.0,434.5" stroke="black" stroke-width="2" fill="none" />
<polyline points="386.5,426.5,370.5,428.0,354.0,429.5" stroke="black" stroke-width="2" fill="none" />
<polyline points="342.5,406.0,358.0,390.5,374.5,375.0" stroke="black" stroke-width="2" fill="none" />
<polyline points="375.0,374.0,359.0,375.0,343.5,375.5,328.0,376.0,312.0,376.5" stroke="black" stroke-width="2" fill="none" />
<polyline points="326.5,374.0,343.0,373.0" stroke="black" stroke-width="2" fill="none" />
<polyline points="330.0,364.0,345.0,363.0,359.0,362.0,373.5,361.0" stroke="black" stroke-width="2" fill="none" />
<polyline points="367.5,375.0,372.0,376.5,372.5,384.5" stroke="black" stroke-width="2" fill="none" />
<polyline points="384.5,379.5,385.5,387.5,382.5,395.5" stroke="black" stroke-width="2" fill="none" />
<polyline points="393.0,395.5,408.5,395.0,423.0,394.5" stroke="black" stroke-width="2" fill="none" />
<polyline points="423.5,412.0,438.5,411.5,454.0,411.0" stroke="black" stroke-width="2" fill="none" />
<polyline points="459.0,393.0,443.0,393.0" stroke="black" stroke-width="2" fill="none" />
<polyline points="440.5,425.5,424.5,426.0" stroke="black" stroke-width="2" fill="none" />
<polyline points="431.5,435.5,440.5,425.5" stroke="black" stroke-width="2" fill="none" />
<polyline points="442.5,441.5,426.0,442.5" stroke="black" stroke-width="2" fill="none" />
<polyline points="430.5,450.5,438.5,455.5" stroke="black" stroke-width="2" fill="none" />
<polyline points="431.0,463.5,425.5,471.5,421.5,479.5,422.5,487.5" stroke="black" stroke-width="2" fill="none" />
<polyline points="422.5,473.5,406.5,488.0" stroke="black" stroke-width="2" fill="none" />
<polyline points="407.0,479.5,422.5,479.0" stroke="black" stroke-width="2" fill="none" />
<polyline points="423.0,472.5,407.0,474.5,390.0,476.0,373.0,477.0" stroke="black" stroke-width="2" fill="none" />
<polyline points="374.5,460.5,390.5,459.5" stroke="black" stroke-width="2" fill="none" />
<polyline points="402.5,464.5,410.5,469.5,417.5,471.5,425.5,470.0,433.0,467.5" stroke="black" stroke-width="2" fill="none" />
<polyline points="430.5,471.0,430.5,479.0" stroke="black" stroke-width="2" fill="none" />
<polyline points="444.0,489.5,460.0,488.0,475.5,487.0,489.5,487.0,503.0,487.5,517.5,488.0" stroke="black" stroke-width="2" fill="none" />
<polyline points="515.0,483.0,499.0,499.0,483.5,515.0" stroke="black" stroke-width="2" fill="none" />
<polyline points="500.0,520.5,516.5,504.0" stroke="black" stroke-width="2" fill="none" />
<polyline points="523.0,515.5,507.0,517.0" stroke="black" stroke-width="2" fill="none" />
<polyline points="502.5,486.5,519.0,472.0" stroke="black" stroke-width="2" fill="none" />
<polyline points="516.5,483.5,500.0,483.0" stroke="black" stroke-width="2" fill="none" />
<polyline points="489.0,491.5,472.5,506.5,456.5,520.5" stroke="black" stroke-width="2" fill="none" />
<polyline points="440.0,504.0,455.5,488.5,471.0,473.0" stroke="black" stroke-width="2" fill="none" />
<polyline points="468.5,484.5,452.5,485.5" stroke="black" stroke-width="2" fill="none" />
<polyline points="452.5,476.0,468.5,475.5,485.5,475.0,501.5,473.5,516.5,472.0" stroke="black" stroke-width="2" fill="none" />
<polyline points="520.0,443.5,503.5,444.5,487.5,445.0,471.0,444.5" stroke="black" stroke-width="2" fill="none" />
<polyline points="458.0,447.0,465.5,432.0,473.0,416.0,480.5,404.5,488.5,397.0,496.0,389.5,504.0,385.0,510.0,383.0,492.0,391.0,485.0,398.5,476.0,406.5,473.0,414.5,469.5,422.5,466.0,430.5,461.0,438.5,456.5,446.5,455.0,454.5,453.0,463.0,450.5,466.0" stroke="black" stroke-width="2" fill="none" />
<polyline points="454.5,464.5,470.5,462.5,486.0,461.0,501.5,460.0,517.5,459.0" stroke="black" stroke-width="2" fill="none" />
<polyline points="518.0,426.0,502.5,427.0,487.5,427.5,472.0,428.5" stroke="black" stroke-width="2" fill="none" />
<polyline points="487.5,410.5,503.5,409.5,519.5,408.5" stroke="black" stroke-width="2" fill="none" />
<polyline points="507.0,407.5,522.0,393.0" stroke="black" stroke-width="2" fill="none" />
<polyline points="519.0,403.0,503.5,404.0" stroke="black" stroke-width="2" fill="none" />
<polyline points="501.0,392.5,517.0,392.0" stroke="black" stroke-width="2" fill="none" />
<polyline points="490.5,402.0,482.0,410.5,478.5,418.5,480.5,414.0,489.0,405.0" stroke="black" stroke-width="2" fill="none" />
<polyline points="465.5,461.5,453.0,469.0,448.0,477.0,440.0,485.0,430.0,493.0,430.0,493.0,438.0,487.0,446.0,479.5,453.5,468.5,461.5,463.5" stroke="black" stroke-width="2" fill="none" />
<polyline points="481.5,490.0,474.5,501.0,466.5,510.0,470.0,507.0,476.0,498.5,481.0,490.5" stroke="black" stroke-width="2" fill="none" />
<polyline points="518.5,503.0,502.0,503.0,485.5,503.5,470.0,504.0,454.5,504.5,440.0,505.5,425.0,507.0,409.0,508.0,394.0,508.5" stroke="black" stroke-width="2" fill="none" />
<polyline points="395.0,492.0,410.0,491.0,424.5,490.5" stroke="black" stroke-width="2" fill="none" />
<polyline points="359.5,386.5,344.0,386.5,328.5,387.0" stroke="black" stroke-width="2" fill="none" />
<polyline points="297.5,389.0,305.5,390.0,313.5,390.0,321.5,394.0,330.0,397.0,338.0,401.0,346.0,407.0,354.0,416.0,362.0,430.0" stroke="black" stroke-width="2" fill="none" />
<polyline points="374.5,344.5,358.5,345.0,342.5,346.0,326.5,346.5" stroke="black" stroke-width="2" fill="none" />
<polyline points="321.0,341.0,319.0,349.0" stroke="black" stroke-width="2" fill="none" />
<polyline points="312.0,334.0,296.0,334.0" stroke="black" stroke-width="2" fill="none" />
<polyline points="297.5,325.0,302.0,336.0,302.5,348.0,299.5,350.5,313.5,346.5,316.0,348.5" stroke="black" stroke-width="2" fill="none" />
<polyline points="301.0,359.5,293.0,359.0" stroke="black" stroke-width="2" fill="none" />
<polyline points="290.5,355.5,291.5,363.5,294.5,370.5,302.5,368.5,311.0,363.5" stroke="black" stroke-width="2" fill="none" />
<polyline points="295.5,366.0,279.5,367.0" stroke="black" stroke-width="2" fill="none" />
<polyline points="293.0,365.5,301.0,365.0,307.0,366.0" stroke="black" stroke-width="2" fill="none" />
<polyline points="317.5,352.0,310.0,354.0,302.0,355.0,293.5,355.5,285.0,353.5,277.0,354.5,269.0,353.0" stroke="black" stroke-width="2" fill="none" />
<polyline points="267.5,353.5,275.5,351.5,283.0,351.5,291.0,350.0,298.5,346.5,306.5,347.5" stroke="black" stroke-width="2" fill="none" />
<polyline points="304.5,324.5,296.0,324.5" stroke="black" stroke-width="2" fill="none" />
<polyline points="297.0,313.5,313.0,313.0" stroke="black" stroke-width="2" fill="none" />
<polyline points="320.0,301.5,320.5,310.0,322.5,318.0,319.0,326.0" stroke="black" stroke-width="2" fill="none" />
<polyline points="343.5,329.5,359.5,328.5,375.0,327.0" stroke="black" stroke-width="2" fill="none" />
<polyline points="354.5,325.5,355.0,333.5,353.0,341.0,353.5,351.0,352.5,358.5,351.5,366.0,352.0,374.0,351.0,382.0,351.0,390.0,353.5,398.0,352.0,406.0" stroke="black" stroke-width="2" fill="none" />
<polyline points="344.0,323.5,359.5,308.5,376.0,293.0,393.0,277.5,410.5,261.5,427.0,246.5" stroke="black" stroke-width="2" fill="none" />
<polyline points="422.0,247.5,430.0,225.5,437.5,208.0,445.5,190.0" stroke="black" stroke-width="2" fill="none" />
<polyline points="447.5,187.5,443.0,195.5,439.0,203.5,437.0,211.5,432.5,219.5,430.0,228.0,427.0,236.0,424.0,244.0,420.5,252.0" stroke="black" stroke-width="2" fill="none" />
<polyline points="422.5,241.5,406.0,242.0" stroke="black" stroke-width="2" fill="none" />
<polyline points="410.5,247.0,418.5,227.0,426.5,209.0,435.0,188.5,443.0,171.5,451.0,158.0,459.0,145.0,467.0,131.0,475.0,118.0,483.5,108.5,491.5,98.5,499.5,89.5,508.0,82.0" stroke="black" stroke-width="2" fill="none" />
<polyline points="506.5,88.0,490.0,89.0,473.5,88.5,456.5,88.0,439.5,88.5" stroke="black" stroke-width="2" fill="none" />
<polyline points="442.0,96.5,457.0,96.0,472.0,95.5,488.0,95.0" stroke="black" stroke-width="2" fill="none" />
<polyline points="487.0,119.0,470.5,119.0,454.5,119.5,439.0,119.5,423.5,120.5" stroke="black" stroke-width="2" fill="none" />
<polyline points="423.0,120.5,438.5,105.5,453.5,90.0,469.0,74.0,484.5,58.0,499.5,42.0,516.0,25.5" stroke="black" stroke-width="2" fill="none" />
<polyline points="503.0,27.5,487.0,43.0,472.0,58.0,456.0,73.5" stroke="black" stroke-width="2" fill="none" />
<polyline points="456.0,75.5,472.0,75.5,488.0,75.5,504.0,75.0,519.5,74.5" stroke="black" stroke-width="2" fill="none" />
<polyline points="523.0,72.0,507.5,87.0,491.0,103.0,474.5,118.5,458.5,134.0,442.5,150.0,425.5,165.0" stroke="black" stroke-width="2" fill="none" />
<polyline points="427.0,165.5,443.5,165.5,460.5,164.0" stroke="black" stroke-width="2" fill="none" />
<polyline points="455.5,165.5,439.0,181.5,423.0,197.0,407.5,211.5,392.5,226.5,376.5,242.0,361.0,258.0,345.5,274.0" stroke="black" stroke-width="2" fill="none" />
<polyline points="348.0,278.0,349.0,285.5,349.0,294.0,348.0,302.0,346.0,310.5,344.0,319.0,340.0,327.0,337.5,335.0,334.0,342.5,330.0,350.5,325.0,358.5,320.0,366.5,315.5,374.5,312.5,382.5,316.5,392.5,333.5,400.5,345.0,408.0,352.0,415.5,358.0,423.5,361.5,431.0,364.5,439.0,367.5,447.0,369.5,455.5,371.5,463.5,374.0,471.5,377.0,479.5,379.0,488.0,381.0,496.5,382.5,505.0,384.5,513.0" stroke="black" stroke-width="2" fill="none" />
<polyline points="252.0,452.0,235.5,467.5" stroke="black" stroke-width="2" fill="none" />
<polyline points="230.5,470.0,247.5,469.0" stroke="black" stroke-width="2" fill="none" />
<polyline points="232.0,487.0,215.5,486.5,199.5,487.0,184.0,488.0,168.0,489.0,151.5,490.0,136.0,491.5,119.5,493.0,102.5,493.0,85.5,492.0,68.5,491.5" stroke="black" stroke-width="2" fill="none" />
<polyline points="69.0,487.5,86.0,470.5,101.5,454.0,117.0,437.5,134.0,421.5,151.0,406.0" stroke="black" stroke-width="2" fill="none" />
<polyline points="147.5,413.5,131.5,414.0,116.0,413.5,100.0,413.0,84.0,413.0,68.0,413.5" stroke="black" stroke-width="2" fill="none" />
<polyline points="72.5,406.5,89.5,390.5" stroke="black" stroke-width="2" fill="none" />
<polyline points="88.0,396.0,96.0,402.0" stroke="black" stroke-width="2" fill="none" />
<polyline points="105.5,404.5,121.5,404.0" stroke="black" stroke-width="2" fill="none" />
<polyline points="122.5,407.5,106.5,422.0,90.0,436.5,74.5,451.5" stroke="black" stroke-width="2" fill="none" />
<polyline points="73.5,456.5,73.5,464.5,74.5,472.5,67.5,478.5,66.0,486.5" stroke="black" stroke-width="2" fill="none" />
<polyline points="67.5,480.0,83.5,479.0,100.0,478.5,116.0,478.0,132.0,477.0,148.5,476.5,165.5,476.0,183.5,475.5,200.5,474.0,216.5,472.5,232.5,471.5,248.5,471.0" stroke="black" stroke-width="2" fill="none" />
<polyline points="217.0,479.5,200.5,479.5,184.0,479.0,168.0,479.5" stroke="black" stroke-width="2" fill="none" />
<polyline points="156.5,485.5,164.5,496.0" stroke="black" stroke-width="2" fill="none" />
<polyline points="166.5,495.5,182.0,495.5,199.0,495.0,215.5,494.5" stroke="black" stroke-width="2" fill="none" />
<polyline points="213.5,484.5,198.0,500.0,181.0,516.0" stroke="black" stroke-width="2" fill="none" />
<polyline points="168.0,516.0,183.5,501.5,199.0,487.5,214.0,472.5" stroke="black" stroke-width="2" fill="none" />
<polyline points="213.0,467.0,197.0,468.0,181.5,468.5" stroke="black" stroke-width="2" fill="none" />
<polyline points="186.5,452.5,203.0,436.5,218.5,420.5,234.5,406.0,249.5,389.5" stroke="black" stroke-width="2" fill="none" />
<polyline points="251.5,401.0,235.5,416.5,219.5,432.5,204.0,449.0,188.0,466.0,172.0,481.5,156.0,498.0,139.5,513.5" stroke="black" stroke-width="2" fill="none" />
<polyline points="136.5,515.5,153.0,516.0" stroke="black" stroke-width="2" fill="none" />
<polyline points="164.5,511.5,180.0,510.5" stroke="black" stroke-width="2" fill="none" />
<polyline points="166.5,501.0,182.5,485.0,198.0,470.0,214.0,455.0,230.5,439.5" stroke="black" stroke-width="2" fill="none" />
<polyline points="229.0,433.5,212.5,433.0,196.0,432.0,180.0,433.0" stroke="black" stroke-width="2" fill="none" />
<polyline points="181.5,438.0,197.0,438.0,212.5,438.5,228.5,438.5,244.5,438.0,260.0,437.5" stroke="black" stroke-width="2" fill="none" />
<polyline points="243.5,437.0,243.5,445.0,242.5,452.5,238.5,460.0,234.5,468.0,241.5,454.5" stroke="black" stroke-width="2" fill="none" />
<polyline points="246.5,453.5,230.0,455.0,214.5,455.0,198.0,456.5,182.0,457.0,166.5,456.5,151.0,456.5,135.0,457.0,119.0,457.5,103.0,458.0,87.5,458.5,71.5,458.5" stroke="black" stroke-width="2" fill="none" />
<polyline points="66.0,463.5,64.0,455.0" stroke="black" stroke-width="2" fill="none" />
<polyline points="62.0,448.0,62.0,456.0,64.0,464.0,65.0,472.0,63.0,479.5,62.5,487.5,64.0,495.0,61.0,503.0,61.0,511.0" stroke="black" stroke-width="2" fill="none" />
<polyline points="70.5,506.5,87.5,505.5,104.5,505.0,120.5,504.5,136.0,504.0,151.5,503.5,167.0,503.5,183.0,503.5,199.5,503.5,217.0,503.0,233.0,502.5" stroke="black" stroke-width="2" fill="none" />
<polyline points="193.0,491.0,201.0,490.0,209.5,487.0,217.5,481.0,225.5,471.0,233.0,454.5" stroke="black" stroke-width="2" fill="none" />
<polyline points="223.5,437.0,231.5,431.5" stroke="black" stroke-width="2" fill="none" />
<polyline points="214.0,448.0,198.0,448.0,182.0,449.0" stroke="black" stroke-width="2" fill="none" />
<polyline points="185.5,443.5,193.0,446.0,200.5,443.0,197.0,450.0,198.0,450.0" stroke="black" stroke-width="2" fill="none" />
<polyline points="185.5,437.5,202.0,422.0,218.5,406.0,235.0,390.0,251.5,374.0" stroke="black" stroke-width="2" fill="none" />
<polyline points="250.0,376.5,254.0,384.0" stroke="black" stroke-width="2" fill="none" />
<polyline points="249.0,377.5,257.0,386.5,264.5,386.0,272.5,385.5" stroke="black" stroke-width="2" fill="none" />
<polyline points="259.5,359.5,244.0,360.5,230.0,361.0,215.0,361.5,198.5,362.0,182.5,361.5" stroke="black" stroke-width="2" fill="none" />
<polyline points="186.0,359.0,201.0,342.5,217.0,327.0" stroke="black" stroke-width="2" fill="none" />
<polyline points="209.5,318.0,225.5,317.0,242.5,315.5" stroke="black" stroke-width="2" fill="none" />
<polyline points="229.0,307.5,213.0,308.5" stroke="black" stroke-width="2" fill="none" />
<polyline points="212.0,309.0,227.0,293.0" stroke="black" stroke-width="2" fill="none" />
<polyline points="227.0,289.0,235.0,280.5,235.5,280.0,227.5,288.0,224.5,296.0,224.0,304.5,222.0,312.5,216.5,314.0,216.5,322.0,216.0,330.0,216.0,338.0,216.5,346.0,217.5,354.0,217.5,362.0,219.0,370.0" stroke="black" stroke-width="2" fill="none" />
<polyline points="214.0,372.0,198.0,373.5,182.0,374.5" stroke="black" stroke-width="2" fill="none" />
<polyline points="186.0,383.5,185.0,391.5,184.0,399.5" stroke="black" stroke-width="2" fill="none" />
<polyline points="179.5,406.5,194.0,392.0,209.0,377.0,225.0,361.5" stroke="black" stroke-width="2" fill="none" />
<polyline points="229.0,369.0,231.0,377.0,233.5,385.5,238.0,393.5,239.5,401.0,240.0,409.0,241.0,416.5,243.0,424.0,242.0,432.5,241.0,441.0,240.0,449.0,238.0,456.5,234.5,464.5,231.5,472.0,225.5,480.5,213.5,488.0" stroke="black" stroke-width="2" fill="none" />
<polyline points="192.0,488.5,200.0,476.0,212.0,465.0,219.5,448.5" stroke="black" stroke-width="2" fill="none" />
<polyline points="185.5,424.0,201.5,423.0,217.5,421.0,233.0,419.5,248.5,418.0" stroke="black" stroke-width="2" fill="none" />
<polyline points="262.5,405.5,247.0,406.0,231.5,406.5,217.0,407.0,201.5,408.0,186.0,409.0,170.5,409.0" stroke="black" stroke-width="2" fill="none" />
<polyline points="166.5,406.5,182.5,391.0,199.0,375.5,215.5,359.0" stroke="black" stroke-width="2" fill="none" />
<polyline points="217.0,344.5,201.0,360.5,185.5,376.5,169.5,392.5" stroke="black" stroke-width="2" fill="none" />
<polyline points="170.0,392.5,186.0,392.0,201.0,392.5,216.0,393.0,231.0,393.5,245.5,394.5" stroke="black" stroke-width="2" fill="none" />
<polyline points="250.0,401.5,234.5,402.5,218.5,403.5,202.5,403.5,186.5,403.5,170.5,403.0" stroke="black" stroke-width="2" fill="none" />
<polyline points="165.0,408.5,174.0,417.5,173.0,421.0,176.0,429.5,175.0,438.0,166.0,442.0,168.0,450.0,172.5,457.5" stroke="black" stroke-width="2" fill="none" />
<polyline points="166.0,455.0,150.0,470.0,133.5,485.5" stroke="black" stroke-width="2" fill="none" />
<polyline points="136.0,483.5,153.0,483.0" stroke="black" stroke-width="2" fill="none" />
<polyline points="151.0,485.0,135.0,500.5" stroke="black" stroke-width="2" fill="none" />
<polyline points="135.5,499.5,151.5,499.0" stroke="black" stroke-width="2" fill="none" />
<polyline points="151.5,491.5,159.5,495.5" stroke="black" stroke-width="2" fill="none" />
<polyline points="151.0,503.0,149.0,498.5,150.0,488.0,149.5,484.0" stroke="black" stroke-width="2" fill="none" />
<polyline points="144.0,481.5,146.5,489.5,151.5,497.5,150.0,502.0,151.0,509.0" stroke="black" stroke-width="2" fill="none" />
<polyline points="158.0,500.0,151.0,496.5,142.5,482.0" stroke="black" stroke-width="2" fill="none" />
<polyline points="138.5,481.0,143.5,489.0,144.5,497.0,149.5,505.5" stroke="black" stroke-width="2" fill="none" />
<polyline points="142.0,487.0,134.0,482.0" stroke="black" stroke-width="2" fill="none" />
<polyline points="137.0,481.0,133.0,488.5,134.0,496.5,138.0,504.5" stroke="black" stroke-width="2" fill="none" />
<polyline points="131.0,511.0,123.0,497.0" stroke="black" stroke-width="2" fill="none" />
<polyline points="122.0,499.0,106.5,499.5,90.5,499.0,75.5,498.5" stroke="black" stroke-width="2" fill="none" />
<polyline points="71.0,516.5,87.5,500.5,104.0,486.0,120.0,471.0,135.5,455.5,151.0,440.0" stroke="black" stroke-width="2" fill="none" />
<polyline points="141.5,441.0,141.5,449.0,137.5,457.0,146.5,459.0,150.0,467.0,153.0,474.5,159.0,492.0,161.5,499.5,163.5,507.5" stroke="black" stroke-width="2" fill="none" />
<polyline points="160.0,483.0,158.5,482.0,150.5,477.0,142.5,472.0" stroke="black" stroke-width="2" fill="none" />
<polyline points="152.0,467.0,136.0,467.5,119.5,468.5" stroke="black" stroke-width="2" fill="none" />
<polyline points="117.5,455.0,134.5,454.5,152.0,454.0" stroke="black" stroke-width="2" fill="none" />
<polyline points="154.5,452.5,138.0,469.0,121.0,486.0,104.0,502.5,88.0,518.5" stroke="black" stroke-width="2" fill="none" />
<polyline points="91.0,513.5,106.0,512.0,121.5,511.5" stroke="black" stroke-width="2" fill="none" />
<polyline points="124.0,505.0,108.0,520.5" stroke="black" stroke-width="2" fill="none" />
<polyline points="123.0,512.0,124.0,504.5,127.5,494.5,119.5,485.5" stroke="black" stroke-width="2" fill="none" />
<polyline points="121.0,482.5,119.0,490.5,120.0,498.5,120.0,506.5,126.0,508.5" stroke="black" stroke-width="2" fill="none" />
<polyline points="129.0,507.5,125.0,499.5" stroke="black" stroke-width="2" fill="none" />
<polyline points="112.0,504.0,113.5,496.0,114.0,488.0" stroke="black" stroke-width="2" fill="none" />
<polyline points="116.0,482.0,113.0,489.5,110.5,497.5,109.5,505.0" stroke="black" stroke-width="2" fill="none" />
<polyline points="103.0,505.0,100.0,497.0,99.0,489.0" stroke="black" stroke-width="2" fill="none" />
<polyline points="100.0,487.5,99.0,495.5,101.0,503.5,104.5,511.5" stroke="black" stroke-width="2" fill="none" />
<polyline points="90.0,483.0,106.0,482.5,122.5,480.5" stroke="black" stroke-width="2" fill="none" />
<polyline points="124.0,483.0,127.0,491.5,129.5,499.5,133.5,508.0" stroke="black" stroke-width="2" fill="none" />
<polyline points="143.5,511.5,141.5,503.5,139.5,495.0,136.5,487.0" stroke="black" stroke-width="2" fill="none" />
<polyline points="168.0,490.5,168.5,489.5,163.5,482.0,169.0,479.5,170.5,469.5,178.5,460.0,176.5,453.5,173.5,452.0,177.5,442.0,181.0,437.0,181.5,429.0,181.5,421.0,178.5,413.0,174.5,404.5,169.0,396.5,160.0,388.0,154.5,379.0,147.0,378.0,144.0,377.5,144.5,369.5,145.5,367.5,144.0,359.0,138.5,356.0,142.0,348.0,146.0,345.0,145.5,341.0,148.5,333.5,144.5,326.0,155.5,315.5,158.0,307.5,165.0,298.5,170.0,291.5,164.0,288.5,167.5,283.5,160.0,277.0,161.0,269.5,167.0,263.5,168.0,255.5,173.0,247.5,174.0,239.0,180.0,229.0,176.0,232.5,165.0,243.0,156.5,257.5,148.5,268.5,144.5,268.5,139.5,281.0,131.5,280.0,130.5,283.5,120.5,270.5,112.0,268.5,106.0,274.5,98.5,278.5,99.0,286.0,93.0,281.0,92.5,275.5,108.5,267.5,112.5,259.5,121.5,253.5,128.0,245.5,134.0,238.5,139.5,239.5,135.5,231.5,133.0,224.0,132.0,216.5,129.5,208.5,125.5,200.5,123.5,192.5,121.5,184.5,120.5,176.0,120.5,168.0,121.5,160.0,121.5,152.5,123.5,144.5,124.5,136.5,125.5,128.5,128.5,120.5,131.0,112.5,134.0,105.0,144.0,93.5,150.5,85.0,154.5,77.0,157.0,69.0,160.0,68.0,158.0,71.0,149.5,85.0,141.5,94.0" stroke="black" stroke-width="2" fill="none" />
<polyline points="150.5,79.5,154.5,71.0" stroke="black" stroke-width="2" fill="none" />
<polyline points="166.0,62.5,174.0,61.0" stroke="black" stroke-width="2" fill="none" />
<polyline points="193.0,51.5,188.0,59.5,195.0,51.5,203.0,49.5,211.5,48.0,216.5,50.0,225.0,46.5,233.0,48.0,241.5,49.0,249.5,51.0,257.5,54.0,265.5,58.0,273.5,63.0,281.5,68.0,289.0,74.0,297.0,78.0,304.5,89.0,312.5,99.0,320.5,105.0,328.5,118.5,336.5,131.5,344.5,144.5,352.5,143.5,360.5,139.5,369.0,134.5,377.0,128.0,385.0,122.0,393.0,116.5,400.5,112.5,408.5,114.5,418.0,114.0,426.0,102.5,434.0,90.5,442.0,79.5,450.0,70.0" stroke="black" stroke-width="2" fill="none" />
<polyline points="450.5,57.0,467.5,56.0,484.5,54.5,501.5,53.5,517.5,54.0" stroke="black" stroke-width="2" fill="none" />
<polyline points="521.5,51.5,506.0,67.0,490.5,83.0,474.5,99.0,458.5,115.0,443.0,131.0,427.0,146.0" stroke="black" stroke-width="2" fill="none" />
<polyline points="425.0,142.5,441.0,142.5,456.0,142.5,471.0,142.5" stroke="black" stroke-width="2" fill="none" />
<polyline points="468.5,131.5,452.5,147.0,437.0,163.5,422.0,179.5,407.5,195.0,392.0,211.0,377.0,227.0" stroke="black" stroke-width="2" fill="none" />
<polyline points="376.5,223.0,392.5,222.5,407.5,222.0,423.0,221.0" stroke="black" stroke-width="2" fill="none" />
<polyline points="425.0,231.0,409.5,246.0,392.5,262.0,376.0,278.0,360.5,293.5" stroke="black" stroke-width="2" fill="none" />
<polyline points="358.0,276.5,374.0,261.0,390.0,246.0,406.5,231.5,423.0,217.0,439.0,201.5" stroke="black" stroke-width="2" fill="none" />
<polyline points="424.5,179.0,440.5,178.5,456.0,178.5" stroke="black" stroke-width="2" fill="none" />
<polyline points="457.5,154.0,442.0,154.0,426.0,154.5" stroke="black" stroke-width="2" fill="none" />
<polyline points="422.0,137.0,437.5,136.5,454.5,136.0,471.5,135.5" stroke="black" stroke-width="2" fill="none" />
<polyline points="426.0,134.0,442.5,118.5,458.5,104.0,474.5,88.5,490.5,73.0,506.5,57.5,522.0,41.0" stroke="black" stroke-width="2" fill="none" />
<polyline points="519.5,34.0,503.5,33.5" stroke="black" stroke-width="2" fill="none" />
<polyline points="519.0,51.0,504.5,52.5,489.0,53.0" stroke="black" stroke-width="2" fill="none" />
<polyline points="469.0,66.5,484.0,66.5,499.0,66.0,514.5,65.0" stroke="black" stroke-width="2" fill="none" />
<polyline points="511.5,75.0,504.5,83.0,497.0,91.0,489.0,99.0,483.0,107.0,477.0,115.0,471.0,122.5,466.0,130.0,461.0,138.0,456.5,146.0,453.0,154.0,449.0,162.0,444.0,170.5,440.0,178.5,436.0,186.5,433.0,194.5,430.5,203.0,427.5,211.5,423.5,219.5,420.0,227.0,417.0,235.0,413.0,242.5,411.5,250.5,408.5,258.5,406.5,266.5,403.0,274.5,400.0,284.0,398.0,292.0,396.0,300.0,394.5,308.0,392.5,316.0,389.5,324.0,387.5,332.0,384.5,332.0" stroke="black" stroke-width="2" fill="none" />
<polyline points="404.5,296.5,388.0,298.0,372.5,298.5,357.5,299.0,342.0,299.0" stroke="black" stroke-width="2" fill="none" />
<polyline points="341.0,280.5,356.5,280.5,372.0,279.5,388.0,279.0,406.0,278.5" stroke="black" stroke-width="2" fill="none" />
<polyline points="405.5,274.5,388.5,274.0" stroke="black" stroke-width="2" fill="none" />
<polyline points="376.0,273.5,360.5,273.5,345.0,273.5,329.5,273.5" stroke="black" stroke-width="2" fill="none" />
<polyline points="329.0,271.5,345.0,270.0,361.0,268.0,377.5,266.5,394.5,265.5,410.0,265.0" stroke="black" stroke-width="2" fill="none" />
<polyline points="415.5,268.5,413.0,276.5,410.0,284.5,407.0,293.0,405.0,301.0,402.0,309.0,401.0,317.0" stroke="black" stroke-width="2" fill="none" />
<polyline points="362.0,283.5,362.0,275.5,363.0,267.5,363.5,259.5,364.0,247.5,363.0,239.0,361.5,231.0,358.0,223.0,354.0,215.0,353.0,213.0,345.0,206.0" stroke="black" stroke-width="2" fill="none" />
<polyline points="346.5,205.5,354.0,210.0" stroke="black" stroke-width="2" fill="none" />
<polyline points="360.0,216.5,344.0,233.0" stroke="black" stroke-width="2" fill="none" />
<polyline points="341.0,231.5,356.5,232.0,373.0,231.5,389.5,232.0,406.0,232.5,422.5,233.0" stroke="black" stroke-width="2" fill="none" />
<polyline points="411.5,197.0,426.5,197.0,442.0,196.0" stroke="black" stroke-width="2" fill="none" />
<polyline points="441.0,188.0,424.5,188.5,408.5,188.5" stroke="black" stroke-width="2" fill="none" />
<polyline points="408.0,173.5,424.0,173.0,439.5,171.0,455.0,170.0" stroke="black" stroke-width="2" fill="none" />
<polyline points="469.0,127.0,453.0,126.5,437.5,125.5,421.5,125.0" stroke="black" stroke-width="2" fill="none" />
<polyline points="424.0,118.0,441.5,116.5,458.5,115.5,474.5,114.5" stroke="black" stroke-width="2" fill="none" />
<polyline points="457.0,85.5,473.0,85.0,488.5,84.0,504.5,83.0,520.0,81.5" stroke="black" stroke-width="2" fill="none" />
<polyline points="521.0,41.5,505.0,41.0,488.5,41.0,472.0,40.5,455.5,39.5" stroke="black" stroke-width="2" fill="none" />
<polyline points="439.5,27.5,456.5,27.5,473.0,26.5,489.0,25.5,505.0,24.5,520.5,23.5" stroke="black" stroke-width="2" fill="none" />
<polyline points="521.5,10.0,505.5,10.0,489.5,9.5,473.5,9.5,458.0,9.5,442.0,10.0" stroke="black" stroke-width="2" fill="none" />
<polyline points="426.0,6.5,434.0,20.0,441.5,33.0,449.5,47.0" stroke="black" stroke-width="2" fill="none" />
<polyline points="438.0,63.0,430.0,49.5,422.0,35.5,413.5,20.5,405.5,7.5" stroke="black" stroke-width="2" fill="none" />
<polyline points="423.5,1.0,425.5,9.5,431.0,17.5,436.5,26.0,442.0,34.0,446.0,42.5,451.0,50.5,456.0,58.5,455.0,67.0" stroke="black" stroke-width="2" fill="none" />
<polyline points="488.5,104.5,473.0,105.0,456.5,106.0,439.5,106.5,423.0,107.5" stroke="black" stroke-width="2" fill="none" />
<polyline points="392.0,116.0,375.5,132.0" stroke="black" stroke-width="2" fill="none" />
<polyline points="375.0,134.0,390.5,133.0" stroke="black" stroke-width="2" fill="none" />
<polyline points="390.5,124.5,374.5,124.5" stroke="black" stroke-width="2" fill="none" />
<polyline points="371.5,119.0,387.5,104.0" stroke="black" stroke-width="2" fill="none" />
<polyline points="387.0,117.0,371.0,117.0" stroke="black" stroke-width="2" fill="none" />
<polyline points="373.5,111.5,389.5,111.0" stroke="black" stroke-width="2" fill="none" />
<polyline points="397.5,121.5,389.5,127.5,382.0,134.5" stroke="black" stroke-width="2" fill="none" />
<polyline points="398.0,152.0,392.0,160.0,386.5,168.0,382.5,174.5,390.5,161.5" stroke="black" stroke-width="2" fill="none" />
<polyline points="397.0,167.5,405.5,160.5,397.5,163.5,390.5,170.5,398.0,163.0,406.0,158.0" stroke="black" stroke-width="2" fill="none" />
<polyline points="400.5,153.5,398.5,161.5,391.5,169.5,394.5,165.0" stroke="black" stroke-width="2" fill="none" />
<polyline points="394.0,189.0,378.5,188.5" stroke="black" stroke-width="2" fill="none" />
<polyline points="384.5,187.5,396.5,179.5,403.5,171.0,403.0,162.0,399.0,169.0,390.5,173.5,382.5,179.0,374.5,182.0,366.5,184.0,358.0,189.0,350.0,193.0,341.5,197.0,333.5,203.0" stroke="black" stroke-width="2" fill="none" />
<polyline points="339.5,203.0,348.0,203.0,353.0,206.0,354.5,214.0,359.0,214.0,362.0,222.0,364.0,230.0,365.5,238.5,366.5,246.5,367.0,254.0,368.0,262.0,368.0,270.0,368.0,278.0,369.5,286.0,369.5,293.5,370.5,301.5,370.5,310.0,372.0,318.0,373.0,326.5,374.0,334.5,375.0,342.0,376.0,350.5,377.0,358.5,377.0,366.5,378.0,375.0,378.0,383.0,377.0,391.0,377.0,398.5,376.5,406.0,376.0,414.5,375.0,422.0,374.0,430.5,373.0,438.5,372.0,446.5,371.5,454.5,377.5,458.0,379.0,459.5,380.0,461.0" stroke="black" stroke-width="2" fill="none" />
<polyline points="265.0,420.5,249.0,422.0,232.0,422.5,216.0,423.5,199.5,424.0,183.0,425.0,167.5,426.0,151.5,427.5,134.5,428.5,117.0,430.0,101.0,431.0,86.5,432.5,71.5,432.5" stroke="black" stroke-width="2" fill="none" />
<polyline points="73.0,434.0,89.5,418.5,106.0,403.5,122.5,388.5,139.0,372.5" stroke="black" stroke-width="2" fill="none" />
<polyline points="139.5,371.0,142.5,378.5" stroke="black" stroke-width="2" fill="none" />
<polyline points="139.5,377.5,137.5,369.5,132.0,377.0,123.0,365.5,130.0,361.0,123.5,349.0,116.5,346.0" stroke="black" stroke-width="2" fill="none" />
<polyline points="121.0,346.0,128.5,352.0" stroke="black" stroke-width="2" fill="none" />
<polyline points="121.5,354.5,136.5,339.5" stroke="black" stroke-width="2" fill="none" />
<polyline points="151.0,340.5,169.0,325.5,186.0,310.0,202.5,295.5,219.0,280.5" stroke="black" stroke-width="2" fill="none" />
<polyline points="215.5,275.0,200.0,276.0" stroke="black" stroke-width="2" fill="none" />
<polyline points="202.5,265.5,194.5,259.0" stroke="black" stroke-width="2" fill="none" />
<polyline points="201.0,260.0,193.0,248.0" stroke="black" stroke-width="2" fill="none" />
<polyline points="195.0,252.0,199.0,260.0" stroke="black" stroke-width="2" fill="none" />
<polyline points="201.5,262.5,218.0,248.5" stroke="black" stroke-width="2" fill="none" />
<polyline points="218.0,243.0,202.0,243.5" stroke="black" stroke-width="2" fill="none" />
<polyline points="208.0,252.0,206.5,247.0,206.5,238.0,208.5,227.5,202.5,219.5,201.0,211.5,207.5,203.5,221.0,195.5,230.0,184.0,240.5,177.0,235.5,179.5,228.0,183.5,220.0,187.5" stroke="black" stroke-width="2" fill="none" />
<polyline points="216.5,192.0,224.5,189.0,232.5,186.0" stroke="black" stroke-width="2" fill="none" />
<polyline points="226.5,179.0,220.5,187.0,218.5,195.0,218.0,199.0,226.0,194.0" stroke="black" stroke-width="2" fill="none" />
<polyline points="228.0,197.0,213.0,212.0,198.0,227.0,183.0,242.5,167.5,258.0" stroke="black" stroke-width="2" fill="none" />
<polyline points="167.5,255.0,174.5,251.5,175.0,259.5" stroke="black" stroke-width="2" fill="none" />
<polyline points="172.0,252.0,170.0,260.0,168.0,268.5,166.0,267.5,166.0,275.5,170.0,280.5,169.5,285.0,174.5,284.5" stroke="black" stroke-width="2" fill="none" />
<polyline points="179.5,292.0,195.5,278.5,212.5,264.0,228.5,249.0,245.0,234.5,261.0,219.5,277.5,203.5,293.5,188.0" stroke="black" stroke-width="2" fill="none" />
<polyline points="294.5,193.5,279.0,194.5" stroke="black" stroke-width="2" fill="none" />
<polyline points="279.0,199.0,261.5,199.5,244.5,201.0,228.0,201.5,211.5,202.0,196.0,202.5" stroke="black" stroke-width="2" fill="none" />
<polyline points="200.0,204.0,192.5,199.5" stroke="black" stroke-width="2" fill="none" />
<polyline points="191.5,197.5,183.0,205.5,180.5,215.5,180.5,220.5,168.0,225.5,172.0,227.5,164.5,233.0,162.0,241.0,156.0,249.0,151.0,251.0,147.0,257.0,148.0,262.0,139.0,270.0,130.0,278.0,126.0,282.5,123.0,287.5,125.0,293.5,117.0,301.0,108.0,309.0,105.0,317.0,103.5,317.0,97.5,318.0,99.5,325.5,100.5,332.0,94.5,336.0,85.5,338.5,80.0,346.5,74.0,355.0,66.5,363.5" stroke="black" stroke-width="2" fill="none" />
<polyline points="70.0,364.0,86.5,363.5,103.0,363.5,120.0,363.0" stroke="black" stroke-width="2" fill="none" />
<polyline points="119.0,361.0,120.0,368.5,117.5,371.5,117.5,379.5,126.5,378.5,134.0,383.5" stroke="black" stroke-width="2" fill="none" />
<polyline points="135.5,393.5,151.5,393.5" stroke="black" stroke-width="2" fill="none" />
<polyline points="150.0,394.0,157.0,390.0,164.0,395.5,168.0,402.5,175.0,410.5,178.0,416.0,178.0,424.0" stroke="black" stroke-width="2" fill="none" />
<polyline points="165.0,437.0,180.5,422.0,196.0,406.5,212.0,389.5,229.0,374.0" stroke="black" stroke-width="2" fill="none" />
<polyline points="234.0,375.0,242.5,388.5,251.0,388.5,259.0,388.0,267.0,389.0" stroke="black" stroke-width="2" fill="none" />
<polyline points="262.0,373.0,246.0,374.5,230.5,375.0,214.0,375.0,197.5,375.0,181.5,375.5,166.0,376.0,151.5,377.5,136.0,377.5,120.5,379.0,105.5,379.5,90.0,379.5,75.0,379.0" stroke="black" stroke-width="2" fill="none" />
<polyline points="72.0,373.5,88.0,358.0,103.0,342.0,118.5,326.0" stroke="black" stroke-width="2" fill="none" />
<polyline points="117.5,319.5,109.5,332.5,101.5,341.0,95.5,349.0,86.5,354.0,78.0,367.5,79.5,371.0,80.5,363.0,84.5,355.0,89.0,347.5,91.0,339.5,96.0,325.5,96.0,317.5,98.0,309.0,106.0,301.0,113.0,300.0,121.0,292.0,123.5,284.5,113.5,283.5,105.5,289.5,110.5,290.0,113.5,283.0,117.5,280.5,124.5,272.5,131.5,263.0,133.5,266.0,137.5,258.5,140.0,257.0,143.0,250.0,144.0,242.0,141.5,230.5,143.0,223.0,147.5,215.0,147.0,207.5,149.5,199.5,144.5,198.5,144.5,195.0,152.0,191.0,143.5,188.5,149.5,180.5,155.5,171.5,163.0,163.5,171.0,155.5,179.0,147.0,186.5,139.0,195.5,131.0,204.5,123.0,215.5,114.5,228.0,106.5,239.0,98.5,252.0,90.0,264.0,85.5,256.0,88.0,248.5,92.0,240.5,98.0,232.5,103.5,224.5,109.0,216.5,114.0,208.5,120.0,200.5,127.5,192.0,134.5,183.5,142.0,175.5,150.0,167.0,158.0,158.5,166.0,150.0,175.0" stroke="black" stroke-width="2" fill="none" />
<polyline points="150.5,171.5,166.0,171.5" stroke="black" stroke-width="2" fill="none" />
<polyline points="164.5,188.0,148.5,188.0,133.0,187.5" stroke="black" stroke-width="2" fill="none" />
<polyline points="136.0,184.5,139.5,184.0,145.0,183.0,148.5,192.0" stroke="black" stroke-width="2" fill="none" />
<polyline points="151.5,197.5,155.0,190.5,162.0,182.5,170.0,174.0,178.0,166.0,185.5,158.0,194.0,149.5,203.0,141.5,203.0,134.5,212.0,126.0,207.0,130.0,199.0,132.0" stroke="black" stroke-width="2" fill="none" />
<polyline points="201.5,134.0,185.0,134.0,169.5,135.0,153.0,136.0,136.5,136.5,119.5,137.0,103.0,137.5,87.5,137.5,72.0,138.5" stroke="black" stroke-width="2" fill="none" />
<polyline points="67.5,133.5,82.5,118.5" stroke="black" stroke-width="2" fill="none" />
<polyline points="72.0,125.0,87.5,125.0,104.0,123.0,120.5,122.5,137.0,121.5,154.5,120.0,170.5,119.5" stroke="black" stroke-width="2" fill="none" />
<polyline points="180.5,124.0,188.5,119.0" stroke="black" stroke-width="2" fill="none" />
<polyline points="183.5,124.0,199.0,124.5,214.0,123.5" stroke="black" stroke-width="2" fill="none" />
<polyline points="217.5,130.0,209.5,134.0,205.5,145.0,197.5,152.0,189.5,160.0,181.0,169.0,173.5,178.0,165.5,187.0,157.5,198.0,149.5,207.0,149.0,208.0,152.5,200.0,160.5,192.0,167.0,184.0,174.0,176.0,181.0,168.0,187.0,160.5,196.0,152.0,205.0,144.5,208.5,136.5,220.5,134.0,231.5,125.5,235.5,123.5,228.0,128.0,220.0,134.0,212.0,138.0" stroke="black" stroke-width="2" fill="none" />
<polyline points="217.0,143.0,211.5,149.0,207.5,149.0,213.0,148.0,213.0,140.0,200.5,140.5,192.0,150.5,184.0,157.5,175.5,165.0,168.0,173.0,160.5,182.5,153.0,192.5,145.0,197.5,137.0,200.0" stroke="black" stroke-width="2" fill="none" />
<polyline points="135.0,216.5,120.0,217.5,104.5,218.0,88.5,218.0,72.5,219.0" stroke="black" stroke-width="2" fill="none" />
<polyline points="69.5,228.5,85.5,213.5" stroke="black" stroke-width="2" fill="none" />
<polyline points="84.5,197.5,69.0,212.5" stroke="black" stroke-width="2" fill="none" />
<polyline points="71.5,201.5,88.0,201.5,104.5,201.0,120.0,201.0,136.5,201.5" stroke="black" stroke-width="2" fill="none" />
<polyline points="147.5,211.5,139.5,226.5" stroke="black" stroke-width="2" fill="none" />
<polyline points="134.0,222.5,134.5,242.5,141.5,245.0" stroke="black" stroke-width="2" fill="none" />
<polyline points="132.5,240.5,140.5,243.0,148.5,236.5,157.0,227.5,165.0,220.0,173.0,214.0,170.5,215.0,160.5,223.0,151.0,229.0,147.0,237.5,148.0,248.5,159.0,245.5,162.0,238.5,170.0,232.5,177.0,237.5,177.0,245.5,178.0,253.5,182.5,261.0,183.5,265.0" stroke="black" stroke-width="2" fill="none" />
<polyline points="183.5,272.0,167.5,273.5" stroke="black" stroke-width="2" fill="none" />
<polyline points="167.0,278.5,182.5,261.5,199.5,245.5,216.5,229.5,233.0,212.5,249.5,197.0" stroke="black" stroke-width="2" fill="none" />
<polyline points="257.5,196.0,265.0,192.0,269.0,194.0,266.5,202.0,258.5,202.5,269.5,199.5,278.0,192.0,286.0,185.0" stroke="black" stroke-width="2" fill="none" />
<polyline points="294.5,185.0,278.0,184.5,261.0,184.0,244.0,183.5,227.0,182.5,210.5,183.0" stroke="black" stroke-width="2" fill="none" />
<polyline points="203.5,187.0,211.5,178.5,219.5,172.0,227.5,172.0,235.5,173.5,243.5,168.5,252.0,171.5,261.0,175.0,269.0,177.0,267.5,182.0,260.5,184.0,250.0,189.0,243.5,197.0,238.5,203.5,233.5,209.5,238.0,194.5,244.5,182.0,250.5,182.0,259.0,179.5,265.5,183.0,277.5,175.5,285.5,173.0,294.0,177.0,304.0,173.0,312.0,167.0,320.0,162.5,328.0,158.5,336.0,153.5" stroke="black" stroke-width="2" fill="none" />
<polyline points="335.0,146.5,331.0,154.5,318.0,162.5,305.5,171.0,302.5,173.0,291.5,175.0,290.5,183.0,280.5,191.0,279.0,200.0,272.0,207.5,263.0,211.0,259.0,218.5,251.0,227.0,244.0,235.0,237.0,243.5,231.0,252.0,225.0,260.0,221.5,268.0,217.0,275.5,213.0,283.5,209.0,291.5,205.0,299.5,200.5,307.5,197.5,315.5,194.5,320.5,199.5,310.5,207.0,292.0,221.0,275.5,225.0,268.5" stroke="black" stroke-width="2" fill="none" />
<polyline points="226.5,270.0,221.0,278.0" stroke="black" stroke-width="2" fill="none" />
<polyline points="232.0,286.0,249.0,286.0" stroke="black" stroke-width="2" fill="none" />
<polyline points="247.5,281.5,263.5,267.0" stroke="black" stroke-width="2" fill="none" />
<polyline points="263.5,267.5,276.0,263.5,284.0,271.5,281.5,280.0" stroke="black" stroke-width="2" fill="none" />
<polyline points="284.0,276.5,300.0,260.5" stroke="black" stroke-width="2" fill="none" />
<polyline points="294.5,249.5,278.5,265.0,263.0,280.0" stroke="black" stroke-width="2" fill="none" />
<polyline points="262.0,278.0,277.5,277.0" stroke="black" stroke-width="2" fill="none" />
<polyline points="292.0,281.5,308.0,281.0" stroke="black" stroke-width="2" fill="none" />
<polyline points="306.0,280.5,308.5,288.5,310.5,296.5,312.5,305.0,310.5,313.0,313.5,321.5,313.5,329.5,308.5,336.5,306.5,339.5,308.0,332.5,319.0,330.5" stroke="black" stroke-width="2" fill="none" />
<polyline points="327.5,281.0,329.5,277.0,338.0,276.0" stroke="black" stroke-width="2" fill="none" />
<polyline points="342.5,281.0,345.5,278.5,337.5,281.5,335.5,279.5,326.5,276.5,318.5,274.5,321.5,266.5,328.5,256.5,345.5,248.0,346.5,239.5,345.0,231.5,343.0,223.5,341.0,215.5,338.0,207.5,339.0,199.5,352.0,191.5,367.0,183.5,387.0,176.0,402.0,168.5,401.0,174.5,393.0,184.0,385.0,189.0,377.0,192.0,368.5,194.5,361.0,191.5" stroke="black" stroke-width="2" fill="none" />
<polyline points="357.0,192.0,360.0,199.5,354.0,201.5,361.0,202.0,364.0,210.5,370.0,206.5" stroke="black" stroke-width="2" fill="none" />
<polyline points="367.0,210.5,375.0,207.5,382.5,202.0,390.5,194.0,398.0,186.0,406.0,175.5,414.0,156.0" stroke="black" stroke-width="2" fill="none" />
<polyline points="392.5,203.0,408.0,202.5,424.0,202.0,439.5,201.0" stroke="black" stroke-width="2" fill="none" />
<polyline points="436.5,210.0,421.0,211.0,405.0,212.5,389.0,213.5" stroke="black" stroke-width="2" fill="none" />
<polyline points="375.5,204.5,366.5,212.5" stroke="black" stroke-width="2" fill="none" />
<polyline points="374.0,220.5,390.0,219.5,407.0,218.0,423.0,217.0" stroke="black" stroke-width="2" fill="none" />
<polyline points="390.5,239.5,374.0,240.0" stroke="black" stroke-width="2" fill="none" />
<polyline points="359.5,256.5,375.0,256.0,391.5,255.5,407.5,255.0" stroke="black" stroke-width="2" fill="none" />
<polyline points="421.0,248.5,404.0,248.5,387.5,249.0,371.0,249.5,354.5,250.0,338.5,250.0" stroke="black" stroke-width="2" fill="none" />
<polyline points="336.0,256.0,344.5,254.0,352.5,253.0" stroke="black" stroke-width="2" fill="none" />
<polyline points="342.0,264.5,326.0,280.5" stroke="black" stroke-width="2" fill="none" />
<polyline points="321.5,271.5,329.5,269.5,338.0,263.5,338.0,267.0,327.0,272.5,335.0,272.5" stroke="black" stroke-width="2" fill="none" />
<polyline points="342.5,273.5,340.5,265.5" stroke="black" stroke-width="2" fill="none" />
<polyline points="328.5,256.0,336.0,252.0,344.0,249.0" stroke="black" stroke-width="2" fill="none" />
<polyline points="350.5,255.0,342.5,257.0,334.0,258.0,326.0,261.0,318.0,271.0" stroke="black" stroke-width="2" fill="none" />
<polyline points="294.5,253.0,279.0,253.0" stroke="black" stroke-width="2" fill="none" />
<polyline points="276.5,253.0,284.5,259.0,288.5,262.5" stroke="black" stroke-width="2" fill="none" />
<polyline points="295.5,266.0,279.5,265.0,264.0,264.5,247.5,265.0" stroke="black" stroke-width="2" fill="none" />
<polyline points="248.5,271.0,256.5,275.0,257.5,268.5,260.5,269.5,264.5,277.0,274.5,278.0,274.5,282.0,268.0,280.5" stroke="black" stroke-width="2" fill="none" />
<polyline points="261.0,288.0,277.5,288.0" stroke="black" stroke-width="2" fill="none" />
<polyline points="250.5,292.5,235.5,294.0,219.5,294.0,203.5,293.5,187.5,293.5,171.0,294.0,154.0,295.0,138.0,296.5,122.5,298.5,107.0,300.0" stroke="black" stroke-width="2" fill="none" />
<polyline points="106.5,303.0,100.5,311.0,96.5,310.5,105.0,302.5" stroke="black" stroke-width="2" fill="none" />
<polyline points="99.5,301.0,91.5,309.0,91.0,317.0,89.0,324.5,87.5,332.0,80.5,340.0,74.5,348.0,68.0,356.5,66.5,359.0,74.5,349.5,82.0,338.5" stroke="black" stroke-width="2" fill="none" />
<polyline points="86.0,338.5,69.5,354.5" stroke="black" stroke-width="2" fill="none" />
<polyline points="71.0,348.5,87.0,347.5,103.5,346.5,120.0,346.5,136.5,346.0,152.5,346.0,168.5,345.0" stroke="black" stroke-width="2" fill="none" />
<polyline points="166.0,342.0,182.5,326.0,198.5,310.0" stroke="black" stroke-width="2" fill="none" />
<polyline points="198.5,324.0,182.0,324.0" stroke="black" stroke-width="2" fill="none" />
<polyline points="184.5,321.0,192.5,309.0,200.0,292.0,207.5,278.0,215.5,265.0,223.5,252.0" stroke="black" stroke-width="2" fill="none" />
<polyline points="230.5,244.5,247.0,243.5" stroke="black" stroke-width="2" fill="none" />
<polyline points="247.0,244.5,242.5,252.5,246.0,255.5" stroke="black" stroke-width="2" fill="none" />
<polyline points="257.0,260.0,249.0,268.0,252.0,273.0,259.5,276.0,256.5,269.0,264.5,274.5,272.5,269.5,279.0,265.5,287.0,270.0" stroke="black" stroke-width="2" fill="none" />
<polyline points="289.5,255.5,281.0,253.0,273.0,250.5,265.0,249.5" stroke="black" stroke-width="2" fill="none" />
<polyline points="262.5,239.0,261.5,231.5,260.5,223.5,250.0,223.5" stroke="black" stroke-width="2" fill="none" />
<polyline points="261.5,222.5,245.5,222.0,229.5,221.0" stroke="black" stroke-width="2" fill="none" />
<polyline points="228.0,214.5,231.0,208.5,225.0,209.0,228.0,217.0,231.0,225.5,233.0,233.5,235.5,241.5" stroke="black" stroke-width="2" fill="none" />
<polyline points="233.5,230.5,248.0,215.0,263.0,199.5" stroke="black" stroke-width="2" fill="none" />
<polyline points="255.0,203.0,260.5,201.5,257.5,209.5,251.5,217.5,244.5,225.0,237.5,233.0,232.5,236.0,240.5,229.5,248.5,220.5,256.5,214.5" stroke="black" stroke-width="2" fill="none" />
<polyline points="262.5,212.5,278.0,212.0" stroke="black" stroke-width="2" fill="none" />
<polyline points="260.5,218.5,245.0,219.0,230.0,219.0,215.0,218.5,200.0,217.5,184.0,217.5" stroke="black" stroke-width="2" fill="none" />
<polyline points="179.5,215.0,186.5,223.5,184.5,231.5,188.5,239.0,185.5,253.5,185.5,261.5,186.5,269.5" stroke="black" stroke-width="2" fill="none" />
<polyline points="186.0,280.0,202.5,279.5,217.0,279.0" stroke="black" stroke-width="2" fill="none" />
<polyline points="208.5,285.0,203.5,293.0,204.5,292.0,212.5,277.0,219.0,269.0,226.0,256.0,234.0,247.0,241.5,238.0" stroke="black" stroke-width="2" fill="none" />
<polyline points="247.5,232.0,231.0,232.5,215.5,232.5,199.5,233.0,183.5,233.5,167.5,235.0,152.0,236.0" stroke="black" stroke-width="2" fill="none" />
<polyline points="155.0,247.5,138.5,262.5" stroke="black" stroke-width="2" fill="none" />
<polyline points="135.0,269.0,150.5,267.5,167.0,266.5,183.0,267.0,199.0,268.5,215.0,268.5" stroke="black" stroke-width="2" fill="none" />
<polyline points="215.0,290.0,200.0,290.5,184.5,291.0" stroke="black" stroke-width="2" fill="none" />
<polyline points="179.0,292.5,171.0,294.5" stroke="black" stroke-width="2" fill="none" />
<polyline points="163.0,291.0,147.5,307.0,133.0,324.0,117.5,341.0,102.0,357.5,87.0,373.5,70.5,389.0" stroke="black" stroke-width="2" fill="none" />
<polyline points="72.0,398.0,88.0,397.0,103.0,396.0,119.0,395.5" stroke="black" stroke-width="2" fill="none" />
<polyline points="116.0,396.0,124.0,405.0" stroke="black" stroke-width="2" fill="none" />
<polyline points="122.0,415.5,130.0,427.0" stroke="black" stroke-width="2" fill="none" />
<polyline points="133.5,421.5,149.0,421.0" stroke="black" stroke-width="2" fill="none" />
<polyline points="148.0,416.0,140.5,410.0" stroke="black" stroke-width="2" fill="none" />
<polyline points="138.5,407.0,138.5,408.0,144.0,416.0,150.0,424.5" stroke="black" stroke-width="2" fill="none" />
<polyline points="149.0,425.5,141.0,421.0" stroke="black" stroke-width="2" fill="none" />
<polyline points="132.0,415.0,143.0,419.5,144.0,427.5,143.5,435.0,150.0,443.5,145.0,447.5,149.0,455.0,160.5,463.0,157.5,469.5,159.0,478.0,156.5,489.0,156.0,497.0,162.0,505.0,167.0,505.5,170.0,507.0,168.0,509.0,181.5,508.5,190.0,500.5,186.0,503.5,179.5,511.5" stroke="black" stroke-width="2" fill="none" />
<polyline points="190.0,447.5,182.0,446.0,175.0,441.0,166.5,441.0" stroke="black" stroke-width="2" fill="none" />
<polyline points="168.5,441.0,153.0,442.0,136.5,442.5,119.0,443.0,102.5,444.5,86.5,445.0,71.0,445.5" stroke="black" stroke-width="2" fill="none" />
<polyline points="66.0,440.0,83.0,439.5,99.5,437.5" stroke="black" stroke-width="2" fill="none" />
<polyline points="105.0,443.5,88.5,459.0,72.5,473.5" stroke="black" stroke-width="2" fill="none" />
<polyline points="70.0,469.0,85.5,467.5" stroke="black" stroke-width="2" fill="none" />
<polyline points="83.0,459.0,91.5,455.5,95.5,443.5,102.5,438.0" stroke="black" stroke-width="2" fill="none" />
<polyline points="120.0,434.5,135.5,434.0" stroke="black" stroke-width="2" fill="none" />
<polyline points="136.5,436.5,120.5,452.5,105.0,468.0,89.0,483.5,73.5,499.5" stroke="black" stroke-width="2" fill="none" />
<polyline points="88.0,453.5,104.0,452.5" stroke="black" stroke-width="2" fill="none" />
<polyline points="119.5,450.0,120.5,454.0" stroke="black" stroke-width="2" fill="none" />
<polyline points="123.5,449.0,125.5,457.5,137.5,450.5,150.5,466.5" stroke="black" stroke-width="2" fill="none" />
<polyline points="141.5,451.5,143.0,459.0,138.5,467.5,145.0,475.5,159.5,483.5,160.5,491.5,165.0,499.5,164.0,503.0,172.0,509.0" stroke="black" stroke-width="2" fill="none" />
<polyline points="177.5,408.5,170.0,395.5,162.0,388.5,158.0,376.0,157.0,368.0,158.0,359.5,157.0,351.5,153.0,348.0,162.0,340.0,170.0,332.5,170.0,323.5,161.5,334.5,163.5,333.0,168.5,325.0,167.0,317.0,171.0,309.0,163.0,316.0" stroke="black" stroke-width="2" fill="none" />
<polyline points="165.0,310.0,149.5,325.5" stroke="black" stroke-width="2" fill="none" />
<polyline points="148.0,328.5,152.0,330.5,150.0,338.0" stroke="black" stroke-width="2" fill="none" />
<polyline points="153.0,339.5,169.0,339.0" stroke="black" stroke-width="2" fill="none" />
<polyline points="178.0,349.0,194.0,348.5,211.0,348.0,227.0,347.0,243.0,346.0" stroke="black" stroke-width="2" fill="none" />
<polyline points="250.0,328.5,235.0,329.5,220.0,330.0,204.0,331.0" stroke="black" stroke-width="2" fill="none" />
<polyline points="201.5,335.5,217.0,335.5" stroke="black" stroke-width="2" fill="none" />
<polyline points="214.0,354.0,197.5,354.5,181.5,354.5" stroke="black" stroke-width="2" fill="none" />
<polyline points="183.0,340.5,175.5,353.0,167.5,361.0,160.0,367.0,161.0,363.0,166.0,355.0,171.0,347.0,177.0,338.5,181.5,331.5,173.0,342.0,165.0,353.5,157.0,359.5,168.0,358.5,175.0,350.5,181.0,343.0,186.0,335.0,188.0,329.0,180.0,329.0,171.5,335.5,165.5,334.5,158.0,342.5,150.0,351.0,145.0,353.0,143.5,357.0,136.5,349.5,137.5,337.5,134.0,328.5,132.0,320.0,130.0,312.0,130.5,300.0" stroke="black" stroke-width="2" fill="none" />
<polyline points="128.5,297.0,129.5,293.0" stroke="black" stroke-width="2" fill="none" />
<polyline points="138.5,295.5,123.0,310.5,108.0,326.0" stroke="black" stroke-width="2" fill="none" />
<polyline points="112.5,329.0,117.5,322.5,112.5,330.0,112.5,338.5,106.0,343.5,107.0,355.0,103.0,363.0,102.0,371.0,101.5,378.5" stroke="black" stroke-width="2" fill="none" />
<polyline points="105.0,387.0,121.0,370.5" stroke="black" stroke-width="2" fill="none" />
<polyline points="122.5,383.0,130.5,389.0" stroke="black" stroke-width="2" fill="none" />
<polyline points="122.0,388.0,124.0,392.5,127.5,395.5,136.0,393.5,141.0,399.5,142.5,407.5,146.5,415.5,151.0,416.5,147.0,421.0" stroke="black" stroke-width="2" fill="none" />
<polyline points="150.0,412.5,142.5,404.5" stroke="black" stroke-width="2" fill="none" />
<polyline points="140.5,404.0,148.5,405.0" stroke="black" stroke-width="2" fill="none" />
<polyline points="141.0,402.5,149.0,401.5,155.5,405.5,163.0,411.5" stroke="black" stroke-width="2" fill="none" />
<polyline points="136.5,404.0,120.5,419.0" stroke="black" stroke-width="2" fill="none" />
<polyline points="120.0,420.5,128.0,429.5" stroke="black" stroke-width="2" fill="none" />
<polyline points="132.5,426.5,129.0,424.5,127.0,416.0,127.5,408.0,122.5,400.0,119.5,392.0,120.5,384.0,121.5,376.0,124.5,372.0,123.5,364.0,120.5,356.0,118.5,348.0,118.5,340.0,118.0,332.0,120.5,324.0,120.5,315.5,122.0,307.5,122.0,300.0,113.5,303.5,105.5,310.5" stroke="black" stroke-width="2" fill="none" />
<polyline points="99.5,321.0,101.5,312.0,109.0,306.0,117.0,298.0,127.0,300.0,129.0,308.0,127.0,315.5,128.5,323.5,127.0,331.5,129.5,333.5,129.5,341.5,135.5,349.5,143.0,363.0,152.0,367.5,150.0,377.0,150.5,385.5,151.0,395.5,163.0,400.5,161.0,408.5,165.0,416.5,163.0,420.0,157.0,421.0,156.0,427.0,156.0,435.0,148.5,435.0,155.5,447.0,157.5,451.0,157.5,454.0,162.5,461.5,166.5,468.5,161.0,476.5,165.5,490.5" stroke="black" stroke-width="2" fill="none" />
<polyline points="179.0,457.0,175.0,463.0,168.0,455.0,164.0,445.5,157.0,451.0,149.5,443.0,149.0,435.5,142.0,433.5,135.5,426.0,132.0,420.0,130.0,412.0,137.0,403.5,141.0,395.0,134.0,400.0,126.5,397.5,118.0,390.5" stroke="black" stroke-width="2" fill="none" />
<polyline points="121.5,388.5,106.0,389.0" stroke="black" stroke-width="2" fill="none" />
<polyline points="106.5,393.0,105.0,401.0" stroke="black" stroke-width="2" fill="none" />
<polyline points="105.5,395.0,108.0,403.0,103.5,411.5,105.5,424.0,104.5,431.5,98.5,439.5,94.5,451.5,83.5,459.5,89.5,455.5,94.0,443.5,102.0,434.5" stroke="black" stroke-width="2" fill="none" />
<polyline points="103.5,419.0,86.0,419.5" stroke="black" stroke-width="2" fill="none" />
<polyline points="91.5,411.0,75.0,426.0" stroke="black" stroke-width="2" fill="none" />
<polyline points="65.0,421.5,67.0,408.0,76.0,397.0" stroke="black" stroke-width="2" fill="none" />
<polyline points="82.0,387.5,81.0,395.5,76.5,403.5,74.5,411.0,72.5,413.0" stroke="black" stroke-width="2" fill="none" />
<polyline points="57.0,403.5,65.0,398.5,73.0,391.5,81.0,379.5,78.5,393.0,76.5,397.0,68.5,405.0,64.0,413.5,63.5,421.5,71.0,430.5,68.0,438.5,69.0,447.0,69.0,455.0,69.0,463.0,70.0,471.0,71.0,478.5,71.5,482.5,70.5,490.5,69.0,498.5,64.5,511.0" stroke="black" stroke-width="2" fill="none" />
<polyline points="24.5,503.0,7.5,518.5" stroke="black" stroke-width="2" fill="none" />
<polyline points="10.5,517.5,27.0,517.5" stroke="black" stroke-width="2" fill="none" />
<polyline points="25.5,509.0,9.5,509.5" stroke="black" stroke-width="2" fill="none" />
<polyline points="7.0,490.0,23.0,489.0" stroke="black" stroke-width="2" fill="none" />
<polyline points="9.0,484.5,25.0,469.0" stroke="black" stroke-width="2" fill="none" />
<polyline points="23.0,455.5,6.5,470.5" stroke="black" stroke-width="2" fill="none" />
<polyline points="5.0,470.0,21.0,469.0" stroke="black" stroke-width="2" fill="none" />
<polyline points="22.0,477.5,5.5,477.5" stroke="black" stroke-width="2" fill="none" />
<polyline points="2.5,478.0,10.5,477.0" stroke="black" stroke-width="2" fill="none" />
<polyline points="5.0,473.5,20.5,473.0" stroke="black" stroke-width="2" fill="none" />
<polyline points="23.5,459.0,7.5,458.5" stroke="black" stroke-width="2" fill="none" />
<polyline points="5.5,454.5,21.0,439.0" stroke="black" stroke-width="2" fill="none" />
<polyline points="10.0,441.5,26.0,440.5,43.0,440.0" stroke="black" stroke-width="2" fill="none" />
<polyline points="41.0,423.5,25.5,424.0" stroke="black" stroke-width="2" fill="none" />
<polyline points="22.0,424.5,38.5,409.0" stroke="black" stroke-width="2" fill="none" />
<polyline points="27.0,409.5,44.0,395.0" stroke="black" stroke-width="2" fill="none" />
<polyline points="24.0,391.0,9.0,406.5" stroke="black" stroke-width="2" fill="none" />
<polyline points="12.0,399.0,27.5,399.5" stroke="black" stroke-width="2" fill="none" />
<polyline points="24.5,414.5,41.0,413.5" stroke="black" stroke-width="2" fill="none" />
<polyline points="40.5,423.0,24.5,423.5,8.5,425.0" stroke="black" stroke-width="2" fill="none" />
<polyline points="11.0,427.0,3.0,416.0" stroke="black" stroke-width="2" fill="none" />
<polyline points="3.0,417.0,9.0,424.5,10.0,432.5,10.5,441.0,11.0,449.0,12.0,457.5,12.0,465.0,13.0,473.5,15.5,480.0,16.5,485.0,16.5,493.0,15.5,499.0,17.5,505.0" stroke="black" stroke-width="2" fill="none" />
<polyline points="37.0,511.5,40.5,504.0,39.5,496.0,38.0,488.0,37.0,480.0,36.5,472.5,37.0,464.5,35.5,456.5,35.5,449.0,35.5,441.0,34.5,432.5,34.5,424.5,34.0,416.5,33.0,408.0,32.5,400.0,30.0,392.0,28.5,384.0,28.5,376.0,28.0,368.0,28.0,360.0,28.0,352.0,28.0,344.0,28.0,335.5,27.5,327.5,28.5,319.5,29.0,311.5,30.0,303.5,29.5,295.5,31.0,287.5,30.0,280.0,30.0,272.0,29.0,264.0,30.0,256.0,30.5,248.0,30.5,240.5,31.0,233.5,31.0,225.5,29.5,217.5,30.0,210.0,27.0,206.5" stroke="black" stroke-width="2" fill="none" />
<polyline points="36.5,220.0,20.0,221.0,3.0,222.5" stroke="black" stroke-width="2" fill="none" />
<polyline points="10.0,238.5,26.0,237.5,41.0,236.5" stroke="black" stroke-width="2" fill="none" />
<polyline points="33.5,260.0,18.0,275.5" stroke="black" stroke-width="2" fill="none" />
<polyline points="7.0,280.5,23.0,280.5,39.0,279.0" stroke="black" stroke-width="2" fill="none" />
<polyline points="34.0,279.5,19.0,294.5,3.5,309.5" stroke="black" stroke-width="2" fill="none" />
<polyline points="7.5,314.5,23.5,313.5,41.0,312.5" stroke="black" stroke-width="2" fill="none" />
<polyline points="37.5,310.5,22.5,326.5,7.5,342.0" stroke="black" stroke-width="2" fill="none" />
<polyline points="6.5,341.5,22.5,341.0,39.5,341.5" stroke="black" stroke-width="2" fill="none" />
<polyline points="43.5,341.5,27.0,357.5,10.5,373.0" stroke="black" stroke-width="2" fill="none" />
<polyline points="12.0,375.5,28.5,375.0" stroke="black" stroke-width="2" fill="none" />
<polyline points="27.0,372.0,10.0,387.5" stroke="black" stroke-width="2" fill="none" />
<polyline points="8.0,385.5,24.5,385.5" stroke="black" stroke-width="2" fill="none" />
<polyline points="12.5,393.5,28.0,393.5,43.5,393.5" stroke="black" stroke-width="2" fill="none" />
<polyline points="41.0,379.0,25.0,379.0,9.0,378.5" stroke="black" stroke-width="2" fill="none" />
<polyline points="9.5,363.5,25.5,362.5,41.0,362.5" stroke="black" stroke-width="2" fill="none" />
<polyline points="22.5,358.0,23.0,366.0,21.0,374.5,21.0,382.5,23.5,390.5" stroke="black" stroke-width="2" fill="none" />
<polyline points="3.0,398.5,13.5,406.5,22.5,414.5,26.0,422.0,25.0,430.0,26.5,438.0,27.5,446.0,27.0,453.5,28.5,461.5,29.5,469.5,30.5,477.5,31.5,485.5,31.0,494.0,29.5,502.5,32.5,510.5" stroke="black" stroke-width="2" fill="none" />
<polyline points="13.0,501.5,8.0,493.5,4.0,485.0" stroke="black" stroke-width="2" fill="none" />
<polyline points="25.5,420.5,18.0,410.0,10.5,401.5,2.5,397.5" stroke="black" stroke-width="2" fill="none" />
<polyline points="13.0,354.5,29.0,339.0,45.5,324.0" stroke="black" stroke-width="2" fill="none" />
<polyline points="43.5,326.0,27.5,326.0" stroke="black" stroke-width="2" fill="none" />
<polyline points="41.0,329.5,25.0,330.0,9.5,331.0" stroke="black" stroke-width="2" fill="none" />
<polyline points="5.0,329.5,21.0,314.5,36.0,298.5" stroke="black" stroke-width="2" fill="none" />
<polyline points="42.5,294.0,26.5,294.5,10.5,294.0" stroke="black" stroke-width="2" fill="none" />
<polyline points="7.0,266.0,23.5,265.5,40.5,264.5" stroke="black" stroke-width="2" fill="none" />
<polyline points="69.5,270.0,86.0,269.5,102.5,268.5,118.5,267.0" stroke="black" stroke-width="2" fill="none" />
<polyline points="122.5,267.5,106.5,283.0" stroke="black" stroke-width="2" fill="none" />
<polyline points="117.5,289.0,133.5,273.5,149.5,258.5,164.5,244.5,180.5,229.5,197.0,213.5,212.0,198.5" stroke="black" stroke-width="2" fill="none" />
<polyline points="228.0,199.5,223.0,201.5,212.5,203.5,204.5,214.5" stroke="black" stroke-width="2" fill="none" />
<polyline points="197.5,227.5,214.0,227.5" stroke="black" stroke-width="2" fill="none" />
<polyline points="210.5,235.5,215.5,240.0,213.5,243.0,213.0,251.0" stroke="black" stroke-width="2" fill="none" />
<polyline points="214.5,242.0,222.5,246.0" stroke="black" stroke-width="2" fill="none" />
<polyline points="230.5,255.0,216.5,255.0,201.0,255.0,184.5,255.0,168.0,255.0" stroke="black" stroke-width="2" fill="none" />
<polyline points="170.5,243.0,186.0,241.5" stroke="black" stroke-width="2" fill="none" />
<polyline points="188.5,245.5,188.5,243.5,196.5,240.5" stroke="black" stroke-width="2" fill="none" />
<polyline points="195.5,237.0,187.5,237.0" stroke="black" stroke-width="2" fill="none" />
<polyline points="183.0,253.0,194.0,251.0,193.0,259.0" stroke="black" stroke-width="2" fill="none" />
<polyline points="220.0,244.5,217.5,248.5,221.0,247.0,223.5,238.5,225.0,234.0,227.5,226.0,223.5,218.0,227.5,213.0,233.5,204.5,238.5,196.5,243.5,188.0,251.0,182.5,251.0,175.5,252.0,171.5,251.0,160.0,240.0,152.0,236.0,147.0,247.5,142.0,258.5,134.5,258.0,131.5,250.0,138.0,242.5,144.0,237.5,145.5,229.5,152.0,227.0,158.5,231.0,155.5,233.0,147.0,243.0,142.0,252.5,133.5,261.5,131.5,253.5,136.0,245.5,142.0,238.0,148.0" stroke="black" stroke-width="2" fill="none" />
<polyline points="240.5,150.5,248.5,156.5,256.5,163.0,264.0,162.0" stroke="black" stroke-width="2" fill="none" />
<polyline points="273.0,178.5,273.0,186.0,272.5,194.0,265.5,199.5,263.0,207.5,254.5,219.5,245.5,229.5,232.0,245.0,232.5,245.0,241.5,235.0,246.0,230.0,251.5,227.0,259.0,219.0,266.5,214.5,267.5,207.0,275.0,200.5,283.0,193.0,292.0,186.0,300.0,179.0,308.0,172.5" stroke="black" stroke-width="2" fill="none" />
<polyline points="312.5,173.5,301.5,181.0,289.5,191.0" stroke="black" stroke-width="2" fill="none" />
<polyline points="265.5,187.5,260.5,195.5,256.0,203.5,262.0,209.0,273.5,205.5,281.5,198.5,289.5,192.0,298.0,185.0,306.0,180.0,314.0,174.0" stroke="black" stroke-width="2" fill="none" />
<polyline points="317.5,168.5,305.5,176.5,295.5,185.0,285.0,193.0,275.0,200.5,268.0,208.5,266.5,219.0,265.5,224.0,265.0,232.5,264.5,240.5,258.5,252.0,249.5,260.0,242.0,268.0,234.0,275.5,226.5,283.0,219.5,291.0,213.5,299.0,209.0,307.5,204.5,316.0,199.5,323.5,193.0,331.5,187.5,339.5,182.5,347.5,176.0,355.0,170.0,363.0,164.5,371.0,163.5,377.0,158.0,378.5,166.5,367.5,174.5,357.5,182.5,345.5,190.5,334.5,198.0,324.0,199.5,316.5,209.5,306.5,217.0,294.5,225.0,285.0,233.0,276.5,241.5,268.5,249.5,260.5,257.5,253.5,265.5,247.5,274.0,246.5,282.0,249.0,290.0,252.0,298.0,256.5" stroke="black" stroke-width="2" fill="none" />
<polyline points="282.0,275.5,289.0,269.0,287.0,272.0,289.0,264.0,275.0,258.5,267.5,257.5,259.5,259.5,251.5,266.5,243.5,272.0" stroke="black" stroke-width="2" fill="none" />
<polyline points="229.5,250.0,213.5,250.0,198.5,251.0,183.0,251.0,167.5,250.5,152.5,251.5,136.5,251.0,121.5,250.5,106.0,250.5,89.5,251.5,73.5,252.0" stroke="black" stroke-width="2" fill="none" />
<polyline points="85.0,259.5,69.0,275.0" stroke="black" stroke-width="2" fill="none" />
<polyline points="66.0,285.0,82.5,284.0,100.5,282.5" stroke="black" stroke-width="2" fill="none" />
<polyline points="91.5,276.0,99.5,272.5,109.0,271.5,98.0,279.5,95.0,287.5,103.5,285.5,111.5,282.0,120.0,277.0,128.0,270.5,136.0,262.5" stroke="black" stroke-width="2" fill="none" />
<polyline points="129.5,263.0,146.0,262.5" stroke="black" stroke-width="2" fill="none" />
<polyline points="150.5,268.5,161.5,272.5,161.5,280.0,153.5,285.0,158.0,284.5,160.5,282.5,169.0,281.5" stroke="black" stroke-width="2" fill="none" />
<polyline points="168.5,282.0,153.0,283.0,137.5,283.5,122.5,284.0" stroke="black" stroke-width="2" fill="none" />
<polyline points="118.0,289.5,134.0,289.0" stroke="black" stroke-width="2" fill="none" />
<polyline points="131.5,279.5,139.5,274.0" stroke="black" stroke-width="2" fill="none" />
<polyline points="134.5,277.5,150.5,276.0" stroke="black" stroke-width="2" fill="none" />
<polyline points="150.5,276.5,154.5,277.5,159.5,285.5,169.5,287.5,178.0,286.0,172.0,294.5,171.0,302.5,166.5,310.5,163.5,318.5,164.0,326.5,159.0,334.5,164.0,326.5,170.0,315.5,174.0,319.5" stroke="black" stroke-width="2" fill="none" />
<polyline points="183.0,311.5,199.0,309.5" stroke="black" stroke-width="2" fill="none" />
<polyline points="194.5,316.0,180.0,316.5,165.5,317.5,149.5,318.0,133.0,319.0,115.5,319.0,98.5,318.5,82.0,317.5,66.0,318.0" stroke="black" stroke-width="2" fill="none" />
<polyline points="64.5,324.0,72.5,320.0,74.5,310.0,83.0,312.0,92.0,299.5,97.0,302.5" stroke="black" stroke-width="2" fill="none" />
<polyline points="93.0,306.0,85.5,305.5,77.5,307.5" stroke="black" stroke-width="2" fill="none" />
<polyline points="75.0,309.5,79.0,311.5,76.0,312.0,78.5,320.5" stroke="black" stroke-width="2" fill="none" />
<polyline points="88.5,325.0,73.0,341.0" stroke="black" stroke-width="2" fill="none" />
<polyline points="67.0,335.0,83.0,334.5,100.0,333.0,116.5,331.5,132.0,330.5,148.0,330.0,165.0,329.5,182.5,329.5" stroke="black" stroke-width="2" fill="none" />
<polyline points="181.5,312.5,173.5,303.5" stroke="black" stroke-width="2" fill="none" />
<polyline points="174.5,304.5,180.0,312.0" stroke="black" stroke-width="2" fill="none" />
<polyline points="177.5,312.0,174.0,304.0,176.5,296.0,167.5,293.0,159.0,296.0,151.0,292.0" stroke="black" stroke-width="2" fill="none" />
<polyline points="150.0,291.0,158.0,292.0" stroke="black" stroke-width="2" fill="none" />
<polyline points="150.5,295.0,135.0,310.5" stroke="black" stroke-width="2" fill="none" />
<polyline points="133.0,314.0,135.0,322.0,137.0,330.0,140.0,338.0,143.0,344.5,152.0,338.5" stroke="black" stroke-width="2" fill="none" />
<polyline points="150.0,356.5,151.5,361.0,143.0,367.0,152.5,368.5" stroke="black" stroke-width="2" fill="none" />
<polyline points="139.0,368.5,137.0,377.0,140.5,384.5,133.0,387.5,136.0,389.5,138.5,392.0,147.0,393.0,147.0,400.0,152.0,405.0,156.0,408.0,156.0,418.0,154.0,420.5,161.0,421.5,170.0,417.5" stroke="black" stroke-width="2" fill="none" />
<polyline points="171.0,435.5,166.0,438.0,151.5,438.0,149.0,432.0,143.5,433.0,135.5,425.5,126.0,424.5,122.0,417.0" stroke="black" stroke-width="2" fill="none" />
<polyline points="114.0,419.5,116.0,427.5" stroke="black" stroke-width="2" fill="none" />
<polyline points="114.5,433.0,112.5,427.5,112.0,419.5" stroke="black" stroke-width="2" fill="none" />
<polyline points="104.5,417.0,107.5,421.5,106.5,429.5,106.0,437.5,101.0,439.5,102.0,445.5" stroke="black" stroke-width="2" fill="none" />
<polyline points="174.0,467.0,172.0,462.0,166.0,454.0,163.0,442.0,166.0,434.0,167.5,426.0,171.0,418.0,171.5,410.5,165.0,402.0,160.0,392.0,152.5,391.0,144.0,387.0,138.5,401.5,130.0,408.5,128.5,403.0,122.5,410.5,114.0,413.5,114.0,400.0,123.0,405.5,117.5,397.5,115.5,389.5,114.0,381.5,114.0,373.0,115.5,365.0,116.5,356.5,116.0,348.5,116.0,340.0,103.5,340.0" stroke="black" stroke-width="2" fill="none" />
<polyline points="102.0,341.0,117.5,340.5" stroke="black" stroke-width="2" fill="none" />
<polyline points="120.0,351.5,128.0,359.5,131.5,362.5" stroke="black" stroke-width="2" fill="none" />
<polyline points="134.5,364.0,150.0,363.5,166.0,362.0" stroke="black" stroke-width="2" fill="none" />
<polyline points="169.5,382.0,185.5,382.0,200.5,382.0,215.5,383.0,230.0,384.5" stroke="black" stroke-width="2" fill="none" />
<polyline points="235.5,375.5,239.0,383.0,245.0,391.0,245.0,399.0,244.0,412.5,244.0,420.5" stroke="black" stroke-width="2" fill="none" />
<polyline points="229.5,407.5,232.5,415.5,234.5,423.0,231.5,431.0,236.0,435.0,235.0,443.0,233.5,451.0,232.0,459.0,229.0,467.0,223.0,475.0,216.0,483.5" stroke="black" stroke-width="2" fill="none" />
<polyline points="233.5,464.5,225.5,480.5,217.5,487.0,210.0,490.5,202.5,493.5,194.5,496.0,195.0,486.0,199.0,478.0,210.0,472.0,213.0,464.0,218.0,456.0,221.0,448.0,223.0,440.0,223.5,433.5,226.5,426.0,229.5,418.0,229.0,410.5,230.0,402.5" stroke="black" stroke-width="2" fill="none" />
<polyline points="250.5,384.0,242.5,378.5,234.0,370.0" stroke="black" stroke-width="2" fill="none" />
<polyline points="235.0,370.0,242.0,378.0" stroke="black" stroke-width="2" fill="none" />
<polyline points="194.0,386.5,191.0,394.5,190.5,402.5,190.5,410.5,190.5,418.5,190.5,426.5,189.0,434.0,183.0,441.5,180.0,442.5,181.5,434.0" stroke="black" stroke-width="2" fill="none" />
<polyline points="194.5,432.0,194.5,424.0,192.5,414.5,192.5,406.5,192.5,398.5,192.5,390.5" stroke="black" stroke-width="2" fill="none" />
<polyline points="193.0,350.0,190.0,347.0,193.0,344.0" stroke="black" stroke-width="2" fill="none" />
<polyline points="166.5,321.0,150.5,321.5,135.0,322.5" stroke="black" stroke-width="2" fill="none" />
<polyline points="124.0,316.0,124.0,324.0,124.5,331.5,125.5,342.5,131.0,350.0,133.0,351.0,135.0,361.5,142.0,366.5,147.0,373.5,154.5,383.5,154.5,392.0,159.5,398.0,168.5,399.0,168.5,403.0,176.0,412.0" stroke="black" stroke-width="2" fill="none" />
<polyline points="122.5,405.0,114.5,411.0,103.5,410.0,102.0,408.0,95.0,407.0,97.0,403.0,92.0,395.5,90.0,387.5,92.0,380.0,93.0,372.0,95.0,364.0,93.5,359.5" stroke="black" stroke-width="2" fill="none" />
<polyline points="90.0,357.0,106.0,357.5" stroke="black" stroke-width="2" fill="none" />
<polyline points="103.0,352.0,111.5,355.0,113.0,356.5,108.0,359.0,106.5,367.0,105.5,375.0,105.5,383.5" stroke="black" stroke-width="2" fill="none" />
<polyline points="81.5,370.5,92.5,359.5,90.5,367.5,86.5,375.0,89.0,380.0,87.5,388.0,89.5,396.0,94.5,404.5,100.0,413.0,91.0,422.0,86.5,424.5,88.5,421.0,88.5,425.5" stroke="black" stroke-width="2" fill="none" />
<polyline points="73.0,366.5,81.0,351.5" stroke="black" stroke-width="2" fill="none" />
<polyline points="93.0,347.0,96.0,341.0,104.0,335.0,110.0,321.0,118.0,312.0" stroke="black" stroke-width="2" fill="none" />
<polyline points="120.5,311.0,117.5,319.0,113.0,326.5,107.0,334.5,100.5,343.0,95.5,345.0,96.0,350.0,89.0,357.0,86.0,365.0,85.0,371.5,81.0,379.5,76.0,387.5,67.0,396.0,66.0,404.0,68.0,413.0,67.0,421.0,71.0,425.0,65.0,428.0" stroke="black" stroke-width="2" fill="none" />
<polyline points="62.5,363.5,70.5,356.5,78.5,346.5,87.0,337.5" stroke="black" stroke-width="2" fill="none" />
<polyline points="74.0,326.0,90.5,310.0" stroke="black" stroke-width="2" fill="none" />
<polyline points="85.0,301.5,68.0,301.5" stroke="black" stroke-width="2" fill="none" />
<polyline points="70.0,308.5,87.0,293.5" stroke="black" stroke-width="2" fill="none" />
<polyline points="88.5,295.5,83.5,294.5,91.5,292.5,99.5,290.5,101.5,283.5" stroke="black" stroke-width="2" fill="none" />
<polyline points="103.5,292.5,95.5,294.5,87.5,294.0,79.5,297.5" stroke="black" stroke-width="2" fill="none" />
<polyline points="97.0,296.5,92.0,304.5,86.0,310.0,73.0,320.5" stroke="black" stroke-width="2" fill="none" />
<polyline points="81.5,317.5,73.5,324.0,65.5,329.0" stroke="black" stroke-width="2" fill="none" />
<polyline points="75.0,384.0,76.0,375.5,74.5,367.5,78.5,360.0,82.5,352.0,85.5,344.0,99.5,338.5,107.5,330.5,112.0,322.5,116.0,314.5,118.0,306.5" stroke="black" stroke-width="2" fill="none" />
<polyline points="117.0,305.5,112.0,313.5,108.0,319.0,99.5,326.5,106.5,322.5,109.5,316.5,117.5,305.5,129.5,298.5,137.0,292.5" stroke="black" stroke-width="2" fill="none" />
<polyline points="153.5,304.5,169.0,304.5" stroke="black" stroke-width="2" fill="none" />
<polyline points="177.5,301.5,182.5,309.5" stroke="black" stroke-width="2" fill="none" />
<polyline points="168.0,281.5,169.0,273.5,159.0,264.5" stroke="black" stroke-width="2" fill="none" />
<polyline points="150.5,273.5,152.5,277.0,153.5,285.0,153.0,290.0,158.0,300.0" stroke="black" stroke-width="2" fill="none" />
<polyline points="185.0,269.5,183.0,261.0,182.5,253.0,192.5,242.0,192.5,239.0,189.0,235.0,189.5,227.0,192.5,219.5,189.5,212.5,188.0,207.5" stroke="black" stroke-width="2" fill="none" />
<polyline points="181.0,209.0,189.0,204.0,197.0,206.5,205.5,206.5,213.5,198.5,221.5,193.5,222.0,204.0,220.0,212.0,216.5,220.0,218.0,228.5,217.0,236.5,210.0,242.5,205.5,250.0" stroke="black" stroke-width="2" fill="none" />
<polyline points="169.0,239.0,167.0,247.0,162.0,255.5,156.5,263.5,146.5,267.5,149.0,274.0,139.5,286.0,135.5,294.0,133.5,302.0,130.5,305.5,131.5,313.0,133.5,321.5,136.0,330.0,135.0,338.0,134.5,341.0,139.0,348.5,132.5,359.5,132.5,363.0,133.0,371.0,127.0,370.0,130.5,378.5,124.0,385.0,130.0,386.0,134.0,394.0,138.0,395.0,133.0,404.0,120.0,411.0,121.0,421.5,127.5,429.5,136.5,435.5,138.5,443.0,136.5,451.5,133.0,459.5,135.0,467.5,135.0,458.5,143.5,452.5,145.5,451.0,154.0,456.0,157.0,459.5,157.0,465.5,162.0,469.5,166.5,472.0,174.0,468.0" stroke="black" stroke-width="2" fill="none" />
<polyline points="127.0,372.5,126.0,365.5,123.0,357.5" stroke="black" stroke-width="2" fill="none" />
<polyline points="126.5,273.5,134.5,275.5,142.5,267.5,150.5,259.0,159.0,261.0,166.5,246.5" stroke="black" stroke-width="2" fill="none" />
<polyline points="167.5,240.5,162.5,248.5,159.5,256.5,154.0,264.5,147.5,272.5,146.5,280.0,149.0,288.0,152.0,296.0,160.0,299.0,159.0,308.5,158.0,307.5,169.0,310.5,175.0,315.5" stroke="black" stroke-width="2" fill="none" />
<polyline points="220.0,306.0,220.0,314.5,221.0,322.5,220.5,330.5" stroke="black" stroke-width="2" fill="none" />
<polyline points="245.5,251.0,248.5,255.0,252.5,247.0,251.5,239.0" stroke="black" stroke-width="2" fill="none" />
<polyline points="248.0,211.0,239.5,210.5" stroke="black" stroke-width="2" fill="none" />
<polyline points="241.0,208.0,249.5,208.5" stroke="black" stroke-width="2" fill="none" />
<polyline points="239.0,202.5,247.5,193.5,255.5,189.0,253.5,196.0,248.0,204.5,253.0,207.5,252.0,201.5,259.5,190.5,267.5,186.5,268.0,191.5,258.0,192.5,251.5,200.5,250.0,199.0,258.0,187.0" stroke="black" stroke-width="2" fill="none" />
<polyline points="225.0,178.0,217.0,186.0,210.0,195.5,210.0,207.5,204.5,216.0,210.5,222.0,214.5,223.0,216.0,229.5,224.0,231.5" stroke="black" stroke-width="2" fill="none" />
<polyline points="221.5,214.0,220.5,222.0,227.5,227.0,229.5,234.5,231.5,242.5,225.5,250.5,220.5,258.5,215.0,266.5,211.0,274.5,206.0,283.0,201.0,291.0,197.0,299.0,194.0,306.5,190.0,314.5,184.5,322.5,179.5,330.5,169.5,338.5,164.5,341.5,161.5,346.5" stroke="black" stroke-width="2" fill="none" />
<polyline points="150.0,255.5,142.0,257.5,136.0,254.5,134.0,258.0,133.5,254.0,130.5,246.0,122.0,253.5,114.0,260.5" stroke="black" stroke-width="2" fill="none" />
<polyline points="106.5,265.5,113.5,264.5,111.0,272.0" stroke="black" stroke-width="2" fill="none" />
<polyline points="136.5,234.0,120.5,235.0,104.5,235.5,88.0,235.5,72.0,236.0" stroke="black" stroke-width="2" fill="none" />
<polyline points="72.0,196.5,87.0,181.0" stroke="black" stroke-width="2" fill="none" />
<polyline points="71.5,186.0,87.0,185.5,102.5,185.5,118.5,186.0" stroke="black" stroke-width="2" fill="none" />
<polyline points="134.5,156.0,151.0,155.5,168.0,154.5,184.5,153.5" stroke="black" stroke-width="2" fill="none" />
<polyline points="200.5,165.5,190.5,173.5,181.5,181.5,173.5,190.0,167.0,198.0,161.5,206.0,168.5,196.5,176.0,188.5,184.0,180.5,192.0,173.5,200.0,167.5" stroke="black" stroke-width="2" fill="none" />
<polyline points="221.5,172.0,212.5,180.0,205.0,188.5,205.0,196.5,209.5,196.0,217.0,186.5,224.5,178.5,234.5,182.5,240.0,177.5,242.5,172.5" stroke="black" stroke-width="2" fill="none" />
<polyline points="231.0,176.0,223.5,175.0,216.0,181.5,208.0,189.5,207.0,190.5,215.0,182.5,223.0,174.5" stroke="black" stroke-width="2" fill="none" />
<polyline points="183.0,201.0,166.0,202.0" stroke="black" stroke-width="2" fill="none" />
<polyline points="180.0,206.0,188.5,198.0,196.5,198.0" stroke="black" stroke-width="2" fill="none" />
<polyline points="168.5,220.0,152.5,220.5" stroke="black" stroke-width="2" fill="none" />
<polyline points="164.5,229.5,165.5,227.5,174.0,226.0,184.0,218.0,191.0,220.0,193.0,209.0" stroke="black" stroke-width="2" fill="none" />
<polyline points="143.0,206.0,138.0,205.0,138.5,197.5,135.5,189.5,137.0,185.5,147.5,177.5,145.5,169.0,146.5,161.0" stroke="black" stroke-width="2" fill="none" />
<polyline points="120.5,168.0,104.0,167.5,88.0,168.5,73.0,169.5" stroke="black" stroke-width="2" fill="none" />
<polyline points="73.0,164.5,89.5,149.0" stroke="black" stroke-width="2" fill="none" />
<polyline points="88.0,133.5,72.5,149.0" stroke="black" stroke-width="2" fill="none" />
<polyline points="72.0,150.0,87.5,150.0,103.0,150.0,118.5,150.0" stroke="black" stroke-width="2" fill="none" />
<polyline points="133.0,156.5,131.0,166.5,132.5,164.5,126.5,158.0,129.5,149.5,127.0,141.5,129.5,133.0,131.5,125.0,132.5,117.5,134.0,109.5,133.0,103.5,125.0,123.5" stroke="black" stroke-width="2" fill="none" />
<polyline points="154.0,129.0,147.0,134.5,156.0,126.5" stroke="black" stroke-width="2" fill="none" />
<polyline points="184.5,104.5,167.0,105.0,151.0,106.0,134.5,106.0,118.5,106.5,103.5,107.0,88.5,108.0,72.5,108.5" stroke="black" stroke-width="2" fill="none" />
<polyline points="70.5,101.0,87.0,85.5" stroke="black" stroke-width="2" fill="none" />
<polyline points="87.0,74.0,71.5,89.5" stroke="black" stroke-width="2" fill="none" />
<polyline points="76.0,95.0,92.0,94.0,106.5,93.0,121.5,92.5,137.5,91.5,153.0,91.5,168.5,90.0,184.5,89.5,200.5,89.0" stroke="black" stroke-width="2" fill="none" />
<polyline points="199.0,71.5,182.5,73.0,166.0,74.0,150.0,75.0,134.0,75.5,118.0,76.5,102.5,77.0,87.5,77.5,71.5,77.5" stroke="black" stroke-width="2" fill="none" />
<polyline points="71.5,56.0,87.0,55.5,103.0,56.0,118.5,55.5,134.0,54.5,150.0,54.5,166.5,54.5,183.0,55.5,200.0,56.5" stroke="black" stroke-width="2" fill="none" />
<polyline points="196.0,40.0,212.5,40.5,229.0,40.5,245.5,41.0,262.5,41.5,279.0,41.0,295.5,41.0,311.0,41.0,327.5,39.5,344.5,38.0" stroke="black" stroke-width="2" fill="none" />
<polyline points="340.0,73.0,324.0,73.0,307.0,74.0,290.5,75.0" stroke="black" stroke-width="2" fill="none" />
<polyline points="275.5,59.0,291.0,59.0,307.0,58.5,324.0,57.5,341.0,57.0" stroke="black" stroke-width="2" fill="none" />
<polyline points="346.0,90.5,329.5,90.0,313.0,90.5" stroke="black" stroke-width="2" fill="none" />
<polyline points="334.5,98.5,334.5,106.0,334.5,114.0,336.0,121.5,338.0,129.5" stroke="black" stroke-width="2" fill="none" />
<polyline points="327.5,120.0,343.5,103.5" stroke="black" stroke-width="2" fill="none" />
<polyline points="345.5,105.5,329.5,106.5" stroke="black" stroke-width="2" fill="none" />
<polyline points="303.0,133.0,295.0,135.5,290.0,139.5,301.0,131.5" stroke="black" stroke-width="2" fill="none" />
<polyline points="302.0,134.0,292.0,141.5,295.5,139.5" stroke="black" stroke-width="2" fill="none" />
<polyline points="357.0,139.0,370.5,131.5,381.5,124.0,392.0,116.5,387.0,108.5,381.0,100.5,378.0,93.0,375.0,85.0,367.0,83.0,364.0,83.0" stroke="black" stroke-width="2" fill="none" />
<polyline points="363.0,83.0,368.0,91.0,367.0,98.5,369.5,101.5,369.5,109.5,369.5,117.5,369.5,125.0,364.0,133.0,367.5,130.5" stroke="black" stroke-width="2" fill="none" />
<polyline points="387.5,105.5,379.5,93.5" stroke="black" stroke-width="2" fill="none" />
<polyline points="386.5,90.5,369.0,90.0" stroke="black" stroke-width="2" fill="none" />
<polyline points="322.0,12.5,306.5,12.0,291.0,12.5,276.0,12.5" stroke="black" stroke-width="2" fill="none" />
<polyline points="259.5,10.5,242.5,11.5,226.5,12.0" stroke="black" stroke-width="2" fill="none" />
<polyline points="199.0,8.0,183.5,9.5" stroke="black" stroke-width="2" fill="none" />
<polyline points="166.5,10.5,150.0,12.0" stroke="black" stroke-width="2" fill="none" />
<polyline points="185.5,40.5,168.5,40.0,151.0,39.0,135.0,39.5,119.0,40.0,102.5,39.5,86.0,40.0,70.0,40.0" stroke="black" stroke-width="2" fill="none" />
<polyline points="67.0,26.0,83.0,25.0,99.5,24.5,116.0,24.5,132.0,24.5,148.5,24.0,166.0,24.5,184.0,23.0,202.0,22.5,219.0,22.0,235.5,21.5,250.5,22.0,266.5,22.5,282.0,22.0,296.5,21.5,311.5,20.5,327.5,20.0,344.5,19.0" stroke="black" stroke-width="2" fill="none" />
<polyline points="256.0,54.0,269.5,62.0,281.5,70.0,292.5,78.0,301.5,86.0,307.5,93.5,316.5,102.0,322.5,110.0,328.0,118.0,332.5,126.5,338.5,134.5,344.5,142.5" stroke="black" stroke-width="2" fill="none" />
<polyline points="349.5,198.5,357.5,203.0,357.0,211.0" stroke="black" stroke-width="2" fill="none" />
<polyline points="357.5,218.0,341.0,218.5" stroke="black" stroke-width="2" fill="none" />
<polyline points="346.0,203.5,348.0,212.0,348.5,220.0,350.0,228.0,351.5,236.0,352.5,244.0" stroke="black" stroke-width="2" fill="none" />
<polyline points="365.5,266.5,365.0,274.5,365.5,282.5,364.5,290.5,364.5,298.0,364.0,306.0,365.0,314.0,364.0,322.0,364.0,329.5,363.0,337.5,369.5,347.5,370.0,355.0,371.0,363.0,372.0,371.0,370.0,379.5,370.0,387.5" stroke="black" stroke-width="2" fill="none" />
<polyline points="460.5,324.0,468.5,308.0,476.0,295.5,483.5,287.0,491.5,280.5,499.0,275.5,506.5,272.5,501.0,274.5,486.5,283.0,477.0,291.0,470.0,299.0,466.0,307.0,461.5,314.5,459.0,322.5,457.5,330.0,456.0,337.5,455.0,345.5,453.5,353.0,453.5,361.0,453.5,369.0,452.5,377.0,451.0,385.0,449.5,393.0,449.5,401.5,448.0,409.5,447.5,417.5,438.5,425.5,433.0,434.0,431.0,442.0,431.0,449.5,440.0,457.5,438.0,465.5,436.0,474.0,433.0,481.0" stroke="black" stroke-width="2" fill="none" />
<polyline points="380.0,357.5,379.5,349.5,379.5,342.0,378.5,333.5,377.5,325.5,375.5,315.5,374.5,307.5,373.5,300.0,382.0,290.0,381.0,282.0,383.0,274.0,379.5,272.0,377.5,264.5" stroke="black" stroke-width="2" fill="none" />
<polyline points="363.0,203.5,346.5,203.5" stroke="black" stroke-width="2" fill="none" />
<polyline points="301.5,218.0,294.5,226.0,285.5,234.0,292.0,228.0,300.0,219.5" stroke="black" stroke-width="2" fill="none" />
<polyline points="204.5,120.0,197.0,125.0,188.5,133.5,187.5,134.5,193.0,126.5,205.0,118.5" stroke="black" stroke-width="2" fill="none" />
<polyline points="253.0,88.0,241.0,96.0,227.5,103.5,216.5,111.5,200.5,118.5,185.5,121.5,179.5,128.5,184.5,124.5,197.5,121.0,205.0,116.0,218.0,111.0,226.0,105.0,234.0,100.0,241.5,95.0,249.5,90.0,257.5,85.5" stroke="black" stroke-width="2" fill="none" />
<polyline points="132.5,11.0,118.0,11.0,103.0,11.0,87.0,10.5,71.0,11.0" stroke="black" stroke-width="2" fill="none" />
<polyline points="43.5,59.5,28.0,60.0" stroke="black" stroke-width="2" fill="none" />
<polyline points="21.0,66.0,17.0,74.0,13.0,81.5,7.0,90.0,4.0,98.0,7.5,90.0,15.0,78.5" stroke="black" stroke-width="2" fill="none" />
<polyline points="25.5,78.5,41.0,78.5" stroke="black" stroke-width="2" fill="none" />
<polyline points="39.5,105.0,22.0,104.5,5.0,104.0" stroke="black" stroke-width="2" fill="none" />
<polyline points="11.5,95.0,27.0,94.0,41.5,93.0" stroke="black" stroke-width="2" fill="none" />
<polyline points="38.5,119.0,22.5,118.0,6.5,118.5" stroke="black" stroke-width="2" fill="none" />
<polyline points="3.5,137.5,20.0,137.5,35.5,136.0" stroke="black" stroke-width="2" fill="none" />
<polyline points="38.0,157.0,21.5,157.5,6.0,158.0" stroke="black" stroke-width="2" fill="none" />
<polyline points="7.5,171.0,23.0,170.0,39.0,169.0" stroke="black" stroke-width="2" fill="none" />
<polyline points="36.5,202.0,21.5,202.0,6.0,202.5" stroke="black" stroke-width="2" fill="none" />
<polyline points="5.5,184.5,21.0,184.5,36.5,183.5" stroke="black" stroke-width="2" fill="none" />
<polyline points="66.0,147.0,65.5,155.0,62.5,163.0,65.0,170.5,65.0,178.0,64.5,186.0,65.0,194.5,66.0,202.5,65.0,210.5,65.5,218.5,64.5,231.5,64.5,239.5,65.5,247.5,65.5,255.5,67.0,264.0,67.0,272.5,66.0,280.5,65.5,288.5,65.5,296.5,67.0,304.5,66.0,312.5,67.0,320.5,69.0,325.5,67.0,333.5,68.0,341.5,68.0,349.0,64.5,357.0,67.5,366.5,67.5,374.5,67.0,382.5,64.0,390.5,66.0,393.5,60.0,401.5,63.5,395.5,65.0,393.5,73.0,386.5" stroke="black" stroke-width="2" fill="none" />
<polyline points="41.5,253.0,25.0,254.0,9.0,255.0" stroke="black" stroke-width="2" fill="none" />
<polyline points="511.0,9.0,503.5,14.0,495.5,22.0,487.5,30.0,479.0,38.0,471.0,46.0,463.0,54.0,461.0,55.5,469.0,47.5,476.5,39.0,484.0,30.5,491.0,22.0,501.0,13.5,511.0,5.5" stroke="black" stroke-width="2" fill="none" />
</svg>