<svg xmlns="http://www.w3.org/2000/svg" version="1.1"><polyline points="234.5,171.0,228.0,178.0,221.5,186.0,220.5,195.0,230.5,200.0,227.5,208.5,229.5,208.0,235.0,213.0,236.5,217.0" stroke="black" stroke-width="2" fill="none" />
<polyline points="235.0,214.5,251.5,198.5,266.5,183.0" stroke="black" stroke-width="2" fill="none" />
<polyline points="276.0,183.0,259.5,199.0,244.5,215.0,229.5,230.0" stroke="black" stroke-width="2" fill="none" />
<polyline points="227.5,234.0,243.5,233.0,261.0,233.0,278.5,232.5,295.0,232.0" stroke="black" stroke-width="2" fill="none" />
<polyline points="293.0,231.5,277.5,247.0,261.5,262.5" stroke="black" stroke-width="2" fill="none" />
<polyline points="261.5,263.0,269.5,260.0,277.5,260.0,285.5,260.0,294.0,260.0,302.0,259.5,309.5,260.0" stroke="black" stroke-width="2" fill="none" />
<polyline points="309.5,249.5,293.5,265.0" stroke="black" stroke-width="2" fill="none" />
<polyline points="277.0,262.5,292.0,247.5" stroke="black" stroke-width="2" fill="none" />
<polyline points="293.0,237.5,276.0,238.5,260.5,239.5,245.0,240.5,229.0,240.5" stroke="black" stroke-width="2" fill="none" />
<polyline points="230.0,246.5,246.0,230.0,261.5,214.5,276.5,199.5,292.5,184.5" stroke="black" stroke-width="2" fill="none" />
<polyline points="293.5,197.5,277.0,213.5,261.0,228.5,245.5,244.5,229.5,260.0" stroke="black" stroke-width="2" fill="none" />
<polyline points="229.0,259.5,246.0,258.5,262.5,257.5,280.0,257.0,298.0,257.0,314.5,257.0" stroke="black" stroke-width="2" fill="none" />
<polyline points="313.0,244.5,296.0,245.5,279.0,247.0,262.0,247.5,244.5,247.0,228.0,248.0" stroke="black" stroke-width="2" fill="none" />
<polyline points="216.5,248.0,200.0,263.5" stroke="black" stroke-width="2" fill="none" />
<polyline points="196.0,260.0,212.0,260.0" stroke="black" stroke-width="2" fill="none" />
<polyline points="210.5,253.0,194.5,254.0" stroke="black" stroke-width="2" fill="none" />
<polyline points="197.5,241.5,206.0,257.0,214.0,258.0,222.0,258.5,230.0,259.0,238.0,260.0,246.5,260.5,251.5,263.5,252.0,271.5,252.0,279.5,245.0,287.5,231.5,295.5,225.5,303.5,223.5,311.5,219.0,315.5,221.0,323.5,227.0,320.0,220.5,332.0,225.5,335.0,232.0,327.0,240.0,321.0,244.0,327.5,257.0,324.5,265.5,323.5,270.0,323.5" stroke="black" stroke-width="2" fill="none" />
<polyline points="275.5,311.5,259.5,327.5,244.0,343.5,228.0,359.5" stroke="black" stroke-width="2" fill="none" />
<polyline points="230.0,358.5,247.0,358.5,263.0,359.0,279.0,359.5,294.5,360.5,311.0,361.0,328.0,361.0" stroke="black" stroke-width="2" fill="none" />
<polyline points="328.5,356.5,312.0,372.0,295.5,388.0" stroke="black" stroke-width="2" fill="none" />
<polyline points="309.5,389.5,325.0,374.0" stroke="black" stroke-width="2" fill="none" />
<polyline points="308.5,360.0,292.0,376.5,276.5,393.0" stroke="black" stroke-width="2" fill="none" />
<polyline points="263.0,392.0,280.0,375.0,296.5,358.5" stroke="black" stroke-width="2" fill="none" />
<polyline points="294.0,359.0,302.0,361.5,310.0,361.5,316.5,362.0,317.5,370.0,319.0,378.0" stroke="black" stroke-width="2" fill="none" />
<polyline points="295.5,345.0,279.5,361.0,263.5,376.5,247.5,393.0" stroke="black" stroke-width="2" fill="none" />
<polyline points="247.5,394.0,263.5,393.5" stroke="black" stroke-width="2" fill="none" />
<polyline points="262.5,384.5,270.5,381.5,278.5,381.0,286.0,382.0,294.0,382.0,302.0,381.5,309.5,380.5,318.0,376.5" stroke="black" stroke-width="2" fill="none" />
<polyline points="330.0,367.5,313.5,367.0,297.0,368.0,280.5,368.0,264.5,369.0,249.0,369.0,233.0,368.5" stroke="black" stroke-width="2" fill="none" />
<polyline points="231.5,352.5,247.5,351.5,263.5,350.5,280.0,350.0,296.0,350.5" stroke="black" stroke-width="2" fill="none" />
<polyline points="293.5,325.0,277.5,340.5,261.5,356.0,246.5,372.5,232.0,389.5" stroke="black" stroke-width="2" fill="none" />
<polyline points="214.5,390.5,229.0,374.5,244.5,357.5,260.5,341.0,276.5,325.0,292.0,310.0" stroke="black" stroke-width="2" fill="none" />
<polyline points="295.0,319.5,280.0,319.0,264.5,319.0,248.0,319.5,232.0,319.0" stroke="black" stroke-width="2" fill="none" />
<polyline points="226.0,319.0,238.0,320.0,241.0,320.5" stroke="black" stroke-width="2" fill="none" />
<polyline points="233.0,327.0,250.5,312.0,267.0,297.0" stroke="black" stroke-width="2" fill="none" />
<polyline points="264.0,287.0,272.0,291.5,279.5,294.0,287.0,300.0" stroke="black" stroke-width="2" fill="none" />
<polyline points="278.0,294.5,262.5,309.5,245.5,324.0,228.5,339.5" stroke="black" stroke-width="2" fill="none" />
<polyline points="228.5,343.0,245.5,342.5,262.0,342.0,278.5,341.5,294.0,342.0" stroke="black" stroke-width="2" fill="none" />
<polyline points="294.0,335.0,278.0,335.5,263.0,335.0,248.0,334.0,232.5,334.0" stroke="black" stroke-width="2" fill="none" />
<polyline points="231.5,328.5,247.0,328.0,263.5,328.5,280.0,328.5,297.0,328.0,313.0,328.5" stroke="black" stroke-width="2" fill="none" />
<polyline points="295.0,310.5,278.5,311.0,261.5,312.0,244.0,313.0,227.0,313.0,211.0,313.0" stroke="black" stroke-width="2" fill="none" />
<polyline points="212.5,323.0,214.0,331.0" stroke="black" stroke-width="2" fill="none" />
<polyline points="213.5,323.5,215.5,324.5,218.5,332.5,218.5,340.5,219.5,348.5,219.0,356.5,217.0,365.0" stroke="black" stroke-width="2" fill="none" />
<polyline points="212.5,374.0,196.5,389.0" stroke="black" stroke-width="2" fill="none" />
<polyline points="199.5,386.5,215.5,385.0,231.0,384.0,247.0,384.0,263.0,384.0,280.0,384.0,295.5,383.0,312.5,382.5,329.5,382.0" stroke="black" stroke-width="2" fill="none" />
<polyline points="283.5,429.0,267.5,429.5,251.5,430.0" stroke="black" stroke-width="2" fill="none" />
<polyline points="248.5,439.5,265.0,439.0,281.5,438.0" stroke="black" stroke-width="2" fill="none" />
<polyline points="274.5,442.0,260.0,457.5" stroke="black" stroke-width="2" fill="none" />
<polyline points="264.5,460.5,280.5,459.5,296.0,458.5,311.5,457.5" stroke="black" stroke-width="2" fill="none" />
<polyline points="306.0,455.0,290.5,470.5,276.0,486.0,261.0,501.0,246.0,516.0" stroke="black" stroke-width="2" fill="none" />
<polyline points="249.5,524.5,265.5,524.0" stroke="black" stroke-width="2" fill="none" />
<polyline points="263.0,517.0,270.5,515.0,279.0,514.5,287.0,515.5,295.0,514.0,303.0,514.0,310.5,514.0,318.5,512.5" stroke="black" stroke-width="2" fill="none" />
<polyline points="324.5,504.0,308.5,519.5" stroke="black" stroke-width="2" fill="none" />
<polyline points="294.0,515.0,309.0,500.0" stroke="black" stroke-width="2" fill="none" />
<polyline points="311.5,496.5,295.0,497.5,278.5,498.0,262.5,499.0,247.0,499.5,232.0,499.5" stroke="black" stroke-width="2" fill="none" />
<polyline points="234.5,492.0,250.0,491.5,265.0,490.5,279.5,489.5,294.5,488.5,310.0,487.0" stroke="black" stroke-width="2" fill="none" />
<polyline points="308.5,484.5,292.5,500.0,276.5,515.0" stroke="black" stroke-width="2" fill="none" />
<polyline points="265.0,514.0,261.5,522.0,261.5,530.0,263.0,538.0,263.5,546.0,262.5,554.0,262.5,562.0,262.5,570.0,267.0,573.0,275.0,573.0,283.0,573.0,290.5,573.0,299.0,573.5,307.0,573.5,315.0,574.0,323.0,574.0,330.5,574.0,338.5,575.5,346.5,585.5,348.5,592.5,356.5,595.0" stroke="black" stroke-width="2" fill="none" />
<polyline points="357.5,602.5,341.5,617.0" stroke="black" stroke-width="2" fill="none" />
<polyline points="340.5,618.0,324.0,618.5,308.0,617.0,291.5,616.5,275.0,617.0,260.0,619.0,244.5,620.0" stroke="black" stroke-width="2" fill="none" />
<polyline points="278.0,610.5,293.0,594.5,308.5,578.5" stroke="black" stroke-width="2" fill="none" />
<polyline points="296.5,581.0,280.0,596.5,264.0,613.5" stroke="black" stroke-width="2" fill="none" />
<polyline points="247.0,617.5,263.5,602.0,280.5,587.5" stroke="black" stroke-width="2" fill="none" />
<polyline points="259.5,586.0,243.0,601.0,227.5,617.0" stroke="black" stroke-width="2" fill="none" />
<polyline points="216.0,612.0,233.0,596.5,249.0,580.5" stroke="black" stroke-width="2" fill="none" />
<polyline points="230.5,585.0,213.5,600.5,198.0,615.5" stroke="black" stroke-width="2" fill="none" />
<polyline points="181.5,613.5,197.5,598.5,214.0,583.5" stroke="black" stroke-width="2" fill="none" />
<polyline points="199.5,581.5,184.5,597.0,168.5,613.0" stroke="black" stroke-width="2" fill="none" />
<polyline points="167.0,613.0,182.5,612.5,197.0,611.5,212.0,610.5,227.0,611.0,243.5,610.5,260.5,609.5,277.0,608.0,294.5,607.0,311.5,607.0,328.0,606.5,343.0,606.5,358.5,606.0" stroke="black" stroke-width="2" fill="none" />
<polyline points="351.5,603.5,359.5,605.0,367.0,606.0,375.0,608.0,383.0,608.0,391.5,608.0,400.0,608.0,408.0,606.5,416.0,606.5,424.5,606.0,433.0,605.0,440.5,605.5,448.5,605.5,456.5,605.5,464.5,605.0,472.5,605.0,480.0,606.0,488.0,605.0" stroke="black" stroke-width="2" fill="none" />
<polyline points="504.0,521.5,520.0,522.0" stroke="black" stroke-width="2" fill="none" />
<polyline points="520.5,504.5,504.5,504.0,489.0,504.0,473.5,504.5" stroke="black" stroke-width="2" fill="none" />
<polyline points="453.0,488.5,469.5,488.5,486.0,488.5,503.0,488.5,520.0,488.5" stroke="black" stroke-width="2" fill="none" />
<polyline points="501.0,436.5,516.5,421.5" stroke="black" stroke-width="2" fill="none" />
<polyline points="516.0,409.0,500.0,424.0" stroke="black" stroke-width="2" fill="none" />
<polyline points="501.0,410.5,517.0,394.5" stroke="black" stroke-width="2" fill="none" />
<polyline points="519.5,379.5,503.0,394.0,488.0,408.5" stroke="black" stroke-width="2" fill="none" />
<polyline points="506.5,377.5,523.0,362.0" stroke="black" stroke-width="2" fill="none" />
<polyline points="519.5,346.0,503.5,362.5,486.5,377.5" stroke="black" stroke-width="2" fill="none" />
<polyline points="484.5,361.5,499.0,346.5,514.5,331.0" stroke="black" stroke-width="2" fill="none" />
<polyline points="518.0,320.5,502.0,322.0" stroke="black" stroke-width="2" fill="none" />
<polyline points="519.5,311.0,503.0,327.0,486.5,343.5" stroke="black" stroke-width="2" fill="none" />
<polyline points="489.0,325.0,506.0,310.0,522.0,295.0" stroke="black" stroke-width="2" fill="none" />
<polyline points="520.5,276.0,503.5,291.0,487.5,306.5" stroke="black" stroke-width="2" fill="none" />
<polyline points="483.0,290.0,498.5,274.5,514.0,259.0" stroke="black" stroke-width="2" fill="none" />
<polyline points="521.0,257.5,505.5,257.0" stroke="black" stroke-width="2" fill="none" />
<polyline points="507.5,248.0,523.5,246.5" stroke="black" stroke-width="2" fill="none" />
<polyline points="519.0,246.0,503.0,261.5,487.0,278.0" stroke="black" stroke-width="2" fill="none" />
<polyline points="489.0,262.0,505.0,247.0,521.0,231.5" stroke="black" stroke-width="2" fill="none" />
<polyline points="519.5,218.5,504.0,233.5,488.0,247.5" stroke="black" stroke-width="2" fill="none" />
<polyline points="485.5,234.5,502.0,219.5,517.5,204.0" stroke="black" stroke-width="2" fill="none" />
<polyline points="519.0,213.0,503.0,213.5" stroke="black" stroke-width="2" fill="none" />
<polyline points="486.0,217.5,502.0,201.5,518.0,186.0" stroke="black" stroke-width="2" fill="none" />
<polyline points="519.5,194.5,503.5,195.0" stroke="black" stroke-width="2" fill="none" />
<polyline points="505.5,178.5,522.0,178.5" stroke="black" stroke-width="2" fill="none" />
<polyline points="520.0,170.0,503.5,185.5,487.0,201.5" stroke="black" stroke-width="2" fill="none" />
<polyline points="487.0,186.0,502.0,169.5,518.0,153.5" stroke="black" stroke-width="2" fill="none" />
<polyline points="523.0,164.0,507.0,165.0" stroke="black" stroke-width="2" fill="none" />
<polyline points="506.0,149.0,522.5,148.0" stroke="black" stroke-width="2" fill="none" />
<polyline points="517.0,137.5,500.5,153.0,485.0,168.0,470.0,184.0" stroke="black" stroke-width="2" fill="none" />
<polyline points="472.5,167.0,489.0,151.5,505.0,136.0,520.5,120.5" stroke="black" stroke-width="2" fill="none" />
<polyline points="523.0,103.5,506.5,119.0,490.0,134.5,473.5,149.5" stroke="black" stroke-width="2" fill="none" />
<polyline points="474.0,133.0,490.5,117.0,506.5,101.0,523.0,85.0" stroke="black" stroke-width="2" fill="none" />
<polyline points="523.0,67.0,506.5,82.5,488.5,99.0,471.5,115.0" stroke="black" stroke-width="2" fill="none" />
<polyline points="455.5,114.0,471.5,98.5,486.5,82.5,502.5,66.5,518.5,50.0" stroke="black" stroke-width="2" fill="none" />
<polyline points="517.0,35.5,501.5,51.0,486.0,67.5,470.0,84.5,454.0,101.0" stroke="black" stroke-width="2" fill="none" />
<polyline points="455.5,83.5,470.5,67.0,486.0,51.5,502.0,36.0,518.5,20.5" stroke="black" stroke-width="2" fill="none" />
<polyline points="518.5,5.0,503.0,20.0,487.0,36.0,470.5,52.0,454.0,68.0,438.5,84.5" stroke="black" stroke-width="2" fill="none" />
<polyline points="442.0,71.0,457.5,55.0,474.0,39.0,490.5,23.5,507.5,8.5" stroke="black" stroke-width="2" fill="none" />
<polyline points="492.0,12.5,476.0,28.5,460.5,43.0,444.0,58.0" stroke="black" stroke-width="2" fill="none" />
<polyline points="440.5,42.0,457.5,26.0,473.5,11.0" stroke="black" stroke-width="2" fill="none" />
<polyline points="473.5,21.5,489.0,20.0,504.5,18.5,520.0,17.0" stroke="black" stroke-width="2" fill="none" />
<polyline points="521.5,49.5,506.0,51.0,490.0,51.0" stroke="black" stroke-width="2" fill="none" />
<polyline points="474.5,37.0,490.5,35.5,505.5,35.5,521.0,35.5" stroke="black" stroke-width="2" fill="none" />
<polyline points="520.5,83.5,504.0,83.5,488.0,83.5" stroke="black" stroke-width="2" fill="none" />
<polyline points="489.0,102.0,505.5,101.5,521.5,101.0" stroke="black" stroke-width="2" fill="none" />
<polyline points="519.0,119.0,503.0,120.0" stroke="black" stroke-width="2" fill="none" />
<polyline points="503.0,134.0,519.0,132.5" stroke="black" stroke-width="2" fill="none" />
<polyline points="520.0,65.5,504.0,65.5,488.0,65.0,472.0,65.5" stroke="black" stroke-width="2" fill="none" />
<polyline points="436.5,25.0,452.0,9.5" stroke="black" stroke-width="2" fill="none" />
<polyline points="437.0,10.0,421.5,25.5" stroke="black" stroke-width="2" fill="none" />
<polyline points="520.5,83.0,505.0,83.0,489.5,83.5,473.0,83.5,455.5,84.5,438.5,86.0,422.5,87.5,405.5,88.5,388.5,89.0,372.0,90.0,356.5,90.5,341.5,89.5,325.5,89.5" stroke="black" stroke-width="2" fill="none" />
<polyline points="323.0,107.0,339.5,106.5,356.0,105.5,372.5,104.5,389.0,104.5,405.5,104.0,422.0,103.0,439.0,102.5,456.0,103.0,473.5,103.0,490.0,102.0,506.0,102.0,521.5,100.5" stroke="black" stroke-width="2" fill="none" />
<polyline points="521.5,230.5,506.5,232.0" stroke="black" stroke-width="2" fill="none" />
<polyline points="521.5,296.0,505.5,297.5,489.5,297.5,473.0,298.5,456.0,298.5,439.0,298.0,422.0,298.5,406.0,299.0" stroke="black" stroke-width="2" fill="none" />
<polyline points="391.0,314.5,408.0,314.0,425.0,314.0,441.5,314.5,458.0,315.5,474.5,316.5,490.0,314.5,505.0,313.0,521.0,311.5" stroke="black" stroke-width="2" fill="none" />
<polyline points="519.0,391.0,502.5,392.0,486.0,394.0,470.5,396.0,454.0,398.0,436.5,399.5,420.0,401.0" stroke="black" stroke-width="2" fill="none" />
<polyline points="408.5,416.0,424.0,416.0,439.5,414.5,454.5,413.0,469.5,412.0,485.0,410.0,501.0,408.0,516.5,407.0" stroke="black" stroke-width="2" fill="none" />
<polyline points="521.0,473.0,504.0,473.5,487.0,474.0,470.5,474.0,454.0,474.5,438.0,474.5" stroke="black" stroke-width="2" fill="none" />
<polyline points="438.0,456.5,454.0,457.0,470.0,456.0,486.0,455.0,502.0,454.5,519.0,454.0" stroke="black" stroke-width="2" fill="none" />
<polyline points="518.5,437.5,502.0,438.0,485.5,439.5,469.0,439.5,453.0,440.0,436.5,441.5,420.0,441.5" stroke="black" stroke-width="2" fill="none" />
<polyline points="409.0,430.5,424.5,430.0,440.0,430.5,455.5,430.0,470.0,428.0,485.0,427.5,501.0,425.5,517.5,424.0" stroke="black" stroke-width="2" fill="none" />
<polyline points="521.0,363.0,504.5,364.0,488.0,364.0,471.5,364.0,455.0,364.5,438.5,365.0,422.0,365.5" stroke="black" stroke-width="2" fill="none" />
<polyline points="428.0,349.0,443.5,348.0,459.0,349.0,474.0,349.5,489.5,349.0,504.5,350.0,521.0,349.5" stroke="black" stroke-width="2" fill="none" />
<polyline points="520.0,375.0,504.0,376.0,488.0,376.5,471.5,377.5,455.0,378.0,439.0,378.5,423.5,379.0,408.0,379.5" stroke="black" stroke-width="2" fill="none" />
<polyline points="407.5,326.5,423.5,326.5,439.0,326.0,455.5,326.5,472.0,327.5,488.0,327.5,503.5,328.0,520.0,328.0" stroke="black" stroke-width="2" fill="none" />
<polyline points="520.5,264.5,504.0,265.0,488.5,266.0,471.5,266.5,454.5,268.0,438.0,269.5,422.5,271.5,406.0,272.5" stroke="black" stroke-width="2" fill="none" />
<polyline points="391.0,281.0,406.5,281.0,423.0,280.0,439.5,280.0,456.0,280.0,473.0,279.5,490.0,280.5,507.0,281.0,523.5,281.5" stroke="black" stroke-width="2" fill="none" />
<polyline points="519.0,247.5,502.5,248.0,486.0,249.0,470.5,250.5,454.5,251.5,439.0,252.0,423.5,252.5,407.5,253.0" stroke="black" stroke-width="2" fill="none" />
<polyline points="390.0,233.5,406.5,234.0,423.5,234.5,440.0,235.0,455.5,236.0,472.0,236.0,488.5,236.5,505.0,236.5,521.5,236.0" stroke="black" stroke-width="2" fill="none" />
<polyline points="518.5,216.0,503.5,217.0,488.5,219.0,473.5,219.5,459.0,221.5,444.0,222.5,428.0,223.5,411.0,225.0" stroke="black" stroke-width="2" fill="none" />
<polyline points="387.5,206.0,403.5,206.0,421.0,205.5,438.0,205.0,454.0,205.0,470.0,204.0,486.5,204.5,503.0,203.5,518.5,202.5" stroke="black" stroke-width="2" fill="none" />
<polyline points="519.0,167.0,502.5,167.5,486.0,169.0,468.5,169.0,452.0,170.0,436.0,171.5,420.5,172.5,405.0,173.0,389.0,173.0" stroke="black" stroke-width="2" fill="none" />
<polyline points="380.5,191.0,396.0,190.0,411.0,189.5,427.0,188.5,444.5,186.5,460.5,185.5,476.0,184.5,491.5,184.5,507.0,184.0,522.5,183.5" stroke="black" stroke-width="2" fill="none" />
<polyline points="393.5,221.0,377.5,222.0" stroke="black" stroke-width="2" fill="none" />
<polyline points="361.5,156.5,377.0,155.5,393.0,155.0,409.0,155.5,426.0,155.0,442.5,155.0,457.5,154.5,473.0,155.5,488.5,155.0,503.5,153.5,519.0,153.0" stroke="black" stroke-width="2" fill="none" />
<polyline points="519.0,138.0,503.0,139.0,487.5,140.0,472.0,140.0,457.0,140.0,442.0,140.5,426.5,140.0,410.5,140.0,395.0,139.5,379.5,139.5,363.0,139.5,347.5,139.0" stroke="black" stroke-width="2" fill="none" />
<polyline points="343.0,123.0,359.5,123.0,376.0,122.5,392.5,122.5,408.5,122.5,424.5,122.5,440.0,122.0,455.5,122.0,471.5,121.5,488.5,121.5,505.0,121.0,521.5,120.5" stroke="black" stroke-width="2" fill="none" />
<polyline points="342.0,157.0,325.5,157.5" stroke="black" stroke-width="2" fill="none" />
<polyline points="296.0,217.5,279.5,232.5,263.0,247.0,246.0,261.0" stroke="black" stroke-width="2" fill="none" />
<polyline points="263.0,260.0,262.0,267.5,262.0,275.5,262.0,283.5,270.0,291.5,282.5,300.0,291.0,305.5,286.5,313.5,285.0,316.5" stroke="black" stroke-width="2" fill="none" />
<polyline points="287.0,319.0,294.5,321.0,297.5,326.0,296.5,334.0,295.0,342.0,294.0,349.5,293.0,357.5,302.5,362.5" stroke="black" stroke-width="2" fill="none" />
<polyline points="330.0,372.0,314.0,373.0,297.0,374.0,280.5,375.0,264.5,377.5,248.0,379.5,230.5,381.0,213.0,382.5,196.0,383.5" stroke="black" stroke-width="2" fill="none" />
<polyline points="211.0,368.5,202.5,362.5,194.5,359.0" stroke="black" stroke-width="2" fill="none" />
<polyline points="195.0,358.5,194.0,366.5,195.0,374.5,197.5,379.5,205.5,380.5,213.5,380.5,222.0,381.5,230.5,380.5,238.5,381.0,246.5,381.0" stroke="black" stroke-width="2" fill="none" />
<polyline points="247.5,380.5,248.5,389.0,249.0,397.0,248.5,405.5,253.0,413.5,236.5,419.0,235.5,429.5,223.5,436.0,221.5,444.0,223.5,452.0,226.0,459.5,220.0,467.5,219.0,475.5,219.0,484.0,219.0,492.0,219.5,500.0,210.0,508.0,210.0,512.0,218.0,512.0" stroke="black" stroke-width="2" fill="none" />
<polyline points="215.0,518.0,230.5,502.5,246.5,487.0,262.5,472.0" stroke="black" stroke-width="2" fill="none" />
<polyline points="250.0,466.5,233.0,482.0" stroke="black" stroke-width="2" fill="none" />
<polyline points="232.5,481.5,248.0,481.0,264.0,481.5,280.5,481.0,297.0,480.0,313.0,479.5" stroke="black" stroke-width="2" fill="none" />
<polyline points="312.5,474.0,296.0,472.5,279.0,472.0,261.5,471.5,244.0,470.5,227.0,470.5,210.0,471.0" stroke="black" stroke-width="2" fill="none" />
<polyline points="230.0,472.5,245.5,458.0,262.0,443.0,278.0,427.0" stroke="black" stroke-width="2" fill="none" />
<polyline points="269.5,422.0,271.5,423.0,281.5,431.5,286.0,439.5,287.0,446.5,289.5,454.0,281.0,458.0" stroke="black" stroke-width="2" fill="none" />
<polyline points="280.5,457.0,296.0,441.0" stroke="black" stroke-width="2" fill="none" />
<polyline points="298.5,455.0,282.0,470.0,264.5,486.0,247.5,503.0,231.5,519.5" stroke="black" stroke-width="2" fill="none" />
<polyline points="211.5,501.5,196.5,516.0" stroke="black" stroke-width="2" fill="none" />
<polyline points="196.0,513.0,212.5,512.5,228.0,512.0,244.5,511.5,261.5,511.0,278.0,511.0,295.5,511.0,312.5,510.5,329.0,510.5" stroke="black" stroke-width="2" fill="none" />
<polyline points="327.5,502.0,311.5,502.0,296.0,501.0,280.5,501.0,263.0,501.5,246.5,502.0,230.5,503.0,214.0,504.0,198.0,504.0" stroke="black" stroke-width="2" fill="none" />
<polyline points="194.5,496.5,202.5,511.5,210.0,514.0,218.0,514.5,225.5,513.5,233.5,515.0,241.5,516.0,248.5,517.5,248.5,525.5,248.5,533.5,248.5,542.0,248.5,550.0,249.5,557.5,249.5,565.5" stroke="black" stroke-width="2" fill="none" />
<polyline points="249.0,541.0,265.0,540.0" stroke="black" stroke-width="2" fill="none" />
<polyline points="259.0,513.0,274.5,498.0,291.5,483.0,307.5,467.0" stroke="black" stroke-width="2" fill="none" />
<polyline points="299.5,458.0,297.0,455.5,295.5,463.5,300.0,467.5,299.5,475.5,299.5,483.0,298.5,491.0" stroke="black" stroke-width="2" fill="none" />
<polyline points="298.0,489.5,305.5,490.0,313.5,492.0" stroke="black" stroke-width="2" fill="none" />
<polyline points="315.5,492.5,318.5,500.5,320.0,508.5" stroke="black" stroke-width="2" fill="none" />
<polyline points="294.0,463.0,278.5,464.0" stroke="black" stroke-width="2" fill="none" />
<polyline points="252.0,465.0,236.0,466.5" stroke="black" stroke-width="2" fill="none" />
<polyline points="235.5,457.5,252.0,456.5" stroke="black" stroke-width="2" fill="none" />
<polyline points="245.5,457.5,237.5,457.5" stroke="black" stroke-width="2" fill="none" />
<polyline points="235.0,457.5,243.0,454.5,251.0,455.5,259.0,455.0,267.0,455.0,275.5,455.0,285.0,453.0,294.0,455.0,302.0,456.0" stroke="black" stroke-width="2" fill="none" />
<polyline points="268.5,421.0,252.5,437.5,236.0,453.5" stroke="black" stroke-width="2" fill="none" />
<polyline points="236.0,448.5,252.0,448.5,266.5,448.5,281.5,448.5,297.0,449.5" stroke="black" stroke-width="2" fill="none" />
<polyline points="264.5,410.5,248.5,412.0" stroke="black" stroke-width="2" fill="none" />
<polyline points="249.0,415.0,245.0,413.0,237.0,418.5" stroke="black" stroke-width="2" fill="none" />
<polyline points="232.5,431.5,233.5,427.5,235.0,422.5,237.0,425.0,230.5,438.0,235.5,448.0,234.5,461.0,236.0,463.0,229.0,472.0" stroke="black" stroke-width="2" fill="none" />
<polyline points="237.0,448.5,229.0,446.5" stroke="black" stroke-width="2" fill="none" />
<polyline points="233.0,441.0,250.0,440.5,266.5,440.0,283.0,440.5,299.0,442.0" stroke="black" stroke-width="2" fill="none" />
<polyline points="229.0,430.5,221.5,438.0" stroke="black" stroke-width="2" fill="none" />
<polyline points="218.5,449.0,218.5,450.5,219.0,458.5,217.0,463.5,222.5,460.0,225.5,446.5,235.0,446.5" stroke="black" stroke-width="2" fill="none" />
<polyline points="217.5,499.5,209.0,506.5,201.0,499.5,193.0,490.0" stroke="black" stroke-width="2" fill="none" />
<polyline points="191.5,491.0,192.5,499.0,196.0,507.0" stroke="black" stroke-width="2" fill="none" />
<polyline points="199.0,499.5,194.0,492.0" stroke="black" stroke-width="2" fill="none" />
<polyline points="171.0,579.0,167.5,587.0,164.0,595.0,161.0,603.0,164.0,612.5,167.0,612.5,172.0,617.0,180.5,617.0,189.0,618.0,197.0,618.0,205.0,617.0,213.0,617.5,221.0,617.5,229.5,617.0,237.5,617.0,245.0,618.0,253.5,617.0,261.5,618.0,269.5,618.5,277.0,618.5,285.0,618.5,293.0,618.5,301.0,618.5,308.5,618.5,316.5,619.0,324.0,619.0,332.0,619.0,339.5,618.5,347.0,617.0,355.0,617.0,362.0,614.0,370.0,614.0,378.0,614.0,386.0,614.0,394.5,615.0,402.5,614.0,410.5,614.0,418.5,614.0,426.5,614.0,434.5,614.0,442.5,614.0,450.5,614.0,458.5,614.0" stroke="black" stroke-width="2" fill="none" />
<polyline points="355.5,585.5,339.5,601.0,324.0,616.0" stroke="black" stroke-width="2" fill="none" />
<polyline points="294.5,614.0,310.5,598.0,327.0,582.5" stroke="black" stroke-width="2" fill="none" />
<polyline points="337.5,576.0,341.5,584.0,347.0,592.0,351.5,602.0,356.0,599.0" stroke="black" stroke-width="2" fill="none" />
<polyline points="341.5,585.0,325.5,600.5,308.5,615.5,291.5,630.0" stroke="black" stroke-width="2" fill="none" />
<polyline points="187.5,584.0,171.0,600.0" stroke="black" stroke-width="2" fill="none" />
<polyline points="167.0,603.5,182.5,603.0,198.0,602.5,213.0,602.5,228.5,602.0,245.5,601.5,262.0,601.5,279.5,602.0,296.5,601.5,313.5,600.0,330.5,599.0,346.0,598.5,361.0,597.5" stroke="black" stroke-width="2" fill="none" />
<polyline points="360.0,588.5,344.0,588.0,328.5,588.5,312.0,589.5,295.5,591.0,280.0,592.0,264.5,593.0,248.0,593.5,232.5,594.0,216.0,595.0,199.0,596.0,183.0,596.5,166.5,597.0" stroke="black" stroke-width="2" fill="none" />
<polyline points="169.0,589.5,185.5,589.5,201.0,589.0,216.5,588.5,232.5,588.0,248.5,586.5,265.0,584.5,283.0,583.5,300.0,582.5,316.0,581.5,332.0,581.5,348.0,580.0,364.0,580.0" stroke="black" stroke-width="2" fill="none" />
<polyline points="246.5,572.5,239.0,573.0,231.0,573.5,223.0,573.0,215.0,572.5,207.0,572.5,199.0,572.5,191.5,572.5,183.5,573.0,175.5,578.0,167.5,580.0" stroke="black" stroke-width="2" fill="none" />
<polyline points="166.5,640.0,174.5,640.0,182.5,640.0,190.5,640.5,199.0,640.5,207.0,640.5,215.0,641.0,222.5,641.0,230.0,640.5,238.0,640.5,246.0,640.5,253.5,640.0,261.5,640.0,270.0,640.0,278.0,639.5,286.0,639.5,294.0,639.5,302.0,639.5" stroke="black" stroke-width="2" fill="none" />
<polyline points="284.5,434.5,276.5,423.0,273.5,419.5,265.5,418.0,260.0,414.5,262.0,412.5,261.5,404.5,260.0,396.5,260.0,388.5,263.5,380.5" stroke="black" stroke-width="2" fill="none" />
<polyline points="204.5,367.5,198.5,359.5" stroke="black" stroke-width="2" fill="none" />
<polyline points="219.5,318.5,222.5,306.5,230.5,297.5,238.0,293.0,245.5,286.0" stroke="black" stroke-width="2" fill="none" />
<polyline points="251.5,281.5,266.5,281.0" stroke="black" stroke-width="2" fill="none" />
<polyline points="247.0,296.0,232.0,311.0" stroke="black" stroke-width="2" fill="none" />
<polyline points="233.0,307.0,248.5,306.5,265.0,306.5,281.5,306.5" stroke="black" stroke-width="2" fill="none" />
<polyline points="295.0,298.5,279.5,297.5,263.5,297.5,248.0,298.5,231.5,299.0" stroke="black" stroke-width="2" fill="none" />
<polyline points="232.5,300.0,240.5,298.0" stroke="black" stroke-width="2" fill="none" />
<polyline points="220.0,249.5,222.0,241.5,222.0,233.5,221.0,225.5,221.5,217.5,222.5,208.5,223.0,200.5,216.0,198.5,215.5,196.5" stroke="black" stroke-width="2" fill="none" />
<polyline points="213.0,201.0,229.0,200.5,246.0,200.0,263.5,199.5,280.5,199.5,298.0,201.0" stroke="black" stroke-width="2" fill="none" />
<polyline points="299.0,193.5,283.0,192.5,266.0,191.5,249.5,192.0" stroke="black" stroke-width="2" fill="none" />
<polyline points="248.5,185.0,264.5,185.5,279.5,185.5,295.0,185.0" stroke="black" stroke-width="2" fill="none" />
<polyline points="275.0,168.0,257.5,168.0,241.0,168.0" stroke="black" stroke-width="2" fill="none" />
<polyline points="246.0,172.5,244.0,180.5,246.0,182.5" stroke="black" stroke-width="2" fill="none" />
<polyline points="230.5,176.5,238.5,177.0,243.0,176.0,244.0,173.0,251.5,173.0,260.0,174.0,264.0,169.0,272.5,170.0,286.5,180.0,289.5,188.0,292.5,196.0,298.0,206.0,298.0,214.0,296.0,222.0,296.0,230.0,296.5,238.0,295.5,239.0,303.5,237.0,311.0,246.0" stroke="black" stroke-width="2" fill="none" />
<polyline points="305.0,239.5,309.5,247.5,314.0,255.0" stroke="black" stroke-width="2" fill="none" />
<polyline points="372.0,302.0,388.0,301.0" stroke="black" stroke-width="2" fill="none" />
<polyline points="293.0,225.0,277.0,226.0,260.0,226.5,243.0,226.5,226.5,226.5" stroke="black" stroke-width="2" fill="none" />
<polyline points="226.5,221.5,243.0,220.5,259.0,219.5,275.5,219.0,292.5,218.0,309.5,217.0" stroke="black" stroke-width="2" fill="none" />
<polyline points="292.0,210.0,275.5,210.5,258.5,211.0,242.0,211.0,226.5,211.0" stroke="black" stroke-width="2" fill="none" />
<polyline points="222.0,199.5,230.0,204.5,234.5,210.0,241.0,206.0" stroke="black" stroke-width="2" fill="none" />
<polyline points="235.0,187.5,227.5,188.5" stroke="black" stroke-width="2" fill="none" />
<polyline points="224.5,193.5,232.5,195.5" stroke="black" stroke-width="2" fill="none" />
<polyline points="228.5,191.5,220.5,191.5" stroke="black" stroke-width="2" fill="none" />
<polyline points="220.0,187.0,228.5,181.5,237.0,182.5,245.0,175.5" stroke="black" stroke-width="2" fill="none" />
<polyline points="228.0,180.0,220.0,182.0,227.5,177.0,233.5,170.5,241.5,169.5,249.5,169.5,257.5,169.5,269.0,173.5,277.5,176.0,286.0,178.5" stroke="black" stroke-width="2" fill="none" />
<polyline points="228.5,197.5,220.5,198.0" stroke="black" stroke-width="2" fill="none" />
<polyline points="222.0,197.5,217.0,205.5" stroke="black" stroke-width="2" fill="none" />
<polyline points="197.0,236.0,205.0,245.0,213.0,252.0,221.5,246.0" stroke="black" stroke-width="2" fill="none" />
<polyline points="203.0,246.5,199.0,238.5" stroke="black" stroke-width="2" fill="none" />
<polyline points="195.5,238.0,196.5,246.0,200.5,253.5" stroke="black" stroke-width="2" fill="none" />
<polyline points="310.5,76.0,326.0,75.0,342.0,74.0,358.5,73.0,374.5,71.5,391.0,71.0,407.0,70.0,423.0,70.0,439.5,69.5,456.0,69.0,472.0,68.5,488.0,68.0,504.0,68.5,520.0,68.5" stroke="black" stroke-width="2" fill="none" />
<polyline points="520.5,54.5,505.0,54.5,489.5,54.5,474.5,54.5,458.5,56.0,443.0,55.5,427.5,57.0,412.5,58.0,396.0,58.5,378.5,60.5,363.0,61.0,347.0,61.5,331.0,62.0,314.5,62.5,299.0,62.5" stroke="black" stroke-width="2" fill="none" />
<polyline points="297.5,43.5,313.0,43.0,328.5,42.5,344.0,41.5,359.5,40.5,375.0,39.5,391.5,39.0,408.5,38.5,425.0,39.0,441.0,40.0,457.5,40.5,473.0,39.0,488.5,37.5,504.0,36.0,520.5,34.5" stroke="black" stroke-width="2" fill="none" />
<polyline points="521.0,20.0,504.0,20.5,487.0,21.0,470.5,21.0,454.0,21.5,438.0,21.5,422.5,22.0,407.5,21.5,391.5,21.5,375.0,21.5,359.0,21.5,343.0,22.5,327.0,22.5,312.0,23.0,297.5,24.0,281.5,24.5" stroke="black" stroke-width="2" fill="none" />
<polyline points="261.5,11.0,277.5,10.0,293.5,10.0,309.5,9.5,326.0,8.5,342.5,7.5,358.0,7.5,373.5,7.5,388.5,7.0,404.0,5.5,420.0,4.5,436.5,4.5,453.0,3.0,469.0,2.5,485.5,2.5,502.0,1.0,518.5,0.5" stroke="black" stroke-width="2" fill="none" />
</svg>