<svg xmlns="http://www.w3.org/2000/svg" version="1.1"><polyline points="309.0,57.0,288.0,65.0,274.0,73.0,264.0,81.0,255.5,89.0,250.0,97.0,244.0,105.0,240.0,113.0,236.0,121.5,233.0,130.0,230.0,138.0,228.0,146.0,227.0,154.0,224.5,162.0,222.5,169.5,221.5,177.5,220.5,185.5,221.0,193.0,219.5,201.0,219.0,209.5,221.0,217.0,221.0,225.5,222.5,233.5,224.0,241.5,225.5,249.0" stroke="black" stroke-width="2" fill="none" />
<polyline points="228.5,251.5,244.5,251.0,259.5,252.0,275.5,252.0,292.5,252.0" stroke="black" stroke-width="2" fill="none" />
<polyline points="298.5,251.0,282.5,265.0,265.5,279.0" stroke="black" stroke-width="2" fill="none" />
<polyline points="261.0,280.5,277.0,280.0" stroke="black" stroke-width="2" fill="none" />
<polyline points="282.5,279.0,298.5,264.0" stroke="black" stroke-width="2" fill="none" />
<polyline points="291.5,266.0,276.0,266.0,260.5,266.5,245.0,266.5,229.0,267.5" stroke="black" stroke-width="2" fill="none" />
<polyline points="225.0,261.5,242.0,261.0,258.0,261.0,274.0,260.0,290.0,259.5" stroke="black" stroke-width="2" fill="none" />
<polyline points="278.5,272.5,263.5,273.0" stroke="black" stroke-width="2" fill="none" />
<polyline points="250.0,276.0,266.0,261.0,281.5,246.0,297.0,229.5" stroke="black" stroke-width="2" fill="none" />
<polyline points="298.5,215.0,282.5,230.5,267.0,245.5,250.5,261.5" stroke="black" stroke-width="2" fill="none" />
<polyline points="232.0,259.0,248.0,243.5,264.5,228.0,281.0,212.5,297.0,196.5" stroke="black" stroke-width="2" fill="none" />
<polyline points="291.0,182.5,275.5,198.0,260.5,212.5,246.0,228.5,232.0,244.0" stroke="black" stroke-width="2" fill="none" />
<polyline points="230.0,246.5,246.5,246.0,263.5,245.0,280.0,244.0,297.0,244.0" stroke="black" stroke-width="2" fill="none" />
<polyline points="294.5,231.5,278.5,232.5,262.0,233.5,246.5,233.5,230.5,233.5" stroke="black" stroke-width="2" fill="none" />
<polyline points="230.0,227.5,246.0,212.5,261.5,197.5,276.0,183.0,291.5,168.0" stroke="black" stroke-width="2" fill="none" />
<polyline points="285.5,151.5,269.0,167.5,251.5,183.5" stroke="black" stroke-width="2" fill="none" />
<polyline points="257.0,176.5,261.0,173.5,264.0,182.5,259.0,190.0,261.5,193.0,262.5,198.5" stroke="black" stroke-width="2" fill="none" />
<polyline points="271.0,196.5,279.0,197.5" stroke="black" stroke-width="2" fill="none" />
<polyline points="299.0,190.5,283.0,191.5,266.5,192.5,250.5,193.0" stroke="black" stroke-width="2" fill="none" />
<polyline points="230.0,190.0,245.0,189.0,259.5,187.5,275.0,186.5,291.5,185.5" stroke="black" stroke-width="2" fill="none" />
<polyline points="297.0,202.0,280.5,204.0,264.5,205.5,248.5,206.5,233.0,206.5" stroke="black" stroke-width="2" fill="none" />
<polyline points="230.0,211.0,246.5,195.0,263.0,179.5,279.5,164.0,295.5,148.5" stroke="black" stroke-width="2" fill="none" />
<polyline points="281.5,160.0,266.0,160.0" stroke="black" stroke-width="2" fill="none" />
<polyline points="268.0,167.5,276.0,165.5,267.0,165.0,269.5,173.0,268.5,181.0,270.5,189.0,270.5,197.0,272.0,205.0,275.0,207.0,275.0,200.0" stroke="black" stroke-width="2" fill="none" />
<polyline points="280.0,207.0,280.0,207.0,277.5,199.0,279.5,191.0,275.5,185.5,276.5,178.5,271.5,176.5,274.5,168.5,268.5,176.5" stroke="black" stroke-width="2" fill="none" />
<polyline points="257.5,157.5,258.5,161.0,255.0,174.0,255.0,182.0,255.5,189.5,256.0,197.5,258.0,195.5,265.0,193.5,264.0,201.5" stroke="black" stroke-width="2" fill="none" />
<polyline points="234.0,213.5,250.0,213.0,266.0,213.0,281.5,213.0,297.5,211.5" stroke="black" stroke-width="2" fill="none" />
<polyline points="342.5,233.0,358.5,231.5,375.0,230.5,391.0,230.5,406.5,231.5" stroke="black" stroke-width="2" fill="none" />
<polyline points="403.0,231.5,388.5,246.0,373.5,261.0,358.0,277.0,343.0,293.5,327.0,310.0" stroke="black" stroke-width="2" fill="none" />
<polyline points="327.0,295.5,342.0,280.0,358.0,264.5,374.0,249.0" stroke="black" stroke-width="2" fill="none" />
<polyline points="373.5,241.5,358.5,242.0,343.5,242.0" stroke="black" stroke-width="2" fill="none" />
<polyline points="353.5,237.5,352.5,231.5,360.5,224.0,368.0,215.0,378.0,213.0,371.0,216.0" stroke="black" stroke-width="2" fill="none" />
<polyline points="374.0,212.0,390.0,212.0,406.5,211.5" stroke="black" stroke-width="2" fill="none" />
<polyline points="403.5,212.5,387.5,229.0" stroke="black" stroke-width="2" fill="none" />
<polyline points="393.5,239.0,409.0,238.0" stroke="black" stroke-width="2" fill="none" />
<polyline points="406.5,245.5,391.0,261.0,374.5,278.0,358.0,295.0,341.5,311.5" stroke="black" stroke-width="2" fill="none" />
<polyline points="342.0,307.5,359.0,306.5,376.5,306.5,393.5,306.5,409.5,305.5" stroke="black" stroke-width="2" fill="none" />
<polyline points="426.5,280.0,410.0,294.5,393.5,309.0,377.0,324.0" stroke="black" stroke-width="2" fill="none" />
<polyline points="362.0,325.0,377.5,310.5,393.5,295.0,409.5,280.0,424.5,265.5,441.0,250.0" stroke="black" stroke-width="2" fill="none" />
<polyline points="440.5,231.0,424.5,247.5,408.5,263.0,393.0,278.5,376.5,294.5,360.0,310.0" stroke="black" stroke-width="2" fill="none" />
<polyline points="345.5,315.0,361.5,315.5,378.0,315.5,393.5,315.5,408.5,314.0" stroke="black" stroke-width="2" fill="none" />
<polyline points="420.5,293.0,404.0,292.5,389.5,293.5,374.5,294.5,359.5,294.5,343.0,294.5,327.5,295.5" stroke="black" stroke-width="2" fill="none" />
<polyline points="327.5,293.5,343.5,292.5,360.0,291.0,375.5,290.0,391.5,289.5,407.5,288.0" stroke="black" stroke-width="2" fill="none" />
<polyline points="424.5,281.0,408.0,281.5,392.5,282.5,377.5,284.0,362.0,285.0,346.0,285.5,330.0,286.0" stroke="black" stroke-width="2" fill="none" />
<polyline points="327.0,276.5,343.5,276.0,360.0,275.5,376.5,275.0,393.5,274.5,409.0,274.5,425.5,273.0" stroke="black" stroke-width="2" fill="none" />
<polyline points="438.5,261.0,422.5,262.0,407.0,263.5,390.5,265.0,373.5,265.5,357.0,267.0,340.5,268.5,324.0,269.0" stroke="black" stroke-width="2" fill="none" />
<polyline points="325.5,264.0,340.5,247.5,355.5,231.5,371.5,215.5,388.0,199.5" stroke="black" stroke-width="2" fill="none" />
<polyline points="389.5,193.0,398.5,201.0,403.0,209.0,407.0,217.0,408.0,225.5,407.0,233.0,400.0,246.0,392.0,254.0,384.5,261.5,387.5,258.5,396.0,250.5,400.5,248.5" stroke="black" stroke-width="2" fill="none" />
<polyline points="398.0,252.5,388.0,263.0,389.0,262.0,395.0,254.0" stroke="black" stroke-width="2" fill="none" />
<polyline points="423.5,236.0,439.5,235.5,455.5,235.0" stroke="black" stroke-width="2" fill="none" />
<polyline points="454.5,217.0,439.0,217.5" stroke="black" stroke-width="2" fill="none" />
<polyline points="439.5,213.0,456.0,197.5" stroke="black" stroke-width="2" fill="none" />
<polyline points="459.5,209.0,443.0,209.0" stroke="black" stroke-width="2" fill="none" />
<polyline points="441.5,202.0,457.0,202.0" stroke="black" stroke-width="2" fill="none" />
<polyline points="455.5,192.0,440.5,192.5" stroke="black" stroke-width="2" fill="none" />
<polyline points="438.5,195.0,454.0,179.0" stroke="black" stroke-width="2" fill="none" />
<polyline points="438.5,178.5,454.0,162.5" stroke="black" stroke-width="2" fill="none" />
<polyline points="456.0,152.5,440.0,167.0" stroke="black" stroke-width="2" fill="none" />
<polyline points="439.5,166.5,455.0,165.5" stroke="black" stroke-width="2" fill="none" />
<polyline points="452.0,176.5,436.5,176.0" stroke="black" stroke-width="2" fill="none" />
<polyline points="438.0,186.5,454.5,185.5" stroke="black" stroke-width="2" fill="none" />
<polyline points="455.5,160.0,439.0,160.0" stroke="black" stroke-width="2" fill="none" />
<polyline points="443.0,155.0,458.0,154.5" stroke="black" stroke-width="2" fill="none" />
<polyline points="455.5,137.0,440.0,153.0" stroke="black" stroke-width="2" fill="none" />
<polyline points="431.0,143.5,436.0,140.5,437.5,148.5,439.0,156.0,437.0,164.0,440.0,169.0,435.0,177.0,436.0,185.5,435.0,193.5" stroke="black" stroke-width="2" fill="none" />
<polyline points="405.0,198.5,389.5,214.5,372.5,230.0,355.5,245.5,339.0,260.5,323.5,276.5" stroke="black" stroke-width="2" fill="none" />
<polyline points="318.5,266.0,326.5,252.0,334.5,241.0,342.5,231.0,351.0,222.5,359.5,214.5,367.5,205.0,375.0,197.0,383.0,192.0,391.0,192.5,399.0,199.5,407.0,210.5" stroke="black" stroke-width="2" fill="none" />
<polyline points="404.0,224.0,388.0,226.0,371.5,227.0" stroke="black" stroke-width="2" fill="none" />
<polyline points="362.0,215.5,378.0,214.5,393.5,214.0,409.5,214.5" stroke="black" stroke-width="2" fill="none" />
<polyline points="409.0,204.5,393.0,206.0,376.5,207.0" stroke="black" stroke-width="2" fill="none" />
<polyline points="373.0,208.5,365.0,215.0,357.0,225.5,356.0,232.5,365.0,227.0,369.5,219.0,372.5,211.5,363.5,228.5,355.0,230.5" stroke="black" stroke-width="2" fill="none" />
<polyline points="361.0,245.5,369.0,236.5,377.5,227.5,378.5,226.5,372.0,234.5,364.5,242.5,365.0,250.5,365.0,248.0,370.0,247.0,376.5,241.5,384.5,232.0,377.5,230.0,370.0,238.5,368.0,240.5,376.0,233.0,384.0,230.0,379.0,238.0,372.5,246.0" stroke="black" stroke-width="2" fill="none" />
<polyline points="327.0,255.5,343.5,254.5,360.5,254.0,377.0,253.5,393.0,253.0,409.5,252.0,426.0,250.5,442.0,247.5" stroke="black" stroke-width="2" fill="none" />
<polyline points="439.5,255.5,424.0,256.5,408.5,258.5,391.5,259.0,374.0,260.5,357.5,261.0,341.0,261.5,325.0,262.0" stroke="black" stroke-width="2" fill="none" />
<polyline points="297.5,221.0,282.0,223.0,265.5,225.0,248.5,226.5,232.5,227.5" stroke="black" stroke-width="2" fill="none" />
<polyline points="230.0,226.5,232.0,234.5" stroke="black" stroke-width="2" fill="none" />
<polyline points="231.5,242.0,228.5,240.0,226.0,232.0,224.0,224.0,225.0,216.0,223.0,208.0,222.0,200.0,228.0,192.0,229.0,184.0,227.0,176.5,224.0,174.5" stroke="black" stroke-width="2" fill="none" />
<polyline points="229.5,168.0,244.5,168.0,260.5,168.0,276.5,167.5,292.5,166.5" stroke="black" stroke-width="2" fill="none" />
<polyline points="295.0,155.0,279.0,154.5,262.5,154.5,246.0,155.0" stroke="black" stroke-width="2" fill="none" />
<polyline points="252.0,154.0,242.5,162.0,237.0,170.5" stroke="black" stroke-width="2" fill="none" />
<polyline points="232.0,180.0,248.0,164.0" stroke="black" stroke-width="2" fill="none" />
<polyline points="244.5,147.0,227.5,148.5" stroke="black" stroke-width="2" fill="none" />
<polyline points="230.5,150.0,246.0,134.5" stroke="black" stroke-width="2" fill="none" />
<polyline points="247.0,124.5,263.0,124.0" stroke="black" stroke-width="2" fill="none" />
<polyline points="248.5,117.5,264.0,102.5,279.0,87.5,293.5,72.5" stroke="black" stroke-width="2" fill="none" />
<polyline points="279.5,76.0,287.5,72.0,296.0,68.5,304.0,65.0,312.0,62.5,320.0,60.0,328.0,59.5,334.5,61.0,342.5,62.0,351.0,62.0,359.0,64.5,366.5,67.0,374.5,70.0,382.0,73.0,390.0,76.5,398.5,81.0,406.0,89.0,413.0,95.0,421.0,104.0,429.0,113.0,437.5,125.0" stroke="black" stroke-width="2" fill="none" />
<polyline points="442.0,120.5,425.5,135.5" stroke="black" stroke-width="2" fill="none" />
<polyline points="424.0,135.0,441.0,135.5,458.0,135.5" stroke="black" stroke-width="2" fill="none" />
<polyline points="457.5,123.0,441.5,138.0,425.0,153.0" stroke="black" stroke-width="2" fill="none" />
<polyline points="426.5,146.5,442.5,146.5,457.0,146.0" stroke="black" stroke-width="2" fill="none" />
<polyline points="456.0,131.5,441.0,131.0,425.0,130.5" stroke="black" stroke-width="2" fill="none" />
<polyline points="407.0,124.5,423.5,124.0,441.0,123.0,458.5,122.5" stroke="black" stroke-width="2" fill="none" />
<polyline points="426.0,104.0,409.5,119.0" stroke="black" stroke-width="2" fill="none" />
<polyline points="410.0,115.5,426.0,114.5" stroke="black" stroke-width="2" fill="none" />
<polyline points="403.5,86.5,387.5,102.5" stroke="black" stroke-width="2" fill="none" />
<polyline points="390.5,106.0,406.0,104.5,421.0,104.5,436.5,104.0" stroke="black" stroke-width="2" fill="none" />
<polyline points="392.0,87.5,376.0,103.5" stroke="black" stroke-width="2" fill="none" />
<polyline points="377.0,97.5,394.0,97.5,411.0,97.0" stroke="black" stroke-width="2" fill="none" />
<polyline points="393.5,72.0,378.0,87.5" stroke="black" stroke-width="2" fill="none" />
<polyline points="366.5,92.5,382.0,100.0,394.0,108.0,403.0,116.0,411.0,124.0,417.0,132.0,424.0,140.0,429.5,147.5,434.0,155.5,435.0,163.5,434.0,171.5,441.0,177.0,440.0,185.0,439.0,193.0,436.0,201.5,433.5,209.5,429.5,217.5,422.0,225.5,413.0,233.5,412.5,233.5,420.5,226.5,429.0,217.0" stroke="black" stroke-width="2" fill="none" />
<polyline points="381.0,193.0,370.5,201.0,362.5,209.0,355.5,217.0,347.5,225.0,340.5,232.5,333.5,240.5,328.0,248.5,323.0,256.5,319.0,264.0,318.0,272.0,322.0,280.0,320.0,287.5,322.0,295.0,326.5,303.0" stroke="black" stroke-width="2" fill="none" />
<polyline points="295.0,217.0,279.5,217.5,263.5,218.0,247.5,219.0,232.5,220.0" stroke="black" stroke-width="2" fill="none" />
<polyline points="225.5,225.5,227.5,233.5,232.5,242.5,231.5,237.5" stroke="black" stroke-width="2" fill="none" />
<polyline points="238.0,206.5,235.0,203.5,234.0,196.0,233.0,188.0,228.0,193.5" stroke="black" stroke-width="2" fill="none" />
<polyline points="229.0,198.0,229.0,206.0" stroke="black" stroke-width="2" fill="none" />
<polyline points="230.0,182.0,246.5,181.0,262.0,179.5,278.0,179.0,294.0,178.5" stroke="black" stroke-width="2" fill="none" />
<polyline points="277.5,152.0,284.0,160.0,286.0,168.0,286.5,176.0,287.5,184.0,288.5,192.0,288.5,200.0,289.5,208.0,290.5,216.0,291.5,224.0,291.5,232.5,291.5,240.0,290.5,247.5,287.0,255.5,287.5,263.5,287.0,271.0,282.5,279.0,285.5,272.5" stroke="black" stroke-width="2" fill="none" />
<polyline points="239.0,147.0,246.5,130.0,254.5,119.5,262.5,109.5,270.0,101.5,278.0,96.5,286.5,95.5,295.0,93.5,303.0,92.0,311.0,90.0,319.0,88.0,327.0,87.0,335.0,86.5,342.5,86.5,350.5,87.0,358.5,89.0,366.0,91.0,373.5,94.0,381.5,98.0,389.0,103.0,397.0,110.0,405.0,117.5,413.0,126.5,421.0,137.0,429.5,148.0" stroke="black" stroke-width="2" fill="none" />
<polyline points="426.5,86.5,410.0,87.0,394.0,87.5,378.5,87.5,362.5,88.5" stroke="black" stroke-width="2" fill="none" />
<polyline points="358.0,89.0,375.0,73.5" stroke="black" stroke-width="2" fill="none" />
<polyline points="371.5,63.0,388.0,70.0,400.5,77.5,411.0,85.5,418.0,93.5,424.5,101.5,430.0,109.5,435.0,117.0,439.0,124.5,440.0,134.0,442.0,142.5,444.0,150.0,444.0,158.0,444.0,166.0,444.0,174.5,442.5,182.5" stroke="black" stroke-width="2" fill="none" />
<polyline points="390.5,76.5,374.0,77.5,357.5,77.5,341.0,79.0,325.0,80.0,309.0,81.0,293.0,81.0,276.5,81.5" stroke="black" stroke-width="2" fill="none" />
<polyline points="279.5,85.0,276.5,93.0,266.5,101.0,256.5,105.0,249.5,112.5,244.5,120.0,240.5,128.0,237.5,136.0,234.0,144.0,234.0,152.0,233.5,160.0,235.0,168.0,237.5,171.0,245.5,159.5,254.0,154.0,261.5,152.5,269.5,149.5,277.5,150.0" stroke="black" stroke-width="2" fill="none" />
<polyline points="261.5,115.5,246.0,116.0" stroke="black" stroke-width="2" fill="none" />
<polyline points="241.0,114.5,237.0,123.0,235.0,128.0,243.0,110.5,251.0,99.5,259.0,91.5,267.0,81.5,271.0,81.0,278.5,77.0,285.5,69.5,293.5,65.5" stroke="black" stroke-width="2" fill="none" />
<polyline points="278.5,70.0,294.5,70.0,310.0,70.5,326.0,70.5,342.0,70.0,357.5,70.0,373.0,68.5,388.0,68.0,403.5,67.5" stroke="black" stroke-width="2" fill="none" />
<polyline points="373.5,57.5,357.5,58.5,342.5,59.5,327.0,60.5,311.5,61.0" stroke="black" stroke-width="2" fill="none" />
<polyline points="313.0,60.5,321.0,59.5,329.5,58.5,337.5,57.5,345.5,57.5,354.0,58.0,362.0,59.5,370.0,61.0,378.0,63.5,386.5,66.5,394.5,70.5,402.5,75.5,410.0,83.0,418.0,90.0,426.0,100.0,434.0,112.0,442.0,128.5" stroke="black" stroke-width="2" fill="none" />
<polyline points="441.5,141.0,443.0,128.0,435.0,110.5,427.0,98.0,419.0,88.0,411.0,81.0,403.0,74.0,395.5,69.0,387.5,65.0,379.5,61.0,371.0,57.5,363.0,55.5,355.0,54.5,347.0,54.0,339.5,53.0,332.0,54.0,324.0,54.5,316.0,56.5,308.0,58.5,300.5,60.5,292.5,63.5,285.0,67.5,277.0,72.5,269.5,77.0,261.0,84.0,252.5,92.5,244.0,102.5,236.0,117.5,228.0,139.0" stroke="black" stroke-width="2" fill="none" />
<polyline points="231.0,138.5,247.0,138.5" stroke="black" stroke-width="2" fill="none" />
<polyline points="246.5,107.5,262.5,106.5,278.5,105.0" stroke="black" stroke-width="2" fill="none" />
<polyline points="283.5,102.0,300.0,85.0,316.0,67.5,332.0,52.0" stroke="black" stroke-width="2" fill="none" />
<polyline points="327.5,69.5,310.5,85.0,294.0,100.5" stroke="black" stroke-width="2" fill="none" />
<polyline points="295.5,96.5,278.5,96.0,262.0,96.5" stroke="black" stroke-width="2" fill="none" />
<polyline points="265.5,92.0,282.5,91.0,298.5,89.5,314.0,88.0" stroke="black" stroke-width="2" fill="none" />
<polyline points="326.5,86.5,342.0,71.0" stroke="black" stroke-width="2" fill="none" />
<polyline points="341.5,86.0,357.5,70.0,373.0,54.5" stroke="black" stroke-width="2" fill="none" />
<polyline points="372.0,59.5,390.0,67.0,403.0,75.0,413.5,82.5,421.5,90.5,427.5,98.5,433.5,106.5,438.0,115.0,442.0,123.0,445.0,131.5,447.0,139.5,449.0,147.5,450.5,155.5,450.0,163.0,450.0,171.0,449.0,179.0,448.0,187.0,446.0,195.5,443.0,203.5,440.0,211.5,434.5,219.5,431.0,227.5,426.5,235.0,421.5,243.0,415.5,250.5,412.5,254.5,420.5,243.5,427.0,232.5,435.0,218.5,443.0,201.0" stroke="black" stroke-width="2" fill="none" />
<polyline points="443.0,188.0,445.0,180.0,446.5,166.0,447.0,158.0,446.0,149.5,445.0,140.5,438.5,131.0,434.5,123.0,428.0,115.0,421.0,107.0,415.0,99.0,407.0,91.5,397.0,83.5,384.5,76.0,364.5,68.0" stroke="black" stroke-width="2" fill="none" />
<polyline points="326.0,70.0,310.0,71.0" stroke="black" stroke-width="2" fill="none" />
<polyline points="308.5,59.0,288.5,67.0,276.0,75.5,267.0,83.5,264.5,85.5,257.5,93.0,254.0,94.0,250.0,102.0,245.0,110.0,241.0,118.0,238.0,126.0,242.0,132.0,234.0,143.0,242.0,123.0,249.5,110.0,257.0,101.0,265.0,91.0,273.5,84.5" stroke="black" stroke-width="2" fill="none" />
<polyline points="270.0,90.0,261.0,98.0,260.0,108.0,254.0,116.0,247.5,124.0,247.5,122.0,255.5,113.5,266.5,101.0,274.5,94.5" stroke="black" stroke-width="2" fill="none" />
<polyline points="277.5,97.0,267.5,105.0,260.0,112.5,255.0,120.0,248.0,127.5,243.5,135.5,241.0,143.5,238.0,151.5" stroke="black" stroke-width="2" fill="none" />
</svg>