<svg xmlns="http://www.w3.org/2000/svg" version="1.1"><polyline points="72.0,2.0,72.0,10.0,77.0,12.5,86.0,11.5,94.0,12.0,101.0,15.0,105.0,22.5,113.0,24.5,121.5,22.5,130.5,25.5,138.5,25.0,142.5,28.5" stroke="black" stroke-width="2" fill="none" />
<polyline points="148.5,22.0,164.0,7.0" stroke="black" stroke-width="2" fill="none" />
<polyline points="168.5,3.0,171.5,7.0,176.5,15.5,171.0,23.5,170.0,31.5,179.0,29.5,183.5,30.5,181.5,39.0,187.5,47.0,180.0,55.5,181.0,63.5,189.0,63.5,196.0,60.5,187.0,63.5,194.0,70.0,196.0,78.0,200.5,85.5,199.5,93.5,203.0,101.5,209.0,109.0,208.0,117.0,218.0,125.0,208.0,133.0,209.0,141.0,214.5,143.5,222.5,132.5,227.0,137.5,234.5,135.5,242.0,135.5,250.0,136.0,258.0,138.0,264.0,144.0,274.0,151.0,283.0,156.5,291.5,159.5,299.5,163.5" stroke="black" stroke-width="2" fill="none" />
<polyline points="296.5,151.0,313.0,135.5" stroke="black" stroke-width="2" fill="none" />
<polyline points="329.0,138.0,313.5,138.0,297.5,139.0,281.5,140.0" stroke="black" stroke-width="2" fill="none" />
<polyline points="279.5,149.0,263.0,164.0,246.5,178.5,231.0,193.5" stroke="black" stroke-width="2" fill="none" />
<polyline points="229.5,194.0,246.0,194.0,263.0,195.0,279.5,195.0" stroke="black" stroke-width="2" fill="none" />
<polyline points="274.5,196.0,290.5,180.0" stroke="black" stroke-width="2" fill="none" />
<polyline points="292.5,183.0,283.0,175.0" stroke="black" stroke-width="2" fill="none" />
<polyline points="278.0,178.5,263.0,194.0" stroke="black" stroke-width="2" fill="none" />
<polyline points="268.0,193.0,274.5,190.0,277.5,182.5,281.0,174.5,274.0,171.0,266.0,170.5" stroke="black" stroke-width="2" fill="none" />
<polyline points="267.0,172.5,275.0,172.5" stroke="black" stroke-width="2" fill="none" />
<polyline points="282.0,164.0,266.0,180.0,250.0,196.0" stroke="black" stroke-width="2" fill="none" />
<polyline points="249.0,201.0,255.0,193.0,257.0,192.0,254.0,188.5" stroke="black" stroke-width="2" fill="none" />
<polyline points="264.0,180.0,263.5,180.5,269.0,188.5" stroke="black" stroke-width="2" fill="none" />
<polyline points="267.0,205.5,266.5,208.5,274.5,217.5" stroke="black" stroke-width="2" fill="none" />
<polyline points="281.5,204.5,297.5,204.0,314.0,203.0" stroke="black" stroke-width="2" fill="none" />
<polyline points="305.5,200.5,313.5,207.5,321.5,211.5,329.5,218.0,349.5,227.0" stroke="black" stroke-width="2" fill="none" />
<polyline points="348.5,232.5,364.0,232.5,378.5,231.5,393.0,231.0,408.0,231.0,423.0,229.5,438.5,229.0,454.5,229.0,470.5,228.0" stroke="black" stroke-width="2" fill="none" />
<polyline points="473.0,231.0,456.0,246.0,439.0,262.0,421.5,278.0,404.0,294.0" stroke="black" stroke-width="2" fill="none" />
<polyline points="408.5,302.5,425.5,301.5,442.5,301.0,459.0,300.5,474.5,298.5,490.5,297.0,505.5,296.0,522.0,295.0" stroke="black" stroke-width="2" fill="none" />
<polyline points="518.5,298.5,503.0,313.0,487.5,327.5" stroke="black" stroke-width="2" fill="none" />
<polyline points="486.0,337.0,501.5,336.5,517.5,336.5" stroke="black" stroke-width="2" fill="none" />
<polyline points="518.0,329.5,501.0,346.0" stroke="black" stroke-width="2" fill="none" />
<polyline points="485.5,344.5,501.5,329.0,516.5,313.5" stroke="black" stroke-width="2" fill="none" />
<polyline points="517.5,304.5,501.5,305.5,486.0,306.0" stroke="black" stroke-width="2" fill="none" />
<polyline points="470.0,310.5,485.0,294.0,501.5,278.0,517.5,262.5" stroke="black" stroke-width="2" fill="none" />
<polyline points="519.0,279.5,503.0,295.0,486.0,311.0,469.0,326.5" stroke="black" stroke-width="2" fill="none" />
<polyline points="470.0,325.0,486.0,324.5,501.5,324.0,517.5,324.0" stroke="black" stroke-width="2" fill="none" />
<polyline points="522.0,286.5,506.5,287.0,490.5,287.5" stroke="black" stroke-width="2" fill="none" />
<polyline points="499.5,277.0,516.5,277.0" stroke="black" stroke-width="2" fill="none" />
<polyline points="500.5,259.5,484.5,275.5,468.0,292.0,452.5,308.0" stroke="black" stroke-width="2" fill="none" />
<polyline points="447.5,314.0,455.0,317.0" stroke="black" stroke-width="2" fill="none" />
<polyline points="455.0,316.5,440.0,318.0,424.5,318.5,409.0,319.5" stroke="black" stroke-width="2" fill="none" />
<polyline points="421.0,310.0,436.5,294.5,453.0,278.5,469.0,262.5,485.0,247.0" stroke="black" stroke-width="2" fill="none" />
<polyline points="486.0,248.0,471.0,248.5,456.0,249.0,441.0,249.5,426.0,249.5,411.5,249.5,396.5,248.5,381.0,248.5" stroke="black" stroke-width="2" fill="none" />
<polyline points="377.0,245.5,384.5,232.5" stroke="black" stroke-width="2" fill="none" />
<polyline points="391.5,239.0,407.5,239.0,424.0,239.5,440.5,239.0,457.0,238.0,474.0,237.5" stroke="black" stroke-width="2" fill="none" />
<polyline points="479.5,241.0,487.5,243.5,497.5,248.5,500.5,253.5" stroke="black" stroke-width="2" fill="none" />
<polyline points="504.5,249.5,521.0,250.5" stroke="black" stroke-width="2" fill="none" />
<polyline points="521.5,237.0,505.0,237.5" stroke="black" stroke-width="2" fill="none" />
<polyline points="505.5,217.0,522.0,217.0" stroke="black" stroke-width="2" fill="none" />
<polyline points="511.5,209.0,503.5,206.0,495.5,203.0,487.0,201.5,477.0,205.0,469.0,204.0,461.0,195.0,463.0,204.0,461.0,196.0,451.5,197.0" stroke="black" stroke-width="2" fill="none" />
<polyline points="456.5,206.0,472.5,206.5" stroke="black" stroke-width="2" fill="none" />
<polyline points="466.0,212.0,458.5,208.0,450.5,205.5,442.5,202.5" stroke="black" stroke-width="2" fill="none" />
<polyline points="438.5,197.0,422.0,213.0,405.5,228.5,389.0,243.5,373.0,258.5" stroke="black" stroke-width="2" fill="none" />
<polyline points="378.0,257.0,394.0,256.5,410.5,256.5,426.0,256.5,441.0,256.0,456.5,255.0,472.5,255.0" stroke="black" stroke-width="2" fill="none" />
<polyline points="469.0,248.5,453.0,263.5,437.5,277.5,422.0,292.5,407.0,308.5" stroke="black" stroke-width="2" fill="none" />
<polyline points="410.0,293.0,394.0,293.5" stroke="black" stroke-width="2" fill="none" />
<polyline points="391.0,293.0,407.0,278.0,423.0,262.5,439.5,247.0,455.0,232.5" stroke="black" stroke-width="2" fill="none" />
<polyline points="462.0,239.0,466.5,239.0,475.5,248.0,478.5,245.0,481.5,252.0,489.5,255.5,497.5,244.5" stroke="black" stroke-width="2" fill="none" />
<polyline points="510.5,236.5,511.5,245.5,508.0,242.0,507.0,236.5,502.0,225.0,497.5,217.0,495.5,209.0,495.0,198.0,487.0,195.5,479.0,193.5,471.0,192.5,463.0,191.5,455.0,192.5,447.5,197.5,439.5,198.5,431.5,196.0,423.5,192.0,415.5,188.0,407.5,185.0,399.5,181.0,392.0,177.0,383.5,172.5,375.0,165.5,367.0,151.0,359.0,135.5,351.0,121.5,343.5,106.0,335.5,97.0,328.0,95.0,319.5,97.0,311.5,99.0,303.5,100.0,295.0,100.0,287.0,100.0,279.0,101.0,271.5,101.0,263.5,102.0,255.5,103.5,247.5,103.5,239.0,105.0,231.0,106.0,222.5,109.5,214.5,111.0,206.5,117.0" stroke="black" stroke-width="2" fill="none" />
<polyline points="210.5,118.5,219.0,117.5,224.0,119.5,228.0,127.0,220.0,135.0,218.0,143.0,214.0,151.0,210.0,159.0,211.0,168.5,211.5,176.5,213.5,184.5,215.5,187.5,224.5,196.5,231.5,199.5,239.5,202.5,247.5,202.5,255.5,199.5,263.5,194.5,265.5,184.0,270.5,178.5,284.5,174.5,292.5,182.0,300.5,185.5" stroke="black" stroke-width="2" fill="none" />
<polyline points="304.5,199.5,313.5,207.5,325.5,215.0,335.0,219.0,332.5,227.0,333.5,235.0,333.5,241.0,334.5,249.0,339.0,258.5,358.5,266.5,370.5,274.5,379.5,282.5,392.0,291.0,405.0,299.5,416.0,307.5" stroke="black" stroke-width="2" fill="none" />
<polyline points="429.5,310.5,438.0,310.5,442.5,309.5,457.5,315.5,464.0,325.5,472.5,333.5,489.5,341.5" stroke="black" stroke-width="2" fill="none" />
<polyline points="518.5,330.0,502.5,330.5,486.0,330.5,470.0,331.0,454.0,332.0,437.0,333.0,420.5,333.5,404.5,334.5" stroke="black" stroke-width="2" fill="none" />
<polyline points="423.0,341.0,439.5,326.0" stroke="black" stroke-width="2" fill="none" />
<polyline points="430.0,313.5,437.5,315.5,445.5,317.5,453.5,319.5,461.5,319.0,469.5,315.0,477.5,308.0" stroke="black" stroke-width="2" fill="none" />
<polyline points="468.0,315.5,484.5,315.0,501.5,315.5,518.5,316.0" stroke="black" stroke-width="2" fill="none" />
<polyline points="475.5,280.0,458.0,295.0,441.0,310.0" stroke="black" stroke-width="2" fill="none" />
<polyline points="439.5,304.0,455.0,303.5,471.5,302.0" stroke="black" stroke-width="2" fill="none" />
<polyline points="462.5,305.0,470.5,296.0,478.5,295.5" stroke="black" stroke-width="2" fill="none" />
<polyline points="469.0,287.5,453.0,287.0,436.5,287.0" stroke="black" stroke-width="2" fill="none" />
<polyline points="421.0,276.0,438.0,275.5,454.0,275.5,470.5,274.5" stroke="black" stroke-width="2" fill="none" />
<polyline points="472.0,276.0,480.0,284.0" stroke="black" stroke-width="2" fill="none" />
<polyline points="475.5,289.5,467.5,283.5" stroke="black" stroke-width="2" fill="none" />
<polyline points="468.5,278.0,476.5,276.0,484.0,273.0,492.0,256.5,500.0,261.0,509.0,266.0" stroke="black" stroke-width="2" fill="none" />
<polyline points="521.0,277.0,505.0,277.5,489.5,278.5,473.5,279.5,457.5,280.5,441.5,280.5,426.0,281.5,410.0,281.5,393.5,282.0" stroke="black" stroke-width="2" fill="none" />
<polyline points="397.5,277.5,389.5,273.5,381.5,272.0,372.0,270.0" stroke="black" stroke-width="2" fill="none" />
<polyline points="375.5,268.5,391.0,267.5,407.5,267.5,423.5,266.5,439.0,265.5,455.0,263.5,472.0,263.0,488.5,262.0,505.5,260.5,522.5,259.0" stroke="black" stroke-width="2" fill="none" />
<polyline points="509.5,260.5,507.0,258.5,499.0,267.5,493.0,274.5,493.5,279.5,490.5,278.5,495.5,270.5,499.5,260.5,498.0,253.5,493.0,247.5,479.0,240.0,474.5,229.0,479.5,227.5,481.5,228.5,479.5,222.5,472.0,236.0,464.0,236.0,455.0,233.0,460.0,230.5,461.0,223.0,456.0,215.0,446.0,213.0,437.5,208.0" stroke="black" stroke-width="2" fill="none" />
<polyline points="440.0,211.0,424.0,227.5,408.0,244.0,391.5,261.0" stroke="black" stroke-width="2" fill="none" />
<polyline points="407.0,259.0,423.5,243.0,440.0,227.5,455.5,212.5,471.0,196.5,486.0,181.5,501.0,166.5,517.0,151.5" stroke="black" stroke-width="2" fill="none" />
<polyline points="520.0,133.5,503.0,149.5,486.5,165.5,471.0,181.0" stroke="black" stroke-width="2" fill="none" />
<polyline points="471.0,169.5,455.0,185.0" stroke="black" stroke-width="2" fill="none" />
<polyline points="454.0,177.0,470.5,177.0" stroke="black" stroke-width="2" fill="none" />
<polyline points="482.0,197.5,491.5,205.5,510.5,209.5" stroke="black" stroke-width="2" fill="none" />
<polyline points="504.5,215.0,508.5,222.5" stroke="black" stroke-width="2" fill="none" />
<polyline points="504.0,223.0,496.0,211.0" stroke="black" stroke-width="2" fill="none" />
<polyline points="493.5,217.0,485.0,205.5" stroke="black" stroke-width="2" fill="none" />
<polyline points="484.5,207.0,493.0,215.5,499.0,225.5,499.5,233.5,504.5,240.5,505.5,248.0,502.5,256.0,509.5,256.5,509.0,263.5,510.0,266.5" stroke="black" stroke-width="2" fill="none" />
<polyline points="483.5,276.5,487.5,268.5,490.5,260.5,483.5,252.5" stroke="black" stroke-width="2" fill="none" />
<polyline points="476.5,239.0,482.5,234.0,482.5,226.5,470.5,222.5,462.5,219.5" stroke="black" stroke-width="2" fill="none" />
<polyline points="465.5,222.5,463.5,231.0,473.5,239.0,471.5,247.5,468.5,255.5" stroke="black" stroke-width="2" fill="none" />
<polyline points="470.5,278.5,474.0,286.5,478.0,296.0,481.0,304.0,476.5,312.0" stroke="black" stroke-width="2" fill="none" />
<polyline points="477.5,328.5,469.5,326.5,461.5,323.5" stroke="black" stroke-width="2" fill="none" />
<polyline points="458.5,326.5,455.5,334.5,458.5,327.0,471.5,330.5,479.5,336.0,487.5,339.0" stroke="black" stroke-width="2" fill="none" />
<polyline points="456.5,327.5,441.0,343.0" stroke="black" stroke-width="2" fill="none" />
<polyline points="424.5,282.5,422.0,285.5,414.5,288.0,413.0,283.5,405.0,283.5,399.0,279.0,379.5,271.0,374.5,269.0,368.0,262.0,376.0,254.5,373.0,247.0,376.5,240.0,380.5,231.5,386.5,225.5,384.5,222.5,389.5,214.0,392.5,206.0,392.5,198.0,392.5,190.0,383.5,178.5" stroke="black" stroke-width="2" fill="none" />
<polyline points="391.5,178.5,408.0,162.5,423.5,147.0,439.0,132.0,454.5,117.0,469.5,102.0,484.0,87.0,498.0,72.0,513.5,56.5" stroke="black" stroke-width="2" fill="none" />
<polyline points="519.5,70.0,503.0,85.0,486.5,100.5,471.0,116.0,456.0,130.5,441.0,146.0,425.0,161.0,409.0,176.0" stroke="black" stroke-width="2" fill="none" />
<polyline points="408.0,176.0,392.0,177.0" stroke="black" stroke-width="2" fill="none" />
<polyline points="393.5,169.5,409.0,169.0,424.5,168.0,440.5,167.0,457.0,166.0,472.5,165.5,487.5,165.0,502.5,164.0,517.5,164.0" stroke="black" stroke-width="2" fill="none" />
<polyline points="488.5,150.0,504.5,135.5,519.5,120.5" stroke="black" stroke-width="2" fill="none" />
<polyline points="520.5,102.5,504.5,118.5,489.0,133.5,472.0,149.0,454.5,164.0,438.5,179.0" stroke="black" stroke-width="2" fill="none" />
<polyline points="435.0,171.5,436.0,179.5,429.0,187.5" stroke="black" stroke-width="2" fill="none" />
<polyline points="423.5,187.0,440.0,187.0,456.0,186.5,472.0,186.0,488.0,185.0,504.5,183.5,520.5,182.5" stroke="black" stroke-width="2" fill="none" />
<polyline points="519.0,141.0,502.5,141.0,485.5,141.0,469.0,141.5,453.5,142.5,437.5,143.5" stroke="black" stroke-width="2" fill="none" />
<polyline points="439.5,127.5,454.5,126.5,469.5,126.5,485.0,127.5,500.5,128.5,516.5,129.5" stroke="black" stroke-width="2" fill="none" />
<polyline points="519.5,97.0,503.5,98.0" stroke="black" stroke-width="2" fill="none" />
<polyline points="520.5,87.5,505.0,103.5,488.0,118.5,472.0,134.0,456.0,149.0,440.0,165.0" stroke="black" stroke-width="2" fill="none" />
<polyline points="441.0,158.5,425.0,158.5,410.5,159.0,395.5,160.5,380.0,161.0" stroke="black" stroke-width="2" fill="none" />
<polyline points="375.5,159.5,392.0,144.0,408.0,128.0,423.5,112.0,439.5,95.5,454.5,80.5,470.5,65.5,486.5,50.5,502.5,34.5,519.5,19.0" stroke="black" stroke-width="2" fill="none" />
<polyline points="517.0,6.5,502.5,21.5,488.0,36.5,472.5,52.0,456.0,68.0,440.5,83.5,425.5,99.5,409.5,114.5,393.0,130.0,376.5,146.0" stroke="black" stroke-width="2" fill="none" />
<polyline points="378.0,154.0,394.0,154.5,410.0,153.0,425.5,152.5,440.5,152.5,455.5,153.0,470.0,153.0,485.5,152.5,501.0,152.5,516.0,152.0" stroke="black" stroke-width="2" fill="none" />
<polyline points="518.5,113.0,503.0,112.5,487.5,112.0,471.5,111.5,456.0,111.5,440.0,112.0" stroke="black" stroke-width="2" fill="none" />
<polyline points="424.5,101.0,440.0,100.0,456.0,99.0,472.5,97.5,489.5,97.0" stroke="black" stroke-width="2" fill="none" />
<polyline points="505.0,46.0,489.0,46.0,473.5,47.0,457.0,47.5" stroke="black" stroke-width="2" fill="none" />
<polyline points="468.5,36.5,484.5,36.0" stroke="black" stroke-width="2" fill="none" />
<polyline points="503.0,36.0,519.0,35.0" stroke="black" stroke-width="2" fill="none" />
<polyline points="516.5,36.5,501.0,52.5,485.5,69.0,469.5,84.5,453.0,99.0,436.5,115.0,422.0,130.0,407.5,146.0,392.5,161.5" stroke="black" stroke-width="2" fill="none" />
<polyline points="374.0,148.0,357.5,148.5" stroke="black" stroke-width="2" fill="none" />
<polyline points="361.0,150.5,376.5,134.0,392.0,117.5,408.0,101.0,424.0,84.5,438.5,69.0,453.5,52.0,469.5,35.5,485.0,19.5,501.0,4.0" stroke="black" stroke-width="2" fill="none" />
<polyline points="485.0,6.0,469.0,22.0,455.0,38.5,440.5,54.5,425.0,71.0,408.5,87.5,393.0,102.0,378.0,117.5,362.5,132.5" stroke="black" stroke-width="2" fill="none" />
<polyline points="355.5,122.5,372.0,122.0,388.0,122.0,404.0,121.5,420.0,120.0,436.5,119.0,452.5,118.5,469.0,118.5,485.5,117.5,501.5,116.5,518.0,116.0" stroke="black" stroke-width="2" fill="none" />
<polyline points="503.5,60.5,487.5,60.5,472.0,61.0,457.0,62.0,441.0,63.0" stroke="black" stroke-width="2" fill="none" />
<polyline points="422.0,83.0,438.5,83.0,455.0,82.5,471.0,82.0,486.5,80.5,503.0,80.0" stroke="black" stroke-width="2" fill="none" />
<polyline points="504.0,16.5,488.5,17.0" stroke="black" stroke-width="2" fill="none" />
<polyline points="456.5,26.0,440.0,41.5,422.5,56.0,406.0,70.5,389.5,86.0,372.5,100.5,356.5,115.5" stroke="black" stroke-width="2" fill="none" />
<polyline points="343.5,115.0,347.5,123.0,352.5,131.0,357.0,139.0" stroke="black" stroke-width="2" fill="none" />
<polyline points="342.0,140.0,358.5,139.5,374.5,138.5,391.5,138.0,408.0,137.5,424.5,137.0,440.0,135.5,455.5,134.0,472.0,132.0,489.0,130.5,505.0,130.0,521.0,129.0" stroke="black" stroke-width="2" fill="none" />
<polyline points="517.5,101.0,501.5,102.0,486.0,102.0,471.0,102.0,455.5,102.5,440.0,103.5,424.5,104.5,408.5,105.0,392.5,105.0,376.5,105.5,361.5,106.5,345.5,107.5" stroke="black" stroke-width="2" fill="none" />
<polyline points="346.0,103.5,361.5,88.5,376.5,73.5,392.0,57.5" stroke="black" stroke-width="2" fill="none" />
<polyline points="404.5,53.5,420.5,37.0" stroke="black" stroke-width="2" fill="none" />
<polyline points="413.0,23.0,404.0,15.0" stroke="black" stroke-width="2" fill="none" />
<polyline points="401.0,15.5,390.0,23.5,389.5,28.5,397.5,26.0,409.5,27.0" stroke="black" stroke-width="2" fill="none" />
<polyline points="393.5,26.5,409.0,26.0,424.5,25.0,440.0,24.5,454.5,24.5,470.0,24.0,486.0,23.0,502.0,22.0,518.0,21.5" stroke="black" stroke-width="2" fill="none" />
<polyline points="517.5,8.5,502.0,9.0,485.5,9.0,469.5,9.0,453.5,10.0,437.5,11.0" stroke="black" stroke-width="2" fill="none" />
<polyline points="424.5,68.5,408.5,69.0" stroke="black" stroke-width="2" fill="none" />
<polyline points="374.0,88.5,358.5,104.0,342.5,120.0" stroke="black" stroke-width="2" fill="none" />
<polyline points="342.0,116.0,350.0,122.5,357.5,137.0" stroke="black" stroke-width="2" fill="none" />
<polyline points="366.0,154.0,370.5,162.0,375.5,170.0,389.5,178.0,407.0,186.5,424.0,194.5,442.0,203.0,454.0,203.0,458.0,204.0,468.5,211.0" stroke="black" stroke-width="2" fill="none" />
<polyline points="467.5,221.0,483.5,221.5" stroke="black" stroke-width="2" fill="none" />
<polyline points="484.5,210.5,489.5,218.5,492.0,221.5,496.0,207.0,504.5,215.0" stroke="black" stroke-width="2" fill="none" />
<polyline points="419.5,197.0,404.0,211.0,389.0,226.0,373.5,241.0" stroke="black" stroke-width="2" fill="none" />
<polyline points="377.5,244.5,362.0,245.0,346.5,245.5" stroke="black" stroke-width="2" fill="none" />
<polyline points="346.5,247.5,363.0,231.5" stroke="black" stroke-width="2" fill="none" />
<polyline points="349.0,226.0,341.0,222.0,332.5,226.0" stroke="black" stroke-width="2" fill="none" />
<polyline points="328.0,204.0,343.5,203.5,360.5,203.0,377.0,202.0,392.5,200.5,408.5,200.0,424.5,199.5,441.0,199.5" stroke="black" stroke-width="2" fill="none" />
<polyline points="422.5,211.5,406.0,212.0" stroke="black" stroke-width="2" fill="none" />
<polyline points="412.0,213.0,420.0,215.0" stroke="black" stroke-width="2" fill="none" />
<polyline points="406.5,228.5,422.0,228.0,437.5,227.5" stroke="black" stroke-width="2" fill="none" />
<polyline points="457.0,218.5,441.0,218.5,424.0,218.5,407.0,219.0,390.0,219.0,373.0,217.5,357.5,218.0,342.5,217.0,327.5,216.5,312.5,216.0,296.5,216.0" stroke="black" stroke-width="2" fill="none" />
<polyline points="263.5,215.0,246.5,216.0,230.0,217.0" stroke="black" stroke-width="2" fill="none" />
<polyline points="228.5,221.5,236.5,221.5" stroke="black" stroke-width="2" fill="none" />
<polyline points="245.5,218.0,229.5,233.0" stroke="black" stroke-width="2" fill="none" />
<polyline points="228.5,231.5,236.5,231.5,244.5,231.5,253.0,230.0,261.0,230.0" stroke="black" stroke-width="2" fill="none" />
<polyline points="262.0,222.0,262.0,214.5,262.0,206.5,258.0,203.5,250.0,206.5,242.0,206.5,234.0,206.0,226.0,206.0" stroke="black" stroke-width="2" fill="none" />
<polyline points="216.0,195.5,198.5,196.0,181.5,196.0,165.0,196.0,149.5,196.0,133.5,197.0,118.0,198.0,102.0,198.5,86.0,199.0,70.0,200.0,54.5,201.0,38.5,202.0,22.5,203.0,7.0,204.0" stroke="black" stroke-width="2" fill="none" />
<polyline points="10.0,197.5,26.0,197.0,42.0,195.5,58.0,194.0,74.0,192.0" stroke="black" stroke-width="2" fill="none" />
<polyline points="71.0,213.5,87.0,212.5,103.5,210.5,120.0,209.5,137.0,208.5" stroke="black" stroke-width="2" fill="none" />
<polyline points="133.5,213.5,149.0,198.0,164.5,182.0" stroke="black" stroke-width="2" fill="none" />
<polyline points="184.0,180.5,168.0,195.5,152.5,211.0" stroke="black" stroke-width="2" fill="none" />
<polyline points="149.0,209.0,165.5,209.0" stroke="black" stroke-width="2" fill="none" />
<polyline points="167.5,216.5,184.5,200.5,202.0,184.0,219.5,168.0,235.0,152.5" stroke="black" stroke-width="2" fill="none" />
<polyline points="239.0,159.0,246.5,159.0" stroke="black" stroke-width="2" fill="none" />
<polyline points="247.0,151.5,231.0,166.5" stroke="black" stroke-width="2" fill="none" />
<polyline points="225.5,164.5,210.0,165.0" stroke="black" stroke-width="2" fill="none" />
<polyline points="209.5,160.5,218.0,150.5,226.0,143.0,234.5,140.0,242.5,138.0,250.5,139.5,259.0,142.5,268.0,143.5,276.0,147.0" stroke="black" stroke-width="2" fill="none" />
<polyline points="280.0,151.0,283.0,159.0,278.0,167.0,271.0,174.5,274.0,180.5,274.0,181.0" stroke="black" stroke-width="2" fill="none" />
<polyline points="264.0,153.5,248.0,168.5,232.5,183.5" stroke="black" stroke-width="2" fill="none" />
<polyline points="244.5,185.0,244.5,177.0,247.5,168.0,255.0,160.0,261.0,152.0,253.0,162.5,244.5,169.5" stroke="black" stroke-width="2" fill="none" />
<polyline points="223.0,172.0,223.5,168.5,215.5,170.5" stroke="black" stroke-width="2" fill="none" />
<polyline points="213.5,179.5,220.0,185.0,216.5,193.0,217.5,201.0,213.5,209.5,203.5,217.5,209.0,214.5,215.0,197.0" stroke="black" stroke-width="2" fill="none" />
<polyline points="215.5,187.0,200.0,203.0,184.0,218.5" stroke="black" stroke-width="2" fill="none" />
<polyline points="169.5,196.0,153.5,196.5,137.5,196.5" stroke="black" stroke-width="2" fill="none" />
<polyline points="121.0,164.5,136.5,163.5,153.5,162.5" stroke="black" stroke-width="2" fill="none" />
<polyline points="177.5,164.0,194.5,163.0" stroke="black" stroke-width="2" fill="none" />
<polyline points="198.5,170.5,214.5,155.5" stroke="black" stroke-width="2" fill="none" />
<polyline points="201.0,149.0,185.0,165.0" stroke="black" stroke-width="2" fill="none" />
<polyline points="214.0,183.5,222.0,182.5,225.0,183.5" stroke="black" stroke-width="2" fill="none" />
<polyline points="218.5,187.0,226.5,196.0,234.0,186.5,230.0,191.0,230.5,195.5,231.5,194.5,225.5,209.0,227.0,217.0,226.5,225.0,228.5,228.0,236.5,227.5,244.5,227.5,252.5,227.0,260.0,227.0" stroke="black" stroke-width="2" fill="none" />
<polyline points="195.0,213.0,178.5,214.0,161.5,215.0,146.5,215.0,132.0,216.0,117.5,217.0,101.5,218.0,86.0,218.0,70.5,219.5,55.5,219.5,40.0,219.5,24.0,220.0,8.5,220.0" stroke="black" stroke-width="2" fill="none" />
<polyline points="8.5,224.5,25.0,209.0,40.5,193.5,55.0,178.5,70.0,163.0,85.5,147.0" stroke="black" stroke-width="2" fill="none" />
<polyline points="86.0,134.0,102.0,118.0,119.0,102.5,135.0,86.5" stroke="black" stroke-width="2" fill="none" />
<polyline points="121.5,89.0,105.5,105.5,88.5,120.5,71.5,136.5,54.5,152.5,37.5,167.5,21.0,182.5,4.0,197.5" stroke="black" stroke-width="2" fill="none" />
<polyline points="8.5,190.0,24.5,189.5,41.0,188.5,57.0,187.5,73.0,186.5,88.5,185.5,105.0,185.5,120.0,185.5,136.0,185.0,152.5,184.0,168.0,183.0,184.5,182.5,200.0,181.5,216.0,180.5,232.0,179.5,249.0,178.5,264.5,178.0,282.0,177.5,298.5,177.0,314.5,175.5,330.0,175.0,346.0,174.5,362.5,174.5,378.0,174.5,393.0,174.0" stroke="black" stroke-width="2" fill="none" />
<polyline points="393.0,188.5,406.0,192.5,405.0,197.0,417.5,201.0,410.5,209.0,419.0,216.5,423.0,216.5" stroke="black" stroke-width="2" fill="none" />
<polyline points="416.5,195.5,424.5,199.5,437.5,204.5,457.5,207.5" stroke="black" stroke-width="2" fill="none" />
<polyline points="466.0,213.0,458.0,213.0,445.0,206.0,437.0,206.0,429.0,202.0,421.0,201.5,412.5,196.5,404.5,191.5,397.0,194.0,386.0,188.0,386.0,190.5,386.0,182.5,373.0,169.5,365.0,154.5" stroke="black" stroke-width="2" fill="none" />
<polyline points="375.0,169.0,359.5,170.0,343.5,170.0" stroke="black" stroke-width="2" fill="none" />
<polyline points="329.0,159.5,344.5,159.0,361.0,158.5" stroke="black" stroke-width="2" fill="none" />
<polyline points="332.0,159.0,315.0,160.0,298.5,161.0,282.0,163.0,266.0,165.0,250.0,166.5,234.0,167.0,217.5,166.5,201.5,167.0,185.5,167.5,169.5,167.5,153.0,168.5,136.5,169.0,119.5,169.0,102.5,168.5,86.0,169.0,70.0,169.0,54.5,170.0,39.0,171.5,23.0,173.0,6.5,173.5" stroke="black" stroke-width="2" fill="none" />
<polyline points="6.0,180.0,22.0,164.0,38.0,147.0,54.5,131.5" stroke="black" stroke-width="2" fill="none" />
<polyline points="55.0,118.5,72.0,102.5,88.0,87.0,104.0,72.5,120.0,57.0" stroke="black" stroke-width="2" fill="none" />
<polyline points="106.5,60.5,90.0,75.0,74.0,90.0,57.5,104.5" stroke="black" stroke-width="2" fill="none" />
<polyline points="56.0,112.0,71.0,112.0" stroke="black" stroke-width="2" fill="none" />
<polyline points="81.5,107.5,90.5,109.5" stroke="black" stroke-width="2" fill="none" />
<polyline points="91.0,106.5,107.0,92.0,123.5,76.5" stroke="black" stroke-width="2" fill="none" />
<polyline points="151.5,69.0,167.5,53.0,184.5,37.5" stroke="black" stroke-width="2" fill="none" />
<polyline points="182.0,36.5,166.0,36.5,149.5,37.5,134.0,38.0,117.5,39.0,101.5,40.0,85.5,41.5,69.0,42.0,54.0,43.0,39.0,44.0,23.0,45.0,6.5,46.0" stroke="black" stroke-width="2" fill="none" />
<polyline points="8.5,54.5,24.5,38.5,42.0,23.5,59.0,8.5" stroke="black" stroke-width="2" fill="none" />
<polyline points="54.0,17.5,70.0,17.5" stroke="black" stroke-width="2" fill="none" />
<polyline points="73.0,8.0,57.0,23.0,40.0,37.0,22.5,52.0,4.5,67.5" stroke="black" stroke-width="2" fill="none" />
<polyline points="7.0,72.5,22.5,72.0,38.0,70.5,53.5,69.0" stroke="black" stroke-width="2" fill="none" />
<polyline points="56.5,84.5,72.0,84.5" stroke="black" stroke-width="2" fill="none" />
<polyline points="88.0,83.0,104.0,82.0" stroke="black" stroke-width="2" fill="none" />
<polyline points="102.0,70.5,85.0,71.5" stroke="black" stroke-width="2" fill="none" />
<polyline points="85.5,50.0,69.0,51.0,52.5,51.5,35.0,51.5,18.5,51.0" stroke="black" stroke-width="2" fill="none" />
<polyline points="6.0,61.0,22.5,61.5,39.0,60.5,55.5,59.0,72.0,58.5,88.5,58.0,104.5,57.0,121.0,56.5,137.0,56.5,152.5,56.5,168.5,55.5,184.0,55.5" stroke="black" stroke-width="2" fill="none" />
<polyline points="186.0,56.5,170.5,72.5,154.5,87.0,138.5,102.0,122.0,118.0,105.0,133.5" stroke="black" stroke-width="2" fill="none" />
<polyline points="102.5,137.0,112.5,145.0" stroke="black" stroke-width="2" fill="none" />
<polyline points="119.0,143.0,134.5,142.5" stroke="black" stroke-width="2" fill="none" />
<polyline points="134.0,110.5,118.5,112.0,103.0,113.0" stroke="black" stroke-width="2" fill="none" />
<polyline points="104.0,128.0,88.5,129.0,72.5,129.5" stroke="black" stroke-width="2" fill="none" />
<polyline points="71.5,152.0,56.0,167.5,40.0,183.5,24.5,199.5,8.5,215.0" stroke="black" stroke-width="2" fill="none" />
<polyline points="3.5,227.5,19.0,227.0,35.0,225.5,51.5,224.5,67.5,224.0,84.5,224.0,99.0,224.0" stroke="black" stroke-width="2" fill="none" />
<polyline points="103.0,228.0,119.5,213.5,136.0,198.0,151.0,183.5,166.5,169.5,183.0,155.0,200.0,139.5,216.5,123.5" stroke="black" stroke-width="2" fill="none" />
<polyline points="222.5,115.0,230.5,115.5,239.0,115.5,247.0,116.0,255.0,117.0,263.0,116.0,269.0,115.5" stroke="black" stroke-width="2" fill="none" />
<polyline points="270.5,117.5,270.0,110.0,267.0,113.5" stroke="black" stroke-width="2" fill="none" />
<polyline points="264.5,121.0,247.5,136.0" stroke="black" stroke-width="2" fill="none" />
<polyline points="246.0,140.5,262.0,140.0" stroke="black" stroke-width="2" fill="none" />
<polyline points="261.5,133.5,277.5,118.5" stroke="black" stroke-width="2" fill="none" />
<polyline points="278.5,130.0,262.0,131.5,245.5,133.5,229.0,134.5" stroke="black" stroke-width="2" fill="none" />
<polyline points="230.5,132.5,238.0,132.5,246.5,132.5,254.5,132.0,261.5,131.0,268.5,135.0" stroke="black" stroke-width="2" fill="none" />
<polyline points="265.0,132.0,266.0,140.0,272.5,151.5,277.5,159.5,267.5,160.5,277.5,174.5,273.5,182.0,271.0,190.0,261.5,192.0,267.0,198.0,266.5,205.5,269.5,214.0" stroke="black" stroke-width="2" fill="none" />
<polyline points="295.0,146.0,280.5,146.0,265.5,146.0,249.5,146.5,233.0,147.5,217.5,148.5,201.5,149.5,184.5,150.5,169.0,151.5,152.5,151.5,136.5,151.0,120.0,150.0,103.0,149.0,87.0,149.0,70.0,149.5,54.0,150.0,38.0,150.5,21.0,151.5,4.5,152.0" stroke="black" stroke-width="2" fill="none" />
<polyline points="6.5,150.5,22.5,135.5,39.0,120.0" stroke="black" stroke-width="2" fill="none" />
<polyline points="40.5,134.5,25.0,150.5,9.5,167.0" stroke="black" stroke-width="2" fill="none" />
<polyline points="4.0,161.0,19.5,160.5,35.5,161.0,52.5,161.5,70.0,161.0" stroke="black" stroke-width="2" fill="none" />
<polyline points="86.0,178.5,71.0,178.0,55.0,178.0,39.0,178.5" stroke="black" stroke-width="2" fill="none" />
<polyline points="23.5,182.5,7.5,182.5" stroke="black" stroke-width="2" fill="none" />
<polyline points="28.0,210.0,44.0,209.5,59.5,209.5" stroke="black" stroke-width="2" fill="none" />
<polyline points="77.0,230.0,68.0,238.0" stroke="black" stroke-width="2" fill="none" />
<polyline points="73.5,233.5,76.5,234.5" stroke="black" stroke-width="2" fill="none" />
<polyline points="87.0,227.5,102.5,212.0,118.5,195.5,134.0,180.0,149.0,165.0,164.5,150.5,180.0,135.0,194.5,120.0,210.5,105.0" stroke="black" stroke-width="2" fill="none" />
<polyline points="215.5,104.0,199.0,104.5,182.0,105.5,165.0,106.5,150.0,106.5,134.5,107.0,119.0,107.5,103.5,107.5,87.5,108.5,72.0,108.0,56.5,108.0,40.5,108.0,24.0,108.0,8.0,109.5" stroke="black" stroke-width="2" fill="none" />
<polyline points="9.5,114.5,26.0,98.5,42.0,83.0,57.5,67.5,73.0,53.0,89.0,38.5" stroke="black" stroke-width="2" fill="none" />
<polyline points="106.5,39.5,90.0,55.0,73.5,70.5,56.5,85.5,39.5,99.5,23.5,115.0,7.0,129.0" stroke="black" stroke-width="2" fill="none" />
<polyline points="5.0,124.0,21.0,124.0,38.0,122.5,54.0,121.5,70.0,120.5,86.5,119.0,103.0,117.5,118.5,117.0,134.5,116.5,150.5,116.0,167.0,116.0,182.5,115.0,198.0,113.5,213.5,113.0,229.0,113.0,244.5,113.5,260.5,113.0,276.0,112.5,292.0,112.5,308.0,113.0,324.0,114.0" stroke="black" stroke-width="2" fill="none" />
<polyline points="325.0,113.5,321.0,121.5,318.5,123.5,307.0,131.5,298.0,139.5,301.0,141.5,309.0,138.5,317.0,129.0,324.5,122.5" stroke="black" stroke-width="2" fill="none" />
<polyline points="323.5,120.5,316.0,123.5,308.0,131.5,299.5,138.0,291.5,142.0,284.0,140.0,276.0,136.5,267.0,128.5,257.0,130.0,249.0,129.0,240.5,130.0,232.5,130.5,220.0,126.0,212.0,128.5,209.0,137.5,220.0,129.5,215.0,133.0,206.5,137.5" stroke="black" stroke-width="2" fill="none" />
<polyline points="227.0,132.0,226.0,140.0,232.0,152.5,230.0,146.0" stroke="black" stroke-width="2" fill="none" />
<polyline points="235.0,140.5,221.0,148.0,215.0,156.0,220.0,158.0,225.5,159.5" stroke="black" stroke-width="2" fill="none" />
<polyline points="232.5,137.0,249.5,121.5" stroke="black" stroke-width="2" fill="none" />
<polyline points="255.0,138.0,262.0,146.0,271.0,153.5,263.0,159.0,271.0,155.5,275.0,166.5" stroke="black" stroke-width="2" fill="none" />
<polyline points="271.0,130.0,279.0,130.0,287.0,130.0,295.0,124.0,303.0,114.5,311.5,107.5,304.5,113.5,297.5,121.5,289.5,130.5" stroke="black" stroke-width="2" fill="none" />
<polyline points="305.0,142.5,317.0,134.5,330.0,126.5" stroke="black" stroke-width="2" fill="none" />
<polyline points="329.0,127.0,321.0,131.5,313.0,139.5,305.0,143.0,305.0,140.0,315.5,131.5,324.5,123.5,331.5,115.5" stroke="black" stroke-width="2" fill="none" />
<polyline points="334.0,99.0,341.5,106.5,345.5,114.5,349.5,122.5,354.5,130.0,360.0,138.0,363.0,146.0,365.0,154.0,369.5,161.5,373.5,170.0,379.5,178.0,381.5,186.0,388.0,190.0,387.0,198.0,384.5,206.5,378.5,215.0,383.5,218.0,380.5,226.0,375.5,233.5,370.5,241.5,365.0,249.5,352.5,260.5,361.5,264.5,368.5,274.5,377.0,282.5,385.0,287.0,393.0,292.0,401.0,294.5,409.0,301.0,417.5,306.0,425.0,310.0,433.0,305.0,441.0,305.5,449.0,309.5,457.5,311.0" stroke="black" stroke-width="2" fill="none" />
<polyline points="417.0,289.0,411.0,283.5,411.0,276.0" stroke="black" stroke-width="2" fill="none" />
<polyline points="373.5,256.5,368.0,268.5,360.0,266.5,352.0,263.5,344.0,260.5" stroke="black" stroke-width="2" fill="none" />
<polyline points="342.5,261.0,358.0,260.0" stroke="black" stroke-width="2" fill="none" />
<polyline points="362.0,252.5,346.0,253.0" stroke="black" stroke-width="2" fill="none" />
<polyline points="339.5,257.5,347.5,258.5,352.0,261.0,359.5,262.0,367.5,256.0,368.0,248.5,375.0,252.5,378.5,250.0" stroke="black" stroke-width="2" fill="none" />
<polyline points="368.5,248.0,366.0,256.5,365.0,264.5,373.0,267.5,373.0,265.0,381.0,264.0,381.0,262.0,389.0,265.5,397.5,268.5,405.5,271.5,413.0,277.5" stroke="black" stroke-width="2" fill="none" />
<polyline points="393.0,217.0,376.5,232.0,359.0,248.0,342.0,263.5" stroke="black" stroke-width="2" fill="none" />
<polyline points="335.0,249.0,343.0,256.0,351.0,256.0,358.5,253.5,366.5,248.0,374.0,237.0,381.5,221.5" stroke="black" stroke-width="2" fill="none" />
<polyline points="378.0,217.0,394.5,202.0" stroke="black" stroke-width="2" fill="none" />
<polyline points="398.0,202.0,397.0,210.0" stroke="black" stroke-width="2" fill="none" />
<polyline points="391.0,203.0,399.0,201.0,395.5,209.0,394.5,217.0,396.5,218.0,393.0,231.0,383.5,233.0,379.5,241.0,375.0,240.5,383.0,226.5,387.0,219.0" stroke="black" stroke-width="2" fill="none" />
<polyline points="416.0,195.0,435.0,207.0,450.5,215.5,452.5,223.5,452.0,231.5,463.0,239.0,475.5,242.5,478.5,250.5,477.5,258.5,473.5,266.5,471.5,274.5,477.0,282.0,473.5,294.0,466.5,302.0,473.5,306.5" stroke="black" stroke-width="2" fill="none" />
<polyline points="432.5,173.0,424.5,173.5,416.5,171.5,409.0,175.0,405.0,179.0,415.5,171.0" stroke="black" stroke-width="2" fill="none" />
<polyline points="390.5,115.0,374.0,114.5" stroke="black" stroke-width="2" fill="none" />
<polyline points="341.0,87.0,355.0,72.0,370.5,56.5" stroke="black" stroke-width="2" fill="none" />
<polyline points="376.5,41.0,360.0,57.0,342.5,72.0" stroke="black" stroke-width="2" fill="none" />
<polyline points="327.5,62.5,342.5,61.5,358.0,60.0,374.5,58.5,391.0,58.0,407.5,57.5,423.0,57.0,438.5,55.5,454.0,55.0,470.5,54.5,486.0,54.0,502.5,54.0,519.0,53.5" stroke="black" stroke-width="2" fill="none" />
<polyline points="372.0,26.0,356.0,28.0" stroke="black" stroke-width="2" fill="none" />
<polyline points="355.5,21.0,350.0,29.0,338.0,35.0,334.0,42.0,339.5,34.5,351.5,25.5,358.5,14.5,364.5,17.5,372.0,18.5,380.0,22.5,388.0,25.0,396.0,17.5,404.0,14.0,412.5,21.0,420.5,17.0,425.0,13.0,433.0,10.0,441.0,3.5" stroke="black" stroke-width="2" fill="none" />
<polyline points="377.0,24.0,365.0,20.0,360.5,11.5" stroke="black" stroke-width="2" fill="none" />
<polyline points="339.0,44.0,355.0,43.5,371.5,44.0,388.5,43.0,405.5,41.0,422.5,40.5,438.5,40.0,454.5,40.5,470.0,40.5,486.0,39.5,501.0,39.0,518.0,38.5" stroke="black" stroke-width="2" fill="none" />
<polyline points="518.0,71.0,501.0,72.0,484.5,72.5,468.5,73.5,452.5,73.0,436.5,73.0,420.0,73.5,403.5,74.0,387.0,73.0,371.0,73.5,355.5,73.0,339.5,72.5,322.5,72.5,306.5,72.5" stroke="black" stroke-width="2" fill="none" />
<polyline points="299.5,89.5,315.5,89.5,330.5,90.0,346.5,91.0,362.5,91.0,378.5,91.5,395.0,92.0,411.0,91.5,426.5,90.5,441.5,90.0,456.5,89.5,473.5,88.5,490.5,88.0,507.0,87.5,522.5,85.5" stroke="black" stroke-width="2" fill="none" />
<polyline points="326.5,49.5,318.5,53.5,324.5,50.0" stroke="black" stroke-width="2" fill="none" />
<polyline points="310.5,111.5,304.5,119.5,298.5,126.0,306.5,116.0" stroke="black" stroke-width="2" fill="none" />
<polyline points="245.5,142.5,243.5,143.5,243.5,157.5,239.0,157.5,247.0,157.5,254.5,155.5,254.5,149.5,254.5,149.5,257.0,150.5,251.5,158.0,244.5,166.5,240.5,174.0,240.5,182.0,244.0,191.0,242.0,199.0" stroke="black" stroke-width="2" fill="none" />
<polyline points="181.5,115.0,166.0,130.5,150.5,147.0,135.0,163.5,119.5,180.0,103.0,197.0,87.5,213.5,71.5,230.0,55.5,246.0" stroke="black" stroke-width="2" fill="none" />
<polyline points="54.0,242.5,39.0,242.0,23.5,242.0,8.0,242.0" stroke="black" stroke-width="2" fill="none" />
<polyline points="8.0,238.5,24.0,222.0,39.5,207.5,55.0,193.0,71.5,178.5,87.5,163.5,104.0,149.0,120.5,134.0,137.0,118.5,153.0,103.0,169.0,87.5,184.5,71.5" stroke="black" stroke-width="2" fill="none" />
<polyline points="185.0,87.0,169.0,102.5,153.0,118.0,136.5,133.5,120.0,149.0,103.5,164.5,87.0,179.5,70.5,194.0,54.5,209.0,39.5,224.5,23.5,241.0,7.0,256.0" stroke="black" stroke-width="2" fill="none" />
<polyline points="10.5,253.5,26.5,252.5,41.5,251.5,56.5,251.0,71.5,249.5,86.0,249.0" stroke="black" stroke-width="2" fill="none" />
<polyline points="76.0,232.5,68.0,238.5,60.5,238.5,52.5,238.5,44.5,243.5,50.5,238.5" stroke="black" stroke-width="2" fill="none" />
<polyline points="40.5,242.5,57.0,226.5,73.5,211.5,89.5,196.0,105.0,180.5,121.0,164.0,137.5,148.5,154.5,133.0,171.5,117.0,189.0,101.0,205.5,85.5" stroke="black" stroke-width="2" fill="none" />
<polyline points="216.0,84.5,199.5,85.5,183.0,87.5,167.0,88.5,151.0,88.5,135.5,88.5,120.0,88.5,104.5,89.0,88.5,89.5,72.5,91.0,55.5,92.5,39.0,93.5,22.5,94.0,6.0,94.5" stroke="black" stroke-width="2" fill="none" />
<polyline points="6.5,96.5,24.0,81.0,40.5,65.0,57.0,49.0,72.5,33.5,87.5,18.0" stroke="black" stroke-width="2" fill="none" />
<polyline points="89.5,8.0,73.5,9.0,58.0,10.5,42.5,11.0,26.5,10.5,10.0,11.0" stroke="black" stroke-width="2" fill="none" />
<polyline points="21.0,7.5,5.0,22.5" stroke="black" stroke-width="2" fill="none" />
<polyline points="8.0,28.5,24.0,27.5,40.5,27.0,57.0,26.5,72.0,26.0,88.0,25.5,104.0,24.5,121.0,23.0" stroke="black" stroke-width="2" fill="none" />
<polyline points="135.5,15.5,143.5,15.5" stroke="black" stroke-width="2" fill="none" />
<polyline points="150.0,13.0,165.5,13.0,181.5,12.5" stroke="black" stroke-width="2" fill="none" />
<polyline points="184.0,26.5,168.5,27.5,152.0,28.0" stroke="black" stroke-width="2" fill="none" />
<polyline points="151.0,39.5,135.0,54.5" stroke="black" stroke-width="2" fill="none" />
<polyline points="135.5,71.0,150.5,55.0,166.0,40.0" stroke="black" stroke-width="2" fill="none" />
<polyline points="180.5,38.5,188.5,46.0" stroke="black" stroke-width="2" fill="none" />
<polyline points="186.5,49.5,178.5,56.5" stroke="black" stroke-width="2" fill="none" />
<polyline points="168.0,67.0,152.5,67.0" stroke="black" stroke-width="2" fill="none" />
<polyline points="200.0,67.0,184.5,68.0,168.5,68.5,152.5,69.0,135.5,69.5,119.0,70.5,102.0,73.0,85.5,75.0,70.0,76.0,54.5,77.5,39.0,78.0,23.0,78.0,6.5,77.5" stroke="black" stroke-width="2" fill="none" />
<polyline points="6.5,88.5,22.5,73.5,38.5,58.5,54.0,43.0,70.0,28.0" stroke="black" stroke-width="2" fill="none" />
<polyline points="72.5,34.5,57.5,34.0,41.0,33.5" stroke="black" stroke-width="2" fill="none" />
<polyline points="38.5,7.5,22.5,22.5,6.5,38.0" stroke="black" stroke-width="2" fill="none" />
<polyline points="6.0,35.5,22.0,34.5" stroke="black" stroke-width="2" fill="none" />
<polyline points="21.5,96.5,38.0,96.5" stroke="black" stroke-width="2" fill="none" />
<polyline points="22.0,116.5,6.5,117.5" stroke="black" stroke-width="2" fill="none" />
<polyline points="4.5,137.5,20.0,137.5,37.5,137.0,54.5,136.0,70.5,135.0,87.0,134.5,103.0,134.0,118.5,132.5,133.5,131.0,149.0,130.0,165.0,129.0,181.5,128.5,197.0,129.5,213.0,130.5,229.0,131.0" stroke="black" stroke-width="2" fill="none" />
<polyline points="206.5,108.5,198.5,97.5" stroke="black" stroke-width="2" fill="none" />
<polyline points="110.5,141.5,102.5,135.5,95.0,132.5" stroke="black" stroke-width="2" fill="none" />
<polyline points="92.5,108.0,85.0,103.5,77.0,101.5" stroke="black" stroke-width="2" fill="none" />
<polyline points="52.5,145.0,36.5,145.0,21.0,145.0,5.0,145.0" stroke="black" stroke-width="2" fill="none" />
<polyline points="1.0,235.0,17.5,234.5,34.0,233.5,51.0,233.5,67.5,234.5,84.0,234.5,100.0,235.5,115.5,234.5,132.0,234.0,149.0,233.5,165.0,233.5,181.5,232.5" stroke="black" stroke-width="2" fill="none" />
<polyline points="156.0,253.0,140.5,253.5,124.5,254.5" stroke="black" stroke-width="2" fill="none" />
<polyline points="135.5,263.0,120.0,263.0,104.5,264.0,88.5,264.5,73.0,265.0,57.0,265.0,40.5,266.0,24.5,266.5,7.5,267.5" stroke="black" stroke-width="2" fill="none" />
<polyline points="6.5,283.5,22.5,283.0,38.0,283.0,54.0,283.0,70.5,282.5,87.5,283.0,104.0,282.5,120.0,281.0" stroke="black" stroke-width="2" fill="none" />
<polyline points="128.5,280.5,121.0,288.0,113.0,292.0,123.5,287.0,130.5,279.0" stroke="black" stroke-width="2" fill="none" />
<polyline points="102.0,297.0,85.5,312.0,70.0,327.5" stroke="black" stroke-width="2" fill="none" />
<polyline points="69.0,323.5,57.0,331.0,44.5,339.0,49.5,337.0,57.5,330.0,65.5,326.5,73.0,322.5,81.0,317.5,85.0,309.5,99.0,304.0" stroke="black" stroke-width="2" fill="none" />
<polyline points="97.5,297.5,105.5,299.0" stroke="black" stroke-width="2" fill="none" />
<polyline points="103.0,294.0,86.0,294.5,69.0,294.5,53.0,295.0,37.5,296.5,22.0,297.5,6.5,298.0" stroke="black" stroke-width="2" fill="none" />
<polyline points="3.0,314.0,18.5,313.0,35.0,311.0,52.0,310.0,70.0,309.5,88.0,309.0" stroke="black" stroke-width="2" fill="none" />
<polyline points="87.5,301.0,95.5,307.0,91.5,309.0,83.0,320.0" stroke="black" stroke-width="2" fill="none" />
<polyline points="54.0,321.5,37.5,338.0" stroke="black" stroke-width="2" fill="none" />
<polyline points="25.5,327.0,42.0,311.0" stroke="black" stroke-width="2" fill="none" />
<polyline points="24.5,308.5,8.5,324.0" stroke="black" stroke-width="2" fill="none" />
<polyline points="4.0,327.5,19.5,327.5,36.5,328.0,53.0,328.5" stroke="black" stroke-width="2" fill="none" />
<polyline points="24.5,277.0,40.5,262.5" stroke="black" stroke-width="2" fill="none" />
<polyline points="101.0,190.0,117.5,189.5" stroke="black" stroke-width="2" fill="none" />
<polyline points="141.0,18.5,147.0,11.0,140.0,3.0" stroke="black" stroke-width="2" fill="none" />
<polyline points="137.5,2.0,136.0,10.0,137.5,18.0,142.5,25.5,136.0,30.5" stroke="black" stroke-width="2" fill="none" />
<polyline points="103.5,23.5,96.5,15.5,95.5,10.5,98.5,2.5" stroke="black" stroke-width="2" fill="none" />
</svg>