<svg xmlns="http://www.w3.org/2000/svg" version="1.1"><polyline points="146.0,131.5,131.0,139.5,121.0,147.5,113.5,155.5,107.0,163.5,102.0,172.0,98.0,180.5,95.0,189.0,92.5,197.5,90.5,205.5,89.0,213.5,88.5,222.0,88.5,230.0,89.5,237.5,90.5,245.0,93.0,253.0,96.0,260.5,99.0,268.0,102.0,275.5,108.0,283.0,115.5,291.0,123.0,299.5" stroke="black" stroke-width="2" fill="none" />
<polyline points="121.0,298.0,113.0,290.0,105.0,280.0,97.0,265.0" stroke="black" stroke-width="2" fill="none" />
<polyline points="100.5,264.5,108.5,279.5,117.0,288.5,125.0,296.5,133.0,301.5,141.0,306.0,148.5,309.5" stroke="black" stroke-width="2" fill="none" />
<polyline points="152.0,312.0,135.5,328.0" stroke="black" stroke-width="2" fill="none" />
<polyline points="136.5,335.5,152.5,334.5" stroke="black" stroke-width="2" fill="none" />
<polyline points="148.0,333.0,156.0,337.0,164.0,332.0,172.5,332.0" stroke="black" stroke-width="2" fill="none" />
<polyline points="172.5,340.5,181.0,341.5,189.0,338.0,197.5,339.5,206.0,339.0,214.0,339.5,222.5,339.0,230.5,339.5,238.0,340.5,245.5,340.5,253.5,340.5,262.0,340.0,270.5,339.5,278.5,339.5,286.5,341.0,294.5,335.5,302.5,335.0,305.0,340.0,312.5,335.5,317.5,327.5,325.5,328.5,334.0,327.5,342.0,329.5,350.0,332.5,355.0,327.5,363.5,327.5,371.5,328.5,372.5,335.0,384.5,335.0,392.5,335.0,400.5,335.0,408.5,329.0,411.5,333.0" stroke="black" stroke-width="2" fill="none" />
<polyline points="418.5,329.5,402.5,331.0,386.5,331.0" stroke="black" stroke-width="2" fill="none" />
<polyline points="392.5,332.0,400.5,331.0" stroke="black" stroke-width="2" fill="none" />
<polyline points="414.0,325.5,422.0,327.0,430.0,326.5,439.0,323.5,446.5,320.0" stroke="black" stroke-width="2" fill="none" />
<polyline points="458.5,316.5,473.5,315.5,490.0,314.5,506.0,313.5" stroke="black" stroke-width="2" fill="none" />
<polyline points="501.5,314.0,518.0,298.5" stroke="black" stroke-width="2" fill="none" />
<polyline points="518.0,277.5,502.0,293.5,485.5,309.5" stroke="black" stroke-width="2" fill="none" />
<polyline points="488.5,318.0,483.0,326.5,466.0,336.5,472.0,333.5,472.5,330.5,482.5,332.5,479.5,328.5,486.5,327.0,490.5,324.0,499.5,322.0,507.5,320.0,511.5,317.0" stroke="black" stroke-width="2" fill="none" />
<polyline points="519.5,332.0,503.5,347.0" stroke="black" stroke-width="2" fill="none" />
<polyline points="517.5,328.5,502.0,330.0,486.5,330.5,471.0,331.5,455.0,332.0,439.5,332.0" stroke="black" stroke-width="2" fill="none" />
<polyline points="437.0,314.0,421.0,314.5" stroke="black" stroke-width="2" fill="none" />
<polyline points="428.5,313.5,436.5,314.5,444.5,314.5,449.5,317.5,447.0,326.5,437.5,335.5" stroke="black" stroke-width="2" fill="none" />
<polyline points="430.5,340.0,422.5,340.0" stroke="black" stroke-width="2" fill="none" />
<polyline points="453.5,332.0,450.5,327.0,447.5,333.0,453.5,322.0,454.5,311.5,451.5,304.0,449.5,305.0,441.0,300.5" stroke="black" stroke-width="2" fill="none" />
<polyline points="469.5,295.5,484.5,280.5,499.0,265.5,515.5,250.0" stroke="black" stroke-width="2" fill="none" />
<polyline points="519.5,251.0,504.0,251.5,488.5,251.0" stroke="black" stroke-width="2" fill="none" />
<polyline points="485.0,250.5,474.0,259.0,476.0,259.0,484.0,252.0" stroke="black" stroke-width="2" fill="none" />
<polyline points="489.0,262.5,505.5,246.5" stroke="black" stroke-width="2" fill="none" />
<polyline points="505.0,249.5,501.0,257.5,505.0,249.5" stroke="black" stroke-width="2" fill="none" />
<polyline points="517.0,265.0,501.0,281.0,486.0,296.5" stroke="black" stroke-width="2" fill="none" />
<polyline points="488.0,298.5,504.5,298.0,520.0,298.0" stroke="black" stroke-width="2" fill="none" />
<polyline points="519.5,265.0,503.0,265.5,486.5,266.5,470.5,267.0,455.5,267.5,440.0,268.0" stroke="black" stroke-width="2" fill="none" />
<polyline points="440.0,273.5,455.5,258.0" stroke="black" stroke-width="2" fill="none" />
<polyline points="462.0,256.5,470.0,266.5,468.0,275.5" stroke="black" stroke-width="2" fill="none" />
<polyline points="469.0,275.0,452.5,290.0" stroke="black" stroke-width="2" fill="none" />
<polyline points="457.0,279.5,462.5,274.5" stroke="black" stroke-width="2" fill="none" />
<polyline points="474.0,267.0,468.0,275.5,461.0,268.5,456.0,260.0,442.0,265.0,436.0,277.5,437.0,269.5,446.5,260.5" stroke="black" stroke-width="2" fill="none" />
<polyline points="420.0,257.0,412.0,255.5" stroke="black" stroke-width="2" fill="none" />
<polyline points="408.0,254.5,412.0,252.5,411.5,245.0,406.5,249.0" stroke="black" stroke-width="2" fill="none" />
<polyline points="410.5,245.0,419.0,247.0" stroke="black" stroke-width="2" fill="none" />
<polyline points="416.5,244.5,423.0,253.0" stroke="black" stroke-width="2" fill="none" />
<polyline points="393.0,249.0,375.5,249.5,358.0,251.0,340.5,252.5,324.0,253.5,307.5,255.0" stroke="black" stroke-width="2" fill="none" />
<polyline points="315.0,255.5,317.5,263.5,310.5,270.5,313.5,274.5,319.5,270.5,320.5,277.5,328.5,286.5,336.5,285.5,344.5,288.0,352.0,290.0,359.5,290.0,367.5,290.5,375.5,292.0,383.5,293.0,391.5,294.0" stroke="black" stroke-width="2" fill="none" />
<polyline points="403.0,282.5,419.0,281.5,435.0,281.5,451.5,281.0,467.0,280.0,483.0,279.5,500.0,278.5,517.0,278.0" stroke="black" stroke-width="2" fill="none" />
<polyline points="521.0,234.0,504.0,234.5,487.5,235.5" stroke="black" stroke-width="2" fill="none" />
<polyline points="462.0,237.0,454.0,243.5,453.0,238.5,449.0,230.0" stroke="black" stroke-width="2" fill="none" />
<polyline points="462.0,228.0,457.0,236.0,464.5,242.0,464.0,250.0,462.5,258.0,468.0,266.0,474.0,272.0" stroke="black" stroke-width="2" fill="none" />
<polyline points="474.0,313.5,482.0,314.5,490.0,315.0,498.0,316.0,506.0,314.0" stroke="black" stroke-width="2" fill="none" />
<polyline points="504.0,317.5,496.0,319.5,488.5,318.5" stroke="black" stroke-width="2" fill="none" />
<polyline points="472.0,323.5,464.0,327.5" stroke="black" stroke-width="2" fill="none" />
<polyline points="510.0,312.5,502.0,311.5,493.5,311.0,485.5,311.0,477.5,309.5,470.5,306.0,462.5,305.5,453.5,305.5,450.0,313.5,441.5,310.5,433.5,310.5,426.0,312.0,418.0,315.0,410.0,312.5,401.5,313.0" stroke="black" stroke-width="2" fill="none" />
<polyline points="395.5,285.0,378.5,285.0,362.5,286.0,346.0,287.0,330.0,286.5" stroke="black" stroke-width="2" fill="none" />
<polyline points="344.0,296.0,359.5,281.0,375.5,265.0" stroke="black" stroke-width="2" fill="none" />
<polyline points="380.0,266.5,388.0,272.5,395.5,273.0,403.5,277.5,411.5,277.0" stroke="black" stroke-width="2" fill="none" />
<polyline points="394.0,264.5,377.0,265.0,359.5,266.0,342.5,265.5,326.0,266.5,309.5,266.5,292.0,266.5,274.5,265.5,258.0,265.5" stroke="black" stroke-width="2" fill="none" />
<polyline points="261.5,265.5,254.5,273.5,250.0,281.5,243.0,289.0,237.5,297.0,239.5,287.0,248.5,283.0,256.0,271.0,264.0,265.0,271.5,265.5,279.5,267.5,287.5,267.5,295.5,267.0,303.0,266.5,311.5,268.5" stroke="black" stroke-width="2" fill="none" />
<polyline points="316.0,270.5,320.0,278.5,324.0,286.0" stroke="black" stroke-width="2" fill="none" />
<polyline points="343.5,275.5,359.0,261.0,375.0,246.5" stroke="black" stroke-width="2" fill="none" />
<polyline points="376.5,251.5,377.0,259.5,373.0,267.5,373.0,275.5,374.0,284.0,376.5,292.0" stroke="black" stroke-width="2" fill="none" />
<polyline points="382.5,293.5,375.5,285.5" stroke="black" stroke-width="2" fill="none" />
<polyline points="373.0,283.5,381.0,289.0,389.0,291.5,397.5,291.5,405.5,293.5,413.5,296.0,422.0,297.0,430.0,297.0,438.0,299.0,446.0,297.0,454.0,297.0,462.0,300.0,470.0,299.0" stroke="black" stroke-width="2" fill="none" />
<polyline points="398.5,296.0,393.5,282.5,382.5,272.5,384.5,264.0,384.0,256.0,382.5,247.5,386.5,240.5" stroke="black" stroke-width="2" fill="none" />
<polyline points="391.5,231.0,375.5,232.5,359.5,234.5,344.5,235.0,329.5,236.0,314.0,238.0,298.0,240.0,282.0,241.0" stroke="black" stroke-width="2" fill="none" />
<polyline points="276.0,250.5,292.5,235.0" stroke="black" stroke-width="2" fill="none" />
<polyline points="295.0,244.5,311.5,228.5" stroke="black" stroke-width="2" fill="none" />
<polyline points="310.5,208.0,326.5,193.0,343.0,177.5,360.0,162.0,375.5,146.5,390.5,130.5,406.5,115.0,423.0,99.5,440.5,84.0,456.0,69.5,472.0,55.5,488.5,40.5,505.5,25.0,522.0,9.0" stroke="black" stroke-width="2" fill="none" />
<polyline points="522.0,24.5,505.5,40.5,490.0,57.0,474.0,72.5,457.0,87.5,440.5,103.5" stroke="black" stroke-width="2" fill="none" />
<polyline points="437.5,102.5,452.5,101.5,468.0,101.5,484.0,101.0,501.0,99.5,517.5,99.0" stroke="black" stroke-width="2" fill="none" />
<polyline points="518.5,101.0,503.0,116.5,487.0,133.0,471.0,148.5,455.5,164.0" stroke="black" stroke-width="2" fill="none" />
<polyline points="459.0,165.5,451.5,166.5" stroke="black" stroke-width="2" fill="none" />
<polyline points="439.0,165.5,435.5,173.0" stroke="black" stroke-width="2" fill="none" />
<polyline points="438.0,163.5,453.5,148.0,469.0,132.0,484.5,116.5,500.5,100.5,516.0,84.5" stroke="black" stroke-width="2" fill="none" />
<polyline points="517.0,69.5,501.5,85.0,486.0,100.5,470.5,116.0,455.0,132.0,439.0,148.0,424.5,164.5" stroke="black" stroke-width="2" fill="none" />
<polyline points="424.5,150.5,441.0,134.0,455.5,117.5,471.0,100.5,487.0,84.0,503.5,67.5,520.0,52.5" stroke="black" stroke-width="2" fill="none" />
<polyline points="520.5,50.5,504.5,50.5" stroke="black" stroke-width="2" fill="none" />
<polyline points="522.0,36.0,505.5,52.0,489.0,68.5,472.0,84.5,455.0,101.0,439.0,116.0,422.0,132.5" stroke="black" stroke-width="2" fill="none" />
<polyline points="419.0,141.0,419.5,149.0,419.5,157.0,424.0,165.0,430.0,172.0" stroke="black" stroke-width="2" fill="none" />
<polyline points="411.0,173.0,413.0,181.0" stroke="black" stroke-width="2" fill="none" />
<polyline points="410.5,167.5,394.5,169.0,378.0,170.0,360.5,170.5,343.5,171.0,327.0,170.5,311.0,169.5,295.0,168.5,279.0,167.5,263.5,168.0" stroke="black" stroke-width="2" fill="none" />
<polyline points="274.5,178.0,289.5,162.5,306.5,146.5,324.0,132.0,341.5,117.0,359.5,101.5,376.5,86.5,392.0,70.0,408.5,53.5,424.5,37.5,440.5,21.5,456.5,7.0" stroke="black" stroke-width="2" fill="none" />
<polyline points="471.5,2.0,456.0,18.0,440.0,35.0,423.5,51.5,406.0,67.5,389.5,83.5,373.0,100.0,357.5,116.0,341.5,132.0,324.5,148.0,307.5,163.5,291.5,178.0,275.0,192.0" stroke="black" stroke-width="2" fill="none" />
<polyline points="281.5,186.0,297.5,186.0,312.5,186.0,327.0,186.0,342.0,186.0,358.0,185.5,374.0,185.0,390.0,184.0" stroke="black" stroke-width="2" fill="none" />
<polyline points="385.5,192.5,391.5,190.5,390.5,198.5,391.0,206.5,390.5,214.5,391.0,223.0,390.5,230.5,392.0,239.0,390.0,245.0,391.0,253.5" stroke="black" stroke-width="2" fill="none" />
<polyline points="393.0,255.5,385.0,255.0" stroke="black" stroke-width="2" fill="none" />
<polyline points="371.0,273.5,355.0,273.0" stroke="black" stroke-width="2" fill="none" />
<polyline points="374.0,282.0,358.5,297.0" stroke="black" stroke-width="2" fill="none" />
<polyline points="381.5,279.0,389.5,281.0,397.5,284.0" stroke="black" stroke-width="2" fill="none" />
<polyline points="361.5,327.0,369.5,327.5,368.5,326.0,373.5,323.0,379.0,319.0,387.0,323.0,394.5,318.5,402.0,316.5,408.0,320.5,413.0,324.0,421.0,322.0,429.0,318.5,428.5,315.5,436.5,319.0,445.5,326.0" stroke="black" stroke-width="2" fill="none" />
<polyline points="400.5,340.5,392.5,341.0,384.5,340.0,376.0,340.0,367.5,340.5,359.5,340.0,351.0,341.0,343.0,341.5" stroke="black" stroke-width="2" fill="none" />
<polyline points="342.5,324.0,350.5,324.5,358.5,325.5,366.0,321.0,380.0,321.0,380.5,328.5,377.5,334.5,381.5,331.5,385.5,328.0,394.0,328.5,402.0,326.5,407.5,335.5,415.5,337.0,420.5,329.0,428.5,329.5,430.5,332.5" stroke="black" stroke-width="2" fill="none" />
<polyline points="352.5,319.0,344.5,320.0,336.5,315.0,328.5,315.0" stroke="black" stroke-width="2" fill="none" />
<polyline points="351.5,329.5,350.0,336.0,342.0,339.5,333.5,339.5,325.5,339.5,317.0,339.0,309.0,339.0" stroke="black" stroke-width="2" fill="none" />
<polyline points="299.0,340.5,291.0,341.0" stroke="black" stroke-width="2" fill="none" />
<polyline points="270.5,337.0,278.5,336.0,286.0,333.0,295.0,332.5,303.0,332.5,311.0,330.0,324.0,332.0" stroke="black" stroke-width="2" fill="none" />
<polyline points="296.0,317.5,281.0,318.0" stroke="black" stroke-width="2" fill="none" />
<polyline points="262.5,294.0,246.5,310.0,230.5,326.0" stroke="black" stroke-width="2" fill="none" />
<polyline points="227.5,323.5,219.5,329.5,215.5,334.5,210.0,328.0,202.5,324.0,195.0,325.0,187.0,326.5" stroke="black" stroke-width="2" fill="none" />
<polyline points="197.5,322.0,214.0,307.0,230.0,291.5" stroke="black" stroke-width="2" fill="none" />
<polyline points="227.5,282.0,211.5,283.0" stroke="black" stroke-width="2" fill="none" />
<polyline points="209.5,301.0,217.5,299.0,222.5,302.0,230.5,301.0,240.5,299.0,248.5,298.5,255.5,295.5,262.5,292.5,270.5,293.5,278.5,289.5,286.0,294.0,294.5,295.0,302.5,291.0" stroke="black" stroke-width="2" fill="none" />
<polyline points="301.5,276.5,294.0,278.5,304.0,275.5" stroke="black" stroke-width="2" fill="none" />
<polyline points="327.0,275.0,343.0,259.0,359.0,243.0,375.0,227.0" stroke="black" stroke-width="2" fill="none" />
<polyline points="375.5,214.0,360.0,230.5,344.5,246.0,329.0,261.5" stroke="black" stroke-width="2" fill="none" />
<polyline points="313.5,246.5,328.5,230.5,344.0,214.5,359.5,199.0,375.0,183.0,390.5,167.0" stroke="black" stroke-width="2" fill="none" />
<polyline points="397.0,176.5,392.0,177.0,387.0,185.0,384.5,192.5,386.0,200.5,386.5,208.5,386.5,216.5" stroke="black" stroke-width="2" fill="none" />
<polyline points="377.0,199.5,360.5,215.0,343.5,231.5,327.0,247.0,312.0,262.0" stroke="black" stroke-width="2" fill="none" />
<polyline points="276.5,265.5,260.5,280.5,244.5,295.0,228.5,310.0" stroke="black" stroke-width="2" fill="none" />
<polyline points="225.0,305.0,215.0,314.0,222.5,306.5,230.5,306.5,238.5,306.5,247.0,306.5,252.5,312.5,260.0,313.5" stroke="black" stroke-width="2" fill="none" />
<polyline points="262.5,295.5,246.5,295.5,230.5,296.0,213.5,296.5,197.0,297.0,180.5,296.5,164.5,296.5" stroke="black" stroke-width="2" fill="none" />
<polyline points="152.0,295.5,135.5,311.5,119.5,327.0" stroke="black" stroke-width="2" fill="none" />
<polyline points="121.0,324.5,136.5,323.5,152.0,324.0,167.5,324.0,182.5,324.0" stroke="black" stroke-width="2" fill="none" />
<polyline points="181.0,330.0,196.5,314.0" stroke="black" stroke-width="2" fill="none" />
<polyline points="183.0,307.0,168.0,323.0" stroke="black" stroke-width="2" fill="none" />
<polyline points="165.5,310.0,150.0,326.5" stroke="black" stroke-width="2" fill="none" />
<polyline points="156.0,306.0,140.5,307.0" stroke="black" stroke-width="2" fill="none" />
<polyline points="153.5,300.0,136.5,300.0,119.5,299.5,102.5,299.5,85.5,299.5,68.0,299.5,51.0,300.0,34.5,300.5,18.5,300.5,2.5,300.5" stroke="black" stroke-width="2" fill="none" />
<polyline points="5.0,309.5,22.0,293.5,39.0,278.0,55.5,262.0,70.5,246.5,86.5,230.5" stroke="black" stroke-width="2" fill="none" />
<polyline points="103.5,233.5,87.0,248.0,70.0,262.5,53.5,277.5,38.0,292.5,22.5,308.0,7.5,322.5" stroke="black" stroke-width="2" fill="none" />
<polyline points="3.5,323.0,11.5,325.0,19.5,322.5,27.0,321.5,34.5,321.5,42.5,320.5,47.0,327.5,49.0,340.5,61.0,333.5,69.0,340.5,77.0,340.0,85.0,339.0,93.5,336.5,96.5,339.5,105.0,339.5,113.0,340.0,120.5,339.5,128.5,340.0,136.5,339.5,144.5,339.5,150.5,339.5,158.5,339.5,166.5,339.5,174.5,336.5,182.0,332.0,190.0,330.0,198.0,330.0,206.0,331.5" stroke="black" stroke-width="2" fill="none" />
<polyline points="220.0,311.5,228.5,310.0,237.0,310.5,245.0,310.5,251.0,312.5,249.0,320.5,244.0,320.0,231.5,328.0,233.5,327.0,241.5,326.0,249.5,327.0,257.5,325.5,260.0,321.5,269.0,319.5,277.0,318.0,277.0,321.0,284.5,315.0,292.5,316.0,301.0,318.5,310.5,322.0,318.5,317.0" stroke="black" stroke-width="2" fill="none" />
<polyline points="281.0,281.0,273.0,280.5,265.0,276.0" stroke="black" stroke-width="2" fill="none" />
<polyline points="260.0,283.5,243.0,284.0" stroke="black" stroke-width="2" fill="none" />
<polyline points="253.0,283.5,250.5,292.0,252.5,306.0,260.5,313.5,257.5,323.0,258.0,322.0,264.0,328.5,273.0,329.0,281.0,328.5,289.0,327.0,297.5,325.0,305.0,324.5,310.5,318.5,314.5,327.5,316.0,319.5,324.0,318.5,328.0,319.5,328.5,323.5,337.0,326.0,340.0,317.5,348.5,316.5" stroke="black" stroke-width="2" fill="none" />
<polyline points="326.5,214.5,343.5,199.0,360.0,184.0,375.5,168.5,390.5,153.5" stroke="black" stroke-width="2" fill="none" />
<polyline points="376.0,161.0,360.5,161.5,344.5,162.0" stroke="black" stroke-width="2" fill="none" />
<polyline points="328.0,150.5,344.0,149.5,360.5,148.5,377.0,147.5" stroke="black" stroke-width="2" fill="none" />
<polyline points="373.5,130.5,357.5,130.5,342.5,129.5,327.0,129.5" stroke="black" stroke-width="2" fill="none" />
<polyline points="312.5,117.5,328.0,116.5,344.0,115.0,359.5,113.5,375.5,112.5" stroke="black" stroke-width="2" fill="none" />
<polyline points="373.0,67.0,356.0,68.0,339.5,69.0,324.0,69.0" stroke="black" stroke-width="2" fill="none" />
<polyline points="315.5,96.0,331.0,95.5,347.0,95.0,363.0,94.0,379.5,93.5" stroke="black" stroke-width="2" fill="none" />
<polyline points="435.0,88.0,451.5,88.0,467.5,87.0,483.5,86.0,499.0,84.0,514.5,83.0" stroke="black" stroke-width="2" fill="none" />
<polyline points="519.0,120.5,502.5,135.5,486.5,150.5,470.5,166.0" stroke="black" stroke-width="2" fill="none" />
<polyline points="476.5,164.5,480.5,161.5,464.0,159.0" stroke="black" stroke-width="2" fill="none" />
<polyline points="472.0,148.0,487.0,147.5,502.5,147.5,518.0,147.0" stroke="black" stroke-width="2" fill="none" />
<polyline points="519.0,138.0,503.0,153.0,487.5,166.5" stroke="black" stroke-width="2" fill="none" />
<polyline points="485.5,161.5,494.0,159.0,499.5,158.5,504.5,159.5" stroke="black" stroke-width="2" fill="none" />
<polyline points="503.0,171.0,519.5,156.5" stroke="black" stroke-width="2" fill="none" />
<polyline points="506.5,132.0,490.5,132.0,474.0,132.5,458.0,133.0" stroke="black" stroke-width="2" fill="none" />
<polyline points="453.0,149.0,436.0,148.5" stroke="black" stroke-width="2" fill="none" />
<polyline points="414.0,140.0,415.0,148.0,416.0,156.0,415.5,164.0,421.5,173.5,416.0,179.5,424.0,170.5,429.0,166.5,438.0,166.0,446.0,159.0,454.0,160.0,462.0,158.0,469.5,162.5,477.5,159.5,485.5,159.5,494.0,153.5,502.5,159.5,511.0,165.5" stroke="black" stroke-width="2" fill="none" />
<polyline points="517.5,147.0,502.0,147.0,485.5,147.0,469.5,148.5,453.0,150.0,437.0,151.5,421.0,152.0,404.0,151.5,388.5,153.0,373.0,153.0,357.5,154.5,342.0,155.5,326.5,156.5,311.0,157.0,294.0,156.0,277.5,155.5,261.0,155.0,244.5,155.5" stroke="black" stroke-width="2" fill="none" />
<polyline points="264.0,163.0,279.5,148.0,295.5,132.5,311.5,117.5,328.5,102.5,345.0,87.5,361.5,71.0,377.0,54.5,392.5,39.0,408.5,23.0" stroke="black" stroke-width="2" fill="none" />
<polyline points="389.5,23.0,373.5,38.5,357.5,55.0,342.0,71.0,325.5,87.0,310.0,103.0,294.5,118.5,278.5,133.5,262.5,148.5,246.0,163.5" stroke="black" stroke-width="2" fill="none" />
<polyline points="259.0,173.0,274.5,157.0,291.0,141.0,309.0,126.5,326.0,112.0,342.0,98.5,359.0,84.5,375.5,70.0,392.0,55.0,408.0,40.0,423.5,24.5,439.0,9.0" stroke="black" stroke-width="2" fill="none" />
<polyline points="434.5,35.5,451.5,34.0,468.0,33.0,485.0,32.5,502.5,32.0,519.0,31.5" stroke="black" stroke-width="2" fill="none" />
<polyline points="506.5,6.5,490.0,22.0,474.0,37.5,457.0,53.0,440.5,69.0,423.5,84.5,407.5,99.0,390.5,114.5,374.0,129.0,357.5,144.0,340.5,159.5,325.5,175.5,310.5,191.5" stroke="black" stroke-width="2" fill="none" />
<polyline points="280.0,202.5,297.0,202.0,313.0,202.5,329.0,202.0,345.0,201.5,361.0,202.0,377.0,201.0,393.0,201.0" stroke="black" stroke-width="2" fill="none" />
<polyline points="393.0,215.5,378.0,216.5,362.0,217.5,346.0,218.5,330.5,218.5,314.0,220.0,296.0,221.5,279.5,223.0" stroke="black" stroke-width="2" fill="none" />
<polyline points="279.0,206.5,294.0,191.0,309.5,175.5,325.0,160.0,340.5,145.0,356.5,130.0,372.5,115.0,389.0,100.0,405.5,84.0,421.5,68.5,437.5,52.0,453.5,35.5,470.5,20.0,487.0,4.0" stroke="black" stroke-width="2" fill="none" />
<polyline points="486.5,18.5,503.0,17.0,518.5,16.5" stroke="black" stroke-width="2" fill="none" />
<polyline points="521.0,64.5,504.0,64.0,486.5,64.0,469.5,65.0" stroke="black" stroke-width="2" fill="none" />
<polyline points="475.5,53.0,491.0,51.5" stroke="black" stroke-width="2" fill="none" />
<polyline points="451.5,67.0,435.5,68.0" stroke="black" stroke-width="2" fill="none" />
<polyline points="437.5,116.5,453.5,116.0,469.5,115.5,485.0,115.0,500.5,115.0,517.5,114.5" stroke="black" stroke-width="2" fill="none" />
<polyline points="518.5,131.5,502.0,132.5,486.0,133.0,469.5,134.0,453.0,134.5,436.0,136.0,420.0,136.5,404.5,136.5,389.5,137.5,373.5,137.0,357.0,136.5,340.5,136.0,324.5,135.5,308.0,135.5,292.5,136.0,277.0,137.0,261.5,137.0,245.5,137.5,230.0,138.5" stroke="black" stroke-width="2" fill="none" />
<polyline points="230.0,145.0,246.0,130.0,262.0,114.5,279.0,99.5,296.0,84.5,313.0,69.5,329.5,55.0,346.0,40.5,362.0,26.0,377.0,11.0" stroke="black" stroke-width="2" fill="none" />
<polyline points="391.0,10.5,375.0,25.0,358.0,39.5,342.5,54.0,327.5,69.0,312.0,85.0,296.0,100.0,280.0,115.5,264.0,132.0,248.5,148.5" stroke="black" stroke-width="2" fill="none" />
<polyline points="231.0,133.5,248.0,117.5,264.0,101.0,280.5,85.0,297.5,70.0,314.0,56.0,329.5,41.0,344.5,25.0,360.0,9.5" stroke="black" stroke-width="2" fill="none" />
<polyline points="348.0,10.0,331.0,24.5,314.5,40.0,297.5,55.5,279.5,70.5,262.0,86.0,245.5,102.0,229.0,117.0,212.0,132.5" stroke="black" stroke-width="2" fill="none" />
<polyline points="217.0,133.0,230.0,140.5,241.0,148.5,250.0,156.5,256.0,165.0,260.5,173.5,263.5,181.5,267.0,190.0,268.5,198.0,269.5,205.5,270.5,213.5,270.5,221.5,269.5,229.5,268.5,237.5,268.0,245.0,269.0,251.0,277.0,251.0,285.0,252.0,293.5,251.5,302.0,253.5,310.0,256.5" stroke="black" stroke-width="2" fill="none" />
<polyline points="246.5,308.0,230.5,309.0,214.5,310.5,199.5,312.0,184.0,312.5,169.0,313.0,153.0,313.0,137.0,313.5,120.0,314.0,102.0,314.0,85.5,313.5,70.0,314.0,54.0,315.0,39.0,315.5,23.5,315.5,8.5,315.0" stroke="black" stroke-width="2" fill="none" />
<polyline points="8.5,330.5,25.5,329.5,41.0,327.5,57.0,326.0,73.5,326.0" stroke="black" stroke-width="2" fill="none" />
<polyline points="71.5,325.0,87.5,309.0,104.0,292.5,121.0,276.5" stroke="black" stroke-width="2" fill="none" />
<polyline points="122.0,271.5,130.0,281.5,138.0,290.5,146.0,299.5" stroke="black" stroke-width="2" fill="none" />
<polyline points="155.0,286.0,171.0,285.0" stroke="black" stroke-width="2" fill="none" />
<polyline points="163.5,266.0,180.0,265.0" stroke="black" stroke-width="2" fill="none" />
<polyline points="193.5,268.0,186.0,273.0,193.5,268.0,200.5,260.0" stroke="black" stroke-width="2" fill="none" />
<polyline points="198.0,260.5,193.0,265.0" stroke="black" stroke-width="2" fill="none" />
<polyline points="183.5,246.0,200.0,230.5,217.0,215.0" stroke="black" stroke-width="2" fill="none" />
<polyline points="216.5,202.5,200.0,218.0,183.0,233.5,165.5,249.0" stroke="black" stroke-width="2" fill="none" />
<polyline points="167.0,236.5,182.0,236.5,197.0,236.5" stroke="black" stroke-width="2" fill="none" />
<polyline points="182.0,212.5,198.0,197.5" stroke="black" stroke-width="2" fill="none" />
<polyline points="195.0,197.0,204.0,204.5,207.5,212.5,207.5,220.0,206.5,227.5,202.0,235.5,192.5,243.5" stroke="black" stroke-width="2" fill="none" />
<polyline points="170.5,244.0,162.5,233.5" stroke="black" stroke-width="2" fill="none" />
<polyline points="174.5,228.5,168.5,221.0" stroke="black" stroke-width="2" fill="none" />
<polyline points="170.0,220.0,186.5,220.0,202.5,219.5,217.5,219.0" stroke="black" stroke-width="2" fill="none" />
<polyline points="217.5,201.0,202.0,201.5,186.0,203.0,170.0,204.5" stroke="black" stroke-width="2" fill="none" />
<polyline points="164.0,209.0,172.0,201.0,180.0,194.5,188.0,194.0,196.0,195.5,204.0,207.0" stroke="black" stroke-width="2" fill="none" />
<polyline points="179.5,195.0,171.0,203.0,164.0,211.0,162.0,219.0,162.5,227.5,163.5,235.5,169.5,243.5,176.5,245.5,183.0,247.0,191.5,244.0,199.5,238.0" stroke="black" stroke-width="2" fill="none" />
<polyline points="137.0,216.5,121.5,218.0,105.5,218.5" stroke="black" stroke-width="2" fill="none" />
<polyline points="107.5,212.0,109.5,220.5,107.5,228.5,110.0,237.0,112.0,245.5,114.0,253.5,116.0,261.5,119.0,269.0,123.0,276.5,128.0,284.5,134.0,292.5,141.0,300.0,154.0,308.0" stroke="black" stroke-width="2" fill="none" />
<polyline points="130.5,280.0,114.0,295.0,98.0,310.0,82.5,325.0" stroke="black" stroke-width="2" fill="none" />
<polyline points="90.0,330.0,106.5,329.5,123.5,328.0" stroke="black" stroke-width="2" fill="none" />
<polyline points="113.0,314.5,105.0,319.5,97.0,321.0,97.0,319.0,89.0,319.5,87.0,317.5,79.5,319.5,71.5,320.5,64.0,320.5,56.0,322.0,55.0,325.0,47.5,327.0" stroke="black" stroke-width="2" fill="none" />
<polyline points="52.0,317.5,60.0,318.0,68.0,317.0,76.0,316.0" stroke="black" stroke-width="2" fill="none" />
<polyline points="70.0,322.5,78.0,322.5,86.0,321.5" stroke="black" stroke-width="2" fill="none" />
<polyline points="79.0,333.5,87.0,336.5" stroke="black" stroke-width="2" fill="none" />
<polyline points="85.5,341.5,88.5,334.5,77.0,337.5" stroke="black" stroke-width="2" fill="none" />
<polyline points="40.5,313.0,55.5,297.0,70.5,280.5,84.5,264.0,98.5,247.5,113.5,231.5" stroke="black" stroke-width="2" fill="none" />
<polyline points="119.0,231.5,103.0,232.5,87.0,234.0,71.0,234.5,55.0,234.0,39.0,234.5,23.0,234.5,6.5,234.5" stroke="black" stroke-width="2" fill="none" />
<polyline points="8.5,239.0,24.0,224.5,40.0,210.5,56.5,195.5,73.5,180.0,90.0,164.0,106.0,148.5,121.5,132.5,136.5,117.0,151.5,102.0,167.0,87.0,182.0,70.0,196.5,52.5,211.5,35.0,226.5,18.5,243.0,2.5" stroke="black" stroke-width="2" fill="none" />
<polyline points="231.0,5.5,214.5,20.5,198.5,37.0,182.5,53.0,166.0,68.5,150.0,83.5,135.0,100.0,120.0,115.5,105.0,130.5,89.5,146.0,74.5,161.5,58.0,177.0,42.0,192.5,25.0,208.0,8.5,224.0" stroke="black" stroke-width="2" fill="none" />
<polyline points="5.0,225.5,21.0,225.5,38.0,224.5,55.5,223.0" stroke="black" stroke-width="2" fill="none" />
<polyline points="54.5,243.0,38.5,245.0,22.5,246.5,7.0,247.5" stroke="black" stroke-width="2" fill="none" />
<polyline points="6.0,256.5,22.0,255.5,37.5,254.0,54.0,252.5,71.0,250.0,86.0,248.0,102.0,247.0,118.0,246.5" stroke="black" stroke-width="2" fill="none" />
<polyline points="118.0,245.5,102.0,262.5,85.5,278.5,70.0,294.5,55.5,310.0,41.0,326.0,25.5,342.0" stroke="black" stroke-width="2" fill="none" />
<polyline points="32.5,337.0,32.5,339.0,25.0,341.0,20.0,338.0,24.5,329.5,29.5,335.5,22.5,325.5" stroke="black" stroke-width="2" fill="none" />
<polyline points="34.5,320.0,33.5,319.0,34.0,327.0,37.0,335.0,41.5,335.0,39.0,340.0,47.0,340.5,54.5,341.5,62.0,339.0,70.0,339.0,71.0,334.5,81.0,333.0,89.0,333.5,103.5,327.5,111.5,327.5,119.5,327.0,128.0,326.0,136.0,325.0,144.0,325.0,152.0,324.0,160.0,321.0,167.0,326.0,175.0,324.0,183.0,325.0,190.5,320.0,198.5,320.5,206.5,319.5,214.5,319.0,216.5,320.0,221.5,316.0,229.5,316.0,237.5,315.5,246.0,316.5" stroke="black" stroke-width="2" fill="none" />
<polyline points="233.5,315.5,226.5,323.5,212.5,326.0,215.0,324.0,223.0,324.0,235.5,322.0,245.0,320.0,253.0,318.5,257.5,319.5,266.0,319.0,274.0,317.0,282.0,316.5,289.0,318.0,296.5,321.0" stroke="black" stroke-width="2" fill="none" />
<polyline points="155.5,300.5,148.5,293.0,143.0,285.0,135.0,274.5,128.0,266.5,124.0,258.5,121.0,250.5,118.0,244.5" stroke="black" stroke-width="2" fill="none" />
<polyline points="117.5,244.5,118.0,252.5,115.0,259.5,123.0,276.0,131.5,289.0,139.5,298.0,147.0,304.0,155.0,308.5,162.5,312.5,170.5,315.5,178.5,317.0" stroke="black" stroke-width="2" fill="none" />
<polyline points="135.5,279.5,119.5,280.5,104.0,281.5,86.5,282.5,70.0,283.0,54.0,283.0,38.0,283.0,22.5,283.0,7.5,283.0" stroke="black" stroke-width="2" fill="none" />
<polyline points="8.0,289.0,23.5,273.5,40.0,258.5,57.0,243.0,74.0,227.5,90.5,212.0,107.0,197.0" stroke="black" stroke-width="2" fill="none" />
<polyline points="106.5,185.0,90.0,200.0,74.0,214.0,57.0,229.5,39.5,245.0,22.5,260.5,7.0,276.0" stroke="black" stroke-width="2" fill="none" />
<polyline points="4.5,277.0,21.5,276.0,37.5,275.5,54.0,274.5,70.5,273.5,86.5,271.5,103.0,271.0" stroke="black" stroke-width="2" fill="none" />
<polyline points="118.0,262.0,102.0,277.5,86.5,292.5" stroke="black" stroke-width="2" fill="none" />
<polyline points="54.5,289.5,38.0,290.0,21.0,290.0,4.5,290.5" stroke="black" stroke-width="2" fill="none" />
<polyline points="4.5,272.5,20.5,272.5,36.5,271.5,53.0,270.5,70.0,269.0,86.5,267.0,102.5,265.5,119.0,263.0" stroke="black" stroke-width="2" fill="none" />
<polyline points="122.0,267.0,126.0,275.0,133.0,284.0,139.0,292.0" stroke="black" stroke-width="2" fill="none" />
<polyline points="161.5,304.0,153.0,294.5,145.5,287.0,137.5,281.0,132.5,271.0,124.5,261.5,116.5,248.0" stroke="black" stroke-width="2" fill="none" />
<polyline points="92.5,249.5,101.0,268.0,105.0,276.0,109.5,284.0,117.5,292.5,125.5,300.5,142.5,308.5" stroke="black" stroke-width="2" fill="none" />
<polyline points="152.0,329.0,144.0,333.0,136.0,333.5,132.0,330.0,123.0,334.0,121.5,330.5,113.0,336.5,113.0,330.5,105.5,331.0,104.0,335.0,96.0,329.0,88.0,328.0,80.0,328.0,74.0,328.0,66.0,327.0,60.5,322.0,60.5,324.0,56.5,326.5,53.5,331.0,44.5,333.0,42.5,325.0,38.5,328.0,36.5,332.0,28.5,330.0,28.5,327.0,24.5,330.0,16.5,330.5,14.5,332.5,13.5,335.0,12.5,331.0,13.5,323.5,11.0,333.5,3.0,336.0" stroke="black" stroke-width="2" fill="none" />
<polyline points="12.0,341.0,20.0,341.0" stroke="black" stroke-width="2" fill="none" />
<polyline points="5.0,260.5,22.0,260.5,38.5,261.0,54.5,261.0,70.5,261.0,86.5,259.0" stroke="black" stroke-width="2" fill="none" />
<polyline points="87.0,214.5,71.5,214.0,57.0,214.5,41.5,215.0,25.0,215.5,9.0,216.0" stroke="black" stroke-width="2" fill="none" />
<polyline points="10.5,209.5,26.0,208.0,40.5,208.0,56.0,208.5,71.5,208.5" stroke="black" stroke-width="2" fill="none" />
<polyline points="92.5,208.0,97.5,201.0,92.0,208.5,91.0,216.5,91.0,224.0,91.0,232.0,92.0,240.0,94.0,248.0,97.0,256.0" stroke="black" stroke-width="2" fill="none" />
<polyline points="118.5,212.0,121.0,203.0" stroke="black" stroke-width="2" fill="none" />
<polyline points="121.0,189.0,129.5,169.0,137.5,158.5,146.0,151.0,154.0,146.0,162.0,151.0" stroke="black" stroke-width="2" fill="none" />
<polyline points="156.0,144.0,144.5,152.5,136.5,161.0,131.0,169.0,127.5,177.0,123.5,185.0,121.0,192.5,118.5,200.5,117.5,208.5,117.5,216.5,114.5,224.5,115.5,231.5,109.5,233.0,118.0,230.0" stroke="black" stroke-width="2" fill="none" />
<polyline points="102.5,204.0,86.5,205.0,70.5,205.0,54.5,204.5,38.5,204.5,23.0,204.0,8.0,204.5" stroke="black" stroke-width="2" fill="none" />
<polyline points="7.5,206.5,24.0,190.0,40.0,173.0,55.5,157.0,72.0,142.0,88.0,128.0,102.5,113.5,117.0,98.5,132.0,83.5,148.0,69.5,165.0,55.5,182.5,41.5,199.0,27.5,215.0,12.5" stroke="black" stroke-width="2" fill="none" />
<polyline points="200.5,2.5,185.5,18.0,169.5,34.5,153.0,50.5,136.0,67.5,120.0,84.0,103.5,101.0,87.0,118.0,71.0,134.0,54.5,148.5,39.0,164.0,23.5,179.5,8.0,195.0" stroke="black" stroke-width="2" fill="none" />
<polyline points="7.5,196.5,24.0,195.5,40.0,195.0,56.0,194.5,73.0,194.5,89.0,194.5" stroke="black" stroke-width="2" fill="none" />
<polyline points="92.5,192.5,100.0,172.5,108.5,161.5,116.5,151.5,125.0,144.5,133.0,139.5,141.0,135.0,148.5,132.0,156.0,130.0,163.5,128.0,171.5,128.0,179.5,128.0,187.5,128.0,195.5,127.5,204.0,129.5,212.0,132.0,220.0,134.5,228.0,138.5,236.0,144.5,243.5,151.0,251.5,159.0,259.5,171.5" stroke="black" stroke-width="2" fill="none" />
<polyline points="250.0,182.0,246.0,190.0,243.0,182.0" stroke="black" stroke-width="2" fill="none" />
<polyline points="199.0,134.5,215.0,118.0,231.0,102.0,247.5,87.0,263.5,71.0,280.0,54.5,297.0,38.5,313.5,22.5,329.5,6.5" stroke="black" stroke-width="2" fill="none" />
<polyline points="311.5,6.5,295.5,22.0,279.5,37.0,263.5,52.0,247.5,68.0,231.5,83.5,215.0,99.5,200.0,115.5,184.0,131.5" stroke="black" stroke-width="2" fill="none" />
<polyline points="185.5,135.0,193.0,135.5,200.5,135.5,208.5,138.5,213.0,142.5,215.0,145.5" stroke="black" stroke-width="2" fill="none" />
<polyline points="212.5,114.0,197.0,114.0" stroke="black" stroke-width="2" fill="none" />
<polyline points="166.0,129.5,182.5,114.5,198.0,100.5,213.0,86.0,229.5,70.5,246.5,55.0,262.0,39.5,278.0,24.5,294.0,9.5" stroke="black" stroke-width="2" fill="none" />
<polyline points="276.0,8.0,259.5,23.5,244.0,38.5,229.0,54.5,214.0,70.0,199.0,85.5,183.0,100.0,166.5,114.0,150.5,128.0" stroke="black" stroke-width="2" fill="none" />
<polyline points="133.0,141.5,117.0,142.0,101.5,142.5,85.0,143.5,70.0,144.0,54.5,146.0,39.0,147.0,22.5,147.5,6.0,147.5" stroke="black" stroke-width="2" fill="none" />
<polyline points="7.5,149.0,23.5,134.0,40.0,118.5,55.5,102.5,71.5,87.0,87.5,71.5,103.5,56.0,119.0,39.5,134.5,23.0,150.0,7.0" stroke="black" stroke-width="2" fill="none" />
<polyline points="137.0,8.5,120.5,24.5,103.0,39.5,86.5,54.5,71.0,68.5,56.0,83.0,40.0,97.5,23.0,112.5,7.0,127.0" stroke="black" stroke-width="2" fill="none" />
<polyline points="11.5,130.5,27.0,129.5,41.5,129.0,56.0,128.5,71.5,127.0,87.0,127.0,103.5,127.0,119.5,128.0,135.5,128.5,151.0,129.0,167.0,127.5" stroke="black" stroke-width="2" fill="none" />
<polyline points="131.0,135.0,115.0,136.0,99.5,136.5,84.0,137.0,69.0,137.5,55.0,138.0,40.5,138.0,25.5,138.0,10.0,138.0" stroke="black" stroke-width="2" fill="none" />
<polyline points="11.0,121.0,27.0,121.0,43.5,122.0,59.0,123.0,74.5,124.0,90.0,124.5,105.5,124.0,121.0,123.0,137.5,122.5,154.5,121.0,170.0,119.0,186.5,119.0,202.5,118.5,217.5,118.0,232.0,117.5,247.5,117.0,264.0,117.0,281.5,117.5,298.0,117.5,314.0,117.5,330.0,116.5,346.0,117.0,362.5,116.0,378.5,115.0,395.5,115.0,411.5,113.5,427.0,112.0,442.0,110.0,458.0,108.0,475.0,106.5,491.0,106.0,506.5,105.0,522.0,104.5" stroke="black" stroke-width="2" fill="none" />
<polyline points="521.0,94.0,505.0,96.5,489.0,97.5,473.0,97.0,456.0,96.5,439.5,96.0,422.5,95.5,406.0,95.5,390.0,95.5,373.5,96.5,357.5,96.5,342.5,95.5,327.0,95.5,311.0,96.5,295.0,98.0,279.0,99.5,263.5,100.5,248.0,101.0,233.0,101.5,218.0,103.0,203.0,103.5,187.0,104.0,171.0,105.0,155.5,105.0,139.5,105.0,123.5,105.0,107.0,105.0,90.5,105.5,75.5,106.5,60.0,108.5,43.5,110.0,27.0,112.0,11.0,113.0" stroke="black" stroke-width="2" fill="none" />
<polyline points="9.0,115.5,25.0,115.5,41.0,116.0,57.5,116.5,74.5,117.5,91.0,116.5,106.5,116.5,122.5,114.5,138.5,113.5,154.0,112.5,170.0,111.5,186.0,110.0" stroke="black" stroke-width="2" fill="none" />
<polyline points="235.0,109.5,250.0,109.0" stroke="black" stroke-width="2" fill="none" />
<polyline points="262.0,82.5,278.5,82.0" stroke="black" stroke-width="2" fill="none" />
<polyline points="295.5,83.5,310.5,83.5,326.0,83.5,341.5,84.0,357.0,84.5,373.5,83.5" stroke="black" stroke-width="2" fill="none" />
<polyline points="311.5,127.5,294.5,128.5" stroke="black" stroke-width="2" fill="none" />
<polyline points="280.0,64.5,295.0,64.0,310.0,64.0" stroke="black" stroke-width="2" fill="none" />
<polyline points="274.5,20.5,291.5,19.5,308.5,17.5,326.0,16.0,343.5,14.5,359.5,14.0,376.0,13.5" stroke="black" stroke-width="2" fill="none" />
<polyline points="262.0,7.0,246.5,23.0,231.0,39.5,215.5,55.5,199.5,71.0,184.0,86.5,168.5,102.5,153.0,118.0,138.0,133.5,122.0,148.0,106.0,163.5,89.5,179.5,74.0,196.0,58.0,211.5,41.0,226.5,24.5,242.5,7.5,257.5" stroke="black" stroke-width="2" fill="none" />
<polyline points="7.0,186.0,22.5,186.0,39.0,186.0,55.0,185.5,70.5,184.5,86.5,184.0,103.5,182.5" stroke="black" stroke-width="2" fill="none" />
<polyline points="108.0,178.5,92.0,178.5" stroke="black" stroke-width="2" fill="none" />
<polyline points="71.5,177.5,55.5,178.5,39.0,179.5,22.5,180.5,6.0,181.0" stroke="black" stroke-width="2" fill="none" />
<polyline points="7.0,178.0,22.5,162.0,38.5,147.0,53.5,131.0,69.5,116.0,85.5,101.0,102.0,85.0,118.0,68.5,134.5,51.5,151.5,34.5,167.0,18.5,182.5,3.5" stroke="black" stroke-width="2" fill="none" />
<polyline points="163.0,12.0,148.0,27.0,133.0,42.0,118.5,56.5,103.0,71.5,86.5,87.0,70.5,102.0,54.0,116.5,38.0,132.0,21.5,147.5,5.5,162.0" stroke="black" stroke-width="2" fill="none" />
<polyline points="5.0,162.0,20.0,162.0,35.5,161.0,52.0,160.5,68.5,160.5,85.5,159.5,102.0,159.0,119.0,159.0" stroke="black" stroke-width="2" fill="none" />
<polyline points="99.5,170.0,83.5,170.5,67.5,171.0,51.0,171.0,35.0,171.5,20.0,172.5,4.5,173.5" stroke="black" stroke-width="2" fill="none" />
<polyline points="6.0,156.5,22.5,156.0,38.5,155.0,55.0,153.5,72.0,152.5,88.5,152.0,103.5,152.0,118.5,152.5" stroke="black" stroke-width="2" fill="none" />
<polyline points="143.0,156.0,140.5,164.0,137.5,169.5" stroke="black" stroke-width="2" fill="none" />
<polyline points="197.5,53.5,213.5,53.0" stroke="black" stroke-width="2" fill="none" />
<polyline points="229.0,49.0,245.5,49.0,263.0,49.0,279.5,48.5,295.0,48.0,310.5,48.5,325.5,49.0,340.5,49.0,355.5,48.5,371.0,47.5" stroke="black" stroke-width="2" fill="none" />
<polyline points="374.5,33.5,358.0,34.0,342.0,33.5,325.0,34.0,308.5,34.5,293.0,34.5,277.5,33.5,261.5,33.0" stroke="black" stroke-width="2" fill="none" />
<polyline points="263.0,19.5,247.0,20.0" stroke="black" stroke-width="2" fill="none" />
<polyline points="116.0,10.5,100.5,25.5,84.5,41.0,69.0,56.5,53.5,72.5,38.5,87.5,24.5,103.5,9.5,118.5" stroke="black" stroke-width="2" fill="none" />
<polyline points="6.5,101.5,22.0,87.0,39.0,71.0,56.5,55.5,73.0,41.0,89.0,27.5,105.0,12.5" stroke="black" stroke-width="2" fill="none" />
<polyline points="90.5,3.5,74.0,19.5,57.0,35.5,39.5,52.5,21.5,70.0,3.5,86.5" stroke="black" stroke-width="2" fill="none" />
<polyline points="4.5,87.0,20.0,87.0,36.5,87.5,53.0,88.0,69.5,88.5,86.0,89.0,103.0,89.0,120.5,88.5,137.0,88.0,152.5,88.0,169.0,87.5,184.5,86.5,200.0,87.0,215.5,87.0,230.5,87.0,245.0,87.0,261.0,86.5,276.5,86.0,292.0,85.5,308.0,85.0,323.5,85.0,340.0,83.5,356.5,82.5,374.0,81.0,391.5,79.5,409.0,79.0,425.0,77.5,441.0,76.0,457.5,75.0,474.0,73.5,490.5,72.5,506.0,72.5,521.0,72.5" stroke="black" stroke-width="2" fill="none" />
<polyline points="522.0,56.0,505.5,56.5,489.5,57.0,473.5,57.5,458.5,57.5,443.5,57.5,428.0,58.0,412.0,58.5,395.5,59.5,379.0,60.0,363.0,61.0,347.0,61.5,331.5,62.0,315.5,62.5,300.0,62.5,284.0,62.5,268.0,62.5,252.0,63.0,236.5,64.5,220.5,65.5,203.5,67.0,186.5,68.5,170.0,69.0,154.0,69.5,137.0,69.5,120.0,70.0,103.0,70.5,86.5,71.5,70.0,72.5,53.0,73.5,36.5,75.0,20.0,77.0,3.0,78.0" stroke="black" stroke-width="2" fill="none" />
<polyline points="4.5,81.5,20.0,81.5,35.5,81.0,52.5,80.5,70.5,80.0,88.0,79.5,104.5,78.0,121.0,78.0,137.0,78.0,153.5,77.5,169.5,77.5,185.5,77.0,201.0,75.5,217.0,74.0,232.5,74.0" stroke="black" stroke-width="2" fill="none" />
<polyline points="73.5,2.5,57.0,18.0,40.0,34.5,24.0,50.5,8.0,66.5" stroke="black" stroke-width="2" fill="none" />
<polyline points="6.0,67.5,23.0,67.0,40.5,66.5,57.5,66.0,73.5,65.0,89.0,65.0,106.0,63.0,122.0,62.0,138.5,61.5,155.5,61.5,172.0,61.5,188.0,61.5,203.5,59.5,218.5,58.5" stroke="black" stroke-width="2" fill="none" />
<polyline points="57.5,4.0,41.5,19.5,26.0,35.0,9.5,50.5" stroke="black" stroke-width="2" fill="none" />
<polyline points="7.5,51.0,24.5,50.5,41.0,51.0,57.0,51.5,73.0,51.0,88.5,50.5,104.5,50.0,120.5,48.5,136.5,47.5,152.0,47.0,168.5,46.0" stroke="black" stroke-width="2" fill="none" />
<polyline points="41.5,5.5,25.0,20.5,8.5,36.0" stroke="black" stroke-width="2" fill="none" />
<polyline points="9.5,35.5,25.0,34.5,40.0,34.5,55.5,34.0,71.0,33.0,86.0,31.5,100.5,31.5,115.5,30.5,131.5,30.0,147.5,30.0,164.5,29.5,181.0,29.0,198.0,29.0,214.5,28.5,230.5,28.0,246.5,27.5" stroke="black" stroke-width="2" fill="none" />
<polyline points="232.5,92.0,218.0,92.0,202.5,92.5,188.0,93.0,172.5,94.0,155.5,94.0,137.5,95.5,120.0,96.5,102.0,97.5,85.5,97.5,69.0,98.5,54.0,97.5,38.5,97.0,22.5,98.0,6.0,98.0" stroke="black" stroke-width="2" fill="none" />
<polyline points="13.0,60.5,28.5,59.0,43.0,57.5,58.5,56.5,74.5,55.5,91.0,55.5,106.5,55.0,122.5,55.0,138.0,54.5,153.0,54.0,168.5,53.5,185.5,52.5,201.0,50.5,217.0,49.0,233.5,49.0,250.0,49.0,264.0,48.5,279.0,49.0,294.5,49.0,310.5,50.0,327.5,49.5,342.5,49.5,358.0,49.5,373.5,50.0,389.0,50.5,405.5,49.5,422.0,49.0,438.5,47.5,454.5,46.0,470.0,44.5,486.0,43.5,502.0,42.5,518.0,42.0" stroke="black" stroke-width="2" fill="none" />
<polyline points="520.0,27.0,504.5,27.0,488.0,27.5,472.0,28.0,455.5,28.5,439.5,29.0,423.5,30.5,407.5,32.5,392.5,33.0,377.5,34.0,362.0,36.0,346.0,38.0,330.0,39.0,313.5,39.0,296.5,39.0,279.5,38.5,262.5,38.5,245.5,38.5,228.0,38.5,211.0,39.0,194.5,39.5,178.5,39.5,162.5,39.5,146.0,40.0,130.0,40.0,114.5,40.5,100.5,41.5,85.5,43.0,70.0,44.0,55.0,45.0,40.0,45.0,25.0,44.0,10.0,43.5" stroke="black" stroke-width="2" fill="none" />
<polyline points="9.5,26.5,26.5,25.5,42.5,25.5,57.5,25.5,72.0,26.0,87.5,26.0,103.5,26.0,118.5,25.0,134.5,23.5,151.0,22.5,167.5,22.0,182.5,22.0,198.0,22.0,214.0,22.0,230.0,22.0,246.5,21.5,264.0,20.5,279.5,19.5,295.5,18.5,312.0,17.5,328.0,16.5,345.0,16.0,361.0,16.5,377.0,16.0,393.0,15.5,409.0,16.0,425.0,15.0,441.0,15.0,456.5,14.5,472.0,13.5,487.5,12.5,504.0,11.5,521.0,11.0" stroke="black" stroke-width="2" fill="none" />
<polyline points="518.5,-3.5,503.0,-3.5,488.0,-3.0,471.5,-2.5,454.5,-3.0,437.0,-3.5,420.0,-3.0,404.0,-3.5,388.0,-3.0,373.0,-2.5,358.0,-2.0,343.0,-2.0,328.0,-1.5,311.5,-1.0,295.0,0.0,279.0,2.0,262.5,4.5,246.5,6.0,230.0,8.0,213.0,9.5,196.5,10.5,180.5,11.5,164.5,11.5,148.5,11.5,134.0,11.0,119.0,10.5,103.5,9.0,87.5,8.0,71.0,8.0,53.5,8.0,36.0,8.0,19.5,8.0,3.5,8.5" stroke="black" stroke-width="2" fill="none" />
<polyline points="6.5,18.0,22.5,17.0,39.5,16.5,55.5,16.5,70.5,17.0,86.0,17.5,102.0,18.0,118.5,18.0,134.0,17.5,149.5,16.0,164.5,16.0,181.5,15.0,197.5,14.5,214.0,13.5,230.5,12.5" stroke="black" stroke-width="2" fill="none" />
<polyline points="22.0,6.5,6.0,21.5" stroke="black" stroke-width="2" fill="none" />
<polyline points="115.5,312.0,110.5,319.0,119.0,317.0,127.0,316.0,135.0,316.0,143.0,316.0,151.0,314.5,159.0,314.5" stroke="black" stroke-width="2" fill="none" />
<polyline points="401.0,188.0,403.5,184.0,404.0,176.0,404.5,168.0" stroke="black" stroke-width="2" fill="none" />
<polyline points="492.0,185.0,500.0,186.5,502.0,180.5" stroke="black" stroke-width="2" fill="none" />
<polyline points="509.5,218.5,504.5,226.5,494.5,237.0,496.5,235.5,504.0,228.0" stroke="black" stroke-width="2" fill="none" />
</svg>