<svg xmlns="http://www.w3.org/2000/svg" version="1.1"><polyline points="4.0,3.0,4.0,11.0,4.0,19.0,4.0,27.0,4.0,35.0,3.5,43.0,3.5,51.5,3.5,59.5,3.5,67.5,3.0,75.0,2.5,83.0,3.0,91.0,2.5,99.0,2.5,107.0,2.5,115.0,2.5,124.0,2.5,132.0,2.5,140.0,2.5,147.5,2.5,155.0,2.5,164.0,3.0,172.0,3.0,180.0,4.5,188.0,10.0,188.5,18.0,186.5,32.0,186.5,39.5,179.5" stroke="black" stroke-width="2" fill="none" />
<polyline points="41.0,195.0,56.5,195.5" stroke="black" stroke-width="2" fill="none" />
<polyline points="58.0,198.0,73.5,197.5,89.5,197.5,105.0,197.0" stroke="black" stroke-width="2" fill="none" />
<polyline points="105.0,198.0,89.0,213.5,72.0,229.5,55.5,245.0,39.0,260.0,23.5,275.0,7.5,291.5" stroke="black" stroke-width="2" fill="none" />
<polyline points="8.0,298.5,24.5,298.5,40.5,298.5,56.0,299.0,72.0,300.5,88.5,300.5,104.5,299.0" stroke="black" stroke-width="2" fill="none" />
<polyline points="86.5,294.5,70.5,310.0,54.5,325.0,39.0,340.0,22.5,355.5,6.5,371.5" stroke="black" stroke-width="2" fill="none" />
<polyline points="11.5,370.5,26.5,370.0,41.5,370.5,57.0,370.0" stroke="black" stroke-width="2" fill="none" />
<polyline points="55.0,358.5,39.0,374.0,23.0,390.0" stroke="black" stroke-width="2" fill="none" />
<polyline points="20.0,397.5,12.0,393.5" stroke="black" stroke-width="2" fill="none" />
<polyline points="12.0,394.0,27.5,378.0,42.0,361.0,58.0,345.0" stroke="black" stroke-width="2" fill="none" />
<polyline points="54.5,338.5,51.5,346.5,50.5,354.0,57.0,364.5,63.5,367.5" stroke="black" stroke-width="2" fill="none" />
<polyline points="69.5,372.5,53.5,388.0,38.0,403.5" stroke="black" stroke-width="2" fill="none" />
<polyline points="44.0,401.0,60.0,400.5,76.0,400.0" stroke="black" stroke-width="2" fill="none" />
<polyline points="72.0,406.5,56.0,407.0,40.0,408.0,23.5,409.0,8.0,409.5" stroke="black" stroke-width="2" fill="none" />
<polyline points="19.0,407.0,35.5,391.5,51.5,375.5,67.0,360.0,82.5,344.5" stroke="black" stroke-width="2" fill="none" />
<polyline points="72.0,343.5,88.0,327.5" stroke="black" stroke-width="2" fill="none" />
<polyline points="88.5,337.0,73.5,337.0" stroke="black" stroke-width="2" fill="none" />
<polyline points="74.0,331.0,90.0,330.5" stroke="black" stroke-width="2" fill="none" />
<polyline points="87.5,312.5,71.5,328.0" stroke="black" stroke-width="2" fill="none" />
<polyline points="59.5,326.0,76.0,325.5,92.0,325.0" stroke="black" stroke-width="2" fill="none" />
<polyline points="92.0,306.0,75.5,306.5" stroke="black" stroke-width="2" fill="none" />
<polyline points="71.0,291.5,86.0,291.0" stroke="black" stroke-width="2" fill="none" />
<polyline points="86.5,276.5,71.0,292.5,55.5,309.0,39.5,325.5,23.0,342.5,6.0,359.5" stroke="black" stroke-width="2" fill="none" />
<polyline points="8.0,361.0,23.5,360.0,38.5,359.5,54.0,360.0,70.0,360.0,87.5,360.0" stroke="black" stroke-width="2" fill="none" />
<polyline points="87.0,375.0,71.0,391.5,54.0,408.0" stroke="black" stroke-width="2" fill="none" />
<polyline points="58.5,429.5,74.5,428.5" stroke="black" stroke-width="2" fill="none" />
<polyline points="74.5,437.0,58.5,452.5" stroke="black" stroke-width="2" fill="none" />
<polyline points="59.5,443.5,76.0,443.5" stroke="black" stroke-width="2" fill="none" />
<polyline points="70.5,452.5,54.0,469.0" stroke="black" stroke-width="2" fill="none" />
<polyline points="57.5,467.0,74.0,466.5" stroke="black" stroke-width="2" fill="none" />
<polyline points="89.5,457.5,74.0,457.5,57.5,456.5,41.0,456.0" stroke="black" stroke-width="2" fill="none" />
<polyline points="41.5,459.0,28.5,466.5,37.0,463.0,44.0,451.5,52.0,448.5" stroke="black" stroke-width="2" fill="none" />
<polyline points="28.5,468.5,36.5,465.5,44.5,464.5,52.0,463.5,60.0,464.0,68.0,463.0,76.0,463.0,84.0,464.0,92.0,465.0,100.0,466.5,108.0,468.5,116.0,469.5,124.0,471.0,132.0,470.5,140.0,464.5,148.0,448.0" stroke="black" stroke-width="2" fill="none" />
<polyline points="150.0,442.5,166.5,442.0,182.0,441.5,197.5,441.0,213.5,440.5,229.5,440.0,244.5,440.5,259.5,441.5" stroke="black" stroke-width="2" fill="none" />
<polyline points="264.5,455.5,248.0,471.5,231.5,487.5" stroke="black" stroke-width="2" fill="none" />
<polyline points="229.5,490.5,247.0,490.5,264.5,489.5,281.5,488.5,297.0,486.5,312.5,485.0,327.5,484.5,343.0,483.5,358.5,482.5,374.5,482.0,391.5,482.5,407.5,482.0,423.0,482.5,439.0,483.0,454.5,484.0,469.0,483.5,485.0,484.0,500.0,483.0" stroke="black" stroke-width="2" fill="none" />
<polyline points="487.5,477.0,504.0,476.5,520.5,475.0" stroke="black" stroke-width="2" fill="none" />
<polyline points="513.5,454.0,498.0,469.0" stroke="black" stroke-width="2" fill="none" />
<polyline points="508.0,469.5,500.0,464.5,492.0,459.5,484.0,455.5,476.0,452.0,468.0,449.5,459.5,446.0,451.5,442.0,443.5,438.5,435.0,435.5,427.0,433.5,419.0,432.5,411.0,433.5,403.0,440.5" stroke="black" stroke-width="2" fill="none" />
<polyline points="405.0,433.5,421.0,433.0,437.5,432.0,453.5,431.0,468.5,430.0" stroke="black" stroke-width="2" fill="none" />
<polyline points="454.0,439.5,470.0,423.5,485.5,407.5,501.5,391.5,518.0,376.0" stroke="black" stroke-width="2" fill="none" />
<polyline points="517.0,392.0,501.0,408.0,485.0,423.0,469.5,438.5,454.5,454.0" stroke="black" stroke-width="2" fill="none" />
<polyline points="453.5,450.0,469.5,449.5" stroke="black" stroke-width="2" fill="none" />
<polyline points="487.0,455.0,502.5,440.0,518.0,423.5" stroke="black" stroke-width="2" fill="none" />
<polyline points="518.5,410.5,502.5,426.0,486.5,442.0,471.0,456.5" stroke="black" stroke-width="2" fill="none" />
<polyline points="481.5,468.0,483.5,475.5" stroke="black" stroke-width="2" fill="none" />
<polyline points="484.0,471.5,499.5,456.0,515.5,440.0" stroke="black" stroke-width="2" fill="none" />
<polyline points="518.5,461.5,503.0,461.0,487.5,461.5" stroke="black" stroke-width="2" fill="none" />
<polyline points="487.0,468.0,486.0,476.0" stroke="black" stroke-width="2" fill="none" />
<polyline points="495.0,496.0,497.0,491.0,505.0,493.5,504.0,503.5" stroke="black" stroke-width="2" fill="none" />
<polyline points="499.0,505.0,490.0,502.5,493.0,500.5,492.0,498.0" stroke="black" stroke-width="2" fill="none" />
<polyline points="487.0,500.5,487.0,501.5,488.0,510.0" stroke="black" stroke-width="2" fill="none" />
<polyline points="483.5,506.0,468.0,507.5,453.5,509.0,437.5,509.5" stroke="black" stroke-width="2" fill="none" />
<polyline points="429.0,504.0,424.0,512.5,424.0,506.5,431.5,501.0" stroke="black" stroke-width="2" fill="none" />
<polyline points="430.5,501.0,432.5,509.0" stroke="black" stroke-width="2" fill="none" />
<polyline points="423.0,508.5,406.0,508.5,390.5,509.5" stroke="black" stroke-width="2" fill="none" />
<polyline points="396.0,520.0,412.0,504.0,428.5,489.0" stroke="black" stroke-width="2" fill="none" />
<polyline points="424.0,503.0,418.5,510.5,420.5,507.0,424.5,510.5" stroke="black" stroke-width="2" fill="none" />
<polyline points="410.5,471.5,395.0,487.5,378.0,503.5" stroke="black" stroke-width="2" fill="none" />
<polyline points="373.5,494.5,357.5,493.5,342.0,493.5,326.5,494.0,310.5,494.5,295.5,495.5,279.5,496.5,263.0,497.5,246.0,499.0,230.0,499.5" stroke="black" stroke-width="2" fill="none" />
<polyline points="231.5,504.0,247.0,488.5,263.0,473.5" stroke="black" stroke-width="2" fill="none" />
<polyline points="280.0,471.5,264.5,486.0,249.0,502.0" stroke="black" stroke-width="2" fill="none" />
<polyline points="247.5,501.0,255.5,500.5" stroke="black" stroke-width="2" fill="none" />
<polyline points="260.0,506.0,276.5,506.0,292.5,505.5,309.0,504.5,326.5,504.0,343.5,503.5,361.0,504.0" stroke="black" stroke-width="2" fill="none" />
<polyline points="355.5,504.0,370.5,488.0,386.0,473.0" stroke="black" stroke-width="2" fill="none" />
<polyline points="380.0,469.0,388.0,471.0,396.0,468.0,402.0,464.0,406.5,468.0" stroke="black" stroke-width="2" fill="none" />
<polyline points="406.5,480.0,390.5,481.0,375.0,481.0,358.5,482.0,342.0,482.5,326.5,482.5,311.0,482.5,295.0,483.0" stroke="black" stroke-width="2" fill="none" />
<polyline points="294.5,472.5,279.0,488.5,264.0,505.0" stroke="black" stroke-width="2" fill="none" />
<polyline points="264.5,516.5,279.5,501.5,295.0,486.0,310.5,470.0,325.5,455.0,341.0,439.5" stroke="black" stroke-width="2" fill="none" />
<polyline points="344.5,448.0,347.5,449.5,352.0,458.0,361.0,460.5,365.0,465.5,369.0,469.5,370.0,464.0,374.0,460.0,382.0,456.0,390.0,448.5,398.0,438.5,406.0,426.5" stroke="black" stroke-width="2" fill="none" />
<polyline points="403.0,428.0,419.0,427.0,435.5,425.0,451.5,423.5,468.0,423.0,484.0,423.0,500.0,422.0,515.0,421.5" stroke="black" stroke-width="2" fill="none" />
<polyline points="484.5,394.0,468.5,408.5,453.5,423.0,438.0,438.5" stroke="black" stroke-width="2" fill="none" />
<polyline points="430.0,435.0,450.0,443.0,470.0,451.5,488.0,459.5,501.0,467.5" stroke="black" stroke-width="2" fill="none" />
<polyline points="467.5,414.5,451.0,414.5" stroke="black" stroke-width="2" fill="none" />
<polyline points="442.5,418.0,427.5,417.0" stroke="black" stroke-width="2" fill="none" />
<polyline points="428.5,410.0,444.5,409.5,459.0,409.5,474.0,408.5,489.0,408.0,504.5,408.5,519.5,408.0" stroke="black" stroke-width="2" fill="none" />
<polyline points="474.0,389.5,458.5,405.0,442.0,420.5,425.5,435.5" stroke="black" stroke-width="2" fill="none" />
<polyline points="413.5,433.0,403.5,441.0,403.0,449.5,392.5,457.5" stroke="black" stroke-width="2" fill="none" />
<polyline points="397.0,460.0,400.5,460.0,404.0,465.0,409.0,470.0,408.0,478.0" stroke="black" stroke-width="2" fill="none" />
<polyline points="405.0,479.5,397.0,480.5,389.0,482.5,380.5,485.5,372.5,489.0,364.5,495.0,356.5,495.0,348.5,495.0,341.0,495.5,333.0,494.5,325.5,493.5,317.5,492.5,309.5,492.0,301.5,491.0,293.5,491.0,285.5,491.0,277.0,493.0" stroke="black" stroke-width="2" fill="none" />
<polyline points="293.5,500.0,308.5,483.5,324.5,467.5,341.0,452.0" stroke="black" stroke-width="2" fill="none" />
<polyline points="340.0,460.0,348.0,459.5,357.0,458.0,365.0,461.0,373.0,459.5" stroke="black" stroke-width="2" fill="none" />
<polyline points="377.5,471.0,362.0,486.5,346.0,503.0" stroke="black" stroke-width="2" fill="none" />
<polyline points="353.5,510.0,361.5,508.0,369.0,503.0" stroke="black" stroke-width="2" fill="none" />
<polyline points="365.5,495.0,373.5,497.5,381.5,501.5" stroke="black" stroke-width="2" fill="none" />
<polyline points="378.5,505.0,370.5,507.5,386.0,509.5,378.5,501.5,370.5,490.5,390.5,482.5" stroke="black" stroke-width="2" fill="none" />
<polyline points="385.5,474.0,377.5,473.5,369.5,473.5" stroke="black" stroke-width="2" fill="none" />
<polyline points="358.5,472.0,343.0,487.5,328.5,502.5" stroke="black" stroke-width="2" fill="none" />
<polyline points="313.0,502.0,328.5,486.0,345.0,471.0,361.0,455.0" stroke="black" stroke-width="2" fill="none" />
<polyline points="390.0,442.5,405.5,442.5,420.5,443.5,436.5,443.5,453.0,443.5,470.0,442.5,486.0,441.0,502.0,439.5,518.0,438.5" stroke="black" stroke-width="2" fill="none" />
<polyline points="473.0,372.0,457.0,388.0,442.5,404.0,426.5,421.0,410.0,437.5" stroke="black" stroke-width="2" fill="none" />
<polyline points="413.0,449.5,414.0,457.5,417.0,452.5,419.0,447.5,427.0,446.5,435.0,449.0,435.5,453.0,444.0,456.0,452.5,459.0,460.5,460.0,467.5,458.5,475.5,460.0,483.5,463.0,484.0,466.0,492.0,466.0,492.0,470.0" stroke="black" stroke-width="2" fill="none" />
<polyline points="430.0,469.0,422.0,465.5" stroke="black" stroke-width="2" fill="none" />
<polyline points="424.5,466.5,409.0,467.0,392.5,467.5,377.0,468.5,362.0,469.5,346.5,469.5,330.0,470.0,313.0,470.5,295.5,471.0,277.5,472.0,260.5,474.0,244.0,475.0,228.0,476.0,211.5,477.5,194.0,480.0,178.0,481.0" stroke="black" stroke-width="2" fill="none" />
<polyline points="179.5,485.5,195.5,485.0,212.0,485.0,229.5,483.5,246.5,481.5,262.5,479.5" stroke="black" stroke-width="2" fill="none" />
<polyline points="246.5,471.5,239.0,466.5" stroke="black" stroke-width="2" fill="none" />
<polyline points="232.0,468.5,216.0,484.0" stroke="black" stroke-width="2" fill="none" />
<polyline points="205.5,485.0,227.5,493.0,235.5,500.5,239.5,504.5,247.5,505.0,255.5,507.0,263.5,510.0,271.0,511.5" stroke="black" stroke-width="2" fill="none" />
<polyline points="229.5,491.5,222.0,488.5,213.5,485.5,205.5,482.5,197.5,480.5,189.5,478.5,181.0,477.0,173.0,475.0,165.0,474.0,157.0,472.5,149.0,473.0,141.0,473.5,140.0,466.5,145.0,458.0,148.5,450.0,151.5,442.0,154.5,433.5,156.5,425.5,158.5,417.0,160.0,409.0,163.0,401.0,165.0,393.0,166.0,385.0,168.0,377.0,169.0,369.0,171.0,361.0,171.0,353.5,171.0,345.5,173.0,337.5,169.0,336.5,169.0,328.5,173.5,320.5,174.5,313.0,176.5,305.5,178.5,297.0,181.5,289.0,183.5,281.0,185.5,273.0,188.5,265.0,191.5,257.0,193.5,249.0,195.5,240.5,197.0,232.5,198.0,225.0,197.5,217.0,198.5,209.5,199.0,201.5,199.0,194.0,198.5,186.0,199.0,178.0,197.0,170.0,198.0,162.0,198.0,154.0,195.0,145.5,189.0,137.5,181.5,129.5,174.5,121.0,173.0,113.0,172.5,105.0,173.5,97.0,176.0,88.5,179.0,80.5,183.5,72.5,188.0,65.0,193.0,56.5,191.0,49.0,188.5,47.0,180.5,52.0,172.5,65.0,164.5,76.0,156.5,91.5,148.0,109.5,140.0,117.5" stroke="black" stroke-width="2" fill="none" />
<polyline points="142.0,121.5,148.5,124.5,145.5,138.5,147.0,143.5,155.5,148.5" stroke="black" stroke-width="2" fill="none" />
<polyline points="151.5,141.5,167.5,141.0" stroke="black" stroke-width="2" fill="none" />
<polyline points="178.0,132.5,174.0,132.5,172.0,137.5,163.5,133.5,159.5,139.5,153.5,140.5,152.5,138.5,152.5,133.5,138.5,123.5,136.5,121.5,143.5,113.5,149.5,105.5,152.5,97.5,156.5,89.0,160.0,80.5,166.0,72.5,171.0,64.5,177.5,56.5,181.0,48.5,185.0,48.0,184.0,51.0" stroke="black" stroke-width="2" fill="none" />
<polyline points="182.0,52.0,167.5,52.5,152.0,54.5,135.5,55.5,118.5,55.0,101.5,55.5" stroke="black" stroke-width="2" fill="none" />
<polyline points="104.0,58.0,119.5,43.0" stroke="black" stroke-width="2" fill="none" />
<polyline points="120.0,42.5,118.5,50.5,117.5,58.5,107.5,66.5,100.5,74.5,104.0,71.5,112.0,64.5" stroke="black" stroke-width="2" fill="none" />
<polyline points="118.0,66.5,102.0,67.0" stroke="black" stroke-width="2" fill="none" />
<polyline points="90.0,64.5,81.5,71.5,73.5,69.5,61.0,79.0,52.5,85.0,48.5,92.5,53.0,84.5,65.5,77.0" stroke="black" stroke-width="2" fill="none" />
<polyline points="66.5,82.5,56.5,90.0" stroke="black" stroke-width="2" fill="none" />
<polyline points="69.0,89.5,85.0,90.0" stroke="black" stroke-width="2" fill="none" />
<polyline points="90.0,85.5,106.0,84.0" stroke="black" stroke-width="2" fill="none" />
<polyline points="106.0,87.5,122.5,72.5" stroke="black" stroke-width="2" fill="none" />
<polyline points="120.5,54.5,105.0,70.5,88.5,86.0,73.0,101.0,58.0,116.0" stroke="black" stroke-width="2" fill="none" />
<polyline points="53.0,121.0,69.5,120.0" stroke="black" stroke-width="2" fill="none" />
<polyline points="70.5,120.5,55.0,135.5" stroke="black" stroke-width="2" fill="none" />
<polyline points="57.0,138.0,73.0,137.0" stroke="black" stroke-width="2" fill="none" />
<polyline points="74.0,133.5,58.5,148.5,43.0,163.5" stroke="black" stroke-width="2" fill="none" />
<polyline points="40.5,162.5,56.0,162.0" stroke="black" stroke-width="2" fill="none" />
<polyline points="58.0,146.0,73.5,145.5" stroke="black" stroke-width="2" fill="none" />
<polyline points="91.0,134.5,108.0,119.5,124.5,104.5" stroke="black" stroke-width="2" fill="none" />
<polyline points="122.0,117.0,105.5,132.5" stroke="black" stroke-width="2" fill="none" />
<polyline points="102.0,140.0,118.5,139.5" stroke="black" stroke-width="2" fill="none" />
<polyline points="121.5,137.5,138.0,122.0" stroke="black" stroke-width="2" fill="none" />
<polyline points="148.5,131.5,156.5,132.5" stroke="black" stroke-width="2" fill="none" />
<polyline points="153.0,122.0,136.5,121.5,120.0,122.0,104.5,123.5,88.5,124.5" stroke="black" stroke-width="2" fill="none" />
<polyline points="89.0,124.0,96.5,142.0,104.5,146.0,112.5,135.5,120.5,134.0,112.5,136.5,106.5,145.0,102.0,153.0" stroke="black" stroke-width="2" fill="none" />
<polyline points="99.5,169.0,100.5,161.5,100.0,153.0,96.0,145.0,93.5,137.0,89.5,129.0" stroke="black" stroke-width="2" fill="none" />
<polyline points="87.0,119.5,103.0,105.0" stroke="black" stroke-width="2" fill="none" />
<polyline points="101.5,90.0,118.0,90.0,133.5,91.0,149.0,91.5,166.0,91.5" stroke="black" stroke-width="2" fill="none" />
<polyline points="165.5,92.0,150.0,107.0" stroke="black" stroke-width="2" fill="none" />
<polyline points="153.0,106.0,153.0,114.0,146.5,122.0,145.5,128.0,136.5,139.5,150.0,146.0" stroke="black" stroke-width="2" fill="none" />
<polyline points="130.5,134.5,138.5,129.5,141.5,129.5,144.0,118.5,151.5,120.5" stroke="black" stroke-width="2" fill="none" />
<polyline points="175.0,122.5,183.0,130.5,191.0,137.0" stroke="black" stroke-width="2" fill="none" />
<polyline points="196.5,138.0,212.5,137.0,228.0,136.5" stroke="black" stroke-width="2" fill="none" />
<polyline points="229.0,133.5,237.0,134.5,233.5,137.5,237.5,146.5,240.0,154.5,243.0,162.5,245.5,170.5,245.0,178.5" stroke="black" stroke-width="2" fill="none" />
<polyline points="251.5,169.5,267.0,169.0,282.5,169.0,298.0,169.0,313.0,168.5,328.0,168.5,343.0,169.0,358.5,169.0" stroke="black" stroke-width="2" fill="none" />
<polyline points="360.0,153.5,368.0,149.5,370.0,154.0,371.0,162.5,370.5,170.5,362.5,178.5,359.5,187.0,352.0,195.5,350.0,207.5,356.5,202.5" stroke="black" stroke-width="2" fill="none" />
<polyline points="359.5,199.5,375.5,199.0" stroke="black" stroke-width="2" fill="none" />
<polyline points="378.0,188.0,393.5,187.0,410.0,186.0,426.5,184.5,442.0,183.5,457.5,183.0" stroke="black" stroke-width="2" fill="none" />
<polyline points="457.0,182.0,446.0,190.0,451.0,191.0" stroke="black" stroke-width="2" fill="none" />
<polyline points="454.0,181.5,438.5,197.5" stroke="black" stroke-width="2" fill="none" />
<polyline points="435.0,195.5,451.5,195.0" stroke="black" stroke-width="2" fill="none" />
<polyline points="443.0,184.0,426.0,199.5,410.5,214.0,395.5,228.5" stroke="black" stroke-width="2" fill="none" />
<polyline points="389.5,229.5,405.0,228.5,420.5,227.0" stroke="black" stroke-width="2" fill="none" />
<polyline points="428.5,219.5,412.5,235.0" stroke="black" stroke-width="2" fill="none" />
<polyline points="422.0,239.0,430.0,256.5,437.0,266.5" stroke="black" stroke-width="2" fill="none" />
<polyline points="440.0,264.5,423.5,280.0" stroke="black" stroke-width="2" fill="none" />
<polyline points="423.0,282.5,440.0,282.0,456.5,282.0,473.0,282.0,489.0,281.5,504.5,281.5,520.5,281.0" stroke="black" stroke-width="2" fill="none" />
<polyline points="499.0,264.5,515.5,249.5" stroke="black" stroke-width="2" fill="none" />
<polyline points="519.0,248.0,503.5,248.5" stroke="black" stroke-width="2" fill="none" />
<polyline points="503.5,248.5,519.0,234.0" stroke="black" stroke-width="2" fill="none" />
<polyline points="517.5,241.0,501.5,242.0" stroke="black" stroke-width="2" fill="none" />
<polyline points="503.0,234.0,519.5,219.5" stroke="black" stroke-width="2" fill="none" />
<polyline points="521.0,234.5,505.5,234.5" stroke="black" stroke-width="2" fill="none" />
<polyline points="501.5,221.0,517.5,220.0" stroke="black" stroke-width="2" fill="none" />
<polyline points="518.0,205.5,501.5,206.0" stroke="black" stroke-width="2" fill="none" />
<polyline points="503.0,171.5,486.5,172.0" stroke="black" stroke-width="2" fill="none" />
<polyline points="477.0,180.5,485.0,182.5,493.0,185.5,500.5,192.5,506.5,209.0,506.0,217.5,506.0,225.5,503.0,238.0" stroke="black" stroke-width="2" fill="none" />
<polyline points="488.0,262.0,472.0,277.0,455.0,293.0,438.5,308.5,422.5,325.0" stroke="black" stroke-width="2" fill="none" />
<polyline points="423.5,323.0,440.0,322.0" stroke="black" stroke-width="2" fill="none" />
<polyline points="427.0,315.0,442.5,315.0,457.5,315.0,472.5,315.0,487.5,316.0,503.5,315.5" stroke="black" stroke-width="2" fill="none" />
<polyline points="500.0,306.5,508.0,294.5,507.5,295.0,502.5,303.0,496.5,311.0,496.5,319.0,492.5,327.0,491.0,334.5,490.0,342.5,489.5,350.0,493.5,351.5" stroke="black" stroke-width="2" fill="none" />
<polyline points="506.5,350.0,522.0,349.0" stroke="black" stroke-width="2" fill="none" />
<polyline points="517.0,329.0,501.0,330.0" stroke="black" stroke-width="2" fill="none" />
<polyline points="502.5,333.0,510.5,321.5,511.5,319.5,506.5,327.5,502.5,336.0,501.5,343.0,496.5,351.0" stroke="black" stroke-width="2" fill="none" />
<polyline points="469.0,355.0,454.0,371.0,438.0,387.0,422.0,403.0" stroke="black" stroke-width="2" fill="none" />
<polyline points="427.0,402.0,443.0,402.5,459.0,403.0,475.0,403.0" stroke="black" stroke-width="2" fill="none" />
<polyline points="442.0,388.0,425.5,389.0" stroke="black" stroke-width="2" fill="none" />
<polyline points="423.0,390.0,438.5,375.0,455.5,359.5" stroke="black" stroke-width="2" fill="none" />
<polyline points="454.0,345.5,438.0,361.0,422.0,376.0" stroke="black" stroke-width="2" fill="none" />
<polyline points="421.5,379.0,437.0,379.5,453.5,380.5,471.0,380.5,488.5,380.0,505.5,379.0,522.5,380.0" stroke="black" stroke-width="2" fill="none" />
<polyline points="522.0,395.0,506.0,395.5,490.0,395.5,473.5,395.0,457.5,395.0,441.5,395.0,425.5,394.5" stroke="black" stroke-width="2" fill="none" />
<polyline points="429.0,396.5,437.5,397.5" stroke="black" stroke-width="2" fill="none" />
<polyline points="435.0,395.0,441.0,403.5,443.0,411.5" stroke="black" stroke-width="2" fill="none" />
<polyline points="431.5,402.0,430.0,394.0" stroke="black" stroke-width="2" fill="none" />
<polyline points="440.0,380.5,448.0,388.0,456.5,393.0,464.5,396.5,472.5,397.5" stroke="black" stroke-width="2" fill="none" />
<polyline points="447.0,388.0,439.5,379.5" stroke="black" stroke-width="2" fill="none" />
<polyline points="436.5,370.5,420.5,370.5" stroke="black" stroke-width="2" fill="none" />
<polyline points="419.0,362.0,435.5,361.0,452.0,360.0,469.0,359.0,485.0,358.0,501.5,358.0,518.5,358.0" stroke="black" stroke-width="2" fill="none" />
<polyline points="471.0,310.5,455.0,326.0,439.0,342.0,423.0,358.0" stroke="black" stroke-width="2" fill="none" />
<polyline points="421.5,352.0,437.0,351.5" stroke="black" stroke-width="2" fill="none" />
<polyline points="422.0,346.0,438.0,345.0,453.5,344.0,469.5,343.5,485.5,343.0" stroke="black" stroke-width="2" fill="none" />
<polyline points="469.0,299.0,452.5,315.0,437.0,330.5,421.0,344.5" stroke="black" stroke-width="2" fill="none" />
<polyline points="423.5,338.0,439.5,337.5" stroke="black" stroke-width="2" fill="none" />
<polyline points="425.5,328.5,441.5,328.5,457.0,328.5,472.0,329.0,487.0,330.0" stroke="black" stroke-width="2" fill="none" />
<polyline points="459.0,307.5,443.0,307.5,427.5,307.5" stroke="black" stroke-width="2" fill="none" />
<polyline points="420.0,310.5,435.5,295.0,452.5,280.0,468.5,265.0" stroke="black" stroke-width="2" fill="none" />
<polyline points="456.0,260.5,440.0,276.0,423.5,293.0" stroke="black" stroke-width="2" fill="none" />
<polyline points="422.0,298.0,438.5,297.5,455.5,297.0,472.5,297.0,489.5,296.5,505.5,296.5" stroke="black" stroke-width="2" fill="none" />
<polyline points="455.5,286.5,439.5,287.0,423.5,287.5" stroke="black" stroke-width="2" fill="none" />
<polyline points="422.0,275.5,438.0,275.5" stroke="black" stroke-width="2" fill="none" />
<polyline points="424.0,268.5,439.5,267.5,455.0,266.5,470.5,265.0,486.5,264.0,502.5,263.0,518.0,263.0" stroke="black" stroke-width="2" fill="none" />
<polyline points="510.5,237.5,502.5,243.5,494.0,250.5,486.0,255.5,477.5,257.0,485.5,256.0,494.0,248.5,506.0,240.5,508.0,234.5,500.0,238.5,494.0,240.5,487.0,248.5,479.0,253.5,471.0,259.5,463.0,268.5,455.5,278.5,448.0,289.5,440.5,300.5,433.5,313.5,438.0,305.5,445.0,297.5,450.0,289.5,455.5,282.0,461.5,274.0,467.0,266.0,474.5,258.0,480.5,250.0,493.5,245.0,499.5,234.5,501.5,226.5,502.5,218.5,504.0,210.5,504.0,202.5,499.5,194.5,488.5,186.5,476.5,178.5,481.5,170.0,489.5,161.5,495.0,153.0,490.5,159.5,482.5,166.0,474.5,178.0" stroke="black" stroke-width="2" fill="none" />
<polyline points="469.0,156.0,485.5,156.0" stroke="black" stroke-width="2" fill="none" />
<polyline points="484.0,151.5,476.0,159.5,468.5,167.5,463.5,175.5,459.0,183.0,456.0,191.0,449.0,192.0,447.0,200.5,453.0,196.0,455.5,197.5,454.5,203.5" stroke="black" stroke-width="2" fill="none" />
<polyline points="434.0,184.5,425.5,184.5,417.5,182.5,409.5,180.5" stroke="black" stroke-width="2" fill="none" />
<polyline points="413.5,185.5,396.5,200.5" stroke="black" stroke-width="2" fill="none" />
<polyline points="391.5,198.0,407.5,197.5" stroke="black" stroke-width="2" fill="none" />
<polyline points="420.0,205.0,428.0,192.0,436.0,188.5,443.5,184.0,451.5,182.0,459.5,173.0,467.5,163.0,475.5,152.5" stroke="black" stroke-width="2" fill="none" />
<polyline points="487.5,150.5,503.0,135.0" stroke="black" stroke-width="2" fill="none" />
<polyline points="501.5,138.5,486.0,139.5" stroke="black" stroke-width="2" fill="none" />
<polyline points="481.0,133.0,473.5,126.0" stroke="black" stroke-width="2" fill="none" />
<polyline points="472.5,122.5,475.5,130.5,477.5,138.0,479.0,143.0" stroke="black" stroke-width="2" fill="none" />
<polyline points="477.0,139.5,469.0,131.5" stroke="black" stroke-width="2" fill="none" />
<polyline points="469.5,128.5,473.5,136.5,471.5,141.5,471.0,150.5,470.0,158.5,463.0,166.5,458.0,174.5,447.0,182.0,440.0,188.0,442.0,190.5,438.5,192.5,441.0,188.5,448.5,187.0,456.5,181.0,466.5,168.0,474.0,159.0,482.5,151.5,490.5,149.0,495.5,150.5" stroke="black" stroke-width="2" fill="none" />
<polyline points="489.5,136.0,503.5,127.5,506.5,127.0,498.5,131.0,490.5,135.0,482.0,141.5,474.0,133.5,466.0,129.5" stroke="black" stroke-width="2" fill="none" />
<polyline points="455.5,101.5,447.0,93.5" stroke="black" stroke-width="2" fill="none" />
<polyline points="456.0,88.0,472.5,72.5" stroke="black" stroke-width="2" fill="none" />
<polyline points="453.5,69.0,438.5,85.5" stroke="black" stroke-width="2" fill="none" />
<polyline points="438.5,86.0,454.5,85.0,471.0,82.5" stroke="black" stroke-width="2" fill="none" />
<polyline points="451.0,89.5,435.5,90.0" stroke="black" stroke-width="2" fill="none" />
<polyline points="441.5,80.5,457.5,80.0,475.5,79.0" stroke="black" stroke-width="2" fill="none" />
<polyline points="442.0,72.0,457.5,57.0,474.0,41.0" stroke="black" stroke-width="2" fill="none" />
<polyline points="457.5,36.5,473.5,21.5" stroke="black" stroke-width="2" fill="none" />
<polyline points="469.5,30.5,453.5,30.5" stroke="black" stroke-width="2" fill="none" />
<polyline points="456.5,24.0,472.5,23.0" stroke="black" stroke-width="2" fill="none" />
<polyline points="467.0,21.0,456.0,17.0,448.0,6.0" stroke="black" stroke-width="2" fill="none" />
<polyline points="448.0,4.5,452.0,12.5,457.5,20.5,456.5,27.5,454.0,35.0,452.0,43.0,446.5,50.5,438.5,58.5,428.5,66.5,426.5,74.5,425.5,82.0,443.5,90.5,451.5,99.0" stroke="black" stroke-width="2" fill="none" />
<polyline points="421.5,94.5,405.0,94.5" stroke="black" stroke-width="2" fill="none" />
<polyline points="408.5,101.0,392.5,101.0,376.0,101.0,360.5,102.0,345.5,102.5,330.0,102.0,313.5,102.5,297.0,102.5,280.5,103.0,263.0,103.5,246.5,105.0" stroke="black" stroke-width="2" fill="none" />
<polyline points="230.0,107.5,214.5,107.0,199.5,106.0,184.0,106.0" stroke="black" stroke-width="2" fill="none" />
<polyline points="186.5,95.5,201.5,94.5,218.0,93.5,233.5,93.0,248.5,92.5,263.0,91.5,277.5,90.0,293.0,88.0,308.5,86.5,324.0,86.0,340.0,85.0,356.5,85.0" stroke="black" stroke-width="2" fill="none" />
<polyline points="347.0,70.0,330.5,71.0,315.0,71.0,299.0,71.5,283.0,71.5,266.0,71.0,249.5,70.5,233.5,71.5,216.5,71.5,201.0,72.0,186.5,72.5,170.5,73.5,153.0,72.0,135.5,70.5,119.0,70.0,102.0,70.5,86.0,71.0" stroke="black" stroke-width="2" fill="none" />
<polyline points="77.0,78.5,69.0,85.5,61.5,87.0,53.5,93.5,58.5,95.0,69.5,86.0,78.0,78.0,73.0,68.0,81.0,60.0,88.5,52.0" stroke="black" stroke-width="2" fill="none" />
<polyline points="91.0,51.0,83.0,56.0,75.0,64.5,86.0,68.5,93.5,61.0,93.5,53.0" stroke="black" stroke-width="2" fill="none" />
<polyline points="100.5,44.0,117.0,28.5" stroke="black" stroke-width="2" fill="none" />
<polyline points="106.5,25.0,90.0,41.0" stroke="black" stroke-width="2" fill="none" />
<polyline points="90.5,31.0,104.0,39.0,107.0,47.0,103.0,55.0,95.5,63.0,102.5,54.5" stroke="black" stroke-width="2" fill="none" />
<polyline points="102.5,41.5,119.0,41.5,135.0,42.0,150.5,42.5,166.5,42.5,182.0,42.0,197.0,41.0,212.0,40.5,227.0,40.0,242.5,38.5,258.0,37.0,275.0,37.5,292.0,37.0,309.0,36.0" stroke="black" stroke-width="2" fill="none" />
<polyline points="308.5,31.0,324.5,29.5" stroke="black" stroke-width="2" fill="none" />
<polyline points="317.0,37.0,317.0,45.0" stroke="black" stroke-width="2" fill="none" />
<polyline points="313.5,39.0,321.5,31.5,322.5,35.5,323.0,44.0,319.5,52.0,327.0,61.0,338.0,69.5,346.0,77.5,351.5,86.0,354.5,94.0,357.0,95.0,360.0,94.5,367.0,102.5,376.5,101.0,384.5,95.5,392.5,90.5,400.5,88.5,408.0,85.5,416.0,85.0,424.0,84.5,433.0,86.5,441.0,87.5,449.0,84.5,456.5,82.0" stroke="black" stroke-width="2" fill="none" />
<polyline points="444.5,59.5,460.0,58.5,475.5,58.5" stroke="black" stroke-width="2" fill="none" />
<polyline points="469.5,49.0,453.0,48.5" stroke="black" stroke-width="2" fill="none" />
<polyline points="452.0,41.5,467.5,40.0" stroke="black" stroke-width="2" fill="none" />
<polyline points="451.5,45.5,444.0,56.5,436.0,63.0,428.0,74.0" stroke="black" stroke-width="2" fill="none" />
<polyline points="403.5,86.0,384.5,94.0,374.0,101.5,375.0,109.5,378.5,118.0,381.5,126.0,383.5,134.0,385.5,142.0,381.0,150.0,381.0,158.0,381.0,166.5" stroke="black" stroke-width="2" fill="none" />
<polyline points="389.5,169.5,405.0,154.0" stroke="black" stroke-width="2" fill="none" />
<polyline points="410.5,156.0,394.5,156.5" stroke="black" stroke-width="2" fill="none" />
<polyline points="390.5,153.0,406.0,138.0" stroke="black" stroke-width="2" fill="none" />
<polyline points="409.0,129.5,392.5,130.5" stroke="black" stroke-width="2" fill="none" />
<polyline points="388.5,136.5,404.5,121.0" stroke="black" stroke-width="2" fill="none" />
<polyline points="409.5,124.5,392.5,123.5,376.5,123.0" stroke="black" stroke-width="2" fill="none" />
<polyline points="374.0,120.5,390.0,105.5" stroke="black" stroke-width="2" fill="none" />
<polyline points="383.0,106.5,391.5,103.5,385.5,105.5,389.5,98.0,397.0,92.0" stroke="black" stroke-width="2" fill="none" />
<polyline points="384.5,114.0,395.5,112.0,393.5,119.5,400.0,125.5,404.0,133.5,404.0,141.5,398.5,149.0,397.5,150.0" stroke="black" stroke-width="2" fill="none" />
<polyline points="384.5,146.5,385.5,155.0,384.5,163.0,383.5,171.0,380.5,179.0,378.0,187.0,378.5,195.5,375.5,204.0,371.0,212.0,364.0,219.5,361.5,229.0,370.0,229.5,378.0,235.5" stroke="black" stroke-width="2" fill="none" />
<polyline points="370.5,225.0,378.5,217.0,380.5,216.0,371.5,223.5,372.0,231.5,372.0,234.5,380.0,244.5,382.0,249.5,390.0,252.0,398.0,256.5,406.0,263.5,412.0,273.5" stroke="black" stroke-width="2" fill="none" />
<polyline points="424.0,263.5,439.0,249.0" stroke="black" stroke-width="2" fill="none" />
<polyline points="440.0,250.5,423.5,251.0" stroke="black" stroke-width="2" fill="none" />
<polyline points="433.5,248.0,427.0,240.0" stroke="black" stroke-width="2" fill="none" />
<polyline points="423.0,216.5,407.5,216.5,391.5,217.5,375.0,217.0,359.0,217.5,343.5,218.5,328.0,219.0,313.0,219.5" stroke="black" stroke-width="2" fill="none" />
<polyline points="323.0,221.5,331.0,220.0,339.0,221.5,347.5,221.5,355.0,224.5,363.0,221.5,371.0,213.0,380.0,196.0" stroke="black" stroke-width="2" fill="none" />
<polyline points="386.0,193.0,385.0,200.5,385.5,208.5,386.5,211.5,387.0,216.5,391.0,218.5,407.0,226.5,412.0,234.5,415.0,242.5,418.0,250.5,419.0,258.5,420.5,267.0,419.0,275.0" stroke="black" stroke-width="2" fill="none" />
<polyline points="408.5,245.5,400.5,237.5" stroke="black" stroke-width="2" fill="none" />
<polyline points="401.0,239.0,408.0,246.5,412.0,254.5,412.0,262.5" stroke="black" stroke-width="2" fill="none" />
<polyline points="374.0,266.5,357.5,267.5" stroke="black" stroke-width="2" fill="none" />
<polyline points="362.5,266.0,368.5,258.0,370.5,255.5,367.5,263.0,359.0,268.5,346.0,274.5,337.5,283.0,334.5,278.0,326.5,281.0,324.5,286.0,321.5,287.0,318.0,292.5,313.0,301.5,310.5,293.5,318.5,286.5,318.5,277.5,329.5,272.5,328.5,263.0,325.0,254.5,322.5,248.5,321.0,247.5,312.0,246.5,309.0,238.5,306.0,230.5,302.5,222.5,300.5,214.5,298.0,206.5,295.0,198.5,292.0,190.5,282.0,184.5,274.0,186.5,266.0,189.0,257.5,191.5" stroke="black" stroke-width="2" fill="none" />
<polyline points="261.5,191.5,269.5,190.5,277.5,189.5,278.5,198.0,282.0,206.0,284.0,214.0,287.0,222.5,289.0,230.5,292.0,234.5,293.5,242.5,295.5,250.0,299.5,255.5,299.5,254.0" stroke="black" stroke-width="2" fill="none" />
<polyline points="316.0,255.5,325.0,246.5,334.5,254.5,330.5,258.5,324.0,262.5,332.0,268.5,336.5,263.5,349.5,262.0,348.0,268.5,345.0,276.5,342.0,284.0,333.0,285.0,343.0,285.5,350.5,286.5,358.5,285.5,366.0,282.5" stroke="black" stroke-width="2" fill="none" />
<polyline points="362.0,278.5,345.0,293.5" stroke="black" stroke-width="2" fill="none" />
<polyline points="343.5,286.5,359.5,286.0" stroke="black" stroke-width="2" fill="none" />
<polyline points="343.5,279.5,359.5,279.0,375.5,278.0" stroke="black" stroke-width="2" fill="none" />
<polyline points="351.5,280.5,347.5,277.5,349.0,269.5,351.0,262.0" stroke="black" stroke-width="2" fill="none" />
<polyline points="343.5,266.5,334.0,272.5,339.0,274.0" stroke="black" stroke-width="2" fill="none" />
<polyline points="341.0,248.5,324.5,249.0" stroke="black" stroke-width="2" fill="none" />
<polyline points="324.5,243.5,332.5,250.5,337.5,259.0" stroke="black" stroke-width="2" fill="none" />
<polyline points="344.0,236.5,328.5,237.0,312.0,237.0" stroke="black" stroke-width="2" fill="none" />
<polyline points="327.5,229.5,335.0,223.0,327.0,230.0,323.5,238.0,318.5,246.0,321.0,255.5,325.0,264.0,327.0,272.0,321.5,282.5" stroke="black" stroke-width="2" fill="none" />
<polyline points="314.5,298.5,330.0,298.5" stroke="black" stroke-width="2" fill="none" />
<polyline points="343.5,311.5,328.0,311.5,311.0,311.5" stroke="black" stroke-width="2" fill="none" />
<polyline points="324.5,329.0,341.5,329.0" stroke="black" stroke-width="2" fill="none" />
<polyline points="344.5,345.0,329.0,345.5,313.0,346.0" stroke="black" stroke-width="2" fill="none" />
<polyline points="313.5,359.0,329.0,359.0,344.5,359.0,360.0,360.0" stroke="black" stroke-width="2" fill="none" />
<polyline points="347.0,392.5,331.5,392.5,316.0,393.0" stroke="black" stroke-width="2" fill="none" />
<polyline points="305.0,395.5,305.0,403.5" stroke="black" stroke-width="2" fill="none" />
<polyline points="296.0,388.5,279.0,390.5,262.0,391.0,246.0,392.5,229.5,394.5,213.0,396.5,197.0,397.5,181.5,398.0,166.0,398.5" stroke="black" stroke-width="2" fill="none" />
<polyline points="168.0,405.0,184.5,389.5,200.0,373.5" stroke="black" stroke-width="2" fill="none" />
<polyline points="216.0,376.0,200.0,391.5,184.0,407.0,168.0,423.0" stroke="black" stroke-width="2" fill="none" />
<polyline points="163.0,420.5,179.0,420.0,196.5,419.5,214.0,419.5" stroke="black" stroke-width="2" fill="none" />
<polyline points="213.5,424.0,198.0,440.0,182.0,455.5,167.0,471.0" stroke="black" stroke-width="2" fill="none" />
<polyline points="152.5,465.5,167.5,464.0,181.5,463.0,196.5,462.5,213.0,462.0,228.0,461.5" stroke="black" stroke-width="2" fill="none" />
<polyline points="232.0,456.0,215.5,470.0,198.0,484.0" stroke="black" stroke-width="2" fill="none" />
<polyline points="182.0,486.0,198.0,470.5,214.0,454.0,229.5,439.5" stroke="black" stroke-width="2" fill="none" />
<polyline points="217.5,438.0,201.0,454.0,184.5,470.5" stroke="black" stroke-width="2" fill="none" />
<polyline points="153.0,458.0,169.0,458.0,185.0,458.0,200.5,457.5,215.5,457.5,230.5,457.5,246.0,456.5,261.0,455.0,277.0,454.5,293.5,454.5,309.0,453.5,325.5,453.0,341.5,453.5,358.0,453.0,374.5,452.0,391.0,451.0,407.5,450.0,423.0,449.0" stroke="black" stroke-width="2" fill="none" />
<polyline points="426.5,466.5,430.0,474.5" stroke="black" stroke-width="2" fill="none" />
<polyline points="324.0,439.0,308.0,455.0" stroke="black" stroke-width="2" fill="none" />
<polyline points="311.5,464.5,327.5,464.5" stroke="black" stroke-width="2" fill="none" />
<polyline points="311.5,442.0,327.5,426.5" stroke="black" stroke-width="2" fill="none" />
<polyline points="311.0,423.5,303.0,423.0" stroke="black" stroke-width="2" fill="none" />
<polyline points="298.0,449.0,298.5,450.0,302.5,458.0,306.5,458.0,304.5,456.5" stroke="black" stroke-width="2" fill="none" />
<polyline points="297.5,464.0,290.0,473.0,288.0,476.0,295.5,468.0" stroke="black" stroke-width="2" fill="none" />
<polyline points="276.5,438.0,292.0,438.5,307.0,438.0,323.0,437.5,340.0,438.0,356.0,438.5" stroke="black" stroke-width="2" fill="none" />
<polyline points="362.5,376.0,347.0,376.0,330.0,377.0,314.0,377.5" stroke="black" stroke-width="2" fill="none" />
<polyline points="276.5,425.5,292.5,424.5,309.0,424.0,326.0,423.5,342.5,423.5,359.0,423.0" stroke="black" stroke-width="2" fill="none" />
<polyline points="264.5,425.5,248.0,425.5,232.0,426.5,215.0,427.5,198.0,429.0,181.5,430.5,165.0,431.5" stroke="black" stroke-width="2" fill="none" />
<polyline points="167.5,436.5,183.5,436.5,200.0,436.5,216.0,436.0" stroke="black" stroke-width="2" fill="none" />
<polyline points="210.5,412.0,195.0,428.0,180.0,442.5,165.5,457.5,150.0,472.5" stroke="black" stroke-width="2" fill="none" />
<polyline points="153.0,457.0,167.5,441.5,183.0,426.0,198.5,411.0,213.5,395.0" stroke="black" stroke-width="2" fill="none" />
<polyline points="196.0,375.0,180.5,375.5" stroke="black" stroke-width="2" fill="none" />
<polyline points="184.0,361.0,199.5,345.5" stroke="black" stroke-width="2" fill="none" />
<polyline points="196.0,357.0,180.0,373.5,164.5,389.0" stroke="black" stroke-width="2" fill="none" />
<polyline points="165.5,386.5,181.5,386.5,198.0,386.5" stroke="black" stroke-width="2" fill="none" />
<polyline points="196.5,406.5,181.0,407.5,165.5,409.0" stroke="black" stroke-width="2" fill="none" />
<polyline points="165.5,413.5,182.5,412.5,199.0,411.5,215.0,410.5,231.5,409.5,248.5,408.0,264.5,406.5,280.5,405.5,297.5,405.0,315.0,404.5,331.5,404.5,347.0,404.0" stroke="black" stroke-width="2" fill="none" />
<polyline points="294.0,377.0,278.0,377.5,262.5,377.0,246.5,377.0,229.0,376.5,212.5,377.0,196.5,377.0,180.0,377.5,165.0,377.0" stroke="black" stroke-width="2" fill="none" />
<polyline points="166.5,359.0,182.5,358.5,197.5,357.0,213.0,357.0,229.0,357.5,246.0,358.0,262.5,358.0,278.5,358.0" stroke="black" stroke-width="2" fill="none" />
<polyline points="266.5,342.5,250.5,342.5,235.0,343.0,219.0,343.0,203.0,343.0,186.0,343.5,169.0,343.5" stroke="black" stroke-width="2" fill="none" />
<polyline points="167.0,328.5,182.5,327.5,198.0,327.5" stroke="black" stroke-width="2" fill="none" />
<polyline points="187.0,313.0,202.5,298.0" stroke="black" stroke-width="2" fill="none" />
<polyline points="199.0,283.5,183.5,298.0" stroke="black" stroke-width="2" fill="none" />
<polyline points="183.0,301.0,200.0,301.0" stroke="black" stroke-width="2" fill="none" />
<polyline points="196.0,315.0,180.0,315.5" stroke="black" stroke-width="2" fill="none" />
<polyline points="184.5,307.5,200.0,307.0" stroke="black" stroke-width="2" fill="none" />
<polyline points="202.0,292.0,185.5,291.5" stroke="black" stroke-width="2" fill="none" />
<polyline points="186.0,284.5,202.0,283.5" stroke="black" stroke-width="2" fill="none" />
<polyline points="194.0,269.5,202.0,253.5,210.0,245.5,217.5,240.5,225.5,236.5,233.5,235.5,241.5,231.5,244.5,238.0,252.5,229.0,260.5,221.0,268.5,221.0,276.5,223.0" stroke="black" stroke-width="2" fill="none" />
<polyline points="291.0,223.5,289.0,215.5,286.5,211.5" stroke="black" stroke-width="2" fill="none" />
<polyline points="293.0,213.5,277.5,213.0,260.5,214.0,243.5,215.0,227.5,215.5,212.0,217.0,196.5,218.0" stroke="black" stroke-width="2" fill="none" />
<polyline points="202.5,217.5,219.0,202.5" stroke="black" stroke-width="2" fill="none" />
<polyline points="219.5,220.0,203.0,234.0" stroke="black" stroke-width="2" fill="none" />
<polyline points="197.0,234.5,213.5,234.0,229.5,234.5,246.0,234.0,262.5,233.0" stroke="black" stroke-width="2" fill="none" />
<polyline points="266.0,238.5,264.0,246.5,262.0,254.5,257.0,262.5,248.0,273.5,255.5,280.0,263.5,282.0,272.0,283.5" stroke="black" stroke-width="2" fill="none" />
<polyline points="266.0,276.5,281.5,275.0" stroke="black" stroke-width="2" fill="none" />
<polyline points="280.5,270.5,264.5,271.5" stroke="black" stroke-width="2" fill="none" />
<polyline points="262.0,280.5,279.0,264.5" stroke="black" stroke-width="2" fill="none" />
<polyline points="281.5,251.0,265.5,250.5,249.5,250.5" stroke="black" stroke-width="2" fill="none" />
<polyline points="246.5,243.5,231.0,243.5" stroke="black" stroke-width="2" fill="none" />
<polyline points="235.0,247.5,251.0,232.5" stroke="black" stroke-width="2" fill="none" />
<polyline points="246.5,241.5,255.0,249.5" stroke="black" stroke-width="2" fill="none" />
<polyline points="266.0,245.0,249.5,261.5" stroke="black" stroke-width="2" fill="none" />
<polyline points="249.5,269.0,257.5,259.0,263.0,254.5,271.0,250.5,272.5,255.0" stroke="black" stroke-width="2" fill="none" />
<polyline points="273.0,273.5,265.0,270.0,253.0,262.5,245.0,272.5" stroke="black" stroke-width="2" fill="none" />
<polyline points="244.5,272.0,254.5,280.0,243.5,289.0,251.5,286.5" stroke="black" stroke-width="2" fill="none" />
<polyline points="254.5,282.0,246.0,282.0,238.0,281.0" stroke="black" stroke-width="2" fill="none" />
<polyline points="252.0,270.5,260.0,276.5,268.0,280.5" stroke="black" stroke-width="2" fill="none" />
<polyline points="289.5,278.0,291.5,281.5,296.0,282.5,306.0,294.5,309.5,303.0,310.5,311.0,312.0,319.0,313.5,327.0,311.5,329.0" stroke="black" stroke-width="2" fill="none" />
<polyline points="305.0,292.5,297.0,287.0,289.0,286.0" stroke="black" stroke-width="2" fill="none" />
<polyline points="310.0,280.0,302.0,276.0,294.5,278.0,286.5,275.5,285.0,268.0,280.5,266.0,278.5,280.5,270.5,279.5,256.5,272.5,250.5,266.5,254.5,258.5,247.0,248.5,241.0,234.5,256.0,222.5,251.0,225.5,243.0,229.0,235.0,231.0,227.0,233.5" stroke="black" stroke-width="2" fill="none" />
<polyline points="232.0,231.5,216.0,247.0,201.0,262.5" stroke="black" stroke-width="2" fill="none" />
<polyline points="196.5,252.0,213.0,251.0" stroke="black" stroke-width="2" fill="none" />
<polyline points="213.0,245.0,196.0,245.5" stroke="black" stroke-width="2" fill="none" />
<polyline points="201.0,250.5,218.0,235.0" stroke="black" stroke-width="2" fill="none" />
<polyline points="218.5,241.5,206.5,250.0,200.5,258.0,196.5,266.0,194.0,274.0,191.0,282.5,187.5,290.0,186.5,298.0,184.5,306.0,183.5,314.0,182.5,322.0,182.5,330.0,184.5,338.0,185.0,346.0,188.0,354.0,190.0,362.0,193.0,369.5,197.0,377.5" stroke="black" stroke-width="2" fill="none" />
<polyline points="237.0,380.5,238.0,388.0,239.0,386.0" stroke="black" stroke-width="2" fill="none" />
<polyline points="214.5,451.5,200.0,451.0,184.5,451.0,168.5,451.0,153.5,451.5" stroke="black" stroke-width="2" fill="none" />
<polyline points="174.5,499.0,166.5,500.0,158.5,502.5,150.5,503.5,142.5,506.5,134.5,511.0,150.0,504.5" stroke="black" stroke-width="2" fill="none" />
<polyline points="26.5,493.0,10.5,508.0" stroke="black" stroke-width="2" fill="none" />
<polyline points="16.0,504.5,14.0,496.5" stroke="black" stroke-width="2" fill="none" />
<polyline points="13.0,495.0,10.0,503.5,8.0,511.5" stroke="black" stroke-width="2" fill="none" />
<polyline points="9.0,488.0,25.5,487.5" stroke="black" stroke-width="2" fill="none" />
<polyline points="14.5,478.0,11.5,486.0,8.5,494.0,2.0,502.0,2.0,510.5,5.5,511.5" stroke="black" stroke-width="2" fill="none" />
<polyline points="25.0,406.5,33.0,406.5,41.0,405.5,49.0,406.0,57.0,406.0,65.0,405.5" stroke="black" stroke-width="2" fill="none" />
<polyline points="64.0,383.0,72.0,384.0" stroke="black" stroke-width="2" fill="none" />
<polyline points="69.5,355.0,85.5,353.5" stroke="black" stroke-width="2" fill="none" />
<polyline points="86.5,342.0,70.5,342.5,55.5,343.5,39.5,344.0,23.5,344.5,7.5,345.0" stroke="black" stroke-width="2" fill="none" />
<polyline points="7.0,343.0,23.5,328.0,39.0,312.5,55.5,296.5,71.5,280.5,87.5,263.5,103.0,247.0" stroke="black" stroke-width="2" fill="none" />
<polyline points="105.5,259.5,89.5,260.5" stroke="black" stroke-width="2" fill="none" />
<polyline points="89.0,241.5,104.0,242.0" stroke="black" stroke-width="2" fill="none" />
<polyline points="105.5,228.0,89.0,243.0,72.5,259.0,55.5,275.5,38.5,292.0,22.5,308.0,6.0,323.5" stroke="black" stroke-width="2" fill="none" />
<polyline points="2.5,328.5,19.0,328.0,35.5,327.5,52.0,327.5" stroke="black" stroke-width="2" fill="none" />
<polyline points="52.5,330.0,45.0,337.5,42.0,345.5,42.0,353.5,44.0,361.0,51.5,363.0,57.5,363.5" stroke="black" stroke-width="2" fill="none" />
<polyline points="50.5,358.5,58.5,362.0,66.5,362.0,74.0,361.0,75.0,358.0" stroke="black" stroke-width="2" fill="none" />
<polyline points="70.0,357.5,73.0,349.5" stroke="black" stroke-width="2" fill="none" />
<polyline points="65.0,334.0,57.5,333.0,49.5,338.0" stroke="black" stroke-width="2" fill="none" />
<polyline points="53.5,333.5,48.0,341.5,53.5,350.5,49.0,354.5,52.0,363.0,51.5,375.5,54.5,375.0,52.5,375.0,60.5,370.5,74.0,363.5" stroke="black" stroke-width="2" fill="none" />
<polyline points="86.0,390.0,71.0,390.0,55.5,391.5,40.0,392.0,24.0,392.0,8.0,391.5" stroke="black" stroke-width="2" fill="none" />
<polyline points="12.0,391.5,20.0,390.0,28.0,400.0" stroke="black" stroke-width="2" fill="none" />
<polyline points="10.5,387.0,26.0,387.0,41.0,387.5,57.0,388.0,72.5,387.0,89.0,386.0" stroke="black" stroke-width="2" fill="none" />
<polyline points="90.0,381.0,73.5,381.5,57.0,381.5,41.0,382.5,24.5,383.5,9.0,384.0" stroke="black" stroke-width="2" fill="none" />
<polyline points="6.0,398.0,14.0,400.0,22.0,401.5,29.5,403.5" stroke="black" stroke-width="2" fill="none" />
<polyline points="3.0,398.5,3.5,407.0,3.0,415.0,3.0,423.0,3.0,430.5,3.0,439.0,3.0,446.5,3.0,454.0,3.0,462.0,3.0,470.0,3.0,478.0,3.0,486.0,3.0,494.0,5.0,501.5,8.0,493.5,9.0,486.0" stroke="black" stroke-width="2" fill="none" />
<polyline points="41.0,351.0,49.0,346.0,57.0,337.0,65.0,339.5" stroke="black" stroke-width="2" fill="none" />
<polyline points="66.0,329.5,57.5,328.5,49.0,333.0,41.0,345.5" stroke="black" stroke-width="2" fill="none" />
<polyline points="37.0,336.5,20.5,337.5" stroke="black" stroke-width="2" fill="none" />
<polyline points="5.0,313.5,21.5,313.5,37.5,313.0,54.5,312.5,71.0,311.5,88.0,311.0" stroke="black" stroke-width="2" fill="none" />
<polyline points="89.0,282.0,74.5,282.0,59.5,282.5,44.0,283.5,28.0,284.5,12.0,285.5" stroke="black" stroke-width="2" fill="none" />
<polyline points="5.5,279.5,20.0,262.0,35.5,244.5,52.0,227.5,68.5,211.5" stroke="black" stroke-width="2" fill="none" />
<polyline points="72.5,209.0,57.5,210.0" stroke="black" stroke-width="2" fill="none" />
<polyline points="71.5,197.5,56.0,212.5,40.5,228.0,24.5,244.5" stroke="black" stroke-width="2" fill="none" />
<polyline points="22.0,257.0,38.0,256.0,54.0,255.0,70.5,254.0" stroke="black" stroke-width="2" fill="none" />
<polyline points="71.0,228.0,86.5,227.5,102.0,227.0" stroke="black" stroke-width="2" fill="none" />
<polyline points="106.0,214.0,89.0,229.5,72.5,245.5,56.5,261.0,40.5,277.0,24.5,292.5,9.0,308.5" stroke="black" stroke-width="2" fill="none" />
<polyline points="20.0,304.0,36.0,304.0" stroke="black" stroke-width="2" fill="none" />
<polyline points="54.5,323.0,40.5,327.0,32.5,335.0,26.5,343.0,27.5,342.5,35.5,330.0,43.5,324.0,52.0,320.5,60.5,317.5,68.5,316.0,76.5,314.5" stroke="black" stroke-width="2" fill="none" />
<polyline points="75.0,319.5,66.5,324.5,62.5,321.0,54.0,324.0,45.5,328.0,34.5,334.5,28.5,346.0,31.5,341.5,36.5,335.5,48.5,328.0" stroke="black" stroke-width="2" fill="none" />
<polyline points="41.0,274.0,58.0,273.0" stroke="black" stroke-width="2" fill="none" />
<polyline points="55.0,242.0,38.0,243.5" stroke="black" stroke-width="2" fill="none" />
<polyline points="39.5,229.0,55.5,228.0" stroke="black" stroke-width="2" fill="none" />
<polyline points="39.0,222.5,55.5,222.0,72.0,221.5,88.5,220.0,105.5,218.5" stroke="black" stroke-width="2" fill="none" />
<polyline points="102.0,212.0,86.5,212.5" stroke="black" stroke-width="2" fill="none" />
<polyline points="78.5,205.0,79.5,202.5,85.5,194.5" stroke="black" stroke-width="2" fill="none" />
<polyline points="83.5,190.0,71.0,194.0,66.0,202.0,60.0,210.0,58.5,219.0,58.0,220.5,66.0,204.0" stroke="black" stroke-width="2" fill="none" />
<polyline points="55.0,188.5,40.0,204.0,25.0,219.0" stroke="black" stroke-width="2" fill="none" />
<polyline points="13.0,217.0,29.5,201.5" stroke="black" stroke-width="2" fill="none" />
<polyline points="38.0,212.0,22.5,213.0,7.0,213.0" stroke="black" stroke-width="2" fill="none" />
<polyline points="9.0,207.0,24.5,207.5,39.0,207.0" stroke="black" stroke-width="2" fill="none" />
<polyline points="27.0,228.0,19.0,233.0,15.5,242.5,9.5,251.0,11.0,245.0,18.0,237.5,22.0,229.0,22.0,224.0,26.0,218.0,34.0,209.5,43.0,201.5,60.0,193.5,50.0,195.0,42.5,199.0,34.5,204.0,26.5,210.5,18.5,207.0,10.0,205.0,1.5,203.0" stroke="black" stroke-width="2" fill="none" />
<polyline points="3.0,204.5,3.0,212.5,2.5,220.5,2.5,228.5,2.5,236.5,2.5,244.5,2.5,253.0,2.0,261.5,2.0,269.5,2.0,277.5" stroke="black" stroke-width="2" fill="none" />
<polyline points="9.0,268.0,24.5,266.5,41.0,265.5,57.5,264.5,73.5,263.5,89.5,262.5,104.5,262.0" stroke="black" stroke-width="2" fill="none" />
<polyline points="101.0,244.0,85.0,245.5,70.0,246.5,55.5,248.0,39.5,250.0,23.0,252.0,7.0,253.0" stroke="black" stroke-width="2" fill="none" />
<polyline points="7.0,240.5,23.5,239.5,40.5,238.0,56.5,236.0,71.5,233.0,86.5,232.0,102.0,230.5" stroke="black" stroke-width="2" fill="none" />
<polyline points="100.5,188.5,100.5,196.5,99.5,204.5,98.0,212.5,96.5,220.5,95.5,228.5,94.5,236.0,92.5,244.5,91.5,252.5,90.0,261.0,90.0,269.0,89.5,277.0,88.5,284.5,87.5,292.0,87.0,300.0,85.0,308.0,83.5,316.0,82.0,323.5,81.0,331.5,80.0,339.5,79.0,347.5,78.0,355.5,72.0,361.5,75.0,364.0,77.0,371.0,75.0,379.5,74.5,385.5,74.0,394.0,73.5,402.0,71.0,410.5,69.0,418.5,68.0,426.5,65.0,434.5,63.5,442.0,61.5,449.5,61.5,457.5,64.5,457.0,71.5,456.0" stroke="black" stroke-width="2" fill="none" />
<polyline points="219.5,252.0,215.0,260.0,220.0,252.0" stroke="black" stroke-width="2" fill="none" />
<polyline points="223.5,241.5,231.5,240.5,236.0,244.5,244.0,241.0,251.5,242.0,260.0,245.0,267.5,245.0,272.0,243.0" stroke="black" stroke-width="2" fill="none" />
<polyline points="282.0,239.0,286.0,247.0" stroke="black" stroke-width="2" fill="none" />
<polyline points="296.0,215.5,311.0,199.5" stroke="black" stroke-width="2" fill="none" />
<polyline points="298.5,205.5,314.0,203.5,329.0,203.0,344.0,202.5" stroke="black" stroke-width="2" fill="none" />
<polyline points="344.5,188.0,352.5,178.5" stroke="black" stroke-width="2" fill="none" />
<polyline points="374.5,174.5,391.0,174.5,407.0,173.0,423.0,170.5" stroke="black" stroke-width="2" fill="none" />
<polyline points="410.5,170.0,395.0,186.5" stroke="black" stroke-width="2" fill="none" />
<polyline points="396.5,181.0,412.5,181.0" stroke="black" stroke-width="2" fill="none" />
<polyline points="425.0,185.0,409.5,200.5,394.5,214.5" stroke="black" stroke-width="2" fill="none" />
<polyline points="391.5,213.0,406.5,211.5,423.0,210.0" stroke="black" stroke-width="2" fill="none" />
<polyline points="422.5,203.0,407.5,204.0,391.5,204.5" stroke="black" stroke-width="2" fill="none" />
<polyline points="384.5,208.5,388.5,219.5,397.0,220.0,405.0,222.5" stroke="black" stroke-width="2" fill="none" />
<polyline points="428.5,189.0,421.5,197.0,419.0,204.5,418.0,212.5,418.5,220.5,420.0,228.5,422.0,237.0,425.0,245.0,429.0,253.0,432.0,261.5" stroke="black" stroke-width="2" fill="none" />
<polyline points="467.5,257.5,474.5,249.5,478.5,249.5,470.0,251.5" stroke="black" stroke-width="2" fill="none" />
<polyline points="364.0,249.0,344.0,256.0,336.5,261.5,341.5,264.5,336.5,269.5,330.5,282.0,323.5,278.0,334.5,271.5" stroke="black" stroke-width="2" fill="none" />
<polyline points="333.0,257.5,324.0,252.5,323.0,249.0,319.0,243.5,311.0,240.0,303.0,217.0,295.0,194.0,287.0,186.0" stroke="black" stroke-width="2" fill="none" />
<polyline points="296.5,186.0,312.5,185.5,328.0,185.0,343.5,184.5" stroke="black" stroke-width="2" fill="none" />
<polyline points="360.0,153.5,344.5,154.0,328.5,153.5,313.5,153.5,298.0,153.0,282.0,152.5,266.0,153.0,250.0,153.5" stroke="black" stroke-width="2" fill="none" />
<polyline points="248.5,134.0,265.5,133.5,282.0,133.5,297.5,133.5,313.0,134.0" stroke="black" stroke-width="2" fill="none" />
<polyline points="317.0,144.5,322.5,136.5,326.0,133.5" stroke="black" stroke-width="2" fill="none" />
<polyline points="328.5,136.0,327.5,144.0" stroke="black" stroke-width="2" fill="none" />
<polyline points="343.0,137.0,359.5,136.5,377.0,136.5,393.5,136.5,409.5,137.0" stroke="black" stroke-width="2" fill="none" />
<polyline points="392.5,117.0,377.0,117.0" stroke="black" stroke-width="2" fill="none" />
<polyline points="363.5,123.5,355.5,122.0" stroke="black" stroke-width="2" fill="none" />
<polyline points="356.5,120.0,355.5,128.0" stroke="black" stroke-width="2" fill="none" />
<polyline points="358.5,120.5,342.0,121.0" stroke="black" stroke-width="2" fill="none" />
<polyline points="335.5,116.0,342.0,124.5,342.0,133.0,338.0,141.0" stroke="black" stroke-width="2" fill="none" />
<polyline points="340.5,132.5,332.0,142.0,320.5,141.0,312.5,147.0,304.0,144.0,304.0,140.0,303.5,131.5,304.5,124.0,304.5,116.0,304.5,116.0" stroke="black" stroke-width="2" fill="none" />
<polyline points="303.5,115.5,311.5,114.5,319.5,119.5" stroke="black" stroke-width="2" fill="none" />
<polyline points="307.5,114.0,292.5,115.0,277.5,116.5,262.5,118.0,247.5,118.0,232.0,118.5,216.0,120.5,200.0,122.0,183.5,123.5" stroke="black" stroke-width="2" fill="none" />
<polyline points="197.0,151.0,213.0,150.5,228.5,150.5" stroke="black" stroke-width="2" fill="none" />
<polyline points="226.0,146.0,234.0,145.5" stroke="black" stroke-width="2" fill="none" />
<polyline points="230.0,129.5,230.5,137.5,226.5,148.5,226.5,156.5,228.5,165.0,226.0,167.0,229.0,175.0,229.5,182.5" stroke="black" stroke-width="2" fill="none" />
<polyline points="227.5,173.0,235.5,178.5,244.0,179.5" stroke="black" stroke-width="2" fill="none" />
<polyline points="229.0,172.0,213.0,172.0,198.0,173.0" stroke="black" stroke-width="2" fill="none" />
<polyline points="216.5,180.5,200.5,195.5" stroke="black" stroke-width="2" fill="none" />
<polyline points="197.5,193.0,213.0,192.5,229.0,190.5,245.0,189.5,261.0,189.0,277.0,187.5" stroke="black" stroke-width="2" fill="none" />
<polyline points="273.0,193.0,280.5,197.5,283.5,209.5" stroke="black" stroke-width="2" fill="none" />
<polyline points="277.0,202.0,261.0,203.0,244.0,205.0,227.5,206.5,211.5,207.0,196.0,206.5" stroke="black" stroke-width="2" fill="none" />
<polyline points="240.0,245.5,248.0,251.5" stroke="black" stroke-width="2" fill="none" />
<polyline points="272.0,272.5,263.0,264.5,262.0,255.5,256.5,245.0,247.0,237.0,253.0,229.0,260.5,221.0" stroke="black" stroke-width="2" fill="none" />
<polyline points="264.5,199.5,272.0,201.5,281.0,214.0,283.0,222.0,292.0,225.5" stroke="black" stroke-width="2" fill="none" />
<polyline points="295.0,211.5,298.0,219.5,301.0,228.0,302.0,236.5" stroke="black" stroke-width="2" fill="none" />
<polyline points="299.5,234.5,298.0,226.5,296.0,218.5,296.0,210.5" stroke="black" stroke-width="2" fill="none" />
<polyline points="273.5,219.5,275.5,211.5,274.5,204.0,271.5,197.0,263.0,198.0" stroke="black" stroke-width="2" fill="none" />
<polyline points="266.5,196.5,270.5,204.5,271.5,212.0,276.0,222.0,279.0,230.0,280.0,238.0,279.5,246.0,281.0,251.0,275.0,254.0,272.0,262.0,273.0,270.0,284.0,278.0,286.0,284.5,294.0,282.5,297.0,285.5,300.0,287.5,308.5,283.0,310.0,289.0,316.5,283.5,319.5,277.5,327.5,269.0,336.5,259.0,344.0,257.0,351.0,257.0,359.0,252.0,367.0,250.5" stroke="black" stroke-width="2" fill="none" />
<polyline points="346.5,225.5,341.5,226.5,335.5,234.0,341.5,225.5" stroke="black" stroke-width="2" fill="none" />
<polyline points="346.5,225.0,357.5,226.0,369.5,234.0,376.5,241.5,381.5,249.0,398.0,257.0,407.0,265.0,412.0,274.0,416.5,282.0,417.5,290.5,418.5,299.0,419.5,306.5,418.0,314.5,418.5,322.5,417.5,330.0,417.0,337.5,416.5,346.0,415.5,354.0,414.5,362.0,414.0,370.5,414.0,378.5,415.0,386.5,414.0,394.5,414.0,402.5,412.0,411.0,410.0,419.0,407.0,427.0,400.5,436.0,394.5,443.5,387.5,451.5,382.0,460.0,390.5,459.0,398.5,452.0,400.5,456.0,396.5,463.0,393.5,471.5,400.5,473.5,408.0,476.5,416.0,476.5,423.5,478.0,432.5,478.0,440.5,479.0,448.5,480.0,456.5,480.5,465.0,480.5,473.0,481.5,481.0,481.5,488.0,482.5,500.0,487.0,508.0,489.5" stroke="black" stroke-width="2" fill="none" />
<polyline points="368.5,172.5,361.0,180.5,353.0,195.5,345.0,198.0,345.0,199.0,344.0,190.5,347.5,182.5,354.5,174.5,357.5,166.0,360.0,157.5,363.0,149.0" stroke="black" stroke-width="2" fill="none" />
<polyline points="350.0,146.0,346.0,154.0" stroke="black" stroke-width="2" fill="none" />
<polyline points="341.5,161.5,337.0,168.5,343.0,160.5,344.5,152.5,349.5,144.0" stroke="black" stroke-width="2" fill="none" />
<polyline points="362.5,129.0,353.5,129.5,354.0,121.0,353.5,112.5,353.5,112.5" stroke="black" stroke-width="2" fill="none" />
<polyline points="359.5,114.5,364.5,122.5,359.5,130.5" stroke="black" stroke-width="2" fill="none" />
<polyline points="379.5,118.0,369.0,102.5,360.5,93.5,352.5,87.0,344.0,74.5,335.5,66.5,327.0,60.0,319.5,57.0,311.5,53.0" stroke="black" stroke-width="2" fill="none" />
<polyline points="309.0,49.0,317.0,51.5,325.0,40.5" stroke="black" stroke-width="2" fill="none" />
<polyline points="330.0,51.5,313.5,52.0,297.0,52.5,280.5,53.0,263.5,53.0,245.0,53.0,228.0,53.0,212.0,53.0,197.0,54.0" stroke="black" stroke-width="2" fill="none" />
<polyline points="189.5,61.5,181.5,77.0,168.5,83.5,162.0,82.5,161.0,91.5" stroke="black" stroke-width="2" fill="none" />
<polyline points="168.5,103.5,152.0,104.0,136.5,104.5,121.0,105.5,104.0,106.0,86.5,107.0,70.0,107.5,54.0,108.0,38.0,108.0" stroke="black" stroke-width="2" fill="none" />
<polyline points="42.5,117.0,51.5,125.5,47.5,134.0,50.0,141.0,38.5,147.0,33.5,155.5,45.5,164.5,46.5,172.5,41.5,181.0" stroke="black" stroke-width="2" fill="none" />
<polyline points="43.0,162.5,35.0,159.5" stroke="black" stroke-width="2" fill="none" />
<polyline points="38.0,156.0,54.0,155.0,70.0,154.0" stroke="black" stroke-width="2" fill="none" />
<polyline points="72.5,130.5,56.5,130.5" stroke="black" stroke-width="2" fill="none" />
<polyline points="42.5,122.5,59.0,106.5" stroke="black" stroke-width="2" fill="none" />
<polyline points="67.5,96.5,84.0,97.0" stroke="black" stroke-width="2" fill="none" />
<polyline points="85.5,97.0,84.5,105.5,85.5,113.5,87.5,121.5,85.5,129.5,85.5,137.5,81.5,145.0" stroke="black" stroke-width="2" fill="none" />
<polyline points="68.5,118.5,51.5,120.0,35.0,121.0" stroke="black" stroke-width="2" fill="none" />
<polyline points="39.5,93.0,56.0,91.5" stroke="black" stroke-width="2" fill="none" />
<polyline points="57.0,77.5,41.5,78.0" stroke="black" stroke-width="2" fill="none" />
<polyline points="43.0,62.5,59.0,62.0" stroke="black" stroke-width="2" fill="none" />
<polyline points="52.5,39.5,69.0,39.0" stroke="black" stroke-width="2" fill="none" />
<polyline points="66.5,28.5,63.0,36.5,56.5,44.5,52.5,52.0,48.5,60.0,42.0,68.0,37.0,71.0,45.0,64.5,53.0,49.5,60.5,38.5,68.0,28.0,76.0,31.5,84.5,31.0,92.5,33.5,100.5,37.5" stroke="black" stroke-width="2" fill="none" />
<polyline points="104.5,9.0,89.0,8.5,73.5,9.5,57.5,10.0,41.5,10.0,25.5,10.5,10.0,11.0" stroke="black" stroke-width="2" fill="none" />
<polyline points="5.0,18.5,13.0,19.5,21.0,18.5,29.0,17.0,37.0,17.0,44.5,20.5,52.5,30.5" stroke="black" stroke-width="2" fill="none" />
<polyline points="54.0,24.5,69.0,25.0,85.5,25.5,102.0,25.5,120.0,25.5,136.5,25.5,153.0,25.5,168.5,25.5,184.0,25.5,199.5,25.0,215.5,24.5,231.5,24.0,247.5,23.0,263.5,22.5,278.5,23.0" stroke="black" stroke-width="2" fill="none" />
<polyline points="262.5,8.0,245.0,9.0,228.0,10.0,211.0,10.5,194.0,10.0" stroke="black" stroke-width="2" fill="none" />
<polyline points="189.5,6.0,180.5,14.0,174.5,23.0,182.5,21.5,190.5,17.0,198.5,11.5,206.5,7.0,214.5,5.5,222.5,3.5,231.0,3.0,238.5,2.5,246.5,2.5,254.5,2.5" stroke="black" stroke-width="2" fill="none" />
<polyline points="262.5,4.5,255.5,12.5,267.0,20.5,279.0,28.5,290.0,36.0,298.0,42.5,312.5,50.5,328.0,58.0" stroke="black" stroke-width="2" fill="none" />
<polyline points="348.0,42.0,340.0,31.0" stroke="black" stroke-width="2" fill="none" />
<polyline points="340.0,31.5,345.5,39.0" stroke="black" stroke-width="2" fill="none" />
<polyline points="344.0,27.0,352.0,19.0,360.5,21.0" stroke="black" stroke-width="2" fill="none" />
<polyline points="363.0,29.5,355.0,28.5" stroke="black" stroke-width="2" fill="none" />
<polyline points="356.0,9.0,339.0,8.5" stroke="black" stroke-width="2" fill="none" />
<polyline points="341.0,6.0,348.5,6.0,351.5,13.0,363.0,13.0,362.0,15.0,374.0,16.0,382.5,24.5,388.0,32.5,392.0,40.5,394.5,48.5" stroke="black" stroke-width="2" fill="none" />
<polyline points="407.0,9.0,392.5,9.0,376.5,10.0" stroke="black" stroke-width="2" fill="none" />
<polyline points="373.0,3.5,381.0,3.5,390.5,3.5,398.5,3.0,406.5,2.5,414.0,2.5,422.5,3.0,430.5,3.0,438.5,3.0,446.5,3.0,454.5,2.5,462.5,2.5,470.5,3.0,478.0,3.0,486.0,2.5,494.0,2.5,502.0,3.0,510.5,2.5" stroke="black" stroke-width="2" fill="none" />
<polyline points="469.5,9.5,453.5,10.5" stroke="black" stroke-width="2" fill="none" />
<polyline points="464.5,12.5,467.0,20.0,464.0,26.5,462.0,34.5,460.0,43.0,458.0,51.0,458.0,59.0,460.0,67.0,461.5,75.5" stroke="black" stroke-width="2" fill="none" />
<polyline points="506.0,129.5,492.0,137.5,499.0,132.5,506.5,129.5" stroke="black" stroke-width="2" fill="none" />
<polyline points="380.0,143.0,378.0,150.5,378.0,158.5,379.0,166.5" stroke="black" stroke-width="2" fill="none" />
<polyline points="343.0,119.5,339.5,111.5" stroke="black" stroke-width="2" fill="none" />
<polyline points="337.5,111.0,323.0,114.0,322.5,114.0,327.5,118.0,335.5,113.0,335.5,118.0" stroke="black" stroke-width="2" fill="none" />
<polyline points="327.0,51.0,330.0,38.0,329.0,29.5,326.0,25.5,326.0,17.0,318.5,20.0" stroke="black" stroke-width="2" fill="none" />
<polyline points="320.5,18.5,319.5,26.5,316.5,33.5,309.5,34.5,303.5,42.5,303.0,44.5,311.0,34.5,319.0,30.5,331.0,32.0,333.5,27.5,341.5,25.0,349.5,18.5,358.0,11.5,366.0,17.5" stroke="black" stroke-width="2" fill="none" />
<polyline points="344.0,10.5,346.0,18.5,349.0,21.5,337.0,29.5,334.0,38.0,327.0,46.0,331.0,43.0,336.0,39.0,343.5,42.5" stroke="black" stroke-width="2" fill="none" />
<polyline points="327.5,58.0,319.5,52.5,311.0,44.5,303.0,45.5" stroke="black" stroke-width="2" fill="none" />
<polyline points="287.0,33.5,279.0,28.0,271.5,22.0,263.5,17.5,255.5,13.0" stroke="black" stroke-width="2" fill="none" />
<polyline points="217.0,4.0,225.0,5.0,233.0,5.0,241.0,6.5,249.0,9.0,261.5,3.0,269.5,3.5,277.0,3.0,285.0,3.0,292.5,3.0,301.0,3.0,309.0,2.5,317.0,2.5,326.5,11.0" stroke="black" stroke-width="2" fill="none" />
<polyline points="330.5,15.0,331.0,23.0,339.0,36.0" stroke="black" stroke-width="2" fill="none" />
<polyline points="343.0,10.5,351.0,8.5,358.5,8.5,366.5,11.5,374.5,16.5,382.5,25.0,390.5,38.5" stroke="black" stroke-width="2" fill="none" />
<polyline points="386.0,11.5,378.0,19.0,386.0,13.5,389.5,5.0" stroke="black" stroke-width="2" fill="none" />
<polyline points="354.0,3.0,346.0,2.5,337.5,2.0,329.5,2.0,324.5,5.5,317.0,15.5,309.0,29.0,301.0,36.5,302.0,35.5,310.5,27.5,313.5,19.5,319.0,12.0,324.0,3.5" stroke="black" stroke-width="2" fill="none" />
<polyline points="205.0,2.0,197.5,2.5,189.5,2.5,181.5,3.0,173.5,3.0,165.0,3.0,157.0,3.0,149.0,2.5,141.0,2.5,133.0,2.5,125.5,2.5,117.0,3.0,109.0,9.5,101.0,4.5,93.5,2.0,85.0,2.0" stroke="black" stroke-width="2" fill="none" />
<polyline points="86.0,3.0,94.0,11.0,105.0,19.5,114.5,32.5,118.5,35.0,108.0,39.0,116.5,37.5,125.5,40.5,133.5,26.0,142.0,21.0,149.5,18.5,158.0,18.5,166.0,19.5,174.0,13.5,181.0,7.5" stroke="black" stroke-width="2" fill="none" />
<polyline points="186.5,8.5,178.5,16.0,170.5,21.0,175.5,12.0,186.5,4.5" stroke="black" stroke-width="2" fill="none" />
<polyline points="203.5,5.5,192.5,13.5,180.5,21.5" stroke="black" stroke-width="2" fill="none" />
<polyline points="154.5,28.0,138.0,43.0" stroke="black" stroke-width="2" fill="none" />
<polyline points="144.5,19.0,132.5,27.5,127.5,35.5,125.0,43.5,123.0,51.0,121.5,59.0,114.0,71.0,107.5,80.0,114.5,68.5" stroke="black" stroke-width="2" fill="none" />
<polyline points="117.0,128.5,125.0,129.5,133.0,123.5,126.0,127.5,121.0,129.0,123.0,137.0,115.0,145.0,109.5,153.0,115.5,141.5,125.5,134.5,133.0,140.0,135.5,142.0,143.5,140.0,147.5,139.0,153.5,136.0,154.5,130.5,162.5,130.5" stroke="black" stroke-width="2" fill="none" />
<polyline points="189.5,144.5,175.5,146.5,167.5,146.0,159.5,145.0,157.5,141.5,155.0,133.5,161.0,124.5,159.0,116.5,160.5,108.5,163.5,94.5,166.5,86.0,168.0,84.0,172.0,76.0,179.5,67.5,183.5,59.5,189.0,51.5,177.0,67.5" stroke="black" stroke-width="2" fill="none" />
<polyline points="175.5,68.0,175.5,68.5,179.0,60.5" stroke="black" stroke-width="2" fill="none" />
<polyline points="219.5,100.0,227.5,101.0,235.5,108.0,243.5,124.0,246.5,129.0" stroke="black" stroke-width="2" fill="none" />
<polyline points="234.5,112.5,226.5,107.0" stroke="black" stroke-width="2" fill="none" />
<polyline points="226.0,107.5,235.0,115.5,240.5,123.5,243.5,131.0,247.5,139.0,249.5,147.0" stroke="black" stroke-width="2" fill="none" />
<polyline points="250.5,144.0,248.5,136.5,245.5,128.0,242.5,120.0,236.5,110.5,231.5,103.0,224.5,102.5" stroke="black" stroke-width="2" fill="none" />
<polyline points="117.5,43.0,109.5,57.5,101.5,70.5,93.5,81.0,85.5,95.0,77.5,102.5,69.5,113.0,61.5,130.5,51.5,123.5,43.5,118.0,36.0,117.0,28.5,116.0,35.0,107.0,39.0,99.0,42.0,91.0,41.0,83.0,38.5,75.0,33.5,67.0,38.5,58.5,46.5,50.5,50.5,42.5,52.5,34.5,50.0,26.0,39.0,18.0" stroke="black" stroke-width="2" fill="none" />
<polyline points="53.0,37.0,68.5,21.0" stroke="black" stroke-width="2" fill="none" />
<polyline points="86.5,4.5,94.5,10.5,102.5,16.5,110.5,20.5" stroke="black" stroke-width="2" fill="none" />
<polyline points="125.0,23.5,116.0,21.0,115.0,13.5,98.0,4.5" stroke="black" stroke-width="2" fill="none" />
<polyline points="127.5,7.0,128.5,14.5,127.5,23.5,125.5,32.5,121.0,39.5,116.5,47.5,111.5,55.5,107.5,63.0,100.5,70.5,94.5,78.5,89.5,87.0,84.5,95.0,76.0,103.0,71.0,111.0,65.5,119.5,62.5,127.0,60.5,135.0,59.5,143.0,59.0,151.0,57.5,158.5,57.5,166.5,58.5,175.0,61.5,183.0,57.5,184.0,57.0,192.0,41.0,200.5,28.5,208.0,22.5,216.0,16.5,224.0,8.5,232.0,10.5,226.0,18.5,216.0,32.5,212.0,41.0,204.0,49.0,199.0,57.0,196.0,65.0,193.5,72.0,197.5,80.0,192.5,88.0,189.5,96.0,187.5" stroke="black" stroke-width="2" fill="none" />
<polyline points="101.0,187.5,85.0,188.0" stroke="black" stroke-width="2" fill="none" />
<polyline points="72.5,188.0,57.0,188.0,41.5,187.5,26.5,187.0,10.0,187.5" stroke="black" stroke-width="2" fill="none" />
<polyline points="12.0,178.5,20.0,185.0" stroke="black" stroke-width="2" fill="none" />
<polyline points="15.5,175.5,7.5,178.5" stroke="black" stroke-width="2" fill="none" />
<polyline points="12.0,173.0,13.5,181.0,14.5,190.0" stroke="black" stroke-width="2" fill="none" />
<polyline points="14.5,205.5,20.5,214.0,15.0,222.0,7.0,230.0,13.0,229.0,21.0,218.5" stroke="black" stroke-width="2" fill="none" />
<polyline points="23.5,182.0,14.5,174.0" stroke="black" stroke-width="2" fill="none" />
<polyline points="3.5,160.5,12.0,157.5,20.0,157.5,28.0,154.5,35.5,151.0,43.5,143.0" stroke="black" stroke-width="2" fill="none" />
<polyline points="3.0,116.5,11.0,116.0,19.5,109.0,24.5,115.0,33.0,110.5,41.0,94.5,50.0,98.5,57.5,94.5" stroke="black" stroke-width="2" fill="none" />
<polyline points="29.0,66.0,21.0,63.0,13.5,59.5,5.5,59.5" stroke="black" stroke-width="2" fill="none" />
<polyline points="15.0,61.5,32.5,65.5,43.5,53.5" stroke="black" stroke-width="2" fill="none" />
<polyline points="10.5,3.0,2.5,3.0" stroke="black" stroke-width="2" fill="none" />
</svg>