<svg xmlns="http://www.w3.org/2000/svg" version="1.1"><polyline points="239.0,231.5,217.0,243.5,215.5,247.0,215.0,248.5,226.0,252.5,227.5,259.0,231.5,255.0,239.5,253.5,242.5,257.0,253.0,261.0,261.0,263.0,269.0,266.0,276.5,268.0" stroke="black" stroke-width="2" fill="none" />
<polyline points="282.5,265.0,266.0,280.0" stroke="black" stroke-width="2" fill="none" />
<polyline points="266.0,275.5,281.5,275.0" stroke="black" stroke-width="2" fill="none" />
<polyline points="267.5,263.5,283.0,262.5,298.0,262.0" stroke="black" stroke-width="2" fill="none" />
<polyline points="310.0,235.5,325.5,235.5" stroke="black" stroke-width="2" fill="none" />
<polyline points="341.5,233.0,356.5,232.0" stroke="black" stroke-width="2" fill="none" />
<polyline points="360.0,215.5,376.5,216.0,393.5,216.0,409.5,216.0,425.5,215.0,442.0,214.0,459.0,214.5,474.5,215.0,490.5,215.5,506.0,215.0,521.0,215.0" stroke="black" stroke-width="2" fill="none" />
<polyline points="500.0,199.5,516.5,183.5" stroke="black" stroke-width="2" fill="none" />
<polyline points="503.0,119.0,519.5,103.5" stroke="black" stroke-width="2" fill="none" />
<polyline points="502.0,100.5,518.0,85.0" stroke="black" stroke-width="2" fill="none" />
<polyline points="519.0,74.0,503.0,89.0,488.0,103.0" stroke="black" stroke-width="2" fill="none" />
<polyline points="507.0,71.5,523.5,55.0" stroke="black" stroke-width="2" fill="none" />
<polyline points="521.5,42.5,505.5,58.5" stroke="black" stroke-width="2" fill="none" />
<polyline points="487.0,57.0,502.5,42.0,518.5,26.0" stroke="black" stroke-width="2" fill="none" />
<polyline points="501.5,12.5,485.5,27.5,469.5,43.5" stroke="black" stroke-width="2" fill="none" />
<polyline points="468.0,66.0,452.0,82.0" stroke="black" stroke-width="2" fill="none" />
<polyline points="437.5,105.5,453.0,105.0,468.5,104.0,484.5,103.5,500.0,104.5,516.5,105.0" stroke="black" stroke-width="2" fill="none" />
<polyline points="519.0,199.0,503.5,199.5,488.0,199.5,472.5,200.5,456.0,201.0,440.0,202.0,423.5,203.0,406.0,204.0,389.5,205.5" stroke="black" stroke-width="2" fill="none" />
<polyline points="378.5,203.5,363.0,204.5" stroke="black" stroke-width="2" fill="none" />
<polyline points="377.5,234.5,393.0,234.5" stroke="black" stroke-width="2" fill="none" />
<polyline points="404.5,235.5,421.0,234.5,437.5,233.5,454.5,232.0,471.5,231.0,488.5,230.0,505.0,231.0,520.5,231.5" stroke="black" stroke-width="2" fill="none" />
<polyline points="518.0,265.0,502.0,264.0,486.5,264.0,471.5,263.5" stroke="black" stroke-width="2" fill="none" />
<polyline points="455.5,252.5,471.5,251.5,488.0,250.0,504.5,249.0,521.0,249.0" stroke="black" stroke-width="2" fill="none" />
<polyline points="518.0,348.0,502.5,363.0,486.0,378.0" stroke="black" stroke-width="2" fill="none" />
<polyline points="484.5,390.0,500.0,374.0,515.5,358.0" stroke="black" stroke-width="2" fill="none" />
<polyline points="512.5,374.5,498.0,389.5" stroke="black" stroke-width="2" fill="none" />
<polyline points="473.5,390.0,457.5,405.5" stroke="black" stroke-width="2" fill="none" />
<polyline points="458.5,387.0,473.5,371.0" stroke="black" stroke-width="2" fill="none" />
<polyline points="457.0,356.0,472.0,341.5" stroke="black" stroke-width="2" fill="none" />
<polyline points="454.0,343.5,438.5,359.5" stroke="black" stroke-width="2" fill="none" />
<polyline points="436.5,378.5,420.0,394.5" stroke="black" stroke-width="2" fill="none" />
<polyline points="393.0,395.0,408.5,394.5,424.0,395.0,440.0,395.5,455.5,395.5,471.0,396.0,486.0,395.0,501.5,394.0,517.5,393.0" stroke="black" stroke-width="2" fill="none" />
<polyline points="516.5,473.0,500.5,474.0" stroke="black" stroke-width="2" fill="none" />
<polyline points="505.5,488.0,521.5,488.5" stroke="black" stroke-width="2" fill="none" />
<polyline points="485.5,472.0,469.0,472.5,453.0,473.5" stroke="black" stroke-width="2" fill="none" />
<polyline points="450.5,460.0,467.5,459.0" stroke="black" stroke-width="2" fill="none" />
<polyline points="458.0,487.0,441.5,488.0" stroke="black" stroke-width="2" fill="none" />
<polyline points="437.5,456.5,422.0,458.0,406.0,458.5" stroke="black" stroke-width="2" fill="none" />
<polyline points="408.5,473.0,392.0,472.5" stroke="black" stroke-width="2" fill="none" />
<polyline points="378.0,473.5,362.0,488.5" stroke="black" stroke-width="2" fill="none" />
<polyline points="363.5,502.5,379.0,487.0" stroke="black" stroke-width="2" fill="none" />
<polyline points="389.5,488.0,406.0,488.0" stroke="black" stroke-width="2" fill="none" />
<polyline points="395.0,522.5,378.5,538.0" stroke="black" stroke-width="2" fill="none" />
<polyline points="373.0,537.5,388.5,536.5" stroke="black" stroke-width="2" fill="none" />
<polyline points="395.5,538.5,379.0,554.5" stroke="black" stroke-width="2" fill="none" />
<polyline points="376.5,553.5,392.0,553.5" stroke="black" stroke-width="2" fill="none" />
<polyline points="392.5,555.5,376.5,571.5" stroke="black" stroke-width="2" fill="none" />
<polyline points="378.5,573.5,394.5,573.0" stroke="black" stroke-width="2" fill="none" />
<polyline points="395.0,568.0,378.0,584.0" stroke="black" stroke-width="2" fill="none" />
<polyline points="379.0,583.0,394.0,582.0" stroke="black" stroke-width="2" fill="none" />
<polyline points="391.5,587.5,375.5,602.0" stroke="black" stroke-width="2" fill="none" />
<polyline points="375.5,598.0,392.0,597.5" stroke="black" stroke-width="2" fill="none" />
<polyline points="388.5,600.5,373.0,616.0" stroke="black" stroke-width="2" fill="none" />
<polyline points="375.0,610.0,391.5,609.0" stroke="black" stroke-width="2" fill="none" />
<polyline points="394.5,604.0,379.5,604.5" stroke="black" stroke-width="2" fill="none" />
<polyline points="390.0,583.0,374.0,583.0,359.0,583.5,342.0,584.5,326.0,585.0,310.0,585.5,294.0,587.0,278.5,587.0" stroke="black" stroke-width="2" fill="none" />
<polyline points="265.0,580.5,249.0,596.5" stroke="black" stroke-width="2" fill="none" />
<polyline points="250.5,591.5,266.0,592.0" stroke="black" stroke-width="2" fill="none" />
<polyline points="263.0,598.0,247.0,614.0" stroke="black" stroke-width="2" fill="none" />
<polyline points="245.5,618.5,261.5,618.5" stroke="black" stroke-width="2" fill="none" />
<polyline points="259.5,612.5,244.0,628.0" stroke="black" stroke-width="2" fill="none" />
<polyline points="245.0,630.5,261.5,630.5" stroke="black" stroke-width="2" fill="none" />
<polyline points="264.5,634.0,249.0,649.0,233.0,664.5" stroke="black" stroke-width="2" fill="none" />
<polyline points="229.0,658.5,244.0,658.0,259.5,657.0" stroke="black" stroke-width="2" fill="none" />
<polyline points="263.0,651.0,266.0,655.5,266.0,659.5,266.0,667.5,258.0,671.0,262.5,677.0" stroke="black" stroke-width="2" fill="none" />
<polyline points="263.5,670.5,248.0,671.5" stroke="black" stroke-width="2" fill="none" />
<polyline points="249.0,664.0,265.5,648.5" stroke="black" stroke-width="2" fill="none" />
<polyline points="263.5,647.0,247.0,648.5" stroke="black" stroke-width="2" fill="none" />
<polyline points="264.0,647.0,247.5,648.5,231.0,649.5,216.0,650.0,200.5,650.0,185.0,649.5,169.0,649.5,152.5,649.5" stroke="black" stroke-width="2" fill="none" />
<polyline points="138.0,632.5,154.0,631.5,170.0,631.0,186.5,630.5,202.0,630.0,218.0,629.5,233.0,628.0,247.5,627.5,262.0,628.0" stroke="black" stroke-width="2" fill="none" />
<polyline points="266.5,607.5,250.5,607.5" stroke="black" stroke-width="2" fill="none" />
<polyline points="233.5,597.5,250.5,582.0,267.5,566.5" stroke="black" stroke-width="2" fill="none" />
<polyline points="280.5,568.5,296.5,569.0,312.5,568.5,329.0,568.0" stroke="black" stroke-width="2" fill="none" />
<polyline points="341.5,569.5,357.0,569.0" stroke="black" stroke-width="2" fill="none" />
<polyline points="377.0,562.5,393.0,563.0" stroke="black" stroke-width="2" fill="none" />
<polyline points="382.5,555.5,384.5,561.5,384.5,569.5,385.5,581.5,393.5,587.0,393.5,594.5,394.5,602.5,392.0,610.5" stroke="black" stroke-width="2" fill="none" />
<polyline points="395.0,609.5,388.0,599.5,385.0,592.0,391.0,587.0,392.0,579.0,388.5,575.5" stroke="black" stroke-width="2" fill="none" />
<polyline points="390.0,542.5,373.5,542.5" stroke="black" stroke-width="2" fill="none" />
<polyline points="373.5,520.5,390.0,520.0" stroke="black" stroke-width="2" fill="none" />
<polyline points="375.5,508.5,359.5,509.0" stroke="black" stroke-width="2" fill="none" />
<polyline points="360.5,503.0,377.0,502.5" stroke="black" stroke-width="2" fill="none" />
<polyline points="375.0,470.5,359.0,471.0" stroke="black" stroke-width="2" fill="none" />
<polyline points="344.5,473.0,328.0,488.5" stroke="black" stroke-width="2" fill="none" />
<polyline points="327.5,480.0,344.0,480.0,361.0,480.5,377.5,481.0" stroke="black" stroke-width="2" fill="none" />
<polyline points="374.5,454.5,358.0,470.0,342.0,487.0" stroke="black" stroke-width="2" fill="none" />
<polyline points="330.5,470.0,346.0,454.5" stroke="black" stroke-width="2" fill="none" />
<polyline points="357.5,453.5,373.5,438.0" stroke="black" stroke-width="2" fill="none" />
<polyline points="373.0,424.5,357.5,440.5" stroke="black" stroke-width="2" fill="none" />
<polyline points="356.5,434.0,372.5,433.5" stroke="black" stroke-width="2" fill="none" />
<polyline points="376.0,448.5,360.5,448.5" stroke="black" stroke-width="2" fill="none" />
<polyline points="356.5,422.5,372.5,406.0" stroke="black" stroke-width="2" fill="none" />
<polyline points="379.0,403.0,363.0,403.0" stroke="black" stroke-width="2" fill="none" />
<polyline points="357.5,406.5,373.0,391.5" stroke="black" stroke-width="2" fill="none" />
<polyline points="359.0,391.0,374.0,375.0" stroke="black" stroke-width="2" fill="none" />
<polyline points="379.5,368.5,363.5,369.5" stroke="black" stroke-width="2" fill="none" />
<polyline points="377.5,362.5,360.5,377.5,344.0,392.0" stroke="black" stroke-width="2" fill="none" />
<polyline points="340.0,385.5,353.0,393.5,353.0,401.5,353.5,409.5,355.5,417.5,355.5,425.5,355.5,433.5,356.5,442.0,357.5,450.5,358.0,458.5,358.0,467.0,360.0,474.5" stroke="black" stroke-width="2" fill="none" />
<polyline points="328.5,456.0,312.0,471.0" stroke="black" stroke-width="2" fill="none" />
<polyline points="311.5,473.5,328.5,473.0,344.0,473.0,360.5,472.0,378.0,471.0" stroke="black" stroke-width="2" fill="none" />
<polyline points="392.0,445.5,408.0,444.5" stroke="black" stroke-width="2" fill="none" />
<polyline points="420.5,441.5,436.5,441.5,452.5,441.5,469.0,441.5,485.5,440.5,503.0,440.0,518.0,440.5" stroke="black" stroke-width="2" fill="none" />
<polyline points="517.5,422.5,502.0,423.0,485.5,423.5,470.0,425.0,453.5,426.5,437.5,428.0,421.5,428.5" stroke="black" stroke-width="2" fill="none" />
<polyline points="407.0,428.5,392.0,429.0" stroke="black" stroke-width="2" fill="none" />
<polyline points="393.0,413.0,408.5,412.5,423.5,412.0,438.5,411.5,453.5,411.0,468.0,410.5,484.0,409.5,499.5,409.0,515.0,408.0" stroke="black" stroke-width="2" fill="none" />
<polyline points="521.0,309.0,505.0,309.5,488.5,309.5,472.0,310.0,455.5,311.0,439.5,311.5" stroke="black" stroke-width="2" fill="none" />
<polyline points="420.0,295.5,436.0,295.5,452.5,296.0,469.0,296.0,485.5,296.0,502.0,296.0,517.5,295.5" stroke="black" stroke-width="2" fill="none" />
<polyline points="517.0,280.5,501.5,280.5,484.5,281.0,469.0,281.5,453.5,282.5,438.5,282.5,422.5,282.0,407.0,282.5" stroke="black" stroke-width="2" fill="none" />
<polyline points="404.0,268.5,419.0,267.0,435.0,265.5,451.5,264.5" stroke="black" stroke-width="2" fill="none" />
<polyline points="421.0,319.0,404.0,319.0,388.5,319.0" stroke="black" stroke-width="2" fill="none" />
<polyline points="389.0,333.0,405.0,332.5,420.5,331.0,437.0,330.0,453.5,330.5,469.5,329.5,485.5,329.0,501.5,329.0,518.0,328.5" stroke="black" stroke-width="2" fill="none" />
<polyline points="516.0,378.0,501.0,377.5,486.5,376.5,471.0,377.0,456.0,377.0,441.5,378.5,426.0,379.5,409.5,380.0,393.0,380.0" stroke="black" stroke-width="2" fill="none" />
<polyline points="393.0,363.5,409.0,363.0,424.0,362.5,440.0,362.0,455.5,361.5,470.5,361.0,486.0,361.0,502.0,360.0,518.0,359.5" stroke="black" stroke-width="2" fill="none" />
<polyline points="517.0,345.0,501.5,345.5,485.5,347.0,470.0,347.0,454.0,347.0,438.0,347.0,422.5,347.5,406.0,349.0,390.0,350.5" stroke="black" stroke-width="2" fill="none" />
<polyline points="376.0,346.0,360.5,361.0" stroke="black" stroke-width="2" fill="none" />
<polyline points="358.0,352.5,374.5,351.5" stroke="black" stroke-width="2" fill="none" />
<polyline points="360.5,344.0,377.0,329.0" stroke="black" stroke-width="2" fill="none" />
<polyline points="374.0,314.5,358.0,330.5" stroke="black" stroke-width="2" fill="none" />
<polyline points="357.5,337.5,374.5,337.5" stroke="black" stroke-width="2" fill="none" />
<polyline points="391.0,302.0,406.0,302.0" stroke="black" stroke-width="2" fill="none" />
<polyline points="372.5,281.5,356.5,296.5" stroke="black" stroke-width="2" fill="none" />
<polyline points="361.5,292.0,377.5,291.0" stroke="black" stroke-width="2" fill="none" />
<polyline points="376.0,283.5,360.0,284.0" stroke="black" stroke-width="2" fill="none" />
<polyline points="361.0,289.5,356.0,298.0,359.0,300.0,360.0,307.5,360.5,315.5,361.5,323.0,363.0,331.0,363.0,339.0,364.0,347.0,364.0,354.5,365.0,362.5,365.5,370.5,366.5,378.5,366.5,386.0,368.0,394.0,368.5,402.0,368.5,410.0,369.5,418.5,370.5,427.0,370.5,435.0,371.0,443.0,371.5,451.0,372.5,458.5,372.5,466.5,373.5,474.0,375.0,482.0,374.0,490.0,375.0,498.5,375.0,507.0,377.0,515.0,377.0,523.0,377.5,531.0,378.5,538.5,379.5,546.5,381.0,555.0,380.5,563.0,382.5,571.0,382.5,578.5,382.5,586.5,384.0,594.5,384.0,602.5,385.0,610.5" stroke="black" stroke-width="2" fill="none" />
<polyline points="393.0,615.0,384.5,618.0,376.0,615.0,368.0,610.5,361.5,611.5,353.5,603.5" stroke="black" stroke-width="2" fill="none" />
<polyline points="354.0,602.5,358.0,610.5,370.5,612.0" stroke="black" stroke-width="2" fill="none" />
<polyline points="345.0,523.5,330.0,523.5" stroke="black" stroke-width="2" fill="none" />
<polyline points="300.5,494.5,316.5,493.5,331.5,491.5,346.5,489.5,361.5,488.5,376.5,486.5" stroke="black" stroke-width="2" fill="none" />
<polyline points="375.5,418.0,360.5,418.0" stroke="black" stroke-width="2" fill="none" />
<polyline points="372.0,385.0,356.0,385.5,340.0,385.5" stroke="black" stroke-width="2" fill="none" />
<polyline points="325.5,360.5,310.0,376.0" stroke="black" stroke-width="2" fill="none" />
<polyline points="310.5,366.0,332.5,374.0" stroke="black" stroke-width="2" fill="none" />
<polyline points="311.0,363.0,295.5,378.0" stroke="black" stroke-width="2" fill="none" />
<polyline points="294.5,375.5,310.5,373.5,326.5,372.5" stroke="black" stroke-width="2" fill="none" />
<polyline points="282.5,366.0,299.0,364.0,314.5,362.0,329.0,360.5,344.0,359.5,359.5,359.0,374.0,358.0" stroke="black" stroke-width="2" fill="none" />
<polyline points="373.5,312.0,358.0,311.5,342.5,312.0,326.0,312.0,309.5,313.5" stroke="black" stroke-width="2" fill="none" />
<polyline points="309.0,315.0,325.0,300.0" stroke="black" stroke-width="2" fill="none" />
<polyline points="326.0,306.5,311.0,307.5" stroke="black" stroke-width="2" fill="none" />
<polyline points="314.5,297.5,330.5,297.5,347.5,298.5" stroke="black" stroke-width="2" fill="none" />
<polyline points="348.0,298.5,338.0,308.5,335.0,310.5,340.0,303.5,348.0,306.0,356.0,303.0" stroke="black" stroke-width="2" fill="none" />
<polyline points="349.0,300.0,357.5,300.0,346.5,308.0,346.5,315.5,346.0,323.5,346.5,331.5,348.0,339.5,349.0,347.5,349.5,355.0,350.5,363.0,351.5,371.0,351.5,379.0" stroke="black" stroke-width="2" fill="none" />
<polyline points="374.0,330.0,357.0,329.5,340.0,329.0,324.0,328.5,308.5,328.0,292.5,329.0" stroke="black" stroke-width="2" fill="none" />
<polyline points="297.0,317.0,293.0,325.0,274.0,333.0,273.0,341.0,273.5,348.5,272.5,356.5,271.5,364.5,273.0,372.5,273.0,381.0,273.5,389.0,273.5,396.5,273.5,405.0,272.0,413.0,271.5,421.0,271.5,428.5,270.5,436.5,271.0,444.5,271.0,453.0,271.0,461.5,271.5,469.5,270.5,477.5,272.5,483.5,280.0,479.5,287.5,476.0" stroke="black" stroke-width="2" fill="none" />
<polyline points="291.5,474.0,307.5,458.5" stroke="black" stroke-width="2" fill="none" />
<polyline points="297.0,455.5,280.5,471.0" stroke="black" stroke-width="2" fill="none" />
<polyline points="277.5,468.5,287.0,476.0" stroke="black" stroke-width="2" fill="none" />
<polyline points="281.5,463.5,297.0,463.5,312.5,464.5,327.5,465.0,342.5,464.5" stroke="black" stroke-width="2" fill="none" />
<polyline points="293.0,438.5,277.0,454.0" stroke="black" stroke-width="2" fill="none" />
<polyline points="281.5,454.0,297.0,454.0,313.5,454.0,330.0,454.5,346.0,454.5,362.0,454.5,377.5,454.5" stroke="black" stroke-width="2" fill="none" />
<polyline points="359.0,536.0,343.0,536.5,326.0,537.0,309.5,537.0,293.0,536.5,276.5,537.0" stroke="black" stroke-width="2" fill="none" />
<polyline points="264.5,536.0,249.0,551.0,233.0,567.0,217.0,583.0,200.5,598.5,185.0,614.0" stroke="black" stroke-width="2" fill="none" />
<polyline points="215.5,598.0,231.5,582.0,248.0,565.5,264.5,550.5" stroke="black" stroke-width="2" fill="none" />
<polyline points="276.0,553.5,292.5,553.0,308.5,553.0,325.0,552.0,342.0,550.5,358.0,549.0" stroke="black" stroke-width="2" fill="none" />
<polyline points="310.5,522.5,293.5,522.0,277.0,523.0" stroke="black" stroke-width="2" fill="none" />
<polyline points="267.5,522.5,251.5,537.5,235.5,553.5,218.5,569.0,201.5,583.5,185.0,598.0,169.5,613.5" stroke="black" stroke-width="2" fill="none" />
<polyline points="151.5,614.0,167.5,599.0,183.5,583.5,199.5,568.0,214.5,552.0,231.0,536.0,247.0,520.0,263.0,504.5" stroke="black" stroke-width="2" fill="none" />
<polyline points="263.0,507.5,247.5,508.0" stroke="black" stroke-width="2" fill="none" />
<polyline points="248.5,504.0,264.5,503.0" stroke="black" stroke-width="2" fill="none" />
<polyline points="270.5,504.5,278.5,501.5,286.5,497.0,294.5,494.0,302.0,491.0,310.0,487.5,320.0,486.5,328.0,489.5,336.0,493.5,344.0,496.5,352.0,499.5,360.0,503.5" stroke="black" stroke-width="2" fill="none" />
<polyline points="341.0,502.5,324.0,503.0,307.0,503.0,290.0,502.5,274.5,503.0" stroke="black" stroke-width="2" fill="none" />
<polyline points="263.5,515.0,248.5,515.0" stroke="black" stroke-width="2" fill="none" />
<polyline points="243.5,502.0,259.5,486.5" stroke="black" stroke-width="2" fill="none" />
<polyline points="263.0,493.0,247.0,494.0" stroke="black" stroke-width="2" fill="none" />
<polyline points="241.0,499.5,242.0,507.5,242.0,515.5,230.0,524.5" stroke="black" stroke-width="2" fill="none" />
<polyline points="231.0,519.0,216.0,534.5,199.5,549.5,183.5,564.5,168.0,580.0,151.5,596.5" stroke="black" stroke-width="2" fill="none" />
<polyline points="150.0,593.0,166.0,593.0,182.0,592.5,199.0,592.5,215.5,592.0,231.5,592.0" stroke="black" stroke-width="2" fill="none" />
<polyline points="239.5,587.5,243.0,593.5,242.0,601.5,243.0,609.5,243.5,618.0,244.5,626.5,244.0,634.5,244.0,642.5,243.0,650.5,243.0,658.5,227.0,658.5,231.0,668.5,242.5,674.5" stroke="black" stroke-width="2" fill="none" />
<polyline points="251.5,678.5,243.5,675.0,236.0,671.0,235.5,659.0,227.5,658.5" stroke="black" stroke-width="2" fill="none" />
<polyline points="183.5,607.5,166.5,607.0,151.0,607.5" stroke="black" stroke-width="2" fill="none" />
<polyline points="134.0,600.0,117.5,615.5" stroke="black" stroke-width="2" fill="none" />
<polyline points="119.5,614.0,136.0,613.5" stroke="black" stroke-width="2" fill="none" />
<polyline points="137.0,596.0,119.5,596.5,103.0,596.0,86.0,596.0,69.5,596.0" stroke="black" stroke-width="2" fill="none" />
<polyline points="102.5,598.0,119.5,582.5,136.0,567.0,152.0,551.5,168.0,536.5,184.0,521.0,199.5,505.0,215.0,489.0,231.0,472.5" stroke="black" stroke-width="2" fill="none" />
<polyline points="246.0,469.0,262.5,469.0" stroke="black" stroke-width="2" fill="none" />
<polyline points="261.0,469.5,244.5,486.0" stroke="black" stroke-width="2" fill="none" />
<polyline points="241.5,486.5,258.5,485.5" stroke="black" stroke-width="2" fill="none" />
<polyline points="264.5,468.5,249.0,469.5,232.5,470.5,216.0,470.5,200.0,471.0,184.5,471.5,169.0,472.0,153.5,472.0,137.0,470.5,120.5,470.0,103.5,470.0,87.0,470.0,71.0,470.0,55.5,470.0,40.0,470.5,24.0,472.0,9.0,472.5" stroke="black" stroke-width="2" fill="none" />
<polyline points="9.5,470.5,27.0,454.0,43.0,438.5,59.5,423.0,76.5,407.0,92.5,391.5,107.5,377.0" stroke="black" stroke-width="2" fill="none" />
<polyline points="105.5,394.0,89.5,410.0" stroke="black" stroke-width="2" fill="none" />
<polyline points="88.0,421.0,72.0,436.0,56.5,451.5,41.0,467.5,25.0,484.5,9.0,500.0" stroke="black" stroke-width="2" fill="none" />
<polyline points="6.5,497.0,22.5,497.0" stroke="black" stroke-width="2" fill="none" />
<polyline points="8.5,508.0,24.5,507.5,41.0,507.0,56.5,507.0,72.0,507.0,88.0,506.5,103.5,505.0,119.5,504.0,135.5,503.0,152.0,502.5,168.5,502.0,184.0,502.0,199.5,502.0" stroke="black" stroke-width="2" fill="none" />
<polyline points="197.0,496.5,213.0,496.0,230.0,496.5" stroke="black" stroke-width="2" fill="none" />
<polyline points="216.0,503.0,232.0,488.0,247.0,473.0,262.5,457.5" stroke="black" stroke-width="2" fill="none" />
<polyline points="264.0,453.5,247.5,453.5" stroke="black" stroke-width="2" fill="none" />
<polyline points="247.5,458.5,264.0,442.0" stroke="black" stroke-width="2" fill="none" />
<polyline points="263.5,433.5,246.5,433.5" stroke="black" stroke-width="2" fill="none" />
<polyline points="243.5,440.5,259.0,425.5" stroke="black" stroke-width="2" fill="none" />
<polyline points="260.5,416.5,244.0,417.0" stroke="black" stroke-width="2" fill="none" />
<polyline points="242.5,405.5,258.5,389.5" stroke="black" stroke-width="2" fill="none" />
<polyline points="246.0,391.0,262.5,375.0" stroke="black" stroke-width="2" fill="none" />
<polyline points="264.0,359.5,247.5,375.0,231.0,390.5,214.5,406.0" stroke="black" stroke-width="2" fill="none" />
<polyline points="210.5,436.5,194.5,452.0" stroke="black" stroke-width="2" fill="none" />
<polyline points="184.5,454.5,168.5,470.5,152.5,485.5,136.5,500.5,121.0,515.0,105.0,530.5,89.0,545.5,72.5,561.0,56.0,576.5,40.5,592.0" stroke="black" stroke-width="2" fill="none" />
<polyline points="56.0,593.0,73.0,577.0,88.5,562.0,104.5,546.5,120.0,530.5,136.5,515.5,152.5,499.5,168.5,484.0,183.5,469.0" stroke="black" stroke-width="2" fill="none" />
<polyline points="201.5,472.5,184.5,489.0" stroke="black" stroke-width="2" fill="none" />
<polyline points="185.5,494.5,202.0,494.0,217.5,493.5,233.5,493.0" stroke="black" stroke-width="2" fill="none" />
<polyline points="212.0,469.5,195.5,484.5,178.5,500.5,162.5,516.5,147.0,532.5" stroke="black" stroke-width="2" fill="none" />
<polyline points="140.5,535.0,146.0,543.0,144.0,551.0,144.0,545.0" stroke="black" stroke-width="2" fill="none" />
<polyline points="153.0,549.0,169.5,548.5,185.0,547.5,201.0,546.5,217.5,546.5,232.5,546.0,248.0,546.0,262.5,546.0" stroke="black" stroke-width="2" fill="none" />
<polyline points="262.0,578.5,246.0,579.0,229.0,580.0,212.5,580.0,195.0,579.5,178.5,578.5,162.5,577.5,145.5,577.0" stroke="black" stroke-width="2" fill="none" />
<polyline points="147.5,586.0,163.5,570.5,179.5,554.5,195.5,538.0,211.0,523.0" stroke="black" stroke-width="2" fill="none" />
<polyline points="212.0,518.0,220.5,519.5,228.5,522.0,236.5,519.0,242.5,520.0" stroke="black" stroke-width="2" fill="none" />
<polyline points="200.5,523.5,184.0,539.5,168.0,553.5,151.0,568.0" stroke="black" stroke-width="2" fill="none" />
<polyline points="150.5,564.5,166.5,564.0,182.5,563.0,198.5,562.5,214.5,561.5,231.5,560.5,246.5,560.5,262.5,560.5" stroke="black" stroke-width="2" fill="none" />
<polyline points="263.0,578.5,247.5,579.0,231.5,580.0,216.0,580.5,200.5,582.5,184.5,585.0,169.0,586.5,152.5,586.5,136.5,585.5,120.5,585.5,104.5,585.5,89.0,585.0,72.0,585.5,56.0,586.0,39.5,586.0,22.5,586.0,5.5,586.0" stroke="black" stroke-width="2" fill="none" />
<polyline points="7.0,580.5,22.5,565.0,38.5,549.0,55.0,533.5,72.0,517.0,89.0,501.5,106.5,484.5,123.5,467.5,140.0,451.5,155.0,436.0" stroke="black" stroke-width="2" fill="none" />
<polyline points="150.0,448.5,135.0,449.5" stroke="black" stroke-width="2" fill="none" />
<polyline points="137.0,437.0,152.0,436.0" stroke="black" stroke-width="2" fill="none" />
<polyline points="152.0,455.0,136.0,471.0,119.5,485.5,103.5,500.0,87.5,514.5,71.0,530.5,53.5,545.5,36.5,561.5,20.0,578.0,4.5,593.5" stroke="black" stroke-width="2" fill="none" />
<polyline points="7.5,605.5,24.0,605.0,40.5,605.0,56.5,604.0,73.0,603.5,89.0,603.0,105.5,603.0,121.5,601.5,137.0,600.5,152.0,600.0,167.0,600.0,183.5,599.5,200.5,598.0,216.5,597.0,232.5,596.0,247.5,594.5,263.0,594.0" stroke="black" stroke-width="2" fill="none" />
<polyline points="269.5,599.5,268.0,607.5" stroke="black" stroke-width="2" fill="none" />
<polyline points="269.0,609.5,262.5,605.0,262.5,595.0,262.5,588.5,262.0,580.0" stroke="black" stroke-width="2" fill="none" />
<polyline points="231.0,613.0,215.5,614.0,199.5,615.5,184.0,615.5,168.0,616.5,151.5,618.0,135.5,619.0,120.0,619.0,104.5,619.0" stroke="black" stroke-width="2" fill="none" />
<polyline points="103.0,618.5,120.0,603.5,137.0,587.5" stroke="black" stroke-width="2" fill="none" />
<polyline points="133.5,576.5,118.0,576.0,101.5,575.5,85.5,575.0,69.0,575.5,52.5,576.5,36.0,578.0,20.0,578.5,4.5,579.0" stroke="black" stroke-width="2" fill="none" />
<polyline points="6.5,570.0,22.0,569.5,37.5,569.0,53.5,568.0,70.0,566.5,86.0,565.0,102.0,565.0,117.0,564.5,132.5,564.5,147.5,564.5,163.5,564.0,180.0,564.5,196.5,564.5,213.0,563.5,229.5,563.5,246.0,563.5,263.0,564.0" stroke="black" stroke-width="2" fill="none" />
<polyline points="264.5,525.0,249.5,525.5,233.0,525.5,217.0,526.5,201.5,527.5,185.0,528.0,168.5,528.5,152.0,528.5,137.0,528.0,123.0,527.5,108.5,527.5,92.5,528.5,76.0,529.0,60.0,529.5,44.0,530.0,28.0,530.5" stroke="black" stroke-width="2" fill="none" />
<polyline points="41.5,543.5,57.0,543.0,73.5,543.5,89.0,544.0,103.5,545.0,119.0,545.5,135.5,544.5" stroke="black" stroke-width="2" fill="none" />
<polyline points="135.0,551.5,119.5,567.5,103.0,583.0,87.0,598.0" stroke="black" stroke-width="2" fill="none" />
<polyline points="73.0,597.0,88.5,581.5,105.0,566.5,121.5,549.5,137.0,534.0,152.0,518.5,168.0,503.5" stroke="black" stroke-width="2" fill="none" />
<polyline points="168.5,493.5,152.0,494.5,136.0,495.0,119.5,494.5,103.5,495.0,88.5,495.0,73.5,495.0,58.0,495.5,42.0,496.0" stroke="black" stroke-width="2" fill="none" />
<polyline points="40.5,481.0,56.0,481.0" stroke="black" stroke-width="2" fill="none" />
<polyline points="58.0,466.5,73.5,467.0" stroke="black" stroke-width="2" fill="none" />
<polyline points="71.0,454.5,88.0,454.0" stroke="black" stroke-width="2" fill="none" />
<polyline points="87.5,441.0,72.0,456.5,55.5,470.5,39.5,485.0,23.0,500.0,6.0,515.0" stroke="black" stroke-width="2" fill="none" />
<polyline points="7.0,512.5,22.5,512.5,38.0,511.5,54.5,511.5,72.0,512.5,89.0,512.0,105.0,511.5,121.5,510.0,138.0,509.0,154.0,508.5,169.5,507.5,185.5,508.0,201.0,508.5" stroke="black" stroke-width="2" fill="none" />
<polyline points="195.0,509.0,178.0,501.0" stroke="black" stroke-width="2" fill="none" />
<polyline points="170.0,482.5,185.5,482.0" stroke="black" stroke-width="2" fill="none" />
<polyline points="171.5,453.5,154.5,469.5,137.5,486.5,121.0,502.0,105.0,516.5,89.0,532.0,73.0,549.0,58.0,565.5,42.5,582.0,27.0,598.0" stroke="black" stroke-width="2" fill="none" />
<polyline points="8.5,618.0,24.0,618.0,38.5,618.0,54.0,617.0,69.5,615.5,86.0,615.0" stroke="black" stroke-width="2" fill="none" />
<polyline points="83.0,638.5,99.0,637.5" stroke="black" stroke-width="2" fill="none" />
<polyline points="88.5,652.5,73.0,653.0" stroke="black" stroke-width="2" fill="none" />
<polyline points="88.0,698.5,103.0,698.5" stroke="black" stroke-width="2" fill="none" />
<polyline points="40.0,698.5,24.0,699.0" stroke="black" stroke-width="2" fill="none" />
<polyline points="24.5,712.0,8.5,713.0" stroke="black" stroke-width="2" fill="none" />
<polyline points="8.0,744.5,24.0,744.0" stroke="black" stroke-width="2" fill="none" />
<polyline points="22.5,665.5,39.0,665.5" stroke="black" stroke-width="2" fill="none" />
<polyline points="40.0,651.5,24.5,653.0" stroke="black" stroke-width="2" fill="none" />
<polyline points="5.5,629.5,22.0,629.0,39.0,628.5,55.5,628.5,72.0,630.0" stroke="black" stroke-width="2" fill="none" />
<polyline points="110.5,610.5,118.5,611.0,126.5,613.0,134.0,614.0,142.0,611.0" stroke="black" stroke-width="2" fill="none" />
<polyline points="146.0,560.5,138.0,558.5" stroke="black" stroke-width="2" fill="none" />
<polyline points="130.5,556.0,114.5,555.5,99.5,555.0,84.0,555.5,68.0,557.0,52.0,559.0,36.5,561.0,20.5,563.0,5.0,563.5" stroke="black" stroke-width="2" fill="none" />
<polyline points="10.5,561.0,27.5,545.5,43.0,530.0,58.5,514.0,74.0,498.5,90.0,484.0,105.5,469.0,121.0,453.0,136.5,437.0,153.0,421.0,169.5,404.5,185.5,388.0" stroke="black" stroke-width="2" fill="none" />
<polyline points="167.0,386.5,182.5,371.5,198.0,357.5" stroke="black" stroke-width="2" fill="none" />
<polyline points="214.0,327.5,231.0,326.5,247.0,324.5,264.0,323.0,281.0,321.0" stroke="black" stroke-width="2" fill="none" />
<polyline points="278.0,310.0,261.5,325.0,245.0,339.5" stroke="black" stroke-width="2" fill="none" />
<polyline points="244.5,340.5,259.5,339.0" stroke="black" stroke-width="2" fill="none" />
<polyline points="265.0,342.0,249.0,358.0" stroke="black" stroke-width="2" fill="none" />
<polyline points="245.5,356.0,261.0,355.5" stroke="black" stroke-width="2" fill="none" />
<polyline points="259.0,355.5,242.5,356.0,227.5,356.5,213.0,357.0,198.0,357.5,183.0,356.5,166.5,356.5,150.5,357.5,133.5,359.0,118.0,360.0,102.5,361.5,86.5,362.5,70.5,363.5,54.5,365.5,38.5,367.5,22.5,368.0,6.5,367.5" stroke="black" stroke-width="2" fill="none" />
<polyline points="2.5,374.5,18.0,359.5,34.0,343.5" stroke="black" stroke-width="2" fill="none" />
<polyline points="36.5,330.5,21.0,346.0" stroke="black" stroke-width="2" fill="none" />
<polyline points="8.0,349.0,24.0,348.5,39.5,348.0,56.0,347.5,73.0,346.5,89.5,346.0,106.0,344.5,122.0,343.5,138.0,343.0,153.0,343.5,168.5,344.0,184.0,342.5,200.0,341.5,216.0,341.0,231.5,340.5,246.5,340.5,263.0,340.0" stroke="black" stroke-width="2" fill="none" />
<polyline points="259.0,327.0,267.5,320.0,274.5,320.0,283.0,319.5,291.5,315.5" stroke="black" stroke-width="2" fill="none" />
<polyline points="282.0,315.5,266.0,316.0,250.5,317.0,235.5,317.5,220.0,317.0" stroke="black" stroke-width="2" fill="none" />
<polyline points="216.0,316.0,231.5,300.5" stroke="black" stroke-width="2" fill="none" />
<polyline points="246.5,290.5,230.5,307.5,215.0,323.5" stroke="black" stroke-width="2" fill="none" />
<polyline points="220.0,325.0,240.0,333.0,241.0,341.0,241.0,349.0,240.0,357.0,240.0,365.0,240.0,372.5,240.0,380.0,240.0,387.5,240.5,395.5,241.5,403.5,242.0,411.5,242.0,419.5,241.0,427.5,241.5,436.0,242.5,444.5,241.0,452.5,241.0,460.5,241.0,468.5,241.0,476.5,241.0,484.5,241.0,492.5,222.5,500.5,204.5,508.5,210.0,510.5,219.0,511.0,227.5,504.0,235.5,500.0" stroke="black" stroke-width="2" fill="none" />
<polyline points="265.0,533.0,249.0,534.0,233.5,535.0,218.0,535.5,201.5,536.5,185.0,536.5,168.5,537.5,153.0,537.5,136.5,538.0,120.0,538.5,103.0,539.0,87.0,540.0,70.5,539.0,55.0,538.0,38.5,538.0,22.0,538.5,6.0,539.0" stroke="black" stroke-width="2" fill="none" />
<polyline points="3.5,533.0,20.0,516.5,37.0,501.5,53.5,487.5,70.5,472.0,87.0,457.5,104.0,442.0,120.0,426.5,135.5,410.5,152.0,394.0" stroke="black" stroke-width="2" fill="none" />
<polyline points="152.5,406.0,137.0,421.5,121.0,437.0" stroke="black" stroke-width="2" fill="none" />
<polyline points="135.0,421.0,151.5,420.5" stroke="black" stroke-width="2" fill="none" />
<polyline points="152.5,406.0,137.0,407.5" stroke="black" stroke-width="2" fill="none" />
<polyline points="131.5,390.5,148.0,389.0" stroke="black" stroke-width="2" fill="none" />
<polyline points="149.0,380.0,133.5,394.5,117.5,409.0,101.5,424.0" stroke="black" stroke-width="2" fill="none" />
<polyline points="100.0,403.5,117.0,388.0,133.0,373.0,150.0,357.5" stroke="black" stroke-width="2" fill="none" />
<polyline points="134.5,357.5,150.5,341.5,166.5,325.5,182.5,310.0,198.5,294.0" stroke="black" stroke-width="2" fill="none" />
<polyline points="200.5,290.5,184.0,291.5,168.0,292.5,152.0,293.0" stroke="black" stroke-width="2" fill="none" />
<polyline points="151.5,294.0,167.5,278.5" stroke="black" stroke-width="2" fill="none" />
<polyline points="182.5,281.5,166.5,296.5,150.5,311.0" stroke="black" stroke-width="2" fill="none" />
<polyline points="151.0,309.5,167.0,309.5,184.0,308.0,200.0,307.0,215.0,306.0,231.5,306.0,248.0,305.5" stroke="black" stroke-width="2" fill="none" />
<polyline points="249.5,304.0,264.5,312.0,264.0,323.5,258.0,326.5,256.5,334.0,256.5,342.5,256.5,350.0,256.0,358.0,255.0,366.0,255.0,374.0,255.0,382.0,255.0,390.0,255.0,398.0,256.5,405.5,256.5,413.5,255.5,421.5,255.5,430.0,255.5,438.0,255.5,446.5,255.0,455.0,256.0,463.0,255.0,471.0,255.0,479.0,255.0,487.0,256.0,495.0,256.0,503.0,256.0,511.0,254.5,518.5,256.0,526.5,255.0,534.0,255.5,542.0,255.0,550.0,255.0,557.5,255.0,565.5,255.5,574.0,256.0,582.0,256.0,590.0,254.5,598.0,254.5,606.0,255.5,613.5,255.5,621.5,254.5,629.5,255.5,637.5,255.0,646.0,255.5,654.0,257.0,662.5,257.0,670.5,257.0,678.5,263.0,677.0,263.0,662.0" stroke="black" stroke-width="2" fill="none" />
<polyline points="264.5,548.0,248.5,548.0,232.0,548.0,214.5,548.5,197.5,549.5,181.0,551.0,164.5,552.0,149.0,552.0,134.0,552.5,118.5,552.0,103.0,551.0,86.0,551.5,70.5,552.0,54.0,553.0,37.5,554.0,21.0,554.0,5.0,554.5" stroke="black" stroke-width="2" fill="none" />
<polyline points="5.0,548.5,21.0,534.5,36.5,519.5,53.5,503.5,70.5,487.5,87.0,471.5,103.0,455.5" stroke="black" stroke-width="2" fill="none" />
<polyline points="120.5,470.5,137.0,469.5,153.5,469.5" stroke="black" stroke-width="2" fill="none" />
<polyline points="152.5,480.5,136.0,481.5" stroke="black" stroke-width="2" fill="none" />
<polyline points="141.5,489.5,149.5,483.5" stroke="black" stroke-width="2" fill="none" />
<polyline points="145.5,489.0,153.5,489.0,162.0,493.0,170.0,497.0,178.0,500.5,186.0,505.0,194.0,508.0,202.5,511.0,210.5,508.0,218.5,505.0,226.5,502.0,234.5,498.0,242.0,498.0,227.0,506.0,222.0,514.0,225.5,515.0" stroke="black" stroke-width="2" fill="none" />
<polyline points="266.0,517.0,249.0,517.5,232.0,518.5,216.0,519.0,200.5,519.0,186.0,519.0,171.0,519.5,155.0,521.0,138.0,522.0,121.5,522.5,104.5,522.0,87.5,522.0,71.0,521.0,53.0,520.5,35.0,520.0,18.5,520.5,3.0,521.0" stroke="black" stroke-width="2" fill="none" />
<polyline points="6.5,548.0,22.0,547.5" stroke="black" stroke-width="2" fill="none" />
<polyline points="7.0,487.0,23.0,487.0,37.5,487.0,53.0,487.5,69.0,488.5,85.5,488.5,101.0,489.0,117.5,488.5,133.0,488.5,147.5,488.5,163.0,489.5" stroke="black" stroke-width="2" fill="none" />
<polyline points="160.0,492.5,147.5,486.5,156.0,478.0,151.0,477.0,156.5,468.5,156.0,460.5,157.0,452.0,155.5,445.5,156.5,437.5,157.5,429.5,158.5,421.0,159.5,413.0,160.0,404.5,154.0,403.5,154.0,404.0,150.0,398.5,152.5,389.5,152.5,382.0,151.5,377.0" stroke="black" stroke-width="2" fill="none" />
<polyline points="148.0,369.5,131.5,369.0" stroke="black" stroke-width="2" fill="none" />
<polyline points="108.0,346.0,91.5,361.0" stroke="black" stroke-width="2" fill="none" />
<polyline points="89.5,372.0,74.0,388.0,57.0,403.5,40.0,420.5,24.0,438.0,8.0,455.0" stroke="black" stroke-width="2" fill="none" />
<polyline points="9.0,460.0,26.0,460.0,42.0,460.5,57.0,461.0,71.5,460.5,87.0,460.5,103.0,459.5,119.0,459.5,135.0,459.0,151.0,458.0,167.0,457.5,184.0,457.0,200.5,455.5,216.0,454.5,230.5,454.0,246.0,453.5,262.5,453.0" stroke="black" stroke-width="2" fill="none" />
<polyline points="266.0,437.5,250.0,438.5,233.5,438.5,217.5,437.5,201.5,437.5,185.5,438.0,170.0,437.5,153.5,439.0,137.5,439.5,121.0,440.0,104.0,440.5,87.0,440.5,71.5,442.5,56.0,444.0,40.5,445.5,24.5,446.5,7.5,447.0" stroke="black" stroke-width="2" fill="none" />
<polyline points="5.0,435.5,21.0,419.5,37.0,404.0,52.5,389.0,68.5,374.0" stroke="black" stroke-width="2" fill="none" />
<polyline points="34.5,374.0,19.0,389.5,4.5,405.5" stroke="black" stroke-width="2" fill="none" />
<polyline points="5.0,397.5,21.0,397.0,37.5,396.5,54.5,396.5,71.0,396.0,86.5,395.5,103.0,395.0,119.5,393.0,135.5,391.5,151.5,389.5,168.5,388.0,184.0,388.0,199.5,389.0,215.5,389.0,231.0,388.5,247.0,388.0,263.0,387.0" stroke="black" stroke-width="2" fill="none" />
<polyline points="277.5,383.5,293.5,382.0,310.5,379.5,327.0,377.0,343.0,375.0,359.0,374.0,374.5,372.5" stroke="black" stroke-width="2" fill="none" />
<polyline points="375.5,439.5,359.0,439.5,343.0,440.0,327.5,439.5,312.0,439.0,296.5,438.5,281.0,439.0" stroke="black" stroke-width="2" fill="none" />
<polyline points="278.5,442.5,296.5,450.5,316.0,458.0,336.5,466.0,356.5,474.0" stroke="black" stroke-width="2" fill="none" />
<polyline points="298.0,446.5,281.5,446.5" stroke="black" stroke-width="2" fill="none" />
<polyline points="275.0,440.0,282.5,444.0,291.0,447.0,298.5,450.5,306.0,454.0,314.0,458.5,322.0,461.0,330.0,464.5,338.0,467.5,346.0,471.0,354.5,475.0" stroke="black" stroke-width="2" fill="none" />
<polyline points="376.5,426.0,359.5,426.5,344.0,426.0,328.0,425.0,311.5,424.5,295.5,424.0,280.5,424.0" stroke="black" stroke-width="2" fill="none" />
<polyline points="277.0,409.5,294.0,408.5,310.0,409.0,326.5,409.0,344.5,409.5,361.5,410.0,378.5,409.5" stroke="black" stroke-width="2" fill="none" />
<polyline points="374.5,394.0,358.5,396.0,342.0,395.5,326.0,395.5,310.0,395.5,293.5,395.5,277.0,395.0" stroke="black" stroke-width="2" fill="none" />
<polyline points="261.0,407.5,245.5,422.5,230.0,439.5" stroke="black" stroke-width="2" fill="none" />
<polyline points="246.0,401.5,262.5,401.0" stroke="black" stroke-width="2" fill="none" />
<polyline points="261.0,386.5,244.5,387.0" stroke="black" stroke-width="2" fill="none" />
<polyline points="244.5,369.5,260.5,369.5" stroke="black" stroke-width="2" fill="none" />
<polyline points="260.5,372.0,244.5,373.5,229.0,374.0,214.5,375.0,199.5,374.5,184.0,373.5,168.0,374.0,152.0,374.5,135.5,375.5,119.0,376.5,102.0,376.5,86.0,377.5,70.0,378.0,53.5,378.5,36.5,379.0,19.0,379.0,3.0,379.5" stroke="black" stroke-width="2" fill="none" />
<polyline points="5.5,386.0,21.0,371.0,36.5,355.5,53.0,339.5" stroke="black" stroke-width="2" fill="none" />
<polyline points="88.5,342.0,72.0,357.0,55.5,372.0,40.5,387.0,26.0,402.0,10.5,417.5" stroke="black" stroke-width="2" fill="none" />
<polyline points="7.5,414.0,23.5,413.5,40.0,413.0,56.5,412.0,73.0,411.0,89.0,409.5,105.0,408.5,121.0,407.5,137.0,406.0,154.0,404.5,170.0,403.0,186.0,402.5,201.5,402.0,216.5,402.0,231.5,402.0,247.5,401.5,264.0,402.0" stroke="black" stroke-width="2" fill="none" />
<polyline points="263.5,419.5,247.0,420.5,231.5,420.0,217.0,419.0,201.5,418.5,185.0,418.0,169.5,418.5,153.0,419.0,137.0,421.0,120.5,423.0,104.0,424.5,88.0,426.0,71.5,427.0,54.5,428.5,38.0,429.0,22.5,429.5,6.0,430.0" stroke="black" stroke-width="2" fill="none" />
<polyline points="20.0,421.5,35.5,420.5" stroke="black" stroke-width="2" fill="none" />
<polyline points="40.5,449.0,25.0,449.5" stroke="black" stroke-width="2" fill="none" />
<polyline points="40.0,465.5,23.0,465.5,6.5,466.0" stroke="black" stroke-width="2" fill="none" />
<polyline points="7.0,478.5,23.0,478.0" stroke="black" stroke-width="2" fill="none" />
<polyline points="4.5,487.5,21.0,471.0,37.0,455.0,52.5,439.0,68.5,423.5" stroke="black" stroke-width="2" fill="none" />
<polyline points="37.0,386.0,20.5,386.5" stroke="black" stroke-width="2" fill="none" />
<polyline points="11.0,332.5,26.0,331.0,40.5,330.0,56.5,329.0,73.5,328.5,90.0,328.5,105.5,327.5,122.0,326.5,139.0,325.5,156.0,325.5,172.0,325.5,188.0,325.0,204.0,324.5,220.0,324.0,236.5,323.5,252.5,322.5,267.0,322.5" stroke="black" stroke-width="2" fill="none" />
<polyline points="274.5,331.5,282.5,328.5,290.0,326.0,298.0,324.0,306.0,321.0,310.0,310.0,294.0,317.0,290.0,321.5,300.0,318.0,303.0,311.0,310.0,309.0,318.0,308.0,326.0,301.0,332.5,300.5,340.5,297.5" stroke="black" stroke-width="2" fill="none" />
<polyline points="343.0,297.0,333.0,305.0,326.0,305.0,318.0,306.5,309.5,312.5,319.5,315.5,326.5,311.5,335.0,303.5,343.5,296.5,351.5,295.0,361.5,288.0,364.5,292.0,373.5,284.0" stroke="black" stroke-width="2" fill="none" />
<polyline points="374.0,279.0,369.0,287.0,375.0,290.0,376.0,298.0,376.5,306.0,377.0,314.5,377.0,322.5,376.5,330.0,377.5,338.0,377.5,346.5,377.5,354.5,378.5,362.5,379.0,370.5,380.5,378.5,382.0,387.0,382.0,395.5,383.5,403.5,383.5,412.0,384.0,420.0,385.5,428.0,385.5,435.5,386.0,443.5,385.5,451.5,385.5,460.0,386.5,468.0,387.5,475.5,389.0,483.5,389.0,491.5,389.0,499.0,390.5,507.0,390.5,515.0,389.5,523.0,391.5,527.5,392.0,536.5" stroke="black" stroke-width="2" fill="none" />
<polyline points="367.0,601.5,371.0,594.5,371.5,586.5,369.5,578.5,369.5,570.5,368.0,562.0,366.5,554.0,365.5,546.0,365.5,538.0,365.0,530.0,364.0,521.5,361.5,513.0,361.5,504.5,343.5,496.5,324.5,488.5,316.0,480.5,315.0,479.0,313.5,472.0,309.5,468.0,302.0,469.0,294.5,472.0,287.0,472.0,279.0,469.0,271.0,467.5" stroke="black" stroke-width="2" fill="none" />
<polyline points="289.5,492.5,279.5,500.5,270.0,508.5,270.5,516.5,269.5,524.5,270.0,532.5,271.0,540.0,271.0,548.0,271.0,556.0,269.5,564.5,268.5,572.5,268.5,580.5,268.5,588.0,269.5,596.0,262.0,604.0,265.0,617.5" stroke="black" stroke-width="2" fill="none" />
<polyline points="232.5,526.0,223.0,526.0,205.0,518.0,188.5,510.0,171.5,502.0,162.5,497.5,142.5,490.0,142.5,482.5,143.0,475.0,142.0,467.0,144.0,459.5,144.0,451.5,144.0,443.0,146.0,434.5,146.0,426.5,147.0,418.0,146.5,410.0,147.5,401.5,148.0,394.0,148.0,386.0,148.0,377.5,150.0,369.5,150.0,361.0,150.5,353.0,151.5,345.0,152.5,337.0,152.5,329.0,153.5,321.5,154.5,313.5,155.5,305.5,156.0,303.0" stroke="black" stroke-width="2" fill="none" />
<polyline points="158.5,304.0,157.5,312.0,156.5,320.0,155.5,329.0,159.5,334.0,160.0,339.0,156.0,347.0,158.0,352.0,164.0,360.0,158.0,368.0,154.0,378.0,160.5,385.5,160.5,385.5" stroke="black" stroke-width="2" fill="none" />
<polyline points="148.5,325.5,164.0,310.5,180.0,294.5,196.0,279.0" stroke="black" stroke-width="2" fill="none" />
<polyline points="201.0,282.5,184.0,283.5,168.0,284.0,152.5,284.0,138.0,284.0,123.0,284.5" stroke="black" stroke-width="2" fill="none" />
<polyline points="134.0,277.5,151.0,262.5" stroke="black" stroke-width="2" fill="none" />
<polyline points="153.0,265.5,137.5,265.0,121.5,264.5" stroke="black" stroke-width="2" fill="none" />
<polyline points="131.0,264.5,139.0,258.5,147.0,257.0,155.0,255.0,163.0,253.5,171.0,252.5,179.5,249.5,187.5,247.5,195.5,246.0,203.5,244.0,211.5,241.5,219.0,238.0,227.0,236.0,235.0,233.0,243.0,230.5,251.0,227.5,259.5,228.5,267.5,231.5,276.0,234.5,284.0,237.0,292.0,239.0,300.0,242.0,308.0,244.0,316.0,247.0,324.0,249.0,332.0,251.5,340.0,253.5,347.5,255.5,355.5,258.5,363.5,260.0,371.5,263.0,379.5,265.0,387.5,268.0" stroke="black" stroke-width="2" fill="none" />
<polyline points="386.5,256.5,403.5,255.5,420.5,254.0,437.0,253.0" stroke="black" stroke-width="2" fill="none" />
<polyline points="384.0,275.0,376.0,278.0,368.0,281.5,359.5,284.0,351.5,286.5,343.5,289.0,335.0,291.5,327.0,294.5,319.0,297.0,311.0,300.0,303.5,302.0,295.5,306.0,287.5,308.0,279.0,311.0,271.0,313.5,263.0,309.5,255.0,306.5,247.0,303.5,239.0,301.5,231.0,298.0,223.0,295.0,215.5,293.0,207.5,290.0,199.0,287.0,191.0,284.0,182.5,282.5,174.5,279.0,166.5,276.0,158.5,272.5,151.0,269.5,143.0,266.5,135.0,263.5" stroke="black" stroke-width="2" fill="none" />
<polyline points="136.0,265.5,159.0,273.5" stroke="black" stroke-width="2" fill="none" />
<polyline points="146.5,272.5,130.0,273.0" stroke="black" stroke-width="2" fill="none" />
<polyline points="132.0,267.0,140.0,274.0" stroke="black" stroke-width="2" fill="none" />
<polyline points="142.5,260.0,131.5,267.5,139.5,275.5,143.5,283.5,141.0,292.0,142.0,300.0,140.0,308.0,140.5,315.5,139.5,323.5,140.5,331.5,138.5,339.5,138.5,347.5,137.5,355.5,137.5,363.5,136.5,371.5,135.5,379.5,135.0,387.5,134.0,395.0,134.0,403.0,133.5,411.0,134.5,419.0,133.5,427.0,132.0,435.5,131.0,443.0,131.5,451.0,130.5,458.5,130.0,467.0,129.0,474.5" stroke="black" stroke-width="2" fill="none" />
<polyline points="149.0,462.5,148.0,460.5,147.0,463.5,151.5,457.0,149.5,449.0,150.5,449.0,149.5,455.0" stroke="black" stroke-width="2" fill="none" />
<polyline points="147.0,491.5,154.5,494.5,162.5,498.5,170.5,502.0,179.0,505.0,187.5,509.0,195.5,513.0,203.5,517.5,211.5,521.0,219.5,524.0,227.0,528.0,235.5,530.0" stroke="black" stroke-width="2" fill="none" />
<polyline points="142.5,521.0,143.0,514.0,141.0,506.0" stroke="black" stroke-width="2" fill="none" />
<polyline points="138.5,506.0,139.5,514.0,137.5,522.0,142.0,524.0,146.0,533.0,148.0,541.0,139.0,552.0,142.0,557.5,145.0,561.0,142.0,565.0,143.5,576.5,140.5,584.5,137.0,587.0,141.0,576.0" stroke="black" stroke-width="2" fill="none" />
<polyline points="133.5,610.0,133.5,602.0,133.5,594.0,134.0,586.0,135.0,578.0,134.0,570.5,136.5,562.5,136.5,554.5,137.5,546.5,137.5,538.5,138.5,530.5,137.5,532.5" stroke="black" stroke-width="2" fill="none" />
<polyline points="103.5,486.0,88.5,487.5" stroke="black" stroke-width="2" fill="none" />
<polyline points="151.0,322.5,167.0,322.5,184.0,322.5" stroke="black" stroke-width="2" fill="none" />
<polyline points="181.0,311.0,203.0,318.5" stroke="black" stroke-width="2" fill="none" />
<polyline points="198.0,312.5,213.5,297.5" stroke="black" stroke-width="2" fill="none" />
<polyline points="201.0,306.5,184.5,308.0,169.0,308.5,152.5,309.5,135.5,309.0,119.5,309.0,104.5,309.5,89.0,310.0,73.0,310.0,56.0,310.0,39.5,311.0,24.0,312.5,8.5,314.0" stroke="black" stroke-width="2" fill="none" />
<polyline points="3.5,297.5,19.5,296.5,36.5,295.5,53.5,295.0,70.0,294.5,85.0,295.0,101.0,295.0,117.5,295.0,133.0,296.0,148.0,296.5,164.0,296.5,179.5,295.5,195.5,295.0,211.5,295.0,228.0,294.5,245.0,294.5" stroke="black" stroke-width="2" fill="none" />
<polyline points="248.0,310.0,232.0,325.0" stroke="black" stroke-width="2" fill="none" />
<polyline points="246.5,326.0,263.0,310.5" stroke="black" stroke-width="2" fill="none" />
<polyline points="282.0,348.0,297.5,347.5,313.5,346.5,329.0,345.5,343.5,345.0,358.5,344.0,373.5,343.5" stroke="black" stroke-width="2" fill="none" />
<polyline points="325.0,311.0,317.0,315.0,309.0,320.0" stroke="black" stroke-width="2" fill="none" />
<polyline points="273.5,352.0,281.5,356.0,289.0,359.5,297.0,362.5,304.5,365.5,312.0,367.5,320.5,371.5,328.5,373.0,336.5,375.5,345.0,378.5" stroke="black" stroke-width="2" fill="none" />
<polyline points="354.5,392.5,346.5,387.5,338.5,384.5,330.5,381.5,322.5,378.5,314.0,375.5,306.0,372.5,298.5,369.5,291.0,366.0,283.0,363.0,275.0,360.0" stroke="black" stroke-width="2" fill="none" />
<polyline points="276.5,363.5,299.0,371.5" stroke="black" stroke-width="2" fill="none" />
<polyline points="298.0,364.0,277.0,356.0" stroke="black" stroke-width="2" fill="none" />
<polyline points="275.5,272.0,267.5,270.0,259.5,268.0,251.5,265.0" stroke="black" stroke-width="2" fill="none" />
<polyline points="248.5,264.5,247.5,264.0" stroke="black" stroke-width="2" fill="none" />
<polyline points="265.5,251.5,273.5,253.5" stroke="black" stroke-width="2" fill="none" />
<polyline points="275.5,256.0,267.5,254.0" stroke="black" stroke-width="2" fill="none" />
<polyline points="282.5,201.0,297.5,200.0" stroke="black" stroke-width="2" fill="none" />
<polyline points="307.0,204.0,323.5,204.0" stroke="black" stroke-width="2" fill="none" />
<polyline points="328.0,184.5,344.0,184.5,359.5,184.0,375.5,184.0,393.0,184.0,409.5,183.0,426.0,183.5,442.0,184.5,458.5,184.5,475.0,184.0,491.5,183.5,506.5,183.0,521.0,183.0" stroke="black" stroke-width="2" fill="none" />
<polyline points="517.0,82.5,501.5,84.0,486.0,86.0,471.5,88.0,456.0,88.5,440.5,88.0,426.0,88.0,412.0,88.0,396.5,89.0" stroke="black" stroke-width="2" fill="none" />
<polyline points="359.0,77.5,375.5,76.5,392.0,76.0,408.5,75.0,425.5,73.5,441.0,73.5,456.0,73.5,470.5,73.0,485.5,72.5,501.0,72.5,517.0,72.0" stroke="black" stroke-width="2" fill="none" />
<polyline points="422.0,9.5,404.5,25.0" stroke="black" stroke-width="2" fill="none" />
<polyline points="291.0,31.5,307.0,31.5,324.0,30.5,341.0,29.5,358.0,29.0,375.5,29.5,391.0,28.0,407.0,27.0,423.0,26.5,439.0,26.0,455.0,26.0,471.0,25.5,487.0,24.5,503.0,23.0,518.5,23.0" stroke="black" stroke-width="2" fill="none" />
<polyline points="518.0,153.5,501.5,153.0,486.5,152.0,470.5,152.0,454.0,152.5,438.5,153.5,424.0,154.0,409.5,153.5,394.5,154.0,378.5,155.0,362.0,155.0" stroke="black" stroke-width="2" fill="none" />
<polyline points="343.0,168.0,358.0,168.0,374.0,168.0,390.5,168.0,407.5,167.5,425.0,166.5,441.0,166.5,456.0,167.5,471.5,168.5,486.5,169.0,501.5,168.5,518.0,167.0" stroke="black" stroke-width="2" fill="none" />
<polyline points="327.5,174.0,311.0,175.0" stroke="black" stroke-width="2" fill="none" />
<polyline points="292.5,156.0,308.0,155.5,325.0,156.0,341.0,156.5" stroke="black" stroke-width="2" fill="none" />
<polyline points="312.0,185.0,296.5,186.0,280.5,186.0" stroke="black" stroke-width="2" fill="none" />
<polyline points="279.0,171.5,295.5,171.0" stroke="black" stroke-width="2" fill="none" />
<polyline points="280.0,125.5,296.0,124.0,312.0,122.5,328.5,121.5,345.0,120.0,360.5,119.0,377.0,118.0,393.0,118.0,409.0,117.5,424.5,116.5,440.0,115.5,456.0,115.5,471.5,115.0,487.5,115.0,505.0,115.0,521.5,114.0" stroke="black" stroke-width="2" fill="none" />
<polyline points="423.0,102.5,406.5,102.5,392.0,103.0,377.0,103.0,362.0,102.5,346.5,102.5,331.0,103.5,313.5,105.5,296.5,106.5,280.0,106.5,264.5,107.0" stroke="black" stroke-width="2" fill="none" />
<polyline points="266.0,120.0,251.5,121.0,236.5,122.0,220.5,122.5" stroke="black" stroke-width="2" fill="none" />
<polyline points="218.5,138.0,234.0,137.5,250.0,136.5,266.0,136.0,282.0,136.0,298.5,136.5,314.5,135.0,330.0,135.0,346.0,134.5,362.5,132.5,378.5,132.0,393.5,131.0,408.5,131.0,424.0,131.0,439.5,130.5,455.5,129.5,471.0,129.5,486.5,128.0,502.0,127.0,518.0,127.0" stroke="black" stroke-width="2" fill="none" />
<polyline points="374.0,87.5,357.5,89.5,341.0,89.5,325.5,91.0,308.5,92.0,292.5,92.0,278.0,91.5,263.0,92.0,247.5,92.0,231.5,91.5,216.0,91.0,200.5,90.5,184.0,90.5" stroke="black" stroke-width="2" fill="none" />
<polyline points="219.0,106.5,234.0,106.0,249.5,106.0" stroke="black" stroke-width="2" fill="none" />
<polyline points="282.0,155.5,264.5,155.5,248.0,156.0,232.0,157.0,215.5,158.0" stroke="black" stroke-width="2" fill="none" />
<polyline points="203.5,187.0,219.0,186.5,234.5,186.0,249.5,186.0,264.5,186.5" stroke="black" stroke-width="2" fill="none" />
<polyline points="234.5,220.0,218.5,220.5" stroke="black" stroke-width="2" fill="none" />
<polyline points="231.5,201.5,217.0,202.0,200.5,203.0" stroke="black" stroke-width="2" fill="none" />
<polyline points="200.0,238.5,183.0,238.0" stroke="black" stroke-width="2" fill="none" />
<polyline points="168.5,244.0,151.5,244.0,135.5,244.0,119.5,244.5,103.0,245.0,87.0,246.0,69.5,247.5,52.5,249.0,35.5,251.0,19.5,253.0,4.0,253.5" stroke="black" stroke-width="2" fill="none" />
<polyline points="2.5,268.5,19.0,268.5,36.5,267.5,53.5,266.0,70.5,264.5,87.5,263.0,104.0,262.5" stroke="black" stroke-width="2" fill="none" />
<polyline points="55.0,214.5,38.5,230.0,22.5,246.0" stroke="black" stroke-width="2" fill="none" />
<polyline points="19.5,234.5,35.5,218.5" stroke="black" stroke-width="2" fill="none" />
<polyline points="40.5,201.5,56.5,185.5" stroke="black" stroke-width="2" fill="none" />
<polyline points="55.0,168.5,39.0,184.5,24.0,200.5" stroke="black" stroke-width="2" fill="none" />
<polyline points="6.5,202.5,23.0,201.5,39.5,201.5,55.5,201.0,71.0,199.5,86.5,198.5,104.0,199.0,121.0,200.0,137.0,201.0,152.0,200.5,167.5,200.5,184.0,200.0" stroke="black" stroke-width="2" fill="none" />
<polyline points="199.0,219.0,183.5,220.0,168.5,221.5" stroke="black" stroke-width="2" fill="none" />
<polyline points="150.0,225.5,134.5,226.5,118.5,228.5,103.0,230.5,87.5,232.5,71.5,233.5,55.5,233.0,39.5,233.0,23.0,234.5,6.5,235.0" stroke="black" stroke-width="2" fill="none" />
<polyline points="7.0,219.0,23.5,219.0,39.0,218.5,54.5,217.5,69.5,216.0,84.5,215.0,101.5,214.0,119.0,214.5,135.5,214.5,152.5,214.0" stroke="black" stroke-width="2" fill="none" />
<polyline points="182.5,181.0,165.5,181.0,150.0,182.0,134.5,183.5,119.0,185.0,102.5,185.5,86.0,185.5,70.5,186.5,55.5,187.5,40.5,187.5,25.5,187.0,9.0,188.0" stroke="black" stroke-width="2" fill="none" />
<polyline points="8.5,171.0,24.0,170.5,39.5,171.0,55.0,170.5,69.5,169.5,85.5,169.5,101.0,168.5,116.0,168.0,131.5,167.5,148.0,166.5,164.5,166.0,180.0,165.5,196.0,165.0,212.5,163.5,229.0,162.5,245.5,162.0,261.5,162.5" stroke="black" stroke-width="2" fill="none" />
<polyline points="199.0,156.0,183.0,156.5" stroke="black" stroke-width="2" fill="none" />
<polyline points="166.5,149.0,150.5,150.5,134.5,151.0,118.5,152.0,102.5,152.5,86.5,153.0,70.0,153.0,53.0,153.0,36.5,153.0,20.5,154.0,5.0,155.0" stroke="black" stroke-width="2" fill="none" />
<polyline points="7.5,152.5,25.0,137.0,43.0,122.5,59.5,107.5" stroke="black" stroke-width="2" fill="none" />
<polyline points="68.0,103.5,52.5,119.5" stroke="black" stroke-width="2" fill="none" />
<polyline points="54.5,91.5,38.5,106.5,22.5,121.0,6.5,136.0" stroke="black" stroke-width="2" fill="none" />
<polyline points="4.5,137.0,20.5,136.5,35.5,135.5,51.5,135.5,67.5,137.0,83.5,136.5,99.5,136.0,116.5,135.5,133.5,135.5,149.5,135.0,165.0,134.5,180.5,134.0,196.5,132.0" stroke="black" stroke-width="2" fill="none" />
<polyline points="147.5,69.0,163.0,53.0" stroke="black" stroke-width="2" fill="none" />
<polyline points="148.5,43.5,133.0,57.5" stroke="black" stroke-width="2" fill="none" />
<polyline points="132.5,61.0,149.0,60.0,165.5,58.5,182.5,57.5,200.0,57.0,216.5,57.0,232.5,57.0,249.0,57.0,266.0,56.5,282.5,56.0,298.5,55.5,314.5,55.0,330.0,53.5,345.5,53.0,361.5,53.0,377.5,53.0,393.0,52.0,410.0,51.5,426.5,51.5,442.0,52.0,458.5,52.0,475.0,50.0,490.5,48.0,505.0,46.5,520.0,45.5" stroke="black" stroke-width="2" fill="none" />
<polyline points="346.0,66.0,331.0,66.5,315.0,68.0,298.0,69.0,281.5,69.5,264.5,69.0,247.5,69.0,231.0,68.0,213.0,67.5,195.0,67.0,178.5,67.5,163.0,68.0,146.0,68.0,129.5,68.5,114.0,69.0,99.5,70.0,84.5,71.5,68.5,70.5,52.5,70.5,36.0,70.5,19.5,71.5,3.5,72.0" stroke="black" stroke-width="2" fill="none" />
<polyline points="6.5,71.5,23.0,55.5,39.5,39.5" stroke="black" stroke-width="2" fill="none" />
<polyline points="37.0,24.0,52.0,9.5" stroke="black" stroke-width="2" fill="none" />
<polyline points="39.5,4.0,23.0,19.5,6.0,36.0" stroke="black" stroke-width="2" fill="none" />
<polyline points="10.5,28.0,26.0,27.5,42.0,27.0,58.0,25.5,72.5,23.5,88.5,22.0,104.0,21.5,120.0,21.0,135.5,21.0,150.5,20.5,166.5,20.0,182.5,20.0,198.5,19.5,214.0,19.5,229.5,20.0,245.0,20.0,262.0,20.0,278.5,19.0" stroke="black" stroke-width="2" fill="none" />
<polyline points="101.5,11.0,86.0,26.5" stroke="black" stroke-width="2" fill="none" />
<polyline points="71.5,19.5,87.5,5.0" stroke="black" stroke-width="2" fill="none" />
<polyline points="102.5,41.5,86.5,57.5" stroke="black" stroke-width="2" fill="none" />
<polyline points="70.0,54.0,54.0,69.5" stroke="black" stroke-width="2" fill="none" />
<polyline points="37.0,59.0,20.5,74.5,4.5,90.0" stroke="black" stroke-width="2" fill="none" />
<polyline points="4.0,92.0,21.0,91.0,37.0,89.5,52.5,88.5,69.0,88.5,84.5,88.5,100.5,88.0,116.0,87.5,132.5,87.0,149.5,86.5,166.0,86.0" stroke="black" stroke-width="2" fill="none" />
<polyline points="103.0,73.5,87.0,89.5" stroke="black" stroke-width="2" fill="none" />
<polyline points="22.0,86.0,6.5,101.5" stroke="black" stroke-width="2" fill="none" />
<polyline points="3.5,112.5,20.0,112.5,35.5,111.5,52.0,110.5,69.5,109.5,86.0,107.5,102.5,108.0,118.5,107.0,134.5,105.5,150.0,104.0,166.5,103.0,182.0,102.5,197.5,102.0" stroke="black" stroke-width="2" fill="none" />
<polyline points="197.5,117.0,181.0,117.0,165.0,117.5,149.0,117.5,133.0,118.0,116.0,118.5,98.5,118.5,82.0,119.0,66.5,120.0,51.5,120.5,36.0,121.0,19.5,122.5,4.0,122.5" stroke="black" stroke-width="2" fill="none" />
<polyline points="22.5,150.0,6.5,165.5" stroke="black" stroke-width="2" fill="none" />
<polyline points="22.0,167.0,38.5,152.0" stroke="black" stroke-width="2" fill="none" />
<polyline points="10.0,61.0,25.5,60.0,41.0,59.0,56.5,58.0,72.0,56.5,87.0,56.5,102.5,55.0,118.0,53.0" stroke="black" stroke-width="2" fill="none" />
<polyline points="20.5,33.5,5.5,49.5" stroke="black" stroke-width="2" fill="none" />
<polyline points="8.5,46.0,24.0,44.5,40.5,44.0,56.0,44.0,71.5,44.0,87.5,43.5,103.0,42.5,120.0,41.5,137.0,40.5,153.0,39.5,168.5,39.0,184.5,38.5,201.0,38.0,216.5,38.0,232.0,38.0,248.0,37.5,263.5,36.0,279.5,35.0,295.5,34.0,312.0,33.5,328.5,33.0,344.0,33.0,359.5,33.0,375.5,32.0,392.0,30.5,408.0,29.5,423.5,29.5,439.5,28.0,455.0,27.0,469.5,25.5,485.0,25.5,501.0,25.0,518.0,25.5" stroke="black" stroke-width="2" fill="none" />
<polyline points="522.5,-5.0,507.0,-4.5,491.5,-4.0,474.5,-3.5,457.5,-3.5,440.5,-3.0,423.0,-2.5,406.5,-1.5,389.0,0.0,372.0,2.0,355.5,3.0,339.0,3.5,323.0,4.5,307.5,3.5,293.0,3.5,277.5,3.5,261.0,4.0,245.5,3.5,229.0,3.5,213.0,2.5,197.5,2.0,183.0,2.0,167.0,2.0,150.0,3.0,134.0,4.5,117.5,6.0,101.0,7.5,85.0,8.0,70.0,10.0,55.5,11.5,41.0,12.5,26.0,12.5,9.5,12.5" stroke="black" stroke-width="2" fill="none" />
<polyline points="9.0,17.5,25.0,1.0" stroke="black" stroke-width="2" fill="none" />
<polyline points="23.5,278.5,7.0,294.0" stroke="black" stroke-width="2" fill="none" />
<polyline points="5.0,279.5,21.0,279.0,37.5,279.0,53.5,279.0,69.0,279.0,85.5,278.5,101.5,278.0" stroke="black" stroke-width="2" fill="none" />
<polyline points="170.0,308.0,178.0,310.0,186.0,313.0,194.5,315.5,202.5,317.5,210.5,320.5,218.5,324.0,226.5,327.0,234.5,330.5" stroke="black" stroke-width="2" fill="none" />
<polyline points="237.5,301.0,214.5,293.0,192.0,285.5" stroke="black" stroke-width="2" fill="none" />
<polyline points="171.5,308.5,172.0,316.0,170.5,324.5,169.0,332.5,168.0,340.5,167.5,348.5,167.0,356.5,166.0,364.5,166.0,372.0,164.5,380.0" stroke="black" stroke-width="2" fill="none" />
<polyline points="202.5,244.5,211.0,246.0,219.0,244.0" stroke="black" stroke-width="2" fill="none" />
<polyline points="298.5,303.0,322.5,295.5,346.5,287.5,370.0,280.0,388.0,272.5,374.0,264.5,349.0,256.5" stroke="black" stroke-width="2" fill="none" />
</svg>