<svg xmlns="http://www.w3.org/2000/svg" version="1.1"><polyline points="233.5,52.0,224.5,60.0,223.0,68.0,219.0,72.0,221.5,80.5,221.5,89.0,220.5,97.0,222.0,105.0,225.5,107.5,226.5,112.5,222.5,114.5,220.5,122.5" stroke="black" stroke-width="2" fill="none" />
<polyline points="218.0,120.5,234.0,105.0" stroke="black" stroke-width="2" fill="none" />
<polyline points="231.5,110.0,215.5,110.0" stroke="black" stroke-width="2" fill="none" />
<polyline points="219.5,112.5,217.5,120.5,218.5,128.5,221.5,136.5,222.0,144.0,223.5,150.0,221.5,151.0,227.5,158.5,221.5,161.5,225.0,166.5,230.0,171.0" stroke="black" stroke-width="2" fill="none" />
<polyline points="229.5,158.0,213.5,158.0" stroke="black" stroke-width="2" fill="none" />
<polyline points="213.5,163.0,229.0,148.5,244.5,133.0,261.0,117.5,276.5,102.0" stroke="black" stroke-width="2" fill="none" />
<polyline points="283.0,108.0,266.5,109.0" stroke="black" stroke-width="2" fill="none" />
<polyline points="269.0,116.5,273.0,108.5,268.5,116.0,265.5,124.0,263.0,132.0,254.5,144.0,246.5,148.0,238.0,156.0,240.0,158.0,233.0,163.5,227.0,171.5,224.0,173.5,226.0,178.5,223.0,186.5,217.0,189.5,217.0,197.5,215.0,205.0,213.0,213.0,208.0,217.5,210.5,225.5,209.0,229.0,211.5,234.0,214.5,238.0,222.5,237.5,230.5,228.5,238.5,224.0" stroke="black" stroke-width="2" fill="none" />
<polyline points="231.0,230.5,216.0,246.0" stroke="black" stroke-width="2" fill="none" />
<polyline points="204.5,244.0,205.0,233.5,200.5,227.5,193.0,225.5,194.0,219.5,200.0,211.5,194.5,209.0,192.5,202.0,194.5,194.0,205.0,186.5,202.0,185.5,206.0,175.0,197.5,179.0" stroke="black" stroke-width="2" fill="none" />
<polyline points="199.0,185.0,182.5,201.0,165.5,216.5" stroke="black" stroke-width="2" fill="none" />
<polyline points="169.0,222.5,166.0,214.5,163.0,209.5,155.0,221.0,156.0,231.0,148.0,232.0,144.0,233.0,136.5,226.5,134.5,239.5,130.5,233.5,117.5,231.0,116.5,226.0,121.5,219.0,123.0,211.0,117.0,205.0,125.5,203.5,132.5,201.0,136.5,193.0,144.5,187.0,138.5,179.0,147.0,170.5,142.0,162.5,147.0,160.0,146.0,152.0,142.0,143.5,132.5,140.5,117.5,132.0,116.5,124.0,130.5,116.5,128.0,108.5,130.5,103.0,127.0,94.5,127.5,90.5,119.5,87.0,111.5,89.0,103.5,98.5,95.5,101.5" stroke="black" stroke-width="2" fill="none" />
<polyline points="102.0,105.0,117.5,104.5,132.5,103.5" stroke="black" stroke-width="2" fill="none" />
<polyline points="134.5,106.5,118.0,122.5" stroke="black" stroke-width="2" fill="none" />
<polyline points="118.0,127.0,126.0,131.5,134.0,127.5,137.5,126.0,136.5,131.5,142.0,139.5" stroke="black" stroke-width="2" fill="none" />
<polyline points="135.5,137.5,119.5,153.0,103.5,169.0" stroke="black" stroke-width="2" fill="none" />
<polyline points="99.5,163.5,115.5,162.0" stroke="black" stroke-width="2" fill="none" />
<polyline points="119.0,152.5,103.5,152.5" stroke="black" stroke-width="2" fill="none" />
<polyline points="107.0,140.0,90.5,154.5,73.5,169.5" stroke="black" stroke-width="2" fill="none" />
<polyline points="73.0,164.5,89.0,163.5" stroke="black" stroke-width="2" fill="none" />
<polyline points="88.0,167.5,97.5,160.5,101.5,163.5,109.5,165.5,117.0,162.0" stroke="black" stroke-width="2" fill="none" />
<polyline points="118.5,152.5,110.5,151.5,104.5,155.5,96.5,152.5,86.5,151.5,78.5,151.5,73.0,150.0,67.0,152.0,59.5,150.5,59.0,143.5,51.0,141.0,41.0,138.0,41.0,130.0,31.0,136.0,23.0,133.5" stroke="black" stroke-width="2" fill="none" />
<polyline points="26.5,139.5,42.5,138.5" stroke="black" stroke-width="2" fill="none" />
<polyline points="41.5,135.0,24.5,150.0" stroke="black" stroke-width="2" fill="none" />
<polyline points="25.0,147.5,40.5,146.5" stroke="black" stroke-width="2" fill="none" />
<polyline points="44.5,145.0,52.5,145.0,59.0,144.5,53.0,152.5,53.0,160.5" stroke="black" stroke-width="2" fill="none" />
<polyline points="58.5,156.5,54.0,149.5,46.0,146.5" stroke="black" stroke-width="2" fill="none" />
<polyline points="42.5,132.0,44.5,140.0,51.0,148.0,49.0,155.5,57.5,161.5,56.5,163.5,64.5,155.5,77.0,158.0,85.0,158.0,87.0,159.0,95.0,157.5,103.0,157.5,110.5,159.5,117.5,155.5,125.5,159.0,130.5,162.0,138.5,162.0,146.5,158.0,154.5,155.0,162.5,150.0,172.5,145.5,179.5,137.5,182.0,137.5" stroke="black" stroke-width="2" fill="none" />
<polyline points="182.5,139.5,199.0,139.0,216.0,138.5,232.5,138.0,249.0,137.0,265.0,135.5,281.0,135.5" stroke="black" stroke-width="2" fill="none" />
<polyline points="282.0,136.5,286.0,130.0,282.0,138.0,285.0,137.0,292.5,126.0,300.5,124.5,308.0,121.0" stroke="black" stroke-width="2" fill="none" />
<polyline points="305.0,125.5,297.0,128.5" stroke="black" stroke-width="2" fill="none" />
<polyline points="294.0,128.5,291.0,128.5,286.5,136.5,285.5,139.5,277.5,149.5,272.0,159.5,275.0,163.0,277.0,158.0,279.0,161.5,289.0,152.5,285.5,154.0,282.0,159.5,290.0,158.5" stroke="black" stroke-width="2" fill="none" />
<polyline points="282.0,144.5,275.5,153.0,268.0,154.5,260.0,152.5" stroke="black" stroke-width="2" fill="none" />
<polyline points="262.5,150.0,270.5,147.0,278.5,138.0,286.0,127.0,281.0,133.5,276.0,141.5,266.0,149.5,269.0,156.0,254.0,163.5,256.0,165.5,251.5,177.0,251.5,179.5,246.0,187.5,235.0,193.5,231.0,201.0,225.0,209.0,225.0,213.5,224.0,222.0,222.0,230.0,227.0,211.5,229.5,215.0,236.5,210.0,240.0,202.5" stroke="black" stroke-width="2" fill="none" />
<polyline points="245.5,199.0,229.5,215.0" stroke="black" stroke-width="2" fill="none" />
<polyline points="235.5,220.5,219.0,221.5" stroke="black" stroke-width="2" fill="none" />
<polyline points="217.0,214.0,233.5,213.0" stroke="black" stroke-width="2" fill="none" />
<polyline points="218.5,206.5,234.0,206.0,250.5,204.5" stroke="black" stroke-width="2" fill="none" />
<polyline points="257.5,198.5,249.5,206.5,246.5,214.0,244.5,222.0,237.0,223.5,229.0,231.0" stroke="black" stroke-width="2" fill="none" />
<polyline points="215.5,231.5,200.0,247.0,184.5,262.0" stroke="black" stroke-width="2" fill="none" />
<polyline points="183.5,268.5,198.5,268.0" stroke="black" stroke-width="2" fill="none" />
<polyline points="201.0,263.0,184.5,278.0" stroke="black" stroke-width="2" fill="none" />
<polyline points="186.0,279.5,202.0,279.0" stroke="black" stroke-width="2" fill="none" />
<polyline points="197.5,282.0,182.0,297.0" stroke="black" stroke-width="2" fill="none" />
<polyline points="184.0,291.5,199.5,290.5" stroke="black" stroke-width="2" fill="none" />
<polyline points="194.0,295.0,189.5,289.5,187.5,281.5,182.5,284.5,181.5,270.5" stroke="black" stroke-width="2" fill="none" />
<polyline points="181.0,273.5,198.0,273.0" stroke="black" stroke-width="2" fill="none" />
<polyline points="212.0,269.0,212.0,261.0" stroke="black" stroke-width="2" fill="none" />
<polyline points="210.0,258.5,209.0,266.5" stroke="black" stroke-width="2" fill="none" />
<polyline points="199.5,276.0,199.5,268.0,200.0,260.0,197.0,257.0" stroke="black" stroke-width="2" fill="none" />
<polyline points="193.5,257.5,195.0,266.0" stroke="black" stroke-width="2" fill="none" />
<polyline points="200.0,274.0,192.0,272.5,191.0,277.0,190.5,271.0,187.0,263.0,185.0,255.0" stroke="black" stroke-width="2" fill="none" />
<polyline points="184.5,251.5,200.0,250.5" stroke="black" stroke-width="2" fill="none" />
<polyline points="198.5,251.0,190.5,255.0,192.0,263.0,192.5,271.0,191.5,279.0,196.5,281.0,201.5,284.5,200.5,292.5,195.5,300.5,193.5,308.5,194.5,316.5,195.5,319.5,193.0,327.5,196.0,331.5,197.0,339.5,204.5,335.0,203.5,337.5" stroke="black" stroke-width="2" fill="none" />
<polyline points="198.5,331.5,182.0,332.0" stroke="black" stroke-width="2" fill="none" />
<polyline points="182.0,331.0,199.0,315.0" stroke="black" stroke-width="2" fill="none" />
<polyline points="198.0,314.0,182.0,315.0" stroke="black" stroke-width="2" fill="none" />
<polyline points="184.5,302.5,200.5,301.5" stroke="black" stroke-width="2" fill="none" />
<polyline points="197.0,298.5,200.0,299.5,199.0,307.5,200.0,315.5,198.5,325.0,198.5,333.5,199.5,341.5,205.0,341.5" stroke="black" stroke-width="2" fill="none" />
<polyline points="204.0,329.0,201.0,328.5,193.5,325.5,187.5,341.0,178.0,344.5,178.0,335.0,176.0,334.0,174.5,324.0,174.5,316.0,175.5,305.5,177.5,298.0,178.5,290.5,174.0,282.5,175.5,274.5,175.0,266.5,180.0,260.0,173.5,257.0,175.5,251.0,172.0,246.0,178.0,235.0,177.0,226.0,177.5,217.5,176.5,209.5,168.0,206.5,163.0,202.5,171.0,197.5,173.0,189.5,170.0,180.5,179.0,176.0,176.5,176.0,179.0,168.5,173.0,163.0,173.0,160.0,165.0,163.0" stroke="black" stroke-width="2" fill="none" />
<polyline points="166.5,161.5,150.0,161.5" stroke="black" stroke-width="2" fill="none" />
<polyline points="151.5,158.5,167.0,157.5" stroke="black" stroke-width="2" fill="none" />
<polyline points="166.0,165.0,174.0,163.0,179.5,166.5" stroke="black" stroke-width="2" fill="none" />
<polyline points="171.5,165.0,155.0,181.0,138.0,197.0" stroke="black" stroke-width="2" fill="none" />
<polyline points="149.0,198.5,133.0,214.0,117.0,229.5" stroke="black" stroke-width="2" fill="none" />
<polyline points="124.5,236.5,126.5,229.0,125.5,221.0" stroke="black" stroke-width="2" fill="none" />
<polyline points="124.5,214.5,122.5,222.0,129.5,223.0,137.5,228.0,143.0,236.0" stroke="black" stroke-width="2" fill="none" />
<polyline points="149.0,232.5,165.5,232.0,181.5,231.0" stroke="black" stroke-width="2" fill="none" />
<polyline points="170.0,230.5,153.5,246.5" stroke="black" stroke-width="2" fill="none" />
<polyline points="152.0,248.5,167.5,248.5" stroke="black" stroke-width="2" fill="none" />
<polyline points="167.0,247.0,184.0,231.5,200.0,215.5" stroke="black" stroke-width="2" fill="none" />
<polyline points="211.0,217.5,227.5,202.5,244.0,186.5" stroke="black" stroke-width="2" fill="none" />
<polyline points="235.5,185.5,220.0,201.5" stroke="black" stroke-width="2" fill="none" />
<polyline points="220.0,202.0,228.5,193.0,236.0,185.0,244.0,183.0,251.5,171.0,256.5,176.5,264.5,174.5,263.0,159.5" stroke="black" stroke-width="2" fill="none" />
<polyline points="243.5,149.0,259.5,134.0,275.0,118.5" stroke="black" stroke-width="2" fill="none" />
<polyline points="268.0,118.5,283.5,117.5" stroke="black" stroke-width="2" fill="none" />
<polyline points="280.5,119.5,264.5,120.5,248.0,122.0,232.0,122.5" stroke="black" stroke-width="2" fill="none" />
<polyline points="230.0,129.0,245.5,128.5,261.0,127.5" stroke="black" stroke-width="2" fill="none" />
<polyline points="259.5,127.0,264.5,110.0,272.5,105.0,280.5,102.5" stroke="black" stroke-width="2" fill="none" />
<polyline points="279.5,98.5,264.5,99.5" stroke="black" stroke-width="2" fill="none" />
<polyline points="259.5,99.5,275.0,84.0" stroke="black" stroke-width="2" fill="none" />
<polyline points="281.5,91.5,265.0,92.0" stroke="black" stroke-width="2" fill="none" />
<polyline points="255.0,91.5,263.0,94.0,271.5,95.5,279.5,95.5,288.0,98.0,296.0,82.0,303.0,85.0" stroke="black" stroke-width="2" fill="none" />
<polyline points="299.5,88.5,307.5,86.0,299.5,90.0,293.5,90.5,291.5,98.5" stroke="black" stroke-width="2" fill="none" />
<polyline points="291.5,93.0,293.0,86.0,290.0,94.5,284.0,102.5,277.5,108.5,272.5,111.5,274.0,117.5,271.5,121.0,270.5,129.0,265.5,137.0,261.5,139.0,262.5,143.0,263.5,129.0,269.5,125.0,277.0,112.5,281.0,106.5,288.0,107.5" stroke="black" stroke-width="2" fill="none" />
<polyline points="279.0,80.0,263.5,81.0" stroke="black" stroke-width="2" fill="none" />
<polyline points="250.5,88.5,234.0,88.0" stroke="black" stroke-width="2" fill="none" />
<polyline points="236.0,87.5,233.5,95.5,233.0,104.0,237.0,116.0,242.0,109.0,250.0,108.0" stroke="black" stroke-width="2" fill="none" />
<polyline points="245.0,119.0,229.5,134.5,214.0,150.0" stroke="black" stroke-width="2" fill="none" />
<polyline points="216.5,151.5,232.0,150.5" stroke="black" stroke-width="2" fill="none" />
<polyline points="231.5,145.0,247.5,144.5,263.5,143.0" stroke="black" stroke-width="2" fill="none" />
<polyline points="272.5,134.0,266.5,142.0,265.5,153.5,257.5,158.0,260.5,168.0,263.5,170.0,262.5,175.0,257.0,179.0,265.0,176.0" stroke="black" stroke-width="2" fill="none" />
<polyline points="262.5,186.0,245.5,185.5,228.5,186.5,212.5,187.5" stroke="black" stroke-width="2" fill="none" />
<polyline points="211.0,193.5,213.0,189.5,212.5,199.0,212.0,208.5,206.5,215.5,208.5,213.5,221.5,211.5,229.0,198.0,239.5,197.5,244.0,199.0,242.0,207.0,236.0,213.5,232.0,221.5,232.0,220.5,244.5,209.5,255.5,199.5,263.5,197.5,271.0,201.0,278.0,209.0,295.0,217.0" stroke="black" stroke-width="2" fill="none" />
<polyline points="297.0,206.5,281.0,206.5,264.0,206.5" stroke="black" stroke-width="2" fill="none" />
<polyline points="268.0,204.5,283.5,203.5,299.0,201.5" stroke="black" stroke-width="2" fill="none" />
<polyline points="298.0,197.5,282.0,213.0,266.5,229.5" stroke="black" stroke-width="2" fill="none" />
<polyline points="263.0,219.0,279.0,218.5" stroke="black" stroke-width="2" fill="none" />
<polyline points="270.0,213.0,272.0,221.0,266.5,228.5,257.5,236.5,261.0,234.0,269.0,228.0" stroke="black" stroke-width="2" fill="none" />
<polyline points="264.0,212.5,279.0,197.0,295.0,181.5" stroke="black" stroke-width="2" fill="none" />
<polyline points="293.5,188.5,277.0,188.5" stroke="black" stroke-width="2" fill="none" />
<polyline points="278.0,197.5,294.0,197.0" stroke="black" stroke-width="2" fill="none" />
<polyline points="286.5,203.5,294.5,204.5,303.0,203.5,311.0,199.5" stroke="black" stroke-width="2" fill="none" />
<polyline points="316.0,200.5,332.0,200.0" stroke="black" stroke-width="2" fill="none" />
<polyline points="324.0,217.5,307.5,232.5" stroke="black" stroke-width="2" fill="none" />
<polyline points="313.0,217.5,328.5,217.0" stroke="black" stroke-width="2" fill="none" />
<polyline points="313.5,213.0,299.5,209.5,296.5,211.0,296.5,202.5,309.5,198.5,302.5,190.0,313.0,185.5,307.0,183.5,307.0,193.0,299.5,188.0,292.0,192.5,283.0,192.5,287.5,186.5,288.5,179.0,296.5,171.0,291.0,177.5,284.5,189.5,281.5,200.0,273.5,200.0,260.5,195.0,252.5,189.0,251.5,187.0,245.5,197.0,244.5,192.0,237.0,196.0,229.0,207.0,222.0,220.5,221.5,233.5,221.0,232.0,215.0,228.0,219.0,223.5,223.0,220.5,225.0,215.5,225.0,207.5,226.0,199.0,234.5,191.0,238.5,183.0,245.0,176.5,251.5,169.5,252.0,162.0,254.0,154.0,257.0,144.0,257.0,136.0,258.5,128.0,262.0,120.0,263.0,112.0,272.5,101.0,285.0,100.0,279.5,89.5,283.5,81.5,286.0,73.5,282.0,69.0,278.0,72.5,270.0,71.5,266.0,83.5,267.0,91.0,258.0,83.0,253.5,82.0,255.0,74.0,257.0,72.5,256.5,64.5,253.5,59.5" stroke="black" stroke-width="2" fill="none" />
<polyline points="251.5,57.5,236.0,58.5" stroke="black" stroke-width="2" fill="none" />
<polyline points="243.5,58.0,227.5,73.0" stroke="black" stroke-width="2" fill="none" />
<polyline points="218.0,70.0,226.0,74.0,234.0,80.0,242.5,73.0,244.5,82.0,241.5,90.5,249.0,100.5,248.0,102.5,253.5,86.5,261.5,90.0,269.5,94.0,277.5,91.0" stroke="black" stroke-width="2" fill="none" />
<polyline points="274.5,101.0,264.0,96.0,261.5,83.0,259.5,75.0,260.0,67.5,256.5,64.5" stroke="black" stroke-width="2" fill="none" />
<polyline points="253.5,73.5,237.5,73.0" stroke="black" stroke-width="2" fill="none" />
<polyline points="242.5,77.0,248.5,76.0,253.0,77.0,261.0,70.5,267.5,66.5,275.5,64.5,283.5,66.5" stroke="black" stroke-width="2" fill="none" />
<polyline points="278.0,70.0,268.5,78.0,260.5,80.5,273.5,79.0" stroke="black" stroke-width="2" fill="none" />
<polyline points="265.0,59.5,273.0,56.5" stroke="black" stroke-width="2" fill="none" />
<polyline points="246.5,51.0,247.0,47.0,247.0,49.0,251.0,61.5,251.0,69.5,249.0,77.5,257.5,86.5,250.5,94.5,242.5,97.5,243.5,105.0,241.0,113.0,239.0,121.0,239.0,121.5" stroke="black" stroke-width="2" fill="none" />
<polyline points="234.0,125.5,232.5,117.5,229.5,109.5,225.5,106.5,217.5,116.5" stroke="black" stroke-width="2" fill="none" />
<polyline points="217.5,126.0,201.0,125.5" stroke="black" stroke-width="2" fill="none" />
<polyline points="199.0,121.0,190.5,123.0,182.5,118.0" stroke="black" stroke-width="2" fill="none" />
<polyline points="184.0,117.0,200.0,115.5" stroke="black" stroke-width="2" fill="none" />
<polyline points="197.0,106.0,182.0,121.5,165.5,137.0" stroke="black" stroke-width="2" fill="none" />
<polyline points="159.5,136.0,162.5,136.5,167.5,139.5,175.5,139.5,180.5,138.0,186.5,134.0,188.0,132.0,196.5,134.5" stroke="black" stroke-width="2" fill="none" />
<polyline points="196.0,137.0,179.5,152.5" stroke="black" stroke-width="2" fill="none" />
<polyline points="182.5,146.5,199.5,145.5" stroke="black" stroke-width="2" fill="none" />
<polyline points="193.5,135.5,189.0,128.0,178.0,132.0,173.5,121.5,165.5,127.5" stroke="black" stroke-width="2" fill="none" />
<polyline points="167.0,128.0,180.5,132.0,177.5,140.0,181.0,141.0,181.0,148.5,177.0,154.5,168.0,159.5,167.0,165.5,163.0,171.5,173.5,177.0,170.5,185.0,164.5,185.0,157.0,189.0,164.5,183.5,175.5,186.0,181.0,194.0,189.0,182.5,197.5,178.5,202.5,192.5,210.5,187.0,221.0,186.0,233.5,173.0,236.5,181.5,231.5,189.5,223.5,197.0,218.5,205.0,215.5,217.0,208.0,222.5,212.0,220.0" stroke="black" stroke-width="2" fill="none" />
<polyline points="203.5,233.5,219.0,233.5,234.5,234.0" stroke="black" stroke-width="2" fill="none" />
<polyline points="232.5,240.0,217.5,240.0,201.5,241.0" stroke="black" stroke-width="2" fill="none" />
<polyline points="201.0,240.0,193.0,238.0" stroke="black" stroke-width="2" fill="none" />
<polyline points="193.0,238.5,197.0,231.5" stroke="black" stroke-width="2" fill="none" />
<polyline points="201.5,214.5,185.5,215.0" stroke="black" stroke-width="2" fill="none" />
<polyline points="183.5,218.0,192.5,224.0" stroke="black" stroke-width="2" fill="none" />
<polyline points="180.5,238.5,165.0,239.0,149.0,240.0" stroke="black" stroke-width="2" fill="none" />
<polyline points="160.5,230.0,162.0,238.5,158.0,245.5,151.5,251.5,150.5,259.5,144.5,262.0,145.5,270.0" stroke="black" stroke-width="2" fill="none" />
<polyline points="148.5,265.0,156.5,259.0,157.0,253.0" stroke="black" stroke-width="2" fill="none" />
<polyline points="165.5,251.0,167.5,245.0,170.0,248.0" stroke="black" stroke-width="2" fill="none" />
<polyline points="176.0,265.5,181.5,272.5,184.5,281.0,185.5,289.0,187.5,297.0,188.5,305.0,185.5,311.0,184.5,315.5" stroke="black" stroke-width="2" fill="none" />
<polyline points="176.5,314.0,178.0,302.5,176.0,299.5" stroke="black" stroke-width="2" fill="none" />
<polyline points="182.0,303.0,177.0,291.5,175.0,282.5" stroke="black" stroke-width="2" fill="none" />
<polyline points="178.5,277.0,179.5,274.0,178.5,282.0,180.5,287.0,179.0,294.0,182.0,298.5,179.5,301.0,182.5,309.5,182.0,318.0,182.0,326.5,182.0,334.5" stroke="black" stroke-width="2" fill="none" />
<polyline points="182.0,343.0,166.5,358.0" stroke="black" stroke-width="2" fill="none" />
<polyline points="164.5,363.0,180.0,363.0" stroke="black" stroke-width="2" fill="none" />
<polyline points="179.0,362.0,163.5,377.0" stroke="black" stroke-width="2" fill="none" />
<polyline points="166.5,379.0,182.0,379.0" stroke="black" stroke-width="2" fill="none" />
<polyline points="181.5,378.0,165.5,393.5" stroke="black" stroke-width="2" fill="none" />
<polyline points="169.0,398.0,185.0,398.0,200.5,398.5,216.5,398.0" stroke="black" stroke-width="2" fill="none" />
<polyline points="223.0,385.5,230.5,384.5,238.5,385.5" stroke="black" stroke-width="2" fill="none" />
<polyline points="245.0,380.0,229.5,380.5" stroke="black" stroke-width="2" fill="none" />
<polyline points="229.0,378.5,237.0,378.0" stroke="black" stroke-width="2" fill="none" />
<polyline points="241.0,367.0,249.0,379.5" stroke="black" stroke-width="2" fill="none" />
<polyline points="252.0,394.5,244.0,400.5" stroke="black" stroke-width="2" fill="none" />
<polyline points="245.0,401.5,247.0,409.5,246.0,417.0,246.5,406.0,258.5,409.0,265.0,415.0" stroke="black" stroke-width="2" fill="none" />
<polyline points="262.5,412.5,279.0,411.5,295.5,411.0,312.0,410.5,328.0,409.5,343.5,408.5,360.0,407.5,376.5,406.0" stroke="black" stroke-width="2" fill="none" />
<polyline points="393.0,410.5,409.0,409.5" stroke="black" stroke-width="2" fill="none" />
<polyline points="407.0,424.0,390.0,440.0,374.0,455.0,358.5,470.5,343.5,486.0" stroke="black" stroke-width="2" fill="none" />
<polyline points="357.5,486.0,374.0,471.0,390.0,456.0,406.5,441.0" stroke="black" stroke-width="2" fill="none" />
<polyline points="405.0,438.0,415.0,450.0,413.0,458.5,416.0,460.0,414.5,468.0,415.5,476.5,416.0,484.5,411.0,492.5,406.0,499.0,405.0,502.0" stroke="black" stroke-width="2" fill="none" />
<polyline points="406.0,497.0,390.0,497.0,374.0,497.5" stroke="black" stroke-width="2" fill="none" />
<polyline points="361.0,500.5,377.5,486.0,394.5,471.5,411.0,456.5,427.0,440.5" stroke="black" stroke-width="2" fill="none" />
<polyline points="439.0,438.0,423.0,453.0" stroke="black" stroke-width="2" fill="none" />
<polyline points="426.0,463.5,442.5,464.0" stroke="black" stroke-width="2" fill="none" />
<polyline points="454.5,470.0,470.0,454.0,486.0,437.5" stroke="black" stroke-width="2" fill="none" />
<polyline points="488.0,428.0,504.5,428.0,519.5,427.0" stroke="black" stroke-width="2" fill="none" />
<polyline points="517.0,440.5,500.5,455.5" stroke="black" stroke-width="2" fill="none" />
<polyline points="485.0,454.0,500.5,438.5" stroke="black" stroke-width="2" fill="none" />
<polyline points="471.0,444.0,455.5,459.0,440.0,473.5,424.5,488.5,409.0,502.5,393.0,517.0,375.5,532.5" stroke="black" stroke-width="2" fill="none" />
<polyline points="376.5,530.0,393.5,529.0,410.5,529.5" stroke="black" stroke-width="2" fill="none" />
<polyline points="403.5,534.5,387.5,550.5" stroke="black" stroke-width="2" fill="none" />
<polyline points="392.0,546.0,408.0,546.5" stroke="black" stroke-width="2" fill="none" />
<polyline points="404.0,548.5,387.5,564.5,371.5,580.5,356.0,596.5,341.0,613.0,326.0,629.5,310.0,644.5" stroke="black" stroke-width="2" fill="none" />
<polyline points="312.5,638.0,298.0,638.0,282.5,638.5" stroke="black" stroke-width="2" fill="none" />
<polyline points="294.0,643.5,310.5,628.5,327.0,613.5,343.5,599.0,359.5,585.5,376.5,570.0" stroke="black" stroke-width="2" fill="none" />
<polyline points="388.5,576.5,387.5,573.5,382.0,565.5,376.0,556.0" stroke="black" stroke-width="2" fill="none" />
<polyline points="370.0,547.5,385.5,531.5,401.5,516.0" stroke="black" stroke-width="2" fill="none" />
<polyline points="412.0,515.5,396.0,514.0,380.5,514.5" stroke="black" stroke-width="2" fill="none" />
<polyline points="373.5,516.5,390.0,501.0,406.0,485.5" stroke="black" stroke-width="2" fill="none" />
<polyline points="406.0,483.0,390.0,483.0,373.5,483.5" stroke="black" stroke-width="2" fill="none" />
<polyline points="372.5,500.0,389.0,484.0,404.5,468.5" stroke="black" stroke-width="2" fill="none" />
<polyline points="421.5,472.0,436.5,455.0,451.5,439.0" stroke="black" stroke-width="2" fill="none" />
<polyline points="437.5,451.0,445.5,451.0,454.0,450.5,464.0,450.5,472.0,450.5,480.5,450.5,488.5,450.5" stroke="black" stroke-width="2" fill="none" />
<polyline points="478.0,471.5,486.0,471.5,494.5,471.5,502.5,467.5,510.5,466.5,511.5,464.5" stroke="black" stroke-width="2" fill="none" />
<polyline points="520.5,469.5,505.5,485.0" stroke="black" stroke-width="2" fill="none" />
<polyline points="519.5,487.5,503.5,503.0" stroke="black" stroke-width="2" fill="none" />
<polyline points="502.0,514.0,494.0,513.5,486.0,513.5" stroke="black" stroke-width="2" fill="none" />
<polyline points="488.5,527.0,505.0,526.5,522.0,526.0" stroke="black" stroke-width="2" fill="none" />
<polyline points="521.0,538.5,506.5,539.5,491.5,540.5" stroke="black" stroke-width="2" fill="none" />
<polyline points="489.5,566.5,473.0,581.5,458.0,596.0,442.5,611.0,426.0,627.0,410.5,643.5" stroke="black" stroke-width="2" fill="none" />
<polyline points="409.5,633.0,393.5,648.0" stroke="black" stroke-width="2" fill="none" />
<polyline points="422.5,648.0,438.5,633.0,454.0,617.5,469.5,602.0,485.0,586.5,501.0,571.5" stroke="black" stroke-width="2" fill="none" />
<polyline points="516.0,564.5,500.5,580.5,485.0,596.5,469.5,612.0,454.0,627.0,438.5,642.0" stroke="black" stroke-width="2" fill="none" />
<polyline points="426.0,645.0,442.0,644.5,457.0,644.0,473.0,643.5" stroke="black" stroke-width="2" fill="none" />
<polyline points="471.5,646.0,479.5,648.0" stroke="black" stroke-width="2" fill="none" />
<polyline points="501.0,646.5,517.0,631.0" stroke="black" stroke-width="2" fill="none" />
<polyline points="518.5,616.0,502.5,631.5,486.0,647.0" stroke="black" stroke-width="2" fill="none" />
<polyline points="485.0,633.5,501.0,617.5,518.0,601.5" stroke="black" stroke-width="2" fill="none" />
<polyline points="518.0,584.0,502.0,599.0,486.5,614.0,471.0,629.5,454.5,645.5" stroke="black" stroke-width="2" fill="none" />
<polyline points="472.0,626.0,455.5,627.0,439.0,627.5,423.5,628.5" stroke="black" stroke-width="2" fill="none" />
<polyline points="420.5,617.0,437.5,602.5,454.0,588.5,469.5,573.0" stroke="black" stroke-width="2" fill="none" />
<polyline points="457.0,570.5,440.5,586.5,423.0,602.0,406.0,617.5,389.5,632.5,373.0,647.5" stroke="black" stroke-width="2" fill="none" />
<polyline points="358.0,643.5,374.0,627.5,391.0,611.5,407.5,596.5" stroke="black" stroke-width="2" fill="none" />
<polyline points="411.5,592.0,396.5,592.5" stroke="black" stroke-width="2" fill="none" />
<polyline points="407.5,583.0,392.0,599.0,375.5,615.0,359.5,631.0,344.0,646.5" stroke="black" stroke-width="2" fill="none" />
<polyline points="346.0,642.0,361.5,641.5,376.5,642.5,391.5,642.5,405.5,642.0" stroke="black" stroke-width="2" fill="none" />
<polyline points="422.0,606.5,438.5,606.5,454.0,607.0,470.0,607.5" stroke="black" stroke-width="2" fill="none" />
<polyline points="490.5,608.5,506.5,608.0,522.0,608.5" stroke="black" stroke-width="2" fill="none" />
<polyline points="520.5,626.0,505.0,626.0,488.5,626.5" stroke="black" stroke-width="2" fill="none" />
<polyline points="487.5,594.0,503.5,594.0" stroke="black" stroke-width="2" fill="none" />
<polyline points="503.0,589.5,511.0,589.0" stroke="black" stroke-width="2" fill="none" />
<polyline points="486.5,554.5,470.0,555.5" stroke="black" stroke-width="2" fill="none" />
<polyline points="433.5,566.5,418.0,582.5" stroke="black" stroke-width="2" fill="none" />
<polyline points="418.5,582.5,434.0,582.0,449.5,580.0,465.5,578.5,482.5,577.0,500.0,576.5,515.0,575.0" stroke="black" stroke-width="2" fill="none" />
<polyline points="471.5,522.0,455.0,523.5,439.0,524.0" stroke="black" stroke-width="2" fill="none" />
<polyline points="446.5,522.5,454.0,522.5" stroke="black" stroke-width="2" fill="none" />
<polyline points="470.5,523.0,455.0,524.0,440.0,524.5,425.0,525.0,409.0,526.5,393.0,525.5,376.5,526.0,360.0,526.5,343.5,527.5,326.5,528.5,311.5,528.5,296.5,528.5,281.0,530.0,265.0,531.0,248.0,531.5,232.0,533.0,216.0,534.5,199.5,535.0,182.5,534.0,166.0,534.0,150.5,535.5,135.0,535.5,119.0,535.5,104.0,535.5,89.5,535.5,73.0,536.0,57.0,537.0,41.0,538.5,25.0,540.5,9.0,540.5" stroke="black" stroke-width="2" fill="none" />
<polyline points="10.0,547.0,26.0,531.5,41.5,516.5,57.0,501.5,73.0,486.5,88.5,471.5,105.0,457.0,121.5,442.0,138.0,426.5" stroke="black" stroke-width="2" fill="none" />
<polyline points="137.0,436.0,152.5,436.0" stroke="black" stroke-width="2" fill="none" />
<polyline points="150.0,423.5,134.5,438.5,118.5,454.5,103.0,470.5,88.0,487.0,73.0,503.0,57.0,518.5,41.0,534.5,25.5,550.0,9.5,565.0" stroke="black" stroke-width="2" fill="none" />
<polyline points="11.5,570.0,26.5,570.0,41.0,569.5,56.0,569.5,72.0,569.0,87.0,568.5,103.5,568.0,118.5,568.0,134.5,567.0,150.0,566.0,166.0,566.0,182.0,565.0,199.0,564.5,216.0,564.0,232.0,563.5,248.5,563.5,264.5,561.5,280.0,560.5,296.0,560.0,312.0,559.5,328.5,559.0,345.0,558.0,362.0,558.0,378.5,558.0,394.0,557.0,409.0,556.0,424.5,556.5,440.0,557.0,455.0,557.0,469.5,557.5,485.5,557.5,501.0,557.0,518.5,557.0" stroke="black" stroke-width="2" fill="none" />
<polyline points="523.0,618.5,507.5,620.5,492.0,621.5,474.5,621.5,457.0,621.0,440.0,621.0,423.0,620.5,407.0,621.0,390.5,621.5,373.5,621.5,357.5,622.5,342.0,624.0,326.0,625.0,309.5,625.5,293.5,626.5,278.5,628.0,262.5,629.0,247.0,629.0,231.5,629.5,216.0,630.5,200.5,631.0,184.5,631.0,169.0,631.0,152.0,631.0,135.5,631.5,119.0,631.0,102.5,630.5,86.5,631.5,71.5,631.5,56.5,632.5,41.5,634.0,26.5,635.5,10.0,636.5" stroke="black" stroke-width="2" fill="none" />
<polyline points="8.5,642.5,25.5,628.0,42.0,613.5,58.0,598.0,74.5,582.5,90.0,567.5,105.5,552.5,121.5,537.5,137.0,522.0" stroke="black" stroke-width="2" fill="none" />
<polyline points="150.0,519.0,134.0,535.0,119.0,551.0,103.5,566.5,88.0,582.0,73.0,597.5,58.5,613.5,43.0,630.0,27.5,646.0" stroke="black" stroke-width="2" fill="none" />
<polyline points="38.5,642.5,54.5,627.5,70.0,612.0,86.0,596.5,101.0,581.5,116.5,566.0,132.5,550.0,148.5,535.0" stroke="black" stroke-width="2" fill="none" />
<polyline points="168.0,546.5,182.5,530.0,197.5,515.0,213.5,500.0,230.0,484.0,245.5,469.0,260.5,454.5,277.0,438.0" stroke="black" stroke-width="2" fill="none" />
<polyline points="285.0,428.0,293.0,428.0,300.5,428.0,308.5,426.5,316.5,427.5,324.5,427.5,333.0,423.0,341.0,418.0,349.0,412.0,348.5,412.0,333.0,420.0,338.5,422.0,339.5,427.0,347.5,426.5,355.5,426.5,359.5,428.0,367.5,426.5,370.5,420.5,372.5,411.5,371.0,419.5,380.0,422.5,379.0,427.0,387.5,427.0,395.5,427.5,403.5,423.5,411.5,416.5,419.5,410.5,427.0,407.0,435.0,398.0" stroke="black" stroke-width="2" fill="none" />
<polyline points="435.0,394.0,420.0,393.5,405.5,393.5,390.0,393.0,374.0,392.0,359.0,392.0,343.0,391.5,327.0,391.0,310.0,390.5,293.5,391.0" stroke="black" stroke-width="2" fill="none" />
<polyline points="281.5,390.5,297.5,376.0" stroke="black" stroke-width="2" fill="none" />
<polyline points="297.0,389.0,281.0,390.0" stroke="black" stroke-width="2" fill="none" />
<polyline points="280.0,381.5,296.5,381.0" stroke="black" stroke-width="2" fill="none" />
<polyline points="316.5,378.0,325.0,377.0" stroke="black" stroke-width="2" fill="none" />
<polyline points="319.5,372.5,327.5,371.5,335.5,372.5,344.5,367.5" stroke="black" stroke-width="2" fill="none" />
<polyline points="343.5,361.0,359.0,360.0,374.5,359.5,390.0,360.0,407.0,360.5" stroke="black" stroke-width="2" fill="none" />
<polyline points="400.5,373.5,408.5,374.5,416.5,374.0" stroke="black" stroke-width="2" fill="none" />
<polyline points="415.5,385.5,423.5,385.5" stroke="black" stroke-width="2" fill="none" />
<polyline points="397.5,387.0,389.5,387.0,381.5,387.0" stroke="black" stroke-width="2" fill="none" />
<polyline points="379.0,374.0,362.5,373.5" stroke="black" stroke-width="2" fill="none" />
<polyline points="360.5,372.5,376.5,357.0" stroke="black" stroke-width="2" fill="none" />
<polyline points="380.0,367.5,388.0,368.5,396.0,369.5,404.0,366.5,412.0,366.5" stroke="black" stroke-width="2" fill="none" />
<polyline points="410.5,345.5,394.5,346.0" stroke="black" stroke-width="2" fill="none" />
<polyline points="377.0,345.5,361.0,345.0" stroke="black" stroke-width="2" fill="none" />
<polyline points="365.5,347.5,366.5,351.0,371.0,349.5" stroke="black" stroke-width="2" fill="none" />
<polyline points="360.5,355.0,365.5,347.0,372.5,355.0,377.5,358.0,369.5,362.5" stroke="black" stroke-width="2" fill="none" />
<polyline points="355.5,359.0,340.5,374.5" stroke="black" stroke-width="2" fill="none" />
<polyline points="347.0,378.0,355.0,379.0,363.0,376.0" stroke="black" stroke-width="2" fill="none" />
<polyline points="343.5,351.5,327.0,351.5" stroke="black" stroke-width="2" fill="none" />
<polyline points="328.5,356.5,344.5,340.5" stroke="black" stroke-width="2" fill="none" />
<polyline points="346.0,339.5,330.0,340.5" stroke="black" stroke-width="2" fill="none" />
<polyline points="331.5,343.5,347.5,327.5" stroke="black" stroke-width="2" fill="none" />
<polyline points="343.0,327.5,326.5,329.0,309.5,330.0,293.0,330.5,276.0,331.0" stroke="black" stroke-width="2" fill="none" />
<polyline points="272.5,336.5,290.0,345.0,286.0,350.5,297.0,347.5,304.5,358.5,312.5,359.5,321.0,348.0" stroke="black" stroke-width="2" fill="none" />
<polyline points="309.0,347.0,325.0,347.0,342.5,346.0" stroke="black" stroke-width="2" fill="none" />
<polyline points="344.0,344.5,352.0,343.5,360.0,349.5,367.5,352.0,359.5,363.5,363.0,366.0,372.0,373.0,380.0,372.0,388.0,372.0,401.0,372.5,409.5,370.5,417.0,373.5,425.0,378.5,428.0,376.5" stroke="black" stroke-width="2" fill="none" />
<polyline points="391.0,426.0,375.0,441.0,359.5,456.5,344.0,471.5,329.5,486.5" stroke="black" stroke-width="2" fill="none" />
<polyline points="327.0,469.5,344.0,454.0,361.0,440.0,377.5,424.0" stroke="black" stroke-width="2" fill="none" />
<polyline points="354.5,427.5,339.0,442.5,323.5,457.5,307.5,472.0,292.0,486.0" stroke="black" stroke-width="2" fill="none" />
<polyline points="294.5,471.5,310.5,456.0,326.5,440.5" stroke="black" stroke-width="2" fill="none" />
<polyline points="326.0,427.5,334.0,427.5" stroke="black" stroke-width="2" fill="none" />
<polyline points="342.0,435.5,358.5,435.0" stroke="black" stroke-width="2" fill="none" />
<polyline points="359.0,465.5,375.0,466.0,391.0,466.0,406.5,466.5" stroke="black" stroke-width="2" fill="none" />
<polyline points="409.0,463.5,392.0,464.5,375.5,466.0,360.0,467.5,344.0,469.0,328.0,469.5,312.5,469.5,296.5,470.5,280.5,470.0,264.5,469.0,248.0,468.0,231.0,467.5,214.0,467.0,197.0,466.5,180.5,465.0,164.0,466.0,149.5,466.0,134.5,467.0,120.0,469.0,105.0,470.5,89.0,472.0,73.5,473.0,58.5,474.0,42.5,475.0,25.5,476.0,9.0,476.0" stroke="black" stroke-width="2" fill="none" />
<polyline points="7.5,469.0,24.0,452.0,40.5,435.5,57.5,420.0" stroke="black" stroke-width="2" fill="none" />
<polyline points="42.5,421.0,26.0,437.0,10.0,453.0" stroke="black" stroke-width="2" fill="none" />
<polyline points="12.0,456.5,27.5,455.5,42.5,454.5,57.5,453.0,72.5,451.0,88.0,449.5,103.5,449.0,119.0,449.0,135.0,448.5,151.5,448.0,168.0,447.5,184.5,447.0,200.5,445.5,216.5,444.0,231.5,442.5,246.5,440.5,262.5,441.0,279.0,441.5,295.0,442.0,310.5,441.5,326.5,441.0,342.0,441.0,358.5,441.0,375.5,440.0,392.5,439.5,409.5,439.5,426.0,439.5,442.5,439.0,458.5,439.5,474.5,440.0,490.5,439.5,506.0,439.0,522.5,437.5" stroke="black" stroke-width="2" fill="none" />
<polyline points="520.0,470.0,504.5,471.0,488.0,471.5,471.5,472.5,455.5,473.5,440.5,474.0,425.0,475.5" stroke="black" stroke-width="2" fill="none" />
<polyline points="422.0,482.0,438.5,481.0" stroke="black" stroke-width="2" fill="none" />
<polyline points="417.5,482.0,425.5,481.0,433.5,480.0,443.0,478.0,451.0,477.0,459.0,475.0,467.5,472.5,475.5,468.5,483.5,468.5,491.5,467.5" stroke="black" stroke-width="2" fill="none" />
<polyline points="508.5,481.5,500.5,484.5,492.5,485.5,484.5,484.0,476.5,487.0,468.5,484.5" stroke="black" stroke-width="2" fill="none" />
<polyline points="467.0,485.0,475.5,483.0,483.5,482.0,491.5,481.5,499.5,479.5,507.5,477.0,499.5,480.0,486.5,490.5,490.5,492.5,500.0,494.5,501.0,496.0" stroke="black" stroke-width="2" fill="none" />
<polyline points="522.0,490.0,506.5,489.5,490.0,489.0,474.5,490.5,458.5,492.0,442.0,492.5,426.0,492.0,410.5,492.5,393.5,493.0,376.0,494.0,359.5,495.5,344.0,497.5,328.0,499.0,311.5,499.5,295.0,500.0,278.0,500.5,260.5,500.5,243.5,500.0,228.0,501.0,212.5,502.0,197.0,503.0,181.0,504.0,164.5,504.0,148.5,504.5,133.5,503.5,118.5,503.5,102.5,504.0,88.0,504.5,72.5,506.0,57.5,507.0,42.5,507.5,27.5,507.5,11.5,508.0" stroke="black" stroke-width="2" fill="none" />
<polyline points="8.5,504.0,25.0,488.5,41.5,472.5,58.0,457.5,74.0,442.5,90.5,427.0" stroke="black" stroke-width="2" fill="none" />
<polyline points="75.5,424.0,59.0,440.0,42.5,455.0,25.5,471.0,9.0,487.0" stroke="black" stroke-width="2" fill="none" />
<polyline points="8.5,484.0,24.5,484.0,41.0,483.5,56.5,482.5" stroke="black" stroke-width="2" fill="none" />
<polyline points="72.0,484.0,88.0,483.5,103.0,483.0,118.5,481.5,133.5,479.5,149.0,478.5" stroke="black" stroke-width="2" fill="none" />
<polyline points="154.5,467.5,138.5,468.5" stroke="black" stroke-width="2" fill="none" />
<polyline points="149.0,494.5,165.5,494.0" stroke="black" stroke-width="2" fill="none" />
<polyline points="166.0,502.0,182.5,486.0,200.0,470.5,217.0,455.0,233.5,439.0" stroke="black" stroke-width="2" fill="none" />
<polyline points="219.5,444.0,227.5,445.0,235.5,446.0,244.0,446.0,252.0,445.0,260.5,444.5,269.0,445.0,277.0,445.5,285.0,446.0,293.0,446.0,301.0,446.5,309.0,446.5,317.0,447.0,325.0,446.0,332.5,447.0,338.5,447.0,346.0,447.0,354.0,447.0,362.0,447.0,369.5,448.0,377.5,447.0,385.5,448.0,393.5,448.0,401.5,447.0,409.5,446.5,417.5,447.0,425.5,446.0,433.5,447.0,441.0,445.5,449.0,446.5,457.0,446.0,465.0,446.0,473.0,444.5,481.5,444.5,489.5,446.0,497.5,445.0,505.5,446.5" stroke="black" stroke-width="2" fill="none" />
<polyline points="521.5,473.5,507.5,474.5,492.0,475.5,475.5,475.5,459.0,475.5,442.5,476.0,426.0,477.5,409.0,477.5,393.0,479.5,377.0,481.5,360.5,482.5,343.5,482.5,327.5,482.0,311.5,483.0,295.0,483.0,279.0,483.0,263.0,483.0,246.5,483.5,230.5,483.5,214.0,483.0,197.0,483.5,179.5,485.0,163.5,486.5,148.0,486.0,132.5,486.0,117.5,487.0,101.5,488.0,85.5,489.5,70.5,490.0,56.0,491.5,40.0,492.0,24.0,492.0,7.5,493.0" stroke="black" stroke-width="2" fill="none" />
<polyline points="10.0,502.5,26.0,502.5" stroke="black" stroke-width="2" fill="none" />
<polyline points="9.5,518.0,25.5,503.0,42.0,488.5,58.0,474.5,74.5,459.0,91.5,444.0,107.5,428.0" stroke="black" stroke-width="2" fill="none" />
<polyline points="118.0,423.0,102.0,439.0,87.0,454.5,71.0,469.5,54.5,485.0,38.0,501.5,21.5,517.5,5.5,533.5" stroke="black" stroke-width="2" fill="none" />
<polyline points="9.5,521.0,25.5,521.0,41.0,520.0,55.5,520.5,70.0,521.5,84.5,522.0,100.0,522.0,116.5,522.0,133.0,522.0,150.0,522.5,166.0,522.0,182.0,521.5,197.5,520.5,214.0,520.0,231.5,520.0,248.5,519.0,264.0,517.5,280.0,515.5,295.5,514.0,311.0,513.5,326.5,513.5,343.0,513.0,360.0,512.5,376.5,512.0,393.0,511.0,409.0,509.5,425.0,509.5" stroke="black" stroke-width="2" fill="none" />
<polyline points="425.5,515.0,433.5,515.0,441.5,514.5,446.5,520.5,454.5,520.0,460.5,522.0,468.5,524.0,483.0,525.5,491.0,521.5,498.5,518.0" stroke="black" stroke-width="2" fill="none" />
<polyline points="475.0,494.0,467.0,493.0" stroke="black" stroke-width="2" fill="none" />
<polyline points="468.0,499.5,476.0,497.0,483.5,496.5" stroke="black" stroke-width="2" fill="none" />
<polyline points="468.0,504.0,466.0,509.0" stroke="black" stroke-width="2" fill="none" />
<polyline points="456.0,494.0,464.0,493.5,472.5,490.5,480.5,489.5,486.0,489.5,493.5,488.5" stroke="black" stroke-width="2" fill="none" />
<polyline points="522.0,445.0,505.5,446.0,489.0,447.0,473.5,447.5,457.5,448.5,441.5,449.5,425.5,449.0,410.0,449.5,393.5,450.5,376.5,452.0,360.5,452.5,345.0,452.0,329.0,452.0,312.5,452.0,295.5,451.0,279.0,450.0,263.5,450.5,247.5,451.0,231.5,450.5,215.0,450.5,199.0,451.5,183.0,453.5,167.5,454.0,151.0,454.5,136.5,454.5,122.0,455.0,106.0,455.5,91.0,456.0,75.0,457.5,59.0,458.5,42.5,460.0,25.5,462.5,9.5,463.0" stroke="black" stroke-width="2" fill="none" />
<polyline points="11.5,464.5,27.5,464.5,43.0,465.5,58.0,465.0,72.5,464.0,87.0,463.5,103.0,462.5,118.0,461.5" stroke="black" stroke-width="2" fill="none" />
<polyline points="116.5,490.5,108.5,490.0" stroke="black" stroke-width="2" fill="none" />
<polyline points="147.0,497.5,155.5,496.5,158.5,502.0,160.5,504.0" stroke="black" stroke-width="2" fill="none" />
<polyline points="149.0,545.0,165.0,530.0,181.5,515.0,197.0,499.5,213.5,483.5,230.5,467.0,247.0,450.5,264.0,434.5" stroke="black" stroke-width="2" fill="none" />
<polyline points="259.0,422.0,243.0,437.5,227.0,453.0,211.5,468.0,196.5,482.5,181.0,498.5,165.0,514.5" stroke="black" stroke-width="2" fill="none" />
<polyline points="148.5,496.5,164.5,481.0,180.5,465.5,197.0,450.5,213.5,436.5,230.0,421.0" stroke="black" stroke-width="2" fill="none" />
<polyline points="213.5,422.5,198.0,438.0,181.5,453.5,165.5,470.0,149.0,486.0,132.5,501.0,117.0,516.5,101.5,531.5,86.0,546.5,70.5,563.0,55.0,578.0,38.5,594.5,21.5,610.5,6.0,626.5" stroke="black" stroke-width="2" fill="none" />
<polyline points="8.0,626.5,25.0,626.0,41.0,625.0,56.5,625.0,73.0,624.5,89.0,624.5,104.0,624.5,119.0,623.0,134.5,622.5" stroke="black" stroke-width="2" fill="none" />
<polyline points="137.0,642.5,153.0,641.5,168.5,641.0" stroke="black" stroke-width="2" fill="none" />
<polyline points="181.0,640.5,198.0,625.0,215.0,610.5,232.0,595.5,249.5,579.5,265.5,564.5" stroke="black" stroke-width="2" fill="none" />
<polyline points="277.5,564.5,262.0,579.5,246.0,595.5,230.5,611.5,214.0,628.0,198.0,643.5" stroke="black" stroke-width="2" fill="none" />
<polyline points="194.0,644.5,202.0,646.5,210.0,646.5,218.0,646.5" stroke="black" stroke-width="2" fill="none" />
<polyline points="244.0,644.0,261.5,628.5,278.5,613.0,294.5,597.0,311.0,581.5,327.0,566.0" stroke="black" stroke-width="2" fill="none" />
<polyline points="342.0,565.5,326.0,580.5,309.5,596.0,293.5,611.5,277.5,627.0,262.0,642.5" stroke="black" stroke-width="2" fill="none" />
<polyline points="278.5,648.0,295.0,631.5,310.0,615.0,325.5,599.0,342.5,582.5,358.5,566.5" stroke="black" stroke-width="2" fill="none" />
<polyline points="357.0,595.5,373.5,595.0" stroke="black" stroke-width="2" fill="none" />
<polyline points="344.0,609.5,360.0,610.0,376.0,609.5,392.0,608.5,409.0,608.0" stroke="black" stroke-width="2" fill="none" />
<polyline points="419.5,597.0,435.5,596.0" stroke="black" stroke-width="2" fill="none" />
<polyline points="440.0,588.5,431.5,588.5,422.0,589.0,414.0,589.0,414.0,591.0" stroke="black" stroke-width="2" fill="none" />
<polyline points="416.5,575.0,424.0,575.0,431.5,575.5,439.0,570.5,439.5,573.5,447.5,573.5" stroke="black" stroke-width="2" fill="none" />
<polyline points="432.0,574.0,440.0,575.5,448.0,576.0,456.0,576.0,464.0,575.0,472.0,575.0,480.0,575.5,488.5,577.0,497.0,577.0,503.0,572.0,504.0,577.0,512.0,576.0" stroke="black" stroke-width="2" fill="none" />
<polyline points="523.5,603.5,507.0,605.0,490.5,606.0,474.5,606.0,458.0,606.0,441.0,606.5,424.0,607.0,407.0,607.0,391.5,607.5,375.5,608.5,359.5,609.0,343.5,608.5,328.0,609.5,312.0,610.5,295.5,612.0,279.5,612.5,264.5,612.0,248.5,612.5,232.0,612.5,214.5,611.5,198.5,611.0,183.0,612.0,167.5,613.0,151.5,613.0,135.5,613.0,120.0,614.5,104.5,616.0,89.0,616.5,73.0,617.0,58.5,616.5,43.5,616.5,27.5,616.5,12.0,616.5" stroke="black" stroke-width="2" fill="none" />
<polyline points="9.0,609.0,25.5,593.5,41.5,579.0,58.0,562.5,73.5,547.0,89.0,531.5,104.0,515.5,119.0,500.0,134.5,484.0,149.5,469.5,164.5,455.0,179.0,441.0,195.5,426.0" stroke="black" stroke-width="2" fill="none" />
<polyline points="180.5,428.0,165.0,443.5,149.5,459.0,133.0,474.0,116.5,488.5,101.0,503.0,86.0,516.5,71.0,531.0,56.5,545.5,41.5,561.0,26.0,577.0,10.5,592.0" stroke="black" stroke-width="2" fill="none" />
<polyline points="8.0,591.5,23.5,589.5,38.0,588.5,54.0,587.0,71.0,585.5,86.5,584.5,103.0,584.0,118.5,584.5,135.0,583.5,151.5,581.5,168.0,580.5,183.5,580.5,199.0,580.5,214.5,579.5,230.0,578.0,246.5,577.5,263.0,576.5,279.5,576.0,295.5,576.5,311.5,577.5,328.5,577.5,344.0,576.5,359.0,574.5,375.0,573.5,391.0,573.5,407.0,572.5,422.5,573.0,438.5,574.0,454.0,574.5,469.0,574.0,484.0,574.0,501.0,574.0,519.0,574.0" stroke="black" stroke-width="2" fill="none" />
<polyline points="520.5,588.0,505.5,588.5,489.0,589.0,473.5,590.0,456.5,589.5,440.0,591.0,424.0,593.0,407.5,593.0,391.0,592.0,375.5,591.0,359.0,591.0,342.0,591.0,325.0,591.5,310.0,592.5,294.0,594.5,278.0,595.0,261.5,595.5,245.5,595.5,229.0,596.0,213.0,595.5,197.0,595.5,182.0,596.0,167.0,596.5,151.5,597.5,135.5,598.0,119.5,599.0,104.0,599.0,89.0,598.5,72.0,599.5,55.5,600.5,39.0,601.5,22.0,602.5,5.5,603.5" stroke="black" stroke-width="2" fill="none" />
<polyline points="9.0,607.5,24.5,608.0,40.0,608.5,56.0,608.5,72.0,608.0,88.0,608.0,104.5,607.5,120.0,606.5,136.0,605.0,151.0,603.5,166.0,602.0,183.0,602.5" stroke="black" stroke-width="2" fill="none" />
<polyline points="183.5,596.5,167.5,596.0" stroke="black" stroke-width="2" fill="none" />
<polyline points="182.5,572.0,166.0,587.0,150.0,602.0,134.0,617.0,118.0,631.0,103.0,645.0" stroke="black" stroke-width="2" fill="none" />
<polyline points="102.0,647.0,118.0,646.5" stroke="black" stroke-width="2" fill="none" />
<polyline points="150.0,645.5,166.0,630.0,183.0,614.5,200.5,599.0,218.0,583.0,235.0,567.0" stroke="black" stroke-width="2" fill="none" />
<polyline points="241.5,566.0,226.5,581.0" stroke="black" stroke-width="2" fill="none" />
<polyline points="232.5,569.0,225.0,566.0" stroke="black" stroke-width="2" fill="none" />
<polyline points="228.5,557.0,236.5,557.0" stroke="black" stroke-width="2" fill="none" />
<polyline points="250.5,549.0,266.0,534.0" stroke="black" stroke-width="2" fill="none" />
<polyline points="282.0,527.0,289.5,527.0,297.5,526.5,301.5,520.5" stroke="black" stroke-width="2" fill="none" />
<polyline points="308.0,528.0,316.0,524.0,321.0,525.5" stroke="black" stroke-width="2" fill="none" />
<polyline points="317.0,528.0,309.0,529.0" stroke="black" stroke-width="2" fill="none" />
<polyline points="315.5,538.0,324.0,538.0" stroke="black" stroke-width="2" fill="none" />
<polyline points="316.0,552.5,308.0,550.0" stroke="black" stroke-width="2" fill="none" />
<polyline points="308.5,545.5,316.0,546.5" stroke="black" stroke-width="2" fill="none" />
<polyline points="308.0,570.0,291.5,586.0,275.5,602.0,260.0,618.5,245.0,634.5,229.5,651.0" stroke="black" stroke-width="2" fill="none" />
<polyline points="216.0,646.5,232.5,630.0,248.5,614.5,264.0,598.0,279.0,581.5,295.0,565.0" stroke="black" stroke-width="2" fill="none" />
<polyline points="310.5,574.5,318.0,575.5,326.0,574.0" stroke="black" stroke-width="2" fill="none" />
<polyline points="312.5,591.5,297.5,592.0" stroke="black" stroke-width="2" fill="none" />
<polyline points="298.5,612.0,281.5,612.5" stroke="black" stroke-width="2" fill="none" />
<polyline points="281.5,625.5,297.0,625.5" stroke="black" stroke-width="2" fill="none" />
<polyline points="312.0,623.5,328.0,623.0" stroke="black" stroke-width="2" fill="none" />
<polyline points="328.0,647.0,344.5,630.0,360.5,613.0,375.5,597.0,390.0,581.0,406.0,565.5" stroke="black" stroke-width="2" fill="none" />
<polyline points="405.5,563.5,389.0,563.5" stroke="black" stroke-width="2" fill="none" />
<polyline points="385.5,573.0,377.5,576.0,369.5,576.0,361.5,575.0,353.5,575.0,345.5,575.5,338.0,574.5,330.0,575.5,320.5,572.0,313.0,572.0,305.0,575.0,297.0,576.0,289.0,575.5,281.0,576.0,272.5,576.0,264.5,575.0,262.5,575.0,254.0,576.0,246.5,575.0,238.5,576.0,239.0,571.5,231.5,576.5,223.0,576.5,215.0,575.5,207.0,575.5,198.5,575.0,190.5,576.0,182.5,576.0,174.0,574.5,166.0,575.5,158.0,576.0,149.5,576.0,141.5,577.5,139.0,577.5,131.0,576.5,123.0,576.0,115.0,577.0,107.0,577.5,99.0,577.0,91.0,576.5,82.5,577.5,74.5,576.5,66.5,576.5,59.0,577.0,58.5,574.0,50.5,576.5,42.5,576.0,35.0,575.5,27.0,576.5,19.0,576.5,10.5,576.5,2.5,576.5" stroke="black" stroke-width="2" fill="none" />
<polyline points="7.0,573.5,24.0,557.5,40.0,542.0,56.5,527.0,71.0,512.5,85.5,499.0,100.5,485.0,116.5,469.5,132.5,455.0,148.5,440.5,165.0,425.5,182.0,410.0" stroke="black" stroke-width="2" fill="none" />
<polyline points="184.0,415.0,168.0,415.5" stroke="black" stroke-width="2" fill="none" />
<polyline points="174.5,413.5,183.5,405.5,183.0,414.0,180.0,420.5" stroke="black" stroke-width="2" fill="none" />
<polyline points="185.5,405.0,169.5,405.5" stroke="black" stroke-width="2" fill="none" />
<polyline points="164.5,408.5,181.0,393.5" stroke="black" stroke-width="2" fill="none" />
<polyline points="179.5,386.5,187.5,387.0" stroke="black" stroke-width="2" fill="none" />
<polyline points="221.5,383.0,229.5,383.0" stroke="black" stroke-width="2" fill="none" />
<polyline points="237.5,366.0,243.5,360.0,245.0,368.0,246.5,368.5,251.5,377.0,252.0,385.0,249.0,393.5,257.5,390.5" stroke="black" stroke-width="2" fill="none" />
<polyline points="267.0,394.5,257.0,399.5,265.0,395.5,271.5,393.0,279.5,390.0,287.0,389.5,286.5,385.5,294.5,387.5,302.0,387.5,310.0,388.0,318.0,386.0,326.0,382.0" stroke="black" stroke-width="2" fill="none" />
<polyline points="321.0,386.5,329.0,386.5,337.0,383.5,347.0,386.5,356.0,385.5,364.0,386.5,372.0,386.0,380.0,383.0,388.0,382.5,396.5,382.5,404.0,386.0,407.5,381.0,415.5,383.0,423.5,381.5" stroke="black" stroke-width="2" fill="none" />
<polyline points="378.0,330.5,362.0,331.5" stroke="black" stroke-width="2" fill="none" />
<polyline points="362.5,325.5,378.5,309.0" stroke="black" stroke-width="2" fill="none" />
<polyline points="375.5,313.0,360.0,314.0" stroke="black" stroke-width="2" fill="none" />
<polyline points="361.5,318.0,369.5,321.0,368.0,326.5,381.0,329.0,383.0,332.5,386.0,341.0,386.0,349.0,380.0,349.5,382.0,357.0,387.0,364.0" stroke="black" stroke-width="2" fill="none" />
<polyline points="379.5,322.0,363.5,323.0" stroke="black" stroke-width="2" fill="none" />
<polyline points="371.0,311.5,384.0,319.5,389.0,325.5,391.5,333.5,391.0,341.0,389.0,347.0,386.5,355.0,380.0,363.5,370.0,367.0,378.5,359.0,382.5,355.0,382.5,358.0,390.5,359.0,398.5,356.5,398.5,359.0" stroke="black" stroke-width="2" fill="none" />
<polyline points="390.5,352.0,381.0,362.0,373.0,367.5,365.0,370.5,353.5,367.5,349.5,368.5,339.5,360.5,335.5,352.0,334.5,344.5,335.5,336.5,339.5,329.0,348.5,321.0,349.0,323.0" stroke="black" stroke-width="2" fill="none" />
<polyline points="346.0,318.5,332.0,319.5,326.0,327.0,322.5,335.5,319.0,343.5,313.0,352.0,308.0,359.5,313.0,351.5,320.5,338.5,328.5,321.5,332.5,322.5,341.0,312.5,348.5,311.5,356.5,309.5,364.5,310.0,373.0,311.0,381.0,315.0,389.0,322.5,397.0,342.0,404.5,355.5,412.5,362.5,420.5,368.0,428.5,371.0,436.5,380.0,445.0,382.5,452.5,382.5,460.5,382.5,468.0,382.5,475.5,383.0,483.5,383.0,491.5,383.0,499.5,382.0,507.5,382.0" stroke="black" stroke-width="2" fill="none" />
<polyline points="520.0,427.5,504.0,429.5,487.5,430.5,471.5,430.0,455.5,429.5,439.0,429.5,421.5,429.5,404.5,429.5,389.0,430.5,373.0,432.0,356.5,432.5,340.0,433.0,324.5,433.0,308.5,433.5,292.5,433.0,277.0,433.0,262.5,434.0,247.5,434.5,233.0,435.5,217.0,436.0,201.5,436.5,186.5,436.5,171.0,435.5,154.0,436.0,137.5,437.0,121.0,438.0,104.5,439.5,88.0,440.0,72.5,440.5,57.0,441.5,41.5,443.0,26.5,444.5,10.0,446.5" stroke="black" stroke-width="2" fill="none" />
<polyline points="9.5,437.0,25.5,421.0" stroke="black" stroke-width="2" fill="none" />
<polyline points="13.0,428.5,28.0,428.0,43.0,428.5,58.0,428.5,74.0,428.0,90.0,428.0,105.0,426.0,119.5,425.0,135.5,423.5,152.0,422.0,168.0,421.5,184.5,421.0,200.0,421.0,216.0,420.0,232.5,417.5,248.5,416.0,263.5,416.0,278.5,415.5,293.5,414.5,309.0,412.5,325.0,412.5,341.5,412.0,357.5,411.5,373.5,412.0,389.0,413.5,406.0,413.5,421.5,412.5,437.0,410.5,453.0,409.0,469.5,408.5" stroke="black" stroke-width="2" fill="none" />
<polyline points="416.5,451.5,407.5,448.0,399.0,448.0" stroke="black" stroke-width="2" fill="none" />
<polyline points="395.5,447.0,399.5,455.0,398.5,463.5,398.5,471.5,399.0,479.0,399.0,487.0,398.0,495.0,398.0,503.0,398.0,511.0,398.0,519.0,397.5,527.0,398.0,535.0,398.0,542.5,397.0,550.5,397.0,558.0,397.0,566.0,396.0,574.0,397.0,581.5,396.0,589.0,396.0,596.5,396.0,604.5,396.0,612.5,394.5,621.0,394.0,629.0,394.0,637.0" stroke="black" stroke-width="2" fill="none" />
<polyline points="404.0,628.0,387.0,627.5,371.0,627.5,356.0,628.5" stroke="black" stroke-width="2" fill="none" />
<polyline points="335.5,649.5,327.5,647.5,320.0,647.5" stroke="black" stroke-width="2" fill="none" />
<polyline points="261.0,613.0,244.0,613.0" stroke="black" stroke-width="2" fill="none" />
<polyline points="246.0,597.0,262.0,596.0,276.5,595.5" stroke="black" stroke-width="2" fill="none" />
<polyline points="253.0,592.5,245.0,592.5" stroke="black" stroke-width="2" fill="none" />
<polyline points="236.5,611.5,220.5,612.5" stroke="black" stroke-width="2" fill="none" />
<polyline points="212.5,602.5,196.5,616.5,180.5,631.5,165.0,647.0" stroke="black" stroke-width="2" fill="none" />
<polyline points="134.0,643.5,150.5,628.0,167.0,612.0,182.0,597.0,197.0,583.0,212.5,568.0" stroke="black" stroke-width="2" fill="none" />
<polyline points="199.5,567.0,183.5,583.0,167.5,598.5,152.5,613.5,137.5,628.5,121.5,643.5" stroke="black" stroke-width="2" fill="none" />
<polyline points="87.5,642.5,105.0,626.0,121.5,610.0,138.0,595.0,154.5,580.0,171.0,565.0" stroke="black" stroke-width="2" fill="none" />
<polyline points="180.5,549.5,196.5,534.0" stroke="black" stroke-width="2" fill="none" />
<polyline points="196.5,547.0,213.0,531.5" stroke="black" stroke-width="2" fill="none" />
<polyline points="219.0,525.5,227.0,527.0,235.0,525.0,238.0,527.5,242.0,520.5" stroke="black" stroke-width="2" fill="none" />
<polyline points="242.5,527.5,251.0,527.5" stroke="black" stroke-width="2" fill="none" />
<polyline points="243.0,532.0,227.5,548.5" stroke="black" stroke-width="2" fill="none" />
<polyline points="219.5,520.0,235.5,504.5" stroke="black" stroke-width="2" fill="none" />
<polyline points="233.0,513.5,217.5,514.0" stroke="black" stroke-width="2" fill="none" />
<polyline points="248.5,495.5,256.5,495.5,264.0,496.5,272.0,496.0,280.0,495.0,288.0,495.0" stroke="black" stroke-width="2" fill="none" />
<polyline points="296.0,505.5,280.5,520.5" stroke="black" stroke-width="2" fill="none" />
<polyline points="284.5,517.0,292.5,517.0,293.5,519.0" stroke="black" stroke-width="2" fill="none" />
<polyline points="284.5,513.0,284.5,510.0,293.0,510.0,301.0,508.5,312.0,508.5,320.0,507.5,328.0,508.5,336.0,507.0,343.5,504.0,351.0,504.0,358.5,503.0" stroke="black" stroke-width="2" fill="none" />
<polyline points="350.0,508.0,342.0,508.0" stroke="black" stroke-width="2" fill="none" />
<polyline points="359.0,510.0,351.0,511.0,343.0,511.5,334.5,512.0,326.5,512.0,318.5,513.0" stroke="black" stroke-width="2" fill="none" />
<polyline points="294.0,540.0,286.0,540.0,283.0,546.0" stroke="black" stroke-width="2" fill="none" />
<polyline points="264.0,506.5,256.0,507.0" stroke="black" stroke-width="2" fill="none" />
<polyline points="262.0,487.5,277.5,471.5,294.5,455.5,311.0,439.0" stroke="black" stroke-width="2" fill="none" />
<polyline points="296.0,440.0,279.5,456.0,263.0,472.0,247.0,487.0" stroke="black" stroke-width="2" fill="none" />
<polyline points="274.5,483.5,283.0,482.5" stroke="black" stroke-width="2" fill="none" />
<polyline points="301.5,413.0,290.5,414.0,295.5,406.0,287.5,404.0" stroke="black" stroke-width="2" fill="none" />
<polyline points="282.5,398.0,266.5,398.0" stroke="black" stroke-width="2" fill="none" />
<polyline points="266.0,405.0,266.5,407.0,265.5,415.5" stroke="black" stroke-width="2" fill="none" />
<polyline points="279.5,405.0,287.5,401.0,295.5,404.0,299.5,405.0,300.0,413.0,306.0,423.0,314.0,429.0,321.5,429.0,329.0,429.5,336.5,430.5,344.5,432.0,352.5,432.0,361.0,433.0,369.0,432.5,377.5,433.0,386.0,433.5,394.0,435.5,401.5,436.5,409.0,438.5,418.0,448.5,426.0,448.5,434.0,448.5,444.5,448.5,452.5,448.5,460.5,448.5,468.5,448.5,476.5,448.5,484.0,449.0,492.5,449.0,501.0,449.5,509.0,449.5,510.5,459.5,507.0,462.0" stroke="black" stroke-width="2" fill="none" />
<polyline points="487.5,506.0,487.5,504.0,476.5,509.0,476.5,506.5,468.5,507.5,463.0,515.5,452.0,516.5,443.5,516.5,435.5,516.5" stroke="black" stroke-width="2" fill="none" />
<polyline points="413.0,520.0,420.5,515.0,412.5,521.0,410.0,529.0,412.5,530.5,411.5,538.0,411.5,546.5,411.5,554.0,412.5,562.0,413.0,570.0,411.0,578.0,412.0,586.0,412.5,594.0,413.0,602.5,412.5,607.5,412.5,615.5,411.0,624.5,411.0,632.5,410.0,640.5,410.0,648.0" stroke="black" stroke-width="2" fill="none" />
<polyline points="391.5,590.0,384.0,589.5,376.0,589.5,368.5,589.5,360.0,589.5,351.5,589.5,343.0,590.0,335.0,590.0,327.0,590.0,319.0,590.0,311.0,590.0,303.0,590.5,295.5,590.5,287.5,590.5,279.5,590.5,271.5,590.5,263.0,590.5,255.0,590.0,246.5,590.0,239.0,590.0,231.0,589.5,223.0,590.0,215.0,589.0,207.0,589.0,199.0,590.0,191.5,589.0,183.0,590.0,175.0,589.0,166.5,590.0,158.5,590.0,150.5,589.0,142.5,589.5,134.5,589.5,126.5,589.5" stroke="black" stroke-width="2" fill="none" />
<polyline points="136.0,567.0,120.5,582.5,104.5,597.5,88.5,613.5,73.0,629.5,57.0,645.5" stroke="black" stroke-width="2" fill="none" />
<polyline points="72.0,643.5,87.5,628.0,103.5,612.5,119.5,596.5,135.5,581.0,151.5,566.0" stroke="black" stroke-width="2" fill="none" />
<polyline points="135.0,590.5,119.0,592.5,102.5,594.0,85.5,595.5,70.0,596.0,53.0,596.5,35.5,596.5,18.5,597.0,2.5,597.0" stroke="black" stroke-width="2" fill="none" />
<polyline points="10.5,579.0,26.0,578.0,41.0,578.5,56.0,579.5,71.5,580.5,86.5,580.5,102.5,580.0,118.5,579.0,134.5,578.0,150.5,577.0,167.5,577.0,183.5,576.0,200.5,576.0,217.5,575.5,234.5,573.5,250.5,572.0,267.0,571.5,282.5,570.0,298.0,568.5,313.5,566.0,329.5,565.0,345.5,564.5,361.5,564.5,377.5,564.0,394.0,564.5,410.0,565.5" stroke="black" stroke-width="2" fill="none" />
<polyline points="399.0,571.5,400.0,579.5" stroke="black" stroke-width="2" fill="none" />
<polyline points="424.0,558.0,432.0,558.0,440.0,559.0,448.0,558.0" stroke="black" stroke-width="2" fill="none" />
<polyline points="420.0,539.0,404.0,539.0,389.0,540.0,373.5,541.5,358.0,543.5,342.5,545.0,326.5,545.5,311.0,546.0,296.0,545.5,280.5,545.5,265.0,546.5,248.5,547.0,232.5,547.0,216.0,547.5,199.5,547.5,182.5,547.0,166.0,547.0,150.5,548.5,135.5,550.0,119.5,551.0,102.5,552.5,86.5,553.5,70.0,554.5,53.5,555.0,38.0,555.5,23.0,555.5,7.5,556.5" stroke="black" stroke-width="2" fill="none" />
<polyline points="86.5,571.5,94.5,573.0,102.0,573.0" stroke="black" stroke-width="2" fill="none" />
<polyline points="88.5,642.0,71.5,643.0,55.0,644.0,38.5,645.0,22.0,646.0,6.5,646.0" stroke="black" stroke-width="2" fill="none" />
<polyline points="8.0,435.5,24.5,434.5,40.5,432.5,56.0,431.5,72.0,430.5,88.0,429.0,103.5,429.0,121.0,429.0" stroke="black" stroke-width="2" fill="none" />
<polyline points="165.5,440.0,181.5,439.0" stroke="black" stroke-width="2" fill="none" />
<polyline points="184.5,466.5,200.5,466.5" stroke="black" stroke-width="2" fill="none" />
<polyline points="162.0,425.5,154.0,425.0,146.0,425.0,138.0,426.0,129.5,425.0,121.5,425.0,114.0,425.0,106.0,425.0,98.0,425.0,90.0,425.5,82.0,425.5,74.0,425.0,65.5,425.0,57.5,425.0,49.0,425.0,41.0,425.0,33.5,425.0,25.5,425.5,17.5,426.0,10.0,426.0,2.0,426.0" stroke="black" stroke-width="2" fill="none" />
<polyline points="2.0,383.0,10.0,382.5,18.5,382.5,26.5,382.5,34.5,382.5,42.5,383.0,50.5,382.5,58.5,382.5,66.0,382.5,74.0,382.5,81.5,382.5,89.5,382.5,97.5,382.5,105.5,382.0,113.5,382.0,121.5,382.0,130.0,382.0,138.0,382.0,146.5,383.0,154.0,382.0,162.0,382.0" stroke="black" stroke-width="2" fill="none" />
<polyline points="171.5,353.0,179.5,353.0" stroke="black" stroke-width="2" fill="none" />
<polyline points="179.5,342.0,163.0,343.0" stroke="black" stroke-width="2" fill="none" />
<polyline points="165.0,341.5,173.0,341.5,174.0,345.5,176.5,354.5,172.5,363.0,174.0,371.0,174.5,379.0,176.5,383.5,174.5,391.5,178.5,393.0,181.5,398.5,183.5,395.5,192.0,397.0,200.5,396.0,208.5,396.0,214.5,395.0,218.5,396.0" stroke="black" stroke-width="2" fill="none" />
<polyline points="242.0,409.0,239.0,417.0" stroke="black" stroke-width="2" fill="none" />
<polyline points="242.0,364.5,250.0,376.5,258.0,366.5,255.0,371.5,259.0,370.5,265.0,362.5,266.0,353.5,274.5,348.0,278.5,341.0,282.5,344.5,286.5,338.5,288.5,341.5" stroke="black" stroke-width="2" fill="none" />
<polyline points="280.5,340.5,288.5,344.5,298.0,353.5,304.0,361.5" stroke="black" stroke-width="2" fill="none" />
<polyline points="302.5,359.0,294.5,349.0" stroke="black" stroke-width="2" fill="none" />
<polyline points="293.0,350.5,277.0,351.5,261.5,352.5" stroke="black" stroke-width="2" fill="none" />
<polyline points="270.0,341.5,278.0,340.5,286.5,337.5,288.5,336.0,290.5,344.0,293.0,340.5,297.0,348.5,303.0,356.5,307.0,364.5,296.0,375.5,286.0,378.5,280.0,386.5,277.5,395.0,275.5,397.0,283.5,397.0,291.5,394.0,299.0,385.5,307.0,370.0,311.0,368.0,317.0,364.0,322.0,353.0,325.0,355.0,335.0,354.0,343.0,353.0,345.5,357.5,354.0,349.0,359.0,352.0,361.0,344.5,369.0,343.5,376.5,345.5,378.5,348.5,379.5,344.5,389.0,342.5,396.5,343.0,399.5,351.5,404.5,358.5,408.5,367.0,420.5,371.5,430.5,378.5,437.5,386.0,434.0,400.0,427.0,408.0,413.0,415.5,404.0,423.5,407.0,429.0,414.5,428.5,422.5,428.5,430.5,428.5,438.0,428.0,445.5,428.0,453.5,429.0,461.5,429.0,469.5,428.5,477.5,428.5,485.5,428.5,493.0,428.5,501.5,428.5,509.5,429.0" stroke="black" stroke-width="2" fill="none" />
<polyline points="438.5,387.5,430.0,388.5,422.0,388.5,414.0,387.5,405.5,389.0,397.5,389.0,390.0,388.5,382.0,388.0,374.0,388.0,366.0,387.5,358.0,387.0,350.0,387.0,342.0,388.5,334.0,388.5,326.5,388.5,318.5,389.0" stroke="black" stroke-width="2" fill="none" />
<polyline points="318.5,370.0,326.5,369.0,330.5,364.5,338.5,367.5,346.0,371.0,353.5,373.0,361.5,374.0,362.5,379.0,370.5,378.0,377.5,378.0,385.5,375.5,393.5,377.5,399.0,377.5,407.0,377.5,415.5,377.5,419.5,375.5" stroke="black" stroke-width="2" fill="none" />
<polyline points="387.0,332.0,384.5,330.0,380.5,328.0,372.5,330.0,364.5,339.5,356.5,343.5,348.5,335.5,341.0,335.5" stroke="black" stroke-width="2" fill="none" />
<polyline points="335.5,337.0,343.5,324.0,351.5,319.5,359.5,318.0,380.5,323.0,373.5,328.0,366.5,336.0,360.0,344.0,351.0,351.0,342.5,359.0,346.5,363.0,360.5,368.0,365.5,363.0" stroke="black" stroke-width="2" fill="none" />
<polyline points="351.0,358.5,354.5,354.0,356.0,343.5,351.0,336.0,338.5,344.0,337.5,347.0" stroke="black" stroke-width="2" fill="none" />
<polyline points="328.5,329.0,336.5,324.5,343.0,319.5,351.0,317.0,359.0,316.0,367.0,312.0,370.0,318.0,375.5,320.0,383.5,327.0" stroke="black" stroke-width="2" fill="none" />
<polyline points="341.5,312.5,335.5,320.5,332.5,326.5,325.5,340.5,321.0,349.5,316.0,357.5,310.0,367.5,307.0,373.5,302.5,381.0,294.5,386.0,286.5,392.0,279.0,405.0,263.5,404.5,258.5,410.5,258.0,418.5,265.0,422.5,268.0,430.5,276.5,430.0" stroke="black" stroke-width="2" fill="none" />
<polyline points="268.0,371.5,276.0,360.5" stroke="black" stroke-width="2" fill="none" />
<polyline points="280.5,360.0,290.0,357.0,293.0,365.0,299.0,375.0" stroke="black" stroke-width="2" fill="none" />
<polyline points="278.5,366.0,263.0,367.0" stroke="black" stroke-width="2" fill="none" />
<polyline points="272.5,370.5,264.0,379.5,255.5,379.0,241.5,379.0,240.5,380.0,245.5,374.0,241.5,366.5,239.0,360.5,241.0,352.5,243.5,344.5" stroke="black" stroke-width="2" fill="none" />
<polyline points="242.0,345.5,250.0,341.5,258.5,338.5,266.5,341.5,274.5,345.5,276.5,353.0,271.5,361.0,267.5,369.0,264.5,380.0,268.5,393.0,272.5,389.0,281.0,385.0,289.0,374.0,292.0,378.5,300.5,372.5,310.5,376.5,320.5,377.0,328.5,376.0,333.5,378.0,339.5,387.0,348.0,383.5,356.0,382.5,364.0,383.5" stroke="black" stroke-width="2" fill="none" />
<polyline points="328.5,363.0,320.5,364.0" stroke="black" stroke-width="2" fill="none" />
<polyline points="299.0,368.0,290.5,354.0" stroke="black" stroke-width="2" fill="none" />
<polyline points="270.0,338.0,283.0,346.0,291.0,351.5,294.0,359.0,298.0,367.0,302.0,375.0,299.5,383.0,296.5,391.0,289.0,399.0,297.5,399.5" stroke="black" stroke-width="2" fill="none" />
<polyline points="290.0,425.0,282.0,427.0,281.0,424.0,272.5,427.0,264.5,426.0,257.5,424.0,249.5,427.5,241.5,426.5,233.5,427.0,225.5,426.0,217.0,426.5,209.0,427.0,200.5,427.0,192.5,427.0,184.5,427.0,176.5,428.0,170.5,428.0,166.5,427.0,176.0,422.0,178.0,414.0,177.5,409.0,175.5,401.0,184.0,390.5,182.5,384.0,183.5,375.5,177.0,371.5,179.5,363.5,178.0,361.5,180.0,353.5,178.5,347.5,185.5,338.5,188.5,335.5,188.5,327.5,190.0,321.5,191.0,314.0,192.5,306.5,192.0,298.5,194.0,296.5,193.5,292.0,189.0,286.0,189.5,278.5,188.5,270.5,185.5,262.5,182.5,254.5,183.5,246.5,185.0,239.5,188.0,231.5,187.0,223.5,183.0,216.5,189.5,208.5,187.0,204.5,184.0,199.5,182.5,197.0,190.0,191.5,193.0,192.0,193.5,184.0,202.5,179.0,205.5,178.5,209.0,170.5,214.5,160.0,217.0,152.0,216.0,144.0,219.0,141.0,223.5,133.0,229.5,125.0,228.5,117.0,234.5,112.0,239.5,99.0,246.0,91.0,240.5,81.0,242.5,73.0,245.5,65.0,243.5,58.0,245.5,50.0,241.0,48.0,232.5,53.5,224.5,59.5" stroke="black" stroke-width="2" fill="none" />
<polyline points="215.5,67.5,225.0,67.5,221.0,71.5,226.5,76.5,230.0,84.5,229.5,92.5,223.0,100.5,216.0,104.5,216.0,102.5" stroke="black" stroke-width="2" fill="none" />
<polyline points="211.0,101.0,227.0,101.5" stroke="black" stroke-width="2" fill="none" />
<polyline points="217.5,96.0,217.5,100.0,213.5,108.0,211.5,115.5,212.0,123.5,214.0,131.5,216.5,140.0,213.0,148.0,206.0,156.0,203.0,163.5,200.0,171.5,212.0,180.5,208.5,191.0,208.0,199.5,204.0,205.5,197.0,210.0,207.5,208.0,203.5,211.0,201.5,216.0,203.5,223.0,206.5,227.0,206.5,235.0,208.5,237.5,212.5,242.5,208.0,250.0,214.5,243.0,215.5,247.0,223.5,239.0,231.5,231.0,239.5,226.0,243.5,227.5,247.5,221.5,249.0,215.5,257.0,210.5,268.5,211.5,276.5,207.5,283.5,212.0,291.5,214.0,299.5,219.0,308.0,221.5,316.0,220.5,317.5,203.5,321.5,211.5,317.0,219.5" stroke="black" stroke-width="2" fill="none" />
<polyline points="315.0,201.0,307.0,202.0,299.5,205.0,291.5,208.0,291.0,206.5,283.0,204.0,285.0,197.0,300.0,189.0" stroke="black" stroke-width="2" fill="none" />
<polyline points="308.0,181.0,300.0,183.0,292.5,186.0,298.5,172.5,291.0,175.5,283.0,176.5,275.0,180.5,267.5,186.5" stroke="black" stroke-width="2" fill="none" />
<polyline points="264.0,199.0,266.0,207.0,255.0,212.5,247.0,222.5,243.0,226.5,232.0,232.0,224.0,240.0,214.0,245.0" stroke="black" stroke-width="2" fill="none" />
<polyline points="215.5,197.5,232.0,196.5" stroke="black" stroke-width="2" fill="none" />
<polyline points="219.0,169.5,204.0,169.5" stroke="black" stroke-width="2" fill="none" />
<polyline points="200.5,171.5,208.5,168.0,213.5,173.0" stroke="black" stroke-width="2" fill="none" />
<polyline points="224.0,175.0,219.0,174.0,224.0,166.0,226.0,158.0" stroke="black" stroke-width="2" fill="none" />
<polyline points="240.5,147.5,248.5,139.5,248.5,131.5,245.0,139.5,242.0,141.5,235.0,143.5,227.0,150.0,231.0,140.0,215.5,137.5,207.0,145.0,198.5,138.5,194.5,142.5,187.5,146.5,180.0,146.5,179.5,155.0,174.0,153.5,166.0,151.5,166.0,144.0,169.0,138.0,165.0,130.5,162.5,130.5,157.5,128.0,153.5,124.0,150.5,124.0,153.0,116.0,143.5,111.0,141.0,118.5" stroke="black" stroke-width="2" fill="none" />
<polyline points="155.0,118.5,171.0,118.5,186.5,118.5" stroke="black" stroke-width="2" fill="none" />
<polyline points="190.0,116.0,189.0,111.5,178.5,111.5,170.5,112.0" stroke="black" stroke-width="2" fill="none" />
<polyline points="168.0,115.0,152.0,130.5,136.0,146.5" stroke="black" stroke-width="2" fill="none" />
<polyline points="135.0,145.5,150.0,145.0" stroke="black" stroke-width="2" fill="none" />
<polyline points="149.0,131.0,165.5,131.5,182.0,131.5" stroke="black" stroke-width="2" fill="none" />
<polyline points="185.5,127.5,187.5,135.5,192.5,135.0,189.5,138.0,195.5,150.5" stroke="black" stroke-width="2" fill="none" />
<polyline points="205.0,159.0,209.5,167.0,204.5,169.5,206.5,161.5,207.0,158.5,217.0,167.0" stroke="black" stroke-width="2" fill="none" />
<polyline points="201.0,192.0,184.5,193.0" stroke="black" stroke-width="2" fill="none" />
<polyline points="182.5,187.5,198.5,187.0" stroke="black" stroke-width="2" fill="none" />
<polyline points="170.5,199.5,154.0,216.0" stroke="black" stroke-width="2" fill="none" />
<polyline points="144.0,211.0,140.0,215.0,132.0,214.5,124.0,215.0,119.5,209.0,104.0,204.5,95.5,204.5,87.5,201.0" stroke="black" stroke-width="2" fill="none" />
<polyline points="87.0,203.0,102.5,187.5" stroke="black" stroke-width="2" fill="none" />
<polyline points="106.5,186.5,90.0,187.0" stroke="black" stroke-width="2" fill="none" />
<polyline points="91.0,192.5,106.5,193.5" stroke="black" stroke-width="2" fill="none" />
<polyline points="106.5,200.5,96.5,210.5,98.5,212.0,100.5,220.5,98.5,229.0,99.0,228.5,107.0,232.0,113.5,227.0,116.5,233.0,125.5,231.0,132.5,232.5" stroke="black" stroke-width="2" fill="none" />
<polyline points="133.0,228.0,117.0,229.0,100.5,229.0" stroke="black" stroke-width="2" fill="none" />
<polyline points="106.5,226.5,122.0,211.0" stroke="black" stroke-width="2" fill="none" />
<polyline points="119.5,206.0,135.5,205.0,152.5,205.0,169.5,204.5,186.5,202.5,202.5,201.0" stroke="black" stroke-width="2" fill="none" />
<polyline points="182.0,211.0,166.5,211.5,150.5,211.5,134.5,212.0" stroke="black" stroke-width="2" fill="none" />
<polyline points="133.5,214.5,117.0,216.0,101.5,217.5" stroke="black" stroke-width="2" fill="none" />
<polyline points="89.5,219.0,105.0,204.0" stroke="black" stroke-width="2" fill="none" />
<polyline points="104.5,204.0,88.0,204.5" stroke="black" stroke-width="2" fill="none" />
<polyline points="87.5,211.0,103.0,210.5" stroke="black" stroke-width="2" fill="none" />
<polyline points="107.5,202.0,116.0,204.0" stroke="black" stroke-width="2" fill="none" />
<polyline points="108.0,201.0,112.0,208.5,108.5,217.0,109.5,228.5" stroke="black" stroke-width="2" fill="none" />
<polyline points="127.5,228.0,126.0,236.0" stroke="black" stroke-width="2" fill="none" />
<polyline points="137.0,225.5,149.5,234.0" stroke="black" stroke-width="2" fill="none" />
<polyline points="164.5,227.0,171.5,230.5" stroke="black" stroke-width="2" fill="none" />
<polyline points="170.0,206.0,170.0,214.5,169.5,209.5,176.5,207.0,184.5,211.0,185.5,207.5,191.5,207.5,198.5,204.5,206.0,203.0" stroke="black" stroke-width="2" fill="none" />
<polyline points="166.5,176.0,151.0,177.0,135.5,178.0" stroke="black" stroke-width="2" fill="none" />
<polyline points="135.5,185.5,129.5,193.5,125.5,201.0,132.5,203.5,138.5,207.0,147.0,205.0,149.0,208.5" stroke="black" stroke-width="2" fill="none" />
<polyline points="151.0,193.5,134.0,194.0,118.0,195.0" stroke="black" stroke-width="2" fill="none" />
<polyline points="116.5,194.0,124.5,190.0" stroke="black" stroke-width="2" fill="none" />
<polyline points="123.0,196.0,138.5,180.0,154.0,163.5,169.5,148.0" stroke="black" stroke-width="2" fill="none" />
<polyline points="151.5,140.0,134.5,139.0,118.0,139.0" stroke="black" stroke-width="2" fill="none" />
<polyline points="118.0,134.5,126.0,139.5" stroke="black" stroke-width="2" fill="none" />
<polyline points="118.5,132.0,124.5,146.0,128.5,149.5,120.5,155.5,127.5,167.5,130.5,170.0,126.5,178.0,130.5,179.5,139.5,177.5,147.0,173.0,156.0,178.0,161.0,173.0,175.5,176.5,179.5,180.5,187.5,177.5" stroke="black" stroke-width="2" fill="none" />
<polyline points="184.0,168.5,168.0,168.0,151.0,167.5,134.0,167.0" stroke="black" stroke-width="2" fill="none" />
<polyline points="138.0,163.0,140.5,171.0,142.5,184.0,150.0,186.0,158.0,185.0" stroke="black" stroke-width="2" fill="none" />
<polyline points="148.5,186.0,141.5,194.0,142.5,198.0" stroke="black" stroke-width="2" fill="none" />
<polyline points="146.5,189.5,151.0,191.5,155.0,200.0,154.5,211.0,157.5,219.0,160.0,218.5,156.0,221.5,153.5,224.5,157.0,231.5,152.0,240.0,154.0,242.0,164.0,239.0,174.5,239.0,182.5,245.0,187.5,251.0,196.0,246.5,197.5,250.0,206.0,247.0" stroke="black" stroke-width="2" fill="none" />
<polyline points="156.5,265.0,148.5,263.5" stroke="black" stroke-width="2" fill="none" />
<polyline points="212.0,231.0,208.0,221.0,205.5,227.0,197.5,225.0,196.5,214.0,190.5,215.0,182.5,217.0,177.5,207.0,178.5,196.5,176.5,192.5,169.5,187.5,161.0,192.5,153.0,193.5,145.0,196.5,138.0,197.0,134.5,193.5,125.5,198.0,126.0,203.5,118.0,210.0,108.5,213.0,104.5,220.0,92.5,217.0,88.5,207.0,84.5,215.0,79.5,219.0,79.0,211.5,88.5,202.0,95.5,194.5,101.0,189.0,104.0,181.0,110.5,180.0,111.5,173.5,111.0,178.5" stroke="black" stroke-width="2" fill="none" />
<polyline points="107.0,186.0,115.0,181.0,124.0,179.0,128.0,186.5,127.0,194.5,120.0,202.0,114.5,206.0,107.5,210.5,109.5,212.5,117.5,212.5,114.0,214.5,118.5,223.5,129.5,220.0,137.5,224.0,145.5,226.0,146.5,221.0,148.5,218.0,152.5,212.5,154.5,204.5,165.5,204.0,175.5,201.0,186.5,193.0,194.0,192.0,197.0,197.5" stroke="black" stroke-width="2" fill="none" />
<polyline points="168.0,184.5,151.5,184.5,134.5,184.0,118.0,184.0" stroke="black" stroke-width="2" fill="none" />
<polyline points="101.0,171.0,93.0,172.0,84.5,177.0" stroke="black" stroke-width="2" fill="none" />
<polyline points="86.5,177.5,94.5,179.5,93.5,183.0,80.5,185.5,76.5,195.0,78.0,198.0,72.0,206.5,68.0,215.0,72.5,214.0,81.0,206.5,84.0,197.0,90.0,202.0,86.0,210.0,88.0,217.5" stroke="black" stroke-width="2" fill="none" />
<polyline points="69.0,203.5,52.5,204.0,36.0,205.0" stroke="black" stroke-width="2" fill="none" />
<polyline points="54.5,201.5,62.5,193.5,71.0,192.5,78.0,187.0,85.0,195.5,82.0,204.0,77.5,206.0,80.5,216.5,82.5,219.0" stroke="black" stroke-width="2" fill="none" />
<polyline points="75.5,215.0,58.5,214.0,42.0,214.0,25.0,215.0,9.5,215.5" stroke="black" stroke-width="2" fill="none" />
<polyline points="13.0,237.5,28.5,237.0,44.5,235.0,60.5,234.0" stroke="black" stroke-width="2" fill="none" />
<polyline points="73.5,213.0,75.5,205.0,66.5,201.0" stroke="black" stroke-width="2" fill="none" />
<polyline points="69.5,199.5,78.0,198.5" stroke="black" stroke-width="2" fill="none" />
<polyline points="62.5,198.0,63.0,191.0,71.0,191.5,73.0,187.5,81.0,192.0,85.0,184.0" stroke="black" stroke-width="2" fill="none" />
<polyline points="67.5,184.0,76.0,186.0,84.5,190.5,92.5,191.5,107.0,187.5,115.0,185.5,123.0,184.5,124.5,183.0" stroke="black" stroke-width="2" fill="none" />
<polyline points="131.0,170.5,129.0,162.5" stroke="black" stroke-width="2" fill="none" />
<polyline points="153.5,161.0,153.5,169.0,149.5,177.0" stroke="black" stroke-width="2" fill="none" />
<polyline points="159.5,184.0,167.5,176.5,162.5,168.5" stroke="black" stroke-width="2" fill="none" />
<polyline points="143.5,131.0,143.0,128.0,144.0,129.5,148.5,124.5,141.5,118.5,138.5,109.5,150.5,106.0,147.5,102.0,153.5,88.5,154.0,82.0,154.0,74.0,154.0,68.5,152.0,67.5,155.0,57.5,154.0,52.5,146.0,62.0,141.0,60.0,136.0,56.0,137.5,44.0,143.5,39.0,145.0,25.0,145.0,22.0,146.0,21.0,138.0,25.5,130.0,27.5" stroke="black" stroke-width="2" fill="none" />
<polyline points="131.5,30.5,139.5,30.5,149.0,21.5" stroke="black" stroke-width="2" fill="none" />
<polyline points="152.5,37.0,145.5,36.0,143.5,41.0,139.0,50.0,152.0,45.0,150.0,37.0,146.5,43.0" stroke="black" stroke-width="2" fill="none" />
<polyline points="136.5,51.5,146.5,49.5,147.5,57.5,152.5,59.5" stroke="black" stroke-width="2" fill="none" />
<polyline points="152.0,57.0,136.5,72.5" stroke="black" stroke-width="2" fill="none" />
<polyline points="143.0,78.0,151.0,74.5,159.0,75.5" stroke="black" stroke-width="2" fill="none" />
<polyline points="153.5,76.5,145.5,75.5" stroke="black" stroke-width="2" fill="none" />
<polyline points="150.5,63.5,134.5,64.0" stroke="black" stroke-width="2" fill="none" />
<polyline points="136.0,57.5,151.5,57.5" stroke="black" stroke-width="2" fill="none" />
<polyline points="149.5,92.5,150.5,90.5,157.0,93.0" stroke="black" stroke-width="2" fill="none" />
<polyline points="160.0,94.0,165.0,102.0,157.0,106.0,149.0,102.0" stroke="black" stroke-width="2" fill="none" />
<polyline points="133.0,111.5,116.5,110.0,100.0,111.0" stroke="black" stroke-width="2" fill="none" />
<polyline points="96.0,109.0,104.0,109.0,110.5,122.0,115.0,124.0,123.0,118.5,131.5,116.0,144.5,115.0,147.5,121.0,154.5,125.0,155.5,116.0,163.5,112.0,173.5,119.0,175.5,113.5,179.5,107.5,187.5,103.5,195.5,103.0" stroke="black" stroke-width="2" fill="none" />
<polyline points="197.5,103.0,203.5,111.5,201.5,120.0,203.0,131.0,203.5,131.5,208.0,128.5,218.0,132.5,226.0,130.5" stroke="black" stroke-width="2" fill="none" />
<polyline points="212.0,137.0,209.0,129.0" stroke="black" stroke-width="2" fill="none" />
<polyline points="202.5,105.5,186.5,105.5" stroke="black" stroke-width="2" fill="none" />
<polyline points="186.0,104.5,183.0,111.0,183.0,118.5,192.0,119.5,201.0,130.0,198.0,138.0,203.0,138.0,207.0,144.0,200.5,150.0,197.0,158.0,190.0,166.0,187.0,174.0,189.0,178.5,185.0,179.5,174.0,182.5,165.0,191.0,159.0,196.0,161.0,198.0,165.0,206.5,163.5,215.0,172.5,218.0,168.5,226.0,171.5,230.5,172.5,239.5,167.0,247.0,163.0,251.0,171.0,256.0,162.0,266.0,158.0,272.0,148.0,273.0,155.5,274.0,170.0,260.0,178.0,262.5,186.0,254.5,192.0,255.0" stroke="black" stroke-width="2" fill="none" />
<polyline points="195.5,328.0,192.5,335.5" stroke="black" stroke-width="2" fill="none" />
<polyline points="165.5,338.0,165.5,346.0,164.5,354.0,165.0,362.0,165.5,370.0,166.5,378.0,165.5,386.0,167.0,394.0,166.5,402.0,166.5,409.5,166.0,417.5" stroke="black" stroke-width="2" fill="none" />
<polyline points="218.5,415.5,219.5,408.0,219.5,399.5,218.5,391.0,219.5,382.5,219.5,374.5,219.5,366.5" stroke="black" stroke-width="2" fill="none" />
<polyline points="240.5,347.5,248.5,338.0,256.0,335.5,264.0,335.5,271.5,336.5,273.5,344.0,270.5,352.0,264.5,360.0,260.5,370.5,256.0,379.0,260.0,388.0,250.0,398.0,257.5,399.0,265.5,395.5,270.5,383.5,275.5,377.5,280.0,370.0,288.0,358.0,289.0,357.0,283.5,365.0,273.0,377.0,268.5,385.0,268.5,393.0,257.5,400.5,261.5,400.5,269.5,402.0,277.5,398.5,280.5,392.5,288.5,391.5,301.0,390.5,309.0,390.5,317.0,391.0,325.5,391.0,333.5,391.5,341.5,391.5,349.5,391.5,357.5,391.5,365.0,392.0,373.0,392.0,381.5,392.0,389.5,392.0,397.5,392.0,405.0,392.5,412.5,392.0,420.5,392.0,428.5,392.0,436.5,392.0" stroke="black" stroke-width="2" fill="none" />
<polyline points="405.5,449.5,406.0,458.0,406.0,466.0" stroke="black" stroke-width="2" fill="none" />
<polyline points="402.5,491.5,402.5,499.5" stroke="black" stroke-width="2" fill="none" />
<polyline points="412.0,491.5,413.0,499.5,417.5,502.0,419.5,496.5,427.5,497.0,436.5,493.5,445.0,495.0,455.0,493.5,463.0,491.5,472.5,496.0" stroke="black" stroke-width="2" fill="none" />
<polyline points="432.5,506.5,420.0,511.0,415.5,506.0,415.5,498.5,415.5,490.5" stroke="black" stroke-width="2" fill="none" />
<polyline points="264.0,383.0,262.0,385.5,270.0,377.5,272.0,370.5,281.5,361.0,285.5,353.0,279.5,345.0,267.5,337.0" stroke="black" stroke-width="2" fill="none" />
<polyline points="257.5,335.0,241.5,343.5,239.0,351.5,236.0,359.5,237.0,367.5,239.5,368.5,241.5,376.5,248.5,381.0,248.0,388.0,247.0,395.5,250.5,402.5,255.5,401.5,258.5,410.0,264.5,414.5,263.5,422.0,270.0,424.0" stroke="black" stroke-width="2" fill="none" />
<polyline points="220.0,337.0,220.5,328.5" stroke="black" stroke-width="2" fill="none" />
<polyline points="301.5,196.0,293.5,198.0,285.0,199.0,277.5,203.0,269.5,207.0,261.5,216.0,258.5,217.0,255.5,230.0,254.5,233.0,258.0,225.0,261.5,217.5,269.5,207.5,268.0,199.0,266.0,192.5,267.5,184.5,282.5,176.5" stroke="black" stroke-width="2" fill="none" />
<polyline points="271.5,138.5,263.5,142.5,271.5,132.0" stroke="black" stroke-width="2" fill="none" />
<polyline points="243.5,131.5,232.5,140.0,232.0,147.0,230.5,156.0" stroke="black" stroke-width="2" fill="none" />
<polyline points="251.0,103.0,246.5,97.5,238.5,95.0" stroke="black" stroke-width="2" fill="none" />
<polyline points="237.0,89.0,238.0,96.5,237.0,107.5,242.5,101.0" stroke="black" stroke-width="2" fill="none" />
<polyline points="249.5,86.0,241.5,82.0" stroke="black" stroke-width="2" fill="none" />
<polyline points="244.5,90.5,239.0,87.5,234.0,88.0,222.5,99.0,223.0,94.0,224.0,85.5,221.0,79.5,221.0,83.5" stroke="black" stroke-width="2" fill="none" />
<polyline points="164.5,112.5,161.5,120.5,168.0,123.5,173.0,131.0,172.0,139.0,164.5,142.0,169.5,146.5,165.5,148.0,159.0,156.0,157.5,163.5,155.0,172.0,154.0,180.5,153.5,193.0,152.5,205.5,143.0,208.0,151.5,211.0,143.5,213.5,151.5,220.0,147.5,227.5,138.5,235.0,138.5,238.5,150.5,237.5,152.5,236.0,160.0,231.0,163.5,218.5,169.5,224.5,170.0,234.0,177.5,236.5,185.5,239.5,192.5,229.5,196.0,225.5,199.5,230.5" stroke="black" stroke-width="2" fill="none" />
<polyline points="104.5,146.0,88.0,146.5" stroke="black" stroke-width="2" fill="none" />
<polyline points="85.0,144.5,101.5,143.5" stroke="black" stroke-width="2" fill="none" />
<polyline points="95.5,131.0,103.5,125.5,96.0,128.5,96.0,137.0,92.0,145.5,92.5,153.5,83.5,161.5,90.0,162.0,90.0,171.0,93.0,176.0,97.0,171.0,99.5,175.0,107.5,172.0,116.0,171.0,124.0,172.5,130.0,187.5,138.0,183.5,139.0,188.5,147.0,190.5,155.5,191.0,160.5,199.0,163.5,200.0,168.0,206.0,168.5,197.5,170.5,195.0,179.0,188.0,189.0,184.5,195.5,184.5,203.5,183.5,216.5,178.0,225.0,168.0,232.5,167.0,232.5,159.5,235.5,153.5,243.5,145.0,247.5,146.0,236.5,144.0,233.0,151.5,231.0,159.0,239.5,154.0" stroke="black" stroke-width="2" fill="none" />
<polyline points="157.0,100.0,155.0,97.0,147.0,102.0,139.0,105.0,137.5,96.5,129.5,95.0,121.5,99.5,113.5,95.5" stroke="black" stroke-width="2" fill="none" />
<polyline points="116.5,88.0,108.5,96.0,96.5,103.5,105.5,110.5,110.5,118.0,108.5,125.0,115.0,132.0,120.5,140.5,114.0,147.5,115.0,157.0,116.0,165.0,116.0,165.0,127.0,165.0,129.0,176.5,131.5,174.0,139.5,171.0,146.0,164.0,152.0,164.0,163.5,169.0,168.0,170.0,169.0,164.5,178.0,166.5,186.0,168.5,194.5,160.0,203.5,154.0,210.0,154.5,219.5,148.5,225.5,142.5,230.0,140.5,238.0,137.0,246.0,131.0,250.0,140.0,261.5,133.0" stroke="black" stroke-width="2" fill="none" />
<polyline points="167.0,158.5,154.5,161.5,149.0,163.0,148.0,147.0,140.0,145.0,137.0,142.0,131.0,135.0,122.5,137.0,114.5,130.0,107.5,123.5,99.0,124.0" stroke="black" stroke-width="2" fill="none" />
<polyline points="103.5,129.0,99.0,137.0,107.5,144.0,108.5,152.0" stroke="black" stroke-width="2" fill="none" />
<polyline points="89.0,154.5,74.5,154.5" stroke="black" stroke-width="2" fill="none" />
<polyline points="81.5,151.0,81.5,154.0,77.5,162.0" stroke="black" stroke-width="2" fill="none" />
<polyline points="68.0,157.0,70.0,149.0,70.0,141.0" stroke="black" stroke-width="2" fill="none" />
<polyline points="73.0,150.0,79.0,145.5,82.0,137.5" stroke="black" stroke-width="2" fill="none" />
<polyline points="104.5,118.5,121.0,102.0" stroke="black" stroke-width="2" fill="none" />
<polyline points="121.5,106.5,116.0,108.0,111.0,106.5,116.5,105.5,125.5,97.5" stroke="black" stroke-width="2" fill="none" />
<polyline points="102.0,94.0,100.0,91.5,92.0,93.5" stroke="black" stroke-width="2" fill="none" />
<polyline points="79.5,71.0,75.0,79.0,76.5,72.0" stroke="black" stroke-width="2" fill="none" />
<polyline points="40.0,125.0,23.0,125.5" stroke="black" stroke-width="2" fill="none" />
<polyline points="23.0,124.5,16.5,120.5,23.5,118.5" stroke="black" stroke-width="2" fill="none" />
<polyline points="27.0,119.5,23.0,127.5,23.5,137.5,16.0,146.5,20.5,152.0,22.5,152.5,16.0,156.5,22.0,156.0,30.5,152.0,38.5,148.0,42.5,133.0,51.5,137.5,53.5,140.0,61.5,140.0,70.0,140.0,83.5,138.0,91.5,139.0,99.5,131.5,107.0,131.0,108.0,145.0,116.0,147.0,124.0,147.0,130.5,152.0,133.5,170.0" stroke="black" stroke-width="2" fill="none" />
<polyline points="63.5,212.0,61.5,213.5,58.5,210.5,63.0,202.0,61.0,198.0,57.0,203.0" stroke="black" stroke-width="2" fill="none" />
<polyline points="26.5,254.0,11.5,255.0" stroke="black" stroke-width="2" fill="none" />
<polyline points="2.0,150.0,10.0,150.0,16.5,147.0" stroke="black" stroke-width="2" fill="none" />
<polyline points="22.5,145.5,18.0,144.0,10.5,145.5,2.5,148.5" stroke="black" stroke-width="2" fill="none" />
<polyline points="26.5,131.5,20.5,128.0,18.0,128.0,14.0,123.0,16.0,115.0" stroke="black" stroke-width="2" fill="none" />
<polyline points="12.0,113.5,9.5,116.5,5.5,118.5,8.5,114.5,15.0,114.5,20.5,117.5,26.5,120.0,31.5,123.0,40.5,123.5,37.0,132.0,36.0,140.0,38.0,148.0" stroke="black" stroke-width="2" fill="none" />
<polyline points="53.0,139.0,50.5,131.5" stroke="black" stroke-width="2" fill="none" />
</svg>