<svg xmlns="http://www.w3.org/2000/svg" version="1.1"><polyline points="206.5,1.5,208.5,10.0,206.5,17.5,199.5,25.5" stroke="black" stroke-width="2" fill="none" />
<polyline points="196.0,28.0,212.5,27.5,229.0,27.5,245.0,27.5,260.5,27.5,276.5,27.0,292.0,26.5,308.0,26.0" stroke="black" stroke-width="2" fill="none" />
<polyline points="298.5,30.5,295.0,31.5,301.5,30.5,296.5,21.5" stroke="black" stroke-width="2" fill="none" />
<polyline points="299.0,16.5,306.5,13.5" stroke="black" stroke-width="2" fill="none" />
<polyline points="312.0,11.0,296.0,12.5,280.0,13.5,263.5,14.5,247.5,15.0" stroke="black" stroke-width="2" fill="none" />
<polyline points="249.0,17.5,257.0,9.5,253.0,12.5,248.5,20.5,255.0,23.0,254.0,24.0,261.0,23.0" stroke="black" stroke-width="2" fill="none" />
<polyline points="271.5,19.0,271.5,11.0,272.5,3.0" stroke="black" stroke-width="2" fill="none" />
<polyline points="262.5,3.0,264.0,10.5,262.0,18.5" stroke="black" stroke-width="2" fill="none" />
<polyline points="271.5,53.0,271.5,61.5,272.5,69.5,274.5,77.5,275.0,86.5,276.0,94.0,277.0,102.0,279.0,110.0,280.5,118.5,280.5,126.5,281.5,134.5,281.5,142.5,280.0,150.5,283.0,158.5,285.5,166.5,290.5,174.5,300.5,183.0,298.5,191.0,296.0,199.5,293.5,207.5,289.5,216.0,288.5,223.5,286.5,231.5,281.0,239.5,284.0,247.5,290.5,254.0" stroke="black" stroke-width="2" fill="none" />
<polyline points="296.0,246.5,281.0,261.5" stroke="black" stroke-width="2" fill="none" />
<polyline points="296.5,261.5,313.0,260.5,328.5,259.5,343.5,258.5" stroke="black" stroke-width="2" fill="none" />
<polyline points="339.5,267.0,323.0,282.5,307.0,296.5,290.5,310.5,274.0,325.5,257.5,339.5" stroke="black" stroke-width="2" fill="none" />
<polyline points="262.5,333.0,279.0,333.0,294.0,331.5,310.0,330.0,326.0,330.0,341.5,329.0,357.0,328.0,373.0,326.5,388.5,325.5,404.5,325.0,421.5,324.5,438.0,325.0,454.0,325.0" stroke="black" stroke-width="2" fill="none" />
<polyline points="452.0,323.0,469.5,322.0,486.0,322.0,502.0,321.0,518.0,319.5" stroke="black" stroke-width="2" fill="none" />
<polyline points="519.0,308.0,503.0,323.5,486.5,340.0" stroke="black" stroke-width="2" fill="none" />
<polyline points="473.5,341.0,490.0,325.0,505.5,309.0" stroke="black" stroke-width="2" fill="none" />
<polyline points="511.5,316.5,503.0,321.5" stroke="black" stroke-width="2" fill="none" />
<polyline points="499.5,332.0,507.5,338.0" stroke="black" stroke-width="2" fill="none" />
<polyline points="504.5,336.5,488.0,337.5,471.5,338.5" stroke="black" stroke-width="2" fill="none" />
<polyline points="469.0,330.5,485.5,330.5,501.5,330.0,518.0,330.0" stroke="black" stroke-width="2" fill="none" />
<polyline points="521.5,313.5,504.5,314.0,487.0,315.0,470.0,316.5,454.5,317.0" stroke="black" stroke-width="2" fill="none" />
<polyline points="454.0,328.5,468.5,314.0,484.5,299.5,501.5,285.0" stroke="black" stroke-width="2" fill="none" />
<polyline points="506.0,296.0,490.5,311.5,473.5,327.5" stroke="black" stroke-width="2" fill="none" />
<polyline points="487.5,308.0,501.5,305.0,507.5,313.0,502.0,323.0,501.0,331.5,505.0,339.5" stroke="black" stroke-width="2" fill="none" />
<polyline points="495.0,311.5,496.0,303.5,490.0,294.0,497.0,282.0,489.5,283.0,481.5,278.5" stroke="black" stroke-width="2" fill="none" />
<polyline points="486.0,278.0,470.0,293.5,454.0,309.5" stroke="black" stroke-width="2" fill="none" />
<polyline points="459.5,306.0,475.0,305.0,491.0,305.0" stroke="black" stroke-width="2" fill="none" />
<polyline points="492.0,307.5,493.0,315.5" stroke="black" stroke-width="2" fill="none" />
<polyline points="501.0,304.5,493.0,296.5,490.0,289.5,482.0,290.5" stroke="black" stroke-width="2" fill="none" />
<polyline points="487.5,272.5,495.5,273.5,499.5,272.5,507.5,281.0,508.0,283.0" stroke="black" stroke-width="2" fill="none" />
<polyline points="519.0,299.5,502.5,299.5,486.0,299.0,470.0,298.0,454.0,299.0" stroke="black" stroke-width="2" fill="none" />
<polyline points="454.0,289.5,471.0,274.0,488.0,258.5" stroke="black" stroke-width="2" fill="none" />
<polyline points="486.5,249.0,471.0,250.0,455.0,251.0,438.0,251.5" stroke="black" stroke-width="2" fill="none" />
<polyline points="439.5,249.0,456.0,233.0" stroke="black" stroke-width="2" fill="none" />
<polyline points="454.5,246.0,469.5,245.5" stroke="black" stroke-width="2" fill="none" />
<polyline points="473.5,246.0,457.5,261.5,441.5,276.5" stroke="black" stroke-width="2" fill="none" />
<polyline points="440.0,278.0,456.0,278.0,472.0,278.0,489.0,278.0,506.5,278.5" stroke="black" stroke-width="2" fill="none" />
<polyline points="505.5,287.5,490.5,288.0,475.5,288.0,460.5,288.5,445.5,288.5" stroke="black" stroke-width="2" fill="none" />
<polyline points="438.5,292.0,454.5,276.0,471.0,259.0,487.5,243.5" stroke="black" stroke-width="2" fill="none" />
<polyline points="481.5,242.0,489.5,244.0,498.0,247.5,501.0,255.5,504.0,263.0" stroke="black" stroke-width="2" fill="none" />
<polyline points="505.5,266.5,498.0,267.0,493.0,263.0,486.0,260.0,480.0,266.0,479.0,277.0,481.0,273.0,485.5,265.5,485.0,257.5,480.0,256.5,485.5,249.0,474.0,245.5,482.0,229.5,483.0,223.5,479.0,222.5,477.0,215.5,469.5,217.5,459.5,220.5,456.5,208.0,445.5,200.0,438.0,191.0,434.0,177.0,422.5,175.5,419.5,168.0,414.5,166.0,402.5,160.0" stroke="black" stroke-width="2" fill="none" />
<polyline points="405.0,156.5,413.0,156.5" stroke="black" stroke-width="2" fill="none" />
<polyline points="415.0,167.0,417.0,175.0,421.0,183.0" stroke="black" stroke-width="2" fill="none" />
<polyline points="421.5,181.5,437.5,181.5" stroke="black" stroke-width="2" fill="none" />
<polyline points="440.0,183.5,424.5,198.0" stroke="black" stroke-width="2" fill="none" />
<polyline points="417.5,197.5,418.5,208.5,422.0,216.0,415.0,228.0,409.0,236.0,399.0,243.5,399.0,232.5,404.5,240.0,412.5,230.0,415.0,230.5,423.0,229.5" stroke="black" stroke-width="2" fill="none" />
<polyline points="419.0,231.5,426.5,248.0" stroke="black" stroke-width="2" fill="none" />
<polyline points="424.0,250.0,438.0,233.5,453.5,217.0" stroke="black" stroke-width="2" fill="none" />
<polyline points="452.5,228.5,435.0,229.5" stroke="black" stroke-width="2" fill="none" />
<polyline points="438.0,220.5,446.0,219.0,454.0,210.0" stroke="black" stroke-width="2" fill="none" />
<polyline points="455.5,210.5,439.5,210.5" stroke="black" stroke-width="2" fill="none" />
<polyline points="435.5,215.0,452.5,199.5,469.5,184.5" stroke="black" stroke-width="2" fill="none" />
<polyline points="472.0,189.0,456.0,189.5" stroke="black" stroke-width="2" fill="none" />
<polyline points="458.0,178.0,469.0,181.0,470.5,189.0,473.5,196.5,474.5,204.0,468.5,211.5,465.5,220.0,472.0,222.0,472.0,221.5,474.0,223.5" stroke="black" stroke-width="2" fill="none" />
<polyline points="471.0,228.5,454.5,245.0,438.0,260.0" stroke="black" stroke-width="2" fill="none" />
<polyline points="437.5,259.5,453.0,259.0,470.0,258.0" stroke="black" stroke-width="2" fill="none" />
<polyline points="485.5,267.0,469.5,266.5,454.0,266.0,437.5,265.0,421.0,265.0" stroke="black" stroke-width="2" fill="none" />
<polyline points="408.0,278.0,392.0,294.0,375.5,310.0,359.0,325.0,343.5,339.5" stroke="black" stroke-width="2" fill="none" />
<polyline points="406.5,343.0,423.0,327.5" stroke="black" stroke-width="2" fill="none" />
<polyline points="424.5,316.5,408.5,331.5,392.5,346.5" stroke="black" stroke-width="2" fill="none" />
<polyline points="376.0,342.5,391.5,327.0,406.5,312.0,422.5,297.5" stroke="black" stroke-width="2" fill="none" />
<polyline points="420.5,297.0,404.5,297.5,388.5,297.5,373.0,297.5,358.0,297.5,343.0,297.0,328.5,297.0,313.0,297.0,297.5,297.0,281.5,297.0,265.5,297.0" stroke="black" stroke-width="2" fill="none" />
<polyline points="264.0,294.0,280.5,278.5,297.0,262.0,312.5,245.5,329.5,229.0" stroke="black" stroke-width="2" fill="none" />
<polyline points="342.0,231.5,325.5,247.5,310.0,263.0,294.0,278.5,277.0,294.0,261.0,309.0" stroke="black" stroke-width="2" fill="none" />
<polyline points="263.0,315.5,279.0,316.0,296.0,315.5,312.0,315.0,328.5,314.0,344.0,312.5,359.5,312.0,375.0,313.0,391.0,312.5,406.5,311.0,422.5,310.0,438.0,310.5" stroke="black" stroke-width="2" fill="none" />
<polyline points="420.5,319.0,405.5,319.0,389.5,319.5,374.0,320.5,358.0,322.0,343.5,322.0,329.0,321.5,313.5,321.0,297.5,321.0,282.0,321.5" stroke="black" stroke-width="2" fill="none" />
<polyline points="279.0,307.5,296.0,307.5,312.0,307.5,326.5,307.5,341.0,306.5,356.5,304.5,372.0,304.5,388.0,304.0,405.0,303.0" stroke="black" stroke-width="2" fill="none" />
<polyline points="404.5,292.5,388.0,308.5,371.5,323.5,355.5,339.5" stroke="black" stroke-width="2" fill="none" />
<polyline points="331.0,341.5,346.5,325.5,362.5,310.0,379.0,295.5,396.0,280.0" stroke="black" stroke-width="2" fill="none" />
<polyline points="389.0,271.5,373.5,272.5,358.0,273.0,343.5,274.0,329.0,274.5,314.5,274.5,298.5,274.0" stroke="black" stroke-width="2" fill="none" />
<polyline points="267.0,275.5,250.5,290.5" stroke="black" stroke-width="2" fill="none" />
<polyline points="254.5,293.5,246.0,294.0,237.5,294.5,229.0,294.5,221.0,296.0,212.5,298.0,203.5,302.0,195.0,301.0,193.0,306.0,185.5,301.0" stroke="black" stroke-width="2" fill="none" />
<polyline points="180.0,298.5,195.5,299.0" stroke="black" stroke-width="2" fill="none" />
<polyline points="197.5,296.0,213.0,295.5" stroke="black" stroke-width="2" fill="none" />
<polyline points="216.0,301.5,208.0,301.5" stroke="black" stroke-width="2" fill="none" />
<polyline points="201.0,294.5,217.0,279.0" stroke="black" stroke-width="2" fill="none" />
<polyline points="218.0,279.0,210.0,280.0,212.0,282.0,222.0,285.5,230.5,286.0,239.0,286.0,247.0,287.5,255.0,285.5,267.0,283.5" stroke="black" stroke-width="2" fill="none" />
<polyline points="266.5,289.0,281.5,288.0,297.0,288.0,312.0,287.5,326.5,287.5,341.0,288.0,357.0,287.5,372.5,287.0,388.0,287.5,403.0,288.0" stroke="black" stroke-width="2" fill="none" />
<polyline points="409.0,280.0,392.5,281.5,377.0,281.0,361.5,280.5,346.0,281.0,330.5,282.0,313.5,283.0,297.0,283.5,279.5,283.0,263.0,282.5,247.0,282.5,231.0,283.0" stroke="black" stroke-width="2" fill="none" />
<polyline points="235.5,293.0,252.0,278.0" stroke="black" stroke-width="2" fill="none" />
<polyline points="262.5,274.0,258.5,282.0,264.0,291.0,261.0,298.5,261.0,309.0,264.0,317.0,264.0,325.0" stroke="black" stroke-width="2" fill="none" />
<polyline points="277.0,341.5,293.5,326.0,310.0,311.0,327.0,295.5,343.5,279.5,359.0,264.5" stroke="black" stroke-width="2" fill="none" />
<polyline points="366.0,268.0,374.0,266.0" stroke="black" stroke-width="2" fill="none" />
<polyline points="377.5,264.5,361.5,279.5,345.5,295.0,329.0,310.0,312.0,324.5,296.0,339.0" stroke="black" stroke-width="2" fill="none" />
<polyline points="279.0,342.0,295.5,341.0,312.5,340.5,328.5,339.5,344.5,339.0,360.0,338.0,375.0,338.5,389.5,338.0,405.0,337.0" stroke="black" stroke-width="2" fill="none" />
<polyline points="410.0,334.0,408.0,340.0,411.0,332.0" stroke="black" stroke-width="2" fill="none" />
<polyline points="417.0,302.5,419.0,294.5" stroke="black" stroke-width="2" fill="none" />
<polyline points="431.5,296.0,423.5,308.5,427.0,305.5,431.5,297.5,436.0,290.0" stroke="black" stroke-width="2" fill="none" />
<polyline points="439.0,271.5,455.0,271.5,471.0,271.5,487.0,271.5" stroke="black" stroke-width="2" fill="none" />
<polyline points="496.5,264.5,492.0,266.0,489.0,271.0,491.0,278.5,487.0,285.5,477.0,290.0,485.0,288.0,493.0,288.5,497.0,290.0,505.5,288.5,505.5,291.5" stroke="black" stroke-width="2" fill="none" />
<polyline points="503.5,245.5,519.5,229.5" stroke="black" stroke-width="2" fill="none" />
<polyline points="517.5,236.0,501.5,236.0" stroke="black" stroke-width="2" fill="none" />
<polyline points="502.5,227.5,518.5,212.0" stroke="black" stroke-width="2" fill="none" />
<polyline points="517.0,198.0,500.5,214.0" stroke="black" stroke-width="2" fill="none" />
<polyline points="504.0,205.5,520.5,205.5" stroke="black" stroke-width="2" fill="none" />
<polyline points="500.0,198.0,516.5,182.0" stroke="black" stroke-width="2" fill="none" />
<polyline points="523.5,179.0,507.0,180.0" stroke="black" stroke-width="2" fill="none" />
<polyline points="518.5,166.5,502.0,181.5,485.5,196.5" stroke="black" stroke-width="2" fill="none" />
<polyline points="488.0,194.0,496.0,217.0,504.0,235.0,510.5,252.0" stroke="black" stroke-width="2" fill="none" />
<polyline points="504.5,224.0,520.0,223.0" stroke="black" stroke-width="2" fill="none" />
<polyline points="519.0,188.5,502.5,189.5,487.0,190.5" stroke="black" stroke-width="2" fill="none" />
<polyline points="489.5,180.0,506.5,165.0,523.0,149.5" stroke="black" stroke-width="2" fill="none" />
<polyline points="520.5,145.5,505.5,146.0" stroke="black" stroke-width="2" fill="none" />
<polyline points="517.5,132.5,502.5,148.0,487.0,164.0" stroke="black" stroke-width="2" fill="none" />
<polyline points="489.0,166.0,505.0,165.5,520.0,165.0" stroke="black" stroke-width="2" fill="none" />
<polyline points="520.0,173.0,504.0,173.0,488.0,172.5" stroke="black" stroke-width="2" fill="none" />
<polyline points="474.5,170.5,458.0,170.5" stroke="black" stroke-width="2" fill="none" />
<polyline points="456.5,170.5,465.5,176.5,468.5,185.0,463.5,188.5,466.5,190.5,467.0,199.0,475.0,209.0,483.5,210.0" stroke="black" stroke-width="2" fill="none" />
<polyline points="480.0,208.0,479.0,199.0,476.0,189.0,472.5,187.0,463.5,183.0,461.5,185.0,453.0,193.5,458.0,189.0,460.0,180.5,455.5,176.5" stroke="black" stroke-width="2" fill="none" />
<polyline points="448.0,180.5,452.0,169.5,454.0,171.5,457.0,180.0,452.5,188.0,451.5,194.5,459.5,199.5,458.5,208.5,460.0,213.5,444.0,220.5,448.0,227.5,452.0,235.5,447.0,236.5" stroke="black" stroke-width="2" fill="none" />
<polyline points="438.0,242.0,421.5,241.5" stroke="black" stroke-width="2" fill="none" />
<polyline points="422.5,235.0,438.0,235.5,453.5,234.5,469.0,233.5,485.5,233.5" stroke="black" stroke-width="2" fill="none" />
<polyline points="478.5,233.0,486.0,233.5,487.0,230.5,479.0,240.5" stroke="black" stroke-width="2" fill="none" />
<polyline points="471.0,232.5,470.0,237.5,469.0,245.5,469.5,248.5,479.5,251.5,487.5,252.5" stroke="black" stroke-width="2" fill="none" />
<polyline points="455.5,273.0,460.5,282.5,465.0,290.5,464.5,288.5" stroke="black" stroke-width="2" fill="none" />
<polyline points="464.5,284.5,456.5,277.5" stroke="black" stroke-width="2" fill="none" />
<polyline points="453.0,220.0,437.0,221.0,420.5,222.0" stroke="black" stroke-width="2" fill="none" />
<polyline points="410.0,224.5,402.0,230.0" stroke="black" stroke-width="2" fill="none" />
<polyline points="414.0,234.0,404.0,242.0,411.5,249.0,414.5,252.0,413.5,265.0,411.5,273.0" stroke="black" stroke-width="2" fill="none" />
<polyline points="406.5,258.0,399.0,256.0,396.0,263.5,396.0,268.5" stroke="black" stroke-width="2" fill="none" />
<polyline points="396.0,266.5,379.5,282.0,362.5,296.0,345.5,310.5,330.0,325.0,313.5,341.0" stroke="black" stroke-width="2" fill="none" />
<polyline points="261.0,326.0,276.5,311.0,292.5,296.0,308.5,280.5,324.5,264.5,341.0,248.0" stroke="black" stroke-width="2" fill="none" />
<polyline points="340.5,243.0,323.5,243.0,307.0,243.0" stroke="black" stroke-width="2" fill="none" />
<polyline points="294.5,231.0,279.5,247.0,264.0,263.0" stroke="black" stroke-width="2" fill="none" />
<polyline points="263.5,266.0,279.5,265.5,295.5,265.0,311.0,264.0,326.5,263.0,342.0,263.5,358.0,264.0,374.0,265.5,390.0,266.0" stroke="black" stroke-width="2" fill="none" />
<polyline points="389.5,259.5,392.5,260.5,385.5,268.5,392.0,270.5,392.0,278.5" stroke="black" stroke-width="2" fill="none" />
<polyline points="392.0,281.5,384.0,282.0,381.0,280.0,373.0,279.0" stroke="black" stroke-width="2" fill="none" />
<polyline points="375.5,252.5,373.0,260.5,369.0,263.0,377.5,255.5,381.5,248.5,396.0,252.5,403.0,251.5,406.0,248.5,413.0,255.0" stroke="black" stroke-width="2" fill="none" />
<polyline points="424.0,252.5,409.0,252.5,393.0,253.0" stroke="black" stroke-width="2" fill="none" />
<polyline points="385.5,243.5,385.0,251.5,380.5,247.0,386.5,253.5,380.5,257.0,371.5,265.5,373.5,276.5,382.0,278.5,384.0,283.5,388.0,284.5,387.0,294.5,391.0,289.0,391.5,293.5,392.5,295.5,400.5,297.0,408.5,306.5" stroke="black" stroke-width="2" fill="none" />
<polyline points="385.0,243.5,393.0,250.0,405.0,243.0,412.5,238.0,419.5,238.5" stroke="black" stroke-width="2" fill="none" />
<polyline points="417.0,233.5,419.0,242.0,415.0,244.0,420.0,252.0,417.5,257.0,425.5,262.5,424.5,271.0,421.0,271.0,415.0,279.0,405.5,288.0" stroke="black" stroke-width="2" fill="none" />
<polyline points="378.5,243.0,362.5,243.5,346.0,245.5,329.0,247.5,313.5,248.5,297.0,248.5,280.5,247.5,264.5,247.5,249.5,248.5,233.5,249.5,216.5,250.0,199.0,250.5,182.5,251.5,166.5,253.5,151.0,254.0" stroke="black" stroke-width="2" fill="none" />
<polyline points="153.5,262.5,169.5,247.5" stroke="black" stroke-width="2" fill="none" />
<polyline points="170.5,261.0,187.0,246.0" stroke="black" stroke-width="2" fill="none" />
<polyline points="202.0,249.0,185.5,264.0" stroke="black" stroke-width="2" fill="none" />
<polyline points="189.0,272.5,181.0,273.0" stroke="black" stroke-width="2" fill="none" />
<polyline points="179.0,286.5,195.5,286.0,212.5,285.0" stroke="black" stroke-width="2" fill="none" />
<polyline points="206.0,284.5,198.0,281.5,190.0,288.0,192.5,278.0,184.0,285.5,175.5,285.5,168.0,285.5" stroke="black" stroke-width="2" fill="none" />
<polyline points="172.5,287.0,180.5,288.0,189.5,287.0,199.5,287.0,208.0,286.5,216.0,281.0,224.0,283.0,232.0,284.0,240.0,283.0,248.0,283.5,256.0,282.0,258.0,271.0,267.5,275.0" stroke="black" stroke-width="2" fill="none" />
<polyline points="270.0,282.5,268.5,274.5,264.0,269.5,259.0,267.5,259.0,263.5" stroke="black" stroke-width="2" fill="none" />
<polyline points="251.5,244.0,267.0,228.0,282.5,211.5,299.0,194.5,315.5,178.5" stroke="black" stroke-width="2" fill="none" />
<polyline points="319.5,181.5,327.5,181.5,330.5,185.0,332.5,180.5,333.5,176.5,341.5,173.0,342.5,177.0,347.0,181.0,349.0,180.5" stroke="black" stroke-width="2" fill="none" />
<polyline points="343.0,182.5,327.0,182.5,310.5,183.5,293.5,184.0,276.5,184.5,260.0,186.0,244.0,187.5,228.5,188.0" stroke="black" stroke-width="2" fill="none" />
<polyline points="234.0,182.5,250.5,167.5,266.5,153.0,282.0,137.0" stroke="black" stroke-width="2" fill="none" />
<polyline points="279.0,153.0,262.5,168.5,248.0,182.5" stroke="black" stroke-width="2" fill="none" />
<polyline points="245.0,195.0,260.5,180.0,276.5,164.5" stroke="black" stroke-width="2" fill="none" />
<polyline points="283.5,157.5,291.5,165.5" stroke="black" stroke-width="2" fill="none" />
<polyline points="294.0,162.0,278.0,177.0,263.5,193.0,248.5,209.0" stroke="black" stroke-width="2" fill="none" />
<polyline points="249.5,198.0,265.0,197.0" stroke="black" stroke-width="2" fill="none" />
<polyline points="294.5,200.0,279.0,200.5,263.5,202.0,247.5,203.0,232.0,204.0" stroke="black" stroke-width="2" fill="none" />
<polyline points="232.0,218.5,249.0,218.0,265.5,218.0,282.0,219.0,299.0,219.5" stroke="black" stroke-width="2" fill="none" />
<polyline points="298.0,214.0,283.0,229.0,266.0,245.0,249.5,261.0" stroke="black" stroke-width="2" fill="none" />
<polyline points="246.0,239.5,262.0,239.5" stroke="black" stroke-width="2" fill="none" />
<polyline points="252.0,237.0,267.5,236.5,283.0,235.0,298.0,234.0,312.0,233.0,327.5,232.0,342.0,231.5,355.5,231.0" stroke="black" stroke-width="2" fill="none" />
<polyline points="357.5,231.5,351.5,239.5,347.0,247.5,353.0,238.5,361.0,229.5" stroke="black" stroke-width="2" fill="none" />
<polyline points="364.5,231.5,366.0,239.5,368.0,247.5,368.5,247.5,379.5,235.0,391.5,240.0" stroke="black" stroke-width="2" fill="none" />
<polyline points="378.5,216.0,394.0,201.5" stroke="black" stroke-width="2" fill="none" />
<polyline points="392.5,203.5,376.0,204.5" stroke="black" stroke-width="2" fill="none" />
<polyline points="376.0,206.5,384.0,204.5,390.5,206.5" stroke="black" stroke-width="2" fill="none" />
<polyline points="390.5,205.5,393.5,214.0" stroke="black" stroke-width="2" fill="none" />
<polyline points="390.0,218.0,388.0,210.0" stroke="black" stroke-width="2" fill="none" />
<polyline points="382.5,205.5,378.5,213.5" stroke="black" stroke-width="2" fill="none" />
<polyline points="359.5,218.0,343.5,218.0,328.0,218.0,312.0,219.0" stroke="black" stroke-width="2" fill="none" />
<polyline points="314.0,225.0,321.5,223.0" stroke="black" stroke-width="2" fill="none" />
<polyline points="317.5,206.5,322.0,206.0,324.0,214.0,324.0,222.0,327.5,225.0,332.0,233.5,338.0,241.5,343.0,249.5,343.0,257.5,348.0,258.0,356.0,256.0,363.5,258.5,366.0,254.5,374.0,252.5,381.0,257.0,389.5,252.5,397.0,247.5,405.0,245.5,413.0,241.5,414.5,252.5" stroke="black" stroke-width="2" fill="none" />
<polyline points="437.5,230.5,436.0,216.0,439.0,202.0,440.0,194.5,442.0,185.5,447.5,187.5,446.5,180.0,446.5,172.0,442.5,177.5,434.5,172.0" stroke="black" stroke-width="2" fill="none" />
<polyline points="435.0,171.5,418.0,172.5" stroke="black" stroke-width="2" fill="none" />
<polyline points="424.5,178.5,439.0,162.0" stroke="black" stroke-width="2" fill="none" />
<polyline points="437.0,163.5,432.5,165.5,424.5,167.0,416.5,162.0,408.5,165.5,398.5,168.5,393.5,151.0,386.5,145.0,381.0,146.0,372.5,146.0,371.0,143.5,364.0,148.0,364.0,142.5" stroke="black" stroke-width="2" fill="none" />
<polyline points="358.5,141.0,375.0,140.0,391.0,139.0,407.0,138.0" stroke="black" stroke-width="2" fill="none" />
<polyline points="395.5,144.5,396.0,152.5,392.0,154.0,387.5,159.0,391.0,161.5,389.0,169.0,390.0,177.5,400.0,179.0,402.5,191.0,399.0,197.0,398.0,194.0,403.5,198.5,412.0,196.5,414.5,206.5,423.5,210.0,428.5,224.0,437.5,219.5,446.0,213.0,455.0,203.5,464.0,204.5,465.0,207.5,474.0,205.5,480.5,206.0,484.5,219.0,485.5,222.0" stroke="black" stroke-width="2" fill="none" />
<polyline points="466.0,217.0,464.0,209.0" stroke="black" stroke-width="2" fill="none" />
<polyline points="457.5,202.0,440.5,202.0,423.5,202.0,407.0,203.0" stroke="black" stroke-width="2" fill="none" />
<polyline points="413.0,197.5,406.5,199.5,408.5,208.0,414.5,202.0,414.0,214.0,421.0,211.0" stroke="black" stroke-width="2" fill="none" />
<polyline points="434.0,216.5,442.0,209.5" stroke="black" stroke-width="2" fill="none" />
<polyline points="448.0,200.0,450.0,208.0,453.0,221.0,459.0,225.5,462.5,226.5" stroke="black" stroke-width="2" fill="none" />
<polyline points="435.5,188.5,418.5,189.5" stroke="black" stroke-width="2" fill="none" />
<polyline points="423.5,162.0,430.0,171.0,432.0,179.0,435.0,187.5,436.0,194.0,436.5,202.5,436.5,208.5,444.0,204.5,440.5,212.5,440.5,218.5,442.5,231.5" stroke="black" stroke-width="2" fill="none" />
<polyline points="427.5,267.5,420.0,263.5,412.0,267.5,420.0,272.5,412.5,277.5,404.0,279.5,398.0,273.0,395.0,274.5,387.0,268.0,378.0,270.0,373.5,263.5,367.5,260.5,363.0,263.5,357.0,255.5,363.0,247.5,361.0,239.5,361.0,231.0,364.5,223.0,360.5,213.5,355.5,208.5,346.5,211.0,349.5,203.0,349.5,197.5,343.5,189.5,335.5,185.5" stroke="black" stroke-width="2" fill="none" />
<polyline points="346.5,188.0,353.5,181.0,352.5,189.0,356.0,190.5,354.0,198.5,358.0,199.5,363.5,206.0,369.5,208.0,366.0,216.5,359.0,224.5,354.0,232.5,348.0,240.5,349.0,239.5,357.0,227.5,365.0,217.0,373.0,210.0,377.0,203.0,387.5,189.0" stroke="black" stroke-width="2" fill="none" />
<polyline points="380.5,181.0,381.5,189.0,379.0,197.5,376.0,205.5,377.5,208.0,374.5,216.5,377.5,224.5,378.0,233.0,381.0,240.0,389.0,243.0,392.0,245.0,395.0,251.5,402.5,252.5,402.5,259.5,394.5,269.5,402.5,271.0,399.0,283.0,400.0,290.5,405.0,302.5" stroke="black" stroke-width="2" fill="none" />
<polyline points="468.0,338.0,463.0,330.0,457.0,322.0,452.0,314.0,448.0,306.0,444.0,298.0,440.5,290.0,433.5,288.0,425.5,300.5,422.5,303.0,419.0,315.5,420.0,314.5,420.0,305.5,427.0,297.5,431.0,289.0,433.5,281.0,429.0,272.5,429.0,266.5,427.5,258.5,425.5,250.5,422.0,245.5,422.0,237.5,412.0,235.5,410.0,226.5,409.5,222.5,410.0,212.5,418.0,201.5,417.0,187.5,408.0,184.5,406.0,179.5,403.0,171.5,411.0,163.5,414.0,154.5,419.0,143.5,418.0,135.5,413.0,128.0,414.5,122.0,413.5,113.5,411.5,106.0,410.5,98.5,411.5,91.0,412.0,83.0,414.0,75.0,404.0,73.5,406.0,67.5,405.0,59.5,404.5,51.0,402.5,43.5,397.5,35.5,394.0,27.0,379.5,16.0,374.5,8.5,374.5,5.5" stroke="black" stroke-width="2" fill="none" />
<polyline points="379.0,5.0,384.5,13.0,397.0,17.5,398.0,31.5" stroke="black" stroke-width="2" fill="none" />
<polyline points="414.0,33.5,418.0,42.0,420.0,51.5,418.0,59.5,423.0,68.0,425.0,76.0,424.0,86.0,423.0,94.5,421.5,102.5,422.5,110.5,418.0,118.5,422.0,126.5,425.0,134.5,423.0,142.5,422.0,152.5,426.0,157.5,423.0,169.5,425.0,177.0,430.0,190.5,425.0,196.5,425.0,205.0,425.0,213.0,427.5,221.5,429.5,229.5,433.5,234.5,441.5,228.5,448.0,229.0,455.5,236.0,463.5,235.5,471.5,239.5,477.5,246.5,485.5,248.5,493.5,248.0,503.5,249.0,511.5,253.5" stroke="black" stroke-width="2" fill="none" />
<polyline points="472.0,184.5,464.0,175.5" stroke="black" stroke-width="2" fill="none" />
<polyline points="443.0,165.5,444.0,173.5,437.0,176.0,436.5,184.0,440.0,188.5,447.5,196.5,447.5,204.5,454.0,206.5,453.0,212.5,459.0,220.0,455.0,233.0" stroke="black" stroke-width="2" fill="none" />
<polyline points="424.5,187.5,421.5,183.5,414.5,177.5,412.5,167.5,404.0,174.0,398.0,169.5,404.5,152.5,403.0,151.0,412.0,149.5,406.0,146.5,403.0,151.5" stroke="black" stroke-width="2" fill="none" />
<polyline points="394.5,158.5,396.5,166.0,392.5,173.0,395.5,177.5,398.5,183.0" stroke="black" stroke-width="2" fill="none" />
<polyline points="412.5,183.0,401.5,189.0,390.0,183.0,382.0,173.0,379.5,169.0,378.5,158.0,370.5,158.0" stroke="black" stroke-width="2" fill="none" />
<polyline points="368.5,157.0,377.0,155.0,385.0,161.5,394.5,165.5" stroke="black" stroke-width="2" fill="none" />
<polyline points="362.5,168.5,346.0,170.5,329.0,172.5,313.5,173.5" stroke="black" stroke-width="2" fill="none" />
<polyline points="297.5,178.5,281.5,195.0,265.5,211.5,249.0,228.5" stroke="black" stroke-width="2" fill="none" />
<polyline points="233.5,246.0,217.5,262.0" stroke="black" stroke-width="2" fill="none" />
<polyline points="223.0,258.0,231.0,258.0,239.0,259.0,247.0,259.5,255.0,261.5,263.0,259.0,271.0,260.0,279.0,259.0,287.0,259.0" stroke="black" stroke-width="2" fill="none" />
<polyline points="284.5,250.0,292.5,245.0,290.0,235.0,301.0,234.0,307.5,226.0,319.5,218.0,320.5,210.0,318.0,202.0,309.0,208.0" stroke="black" stroke-width="2" fill="none" />
<polyline points="315.5,204.0,331.0,204.0,345.5,203.5" stroke="black" stroke-width="2" fill="none" />
<polyline points="345.5,199.5,353.5,201.0" stroke="black" stroke-width="2" fill="none" />
<polyline points="354.0,207.5,362.0,210.0" stroke="black" stroke-width="2" fill="none" />
<polyline points="346.0,193.5,354.0,195.5,355.0,187.5" stroke="black" stroke-width="2" fill="none" />
<polyline points="344.5,150.0,328.5,149.5,313.0,149.5,296.5,149.5,280.5,150.0,264.0,150.5,247.0,150.5,231.0,151.5" stroke="black" stroke-width="2" fill="none" />
<polyline points="233.0,151.0,249.5,136.0" stroke="black" stroke-width="2" fill="none" />
<polyline points="249.5,151.5,265.5,136.5,281.5,120.5" stroke="black" stroke-width="2" fill="none" />
<polyline points="293.5,111.5,310.0,110.5,326.0,109.0" stroke="black" stroke-width="2" fill="none" />
<polyline points="315.0,107.0,323.5,104.0,331.5,117.0,331.5,122.0,332.0,129.0,329.5,131.0,329.0,139.0,322.0,150.0,331.5,147.0,338.0,154.5,351.0,159.5,351.0,172.0" stroke="black" stroke-width="2" fill="none" />
<polyline points="333.0,145.5,333.0,139.0,331.5,145.0,332.5,153.0,338.5,153.0,342.5,155.5,349.5,164.5,350.5,172.0,341.0,175.0,341.5,185.0,339.5,192.5,343.5,200.5,337.0,209.0,344.0,206.0,347.5,211.0,355.5,205.5,360.5,212.5,368.0,224.5,371.0,232.5,372.5,240.5,378.5,229.5" stroke="black" stroke-width="2" fill="none" />
<polyline points="401.0,212.0,403.0,220.0,411.0,215.5,419.0,218.0" stroke="black" stroke-width="2" fill="none" />
<polyline points="481.0,154.5,489.0,146.5" stroke="black" stroke-width="2" fill="none" />
<polyline points="484.5,153.5,500.5,153.5,517.0,154.0" stroke="black" stroke-width="2" fill="none" />
<polyline points="497.5,138.0,513.0,123.0" stroke="black" stroke-width="2" fill="none" />
<polyline points="518.5,114.5,502.0,115.5" stroke="black" stroke-width="2" fill="none" />
<polyline points="490.5,119.0,506.5,119.0,522.5,119.5" stroke="black" stroke-width="2" fill="none" />
<polyline points="514.0,103.0,498.5,119.0,483.0,134.0" stroke="black" stroke-width="2" fill="none" />
<polyline points="484.0,137.0,500.0,136.0,515.5,135.5" stroke="black" stroke-width="2" fill="none" />
<polyline points="517.5,128.0,502.0,127.5,485.5,128.0" stroke="black" stroke-width="2" fill="none" />
<polyline points="484.5,115.5,500.5,100.5,516.0,85.0" stroke="black" stroke-width="2" fill="none" />
<polyline points="520.5,83.5,504.5,84.0" stroke="black" stroke-width="2" fill="none" />
<polyline points="500.5,86.5,517.0,71.5" stroke="black" stroke-width="2" fill="none" />
<polyline points="520.5,70.5,504.0,72.0" stroke="black" stroke-width="2" fill="none" />
<polyline points="502.5,73.5,518.5,58.0" stroke="black" stroke-width="2" fill="none" />
<polyline points="503.0,54.5,519.5,39.0" stroke="black" stroke-width="2" fill="none" />
<polyline points="505.5,39.0,521.0,23.0" stroke="black" stroke-width="2" fill="none" />
<polyline points="522.5,30.0,506.5,30.5" stroke="black" stroke-width="2" fill="none" />
<polyline points="508.0,27.5,523.5,27.0" stroke="black" stroke-width="2" fill="none" />
<polyline points="522.0,21.5,507.0,22.5" stroke="black" stroke-width="2" fill="none" />
<polyline points="505.5,19.5,521.0,4.0" stroke="black" stroke-width="2" fill="none" />
<polyline points="520.5,14.0,504.5,14.5" stroke="black" stroke-width="2" fill="none" />
<polyline points="494.5,1.5,496.5,9.5,497.0,17.5,496.0,26.0,495.0,34.5,493.0,43.0,499.0,51.0,495.0,59.0,483.0,64.0,487.5,72.5,492.5,80.5,490.5,88.0,487.5,96.0,486.5,104.5,481.5,112.0,481.0,120.0,487.5,128.0,489.0,136.0,490.0,143.5,485.5,151.5,478.5,154.5,480.5,162.5,483.5,170.5,485.0,178.0,485.5,186.0,488.0,194.0,489.5,202.0,492.0,210.0,494.5,217.5,497.5,225.5,501.5,233.5,505.5,241.5,509.0,249.0,509.0,257.0,506.0,264.5,500.0,271.5,498.0,273.0,505.0,281.0,503.5,291.0" stroke="black" stroke-width="2" fill="none" />
<polyline points="459.5,123.5,444.0,124.0" stroke="black" stroke-width="2" fill="none" />
<polyline points="437.5,108.5,453.5,107.5" stroke="black" stroke-width="2" fill="none" />
<polyline points="456.0,97.5,448.0,96.5,453.0,92.5,451.0,84.5,453.5,76.5,451.5,88.0" stroke="black" stroke-width="2" fill="none" />
<polyline points="462.5,83.0,463.5,91.0" stroke="black" stroke-width="2" fill="none" />
<polyline points="463.0,93.5,456.0,93.5,459.0,85.5,460.0,78.0" stroke="black" stroke-width="2" fill="none" />
<polyline points="460.0,73.5,457.5,82.0,453.5,90.0,460.5,94.5,452.5,101.5,460.5,104.5,457.5,113.5,456.5,122.0,463.5,126.0,466.0,123.0" stroke="black" stroke-width="2" fill="none" />
<polyline points="482.5,112.5,494.5,106.5,494.0,114.0,490.0,117.0" stroke="black" stroke-width="2" fill="none" />
<polyline points="488.0,104.5,504.0,104.0,520.0,103.5" stroke="black" stroke-width="2" fill="none" />
<polyline points="519.5,99.0,502.5,99.0" stroke="black" stroke-width="2" fill="none" />
<polyline points="516.5,90.0,500.0,91.0,485.0,91.5" stroke="black" stroke-width="2" fill="none" />
<polyline points="487.5,74.5,503.5,73.0,519.0,72.5" stroke="black" stroke-width="2" fill="none" />
<polyline points="519.0,63.0,502.0,63.0" stroke="black" stroke-width="2" fill="none" />
<polyline points="499.5,52.0,515.0,52.0" stroke="black" stroke-width="2" fill="none" />
<polyline points="520.5,45.5,504.0,46.0" stroke="black" stroke-width="2" fill="none" />
<polyline points="500.0,54.5,492.0,58.5,484.0,63.0" stroke="black" stroke-width="2" fill="none" />
<polyline points="452.0,58.5,436.5,59.0" stroke="black" stroke-width="2" fill="none" />
<polyline points="450.0,63.0,458.0,59.0,458.5,67.5" stroke="black" stroke-width="2" fill="none" />
<polyline points="433.5,76.0,432.0,84.0,435.0,91.5,440.5,93.5,436.5,99.0,432.5,106.0,431.5,113.5,431.0,124.0,435.0,137.0" stroke="black" stroke-width="2" fill="none" />
<polyline points="434.5,131.5,436.5,128.0,440.0,120.0,442.0,112.5,438.0,104.5,444.0,105.0,432.0,95.5" stroke="black" stroke-width="2" fill="none" />
<polyline points="433.5,88.5,418.0,89.0" stroke="black" stroke-width="2" fill="none" />
<polyline points="424.0,90.5,432.0,78.5,439.0,87.5,439.0,101.5,445.0,107.0" stroke="black" stroke-width="2" fill="none" />
<polyline points="436.5,84.5,421.0,100.0" stroke="black" stroke-width="2" fill="none" />
<polyline points="420.5,117.5,433.5,127.5" stroke="black" stroke-width="2" fill="none" />
<polyline points="429.0,136.5,422.5,131.5,413.0,124.0" stroke="black" stroke-width="2" fill="none" />
<polyline points="434.0,134.5,434.0,136.5,433.0,128.5,430.0,120.5,429.0,113.0,428.0,105.0,425.5,97.5,431.0,95.5,430.5,87.5,431.5,78.5,429.0,70.0,424.0,62.0,424.0,54.0,420.5,49.5,408.5,46.5,402.0,34.0,400.0,26.0,392.0,23.0,382.0,12.0,374.0,10.0,363.0,5.0,363.0,3.0" stroke="black" stroke-width="2" fill="none" />
<polyline points="354.0,1.0,353.0,9.5,351.0,17.5,348.5,26.0,344.5,34.5,349.5,36.5,359.5,34.5,367.5,41.5,367.0,52.5,375.0,50.5" stroke="black" stroke-width="2" fill="none" />
<polyline points="376.0,46.0,378.0,53.5,380.0,61.5" stroke="black" stroke-width="2" fill="none" />
<polyline points="373.5,72.5,357.5,73.5" stroke="black" stroke-width="2" fill="none" />
<polyline points="361.5,72.0,369.5,69.5" stroke="black" stroke-width="2" fill="none" />
<polyline points="368.0,78.5,370.0,86.5,370.0,95.0" stroke="black" stroke-width="2" fill="none" />
<polyline points="372.5,90.5,357.0,90.5" stroke="black" stroke-width="2" fill="none" />
<polyline points="381.5,101.5,382.0,109.5,384.0,117.5,386.0,131.5,391.0,135.5,399.0,138.0,406.5,140.5,409.5,148.0,414.0,152.0,425.0,152.5" stroke="black" stroke-width="2" fill="none" />
<polyline points="447.5,135.5,446.5,142.0,446.5,131.0,445.5,122.0,453.5,118.0,454.5,110.0,455.5,104.0,446.5,101.0,447.5,93.0,446.5,85.0,450.0,77.0,449.0,69.0,452.0,68.0,450.0,63.0,453.0,55.0,449.0,47.0,444.0,37.5,435.5,33.5,432.0,25.5,429.5,21.5,426.5,13.0,423.0,5.0,411.0,2.5" stroke="black" stroke-width="2" fill="none" />
<polyline points="413.5,6.5,413.5,14.5,420.5,16.0,423.0,24.5,424.5,33.5,427.5,41.5,425.5,46.0,430.0,54.0,432.0,55.0" stroke="black" stroke-width="2" fill="none" />
<polyline points="421.0,54.5,437.5,39.0" stroke="black" stroke-width="2" fill="none" />
<polyline points="439.0,40.5,423.5,41.0" stroke="black" stroke-width="2" fill="none" />
<polyline points="425.0,44.5,423.0,38.5,415.0,35.0,414.5,30.0,412.5,24.0,399.5,15.0,390.0,18.0,382.0,14.0" stroke="black" stroke-width="2" fill="none" />
<polyline points="375.0,12.5,390.5,13.0" stroke="black" stroke-width="2" fill="none" />
<polyline points="393.0,7.5,399.0,15.5,402.0,27.0,404.0,35.0" stroke="black" stroke-width="2" fill="none" />
<polyline points="415.5,30.0,420.5,38.5,424.5,42.5,432.5,53.0" stroke="black" stroke-width="2" fill="none" />
<polyline points="431.5,39.0,431.0,36.0,426.5,27.0,418.0,23.0,409.5,11.0,404.5,9.0,404.5,5.0,403.5,4.0" stroke="black" stroke-width="2" fill="none" />
<polyline points="410.5,14.5,425.5,14.5,440.5,14.5" stroke="black" stroke-width="2" fill="none" />
<polyline points="437.0,31.0,441.0,39.0,441.0,46.0,441.0,54.5,443.0,62.0" stroke="black" stroke-width="2" fill="none" />
<polyline points="425.0,77.0,408.5,78.5" stroke="black" stroke-width="2" fill="none" />
<polyline points="395.5,97.0,394.5,105.0,394.5,102.0" stroke="black" stroke-width="2" fill="none" />
<polyline points="378.0,58.5,362.0,59.0" stroke="black" stroke-width="2" fill="none" />
<polyline points="346.5,46.0,362.0,46.0,377.5,46.0" stroke="black" stroke-width="2" fill="none" />
<polyline points="374.5,68.5,375.5,55.5,365.0,48.5,364.0,40.5,357.5,39.5,356.5,31.0" stroke="black" stroke-width="2" fill="none" />
<polyline points="355.5,24.0,340.0,39.5" stroke="black" stroke-width="2" fill="none" />
<polyline points="341.0,28.5,357.5,27.0" stroke="black" stroke-width="2" fill="none" />
<polyline points="355.0,22.5,359.0,13.5,356.0,21.5,353.0,29.5,351.5,37.0" stroke="black" stroke-width="2" fill="none" />
<polyline points="343.5,21.5,347.5,3.5,345.5,11.0,350.5,4.0,347.5,11.5,344.5,19.5,344.0,27.0,345.0,35.0,346.0,42.5,347.0,51.0,348.5,59.0,347.0,67.0,348.0,75.0,348.0,83.5,349.0,92.0,347.5,100.5,346.5,108.5,349.0,116.5,348.5,124.5,354.5,132.5,360.5,140.5,363.0,148.5,368.0,157.5,375.0,165.5,384.5,166.5,384.5,175.0,387.5,183.0,382.0,186.5,386.5,183.5,386.5,192.0,386.5,197.0,384.0,205.0,387.0,207.0,388.0,215.0,384.5,224.0,383.5,229.5,377.5,238.0,374.5,246.0,373.0,254.0,367.5,253.5,365.5,259.5,366.5,271.5,371.0,278.0,377.5,286.0,379.5,287.0,389.0,286.5,397.5,287.5,406.0,290.0,408.0,285.0,421.0,279.0,427.0,269.0,434.0,277.0,442.0,290.0,449.5,308.5,457.5,322.0,465.0,333.0" stroke="black" stroke-width="2" fill="none" />
<polyline points="342.5,245.5,334.5,235.5,326.5,224.0,314.5,223.5,306.5,227.5,298.5,236.5,290.0,239.0,288.0,242.0" stroke="black" stroke-width="2" fill="none" />
<polyline points="281.5,240.5,293.5,234.5" stroke="black" stroke-width="2" fill="none" />
<polyline points="293.5,223.5,303.5,211.0" stroke="black" stroke-width="2" fill="none" />
<polyline points="289.5,214.5,297.5,194.5" stroke="black" stroke-width="2" fill="none" />
<polyline points="308.0,193.5,307.0,201.5,303.0,209.5,301.0,218.5,304.0,223.5" stroke="black" stroke-width="2" fill="none" />
<polyline points="297.0,179.0,289.0,171.0" stroke="black" stroke-width="2" fill="none" />
<polyline points="293.0,169.0,277.0,168.0,261.5,167.5,246.0,168.5,230.0,169.5" stroke="black" stroke-width="2" fill="none" />
<polyline points="237.5,163.0,238.0,156.0,237.5,163.0,245.5,162.0" stroke="black" stroke-width="2" fill="none" />
<polyline points="217.0,140.5,233.5,139.5,249.5,139.5,265.0,138.5,281.0,137.5,296.5,137.0,312.5,136.0,327.0,134.5" stroke="black" stroke-width="2" fill="none" />
<polyline points="321.5,135.5,321.5,136.5,322.5,144.0,323.0,152.0,322.5,157.5,321.5,162.0,324.5,158.0,331.5,162.0,339.5,164.0,347.5,165.5" stroke="black" stroke-width="2" fill="none" />
<polyline points="349.5,125.5,357.0,130.5,365.0,131.0,373.0,132.5,381.0,134.5,389.5,136.0" stroke="black" stroke-width="2" fill="none" />
<polyline points="325.5,92.0,310.0,91.5,294.0,91.5" stroke="black" stroke-width="2" fill="none" />
<polyline points="295.5,86.0,303.5,83.0,310.0,73.0" stroke="black" stroke-width="2" fill="none" />
<polyline points="304.5,65.5,313.0,63.5" stroke="black" stroke-width="2" fill="none" />
<polyline points="313.5,58.0,297.5,59.0" stroke="black" stroke-width="2" fill="none" />
<polyline points="297.0,65.0,281.0,65.0,265.0,65.0,249.0,65.0,233.5,65.0,218.5,65.5,203.0,66.0,186.0,65.5,170.0,66.5,154.5,67.0,139.5,68.0,124.0,69.5,107.5,70.0,91.0,71.5,75.0,73.0,58.0,74.5,41.5,75.0,25.0,75.0,9.5,75.5" stroke="black" stroke-width="2" fill="none" />
<polyline points="7.5,69.0,24.0,53.5,40.5,38.0,56.0,22.5,71.5,6.5" stroke="black" stroke-width="2" fill="none" />
<polyline points="86.0,8.5,69.5,24.0,54.0,38.5,39.0,53.0,24.0,68.0,8.5,84.0" stroke="black" stroke-width="2" fill="none" />
<polyline points="6.5,92.5,23.5,91.5,39.5,91.5,56.0,90.5,72.0,88.0,88.5,87.0,104.5,86.5,120.5,86.5" stroke="black" stroke-width="2" fill="none" />
<polyline points="113.0,90.5,109.0,99.0,105.5,107.5,108.5,109.5,107.5,117.5,100.0,117.5,96.5,122.5,91.0,130.0,88.0,137.5,86.5,145.5,81.5,153.5,83.0,162.5,85.0,170.5,85.5,178.5,86.5,186.0,80.5,197.0,81.5,203.0,93.0,203.5,95.0,208.5,94.0,216.5,85.5,216.5,85.5,224.5,87.5,232.0,80.5,240.0" stroke="black" stroke-width="2" fill="none" />
<polyline points="70.0,243.0,86.0,226.5,101.5,211.0" stroke="black" stroke-width="2" fill="none" />
<polyline points="104.5,209.0,88.0,210.0,71.0,211.0,54.5,211.5" stroke="black" stroke-width="2" fill="none" />
<polyline points="54.5,215.0,70.0,200.0" stroke="black" stroke-width="2" fill="none" />
<polyline points="76.5,201.0,84.5,197.0,93.0,204.0,100.0,219.0,98.5,226.5,94.5,234.5,89.0,242.0" stroke="black" stroke-width="2" fill="none" />
<polyline points="87.0,241.5,71.5,242.0,56.5,242.0,40.5,242.0,24.5,242.0,8.5,243.0" stroke="black" stroke-width="2" fill="none" />
<polyline points="10.5,245.0,25.5,229.0,41.0,213.5" stroke="black" stroke-width="2" fill="none" />
<polyline points="38.5,211.0,22.5,211.5,6.5,212.5" stroke="black" stroke-width="2" fill="none" />
<polyline points="9.0,210.0,25.5,195.5,42.5,180.0,58.5,164.5,75.0,149.0" stroke="black" stroke-width="2" fill="none" />
<polyline points="69.0,152.0,54.0,151.5,38.5,152.0,22.5,153.5,6.5,155.0" stroke="black" stroke-width="2" fill="none" />
<polyline points="5.0,160.5,21.0,161.0,37.0,161.5,53.5,161.0,70.5,160.5" stroke="black" stroke-width="2" fill="none" />
<polyline points="60.5,163.0,68.5,142.0,74.5,140.5,73.0,148.5,71.0,156.5,73.0,158.0,81.0,154.0" stroke="black" stroke-width="2" fill="none" />
<polyline points="82.0,156.0,89.5,141.5,97.5,129.0,100.5,120.0" stroke="black" stroke-width="2" fill="none" />
<polyline points="111.5,122.0,114.5,114.0,116.0,105.0,110.5,122.5,102.0,135.5,101.0,137.0,103.5,128.5,109.5,115.5,111.5,107.0,102.5,108.5,94.5,109.5" stroke="black" stroke-width="2" fill="none" />
<polyline points="97.5,109.0,94.5,117.0,89.5,125.0,82.0,133.0,74.5,135.0,68.5,142.5,65.5,150.5,63.0,158.5,60.0,166.0,57.5,174.0,56.5,182.0,50.5,190.0,44.0,198.0,41.0,206.5,37.0,215.0,38.0,223.0,40.0,231.0,44.0,239.0,53.0,247.0" stroke="black" stroke-width="2" fill="none" />
<polyline points="40.5,248.5,57.0,233.5,73.5,217.5,89.5,201.0" stroke="black" stroke-width="2" fill="none" />
<polyline points="79.5,199.0,83.0,203.5,86.5,211.5,86.5,221.5,98.5,215.0,104.0,220.0,105.0,223.0,113.0,224.0,118.0,235.0,126.0,246.5,134.5,249.5,142.5,251.0,150.5,250.0,158.5,252.0,166.5,252.0,173.5,253.0,181.5,251.5,189.0,250.0,192.0,251.5,200.5,251.0,207.5,250.0,215.5,247.0,223.5,245.0,227.0,237.5" stroke="black" stroke-width="2" fill="none" />
<polyline points="217.0,247.5,201.5,263.0" stroke="black" stroke-width="2" fill="none" />
<polyline points="179.5,241.0,171.5,241.0,169.0,238.0,167.0,229.0,163.0,223.0,162.0,214.5,153.5,213.0,155.5,205.0,143.5,201.5,135.5,197.5" stroke="black" stroke-width="2" fill="none" />
<polyline points="132.5,201.0,133.5,209.0,136.5,217.0" stroke="black" stroke-width="2" fill="none" />
<polyline points="138.0,208.0,139.0,215.0,151.0,212.0,157.0,211.5" stroke="black" stroke-width="2" fill="none" />
<polyline points="152.0,215.5,136.0,231.0" stroke="black" stroke-width="2" fill="none" />
<polyline points="124.5,235.0,133.0,239.0,141.0,238.0,149.0,238.0,157.0,237.5" stroke="black" stroke-width="2" fill="none" />
<polyline points="169.5,218.5,153.5,219.5,137.0,220.0,121.0,220.0" stroke="black" stroke-width="2" fill="none" />
<polyline points="119.0,223.5,127.0,223.5,135.5,224.5,143.5,224.5,151.5,226.0,157.0,217.0,159.0,225.0,161.0,235.5,161.0,242.5,158.5,248.5,164.5,239.5,172.5,240.5,180.5,240.0" stroke="black" stroke-width="2" fill="none" />
<polyline points="164.5,225.0,167.5,217.0" stroke="black" stroke-width="2" fill="none" />
<polyline points="184.0,194.5,176.0,186.5,168.5,185.0,160.5,184.0,152.5,179.0,145.0,164.0" stroke="black" stroke-width="2" fill="none" />
<polyline points="149.0,168.5,133.0,169.5" stroke="black" stroke-width="2" fill="none" />
<polyline points="135.0,174.5,136.0,182.5,136.0,190.0,143.0,198.0,151.5,200.5,159.5,208.5" stroke="black" stroke-width="2" fill="none" />
<polyline points="138.0,201.5,143.0,204.5,138.5,208.5,147.0,214.5,147.0,222.5,150.5,228.5,158.5,230.0,165.5,233.0,172.5,226.5,181.0,227.5,189.5,228.5,197.5,227.0,205.5,227.0,213.0,227.0,221.0,224.0" stroke="black" stroke-width="2" fill="none" />
<polyline points="221.5,228.0,213.5,227.5" stroke="black" stroke-width="2" fill="none" />
<polyline points="228.5,219.0,226.5,211.5,224.5,203.5,224.5,195.5,222.5,187.5,222.5,179.0,223.5,171.0,222.5,163.0,221.5,155.0,218.5,146.5,214.5,138.5,212.5,136.0,204.5,135.0" stroke="black" stroke-width="2" fill="none" />
<polyline points="214.0,134.5,230.0,120.0,245.5,105.0" stroke="black" stroke-width="2" fill="none" />
<polyline points="249.5,99.0,257.5,104.0,263.5,121.0,271.5,114.5" stroke="black" stroke-width="2" fill="none" />
<polyline points="265.5,101.0,250.5,116.5" stroke="black" stroke-width="2" fill="none" />
<polyline points="237.5,119.5,232.5,127.5,233.5,130.5,241.5,132.5" stroke="black" stroke-width="2" fill="none" />
<polyline points="244.5,137.0,248.5,129.0,248.5,128.0,240.5,121.0,232.5,125.0" stroke="black" stroke-width="2" fill="none" />
<polyline points="214.5,119.0,230.0,103.5,246.5,87.5" stroke="black" stroke-width="2" fill="none" />
<polyline points="249.5,98.5,258.0,106.5,258.0,114.0" stroke="black" stroke-width="2" fill="none" />
<polyline points="263.5,106.5,247.0,107.0,230.0,107.0,213.5,106.5,197.5,107.5" stroke="black" stroke-width="2" fill="none" />
<polyline points="195.0,104.0,202.0,112.0,207.5,120.0,211.5,128.0,219.5,134.5,223.5,143.0,227.0,150.5,237.0,155.5,240.5,157.0,241.5,165.0,242.5,174.5,240.0,182.0,239.0,190.0,238.0,197.5,236.0,205.5,234.0,214.0,234.0,222.0,235.0,230.5,232.0,239.0,230.5,241.5,224.5,249.5,227.5,240.5" stroke="black" stroke-width="2" fill="none" />
<polyline points="213.5,220.5,205.5,220.5,197.5,221.5,189.5,221.0,181.5,220.5,173.5,219.5,165.5,221.5,154.0,227.0,153.0,220.0,150.0,212.0,145.0,206.0,145.0,193.5,144.0,185.5,142.0,177.0,141.5,169.5,141.0,161.5,139.5,154.0,138.5,146.0,128.5,146.0" stroke="black" stroke-width="2" fill="none" />
<polyline points="134.0,150.0,150.0,134.5" stroke="black" stroke-width="2" fill="none" />
<polyline points="151.5,138.0,135.0,139.0" stroke="black" stroke-width="2" fill="none" />
<polyline points="132.0,134.0,140.0,135.0,141.0,137.5,142.0,142.5,143.0,150.5,144.0,158.5,146.0,166.5,150.0,175.0,160.0,183.0" stroke="black" stroke-width="2" fill="none" />
<polyline points="153.0,186.0,136.5,185.5" stroke="black" stroke-width="2" fill="none" />
<polyline points="142.0,198.0,134.5,203.5,127.0,202.5,119.5,208.5,114.5,210.5" stroke="black" stroke-width="2" fill="none" />
<polyline points="102.5,197.0,86.5,212.0" stroke="black" stroke-width="2" fill="none" />
<polyline points="83.5,207.5,75.0,202.0,75.0,194.5,70.0,192.0,61.5,193.0,53.5,197.0,45.5,211.0" stroke="black" stroke-width="2" fill="none" />
<polyline points="49.5,212.5,57.5,214.5,65.5,216.0,82.5,224.5,74.0,232.5,68.0,240.5,65.0,245.5,73.0,245.5,80.5,245.0,88.5,242.0,96.0,246.0" stroke="black" stroke-width="2" fill="none" />
<polyline points="94.0,245.0,95.0,237.0" stroke="black" stroke-width="2" fill="none" />
<polyline points="104.0,231.0,120.0,231.5" stroke="black" stroke-width="2" fill="none" />
<polyline points="119.0,228.0,127.0,241.0,136.0,241.5,144.5,240.5,152.5,241.5" stroke="black" stroke-width="2" fill="none" />
<polyline points="131.0,246.5,115.5,262.0" stroke="black" stroke-width="2" fill="none" />
<polyline points="119.0,260.5,134.5,259.5" stroke="black" stroke-width="2" fill="none" />
<polyline points="133.0,253.0,117.5,253.5" stroke="black" stroke-width="2" fill="none" />
<polyline points="106.0,224.5,91.0,225.0" stroke="black" stroke-width="2" fill="none" />
<polyline points="94.5,232.0,83.5,238.0,76.0,241.5,68.0,241.5" stroke="black" stroke-width="2" fill="none" />
<polyline points="69.5,232.5,54.0,249.0" stroke="black" stroke-width="2" fill="none" />
<polyline points="54.0,225.0,69.5,225.0" stroke="black" stroke-width="2" fill="none" />
<polyline points="68.5,219.5,76.5,221.5" stroke="black" stroke-width="2" fill="none" />
<polyline points="56.5,222.5,72.5,222.0,88.0,221.0,103.5,220.5" stroke="black" stroke-width="2" fill="none" />
<polyline points="96.0,216.5,94.0,224.5,93.5,230.5,95.5,239.5,98.5,248.0" stroke="black" stroke-width="2" fill="none" />
<polyline points="104.0,298.5,120.5,298.0,136.5,296.5,152.0,295.5,167.0,296.0" stroke="black" stroke-width="2" fill="none" />
<polyline points="169.5,294.0,154.0,310.0" stroke="black" stroke-width="2" fill="none" />
<polyline points="140.0,296.5,139.0,304.5,140.5,304.5,146.5,304.5,153.0,302.5,161.5,304.0,169.5,303.0,174.0,303.0,182.0,301.0,182.0,312.5,182.5,316.0" stroke="black" stroke-width="2" fill="none" />
<polyline points="201.0,312.0,204.5,303.5,193.5,295.5,191.5,294.5" stroke="black" stroke-width="2" fill="none" />
<polyline points="222.0,327.5,224.0,335.5" stroke="black" stroke-width="2" fill="none" />
<polyline points="226.0,337.0,224.0,329.0" stroke="black" stroke-width="2" fill="none" />
<polyline points="240.0,328.5,242.0,320.5" stroke="black" stroke-width="2" fill="none" />
<polyline points="240.0,319.0,238.0,327.5" stroke="black" stroke-width="2" fill="none" />
<polyline points="235.5,301.0,243.0,293.0" stroke="black" stroke-width="2" fill="none" />
<polyline points="257.0,289.5,255.0,297.0,256.5,305.0,254.5,313.0,255.5,320.5,255.5,328.5,253.5,336.5,251.5,337.5,254.0,330.5" stroke="black" stroke-width="2" fill="none" />
<polyline points="215.0,187.0,207.0,187.0,199.0,186.5" stroke="black" stroke-width="2" fill="none" />
<polyline points="198.5,185.5,206.5,185.0,214.5,185.0" stroke="black" stroke-width="2" fill="none" />
<polyline points="183.5,195.5,175.0,187.5,167.0,186.5,159.0,186.0,151.5,184.0,143.5,171.0" stroke="black" stroke-width="2" fill="none" />
<polyline points="144.5,172.5,148.0,180.5" stroke="black" stroke-width="2" fill="none" />
<polyline points="149.0,154.5,132.5,155.0" stroke="black" stroke-width="2" fill="none" />
<polyline points="135.5,130.5,130.5,138.5,125.5,140.0,126.0,148.0,127.5,156.0,129.5,164.0,131.0,172.5,132.0,181.0,134.0,189.0,134.0,197.0,126.0,203.5,120.0,211.0,118.5,219.0,118.5,227.0,120.5,232.5,125.5,240.5,139.5,248.5" stroke="black" stroke-width="2" fill="none" />
<polyline points="102.0,199.5,86.5,200.0,71.5,200.5,56.0,201.0" stroke="black" stroke-width="2" fill="none" />
<polyline points="54.0,195.5,37.5,196.5,21.0,197.0,4.5,197.5" stroke="black" stroke-width="2" fill="none" />
<polyline points="9.0,194.0,24.0,178.5,40.0,163.0,55.5,148.0,71.5,133.0,87.5,117.5,102.5,101.0,117.5,85.5,133.0,70.5" stroke="black" stroke-width="2" fill="none" />
<polyline points="131.5,83.5,147.5,67.5" stroke="black" stroke-width="2" fill="none" />
<polyline points="151.5,77.0,159.5,78.0" stroke="black" stroke-width="2" fill="none" />
<polyline points="162.0,81.5,154.5,79.5" stroke="black" stroke-width="2" fill="none" />
<polyline points="166.5,88.0,150.0,103.5" stroke="black" stroke-width="2" fill="none" />
<polyline points="134.5,93.5,149.5,92.5,165.0,92.5,181.5,93.0,198.5,93.0,215.0,92.0" stroke="black" stroke-width="2" fill="none" />
<polyline points="221.0,91.0,225.5,84.0,217.5,93.0,209.0,90.5" stroke="black" stroke-width="2" fill="none" />
<polyline points="200.0,101.5,216.0,87.0,231.5,72.0,247.0,57.0" stroke="black" stroke-width="2" fill="none" />
<polyline points="249.0,71.5,254.0,79.5,256.0,88.0,264.0,92.5,272.0,100.5" stroke="black" stroke-width="2" fill="none" />
<polyline points="280.0,98.5,280.0,106.0" stroke="black" stroke-width="2" fill="none" />
<polyline points="282.0,89.5,266.5,90.0,250.0,90.0,233.5,90.0" stroke="black" stroke-width="2" fill="none" />
<polyline points="243.5,74.0,251.5,70.0,244.0,73.0,242.0,80.5,249.5,82.0,264.5,75.5,274.5,87.5" stroke="black" stroke-width="2" fill="none" />
<polyline points="266.5,82.0,270.0,78.5,270.0,75.5,262.0,74.5" stroke="black" stroke-width="2" fill="none" />
<polyline points="259.0,89.0,266.5,97.0,268.5,103.5,272.5,111.5" stroke="black" stroke-width="2" fill="none" />
<polyline points="305.5,123.0,313.5,122.0,322.0,121.5,328.0,119.5" stroke="black" stroke-width="2" fill="none" />
<polyline points="328.5,121.5,311.5,122.0,295.0,122.0,279.5,122.5,263.0,123.0,246.0,124.0,229.0,124.5,212.5,125.0" stroke="black" stroke-width="2" fill="none" />
<polyline points="183.0,103.5,198.5,88.0,214.0,72.0,230.5,56.0" stroke="black" stroke-width="2" fill="none" />
<polyline points="218.0,76.5,211.0,84.5,212.0,80.5,219.5,78.5,227.5,82.0" stroke="black" stroke-width="2" fill="none" />
<polyline points="202.5,71.5,187.0,87.5,170.5,103.5" stroke="black" stroke-width="2" fill="none" />
<polyline points="169.0,97.0,177.5,101.0,185.5,102.0,194.0,103.0,201.5,110.5,209.5,117.5,214.0,123.5,218.0,131.0,226.0,143.0,230.5,146.0" stroke="black" stroke-width="2" fill="none" />
<polyline points="196.5,98.5,188.5,96.5,180.5,96.0,172.5,95.0,164.5,92.0,156.5,93.5,149.0,91.5,152.0,83.0,154.5,85.5,146.5,92.0,138.5,91.5,130.5,90.0,122.5,89.0,114.5,90.5,106.5,95.5" stroke="black" stroke-width="2" fill="none" />
<polyline points="105.0,72.5,88.5,87.5,72.5,102.5,56.5,117.5,41.0,132.0,25.0,146.5,9.5,161.0" stroke="black" stroke-width="2" fill="none" />
<polyline points="8.5,168.5,24.5,168.5,40.5,168.5,56.0,168.0,71.5,167.0,87.5,165.5" stroke="black" stroke-width="2" fill="none" />
<polyline points="88.5,147.0,105.0,131.5" stroke="black" stroke-width="2" fill="none" />
<polyline points="106.0,142.5,90.0,143.5" stroke="black" stroke-width="2" fill="none" />
<polyline points="81.5,135.0,89.5,129.0,100.5,124.5,95.5,132.5,91.0,140.5,87.5,148.5,82.0,156.5,80.0,165.0,79.0,173.0,78.0,181.0,86.0,195.0,95.0,203.0,99.0,211.0,108.0,215.5,110.0,224.5,115.0,232.0,120.0,240.0,127.0,248.0,130.0,249.0,135.0,245.5,143.0,247.5" stroke="black" stroke-width="2" fill="none" />
<polyline points="88.0,235.5,72.0,236.0,55.5,236.0,39.0,236.5,23.5,236.0,7.5,236.0" stroke="black" stroke-width="2" fill="none" />
<polyline points="4.5,230.5,21.0,215.0,38.0,199.0,54.5,183.5" stroke="black" stroke-width="2" fill="none" />
<polyline points="55.0,186.5,38.5,186.5,22.5,187.5,6.5,188.5" stroke="black" stroke-width="2" fill="none" />
<polyline points="9.5,175.5,25.5,161.5,41.0,147.5,56.5,132.0,72.0,117.5,87.5,102.5,103.0,87.5,119.0,72.0,134.5,56.5" stroke="black" stroke-width="2" fill="none" />
<polyline points="165.5,36.5,181.5,21.5" stroke="black" stroke-width="2" fill="none" />
<polyline points="184.5,25.0,168.5,25.5,152.0,25.5,135.0,26.5,118.5,27.0,102.5,27.0,87.0,27.0,70.5,27.5,54.0,28.0,38.0,28.5,21.5,29.5,5.5,30.5" stroke="black" stroke-width="2" fill="none" />
<polyline points="9.0,27.0,25.5,11.0" stroke="black" stroke-width="2" fill="none" />
<polyline points="43.0,11.5,26.5,26.0,11.0,41.0" stroke="black" stroke-width="2" fill="none" />
<polyline points="4.5,41.0,20.5,40.0,36.0,40.0,51.0,39.5,66.5,40.0,82.0,40.0,98.0,39.0,114.0,38.5,130.0,38.5,147.0,39.0,163.0,39.0,179.0,38.5,194.5,37.5,212.0,37.0,229.5,36.5,246.0,35.5,262.5,36.5,278.5,37.5,294.5,37.5" stroke="black" stroke-width="2" fill="none" />
<polyline points="300.5,47.5,308.0,48.0,316.0,58.0,317.5,68.0,314.5,76.5,312.5,84.5,311.5,92.0,317.0,92.0,318.0,96.5" stroke="black" stroke-width="2" fill="none" />
<polyline points="318.5,86.5,317.0,90.5,318.0,98.5,319.0,106.5,323.5,114.0,322.5,123.5,312.5,132.5,319.0,129.0,328.0,128.5,334.0,130.5,338.0,130.5" stroke="black" stroke-width="2" fill="none" />
<polyline points="315.0,74.0,308.5,82.0,303.0,84.5,307.5,77.0,301.5,69.0,308.5,67.0,303.5,64.5,295.5,70.5" stroke="black" stroke-width="2" fill="none" />
<polyline points="281.5,53.5,264.0,54.5,246.5,55.0,229.5,56.0,213.5,56.5,197.0,57.0,181.0,57.0,165.5,58.0,149.0,58.5,132.5,58.5,115.5,58.5,99.5,59.0,84.0,59.5,68.0,58.5,51.5,57.5,36.5,57.0,22.0,57.5,6.0,58.0" stroke="black" stroke-width="2" fill="none" />
<polyline points="5.5,53.0,22.0,38.0,39.0,23.0,55.5,7.5" stroke="black" stroke-width="2" fill="none" />
<polyline points="86.5,21.0,103.0,19.5,119.5,18.0,136.0,17.0" stroke="black" stroke-width="2" fill="none" />
<polyline points="134.5,5.0,118.5,20.0,102.0,36.5,85.5,52.5,69.5,68.5,54.5,84.5,38.5,99.5,23.5,114.0,7.5,128.0" stroke="black" stroke-width="2" fill="none" />
<polyline points="8.0,128.0,24.5,128.0,41.0,129.0" stroke="black" stroke-width="2" fill="none" />
<polyline points="36.5,143.5,20.5,144.5,4.0,145.5" stroke="black" stroke-width="2" fill="none" />
<polyline points="8.5,146.0,25.0,129.5,41.0,113.0,57.0,97.0,72.5,81.0,87.5,66.0,101.5,51.0,116.5,36.0,132.5,21.5,148.5,6.0" stroke="black" stroke-width="2" fill="none" />
<polyline points="167.0,6.5,150.5,22.5,135.0,38.5" stroke="black" stroke-width="2" fill="none" />
<polyline points="146.5,43.0,162.5,27.5" stroke="black" stroke-width="2" fill="none" />
<polyline points="175.0,3.0,183.5,5.5" stroke="black" stroke-width="2" fill="none" />
<polyline points="183.5,3.5,168.0,4.0,151.5,4.0,134.5,4.5,118.5,5.5,101.5,7.0,85.5,8.0,69.0,8.0,53.0,8.5,37.0,9.0,21.0,10.0,5.0,10.0" stroke="black" stroke-width="2" fill="none" />
<polyline points="8.0,22.0,23.5,20.5,39.5,19.5,55.5,19.0,72.0,19.0" stroke="black" stroke-width="2" fill="none" />
<polyline points="103.0,30.5,119.5,30.5" stroke="black" stroke-width="2" fill="none" />
<polyline points="117.0,8.0,100.5,23.5,84.0,38.0,67.5,52.5,52.0,67.0,36.5,82.0,21.0,97.5,5.0,113.0" stroke="black" stroke-width="2" fill="none" />
<polyline points="7.0,118.5,23.0,118.5,38.5,117.5" stroke="black" stroke-width="2" fill="none" />
<polyline points="36.0,96.5,52.0,95.5" stroke="black" stroke-width="2" fill="none" />
<polyline points="67.0,100.0,83.0,99.5,98.5,98.5" stroke="black" stroke-width="2" fill="none" />
<polyline points="85.0,61.0,69.0,62.0,53.0,63.5,37.0,63.5" stroke="black" stroke-width="2" fill="none" />
<polyline points="40.0,52.5,55.5,52.0" stroke="black" stroke-width="2" fill="none" />
<polyline points="88.0,82.0,72.5,82.5,57.0,84.0,41.0,86.0,25.5,86.5" stroke="black" stroke-width="2" fill="none" />
<polyline points="9.0,98.0,25.0,83.0,40.5,68.0,56.0,54.0,72.0,39.5,88.0,24.0,105.0,8.0" stroke="black" stroke-width="2" fill="none" />
<polyline points="71.0,32.0,54.5,32.5,38.0,34.0,21.0,35.5,5.0,37.0" stroke="black" stroke-width="2" fill="none" />
<polyline points="3.5,48.0,19.0,48.5" stroke="black" stroke-width="2" fill="none" />
<polyline points="23.0,67.5,6.0,69.0" stroke="black" stroke-width="2" fill="none" />
<polyline points="5.5,97.0,21.5,96.0" stroke="black" stroke-width="2" fill="none" />
<polyline points="6.5,105.0,22.5,105.0,38.5,105.5,55.0,106.0,71.5,106.5,88.5,105.5,104.5,104.5,120.5,101.5" stroke="black" stroke-width="2" fill="none" />
<polyline points="100.5,136.5,84.0,137.0,68.0,136.0,52.0,136.5,35.5,136.0,20.0,135.0,4.5,135.0" stroke="black" stroke-width="2" fill="none" />
<polyline points="6.0,123.5,22.0,123.5,38.5,123.5,55.5,123.5,72.5,123.5,89.0,122.5,105.0,122.0,120.0,121.0" stroke="black" stroke-width="2" fill="none" />
<polyline points="105.5,112.0,103.0,116.5,96.5,120.0,89.5,122.5,81.0,132.5,72.5,134.5" stroke="black" stroke-width="2" fill="none" />
<polyline points="73.0,187.0,65.0,187.0" stroke="black" stroke-width="2" fill="none" />
<polyline points="66.5,188.5,83.5,188.5,100.5,189.0" stroke="black" stroke-width="2" fill="none" />
<polyline points="80.0,188.5,73.5,186.5,66.0,186.5,58.0,188.0" stroke="black" stroke-width="2" fill="none" />
<polyline points="61.5,194.0,50.5,202.0,46.5,210.0,45.5,218.0,47.5,226.0,52.0,233.5" stroke="black" stroke-width="2" fill="none" />
<polyline points="48.0,225.5,56.0,237.0,63.5,235.5,71.5,229.5,72.5,221.0,70.5,229.5,61.5,237.0,72.0,234.0,80.0,227.0,83.5,236.0" stroke="black" stroke-width="2" fill="none" />
<polyline points="92.5,227.0,89.0,226.0,85.5,226.0,83.0,217.0,75.0,219.5,65.5,220.0,57.5,217.5,49.5,215.5" stroke="black" stroke-width="2" fill="none" />
<polyline points="41.5,220.5,42.5,228.5,47.0,236.5" stroke="black" stroke-width="2" fill="none" />
<polyline points="48.5,234.5,40.5,220.5" stroke="black" stroke-width="2" fill="none" />
<polyline points="39.0,220.0,22.5,220.5,6.5,221.5" stroke="black" stroke-width="2" fill="none" />
<polyline points="5.0,205.5,20.0,205.0,36.0,204.0" stroke="black" stroke-width="2" fill="none" />
<polyline points="41.0,205.0,49.0,193.0,61.0,191.0,47.5,199.5,44.5,207.5,40.0,215.5,39.0,223.5,41.0,231.0,46.5,239.0" stroke="black" stroke-width="2" fill="none" />
<polyline points="49.0,239.0,41.0,225.0" stroke="black" stroke-width="2" fill="none" />
<polyline points="36.5,228.0,21.0,244.0" stroke="black" stroke-width="2" fill="none" />
<polyline points="22.5,229.0,39.0,229.5" stroke="black" stroke-width="2" fill="none" />
<polyline points="38.5,230.5,46.5,241.0,54.5,247.0" stroke="black" stroke-width="2" fill="none" />
<polyline points="47.0,198.5,55.0,192.5,63.0,190.5,71.0,189.0,79.0,191.0,87.0,194.0,91.5,192.0,99.5,203.0,106.5,211.0,111.5,214.0,119.0,220.0,127.5,220.0" stroke="black" stroke-width="2" fill="none" />
<polyline points="176.5,188.5,183.5,196.5" stroke="black" stroke-width="2" fill="none" />
<polyline points="185.5,194.0,179.5,186.0" stroke="black" stroke-width="2" fill="none" />
<polyline points="85.0,302.0,69.5,303.0" stroke="black" stroke-width="2" fill="none" />
<polyline points="84.5,303.5,92.5,301.0,100.5,300.0,109.0,301.0,117.0,299.5" stroke="black" stroke-width="2" fill="none" />
<polyline points="38.5,326.5,41.0,326.5,33.0,324.0,30.0,322.0" stroke="black" stroke-width="2" fill="none" />
<polyline points="28.0,328.5,20.5,323.5" stroke="black" stroke-width="2" fill="none" />
<polyline points="22.0,323.0,28.5,331.5,37.5,336.5,29.0,336.5,36.5,336.5,38.0,334.0" stroke="black" stroke-width="2" fill="none" />
<polyline points="26.0,336.0,22.5,328.0,20.5,326.0" stroke="black" stroke-width="2" fill="none" />
<polyline points="3.0,312.0,10.5,311.5,19.0,310.0,27.0,309.5,35.0,308.5,41.0,307.5,48.5,308.5,56.5,307.0,64.0,310.0,72.0,310.0,80.0,307.0,88.0,307.0,96.0,306.5,104.0,306.5,112.0,305.5,120.0,306.5,128.0,304.5,136.0,302.0" stroke="black" stroke-width="2" fill="none" />
<polyline points="90.5,298.0,82.5,299.0,73.5,301.0,65.5,301.0,57.5,302.0,49.5,302.0,41.5,301.0,33.5,300.0,26.0,302.0,18.5,302.0,11.0,303.0,3.0,303.0" stroke="black" stroke-width="2" fill="none" />
<polyline points="2.5,294.0,10.5,293.5,18.5,293.5,26.0,293.5,34.0,293.5,41.5,293.0,49.5,292.5,57.5,292.0,65.5,292.0,74.0,292.5,81.5,293.0,90.0,291.0,98.0,290.0,106.0,290.0,114.0,288.5,122.0,287.0" stroke="black" stroke-width="2" fill="none" />
<polyline points="1.5,284.5,9.5,289.0,17.5,288.0,26.0,288.0,33.5,287.5,41.5,287.5,49.5,287.5,57.5,287.5,65.0,287.5,73.0,287.5,81.0,287.5,89.0,286.5,97.5,286.5,105.5,286.5,113.5,287.0,122.0,285.0,125.0,284.0,118.0,295.5,118.0,297.5,126.5,300.5,134.5,300.5,142.5,300.5,150.5,299.0,158.5,300.0,166.5,299.5,174.0,297.5,181.5,298.5,189.5,294.0,193.0,296.5,201.0,294.0,206.0,295.0,214.0,294.0,224.0,297.5,233.5,300.5,242.5,296.5,251.0,300.5,258.5,301.5,261.0,294.0" stroke="black" stroke-width="2" fill="none" />
<polyline points="284.5,255.0,276.0,254.0,267.5,254.0,259.0,254.5,251.0,254.0,243.0,253.5,235.0,253.0,227.5,253.0,219.5,257.0,211.5,256.5,203.5,256.5,196.0,257.0,188.5,256.0,180.0,256.5,172.0,256.5,164.0,256.5,156.0,255.0,148.0,254.0,140.0,253.5,132.0,254.5,124.0,253.5,116.5,253.5,108.5,252.5,100.0,252.5,92.0,251.0,84.0,250.0,76.0,249.0,68.0,249.5,58.0,250.5,50.5,247.5,42.5,248.5,34.0,247.5,26.0,248.0,17.5,247.5,9.5,246.5,1.5,245.0" stroke="black" stroke-width="2" fill="none" />
<polyline points="179.5,5.5,185.0,13.5,184.0,21.0,186.5,29.0,189.5,31.0,197.5,30.0,205.5,19.0" stroke="black" stroke-width="2" fill="none" />
<polyline points="212.5,5.0,220.5,4.0" stroke="black" stroke-width="2" fill="none" />
<polyline points="298.5,2.5,300.5,10.5,298.0,18.0,303.0,25.5,295.0,30.5,289.0,32.5,290.0,42.5,290.0,51.0,290.0,63.0,287.5,71.0,287.5,78.5,288.5,86.5,288.5,94.5,288.5,102.5,288.5,111.0,288.5,119.0,289.5,127.0,288.5,136.0,290.5,144.0,291.0,152.0,292.0,160.0,294.0,168.0,298.0,176.0" stroke="black" stroke-width="2" fill="none" />
<polyline points="413.5,106.0,417.5,112.0,416.5,104.0,416.5,96.0,416.5,89.0,407.0,91.0,408.0,83.0,410.0,75.0,411.5,67.0,409.5,59.0,407.5,50.5,412.5,46.5" stroke="black" stroke-width="2" fill="none" />
<polyline points="428.0,37.5,436.0,45.5,438.5,53.5,439.5,61.5" stroke="black" stroke-width="2" fill="none" />
<polyline points="443.5,35.5,435.5,31.5" stroke="black" stroke-width="2" fill="none" />
<polyline points="455.0,35.0,447.5,26.5,438.5,18.5,435.0,10.5,429.0,2.5,422.0,5.5" stroke="black" stroke-width="2" fill="none" />
<polyline points="424.0,5.5,429.0,13.5,426.0,24.5,432.5,24.5,440.5,30.0,448.5,35.5,453.5,45.5,457.5,51.5" stroke="black" stroke-width="2" fill="none" />
<polyline points="457.5,37.5,450.0,28.5,442.0,21.0,434.5,20.0,429.5,19.5,421.0,16.5,413.0,20.5" stroke="black" stroke-width="2" fill="none" />
<polyline points="306.5,28.0,298.5,33.0,293.5,44.5,294.5,43.5,301.5,35.0,306.5,34.5,308.0,26.5,307.0,18.5,308.5,9.5,307.0,1.5" stroke="black" stroke-width="2" fill="none" />
</svg>