<svg xmlns="http://www.w3.org/2000/svg" version="1.1"><polyline points="467.0,7.0,473.0,15.0" stroke="black" stroke-width="2" fill="none" />
<polyline points="475.5,8.5,491.0,8.5,506.5,8.5,522.0,7.5" stroke="black" stroke-width="2" fill="none" />
<polyline points="515.5,7.0,500.5,22.5" stroke="black" stroke-width="2" fill="none" />
<polyline points="500.5,27.5,517.0,26.5" stroke="black" stroke-width="2" fill="none" />
<polyline points="510.5,30.0,510.0,32.0,513.0,40.5" stroke="black" stroke-width="2" fill="none" />
<polyline points="517.0,50.5,501.0,66.5" stroke="black" stroke-width="2" fill="none" />
<polyline points="502.5,68.5,503.5,76.5,507.0,85.0,512.0,91.0,513.0,102.0,508.5,110.0,507.0,118.0,506.5,126.5,511.0,124.5" stroke="black" stroke-width="2" fill="none" />
<polyline points="505.5,121.5,521.5,120.5" stroke="black" stroke-width="2" fill="none" />
<polyline points="493.0,101.5,482.5,109.5,490.5,102.0" stroke="black" stroke-width="2" fill="none" />
<polyline points="499.0,83.0,515.5,67.5" stroke="black" stroke-width="2" fill="none" />
<polyline points="507.0,54.5,491.0,70.5" stroke="black" stroke-width="2" fill="none" />
<polyline points="488.5,74.0,504.5,73.0,520.0,72.5" stroke="black" stroke-width="2" fill="none" />
<polyline points="518.5,40.0,502.0,41.0" stroke="black" stroke-width="2" fill="none" />
<polyline points="500.0,41.0,500.0,49.0,496.0,57.0,493.0,59.5,500.5,55.5" stroke="black" stroke-width="2" fill="none" />
<polyline points="510.5,51.0,508.0,43.5,500.0,41.0" stroke="black" stroke-width="2" fill="none" />
<polyline points="500.5,42.5,506.5,50.5,510.5,58.5,512.5,54.5" stroke="black" stroke-width="2" fill="none" />
<polyline points="520.0,55.0,504.5,55.5,489.0,55.5,473.5,55.5" stroke="black" stroke-width="2" fill="none" />
<polyline points="466.0,60.0,474.0,67.0,486.0,70.0,493.0,72.5,499.0,77.0,502.0,85.0,497.5,91.5" stroke="black" stroke-width="2" fill="none" />
<polyline points="506.0,77.0,499.5,78.0,488.5,70.5,480.5,65.5" stroke="black" stroke-width="2" fill="none" />
<polyline points="491.0,51.5,483.0,49.5,475.0,48.5,473.0,43.5" stroke="black" stroke-width="2" fill="none" />
<polyline points="466.5,48.0,464.5,56.0,468.0,64.0,474.0,72.0" stroke="black" stroke-width="2" fill="none" />
<polyline points="497.5,29.5,499.5,21.0,497.5,14.0,489.5,12.0" stroke="black" stroke-width="2" fill="none" />
<polyline points="491.0,21.0,489.5,13.0,492.5,5.0,484.5,8.0,476.5,6.5,468.5,5.5" stroke="black" stroke-width="2" fill="none" />
<polyline points="407.5,112.5,399.5,110.0" stroke="black" stroke-width="2" fill="none" />
<polyline points="399.0,110.5,406.0,118.5,404.5,126.0,400.0,134.0,398.0,138.5,406.0,124.5" stroke="black" stroke-width="2" fill="none" />
<polyline points="422.0,151.5,430.0,152.5,438.5,154.0" stroke="black" stroke-width="2" fill="none" />
<polyline points="453.5,157.0,469.0,156.0" stroke="black" stroke-width="2" fill="none" />
<polyline points="468.5,137.5,452.0,138.5" stroke="black" stroke-width="2" fill="none" />
<polyline points="450.5,138.5,458.5,138.0" stroke="black" stroke-width="2" fill="none" />
<polyline points="431.5,170.0,423.5,170.0" stroke="black" stroke-width="2" fill="none" />
<polyline points="431.5,173.5,423.5,173.5,415.5,174.5,408.0,173.5,400.0,178.5" stroke="black" stroke-width="2" fill="none" />
<polyline points="401.5,170.5,394.0,178.5,395.5,188.5,395.5,198.5,389.5,198.5,386.5,200.5,388.5,205.5,396.5,198.0,404.5,194.0,410.0,194.5,418.0,194.5" stroke="black" stroke-width="2" fill="none" />
<polyline points="411.0,200.0,419.0,205.0" stroke="black" stroke-width="2" fill="none" />
<polyline points="425.5,205.5,408.5,206.0" stroke="black" stroke-width="2" fill="none" />
<polyline points="389.0,201.5,405.0,186.0" stroke="black" stroke-width="2" fill="none" />
<polyline points="406.5,185.5,398.5,185.5,391.0,188.5,384.0,188.5,375.5,187.0,367.5,189.0" stroke="black" stroke-width="2" fill="none" />
<polyline points="359.0,184.5,375.0,184.5,391.5,185.5,407.5,185.5,423.0,184.5" stroke="black" stroke-width="2" fill="none" />
<polyline points="412.0,187.5,404.0,189.5,396.5,188.5,391.5,191.5,383.5,192.5,375.5,191.5,367.5,192.0,357.5,198.5,348.0,194.5,341.0,183.0,333.0,181.0,324.5,180.5,316.5,181.5,308.5,183.5,300.5,187.5,292.5,178.5,284.5,181.0,276.0,182.0,268.0,186.5,260.0,187.5,252.5,188.5,248.0,190.5,245.0,182.5" stroke="black" stroke-width="2" fill="none" />
<polyline points="245.5,186.0,261.5,185.0,278.0,184.5,294.0,183.5,310.5,182.0" stroke="black" stroke-width="2" fill="none" />
<polyline points="306.0,184.0,289.5,199.0" stroke="black" stroke-width="2" fill="none" />
<polyline points="288.0,200.0,296.5,198.0" stroke="black" stroke-width="2" fill="none" />
<polyline points="299.0,195.0,304.0,192.0,304.5,200.0,301.0,210.0,299.5,218.0,299.0,229.5,303.0,233.0,301.5,233.5,304.5,242.5,298.5,250.0,304.5,250.0,316.5,249.0,317.5,253.5,317.5,265.5,319.5,273.5,316.0,288.5,321.0,291.5" stroke="black" stroke-width="2" fill="none" />
<polyline points="328.0,291.0,312.5,291.5" stroke="black" stroke-width="2" fill="none" />
<polyline points="308.5,282.0,293.5,298.0,278.5,314.0,262.5,329.5,246.0,345.0" stroke="black" stroke-width="2" fill="none" />
<polyline points="297.0,340.0,312.5,325.0,328.0,309.5,343.0,294.5,359.0,278.5" stroke="black" stroke-width="2" fill="none" />
<polyline points="359.5,267.5,343.0,282.5,325.5,298.0,309.5,313.5,293.0,329.0,276.0,344.0" stroke="black" stroke-width="2" fill="none" />
<polyline points="261.5,341.0,278.0,325.5,295.0,309.5,312.0,294.5,329.0,279.5,345.0,263.5,361.5,247.5" stroke="black" stroke-width="2" fill="none" />
<polyline points="360.0,245.5,343.5,245.5,328.0,246.0,312.5,246.5,296.0,247.5,280.0,248.5,264.0,249.5,249.0,249.5,233.0,250.0,217.0,250.5,200.5,251.5,183.5,251.5,166.0,252.0,150.0,251.5" stroke="black" stroke-width="2" fill="none" />
<polyline points="151.5,261.5,135.0,278.0,119.5,294.0,103.0,308.0,86.5,321.5,70.0,337.0" stroke="black" stroke-width="2" fill="none" />
<polyline points="101.5,335.5,117.5,320.5,133.5,306.0,150.0,291.5,165.5,276.5,182.5,261.0,198.0,245.0,214.0,229.5,230.0,214.0,246.0,198.5" stroke="black" stroke-width="2" fill="none" />
<polyline points="234.0,202.0,218.0,217.0,201.0,232.5,183.5,248.5,165.5,265.0,148.0,281.0" stroke="black" stroke-width="2" fill="none" />
<polyline points="153.0,279.0,168.5,278.5" stroke="black" stroke-width="2" fill="none" />
<polyline points="177.0,279.0,162.0,295.5,148.0,311.0,133.5,326.5,119.0,342.0" stroke="black" stroke-width="2" fill="none" />
<polyline points="150.5,346.5,166.5,331.5,182.5,316.0,197.5,300.5,213.0,285.0" stroke="black" stroke-width="2" fill="none" />
<polyline points="204.0,286.0,220.0,285.5,235.0,284.5,250.0,283.0,266.0,281.0,282.5,279.0,297.5,277.5,313.0,276.5,329.0,275.5,345.5,275.5,361.5,274.5,377.0,274.5,392.5,274.5,408.0,274.0,423.0,274.0,438.5,274.0,454.5,273.0,470.0,271.5,485.5,270.5,501.5,270.0,516.5,270.0" stroke="black" stroke-width="2" fill="none" />
<polyline points="516.0,265.0,500.0,280.0,484.5,295.0,469.0,310.0,453.5,326.0,438.0,341.5" stroke="black" stroke-width="2" fill="none" />
<polyline points="488.0,342.5,504.0,327.5,520.0,312.5" stroke="black" stroke-width="2" fill="none" />
<polyline points="519.0,296.5,503.0,312.5,488.0,328.0,473.0,343.5" stroke="black" stroke-width="2" fill="none" />
<polyline points="504.0,344.5,519.5,329.5" stroke="black" stroke-width="2" fill="none" />
<polyline points="518.5,282.5,501.5,297.0,486.0,312.0,470.0,327.0,453.5,343.5" stroke="black" stroke-width="2" fill="none" />
<polyline points="424.5,338.5,440.0,323.5,456.0,309.0,471.5,294.0,488.0,279.0,504.0,263.0" stroke="black" stroke-width="2" fill="none" />
<polyline points="504.0,254.5,506.0,247.5,510.5,253.5,508.5,261.0,512.5,261.0" stroke="black" stroke-width="2" fill="none" />
<polyline points="505.5,274.5,521.5,274.5" stroke="black" stroke-width="2" fill="none" />
<polyline points="519.0,263.5,504.0,263.5,489.0,264.0,472.5,264.5" stroke="black" stroke-width="2" fill="none" />
<polyline points="486.5,261.5,503.5,245.5" stroke="black" stroke-width="2" fill="none" />
<polyline points="497.0,254.0,499.5,249.0,503.5,251.5,498.5,259.0,483.5,267.5,493.5,272.5,482.5,271.5,490.5,274.0,497.0,277.0,505.0,276.5" stroke="black" stroke-width="2" fill="none" />
<polyline points="487.0,251.5,471.5,267.0" stroke="black" stroke-width="2" fill="none" />
<polyline points="470.0,279.5,454.0,295.5,438.0,310.5,422.0,325.0,406.0,340.0" stroke="black" stroke-width="2" fill="none" />
<polyline points="389.0,340.0,405.5,324.0,421.5,307.5,437.5,291.5,454.0,276.5" stroke="black" stroke-width="2" fill="none" />
<polyline points="454.5,267.0,462.5,267.5" stroke="black" stroke-width="2" fill="none" />
<polyline points="458.5,264.0,450.5,265.0" stroke="black" stroke-width="2" fill="none" />
<polyline points="450.0,260.0,465.0,244.5" stroke="black" stroke-width="2" fill="none" />
<polyline points="467.5,248.0,468.5,246.0,470.5,256.5,470.5,262.5,464.5,269.5,468.0,268.5,475.0,264.5,476.0,270.5,483.5,268.5" stroke="black" stroke-width="2" fill="none" />
<polyline points="486.5,257.5,469.5,258.0,454.0,258.0" stroke="black" stroke-width="2" fill="none" />
<polyline points="441.0,260.5,457.0,245.0" stroke="black" stroke-width="2" fill="none" />
<polyline points="438.0,247.5,422.0,263.0" stroke="black" stroke-width="2" fill="none" />
<polyline points="422.5,264.5,438.0,264.5" stroke="black" stroke-width="2" fill="none" />
<polyline points="439.0,280.0,423.0,295.5,407.0,311.0,391.0,327.0,374.5,343.5" stroke="black" stroke-width="2" fill="none" />
<polyline points="360.0,341.0,377.0,325.0,393.0,310.0,409.5,295.5,425.0,280.0" stroke="black" stroke-width="2" fill="none" />
<polyline points="410.0,282.0,394.5,297.5,378.0,312.5,361.5,327.0,345.5,341.5" stroke="black" stroke-width="2" fill="none" />
<polyline points="329.5,340.5,345.5,325.5,361.0,310.5,376.0,295.0,392.0,280.0" stroke="black" stroke-width="2" fill="none" />
<polyline points="378.5,280.0,362.5,295.5,347.0,310.5,330.5,326.0,314.0,341.0" stroke="black" stroke-width="2" fill="none" />
<polyline points="311.0,341.5,326.5,341.0,342.5,341.0,359.5,340.5,377.5,339.5,394.0,338.5,410.5,337.5,425.5,337.0,441.5,336.0,457.0,335.5,472.5,335.5,488.5,335.0,505.0,333.5,520.5,332.5" stroke="black" stroke-width="2" fill="none" />
<polyline points="517.0,286.5,501.0,288.0,486.0,288.5,470.5,288.5,454.0,289.0,438.0,289.0,422.0,289.0,405.5,289.5" stroke="black" stroke-width="2" fill="none" />
<polyline points="392.5,264.5,408.0,249.5" stroke="black" stroke-width="2" fill="none" />
<polyline points="409.0,259.0,393.0,259.0" stroke="black" stroke-width="2" fill="none" />
<polyline points="397.5,258.0,393.5,266.0,384.5,271.0,383.5,274.0,387.5,278.5,395.5,278.5,403.5,278.5,412.0,277.0,420.5,278.0,428.5,277.0,436.5,277.0,444.5,278.0,452.0,277.0,460.0,277.5,467.5,278.0,475.5,278.0,483.5,278.5,491.5,278.5" stroke="black" stroke-width="2" fill="none" />
<polyline points="393.0,246.5,377.0,262.5" stroke="black" stroke-width="2" fill="none" />
<polyline points="371.5,259.5,377.5,269.5,383.5,264.0,382.5,272.0,392.5,273.5,391.5,270.5" stroke="black" stroke-width="2" fill="none" />
<polyline points="377.0,251.0,393.0,251.0,407.5,250.5,422.5,251.0,437.5,252.0,453.5,252.0,469.0,252.5,485.5,252.5,501.5,252.0,517.0,251.5" stroke="black" stroke-width="2" fill="none" />
<polyline points="392.5,216.5,377.0,217.5" stroke="black" stroke-width="2" fill="none" />
<polyline points="377.0,230.5,363.0,234.5,351.0,242.5,343.0,246.0,341.0,246.0,338.5,243.5,338.5,239.5" stroke="black" stroke-width="2" fill="none" />
<polyline points="331.5,233.5,339.5,231.0,347.5,229.5" stroke="black" stroke-width="2" fill="none" />
<polyline points="344.0,228.0,328.0,243.0,311.5,258.0,295.5,273.5,279.5,289.0,263.5,305.5,247.5,322.0,232.0,339.0" stroke="black" stroke-width="2" fill="none" />
<polyline points="217.5,340.0,233.5,323.5,250.0,308.0,266.0,292.5,281.5,278.0,296.5,263.0,311.5,248.0,327.0,233.5" stroke="black" stroke-width="2" fill="none" />
<polyline points="328.5,229.0,312.0,229.5" stroke="black" stroke-width="2" fill="none" />
<polyline points="312.5,231.5,329.0,216.0" stroke="black" stroke-width="2" fill="none" />
<polyline points="335.0,216.0,325.5,224.0,315.5,230.0" stroke="black" stroke-width="2" fill="none" />
<polyline points="309.0,229.5,300.5,228.5" stroke="black" stroke-width="2" fill="none" />
<polyline points="295.5,220.5,303.5,215.0,311.0,216.0" stroke="black" stroke-width="2" fill="none" />
<polyline points="306.5,198.5,291.0,214.5" stroke="black" stroke-width="2" fill="none" />
<polyline points="294.0,206.5,310.5,205.5,326.5,204.5,342.5,203.0,358.0,202.5,374.0,203.0" stroke="black" stroke-width="2" fill="none" />
<polyline points="361.5,205.5,363.0,213.5,365.0,221.5,364.5,221.0,375.5,222.0,383.5,226.0" stroke="black" stroke-width="2" fill="none" />
<polyline points="375.5,232.0,370.5,240.0,370.0,249.0,370.0,256.5,372.5,264.5,372.5,271.5,375.5,266.5,386.5,264.5,390.0,263.0,400.0,258.0,402.0,261.0,410.0,262.0,418.0,258.0,421.0,260.0,435.0,255.0" stroke="black" stroke-width="2" fill="none" />
<polyline points="389.5,289.5,374.5,289.5,359.0,288.5,344.0,289.0" stroke="black" stroke-width="2" fill="none" />
<polyline points="340.5,280.5,348.5,279.0,356.5,275.5" stroke="black" stroke-width="2" fill="none" />
<polyline points="350.0,267.0,347.0,270.0,353.5,278.0,364.0,278.0,372.0,275.5,380.0,277.5" stroke="black" stroke-width="2" fill="none" />
<polyline points="374.0,249.0,382.0,249.5,391.5,245.5" stroke="black" stroke-width="2" fill="none" />
<polyline points="408.5,262.0,393.5,261.5,378.5,261.0,363.5,261.5,347.5,261.5,331.0,262.0,314.0,262.0,297.0,262.0,280.0,263.0,264.0,264.0" stroke="black" stroke-width="2" fill="none" />
<polyline points="265.0,264.5,265.0,264.0,262.0,267.0,264.0,276.5" stroke="black" stroke-width="2" fill="none" />
<polyline points="266.5,277.5,250.5,293.5,233.5,309.0,217.0,325.5,201.0,342.0" stroke="black" stroke-width="2" fill="none" />
<polyline points="178.0,341.0,195.5,326.5,213.5,312.0,230.5,298.0,247.0,283.0" stroke="black" stroke-width="2" fill="none" />
<polyline points="240.0,283.0,240.0,286.0,237.0,290.5,236.0,282.5,237.0,274.0,239.5,274.0,246.5,265.5,253.5,254.5,260.5,250.5,273.0,250.0,273.0,242.0,272.5,234.5,273.0,226.5,273.5,218.5,273.5,210.5,274.0,202.5,276.0,194.5,278.0,199.5" stroke="black" stroke-width="2" fill="none" />
<polyline points="280.0,200.5,264.5,201.0,248.0,201.5,231.5,201.0,215.0,201.0,199.0,201.5,182.0,202.5,165.5,203.5,149.5,204.5" stroke="black" stroke-width="2" fill="none" />
<polyline points="147.0,208.5,164.0,208.0" stroke="black" stroke-width="2" fill="none" />
<polyline points="167.5,214.5,183.5,200.0,199.5,186.0" stroke="black" stroke-width="2" fill="none" />
<polyline points="182.5,182.0,166.5,197.5,150.0,212.5" stroke="black" stroke-width="2" fill="none" />
<polyline points="149.0,194.5,164.0,178.0,180.0,161.0,196.0,145.0" stroke="black" stroke-width="2" fill="none" />
<polyline points="190.5,138.5,192.5,135.5,191.0,144.0,189.0,152.0,197.5,151.0,205.5,150.0,214.0,149.0,222.0,147.5,230.0,145.5,238.0,146.0,246.0,144.0,253.0,144.0" stroke="black" stroke-width="2" fill="none" />
<polyline points="247.0,151.5,231.5,166.0,216.0,182.0,200.5,197.5,184.0,213.0,168.5,228.5" stroke="black" stroke-width="2" fill="none" />
<polyline points="167.0,230.0,182.5,229.5" stroke="black" stroke-width="2" fill="none" />
<polyline points="183.5,231.0,199.0,215.5,214.5,199.0,230.5,182.0" stroke="black" stroke-width="2" fill="none" />
<polyline points="232.5,181.5,215.0,182.5,198.5,183.5,182.5,184.0,166.0,184.5,150.0,184.0,134.0,183.5,117.0,183.0,100.0,183.0" stroke="black" stroke-width="2" fill="none" />
<polyline points="110.5,176.0,118.5,175.0,123.5,175.0,126.5,183.0,127.5,180.0,135.0,179.0,143.0,179.0,151.0,179.5,158.5,179.5,162.5,170.5,170.5,165.0" stroke="black" stroke-width="2" fill="none" />
<polyline points="168.5,163.0,184.5,147.0" stroke="black" stroke-width="2" fill="none" />
<polyline points="190.0,155.0,198.0,155.0,206.0,153.5,214.5,153.5,222.5,154.0,231.0,155.0,239.0,154.5,247.0,149.5" stroke="black" stroke-width="2" fill="none" />
<polyline points="244.0,159.0,227.5,158.0" stroke="black" stroke-width="2" fill="none" />
<polyline points="230.0,148.0,214.0,164.0" stroke="black" stroke-width="2" fill="none" />
<polyline points="215.0,172.5,231.0,172.0,247.0,171.0" stroke="black" stroke-width="2" fill="none" />
<polyline points="258.0,171.5,274.5,170.5" stroke="black" stroke-width="2" fill="none" />
<polyline points="282.0,158.0,296.5,157.5,311.5,156.5" stroke="black" stroke-width="2" fill="none" />
<polyline points="311.0,148.5,295.5,164.5" stroke="black" stroke-width="2" fill="none" />
<polyline points="297.0,175.0,305.0,172.0,306.0,176.5" stroke="black" stroke-width="2" fill="none" />
<polyline points="296.5,181.5,280.5,196.5,264.5,213.0,249.0,229.0,232.5,245.0,216.0,261.0" stroke="black" stroke-width="2" fill="none" />
<polyline points="218.0,259.0,201.5,259.0" stroke="black" stroke-width="2" fill="none" />
<polyline points="201.0,262.0,216.5,246.5,231.5,231.5,247.0,217.5,263.0,202.5" stroke="black" stroke-width="2" fill="none" />
<polyline points="266.0,207.5,249.5,208.5,233.0,209.0,216.5,210.0,200.0,211.0,183.5,211.5" stroke="black" stroke-width="2" fill="none" />
<polyline points="170.5,224.5,183.5,232.5,174.0,240.0,160.0,246.0,147.0,254.0,147.0,259.0,146.5,266.5,145.5,268.5,156.5,263.5,164.5,256.0,168.0,252.0,176.0,243.5,183.5,245.5,191.5,246.0,199.5,247.0,207.5,246.0,217.5,245.0,226.0,245.5,233.5,253.5,236.5,250.5,245.0,249.5,253.0,253.5,253.0,260.5,258.0,267.0,260.0,263.5,264.0,260.5,269.0,253.0" stroke="black" stroke-width="2" fill="none" />
<polyline points="267.0,245.0,284.0,229.0" stroke="black" stroke-width="2" fill="none" />
<polyline points="290.0,232.0,298.0,230.5,306.0,225.5,314.5,226.0,328.0,220.0,336.0,214.5,344.5,210.5" stroke="black" stroke-width="2" fill="none" />
<polyline points="343.0,211.5,327.0,211.5,311.0,212.5,294.5,213.0,277.5,213.5,261.0,214.5,244.0,215.5,229.5,217.5,214.5,219.0,198.5,220.5,182.0,222.0,166.0,223.0" stroke="black" stroke-width="2" fill="none" />
<polyline points="162.0,232.5,154.0,235.5,146.0,235.5,138.5,234.5" stroke="black" stroke-width="2" fill="none" />
<polyline points="142.0,229.0,136.0,232.5,144.0,229.5,152.5,228.5,160.5,230.5" stroke="black" stroke-width="2" fill="none" />
<polyline points="177.0,239.5,179.0,247.5,182.0,250.0,183.0,262.0,174.0,266.5,184.0,270.0,192.0,279.0,187.5,294.0,197.0,285.0,206.0,292.0,214.0,293.0" stroke="black" stroke-width="2" fill="none" />
<polyline points="203.0,293.5,218.0,292.5,233.5,292.0,248.5,291.5" stroke="black" stroke-width="2" fill="none" />
<polyline points="242.0,277.5,241.0,285.5,245.0,280.5,244.5,278.5,250.5,274.5,258.0,270.5,266.5,270.5,267.0,259.5,275.0,257.5" stroke="black" stroke-width="2" fill="none" />
<polyline points="286.0,246.0,294.5,246.5,297.0,249.5" stroke="black" stroke-width="2" fill="none" />
<polyline points="300.5,242.0,292.5,240.0" stroke="black" stroke-width="2" fill="none" />
<polyline points="282.0,239.5,266.0,241.0" stroke="black" stroke-width="2" fill="none" />
<polyline points="281.5,239.0,289.5,243.0,297.5,243.0,304.5,242.0" stroke="black" stroke-width="2" fill="none" />
<polyline points="323.0,247.0,331.0,248.0" stroke="black" stroke-width="2" fill="none" />
<polyline points="324.5,258.5,341.0,242.0,357.0,226.0" stroke="black" stroke-width="2" fill="none" />
<polyline points="358.0,227.5,342.5,227.5,326.0,227.5,309.5,229.0,293.0,231.0,276.5,233.0,260.5,234.0,245.5,234.0,230.5,233.0,215.5,232.5,200.5,233.0,185.0,233.0" stroke="black" stroke-width="2" fill="none" />
<polyline points="183.0,242.0,198.5,241.0,214.0,240.5,229.5,239.5,245.0,239.0" stroke="black" stroke-width="2" fill="none" />
<polyline points="249.0,245.0,264.5,231.0,280.5,216.0" stroke="black" stroke-width="2" fill="none" />
<polyline points="277.5,224.0,261.5,223.5,244.5,224.0,228.5,223.5,214.0,224.0,198.0,223.5" stroke="black" stroke-width="2" fill="none" />
<polyline points="195.5,251.0,187.5,253.0,180.5,254.0,172.5,250.0" stroke="black" stroke-width="2" fill="none" />
<polyline points="174.0,249.5,177.0,252.0,175.0,257.0,181.0,258.0,186.0,258.0,194.5,259.0,202.5,256.5,203.5,252.0,210.5,251.5,214.5,260.5,222.5,257.5,222.0,261.5,226.0,255.0,229.5,248.0" stroke="black" stroke-width="2" fill="none" />
<polyline points="224.5,259.0,232.5,260.0,241.0,255.0,240.0,260.5,242.5,268.5,255.0,275.5,258.5,276.0,263.5,279.5" stroke="black" stroke-width="2" fill="none" />
<polyline points="266.5,290.5,282.5,290.5,299.0,289.5" stroke="black" stroke-width="2" fill="none" />
<polyline points="294.0,280.5,278.0,281.5" stroke="black" stroke-width="2" fill="none" />
<polyline points="295.5,267.0,303.5,266.0,315.0,276.0,308.0,277.5,314.0,279.0,318.0,274.0" stroke="black" stroke-width="2" fill="none" />
<polyline points="312.0,262.0,295.5,262.5" stroke="black" stroke-width="2" fill="none" />
<polyline points="331.0,270.0,326.5,276.0,337.5,274.0" stroke="black" stroke-width="2" fill="none" />
<polyline points="340.5,267.0,332.5,275.0,335.0,279.0,338.0,277.0,346.0,275.0,353.0,270.0,361.0,272.0,369.0,270.0,378.0,261.0,386.0,262.0,390.5,253.0,398.5,248.0" stroke="black" stroke-width="2" fill="none" />
<polyline points="352.5,244.0,360.5,243.0,373.5,242.0,381.5,242.0,390.0,242.0,398.0,242.0,406.0,242.0,414.0,243.0,422.0,243.5,430.0,242.5,438.0,242.5,446.0,242.5,454.0,242.5,462.5,242.0,470.5,242.5,478.5,241.5,487.0,241.5,495.0,241.5,503.0,241.5,511.0,241.5" stroke="black" stroke-width="2" fill="none" />
<polyline points="520.5,304.0,504.5,304.0,488.5,305.0,472.5,307.0,456.5,308.5,440.5,310.0,425.0,310.5,407.5,311.5,390.0,312.5,373.5,313.0,357.0,314.0,341.5,315.0,325.5,315.0,309.5,314.0,293.5,314.0,278.0,315.0,261.5,315.0,245.5,314.5,228.5,315.0,212.5,314.5,198.0,315.0,182.0,314.5,166.0,315.5,150.5,316.5,135.5,318.0,120.5,318.5,104.5,319.0,89.5,319.0,73.5,320.0,58.0,320.5,43.5,320.0,27.5,320.0" stroke="black" stroke-width="2" fill="none" />
<polyline points="10.0,323.5,26.0,308.5,42.0,294.0,58.0,280.0,73.5,265.5" stroke="black" stroke-width="2" fill="none" />
<polyline points="84.0,267.5,67.5,283.0,51.0,298.5,35.0,314.0,18.0,329.0,2.0,344.5" stroke="black" stroke-width="2" fill="none" />
<polyline points="10.0,335.0,26.5,334.5,41.5,335.0,57.5,335.5,74.0,335.0,89.5,334.5,105.0,335.5,121.0,335.0,137.0,334.5,152.5,332.5,169.0,332.0,184.5,332.0,199.5,331.5,214.5,332.0,229.5,333.0,244.5,333.0,260.5,332.0,277.0,330.0,293.5,328.0" stroke="black" stroke-width="2" fill="none" />
<polyline points="229.5,281.0,214.5,296.5,199.5,312.0,183.5,327.5,168.0,343.5" stroke="black" stroke-width="2" fill="none" />
<polyline points="133.0,340.0,148.0,323.5,164.5,307.0,180.5,292.0" stroke="black" stroke-width="2" fill="none" />
<polyline points="183.0,289.5,167.0,289.0,150.5,289.5" stroke="black" stroke-width="2" fill="none" />
<polyline points="158.5,277.5,166.5,277.5,174.5,278.5,186.0,279.5,176.0,275.5" stroke="black" stroke-width="2" fill="none" />
<polyline points="177.0,277.0,185.0,279.0" stroke="black" stroke-width="2" fill="none" />
<polyline points="182.0,281.0,166.0,282.0,150.5,281.5,135.0,281.0,120.0,280.5,104.5,280.5,88.0,281.5,72.5,281.0,57.5,280.0,41.5,279.5,26.0,279.5,9.0,279.5" stroke="black" stroke-width="2" fill="none" />
<polyline points="11.5,278.0,3.5,280.0" stroke="black" stroke-width="2" fill="none" />
<polyline points="2.5,273.5,10.5,274.5,19.0,272.0,26.0,272.0,30.0,265.5" stroke="black" stroke-width="2" fill="none" />
<polyline points="24.0,265.5,39.5,265.0,56.0,264.0,72.5,263.5,89.5,263.0,105.0,262.5,120.5,262.5,136.0,263.0,152.0,262.5,167.5,261.0,183.0,261.0" stroke="black" stroke-width="2" fill="none" />
<polyline points="181.5,261.5,165.5,261.5" stroke="black" stroke-width="2" fill="none" />
<polyline points="152.0,266.5,162.0,258.5,170.0,250.5,176.0,248.5" stroke="black" stroke-width="2" fill="none" />
<polyline points="191.5,260.5,199.5,261.5" stroke="black" stroke-width="2" fill="none" />
<polyline points="201.0,269.0,217.0,268.0" stroke="black" stroke-width="2" fill="none" />
<polyline points="216.0,255.0,224.0,253.5,232.0,255.0,237.0,255.5,241.0,260.5,245.5,252.5,248.5,259.5,248.5,262.5" stroke="black" stroke-width="2" fill="none" />
<polyline points="252.5,250.0,260.5,252.5" stroke="black" stroke-width="2" fill="none" />
<polyline points="287.5,222.5,288.5,215.0,288.0,207.0,290.0,199.5,293.0,201.0" stroke="black" stroke-width="2" fill="none" />
<polyline points="292.0,199.0,293.0,207.0,294.0,207.0,302.5,203.0,310.5,205.5,319.0,205.5,327.5,205.5,334.5,199.5,338.0,205.5" stroke="black" stroke-width="2" fill="none" />
<polyline points="347.0,191.5,354.0,200.0,356.0,208.0,356.0,215.5,355.5,223.0,355.5,233.0,352.5,241.0,355.0,248.0,359.0,256.0,363.0,266.5,370.0,269.5,357.0,276.5" stroke="black" stroke-width="2" fill="none" />
<polyline points="361.0,198.0,377.5,183.0" stroke="black" stroke-width="2" fill="none" />
<polyline points="375.5,175.0,383.5,177.0,391.5,180.0" stroke="black" stroke-width="2" fill="none" />
<polyline points="384.0,166.0,376.0,166.0" stroke="black" stroke-width="2" fill="none" />
<polyline points="369.5,159.0,362.5,161.5,370.0,162.5,368.0,164.5,364.5,163.5,371.5,166.0,382.0,164.0,389.5,163.0" stroke="black" stroke-width="2" fill="none" />
<polyline points="391.0,157.5,377.0,157.0,362.5,157.0,347.0,157.0,331.0,158.0" stroke="black" stroke-width="2" fill="none" />
<polyline points="329.0,151.0,345.0,135.5" stroke="black" stroke-width="2" fill="none" />
<polyline points="343.0,147.0,359.0,132.0" stroke="black" stroke-width="2" fill="none" />
<polyline points="359.5,141.5,343.0,141.5,326.5,141.5" stroke="black" stroke-width="2" fill="none" />
<polyline points="325.0,140.5,333.0,141.0,341.0,142.0,348.5,143.0,356.5,143.5" stroke="black" stroke-width="2" fill="none" />
<polyline points="378.5,141.5,379.5,144.5,374.5,153.0,371.0,162.0,376.0,175.5,379.0,173.5,387.0,176.0,397.0,173.0,400.0,175.0,404.0,165.5,408.0,170.0,415.5,170.5,424.0,168.5,432.0,169.0,440.5,169.5,448.5,169.5,449.0,171.0" stroke="black" stroke-width="2" fill="none" />
<polyline points="434.5,156.5,426.5,155.0,418.5,156.0" stroke="black" stroke-width="2" fill="none" />
<polyline points="409.5,173.0,411.5,181.5,414.0,195.5,410.0,203.5,414.0,205.5" stroke="black" stroke-width="2" fill="none" />
<polyline points="388.0,155.5,384.5,148.0,376.5,153.0" stroke="black" stroke-width="2" fill="none" />
<polyline points="357.5,166.5,357.0,164.5,349.0,164.5" stroke="black" stroke-width="2" fill="none" />
<polyline points="350.5,174.5,342.5,171.5,341.5,176.5" stroke="black" stroke-width="2" fill="none" />
<polyline points="349.5,188.5,357.5,192.0,360.5,196.0,355.5,198.5,357.5,204.5,358.5,212.0,358.5,220.0,359.5,228.0,353.5,239.5,361.0,250.5,358.0,255.0,369.0,255.0,376.5,251.5,384.5,254.0,392.5,253.5,398.5,254.0,403.0,249.0" stroke="black" stroke-width="2" fill="none" />
<polyline points="354.0,265.5,346.0,268.0,338.0,270.0,330.0,272.0,322.0,269.0,313.5,266.0,313.0,272.5,305.0,275.0,303.0,277.0,295.0,278.0,292.0,274.0,284.0,278.0,282.0,274.0,281.0,281.0,287.0,274.5,277.0,265.5,278.5,258.5,277.0,251.0,277.0,243.0,277.0,235.0,277.5,227.0,276.5,218.5,277.5,210.5,277.5,202.0,279.0,194.0" stroke="black" stroke-width="2" fill="none" />
<polyline points="280.0,198.0,279.0,206.0,279.0,217.5" stroke="black" stroke-width="2" fill="none" />
<polyline points="261.5,205.5,270.0,200.5,271.0,193.0" stroke="black" stroke-width="2" fill="none" />
<polyline points="277.5,192.5,270.0,193.5,262.0,193.0,258.0,200.0,262.5,192.0" stroke="black" stroke-width="2" fill="none" />
<polyline points="268.5,176.5,261.0,173.5,254.0,177.0,252.0,173.5,249.5,175.5,248.0,165.0,240.0,160.5,250.0,148.5,253.5,136.0,251.0,128.0,249.5,120.0,255.5,112.5,249.0,120.5" stroke="black" stroke-width="2" fill="none" />
<polyline points="250.5,121.0,234.5,121.0,217.5,121.5,201.0,123.0,184.5,123.5" stroke="black" stroke-width="2" fill="none" />
<polyline points="184.5,132.5,168.0,148.0,152.0,163.5" stroke="black" stroke-width="2" fill="none" />
<polyline points="148.5,164.5,165.0,164.0" stroke="black" stroke-width="2" fill="none" />
<polyline points="169.0,175.5,184.5,174.0" stroke="black" stroke-width="2" fill="none" />
<polyline points="185.5,172.5,193.5,172.5,201.5,172.5,209.5,171.5,217.5,171.5,225.0,173.0,233.0,173.0,241.0,170.5,249.0,169.5,256.5,163.5,264.5,162.5,272.0,162.5,274.0,158.5,282.0,158.5,290.5,158.5,298.5,158.0,306.5,158.0,314.0,153.0,321.5,152.5" stroke="black" stroke-width="2" fill="none" />
<polyline points="316.0,148.5,324.0,144.0,331.5,144.5,339.0,144.5,346.5,145.0,354.5,145.5,362.5,143.5" stroke="black" stroke-width="2" fill="none" />
<polyline points="344.5,151.0,336.5,148.5,328.5,152.5,334.0,147.5" stroke="black" stroke-width="2" fill="none" />
<polyline points="323.5,144.0,313.5,155.0,321.0,157.0,329.0,156.5,336.5,158.5,344.5,158.5,352.0,158.5,360.0,161.0,367.5,160.0,376.0,161.0,383.5,162.0" stroke="black" stroke-width="2" fill="none" />
<polyline points="352.0,187.0,347.0,195.5,347.0,203.5,346.0,211.5" stroke="black" stroke-width="2" fill="none" />
<polyline points="304.0,193.0,312.0,190.0,320.5,190.0,328.5,190.0,336.5,190.0,344.5,191.0,352.5,187.0,360.5,183.5,368.5,184.5,365.5,196.5,366.5,204.5,368.5,212.5,370.5,221.0,366.0,230.0,366.5,240.0,361.0,240.0,366.0,248.0,365.0,256.0,363.0,261.0,376.5,264.0,383.5,268.5,391.5,266.5,395.5,265.5,402.5,265.5,410.0,269.5,413.0,272.5,416.0,270.0,421.0,264.5,429.0,264.5,437.0,266.0,445.5,265.5,446.5,263.0,454.5,261.0,462.5,261.0,470.0,261.0,474.0,262.0,479.0,261.0,487.5,265.0,495.5,269.0,503.0,272.0,511.0,269.0" stroke="black" stroke-width="2" fill="none" />
<polyline points="327.0,123.5,311.5,123.0" stroke="black" stroke-width="2" fill="none" />
<polyline points="310.5,117.0,318.5,116.0" stroke="black" stroke-width="2" fill="none" />
<polyline points="310.0,136.0,293.0,151.0" stroke="black" stroke-width="2" fill="none" />
<polyline points="286.5,147.5,271.5,160.5,257.5,162.5,259.0,167.5,266.0,177.0" stroke="black" stroke-width="2" fill="none" />
<polyline points="263.0,155.0,247.0,155.0,232.0,155.0,216.0,155.0,199.0,155.5,182.5,157.5,166.0,159.0,149.0,159.0,133.5,159.0" stroke="black" stroke-width="2" fill="none" />
<polyline points="131.0,164.5,123.0,164.0" stroke="black" stroke-width="2" fill="none" />
<polyline points="137.0,184.0,137.0,192.0,139.0,192.0,133.0,199.0,129.0,213.0,134.0,217.0,142.0,219.5,150.0,218.5,158.5,220.5,166.5,222.0,174.5,226.0,182.5,231.0" stroke="black" stroke-width="2" fill="none" />
<polyline points="183.5,233.5,175.5,238.5,167.5,245.5,159.0,246.5,151.0,251.5,143.0,255.5,134.5,257.5,127.0,257.5,119.0,256.0" stroke="black" stroke-width="2" fill="none" />
<polyline points="119.5,252.0,104.5,253.0" stroke="black" stroke-width="2" fill="none" />
<polyline points="102.5,246.0,118.5,230.5" stroke="black" stroke-width="2" fill="none" />
<polyline points="120.5,241.5,105.0,241.5" stroke="black" stroke-width="2" fill="none" />
<polyline points="100.0,231.0,115.5,231.0" stroke="black" stroke-width="2" fill="none" />
<polyline points="112.5,223.5,104.5,222.5,96.5,217.5,88.5,221.5,80.5,228.0,72.5,233.5,65.0,240.5,56.0,244.0,48.0,249.0,40.0,245.0,32.0,246.0" stroke="black" stroke-width="2" fill="none" />
<polyline points="28.5,247.0,25.5,247.5,23.5,255.5,29.5,258.0,31.0,260.0,39.0,269.0,40.0,279.0,45.5,279.5,53.5,278.0,58.0,276.0,61.5,280.0" stroke="black" stroke-width="2" fill="none" />
<polyline points="58.5,279.0,74.5,279.0,90.5,279.0,106.5,279.0,123.0,278.0,140.0,277.0" stroke="black" stroke-width="2" fill="none" />
<polyline points="142.0,286.0,143.0,284.0,135.5,280.0,127.5,280.5" stroke="black" stroke-width="2" fill="none" />
<polyline points="124.5,278.5,132.5,278.5,140.5,278.5,140.5,285.5,124.0,291.0,132.5,292.0,139.5,280.0,145.5,286.5" stroke="black" stroke-width="2" fill="none" />
<polyline points="134.5,289.5,118.5,289.0,102.0,288.5,85.0,288.0,69.5,288.0,54.5,289.5,39.5,290.5,24.0,291.0,8.0,291.0" stroke="black" stroke-width="2" fill="none" />
<polyline points="8.5,292.5,24.5,276.5" stroke="black" stroke-width="2" fill="none" />
<polyline points="26.5,272.0,34.5,274.0,42.5,272.0,55.0,266.0,57.5,274.0,65.5,271.0" stroke="black" stroke-width="2" fill="none" />
<polyline points="73.0,281.0,81.0,281.0" stroke="black" stroke-width="2" fill="none" />
<polyline points="74.5,250.5,91.0,250.0" stroke="black" stroke-width="2" fill="none" />
<polyline points="75.0,245.5,59.0,246.5" stroke="black" stroke-width="2" fill="none" />
<polyline points="54.0,246.5,68.5,230.5,84.0,215.5" stroke="black" stroke-width="2" fill="none" />
<polyline points="88.5,207.5,80.0,206.0,77.5,202.0,69.5,195.0" stroke="black" stroke-width="2" fill="none" />
<polyline points="62.5,196.0,63.5,195.0,65.5,203.0,63.5,211.0" stroke="black" stroke-width="2" fill="none" />
<polyline points="74.0,205.5,90.0,205.0,107.0,205.0,122.5,203.5" stroke="black" stroke-width="2" fill="none" />
<polyline points="118.5,203.5,127.0,200.5" stroke="black" stroke-width="2" fill="none" />
<polyline points="118.0,199.5,102.0,215.0,86.5,229.5" stroke="black" stroke-width="2" fill="none" />
<polyline points="89.5,229.5,97.5,229.5,105.5,228.5,113.0,229.0,117.0,231.5,114.0,239.5,114.0,247.5,114.0,256.0,111.0,264.0" stroke="black" stroke-width="2" fill="none" />
<polyline points="116.5,267.5,100.5,282.5,85.5,297.5,70.5,312.5,56.5,327.5,42.0,342.0" stroke="black" stroke-width="2" fill="none" />
<polyline points="52.5,341.0,69.0,325.0,85.0,310.5,101.0,295.0,117.5,279.5,133.0,263.5" stroke="black" stroke-width="2" fill="none" />
<polyline points="120.0,250.0,104.0,265.0,86.5,280.0,70.0,295.0,54.0,310.0,37.5,324.5,22.0,341.5" stroke="black" stroke-width="2" fill="none" />
<polyline points="11.5,330.5,27.5,329.5,42.5,328.0,58.5,327.0,75.0,327.5,92.0,328.0,106.5,327.5,121.0,327.5,136.5,327.5,152.0,327.0,167.5,326.5,184.0,326.0,200.5,325.0,217.0,324.0,233.5,323.5,250.0,322.5,264.5,322.0,279.0,321.5,294.5,320.5,310.0,320.5,325.5,319.5,342.0,319.0,358.0,319.0,374.0,319.0,390.5,318.5,406.0,318.5,421.0,318.0,437.0,316.5,453.5,316.0,470.5,315.5,487.5,314.5,503.0,315.0,519.5,315.0" stroke="black" stroke-width="2" fill="none" />
<polyline points="515.5,298.0,499.5,300.0,483.0,301.0,467.0,301.5,450.5,301.5,435.5,301.5,421.0,301.5,406.0,302.0,391.5,303.0,376.5,304.5,361.5,306.0,345.5,307.5,328.5,308.0,313.0,307.5,297.5,306.5,282.0,306.0,266.0,306.5,250.5,306.5,234.0,307.0,218.5,308.0,203.0,308.5,186.5,308.5,170.0,309.5,155.0,309.5,140.0,310.0,124.5,310.5,107.0,312.0,91.5,312.0,75.0,312.5,58.5,312.0,41.0,312.0,24.0,312.5,8.5,313.5" stroke="black" stroke-width="2" fill="none" />
<polyline points="7.5,308.0,24.0,308.0,40.0,307.5,56.0,306.0,71.5,304.5,87.0,303.5,102.5,303.5,119.0,303.0,135.5,302.5,151.5,303.0,168.5,302.5,185.0,302.0,201.5,300.5,218.5,300.0,234.5,300.0,250.0,299.5,266.0,299.5,282.5,298.5,298.5,298.0,313.5,297.5,329.0,297.0,345.0,297.0,361.0,296.0,376.5,295.5,392.0,295.5,407.5,294.5,423.0,294.5,438.5,294.5,453.5,294.5,469.5,293.5,485.0,292.5,501.5,292.5,517.0,292.0" stroke="black" stroke-width="2" fill="none" />
<polyline points="517.5,286.5,500.5,287.5,484.5,288.5,469.0,289.5,453.5,290.0,437.5,290.5,421.0,290.5,405.5,290.0,389.5,290.0,374.5,289.0,359.5,288.5,345.0,289.0,329.0,289.0,313.0,290.0,296.0,290.0,279.0,290.5,262.0,292.0,245.5,293.0,229.5,293.5,213.5,295.0,197.5,296.5,181.5,296.5,165.5,296.5,150.0,298.0,134.0,298.5,118.5,298.5,103.5,298.0,88.0,298.5,73.0,299.0,58.0,299.5,41.5,300.5,24.5,301.5,9.0,302.5" stroke="black" stroke-width="2" fill="none" />
<polyline points="5.5,308.5,21.5,292.5,36.5,277.0" stroke="black" stroke-width="2" fill="none" />
<polyline points="28.5,256.0,20.5,255.0" stroke="black" stroke-width="2" fill="none" />
<polyline points="20.0,246.0,36.5,230.5" stroke="black" stroke-width="2" fill="none" />
<polyline points="35.5,239.5,19.0,240.5,2.0,241.0" stroke="black" stroke-width="2" fill="none" />
<polyline points="3.0,246.0,11.0,245.0" stroke="black" stroke-width="2" fill="none" />
<polyline points="6.5,248.5,22.5,248.0,39.0,247.5,55.0,248.0" stroke="black" stroke-width="2" fill="none" />
<polyline points="40.5,245.5,57.0,230.5,72.5,216.0,88.5,200.5" stroke="black" stroke-width="2" fill="none" />
<polyline points="89.0,193.0,97.0,189.5,105.0,193.0" stroke="black" stroke-width="2" fill="none" />
<polyline points="100.0,208.0,116.0,207.5" stroke="black" stroke-width="2" fill="none" />
<polyline points="103.0,216.5,87.0,217.5,71.0,218.0,54.5,218.0,38.0,218.5,22.0,219.5,6.5,220.5" stroke="black" stroke-width="2" fill="none" />
<polyline points="8.0,217.5,24.0,203.0,41.0,188.0,57.5,172.5" stroke="black" stroke-width="2" fill="none" />
<polyline points="57.5,187.5,41.5,203.0,26.0,218.0,10.0,232.5" stroke="black" stroke-width="2" fill="none" />
<polyline points="2.5,232.0,18.0,231.0,35.0,230.5" stroke="black" stroke-width="2" fill="none" />
<polyline points="34.5,216.0,41.5,218.0,40.5,225.5,39.5,234.0,42.0,236.0,49.5,235.0" stroke="black" stroke-width="2" fill="none" />
<polyline points="73.0,227.0,89.5,226.5,106.0,225.0" stroke="black" stroke-width="2" fill="none" />
<polyline points="106.0,227.5,100.0,234.0,97.0,242.0,92.0,250.0,90.5,258.0" stroke="black" stroke-width="2" fill="none" />
<polyline points="113.5,254.0,121.5,266.0,129.5,265.5,137.5,264.5,147.0,258.0,151.5,258.0" stroke="black" stroke-width="2" fill="none" />
<polyline points="158.5,274.5,157.5,282.5,156.0,286.5,152.0,291.0,157.5,289.5,162.5,288.5" stroke="black" stroke-width="2" fill="none" />
<polyline points="157.5,275.0,165.5,271.5,173.5,270.5,181.0,266.5,185.0,270.5,192.5,269.5,193.5,276.5,201.5,277.5,207.0,267.0,212.0,268.5" stroke="black" stroke-width="2" fill="none" />
<polyline points="223.5,272.5,229.5,262.5,224.0,260.5,216.5,252.0" stroke="black" stroke-width="2" fill="none" />
<polyline points="206.5,253.0,199.0,265.0,209.0,272.0,214.0,277.5,221.5,274.0,225.0,276.0,233.5,275.5,241.5,270.5,244.0,272.5,252.0,265.5,260.0,268.0,263.0,274.5,272.0,279.0,280.0,271.0,288.0,266.0,292.0,265.5,300.0,263.5,307.0,261.5,315.0,263.5,323.0,267.0" stroke="black" stroke-width="2" fill="none" />
<polyline points="318.0,260.0,309.5,258.5,307.5,253.0,299.5,255.0,291.5,254.0,285.5,256.0,278.5,263.0,272.0,270.0,274.0,273.5,267.5,276.5,270.5,272.5,284.5,267.5,286.5,264.0,281.5,259.0,281.5,251.0,281.5,242.0,283.0,234.5,283.0,222.0,281.5,216.0,284.0,208.0,285.0,200.0,283.0,192.0" stroke="black" stroke-width="2" fill="none" />
<polyline points="267.5,172.5,259.5,169.5,255.0,171.5,248.5,165.5,240.5,162.0" stroke="black" stroke-width="2" fill="none" />
<polyline points="238.0,179.5,240.0,187.5" stroke="black" stroke-width="2" fill="none" />
<polyline points="231.5,192.5,215.0,193.5,198.5,194.0,183.0,195.0,166.5,196.5" stroke="black" stroke-width="2" fill="none" />
<polyline points="181.0,170.0,165.5,170.5,150.5,170.0,135.5,169.0,121.0,168.5,106.0,169.0,89.5,170.5" stroke="black" stroke-width="2" fill="none" />
<polyline points="95.0,162.5,89.0,170.5,84.0,179.0,89.0,192.5,92.0,200.5" stroke="black" stroke-width="2" fill="none" />
<polyline points="97.5,214.0,105.5,212.0,108.0,216.0,116.0,215.5" stroke="black" stroke-width="2" fill="none" />
<polyline points="115.5,233.0,106.0,231.0,98.0,241.5,90.0,262.0,82.0,260.5,73.5,259.0,66.5,258.5,61.0,262.5,59.0,264.0,51.0,271.5,50.0,263.5,44.5,263.5,36.5,270.5,38.5,258.5,30.5,259.5,22.0,260.5,16.5,264.5,9.5,264.5,12.5,262.5,7.5,264.0,5.0,256.0,9.0,253.5,6.0,255.5,6.0,263.5" stroke="black" stroke-width="2" fill="none" />
<polyline points="6.0,260.5,14.0,259.5,16.0,253.5,23.5,252.5,31.5,251.5,39.0,250.0,42.0,249.5,50.0,250.5,55.0,251.5,61.5,253.5,65.5,250.0,73.5,251.5,81.5,252.5,89.0,252.5" stroke="black" stroke-width="2" fill="none" />
<polyline points="114.0,258.0,118.0,266.0" stroke="black" stroke-width="2" fill="none" />
<polyline points="131.0,296.0,115.5,311.0,99.5,325.0,84.0,340.0" stroke="black" stroke-width="2" fill="none" />
<polyline points="68.5,234.0,52.0,235.5,35.0,235.5,18.0,234.5,1.5,235.0" stroke="black" stroke-width="2" fill="none" />
<polyline points="4.5,245.5,21.0,229.0,36.5,213.5" stroke="black" stroke-width="2" fill="none" />
<polyline points="38.0,209.0,21.5,209.5,5.0,210.5" stroke="black" stroke-width="2" fill="none" />
<polyline points="7.0,200.0,22.5,200.0,38.0,200.0,53.5,200.5" stroke="black" stroke-width="2" fill="none" />
<polyline points="57.5,193.5,42.0,194.5,27.5,195.5,11.5,196.0" stroke="black" stroke-width="2" fill="none" />
<polyline points="7.5,197.5,24.0,182.5,41.0,167.5,58.5,153.0,75.0,137.5" stroke="black" stroke-width="2" fill="none" />
<polyline points="73.5,124.5,58.0,124.5" stroke="black" stroke-width="2" fill="none" />
<polyline points="52.0,136.0,36.0,152.0" stroke="black" stroke-width="2" fill="none" />
<polyline points="39.0,157.0,54.5,156.0" stroke="black" stroke-width="2" fill="none" />
<polyline points="50.0,157.0,57.0,141.5,64.5,138.5" stroke="black" stroke-width="2" fill="none" />
<polyline points="67.5,137.5,52.0,138.0,36.0,138.5,19.5,139.0,3.5,139.0" stroke="black" stroke-width="2" fill="none" />
<polyline points="16.0,142.5,20.0,137.0,13.0,145.5,14.5,153.5" stroke="black" stroke-width="2" fill="none" />
<polyline points="18.5,147.5,26.5,144.5" stroke="black" stroke-width="2" fill="none" />
<polyline points="23.5,142.0,21.0,150.0,21.0,158.5,23.5,166.5" stroke="black" stroke-width="2" fill="none" />
<polyline points="25.0,167.0,8.5,183.0" stroke="black" stroke-width="2" fill="none" />
<polyline points="8.5,189.5,24.5,189.5,39.0,188.5,54.5,188.0" stroke="black" stroke-width="2" fill="none" />
<polyline points="45.5,202.0,54.0,211.0,62.0,211.5" stroke="black" stroke-width="2" fill="none" />
<polyline points="55.0,233.0,56.0,225.0,53.5,217.0,54.5,210.5,51.5,207.5,46.5,202.0,43.5,197.0,45.5,189.5,50.5,181.5,53.0,173.5,49.5,165.5,51.5,157.5,55.0,148.5,60.0,140.5,68.5,132.5,72.5,124.5,72.0,118.0,64.5,117.0,56.5,117.0,48.0,114.0" stroke="black" stroke-width="2" fill="none" />
<polyline points="43.5,122.0,51.5,126.0" stroke="black" stroke-width="2" fill="none" />
<polyline points="53.0,129.0,44.5,121.0,36.0,128.0" stroke="black" stroke-width="2" fill="none" />
<polyline points="34.5,125.5,33.5,133.5,24.0,139.5,28.0,147.0,30.0,155.0,31.0,163.0,24.5,168.0" stroke="black" stroke-width="2" fill="none" />
<polyline points="9.5,173.0,25.0,172.5,40.5,171.5,56.0,171.0" stroke="black" stroke-width="2" fill="none" />
<polyline points="83.0,180.0,91.0,169.0,99.0,164.0,107.5,164.0,116.0,164.0,124.0,161.0,132.0,152.0,139.5,145.0,148.0,136.5,155.5,125.5,165.0,129.0,173.5,133.0" stroke="black" stroke-width="2" fill="none" />
<polyline points="167.5,133.0,151.5,148.5" stroke="black" stroke-width="2" fill="none" />
<polyline points="148.5,141.5,165.0,141.0,181.5,142.0,198.0,141.5,214.5,140.0,230.5,140.0,246.5,139.0,263.0,138.5" stroke="black" stroke-width="2" fill="none" />
<polyline points="275.0,144.5,283.0,144.0,291.0,144.0,299.0,143.5,307.0,142.0" stroke="black" stroke-width="2" fill="none" />
<polyline points="312.5,140.0,296.5,141.0,281.0,141.5" stroke="black" stroke-width="2" fill="none" />
<polyline points="281.5,141.5,289.5,141.5,297.5,140.5,305.5,140.5" stroke="black" stroke-width="2" fill="none" />
<polyline points="293.0,137.5,285.0,138.5" stroke="black" stroke-width="2" fill="none" />
<polyline points="269.0,125.0,261.0,131.0,251.0,130.5,245.0,140.5,237.0,142.0,229.0,134.5,224.0,129.5,216.0,121.5" stroke="black" stroke-width="2" fill="none" />
<polyline points="215.0,117.5,216.5,119.5,219.5,127.5,231.5,137.0" stroke="black" stroke-width="2" fill="none" />
<polyline points="233.0,133.0,216.5,150.0,199.5,166.5" stroke="black" stroke-width="2" fill="none" />
<polyline points="202.5,161.5,186.0,162.5" stroke="black" stroke-width="2" fill="none" />
<polyline points="183.5,171.0,191.5,171.0,199.5,170.0,207.5,170.5,215.0,169.5,223.0,169.0,231.0,169.0,239.0,168.0,245.0,161.0,252.5,161.0,261.0,160.0,269.0,160.0,276.5,155.0,284.0,152.0" stroke="black" stroke-width="2" fill="none" />
<polyline points="262.0,125.0,257.5,133.0,256.0,141.5,253.0,152.5,247.5,152.5,252.5,148.0,258.5,147.0,267.0,145.5,275.5,142.0,283.0,137.5,291.0,134.5,295.0,133.5,303.0,136.0,311.0,140.0,319.0,141.5,327.0,139.0,335.0,137.0,343.5,137.0,352.0,140.0,360.0,147.0,368.0,148.0,376.0,147.0,374.0,149.0,382.5,146.0,391.0,148.0" stroke="black" stroke-width="2" fill="none" />
<polyline points="258.0,183.5,250.0,183.5,239.0,187.0,231.0,190.0,229.5,189.0,231.0,181.0,237.0,178.0,229.0,185.0" stroke="black" stroke-width="2" fill="none" />
<polyline points="239.5,122.0,238.5,115.0,230.5,116.5,222.5,115.5" stroke="black" stroke-width="2" fill="none" />
<polyline points="223.0,102.5,231.0,104.5" stroke="black" stroke-width="2" fill="none" />
<polyline points="231.5,93.0,223.0,96.0" stroke="black" stroke-width="2" fill="none" />
<polyline points="205.0,134.0,198.5,146.0,198.5,145.5,202.5,137.5,203.5,129.5,205.5,121.5,202.5,117.5,214.5,112.5,206.0,113.5,198.0,120.0,189.5,119.0,182.0,114.0,173.5,116.5" stroke="black" stroke-width="2" fill="none" />
<polyline points="177.5,116.5,175.5,124.5,175.0,132.5" stroke="black" stroke-width="2" fill="none" />
<polyline points="150.0,135.0,157.5,129.0,152.5,129.0,148.5,139.5,146.0,147.5,139.0,155.5,136.0,161.5,140.5,161.0,148.5,161.0,156.5,160.0,164.0,160.0,172.5,161.0,168.0,168.0,163.5,176.5" stroke="black" stroke-width="2" fill="none" />
<polyline points="145.5,198.0,133.5,190.0,127.0,188.0,119.5,188.0,111.5,186.5,106.5,191.0,109.5,188.0,102.0,183.0,94.0,182.5,86.5,182.5" stroke="black" stroke-width="2" fill="none" />
<polyline points="85.5,183.0,93.0,181.0,101.0,181.0,112.5,176.0,110.0,184.5,116.5,192.5,117.5,200.5,119.0,208.5,120.0,208.5,131.0,209.5,139.0,209.5,147.0,205.5,147.0,206.5" stroke="black" stroke-width="2" fill="none" />
<polyline points="96.5,215.0,87.5,223.5,76.5,231.5,67.0,239.5,61.0,247.0,61.5,255.0,69.5,259.0,60.0,266.0,64.0,268.5,72.0,274.0,63.5,278.0,67.5,269.0,68.0,279.5,76.0,279.0,84.0,277.0" stroke="black" stroke-width="2" fill="none" />
<polyline points="92.5,224.5,87.5,228.5,96.0,220.5" stroke="black" stroke-width="2" fill="none" />
<polyline points="38.5,201.5,33.5,209.5,37.0,203.5,44.5,198.5,49.5,181.0" stroke="black" stroke-width="2" fill="none" />
<polyline points="23.0,154.5,7.0,155.0" stroke="black" stroke-width="2" fill="none" />
<polyline points="9.5,157.0,2.0,155.0" stroke="black" stroke-width="2" fill="none" />
<polyline points="14.0,128.0,7.0,136.0,5.0,138.5,13.0,129.5,21.0,130.5,27.0,136.5,32.5,142.5,39.5,134.0,47.0,136.0" stroke="black" stroke-width="2" fill="none" />
<polyline points="35.0,90.0,27.0,85.5" stroke="black" stroke-width="2" fill="none" />
<polyline points="27.0,83.0,26.0,91.0" stroke="black" stroke-width="2" fill="none" />
<polyline points="138.5,143.0,130.5,151.0,127.0,160.0,127.0,157.0,134.5,156.0,144.5,149.0" stroke="black" stroke-width="2" fill="none" />
<polyline points="202.0,280.5,204.0,284.5,193.5,286.5" stroke="black" stroke-width="2" fill="none" />
</svg>