<svg xmlns="http://www.w3.org/2000/svg" version="1.1"><polyline points="357.5,41.5,378.0,49.5,389.5,58.0,398.0,66.5,404.5,75.0,407.5,83.5,409.5,92.0,409.5,100.5,408.5,108.5,405.0,116.5,400.0,124.0,393.0,132.0,383.5,140.5,366.5,148.5" stroke="black" stroke-width="2" fill="none" />
<polyline points="363.5,146.5,355.0,154.0" stroke="black" stroke-width="2" fill="none" />
<polyline points="354.5,153.0,362.5,152.5,370.5,152.5" stroke="black" stroke-width="2" fill="none" />
<polyline points="372.0,154.0,380.5,146.5,389.0,139.0,397.0,131.5" stroke="black" stroke-width="2" fill="none" />
<polyline points="397.0,124.5,405.0,124.0,412.5,124.5,420.5,124.5,428.5,124.0,436.5,124.0,444.5,124.0,452.0,123.5,460.0,123.5,468.5,122.5,476.5,122.0,484.5,121.5,491.5,121.0,499.0,120.5,507.0,120.0,515.5,119.5" stroke="black" stroke-width="2" fill="none" />
<polyline points="514.5,117.0,507.0,124.0,499.5,132.0" stroke="black" stroke-width="2" fill="none" />
<polyline points="499.0,124.5,507.0,117.0,515.5,110.0" stroke="black" stroke-width="2" fill="none" />
<polyline points="516.0,101.5,507.5,109.0,499.5,116.0" stroke="black" stroke-width="2" fill="none" />
<polyline points="489.5,122.0,481.5,129.5,474.5,137.0,467.0,144.5,459.0,152.5" stroke="black" stroke-width="2" fill="none" />
<polyline points="452.0,150.0,460.0,143.5,468.0,137.0,476.0,130.0,483.5,122.0,491.0,114.0,498.5,106.5,506.5,99.0,514.0,91.5" stroke="black" stroke-width="2" fill="none" />
<polyline points="513.5,85.0,506.0,93.0,498.5,100.0,490.5,106.5,483.0,113.5,475.0,120.0,467.0,127.5,459.0,135.5,450.5,143.0,442.5,151.0" stroke="black" stroke-width="2" fill="none" />
<polyline points="438.0,137.5,445.5,129.5,453.5,121.5,461.5,113.5,469.5,105.5,478.0,97.5,486.0,90.0,494.0,82.5,502.0,75.0,510.0,67.0,517.5,59.5" stroke="black" stroke-width="2" fill="none" />
<polyline points="515.5,69.0,507.5,76.5,499.5,83.0,491.5,90.0" stroke="black" stroke-width="2" fill="none" />
<polyline points="499.0,90.0,490.5,98.0" stroke="black" stroke-width="2" fill="none" />
<polyline points="483.0,100.5,475.0,108.0,466.5,115.5,458.5,123.0,450.5,130.5,442.5,138.0,435.0,145.0,427.5,152.0" stroke="black" stroke-width="2" fill="none" />
<polyline points="425.5,147.0,417.5,154.5" stroke="black" stroke-width="2" fill="none" />
<polyline points="419.5,150.5,411.5,157.5" stroke="black" stroke-width="2" fill="none" />
<polyline points="404.0,153.0,412.5,145.5,420.5,137.5,428.0,130.0,435.5,122.5,444.0,114.5,451.5,107.0" stroke="black" stroke-width="2" fill="none" />
<polyline points="459.0,98.5,466.5,91.5" stroke="black" stroke-width="2" fill="none" />
<polyline points="459.5,89.5,451.0,97.0" stroke="black" stroke-width="2" fill="none" />
<polyline points="452.0,89.0,459.5,81.0,467.5,73.0" stroke="black" stroke-width="2" fill="none" />
<polyline points="484.5,73.5,492.5,66.5,500.5,59.5,508.0,52.0,516.0,44.5" stroke="black" stroke-width="2" fill="none" />
<polyline points="514.0,37.0,505.5,44.0,498.0,51.5,491.0,58.5" stroke="black" stroke-width="2" fill="none" />
<polyline points="484.5,50.0,493.0,42.5,502.0,35.0,510.0,27.0" stroke="black" stroke-width="2" fill="none" />
<polyline points="506.5,18.5,514.5,10.5" stroke="black" stroke-width="2" fill="none" />
<polyline points="508.0,3.5,500.0,11.0" stroke="black" stroke-width="2" fill="none" />
<polyline points="499.0,4.0,491.0,11.5" stroke="black" stroke-width="2" fill="none" />
<polyline points="484.0,9.5,492.0,2.0" stroke="black" stroke-width="2" fill="none" />
<polyline points="498.0,20.0,490.5,28.0" stroke="black" stroke-width="2" fill="none" />
<polyline points="491.0,36.5,499.0,29.0" stroke="black" stroke-width="2" fill="none" />
<polyline points="498.0,45.0,489.5,52.5,482.0,59.5,474.5,66.0" stroke="black" stroke-width="2" fill="none" />
<polyline points="475.0,74.5,483.5,67.0" stroke="black" stroke-width="2" fill="none" />
<polyline points="492.5,74.0,500.0,67.0,507.5,59.5" stroke="black" stroke-width="2" fill="none" />
<polyline points="482.5,45.5,475.0,53.5,467.0,61.0,459.0,68.5" stroke="black" stroke-width="2" fill="none" />
<polyline points="452.0,59.0,444.5,66.5" stroke="black" stroke-width="2" fill="none" />
<polyline points="466.5,51.0,474.0,44.0,482.0,37.0" stroke="black" stroke-width="2" fill="none" />
<polyline points="474.5,26.5,483.0,19.0" stroke="black" stroke-width="2" fill="none" />
<polyline points="467.0,40.5,458.5,48.5" stroke="black" stroke-width="2" fill="none" />
<polyline points="482.5,83.5,474.5,91.0,467.0,98.5,459.5,105.5,452.0,112.5,444.0,119.5,436.0,127.0,427.5,134.5" stroke="black" stroke-width="2" fill="none" />
<polyline points="411.5,130.5,403.5,138.0" stroke="black" stroke-width="2" fill="none" />
<polyline points="404.0,131.0,396.0,139.0,387.5,146.5,379.0,153.5" stroke="black" stroke-width="2" fill="none" />
<polyline points="387.0,155.5,395.5,148.0" stroke="black" stroke-width="2" fill="none" />
<polyline points="396.0,152.5,403.0,145.5,411.0,138.0,418.5,131.5,426.5,124.5,434.5,117.0" stroke="black" stroke-width="2" fill="none" />
<polyline points="419.0,99.0,427.0,92.0" stroke="black" stroke-width="2" fill="none" />
<polyline points="410.5,93.0,418.5,92.5,426.5,92.0,434.5,92.0,442.5,91.0,450.5,90.5,459.0,90.0,467.5,90.0,476.0,89.0,484.5,88.5,492.5,87.5,500.5,87.0,508.5,86.5,516.5,86.0" stroke="black" stroke-width="2" fill="none" />
<polyline points="483.5,108.0,475.0,116.0,467.5,123.5,459.5,131.5,451.5,139.5,443.5,147.0,435.5,154.5" stroke="black" stroke-width="2" fill="none" />
<polyline points="435.5,174.5,427.5,175.0" stroke="black" stroke-width="2" fill="none" />
<polyline points="426.0,180.0,417.5,187.0,409.5,194.5,401.5,202.0,393.5,210.0" stroke="black" stroke-width="2" fill="none" />
<polyline points="396.0,205.5,404.0,205.0,412.0,205.0,420.0,205.0,428.0,204.5,436.5,204.0,444.0,203.5,452.0,202.0,460.0,201.0,468.0,200.0,475.5,200.0,484.0,199.5,491.5,199.0,499.5,198.5,506.5,197.5,514.0,197.0" stroke="black" stroke-width="2" fill="none" />
<polyline points="516.5,194.5,508.5,202.5,500.5,211.0,492.5,218.5,484.5,226.0,476.5,233.0,468.5,240.5,460.0,247.5,452.0,254.5,444.0,262.0,436.0,269.0,428.5,276.5,420.0,284.5,412.0,292.0,403.5,299.0,395.5,306.5,388.0,314.5,380.0,321.5,372.5,329.0" stroke="black" stroke-width="2" fill="none" />
<polyline points="381.5,330.0,389.5,323.5,397.5,317.0,405.5,309.5,413.5,302.0,421.5,295.0,429.5,287.5,437.5,279.5,445.0,272.5,453.0,265.0,461.0,257.0,469.0,249.0,476.5,241.5,484.0,234.0,491.5,226.5,498.5,219.5,506.0,212.0,514.0,204.5" stroke="black" stroke-width="2" fill="none" />
<polyline points="515.5,211.5,507.5,219.0,499.5,226.0,492.0,233.5,484.5,240.5,477.0,247.5,469.5,255.5,461.0,263.5,453.5,271.5,445.5,279.0,437.5,286.5,429.5,294.0,421.5,301.5,413.5,309.5,404.5,316.5,396.0,324.0,388.0,331.5" stroke="black" stroke-width="2" fill="none" />
<polyline points="386.0,331.5,394.0,331.0,402.5,330.5,410.5,330.0,419.0,329.5,428.0,329.0" stroke="black" stroke-width="2" fill="none" />
<polyline points="427.5,332.5,435.0,325.0,442.5,317.5,450.0,311.0,458.0,304.0,466.0,297.0,474.0,290.0,482.5,282.5,491.0,275.0,499.5,267.5,507.5,260.0,516.0,252.0" stroke="black" stroke-width="2" fill="none" />
<polyline points="514.0,243.5,506.5,251.5,498.5,259.5,490.5,267.5,483.0,275.0,475.0,282.5,467.0,289.5,459.5,296.0,452.0,303.0,444.5,310.5,436.5,317.5,428.5,325.5,420.0,333.0" stroke="black" stroke-width="2" fill="none" />
<polyline points="434.5,334.0,443.0,326.0,451.0,318.5,459.5,310.5,467.5,303.5,475.0,296.0,483.5,289.0,491.5,282.0,499.5,275.5,507.5,268.5,516.0,262.0" stroke="black" stroke-width="2" fill="none" />
<polyline points="515.0,268.5,507.0,276.0,498.5,283.5,490.5,290.5,482.0,297.5,474.0,304.5,466.0,311.0,458.5,318.0,450.5,325.0,442.0,333.0" stroke="black" stroke-width="2" fill="none" />
<polyline points="435.5,329.0,443.5,328.0,451.5,328.0,459.0,328.0,467.0,328.0,475.0,327.5" stroke="black" stroke-width="2" fill="none" />
<polyline points="476.0,335.0,484.5,327.5,493.0,320.0,501.0,312.5,509.0,304.5,517.0,297.0" stroke="black" stroke-width="2" fill="none" />
<polyline points="518.0,289.0,510.0,297.0,501.5,304.5,492.5,312.0,484.0,319.5,475.5,327.0,467.0,335.0" stroke="black" stroke-width="2" fill="none" />
<polyline points="470.5,336.0,478.0,335.5,486.0,335.0" stroke="black" stroke-width="2" fill="none" />
<polyline points="499.5,338.0,508.0,331.0,516.0,323.5" stroke="black" stroke-width="2" fill="none" />
<polyline points="514.0,329.5,506.0,337.5" stroke="black" stroke-width="2" fill="none" />
<polyline points="507.0,337.0,515.5,337.0" stroke="black" stroke-width="2" fill="none" />
<polyline points="508.5,329.5,501.0,330.5" stroke="black" stroke-width="2" fill="none" />
<polyline points="500.5,320.5,508.5,320.0,516.5,319.5" stroke="black" stroke-width="2" fill="none" />
<polyline points="516.5,316.5,508.5,324.0,500.5,331.0,492.0,338.5" stroke="black" stroke-width="2" fill="none" />
<polyline points="484.0,338.0,493.0,330.0,501.5,322.0,510.0,314.5,518.0,306.5" stroke="black" stroke-width="2" fill="none" />
<polyline points="516.5,282.5,508.5,290.0,500.5,298.0,492.5,306.0,484.5,313.5,476.5,321.0,467.5,328.5,458.5,336.0" stroke="black" stroke-width="2" fill="none" />
<polyline points="451.0,335.0,459.0,327.5,467.5,320.0,475.5,312.5,484.0,305.0,492.0,297.0,499.5,290.0,507.0,283.0,514.5,275.5" stroke="black" stroke-width="2" fill="none" />
<polyline points="485.5,265.5,477.0,266.0" stroke="black" stroke-width="2" fill="none" />
<polyline points="477.5,280.5,470.0,281.0" stroke="black" stroke-width="2" fill="none" />
<polyline points="469.0,289.0,461.5,289.5" stroke="black" stroke-width="2" fill="none" />
<polyline points="459.0,305.0,450.5,305.5" stroke="black" stroke-width="2" fill="none" />
<polyline points="460.0,315.5,468.5,315.0" stroke="black" stroke-width="2" fill="none" />
<polyline points="478.0,314.0,485.5,313.5" stroke="black" stroke-width="2" fill="none" />
<polyline points="475.0,319.5,467.5,320.0,459.5,320.5,451.0,320.0,443.0,320.0" stroke="black" stroke-width="2" fill="none" />
<polyline points="444.0,304.5,435.5,305.0" stroke="black" stroke-width="2" fill="none" />
<polyline points="436.5,291.0,444.5,290.5" stroke="black" stroke-width="2" fill="none" />
<polyline points="442.5,283.0,434.5,283.5" stroke="black" stroke-width="2" fill="none" />
<polyline points="450.0,273.0,458.0,272.5" stroke="black" stroke-width="2" fill="none" />
<polyline points="444.0,297.0,435.5,297.5,427.5,297.5,420.0,297.0" stroke="black" stroke-width="2" fill="none" />
<polyline points="412.5,288.0,420.5,287.0,428.5,287.0" stroke="black" stroke-width="2" fill="none" />
<polyline points="421.0,280.5,412.5,281.0" stroke="black" stroke-width="2" fill="none" />
<polyline points="413.5,275.5,421.5,275.0" stroke="black" stroke-width="2" fill="none" />
<polyline points="411.0,270.5,419.0,269.5,427.5,268.5,435.5,267.5,442.5,267.5,450.5,267.0,459.0,266.0,467.0,265.0,475.0,264.5,483.0,264.0,491.0,264.0,499.0,263.5,506.5,263.5,514.0,263.5" stroke="black" stroke-width="2" fill="none" />
<polyline points="514.5,236.0,506.0,244.0,498.0,251.5,490.5,259.5,483.0,267.5,476.0,275.0,468.0,282.5,460.0,289.5,452.0,297.0,444.5,304.0,436.0,311.5,428.0,319.0,420.0,326.0,412.0,333.5" stroke="black" stroke-width="2" fill="none" />
<polyline points="404.0,332.0,412.0,324.5,420.0,317.5,428.0,310.5,436.0,303.0,444.0,295.0,452.0,287.0,460.5,279.5,468.5,271.5,477.0,264.0,484.5,256.5,492.5,249.0,500.5,241.5,508.0,234.0,515.5,226.0" stroke="black" stroke-width="2" fill="none" />
<polyline points="518.5,217.0,510.0,224.5,501.0,232.0,492.5,240.0,484.0,248.0,476.0,256.0,468.0,263.0,460.5,270.0,453.0,277.5,444.5,284.5,436.5,292.0,429.0,300.0,421.0,308.5,413.0,317.0,404.5,325.0,396.5,332.5" stroke="black" stroke-width="2" fill="none" />
<polyline points="401.5,337.0,409.5,336.5,418.0,336.0,427.0,335.5,435.5,335.0,444.0,334.5,452.5,334.5,460.5,334.5" stroke="black" stroke-width="2" fill="none" />
<polyline points="435.0,320.0,427.0,320.5,419.5,321.0,411.5,321.5,403.5,321.5" stroke="black" stroke-width="2" fill="none" />
<polyline points="402.5,314.5,411.0,314.0,419.5,313.5" stroke="black" stroke-width="2" fill="none" />
<polyline points="411.5,306.0,403.5,306.5" stroke="black" stroke-width="2" fill="none" />
<polyline points="401.5,290.5,393.0,291.0" stroke="black" stroke-width="2" fill="none" />
<polyline points="394.5,285.5,402.5,285.0,411.0,284.0,419.5,283.0,428.0,282.5,436.0,282.0,444.0,281.5,451.5,280.5,459.0,280.0,466.5,279.5,475.0,279.0,483.0,279.0,491.5,279.5,499.5,279.0,507.0,278.5,515.0,278.0" stroke="black" stroke-width="2" fill="none" />
<polyline points="485.0,209.5,477.0,210.5" stroke="black" stroke-width="2" fill="none" />
<polyline points="492.0,200.5,484.0,200.5,475.5,200.5,467.5,200.5,459.5,201.0" stroke="black" stroke-width="2" fill="none" />
<polyline points="459.5,187.5,451.0,194.5,443.5,202.0,435.5,209.5,428.0,218.0,420.5,226.0,412.5,233.0" stroke="black" stroke-width="2" fill="none" />
<polyline points="411.5,228.5,419.5,228.0,426.5,227.5,434.5,227.0,442.0,226.5,450.0,226.0,458.5,226.5,466.5,227.0,474.5,226.5,482.5,225.5,490.5,225.5,498.5,224.5,507.0,224.0,515.5,223.5" stroke="black" stroke-width="2" fill="none" />
<polyline points="508.0,200.0,500.0,200.5" stroke="black" stroke-width="2" fill="none" />
<polyline points="492.5,189.0,485.0,197.0,476.5,204.0,468.0,211.5,460.0,219.5,451.5,227.0,443.5,234.5,436.0,242.0,428.0,249.0,420.0,256.0,412.0,263.0" stroke="black" stroke-width="2" fill="none" />
<polyline points="409.5,261.5,417.5,261.0,425.5,260.0,433.0,259.5,441.0,259.0,449.0,258.5,457.0,258.0,466.0,257.5,474.5,257.5,483.5,257.0,491.0,256.5,499.5,256.0,507.0,256.0,515.0,255.5" stroke="black" stroke-width="2" fill="none" />
<polyline points="515.0,186.5,507.0,194.0,498.5,201.0,490.5,209.0,482.5,217.0,475.0,224.5,467.0,231.5,459.0,238.5,451.0,245.5,443.0,253.0,434.5,260.5,427.0,268.0,419.5,276.0,412.5,283.5,405.0,291.5,397.0,299.0,389.0,306.5,380.5,314.0,372.5,321.5,364.5,329.5" stroke="black" stroke-width="2" fill="none" />
<polyline points="357.0,331.5,365.0,324.0,372.5,316.0,380.5,308.5,388.0,300.0,395.0,292.5,402.5,284.5,410.5,276.5,418.0,268.5,426.0,260.5,434.0,253.0,441.5,245.5,449.5,238.5,457.0,231.0,465.0,223.5,473.5,216.5,482.5,209.0,491.0,201.5,499.5,194.0,508.0,186.5" stroke="black" stroke-width="2" fill="none" />
<polyline points="497.5,186.0,489.5,193.5,481.5,200.5,474.0,207.5,467.0,215.0,459.5,223.0,452.5,230.0,445.0,237.5,437.5,245.0,429.0,252.5,421.0,260.0,413.0,267.5,405.0,275.5,397.0,283.0,388.5,290.5,380.0,298.0,372.0,305.5,363.0,313.0,354.5,320.5,346.5,328.0" stroke="black" stroke-width="2" fill="none" />
<polyline points="338.5,338.0,346.5,330.0,355.0,322.5,363.5,315.0,371.5,307.0,379.0,298.5,386.5,291.0" stroke="black" stroke-width="2" fill="none" />
<polyline points="381.0,296.0,389.0,296.0,397.0,295.0,405.0,294.0,413.0,293.5" stroke="black" stroke-width="2" fill="none" />
<polyline points="403.0,277.0,411.0,276.5,419.5,276.0,428.0,276.0,436.0,276.0,444.0,275.5,452.5,275.0,461.0,275.0,469.0,275.0,476.5,274.5,484.0,274.5,492.5,274.0,501.0,274.0,509.0,273.0,516.5,272.0" stroke="black" stroke-width="2" fill="none" />
<polyline points="484.0,188.0,475.5,195.5,467.5,203.0,459.0,210.0,451.5,217.0,443.5,224.0,435.5,232.0,428.0,240.0,420.0,247.5" stroke="black" stroke-width="2" fill="none" />
<polyline points="418.5,245.0,426.5,244.5,435.0,244.0,443.0,243.5,451.0,244.0,459.0,243.5,467.0,243.0,475.0,242.0,483.5,241.5,491.5,241.0,500.0,240.5,507.5,240.5,515.0,240.0" stroke="black" stroke-width="2" fill="none" />
<polyline points="473.0,186.5,465.5,194.0,458.5,202.0,450.5,210.0,443.0,218.0,435.0,226.0,427.5,234.0,419.5,241.5" stroke="black" stroke-width="2" fill="none" />
<polyline points="417.5,238.0,425.5,237.0,434.0,236.0,442.5,235.0,451.0,234.0,459.5,233.5,467.5,233.5,475.5,233.0,483.5,232.5,491.5,231.5,499.0,231.0,507.5,231.0,516.0,230.5" stroke="black" stroke-width="2" fill="none" />
<polyline points="466.0,187.0,458.0,194.5,450.0,202.0,442.0,209.5,434.0,217.0,426.5,224.5,418.5,232.5" stroke="black" stroke-width="2" fill="none" />
<polyline points="411.5,225.5,420.0,217.5,428.0,210.0,436.0,202.5,444.5,194.5,453.0,186.5" stroke="black" stroke-width="2" fill="none" />
<polyline points="442.5,189.0,435.0,197.0,427.0,204.5,419.5,211.5,412.0,218.5" stroke="black" stroke-width="2" fill="none" />
<polyline points="412.0,223.0,419.5,222.5,427.5,222.0,435.5,221.5,443.0,221.0,451.0,220.0,459.0,219.5,467.0,219.5,475.0,219.5,483.0,219.0,491.0,218.5,499.0,218.0,507.0,217.0,515.5,216.5" stroke="black" stroke-width="2" fill="none" />
<polyline points="508.0,147.0,515.5,139.5" stroke="black" stroke-width="2" fill="none" />
<polyline points="516.5,132.0,509.0,139.5,500.5,146.5" stroke="black" stroke-width="2" fill="none" />
<polyline points="492.5,147.0,500.5,140.0,508.5,133.0,517.0,126.5" stroke="black" stroke-width="2" fill="none" />
<polyline points="490.0,131.0,482.0,138.5,474.0,145.5,466.5,153.0" stroke="black" stroke-width="2" fill="none" />
<polyline points="481.5,146.5,489.5,139.0" stroke="black" stroke-width="2" fill="none" />
<polyline points="434.5,189.5,426.5,197.0,418.0,204.5,410.0,212.0,402.5,219.5" stroke="black" stroke-width="2" fill="none" />
<polyline points="403.5,214.5,411.5,214.0,419.5,213.5,427.5,213.0,435.5,212.5,443.5,212.0,452.0,211.0,460.5,210.0,468.5,209.0,477.0,208.5,485.5,208.5,493.0,208.0,500.5,207.0,508.0,206.5,516.0,206.0" stroke="black" stroke-width="2" fill="none" />
<polyline points="427.5,188.5,419.5,196.5,411.0,204.0,403.0,211.5" stroke="black" stroke-width="2" fill="none" />
<polyline points="396.0,203.5,404.0,196.0,411.5,188.5,419.5,181.0" stroke="black" stroke-width="2" fill="none" />
<polyline points="411.5,181.0,403.5,188.0,396.0,195.5,388.5,202.5" stroke="black" stroke-width="2" fill="none" />
<polyline points="388.0,196.5,396.5,196.0,404.5,195.5,413.0,195.0,421.0,195.0,429.0,194.0,437.0,194.0,444.5,193.5,452.0,193.0,459.0,192.5,466.5,192.0,474.5,191.5,483.0,191.0,491.0,190.5,499.0,191.0,507.0,190.5,515.0,190.0" stroke="black" stroke-width="2" fill="none" />
<polyline points="514.5,248.5,506.5,248.5,499.0,249.0,491.5,249.5,483.5,249.0,476.0,249.5,468.5,250.0,461.0,250.5,453.0,250.5,445.0,251.5,437.5,252.0,429.5,252.0,422.0,252.5" stroke="black" stroke-width="2" fill="none" />
<polyline points="404.0,253.5,396.0,254.0" stroke="black" stroke-width="2" fill="none" />
<polyline points="396.5,269.0,388.5,269.5" stroke="black" stroke-width="2" fill="none" />
<polyline points="386.5,278.0,378.0,278.5" stroke="black" stroke-width="2" fill="none" />
<polyline points="379.0,292.5,387.0,292.5,395.0,292.5,404.0,292.5,413.0,292.0,421.0,291.0,429.0,290.5,437.0,290.0,444.5,289.5,452.5,289.0,460.5,288.0,469.0,287.5,477.0,286.5,485.0,285.5,493.0,285.0,501.0,285.0,508.5,284.5,516.0,283.5" stroke="black" stroke-width="2" fill="none" />
<polyline points="427.5,200.0,419.5,200.5" stroke="black" stroke-width="2" fill="none" />
<polyline points="404.0,177.5,396.0,185.0,388.0,193.0" stroke="black" stroke-width="2" fill="none" />
<polyline points="378.0,196.0,385.5,189.0,393.5,181.5" stroke="black" stroke-width="2" fill="none" />
<polyline points="379.5,186.0,371.5,194.0" stroke="black" stroke-width="2" fill="none" />
<polyline points="364.5,193.0,372.5,185.0" stroke="black" stroke-width="2" fill="none" />
<polyline points="372.0,178.0,364.0,186.0" stroke="black" stroke-width="2" fill="none" />
<polyline points="362.5,191.5,370.5,190.5,379.0,189.5,387.5,189.0,395.5,188.0,403.5,186.5,411.5,185.5,418.5,185.0,426.5,184.5,434.5,183.5,442.0,183.5,450.5,183.0,458.5,182.5,466.5,182.0,475.5,181.5,484.0,181.5,492.5,181.0,500.0,181.0,508.0,181.0,516.5,181.0" stroke="black" stroke-width="2" fill="none" />
<polyline points="516.5,103.5,508.0,104.0,499.5,104.0,491.0,104.0,483.5,104.5,476.0,105.0,468.0,105.5,459.5,106.0,451.0,106.5,443.0,106.5,435.0,107.0,426.5,108.0,418.5,109.0,411.0,110.0" stroke="black" stroke-width="2" fill="none" />
<polyline points="410.0,100.5,418.5,100.0,426.5,99.5,434.5,99.0,443.5,98.5,452.0,98.5,460.5,98.0,468.0,98.0,476.0,98.0,484.5,98.0,493.0,97.5,500.5,96.5,509.0,96.0,516.5,95.5" stroke="black" stroke-width="2" fill="none" />
<polyline points="515.5,78.5,507.5,79.0,500.0,79.0,492.0,79.5,484.0,80.0,476.0,80.5,468.0,81.0,460.0,81.0,452.0,81.5,443.5,82.5,435.0,83.0,427.0,84.0,419.0,85.0,411.5,85.5" stroke="black" stroke-width="2" fill="none" />
<polyline points="410.0,77.0,418.5,76.5,426.0,76.0,434.0,75.5,442.5,74.5,451.0,73.5,459.0,73.5,467.5,74.0,476.5,74.0,485.5,73.5,494.0,73.0,501.5,72.5,509.5,72.0,517.0,71.0" stroke="black" stroke-width="2" fill="none" />
<polyline points="516.0,111.5,508.0,111.5,499.5,111.5,491.5,111.5,483.5,112.0,475.5,113.0,468.0,113.5,460.5,115.0,452.0,116.0,443.5,117.0,435.5,117.5,427.5,118.0,418.5,118.0,409.5,118.0,401.5,118.5" stroke="black" stroke-width="2" fill="none" />
<polyline points="388.0,132.0,396.0,132.0,404.0,132.0,412.0,131.5,419.5,131.0,427.0,130.5,435.0,130.0,442.5,129.5,450.0,129.0,457.5,129.0,465.5,129.0,473.5,128.0,482.0,127.0,490.5,126.0,499.0,125.0,507.5,124.5,515.5,124.5" stroke="black" stroke-width="2" fill="none" />
<polyline points="515.5,62.0,507.5,62.5,499.5,63.0,491.0,64.0,482.5,64.5,474.5,65.0,467.0,65.5,459.0,66.0,450.5,67.0,442.5,68.0,434.5,68.5,425.5,68.5,417.5,69.0,409.5,70.0,401.5,70.5" stroke="black" stroke-width="2" fill="none" />
<polyline points="394.5,62.5,403.0,62.0,411.5,61.5,419.5,61.0,428.0,60.5,436.0,60.5,444.0,60.5,451.5,60.0,459.0,60.0,467.0,59.0,474.5,58.5,482.5,58.0,491.0,57.5,499.0,57.0,507.0,56.0,515.0,54.5" stroke="black" stroke-width="2" fill="none" />
<polyline points="515.5,44.5,508.0,45.0,499.5,45.5,491.5,46.5,483.5,47.0,475.5,47.0,467.5,47.5,459.5,48.5,451.5,49.0,444.0,49.5,436.0,50.0,428.5,50.5,421.0,50.5,413.0,50.5,405.0,51.0,397.0,52.0,389.0,52.5" stroke="black" stroke-width="2" fill="none" />
<polyline points="372.0,45.5,380.0,45.5,387.5,45.0,395.5,44.5,403.0,43.5,411.0,43.0,418.5,42.5,427.0,41.5,435.0,41.0,443.5,40.5,451.5,39.5,459.5,39.0,466.5,38.5,474.5,38.0,482.0,37.5,490.0,37.0,498.5,37.5,506.5,38.0,514.5,37.5" stroke="black" stroke-width="2" fill="none" />
<polyline points="514.0,132.5,505.0,133.0,497.0,133.5,489.0,134.0,481.0,134.5,473.5,135.0,465.5,136.0,457.5,136.5,449.5,137.5,442.0,138.0,434.5,138.5,426.5,139.5,418.5,140.0,411.5,141.0,404.0,141.5,396.5,142.0,388.5,141.5,380.5,141.5" stroke="black" stroke-width="2" fill="none" />
<polyline points="372.5,146.0,364.5,154.0" stroke="black" stroke-width="2" fill="none" />
<polyline points="357.0,148.5,349.5,156.0" stroke="black" stroke-width="2" fill="none" />
<polyline points="348.0,150.0,356.0,149.5,364.0,149.0,371.0,149.0,378.5,149.0,386.5,149.0,394.0,148.0,401.5,147.0,409.0,145.5,417.0,144.5,425.5,144.0,433.5,143.5,442.0,143.0,451.0,142.5,459.5,142.0,468.0,141.5,476.5,141.5" stroke="black" stroke-width="2" fill="none" />
<polyline points="411.0,172.0,403.5,172.5,396.0,173.0,388.0,173.0,380.5,173.0" stroke="black" stroke-width="2" fill="none" />
<polyline points="364.0,178.5,356.0,186.0" stroke="black" stroke-width="2" fill="none" />
<polyline points="357.0,179.5,348.5,186.5" stroke="black" stroke-width="2" fill="none" />
<polyline points="340.5,186.5,348.0,178.5" stroke="black" stroke-width="2" fill="none" />
<polyline points="338.5,178.0,330.5,185.5" stroke="black" stroke-width="2" fill="none" />
<polyline points="331.5,179.5,323.5,186.5" stroke="black" stroke-width="2" fill="none" />
<polyline points="321.5,178.5,313.5,186.5" stroke="black" stroke-width="2" fill="none" />
<polyline points="308.5,187.0,317.0,179.0" stroke="black" stroke-width="2" fill="none" />
<polyline points="307.5,178.5,299.5,186.0,291.5,194.0" stroke="black" stroke-width="2" fill="none" />
<polyline points="292.0,194.0,272.0,202.0,257.0,210.5,243.5,218.0,230.0,226.0" stroke="black" stroke-width="2" fill="none" />
<polyline points="227.5,228.0,235.5,220.5,244.0,212.5,252.5,204.5" stroke="black" stroke-width="2" fill="none" />
<polyline points="253.0,211.5,261.0,204.5,269.0,197.0" stroke="black" stroke-width="2" fill="none" />
<polyline points="274.5,192.0,282.0,191.5,290.5,190.5,299.0,190.0" stroke="black" stroke-width="2" fill="none" />
<polyline points="299.5,195.0,307.5,194.0,315.5,194.0,323.0,194.5,331.0,194.5,338.5,194.0,346.0,194.0,354.0,194.5,361.5,195.0,369.5,194.5" stroke="black" stroke-width="2" fill="none" />
<polyline points="364.0,194.0,372.0,193.0,379.5,193.0,387.5,193.0,395.0,192.0,403.0,191.5,410.5,191.0,418.5,190.5,426.5,190.0,434.5,189.5,443.0,189.0,450.5,188.0,458.5,187.0,467.0,186.0,475.0,185.5,483.0,185.5,491.5,185.0,500.0,184.5,508.0,184.0,515.5,183.5" stroke="black" stroke-width="2" fill="none" />
<polyline points="516.5,290.5,508.5,291.5,500.0,292.0,491.5,293.0,483.0,293.0,474.5,293.5,466.5,294.0,458.5,295.0,450.5,295.0,442.5,295.5,434.5,296.0,426.5,296.0,418.5,296.5,410.5,297.5,402.0,298.5,394.0,299.0,386.0,299.5,378.5,300.0,370.5,300.5,362.5,301.5,354.5,302.0" stroke="black" stroke-width="2" fill="none" />
<polyline points="355.0,307.0,347.0,314.0,338.0,322.0,330.0,329.5,322.5,337.5" stroke="black" stroke-width="2" fill="none" />
<polyline points="331.0,337.0,339.0,329.5,347.0,321.5,355.5,313.5,364.0,305.5,372.0,298.0" stroke="black" stroke-width="2" fill="none" />
<polyline points="380.0,303.5,372.0,304.5,364.5,305.0" stroke="black" stroke-width="2" fill="none" />
<polyline points="349.0,309.0,341.0,317.0,333.0,324.0,324.5,330.5,317.0,337.5" stroke="black" stroke-width="2" fill="none" />
<polyline points="307.0,336.5,314.5,328.5,322.5,321.0,330.5,313.5,338.5,306.5" stroke="black" stroke-width="2" fill="none" />
<polyline points="333.5,308.5,325.0,316.0,317.0,323.0,308.5,330.0,300.5,337.5" stroke="black" stroke-width="2" fill="none" />
<polyline points="290.0,336.0,298.5,328.5,306.5,321.5,315.0,314.5,323.0,307.0" stroke="black" stroke-width="2" fill="none" />
<polyline points="315.5,309.0,307.5,316.5,299.5,324.0,291.5,331.0,284.0,338.5" stroke="black" stroke-width="2" fill="none" />
<polyline points="276.5,336.0,284.5,328.5,292.0,321.0,300.0,313.5,308.0,305.5" stroke="black" stroke-width="2" fill="none" />
<polyline points="307.0,298.0,299.0,305.5,291.0,313.0,283.0,321.0,275.0,329.0,267.5,337.0" stroke="black" stroke-width="2" fill="none" />
<polyline points="260.5,337.5,268.0,330.5,276.0,323.5,283.5,315.5,291.0,307.5,298.5,300.0" stroke="black" stroke-width="2" fill="none" />
<polyline points="292.5,300.5,284.5,308.5,277.0,315.5,269.0,322.5,260.5,329.5,252.0,336.5" stroke="black" stroke-width="2" fill="none" />
<polyline points="242.5,337.0,250.5,329.5,258.5,323.0,266.5,315.5,275.0,308.0,283.0,300.5" stroke="black" stroke-width="2" fill="none" />
<polyline points="275.5,298.5,267.5,306.5,259.5,314.0,251.5,321.5,243.5,329.5,236.0,337.5" stroke="black" stroke-width="2" fill="none" />
<polyline points="226.5,335.0,234.5,327.0,242.5,319.5,250.5,312.0,259.0,305.0,267.5,297.5,275.5,290.0" stroke="black" stroke-width="2" fill="none" />
<polyline points="268.0,290.5,260.0,298.0,252.5,305.0,244.5,312.5,237.0,320.0,229.5,327.5,221.0,335.0" stroke="black" stroke-width="2" fill="none" />
<polyline points="212.0,336.0,219.5,329.0,227.5,321.5,235.0,314.0,243.0,306.5,250.5,299.5,258.5,292.5" stroke="black" stroke-width="2" fill="none" />
<polyline points="260.5,285.0,252.5,292.0,244.0,299.0,235.5,306.0,227.5,313.0,219.0,320.5,211.5,328.0,203.5,336.0" stroke="black" stroke-width="2" fill="none" />
<polyline points="196.5,337.5,203.5,330.5,211.5,323.0,219.5,315.0,227.5,307.5,235.5,300.5,243.0,293.5,251.0,286.0" stroke="black" stroke-width="2" fill="none" />
<polyline points="252.5,277.0,244.5,284.5,236.0,292.0,228.0,299.0,219.5,306.5,212.0,314.0,204.5,321.5,197.0,329.0,189.0,336.5" stroke="black" stroke-width="2" fill="none" />
<polyline points="178.5,335.0,186.5,328.0,194.5,320.5,203.0,313.5,211.0,306.5,219.0,299.0,227.0,291.5,235.0,284.0,242.5,276.5" stroke="black" stroke-width="2" fill="none" />
<polyline points="236.5,276.0,228.5,283.5,220.5,291.0,212.5,298.0,204.5,305.0,196.0,312.0,188.0,319.5,179.5,327.0,171.5,334.5" stroke="black" stroke-width="2" fill="none" />
<polyline points="162.5,334.0,170.5,326.5,178.5,319.0,187.0,312.0,195.0,304.5,203.5,297.5,211.5,290.5,219.5,283.0,228.0,275.5,236.0,267.5" stroke="black" stroke-width="2" fill="none" />
<polyline points="225.0,266.5,217.5,274.0,209.5,281.5,202.0,289.5,193.5,297.5,185.5,305.5,177.5,313.5,170.0,321.5,162.5,329.5,155.0,337.0" stroke="black" stroke-width="2" fill="none" />
<polyline points="147.5,334.0,155.5,326.5,163.5,319.0,171.0,312.0,179.0,305.0,187.5,298.0,196.0,290.0,204.5,282.0,212.5,274.0,220.5,266.0" stroke="black" stroke-width="2" fill="none" />
<polyline points="219.0,261.5,211.0,268.5,203.5,275.5,195.5,283.0,188.0,290.5,180.0,298.0,172.0,305.0,163.0,312.0,155.0,319.0,146.5,326.0,138.5,334.0" stroke="black" stroke-width="2" fill="none" />
<polyline points="132.5,335.5,140.5,328.5,148.5,321.0,157.0,313.0,165.5,305.5,173.5,297.5,181.0,290.0,188.5,283.0,196.0,275.5,203.5,267.5,211.0,260.0" stroke="black" stroke-width="2" fill="none" />
<polyline points="208.5,257.0,226.5,265.0,240.5,272.5,253.5,280.5" stroke="black" stroke-width="2" fill="none" />
<polyline points="220.5,256.5,212.5,257.0,205.0,257.0,197.0,257.0,189.0,258.0,181.0,259.0,173.0,259.5,165.5,260.5,157.5,261.0,149.5,262.0,141.0,262.5,133.0,263.0,125.5,263.5,117.5,264.0,109.5,264.5,101.5,265.0,93.0,265.5,84.5,266.0,77.0,266.5" stroke="black" stroke-width="2" fill="none" />
<polyline points="73.5,260.5,66.0,267.5,58.5,275.0,50.5,282.5,43.0,290.0,35.5,297.5,28.0,305.0,20.0,312.5,13.0,320.0,5.5,327.5" stroke="black" stroke-width="2" fill="none" />
<polyline points="2.0,329.0,10.0,328.0,18.5,327.5,27.0,327.0,35.0,326.5,43.0,326.0,51.0,326.0,59.5,326.0,68.0,326.0,76.5,326.0,84.5,326.0,92.5,325.5,100.5,325.0,108.5,324.5,116.5,323.0,125.0,322.5,133.0,321.0,141.0,320.0,149.0,318.5,157.0,317.5,165.0,316.5,173.0,316.0,181.0,316.5,188.5,316.5,196.0,315.5,204.0,315.5,211.0,315.5,218.5,316.0,226.0,316.0,233.5,315.5,241.5,315.5,249.5,315.0,257.5,314.0,265.5,313.5,274.5,313.5,282.5,313.0,290.5,312.0,299.0,311.0,307.0,310.5,314.5,310.0,322.5,309.5,331.0,309.0,339.5,308.0,347.5,307.5,355.5,307.0,363.5,307.0,371.5,306.0,379.0,306.5" stroke="black" stroke-width="2" fill="none" />
<polyline points="386.5,305.0,394.5,304.5" stroke="black" stroke-width="2" fill="none" />
<polyline points="370.0,275.5,362.5,276.5,354.0,277.5,346.5,278.5" stroke="black" stroke-width="2" fill="none" />
<polyline points="338.5,270.5,347.0,269.5,355.0,269.0,363.0,268.0,371.0,268.0,378.5,268.0" stroke="black" stroke-width="2" fill="none" />
<polyline points="402.5,257.5,395.0,258.0,387.0,258.5,379.0,259.0,370.5,258.5,363.0,259.0,355.0,259.5,347.5,260.5,340.5,261.0,333.0,261.5,325.5,262.0" stroke="black" stroke-width="2" fill="none" />
<polyline points="316.5,254.5,324.5,254.5,332.0,253.5,339.5,252.5,347.5,252.0,355.0,251.5,363.5,251.0,371.5,250.0,379.5,249.5,387.5,249.5" stroke="black" stroke-width="2" fill="none" />
<polyline points="403.5,239.0,395.0,239.5,387.0,240.0,379.0,240.5,371.0,241.0,363.0,241.5,355.0,243.0,347.0,243.5,338.5,244.0,330.0,245.0,322.0,245.5,313.5,245.5,305.0,246.5" stroke="black" stroke-width="2" fill="none" />
<polyline points="307.5,236.0,315.0,236.0,323.0,235.5,331.0,235.0,338.5,234.5,346.5,234.5,354.0,234.5,362.5,234.5,371.0,234.5,379.5,234.0,387.5,233.5,395.5,233.0,403.5,232.5,411.5,232.0" stroke="black" stroke-width="2" fill="none" />
<polyline points="403.5,225.0,394.5,225.0,385.5,225.0,377.5,225.5,369.5,226.0,362.5,226.0,355.0,226.5,347.5,227.0,339.5,227.0,332.0,227.0,324.5,227.0,316.5,227.0,308.5,227.5,300.5,228.0" stroke="black" stroke-width="2" fill="none" />
<polyline points="301.0,218.5,309.0,218.0,317.0,218.5,324.5,218.5,332.0,217.5,340.0,217.5,347.0,217.5,354.5,218.0,362.0,218.0,369.5,217.5,377.5,217.5,385.5,217.0,393.5,216.0,401.5,215.5" stroke="black" stroke-width="2" fill="none" />
<polyline points="396.5,207.5,388.5,207.5,381.0,207.0,373.0,207.5,365.0,208.0,356.5,208.5,348.0,209.0,339.5,210.0,331.0,210.5,323.0,211.0,315.0,211.5,307.5,212.0,299.5,212.5,292.0,213.0" stroke="black" stroke-width="2" fill="none" />
<polyline points="283.0,205.0,291.0,204.5,299.0,204.0,307.0,203.5,314.5,203.5,322.5,203.0,330.5,202.5,338.5,202.0,346.5,201.5,354.0,201.5,362.5,201.5,371.0,201.0,379.5,200.5,387.5,200.0" stroke="black" stroke-width="2" fill="none" />
<polyline points="364.0,199.0,383.0,207.0,393.5,215.5,403.5,219.0,409.0,227.0,412.0,234.5,413.5,242.5,414.0,250.0,412.0,258.0,410.0,266.0,405.5,274.5,398.5,282.0,390.5,290.0,376.5,298.0" stroke="black" stroke-width="2" fill="none" />
<polyline points="395.0,312.5,387.0,313.0,379.5,313.5,371.5,314.0,363.5,314.0,356.0,315.0,348.0,315.5,340.5,316.0,333.0,317.0,325.5,317.5,317.0,317.5,308.5,318.0,300.5,319.0,292.0,320.0,283.5,321.0,275.5,321.5,267.5,322.0,259.5,322.5,251.5,323.0,243.5,323.5,235.5,324.0,227.0,324.5,218.5,324.5,210.0,324.5,202.5,324.5,194.5,324.5,187.0,325.0,179.0,325.5,171.0,326.0,163.5,326.0,155.0,327.0,147.0,327.5,138.5,328.5,131.0,329.0,123.0,330.0,114.5,330.5,106.5,331.5,98.5,332.0,91.0,332.0,83.5,332.5,75.5,333.0,67.0,334.0,59.0,334.5,51.0,334.5,43.5,334.5,35.5,334.5,27.0,334.5,19.0,335.0,10.5,335.5,3.0,335.5" stroke="black" stroke-width="2" fill="none" />
<polyline points="4.0,335.5,12.5,328.5,20.5,320.5,28.0,313.0,35.5,305.0,43.5,297.0,51.5,289.5,59.5,282.0,67.5,274.0,76.0,266.5,84.0,258.5" stroke="black" stroke-width="2" fill="none" />
<polyline points="92.0,261.5,84.0,268.5,77.0,275.5,69.5,282.0,61.5,289.0,54.0,296.5,46.0,303.0,38.0,310.0,29.5,317.0,20.5,324.5,12.0,332.5" stroke="black" stroke-width="2" fill="none" />
<polyline points="3.5,333.0,11.5,332.5,19.0,331.5,26.5,331.0,34.5,331.0,42.5,331.0,51.0,331.0,59.0,331.0,66.5,330.5,74.0,330.5,82.0,330.0,90.0,329.5,98.0,328.5,106.5,327.5,115.0,326.5,123.0,325.5,132.0,324.5,140.5,323.0,149.0,322.5,156.5,322.0,164.5,322.0,172.5,321.5,180.5,321.0,188.5,321.0,196.0,321.0,203.5,321.0,211.5,321.0,219.0,320.5,226.5,320.0,233.5,320.0,241.5,319.5,249.5,319.0,258.5,319.0,267.5,319.0,275.5,318.5,283.5,318.0,292.0,317.0,300.5,316.0,308.0,314.5,315.5,314.0,323.5,313.0,331.5,312.5,339.5,312.5,348.0,312.5,356.0,312.5,364.0,312.5,372.5,311.5,381.0,310.5,388.5,309.5,396.5,308.5,404.5,308.0,412.0,307.5,419.5,307.0,427.5,307.0,435.5,306.5,443.5,306.0,451.0,305.0,459.0,304.0,466.0,303.5,473.0,303.0,480.5,303.0,489.0,302.0,497.5,301.5,506.0,301.0,514.5,300.5" stroke="black" stroke-width="2" fill="none" />
<polyline points="513.5,168.0,505.5,169.0,497.5,170.0,490.0,170.0,482.0,171.0,474.5,171.5,466.5,172.0,459.0,172.0,451.5,172.5,443.5,173.0,435.5,173.5,427.5,174.0,419.5,175.0,412.0,175.5,404.0,176.0,395.0,176.5,386.5,177.0,378.5,177.5,370.0,178.0,362.0,178.5,354.0,179.0,345.5,179.5,337.5,179.5,330.0,179.5,322.0,179.5,314.0,180.0,306.0,180.5,298.5,181.0,291.0,181.0,283.5,181.0" stroke="black" stroke-width="2" fill="none" />
<polyline points="287.0,185.5,268.5,193.5,255.0,201.0,242.0,209.0,227.0,217.0" stroke="black" stroke-width="2" fill="none" />
<polyline points="225.5,221.0,218.0,227.5" stroke="black" stroke-width="2" fill="none" />
<polyline points="212.5,226.5,221.0,226.0,229.0,225.0,237.0,224.5" stroke="black" stroke-width="2" fill="none" />
<polyline points="233.5,218.0,241.5,217.5" stroke="black" stroke-width="2" fill="none" />
<polyline points="243.0,209.5,251.5,209.0,259.5,208.5" stroke="black" stroke-width="2" fill="none" />
<polyline points="261.0,201.0,268.5,200.5,276.0,199.5" stroke="black" stroke-width="2" fill="none" />
<polyline points="284.0,196.0,291.5,189.0,299.5,181.5" stroke="black" stroke-width="2" fill="none" />
<polyline points="300.0,185.0,308.0,184.5,315.0,185.0,323.0,185.0,331.0,184.0,338.5,183.5,347.0,183.0" stroke="black" stroke-width="2" fill="none" />
<polyline points="364.0,192.5,383.0,201.0,394.5,209.0,400.0,214.5,401.0,223.0,406.0,231.0,409.0,239.0,411.0,246.5,411.0,254.5,409.5,262.5,405.5,271.0,402.5,276.0" stroke="black" stroke-width="2" fill="none" />
<polyline points="364.0,169.5,356.0,170.0,348.0,171.0,340.5,172.5,332.0,173.0,324.5,174.0,316.5,174.5,308.5,175.0,300.5,176.0" stroke="black" stroke-width="2" fill="none" />
<polyline points="300.5,157.5,308.5,157.0,316.5,156.5,324.5,156.0,332.5,156.0,340.0,155.0,348.0,154.5,356.0,154.0" stroke="black" stroke-width="2" fill="none" />
<polyline points="306.5,147.0,299.0,154.5" stroke="black" stroke-width="2" fill="none" />
<polyline points="293.5,155.5,301.0,148.0" stroke="black" stroke-width="2" fill="none" />
<polyline points="291.5,148.0,283.5,155.5" stroke="black" stroke-width="2" fill="none" />
<polyline points="283.0,152.0,291.0,151.5,298.5,151.0,306.5,151.0" stroke="black" stroke-width="2" fill="none" />
<polyline points="284.0,139.0,276.0,146.5" stroke="black" stroke-width="2" fill="none" />
<polyline points="275.0,148.5,283.5,148.0,291.0,147.5,298.5,147.0,306.5,146.5" stroke="black" stroke-width="2" fill="none" />
<polyline points="275.0,138.5,266.5,146.0" stroke="black" stroke-width="2" fill="none" />
<polyline points="267.5,146.5,275.5,146.0,284.0,145.0" stroke="black" stroke-width="2" fill="none" />
<polyline points="285.0,141.5,277.0,142.0,269.0,142.5" stroke="black" stroke-width="2" fill="none" />
<polyline points="260.5,140.0,268.5,133.0" stroke="black" stroke-width="2" fill="none" />
<polyline points="259.5,132.5,251.5,139.5" stroke="black" stroke-width="2" fill="none" />
<polyline points="253.5,138.0,261.5,137.5,269.0,136.5" stroke="black" stroke-width="2" fill="none" />
<polyline points="269.0,134.0,260.5,134.0,253.0,134.5" stroke="black" stroke-width="2" fill="none" />
<polyline points="250.5,125.0,242.0,132.5" stroke="black" stroke-width="2" fill="none" />
<polyline points="237.0,134.0,245.0,126.5" stroke="black" stroke-width="2" fill="none" />
<polyline points="251.0,129.0,243.0,129.5,235.0,130.5" stroke="black" stroke-width="2" fill="none" />
<polyline points="234.5,125.0,242.5,124.5,251.5,124.0" stroke="black" stroke-width="2" fill="none" />
<polyline points="236.0,114.5,227.5,122.5" stroke="black" stroke-width="2" fill="none" />
<polyline points="226.0,117.5,218.0,124.5" stroke="black" stroke-width="2" fill="none" />
<polyline points="219.5,121.5,227.5,120.5,236.0,120.0" stroke="black" stroke-width="2" fill="none" />
<polyline points="244.5,116.5,237.0,117.0,229.0,117.5,221.0,118.0" stroke="black" stroke-width="2" fill="none" />
<polyline points="220.5,116.0,228.5,108.5" stroke="black" stroke-width="2" fill="none" />
<polyline points="226.5,111.0,239.0,119.0,252.0,127.0,264.0,135.5,280.5,144.0" stroke="black" stroke-width="2" fill="none" />
<polyline points="285.5,189.0,277.5,197.0,269.5,205.0" stroke="black" stroke-width="2" fill="none" />
<polyline points="276.5,195.0,268.5,195.5,260.0,196.5" stroke="black" stroke-width="2" fill="none" />
<polyline points="267.5,188.5,275.5,188.0,283.5,187.5,292.0,187.5,300.5,187.0" stroke="black" stroke-width="2" fill="none" />
<polyline points="300.5,198.0,280.5,206.5,284.0,204.0,291.5,201.0,298.5,197.5,306.5,196.5,314.0,194.0,322.0,194.0,330.0,193.0,338.5,194.0,346.0,194.0,354.5,195.0,362.5,197.5,370.5,201.0,378.5,205.0,386.5,209.0,392.5,214.5,400.5,222.5,408.5,236.5" stroke="black" stroke-width="2" fill="none" />
<polyline points="259.5,203.0,251.0,203.0,243.0,203.5" stroke="black" stroke-width="2" fill="none" />
<polyline points="252.0,211.0,243.5,211.5,235.5,212.0,227.0,212.5,219.5,213.0" stroke="black" stroke-width="2" fill="none" />
<polyline points="217.5,221.0,209.5,228.5,202.0,235.5" stroke="black" stroke-width="2" fill="none" />
<polyline points="194.5,233.5,202.5,226.0" stroke="black" stroke-width="2" fill="none" />
<polyline points="197.0,226.0,189.0,233.5" stroke="black" stroke-width="2" fill="none" />
<polyline points="185.5,227.0,177.5,234.5" stroke="black" stroke-width="2" fill="none" />
<polyline points="177.0,226.5,168.5,234.5" stroke="black" stroke-width="2" fill="none" />
<polyline points="165.5,233.5,173.0,226.0" stroke="black" stroke-width="2" fill="none" />
<polyline points="171.0,222.5,179.5,222.0,187.5,221.0,195.5,220.0,204.0,219.5,212.5,218.5,221.0,218.0,229.0,218.0,237.5,217.5" stroke="black" stroke-width="2" fill="none" />
<polyline points="227.0,203.5,219.0,204.0,210.5,204.5,203.0,205.0,195.0,205.5,187.0,205.5,179.0,206.0,171.5,206.5" stroke="black" stroke-width="2" fill="none" />
<polyline points="170.0,198.5,178.5,198.0,187.0,198.0,195.0,197.5,203.0,197.0,210.5,196.0,218.5,196.0,226.0,195.5,233.5,194.5,241.0,194.0" stroke="black" stroke-width="2" fill="none" />
<polyline points="204.0,147.5,212.5,140.0,220.0,133.0" stroke="black" stroke-width="2" fill="none" />
<polyline points="210.0,133.5,202.0,141.0,194.0,148.5" stroke="black" stroke-width="2" fill="none" />
<polyline points="187.0,146.0,195.0,139.0,202.5,131.5,210.5,123.5" stroke="black" stroke-width="2" fill="none" />
<polyline points="210.5,123.5,229.5,131.0,243.0,139.0,256.0,147.0,268.5,155.0,284.0,163.0" stroke="black" stroke-width="2" fill="none" />
<polyline points="221.0,107.0,213.0,115.0" stroke="black" stroke-width="2" fill="none" />
<polyline points="212.0,116.5,232.0,124.5,245.5,132.5,259.5,140.5,272.0,148.5" stroke="black" stroke-width="2" fill="none" />
<polyline points="210.0,106.0,202.5,113.5" stroke="black" stroke-width="2" fill="none" />
<polyline points="201.5,106.0,193.0,113.0" stroke="black" stroke-width="2" fill="none" />
<polyline points="189.5,114.5,197.0,107.0" stroke="black" stroke-width="2" fill="none" />
<polyline points="187.5,110.0,179.5,117.5" stroke="black" stroke-width="2" fill="none" />
<polyline points="179.5,124.0,171.5,131.5" stroke="black" stroke-width="2" fill="none" />
<polyline points="179.5,130.5,187.5,123.0" stroke="black" stroke-width="2" fill="none" />
<polyline points="196.5,122.5,188.5,130.0,180.5,137.5" stroke="black" stroke-width="2" fill="none" />
<polyline points="186.0,137.0,194.0,129.0,201.5,121.0" stroke="black" stroke-width="2" fill="none" />
<polyline points="182.0,108.5,174.0,116.0" stroke="black" stroke-width="2" fill="none" />
<polyline points="173.0,122.0,165.0,129.0" stroke="black" stroke-width="2" fill="none" />
<polyline points="155.5,118.5,163.5,118.0,171.0,118.0,179.0,117.5,187.0,117.0,195.0,116.0,203.5,115.0" stroke="black" stroke-width="2" fill="none" />
<polyline points="170.5,107.0,163.0,114.5" stroke="black" stroke-width="2" fill="none" />
<polyline points="155.5,114.0,163.5,106.5" stroke="black" stroke-width="2" fill="none" />
<polyline points="153.5,107.5,145.5,115.0" stroke="black" stroke-width="2" fill="none" />
<polyline points="142.0,116.0,123.0,124.0,112.0,132.0,104.0,140.5,98.5,148.0,95.5,156.5,93.5,164.5,93.0,172.5,93.0,180.5,95.0,188.5,98.5,196.5,104.5,204.5,113.5,212.0,126.5,220.0" stroke="black" stroke-width="2" fill="none" />
<polyline points="129.5,219.5,121.5,227.0,114.0,234.5" stroke="black" stroke-width="2" fill="none" />
<polyline points="117.0,234.5,125.0,233.5,133.0,233.0,140.5,232.0,148.5,231.5,156.0,230.5,164.0,230.0,172.0,229.0,180.0,228.5,187.5,228.0,195.0,227.5,203.5,227.0,211.0,226.5" stroke="black" stroke-width="2" fill="none" />
<polyline points="211.0,210.0,203.0,211.0,194.5,211.5,186.5,212.5,178.5,213.0,171.0,213.0,163.5,213.5" stroke="black" stroke-width="2" fill="none" />
<polyline points="162.5,225.5,154.5,233.5" stroke="black" stroke-width="2" fill="none" />
<polyline points="155.0,227.5,147.0,235.0" stroke="black" stroke-width="2" fill="none" />
<polyline points="148.0,228.5,140.0,236.5" stroke="black" stroke-width="2" fill="none" />
<polyline points="133.5,235.5,141.5,228.0" stroke="black" stroke-width="2" fill="none" />
<polyline points="141.5,219.0,133.0,227.0,124.0,235.0" stroke="black" stroke-width="2" fill="none" />
<polyline points="116.5,226.0,124.5,225.5,132.0,225.0,140.0,224.5" stroke="black" stroke-width="2" fill="none" />
<polyline points="123.0,218.0,115.0,225.5,107.0,233.0" stroke="black" stroke-width="2" fill="none" />
<polyline points="100.0,233.5,108.0,225.5,116.0,218.0,124.0,210.0" stroke="black" stroke-width="2" fill="none" />
<polyline points="117.0,211.5,109.0,219.5,100.5,227.0,92.0,234.5" stroke="black" stroke-width="2" fill="none" />
<polyline points="93.0,234.5,101.0,234.0" stroke="black" stroke-width="2" fill="none" />
<polyline points="93.0,226.0,101.0,218.5,109.0,211.0,117.0,204.0" stroke="black" stroke-width="2" fill="none" />
<polyline points="104.5,203.0,97.0,210.0,89.5,217.5,82.0,225.0" stroke="black" stroke-width="2" fill="none" />
<polyline points="75.5,225.5,82.5,218.0,90.0,210.0,98.0,202.5,106.0,195.0" stroke="black" stroke-width="2" fill="none" />
<polyline points="101.0,194.0,93.5,201.0,85.5,208.5,77.5,216.0,70.0,224.0" stroke="black" stroke-width="2" fill="none" />
<polyline points="61.0,226.5,69.0,226.0,77.5,225.0,85.0,223.5,92.5,222.0" stroke="black" stroke-width="2" fill="none" />
<polyline points="93.5,219.0,85.5,219.0" stroke="black" stroke-width="2" fill="none" />
<polyline points="99.5,217.5,107.0,217.0" stroke="black" stroke-width="2" fill="none" />
<polyline points="115.5,218.5,124.0,218.0" stroke="black" stroke-width="2" fill="none" />
<polyline points="121.5,257.5,114.0,265.5,106.0,273.0,98.5,280.5,90.0,287.5,82.0,295.0,74.5,302.5,66.5,310.0,58.5,317.5,50.0,325.5,42.0,333.0" stroke="black" stroke-width="2" fill="none" />
<polyline points="81.5,336.0,89.5,328.0,97.0,319.5,105.0,311.5,113.5,303.5,121.5,296.5,129.5,288.5,138.0,280.5,146.5,273.0,154.5,265.0,162.5,258.0" stroke="black" stroke-width="2" fill="none" />
<polyline points="156.0,257.5,148.5,265.0,141.0,272.5,133.0,280.5,124.5,288.0,116.5,296.0,108.5,304.0,100.5,311.5,92.5,318.5,85.0,326.0,76.5,333.0" stroke="black" stroke-width="2" fill="none" />
<polyline points="124.0,334.0,132.0,326.5,140.0,319.0,148.0,311.5,155.5,304.0,163.5,296.0,171.0,288.5,178.5,281.5,186.5,274.0,194.5,266.5,202.5,258.5" stroke="black" stroke-width="2" fill="none" />
<polyline points="204.5,253.5,212.5,254.5,220.5,259.0,229.0,263.5,237.0,267.5,245.0,272.5,252.5,277.5,260.0,282.0" stroke="black" stroke-width="2" fill="none" />
<polyline points="307.0,289.0,299.5,289.0,292.0,289.5,284.0,289.5,276.0,289.5,267.5,290.0,259.5,290.5,251.0,291.0,242.5,291.5,234.0,291.5,226.5,291.5,218.5,292.0,210.5,292.5,202.5,293.0,194.5,293.5,187.0,293.5,179.0,294.0,171.0,294.5,163.0,295.0,155.0,295.0,147.5,296.0,139.5,296.0,131.0,297.0,123.0,298.0,115.0,298.0,108.0,298.5,100.0,299.0,91.5,299.5,83.5,300.5,75.5,301.0,67.0,301.5,59.0,302.5,50.5,303.0,42.5,303.5,34.0,304.0,26.5,304.5,19.0,305.0,12.0,306.5,4.0,307.0" stroke="black" stroke-width="2" fill="none" />
<polyline points="3.0,304.0,10.5,296.5,18.5,289.0,27.0,281.5,35.0,274.0,43.0,266.5,51.0,259.0" stroke="black" stroke-width="2" fill="none" />
<polyline points="58.5,261.0,51.0,268.5,43.0,276.0,35.5,283.0,27.5,290.0,20.0,297.0,12.0,304.0,4.5,312.0" stroke="black" stroke-width="2" fill="none" />
<polyline points="4.0,311.0,12.5,310.0,20.5,309.0,28.5,308.0,36.5,307.5,44.5,306.5,52.5,306.0,60.5,305.5,68.5,305.0,76.0,304.5,84.0,304.0,92.0,303.5,100.5,302.5,108.5,302.0,116.5,301.5,125.0,301.0,133.0,300.5,140.5,299.5,148.5,299.0,156.0,299.0,164.0,299.0,171.5,298.5,179.5,298.0,187.0,297.5,195.0,297.0,203.0,296.5,211.5,296.0,220.0,295.0,228.5,294.5,237.0,294.0,245.0,293.5,253.0,293.0,260.5,293.5,268.5,293.5,276.5,293.0,284.5,293.0,292.5,293.0,300.0,292.5,308.0,292.5,316.5,291.5,324.5,291.0,332.5,290.5,339.5,290.0,347.0,289.5,355.0,289.0,363.5,288.5,371.5,287.0,379.5,286.0,388.0,285.5,395.5,284.5,403.5,284.5,411.5,284.0,420.0,283.0,428.0,282.5,437.0,282.0,445.5,282.0,453.5,282.0,461.0,282.0,468.5,281.5,476.5,281.5,484.0,281.0,492.5,280.5,500.0,280.0,508.0,279.0,516.0,278.5" stroke="black" stroke-width="2" fill="none" />
<polyline points="260.5,182.0,252.5,182.5,244.5,183.0,236.5,183.0,229.0,183.5,220.5,184.0,212.0,185.5,203.0,186.5,195.0,187.5,186.5,188.5,178.0,189.5,170.0,190.5,162.0,191.0" stroke="black" stroke-width="2" fill="none" />
<polyline points="164.5,183.0,172.5,182.5,180.5,182.0,188.5,181.5,196.5,180.0,205.0,179.5,213.0,178.0,221.0,177.0,229.0,175.5,237.0,174.5,245.0,173.5,253.0,173.0,261.0,173.5,268.5,173.5" stroke="black" stroke-width="2" fill="none" />
<polyline points="276.0,166.0,268.5,167.5,260.0,168.0,252.5,169.0,244.5,169.5,236.5,170.0,228.5,171.0,220.5,171.0,212.5,171.0,204.0,171.5,195.5,171.5,187.0,172.0,179.0,172.5,170.5,173.0,162.0,173.0,154.0,173.0,146.0,173.5" stroke="black" stroke-width="2" fill="none" />
<polyline points="147.5,166.5,155.5,166.0,163.5,165.5,171.5,165.0,178.5,164.5,186.5,164.0,195.0,163.5,203.0,162.5,211.5,161.5,220.0,161.0,228.5,160.5,236.5,160.0,244.5,159.5,252.5,159.0,260.5,159.0,268.0,158.0,276.0,157.5,284.0,157.0,292.0,157.0" stroke="black" stroke-width="2" fill="none" />
<polyline points="284.5,147.5,276.0,148.0,267.5,149.0,259.0,149.5,251.0,150.0,243.0,150.5,235.5,151.0,227.5,151.5,220.0,152.0,212.0,152.0,204.5,152.0,196.5,152.5,189.0,153.5,181.0,154.0,172.5,154.5,164.5,155.0,156.5,155.5,148.0,156.5,140.0,157.0" stroke="black" stroke-width="2" fill="none" />
<polyline points="139.5,149.5,147.5,148.5,156.0,148.0,164.0,147.5,171.0,147.0,179.0,147.0,187.0,146.0,195.5,145.0,203.5,145.0,211.0,144.0,219.0,144.0,227.0,143.5,235.0,143.0,243.0,142.5,250.5,142.5,258.5,142.0,266.5,141.5" stroke="black" stroke-width="2" fill="none" />
<polyline points="212.5,74.0,205.0,75.0,197.0,75.5,189.0,76.5,180.5,77.0,173.0,78.0,164.5,79.0" stroke="black" stroke-width="2" fill="none" />
<polyline points="188.0,93.0,179.5,93.5,171.0,94.0,162.5,94.5,154.0,95.5,145.5,96.5,137.5,97.0,130.0,97.5,122.5,98.0,115.0,98.5,107.5,99.0,99.5,99.5,92.0,99.5,83.5,99.5,75.5,99.5,68.0,100.0,60.0,100.5" stroke="black" stroke-width="2" fill="none" />
<polyline points="59.0,109.0,51.0,116.5,42.5,124.5,34.5,132.0,26.0,139.5,18.5,147.0,11.5,154.0,3.5,161.5" stroke="black" stroke-width="2" fill="none" />
<polyline points="4.5,158.5,13.0,158.0,20.5,157.5,28.5,156.5,36.0,155.5,44.0,154.5,52.0,153.5,60.5,153.5,68.5,153.0,77.0,152.0,84.5,151.0,92.5,150.5,100.0,150.5" stroke="black" stroke-width="2" fill="none" />
<polyline points="100.5,155.5,92.5,163.0,84.0,170.0,75.5,177.0,67.0,184.5,58.5,191.5,51.0,199.0,43.0,207.0,35.0,214.5,26.5,221.5" stroke="black" stroke-width="2" fill="none" />
<polyline points="33.5,224.0,41.5,223.0,50.0,223.0" stroke="black" stroke-width="2" fill="none" />
<polyline points="52.0,225.0,60.5,217.5,68.0,210.5,76.0,203.0,84.0,196.0,92.5,188.5,100.0,181.0" stroke="black" stroke-width="2" fill="none" />
<polyline points="99.5,186.5,91.5,194.0,84.0,202.0,76.0,209.5,68.0,217.0,60.0,224.5" stroke="black" stroke-width="2" fill="none" />
<polyline points="51.0,227.0,59.0,226.5,67.0,226.5,74.5,227.0,82.0,227.0,90.0,226.5,98.0,226.5,106.5,226.5,114.5,226.0,122.5,226.0,131.0,225.5,139.0,224.5,147.0,224.0,155.0,223.5,163.0,223.5,170.5,223.5,178.5,223.0,186.5,223.0,194.5,222.5,202.5,222.0,210.5,221.5,218.5,220.5" stroke="black" stroke-width="2" fill="none" />
<polyline points="235.0,258.0,227.5,258.5,219.5,259.0,212.0,259.5,204.5,259.5,196.5,260.5,188.0,261.0,180.0,261.5,172.5,262.5,165.0,263.0,156.5,263.5,148.0,264.5,140.5,265.0,133.0,265.0,125.5,266.0,117.5,266.5,109.0,267.5,101.0,268.5,93.0,269.0,85.0,269.5,76.5,269.5,68.5,270.0,60.0,270.5,51.5,271.0,43.5,271.5,36.0,272.5,28.5,273.5,20.5,274.0,13.0,274.5,5.0,275.5" stroke="black" stroke-width="2" fill="none" />
<polyline points="3.5,275.0,11.0,267.5" stroke="black" stroke-width="2" fill="none" />
<polyline points="5.5,269.0,13.0,268.5,21.0,268.0,29.0,268.5,37.0,269.0,45.5,269.0,53.5,268.5,61.0,267.5,69.0,267.0,77.5,266.5,85.5,266.0,93.5,266.0,101.5,265.0,109.5,264.5,117.0,263.5,125.0,263.0,132.5,262.0,140.0,261.0,148.0,260.0,156.0,259.0,164.0,258.5,172.5,257.5,180.5,257.0,188.5,256.5,195.5,257.0,203.0,256.5,211.0,256.5,219.0,256.5,227.0,256.0,234.5,256.0,242.0,255.5" stroke="black" stroke-width="2" fill="none" />
<polyline points="260.5,272.5,252.5,273.0,244.0,273.5,236.5,274.0,228.0,274.0,219.5,274.5,211.0,275.5,202.5,276.5,194.5,276.5,186.5,277.0,179.0,277.5,171.5,278.0,163.0,278.5,155.5,279.0,148.0,279.5,140.0,280.0,132.0,281.0,124.0,281.5,116.5,282.5,108.5,283.0,101.0,284.0,93.0,284.5,85.0,285.5,77.0,286.0,68.0,286.5,60.0,287.0,51.5,287.0,43.0,287.5,35.5,288.0,27.5,288.5,19.5,288.5,11.5,288.5,3.0,289.0" stroke="black" stroke-width="2" fill="none" />
<polyline points="3.0,290.5,11.0,283.0,19.5,275.5,28.0,267.5" stroke="black" stroke-width="2" fill="none" />
<polyline points="34.0,268.5,25.5,276.0,17.5,283.5,9.5,290.5,1.5,297.5" stroke="black" stroke-width="2" fill="none" />
<polyline points="3.0,297.0,11.5,296.5,19.5,296.5,27.5,296.5,35.5,296.5,44.0,296.0,51.5,295.5,59.5,295.0,67.0,294.0,74.5,293.0,83.0,292.5,90.5,292.5,98.5,292.0,106.5,291.0,114.5,290.5,122.0,290.0,130.5,289.0,139.0,288.0,147.0,287.0,155.0,286.5,163.0,286.0,171.0,285.5,178.5,285.0,186.5,285.0,194.0,285.0,202.0,285.0,210.0,284.5,218.5,283.5,226.5,282.5,234.5,282.5,242.5,282.0,250.5,281.5,259.0,281.0,267.5,281.0,276.0,280.5" stroke="black" stroke-width="2" fill="none" />
<polyline points="315.5,283.5,307.5,284.0,299.5,285.0,292.0,285.5,284.0,286.0,275.0,286.5,266.5,287.0,258.5,287.5,250.0,288.0,242.0,288.5,234.0,289.0,225.5,289.5,217.5,289.5,210.0,289.5,202.0,289.5,194.0,290.0,186.0,290.5,178.5,291.0,171.0,291.0,163.5,291.0,155.0,292.0,146.5,293.5,138.5,294.0,130.0,295.0,122.0,295.5,114.0,296.0,106.5,296.5,98.5,297.0,90.5,297.0,82.5,297.5,74.5,298.0,65.5,299.0,57.5,299.5,49.0,300.0,41.0,300.0,33.5,300.5,26.5,300.5,19.0,300.5,11.0,300.0,3.5,300.0" stroke="black" stroke-width="2" fill="none" />
<polyline points="3.0,294.0,10.5,293.5,18.5,292.5,26.5,291.5,34.5,291.0,43.0,290.5,51.0,289.5,59.0,289.0,67.0,288.0,75.0,287.0,82.5,286.5,91.5,286.0,99.5,286.0,108.0,285.5,116.0,284.5,123.5,284.0,131.5,283.5,139.5,283.0,147.0,282.5,154.5,282.5,162.5,282.0,170.0,281.5,178.5,280.5,187.0,280.0,196.0,279.0,204.5,278.5,212.5,278.5,221.0,278.0,229.0,278.0,236.5,278.0,244.5,278.5,252.5,278.0,260.0,277.0,268.0,276.0,276.0,275.5,284.5,274.5" stroke="black" stroke-width="2" fill="none" />
<polyline points="268.0,268.5,260.0,269.0,252.0,269.0,244.0,269.0,235.5,270.0,228.0,271.0,220.5,271.5,212.5,272.0,205.0,272.5,196.5,273.0,188.0,273.5,179.5,273.5,171.5,274.0,163.5,274.5,155.0,275.5,147.0,276.0,139.0,277.5,131.5,278.5,123.0,279.0,115.5,279.5,108.0,279.5,100.0,280.0,92.5,280.5,84.5,281.0,76.0,281.0,67.5,282.0,59.0,282.5,50.5,283.5,42.5,284.0,34.0,284.0,25.5,284.0,17.5,284.5,9.5,285.0,1.0,286.0" stroke="black" stroke-width="2" fill="none" />
<polyline points="3.0,283.0,11.0,282.5,19.5,282.0,27.5,281.5,35.0,281.0,43.0,280.0,51.5,279.5,59.5,280.0,67.5,279.5,76.0,278.5,83.5,277.5,92.0,277.0,100.0,277.0,108.0,276.5,116.0,276.0,124.0,275.5,132.0,275.0,139.5,274.0,147.5,273.5,155.5,273.5,163.5,272.5,171.5,272.0,180.0,271.0,188.5,270.5,197.5,270.0,205.5,269.0,213.5,268.5,221.5,267.5,229.0,266.5,237.0,265.5,245.0,265.5,253.0,265.0" stroke="black" stroke-width="2" fill="none" />
<polyline points="253.0,261.0,245.0,261.0,237.0,261.5,229.0,262.5,220.5,263.0,212.5,263.5,204.5,264.5,196.5,265.5,188.5,266.5,181.0,267.5,173.0,268.0,165.0,268.5,157.5,269.0,149.0,270.0,140.5,270.5,131.5,271.0,123.5,271.0,115.0,271.5,107.0,271.5,99.0,271.5,91.0,272.0,83.5,272.5,75.5,273.0,67.5,274.0,59.5,274.5,52.0,275.0,44.0,276.0,36.5,277.0,28.0,278.0,20.0,278.5,11.5,278.5,3.5,279.0" stroke="black" stroke-width="2" fill="none" />
<polyline points="3.0,281.5,11.0,273.5,19.0,266.0" stroke="black" stroke-width="2" fill="none" />
<polyline points="4.5,262.0,12.0,261.5,19.0,261.5,27.0,261.5,35.0,261.0,43.5,261.0,51.5,260.5,60.5,259.5,68.5,259.0,76.5,258.0,85.0,257.5,92.5,257.0,101.0,256.5,109.5,256.0,117.5,255.5,125.5,255.0,133.5,254.5,141.0,254.0,149.0,253.5,157.5,253.0,165.5,252.0,173.5,251.5,181.0,250.5,189.0,250.0,197.0,249.0,205.0,248.0,213.0,248.0,220.5,248.0,228.5,247.5" stroke="black" stroke-width="2" fill="none" />
<polyline points="213.0,240.0,204.5,241.0,196.5,242.0,189.0,243.0,181.0,244.0,172.5,244.0,165.0,244.5,157.0,245.0,148.5,245.5,140.5,246.0,132.5,246.5,124.0,247.5,116.5,247.5,108.5,248.0,101.0,248.5,94.0,249.5,86.0,250.5,78.0,251.0,69.5,251.5,61.0,251.5,52.5,251.5,44.5,252.0,36.0,252.5,27.5,253.5,19.0,254.0,10.5,255.0,1.5,255.5" stroke="black" stroke-width="2" fill="none" />
<polyline points="2.5,271.0,10.5,270.0,18.5,269.5,26.0,269.5,34.0,268.5,41.5,267.5,50.0,267.0,57.5,265.5,65.5,264.5,73.5,264.5,81.5,263.5,89.5,264.5,97.5,263.5,105.5,262.0,114.0,262.0,122.0,262.0,130.0,262.5,138.0,262.5,146.0,264.0,154.0,263.5,162.0,263.5,170.0,264.5,178.0,262.5,186.0,262.0,194.5,262.0,202.5,263.0,211.0,264.0,219.0,266.0,227.0,269.0,235.5,274.0,243.5,278.5,251.0,283.5,258.5,288.5,266.0,292.5,273.5,296.0,281.5,299.0,289.5,302.0,297.5,304.5,305.5,307.0,313.5,309.0,321.5,308.5,330.0,309.5,338.0,309.5,346.0,308.5,354.0,307.5,362.5,306.0,370.5,303.5,379.0,299.0,387.5,294.5,396.0,288.0,404.0,279.0,411.5,267.0" stroke="black" stroke-width="2" fill="none" />
<polyline points="516.0,292.5,507.5,293.5,499.0,294.0,491.0,294.5,483.5,295.0,475.0,295.5,466.5,295.5,458.0,296.0,450.0,296.5,442.0,297.5,434.5,298.0,426.5,298.5,419.0,299.5,411.5,301.0,403.5,302.0,395.5,302.5,388.0,302.5,380.0,302.5,372.5,303.0,364.5,303.0,356.5,303.5,347.5,304.0,339.0,304.0,330.0,304.5,322.0,305.0,314.0,306.0,306.0,306.5,298.0,307.5,290.0,308.5,282.0,309.0,273.5,309.5,265.5,310.0,257.5,310.5,249.5,311.5,241.0,312.0,233.5,312.5,225.5,313.0,218.0,312.5,210.0,312.0,202.5,312.0,195.0,312.5,187.0,312.5,179.5,312.0,171.5,312.0,163.5,313.0,155.5,314.0,148.0,315.0,140.5,316.0,132.5,317.0,125.0,318.0,117.0,318.5,109.0,319.5,100.5,320.0,93.0,321.0,84.5,322.0,77.0,322.0,68.5,322.0,61.0,322.5,53.5,323.0,45.5,323.0,37.0,323.5,28.5,323.5,20.0,323.5,11.5,323.0,3.5,323.5" stroke="black" stroke-width="2" fill="none" />
<polyline points="2.0,320.5,10.5,319.5,18.5,319.0,26.5,318.5,35.0,318.5,43.0,318.5,51.0,318.5,59.5,318.5,67.5,318.5,75.5,318.0,83.5,317.5,91.5,317.0,99.0,317.0,107.0,316.5,115.0,316.0,123.0,315.0,131.5,314.0,139.5,313.5,147.5,312.5,156.0,311.5,164.0,311.0,172.0,310.5,179.0,311.0,187.0,311.0,195.0,310.0,202.5,309.5,211.0,309.0,218.5,309.0,226.5,308.0,234.5,307.0,242.5,306.5,250.5,306.0,259.0,305.0,267.5,304.0,276.0,303.5,284.0,303.0,292.0,302.5,299.5,301.5,307.0,301.0,314.5,300.5,323.0,300.0,331.0,300.0,339.5,300.5,347.5,300.0,355.0,299.5,363.0,299.0,371.0,298.5,379.5,298.5,387.5,298.0,395.5,297.5" stroke="black" stroke-width="2" fill="none" />
<polyline points="518.0,284.0,509.5,284.0,501.5,284.5,493.5,285.0,485.0,286.0,477.5,286.5,468.5,287.0,460.0,288.0,451.5,289.0,443.0,290.0,435.0,290.5,427.0,291.5,419.0,292.0,411.0,292.5,403.5,293.0,395.0,293.5,386.5,294.0,378.5,294.5,370.5,295.0,363.0,295.5,355.0,296.0,347.0,296.0,339.5,296.0,331.5,296.0,323.5,297.0,315.5,297.5,308.0,298.5,300.0,299.0,292.0,299.5,285.0,300.0,276.5,301.0,268.0,301.5,260.0,302.0,252.0,302.5,244.0,303.0,236.0,303.0,228.0,303.5,220.0,304.0,212.0,305.0,204.5,306.5,196.0,307.0,188.5,308.0,180.5,308.5,172.5,309.0,164.5,310.0,156.5,310.0,148.5,310.0,140.0,310.5,131.5,310.5,123.0,311.0,115.0,311.5,106.5,312.0,98.0,312.0,90.0,312.0,82.0,312.5,74.0,313.0,66.5,314.0,59.0,314.5,50.5,315.0,42.5,315.0,34.0,315.0,26.5,315.5,18.5,315.5,10.0,315.0,2.0,315.5" stroke="black" stroke-width="2" fill="none" />
<polyline points="3.5,313.5,11.0,312.5,18.5,311.5,27.0,311.0,35.0,310.5,43.0,311.0,51.5,310.0,59.0,309.5,67.5,309.5,76.0,310.0,83.5,309.5,91.5,309.0,99.5,308.5,107.5,308.0,114.5,307.5,122.5,307.0,131.0,306.5,139.0,305.5,147.5,304.5,156.0,304.0,164.5,303.5,172.5,303.0,180.5,302.5,188.5,302.0,196.5,302.0,204.0,301.0,212.0,300.5,220.0,300.0,228.0,300.0,236.0,299.5,244.0,298.5,252.0,298.0,260.0,298.0,268.0,298.0,276.0,297.5,284.5,297.0,292.0,296.5,300.0,295.0,308.0,294.0,316.0,293.0,323.5,293.0,332.0,292.5,339.5,292.0,347.5,291.5,354.5,290.5,362.0,290.0,370.5,290.0,379.0,290.0,387.5,289.5" stroke="black" stroke-width="2" fill="none" />
<polyline points="287.0,163.0,279.0,160.0,271.0,156.0,263.0,151.0,255.0,146.0,247.0,140.5,239.0,135.5,231.0,131.5,223.0,127.5,215.5,125.0,207.5,121.5,199.5,120.5,191.0,118.5,183.5,118.5,175.5,118.5,167.5,118.5,160.0,119.5,152.0,120.5,144.0,122.5,135.5,126.0,127.5,130.0" stroke="black" stroke-width="2" fill="none" />
<polyline points="130.5,126.5,138.5,126.0,146.5,126.0,154.5,125.5,162.0,125.0,170.0,124.5,178.0,124.0,186.5,123.0,194.5,122.5,203.0,121.0,211.5,120.0,219.0,120.0,226.5,120.0" stroke="black" stroke-width="2" fill="none" />
<polyline points="149.0,107.0,141.0,114.5" stroke="black" stroke-width="2" fill="none" />
<polyline points="139.0,107.0,131.0,115.0,123.5,122.5" stroke="black" stroke-width="2" fill="none" />
<polyline points="122.5,131.5,131.5,131.0,139.5,131.0,148.0,130.5,156.0,129.5,163.5,129.0,171.5,128.5,179.5,128.0,187.0,127.5,194.5,127.5,202.5,127.0,210.0,126.5,218.5,125.5,227.0,125.0,236.0,124.0,244.5,123.5" stroke="black" stroke-width="2" fill="none" />
<polyline points="250.0,133.5,242.0,134.0,234.0,134.0,226.5,134.0,218.5,134.0,211.0,134.5,203.0,135.0,195.0,135.5,187.0,136.0,179.0,137.0,170.5,138.0,162.0,139.0,154.5,139.5,146.5,140.0,138.5,141.0,130.5,141.5,123.0,141.5" stroke="black" stroke-width="2" fill="none" />
<polyline points="100.5,144.5,92.0,152.5,83.5,160.5,75.5,168.0,67.5,175.5,59.5,183.5,51.0,191.0,43.0,199.0,35.0,206.5,26.5,213.5,18.5,220.5" stroke="black" stroke-width="2" fill="none" />
<polyline points="10.0,219.5,17.5,211.5,25.5,203.5,33.5,196.0,41.0,188.0,49.5,181.0,57.0,173.5,65.5,166.0,73.5,159.0,81.5,151.5,89.5,144.5,97.5,137.0,106.0,129.0,114.0,121.5,122.5,114.5,130.5,107.0" stroke="black" stroke-width="2" fill="none" />
<polyline points="125.5,108.0,117.5,115.5,109.5,122.5,101.0,129.5,92.0,137.0,84.0,145.0,76.5,152.0,69.0,159.5,61.0,167.0,53.0,174.5,45.0,182.0,37.5,189.5,29.5,197.0,21.5,204.5,13.5,211.5,4.5,219.0" stroke="black" stroke-width="2" fill="none" />
<polyline points="4.0,217.0,11.5,216.5,19.5,216.0,27.5,215.5" stroke="black" stroke-width="2" fill="none" />
<polyline points="34.5,208.5,43.0,208.5" stroke="black" stroke-width="2" fill="none" />
<polyline points="50.5,216.0,58.5,215.5,67.0,215.0" stroke="black" stroke-width="2" fill="none" />
<polyline points="70.0,211.5,78.0,210.5" stroke="black" stroke-width="2" fill="none" />
<polyline points="77.0,202.0,68.5,202.0" stroke="black" stroke-width="2" fill="none" />
<polyline points="96.5,187.5,104.0,202.5,111.5,210.5,119.5,216.0,127.0,219.5,135.0,223.0,142.5,226.0,150.0,226.5,158.0,228.0,165.5,228.0,174.0,229.0,182.0,228.0,190.0,227.0,198.0,226.0,206.5,224.5,214.5,222.5,223.0,220.0,231.5,215.5,240.0,211.5,248.0,206.5,256.0,201.5,264.0,196.5,272.0,192.5,279.5,188.5,287.0,185.5,295.0,184.0,303.0,182.5,311.0,182.5,319.0,183.5,327.5,182.5,335.5,183.5,343.5,184.5,351.5,184.5,359.0,184.5,366.5,185.0,374.5,185.5,382.0,185.0,390.0,184.5,397.5,184.0,405.5,184.0,414.0,184.5,422.0,184.5,430.5,185.5,439.0,185.5,447.0,186.5,455.5,187.5,463.5,188.0,471.5,189.5,480.0,190.5,488.0,190.5,496.0,191.5,504.5,191.5,512.0,191.5" stroke="black" stroke-width="2" fill="none" />
<polyline points="514.5,6.5,506.5,7.5,498.5,7.5,490.5,7.5,483.0,8.0,475.5,8.5,467.5,8.0,460.0,8.5,452.5,9.0,445.0,9.5,437.0,9.5,429.0,10.5,421.5,11.0,413.5,11.0,406.0,11.5,398.0,12.0,389.5,12.5,381.0,13.0,372.5,13.5,364.5,13.5,356.0,14.5,348.0,15.0,340.0,16.0,332.5,17.0,324.5,17.5,316.5,17.0,309.0,17.0,301.0,17.0,292.5,17.5,284.5,17.5,276.0,18.0,267.0,19.0,258.5,19.5,250.0,20.5,242.5,21.0,234.5,21.5,227.0,21.5,219.5,22.0,211.5,22.5,203.5,23.0,196.0,23.5,188.0,24.5,179.5,25.0,171.5,25.0,162.5,25.5,155.0,26.0,147.0,27.0,139.0,28.0,131.0,28.5,123.0,29.5,114.5,30.0,106.5,30.5,98.5,31.5,90.5,32.5,83.0,33.0,75.0,33.5,67.0,34.5,59.5,35.0,52.0,35.5,44.5,35.5,36.5,35.5,28.5,36.5,21.0,36.5,13.0,36.5,5.0,37.5" stroke="black" stroke-width="2" fill="none" />
<polyline points="3.0,42.0,10.0,34.0,18.5,26.5,27.0,18.5,35.5,11.0,43.5,3.5" stroke="black" stroke-width="2" fill="none" />
<polyline points="43.5,11.5,35.5,19.0,28.0,26.0,20.0,33.5,13.0,41.0,5.5,49.0" stroke="black" stroke-width="2" fill="none" />
<polyline points="5.0,44.0,13.0,44.0,20.5,43.5,28.0,43.5,35.5,43.0,43.0,42.5,51.0,42.0,59.5,41.5,67.5,41.0,75.5,40.5,83.0,40.0,91.5,39.5,99.5,39.5,107.5,39.5,115.5,39.5,124.0,39.0,131.5,38.5,139.5,38.0,147.0,37.0,154.5,36.0,163.0,35.5,170.5,35.5,178.5,35.0,186.5,34.0,194.5,33.5,202.0,33.0,210.5,32.0,219.0,31.0,227.0,30.0,235.0,29.5,243.0,29.0,251.0,28.5,258.5,28.0,266.5,28.0,274.0,28.0,282.0,28.0" stroke="black" stroke-width="2" fill="none" />
<polyline points="286.0,43.5,266.0,51.5,251.0,59.0,237.0,67.0,220.5,75.0" stroke="black" stroke-width="2" fill="none" />
<polyline points="234.0,57.0,226.0,57.5,218.5,58.5,210.0,59.5,202.5,60.5,194.5,60.5,187.0,60.5,179.5,60.5,171.5,61.0,164.0,61.5,156.0,62.0,148.0,62.5,140.0,63.0,131.5,63.5,123.5,64.5,115.5,65.0,107.5,65.5,99.5,66.0,91.5,66.0,83.5,66.0,75.0,66.5,67.5,67.0,59.5,68.0,52.0,68.5,44.0,69.0" stroke="black" stroke-width="2" fill="none" />
<polyline points="57.5,68.0,65.5,60.5" stroke="black" stroke-width="2" fill="none" />
<polyline points="66.0,52.0,58.0,59.5,50.5,67.0" stroke="black" stroke-width="2" fill="none" />
<polyline points="44.0,68.0,52.0,61.0,59.5,53.5" stroke="black" stroke-width="2" fill="none" />
<polyline points="51.0,53.0,43.0,60.5,35.0,67.5" stroke="black" stroke-width="2" fill="none" />
<polyline points="19.5,66.0,27.0,58.5,35.0,51.0,43.0,44.0,50.5,36.5,58.5,29.0,66.5,21.0" stroke="black" stroke-width="2" fill="none" />
<polyline points="51.5,20.0,43.5,27.5,35.5,34.5,27.5,41.5,19.5,49.0,11.0,56.5,3.0,63.5" stroke="black" stroke-width="2" fill="none" />
<polyline points="4.5,62.5,12.5,61.5,19.5,60.5,27.5,60.0,35.5,59.5,43.5,59.0,51.5,58.5,59.5,58.5,67.5,58.5,76.0,58.0,84.0,58.0,92.0,57.5,99.0,56.0,106.5,55.5,114.0,55.0,122.5,54.5,130.5,54.0,139.0,53.5,147.0,52.5,155.5,52.0,163.5,51.5,171.5,50.5,180.0,50.0,188.0,49.5,195.0,49.0,203.0,49.0,211.0,48.0,219.5,47.0,227.5,47.0,235.0,46.0,243.0,46.0,251.0,45.5" stroke="black" stroke-width="2" fill="none" />
<polyline points="227.5,99.5,219.0,100.5,211.0,101.5,202.5,102.0,194.5,102.5,187.5,103.0,179.5,103.5,171.5,104.0,163.5,104.5,156.0,105.0,147.5,104.5,139.0,104.5,131.5,105.0,123.0,106.0,115.0,105.5,107.0,106.0,98.5,106.5,91.0,107.5,83.5,108.5,75.0,109.0,66.5,109.5,58.5,110.0,51.0,111.0,43.5,112.0,35.5,112.5,28.0,113.5,20.5,114.5,12.5,115.0,5.0,115.5" stroke="black" stroke-width="2" fill="none" />
<polyline points="6.0,117.5,13.5,117.5,21.0,116.5,28.0,116.0,35.0,115.0,42.5,113.5,50.0,113.0,58.0,112.5,66.0,112.0,74.5,111.0,82.0,110.5,90.0,110.0,98.5,110.5,106.5,110.5,114.0,110.0,122.5,110.0,130.5,110.0" stroke="black" stroke-width="2" fill="none" />
<polyline points="117.0,106.0,109.0,114.0,101.5,122.0,94.0,130.0,86.0,138.0,77.5,146.0,69.0,154.0,60.5,162.0,52.0,170.0,44.0,177.5,35.5,185.0,27.5,192.5,19.5,200.0,11.5,207.0,3.5,214.0" stroke="black" stroke-width="2" fill="none" />
<polyline points="3.5,212.0,11.5,211.0,19.5,210.5,27.5,209.5,35.5,209.5,44.0,209.0,52.0,208.5,59.5,207.0,67.5,206.5,75.0,206.0,83.0,206.0,91.0,205.5,99.0,205.5,106.5,206.0,114.0,206.0,122.0,205.5,130.0,205.5" stroke="black" stroke-width="2" fill="none" />
<polyline points="92.5,180.0,84.5,187.0,77.0,195.0,69.0,202.5,61.0,209.5,53.0,217.0,45.0,224.0" stroke="black" stroke-width="2" fill="none" />
<polyline points="35.0,224.5,43.5,217.5,51.5,210.0,60.0,203.0,68.0,196.0,76.0,189.0,83.5,181.5,91.5,174.0" stroke="black" stroke-width="2" fill="none" />
<polyline points="98.0,182.0,89.5,182.0,81.5,183.0,73.5,183.0,65.5,184.0,58.0,185.0,50.5,186.5,43.0,187.0,35.5,188.5,28.0,189.5,20.5,190.5,13.0,191.5,5.5,192.0" stroke="black" stroke-width="2" fill="none" />
<polyline points="3.5,196.5,11.5,189.0,19.5,181.5,28.0,174.0,36.0,166.0,44.5,158.0,52.5,150.5,60.5,143.0,68.5,135.5,77.0,129.0,85.0,122.0,93.0,115.0,101.0,107.5" stroke="black" stroke-width="2" fill="none" />
<polyline points="107.5,107.0,99.0,114.5,91.0,122.0,83.5,129.5,76.0,136.5,68.5,144.0,60.5,151.5,53.0,160.0,45.0,168.0,38.0,176.0,30.0,183.5,22.0,191.0,13.5,198.5,5.5,206.0" stroke="black" stroke-width="2" fill="none" />
<polyline points="4.5,203.0,12.0,202.5,20.5,203.0,28.5,203.0,37.0,202.5,45.0,202.0,52.0,201.5,59.5,200.5,67.0,200.0,74.0,199.5,82.5,199.0,90.5,198.5,99.0,198.0,107.5,197.5,115.5,197.0" stroke="black" stroke-width="2" fill="none" />
<polyline points="155.0,210.0,147.0,210.5,139.0,211.0,131.0,211.0,123.5,212.0,116.5,213.0,109.0,214.5,101.5,216.0,93.0,217.0,85.0,217.5,77.0,218.0,69.0,219.0,61.0,219.0,53.0,219.0,45.0,219.0,37.0,219.5,28.5,220.0,20.0,220.5,11.5,220.5,3.5,221.0" stroke="black" stroke-width="2" fill="none" />
<polyline points="3.5,225.5,11.0,225.5,19.0,225.0,27.0,224.5" stroke="black" stroke-width="2" fill="none" />
<polyline points="20.5,207.5,12.5,208.0" stroke="black" stroke-width="2" fill="none" />
<polyline points="4.5,200.0,13.0,199.0,21.0,198.5" stroke="black" stroke-width="2" fill="none" />
<polyline points="19.5,184.5,27.5,184.0" stroke="black" stroke-width="2" fill="none" />
<polyline points="5.0,182.0,13.0,174.5,20.5,166.5,28.0,159.0,36.0,152.0,44.5,144.5,52.0,137.5,60.0,130.0,67.5,122.5,74.5,115.0,82.0,107.5" stroke="black" stroke-width="2" fill="none" />
<polyline points="73.5,107.0,65.5,114.5,58.0,122.5,50.5,130.0,43.5,138.0,36.5,145.5,28.5,153.0,20.5,161.0,12.5,168.0,5.0,175.0" stroke="black" stroke-width="2" fill="none" />
<polyline points="4.5,175.0,12.0,174.0,20.0,173.5,27.5,173.0,35.5,172.5,43.0,171.5,51.0,170.5,58.5,169.0,66.5,168.5,74.5,168.0,83.0,168.0,90.5,167.0" stroke="black" stroke-width="2" fill="none" />
<polyline points="91.5,159.0,83.5,159.5,75.5,160.5,68.5,161.5,60.5,162.0,52.0,162.5,44.0,163.5,36.0,163.5,28.5,164.5,20.5,165.0,12.0,165.5,4.0,166.0" stroke="black" stroke-width="2" fill="none" />
<polyline points="2.0,167.0,10.0,159.0,18.0,152.0,25.5,144.5,34.0,137.0,42.0,130.0,50.5,122.5,59.0,115.0,67.5,107.5" stroke="black" stroke-width="2" fill="none" />
<polyline points="52.5,107.0,44.0,114.5,35.5,122.0,27.5,130.0,19.5,137.5,11.5,145.0,3.0,152.0" stroke="black" stroke-width="2" fill="none" />
<polyline points="4.0,149.0,12.5,148.5,21.0,148.0,29.0,147.5,37.0,147.0,45.0,147.0,52.5,146.0,60.5,145.0,68.0,144.5,75.0,143.5,83.0,142.5,90.5,142.5,99.0,142.0" stroke="black" stroke-width="2" fill="none" />
<polyline points="99.0,134.5,91.5,135.5,83.5,136.0,75.0,136.0,67.5,135.5,60.0,135.5,52.0,136.0,45.0,137.0,37.5,138.0,29.0,139.0,21.5,140.0,14.0,141.0,6.0,141.5" stroke="black" stroke-width="2" fill="none" />
<polyline points="3.0,145.0,11.0,137.5,19.0,130.5,27.0,123.0,35.0,115.5,43.5,108.0" stroke="black" stroke-width="2" fill="none" />
<polyline points="34.5,107.0,27.0,115.0,19.0,122.5,11.5,130.5,3.5,138.0" stroke="black" stroke-width="2" fill="none" />
<polyline points="4.0,133.0,12.5,132.0,20.5,131.5,28.5,131.0,36.5,130.5,44.5,129.5,51.5,129.5,58.5,128.5,66.0,128.5,74.0,128.0,82.0,128.0,90.0,127.0,98.5,126.5,107.0,126.0" stroke="black" stroke-width="2" fill="none" />
<polyline points="91.0,107.0,83.0,115.0,75.0,123.0,67.0,131.0,59.5,138.5,51.5,146.5,43.5,153.5,35.5,161.0,27.5,168.5,19.5,175.5,11.5,183.5,3.5,191.0" stroke="black" stroke-width="2" fill="none" />
<polyline points="4.0,197.0,12.5,196.5,21.0,196.0,29.0,195.5,36.5,195.0,44.0,194.0,52.0,193.5,60.0,193.0,67.5,193.0,76.0,192.5,84.0,192.0,92.0,191.5,99.5,191.0,107.5,190.0" stroke="black" stroke-width="2" fill="none" />
<polyline points="99.0,175.5,91.0,175.5,82.5,175.5,75.0,176.0,67.5,177.0,60.0,177.5,52.0,177.5,44.0,178.5,36.5,179.5,29.0,180.5,21.0,181.5,12.5,183.0,4.0,184.0" stroke="black" stroke-width="2" fill="none" />
<polyline points="2.5,228.5,10.5,228.5,18.5,228.5,26.5,229.5,34.5,229.0,42.5,229.5,50.5,231.0,58.5,231.0,66.5,232.0,74.0,232.5,82.0,232.5,90.0,232.5,98.0,234.0,106.0,234.0,114.0,235.0,122.0,235.0,130.0,235.0,138.0,235.5,146.0,235.5,154.0,236.0,162.0,236.0,170.0,236.0,177.5,237.0,185.5,237.0,193.5,237.0,201.5,236.0,209.5,235.0,218.0,232.0,226.0,229.0,234.5,224.0,242.5,219.0,250.5,214.0,258.5,209.0,266.0,204.5,274.0,200.5,282.0,196.5,290.0,194.5,298.0,191.0,306.0,190.0,314.0,188.5,322.0,188.5,330.0,188.0,338.0,189.0,346.5,189.0,354.5,190.5,362.5,191.5,371.0,194.5,379.0,197.5,387.5,202.5,395.5,207.0,403.5,215.0,411.5,227.0" stroke="black" stroke-width="2" fill="none" />
<polyline points="381.0,59.0,373.0,54.5,365.5,50.5,357.5,49.0,349.0,46.5,341.0,44.5,333.0,44.5,325.0,45.0,317.0,45.0" stroke="black" stroke-width="2" fill="none" />
<polyline points="356.5,49.0,375.5,57.5,385.5,65.0" stroke="black" stroke-width="2" fill="none" />
<polyline points="228.5,94.0,220.5,94.5,213.0,95.5,205.0,96.0,196.5,96.5,188.5,97.0,180.5,97.5,172.0,98.5,164.0,99.0,156.0,99.5,148.5,100.0,140.5,100.5,132.5,101.0,124.5,101.5,116.5,102.5,108.5,103.0,100.5,104.0,92.5,105.0,84.0,106.0,76.0,106.0,67.5,106.0,59.5,106.5,51.5,107.5,43.0,108.5,35.5,108.5,27.5,109.0,20.0,109.5,12.5,110.5,4.5,110.5" stroke="black" stroke-width="2" fill="none" />
<polyline points="3.0,109.5,11.0,109.5,18.5,109.5,26.5,108.5,34.5,107.0,42.5,107.5,50.5,106.5,58.5,106.5,67.0,105.5,75.0,105.5,83.0,105.0,90.5,104.0,98.5,100.5,106.0,100.5,114.0,100.5,122.0,100.5,129.5,101.0" stroke="black" stroke-width="2" fill="none" />
<polyline points="146.5,104.0,155.0,105.0,163.0,105.0,171.5,105.0,179.0,104.5,187.0,103.5,195.0,106.0,202.5,106.5,210.0,104.0" stroke="black" stroke-width="2" fill="none" />
<polyline points="125.5,118.0,117.0,118.5,108.5,118.5,100.0,118.5,91.5,118.0,83.5,118.5,75.5,119.5,67.5,120.0,59.0,121.0,50.5,122.0,42.0,123.5,34.0,124.0,26.5,125.0,18.5,125.5,10.5,126.0,3.0,127.0" stroke="black" stroke-width="2" fill="none" />
<polyline points="4.0,129.5,12.0,121.5,19.5,114.0,27.0,106.0" stroke="black" stroke-width="2" fill="none" />
<polyline points="20.0,108.0,12.5,115.0,4.5,122.0" stroke="black" stroke-width="2" fill="none" />
<polyline points="3.0,121.5,11.0,121.0,19.0,121.0" stroke="black" stroke-width="2" fill="none" />
<polyline points="27.0,121.0,34.5,120.0" stroke="black" stroke-width="2" fill="none" />
<polyline points="42.5,120.5,51.0,120.5,59.0,119.5" stroke="black" stroke-width="2" fill="none" />
<polyline points="75.5,76.0,83.5,68.5" stroke="black" stroke-width="2" fill="none" />
<polyline points="75.5,68.0,67.0,76.0" stroke="black" stroke-width="2" fill="none" />
<polyline points="68.0,69.0,76.0,61.5" stroke="black" stroke-width="2" fill="none" />
<polyline points="59.5,44.0,68.0,37.0" stroke="black" stroke-width="2" fill="none" />
<polyline points="60.5,35.5,53.0,43.0,45.5,50.5,37.5,57.5,29.0,64.5" stroke="black" stroke-width="2" fill="none" />
<polyline points="10.0,64.5,18.5,57.0,26.5,49.5,35.0,42.5,43.5,36.0,51.5,29.0" stroke="black" stroke-width="2" fill="none" />
<polyline points="43.5,20.5,35.5,27.5" stroke="black" stroke-width="2" fill="none" />
<polyline points="28.0,35.5,20.0,43.5,12.0,51.5,4.5,59.0" stroke="black" stroke-width="2" fill="none" />
<polyline points="6.0,54.0,13.5,53.0,21.5,52.5,28.5,52.0,36.0,51.5,43.0,51.0,51.0,50.0,59.5,49.5,67.5,48.5,75.5,47.5,83.5,47.0,91.0,47.0,99.0,47.5,106.5,47.5,113.5,47.5,121.0,47.0,129.0,47.0,137.5,46.5,145.5,46.0,154.5,45.0,162.5,44.5,170.5,44.0,178.5,44.0,186.5,43.5,194.0,43.0,202.0,42.5,210.0,42.0,218.5,41.0,226.5,40.5,235.0,39.0,243.5,38.0,251.0,38.0,258.5,38.0,266.0,37.5" stroke="black" stroke-width="2" fill="none" />
<polyline points="94.5,158.5,102.5,142.5,111.0,133.5,119.0,127.5,126.5,122.0,134.5,118.5,142.5,115.5,150.5,113.5,158.0,112.5,166.0,111.5,173.5,110.5,181.5,111.5,190.0,112.0,198.0,114.0,206.5,115.5,214.5,118.5,222.5,121.5,231.0,124.5,239.0,128.5,247.0,133.5,254.5,137.5,263.0,142.5,271.0,147.5,279.0,152.5,287.0,155.5,294.5,157.5,302.5,158.5,310.5,158.5,318.0,158.5,326.0,158.5,333.5,158.5,342.0,158.5,350.0,158.5,358.0,158.0,366.0,158.5,373.5,158.5,381.5,158.5,389.5,157.5,397.5,157.5,406.0,157.5,414.0,157.0,422.0,156.5,430.0,155.5,438.0,155.5,445.5,154.5,454.0,153.5,462.0,153.0,470.5,152.0,478.5,152.0,487.0,151.5,495.0,152.0,503.0,151.5,511.0,150.5" stroke="black" stroke-width="2" fill="none" />
<polyline points="515.0,-2.0,507.0,-1.5,499.0,-1.0,491.5,-0.5,484.0,-0.5,475.5,0.0,467.5,0.5,459.0,1.0,451.0,2.0,443.0,2.5,435.0,3.0,427.0,2.5,419.0,3.0,410.5,3.5,402.5,4.0,395.0,4.5,388.0,5.0,380.5,5.5,373.0,6.0,365.0,6.0,357.0,7.0,349.0,7.0,340.5,7.5,332.5,8.0,324.0,8.5,316.5,9.0,308.0,9.0,299.5,9.5,291.0,10.5,282.5,11.5,274.5,11.5,266.5,12.0,259.0,12.5,251.5,13.0,243.0,13.5,235.5,14.0,228.0,14.5,220.0,15.0,212.0,16.0,204.0,16.5,196.5,17.5,188.5,18.0,181.0,19.0,173.0,19.5,165.0,20.5,157.0,21.0,148.0,21.5,140.0,22.0,131.5,22.0,123.0,22.5,115.5,23.0,107.5,23.5,99.5,23.5,91.5,23.5,83.0,24.0,75.5,24.5,67.5,25.0,59.5,25.5,51.0,26.5,42.5,27.5,35.0,27.0,27.0,26.5,19.5,26.5,11.5,27.0,4.0,27.5" stroke="black" stroke-width="2" fill="none" />
<polyline points="2.5,34.5,10.5,27.5,18.5,19.5,26.5,11.5,35.0,4.0" stroke="black" stroke-width="2" fill="none" />
<polyline points="27.5,4.5,19.0,11.5,11.0,19.0,3.5,26.5" stroke="black" stroke-width="2" fill="none" />
<polyline points="2.5,20.0,10.5,20.0,19.0,19.0,27.0,18.5,35.0,18.0,43.0,17.5,50.5,17.5,58.0,17.0,66.0,17.0,73.5,17.0,81.0,17.0,89.5,16.0,97.5,15.5,105.5,15.0,114.0,15.0,122.5,15.0,130.5,14.5,139.0,13.5,147.5,13.0,156.0,12.0,164.5,12.0,172.5,11.5,180.0,11.0,188.0,10.5,195.5,10.5,203.0,10.0,211.5,9.5,219.0,8.5,227.0,7.0,235.0,6.5,243.5,5.5,251.5,5.0,259.5,4.5,268.0,4.5,276.5,4.0,285.0,3.5,292.5,3.0,300.5,2.5,308.0,2.0,315.5,1.0,324.0,0.0,332.0,0.0,340.0,0.0,348.0,-0.5,355.5,-1.0,363.0,-1.5,371.0,-2.0,378.5,-2.5,386.0,-3.0,393.5,-3.0,401.5,-3.0,409.5,-4.0,418.0,-5.0,426.5,-6.0,435.0,-7.0,443.5,-7.5,451.5,-7.5,459.5,-8.0,467.5,-8.5,475.5,-9.5,483.0,-10.0,491.5,-10.0,500.0,-10.5,508.0,-10.5,516.0,-11.0" stroke="black" stroke-width="2" fill="none" />
<polyline points="516.0,-17.5,508.5,-17.0,500.0,-16.5,492.0,-16.5,484.0,-16.5,475.5,-16.0,467.0,-16.0,459.5,-16.0,451.5,-15.5,444.0,-15.0,435.5,-14.5,427.5,-13.5,419.5,-13.0,411.5,-13.0,403.5,-12.5,395.5,-11.5,387.5,-11.0,380.0,-10.5,372.0,-10.0,364.5,-9.5,357.0,-9.5,349.0,-9.5,341.0,-9.0,333.0,-8.0,325.0,-7.5,317.0,-7.5,309.0,-6.5,301.5,-5.5,293.5,-4.5,285.5,-4.0,277.5,-3.0,268.5,-2.5,260.0,-2.0,251.5,-1.0,243.5,-0.5,235.5,0.5,227.5,0.5,219.5,1.0,212.0,2.0,204.0,2.5,196.0,3.0,188.0,3.5,180.0,4.0,172.0,4.0,163.5,4.5,156.0,5.5,147.5,6.5,139.5,7.0,131.5,6.5,123.0,7.0,115.0,8.0,107.5,8.5,99.5,9.0,91.0,9.5,83.0,10.0,75.0,9.5,67.5,10.0,59.0,10.0,50.5,10.0,43.0,10.0,34.5,10.0,26.0,10.5,18.0,11.0,10.0,12.0,2.0,13.0" stroke="black" stroke-width="2" fill="none" />
<polyline points="2.5,18.5,11.0,10.5,19.0,3.0" stroke="black" stroke-width="2" fill="none" />
<polyline points="11.0,5.5,3.0,13.0" stroke="black" stroke-width="2" fill="none" />
<polyline points="1.0,3.0,9.5,2.5,18.5,2.5,27.5,3.0,36.0,3.5,44.0,3.5,52.0,3.5,60.0,4.0,68.0,3.5,75.5,3.0,83.5,2.0,91.5,1.5,100.0,1.5,108.0,1.0,116.5,0.0,124.0,-1.0,132.0,-2.0,139.5,-2.5,147.5,-3.0,155.5,-4.0,163.5,-4.5,171.0,-5.0,179.0,-5.5,187.0,-5.5,195.0,-5.5,203.5,-6.0,211.5,-6.0,220.5,-6.5,229.0,-7.0,237.5,-8.0,245.0,-8.5,253.0,-9.0,261.0,-9.5,268.5,-10.5,276.5,-11.5,284.5,-12.5,292.5,-13.5,300.5,-14.0,309.0,-14.5,317.0,-15.5,325.0,-16.0,333.0,-16.0,341.0,-17.0,349.0,-18.0,357.0,-18.5,364.5,-19.0,373.0,-20.0,381.0,-20.5,389.0,-20.5,397.0,-21.0,404.5,-21.0,412.5,-22.0,420.5,-22.0,428.5,-22.0,435.5,-22.0,443.0,-22.0,451.0,-22.0,459.5,-22.0,467.5,-22.0,475.0,-23.0,483.5,-23.5,491.0,-24.5,499.0,-25.0,507.5,-25.5,516.0,-26.5" stroke="black" stroke-width="2" fill="none" />
<polyline points="402.0,122.0,394.0,131.0,386.0,138.0,377.5,142.0,369.5,146.5,361.0,149.5,353.0,151.5,345.0,152.5,337.0,153.5,329.0,153.5,321.0,154.0,313.0,153.0,304.5,151.5,296.5,149.5,288.0,147.0,280.5,142.5,272.5,139.5,264.5,135.5,257.0,130.5,249.0,124.5,241.0,120.0,233.0,115.5,224.5,110.5,218.5,108.5,210.5,107.0,201.0,103.0,192.5,102.0,184.5,102.5,176.5,102.5,169.0,102.0,161.0,102.0,153.0,102.0,144.5,105.5,139.0,104.5,131.0,104.0,123.0,105.0,115.0,104.5,107.0,103.5,98.5,103.0,89.5,100.0,81.5,100.0,74.0,101.0,66.5,101.5,58.5,101.5,51.0,102.0,43.0,103.0,35.0,103.0,27.0,104.0,19.0,105.0,10.5,104.0,2.5,104.0" stroke="black" stroke-width="2" fill="none" />
<polyline points="10.5,108.5,2.5,115.5" stroke="black" stroke-width="2" fill="none" />
<polyline points="4.0,67.0,11.5,68.0,19.5,68.0,27.0,68.5,35.0,68.0,43.0,68.5,50.5,69.5,58.5,70.5,66.0,72.0,74.0,72.5,82.0,73.5,90.0,74.5,97.5,75.5,105.5,75.5,113.5,77.0,121.5,77.0,129.5,77.5,137.5,78.5,145.5,79.0,153.5,79.0,161.0,79.0,169.0,80.0,177.0,79.5,185.5,79.5,193.5,79.0,202.0,79.0,210.5,78.5,219.0,76.0,227.0,74.0,234.5,69.0,243.0,65.0,250.5,60.0,259.0,56.0,266.5,52.5,274.5,49.0,282.0,46.0,290.0,44.5,298.0,42.5,305.5,40.5,313.0,39.5,321.0,38.5,329.0,38.5,337.5,40.0,346.0,41.0,354.0,42.5,362.0,45.0,370.5,47.0,378.5,50.5,386.5,55.0,394.0,62.0,402.0,71.0" stroke="black" stroke-width="2" fill="none" />
<polyline points="276.0,296.5,259.5,288.5,245.5,280.5,231.5,272.5,214.5,264.5" stroke="black" stroke-width="2" fill="none" />
<polyline points="194.0,258.0,186.0,265.5,178.0,273.0,170.5,281.5,162.5,289.5,155.0,297.5,147.5,304.5,140.0,311.5,132.0,318.5,124.0,326.0,116.0,333.5" stroke="black" stroke-width="2" fill="none" />
<polyline points="108.5,336.0,116.5,328.0,124.5,320.5,132.0,313.0,139.5,306.0,147.5,298.5,155.5,290.0,164.0,281.5,172.5,273.5,181.0,266.0,188.5,258.0" stroke="black" stroke-width="2" fill="none" />
<polyline points="179.5,259.0,171.0,267.0,163.0,275.0,154.5,282.5,146.5,290.0,138.0,297.5,130.5,305.5,122.5,313.5,115.0,321.0,108.0,328.0,100.5,335.5" stroke="black" stroke-width="2" fill="none" />
<polyline points="92.5,335.0,100.5,328.0,108.5,321.0,116.5,313.5,125.0,305.5,133.0,297.5,141.5,290.0,149.5,281.5,158.0,273.5,166.5,266.0,174.5,258.5" stroke="black" stroke-width="2" fill="none" />
<polyline points="147.5,260.5,139.5,268.0,131.5,275.5,123.5,282.5,115.5,289.0,107.5,296.5,99.5,304.0,92.0,312.0,84.0,320.0,76.0,328.0,68.0,336.0" stroke="black" stroke-width="2" fill="none" />
<polyline points="58.0,336.5,66.0,329.0,74.0,321.5,82.0,313.0,90.5,305.0,99.0,296.5,107.5,288.5,116.5,280.5,125.0,273.0,134.0,266.0,142.5,258.5" stroke="black" stroke-width="2" fill="none" />
<polyline points="130.5,260.5,122.5,268.0,114.5,275.0,106.5,282.5,99.0,289.5,90.5,297.0,83.0,304.0,75.0,311.5,66.5,318.5,58.5,325.5,50.5,333.0" stroke="black" stroke-width="2" fill="none" />
<polyline points="36.5,333.0,44.5,326.0,52.5,319.5,60.0,312.5,67.5,305.5,75.5,298.0,84.0,290.5,92.5,282.5,101.0,274.5,109.5,267.0,117.5,260.0" stroke="black" stroke-width="2" fill="none" />
<polyline points="108.0,258.0,99.5,265.5,91.5,273.0,83.5,280.5,76.0,288.5,68.0,296.5,60.0,304.0,51.5,311.5,43.0,319.0,35.5,326.5,27.5,334.0" stroke="black" stroke-width="2" fill="none" />
<polyline points="22.5,333.5,30.0,326.0,37.5,318.5,45.0,311.0,52.5,303.0,60.0,295.0,68.0,287.5,76.0,281.0,84.5,274.0,92.5,266.5,100.5,259.0" stroke="black" stroke-width="2" fill="none" />
<polyline points="67.5,260.0,59.5,267.5,50.5,274.5,42.0,281.5,33.5,289.0,25.5,296.5,17.5,304.0,9.5,312.0,1.5,319.5" stroke="black" stroke-width="2" fill="none" />
</svg>