<svg xmlns="http://www.w3.org/2000/svg" version="1.1"><polyline points="200.0,119.0,198.0,127.0,198.0,135.0,197.5,142.5,197.5,150.5,195.5,158.5,193.0,166.5,193.0,174.0,192.0,182.5,193.0,190.5,192.0,198.5,192.0,206.5,192.0,214.5,191.5,223.0,191.0,231.0,192.0,239.5,190.5,247.5,190.5,255.5" stroke="black" stroke-width="2" fill="none" />
<polyline points="189.0,260.0,197.5,252.5" stroke="black" stroke-width="2" fill="none" />
<polyline points="196.0,242.5,188.0,250.0,180.0,257.5" stroke="black" stroke-width="2" fill="none" />
<polyline points="169.0,257.0,177.0,249.5,185.0,242.0,193.0,234.0" stroke="black" stroke-width="2" fill="none" />
<polyline points="194.0,228.0,186.5,236.0,178.5,243.5,171.0,251.0,164.0,258.0" stroke="black" stroke-width="2" fill="none" />
<polyline points="155.0,259.0,163.5,251.5,172.0,243.5,180.5,235.5,189.0,228.0,197.0,220.5" stroke="black" stroke-width="2" fill="none" />
<polyline points="196.5,212.0,188.5,220.0,180.0,228.0,172.0,235.5,164.5,243.0,156.5,250.5,148.5,257.5" stroke="black" stroke-width="2" fill="none" />
<polyline points="140.5,254.0,148.5,247.0,156.5,240.0,164.5,233.0,172.5,225.5,181.0,218.0,189.5,210.5,197.5,203.5" stroke="black" stroke-width="2" fill="none" />
<polyline points="197.5,194.5,189.0,202.0,180.5,210.0,172.5,217.5,164.0,224.5,156.0,231.5,148.0,239.0,140.0,246.5,132.5,254.5" stroke="black" stroke-width="2" fill="none" />
<polyline points="123.0,255.5,131.0,247.5,139.5,239.5,147.5,232.0,155.5,224.0,163.0,216.5,171.0,209.0,179.5,201.5,187.5,193.5,195.0,185.5" stroke="black" stroke-width="2" fill="none" />
<polyline points="195.0,180.5,187.0,187.5,179.5,194.5,172.0,201.5,163.5,209.0,156.0,216.0,147.5,224.0,139.5,231.0,132.0,238.5,124.0,246.0,115.5,253.0" stroke="black" stroke-width="2" fill="none" />
<polyline points="107.5,254.0,116.0,246.5,123.5,239.0,131.5,231.0,139.0,223.5,146.5,216.5,154.5,209.5,163.0,202.0,171.0,194.0,179.5,186.5,187.5,179.5,195.5,172.0" stroke="black" stroke-width="2" fill="none" />
<polyline points="194.5,164.0,186.5,171.0,178.0,179.0,170.0,186.5,162.5,194.5,154.5,202.0,147.0,208.5,140.0,215.5,132.5,222.0,125.0,229.5,117.5,236.5,109.0,244.5,101.0,251.5" stroke="black" stroke-width="2" fill="none" />
<polyline points="81.5,253.0,90.0,245.5,98.5,237.5,107.0,230.0,115.5,222.0,123.5,214.0,131.5,206.5,139.0,199.0,147.0,191.5,155.5,184.5,163.5,177.5,172.0,170.0,180.5,162.0,188.5,154.5,197.5,147.0,205.5,139.5" stroke="black" stroke-width="2" fill="none" />
<polyline points="204.0,132.0,196.0,139.5,188.0,147.0,180.0,154.5,172.5,161.5,164.5,169.0,156.0,176.0,147.5,182.5,139.0,189.5,130.5,197.0,122.5,204.5,114.5,212.0,106.5,219.5,99.0,227.0,91.0,234.5,83.0,242.5,75.0,250.0" stroke="black" stroke-width="2" fill="none" />
<polyline points="66.5,250.0,74.5,242.5,82.5,235.0,90.5,227.0,99.0,219.5,108.0,211.5,116.5,204.0,124.5,196.0,132.0,189.0,139.0,182.0,146.5,175.0,154.5,168.0,162.5,161.0,171.0,153.5,179.5,146.0,187.5,138.5,195.5,131.0,203.5,123.5" stroke="black" stroke-width="2" fill="none" />
<polyline points="203.5,116.5,195.5,123.5" stroke="black" stroke-width="2" fill="none" />
<polyline points="196.5,122.0,204.5,117.0,213.0,117.0,221.0,117.0,229.0,117.0,237.0,118.5,238.0,124.5,237.5,132.5,237.0,140.5,237.0,149.0,239.0,157.0,242.5,165.0,243.5,173.5,242.5,181.5,243.0,189.5,243.0,197.0,243.0,205.0,242.5,213.0,243.5,221.0,242.5,229.0,243.5,236.5,243.5,244.5,243.5,253.0,245.0,261.0,243.0,268.5,243.5,276.5,243.5,284.5,243.5,292.5,236.5,300.5" stroke="black" stroke-width="2" fill="none" />
<polyline points="236.5,299.0,228.5,307.0" stroke="black" stroke-width="2" fill="none" />
<polyline points="226.5,305.5,234.5,305.0,243.5,304.0,252.0,303.5,260.0,302.5,268.0,301.5,276.5,301.5,284.5,300.5,292.0,300.0,300.0,300.0,308.5,299.5,316.5,299.0,324.0,298.0,332.0,297.5,340.0,297.5,347.5,297.5" stroke="black" stroke-width="2" fill="none" />
<polyline points="346.5,292.5,338.5,300.5,330.5,308.5" stroke="black" stroke-width="2" fill="none" />
<polyline points="348.5,306.5,356.5,299.0,364.0,291.0" stroke="black" stroke-width="2" fill="none" />
<polyline points="371.0,291.0,363.5,298.0" stroke="black" stroke-width="2" fill="none" />
<polyline points="373.5,297.5,381.5,290.0" stroke="black" stroke-width="2" fill="none" />
<polyline points="389.0,290.5,381.0,297.5" stroke="black" stroke-width="2" fill="none" />
<polyline points="386.5,298.5,394.5,290.5" stroke="black" stroke-width="2" fill="none" />
<polyline points="411.5,277.5,419.5,270.5,428.0,263.0,436.0,255.5,444.0,248.5,452.5,240.5,460.5,232.5,469.0,225.0,476.5,217.0,484.5,209.0,492.5,201.0,500.5,193.0,509.0,185.0,517.0,177.5" stroke="black" stroke-width="2" fill="none" />
<polyline points="514.5,171.5,506.5,179.0,499.0,186.5,491.0,194.0,483.0,201.5,475.0,209.0,467.5,216.5,460.0,224.0,452.5,231.5,445.0,238.5,436.5,246.0,428.5,253.0,421.0,261.0,412.5,268.5,404.5,276.0" stroke="black" stroke-width="2" fill="none" />
<polyline points="396.5,276.5,404.5,268.0,411.5,260.0,419.5,252.0,427.5,244.5,435.5,236.5,443.5,229.5,451.0,222.0,459.0,215.0,467.0,207.5,475.0,200.5,482.5,193.5,490.0,186.5,497.5,179.5,505.5,172.0,513.0,164.5" stroke="black" stroke-width="2" fill="none" />
<polyline points="513.5,156.5,505.5,163.5,497.5,170.5,490.0,178.0,482.0,185.0,474.5,192.5,466.5,200.0,459.0,207.5,451.5,215.5,444.0,223.5,436.0,231.0,428.0,238.5,419.0,246.0,411.0,253.5,403.0,261.0,395.0,268.0,387.0,276.0" stroke="black" stroke-width="2" fill="none" />
<polyline points="378.0,275.5,386.5,268.5,395.0,261.0,402.5,253.0,410.5,245.5,418.5,238.0,426.5,231.0,435.0,224.0,442.5,216.5,451.0,208.5,458.5,200.5,466.0,192.5,473.5,184.5,482.0,176.5,490.0,169.0,498.5,161.5,506.5,153.5,514.5,146.5" stroke="black" stroke-width="2" fill="none" />
<polyline points="514.0,140.0,506.0,147.0,498.5,154.0,490.0,161.5,482.5,169.0,474.5,176.5,466.0,184.0,458.0,191.0,450.0,198.5,442.5,206.0,434.5,213.5,426.5,221.5,418.5,229.0,411.0,237.0,404.0,245.5,396.0,253.5,388.0,261.5,380.0,269.0,372.0,276.5" stroke="black" stroke-width="2" fill="none" />
<polyline points="363.0,281.5,371.5,274.0,379.5,266.5,387.0,258.5,395.0,250.5,403.5,242.5,411.0,235.0" stroke="black" stroke-width="2" fill="none" />
<polyline points="405.0,236.5,396.5,244.0,388.5,251.5,380.0,258.5,372.0,266.0,364.0,273.0,356.0,280.5" stroke="black" stroke-width="2" fill="none" />
<polyline points="348.0,280.0,356.0,272.5,363.5,265.5,372.0,258.5,380.0,251.5,387.5,244.0,395.0,236.5" stroke="black" stroke-width="2" fill="none" />
<polyline points="389.0,235.0,380.5,242.0,372.5,249.5,364.5,256.5,356.5,264.5,348.0,272.0,340.5,279.5" stroke="black" stroke-width="2" fill="none" />
<polyline points="330.5,281.0,340.0,273.0,348.0,265.0,356.0,257.5,364.0,250.0,372.0,242.5,380.0,235.0" stroke="black" stroke-width="2" fill="none" />
<polyline points="381.0,227.5,389.0,220.5,397.0,213.0" stroke="black" stroke-width="2" fill="none" />
<polyline points="396.0,219.0,403.5,211.5,411.0,204.5,419.0,197.5,427.5,190.5,435.5,183.5,443.5,175.5,451.0,167.5,458.5,160.0,467.0,152.5,475.0,144.5,483.5,137.5,492.0,130.0,501.0,122.0,509.5,114.5,517.5,107.0" stroke="black" stroke-width="2" fill="none" />
<polyline points="517.0,116.0,508.5,123.5,500.5,130.5,492.0,138.0,483.5,146.0,475.0,153.5,466.5,161.0,459.0,168.0,451.0,175.5,443.5,182.0,435.5,189.5,427.5,197.0,419.0,204.5,411.0,212.5,403.0,220.5" stroke="black" stroke-width="2" fill="none" />
<polyline points="403.5,219.5,411.5,219.0,419.0,218.0,427.0,217.5,434.5,216.5,442.5,215.0,451.0,214.5,459.0,213.5,467.5,213.0,476.0,212.0,484.0,211.0,492.0,211.0,500.0,211.0,508.0,210.5,515.5,210.0" stroke="black" stroke-width="2" fill="none" />
<polyline points="515.5,211.5,507.5,219.5,499.0,227.0,491.0,235.0" stroke="black" stroke-width="2" fill="none" />
<polyline points="498.5,235.0,506.0,227.0,514.0,219.5" stroke="black" stroke-width="2" fill="none" />
<polyline points="512.5,228.5,505.0,236.0" stroke="black" stroke-width="2" fill="none" />
<polyline points="508.0,245.0,500.0,252.0,492.0,259.0,483.5,266.0,475.5,272.5,467.0,280.0" stroke="black" stroke-width="2" fill="none" />
<polyline points="499.5,284.0,507.5,277.0,515.5,269.5" stroke="black" stroke-width="2" fill="none" />
<polyline points="515.0,276.5,507.0,284.0" stroke="black" stroke-width="2" fill="none" />
<polyline points="491.5,282.5,499.5,275.0,507.0,268.0,514.5,260.5" stroke="black" stroke-width="2" fill="none" />
<polyline points="514.5,251.5,506.5,259.0,499.5,266.5,492.0,274.0,484.5,281.0" stroke="black" stroke-width="2" fill="none" />
<polyline points="476.5,281.5,484.0,274.0,491.0,266.5,498.5,259.0,506.0,251.5,514.0,244.0" stroke="black" stroke-width="2" fill="none" />
<polyline points="502.0,245.5,494.0,253.0,486.0,260.0,478.0,267.0,469.0,274.5,460.0,282.0" stroke="black" stroke-width="2" fill="none" />
<polyline points="451.5,283.0,459.5,275.5,468.0,267.5,476.5,259.5,484.0,251.5,492.0,244.0" stroke="black" stroke-width="2" fill="none" />
<polyline points="483.5,244.0,475.5,252.0,468.0,259.5,460.0,267.0,452.0,275.0,444.0,282.5" stroke="black" stroke-width="2" fill="none" />
<polyline points="435.0,282.0,443.5,274.5,452.5,267.0,461.0,260.0,469.0,253.0,477.5,245.0" stroke="black" stroke-width="2" fill="none" />
<polyline points="468.5,243.5,460.0,251.0,451.5,259.0,443.0,266.5,434.5,273.5,426.0,281.0" stroke="black" stroke-width="2" fill="none" />
<polyline points="419.5,282.0,428.0,274.5,436.5,267.0,444.5,259.5,452.0,251.5,459.5,244.0" stroke="black" stroke-width="2" fill="none" />
<polyline points="477.0,232.0,485.0,224.5,493.0,217.0,501.0,209.5,509.0,201.0,517.0,193.5" stroke="black" stroke-width="2" fill="none" />
<polyline points="516.0,185.5,508.0,193.5,500.0,201.5,492.0,209.0,484.5,216.5,476.5,224.0,468.0,232.0" stroke="black" stroke-width="2" fill="none" />
<polyline points="485.0,233.0,493.5,225.5,501.0,218.0,508.5,210.5,516.0,203.0" stroke="black" stroke-width="2" fill="none" />
<polyline points="515.0,167.5,506.5,168.0,498.5,168.0,491.0,168.5" stroke="black" stroke-width="2" fill="none" />
<polyline points="475.5,177.0,483.5,176.5,491.5,175.5,499.5,175.0,507.0,174.5,515.0,174.0" stroke="black" stroke-width="2" fill="none" />
<polyline points="515.5,132.0,507.5,139.5,499.5,146.5,491.0,154.0,482.5,161.5,474.5,168.5,466.5,175.5,458.5,182.5,450.5,189.5,442.5,196.5,434.0,204.0,426.5,211.5,419.0,220.0" stroke="black" stroke-width="2" fill="none" />
<polyline points="411.5,221.0,419.5,213.0,426.5,205.0,434.5,197.5,442.5,190.0,450.5,182.5,458.5,175.0,466.5,168.5,474.0,161.0,482.5,154.0,491.0,146.0,499.0,138.5,507.5,131.5,515.5,124.0" stroke="black" stroke-width="2" fill="none" />
<polyline points="516.0,97.5,508.0,104.5,500.0,112.0,491.5,120.0,483.5,128.0,474.5,136.5,466.5,144.5,458.5,152.0,450.0,160.0,442.0,168.5,434.0,176.0,426.0,183.0,418.5,190.0,411.0,196.5,403.0,204.0,395.0,210.5,387.5,217.5" stroke="black" stroke-width="2" fill="none" />
<polyline points="387.0,212.5,379.0,220.0,371.0,227.5" stroke="black" stroke-width="2" fill="none" />
<polyline points="371.0,233.0,363.0,240.5,354.5,248.5,346.5,256.5,338.0,264.0,330.5,271.5,322.5,279.5" stroke="black" stroke-width="2" fill="none" />
<polyline points="315.0,280.0,322.5,272.0,330.5,264.5,338.5,257.0,346.5,249.5,354.0,242.0,362.0,234.5" stroke="black" stroke-width="2" fill="none" />
<polyline points="357.0,235.5,348.5,243.0,340.0,250.5,332.0,258.0,324.0,265.5,316.0,273.5,308.0,281.5" stroke="black" stroke-width="2" fill="none" />
<polyline points="307.5,274.0,300.0,281.5" stroke="black" stroke-width="2" fill="none" />
<polyline points="293.0,281.5,301.5,273.5" stroke="black" stroke-width="2" fill="none" />
<polyline points="300.5,267.0,308.5,266.5" stroke="black" stroke-width="2" fill="none" />
<polyline points="309.0,265.0,317.0,264.5" stroke="black" stroke-width="2" fill="none" />
<polyline points="315.5,269.5,323.0,269.0,331.5,268.5,339.0,268.0,347.0,267.0,355.0,266.0,362.0,266.0,369.5,265.5,377.5,265.0,385.5,264.5,393.0,263.5,401.0,263.0,410.0,262.0,418.5,261.0,427.5,260.0,436.5,259.0,444.0,259.5,452.0,259.5,460.0,259.5,468.0,259.0,476.0,259.0,484.0,258.0,493.0,257.0,501.0,256.5,509.0,256.0,517.0,256.0" stroke="black" stroke-width="2" fill="none" />
<polyline points="514.0,180.0,505.5,181.0,497.5,181.5,489.5,182.0,481.5,182.5,474.0,183.5,466.5,184.5,459.0,185.0,451.5,185.5,444.0,186.0" stroke="black" stroke-width="2" fill="none" />
<polyline points="428.0,178.5,436.0,178.0,443.5,177.0,451.0,175.5,459.0,174.5,466.5,174.0" stroke="black" stroke-width="2" fill="none" />
<polyline points="467.0,168.5,475.5,168.5,483.0,169.0" stroke="black" stroke-width="2" fill="none" />
<polyline points="513.5,224.0,505.0,224.5,497.5,225.0,489.5,225.5,481.5,225.5,474.0,226.0,466.5,226.0,458.5,226.5,450.5,227.0,443.0,227.5,436.0,228.0,428.0,228.5,420.5,229.0" stroke="black" stroke-width="2" fill="none" />
<polyline points="419.5,233.5,427.5,233.0,435.5,232.5,443.5,231.5,451.5,230.0,459.5,229.5,467.0,229.0,474.5,228.5,482.0,228.0,490.5,227.5,498.5,227.0,506.5,227.0,515.0,226.5" stroke="black" stroke-width="2" fill="none" />
<polyline points="514.5,204.0,507.5,204.0,500.0,204.5,492.0,205.0,484.0,205.5,475.5,206.0,467.5,206.5,459.5,206.5,451.5,206.5,444.0,207.5,437.0,208.0,429.0,209.0,421.0,209.5,413.0,210.5" stroke="black" stroke-width="2" fill="none" />
<polyline points="414.0,202.0,421.5,202.0,428.5,201.0,436.0,200.0,443.5,199.0,451.5,197.5,459.5,197.0,467.5,196.0,475.5,195.5,483.0,195.0,491.0,194.5,499.5,193.5,508.0,193.5,516.0,193.0" stroke="black" stroke-width="2" fill="none" />
<polyline points="436.0,184.5,428.0,185.5,420.0,186.5" stroke="black" stroke-width="2" fill="none" />
<polyline points="411.0,190.0,419.5,189.5,428.0,188.5,436.5,188.0,444.0,187.5,451.5,187.0,459.5,186.5,466.5,186.0,474.0,186.0,481.5,186.0,489.5,186.0,497.5,185.5,506.5,184.5,515.0,184.0" stroke="black" stroke-width="2" fill="none" />
<polyline points="517.0,90.0,508.5,98.0,500.0,105.5,491.5,113.0,483.0,120.0,475.0,128.0,466.5,136.0,458.5,144.0,450.0,152.5,441.5,160.5,433.5,168.5,426.0,176.0,418.0,183.5,411.0,191.0" stroke="black" stroke-width="2" fill="none" />
<polyline points="412.5,194.0,420.5,193.5,428.5,193.0,436.0,192.5,443.5,192.0,450.5,192.0,459.0,191.0,467.0,189.5,475.5,188.5,483.5,187.5,491.5,187.0,499.5,187.0,507.0,187.0,515.0,187.0" stroke="black" stroke-width="2" fill="none" />
<polyline points="515.5,173.0,508.0,173.5,499.5,174.5,491.0,175.0,483.0,175.0,475.5,175.5,467.5,176.5,459.5,177.0,451.0,178.0,443.0,178.0,434.5,178.5,426.5,179.5,418.5,180.0,411.0,181.5,403.0,182.0" stroke="black" stroke-width="2" fill="none" />
<polyline points="404.0,180.5,412.5,172.5,420.5,165.0,428.5,158.0,436.5,150.5,444.0,143.0,452.0,135.5,460.0,128.0,467.5,120.5,475.0,113.0,482.5,105.5,490.5,98.5,498.0,91.0,506.5,83.5,515.0,76.0" stroke="black" stroke-width="2" fill="none" />
<polyline points="516.0,83.0,507.5,91.0,499.5,98.5,491.5,105.5,483.5,113.0,475.0,120.5,467.0,128.5,458.5,136.5,450.0,144.5,442.0,152.5,434.0,160.0,426.0,167.5,418.0,175.5,410.0,183.0" stroke="black" stroke-width="2" fill="none" />
<polyline points="410.0,185.0,401.5,185.5" stroke="black" stroke-width="2" fill="none" />
<polyline points="398.0,184.5,390.0,182.0,382.0,181.0,373.5,181.0,365.5,181.5,357.5,182.0,349.5,192.0" stroke="black" stroke-width="2" fill="none" />
<polyline points="354.0,190.0,346.0,197.5,338.0,205.0,329.5,212.5,322.0,220.0,314.0,227.0,306.5,234.5" stroke="black" stroke-width="2" fill="none" />
<polyline points="301.0,236.5,288.0,244.5,281.0,252.5,275.5,260.5" stroke="black" stroke-width="2" fill="none" />
<polyline points="267.5,248.5,275.5,241.5,283.5,234.5,291.0,227.5,299.0,219.5,307.5,212.0,315.5,205.0,323.5,197.0,331.5,189.0,340.0,181.5,347.5,174.0,355.0,166.0,363.0,158.0,371.5,150.5,379.5,142.5,387.5,135.0,395.0,128.5,403.0,121.5,411.0,114.0,419.5,106.5,427.0,99.5,434.5,91.5,442.5,84.0,450.0,76.0,458.0,68.5" stroke="black" stroke-width="2" fill="none" />
<polyline points="450.5,67.5,442.5,75.0,434.0,82.5,426.0,90.5,419.0,98.0,411.5,106.0,403.5,113.0,395.5,120.5,387.5,127.5,380.0,134.5,372.0,142.0,364.5,149.5,357.0,157.0,349.5,164.5,341.0,172.0,333.5,179.5,325.5,187.0,318.0,194.5,309.5,201.5,301.0,209.5,293.0,217.0,285.0,224.5,277.0,232.5,269.0,240.5,260.5,248.0" stroke="black" stroke-width="2" fill="none" />
<polyline points="252.5,247.0,260.5,239.5,268.5,231.5,276.5,223.5,284.5,215.5,293.0,208.0,301.0,200.5,308.5,193.0,317.0,185.5,325.0,178.5,333.0,171.0,341.0,163.5,349.0,156.0,357.0,148.5,365.0,140.0,373.0,132.5,381.0,125.0,388.5,117.5,396.5,110.0,404.0,103.0,411.5,95.5,418.5,89.0,426.0,82.0,434.0,75.5,442.5,69.0,450.5,62.0" stroke="black" stroke-width="2" fill="none" />
<polyline points="434.5,69.5,426.0,77.0,418.0,84.0,410.0,91.0,402.0,98.5,394.5,106.0,387.0,113.0,379.5,120.0,371.5,126.5,364.0,133.5,356.0,140.5,348.0,148.5,340.0,156.5,332.0,164.0,324.5,171.5,316.5,179.0,308.0,187.0,300.0,194.5,292.0,202.5,284.5,210.0,277.0,217.5,269.0,225.0,261.0,232.5,252.5,240.0,244.5,246.5" stroke="black" stroke-width="2" fill="none" />
<polyline points="244.5,245.5,252.5,245.0,261.0,245.0,268.5,245.0,276.0,244.5,283.5,244.0" stroke="black" stroke-width="2" fill="none" />
<polyline points="300.0,223.0,308.5,215.5,317.0,207.5,324.5,200.5,332.5,193.5,340.0,186.5,348.5,179.5,356.5,172.5,364.0,165.0,371.0,157.5,378.5,150.0,386.0,142.5,394.0,135.0,402.0,127.5,410.0,120.0,419.0,113.0,427.5,105.0,436.0,98.0,444.5,91.0,452.0,84.0,459.5,76.5,467.0,69.0,475.0,61.5" stroke="black" stroke-width="2" fill="none" />
<polyline points="483.5,60.0,475.5,67.5,467.0,75.5,459.0,83.5,451.0,90.5,442.5,98.0,435.0,105.0,426.5,112.5,418.5,120.0,410.5,128.0,402.5,135.5,395.0,143.0,387.5,150.0,379.5,157.5,372.0,165.0,364.0,172.5" stroke="black" stroke-width="2" fill="none" />
<polyline points="372.0,172.5,381.0,164.5,388.5,157.0,396.5,149.5,404.0,141.0,412.0,133.0,419.5,125.0,427.5,117.5,435.5,110.0,443.5,103.0,451.5,96.0,459.0,89.0,467.5,82.0,475.5,75.0,484.0,67.5,492.5,60.0,501.0,53.0,509.0,45.5" stroke="black" stroke-width="2" fill="none" />
<polyline points="515.0,43.5,507.5,51.0,499.0,58.0,491.0,65.5,483.0,73.0,474.5,80.5,467.0,88.0,459.0,95.5,451.5,103.0,443.5,110.0,435.0,118.0,427.5,125.5,420.0,133.0,412.5,140.5,404.5,147.5,396.5,155.5,388.5,163.0,381.0,170.5" stroke="black" stroke-width="2" fill="none" />
<polyline points="395.0,172.0,403.0,164.5,411.0,156.5,419.0,149.0,427.0,141.5,435.5,134.0,443.5,126.5,451.0,119.5,458.5,112.0,466.5,104.0,474.0,96.5,481.5,89.0,489.5,82.5,497.0,75.5,505.0,68.0,513.0,61.0" stroke="black" stroke-width="2" fill="none" />
<polyline points="513.5,67.5,505.5,75.0,497.5,82.5,490.0,90.0,482.0,97.5,475.0,104.5,467.0,112.0,459.5,120.0,452.0,127.5,444.5,135.0,436.5,142.5,428.5,149.5,420.0,157.0,412.0,164.5,403.5,172.0" stroke="black" stroke-width="2" fill="none" />
<polyline points="403.5,169.5,395.5,169.5" stroke="black" stroke-width="2" fill="none" />
<polyline points="386.0,171.5,394.0,164.0,402.5,156.5,411.0,148.5,419.0,141.0,427.0,133.5,435.0,126.5,443.0,119.0,451.0,111.0,459.0,103.5,467.0,95.5,475.0,87.5,482.5,80.5,490.5,73.5,498.5,66.0,507.0,58.0,515.5,51.0" stroke="black" stroke-width="2" fill="none" />
<polyline points="425.5,67.5,418.0,75.0,411.0,82.5,403.5,90.5,396.0,98.0,388.5,105.0,380.5,112.0,372.5,119.5,364.5,126.5,356.5,133.5,349.0,140.5,341.0,148.0,332.5,156.0,324.5,164.0,316.5,172.0,308.5,180.0,301.0,188.0,292.5,195.5,284.5,203.5,276.0,211.5,268.0,218.5,260.0,226.0,251.5,233.5,243.5,240.5" stroke="black" stroke-width="2" fill="none" />
<polyline points="244.0,238.0,252.5,237.5,260.5,237.0,268.0,236.5,276.0,236.0,284.0,235.5,291.5,235.0" stroke="black" stroke-width="2" fill="none" />
<polyline points="282.5,247.5,274.5,247.5,267.0,247.5,259.0,248.0,251.0,248.0,243.0,248.5" stroke="black" stroke-width="2" fill="none" />
<polyline points="244.5,244.0,252.5,243.5,260.0,242.5,267.5,242.0,274.5,240.5,282.0,239.5,289.5,238.5" stroke="black" stroke-width="2" fill="none" />
<polyline points="275.0,253.5,267.5,254.0,259.5,254.5,251.5,255.0,243.5,255.0" stroke="black" stroke-width="2" fill="none" />
<polyline points="242.5,259.5,250.5,259.0,258.5,259.0,266.5,258.5,274.0,258.0" stroke="black" stroke-width="2" fill="none" />
<polyline points="284.5,279.0,292.5,278.5,300.5,278.0,308.0,277.0,315.0,276.5,323.0,276.5,330.5,275.5,338.5,274.5,347.0,273.5,355.5,273.0,363.5,272.5,371.5,272.0,379.5,271.5,387.5,270.5,395.5,269.0,403.5,268.5,411.0,268.0,418.5,267.5,426.0,267.0,434.5,266.5,442.5,266.0,450.5,266.0,459.0,265.5,467.0,265.0,475.0,265.0,483.0,265.5,491.5,265.0,499.5,265.0,507.5,265.0,515.5,265.0" stroke="black" stroke-width="2" fill="none" />
<polyline points="514.0,191.5,506.0,191.5,498.0,191.5,490.5,191.5,483.0,191.0,475.5,191.0,467.0,192.0,458.5,192.5,450.0,193.5,441.5,194.5,433.0,195.0,425.5,195.5,417.5,196.0,409.0,196.0,401.5,196.0,393.5,196.5" stroke="black" stroke-width="2" fill="none" />
<polyline points="400.5,198.5,392.5,199.5,384.5,204.5,379.5,208.5,373.5,209.5,364.0,221.5,371.0,217.0,374.5,209.0,380.0,207.5,387.0,202.5,387.0,207.5" stroke="black" stroke-width="2" fill="none" />
<polyline points="378.5,206.0,386.0,205.5,394.0,204.0,402.0,203.0,410.5,202.0,418.5,201.0,427.0,201.0,434.5,201.0,442.5,201.0,451.0,200.5,459.0,200.0,467.0,199.0,475.0,198.5,483.5,197.5,491.5,197.0,499.5,197.0,508.0,197.0,516.5,196.5" stroke="black" stroke-width="2" fill="none" />
<polyline points="517.0,217.0,508.5,217.0,500.0,217.5,491.5,217.0,482.5,217.5,473.5,217.5,465.5,217.5,457.5,217.5,449.5,218.0,441.5,219.0,434.0,220.0,426.5,221.5,418.5,222.0,411.0,223.5,403.5,224.5,395.5,225.5,386.5,226.5,378.5,227.5" stroke="black" stroke-width="2" fill="none" />
<polyline points="369.5,218.5,361.0,226.0" stroke="black" stroke-width="2" fill="none" />
<polyline points="363.0,220.5,371.0,220.0,380.0,220.5,388.5,220.5,396.5,220.5,404.5,220.0,412.5,219.5,420.5,218.5,428.5,217.5,436.5,216.5,444.5,216.0,452.5,215.5,461.0,215.0,469.0,214.5,476.5,214.5,485.0,214.0,492.5,213.5,499.5,213.5,507.5,213.0,515.5,212.5" stroke="black" stroke-width="2" fill="none" />
<polyline points="515.0,204.0,507.5,205.0,500.0,205.5,492.5,205.5,484.5,206.5,476.0,207.0,468.0,207.0,460.0,207.0,452.0,207.5,444.0,208.0,436.0,208.5,428.0,209.0,420.0,209.5,412.5,210.0,403.5,211.0,394.5,212.0,386.0,212.5,378.0,213.5,370.0,214.5" stroke="black" stroke-width="2" fill="none" />
<polyline points="355.0,210.5,347.0,217.5" stroke="black" stroke-width="2" fill="none" />
<polyline points="340.0,215.5,331.0,215.0,323.0,215.5,315.0,216.5,307.0,217.5,299.0,218.0,291.0,219.0,283.0,219.5,275.0,220.0,267.0,220.0,259.0,220.5,251.5,220.5,244.0,221.0" stroke="black" stroke-width="2" fill="none" />
<polyline points="243.5,218.5,251.0,210.5,258.5,203.0,267.0,195.5,275.0,187.5,283.5,180.5,292.0,173.0,301.0,165.0,309.5,157.5,317.5,150.0,326.0,143.0,333.5,136.0,340.5,128.0,348.0,121.0,356.5,113.5,364.5,105.5,373.0,98.0,381.0,90.5,389.0,83.5,397.0,76.0" stroke="black" stroke-width="2" fill="none" />
<polyline points="402.5,74.5,395.0,82.0,387.5,89.0,379.5,96.5,371.5,104.0,363.0,112.0,355.0,119.5,347.0,128.0,339.0,136.0,330.0,143.5,322.0,151.0,314.0,158.0,306.5,165.0,298.0,172.5,290.5,180.0,282.5,187.5,274.0,195.0,266.0,202.0,258.0,209.5,250.5,217.0,242.5,224.5" stroke="black" stroke-width="2" fill="none" />
<polyline points="242.5,224.0,250.5,223.5,258.5,223.0,267.0,222.5,275.5,222.5,283.5,222.0,291.0,221.5,298.5,221.5,306.0,221.5,313.5,221.5,322.0,221.5,330.0,220.5,338.0,219.5" stroke="black" stroke-width="2" fill="none" />
<polyline points="338.0,223.0,330.0,224.5,322.5,225.0,314.5,225.5,306.5,225.5,299.0,226.0,291.0,227.0,283.5,227.5,275.5,228.0,268.0,227.5,260.5,227.5,252.5,228.0,244.5,228.0" stroke="black" stroke-width="2" fill="none" />
<polyline points="245.0,232.0,253.0,231.5,261.0,231.5,268.5,231.0,276.5,231.0,284.0,231.0,292.0,231.0,299.0,230.5,307.0,230.5,315.0,230.5,322.5,230.5,330.5,229.5,339.5,228.5" stroke="black" stroke-width="2" fill="none" />
<polyline points="340.5,225.0,332.5,233.0" stroke="black" stroke-width="2" fill="none" />
<polyline points="331.5,242.5,323.0,250.0" stroke="black" stroke-width="2" fill="none" />
<polyline points="323.5,253.0,332.0,252.5,340.0,252.0,348.0,251.0,355.5,249.5,363.0,249.0,371.5,248.5,380.0,247.5,388.0,247.0,396.0,246.5,403.5,246.0,411.5,245.5,419.0,245.5,426.5,245.5,434.0,246.0,441.5,246.0,449.5,246.0,458.0,245.0,466.0,244.5,474.0,244.5,482.0,244.0,490.0,243.5,498.5,242.0,507.0,241.5,515.0,241.0" stroke="black" stroke-width="2" fill="none" />
<polyline points="460.0,235.0,452.0,235.5,444.0,236.0,437.0,236.5,429.0,237.0,420.5,237.5,413.0,239.0,405.0,239.5,396.5,240.0,388.5,241.0,380.5,241.0,372.0,241.5,363.5,241.5,355.0,242.5,347.0,243.0" stroke="black" stroke-width="2" fill="none" />
<polyline points="347.5,238.0,355.5,237.5,363.5,237.5,372.0,237.0,380.5,236.0,388.5,235.5,396.5,235.0,404.5,234.0,412.0,233.5,419.5,233.0,428.0,232.5,436.0,231.5,443.5,231.5,451.0,231.0,459.0,231.0" stroke="black" stroke-width="2" fill="none" />
<polyline points="436.0,249.5,444.0,249.5,452.0,249.5,459.5,248.0,467.5,248.0,475.5,248.0,483.5,248.0,491.5,247.0,499.5,247.0,507.5,247.0" stroke="black" stroke-width="2" fill="none" />
<polyline points="514.5,237.5,506.0,238.0,497.0,239.5,489.0,239.5,481.0,240.5,474.0,240.5,467.0,241.0,460.0,241.5,452.5,242.0,444.5,242.5,436.5,243.0,428.5,243.5,420.5,243.5,412.5,243.5,404.5,244.0,397.0,245.0,389.0,245.5,380.0,246.0,372.0,247.0,364.0,247.5,356.0,248.0,347.5,248.5,339.5,249.5,331.5,250.5" stroke="black" stroke-width="2" fill="none" />
<polyline points="323.5,245.5,331.5,245.0,339.5,244.0,347.5,243.5,355.5,243.0,364.0,243.0,371.5,242.5,379.0,242.0,386.5,241.5,394.0,241.0,402.0,239.5,410.0,239.0,418.0,238.5,426.5,238.0,435.0,237.5,443.0,237.0,450.5,236.5,458.5,236.5,466.5,236.5,474.5,236.0,482.0,235.5,490.5,234.5,498.0,234.0,506.5,233.5,514.5,232.5" stroke="black" stroke-width="2" fill="none" />
<polyline points="514.0,251.5,506.0,252.0,498.0,252.0,490.0,252.5,482.0,253.0,474.5,253.5,466.5,254.0,458.5,254.5,450.5,255.5,442.5,257.0,435.0,257.5,427.5,258.0,420.0,258.5,412.0,259.0,403.5,260.0,395.5,260.5,387.5,261.0,379.5,261.5,372.0,262.0,364.5,262.5,355.5,263.0,347.5,263.5,339.0,264.5,331.0,265.0,322.5,265.0" stroke="black" stroke-width="2" fill="none" />
<polyline points="322.5,256.5,330.5,249.0,338.5,241.5" stroke="black" stroke-width="2" fill="none" />
<polyline points="349.5,234.0,357.0,234.0,365.0,233.0,373.0,233.5,381.0,233.5,389.5,233.0,397.5,233.0,406.0,233.5,414.0,233.5,422.5,236.0,431.0,236.0,438.5,236.0,446.5,235.5,454.0,235.5,462.5,235.5,470.5,236.0,478.5,237.0,486.5,236.5,495.0,236.5,503.0,236.5,510.5,237.5" stroke="black" stroke-width="2" fill="none" />
<polyline points="513.5,244.5,506.0,245.0,498.0,245.5,489.5,246.5,481.5,247.0,473.5,247.5,465.5,248.0,458.5,248.0,451.5,248.0,443.5,248.0,435.5,248.5,427.5,249.5,419.5,250.5,411.0,251.5,403.0,252.5,395.5,252.5,387.5,252.5,380.0,252.5,372.0,253.5,364.0,254.0,356.0,254.5,348.0,255.0,340.0,255.0,331.5,255.0,323.0,255.5" stroke="black" stroke-width="2" fill="none" />
<polyline points="317.0,257.0,309.5,264.5" stroke="black" stroke-width="2" fill="none" />
<polyline points="308.5,260.0,317.0,259.5,324.0,259.0,332.0,258.5,340.0,259.0,347.5,259.0,355.5,258.5,364.0,258.0,372.5,257.5,380.0,256.5,387.5,256.0,395.5,255.5,403.5,254.5,411.5,254.0,419.0,253.5,427.0,253.0,435.0,253.0,442.5,252.5,450.5,252.5,459.0,251.5,467.5,251.5,475.5,251.0,483.5,250.5,491.5,250.0,499.5,249.0,507.0,248.0,514.5,247.0" stroke="black" stroke-width="2" fill="none" />
<polyline points="514.5,261.0,507.0,261.5,500.0,262.0,492.5,261.5,484.0,261.5,476.5,262.5,468.0,262.5,460.0,263.5,451.5,264.0,442.5,264.5,434.0,265.0,426.5,265.5,418.5,266.0,410.5,266.5,402.0,267.0,394.0,267.5,386.0,268.0,378.5,268.5,371.0,269.0,363.5,270.0,356.0,271.0,348.0,271.5,340.5,272.0,332.5,273.0,324.0,273.5,316.0,274.0" stroke="black" stroke-width="2" fill="none" />
<polyline points="316.5,291.5,308.0,299.0,300.0,306.5" stroke="black" stroke-width="2" fill="none" />
<polyline points="314.5,305.5,322.5,297.5,330.5,290.0" stroke="black" stroke-width="2" fill="none" />
<polyline points="322.5,291.5,315.0,299.0,307.5,306.5" stroke="black" stroke-width="2" fill="none" />
<polyline points="315.5,297.0,323.0,296.0,331.0,296.0,338.5,295.5,346.5,294.5,354.0,293.5,362.5,293.0,370.0,293.0,378.0,293.0" stroke="black" stroke-width="2" fill="none" />
<polyline points="356.0,290.0,347.5,298.0,339.0,306.0" stroke="black" stroke-width="2" fill="none" />
<polyline points="339.5,291.0,331.5,299.0,323.0,307.0" stroke="black" stroke-width="2" fill="none" />
<polyline points="306.5,292.0,299.0,299.0,291.0,306.5" stroke="black" stroke-width="2" fill="none" />
<polyline points="283.5,306.5,291.5,299.0,300.0,291.5" stroke="black" stroke-width="2" fill="none" />
<polyline points="310.5,283.0,302.5,283.0,294.5,283.0,286.5,283.0" stroke="black" stroke-width="2" fill="none" />
<polyline points="284.5,282.5,292.5,275.5" stroke="black" stroke-width="2" fill="none" />
<polyline points="284.5,282.0,292.5,281.5,300.0,280.5,308.0,280.0,316.0,279.0,323.5,277.5,331.5,277.5,340.0,277.5,348.0,278.0,356.5,278.0,364.0,277.5,372.0,277.0,379.5,276.0,387.0,274.5,395.0,273.5,402.5,273.0,410.5,272.0,418.5,271.5,426.5,270.5,434.5,270.5,443.0,270.0,450.5,270.0,458.0,269.5,466.0,269.5,474.5,269.0,482.5,269.0,491.0,268.0,500.0,267.5,508.0,267.0,516.5,266.5" stroke="black" stroke-width="2" fill="none" />
<polyline points="458.0,243.5,450.0,246.5,441.5,247.0,433.5,247.0" stroke="black" stroke-width="2" fill="none" />
<polyline points="394.5,285.5,386.5,286.0,379.0,286.5,372.0,287.0,364.0,287.5,356.5,288.0,348.5,289.0,340.0,290.0,332.0,290.5,324.0,291.0,316.5,291.5,308.0,292.5,300.5,293.0,293.0,293.0,285.5,293.5,277.5,294.5" stroke="black" stroke-width="2" fill="none" />
<polyline points="275.5,298.0,267.5,306.0" stroke="black" stroke-width="2" fill="none" />
<polyline points="273.0,308.0,281.0,301.0" stroke="black" stroke-width="2" fill="none" />
<polyline points="267.5,299.5,259.5,307.0" stroke="black" stroke-width="2" fill="none" />
<polyline points="257.5,300.5,249.5,308.0" stroke="black" stroke-width="2" fill="none" />
<polyline points="242.0,305.0,249.5,298.0" stroke="black" stroke-width="2" fill="none" />
<polyline points="244.0,297.5,236.0,305.0" stroke="black" stroke-width="2" fill="none" />
<polyline points="243.0,292.0,235.5,293.5,227.5,294.5,219.5,295.0" stroke="black" stroke-width="2" fill="none" />
<polyline points="218.0,286.0,226.5,285.5,235.5,284.5,243.5,284.0" stroke="black" stroke-width="2" fill="none" />
<polyline points="243.0,275.0,235.0,275.5,227.0,276.0,219.0,276.5" stroke="black" stroke-width="2" fill="none" />
<polyline points="218.5,268.5,226.5,268.0,234.0,268.0" stroke="black" stroke-width="2" fill="none" />
<polyline points="235.5,260.0,227.0,260.5,219.0,261.0" stroke="black" stroke-width="2" fill="none" />
<polyline points="219.0,252.5,227.0,252.0,235.0,252.0" stroke="black" stroke-width="2" fill="none" />
<polyline points="234.0,245.0,226.5,245.5,218.5,246.0" stroke="black" stroke-width="2" fill="none" />
<polyline points="219.5,237.5,227.0,237.0,235.0,237.0" stroke="black" stroke-width="2" fill="none" />
<polyline points="245.0,232.0,252.5,224.0,260.5,217.0,269.0,209.5,276.5,202.5,284.0,195.0,291.5,187.5,299.0,180.0,307.0,172.5,315.0,165.0,323.0,157.5,330.5,150.0,338.5,142.5,347.0,135.0,355.0,127.5,363.0,120.0,371.5,113.0,379.0,105.5,386.5,98.0,394.5,90.5,402.0,82.5,410.0,74.5,418.0,67.0" stroke="black" stroke-width="2" fill="none" />
<polyline points="410.5,57.5,418.5,49.5" stroke="black" stroke-width="2" fill="none" />
<polyline points="389.0,75.0,381.0,82.5,372.0,90.0,364.0,97.0,356.0,104.0,347.5,111.5,339.5,119.0,330.5,127.0,322.0,135.0,314.5,143.0,307.0,151.0,298.5,158.5,290.0,166.0,282.5,173.5,274.5,180.5,267.0,188.0,259.5,195.5,252.0,203.0,244.0,210.5" stroke="black" stroke-width="2" fill="none" />
<polyline points="243.0,213.0,251.0,212.5,259.0,212.0,267.0,211.5,275.0,210.5,283.5,210.5,291.5,210.5,299.5,210.0,307.5,210.0,315.0,210.0,323.0,210.0,331.0,209.5,339.5,208.5,348.0,208.5,356.5,208.0" stroke="black" stroke-width="2" fill="none" />
<polyline points="354.5,203.0,346.0,210.5,338.5,218.0,330.5,226.0,322.5,234.0" stroke="black" stroke-width="2" fill="none" />
<polyline points="315.5,233.5,323.0,226.0,331.0,218.5,339.0,211.0,346.5,204.0,354.5,196.5" stroke="black" stroke-width="2" fill="none" />
<polyline points="354.5,200.5,346.0,200.5" stroke="black" stroke-width="2" fill="none" />
<polyline points="356.5,199.0,348.0,200.0,339.5,200.5,331.5,200.5,323.5,201.0,315.0,202.0,307.0,202.0,299.0,202.0,291.5,202.0,283.5,203.0,275.0,203.0,266.0,204.0,258.0,205.0,250.0,205.5,242.0,206.0" stroke="black" stroke-width="2" fill="none" />
<polyline points="243.0,204.0,251.5,197.0,259.5,190.0,268.0,182.5,276.5,175.0,285.0,168.0,293.0,160.5,301.0,153.0,308.0,145.0,316.0,137.0,324.0,129.0,331.5,121.0,338.5,113.5,346.5,105.5,354.5,97.5,362.5,90.0,370.5,82.0" stroke="black" stroke-width="2" fill="none" />
<polyline points="363.0,81.0,355.0,88.5" stroke="black" stroke-width="2" fill="none" />
<polyline points="354.5,85.0,346.5,92.5,338.5,100.0,330.5,108.0,323.0,115.5,315.5,122.5,307.0,130.0,298.5,137.0,290.5,144.0,282.5,151.0,274.5,158.5,266.5,166.0,258.0,173.5,250.0,181.5,243.0,189.0" stroke="black" stroke-width="2" fill="none" />
<polyline points="243.0,181.5,251.5,173.5,259.0,166.0,267.0,158.5,275.0,151.0,283.0,143.0,291.0,135.0,299.5,127.5,307.5,120.0,315.0,113.0,323.0,105.5,331.0,98.0,339.0,90.5" stroke="black" stroke-width="2" fill="none" />
<polyline points="332.0,91.0,324.0,98.5,316.0,105.0,308.0,112.5,300.0,120.5,291.5,128.0,283.5,135.5,275.0,143.0,267.0,150.5,258.5,158.0,250.5,165.5,242.5,173.5" stroke="black" stroke-width="2" fill="none" />
<polyline points="242.0,171.5,250.0,170.5,258.5,170.5,266.5,170.5,275.0,171.0,283.5,171.0,291.5,170.5,299.5,170.5,307.0,170.0,315.0,169.0,322.5,168.0,331.0,168.0,339.0,167.5,347.5,166.5,355.5,166.0,364.5,165.5,372.0,165.0,379.5,164.5,387.5,164.0,395.5,163.5,403.5,163.0,412.0,162.0,420.0,161.5,427.5,161.0,435.0,160.5,442.5,160.0,450.5,158.5,458.5,157.5,466.5,157.0,474.5,156.5,482.0,156.0,490.0,155.5,498.0,155.0,506.0,155.0,514.0,154.5" stroke="black" stroke-width="2" fill="none" />
<polyline points="513.5,147.5,506.0,148.0,498.0,148.5,489.5,149.5,481.5,150.0,473.5,150.5,465.5,151.0,458.5,151.0,451.5,151.0,443.5,151.0,435.5,151.5,427.5,152.5,419.5,153.5,411.0,154.5,403.0,155.5,395.5,155.5,387.5,155.5,380.0,155.5,372.0,156.5,364.0,157.0,356.0,157.5,348.0,158.0,340.0,158.0,331.5,158.0,323.0,158.5,315.5,159.0,307.5,160.0,299.5,161.0,291.5,161.5,283.5,162.0,275.5,162.5,267.5,162.5,259.5,163.5,252.0,164.0,244.0,165.0" stroke="black" stroke-width="2" fill="none" />
<polyline points="243.5,167.0,251.0,159.5,259.0,152.5,267.0,145.0,275.5,137.0,284.5,129.0,292.5,121.0,300.0,113.5,307.5,105.5,315.5,98.0,323.5,90.0,331.5,82.5" stroke="black" stroke-width="2" fill="none" />
<polyline points="316.0,91.0,308.0,98.0,300.0,105.5,292.0,113.0,284.5,120.5,276.5,128.5,269.0,136.0,261.0,143.5,253.0,151.0,245.0,158.5" stroke="black" stroke-width="2" fill="none" />
<polyline points="242.5,156.5,250.5,156.5,259.0,156.0,267.5,155.5,275.5,154.5,284.0,154.0,292.5,153.5,300.5,153.0,308.5,152.5,316.0,152.0,323.5,152.0,332.0,151.5,340.0,151.0,348.0,150.0,355.5,148.5,363.0,148.0,371.5,147.5,380.0,146.5,388.0,146.0,396.0,145.5,403.5,145.0,411.5,144.5,419.0,144.5,426.5,144.5,434.0,145.0,441.5,145.0,449.5,145.0,458.0,144.0,466.0,143.5,474.0,143.5,482.0,143.0,490.0,142.5,498.5,141.0,507.0,140.5,515.0,140.0" stroke="black" stroke-width="2" fill="none" />
<polyline points="514.5,131.5,506.5,132.5,498.0,133.0,490.5,133.5,482.0,134.5,474.5,135.0,466.5,135.5,458.5,135.5,450.5,135.5,443.0,136.0,435.0,136.5,426.5,137.0,418.0,137.5,410.0,138.0,402.0,138.5,394.0,140.0,386.5,140.5,379.0,141.0,371.5,141.5,364.0,142.0,355.5,142.0,347.5,142.5,339.5,143.0,331.5,144.0,323.5,144.5,316.0,145.0,308.5,145.5,300.5,146.5,292.0,147.0,284.0,147.5,275.5,148.5,267.5,149.0,259.5,149.5,251.0,149.5,243.5,150.0" stroke="black" stroke-width="2" fill="none" />
<polyline points="242.5,150.5,250.5,143.5,258.5,136.5,267.0,129.0,275.5,122.0,283.5,115.0,292.0,108.0" stroke="black" stroke-width="2" fill="none" />
<polyline points="282.5,107.0,274.5,114.5,266.0,122.5,258.0,130.0,250.5,137.5,242.5,145.0" stroke="black" stroke-width="2" fill="none" />
<polyline points="240.5,143.5,248.5,143.5,257.0,142.5,265.0,141.0,273.5,140.0,282.0,139.0,290.5,138.0,298.5,137.5,307.0,137.0,315.0,136.5,323.5,136.0,331.0,135.0,339.0,135.0,346.5,134.5,354.5,133.5,362.0,132.5,370.5,132.0,378.0,132.0,386.0,132.0,394.0,131.5,402.0,131.5,410.0,130.5,417.5,130.0,425.5,129.5,433.0,128.5,441.0,128.0,449.5,128.0,458.5,127.5,467.0,127.0,475.5,127.0,484.0,126.0,491.0,126.0,498.5,125.5,506.0,125.5,514.0,124.5" stroke="black" stroke-width="2" fill="none" />
<polyline points="515.0,116.5,508.0,117.0,500.5,116.5,492.0,116.5,484.5,117.5,476.0,117.5,468.0,118.5,459.5,119.0,450.5,119.5,442.0,120.0,434.5,120.5,426.5,121.0,418.5,121.5,410.0,122.0,402.0,122.5,394.0,123.0,386.5,123.5,379.0,124.0,371.5,125.0,364.0,126.0,356.0,126.5,348.5,127.0,340.5,128.0,332.0,128.5,324.0,129.0,316.5,129.0,309.0,130.0,300.5,130.0,292.0,130.0,284.0,131.0,275.5,131.5,267.5,132.5,259.5,133.5,250.5,134.5,242.0,135.5" stroke="black" stroke-width="2" fill="none" />
<polyline points="243.5,136.0,251.0,128.5,259.0,121.5,267.0,114.0,275.5,106.5,283.5,99.0" stroke="black" stroke-width="2" fill="none" />
<polyline points="274.5,99.0,266.0,106.5,258.5,114.0,251.0,121.0,243.0,128.5" stroke="black" stroke-width="2" fill="none" />
<polyline points="242.5,126.5,250.5,126.0,259.0,125.5,267.5,125.0,276.0,125.0,284.0,124.5,292.0,124.0,300.0,123.0,308.0,122.0,315.5,121.5,323.5,120.5,331.0,120.0,339.5,119.5,347.0,119.0,355.0,118.0,363.0,117.0,370.0,117.0,377.5,116.5,385.5,116.0,393.5,115.5,401.0,114.5,409.0,114.0,418.0,113.0,426.5,112.0,435.5,111.0,444.5,110.0,452.0,110.5,460.0,110.5,468.0,110.5,476.0,110.0,484.0,110.0,492.0,109.0,501.0,108.0,509.0,107.5,517.0,107.0" stroke="black" stroke-width="2" fill="none" />
<polyline points="515.0,99.0,507.5,100.0,499.5,101.0,491.5,101.5,483.5,102.0,475.5,102.5,467.0,102.5,458.5,103.5,450.5,103.5,443.0,104.0,435.0,104.0,427.0,104.5,419.5,105.0,411.5,105.5,403.5,106.5,395.5,107.0,388.0,107.5,380.5,108.5,372.0,109.0,363.5,109.5,355.5,110.0,348.0,110.0,340.0,109.5,332.0,110.0,325.0,110.5,316.5,111.0,308.5,111.5,300.5,112.0,292.5,112.5,284.0,113.0,276.0,113.5,267.5,114.0,259.5,114.5,251.5,115.0,243.0,115.0,235.0,115.5" stroke="black" stroke-width="2" fill="none" />
<polyline points="235.0,121.0,243.0,112.5,251.0,105.0" stroke="black" stroke-width="2" fill="none" />
<polyline points="258.5,108.5,251.0,115.5,243.0,123.5" stroke="black" stroke-width="2" fill="none" />
<polyline points="227.0,110.0,219.5,117.0" stroke="black" stroke-width="2" fill="none" />
<polyline points="219.5,121.0,218.5,129.0,219.0,137.5,220.0,149.0,226.5,157.0,226.5,165.5,221.5,173.5,219.0,181.0,218.5,189.0,218.5,197.0,218.5,205.0,218.5,213.0,219.0,221.5,218.0,229.5,218.0,237.5,219.0,245.5,218.0,253.5,219.0,261.5,218.5,269.5,218.5,277.5,217.0,285.5,217.0,293.5,210.0,301.5,201.0,306.5,209.0,302.5" stroke="black" stroke-width="2" fill="none" />
<polyline points="211.5,301.5,219.5,301.0,228.0,301.0,236.0,300.5,243.5,299.5,251.0,298.5,258.5,298.0,266.0,298.0,274.0,297.5,282.0,297.0,290.0,296.5,298.0,296.5,305.5,296.0,313.5,295.0,321.0,294.0,329.5,293.5,337.5,293.0,345.5,292.0,354.0,291.5,362.0,291.0" stroke="black" stroke-width="2" fill="none" />
<polyline points="342.5,248.0,334.5,248.0,326.0,248.0,317.5,248.0" stroke="black" stroke-width="2" fill="none" />
<polyline points="319.5,249.0,319.5,257.0,319.5,265.0,319.5,273.0,319.5,281.0" stroke="black" stroke-width="2" fill="none" />
<polyline points="309.0,263.0,301.0,274.0,293.0,279.0,284.0,280.0,292.0,278.5,303.5,270.5,308.5,263.0,312.5,255.0,313.5,247.5,313.0,243.5" stroke="black" stroke-width="2" fill="none" />
<polyline points="317.0,245.5,317.0,253.5,318.0,262.0,317.5,270.0,317.5,277.5,322.5,284.5,330.0,284.5,338.0,284.5,346.0,284.0,354.0,284.0,362.0,284.0,370.0,283.0,378.5,283.0,386.0,284.0,394.0,284.0,402.0,283.0,410.0,283.0,417.5,282.5,425.5,282.5,433.5,283.5,441.5,283.5,449.5,282.5,457.0,283.0,465.5,283.5,474.0,283.5,482.5,283.5,490.5,284.0,498.5,284.0,506.5,284.0" stroke="black" stroke-width="2" fill="none" />
<polyline points="368.5,227.0,360.0,224.0,352.0,222.5,344.0,222.5,338.0,231.0,330.5,236.0,322.5,237.0,314.5,237.0,306.5,235.0,298.5,236.0,290.5,240.5,282.5,247.5,274.5,260.0,266.5,261.0,258.5,261.0,250.5,261.0,242.5,263.5" stroke="black" stroke-width="2" fill="none" />
<polyline points="235.5,228.0,228.0,228.5,220.5,228.5" stroke="black" stroke-width="2" fill="none" />
<polyline points="219.0,222.5,227.0,222.0,235.0,221.5" stroke="black" stroke-width="2" fill="none" />
<polyline points="252.0,217.0,260.0,216.5,268.0,216.5,276.5,216.0,284.5,215.5,292.5,215.0,301.0,215.0,309.5,215.0,317.5,214.5,325.5,214.0,334.0,213.0,341.5,213.0,348.5,212.0,356.0,211.0" stroke="black" stroke-width="2" fill="none" />
<polyline points="351.5,210.5,359.5,220.5,368.0,217.5" stroke="black" stroke-width="2" fill="none" />
<polyline points="357.0,204.5,349.0,205.5,341.0,205.5,333.5,206.0,325.5,206.5,317.5,207.0,309.5,208.0,301.0,208.5,293.0,209.0,284.5,209.0,275.5,209.0,267.0,209.5" stroke="black" stroke-width="2" fill="none" />
<polyline points="276.5,200.5,284.5,200.0,292.5,199.5,300.5,198.5" stroke="black" stroke-width="2" fill="none" />
<polyline points="308.5,200.5,316.5,200.0,324.0,199.0,332.0,198.5" stroke="black" stroke-width="2" fill="none" />
<polyline points="355.0,191.0,347.0,191.0,339.0,191.0,330.5,191.5,322.0,191.5,314.0,192.0,306.0,192.5,297.5,193.0,289.5,194.0,281.5,194.5,273.0,195.0,265.5,196.0,257.5,197.0,250.0,197.5,242.0,197.5" stroke="black" stroke-width="2" fill="none" />
<polyline points="242.0,198.0,250.0,191.0,258.0,184.0,266.5,176.5,274.5,168.5,282.0,161.0,290.0,153.5,298.0,146.5,305.5,139.0,314.0,131.0,323.0,122.5,331.5,114.5,339.5,107.0,347.5,99.0" stroke="black" stroke-width="2" fill="none" />
<polyline points="356.0,174.5,348.0,175.0,339.5,175.5,331.5,176.5,323.5,177.5,315.5,178.0,307.0,178.5,298.5,179.0,290.0,179.0,281.5,179.0,273.0,179.0,265.0,179.5,257.0,179.5,249.5,180.0,241.5,180.5" stroke="black" stroke-width="2" fill="none" />
<polyline points="235.0,189.5,243.0,189.0,251.0,189.0,259.5,188.5,267.5,188.0,275.0,187.0,284.0,186.0,292.0,185.5,300.5,185.0,309.0,184.5,317.0,184.0,325.0,183.5,333.0,183.0,341.0,183.0,349.0,182.0,356.5,181.5" stroke="black" stroke-width="2" fill="none" />
<polyline points="358.0,181.0,351.5,189.0,349.0,197.0,349.0,205.5,351.0,213.5,356.0,223.0,366.5,230.0,375.0,231.5,383.5,231.5,392.0,231.5,400.0,232.5,408.0,232.5,416.0,232.5,423.5,238.0,431.5,238.0,439.5,239.0,447.5,239.0,455.5,240.0" stroke="black" stroke-width="2" fill="none" />
<polyline points="408.0,298.5,400.0,297.5,392.0,296.5,384.0,296.5,376.0,295.5,368.5,295.5,360.5,296.5,352.0,296.0,344.0,296.0,335.5,296.0,328.0,296.0,320.0,296.5,311.5,297.0,303.5,297.0,295.5,298.0,287.5,298.0,279.5,297.5,272.0,298.0,264.0,299.0,256.0,299.0,247.5,299.0,238.5,300.0,230.5,304.0,222.5,306.0,214.5,306.5,206.5,309.0,198.5,307.5" stroke="black" stroke-width="2" fill="none" />
<polyline points="208.5,308.0,216.5,309.5,224.0,309.5,232.0,309.5,240.0,309.0,248.5,309.0,256.5,308.0,265.0,308.0,273.5,308.0,282.0,308.5,290.0,308.5,297.5,307.5,305.5,307.5,313.5,307.5,321.0,306.5,329.0,306.5,336.5,306.0,344.5,306.0,352.0,305.0,360.0,304.5,368.0,305.0,376.0,303.5,384.5,304.0,392.5,304.0,401.0,302.5" stroke="black" stroke-width="2" fill="none" />
<polyline points="351.0,242.0,351.0,234.0" stroke="black" stroke-width="2" fill="none" />
<polyline points="337.5,231.5,340.5,223.5" stroke="black" stroke-width="2" fill="none" />
<polyline points="403.0,215.0,405.5,206.5,406.5,198.0,406.5,191.5,395.5,183.5" stroke="black" stroke-width="2" fill="none" />
<polyline points="259.0,209.5,250.5,209.5" stroke="black" stroke-width="2" fill="none" />
<polyline points="234.0,213.5,226.5,214.0,218.5,214.0" stroke="black" stroke-width="2" fill="none" />
<polyline points="218.0,206.0,226.5,205.0,234.5,205.0" stroke="black" stroke-width="2" fill="none" />
<polyline points="235.0,195.5,227.5,196.0,220.0,197.0" stroke="black" stroke-width="2" fill="none" />
<polyline points="226.5,192.5,234.5,192.5" stroke="black" stroke-width="2" fill="none" />
<polyline points="236.0,193.0,228.0,193.0" stroke="black" stroke-width="2" fill="none" />
<polyline points="228.0,188.5,220.5,189.0" stroke="black" stroke-width="2" fill="none" />
<polyline points="222.0,180.5,230.0,180.0" stroke="black" stroke-width="2" fill="none" />
<polyline points="228.0,173.0,219.5,173.5" stroke="black" stroke-width="2" fill="none" />
<polyline points="219.0,175.5,227.0,162.5" stroke="black" stroke-width="2" fill="none" />
<polyline points="227.0,149.5,219.0,150.0" stroke="black" stroke-width="2" fill="none" />
<polyline points="218.5,139.5,226.5,139.0" stroke="black" stroke-width="2" fill="none" />
<polyline points="226.5,131.0,218.5,131.5" stroke="black" stroke-width="2" fill="none" />
<polyline points="220.0,125.5,227.5,125.0" stroke="black" stroke-width="2" fill="none" />
<polyline points="227.0,122.5,219.0,123.5" stroke="black" stroke-width="2" fill="none" />
<polyline points="212.0,116.5,219.5,109.5" stroke="black" stroke-width="2" fill="none" />
<polyline points="193.0,115.5,185.0,123.5,178.0,130.0,170.5,137.5,162.5,145.0,154.5,152.5,146.5,160.0,139.0,168.0,131.5,175.5,124.0,183.0,116.0,191.0,107.5,198.0,99.5,205.0,91.0,212.0,82.5,219.5,74.5,226.5,66.5,233.5,58.5,241.0,51.0,248.5" stroke="black" stroke-width="2" fill="none" />
<polyline points="58.5,250.5,66.5,243.0,74.5,236.0,81.5,229.5,89.0,222.5,97.0,215.0,105.0,208.0,113.5,200.0,121.5,192.0,130.0,184.0,138.0,175.5,146.0,167.5,154.0,159.5,162.0,152.0,170.0,144.0,178.0,136.5,186.0,129.0" stroke="black" stroke-width="2" fill="none" />
<polyline points="185.5,115.0,177.5,122.5,170.0,129.5,162.0,137.0,153.5,144.5,145.5,152.5,137.5,160.0,130.0,167.0,122.0,174.5,114.0,182.0,106.5,190.0,98.5,197.5,90.0,205.5,82.0,213.0,74.5,220.5,66.5,228.0,58.5,235.5,50.5,243.0,42.5,250.0" stroke="black" stroke-width="2" fill="none" />
<polyline points="35.0,250.5,43.0,243.0,51.5,235.0,59.0,227.5,67.0,220.5,75.0,213.0,83.5,205.5,91.5,198.0,99.5,190.5,107.5,183.0,115.5,175.0,123.5,168.0,131.5,160.5,139.0,153.0,147.0,145.5,154.5,138.0,162.0,131.5,170.0,124.0" stroke="black" stroke-width="2" fill="none" />
<polyline points="170.0,115.5,162.5,122.5,154.0,130.0,146.5,137.5,138.5,144.5,131.5,151.5,123.5,159.5,115.5,166.5,107.5,174.0,99.5,182.0,91.5,189.0,83.5,197.0,75.0,204.0,67.0,211.5,59.5,219.5,51.5,227.0,43.0,235.0,35.0,242.0,26.5,249.5" stroke="black" stroke-width="2" fill="none" />
<polyline points="19.0,248.0,27.0,241.0,35.5,234.0,43.5,227.0,51.0,219.5,59.0,212.0,66.5,205.0,74.0,197.5,82.5,190.0,90.0,182.5,98.0,175.0,105.5,168.0,114.0,160.5,122.0,152.5,130.0,145.5,138.0,138.5,146.5,130.5,155.0,123.0,164.0,115.0" stroke="black" stroke-width="2" fill="none" />
<polyline points="156.5,114.5,148.0,121.5,140.5,129.5,132.0,138.0,123.0,145.5,114.5,153.0,106.5,161.0,98.5,169.0,90.5,176.0,83.5,183.0,75.5,190.5,67.5,198.0,59.5,205.5,51.5,212.5,43.5,219.5,35.5,226.5,27.5,234.0,19.5,241.5,11.5,249.0" stroke="black" stroke-width="2" fill="none" />
<polyline points="5.0,246.5,13.0,246.0,20.5,245.0,28.0,244.0,36.0,243.5,44.0,243.0,52.0,242.5,60.0,241.5,68.5,241.0,76.5,240.5,84.5,239.5,92.0,239.5,99.5,239.0,107.0,239.0,114.5,238.5,122.0,238.0,130.0,238.5,138.0,238.5,146.5,238.5,154.0,238.0,162.5,237.5,170.5,237.0,178.5,237.0,186.5,236.5,194.0,236.0" stroke="black" stroke-width="2" fill="none" />
<polyline points="155.5,226.0,147.0,226.0" stroke="black" stroke-width="2" fill="none" />
<polyline points="140.5,223.5,132.5,224.5,124.5,225.0" stroke="black" stroke-width="2" fill="none" />
<polyline points="93.0,252.5,100.5,245.0,108.5,237.5,116.5,230.5,124.5,222.5,132.5,215.0,140.0,207.0,148.5,200.0,156.0,192.5,163.5,185.5,171.0,178.5,178.0,171.0,186.0,163.5,193.5,156.0" stroke="black" stroke-width="2" fill="none" />
<polyline points="148.0,115.0,140.0,122.0,133.0,129.0,125.0,136.5,117.0,144.0,109.0,152.0,100.5,159.5,92.0,167.5,83.0,175.5,74.0,184.0,65.5,191.5,57.5,199.0,50.0,206.5,42.0,213.5,34.5,220.0,27.0,227.5,19.5,234.5,12.5,242.0,4.5,249.5" stroke="black" stroke-width="2" fill="none" />
<polyline points="4.0,250.0,12.0,249.0,20.0,248.5,28.0,248.0,36.0,247.0,43.0,246.5,51.0,246.0,59.0,245.5,66.5,245.5,75.0,245.0,83.5,244.5,91.0,244.0,99.0,244.0,107.0,244.0,115.5,243.5,124.0,243.0,132.0,242.0,139.5,241.5,147.0,240.5,155.0,240.5,162.5,239.5,171.0,239.5,179.0,239.0,187.0,238.0,195.0,237.5" stroke="black" stroke-width="2" fill="none" />
<polyline points="99.0,298.0,90.5,306.0" stroke="black" stroke-width="2" fill="none" />
<polyline points="89.5,300.0,81.0,307.5" stroke="black" stroke-width="2" fill="none" />
<polyline points="75.5,304.5,83.0,297.5" stroke="black" stroke-width="2" fill="none" />
<polyline points="75.5,298.0,67.5,306.0,59.0,314.0,51.0,322.0" stroke="black" stroke-width="2" fill="none" />
<polyline points="45.0,320.0,52.5,312.0,60.0,304.5,67.5,297.0" stroke="black" stroke-width="2" fill="none" />
<polyline points="59.0,298.0,51.0,306.0,43.5,313.5,36.0,320.5" stroke="black" stroke-width="2" fill="none" />
<polyline points="32.0,318.5,40.5,320.0,48.5,321.0" stroke="black" stroke-width="2" fill="none" />
<polyline points="52.0,330.5,45.0,331.0,37.0,331.5,28.5,331.5,20.5,331.5,12.5,331.5,5.0,332.0" stroke="black" stroke-width="2" fill="none" />
<polyline points="2.5,328.0,10.0,327.0,18.5,324.5,26.5,325.0,34.5,326.0,42.0,325.0,50.5,324.0,58.5,323.5,68.5,312.0,76.5,312.5,84.5,312.5,92.5,312.5,100.5,312.0,108.0,310.0" stroke="black" stroke-width="2" fill="none" />
<polyline points="83.0,304.5,74.5,305.0,66.0,305.0,58.0,305.5" stroke="black" stroke-width="2" fill="none" />
<polyline points="51.5,305.0,44.0,305.5,36.5,305.5,29.0,306.5" stroke="black" stroke-width="2" fill="none" />
<polyline points="31.5,315.0,39.5,317.0,48.0,319.0,56.5,320.0,65.0,320.5,73.0,320.5,81.0,319.5,89.5,318.5" stroke="black" stroke-width="2" fill="none" />
<polyline points="67.5,315.0,59.5,315.5,51.5,316.5,43.5,316.5,35.5,317.0,27.0,317.5,18.5,318.0,10.0,318.0,1.5,318.0" stroke="black" stroke-width="2" fill="none" />
<polyline points="2.0,314.5,10.0,313.5,18.0,313.0,26.0,312.0,34.0,311.0,42.5,310.5,50.5,309.5,58.0,309.5,66.0,309.5" stroke="black" stroke-width="2" fill="none" />
<polyline points="65.0,315.5,73.0,315.5,81.0,316.0" stroke="black" stroke-width="2" fill="none" />
<polyline points="49.5,296.5,41.5,304.5,33.5,312.5,26.5,320.5" stroke="black" stroke-width="2" fill="none" />
<polyline points="20.0,322.0,28.0,314.0,36.0,306.0,44.0,298.5" stroke="black" stroke-width="2" fill="none" />
<polyline points="36.0,299.5,28.0,306.5,19.5,314.5,11.0,322.0" stroke="black" stroke-width="2" fill="none" />
<polyline points="5.5,323.0,13.0,323.0,21.0,323.0,29.0,322.5,37.0,322.0,45.0,321.5" stroke="black" stroke-width="2" fill="none" />
<polyline points="51.5,319.0,43.5,319.5,35.5,320.0,27.5,320.0,20.0,320.0,12.5,320.5,4.5,320.5" stroke="black" stroke-width="2" fill="none" />
<polyline points="4.0,321.5,12.0,314.0,19.5,307.0" stroke="black" stroke-width="2" fill="none" />
<polyline points="20.0,304.5,11.5,304.5,3.5,305.0" stroke="black" stroke-width="2" fill="none" />
<polyline points="2.0,306.0,10.0,298.5" stroke="black" stroke-width="2" fill="none" />
<polyline points="3.0,300.5,11.5,299.5,19.5,299.0,27.0,298.5,35.0,298.0,43.0,297.5,51.0,297.5,59.5,297.5,67.5,297.0,75.5,296.5,83.0,296.0,91.0,295.5,99.5,295.0" stroke="black" stroke-width="2" fill="none" />
<polyline points="74.5,304.0,66.0,304.5,58.0,305.0,50.0,305.5,42.0,306.5,34.0,308.0,26.0,308.5,18.5,309.0,11.0,309.5,3.0,310.0" stroke="black" stroke-width="2" fill="none" />
<polyline points="3.5,313.5,11.0,306.5,19.0,299.5" stroke="black" stroke-width="2" fill="none" />
<polyline points="16.5,306.0,24.5,304.0" stroke="black" stroke-width="2" fill="none" />
<polyline points="16.0,308.5,24.0,308.0,32.5,305.5,40.5,303.5,48.5,302.5,57.0,301.5,65.0,301.5,73.0,303.0,81.0,302.5,89.0,303.5,97.0,304.0,105.0,306.5,113.0,307.5" stroke="black" stroke-width="2" fill="none" />
<polyline points="60.5,306.5,52.0,307.5,44.0,309.0" stroke="black" stroke-width="2" fill="none" />
<polyline points="33.0,301.0,24.5,301.0,16.5,301.0,8.5,302.5,0.5,302.5" stroke="black" stroke-width="2" fill="none" />
<polyline points="1.0,262.5,9.0,262.5,17.0,261.5,25.5,263.0,33.5,262.5,41.5,261.5,49.5,261.5,57.5,263.0,65.5,263.0,73.5,263.0,81.0,262.0,89.5,261.5,97.0,261.5,105.0,261.0,113.5,261.0,121.5,261.0,129.5,260.5,137.5,261.0,145.0,261.0,153.0,261.0,161.5,261.5,169.5,261.5,178.0,261.0,186.0,261.0" stroke="black" stroke-width="2" fill="none" />
<polyline points="90.5,216.5,82.5,217.0" stroke="black" stroke-width="2" fill="none" />
<polyline points="75.5,218.5,67.5,218.5,59.0,219.5" stroke="black" stroke-width="2" fill="none" />
<polyline points="57.5,211.5,49.5,212.0" stroke="black" stroke-width="2" fill="none" />
<polyline points="45.0,208.5,37.0,209.5,28.5,210.0" stroke="black" stroke-width="2" fill="none" />
<polyline points="4.0,215.5,11.5,208.0,19.0,201.0,27.5,193.0,35.5,185.0,43.5,177.0,51.5,169.0,59.0,161.5,67.0,153.0,75.0,145.0,83.0,137.5,90.5,130.0,98.5,122.0" stroke="black" stroke-width="2" fill="none" />
<polyline points="92.0,116.0,84.0,123.5,75.5,131.0,66.5,139.0,58.0,146.5,50.5,154.0,43.0,162.0,35.5,168.5,28.0,176.0,20.5,183.5,12.0,191.0,4.0,198.5" stroke="black" stroke-width="2" fill="none" />
<polyline points="5.0,196.0,12.5,195.5,20.0,195.0,28.0,194.0,36.5,193.5,44.5,193.0,52.0,192.0,59.5,192.0,67.0,191.5,74.5,191.0,82.5,190.5,90.5,190.0,98.5,190.0,106.5,190.0,114.5,190.0,123.0,189.5,131.0,189.0,138.5,188.0,146.5,187.5,155.0,187.5,163.0,187.0,171.0,186.5,179.0,186.0,187.0,185.5,195.0,184.5" stroke="black" stroke-width="2" fill="none" />
<polyline points="140.5,114.0,132.0,122.0,124.0,129.5,115.5,137.5,107.0,145.0,99.0,152.0,91.0,160.0,82.0,168.0,74.0,176.0,66.5,183.5,58.5,191.5,51.0,198.5,43.0,206.5,35.0,214.0,27.0,221.0,19.0,228.0,11.0,235.5,3.0,243.0" stroke="black" stroke-width="2" fill="none" />
<polyline points="4.5,241.5,12.5,241.0,20.5,241.0,29.0,240.5,37.0,240.5,45.0,240.0,53.0,239.5,60.5,239.0,68.5,238.5,76.0,238.0,83.0,237.5,91.0,237.0,99.0,236.5,107.0,236.0,115.5,235.5,124.0,234.5,131.5,234.0,140.0,234.0,147.5,234.0,155.5,233.5,163.5,233.0,171.5,233.0,179.5,232.5,187.5,232.0,195.0,231.5" stroke="black" stroke-width="2" fill="none" />
<polyline points="131.5,115.5,123.5,123.0,115.5,130.5,107.5,138.0,99.5,145.0,91.0,152.0,82.5,159.0,74.0,166.5,65.5,174.0,57.5,181.5,49.5,189.0,42.0,196.0,34.0,204.0,26.0,211.5,18.0,219.0,10.5,226.5,3.0,234.0" stroke="black" stroke-width="2" fill="none" />
<polyline points="3.0,232.5,10.5,232.0,19.0,231.5,27.5,231.0,35.5,231.0,44.0,230.5,52.0,230.0,59.5,230.0,67.0,229.5,74.5,229.0,82.0,229.0,90.5,228.0,98.5,228.0,107.0,227.5,115.0,227.0,123.0,227.0,131.5,226.0,140.5,225.5,149.0,224.5,156.5,224.0,164.5,223.5,172.5,223.0,181.0,223.0,188.5,223.0" stroke="black" stroke-width="2" fill="none" />
<polyline points="122.0,114.5,114.5,122.0,106.5,129.5,99.0,136.5,91.5,144.0,84.0,150.5,75.5,158.0,67.0,166.0,59.0,173.5,51.0,180.5,43.0,188.0,35.0,195.5,27.0,204.0,19.0,212.0,11.0,220.0,2.5,228.5" stroke="black" stroke-width="2" fill="none" />
<polyline points="1.0,229.5,9.0,229.0,17.0,229.0,25.0,228.0,33.5,227.0,41.5,226.5,50.0,226.0,58.5,225.0,67.0,224.5,75.5,224.5,84.0,224.0,91.5,223.0,99.0,222.5,106.5,222.5,114.5,222.0,122.5,222.0,131.0,222.0,139.5,222.0,148.5,222.0,157.0,222.0,164.5,222.0,172.5,221.5,180.0,220.5,187.5,220.0,194.5,218.5" stroke="black" stroke-width="2" fill="none" />
<polyline points="114.0,114.0,106.0,122.0,98.0,129.0,90.0,136.0,82.0,143.0,74.5,149.5,67.0,157.5,59.5,165.5,52.0,173.5,44.0,181.0,36.0,188.5,28.0,196.0,20.0,204.5,11.5,212.5,3.0,221.0" stroke="black" stroke-width="2" fill="none" />
<polyline points="1.5,219.5,9.5,219.0,18.0,218.5,26.5,218.0,35.0,217.5,43.5,217.0,52.0,217.5,60.5,217.5,69.0,217.0,77.5,216.0,86.0,215.5,94.0,215.0,102.0,214.5,110.0,213.5,118.0,212.5,125.5,212.0,133.5,211.5,141.5,211.5,149.5,211.0,157.0,210.5,165.0,210.0,173.0,209.5,181.0,209.5,188.5,209.0,196.5,209.0" stroke="black" stroke-width="2" fill="none" />
<polyline points="88.5,125.5,81.0,133.0,73.0,140.5,65.0,148.0,58.0,154.5,50.5,162.0,43.5,169.0,36.0,177.0,29.0,184.5,21.5,191.5,13.5,198.5,5.5,206.0" stroke="black" stroke-width="2" fill="none" />
<polyline points="2.5,205.0,11.0,204.5,19.0,204.5,27.0,204.0,34.5,203.0,42.5,202.5,50.5,201.5,58.5,200.5,66.5,200.0,74.5,199.0,82.5,198.5,90.5,198.0,98.0,198.0,106.0,198.0,114.0,198.0,122.0,197.5,130.5,197.0,139.0,196.5,147.5,195.5,155.5,195.0,164.0,195.0,171.5,194.5,179.0,194.5,187.0,194.0,195.0,194.0" stroke="black" stroke-width="2" fill="none" />
<polyline points="73.5,125.0,65.5,132.5,58.5,139.5,51.0,147.0,43.5,155.0,36.0,162.5,28.5,170.0,21.0,176.5,13.5,184.0,5.5,192.0" stroke="black" stroke-width="2" fill="none" />
<polyline points="4.0,190.0,12.0,189.5,20.5,189.0,28.5,188.0,36.5,187.0,44.5,186.5,52.5,186.0,60.5,185.5,68.5,185.5,76.0,185.0,84.0,184.5,91.5,184.0,99.5,183.5,107.0,182.5,115.0,182.0,122.5,181.5,130.0,181.0,137.5,181.0,145.5,181.0,154.0,180.5,162.0,180.0,170.0,179.5,178.0,179.0,186.0,178.0,195.0,177.0" stroke="black" stroke-width="2" fill="none" />
<polyline points="76.0,114.0,68.0,122.0,60.0,130.0,52.0,137.5,43.5,145.0,35.0,152.5,27.5,159.5,19.5,167.5,11.0,175.0,3.5,182.0" stroke="black" stroke-width="2" fill="none" />
<polyline points="3.0,182.5,11.5,181.5,19.5,181.0,27.5,180.5,35.5,180.5,43.5,180.5,51.5,179.5,59.5,178.5,67.5,178.0,75.5,177.5,83.5,176.5,91.5,176.0,100.0,176.0,108.0,175.5,115.5,174.5,123.0,173.5,130.5,173.0,138.0,173.0,146.0,172.5,154.0,172.0,162.0,171.5,170.0,171.5,177.5,171.0,185.5,170.0,193.0,169.0" stroke="black" stroke-width="2" fill="none" />
<polyline points="59.5,122.0,51.0,130.0,42.5,138.5,34.0,146.5,26.0,154.5,18.0,162.5,10.5,170.0,3.5,177.0" stroke="black" stroke-width="2" fill="none" />
<polyline points="3.5,174.5,11.5,173.5,20.0,173.0,28.0,172.5,36.5,171.5,44.5,171.0,52.5,171.0,60.0,170.5,67.5,170.0,75.0,170.0,83.0,169.0,91.5,169.0,100.0,167.5,108.0,166.5,116.0,165.5,123.5,164.0,131.0,163.5,138.5,163.0,146.0,163.0,154.0,163.0,161.5,162.5,169.5,162.0,177.0,161.5,185.0,161.5,193.0,161.0" stroke="black" stroke-width="2" fill="none" />
<polyline points="59.0,115.5,51.0,123.0" stroke="black" stroke-width="2" fill="none" />
<polyline points="51.0,115.0,43.0,122.0,35.0,129.5,27.5,136.5,19.5,144.0,11.5,152.0,4.0,160.0" stroke="black" stroke-width="2" fill="none" />
<polyline points="2.5,156.5,10.5,156.5,18.0,156.0,26.5,155.5,35.0,155.0,42.5,154.5,51.0,154.0,59.0,154.0,67.5,153.5,75.0,152.5,82.5,152.0,90.5,151.5,98.5,151.0,106.5,151.0,115.0,150.5,123.5,149.5,131.0,149.0,139.0,149.0,147.0,148.5,155.5,147.5,164.0,147.0,172.0,146.0,179.5,145.5,187.5,144.5,195.5,144.5" stroke="black" stroke-width="2" fill="none" />
<polyline points="44.5,131.0,36.5,138.5,29.0,146.0,21.0,153.5,12.5,161.5,5.0,169.0" stroke="black" stroke-width="2" fill="none" />
<polyline points="2.5,164.0,10.5,164.0,18.0,163.5,26.0,163.0,34.0,162.0,42.5,161.5,50.5,160.5,59.5,160.0,68.5,160.0,76.5,160.0,84.5,160.0,92.5,159.5,100.5,158.5,108.0,158.0,115.5,157.5,123.0,156.5,131.0,156.0,138.5,155.5,146.0,154.5,154.0,154.0,162.0,153.5,170.0,152.5,178.5,152.5,186.5,152.5,195.0,153.0" stroke="black" stroke-width="2" fill="none" />
<polyline points="45.0,116.0,37.0,123.5" stroke="black" stroke-width="2" fill="none" />
<polyline points="28.5,122.5,20.5,130.5,12.5,138.5,4.5,146.0" stroke="black" stroke-width="2" fill="none" />
<polyline points="2.5,147.5,10.5,147.0,19.0,146.5,27.5,146.5,35.5,146.0,43.5,146.0,51.0,145.5,58.5,145.0,66.0,145.0,74.0,144.5,82.0,144.5,90.0,144.0,98.5,144.0,107.0,143.5,115.0,143.0,123.5,142.0,131.0,141.5,139.0,141.0,146.5,140.5,154.5,139.5,162.5,138.5,170.5,138.5,179.0,138.0,187.5,137.5,195.5,136.5" stroke="black" stroke-width="2" fill="none" />
<polyline points="28.5,129.5,20.5,137.0,12.5,144.5,4.0,153.0" stroke="black" stroke-width="2" fill="none" />
<polyline points="3.5,142.5,11.5,141.5,19.0,140.5,27.0,139.5,34.5,139.5,42.5,139.5,50.5,139.0,58.5,139.0,66.5,139.0,75.0,138.5,83.0,138.5,91.5,137.5,99.5,137.5,107.5,136.5,115.0,136.0,122.5,135.5,130.5,135.0,138.5,134.0,146.5,133.5,155.0,133.0,163.5,132.0,171.0,131.5,179.5,131.5,187.5,131.0,195.5,130.5,204.0,129.5" stroke="black" stroke-width="2" fill="none" />
<polyline points="19.5,121.0,11.5,128.5,3.0,136.5" stroke="black" stroke-width="2" fill="none" />
<polyline points="1.5,134.5,10.0,134.0,18.0,133.5,26.5,133.5,34.5,133.0,42.5,133.0,50.5,132.5,58.5,132.0,66.5,131.5,74.0,131.0,81.5,131.0,89.5,130.5,98.0,129.5,106.0,128.5,114.5,127.5,122.0,127.0,130.0,126.5,137.5,126.5,145.0,126.5,153.0,126.0,160.5,125.5,168.5,125.5,177.0,124.5,185.0,123.0,193.5,122.0,202.0,121.0" stroke="black" stroke-width="2" fill="none" />
<polyline points="18.0,114.5,10.0,122.0,2.0,129.5" stroke="black" stroke-width="2" fill="none" />
<polyline points="2.0,127.5,10.5,126.5,18.5,125.5,26.0,125.0,34.0,124.0,42.5,124.0,51.0,123.0,59.5,122.5,68.0,122.0,76.5,121.5,85.0,121.5,92.5,120.5,100.0,120.5,107.5,120.0,115.0,119.5,122.5,119.5,131.0,119.0,139.0,118.5,147.0,118.0,154.5,118.0,162.0,117.5,170.5,116.5,179.5,115.5,187.5,114.5,195.5,113.5,204.0,113.0" stroke="black" stroke-width="2" fill="none" />
<polyline points="18.0,107.5,10.0,114.5,1.5,122.0" stroke="black" stroke-width="2" fill="none" />
<polyline points="1.5,118.5,9.0,118.5,17.5,118.0,26.5,117.0,35.0,116.0,43.5,115.5,51.5,115.0,60.0,115.0,68.5,114.0,77.0,113.5,84.5,113.0,93.0,112.5,101.0,111.5,109.0,111.5,117.5,111.5,125.5,111.0,133.0,110.5,140.0,110.0,147.0,109.5,154.5,109.0,162.5,108.5,170.5,108.0,179.0,107.5,187.5,107.0,196.0,107.0,204.0,106.5" stroke="black" stroke-width="2" fill="none" />
<polyline points="9.0,106.5,1.0,114.0" stroke="black" stroke-width="2" fill="none" />
<polyline points="3.5,110.5,11.5,110.0,20.0,109.5,28.0,109.0,36.5,108.5,44.5,108.0,53.0,107.0,61.0,106.0,69.0,105.0,77.0,104.0,85.0,103.0,92.5,102.5,100.5,102.5,108.5,102.5,117.0,102.5,125.0,102.0,132.0,101.5,139.5,101.0,147.0,100.5,155.0,100.0,163.0,99.5,171.0,99.0,179.0,99.0,187.5,98.5,195.5,98.0,203.0,97.0,212.0,96.0,220.0,95.5,228.5,95.0,237.0,94.5,245.0,94.0,253.0,93.5,261.0,93.0,269.0,93.0,277.0,92.0,284.5,91.5,292.0,91.0,299.5,91.0,307.0,90.0,314.5,89.0,323.0,88.5,330.5,88.0,338.5,88.0,347.0,87.5,356.0,87.5,364.0,87.0,372.5,87.0,380.5,86.0,389.0,85.0,397.0,84.0,404.5,83.0,412.0,83.0,420.0,82.5,427.5,82.5,435.0,82.0,443.0,81.0,451.0,81.0,458.0,81.0,466.0,81.0,474.5,80.5,482.5,80.5,491.0,79.5,499.0,79.5,507.0,79.0,515.0,78.0" stroke="black" stroke-width="2" fill="none" />
<polyline points="197.0,246.5,189.0,247.0,180.5,247.0,171.5,247.0,163.0,247.5,155.0,247.5,146.5,248.0,138.5,248.5,131.0,249.5,123.0,250.0,115.0,250.5,107.0,250.5,99.0,251.0,91.0,251.0,83.0,251.5,75.5,252.5,67.5,253.0,59.0,254.0,50.5,255.0,42.0,255.0,34.5,255.5,27.0,255.5,19.5,255.5,12.5,256.0,4.5,256.0" stroke="black" stroke-width="2" fill="none" />
<polyline points="3.0,251.0,11.0,250.5,19.5,250.0,28.0,249.5,36.0,250.0,43.5,250.5,51.5,250.0,59.5,250.0,67.0,250.0,74.5,250.0,82.5,249.0,90.5,248.5,98.0,248.0,106.0,247.0,114.0,246.0,122.0,245.5,130.0,244.5,138.5,244.0,147.0,243.5,155.5,243.5,164.0,243.0,172.0,242.5,180.0,242.5,188.5,242.0,196.5,241.5" stroke="black" stroke-width="2" fill="none" />
<polyline points="194.5,225.5,187.0,225.5,179.0,226.0,171.0,226.0,163.0,226.5,155.0,227.0,146.5,228.0,138.5,229.0,130.0,230.5,121.5,231.0,114.0,231.5,106.0,232.0,98.0,232.5,90.5,233.0,82.5,233.0,75.0,233.5,67.0,234.0,58.5,235.0,51.0,235.5,43.0,235.5,35.5,235.5,28.5,235.5,21.0,236.0,13.0,236.0,5.0,236.5" stroke="black" stroke-width="2" fill="none" />
<polyline points="2.0,225.5,10.0,225.0,18.0,224.0,26.0,223.0,34.0,222.5,42.5,221.5,50.5,221.0,59.0,220.5,67.5,220.5,76.0,220.5,84.5,220.0,92.0,219.5,100.0,218.5,107.5,218.0,116.0,218.0" stroke="black" stroke-width="2" fill="none" />
<polyline points="51.5,214.0,43.0,214.0,34.5,214.5,26.5,215.5,18.0,216.5,10.0,217.5,2.0,218.0" stroke="black" stroke-width="2" fill="none" />
<polyline points="1.0,213.0,9.0,212.5,17.0,212.5,25.0,212.0,33.0,212.0,41.0,211.0,49.5,211.0,58.5,210.5,67.0,210.0,75.0,209.5,83.0,209.0,91.0,208.5,98.5,207.5,107.0,207.0,115.0,206.0,123.0,205.5,131.0,205.0,139.0,204.0,147.0,203.0,154.5,202.5,162.5,202.0,170.5,201.5,178.5,201.0,187.0,200.5,195.5,200.5" stroke="black" stroke-width="2" fill="none" />
<polyline points="4.0,101.0,12.0,101.0,20.0,100.5,28.0,99.5,36.0,99.5,44.0,98.5,52.5,97.5,61.0,96.5,69.0,95.5,77.0,94.5,85.5,94.0,93.0,94.0,101.0,94.0,109.0,93.5,117.0,93.0,125.0,92.5,132.5,92.0,140.0,91.5,148.0,90.5,155.5,90.0,163.0,89.5,171.0,89.0,179.5,89.0,187.5,88.5,195.5,88.0,204.0,87.5,212.0,87.0,220.5,86.5,228.5,86.0,236.5,85.5,244.5,85.0,253.0,84.5,260.0,84.0,268.0,83.5,276.0,84.0,283.5,84.0,291.5,83.5,300.0,83.0,308.5,82.5,316.0,81.5,323.5,81.0,331.5,80.5,339.5,79.5,347.5,79.0,355.0,78.5,363.0,78.0,371.0,78.0,378.5,77.5,386.5,77.5,395.0,76.5,403.5,76.5,411.5,76.0,419.5,75.5,427.5,75.0,435.5,74.0,443.0,73.0,450.5,72.0,458.0,71.5,465.5,71.0,473.5,70.5,481.5,70.0,490.0,69.0,498.0,69.0,506.0,68.5,514.0,68.0" stroke="black" stroke-width="2" fill="none" />
<polyline points="515.0,61.0,507.0,61.0,499.0,61.0,491.0,60.5,483.0,61.0,475.0,61.5,467.0,62.5,459.0,63.0,451.5,63.0,444.0,63.5,435.5,65.0,427.0,65.5,418.5,66.5,410.5,67.0,402.0,67.5,394.5,68.0,386.5,68.5,378.5,69.5,370.5,71.0,363.0,72.0,355.0,72.5,347.0,73.0,339.0,73.0,331.5,72.5,323.0,72.5,315.0,73.0,306.5,73.5,298.5,74.5,291.5,75.0,283.5,75.5,276.0,75.5,268.0,75.5,260.0,76.0,252.5,77.0,244.5,77.5,236.0,78.0,228.0,78.0,220.5,78.5,212.5,79.5,204.0,79.5,196.0,80.5,188.0,81.5,179.5,82.0,170.5,83.0,162.5,83.5,154.5,83.5,147.5,84.0,139.5,85.0,131.5,86.0,123.5,86.5,115.5,87.0,107.5,87.0,100.0,87.0,92.5,87.5,84.5,87.5,76.0,88.5,68.0,89.5,60.0,90.5,52.0,91.5,43.5,92.5,36.0,93.5,28.0,94.0,20.0,94.5,11.5,94.5,4.0,95.0" stroke="black" stroke-width="2" fill="none" />
<polyline points="1.0,88.0,9.5,87.0,17.0,86.5,25.5,85.5,33.5,84.5,42.0,83.5,50.0,83.0,58.0,82.5,66.0,82.5,74.0,82.0,81.5,81.0,90.0,81.0,98.5,81.0,107.0,80.5,115.5,80.0,123.5,79.5,131.5,79.5,139.5,78.5,147.5,78.0,155.5,77.5,163.5,77.0,171.5,76.5,179.5,75.5,187.0,74.0,194.5,73.5,203.0,72.5,210.5,71.0,219.0,70.0,227.5,69.0,236.5,68.5,244.5,68.0,252.5,67.5,260.0,68.0,267.5,68.0,275.0,68.5,283.5,68.5,291.0,68.5,299.0,68.0,307.0,67.5,315.5,67.0,324.0,66.0,331.5,65.5,339.0,65.0,346.5,64.5,354.0,63.5,361.5,62.5,369.5,62.0,377.5,61.5,385.5,61.0,394.0,60.0,402.0,59.0,410.0,59.0,418.0,58.0,426.0,57.0,434.0,56.0,442.5,54.5,451.0,54.5,459.5,54.5,468.0,54.5,476.0,54.0,484.0,53.5,492.0,53.0,500.0,53.5,507.5,53.5,515.0,54.0" stroke="black" stroke-width="2" fill="none" />
<polyline points="516.5,45.5,508.5,46.0,500.5,46.5,492.5,47.0,484.5,47.0,476.5,47.5,468.0,48.0,460.0,48.5,451.0,49.0,442.5,50.0,434.5,50.0,426.0,50.5,418.0,50.5,410.5,51.0,403.0,51.0,394.5,51.5,386.5,51.5,378.5,52.5,370.5,53.0,362.5,54.0,355.0,54.5,347.0,55.5,339.5,57.0,332.0,58.0,324.0,58.5,316.5,59.0,308.0,59.0,300.0,58.5,291.5,58.5,283.5,58.5,276.0,60.0,268.0,61.0,260.0,61.5,252.5,62.5,244.5,63.0,236.0,64.0,228.0,64.0,220.0,64.5,212.0,65.0,204.5,65.5,196.0,65.5,187.5,66.0,179.5,66.5,170.5,67.5,162.0,68.0,154.0,68.0,146.0,68.5,138.0,68.5,130.5,68.5,122.5,69.5,114.0,70.0,106.0,71.0,98.0,72.0,90.0,72.5,82.0,73.5,74.5,74.0,66.5,75.0,58.5,75.5,50.5,75.5,42.5,75.5,34.5,76.5,26.0,77.0,18.0,77.5,10.0,77.5,2.0,78.5" stroke="black" stroke-width="2" fill="none" />
<polyline points="4.5,69.0,12.5,68.5,20.5,68.5,28.5,68.0,36.5,67.5,44.0,67.0,51.5,66.5,58.5,66.5,66.5,66.0,75.0,66.0,83.0,65.0,91.0,64.5,98.5,64.0,106.0,63.5,114.0,63.0,122.0,61.5,130.0,60.5,138.0,60.0,146.0,59.5,154.5,59.0,163.0,58.5,171.0,58.0,179.0,57.5,187.0,57.0,195.5,57.5,204.0,57.5,212.5,57.5,220.5,57.5,228.5,57.0,236.5,56.5,244.5,56.0,252.5,55.5,260.5,55.0,268.0,54.0,275.0,53.5,283.0,53.5,290.5,52.5,298.5,51.5,307.0,50.5,315.5,50.0,323.5,49.5,331.5,49.0,339.5,48.5,347.5,47.5,355.5,46.0,363.5,45.5,371.0,45.0,378.5,44.5,386.0,44.0,394.5,43.5,402.5,43.0,410.5,43.0,419.0,42.5,427.0,42.0,435.0,42.0,443.0,42.5,451.5,42.0,459.5,42.0,467.5,42.0,475.5,42.0,483.0,42.0,491.5,41.0,500.0,40.5,508.0,40.5,516.5,40.0" stroke="black" stroke-width="2" fill="none" />
<polyline points="517.5,29.5,509.0,30.5,500.5,31.5,492.0,32.5,483.5,33.5,475.5,34.0,467.5,34.0,459.0,34.0,451.0,34.0,443.0,34.5,434.0,34.5,425.5,35.5,417.5,36.0,409.0,36.5,401.5,37.0,393.5,37.5,385.5,37.5,378.0,38.0,370.5,38.0,362.5,38.5,354.5,39.0,347.0,39.5,340.0,40.0,332.0,40.5,324.5,41.0,316.5,42.0,308.0,43.0,300.0,43.5,292.0,44.0,284.5,44.5,276.0,45.5,268.5,46.0,261.0,46.0,253.5,46.5,245.5,47.5,237.5,47.5,228.5,48.5,220.0,49.5,212.0,49.5,204.0,50.0,195.5,50.0,186.5,50.5,178.0,50.0,170.5,50.0,162.5,50.5,155.0,51.0,147.0,51.5,139.0,52.5,131.0,53.0,123.0,54.0,115.5,54.5,107.5,55.0,100.0,55.5,91.5,55.5,83.5,56.0,75.5,57.0,67.5,57.5,59.5,58.5,51.5,59.0,44.0,59.5,36.0,60.5,28.5,61.0,20.5,61.5,13.0,61.5,5.0,62.0" stroke="black" stroke-width="2" fill="none" />
<polyline points="5.0,54.0,13.0,54.0,20.5,53.0,28.0,52.5,35.5,51.5,43.5,50.5,51.5,49.5,59.5,48.5,67.5,48.0,75.0,48.0,83.0,47.5,91.5,46.5,99.5,46.0,107.0,45.5,115.0,45.0,123.0,44.5,131.0,44.5,139.5,44.5,147.5,44.0,155.5,43.5,163.0,43.0,171.0,42.5,179.5,42.0,187.5,42.0,196.0,41.5,204.5,41.5,213.0,41.0,220.5,40.5,228.5,39.5,236.5,38.5,244.5,37.5,252.5,37.0,260.5,36.5,268.5,35.5,276.5,35.0,284.5,35.0,292.5,34.5,300.5,34.5,308.5,34.5,316.0,34.5,324.0,34.5,332.0,33.5,340.0,32.5,347.5,31.5,355.5,31.0,363.5,30.5,371.0,30.5,378.5,30.0,386.0,30.5,393.0,31.0,400.5,30.5,409.0,30.0,417.0,29.5,425.0,29.0,434.0,27.5,442.5,27.0,451.5,26.0,460.0,26.0,469.0,25.5,477.5,24.5,485.5,23.5,493.5,23.0,500.5,22.5,508.5,22.0,516.0,22.0" stroke="black" stroke-width="2" fill="none" />
<polyline points="516.5,13.5,508.0,14.5,500.0,15.0,492.0,15.5,484.0,16.0,476.5,16.5,468.0,17.0,459.5,17.5,451.0,19.0,442.5,19.0,434.0,19.5,426.5,20.0,419.5,20.0,412.0,20.5,404.0,21.0,396.0,21.5,387.5,22.0,379.5,22.5,371.5,22.5,363.5,22.5,356.0,23.5,349.0,24.0,341.0,25.0,333.0,25.5,325.0,26.5,317.0,26.5,309.5,27.0,301.5,27.5,293.5,28.0,285.5,29.0,277.0,29.5,269.0,30.0,260.5,30.0,251.5,30.0,243.0,30.5,235.0,30.5,226.5,31.0,218.5,31.5,211.0,32.5,203.0,33.0,195.0,33.5,187.0,33.5,179.0,34.0,171.0,34.0,163.0,34.5,155.5,35.5,147.5,36.0,139.0,37.0,130.5,38.0,122.0,38.0,114.5,38.5,107.0,38.5,99.5,38.5,92.5,39.0,84.5,39.0,76.5,40.0,68.5,40.5,60.5,41.5,52.5,42.5,44.5,43.5,36.0,44.5,28.0,45.0,20.5,45.0,12.5,45.0,5.0,45.0" stroke="black" stroke-width="2" fill="none" />
<polyline points="2.5,38.0,11.0,37.5,19.0,37.0,27.0,36.0,35.5,35.0,43.5,34.5,51.5,34.0,59.5,33.0,67.0,32.0,75.0,31.0,83.0,30.0,91.0,29.5,99.5,29.0,108.0,28.5,116.0,29.0,123.5,29.5,131.5,29.0,139.5,29.0,147.0,29.0,154.5,29.0,162.5,28.0,170.5,27.5,178.0,27.0,186.0,26.0,194.0,25.0,202.0,24.5,210.0,23.5,218.5,23.0,227.0,22.5,235.5,22.5,244.0,22.0,252.0,21.5,260.0,21.5,268.5,21.0,276.5,20.5,284.5,20.0,293.0,20.0,301.5,20.0,309.5,19.5,317.5,19.0,326.0,18.0,333.5,18.0,340.5,17.0,348.0,16.0,355.5,15.0,363.5,13.5,371.5,13.0,379.5,12.0,387.5,11.5,395.0,11.0,403.0,10.5,411.5,9.5,420.0,9.5,428.0,9.0,436.0,9.0,443.5,9.0,451.5,9.0,459.5,8.5,467.5,8.0,475.5,7.5,483.5,7.5,491.5,7.0,499.5,6.5,507.5,6.0,515.0,5.5" stroke="black" stroke-width="2" fill="none" />
<polyline points="515.0,-3.0,507.5,-2.0,499.5,-1.5,491.5,-0.5,483.5,0.5,475.5,0.5,468.0,1.0,460.0,1.5,451.5,2.5,443.0,2.5,435.0,3.0,427.0,3.0,419.0,3.0,411.5,3.0,403.5,3.0,395.5,3.5,387.5,4.5,379.0,5.5,371.0,7.0,362.5,8.0,355.5,8.0,348.0,8.5,340.5,9.0,332.5,9.5,324.5,10.0,317.0,11.0,309.0,11.5,300.5,11.5,292.0,11.5,283.0,11.5,275.0,12.5,267.0,13.0,259.0,14.0,251.0,14.5,242.5,14.5,235.0,15.5,227.0,15.5,219.5,16.5,212.0,17.0,204.0,18.0,195.5,18.5,187.0,19.0,179.0,19.0,171.0,19.0,163.5,19.5,155.0,20.0,146.5,20.5,139.0,20.5,131.0,21.0,123.0,21.5,116.0,22.0,108.0,23.0,100.0,23.5,92.0,24.0,84.0,25.0,76.0,25.5,67.5,26.0,59.0,26.5,51.0,27.0,42.5,27.5,34.0,27.5,26.0,27.0,18.5,27.0,10.5,27.5,2.5,28.0" stroke="black" stroke-width="2" fill="none" />
<polyline points="2.0,20.0,10.0,19.0,18.0,19.0,26.0,19.0,34.0,18.5,42.0,18.5,50.5,18.5,59.5,18.5,68.0,18.5,77.0,18.0,85.0,17.5,93.0,17.0,100.5,16.0,108.0,15.0,116.0,14.5,124.0,14.0,132.0,13.5,140.0,12.5,148.5,12.0,156.5,11.5,164.5,10.5,172.0,10.5,179.5,10.0,187.0,10.0,194.5,9.5,202.0,9.0,210.0,9.5,218.0,9.5,226.5,9.5,234.0,9.0,242.5,8.5,250.5,8.0,258.5,8.0,266.5,7.5,274.0,7.0,282.0,6.5,290.5,6.0,299.0,5.0,307.0,4.0,315.5,2.5,323.0,2.0,331.5,1.5,340.0,0.5,348.5,0.0,356.0,-0.5,363.5,-1.0,371.5,-1.5,378.5,-2.0,386.0,-2.0,393.5,-2.0,401.5,-2.0,409.5,-2.5,418.5,-3.5,427.0,-4.0,435.5,-4.0,444.0,-4.5,452.5,-5.0,461.0,-6.5,469.5,-7.0,477.5,-7.0,485.5,-7.5,493.0,-8.0,501.0,-8.5,508.5,-9.0,516.0,-9.5" stroke="black" stroke-width="2" fill="none" />
<polyline points="515.5,-19.0,508.0,-19.0,500.0,-18.5,492.0,-18.0,484.0,-17.5,475.5,-17.0,467.0,-16.0,459.5,-15.5,451.5,-15.5,443.0,-14.5,435.5,-14.0,428.0,-13.5,420.0,-13.0,412.0,-13.0,404.0,-13.0,396.0,-12.0,387.5,-11.0,379.0,-10.5,371.0,-9.5,362.5,-9.0,354.5,-7.5,347.0,-6.5,339.0,-6.0,331.5,-5.0,323.5,-4.5,315.0,-4.5,307.0,-4.0,298.5,-3.5,290.5,-2.5,282.5,-2.0,275.0,-1.5,267.5,-1.0,259.5,-0.5,251.5,0.0,243.5,0.0,235.5,0.5,227.5,1.0,220.0,1.0,211.5,1.0,204.0,1.5,195.5,2.5,187.0,3.0,179.0,3.5,171.0,4.0,163.0,4.5,156.0,5.0,148.5,5.5,140.5,6.0,133.0,6.5,125.0,7.0,117.0,7.5,109.0,7.5,100.5,8.0,92.5,8.0,84.5,8.5,76.5,8.5,68.5,9.0,60.5,9.5,52.5,11.0,44.5,11.5,36.5,11.5,27.5,12.0,19.0,12.0,10.5,11.5,2.5,11.5" stroke="black" stroke-width="2" fill="none" />
<polyline points="5.0,5.5,13.0,5.0,21.0,4.0,28.5,3.0,36.5,2.5,44.5,2.0,52.5,1.0,61.0,0.5,69.0,0.5,77.0,0.0,85.0,-0.5,93.0,-1.0,101.0,-1.0,108.5,-1.5,115.5,-1.5,123.0,-1.5,131.0,-1.5,138.5,-2.0,147.0,-3.0,155.0,-3.5,162.5,-4.0,170.5,-4.0,178.0,-4.5,186.0,-5.0,194.0,-5.5,201.5,-6.0,210.0,-6.5,218.5,-8.0,226.5,-9.0,235.0,-10.0,243.0,-10.5,251.0,-11.0,259.0,-11.0,267.0,-11.5,274.5,-11.5,282.5,-11.5,290.0,-12.0,298.0,-12.0,305.5,-12.5,313.5,-13.5,321.5,-14.5,330.0,-15.0,338.5,-15.5,346.5,-16.5,355.5,-17.0,364.0,-17.5,372.0,-19.0,380.0,-20.0,388.0,-21.0,396.0,-21.5,403.5,-22.0,412.0,-22.5,420.5,-23.0,429.0,-23.0,436.5,-23.5,444.5,-24.0,451.5,-24.5,458.0,-24.5,465.5,-25.0,473.0,-25.5,481.0,-26.0,489.0,-26.0,497.0,-26.5,505.0,-27.0,513.5,-27.5" stroke="black" stroke-width="2" fill="none" />
</svg>