<svg xmlns="http://www.w3.org/2000/svg" version="1.1"><polyline points="72.0,2.0,72.0,10.0,77.5,12.0,86.0,11.0,94.0,12.5,100.5,15.5,104.5,23.0,112.5,25.0,120.5,22.5,130.0,25.5,138.0,24.5,142.0,28.5" stroke="black" stroke-width="2" fill="none" />
<polyline points="146.5,25.5,154.5,18.0" stroke="black" stroke-width="2" fill="none" />
<polyline points="155.0,11.5,163.0,4.0" stroke="black" stroke-width="2" fill="none" />
<polyline points="168.5,1.0,171.5,5.5,176.5,13.5,171.0,21.5,170.0,30.0,179.0,28.5,184.0,29.5,182.0,37.0,188.0,45.5,180.5,54.5,181.0,63.0,189.5,62.5,196.5,59.5,187.5,62.5,195.0,70.0,197.0,78.0,201.0,86.5,200.0,95.0,203.0,103.0,209.0,112.0,208.5,120.0,218.5,128.0,208.0,135.5,208.5,143.5,213.0,145.5,221.0,134.5,225.5,139.5,233.5,137.0,241.5,136.5,249.5,136.5,257.5,138.5,263.5,144.5,273.5,151.5,283.0,158.0,290.5,161.0,298.5,165.5" stroke="black" stroke-width="2" fill="none" />
<polyline points="308.5,164.5,316.5,163.5" stroke="black" stroke-width="2" fill="none" />
<polyline points="324.5,156.0,332.5,156.5,340.5,156.5,348.5,156.5,356.0,156.5,364.0,156.5,372.0,156.0,379.5,155.0,387.0,154.5,394.0,154.0,402.0,154.0,410.5,153.5,419.0,153.0,427.5,152.5,435.5,152.0,443.5,152.0,451.5,151.0,459.0,150.5,467.0,149.5,475.5,149.0,483.5,149.0,491.5,148.0,499.0,147.5,506.5,147.0,515.0,146.0" stroke="black" stroke-width="2" fill="none" />
<polyline points="515.0,144.5,507.0,152.5" stroke="black" stroke-width="2" fill="none" />
<polyline points="515.5,154.0,507.5,162.0" stroke="black" stroke-width="2" fill="none" />
<polyline points="497.5,165.0,489.5,172.0,482.0,179.0,474.0,186.5" stroke="black" stroke-width="2" fill="none" />
<polyline points="477.0,189.5,485.0,189.5,492.5,189.5,500.0,188.5,507.5,188.0,515.0,187.5" stroke="black" stroke-width="2" fill="none" />
<polyline points="508.5,203.0,501.0,210.5" stroke="black" stroke-width="2" fill="none" />
<polyline points="500.5,210.0,508.0,209.5" stroke="black" stroke-width="2" fill="none" />
<polyline points="512.0,208.5,504.0,205.5,495.5,202.5,487.5,202.0,477.0,205.5,469.0,204.5,460.5,196.0,462.5,205.0,460.0,197.0,451.0,198.0" stroke="black" stroke-width="2" fill="none" />
<polyline points="453.0,194.5,445.0,202.5" stroke="black" stroke-width="2" fill="none" />
<polyline points="442.5,201.5,450.5,204.5,458.5,208.0,466.5,212.0" stroke="black" stroke-width="2" fill="none" />
<polyline points="466.0,211.5,458.0,219.0" stroke="black" stroke-width="2" fill="none" />
<polyline points="461.0,219.0,469.0,222.5,481.0,226.5,481.5,234.5,476.0,239.5" stroke="black" stroke-width="2" fill="none" />
<polyline points="475.0,242.0,467.0,249.5,459.0,257.0,451.0,265.0,443.0,272.5,435.0,280.0,427.5,287.5,419.5,294.5" stroke="black" stroke-width="2" fill="none" />
<polyline points="419.0,289.5,427.0,289.0,435.5,289.0,444.0,288.5,452.0,287.5,460.5,287.0,468.5,286.0,476.5,285.5" stroke="black" stroke-width="2" fill="none" />
<polyline points="482.5,281.5,490.5,280.5,498.0,279.5,506.0,279.0,514.0,278.5" stroke="black" stroke-width="2" fill="none" />
<polyline points="514.5,276.5,506.0,284.5,498.0,291.5,489.5,298.5,482.0,305.5,474.5,312.5,467.0,320.0" stroke="black" stroke-width="2" fill="none" />
<polyline points="468.5,322.0,476.5,322.0,484.0,322.0,492.0,322.0,500.0,321.5,508.0,321.0,516.5,321.0" stroke="black" stroke-width="2" fill="none" />
<polyline points="516.5,323.5,508.5,331.0,501.0,338.5" stroke="black" stroke-width="2" fill="none" />
<polyline points="499.5,336.0,507.5,335.5,515.5,336.0" stroke="black" stroke-width="2" fill="none" />
<polyline points="517.5,331.5,510.0,338.5" stroke="black" stroke-width="2" fill="none" />
<polyline points="492.5,337.5,500.5,330.0,508.5,322.5,516.5,314.5" stroke="black" stroke-width="2" fill="none" />
<polyline points="517.0,307.0,509.0,314.0,501.5,321.5,493.0,329.0" stroke="black" stroke-width="2" fill="none" />
<polyline points="484.5,328.5,492.0,321.0,500.0,314.0,507.5,307.0,515.0,299.5" stroke="black" stroke-width="2" fill="none" />
<polyline points="514.0,290.0,506.0,297.5,498.0,305.5,490.5,313.5,483.0,321.5,475.5,329.0" stroke="black" stroke-width="2" fill="none" />
<polyline points="482.5,328.0,490.5,327.5,498.5,327.0,506.0,327.0,514.0,327.0" stroke="black" stroke-width="2" fill="none" />
<polyline points="516.5,304.0,508.5,305.0,500.5,306.0,492.5,307.0" stroke="black" stroke-width="2" fill="none" />
<polyline points="483.0,297.5,491.5,291.0,500.0,283.5,508.5,276.0,517.0,268.5" stroke="black" stroke-width="2" fill="none" />
<polyline points="517.5,260.0,509.5,267.5,501.0,274.5,492.5,282.0" stroke="black" stroke-width="2" fill="none" />
<polyline points="491.5,291.0,499.5,290.0,508.0,289.0,516.0,288.0" stroke="black" stroke-width="2" fill="none" />
<polyline points="515.0,284.5,507.0,292.0,498.5,299.5,490.5,306.5,483.0,313.5,475.5,320.0" stroke="black" stroke-width="2" fill="none" />
<polyline points="474.0,314.5,482.0,314.5,490.5,314.0,499.0,313.5,507.0,313.5,515.5,313.0" stroke="black" stroke-width="2" fill="none" />
<polyline points="515.0,294.0,506.5,294.0,498.0,294.5,490.0,295.5,481.5,296.0" stroke="black" stroke-width="2" fill="none" />
<polyline points="482.5,290.5,474.5,298.5,466.5,306.0,459.0,314.0" stroke="black" stroke-width="2" fill="none" />
<polyline points="458.5,322.5,450.5,323.0,442.5,324.0,434.5,324.5,427.0,325.0,419.0,325.5,410.5,326.5,402.5,327.0" stroke="black" stroke-width="2" fill="none" />
<polyline points="409.5,331.5,417.5,331.5,425.5,331.5,434.0,331.5,442.0,331.0,450.5,330.5,458.5,330.0,467.0,329.5,475.0,329.0,482.5,328.5,490.5,328.0,499.0,327.5,507.5,327.0,516.0,327.0" stroke="black" stroke-width="2" fill="none" />
<polyline points="475.0,306.5,467.5,313.5,459.5,321.5,452.0,329.0,444.5,336.0" stroke="black" stroke-width="2" fill="none" />
<polyline points="450.0,340.0,458.0,332.5" stroke="black" stroke-width="2" fill="none" />
<polyline points="459.5,329.0,456.5,336.5,459.0,328.5,471.5,331.5,480.0,336.5,488.0,339.5" stroke="black" stroke-width="2" fill="none" />
<polyline points="469.0,325.5,477.0,325.0,484.5,325.5,492.5,325.0,501.0,324.5,509.0,323.5,517.5,323.5" stroke="black" stroke-width="2" fill="none" />
<polyline points="516.0,272.0,508.0,272.5,500.5,272.5" stroke="black" stroke-width="2" fill="none" />
<polyline points="501.0,267.0,509.0,266.0" stroke="black" stroke-width="2" fill="none" />
<polyline points="500.5,259.5,492.0,267.0,484.0,274.0,476.0,281.0,468.0,288.0,460.0,295.5,452.5,303.5" stroke="black" stroke-width="2" fill="none" />
<polyline points="448.5,304.0,457.0,303.5,465.5,302.5" stroke="black" stroke-width="2" fill="none" />
<polyline points="463.0,306.0,471.0,296.5,479.0,296.5" stroke="black" stroke-width="2" fill="none" />
<polyline points="467.0,295.5,459.0,296.0,451.0,297.0,443.0,298.0,434.5,298.5,426.5,299.0" stroke="black" stroke-width="2" fill="none" />
<polyline points="428.0,303.0,436.0,295.5,444.5,288.0,452.0,281.5,460.0,274.5,468.5,267.0,476.5,259.5" stroke="black" stroke-width="2" fill="none" />
<polyline points="476.0,266.5,468.0,274.0,459.0,281.5,450.5,289.0,442.5,296.5" stroke="black" stroke-width="2" fill="none" />
<polyline points="443.0,305.0,451.0,297.5,459.0,290.0,467.5,282.5,475.5,275.0" stroke="black" stroke-width="2" fill="none" />
<polyline points="472.0,276.0,480.0,283.5" stroke="black" stroke-width="2" fill="none" />
<polyline points="475.0,291.0,466.5,285.0" stroke="black" stroke-width="2" fill="none" />
<polyline points="466.5,280.5,459.0,280.5,451.5,280.5,443.5,281.0,435.5,281.5,427.5,282.5" stroke="black" stroke-width="2" fill="none" />
<polyline points="417.5,274.5,426.0,274.0,434.5,273.0,443.0,272.5,452.0,272.0,460.0,271.5,468.0,270.5,475.5,270.0" stroke="black" stroke-width="2" fill="none" />
<polyline points="471.0,276.0,474.0,284.0,478.5,294.5,482.0,302.5,477.5,310.0" stroke="black" stroke-width="2" fill="none" />
<polyline points="458.5,304.0,466.5,296.0,475.0,288.5,483.0,281.0,491.0,273.5,499.0,266.0,507.0,259.0,515.5,252.0" stroke="black" stroke-width="2" fill="none" />
<polyline points="516.0,253.0,508.0,253.5" stroke="black" stroke-width="2" fill="none" />
<polyline points="507.0,246.5,514.5,246.0" stroke="black" stroke-width="2" fill="none" />
<polyline points="515.0,237.0,506.5,237.5" stroke="black" stroke-width="2" fill="none" />
<polyline points="507.0,234.5,515.0,227.5" stroke="black" stroke-width="2" fill="none" />
<polyline points="507.5,227.0,516.0,219.0" stroke="black" stroke-width="2" fill="none" />
<polyline points="516.0,213.0,508.0,220.5" stroke="black" stroke-width="2" fill="none" />
<polyline points="508.0,221.5,516.0,221.0" stroke="black" stroke-width="2" fill="none" />
<polyline points="516.5,216.0,508.5,216.5" stroke="black" stroke-width="2" fill="none" />
<polyline points="504.0,214.5,508.0,222.5" stroke="black" stroke-width="2" fill="none" />
<polyline points="515.5,228.5,507.5,229.5,499.5,230.0" stroke="black" stroke-width="2" fill="none" />
<polyline points="498.5,245.0,491.0,246.5,483.0,247.5,475.0,248.5,467.5,249.5,459.5,250.5,451.5,250.5,444.0,250.5,436.0,251.0,428.0,251.0,420.5,251.5,412.5,252.0,404.0,252.5,396.5,253.0,388.5,253.0,380.5,253.5,372.0,254.0" stroke="black" stroke-width="2" fill="none" />
<polyline points="373.5,257.0,367.0,268.5,359.0,266.0,351.0,263.0,343.5,260.5" stroke="black" stroke-width="2" fill="none" />
<polyline points="337.0,257.0,345.0,258.0,350.5,261.0,358.5,262.5,366.5,256.5,367.5,248.5,374.5,253.0,379.0,250.0" stroke="black" stroke-width="2" fill="none" />
<polyline points="381.0,248.0,388.5,247.5,396.5,247.5,404.5,247.5,412.5,247.0,420.5,246.5,428.0,246.5,435.5,246.0,443.0,246.0,451.0,245.5,459.0,244.5,467.0,244.0,475.5,244.0" stroke="black" stroke-width="2" fill="none" />
<polyline points="479.5,241.5,488.0,245.0,498.0,250.0,501.5,255.5" stroke="black" stroke-width="2" fill="none" />
<polyline points="514.5,259.5,506.0,260.5,498.0,261.0,490.0,261.5,482.5,262.5,475.0,262.5,467.0,262.5,458.5,263.5,451.0,264.5,443.0,264.5,435.0,265.0,427.0,265.5,419.0,266.5,411.0,267.0,402.5,267.5,394.5,268.0,386.5,268.0,379.0,268.0,371.0,268.5" stroke="black" stroke-width="2" fill="none" />
<polyline points="371.0,269.0,381.0,271.5,389.0,273.5,397.0,278.0" stroke="black" stroke-width="2" fill="none" />
<polyline points="397.0,275.5,389.0,283.0" stroke="black" stroke-width="2" fill="none" />
<polyline points="388.0,285.0,396.0,284.5,404.0,284.0,412.0,283.0,419.5,283.0,427.5,283.0,435.5,282.5,443.5,282.0,451.5,282.0,459.0,282.5,466.5,282.0,474.5,281.5,483.0,281.0,491.0,280.0,499.0,279.0,507.0,278.5,515.0,277.5" stroke="black" stroke-width="2" fill="none" />
<polyline points="515.5,303.5,508.0,303.5,500.0,304.5,491.5,305.0,483.5,305.5,475.5,305.5,467.0,306.5,458.5,307.0,450.0,308.0" stroke="black" stroke-width="2" fill="none" />
<polyline points="447.0,314.5,455.0,317.5" stroke="black" stroke-width="2" fill="none" />
<polyline points="450.5,324.0,442.0,331.0,434.0,338.5" stroke="black" stroke-width="2" fill="none" />
<polyline points="427.5,337.5,435.0,329.5,443.0,322.0" stroke="black" stroke-width="2" fill="none" />
<polyline points="437.0,320.5,429.0,328.5" stroke="black" stroke-width="2" fill="none" />
<polyline points="431.0,313.5,439.0,315.5,447.0,317.5,454.5,319.5,462.5,319.5,470.5,315.5,478.0,308.5" stroke="black" stroke-width="2" fill="none" />
<polyline points="478.0,328.5,470.0,326.5,462.0,323.5" stroke="black" stroke-width="2" fill="none" />
<polyline points="437.0,309.5,429.5,309.5,421.5,310.0" stroke="black" stroke-width="2" fill="none" />
<polyline points="420.5,303.0,428.5,295.5,436.5,288.0,444.5,280.5,452.0,273.0,459.5,265.0,467.5,257.5,475.5,250.0" stroke="black" stroke-width="2" fill="none" />
<polyline points="475.5,252.5,467.5,253.5,459.5,254.0,451.5,254.5,444.0,255.0,436.0,255.5,428.5,255.5,421.0,255.5,413.0,255.0,405.5,255.5,398.0,256.0,390.0,256.5" stroke="black" stroke-width="2" fill="none" />
<polyline points="395.5,263.0,404.0,255.5,412.5,248.0,420.0,240.5,427.5,233.0,435.5,225.5,443.5,218.0,451.5,210.5" stroke="black" stroke-width="2" fill="none" />
<polyline points="449.5,203.5,457.0,195.5" stroke="black" stroke-width="2" fill="none" />
<polyline points="458.0,184.5,466.5,177.0,474.5,169.0,482.5,161.5" stroke="black" stroke-width="2" fill="none" />
<polyline points="484.0,153.5,492.0,152.5,500.0,152.0,507.5,151.5,515.0,151.5" stroke="black" stroke-width="2" fill="none" />
<polyline points="516.0,138.0,508.0,145.5,500.0,153.0" stroke="black" stroke-width="2" fill="none" />
<polyline points="491.5,154.0,499.5,146.0,508.5,138.0,516.5,130.5" stroke="black" stroke-width="2" fill="none" />
<polyline points="516.0,121.0,508.5,129.0,500.0,137.5,491.5,145.5,483.0,153.0,475.0,160.5,467.0,168.5,459.5,176.5,451.5,184.5" stroke="black" stroke-width="2" fill="none" />
<polyline points="450.0,177.5,458.0,177.0" stroke="black" stroke-width="2" fill="none" />
<polyline points="458.5,169.5,451.0,170.0" stroke="black" stroke-width="2" fill="none" />
<polyline points="450.5,161.0,458.5,161.0" stroke="black" stroke-width="2" fill="none" />
<polyline points="443.5,175.5,451.0,168.0,459.0,160.5,466.5,153.5,474.0,145.5,482.5,138.0,490.5,129.5,499.0,122.0,507.0,114.5,515.0,107.0" stroke="black" stroke-width="2" fill="none" />
<polyline points="514.0,113.0,506.5,121.0,499.0,129.5,491.0,137.5,482.5,145.0,474.5,153.0,466.5,160.5,458.5,168.0,450.5,175.5,442.0,183.5" stroke="black" stroke-width="2" fill="none" />
<polyline points="436.0,176.0,443.5,168.5,451.0,160.5,458.5,152.5,466.5,144.0,474.5,136.5,482.0,129.0,490.0,121.5,498.0,114.0,506.0,106.5,514.0,99.0" stroke="black" stroke-width="2" fill="none" />
<polyline points="515.5,95.5,507.5,96.0" stroke="black" stroke-width="2" fill="none" />
<polyline points="515.5,91.0,507.5,98.5,500.0,106.0,492.0,114.0,484.5,122.0,476.5,130.0,469.0,137.0,460.5,144.5,452.5,151.5,445.0,158.5,437.5,165.0" stroke="black" stroke-width="2" fill="none" />
<polyline points="435.5,170.0,443.5,169.0" stroke="black" stroke-width="2" fill="none" />
<polyline points="435.5,172.0,436.0,180.0,429.0,188.0" stroke="black" stroke-width="2" fill="none" />
<polyline points="427.0,190.0,435.0,189.0,443.0,189.0,451.0,188.5,459.5,188.5" stroke="black" stroke-width="2" fill="none" />
<polyline points="467.5,186.0,475.5,178.5,484.0,171.0,491.5,164.5" stroke="black" stroke-width="2" fill="none" />
<polyline points="498.5,171.5,490.5,178.5,482.5,186.0" stroke="black" stroke-width="2" fill="none" />
<polyline points="483.0,199.5,493.0,207.5,512.0,211.5" stroke="black" stroke-width="2" fill="none" />
<polyline points="516.0,205.0,507.5,205.0,499.0,205.5" stroke="black" stroke-width="2" fill="none" />
<polyline points="496.5,212.5,504.5,224.5" stroke="black" stroke-width="2" fill="none" />
<polyline points="515.5,212.5,507.0,213.0,499.0,213.5,491.0,214.0" stroke="black" stroke-width="2" fill="none" />
<polyline points="494.0,218.5,486.5,207.5" stroke="black" stroke-width="2" fill="none" />
<polyline points="486.0,206.5,494.0,214.5,499.5,225.0,499.5,233.0,505.0,240.0,506.0,248.0,503.0,256.0,510.5,257.0,510.0,263.5,511.0,266.5" stroke="black" stroke-width="2" fill="none" />
<polyline points="515.5,292.5,507.0,293.5,498.5,294.0,490.0,295.0,482.5,295.5,474.5,296.5,466.0,297.5,458.0,298.0,450.0,298.5,442.5,299.5,435.0,299.5,427.0,299.5,418.5,300.5,411.0,301.5" stroke="black" stroke-width="2" fill="none" />
<polyline points="410.0,294.0,418.0,287.0,426.5,280.0,434.5,273.0,442.0,265.5,449.5,258.0,457.5,251.0,465.0,243.5,473.0,236.0" stroke="black" stroke-width="2" fill="none" />
<polyline points="466.0,235.0,458.5,242.5,450.5,250.0,442.5,258.0,434.0,265.5,426.5,272.5,418.5,279.5,410.0,287.0,402.5,294.5" stroke="black" stroke-width="2" fill="none" />
<polyline points="401.5,293.0,409.5,293.0,417.0,293.0,425.0,293.0,433.5,292.5,441.5,292.0,449.5,291.0,458.0,290.0,466.0,289.0,474.0,288.0,481.5,287.0,490.0,287.0,498.5,287.0,506.5,287.0,515.0,286.5" stroke="black" stroke-width="2" fill="none" />
<polyline points="516.0,310.5,507.5,311.0,499.0,311.5,490.5,312.0,482.5,312.0,474.5,312.5,467.0,313.0,459.0,313.5,450.5,314.0,443.0,314.5,434.5,315.0,426.0,316.0,417.5,317.0,409.5,318.0,401.0,318.5" stroke="black" stroke-width="2" fill="none" />
<polyline points="401.0,297.0,409.0,297.0,417.5,297.5" stroke="black" stroke-width="2" fill="none" />
<polyline points="404.5,291.0,412.0,283.5" stroke="black" stroke-width="2" fill="none" />
<polyline points="411.0,287.5,403.0,287.5,395.0,288.0" stroke="black" stroke-width="2" fill="none" />
<polyline points="387.5,287.5,395.5,280.0,403.5,272.5,411.0,265.5,419.5,257.5,428.0,249.5,436.5,242.0,444.0,234.5,452.0,227.0" stroke="black" stroke-width="2" fill="none" />
<polyline points="451.0,219.0,443.0,227.0,435.5,234.5,427.5,242.0,420.0,249.5,411.5,257.5,404.0,265.0" stroke="black" stroke-width="2" fill="none" />
<polyline points="396.5,265.0,404.5,264.0,412.5,263.5,421.0,263.0,429.5,263.5,437.5,263.5,445.5,263.0,452.5,262.5,460.0,262.5,468.0,263.0" stroke="black" stroke-width="2" fill="none" />
<polyline points="468.5,279.5,476.5,277.5,485.0,274.0,493.0,257.0,500.5,261.0,509.5,265.5" stroke="black" stroke-width="2" fill="none" />
<polyline points="515.0,267.5,506.5,268.5,498.0,269.5,490.0,270.0,482.0,270.0,474.0,270.0,466.0,270.5,458.0,270.5,450.0,270.5,442.0,271.0,434.0,271.0,425.5,271.5,417.0,272.5,409.5,273.0,401.0,274.0,393.5,274.5,385.5,275.0,378.0,275.5,370.0,276.5" stroke="black" stroke-width="2" fill="none" />
<polyline points="370.0,273.0,378.5,272.5" stroke="black" stroke-width="2" fill="none" />
<polyline points="380.0,271.0,387.5,263.5,395.0,256.0,402.0,248.5,410.0,240.5,417.5,232.5,425.5,224.0,433.5,216.5,441.5,209.5" stroke="black" stroke-width="2" fill="none" />
<polyline points="438.5,208.0,446.0,213.0,455.5,215.0,460.5,223.0,459.5,231.5,454.0,234.5,462.5,237.0,470.5,237.0,478.5,223.5,480.5,229.0,479.0,228.0,474.0,230.0,477.5,241.0,491.0,248.0,496.0,254.0,496.5,260.5,493.0,270.0,488.0,278.0,491.0,279.0,490.5,274.0,496.5,267.5,504.5,258.0,507.5,260.0" stroke="black" stroke-width="2" fill="none" />
<polyline points="517.0,252.0,508.5,252.0,500.0,252.5,491.0,253.0,482.5,253.5,474.0,254.5,466.0,254.5,458.5,255.0,451.0,255.5,443.0,255.5,435.0,256.0,427.0,256.5,419.0,257.5,411.0,258.0,403.0,258.5,395.5,259.0,388.0,260.0,380.0,260.0,372.0,260.5,364.5,261.0,356.5,261.5" stroke="black" stroke-width="2" fill="none" />
<polyline points="357.5,265.0,365.5,264.5" stroke="black" stroke-width="2" fill="none" />
<polyline points="363.5,264.0,371.0,256.5,378.5,249.0,386.5,241.5,395.5,233.5,403.5,225.0,412.0,217.0,420.0,209.5,428.0,202.0" stroke="black" stroke-width="2" fill="none" />
<polyline points="435.0,202.5,426.5,210.0" stroke="black" stroke-width="2" fill="none" />
<polyline points="421.5,205.0,413.5,212.5,405.0,219.5,396.5,226.5,387.5,233.0,379.0,239.5" stroke="black" stroke-width="2" fill="none" />
<polyline points="380.0,238.0,388.0,237.5,396.0,237.0,404.0,237.0,411.5,237.0,418.5,236.5,426.5,235.5,434.5,235.0,442.0,234.5,449.5,233.5,458.0,232.5,465.5,232.0,473.5,231.5,481.5,231.0" stroke="black" stroke-width="2" fill="none" />
<polyline points="468.0,228.0,460.0,235.5,451.0,243.5,443.0,251.0,435.0,258.0,427.0,265.5,419.0,272.5" stroke="black" stroke-width="2" fill="none" />
<polyline points="412.0,271.5,420.0,264.0,428.0,257.0,436.0,249.5,443.5,242.5,451.0,235.0,458.5,227.0,466.0,220.0" stroke="black" stroke-width="2" fill="none" />
<polyline points="466.5,222.5,464.0,231.0,474.0,238.5,472.0,247.0,468.5,255.0" stroke="black" stroke-width="2" fill="none" />
<polyline points="484.0,253.5,491.5,261.0,488.5,269.0,484.5,277.5" stroke="black" stroke-width="2" fill="none" />
<polyline points="474.5,236.0,466.0,237.0,457.5,237.5,450.0,238.0,443.0,238.0,436.0,238.0,428.0,238.0,420.0,238.0,412.5,238.5,404.0,239.5,396.0,240.5,388.0,240.5,380.0,241.0" stroke="black" stroke-width="2" fill="none" />
<polyline points="377.5,245.5,385.5,232.5" stroke="black" stroke-width="2" fill="none" />
<polyline points="389.5,233.0,397.5,232.0,405.0,231.5,412.5,231.0,421.0,230.5,428.5,230.5,436.0,230.0,443.5,230.0,451.5,229.5" stroke="black" stroke-width="2" fill="none" />
<polyline points="462.0,239.5,466.0,239.5,475.5,248.5,478.5,245.0,481.5,252.0,490.0,255.5,498.0,244.5" stroke="black" stroke-width="2" fill="none" />
<polyline points="483.0,239.0,474.5,240.0,467.0,240.5,459.5,241.0,451.5,242.0,443.5,242.0,435.0,242.5,427.0,243.5,419.5,244.0,411.5,245.0,403.5,245.0,395.5,245.5,387.0,246.0,378.5,246.5,370.0,247.0" stroke="black" stroke-width="2" fill="none" />
<polyline points="369.0,250.0,367.0,258.0,366.0,265.5,373.5,268.0,373.5,265.0,381.5,264.0,381.5,262.0,389.0,266.0,396.5,269.5,404.5,273.0,412.5,279.5" stroke="black" stroke-width="2" fill="none" />
<polyline points="412.0,275.5,412.0,283.5,418.0,289.0" stroke="black" stroke-width="2" fill="none" />
<polyline points="402.0,283.5,393.5,291.0" stroke="black" stroke-width="2" fill="none" />
<polyline points="379.5,283.5,387.0,275.5" stroke="black" stroke-width="2" fill="none" />
<polyline points="395.0,278.0,387.0,278.5,379.0,279.0" stroke="black" stroke-width="2" fill="none" />
<polyline points="370.5,271.0,378.0,263.5,386.5,255.5,394.5,248.0,402.5,240.0,411.0,232.0,419.0,224.5,427.5,217.0,435.5,209.0" stroke="black" stroke-width="2" fill="none" />
<polyline points="436.0,217.5,427.5,217.5" stroke="black" stroke-width="2" fill="none" />
<polyline points="420.0,219.5,412.0,226.5,404.5,234.0,396.0,241.5,388.0,249.0,379.5,256.5" stroke="black" stroke-width="2" fill="none" />
<polyline points="361.5,260.0,353.5,268.0" stroke="black" stroke-width="2" fill="none" />
<polyline points="340.0,248.5,348.0,241.0,356.0,233.0,363.5,226.0,371.0,219.0,379.0,212.0,387.0,204.5" stroke="black" stroke-width="2" fill="none" />
<polyline points="392.0,206.0,400.0,203.5,396.0,211.5,395.0,219.0,396.5,219.5,392.5,232.0,384.0,234.0,380.0,242.0,376.0,241.5,384.5,227.5,388.5,219.5" stroke="black" stroke-width="2" fill="none" />
<polyline points="389.0,217.5,397.0,210.0,405.0,202.5,413.0,194.5" stroke="black" stroke-width="2" fill="none" />
<polyline points="416.0,195.5,435.0,207.5,451.0,216.0,453.0,224.0,452.0,232.0,463.0,239.0,475.0,242.5,478.0,250.0,477.0,257.5,473.0,265.5,471.0,273.5,476.0,281.5,473.0,294.0,466.0,302.0,473.0,306.0" stroke="black" stroke-width="2" fill="none" />
<polyline points="490.0,341.0,473.0,333.0,464.0,325.5,458.0,315.5,443.0,310.0,438.0,311.0,429.5,311.0" stroke="black" stroke-width="2" fill="none" />
<polyline points="380.0,233.5,388.5,226.0,397.0,218.5,405.5,211.0,413.5,203.0" stroke="black" stroke-width="2" fill="none" />
<polyline points="418.0,196.5,409.5,197.0,402.0,197.5" stroke="black" stroke-width="2" fill="none" />
<polyline points="399.0,202.5,398.0,211.0" stroke="black" stroke-width="2" fill="none" />
<polyline points="395.0,216.5,403.0,216.0,411.5,215.5,420.0,215.5" stroke="black" stroke-width="2" fill="none" />
<polyline points="420.0,214.0,412.0,212.5" stroke="black" stroke-width="2" fill="none" />
<polyline points="417.0,195.5,425.0,199.5,437.5,204.5,457.5,207.5" stroke="black" stroke-width="2" fill="none" />
<polyline points="458.5,207.0,466.0,206.5,474.0,205.5" stroke="black" stroke-width="2" fill="none" />
<polyline points="474.0,212.0,466.5,212.5,458.5,213.0" stroke="black" stroke-width="2" fill="none" />
<polyline points="450.5,200.0,443.0,200.0" stroke="black" stroke-width="2" fill="none" />
<polyline points="441.5,196.0,450.0,196.0,458.5,196.0,466.5,196.0" stroke="black" stroke-width="2" fill="none" />
<polyline points="467.5,216.0,459.5,216.5,451.0,217.0,443.0,217.5,434.5,218.5,426.5,219.0,418.5,219.5,411.0,220.0,403.0,220.5,395.0,222.0,387.5,223.0" stroke="black" stroke-width="2" fill="none" />
<polyline points="390.0,225.0,398.0,224.5,405.0,224.0,412.5,223.0,420.5,222.5,428.0,222.0,435.5,222.0" stroke="black" stroke-width="2" fill="none" />
<polyline points="418.0,181.5,425.5,181.0,433.5,180.5,441.5,180.0,449.5,179.5,457.5,179.0,465.5,178.5,474.0,177.5,482.0,176.5,490.5,176.0,498.5,175.0,506.5,175.0,514.0,175.0" stroke="black" stroke-width="2" fill="none" />
<polyline points="513.5,137.0,505.5,137.5,497.0,138.0" stroke="black" stroke-width="2" fill="none" />
<polyline points="499.5,89.0,507.5,88.5" stroke="black" stroke-width="2" fill="none" />
<polyline points="515.5,84.5,508.0,92.0,500.5,99.0,493.5,106.5,486.0,114.0,478.0,121.0,469.5,128.0,461.5,135.0,453.0,141.5,445.0,148.5,437.0,156.0,429.5,163.5" stroke="black" stroke-width="2" fill="none" />
<polyline points="420.5,165.0,428.5,157.0,436.5,149.5,445.0,142.5,453.5,136.0,461.5,129.0,470.0,121.0,478.0,113.5,486.0,106.0,494.0,99.0,502.0,92.0,509.5,84.0,517.5,76.5" stroke="black" stroke-width="2" fill="none" />
<polyline points="516.5,68.0,509.0,75.5,501.0,83.0,493.0,91.0,485.0,99.0,476.5,106.5,468.5,114.5,460.5,121.5,452.5,129.0,444.0,136.5,436.0,144.0,428.0,151.5,419.5,158.5,411.5,165.5,403.5,173.0" stroke="black" stroke-width="2" fill="none" />
<polyline points="401.5,168.5,409.5,168.0,418.0,168.0" stroke="black" stroke-width="2" fill="none" />
<polyline points="416.5,171.0,406.5,179.0,410.0,175.5,418.0,171.5,426.0,173.5,433.5,173.0" stroke="black" stroke-width="2" fill="none" />
<polyline points="417.0,143.5,425.5,143.0,434.0,143.0,442.5,142.5,450.5,142.0,458.5,141.5,466.5,141.5,474.5,141.0,482.0,141.0,490.0,141.0,498.5,140.0,506.5,139.5,514.0,139.0" stroke="black" stroke-width="2" fill="none" />
<polyline points="500.5,67.0,492.5,67.0,484.5,67.0" stroke="black" stroke-width="2" fill="none" />
<polyline points="491.0,57.0,498.5,56.5" stroke="black" stroke-width="2" fill="none" />
<polyline points="515.5,52.5,507.5,59.5,499.5,67.0,491.5,74.5,484.0,82.5,476.0,90.0,467.5,96.5,459.5,103.5,451.0,110.5,442.5,117.5,435.0,125.0,426.5,133.0,418.5,141.0,410.5,148.5,403.0,156.0,395.5,163.5,387.5,171.0" stroke="black" stroke-width="2" fill="none" />
<polyline points="386.5,174.0,395.0,173.5,402.5,173.0,410.5,172.5,418.5,171.5,426.5,171.0,434.5,170.5,443.0,170.5,451.5,170.5,459.5,169.0,467.0,168.5,475.0,168.0,483.5,168.0,492.0,167.0,500.5,166.0,508.5,165.0,517.0,165.0" stroke="black" stroke-width="2" fill="none" />
<polyline points="492.0,134.0,484.0,134.5,476.0,134.5,468.5,134.5,460.5,135.0,452.5,135.5,445.0,135.5,437.0,136.5" stroke="black" stroke-width="2" fill="none" />
<polyline points="427.5,129.0,435.5,128.5,443.5,128.0,452.0,128.0,460.0,127.5,468.0,127.0,476.0,127.0,484.5,126.5,493.0,126.0,501.0,125.0,509.0,124.5,517.0,124.5" stroke="black" stroke-width="2" fill="none" />
<polyline points="517.5,60.5,509.0,68.0,501.0,75.0,492.5,82.5,484.0,90.5,475.5,98.5,467.0,105.5,459.0,113.0,451.0,120.0,443.0,127.5,435.0,135.0,427.0,142.5,419.0,150.5,411.0,158.5,403.0,166.0,395.5,173.5" stroke="black" stroke-width="2" fill="none" />
<polyline points="387.5,164.0,395.5,157.0,404.0,149.0,412.0,141.0,419.5,133.5,426.5,126.0,434.5,118.5,442.5,111.0,450.5,104.0,458.5,96.0,467.5,88.5,476.0,80.5,484.0,73.5,492.0,66.0,500.0,59.0,508.0,51.5,516.0,44.0" stroke="black" stroke-width="2" fill="none" />
<polyline points="516.5,35.0,507.5,42.5,499.0,50.5,491.0,58.5,482.5,66.5,475.0,74.0,466.5,82.0,458.5,89.0,450.5,96.5,442.5,104.0,434.5,111.5,426.5,119.0,419.0,126.0,411.5,133.0,403.0,140.0,395.0,147.0,387.0,155.0,379.0,163.0" stroke="black" stroke-width="2" fill="none" />
<polyline points="378.0,164.0,386.0,163.5,394.0,163.5,401.5,163.0,409.5,162.0,417.5,161.5,425.5,160.5,433.5,159.5,441.5,159.0,450.0,159.0,458.5,159.0,466.5,158.0,473.5,157.0,481.0,157.5,489.0,158.0,497.0,158.0,505.5,158.5,514.0,158.0" stroke="black" stroke-width="2" fill="none" />
<polyline points="515.5,118.0,507.5,118.0,499.5,118.0,491.5,118.5,483.5,119.0,475.0,119.5,467.5,120.0,460.0,120.5,452.5,121.0,444.5,121.0,437.0,122.0" stroke="black" stroke-width="2" fill="none" />
<polyline points="434.5,114.5,443.0,114.0,451.5,113.5,459.5,112.5,467.5,111.5,476.0,111.0,484.0,110.5,491.5,110.5,499.0,110.0,507.0,110.0,515.0,109.0" stroke="black" stroke-width="2" fill="none" />
<polyline points="484.5,56.0,476.5,56.0,468.5,56.5" stroke="black" stroke-width="2" fill="none" />
<polyline points="469.0,48.0,477.0,47.5,485.0,47.0" stroke="black" stroke-width="2" fill="none" />
<polyline points="476.5,39.5,485.0,39.0,493.0,39.0,501.0,39.0" stroke="black" stroke-width="2" fill="none" />
<polyline points="507.5,24.0,515.0,23.5" stroke="black" stroke-width="2" fill="none" />
<polyline points="515.0,19.5,507.0,26.5,499.0,34.0,491.5,41.5,484.0,48.5,476.5,56.0,469.0,64.0,461.0,71.5,453.0,79.5,445.0,87.5,437.0,95.0,429.5,102.5,422.0,110.0,414.0,117.0,406.5,124.0,398.0,131.5,390.0,138.5,381.5,146.0,373.5,153.5" stroke="black" stroke-width="2" fill="none" />
<polyline points="371.0,153.5,379.0,153.0,386.5,153.0,394.0,152.5,402.0,153.0,410.0,153.0,417.5,152.0,425.5,151.0,433.0,150.5" stroke="black" stroke-width="2" fill="none" />
<polyline points="418.0,136.5,410.0,137.0,402.5,137.5" stroke="black" stroke-width="2" fill="none" />
<polyline points="394.5,135.0,387.0,135.5" stroke="black" stroke-width="2" fill="none" />
<polyline points="386.0,123.5,378.0,131.0,370.0,138.5,361.5,146.5" stroke="black" stroke-width="2" fill="none" />
<polyline points="363.0,141.5,371.0,140.5,379.0,140.0,387.0,139.5,394.5,139.0,402.5,138.5,410.0,138.5,418.0,137.5,426.0,137.5,433.5,137.0,441.5,136.0,449.5,136.0,457.0,136.0,465.0,136.0,473.5,135.5,481.5,135.0,489.5,134.0,498.0,133.0,506.0,132.0,514.0,131.0" stroke="black" stroke-width="2" fill="none" />
<polyline points="468.0,64.5,460.0,65.0" stroke="black" stroke-width="2" fill="none" />
<polyline points="458.5,41.0,467.0,40.5" stroke="black" stroke-width="2" fill="none" />
<polyline points="467.0,33.0,475.0,32.5,483.5,31.5,491.5,31.5,499.0,31.5,507.5,31.5,515.5,30.5" stroke="black" stroke-width="2" fill="none" />
<polyline points="515.5,28.0,507.5,35.5,499.5,42.5,491.5,49.5,483.5,56.5,475.5,64.0,468.0,72.0,459.5,80.5,451.5,88.5,443.0,96.5,434.5,104.5,427.0,111.5,420.0,118.0,412.5,125.0,404.5,132.5,396.0,140.0,388.0,147.5,380.0,154.5" stroke="black" stroke-width="2" fill="none" />
<polyline points="386.5,161.0,394.5,160.5,403.0,160.0,411.0,159.5,419.0,159.5,427.5,158.5,435.5,159.0" stroke="black" stroke-width="2" fill="none" />
<polyline points="386.5,168.5,378.5,168.5" stroke="black" stroke-width="2" fill="none" />
<polyline points="379.0,161.5,371.0,162.0" stroke="black" stroke-width="2" fill="none" />
<polyline points="371.5,164.0,363.5,164.5,355.0,165.0,346.5,166.0,338.5,166.5" stroke="black" stroke-width="2" fill="none" />
<polyline points="330.5,150.5,338.5,150.0,346.5,150.0,354.5,149.5" stroke="black" stroke-width="2" fill="none" />
<polyline points="347.5,140.5,339.0,141.0" stroke="black" stroke-width="2" fill="none" />
<polyline points="348.5,133.5,356.5,132.5" stroke="black" stroke-width="2" fill="none" />
<polyline points="357.5,127.5,366.0,127.0,373.0,126.0,380.5,125.5,388.5,124.5,396.5,123.5,404.0,123.0,411.5,122.5,419.5,122.0,427.0,122.0,434.5,121.5,442.5,121.0,450.5,120.5,458.5,120.0,466.5,119.0,474.5,118.5,482.5,117.5,490.0,117.5,498.5,117.5,506.5,117.0,514.5,116.5" stroke="black" stroke-width="2" fill="none" />
<polyline points="515.0,100.0,506.5,100.5,499.0,100.5,491.0,101.0,483.5,101.5,476.0,102.5,467.5,103.5,460.0,104.0,452.0,104.5,444.5,105.0,436.5,105.5" stroke="black" stroke-width="2" fill="none" />
<polyline points="436.0,91.5,444.0,91.0,452.0,90.0,460.0,89.0,468.0,88.5,476.0,87.5,483.0,86.0,490.5,85.0" stroke="black" stroke-width="2" fill="none" />
<polyline points="499.0,75.5,491.0,76.5,483.5,77.5,476.0,78.5,468.0,79.5,459.5,80.0,451.5,81.5,443.5,83.0,435.5,83.5" stroke="black" stroke-width="2" fill="none" />
<polyline points="427.0,65.5,435.0,65.0,443.5,65.0" stroke="black" stroke-width="2" fill="none" />
<polyline points="434.5,60.0,442.5,59.0,450.5,58.5,458.5,57.5" stroke="black" stroke-width="2" fill="none" />
<polyline points="436.0,50.5,428.0,51.0" stroke="black" stroke-width="2" fill="none" />
<polyline points="421.5,28.5,413.5,36.0,405.0,43.0,396.5,50.0" stroke="black" stroke-width="2" fill="none" />
<polyline points="394.5,57.5,403.0,49.5,411.0,41.5,419.5,34.0,427.5,26.0" stroke="black" stroke-width="2" fill="none" />
<polyline points="428.5,15.0,436.5,14.5,444.5,13.5,452.5,13.0,460.5,13.0,468.5,12.5,476.0,12.0,484.0,11.5,492.0,11.0,500.0,10.0,508.5,9.0,516.5,9.0" stroke="black" stroke-width="2" fill="none" />
<polyline points="517.0,10.5,508.5,18.5,500.5,26.0,492.5,33.5,485.0,41.5,477.0,49.0,469.5,56.0,461.5,63.5,453.5,71.0,445.5,78.5,437.5,86.5,430.0,93.5,421.5,100.5,413.5,108.0,405.5,116.0,397.5,124.0,389.0,131.5,380.5,138.5,372.0,146.0" stroke="black" stroke-width="2" fill="none" />
<polyline points="372.5,148.0,380.0,147.5,387.5,147.0,395.5,146.5,403.0,146.5,410.5,146.0,418.5,146.0,426.0,145.5,433.5,145.0,441.0,144.5,449.0,144.0,457.0,144.0,465.5,144.5,474.0,144.0,482.0,142.5,490.0,141.5,498.5,141.5,506.5,141.0,514.5,140.0" stroke="black" stroke-width="2" fill="none" />
<polyline points="490.0,94.5,482.0,94.5,474.0,95.0,465.5,95.5,457.0,95.0,449.0,95.0,441.0,94.5,433.5,94.0,426.5,95.0,418.5,96.0" stroke="black" stroke-width="2" fill="none" />
<polyline points="411.5,83.5,419.5,83.5,427.5,82.5" stroke="black" stroke-width="2" fill="none" />
<polyline points="411.5,75.0,419.5,74.0,427.0,73.5,434.5,73.0,443.0,72.0,451.0,71.0,459.0,70.5,466.5,70.0,474.0,69.5,481.5,68.5,490.0,68.5,498.0,68.0" stroke="black" stroke-width="2" fill="none" />
<polyline points="492.5,18.0,484.5,18.5" stroke="black" stroke-width="2" fill="none" />
<polyline points="490.0,4.5,482.0,12.0,474.5,19.0,467.0,26.5,459.5,33.5,451.5,41.0,444.5,48.5,437.0,55.5,429.5,63.5,421.5,71.0,413.5,79.0,405.5,86.5,397.0,93.5,388.5,101.0,379.5,108.5,371.0,115.5,362.5,122.5" stroke="black" stroke-width="2" fill="none" />
<polyline points="363.0,130.5,371.0,123.0,378.5,115.5,386.0,108.5,393.5,101.5,402.0,94.5,410.0,87.5,418.5,79.5,426.5,72.5,434.0,64.5,441.5,57.0,449.0,49.0,457.0,41.5,465.0,33.5,473.5,25.5,482.0,18.0,490.5,10.0,498.0,2.5" stroke="black" stroke-width="2" fill="none" />
<polyline points="498.5,11.5,490.5,18.5,482.5,26.0,474.5,33.5,466.0,41.0,458.0,48.5,450.0,56.0,442.0,63.5,434.5,71.5,427.0,80.0,419.0,87.5,411.0,95.0,402.5,102.5,394.5,109.5" stroke="black" stroke-width="2" fill="none" />
<polyline points="380.0,84.0,372.0,92.0,364.0,99.0,356.0,106.5,348.0,113.5" stroke="black" stroke-width="2" fill="none" />
<polyline points="348.0,110.5,356.0,110.0,364.5,109.5,372.5,109.0,380.5,108.5,388.0,108.0,396.0,107.5,403.5,107.0,410.5,106.5,418.0,105.5,425.5,105.0,433.5,104.5,441.5,104.0,449.5,103.0,458.0,102.5,466.5,102.5,474.5,102.5,482.5,102.5,490.5,103.0,498.5,102.5,506.5,102.0,514.5,101.0" stroke="black" stroke-width="2" fill="none" />
<polyline points="489.5,24.5,482.0,24.0,474.5,24.0,466.5,24.0" stroke="black" stroke-width="2" fill="none" />
<polyline points="466.0,21.0,458.5,28.5,451.0,36.0,444.0,43.0,436.5,50.5,429.0,58.5,421.5,65.5,413.5,72.5,405.5,80.5,397.5,88.5,389.5,95.5,381.5,103.0,374.0,111.0,366.0,118.0,358.0,125.0" stroke="black" stroke-width="2" fill="none" />
<polyline points="357.0,118.0,365.0,110.0,373.0,102.0,381.0,94.5,388.5,87.0,396.5,79.5,404.5,72.0,412.5,65.0,420.0,57.5,427.5,50.0,435.0,42.5,443.0,35.0,450.5,27.5,458.0,20.0,465.5,13.0" stroke="black" stroke-width="2" fill="none" />
<polyline points="474.0,9.5,482.5,1.5" stroke="black" stroke-width="2" fill="none" />
<polyline points="517.5,3.5,509.5,11.0,501.0,18.5,493.0,25.5,485.5,33.0,477.0,40.5,469.0,48.0,460.5,56.0,452.0,63.5,444.5,71.0,436.5,78.5,428.5,86.0,421.0,93.5,413.0,101.0,405.0,108.0,396.5,115.5,388.0,123.0,379.0,131.0,370.5,139.0" stroke="black" stroke-width="2" fill="none" />
<polyline points="364.0,137.0,371.5,136.5,379.5,136.0" stroke="black" stroke-width="2" fill="none" />
<polyline points="363.0,132.0,371.5,131.0,380.0,130.5,388.0,130.0,395.0,130.0,402.5,129.5,410.0,129.5,418.0,128.5,425.5,128.0,433.5,128.0,441.5,127.5,449.5,127.0,458.0,127.0,467.0,126.5,475.5,125.5,484.0,125.0,492.0,125.0,499.5,125.0,507.5,124.5,515.5,124.5" stroke="black" stroke-width="2" fill="none" />
<polyline points="516.0,107.5,508.0,108.5,500.0,109.0,491.5,109.5,483.0,109.5,475.0,110.0,467.5,110.0,459.5,109.5,451.0,110.5,443.0,110.5,435.0,111.0,426.5,111.5,418.5,112.0,410.5,112.5,402.5,113.5,394.5,114.0,386.5,114.5,378.0,115.0,370.0,115.5,362.0,116.0,354.5,117.0,346.5,117.5,338.5,118.0" stroke="black" stroke-width="2" fill="none" />
<polyline points="340.5,115.5,348.5,121.5,356.5,135.5" stroke="black" stroke-width="2" fill="none" />
<polyline points="365.0,154.0,373.5,168.5,386.5,181.5,386.5,189.5,387.0,188.0,398.0,194.0,405.0,192.5,413.0,198.0,421.0,203.0,429.0,205.0,437.5,209.0,445.5,209.0,458.0,215.5,465.5,215.5" stroke="black" stroke-width="2" fill="none" />
<polyline points="473.0,219.0,465.0,219.5,457.5,220.0,449.5,220.0,442.0,221.0,434.5,222.5,426.5,223.5,418.5,223.5,410.5,223.5,403.0,224.0,395.0,224.5,386.5,225.0,378.0,226.0,370.0,226.5,361.5,227.5,353.5,228.0,345.5,228.5,337.5,229.0,330.0,229.0" stroke="black" stroke-width="2" fill="none" />
<polyline points="331.5,232.0,339.5,232.0,347.5,231.5,355.5,231.5,363.5,231.5,371.5,231.5,380.0,231.0" stroke="black" stroke-width="2" fill="none" />
<polyline points="378.0,226.0,370.5,234.0,362.5,242.0,354.5,249.5" stroke="black" stroke-width="2" fill="none" />
<polyline points="346.5,250.0,354.0,241.5,362.0,233.5,369.5,226.0,377.5,218.5" stroke="black" stroke-width="2" fill="none" />
<polyline points="371.0,210.0,379.5,203.0,388.0,196.0" stroke="black" stroke-width="2" fill="none" />
<polyline points="386.5,193.0,378.5,194.0,370.5,194.5,362.0,195.5,354.0,196.0,346.0,196.5,338.5,196.5,330.5,197.5,322.5,198.5,315.0,199.5" stroke="black" stroke-width="2" fill="none" />
<polyline points="314.0,200.5,306.0,201.0,298.5,201.5,290.5,202.0,282.5,202.5,275.0,203.0,267.5,203.5,260.0,204.0,252.5,204.0,244.5,204.5,236.5,204.5,228.0,205.0" stroke="black" stroke-width="2" fill="none" />
<polyline points="225.0,204.5,233.5,205.0,241.0,205.5,249.0,205.5,257.0,203.0,261.0,206.5,261.0,214.5,261.0,222.5" stroke="black" stroke-width="2" fill="none" />
<polyline points="259.0,226.0,267.5,218.5" stroke="black" stroke-width="2" fill="none" />
<polyline points="267.5,211.5,259.5,219.0,251.0,226.0" stroke="black" stroke-width="2" fill="none" />
<polyline points="242.5,226.0,251.0,219.0,259.5,211.0,267.5,203.0" stroke="black" stroke-width="2" fill="none" />
<polyline points="267.0,205.5,260.0,206.5,252.5,207.0,244.5,207.5,237.0,208.0" stroke="black" stroke-width="2" fill="none" />
<polyline points="235.5,199.5,243.5,198.5,251.5,198.5" stroke="black" stroke-width="2" fill="none" />
<polyline points="254.0,205.0,246.0,211.5,237.5,218.5,229.0,226.0" stroke="black" stroke-width="2" fill="none" />
<polyline points="228.0,222.0,236.0,221.5" stroke="black" stroke-width="2" fill="none" />
<polyline points="234.5,225.5,242.0,218.0,250.0,210.5,258.0,203.0" stroke="black" stroke-width="2" fill="none" />
<polyline points="259.0,194.5,267.5,187.0,276.0,179.0,284.0,172.0" stroke="black" stroke-width="2" fill="none" />
<polyline points="283.0,175.5,292.0,183.5" stroke="black" stroke-width="2" fill="none" />
<polyline points="292.5,178.0,284.5,185.0" stroke="black" stroke-width="2" fill="none" />
<polyline points="284.0,178.0,276.0,186.0,267.0,194.0" stroke="black" stroke-width="2" fill="none" />
<polyline points="267.5,195.0,275.0,194.5,283.0,194.0,290.5,193.5,298.5,194.0,306.0,193.5" stroke="black" stroke-width="2" fill="none" />
<polyline points="306.0,200.0,314.0,207.0,322.0,211.0,330.0,218.5,350.0,227.5" stroke="black" stroke-width="2" fill="none" />
<polyline points="356.0,219.5,348.0,227.0,339.5,234.5,331.0,242.0" stroke="black" stroke-width="2" fill="none" />
<polyline points="329.5,245.5,337.5,245.0,346.0,244.0,354.5,243.5,363.5,243.5" stroke="black" stroke-width="2" fill="none" />
<polyline points="362.0,221.5,354.5,229.0,347.0,236.0,339.5,242.5" stroke="black" stroke-width="2" fill="none" />
<polyline points="339.0,243.0,347.0,242.5,355.0,241.0,362.5,240.5,370.5,240.0" stroke="black" stroke-width="2" fill="none" />
<polyline points="348.0,217.0,340.0,224.5,332.0,232.5" stroke="black" stroke-width="2" fill="none" />
<polyline points="330.5,237.0,338.0,237.0,346.0,236.5,354.5,236.0,363.0,235.5,371.0,234.5" stroke="black" stroke-width="2" fill="none" />
<polyline points="371.5,201.5,380.0,194.5" stroke="black" stroke-width="2" fill="none" />
<polyline points="379.0,187.0,370.5,194.5" stroke="black" stroke-width="2" fill="none" />
<polyline points="383.5,179.5,392.5,191.5,393.0,199.5,393.0,207.5,390.0,216.0,384.5,224.0,386.5,226.5,380.5,232.5,376.5,240.5,373.5,247.5,376.0,254.5,368.0,262.5,374.0,269.5,379.0,271.5,398.0,279.0,403.5,283.0,412.0,283.0,414.0,287.5,422.0,285.0,425.0,281.5" stroke="black" stroke-width="2" fill="none" />
<polyline points="362.5,247.5,354.0,248.0,345.5,248.0,337.0,248.0" stroke="black" stroke-width="2" fill="none" />
<polyline points="333.0,248.5,340.5,255.5,349.0,255.5,357.0,253.5,365.5,247.5,373.5,236.5,382.0,220.5" stroke="black" stroke-width="2" fill="none" />
<polyline points="378.5,217.5,370.5,218.5,363.0,219.0,355.5,219.0,347.0,219.5,339.0,219.5,330.5,219.5,322.5,220.0" stroke="black" stroke-width="2" fill="none" />
<polyline points="316.5,221.0,308.0,222.0" stroke="black" stroke-width="2" fill="none" />
<polyline points="307.0,201.0,316.0,209.5,328.0,217.5,337.0,221.5,333.5,230.0,333.5,238.0,333.0,243.5,333.5,251.5,337.0,260.5,356.0,268.5,368.0,276.5,377.0,284.5,390.5,292.5,404.0,300.0,415.5,307.5" stroke="black" stroke-width="2" fill="none" />
<polyline points="347.0,225.5,339.0,226.0" stroke="black" stroke-width="2" fill="none" />
<polyline points="332.5,226.5,340.5,222.5,348.5,226.0" stroke="black" stroke-width="2" fill="none" />
<polyline points="325.5,205.0,333.0,204.5,340.5,204.5,348.5,204.0,356.0,203.5,364.0,202.5,372.0,202.0,380.0,202.5,388.0,202.5,396.5,201.5,404.0,201.0,412.5,200.5,420.5,200.0,428.5,200.0,436.0,199.5,444.5,199.0" stroke="black" stroke-width="2" fill="none" />
<polyline points="451.0,201.5,443.0,202.0,435.0,203.0,427.5,204.0,419.5,205.0,412.0,205.0,404.0,205.5,396.5,206.0,388.5,206.5,380.5,207.5,372.5,208.0,364.5,209.0,356.0,209.5,348.0,210.0,339.5,210.5,331.5,210.5,323.0,210.5,315.0,211.5,307.0,212.5,299.0,212.5,291.0,212.5,283.0,212.5" stroke="black" stroke-width="2" fill="none" />
<polyline points="266.5,217.5,258.5,218.0" stroke="black" stroke-width="2" fill="none" />
<polyline points="268.5,218.5,261.0,219.0,252.5,219.5,245.0,220.0,237.0,220.5,229.0,220.5" stroke="black" stroke-width="2" fill="none" />
<polyline points="228.5,216.5,237.0,216.0,245.0,215.5" stroke="black" stroke-width="2" fill="none" />
<polyline points="227.0,214.0,235.5,214.0,243.5,213.5,251.5,213.0,259.0,212.5,266.5,212.0" stroke="black" stroke-width="2" fill="none" />
<polyline points="267.0,206.0,267.0,209.5,275.5,218.5" stroke="black" stroke-width="2" fill="none" />
<polyline points="251.5,195.0,243.5,195.0,236.0,196.0" stroke="black" stroke-width="2" fill="none" />
<polyline points="235.5,195.0,243.5,188.0,251.5,180.0,259.5,172.0,267.5,164.5,275.5,157.0" stroke="black" stroke-width="2" fill="none" />
<polyline points="275.0,162.5,283.0,161.5" stroke="black" stroke-width="2" fill="none" />
<polyline points="284.0,164.5,276.0,172.0,267.5,180.0,259.0,188.0,250.5,195.5,242.5,202.5,234.5,210.0,227.0,217.0" stroke="black" stroke-width="2" fill="none" />
<polyline points="227.5,208.5,234.5,201.0,242.0,194.0,250.0,186.5,258.5,179.0,266.5,171.5,275.0,164.5,283.0,157.0" stroke="black" stroke-width="2" fill="none" />
<polyline points="283.0,150.5,285.5,158.5,280.5,166.5,273.5,174.5,276.5,180.5,276.5,181.0" stroke="black" stroke-width="2" fill="none" />
<polyline points="283.0,175.5,275.5,176.0,268.0,176.0,260.5,176.0,253.0,176.0,245.5,177.0" stroke="black" stroke-width="2" fill="none" />
<polyline points="244.5,171.0,236.0,179.0,228.0,186.5,219.5,194.0" stroke="black" stroke-width="2" fill="none" />
<polyline points="217.5,188.0,225.5,197.5,233.5,188.0,229.5,192.0,231.0,196.0,232.0,195.5,226.0,209.0,227.0,217.0,226.0,224.5,228.5,227.5,236.5,226.5,244.5,226.5,252.5,227.0,260.5,227.0" stroke="black" stroke-width="2" fill="none" />
<polyline points="248.5,202.0,254.5,194.0,256.5,193.0,253.5,190.5" stroke="black" stroke-width="2" fill="none" />
<polyline points="262.0,181.0,262.0,181.0,268.0,189.0" stroke="black" stroke-width="2" fill="none" />
<polyline points="266.5,190.0,258.5,190.5,250.5,191.5,242.5,192.5,234.5,193.0,226.5,193.5" stroke="black" stroke-width="2" fill="none" />
<polyline points="227.5,193.0,235.0,185.5,243.0,178.0,250.5,170.5,258.5,163.0,266.5,155.0" stroke="black" stroke-width="2" fill="none" />
<polyline points="259.0,154.5,267.0,147.0" stroke="black" stroke-width="2" fill="none" />
<polyline points="266.0,140.5,274.5,140.5" stroke="black" stroke-width="2" fill="none" />
<polyline points="275.0,140.0,283.5,132.5" stroke="black" stroke-width="2" fill="none" />
<polyline points="284.0,138.0,292.0,130.5,300.0,122.5" stroke="black" stroke-width="2" fill="none" />
<polyline points="300.5,130.5,292.0,137.5" stroke="black" stroke-width="2" fill="none" />
<polyline points="299.0,138.5,307.0,138.5" stroke="black" stroke-width="2" fill="none" />
<polyline points="307.0,137.5,298.5,145.5" stroke="black" stroke-width="2" fill="none" />
<polyline points="300.0,137.5,308.0,130.5" stroke="black" stroke-width="2" fill="none" />
<polyline points="321.5,126.0,329.5,125.0" stroke="black" stroke-width="2" fill="none" />
<polyline points="331.0,127.5,318.5,135.5,306.5,143.5" stroke="black" stroke-width="2" fill="none" />
<polyline points="284.0,137.5,276.5,138.0" stroke="black" stroke-width="2" fill="none" />
<polyline points="274.5,132.0,282.5,123.5" stroke="black" stroke-width="2" fill="none" />
<polyline points="275.5,126.0,267.5,134.0" stroke="black" stroke-width="2" fill="none" />
<polyline points="267.5,135.5,260.5,131.5,253.0,132.0,244.5,132.0,236.5,132.5,229.0,132.0" stroke="black" stroke-width="2" fill="none" />
<polyline points="229.5,132.0,237.0,132.0,245.0,132.0" stroke="black" stroke-width="2" fill="none" />
<polyline points="250.5,130.5,258.5,123.5,266.0,116.0" stroke="black" stroke-width="2" fill="none" />
<polyline points="267.0,114.5,270.0,111.5,270.0,119.5" stroke="black" stroke-width="2" fill="none" />
<polyline points="276.0,117.0,268.5,124.0,260.5,131.0,253.0,138.5,244.5,146.5,236.0,154.0,228.0,161.0,219.0,168.5,210.5,176.0,202.0,183.5" stroke="black" stroke-width="2" fill="none" />
<polyline points="193.5,185.5,201.0,178.0,209.0,170.5,217.5,162.5,225.5,155.0,234.0,148.0,242.5,140.0" stroke="black" stroke-width="2" fill="none" />
<polyline points="245.5,141.5,243.5,142.0,243.5,156.0,239.5,156.0,248.0,156.0,256.0,154.5,256.5,148.5,256.5,149.0,259.5,150.0,254.0,157.5,247.0,165.5,243.0,174.0,243.0,182.0,246.0,190.5,244.0,198.5" stroke="black" stroke-width="2" fill="none" />
<polyline points="227.0,184.5,235.5,184.0,244.0,183.5,252.0,182.5,260.0,181.5,268.0,181.0,275.5,180.0" stroke="black" stroke-width="2" fill="none" />
<polyline points="273.5,172.5,266.0,172.0" stroke="black" stroke-width="2" fill="none" />
<polyline points="265.0,169.5,273.0,170.0,280.5,174.5,277.5,182.5,274.5,191.0,268.5,194.0" stroke="black" stroke-width="2" fill="none" />
<polyline points="267.0,168.0,274.5,167.5,282.5,167.0" stroke="black" stroke-width="2" fill="none" />
<polyline points="300.0,163.5,292.0,164.0,284.0,164.0,275.5,164.0,267.5,164.5,260.0,165.5,252.5,166.0" stroke="black" stroke-width="2" fill="none" />
<polyline points="244.0,169.5,252.5,162.5,260.5,152.5,254.5,161.0,247.0,169.0,244.0,178.0,244.0,186.0" stroke="black" stroke-width="2" fill="none" />
<polyline points="229.0,179.0,236.5,179.0,244.5,178.5,252.0,178.0,260.5,177.5,268.5,178.0,276.5,177.5,285.0,177.5,293.0,177.5,301.0,176.5,309.5,176.0,317.0,175.5,324.5,175.5,332.5,175.0,340.0,174.5,348.0,173.5,356.0,173.0,364.0,173.5,372.0,173.5,380.5,172.5" stroke="black" stroke-width="2" fill="none" />
<polyline points="387.0,166.5,379.5,167.0,372.0,168.0,364.0,168.5,356.0,168.5,348.5,168.5,340.5,168.5,332.5,168.5,324.5,168.0,316.0,169.0,307.5,170.0,299.0,170.0,291.0,170.0,283.0,170.0,275.5,170.5,268.0,171.5,260.5,172.0,252.5,173.0,244.5,173.5,236.0,174.0,228.0,174.0,220.0,174.5,211.5,175.0,203.0,176.0,195.0,177.0,187.0,178.0,179.5,179.0,171.5,180.0,163.0,181.0,155.0,181.5,146.5,181.5,138.5,181.5,130.0,182.0,121.5,182.0,113.5,183.0,105.5,184.5,97.5,185.5,89.5,186.0,81.5,186.5,73.5,186.5,65.5,186.5,57.5,187.0,49.5,187.0,41.5,187.5,34.5,188.0,27.5,189.0,19.5,189.5,11.5,190.0,3.5,190.5" stroke="black" stroke-width="2" fill="none" />
<polyline points="4.5,191.0,12.0,183.5,19.5,176.0,27.5,169.0,35.5,161.5,44.0,154.0,51.5,146.5,59.5,139.5,67.5,131.5,75.5,124.0,83.5,116.5" stroke="black" stroke-width="2" fill="none" />
<polyline points="90.0,115.0,82.0,122.0,74.5,129.5" stroke="black" stroke-width="2" fill="none" />
<polyline points="76.5,138.5,68.0,146.0,59.5,154.0,51.5,162.0,43.5,169.5,35.5,177.0,28.0,184.5,20.0,192.5,12.0,200.0,4.0,207.5" stroke="black" stroke-width="2" fill="none" />
<polyline points="5.0,206.0,12.5,205.5,20.5,204.0,28.5,203.0,36.0,203.0,43.5,203.0,51.5,202.5,59.5,201.5,67.5,201.5,75.5,200.5,83.5,200.0,91.5,200.0,100.0,200.0,108.5,200.0,116.5,199.5,124.5,199.5,132.0,198.5,139.5,197.0,147.5,196.0,155.0,195.5,163.0,195.0,171.0,195.0,179.5,194.5,188.0,194.5,196.0,194.0,204.5,193.5,212.5,192.5" stroke="black" stroke-width="2" fill="none" />
<polyline points="203.0,193.0,210.5,185.5,218.0,178.0,225.5,170.5" stroke="black" stroke-width="2" fill="none" />
<polyline points="227.0,178.5,234.5,170.5,242.5,163.0" stroke="black" stroke-width="2" fill="none" />
<polyline points="237.5,160.5,245.5,153.0,253.5,146.0,261.5,138.5" stroke="black" stroke-width="2" fill="none" />
<polyline points="259.5,138.0,251.5,138.0,244.0,138.5,236.0,139.5,228.5,140.0" stroke="black" stroke-width="2" fill="none" />
<polyline points="228.5,137.5,236.5,129.5,244.0,122.0,252.0,114.5" stroke="black" stroke-width="2" fill="none" />
<polyline points="260.0,115.0,252.0,123.0,244.5,131.0" stroke="black" stroke-width="2" fill="none" />
<polyline points="253.0,132.0,260.5,132.0,268.5,131.5,276.0,131.0,283.5,131.0,291.5,130.5,299.5,130.0,307.5,130.0" stroke="black" stroke-width="2" fill="none" />
<polyline points="316.5,120.0,308.0,121.0,300.0,121.5,292.0,122.0,284.0,122.0,276.5,122.5,268.5,122.5,261.0,123.0,252.5,123.5,245.0,124.0,237.5,124.5,229.5,124.5" stroke="black" stroke-width="2" fill="none" />
<polyline points="227.5,122.5,235.5,114.5" stroke="black" stroke-width="2" fill="none" />
<polyline points="243.0,115.0,235.0,122.5,227.0,130.5" stroke="black" stroke-width="2" fill="none" />
<polyline points="227.0,131.5,226.5,139.0,232.0,152.0,230.0,146.0" stroke="black" stroke-width="2" fill="none" />
<polyline points="228.5,144.5,236.5,144.0,244.5,143.0,252.0,142.5" stroke="black" stroke-width="2" fill="none" />
<polyline points="255.5,138.0,262.5,146.0,271.5,154.0,263.0,159.5,271.0,156.0,275.0,167.0" stroke="black" stroke-width="2" fill="none" />
<polyline points="259.5,147.5,251.0,154.5" stroke="black" stroke-width="2" fill="none" />
<polyline points="252.5,152.0,260.5,152.0" stroke="black" stroke-width="2" fill="none" />
<polyline points="244.0,150.0,236.0,151.0,227.5,151.5,219.5,152.0,212.0,153.0,204.0,153.5,196.0,154.5,188.0,155.5,180.0,156.0,172.5,156.0,164.5,156.0,156.0,157.0,147.5,157.5,139.5,158.5,131.0,159.5,123.0,160.0,115.0,160.0,107.0,160.5,98.5,160.5,90.5,160.5,82.5,160.5,74.5,161.0,67.0,162.0,59.0,162.5,51.5,163.0,44.0,163.5,36.0,164.5,28.0,165.0,19.5,165.0,11.5,164.5,3.0,164.5" stroke="black" stroke-width="2" fill="none" />
<polyline points="4.0,166.5,12.0,159.0,20.0,151.5,27.0,143.5,35.0,136.0,43.0,129.0,51.5,121.5,59.5,114.0,67.5,106.5,75.5,99.0" stroke="black" stroke-width="2" fill="none" />
<polyline points="77.0,103.5,85.0,105.0,92.5,109.0" stroke="black" stroke-width="2" fill="none" />
<polyline points="98.0,106.0,106.0,98.5,114.5,91.0" stroke="black" stroke-width="2" fill="none" />
<polyline points="115.5,83.0,107.5,90.5,99.5,98.0,91.5,105.0" stroke="black" stroke-width="2" fill="none" />
<polyline points="83.0,105.5,91.0,98.0,99.0,90.5,107.0,83.0,114.5,75.5,122.5,68.0" stroke="black" stroke-width="2" fill="none" />
<polyline points="116.5,66.0,108.5,73.0,100.5,80.5,92.5,88.5,85.0,96.5,77.0,104.0" stroke="black" stroke-width="2" fill="none" />
<polyline points="81.5,107.0,90.0,109.0" stroke="black" stroke-width="2" fill="none" />
<polyline points="83.0,107.0,91.0,106.5,99.0,105.5" stroke="black" stroke-width="2" fill="none" />
<polyline points="106.0,116.0,113.5,115.5,122.0,114.0,130.5,112.5" stroke="black" stroke-width="2" fill="none" />
<polyline points="140.0,123.0,132.0,130.5,124.0,138.5,116.0,146.5,108.5,154.5,100.5,161.5,92.5,169.0,85.5,176.0,77.5,183.5,69.5,191.0,61.0,198.0,53.5,205.5,45.5,213.0,37.0,220.5,28.0,228.5,19.0,236.0,11.0,244.0" stroke="black" stroke-width="2" fill="none" />
<polyline points="11.0,242.0,3.5,242.5" stroke="black" stroke-width="2" fill="none" />
<polyline points="3.5,239.0,11.5,238.5,20.0,238.0,27.5,236.5,35.0,235.5,42.5,234.5,50.5,234.0,58.0,233.5,65.5,233.0,73.0,232.5,81.5,231.5,89.5,231.5,98.0,231.0,106.0,230.0,114.0,229.5,123.0,229.5,131.0,228.5,139.5,227.5,148.0,227.0,156.5,226.0,164.5,225.5" stroke="black" stroke-width="2" fill="none" />
<polyline points="160.5,228.0,168.5,227.5,177.5,227.0,186.5,226.5" stroke="black" stroke-width="2" fill="none" />
<polyline points="181.0,210.5,189.0,203.0" stroke="black" stroke-width="2" fill="none" />
<polyline points="182.0,203.0,190.0,195.5" stroke="black" stroke-width="2" fill="none" />
<polyline points="188.5,186.5,196.0,186.0" stroke="black" stroke-width="2" fill="none" />
<polyline points="196.0,176.0,188.5,176.5" stroke="black" stroke-width="2" fill="none" />
<polyline points="186.5,170.5,194.5,163.0,203.5,155.5,212.0,148.0" stroke="black" stroke-width="2" fill="none" />
<polyline points="205.0,147.0,197.0,155.0,189.0,162.5,180.5,170.0,172.0,178.0,164.0,185.5,155.5,192.5,147.0,200.0,139.0,207.5" stroke="black" stroke-width="2" fill="none" />
<polyline points="147.0,209.0,155.0,202.0,163.0,195.0,171.5,187.5,179.0,180.0" stroke="black" stroke-width="2" fill="none" />
<polyline points="180.5,160.5,188.5,159.5,196.5,159.0" stroke="black" stroke-width="2" fill="none" />
<polyline points="210.0,164.0,202.0,171.5,194.0,178.5,186.0,185.5,178.5,192.5,171.0,199.5,163.0,207.0" stroke="black" stroke-width="2" fill="none" />
<polyline points="156.0,206.0,163.5,199.0,171.5,192.0,179.0,185.0,187.0,177.5,195.0,170.0,202.5,163.0,210.5,155.5" stroke="black" stroke-width="2" fill="none" />
<polyline points="211.5,161.0,219.0,151.0,227.0,144.5,234.5,141.5,242.5,139.5,250.5,140.5,258.5,143.5,267.5,144.5,275.5,147.5" stroke="black" stroke-width="2" fill="none" />
<polyline points="291.0,150.5,283.5,151.5,275.5,152.0,267.5,153.0,260.0,154.0,252.0,154.5,243.5,155.5,235.5,156.0,228.0,156.5,220.0,157.0" stroke="black" stroke-width="2" fill="none" />
<polyline points="219.0,153.5,227.5,145.5,236.0,138.5" stroke="black" stroke-width="2" fill="none" />
<polyline points="236.0,141.0,222.0,148.5,216.5,156.5,221.5,158.0,227.0,160.0" stroke="black" stroke-width="2" fill="none" />
<polyline points="221.0,167.0,212.5,167.5,204.5,168.5,196.5,169.5,188.5,170.0,180.0,171.0,171.0,172.0,163.0,172.0,155.0,172.5,146.5,172.5,138.5,173.0,130.5,174.0,122.5,175.0,114.0,175.0,105.5,175.0,97.0,175.5,89.5,176.5,81.5,176.5,73.5,177.5,66.5,178.0,59.0,178.5,51.0,179.0,43.5,179.0,36.0,179.0,28.5,179.5,21.0,180.0,13.0,180.5,5.5,181.0" stroke="black" stroke-width="2" fill="none" />
<polyline points="2.5,181.5,10.0,174.5,18.0,167.5,26.0,160.5,34.0,153.0,42.5,145.5,51.5,138.0,60.0,130.0,68.0,122.0,76.0,114.5" stroke="black" stroke-width="2" fill="none" />
<polyline points="67.0,114.0,59.0,122.0" stroke="black" stroke-width="2" fill="none" />
<polyline points="68.0,120.0,75.5,119.5,83.5,119.0" stroke="black" stroke-width="2" fill="none" />
<polyline points="84.0,125.0,92.0,117.5,100.5,110.0,109.0,102.5,117.5,95.0,125.5,87.5,133.5,80.5,141.5,73.0,149.5,65.5,157.5,58.0,165.5,51.0,173.5,44.0" stroke="black" stroke-width="2" fill="none" />
<polyline points="173.0,53.0,165.0,60.5,157.0,68.5" stroke="black" stroke-width="2" fill="none" />
<polyline points="162.5,76.0,171.0,75.0" stroke="black" stroke-width="2" fill="none" />
<polyline points="180.5,66.0,172.0,74.0,164.5,81.5,156.5,89.0" stroke="black" stroke-width="2" fill="none" />
<polyline points="155.5,82.0,163.5,81.5,171.5,80.5" stroke="black" stroke-width="2" fill="none" />
<polyline points="187.5,85.5,179.5,92.5,171.5,99.5,163.5,106.5,155.0,114.0,146.5,121.5,138.5,129.0,131.0,137.0,123.5,144.0,115.5,151.0,107.5,158.0,99.5,166.0,91.0,174.0,82.5,181.0,74.0,188.0,66.0,195.0,57.5,202.5,49.0,210.0,41.0,217.5,33.0,225.0" stroke="black" stroke-width="2" fill="none" />
<polyline points="43.0,228.0,51.0,220.5,59.0,213.0,66.5,206.0,74.5,198.5,82.0,191.0,90.0,183.5,98.0,176.5,106.5,168.5,115.0,161.5,123.0,153.5,131.5,145.5,140.0,137.5,148.5,130.0,156.5,122.5" stroke="black" stroke-width="2" fill="none" />
<polyline points="161.5,122.0,169.0,115.0,177.0,107.5" stroke="black" stroke-width="2" fill="none" />
<polyline points="179.5,113.5,171.5,114.0" stroke="black" stroke-width="2" fill="none" />
<polyline points="163.5,115.0,171.0,107.0,178.5,99.0,186.0,91.5,194.0,84.0" stroke="black" stroke-width="2" fill="none" />
<polyline points="195.5,92.0,187.5,99.0" stroke="black" stroke-width="2" fill="none" />
<polyline points="189.0,107.5,181.0,115.5,172.5,123.0,164.5,130.5" stroke="black" stroke-width="2" fill="none" />
<polyline points="155.5,131.5,147.5,140.0,139.5,148.0,132.0,155.5,124.0,162.5,115.5,170.0,107.0,177.5,98.5,185.0,90.5,192.5,82.0,199.5,74.0,207.0,66.0,214.5,58.0,221.5,50.0,228.5" stroke="black" stroke-width="2" fill="none" />
<polyline points="58.5,228.5,66.0,221.0,73.5,213.5,82.0,205.5,90.0,198.0,98.0,191.5,106.5,185.0,114.5,178.0,123.0,170.5,131.0,163.0,139.5,156.0,148.0,148.0,156.5,140.5" stroke="black" stroke-width="2" fill="none" />
<polyline points="166.0,148.5,173.5,148.0" stroke="black" stroke-width="2" fill="none" />
<polyline points="171.5,153.5,179.0,146.5,187.0,139.0,195.0,131.5,203.0,124.0,211.5,116.5" stroke="black" stroke-width="2" fill="none" />
<polyline points="212.5,118.5,220.5,117.5,225.0,119.5,229.0,127.5,221.0,136.0,219.0,143.5,215.0,152.0,211.0,160.0,212.0,169.0,212.0,176.5,214.0,184.5,216.0,187.5,224.5,196.5,231.5,199.5,239.5,202.0,247.5,201.5,255.5,198.5,263.5,193.5,265.5,183.5,270.5,178.0,284.5,174.5,293.0,181.0,301.0,184.0" stroke="black" stroke-width="2" fill="none" />
<polyline points="276.0,131.0,268.5,131.5,260.5,132.0,252.5,132.5,244.5,133.5,236.5,133.5,228.0,134.0,220.0,135.0,212.0,135.5,204.0,136.5,196.0,137.5,188.0,138.5,180.5,139.0,172.5,139.5,164.5,140.0,157.0,141.0,149.0,142.0,141.0,142.5,132.5,142.5,124.5,143.0,116.5,143.5,109.0,144.0,101.5,144.0,93.5,144.5,86.0,145.0,77.0,145.5,68.5,146.0,60.0,146.0,52.0,146.5,44.0,147.5,36.0,148.5,28.0,149.0,20.0,149.5,11.5,150.0,3.0,150.5" stroke="black" stroke-width="2" fill="none" />
<polyline points="3.5,154.5,11.5,154.0,19.5,154.0" stroke="black" stroke-width="2" fill="none" />
<polyline points="26.0,154.5,34.5,154.0,43.0,153.5,51.5,152.5,59.5,151.5,67.5,151.5,75.5,150.5" stroke="black" stroke-width="2" fill="none" />
<polyline points="75.5,147.5,67.5,155.0,59.5,161.5,51.5,168.5,44.0,175.5,36.0,183.0,28.5,191.0,20.5,199.0,12.5,206.5,4.0,214.0" stroke="black" stroke-width="2" fill="none" />
<polyline points="3.5,212.0,11.5,211.5,20.0,211.5,29.0,211.0,37.5,210.0,45.5,210.0,53.0,209.5,60.0,209.5,67.5,209.5,75.0,209.0,83.0,208.5,91.0,208.5,99.0,208.5,107.0,208.0,115.5,207.5,123.5,207.0,131.5,206.0,139.5,205.5,147.5,205.0,155.5,204.5,164.0,204.0,171.5,203.5,179.5,203.0,187.5,202.5,196.0,202.0,204.0,201.5" stroke="black" stroke-width="2" fill="none" />
<polyline points="197.5,210.0,189.5,211.0,181.0,211.5,172.5,212.0,164.5,212.0,156.5,213.0,148.5,214.0,140.0,214.5,132.0,215.0,123.0,216.0,115.0,216.5,106.5,217.5,98.0,218.0,90.0,218.0,81.5,218.5,73.5,219.0,65.5,220.0,58.0,220.0,49.5,220.0,41.5,220.0,33.5,221.0,25.5,221.5,17.5,222.0,9.5,223.5,2.0,224.0" stroke="black" stroke-width="2" fill="none" />
<polyline points="3.5,223.5,11.0,216.0,19.0,208.5,26.5,200.5,34.0,193.0,42.0,185.0,50.0,178.0,58.0,170.5,66.0,163.0,74.5,155.5" stroke="black" stroke-width="2" fill="none" />
<polyline points="83.5,145.5,91.5,138.5" stroke="black" stroke-width="2" fill="none" />
<polyline points="94.0,133.0,102.0,136.0,109.5,142.0" stroke="black" stroke-width="2" fill="none" />
<polyline points="106.0,138.5,114.0,138.0,122.5,137.5,130.5,137.0" stroke="black" stroke-width="2" fill="none" />
<polyline points="139.0,151.5,131.0,152.5,123.5,153.0,115.0,153.5" stroke="black" stroke-width="2" fill="none" />
<polyline points="115.0,147.0,123.5,146.0,131.5,145.0,139.0,144.0" stroke="black" stroke-width="2" fill="none" />
<polyline points="162.0,154.0,170.5,153.0,179.0,153.0,187.0,153.0,195.0,152.5" stroke="black" stroke-width="2" fill="none" />
<polyline points="205.0,140.0,197.0,147.5,189.0,154.5,181.5,162.0,173.0,169.0,164.5,176.5,156.5,184.0,148.5,191.5,140.0,199.0,131.5,207.0,124.0,215.0" stroke="black" stroke-width="2" fill="none" />
<polyline points="116.0,215.0,124.0,207.5,131.5,200.5,139.5,193.0,147.0,185.0,155.0,177.0,163.0,169.0,172.0,161.5,181.0,153.5,189.5,146.0,197.5,138.5,205.0,131.0" stroke="black" stroke-width="2" fill="none" />
<polyline points="212.0,128.0,204.0,128.5,196.0,129.5,188.5,130.0,181.0,131.5,173.5,133.0,165.5,134.0,157.5,134.0,149.5,134.5,141.0,134.5,132.5,134.0,124.5,134.0,116.0,135.0,108.0,135.5,99.5,136.0,91.5,136.5,83.5,137.0,75.5,137.5,68.0,137.5,60.0,138.5,52.0,140.0,44.5,140.5,36.5,140.5,28.5,140.5,21.0,141.0,13.5,141.0,5.5,141.0" stroke="black" stroke-width="2" fill="none" />
<polyline points="3.5,144.0,11.5,137.0,19.5,130.0,27.5,123.0,35.0,116.0" stroke="black" stroke-width="2" fill="none" />
<polyline points="32.5,125.0,25.0,132.5,17.5,139.5,10.0,147.0,2.5,154.5" stroke="black" stroke-width="2" fill="none" />
<polyline points="5.0,159.5,13.0,159.5,20.5,158.5,29.0,158.0,37.0,157.5,45.0,157.0,53.0,156.0,60.0,155.0,67.5,154.0,75.5,153.0,84.0,152.5,91.5,152.0,100.0,152.0,107.5,151.5,115.5,151.5,123.5,151.5,131.5,151.0,140.0,150.0,148.5,149.0,157.0,148.5,165.0,148.0,173.0,147.5,180.5,147.0,188.5,146.5,196.5,146.0,204.0,145.5,211.5,145.0" stroke="black" stroke-width="2" fill="none" />
<polyline points="207.0,138.5,215.0,133.5,220.0,129.5,209.5,137.5,212.5,128.5,220.5,126.0,233.0,130.5,241.0,131.0,249.0,130.0,257.5,131.5,267.5,130.5,276.0,138.5,284.0,140.5,291.5,142.0,299.5,138.0,307.5,132.0,315.5,124.0,324.0,121.0" stroke="black" stroke-width="2" fill="none" />
<polyline points="325.0,125.0,317.0,130.5,309.0,140.0,301.0,142.5,298.0,140.5,307.0,132.5,319.0,124.5,321.5,122.5,325.5,114.5" stroke="black" stroke-width="2" fill="none" />
<polyline points="332.0,116.0,325.0,124.0,316.0,131.5,306.0,139.5,306.0,142.5,314.0,139.5,322.0,132.0,330.0,128.0" stroke="black" stroke-width="2" fill="none" />
<polyline points="344.0,116.0,348.0,124.0,353.0,132.0,357.0,140.0" stroke="black" stroke-width="2" fill="none" />
<polyline points="369.0,153.0,373.0,161.0,378.0,169.0,392.0,177.5,409.0,185.5,426.0,194.0,444.0,202.0,456.0,202.0,460.0,203.5,470.0,210.5" stroke="black" stroke-width="2" fill="none" />
<polyline points="484.5,210.5,490.0,218.5,492.0,222.0,496.5,207.5,504.5,215.5" stroke="black" stroke-width="2" fill="none" />
<polyline points="422.5,217.0,418.5,217.0,410.5,209.0,417.5,201.0,405.0,197.5,406.0,194.5,393.5,190.5" stroke="black" stroke-width="2" fill="none" />
<polyline points="349.0,116.5,357.0,109.5,365.5,102.0,373.5,94.5,381.0,87.0,388.5,79.5,396.0,72.0,404.0,65.0,412.0,57.5,420.0,50.5,428.0,43.5,436.0,36.5,444.5,29.5,452.5,22.0" stroke="black" stroke-width="2" fill="none" />
<polyline points="444.0,16.5,436.0,24.5,427.5,32.5,419.0,40.0,410.5,47.5,402.0,55.0,394.5,63.0,387.0,71.0" stroke="black" stroke-width="2" fill="none" />
<polyline points="386.0,68.0,378.0,75.5" stroke="black" stroke-width="2" fill="none" />
<polyline points="379.0,67.5,371.5,75.0,363.5,82.5,355.5,90.0,347.5,97.5,339.5,105.0" stroke="black" stroke-width="2" fill="none" />
<polyline points="338.0,103.0,345.5,102.0,353.5,101.0,361.5,100.0,370.0,99.5,378.5,98.0,386.5,97.5,394.5,96.5,402.5,95.5,410.5,95.0,419.0,94.5,426.5,94.0,435.0,94.0,443.0,94.0,451.5,94.0,460.0,94.0,468.0,93.5,476.5,93.5,484.5,93.5,492.5,93.5,500.5,93.0,508.5,92.5,516.5,91.5" stroke="black" stroke-width="2" fill="none" />
<polyline points="513.0,1.5,505.5,2.0,497.5,2.0,490.0,2.5,482.0,3.0,473.5,4.0,465.5,5.0,457.0,6.0,449.5,6.5,441.5,7.0" stroke="black" stroke-width="2" fill="none" />
<polyline points="418.0,19.5,426.0,19.5,434.0,19.5,442.0,19.0,450.0,19.0,458.0,19.0,466.0,18.5,474.5,17.5,483.0,16.5,491.5,16.5,500.0,16.0,508.0,15.5,515.5,14.5" stroke="black" stroke-width="2" fill="none" />
<polyline points="411.0,28.0,403.0,35.0,395.5,42.0" stroke="black" stroke-width="2" fill="none" />
<polyline points="396.0,35.5,404.5,28.5" stroke="black" stroke-width="2" fill="none" />
<polyline points="409.5,21.0,401.5,21.5,393.5,22.0" stroke="black" stroke-width="2" fill="none" />
<polyline points="401.0,14.0,389.5,22.0,390.0,27.5,398.0,25.5,410.5,27.0" stroke="black" stroke-width="2" fill="none" />
<polyline points="412.0,21.0,403.0,13.0" stroke="black" stroke-width="2" fill="none" />
<polyline points="379.0,43.0,371.5,50.0,364.0,57.5,356.5,65.5,348.5,73.5" stroke="black" stroke-width="2" fill="none" />
<polyline points="345.5,65.5,353.5,58.5,360.5,51.5,368.5,44.0" stroke="black" stroke-width="2" fill="none" />
<polyline points="369.0,36.0,361.0,44.0,353.5,51.5,345.5,59.0,337.5,65.5" stroke="black" stroke-width="2" fill="none" />
<polyline points="330.0,62.0,338.0,61.5,345.5,61.0,353.5,60.0,362.0,58.5,370.0,58.0,378.0,57.0,386.0,56.5,394.5,56.0,402.5,55.5,410.0,55.5,418.0,54.5,425.5,54.0,433.5,53.5,441.0,53.0,449.5,52.0,457.0,51.5,465.5,50.5,474.0,50.0,482.0,50.0,490.0,49.5,498.0,49.5,506.0,49.5,514.0,49.0" stroke="black" stroke-width="2" fill="none" />
<polyline points="411.0,64.5,403.0,65.0" stroke="black" stroke-width="2" fill="none" />
<polyline points="402.5,58.5,410.5,58.0,418.5,57.5,426.5,57.0" stroke="black" stroke-width="2" fill="none" />
<polyline points="388.0,49.5,380.0,57.0,372.0,65.0,363.5,73.0,354.5,80.5,346.0,88.5" stroke="black" stroke-width="2" fill="none" />
<polyline points="339.5,90.5,347.5,82.5,355.0,74.5,363.0,67.0,371.0,59.0,379.0,51.5" stroke="black" stroke-width="2" fill="none" />
<polyline points="362.0,35.0,354.0,42.5" stroke="black" stroke-width="2" fill="none" />
<polyline points="347.0,38.0,355.0,37.5,362.5,36.5,370.5,35.5,379.5,34.5,388.0,34.0,396.0,33.5,403.5,33.0,411.5,33.0,419.5,32.5,428.0,32.0,436.0,31.5,444.0,31.0,452.0,30.0,459.5,30.0,467.5,30.0,475.5,29.5,483.5,29.0,491.5,29.0,499.0,29.5,506.5,29.0,514.5,28.5" stroke="black" stroke-width="2" fill="none" />
<polyline points="370.5,84.5,362.5,91.5,355.0,99.0,347.5,106.5" stroke="black" stroke-width="2" fill="none" />
<polyline points="334.5,98.5,342.5,106.5,346.0,114.5,350.0,122.0,354.5,130.0,359.0,138.0,362.5,146.0,364.5,154.0,368.5,162.0,372.5,170.0,379.0,178.0,381.0,186.0,388.0,190.0,387.0,198.5,385.5,206.5,380.0,214.5,384.5,218.0,381.5,226.0,376.5,234.0,371.0,242.5,365.0,250.0,353.0,261.5,362.5,265.5,369.5,275.0,377.5,283.0,385.5,288.0,393.5,293.0,401.5,296.0,409.5,303.0,417.5,308.0,425.5,311.5,433.5,306.5,441.5,307.5,449.5,311.5,457.5,313.5" stroke="black" stroke-width="2" fill="none" />
<polyline points="516.0,79.5,507.0,80.0,498.5,80.5,490.0,81.5,482.0,81.5,474.5,82.0,467.0,82.5,459.0,82.5,451.0,83.0,443.0,83.5,435.0,84.5,427.0,85.0,419.0,85.5,411.5,86.0,404.0,87.0,396.0,87.0,388.0,87.5,380.5,88.0,372.5,88.5,364.5,89.5,356.0,90.5,347.5,90.5,339.5,91.0,331.0,91.0,323.0,91.5,314.5,91.0,306.0,91.5,297.5,92.5,289.5,93.0" stroke="black" stroke-width="2" fill="none" />
<polyline points="291.0,85.5,298.5,84.5,306.5,84.0,314.5,83.5,323.0,83.0,332.0,83.0,340.5,83.0,349.0,83.0,357.5,82.5,365.5,82.5,373.5,82.5,382.0,82.0,389.0,81.0,396.5,80.5,404.5,79.5,412.5,78.5,420.0,78.0,427.5,77.5,435.5,77.0,443.0,77.0,450.5,76.5,458.5,76.0,466.5,75.5,474.5,75.0,482.5,74.0,490.5,73.5,498.5,72.5,506.0,72.5,514.5,72.5" stroke="black" stroke-width="2" fill="none" />
<polyline points="516.5,19.5,508.5,20.0,500.5,20.5,492.0,21.0,483.5,21.0,475.0,21.5,467.5,22.0,459.0,22.5,451.0,22.5,443.0,22.5,435.0,23.0,427.0,24.0,419.5,25.0,411.5,26.0,404.0,26.0,396.0,26.5,388.5,27.0,380.5,27.5,372.5,28.5,364.5,29.0,356.5,30.0" stroke="black" stroke-width="2" fill="none" />
<polyline points="357.5,22.5,366.0,22.0" stroke="black" stroke-width="2" fill="none" />
<polyline points="355.5,19.5,350.0,27.5,338.0,33.5,334.0,40.5,339.5,33.5,352.0,24.0,359.0,13.5,365.0,16.5,373.0,18.0,381.0,22.0,389.0,24.5,397.0,17.5,405.0,14.0,412.5,20.5,420.5,16.5,424.0,13.0,432.0,10.0,440.0,3.0" stroke="black" stroke-width="2" fill="none" />
<polyline points="376.5,24.0,364.5,19.5,360.5,11.0" stroke="black" stroke-width="2" fill="none" />
<polyline points="337.0,45.0,345.5,44.5,353.5,44.0,361.5,43.5,369.5,42.5,377.5,41.5,386.5,40.5,395.5,39.5,403.5,39.0,411.5,38.5,419.0,38.0,427.0,37.5,435.0,37.0,443.5,36.5,451.5,36.5,459.5,36.5,468.0,36.5,476.5,37.0,485.0,37.0,493.5,36.5,501.5,36.0,509.5,35.5,517.0,35.5" stroke="black" stroke-width="2" fill="none" />
<polyline points="339.5,82.5,331.0,90.0" stroke="black" stroke-width="2" fill="none" />
<polyline points="315.0,71.5,323.0,71.0,331.5,70.5,339.0,70.0,347.0,69.0,355.0,68.0,363.0,67.0,371.0,66.0,379.5,65.0,388.5,64.0,396.5,63.0,404.0,62.5,411.5,62.0,419.5,61.5,427.0,61.5,434.5,61.0,442.5,61.0,450.0,60.5,457.5,60.0,465.0,59.5,473.0,59.0,481.0,59.0,489.5,59.5,498.0,59.0,506.0,57.5,514.0,56.5" stroke="black" stroke-width="2" fill="none" />
<polyline points="514.0,41.5,505.5,41.5,497.5,41.5,489.5,41.5,481.5,42.0,473.0,43.0,465.0,44.0,457.0,45.0,449.0,45.5,441.0,46.0,433.5,47.0,426.0,47.5,418.5,47.5,410.0,48.0,402.0,48.5,394.0,49.0,385.5,49.0,377.5,49.5,369.5,49.5,361.5,50.0,354.0,50.5,346.0,51.0,338.0,51.5,329.5,51.5" stroke="black" stroke-width="2" fill="none" />
<polyline points="326.0,48.5,317.5,52.5,323.5,48.0" stroke="black" stroke-width="2" fill="none" />
<polyline points="298.5,76.5,306.5,75.5,315.0,75.0,322.5,74.5,330.0,74.5,338.0,74.5,346.5,74.0,355.0,73.0,364.0,72.5,373.0,72.0,381.5,72.0,389.5,71.5,397.0,70.5,404.5,70.0,412.0,69.5,420.0,69.5,427.0,69.0,435.0,69.0,442.5,69.0,450.5,68.5,458.5,67.5,466.0,67.0,474.0,66.5,482.0,65.5,490.0,64.5,498.5,63.5,507.0,63.0,516.0,62.5" stroke="black" stroke-width="2" fill="none" />
<polyline points="379.0,150.0,371.5,150.5,363.5,151.5,356.0,151.5,348.5,152.0,340.5,152.5,332.5,153.0,324.0,154.0,316.0,154.5,308.0,155.0,300.0,155.0,292.5,155.5,284.5,155.5,277.0,156.0,268.5,156.5,261.0,157.0,253.5,157.5,245.5,157.5,237.0,158.0,228.5,158.5,220.5,159.5,212.0,160.5,203.5,161.5,195.0,162.5,186.5,163.0,178.5,163.5,170.0,164.0,162.0,164.5,154.0,165.5,146.0,166.0,138.0,166.0,129.5,166.0,122.0,166.5,114.0,166.5,106.0,166.0,98.0,166.5,90.0,167.5,82.0,168.0,74.0,168.5,66.5,169.5,59.0,170.5,51.5,170.5,44.5,171.0,36.0,172.0,28.0,172.5,19.5,172.5,11.0,172.0,3.0,172.5" stroke="black" stroke-width="2" fill="none" />
<polyline points="4.0,176.0,12.0,168.5,20.0,161.5,27.0,154.0,35.0,146.5,42.5,138.5,50.5,131.0" stroke="black" stroke-width="2" fill="none" />
<polyline points="45.5,123.0,37.5,130.0,29.0,137.5,21.0,145.0,12.5,153.0,4.0,160.0" stroke="black" stroke-width="2" fill="none" />
<polyline points="5.0,163.0,13.0,163.0,21.0,163.0" stroke="black" stroke-width="2" fill="none" />
<polyline points="19.0,168.0,11.5,168.0,3.5,168.5" stroke="black" stroke-width="2" fill="none" />
<polyline points="5.0,177.0,13.0,176.0,20.5,175.5,28.0,175.0,36.0,175.0,43.5,175.0,51.5,174.5,59.5,174.0,67.0,174.0,74.5,174.0,82.0,173.5,90.5,173.0" stroke="black" stroke-width="2" fill="none" />
<polyline points="93.5,162.5,101.0,162.5,108.5,162.0" stroke="black" stroke-width="2" fill="none" />
<polyline points="116.0,162.5,124.5,161.5,132.5,160.5,140.5,160.0,148.5,159.5" stroke="black" stroke-width="2" fill="none" />
<polyline points="164.5,164.0,156.0,171.5,147.0,179.5,138.5,186.5,130.0,193.5,122.0,201.0,113.5,208.0,106.0,215.5,98.0,223.5" stroke="black" stroke-width="2" fill="none" />
<polyline points="82.0,229.0,90.0,221.5,98.5,214.0,106.5,206.5,115.0,199.5,123.0,192.0,131.0,184.0,139.5,176.5,148.0,169.0,156.5,162.0,165.0,154.5,173.0,146.5,181.0,139.0,188.5,131.5,197.0,123.5,204.5,116.0" stroke="black" stroke-width="2" fill="none" />
<polyline points="208.0,117.0,216.0,111.0,223.5,110.0,231.0,107.0,239.0,106.0,247.0,104.5,255.5,105.0,263.5,104.0,271.5,103.0,279.5,103.5,288.0,103.0,296.0,102.5,304.0,102.5,312.0,101.0,319.5,98.5,327.5,96.0,336.0,98.0,344.0,107.0,352.0,122.5,360.5,136.5,368.5,151.5,376.5,166.5,384.0,173.5,392.0,177.0,399.5,181.5,407.0,185.5,415.0,188.0,423.0,192.0,431.0,196.0,438.5,198.5,447.0,197.5,455.0,192.5,463.0,191.5,471.0,193.0,479.0,194.0,487.0,196.0,495.5,199.5,496.5,210.5,499.0,219.0,503.5,226.5,508.5,237.5,509.5,244.0,512.5,248.0,511.5,238.5" stroke="black" stroke-width="2" fill="none" />
<polyline points="311.0,111.5,305.0,119.5,298.5,126.0,307.0,116.0" stroke="black" stroke-width="2" fill="none" />
<polyline points="283.0,92.0,275.0,92.5" stroke="black" stroke-width="2" fill="none" />
<polyline points="260.0,128.0,252.0,128.0,244.0,128.0,236.0,128.0,228.0,129.0" stroke="black" stroke-width="2" fill="none" />
<polyline points="228.0,119.5,236.0,119.5,244.5,119.5,252.5,119.0,261.0,118.0" stroke="black" stroke-width="2" fill="none" />
<polyline points="269.0,116.0,263.0,116.5,255.0,117.5,247.0,116.0,239.5,115.5,232.0,115.5,223.5,115.5" stroke="black" stroke-width="2" fill="none" />
<polyline points="219.5,117.0,227.0,117.0,234.5,116.5,242.0,116.0,249.5,115.0,257.5,114.0,265.5,113.0,274.0,112.5,282.0,112.0,290.5,111.5,298.5,111.5,306.5,110.5" stroke="black" stroke-width="2" fill="none" />
<polyline points="291.0,131.5,299.0,122.5,305.5,114.5,312.5,108.5,304.5,115.5,296.0,124.5,287.5,131.0,279.5,131.0,271.0,131.5" stroke="black" stroke-width="2" fill="none" />
<polyline points="266.0,131.0,266.5,138.5,272.5,149.5,277.5,157.5,267.5,158.5,277.5,173.0,273.0,181.0,270.5,189.0,261.0,191.0,266.0,197.0,266.0,205.5,269.5,213.0" stroke="black" stroke-width="2" fill="none" />
<polyline points="260.0,229.0,252.0,229.5,243.5,230.5,235.5,231.0,227.5,231.0" stroke="black" stroke-width="2" fill="none" />
<polyline points="220.0,183.5,212.0,184.0,204.0,184.5,196.5,185.5,188.5,186.0,180.5,186.5,172.5,187.5,164.0,188.5,156.5,188.5,148.0,189.0,140.0,189.5,131.0,190.0,123.0,190.5,115.0,191.5,107.0,192.5,99.0,193.0,91.0,194.0,82.5,194.5,74.5,194.5,67.0,194.0,59.5,194.0,52.0,194.5,44.0,195.0,36.0,195.5,28.5,196.0,21.0,197.0,13.0,198.5,5.0,199.5" stroke="black" stroke-width="2" fill="none" />
<polyline points="4.0,198.5,12.0,190.5,20.0,183.5,28.0,176.0,35.5,168.5,43.5,161.0,51.0,154.0,59.0,147.0,66.5,139.5" stroke="black" stroke-width="2" fill="none" />
<polyline points="60.5,159.0,68.5,158.5,76.0,158.0" stroke="black" stroke-width="2" fill="none" />
<polyline points="94.0,145.5,85.5,152.5,77.5,160.0,69.5,168.0,62.5,175.5,54.5,183.5,46.5,192.0,38.0,200.0,29.5,208.5,21.5,216.5,13.0,224.0,5.0,231.5" stroke="black" stroke-width="2" fill="none" />
<polyline points="3.5,230.0,11.5,229.0,19.0,228.5,26.5,228.0,34.0,228.0,42.0,228.0,50.5,227.5,59.0,226.5,67.0,226.0,75.5,225.0,83.5,224.5,91.0,224.0,99.0,223.5,107.0,223.5,115.5,223.0,124.0,222.5,131.5,222.0,139.0,222.0,147.0,221.5,155.5,221.5" stroke="black" stroke-width="2" fill="none" />
<polyline points="148.5,207.5,156.0,207.0,164.0,206.5" stroke="black" stroke-width="2" fill="none" />
<polyline points="164.0,191.5,156.0,193.0,147.5,194.5,139.5,195.0" stroke="black" stroke-width="2" fill="none" />
<polyline points="132.0,186.5,140.0,186.0,148.0,185.5,156.0,184.5" stroke="black" stroke-width="2" fill="none" />
<polyline points="147.5,169.0,139.5,169.5,132.0,170.0" stroke="black" stroke-width="2" fill="none" />
<polyline points="124.0,185.0,115.0,186.0,107.0,186.0" stroke="black" stroke-width="2" fill="none" />
<polyline points="106.0,177.5,113.5,177.5,122.0,177.5" stroke="black" stroke-width="2" fill="none" />
<polyline points="101.0,146.5,93.0,154.0,84.5,161.5,76.5,169.0,68.0,176.0,60.0,183.5,51.5,190.5,43.5,198.0,35.0,205.5,26.5,213.5,18.5,221.0,10.5,228.5,2.5,236.5" stroke="black" stroke-width="2" fill="none" />
<polyline points="2.5,239.0,10.5,231.5,18.5,224.5,27.0,217.0,35.0,209.5,43.0,202.0,51.5,194.0,59.5,187.0,68.0,180.0,76.0,172.5,83.5,164.5,91.0,156.5,99.0,149.5,107.0,142.0,114.5,134.5,123.0,127.0,131.0,119.0,138.5,112.0,146.5,104.0,154.5,96.5,162.5,89.0,170.5,81.5,178.5,73.5,186.5,66.0" stroke="black" stroke-width="2" fill="none" />
<polyline points="188.0,76.0,179.5,83.5,171.5,91.5,163.0,99.0,155.0,106.5,147.0,114.0" stroke="black" stroke-width="2" fill="none" />
<polyline points="148.5,98.5,140.5,106.0,132.5,113.5,125.0,120.5,116.5,128.0,109.0,135.5" stroke="black" stroke-width="2" fill="none" />
<polyline points="103.0,136.0,113.0,144.0" stroke="black" stroke-width="2" fill="none" />
<polyline points="109.5,126.0,117.5,119.0,125.0,111.5,133.0,104.5,140.5,97.0,148.5,89.5,157.0,81.5,165.5,73.5,173.5,65.0,181.0,57.5" stroke="black" stroke-width="2" fill="none" />
<polyline points="179.0,56.0,187.5,49.0" stroke="black" stroke-width="2" fill="none" />
<polyline points="196.0,51.0,188.0,52.0,180.0,52.5,171.5,53.0,163.5,53.5,155.5,54.0,148.0,54.0,140.0,54.5,132.5,54.5,125.0,55.0,116.5,55.5,107.5,55.5,99.5,55.5,91.0,55.5,83.0,56.5,75.0,57.0,67.0,57.5,58.5,58.0,50.5,58.0,42.0,58.5,34.5,59.0,27.0,60.0,19.5,61.0,12.5,62.0,4.5,62.0" stroke="black" stroke-width="2" fill="none" />
<polyline points="3.0,65.0,11.0,57.5,18.5,50.5,26.5,43.0,34.5,35.5,43.0,28.0,51.0,20.0,59.0,12.5,67.0,5.0" stroke="black" stroke-width="2" fill="none" />
<polyline points="61.0,2.5,53.0,10.0,44.0,17.5,35.5,25.5,27.5,33.5,19.5,41.0,11.0,48.5,2.5,56.0" stroke="black" stroke-width="2" fill="none" />
<polyline points="3.0,56.0,11.0,56.0,19.0,56.0,27.5,55.5,35.5,54.5,44.0,54.0,52.0,53.5" stroke="black" stroke-width="2" fill="none" />
<polyline points="51.5,73.5,59.0,73.0,67.0,72.5" stroke="black" stroke-width="2" fill="none" />
<polyline points="75.5,64.0,83.5,63.5,91.5,63.5,99.5,64.0" stroke="black" stroke-width="2" fill="none" />
<polyline points="108.5,67.5,100.5,75.0,92.5,82.5,84.0,89.5" stroke="black" stroke-width="2" fill="none" />
<polyline points="84.5,98.0,92.5,97.5" stroke="black" stroke-width="2" fill="none" />
<polyline points="101.0,78.5,93.5,79.5,85.5,80.0,77.5,80.5" stroke="black" stroke-width="2" fill="none" />
<polyline points="85.0,74.0,93.0,73.0,101.0,72.0" stroke="black" stroke-width="2" fill="none" />
<polyline points="108.0,58.5,100.0,65.5,92.0,73.5,84.0,81.0,76.0,89.0,68.0,97.0,60.0,105.0,52.0,113.0" stroke="black" stroke-width="2" fill="none" />
<polyline points="50.5,114.0,58.5,113.5,66.5,112.0" stroke="black" stroke-width="2" fill="none" />
<polyline points="51.5,104.5,59.0,96.5,67.5,88.5,75.5,81.0,83.0,73.5,91.0,66.5,99.0,58.5,106.5,51.0" stroke="black" stroke-width="2" fill="none" />
<polyline points="100.0,51.5,92.0,59.0,84.0,67.0,76.0,74.5,68.0,82.0,60.0,89.0,52.0,96.5,43.5,104.5" stroke="black" stroke-width="2" fill="none" />
<polyline points="43.0,105.5,51.0,105.5,59.0,105.5,67.0,105.0" stroke="black" stroke-width="2" fill="none" />
<polyline points="58.0,87.5,66.0,87.0,74.5,87.0,82.5,87.0,90.5,86.5" stroke="black" stroke-width="2" fill="none" />
<polyline points="85.5,60.0,93.5,59.0" stroke="black" stroke-width="2" fill="none" />
<polyline points="97.5,43.5,89.5,50.5,82.0,57.5,74.5,64.5,66.5,72.0,58.5,80.0,50.5,87.5,42.5,95.5,34.0,103.5,25.5,111.0,17.0,118.5,9.0,126.0,1.5,133.0" stroke="black" stroke-width="2" fill="none" />
<polyline points="3.0,129.5,11.0,122.0,19.0,114.0,27.0,106.0,35.0,98.5" stroke="black" stroke-width="2" fill="none" />
<polyline points="33.5,91.5,41.5,91.0" stroke="black" stroke-width="2" fill="none" />
<polyline points="44.0,87.0,52.0,79.5,60.0,71.5,68.0,64.0,76.0,56.5,83.5,49.0,91.0,41.5,99.0,34.0" stroke="black" stroke-width="2" fill="none" />
<polyline points="91.0,35.5,83.0,43.0,75.0,50.0,67.0,57.5,59.5,65.0,51.5,73.0,44.0,80.5,36.5,88.0,28.5,95.5,20.0,103.5,12.0,111.5" stroke="black" stroke-width="2" fill="none" />
<polyline points="5.5,109.5,13.0,108.5,21.0,108.0,28.5,107.5,36.5,107.0,44.5,106.5,52.0,105.5,60.0,105.0,67.5,104.0,75.0,103.5,83.0,103.5,91.5,103.0,99.5,102.5,107.0,101.5,115.0,101.0,123.0,100.5,130.5,100.0,138.5,99.0,147.0,98.5,155.5,98.5,164.0,98.0,171.5,97.5,179.5,97.0,187.5,97.0,196.0,97.0,204.0,97.5,212.0,97.5" stroke="black" stroke-width="2" fill="none" />
<polyline points="205.0,106.0,197.5,113.5,189.0,121.5,180.5,129.0,171.5,137.0,163.0,145.0,155.0,152.5,147.0,160.5,139.5,168.0,131.5,176.0,123.5,183.5,115.0,191.0,107.0,198.5,98.5,206.0,90.0,213.0,83.0,220.5,75.0,228.0" stroke="black" stroke-width="2" fill="none" />
<polyline points="78.5,230.5,69.5,238.5" stroke="black" stroke-width="2" fill="none" />
<polyline points="74.0,234.5,77.0,236.0" stroke="black" stroke-width="2" fill="none" />
<polyline points="67.5,227.5,75.5,219.5,83.0,212.5,91.0,205.5,98.5,198.5,106.5,191.0,114.5,182.5,122.5,175.5,130.5,168.5,138.5,161.0,147.0,153.5,155.5,145.5,163.5,137.5,171.0,129.0,179.0,121.0,187.0,113.0,195.0,105.5" stroke="black" stroke-width="2" fill="none" />
<polyline points="201.0,96.5,209.0,107.5" stroke="black" stroke-width="2" fill="none" />
<polyline points="188.5,135.0,181.0,135.0,173.0,135.5" stroke="black" stroke-width="2" fill="none" />
<polyline points="174.0,129.5,181.5,128.5" stroke="black" stroke-width="2" fill="none" />
<polyline points="181.5,121.5,173.5,122.0" stroke="black" stroke-width="2" fill="none" />
<polyline points="172.0,98.5,164.5,99.0" stroke="black" stroke-width="2" fill="none" />
<polyline points="149.5,82.0,157.5,75.0,165.0,67.5,173.0,60.5" stroke="black" stroke-width="2" fill="none" />
<polyline points="195.5,66.0,187.0,66.5,179.0,66.5,171.0,67.0,163.5,67.5,155.5,68.0,147.0,69.0,139.0,69.5,130.5,70.5,122.0,71.0,114.0,71.0,106.5,71.0,99.0,71.5,91.5,72.0,83.5,73.0,76.0,73.5,67.5,73.5,59.5,74.0,51.0,74.0,43.0,74.0,35.5,74.5,27.5,75.0,19.5,75.5,11.5,76.5,3.5,77.0" stroke="black" stroke-width="2" fill="none" />
<polyline points="3.5,70.5,11.5,63.0,19.0,55.5,27.0,47.5,35.0,40.0,43.0,32.5,50.5,24.5,58.5,17.0,67.0,10.0,75.5,2.5" stroke="black" stroke-width="2" fill="none" />
<polyline points="75.5,9.5,67.5,17.0,59.5,25.0,51.5,32.5,44.0,40.0,35.5,47.5,28.0,55.5,21.0,64.0,13.0,71.5" stroke="black" stroke-width="2" fill="none" />
<polyline points="19.5,77.0,27.5,69.5,35.5,62.0,43.5,55.0,50.5,47.0,58.0,39.5,66.0,32.0,74.5,25.0,82.5,18.0" stroke="black" stroke-width="2" fill="none" />
<polyline points="81.0,11.0,73.5,18.5,66.0,26.5,58.5,34.0,51.0,41.5,43.5,49.5,35.5,57.0,28.0,64.0,20.0,71.5,11.5,79.0" stroke="black" stroke-width="2" fill="none" />
<polyline points="3.0,85.5,11.5,85.0,19.5,84.5,27.0,83.5,34.5,82.5,42.5,81.5,51.0,81.5,59.0,82.0,67.5,82.0,76.0,81.5,84.0,80.5,91.5,80.0,99.0,80.0,107.0,79.0,115.0,78.0,122.5,77.5,130.5,77.5,138.5,77.5,146.5,77.0,154.5,76.5,162.5,76.0,170.5,75.5,178.5,74.0,187.0,73.0,195.5,72.5,204.0,71.5" stroke="black" stroke-width="2" fill="none" />
<polyline points="211.5,105.0,203.5,105.5,196.0,106.0,187.5,106.0,179.5,105.5,171.5,105.5,163.5,106.0,156.0,107.0,148.0,108.0,140.5,109.0,132.5,109.5,124.5,110.0,116.0,110.0,108.0,110.0,100.0,110.0,92.0,110.5,83.5,111.0,76.0,111.5,68.5,112.5,61.0,113.0,52.5,113.5,44.5,114.0,37.0,115.0,29.5,116.0,21.5,117.0,13.0,118.0,5.5,119.0" stroke="black" stroke-width="2" fill="none" />
<polyline points="5.5,115.5,13.5,115.0,21.5,114.0,29.5,113.0" stroke="black" stroke-width="2" fill="none" />
<polyline points="27.0,96.0,19.0,96.0" stroke="black" stroke-width="2" fill="none" />
<polyline points="13.0,91.0,5.0,98.5" stroke="black" stroke-width="2" fill="none" />
<polyline points="4.0,102.0,12.0,94.0,20.0,87.0,27.5,79.5,35.5,72.5,43.5,65.0,51.0,57.0,58.5,49.5,67.0,42.0,75.0,34.5,83.5,27.0" stroke="black" stroke-width="2" fill="none" />
<polyline points="99.5,17.0,91.5,24.5,84.5,33.0,76.5,40.5,68.5,47.5,60.0,54.5,53.0,62.0,45.0,69.5,37.0,77.0,29.0,84.5,21.0,92.5,13.5,100.0,5.5,108.5" stroke="black" stroke-width="2" fill="none" />
<polyline points="4.5,105.0,12.5,104.5,20.5,104.0,28.5,103.5" stroke="black" stroke-width="2" fill="none" />
<polyline points="32.5,83.0,40.5,81.5,49.0,81.0,57.5,80.5,66.0,80.0" stroke="black" stroke-width="2" fill="none" />
<polyline points="93.0,127.5,101.0,121.0,108.5,113.5,116.5,105.5,124.5,98.0,132.0,91.0,139.5,83.5" stroke="black" stroke-width="2" fill="none" />
<polyline points="141.0,90.0,133.0,98.0,125.0,105.5,116.5,113.5,108.0,121.5,100.0,129.0" stroke="black" stroke-width="2" fill="none" />
<polyline points="93.0,130.0,101.0,129.5,108.5,129.0,116.5,128.5" stroke="black" stroke-width="2" fill="none" />
<polyline points="123.0,84.0,131.5,77.0" stroke="black" stroke-width="2" fill="none" />
<polyline points="139.5,64.5,148.0,57.0,156.5,50.0,164.5,42.5,173.0,34.5" stroke="black" stroke-width="2" fill="none" />
<polyline points="164.0,35.0,156.5,42.0,148.0,49.0,140.0,56.5" stroke="black" stroke-width="2" fill="none" />
<polyline points="132.0,48.5,139.5,40.5,147.5,33.0,155.5,25.0,164.0,17.5" stroke="black" stroke-width="2" fill="none" />
<polyline points="172.0,20.5,164.0,27.5" stroke="black" stroke-width="2" fill="none" />
<polyline points="156.5,35.5,148.0,43.5,140.0,51.5,132.0,59.0" stroke="black" stroke-width="2" fill="none" />
<polyline points="123.0,29.0,131.0,29.0,139.5,28.5,148.0,28.5,156.0,28.0,164.5,27.5,172.5,26.5" stroke="black" stroke-width="2" fill="none" />
<polyline points="172.5,11.5,164.5,12.0,156.5,13.0,148.5,13.0" stroke="black" stroke-width="2" fill="none" />
<polyline points="148.0,10.5,156.0,3.0" stroke="black" stroke-width="2" fill="none" />
<polyline points="140.5,6.0,148.5,6.0,157.0,5.5,165.5,5.0,173.5,4.0" stroke="black" stroke-width="2" fill="none" />
<polyline points="173.5,20.5,165.0,21.0,156.5,21.5,148.5,22.0,140.5,22.5" stroke="black" stroke-width="2" fill="none" />
<polyline points="143.0,14.5,135.0,14.5" stroke="black" stroke-width="2" fill="none" />
<polyline points="140.5,19.5,146.0,11.5,139.0,3.5" stroke="black" stroke-width="2" fill="none" />
<polyline points="137.5,2.5,136.0,11.0,138.5,19.0,143.5,26.0,136.5,31.0" stroke="black" stroke-width="2" fill="none" />
<polyline points="178.5,27.5,170.5,27.5,162.0,28.5,154.0,29.0,146.0,29.5,138.0,30.0,130.0,30.5,122.5,30.5,114.0,31.5,106.5,32.5,98.5,33.0,90.5,34.0,82.5,34.0,74.0,34.5,65.5,35.0,57.5,36.0,50.0,36.5,41.5,37.5,34.0,38.0,26.5,38.0,18.5,37.5,10.5,37.5,2.5,37.5" stroke="black" stroke-width="2" fill="none" />
<polyline points="3.5,41.0,11.5,33.5,19.0,25.5,27.0,18.0,35.5,10.0,44.0,1.5" stroke="black" stroke-width="2" fill="none" />
<polyline points="51.0,3.5,42.5,11.0,34.5,18.5,26.5,26.0,19.0,33.5,11.5,41.5,3.5,49.0" stroke="black" stroke-width="2" fill="none" />
<polyline points="2.0,48.0,10.0,47.5,18.5,47.0,26.5,46.5,35.5,46.0,44.0,46.0,52.5,45.5,61.0,45.0,69.5,45.0,77.5,45.0" stroke="black" stroke-width="2" fill="none" />
<polyline points="58.5,19.0,50.0,19.5" stroke="black" stroke-width="2" fill="none" />
<polyline points="43.5,25.0,51.5,25.0,60.0,25.0,68.5,25.0" stroke="black" stroke-width="2" fill="none" />
<polyline points="65.5,8.5,57.5,8.5" stroke="black" stroke-width="2" fill="none" />
<polyline points="51.0,8.5,43.0,9.0" stroke="black" stroke-width="2" fill="none" />
<polyline points="35.0,3.5,27.0,11.0,19.5,18.5,12.0,26.0,4.0,33.0" stroke="black" stroke-width="2" fill="none" />
<polyline points="2.0,31.5,10.0,31.0,18.5,31.0,26.5,30.5,35.0,30.0,43.5,29.5,51.5,29.0,60.0,28.0,68.0,27.5,76.0,26.5,83.5,25.5,91.5,25.0,99.5,24.5,107.5,24.0,114.5,23.0" stroke="black" stroke-width="2" fill="none" />
<polyline points="109.5,15.0,102.0,15.5,94.0,16.5,86.0,17.0,78.0,17.5,69.5,18.5,61.5,19.0,53.0,19.5,45.0,20.0,36.5,21.0,28.5,21.5,20.0,22.0,11.0,22.5,2.5,22.5" stroke="black" stroke-width="2" fill="none" />
<polyline points="4.0,26.5,12.0,19.0,19.5,11.5,27.5,4.0" stroke="black" stroke-width="2" fill="none" />
<polyline points="22.0,4.0,13.5,11.5,5.5,19.0" stroke="black" stroke-width="2" fill="none" />
<polyline points="4.5,15.5,12.5,14.5,20.5,14.0,28.5,13.0,36.5,12.0,45.0,11.0,53.0,10.0,60.5,9.5,69.0,9.0,77.0,8.5,85.5,8.0,93.0,7.5,101.0,7.0" stroke="black" stroke-width="2" fill="none" />
<polyline points="98.5,3.0,96.0,11.0,97.0,16.0,104.0,23.5" stroke="black" stroke-width="2" fill="none" />
<polyline points="66.0,32.0,57.5,32.0,49.0,32.5,41.5,33.5,33.5,33.5" stroke="black" stroke-width="2" fill="none" />
<polyline points="26.0,41.0,34.0,40.5,42.0,39.5,50.0,39.0,58.0,39.5,66.0,39.5,73.5,39.0" stroke="black" stroke-width="2" fill="none" />
<polyline points="18.0,27.5,10.0,28.0" stroke="black" stroke-width="2" fill="none" />
<polyline points="4.0,10.5,12.0,3.0" stroke="black" stroke-width="2" fill="none" />
<polyline points="5.0,5.5,13.0,5.0,21.5,4.5,29.0,4.0,36.5,4.0,44.5,3.5,52.0,2.5,60.5,2.0,68.5,1.0,76.5,0.0" stroke="black" stroke-width="2" fill="none" />
<polyline points="42.5,63.5,35.0,64.0,27.0,64.0,19.0,64.5,11.0,66.0,3.5,66.5" stroke="black" stroke-width="2" fill="none" />
<polyline points="2.5,70.0,10.5,69.5,19.0,69.0,27.0,68.5,35.5,68.0,43.5,68.0,51.5,67.5,59.5,67.0,67.5,66.5,76.0,66.5,84.0,66.0,92.0,65.0,99.0,64.0,107.0,63.5,115.0,63.0,123.0,62.5,131.0,62.0,139.0,62.0,146.5,61.5,154.5,61.5,162.0,61.5,170.5,61.0,178.5,59.5,187.0,59.0,196.0,58.0" stroke="black" stroke-width="2" fill="none" />
<polyline points="203.0,80.5,194.0,80.5,186.0,81.0,178.0,82.0,169.5,82.5,161.5,82.5,153.0,83.5,145.5,84.0,138.0,84.5,130.5,85.0,122.5,85.5,115.0,86.5,107.5,87.5,100.0,89.0,91.5,89.5,83.5,90.0,75.5,90.5,67.5,91.0,59.5,91.0,51.5,91.0,44.0,91.5,36.0,92.0,28.0,92.5,20.0,93.0,12.0,93.5,3.5,94.0" stroke="black" stroke-width="2" fill="none" />
<polyline points="3.5,102.0,12.0,101.0,19.5,100.0,27.5,99.5,35.0,99.0,42.5,99.0,50.5,98.5,59.0,99.0,67.0,99.0,75.5,98.5,83.5,97.5,91.0,97.0,98.5,96.5,106.0,95.5,113.5,94.0,121.5,93.0,130.0,92.5,138.0,91.0,146.0,90.0,154.0,90.0,162.0,89.5,170.0,89.0,178.5,89.0,186.5,89.0,194.5,88.5,203.0,88.0" stroke="black" stroke-width="2" fill="none" />
<polyline points="212.5,121.5,204.5,122.5,197.0,122.5,189.0,123.0,181.0,123.5,172.5,124.0,164.5,124.5,156.5,125.0,148.5,126.0,140.5,126.5,133.0,127.0,124.5,127.5,116.5,127.5,108.5,127.5,101.0,127.0,93.0,127.0,85.0,128.0,77.0,128.5,69.5,128.5,62.0,129.5,54.0,130.5,46.0,131.0,38.0,131.0,29.5,131.0,21.5,131.5,14.0,132.5,6.5,133.0" stroke="black" stroke-width="2" fill="none" />
<polyline points="5.0,136.0,13.0,135.5,21.0,135.0,29.0,135.0,37.0,135.0,44.5,135.0" stroke="black" stroke-width="2" fill="none" />
<polyline points="34.0,146.5,42.5,145.5,50.5,145.5,59.0,145.5" stroke="black" stroke-width="2" fill="none" />
<polyline points="51.5,163.0,43.5,163.5" stroke="black" stroke-width="2" fill="none" />
<polyline points="41.5,171.5,50.0,171.0,58.0,171.0,66.5,170.5,75.0,169.5,83.0,169.0,92.0,168.0" stroke="black" stroke-width="2" fill="none" />
<polyline points="100.5,183.0,92.0,183.5,84.0,183.5,76.0,184.5,67.5,185.0" stroke="black" stroke-width="2" fill="none" />
<polyline points="76.5,194.5,84.5,194.0,93.0,193.5,101.0,193.0,109.0,192.5,116.5,192.5" stroke="black" stroke-width="2" fill="none" />
<polyline points="141.5,198.0,133.0,198.0,124.5,198.5,116.5,199.0,108.5,200.5,101.0,201.5,93.0,202.5,84.5,203.5,77.0,204.0" stroke="black" stroke-width="2" fill="none" />
<polyline points="51.0,234.0,43.0,235.0,34.5,235.5" stroke="black" stroke-width="2" fill="none" />
<polyline points="27.0,232.0,19.0,233.0,11.5,233.0,4.0,233.5" stroke="black" stroke-width="2" fill="none" />
<polyline points="4.0,227.0,12.0,226.0,19.0,225.0,27.0,224.5,35.0,224.0,43.0,223.5,51.0,223.0,59.0,223.0,66.5,222.5,74.5,222.5,82.0,222.5,90.5,222.0,98.5,220.5" stroke="black" stroke-width="2" fill="none" />
<polyline points="107.0,246.0,115.5,245.5,123.5,245.0,132.0,244.5,140.5,244.5,149.0,243.5" stroke="black" stroke-width="2" fill="none" />
<polyline points="140.0,250.5,132.0,251.0,123.5,251.0,115.5,251.5" stroke="black" stroke-width="2" fill="none" />
<polyline points="100.5,262.0,108.5,262.0,116.0,262.0,124.0,261.5,132.0,260.5" stroke="black" stroke-width="2" fill="none" />
<polyline points="130.5,268.5,122.5,269.0,115.5,269.0,109.0,269.5,101.5,270.5,93.5,271.0,85.5,271.5,77.5,272.5,69.5,272.5,61.5,272.5,53.5,273.0,45.5,274.0,37.0,274.5,29.0,275.5,21.0,276.0,13.0,276.5,5.5,276.5" stroke="black" stroke-width="2" fill="none" />
<polyline points="5.0,285.0,13.0,284.0,21.0,284.0,28.5,284.5,36.5,284.5,44.5,284.5,53.0,284.0,60.5,283.5,68.5,283.0,76.5,282.0,84.5,281.5,92.5,281.0,101.0,280.5,109.0,280.0,117.0,279.5" stroke="black" stroke-width="2" fill="none" />
<polyline points="109.0,288.5,101.0,289.5,92.5,290.5,85.0,291.0,76.5,291.5,68.5,291.5,60.5,291.5,52.0,291.5,43.5,292.0,35.5,292.5,27.5,293.0,20.0,293.5,12.5,294.0,5.0,295.0" stroke="black" stroke-width="2" fill="none" />
<polyline points="3.5,302.0,11.5,301.5,19.5,301.0,28.0,300.5,36.0,300.0,44.5,299.0,52.5,299.0,61.0,299.5,69.5,299.5,77.5,299.0,85.5,299.0,93.5,298.0,101.0,296.5" stroke="black" stroke-width="2" fill="none" />
<polyline points="97.0,297.5,105.5,298.0" stroke="black" stroke-width="2" fill="none" />
<polyline points="92.0,297.5,84.0,305.0" stroke="black" stroke-width="2" fill="none" />
<polyline points="85.0,305.0,77.0,305.5,68.5,306.5,60.0,307.0,52.0,307.0,44.0,307.5,36.0,308.0,28.0,308.5,20.5,309.0,13.5,309.0,5.5,309.5" stroke="black" stroke-width="2" fill="none" />
<polyline points="6.0,318.0,13.5,317.5,21.5,317.0,29.0,317.0,36.5,316.5,44.5,316.0,52.5,315.5,61.0,315.5,69.0,315.0,77.0,314.0,84.5,313.0" stroke="black" stroke-width="2" fill="none" />
<polyline points="74.5,307.5,66.5,315.0" stroke="black" stroke-width="2" fill="none" />
<polyline points="60.5,323.0,52.5,331.0" stroke="black" stroke-width="2" fill="none" />
<polyline points="52.0,323.5,44.0,331.0,36.5,338.5" stroke="black" stroke-width="2" fill="none" />
<polyline points="29.5,338.0,37.5,331.0,45.5,323.5,53.5,316.0" stroke="black" stroke-width="2" fill="none" />
<polyline points="42.0,315.5,34.5,323.0" stroke="black" stroke-width="2" fill="none" />
<polyline points="33.5,314.5,25.5,322.0" stroke="black" stroke-width="2" fill="none" />
<polyline points="18.5,323.0,26.5,315.5,35.0,308.0" stroke="black" stroke-width="2" fill="none" />
<polyline points="28.0,309.5,20.0,317.0,12.0,323.5" stroke="black" stroke-width="2" fill="none" />
<polyline points="3.5,324.5,11.5,324.0,19.5,324.5,27.5,324.0,35.0,323.5,43.0,323.5,51.0,323.0,59.0,323.5,67.0,323.0" stroke="black" stroke-width="2" fill="none" />
<polyline points="68.0,325.5,56.0,333.5,44.0,341.0,49.0,339.0,57.0,332.0,65.0,328.0,73.0,324.0,81.0,319.5,85.0,311.5,99.0,305.5" stroke="black" stroke-width="2" fill="none" />
<polyline points="86.0,301.0,94.0,307.0,90.5,309.0,82.0,319.5" stroke="black" stroke-width="2" fill="none" />
<polyline points="51.5,299.5,44.0,307.0" stroke="black" stroke-width="2" fill="none" />
<polyline points="36.0,290.0,44.0,282.5" stroke="black" stroke-width="2" fill="none" />
<polyline points="22.0,306.5,13.5,314.0" stroke="black" stroke-width="2" fill="none" />
<polyline points="20.0,332.0,12.5,339.5" stroke="black" stroke-width="2" fill="none" />
<polyline points="12.5,333.5,4.0,340.0" stroke="black" stroke-width="2" fill="none" />
<polyline points="4.0,333.5,11.5,333.0,20.0,333.0,27.5,332.5,35.5,332.5,43.5,332.5,51.5,332.0" stroke="black" stroke-width="2" fill="none" />
<polyline points="28.0,333.5,20.0,341.0" stroke="black" stroke-width="2" fill="none" />
<polyline points="3.5,268.0,12.0,267.5,20.0,267.0,28.0,267.0,36.0,267.0,44.5,267.0,52.5,266.5,60.5,266.0,68.0,265.0,76.0,264.0,83.5,263.0,91.5,262.5,99.5,262.5,107.5,263.0,116.0,263.0,123.5,262.5,131.5,262.0,139.5,261.5" stroke="black" stroke-width="2" fill="none" />
<polyline points="130.0,279.0,123.0,287.0,113.0,292.0,121.0,288.5,129.5,280.5" stroke="black" stroke-width="2" fill="none" />
<polyline points="132.0,202.5,124.0,203.5,116.0,204.5,108.0,205.0,100.5,205.0,92.5,205.0,84.0,206.0,75.5,206.5,67.5,207.5,59.0,208.5,51.0,209.0,43.0,209.0,35.0,209.5,26.5,209.5,18.5,209.5,10.5,209.5" stroke="black" stroke-width="2" fill="none" />
<polyline points="5.5,202.0,13.5,201.0,21.5,200.5,29.5,200.5,37.5,200.5,45.5,200.0,53.0,199.5,60.0,198.5" stroke="black" stroke-width="2" fill="none" />
<polyline points="66.0,190.5,58.0,191.0,50.0,191.5,42.5,191.5,34.0,192.5,26.5,193.5,18.5,194.0,10.5,195.0,2.5,195.0" stroke="black" stroke-width="2" fill="none" />
<polyline points="6.0,186.0,14.0,185.5,22.0,184.5,29.5,184.0,36.5,183.5,43.5,182.5,51.0,182.5,57.5,182.0" stroke="black" stroke-width="2" fill="none" />
<polyline points="21.0,146.5,13.0,146.5,5.5,147.0" stroke="black" stroke-width="2" fill="none" />
<polyline points="4.0,124.5,12.5,123.5,20.5,123.0,28.5,122.0,37.0,122.0,45.0,122.0,53.5,122.0,61.5,121.5,69.5,121.0,77.0,120.5,85.5,119.5,93.0,119.5,101.0,119.0,109.0,118.5,117.0,117.5,125.5,117.0,133.5,116.0,141.5,115.5,149.5,115.5,157.5,115.5,165.5,114.5,173.5,114.0,181.5,113.5,189.0,112.5,195.5,112.0,202.5,112.0,210.5,111.5,217.5,111.0" stroke="black" stroke-width="2" fill="none" />
<polyline points="237.0,160.5,245.0,160.5" stroke="black" stroke-width="2" fill="none" />
<polyline points="221.5,173.5,221.0,170.5,213.0,172.5" stroke="black" stroke-width="2" fill="none" />
<polyline points="213.0,178.5,219.0,184.5,216.0,193.0,217.0,201.0,213.0,209.0,203.0,217.5,209.0,214.5,215.0,198.0" stroke="black" stroke-width="2" fill="none" />
<polyline points="213.5,183.0,221.0,182.0,224.5,183.5" stroke="black" stroke-width="2" fill="none" />
<polyline points="92.0,255.5,83.5,256.0,76.0,256.0,67.5,256.5,59.0,256.5,51.0,257.0,43.0,258.0,35.0,258.0,27.5,258.0,20.0,258.0,12.5,258.0,4.5,258.5" stroke="black" stroke-width="2" fill="none" />
<polyline points="3.0,252.5,11.5,252.0,19.5,251.5,27.0,250.5,35.0,250.0,43.0,249.5,50.5,249.0,58.5,248.0,67.0,247.5,75.5,247.5,84.0,247.0,91.5,246.5,99.5,246.0,107.5,246.0" stroke="black" stroke-width="2" fill="none" />
<polyline points="84.5,238.0,76.5,238.5,68.0,239.5,59.5,240.5,50.5,241.5,42.0,242.5,34.0,243.5,26.0,244.0,18.5,244.5,10.0,245.0,2.0,246.0" stroke="black" stroke-width="2" fill="none" />
<polyline points="3.0,217.5,11.0,216.5,19.5,216.5,27.5,216.5,36.5,216.5,45.0,216.0,52.5,215.5,60.0,215.5,68.0,215.0,75.5,215.0,83.5,214.5,91.5,214.0,100.0,213.5,108.0,213.0,116.0,212.0" stroke="black" stroke-width="2" fill="none" />
<polyline points="75.5,232.5,67.5,239.0,59.5,239.0,51.5,239.0,43.5,244.0,49.5,239.0" stroke="black" stroke-width="2" fill="none" />
<polyline points="3.0,53.0,11.0,52.5,19.5,52.0,27.5,51.0,36.5,50.5,44.5,49.5,53.0,49.5,60.5,49.5,68.5,49.0,77.0,49.0,85.0,49.0,92.5,48.5,100.5,47.0,108.5,46.0,116.0,46.0,123.5,46.0,131.5,45.5,139.5,44.5,147.5,44.5,155.5,43.5,163.5,43.0,171.5,43.0,180.0,43.0,188.5,43.0" stroke="black" stroke-width="2" fill="none" />
<polyline points="187.0,35.5,179.0,36.0,171.0,37.0,162.5,37.5,154.5,37.5,147.0,37.0,139.5,37.0,132.0,37.5,124.0,38.0,116.0,38.5,108.5,39.0,101.0,40.0,93.0,41.5,85.0,42.5,77.0,42.5,68.5,42.5,60.0,43.0,52.5,44.0,44.5,44.0,36.0,44.5,27.5,44.5,19.0,45.0,11.0,45.0,3.5,45.5" stroke="black" stroke-width="2" fill="none" />
<polyline points="183.0,37.5,191.0,46.0" stroke="black" stroke-width="2" fill="none" />
</svg>