<svg xmlns="http://www.w3.org/2000/svg" version="1.1"><polyline points="216.5,2.5,218.5,10.5,218.5,18.5,213.5,26.5" stroke="black" stroke-width="2" fill="none" />
<polyline points="210.5,28.5,218.5,28.0,227.0,27.5,235.0,27.5,243.0,27.5,250.5,27.0,259.0,27.0,266.5,26.5,274.5,26.0,282.5,26.0,290.0,25.5,298.0,25.0,306.0,24.0,313.5,23.5,321.5,23.0,329.5,23.0,337.5,23.0,346.0,22.5,354.0,22.0,361.5,21.5,369.5,21.0,377.5,20.5" stroke="black" stroke-width="2" fill="none" />
<polyline points="372.5,24.0,364.5,24.0,356.5,24.0,348.5,24.5,340.5,24.5,332.0,24.5,323.5,25.0,315.5,25.5,308.0,26.0,300.0,26.0,292.0,26.5,284.0,27.5,276.0,28.5,268.5,30.0,261.0,31.0,252.5,31.5,244.0,32.0,236.0,33.0,228.5,34.0,220.5,34.5,212.5,35.0,204.0,35.0,196.5,36.0,188.5,36.5,180.5,37.0,173.0,37.0,165.5,37.0,157.5,37.0,149.0,37.5,141.0,38.0" stroke="black" stroke-width="2" fill="none" />
<polyline points="139.5,32.0,147.5,30.5,155.5,30.0,164.0,29.5,172.0,29.0,180.5,28.5,188.0,28.0" stroke="black" stroke-width="2" fill="none" />
<polyline points="196.5,35.0,188.5,42.5,180.0,50.0,171.5,57.5,163.5,65.0,155.5,72.5,147.0,80.5" stroke="black" stroke-width="2" fill="none" />
<polyline points="148.0,85.0,156.0,84.5,163.5,85.0,171.0,85.0,178.5,85.0,186.5,84.5,195.0,84.0,203.0,83.0,211.5,82.5,219.5,82.0" stroke="black" stroke-width="2" fill="none" />
<polyline points="204.5,83.0,196.5,90.0" stroke="black" stroke-width="2" fill="none" />
<polyline points="185.0,88.5,193.0,81.5,201.5,74.0" stroke="black" stroke-width="2" fill="none" />
<polyline points="203.0,67.5,195.0,74.5,187.0,82.0,179.5,89.5" stroke="black" stroke-width="2" fill="none" />
<polyline points="179.5,89.0,187.5,88.5" stroke="black" stroke-width="2" fill="none" />
<polyline points="178.0,99.5,186.5,99.5,194.5,99.0,203.0,99.0,211.0,98.5,219.0,98.0,227.0,98.0,235.5,98.5,243.0,98.5,250.5,98.5,258.5,98.0,266.5,97.0,275.0,96.0,283.0,95.0,290.5,94.0,299.0,93.5,306.5,92.5,315.0,92.5,323.0,92.5,330.5,92.5,338.5,92.0,347.0,91.5,355.5,91.0,364.0,90.5" stroke="black" stroke-width="2" fill="none" />
<polyline points="355.0,91.0,347.0,99.0,338.5,106.5,330.5,114.0,322.5,121.5,315.0,129.0,307.5,136.5" stroke="black" stroke-width="2" fill="none" />
<polyline points="307.5,128.0,315.0,121.0,322.5,114.0,330.5,107.0,338.5,100.5,346.5,93.0" stroke="black" stroke-width="2" fill="none" />
<polyline points="352.5,101.5,344.5,109.0" stroke="black" stroke-width="2" fill="none" />
<polyline points="340.0,114.0,332.5,114.5,324.5,115.0,316.5,115.5,308.0,115.5" stroke="black" stroke-width="2" fill="none" />
<polyline points="309.5,123.0,317.0,122.5,324.5,122.0,332.5,121.5,340.5,120.5" stroke="black" stroke-width="2" fill="none" />
<polyline points="337.5,124.0,329.5,131.5,322.0,139.0" stroke="black" stroke-width="2" fill="none" />
<polyline points="313.0,139.0,321.0,131.0,329.0,123.5,337.5,116.0" stroke="black" stroke-width="2" fill="none" />
<polyline points="336.0,117.5,344.0,107.0,352.5,104.0,361.0,99.0" stroke="black" stroke-width="2" fill="none" />
<polyline points="359.0,104.5,367.0,107.5" stroke="black" stroke-width="2" fill="none" />
<polyline points="355.0,113.5,346.5,114.5,338.0,115.0,330.0,115.5,321.5,116.0,313.5,116.0,305.5,116.5,298.0,117.5,291.0,118.5,283.0,119.0" stroke="black" stroke-width="2" fill="none" />
<polyline points="283.0,127.0,290.5,126.5,298.5,126.0,306.5,125.5,314.5,125.0,323.0,124.5,331.0,124.5,339.5,124.0" stroke="black" stroke-width="2" fill="none" />
<polyline points="337.0,129.5,345.0,141.5,353.5,145.0,361.5,145.0,369.0,140.0,373.0,147.0,384.5,158.5,394.0,167.0,396.0,175.5,395.5,183.5,390.5,191.5" stroke="black" stroke-width="2" fill="none" />
<polyline points="397.5,173.0,405.5,172.5" stroke="black" stroke-width="2" fill="none" />
<polyline points="405.5,165.5,397.5,166.0" stroke="black" stroke-width="2" fill="none" />
<polyline points="402.0,158.0,394.5,158.5,386.5,159.0" stroke="black" stroke-width="2" fill="none" />
<polyline points="378.5,146.0,370.5,154.0" stroke="black" stroke-width="2" fill="none" />
<polyline points="369.0,156.5,358.0,164.0,355.0,172.0,355.0,180.0,358.5,187.5,369.5,196.0" stroke="black" stroke-width="2" fill="none" />
<polyline points="364.5,198.5,372.5,198.0,380.0,197.5,387.5,197.5" stroke="black" stroke-width="2" fill="none" />
<polyline points="382.0,215.5,390.5,200.5,390.5,200.5,386.5,209.0,382.5,217.5,381.5,225.5,383.5,233.5,391.0,241.0" stroke="black" stroke-width="2" fill="none" />
<polyline points="399.5,242.5,391.5,240.0,383.5,231.0" stroke="black" stroke-width="2" fill="none" />
<polyline points="347.5,252.5,339.5,260.0,331.5,267.5,323.5,274.5,315.0,282.0,306.5,289.5,299.0,297.0,291.5,304.5,283.5,312.0,276.0,320.0,268.0,328.0,260.0,335.0" stroke="black" stroke-width="2" fill="none" />
<polyline points="259.0,337.5,267.5,337.5" stroke="black" stroke-width="2" fill="none" />
<polyline points="269.0,335.5,277.0,328.5,286.0,320.5,294.0,313.0,302.0,305.0,310.0,297.5,318.0,290.0,325.0,283.0,332.5,276.0,340.5,268.5,348.5,260.5" stroke="black" stroke-width="2" fill="none" />
<polyline points="347.0,268.0,339.0,276.0,331.5,284.0,323.5,291.5,316.0,298.5,308.5,306.0,301.0,313.5,293.0,321.0,285.0,328.5,277.0,336.5" stroke="black" stroke-width="2" fill="none" />
<polyline points="276.5,335.5,284.5,335.5" stroke="black" stroke-width="2" fill="none" />
<polyline points="292.0,336.5,299.5,329.0,307.5,321.0,316.0,313.5,323.5,305.5,332.0,298.0,340.0,290.5,347.5,283.0,355.0,276.0,363.0,268.5" stroke="black" stroke-width="2" fill="none" />
<polyline points="354.0,267.5,346.0,275.5,338.0,283.0,330.5,290.5,322.5,299.0,314.5,307.0,306.5,314.5,298.5,321.5,291.0,328.5,283.0,335.5" stroke="black" stroke-width="2" fill="none" />
<polyline points="291.0,330.5,298.5,330.0,306.0,329.5,314.0,329.0,322.5,328.5,331.5,328.5,339.5,327.5,348.0,326.5,356.5,325.5,365.5,324.5,373.5,324.0,381.5,323.5,389.5,323.0,397.5,322.0,404.5,321.0" stroke="black" stroke-width="2" fill="none" />
<polyline points="403.5,321.5,395.0,329.5,386.5,337.5" stroke="black" stroke-width="2" fill="none" />
<polyline points="396.0,339.0,403.5,331.5,412.0,323.5" stroke="black" stroke-width="2" fill="none" />
<polyline points="413.0,333.0,405.0,340.5" stroke="black" stroke-width="2" fill="none" />
<polyline points="410.0,331.0,402.5,331.5,394.5,332.0,386.5,332.0,379.0,332.5,371.0,333.0,362.5,333.5,354.5,334.5,346.5,335.0,338.5,335.5,331.0,336.0,323.5,337.0,315.5,337.5,307.5,338.0,299.5,338.5" stroke="black" stroke-width="2" fill="none" />
<polyline points="315.0,337.5,322.5,330.5,330.0,323.0,337.0,315.5,344.5,308.5,353.0,301.5" stroke="black" stroke-width="2" fill="none" />
<polyline points="353.5,310.0,345.5,317.5,338.0,325.0,331.0,332.0,323.5,339.0" stroke="black" stroke-width="2" fill="none" />
<polyline points="355.0,336.0,363.5,328.5,371.5,321.0,379.5,313.5" stroke="black" stroke-width="2" fill="none" />
<polyline points="381.5,316.5,373.5,317.0,365.5,317.5,357.0,317.5,348.0,318.0,340.0,319.5,331.5,319.5,323.0,320.0,314.0,320.0,305.5,320.0,297.0,320.5,289.0,321.0" stroke="black" stroke-width="2" fill="none" />
<polyline points="290.5,312.5,298.5,312.5,306.5,312.5,314.0,312.5,322.0,312.5,330.0,312.0,338.0,311.5" stroke="black" stroke-width="2" fill="none" />
<polyline points="333.5,336.5,341.5,329.0,349.5,321.5,357.5,314.0,365.0,306.0" stroke="black" stroke-width="2" fill="none" />
<polyline points="369.0,307.5,377.0,312.5,385.0,318.5,396.0,321.5,403.5,326.5,411.0,339.5" stroke="black" stroke-width="2" fill="none" />
<polyline points="411.0,340.5,405.0,332.0,401.0,324.0" stroke="black" stroke-width="2" fill="none" />
<polyline points="396.5,324.5,388.5,332.0,380.5,340.0" stroke="black" stroke-width="2" fill="none" />
<polyline points="373.0,340.5,381.0,334.0,389.5,326.5" stroke="black" stroke-width="2" fill="none" />
<polyline points="388.0,314.5,380.0,322.0,372.0,330.5,364.0,338.5" stroke="black" stroke-width="2" fill="none" />
<polyline points="346.5,339.0,354.5,331.5,362.0,324.0,370.0,317.0" stroke="black" stroke-width="2" fill="none" />
<polyline points="371.5,309.0,363.5,316.5,355.5,324.0,347.0,331.5,338.5,339.0" stroke="black" stroke-width="2" fill="none" />
<polyline points="306.0,337.0,314.5,329.0,322.5,321.0,331.0,313.5,338.5,306.0,346.5,298.5,354.0,291.5" stroke="black" stroke-width="2" fill="none" />
<polyline points="354.5,282.0,346.0,289.5,338.0,298.0,330.0,306.0,322.5,314.0,315.0,322.0,307.0,330.0,299.0,338.5" stroke="black" stroke-width="2" fill="none" />
<polyline points="290.5,305.0,298.5,304.5,307.0,304.0,315.0,304.0,323.0,304.0,331.5,303.5" stroke="black" stroke-width="2" fill="none" />
<polyline points="324.5,282.0,316.5,282.5" stroke="black" stroke-width="2" fill="none" />
<polyline points="322.5,288.0,315.0,289.5,307.0,290.0" stroke="black" stroke-width="2" fill="none" />
<polyline points="292.5,298.5,300.5,297.5,308.0,297.0,315.5,297.0,323.0,297.0,330.5,296.5" stroke="black" stroke-width="2" fill="none" />
<polyline points="324.0,271.0,316.5,272.0,308.5,272.5" stroke="black" stroke-width="2" fill="none" />
<polyline points="307.5,266.5,315.5,265.5,323.5,265.0,331.5,264.5" stroke="black" stroke-width="2" fill="none" />
<polyline points="337.5,251.0,329.5,258.5,321.5,266.5,313.5,274.0,306.0,281.0,299.0,288.0,291.5,295.0,284.5,302.5,277.0,310.5,270.0,318.0,261.5,325.5,254.0,333.0" stroke="black" stroke-width="2" fill="none" />
<polyline points="251.0,324.5,243.0,332.5,235.0,340.0" stroke="black" stroke-width="2" fill="none" />
<polyline points="244.5,333.0,253.0,326.0,261.0,318.5,269.0,311.0,276.5,303.0,284.0,295.5,291.0,289.0,298.0,281.5,306.0,274.0,314.0,266.5,321.5,259.0,329.0,251.5,336.5,244.5" stroke="black" stroke-width="2" fill="none" />
<polyline points="330.0,244.0,322.0,251.0,314.0,258.5,306.0,265.5,298.0,273.5,290.0,281.0,282.5,288.0,275.0,295.0" stroke="black" stroke-width="2" fill="none" />
<polyline points="273.5,288.0,281.5,280.5,290.0,273.0" stroke="black" stroke-width="2" fill="none" />
<polyline points="285.0,275.0,276.5,282.5" stroke="black" stroke-width="2" fill="none" />
<polyline points="276.0,273.5,284.0,266.0,292.0,259.0,300.0,251.5,308.0,244.0,316.5,236.5" stroke="black" stroke-width="2" fill="none" />
<polyline points="324.5,235.5,317.0,243.0,308.5,251.0,300.5,258.5,292.0,266.5" stroke="black" stroke-width="2" fill="none" />
<polyline points="293.0,268.0,283.0,276.0,289.0,274.0" stroke="black" stroke-width="2" fill="none" />
<polyline points="289.5,266.0,283.5,271.0,291.0,266.0" stroke="black" stroke-width="2" fill="none" />
<polyline points="300.5,268.0,308.5,260.0,316.5,252.0,324.0,244.0" stroke="black" stroke-width="2" fill="none" />
<polyline points="316.5,227.5,308.5,235.0,300.0,242.5,291.5,250.5,283.0,258.5,274.5,266.5" stroke="black" stroke-width="2" fill="none" />
<polyline points="268.0,270.0,276.0,269.5,284.0,268.5,292.0,268.0,300.5,267.0,308.0,266.5,316.0,266.0,324.0,266.0,331.5,266.0,339.5,266.0,347.5,265.5,355.5,264.5,363.5,264.0,371.5,263.5" stroke="black" stroke-width="2" fill="none" />
<polyline points="330.5,257.0,322.5,257.5,314.0,257.5,306.5,258.0,298.5,258.0" stroke="black" stroke-width="2" fill="none" />
<polyline points="299.0,248.5,307.0,248.0,315.0,248.0,322.5,248.0" stroke="black" stroke-width="2" fill="none" />
<polyline points="310.0,228.0,301.5,235.5,293.0,243.0,284.5,250.5,276.0,258.0" stroke="black" stroke-width="2" fill="none" />
<polyline points="269.5,257.5,277.5,250.0,285.5,243.0,293.5,236.0,302.0,228.5" stroke="black" stroke-width="2" fill="none" />
<polyline points="299.0,217.5,291.0,225.0,283.0,232.5,275.5,240.0,267.5,248.0" stroke="black" stroke-width="2" fill="none" />
<polyline points="266.0,242.0,274.5,234.5,283.5,226.5,291.5,219.0" stroke="black" stroke-width="2" fill="none" />
<polyline points="293.0,210.0,285.0,217.0,276.5,225.0,267.5,233.5,258.5,241.5" stroke="black" stroke-width="2" fill="none" />
<polyline points="252.5,241.0,261.0,232.5,270.0,224.5,278.5,217.0,286.5,209.5" stroke="black" stroke-width="2" fill="none" />
<polyline points="283.0,203.0,275.5,210.5,267.5,219.0,259.5,226.5" stroke="black" stroke-width="2" fill="none" />
<polyline points="258.5,218.0,267.0,211.0,275.0,204.0,283.0,196.5" stroke="black" stroke-width="2" fill="none" />
<polyline points="275.0,197.0,267.0,204.0" stroke="black" stroke-width="2" fill="none" />
<polyline points="253.5,197.0,261.0,197.0,268.5,197.0,276.0,197.0,284.0,196.5,292.0,195.5,299.0,195.0" stroke="black" stroke-width="2" fill="none" />
<polyline points="292.5,179.0,285.0,179.5,277.5,179.0,270.0,179.5" stroke="black" stroke-width="2" fill="none" />
<polyline points="269.0,172.5,277.0,172.0,285.0,171.5,293.0,171.5,301.5,171.5" stroke="black" stroke-width="2" fill="none" />
<polyline points="292.5,140.5,300.0,140.0,308.0,140.0,316.0,139.5,323.5,139.5,331.5,139.5,339.5,139.0,348.0,138.5,356.0,138.0,365.0,138.0,372.5,137.5" stroke="black" stroke-width="2" fill="none" />
<polyline points="372.5,134.5,364.5,134.5" stroke="black" stroke-width="2" fill="none" />
<polyline points="372.5,133.0,380.5,122.5,388.5,118.5,379.0,124.0,372.0,132.0,370.5,140.0" stroke="black" stroke-width="2" fill="none" />
<polyline points="373.5,144.5,381.0,154.5" stroke="black" stroke-width="2" fill="none" />
<polyline points="370.0,148.0,362.5,156.0,354.5,163.5" stroke="black" stroke-width="2" fill="none" />
<polyline points="355.0,165.0,347.0,165.5,339.0,166.5" stroke="black" stroke-width="2" fill="none" />
<polyline points="347.0,164.0,354.5,156.0,362.5,148.5" stroke="black" stroke-width="2" fill="none" />
<polyline points="353.5,149.0,345.5,156.0" stroke="black" stroke-width="2" fill="none" />
<polyline points="332.5,158.5,340.0,157.5,348.5,157.0,356.5,156.5,363.5,156.0" stroke="black" stroke-width="2" fill="none" />
<polyline points="355.5,169.5,363.0,158.5,371.0,155.5,379.0,155.5,387.0,159.0,395.0,171.0" stroke="black" stroke-width="2" fill="none" />
<polyline points="427.5,160.0,435.5,159.0,443.5,158.0,451.0,156.5,458.5,156.0,466.0,155.0,473.5,154.5,482.0,154.5,490.0,154.5,498.5,153.5,506.5,153.0,514.0,152.5" stroke="black" stroke-width="2" fill="none" />
<polyline points="516.5,155.0,508.5,162.5,500.0,170.5" stroke="black" stroke-width="2" fill="none" />
<polyline points="497.0,173.0,505.0,172.5,513.5,172.5" stroke="black" stroke-width="2" fill="none" />
<polyline points="514.5,162.5,507.0,163.0,499.5,163.5,492.0,164.0" stroke="black" stroke-width="2" fill="none" />
<polyline points="496.5,162.5,504.5,161.5" stroke="black" stroke-width="2" fill="none" />
<polyline points="499.0,163.0,507.5,155.0,515.5,147.5" stroke="black" stroke-width="2" fill="none" />
<polyline points="515.0,140.5,507.0,148.0,499.5,156.0" stroke="black" stroke-width="2" fill="none" />
<polyline points="492.0,155.0,499.5,148.0,507.0,141.0,514.5,133.5" stroke="black" stroke-width="2" fill="none" />
<polyline points="516.5,129.5,508.5,130.0" stroke="black" stroke-width="2" fill="none" />
<polyline points="516.5,123.0,508.0,131.0,500.0,138.5" stroke="black" stroke-width="2" fill="none" />
<polyline points="500.0,131.5,507.5,124.0,515.0,116.5" stroke="black" stroke-width="2" fill="none" />
<polyline points="516.0,109.0,508.0,116.5,499.5,123.5" stroke="black" stroke-width="2" fill="none" />
<polyline points="499.0,116.5,507.5,109.0,515.5,102.0" stroke="black" stroke-width="2" fill="none" />
<polyline points="509.5,99.5,501.5,107.0" stroke="black" stroke-width="2" fill="none" />
<polyline points="507.0,83.5,514.5,76.5" stroke="black" stroke-width="2" fill="none" />
<polyline points="508.5,74.0,516.0,66.5" stroke="black" stroke-width="2" fill="none" />
<polyline points="516.0,59.5,507.5,67.0" stroke="black" stroke-width="2" fill="none" />
<polyline points="505.0,61.5,513.0,54.0" stroke="black" stroke-width="2" fill="none" />
<polyline points="506.5,53.0,514.5,46.0" stroke="black" stroke-width="2" fill="none" />
<polyline points="506.5,43.5,515.0,36.0" stroke="black" stroke-width="2" fill="none" />
<polyline points="515.0,30.0,507.5,37.0" stroke="black" stroke-width="2" fill="none" />
<polyline points="507.5,28.0,515.5,20.5" stroke="black" stroke-width="2" fill="none" />
<polyline points="507.5,19.5,515.0,11.5" stroke="black" stroke-width="2" fill="none" />
<polyline points="516.0,5.0,508.0,5.5,499.5,6.0" stroke="black" stroke-width="2" fill="none" />
<polyline points="514.5,26.0,506.5,26.0,498.0,26.5,490.5,27.0,482.5,27.5,474.5,28.0" stroke="black" stroke-width="2" fill="none" />
<polyline points="482.5,37.5,491.0,36.5,499.5,36.0,507.5,35.5,515.5,35.5" stroke="black" stroke-width="2" fill="none" />
<polyline points="514.5,59.5,506.0,59.5,498.0,60.0" stroke="black" stroke-width="2" fill="none" />
<polyline points="498.5,52.5,506.5,52.0,515.0,52.0" stroke="black" stroke-width="2" fill="none" />
<polyline points="514.0,69.0,506.0,69.5,498.5,70.0" stroke="black" stroke-width="2" fill="none" />
<polyline points="490.5,75.5,498.0,75.0,506.0,75.5,514.5,75.0" stroke="black" stroke-width="2" fill="none" />
<polyline points="515.0,42.5,507.5,43.0,499.5,43.5,491.5,44.0" stroke="black" stroke-width="2" fill="none" />
<polyline points="467.0,77.0,459.5,78.0,451.5,79.0" stroke="black" stroke-width="2" fill="none" />
<polyline points="427.0,100.5,435.0,99.5,443.0,99.0,451.0,99.0,458.5,99.0,466.0,99.0,474.0,99.0,482.0,98.0,490.0,96.5,498.0,96.0,506.5,95.5,514.5,95.0" stroke="black" stroke-width="2" fill="none" />
<polyline points="515.5,146.0,507.5,146.5,499.5,146.5,491.5,147.0,482.5,147.5,474.0,147.5,466.0,147.5,458.0,148.0" stroke="black" stroke-width="2" fill="none" />
<polyline points="448.5,142.0,457.0,141.5,465.5,141.0,474.0,140.5,482.5,139.5,491.0,138.5,499.0,138.5,507.0,138.0,514.5,138.0" stroke="black" stroke-width="2" fill="none" />
<polyline points="514.5,129.0,506.5,129.5,498.0,130.0,490.0,130.5,482.0,131.5,474.0,132.5,466.0,133.5,458.0,134.5,449.5,135.0" stroke="black" stroke-width="2" fill="none" />
<polyline points="443.0,126.0,450.5,125.5,458.5,125.0,466.5,124.5,474.5,124.5,482.5,124.0,491.5,124.0,499.5,123.5,507.5,123.5,515.5,123.0" stroke="black" stroke-width="2" fill="none" />
<polyline points="515.5,114.0,507.0,114.5,499.5,114.5,492.5,115.0,484.5,115.5,476.5,115.5,468.0,116.0,460.5,116.0,452.5,116.0,444.5,117.0" stroke="black" stroke-width="2" fill="none" />
<polyline points="435.5,110.0,443.5,109.0,452.0,108.5,460.5,108.5,468.0,108.0,475.5,108.0,484.0,107.0,492.5,106.0,500.5,105.5,508.5,105.0,516.5,104.5" stroke="black" stroke-width="2" fill="none" />
<polyline points="516.0,87.5,508.0,88.0,500.0,88.5,491.5,89.0,483.5,89.5,475.5,89.5,467.5,90.0,459.5,90.5,451.5,90.5,443.0,90.5,434.5,91.0,426.5,91.5,418.5,92.0,410.5,92.5" stroke="black" stroke-width="2" fill="none" />
<polyline points="410.5,84.5,419.0,84.0,427.0,83.5,435.5,82.5,443.5,82.5,451.5,82.0,459.5,81.5,467.5,81.0,475.5,81.0,484.0,80.5,492.0,80.0,500.0,79.5,507.5,79.5,515.0,79.0" stroke="black" stroke-width="2" fill="none" />
<polyline points="515.5,15.5,507.5,16.5,499.5,17.0,491.5,17.5,483.5,18.5,476.0,19.0,467.5,20.0,459.5,20.5,451.5,20.0,444.0,20.0,436.0,20.0" stroke="black" stroke-width="2" fill="none" />
<polyline points="417.5,46.5,409.5,47.5" stroke="black" stroke-width="2" fill="none" />
<polyline points="411.0,53.5,418.5,53.0" stroke="black" stroke-width="2" fill="none" />
<polyline points="428.0,61.0,420.0,62.0,411.5,62.5,403.5,63.5" stroke="black" stroke-width="2" fill="none" />
<polyline points="395.0,71.0,403.0,70.0,411.5,69.0,419.5,68.0,427.5,67.0" stroke="black" stroke-width="2" fill="none" />
<polyline points="444.5,74.5,436.0,76.0,428.0,77.5,419.5,78.5,411.0,78.5,402.5,79.5" stroke="black" stroke-width="2" fill="none" />
<polyline points="406.0,37.5,413.5,37.0" stroke="black" stroke-width="2" fill="none" />
<polyline points="419.0,28.5,411.0,29.0,403.0,29.5,395.0,30.0" stroke="black" stroke-width="2" fill="none" />
<polyline points="392.0,30.0,402.0,38.0,405.5,46.0,406.0,54.0,401.5,62.5" stroke="black" stroke-width="2" fill="none" />
<polyline points="372.0,51.5,363.0,52.5,354.5,53.5,345.5,54.5,337.5,55.0" stroke="black" stroke-width="2" fill="none" />
<polyline points="339.5,47.5,347.0,47.0,355.5,46.5,363.5,46.0" stroke="black" stroke-width="2" fill="none" />
<polyline points="365.5,41.0,373.5,30.5,381.5,27.5,389.0,29.0,397.0,34.0" stroke="black" stroke-width="2" fill="none" />
<polyline points="381.0,29.0,369.0,37.0,366.5,45.0,368.0,53.0,371.0,61.0,382.5,69.0" stroke="black" stroke-width="2" fill="none" />
<polyline points="379.0,71.5,370.5,72.0,362.0,72.5,353.5,73.0,345.0,73.5,337.5,74.5,329.5,75.0,321.5,76.0,313.5,76.0,305.0,76.5" stroke="black" stroke-width="2" fill="none" />
<polyline points="305.5,68.5,314.0,68.5,322.5,68.0,330.5,67.5,338.5,67.0,346.0,66.0,354.5,66.0,362.5,65.5,370.5,65.0" stroke="black" stroke-width="2" fill="none" />
<polyline points="370.5,56.5,362.5,57.0,354.5,57.5,347.0,58.0,338.5,58.5,330.5,59.5,322.5,60.0,314.0,60.5,306.0,61.0" stroke="black" stroke-width="2" fill="none" />
<polyline points="296.5,56.0,304.5,55.0,313.5,54.5,322.0,53.5,330.5,52.5" stroke="black" stroke-width="2" fill="none" />
<polyline points="323.5,76.5,315.5,83.5,307.5,90.5,299.5,97.5" stroke="black" stroke-width="2" fill="none" />
<polyline points="300.0,91.5,308.5,84.0,316.5,76.0" stroke="black" stroke-width="2" fill="none" />
<polyline points="323.5,82.5,315.5,90.0,307.5,97.5,299.0,105.0" stroke="black" stroke-width="2" fill="none" />
<polyline points="300.0,113.0,307.5,105.5,315.5,98.5,323.5,91.5,331.5,84.5" stroke="black" stroke-width="2" fill="none" />
<polyline points="346.0,75.0,338.0,83.0,330.0,91.0,322.0,98.5,314.5,106.0,306.5,113.0,299.0,120.0" stroke="black" stroke-width="2" fill="none" />
<polyline points="301.5,129.0,309.0,122.0,316.5,115.0,324.0,106.5,332.5,99.0,340.0,91.0,348.0,83.0,356.0,75.5" stroke="black" stroke-width="2" fill="none" />
<polyline points="372.0,83.0,364.5,83.0,356.5,83.5,348.5,83.5,340.0,84.0,331.5,84.5,323.0,85.0,314.0,85.0,305.5,85.0,297.5,85.0" stroke="black" stroke-width="2" fill="none" />
<polyline points="305.5,88.5,313.5,88.0,322.0,87.5" stroke="black" stroke-width="2" fill="none" />
<polyline points="332.0,96.5,323.5,97.0,315.0,97.5,306.5,98.0" stroke="black" stroke-width="2" fill="none" />
<polyline points="310.0,108.0,317.5,107.0,325.0,106.5,332.5,106.0,339.5,105.0" stroke="black" stroke-width="2" fill="none" />
<polyline points="353.0,106.0,340.0,114.0,337.5,121.5,337.0,129.0,340.0,136.5,348.0,144.5" stroke="black" stroke-width="2" fill="none" />
<polyline points="356.0,174.5,348.0,175.0,339.5,175.0" stroke="black" stroke-width="2" fill="none" />
<polyline points="346.5,182.0,355.0,181.0" stroke="black" stroke-width="2" fill="none" />
<polyline points="355.0,182.0,363.0,192.0,371.0,195.0,379.5,195.0,388.0,190.0" stroke="black" stroke-width="2" fill="none" />
<polyline points="435.0,166.0,443.0,166.0,451.0,165.0,459.5,164.0,468.5,163.5" stroke="black" stroke-width="2" fill="none" />
<polyline points="460.5,173.0,453.5,173.0,446.0,173.5" stroke="black" stroke-width="2" fill="none" />
<polyline points="442.5,150.5,450.0,150.0" stroke="black" stroke-width="2" fill="none" />
<polyline points="437.5,149.0,429.0,149.5" stroke="black" stroke-width="2" fill="none" />
<polyline points="386.0,116.5,378.5,117.5" stroke="black" stroke-width="2" fill="none" />
<polyline points="329.5,128.5,321.5,129.0,313.5,130.0" stroke="black" stroke-width="2" fill="none" />
<polyline points="292.0,132.0,300.0,132.0,307.5,131.5,315.5,131.0,324.0,130.5,332.5,130.5,340.5,130.5" stroke="black" stroke-width="2" fill="none" />
<polyline points="353.5,106.5,346.0,107.0,338.0,107.5,329.5,108.0,321.5,108.0,313.5,108.0,305.5,108.5,298.0,109.0,290.0,110.0,282.0,110.5" stroke="black" stroke-width="2" fill="none" />
<polyline points="274.5,85.5,267.0,86.0,259.5,87.0" stroke="black" stroke-width="2" fill="none" />
<polyline points="265.0,78.0,273.5,87.0,281.5,90.0,290.0,89.0,298.0,83.0" stroke="black" stroke-width="2" fill="none" />
<polyline points="297.0,55.5,289.0,51.5,281.5,52.0,273.0,54.0,265.0,63.5" stroke="black" stroke-width="2" fill="none" />
<polyline points="279.0,52.5,268.0,61.0,266.0,68.5,266.0,76.5,270.0,83.5" stroke="black" stroke-width="2" fill="none" />
<polyline points="244.5,85.0,236.5,85.5" stroke="black" stroke-width="2" fill="none" />
<polyline points="201.0,61.5,193.5,69.0,185.5,76.5,178.0,83.5,170.5,90.5" stroke="black" stroke-width="2" fill="none" />
<polyline points="170.0,94.0,177.5,94.0,185.5,93.5,194.0,93.5,201.5,93.0,209.5,92.5,218.0,91.5,226.0,91.0,234.0,90.5,242.0,90.5,250.0,90.0,258.0,89.5,266.5,88.5,274.5,88.0,283.0,88.0,291.0,87.5,299.5,87.0,307.5,86.0,315.0,85.5,323.5,85.0,331.5,84.5,339.5,84.0,347.5,83.5,355.5,83.0,363.0,82.0,370.5,81.5" stroke="black" stroke-width="2" fill="none" />
<polyline points="366.5,53.5,374.5,65.0,382.5,69.0,391.0,69.5,398.5,65.5" stroke="black" stroke-width="2" fill="none" />
<polyline points="371.0,12.5,378.5,5.5" stroke="black" stroke-width="2" fill="none" />
<polyline points="361.5,13.5,353.5,21.0" stroke="black" stroke-width="2" fill="none" />
<polyline points="293.0,4.5,301.0,4.5,308.5,4.0,316.5,4.0,323.5,4.0,331.0,3.5,339.5,3.5,347.5,3.0,355.5,2.5,363.0,1.5,370.5,1.0,379.0,0.0,387.0,-0.5,395.0,-1.0,403.0,-1.5,411.5,-2.0,419.0,-3.0,427.0,-3.5,435.0,-3.5,442.5,-3.5,450.5,-3.5,458.0,-4.0,466.5,-5.0,474.5,-6.0" stroke="black" stroke-width="2" fill="none" />
<polyline points="469.5,1.5,476.5,9.5" stroke="black" stroke-width="2" fill="none" />
<polyline points="469.5,2.5,477.5,9.5,485.5,12.5,493.5,10.5,499.5,2.5,493.5,10.5" stroke="black" stroke-width="2" fill="none" />
<polyline points="419.0,10.5,411.0,10.5,403.0,10.5,395.0,11.0,387.0,11.5,379.0,12.0,370.5,12.5,362.0,13.0,354.5,13.5,347.0,14.0,339.5,14.5,331.0,15.0,323.0,15.0,315.0,15.0,306.5,15.5,298.5,16.0,291.0,16.5,283.0,17.5,275.5,18.0,268.5,18.0,260.5,19.0,253.0,19.5,245.0,20.0,237.0,20.5,229.0,21.0,221.5,21.5" stroke="black" stroke-width="2" fill="none" />
<polyline points="219.5,18.5,227.5,18.0,235.5,17.5,244.0,16.5" stroke="black" stroke-width="2" fill="none" />
<polyline points="249.5,13.5,241.5,21.0,234.5,28.5,227.0,35.5" stroke="black" stroke-width="2" fill="none" />
<polyline points="235.5,36.0,243.0,28.5,251.0,21.0" stroke="black" stroke-width="2" fill="none" />
<polyline points="241.5,10.0,234.0,17.5,226.0,25.5,218.5,33.5,211.0,41.5,203.0,49.0,195.5,57.0,188.0,65.0,180.0,72.5,172.5,80.0" stroke="black" stroke-width="2" fill="none" />
<polyline points="171.0,82.0,179.0,81.5,187.0,81.5,195.0,81.0" stroke="black" stroke-width="2" fill="none" />
<polyline points="163.5,79.5,171.0,72.0,179.5,64.5,187.5,56.5,195.5,49.0,203.5,41.5,211.0,33.5,219.0,25.5,227.0,17.5,235.0,10.5,243.5,3.0" stroke="black" stroke-width="2" fill="none" />
<polyline points="233.5,3.5,226.0,11.0,218.0,18.5" stroke="black" stroke-width="2" fill="none" />
<polyline points="219.0,15.5,227.0,14.5,234.5,13.0,242.5,12.0,250.5,11.5,259.0,11.0,267.0,11.0,275.5,10.5,284.5,10.5,293.0,10.5,301.0,10.0,309.5,9.5,317.5,9.0,325.0,8.5,332.5,8.5,340.5,8.0,348.0,6.5,355.5,6.0,362.5,5.0,370.0,4.0,378.5,3.5,386.0,2.5,394.0,2.5,402.0,2.0,410.5,1.5,419.0,2.0,427.0,1.5,435.0,1.0,443.5,0.5,451.5,0.5,459.5,0.0,467.5,-1.0,475.0,-2.0,482.5,-3.0,490.0,-4.0,498.5,-4.5,506.0,-6.0,514.5,-7.0" stroke="black" stroke-width="2" fill="none" />
<polyline points="503.0,174.0,511.0,166.0,508.0,169.0,503.5,177.0,503.5,185.0" stroke="black" stroke-width="2" fill="none" />
<polyline points="472.5,185.0,462.5,193.0,458.5,201.0,457.5,209.0,463.5,191.5,471.5,187.0" stroke="black" stroke-width="2" fill="none" />
<polyline points="507.5,252.5,516.0,252.0" stroke="black" stroke-width="2" fill="none" />
<polyline points="516.5,261.0,508.5,261.5" stroke="black" stroke-width="2" fill="none" />
<polyline points="508.0,301.0,515.5,300.5" stroke="black" stroke-width="2" fill="none" />
<polyline points="516.0,315.0,508.0,322.5" stroke="black" stroke-width="2" fill="none" />
<polyline points="516.0,323.5,508.5,331.0,501.0,338.5" stroke="black" stroke-width="2" fill="none" />
<polyline points="507.5,337.0,515.5,336.5" stroke="black" stroke-width="2" fill="none" />
<polyline points="517.0,332.0,509.0,339.5" stroke="black" stroke-width="2" fill="none" />
<polyline points="510.0,331.0,517.5,330.0" stroke="black" stroke-width="2" fill="none" />
<polyline points="515.0,316.0,507.0,316.0,498.5,316.5" stroke="black" stroke-width="2" fill="none" />
<polyline points="499.0,307.5,507.0,307.5,514.5,307.5" stroke="black" stroke-width="2" fill="none" />
<polyline points="515.0,332.0,507.5,332.5,500.0,332.5,492.0,333.0" stroke="black" stroke-width="2" fill="none" />
<polyline points="491.5,323.5,499.5,323.5,507.5,323.0,515.0,322.5" stroke="black" stroke-width="2" fill="none" />
<polyline points="484.5,306.0,477.0,306.0,468.5,306.5,460.5,306.5,453.0,307.5,445.0,308.5,437.0,309.0" stroke="black" stroke-width="2" fill="none" />
<polyline points="435.5,304.5,444.5,296.5,452.5,288.5,461.5,281.5" stroke="black" stroke-width="2" fill="none" />
<polyline points="458.0,282.5,461.0,290.5,462.0,298.5,462.0,297.5" stroke="black" stroke-width="2" fill="none" />
<polyline points="469.0,301.0,460.5,308.5,453.0,315.5" stroke="black" stroke-width="2" fill="none" />
<polyline points="450.0,316.5,458.5,316.0,466.5,315.5" stroke="black" stroke-width="2" fill="none" />
<polyline points="469.5,320.5,460.5,328.5,458.5,336.5" stroke="black" stroke-width="2" fill="none" />
<polyline points="459.5,332.0,467.5,321.0,475.0,318.0,483.0,318.0,491.0,328.0" stroke="black" stroke-width="2" fill="none" />
<polyline points="491.5,333.0,490.5,325.0,479.5,317.0" stroke="black" stroke-width="2" fill="none" />
<polyline points="469.0,292.5,461.0,300.0,452.5,307.5" stroke="black" stroke-width="2" fill="none" />
<polyline points="444.5,306.0,452.5,299.0,460.0,292.0,468.0,285.0" stroke="black" stroke-width="2" fill="none" />
<polyline points="459.5,288.5,452.0,289.0,444.0,289.5,436.0,289.5" stroke="black" stroke-width="2" fill="none" />
<polyline points="437.5,290.0,446.0,282.0,453.5,274.5" stroke="black" stroke-width="2" fill="none" />
<polyline points="452.5,282.0,445.0,289.5,436.5,297.5" stroke="black" stroke-width="2" fill="none" />
<polyline points="436.5,297.0,445.0,297.0,453.0,297.0,461.0,296.0,469.5,295.5" stroke="black" stroke-width="2" fill="none" />
<polyline points="459.5,305.0,451.0,305.5,442.5,305.5" stroke="black" stroke-width="2" fill="none" />
<polyline points="427.0,300.5,435.5,300.0,444.0,300.0,452.0,300.0,459.5,300.0,467.5,299.0,476.0,299.0" stroke="black" stroke-width="2" fill="none" />
<polyline points="475.5,290.0,467.5,290.5,459.5,291.0,451.5,292.0,443.5,292.5,435.5,292.5,427.5,292.5" stroke="black" stroke-width="2" fill="none" />
<polyline points="427.5,287.0,435.0,286.5,442.5,285.5,450.0,285.0,458.0,283.5,465.5,282.5" stroke="black" stroke-width="2" fill="none" />
<polyline points="465.5,276.0,458.0,276.5,450.0,277.0,442.0,277.5,434.5,278.0,426.0,278.5" stroke="black" stroke-width="2" fill="none" />
<polyline points="426.5,271.5,434.5,271.0,443.0,270.0" stroke="black" stroke-width="2" fill="none" />
<polyline points="445.0,275.5,437.0,283.0" stroke="black" stroke-width="2" fill="none" />
<polyline points="458.0,283.0,466.0,291.0" stroke="black" stroke-width="2" fill="none" />
<polyline points="386.5,301.0,378.0,301.0,370.5,302.0,362.5,302.5,354.5,303.0,346.0,303.5,337.5,303.5,329.5,304.0,322.0,304.5,314.0,305.5,307.0,306.0,300.0,307.0,292.0,308.0,283.5,309.5,275.5,310.0,267.5,310.5,259.5,311.0" stroke="black" stroke-width="2" fill="none" />
<polyline points="258.5,305.5,251.5,313.5,256.0,306.5" stroke="black" stroke-width="2" fill="none" />
<polyline points="268.5,300.0,276.0,299.5,284.0,299.0,291.5,298.0,299.5,297.5,307.5,297.5,315.5,297.5,323.5,298.0,332.0,298.0,340.5,298.0,348.5,297.5,356.5,297.0,364.0,296.5,371.5,296.5" stroke="black" stroke-width="2" fill="none" />
<polyline points="373.0,308.0,381.5,316.0" stroke="black" stroke-width="2" fill="none" />
<polyline points="317.0,241.5,309.5,242.0,301.5,242.5,293.0,243.0" stroke="black" stroke-width="2" fill="none" />
<polyline points="258.5,263.5,266.5,263.0,275.5,262.0,283.5,261.5,292.0,261.0,299.5,260.5,307.5,259.5,314.5,258.0,322.5,257.0,330.0,256.5,338.0,256.0,346.0,255.5,354.5,255.0,362.5,254.5,370.5,253.5" stroke="black" stroke-width="2" fill="none" />
<polyline points="361.5,287.5,353.5,288.0,345.5,289.0,337.5,289.5,330.0,290.0,322.0,290.5,314.0,291.0,306.0,291.0,298.5,291.0,291.5,291.0,284.5,290.5,276.5,290.5,268.5,291.0" stroke="black" stroke-width="2" fill="none" />
<polyline points="266.0,285.0,274.0,284.0,283.0,283.5,291.5,283.5,300.0,283.5,308.5,283.0,316.0,282.5,323.0,282.0,330.5,281.5,338.5,281.0,347.0,281.0,355.0,280.5,362.5,279.0" stroke="black" stroke-width="2" fill="none" />
<polyline points="372.5,269.0,364.0,270.0,356.5,271.0,348.5,271.5,340.5,272.5,332.0,272.5,323.0,273.5,314.5,274.0,306.0,274.5,298.0,275.5,290.0,276.0,282.0,276.5,273.5,277.0,265.0,278.0" stroke="black" stroke-width="2" fill="none" />
<polyline points="268.0,276.5,268.0,284.5,263.0,292.5,263.0,292.0" stroke="black" stroke-width="2" fill="none" />
<polyline points="253.5,272.0,246.0,266.0,237.5,264.0,229.5,264.0,222.0,268.0,214.0,282.0" stroke="black" stroke-width="2" fill="none" />
<polyline points="204.0,276.0,196.0,283.5" stroke="black" stroke-width="2" fill="none" />
<polyline points="187.5,274.5,196.0,267.0,204.0,259.5,211.5,252.0,219.5,245.0" stroke="black" stroke-width="2" fill="none" />
<polyline points="221.0,250.5,229.0,243.0" stroke="black" stroke-width="2" fill="none" />
<polyline points="213.5,240.5,205.5,248.0,197.5,256.0,189.5,264.0,181.0,271.5" stroke="black" stroke-width="2" fill="none" />
<polyline points="180.0,269.5,188.5,269.0,196.5,268.0,205.0,267.0,214.0,266.0" stroke="black" stroke-width="2" fill="none" />
<polyline points="205.0,268.0,196.5,275.5" stroke="black" stroke-width="2" fill="none" />
<polyline points="203.5,263.5,195.5,264.0,188.0,264.0" stroke="black" stroke-width="2" fill="none" />
<polyline points="180.5,266.0,188.0,258.0,196.0,250.0,204.0,242.0" stroke="black" stroke-width="2" fill="none" />
<polyline points="197.5,240.5,205.5,241.5,213.5,240.5" stroke="black" stroke-width="2" fill="none" />
<polyline points="211.0,238.5,219.0,238.0,228.0,237.5,236.0,237.0,244.0,236.0,251.5,235.0,260.0,234.5,268.0,234.0,276.5,233.0,284.5,232.0,293.0,231.5,301.0,231.5,308.5,231.0,316.5,231.0,323.5,231.0,331.0,230.5,339.5,230.5,347.5,230.0,355.5,229.5" stroke="black" stroke-width="2" fill="none" />
<polyline points="301.0,164.5,292.5,164.5,283.5,164.5,275.0,164.5,267.5,165.0" stroke="black" stroke-width="2" fill="none" />
<polyline points="266.5,159.0,274.5,158.0,283.0,157.0,291.0,156.0,298.5,155.0,307.0,154.5,314.5,153.5" stroke="black" stroke-width="2" fill="none" />
<polyline points="267.0,151.5,274.5,151.0,282.0,149.5,289.5,148.5,297.5,147.5,305.5,147.0,313.0,146.5,320.5,146.0,328.5,145.0,337.0,144.0,345.5,143.5,353.5,143.0,362.0,142.5,370.5,142.5,379.0,142.0" stroke="black" stroke-width="2" fill="none" />
<polyline points="315.0,44.0,306.5,44.0,298.5,44.5,290.5,44.5,282.0,44.5" stroke="black" stroke-width="2" fill="none" />
<polyline points="290.0,54.5,301.0,62.0,303.0,69.5,302.5,77.0,296.5,85.0" stroke="black" stroke-width="2" fill="none" />
<polyline points="261.0,140.5,253.0,140.5" stroke="black" stroke-width="2" fill="none" />
<polyline points="235.0,136.5,247.0,144.5,250.5,152.5,251.0,160.5,248.0,168.5" stroke="black" stroke-width="2" fill="none" />
<polyline points="258.0,191.0,266.0,190.5,274.5,189.5,282.5,189.0,291.0,189.0" stroke="black" stroke-width="2" fill="none" />
<polyline points="307.0,201.5,299.5,202.5,291.5,203.0,283.5,204.0,276.0,204.5,268.5,205.5,260.0,206.5,251.5,207.0" stroke="black" stroke-width="2" fill="none" />
<polyline points="238.0,213.0,245.5,212.5,252.5,212.0,259.5,211.5,267.0,211.5,274.5,211.5,282.0,210.5,290.5,210.0,298.5,210.0,306.5,210.0,315.0,209.5,322.5,209.0" stroke="black" stroke-width="2" fill="none" />
<polyline points="331.0,223.5,322.5,224.0,314.5,224.5,306.5,225.0,298.5,225.5,291.0,226.0,283.0,226.5,274.5,227.5,266.5,228.5,258.5,228.5,250.5,229.0,243.0,229.5,235.0,229.5,227.5,230.0,220.5,230.5,212.5,230.5" stroke="black" stroke-width="2" fill="none" />
<polyline points="214.0,226.5,205.0,228.5,198.5,237.0,199.5,232.0,210.5,234.0,216.5,234.5,222.5,234.0" stroke="black" stroke-width="2" fill="none" />
<polyline points="202.0,234.5,194.5,235.0,187.0,235.5,179.5,235.5,172.0,236.0" stroke="black" stroke-width="2" fill="none" />
<polyline points="171.5,227.5,179.5,227.5,187.0,227.5,195.0,227.5,204.0,227.0" stroke="black" stroke-width="2" fill="none" />
<polyline points="203.5,217.5,195.5,225.5,188.0,233.0,180.5,241.5,172.5,249.5" stroke="black" stroke-width="2" fill="none" />
<polyline points="163.5,245.0,172.0,244.5,180.5,244.5,188.5,244.0,196.5,244.0,204.5,244.0,212.5,243.0,220.0,242.0,228.5,241.0,237.0,240.5,245.5,240.0,253.0,240.0,260.5,240.0,268.0,240.0,276.0,239.5,284.0,238.5,291.0,238.0,298.5,237.0,306.0,236.0,313.5,235.5,321.5,235.0,329.5,235.0,338.0,235.0,347.0,235.0,355.5,234.5,364.0,234.0,372.5,233.5" stroke="black" stroke-width="2" fill="none" />
<polyline points="330.0,211.0,322.0,211.5,314.5,212.0,306.5,213.0,299.5,214.5,291.5,215.5,284.0,216.0,275.5,216.5,267.5,217.0,258.5,218.0,250.5,218.5,243.0,219.0,235.5,219.5,228.0,219.5,220.0,219.5,212.0,219.5,204.0,220.0,195.5,220.5,187.5,221.0,179.0,221.5,171.0,222.0" stroke="black" stroke-width="2" fill="none" />
<polyline points="166.0,214.0,173.5,214.0,181.0,213.5,189.0,212.5,196.5,211.5,204.0,210.5,212.5,210.0,221.0,209.5" stroke="black" stroke-width="2" fill="none" />
<polyline points="204.5,209.0,196.5,217.0,188.5,225.0" stroke="black" stroke-width="2" fill="none" />
<polyline points="189.5,217.5,197.5,210.0,205.0,203.0" stroke="black" stroke-width="2" fill="none" />
<polyline points="195.5,202.5,187.5,210.0" stroke="black" stroke-width="2" fill="none" />
<polyline points="178.0,211.0,186.0,203.5,194.0,196.0" stroke="black" stroke-width="2" fill="none" />
<polyline points="204.5,186.0,196.5,187.0,189.0,188.0,181.5,188.5,173.5,189.0,165.5,189.5,157.5,189.5,148.5,190.0,140.5,190.5,132.0,190.0,123.5,190.0,115.5,190.0,107.0,190.5,99.0,190.5,91.5,191.0,84.0,191.5,75.5,192.0,67.5,192.5,59.0,193.5,50.5,195.0,42.0,196.0,34.0,197.0,25.5,197.5,17.5,198.5,10.0,199.0,2.0,199.0" stroke="black" stroke-width="2" fill="none" />
<polyline points="3.0,200.0,11.5,192.5,19.0,185.0,27.5,177.5,35.5,170.0,43.5,163.0,51.5,155.0,60.0,147.5,68.0,140.0" stroke="black" stroke-width="2" fill="none" />
<polyline points="68.5,147.5,60.5,155.0,52.0,162.0,43.5,169.5,35.0,177.0,27.0,184.5,18.5,192.0,10.0,200.0,2.0,207.5" stroke="black" stroke-width="2" fill="none" />
<polyline points="3.5,208.5,11.0,208.0,19.0,207.5,27.0,207.5,35.5,207.0,43.5,207.0,51.0,206.0,58.5,205.5,66.5,204.5,74.5,204.0,82.5,203.0" stroke="black" stroke-width="2" fill="none" />
<polyline points="99.5,208.5,108.0,201.0,116.0,194.0,123.5,186.5,131.0,179.5,138.5,171.5" stroke="black" stroke-width="2" fill="none" />
<polyline points="140.0,167.0,132.5,168.0,124.5,168.5,116.5,169.0,108.5,169.5,101.0,170.0" stroke="black" stroke-width="2" fill="none" />
<polyline points="93.0,164.5,100.5,164.0,108.5,164.0,116.5,164.0,124.0,163.5,132.0,162.5,139.5,162.5" stroke="black" stroke-width="2" fill="none" />
<polyline points="140.0,162.0,131.5,169.5,123.5,177.0,115.5,185.0,107.0,192.5,98.5,201.0,90.5,208.5" stroke="black" stroke-width="2" fill="none" />
<polyline points="98.5,215.0,107.0,207.0,115.0,200.0,123.5,192.5,132.0,185.5,140.5,178.5,148.5,171.0" stroke="black" stroke-width="2" fill="none" />
<polyline points="148.0,179.0,140.5,186.0,132.5,193.5,124.5,201.0,116.0,209.0,108.0,217.0" stroke="black" stroke-width="2" fill="none" />
<polyline points="115.0,216.0,123.0,208.5,131.5,200.5,139.5,193.5,147.0,186.5,155.0,179.0" stroke="black" stroke-width="2" fill="none" />
<polyline points="162.5,178.0,155.0,185.5,147.0,193.5,139.0,201.0,131.0,208.5" stroke="black" stroke-width="2" fill="none" />
<polyline points="130.5,205.5,123.0,206.5,115.0,207.0,107.0,208.0,99.0,209.0,90.5,209.5,82.5,210.5,74.5,211.0,66.5,211.0,59.0,211.0,51.0,212.0,43.0,212.0,35.0,212.0,27.0,212.0,19.5,211.5,11.5,211.5,4.0,212.0" stroke="black" stroke-width="2" fill="none" />
<polyline points="4.0,216.0,12.5,216.0,20.5,216.0,28.5,216.0,37.0,216.0,45.5,215.5,53.0,215.0,60.5,215.0,68.5,214.5,77.0,214.0" stroke="black" stroke-width="2" fill="none" />
<polyline points="76.0,215.0,83.5,208.0,90.5,200.0,98.5,193.0,106.5,185.5,114.5,178.5,123.0,171.0,131.0,163.5,138.5,155.5" stroke="black" stroke-width="2" fill="none" />
<polyline points="141.5,153.0,133.5,154.5,126.0,155.0,118.0,156.0" stroke="black" stroke-width="2" fill="none" />
<polyline points="116.5,147.5,124.5,147.0,132.5,146.0,140.5,145.0" stroke="black" stroke-width="2" fill="none" />
<polyline points="137.5,147.5,130.0,154.5,122.0,162.0,113.5,169.5,106.0,176.5,98.0,183.5,90.0,191.0,82.5,198.0,75.5,205.0,68.0,213.0,60.0,220.5,52.0,227.5,44.0,235.0,36.0,243.0,28.5,251.0,20.0,258.5,11.5,266.0" stroke="black" stroke-width="2" fill="none" />
<polyline points="4.5,268.0,12.5,267.5,20.5,267.5,28.5,267.0,35.5,266.5,43.5,266.5,51.5,266.0,60.0,265.5,68.5,265.5,76.5,265.0,85.0,264.5,93.0,264.0,100.5,263.5,108.0,263.0,116.0,262.5,123.5,261.5,132.0,261.5,139.5,261.0,147.5,261.0,155.5,261.0,163.5,261.0" stroke="black" stroke-width="2" fill="none" />
<polyline points="172.0,265.0,180.5,257.0,189.0,249.0,197.0,241.5" stroke="black" stroke-width="2" fill="none" />
<polyline points="197.0,235.5,189.0,243.0,180.5,250.5,172.5,257.5,164.0,264.5,155.5,272.5,147.5,280.0" stroke="black" stroke-width="2" fill="none" />
<polyline points="152.5,284.0,160.5,275.0,168.5,273.0,176.5,274.0,184.5,278.0" stroke="black" stroke-width="2" fill="none" />
<polyline points="176.5,274.0,187.0,282.0,190.0,289.5,189.5,297.5,183.5,305.5" stroke="black" stroke-width="2" fill="none" />
<polyline points="180.0,306.5,172.0,313.5" stroke="black" stroke-width="2" fill="none" />
<polyline points="171.5,309.5,163.0,316.5,155.0,323.5,147.0,330.5,139.0,338.0" stroke="black" stroke-width="2" fill="none" />
<polyline points="132.5,336.0,140.0,328.5,147.5,321.0,155.0,314.0,163.0,306.5" stroke="black" stroke-width="2" fill="none" />
<polyline points="164.0,298.0,156.0,305.5,148.0,313.0,140.0,321.0,132.0,329.0" stroke="black" stroke-width="2" fill="none" />
<polyline points="130.5,332.0,138.5,331.5,146.5,330.5" stroke="black" stroke-width="2" fill="none" />
<polyline points="146.5,314.5,138.5,314.5,130.5,315.0" stroke="black" stroke-width="2" fill="none" />
<polyline points="123.5,322.0,131.0,321.5,139.0,321.0,147.0,320.0" stroke="black" stroke-width="2" fill="none" />
<polyline points="147.0,300.5,139.0,307.5,130.5,315.5,122.5,323.0" stroke="black" stroke-width="2" fill="none" />
<polyline points="124.0,329.0,131.0,321.5,138.5,314.0,145.5,306.0,153.5,299.0" stroke="black" stroke-width="2" fill="none" />
<polyline points="153.5,296.0,161.5,306.0,169.0,310.0,177.0,310.0,185.0,304.5" stroke="black" stroke-width="2" fill="none" />
<polyline points="188.5,312.0,180.5,312.5" stroke="black" stroke-width="2" fill="none" />
<polyline points="178.0,320.0,186.5,319.0,195.0,318.5,202.5,318.0" stroke="black" stroke-width="2" fill="none" />
<polyline points="213.0,315.5,205.0,323.0,197.0,330.5,189.0,338.5" stroke="black" stroke-width="2" fill="none" />
<polyline points="196.5,339.5,204.0,332.5,212.0,325.5,219.5,317.5" stroke="black" stroke-width="2" fill="none" />
<polyline points="227.0,314.5,219.0,322.5,210.5,330.5,203.0,338.0" stroke="black" stroke-width="2" fill="none" />
<polyline points="227.5,338.5,235.5,331.5,243.5,324.0" stroke="black" stroke-width="2" fill="none" />
<polyline points="234.5,324.0,226.5,331.5,218.5,339.5" stroke="black" stroke-width="2" fill="none" />
<polyline points="210.0,338.0,218.5,331.0,226.5,323.5" stroke="black" stroke-width="2" fill="none" />
<polyline points="213.0,307.5,205.0,315.0,196.5,322.0,188.5,329.5,181.5,337.5" stroke="black" stroke-width="2" fill="none" />
<polyline points="178.0,337.5,186.0,337.5,195.0,337.0,203.0,336.5" stroke="black" stroke-width="2" fill="none" />
<polyline points="211.5,326.5,203.0,327.0,195.0,327.5,187.0,328.5,179.5,329.5" stroke="black" stroke-width="2" fill="none" />
<polyline points="173.0,336.5,181.0,329.0,189.0,322.0,197.0,315.0,205.5,307.5" stroke="black" stroke-width="2" fill="none" />
<polyline points="203.5,300.0,195.5,307.5,187.5,315.5,179.5,323.5,171.0,331.0" stroke="black" stroke-width="2" fill="none" />
<polyline points="171.0,321.0,179.5,313.0,187.5,305.5,196.0,298.0" stroke="black" stroke-width="2" fill="none" />
<polyline points="209.5,290.5,201.5,291.0,194.0,291.5,185.5,291.5,177.5,292.0,170.0,292.0,162.0,292.5,154.0,292.5,146.5,293.0,139.5,293.5,132.0,294.0,124.5,295.0,116.5,295.5,108.5,296.0,100.5,296.5,93.0,297.0,84.5,297.5,76.5,298.5,68.0,299.0,59.5,300.0,52.0,300.5,44.0,301.0,36.0,301.0,28.0,301.5,20.0,302.5,12.5,303.0" stroke="black" stroke-width="2" fill="none" />
<polyline points="10.0,297.0,18.0,289.5,26.0,282.0,34.5,274.0,43.5,266.5,51.5,258.5,60.0,250.0,67.5,242.5" stroke="black" stroke-width="2" fill="none" />
<polyline points="69.0,235.5,60.5,243.0,52.5,250.5,44.5,258.0,36.0,265.0,27.5,272.5,19.5,280.5,11.5,288.5" stroke="black" stroke-width="2" fill="none" />
<polyline points="11.0,280.0,19.5,272.0,27.5,263.5,36.0,256.0,44.5,249.0,53.0,241.0,61.5,233.5,70.0,225.5" stroke="black" stroke-width="2" fill="none" />
<polyline points="77.5,249.0,69.0,256.5,60.5,264.0" stroke="black" stroke-width="2" fill="none" />
<polyline points="69.5,266.0,77.5,258.5" stroke="black" stroke-width="2" fill="none" />
<polyline points="84.0,260.0,76.0,267.5,68.0,275.5" stroke="black" stroke-width="2" fill="none" />
<polyline points="57.5,277.5,50.0,285.0,41.5,292.0,33.5,299.0,25.5,306.5" stroke="black" stroke-width="2" fill="none" />
<polyline points="20.0,304.0,28.5,297.5,36.0,290.5,43.5,283.0,51.5,275.0" stroke="black" stroke-width="2" fill="none" />
<polyline points="59.0,284.5,51.0,291.5,42.5,298.5,35.0,305.5" stroke="black" stroke-width="2" fill="none" />
<polyline points="42.5,313.0,50.5,305.0,59.0,297.5,67.0,290.0,75.0,281.5,83.0,274.0" stroke="black" stroke-width="2" fill="none" />
<polyline points="90.0,277.0,82.0,284.0,73.5,291.5,65.0,299.0,57.5,306.5,49.0,313.5" stroke="black" stroke-width="2" fill="none" />
<polyline points="57.5,313.5,66.0,306.5,74.0,299.0,81.5,291.5,89.0,284.0" stroke="black" stroke-width="2" fill="none" />
<polyline points="92.0,288.5,84.5,289.5" stroke="black" stroke-width="2" fill="none" />
<polyline points="98.5,291.0,90.5,298.5,82.5,305.5,74.0,313.0" stroke="black" stroke-width="2" fill="none" />
<polyline points="82.5,315.0,90.5,307.5,99.5,300.0,107.5,292.5" stroke="black" stroke-width="2" fill="none" />
<polyline points="106.5,300.5,98.5,307.5,90.5,314.5" stroke="black" stroke-width="2" fill="none" />
<polyline points="92.0,312.0,84.5,312.5" stroke="black" stroke-width="2" fill="none" />
<polyline points="85.0,325.5,93.0,325.0,100.5,324.5,108.0,324.0,116.0,323.5,123.5,322.5,132.0,322.5,139.5,322.0,147.5,322.0,155.5,322.0,163.5,322.0,171.5,321.0,179.5,320.0,188.0,319.5,196.5,319.0,204.5,318.5,213.0,318.0,221.0,317.5,228.5,317.0,236.5,317.0,244.5,317.0,252.5,316.5,260.0,316.0,267.5,315.5,276.0,314.5,284.0,314.0,292.0,313.0,299.0,312.5,307.0,311.5,315.0,310.5,322.5,309.5,330.5,309.5,338.5,309.5,346.0,309.5,354.0,309.5,362.0,309.0,370.0,308.5,378.5,308.0,386.5,307.5,394.5,307.5,403.0,307.0,411.0,306.0,419.5,305.0" stroke="black" stroke-width="2" fill="none" />
<polyline points="370.0,240.0,362.5,240.5,355.0,241.0,347.5,241.5,339.0,242.0,331.0,242.0,323.0,242.0,314.5,242.5,306.5,243.0,299.0,243.5,291.0,244.5,283.5,245.0,276.5,245.0,268.5,246.0,261.0,246.5,253.0,247.0,245.0,247.5,237.0,248.0,229.5,248.5,221.0,249.0,212.5,249.5,204.0,250.5,196.0,251.0,187.5,251.5,179.5,252.0,172.0,252.5,164.5,252.5,156.5,253.0,148.5,253.5" stroke="black" stroke-width="2" fill="none" />
<polyline points="153.0,265.0,145.0,273.0" stroke="black" stroke-width="2" fill="none" />
<polyline points="163.0,273.0,153.0,281.0,150.0,289.5,151.0,297.0,156.0,305.0" stroke="black" stroke-width="2" fill="none" />
<polyline points="150.0,292.5,141.5,299.5,132.5,306.5,124.0,313.5,115.5,320.5" stroke="black" stroke-width="2" fill="none" />
<polyline points="109.0,321.5,116.5,315.0,124.0,308.5,131.5,301.5,139.5,294.0" stroke="black" stroke-width="2" fill="none" />
<polyline points="131.0,291.0,123.0,298.5,115.0,306.5" stroke="black" stroke-width="2" fill="none" />
<polyline points="114.5,300.0,122.5,292.5" stroke="black" stroke-width="2" fill="none" />
<polyline points="106.5,308.5,98.5,316.0" stroke="black" stroke-width="2" fill="none" />
<polyline points="107.0,318.0,98.5,325.5" stroke="black" stroke-width="2" fill="none" />
<polyline points="117.5,335.5,125.5,335.0,133.5,334.5,141.0,334.0,148.5,333.0,156.5,332.0,164.0,332.0,171.0,331.5,178.5,330.5,186.0,329.5,194.0,328.5,202.0,328.5,211.0,328.0,219.0,327.5,227.0,326.5,235.0,325.0,244.0,324.5,252.5,324.0,261.0,323.0,268.5,322.0,276.5,321.0,284.5,320.5,292.5,320.5,299.5,321.0,306.5,321.0,314.0,321.0,322.0,321.0,330.0,320.5,338.0,320.0,345.5,319.5,353.5,319.0,361.5,318.0,369.5,317.5,378.0,317.5,386.5,317.0,395.0,317.0,403.0,316.0,411.0,315.0,419.0,314.5" stroke="black" stroke-width="2" fill="none" />
<polyline points="405.0,294.0,396.5,294.5,387.5,294.5,379.0,295.0,371.0,295.0,362.5,295.5,354.0,295.5,345.5,296.0,337.5,296.5,329.0,297.0,320.5,298.0,312.5,299.0,305.0,299.5,297.5,300.0,289.5,300.5,281.5,301.5,274.0,302.5,266.5,304.0,259.0,304.5,250.5,304.5,242.0,304.5,234.5,304.5,227.0,305.0,219.5,305.0,211.5,305.5,203.0,305.5,195.5,305.5,187.5,306.5,179.5,307.0,172.0,307.0,164.0,306.5,156.0,306.5,147.5,307.5,139.5,308.0,131.0,309.0,123.0,310.0,115.0,311.0,106.5,312.0,98.0,313.0,90.5,313.5,82.5,313.0,74.5,313.5,67.0,314.0,58.5,315.0,51.0,316.0,43.0,317.5,35.0,318.5,27.0,319.0,19.0,319.5" stroke="black" stroke-width="2" fill="none" />
<polyline points="23.0,326.5,19.0,328.5,27.0,327.0,35.0,329.5,43.5,336.5" stroke="black" stroke-width="2" fill="none" />
<polyline points="46.0,333.5,53.5,333.5,61.5,333.5" stroke="black" stroke-width="2" fill="none" />
<polyline points="67.5,312.5,75.0,304.5,83.0,297.0,90.5,289.0,98.0,281.0" stroke="black" stroke-width="2" fill="none" />
<polyline points="83.5,265.5,75.5,273.0,67.5,281.0,59.5,289.5,52.0,297.5,44.0,305.0,35.5,312.5" stroke="black" stroke-width="2" fill="none" />
<polyline points="34.5,327.5,42.5,326.5,51.0,326.0,59.0,325.0" stroke="black" stroke-width="2" fill="none" />
<polyline points="52.0,305.0,60.0,305.0,68.0,305.0,75.5,305.0,83.5,305.0" stroke="black" stroke-width="2" fill="none" />
<polyline points="75.5,297.0,67.5,297.5" stroke="black" stroke-width="2" fill="none" />
<polyline points="35.5,288.0,28.0,288.5" stroke="black" stroke-width="2" fill="none" />
<polyline points="19.0,296.0,27.0,288.0,35.5,281.0,43.5,273.5,52.0,266.5,60.0,260.0,68.0,252.5" stroke="black" stroke-width="2" fill="none" />
<polyline points="35.5,272.0,27.5,272.5" stroke="black" stroke-width="2" fill="none" />
<polyline points="26.0,266.0,34.0,265.0" stroke="black" stroke-width="2" fill="none" />
<polyline points="26.0,257.5,34.5,257.0,42.5,256.5" stroke="black" stroke-width="2" fill="none" />
<polyline points="53.0,248.5,45.0,249.0,37.0,250.0,29.5,250.5,21.5,251.0" stroke="black" stroke-width="2" fill="none" />
<polyline points="20.0,251.0,28.0,243.5,35.5,235.5,44.0,228.0,52.5,220.0,60.5,212.0,68.5,204.0,76.5,196.0,84.5,188.5,92.5,181.5,100.5,174.0,108.0,167.0,116.0,159.5,123.5,152.5,131.0,145.0,139.0,138.0,147.0,131.0,154.5,123.0" stroke="black" stroke-width="2" fill="none" />
<polyline points="154.0,130.0,146.0,138.0" stroke="black" stroke-width="2" fill="none" />
<polyline points="147.5,140.0,139.5,140.0,131.5,140.5,123.5,141.0,115.0,141.5" stroke="black" stroke-width="2" fill="none" />
<polyline points="116.5,139.5,124.0,132.0,132.0,124.5" stroke="black" stroke-width="2" fill="none" />
<polyline points="138.0,123.5,130.0,131.0,122.5,139.0,115.5,146.5,108.0,154.0" stroke="black" stroke-width="2" fill="none" />
<polyline points="107.5,157.5,115.5,156.5,124.0,155.5,132.0,155.0,139.5,154.0" stroke="black" stroke-width="2" fill="none" />
<polyline points="137.0,150.0,145.0,140.0,153.0,137.0,161.5,136.0,169.5,139.5" stroke="black" stroke-width="2" fill="none" />
<polyline points="174.0,144.5,162.0,136.0" stroke="black" stroke-width="2" fill="none" />
<polyline points="171.0,131.0,179.0,123.5" stroke="black" stroke-width="2" fill="none" />
<polyline points="180.0,128.5,188.0,121.5" stroke="black" stroke-width="2" fill="none" />
<polyline points="187.0,130.0,179.0,130.0,172.0,130.0,164.5,129.5,156.5,130.0,148.5,130.5,140.5,130.5,132.0,131.0,123.5,131.5,115.0,132.5" stroke="black" stroke-width="2" fill="none" />
<polyline points="115.0,130.5,123.0,123.5" stroke="black" stroke-width="2" fill="none" />
<polyline points="114.5,121.5,107.0,129.5" stroke="black" stroke-width="2" fill="none" />
<polyline points="108.0,130.0,116.0,129.5" stroke="black" stroke-width="2" fill="none" />
<polyline points="114.5,135.5,122.5,135.5,130.5,135.0,139.0,135.0,147.0,135.0" stroke="black" stroke-width="2" fill="none" />
<polyline points="149.5,136.5,140.0,144.5,136.5,152.5,135.5,160.5,138.0,168.5,146.0,177.0" stroke="black" stroke-width="2" fill="none" />
<polyline points="147.5,167.5,140.0,168.0,132.5,168.5,124.5,169.5,116.5,170.0,108.5,170.0,100.0,170.0,91.5,170.5,83.5,171.0,75.5,171.5,67.5,172.5,59.5,173.5,51.0,174.0,43.0,174.5,35.5,175.0,28.5,175.0,21.0,175.0,12.5,175.0,5.0,176.0" stroke="black" stroke-width="2" fill="none" />
<polyline points="2.5,174.0,11.0,166.5,20.0,159.5,28.5,152.5,36.5,145.0,44.5,137.5,52.5,130.5,60.5,123.5,68.5,116.5" stroke="black" stroke-width="2" fill="none" />
<polyline points="60.0,116.5,52.0,124.5,43.5,132.0,35.5,139.5,27.5,147.0,19.0,154.0,10.5,161.5,2.5,169.0" stroke="black" stroke-width="2" fill="none" />
<polyline points="5.0,168.5,13.0,168.0,20.5,168.0,28.5,167.5,36.0,167.0,44.0,166.5,52.0,166.0,60.5,166.5,68.5,166.0,76.0,166.0,84.0,165.0" stroke="black" stroke-width="2" fill="none" />
<polyline points="83.5,164.0,75.5,171.5,67.5,179.0,59.5,186.0,51.5,193.0,43.0,200.0,35.0,207.0,27.0,214.5,19.0,221.5,10.5,228.5,2.5,236.0" stroke="black" stroke-width="2" fill="none" />
<polyline points="3.0,237.5,11.5,237.0,19.5,237.0,27.5,236.5,35.5,236.5,43.5,235.5,52.0,235.5,60.5,235.0,68.5,234.0,76.0,233.0,84.0,232.0" stroke="black" stroke-width="2" fill="none" />
<polyline points="101.0,210.0,109.0,209.5,117.0,209.0,124.5,208.5" stroke="black" stroke-width="2" fill="none" />
<polyline points="123.0,215.0,115.5,215.5,108.5,216.0,101.5,216.5,93.5,216.5,86.0,216.5,78.0,217.0,70.0,217.5,62.0,218.0,53.5,218.5,45.0,219.0,37.5,219.0,30.0,220.0,22.0,220.5,13.5,221.0,5.5,221.5" stroke="black" stroke-width="2" fill="none" />
<polyline points="3.0,223.5,11.0,215.5,19.0,207.0,27.5,199.5,36.0,191.5,44.5,184.0,52.5,176.5,60.0,169.0,68.0,161.5" stroke="black" stroke-width="2" fill="none" />
<polyline points="68.0,153.5,60.0,161.5,52.5,169.5,44.5,177.5,35.5,186.0,27.0,194.0,18.5,202.0,11.0,209.5,2.5,217.0" stroke="black" stroke-width="2" fill="none" />
<polyline points="4.0,225.5,12.0,225.0,20.0,224.5,28.0,224.0,36.5,224.0,44.5,223.5,53.0,223.0,61.0,223.0,69.0,223.0" stroke="black" stroke-width="2" fill="none" />
<polyline points="83.5,171.0,75.0,178.5,67.0,186.0,59.0,193.5,51.5,201.5,43.5,209.5,35.0,216.5,26.5,224.0,18.0,231.5,10.0,239.0" stroke="black" stroke-width="2" fill="none" />
<polyline points="11.5,242.0,19.5,241.5,27.5,240.5,35.5,240.0,44.0,239.0,52.5,238.0,60.5,238.0" stroke="black" stroke-width="2" fill="none" />
<polyline points="60.5,230.5,52.0,231.5,44.0,232.0,36.0,232.0,27.5,232.5,19.5,233.0,11.5,233.5" stroke="black" stroke-width="2" fill="none" />
<polyline points="3.5,230.0,11.5,222.5,19.5,215.0,27.5,208.0,35.5,201.0,43.5,193.5,51.5,185.0,60.0,177.5,68.0,169.5,76.5,162.0" stroke="black" stroke-width="2" fill="none" />
<polyline points="90.0,170.5,82.0,178.5,74.5,186.5,67.0,194.0,59.0,201.5,51.0,209.0,43.0,217.0,35.5,224.5,27.0,232.0,19.0,239.5,11.0,247.0" stroke="black" stroke-width="2" fill="none" />
<polyline points="11.0,251.0,19.5,243.0,27.5,235.0,35.0,227.5,43.0,220.0,51.5,212.0,59.5,204.5,68.0,197.0,76.0,189.5,83.5,182.5,91.5,175.5,99.5,168.0,107.5,160.5,115.0,152.5,123.0,144.5,130.5,136.5,138.5,129.0,146.5,121.0" stroke="black" stroke-width="2" fill="none" />
<polyline points="116.0,114.5,108.0,121.5" stroke="black" stroke-width="2" fill="none" />
<polyline points="107.0,126.5,115.5,126.0,123.5,125.0,132.0,124.5,140.0,124.5,148.0,124.0,156.5,123.0,164.0,122.0,171.5,120.5,179.5,119.5,187.5,118.5,195.5,118.5,203.0,118.5,211.0,118.5,220.0,118.0,228.0,117.5,236.0,117.5" stroke="black" stroke-width="2" fill="none" />
<polyline points="259.5,104.0,251.0,104.5,243.0,105.5,235.0,106.5,227.0,107.5,219.0,108.5,211.0,108.5,202.5,109.0,194.0,109.0,185.5,109.5,178.0,110.0" stroke="black" stroke-width="2" fill="none" />
<polyline points="191.0,131.0,180.0,139.0,178.5,147.0,185.5,134.0,193.5,131.0,201.0,131.0,209.0,134.5,216.5,141.5,224.5,137.5,232.0,136.5,240.0,139.5,248.5,149.5" stroke="black" stroke-width="2" fill="none" />
<polyline points="251.5,109.5,243.5,110.0,235.5,110.5,227.5,110.5,219.5,110.5,211.5,111.0,203.5,111.0,196.0,111.0,187.5,111.5,179.5,112.0,171.5,112.0,164.0,112.5,156.0,113.0,148.0,113.5,140.5,114.5,133.0,114.5,125.5,114.5,117.0,114.5,108.5,114.5,100.0,115.0" stroke="black" stroke-width="2" fill="none" />
<polyline points="106.5,116.0,98.5,123.5" stroke="black" stroke-width="2" fill="none" />
<polyline points="100.0,122.0,108.0,121.5,116.0,120.5" stroke="black" stroke-width="2" fill="none" />
<polyline points="107.0,109.0,98.5,116.0" stroke="black" stroke-width="2" fill="none" />
<polyline points="92.5,114.0,100.5,106.5" stroke="black" stroke-width="2" fill="none" />
<polyline points="101.0,100.0,93.0,107.5,85.0,115.5" stroke="black" stroke-width="2" fill="none" />
<polyline points="82.0,117.5,69.0,125.5,65.0,134.0,63.0,142.0,63.5,149.5,66.0,157.0,73.5,165.0" stroke="black" stroke-width="2" fill="none" />
<polyline points="68.5,152.5,61.0,153.0,53.0,154.0,45.0,154.0" stroke="black" stroke-width="2" fill="none" />
<polyline points="51.5,146.5,60.0,146.0,68.0,145.5" stroke="black" stroke-width="2" fill="none" />
<polyline points="69.0,146.5,61.0,146.5,52.5,146.5,44.0,146.5,36.0,147.0,27.5,148.0,19.5,148.5,11.5,149.0,3.5,150.0" stroke="black" stroke-width="2" fill="none" />
<polyline points="4.0,154.0,11.5,146.5,19.5,138.5" stroke="black" stroke-width="2" fill="none" />
<polyline points="26.5,140.0,18.5,148.0,10.5,155.0,3.0,162.0" stroke="black" stroke-width="2" fill="none" />
<polyline points="2.0,162.5,10.5,161.5,19.0,160.0,27.5,159.5,35.5,159.0,43.5,158.5,51.5,158.5,59.5,158.5,67.5,158.5" stroke="black" stroke-width="2" fill="none" />
<polyline points="69.5,155.0,61.0,155.5,52.5,156.0,44.0,156.0,36.0,156.5,28.0,157.0,20.0,157.5,12.0,158.5,4.0,159.0" stroke="black" stroke-width="2" fill="none" />
<polyline points="3.0,164.0,11.0,163.5,19.0,163.0,27.0,163.0,35.0,163.5,43.0,163.5,51.0,163.5,58.5,163.5,67.0,163.0,75.0,163.0,83.0,162.5" stroke="black" stroke-width="2" fill="none" />
<polyline points="104.5,160.0,96.5,166.0,88.5,167.5,80.0,166.5,72.0,162.5,64.0,149.5" stroke="black" stroke-width="2" fill="none" />
<polyline points="60.5,139.0,53.5,139.5" stroke="black" stroke-width="2" fill="none" />
<polyline points="68.5,132.0,60.0,139.5,51.5,147.0,43.5,154.5,35.5,161.5,27.5,168.5,19.0,176.0,11.0,183.5,2.5,190.5" stroke="black" stroke-width="2" fill="none" />
<polyline points="3.5,193.0,11.5,193.0,19.5,192.0,27.5,191.5,35.0,190.5,43.0,190.0,51.0,189.5,59.0,189.0,67.5,188.5,75.5,188.0,83.5,187.5,91.5,187.0,100.0,187.0,108.0,187.0,115.5,186.5,123.5,186.0,132.5,186.5,141.0,186.5,149.5,186.5,157.5,186.5,166.0,186.0,174.0,185.0" stroke="black" stroke-width="2" fill="none" />
<polyline points="170.0,186.0,162.5,194.0,154.0,202.0" stroke="black" stroke-width="2" fill="none" />
<polyline points="163.0,202.0,170.5,194.5" stroke="black" stroke-width="2" fill="none" />
<polyline points="176.0,196.5,186.5,204.5,191.0,212.0,192.0,219.5,190.0,228.0,185.0,236.0,170.0,244.0,178.0,241.5,186.0,234.5,198.5,228.0,207.5,225.5" stroke="black" stroke-width="2" fill="none" />
<polyline points="203.0,249.0,195.5,249.0,187.5,249.5" stroke="black" stroke-width="2" fill="none" />
<polyline points="187.5,242.5,195.0,241.5" stroke="black" stroke-width="2" fill="none" />
<polyline points="203.5,256.0,195.5,257.0,187.0,258.0,178.5,258.5" stroke="black" stroke-width="2" fill="none" />
<polyline points="161.0,251.5,153.0,258.0,144.5,259.0,136.5,259.0,128.5,254.5,120.0,244.5" stroke="black" stroke-width="2" fill="none" />
<polyline points="122.5,243.0,127.0,251.0" stroke="black" stroke-width="2" fill="none" />
<polyline points="99.5,247.0,92.0,247.5,84.5,248.5,76.5,249.0,68.0,248.5,60.0,248.5,51.5,248.5,43.5,249.0,35.0,249.5,27.0,250.5,19.0,251.0,10.5,251.5,2.5,252.5" stroke="black" stroke-width="2" fill="none" />
<polyline points="4.5,260.5,12.0,260.0,20.0,259.5,28.0,259.0,36.0,258.5,44.0,257.5,52.0,257.5,60.0,257.5,68.0,257.0,76.0,256.0,84.5,255.5,92.0,255.0,100.5,254.5,108.5,254.0,116.5,253.5,124.5,253.0,132.5,253.0,140.5,252.5,148.5,252.5,156.5,252.0,164.5,251.5,172.5,251.0,180.5,250.5,188.0,250.5,195.5,250.0,203.5,249.5,212.0,249.0,220.0,248.5" stroke="black" stroke-width="2" fill="none" />
<polyline points="217.0,254.0,228.0,262.5,220.0,270.5,215.0,278.5,210.5,287.0,213.5,295.0,217.5,303.0,225.0,311.0" stroke="black" stroke-width="2" fill="none" />
<polyline points="218.0,296.5,210.0,296.5,202.5,297.0,195.0,297.5,187.5,297.5,180.0,298.0,172.0,299.0,164.0,299.5,155.5,300.0,147.5,301.0,139.0,302.5,131.5,302.5,124.0,303.0,116.0,304.0,108.0,304.5,100.0,305.0,92.0,305.5,83.5,306.0,75.5,307.0,67.5,308.0,60.5,309.0,52.5,309.0,44.5,309.5,36.5,310.0,28.5,310.0,20.0,310.5" stroke="black" stroke-width="2" fill="none" />
<polyline points="20.5,298.5,28.5,298.0,37.0,297.5,45.0,297.0,53.0,296.0,61.0,295.5" stroke="black" stroke-width="2" fill="none" />
<polyline points="32.5,329.5,42.5,337.5" stroke="black" stroke-width="2" fill="none" />
<polyline points="11.5,333.5,3.5,334.0" stroke="black" stroke-width="2" fill="none" />
<polyline points="2.0,294.0,10.0,293.5,18.5,292.5,27.0,292.0,35.0,291.5,43.0,291.5,51.0,290.5,59.0,290.5,66.5,290.0,75.0,289.5,82.5,288.5,91.0,288.5,99.5,288.5,108.0,288.0,116.5,287.0,125.0,287.0,133.5,286.5,141.5,286.0,149.5,285.5,157.5,285.0,166.0,284.0,173.5,284.0,181.0,283.5,189.0,282.5,196.5,281.5,204.0,280.5,212.5,280.0" stroke="black" stroke-width="2" fill="none" />
<polyline points="213.0,273.0,205.0,274.0,197.0,274.0,189.0,274.0,181.0,274.5,173.0,274.5,165.5,275.0,157.0,276.0,149.0,277.0,141.0,278.0,133.5,278.5,125.5,279.5,117.0,280.0,109.0,280.0,101.0,280.5,92.5,280.5,84.0,280.5,76.5,281.0,69.0,281.5,61.0,282.0,52.5,282.0,44.0,282.5,36.0,283.0,28.0,283.0,19.5,283.5,11.5,284.0,3.0,284.5" stroke="black" stroke-width="2" fill="none" />
<polyline points="4.5,279.0,12.0,278.0,19.5,277.5,27.5,276.5,35.5,275.5,44.5,275.5,52.5,274.5,61.0,274.0,69.5,273.5,77.5,273.0,86.0,272.5,93.5,272.0,101.0,271.5,109.0,271.5,116.5,271.5,124.0,271.0,131.5,270.5,139.5,270.0,148.0,269.0,156.0,268.5,163.5,268.0,172.0,267.5,179.5,267.0,187.5,266.5,195.5,266.5,203.5,266.5,212.0,265.5" stroke="black" stroke-width="2" fill="none" />
<polyline points="210.0,253.0,206.0,261.0,205.0,262.5,212.5,253.5,220.0,255.5" stroke="black" stroke-width="2" fill="none" />
<polyline points="243.0,265.0,254.0,273.0,260.0,280.5" stroke="black" stroke-width="2" fill="none" />
<polyline points="230.5,312.0,222.0,307.0,214.0,296.0" stroke="black" stroke-width="2" fill="none" />
<polyline points="211.0,192.0,203.0,192.5,194.5,193.0,187.0,193.0,179.0,194.0,170.5,195.0,162.5,195.5,155.0,196.0,146.5,196.5,138.0,196.5,129.0,196.0,121.0,196.0,113.5,196.5,105.5,197.0,97.5,198.0,90.0,199.0,82.0,199.5,74.0,200.0,66.5,200.0,59.5,200.0,52.0,201.0,44.5,202.0,37.0,203.0,29.0,204.0,20.5,205.0,12.5,205.5,4.5,206.0" stroke="black" stroke-width="2" fill="none" />
<polyline points="4.0,203.0,11.5,202.5,19.5,201.5,28.0,200.5,36.5,200.0,44.0,199.0,52.0,198.5,59.0,197.0,66.5,196.0,74.0,195.5,82.0,195.0,90.0,194.0,98.0,193.5,106.5,193.0,115.0,193.0,123.5,193.0,131.5,193.0,139.5,193.5,147.5,193.5" stroke="black" stroke-width="2" fill="none" />
<polyline points="147.0,201.5,154.5,193.0,162.0,185.0,170.5,177.0" stroke="black" stroke-width="2" fill="none" />
<polyline points="163.0,175.5,155.0,176.0,147.5,176.5,139.5,177.0,132.0,177.5,124.0,178.0,115.5,178.5,107.0,179.0,98.5,179.5,90.5,180.0,82.0,180.5,74.5,180.5,67.0,181.0,59.5,181.5,52.0,181.5,44.5,182.0,36.5,182.5,28.5,183.0,21.0,183.5,13.0,184.5,5.5,185.5" stroke="black" stroke-width="2" fill="none" />
<polyline points="6.0,187.5,14.0,187.0,21.0,187.0,28.5,187.5,36.0,188.0,44.0,188.0,51.0,187.5,58.0,187.0,65.5,186.0,73.5,185.5,82.0,185.0,90.0,184.0,98.5,183.5,107.0,183.0,115.5,183.0,124.5,183.0,132.5,182.5,140.5,182.0,148.5,182.5,157.0,182.0,164.5,181.5,172.5,181.0,180.5,180.0,188.5,179.0,196.5,177.5" stroke="black" stroke-width="2" fill="none" />
<polyline points="178.5,169.0,170.5,169.5,162.5,169.5,154.5,170.0,147.0,170.5,139.0,171.5,131.0,172.0,123.5,172.5,115.5,173.5,107.5,174.0,100.0,175.0,91.5,175.5,83.5,176.0,75.5,176.5,67.5,177.5,59.5,178.0,52.0,178.5,44.0,178.5,36.5,179.0,29.0,179.5,21.0,179.5,13.0,180.0,5.0,180.0" stroke="black" stroke-width="2" fill="none" />
<polyline points="3.0,182.0,10.5,174.5,18.5,167.0,26.5,159.5,34.5,152.5,43.0,145.0,50.5,138.0,58.5,130.0,67.0,122.5,75.0,115.5,83.5,108.0" stroke="black" stroke-width="2" fill="none" />
<polyline points="92.0,105.5,100.5,105.5" stroke="black" stroke-width="2" fill="none" />
<polyline points="91.0,99.0,98.5,91.5" stroke="black" stroke-width="2" fill="none" />
<polyline points="89.5,82.0,81.5,89.5" stroke="black" stroke-width="2" fill="none" />
<polyline points="76.5,89.0,86.5,97.0,90.5,105.5,90.5,113.5,103.5,124.0,108.5,132.0,110.5,139.5,110.5,147.0,107.5,154.5,102.0,162.5" stroke="black" stroke-width="2" fill="none" />
<polyline points="110.5,161.0,118.5,160.0,125.5,160.0,132.5,160.0,140.0,159.5" stroke="black" stroke-width="2" fill="none" />
<polyline points="138.0,166.5,146.0,175.5,154.0,179.0,162.0,179.0,170.5,175.0,178.5,159.5,176.5,167.5,168.5,176.0" stroke="black" stroke-width="2" fill="none" />
<polyline points="149.5,164.0,141.0,164.5,133.0,165.0,124.5,165.5,116.5,166.0,108.5,167.0,100.5,167.5,93.0,168.0,85.0,168.0,77.0,168.5,69.0,169.0,61.0,169.0,53.0,169.0,45.0,169.5,37.0,169.5,29.0,170.0,21.0,170.5,13.0,171.0,5.5,171.5" stroke="black" stroke-width="2" fill="none" />
<polyline points="4.0,148.0,12.0,140.5" stroke="black" stroke-width="2" fill="none" />
<polyline points="4.0,137.5,11.5,130.5,19.0,123.0,26.5,115.5" stroke="black" stroke-width="2" fill="none" />
<polyline points="28.5,130.0,36.5,122.5,44.5,115.0,52.5,107.0" stroke="black" stroke-width="2" fill="none" />
<polyline points="51.0,101.5,43.0,108.5,35.0,115.5,27.0,122.5" stroke="black" stroke-width="2" fill="none" />
<polyline points="35.5,129.5,44.0,122.5,52.0,115.0" stroke="black" stroke-width="2" fill="none" />
<polyline points="48.0,123.0,55.5,133.0" stroke="black" stroke-width="2" fill="none" />
<polyline points="68.5,138.0,60.5,138.0,53.0,137.5,45.0,138.0,37.0,138.5,28.5,139.0,20.5,139.5,11.5,140.0,3.0,140.5" stroke="black" stroke-width="2" fill="none" />
<polyline points="3.0,133.0,11.0,125.5" stroke="black" stroke-width="2" fill="none" />
<polyline points="3.0,124.0,11.0,116.0" stroke="black" stroke-width="2" fill="none" />
<polyline points="2.0,116.5,10.5,116.0,19.0,115.5,27.5,115.5,35.5,115.5,43.0,115.5,51.0,115.0,59.0,114.0,67.0,113.5,75.5,113.5" stroke="black" stroke-width="2" fill="none" />
<polyline points="90.5,113.5,99.0,113.5,107.5,113.5" stroke="black" stroke-width="2" fill="none" />
<polyline points="106.0,150.0,114.5,149.0,123.0,148.0,131.0,147.0,139.0,146.0" stroke="black" stroke-width="2" fill="none" />
<polyline points="131.0,101.5,123.0,102.5,115.0,102.5,107.0,103.0,98.5,103.5,90.0,104.5,82.0,105.0,74.0,105.5,66.5,106.5,58.5,106.5,51.0,107.0,43.0,107.0,36.0,107.5,28.0,108.0,20.0,108.5,11.5,109.0,3.5,109.0" stroke="black" stroke-width="2" fill="none" />
<polyline points="3.5,102.0,11.0,101.5,19.0,101.5,27.5,101.0,36.0,100.0,43.5,99.0,52.0,98.5,59.5,98.0,67.5,97.0,75.5,96.0,83.0,95.5,91.5,95.0,99.5,94.5,108.0,94.0,116.0,94.0" stroke="black" stroke-width="2" fill="none" />
<polyline points="130.0,77.0,138.0,76.5,145.5,76.0,153.5,75.5,162.0,75.0,170.0,74.5,178.0,74.0,186.0,73.0,194.5,72.5,202.5,72.0,210.5,71.5" stroke="black" stroke-width="2" fill="none" />
<polyline points="203.0,36.0,195.0,43.5,187.0,50.0,179.0,57.5,170.5,65.5,162.0,73.0,154.5,80.5" stroke="black" stroke-width="2" fill="none" />
<polyline points="155.5,75.0,163.5,74.0,171.5,73.0,180.0,72.5,188.5,72.0,196.5,71.5" stroke="black" stroke-width="2" fill="none" />
<polyline points="195.5,56.0,188.0,56.0,179.5,56.5,171.5,57.0" stroke="black" stroke-width="2" fill="none" />
<polyline points="165.5,65.0,173.0,64.5,181.0,64.5,189.0,64.0,197.0,64.0" stroke="black" stroke-width="2" fill="none" />
<polyline points="179.0,42.5,171.0,50.0,163.0,57.0,154.5,64.5,146.5,71.5" stroke="black" stroke-width="2" fill="none" />
<polyline points="149.0,65.5,157.5,58.0" stroke="black" stroke-width="2" fill="none" />
<polyline points="138.0,54.5,145.5,54.0,154.0,54.0,161.5,53.5,170.0,52.5,178.5,52.0,186.0,52.0,194.5,51.5,203.0,51.0,211.0,50.5,219.0,50.5" stroke="black" stroke-width="2" fill="none" />
<polyline points="212.5,34.0,220.5,33.5,228.5,33.5,236.0,33.5" stroke="black" stroke-width="2" fill="none" />
<polyline points="243.5,25.5,236.0,26.0,228.5,26.5,220.5,27.0" stroke="black" stroke-width="2" fill="none" />
<polyline points="221.0,12.0,229.5,4.0" stroke="black" stroke-width="2" fill="none" />
<polyline points="236.0,9.5,227.5,9.5,219.5,9.5" stroke="black" stroke-width="2" fill="none" />
<polyline points="220.5,7.5,228.5,7.0,236.0,6.0,244.0,5.0,252.5,4.5,261.0,4.0,268.5,3.0,276.0,1.5" stroke="black" stroke-width="2" fill="none" />
<polyline points="179.0,3.0,171.0,10.5,163.5,18.0,155.5,25.5" stroke="black" stroke-width="2" fill="none" />
<polyline points="162.5,25.5,170.5,17.5,179.0,9.5" stroke="black" stroke-width="2" fill="none" />
<polyline points="179.5,9.0,172.0,9.5,163.5,10.0" stroke="black" stroke-width="2" fill="none" />
<polyline points="161.5,3.0,153.5,10.5,146.0,18.5" stroke="black" stroke-width="2" fill="none" />
<polyline points="156.0,18.5,164.0,10.5,172.0,3.0" stroke="black" stroke-width="2" fill="none" />
<polyline points="181.5,3.5,173.5,3.5,166.0,3.5,158.0,4.0,150.0,4.5,142.0,5.0,133.5,5.5,125.0,6.0,117.5,6.0,110.0,7.0,102.0,7.5,93.5,8.0,85.5,8.5,77.5,9.0,69.5,9.5,61.5,10.5,53.5,11.5,46.0,12.0,37.0,13.0,28.5,13.5,20.0,13.5,11.5,14.0,3.0,15.0" stroke="black" stroke-width="2" fill="none" />
<polyline points="5.0,17.5,12.5,17.0,20.0,16.5" stroke="black" stroke-width="2" fill="none" />
<polyline points="19.5,4.0,11.5,11.0,4.0,18.5" stroke="black" stroke-width="2" fill="none" />
<polyline points="5.0,19.5,12.5,19.0,20.0,19.0,27.5,19.0,35.5,19.5,43.0,19.5,51.0,19.0,58.5,19.0,66.5,19.0,75.0,19.0,82.5,19.0,90.5,18.5,98.5,17.5,107.0,17.0,115.5,16.5,123.5,16.0,131.5,15.5,140.0,15.0,148.0,14.5,156.0,13.0,163.5,12.5,172.0,12.0,180.0,11.5" stroke="black" stroke-width="2" fill="none" />
<polyline points="178.5,10.5,181.5,5.0,178.5,13.0,179.5,21.0,183.5,29.0" stroke="black" stroke-width="2" fill="none" />
<polyline points="179.0,21.5,187.0,32.5,195.0,35.5,203.0,34.0,210.5,29.5" stroke="black" stroke-width="2" fill="none" />
<polyline points="156.5,4.0,148.0,11.5" stroke="black" stroke-width="2" fill="none" />
<polyline points="147.0,4.0,139.0,12.0" stroke="black" stroke-width="2" fill="none" />
<polyline points="130.0,8.5,138.5,1.0" stroke="black" stroke-width="2" fill="none" />
<polyline points="130.0,5.0,122.5,13.0,114.5,20.5" stroke="black" stroke-width="2" fill="none" />
<polyline points="106.5,17.5,115.0,10.0,123.5,3.0" stroke="black" stroke-width="2" fill="none" />
<polyline points="115.5,4.0,107.5,11.5,100.0,19.0" stroke="black" stroke-width="2" fill="none" />
<polyline points="91.0,18.5,99.0,11.0,106.5,3.0" stroke="black" stroke-width="2" fill="none" />
<polyline points="98.0,5.0,90.5,12.0" stroke="black" stroke-width="2" fill="none" />
<polyline points="94.0,9.5,101.5,9.0,109.0,8.5,117.0,8.5,124.5,8.5" stroke="black" stroke-width="2" fill="none" />
<polyline points="91.0,1.5,83.0,9.5" stroke="black" stroke-width="2" fill="none" />
<polyline points="84.0,3.0,76.0,10.5" stroke="black" stroke-width="2" fill="none" />
<polyline points="61.0,12.0,52.5,19.0,44.5,27.0,36.5,34.5,28.0,41.5" stroke="black" stroke-width="2" fill="none" />
<polyline points="29.0,41.0,37.0,41.0" stroke="black" stroke-width="2" fill="none" />
<polyline points="35.5,42.0,43.5,35.5,51.5,28.5,60.0,21.0" stroke="black" stroke-width="2" fill="none" />
<polyline points="61.0,28.5,53.5,36.0,45.5,43.0,37.5,51.0" stroke="black" stroke-width="2" fill="none" />
<polyline points="34.0,52.5,42.0,52.0,49.5,51.0,57.5,50.0,65.5,49.5" stroke="black" stroke-width="2" fill="none" />
<polyline points="50.5,53.0,42.5,60.0,34.5,67.5" stroke="black" stroke-width="2" fill="none" />
<polyline points="34.5,64.0,42.5,64.0" stroke="black" stroke-width="2" fill="none" />
<polyline points="42.0,66.0,49.5,58.5" stroke="black" stroke-width="2" fill="none" />
<polyline points="51.0,68.5,43.0,76.0" stroke="black" stroke-width="2" fill="none" />
<polyline points="37.0,91.5,45.5,83.0,54.0,75.0,62.0,67.0" stroke="black" stroke-width="2" fill="none" />
<polyline points="69.5,67.5,61.5,75.0,53.5,83.0,45.5,91.0,37.5,99.0" stroke="black" stroke-width="2" fill="none" />
<polyline points="45.0,98.5,53.0,91.0,61.0,83.5,69.0,76.0" stroke="black" stroke-width="2" fill="none" />
<polyline points="74.0,77.0,66.0,84.0,58.0,90.5" stroke="black" stroke-width="2" fill="none" />
<polyline points="65.0,87.0,51.0,94.5,47.0,102.5,44.5,110.5,46.0,118.0,48.5,125.5,57.5,133.5,70.5,123.5,79.0,118.5,86.5,116.5,94.5,117.5,102.5,121.5" stroke="black" stroke-width="2" fill="none" />
<polyline points="75.5,91.5,84.0,84.0" stroke="black" stroke-width="2" fill="none" />
<polyline points="76.0,83.0,68.0,90.5" stroke="black" stroke-width="2" fill="none" />
<polyline points="86.0,94.0,78.0,88.5,70.5,85.5,63.0,87.5,54.5,91.5,47.0,104.5" stroke="black" stroke-width="2" fill="none" />
<polyline points="27.5,69.0,35.5,68.5,44.0,68.0,51.5,67.0,59.5,66.5,67.5,65.5,75.0,65.0,83.0,64.5" stroke="black" stroke-width="2" fill="none" />
<polyline points="50.5,44.0,42.0,51.5,34.0,58.5" stroke="black" stroke-width="2" fill="none" />
<polyline points="27.5,60.0,35.5,59.5,44.0,59.0,52.5,59.0,60.5,59.0,68.5,58.5,76.5,57.5" stroke="black" stroke-width="2" fill="none" />
<polyline points="67.0,42.0,58.5,42.0,50.0,42.5,42.0,43.0,34.0,44.0" stroke="black" stroke-width="2" fill="none" />
<polyline points="28.0,38.0,36.0,38.0,44.5,37.0,52.5,36.0,60.0,35.0,68.0,34.0" stroke="black" stroke-width="2" fill="none" />
<polyline points="60.5,2.0,52.5,9.5,45.0,17.0,37.5,25.0,29.0,32.5" stroke="black" stroke-width="2" fill="none" />
<polyline points="22.0,32.0,30.5,40.0,33.0,48.0,31.5,56.0,28.5,64.0,20.0,72.0" stroke="black" stroke-width="2" fill="none" />
<polyline points="2.5,73.5,10.5,75.5,18.5,72.5,26.5,65.5,35.5,59.5,38.5,67.5,38.5,75.5,36.5,83.5,28.5,91.5,26.5,93.5,34.5,85.5" stroke="black" stroke-width="2" fill="none" />
<polyline points="4.0,87.0,12.0,86.5,20.0,86.5,28.5,86.0,36.5,85.5,44.5,84.5,52.5,83.5,60.5,82.0,68.5,80.5,76.5,80.0,84.5,79.0,92.5,78.5,100.5,78.5,108.5,78.0" stroke="black" stroke-width="2" fill="none" />
<polyline points="130.5,68.5,138.5,68.5,146.5,68.0,154.5,67.5,163.0,67.5,170.5,67.0,179.0,66.5,187.0,66.0,195.5,65.0,204.0,64.0,212.0,63.0,219.5,63.0" stroke="black" stroke-width="2" fill="none" />
<polyline points="236.0,40.5,227.5,40.5,219.5,40.5,211.5,41.5,203.5,42.0,195.0,42.5,187.0,42.5,178.5,43.0,170.5,43.5,162.5,44.0,155.0,45.0,147.5,45.5,140.0,45.5" stroke="black" stroke-width="2" fill="none" />
<polyline points="130.5,61.5,138.5,61.0,147.0,60.0,155.0,59.0,162.5,59.0,171.0,58.5,179.0,58.0,187.5,57.5,195.5,57.0,203.0,57.0,211.5,56.5" stroke="black" stroke-width="2" fill="none" />
<polyline points="179.0,-4.0,170.5,-3.5,162.5,-2.5,154.5,-2.0,146.5,-2.0,139.0,-2.0,131.0,-1.0,123.0,-1.0,115.0,-1.0,107.0,-1.0,99.5,-1.5,91.5,-1.5,84.0,-1.0,75.5,0.0,67.5,0.5,59.5,1.5,50.5,2.0,42.0,3.0,34.0,3.5,26.5,4.5,18.5,5.5,10.5,6.0,2.5,6.0" stroke="black" stroke-width="2" fill="none" />
<polyline points="4.0,9.0,12.0,8.0,20.0,8.0" stroke="black" stroke-width="2" fill="none" />
<polyline points="11.5,2.5,3.5,10.0" stroke="black" stroke-width="2" fill="none" />
<polyline points="3.0,24.5,11.0,16.5,19.0,8.5,27.0,0.5" stroke="black" stroke-width="2" fill="none" />
<polyline points="35.0,4.5,27.0,12.0,19.0,19.0,11.0,26.5,3.5,34.0" stroke="black" stroke-width="2" fill="none" />
<polyline points="3.5,35.5,11.5,34.5,19.5,33.5,28.0,32.0,36.0,31.0" stroke="black" stroke-width="2" fill="none" />
<polyline points="18.5,33.0,26.5,26.0,34.5,18.5,43.0,11.0,51.5,4.0" stroke="black" stroke-width="2" fill="none" />
<polyline points="44.0,3.0,36.0,11.0,28.5,19.0,20.5,26.5,12.5,34.0" stroke="black" stroke-width="2" fill="none" />
<polyline points="11.0,30.5,5.0,34.0,12.5,31.0,20.0,31.5,28.0,37.0" stroke="black" stroke-width="2" fill="none" />
<polyline points="5.5,30.5,13.5,30.5,21.0,29.5,29.0,28.5,37.0,27.0,44.5,25.5,52.0,25.0,59.5,24.0,67.5,23.0,75.5,22.5" stroke="black" stroke-width="2" fill="none" />
<polyline points="92.0,71.0,84.5,71.5,76.5,72.0,68.5,72.5,60.5,73.0,52.0,73.5,44.0,74.5,35.5,75.5,26.5,76.5,18.0,77.0,10.0,78.0,2.0,79.0" stroke="black" stroke-width="2" fill="none" />
<polyline points="3.5,96.5,11.5,96.0,20.0,95.0,29.0,93.5,37.0,92.0,45.0,91.5,53.0,90.5,60.5,90.0,68.0,90.0,76.0,90.0,84.5,90.0,92.0,89.0,99.5,88.5,107.5,87.5" stroke="black" stroke-width="2" fill="none" />
<polyline points="67.0,129.5,58.5,129.5,50.5,129.5,43.0,129.5,34.5,130.0,26.5,130.5,18.5,131.0,11.0,132.0,3.5,132.0" stroke="black" stroke-width="2" fill="none" />
<polyline points="2.5,124.5,11.0,124.0,18.5,123.5,26.0,123.0,33.5,123.0,42.0,122.5,50.0,122.5,58.5,122.0,67.0,121.5" stroke="black" stroke-width="2" fill="none" />
<polyline points="83.5,225.5,76.0,226.0,68.0,227.5,60.0,228.0,51.5,228.5,43.5,229.0,35.5,229.5,27.0,230.0,18.5,230.5,10.5,231.5,2.5,232.0" stroke="black" stroke-width="2" fill="none" />
<polyline points="3.5,243.0,11.5,243.0,19.5,243.0,27.5,243.0,36.0,243.0,44.0,242.5,52.0,242.5,59.5,242.5,67.5,242.0,75.5,241.5,83.5,240.5" stroke="black" stroke-width="2" fill="none" />
<polyline points="134.0,205.5,142.0,207.5,150.0,199.0,157.5,195.0,165.5,192.0,147.5,200.0,141.5,207.5,127.0,215.5,121.0,223.0,119.5,231.5,123.0,221.5,130.5,213.5,138.5,211.0,147.5,210.0,155.5,213.0,163.5,221.0" stroke="black" stroke-width="2" fill="none" />
<polyline points="148.0,210.0,161.0,218.0,165.5,227.0,168.0,235.5,166.0,244.0,159.5,252.5" stroke="black" stroke-width="2" fill="none" />
<polyline points="186.0,202.0,178.0,197.0" stroke="black" stroke-width="2" fill="none" />
<polyline points="213.5,139.5,203.5,131.5" stroke="black" stroke-width="2" fill="none" />
<polyline points="28.5,24.0,21.0,24.5,14.0,24.5,6.0,25.0" stroke="black" stroke-width="2" fill="none" />
<polyline points="3.5,292.0,6.0,300.5,7.0,308.5,3.0,317.0" stroke="black" stroke-width="2" fill="none" />
</svg>