<svg xmlns="http://www.w3.org/2000/svg" version="1.1"><polyline points="5.5,131.5,6.5,139.5,6.0,147.5,5.0,155.5,6.0,164.0,3.0,172.0,3.0,180.0,4.0,188.0,4.0,196.5,3.0,204.0,3.0,212.5,4.5,220.5" stroke="black" stroke-width="2" fill="none" />
<polyline points="1.0,466.0,9.5,466.0,17.0,466.5,25.5,466.5,33.5,467.5,41.5,467.5,49.5,468.0,57.0,467.5,65.0,467.5,73.0,467.0,81.0,467.0,89.0,467.0,97.0,467.0" stroke="black" stroke-width="2" fill="none" />
<polyline points="174.5,469.5,182.5,469.5,190.5,469.5,198.5,470.0,206.0,470.5,214.0,470.5,222.0,471.0" stroke="black" stroke-width="2" fill="none" />
<polyline points="229.5,477.0,237.5,470.0,245.0,463.0,252.5,455.5,260.5,448.0,268.0,440.5,275.5,432.5,284.0,425.0,292.5,417.0" stroke="black" stroke-width="2" fill="none" />
<polyline points="292.5,409.0,284.5,417.0,276.5,424.5,269.0,432.5,261.5,440.0,254.0,447.5,246.0,455.0,237.5,462.5" stroke="black" stroke-width="2" fill="none" />
<polyline points="234.0,461.5,242.0,461.5,250.0,461.5,258.5,461.0,267.0,460.5,275.5,460.0,284.0,459.5,292.5,458.5,300.5,458.0,309.0,457.5,317.0,457.0,325.0,456.5,333.0,456.0,340.5,455.5,348.0,455.0,355.5,454.5,363.0,453.5,370.5,452.5,378.5,452.0,386.5,451.5,395.0,451.5,403.0,450.5,411.5,450.0,420.0,449.0,428.5,448.0,436.5,447.0,445.0,447.5,453.0,447.5,460.5,447.0,468.0,446.0,476.0,445.5,484.5,445.5,492.5,445.0,500.5,445.0,508.0,444.5,515.5,444.0" stroke="black" stroke-width="2" fill="none" />
<polyline points="517.0,444.0,508.5,451.5,500.0,459.5,492.0,467.0,484.0,474.0,475.5,481.5,467.0,488.5,458.5,496.0,450.0,503.0,441.5,511.0" stroke="black" stroke-width="2" fill="none" />
<polyline points="458.5,511.5,466.5,504.0,474.5,496.5,482.5,488.5,490.5,481.0,498.5,473.5,507.0,466.0,515.5,458.5" stroke="black" stroke-width="2" fill="none" />
<polyline points="515.0,451.0,507.0,458.5,499.5,466.0,492.0,473.5,484.5,481.0,476.5,488.0,468.0,496.0,459.5,503.5,451.0,511.0" stroke="black" stroke-width="2" fill="none" />
<polyline points="460.0,506.0,468.5,505.0" stroke="black" stroke-width="2" fill="none" />
<polyline points="466.5,498.0,474.5,497.5,483.0,497.0" stroke="black" stroke-width="2" fill="none" />
<polyline points="491.5,498.5,499.5,498.0,507.0,498.0,514.5,497.0" stroke="black" stroke-width="2" fill="none" />
<polyline points="515.5,499.5,507.5,507.5,499.5,515.5" stroke="black" stroke-width="2" fill="none" />
<polyline points="491.5,512.5,499.0,511.5,507.0,511.5,514.5,511.0" stroke="black" stroke-width="2" fill="none" />
<polyline points="516.5,508.5,508.5,515.5" stroke="black" stroke-width="2" fill="none" />
<polyline points="514.0,504.0,506.5,504.5,498.5,504.5" stroke="black" stroke-width="2" fill="none" />
<polyline points="489.5,514.5,497.5,507.0,505.5,499.0,514.0,492.0" stroke="black" stroke-width="2" fill="none" />
<polyline points="513.5,482.0,506.0,489.5,498.0,497.5,490.0,505.5,481.5,513.0" stroke="black" stroke-width="2" fill="none" />
<polyline points="473.5,512.0,482.0,504.5,490.5,497.0,498.5,490.0,506.5,483.0,515.0,475.0" stroke="black" stroke-width="2" fill="none" />
<polyline points="515.5,466.5,507.5,473.5,499.5,481.0,491.0,489.0,482.5,497.0,474.0,504.5,466.5,512.5" stroke="black" stroke-width="2" fill="none" />
<polyline points="433.5,510.0,441.5,502.5,449.5,495.0,458.5,488.0,467.0,481.0,476.0,474.0,484.0,466.5,492.0,458.5,500.0,451.0,508.0,443.0,516.0,435.5" stroke="black" stroke-width="2" fill="none" />
<polyline points="514.5,427.5,507.0,434.5,499.0,442.0,490.5,449.5,482.0,457.0,473.5,465.0,465.5,472.5,458.0,480.0,450.0,488.0,441.5,496.0,433.5,503.5,425.5,511.0" stroke="black" stroke-width="2" fill="none" />
<polyline points="417.0,509.5,425.0,502.5,433.0,495.5,441.0,488.5,449.5,480.5,458.0,472.5,466.5,465.0,475.0,457.5,483.5,450.0,491.5,442.0,500.0,434.5,508.0,427.0,516.5,419.0" stroke="black" stroke-width="2" fill="none" />
<polyline points="517.5,412.0,509.5,419.5,501.0,426.5,492.5,434.0,484.0,441.5,476.0,448.5,467.5,456.5,459.5,464.0,451.5,471.5,443.5,479.0,435.5,486.0,427.5,494.0,419.0,501.0,410.5,508.5" stroke="black" stroke-width="2" fill="none" />
<polyline points="411.0,501.0,419.0,493.5,427.5,486.0,435.5,478.5,443.5,471.0,451.5,463.0,459.5,455.5,467.5,448.0,476.0,440.0,484.0,432.5,491.5,425.5,499.5,418.5,507.5,411.0,515.5,403.5" stroke="black" stroke-width="2" fill="none" />
<polyline points="515.5,395.0,507.0,403.0,499.0,410.5,491.0,418.0,483.0,426.0,474.5,433.5,467.0,441.0,459.5,448.5,452.0,455.5,444.0,463.0,436.0,470.5,428.0,477.5,420.0,485.5,412.0,492.5,404.5,499.5" stroke="black" stroke-width="2" fill="none" />
<polyline points="395.0,492.5,402.5,484.5,410.5,477.5,418.5,469.5,426.0,461.5,434.0,454.0,442.0,446.5,450.0,438.5,458.5,430.5,467.0,422.5,475.5,415.0,484.0,407.0,492.5,399.5,500.5,392.5,508.5,385.5,516.5,378.0" stroke="black" stroke-width="2" fill="none" />
<polyline points="516.0,385.0,508.0,393.0,499.5,401.0,491.5,409.0,483.5,416.5,475.5,424.5,467.0,432.5,459.0,440.5,450.5,448.0,442.5,456.0,434.5,464.0,426.5,471.0,418.5,478.0,411.0,485.0,403.0,492.0,395.5,499.0,387.5,506.5" stroke="black" stroke-width="2" fill="none" />
<polyline points="389.0,509.0,381.0,516.5" stroke="black" stroke-width="2" fill="none" />
<polyline points="387.0,491.0,395.0,483.0,403.0,476.0,411.0,469.0,419.0,461.5,427.5,454.0,435.5,446.5,443.0,439.0,452.0,431.5,460.0,424.0,467.5,416.0,475.5,407.5,483.5,400.0,491.5,392.0,499.5,384.0,508.5,377.0,516.5,369.5" stroke="black" stroke-width="2" fill="none" />
<polyline points="508.5,371.0,500.5,378.5,493.0,386.5,485.0,394.0,477.0,401.5,468.5,409.0,460.0,416.5,451.5,423.5,443.0,431.0,435.0,438.5,426.5,446.5,419.0,453.5,411.0,461.0,402.5,468.5,394.0,476.0,385.5,484.0,377.5,491.5" stroke="black" stroke-width="2" fill="none" />
<polyline points="369.5,490.0,378.0,482.5,387.0,475.5,395.5,468.0,404.0,460.5,412.5,452.5,421.0,445.0,429.0,437.5,437.0,430.0,444.5,423.0,452.5,415.5,460.0,408.0,467.5,400.5,475.5,393.0,483.0,385.0,490.0,377.5,497.5,369.5,505.5,361.5,513.0,354.0" stroke="black" stroke-width="2" fill="none" />
<polyline points="515.5,346.5,507.5,353.5,499.5,361.0,491.0,368.5,483.0,376.0,475.0,384.0,468.0,392.0,460.0,400.0,452.5,407.5,444.5,415.0,436.0,422.5,428.5,430.5,420.5,437.5,412.0,445.0,404.0,451.5,396.0,459.0,387.5,466.5,379.5,474.5,371.5,482.0,364.0,490.0,356.0,497.5" stroke="black" stroke-width="2" fill="none" />
<polyline points="348.0,490.5,356.5,483.5,364.5,476.0,372.5,469.0,380.5,461.0,388.0,453.0,395.5,445.0,403.5,437.0,411.5,429.5,419.0,421.5,427.0,414.0,435.0,406.0,443.0,398.0,451.0,391.0,458.5,384.0,467.0,376.5,474.5,369.5,482.0,362.5,489.5,355.5,498.0,347.5" stroke="black" stroke-width="2" fill="none" />
<polyline points="492.0,345.5,500.0,338.0,507.5,331.0,516.0,323.0" stroke="black" stroke-width="2" fill="none" />
<polyline points="515.0,330.5,507.5,338.5" stroke="black" stroke-width="2" fill="none" />
<polyline points="507.5,347.5,500.0,355.0,492.5,362.0,485.0,369.0" stroke="black" stroke-width="2" fill="none" />
<polyline points="484.0,369.0,492.5,368.5" stroke="black" stroke-width="2" fill="none" />
<polyline points="493.0,361.5,500.5,361.0" stroke="black" stroke-width="2" fill="none" />
<polyline points="482.5,355.5,474.5,363.0,466.0,370.5,458.0,377.5,450.5,384.5,443.0,392.0,435.5,399.5,427.0,407.5,419.0,415.5,411.5,423.0,403.5,430.5,396.0,438.0,388.5,445.0,381.0,452.0,373.0,459.5,365.0,468.0,356.5,475.0,347.5,482.5,339.5,490.5" stroke="black" stroke-width="2" fill="none" />
<polyline points="345.5,485.0,337.5,492.5,329.5,499.5" stroke="black" stroke-width="2" fill="none" />
<polyline points="323.5,496.5,331.0,488.5,339.0,481.0" stroke="black" stroke-width="2" fill="none" />
<polyline points="338.0,475.5,345.5,468.0" stroke="black" stroke-width="2" fill="none" />
<polyline points="346.0,469.0,353.5,461.5,361.5,454.0,370.0,446.0,378.0,438.0,386.0,430.5,394.0,423.5,402.0,416.0,411.0,409.0,419.0,401.5,427.0,394.0,435.0,387.0,443.5,379.5,451.0,372.5,459.5,365.0" stroke="black" stroke-width="2" fill="none" />
<polyline points="452.0,365.5,444.0,373.0,436.0,379.5,428.0,387.0,420.0,394.0,411.5,401.5,403.5,409.5,395.0,416.5,386.5,424.0,378.0,431.5,370.0,439.0,362.0,446.5,354.0,454.0" stroke="black" stroke-width="2" fill="none" />
<polyline points="361.0,448.5,369.0,448.0,377.5,447.0,386.0,446.5,393.5,446.5,401.5,446.0,410.0,445.5,419.0,445.0,427.5,444.0,435.5,443.5,443.0,443.5,451.5,443.0,460.0,442.0,468.5,442.0,476.5,442.0,484.5,441.5,492.5,441.0,500.5,440.5,508.5,440.0,516.5,439.5" stroke="black" stroke-width="2" fill="none" />
<polyline points="514.0,407.0,505.5,407.5,497.0,407.5" stroke="black" stroke-width="2" fill="none" />
<polyline points="492.5,394.5,500.5,394.0,509.0,393.5" stroke="black" stroke-width="2" fill="none" />
<polyline points="501.5,387.5,494.0,388.0" stroke="black" stroke-width="2" fill="none" />
<polyline points="474.5,381.0,466.5,388.5,458.5,396.0,450.5,403.5,442.5,410.5,434.5,418.0,426.5,425.5,419.0,432.0,411.5,439.0,404.5,447.0,396.5,454.0,388.5,461.5,381.0,469.5,373.0,477.0,365.0,484.5,356.5,492.0" stroke="black" stroke-width="2" fill="none" />
<polyline points="371.5,479.5,379.5,479.5,387.5,479.0,396.0,479.0,405.0,478.5,413.5,478.0,421.0,477.5,428.5,477.5,436.0,476.5,443.5,476.0,451.5,475.0,459.5,475.0,468.0,474.5,476.0,474.5,483.5,474.5,491.5,474.5,499.5,473.5,507.0,472.5,515.0,471.5" stroke="black" stroke-width="2" fill="none" />
<polyline points="515.5,415.0,508.0,415.5,500.5,415.5,493.0,415.5,484.5,415.5" stroke="black" stroke-width="2" fill="none" />
<polyline points="477.5,409.0,485.5,408.5,493.5,408.0" stroke="black" stroke-width="2" fill="none" />
<polyline points="473.0,417.5,465.5,418.5" stroke="black" stroke-width="2" fill="none" />
<polyline points="460.5,401.0,469.0,400.5,476.5,400.0,484.5,399.5,492.0,398.5,499.0,397.5,506.5,397.0,514.0,397.0" stroke="black" stroke-width="2" fill="none" />
<polyline points="475.0,384.5,467.0,385.0" stroke="black" stroke-width="2" fill="none" />
<polyline points="446.0,385.5,437.5,386.5" stroke="black" stroke-width="2" fill="none" />
<polyline points="430.0,378.5,437.5,378.0,445.5,377.0" stroke="black" stroke-width="2" fill="none" />
<polyline points="444.5,365.0,436.0,372.0,427.5,379.5,419.0,387.0,411.0,393.5,403.0,401.0,395.0,408.0,386.5,415.5,378.0,423.0,369.5,430.5,361.0,437.5" stroke="black" stroke-width="2" fill="none" />
<polyline points="362.0,436.0,354.0,443.0" stroke="black" stroke-width="2" fill="none" />
<polyline points="359.5,439.5,360.5,447.5,353.0,454.0,351.5,462.0,340.0,468.0,347.0,468.0,354.5,458.0" stroke="black" stroke-width="2" fill="none" />
<polyline points="356.5,467.5,364.5,460.0,373.0,452.0,380.5,445.0,388.0,438.0,395.5,430.5,403.5,423.0,412.0,415.0,420.0,407.0,428.0,399.5,436.0,392.0,444.0,385.0,451.5,377.5,459.0,370.5,467.0,363.0,475.0,355.5" stroke="black" stroke-width="2" fill="none" />
<polyline points="465.5,354.5,473.5,347.0,481.0,339.5" stroke="black" stroke-width="2" fill="none" />
<polyline points="476.0,340.0,484.0,332.0" stroke="black" stroke-width="2" fill="none" />
<polyline points="490.5,337.0,498.0,329.5,505.5,322.0,513.5,314.5" stroke="black" stroke-width="2" fill="none" />
<polyline points="516.0,308.0,508.0,315.0,499.5,321.5" stroke="black" stroke-width="2" fill="none" />
<polyline points="497.5,319.0,505.5,319.0" stroke="black" stroke-width="2" fill="none" />
<polyline points="501.0,326.5,497.0,328.0,489.0,331.0,492.0,330.5,497.5,331.5,498.5,335.5" stroke="black" stroke-width="2" fill="none" />
<polyline points="498.0,327.0,506.5,327.0,514.0,326.5" stroke="black" stroke-width="2" fill="none" />
<polyline points="508.0,306.5,500.0,314.0,492.0,321.5" stroke="black" stroke-width="2" fill="none" />
<polyline points="483.5,323.0,492.0,316.0,499.5,308.5" stroke="black" stroke-width="2" fill="none" />
<polyline points="491.5,305.0,483.5,313.0" stroke="black" stroke-width="2" fill="none" />
<polyline points="476.0,312.5,484.5,305.0,493.0,297.0" stroke="black" stroke-width="2" fill="none" />
<polyline points="491.5,290.0,483.0,297.0" stroke="black" stroke-width="2" fill="none" />
<polyline points="485.0,304.0,493.5,304.0" stroke="black" stroke-width="2" fill="none" />
<polyline points="508.5,290.0,517.0,282.0" stroke="black" stroke-width="2" fill="none" />
<polyline points="508.5,275.5,500.5,282.5" stroke="black" stroke-width="2" fill="none" />
<polyline points="500.5,278.0,492.0,285.5" stroke="black" stroke-width="2" fill="none" />
<polyline points="508.5,268.0,516.0,260.5" stroke="black" stroke-width="2" fill="none" />
<polyline points="517.0,268.0,509.0,268.5,501.0,269.0,492.5,269.5,484.0,270.0,475.5,270.5,467.0,271.0,459.0,272.0,451.0,272.0,443.0,272.5,435.0,272.5,427.5,273.0,419.0,274.0,411.0,274.0,403.5,274.0,396.0,274.5,388.0,275.0,380.5,275.5,372.5,276.0" stroke="black" stroke-width="2" fill="none" />
<polyline points="371.0,292.0,379.0,291.0,387.0,291.0,395.5,291.0,404.0,291.0,412.0,290.5,419.5,290.5,427.5,289.0,435.5,288.0,443.5,287.5,451.0,287.5,459.5,287.0,467.5,286.5,475.5,286.5,483.5,286.0,492.0,285.5,500.0,285.0,508.0,284.5,516.0,284.0" stroke="black" stroke-width="2" fill="none" />
<polyline points="499.5,261.0,491.5,268.5,483.5,276.0" stroke="black" stroke-width="2" fill="none" />
<polyline points="489.5,259.5,497.0,252.5" stroke="black" stroke-width="2" fill="none" />
<polyline points="491.0,249.0,483.0,257.0" stroke="black" stroke-width="2" fill="none" />
<polyline points="477.0,251.0,484.5,243.5" stroke="black" stroke-width="2" fill="none" />
<polyline points="492.0,226.0,500.0,219.0,508.5,212.0,516.0,204.5" stroke="black" stroke-width="2" fill="none" />
<polyline points="517.0,213.5,509.0,221.0" stroke="black" stroke-width="2" fill="none" />
<polyline points="505.5,214.5,497.5,215.0" stroke="black" stroke-width="2" fill="none" />
<polyline points="483.0,204.5,475.0,212.5" stroke="black" stroke-width="2" fill="none" />
<polyline points="475.0,220.0,467.5,227.0" stroke="black" stroke-width="2" fill="none" />
<polyline points="492.0,196.5,500.0,189.0,508.5,182.0" stroke="black" stroke-width="2" fill="none" />
<polyline points="497.0,178.5,489.5,186.5" stroke="black" stroke-width="2" fill="none" />
<polyline points="508.0,161.5,516.0,154.0" stroke="black" stroke-width="2" fill="none" />
<polyline points="507.5,146.0,516.0,138.5" stroke="black" stroke-width="2" fill="none" />
<polyline points="507.0,130.5,515.5,123.0" stroke="black" stroke-width="2" fill="none" />
<polyline points="506.5,124.5,498.0,132.0" stroke="black" stroke-width="2" fill="none" />
<polyline points="489.5,131.5,482.0,138.5" stroke="black" stroke-width="2" fill="none" />
<polyline points="483.0,146.0,491.5,139.0" stroke="black" stroke-width="2" fill="none" />
<polyline points="497.5,122.5,505.5,115.5" stroke="black" stroke-width="2" fill="none" />
<polyline points="506.0,107.0,498.0,115.0,489.5,123.0" stroke="black" stroke-width="2" fill="none" />
<polyline points="483.5,109.5,475.5,116.5,467.5,123.5" stroke="black" stroke-width="2" fill="none" />
<polyline points="475.0,114.5,483.0,113.5" stroke="black" stroke-width="2" fill="none" />
<polyline points="507.0,98.5,514.5,90.5" stroke="black" stroke-width="2" fill="none" />
<polyline points="507.5,92.5,500.0,100.5" stroke="black" stroke-width="2" fill="none" />
<polyline points="508.5,82.5,516.0,75.0" stroke="black" stroke-width="2" fill="none" />
<polyline points="515.5,67.5,508.0,75.0" stroke="black" stroke-width="2" fill="none" />
<polyline points="507.0,75.0,515.0,74.5" stroke="black" stroke-width="2" fill="none" />
<polyline points="500.0,73.5,508.5,66.0,516.5,58.5" stroke="black" stroke-width="2" fill="none" />
<polyline points="516.0,50.5,508.0,58.0,500.0,66.0,492.0,73.5" stroke="black" stroke-width="2" fill="none" />
<polyline points="485.0,65.0,493.0,57.0,501.0,49.5,508.5,41.5,516.5,33.5" stroke="black" stroke-width="2" fill="none" />
<polyline points="516.5,26.5,508.5,33.5,500.5,41.0,492.0,48.5,483.5,56.0" stroke="black" stroke-width="2" fill="none" />
<polyline points="491.5,56.5,499.5,55.5" stroke="black" stroke-width="2" fill="none" />
<polyline points="499.0,57.5,507.0,50.0,515.0,43.5" stroke="black" stroke-width="2" fill="none" />
<polyline points="517.0,51.0,509.0,51.5" stroke="black" stroke-width="2" fill="none" />
<polyline points="506.5,34.0,514.5,33.0" stroke="black" stroke-width="2" fill="none" />
<polyline points="516.0,20.0,508.5,27.0,500.5,34.5,493.0,42.0" stroke="black" stroke-width="2" fill="none" />
<polyline points="482.0,27.0,474.5,34.5" stroke="black" stroke-width="2" fill="none" />
<polyline points="467.5,32.5,474.5,24.5,482.0,17.0,490.0,10.0,498.0,2.0" stroke="black" stroke-width="2" fill="none" />
<polyline points="506.0,4.0,498.0,11.5,490.0,19.0" stroke="black" stroke-width="2" fill="none" />
<polyline points="498.0,23.5,506.0,22.5,514.0,22.5" stroke="black" stroke-width="2" fill="none" />
<polyline points="514.5,18.0,506.0,18.5" stroke="black" stroke-width="2" fill="none" />
<polyline points="515.5,13.5,507.0,21.0,499.5,28.0,492.0,35.0,485.0,42.0,477.5,49.5,469.5,57.0,461.0,65.0" stroke="black" stroke-width="2" fill="none" />
<polyline points="460.5,57.0,468.5,49.0,476.5,41.5,484.5,34.5,492.5,27.0,501.0,19.0,509.0,12.0,516.5,4.5" stroke="black" stroke-width="2" fill="none" />
<polyline points="482.0,4.0,474.0,11.0,466.0,18.5,458.0,26.5,450.5,34.0,442.0,41.5" stroke="black" stroke-width="2" fill="none" />
<polyline points="450.0,19.5,458.0,12.0,466.5,4.5" stroke="black" stroke-width="2" fill="none" />
<polyline points="467.0,9.5,475.0,9.0" stroke="black" stroke-width="2" fill="none" />
<polyline points="477.5,2.0,469.5,9.5,461.5,18.0" stroke="black" stroke-width="2" fill="none" />
<polyline points="468.5,17.0,461.0,17.5,453.0,18.0" stroke="black" stroke-width="2" fill="none" />
<polyline points="453.5,11.0,445.0,18.0" stroke="black" stroke-width="2" fill="none" />
<polyline points="435.5,2.0,427.5,9.5" stroke="black" stroke-width="2" fill="none" />
<polyline points="474.0,19.5,482.0,11.5" stroke="black" stroke-width="2" fill="none" />
<polyline points="483.0,19.5,475.5,20.0" stroke="black" stroke-width="2" fill="none" />
<polyline points="476.5,75.0,468.5,83.0" stroke="black" stroke-width="2" fill="none" />
<polyline points="517.0,71.0,509.0,71.5,501.0,71.5,492.5,71.5,484.0,72.0,476.0,72.5,468.0,73.0,460.0,73.5,452.0,74.0,444.0,74.5,435.5,75.0,427.5,75.5,419.5,75.5,411.5,76.0,403.0,76.5" stroke="black" stroke-width="2" fill="none" />
<polyline points="403.0,61.0,411.0,61.0,419.0,60.0,427.5,59.5,436.0,59.0,444.5,58.5,453.0,58.0,461.0,57.5,469.0,57.0,477.5,56.0,485.0,55.0,493.5,55.0,501.5,55.0,509.0,54.5,516.5,54.0" stroke="black" stroke-width="2" fill="none" />
<polyline points="514.5,176.0,506.5,177.0,498.5,177.0,491.0,177.5,483.0,178.0,475.0,178.5,467.0,178.5,459.0,179.0,450.5,180.0,442.5,180.5,435.0,181.0,427.0,181.5" stroke="black" stroke-width="2" fill="none" />
<polyline points="421.0,174.5,429.0,173.5,436.5,172.5,444.0,172.0,451.0,171.5,458.5,171.0,466.0,170.0,474.0,168.5,481.5,167.5,489.5,166.5,497.5,166.0,505.5,166.0,514.5,166.0" stroke="black" stroke-width="2" fill="none" />
<polyline points="517.0,194.0,509.0,194.5,501.0,195.0,492.5,195.0,484.0,195.0,475.0,195.0,466.5,195.5,458.5,195.5,450.5,196.0,442.5,196.5,434.5,197.0,427.0,197.5" stroke="black" stroke-width="2" fill="none" />
<polyline points="420.0,189.5,428.0,189.0,436.0,188.5,444.0,187.5,451.5,187.0,459.5,186.0,467.0,185.5,475.0,185.0,483.0,184.0,490.5,183.0,498.0,182.0,506.5,182.0,514.0,181.5" stroke="black" stroke-width="2" fill="none" />
<polyline points="514.0,247.0,506.5,247.5,498.5,247.5,490.5,248.0,482.0,249.0,474.0,249.5,465.5,250.0,457.5,251.0,449.5,251.5,441.5,252.0,434.0,253.0,426.5,254.0,418.5,254.5" stroke="black" stroke-width="2" fill="none" />
<polyline points="411.5,244.0,419.5,244.0,428.0,243.5,436.0,243.5,443.5,243.5,451.5,243.5,459.5,242.5,467.0,241.5,475.0,240.5,483.5,240.0,491.5,239.5,499.0,238.5,507.0,238.5,514.5,238.0" stroke="black" stroke-width="2" fill="none" />
<polyline points="516.5,230.5,508.5,231.0,500.5,231.5,492.5,232.0,485.0,232.5,477.0,232.5,469.0,233.0,461.0,233.5,453.0,234.0,445.0,234.5,436.5,235.5,428.0,235.5,420.0,236.0,411.5,236.0,403.5,237.0" stroke="black" stroke-width="2" fill="none" />
<polyline points="386.0,220.0,394.0,219.5,402.5,219.0,411.0,218.5,419.5,218.5,427.5,218.5,436.0,218.5,444.5,218.5,453.0,218.0,461.5,218.0,470.0,217.5,477.5,217.0,485.5,216.0,493.0,215.5,500.5,215.0,508.5,214.5,516.0,214.0" stroke="black" stroke-width="2" fill="none" />
<polyline points="514.0,198.0,505.5,198.5,497.0,198.5,489.0,199.5,481.5,200.5,474.5,201.5,467.0,202.0,459.5,202.5,451.5,203.5,443.5,204.5,435.5,204.5,427.5,205.0,419.0,206.5" stroke="black" stroke-width="2" fill="none" />
<polyline points="413.0,214.0,421.0,213.5,428.5,213.0,436.5,212.5,444.0,212.5,451.5,212.0,460.0,212.0,468.0,211.5,476.0,211.0,483.5,210.5,491.5,209.5,499.5,209.0,507.0,209.0,514.5,208.0" stroke="black" stroke-width="2" fill="none" />
<polyline points="515.0,221.5,507.5,222.0,500.0,222.5,492.0,223.0,484.0,223.0,476.5,224.0,468.0,224.5,460.0,225.0,452.0,225.5,444.0,225.5,436.5,226.5,429.0,226.5,421.0,227.0,413.5,227.5,405.0,228.0,397.0,228.5,388.5,229.0,380.5,230.0,372.0,231.0" stroke="black" stroke-width="2" fill="none" />
<polyline points="365.5,221.5,373.5,221.0,381.0,220.0" stroke="black" stroke-width="2" fill="none" />
<polyline points="385.5,211.5,393.5,211.5" stroke="black" stroke-width="2" fill="none" />
<polyline points="386.5,197.0,394.5,196.5,402.5,196.5,410.5,196.0" stroke="black" stroke-width="2" fill="none" />
<polyline points="412.5,181.5,420.5,181.0" stroke="black" stroke-width="2" fill="none" />
<polyline points="401.5,165.0,409.5,164.5,417.0,165.0,425.5,164.5,434.0,163.5,442.5,162.5,450.5,162.0,459.0,161.5,467.0,161.0,475.0,160.0,483.5,159.5,491.5,158.5,499.5,158.5,507.0,158.0,515.0,158.0" stroke="black" stroke-width="2" fill="none" />
<polyline points="518.0,151.5,509.5,153.0,501.5,154.5,494.0,155.0,486.0,155.5,478.5,155.5,470.5,155.5,462.5,155.5,454.5,155.5,446.5,155.0,438.0,155.5,430.0,155.5,421.5,155.0,414.0,155.5" stroke="black" stroke-width="2" fill="none" />
<polyline points="401.5,150.0,410.0,149.5,418.0,149.0,426.5,148.5,435.0,148.0,443.5,147.5,451.0,146.5,459.5,145.0,468.0,144.0,476.5,143.5,484.5,142.5,493.0,142.5,500.5,142.5,508.0,142.5,515.5,142.0" stroke="black" stroke-width="2" fill="none" />
<polyline points="514.5,133.0,506.5,133.5,498.5,134.0,490.5,134.5,483.0,135.5,475.0,136.0,467.0,136.5,459.0,137.0,451.0,137.5,442.5,138.0,434.5,138.0,426.0,138.5,418.0,139.5,410.0,140.0,401.5,141.0,393.5,141.5" stroke="black" stroke-width="2" fill="none" />
<polyline points="395.5,149.0,387.5,149.5" stroke="black" stroke-width="2" fill="none" />
<polyline points="389.0,158.5,397.0,158.0" stroke="black" stroke-width="2" fill="none" />
<polyline points="386.0,142.0,378.0,143.0" stroke="black" stroke-width="2" fill="none" />
<polyline points="371.5,135.0,380.0,134.5,387.0,134.5" stroke="black" stroke-width="2" fill="none" />
<polyline points="393.5,130.5,402.0,130.5,409.5,130.5,418.0,130.5,426.5,130.5,434.5,130.0,443.0,130.0,451.0,129.5,459.0,129.5,467.0,129.5,475.0,128.5,483.0,128.0,490.5,127.5,499.0,127.0,508.0,126.5,516.0,126.5" stroke="black" stroke-width="2" fill="none" />
<polyline points="516.5,93.0,508.5,93.5,500.5,94.0,492.5,95.0,484.5,96.0,476.0,97.0,468.5,97.0,460.0,97.0,452.0,97.5,443.0,97.5,435.0,97.5,427.0,98.5,419.0,99.0,411.5,100.0,404.0,100.0,396.0,100.5" stroke="black" stroke-width="2" fill="none" />
<polyline points="388.5,99.0,381.0,100.0,373.0,100.5,365.0,101.0,357.5,101.5" stroke="black" stroke-width="2" fill="none" />
<polyline points="362.0,109.0,370.0,108.5,378.5,108.0,386.5,107.5,394.5,107.0,403.0,106.5,410.5,106.5,418.0,106.5,426.0,107.0,434.0,106.5,442.5,106.5,450.5,106.0,458.0,105.5,466.0,104.5,474.5,103.0,482.5,101.0,490.5,101.0,498.0,100.5,506.0,100.0,514.0,100.0" stroke="black" stroke-width="2" fill="none" />
<polyline points="514.5,62.0,506.0,62.0,498.0,62.5,489.5,63.0,481.5,63.5,474.0,64.0,466.0,64.5,458.0,65.0,450.0,65.0,442.0,65.5,434.5,66.0,426.5,66.0,418.5,68.0,410.0,69.5,402.0,70.5,394.5,71.0,386.5,71.5" stroke="black" stroke-width="2" fill="none" />
<polyline points="380.5,84.5,388.5,83.5,396.0,83.0,403.5,83.0,411.5,82.5,419.5,82.5,427.5,81.5,436.0,80.5,444.0,80.0,452.0,79.0,460.0,78.5,468.0,78.0,476.5,77.5,484.5,77.0,491.5,76.5,499.0,76.0,506.5,75.5,514.0,74.5" stroke="black" stroke-width="2" fill="none" />
<polyline points="513.0,43.0,505.5,43.5,498.0,44.0,490.5,45.0,483.0,45.0,475.5,45.5,467.5,46.0,459.5,46.5,451.5,47.0,443.0,47.5,435.0,47.5,427.5,47.5,419.5,48.0,412.0,49.0,404.5,50.0,396.5,51.0,389.0,52.0,381.0,53.0" stroke="black" stroke-width="2" fill="none" />
<polyline points="378.0,67.5,370.0,67.5,362.5,68.0" stroke="black" stroke-width="2" fill="none" />
<polyline points="355.0,62.0,363.5,61.0,371.5,60.5,379.5,60.0,388.0,59.5" stroke="black" stroke-width="2" fill="none" />
<polyline points="370.0,94.5,378.5,94.5,387.0,94.0,395.0,93.5,403.0,92.5,411.0,91.5,418.5,90.5,426.5,89.0,434.5,88.0,442.0,87.0,449.5,85.5,458.0,85.5,465.5,85.5,474.0,85.5,482.5,85.5,490.5,85.0,499.0,85.0,507.0,84.5,515.0,84.5" stroke="black" stroke-width="2" fill="none" />
<polyline points="515.0,116.0,507.0,116.5,498.5,117.0,490.5,117.0,482.0,117.5,474.0,118.5,466.0,119.0,457.5,120.0,449.5,120.5,442.0,121.0,434.5,121.0,427.0,121.0,419.5,122.0,412.0,123.0,403.5,123.5,395.5,124.0,387.0,125.0,378.5,125.5,370.5,126.0" stroke="black" stroke-width="2" fill="none" />
<polyline points="371.5,139.0,363.0,139.0,355.0,140.0,346.5,141.0" stroke="black" stroke-width="2" fill="none" />
<polyline points="348.0,133.0,356.5,132.5" stroke="black" stroke-width="2" fill="none" />
<polyline points="357.0,125.5,349.0,126.0" stroke="black" stroke-width="2" fill="none" />
<polyline points="350.0,119.0,358.0,118.5,365.5,117.0,373.0,116.0,380.5,115.5,388.0,115.0,395.5,113.5,403.0,113.0,411.0,112.0,419.0,111.5,427.5,111.5,435.0,111.5,443.0,111.0,451.0,110.0,459.5,109.5,468.0,109.0,476.0,109.0,484.0,108.5,492.0,108.0,499.5,108.0,507.5,107.5,515.5,107.0" stroke="black" stroke-width="2" fill="none" />
<polyline points="515.0,20.5,506.5,20.5,498.0,21.0,490.0,21.5,482.0,21.0,473.5,21.5,465.5,22.0,457.5,22.0,449.5,22.5,441.5,22.5,433.0,23.5,425.5,23.5,417.5,24.0,410.0,24.5,402.5,25.0,394.5,25.0,386.0,26.0,378.0,27.0,370.0,28.0,362.0,28.5" stroke="black" stroke-width="2" fill="none" />
<polyline points="356.0,35.0,364.0,34.5,372.0,34.5,379.5,34.5,387.5,35.0,395.5,34.5,403.5,34.5,412.0,34.0,420.0,33.0,428.0,32.5,436.5,31.5,444.0,31.5,451.5,31.0,459.0,31.0,467.5,31.0,475.5,31.0,483.0,30.5,490.5,30.5,499.0,29.5,507.5,28.0,515.5,27.0" stroke="black" stroke-width="2" fill="none" />
<polyline points="394.5,76.0,386.5,76.5,378.5,77.5,370.5,79.0,362.0,80.0,354.0,80.5" stroke="black" stroke-width="2" fill="none" />
<polyline points="356.0,87.0,364.0,86.5,371.5,85.5" stroke="black" stroke-width="2" fill="none" />
<polyline points="363.5,92.5,356.0,93.5,349.0,94.0" stroke="black" stroke-width="2" fill="none" />
<polyline points="348.5,78.0,340.5,78.0" stroke="black" stroke-width="2" fill="none" />
<polyline points="338.5,86.0,330.5,86.5" stroke="black" stroke-width="2" fill="none" />
<polyline points="330.5,95.5,338.5,94.5" stroke="black" stroke-width="2" fill="none" />
<polyline points="346.0,103.0,337.5,103.5,329.5,104.5" stroke="black" stroke-width="2" fill="none" />
<polyline points="329.5,110.0,337.5,109.5" stroke="black" stroke-width="2" fill="none" />
<polyline points="331.0,125.5,323.0,126.0" stroke="black" stroke-width="2" fill="none" />
<polyline points="331.5,133.0,339.5,133.0" stroke="black" stroke-width="2" fill="none" />
<polyline points="338.5,142.0,330.5,142.5" stroke="black" stroke-width="2" fill="none" />
<polyline points="341.0,151.5,349.0,151.0" stroke="black" stroke-width="2" fill="none" />
<polyline points="362.5,156.0,370.0,155.5" stroke="black" stroke-width="2" fill="none" />
<polyline points="363.5,148.5,371.0,148.5,379.0,148.0" stroke="black" stroke-width="2" fill="none" />
<polyline points="372.5,166.5,381.0,166.0,389.0,165.5" stroke="black" stroke-width="2" fill="none" />
<polyline points="404.5,172.5,396.5,173.0,389.0,174.0,381.5,175.0,373.5,175.5" stroke="black" stroke-width="2" fill="none" />
<polyline points="363.5,181.0,372.0,180.5,380.0,179.5,388.0,178.5,396.0,178.0,404.0,177.5" stroke="black" stroke-width="2" fill="none" />
<polyline points="380.5,212.0,372.5,212.5,365.0,213.0,357.0,213.5" stroke="black" stroke-width="2" fill="none" />
<polyline points="356.0,204.5,364.5,204.5,372.5,204.0,380.5,204.0,388.0,203.5,395.5,203.0,404.5,202.5,412.5,202.0" stroke="black" stroke-width="2" fill="none" />
<polyline points="402.0,243.5,394.0,244.0,386.5,244.5,378.5,244.5" stroke="black" stroke-width="2" fill="none" />
<polyline points="372.5,252.5,380.0,252.5,387.5,252.0,395.0,252.0,403.5,252.0" stroke="black" stroke-width="2" fill="none" />
<polyline points="354.5,262.0,362.5,261.5,371.5,260.5,379.5,260.0,388.0,259.5,396.0,258.5,404.0,257.5,412.0,256.5,420.0,256.0,427.5,255.5,435.5,254.5,443.5,254.5,451.5,254.0,460.0,254.0,469.0,253.5,477.5,253.0,485.0,252.5,492.5,252.5,500.0,251.5,507.5,251.0,515.5,250.0" stroke="black" stroke-width="2" fill="none" />
<polyline points="509.5,251.5,508.5,259.0,509.0,259.5" stroke="black" stroke-width="2" fill="none" />
<polyline points="453.0,305.0,445.0,313.5,437.0,321.5" stroke="black" stroke-width="2" fill="none" />
<polyline points="435.5,315.5,428.0,323.0" stroke="black" stroke-width="2" fill="none" />
<polyline points="428.0,323.0,435.5,322.0" stroke="black" stroke-width="2" fill="none" />
<polyline points="444.0,322.0,452.5,314.0" stroke="black" stroke-width="2" fill="none" />
<polyline points="458.5,316.0,450.5,324.0" stroke="black" stroke-width="2" fill="none" />
<polyline points="450.5,328.0,449.5,326.0,444.0,321.0,444.0,313.5" stroke="black" stroke-width="2" fill="none" />
<polyline points="442.5,313.0,450.5,317.5,446.5,320.0,437.5,325.0,439.5,330.0" stroke="black" stroke-width="2" fill="none" />
<polyline points="427.0,338.5,419.0,346.5,411.0,354.5,403.0,362.0,395.0,369.5,387.0,376.5,379.0,384.0,371.5,391.0,363.5,398.0" stroke="black" stroke-width="2" fill="none" />
<polyline points="370.0,392.5,378.5,392.5" stroke="black" stroke-width="2" fill="none" />
<polyline points="380.5,392.5,388.5,384.5,396.0,376.5,403.5,368.5,411.0,361.5,419.0,354.5" stroke="black" stroke-width="2" fill="none" />
<polyline points="411.5,359.5,419.5,359.0,427.5,358.5" stroke="black" stroke-width="2" fill="none" />
<polyline points="428.5,371.0,436.5,371.0" stroke="black" stroke-width="2" fill="none" />
<polyline points="435.5,348.0,427.5,355.0,419.5,363.0,411.5,370.5,403.0,378.0,395.0,385.0,387.0,392.5,379.0,399.5,370.5,406.5,362.5,413.5" stroke="black" stroke-width="2" fill="none" />
<polyline points="363.5,416.5,371.0,416.0" stroke="black" stroke-width="2" fill="none" />
<polyline points="370.0,422.5,378.0,415.0,386.5,407.0,395.0,399.0,403.0,391.5,410.5,384.0,419.0,376.5,427.0,370.0,435.0,362.5,443.0,355.0,451.0,347.0" stroke="black" stroke-width="2" fill="none" />
<polyline points="452.5,338.0,444.5,346.0,436.0,353.0,427.5,361.5,419.0,369.5,411.0,377.0,402.5,385.0,395.0,393.0,387.5,400.5,379.5,408.0,371.5,415.5" stroke="black" stroke-width="2" fill="none" />
<polyline points="371.5,408.5,379.5,408.0" stroke="black" stroke-width="2" fill="none" />
<polyline points="387.0,408.5,395.5,408.0,404.0,407.0,412.5,407.0,420.5,407.0,428.5,406.5,436.5,406.0,444.5,405.5,452.5,405.0,460.5,404.5,468.5,404.0" stroke="black" stroke-width="2" fill="none" />
<polyline points="460.5,355.0,469.0,348.0" stroke="black" stroke-width="2" fill="none" />
<polyline points="425.5,315.5,417.5,323.0" stroke="black" stroke-width="2" fill="none" />
<polyline points="413.5,328.5,405.0,336.0,397.5,344.5" stroke="black" stroke-width="2" fill="none" />
<polyline points="396.0,351.0,390.0,359.5,379.0,362.0,382.0,363.5,381.0,371.5,382.0,380.0,373.0,387.5,368.0,384.5" stroke="black" stroke-width="2" fill="none" />
<polyline points="369.0,382.0,367.0,390.0,374.0,385.0,381.5,377.0" stroke="black" stroke-width="2" fill="none" />
<polyline points="379.0,380.0,370.5,387.5" stroke="black" stroke-width="2" fill="none" />
<polyline points="377.5,399.5,385.5,399.5,393.5,399.0,401.5,399.0,409.5,398.5,418.0,398.0,426.0,398.5,434.0,398.0,442.5,397.5,451.0,397.5" stroke="black" stroke-width="2" fill="none" />
<polyline points="426.0,385.0,418.0,385.5" stroke="black" stroke-width="2" fill="none" />
<polyline points="420.0,375.0,412.0,375.5" stroke="black" stroke-width="2" fill="none" />
<polyline points="412.0,385.5,404.0,386.0,396.0,386.5" stroke="black" stroke-width="2" fill="none" />
<polyline points="396.0,376.0,403.5,376.0" stroke="black" stroke-width="2" fill="none" />
<polyline points="389.5,371.0,397.5,362.5,405.5,355.0" stroke="black" stroke-width="2" fill="none" />
<polyline points="405.0,347.5,397.5,354.5" stroke="black" stroke-width="2" fill="none" />
<polyline points="393.5,354.5,402.0,353.5" stroke="black" stroke-width="2" fill="none" />
<polyline points="403.0,360.5,394.5,361.0" stroke="black" stroke-width="2" fill="none" />
<polyline points="387.0,369.0,395.0,368.5,403.5,367.5,412.0,367.0" stroke="black" stroke-width="2" fill="none" />
<polyline points="387.0,348.5,379.0,356.0" stroke="black" stroke-width="2" fill="none" />
<polyline points="382.5,358.0,375.0,360.0" stroke="black" stroke-width="2" fill="none" />
<polyline points="374.0,359.5,373.5,368.0,383.5,363.5,391.5,367.5,397.0,357.0" stroke="black" stroke-width="2" fill="none" />
<polyline points="397.0,332.5,405.0,325.0" stroke="black" stroke-width="2" fill="none" />
<polyline points="364.5,326.5,372.5,325.5,380.0,324.5,388.0,323.5,396.0,322.5,403.5,322.0,411.0,321.0,419.0,320.0,426.5,319.5,434.0,319.0,442.0,319.0,450.0,318.5,458.5,318.0,467.0,317.5,475.5,317.5,483.5,317.5,492.0,317.5,500.5,317.5,509.0,317.0,517.5,317.0" stroke="black" stroke-width="2" fill="none" />
<polyline points="461.0,413.0,452.5,413.5,444.5,414.0,436.0,414.5,428.0,415.5,419.5,416.0,411.5,416.0,403.5,416.5,395.5,417.0" stroke="black" stroke-width="2" fill="none" />
<polyline points="379.5,425.5,387.0,425.5,395.0,425.0,402.5,425.0,410.5,424.5,418.5,424.0,426.5,423.5,435.0,423.5,443.0,423.0,451.0,422.0,458.5,421.5,466.5,421.0,474.0,420.0,481.5,419.0,489.5,418.5,497.5,418.0,505.5,417.0,514.0,416.5" stroke="black" stroke-width="2" fill="none" />
<polyline points="469.0,389.0,461.5,389.5,453.0,390.0,444.5,390.0,436.0,390.5,428.0,391.0,419.5,391.5,411.5,392.0,403.5,392.5,395.0,393.0,387.5,393.5" stroke="black" stroke-width="2" fill="none" />
<polyline points="370.5,404.0,362.5,411.5,355.0,419.5" stroke="black" stroke-width="2" fill="none" />
<polyline points="357.0,418.5,358.0,422.5" stroke="black" stroke-width="2" fill="none" />
<polyline points="362.0,428.5,354.0,436.0" stroke="black" stroke-width="2" fill="none" />
<polyline points="371.5,439.5,379.5,439.5,388.0,439.5,396.0,439.5,404.5,439.5,412.5,439.0,420.5,438.5,428.5,438.0,437.0,437.5,444.5,437.0,452.5,436.5,460.5,436.0,468.5,435.5,477.0,435.5,485.5,435.5,493.0,435.5,501.0,435.0,508.5,434.5,516.5,434.0" stroke="black" stroke-width="2" fill="none" />
<polyline points="516.0,450.0,508.0,450.5,500.0,451.0,491.5,451.0,484.0,451.5,476.5,451.5,468.5,452.0,461.0,452.5,453.0,453.0,445.0,453.5,437.0,453.0,428.5,453.5,420.0,454.0,411.5,454.5,403.5,454.5,396.0,454.5,387.5,455.5,378.5,456.0,370.5,457.0" stroke="black" stroke-width="2" fill="none" />
<polyline points="362.5,464.5,370.5,464.0,378.5,463.5,386.5,463.0,394.0,462.5,402.0,461.5,410.0,461.0,418.0,461.0,427.0,460.5,436.0,460.0,444.0,459.5,452.0,459.0,459.5,459.0,467.0,458.0,475.0,457.5,483.0,456.5,491.0,456.5,500.0,456.5,508.0,456.0,516.5,456.0" stroke="black" stroke-width="2" fill="none" />
<polyline points="518.5,426.5,510.5,426.5,502.5,426.5,494.5,426.5,486.5,426.0,478.0,426.5,470.0,426.5,461.5,426.0,454.0,426.5,445.5,427.0,438.0,427.5,429.5,428.5,421.0,429.5,413.0,430.5,405.0,431.0,397.5,431.5,389.5,432.0,381.0,432.5,373.0,433.0" stroke="black" stroke-width="2" fill="none" />
<polyline points="339.5,407.0,347.5,406.0,355.0,405.0,363.0,404.0,370.5,403.5,378.0,402.5,386.0,401.0,393.5,400.0,401.5,400.0,410.0,400.0,418.0,399.5,426.0,399.0,434.0,398.0,442.0,397.0,450.5,396.0,458.5,396.0,466.0,395.5,473.5,395.0,481.5,394.5,489.0,394.5,497.5,393.5,505.5,393.5,513.5,393.0" stroke="black" stroke-width="2" fill="none" />
<polyline points="516.0,291.0,507.5,292.0,499.0,293.5,491.5,294.5,483.0,295.0,474.5,295.5,466.0,296.0,458.0,296.5,449.5,297.0,441.5,297.5,433.5,298.0,425.5,298.5,418.0,299.0,410.0,299.0,402.0,299.0,394.5,299.5,387.0,299.5,379.0,299.5,371.5,299.5" stroke="black" stroke-width="2" fill="none" />
<polyline points="364.5,303.5,356.5,304.0" stroke="black" stroke-width="2" fill="none" />
<polyline points="355.0,296.0,362.5,295.5" stroke="black" stroke-width="2" fill="none" />
<polyline points="345.0,285.0,353.5,285.0,361.0,284.5,369.0,284.0,377.0,283.0,385.0,282.5,393.0,281.5,402.0,281.0,410.0,280.5,418.0,280.0,426.5,279.5,434.5,279.0,442.5,278.5,450.5,278.0,458.0,277.5,466.0,276.5,474.0,276.0,482.0,276.0,491.0,275.5,500.0,275.0,508.0,274.5,516.0,274.0" stroke="black" stroke-width="2" fill="none" />
<polyline points="518.0,340.5,509.5,341.5,501.0,341.5,492.5,341.0,484.5,341.5,476.0,341.5,468.0,342.0,459.5,342.5,451.0,343.5,443.0,344.0,435.0,344.5,427.5,345.0,419.5,345.5,411.5,346.0,404.0,346.5,396.0,347.5,388.0,348.5,380.0,349.0,372.0,349.5,363.0,350.0" stroke="black" stroke-width="2" fill="none" />
<polyline points="356.5,341.5,364.5,341.5,372.0,341.0,379.5,340.0,387.0,339.0,394.5,338.0,403.0,337.5,410.5,337.0,418.5,336.5,426.5,336.0,434.5,335.5,442.5,335.5,450.0,335.0,458.0,334.5,466.0,334.0,474.0,333.0,483.0,332.5,491.5,332.5,500.0,332.5,508.5,332.0,516.0,331.5" stroke="black" stroke-width="2" fill="none" />
<polyline points="515.5,257.5,507.5,258.0,499.0,258.5,491.0,258.5,483.5,258.5,475.5,259.0,468.0,260.0,460.5,261.0,452.5,262.0,445.0,263.0,437.0,264.0,429.0,264.5,421.0,265.5,412.5,266.5,404.0,267.0,396.0,267.0,387.5,268.5,380.0,270.0,372.0,271.0,363.5,271.0,355.5,271.5" stroke="black" stroke-width="2" fill="none" />
<polyline points="353.5,276.5,345.0,276.5" stroke="black" stroke-width="2" fill="none" />
<polyline points="346.5,255.0,354.5,254.0,363.0,253.0" stroke="black" stroke-width="2" fill="none" />
<polyline points="358.0,246.0,350.0,246.0" stroke="black" stroke-width="2" fill="none" />
<polyline points="349.5,238.0,357.0,237.5,364.0,237.0,372.0,236.5,379.5,236.0,388.0,235.0" stroke="black" stroke-width="2" fill="none" />
<polyline points="363.0,229.5,355.0,229.5" stroke="black" stroke-width="2" fill="none" />
<polyline points="339.5,229.0,331.0,229.5" stroke="black" stroke-width="2" fill="none" />
<polyline points="331.0,238.5,323.0,239.5" stroke="black" stroke-width="2" fill="none" />
<polyline points="332.0,252.5,340.5,252.0" stroke="black" stroke-width="2" fill="none" />
<polyline points="332.0,213.0,324.0,213.5" stroke="black" stroke-width="2" fill="none" />
<polyline points="339.5,206.0,348.0,205.5" stroke="black" stroke-width="2" fill="none" />
<polyline points="347.5,189.5,340.0,190.0" stroke="black" stroke-width="2" fill="none" />
<polyline points="356.5,189.0,364.5,189.0,373.0,188.0,381.0,187.5,389.0,187.5,396.0,187.5,404.0,186.5,411.5,185.5" stroke="black" stroke-width="2" fill="none" />
<polyline points="341.0,171.0,333.0,171.0,324.5,171.5" stroke="black" stroke-width="2" fill="none" />
<polyline points="331.0,157.0,339.0,157.0" stroke="black" stroke-width="2" fill="none" />
<polyline points="321.5,199.0,313.5,199.5" stroke="black" stroke-width="2" fill="none" />
<polyline points="309.0,238.5,300.5,239.0" stroke="black" stroke-width="2" fill="none" />
<polyline points="275.5,282.5,268.0,290.5" stroke="black" stroke-width="2" fill="none" />
<polyline points="267.0,282.5,259.0,290.5" stroke="black" stroke-width="2" fill="none" />
<polyline points="259.5,292.5,267.5,291.5,275.5,291.5" stroke="black" stroke-width="2" fill="none" />
<polyline points="275.5,300.0,268.0,299.5,260.5,300.0" stroke="black" stroke-width="2" fill="none" />
<polyline points="259.5,301.0,267.0,301.5" stroke="black" stroke-width="2" fill="none" />
<polyline points="273.0,299.5,265.0,294.5,257.0,292.0" stroke="black" stroke-width="2" fill="none" />
<polyline points="251.0,290.0,259.0,283.0" stroke="black" stroke-width="2" fill="none" />
<polyline points="253.0,280.5,247.0,288.5,247.0,296.0,247.5,303.5,246.5,311.5,245.5,319.0,244.5,327.0,242.0,335.0,238.0,343.0,234.5,351.0,233.0,359.0,231.0,367.5,230.0,375.5,228.5,384.0,228.5,392.0,230.0,399.5,229.5,407.5,230.5,415.5,232.0,423.5,234.0,431.5,235.0,439.5,235.0,447.5,235.0,455.5,231.5,463.5,229.5,471.5,229.0,479.5,228.5,487.0,229.5,495.0,228.5,503.0,231.5,511.0,235.5,510.0,244.0,511.0" stroke="black" stroke-width="2" fill="none" />
<polyline points="242.5,512.5,250.5,505.0,258.0,497.0,267.0,488.5,275.5,481.0,283.5,473.0,291.0,465.0" stroke="black" stroke-width="2" fill="none" />
<polyline points="292.5,463.0,284.5,464.0,276.0,464.5,268.0,465.0,259.5,465.0,251.0,466.0,243.0,466.5,234.5,466.5" stroke="black" stroke-width="2" fill="none" />
<polyline points="234.5,471.5,242.5,471.0,250.5,470.0,259.0,469.0,267.0,469.0,275.0,468.5,283.5,467.5,291.5,466.5,299.5,465.5,308.0,464.5,316.5,464.0,324.5,463.5,332.0,463.0,340.0,462.5,348.0,462.0,356.5,461.0,364.0,460.5,372.0,460.5,380.0,460.0,388.0,460.0,396.5,459.5,404.0,459.0,412.0,458.5,419.5,458.0,427.0,457.5,434.5,457.0,443.0,456.5,451.0,456.0,459.0,455.5,467.0,455.0,475.0,454.5,483.0,454.5,490.5,454.0,498.5,454.0,507.0,453.0,515.0,452.5" stroke="black" stroke-width="2" fill="none" />
<polyline points="338.5,466.5,331.0,474.0" stroke="black" stroke-width="2" fill="none" />
<polyline points="329.5,467.0,321.5,474.5" stroke="black" stroke-width="2" fill="none" />
<polyline points="316.0,475.5,324.0,468.0" stroke="black" stroke-width="2" fill="none" />
<polyline points="317.0,468.0,308.5,475.5" stroke="black" stroke-width="2" fill="none" />
<polyline points="308.5,483.0,300.5,490.5,293.5,498.0,285.5,505.5,278.0,512.5" stroke="black" stroke-width="2" fill="none" />
<polyline points="267.5,511.0,275.0,503.5,282.5,496.0,290.5,489.0,298.5,481.5" stroke="black" stroke-width="2" fill="none" />
<polyline points="300.0,473.5,308.0,466.0" stroke="black" stroke-width="2" fill="none" />
<polyline points="299.0,466.5,291.0,474.0,283.0,481.5,275.0,489.0,267.0,496.5,259.5,504.0,252.0,511.5" stroke="black" stroke-width="2" fill="none" />
<polyline points="259.0,513.0,266.5,505.5,274.5,498.0,282.0,490.5,289.5,482.5" stroke="black" stroke-width="2" fill="none" />
<polyline points="291.5,478.0,282.5,478.5,273.5,479.0,265.0,479.5,257.5,480.0,249.5,480.5,242.0,480.5,234.0,480.5,226.0,481.0" stroke="black" stroke-width="2" fill="none" />
<polyline points="227.0,479.5,235.0,478.5,242.5,477.5,250.5,477.0,258.0,476.5,266.5,476.5,274.5,475.5,282.5,475.0,291.0,474.5,299.5,473.5,307.5,473.0,316.0,473.0,324.0,472.5,332.0,471.5,340.0,470.5,348.0,470.0,356.0,469.5,364.0,469.5,371.5,469.0,379.5,468.5,387.5,468.0,395.5,467.5,403.0,466.5,411.0,466.0,419.5,466.0,427.5,465.5,435.5,465.5,444.0,465.0,452.5,464.5,460.5,464.0,468.5,463.0,476.5,463.0,484.5,462.5,492.0,462.0,499.5,461.5,507.0,460.5,515.0,460.5" stroke="black" stroke-width="2" fill="none" />
<polyline points="330.5,483.0,322.5,490.5,314.0,498.0" stroke="black" stroke-width="2" fill="none" />
<polyline points="307.5,498.5,315.0,491.5,323.0,484.0" stroke="black" stroke-width="2" fill="none" />
<polyline points="315.0,486.0,306.5,493.5,298.5,501.0" stroke="black" stroke-width="2" fill="none" />
<polyline points="292.5,500.5,300.0,499.5,308.0,499.0,316.0,498.0,324.0,498.0,332.0,496.5,340.0,497.0,348.0,497.5,356.0,496.5,364.0,497.0" stroke="black" stroke-width="2" fill="none" />
<polyline points="301.0,473.5,309.5,473.0,316.5,472.5,324.0,472.5,332.0,472.0,339.5,471.5,347.0,470.5,354.0,469.5,362.0,468.5,370.0,467.5,378.5,467.0,386.5,467.0,394.5,467.0,402.5,467.0,410.5,467.0,419.0,466.5,427.0,466.0,435.5,465.5,444.0,465.0,452.5,464.5,461.0,463.5,469.0,463.0,476.5,462.5,484.5,462.0,492.5,461.5,500.5,460.5,508.0,460.0,515.5,459.0" stroke="black" stroke-width="2" fill="none" />
<polyline points="515.0,362.5,506.5,363.0,499.0,363.5,491.0,364.5,484.0,365.5,476.5,366.0,468.5,366.5,460.5,367.0,453.0,368.0,445.0,368.5,437.0,369.0,428.5,369.5,420.5,370.5,413.0,371.5,405.0,372.5,397.5,372.5,389.5,373.0,381.0,373.5,372.5,374.0,364.0,374.5,355.5,375.5,347.0,375.5" stroke="black" stroke-width="2" fill="none" />
<polyline points="338.0,373.0,329.5,373.5,321.5,373.5" stroke="black" stroke-width="2" fill="none" />
<polyline points="324.0,365.0,331.5,364.5,339.0,364.0,347.0,364.0,355.0,363.5,363.0,363.0,370.5,362.5,378.5,361.5,386.0,361.0,393.0,360.5,401.0,359.5,409.5,359.5,417.5,358.5,425.5,358.0,433.5,357.0,441.5,356.5,449.0,356.0,457.0,356.0,465.0,355.5,473.0,355.0,481.0,354.5,489.0,354.0,497.5,353.0,506.0,352.5,513.5,352.5" stroke="black" stroke-width="2" fill="none" />
<polyline points="514.0,323.5,505.5,324.5,497.5,324.5,489.5,325.0,482.0,326.0,474.5,327.0,467.0,328.0,459.0,328.5,451.0,329.0,443.0,329.5,436.0,329.5,427.5,330.0,420.0,330.5,411.5,331.5,403.5,332.5,395.5,333.0,388.0,333.5,380.0,334.0,372.5,334.0,365.0,334.0,357.0,334.0,349.5,334.5" stroke="black" stroke-width="2" fill="none" />
<polyline points="347.5,341.5,339.5,342.5" stroke="black" stroke-width="2" fill="none" />
<polyline points="331.0,349.5,339.0,348.5,347.5,348.0,356.0,347.0" stroke="black" stroke-width="2" fill="none" />
<polyline points="348.0,319.0,356.0,318.5,363.5,318.5,371.0,318.0,378.5,317.5,386.0,317.0,394.0,316.5,402.0,316.0,410.0,315.0,418.5,314.0,426.5,313.0,434.5,312.5,443.0,312.0,451.5,311.0,459.5,310.5,468.0,310.0,475.5,309.0,483.0,308.0,490.5,308.0,498.0,308.0,505.5,307.5,513.5,307.0" stroke="black" stroke-width="2" fill="none" />
<polyline points="514.0,296.5,505.5,296.5,498.0,298.0,490.5,299.0,482.5,300.0,474.5,301.5,467.0,302.5,459.0,303.5,451.0,304.5,443.0,305.0,434.5,305.5,426.0,305.5,418.0,306.5,410.5,307.0,402.5,307.5,394.0,307.5,386.0,308.0,378.0,308.5,369.5,309.0,362.0,309.0,354.0,309.5,346.5,310.0" stroke="black" stroke-width="2" fill="none" />
<polyline points="347.5,323.5,339.0,323.5,330.5,324.0" stroke="black" stroke-width="2" fill="none" />
<polyline points="330.5,334.0,323.0,334.5" stroke="black" stroke-width="2" fill="none" />
<polyline points="316.0,332.5,308.0,333.0" stroke="black" stroke-width="2" fill="none" />
<polyline points="309.5,325.0,317.0,324.5" stroke="black" stroke-width="2" fill="none" />
<polyline points="315.5,318.0,323.5,317.5" stroke="black" stroke-width="2" fill="none" />
<polyline points="316.0,308.0,308.5,308.0" stroke="black" stroke-width="2" fill="none" />
<polyline points="309.0,317.5,301.0,318.0" stroke="black" stroke-width="2" fill="none" />
<polyline points="299.5,308.5,291.5,309.0" stroke="black" stroke-width="2" fill="none" />
<polyline points="293.0,295.0,301.0,294.0" stroke="black" stroke-width="2" fill="none" />
<polyline points="276.0,308.5,268.0,309.5,260.5,310.0" stroke="black" stroke-width="2" fill="none" />
<polyline points="259.5,317.0,267.5,316.5,275.5,315.5" stroke="black" stroke-width="2" fill="none" />
<polyline points="279.0,325.0,286.5,347.5" stroke="black" stroke-width="2" fill="none" />
<polyline points="284.5,348.0,276.5,355.5,268.0,363.0,260.0,370.5,251.5,378.0,243.5,385.0,235.5,393.0" stroke="black" stroke-width="2" fill="none" />
<polyline points="235.0,397.5,243.0,397.0,250.5,396.5,258.5,396.0,266.5,395.5,274.5,395.0,282.5,393.5,291.0,392.5,299.5,392.0,307.5,391.5,315.5,391.5,323.5,390.5,331.5,390.5,339.5,390.0,348.0,389.0,356.5,389.0,364.5,389.0,372.0,388.5,380.0,388.0,388.0,387.5,396.0,387.0,403.5,386.5,411.0,386.0,419.0,386.0,427.0,385.5,435.0,385.0,442.5,384.5,450.5,383.5,458.0,383.0,465.0,382.5,473.0,381.5,481.5,381.5,489.5,380.5,497.5,380.0,505.5,379.0,513.5,378.5" stroke="black" stroke-width="2" fill="none" />
<polyline points="293.0,365.0,284.5,372.0,276.0,379.5,268.0,387.0,260.0,395.0,252.0,402.5,243.5,409.5,235.0,417.0" stroke="black" stroke-width="2" fill="none" />
<polyline points="235.5,415.5,244.5,415.0,253.0,414.0,262.0,413.5,270.0,413.0,278.0,412.5,285.5,411.5,293.0,410.5,301.0,410.0,309.0,409.5,316.5,409.0,324.0,408.5,332.0,407.5,339.0,406.5,346.5,406.0,354.5,405.5,362.0,405.0,370.0,404.5,378.0,404.5,386.0,404.0,394.5,403.0,402.5,403.0,409.5,402.5,417.5,402.0,425.5,402.0,434.0,401.5,442.0,401.0,450.0,400.5,458.0,400.5,466.0,399.5,474.5,399.0,482.0,398.5,490.0,398.0,497.5,398.0,506.0,397.5,514.0,397.0" stroke="black" stroke-width="2" fill="none" />
<polyline points="293.0,402.5,285.0,410.0,277.0,417.5,269.0,425.5,261.0,433.5,253.0,441.5,244.5,449.0,236.5,457.0" stroke="black" stroke-width="2" fill="none" />
<polyline points="234.5,457.0,242.5,456.5,250.5,456.5,258.5,456.0,267.0,455.5,275.5,455.0,283.5,455.0,291.5,455.0" stroke="black" stroke-width="2" fill="none" />
<polyline points="292.0,458.0,284.0,465.5,275.0,473.5,266.5,481.0,258.0,489.0,250.0,496.5,242.5,504.5,235.5,512.0" stroke="black" stroke-width="2" fill="none" />
<polyline points="235.0,514.0,243.5,513.5,251.5,513.0,260.0,512.5,268.0,511.5,276.5,510.5,284.5,510.0,292.5,509.5" stroke="black" stroke-width="2" fill="none" />
<polyline points="290.5,507.0,282.5,514.5" stroke="black" stroke-width="2" fill="none" />
<polyline points="292.5,503.0,284.5,503.0,275.5,503.5,267.0,504.5,258.5,504.5,250.0,505.0,242.0,506.0" stroke="black" stroke-width="2" fill="none" />
<polyline points="236.0,498.0,243.5,497.0,252.0,497.0,260.0,496.5,268.0,496.0,276.5,495.5,284.5,494.5,293.0,493.5,301.0,492.5,308.5,492.0,316.5,491.0,324.0,491.0,332.5,491.5,340.5,491.5,349.0,491.0,357.0,491.0,364.5,490.5,372.0,489.5,379.5,489.0,388.0,488.5,396.0,488.0,403.5,487.5,412.0,487.0,420.0,487.0,428.5,487.0,437.0,486.5,445.0,486.5" stroke="black" stroke-width="2" fill="none" />
<polyline points="516.0,476.0,507.5,477.5,500.0,479.0,492.0,480.0,483.5,480.0,475.5,480.5,467.5,481.0,459.5,481.5,451.5,482.0,444.0,482.0,437.0,482.5,428.5,483.0,420.5,484.0,413.0,484.5,405.0,485.0,397.0,485.5,388.5,486.0,380.5,486.5,373.0,486.5,366.0,487.0,358.0,487.0,349.5,488.0,341.0,488.0,332.5,488.0,324.5,488.5,316.5,488.5,308.5,488.5,300.5,489.5,292.5,490.0,284.5,491.0,276.0,491.5,268.0,492.0,260.0,492.5,252.0,492.5,244.0,493.5,236.0,494.0" stroke="black" stroke-width="2" fill="none" />
<polyline points="234.5,488.0,243.0,480.5,251.0,473.0,259.5,466.0,267.5,459.0,275.5,451.5,283.0,444.0,291.5,437.0" stroke="black" stroke-width="2" fill="none" />
<polyline points="291.5,445.0,283.5,452.0,275.5,458.5,267.5,466.0,259.0,473.0,251.0,480.5,243.0,487.5,235.0,495.5,227.0,503.0" stroke="black" stroke-width="2" fill="none" />
<polyline points="226.5,500.5,234.5,500.0,243.0,499.5,251.5,498.5,260.5,498.0,268.5,497.0,276.5,497.0,284.5,497.0,293.0,496.5,301.0,496.0,309.5,496.0,317.5,495.5,325.5,494.5,333.5,494.0,341.0,493.5,348.5,493.0,356.5,493.0,364.0,492.5,372.0,492.0,380.0,491.5,388.0,491.0,396.0,490.5,403.5,490.0,411.5,490.0,419.5,490.0,427.5,490.0,435.0,489.5,443.0,488.5,451.0,488.0,459.5,487.5,467.5,487.5,475.5,486.5,483.5,486.5,491.5,486.0,499.0,485.5,506.5,485.5,515.0,484.5" stroke="black" stroke-width="2" fill="none" />
<polyline points="516.0,435.5,508.5,436.0,501.0,437.0,493.0,437.5,485.0,438.0,477.5,438.5,469.0,438.5,461.0,439.0,452.5,439.5,444.0,440.0,436.0,440.5,428.0,440.5,420.0,441.0,412.5,441.5,404.5,442.0,396.0,442.5,388.5,443.0,380.5,443.5,372.5,444.0,364.5,444.5,356.5,445.5,348.5,446.5,341.0,447.5,333.0,448.5,325.5,448.5,317.5,449.0,309.0,450.0,301.0,449.5,292.0,450.0,283.5,450.5,275.0,451.0,266.5,451.5,258.0,452.0,250.0,453.0,242.0,453.5,234.0,454.0" stroke="black" stroke-width="2" fill="none" />
<polyline points="233.5,448.5,241.5,448.0,249.5,447.5,258.0,447.0,266.5,446.5,275.5,446.0,284.0,445.5" stroke="black" stroke-width="2" fill="none" />
<polyline points="292.5,450.5,284.0,457.5,275.5,465.0,267.0,472.0,259.0,479.5,251.0,487.0,243.0,494.5,235.0,502.0,227.5,509.5" stroke="black" stroke-width="2" fill="none" />
<polyline points="229.0,511.0,237.0,511.0,245.0,510.0,252.5,509.0,260.0,508.0,268.5,507.0,276.5,506.5,284.5,505.5,293.0,505.0,301.0,504.5,309.0,504.0,317.0,503.5,325.0,503.0,332.5,502.5,340.0,502.0,347.5,502.0,354.5,502.0,362.0,502.0,369.5,502.0,377.5,501.5,385.5,501.5,393.5,501.0,401.5,501.0,410.0,500.5,418.0,499.5,426.5,499.5,434.5,498.5,443.0,498.5,451.5,497.5,459.5,496.5,467.5,496.0,475.5,495.0,483.0,494.0,491.0,493.0,498.5,492.5,506.0,491.5,514.0,490.0" stroke="black" stroke-width="2" fill="none" />
<polyline points="514.5,429.0,506.5,429.5,498.5,430.5,490.5,432.0,482.0,433.0,474.0,433.5,466.5,434.0,458.5,434.0,450.5,433.5,442.0,434.0,434.0,434.0,426.5,434.0,418.5,434.0,411.0,434.5,403.0,435.0,395.0,435.0,387.5,436.0,380.0,436.0,371.5,436.5,363.5,437.0,355.5,437.5,348.0,438.0,340.5,438.5,332.0,439.0,323.5,439.5,315.5,440.0,307.5,441.0,299.5,441.0,291.5,441.0,283.5,441.0,275.0,441.0,267.0,441.5,259.0,442.5,251.0,443.0,243.0,443.0,235.0,443.5" stroke="black" stroke-width="2" fill="none" />
<polyline points="233.5,442.0,242.0,441.5,251.0,440.5,259.5,439.5,268.5,439.5,277.0,439.0,285.0,438.5,293.0,438.0" stroke="black" stroke-width="2" fill="none" />
<polyline points="291.0,427.5,283.0,435.0,275.0,442.0,267.0,449.5,258.5,456.5,250.5,463.5,242.5,471.0,234.5,478.5,227.0,486.0" stroke="black" stroke-width="2" fill="none" />
<polyline points="226.0,487.5,234.5,487.5,242.5,487.5,251.0,487.5,259.0,487.0,267.0,487.5,275.0,486.5,283.5,486.0,291.5,486.0,299.5,485.5,307.0,485.0,315.5,484.5,323.5,484.0,332.0,483.5,340.0,482.5,348.5,481.5,356.5,481.0,364.5,480.5,373.0,479.5,381.5,479.0,389.5,479.0,397.0,478.5,404.5,477.5,412.0,477.0,420.0,477.0,427.0,477.0,435.0,476.5,442.5,476.0,451.0,476.0,459.5,475.5,467.5,475.0,476.0,474.5,484.0,474.0,492.0,473.5,500.5,472.5,509.0,472.0,516.5,472.0" stroke="black" stroke-width="2" fill="none" />
<polyline points="515.5,419.5,507.5,420.0,499.5,419.5,492.0,419.5,484.0,419.5,476.0,420.0,468.0,420.5,460.0,421.0,451.5,421.5,444.0,422.5,436.5,423.0,428.0,424.5,420.0,425.5,412.0,426.0,403.5,427.0,395.5,427.0,387.5,427.5,380.0,428.5,372.5,429.5,364.5,430.5,356.5,431.5,349.5,432.5,341.5,433.0,333.5,433.5,325.5,434.5,317.0,435.0,309.5,435.0,301.5,435.0,293.0,435.0,284.5,435.0,276.5,435.0,268.0,436.0,259.5,437.0,251.0,438.0,242.5,438.5,234.0,439.0" stroke="black" stroke-width="2" fill="none" />
<polyline points="236.0,441.5,243.0,433.5,251.0,426.0,259.0,418.0,267.5,410.5,276.0,403.0,284.0,395.5,292.0,388.0" stroke="black" stroke-width="2" fill="none" />
<polyline points="292.5,395.0,285.0,402.5,277.0,410.0,269.5,417.5,261.5,425.5,253.0,433.0,245.0,440.5,236.5,448.5" stroke="black" stroke-width="2" fill="none" />
<polyline points="236.0,434.0,243.5,433.5,251.5,432.5,259.5,431.5,267.5,431.0,275.5,430.5,283.5,430.5,291.5,430.5" stroke="black" stroke-width="2" fill="none" />
<polyline points="291.5,419.5,283.5,420.5,276.0,421.5,268.0,421.5,260.0,422.0,252.0,422.0,244.5,422.5,237.0,422.5" stroke="black" stroke-width="2" fill="none" />
<polyline points="236.0,421.0,243.5,420.0,251.5,419.0,259.0,418.5,267.0,418.0,274.0,417.5,282.5,417.0,290.5,416.5,298.0,416.0,306.0,415.5,314.0,414.5,322.0,415.0,330.0,414.5,338.5,414.0,346.5,414.0,355.0,414.5,362.5,414.0,370.5,413.5,378.5,413.5,386.5,413.0,394.5,412.5,402.5,412.0,410.5,411.5,419.5,411.0,428.5,410.5,437.0,410.5,445.0,410.0,453.0,409.5,461.0,409.0,469.5,408.0,477.5,407.5,485.0,407.0,493.0,407.0,500.5,407.0,508.0,407.0,516.0,406.5" stroke="black" stroke-width="2" fill="none" />
<polyline points="292.0,373.0,283.5,380.5,275.0,388.0,266.5,395.5,258.5,402.5,250.5,410.0,242.5,417.5,234.5,424.5" stroke="black" stroke-width="2" fill="none" />
<polyline points="236.0,428.5,244.0,428.0,251.5,427.5,259.5,426.5,267.5,426.5,275.0,426.0,282.5,425.5,290.5,424.5,298.0,424.0,305.5,423.0,313.5,423.0,321.5,422.5,329.0,423.0,337.0,423.0,345.5,423.0,353.5,423.5,361.0,423.0,369.5,423.5,377.5,423.0,385.5,422.5,393.5,422.5,401.5,421.5,410.0,421.0,418.0,420.0,426.0,419.0,434.5,418.0,442.5,417.0,450.5,416.0,458.5,415.5,466.5,415.5,474.5,415.0,482.5,414.0,490.5,414.0,499.0,414.0,508.0,414.5,516.5,414.0" stroke="black" stroke-width="2" fill="none" />
<polyline points="291.0,379.5,283.0,387.5,275.0,395.5,267.5,403.0,259.5,410.0,251.5,418.0,243.5,425.5,235.0,433.5" stroke="black" stroke-width="2" fill="none" />
<polyline points="237.0,419.0,245.0,418.0,253.0,417.0,261.0,416.0,268.5,415.5,276.5,414.5,284.0,414.0,292.0,413.5" stroke="black" stroke-width="2" fill="none" />
<polyline points="291.0,375.5,283.0,376.0,275.0,376.5,267.0,377.0,258.5,378.0,250.5,378.5" stroke="black" stroke-width="2" fill="none" />
<polyline points="247.5,378.0,246.0,386.0,240.0,380.0,248.0,371.0" stroke="black" stroke-width="2" fill="none" />
<polyline points="249.0,373.0,243.0,381.0,242.0,389.0,245.0,388.0,244.5,376.5" stroke="black" stroke-width="2" fill="none" />
<polyline points="244.5,370.5,239.5,378.5,238.0,386.5,238.0,399.0,237.5,407.0,241.0,397.0" stroke="black" stroke-width="2" fill="none" />
<polyline points="243.5,399.5,239.5,407.5" stroke="black" stroke-width="2" fill="none" />
<polyline points="235.0,408.5,243.5,401.5,251.5,394.0,260.0,387.0,269.5,379.5,278.0,371.5,286.0,364.0,293.5,357.0" stroke="black" stroke-width="2" fill="none" />
<polyline points="292.0,348.0,284.0,355.5,275.5,363.5,267.0,371.0,258.5,379.0,250.0,386.0,242.0,394.0,234.5,401.0,226.5,408.5" stroke="black" stroke-width="2" fill="none" />
<polyline points="227.0,407.0,235.5,406.0,243.5,405.5,251.5,405.0,259.0,404.0,267.5,403.5,275.0,403.0,283.0,402.5,291.0,402.5,298.5,402.0,306.5,401.5,315.0,401.5,323.0,401.0,331.5,400.0" stroke="black" stroke-width="2" fill="none" />
<polyline points="281.0,344.0,273.0,345.0,265.0,345.5,257.5,345.5,250.0,345.5,242.0,346.0" stroke="black" stroke-width="2" fill="none" />
<polyline points="243.0,341.0,251.0,340.0,258.5,340.0,266.5,340.0,274.0,340.0,282.5,340.5,291.0,340.0,300.0,339.5,308.0,339.5,316.0,338.5,324.0,337.5" stroke="black" stroke-width="2" fill="none" />
<polyline points="282.0,338.5,274.5,346.0,267.0,353.0,259.0,360.5,251.5,368.5" stroke="black" stroke-width="2" fill="none" />
<polyline points="243.5,367.5,251.0,360.5,259.0,353.0,267.0,345.5,275.0,338.0" stroke="black" stroke-width="2" fill="none" />
<polyline points="268.0,340.5,260.0,348.0,252.0,355.5,244.5,362.5,236.0,370.5" stroke="black" stroke-width="2" fill="none" />
<polyline points="234.0,369.5,242.0,369.0,250.0,369.0,258.0,368.5,266.0,368.0,274.5,368.0,282.5,367.5,290.0,367.0" stroke="black" stroke-width="2" fill="none" />
<polyline points="258.0,338.0,249.5,345.5,242.0,353.0,234.5,360.5" stroke="black" stroke-width="2" fill="none" />
<polyline points="236.0,358.5,244.0,358.0,251.5,357.5,259.5,357.0,267.0,356.5,274.0,356.0,282.5,355.0,290.5,354.0,299.0,353.0,307.5,352.5,315.0,352.0,323.0,351.0,330.5,351.0,338.5,351.0,346.0,351.0,354.5,351.5,363.0,351.0,372.0,350.5,380.0,350.5,388.0,349.5,396.0,348.5,404.0,348.5,411.5,348.0,419.5,348.0,427.5,348.0,435.5,347.5,444.0,346.5,452.5,345.5,461.5,345.0,470.0,344.5,478.0,344.0,486.0,343.5,493.5,342.0,501.0,341.0,508.5,340.5,516.0,340.0" stroke="black" stroke-width="2" fill="none" />
<polyline points="282.0,331.0,274.5,331.0,266.5,331.0,258.5,331.0" stroke="black" stroke-width="2" fill="none" />
<polyline points="258.0,323.5,266.0,324.0,274.0,323.5,282.5,323.0" stroke="black" stroke-width="2" fill="none" />
<polyline points="276.5,332.0,272.5,330.0,271.5,322.0,262.5,319.0,267.5,312.0,266.0,304.0,270.0,296.0,271.0,292.0,271.5,289.0,273.5,281.0,269.5,279.0,261.5,279.5,253.5,279.5,245.5,281.5" stroke="black" stroke-width="2" fill="none" />
<polyline points="249.5,285.5,257.5,285.0,266.0,284.0,274.5,283.5" stroke="black" stroke-width="2" fill="none" />
<polyline points="274.0,289.0,266.0,289.5,258.0,289.5,250.5,289.5" stroke="black" stroke-width="2" fill="none" />
<polyline points="250.0,290.0,248.0,297.5,249.0,306.0,249.0,314.0,248.0,321.5,246.0,329.5,244.5,337.5,250.5,338.5,258.5,337.5,266.5,339.0" stroke="black" stroke-width="2" fill="none" />
<polyline points="253.0,338.5,245.0,345.5,236.5,353.5" stroke="black" stroke-width="2" fill="none" />
<polyline points="235.5,353.0,243.0,352.5,251.0,352.0,259.0,351.5,266.5,351.0,274.0,350.0,282.0,349.5,290.0,348.5" stroke="black" stroke-width="2" fill="none" />
<polyline points="251.0,324.5,243.0,331.5" stroke="black" stroke-width="2" fill="none" />
<polyline points="242.5,330.0,250.5,330.0" stroke="black" stroke-width="2" fill="none" />
<polyline points="251.5,327.5,243.5,327.5" stroke="black" stroke-width="2" fill="none" />
<polyline points="245.0,325.0,253.0,324.5" stroke="black" stroke-width="2" fill="none" />
<polyline points="256.0,331.0,257.0,323.0,256.5,315.5,257.0,307.5,255.0,297.0,253.0,305.0" stroke="black" stroke-width="2" fill="none" />
<polyline points="255.0,300.5,263.5,300.5,268.0,300.0" stroke="black" stroke-width="2" fill="none" />
<polyline points="273.5,303.5,274.0,311.5,267.0,322.0" stroke="black" stroke-width="2" fill="none" />
<polyline points="246.5,288.0,254.5,289.0,262.5,288.0,270.5,290.0,273.5,295.0,272.5,303.0,269.5,308.5,276.0,316.0,277.0,324.0,280.0,332.0,282.0,340.5,286.0,348.5,288.0,356.5,289.0,364.5,291.5,372.5,292.0,380.5,292.5,388.5,292.5,397.0,292.5,405.0,292.5,413.0,291.5,420.5,289.0,429.0,288.0,437.0,286.5,445.0,286.5,453.0,288.0,461.0,289.5,469.0,291.5,478.0,291.0,486.0,297.5,483.5,305.5,483.5,314.0,482.5,322.0,482.5,330.0,481.5,338.0,480.5,345.5,479.0,353.5,479.5,361.5,477.5" stroke="black" stroke-width="2" fill="none" />
<polyline points="334.0,468.0,325.5,469.5,317.0,468.5,309.0,469.0,300.5,469.0,292.5,468.0" stroke="black" stroke-width="2" fill="none" />
<polyline points="292.0,470.5,284.0,470.5,276.0,471.0,268.0,471.5,260.0,472.5,252.0,473.5,244.0,474.0,235.5,474.0" stroke="black" stroke-width="2" fill="none" />
<polyline points="227.0,484.0,235.0,484.0,243.0,484.5,251.0,484.5,259.0,484.0,267.0,484.0,275.5,483.5,283.5,483.0,292.0,482.0,300.0,481.5,308.0,481.0,315.5,480.0,324.0,480.0,332.0,479.5,340.0,479.0,348.5,478.5,356.5,477.5,365.0,476.5,373.0,475.5,380.5,475.0,388.5,474.0,396.0,474.0,404.5,474.5,412.5,474.5,421.0,474.0,429.0,474.0,436.5,473.5,444.0,472.5,451.5,472.0,460.0,471.5,468.0,471.0,475.5,470.5,484.0,470.0,492.0,470.0,500.5,470.0,509.0,469.5,517.0,469.5" stroke="black" stroke-width="2" fill="none" />
<polyline points="515.5,364.0,508.0,364.5,500.5,366.0,493.5,366.5,486.0,367.0,478.0,367.0,470.0,368.0,462.0,369.0,453.5,370.0,445.0,371.0,436.5,372.0,428.0,371.5,419.5,372.0,411.0,372.0,403.0,372.5,395.0,373.5,387.0,373.5,379.5,373.5,371.5,374.0,363.5,374.0,355.0,374.5,347.0,375.0,339.0,375.5,331.0,376.0,322.5,377.0,314.5,377.5,306.5,378.5,298.0,378.5,290.0,378.5,282.0,378.5,274.0,378.5,266.0,378.5,258.5,378.0,250.5,378.0,242.5,378.5,234.5,379.0" stroke="black" stroke-width="2" fill="none" />
<polyline points="234.5,384.0,242.0,384.0,250.5,383.5,258.5,383.5,266.5,383.0,274.5,382.5,283.0,382.5,291.5,382.0" stroke="black" stroke-width="2" fill="none" />
<polyline points="241.5,382.0,234.0,389.0,226.0,396.0" stroke="black" stroke-width="2" fill="none" />
<polyline points="229.0,396.0,236.5,395.5,244.5,394.0,252.5,393.0,260.5,392.0,268.5,391.0,276.0,390.5,283.5,389.5,291.0,389.5" stroke="black" stroke-width="2" fill="none" />
<polyline points="293.0,397.5,285.0,398.0,277.0,398.5,268.5,399.5,260.0,400.5,251.5,401.5,243.5,402.5,235.5,403.0" stroke="black" stroke-width="2" fill="none" />
<polyline points="225.0,410.0,233.5,409.5,242.0,408.5,250.5,408.0,258.5,408.0,267.0,407.5,275.0,407.5,282.5,407.0,290.5,407.0" stroke="black" stroke-width="2" fill="none" />
<polyline points="314.5,368.5,306.5,369.0,298.5,370.0,290.5,370.0,282.5,370.0,274.5,370.0,266.0,370.0,258.5,370.5,250.5,370.5,242.5,371.0,234.0,371.5" stroke="black" stroke-width="2" fill="none" />
<polyline points="234.5,367.5,242.5,366.5,250.5,366.0,258.5,365.0,267.0,364.0,274.5,363.5,282.5,363.0,290.0,362.5,298.0,362.0,306.0,361.0,314.0,361.0" stroke="black" stroke-width="2" fill="none" />
<polyline points="291.5,359.5,284.0,360.0,276.5,360.5,268.5,361.0,260.5,361.5,252.5,362.5,245.5,363.0,237.5,363.5" stroke="black" stroke-width="2" fill="none" />
<polyline points="237.5,349.0,245.0,348.5,253.0,348.0,260.5,348.0,268.5,348.0,276.5,347.0,283.5,346.0,291.5,345.0,299.5,344.0,307.5,343.5,315.5,342.5,323.5,342.5" stroke="black" stroke-width="2" fill="none" />
<polyline points="228.5,391.5,236.0,391.0,243.5,389.5,251.0,388.0,258.5,387.5,266.5,386.5,275.0,386.0,283.0,385.0,290.5,384.5,298.0,384.5,306.5,384.0,314.5,383.5,322.5,383.5,330.5,383.0,339.0,382.5,347.5,382.0,355.5,382.0,363.5,382.0,372.0,382.0,381.0,382.0,388.5,381.0,397.0,380.5,405.0,379.5,413.0,379.0,420.5,377.5,428.0,377.0,436.0,376.0,443.5,375.5,451.0,375.0,458.5,373.5,466.5,373.0,475.0,372.5,483.5,372.5,492.0,372.0,501.0,371.5,509.5,371.5,517.5,371.0" stroke="black" stroke-width="2" fill="none" />
<polyline points="370.0,472.0,362.0,471.0,354.0,471.0,346.5,471.0,338.5,471.5,331.0,471.5,323.0,471.5,315.0,471.5,307.0,471.5,299.5,471.5,291.5,472.5" stroke="black" stroke-width="2" fill="none" />
<polyline points="291.5,501.5,291.5,509.0" stroke="black" stroke-width="2" fill="none" />
<polyline points="226.0,466.5,218.0,467.0,210.0,467.0,201.5,467.0,193.5,467.5,185.0,468.0,177.0,468.5" stroke="black" stroke-width="2" fill="none" />
<polyline points="227.0,468.5,218.5,468.5,210.0,468.0,202.0,469.0,194.0,468.0,186.5,468.5,178.5,468.5,170.5,471.0,162.5,471.0,154.5,471.0,146.5,471.0,138.5,471.5,130.0,471.5,121.5,471.5,113.5,472.0,105.0,471.5,97.0,470.5,89.5,470.5,81.5,470.0,73.5,470.0,65.5,470.5,57.5,470.0,49.5,469.5,41.5,469.5,33.0,469.5,25.5,468.0,17.5,468.0,9.5,468.0,1.0,468.0" stroke="black" stroke-width="2" fill="none" />
<polyline points="277.0,48.0,285.5,47.5" stroke="black" stroke-width="2" fill="none" />
<polyline points="302.5,45.5,310.0,45.5,317.5,44.5" stroke="black" stroke-width="2" fill="none" />
<polyline points="324.0,46.5,332.0,46.5,339.5,46.0,347.5,46.0,355.5,46.0,363.5,45.5,372.0,44.5,380.5,43.5,389.5,43.0,398.0,42.5,406.0,42.0,414.0,41.5,421.5,40.0,429.0,39.0,436.5,38.5,444.0,38.0,451.5,36.5,459.0,36.0,467.0,35.0,475.0,34.5,483.5,34.5,491.0,34.5,499.0,34.0,507.0,33.0,515.5,32.5" stroke="black" stroke-width="2" fill="none" />
<polyline points="516.0,12.5,508.0,12.5,500.5,13.5,493.0,13.5,485.0,14.0,477.5,14.5,469.0,15.0,461.0,15.5,452.5,16.0,444.5,17.0,436.0,18.0,428.0,18.5,420.0,19.0,412.5,19.0,404.0,19.0,396.0,19.0,388.5,19.0,380.5,19.0,372.5,19.0,364.5,20.0,356.5,20.0" stroke="black" stroke-width="2" fill="none" />
<polyline points="354.5,14.0,362.5,13.0,370.5,13.0,379.0,13.0,388.0,13.5,396.5,13.0,404.5,13.0,412.5,12.0,421.0,11.0,429.5,10.5,437.5,10.5,445.5,10.0,453.0,9.0,460.5,8.0,468.5,7.5,476.5,6.0,484.5,5.0,492.5,4.5,500.0,3.5,508.0,2.5,516.0,2.0" stroke="black" stroke-width="2" fill="none" />
<polyline points="515.0,-4.5,507.0,-4.0,498.5,-3.5,490.0,-3.5,482.0,-2.5,474.5,-2.0,466.5,-1.5,458.0,-1.5,450.0,-1.0,442.0,-0.5,433.5,0.0,426.0,0.0,418.0,0.5,410.5,1.0,402.0,1.5,394.0,2.5,386.0,2.5,378.0,3.0,370.0,3.5,361.5,4.0,353.5,4.0,345.5,4.5,338.5,5.0,330.5,5.0" stroke="black" stroke-width="2" fill="none" />
<polyline points="338.5,12.0,346.5,12.0" stroke="black" stroke-width="2" fill="none" />
<polyline points="346.0,20.5,338.5,21.5,331.0,22.0" stroke="black" stroke-width="2" fill="none" />
<polyline points="332.5,15.5,324.0,16.0" stroke="black" stroke-width="2" fill="none" />
<polyline points="324.5,21.0,316.5,21.5,308.5,21.5" stroke="black" stroke-width="2" fill="none" />
<polyline points="307.5,14.0,315.5,13.5" stroke="black" stroke-width="2" fill="none" />
<polyline points="316.5,4.5,308.5,5.0" stroke="black" stroke-width="2" fill="none" />
<polyline points="283.5,22.0,275.5,22.5" stroke="black" stroke-width="2" fill="none" />
<polyline points="273.5,4.0,281.5,3.5,289.0,4.0" stroke="black" stroke-width="2" fill="none" />
<polyline points="268.0,5.0,260.0,5.5" stroke="black" stroke-width="2" fill="none" />
<polyline points="253.5,12.5,245.5,13.0" stroke="black" stroke-width="2" fill="none" />
<polyline points="301.5,54.0,309.5,53.5" stroke="black" stroke-width="2" fill="none" />
<polyline points="322.5,70.5,330.5,70.0" stroke="black" stroke-width="2" fill="none" />
<polyline points="340.5,61.5,348.0,61.0" stroke="black" stroke-width="2" fill="none" />
<polyline points="348.0,31.0,356.0,31.0" stroke="black" stroke-width="2" fill="none" />
<polyline points="401.0,108.5,409.0,107.5" stroke="black" stroke-width="2" fill="none" />
<polyline points="410.5,111.5,402.0,111.5" stroke="black" stroke-width="2" fill="none" />
</svg>