<svg xmlns="http://www.w3.org/2000/svg" version="1.1"><polyline points="407.0,130.5,399.0,138.5,394.0,146.0,384.5,157.0,383.5,158.0,393.0,146.5,401.0,134.0" stroke="black" stroke-width="2" fill="none" />
<polyline points="409.5,138.0,418.0,137.0" stroke="black" stroke-width="2" fill="none" />
<polyline points="419.0,134.5,426.0,142.5,435.5,150.5,439.5,158.5,445.0,162.0,450.0,169.5,454.5,177.5,458.0,186.0,462.0,194.0,466.5,202.0,470.5,210.0,473.5,217.5,465.5,225.0,450.5,233.0,436.5,241.0,419.5,249.0,413.5,252.0,397.5,260.5,383.5,268.5,367.5,276.5,352.0,284.5,337.0,293.0,321.5,301.0,305.5,309.0,289.5,317.0,272.5,325.0,254.0,332.5,237.5,340.0,223.5,348.0,202.0,356.5,189.0,364.5,186.0,376.5,186.5,384.5,186.5,392.0,186.0,400.0" stroke="black" stroke-width="2" fill="none" />
<polyline points="194.5,373.0,202.5,365.5" stroke="black" stroke-width="2" fill="none" />
<polyline points="202.5,367.0,194.0,367.5" stroke="black" stroke-width="2" fill="none" />
<polyline points="195.0,365.5,203.0,365.0" stroke="black" stroke-width="2" fill="none" />
<polyline points="213.5,364.5,221.5,357.0" stroke="black" stroke-width="2" fill="none" />
<polyline points="227.5,356.0,219.5,363.5" stroke="black" stroke-width="2" fill="none" />
<polyline points="212.5,360.0,221.0,359.0,228.5,358.0" stroke="black" stroke-width="2" fill="none" />
<polyline points="237.5,357.0,245.5,350.0" stroke="black" stroke-width="2" fill="none" />
<polyline points="251.5,347.5,260.0,340.5" stroke="black" stroke-width="2" fill="none" />
<polyline points="267.0,336.0,274.5,328.5" stroke="black" stroke-width="2" fill="none" />
<polyline points="276.5,333.5,269.0,334.0" stroke="black" stroke-width="2" fill="none" />
<polyline points="268.5,338.0,276.5,337.5" stroke="black" stroke-width="2" fill="none" />
<polyline points="283.0,332.0,291.0,324.0" stroke="black" stroke-width="2" fill="none" />
<polyline points="292.0,329.5,284.0,330.0" stroke="black" stroke-width="2" fill="none" />
<polyline points="282.5,325.0,290.5,324.5" stroke="black" stroke-width="2" fill="none" />
<polyline points="300.0,323.0,308.5,322.0" stroke="black" stroke-width="2" fill="none" />
<polyline points="301.0,321.0,309.0,313.5" stroke="black" stroke-width="2" fill="none" />
<polyline points="314.0,315.5,322.0,308.5" stroke="black" stroke-width="2" fill="none" />
<polyline points="323.5,313.0,315.0,313.5" stroke="black" stroke-width="2" fill="none" />
<polyline points="315.5,309.0,324.0,308.5" stroke="black" stroke-width="2" fill="none" />
<polyline points="329.0,305.5,337.0,305.0" stroke="black" stroke-width="2" fill="none" />
<polyline points="332.5,308.0,341.0,301.0" stroke="black" stroke-width="2" fill="none" />
<polyline points="349.0,300.0,357.5,292.5" stroke="black" stroke-width="2" fill="none" />
<polyline points="363.0,290.0,371.0,282.5,379.0,275.0" stroke="black" stroke-width="2" fill="none" />
<polyline points="380.0,280.0,388.5,272.5,396.5,265.0" stroke="black" stroke-width="2" fill="none" />
<polyline points="402.5,267.0,410.5,266.5,419.0,266.5" stroke="black" stroke-width="2" fill="none" />
<polyline points="412.0,265.5,420.0,258.0,427.5,250.5" stroke="black" stroke-width="2" fill="none" />
<polyline points="420.0,250.0,427.5,242.5,435.0,235.5,443.0,228.0,451.0,220.0,459.5,212.0,467.5,204.0" stroke="black" stroke-width="2" fill="none" />
<polyline points="467.5,195.5,459.5,203.5,451.5,211.5,443.0,219.0,434.5,226.0,427.0,233.5,419.0,241.0,412.0,248.5,404.5,256.0" stroke="black" stroke-width="2" fill="none" />
<polyline points="403.0,261.5,410.5,261.0,419.0,260.5" stroke="black" stroke-width="2" fill="none" />
<polyline points="419.5,256.5,427.5,256.5,435.5,256.0" stroke="black" stroke-width="2" fill="none" />
<polyline points="435.5,249.0,443.5,248.5,452.0,247.5" stroke="black" stroke-width="2" fill="none" />
<polyline points="451.0,242.0,459.5,241.5" stroke="black" stroke-width="2" fill="none" />
<polyline points="462.0,245.0,470.0,240.0,464.0,242.5,453.0,242.5,438.5,250.5,421.5,258.0,405.5,266.0,389.5,274.0,375.0,281.5,361.5,289.5,346.5,297.5,331.5,305.5,316.0,314.0,299.0,322.0,281.5,330.0,265.0,338.0,250.0,346.0,234.0,354.5,214.0,362.5,191.0,370.0,192.0,366.0,200.0,363.0,208.0,360.0,215.5,357.0,223.5,352.5,231.5,349.5,239.5,346.0,247.0,342.0,255.0,338.5,263.0,335.0,271.0,331.0,279.0,327.0,287.0,324.0,295.0,319.5,303.0,315.5,311.5,311.0,319.5,307.0,327.5,303.5,335.5,299.5,343.5,294.5,351.5,290.0,359.5,285.0,367.5,281.0,375.5,276.0,383.5,272.0,391.5,268.0,400.0,264.5,408.0,260.5,416.0,256.5,423.5,253.5,431.5,248.5,440.0,244.5,448.0,240.5,456.0,235.0,464.5,231.0,472.5,226.5,480.0,222.5" stroke="black" stroke-width="2" fill="none" />
<polyline points="476.5,222.0,464.0,230.0,450.0,238.0,435.0,246.5,420.0,254.0,402.0,262.0,387.0,270.0,372.5,278.5,358.5,286.5,343.5,294.5,328.5,302.5,313.5,310.0,297.5,318.5,279.5,326.5,263.0,334.5,247.0,342.0,231.0,350.0,212.0,358.5,189.5,364.0,197.5,359.0,205.5,356.0,214.0,353.0,222.0,349.5,230.0,344.0,238.5,340.0,247.0,335.5,255.0,331.5,263.0,328.5,271.5,324.5,279.5,320.5,287.5,317.5,295.5,313.0" stroke="black" stroke-width="2" fill="none" />
<polyline points="292.5,312.5,300.5,312.0,308.5,312.5" stroke="black" stroke-width="2" fill="none" />
<polyline points="309.0,317.0,301.0,317.0" stroke="black" stroke-width="2" fill="none" />
<polyline points="323.0,296.0,331.0,288.0,339.0,280.0,346.5,273.0,355.0,265.0,363.5,257.0,371.5,249.5,380.0,242.5,388.0,235.0" stroke="black" stroke-width="2" fill="none" />
<polyline points="381.0,240.0,389.5,240.0,396.5,240.0,404.0,239.5,411.5,239.0,419.5,238.5,427.0,238.5,435.0,238.5,443.0,238.5" stroke="black" stroke-width="2" fill="none" />
<polyline points="444.0,243.5,436.0,251.0,427.5,258.0" stroke="black" stroke-width="2" fill="none" />
<polyline points="420.0,255.0,428.0,254.5,436.0,253.5" stroke="black" stroke-width="2" fill="none" />
<polyline points="442.5,250.0,450.5,242.5,458.0,235.0" stroke="black" stroke-width="2" fill="none" />
<polyline points="451.5,235.5,459.5,228.5,467.0,221.5,475.0,214.0" stroke="black" stroke-width="2" fill="none" />
<polyline points="475.0,220.0,468.0,228.0" stroke="black" stroke-width="2" fill="none" />
<polyline points="466.5,230.5,474.5,229.5,482.5,229.0,490.0,228.5,498.0,227.5,506.0,227.5,514.0,226.5" stroke="black" stroke-width="2" fill="none" />
<polyline points="514.5,242.5,506.0,250.0,498.0,257.0" stroke="black" stroke-width="2" fill="none" />
<polyline points="499.0,253.0,507.0,253.0,514.5,252.0" stroke="black" stroke-width="2" fill="none" />
<polyline points="514.5,249.0,506.5,257.0,498.0,264.5,490.0,272.0,482.5,279.5,475.0,287.0,467.5,294.5,459.5,301.5,451.5,309.5,443.5,317.5,435.5,325.0,427.5,332.5,420.0,340.0,412.5,347.5,404.0,356.0,395.0,364.0,387.0,372.0,379.0,380.0,370.5,387.5,362.0,394.5" stroke="black" stroke-width="2" fill="none" />
<polyline points="357.0,388.5,348.5,396.0" stroke="black" stroke-width="2" fill="none" />
<polyline points="353.0,403.0,361.0,395.5,369.0,387.5" stroke="black" stroke-width="2" fill="none" />
<polyline points="379.5,375.0,387.5,367.5,395.5,360.0,403.5,352.5,411.0,345.0,419.5,337.0,428.0,329.0,436.0,321.0,444.5,313.0,452.5,305.5,460.0,298.0,468.0,291.0,475.5,284.0" stroke="black" stroke-width="2" fill="none" />
<polyline points="476.0,276.5,483.5,275.5,491.5,274.5,499.5,274.0,507.5,273.5,516.0,273.0" stroke="black" stroke-width="2" fill="none" />
<polyline points="515.5,273.0,507.5,281.0,499.5,289.0,491.0,296.5,483.0,304.5,475.0,312.0,467.5,319.0,460.0,326.5,452.5,334.0,445.0,342.0,437.0,349.5,429.0,356.5,421.0,364.0" stroke="black" stroke-width="2" fill="none" />
<polyline points="419.0,362.5,427.0,362.0" stroke="black" stroke-width="2" fill="none" />
<polyline points="428.5,367.5,436.5,367.5,444.0,367.0" stroke="black" stroke-width="2" fill="none" />
<polyline points="442.5,361.5,450.5,361.0,458.5,361.0" stroke="black" stroke-width="2" fill="none" />
<polyline points="458.5,354.0,466.0,353.0,474.0,352.5,482.0,352.0,491.0,351.0,499.5,351.0,508.0,350.0,515.5,350.0" stroke="black" stroke-width="2" fill="none" />
<polyline points="513.0,346.5,505.5,354.5,498.0,362.5,491.0,370.5,483.5,378.0,476.5,386.0,469.0,394.0,461.0,402.0,453.0,409.5,445.5,417.0,438.0,424.5,429.5,431.5" stroke="black" stroke-width="2" fill="none" />
<polyline points="428.0,440.5,436.0,440.0" stroke="black" stroke-width="2" fill="none" />
<polyline points="444.0,456.0,451.5,448.5,459.5,441.0,467.0,433.5,475.0,426.0,483.5,418.5,492.0,411.0,500.5,403.5,509.0,396.0,517.5,388.5" stroke="black" stroke-width="2" fill="none" />
<polyline points="515.5,394.0,507.5,401.5,499.0,410.0,491.0,418.0,482.5,426.0,473.5,434.0,466.0,442.0,457.5,449.5,449.0,456.5,441.0,463.0,433.5,470.5" stroke="black" stroke-width="2" fill="none" />
<polyline points="437.0,485.0,445.0,478.0,452.5,470.5,460.5,463.0,467.5,455.5,475.5,448.5,484.0,441.5,492.0,434.5,500.0,427.5,507.5,420.5,516.0,413.5" stroke="black" stroke-width="2" fill="none" />
<polyline points="517.0,421.0,509.5,428.0,501.0,435.5,492.5,443.0,483.5,450.0,475.0,457.0,467.0,464.5,459.5,472.0,451.5,479.5,443.0,486.5" stroke="black" stroke-width="2" fill="none" />
<polyline points="460.5,494.5,469.0,486.5,477.0,479.5,484.5,472.5,492.5,465.5,501.0,458.0,509.5,450.5,517.5,442.5" stroke="black" stroke-width="2" fill="none" />
<polyline points="516.5,436.5,508.5,444.0,501.0,451.5,493.0,459.0,485.0,466.0,477.0,473.0,469.0,481.0,460.5,488.0" stroke="black" stroke-width="2" fill="none" />
<polyline points="484.0,498.5,491.5,491.5,499.5,484.0,507.5,476.5,515.5,469.0" stroke="black" stroke-width="2" fill="none" />
<polyline points="514.5,476.5,507.0,484.0,498.5,491.5,490.5,499.0" stroke="black" stroke-width="2" fill="none" />
<polyline points="491.5,488.0,499.5,488.0" stroke="black" stroke-width="2" fill="none" />
<polyline points="498.5,480.5,506.5,480.0,514.0,479.5" stroke="black" stroke-width="2" fill="none" />
<polyline points="515.5,484.0,507.0,491.5" stroke="black" stroke-width="2" fill="none" />
<polyline points="515.0,493.5,507.0,501.0" stroke="black" stroke-width="2" fill="none" />
<polyline points="508.5,508.0,516.5,500.5" stroke="black" stroke-width="2" fill="none" />
<polyline points="507.0,473.5,499.0,474.0" stroke="black" stroke-width="2" fill="none" />
<polyline points="507.5,456.5,515.5,456.0" stroke="black" stroke-width="2" fill="none" />
<polyline points="517.0,451.5,509.5,459.5,501.5,466.5,493.0,474.0,485.0,481.0,476.5,488.0,468.5,495.0" stroke="black" stroke-width="2" fill="none" />
<polyline points="477.0,497.0,485.5,490.0,493.5,483.0,501.5,476.0,510.0,469.0,518.0,461.5" stroke="black" stroke-width="2" fill="none" />
<polyline points="499.5,454.5,491.5,454.5" stroke="black" stroke-width="2" fill="none" />
<polyline points="483.0,440.0,491.0,439.5,499.5,439.0,508.0,439.0,516.0,438.5" stroke="black" stroke-width="2" fill="none" />
<polyline points="517.0,432.0,509.0,432.5" stroke="black" stroke-width="2" fill="none" />
<polyline points="516.0,428.5,508.5,436.0,500.5,444.0,491.5,451.5,483.0,459.0,475.0,466.5,466.0,473.5,457.5,481.0,449.5,488.0,442.0,495.0" stroke="black" stroke-width="2" fill="none" />
<polyline points="426.5,485.0,434.5,477.0,442.5,469.5,451.0,462.5,459.5,455.5,467.5,448.0,475.5,441.0,483.5,433.5,491.5,425.5,499.5,418.0,507.0,411.0,515.0,403.5" stroke="black" stroke-width="2" fill="none" />
<polyline points="517.5,380.0,509.5,387.5,501.0,395.0,492.5,402.5,484.0,410.5,476.0,418.0,468.0,425.0,460.5,432.5,453.0,439.5,444.5,447.5,436.0,455.0,428.5,462.5" stroke="black" stroke-width="2" fill="none" />
<polyline points="413.0,459.0,421.0,451.5,429.0,444.5,436.5,437.0,444.5,429.5,452.5,422.5,460.0,415.5,467.5,408.5,475.5,402.0,483.5,394.5,491.5,387.0,499.5,379.5,508.5,372.5,516.5,365.0" stroke="black" stroke-width="2" fill="none" />
<polyline points="516.0,372.0,508.0,380.0,500.5,388.0,492.5,395.5,485.0,403.5,477.0,410.5,469.0,417.5,460.5,424.5,452.0,431.5,443.5,438.5,435.5,446.0,427.5,453.5,419.5,461.0,412.0,468.0,404.5,475.0,396.5,482.5" stroke="black" stroke-width="2" fill="none" />
<polyline points="397.0,483.5,405.0,476.0" stroke="black" stroke-width="2" fill="none" />
<polyline points="419.0,484.5,411.0,491.5" stroke="black" stroke-width="2" fill="none" />
<polyline points="410.5,498.5,419.0,491.0" stroke="black" stroke-width="2" fill="none" />
<polyline points="388.0,467.0,396.0,459.0" stroke="black" stroke-width="2" fill="none" />
<polyline points="403.5,444.5,411.5,437.0,420.0,430.0,428.5,422.5,436.5,416.0,444.5,408.0,452.0,401.0,460.0,393.5,468.0,386.0,475.5,378.0,483.0,371.0,491.0,363.5,499.0,355.5,507.0,347.5,515.5,340.0" stroke="black" stroke-width="2" fill="none" />
<polyline points="515.5,333.5,507.5,340.5,499.5,348.0,492.0,355.0,484.5,362.5,476.5,370.5,468.5,377.5,460.0,384.5,452.0,391.5,444.5,398.5,436.0,406.0,428.0,413.0,420.0,420.5,412.0,427.5" stroke="black" stroke-width="2" fill="none" />
<polyline points="411.0,413.5,418.0,405.5,426.0,397.5,434.0,390.0,442.0,382.5,450.0,375.5,458.5,368.0,467.5,360.5,476.0,352.5,485.0,345.0,493.5,338.0,501.5,331.0,509.5,323.5,517.5,316.5" stroke="black" stroke-width="2" fill="none" />
<polyline points="517.0,323.5,509.0,331.0,501.0,339.0,492.5,346.5,484.0,354.0,475.5,361.0,467.5,368.5,459.5,376.0,451.0,383.5,443.0,390.5,435.0,398.0,427.0,405.5,419.0,413.0,411.5,420.5,403.5,429.0,395.5,437.0" stroke="black" stroke-width="2" fill="none" />
<polyline points="394.0,437.0,386.5,444.5,379.0,451.5" stroke="black" stroke-width="2" fill="none" />
<polyline points="380.0,441.0,388.0,433.0" stroke="black" stroke-width="2" fill="none" />
<polyline points="379.0,435.0,386.5,427.5,395.0,420.0" stroke="black" stroke-width="2" fill="none" />
<polyline points="404.0,413.5,412.5,405.5,420.5,398.5,428.5,391.0,436.5,383.5,444.5,376.0,452.0,369.0,460.0,361.0,467.5,353.5,475.5,346.0,483.5,338.0,491.5,330.0,500.0,322.5,508.0,315.0,516.5,307.0" stroke="black" stroke-width="2" fill="none" />
<polyline points="514.0,299.5,506.5,307.0,498.5,315.0,491.0,322.5,483.0,330.0,475.5,337.5,468.0,345.5,460.5,353.0,452.5,361.0,444.5,368.5,437.0,376.0,428.5,383.5,420.0,390.5,411.5,397.5,403.5,405.0" stroke="black" stroke-width="2" fill="none" />
<polyline points="397.0,396.0,405.0,388.5,413.0,380.5,421.0,372.5,429.0,364.5,436.5,357.0,445.0,349.5,453.0,342.0,460.5,334.5,468.0,327.5,476.0,320.5,484.0,313.0,492.0,305.0,499.5,297.5,507.5,290.0,516.0,282.5" stroke="black" stroke-width="2" fill="none" />
<polyline points="514.0,290.5,506.5,298.0,499.0,305.5,492.0,313.0,484.5,321.0,477.0,329.0,469.5,336.0,461.5,344.0,453.5,351.5,445.0,359.0,436.5,366.0,428.5,374.0,421.0,381.5,412.5,389.5,404.0,397.0,395.5,404.5,387.0,412.5,378.0,419.5,369.0,427.0,360.5,435.0" stroke="black" stroke-width="2" fill="none" />
<polyline points="363.5,425.5,371.5,418.0,379.5,410.5,387.5,402.5,395.5,394.5,404.0,386.5,412.5,379.0" stroke="black" stroke-width="2" fill="none" />
<polyline points="404.5,364.5,412.5,356.5,420.5,348.5,428.5,341.5,436.0,334.0,444.0,326.5,452.0,319.0,460.0,311.5,468.5,304.5,476.5,297.0,484.0,289.0,491.0,281.0,498.5,273.5,506.5,266.5,514.0,259.0" stroke="black" stroke-width="2" fill="none" />
<polyline points="514.5,266.0,506.5,273.5,499.0,281.5,491.5,289.0,483.5,296.0,475.5,303.5,468.0,311.5,460.0,319.5,452.5,327.5,444.0,335.0,436.0,342.5,428.5,350.0,420.0,357.0,411.5,364.0,403.0,371.0,395.0,378.5,386.5,386.5" stroke="black" stroke-width="2" fill="none" />
<polyline points="379.0,392.5,387.5,385.5,395.5,378.0" stroke="black" stroke-width="2" fill="none" />
<polyline points="380.0,370.0,372.0,378.0" stroke="black" stroke-width="2" fill="none" />
<polyline points="361.0,373.5,369.0,366.0,377.5,358.5,385.5,351.5,394.0,344.0,402.5,337.0,410.0,329.0,418.0,321.5,426.0,313.5,434.5,306.0,442.0,298.5" stroke="black" stroke-width="2" fill="none" />
<polyline points="435.5,301.5,443.5,301.0,451.5,300.5,460.0,300.5,469.0,300.5,477.5,300.5,485.5,300.5,493.5,300.0,501.0,299.5,508.5,299.5,516.5,298.5" stroke="black" stroke-width="2" fill="none" />
<polyline points="515.0,271.5,506.5,272.5,498.5,273.0,490.5,273.5" stroke="black" stroke-width="2" fill="none" />
<polyline points="491.5,268.0,483.0,275.5" stroke="black" stroke-width="2" fill="none" />
<polyline points="485.0,279.5,492.5,279.0,500.0,278.5,507.5,278.0,515.5,277.0" stroke="black" stroke-width="2" fill="none" />
<polyline points="507.5,265.5,499.5,266.0" stroke="black" stroke-width="2" fill="none" />
<polyline points="499.0,262.0,507.5,261.5,515.5,261.0" stroke="black" stroke-width="2" fill="none" />
<polyline points="500.5,250.0,508.0,243.0" stroke="black" stroke-width="2" fill="none" />
<polyline points="515.5,243.5,507.0,244.0,499.0,244.0,490.5,244.5" stroke="black" stroke-width="2" fill="none" />
<polyline points="492.5,239.5,484.5,240.5" stroke="black" stroke-width="2" fill="none" />
<polyline points="485.0,237.5,493.0,237.5,501.0,237.0,509.0,236.0,516.5,235.0" stroke="black" stroke-width="2" fill="none" />
<polyline points="491.0,237.0,482.5,244.5" stroke="black" stroke-width="2" fill="none" />
<polyline points="483.5,237.0,491.5,253.5" stroke="black" stroke-width="2" fill="none" />
<polyline points="484.5,267.0,492.5,267.0,500.5,266.5,508.0,266.5,515.5,266.0" stroke="black" stroke-width="2" fill="none" />
<polyline points="515.5,287.0,508.0,288.0,500.5,288.5,492.5,289.0,485.0,289.5" stroke="black" stroke-width="2" fill="none" />
<polyline points="473.5,288.5,465.5,288.5" stroke="black" stroke-width="2" fill="none" />
<polyline points="466.5,284.5,474.5,284.5,482.0,284.5,489.5,284.5,497.5,284.0,505.5,283.5,514.0,283.5" stroke="black" stroke-width="2" fill="none" />
<polyline points="513.5,310.5,505.5,311.0,498.0,311.5,490.0,312.5,482.5,313.0" stroke="black" stroke-width="2" fill="none" />
<polyline points="467.0,298.5,475.0,298.0,483.0,297.5,491.5,297.0,500.0,296.5,508.5,295.5,516.5,295.5" stroke="black" stroke-width="2" fill="none" />
<polyline points="459.0,292.0,451.5,299.5,443.5,307.0,436.0,314.5,427.5,322.0,419.5,329.5,411.5,337.0,404.0,345.0,396.0,353.0" stroke="black" stroke-width="2" fill="none" />
<polyline points="403.0,353.5,411.0,353.0" stroke="black" stroke-width="2" fill="none" />
<polyline points="427.0,352.0,435.0,351.5,442.5,351.0,450.5,351.0" stroke="black" stroke-width="2" fill="none" />
<polyline points="441.5,345.5,449.5,345.5,457.5,345.0,465.5,344.5,473.5,344.0,481.5,343.5,489.5,343.0,498.0,342.0,506.5,341.5,514.5,341.5" stroke="black" stroke-width="2" fill="none" />
<polyline points="514.5,356.0,507.0,364.0,499.0,371.5,491.5,378.5,484.5,385.5,477.0,393.5,468.5,400.5,460.5,408.0,452.5,416.0,445.0,423.5,437.5,431.0,429.0,438.0,420.5,445.5" stroke="black" stroke-width="2" fill="none" />
<polyline points="418.5,444.0,411.0,451.5" stroke="black" stroke-width="2" fill="none" />
<polyline points="444.0,456.5,451.5,456.0" stroke="black" stroke-width="2" fill="none" />
<polyline points="452.0,450.0,460.0,449.5,468.5,449.5,476.0,449.0,484.0,448.5,492.0,448.0,500.5,447.5,509.0,447.0,517.5,446.5" stroke="black" stroke-width="2" fill="none" />
<polyline points="515.5,416.0,507.5,416.5,499.5,417.0,492.0,417.0" stroke="black" stroke-width="2" fill="none" />
<polyline points="484.0,409.0,491.5,408.5,499.5,407.5,508.0,407.5,516.5,407.5" stroke="black" stroke-width="2" fill="none" />
<polyline points="515.0,423.0,507.0,424.0,499.5,424.5,492.0,425.0,484.0,426.0" stroke="black" stroke-width="2" fill="none" />
<polyline points="484.0,403.0,491.5,402.0,499.5,401.5,507.5,400.5,515.5,399.5" stroke="black" stroke-width="2" fill="none" />
<polyline points="475.5,401.0,467.5,402.0" stroke="black" stroke-width="2" fill="none" />
<polyline points="459.0,394.0,467.0,393.5,474.5,392.5,482.5,391.5,491.0,390.5,499.0,390.0,507.0,390.0,515.0,390.0" stroke="black" stroke-width="2" fill="none" />
<polyline points="515.5,358.5,507.0,359.5,499.0,360.5,491.5,361.0,484.0,361.0,475.5,361.5,467.5,361.5" stroke="black" stroke-width="2" fill="none" />
<polyline points="457.0,371.5,465.0,370.5,474.0,369.5,482.0,368.5,490.5,367.5,498.5,367.0,506.5,366.0,513.5,366.0" stroke="black" stroke-width="2" fill="none" />
<polyline points="515.5,372.0,507.5,372.5,499.5,372.5,491.5,373.5,483.5,373.5,475.0,374.5,467.0,375.0,459.5,375.5,451.0,376.0" stroke="black" stroke-width="2" fill="none" />
<polyline points="443.0,377.0,435.0,377.5" stroke="black" stroke-width="2" fill="none" />
<polyline points="436.0,384.0,444.0,383.0,452.0,383.0,460.5,383.0,468.5,382.5,477.0,382.0,484.5,381.5,492.0,381.0,499.5,380.0,507.5,379.5,515.5,378.5" stroke="black" stroke-width="2" fill="none" />
<polyline points="483.5,432.0,475.5,432.0,467.5,432.5,459.5,432.5" stroke="black" stroke-width="2" fill="none" />
<polyline points="458.5,424.5,467.0,424.0" stroke="black" stroke-width="2" fill="none" />
<polyline points="468.0,416.5,460.5,417.0,452.5,417.5" stroke="black" stroke-width="2" fill="none" />
<polyline points="444.5,409.5,452.0,409.5,459.5,408.5,467.5,408.0" stroke="black" stroke-width="2" fill="none" />
<polyline points="452.0,402.5,444.0,402.5" stroke="black" stroke-width="2" fill="none" />
<polyline points="444.0,396.0,451.5,395.5" stroke="black" stroke-width="2" fill="none" />
<polyline points="435.5,399.5,427.5,399.5" stroke="black" stroke-width="2" fill="none" />
<polyline points="378.0,419.5,370.5,427.0" stroke="black" stroke-width="2" fill="none" />
<polyline points="369.5,445.0,362.0,452.0,355.0,459.5" stroke="black" stroke-width="2" fill="none" />
<polyline points="356.0,474.5,348.0,482.5" stroke="black" stroke-width="2" fill="none" />
<polyline points="330.5,450.0,338.5,442.5" stroke="black" stroke-width="2" fill="none" />
<polyline points="338.5,436.0,331.0,443.0" stroke="black" stroke-width="2" fill="none" />
<polyline points="306.5,444.0,298.5,451.0" stroke="black" stroke-width="2" fill="none" />
<polyline points="292.0,444.0,300.0,437.0" stroke="black" stroke-width="2" fill="none" />
<polyline points="298.5,425.0,306.0,417.5" stroke="black" stroke-width="2" fill="none" />
<polyline points="316.0,403.5,323.5,395.5" stroke="black" stroke-width="2" fill="none" />
<polyline points="315.0,390.5,323.0,390.0,330.5,389.5,338.0,388.5,346.0,387.0,354.0,386.0,362.5,385.0,370.5,384.5,378.5,384.0,386.0,383.5,394.0,383.5,401.5,383.0,409.5,382.5,417.0,382.0,425.5,381.0,434.0,381.0,442.5,381.0,451.0,381.0,459.0,380.5,467.5,379.5,475.5,378.5,483.5,378.5,491.5,378.0,500.0,377.5,509.0,377.0,517.0,376.5" stroke="black" stroke-width="2" fill="none" />
<polyline points="515.5,334.0,508.0,334.5,499.5,335.0,491.5,335.5,484.0,335.5,475.5,336.5,467.0,337.5,458.5,338.0,450.5,338.0,442.5,338.5" stroke="black" stroke-width="2" fill="none" />
<polyline points="444.0,332.0,451.5,332.0,459.0,331.0,467.0,330.0,476.0,328.5,484.0,327.5,492.5,326.5,500.5,326.0,508.5,325.5,516.0,324.5" stroke="black" stroke-width="2" fill="none" />
<polyline points="460.0,296.5,452.0,297.0" stroke="black" stroke-width="2" fill="none" />
<polyline points="452.5,295.5,460.0,295.0,467.5,294.5,475.0,293.5,483.5,292.5,491.5,292.0,500.0,291.5,508.0,291.0,516.5,290.5" stroke="black" stroke-width="2" fill="none" />
<polyline points="484.0,253.0,476.0,253.5" stroke="black" stroke-width="2" fill="none" />
<polyline points="484.0,248.5,476.0,239.5" stroke="black" stroke-width="2" fill="none" />
<polyline points="469.5,235.0,478.0,227.5" stroke="black" stroke-width="2" fill="none" />
<polyline points="473.5,233.0,466.0,234.0" stroke="black" stroke-width="2" fill="none" />
<polyline points="465.5,236.0,473.5,234.0,479.5,223.0,469.0,231.5,475.0,236.5,478.0,245.0,486.0,253.0,488.0,261.0,483.0,270.0,476.5,278.0,464.5,286.0,450.5,294.0,435.5,301.5,420.5,309.5,405.5,317.5,390.5,325.0,375.5,333.0,360.0,341.0,346.0,349.0,330.5,356.5,315.5,364.5,299.0,372.5,284.0,380.5,266.5,389.0,249.5,397.5,231.0,406.0,214.0,414.0,193.0,422.0,172.5,430.0,152.5,438.0,129.5,446.0" stroke="black" stroke-width="2" fill="none" />
<polyline points="103.5,456.5,111.5,454.0,119.5,451.0,127.5,449.0,135.5,446.5,143.5,444.0,151.5,442.0,159.5,439.0,167.5,436.0,175.5,432.0,183.5,429.0,191.5,426.0,199.0,423.0,207.0,419.5,215.0,415.5,222.5,412.0,230.5,408.0,238.5,404.5,246.5,400.5,255.0,397.5,263.0,394.0,271.0,390.0,279.0,386.0,287.0,382.0,294.5,377.5,302.0,374.0,310.0,369.5,311.5,368.5,296.5,376.5" stroke="black" stroke-width="2" fill="none" />
<polyline points="282.5,384.0,266.5,392.0,249.5,400.0,231.5,408.0,212.0,416.0,193.0,424.0,172.0,432.0,152.0,440.5" stroke="black" stroke-width="2" fill="none" />
<polyline points="169.0,435.0,177.0,428.0" stroke="black" stroke-width="2" fill="none" />
<polyline points="180.0,431.0,172.0,432.0" stroke="black" stroke-width="2" fill="none" />
<polyline points="172.5,435.5,180.0,434.5" stroke="black" stroke-width="2" fill="none" />
<polyline points="212.5,419.5,220.0,411.0" stroke="black" stroke-width="2" fill="none" />
<polyline points="221.0,414.5,213.0,415.0" stroke="black" stroke-width="2" fill="none" />
<polyline points="212.5,413.0,221.0,412.5" stroke="black" stroke-width="2" fill="none" />
<polyline points="242.5,436.5,250.5,436.0,259.0,435.0,267.0,434.5,275.0,434.0,282.5,434.5,290.5,434.0,299.0,434.0,307.0,434.0,315.0,433.5,323.0,433.5,331.0,433.0,338.5,432.5,346.0,431.5,354.0,430.0,362.0,429.0,370.5,428.0,378.5,427.5,386.5,427.0,394.0,426.5,402.0,426.5,409.5,426.0,417.5,425.5,425.0,425.0,433.5,424.0,442.0,424.0,450.5,424.0,459.0,424.0,467.0,423.5,475.5,422.5,483.5,421.5,491.5,421.5,499.5,421.0,508.0,420.5,517.0,420.0" stroke="black" stroke-width="2" fill="none" />
<polyline points="482.0,455.5,474.0,456.5,465.0,457.0" stroke="black" stroke-width="2" fill="none" />
<polyline points="477.5,524.0,469.5,525.0,462.0,526.0" stroke="black" stroke-width="2" fill="none" />
<polyline points="445.0,532.5,436.5,533.5" stroke="black" stroke-width="2" fill="none" />
<polyline points="387.5,549.5,379.5,550.0" stroke="black" stroke-width="2" fill="none" />
<polyline points="377.5,556.0,370.0,556.5" stroke="black" stroke-width="2" fill="none" />
<polyline points="364.0,549.5,355.5,550.5" stroke="black" stroke-width="2" fill="none" />
<polyline points="364.0,540.0,355.5,540.5,347.0,541.0,339.0,541.5" stroke="black" stroke-width="2" fill="none" />
<polyline points="332.0,535.0,339.5,534.5,347.5,534.5,355.5,534.0,363.0,533.0,370.5,532.0,378.5,531.0,386.0,529.0,394.0,527.5,402.0,526.5,409.5,526.0,418.0,525.5,426.0,525.0" stroke="black" stroke-width="2" fill="none" />
<polyline points="411.5,539.5,403.5,539.5,396.0,540.0,388.0,540.5,380.5,540.5,372.5,541.0" stroke="black" stroke-width="2" fill="none" />
<polyline points="330.5,539.0,322.0,539.5" stroke="black" stroke-width="2" fill="none" />
<polyline points="323.0,534.0,314.5,534.5" stroke="black" stroke-width="2" fill="none" />
<polyline points="314.5,558.5,323.0,558.0,331.0,557.0" stroke="black" stroke-width="2" fill="none" />
<polyline points="292.5,564.5,284.0,564.5" stroke="black" stroke-width="2" fill="none" />
<polyline points="258.5,566.5,250.5,567.0" stroke="black" stroke-width="2" fill="none" />
<polyline points="195.5,582.0,187.5,582.5" stroke="black" stroke-width="2" fill="none" />
<polyline points="149.0,574.0,157.0,574.0,164.5,573.0,172.0,572.0,179.5,571.0,187.5,570.5,194.5,569.5,202.0,568.5,209.5,567.5,217.5,567.0,225.5,566.0,233.5,565.5" stroke="black" stroke-width="2" fill="none" />
<polyline points="212.0,513.5,220.0,506.0" stroke="black" stroke-width="2" fill="none" />
<polyline points="236.5,501.0,245.0,494.0" stroke="black" stroke-width="2" fill="none" />
<polyline points="266.0,489.5,274.0,481.5" stroke="black" stroke-width="2" fill="none" />
<polyline points="269.5,485.0,261.5,492.5" stroke="black" stroke-width="2" fill="none" />
<polyline points="266.5,473.0,274.0,465.0" stroke="black" stroke-width="2" fill="none" />
<polyline points="267.0,453.5,259.0,461.0" stroke="black" stroke-width="2" fill="none" />
<polyline points="252.5,470.0,244.5,477.0" stroke="black" stroke-width="2" fill="none" />
<polyline points="212.5,476.0,204.5,483.5,196.5,491.0,189.0,498.5" stroke="black" stroke-width="2" fill="none" />
<polyline points="196.0,507.5,188.0,514.5" stroke="black" stroke-width="2" fill="none" />
<polyline points="178.0,516.0,170.0,523.5" stroke="black" stroke-width="2" fill="none" />
<polyline points="164.0,523.5,172.0,516.0" stroke="black" stroke-width="2" fill="none" />
<polyline points="172.0,507.5,164.5,515.0,157.5,522.5" stroke="black" stroke-width="2" fill="none" />
<polyline points="148.5,531.5,140.0,538.5" stroke="black" stroke-width="2" fill="none" />
<polyline points="132.5,538.0,140.5,530.5" stroke="black" stroke-width="2" fill="none" />
<polyline points="140.0,522.5,148.5,514.5,157.0,507.0,165.5,499.5" stroke="black" stroke-width="2" fill="none" />
<polyline points="164.5,506.0,173.0,498.0" stroke="black" stroke-width="2" fill="none" />
<polyline points="173.0,486.5,181.0,486.5,188.5,486.0,196.5,485.5,204.5,485.0,212.0,484.0,219.5,483.0,226.5,482.0,234.0,481.5,242.0,481.5,250.0,481.0,258.0,480.5,266.5,480.0,275.0,479.0,283.0,478.5,291.0,477.5,298.5,477.0,306.0,476.5,314.0,476.0,322.0,476.0,329.5,475.0,338.0,474.5,346.0,473.5,354.5,472.5,362.5,471.5,371.0,471.0,380.0,471.0,388.5,471.0,397.0,470.0,405.0,469.5,413.0,468.5,421.0,468.5,428.5,468.0,436.0,467.5,444.0,467.5,452.0,467.0,459.0,467.0,466.5,467.0,474.0,467.0,481.5,467.5,490.0,467.0,498.0,466.5,506.0,466.0,514.0,465.5" stroke="black" stroke-width="2" fill="none" />
<polyline points="518.0,317.0,509.5,317.5,501.5,318.5,493.5,319.0,485.0,319.5,476.5,320.0,468.5,320.0,460.0,320.5,451.5,321.0,443.5,322.0,435.5,322.5" stroke="black" stroke-width="2" fill="none" />
<polyline points="426.5,313.0,434.5,312.0,442.5,312.0,450.5,311.5,458.0,311.5,466.5,311.0,474.5,310.5" stroke="black" stroke-width="2" fill="none" />
<polyline points="444.0,306.0,452.0,305.5,460.0,305.0,468.5,305.0,476.5,305.0,485.0,304.0,493.0,303.5,500.0,303.0,507.5,302.5,515.0,302.0" stroke="black" stroke-width="2" fill="none" />
<polyline points="516.0,303.5,508.5,304.0,500.5,304.5,492.5,305.0,484.0,305.5,476.0,305.5,467.5,306.0,459.5,306.5,451.0,307.0,443.0,308.0,434.5,308.5,427.0,309.5,419.0,310.5" stroke="black" stroke-width="2" fill="none" />
<polyline points="427.0,305.5,418.5,313.0,410.5,321.0" stroke="black" stroke-width="2" fill="none" />
<polyline points="405.0,323.0,397.0,330.5,388.5,338.0,379.5,345.0,371.0,352.0" stroke="black" stroke-width="2" fill="none" />
<polyline points="364.0,353.5,373.0,346.0,381.0,338.5,389.0,331.0" stroke="black" stroke-width="2" fill="none" />
<polyline points="385.5,323.0,394.0,322.5,402.0,322.0,410.5,322.0,418.5,322.0,427.0,322.0,435.0,321.5,443.5,320.5,451.5,320.0,459.5,320.0,467.5,320.0,475.5,319.5,484.0,318.5,492.5,318.0,500.0,317.5,508.0,317.5,517.0,317.0" stroke="black" stroke-width="2" fill="none" />
<polyline points="434.5,336.5,426.5,337.0" stroke="black" stroke-width="2" fill="none" />
<polyline points="405.0,330.5,397.0,338.0" stroke="black" stroke-width="2" fill="none" />
<polyline points="388.5,347.5,381.0,354.5,373.0,362.5,364.5,370.0" stroke="black" stroke-width="2" fill="none" />
<polyline points="357.5,372.0,349.0,379.5,341.0,387.5" stroke="black" stroke-width="2" fill="none" />
<polyline points="340.5,404.5,332.5,412.0" stroke="black" stroke-width="2" fill="none" />
<polyline points="354.5,419.0,362.5,411.5,371.0,404.5" stroke="black" stroke-width="2" fill="none" />
<polyline points="349.5,372.5,358.0,365.0" stroke="black" stroke-width="2" fill="none" />
<polyline points="362.5,347.5,370.5,340.5" stroke="black" stroke-width="2" fill="none" />
<polyline points="361.5,343.0,369.5,342.5,377.5,341.0,385.5,340.0,394.0,339.5,401.5,338.5,410.0,338.0,418.0,337.0,426.0,337.0,434.0,337.0,442.0,337.0,450.0,336.5,458.0,335.5,466.0,334.5,473.5,334.5,481.5,334.0,489.5,333.0,498.0,332.0,506.0,331.0,514.0,330.5" stroke="black" stroke-width="2" fill="none" />
<polyline points="514.5,311.5,506.5,311.5,498.5,312.0,490.5,312.0,482.5,312.5,474.5,313.5,466.5,314.5,458.5,314.5,450.5,315.0,442.5,315.5,434.5,316.0,426.0,316.0,418.0,316.5,410.5,317.0,403.0,317.0" stroke="black" stroke-width="2" fill="none" />
<polyline points="380.0,334.5,388.0,334.0,396.0,333.0,404.0,332.5,412.0,331.5,420.0,331.0,427.5,330.5,435.5,330.0,443.0,329.0,450.5,328.5,458.5,328.0,466.5,327.0,474.5,327.0,482.5,326.5,490.0,326.5,498.5,326.0,506.5,325.5,515.0,325.0" stroke="black" stroke-width="2" fill="none" />
<polyline points="518.0,340.0,510.5,340.5,502.0,341.0,493.0,341.0,484.5,341.5,476.0,342.0,468.0,342.5,459.5,343.0,451.0,344.5,443.0,345.0,435.0,345.5,426.5,345.5,418.5,346.0,410.5,346.5,403.0,347.0,395.5,347.0,388.0,347.5,380.0,347.0,372.5,347.0,364.5,347.0,356.5,347.5,348.0,348.0" stroke="black" stroke-width="2" fill="none" />
<polyline points="332.0,358.0,339.5,357.0,347.0,356.5,355.0,355.5,363.5,354.5,371.5,353.5,380.0,353.5,388.0,353.0,396.0,353.0,404.0,352.5,412.0,351.5,419.5,351.0,428.0,351.0,436.0,350.0,444.5,349.0,452.5,348.5,460.5,348.0,468.5,347.5,476.5,347.0,484.5,346.0,492.5,345.5,500.5,345.0,509.0,344.5,517.0,344.5" stroke="black" stroke-width="2" fill="none" />
<polyline points="514.0,360.0,506.5,361.0,498.5,361.0,491.0,361.5,483.0,362.0,475.0,362.5,466.5,363.0,459.0,363.5,451.5,364.5,444.0,365.0,436.0,366.5,427.5,367.0,419.5,368.0,411.0,368.5,403.0,369.0,395.0,370.0,387.5,370.5,379.5,370.5,371.0,371.0,362.5,371.0,354.5,371.5,346.5,371.5,338.0,372.0,330.5,373.0,322.5,373.5" stroke="black" stroke-width="2" fill="none" />
<polyline points="325.0,366.0,333.0,365.5,341.0,365.0,348.5,364.0,356.5,363.5,364.5,363.0,372.5,362.5,380.0,362.0,387.5,362.0,395.5,361.5,403.5,361.0,411.5,360.5,419.5,360.0,428.0,359.5,436.5,359.0,444.0,358.5,451.5,357.5,459.5,357.0,467.0,356.0,474.5,355.5,482.5,355.0,490.5,354.5,498.0,354.0,506.0,353.5,513.5,352.5" stroke="black" stroke-width="2" fill="none" />
<polyline points="394.0,352.5,385.5,353.0" stroke="black" stroke-width="2" fill="none" />
<polyline points="371.0,288.5,362.5,289.0" stroke="black" stroke-width="2" fill="none" />
<polyline points="363.0,286.0,370.5,285.5" stroke="black" stroke-width="2" fill="none" />
<polyline points="373.5,283.0,381.5,282.5,390.0,282.0" stroke="black" stroke-width="2" fill="none" />
<polyline points="396.5,275.0,404.0,267.5,412.0,260.0" stroke="black" stroke-width="2" fill="none" />
<polyline points="387.5,261.5,395.5,254.5,403.5,247.0,411.0,239.0,419.0,232.0,426.5,224.5,435.0,217.0,443.0,209.5,451.0,202.0,459.5,194.5" stroke="black" stroke-width="2" fill="none" />
<polyline points="458.0,186.5,449.5,193.5,441.5,201.5,434.0,209.5,427.0,218.0,419.0,226.0,411.5,233.5,404.0,240.5,396.5,248.0,389.5,255.5,381.5,263.5,373.0,271.0" stroke="black" stroke-width="2" fill="none" />
<polyline points="373.5,277.5,381.0,277.5,388.5,277.0" stroke="black" stroke-width="2" fill="none" />
<polyline points="388.0,272.5,395.5,272.0,404.0,272.0" stroke="black" stroke-width="2" fill="none" />
<polyline points="404.0,268.5,396.0,270.0,388.0,271.0" stroke="black" stroke-width="2" fill="none" />
<polyline points="373.5,244.0,365.5,251.5,357.5,259.0,349.0,266.5,340.0,274.0,331.5,281.0,323.0,288.0,315.0,295.0,307.5,302.0,299.0,309.0" stroke="black" stroke-width="2" fill="none" />
<polyline points="291.5,310.0,299.5,303.0,307.5,296.0,315.5,289.0,324.0,282.0,332.0,274.5,340.5,267.0,349.0,259.5,357.5,252.5,365.0,245.0" stroke="black" stroke-width="2" fill="none" />
<polyline points="356.5,246.0,364.5,245.5,371.5,244.5,379.0,244.5,386.5,244.0,394.0,243.5,401.5,243.0,409.5,242.5,418.0,242.5,426.5,242.5" stroke="black" stroke-width="2" fill="none" />
<polyline points="436.0,243.0,444.0,236.0,451.5,229.0,459.0,222.0,467.0,214.5" stroke="black" stroke-width="2" fill="none" />
<polyline points="483.5,199.0,491.5,198.5,500.0,198.0,507.0,197.5,514.5,196.5" stroke="black" stroke-width="2" fill="none" />
<polyline points="515.5,211.5,507.5,212.0,499.5,212.0" stroke="black" stroke-width="2" fill="none" />
<polyline points="498.5,204.0,507.0,203.5,515.0,203.5" stroke="black" stroke-width="2" fill="none" />
<polyline points="514.5,189.0,506.0,189.5,498.0,190.5" stroke="black" stroke-width="2" fill="none" />
<polyline points="492.5,181.0,501.0,180.0,508.5,180.0,516.5,180.0" stroke="black" stroke-width="2" fill="none" />
<polyline points="515.5,171.5,507.5,172.5" stroke="black" stroke-width="2" fill="none" />
<polyline points="505.5,158.0,513.5,157.0" stroke="black" stroke-width="2" fill="none" />
<polyline points="514.0,149.5,506.0,149.5" stroke="black" stroke-width="2" fill="none" />
<polyline points="500.0,141.5,508.0,141.0,516.0,140.5" stroke="black" stroke-width="2" fill="none" />
<polyline points="516.5,133.5,508.5,134.0,500.0,135.0" stroke="black" stroke-width="2" fill="none" />
<polyline points="497.5,126.0,506.0,125.5,514.5,125.0" stroke="black" stroke-width="2" fill="none" />
<polyline points="514.5,117.0,507.0,118.0,499.0,119.5,491.0,120.0" stroke="black" stroke-width="2" fill="none" />
<polyline points="490.0,124.5,482.0,125.0" stroke="black" stroke-width="2" fill="none" />
<polyline points="476.0,134.0,467.5,134.5" stroke="black" stroke-width="2" fill="none" />
<polyline points="468.0,125.0,476.5,124.5" stroke="black" stroke-width="2" fill="none" />
<polyline points="475.0,118.0,467.0,118.0" stroke="black" stroke-width="2" fill="none" />
<polyline points="483.5,109.0,491.5,108.5,499.5,108.5,508.0,108.5,516.0,108.5" stroke="black" stroke-width="2" fill="none" />
<polyline points="515.0,101.5,507.0,102.0,499.0,102.5,491.5,103.0,483.5,103.0" stroke="black" stroke-width="2" fill="none" />
<polyline points="467.0,94.5,475.0,93.5,482.5,93.5,490.5,93.0,498.5,92.5,507.0,92.0,514.5,91.0" stroke="black" stroke-width="2" fill="none" />
<polyline points="514.0,68.5,506.0,69.0,497.5,70.0,489.5,71.0" stroke="black" stroke-width="2" fill="none" />
<polyline points="485.0,78.0,492.5,77.5,500.5,77.5,508.0,78.0,515.5,78.0" stroke="black" stroke-width="2" fill="none" />
<polyline points="515.0,50.5,506.5,51.0" stroke="black" stroke-width="2" fill="none" />
<polyline points="515.0,35.0,506.5,36.5,498.5,37.5,490.5,38.5" stroke="black" stroke-width="2" fill="none" />
<polyline points="486.0,30.0,493.5,30.0,501.0,29.5,508.5,29.0,516.0,28.5" stroke="black" stroke-width="2" fill="none" />
<polyline points="514.0,11.5,506.5,12.0,498.5,12.5" stroke="black" stroke-width="2" fill="none" />
<polyline points="485.0,22.0,493.5,21.5,501.5,21.0,509.0,20.5,516.5,20.5" stroke="black" stroke-width="2" fill="none" />
<polyline points="516.0,57.5,508.0,58.5,500.5,59.5,492.5,60.5,484.0,61.5,476.0,62.5" stroke="black" stroke-width="2" fill="none" />
<polyline points="475.5,67.5,467.5,67.5" stroke="black" stroke-width="2" fill="none" />
<polyline points="475.0,74.0,466.5,75.0,458.5,75.5" stroke="black" stroke-width="2" fill="none" />
<polyline points="467.5,84.5,475.5,84.0,483.5,84.0,491.5,83.5,499.0,83.5,507.0,83.5,515.0,83.0" stroke="black" stroke-width="2" fill="none" />
<polyline points="516.0,43.5,508.0,43.5,499.5,44.0,491.0,44.5,483.0,45.0,475.0,45.5" stroke="black" stroke-width="2" fill="none" />
<polyline points="477.0,54.0,468.5,54.5" stroke="black" stroke-width="2" fill="none" />
<polyline points="470.0,38.0,477.5,38.0" stroke="black" stroke-width="2" fill="none" />
<polyline points="476.0,20.5,468.0,21.0,460.5,21.0" stroke="black" stroke-width="2" fill="none" />
<polyline points="468.5,15.5,476.5,15.0,484.0,14.0,492.5,13.0" stroke="black" stroke-width="2" fill="none" />
<polyline points="459.5,38.0,451.5,38.5" stroke="black" stroke-width="2" fill="none" />
<polyline points="449.5,11.5,458.0,11.0" stroke="black" stroke-width="2" fill="none" />
<polyline points="446.5,6.5,454.0,6.0,461.5,5.0,469.0,5.0,476.5,5.0,484.0,4.0,491.5,3.5,499.0,3.0,507.0,2.5,515.0,1.5" stroke="black" stroke-width="2" fill="none" />
<polyline points="490.0,141.0,482.0,141.0" stroke="black" stroke-width="2" fill="none" />
<polyline points="489.0,150.0,497.0,150.0" stroke="black" stroke-width="2" fill="none" />
<polyline points="491.0,167.5,499.0,166.5,507.0,166.0,515.5,165.5" stroke="black" stroke-width="2" fill="none" />
<polyline points="500.5,174.5,492.0,175.0" stroke="black" stroke-width="2" fill="none" />
<polyline points="481.5,173.5,474.0,173.5,466.0,173.5" stroke="black" stroke-width="2" fill="none" />
<polyline points="458.5,179.5,451.0,187.0,443.0,194.5,435.5,202.0,428.0,209.5,420.0,216.5,412.5,224.5,405.0,232.5,397.0,240.0,389.0,247.5,381.5,255.0,373.5,262.5,365.0,270.0,356.5,277.5" stroke="black" stroke-width="2" fill="none" />
<polyline points="357.5,282.5,365.0,282.0" stroke="black" stroke-width="2" fill="none" />
<polyline points="356.5,296.5,348.5,297.5" stroke="black" stroke-width="2" fill="none" />
<polyline points="349.0,293.5,357.5,293.0" stroke="black" stroke-width="2" fill="none" />
<polyline points="339.0,289.5,347.0,281.0,354.5,273.0,362.5,265.0,371.0,256.5,379.0,249.0,387.0,241.5,396.0,234.0,403.5,227.0" stroke="black" stroke-width="2" fill="none" />
<polyline points="409.5,225.0,417.5,224.5,426.0,224.5,434.5,224.5,443.0,224.0,451.0,223.5,459.5,223.0,467.5,223.0,476.0,223.0" stroke="black" stroke-width="2" fill="none" />
<polyline points="483.0,217.0,475.0,218.0,466.5,219.0,458.5,220.0,450.5,220.5,442.5,220.5,434.5,221.0,426.0,221.5,417.5,222.0,409.5,222.5" stroke="black" stroke-width="2" fill="none" />
<polyline points="410.5,218.5,418.5,218.0,426.5,218.0,435.0,218.0,443.0,217.5,451.0,217.0,459.5,216.5,467.5,215.5,475.5,215.0" stroke="black" stroke-width="2" fill="none" />
<polyline points="492.0,220.5,500.0,220.5,508.0,220.0,516.0,220.0" stroke="black" stroke-width="2" fill="none" />
<polyline points="482.5,233.5,486.5,236.5,491.0,244.5,494.5,252.5" stroke="black" stroke-width="2" fill="none" />
<polyline points="468.0,237.5,460.0,238.0,452.0,239.0" stroke="black" stroke-width="2" fill="none" />
<polyline points="453.0,242.5,444.5,243.0,436.5,243.5" stroke="black" stroke-width="2" fill="none" />
<polyline points="411.5,217.5,419.0,210.0,427.0,202.0,435.0,195.0,443.0,187.5,451.0,180.0" stroke="black" stroke-width="2" fill="none" />
<polyline points="453.5,171.5,446.0,178.5,438.0,185.5,429.5,193.0,421.0,201.0,412.0,209.0" stroke="black" stroke-width="2" fill="none" />
<polyline points="410.0,210.0,418.0,209.5,426.0,208.5,434.0,207.5,441.5,207.5,449.5,207.0,457.5,206.0,466.0,205.0" stroke="black" stroke-width="2" fill="none" />
<polyline points="451.0,163.0,443.5,170.5,435.0,177.5,427.0,185.0,419.0,193.5,411.0,201.0" stroke="black" stroke-width="2" fill="none" />
<polyline points="411.5,201.0,408.5,209.0,398.5,210.0,404.5,211.0" stroke="black" stroke-width="2" fill="none" />
<polyline points="410.5,213.5,418.5,213.0,426.5,213.0,434.0,213.0,442.5,212.0,450.5,212.0,458.0,211.5,466.5,211.0,475.0,210.0" stroke="black" stroke-width="2" fill="none" />
<polyline points="445.5,163.0,437.5,171.0,429.5,179.0,421.0,187.0,412.5,195.0,405.0,202.5,396.0,210.5" stroke="black" stroke-width="2" fill="none" />
<polyline points="387.0,208.0,378.5,208.5,370.5,209.0,362.5,209.5,355.0,209.5,347.5,209.0,339.5,209.0,331.5,209.0,323.5,209.5,315.5,209.5,307.0,210.0,299.0,210.5,291.0,211.0,283.5,212.0,275.5,213.0,267.5,213.5,260.0,215.0,252.5,215.0,244.5,215.5,236.5,215.5,228.0,216.5,220.5,216.5" stroke="black" stroke-width="2" fill="none" />
<polyline points="220.0,219.5,228.0,212.0" stroke="black" stroke-width="2" fill="none" />
<polyline points="222.0,210.5,216.0,213.5,217.0,217.0,225.5,214.0,231.5,213.5,234.0,200.5,242.5,191.0,250.5,186.0,258.5,187.0,267.0,187.0,275.0,189.5,283.0,192.5,290.5,195.0,298.5,196.0,306.0,194.5,314.0,194.5,322.0,194.5,329.5,192.5,337.5,190.0,345.5,188.0,353.5,183.5,361.5,180.5,370.0,176.0,378.0,169.0,386.0,162.0,393.5,154.0,401.5,146.0,409.5,135.0,417.5,133.0,425.0,139.5,433.0,148.5,441.0,157.5,449.0,171.5,457.0,186.5,465.0,202.0" stroke="black" stroke-width="2" fill="none" />
<polyline points="442.5,153.5,434.0,161.5,427.0,170.0,419.0,178.0,411.0,185.5,402.5,193.5,395.5,201.0,388.0,209.0,380.5,216.0" stroke="black" stroke-width="2" fill="none" />
<polyline points="373.0,216.0,380.5,208.0,388.0,201.0,395.5,193.0,403.0,185.5,410.5,177.0,417.5,169.0,425.0,161.5,432.5,154.0" stroke="black" stroke-width="2" fill="none" />
<polyline points="428.5,147.5,420.0,155.5,412.0,163.0,404.5,170.5,396.5,177.5,388.5,185.0,380.5,192.0,372.5,199.5,364.5,207.0,356.0,214.0,348.0,221.5" stroke="black" stroke-width="2" fill="none" />
<polyline points="356.5,222.0,364.0,215.0,372.0,208.0,379.5,200.5,386.5,193.0,394.5,185.5,402.0,177.5,410.0,169.5,418.0,161.5,426.0,153.5,434.0,146.0" stroke="black" stroke-width="2" fill="none" />
<polyline points="427.0,138.0,419.0,145.5,411.0,153.5,403.0,161.0,395.0,168.5,387.0,176.0,379.0,183.5,371.0,191.0,363.0,198.0,355.5,205.0,347.5,212.0,339.5,220.0,331.5,228.0" stroke="black" stroke-width="2" fill="none" />
<polyline points="322.0,228.0,330.0,221.0,338.5,213.5,346.5,206.0,354.5,199.0,362.5,192.0,370.5,185.0,379.0,177.5,386.5,170.5,394.5,163.0,402.5,155.5,410.5,147.5,418.0,140.0" stroke="black" stroke-width="2" fill="none" />
<polyline points="419.0,131.0,411.5,139.0,403.0,146.5" stroke="black" stroke-width="2" fill="none" />
<polyline points="402.5,146.5,411.0,146.5,419.0,146.0,427.0,145.5" stroke="black" stroke-width="2" fill="none" />
<polyline points="418.5,133.0,410.5,133.5" stroke="black" stroke-width="2" fill="none" />
<polyline points="413.0,132.0,407.0,140.0,399.5,147.5,391.5,155.5,383.5,163.5,374.5,172.0,360.5,179.5,340.0,187.5" stroke="black" stroke-width="2" fill="none" />
<polyline points="339.5,191.0,347.5,191.0,355.5,189.5,363.5,188.5,371.5,187.5,379.5,186.5,387.0,185.5,394.5,185.5,402.0,185.0,409.5,184.5,417.5,184.0,426.0,183.5,434.5,182.5,442.5,181.5,451.0,181.0,459.5,180.5" stroke="black" stroke-width="2" fill="none" />
<polyline points="467.5,201.5,459.0,202.0,450.5,202.0,442.0,203.0,434.5,204.0,426.5,204.5,418.5,205.0,410.5,205.5" stroke="black" stroke-width="2" fill="none" />
<polyline points="404.5,199.5,396.5,200.0,388.5,200.5,381.0,201.5,373.5,202.0,365.5,202.5,357.5,203.0,349.5,203.5,341.5,203.5,333.0,203.0,324.5,203.5,316.0,203.5,308.0,204.5,300.5,204.5,292.5,205.5,284.5,206.5,277.0,207.5,268.5,207.5,260.5,207.5,252.0,207.5,244.0,208.5,236.0,209.0" stroke="black" stroke-width="2" fill="none" />
<polyline points="236.5,205.0,244.5,204.5,251.5,204.5,259.5,204.0,267.5,203.5,276.0,203.0,283.5,202.5,291.5,202.0,300.0,201.5,308.0,201.0,316.0,201.0,324.0,200.5,331.5,200.0,339.0,199.5,347.0,199.0,354.5,198.0,362.5,197.0,370.5,196.5,378.5,196.5,387.0,196.0,395.0,195.5,403.0,195.0" stroke="black" stroke-width="2" fill="none" />
<polyline points="387.0,204.0,379.0,204.5,371.0,204.5,363.0,205.0,355.0,205.0,346.5,205.0,338.5,205.5,331.0,205.0,323.0,205.5,315.0,206.0,306.5,207.0,298.5,207.5,290.5,208.0,283.0,208.5,275.5,209.0,267.5,209.0,260.0,209.0,252.0,210.0,243.5,211.0,235.5,211.5,227.0,211.5,219.5,212.0" stroke="black" stroke-width="2" fill="none" />
<polyline points="224.5,221.0,226.0,229.0,233.0,228.0" stroke="black" stroke-width="2" fill="none" />
<polyline points="236.0,226.0,244.0,226.0,252.5,224.5,260.5,224.0,268.5,223.5,276.5,222.5,284.5,221.5,293.0,221.0,301.0,220.5,309.0,220.0,317.5,220.0,325.0,219.0,333.0,218.5,341.0,218.0,349.0,217.0,356.5,217.0,364.5,216.5" stroke="black" stroke-width="2" fill="none" />
<polyline points="364.0,214.5,356.0,214.5,348.0,215.0,340.0,215.5,332.5,215.5,324.5,215.0,316.5,215.5,308.0,216.0,300.0,217.5,291.5,218.0,283.5,218.5,275.5,219.0,267.5,220.0,259.0,220.0,251.0,220.0,243.0,220.5,235.0,220.5" stroke="black" stroke-width="2" fill="none" />
<polyline points="235.5,219.0,243.0,211.5,250.5,204.0,258.0,196.5,266.0,189.0" stroke="black" stroke-width="2" fill="none" />
<polyline points="260.5,189.5,252.5,197.0,244.0,205.0,236.0,212.5,228.0,219.5" stroke="black" stroke-width="2" fill="none" />
<polyline points="228.5,221.0,236.5,222.0" stroke="black" stroke-width="2" fill="none" />
<polyline points="227.0,229.0,219.0,236.0" stroke="black" stroke-width="2" fill="none" />
<polyline points="219.0,237.5,227.5,237.0,235.5,236.0,243.5,235.5,252.0,234.5,260.0,234.0,268.0,233.5,275.5,233.0" stroke="black" stroke-width="2" fill="none" />
<polyline points="284.5,233.5,292.5,233.5,300.0,233.5,307.5,233.0,315.5,232.0,323.5,231.0,331.5,230.5,339.5,230.0" stroke="black" stroke-width="2" fill="none" />
<polyline points="355.0,229.5,363.0,229.0" stroke="black" stroke-width="2" fill="none" />
<polyline points="369.5,239.5,388.5,231.5,384.0,220.5,380.0,214.0,397.0,205.5,413.0,198.5,405.0,202.5,396.5,205.5,388.5,209.5,380.5,214.0,372.0,218.0,364.0,221.0,356.0,224.0,348.0,227.0,339.5,228.5,331.0,231.0,323.0,233.0,315.5,233.0,308.0,234.5,300.0,235.0,292.0,235.5,284.5,237.5,277.0,236.5,269.0,234.5,260.5,232.5,252.5,231.5" stroke="black" stroke-width="2" fill="none" />
<polyline points="255.0,233.5,263.0,235.5" stroke="black" stroke-width="2" fill="none" />
<polyline points="285.0,233.5,293.0,227.0,301.0,219.5,309.0,212.0,316.5,204.5,325.0,196.5" stroke="black" stroke-width="2" fill="none" />
<polyline points="322.5,202.0,330.5,201.0,338.5,200.5,347.0,200.5,355.5,200.0,364.0,199.5,372.0,199.0,380.5,198.5,388.5,198.0,396.0,198.0,404.0,197.5,412.0,197.0,420.0,196.0,428.0,195.5,436.0,194.5,444.0,194.0,451.5,193.5,459.5,193.0,467.0,192.0" stroke="black" stroke-width="2" fill="none" />
<polyline points="435.0,152.0,426.5,152.0,418.5,152.0,410.5,152.0,402.0,152.0" stroke="black" stroke-width="2" fill="none" />
<polyline points="403.5,150.0,411.5,149.0,419.5,149.0,427.5,149.0,435.0,148.5" stroke="black" stroke-width="2" fill="none" />
<polyline points="428.5,142.0,420.0,142.5,412.5,142.5,404.5,143.0" stroke="black" stroke-width="2" fill="none" />
<polyline points="395.0,160.5,403.0,160.0,411.0,160.0,418.5,160.0,426.5,159.5,435.0,159.0,443.0,158.5" stroke="black" stroke-width="2" fill="none" />
<polyline points="452.5,164.5,444.5,165.0,436.5,166.0,428.5,166.5,420.5,167.0,412.5,168.0,404.5,168.5,396.5,169.0,388.5,169.5" stroke="black" stroke-width="2" fill="none" />
<polyline points="388.0,166.0,395.5,165.0,403.0,164.5,411.0,164.0,419.5,163.5,428.0,163.0,436.0,162.0,444.5,161.0,452.5,159.5" stroke="black" stroke-width="2" fill="none" />
<polyline points="443.0,152.5,435.5,153.5,428.0,154.0,420.0,155.5,411.5,156.0,403.5,157.0,395.0,157.5,387.0,158.0" stroke="black" stroke-width="2" fill="none" />
<polyline points="379.5,171.5,371.5,179.0,363.5,186.5,355.5,194.5,348.0,202.0,340.0,209.5,332.0,217.0,324.0,224.0,316.0,231.0" stroke="black" stroke-width="2" fill="none" />
<polyline points="308.0,232.0,316.0,224.5,324.5,217.5,332.0,210.0,340.0,202.5,348.0,195.0,356.0,187.5,364.0,180.0" stroke="black" stroke-width="2" fill="none" />
<polyline points="371.0,178.0,379.5,177.5,387.5,176.5,395.5,175.5,403.5,175.0,411.5,174.5,419.5,174.5,427.0,174.5,434.5,174.0,442.5,174.0,450.5,173.5" stroke="black" stroke-width="2" fill="none" />
<polyline points="460.0,228.5,451.5,229.0,443.0,229.0,435.5,230.0,427.5,231.0,420.0,232.0,412.5,233.0,405.0,234.0,397.0,235.0" stroke="black" stroke-width="2" fill="none" />
<polyline points="396.5,230.5,404.5,230.0,412.5,229.0,420.0,228.5,427.0,228.0,434.5,227.5,443.0,226.5,451.5,226.0,459.5,225.5" stroke="black" stroke-width="2" fill="none" />
<polyline points="443.5,234.0,435.5,234.0,428.0,234.0,419.5,235.0,411.5,234.5,403.5,234.5,396.0,235.0,388.0,236.0,379.5,236.5" stroke="black" stroke-width="2" fill="none" />
<polyline points="389.5,227.5,381.5,230.5,389.5,228.5,401.5,220.0" stroke="black" stroke-width="2" fill="none" />
<polyline points="410.5,247.5,403.0,247.5,395.0,247.5,387.5,248.0,379.0,248.5,371.0,249.0,363.0,250.0,355.0,251.0,347.0,251.0,339.5,251.5,331.5,252.5,323.0,253.0,314.5,253.5,306.0,254.0" stroke="black" stroke-width="2" fill="none" />
<polyline points="309.5,255.0,317.0,255.0,324.5,255.0,332.0,255.0,340.0,255.0,348.0,255.0,355.5,254.5,363.5,254.5,371.5,254.0,379.5,253.5,387.0,253.0,395.5,252.5,403.5,251.5,411.5,250.5" stroke="black" stroke-width="2" fill="none" />
<polyline points="427.0,245.0,418.5,245.5,410.5,246.0,402.5,246.5,394.5,247.0,387.0,248.0,379.5,248.5,372.0,249.5,364.0,249.5,355.5,250.5" stroke="black" stroke-width="2" fill="none" />
<polyline points="350.0,253.0,342.0,260.0,333.5,267.0,325.0,274.5,316.0,282.0,307.5,289.5,299.5,297.0,291.0,304.5,283.0,312.0,275.0,319.0" stroke="black" stroke-width="2" fill="none" />
<polyline points="269.0,311.5,277.0,311.5,284.5,311.0" stroke="black" stroke-width="2" fill="none" />
<polyline points="268.0,302.0,275.5,295.0,283.5,287.5,291.5,281.0,299.5,274.0,307.0,267.5,315.0,260.5,323.0,253.0" stroke="black" stroke-width="2" fill="none" />
<polyline points="315.5,253.5,307.5,261.0,300.5,268.5,292.5,275.0,284.5,281.5,277.0,288.5,269.0,295.5,261.0,303.5,253.0,311.0,244.5,318.5,236.5,326.5,229.0,333.5,221.0,341.5,212.5,349.0" stroke="black" stroke-width="2" fill="none" />
<polyline points="211.5,356.0,219.0,356.0,226.5,355.5" stroke="black" stroke-width="2" fill="none" />
<polyline points="227.5,344.5,235.0,337.5,243.0,330.5,250.5,324.0,259.0,316.5" stroke="black" stroke-width="2" fill="none" />
<polyline points="259.0,310.5,250.5,310.5,242.0,311.5,234.0,312.5,226.0,313.0,218.0,313.5" stroke="black" stroke-width="2" fill="none" />
<polyline points="214.5,317.0,206.5,324.0,198.0,331.0" stroke="black" stroke-width="2" fill="none" />
<polyline points="195.0,331.0,202.5,331.0,211.0,331.0,219.0,330.5,227.0,330.0,235.5,330.0,244.0,329.0,252.5,329.0" stroke="black" stroke-width="2" fill="none" />
<polyline points="259.5,326.0,267.5,318.0,275.5,310.5,283.5,303.0,291.5,295.0,299.5,287.5,307.5,280.5,316.5,273.0,324.5,265.0,332.5,257.0,340.5,249.5" stroke="black" stroke-width="2" fill="none" />
<polyline points="338.0,247.0,346.0,244.5" stroke="black" stroke-width="2" fill="none" />
<polyline points="331.0,251.0,323.0,258.5,315.5,266.0,307.5,273.5,299.0,281.0,291.0,289.0,282.5,296.5,275.0,303.5,267.5,311.5,260.0,319.0,252.0,326.0,244.0,334.0" stroke="black" stroke-width="2" fill="none" />
<polyline points="251.5,341.0,259.0,340.5" stroke="black" stroke-width="2" fill="none" />
<polyline points="259.0,345.5,251.5,346.0" stroke="black" stroke-width="2" fill="none" />
<polyline points="244.5,351.0,237.0,351.0" stroke="black" stroke-width="2" fill="none" />
<polyline points="236.5,349.0,244.5,348.5" stroke="black" stroke-width="2" fill="none" />
<polyline points="227.5,329.0,235.5,328.5,243.5,328.0,252.0,327.5,260.0,326.5,268.0,326.0" stroke="black" stroke-width="2" fill="none" />
<polyline points="267.5,319.5,259.0,320.0,251.0,320.5,243.5,320.5,235.0,321.0,226.5,321.0,218.0,321.5,209.5,322.0,201.5,322.5,193.5,323.0" stroke="black" stroke-width="2" fill="none" />
<polyline points="198.5,323.0,207.0,313.5,209.0,309.0,205.0,317.0,206.5,329.0,205.5,334.5,204.0,337.5,204.5,332.5,217.5,330.5,225.0,328.5,229.0,326.5,238.0,323.5,246.0,320.5,255.0,317.5" stroke="black" stroke-width="2" fill="none" />
<polyline points="265.5,316.0,273.5,315.0" stroke="black" stroke-width="2" fill="none" />
<polyline points="273.5,310.0,265.5,311.0" stroke="black" stroke-width="2" fill="none" />
<polyline points="260.0,305.0,268.0,305.0,276.0,304.0,283.5,303.5,291.0,303.0,299.0,302.5,306.5,302.0,314.5,301.5" stroke="black" stroke-width="2" fill="none" />
<polyline points="329.0,301.0,337.0,301.0" stroke="black" stroke-width="2" fill="none" />
<polyline points="300.5,261.5,292.0,268.5,283.5,276.0,275.0,284.0,267.0,291.5,259.0,299.5,251.0,306.5,242.5,313.5,234.5,321.0,226.5,328.0,219.0,335.5,210.5,342.5,202.5,350.0" stroke="black" stroke-width="2" fill="none" />
<polyline points="196.0,348.5,204.5,348.0,211.5,348.0,219.0,348.0" stroke="black" stroke-width="2" fill="none" />
<polyline points="221.0,328.0,213.5,328.0,205.5,328.5" stroke="black" stroke-width="2" fill="none" />
<polyline points="211.5,320.5,219.5,319.5,228.0,318.5,236.0,318.0,244.5,317.5,252.5,317.0,260.0,316.5,268.0,316.5,276.5,316.0,284.5,316.0" stroke="black" stroke-width="2" fill="none" />
<polyline points="252.0,302.5,243.5,302.5" stroke="black" stroke-width="2" fill="none" />
<polyline points="243.0,297.0,250.5,289.5,258.5,282.5,266.5,275.5,274.5,268.5,283.0,261.0" stroke="black" stroke-width="2" fill="none" />
<polyline points="279.5,255.5,265.5,263.5,258.0,272.0,250.0,280.5,242.5,288.5,235.5,297.0,227.0,305.0,218.5,313.0,208.5,320.0,216.5,313.5,224.5,307.5,232.5,300.0,240.0,291.0,248.0,283.0,256.0,275.0,264.0,267.0,272.0,261.0,279.5,257.0,287.5,255.5,295.5,254.5,303.5,254.0,311.5,254.5,319.5,253.0,327.5,252.0,336.0,249.5,344.5,248.5,352.5,246.5,360.0,244.0,368.0,241.5,376.0,237.5,384.0,234.0,392.0,230.0,400.0,226.5" stroke="black" stroke-width="2" fill="none" />
<polyline points="396.0,256.5,387.5,256.5,379.5,257.5,371.0,258.5,363.0,259.5,355.5,260.0,348.0,261.0,340.0,261.0,332.0,261.5,323.5,262.5,315.5,263.5,308.0,264.0,300.0,264.0,292.5,264.0,284.5,264.0,277.0,264.0,269.0,264.5" stroke="black" stroke-width="2" fill="none" />
<polyline points="267.0,265.5,274.5,258.5" stroke="black" stroke-width="2" fill="none" />
<polyline points="268.0,260.0,275.5,259.5,283.0,259.5,290.5,259.0,298.5,259.0,306.0,258.5,314.0,258.0,321.5,257.5,329.5,257.0,337.5,256.5,345.0,256.5,353.0,256.0,361.5,255.0,370.0,254.5,379.0,254.0,387.5,254.0,395.5,253.5" stroke="black" stroke-width="2" fill="none" />
<polyline points="379.5,266.5,371.5,267.5,363.5,268.5,355.5,270.0,347.5,270.0,339.5,270.5,331.5,271.5,323.0,272.0,315.0,272.5,306.5,272.5,299.0,272.5,291.5,273.0,283.5,273.0,276.0,273.5,268.0,274.0" stroke="black" stroke-width="2" fill="none" />
<polyline points="268.0,269.0,276.0,269.0,284.0,268.5,292.5,269.0,301.0,269.0,308.5,269.0,316.5,268.5,324.0,268.0,332.0,267.5,340.0,266.5,348.0,266.0,355.5,265.5,363.5,265.5,371.5,265.0,379.0,264.0" stroke="black" stroke-width="2" fill="none" />
<polyline points="347.0,276.0,339.0,277.0,330.5,277.5,322.5,277.5,314.5,277.5,306.5,277.5,299.0,278.0,291.0,277.5,283.5,278.0,276.0,278.0,268.5,278.5,260.5,279.5,252.5,280.5" stroke="black" stroke-width="2" fill="none" />
<polyline points="251.0,275.5,259.0,275.0,267.5,274.5,275.5,274.5,283.5,274.0,291.5,274.0,299.5,274.0,307.0,274.5,314.5,274.5,322.5,274.0,330.5,273.5,339.0,273.0,347.0,272.5,355.0,272.0,363.0,271.0" stroke="black" stroke-width="2" fill="none" />
<polyline points="347.5,283.5,339.5,283.5,331.5,284.0,323.0,284.5,315.0,284.5,307.0,285.0,299.0,285.0,291.0,285.0,283.0,285.5,275.0,285.5,267.5,286.0,259.5,286.5,252.0,287.0,244.0,287.0" stroke="black" stroke-width="2" fill="none" />
<polyline points="244.0,285.0,252.0,284.5,260.0,284.0,268.0,283.5,275.5,283.0,283.5,283.0,291.5,282.5,300.0,281.0,308.0,280.5,316.0,280.0,323.5,280.0,332.0,279.5,340.0,279.0,348.0,278.5" stroke="black" stroke-width="2" fill="none" />
<polyline points="291.0,261.5,283.0,269.0,275.5,276.0,268.0,283.5,261.0,291.5,253.5,299.0,245.5,306.5,237.5,314.0,229.5,321.0,221.5,327.5,213.5,335.0,205.5,342.5,197.5,350.0,189.0,357.5" stroke="black" stroke-width="2" fill="none" />
<polyline points="188.0,355.5,179.5,363.5" stroke="black" stroke-width="2" fill="none" />
<polyline points="178.5,355.5,170.5,363.5,163.0,371.0" stroke="black" stroke-width="2" fill="none" />
<polyline points="164.0,375.5,153.0,382.5,164.0,376.0,173.0,374.0,175.5,376.0,181.0,369.0" stroke="black" stroke-width="2" fill="none" />
<polyline points="180.0,362.5,172.0,363.0,164.0,363.5,156.0,363.5,147.5,364.0,139.0,364.0,131.0,365.0,123.0,365.5,116.0,366.0,108.5,366.5,101.0,367.0,93.0,368.0" stroke="black" stroke-width="2" fill="none" />
<polyline points="91.5,369.5,99.5,369.5,108.0,369.0,116.0,369.0,124.0,368.5,132.0,367.5,140.5,367.0,148.0,366.0,156.0,365.0,164.0,365.0,171.5,364.5" stroke="black" stroke-width="2" fill="none" />
<polyline points="173.0,355.0,165.5,362.5,157.0,370.0,148.0,377.5,139.0,385.0" stroke="black" stroke-width="2" fill="none" />
<polyline points="139.0,383.0,147.0,383.0,155.5,382.5" stroke="black" stroke-width="2" fill="none" />
<polyline points="154.5,380.0,146.0,387.5" stroke="black" stroke-width="2" fill="none" />
<polyline points="140.0,388.0,148.0,387.5,155.5,386.5" stroke="black" stroke-width="2" fill="none" />
<polyline points="138.5,377.5,146.5,370.0,155.0,362.5,162.5,355.0,171.0,348.0,179.5,341.0,188.0,334.0" stroke="black" stroke-width="2" fill="none" />
<polyline points="187.0,338.5,178.5,339.0" stroke="black" stroke-width="2" fill="none" />
<polyline points="180.0,332.5,188.0,332.0" stroke="black" stroke-width="2" fill="none" />
<polyline points="189.5,329.5,188.5,337.5,182.0,345.5,186.0,347.5,184.0,355.5,180.0,364.0,160.0,371.0" stroke="black" stroke-width="2" fill="none" />
<polyline points="154.0,362.5,162.5,362.0,171.0,362.0,179.5,361.0,187.0,360.0,195.0,359.0" stroke="black" stroke-width="2" fill="none" />
<polyline points="195.0,355.0,202.5,354.5,210.5,353.5,218.5,352.5" stroke="black" stroke-width="2" fill="none" />
<polyline points="237.0,342.0,229.0,342.5,221.5,342.5,213.5,342.5,205.5,342.0,197.5,342.5" stroke="black" stroke-width="2" fill="none" />
<polyline points="195.0,345.0,203.0,338.0,211.5,331.0,219.5,324.0,227.5,316.5,235.5,308.5" stroke="black" stroke-width="2" fill="none" />
<polyline points="235.5,305.0,227.5,305.0" stroke="black" stroke-width="2" fill="none" />
<polyline points="227.0,300.0,235.0,299.5,243.0,299.0,251.5,299.0,260.0,299.0,268.0,299.0,276.5,298.5,285.0,298.0,293.0,297.5,301.0,297.5,309.0,297.0,316.5,296.5" stroke="black" stroke-width="2" fill="none" />
<polyline points="259.0,277.0,251.0,284.0,243.0,291.5,235.0,298.5,227.5,305.5,220.0,312.5,211.5,320.0,203.5,327.5,195.5,335.0" stroke="black" stroke-width="2" fill="none" />
<polyline points="195.0,335.0,203.0,334.5,211.0,334.5,219.0,334.5,228.0,334.5,236.5,334.0,244.5,333.5,252.5,333.0" stroke="black" stroke-width="2" fill="none" />
<polyline points="236.0,338.5,228.0,338.5,220.0,338.0,211.5,338.0,203.0,338.0,195.0,338.5" stroke="black" stroke-width="2" fill="none" />
<polyline points="186.5,340.0,179.0,348.0" stroke="black" stroke-width="2" fill="none" />
<polyline points="179.0,349.0,187.5,348.5" stroke="black" stroke-width="2" fill="none" />
<polyline points="172.5,353.0,164.5,353.5,156.5,354.0,148.5,354.0" stroke="black" stroke-width="2" fill="none" />
<polyline points="148.5,349.5,156.5,349.0,164.0,349.0,171.5,349.0" stroke="black" stroke-width="2" fill="none" />
<polyline points="170.0,349.0,177.5,349.0" stroke="black" stroke-width="2" fill="none" />
<polyline points="171.5,338.5,163.5,346.0,156.0,353.5" stroke="black" stroke-width="2" fill="none" />
<polyline points="149.0,348.5,157.0,341.5" stroke="black" stroke-width="2" fill="none" />
<polyline points="163.5,338.5,155.5,346.0,148.0,354.0,140.0,362.0,132.0,370.0,124.0,377.5,116.0,385.0" stroke="black" stroke-width="2" fill="none" />
<polyline points="115.5,388.5,123.5,388.0,131.5,388.0" stroke="black" stroke-width="2" fill="none" />
<polyline points="130.5,388.5,122.5,396.0" stroke="black" stroke-width="2" fill="none" />
<polyline points="116.5,393.5,124.0,393.0,132.0,392.5" stroke="black" stroke-width="2" fill="none" />
<polyline points="114.5,392.5,123.0,385.0,131.5,377.0,140.0,369.5,148.0,362.0" stroke="black" stroke-width="2" fill="none" />
<polyline points="148.0,363.0,140.0,363.5" stroke="black" stroke-width="2" fill="none" />
<polyline points="140.0,358.5,148.0,358.0,155.5,358.0,163.5,357.5,171.5,357.0,179.0,356.5,187.0,356.0,195.0,355.0" stroke="black" stroke-width="2" fill="none" />
<polyline points="187.5,342.0,179.0,342.5,171.0,343.0,163.0,343.5,155.0,344.0,147.0,344.5,139.0,344.5,131.0,345.0" stroke="black" stroke-width="2" fill="none" />
<polyline points="133.0,339.5,125.0,347.0,117.0,354.5,109.0,361.5,101.5,368.5,93.0,376.0,85.0,383.5,77.0,391.5,69.0,399.5" stroke="black" stroke-width="2" fill="none" />
<polyline points="65.5,405.5,73.5,405.0,82.0,404.0" stroke="black" stroke-width="2" fill="none" />
<polyline points="83.5,405.5,75.5,413.0" stroke="black" stroke-width="2" fill="none" />
<polyline points="83.0,408.5,74.5,408.5,66.5,409.0" stroke="black" stroke-width="2" fill="none" />
<polyline points="65.5,405.5,73.5,398.0,82.0,390.0,90.5,382.5,99.5,375.0,108.0,367.5,117.0,360.5,125.5,353.0,133.5,346.0,142.0,338.5" stroke="black" stroke-width="2" fill="none" />
<polyline points="147.0,338.0,139.0,345.5" stroke="black" stroke-width="2" fill="none" />
<polyline points="143.0,350.5,154.5,351.0,140.5,355.0,148.5,356.0,157.5,353.0,165.5,355.0,171.5,350.0,180.0,350.0" stroke="black" stroke-width="2" fill="none" />
<polyline points="188.0,339.0,179.5,339.5,170.5,340.0,162.0,340.0,154.0,339.5,146.5,339.5,139.0,339.0,131.0,339.0,123.0,339.0" stroke="black" stroke-width="2" fill="none" />
<polyline points="124.0,338.5,131.5,331.0,139.0,323.0" stroke="black" stroke-width="2" fill="none" />
<polyline points="146.0,321.5,154.0,314.0,162.0,306.5" stroke="black" stroke-width="2" fill="none" />
<polyline points="164.0,310.5,156.0,311.0" stroke="black" stroke-width="2" fill="none" />
<polyline points="156.5,314.5,164.0,314.5" stroke="black" stroke-width="2" fill="none" />
<polyline points="170.5,318.0,178.5,317.5" stroke="black" stroke-width="2" fill="none" />
<polyline points="179.0,311.5,186.5,310.5,194.5,310.5" stroke="black" stroke-width="2" fill="none" />
<polyline points="197.0,308.0,189.0,315.5" stroke="black" stroke-width="2" fill="none" />
<polyline points="195.0,308.5,187.0,309.5,179.0,310.0" stroke="black" stroke-width="2" fill="none" />
<polyline points="181.0,307.0,189.0,300.0,196.5,293.0,204.5,285.5" stroke="black" stroke-width="2" fill="none" />
<polyline points="203.5,293.0,211.5,293.0,219.5,292.5" stroke="black" stroke-width="2" fill="none" />
<polyline points="212.0,290.0,220.0,289.5,228.5,288.5" stroke="black" stroke-width="2" fill="none" />
<polyline points="235.5,294.5,243.0,293.5,251.5,293.0,260.0,292.0,269.0,291.5,277.5,291.0,285.5,290.5,293.5,289.5,301.5,289.0,309.0,288.5,317.0,288.0,325.0,288.0,333.0,287.5" stroke="black" stroke-width="2" fill="none" />
<polyline points="300.0,232.0,308.0,224.0,316.5,217.0,324.0,210.0,332.0,203.0,340.0,196.0,348.0,188.5" stroke="black" stroke-width="2" fill="none" />
<polyline points="353.5,184.5,361.5,183.5,369.5,183.0,378.0,183.0,386.5,182.5,395.0,181.5,403.0,181.5,410.5,181.5,418.5,181.0,426.5,180.0,434.0,179.0,442.5,179.0,450.5,179.0,458.5,179.0" stroke="black" stroke-width="2" fill="none" />
<polyline points="450.5,168.5,442.0,169.0,434.5,169.5,426.0,170.5,418.0,171.5,409.5,172.0,402.0,172.0,394.5,172.5,387.0,172.5,379.0,172.5,371.5,173.0" stroke="black" stroke-width="2" fill="none" />
<polyline points="355.0,181.0,363.0,180.5,371.0,179.5,379.5,179.0,387.5,178.5,395.5,178.5,404.0,178.0,411.5,177.5,419.5,177.0,427.5,177.0,435.5,177.0,443.5,176.0,451.5,176.0,459.5,176.0" stroke="black" stroke-width="2" fill="none" />
<polyline points="459.0,186.0,450.5,186.5,442.5,187.0,435.0,187.0,427.0,187.0,419.0,187.5,411.0,188.0,403.0,189.0,394.5,190.5,386.5,191.5,378.0,192.0,370.0,193.0,362.0,193.5,354.0,194.0,346.0,194.5,338.0,195.0" stroke="black" stroke-width="2" fill="none" />
<polyline points="333.0,196.5,325.0,204.0,316.5,211.5,308.0,218.5,300.0,225.5,291.5,233.0" stroke="black" stroke-width="2" fill="none" />
<polyline points="268.5,240.0,276.5,233.0,284.0,225.5,291.0,218.5,299.0,211.0,306.5,203.5,314.0,195.5" stroke="black" stroke-width="2" fill="none" />
<polyline points="309.5,194.5,301.0,202.0,293.0,210.0,285.0,217.5,277.0,225.0,269.0,232.5,261.5,240.0,252.5,247.5,244.0,255.0,235.5,262.5,227.0,270.0,219.0,277.5,211.0,285.0,203.0,293.0" stroke="black" stroke-width="2" fill="none" />
<polyline points="202.0,298.0,210.0,297.5,218.5,297.0" stroke="black" stroke-width="2" fill="none" />
<polyline points="218.5,307.5,226.5,307.0,235.5,306.0,244.0,305.5,252.5,306.0,260.5,305.5,268.5,305.0,276.0,304.5,284.0,304.5,292.0,303.5,300.0,303.0,307.5,302.5" stroke="black" stroke-width="2" fill="none" />
<polyline points="332.0,292.5,324.5,293.0,316.0,294.0,308.0,294.5,299.5,295.0,292.0,295.0,284.5,295.5,276.5,296.0,268.5,297.0,260.5,298.0,253.0,298.5,245.5,299.0,237.5,299.5" stroke="black" stroke-width="2" fill="none" />
<polyline points="242.0,314.5,250.5,311.5,258.5,310.0,266.5,308.5,274.0,307.5,284.0,314.0,288.5,307.5,296.5,307.5,304.5,308.0,313.0,307.0,321.0,303.0,329.0,297.5,336.5,293.0,344.5,288.5,352.5,284.5,360.0,279.5,368.0,275.0,376.0,271.0,384.0,266.5,392.0,262.5,400.0,257.0,408.0,253.5,415.5,249.5,423.5,247.0,431.5,243.0,439.0,238.0,447.0,234.0,455.5,229.0,463.0,225.0,471.0,222.5" stroke="black" stroke-width="2" fill="none" />
<polyline points="467.5,183.0,459.5,183.0,451.5,183.5,444.0,184.0,435.5,184.5,427.5,184.5,419.5,185.0,411.0,185.5,403.0,186.5,395.0,187.0,387.0,187.5,379.5,188.0,371.5,189.0,363.5,189.5,355.5,190.0,347.5,191.0,339.5,192.0,332.0,192.5,324.5,192.5,316.5,192.5,308.5,193.0,300.5,193.5,292.0,194.0,284.0,194.0,275.5,194.5,268.0,194.5,260.5,195.0,252.5,195.5,244.5,196.0,236.5,197.0" stroke="black" stroke-width="2" fill="none" />
<polyline points="235.5,199.0,243.0,198.0,252.0,198.0,260.0,198.5,268.0,199.0,276.0,199.0,283.5,198.5,291.5,197.5,299.0,197.0,306.5,196.5,314.5,196.0" stroke="black" stroke-width="2" fill="none" />
<polyline points="299.0,195.5,291.0,203.0,283.0,210.0,275.0,217.5,267.5,225.5,259.0,233.0,250.5,240.0,242.5,248.0,234.0,256.0,225.5,263.5,217.0,270.5,209.0,278.5" stroke="black" stroke-width="2" fill="none" />
<polyline points="212.0,278.0,220.5,278.0,228.5,277.5,236.0,277.0" stroke="black" stroke-width="2" fill="none" />
<polyline points="235.5,274.0,226.5,282.0,218.5,289.5,210.5,297.5,202.0,305.0" stroke="black" stroke-width="2" fill="none" />
<polyline points="201.5,306.0,209.5,306.0" stroke="black" stroke-width="2" fill="none" />
<polyline points="209.0,303.0,212.0,307.0,209.0,315.0" stroke="black" stroke-width="2" fill="none" />
<polyline points="204.0,317.5,212.0,317.0,220.0,316.5,228.0,315.5,236.0,315.0,244.5,314.0,252.5,313.5,260.5,313.0,268.0,313.0,276.0,312.5,283.5,312.0" stroke="black" stroke-width="2" fill="none" />
<polyline points="258.5,245.5,250.5,246.5,242.0,247.5,234.0,248.5,225.5,249.0" stroke="black" stroke-width="2" fill="none" />
<polyline points="226.5,244.5,234.5,244.0,242.5,244.0,251.5,243.5,259.5,243.5" stroke="black" stroke-width="2" fill="none" />
<polyline points="250.5,255.0,243.0,255.5,235.0,256.0,227.0,256.5,219.5,257.5" stroke="black" stroke-width="2" fill="none" />
<polyline points="220.5,252.5,228.5,252.0,236.5,251.5,244.5,252.0,252.0,252.5" stroke="black" stroke-width="2" fill="none" />
<polyline points="244.5,263.5,237.0,264.0,229.0,264.0,221.5,264.0,213.5,264.5" stroke="black" stroke-width="2" fill="none" />
<polyline points="212.5,262.5,220.0,255.0,227.5,248.0,235.5,241.0,243.0,233.5,250.5,225.5,258.0,218.0,266.5,210.0,274.0,202.5,282.0,194.5" stroke="black" stroke-width="2" fill="none" />
<polyline points="289.0,198.0,282.0,205.0,275.0,212.0,267.5,218.5,260.0,226.0,252.0,233.5,244.5,241.0,237.0,248.5,229.0,256.5,221.5,264.5,213.0,272.0" stroke="black" stroke-width="2" fill="none" />
<polyline points="211.5,269.5,219.5,269.0,227.5,269.0,235.5,269.0" stroke="black" stroke-width="2" fill="none" />
<polyline points="229.0,285.0,221.5,286.0,214.0,286.0" stroke="black" stroke-width="2" fill="none" />
<polyline points="213.5,281.0,221.0,280.5,229.0,280.0,236.5,280.0" stroke="black" stroke-width="2" fill="none" />
<polyline points="235.0,272.5,226.5,273.5,218.5,273.5,210.0,274.0" stroke="black" stroke-width="2" fill="none" />
<polyline points="204.0,276.0,195.5,283.5,187.5,290.5" stroke="black" stroke-width="2" fill="none" />
<polyline points="187.5,290.5,195.0,290.0,203.0,289.5" stroke="black" stroke-width="2" fill="none" />
<polyline points="198.0,299.0,189.5,306.5,181.0,314.0,173.0,321.5" stroke="black" stroke-width="2" fill="none" />
<polyline points="170.5,322.5,178.5,322.0" stroke="black" stroke-width="2" fill="none" />
<polyline points="178.5,306.0,186.5,306.0,195.0,306.0" stroke="black" stroke-width="2" fill="none" />
<polyline points="201.5,302.5,209.5,302.0" stroke="black" stroke-width="2" fill="none" />
<polyline points="195.0,297.0,187.0,298.0" stroke="black" stroke-width="2" fill="none" />
<polyline points="188.5,293.5,196.0,292.5" stroke="black" stroke-width="2" fill="none" />
<polyline points="202.5,286.5,194.5,287.5,186.5,288.0" stroke="black" stroke-width="2" fill="none" />
<polyline points="186.5,281.5,194.5,281.5,202.5,280.5" stroke="black" stroke-width="2" fill="none" />
<polyline points="202.5,271.0,194.0,271.5" stroke="black" stroke-width="2" fill="none" />
<polyline points="193.0,268.5,190.0,276.5,187.5,284.0,183.5,292.0,181.0,300.0,178.0,308.5,173.5,316.0,169.0,324.5,162.5,332.5,155.5,337.5,151.5,338.5,157.5,343.5,165.0,342.5,173.0,339.0,181.0,334.0" stroke="black" stroke-width="2" fill="none" />
<polyline points="173.5,352.0,165.5,352.5" stroke="black" stroke-width="2" fill="none" />
<polyline points="156.5,334.0,148.5,334.5" stroke="black" stroke-width="2" fill="none" />
<polyline points="148.0,332.5,156.5,325.0" stroke="black" stroke-width="2" fill="none" />
<polyline points="157.5,328.5,149.0,329.0" stroke="black" stroke-width="2" fill="none" />
<polyline points="149.5,325.5,157.5,324.5" stroke="black" stroke-width="2" fill="none" />
<polyline points="157.0,320.5,148.5,320.5" stroke="black" stroke-width="2" fill="none" />
<polyline points="147.5,317.5,155.5,317.0" stroke="black" stroke-width="2" fill="none" />
<polyline points="141.5,329.0,133.5,329.5" stroke="black" stroke-width="2" fill="none" />
<polyline points="131.5,327.5,139.5,326.5" stroke="black" stroke-width="2" fill="none" />
<polyline points="133.0,316.0,125.5,323.5" stroke="black" stroke-width="2" fill="none" />
<polyline points="124.5,323.0,132.0,322.5" stroke="black" stroke-width="2" fill="none" />
<polyline points="132.0,319.0,124.0,319.5" stroke="black" stroke-width="2" fill="none" />
<polyline points="125.0,315.5,133.5,308.0" stroke="black" stroke-width="2" fill="none" />
<polyline points="131.5,309.5,123.5,310.5" stroke="black" stroke-width="2" fill="none" />
<polyline points="125.5,310.0,133.5,298.5,141.5,290.0,149.5,284.0,150.5,282.0,140.5,290.0,140.5,295.0,133.5,298.5,128.5,306.5,125.5,314.5,124.0,322.5,130.0,314.0,137.5,304.0,143.5,300.0,149.5,295.0,141.5,306.0,140.0,313.5,140.5,321.0,136.5,322.0,135.0,330.5,148.0,317.5,156.0,306.5,164.5,293.5" stroke="black" stroke-width="2" fill="none" />
<polyline points="164.0,292.5,159.0,300.5,155.0,308.0,149.5,316.0,145.5,323.5,144.0,331.5,151.5,324.5,159.5,312.0,167.0,296.0" stroke="black" stroke-width="2" fill="none" />
<polyline points="168.0,296.0,163.5,304.0,159.5,312.0,154.5,319.5,152.0,324.5,152.0,333.5,155.5,334.5,162.5,329.5,170.5,322.0,178.0,308.0,186.5,287.0" stroke="black" stroke-width="2" fill="none" />
<polyline points="186.0,281.5,193.5,273.5,202.0,266.0" stroke="black" stroke-width="2" fill="none" />
<polyline points="204.0,259.5,212.0,252.5" stroke="black" stroke-width="2" fill="none" />
<polyline points="212.0,256.5,204.5,257.0,196.0,257.5" stroke="black" stroke-width="2" fill="none" />
<polyline points="196.5,256.0,204.5,255.0,212.5,254.0" stroke="black" stroke-width="2" fill="none" />
<polyline points="214.0,259.0,212.0,267.5,210.5,275.5,208.5,284.0,207.0,292.0,205.0,300.0,202.5,308.5,201.5,316.5,199.0,324.5,196.0,333.0,202.5,336.0,208.0,330.5,212.0,332.0,221.0,323.0,229.5,320.0,232.5,316.5,236.0,321.5,243.5,318.5,251.5,316.5,260.0,314.5,262.0,314.5,270.0,312.5,281.0,311.5,289.0,311.5,297.0,312.5,305.5,308.5" stroke="black" stroke-width="2" fill="none" />
<polyline points="315.5,382.0,323.0,381.5,331.0,380.5,339.0,380.5,347.0,380.0,355.0,380.0,363.0,379.0,371.5,378.0,380.0,377.5,388.5,377.0,396.5,376.0,404.5,375.5,412.0,375.5,420.0,375.0,427.5,374.5,435.5,374.5,443.5,374.0,451.5,373.5,459.5,373.5,468.0,373.5,476.0,373.0,484.0,372.5,492.0,371.5,500.0,370.5,508.0,370.0,515.5,369.5" stroke="black" stroke-width="2" fill="none" />
<polyline points="514.0,487.0,505.5,488.0,497.5,489.0,489.5,489.5,482.0,489.5,474.0,490.5,466.0,491.5,458.0,492.0,450.0,492.0,442.0,492.0,434.0,492.0,426.0,493.0,417.5,493.5,410.0,494.5,401.5,495.0,393.5,496.0,385.5,497.5,377.5,498.0,369.5,498.5,361.5,499.0,353.5,499.0,345.5,499.0,337.5,499.0,329.5,500.0,321.5,500.5,313.5,501.5,306.0,502.0,298.0,502.5" stroke="black" stroke-width="2" fill="none" />
<polyline points="291.5,475.0,299.5,467.5" stroke="black" stroke-width="2" fill="none" />
<polyline points="269.5,423.5,277.0,422.5,285.0,422.0,293.0,421.0,301.0,420.0,309.0,419.0,317.0,418.5,324.5,417.5,332.5,417.0,340.5,416.5,348.5,416.5,356.5,415.5,364.5,415.0,373.0,415.0,381.5,414.5,389.0,414.5,397.5,414.0,405.0,414.0,412.5,414.0,420.5,413.5,428.5,413.0,436.5,412.5,444.0,412.5,452.5,412.0,461.0,411.5,469.0,411.0,477.0,410.0,485.0,409.0,493.0,408.0,501.0,407.5,508.5,406.5,517.0,405.5" stroke="black" stroke-width="2" fill="none" />
<polyline points="515.5,383.5,507.0,384.0,498.5,384.0,490.0,385.0,482.5,386.0,474.5,386.5,466.5,387.0,458.5,387.5,450.5,387.5,442.5,388.5,434.5,389.5,426.5,389.5,418.5,390.0,411.0,391.0,403.0,391.5,395.0,391.5,387.0,391.5,378.5,392.0,370.5,392.5,362.5,393.5,354.5,394.0,347.0,395.0,339.5,395.5,332.0,396.0,324.0,396.5,315.5,397.0,307.5,398.5,299.5,399.0" stroke="black" stroke-width="2" fill="none" />
<polyline points="293.5,405.0,301.0,404.0,309.0,403.5,317.0,403.0,325.0,402.0,332.5,402.0,340.5,401.5,349.0,402.0,357.0,402.0,365.5,402.0,373.5,401.5,381.0,401.0,388.5,400.5,396.0,399.5,404.0,398.5,412.5,398.0,420.0,397.0,427.0,396.5,435.0,396.0,443.0,395.5,451.0,395.5,459.0,395.0,467.0,394.0,475.0,393.5,483.5,393.0,491.5,393.0,500.0,393.0,508.0,393.0,516.0,393.0" stroke="black" stroke-width="2" fill="none" />
<polyline points="518.5,399.5,510.0,400.0,501.0,400.0,492.5,400.5,484.0,401.0,476.0,401.5,467.5,402.0,459.0,403.5,451.0,404.0,443.0,404.5,434.5,404.5,426.5,405.0,418.5,405.5,411.0,406.0,403.5,406.0,396.0,406.5,388.0,406.0,380.5,406.0,372.5,406.0,364.5,406.5,356.0,407.0,348.0,408.0,340.0,409.0,332.5,410.0,325.0,410.5,317.0,411.5,309.5,412.0,301.5,413.0,293.5,413.5,285.0,414.0,277.0,414.5" stroke="black" stroke-width="2" fill="none" />
<polyline points="250.0,430.5,257.5,430.5,265.5,430.0,273.5,429.0,282.0,428.0,290.5,426.5,298.5,426.0,306.5,426.5,314.5,426.0,322.5,425.5,330.5,424.5,338.5,424.0,346.0,423.0,354.5,422.5,362.5,422.5,370.5,422.0,379.0,422.0,387.5,421.5,395.5,421.5,403.0,421.0,411.0,420.0,419.0,419.5,427.5,419.0,435.5,418.0,444.0,417.5,452.0,416.0,459.5,415.5,467.0,414.5,474.5,414.0,483.0,413.5,491.0,413.0,499.0,412.5,506.5,412.0,514.5,412.0" stroke="black" stroke-width="2" fill="none" />
<polyline points="516.0,428.0,508.0,428.5,499.5,429.0,491.0,430.5,483.0,431.0,475.0,431.5,466.5,431.5,458.5,432.0,450.5,432.5,443.0,433.0,435.5,433.0,428.0,433.5,420.0,433.0,412.5,433.0,404.5,433.0,396.5,433.5,388.0,434.0,380.0,435.0,372.0,436.0,364.5,437.0,357.0,437.5,349.0,438.5,341.5,439.0,333.5,440.0,325.5,440.5,317.0,441.0,309.0,441.5,301.0,441.5,293.5,442.0,285.0,442.5,277.0,443.5,268.5,444.0,260.5,443.5,253.0,443.5,245.5,444.0,237.5,444.0,230.0,444.0" stroke="black" stroke-width="2" fill="none" />
<polyline points="217.5,454.0,225.5,453.5,233.5,453.5,242.0,452.5,250.5,451.5,259.5,451.5,267.5,451.0,275.5,450.5,283.5,450.0,292.0,448.5,300.0,448.0,308.0,448.0,316.0,447.5,324.5,448.0,333.0,448.0,340.5,448.0,348.5,447.5,356.0,447.0,364.0,446.5,372.0,445.5,380.0,445.0,387.5,444.5,395.5,444.5,403.5,444.0,411.0,443.0,418.5,442.0,426.5,441.0,434.0,439.0,442.0,437.5,450.0,436.5,457.5,436.0,466.0,435.5,474.0,435.0,482.5,435.0,490.5,435.0,499.0,435.0,507.0,434.5,515.5,433.5" stroke="black" stroke-width="2" fill="none" />
<polyline points="514.5,449.0,506.5,450.0,498.5,450.5,491.0,450.5,483.0,450.5,474.5,451.5,466.0,452.0,457.5,452.0,449.5,452.5,441.5,453.5,433.5,454.0,425.5,454.5,418.0,455.0,410.5,456.0,402.5,456.5,394.5,457.5,386.5,457.5,378.5,458.0,370.5,458.5,362.5,459.0,354.5,459.5,347.0,460.0,339.5,460.5,331.5,461.5,324.0,462.0,316.0,462.0,308.0,461.5,300.0,461.0,291.0,461.0,283.5,462.0,275.5,462.0,268.5,462.5,260.5,463.0,252.5,464.0,245.0,465.0,236.5,465.5,229.0,466.0,221.0,466.5,213.5,467.5,206.0,468.5" stroke="black" stroke-width="2" fill="none" />
<polyline points="205.5,460.5,214.0,460.0,222.0,459.5,229.5,459.0,237.0,458.5,245.0,457.5,252.5,457.0,261.0,456.5,269.0,456.0,277.0,456.0,284.5,456.0,292.5,455.0,300.5,454.5,308.5,454.0,316.0,453.5,323.5,453.5,332.0,453.0,340.0,453.0,348.5,452.5,356.5,452.0,364.5,451.5,372.5,451.5,380.0,451.5,387.5,451.0,395.5,450.0,403.5,449.0,411.5,448.5,419.5,448.0,427.5,447.0,435.0,446.5,443.0,446.0,451.0,445.5,459.0,444.5,467.5,444.0,475.5,443.5,483.5,443.5,492.0,443.0,499.5,442.5,507.5,442.0,515.5,442.0" stroke="black" stroke-width="2" fill="none" />
<polyline points="513.5,458.5,505.5,459.0,497.5,459.5,489.5,460.0,481.5,460.0,473.5,460.0,465.5,460.0,457.5,461.0,449.5,461.5,441.5,462.5,434.0,463.0,426.0,463.5,418.5,464.0,410.0,463.5,402.0,463.5,394.5,463.5,386.5,463.0,379.0,463.5,371.5,464.5,364.0,464.5,356.5,465.0,349.0,465.0,341.0,465.5,332.5,466.5,324.5,467.0,316.5,467.5,309.0,468.0,300.5,469.5,292.5,470.5,284.5,471.5,276.0,472.5,268.0,473.0,260.0,473.5,253.5,474.0,246.0,474.5,238.0,475.0,229.5,475.5,221.5,476.0,213.5,476.5,205.0,477.5,196.5,478.0,188.0,478.5" stroke="black" stroke-width="2" fill="none" />
<polyline points="195.5,484.0,187.5,491.5" stroke="black" stroke-width="2" fill="none" />
<polyline points="195.5,523.5,187.5,531.0" stroke="black" stroke-width="2" fill="none" />
<polyline points="178.5,532.5,171.0,540.5" stroke="black" stroke-width="2" fill="none" />
<polyline points="146.5,546.5,138.0,554.0,130.0,561.5" stroke="black" stroke-width="2" fill="none" />
<polyline points="125.5,559.5,133.0,559.0,140.0,558.0,148.0,557.0,155.5,556.0,163.5,555.5,171.5,555.0,179.0,555.0,186.5,555.0,194.5,554.0,202.5,553.0,210.5,553.0,219.0,553.0,227.5,552.5,235.0,552.0,243.0,552.0,250.5,551.5,258.5,550.5,266.0,549.5" stroke="black" stroke-width="2" fill="none" />
<polyline points="153.5,495.0,161.5,494.0,169.5,493.0,178.0,492.0,186.0,491.5,194.5,490.5,203.5,489.5,211.5,488.5,220.5,487.5,229.0,486.0,237.5,485.5,245.5,485.0,253.5,485.5,261.5,485.5,269.0,485.5,277.0,485.0,284.5,485.0,292.0,484.5,299.5,484.5,307.0,484.5,315.0,483.5,323.5,483.0,331.5,482.0,339.5,481.5,348.0,480.5,356.0,480.0,364.0,479.5,371.5,479.0,379.5,479.0,387.5,479.0,395.5,479.0,403.0,478.5,410.5,477.0,418.5,476.5,426.5,476.0,434.5,475.5,443.0,475.0,452.0,475.0,460.5,474.5,469.0,474.5,477.0,474.0,485.0,473.5,493.0,473.0,500.5,472.0,508.5,471.5,516.5,471.0" stroke="black" stroke-width="2" fill="none" />
<polyline points="243.0,556.5,235.0,557.5,227.0,558.5,219.5,559.5,211.0,560.0,203.5,560.5,195.5,561.5,187.5,562.0,179.0,562.0,170.5,562.5,163.0,563.5,155.5,565.0,148.0,566.0,140.5,567.0,133.0,567.0" stroke="black" stroke-width="2" fill="none" />
<polyline points="131.0,555.5,139.0,547.5" stroke="black" stroke-width="2" fill="none" />
<polyline points="123.5,550.0,131.5,549.5,140.0,549.5,148.0,549.0,156.0,549.0,164.0,548.5,172.0,548.0,180.0,547.0,188.0,546.0,196.0,545.0,203.5,544.5,212.0,544.0,220.5,543.5,228.5,543.5,236.0,543.5,243.5,543.0,251.5,542.0,259.0,541.5,266.5,541.0,274.0,540.5,281.5,540.5,289.5,540.0,298.0,539.0,306.5,538.0,315.0,537.5,323.0,537.0,331.0,535.5,338.5,534.5" stroke="black" stroke-width="2" fill="none" />
<polyline points="294.0,490.5,286.0,491.0,277.5,491.5,269.0,492.0,261.5,492.5,253.0,493.0,244.5,494.0,235.5,495.0,227.0,496.0,219.0,497.5,210.5,498.0,203.0,498.5,195.0,498.5,187.0,499.0,179.5,498.5,171.5,499.0,163.0,500.0,155.0,500.5,146.5,501.0,138.5,501.0,131.0,502.0" stroke="black" stroke-width="2" fill="none" />
<polyline points="124.0,508.5,132.0,508.5,140.0,508.0,148.0,508.0,156.0,508.5,164.5,508.5,172.5,507.5,180.0,507.0,188.0,506.5,196.5,506.5,204.5,506.5,212.0,505.5,219.5,504.5,227.5,504.0,235.5,503.0,242.5,502.0,250.5,501.0,258.5,500.5,266.5,500.0,275.0,499.5,283.5,499.0,291.5,499.0,299.5,498.5,307.0,497.5,314.5,497.0,322.0,496.5,330.0,496.0,338.0,495.0,346.5,494.5,354.5,494.0,362.5,493.5,370.5,493.0,378.5,493.0,387.5,492.5,395.5,492.5,404.0,492.0,412.5,492.0,421.0,491.5,428.5,491.0,436.0,490.5,444.0,490.0,452.0,489.5,459.5,489.0,467.5,489.0,475.0,488.5,482.5,488.5,491.0,488.5,499.0,488.0,507.5,487.5,515.5,486.5" stroke="black" stroke-width="2" fill="none" />
<polyline points="453.0,503.5,445.0,503.5,437.0,504.5,429.0,505.0,420.5,506.0,412.0,506.0,403.0,506.0,394.5,506.5,386.5,507.5,378.0,508.5,370.0,509.5,361.5,510.0,354.0,511.0,346.0,511.0,338.0,511.5,330.5,512.0,323.0,512.5,315.0,513.5,307.0,514.0,298.5,515.0,290.0,515.5,282.0,516.0,274.0,516.5,266.0,516.5,258.5,517.0,251.5,518.0,244.0,519.0,236.5,520.0,228.5,520.5,220.5,521.0,213.0,521.5,205.0,521.5,197.5,522.0,189.5,522.5,182.0,522.5,173.5,522.5,165.5,523.0,158.0,523.5,150.0,524.0,142.0,524.5,134.0,526.0,125.5,526.5" stroke="black" stroke-width="2" fill="none" />
<polyline points="115.0,532.0,123.5,532.0,132.0,532.0,140.5,532.5,148.5,532.5,156.5,532.5,164.0,532.5,171.5,532.0,179.0,531.5,186.5,530.5,194.0,529.5,202.5,529.0,211.0,529.0,219.5,528.0,227.0,527.0,235.0,526.0,243.5,525.0,251.0,523.5,259.0,522.0,267.0,521.0,275.0,520.5,283.0,520.0,291.5,520.0,300.0,520.0,308.0,520.5" stroke="black" stroke-width="2" fill="none" />
<polyline points="317.0,528.0,309.0,528.5,301.5,528.5,293.5,528.5,285.5,528.0,277.5,528.5,269.0,529.0,260.5,530.5,251.5,531.5,243.5,532.5,234.5,533.5,226.0,534.5,218.0,535.0,209.5,536.0,201.5,537.0,193.5,538.0,185.0,538.0,176.5,538.5,169.0,539.0,161.5,539.0,154.0,539.0,146.5,539.0,139.0,539.5,131.5,539.5,124.0,540.0,115.5,540.0" stroke="black" stroke-width="2" fill="none" />
<polyline points="115.5,518.0,123.5,517.0,131.5,516.5,140.0,516.5,148.5,516.0,156.5,515.5,164.5,515.0,172.5,515.0,180.5,515.0,188.5,514.5,196.5,513.5,204.0,513.5,211.5,513.0,219.0,512.5,226.5,512.0,234.0,511.5,242.0,510.0,250.0,508.5,258.0,507.0,266.5,506.0,275.0,505.0,283.0,504.5,291.0,504.5,299.0,504.5,308.0,504.5,316.5,504.0,324.5,503.5,332.5,503.0,340.5,503.0,348.5,502.5,357.0,502.0,365.0,501.5,373.0,500.0,380.5,499.5,388.0,498.5,395.5,498.5,403.5,497.0,412.0,497.0,420.5,496.5,428.5,496.5,436.5,496.5,444.5,495.5,452.5,494.5,460.0,494.0,467.5,494.0,475.0,493.5,483.0,494.0,490.5,493.5,498.5,493.5,506.5,493.5" stroke="black" stroke-width="2" fill="none" />
<polyline points="496.5,265.5,491.5,267.5,488.5,273.5,490.0,271.0,496.5,264.0,494.5,255.5,489.5,247.5,485.5,239.5,484.5,231.5,477.0,228.0,469.0,233.5,461.0,239.0,452.5,243.0,444.5,247.5,436.5,251.5,428.5,255.5,420.5,258.5,412.5,263.0,404.5,267.0,396.5,271.5,388.5,275.0,380.5,279.0,373.0,284.0,365.0,287.5,357.5,292.5,349.5,296.5,341.0,300.5,333.0,305.0,325.0,309.0,316.5,312.5,308.5,316.5,300.0,320.5,291.5,325.0,283.5,328.0,275.0,332.0,267.0,336.0,259.0,340.0,251.5,344.0,243.5,348.0,236.0,352.5,228.0,356.5,220.0,360.0,212.0,363.0,204.0,366.5,196.5,369.5,188.5,371.5" stroke="black" stroke-width="2" fill="none" />
<polyline points="155.0,374.0,147.0,374.5,139.5,376.0,132.0,376.5,124.5,376.5,116.5,377.0,108.5,377.0,100.0,377.5,92.0,377.5,83.5,377.5,75.0,377.0" stroke="black" stroke-width="2" fill="none" />
<polyline points="76.0,373.0,84.0,372.5,92.0,372.5,100.5,372.0,109.0,372.5,117.0,372.0,125.5,372.0,133.5,372.0,141.0,372.0,148.5,371.5,156.0,370.5" stroke="black" stroke-width="2" fill="none" />
<polyline points="138.0,357.5,141.0,351.0,144.0,349.5,152.0,348.5,157.0,351.0,158.0,347.0,166.0,347.0,174.0,346.0,182.0,343.0" stroke="black" stroke-width="2" fill="none" />
<polyline points="179.5,301.5,188.0,301.0,196.5,300.5" stroke="black" stroke-width="2" fill="none" />
<polyline points="201.0,293.0,202.0,285.0,205.0,277.0,197.5,269.0,189.5,274.5" stroke="black" stroke-width="2" fill="none" />
<polyline points="192.0,276.0,191.0,284.5" stroke="black" stroke-width="2" fill="none" />
<polyline points="185.5,276.0,194.0,275.5,202.0,275.0" stroke="black" stroke-width="2" fill="none" />
<polyline points="203.0,268.0,195.0,268.5" stroke="black" stroke-width="2" fill="none" />
<polyline points="193.5,258.0,201.0,250.5" stroke="black" stroke-width="2" fill="none" />
<polyline points="202.5,244.0,210.5,236.0" stroke="black" stroke-width="2" fill="none" />
<polyline points="212.5,240.0,204.5,240.0" stroke="black" stroke-width="2" fill="none" />
<polyline points="203.5,236.5,211.0,236.0" stroke="black" stroke-width="2" fill="none" />
<polyline points="219.0,238.5,219.0,240.5,218.0,248.5,215.5,256.5,211.5,265.0,203.0,270.0,201.0,278.5,200.0,286.5,197.5,295.0,195.5,303.0,193.5,310.5,180.5,319.0,169.0,326.5,177.5,320.5,185.5,316.5,193.5,312.5,206.5,304.5,214.5,297.5,222.0,288.5,229.5,279.5,237.5,270.5,245.5,261.5,253.5,253.0,262.0,245.0,270.0,239.5,269.0,240.0,258.0,248.0,249.5,256.0,243.0,264.0,235.0,271.5,228.0,279.5,221.0,287.5,213.5,296.0,200.0,299.0,199.0,307.0,194.5,315.0,192.5,323.5,191.5,331.5,190.5,340.0,189.5,348.5,189.0,356.5,187.0,365.0,184.0,372.5,182.0,380.5,181.0,388.5,181.0,396.0" stroke="black" stroke-width="2" fill="none" />
<polyline points="131.5,363.5,123.5,371.0,115.5,378.5,107.0,386.0,98.5,393.0,90.0,401.0" stroke="black" stroke-width="2" fill="none" />
<polyline points="92.5,401.5,100.0,400.5,108.0,400.0" stroke="black" stroke-width="2" fill="none" />
<polyline points="108.0,396.0,100.0,403.5" stroke="black" stroke-width="2" fill="none" />
<polyline points="107.0,395.0,98.0,396.0,89.5,397.0" stroke="black" stroke-width="2" fill="none" />
<polyline points="93.0,392.0,101.5,384.0,109.5,376.5,117.5,369.0,125.5,361.0,133.5,353.5" stroke="black" stroke-width="2" fill="none" />
<polyline points="131.0,351.5,123.0,352.0,115.0,352.0" stroke="black" stroke-width="2" fill="none" />
<polyline points="115.0,348.5,123.5,348.0,131.5,347.0" stroke="black" stroke-width="2" fill="none" />
<polyline points="129.0,353.5,137.0,347.5,137.5,348.5,137.5,354.5,132.5,360.0,132.5,368.0,139.5,367.0" stroke="black" stroke-width="2" fill="none" />
<polyline points="131.5,359.0,123.5,359.0,116.0,359.5,108.5,360.5" stroke="black" stroke-width="2" fill="none" />
<polyline points="110.5,358.0,118.0,358.0,126.0,357.5,133.5,357.5" stroke="black" stroke-width="2" fill="none" />
<polyline points="131.5,336.5,123.5,337.5" stroke="black" stroke-width="2" fill="none" />
<polyline points="123.5,333.5,131.5,333.0" stroke="black" stroke-width="2" fill="none" />
<polyline points="126.0,333.0,125.0,341.5,124.5,349.5,128.5,354.0,128.5,362.5,133.0,371.0,137.0,378.5,115.0,386.5,92.0,394.5,67.5,402.5" stroke="black" stroke-width="2" fill="none" />
<polyline points="60.5,403.5,68.5,396.0,76.0,387.5,84.0,379.5,92.0,371.5,100.0,364.0" stroke="black" stroke-width="2" fill="none" />
<polyline points="83.0,372.5,75.5,379.5,67.0,387.0,59.5,395.0,51.5,403.0,43.5,411.0,35.5,418.0" stroke="black" stroke-width="2" fill="none" />
<polyline points="26.0,417.5,34.0,410.0,42.0,402.5,50.5,395.5,58.5,388.5,66.5,381.0" stroke="black" stroke-width="2" fill="none" />
<polyline points="58.5,381.0,66.0,381.0,74.0,380.5,81.5,380.5,90.0,379.5,98.0,379.0,106.0,378.5,114.0,378.5,122.5,378.0,131.0,377.5" stroke="black" stroke-width="2" fill="none" />
<polyline points="133.0,382.5,124.5,382.5,116.0,382.5,107.0,382.0,98.5,382.5,90.5,382.5,83.0,383.5,75.0,384.5,67.0,385.0,58.5,385.5" stroke="black" stroke-width="2" fill="none" />
<polyline points="50.5,387.0,42.5,394.5,34.5,402.5,26.5,410.0,19.0,417.5" stroke="black" stroke-width="2" fill="none" />
<polyline points="21.0,417.0,29.0,417.0,36.5,416.0,44.0,415.5,52.5,415.0" stroke="black" stroke-width="2" fill="none" />
<polyline points="49.5,411.5,42.0,419.0" stroke="black" stroke-width="2" fill="none" />
<polyline points="51.0,407.5,42.5,408.0,34.5,408.5,26.5,409.0" stroke="black" stroke-width="2" fill="none" />
<polyline points="26.0,410.0,34.0,410.0,42.5,408.0,51.0,407.5,58.5,405.5,66.5,403.5,74.5,400.5,82.0,397.5,90.0,395.5,97.5,392.5,105.5,389.5,113.5,387.5,122.0,384.5,130.5,381.5" stroke="black" stroke-width="2" fill="none" />
<polyline points="109.0,385.5,100.5,386.0,92.5,386.0,85.0,386.5,76.5,386.5,68.0,387.5,59.5,388.0,51.0,388.5,43.0,389.5" stroke="black" stroke-width="2" fill="none" />
<polyline points="44.0,392.0,52.0,392.0,60.0,391.5,68.0,391.5,76.0,391.5,84.5,391.0,92.0,391.0,100.0,390.0,107.5,389.5" stroke="black" stroke-width="2" fill="none" />
<polyline points="110.0,392.5,85.0,400.0" stroke="black" stroke-width="2" fill="none" />
<polyline points="84.0,398.5,76.0,398.5,67.5,399.0,59.0,398.5,50.5,398.5,42.0,399.0,34.5,400.0" stroke="black" stroke-width="2" fill="none" />
<polyline points="33.5,396.5,42.0,396.5,50.0,396.0,58.5,396.0,67.0,396.0,75.5,395.5,84.0,395.5" stroke="black" stroke-width="2" fill="none" />
<polyline points="52.5,406.0,44.0,407.0,35.0,407.5,27.0,407.5" stroke="black" stroke-width="2" fill="none" />
<polyline points="19.5,412.0,27.0,412.0,35.0,411.0,43.0,410.5,50.5,410.0" stroke="black" stroke-width="2" fill="none" />
<polyline points="16.0,411.5,13.0,419.5,14.5,428.0,19.5,440.5,25.0,449.0,30.0,457.0,36.5,452.5,35.0,460.5,33.0,464.5,43.5,464.0,48.5,468.0,62.5,467.0,71.0,463.0,79.0,462.0,87.0,459.5,95.0,457.0,103.0,453.5,111.0,451.0,119.0,447.5,127.0,445.5,134.5,442.0,143.0,439.0,151.0,436.5,159.5,434.0,167.5,431.5,175.5,429.0,183.5,426.0,191.5,422.0,199.5,419.5,207.5,416.5,216.0,413.0,224.0,409.0,232.0,405.0,240.0,402.0,248.0,398.0,256.0,395.0,263.5,391.0,271.0,387.0,279.0,383.0,287.0,379.0,295.0,375.0,303.0,371.0,311.0,366.5,319.0,362.5,327.0,359.0,335.0,355.0,343.0,350.0,350.5,346.5,358.5,342.5,366.5,338.5,374.5,334.5,382.5,329.0,390.5,325.0,399.0,321.5,407.0,316.5,415.5,312.5,423.5,308.5,431.5,304.5,439.5,300.5,447.5,295.5,455.5,291.5,463.5,286.5,471.5,281.5,479.5,276.5" stroke="black" stroke-width="2" fill="none" />
<polyline points="369.5,218.0,358.5,227.0,358.5,232.0,360.0,227.0,365.0,224.5" stroke="black" stroke-width="2" fill="none" />
<polyline points="276.5,188.5,268.5,196.0,260.5,203.0,252.5,210.5,245.0,217.0,237.5,224.0,229.0,231.5,220.5,240.0" stroke="black" stroke-width="2" fill="none" />
<polyline points="220.0,240.0,220.0,248.0" stroke="black" stroke-width="2" fill="none" />
<polyline points="219.0,241.5,227.0,241.0,235.0,240.5,243.0,239.5,250.5,239.0,258.5,238.0,266.5,238.0,274.0,238.0" stroke="black" stroke-width="2" fill="none" />
<polyline points="275.5,230.0,268.5,230.5,260.5,231.0,252.5,231.5,245.0,232.0,237.0,232.5,229.0,233.0,220.5,233.5" stroke="black" stroke-width="2" fill="none" />
<polyline points="221.0,229.0,229.0,228.5,237.0,227.0,244.5,226.5,252.0,225.5,259.5,225.5,267.5,224.0,276.0,224.0,284.5,223.5,292.5,223.5,300.5,223.5,308.5,222.5,316.5,221.5,324.0,221.0,331.5,221.0,339.0,220.5" stroke="black" stroke-width="2" fill="none" />
<polyline points="274.0,195.0,266.5,202.0,259.0,209.5,251.0,217.0,243.5,224.5,236.0,232.0,228.5,240.0" stroke="black" stroke-width="2" fill="none" />
<polyline points="239.5,236.0,234.0,244.0,228.0,253.0" stroke="black" stroke-width="2" fill="none" />
<polyline points="213.5,261.0,221.0,260.0,228.5,260.0,237.0,260.0,245.0,259.0" stroke="black" stroke-width="2" fill="none" />
<polyline points="252.0,219.0,245.0,228.0,237.0,239.5,230.5,248.5,218.0,249.5,214.0,243.5,216.0,235.5,220.5,227.5,222.5,220.0,227.0,212.5,232.0,204.5,237.5,196.5,244.5,188.0,249.0,191.0" stroke="black" stroke-width="2" fill="none" />
<polyline points="248.0,190.0,256.0,189.5,263.5,190.5,275.5,189.0" stroke="black" stroke-width="2" fill="none" />
<polyline points="275.5,190.5,267.0,191.5,258.5,192.5,250.0,192.5,242.0,192.5" stroke="black" stroke-width="2" fill="none" />
<polyline points="244.0,189.0,252.5,188.5,260.5,188.0,268.0,188.0,275.0,187.5" stroke="black" stroke-width="2" fill="none" />
<polyline points="266.5,198.0,266.5,198.0,266.5,195.0,258.5,193.0" stroke="black" stroke-width="2" fill="none" />
<polyline points="254.0,188.0,246.0,195.5,238.0,203.5" stroke="black" stroke-width="2" fill="none" />
<polyline points="200.5,240.5,207.5,238.5,197.0,244.5,195.0,253.0,186.0,258.0,180.5,266.0,175.0,273.5,163.5,281.5,164.5,283.5,165.5,280.0,173.5,275.0,181.5,264.0,189.5,255.5,200.5,247.5,208.0,248.5" stroke="black" stroke-width="2" fill="none" />
<polyline points="194.5,246.5,200.5,235.0,208.5,234.0" stroke="black" stroke-width="2" fill="none" />
<polyline points="214.0,259.5,204.5,256.5,196.5,258.0,183.0,268.0,175.0,278.5,168.5,281.0,178.5,273.0,184.5,265.0,189.5,257.0" stroke="black" stroke-width="2" fill="none" />
<polyline points="179.0,276.5,171.0,277.0" stroke="black" stroke-width="2" fill="none" />
<polyline points="171.0,291.0,163.0,298.5" stroke="black" stroke-width="2" fill="none" />
<polyline points="163.0,296.0,170.5,295.5" stroke="black" stroke-width="2" fill="none" />
<polyline points="170.0,294.0,161.5,294.5" stroke="black" stroke-width="2" fill="none" />
<polyline points="148.5,294.0,140.5,294.0" stroke="black" stroke-width="2" fill="none" />
<polyline points="140.5,295.0,148.5,292.0,149.0,287.0" stroke="black" stroke-width="2" fill="none" />
<polyline points="141.0,304.5,136.0,312.5,132.5,315.0,135.5,316.0,140.5,324.0" stroke="black" stroke-width="2" fill="none" />
<polyline points="154.5,328.5,146.0,333.5,138.0,335.5,130.0,335.0,122.0,334.0,114.0,347.5,105.5,359.5,98.0,362.5,90.0,365.5,82.0,369.5,73.5,373.5,65.5,378.0,58.0,382.5,50.0,387.5,42.5,392.5,34.5,399.0,27.0,407.0,30.0,404.0,38.0,396.0,48.0,388.0,63.0,380.0,79.0,372.0,95.5,363.5,110.0,355.5,114.0,347.5,119.0,339.5,126.0,331.5" stroke="black" stroke-width="2" fill="none" />
<polyline points="133.0,304.5,136.0,299.5,133.5,307.0,130.5,310.0,127.0,316.5,132.0,322.5,134.0,322.5,135.5,330.5,133.5,343.0,131.5,351.0,133.5,358.5,136.5,364.5,137.0,369.0,136.0,376.0,144.0,377.0,151.5,375.0,159.5,372.0,167.5,369.0,175.5,367.0" stroke="black" stroke-width="2" fill="none" />
<polyline points="101.5,455.0,94.0,458.0,86.0,459.5" stroke="black" stroke-width="2" fill="none" />
<polyline points="56.0,463.5,48.0,463.5,40.0,466.0,32.0,460.0" stroke="black" stroke-width="2" fill="none" />
<polyline points="33.5,445.0,25.5,445.0" stroke="black" stroke-width="2" fill="none" />
<polyline points="21.5,444.5,29.5,454.5,32.5,451.5" stroke="black" stroke-width="2" fill="none" />
<polyline points="16.0,417.5,24.0,418.5,32.0,417.5,39.5,416.0,47.0,415.0,55.0,413.0,63.0,411.0,71.0,408.5,79.0,406.5,87.0,403.5,95.0,402.0,103.0,400.0,111.0,396.5,119.0,394.5,127.5,391.5,135.5,389.0,136.5,388.0" stroke="black" stroke-width="2" fill="none" />
<polyline points="131.0,385.0,154.5,376.5,176.5,368.5,179.0,372.0,168.0,371.5,159.5,375.0,151.0,378.0,143.0,380.5,134.5,385.0,126.5,387.0,118.0,390.0,110.0,392.5,102.0,395.5,94.0,398.0,85.5,400.5,77.5,403.0,69.5,406.0,62.0,407.5,54.0,409.0,46.5,411.0,38.5,411.5,31.0,413.5,23.5,413.5,15.0,413.0" stroke="black" stroke-width="2" fill="none" />
</svg>